<?xml version="1.0" encoding="UTF-8" standalone="no"?>
<svg width="4208.47px" height="2409.45px" viewBox="0 0 4208.47 2409.45"
 xmlns="http://www.w3.org/2000/svg" xmlns:xlink="http://www.w3.org/1999/xlink" version="1.2" baseProfile="tiny">
<title>PETE</title>
<desc>Generated by MuseScore 3.6.2</desc>
<polyline class="StaffLines" fill="none" stroke="#000000" stroke-width="5.53" stroke-linejoin="bevel" points="70.866,454.598 4137.61,454.598"/>
<polyline class="StaffLines" fill="none" stroke="#000000" stroke-width="5.53" stroke-linejoin="bevel" points="70.866,504.913 4137.61,504.913"/>
<polyline class="StaffLines" fill="none" stroke="#000000" stroke-width="5.53" stroke-linejoin="bevel" points="70.866,555.228 4137.61,555.228"/>
<polyline class="StaffLines" fill="none" stroke="#000000" stroke-width="5.53" stroke-linejoin="bevel" points="70.866,605.543 4137.61,605.543"/>
<polyline class="StaffLines" fill="none" stroke="#000000" stroke-width="5.53" stroke-linejoin="bevel" points="70.866,655.858 4137.61,655.858"/>
<polyline class="StaffLines" fill="none" stroke="#000000" stroke-width="5.53" stroke-linejoin="bevel" points="70.866,1289.6 4137.61,1289.6"/>
<polyline class="StaffLines" fill="none" stroke="#000000" stroke-width="5.53" stroke-linejoin="bevel" points="70.866,1339.92 4137.61,1339.92"/>
<polyline class="StaffLines" fill="none" stroke="#000000" stroke-width="5.53" stroke-linejoin="bevel" points="70.866,1390.23 4137.61,1390.23"/>
<polyline class="StaffLines" fill="none" stroke="#000000" stroke-width="5.53" stroke-linejoin="bevel" points="70.866,1440.55 4137.61,1440.55"/>
<polyline class="StaffLines" fill="none" stroke="#000000" stroke-width="5.53" stroke-linejoin="bevel" points="70.866,1490.86 4137.61,1490.86"/>
<polyline class="StaffLines" fill="none" stroke="#000000" stroke-width="5.53" stroke-linejoin="bevel" points="70.866,2124.6 4137.61,2124.6"/>
<polyline class="StaffLines" fill="none" stroke="#000000" stroke-width="5.53" stroke-linejoin="bevel" points="70.866,2174.92 4137.61,2174.92"/>
<polyline class="StaffLines" fill="none" stroke="#000000" stroke-width="5.53" stroke-linejoin="bevel" points="70.866,2225.23 4137.61,2225.23"/>
<polyline class="StaffLines" fill="none" stroke="#000000" stroke-width="5.53" stroke-linejoin="bevel" points="70.866,2275.55 4137.61,2275.55"/>
<polyline class="StaffLines" fill="none" stroke="#000000" stroke-width="5.53" stroke-linejoin="bevel" points="70.866,2325.86 4137.61,2325.86"/>
<path class="MeasureNumber" d="M92.3504,1160.66 L90.1785,1160.66 L71.5535,1179.94 L71.5535,1181.61 L82.8191,1181.61 L82.1785,1184.05 C81.6629,1186.05 81.6316,1186.17 81.2566,1186.53 C80.866,1186.92 80.0222,1187.1 77.8972,1187.1 L77.1785,1187.1 L76.9441,1188.97 L89.3816,1188.97 L89.5847,1187.1 L88.866,1187.1 C86.2254,1187.1 85.6629,1186.89 85.6629,1186.02 C85.6629,1185.69 85.741,1185.3 86.0691,1184.05 L86.741,1181.61 L91.3035,1181.61 L91.8972,1179.45 L87.3035,1179.45 L92.3504,1160.66 M83.4285,1179.45 L74.4597,1179.45 L86.8191,1166.74 L83.4285,1179.45 "/>
<path class="MeasureNumber" d="M76.1785,2010.58 C76.866,2007.05 77.6629,2004.86 79.1785,2002.18 C80.991,1999.02 83.1472,1997.41 85.5379,1997.41 C86.7879,1997.41 87.5379,1997.89 87.5379,1998.66 C87.5379,1998.94 87.4597,1999.1 87.1785,1999.61 C86.8191,2000.3 86.6629,2000.77 86.6629,2001.38 C86.6629,2002.66 87.616,2003.53 88.9754,2003.53 C90.616,2003.53 91.741,2002.33 91.741,2000.53 C91.741,1997.82 89.1785,1995.82 85.616,1995.82 C81.866,1995.82 78.5066,1997.82 75.7879,2001.66 C72.991,2005.61 71.3035,2010.69 71.3035,2015.13 C71.3035,2021.02 74.2254,2024.57 79.1004,2024.57 C82.1004,2024.57 84.7879,2023.38 86.7097,2021.25 C88.4597,2019.25 89.5379,2016.38 89.5379,2013.74 C89.5379,2009.66 86.7879,2006.82 82.7879,2006.82 C79.991,2006.82 77.8191,2008.02 76.1785,2010.58 M81.5066,2009.13 C83.991,2009.13 85.3504,2010.85 85.3504,2013.97 C85.3504,2019.05 82.6629,2022.93 79.1004,2022.93 C76.5379,2022.93 75.0222,2021.05 75.0222,2017.85 C75.0222,2012.85 77.7879,2009.13 81.5066,2009.13"/>
<polyline class="BarLine" fill="none" stroke="#000000" stroke-width="27.67" stroke-linejoin="bevel" points="1491.38,451.831 1491.38,658.625"/>
<polyline class="BarLine" fill="none" stroke="#000000" stroke-width="9.06" stroke-linejoin="bevel" points="1526.6,451.831 1526.6,658.625"/>
<path class="BarLine" transform="matrix(2.0126,0,0,2.0126,1551.35,530.071)" d="M10.4063,0 C10.4063,-2.90625 8.09375,-5.29688 5.20313,-5.29688 C2.29688,-5.29688 0,-2.90625 0,0 C0,2.90625 2.29688,5.29688 5.20313,5.29688 C8.09375,5.29688 10.4063,2.90625 10.4063,0"/>
<path class="BarLine" transform="matrix(2.0126,0,0,2.0126,1551.35,580.386)" d="M10.4063,0 C10.4063,-2.90625 8.09375,-5.29688 5.20313,-5.29688 C2.29688,-5.29688 0,-2.90625 0,0 C0,2.90625 2.29688,5.29688 5.20313,5.29688 C8.09375,5.29688 10.4063,2.90625 10.4063,0"/>
<polyline class="BarLine" fill="none" stroke="#000000" stroke-width="9.06" stroke-linejoin="bevel" points="3022.86,451.831 3022.86,658.625"/>
<polyline class="BarLine" fill="none" stroke="#000000" stroke-width="9.06" stroke-linejoin="bevel" points="4133.08,451.831 4133.08,658.625"/>
<polyline class="BarLine" fill="none" stroke="#000000" stroke-width="9.06" stroke-linejoin="bevel" points="1900.46,1286.83 1900.46,1493.63"/>
<polyline class="BarLine" fill="none" stroke="#000000" stroke-width="9.06" stroke-linejoin="bevel" points="4133.08,1286.83 4133.08,1493.63"/>
<polyline class="BarLine" fill="none" stroke="#000000" stroke-width="9.06" stroke-linejoin="bevel" points="1859.22,2121.83 1859.22,2328.63"/>
<path class="BarLine" transform="matrix(2.0126,0,0,2.0126,3122.34,2200.07)" d="M10.4063,0 C10.4063,-2.90625 8.09375,-5.29688 5.20313,-5.29688 C2.29688,-5.29688 0,-2.90625 0,0 C0,2.90625 2.29688,5.29688 5.20313,5.29688 C8.09375,5.29688 10.4063,2.90625 10.4063,0"/>
<path class="BarLine" transform="matrix(2.0126,0,0,2.0126,3122.34,2250.39)" d="M10.4063,0 C10.4063,-2.90625 8.09375,-5.29688 5.20313,-5.29688 C2.29688,-5.29688 0,-2.90625 0,0 C0,2.90625 2.29688,5.29688 5.20313,5.29688 C8.09375,5.29688 10.4063,2.90625 10.4063,0"/>
<polyline class="BarLine" fill="none" stroke="#000000" stroke-width="9.06" stroke-linejoin="bevel" points="3168.02,2121.83 3168.02,2328.63"/>
<polyline class="BarLine" fill="none" stroke="#000000" stroke-width="27.67" stroke-linejoin="bevel" points="3203.24,2121.83 3203.24,2328.63"/>
<polyline class="BarLine" fill="none" stroke="#000000" stroke-width="9.06" stroke-linejoin="bevel" points="4088.55,2121.83 4088.55,2328.63"/>
<polyline class="BarLine" fill="none" stroke="#000000" stroke-width="27.67" stroke-linejoin="bevel" points="4123.77,2121.83 4123.77,2328.63"/>
<polyline class="Stem" fill="none" stroke="#000000" stroke-width="5.53" stroke-linejoin="bevel" points="589.959,599.103 589.959,442.02"/>
<polyline class="Stem" fill="none" stroke="#000000" stroke-width="5.53" stroke-linejoin="bevel" points="750.951,523.63 750.951,391.705"/>
<polyline class="Stem" fill="none" stroke="#000000" stroke-width="5.53" stroke-linejoin="bevel" points="1065.07,548.788 1065.07,404.283"/>
<polyline class="Stem" fill="none" stroke="#000000" stroke-width="5.53" stroke-linejoin="bevel" points="1226.06,573.945 1226.06,416.862"/>
<polyline class="Stem" fill="none" stroke="#000000" stroke-width="5.53" stroke-linejoin="bevel" points="1720.73,536.833 1720.73,668.437"/>
<polyline class="Stem" fill="none" stroke="#000000" stroke-width="5.53" stroke-linejoin="bevel" points="1893.51,511.676 1893.51,655.858"/>
<polyline class="Stem" fill="none" stroke="#000000" stroke-width="5.53" stroke-linejoin="bevel" points="2104.2,486.518 2104.2,643.279"/>
<polyline class="Stem" fill="none" stroke="#000000" stroke-width="5.53" stroke-linejoin="bevel" points="2265.19,511.676 2265.19,655.858"/>
<polyline class="Stem" fill="none" stroke="#000000" stroke-width="5.53" stroke-linejoin="bevel" points="2437.97,536.833 2437.97,693.594"/>
<polyline class="Stem" fill="none" stroke="#000000" stroke-width="5.53" stroke-linejoin="bevel" points="2610.75,561.991 2610.75,706.173"/>
<polyline class="Stem" fill="none" stroke="#000000" stroke-width="5.53" stroke-linejoin="bevel" points="3240.96,599.103 3240.96,442.02"/>
<polyline class="Stem" fill="none" stroke="#000000" stroke-width="5.53" stroke-linejoin="bevel" points="3401.95,523.63 3401.95,391.705"/>
<polyline class="Stem" fill="none" stroke="#000000" stroke-width="5.53" stroke-linejoin="bevel" points="3716.07,548.788 3716.07,404.283"/>
<polyline class="Stem" fill="none" stroke="#000000" stroke-width="5.53" stroke-linejoin="bevel" points="3877.06,573.945 3877.06,416.862"/>
<polyline class="Stem" fill="none" stroke="#000000" stroke-width="5.53" stroke-linejoin="bevel" points="453.983,1371.83 453.983,1503.44"/>
<polyline class="Stem" fill="none" stroke="#000000" stroke-width="5.53" stroke-linejoin="bevel" points="648.653,1346.68 648.653,1490.86"/>
<polyline class="Stem" fill="none" stroke="#000000" stroke-width="5.53" stroke-linejoin="bevel" points="886.027,1321.52 886.027,1478.28"/>
<polyline class="Stem" fill="none" stroke="#000000" stroke-width="5.53" stroke-linejoin="bevel" points="1047.02,1346.68 1047.02,1490.86"/>
<polyline class="Stem" fill="none" stroke="#000000" stroke-width="5.53" stroke-linejoin="bevel" points="1241.69,1371.83 1241.69,1528.6"/>
<polyline class="Stem" fill="none" stroke="#000000" stroke-width="5.53" stroke-linejoin="bevel" points="1436.36,1396.99 1436.36,1541.17"/>
<polyline class="Stem" fill="none" stroke="#000000" stroke-width="5.53" stroke-linejoin="bevel" points="2118.56,1434.1 2118.56,1251.86"/>
<polyline class="Stem" fill="none" stroke="#000000" stroke-width="5.53" stroke-linejoin="bevel" points="2279.56,1434.1 2279.56,1245.57"/>
<polyline class="Stem" fill="none" stroke="#000000" stroke-width="5.53" stroke-linejoin="bevel" points="2440.55,1408.95 2440.55,1239.29"/>
<polyline class="Stem" fill="none" stroke="#000000" stroke-width="5.53" stroke-linejoin="bevel" points="2678.65,1358.63 2678.65,1226.71"/>
<polyline class="Stem" fill="none" stroke="#000000" stroke-width="5.53" stroke-linejoin="bevel" points="2916.76,1434.1 2916.76,1277.02"/>
<polyline class="Stem" fill="none" stroke="#000000" stroke-width="5.53" stroke-linejoin="bevel" points="3154.87,1434.1 3154.87,1251.86"/>
<polyline class="Stem" fill="none" stroke="#000000" stroke-width="5.53" stroke-linejoin="bevel" points="3315.86,1434.1 3315.86,1245.57"/>
<polyline class="Stem" fill="none" stroke="#000000" stroke-width="5.53" stroke-linejoin="bevel" points="3476.85,1408.95 3476.85,1239.29"/>
<polyline class="Stem" fill="none" stroke="#000000" stroke-width="5.53" stroke-linejoin="bevel" points="3714.96,1358.63 3714.96,1226.71"/>
<polyline class="Stem" fill="none" stroke="#000000" stroke-width="5.53" stroke-linejoin="bevel" points="3953.07,1434.1 3953.07,1277.02"/>
<polyline class="Stem" fill="none" stroke="#000000" stroke-width="5.53" stroke-linejoin="bevel" points="453.983,2131.36 453.983,2275.55"/>
<polyline class="Stem" fill="none" stroke="#000000" stroke-width="5.53" stroke-linejoin="bevel" points="638.651,2156.52 638.651,2288.13"/>
<polyline class="Stem" fill="none" stroke="#000000" stroke-width="5.53" stroke-linejoin="bevel" points="1118.79,2206.84 1118.79,2338.44"/>
<polyline class="Stem" fill="none" stroke="#000000" stroke-width="5.53" stroke-linejoin="bevel" points="1303.46,2181.68 1303.46,2325.86"/>
<polyline class="Stem" fill="none" stroke="#000000" stroke-width="5.53" stroke-linejoin="bevel" points="1547.98,2269.11 1547.98,2124.6"/>
<polyline class="Stem" fill="none" stroke="#000000" stroke-width="5.53" stroke-linejoin="bevel" points="1732.65,2243.95 1732.65,2112.02"/>
<polyline class="Stem" fill="none" stroke="#000000" stroke-width="5.53" stroke-linejoin="bevel" points="2017.46,2231.99 2017.46,2376.18"/>
<polyline class="Stem" fill="none" stroke="#000000" stroke-width="5.53" stroke-linejoin="bevel" points="2178.45,2206.84 2178.45,2363.6"/>
<polyline class="Stem" fill="none" stroke="#000000" stroke-width="5.53" stroke-linejoin="bevel" points="2631.14,2218.79 2631.14,2074.29"/>
<polyline class="Stem" fill="none" stroke="#000000" stroke-width="5.53" stroke-linejoin="bevel" points="2792.13,2243.95 2792.13,2086.87"/>
<polyline class="Stem" fill="none" stroke="#000000" stroke-width="5.53" stroke-linejoin="bevel" points="3365.53,2231.99 3365.53,2376.18"/>
<polyline class="Stem" fill="none" stroke="#000000" stroke-width="5.53" stroke-linejoin="bevel" points="3526.52,2206.84 3526.52,2363.6"/>
<path class="Note" transform="matrix(2.0126,0,0,2.0126,527.333,605.543)" d="M31.5,-8.09375 C29.7031,-11.4063 25.9063,-13.2031 21.2969,-13.2031 C17.9063,-13.2031 14.2031,-12.2031 10.5938,-10.2969 C4,-6.79688 0,-0.90625 0,4.20313 C0,5.59375 0.296875,7 1,8.29688 C2.79688,11.5938 6.59375,13.2969 11.2031,13.2969 C14.5938,13.2969 18.2969,12.4063 21.9063,10.5 C28.5,7 32.5,1.09375 32.5,-4 C32.5,-5.40625 32.2031,-6.79688 31.5,-8.09375"/>
<path class="Note" transform="matrix(2.0126,0,0,2.0126,688.325,530.071)" d="M31.5,-8.09375 C29.7031,-11.4063 25.9063,-13.2031 21.2969,-13.2031 C17.9063,-13.2031 14.2031,-12.2031 10.5938,-10.2969 C4,-6.79688 0,-0.90625 0,4.20313 C0,5.59375 0.296875,7 1,8.29688 C2.79688,11.5938 6.59375,13.2969 11.2031,13.2969 C14.5938,13.2969 18.2969,12.4063 21.9063,10.5 C28.5,7 32.5,1.09375 32.5,-4 C32.5,-5.40625 32.2031,-6.79688 31.5,-8.09375"/>
<path class="Note" transform="matrix(2.0126,0,0,2.0126,1002.44,555.228)" d="M31.5,-8.09375 C29.7031,-11.4063 25.9063,-13.2031 21.2969,-13.2031 C17.9063,-13.2031 14.2031,-12.2031 10.5938,-10.2969 C4,-6.79688 0,-0.90625 0,4.20313 C0,5.59375 0.296875,7 1,8.29688 C2.79688,11.5938 6.59375,13.2969 11.2031,13.2969 C14.5938,13.2969 18.2969,12.4063 21.9063,10.5 C28.5,7 32.5,1.09375 32.5,-4 C32.5,-5.40625 32.2031,-6.79688 31.5,-8.09375"/>
<path class="Note" transform="matrix(2.0126,0,0,2.0126,1163.43,580.386)" d="M31.5,-8.09375 C29.7031,-11.4063 25.9063,-13.2031 21.2969,-13.2031 C17.9063,-13.2031 14.2031,-12.2031 10.5938,-10.2969 C4,-6.79688 0,-0.90625 0,4.20313 C0,5.59375 0.296875,7 1,8.29688 C2.79688,11.5938 6.59375,13.2969 11.2031,13.2969 C14.5938,13.2969 18.2969,12.4063 21.9063,10.5 C28.5,7 32.5,1.09375 32.5,-4 C32.5,-5.40625 32.2031,-6.79688 31.5,-8.09375"/>
<path class="Note" transform="matrix(2.0126,0,0,2.0126,1717.97,530.071)" d="M31.5,-8.09375 C29.7031,-11.4063 25.9063,-13.2031 21.2969,-13.2031 C17.9063,-13.2031 14.2031,-12.2031 10.5938,-10.2969 C4,-6.79688 0,-0.90625 0,4.20313 C0,5.59375 0.296875,7 1,8.29688 C2.79688,11.5938 6.59375,13.2969 11.2031,13.2969 C14.5938,13.2969 18.2969,12.4063 21.9063,10.5 C28.5,7 32.5,1.09375 32.5,-4 C32.5,-5.40625 32.2031,-6.79688 31.5,-8.09375"/>
<path class="Note" transform="matrix(2.0126,0,0,2.0126,1890.75,504.913)" d="M31.5,-8.09375 C29.7031,-11.4063 25.9063,-13.2031 21.2969,-13.2031 C17.9063,-13.2031 14.2031,-12.2031 10.5938,-10.2969 C4,-6.79688 0,-0.90625 0,4.20313 C0,5.59375 0.296875,7 1,8.29688 C2.79688,11.5938 6.59375,13.2969 11.2031,13.2969 C14.5938,13.2969 18.2969,12.4063 21.9063,10.5 C28.5,7 32.5,1.09375 32.5,-4 C32.5,-5.40625 32.2031,-6.79688 31.5,-8.09375"/>
<path class="Note" transform="matrix(2.0126,0,0,2.0126,2101.43,479.756)" d="M31.5,-8.09375 C29.7031,-11.4063 25.9063,-13.2031 21.2969,-13.2031 C17.9063,-13.2031 14.2031,-12.2031 10.5938,-10.2969 C4,-6.79688 0,-0.90625 0,4.20313 C0,5.59375 0.296875,7 1,8.29688 C2.79688,11.5938 6.59375,13.2969 11.2031,13.2969 C14.5938,13.2969 18.2969,12.4063 21.9063,10.5 C28.5,7 32.5,1.09375 32.5,-4 C32.5,-5.40625 32.2031,-6.79688 31.5,-8.09375"/>
<path class="Note" transform="matrix(2.0126,0,0,2.0126,2262.42,504.913)" d="M31.5,-8.09375 C29.7031,-11.4063 25.9063,-13.2031 21.2969,-13.2031 C17.9063,-13.2031 14.2031,-12.2031 10.5938,-10.2969 C4,-6.79688 0,-0.90625 0,4.20313 C0,5.59375 0.296875,7 1,8.29688 C2.79688,11.5938 6.59375,13.2969 11.2031,13.2969 C14.5938,13.2969 18.2969,12.4063 21.9063,10.5 C28.5,7 32.5,1.09375 32.5,-4 C32.5,-5.40625 32.2031,-6.79688 31.5,-8.09375"/>
<path class="Note" transform="matrix(2.0126,0,0,2.0126,2435.2,530.071)" d="M31.5,-8.09375 C29.7031,-11.4063 25.9063,-13.2031 21.2969,-13.2031 C17.9063,-13.2031 14.2031,-12.2031 10.5938,-10.2969 C4,-6.79688 0,-0.90625 0,4.20313 C0,5.59375 0.296875,7 1,8.29688 C2.79688,11.5938 6.59375,13.2969 11.2031,13.2969 C14.5938,13.2969 18.2969,12.4063 21.9063,10.5 C28.5,7 32.5,1.09375 32.5,-4 C32.5,-5.40625 32.2031,-6.79688 31.5,-8.09375"/>
<path class="Note" transform="matrix(2.0126,0,0,2.0126,2607.98,555.228)" d="M31.5,-8.09375 C29.7031,-11.4063 25.9063,-13.2031 21.2969,-13.2031 C17.9063,-13.2031 14.2031,-12.2031 10.5938,-10.2969 C4,-6.79688 0,-0.90625 0,4.20313 C0,5.59375 0.296875,7 1,8.29688 C2.79688,11.5938 6.59375,13.2969 11.2031,13.2969 C14.5938,13.2969 18.2969,12.4063 21.9063,10.5 C28.5,7 32.5,1.09375 32.5,-4 C32.5,-5.40625 32.2031,-6.79688 31.5,-8.09375"/>
<path class="Note" transform="matrix(2.0126,0,0,2.0126,3178.34,605.543)" d="M31.5,-8.09375 C29.7031,-11.4063 25.9063,-13.2031 21.2969,-13.2031 C17.9063,-13.2031 14.2031,-12.2031 10.5938,-10.2969 C4,-6.79688 0,-0.90625 0,4.20313 C0,5.59375 0.296875,7 1,8.29688 C2.79688,11.5938 6.59375,13.2969 11.2031,13.2969 C14.5938,13.2969 18.2969,12.4063 21.9063,10.5 C28.5,7 32.5,1.09375 32.5,-4 C32.5,-5.40625 32.2031,-6.79688 31.5,-8.09375"/>
<path class="Note" transform="matrix(2.0126,0,0,2.0126,3339.33,530.071)" d="M31.5,-8.09375 C29.7031,-11.4063 25.9063,-13.2031 21.2969,-13.2031 C17.9063,-13.2031 14.2031,-12.2031 10.5938,-10.2969 C4,-6.79688 0,-0.90625 0,4.20313 C0,5.59375 0.296875,7 1,8.29688 C2.79688,11.5938 6.59375,13.2969 11.2031,13.2969 C14.5938,13.2969 18.2969,12.4063 21.9063,10.5 C28.5,7 32.5,1.09375 32.5,-4 C32.5,-5.40625 32.2031,-6.79688 31.5,-8.09375"/>
<path class="Note" transform="matrix(2.0126,0,0,2.0126,3653.44,555.228)" d="M31.5,-8.09375 C29.7031,-11.4063 25.9063,-13.2031 21.2969,-13.2031 C17.9063,-13.2031 14.2031,-12.2031 10.5938,-10.2969 C4,-6.79688 0,-0.90625 0,4.20313 C0,5.59375 0.296875,7 1,8.29688 C2.79688,11.5938 6.59375,13.2969 11.2031,13.2969 C14.5938,13.2969 18.2969,12.4063 21.9063,10.5 C28.5,7 32.5,1.09375 32.5,-4 C32.5,-5.40625 32.2031,-6.79688 31.5,-8.09375"/>
<path class="Note" transform="matrix(2.0126,0,0,2.0126,3814.43,580.386)" d="M31.5,-8.09375 C29.7031,-11.4063 25.9063,-13.2031 21.2969,-13.2031 C17.9063,-13.2031 14.2031,-12.2031 10.5938,-10.2969 C4,-6.79688 0,-0.90625 0,4.20313 C0,5.59375 0.296875,7 1,8.29688 C2.79688,11.5938 6.59375,13.2969 11.2031,13.2969 C14.5938,13.2969 18.2969,12.4063 21.9063,10.5 C28.5,7 32.5,1.09375 32.5,-4 C32.5,-5.40625 32.2031,-6.79688 31.5,-8.09375"/>
<path class="Note" transform="matrix(2.0126,0,0,2.0126,451.216,1365.07)" d="M31.5,-8.09375 C29.7031,-11.4063 25.9063,-13.2031 21.2969,-13.2031 C17.9063,-13.2031 14.2031,-12.2031 10.5938,-10.2969 C4,-6.79688 0,-0.90625 0,4.20313 C0,5.59375 0.296875,7 1,8.29688 C2.79688,11.5938 6.59375,13.2969 11.2031,13.2969 C14.5938,13.2969 18.2969,12.4063 21.9063,10.5 C28.5,7 32.5,1.09375 32.5,-4 C32.5,-5.40625 32.2031,-6.79688 31.5,-8.09375"/>
<path class="Note" transform="matrix(2.0126,0,0,2.0126,645.886,1339.92)" d="M31.5,-8.09375 C29.7031,-11.4063 25.9063,-13.2031 21.2969,-13.2031 C17.9063,-13.2031 14.2031,-12.2031 10.5938,-10.2969 C4,-6.79688 0,-0.90625 0,4.20313 C0,5.59375 0.296875,7 1,8.29688 C2.79688,11.5938 6.59375,13.2969 11.2031,13.2969 C14.5938,13.2969 18.2969,12.4063 21.9063,10.5 C28.5,7 32.5,1.09375 32.5,-4 C32.5,-5.40625 32.2031,-6.79688 31.5,-8.09375"/>
<path class="Note" transform="matrix(2.0126,0,0,2.0126,883.26,1314.76)" d="M31.5,-8.09375 C29.7031,-11.4063 25.9063,-13.2031 21.2969,-13.2031 C17.9063,-13.2031 14.2031,-12.2031 10.5938,-10.2969 C4,-6.79688 0,-0.90625 0,4.20313 C0,5.59375 0.296875,7 1,8.29688 C2.79688,11.5938 6.59375,13.2969 11.2031,13.2969 C14.5938,13.2969 18.2969,12.4063 21.9063,10.5 C28.5,7 32.5,1.09375 32.5,-4 C32.5,-5.40625 32.2031,-6.79688 31.5,-8.09375"/>
<path class="Note" transform="matrix(2.0126,0,0,2.0126,1044.25,1339.92)" d="M31.5,-8.09375 C29.7031,-11.4063 25.9063,-13.2031 21.2969,-13.2031 C17.9063,-13.2031 14.2031,-12.2031 10.5938,-10.2969 C4,-6.79688 0,-0.90625 0,4.20313 C0,5.59375 0.296875,7 1,8.29688 C2.79688,11.5938 6.59375,13.2969 11.2031,13.2969 C14.5938,13.2969 18.2969,12.4063 21.9063,10.5 C28.5,7 32.5,1.09375 32.5,-4 C32.5,-5.40625 32.2031,-6.79688 31.5,-8.09375"/>
<path class="Note" transform="matrix(2.0126,0,0,2.0126,1238.92,1365.07)" d="M31.5,-8.09375 C29.7031,-11.4063 25.9063,-13.2031 21.2969,-13.2031 C17.9063,-13.2031 14.2031,-12.2031 10.5938,-10.2969 C4,-6.79688 0,-0.90625 0,4.20313 C0,5.59375 0.296875,7 1,8.29688 C2.79688,11.5938 6.59375,13.2969 11.2031,13.2969 C14.5938,13.2969 18.2969,12.4063 21.9063,10.5 C28.5,7 32.5,1.09375 32.5,-4 C32.5,-5.40625 32.2031,-6.79688 31.5,-8.09375"/>
<path class="Note" transform="matrix(2.0126,0,0,2.0126,1433.59,1390.23)" d="M31.5,-8.09375 C29.7031,-11.4063 25.9063,-13.2031 21.2969,-13.2031 C17.9063,-13.2031 14.2031,-12.2031 10.5938,-10.2969 C4,-6.79688 0,-0.90625 0,4.20313 C0,5.59375 0.296875,7 1,8.29688 C2.79688,11.5938 6.59375,13.2969 11.2031,13.2969 C14.5938,13.2969 18.2969,12.4063 21.9063,10.5 C28.5,7 32.5,1.09375 32.5,-4 C32.5,-5.40625 32.2031,-6.79688 31.5,-8.09375"/>
<path class="Note" transform="matrix(2.0126,0,0,2.0126,2055.94,1440.55)" d="M31.5,-8.09375 C29.7031,-11.4063 25.9063,-13.2031 21.2969,-13.2031 C17.9063,-13.2031 14.2031,-12.2031 10.5938,-10.2969 C4,-6.79688 0,-0.90625 0,4.20313 C0,5.59375 0.296875,7 1,8.29688 C2.79688,11.5938 6.59375,13.2969 11.2031,13.2969 C14.5938,13.2969 18.2969,12.4063 21.9063,10.5 C28.5,7 32.5,1.09375 32.5,-4 C32.5,-5.40625 32.2031,-6.79688 31.5,-8.09375"/>
<path class="Note" transform="matrix(2.0126,0,0,2.0126,2216.93,1440.55)" d="M31.5,-8.09375 C29.7031,-11.4063 25.9063,-13.2031 21.2969,-13.2031 C17.9063,-13.2031 14.2031,-12.2031 10.5938,-10.2969 C4,-6.79688 0,-0.90625 0,4.20313 C0,5.59375 0.296875,7 1,8.29688 C2.79688,11.5938 6.59375,13.2969 11.2031,13.2969 C14.5938,13.2969 18.2969,12.4063 21.9063,10.5 C28.5,7 32.5,1.09375 32.5,-4 C32.5,-5.40625 32.2031,-6.79688 31.5,-8.09375"/>
<path class="Note" transform="matrix(2.0126,0,0,2.0126,2377.92,1415.39)" d="M31.5,-8.09375 C29.7031,-11.4063 25.9063,-13.2031 21.2969,-13.2031 C17.9063,-13.2031 14.2031,-12.2031 10.5938,-10.2969 C4,-6.79688 0,-0.90625 0,4.20313 C0,5.59375 0.296875,7 1,8.29688 C2.79688,11.5938 6.59375,13.2969 11.2031,13.2969 C14.5938,13.2969 18.2969,12.4063 21.9063,10.5 C28.5,7 32.5,1.09375 32.5,-4 C32.5,-5.40625 32.2031,-6.79688 31.5,-8.09375"/>
<path class="Note" transform="matrix(2.0126,0,0,2.0126,2616.03,1365.07)" d="M31.5,-8.09375 C29.7031,-11.4063 25.9063,-13.2031 21.2969,-13.2031 C17.9063,-13.2031 14.2031,-12.2031 10.5938,-10.2969 C4,-6.79688 0,-0.90625 0,4.20313 C0,5.59375 0.296875,7 1,8.29688 C2.79688,11.5938 6.59375,13.2969 11.2031,13.2969 C14.5938,13.2969 18.2969,12.4063 21.9063,10.5 C28.5,7 32.5,1.09375 32.5,-4 C32.5,-5.40625 32.2031,-6.79688 31.5,-8.09375"/>
<path class="Note" transform="matrix(2.0126,0,0,2.0126,2854.14,1440.55)" d="M31.5,-8.09375 C29.7031,-11.4063 25.9063,-13.2031 21.2969,-13.2031 C17.9063,-13.2031 14.2031,-12.2031 10.5938,-10.2969 C4,-6.79688 0,-0.90625 0,4.20313 C0,5.59375 0.296875,7 1,8.29688 C2.79688,11.5938 6.59375,13.2969 11.2031,13.2969 C14.5938,13.2969 18.2969,12.4063 21.9063,10.5 C28.5,7 32.5,1.09375 32.5,-4 C32.5,-5.40625 32.2031,-6.79688 31.5,-8.09375"/>
<path class="Note" transform="matrix(2.0126,0,0,2.0126,3092.24,1440.55)" d="M31.5,-8.09375 C29.7031,-11.4063 25.9063,-13.2031 21.2969,-13.2031 C17.9063,-13.2031 14.2031,-12.2031 10.5938,-10.2969 C4,-6.79688 0,-0.90625 0,4.20313 C0,5.59375 0.296875,7 1,8.29688 C2.79688,11.5938 6.59375,13.2969 11.2031,13.2969 C14.5938,13.2969 18.2969,12.4063 21.9063,10.5 C28.5,7 32.5,1.09375 32.5,-4 C32.5,-5.40625 32.2031,-6.79688 31.5,-8.09375"/>
<path class="Note" transform="matrix(2.0126,0,0,2.0126,3253.24,1440.55)" d="M31.5,-8.09375 C29.7031,-11.4063 25.9063,-13.2031 21.2969,-13.2031 C17.9063,-13.2031 14.2031,-12.2031 10.5938,-10.2969 C4,-6.79688 0,-0.90625 0,4.20313 C0,5.59375 0.296875,7 1,8.29688 C2.79688,11.5938 6.59375,13.2969 11.2031,13.2969 C14.5938,13.2969 18.2969,12.4063 21.9063,10.5 C28.5,7 32.5,1.09375 32.5,-4 C32.5,-5.40625 32.2031,-6.79688 31.5,-8.09375"/>
<path class="Note" transform="matrix(2.0126,0,0,2.0126,3414.23,1415.39)" d="M31.5,-8.09375 C29.7031,-11.4063 25.9063,-13.2031 21.2969,-13.2031 C17.9063,-13.2031 14.2031,-12.2031 10.5938,-10.2969 C4,-6.79688 0,-0.90625 0,4.20313 C0,5.59375 0.296875,7 1,8.29688 C2.79688,11.5938 6.59375,13.2969 11.2031,13.2969 C14.5938,13.2969 18.2969,12.4063 21.9063,10.5 C28.5,7 32.5,1.09375 32.5,-4 C32.5,-5.40625 32.2031,-6.79688 31.5,-8.09375"/>
<path class="Note" transform="matrix(2.0126,0,0,2.0126,3652.33,1365.07)" d="M31.5,-8.09375 C29.7031,-11.4063 25.9063,-13.2031 21.2969,-13.2031 C17.9063,-13.2031 14.2031,-12.2031 10.5938,-10.2969 C4,-6.79688 0,-0.90625 0,4.20313 C0,5.59375 0.296875,7 1,8.29688 C2.79688,11.5938 6.59375,13.2969 11.2031,13.2969 C14.5938,13.2969 18.2969,12.4063 21.9063,10.5 C28.5,7 32.5,1.09375 32.5,-4 C32.5,-5.40625 32.2031,-6.79688 31.5,-8.09375"/>
<path class="Note" transform="matrix(2.0126,0,0,2.0126,3890.44,1440.55)" d="M31.5,-8.09375 C29.7031,-11.4063 25.9063,-13.2031 21.2969,-13.2031 C17.9063,-13.2031 14.2031,-12.2031 10.5938,-10.2969 C4,-6.79688 0,-0.90625 0,4.20313 C0,5.59375 0.296875,7 1,8.29688 C2.79688,11.5938 6.59375,13.2969 11.2031,13.2969 C14.5938,13.2969 18.2969,12.4063 21.9063,10.5 C28.5,7 32.5,1.09375 32.5,-4 C32.5,-5.40625 32.2031,-6.79688 31.5,-8.09375"/>
<path class="Note" transform="matrix(2.0126,0,0,2.0126,451.216,2124.6)" d="M31.5,-8.09375 C29.7031,-11.4063 25.9063,-13.2031 21.2969,-13.2031 C17.9063,-13.2031 14.2031,-12.2031 10.5938,-10.2969 C4,-6.79688 0,-0.90625 0,4.20313 C0,5.59375 0.296875,7 1,8.29688 C2.79688,11.5938 6.59375,13.2969 11.2031,13.2969 C14.5938,13.2969 18.2969,12.4063 21.9063,10.5 C28.5,7 32.5,1.09375 32.5,-4 C32.5,-5.40625 32.2031,-6.79688 31.5,-8.09375"/>
<path class="Note" transform="matrix(2.0126,0,0,2.0126,635.884,2149.76)" d="M31.5,-8.09375 C29.7031,-11.4063 25.9063,-13.2031 21.2969,-13.2031 C17.9063,-13.2031 14.2031,-12.2031 10.5938,-10.2969 C4,-6.79688 0,-0.90625 0,4.20313 C0,5.59375 0.296875,7 1,8.29688 C2.79688,11.5938 6.59375,13.2969 11.2031,13.2969 C14.5938,13.2969 18.2969,12.4063 21.9063,10.5 C28.5,7 32.5,1.09375 32.5,-4 C32.5,-5.40625 32.2031,-6.79688 31.5,-8.09375"/>
<path class="Note" transform="matrix(2.0126,0,0,2.0126,1116.02,2200.07)" d="M31.5,-8.09375 C29.7031,-11.4063 25.9063,-13.2031 21.2969,-13.2031 C17.9063,-13.2031 14.2031,-12.2031 10.5938,-10.2969 C4,-6.79688 0,-0.90625 0,4.20313 C0,5.59375 0.296875,7 1,8.29688 C2.79688,11.5938 6.59375,13.2969 11.2031,13.2969 C14.5938,13.2969 18.2969,12.4063 21.9063,10.5 C28.5,7 32.5,1.09375 32.5,-4 C32.5,-5.40625 32.2031,-6.79688 31.5,-8.09375"/>
<path class="Note" transform="matrix(2.0126,0,0,2.0126,1300.69,2174.92)" d="M31.5,-8.09375 C29.7031,-11.4063 25.9063,-13.2031 21.2969,-13.2031 C17.9063,-13.2031 14.2031,-12.2031 10.5938,-10.2969 C4,-6.79688 0,-0.90625 0,4.20313 C0,5.59375 0.296875,7 1,8.29688 C2.79688,11.5938 6.59375,13.2969 11.2031,13.2969 C14.5938,13.2969 18.2969,12.4063 21.9063,10.5 C28.5,7 32.5,1.09375 32.5,-4 C32.5,-5.40625 32.2031,-6.79688 31.5,-8.09375"/>
<path class="Note" transform="matrix(2.0126,0,0,2.0126,1485.36,2275.55)" d="M31.5,-8.09375 C29.7031,-11.4063 25.9063,-13.2031 21.2969,-13.2031 C17.9063,-13.2031 14.2031,-12.2031 10.5938,-10.2969 C4,-6.79688 0,-0.90625 0,4.20313 C0,5.59375 0.296875,7 1,8.29688 C2.79688,11.5938 6.59375,13.2969 11.2031,13.2969 C14.5938,13.2969 18.2969,12.4063 21.9063,10.5 C28.5,7 32.5,1.09375 32.5,-4 C32.5,-5.40625 32.2031,-6.79688 31.5,-8.09375"/>
<path class="Note" transform="matrix(2.0126,0,0,2.0126,1670.02,2250.39)" d="M31.5,-8.09375 C29.7031,-11.4063 25.9063,-13.2031 21.2969,-13.2031 C17.9063,-13.2031 14.2031,-12.2031 10.5938,-10.2969 C4,-6.79688 0,-0.90625 0,4.20313 C0,5.59375 0.296875,7 1,8.29688 C2.79688,11.5938 6.59375,13.2969 11.2031,13.2969 C14.5938,13.2969 18.2969,12.4063 21.9063,10.5 C28.5,7 32.5,1.09375 32.5,-4 C32.5,-5.40625 32.2031,-6.79688 31.5,-8.09375"/>
<path class="Note" transform="matrix(2.0126,0,0,2.0126,2014.69,2225.23)" d="M31.5,-8.09375 C29.7031,-11.4063 25.9063,-13.2031 21.2969,-13.2031 C17.9063,-13.2031 14.2031,-12.2031 10.5938,-10.2969 C4,-6.79688 0,-0.90625 0,4.20313 C0,5.59375 0.296875,7 1,8.29688 C2.79688,11.5938 6.59375,13.2969 11.2031,13.2969 C14.5938,13.2969 18.2969,12.4063 21.9063,10.5 C28.5,7 32.5,1.09375 32.5,-4 C32.5,-5.40625 32.2031,-6.79688 31.5,-8.09375"/>
<path class="Note" transform="matrix(2.0126,0,0,2.0126,2175.69,2200.07)" d="M31.5,-8.09375 C29.7031,-11.4063 25.9063,-13.2031 21.2969,-13.2031 C17.9063,-13.2031 14.2031,-12.2031 10.5938,-10.2969 C4,-6.79688 0,-0.90625 0,4.20313 C0,5.59375 0.296875,7 1,8.29688 C2.79688,11.5938 6.59375,13.2969 11.2031,13.2969 C14.5938,13.2969 18.2969,12.4063 21.9063,10.5 C28.5,7 32.5,1.09375 32.5,-4 C32.5,-5.40625 32.2031,-6.79688 31.5,-8.09375"/>
<path class="Note" transform="matrix(2.0126,0,0,2.0126,2568.52,2225.23)" d="M31.5,-8.09375 C29.7031,-11.4063 25.9063,-13.2031 21.2969,-13.2031 C17.9063,-13.2031 14.2031,-12.2031 10.5938,-10.2969 C4,-6.79688 0,-0.90625 0,4.20313 C0,5.59375 0.296875,7 1,8.29688 C2.79688,11.5938 6.59375,13.2969 11.2031,13.2969 C14.5938,13.2969 18.2969,12.4063 21.9063,10.5 C28.5,7 32.5,1.09375 32.5,-4 C32.5,-5.40625 32.2031,-6.79688 31.5,-8.09375"/>
<path class="Note" transform="matrix(2.0126,0,0,2.0126,2729.51,2250.39)" d="M31.5,-8.09375 C29.7031,-11.4063 25.9063,-13.2031 21.2969,-13.2031 C17.9063,-13.2031 14.2031,-12.2031 10.5938,-10.2969 C4,-6.79688 0,-0.90625 0,4.20313 C0,5.59375 0.296875,7 1,8.29688 C2.79688,11.5938 6.59375,13.2969 11.2031,13.2969 C14.5938,13.2969 18.2969,12.4063 21.9063,10.5 C28.5,7 32.5,1.09375 32.5,-4 C32.5,-5.40625 32.2031,-6.79688 31.5,-8.09375"/>
<path class="Note" transform="matrix(2.0126,0,0,2.0126,3362.76,2225.23)" d="M31.5,-8.09375 C29.7031,-11.4063 25.9063,-13.2031 21.2969,-13.2031 C17.9063,-13.2031 14.2031,-12.2031 10.5938,-10.2969 C4,-6.79688 0,-0.90625 0,4.20313 C0,5.59375 0.296875,7 1,8.29688 C2.79688,11.5938 6.59375,13.2969 11.2031,13.2969 C14.5938,13.2969 18.2969,12.4063 21.9063,10.5 C28.5,7 32.5,1.09375 32.5,-4 C32.5,-5.40625 32.2031,-6.79688 31.5,-8.09375"/>
<path class="Note" transform="matrix(2.0126,0,0,2.0126,3523.75,2200.07)" d="M31.5,-8.09375 C29.7031,-11.4063 25.9063,-13.2031 21.2969,-13.2031 C17.9063,-13.2031 14.2031,-12.2031 10.5938,-10.2969 C4,-6.79688 0,-0.90625 0,4.20313 C0,5.59375 0.296875,7 1,8.29688 C2.79688,11.5938 6.59375,13.2969 11.2031,13.2969 C14.5938,13.2969 18.2969,12.4063 21.9063,10.5 C28.5,7 32.5,1.09375 32.5,-4 C32.5,-5.40625 32.2031,-6.79688 31.5,-8.09375"/>
<path class="Clef" transform="matrix(2.0126,0,0,2.0126,111.118,605.543)" d="M63.3594,-5.92188 C62.125,-11.3438 59.4844,-15.1719 58.7031,-16.2031 C55.5156,-20.4844 51.5,-23.3281 46.8125,-24.6875 C43.7031,-25.5625 40.7031,-25.6875 38.2813,-25.5 C37.2344,-31.5156 36.2344,-37.3906 35.3281,-42.8438 C40.7813,-49.0156 44.4063,-54.8125 46.6875,-59.1094 C50.1563,-65.6875 51.2969,-70.2656 51.3594,-70.4688 C53.0781,-75.6875 53.4375,-83.3906 52.3281,-91.5938 C51.3281,-99.1406 49.2344,-105.859 46.875,-109.109 C45.8594,-110.531 44.7969,-111.266 43.7656,-111.266 C42.5469,-111.266 40.0313,-110.031 37.1406,-107.25 C34.8438,-105.063 31.5781,-101.172 29.0156,-95.1563 C26.0156,-88.0938 25.7969,-78.6094 26.1563,-71.8906 C26.5313,-64.6094 27.6406,-58.9219 27.6563,-58.875 C27.6719,-58.7813 27.9375,-57.2813 28.375,-54.7188 C28.1563,-54.4844 27.9063,-54.2656 27.6563,-54.0156 C26.625,-53.0156 25.4375,-51.8906 24.0469,-50.5 C23.1875,-49.6406 22.2344,-48.7344 21.2344,-47.7656 C12.7969,-39.625 0,-27.2969 0,-8.14063 C0,-3.4375 0.90625,0.984375 2.6875,5 C4.26563,8.59375 6.5625,11.875 9.5,14.75 C17.2344,22.3125 27.8281,25.5156 34.875,25.3594 C37.8281,25.2813 40.4688,25.0469 42.8594,24.5938 C44.6875,34.2031 45.8281,41.2344 45.8594,46.5781 C45.9063,53.0938 44.25,57.0781 40.3594,59.8438 C37.9219,61.5781 35.1094,62.5313 32.0156,62.6719 C29.4219,62.7969 27.1563,62.3281 25.7344,61.9219 L25.7188,61.9219 C25.7188,61.9219 25.4375,61.8281 25.4219,61.6406 C25.4063,61.4531 25.7656,61.4063 25.7656,61.4063 L25.7969,61.4063 C27.7188,60.9688 31.2813,59.7344 33.6406,56.4375 C35.4375,53.9063 36.3125,49.2813 34.4688,45.3438 C33.3594,42.9531 30.8594,40 25.2344,39.5469 C22.7344,39.3438 20.4688,39.8594 18.4688,41.0625 C16.6563,42.1406 15.1563,43.7813 14.1094,45.7813 C11.6563,50.4844 12.1094,56.2188 15.2344,60.0625 C18.2031,63.6875 22.8125,66 28.25,66.5781 C29.1094,66.6719 29.9531,66.7031 30.7969,66.7031 C35.2344,66.7031 39.625,65.5 43.2031,63.2969 C46.8594,60.7188 48.9844,56.7344 49.6563,51.1094 C50.2188,46.4688 49.8281,40.5469 48.4375,32.4688 C48.0781,30.375 47.5313,27.3438 46.875,23.5938 C52.625,21.6719 56.7813,18.0938 60.5469,12.2344 C63.8438,6.5 64.7813,0.390625 63.3594,-5.92188 M29.1406,20.2969 C24.5,19.0781 20.0625,16.5781 16.3125,13.0625 C15,11.8438 13.125,9.67188 11.6563,6.28125 C10.2969,3.10938 9.625,-0.328125 9.6875,-3.90625 C9.75,-8.60938 11.0625,-13.4375 13.5625,-18.2188 C16.4844,-23.7969 21.0469,-29.3281 27.1094,-34.6563 C28.5625,-35.9375 29.9375,-37.2188 31.2188,-38.5 C31.9844,-34.2344 32.8125,-29.5469 33.6875,-24.6719 C29.8438,-23.4063 25.0938,-20.25 21.9844,-14.5938 C18.4375,-8.03125 18.5781,-2.5 19.3125,0.984375 C20.25,5.4375 22.7813,9.20313 26.2344,11.2969 C27.1719,11.8594 31.2969,13.9844 33.1406,13.4063 C33.5156,13.2969 33.7813,13.0625 33.9219,12.7344 C34.4375,11.5625 33.4063,10.9219 31.8594,9.96875 C31.25,9.59375 30.5781,9.17188 29.8594,8.64063 C26.5313,6.15625 25.0781,1.70313 26.1563,-2.6875 C26.7344,-5.07813 28.0156,-7.25 29.8594,-8.95313 C31.5156,-10.5 33.5625,-11.5938 35.9375,-12.2344 C37.9844,-0.984375 40.0469,10.1719 41.6875,18.5313 C41.8125,19.2188 41.9531,19.8906 42.0781,20.5625 C37.7031,21.5 33.3594,21.4063 29.1406,20.2969 M40.4688,-12.9063 C50.8125,-13.375 55.0781,-5.9375 55.9688,-1.10938 C56.4375,1.4375 56.4375,5.875 54.8906,10.0938 C53.7188,13.2656 51.2656,17.3438 46.125,19.4063 C46.0625,18.9844 45.9844,18.5469 45.9063,18.125 C44.3594,9.34375 42.4219,-1.65625 40.4688,-12.9063 M33.1406,-83.8594 C34.9219,-89.5938 37.6563,-92.8438 39.6563,-94.5781 C41.4063,-96.0938 43.0469,-96.8125 43.9688,-96.8125 C44.1094,-96.8125 44.2344,-96.7813 44.3281,-96.75 C44.7969,-96.6094 45.3281,-96.0469 45.7969,-95.1719 C48.1094,-90.8906 47.3594,-84.1719 46.0156,-79.7344 C44.3906,-74.3281 41.4688,-68.7188 32.6719,-59.1094 C32.5,-60.2188 32.3438,-61.2656 32.1875,-62.25 C30.9375,-70.5313 31.2656,-77.8125 33.1406,-83.8594"/>
<path class="Clef" transform="matrix(2.0126,0,0,2.0126,111.118,1440.55)" d="M63.3594,-5.92188 C62.125,-11.3438 59.4844,-15.1719 58.7031,-16.2031 C55.5156,-20.4844 51.5,-23.3281 46.8125,-24.6875 C43.7031,-25.5625 40.7031,-25.6875 38.2813,-25.5 C37.2344,-31.5156 36.2344,-37.3906 35.3281,-42.8438 C40.7813,-49.0156 44.4063,-54.8125 46.6875,-59.1094 C50.1563,-65.6875 51.2969,-70.2656 51.3594,-70.4688 C53.0781,-75.6875 53.4375,-83.3906 52.3281,-91.5938 C51.3281,-99.1406 49.2344,-105.859 46.875,-109.109 C45.8594,-110.531 44.7969,-111.266 43.7656,-111.266 C42.5469,-111.266 40.0313,-110.031 37.1406,-107.25 C34.8438,-105.063 31.5781,-101.172 29.0156,-95.1563 C26.0156,-88.0938 25.7969,-78.6094 26.1563,-71.8906 C26.5313,-64.6094 27.6406,-58.9219 27.6563,-58.875 C27.6719,-58.7813 27.9375,-57.2813 28.375,-54.7188 C28.1563,-54.4844 27.9063,-54.2656 27.6563,-54.0156 C26.625,-53.0156 25.4375,-51.8906 24.0469,-50.5 C23.1875,-49.6406 22.2344,-48.7344 21.2344,-47.7656 C12.7969,-39.625 0,-27.2969 0,-8.14063 C0,-3.4375 0.90625,0.984375 2.6875,5 C4.26563,8.59375 6.5625,11.875 9.5,14.75 C17.2344,22.3125 27.8281,25.5156 34.875,25.3594 C37.8281,25.2813 40.4688,25.0469 42.8594,24.5938 C44.6875,34.2031 45.8281,41.2344 45.8594,46.5781 C45.9063,53.0938 44.25,57.0781 40.3594,59.8438 C37.9219,61.5781 35.1094,62.5313 32.0156,62.6719 C29.4219,62.7969 27.1563,62.3281 25.7344,61.9219 L25.7188,61.9219 C25.7188,61.9219 25.4375,61.8281 25.4219,61.6406 C25.4063,61.4531 25.7656,61.4063 25.7656,61.4063 L25.7969,61.4063 C27.7188,60.9688 31.2813,59.7344 33.6406,56.4375 C35.4375,53.9063 36.3125,49.2813 34.4688,45.3438 C33.3594,42.9531 30.8594,40 25.2344,39.5469 C22.7344,39.3438 20.4688,39.8594 18.4688,41.0625 C16.6563,42.1406 15.1563,43.7813 14.1094,45.7813 C11.6563,50.4844 12.1094,56.2188 15.2344,60.0625 C18.2031,63.6875 22.8125,66 28.25,66.5781 C29.1094,66.6719 29.9531,66.7031 30.7969,66.7031 C35.2344,66.7031 39.625,65.5 43.2031,63.2969 C46.8594,60.7188 48.9844,56.7344 49.6563,51.1094 C50.2188,46.4688 49.8281,40.5469 48.4375,32.4688 C48.0781,30.375 47.5313,27.3438 46.875,23.5938 C52.625,21.6719 56.7813,18.0938 60.5469,12.2344 C63.8438,6.5 64.7813,0.390625 63.3594,-5.92188 M29.1406,20.2969 C24.5,19.0781 20.0625,16.5781 16.3125,13.0625 C15,11.8438 13.125,9.67188 11.6563,6.28125 C10.2969,3.10938 9.625,-0.328125 9.6875,-3.90625 C9.75,-8.60938 11.0625,-13.4375 13.5625,-18.2188 C16.4844,-23.7969 21.0469,-29.3281 27.1094,-34.6563 C28.5625,-35.9375 29.9375,-37.2188 31.2188,-38.5 C31.9844,-34.2344 32.8125,-29.5469 33.6875,-24.6719 C29.8438,-23.4063 25.0938,-20.25 21.9844,-14.5938 C18.4375,-8.03125 18.5781,-2.5 19.3125,0.984375 C20.25,5.4375 22.7813,9.20313 26.2344,11.2969 C27.1719,11.8594 31.2969,13.9844 33.1406,13.4063 C33.5156,13.2969 33.7813,13.0625 33.9219,12.7344 C34.4375,11.5625 33.4063,10.9219 31.8594,9.96875 C31.25,9.59375 30.5781,9.17188 29.8594,8.64063 C26.5313,6.15625 25.0781,1.70313 26.1563,-2.6875 C26.7344,-5.07813 28.0156,-7.25 29.8594,-8.95313 C31.5156,-10.5 33.5625,-11.5938 35.9375,-12.2344 C37.9844,-0.984375 40.0469,10.1719 41.6875,18.5313 C41.8125,19.2188 41.9531,19.8906 42.0781,20.5625 C37.7031,21.5 33.3594,21.4063 29.1406,20.2969 M40.4688,-12.9063 C50.8125,-13.375 55.0781,-5.9375 55.9688,-1.10938 C56.4375,1.4375 56.4375,5.875 54.8906,10.0938 C53.7188,13.2656 51.2656,17.3438 46.125,19.4063 C46.0625,18.9844 45.9844,18.5469 45.9063,18.125 C44.3594,9.34375 42.4219,-1.65625 40.4688,-12.9063 M33.1406,-83.8594 C34.9219,-89.5938 37.6563,-92.8438 39.6563,-94.5781 C41.4063,-96.0938 43.0469,-96.8125 43.9688,-96.8125 C44.1094,-96.8125 44.2344,-96.7813 44.3281,-96.75 C44.7969,-96.6094 45.3281,-96.0469 45.7969,-95.1719 C48.1094,-90.8906 47.3594,-84.1719 46.0156,-79.7344 C44.3906,-74.3281 41.4688,-68.7188 32.6719,-59.1094 C32.5,-60.2188 32.3438,-61.2656 32.1875,-62.25 C30.9375,-70.5313 31.2656,-77.8125 33.1406,-83.8594"/>
<path class="Clef" transform="matrix(2.0126,0,0,2.0126,111.118,2275.55)" d="M63.3594,-5.92188 C62.125,-11.3438 59.4844,-15.1719 58.7031,-16.2031 C55.5156,-20.4844 51.5,-23.3281 46.8125,-24.6875 C43.7031,-25.5625 40.7031,-25.6875 38.2813,-25.5 C37.2344,-31.5156 36.2344,-37.3906 35.3281,-42.8438 C40.7813,-49.0156 44.4063,-54.8125 46.6875,-59.1094 C50.1563,-65.6875 51.2969,-70.2656 51.3594,-70.4688 C53.0781,-75.6875 53.4375,-83.3906 52.3281,-91.5938 C51.3281,-99.1406 49.2344,-105.859 46.875,-109.109 C45.8594,-110.531 44.7969,-111.266 43.7656,-111.266 C42.5469,-111.266 40.0313,-110.031 37.1406,-107.25 C34.8438,-105.063 31.5781,-101.172 29.0156,-95.1563 C26.0156,-88.0938 25.7969,-78.6094 26.1563,-71.8906 C26.5313,-64.6094 27.6406,-58.9219 27.6563,-58.875 C27.6719,-58.7813 27.9375,-57.2813 28.375,-54.7188 C28.1563,-54.4844 27.9063,-54.2656 27.6563,-54.0156 C26.625,-53.0156 25.4375,-51.8906 24.0469,-50.5 C23.1875,-49.6406 22.2344,-48.7344 21.2344,-47.7656 C12.7969,-39.625 0,-27.2969 0,-8.14063 C0,-3.4375 0.90625,0.984375 2.6875,5 C4.26563,8.59375 6.5625,11.875 9.5,14.75 C17.2344,22.3125 27.8281,25.5156 34.875,25.3594 C37.8281,25.2813 40.4688,25.0469 42.8594,24.5938 C44.6875,34.2031 45.8281,41.2344 45.8594,46.5781 C45.9063,53.0938 44.25,57.0781 40.3594,59.8438 C37.9219,61.5781 35.1094,62.5313 32.0156,62.6719 C29.4219,62.7969 27.1563,62.3281 25.7344,61.9219 L25.7188,61.9219 C25.7188,61.9219 25.4375,61.8281 25.4219,61.6406 C25.4063,61.4531 25.7656,61.4063 25.7656,61.4063 L25.7969,61.4063 C27.7188,60.9688 31.2813,59.7344 33.6406,56.4375 C35.4375,53.9063 36.3125,49.2813 34.4688,45.3438 C33.3594,42.9531 30.8594,40 25.2344,39.5469 C22.7344,39.3438 20.4688,39.8594 18.4688,41.0625 C16.6563,42.1406 15.1563,43.7813 14.1094,45.7813 C11.6563,50.4844 12.1094,56.2188 15.2344,60.0625 C18.2031,63.6875 22.8125,66 28.25,66.5781 C29.1094,66.6719 29.9531,66.7031 30.7969,66.7031 C35.2344,66.7031 39.625,65.5 43.2031,63.2969 C46.8594,60.7188 48.9844,56.7344 49.6563,51.1094 C50.2188,46.4688 49.8281,40.5469 48.4375,32.4688 C48.0781,30.375 47.5313,27.3438 46.875,23.5938 C52.625,21.6719 56.7813,18.0938 60.5469,12.2344 C63.8438,6.5 64.7813,0.390625 63.3594,-5.92188 M29.1406,20.2969 C24.5,19.0781 20.0625,16.5781 16.3125,13.0625 C15,11.8438 13.125,9.67188 11.6563,6.28125 C10.2969,3.10938 9.625,-0.328125 9.6875,-3.90625 C9.75,-8.60938 11.0625,-13.4375 13.5625,-18.2188 C16.4844,-23.7969 21.0469,-29.3281 27.1094,-34.6563 C28.5625,-35.9375 29.9375,-37.2188 31.2188,-38.5 C31.9844,-34.2344 32.8125,-29.5469 33.6875,-24.6719 C29.8438,-23.4063 25.0938,-20.25 21.9844,-14.5938 C18.4375,-8.03125 18.5781,-2.5 19.3125,0.984375 C20.25,5.4375 22.7813,9.20313 26.2344,11.2969 C27.1719,11.8594 31.2969,13.9844 33.1406,13.4063 C33.5156,13.2969 33.7813,13.0625 33.9219,12.7344 C34.4375,11.5625 33.4063,10.9219 31.8594,9.96875 C31.25,9.59375 30.5781,9.17188 29.8594,8.64063 C26.5313,6.15625 25.0781,1.70313 26.1563,-2.6875 C26.7344,-5.07813 28.0156,-7.25 29.8594,-8.95313 C31.5156,-10.5 33.5625,-11.5938 35.9375,-12.2344 C37.9844,-0.984375 40.0469,10.1719 41.6875,18.5313 C41.8125,19.2188 41.9531,19.8906 42.0781,20.5625 C37.7031,21.5 33.3594,21.4063 29.1406,20.2969 M40.4688,-12.9063 C50.8125,-13.375 55.0781,-5.9375 55.9688,-1.10938 C56.4375,1.4375 56.4375,5.875 54.8906,10.0938 C53.7188,13.2656 51.2656,17.3438 46.125,19.4063 C46.0625,18.9844 45.9844,18.5469 45.9063,18.125 C44.3594,9.34375 42.4219,-1.65625 40.4688,-12.9063 M33.1406,-83.8594 C34.9219,-89.5938 37.6563,-92.8438 39.6563,-94.5781 C41.4063,-96.0938 43.0469,-96.8125 43.9688,-96.8125 C44.1094,-96.8125 44.2344,-96.7813 44.3281,-96.75 C44.7969,-96.6094 45.3281,-96.0469 45.7969,-95.1719 C48.1094,-90.8906 47.3594,-84.1719 46.0156,-79.7344 C44.3906,-74.3281 41.4688,-68.7188 32.6719,-59.1094 C32.5,-60.2188 32.3438,-61.2656 32.1875,-62.25 C30.9375,-70.5313 31.2656,-77.8125 33.1406,-83.8594"/>
<path class="TimeSig" transform="matrix(2.0126,0,0,2.0126,287.44,505.181)" d="M3.59375,12.625 L20.7656,12.625 L20.7656,20.0781 L12.5469,20.0781 C11.7656,20.0781 11.125,20.7031 11.125,21.4844 L11.125,23.3906 C11.125,24.1719 11.7656,24.7969 12.5469,24.7969 L42.7969,24.7969 C43.5781,24.7969 44.2031,24.1719 44.2031,23.3906 L44.2031,21.4844 C44.2031,20.7031 43.5781,20.0781 42.7969,20.0781 L33.8594,20.0781 L33.8594,12.625 L42.7969,12.625 C43.5781,12.625 44.2031,12 44.2031,11.2188 L44.2031,9.3125 C44.2031,8.53125 43.5781,7.90625 42.7969,7.90625 L33.8594,7.90625 L33.8594,-8.0625 C33.8594,-8.59375 33.5469,-9.07813 33.0781,-9.3125 L31.8594,-9.92188 C31.3281,-10.1719 30.7031,-10.0781 30.2656,-9.6875 L21.2188,-1.375 C20.9375,-1.09375 20.7656,-0.734375 20.7656,-0.328125 L20.7656,7.90625 L9.25,7.90625 C9.25,7.90625 20.375,-4.125 32.2188,-19.8906 C33.0781,-21.0469 32.5781,-22.0938 32.3906,-22.2813 L30.2188,-24.4844 C29.9531,-24.75 29.5938,-24.9063 29.2188,-24.9063 C28.625,-24.9063 15.0625,-24.875 14.3438,-24.9063 C13.625,-24.9219 13.0938,-24.2969 13.0156,-23.6875 C13.0156,-23.6875 12.4844,-16.3281 9.875,-8.1875 C7.28125,-0.078125 4.34375,4.90625 1.6875,8.53125 C1.6875,8.53125 1.14063,9.51563 1.5,10.2656 C1.84375,11.0156 2.48438,12.0938 2.48438,12.0938 C2.48438,12.0938 2.73438,12.625 3.59375,12.625"/>
<path class="TimeSig" transform="matrix(2.0126,0,0,2.0126,287.44,605.276)" d="M3.59375,12.625 L20.7656,12.625 L20.7656,20.0781 L12.5469,20.0781 C11.7656,20.0781 11.125,20.7031 11.125,21.4844 L11.125,23.3906 C11.125,24.1719 11.7656,24.7969 12.5469,24.7969 L42.7969,24.7969 C43.5781,24.7969 44.2031,24.1719 44.2031,23.3906 L44.2031,21.4844 C44.2031,20.7031 43.5781,20.0781 42.7969,20.0781 L33.8594,20.0781 L33.8594,12.625 L42.7969,12.625 C43.5781,12.625 44.2031,12 44.2031,11.2188 L44.2031,9.3125 C44.2031,8.53125 43.5781,7.90625 42.7969,7.90625 L33.8594,7.90625 L33.8594,-8.0625 C33.8594,-8.59375 33.5469,-9.07813 33.0781,-9.3125 L31.8594,-9.92188 C31.3281,-10.1719 30.7031,-10.0781 30.2656,-9.6875 L21.2188,-1.375 C20.9375,-1.09375 20.7656,-0.734375 20.7656,-0.328125 L20.7656,7.90625 L9.25,7.90625 C9.25,7.90625 20.375,-4.125 32.2188,-19.8906 C33.0781,-21.0469 32.5781,-22.0938 32.3906,-22.2813 L30.2188,-24.4844 C29.9531,-24.75 29.5938,-24.9063 29.2188,-24.9063 C28.625,-24.9063 15.0625,-24.875 14.3438,-24.9063 C13.625,-24.9219 13.0938,-24.2969 13.0156,-23.6875 C13.0156,-23.6875 12.4844,-16.3281 9.875,-8.1875 C7.28125,-0.078125 4.34375,4.90625 1.6875,8.53125 C1.6875,8.53125 1.14063,9.51563 1.5,10.2656 C1.84375,11.0156 2.48438,12.0938 2.48438,12.0938 C2.48438,12.0938 2.73438,12.625 3.59375,12.625"/>
<path class="Rest" transform="matrix(2.0126,0,0,2.0126,809.138,555.228)" d="M23.2031,16.9063 L23,16.5938 C22.9063,16.5 22.7031,16.2969 22.4063,15.9063 L10.9063,1.70313 C10.5938,1.40625 10.7031,0.59375 10.9063,0.203125 L21.0938,-15.2031 C21.2031,-15.4063 21.2969,-15.7031 21.2969,-15.9063 L21.2969,-16.7969 C21.2969,-17.0938 21.2031,-17.4063 21,-17.5938 L4.79688,-39.5 C4.79688,-39.5 4,-40.7031 3,-39.7969 C2,-39 2.79688,-37.7031 2.79688,-37.7031 L10.4063,-27.2969 C10.7969,-26.7031 10.7969,-25.5 10.4063,-24.9063 L0.296875,-9.5 C0.203125,-9.29688 0.09375,-8.90625 0.09375,-8.70313 L0.09375,-7.79688 C0.09375,-7.5 0.203125,-7.20313 0.40625,-7 L11.5938,6.90625 C11.2031,6.79688 10.2969,6.59375 9.09375,6.59375 C7.40625,6.59375 5.20313,7 3.40625,8.59375 C1.20313,10.5938 0,13.4063 0,15.9063 C0,17.2969 0.296875,18.7031 1.09375,19.7969 C3.20313,23 10.7031,32.5 10.7031,32.5 C10.7031,32.5 11.5938,33.6094 12.5,32.9063 C13.4063,32.2031 13.2031,31.2969 12.9063,30.7969 C12.5938,30.2969 9.40625,24.5 9.40625,24.5 C9.40625,24.5 8.70313,23.0938 8.70313,21.2969 C8.70313,20 9.09375,18.4063 10.4063,17.0938 C11.5938,15.9063 13,15.5 14.2969,15.5 C15.5938,15.5 16.7031,15.9063 17.5,16.4063 L21.4063,18.9063 C21.4063,18.9063 22.5938,19.5 23.2031,18.5938 C23.7031,17.7969 23.5,17.4063 23.2031,16.9063"/>
<path class="Rest" transform="matrix(2.0126,0,0,2.0126,1284.24,555.228)" d="M23.2031,16.9063 L23,16.5938 C22.9063,16.5 22.7031,16.2969 22.4063,15.9063 L10.9063,1.70313 C10.5938,1.40625 10.7031,0.59375 10.9063,0.203125 L21.0938,-15.2031 C21.2031,-15.4063 21.2969,-15.7031 21.2969,-15.9063 L21.2969,-16.7969 C21.2969,-17.0938 21.2031,-17.4063 21,-17.5938 L4.79688,-39.5 C4.79688,-39.5 4,-40.7031 3,-39.7969 C2,-39 2.79688,-37.7031 2.79688,-37.7031 L10.4063,-27.2969 C10.7969,-26.7031 10.7969,-25.5 10.4063,-24.9063 L0.296875,-9.5 C0.203125,-9.29688 0.09375,-8.90625 0.09375,-8.70313 L0.09375,-7.79688 C0.09375,-7.5 0.203125,-7.20313 0.40625,-7 L11.5938,6.90625 C11.2031,6.79688 10.2969,6.59375 9.09375,6.59375 C7.40625,6.59375 5.20313,7 3.40625,8.59375 C1.20313,10.5938 0,13.4063 0,15.9063 C0,17.2969 0.296875,18.7031 1.09375,19.7969 C3.20313,23 10.7031,32.5 10.7031,32.5 C10.7031,32.5 11.5938,33.6094 12.5,32.9063 C13.4063,32.2031 13.2031,31.2969 12.9063,30.7969 C12.5938,30.2969 9.40625,24.5 9.40625,24.5 C9.40625,24.5 8.70313,23.0938 8.70313,21.2969 C8.70313,20 9.09375,18.4063 10.4063,17.0938 C11.5938,15.9063 13,15.5 14.2969,15.5 C15.5938,15.5 16.7031,15.9063 17.5,16.4063 L21.4063,18.9063 C21.4063,18.9063 22.5938,19.5 23.2031,18.5938 C23.7031,17.7969 23.5,17.4063 23.2031,16.9063"/>
<path class="Rest" transform="matrix(2.0126,0,0,2.0126,2780.76,555.228)" d="M23.2031,16.9063 L23,16.5938 C22.9063,16.5 22.7031,16.2969 22.4063,15.9063 L10.9063,1.70313 C10.5938,1.40625 10.7031,0.59375 10.9063,0.203125 L21.0938,-15.2031 C21.2031,-15.4063 21.2969,-15.7031 21.2969,-15.9063 L21.2969,-16.7969 C21.2969,-17.0938 21.2031,-17.4063 21,-17.5938 L4.79688,-39.5 C4.79688,-39.5 4,-40.7031 3,-39.7969 C2,-39 2.79688,-37.7031 2.79688,-37.7031 L10.4063,-27.2969 C10.7969,-26.7031 10.7969,-25.5 10.4063,-24.9063 L0.296875,-9.5 C0.203125,-9.29688 0.09375,-8.90625 0.09375,-8.70313 L0.09375,-7.79688 C0.09375,-7.5 0.203125,-7.20313 0.40625,-7 L11.5938,6.90625 C11.2031,6.79688 10.2969,6.59375 9.09375,6.59375 C7.40625,6.59375 5.20313,7 3.40625,8.59375 C1.20313,10.5938 0,13.4063 0,15.9063 C0,17.2969 0.296875,18.7031 1.09375,19.7969 C3.20313,23 10.7031,32.5 10.7031,32.5 C10.7031,32.5 11.5938,33.6094 12.5,32.9063 C13.4063,32.2031 13.2031,31.2969 12.9063,30.7969 C12.5938,30.2969 9.40625,24.5 9.40625,24.5 C9.40625,24.5 8.70313,23.0938 8.70313,21.2969 C8.70313,20 9.09375,18.4063 10.4063,17.0938 C11.5938,15.9063 13,15.5 14.2969,15.5 C15.5938,15.5 16.7031,15.9063 17.5,16.4063 L21.4063,18.9063 C21.4063,18.9063 22.5938,19.5 23.2031,18.5938 C23.7031,17.7969 23.5,17.4063 23.2031,16.9063"/>
<path class="Rest" transform="matrix(2.0126,0,0,2.0126,3460.14,555.228)" d="M23.2031,16.9063 L23,16.5938 C22.9063,16.5 22.7031,16.2969 22.4063,15.9063 L10.9063,1.70313 C10.5938,1.40625 10.7031,0.59375 10.9063,0.203125 L21.0938,-15.2031 C21.2031,-15.4063 21.2969,-15.7031 21.2969,-15.9063 L21.2969,-16.7969 C21.2969,-17.0938 21.2031,-17.4063 21,-17.5938 L4.79688,-39.5 C4.79688,-39.5 4,-40.7031 3,-39.7969 C2,-39 2.79688,-37.7031 2.79688,-37.7031 L10.4063,-27.2969 C10.7969,-26.7031 10.7969,-25.5 10.4063,-24.9063 L0.296875,-9.5 C0.203125,-9.29688 0.09375,-8.90625 0.09375,-8.70313 L0.09375,-7.79688 C0.09375,-7.5 0.203125,-7.20313 0.40625,-7 L11.5938,6.90625 C11.2031,6.79688 10.2969,6.59375 9.09375,6.59375 C7.40625,6.59375 5.20313,7 3.40625,8.59375 C1.20313,10.5938 0,13.4063 0,15.9063 C0,17.2969 0.296875,18.7031 1.09375,19.7969 C3.20313,23 10.7031,32.5 10.7031,32.5 C10.7031,32.5 11.5938,33.6094 12.5,32.9063 C13.4063,32.2031 13.2031,31.2969 12.9063,30.7969 C12.5938,30.2969 9.40625,24.5 9.40625,24.5 C9.40625,24.5 8.70313,23.0938 8.70313,21.2969 C8.70313,20 9.09375,18.4063 10.4063,17.0938 C11.5938,15.9063 13,15.5 14.2969,15.5 C15.5938,15.5 16.7031,15.9063 17.5,16.4063 L21.4063,18.9063 C21.4063,18.9063 22.5938,19.5 23.2031,18.5938 C23.7031,17.7969 23.5,17.4063 23.2031,16.9063"/>
<path class="Rest" transform="matrix(2.0126,0,0,2.0126,3935.25,555.228)" d="M23.2031,16.9063 L23,16.5938 C22.9063,16.5 22.7031,16.2969 22.4063,15.9063 L10.9063,1.70313 C10.5938,1.40625 10.7031,0.59375 10.9063,0.203125 L21.0938,-15.2031 C21.2031,-15.4063 21.2969,-15.7031 21.2969,-15.9063 L21.2969,-16.7969 C21.2969,-17.0938 21.2031,-17.4063 21,-17.5938 L4.79688,-39.5 C4.79688,-39.5 4,-40.7031 3,-39.7969 C2,-39 2.79688,-37.7031 2.79688,-37.7031 L10.4063,-27.2969 C10.7969,-26.7031 10.7969,-25.5 10.4063,-24.9063 L0.296875,-9.5 C0.203125,-9.29688 0.09375,-8.90625 0.09375,-8.70313 L0.09375,-7.79688 C0.09375,-7.5 0.203125,-7.20313 0.40625,-7 L11.5938,6.90625 C11.2031,6.79688 10.2969,6.59375 9.09375,6.59375 C7.40625,6.59375 5.20313,7 3.40625,8.59375 C1.20313,10.5938 0,13.4063 0,15.9063 C0,17.2969 0.296875,18.7031 1.09375,19.7969 C3.20313,23 10.7031,32.5 10.7031,32.5 C10.7031,32.5 11.5938,33.6094 12.5,32.9063 C13.4063,32.2031 13.2031,31.2969 12.9063,30.7969 C12.5938,30.2969 9.40625,24.5 9.40625,24.5 C9.40625,24.5 8.70313,23.0938 8.70313,21.2969 C8.70313,20 9.09375,18.4063 10.4063,17.0938 C11.5938,15.9063 13,15.5 14.2969,15.5 C15.5938,15.5 16.7031,15.9063 17.5,16.4063 L21.4063,18.9063 C21.4063,18.9063 22.5938,19.5 23.2031,18.5938 C23.7031,17.7969 23.5,17.4063 23.2031,16.9063"/>
<path class="Rest" transform="matrix(2.0126,0,0,2.0126,1628.26,1390.23)" d="M23.2031,16.9063 L23,16.5938 C22.9063,16.5 22.7031,16.2969 22.4063,15.9063 L10.9063,1.70313 C10.5938,1.40625 10.7031,0.59375 10.9063,0.203125 L21.0938,-15.2031 C21.2031,-15.4063 21.2969,-15.7031 21.2969,-15.9063 L21.2969,-16.7969 C21.2969,-17.0938 21.2031,-17.4063 21,-17.5938 L4.79688,-39.5 C4.79688,-39.5 4,-40.7031 3,-39.7969 C2,-39 2.79688,-37.7031 2.79688,-37.7031 L10.4063,-27.2969 C10.7969,-26.7031 10.7969,-25.5 10.4063,-24.9063 L0.296875,-9.5 C0.203125,-9.29688 0.09375,-8.90625 0.09375,-8.70313 L0.09375,-7.79688 C0.09375,-7.5 0.203125,-7.20313 0.40625,-7 L11.5938,6.90625 C11.2031,6.79688 10.2969,6.59375 9.09375,6.59375 C7.40625,6.59375 5.20313,7 3.40625,8.59375 C1.20313,10.5938 0,13.4063 0,15.9063 C0,17.2969 0.296875,18.7031 1.09375,19.7969 C3.20313,23 10.7031,32.5 10.7031,32.5 C10.7031,32.5 11.5938,33.6094 12.5,32.9063 C13.4063,32.2031 13.2031,31.2969 12.9063,30.7969 C12.5938,30.2969 9.40625,24.5 9.40625,24.5 C9.40625,24.5 8.70313,23.0938 8.70313,21.2969 C8.70313,20 9.09375,18.4063 10.4063,17.0938 C11.5938,15.9063 13,15.5 14.2969,15.5 C15.5938,15.5 16.7031,15.9063 17.5,16.4063 L21.4063,18.9063 C21.4063,18.9063 22.5938,19.5 23.2031,18.5938 C23.7031,17.7969 23.5,17.4063 23.2031,16.9063"/>
<path class="Rest" transform="matrix(2.0126,0,0,2.0126,820.552,2225.23)" d="M23.2031,16.9063 L23,16.5938 C22.9063,16.5 22.7031,16.2969 22.4063,15.9063 L10.9063,1.70313 C10.5938,1.40625 10.7031,0.59375 10.9063,0.203125 L21.0938,-15.2031 C21.2031,-15.4063 21.2969,-15.7031 21.2969,-15.9063 L21.2969,-16.7969 C21.2969,-17.0938 21.2031,-17.4063 21,-17.5938 L4.79688,-39.5 C4.79688,-39.5 4,-40.7031 3,-39.7969 C2,-39 2.79688,-37.7031 2.79688,-37.7031 L10.4063,-27.2969 C10.7969,-26.7031 10.7969,-25.5 10.4063,-24.9063 L0.296875,-9.5 C0.203125,-9.29688 0.09375,-8.90625 0.09375,-8.70313 L0.09375,-7.79688 C0.09375,-7.5 0.203125,-7.20313 0.40625,-7 L11.5938,6.90625 C11.2031,6.79688 10.2969,6.59375 9.09375,6.59375 C7.40625,6.59375 5.20313,7 3.40625,8.59375 C1.20313,10.5938 0,13.4063 0,15.9063 C0,17.2969 0.296875,18.7031 1.09375,19.7969 C3.20313,23 10.7031,32.5 10.7031,32.5 C10.7031,32.5 11.5938,33.6094 12.5,32.9063 C13.4063,32.2031 13.2031,31.2969 12.9063,30.7969 C12.5938,30.2969 9.40625,24.5 9.40625,24.5 C9.40625,24.5 8.70313,23.0938 8.70313,21.2969 C8.70313,20 9.09375,18.4063 10.4063,17.0938 C11.5938,15.9063 13,15.5 14.2969,15.5 C15.5938,15.5 16.7031,15.9063 17.5,16.4063 L21.4063,18.9063 C21.4063,18.9063 22.5938,19.5 23.2031,18.5938 C23.7031,17.7969 23.5,17.4063 23.2031,16.9063"/>
<path class="Rest" transform="matrix(2.0126,0,0,2.0126,2326.77,2225.23)" d="M23.2031,16.9063 L23,16.5938 C22.9063,16.5 22.7031,16.2969 22.4063,15.9063 L10.9063,1.70313 C10.5938,1.40625 10.7031,0.59375 10.9063,0.203125 L21.0938,-15.2031 C21.2031,-15.4063 21.2969,-15.7031 21.2969,-15.9063 L21.2969,-16.7969 C21.2969,-17.0938 21.2031,-17.4063 21,-17.5938 L4.79688,-39.5 C4.79688,-39.5 4,-40.7031 3,-39.7969 C2,-39 2.79688,-37.7031 2.79688,-37.7031 L10.4063,-27.2969 C10.7969,-26.7031 10.7969,-25.5 10.4063,-24.9063 L0.296875,-9.5 C0.203125,-9.29688 0.09375,-8.90625 0.09375,-8.70313 L0.09375,-7.79688 C0.09375,-7.5 0.203125,-7.20313 0.40625,-7 L11.5938,6.90625 C11.2031,6.79688 10.2969,6.59375 9.09375,6.59375 C7.40625,6.59375 5.20313,7 3.40625,8.59375 C1.20313,10.5938 0,13.4063 0,15.9063 C0,17.2969 0.296875,18.7031 1.09375,19.7969 C3.20313,23 10.7031,32.5 10.7031,32.5 C10.7031,32.5 11.5938,33.6094 12.5,32.9063 C13.4063,32.2031 13.2031,31.2969 12.9063,30.7969 C12.5938,30.2969 9.40625,24.5 9.40625,24.5 C9.40625,24.5 8.70313,23.0938 8.70313,21.2969 C8.70313,20 9.09375,18.4063 10.4063,17.0938 C11.5938,15.9063 13,15.5 14.2969,15.5 C15.5938,15.5 16.7031,15.9063 17.5,16.4063 L21.4063,18.9063 C21.4063,18.9063 22.5938,19.5 23.2031,18.5938 C23.7031,17.7969 23.5,17.4063 23.2031,16.9063"/>
<path class="Rest" transform="matrix(2.0126,0,0,2.0126,2880.6,2225.23)" d="M23.2031,16.9063 L23,16.5938 C22.9063,16.5 22.7031,16.2969 22.4063,15.9063 L10.9063,1.70313 C10.5938,1.40625 10.7031,0.59375 10.9063,0.203125 L21.0938,-15.2031 C21.2031,-15.4063 21.2969,-15.7031 21.2969,-15.9063 L21.2969,-16.7969 C21.2969,-17.0938 21.2031,-17.4063 21,-17.5938 L4.79688,-39.5 C4.79688,-39.5 4,-40.7031 3,-39.7969 C2,-39 2.79688,-37.7031 2.79688,-37.7031 L10.4063,-27.2969 C10.7969,-26.7031 10.7969,-25.5 10.4063,-24.9063 L0.296875,-9.5 C0.203125,-9.29688 0.09375,-8.90625 0.09375,-8.70313 L0.09375,-7.79688 C0.09375,-7.5 0.203125,-7.20313 0.40625,-7 L11.5938,6.90625 C11.2031,6.79688 10.2969,6.59375 9.09375,6.59375 C7.40625,6.59375 5.20313,7 3.40625,8.59375 C1.20313,10.5938 0,13.4063 0,15.9063 C0,17.2969 0.296875,18.7031 1.09375,19.7969 C3.20313,23 10.7031,32.5 10.7031,32.5 C10.7031,32.5 11.5938,33.6094 12.5,32.9063 C13.4063,32.2031 13.2031,31.2969 12.9063,30.7969 C12.5938,30.2969 9.40625,24.5 9.40625,24.5 C9.40625,24.5 8.70313,23.0938 8.70313,21.2969 C8.70313,20 9.09375,18.4063 10.4063,17.0938 C11.5938,15.9063 13,15.5 14.2969,15.5 C15.5938,15.5 16.7031,15.9063 17.5,16.4063 L21.4063,18.9063 C21.4063,18.9063 22.5938,19.5 23.2031,18.5938 C23.7031,17.7969 23.5,17.4063 23.2031,16.9063"/>
<path class="Rest" transform="matrix(2.0126,0,0,2.0126,3640.47,2225.23)" d="M23.2031,16.9063 L23,16.5938 C22.9063,16.5 22.7031,16.2969 22.4063,15.9063 L10.9063,1.70313 C10.5938,1.40625 10.7031,0.59375 10.9063,0.203125 L21.0938,-15.2031 C21.2031,-15.4063 21.2969,-15.7031 21.2969,-15.9063 L21.2969,-16.7969 C21.2969,-17.0938 21.2031,-17.4063 21,-17.5938 L4.79688,-39.5 C4.79688,-39.5 4,-40.7031 3,-39.7969 C2,-39 2.79688,-37.7031 2.79688,-37.7031 L10.4063,-27.2969 C10.7969,-26.7031 10.7969,-25.5 10.4063,-24.9063 L0.296875,-9.5 C0.203125,-9.29688 0.09375,-8.90625 0.09375,-8.70313 L0.09375,-7.79688 C0.09375,-7.5 0.203125,-7.20313 0.40625,-7 L11.5938,6.90625 C11.2031,6.79688 10.2969,6.59375 9.09375,6.59375 C7.40625,6.59375 5.20313,7 3.40625,8.59375 C1.20313,10.5938 0,13.4063 0,15.9063 C0,17.2969 0.296875,18.7031 1.09375,19.7969 C3.20313,23 10.7031,32.5 10.7031,32.5 C10.7031,32.5 11.5938,33.6094 12.5,32.9063 C13.4063,32.2031 13.2031,31.2969 12.9063,30.7969 C12.5938,30.2969 9.40625,24.5 9.40625,24.5 C9.40625,24.5 8.70313,23.0938 8.70313,21.2969 C8.70313,20 9.09375,18.4063 10.4063,17.0938 C11.5938,15.9063 13,15.5 14.2969,15.5 C15.5938,15.5 16.7031,15.9063 17.5,16.4063 L21.4063,18.9063 C21.4063,18.9063 22.5938,19.5 23.2031,18.5938 C23.7031,17.7969 23.5,17.4063 23.2031,16.9063"/>
<path class="Rest" transform="matrix(2.0126,0,0,2.0126,3827.23,2225.23)" d="M0,-11.7969 L0,-1 C0,0.40625 0,0.40625 1.40625,0.40625 L31.1094,0.40625 C32.5,0.40625 32.5,0.40625 32.5,-1 L32.5,-11.7969 C32.5,-13.2031 32.5,-13.2031 31.1094,-13.2031 L1.40625,-13.2031 C0,-13.2031 0,-13.2031 0,-11.7969"/>
<path class="Beam" fill-rule="evenodd" d="M587.192,430.571 L753.719,378.526 L753.719,404.883 L587.192,456.928 L587.192,430.571 "/>
<path class="Beam" fill-rule="evenodd" d="M1062.3,391.234 L1228.83,404.245 L1228.83,429.479 L1062.3,416.468 L1062.3,391.234 "/>
<path class="Beam" fill-rule="evenodd" d="M1717.97,655.825 L1896.28,642.843 L1896.28,668.067 L1717.97,681.049 L1717.97,655.825 "/>
<path class="Beam" fill-rule="evenodd" d="M2101.43,630.662 L2267.96,643.673 L2267.96,668.908 L2101.43,655.896 L2101.43,630.662 "/>
<path class="Beam" fill-rule="evenodd" d="M2101.43,592.926 L2166.84,598.037 L2166.84,623.271 L2101.43,618.16 L2101.43,592.926 "/>
<path class="Beam" fill-rule="evenodd" d="M2435.2,680.982 L2613.52,693.964 L2613.52,719.188 L2435.2,706.206 L2435.2,680.982 "/>
<path class="Beam" fill-rule="evenodd" d="M3238.2,430.571 L3404.72,378.526 L3404.72,404.883 L3238.2,456.928 L3238.2,430.571 "/>
<path class="Beam" fill-rule="evenodd" d="M3713.3,391.234 L3879.83,404.245 L3879.83,429.479 L3713.3,416.468 L3713.3,391.234 "/>
<path class="Beam" fill-rule="evenodd" d="M451.216,1490.83 L651.421,1477.9 L651.421,1503.11 L451.216,1516.04 L451.216,1490.83 "/>
<path class="Beam" fill-rule="evenodd" d="M883.26,1465.66 L1049.79,1478.68 L1049.79,1503.91 L883.26,1490.9 L883.26,1465.66 "/>
<path class="Beam" fill-rule="evenodd" d="M883.26,1427.93 L948.669,1433.04 L948.669,1458.27 L883.26,1453.16 L883.26,1427.93 "/>
<path class="Beam" fill-rule="evenodd" d="M1238.92,1515.99 L1439.13,1528.93 L1439.13,1554.14 L1238.92,1541.2 L1238.92,1515.99 "/>
<path class="Beam" fill-rule="evenodd" d="M2115.8,1239.49 L2443.31,1226.7 L2443.31,1251.87 L2115.8,1264.67 L2115.8,1239.49 "/>
<path class="Beam" fill-rule="evenodd" d="M2115.8,1277.23 L2282.32,1270.72 L2282.32,1295.9 L2115.8,1302.4 L2115.8,1277.23 "/>
<path class="Beam" fill-rule="evenodd" d="M2675.89,1212.68 L2919.53,1264.16 L2919.53,1289.88 L2675.89,1238.39 L2675.89,1212.68 "/>
<path class="Beam" fill-rule="evenodd" d="M3152.1,1239.49 L3479.62,1226.7 L3479.62,1251.87 L3152.1,1264.67 L3152.1,1239.49 "/>
<path class="Beam" fill-rule="evenodd" d="M3152.1,1277.23 L3318.63,1270.72 L3318.63,1295.9 L3152.1,1302.4 L3152.1,1277.23 "/>
<path class="Beam" fill-rule="evenodd" d="M3712.19,1212.68 L3955.84,1264.16 L3955.84,1289.88 L3712.19,1238.39 L3712.19,1212.68 "/>
<path class="Beam" fill-rule="evenodd" d="M451.216,2262.94 L641.418,2275.89 L641.418,2301.11 L451.216,2288.15 L451.216,2262.94 "/>
<path class="Beam" fill-rule="evenodd" d="M1116.02,2325.83 L1306.22,2312.88 L1306.22,2338.09 L1116.02,2351.05 L1116.02,2325.83 "/>
<path class="Beam" fill-rule="evenodd" d="M1545.22,2112.37 L1735.42,2099.42 L1735.42,2124.63 L1545.22,2137.59 L1545.22,2112.37 "/>
<path class="Beam" fill-rule="evenodd" d="M2014.69,2363.56 L2181.22,2350.55 L2181.22,2375.78 L2014.69,2388.79 L2014.69,2363.56 "/>
<path class="Beam" fill-rule="evenodd" d="M2628.37,2061.24 L2794.9,2074.25 L2794.9,2099.48 L2628.37,2086.47 L2628.37,2061.24 "/>
<path class="Beam" fill-rule="evenodd" d="M3362.76,2363.56 L3529.29,2350.55 L3529.29,2375.78 L3362.76,2388.79 L3362.76,2363.56 "/>
<path class="StaffText" d="M564.223,283.089 C543.083,283.089 527.677,306.043 527.677,337.761 C527.677,368.871 542.63,391.668 563.005,391.668 C584.145,391.668 598.942,369.621 598.942,338.214 C598.942,322.199 595.63,308.918 589.286,298.496 C583.395,288.98 573.723,283.089 564.223,283.089 M563.161,289.589 C568.145,289.589 572.973,292.918 576.598,298.949 C580.677,306.043 582.036,314.652 582.036,335.339 C582.036,356.636 580.973,366.605 577.958,373.246 C574.489,380.636 569.052,385.168 563.317,385.168 C558.177,385.168 553.489,381.855 549.88,375.808 C545.645,368.714 544.442,359.355 544.442,334.589 C544.442,316.918 545.489,308.168 548.52,301.527 C551.989,293.964 557.427,289.589 563.161,289.589"/>
<path class="StaffText" d="M725.216,172.183 C704.075,172.183 688.669,195.137 688.669,226.855 C688.669,257.965 703.622,280.762 723.997,280.762 C745.137,280.762 759.934,258.715 759.934,227.308 C759.934,211.293 756.622,198.012 750.278,187.59 C744.387,178.074 734.716,172.183 725.216,172.183 M724.153,178.683 C729.137,178.683 733.966,182.012 737.591,188.043 C741.669,195.137 743.028,203.746 743.028,224.433 C743.028,245.73 741.966,255.699 738.95,262.34 C735.481,269.73 730.044,274.262 724.309,274.262 C719.169,274.262 714.481,270.949 710.872,264.902 C706.637,257.808 705.434,248.449 705.434,223.683 C705.434,206.012 706.481,197.262 709.512,190.621 C712.981,183.058 718.419,178.683 724.153,178.683"/>
<path class="StaffText" d="M1073.69,271.044 L1067.05,271.044 L1065.53,278.732 C1063.58,288.56 1062.38,289.466 1053,289.466 L1019.19,289.466 C1029.6,278.591 1033.08,275.419 1042.74,267.872 C1056.49,257.294 1062.38,252.013 1065.85,247.482 C1070.67,240.841 1073.1,234.2 1073.1,226.794 C1073.1,209.575 1058.89,197.341 1039.11,197.341 C1019.94,197.341 1005.3,209.575 1005.3,225.732 C1005.3,235.247 1010.13,241.747 1017.22,241.747 C1022.81,241.747 1026.58,237.966 1026.58,232.528 C1026.58,228.763 1024.47,225.278 1021.3,223.919 C1015.7,221.653 1015.41,221.357 1015.41,219.388 C1015.41,217.122 1016.92,213.653 1019.03,211.091 C1022.81,206.403 1029,203.841 1036.1,203.841 C1048.63,203.841 1056.03,211.544 1056.03,224.232 C1056.03,235.403 1050.74,245.513 1038.2,258.81 C1027.03,270.591 1020.1,277.982 1017.52,280.857 C1012.08,287.2 1009.36,290.669 1002.72,299.419 L1002.72,303.653 L1070.83,303.653 L1073.69,271.044 "/>
<path class="StaffText" d="M1197.06,247.656 C1191.92,253.859 1178.03,258.531 1164.13,258.843 L1164.13,265.328 L1177.43,265.328 C1186.18,265.484 1187.09,266.39 1186.79,274.843 L1186.79,335.39 C1186.79,343.093 1186.79,343.406 1185.88,344.75 C1184.67,346.265 1181.81,346.875 1173.35,346.875 L1163.53,346.875 L1163.53,353.968 L1223.32,353.968 L1223.32,346.875 L1215.03,346.875 C1206.57,346.875 1203.7,346.265 1202.49,344.75 C1201.43,343.406 1201.43,343.25 1201.43,335.39 L1201.43,273.031 C1201.43,264.578 1201.73,257.484 1202.49,247.656 L1197.06,247.656 M1308.63,321.359 L1301.99,321.359 L1300.48,329.046 C1298.53,338.875 1297.32,339.781 1287.95,339.781 L1254.13,339.781 C1264.54,328.906 1268.03,325.734 1277.68,318.187 C1291.43,307.609 1297.32,302.328 1300.79,297.796 C1305.62,291.156 1308.04,284.515 1308.04,277.109 C1308.04,259.89 1293.84,247.656 1274.06,247.656 C1254.88,247.656 1240.24,259.89 1240.24,276.046 C1240.24,285.562 1245.07,292.062 1252.17,292.062 C1257.76,292.062 1261.53,288.281 1261.53,282.843 C1261.53,279.078 1259.42,275.593 1256.24,274.234 C1250.65,271.968 1250.35,271.671 1250.35,269.703 C1250.35,267.437 1251.87,263.968 1253.98,261.406 C1257.76,256.718 1263.95,254.156 1271.04,254.156 C1283.57,254.156 1290.98,261.859 1290.98,274.546 C1290.98,285.718 1285.68,295.828 1273.15,309.125 C1261.98,320.906 1255.04,328.296 1252.46,331.171 C1247.03,337.515 1244.31,340.984 1237.67,349.734 L1237.67,353.968 L1305.78,353.968 L1308.63,321.359 "/>
<path class="StaffText" d="M1754.86,172.183 C1733.72,172.183 1718.31,195.137 1718.31,226.855 C1718.31,257.965 1733.26,280.762 1753.64,280.762 C1774.78,280.762 1789.58,258.715 1789.58,227.308 C1789.58,211.293 1786.26,198.012 1779.92,187.59 C1774.03,178.074 1764.36,172.183 1754.86,172.183 M1753.8,178.683 C1758.78,178.683 1763.61,182.012 1767.23,188.043 C1771.31,195.137 1772.67,203.746 1772.67,224.433 C1772.67,245.73 1771.61,255.699 1768.59,262.34 C1765.12,269.73 1759.69,274.262 1753.95,274.262 C1748.81,274.262 1744.12,270.949 1740.51,264.902 C1736.28,257.808 1735.08,248.449 1735.08,223.683 C1735.08,206.012 1736.12,197.262 1739.15,190.621 C1742.62,183.058 1748.06,178.683 1753.8,178.683"/>
<path class="StaffText" d="M1924.37,121.868 C1919.23,128.072 1905.34,132.743 1891.45,133.056 L1891.45,139.54 L1904.75,139.54 C1913.5,139.697 1914.4,140.603 1914.11,149.056 L1914.11,209.603 C1914.11,217.306 1914.11,217.618 1913.2,218.962 C1911.98,220.478 1909.12,221.087 1900.67,221.087 L1890.84,221.087 L1890.84,228.181 L1950.64,228.181 L1950.64,221.087 L1942.34,221.087 C1933.89,221.087 1931.01,220.478 1929.81,218.962 C1928.75,217.618 1928.75,217.462 1928.75,209.603 L1928.75,147.243 C1928.75,138.79 1929.04,131.697 1929.81,121.868 L1924.37,121.868 "/>
<path class="StaffText" d="M2138.32,71.5535 C2117.18,71.5535 2101.77,94.5066 2101.77,126.225 C2101.77,157.335 2116.73,180.132 2137.1,180.132 C2158.24,180.132 2173.04,158.085 2173.04,126.678 C2173.04,110.663 2169.73,97.3816 2163.38,86.9597 C2157.49,77.4441 2147.82,71.5535 2138.32,71.5535 M2137.26,78.0535 C2142.24,78.0535 2147.07,81.3816 2150.69,87.4129 C2154.77,94.5066 2156.13,103.116 2156.13,123.803 C2156.13,145.1 2155.07,155.069 2152.05,161.71 C2148.59,169.1 2143.15,173.632 2137.41,173.632 C2132.27,173.632 2127.59,170.319 2123.98,164.272 C2119.74,157.178 2118.54,147.819 2118.54,123.053 C2118.54,105.382 2119.59,96.6316 2122.62,89.991 C2126.09,82.4285 2131.52,78.0535 2137.26,78.0535"/>
<path class="StaffText" d="M2296.05,121.868 C2290.91,128.072 2277.01,132.743 2263.12,133.056 L2263.12,139.54 L2276.42,139.54 C2285.17,139.697 2286.08,140.603 2285.78,149.056 L2285.78,209.603 C2285.78,217.306 2285.78,217.618 2284.87,218.962 C2283.66,220.478 2280.8,221.087 2272.34,221.087 L2262.51,221.087 L2262.51,228.181 L2322.31,228.181 L2322.31,221.087 L2314.01,221.087 C2305.56,221.087 2302.69,220.478 2301.48,218.962 C2300.42,217.618 2300.42,217.462 2300.42,209.603 L2300.42,147.243 C2300.42,138.79 2300.72,131.697 2301.48,121.868 L2296.05,121.868 "/>
<path class="StaffText" d="M2472.09,172.183 C2450.95,172.183 2435.55,195.137 2435.55,226.855 C2435.55,257.965 2450.5,280.762 2470.87,280.762 C2492.01,280.762 2506.81,258.715 2506.81,227.308 C2506.81,211.293 2503.5,198.012 2497.15,187.59 C2491.26,178.074 2481.59,172.183 2472.09,172.183 M2471.03,178.683 C2476.01,178.683 2480.84,182.012 2484.47,188.043 C2488.55,195.137 2489.9,203.746 2489.9,224.433 C2489.9,245.73 2488.84,255.699 2485.83,262.34 C2482.36,269.73 2476.92,274.262 2471.19,274.262 C2466.05,274.262 2461.36,270.949 2457.75,264.902 C2453.51,257.808 2452.31,248.449 2452.31,223.683 C2452.31,206.012 2453.36,197.262 2456.39,190.621 C2459.86,183.058 2465.3,178.683 2471.03,178.683"/>
<path class="StaffText" d="M2679.23,271.044 L2672.59,271.044 L2671.08,278.732 C2669.12,288.56 2667.92,289.466 2658.54,289.466 L2624.73,289.466 C2635.14,278.591 2638.62,275.419 2648.28,267.872 C2662.03,257.294 2667.92,252.013 2671.39,247.482 C2676.22,240.841 2678.64,234.2 2678.64,226.794 C2678.64,209.575 2664.43,197.341 2644.65,197.341 C2625.48,197.341 2610.84,209.575 2610.84,225.732 C2610.84,235.247 2615.67,241.747 2622.76,241.747 C2628.36,241.747 2632.12,237.966 2632.12,232.528 C2632.12,228.763 2630.01,225.278 2626.84,223.919 C2621.25,221.653 2620.95,221.357 2620.95,219.388 C2620.95,217.122 2622.47,213.653 2624.58,211.091 C2628.36,206.403 2634.54,203.841 2641.64,203.841 C2654.17,203.841 2661.58,211.544 2661.58,224.232 C2661.58,235.403 2656.28,245.513 2643.75,258.81 C2632.58,270.591 2625.64,277.982 2623.06,280.857 C2617.62,287.2 2614.9,290.669 2608.26,299.419 L2608.26,303.653 L2676.37,303.653 L2679.23,271.044 "/>
<path class="StaffText" d="M3215.23,283.089 C3194.09,283.089 3178.68,306.043 3178.68,337.761 C3178.68,368.871 3193.63,391.668 3214.01,391.668 C3235.15,391.668 3249.95,369.621 3249.95,338.214 C3249.95,322.199 3246.63,308.918 3240.29,298.496 C3234.4,288.98 3224.73,283.089 3215.23,283.089 M3214.16,289.589 C3219.15,289.589 3223.98,292.918 3227.6,298.949 C3231.68,306.043 3233.04,314.652 3233.04,335.339 C3233.04,356.636 3231.98,366.605 3228.96,373.246 C3225.49,380.636 3220.06,385.168 3214.32,385.168 C3209.18,385.168 3204.49,381.855 3200.88,375.808 C3196.65,368.714 3195.45,359.355 3195.45,334.589 C3195.45,316.918 3196.49,308.168 3199.52,301.527 C3202.99,293.964 3208.43,289.589 3214.16,289.589"/>
<path class="StaffText" d="M3376.22,172.183 C3355.08,172.183 3339.67,195.137 3339.67,226.855 C3339.67,257.965 3354.63,280.762 3375,280.762 C3396.14,280.762 3410.94,258.715 3410.94,227.308 C3410.94,211.293 3407.63,198.012 3401.28,187.59 C3395.39,178.074 3385.72,172.183 3376.22,172.183 M3375.16,178.683 C3380.14,178.683 3384.97,182.012 3388.59,188.043 C3392.67,195.137 3394.03,203.746 3394.03,224.433 C3394.03,245.73 3392.97,255.699 3389.95,262.34 C3386.48,269.73 3381.05,274.262 3375.31,274.262 C3370.17,274.262 3365.48,270.949 3361.88,264.902 C3357.64,257.808 3356.44,248.449 3356.44,223.683 C3356.44,206.012 3357.48,197.262 3360.52,190.621 C3363.98,183.058 3369.42,178.683 3375.16,178.683"/>
<path class="StaffText" d="M3724.69,271.044 L3718.05,271.044 L3716.54,278.732 C3714.58,288.56 3713.38,289.466 3704.01,289.466 L3670.19,289.466 C3680.6,278.591 3684.08,275.419 3693.74,267.872 C3707.49,257.294 3713.38,252.013 3716.85,247.482 C3721.68,240.841 3724.1,234.2 3724.1,226.794 C3724.1,209.575 3709.9,197.341 3690.11,197.341 C3670.94,197.341 3656.3,209.575 3656.3,225.732 C3656.3,235.247 3661.13,241.747 3668.22,241.747 C3673.82,241.747 3677.58,237.966 3677.58,232.528 C3677.58,228.763 3675.47,225.278 3672.3,223.919 C3666.71,221.653 3666.41,221.357 3666.41,219.388 C3666.41,217.122 3667.93,213.653 3670.04,211.091 C3673.82,206.403 3680.01,203.841 3687.1,203.841 C3699.63,203.841 3707.04,211.544 3707.04,224.232 C3707.04,235.403 3701.74,245.513 3689.21,258.81 C3678.04,270.591 3671.1,277.982 3668.52,280.857 C3663.08,287.2 3660.36,290.669 3653.72,299.419 L3653.72,303.653 L3721.83,303.653 L3724.69,271.044 "/>
<path class="StaffText" d="M3848.06,247.656 C3842.92,253.859 3829.03,258.531 3815.14,258.843 L3815.14,265.328 L3828.43,265.328 C3837.18,265.484 3838.09,266.39 3837.79,274.843 L3837.79,335.39 C3837.79,343.093 3837.79,343.406 3836.89,344.75 C3835.67,346.265 3832.81,346.875 3824.36,346.875 L3814.53,346.875 L3814.53,353.968 L3874.33,353.968 L3874.33,346.875 L3866.03,346.875 C3857.58,346.875 3854.7,346.265 3853.5,344.75 C3852.43,343.406 3852.43,343.25 3852.43,335.39 L3852.43,273.031 C3852.43,264.578 3852.73,257.484 3853.5,247.656 L3848.06,247.656 M3959.64,321.359 L3953,321.359 L3951.48,329.046 C3949.53,338.875 3948.33,339.781 3938.95,339.781 L3905.14,339.781 C3915.54,328.906 3919.03,325.734 3928.68,318.187 C3942.43,307.609 3948.33,302.328 3951.79,297.796 C3956.62,291.156 3959.04,284.515 3959.04,277.109 C3959.04,259.89 3944.84,247.656 3925.06,247.656 C3905.89,247.656 3891.25,259.89 3891.25,276.046 C3891.25,285.562 3896.08,292.062 3903.17,292.062 C3908.76,292.062 3912.53,288.281 3912.53,282.843 C3912.53,279.078 3910.42,275.593 3907.25,274.234 C3901.65,271.968 3901.36,271.671 3901.36,269.703 C3901.36,267.437 3902.87,263.968 3904.98,261.406 C3908.76,256.718 3914.95,254.156 3922.04,254.156 C3934.58,254.156 3941.98,261.859 3941.98,274.546 C3941.98,285.718 3936.68,295.828 3924.15,309.125 C3912.98,320.906 3906.04,328.296 3903.47,331.171 C3898.03,337.515 3895.31,340.984 3888.67,349.734 L3888.67,353.968 L3956.78,353.968 L3959.64,321.359 "/>
<path class="StaffText" d="M488.106,1007.19 C466.966,1007.19 451.559,1030.14 451.559,1061.86 C451.559,1092.97 466.513,1115.76 486.888,1115.76 C508.028,1115.76 522.825,1093.72 522.825,1062.31 C522.825,1046.29 519.513,1033.01 513.169,1022.59 C507.278,1013.08 497.606,1007.19 488.106,1007.19 M487.044,1013.69 C492.028,1013.69 496.856,1017.01 500.481,1023.04 C504.559,1030.14 505.919,1038.75 505.919,1059.44 C505.919,1080.73 504.856,1090.7 501.841,1097.34 C498.372,1104.73 492.934,1109.26 487.2,1109.26 C482.059,1109.26 477.372,1105.95 473.763,1099.9 C469.528,1092.81 468.325,1083.45 468.325,1058.69 C468.325,1041.01 469.372,1032.26 472.403,1025.62 C475.872,1018.06 481.309,1013.69 487.044,1013.69"/>
<path class="StaffText" d="M679.511,956.87 C674.371,963.073 660.48,967.745 646.589,968.058 L646.589,974.542 L659.886,974.542 C668.636,974.698 669.542,975.605 669.246,984.058 L669.246,1044.6 C669.246,1052.31 669.246,1052.62 668.339,1053.96 C667.121,1055.48 664.261,1056.09 655.808,1056.09 L645.98,1056.09 L645.98,1063.18 L705.777,1063.18 L705.777,1056.09 L697.48,1056.09 C689.027,1056.09 686.152,1055.48 684.949,1053.96 C683.886,1052.62 683.886,1052.46 683.886,1044.6 L683.886,982.245 C683.886,973.792 684.183,966.698 684.949,956.87 L679.511,956.87 "/>
<path class="StaffText" d="M920.15,906.555 C899.01,906.555 883.603,929.508 883.603,961.227 C883.603,992.337 898.557,1015.13 918.932,1015.13 C940.072,1015.13 954.869,993.087 954.869,961.68 C954.869,945.665 951.557,932.383 945.213,921.962 C939.322,912.446 929.65,906.555 920.15,906.555 M919.088,913.055 C924.072,913.055 928.9,916.383 932.525,922.415 C936.603,929.508 937.963,938.118 937.963,958.805 C937.963,980.102 936.9,990.071 933.885,996.712 C930.416,1004.1 924.978,1008.63 919.244,1008.63 C914.103,1008.63 909.416,1005.32 905.807,999.274 C901.572,992.18 900.369,982.821 900.369,958.055 C900.369,940.383 901.416,931.633 904.447,924.993 C907.916,917.43 913.353,913.055 919.088,913.055"/>
<path class="StaffText" d="M1077.88,956.87 C1072.74,963.073 1058.85,967.745 1044.95,968.058 L1044.95,974.542 L1058.25,974.542 C1067,974.698 1067.91,975.605 1067.61,984.058 L1067.61,1044.6 C1067.61,1052.31 1067.61,1052.62 1066.7,1053.96 C1065.49,1055.48 1062.63,1056.09 1054.17,1056.09 L1044.35,1056.09 L1044.35,1063.18 L1104.14,1063.18 L1104.14,1056.09 L1095.85,1056.09 C1087.39,1056.09 1084.52,1055.48 1083.31,1053.96 C1082.25,1052.62 1082.25,1052.46 1082.25,1044.6 L1082.25,982.245 C1082.25,973.792 1082.55,966.698 1083.31,956.87 L1077.88,956.87 "/>
<path class="StaffText" d="M1275.81,1007.19 C1254.67,1007.19 1239.27,1030.14 1239.27,1061.86 C1239.27,1092.97 1254.22,1115.76 1274.59,1115.76 C1295.73,1115.76 1310.53,1093.72 1310.53,1062.31 C1310.53,1046.29 1307.22,1033.01 1300.88,1022.59 C1294.98,1013.08 1285.31,1007.19 1275.81,1007.19 M1274.75,1013.69 C1279.73,1013.69 1284.56,1017.01 1288.19,1023.04 C1292.27,1030.14 1293.63,1038.75 1293.63,1059.44 C1293.63,1080.73 1292.56,1090.7 1289.55,1097.34 C1286.08,1104.73 1280.64,1109.26 1274.91,1109.26 C1269.77,1109.26 1265.08,1105.95 1261.47,1099.9 C1257.23,1092.81 1256.03,1083.45 1256.03,1058.69 C1256.03,1041.01 1257.08,1032.26 1260.11,1025.62 C1263.58,1018.06 1269.02,1013.69 1274.75,1013.69"/>
<path class="StaffText" d="M1504.84,1106.05 L1498.2,1106.05 L1496.69,1113.73 C1494.73,1123.56 1493.53,1124.47 1484.16,1124.47 L1450.34,1124.47 C1460.75,1113.59 1464.23,1110.42 1473.89,1102.87 C1487.64,1092.3 1493.53,1087.01 1497,1082.48 C1501.83,1075.84 1504.25,1069.2 1504.25,1061.8 C1504.25,1044.58 1490.05,1032.34 1470.26,1032.34 C1451.09,1032.34 1436.45,1044.58 1436.45,1060.73 C1436.45,1070.25 1441.28,1076.75 1448.37,1076.75 C1453.97,1076.75 1457.73,1072.97 1457.73,1067.53 C1457.73,1063.76 1455.62,1060.28 1452.45,1058.92 C1446.86,1056.66 1446.56,1056.36 1446.56,1054.39 C1446.56,1052.12 1448.08,1048.66 1450.19,1046.09 C1453.97,1041.41 1460.16,1038.84 1467.25,1038.84 C1479.78,1038.84 1487.19,1046.55 1487.19,1059.23 C1487.19,1070.41 1481.89,1080.51 1469.36,1093.81 C1458.19,1105.59 1451.25,1112.98 1448.67,1115.86 C1443.23,1122.2 1440.51,1125.67 1433.87,1134.42 L1433.87,1138.66 L1501.98,1138.66 L1504.84,1106.05 "/>
<path class="StaffText" d="M2092.83,1103.19 C2071.69,1103.19 2056.28,1126.15 2056.28,1157.87 C2056.28,1188.98 2071.23,1211.77 2091.61,1211.77 C2112.75,1211.77 2127.55,1189.73 2127.55,1158.32 C2127.55,1142.3 2124.23,1129.02 2117.89,1118.6 C2112,1109.08 2102.33,1103.19 2092.83,1103.19 M2091.76,1109.69 C2096.75,1109.69 2101.58,1113.02 2105.2,1119.05 C2109.28,1126.15 2110.64,1134.76 2110.64,1155.44 C2110.64,1176.74 2109.58,1186.71 2106.56,1193.35 C2103.09,1200.74 2097.66,1205.27 2091.92,1205.27 C2086.78,1205.27 2082.09,1201.96 2078.48,1195.91 C2074.25,1188.82 2073.05,1179.46 2073.05,1154.69 C2073.05,1137.02 2074.09,1128.27 2077.12,1121.63 C2080.59,1114.07 2086.03,1109.69 2091.76,1109.69"/>
<path class="StaffText" d="M2253.82,1097.71 C2232.68,1097.71 2217.27,1120.66 2217.27,1152.38 C2217.27,1183.49 2232.23,1206.29 2252.6,1206.29 C2273.74,1206.29 2288.54,1184.24 2288.54,1152.84 C2288.54,1136.82 2285.23,1123.54 2278.88,1113.12 C2272.99,1103.6 2263.32,1097.71 2253.82,1097.71 M2252.76,1104.21 C2257.74,1104.21 2262.57,1107.54 2266.19,1113.57 C2270.27,1120.66 2271.63,1129.27 2271.63,1149.96 C2271.63,1171.26 2270.57,1181.23 2267.55,1187.87 C2264.09,1195.26 2258.65,1199.79 2252.91,1199.79 C2247.77,1199.79 2243.09,1196.48 2239.48,1190.43 C2235.24,1183.34 2234.04,1173.98 2234.04,1149.21 C2234.04,1131.54 2235.09,1122.79 2238.12,1116.15 C2241.59,1108.59 2247.02,1104.21 2252.76,1104.21"/>
<path class="StaffText" d="M2411.55,1082.66 C2406.41,1088.86 2392.51,1093.53 2378.62,1093.85 L2378.62,1100.33 L2391.92,1100.33 C2400.67,1100.49 2401.58,1101.39 2401.28,1109.85 L2401.28,1170.39 C2401.28,1178.1 2401.28,1178.41 2400.37,1179.75 C2399.16,1181.27 2396.3,1181.88 2387.84,1181.88 L2378.01,1181.88 L2378.01,1188.97 L2437.81,1188.97 L2437.81,1181.88 L2429.51,1181.88 C2421.06,1181.88 2418.19,1181.27 2416.98,1179.75 C2415.92,1178.41 2415.92,1178.25 2415.92,1170.39 L2415.92,1108.03 C2415.92,1099.58 2416.22,1092.49 2416.98,1082.66 L2411.55,1082.66 M2523.12,1156.36 L2516.48,1156.36 L2514.97,1164.05 C2513.01,1173.88 2511.81,1174.78 2502.44,1174.78 L2468.62,1174.78 C2479.03,1163.91 2482.51,1160.74 2492.17,1153.19 C2505.92,1142.61 2511.81,1137.33 2515.28,1132.8 C2520.11,1126.16 2522.53,1119.52 2522.53,1112.11 C2522.53,1094.89 2508.33,1082.66 2488.55,1082.66 C2469.37,1082.66 2454.73,1094.89 2454.73,1111.05 C2454.73,1120.56 2459.56,1127.06 2466.66,1127.06 C2472.25,1127.06 2476.01,1123.28 2476.01,1117.85 C2476.01,1114.08 2473.91,1110.6 2470.73,1109.24 C2465.14,1106.97 2464.84,1106.67 2464.84,1104.7 C2464.84,1102.44 2466.36,1098.97 2468.47,1096.41 C2472.25,1091.72 2478.44,1089.16 2485.53,1089.16 C2498.06,1089.16 2505.47,1096.86 2505.47,1109.55 C2505.47,1120.72 2500.17,1130.83 2487.64,1144.13 C2476.47,1155.91 2469.53,1163.3 2466.95,1166.17 C2461.51,1172.52 2458.8,1175.99 2452.16,1184.74 L2452.16,1188.97 L2520.26,1188.97 L2523.12,1156.36 "/>
<path class="StaffText" d="M2652.92,1007.19 C2631.78,1007.19 2616.37,1030.14 2616.37,1061.86 C2616.37,1092.97 2631.33,1115.76 2651.7,1115.76 C2672.84,1115.76 2687.64,1093.72 2687.64,1062.31 C2687.64,1046.29 2684.33,1033.01 2677.98,1022.59 C2672.09,1013.08 2662.42,1007.19 2652.92,1007.19 M2651.86,1013.69 C2656.84,1013.69 2661.67,1017.01 2665.29,1023.04 C2669.37,1030.14 2670.73,1038.75 2670.73,1059.44 C2670.73,1080.73 2669.67,1090.7 2666.65,1097.34 C2663.18,1104.73 2657.75,1109.26 2652.01,1109.26 C2646.87,1109.26 2642.18,1105.95 2638.58,1099.9 C2634.34,1092.81 2633.14,1083.45 2633.14,1058.69 C2633.14,1041.01 2634.18,1032.26 2637.22,1025.62 C2640.68,1018.06 2646.12,1013.69 2651.86,1013.69"/>
<path class="StaffText" d="M2891.03,1109.1 C2869.89,1109.1 2854.48,1132.05 2854.48,1163.77 C2854.48,1194.88 2869.43,1217.68 2889.81,1217.68 C2910.95,1217.68 2925.75,1195.63 2925.75,1164.23 C2925.75,1148.21 2922.43,1134.93 2916.09,1124.51 C2910.2,1114.99 2900.53,1109.1 2891.03,1109.1 M2889.96,1115.6 C2894.95,1115.6 2899.78,1118.93 2903.4,1124.96 C2907.48,1132.05 2908.84,1140.66 2908.84,1161.35 C2908.84,1182.65 2907.78,1192.62 2904.76,1199.26 C2901.29,1206.65 2895.85,1211.18 2890.12,1211.18 C2884.98,1211.18 2880.29,1207.87 2876.68,1201.82 C2872.45,1194.73 2871.25,1185.37 2871.25,1160.6 C2871.25,1142.93 2872.29,1134.18 2875.32,1127.54 C2878.79,1119.98 2884.23,1115.6 2889.96,1115.6"/>
<path class="StaffText" d="M3129.13,1103.19 C3107.99,1103.19 3092.59,1126.15 3092.59,1157.87 C3092.59,1188.98 3107.54,1211.77 3127.91,1211.77 C3149.06,1211.77 3163.85,1189.73 3163.85,1158.32 C3163.85,1142.3 3160.54,1129.02 3154.2,1118.6 C3148.31,1109.08 3138.63,1103.19 3129.13,1103.19 M3128.07,1109.69 C3133.06,1109.69 3137.88,1113.02 3141.51,1119.05 C3145.59,1126.15 3146.95,1134.76 3146.95,1155.44 C3146.95,1176.74 3145.88,1186.71 3142.87,1193.35 C3139.4,1200.74 3133.96,1205.27 3128.23,1205.27 C3123.09,1205.27 3118.4,1201.96 3114.79,1195.91 C3110.56,1188.82 3109.35,1179.46 3109.35,1154.69 C3109.35,1137.02 3110.4,1128.27 3113.43,1121.63 C3116.9,1114.07 3122.34,1109.69 3128.07,1109.69"/>
<path class="StaffText" d="M3290.13,1097.71 C3268.99,1097.71 3253.58,1120.66 3253.58,1152.38 C3253.58,1183.49 3268.53,1206.29 3288.91,1206.29 C3310.05,1206.29 3324.84,1184.24 3324.84,1152.84 C3324.84,1136.82 3321.53,1123.54 3315.19,1113.12 C3309.3,1103.6 3299.63,1097.71 3290.13,1097.71 M3289.06,1104.21 C3294.05,1104.21 3298.88,1107.54 3302.5,1113.57 C3306.58,1120.66 3307.94,1129.27 3307.94,1149.96 C3307.94,1171.26 3306.88,1181.23 3303.86,1187.87 C3300.39,1195.26 3294.95,1199.79 3289.22,1199.79 C3284.08,1199.79 3279.39,1196.48 3275.78,1190.43 C3271.55,1183.34 3270.34,1173.98 3270.34,1149.21 C3270.34,1131.54 3271.39,1122.79 3274.42,1116.15 C3277.89,1108.59 3283.33,1104.21 3289.06,1104.21"/>
<path class="StaffText" d="M3447.85,1082.66 C3442.71,1088.86 3428.82,1093.53 3414.93,1093.85 L3414.93,1100.33 L3428.23,1100.33 C3436.98,1100.49 3437.88,1101.39 3437.59,1109.85 L3437.59,1170.39 C3437.59,1178.1 3437.59,1178.41 3436.68,1179.75 C3435.46,1181.27 3432.6,1181.88 3424.15,1181.88 L3414.32,1181.88 L3414.32,1188.97 L3474.12,1188.97 L3474.12,1181.88 L3465.82,1181.88 C3457.37,1181.88 3454.49,1181.27 3453.29,1179.75 C3452.23,1178.41 3452.23,1178.25 3452.23,1170.39 L3452.23,1108.03 C3452.23,1099.58 3452.52,1092.49 3453.29,1082.66 L3447.85,1082.66 M3559.43,1156.36 L3552.79,1156.36 L3551.27,1164.05 C3549.32,1173.88 3548.12,1174.78 3538.74,1174.78 L3504.93,1174.78 C3515.34,1163.91 3518.82,1160.74 3528.48,1153.19 C3542.23,1142.61 3548.12,1137.33 3551.59,1132.8 C3556.41,1126.16 3558.84,1119.52 3558.84,1112.11 C3558.84,1094.89 3544.63,1082.66 3524.85,1082.66 C3505.68,1082.66 3491.04,1094.89 3491.04,1111.05 C3491.04,1120.56 3495.87,1127.06 3502.96,1127.06 C3508.56,1127.06 3512.32,1123.28 3512.32,1117.85 C3512.32,1114.08 3510.21,1110.6 3507.04,1109.24 C3501.45,1106.97 3501.15,1106.67 3501.15,1104.7 C3501.15,1102.44 3502.66,1098.97 3504.77,1096.41 C3508.56,1091.72 3514.74,1089.16 3521.84,1089.16 C3534.37,1089.16 3541.77,1096.86 3541.77,1109.55 C3541.77,1120.72 3536.48,1130.83 3523.95,1144.13 C3512.77,1155.91 3505.84,1163.3 3503.26,1166.17 C3497.82,1172.52 3495.1,1175.99 3488.46,1184.74 L3488.46,1188.97 L3556.57,1188.97 L3559.43,1156.36 "/>
<path class="StaffText" d="M3689.23,1007.19 C3668.08,1007.19 3652.68,1030.14 3652.68,1061.86 C3652.68,1092.97 3667.63,1115.76 3688.01,1115.76 C3709.15,1115.76 3723.94,1093.72 3723.94,1062.31 C3723.94,1046.29 3720.63,1033.01 3714.29,1022.59 C3708.4,1013.08 3698.73,1007.19 3689.23,1007.19 M3688.16,1013.69 C3693.15,1013.69 3697.98,1017.01 3701.6,1023.04 C3705.68,1030.14 3707.04,1038.75 3707.04,1059.44 C3707.04,1080.73 3705.98,1090.7 3702.96,1097.34 C3699.49,1104.73 3694.05,1109.26 3688.32,1109.26 C3683.18,1109.26 3678.49,1105.95 3674.88,1099.9 C3670.65,1092.81 3669.44,1083.45 3669.44,1058.69 C3669.44,1041.01 3670.49,1032.26 3673.52,1025.62 C3676.99,1018.06 3682.43,1013.69 3688.16,1013.69"/>
<path class="StaffText" d="M3927.33,1109.1 C3906.19,1109.1 3890.79,1132.05 3890.79,1163.77 C3890.79,1194.88 3905.74,1217.68 3926.11,1217.68 C3947.25,1217.68 3962.05,1195.63 3962.05,1164.23 C3962.05,1148.21 3958.74,1134.93 3952.4,1124.51 C3946.5,1114.99 3936.83,1109.1 3927.33,1109.1 M3926.27,1115.6 C3931.25,1115.6 3936.08,1118.93 3939.71,1124.96 C3943.79,1132.05 3945.15,1140.66 3945.15,1161.35 C3945.15,1182.65 3944.08,1192.62 3941.07,1199.26 C3937.6,1206.65 3932.16,1211.18 3926.43,1211.18 C3921.29,1211.18 3916.6,1207.87 3912.99,1201.82 C3908.75,1194.73 3907.55,1185.37 3907.55,1160.6 C3907.55,1142.93 3908.6,1134.18 3911.63,1127.54 C3915.1,1119.98 3920.54,1115.6 3926.27,1115.6"/>
<path class="StaffText" d="M488.099,1628.44 C482.958,1634.64 469.067,1639.31 455.177,1639.62 L455.177,1646.11 L468.474,1646.11 C477.224,1646.26 478.13,1647.17 477.833,1655.62 L477.833,1716.17 C477.833,1723.87 477.833,1724.19 476.927,1725.53 C475.708,1727.05 472.849,1727.65 464.395,1727.65 L454.567,1727.65 L454.567,1734.75 L514.364,1734.75 L514.364,1727.65 L506.067,1727.65 C497.614,1727.65 494.739,1727.05 493.536,1725.53 C492.474,1724.19 492.474,1724.03 492.474,1716.17 L492.474,1653.81 C492.474,1645.36 492.77,1638.26 493.536,1628.44 L488.099,1628.44 "/>
<path class="StaffText" d="M676.032,1653.59 C654.892,1653.59 639.485,1676.55 639.485,1708.27 C639.485,1739.37 654.438,1762.17 674.813,1762.17 C695.954,1762.17 710.751,1740.12 710.751,1708.72 C710.751,1692.7 707.438,1679.42 701.095,1669 C695.204,1659.48 685.532,1653.59 676.032,1653.59 M674.97,1660.09 C679.954,1660.09 684.782,1663.42 688.407,1669.45 C692.485,1676.55 693.845,1685.16 693.845,1705.84 C693.845,1727.14 692.782,1737.11 689.767,1743.75 C686.298,1751.14 680.86,1755.67 675.126,1755.67 C669.985,1755.67 665.298,1752.36 661.688,1746.31 C657.454,1739.22 656.251,1729.86 656.251,1705.09 C656.251,1687.42 657.298,1678.67 660.329,1672.03 C663.798,1664.47 669.235,1660.09 674.97,1660.09"/>
<path class="StaffText" d="M1156.17,1754.22 C1135.03,1754.22 1119.62,1777.18 1119.62,1808.9 C1119.62,1840 1134.58,1862.8 1154.95,1862.8 C1176.09,1862.8 1190.89,1840.75 1190.89,1809.35 C1190.89,1793.33 1187.58,1780.05 1181.23,1769.63 C1175.34,1760.11 1165.67,1754.22 1156.17,1754.22 M1155.11,1760.72 C1160.09,1760.72 1164.92,1764.05 1168.54,1770.08 C1172.62,1777.18 1173.98,1785.79 1173.98,1806.47 C1173.98,1827.77 1172.92,1837.74 1169.9,1844.38 C1166.43,1851.77 1161,1856.3 1155.26,1856.3 C1150.12,1856.3 1145.43,1852.99 1141.83,1846.94 C1137.59,1839.85 1136.39,1830.49 1136.39,1805.72 C1136.39,1788.05 1137.43,1779.3 1140.47,1772.66 C1143.93,1765.1 1149.37,1760.72 1155.11,1760.72"/>
<path class="StaffText" d="M1337.57,1703.91 C1332.43,1710.11 1318.54,1714.78 1304.65,1715.1 L1304.65,1721.58 L1317.95,1721.58 C1326.7,1721.74 1327.6,1722.64 1327.31,1731.1 L1327.31,1791.64 C1327.31,1799.35 1327.31,1799.66 1326.4,1801 C1325.18,1802.52 1322.32,1803.13 1313.87,1803.13 L1304.04,1803.13 L1304.04,1810.22 L1363.84,1810.22 L1363.84,1803.13 L1355.54,1803.13 C1347.09,1803.13 1344.21,1802.52 1343.01,1801 C1341.95,1799.66 1341.95,1799.5 1341.95,1791.64 L1341.95,1729.28 C1341.95,1720.83 1342.24,1713.74 1343.01,1703.91 L1337.57,1703.91 "/>
<path class="StaffText" d="M1525.5,1880.01 C1504.36,1880.01 1488.96,1902.96 1488.96,1934.68 C1488.96,1965.79 1503.91,1988.59 1524.29,1988.59 C1545.43,1988.59 1560.22,1966.54 1560.22,1935.14 C1560.22,1919.12 1556.91,1905.84 1550.57,1895.42 C1544.68,1885.9 1535,1880.01 1525.5,1880.01 M1524.44,1886.51 C1529.43,1886.51 1534.25,1889.84 1537.88,1895.87 C1541.96,1902.96 1543.32,1911.57 1543.32,1932.26 C1543.32,1953.56 1542.25,1963.53 1539.24,1970.17 C1535.77,1977.56 1530.33,1982.09 1524.6,1982.09 C1519.46,1982.09 1514.77,1978.78 1511.16,1972.73 C1506.93,1965.64 1505.72,1956.28 1505.72,1931.51 C1505.72,1913.84 1506.77,1905.09 1509.8,1898.45 C1513.27,1890.89 1518.71,1886.51 1524.44,1886.51"/>
<path class="StaffText" d="M1706.91,1829.7 C1701.77,1835.9 1687.88,1840.57 1673.99,1840.88 L1673.99,1847.37 L1687.28,1847.37 C1696.03,1847.52 1696.94,1848.43 1696.64,1856.88 L1696.64,1917.43 C1696.64,1925.13 1696.64,1925.45 1695.74,1926.79 C1694.52,1928.31 1691.66,1928.91 1683.2,1928.91 L1673.38,1928.91 L1673.38,1936.01 L1733.17,1936.01 L1733.17,1928.91 L1724.88,1928.91 C1716.42,1928.91 1713.55,1928.31 1712.34,1926.79 C1711.28,1925.45 1711.28,1925.29 1711.28,1917.43 L1711.28,1855.07 C1711.28,1846.62 1711.58,1839.52 1712.34,1829.7 L1706.91,1829.7 M1818.49,1903.4 L1811.84,1903.4 L1810.33,1911.09 C1808.38,1920.91 1807.17,1921.82 1797.8,1921.82 L1763.99,1921.82 C1774.39,1910.95 1777.88,1907.77 1787.53,1900.23 C1801.28,1889.65 1807.17,1884.37 1810.64,1879.84 C1815.47,1873.2 1817.89,1866.56 1817.89,1859.15 C1817.89,1841.93 1803.69,1829.7 1783.91,1829.7 C1764.74,1829.7 1750.09,1841.93 1750.09,1858.09 C1750.09,1867.6 1754.92,1874.1 1762.02,1874.1 C1767.61,1874.1 1771.38,1870.32 1771.38,1864.88 C1771.38,1861.12 1769.27,1857.63 1766.09,1856.27 C1760.5,1854.01 1760.2,1853.71 1760.2,1851.74 C1760.2,1849.48 1761.72,1846.01 1763.83,1843.45 C1767.61,1838.76 1773.8,1836.2 1780.89,1836.2 C1793.42,1836.2 1800.83,1843.9 1800.83,1856.59 C1800.83,1867.76 1795.53,1877.87 1783,1891.16 C1771.83,1902.95 1764.89,1910.34 1762.31,1913.21 C1756.88,1919.56 1754.16,1923.02 1747.52,1931.77 L1747.52,1936.01 L1815.63,1936.01 L1818.49,1903.4 "/>
<path class="StaffText" d="M2089.2,1853.08 L2082.56,1853.08 L2081.05,1860.77 C2079.09,1870.6 2077.89,1871.51 2068.51,1871.51 L2034.7,1871.51 C2045.11,1860.63 2048.59,1857.46 2058.25,1849.91 C2072,1839.33 2077.89,1834.05 2081.36,1829.52 C2086.19,1822.88 2088.61,1816.24 2088.61,1808.83 C2088.61,1791.62 2074.4,1779.38 2054.62,1779.38 C2035.45,1779.38 2020.81,1791.62 2020.81,1807.77 C2020.81,1817.29 2025.64,1823.79 2032.73,1823.79 C2038.33,1823.79 2042.09,1820.01 2042.09,1814.57 C2042.09,1810.8 2039.98,1807.32 2036.81,1805.96 C2031.22,1803.69 2030.92,1803.4 2030.92,1801.43 C2030.92,1799.16 2032.44,1795.69 2034.55,1793.13 C2038.33,1788.44 2044.51,1785.88 2051.61,1785.88 C2064.14,1785.88 2071.55,1793.58 2071.55,1806.27 C2071.55,1817.44 2066.25,1827.55 2053.72,1840.85 C2042.55,1852.63 2035.61,1860.02 2033.03,1862.9 C2027.59,1869.24 2024.87,1872.71 2018.23,1881.46 L2018.23,1885.69 L2086.34,1885.69 L2089.2,1853.08 "/>
<path class="StaffText" d="M2215.83,1754.22 C2194.69,1754.22 2179.29,1777.18 2179.29,1808.9 C2179.29,1840 2194.24,1862.8 2214.62,1862.8 C2235.76,1862.8 2250.55,1840.75 2250.55,1809.35 C2250.55,1793.33 2247.24,1780.05 2240.9,1769.63 C2235.01,1760.11 2225.33,1754.22 2215.83,1754.22 M2214.77,1760.72 C2219.76,1760.72 2224.58,1764.05 2228.21,1770.08 C2232.29,1777.18 2233.65,1785.79 2233.65,1806.47 C2233.65,1827.77 2232.58,1837.74 2229.57,1844.38 C2226.1,1851.77 2220.66,1856.3 2214.93,1856.3 C2209.79,1856.3 2205.1,1852.99 2201.49,1846.94 C2197.26,1839.85 2196.05,1830.49 2196.05,1805.72 C2196.05,1788.05 2197.1,1779.3 2200.13,1772.66 C2203.6,1765.1 2209.04,1760.72 2214.77,1760.72"/>
<path class="StaffText" d="M2643.02,1853.08 L2636.38,1853.08 L2634.87,1860.77 C2632.91,1870.6 2631.71,1871.51 2622.34,1871.51 L2588.52,1871.51 C2598.93,1860.63 2602.41,1857.46 2612.07,1849.91 C2625.82,1839.33 2631.71,1834.05 2635.18,1829.52 C2640.01,1822.88 2642.43,1816.24 2642.43,1808.83 C2642.43,1791.62 2628.23,1779.38 2608.44,1779.38 C2589.27,1779.38 2574.63,1791.62 2574.63,1807.77 C2574.63,1817.29 2579.46,1823.79 2586.55,1823.79 C2592.15,1823.79 2595.91,1820.01 2595.91,1814.57 C2595.91,1810.8 2593.8,1807.32 2590.63,1805.96 C2585.04,1803.69 2584.74,1803.4 2584.74,1801.43 C2584.74,1799.16 2586.26,1795.69 2588.37,1793.13 C2592.15,1788.44 2598.34,1785.88 2605.43,1785.88 C2617.96,1785.88 2625.37,1793.58 2625.37,1806.27 C2625.37,1817.44 2620.07,1827.55 2607.54,1840.85 C2596.37,1852.63 2589.43,1860.02 2586.85,1862.9 C2581.41,1869.24 2578.69,1872.71 2572.05,1881.46 L2572.05,1885.69 L2640.16,1885.69 L2643.02,1853.08 "/>
<path class="StaffText" d="M2766.39,1829.7 C2761.25,1835.9 2747.36,1840.57 2733.47,1840.88 L2733.47,1847.37 L2746.77,1847.37 C2755.52,1847.52 2756.42,1848.43 2756.12,1856.88 L2756.12,1917.43 C2756.12,1925.13 2756.12,1925.45 2755.22,1926.79 C2754,1928.31 2751.14,1928.91 2742.69,1928.91 L2732.86,1928.91 L2732.86,1936.01 L2792.66,1936.01 L2792.66,1928.91 L2784.36,1928.91 C2775.91,1928.91 2773.03,1928.31 2771.83,1926.79 C2770.77,1925.45 2770.77,1925.29 2770.77,1917.43 L2770.77,1855.07 C2770.77,1846.62 2771.06,1839.52 2771.83,1829.7 L2766.39,1829.7 M2877.97,1903.4 L2871.33,1903.4 L2869.81,1911.09 C2867.86,1920.91 2866.66,1921.82 2857.28,1921.82 L2823.47,1921.82 C2833.87,1910.95 2837.36,1907.77 2847.02,1900.23 C2860.77,1889.65 2866.66,1884.37 2870.12,1879.84 C2874.95,1873.2 2877.37,1866.56 2877.37,1859.15 C2877.37,1841.93 2863.17,1829.7 2843.39,1829.7 C2824.22,1829.7 2809.58,1841.93 2809.58,1858.09 C2809.58,1867.6 2814.41,1874.1 2821.5,1874.1 C2827.09,1874.1 2830.86,1870.32 2830.86,1864.88 C2830.86,1861.12 2828.75,1857.63 2825.58,1856.27 C2819.98,1854.01 2819.69,1853.71 2819.69,1851.74 C2819.69,1849.48 2821.2,1846.01 2823.31,1843.45 C2827.09,1838.76 2833.28,1836.2 2840.37,1836.2 C2852.91,1836.2 2860.31,1843.9 2860.31,1856.59 C2860.31,1867.76 2855.02,1877.87 2842.48,1891.16 C2831.31,1902.95 2824.37,1910.34 2821.8,1913.21 C2816.36,1919.56 2813.64,1923.02 2807,1931.77 L2807,1936.01 L2875.11,1936.01 L2877.97,1903.4 "/>
<path class="StaffText" d="M3437.27,1853.08 L3430.63,1853.08 L3429.11,1860.77 C3427.16,1870.6 3425.95,1871.51 3416.58,1871.51 L3382.77,1871.51 C3393.17,1860.63 3396.66,1857.46 3406.31,1849.91 C3420.06,1839.33 3425.95,1834.05 3429.42,1829.52 C3434.25,1822.88 3436.67,1816.24 3436.67,1808.83 C3436.67,1791.62 3422.47,1779.38 3402.69,1779.38 C3383.52,1779.38 3368.88,1791.62 3368.88,1807.77 C3368.88,1817.29 3373.7,1823.79 3380.8,1823.79 C3386.39,1823.79 3390.16,1820.01 3390.16,1814.57 C3390.16,1810.8 3388.05,1807.32 3384.88,1805.96 C3379.28,1803.69 3378.99,1803.4 3378.99,1801.43 C3378.99,1799.16 3380.5,1795.69 3382.61,1793.13 C3386.39,1788.44 3392.58,1785.88 3399.67,1785.88 C3412.2,1785.88 3419.61,1793.58 3419.61,1806.27 C3419.61,1817.44 3414.31,1827.55 3401.78,1840.85 C3390.61,1852.63 3383.67,1860.02 3381.09,1862.9 C3375.66,1869.24 3372.94,1872.71 3366.3,1881.46 L3366.3,1885.69 L3434.41,1885.69 L3437.27,1853.08 "/>
<path class="StaffText" d="M3563.9,1754.22 C3542.76,1754.22 3527.35,1777.18 3527.35,1808.9 C3527.35,1840 3542.31,1862.8 3562.68,1862.8 C3583.82,1862.8 3598.62,1840.75 3598.62,1809.35 C3598.62,1793.33 3595.31,1780.05 3588.96,1769.63 C3583.07,1760.11 3573.4,1754.22 3563.9,1754.22 M3562.84,1760.72 C3567.82,1760.72 3572.65,1764.05 3576.27,1770.08 C3580.35,1777.18 3581.71,1785.79 3581.71,1806.47 C3581.71,1827.77 3580.65,1837.74 3577.63,1844.38 C3574.16,1851.77 3568.73,1856.3 3562.99,1856.3 C3557.85,1856.3 3553.16,1852.99 3549.56,1846.94 C3545.32,1839.85 3544.12,1830.49 3544.12,1805.72 C3544.12,1788.05 3545.16,1779.3 3548.2,1772.66 C3551.66,1765.1 3557.1,1760.72 3562.84,1760.72"/>
<path class="VoltaSegment" d="M1926.11,2009.3 L1922.23,2009.3 C1915.23,2014.52 1907.36,2016.74 1894.16,2016.96 L1894.16,2023.18 L1898.81,2023.18 C1908.69,2023.18 1908.8,2023.39 1908.69,2032.49 L1908.69,2071.89 C1908.69,2078.79 1908.69,2079.11 1907.91,2080.22 C1906.91,2081.44 1904.69,2081.88 1898.7,2081.88 L1895.16,2081.88 L1895.16,2087.88 L1939.44,2087.88 L1939.44,2081.88 L1935.89,2081.88 C1930,2081.88 1927.89,2081.44 1926.89,2080.22 C1926.11,2079.11 1926.11,2078.66 1926.11,2071.89 L1926.11,2009.3 M1964.06,2068.68 C1958.3,2068.68 1953.64,2073.33 1953.64,2079.11 C1953.64,2084.77 1958.3,2089.55 1963.95,2089.55 C1969.84,2089.55 1974.5,2084.88 1974.5,2079.11 C1974.5,2073.33 1969.84,2068.68 1964.06,2068.68"/>
<polyline class="VoltaSegment" fill="none" stroke="#000000" stroke-width="5.53" stroke-linecap="square" stroke-linejoin="bevel" points="1863.75,2087.88 1863.75,1977.19"/>
<polyline class="VoltaSegment" fill="none" stroke="#000000" stroke-width="5.53" stroke-linecap="square" stroke-linejoin="bevel" points="1863.75,1977.19 3183.01,1977.19"/>
<polyline class="VoltaSegment" fill="none" stroke="#000000" stroke-width="5.53" stroke-linecap="square" stroke-linejoin="bevel" points="3183.01,1977.19 3183.01,2087.88"/>
<path class="VoltaSegment" d="M3292.94,2058.35 L3291.72,2063.91 C3290.72,2068.35 3290.07,2069.79 3289.17,2070.35 C3288.07,2071.11 3287.85,2071.11 3280.85,2071.22 L3259.42,2071.22 C3263.32,2067.89 3266.19,2065.79 3270.52,2062.91 C3286.17,2052.8 3289.39,2050.36 3292.61,2046.25 C3296.39,2041.27 3298.61,2035.38 3298.61,2030.16 C3298.61,2018.29 3286.96,2009.3 3271.3,2009.3 C3256.21,2009.3 3244.55,2019.07 3244.55,2031.72 C3244.55,2039.49 3248.88,2044.49 3255.53,2044.49 C3261.32,2044.49 3264.97,2040.82 3264.97,2035.05 C3264.97,2030.27 3262.86,2027.5 3257.77,2025.05 C3256.53,2024.5 3255.99,2023.83 3255.99,2022.94 C3255.99,2019.39 3261.97,2015.63 3267.53,2015.63 C3275.3,2015.63 3279.74,2020.39 3279.74,2028.61 C3279.74,2037.82 3276.19,2044.36 3264.42,2056.91 C3251.99,2070.11 3247.66,2075.11 3242.11,2083.11 L3242.11,2088.32 C3245,2087.99 3246.22,2087.88 3247.88,2087.88 L3289.61,2087.88 C3291.72,2087.88 3293.05,2087.99 3296.39,2088.32 L3298.94,2058.35 L3292.94,2058.35 M3319.13,2068.68 C3313.36,2068.68 3308.71,2073.33 3308.71,2079.11 C3308.71,2084.77 3313.36,2089.55 3319.02,2089.55 C3324.91,2089.55 3329.57,2084.88 3329.57,2079.11 C3329.57,2073.33 3324.91,2068.68 3319.13,2068.68"/>
<polyline class="VoltaSegment" fill="none" stroke="#000000" stroke-width="5.53" stroke-linecap="square" stroke-linejoin="bevel" points="3211.81,2087.88 3211.81,1977.19"/>
<polyline class="VoltaSegment" fill="none" stroke="#000000" stroke-width="5.53" stroke-linecap="square" stroke-linejoin="bevel" points="3211.81,1977.19 4088.55,1977.19"/>
<polyline class="VoltaSegment" fill="none" stroke="#000000" stroke-width="5.53" stroke-linecap="square" stroke-linejoin="bevel" points="4088.55,1977.19 4088.55,2087.88"/>
<path class="NoteDot" transform="matrix(2.0126,0,0,2.0126,1981.3,479.756)" d="M0,0 C0,2.76563 2.23438,5 5,5 C7.76563,5 10,2.76563 10,0 C10,-2.76563 7.76563,-5 5,-5 C2.23438,-5 0,-2.76563 0,0"/>
<path class="NoteDot" transform="matrix(2.0126,0,0,2.0126,736.437,1314.76)" d="M0,0 C0,2.76563 2.23438,5 5,5 C7.76563,5 10,2.76563 10,0 C10,-2.76563 7.76563,-5 5,-5 C2.23438,-5 0,-2.76563 0,0"/>
</svg>
