<?xml version="1.0" encoding="UTF-8" standalone="no"?>
<svg width="4208.47px" height="2409.45px" viewBox="0 0 4208.47 2409.45"
 xmlns="http://www.w3.org/2000/svg" xmlns:xlink="http://www.w3.org/1999/xlink" version="1.2" baseProfile="tiny">
<title>SAX ALTO (2)</title>
<desc>Generated by MuseScore 3.6.2</desc>
<polyline class="StaffLines" fill="none" stroke="#000000" stroke-width="3.85" stroke-linejoin="bevel" points="70.866,315.866 4137.61,315.866"/>
<polyline class="StaffLines" fill="none" stroke="#000000" stroke-width="3.85" stroke-linejoin="bevel" points="70.866,350.865 4137.61,350.865"/>
<polyline class="StaffLines" fill="none" stroke="#000000" stroke-width="3.85" stroke-linejoin="bevel" points="70.866,385.865 4137.61,385.865"/>
<polyline class="StaffLines" fill="none" stroke="#000000" stroke-width="3.85" stroke-linejoin="bevel" points="70.866,420.865 4137.61,420.865"/>
<polyline class="StaffLines" fill="none" stroke="#000000" stroke-width="3.85" stroke-linejoin="bevel" points="70.866,455.865 4137.61,455.865"/>
<path class="MeasureNumber" d="M90.2566,237.584 L89.2254,239.428 C87.616,242.194 87.3035,242.428 85.2566,242.459 L75.991,242.459 C76.9441,241.194 78.7097,239.709 81.8972,237.459 C87.1785,233.834 87.5379,233.584 88.6629,232.709 C91.866,230.225 93.1785,227.866 93.1785,224.709 C93.1785,220.506 90.0691,217.709 85.4597,217.709 C80.3504,217.709 75.9129,221.475 75.9129,225.834 C75.9129,228.069 77.1004,229.506 79.0222,229.506 C80.4597,229.506 81.5847,228.428 81.5847,226.944 C81.5847,225.913 81.0691,225.225 79.741,224.506 C78.7879,224.022 78.6316,223.834 78.6316,223.35 C78.6316,221.631 81.5847,219.709 84.3035,219.709 C87.1004,219.709 88.991,221.584 88.991,224.397 C88.991,227.381 87.6629,229.584 84.0691,232.709 C73.4285,241.944 71.8191,243.631 71.4597,245.866 L88.616,245.866 L91.7097,238.147 L90.2566,237.584 M110.132,231.069 C111.975,230.194 112.819,229.709 113.538,229.147 C115.257,227.834 116.178,225.991 116.178,223.944 C116.178,220.303 113.1,217.709 108.819,217.709 C103.663,217.709 99.6629,221.428 99.6629,226.272 C99.6629,228.709 100.507,230.272 102.663,231.834 C97.9441,233.631 95.4129,236.553 95.4129,240.194 C95.4129,244.069 98.616,246.459 103.741,246.459 C109.897,246.459 114.303,242.709 114.303,237.506 C114.303,236.022 113.819,234.584 112.944,233.428 C112.335,232.631 111.616,232.022 110.132,231.069 M108.413,230.116 C104.335,228.194 102.866,226.631 102.866,224.35 C102.866,221.584 105.335,219.428 108.491,219.428 C111.257,219.428 113.178,221.194 113.178,223.709 C113.178,225.35 112.413,227.147 111.1,228.428 C110.335,229.194 109.741,229.584 108.413,230.116 M104.178,232.913 C106.1,233.788 106.741,234.1 107.741,234.709 C109.741,235.913 110.819,237.506 110.819,239.303 C110.819,242.381 107.944,244.709 104.178,244.709 C100.772,244.709 98.6629,242.788 98.6629,239.709 C98.6629,236.709 100.585,234.35 104.178,232.913"/>
<path class="TieSegment" stroke="#000000" stroke-width="2.45" stroke-linecap="round" stroke-linejoin="round" fill-rule="evenodd" d="M296.102,254.616 C302.557,235.716 321.922,235.716 328.377,254.616 C321.922,245.516 302.557,245.516 296.102,254.616"/>
<path class="TieSegment" stroke="#000000" stroke-width="2.45" stroke-linecap="round" stroke-linejoin="round" fill-rule="evenodd" d="M2291.46,289.616 C2330.79,254.825 2448.78,254.825 2488.11,289.616 C2448.78,264.625 2330.79,264.625 2291.46,289.616"/>
<path class="TieSegment" stroke="#000000" stroke-width="2.45" stroke-linecap="round" stroke-linejoin="round" fill-rule="evenodd" d="M3094.76,307.116 C3134.09,272.325 3252.08,272.325 3291.41,307.116 C3252.08,282.125 3134.09,282.125 3094.76,307.116"/>
<path class="BarLine" transform="matrix(1.4,0,0,1.4,512.496,368.365)" d="M10.4063,0 C10.4063,-2.90625 8.09375,-5.29688 5.20313,-5.29688 C2.29688,-5.29688 0,-2.90625 0,0 C0,2.90625 2.29688,5.29688 5.20313,5.29688 C8.09375,5.29688 10.4063,2.90625 10.4063,0"/>
<path class="BarLine" transform="matrix(1.4,0,0,1.4,512.496,403.365)" d="M10.4063,0 C10.4063,-2.90625 8.09375,-5.29688 5.20313,-5.29688 C2.29688,-5.29688 0,-2.90625 0,0 C0,2.90625 2.29688,5.29688 5.20313,5.29688 C8.09375,5.29688 10.4063,2.90625 10.4063,0"/>
<polyline class="BarLine" stroke="#000000" stroke-width="6.30" stroke-linejoin="bevel" points="544.275,313.941 544.275,457.79"/>
<polyline class="BarLine" stroke="#000000" stroke-width="19.25" stroke-linejoin="bevel" points="568.775,313.941 568.775,457.79"/>
<polyline class="BarLine" stroke="#000000" stroke-width="6.30" stroke-linejoin="bevel" points="955.925,313.941 955.925,457.79"/>
<polyline class="BarLine" stroke="#000000" stroke-width="19.25" stroke-linejoin="bevel" points="1431.14,313.941 1431.14,457.79"/>
<polyline class="BarLine" stroke="#000000" stroke-width="6.30" stroke-linejoin="bevel" points="1455.64,313.941 1455.64,457.79"/>
<path class="BarLine" transform="matrix(1.4,0,0,1.4,1472.86,368.365)" d="M10.4063,0 C10.4063,-2.90625 8.09375,-5.29688 5.20313,-5.29688 C2.29688,-5.29688 0,-2.90625 0,0 C0,2.90625 2.29688,5.29688 5.20313,5.29688 C8.09375,5.29688 10.4063,2.90625 10.4063,0"/>
<path class="BarLine" transform="matrix(1.4,0,0,1.4,1472.86,403.365)" d="M10.4063,0 C10.4063,-2.90625 8.09375,-5.29688 5.20313,-5.29688 C2.29688,-5.29688 0,-2.90625 0,0 C0,2.90625 2.29688,5.29688 5.20313,5.29688 C8.09375,5.29688 10.4063,2.90625 10.4063,0"/>
<polyline class="BarLine" stroke="#000000" stroke-width="6.30" stroke-linejoin="bevel" points="2001.25,313.941 2001.25,457.79"/>
<polyline class="BarLine" stroke="#000000" stroke-width="6.30" stroke-linejoin="bevel" points="2421.79,313.941 2421.79,457.79"/>
<polyline class="BarLine" stroke="#000000" stroke-width="6.30" stroke-linejoin="bevel" points="2804.54,313.941 2804.54,457.79"/>
<polyline class="BarLine" stroke="#000000" stroke-width="6.30" stroke-linejoin="bevel" points="3225.09,313.941 3225.09,457.79"/>
<polyline class="BarLine" stroke="#000000" stroke-width="6.30" stroke-linejoin="bevel" points="3607.84,313.941 3607.84,457.79"/>
<path class="BarLine" transform="matrix(1.4,0,0,1.4,4073.78,368.365)" d="M10.4063,0 C10.4063,-2.90625 8.09375,-5.29688 5.20313,-5.29688 C2.29688,-5.29688 0,-2.90625 0,0 C0,2.90625 2.29688,5.29688 5.20313,5.29688 C8.09375,5.29688 10.4063,2.90625 10.4063,0"/>
<path class="BarLine" transform="matrix(1.4,0,0,1.4,4073.78,403.365)" d="M10.4063,0 C10.4063,-2.90625 8.09375,-5.29688 5.20313,-5.29688 C2.29688,-5.29688 0,-2.90625 0,0 C0,2.90625 2.29688,5.29688 5.20313,5.29688 C8.09375,5.29688 10.4063,2.90625 10.4063,0"/>
<polyline class="BarLine" stroke="#000000" stroke-width="6.30" stroke-linejoin="bevel" points="4105.56,313.941 4105.56,457.79"/>
<polyline class="BarLine" stroke="#000000" stroke-width="19.25" stroke-linejoin="bevel" points="4130.06,313.941 4130.06,457.79"/>
<polyline class="LedgerLine" stroke="#000000" stroke-width="5.60" stroke-linejoin="bevel" points="297.852,280.866 374.567,280.866"/>
<polyline class="Stem" stroke="#000000" stroke-width="3.85" stroke-linejoin="bevel" points="766.705,338.07 766.705,455.865"/>
<polyline class="Stem" stroke="#000000" stroke-width="3.85" stroke-linejoin="bevel" points="854.961,320.57 854.961,438.365"/>
<polyline class="Stem" stroke="#000000" stroke-width="3.85" stroke-linejoin="bevel" points="1008.25,338.07 1008.25,455.865"/>
<polyline class="Stem" stroke="#000000" stroke-width="3.85" stroke-linejoin="bevel" points="1199.7,346.386 1199.7,245.866"/>
<polyline class="Stem" stroke="#000000" stroke-width="3.85" stroke-linejoin="bevel" points="1294.4,346.386 1294.4,250.241"/>
<polyline class="Stem" stroke="#000000" stroke-width="3.85" stroke-linejoin="bevel" points="1716.6,381.385 1716.6,276.491"/>
<polyline class="Stem" stroke="#000000" stroke-width="3.85" stroke-linejoin="bevel" points="1811.3,346.386 1811.3,250.241"/>
<polyline class="Stem" stroke="#000000" stroke-width="3.85" stroke-linejoin="bevel" points="1884.84,338.07 1884.84,455.865"/>
<polyline class="Stem" stroke="#000000" stroke-width="3.85" stroke-linejoin="bevel" points="2053.57,303.07 2053.57,420.865"/>
<polyline class="Stem" stroke="#000000" stroke-width="3.85" stroke-linejoin="bevel" points="2192.57,320.57 2192.57,438.365"/>
<polyline class="Stem" stroke="#000000" stroke-width="3.85" stroke-linejoin="bevel" points="2263.82,320.57 2263.82,438.365"/>
<polyline class="Stem" stroke="#000000" stroke-width="3.85" stroke-linejoin="bevel" points="2474.11,320.57 2474.11,438.365"/>
<polyline class="Stem" stroke="#000000" stroke-width="3.85" stroke-linejoin="bevel" points="2615.32,320.57 2615.32,438.365"/>
<polyline class="Stem" stroke="#000000" stroke-width="3.85" stroke-linejoin="bevel" points="2703.58,303.07 2703.58,420.865"/>
<polyline class="Stem" stroke="#000000" stroke-width="3.85" stroke-linejoin="bevel" points="2856.87,320.57 2856.87,438.365"/>
<polyline class="Stem" stroke="#000000" stroke-width="3.85" stroke-linejoin="bevel" points="2995.87,338.07 2995.87,455.865"/>
<polyline class="Stem" stroke="#000000" stroke-width="3.85" stroke-linejoin="bevel" points="3067.12,338.07 3067.12,455.865"/>
<polyline class="Stem" stroke="#000000" stroke-width="3.85" stroke-linejoin="bevel" points="3277.41,338.07 3277.41,455.865"/>
<polyline class="Stem" stroke="#000000" stroke-width="3.85" stroke-linejoin="bevel" points="3418.62,338.07 3418.62,455.865"/>
<polyline class="Stem" stroke="#000000" stroke-width="3.85" stroke-linejoin="bevel" points="3506.88,320.57 3506.88,438.365"/>
<polyline class="Stem" stroke="#000000" stroke-width="3.85" stroke-linejoin="bevel" points="3660.17,338.07 3660.17,455.865"/>
<polyline class="Stem" stroke="#000000" stroke-width="3.85" stroke-linejoin="bevel" points="3852.6,346.386 3852.6,245.866"/>
<polyline class="Stem" stroke="#000000" stroke-width="3.85" stroke-linejoin="bevel" points="3947.3,346.386 3947.3,250.241"/>
<path class="Note" transform="matrix(1.4,0,0,1.4,310.102,280.866)" d="M18.7031,-13.5938 C4.90625,-13.5938 0,-6.59375 0,-0.09375 C0,6.40625 4.90625,13.4063 18.7031,13.4063 C32.5,13.4063 37.2969,6.40625 37.2969,-0.09375 C37.2969,-6.59375 32.5,-13.5938 18.7031,-13.5938 M10.4063,-4.5 C10.2969,-4.90625 10.2969,-5.29688 10.2969,-5.70313 C10.2969,-6.5 10.5,-7.29688 10.9063,-8 C11.5938,-9 12.7969,-9.70313 14.2969,-10 C15.5938,-10.2969 16.2969,-10.5 18.9063,-10.5 L19,-10.5 C23,-10.5 24.2969,-6.79688 25.4063,-3 L25.7031,-2 C26.5,0.59375 26.9063,2.79688 26.9063,4.5 C26.9063,5.70313 26.7031,6.79688 26.2969,7.59375 C25.7031,8.70313 24.7031,9.40625 23,9.79688 C22.0938,10 20.5938,10.0938 20.5938,10.0938 C20.0938,10.0938 19.7031,10.2031 19.2969,10.2031 C16.0938,10.2031 14.0938,9 12.7031,4.70313 C11.5,1 11.2969,-0.09375 10.4063,-4.5"/>
<path class="Note" transform="matrix(1.4,0,0,1.4,764.78,333.366)" d="M31.5,-8.09375 C29.7031,-11.4063 25.9063,-13.2031 21.2969,-13.2031 C17.9063,-13.2031 14.2031,-12.2031 10.5938,-10.2969 C4,-6.79688 0,-0.90625 0,4.20313 C0,5.59375 0.296875,7 1,8.29688 C2.79688,11.5938 6.59375,13.2969 11.2031,13.2969 C14.5938,13.2969 18.2969,12.4063 21.9063,10.5 C28.5,7 32.5,1.09375 32.5,-4 C32.5,-5.40625 32.2031,-6.79688 31.5,-8.09375"/>
<path class="Note" transform="matrix(1.4,0,0,1.4,853.036,315.866)" d="M31.5,-8.09375 C29.7031,-11.4063 25.9063,-13.2031 21.2969,-13.2031 C17.9063,-13.2031 14.2031,-12.2031 10.5938,-10.2969 C4,-6.79688 0,-0.90625 0,4.20313 C0,5.59375 0.296875,7 1,8.29688 C2.79688,11.5938 6.59375,13.2969 11.2031,13.2969 C14.5938,13.2969 18.2969,12.4063 21.9063,10.5 C28.5,7 32.5,1.09375 32.5,-4 C32.5,-5.40625 32.2031,-6.79688 31.5,-8.09375"/>
<path class="Note" transform="matrix(1.4,0,0,1.4,1006.33,333.366)" d="M31.5,-8.09375 C29.7031,-11.4063 25.9063,-13.2031 21.2969,-13.2031 C17.9063,-13.2031 14.2031,-12.2031 10.5938,-10.2969 C4,-6.79688 0,-0.90625 0,4.20313 C0,5.59375 0.296875,7 1,8.29688 C2.79688,11.5938 6.59375,13.2969 11.2031,13.2969 C14.5938,13.2969 18.2969,12.4063 21.9063,10.5 C28.5,7 32.5,1.09375 32.5,-4 C32.5,-5.40625 32.2031,-6.79688 31.5,-8.09375"/>
<path class="Note" transform="matrix(1.4,0,0,1.4,1156.14,350.865)" d="M31.5,-8.09375 C29.7031,-11.4063 25.9063,-13.2031 21.2969,-13.2031 C17.9063,-13.2031 14.2031,-12.2031 10.5938,-10.2969 C4,-6.79688 0,-0.90625 0,4.20313 C0,5.59375 0.296875,7 1,8.29688 C2.79688,11.5938 6.59375,13.2969 11.2031,13.2969 C14.5938,13.2969 18.2969,12.4063 21.9063,10.5 C28.5,7 32.5,1.09375 32.5,-4 C32.5,-5.40625 32.2031,-6.79688 31.5,-8.09375"/>
<path class="Note" transform="matrix(1.4,0,0,1.4,1250.83,350.865)" d="M31.5,-8.14063 C29.7031,-11.4375 25.9063,-13.2344 21.2969,-13.2344 C17.9063,-13.2344 14.2031,-12.2344 10.5938,-10.3438 C4,-6.84375 0,-0.9375 0,4.15625 C0,5.5625 0.296875,6.96875 1,8.26563 C2.79688,11.5781 6.59375,13.2813 11.2031,13.2813 C14.5938,13.2813 18.2969,12.375 21.9063,10.4844 C28.5,6.96875 32.5,1.0625 32.5,-4.04688 C32.5,-5.4375 32.2031,-6.84375 31.5,-8.14063 M27.2031,-1.34375 C25.5,0.359375 22.0938,2.45313 18.5,4.46875 C14.9063,6.46875 11.2969,7.96875 8.90625,8.46875 C8.40625,8.57813 7.90625,8.67188 7.40625,8.67188 C5.79688,8.67188 4.59375,8.07813 3.90625,6.76563 C3.59375,6.26563 3.40625,5.67188 3.40625,5.0625 C3.40625,3.96875 4.09375,2.65625 5.20313,1.5625 C6.90625,-0.140625 10.2031,-2.23438 13.7969,-4.23438 C17.4063,-6.23438 21,-7.73438 23.4063,-8.23438 C23.9063,-8.34375 24.4063,-8.4375 24.9063,-8.4375 C26.5,-8.4375 27.7969,-7.84375 28.5,-6.54688 C28.7969,-6.04688 28.9063,-5.4375 28.9063,-4.84375 C28.9063,-3.73438 28.2969,-2.54688 27.2031,-1.34375"/>
<path class="Note" transform="matrix(1.4,0,0,1.4,1673.04,385.865)" d="M31.5,-8.09375 C29.7031,-11.4063 25.9063,-13.2031 21.2969,-13.2031 C17.9063,-13.2031 14.2031,-12.2031 10.5938,-10.2969 C4,-6.79688 0,-0.90625 0,4.20313 C0,5.59375 0.296875,7 1,8.29688 C2.79688,11.5938 6.59375,13.2969 11.2031,13.2969 C14.5938,13.2969 18.2969,12.4063 21.9063,10.5 C28.5,7 32.5,1.09375 32.5,-4 C32.5,-5.40625 32.2031,-6.79688 31.5,-8.09375"/>
<path class="Note" transform="matrix(1.4,0,0,1.4,1767.73,350.865)" d="M31.5,-8.09375 C29.7031,-11.4063 25.9063,-13.2031 21.2969,-13.2031 C17.9063,-13.2031 14.2031,-12.2031 10.5938,-10.2969 C4,-6.79688 0,-0.90625 0,4.20313 C0,5.59375 0.296875,7 1,8.29688 C2.79688,11.5938 6.59375,13.2969 11.2031,13.2969 C14.5938,13.2969 18.2969,12.4063 21.9063,10.5 C28.5,7 32.5,1.09375 32.5,-4 C32.5,-5.40625 32.2031,-6.79688 31.5,-8.09375"/>
<path class="Note" transform="matrix(1.4,0,0,1.4,1882.92,333.366)" d="M31.5,-8.09375 C29.7031,-11.4063 25.9063,-13.2031 21.2969,-13.2031 C17.9063,-13.2031 14.2031,-12.2031 10.5938,-10.2969 C4,-6.79688 0,-0.90625 0,4.20313 C0,5.59375 0.296875,7 1,8.29688 C2.79688,11.5938 6.59375,13.2969 11.2031,13.2969 C14.5938,13.2969 18.2969,12.4063 21.9063,10.5 C28.5,7 32.5,1.09375 32.5,-4 C32.5,-5.40625 32.2031,-6.79688 31.5,-8.09375"/>
<path class="Note" transform="matrix(1.4,0,0,1.4,2051.65,298.366)" d="M31.5,-8.09375 C29.7031,-11.4063 25.9063,-13.2031 21.2969,-13.2031 C17.9063,-13.2031 14.2031,-12.2031 10.5938,-10.2969 C4,-6.79688 0,-0.90625 0,4.20313 C0,5.59375 0.296875,7 1,8.29688 C2.79688,11.5938 6.59375,13.2969 11.2031,13.2969 C14.5938,13.2969 18.2969,12.4063 21.9063,10.5 C28.5,7 32.5,1.09375 32.5,-4 C32.5,-5.40625 32.2031,-6.79688 31.5,-8.09375"/>
<path class="Note" transform="matrix(1.4,0,0,1.4,2190.65,315.866)" d="M31.5,-8.09375 C29.7031,-11.4063 25.9063,-13.2031 21.2969,-13.2031 C17.9063,-13.2031 14.2031,-12.2031 10.5938,-10.2969 C4,-6.79688 0,-0.90625 0,4.20313 C0,5.59375 0.296875,7 1,8.29688 C2.79688,11.5938 6.59375,13.2969 11.2031,13.2969 C14.5938,13.2969 18.2969,12.4063 21.9063,10.5 C28.5,7 32.5,1.09375 32.5,-4 C32.5,-5.40625 32.2031,-6.79688 31.5,-8.09375"/>
<path class="Note" transform="matrix(1.4,0,0,1.4,2261.9,315.866)" d="M31.5,-8.14063 C29.7031,-11.4375 25.9063,-13.2344 21.2969,-13.2344 C17.9063,-13.2344 14.2031,-12.2344 10.5938,-10.3438 C4,-6.84375 0,-0.9375 0,4.15625 C0,5.5625 0.296875,6.96875 1,8.26563 C2.79688,11.5781 6.59375,13.2813 11.2031,13.2813 C14.5938,13.2813 18.2969,12.375 21.9063,10.4844 C28.5,6.96875 32.5,1.0625 32.5,-4.04688 C32.5,-5.4375 32.2031,-6.84375 31.5,-8.14063 M27.2031,-1.34375 C25.5,0.359375 22.0938,2.45313 18.5,4.46875 C14.9063,6.46875 11.2969,7.96875 8.90625,8.46875 C8.40625,8.57813 7.90625,8.67188 7.40625,8.67188 C5.79688,8.67188 4.59375,8.07813 3.90625,6.76563 C3.59375,6.26563 3.40625,5.67188 3.40625,5.0625 C3.40625,3.96875 4.09375,2.65625 5.20313,1.5625 C6.90625,-0.140625 10.2031,-2.23438 13.7969,-4.23438 C17.4063,-6.23438 21,-7.73438 23.4063,-8.23438 C23.9063,-8.34375 24.4063,-8.4375 24.9063,-8.4375 C26.5,-8.4375 27.7969,-7.84375 28.5,-6.54688 C28.7969,-6.04688 28.9063,-5.4375 28.9063,-4.84375 C28.9063,-3.73438 28.2969,-2.54688 27.2031,-1.34375"/>
<path class="Note" transform="matrix(1.4,0,0,1.4,2472.19,315.866)" d="M31.5,-8.14063 C29.7031,-11.4375 25.9063,-13.2344 21.2969,-13.2344 C17.9063,-13.2344 14.2031,-12.2344 10.5938,-10.3438 C4,-6.84375 0,-0.9375 0,4.15625 C0,5.5625 0.296875,6.96875 1,8.26563 C2.79688,11.5781 6.59375,13.2813 11.2031,13.2813 C14.5938,13.2813 18.2969,12.375 21.9063,10.4844 C28.5,6.96875 32.5,1.0625 32.5,-4.04688 C32.5,-5.4375 32.2031,-6.84375 31.5,-8.14063 M27.2031,-1.34375 C25.5,0.359375 22.0938,2.45313 18.5,4.46875 C14.9063,6.46875 11.2969,7.96875 8.90625,8.46875 C8.40625,8.57813 7.90625,8.67188 7.40625,8.67188 C5.79688,8.67188 4.59375,8.07813 3.90625,6.76563 C3.59375,6.26563 3.40625,5.67188 3.40625,5.0625 C3.40625,3.96875 4.09375,2.65625 5.20313,1.5625 C6.90625,-0.140625 10.2031,-2.23438 13.7969,-4.23438 C17.4063,-6.23438 21,-7.73438 23.4063,-8.23438 C23.9063,-8.34375 24.4063,-8.4375 24.9063,-8.4375 C26.5,-8.4375 27.7969,-7.84375 28.5,-6.54688 C28.7969,-6.04688 28.9063,-5.4375 28.9063,-4.84375 C28.9063,-3.73438 28.2969,-2.54688 27.2031,-1.34375"/>
<path class="Note" transform="matrix(1.4,0,0,1.4,2613.4,315.866)" d="M31.5,-8.09375 C29.7031,-11.4063 25.9063,-13.2031 21.2969,-13.2031 C17.9063,-13.2031 14.2031,-12.2031 10.5938,-10.2969 C4,-6.79688 0,-0.90625 0,4.20313 C0,5.59375 0.296875,7 1,8.29688 C2.79688,11.5938 6.59375,13.2969 11.2031,13.2969 C14.5938,13.2969 18.2969,12.4063 21.9063,10.5 C28.5,7 32.5,1.09375 32.5,-4 C32.5,-5.40625 32.2031,-6.79688 31.5,-8.09375"/>
<path class="Note" transform="matrix(1.4,0,0,1.4,2701.66,298.366)" d="M31.5,-8.09375 C29.7031,-11.4063 25.9063,-13.2031 21.2969,-13.2031 C17.9063,-13.2031 14.2031,-12.2031 10.5938,-10.2969 C4,-6.79688 0,-0.90625 0,4.20313 C0,5.59375 0.296875,7 1,8.29688 C2.79688,11.5938 6.59375,13.2969 11.2031,13.2969 C14.5938,13.2969 18.2969,12.4063 21.9063,10.5 C28.5,7 32.5,1.09375 32.5,-4 C32.5,-5.40625 32.2031,-6.79688 31.5,-8.09375"/>
<path class="Note" transform="matrix(1.4,0,0,1.4,2854.94,315.866)" d="M31.5,-8.09375 C29.7031,-11.4063 25.9063,-13.2031 21.2969,-13.2031 C17.9063,-13.2031 14.2031,-12.2031 10.5938,-10.2969 C4,-6.79688 0,-0.90625 0,4.20313 C0,5.59375 0.296875,7 1,8.29688 C2.79688,11.5938 6.59375,13.2969 11.2031,13.2969 C14.5938,13.2969 18.2969,12.4063 21.9063,10.5 C28.5,7 32.5,1.09375 32.5,-4 C32.5,-5.40625 32.2031,-6.79688 31.5,-8.09375"/>
<path class="Note" transform="matrix(1.4,0,0,1.4,2993.95,333.366)" d="M31.5,-8.09375 C29.7031,-11.4063 25.9063,-13.2031 21.2969,-13.2031 C17.9063,-13.2031 14.2031,-12.2031 10.5938,-10.2969 C4,-6.79688 0,-0.90625 0,4.20313 C0,5.59375 0.296875,7 1,8.29688 C2.79688,11.5938 6.59375,13.2969 11.2031,13.2969 C14.5938,13.2969 18.2969,12.4063 21.9063,10.5 C28.5,7 32.5,1.09375 32.5,-4 C32.5,-5.40625 32.2031,-6.79688 31.5,-8.09375"/>
<path class="Note" transform="matrix(1.4,0,0,1.4,3065.19,333.366)" d="M31.5,-8.14063 C29.7031,-11.4375 25.9063,-13.2344 21.2969,-13.2344 C17.9063,-13.2344 14.2031,-12.2344 10.5938,-10.3438 C4,-6.84375 0,-0.9375 0,4.15625 C0,5.5625 0.296875,6.96875 1,8.26563 C2.79688,11.5781 6.59375,13.2813 11.2031,13.2813 C14.5938,13.2813 18.2969,12.375 21.9063,10.4844 C28.5,6.96875 32.5,1.0625 32.5,-4.04688 C32.5,-5.4375 32.2031,-6.84375 31.5,-8.14063 M27.2031,-1.34375 C25.5,0.359375 22.0938,2.45313 18.5,4.46875 C14.9063,6.46875 11.2969,7.96875 8.90625,8.46875 C8.40625,8.57813 7.90625,8.67188 7.40625,8.67188 C5.79688,8.67188 4.59375,8.07813 3.90625,6.76563 C3.59375,6.26563 3.40625,5.67188 3.40625,5.0625 C3.40625,3.96875 4.09375,2.65625 5.20313,1.5625 C6.90625,-0.140625 10.2031,-2.23438 13.7969,-4.23438 C17.4063,-6.23438 21,-7.73438 23.4063,-8.23438 C23.9063,-8.34375 24.4063,-8.4375 24.9063,-8.4375 C26.5,-8.4375 27.7969,-7.84375 28.5,-6.54688 C28.7969,-6.04688 28.9063,-5.4375 28.9063,-4.84375 C28.9063,-3.73438 28.2969,-2.54688 27.2031,-1.34375"/>
<path class="Note" transform="matrix(1.4,0,0,1.4,3275.49,333.366)" d="M31.5,-8.14063 C29.7031,-11.4375 25.9063,-13.2344 21.2969,-13.2344 C17.9063,-13.2344 14.2031,-12.2344 10.5938,-10.3438 C4,-6.84375 0,-0.9375 0,4.15625 C0,5.5625 0.296875,6.96875 1,8.26563 C2.79688,11.5781 6.59375,13.2813 11.2031,13.2813 C14.5938,13.2813 18.2969,12.375 21.9063,10.4844 C28.5,6.96875 32.5,1.0625 32.5,-4.04688 C32.5,-5.4375 32.2031,-6.84375 31.5,-8.14063 M27.2031,-1.34375 C25.5,0.359375 22.0938,2.45313 18.5,4.46875 C14.9063,6.46875 11.2969,7.96875 8.90625,8.46875 C8.40625,8.57813 7.90625,8.67188 7.40625,8.67188 C5.79688,8.67188 4.59375,8.07813 3.90625,6.76563 C3.59375,6.26563 3.40625,5.67188 3.40625,5.0625 C3.40625,3.96875 4.09375,2.65625 5.20313,1.5625 C6.90625,-0.140625 10.2031,-2.23438 13.7969,-4.23438 C17.4063,-6.23438 21,-7.73438 23.4063,-8.23438 C23.9063,-8.34375 24.4063,-8.4375 24.9063,-8.4375 C26.5,-8.4375 27.7969,-7.84375 28.5,-6.54688 C28.7969,-6.04688 28.9063,-5.4375 28.9063,-4.84375 C28.9063,-3.73438 28.2969,-2.54688 27.2031,-1.34375"/>
<path class="Note" transform="matrix(1.4,0,0,1.4,3416.7,333.366)" d="M31.5,-8.09375 C29.7031,-11.4063 25.9063,-13.2031 21.2969,-13.2031 C17.9063,-13.2031 14.2031,-12.2031 10.5938,-10.2969 C4,-6.79688 0,-0.90625 0,4.20313 C0,5.59375 0.296875,7 1,8.29688 C2.79688,11.5938 6.59375,13.2969 11.2031,13.2969 C14.5938,13.2969 18.2969,12.4063 21.9063,10.5 C28.5,7 32.5,1.09375 32.5,-4 C32.5,-5.40625 32.2031,-6.79688 31.5,-8.09375"/>
<path class="Note" transform="matrix(1.4,0,0,1.4,3504.95,315.866)" d="M31.5,-8.09375 C29.7031,-11.4063 25.9063,-13.2031 21.2969,-13.2031 C17.9063,-13.2031 14.2031,-12.2031 10.5938,-10.2969 C4,-6.79688 0,-0.90625 0,4.20313 C0,5.59375 0.296875,7 1,8.29688 C2.79688,11.5938 6.59375,13.2969 11.2031,13.2969 C14.5938,13.2969 18.2969,12.4063 21.9063,10.5 C28.5,7 32.5,1.09375 32.5,-4 C32.5,-5.40625 32.2031,-6.79688 31.5,-8.09375"/>
<path class="Note" transform="matrix(1.4,0,0,1.4,3658.24,333.366)" d="M31.5,-8.09375 C29.7031,-11.4063 25.9063,-13.2031 21.2969,-13.2031 C17.9063,-13.2031 14.2031,-12.2031 10.5938,-10.2969 C4,-6.79688 0,-0.90625 0,4.20313 C0,5.59375 0.296875,7 1,8.29688 C2.79688,11.5938 6.59375,13.2969 11.2031,13.2969 C14.5938,13.2969 18.2969,12.4063 21.9063,10.5 C28.5,7 32.5,1.09375 32.5,-4 C32.5,-5.40625 32.2031,-6.79688 31.5,-8.09375"/>
<path class="Note" transform="matrix(1.4,0,0,1.4,3809.04,350.865)" d="M31.5,-8.09375 C29.7031,-11.4063 25.9063,-13.2031 21.2969,-13.2031 C17.9063,-13.2031 14.2031,-12.2031 10.5938,-10.2969 C4,-6.79688 0,-0.90625 0,4.20313 C0,5.59375 0.296875,7 1,8.29688 C2.79688,11.5938 6.59375,13.2969 11.2031,13.2969 C14.5938,13.2969 18.2969,12.4063 21.9063,10.5 C28.5,7 32.5,1.09375 32.5,-4 C32.5,-5.40625 32.2031,-6.79688 31.5,-8.09375"/>
<path class="Note" transform="matrix(1.4,0,0,1.4,3903.74,350.865)" d="M31.5,-8.14063 C29.7031,-11.4375 25.9063,-13.2344 21.2969,-13.2344 C17.9063,-13.2344 14.2031,-12.2344 10.5938,-10.3438 C4,-6.84375 0,-0.9375 0,4.15625 C0,5.5625 0.296875,6.96875 1,8.26563 C2.79688,11.5781 6.59375,13.2813 11.2031,13.2813 C14.5938,13.2813 18.2969,12.375 21.9063,10.4844 C28.5,6.96875 32.5,1.0625 32.5,-4.04688 C32.5,-5.4375 32.2031,-6.84375 31.5,-8.14063 M27.2031,-1.34375 C25.5,0.359375 22.0938,2.45313 18.5,4.46875 C14.9063,6.46875 11.2969,7.96875 8.90625,8.46875 C8.40625,8.57813 7.90625,8.67188 7.40625,8.67188 C5.79688,8.67188 4.59375,8.07813 3.90625,6.76563 C3.59375,6.26563 3.40625,5.67188 3.40625,5.0625 C3.40625,3.96875 4.09375,2.65625 5.20313,1.5625 C6.90625,-0.140625 10.2031,-2.23438 13.7969,-4.23438 C17.4063,-6.23438 21,-7.73438 23.4063,-8.23438 C23.9063,-8.34375 24.4063,-8.4375 24.9063,-8.4375 C26.5,-8.4375 27.7969,-7.84375 28.5,-6.54688 C28.7969,-6.04688 28.9063,-5.4375 28.9063,-4.84375 C28.9063,-3.73438 28.2969,-2.54688 27.2031,-1.34375"/>
<path class="Clef" transform="matrix(1.4,0,0,1.4,100.616,420.865)" d="M63.3594,-5.92188 C62.125,-11.3438 59.4844,-15.1719 58.7031,-16.2031 C55.5156,-20.4844 51.5,-23.3281 46.8125,-24.6875 C43.7031,-25.5625 40.7031,-25.6875 38.2813,-25.5 C37.2344,-31.5156 36.2344,-37.3906 35.3281,-42.8438 C40.7813,-49.0156 44.4063,-54.8125 46.6875,-59.1094 C50.1563,-65.6875 51.2969,-70.2656 51.3594,-70.4688 C53.0781,-75.6875 53.4375,-83.3906 52.3281,-91.5938 C51.3281,-99.1406 49.2344,-105.859 46.875,-109.109 C45.8594,-110.531 44.7969,-111.266 43.7656,-111.266 C42.5469,-111.266 40.0313,-110.031 37.1406,-107.25 C34.8438,-105.063 31.5781,-101.172 29.0156,-95.1563 C26.0156,-88.0938 25.7969,-78.6094 26.1563,-71.8906 C26.5313,-64.6094 27.6406,-58.9219 27.6563,-58.875 C27.6719,-58.7813 27.9375,-57.2813 28.375,-54.7188 C28.1563,-54.4844 27.9063,-54.2656 27.6563,-54.0156 C26.625,-53.0156 25.4375,-51.8906 24.0469,-50.5 C23.1875,-49.6406 22.2344,-48.7344 21.2344,-47.7656 C12.7969,-39.625 0,-27.2969 0,-8.14063 C0,-3.4375 0.90625,0.984375 2.6875,5 C4.26563,8.59375 6.5625,11.875 9.5,14.75 C17.2344,22.3125 27.8281,25.5156 34.875,25.3594 C37.8281,25.2813 40.4688,25.0469 42.8594,24.5938 C44.6875,34.2031 45.8281,41.2344 45.8594,46.5781 C45.9063,53.0938 44.25,57.0781 40.3594,59.8438 C37.9219,61.5781 35.1094,62.5313 32.0156,62.6719 C29.4219,62.7969 27.1563,62.3281 25.7344,61.9219 L25.7188,61.9219 C25.7188,61.9219 25.4375,61.8281 25.4219,61.6406 C25.4063,61.4531 25.7656,61.4063 25.7656,61.4063 L25.7969,61.4063 C27.7188,60.9688 31.2813,59.7344 33.6406,56.4375 C35.4375,53.9063 36.3125,49.2813 34.4688,45.3438 C33.3594,42.9531 30.8594,40 25.2344,39.5469 C22.7344,39.3438 20.4688,39.8594 18.4688,41.0625 C16.6563,42.1406 15.1563,43.7813 14.1094,45.7813 C11.6563,50.4844 12.1094,56.2188 15.2344,60.0625 C18.2031,63.6875 22.8125,66 28.25,66.5781 C29.1094,66.6719 29.9531,66.7031 30.7969,66.7031 C35.2344,66.7031 39.625,65.5 43.2031,63.2969 C46.8594,60.7188 48.9844,56.7344 49.6563,51.1094 C50.2188,46.4688 49.8281,40.5469 48.4375,32.4688 C48.0781,30.375 47.5313,27.3438 46.875,23.5938 C52.625,21.6719 56.7813,18.0938 60.5469,12.2344 C63.8438,6.5 64.7813,0.390625 63.3594,-5.92188 M29.1406,20.2969 C24.5,19.0781 20.0625,16.5781 16.3125,13.0625 C15,11.8438 13.125,9.67188 11.6563,6.28125 C10.2969,3.10938 9.625,-0.328125 9.6875,-3.90625 C9.75,-8.60938 11.0625,-13.4375 13.5625,-18.2188 C16.4844,-23.7969 21.0469,-29.3281 27.1094,-34.6563 C28.5625,-35.9375 29.9375,-37.2188 31.2188,-38.5 C31.9844,-34.2344 32.8125,-29.5469 33.6875,-24.6719 C29.8438,-23.4063 25.0938,-20.25 21.9844,-14.5938 C18.4375,-8.03125 18.5781,-2.5 19.3125,0.984375 C20.25,5.4375 22.7813,9.20313 26.2344,11.2969 C27.1719,11.8594 31.2969,13.9844 33.1406,13.4063 C33.5156,13.2969 33.7813,13.0625 33.9219,12.7344 C34.4375,11.5625 33.4063,10.9219 31.8594,9.96875 C31.25,9.59375 30.5781,9.17188 29.8594,8.64063 C26.5313,6.15625 25.0781,1.70313 26.1563,-2.6875 C26.7344,-5.07813 28.0156,-7.25 29.8594,-8.95313 C31.5156,-10.5 33.5625,-11.5938 35.9375,-12.2344 C37.9844,-0.984375 40.0469,10.1719 41.6875,18.5313 C41.8125,19.2188 41.9531,19.8906 42.0781,20.5625 C37.7031,21.5 33.3594,21.4063 29.1406,20.2969 M40.4688,-12.9063 C50.8125,-13.375 55.0781,-5.9375 55.9688,-1.10938 C56.4375,1.4375 56.4375,5.875 54.8906,10.0938 C53.7188,13.2656 51.2656,17.3438 46.125,19.4063 C46.0625,18.9844 45.9844,18.5469 45.9063,18.125 C44.3594,9.34375 42.4219,-1.65625 40.4688,-12.9063 M33.1406,-83.8594 C34.9219,-89.5938 37.6563,-92.8438 39.6563,-94.5781 C41.4063,-96.0938 43.0469,-96.8125 43.9688,-96.8125 C44.1094,-96.8125 44.2344,-96.7813 44.3281,-96.75 C44.7969,-96.6094 45.3281,-96.0469 45.7969,-95.1719 C48.1094,-90.8906 47.3594,-84.1719 46.0156,-79.7344 C44.3906,-74.3281 41.4688,-68.7188 32.6719,-59.1094 C32.5,-60.2188 32.3438,-61.2656 32.1875,-62.25 C30.9375,-70.5313 31.2656,-77.8125 33.1406,-83.8594"/>
<path class="KeySig" transform="matrix(1.4,0,0,1.4,226.944,315.866)" d="M23.2969,-10.5938 C23.9063,-10.7031 24.4063,-11.4063 24.4063,-12 L24.4063,-17.9063 C24.4063,-18.7031 23.7969,-19.2969 23,-19.2969 L22.7969,-19.2969 L19.5,-18.5938 L19.5,-33.5 L16.7031,-33.5 L16.7031,-18 L7.79688,-16.2031 L7.79688,-30.2969 L5,-30.2969 L5,-15.5938 L1.09375,-14.7969 C0.5,-14.7031 0,-14 0,-13.4063 L0,-13.2031 L0,-7.40625 L0,-7.59375 C0,-6.79688 0.59375,-6.20313 1.40625,-6.20313 L1.70313,-6.20313 L5,-6.90625 L5,9.59375 L1.09375,10.4063 C0.5,10.5 0,11.2031 0,11.7969 L0,17.5938 C0,18.4063 0.59375,19 1.40625,19 L1.70313,19 L5,18.2969 L5,33.2031 L7.79688,33.2031 L7.79688,17.7031 L16.7031,15.9063 L16.7031,30 L19.5,30 L19.5,15.2969 L23.2969,14.5938 C23.9063,14.5 24.4063,13.7969 24.4063,13.2031 L24.4063,7.29688 C24.4063,6.5 23.7969,5.90625 23,5.90625 L22.7969,5.90625 L19.5,6.59375 L19.5,-9.90625 L23.2969,-10.5938 M7.79688,9.09375 L7.79688,-7.5 L16.7031,-9.29688 L16.7031,7.20313 L7.79688,9.09375 "/>
<path class="Rest" transform="matrix(1.4,0,0,1.4,623.57,385.865)" d="M0,-11.7969 L0,-1 C0,0.40625 0,0.40625 1.40625,0.40625 L31.1094,0.40625 C32.5,0.40625 32.5,0.40625 32.5,-1 L32.5,-11.7969 C32.5,-13.2031 32.5,-13.2031 31.1094,-13.2031 L1.40625,-13.2031 C0,-13.2031 0,-13.2031 0,-11.7969"/>
<path class="Rest" transform="matrix(1.4,0,0,1.4,1532.59,385.865)" d="M23.2031,16.9063 L23,16.5938 C22.9063,16.5 22.7031,16.2969 22.4063,15.9063 L10.9063,1.70313 C10.5938,1.40625 10.7031,0.59375 10.9063,0.203125 L21.0938,-15.2031 C21.2031,-15.4063 21.2969,-15.7031 21.2969,-15.9063 L21.2969,-16.7969 C21.2969,-17.0938 21.2031,-17.4063 21,-17.5938 L4.79688,-39.5 C4.79688,-39.5 4,-40.7031 3,-39.7969 C2,-39 2.79688,-37.7031 2.79688,-37.7031 L10.4063,-27.2969 C10.7969,-26.7031 10.7969,-25.5 10.4063,-24.9063 L0.296875,-9.5 C0.203125,-9.29688 0.09375,-8.90625 0.09375,-8.70313 L0.09375,-7.79688 C0.09375,-7.5 0.203125,-7.20313 0.40625,-7 L11.5938,6.90625 C11.2031,6.79688 10.2969,6.59375 9.09375,6.59375 C7.40625,6.59375 5.20313,7 3.40625,8.59375 C1.20313,10.5938 0,13.4063 0,15.9063 C0,17.2969 0.296875,18.7031 1.09375,19.7969 C3.20313,23 10.7031,32.5 10.7031,32.5 C10.7031,32.5 11.5938,33.6094 12.5,32.9063 C13.4063,32.2031 13.2031,31.2969 12.9063,30.7969 C12.5938,30.2969 9.40625,24.5 9.40625,24.5 C9.40625,24.5 8.70313,23.0938 8.70313,21.2969 C8.70313,20 9.09375,18.4063 10.4063,17.0938 C11.5938,15.9063 13,15.5 14.2969,15.5 C15.5938,15.5 16.7031,15.9063 17.5,16.4063 L21.4063,18.9063 C21.4063,18.9063 22.5938,19.5 23.2031,18.5938 C23.7031,17.7969 23.5,17.4063 23.2031,16.9063"/>
<path class="Hook" transform="matrix(1.4,0,0,1.4,1197.78,245.866)" d="M3.5,3.5 C3.40625,3.20313 2.5,-0.296875 2.5,-0.5 C2.40625,-0.90625 1.79688,-1.20313 1.29688,-1.20313 C0.59375,-1.20313 0,-0.59375 0,0.09375 L0,16.5 L0,22.7031 C0,23.2031 0.40625,23.5938 0.796875,23.7969 C5,25.0938 13.7031,30.6094 20.2031,41.7031 C22,44.7969 24.9063,49 24.9063,57.4063 C24.9063,64.6094 23.7969,72.2031 22,79.2031 C21.7031,80.3125 21.4063,81.3125 22.5,81.7031 C23.5938,82.1094 24,81.3125 24.4063,80.3125 C28,71.5 28.9063,62.2969 28.9063,56.1094 L28.9063,54.2031 C28.4063,41.2969 21,31.7969 21,31.7969 C21.2969,31.7969 11.7969,19.5 9.09375,15.2969 C5.40625,9.59375 3.59375,3.90625 3.5,3.5"/>
<path class="Hook" transform="matrix(1.4,0,0,1.4,1714.68,276.491)" d="M3.5,3.5 C3.40625,3.20313 2.5,-0.296875 2.5,-0.5 C2.40625,-0.90625 1.79688,-1.20313 1.29688,-1.20313 C0.59375,-1.20313 0,-0.59375 0,0.09375 L0,16.5 L0,22.7031 C0,23.2031 0.40625,23.5938 0.796875,23.7969 C5,25.0938 13.7031,30.6094 20.2031,41.7031 C22,44.7969 24.9063,49 24.9063,57.4063 C24.9063,64.6094 23.7969,72.2031 22,79.2031 C21.7031,80.3125 21.4063,81.3125 22.5,81.7031 C23.5938,82.1094 24,81.3125 24.4063,80.3125 C28,71.5 28.9063,62.2969 28.9063,56.1094 L28.9063,54.2031 C28.4063,41.2969 21,31.7969 21,31.7969 C21.2969,31.7969 11.7969,19.5 9.09375,15.2969 C5.40625,9.59375 3.59375,3.90625 3.5,3.5"/>
<path class="Hook" transform="matrix(1.4,0,0,1.4,2190.65,438.365)" d="M2.5,0.40625 C2.5,0.203125 3.40625,-3.20313 3.5,-3.5 C3.59375,-3.90625 5.40625,-9.59375 9.09375,-15.2969 C11.7969,-19.5 21.2969,-31.7969 21,-31.7969 C21,-31.7969 28.4063,-41.2969 28.9063,-54.2031 L28.9063,-56.5 C28.9063,-62.6094 28.1094,-71.2031 24.5938,-79.9063 C24.2031,-80.9063 23.7969,-81.9063 22.7031,-81.5 C21.5938,-81.1094 21.9063,-79.9063 22.2031,-78.8125 C24,-71.7969 25,-64.6094 25,-57.4063 C25,-49 22,-44.7969 20.2031,-41.7031 C13.5938,-30.6094 5,-25.2031 0.796875,-23.7969 C0.296875,-23.5938 0,-23.2031 0,-22.7031 L0,-16.5 L0,-0.09375 C0,0.59375 0.59375,1.20313 1.29688,1.20313 C1.79688,1.20313 2.40625,0.796875 2.5,0.40625"/>
<path class="Hook" transform="matrix(1.4,0,0,1.4,2993.95,455.865)" d="M2.5,0.40625 C2.5,0.203125 3.40625,-3.20313 3.5,-3.5 C3.59375,-3.90625 5.40625,-9.59375 9.09375,-15.2969 C11.7969,-19.5 21.2969,-31.7969 21,-31.7969 C21,-31.7969 28.4063,-41.2969 28.9063,-54.2031 L28.9063,-56.5 C28.9063,-62.6094 28.1094,-71.2031 24.5938,-79.9063 C24.2031,-80.9063 23.7969,-81.9063 22.7031,-81.5 C21.5938,-81.1094 21.9063,-79.9063 22.2031,-78.8125 C24,-71.7969 25,-64.6094 25,-57.4063 C25,-49 22,-44.7969 20.2031,-41.7031 C13.5938,-30.6094 5,-25.2031 0.796875,-23.7969 C0.296875,-23.5938 0,-23.2031 0,-22.7031 L0,-16.5 L0,-0.09375 C0,0.59375 0.59375,1.20313 1.29688,1.20313 C1.79688,1.20313 2.40625,0.796875 2.5,0.40625"/>
<path class="Hook" transform="matrix(1.4,0,0,1.4,3850.68,245.866)" d="M3.5,3.5 C3.40625,3.20313 2.5,-0.296875 2.5,-0.5 C2.40625,-0.90625 1.79688,-1.20313 1.29688,-1.20313 C0.59375,-1.20313 0,-0.59375 0,0.09375 L0,16.5 L0,22.7031 C0,23.2031 0.40625,23.5938 0.796875,23.7969 C5,25.0938 13.7031,30.6094 20.2031,41.7031 C22,44.7969 24.9063,49 24.9063,57.4063 C24.9063,64.6094 23.7969,72.2031 22,79.2031 C21.7031,80.3125 21.4063,81.3125 22.5,81.7031 C23.5938,82.1094 24,81.3125 24.4063,80.3125 C28,71.5 28.9063,62.2969 28.9063,56.1094 L28.9063,54.2031 C28.4063,41.2969 21,31.7969 21,31.7969 C21.2969,31.7969 11.7969,19.5 9.09375,15.2969 C5.40625,9.59375 3.59375,3.90625 3.5,3.5"/>
<path class="RehearsalMark" fill="none" stroke="#000000" stroke-width="5.60" stroke-linecap="square" stroke-linejoin="miter" stroke-miterlimit="2" fill-rule="evenodd" d="M518.52,117.566 L634.12,117.566 L634.12,233.166 L518.52,233.166 L518.52,117.566 "/>
<path class="RehearsalMark" d="M607.727,139.022 L603.508,139.022 L598.227,143.834 C591.758,139.913 587.352,138.631 580.289,138.631 C569.305,138.631 560.195,142.366 553.133,149.913 C546.477,156.959 543.242,165.678 543.242,176.366 C543.242,186.553 546.18,194.6 552.555,201.553 C559.32,209.006 567.539,212.334 579.117,212.334 C596.461,212.334 606.352,204.006 610.18,186.366 L604.102,184.897 C601.461,198.522 593.617,206.256 582.352,206.256 C569.023,206.256 562.742,196.163 562.742,174.6 C562.742,154.225 569.023,143.725 581.07,143.725 C591.945,143.725 599.102,151.272 603.508,167.647 L608.711,167.053 L607.727,139.022 "/>
<path class="NoteDot" transform="matrix(1.4,0,0,1.4,1069.31,333.366)" d="M0,0 C0,2.76563 2.23438,5 5,5 C7.76563,5 10,2.76563 10,0 C10,-2.76563 7.76563,-5 5,-5 C2.23438,-5 0,-2.76563 0,0"/>
<path class="NoteDot" transform="matrix(1.4,0,0,1.4,1582.98,368.365)" d="M0,0 C0,2.76563 2.23438,5 5,5 C7.76563,5 10,2.76563 10,0 C10,-2.76563 7.76563,-5 5,-5 C2.23438,-5 0,-2.76563 0,0"/>
<path class="NoteDot" transform="matrix(1.4,0,0,1.4,2114.64,298.366)" d="M0,0 C0,2.76563 2.23438,5 5,5 C7.76563,5 10,2.76563 10,0 C10,-2.76563 7.76563,-5 5,-5 C2.23438,-5 0,-2.76563 0,0"/>
<path class="NoteDot" transform="matrix(1.4,0,0,1.4,2917.93,298.366)" d="M0,0 C0,2.76563 2.23438,5 5,5 C7.76563,5 10,2.76563 10,0 C10,-2.76563 7.76563,-5 5,-5 C2.23438,-5 0,-2.76563 0,0"/>
<path class="NoteDot" transform="matrix(1.4,0,0,1.4,3721.23,333.366)" d="M0,0 C0,2.76563 2.23438,5 5,5 C7.76563,5 10,2.76563 10,0 C10,-2.76563 7.76563,-5 5,-5 C2.23438,-5 0,-2.76563 0,0"/>
<path class="Page" d="M96.0938,96.241 L95.4844,98.991 C94.9844,101.194 94.6563,101.897 94.2188,102.178 C93.6719,102.569 93.5625,102.569 90.0938,102.616 L79.4844,102.616 C81.4063,100.96 82.8438,99.9285 84.9844,98.491 C92.7344,93.491 94.3281,92.2722 95.9219,90.241 C97.7969,87.7722 98.8906,84.8504 98.8906,82.2722 C98.8906,76.3816 93.125,71.9285 85.375,71.9285 C77.8906,71.9285 72.1094,76.7722 72.1094,83.0379 C72.1094,86.8816 74.2656,89.366 77.5625,89.366 C80.4219,89.366 82.2344,87.5535 82.2344,84.6941 C82.2344,82.3191 81.1875,80.9441 78.6563,79.741 C78.0469,79.4597 77.7813,79.1316 77.7813,78.6941 C77.7813,76.9285 80.75,75.0691 83.5,75.0691 C87.3438,75.0691 89.5469,77.4285 89.5469,81.5066 C89.5469,86.0691 87.7813,89.3035 81.9531,95.5222 C75.7969,102.069 73.6563,104.538 70.9063,108.507 L70.9063,111.085 C72.3281,110.928 72.9375,110.866 73.7656,110.866 L94.4375,110.866 C95.4844,110.866 96.1406,110.928 97.7969,111.085 L99.0625,96.241 L96.0938,96.241 "/>
</svg>
