<?xml version="1.0" encoding="UTF-8" standalone="no"?>
<svg width="4208.47px" height="2409.45px" viewBox="0 0 4208.47 2409.45"
 xmlns="http://www.w3.org/2000/svg" xmlns:xlink="http://www.w3.org/1999/xlink" version="1.2" baseProfile="tiny">
<title>PETE</title>
<desc>Generated by MuseScore 3.6.2</desc>
<polyline class="StaffLines" fill="none" stroke="#000000" stroke-width="5.22" stroke-linejoin="bevel" points="70.866,447.125 4137.61,447.125"/>
<polyline class="StaffLines" fill="none" stroke="#000000" stroke-width="5.22" stroke-linejoin="bevel" points="70.866,494.605 4137.61,494.605"/>
<polyline class="StaffLines" fill="none" stroke="#000000" stroke-width="5.22" stroke-linejoin="bevel" points="70.866,542.085 4137.61,542.085"/>
<polyline class="StaffLines" fill="none" stroke="#000000" stroke-width="5.22" stroke-linejoin="bevel" points="70.866,589.566 4137.61,589.566"/>
<polyline class="StaffLines" fill="none" stroke="#000000" stroke-width="5.22" stroke-linejoin="bevel" points="70.866,637.046 4137.61,637.046"/>
<polyline class="StaffLines" fill="none" stroke="#000000" stroke-width="5.22" stroke-linejoin="bevel" points="70.866,1163.49 4137.61,1163.49"/>
<polyline class="StaffLines" fill="none" stroke="#000000" stroke-width="5.22" stroke-linejoin="bevel" points="70.866,1210.97 4137.61,1210.97"/>
<polyline class="StaffLines" fill="none" stroke="#000000" stroke-width="5.22" stroke-linejoin="bevel" points="70.866,1258.45 4137.61,1258.45"/>
<polyline class="StaffLines" fill="none" stroke="#000000" stroke-width="5.22" stroke-linejoin="bevel" points="70.866,1305.93 4137.61,1305.93"/>
<polyline class="StaffLines" fill="none" stroke="#000000" stroke-width="5.22" stroke-linejoin="bevel" points="70.866,1353.41 4137.61,1353.41"/>
<polyline class="StaffLines" fill="none" stroke="#000000" stroke-width="5.22" stroke-linejoin="bevel" points="70.866,1879.86 4137.61,1879.86"/>
<polyline class="StaffLines" fill="none" stroke="#000000" stroke-width="5.22" stroke-linejoin="bevel" points="70.866,1927.34 4137.61,1927.34"/>
<polyline class="StaffLines" fill="none" stroke="#000000" stroke-width="5.22" stroke-linejoin="bevel" points="70.866,1974.82 4137.61,1974.82"/>
<polyline class="StaffLines" fill="none" stroke="#000000" stroke-width="5.22" stroke-linejoin="bevel" points="70.866,2022.3 4137.61,2022.3"/>
<polyline class="StaffLines" fill="none" stroke="#000000" stroke-width="5.22" stroke-linejoin="bevel" points="70.866,2069.78 4137.61,2069.78"/>
<path class="MeasureNumber" d="M90.556,1040.37 C88.436,1040.61 85.836,1040.77 83.596,1040.77 C82.476,1040.77 81.196,1040.73 79.756,1040.65 C78.436,1040.57 77.116,1040.49 75.756,1040.41 L74.756,1040.37 L70.876,1048.81 L72.356,1049.29 L73.316,1047.69 C75.196,1044.57 76.076,1044.13 80.156,1044.17 L86.916,1044.17 L82.556,1050.41 C77.436,1057.61 77.436,1057.61 75.476,1060.81 C73.716,1063.65 72.996,1065.41 72.996,1066.85 C72.996,1068.25 73.876,1069.13 75.276,1069.13 C76.756,1069.13 77.516,1068.41 78.036,1066.53 C80.036,1059.01 81.236,1056.41 86.796,1047.41 L90.556,1041.57 L90.556,1040.37 "/>
<path class="MeasureNumber" d="M87.226,1756.58 L86.066,1756.58 C83.866,1758.22 79.626,1759.62 76.746,1759.62 L76.266,1761.38 L79.026,1761.38 C81.466,1761.38 81.746,1761.46 81.746,1762.18 C81.746,1762.54 81.746,1762.54 81.346,1763.98 L77.066,1779.98 C76.546,1781.98 76.506,1782.1 76.146,1782.46 C75.746,1782.86 74.906,1782.98 72.786,1783.02 L71.066,1783.02 L70.866,1784.9 L85.666,1784.9 L85.906,1783.02 L83.746,1783.02 C81.146,1783.02 80.586,1782.82 80.586,1781.94 C80.586,1781.66 80.746,1780.74 80.946,1779.98 L87.226,1756.58 M104.7,1770.34 C106.58,1769.74 107.34,1769.42 108.3,1768.78 C110.18,1767.54 111.34,1765.34 111.34,1763.1 C111.34,1759.3 108.3,1756.74 103.82,1756.74 C99.4604,1756.74 95.7804,1759.46 95.7804,1762.74 C95.7804,1764.38 96.7804,1765.5 98.3004,1765.5 C99.6204,1765.5 100.58,1764.54 100.58,1763.22 C100.58,1762.54 100.38,1762.06 99.7404,1761.42 C99.3404,1761.06 99.1804,1760.78 99.1804,1760.5 C99.1804,1759.54 101.18,1758.54 103.06,1758.54 C105.74,1758.54 107.34,1760.02 107.34,1762.5 C107.34,1766.06 104.82,1769.42 102.14,1769.42 C102.02,1769.42 101.66,1769.38 101.22,1769.34 C100.06,1769.26 100.06,1769.26 99.8204,1769.26 C98.9404,1769.26 98.4604,1769.66 98.4604,1770.38 C98.4604,1771.02 98.9004,1771.42 99.6204,1771.42 C99.8204,1771.42 100.1,1771.38 100.42,1771.34 C100.98,1771.22 101.58,1771.18 101.94,1771.18 C103.82,1771.18 105.1,1772.86 105.1,1775.34 C105.1,1777.26 104.66,1779.1 103.78,1780.62 C102.58,1782.78 100.74,1783.82 98.1404,1783.82 C95.9004,1783.82 93.9804,1782.7 93.9804,1781.42 C93.9804,1780.98 94.1404,1780.82 94.7804,1780.54 C95.9404,1780.02 96.4204,1779.3 96.4204,1778.22 C96.4204,1776.82 95.3004,1775.74 93.8604,1775.74 C92.1404,1775.74 91.0204,1777.1 91.0204,1779.18 C91.0204,1783.06 93.9804,1785.5 98.7804,1785.5 C104.82,1785.5 109.42,1781.46 109.42,1776.1 C109.42,1774.66 108.98,1773.42 108.14,1772.42 C107.26,1771.38 106.46,1770.9 104.7,1770.34"/>
<path class="TieSegment" stroke="#000000" stroke-width="3.32" stroke-linecap="round" stroke-linejoin="round" fill-rule="evenodd" d="M2185.77,435.255 C2246.24,382.654 2427.64,382.654 2488.1,435.255 C2427.64,395.948 2246.24,395.948 2185.77,435.255"/>
<polyline class="BarLine" stroke="#000000" stroke-width="26.11" stroke-linejoin="bevel" points="948.974,444.513 948.974,639.658"/>
<polyline class="BarLine" stroke="#000000" stroke-width="8.55" stroke-linejoin="bevel" points="982.21,444.513 982.21,639.658"/>
<path class="BarLine" transform="matrix(1.89921,0,0,1.89921,1005.56,518.345)" d="M10.4,0 C10.4,-2.9 8.1,-5.3 5.2,-5.3 C2.3,-5.3 0,-2.9 0,0 C0,2.9 2.3,5.3 5.2,5.3 C8.1,5.3 10.4,2.9 10.4,0"/>
<path class="BarLine" transform="matrix(1.89921,0,0,1.89921,1005.56,565.826)" d="M10.4,0 C10.4,-2.9 8.1,-5.3 5.2,-5.3 C2.3,-5.3 0,-2.9 0,0 C0,2.9 2.3,5.3 5.2,5.3 C8.1,5.3 10.4,2.9 10.4,0"/>
<polyline class="BarLine" stroke="#000000" stroke-width="8.55" stroke-linejoin="bevel" points="1569.57,444.513 1569.57,639.658"/>
<polyline class="BarLine" stroke="#000000" stroke-width="8.55" stroke-linejoin="bevel" points="2305.54,444.513 2305.54,639.658"/>
<polyline class="BarLine" stroke="#000000" stroke-width="8.55" stroke-linejoin="bevel" points="2937.07,444.513 2937.07,639.658"/>
<polyline class="BarLine" stroke="#000000" stroke-width="8.55" stroke-linejoin="bevel" points="3423.49,444.513 3423.49,639.658"/>
<polyline class="BarLine" stroke="#000000" stroke-width="8.55" stroke-linejoin="bevel" points="4133.33,444.513 4133.33,639.658"/>
<polyline class="BarLine" stroke="#000000" stroke-width="8.55" stroke-linejoin="bevel" points="1243.74,1160.88 1243.74,1356.03"/>
<polyline class="BarLine" stroke="#000000" stroke-width="8.55" stroke-linejoin="bevel" points="1745.02,1160.88 1745.02,1356.03"/>
<polyline class="BarLine" stroke="#000000" stroke-width="8.55" stroke-linejoin="bevel" points="2290.05,1160.88 2290.05,1356.03"/>
<polyline class="BarLine" stroke="#000000" stroke-width="8.55" stroke-linejoin="bevel" points="2869.66,1160.88 2869.66,1356.03"/>
<polyline class="BarLine" stroke="#000000" stroke-width="8.55" stroke-linejoin="bevel" points="3736.51,1160.88 3736.51,1356.03"/>
<polyline class="BarLine" stroke="#000000" stroke-width="8.55" stroke-linejoin="bevel" points="4133.33,1160.88 4133.33,1356.03"/>
<polyline class="BarLine" stroke="#000000" stroke-width="8.55" stroke-linejoin="bevel" points="1106.15,1877.25 1106.15,2072.39"/>
<polyline class="BarLine" stroke="#000000" stroke-width="8.55" stroke-linejoin="bevel" points="1747.59,1877.25 1747.59,2072.39"/>
<polyline class="BarLine" stroke="#000000" stroke-width="8.55" stroke-linejoin="bevel" points="2389.03,1877.25 2389.03,2072.39"/>
<polyline class="BarLine" stroke="#000000" stroke-width="8.55" stroke-linejoin="bevel" points="2926.01,1877.25 2926.01,2072.39"/>
<path class="BarLine" transform="matrix(1.89921,0,0,1.89921,3468.22,1951.08)" d="M10.4,0 C10.4,-2.9 8.1,-5.3 5.2,-5.3 C2.3,-5.3 0,-2.9 0,0 C0,2.9 2.3,5.3 5.2,5.3 C8.1,5.3 10.4,2.9 10.4,0"/>
<path class="BarLine" transform="matrix(1.89921,0,0,1.89921,3468.22,1998.56)" d="M10.4,0 C10.4,-2.9 8.1,-5.3 5.2,-5.3 C2.3,-5.3 0,-2.9 0,0 C0,2.9 2.3,5.3 5.2,5.3 C8.1,5.3 10.4,2.9 10.4,0"/>
<polyline class="BarLine" stroke="#000000" stroke-width="8.55" stroke-linejoin="bevel" points="3511.33,1877.25 3511.33,2072.39"/>
<polyline class="BarLine" stroke="#000000" stroke-width="26.11" stroke-linejoin="bevel" points="3544.56,1877.25 3544.56,2072.39"/>
<polyline class="BarLine" stroke="#000000" stroke-width="8.55" stroke-linejoin="bevel" points="4091.31,1877.25 4091.31,2072.39"/>
<polyline class="BarLine" stroke="#000000" stroke-width="26.11" stroke-linejoin="bevel" points="4124.55,1877.25 4124.55,2072.39"/>
<polyline class="Stem" stroke="#000000" stroke-width="5.22" stroke-linejoin="bevel" points="801.034,654.709 801.034,494.605"/>
<polyline class="Stem" stroke="#000000" stroke-width="5.22" stroke-linejoin="bevel" points="1236.43,583.488 1236.43,429.32"/>
<polyline class="Stem" stroke="#000000" stroke-width="5.22" stroke-linejoin="bevel" points="1373.92,548.467 1373.92,690.461"/>
<polyline class="Stem" stroke="#000000" stroke-width="5.22" stroke-linejoin="bevel" points="1733.14,500.987 1733.14,654.851"/>
<polyline class="Stem" stroke="#000000" stroke-width="5.22" stroke-linejoin="bevel" points="1982.11,524.727 1982.11,648.916"/>
<polyline class="Stem" stroke="#000000" stroke-width="5.22" stroke-linejoin="bevel" points="2148.28,477.246 2148.28,625.176"/>
<polyline class="Stem" stroke="#000000" stroke-width="5.22" stroke-linejoin="bevel" points="2469.11,477.246 2469.11,625.176"/>
<polyline class="Stem" stroke="#000000" stroke-width="5.22" stroke-linejoin="bevel" points="2635.28,524.727 2635.28,648.916"/>
<polyline class="Stem" stroke="#000000" stroke-width="5.22" stroke-linejoin="bevel" points="3280.8,524.727 3280.8,684.526"/>
<polyline class="Stem" stroke="#000000" stroke-width="5.22" stroke-linejoin="bevel" points="3587.06,524.727 3587.06,684.526"/>
<polyline class="Stem" stroke="#000000" stroke-width="5.22" stroke-linejoin="bevel" points="3998.74,524.727 3998.74,684.526"/>
<polyline class="Stem" stroke="#000000" stroke-width="5.22" stroke-linejoin="bevel" points="540.461,1241.1 540.461,1365.28"/>
<polyline class="Stem" stroke="#000000" stroke-width="5.22" stroke-linejoin="bevel" points="715.866,1217.36 715.866,1353.41"/>
<polyline class="Stem" stroke="#000000" stroke-width="5.22" stroke-linejoin="bevel" points="891.27,1241.1 891.27,1389.02"/>
<polyline class="Stem" stroke="#000000" stroke-width="5.22" stroke-linejoin="bevel" points="1066.67,1264.84 1066.67,1400.89"/>
<polyline class="Stem" stroke="#000000" stroke-width="5.22" stroke-linejoin="bevel" points="1407.31,1217.36 1407.31,1371.22"/>
<polyline class="Stem" stroke="#000000" stroke-width="5.22" stroke-linejoin="bevel" points="1575.34,1264.84 1575.34,1406.83"/>
<polyline class="Stem" stroke="#000000" stroke-width="5.22" stroke-linejoin="bevel" points="2157.06,1371.08 2157.06,1210.97"/>
<polyline class="Stem" stroke="#000000" stroke-width="5.22" stroke-linejoin="bevel" points="2510.1,1299.86 2510.1,1145.69"/>
<polyline class="Stem" stroke="#000000" stroke-width="5.22" stroke-linejoin="bevel" points="2735.06,1264.84 2735.06,1424.64"/>
<polyline class="Stem" stroke="#000000" stroke-width="5.22" stroke-linejoin="bevel" points="3033.23,1217.36 3033.23,1353.41"/>
<polyline class="Stem" stroke="#000000" stroke-width="5.22" stroke-linejoin="bevel" points="3208.63,1217.36 3208.63,1353.41"/>
<polyline class="Stem" stroke="#000000" stroke-width="5.22" stroke-linejoin="bevel" points="3384.04,1241.1 3384.04,1365.28"/>
<polyline class="Stem" stroke="#000000" stroke-width="5.22" stroke-linejoin="bevel" points="3559.44,1217.36 3559.44,1353.41"/>
<polyline class="Stem" stroke="#000000" stroke-width="5.22" stroke-linejoin="bevel" points="3900.08,1193.61 3900.08,1353.41"/>
<polyline class="Stem" stroke="#000000" stroke-width="5.22" stroke-linejoin="bevel" points="738.385,1886.24 738.385,2022.3"/>
<polyline class="Stem" stroke="#000000" stroke-width="5.22" stroke-linejoin="bevel" points="921.438,1909.98 921.438,2034.17"/>
<polyline class="Stem" stroke="#000000" stroke-width="5.22" stroke-linejoin="bevel" points="1269.72,1933.72 1269.72,2087.59"/>
<polyline class="Stem" stroke="#000000" stroke-width="5.22" stroke-linejoin="bevel" points="1507.83,1981.2 1507.83,2123.2"/>
<polyline class="Stem" stroke="#000000" stroke-width="5.22" stroke-linejoin="bevel" points="1911.16,1957.46 1911.16,2105.39"/>
<polyline class="Stem" stroke="#000000" stroke-width="5.22" stroke-linejoin="bevel" points="2205.75,1992.49 2205.75,1844.25"/>
<polyline class="Stem" stroke="#000000" stroke-width="5.22" stroke-linejoin="bevel" points="2609.09,2016.23 2609.09,1862.06"/>
<polyline class="Stem" stroke="#000000" stroke-width="5.22" stroke-linejoin="bevel" points="3289.21,2087.45 3289.21,1927.34"/>
<path class="Note" transform="matrix(1.89921,0,0,1.89921,741.936,660.786)" d="M31.5,-8.1 C29.7,-11.4 25.9,-13.2 21.3,-13.2 C17.9,-13.2 14.2,-12.2 10.6,-10.3 C4,-6.8 0,-0.9 0,4.2 C0,5.6 0.3,7 1,8.3 C2.8,11.6 6.6,13.3 11.2,13.3 C14.6,13.3 18.3,12.4 21.9,10.5 C28.5,7 32.5,1.1 32.5,-4 C32.5,-5.4 32.2,-6.8 31.5,-8.1"/>
<path class="Note" transform="matrix(1.89921,0,0,1.89921,1177.33,589.566)" d="M31.5,-8.1 C29.7,-11.4 25.9,-13.2 21.3,-13.2 C17.9,-13.2 14.2,-12.2 10.6,-10.3 C4,-6.8 0,-0.9 0,4.2 C0,5.6 0.3,7 1,8.3 C2.8,11.6 6.6,13.3 11.2,13.3 C14.6,13.3 18.3,12.4 21.9,10.5 C28.5,7 32.5,1.1 32.5,-4 C32.5,-5.4 32.2,-6.8 31.5,-8.1"/>
<path class="Note" transform="matrix(1.89921,0,0,1.89921,1371.31,542.085)" d="M31.5,-8.1 C29.7,-11.4 25.9,-13.2 21.3,-13.2 C17.9,-13.2 14.2,-12.2 10.6,-10.3 C4,-6.8 0,-0.9 0,4.2 C0,5.6 0.3,7 1,8.3 C2.8,11.6 6.6,13.3 11.2,13.3 C14.6,13.3 18.3,12.4 21.9,10.5 C28.5,7 32.5,1.1 32.5,-4 C32.5,-5.4 32.2,-6.8 31.5,-8.1"/>
<path class="Note" transform="matrix(1.89921,0,0,1.89921,1730.53,494.605)" d="M31.5,-8.1 C29.7,-11.4 25.9,-13.2 21.3,-13.2 C17.9,-13.2 14.2,-12.2 10.6,-10.3 C4,-6.8 0,-0.9 0,4.2 C0,5.6 0.3,7 1,8.3 C2.8,11.6 6.6,13.3 11.2,13.3 C14.6,13.3 18.3,12.4 21.9,10.5 C28.5,7 32.5,1.1 32.5,-4 C32.5,-5.4 32.2,-6.8 31.5,-8.1"/>
<path class="Note" transform="matrix(1.89921,0,0,1.89921,1979.5,518.345)" d="M31.5,-8.1 C29.7,-11.4 25.9,-13.2 21.3,-13.2 C17.9,-13.2 14.2,-12.2 10.6,-10.3 C4,-6.8 0,-0.9 0,4.2 C0,5.6 0.3,7 1,8.3 C2.8,11.6 6.6,13.3 11.2,13.3 C14.6,13.3 18.3,12.4 21.9,10.5 C28.5,7 32.5,1.1 32.5,-4 C32.5,-5.4 32.2,-6.8 31.5,-8.1"/>
<path class="Note" transform="matrix(1.89921,0,0,1.89921,2145.66,470.865)" d="M31.5,-8.1 C29.7,-11.4 25.9,-13.2 21.3,-13.2 C17.9,-13.2 14.2,-12.2 10.6,-10.3 C4,-6.8 0,-0.9 0,4.2 C0,5.6 0.3,7 1,8.3 C2.8,11.6 6.6,13.3 11.2,13.3 C14.6,13.3 18.3,12.4 21.9,10.5 C28.5,7 32.5,1.1 32.5,-4 C32.5,-5.4 32.2,-6.8 31.5,-8.1"/>
<path class="Note" transform="matrix(1.89921,0,0,1.89921,2466.5,470.865)" d="M31.5,-8.1 C29.7,-11.4 25.9,-13.2 21.3,-13.2 C17.9,-13.2 14.2,-12.2 10.6,-10.3 C4,-6.8 0,-0.9 0,4.2 C0,5.6 0.3,7 1,8.3 C2.8,11.6 6.6,13.3 11.2,13.3 C14.6,13.3 18.3,12.4 21.9,10.5 C28.5,7 32.5,1.1 32.5,-4 C32.5,-5.4 32.2,-6.8 31.5,-8.1"/>
<path class="Note" transform="matrix(1.89921,0,0,1.89921,2632.67,518.345)" d="M31.5,-8.1 C29.7,-11.4 25.9,-13.2 21.3,-13.2 C17.9,-13.2 14.2,-12.2 10.6,-10.3 C4,-6.8 0,-0.9 0,4.2 C0,5.6 0.3,7 1,8.3 C2.8,11.6 6.6,13.3 11.2,13.3 C14.6,13.3 18.3,12.4 21.9,10.5 C28.5,7 32.5,1.1 32.5,-4 C32.5,-5.4 32.2,-6.8 31.5,-8.1"/>
<path class="Note" transform="matrix(1.89921,0,0,1.89921,3278.19,518.345)" d="M31.5,-8.1 C29.7,-11.4 25.9,-13.2 21.3,-13.2 C17.9,-13.2 14.2,-12.2 10.6,-10.3 C4,-6.8 0,-0.9 0,4.2 C0,5.6 0.3,7 1,8.3 C2.8,11.6 6.6,13.3 11.2,13.3 C14.6,13.3 18.3,12.4 21.9,10.5 C28.5,7 32.5,1.1 32.5,-4 C32.5,-5.4 32.2,-6.8 31.5,-8.1"/>
<path class="Note" transform="matrix(1.89921,0,0,1.89921,3584.44,518.345)" d="M31.5,-8.1 C29.7,-11.4 25.9,-13.2 21.3,-13.2 C17.9,-13.2 14.2,-12.2 10.6,-10.3 C4,-6.8 0,-0.9 0,4.2 C0,5.6 0.3,7 1,8.3 C2.8,11.6 6.6,13.3 11.2,13.3 C14.6,13.3 18.3,12.4 21.9,10.5 C28.5,7 32.5,1.1 32.5,-4 C32.5,-5.4 32.2,-6.8 31.5,-8.1"/>
<path class="Note" transform="matrix(1.89921,0,0,1.89921,3996.13,518.345)" d="M31.5,-8.1 C29.7,-11.4 25.9,-13.2 21.3,-13.2 C17.9,-13.2 14.2,-12.2 10.6,-10.3 C4,-6.8 0,-0.9 0,4.2 C0,5.6 0.3,7 1,8.3 C2.8,11.6 6.6,13.3 11.2,13.3 C14.6,13.3 18.3,12.4 21.9,10.5 C28.5,7 32.5,1.1 32.5,-4 C32.5,-5.4 32.2,-6.8 31.5,-8.1"/>
<path class="Note" transform="matrix(1.89921,0,0,1.89921,537.85,1234.71)" d="M31.5,-8.1 C29.7,-11.4 25.9,-13.2 21.3,-13.2 C17.9,-13.2 14.2,-12.2 10.6,-10.3 C4,-6.8 0,-0.9 0,4.2 C0,5.6 0.3,7 1,8.3 C2.8,11.6 6.6,13.3 11.2,13.3 C14.6,13.3 18.3,12.4 21.9,10.5 C28.5,7 32.5,1.1 32.5,-4 C32.5,-5.4 32.2,-6.8 31.5,-8.1"/>
<path class="Note" transform="matrix(1.89921,0,0,1.89921,713.254,1210.97)" d="M31.5,-8.1 C29.7,-11.4 25.9,-13.2 21.3,-13.2 C17.9,-13.2 14.2,-12.2 10.6,-10.3 C4,-6.8 0,-0.9 0,4.2 C0,5.6 0.3,7 1,8.3 C2.8,11.6 6.6,13.3 11.2,13.3 C14.6,13.3 18.3,12.4 21.9,10.5 C28.5,7 32.5,1.1 32.5,-4 C32.5,-5.4 32.2,-6.8 31.5,-8.1"/>
<path class="Note" transform="matrix(1.89921,0,0,1.89921,888.659,1234.71)" d="M31.5,-8.1 C29.7,-11.4 25.9,-13.2 21.3,-13.2 C17.9,-13.2 14.2,-12.2 10.6,-10.3 C4,-6.8 0,-0.9 0,4.2 C0,5.6 0.3,7 1,8.3 C2.8,11.6 6.6,13.3 11.2,13.3 C14.6,13.3 18.3,12.4 21.9,10.5 C28.5,7 32.5,1.1 32.5,-4 C32.5,-5.4 32.2,-6.8 31.5,-8.1"/>
<path class="Note" transform="matrix(1.89921,0,0,1.89921,1064.06,1258.45)" d="M31.5,-8.1 C29.7,-11.4 25.9,-13.2 21.3,-13.2 C17.9,-13.2 14.2,-12.2 10.6,-10.3 C4,-6.8 0,-0.9 0,4.2 C0,5.6 0.3,7 1,8.3 C2.8,11.6 6.6,13.3 11.2,13.3 C14.6,13.3 18.3,12.4 21.9,10.5 C28.5,7 32.5,1.1 32.5,-4 C32.5,-5.4 32.2,-6.8 31.5,-8.1"/>
<path class="Note" transform="matrix(1.89921,0,0,1.89921,1404.7,1210.97)" d="M31.5,-8.1 C29.7,-11.4 25.9,-13.2 21.3,-13.2 C17.9,-13.2 14.2,-12.2 10.6,-10.3 C4,-6.8 0,-0.9 0,4.2 C0,5.6 0.3,7 1,8.3 C2.8,11.6 6.6,13.3 11.2,13.3 C14.6,13.3 18.3,12.4 21.9,10.5 C28.5,7 32.5,1.1 32.5,-4 C32.5,-5.4 32.2,-6.8 31.5,-8.1"/>
<path class="Note" transform="matrix(1.89921,0,0,1.89921,1572.73,1258.45)" d="M31.5,-8.1 C29.7,-11.4 25.9,-13.2 21.3,-13.2 C17.9,-13.2 14.2,-12.2 10.6,-10.3 C4,-6.8 0,-0.9 0,4.2 C0,5.6 0.3,7 1,8.3 C2.8,11.6 6.6,13.3 11.2,13.3 C14.6,13.3 18.3,12.4 21.9,10.5 C28.5,7 32.5,1.1 32.5,-4 C32.5,-5.4 32.2,-6.8 31.5,-8.1"/>
<path class="Note" transform="matrix(1.89921,0,0,1.89921,2097.96,1377.15)" d="M31.5,-8.1 C29.7,-11.4 25.9,-13.2 21.3,-13.2 C17.9,-13.2 14.2,-12.2 10.6,-10.3 C4,-6.8 0,-0.9 0,4.2 C0,5.6 0.3,7 1,8.3 C2.8,11.6 6.6,13.3 11.2,13.3 C14.6,13.3 18.3,12.4 21.9,10.5 C28.5,7 32.5,1.1 32.5,-4 C32.5,-5.4 32.2,-6.8 31.5,-8.1"/>
<path class="Note" transform="matrix(1.89921,0,0,1.89921,2451,1305.93)" d="M31.5,-8.1 C29.7,-11.4 25.9,-13.2 21.3,-13.2 C17.9,-13.2 14.2,-12.2 10.6,-10.3 C4,-6.8 0,-0.9 0,4.2 C0,5.6 0.3,7 1,8.3 C2.8,11.6 6.6,13.3 11.2,13.3 C14.6,13.3 18.3,12.4 21.9,10.5 C28.5,7 32.5,1.1 32.5,-4 C32.5,-5.4 32.2,-6.8 31.5,-8.1"/>
<path class="Note" transform="matrix(1.89921,0,0,1.89921,2732.45,1258.45)" d="M31.5,-8.1 C29.7,-11.4 25.9,-13.2 21.3,-13.2 C17.9,-13.2 14.2,-12.2 10.6,-10.3 C4,-6.8 0,-0.9 0,4.2 C0,5.6 0.3,7 1,8.3 C2.8,11.6 6.6,13.3 11.2,13.3 C14.6,13.3 18.3,12.4 21.9,10.5 C28.5,7 32.5,1.1 32.5,-4 C32.5,-5.4 32.2,-6.8 31.5,-8.1"/>
<path class="Note" transform="matrix(1.89921,0,0,1.89921,3030.61,1210.97)" d="M31.5,-8.1 C29.7,-11.4 25.9,-13.2 21.3,-13.2 C17.9,-13.2 14.2,-12.2 10.6,-10.3 C4,-6.8 0,-0.9 0,4.2 C0,5.6 0.3,7 1,8.3 C2.8,11.6 6.6,13.3 11.2,13.3 C14.6,13.3 18.3,12.4 21.9,10.5 C28.5,7 32.5,1.1 32.5,-4 C32.5,-5.4 32.2,-6.8 31.5,-8.1"/>
<path class="Note" transform="matrix(1.89921,0,0,1.89921,3206.02,1210.97)" d="M31.5,-8.1 C29.7,-11.4 25.9,-13.2 21.3,-13.2 C17.9,-13.2 14.2,-12.2 10.6,-10.3 C4,-6.8 0,-0.9 0,4.2 C0,5.6 0.3,7 1,8.3 C2.8,11.6 6.6,13.3 11.2,13.3 C14.6,13.3 18.3,12.4 21.9,10.5 C28.5,7 32.5,1.1 32.5,-4 C32.5,-5.4 32.2,-6.8 31.5,-8.1"/>
<path class="Note" transform="matrix(1.89921,0,0,1.89921,3381.42,1234.71)" d="M31.5,-8.1 C29.7,-11.4 25.9,-13.2 21.3,-13.2 C17.9,-13.2 14.2,-12.2 10.6,-10.3 C4,-6.8 0,-0.9 0,4.2 C0,5.6 0.3,7 1,8.3 C2.8,11.6 6.6,13.3 11.2,13.3 C14.6,13.3 18.3,12.4 21.9,10.5 C28.5,7 32.5,1.1 32.5,-4 C32.5,-5.4 32.2,-6.8 31.5,-8.1"/>
<path class="Note" transform="matrix(1.89921,0,0,1.89921,3556.83,1210.97)" d="M31.5,-8.1 C29.7,-11.4 25.9,-13.2 21.3,-13.2 C17.9,-13.2 14.2,-12.2 10.6,-10.3 C4,-6.8 0,-0.9 0,4.2 C0,5.6 0.3,7 1,8.3 C2.8,11.6 6.6,13.3 11.2,13.3 C14.6,13.3 18.3,12.4 21.9,10.5 C28.5,7 32.5,1.1 32.5,-4 C32.5,-5.4 32.2,-6.8 31.5,-8.1"/>
<path class="Note" transform="matrix(1.89921,0,0,1.89921,3897.46,1187.23)" d="M31.5,-8.1 C29.7,-11.4 25.9,-13.2 21.3,-13.2 C17.9,-13.2 14.2,-12.2 10.6,-10.3 C4,-6.8 0,-0.9 0,4.2 C0,5.6 0.3,7 1,8.3 C2.8,11.6 6.6,13.3 11.2,13.3 C14.6,13.3 18.3,12.4 21.9,10.5 C28.5,7 32.5,1.1 32.5,-4 C32.5,-5.4 32.2,-6.8 31.5,-8.1"/>
<path class="Note" transform="matrix(1.89921,0,0,1.89921,735.774,1879.86)" d="M31.5,-8.1 C29.7,-11.4 25.9,-13.2 21.3,-13.2 C17.9,-13.2 14.2,-12.2 10.6,-10.3 C4,-6.8 0,-0.9 0,4.2 C0,5.6 0.3,7 1,8.3 C2.8,11.6 6.6,13.3 11.2,13.3 C14.6,13.3 18.3,12.4 21.9,10.5 C28.5,7 32.5,1.1 32.5,-4 C32.5,-5.4 32.2,-6.8 31.5,-8.1"/>
<path class="Note" transform="matrix(1.89921,0,0,1.89921,918.826,1903.6)" d="M31.5,-8.1 C29.7,-11.4 25.9,-13.2 21.3,-13.2 C17.9,-13.2 14.2,-12.2 10.6,-10.3 C4,-6.8 0,-0.9 0,4.2 C0,5.6 0.3,7 1,8.3 C2.8,11.6 6.6,13.3 11.2,13.3 C14.6,13.3 18.3,12.4 21.9,10.5 C28.5,7 32.5,1.1 32.5,-4 C32.5,-5.4 32.2,-6.8 31.5,-8.1"/>
<path class="Note" transform="matrix(1.89921,0,0,1.89921,1267.11,1927.34)" d="M31.5,-8.1 C29.7,-11.4 25.9,-13.2 21.3,-13.2 C17.9,-13.2 14.2,-12.2 10.6,-10.3 C4,-6.8 0,-0.9 0,4.2 C0,5.6 0.3,7 1,8.3 C2.8,11.6 6.6,13.3 11.2,13.3 C14.6,13.3 18.3,12.4 21.9,10.5 C28.5,7 32.5,1.1 32.5,-4 C32.5,-5.4 32.2,-6.8 31.5,-8.1"/>
<path class="Note" transform="matrix(1.89921,0,0,1.89921,1505.21,1974.82)" d="M31.5,-8.1 C29.7,-11.4 25.9,-13.2 21.3,-13.2 C17.9,-13.2 14.2,-12.2 10.6,-10.3 C4,-6.8 0,-0.9 0,4.2 C0,5.6 0.3,7 1,8.3 C2.8,11.6 6.6,13.3 11.2,13.3 C14.6,13.3 18.3,12.4 21.9,10.5 C28.5,7 32.5,1.1 32.5,-4 C32.5,-5.4 32.2,-6.8 31.5,-8.1"/>
<path class="Note" transform="matrix(1.89921,0,0,1.89921,1908.55,1951.08)" d="M31.5,-8.1 C29.7,-11.4 25.9,-13.2 21.3,-13.2 C17.9,-13.2 14.2,-12.2 10.6,-10.3 C4,-6.8 0,-0.9 0,4.2 C0,5.6 0.3,7 1,8.3 C2.8,11.6 6.6,13.3 11.2,13.3 C14.6,13.3 18.3,12.4 21.9,10.5 C28.5,7 32.5,1.1 32.5,-4 C32.5,-5.4 32.2,-6.8 31.5,-8.1"/>
<path class="Note" transform="matrix(1.89921,0,0,1.89921,2146.65,1998.56)" d="M31.5,-8.1 C29.7,-11.4 25.9,-13.2 21.3,-13.2 C17.9,-13.2 14.2,-12.2 10.6,-10.3 C4,-6.8 0,-0.9 0,4.2 C0,5.6 0.3,7 1,8.3 C2.8,11.6 6.6,13.3 11.2,13.3 C14.6,13.3 18.3,12.4 21.9,10.5 C28.5,7 32.5,1.1 32.5,-4 C32.5,-5.4 32.2,-6.8 31.5,-8.1"/>
<path class="Note" transform="matrix(1.89921,0,0,1.89921,2549.99,2022.3)" d="M31.5,-8.1 C29.7,-11.4 25.9,-13.2 21.3,-13.2 C17.9,-13.2 14.2,-12.2 10.6,-10.3 C4,-6.8 0,-0.9 0,4.2 C0,5.6 0.3,7 1,8.3 C2.8,11.6 6.6,13.3 11.2,13.3 C14.6,13.3 18.3,12.4 21.9,10.5 C28.5,7 32.5,1.1 32.5,-4 C32.5,-5.4 32.2,-6.8 31.5,-8.1"/>
<path class="Note" transform="matrix(1.89921,0,0,1.89921,3230.11,2093.52)" d="M31.5,-8.1 C29.7,-11.4 25.9,-13.2 21.3,-13.2 C17.9,-13.2 14.2,-12.2 10.6,-10.3 C4,-6.8 0,-0.9 0,4.2 C0,5.6 0.3,7 1,8.3 C2.8,11.6 6.6,13.3 11.2,13.3 C14.6,13.3 18.3,12.4 21.9,10.5 C28.5,7 32.5,1.1 32.5,-4 C32.5,-5.4 32.2,-6.8 31.5,-8.1"/>
<path class="Clef" transform="matrix(1.89921,0,0,1.89921,108.85,589.566)" d="M63.35,-5.86992 C62.12,-11.3 59.48,-15.1199 58.7,-16.16 C55.51,-20.43 51.5,-23.28 46.81,-24.63 C43.7,-25.5199 40.7,-25.63 38.28,-25.45 C37.24,-31.46 36.24,-37.3399 35.33,-42.7899 C40.78,-48.96 44.4,-54.76 46.68,-59.06 C50.15,-65.6399 51.3,-70.2199 51.35,-70.4199 C53.07,-75.63 53.43,-83.33 52.33,-91.5399 C51.32,-99.0899 49.23,-105.8 46.88,-109.05 C45.85,-110.48 44.8,-111.21 43.76,-111.21 C42.54,-111.21 40.03,-109.97 37.14,-107.2 C34.84,-105 31.57,-101.11 29.01,-95.1 C26.01,-88.0399 25.8,-78.55 26.15,-71.83 C26.53,-64.56 27.64,-58.8699 27.65,-58.8199 C27.67,-58.73 27.93,-57.23 28.38,-54.66 C28.15,-54.43 27.91,-54.21 27.66,-53.9699 C26.62,-52.9699 25.43,-51.83 24.05,-50.45 C23.19,-49.5899 22.24,-48.68 21.24,-47.71 C12.79,-39.5699 0,-27.25 0,-8.1 C0,-3.4 0.9,1.02002 2.67998,5.03008 C4.27002,8.63008 6.57002,11.9101 9.5,14.7801 C17.23,22.3301 27.82,25.54 34.88,25.3801 C37.83,25.3101 40.46,25.07 42.85,24.62 C44.68,34.22 45.82,41.25 45.86,46.59 C45.9,53.1 44.25,57.07 40.35,59.84 C37.92,61.57 35.11,62.52 32.01,62.67 C29.42,62.79 27.16,62.32 25.73,61.9101 L25.72,61.9101 C25.72,61.9101 25.43,61.8301 25.42,61.6301 C25.41,61.45 25.76,61.4 25.77,61.4 L25.79,61.4 C27.71,60.9601 31.28,59.7301 33.64,56.4301 C35.44,53.9101 36.31,49.29 34.47,45.35 C33.36,42.9601 30.85,40.0101 25.23,39.5601 C22.74,39.3601 20.47,39.87 18.47,41.07 C16.66,42.15 15.16,43.79 14.11,45.79 C11.65,50.49 12.11,56.22 15.24,60.0601 C18.2,63.6801 22.82,65.99 28.25,66.57 C29.1,66.6601 29.95,66.7 30.8,66.7 C35.23,66.7 39.63,65.5 43.2,63.29 C46.86,60.72 48.98,56.74 49.66,51.1101 C50.22,46.47 49.83,40.5601 48.43,32.49 C48.07,30.4 47.53,27.37 46.87,23.6101 C52.62,21.69 56.78,18.12 60.55,12.27 C63.84,6.53008 64.78,0.430078 63.35,-5.86992 M29.14,20.32 C24.5,19.1 20.07,16.6 16.31,13.1 C15,11.87 13.13,9.7 11.66,6.31006 C10.29,3.15 9.62998,-0.27998 9.67998,-3.86992 C9.75,-8.55996 11.06,-13.38 13.57,-18.1699 C16.49,-23.75 21.05,-29.28 27.11,-34.61 C28.56,-35.8899 29.93,-37.1699 31.22,-38.45 C31.98,-34.1899 32.81,-29.5 33.69,-24.6199 C29.84,-23.35 25.09,-20.2 21.98,-14.55 C18.44,-7.97998 18.58,-2.45996 19.31,1.02002 C20.25,5.48008 22.78,9.24004 26.24,11.3301 C27.17,11.89 31.3,14.02 33.14,13.44 C33.51,13.32 33.78,13.1 33.92,12.77 C34.43,11.6 33.41,10.9601 31.85,10 C31.25,9.63008 30.58,9.21006 29.85,8.68008 C26.53,6.19004 25.08,1.74004 26.15,-2.63994 C26.73,-5.03994 28.01,-7.2 29.85,-8.9 C31.52,-10.45 33.56,-11.55 35.94,-12.1899 C37.98,-0.95 40.04,10.2 41.68,18.5601 C41.81,19.25 41.95,19.92 42.08,20.59 C37.7,21.52 33.35,21.4301 29.14,20.32 M40.46,-12.86 C50.81,-13.33 55.08,-5.88994 55.97,-1.05996 C56.44,1.47002 56.43,5.91006 54.89,10.12 C53.72,13.3 51.26,17.37 46.13,19.4301 C46.06,19.0101 45.98,18.5801 45.9,18.15 C44.36,9.38008 42.42,-1.60996 40.46,-12.86 M33.14,-83.8 C34.92,-89.5399 37.66,-92.7899 39.65,-94.5199 C41.4,-96.0399 43.05,-96.75 43.97,-96.75 C44.11,-96.75 44.23,-96.73 44.33,-96.7 C44.79,-96.56 45.32,-95.9899 45.79,-95.1199 C48.1,-90.83 47.36,-84.1199 46.02,-79.68 C44.39,-74.28 41.47,-68.66 32.67,-59.05 C32.5,-60.16 32.34,-61.21 32.19,-62.1899 C30.94,-70.48 31.26,-77.75 33.14,-83.8"/>
<path class="Clef" transform="matrix(1.89921,0,0,1.89921,108.85,1305.93)" d="M63.35,-5.86992 C62.12,-11.3 59.48,-15.1199 58.7,-16.16 C55.51,-20.43 51.5,-23.28 46.81,-24.63 C43.7,-25.5199 40.7,-25.63 38.28,-25.45 C37.24,-31.46 36.24,-37.3399 35.33,-42.7899 C40.78,-48.96 44.4,-54.76 46.68,-59.06 C50.15,-65.6399 51.3,-70.2199 51.35,-70.4199 C53.07,-75.63 53.43,-83.33 52.33,-91.5399 C51.32,-99.0899 49.23,-105.8 46.88,-109.05 C45.85,-110.48 44.8,-111.21 43.76,-111.21 C42.54,-111.21 40.03,-109.97 37.14,-107.2 C34.84,-105 31.57,-101.11 29.01,-95.1 C26.01,-88.0399 25.8,-78.55 26.15,-71.83 C26.53,-64.56 27.64,-58.8699 27.65,-58.8199 C27.67,-58.73 27.93,-57.23 28.38,-54.66 C28.15,-54.43 27.91,-54.21 27.66,-53.9699 C26.62,-52.9699 25.43,-51.83 24.05,-50.45 C23.19,-49.5899 22.24,-48.68 21.24,-47.71 C12.79,-39.5699 0,-27.25 0,-8.1 C0,-3.4 0.9,1.02002 2.67998,5.03008 C4.27002,8.63008 6.57002,11.9101 9.5,14.7801 C17.23,22.3301 27.82,25.54 34.88,25.3801 C37.83,25.3101 40.46,25.07 42.85,24.62 C44.68,34.22 45.82,41.25 45.86,46.59 C45.9,53.1 44.25,57.07 40.35,59.84 C37.92,61.57 35.11,62.52 32.01,62.67 C29.42,62.79 27.16,62.32 25.73,61.9101 L25.72,61.9101 C25.72,61.9101 25.43,61.8301 25.42,61.6301 C25.41,61.45 25.76,61.4 25.77,61.4 L25.79,61.4 C27.71,60.9601 31.28,59.7301 33.64,56.4301 C35.44,53.9101 36.31,49.29 34.47,45.35 C33.36,42.9601 30.85,40.0101 25.23,39.5601 C22.74,39.3601 20.47,39.87 18.47,41.07 C16.66,42.15 15.16,43.79 14.11,45.79 C11.65,50.49 12.11,56.22 15.24,60.0601 C18.2,63.6801 22.82,65.99 28.25,66.57 C29.1,66.6601 29.95,66.7 30.8,66.7 C35.23,66.7 39.63,65.5 43.2,63.29 C46.86,60.72 48.98,56.74 49.66,51.1101 C50.22,46.47 49.83,40.5601 48.43,32.49 C48.07,30.4 47.53,27.37 46.87,23.6101 C52.62,21.69 56.78,18.12 60.55,12.27 C63.84,6.53008 64.78,0.430078 63.35,-5.86992 M29.14,20.32 C24.5,19.1 20.07,16.6 16.31,13.1 C15,11.87 13.13,9.7 11.66,6.31006 C10.29,3.15 9.62998,-0.27998 9.67998,-3.86992 C9.75,-8.55996 11.06,-13.38 13.57,-18.1699 C16.49,-23.75 21.05,-29.28 27.11,-34.61 C28.56,-35.8899 29.93,-37.1699 31.22,-38.45 C31.98,-34.1899 32.81,-29.5 33.69,-24.6199 C29.84,-23.35 25.09,-20.2 21.98,-14.55 C18.44,-7.97998 18.58,-2.45996 19.31,1.02002 C20.25,5.48008 22.78,9.24004 26.24,11.3301 C27.17,11.89 31.3,14.02 33.14,13.44 C33.51,13.32 33.78,13.1 33.92,12.77 C34.43,11.6 33.41,10.9601 31.85,10 C31.25,9.63008 30.58,9.21006 29.85,8.68008 C26.53,6.19004 25.08,1.74004 26.15,-2.63994 C26.73,-5.03994 28.01,-7.2 29.85,-8.9 C31.52,-10.45 33.56,-11.55 35.94,-12.1899 C37.98,-0.95 40.04,10.2 41.68,18.5601 C41.81,19.25 41.95,19.92 42.08,20.59 C37.7,21.52 33.35,21.4301 29.14,20.32 M40.46,-12.86 C50.81,-13.33 55.08,-5.88994 55.97,-1.05996 C56.44,1.47002 56.43,5.91006 54.89,10.12 C53.72,13.3 51.26,17.37 46.13,19.4301 C46.06,19.0101 45.98,18.5801 45.9,18.15 C44.36,9.38008 42.42,-1.60996 40.46,-12.86 M33.14,-83.8 C34.92,-89.5399 37.66,-92.7899 39.65,-94.5199 C41.4,-96.0399 43.05,-96.75 43.97,-96.75 C44.11,-96.75 44.23,-96.73 44.33,-96.7 C44.79,-96.56 45.32,-95.9899 45.79,-95.1199 C48.1,-90.83 47.36,-84.1199 46.02,-79.68 C44.39,-74.28 41.47,-68.66 32.67,-59.05 C32.5,-60.16 32.34,-61.21 32.19,-62.1899 C30.94,-70.48 31.26,-77.75 33.14,-83.8"/>
<path class="Clef" transform="matrix(1.89921,0,0,1.89921,108.85,2022.3)" d="M63.35,-5.86992 C62.12,-11.3 59.48,-15.1199 58.7,-16.16 C55.51,-20.43 51.5,-23.28 46.81,-24.63 C43.7,-25.5199 40.7,-25.63 38.28,-25.45 C37.24,-31.46 36.24,-37.3399 35.33,-42.7899 C40.78,-48.96 44.4,-54.76 46.68,-59.06 C50.15,-65.6399 51.3,-70.2199 51.35,-70.4199 C53.07,-75.63 53.43,-83.33 52.33,-91.5399 C51.32,-99.0899 49.23,-105.8 46.88,-109.05 C45.85,-110.48 44.8,-111.21 43.76,-111.21 C42.54,-111.21 40.03,-109.97 37.14,-107.2 C34.84,-105 31.57,-101.11 29.01,-95.1 C26.01,-88.0399 25.8,-78.55 26.15,-71.83 C26.53,-64.56 27.64,-58.8699 27.65,-58.8199 C27.67,-58.73 27.93,-57.23 28.38,-54.66 C28.15,-54.43 27.91,-54.21 27.66,-53.9699 C26.62,-52.9699 25.43,-51.83 24.05,-50.45 C23.19,-49.5899 22.24,-48.68 21.24,-47.71 C12.79,-39.5699 0,-27.25 0,-8.1 C0,-3.4 0.9,1.02002 2.67998,5.03008 C4.27002,8.63008 6.57002,11.9101 9.5,14.7801 C17.23,22.3301 27.82,25.54 34.88,25.3801 C37.83,25.3101 40.46,25.07 42.85,24.62 C44.68,34.22 45.82,41.25 45.86,46.59 C45.9,53.1 44.25,57.07 40.35,59.84 C37.92,61.57 35.11,62.52 32.01,62.67 C29.42,62.79 27.16,62.32 25.73,61.9101 L25.72,61.9101 C25.72,61.9101 25.43,61.8301 25.42,61.6301 C25.41,61.45 25.76,61.4 25.77,61.4 L25.79,61.4 C27.71,60.9601 31.28,59.7301 33.64,56.4301 C35.44,53.9101 36.31,49.29 34.47,45.35 C33.36,42.9601 30.85,40.0101 25.23,39.5601 C22.74,39.3601 20.47,39.87 18.47,41.07 C16.66,42.15 15.16,43.79 14.11,45.79 C11.65,50.49 12.11,56.22 15.24,60.0601 C18.2,63.6801 22.82,65.99 28.25,66.57 C29.1,66.6601 29.95,66.7 30.8,66.7 C35.23,66.7 39.63,65.5 43.2,63.29 C46.86,60.72 48.98,56.74 49.66,51.1101 C50.22,46.47 49.83,40.5601 48.43,32.49 C48.07,30.4 47.53,27.37 46.87,23.6101 C52.62,21.69 56.78,18.12 60.55,12.27 C63.84,6.53008 64.78,0.430078 63.35,-5.86992 M29.14,20.32 C24.5,19.1 20.07,16.6 16.31,13.1 C15,11.87 13.13,9.7 11.66,6.31006 C10.29,3.15 9.62998,-0.27998 9.67998,-3.86992 C9.75,-8.55996 11.06,-13.38 13.57,-18.1699 C16.49,-23.75 21.05,-29.28 27.11,-34.61 C28.56,-35.8899 29.93,-37.1699 31.22,-38.45 C31.98,-34.1899 32.81,-29.5 33.69,-24.6199 C29.84,-23.35 25.09,-20.2 21.98,-14.55 C18.44,-7.97998 18.58,-2.45996 19.31,1.02002 C20.25,5.48008 22.78,9.24004 26.24,11.3301 C27.17,11.89 31.3,14.02 33.14,13.44 C33.51,13.32 33.78,13.1 33.92,12.77 C34.43,11.6 33.41,10.9601 31.85,10 C31.25,9.63008 30.58,9.21006 29.85,8.68008 C26.53,6.19004 25.08,1.74004 26.15,-2.63994 C26.73,-5.03994 28.01,-7.2 29.85,-8.9 C31.52,-10.45 33.56,-11.55 35.94,-12.1899 C37.98,-0.95 40.04,10.2 41.68,18.5601 C41.81,19.25 41.95,19.92 42.08,20.59 C37.7,21.52 33.35,21.4301 29.14,20.32 M40.46,-12.86 C50.81,-13.33 55.08,-5.88994 55.97,-1.05996 C56.44,1.47002 56.43,5.91006 54.89,10.12 C53.72,13.3 51.26,17.37 46.13,19.4301 C46.06,19.0101 45.98,18.5801 45.9,18.15 C44.36,9.38008 42.42,-1.60996 40.46,-12.86 M33.14,-83.8 C34.92,-89.5399 37.66,-92.7899 39.65,-94.5199 C41.4,-96.0399 43.05,-96.75 43.97,-96.75 C44.11,-96.75 44.23,-96.73 44.33,-96.7 C44.79,-96.56 45.32,-95.9899 45.79,-95.1199 C48.1,-90.83 47.36,-84.1199 46.02,-79.68 C44.39,-74.28 41.47,-68.66 32.67,-59.05 C32.5,-60.16 32.34,-61.21 32.19,-62.1899 C30.94,-70.48 31.26,-77.75 33.14,-83.8"/>
<path class="KeySig" transform="matrix(1.89921,0,0,1.89921,277.85,447.125)" d="M23.3,-10.6 C23.9,-10.7 24.4,-11.4 24.4,-12 L24.4,-17.9 C24.4,-18.7 23.8,-19.3 23,-19.3 L22.8,-19.3 L19.5,-18.6 L19.5,-33.5 L16.7,-33.5 L16.7,-18 L7.8,-16.2 L7.8,-30.3 L5,-30.3 L5,-15.6 L1.1,-14.8 C0.5,-14.7 0,-14 0,-13.4 L0,-13.2 L0,-7.4 L0,-7.6 C0,-6.8 0.6,-6.2 1.4,-6.2 L1.7,-6.2 L5,-6.9 L5,9.6 L1.1,10.4 C0.5,10.5 0,11.2 0,11.8 L0,17.6 C0,18.4 0.6,19 1.4,19 L1.7,19 L5,18.3 L5,33.2 L7.8,33.2 L7.8,17.7 L16.7,15.9 L16.7,30 L19.5,30 L19.5,15.3 L23.3,14.6 C23.9,14.5 24.4,13.8 24.4,13.2 L24.4,7.3 C24.4,6.5 23.8,5.9 23,5.9 L22.8,5.9 L19.5,6.6 L19.5,-9.9 L23.3,-10.6 M7.8,9.1 L7.8,-7.5 L16.7,-9.3 L16.7,7.2 L7.8,9.1 "/>
<path class="KeySig" transform="matrix(1.89921,0,0,1.89921,277.85,1163.49)" d="M23.3,-10.6 C23.9,-10.7 24.4,-11.4 24.4,-12 L24.4,-17.9 C24.4,-18.7 23.8,-19.3 23,-19.3 L22.8,-19.3 L19.5,-18.6 L19.5,-33.5 L16.7,-33.5 L16.7,-18 L7.8,-16.2 L7.8,-30.3 L5,-30.3 L5,-15.6 L1.1,-14.8 C0.5,-14.7 0,-14 0,-13.4 L0,-13.2 L0,-7.4 L0,-7.6 C0,-6.8 0.6,-6.2 1.4,-6.2 L1.7,-6.2 L5,-6.9 L5,9.6 L1.1,10.4 C0.5,10.5 0,11.2 0,11.8 L0,17.6 C0,18.4 0.6,19 1.4,19 L1.7,19 L5,18.3 L5,33.2 L7.8,33.2 L7.8,17.7 L16.7,15.9 L16.7,30 L19.5,30 L19.5,15.3 L23.3,14.6 C23.9,14.5 24.4,13.8 24.4,13.2 L24.4,7.3 C24.4,6.5 23.8,5.9 23,5.9 L22.8,5.9 L19.5,6.6 L19.5,-9.9 L23.3,-10.6 M7.8,9.1 L7.8,-7.5 L16.7,-9.3 L16.7,7.2 L7.8,9.1 "/>
<path class="KeySig" transform="matrix(1.89921,0,0,1.89921,277.85,1879.86)" d="M23.3,-10.6 C23.9,-10.7 24.4,-11.4 24.4,-12 L24.4,-17.9 C24.4,-18.7 23.8,-19.3 23,-19.3 L22.8,-19.3 L19.5,-18.6 L19.5,-33.5 L16.7,-33.5 L16.7,-18 L7.8,-16.2 L7.8,-30.3 L5,-30.3 L5,-15.6 L1.1,-14.8 C0.5,-14.7 0,-14 0,-13.4 L0,-13.2 L0,-7.4 L0,-7.6 C0,-6.8 0.6,-6.2 1.4,-6.2 L1.7,-6.2 L5,-6.9 L5,9.6 L1.1,10.4 C0.5,10.5 0,11.2 0,11.8 L0,17.6 C0,18.4 0.6,19 1.4,19 L1.7,19 L5,18.3 L5,33.2 L7.8,33.2 L7.8,17.7 L16.7,15.9 L16.7,30 L19.5,30 L19.5,15.3 L23.3,14.6 C23.9,14.5 24.4,13.8 24.4,13.2 L24.4,7.3 C24.4,6.5 23.8,5.9 23,5.9 L22.8,5.9 L19.5,6.6 L19.5,-9.9 L23.3,-10.6 M7.8,9.1 L7.8,-7.5 L16.7,-9.3 L16.7,7.2 L7.8,9.1 "/>
<path class="TimeSig" transform="matrix(1.89921,0,0,1.89921,375.319,495.555)" d="M34.2,3.9 C33.4,6.1 31.4,13.3 26.5,13.3 C20,13.3 18.6,9.3 13.2,9.3 C12.4,9.3 11.6,9.4 10.6,9.6 C10.6,9.6 13.1,5.8 23.7,2.5 C34.3,-0.8 37,-6 37,-12 C37,-16.2 35.1,-24.5 20,-24.5 C4.9,-24.5 2.1,-15.4 2.1,-10.8 C2.1,-6.7 5.5,-3.4 9.6,-3.4 C13.7,-3.4 17,-6.7 17,-10.8 C17,-13.6 15,-16.7 12.4,-17.7 C12.1,-17.8 11.7,-18.3 11.7,-18.8 C11.7,-19.4 12.2,-20.1 14,-20.6 C14.5,-20.8 15.9,-21.1 17.4,-21.1 C18.8,-21.1 20.4,-20.8 21.6,-20 C23.5,-18.8 24.2,-17 24.2,-12.5 C24.2,-0.8 10.3,1.7 4.5,10.4 C4.5,10.4 1.5,14.6 1.5,19.3 C1.5,24 3.9,24.3 5.1,24.3 C6.7,24.3 8.4,23 8.4,21.2 C8.4,20.8 8.3,20.4 8.1,19.9 C7.5,18.5 7.3,17.4 7.3,16.6 C7.3,16.3 7.3,16 7.4,15.7 C7.5,15.1 8.3,14.1 10.7,14.1 C13.6,14.1 14.7,17.5 16.5,20.1 C18.3,22.7 21.1,24.3 24.3,24.3 C27.5,24.3 31.8,22 33.6,18.3 C35.4,14.6 37.7,7.1 37.7,4.4 C37.7,3.1 36.9,2.5 36,2.5 C35.3,2.5 34.6,2.9 34.2,3.9"/>
<path class="TimeSig" transform="matrix(1.89921,0,0,1.89921,369.057,589.314)" d="M3.59004,12.65 L20.77,12.65 L20.77,20.07 L12.54,20.07 C11.7601,20.07 11.1301,20.7 11.1301,21.48 L11.1301,23.39 C11.1301,24.17 11.7601,24.8 12.54,24.8 L42.79,24.8 C43.57,24.8 44.2,24.17 44.2,23.39 L44.2,21.48 C44.2,20.7 43.57,20.07 42.79,20.07 L33.85,20.07 L33.85,12.65 L42.79,12.65 C43.57,12.65 44.2,12.02 44.2,11.24 L44.2,9.32998 C44.2,8.55 43.57,7.92002 42.79,7.92002 L33.85,7.92002 L33.85,-8.04004 C33.85,-8.57998 33.55,-9.05996 33.07,-9.3 L31.8601,-9.9 C31.3301,-10.16 30.7,-10.07 30.27,-9.67002 L21.22,-1.35 C20.9301,-1.07998 20.7601,-0.709961 20.7601,-0.309961 L20.7601,7.92002 L9.25,7.92002 C9.25,7.92002 20.37,-4.10996 32.2101,-19.88 C33.0801,-21.03 32.5801,-22.08 32.39,-22.27 L30.22,-24.48 C29.95,-24.74 29.59,-24.89 29.22,-24.89 C28.62,-24.89 15.07,-24.87 14.35,-24.89 C13.6301,-24.91 13.09,-24.29 13.02,-23.67 C13.02,-23.67 12.4801,-16.31 9.88008,-8.17998 C7.28008,-0.0599609 4.34004,4.92002 1.68008,8.55 C1.68008,8.55 1.14004,9.54004 1.5,10.28 C1.85,11.03 2.48008,12.12 2.48008,12.12 C2.48008,12.12 2.74004,12.65 3.59004,12.65"/>
<path class="Rest" transform="matrix(1.89921,0,0,1.89921,547.954,542.085)" d="M23.2,16.9 L23,16.6 C22.9,16.5 22.7,16.3 22.4,15.9 L10.9,1.7 C10.6,1.4 10.7,0.6 10.9,0.2 L21.1,-15.2 C21.2,-15.4 21.3,-15.7 21.3,-15.9 L21.3,-16.8 C21.3,-17.1 21.2,-17.4 21,-17.6 L4.8,-39.5 C4.8,-39.5 4,-40.7 3,-39.8 C2,-39 2.8,-37.7 2.8,-37.7 L10.4,-27.3 C10.8,-26.7 10.8,-25.5 10.4,-24.9 L0.3,-9.5 C0.2,-9.3 0.1,-8.9 0.1,-8.7 L0.1,-7.8 C0.1,-7.5 0.2,-7.2 0.4,-7 L11.6,6.9 C11.2,6.8 10.3,6.6 9.1,6.6 C7.4,6.6 5.2,7 3.4,8.6 C1.2,10.6 0,13.4 0,15.9 C0,17.3 0.3,18.7 1.1,19.8 C3.2,23 10.7,32.5 10.7,32.5 C10.7,32.5 11.6,33.6 12.5,32.9 C13.4,32.2 13.2,31.3 12.9,30.8 C12.6,30.3 9.4,24.5 9.4,24.5 C9.4,24.5 8.7,23.1 8.7,21.3 C8.7,20 9.1,18.4 10.4,17.1 C11.6,15.9 13,15.5 14.3,15.5 C15.6,15.5 16.7,15.9 17.5,16.4 L21.4,18.9 C21.4,18.9 22.6,19.5 23.2,18.6 C23.7,17.8 23.5,17.4 23.2,16.9"/>
<path class="Rest" transform="matrix(1.89921,0,0,1.89921,2748.1,542.085)" d="M23.2,16.9 L23,16.6 C22.9,16.5 22.7,16.3 22.4,15.9 L10.9,1.7 C10.6,1.4 10.7,0.6 10.9,0.2 L21.1,-15.2 C21.2,-15.4 21.3,-15.7 21.3,-15.9 L21.3,-16.8 C21.3,-17.1 21.2,-17.4 21,-17.6 L4.8,-39.5 C4.8,-39.5 4,-40.7 3,-39.8 C2,-39 2.8,-37.7 2.8,-37.7 L10.4,-27.3 C10.8,-26.7 10.8,-25.5 10.4,-24.9 L0.3,-9.5 C0.2,-9.3 0.1,-8.9 0.1,-8.7 L0.1,-7.8 C0.1,-7.5 0.2,-7.2 0.4,-7 L11.6,6.9 C11.2,6.8 10.3,6.6 9.1,6.6 C7.4,6.6 5.2,7 3.4,8.6 C1.2,10.6 0,13.4 0,15.9 C0,17.3 0.3,18.7 1.1,19.8 C3.2,23 10.7,32.5 10.7,32.5 C10.7,32.5 11.6,33.6 12.5,32.9 C13.4,32.2 13.2,31.3 12.9,30.8 C12.6,30.3 9.4,24.5 9.4,24.5 C9.4,24.5 8.7,23.1 8.7,21.3 C8.7,20 9.1,18.4 10.4,17.1 C11.6,15.9 13,15.5 14.3,15.5 C15.6,15.5 16.7,15.9 17.5,16.4 L21.4,18.9 C21.4,18.9 22.6,19.5 23.2,18.6 C23.7,17.8 23.5,17.4 23.2,16.9"/>
<path class="Rest" transform="matrix(1.89921,0,0,1.89921,3003.06,542.085)" d="M23.2,16.9 L23,16.6 C22.9,16.5 22.7,16.3 22.4,15.9 L10.9,1.7 C10.6,1.4 10.7,0.6 10.9,0.2 L21.1,-15.2 C21.2,-15.4 21.3,-15.7 21.3,-15.9 L21.3,-16.8 C21.3,-17.1 21.2,-17.4 21,-17.6 L4.8,-39.5 C4.8,-39.5 4,-40.7 3,-39.8 C2,-39 2.8,-37.7 2.8,-37.7 L10.4,-27.3 C10.8,-26.7 10.8,-25.5 10.4,-24.9 L0.3,-9.5 C0.2,-9.3 0.1,-8.9 0.1,-8.7 L0.1,-7.8 C0.1,-7.5 0.2,-7.2 0.4,-7 L11.6,6.9 C11.2,6.8 10.3,6.6 9.1,6.6 C7.4,6.6 5.2,7 3.4,8.6 C1.2,10.6 0,13.4 0,15.9 C0,17.3 0.3,18.7 1.1,19.8 C3.2,23 10.7,32.5 10.7,32.5 C10.7,32.5 11.6,33.6 12.5,32.9 C13.4,32.2 13.2,31.3 12.9,30.8 C12.6,30.3 9.4,24.5 9.4,24.5 C9.4,24.5 8.7,23.1 8.7,21.3 C8.7,20 9.1,18.4 10.4,17.1 C11.6,15.9 13,15.5 14.3,15.5 C15.6,15.5 16.7,15.9 17.5,16.4 L21.4,18.9 C21.4,18.9 22.6,19.5 23.2,18.6 C23.7,17.8 23.5,17.4 23.2,16.9"/>
<path class="Rest" transform="matrix(1.89921,0,0,1.89921,3707.2,542.085)" d="M26.73,-20.26 C25.9899,-20.5399 25.31,-20.21 24.98,-19.6 C24.65,-18.9899 21.4699,-13.06 17.0399,-9.8 C15.65,-8.77998 14.0699,-8.13994 12.5,-7.80996 C13.6199,-9.06992 14.3,-10.73 14.3,-12.55 C14.3,-16.5 11.1,-19.7 7.15,-19.7 C3.2,-19.7 0,-16.5 0,-12.55 C0,-9.53994 1.86992,-6.95996 4.50996,-5.90996 C6.03994,-5.17998 7.95,-4.73994 10,-4.73994 C12.85,-4.73994 15.96,-5.56992 18.6699,-7.55996 C19.93,-8.48994 21.13,-9.67998 22.21,-10.9399 L10.8199,24.69 L13.46,25.54 L27.53,-18.55 C27.76,-19.28 27.4699,-19.9699 26.73,-20.26"/>
<path class="Rest" transform="matrix(1.89921,0,0,1.89921,3829.96,542.085)" d="M26.73,-20.26 C25.9899,-20.5399 25.31,-20.21 24.98,-19.6 C24.65,-18.9899 21.4699,-13.06 17.0399,-9.8 C15.65,-8.77998 14.0699,-8.13994 12.5,-7.80996 C13.6199,-9.06992 14.3,-10.73 14.3,-12.55 C14.3,-16.5 11.1,-19.7 7.15,-19.7 C3.2,-19.7 0,-16.5 0,-12.55 C0,-9.53994 1.86992,-6.95996 4.50996,-5.90996 C6.03994,-5.17998 7.95,-4.73994 10,-4.73994 C12.85,-4.73994 15.96,-5.56992 18.6699,-7.55996 C19.93,-8.48994 21.13,-9.67998 22.21,-10.9399 L10.8199,24.69 L13.46,25.54 L27.53,-18.55 C27.76,-19.28 27.4699,-19.9699 26.73,-20.26"/>
<path class="Rest" transform="matrix(1.89921,0,0,1.89921,1811.02,1258.45)" d="M23.2,16.9 L23,16.6 C22.9,16.5 22.7,16.3 22.4,15.9 L10.9,1.7 C10.6,1.4 10.7,0.6 10.9,0.2 L21.1,-15.2 C21.2,-15.4 21.3,-15.7 21.3,-15.9 L21.3,-16.8 C21.3,-17.1 21.2,-17.4 21,-17.6 L4.8,-39.5 C4.8,-39.5 4,-40.7 3,-39.8 C2,-39 2.8,-37.7 2.8,-37.7 L10.4,-27.3 C10.8,-26.7 10.8,-25.5 10.4,-24.9 L0.3,-9.5 C0.2,-9.3 0.1,-8.9 0.1,-8.7 L0.1,-7.8 C0.1,-7.5 0.2,-7.2 0.4,-7 L11.6,6.9 C11.2,6.8 10.3,6.6 9.1,6.6 C7.4,6.6 5.2,7 3.4,8.6 C1.2,10.6 0,13.4 0,15.9 C0,17.3 0.3,18.7 1.1,19.8 C3.2,23 10.7,32.5 10.7,32.5 C10.7,32.5 11.6,33.6 12.5,32.9 C13.4,32.2 13.2,31.3 12.9,30.8 C12.6,30.3 9.4,24.5 9.4,24.5 C9.4,24.5 8.7,23.1 8.7,21.3 C8.7,20 9.1,18.4 10.4,17.1 C11.6,15.9 13,15.5 14.3,15.5 C15.6,15.5 16.7,15.9 17.5,16.4 L21.4,18.9 C21.4,18.9 22.6,19.5 23.2,18.6 C23.7,17.8 23.5,17.4 23.2,16.9"/>
<path class="Rest" transform="matrix(1.89921,0,0,1.89921,1931.79,1258.45)" d="M26.73,-20.26 C25.9899,-20.5399 25.31,-20.21 24.98,-19.6 C24.65,-18.9899 21.4699,-13.06 17.0399,-9.8 C15.65,-8.77998 14.0699,-8.13994 12.5,-7.80996 C13.6199,-9.06992 14.3,-10.73 14.3,-12.55 C14.3,-16.5 11.1,-19.7 7.15,-19.7 C3.2,-19.7 0,-16.5 0,-12.55 C0,-9.53994 1.86992,-6.95996 4.50996,-5.90996 C6.03994,-5.17998 7.95,-4.73994 10,-4.73994 C12.85,-4.73994 15.96,-5.56992 18.6699,-7.55996 C19.93,-8.48994 21.13,-9.67998 22.21,-10.9399 L10.8199,24.69 L13.46,25.54 L27.53,-18.55 C27.76,-19.28 27.4699,-19.9699 26.73,-20.26"/>
<path class="Rest" transform="matrix(1.89921,0,0,1.89921,2566.29,1258.45)" d="M26.73,-20.26 C25.9899,-20.5399 25.31,-20.21 24.98,-19.6 C24.65,-18.9899 21.4699,-13.06 17.0399,-9.8 C15.65,-8.77998 14.0699,-8.13994 12.5,-7.80996 C13.6199,-9.06992 14.3,-10.73 14.3,-12.55 C14.3,-16.5 11.1,-19.7 7.15,-19.7 C3.2,-19.7 0,-16.5 0,-12.55 C0,-9.53994 1.86992,-6.95996 4.50996,-5.90996 C6.03994,-5.17998 7.95,-4.73994 10,-4.73994 C12.85,-4.73994 15.96,-5.56992 18.6699,-7.55996 C19.93,-8.48994 21.13,-9.67998 22.21,-10.9399 L10.8199,24.69 L13.46,25.54 L27.53,-18.55 C27.76,-19.28 27.4699,-19.9699 26.73,-20.26"/>
<path class="Rest" transform="matrix(1.89921,0,0,1.89921,3996.13,1258.45)" d="M23.2,16.9 L23,16.6 C22.9,16.5 22.7,16.3 22.4,15.9 L10.9,1.7 C10.6,1.4 10.7,0.6 10.9,0.2 L21.1,-15.2 C21.2,-15.4 21.3,-15.7 21.3,-15.9 L21.3,-16.8 C21.3,-17.1 21.2,-17.4 21,-17.6 L4.8,-39.5 C4.8,-39.5 4,-40.7 3,-39.8 C2,-39 2.8,-37.7 2.8,-37.7 L10.4,-27.3 C10.8,-26.7 10.8,-25.5 10.4,-24.9 L0.3,-9.5 C0.2,-9.3 0.1,-8.9 0.1,-8.7 L0.1,-7.8 C0.1,-7.5 0.2,-7.2 0.4,-7 L11.6,6.9 C11.2,6.8 10.3,6.6 9.1,6.6 C7.4,6.6 5.2,7 3.4,8.6 C1.2,10.6 0,13.4 0,15.9 C0,17.3 0.3,18.7 1.1,19.8 C3.2,23 10.7,32.5 10.7,32.5 C10.7,32.5 11.6,33.6 12.5,32.9 C13.4,32.2 13.2,31.3 12.9,30.8 C12.6,30.3 9.4,24.5 9.4,24.5 C9.4,24.5 8.7,23.1 8.7,21.3 C8.7,20 9.1,18.4 10.4,17.1 C11.6,15.9 13,15.5 14.3,15.5 C15.6,15.5 16.7,15.9 17.5,16.4 L21.4,18.9 C21.4,18.9 22.6,19.5 23.2,18.6 C23.7,17.8 23.5,17.4 23.2,16.9"/>
<path class="Rest" transform="matrix(1.89921,0,0,1.89921,442.889,1974.82)" d="M23.2,16.9 L23,16.6 C22.9,16.5 22.7,16.3 22.4,15.9 L10.9,1.7 C10.6,1.4 10.7,0.6 10.9,0.2 L21.1,-15.2 C21.2,-15.4 21.3,-15.7 21.3,-15.9 L21.3,-16.8 C21.3,-17.1 21.2,-17.4 21,-17.6 L4.8,-39.5 C4.8,-39.5 4,-40.7 3,-39.8 C2,-39 2.8,-37.7 2.8,-37.7 L10.4,-27.3 C10.8,-26.7 10.8,-25.5 10.4,-24.9 L0.3,-9.5 C0.2,-9.3 0.1,-8.9 0.1,-8.7 L0.1,-7.8 C0.1,-7.5 0.2,-7.2 0.4,-7 L11.6,6.9 C11.2,6.8 10.3,6.6 9.1,6.6 C7.4,6.6 5.2,7 3.4,8.6 C1.2,10.6 0,13.4 0,15.9 C0,17.3 0.3,18.7 1.1,19.8 C3.2,23 10.7,32.5 10.7,32.5 C10.7,32.5 11.6,33.6 12.5,32.9 C13.4,32.2 13.2,31.3 12.9,30.8 C12.6,30.3 9.4,24.5 9.4,24.5 C9.4,24.5 8.7,23.1 8.7,21.3 C8.7,20 9.1,18.4 10.4,17.1 C11.6,15.9 13,15.5 14.3,15.5 C15.6,15.5 16.7,15.9 17.5,16.4 L21.4,18.9 C21.4,18.9 22.6,19.5 23.2,18.6 C23.7,17.8 23.5,17.4 23.2,16.9"/>
<path class="Rest" transform="matrix(1.89921,0,0,1.89921,2735.86,1974.82)" d="M23.2,16.9 L23,16.6 C22.9,16.5 22.7,16.3 22.4,15.9 L10.9,1.7 C10.6,1.4 10.7,0.6 10.9,0.2 L21.1,-15.2 C21.2,-15.4 21.3,-15.7 21.3,-15.9 L21.3,-16.8 C21.3,-17.1 21.2,-17.4 21,-17.6 L4.8,-39.5 C4.8,-39.5 4,-40.7 3,-39.8 C2,-39 2.8,-37.7 2.8,-37.7 L10.4,-27.3 C10.8,-26.7 10.8,-25.5 10.4,-24.9 L0.3,-9.5 C0.2,-9.3 0.1,-8.9 0.1,-8.7 L0.1,-7.8 C0.1,-7.5 0.2,-7.2 0.4,-7 L11.6,6.9 C11.2,6.8 10.3,6.6 9.1,6.6 C7.4,6.6 5.2,7 3.4,8.6 C1.2,10.6 0,13.4 0,15.9 C0,17.3 0.3,18.7 1.1,19.8 C3.2,23 10.7,32.5 10.7,32.5 C10.7,32.5 11.6,33.6 12.5,32.9 C13.4,32.2 13.2,31.3 12.9,30.8 C12.6,30.3 9.4,24.5 9.4,24.5 C9.4,24.5 8.7,23.1 8.7,21.3 C8.7,20 9.1,18.4 10.4,17.1 C11.6,15.9 13,15.5 14.3,15.5 C15.6,15.5 16.7,15.9 17.5,16.4 L21.4,18.9 C21.4,18.9 22.6,19.5 23.2,18.6 C23.7,17.8 23.5,17.4 23.2,16.9"/>
<path class="Rest" transform="matrix(1.89921,0,0,1.89921,2992.01,1974.82)" d="M23.2,16.9 L23,16.6 C22.9,16.5 22.7,16.3 22.4,15.9 L10.9,1.7 C10.6,1.4 10.7,0.6 10.9,0.2 L21.1,-15.2 C21.2,-15.4 21.3,-15.7 21.3,-15.9 L21.3,-16.8 C21.3,-17.1 21.2,-17.4 21,-17.6 L4.8,-39.5 C4.8,-39.5 4,-40.7 3,-39.8 C2,-39 2.8,-37.7 2.8,-37.7 L10.4,-27.3 C10.8,-26.7 10.8,-25.5 10.4,-24.9 L0.3,-9.5 C0.2,-9.3 0.1,-8.9 0.1,-8.7 L0.1,-7.8 C0.1,-7.5 0.2,-7.2 0.4,-7 L11.6,6.9 C11.2,6.8 10.3,6.6 9.1,6.6 C7.4,6.6 5.2,7 3.4,8.6 C1.2,10.6 0,13.4 0,15.9 C0,17.3 0.3,18.7 1.1,19.8 C3.2,23 10.7,32.5 10.7,32.5 C10.7,32.5 11.6,33.6 12.5,32.9 C13.4,32.2 13.2,31.3 12.9,30.8 C12.6,30.3 9.4,24.5 9.4,24.5 C9.4,24.5 8.7,23.1 8.7,21.3 C8.7,20 9.1,18.4 10.4,17.1 C11.6,15.9 13,15.5 14.3,15.5 C15.6,15.5 16.7,15.9 17.5,16.4 L21.4,18.9 C21.4,18.9 22.6,19.5 23.2,18.6 C23.7,17.8 23.5,17.4 23.2,16.9"/>
<path class="Rest" transform="matrix(1.89921,0,0,1.89921,3784.09,1808.64)" d="M32.3801,-1.79004 C35.7101,-4.3 38.02,-7.49004 38.02,-11.5 C38.02,-18.74 30.1301,-24.6 20.4,-24.6 C10.67,-24.6 2.78008,-18.73 2.78008,-11.5 C2.78008,-7.49004 3.78008,-3.89004 8.51006,-0.92998 C3.95,1.74004 1.5,5.4 1.5,10.17 C1.5,18.25 9.96006,24.8 20.4,24.8 C30.84,24.8 39.3,18.25 39.3,10.17 C39.29,5.4 37.5601,0.85 32.3801,-1.79004 M20.39,19.18 C14.0301,19.18 8.5,15.7 8.5,10.12 C8.5,3.42002 13.67,1.80996 13.67,1.80996 C20.47,4.07998 30.2101,7.50996 30.2101,12.97 C30.2101,15.7 26.75,19.18 20.39,19.18 M26.7801,-4.54004 C19.97,-6.65 12.49,-9.95996 12.49,-14.5 C12.49,-18.43 16.09,-19.99 20.39,-19.99 C26.55,-19.99 30.8,-17.1 30.8,-12.5 C30.8,-7.7 28.5801,-5.42002 26.7801,-4.54004"/>
<polyline class="Rest" stroke="#000000" stroke-width="33.24" stroke-linecap="square" stroke-linejoin="bevel" points="3626.54,1974.82 4013.44,1974.82"/>
<polyline class="Rest" stroke="#000000" stroke-width="9.50" stroke-linecap="square" stroke-linejoin="bevel" points="3609.92,1927.34 3609.92,2022.3"/>
<polyline class="Rest" stroke="#000000" stroke-width="9.50" stroke-linecap="square" stroke-linejoin="bevel" points="4030.06,1927.34 4030.06,2022.3"/>
<path class="Beam" fill-rule="evenodd" d="M1979.5,636.926 L2150.89,612.439 L2150.89,636.42 L1979.5,660.907 L1979.5,636.926 "/>
<path class="Beam" fill-rule="evenodd" d="M2466.5,613.185 L2637.89,637.672 L2637.89,661.653 L2466.5,637.167 L2466.5,613.185 "/>
<path class="Beam" fill-rule="evenodd" d="M537.85,1353.39 L718.477,1341.16 L718.477,1364.96 L537.85,1377.18 L537.85,1353.39 "/>
<path class="Beam" fill-rule="evenodd" d="M888.659,1377.13 L1069.29,1389.35 L1069.29,1413.15 L888.659,1400.92 L888.659,1377.13 "/>
<path class="Beam" fill-rule="evenodd" d="M3030.61,1341.54 L3211.24,1341.54 L3211.24,1365.28 L3030.61,1365.28 L3030.61,1341.54 "/>
<path class="Beam" fill-rule="evenodd" d="M3381.42,1353.39 L3562.05,1341.16 L3562.05,1364.96 L3381.42,1377.18 L3381.42,1353.39 "/>
<path class="Beam" fill-rule="evenodd" d="M735.774,2010.41 L924.049,2022.62 L924.049,2046.41 L735.774,2034.2 L735.774,2010.41 "/>
<path class="Hook" transform="matrix(1.89921,0,0,1.89921,3278.19,684.526)" d="M2.5,0.4 C2.5,0.2 3.4,-3.2 3.5,-3.5 C3.6,-3.9 5.4,-9.6 9.1,-15.3 C11.8,-19.5 21.3,-31.8 21,-31.8 C21,-31.8 28.4,-41.3 28.9,-54.2 L28.9,-56.5 C28.9,-62.6 28.1,-71.2 24.6,-79.9 C24.2,-80.9 23.8,-81.9 22.7,-81.5 C21.6,-81.1 21.9,-79.9 22.2,-78.8 C24,-71.8 25,-64.6 25,-57.4 C25,-49 22,-44.8 20.2,-41.7 C13.6,-30.6 5,-25.2 0.8,-23.8 C0.3,-23.6 0,-23.2 0,-22.7 L0,-16.5 L0,-0.1 C0,0.6 0.6,1.2 1.3,1.2 C1.8,1.2 2.4,0.8 2.5,0.4"/>
<path class="Hook" transform="matrix(1.89921,0,0,1.89921,3584.44,684.526)" d="M2.5,0.4 C2.5,0.2 3.4,-3.2 3.5,-3.5 C3.6,-3.9 5.4,-9.6 9.1,-15.3 C11.8,-19.5 21.3,-31.8 21,-31.8 C21,-31.8 28.4,-41.3 28.9,-54.2 L28.9,-56.5 C28.9,-62.6 28.1,-71.2 24.6,-79.9 C24.2,-80.9 23.8,-81.9 22.7,-81.5 C21.6,-81.1 21.9,-79.9 22.2,-78.8 C24,-71.8 25,-64.6 25,-57.4 C25,-49 22,-44.8 20.2,-41.7 C13.6,-30.6 5,-25.2 0.8,-23.8 C0.3,-23.6 0,-23.2 0,-22.7 L0,-16.5 L0,-0.1 C0,0.6 0.6,1.2 1.3,1.2 C1.8,1.2 2.4,0.8 2.5,0.4"/>
<path class="Hook" transform="matrix(1.89921,0,0,1.89921,3996.13,684.526)" d="M2.5,0.4 C2.5,0.2 3.4,-3.2 3.5,-3.5 C3.6,-3.9 5.4,-9.6 9.1,-15.3 C11.8,-19.5 21.3,-31.8 21,-31.8 C21,-31.8 28.4,-41.3 28.9,-54.2 L28.9,-56.5 C28.9,-62.6 28.1,-71.2 24.6,-79.9 C24.2,-80.9 23.8,-81.9 22.7,-81.5 C21.6,-81.1 21.9,-79.9 22.2,-78.8 C24,-71.8 25,-64.6 25,-57.4 C25,-49 22,-44.8 20.2,-41.7 C13.6,-30.6 5,-25.2 0.8,-23.8 C0.3,-23.6 0,-23.2 0,-22.7 L0,-16.5 L0,-0.1 C0,0.6 0.6,1.2 1.3,1.2 C1.8,1.2 2.4,0.8 2.5,0.4"/>
<path class="Hook" transform="matrix(1.89921,0,0,1.89921,2154.45,1210.97)" d="M3.5,3.5 C3.4,3.2 2.5,-0.3 2.5,-0.5 C2.4,-0.9 1.8,-1.2 1.3,-1.2 C0.6,-1.2 0,-0.6 0,0.1 L0,16.5 L0,22.7 C0,23.2 0.4,23.6 0.8,23.8 C5,25.1 13.7,30.6 20.2,41.7 C22,44.8 24.9,49 24.9,57.4 C24.9,64.6 23.8,72.2 22,79.2 C21.7,80.3 21.4,81.3 22.5,81.7 C23.6,82.1 24,81.3 24.4,80.3 C28,71.5 28.9,62.3 28.9,56.1 L28.9,54.2 C28.4,41.3 21,31.8 21,31.8 C21.3,31.8 11.8,19.5 9.1,15.3 C5.4,9.6 3.6,3.9 3.5,3.5"/>
<path class="Hook" transform="matrix(1.89921,0,0,1.89921,2732.45,1424.64)" d="M2.5,0.4 C2.5,0.2 3.4,-3.2 3.5,-3.5 C3.6,-3.9 5.4,-9.6 9.1,-15.3 C11.8,-19.5 21.3,-31.8 21,-31.8 C21,-31.8 28.4,-41.3 28.9,-54.2 L28.9,-56.5 C28.9,-62.6 28.1,-71.2 24.6,-79.9 C24.2,-80.9 23.8,-81.9 22.7,-81.5 C21.6,-81.1 21.9,-79.9 22.2,-78.8 C24,-71.8 25,-64.6 25,-57.4 C25,-49 22,-44.8 20.2,-41.7 C13.6,-30.6 5,-25.2 0.8,-23.8 C0.3,-23.6 0,-23.2 0,-22.7 L0,-16.5 L0,-0.1 C0,0.6 0.6,1.2 1.3,1.2 C1.8,1.2 2.4,0.8 2.5,0.4"/>
<path class="StaffText" d="M763.206,255.345 C759.024,260.388 747.708,264.201 736.392,264.447 L736.392,269.736 L747.216,269.736 C754.35,269.859 755.088,270.597 754.842,277.485 L754.842,326.808 C754.842,333.081 754.842,333.327 754.104,334.434 C753.12,335.664 750.783,336.156 743.895,336.156 L735.9,336.156 L735.9,341.937 L784.608,341.937 L784.608,336.156 L777.843,336.156 C770.955,336.156 768.618,335.664 767.634,334.434 C766.773,333.327 766.773,333.204 766.773,326.808 L766.773,276.009 C766.773,269.121 767.019,263.34 767.634,255.345 L763.206,255.345 M834.533,296.673 C845.726,292.614 850.892,286.341 850.892,276.501 C850.892,263.586 841.052,255.345 825.8,255.345 C811.409,255.345 800.462,263.832 800.462,275.025 C800.462,280.068 803.783,283.635 808.58,283.635 C812.885,283.635 815.837,280.683 815.837,276.255 C815.837,273.549 814.853,271.95 812.024,269.982 C810.794,269.121 810.425,268.629 810.425,267.768 C810.425,264.324 817.559,260.634 824.57,260.634 C833.426,260.634 838.1,266.169 838.1,276.624 C838.1,288.063 833.426,294.09 824.693,294.09 C823.586,294.09 821.495,293.967 819.65,293.844 C818.666,293.721 817.682,293.721 816.944,293.721 C814.361,293.721 813.008,294.828 813.008,297.042 C813.008,299.133 814.238,300.117 816.944,300.117 C817.682,300.117 818.666,300.117 819.773,299.994 C822.233,299.871 824.201,299.871 825.554,299.871 C834.656,299.871 839.576,306.39 839.576,318.567 C839.576,331.359 833.426,338.493 822.356,338.493 C814.607,338.493 806.243,334.311 806.243,330.498 C806.243,329.391 806.489,329.145 808.826,327.792 C812.27,325.701 813.623,323.61 813.623,320.535 C813.623,316.107 810.302,312.786 805.874,312.786 C800.585,312.786 797.141,317.091 797.141,323.61 C797.141,335.541 808.088,343.782 823.832,343.782 C841.667,343.782 853.229,333.942 853.229,318.813 C853.229,307.251 847.325,300.24 834.533,296.673"/>
<path class="StaffText" d="M1201.07,189.455 C1183.85,189.455 1171.3,208.151 1171.3,233.981 C1171.3,259.319 1183.48,277.892 1200.08,277.892 C1217.3,277.892 1229.36,259.934 1229.36,234.35 C1229.36,221.312 1226.65,210.488 1221.49,202.001 C1216.69,194.252 1208.82,189.455 1201.07,189.455 M1200.21,194.744 C1204.27,194.744 1208.2,197.45 1211.15,202.37 C1214.48,208.151 1215.58,215.162 1215.58,232.013 C1215.58,249.356 1214.72,257.474 1212.26,262.886 C1209.43,268.913 1205,272.603 1200.33,272.603 C1196.15,272.603 1192.34,269.897 1189.38,264.977 C1185.94,259.196 1184.96,251.57 1184.96,231.398 C1184.96,217.007 1185.82,209.873 1188.28,204.461 C1191.11,198.311 1195.53,194.744 1200.21,194.744"/>
<path class="StaffText" d="M1467.9,196.766 L1462.49,196.766 L1461.26,203.039 C1459.66,211.034 1458.67,211.772 1451.05,211.772 L1423.49,211.772 C1431.98,202.916 1434.81,200.333 1442.68,194.183 C1453.88,185.573 1458.67,181.268 1461.5,177.578 C1465.44,172.166 1467.41,166.754 1467.41,160.727 C1467.41,146.705 1455.84,136.742 1439.73,136.742 C1424.11,136.742 1412.18,146.705 1412.18,159.866 C1412.18,167.615 1416.11,172.904 1421.9,172.904 C1426.45,172.904 1429.52,169.829 1429.52,165.401 C1429.52,162.326 1427.8,159.497 1425.22,158.39 C1420.67,156.545 1420.42,156.299 1420.42,154.7 C1420.42,152.855 1421.65,150.026 1423.37,147.935 C1426.45,144.122 1431.49,142.031 1437.27,142.031 C1447.48,142.031 1453.51,148.304 1453.51,158.636 C1453.51,167.738 1449.2,175.979 1438.99,186.803 C1429.89,196.397 1424.23,202.424 1422.14,204.761 C1417.71,209.927 1415.5,212.756 1410.09,219.89 L1410.09,223.334 L1465.56,223.334 L1467.9,196.766 "/>
<path class="StaffText" d="M1742.84,97.2084 C1738.65,102.251 1727.34,106.064 1716.02,106.31 L1716.02,111.599 L1726.85,111.599 C1733.98,111.722 1734.72,112.46 1734.47,119.348 L1734.47,168.671 C1734.47,174.944 1734.47,175.19 1733.73,176.297 C1732.75,177.527 1730.41,178.019 1723.52,178.019 L1715.53,178.019 L1715.53,183.8 L1764.24,183.8 L1764.24,178.019 L1757.47,178.019 C1750.58,178.019 1748.25,177.527 1747.26,176.297 C1746.4,175.19 1746.4,175.067 1746.4,168.671 L1746.4,117.872 C1746.4,110.984 1746.65,105.203 1747.26,97.2084 L1742.84,97.2084 "/>
<path class="StaffText" d="M2016.68,123.564 C1999.46,123.564 1986.91,142.26 1986.91,168.09 C1986.91,193.428 1999.09,212.001 2015.69,212.001 C2032.91,212.001 2044.97,194.043 2044.97,168.459 C2044.97,155.421 2042.26,144.597 2037.09,136.11 C2032.3,128.361 2024.43,123.564 2016.68,123.564 M2015.82,128.853 C2019.87,128.853 2023.81,131.559 2026.76,136.479 C2030.08,142.26 2031.19,149.271 2031.19,166.122 C2031.19,183.465 2030.33,191.583 2027.87,196.995 C2025.04,203.022 2020.61,206.712 2015.94,206.712 C2011.76,206.712 2007.94,204.006 2004.99,199.086 C2001.55,193.305 2000.56,185.679 2000.56,165.507 C2000.56,151.116 2001.42,143.982 2003.88,138.57 C2006.71,132.42 2011.14,128.853 2015.82,128.853"/>
<path class="StaffText" d="M2214.21,70.8521 C2196.99,70.8521 2184.44,89.5481 2184.44,115.378 C2184.44,140.716 2196.62,159.289 2213.22,159.289 C2230.44,159.289 2242.5,141.331 2242.5,115.747 C2242.5,102.709 2239.79,91.8851 2234.62,83.3981 C2229.83,75.6491 2221.96,70.8521 2214.21,70.8521 M2213.35,76.1411 C2217.4,76.1411 2221.34,78.8471 2224.29,83.7671 C2227.61,89.5481 2228.72,96.5591 2228.72,113.41 C2228.72,130.753 2227.86,138.871 2225.4,144.283 C2222.57,150.31 2218.14,154 2213.47,154 C2209.29,154 2205.47,151.294 2202.52,146.374 C2199.08,140.593 2198.09,132.967 2198.09,112.795 C2198.09,98.4041 2198.95,91.2701 2201.41,85.8581 C2204.24,79.7081 2208.67,76.1411 2213.35,76.1411"/>
<path class="StaffText" d="M2656.41,123.564 C2639.19,123.564 2626.64,142.26 2626.64,168.09 C2626.64,193.428 2638.82,212.001 2655.42,212.001 C2672.64,212.001 2684.7,194.043 2684.7,168.459 C2684.7,155.421 2681.99,144.597 2676.82,136.11 C2672.03,128.361 2664.16,123.564 2656.41,123.564 M2655.55,128.853 C2659.6,128.853 2663.54,131.559 2666.49,136.479 C2669.81,142.26 2670.92,149.271 2670.92,166.122 C2670.92,183.465 2670.06,191.583 2667.6,196.995 C2664.77,203.022 2660.34,206.712 2655.67,206.712 C2651.49,206.712 2647.67,204.006 2644.72,199.086 C2641.28,193.305 2640.29,185.679 2640.29,165.507 C2640.29,151.116 2641.15,143.982 2643.61,138.57 C2646.44,132.42 2650.87,128.853 2655.55,128.853"/>
<path class="StaffText" d="M3301.93,123.564 C3284.71,123.564 3272.16,142.26 3272.16,168.09 C3272.16,193.428 3284.34,212.001 3300.95,212.001 C3318.17,212.001 3330.22,194.043 3330.22,168.459 C3330.22,155.421 3327.51,144.597 3322.35,136.11 C3317.55,128.361 3309.68,123.564 3301.93,123.564 M3301.07,128.853 C3305.13,128.853 3309.06,131.559 3312.02,136.479 C3315.34,142.26 3316.44,149.271 3316.44,166.122 C3316.44,183.465 3315.58,191.583 3313.12,196.995 C3310.29,203.022 3305.87,206.712 3301.19,206.712 C3297.01,206.712 3293.2,204.006 3290.24,199.086 C3286.8,193.305 3285.82,185.679 3285.82,165.507 C3285.82,151.116 3286.68,143.982 3289.14,138.57 C3291.97,132.42 3296.39,128.853 3301.07,128.853"/>
<path class="StaffText" d="M3608.18,123.564 C3590.96,123.564 3578.42,142.26 3578.42,168.09 C3578.42,193.428 3590.59,212.001 3607.2,212.001 C3624.42,212.001 3636.47,194.043 3636.47,168.459 C3636.47,155.421 3633.77,144.597 3628.6,136.11 C3623.8,128.361 3615.93,123.564 3608.18,123.564 M3607.32,128.853 C3611.38,128.853 3615.32,131.559 3618.27,136.479 C3621.59,142.26 3622.7,149.271 3622.7,166.122 C3622.7,183.465 3621.83,191.583 3619.37,196.995 C3616.55,203.022 3612.12,206.712 3607.44,206.712 C3603.26,206.712 3599.45,204.006 3596.5,199.086 C3593.05,193.305 3592.07,185.679 3592.07,165.507 C3592.07,151.116 3592.93,143.982 3595.39,138.57 C3598.22,132.42 3602.65,128.853 3607.32,128.853"/>
<path class="StaffText" d="M3975.06,123.564 C3957.84,123.564 3945.3,142.26 3945.3,168.09 C3945.3,193.428 3957.47,212.001 3974.08,212.001 C3991.3,212.001 4003.35,194.043 4003.35,168.459 C4003.35,155.421 4000.65,144.597 3995.48,136.11 C3990.68,128.361 3982.81,123.564 3975.06,123.564 M3974.2,128.853 C3978.26,128.853 3982.2,131.559 3985.15,136.479 C3988.47,142.26 3989.58,149.271 3989.58,166.122 C3989.58,183.465 3988.71,191.583 3986.25,196.995 C3983.43,203.022 3979,206.712 3974.32,206.712 C3970.14,206.712 3966.33,204.006 3963.38,199.086 C3959.93,193.305 3958.95,185.679 3958.95,165.507 C3958.95,151.116 3959.81,143.982 3962.27,138.57 C3965.1,132.42 3969.53,128.853 3974.2,128.853"/>
<path class="StaffText" d="M485.418,839.933 C468.198,839.933 455.652,858.629 455.652,884.459 C455.652,909.797 467.829,928.37 484.434,928.37 C501.654,928.37 513.708,910.412 513.708,884.828 C513.708,871.79 511.002,860.966 505.836,852.479 C501.039,844.73 493.167,839.933 485.418,839.933 M484.557,845.222 C488.616,845.222 492.552,847.928 495.504,852.848 C498.825,858.629 499.932,865.64 499.932,882.491 C499.932,899.834 499.071,907.952 496.611,913.364 C493.782,919.391 489.354,923.081 484.68,923.081 C480.498,923.081 476.685,920.375 473.733,915.455 C470.289,909.674 469.305,902.048 469.305,881.876 C469.305,867.485 470.166,860.351 472.626,854.939 C475.455,848.789 479.883,845.222 484.557,845.222"/>
<path class="StaffText" d="M707.642,813.577 C703.46,818.62 692.144,822.433 680.828,822.679 L680.828,827.968 L691.652,827.968 C698.786,828.091 699.524,828.829 699.278,835.717 L699.278,885.04 C699.278,891.313 699.278,891.559 698.54,892.666 C697.556,893.896 695.219,894.388 688.331,894.388 L680.336,894.388 L680.336,900.169 L729.044,900.169 L729.044,894.388 L722.279,894.388 C715.391,894.388 713.054,893.896 712.07,892.666 C711.209,891.559 711.209,891.436 711.209,885.04 L711.209,834.241 C711.209,827.353 711.455,821.572 712.07,813.577 L707.642,813.577 "/>
<path class="StaffText" d="M912.396,839.933 C895.176,839.933 882.63,858.629 882.63,884.459 C882.63,909.797 894.807,928.37 911.412,928.37 C928.632,928.37 940.686,910.412 940.686,884.828 C940.686,871.79 937.98,860.966 932.814,852.479 C928.017,844.73 920.145,839.933 912.396,839.933 M911.535,845.222 C915.594,845.222 919.53,847.928 922.482,852.848 C925.803,858.629 926.91,865.64 926.91,882.491 C926.91,899.834 926.049,907.952 923.589,913.364 C920.76,919.391 916.332,923.081 911.658,923.081 C907.476,923.081 903.663,920.375 900.711,915.455 C897.267,909.674 896.283,902.048 896.283,881.876 C896.283,867.485 897.144,860.351 899.604,854.939 C902.433,848.789 906.861,845.222 911.535,845.222"/>
<path class="StaffText" d="M1156.17,913.135 L1150.76,913.135 L1149.53,919.408 C1147.93,927.403 1146.94,928.141 1139.32,928.141 L1111.76,928.141 C1120.25,919.285 1123.08,916.702 1130.95,910.552 C1142.15,901.942 1146.94,897.637 1149.77,893.947 C1153.71,888.535 1155.68,883.123 1155.68,877.096 C1155.68,863.074 1144.11,853.111 1128,853.111 C1112.38,853.111 1100.45,863.074 1100.45,876.235 C1100.45,883.984 1104.38,889.273 1110.17,889.273 C1114.72,889.273 1117.79,886.198 1117.79,881.77 C1117.79,878.695 1116.07,875.866 1113.49,874.759 C1108.94,872.914 1108.69,872.668 1108.69,871.069 C1108.69,869.224 1109.92,866.395 1111.64,864.304 C1114.72,860.491 1119.76,858.4 1125.54,858.4 C1135.75,858.4 1141.78,864.673 1141.78,875.005 C1141.78,884.107 1137.47,892.348 1127.26,903.172 C1118.16,912.766 1112.5,918.793 1110.41,921.13 C1105.98,926.296 1103.77,929.125 1098.36,936.259 L1098.36,939.703 L1153.83,939.703 L1156.17,913.135 "/>
<path class="StaffText" d="M1425.97,813.577 C1421.79,818.62 1410.47,822.433 1399.16,822.679 L1399.16,827.968 L1409.98,827.968 C1417.11,828.091 1417.85,828.829 1417.61,835.717 L1417.61,885.04 C1417.61,891.313 1417.61,891.559 1416.87,892.666 C1415.88,893.896 1413.55,894.388 1406.66,894.388 L1398.66,894.388 L1398.66,900.169 L1447.37,900.169 L1447.37,894.388 L1440.61,894.388 C1433.72,894.388 1431.38,893.896 1430.4,892.666 C1429.54,891.559 1429.54,891.436 1429.54,885.04 L1429.54,834.241 C1429.54,827.353 1429.78,821.572 1430.4,813.577 L1425.97,813.577 "/>
<path class="StaffText" d="M1664.83,913.135 L1659.42,913.135 L1658.19,919.408 C1656.59,927.403 1655.6,928.141 1647.98,928.141 L1620.43,928.141 C1628.91,919.285 1631.74,916.702 1639.61,910.552 C1650.81,901.942 1655.6,897.637 1658.43,893.947 C1662.37,888.535 1664.34,883.123 1664.34,877.096 C1664.34,863.074 1652.78,853.111 1636.66,853.111 C1621.04,853.111 1609.11,863.074 1609.11,876.235 C1609.11,883.984 1613.05,889.273 1618.83,889.273 C1623.38,889.273 1626.45,886.198 1626.45,881.77 C1626.45,878.695 1624.73,875.866 1622.15,874.759 C1617.6,872.914 1617.35,872.668 1617.35,871.069 C1617.35,869.224 1618.58,866.395 1620.3,864.304 C1623.38,860.491 1628.42,858.4 1634.2,858.4 C1644.41,858.4 1650.44,864.673 1650.44,875.005 C1650.44,884.107 1646.13,892.348 1635.92,903.172 C1626.82,912.766 1621.16,918.793 1619.07,921.13 C1614.65,926.296 1612.43,929.125 1607.02,936.259 L1607.02,939.703 L1662.49,939.703 L1664.83,913.135 "/>
<path class="StaffText" d="M2119.23,971.714 C2115.05,976.757 2103.73,980.57 2092.42,980.816 L2092.42,986.105 L2103.24,986.105 C2110.37,986.228 2111.11,986.966 2110.87,993.854 L2110.87,1043.18 C2110.87,1049.45 2110.87,1049.7 2110.13,1050.8 C2109.14,1052.03 2106.81,1052.52 2099.92,1052.52 L2091.92,1052.52 L2091.92,1058.31 L2140.63,1058.31 L2140.63,1052.52 L2133.87,1052.52 C2126.98,1052.52 2124.64,1052.03 2123.66,1050.8 C2122.8,1049.7 2122.8,1049.57 2122.8,1043.18 L2122.8,992.378 C2122.8,985.49 2123.04,979.709 2123.66,971.714 L2119.23,971.714 M2190.56,1013.04 C2201.75,1008.98 2206.92,1002.71 2206.92,992.87 C2206.92,979.955 2197.08,971.714 2181.82,971.714 C2167.43,971.714 2156.49,980.201 2156.49,991.394 C2156.49,996.437 2159.81,1000 2164.6,1000 C2168.91,1000 2171.86,997.052 2171.86,992.624 C2171.86,989.918 2170.88,988.319 2168.05,986.351 C2166.82,985.49 2166.45,984.998 2166.45,984.137 C2166.45,980.693 2173.58,977.003 2180.59,977.003 C2189.45,977.003 2194.12,982.538 2194.12,992.993 C2194.12,1004.43 2189.45,1010.46 2180.72,1010.46 C2179.61,1010.46 2177.52,1010.34 2175.67,1010.21 C2174.69,1010.09 2173.71,1010.09 2172.97,1010.09 C2170.38,1010.09 2169.03,1011.2 2169.03,1013.41 C2169.03,1015.5 2170.26,1016.49 2172.97,1016.49 C2173.71,1016.49 2174.69,1016.49 2175.8,1016.36 C2178.26,1016.24 2180.22,1016.24 2181.58,1016.24 C2190.68,1016.24 2195.6,1022.76 2195.6,1034.94 C2195.6,1047.73 2189.45,1054.86 2178.38,1054.86 C2170.63,1054.86 2162.27,1050.68 2162.27,1046.87 C2162.27,1045.76 2162.51,1045.51 2164.85,1044.16 C2168.29,1042.07 2169.65,1039.98 2169.65,1036.9 C2169.65,1032.48 2166.33,1029.15 2161.9,1029.15 C2156.61,1029.15 2153.16,1033.46 2153.16,1039.98 C2153.16,1051.91 2164.11,1060.15 2179.86,1060.15 C2197.69,1060.15 2209.25,1050.31 2209.25,1035.18 C2209.25,1023.62 2203.35,1016.61 2190.56,1013.04"/>
<path class="StaffText" d="M2480.78,899.785 C2463.56,899.785 2451.01,918.481 2451.01,944.311 C2451.01,969.649 2463.19,988.222 2479.8,988.222 C2497.02,988.222 2509.07,970.264 2509.07,944.68 C2509.07,931.642 2506.36,920.818 2501.2,912.331 C2496.4,904.582 2488.53,899.785 2480.78,899.785 M2479.92,905.074 C2483.98,905.074 2487.91,907.78 2490.87,912.7 C2494.19,918.481 2495.29,925.492 2495.29,942.343 C2495.29,959.686 2494.43,967.804 2491.97,973.216 C2489.14,979.243 2484.72,982.933 2480.04,982.933 C2475.86,982.933 2472.05,980.227 2469.1,975.307 C2465.65,969.526 2464.67,961.9 2464.67,941.728 C2464.67,927.337 2465.53,920.203 2467.99,914.791 C2470.82,908.641 2475.25,905.074 2479.92,905.074"/>
<path class="StaffText" d="M2745.47,907.097 L2740.05,907.097 L2738.82,913.37 C2737.22,921.365 2736.24,922.103 2728.61,922.103 L2701.06,922.103 C2709.55,913.247 2712.38,910.664 2720.25,904.514 C2731.44,895.904 2736.24,891.599 2739.07,887.909 C2743.01,882.497 2744.97,877.085 2744.97,871.058 C2744.97,857.036 2733.41,847.073 2717.3,847.073 C2701.68,847.073 2689.75,857.036 2689.75,870.197 C2689.75,877.946 2693.68,883.235 2699.46,883.235 C2704.01,883.235 2707.09,880.16 2707.09,875.732 C2707.09,872.657 2705.37,869.828 2702.78,868.721 C2698.23,866.876 2697.99,866.63 2697.99,865.031 C2697.99,863.186 2699.22,860.357 2700.94,858.266 C2704.01,854.453 2709.06,852.362 2714.84,852.362 C2725.05,852.362 2731.07,858.635 2731.07,868.967 C2731.07,878.069 2726.77,886.31 2716.56,897.134 C2707.46,906.728 2701.8,912.755 2699.71,915.092 C2695.28,920.258 2693.07,923.087 2687.66,930.221 L2687.66,933.665 L2743.13,933.665 L2745.47,907.097 "/>
<path class="StaffText" d="M3013.12,807.539 C3008.94,812.582 2997.62,816.395 2986.3,816.641 L2986.3,821.93 L2997.13,821.93 C3004.26,822.053 3005,822.791 3004.75,829.679 L3004.75,879.002 C3004.75,885.275 3004.75,885.521 3004.02,886.628 C3003.03,887.858 3000.7,888.35 2993.81,888.35 L2985.81,888.35 L2985.81,894.131 L3034.52,894.131 L3034.52,888.35 L3027.76,888.35 C3020.87,888.35 3018.53,887.858 3017.55,886.628 C3016.69,885.521 3016.69,885.398 3016.69,879.002 L3016.69,828.203 C3016.69,821.315 3016.93,815.534 3017.55,807.539 L3013.12,807.539 "/>
<path class="StaffText" d="M3206.45,807.539 C3202.26,812.582 3190.95,816.395 3179.63,816.641 L3179.63,821.93 L3190.46,821.93 C3197.59,822.053 3198.33,822.791 3198.08,829.679 L3198.08,879.002 C3198.08,885.275 3198.08,885.521 3197.34,886.628 C3196.36,887.858 3194.02,888.35 3187.13,888.35 L3179.14,888.35 L3179.14,894.131 L3227.85,894.131 L3227.85,888.35 L3221.08,888.35 C3214.19,888.35 3211.86,887.858 3210.87,886.628 C3210.01,885.521 3210.01,885.398 3210.01,879.002 L3210.01,828.203 C3210.01,821.315 3210.26,815.534 3210.87,807.539 L3206.45,807.539 "/>
<path class="StaffText" d="M3402.24,833.895 C3385.02,833.895 3372.47,852.591 3372.47,878.421 C3372.47,903.759 3384.65,922.332 3401.25,922.332 C3418.47,922.332 3430.53,904.374 3430.53,878.79 C3430.53,865.752 3427.82,854.928 3422.66,846.441 C3417.86,838.692 3409.99,833.895 3402.24,833.895 M3401.38,839.184 C3405.44,839.184 3409.37,841.89 3412.32,846.81 C3415.65,852.591 3416.75,859.602 3416.75,876.453 C3416.75,893.796 3415.89,901.914 3413.43,907.326 C3410.6,913.353 3406.17,917.043 3401.5,917.043 C3397.32,917.043 3393.51,914.337 3390.55,909.417 C3387.11,903.636 3386.13,896.01 3386.13,875.838 C3386.13,861.447 3386.99,854.313 3389.45,848.901 C3392.28,842.751 3396.7,839.184 3401.38,839.184"/>
<path class="StaffText" d="M3615.5,807.539 C3611.32,812.582 3600,816.395 3588.69,816.641 L3588.69,821.93 L3599.51,821.93 C3606.64,822.053 3607.38,822.791 3607.14,829.679 L3607.14,879.002 C3607.14,885.275 3607.14,885.521 3606.4,886.628 C3605.41,887.858 3603.08,888.35 3596.19,888.35 L3588.19,888.35 L3588.19,894.131 L3636.9,894.131 L3636.9,888.35 L3630.14,888.35 C3623.25,888.35 3620.91,887.858 3619.93,886.628 C3619.07,885.521 3619.07,885.398 3619.07,879.002 L3619.07,828.203 C3619.07,821.315 3619.31,815.534 3619.93,807.539 L3615.5,807.539 "/>
<path class="StaffText" d="M3927.24,781.183 C3910.02,781.183 3897.47,799.879 3897.47,825.709 C3897.47,851.047 3909.65,869.62 3926.26,869.62 C3943.48,869.62 3955.53,851.662 3955.53,826.078 C3955.53,813.04 3952.82,802.216 3947.66,793.729 C3942.86,785.98 3934.99,781.183 3927.24,781.183 M3926.38,786.472 C3930.44,786.472 3934.37,789.178 3937.33,794.098 C3940.65,799.879 3941.75,806.89 3941.75,823.741 C3941.75,841.084 3940.89,849.202 3938.43,854.614 C3935.6,860.641 3931.18,864.331 3926.5,864.331 C3922.32,864.331 3918.51,861.625 3915.55,856.705 C3912.11,850.924 3911.13,843.298 3911.13,823.126 C3911.13,808.735 3911.99,801.601 3914.45,796.189 C3917.28,790.039 3921.7,786.472 3926.38,786.472"/>
<path class="StaffText" d="M748.786,1531.22 L743.374,1531.22 L742.144,1537.49 C740.545,1545.49 739.561,1546.23 731.935,1546.23 L704.383,1546.23 C712.87,1537.37 715.699,1534.79 723.571,1528.64 C734.764,1520.03 739.561,1515.72 742.39,1512.03 C746.326,1506.62 748.294,1501.21 748.294,1495.18 C748.294,1481.16 736.732,1471.2 720.619,1471.2 C704.998,1471.2 693.067,1481.16 693.067,1494.32 C693.067,1502.07 697.003,1507.36 702.784,1507.36 C707.335,1507.36 710.41,1504.28 710.41,1499.85 C710.41,1496.78 708.688,1493.95 706.105,1492.84 C701.554,1491 701.308,1490.75 701.308,1489.15 C701.308,1487.31 702.538,1484.48 704.26,1482.39 C707.335,1478.58 712.378,1476.48 718.159,1476.48 C728.368,1476.48 734.395,1482.76 734.395,1493.09 C734.395,1502.19 730.09,1510.43 719.881,1521.26 C710.779,1530.85 705.121,1536.88 703.03,1539.21 C698.602,1544.38 696.388,1547.21 690.976,1554.34 L690.976,1557.79 L746.449,1557.79 L748.786,1531.22 "/>
<path class="StaffText" d="M948.602,1497.55 C931.382,1497.55 918.836,1516.25 918.836,1542.08 C918.836,1567.42 931.013,1585.99 947.618,1585.99 C964.838,1585.99 976.892,1568.03 976.892,1542.45 C976.892,1529.41 974.186,1518.58 969.02,1510.1 C964.223,1502.35 956.351,1497.55 948.602,1497.55 M947.741,1502.84 C951.8,1502.84 955.736,1505.55 958.688,1510.47 C962.009,1516.25 963.116,1523.26 963.116,1540.11 C963.116,1557.45 962.255,1565.57 959.795,1570.98 C956.966,1577.01 952.538,1580.7 947.864,1580.7 C943.682,1580.7 939.869,1577.99 936.917,1573.07 C933.473,1567.29 932.489,1559.67 932.489,1539.49 C932.489,1525.1 933.35,1517.97 935.81,1512.56 C938.639,1506.41 943.067,1502.84 947.741,1502.84"/>
<path class="StaffText" d="M1294.42,1523.91 C1290.24,1528.95 1278.92,1532.76 1267.61,1533.01 L1267.61,1538.3 L1278.43,1538.3 C1285.56,1538.42 1286.3,1539.16 1286.06,1546.05 L1286.06,1595.37 C1286.06,1601.64 1286.06,1601.89 1285.32,1603 C1284.33,1604.23 1282,1604.72 1275.11,1604.72 L1267.11,1604.72 L1267.11,1610.5 L1315.82,1610.5 L1315.82,1604.72 L1309.06,1604.72 C1302.17,1604.72 1299.83,1604.23 1298.85,1603 C1297.99,1601.89 1297.99,1601.77 1297.99,1595.37 L1297.99,1544.57 C1297.99,1537.68 1298.23,1531.9 1298.85,1523.91 L1294.42,1523.91 "/>
<path class="StaffText" d="M1563.03,1623.47 L1557.62,1623.47 L1556.39,1629.74 C1554.79,1637.73 1553.81,1638.47 1546.18,1638.47 L1518.63,1638.47 C1527.12,1629.62 1529.95,1627.03 1537.82,1620.88 C1549.01,1612.27 1553.81,1607.97 1556.64,1604.28 C1560.57,1598.87 1562.54,1593.45 1562.54,1587.43 C1562.54,1573.4 1550.98,1563.44 1534.87,1563.44 C1519.24,1563.44 1507.31,1573.4 1507.31,1586.57 C1507.31,1594.31 1511.25,1599.6 1517.03,1599.6 C1521.58,1599.6 1524.66,1596.53 1524.66,1592.1 C1524.66,1589.03 1522.93,1586.2 1520.35,1585.09 C1515.8,1583.24 1515.55,1583 1515.55,1581.4 C1515.55,1579.55 1516.78,1576.73 1518.51,1574.63 C1521.58,1570.82 1526.62,1568.73 1532.41,1568.73 C1542.61,1568.73 1548.64,1575 1548.64,1585.34 C1548.64,1594.44 1544.34,1602.68 1534.13,1613.5 C1525.03,1623.1 1519.37,1629.12 1517.28,1631.46 C1512.85,1636.63 1510.63,1639.46 1505.22,1646.59 L1505.22,1650.03 L1560.7,1650.03 L1563.03,1623.47 "/>
<path class="StaffText" d="M1938.33,1550.26 C1921.11,1550.26 1908.56,1568.96 1908.56,1594.79 C1908.56,1620.13 1920.74,1638.7 1937.34,1638.7 C1954.56,1638.7 1966.62,1620.74 1966.62,1595.16 C1966.62,1582.12 1963.91,1571.3 1958.74,1562.81 C1953.95,1555.06 1946.07,1550.26 1938.33,1550.26 M1937.46,1555.55 C1941.52,1555.55 1945.46,1558.26 1948.41,1563.18 C1951.73,1568.96 1952.84,1575.97 1952.84,1592.82 C1952.84,1610.16 1951.98,1618.28 1949.52,1623.69 C1946.69,1629.72 1942.26,1633.41 1937.59,1633.41 C1933.41,1633.41 1929.59,1630.71 1926.64,1625.79 C1923.2,1620 1922.21,1612.38 1922.21,1592.21 C1922.21,1577.82 1923.07,1570.68 1925.53,1565.27 C1928.36,1559.12 1932.79,1555.55 1937.46,1555.55"/>
<path class="StaffText" d="M2173.96,1589.8 C2169.78,1594.84 2158.46,1598.65 2147.15,1598.9 L2147.15,1604.19 L2157.97,1604.19 C2165.11,1604.31 2165.84,1605.05 2165.6,1611.94 L2165.6,1661.26 C2165.6,1667.53 2165.6,1667.78 2164.86,1668.89 C2163.88,1670.12 2161.54,1670.61 2154.65,1670.61 L2146.66,1670.61 L2146.66,1676.39 L2195.36,1676.39 L2195.36,1670.61 L2188.6,1670.61 C2181.71,1670.61 2179.37,1670.12 2178.39,1668.89 C2177.53,1667.78 2177.53,1667.66 2177.53,1661.26 L2177.53,1610.46 C2177.53,1603.57 2177.78,1597.79 2178.39,1589.8 L2173.96,1589.8 M2264.85,1649.82 L2259.43,1649.82 L2258.2,1656.09 C2256.61,1664.09 2255.62,1664.83 2248,1664.83 L2220.44,1664.83 C2228.93,1655.97 2231.76,1653.39 2239.63,1647.24 C2250.82,1638.63 2255.62,1634.32 2258.45,1630.63 C2262.39,1625.22 2264.35,1619.81 2264.35,1613.78 C2264.35,1599.76 2252.79,1589.8 2236.68,1589.8 C2221.06,1589.8 2209.13,1599.76 2209.13,1612.92 C2209.13,1620.67 2213.06,1625.96 2218.84,1625.96 C2223.4,1625.96 2226.47,1622.88 2226.47,1618.46 C2226.47,1615.38 2224.75,1612.55 2222.17,1611.45 C2217.61,1609.6 2217.37,1609.35 2217.37,1607.76 C2217.37,1605.91 2218.6,1603.08 2220.32,1600.99 C2223.4,1597.18 2228.44,1595.09 2234.22,1595.09 C2244.43,1595.09 2250.46,1601.36 2250.46,1611.69 C2250.46,1620.79 2246.15,1629.03 2235.94,1639.86 C2226.84,1649.45 2221.18,1655.48 2219.09,1657.82 C2214.66,1662.98 2212.45,1665.81 2207.04,1672.95 L2207.04,1676.39 L2262.51,1676.39 L2264.85,1649.82 "/>
<path class="StaffText" d="M2579.76,1616.15 C2562.54,1616.15 2550,1634.85 2550,1660.68 C2550,1686.02 2562.17,1704.59 2578.78,1704.59 C2596,1704.59 2608.05,1686.63 2608.05,1661.05 C2608.05,1648.01 2605.35,1637.19 2600.18,1628.7 C2595.38,1620.95 2587.51,1616.15 2579.76,1616.15 M2578.9,1621.44 C2582.96,1621.44 2586.9,1624.15 2589.85,1629.07 C2593.17,1634.85 2594.28,1641.86 2594.28,1658.71 C2594.28,1676.05 2593.42,1684.17 2590.96,1689.58 C2588.13,1695.61 2583.7,1699.3 2579.03,1699.3 C2574.84,1699.3 2571.03,1696.6 2568.08,1691.68 C2564.63,1685.89 2563.65,1678.27 2563.65,1658.1 C2563.65,1643.71 2564.51,1636.57 2566.97,1631.16 C2569.8,1625.01 2574.23,1621.44 2578.9,1621.44"/>
<path class="StaffText" d="M3233.27,1676.01 C3229.09,1681.05 3217.77,1684.86 3206.46,1685.11 L3206.46,1690.4 L3217.28,1690.4 C3224.41,1690.52 3225.15,1691.26 3224.91,1698.15 L3224.91,1747.47 C3224.91,1753.74 3224.91,1753.99 3224.17,1755.09 C3223.18,1756.32 3220.85,1756.82 3213.96,1756.82 L3205.96,1756.82 L3205.96,1762.6 L3254.67,1762.6 L3254.67,1756.82 L3247.91,1756.82 C3241.02,1756.82 3238.68,1756.32 3237.7,1755.09 C3236.84,1753.99 3236.84,1753.86 3236.84,1747.47 L3236.84,1696.67 C3236.84,1689.78 3237.08,1684 3237.7,1676.01 L3233.27,1676.01 M3304.6,1717.33 C3315.79,1713.27 3320.96,1707 3320.96,1697.16 C3320.96,1684.25 3311.12,1676.01 3295.86,1676.01 C3281.47,1676.01 3270.53,1684.49 3270.53,1695.69 C3270.53,1700.73 3273.85,1704.3 3278.64,1704.3 C3282.95,1704.3 3285.9,1701.34 3285.9,1696.92 C3285.9,1694.21 3284.92,1692.61 3282.09,1690.64 C3280.86,1689.78 3280.49,1689.29 3280.49,1688.43 C3280.49,1684.98 3287.62,1681.29 3294.63,1681.29 C3303.49,1681.29 3308.16,1686.83 3308.16,1697.28 C3308.16,1708.72 3303.49,1714.75 3294.76,1714.75 C3293.65,1714.75 3291.56,1714.63 3289.71,1714.5 C3288.73,1714.38 3287.75,1714.38 3287.01,1714.38 C3284.42,1714.38 3283.07,1715.49 3283.07,1717.7 C3283.07,1719.79 3284.3,1720.78 3287.01,1720.78 C3287.75,1720.78 3288.73,1720.78 3289.84,1720.65 C3292.3,1720.53 3294.26,1720.53 3295.62,1720.53 C3304.72,1720.53 3309.64,1727.05 3309.64,1739.23 C3309.64,1752.02 3303.49,1759.15 3292.42,1759.15 C3284.67,1759.15 3276.31,1754.97 3276.31,1751.16 C3276.31,1750.05 3276.55,1749.81 3278.89,1748.45 C3282.33,1746.36 3283.69,1744.27 3283.69,1741.2 C3283.69,1736.77 3280.37,1733.45 3275.94,1733.45 C3270.65,1733.45 3267.2,1737.75 3267.2,1744.27 C3267.2,1756.2 3278.15,1764.44 3293.9,1764.44 C3311.73,1764.44 3323.29,1754.6 3323.29,1739.47 C3323.29,1727.91 3317.39,1720.9 3304.6,1717.33"/>
<path class="StaffText" d="M3535.97,1541.03 L3490.45,1541.03 L3489.31,1562.15 L3492.58,1562.15 C3493.11,1558.35 3493.72,1555.47 3494.63,1553.03 C3496.61,1547.41 3500.25,1544.6 3505.42,1544.6 C3507.93,1544.6 3508.99,1545.43 3508.99,1547.33 L3508.99,1586.55 C3508.99,1590.43 3508.99,1590.58 3508.54,1591.26 C3507.93,1592.02 3506.49,1592.33 3502.15,1592.33 L3500.18,1592.33 L3500.18,1595.9 L3526.25,1595.9 L3526.25,1592.33 L3524.27,1592.33 C3520.01,1592.33 3518.57,1592.02 3517.96,1591.26 C3517.51,1590.58 3517.51,1590.43 3517.51,1586.55 L3517.51,1547.33 C3517.51,1545.43 3518.57,1544.6 3521.08,1544.6 C3525.71,1544.6 3529.44,1547.18 3531.34,1551.74 C3532.48,1554.55 3533.24,1557.82 3533.85,1562.15 L3537.11,1562.15 L3535.97,1541.03 M3558.47,1569.3 L3562.88,1569.3 C3570.55,1569.6 3573.59,1572.72 3574.43,1581.08 L3574.81,1584.95 C3575.72,1593.54 3578.53,1597.04 3584.54,1597.04 C3590.77,1597.04 3593.73,1592.86 3593.96,1583.74 L3590.77,1583.74 C3590.46,1588.98 3589.55,1591.26 3587.5,1591.26 C3585.75,1591.26 3584.99,1589.97 3583.7,1584.73 L3582.48,1579.94 C3580.81,1572.95 3577.85,1569.75 3571.92,1568.23 C3582.86,1566.71 3588.11,1562.31 3588.11,1554.63 C3588.11,1545.97 3580.81,1541.03 3568.04,1541.03 L3541.75,1541.03 L3541.75,1544.6 L3543.12,1544.6 C3547.45,1544.67 3548.89,1544.9 3549.5,1545.66 C3549.96,1546.35 3549.96,1546.5 3549.96,1550.37 L3549.96,1586.63 C3549.96,1590.43 3549.96,1590.58 3549.5,1591.34 C3548.89,1592.1 3547.45,1592.33 3543.12,1592.33 L3541.75,1592.33 L3541.75,1595.9 L3566.68,1595.9 L3566.68,1592.33 L3565.31,1592.33 C3560.98,1592.33 3559.53,1592.1 3558.92,1591.34 C3558.47,1590.58 3558.47,1590.43 3558.47,1586.63 L3558.47,1569.3 M3558.47,1565.73 L3558.47,1549.01 C3558.32,1544.83 3558.7,1544.52 3563.71,1544.6 L3567.82,1544.6 C3575.34,1544.6 3578.76,1547.79 3578.76,1554.71 C3578.76,1558.58 3577.77,1561.55 3575.8,1563.14 C3573.9,1564.74 3570.48,1565.73 3566.83,1565.73 L3558.47,1565.73 M3626.02,1539.96 L3622.82,1539.96 L3605.34,1584.27 C3603.29,1590.2 3601.32,1592.02 3596.98,1592.33 L3596.68,1592.33 L3596.68,1595.9 L3616.82,1595.9 L3616.82,1592.33 L3615.3,1592.33 C3611.2,1592.33 3609.14,1590.88 3609.14,1587.99 C3609.14,1587.01 3609.37,1586.09 3609.83,1584.8 L3612.34,1578.11 L3632.48,1578.11 L3636.58,1588.3 C3637.04,1589.51 3637.19,1589.97 3637.19,1590.35 C3637.19,1591.57 3635.29,1592.33 3632.48,1592.33 L3629.28,1592.33 L3629.28,1595.9 L3652.84,1595.9 L3652.84,1592.33 L3651.78,1592.33 C3647.83,1592.25 3647.14,1591.79 3645.4,1587.46 L3626.02,1539.96 M3622.29,1552.43 L3630.88,1574.01 L3613.86,1574.01 L3622.29,1552.43 M3695.32,1540.57 L3692.5,1540.57 L3689.46,1545.13 C3685.82,1541.71 3681.03,1539.89 3675.63,1539.89 C3665.6,1539.89 3658.99,1546.19 3658.99,1555.77 C3658.99,1564.05 3663.09,1568.16 3674.26,1571.05 L3681.48,1572.87 C3687.11,1574.31 3687.64,1574.47 3689.24,1575.68 C3691.52,1577.43 3692.73,1579.94 3692.73,1582.9 C3692.73,1585.94 3691.59,1588.45 3689.31,1590.58 C3686.8,1592.71 3684.3,1593.54 3680.12,1593.54 C3674.49,1593.54 3670.46,1591.79 3666.89,1587.84 C3663.7,1584.35 3662.1,1580.7 3660.96,1574.85 L3657.7,1574.85 L3658,1596.51 L3660.96,1596.51 L3664.38,1591.34 C3669.48,1595.52 3673.66,1597.04 3680.34,1597.04 C3691.52,1597.04 3698.66,1590.5 3698.66,1580.32 C3698.66,1575.53 3697.14,1571.58 3694.1,1568.69 C3692.05,1566.71 3689.08,1565.42 3683,1563.9 L3674.87,1561.85 C3668.11,1560.1 3664.92,1557.14 3664.92,1552.5 C3664.92,1547.18 3669.25,1543.53 3675.71,1543.53 C3681.03,1543.53 3685.36,1545.81 3688.4,1550.15 C3690.6,1553.26 3692.05,1556.45 3692.96,1560.33 L3696.23,1560.33 L3695.32,1540.57 M3772.22,1540.49 L3769.33,1540.49 L3766.37,1545.05 C3761.43,1541.18 3758.08,1539.89 3752.54,1539.89 C3746.53,1539.89 3741.82,1541.56 3737.03,1545.43 C3729.51,1551.51 3726.01,1559.19 3726.01,1569.45 C3726.01,1577.2 3728.22,1583.66 3732.7,1588.6 C3737.41,1593.92 3744.4,1597.04 3751.7,1597.04 C3758.08,1597.04 3762.57,1595.06 3767.51,1590.12 L3770.32,1596.96 L3773.51,1596.96 L3773.51,1580.24 C3773.51,1576.37 3773.51,1576.21 3773.97,1575.53 C3774.65,1574.69 3776.02,1574.47 3780.35,1574.47 L3781.49,1574.47 L3781.49,1570.89 L3757.32,1570.89 L3757.32,1574.47 L3758.77,1574.47 C3765.15,1574.47 3765.68,1574.85 3765.68,1579.1 C3765.68,1582.37 3765.15,1585.33 3764.16,1587.16 C3762.26,1590.88 3757.4,1593.47 3752.46,1593.47 C3747.52,1593.47 3742.66,1590.96 3740.07,1587.16 C3737.26,1582.9 3736.04,1577.58 3736.04,1569.45 C3736.04,1552.5 3741.67,1543.46 3752.23,1543.46 C3760.9,1543.46 3766.9,1549.69 3770.02,1561.85 L3773.28,1561.85 L3772.22,1540.49 M3811.81,1539.89 C3805.05,1539.89 3799.27,1542.01 3794.64,1546.27 C3788.78,1551.67 3785.36,1559.87 3785.36,1568.54 C3785.36,1577.05 3788.86,1585.33 3794.64,1590.65 C3799.2,1594.83 3804.97,1597.04 3811.51,1597.04 C3826.4,1597.04 3837.65,1584.73 3837.65,1568.46 C3837.65,1552.35 3826.4,1539.89 3811.81,1539.89 M3811.74,1543.46 C3816.83,1543.46 3821.08,1545.81 3823.82,1549.99 C3826.63,1554.48 3827.62,1559.11 3827.62,1568.46 C3827.62,1577.73 3826.63,1582.37 3823.82,1586.93 C3821.08,1591.19 3816.9,1593.47 3811.51,1593.47 C3806.11,1593.47 3801.93,1591.26 3799.2,1586.93 C3796.31,1582.37 3795.4,1577.73 3795.4,1568.31 C3795.4,1559.11 3796.38,1554.55 3799.2,1549.99 C3802.01,1545.59 3806.04,1543.46 3811.74,1543.46 M3859.77,1569.3 L3864.17,1569.3 C3871.85,1569.6 3874.89,1572.72 3875.73,1581.08 L3876.11,1584.95 C3877.02,1593.54 3879.83,1597.04 3885.83,1597.04 C3892.07,1597.04 3895.03,1592.86 3895.26,1583.74 L3892.07,1583.74 C3891.76,1588.98 3890.85,1591.26 3888.8,1591.26 C3887.05,1591.26 3886.29,1589.97 3885,1584.73 L3883.78,1579.94 C3882.11,1572.95 3879.15,1569.75 3873.22,1568.23 C3884.16,1566.71 3889.41,1562.31 3889.41,1554.63 C3889.41,1545.97 3882.11,1541.03 3869.34,1541.03 L3843.05,1541.03 L3843.05,1544.6 L3844.41,1544.6 C3848.75,1544.67 3850.19,1544.9 3850.8,1545.66 C3851.25,1546.35 3851.25,1546.5 3851.25,1550.37 L3851.25,1586.63 C3851.25,1590.43 3851.25,1590.58 3850.8,1591.34 C3850.19,1592.1 3848.75,1592.33 3844.41,1592.33 L3843.05,1592.33 L3843.05,1595.9 L3867.97,1595.9 L3867.97,1592.33 L3866.61,1592.33 C3862.27,1592.33 3860.83,1592.1 3860.22,1591.34 C3859.77,1590.58 3859.77,1590.43 3859.77,1586.63 L3859.77,1569.3 M3859.77,1565.73 L3859.77,1549.01 C3859.61,1544.83 3859.99,1544.52 3865.01,1544.6 L3869.11,1544.6 C3876.64,1544.6 3880.06,1547.79 3880.06,1554.71 C3880.06,1558.58 3879.07,1561.55 3877.09,1563.14 C3875.19,1564.74 3871.77,1565.73 3868.13,1565.73 L3859.77,1565.73 M3925.34,1539.89 C3918.58,1539.89 3912.8,1542.01 3908.17,1546.27 C3902.32,1551.67 3898.9,1559.87 3898.9,1568.54 C3898.9,1577.05 3902.39,1585.33 3908.17,1590.65 C3912.73,1594.83 3918.5,1597.04 3925.04,1597.04 C3939.94,1597.04 3951.18,1584.73 3951.18,1568.46 C3951.18,1552.35 3939.94,1539.89 3925.34,1539.89 M3925.27,1543.46 C3930.36,1543.46 3934.62,1545.81 3937.35,1549.99 C3940.16,1554.48 3941.15,1559.11 3941.15,1568.46 C3941.15,1577.73 3940.16,1582.37 3937.35,1586.93 C3934.62,1591.19 3930.44,1593.47 3925.04,1593.47 C3919.64,1593.47 3915.46,1591.26 3912.73,1586.93 C3909.84,1582.37 3908.93,1577.73 3908.93,1568.31 C3908.93,1559.11 3909.92,1554.55 3912.73,1549.99 C3915.54,1545.59 3919.57,1543.46 3925.27,1543.46"/>
<path class="StaffText" d="M3506.03,1662.67 L3514.62,1662.67 C3521.46,1662.67 3525.03,1662.14 3528.14,1660.7 C3533.46,1658.11 3536.5,1653.25 3536.5,1647.25 C3536.5,1641.47 3533.84,1637.06 3528.83,1634.55 C3525.86,1633.03 3521.15,1632.2 3515.91,1632.2 L3489.31,1632.2 L3489.31,1635.77 L3490.68,1635.77 C3495.01,1635.85 3496.45,1636.07 3497.06,1636.83 C3497.52,1637.52 3497.52,1637.67 3497.52,1641.55 L3497.52,1677.72 C3497.52,1681.6 3497.52,1681.75 3497.06,1682.43 C3496.45,1683.19 3495.01,1683.5 3490.68,1683.5 L3489.31,1683.5 L3489.31,1687.07 L3514.84,1687.07 L3514.84,1683.5 L3512.87,1683.5 C3508.54,1683.5 3507.09,1683.19 3506.48,1682.43 C3506.03,1681.75 3506.03,1681.6 3506.03,1677.72 L3506.03,1662.67 M3506.03,1659.1 L3506.03,1639.65 C3506.03,1636.15 3506.41,1635.77 3510.66,1635.77 L3515.53,1635.77 C3523.43,1635.77 3527.16,1639.49 3527.16,1647.55 C3527.16,1655.38 3523.28,1659.1 3515.22,1659.1 L3506.03,1659.1 M3555.95,1660.47 L3560.36,1660.47 C3568.04,1660.77 3571.08,1663.89 3571.91,1672.25 L3572.29,1676.13 C3573.21,1684.71 3576.02,1688.21 3582.02,1688.21 C3588.25,1688.21 3591.22,1684.03 3591.45,1674.91 L3588.25,1674.91 C3587.95,1680.15 3587.04,1682.43 3584.99,1682.43 C3583.24,1682.43 3582.48,1681.14 3581.19,1675.9 L3579.97,1671.11 C3578.3,1664.12 3575.33,1660.93 3569.41,1659.41 C3580.35,1657.89 3585.59,1653.48 3585.59,1645.8 C3585.59,1637.14 3578.3,1632.2 3565.53,1632.2 L3539.23,1632.2 L3539.23,1635.77 L3540.6,1635.77 C3544.93,1635.85 3546.38,1636.07 3546.99,1636.83 C3547.44,1637.52 3547.44,1637.67 3547.44,1641.55 L3547.44,1677.8 C3547.44,1681.6 3547.44,1681.75 3546.99,1682.51 C3546.38,1683.27 3544.93,1683.5 3540.6,1683.5 L3539.23,1683.5 L3539.23,1687.07 L3564.16,1687.07 L3564.16,1683.5 L3562.79,1683.5 C3558.46,1683.5 3557.02,1683.27 3556.41,1682.51 C3555.95,1681.75 3555.95,1681.6 3555.95,1677.8 L3555.95,1660.47 M3555.95,1656.9 L3555.95,1640.18 C3555.8,1636 3556.18,1635.69 3561.2,1635.77 L3565.3,1635.77 C3572.83,1635.77 3576.25,1638.96 3576.25,1645.88 C3576.25,1649.75 3575.26,1652.72 3573.28,1654.31 C3571.38,1655.91 3567.96,1656.9 3564.31,1656.9 L3555.95,1656.9 M3623.5,1631.13 L3620.31,1631.13 L3602.83,1675.44 C3600.78,1681.37 3598.8,1683.19 3594.47,1683.5 L3594.16,1683.5 L3594.16,1687.07 L3614.3,1687.07 L3614.3,1683.5 L3612.78,1683.5 C3608.68,1683.5 3606.63,1682.05 3606.63,1679.17 C3606.63,1678.18 3606.86,1677.27 3607.31,1675.97 L3609.82,1669.29 L3629.96,1669.29 L3634.06,1679.47 C3634.52,1680.69 3634.67,1681.14 3634.67,1681.52 C3634.67,1682.74 3632.77,1683.5 3629.96,1683.5 L3626.77,1683.5 L3626.77,1687.07 L3650.33,1687.07 L3650.33,1683.5 L3649.26,1683.5 C3645.31,1683.42 3644.63,1682.97 3642.88,1678.63 L3623.5,1631.13 M3619.78,1643.6 L3628.36,1665.18 L3611.34,1665.18 L3619.78,1643.6 M3720.16,1631.67 L3717.27,1631.67 L3714.31,1636.23 C3709.37,1632.35 3706.02,1631.06 3700.47,1631.06 C3694.47,1631.06 3689.76,1632.73 3684.97,1636.61 C3677.45,1642.69 3673.95,1650.36 3673.95,1660.62 C3673.95,1668.37 3676.15,1674.83 3680.64,1679.77 C3685.35,1685.09 3692.34,1688.21 3699.64,1688.21 C3706.02,1688.21 3710.51,1686.23 3715.45,1681.29 L3718.26,1688.13 L3721.45,1688.13 L3721.45,1671.41 C3721.45,1667.54 3721.45,1667.39 3721.91,1666.7 C3722.59,1665.87 3723.96,1665.64 3728.29,1665.64 L3729.43,1665.64 L3729.43,1662.07 L3705.26,1662.07 L3705.26,1665.64 L3706.71,1665.64 C3713.09,1665.64 3713.62,1666.02 3713.62,1670.27 C3713.62,1673.54 3713.09,1676.51 3712.1,1678.33 C3710.2,1682.05 3705.34,1684.64 3700.4,1684.64 C3695.46,1684.64 3690.59,1682.13 3688.01,1678.33 C3685.2,1674.07 3683.98,1668.75 3683.98,1660.62 C3683.98,1643.67 3689.61,1634.63 3700.17,1634.63 C3708.83,1634.63 3714.84,1640.86 3717.95,1653.02 L3721.22,1653.02 L3720.16,1631.67 M3777.76,1632.2 L3732.09,1632.2 L3732.09,1635.77 L3733.45,1635.77 C3737.79,1635.85 3739.23,1636.07 3739.84,1636.83 C3740.29,1637.52 3740.29,1637.67 3740.29,1641.55 L3740.29,1677.72 C3740.29,1681.6 3740.29,1681.75 3739.84,1682.43 C3739.23,1683.19 3737.79,1683.5 3733.45,1683.5 L3732.09,1683.5 L3732.09,1687.07 L3778.75,1687.07 L3780.27,1666.78 L3776.93,1666.78 C3774.04,1680.31 3770.92,1683.19 3759.29,1683.5 L3754.28,1683.5 C3749.72,1683.35 3748.58,1682.59 3748.81,1679.85 L3748.81,1660.47 L3750.33,1660.47 C3758.15,1660.17 3760.97,1662.98 3761.27,1671.41 L3764.84,1671.41 L3764.84,1646.49 L3761.27,1646.49 C3760.81,1653.93 3757.85,1656.9 3750.63,1656.9 L3748.81,1656.9 L3748.81,1639.57 C3748.73,1636.38 3749.49,1635.85 3753.59,1635.77 L3757.55,1635.77 C3770.01,1635.69 3773.13,1638.43 3775.56,1651.58 L3778.83,1651.58 L3777.76,1632.2 M3801.84,1632.2 L3786.19,1632.2 L3786.19,1635.77 L3788.09,1635.77 C3792.42,1635.92 3793.86,1636.45 3795.08,1638.28 L3795.08,1670.58 C3795.08,1680.91 3793.63,1683.12 3786.26,1683.5 L3786.26,1687.07 L3807.92,1687.07 L3807.92,1683.5 C3800.63,1683.12 3799.18,1680.91 3799.18,1670.58 L3799.18,1642.38 L3833.08,1688.13 L3836.27,1688.13 L3836.27,1648.69 C3836.27,1638.35 3837.71,1636.15 3845.09,1635.77 L3845.09,1632.2 L3823.43,1632.2 L3823.43,1635.77 C3830.72,1636.15 3832.17,1638.28 3832.17,1648.69 L3832.17,1672.55 L3801.84,1632.2 M3896.16,1632.2 L3850.64,1632.2 L3849.5,1653.33 L3852.77,1653.33 C3853.3,1649.53 3853.91,1646.64 3854.82,1644.21 C3856.79,1638.58 3860.44,1635.77 3865.61,1635.77 C3868.12,1635.77 3869.18,1636.61 3869.18,1638.51 L3869.18,1677.72 C3869.18,1681.6 3869.18,1681.75 3868.73,1682.43 C3868.12,1683.19 3866.67,1683.5 3862.34,1683.5 L3860.37,1683.5 L3860.37,1687.07 L3886.43,1687.07 L3886.43,1683.5 L3884.46,1683.5 C3880.2,1683.5 3878.76,1683.19 3878.15,1682.43 C3877.69,1681.75 3877.69,1681.6 3877.69,1677.72 L3877.69,1638.51 C3877.69,1636.61 3878.76,1635.77 3881.27,1635.77 C3885.9,1635.77 3889.63,1638.35 3891.53,1642.91 C3892.67,1645.73 3893.43,1648.99 3894.03,1653.33 L3897.3,1653.33 L3896.16,1632.2 M3947.68,1632.2 L3902.01,1632.2 L3902.01,1635.77 L3903.38,1635.77 C3907.71,1635.85 3909.15,1636.07 3909.76,1636.83 C3910.22,1637.52 3910.22,1637.67 3910.22,1641.55 L3910.22,1677.72 C3910.22,1681.6 3910.22,1681.75 3909.76,1682.43 C3909.15,1683.19 3907.71,1683.5 3903.38,1683.5 L3902.01,1683.5 L3902.01,1687.07 L3948.67,1687.07 L3950.19,1666.78 L3946.85,1666.78 C3943.96,1680.31 3940.84,1683.19 3929.22,1683.5 L3924.2,1683.5 C3919.64,1683.35 3918.5,1682.59 3918.73,1679.85 L3918.73,1660.47 L3920.25,1660.47 C3928.08,1660.17 3930.89,1662.98 3931.19,1671.41 L3934.76,1671.41 L3934.76,1646.49 L3931.19,1646.49 C3930.74,1653.93 3927.77,1656.9 3920.55,1656.9 L3918.73,1656.9 L3918.73,1639.57 C3918.65,1636.38 3919.41,1635.85 3923.52,1635.77 L3927.47,1635.77 C3939.93,1635.69 3943.05,1638.43 3945.48,1651.58 L3948.75,1651.58 L3947.68,1632.2 "/>
<path class="NoteDot" transform="matrix(1.89921,0,0,1.89921,3071.42,518.345)" d="M0,-0.00166016 C0,2.75977 2.23857,4.99834 5,4.99834 C7.76143,4.99834 10,2.75977 10,-0.00166016 C10,-2.76309 7.76143,-5.00166 5,-5.00166 C2.23857,-5.00166 0,-2.76309 0,-0.00166016"/>
</svg>
