<?xml version="1.0" encoding="UTF-8" standalone="no"?>
<svg width="4208.47px" height="2409.45px" viewBox="0 0 4208.47 2409.45"
 xmlns="http://www.w3.org/2000/svg" xmlns:xlink="http://www.w3.org/1999/xlink" version="1.2" baseProfile="tiny">
<title>FLAUTA</title>
<desc>Generated by MuseScore 3.6.2</desc>
<polyline class="StaffLines" fill="none" stroke="#000000" stroke-width="4.48" stroke-linejoin="bevel" points="70.866,462.756 4137.61,462.756"/>
<polyline class="StaffLines" fill="none" stroke="#000000" stroke-width="4.48" stroke-linejoin="bevel" points="70.866,518.74 4137.61,518.74"/>
<polyline class="StaffLines" fill="none" stroke="#000000" stroke-width="4.48" stroke-linejoin="bevel" points="70.866,574.724 4137.61,574.724"/>
<polyline class="StaffLines" fill="none" stroke="#000000" stroke-width="4.48" stroke-linejoin="bevel" points="70.866,630.709 4137.61,630.709"/>
<polyline class="StaffLines" fill="none" stroke="#000000" stroke-width="4.48" stroke-linejoin="bevel" points="70.866,686.693 4137.61,686.693"/>
<polyline class="StaffLines" fill="none" stroke="#000000" stroke-width="4.48" stroke-linejoin="bevel" points="70.866,1282.69 4137.61,1282.69"/>
<polyline class="StaffLines" fill="none" stroke="#000000" stroke-width="4.48" stroke-linejoin="bevel" points="70.866,1338.67 4137.61,1338.67"/>
<polyline class="StaffLines" fill="none" stroke="#000000" stroke-width="4.48" stroke-linejoin="bevel" points="70.866,1394.66 4137.61,1394.66"/>
<polyline class="StaffLines" fill="none" stroke="#000000" stroke-width="4.48" stroke-linejoin="bevel" points="70.866,1450.64 4137.61,1450.64"/>
<polyline class="StaffLines" fill="none" stroke="#000000" stroke-width="4.48" stroke-linejoin="bevel" points="70.866,1506.62 4137.61,1506.62"/>
<polyline class="StaffLines" fill="none" stroke="#000000" stroke-width="4.48" stroke-linejoin="bevel" points="70.866,2102.62 4137.61,2102.62"/>
<polyline class="StaffLines" fill="none" stroke="#000000" stroke-width="4.48" stroke-linejoin="bevel" points="70.866,2158.6 4137.61,2158.6"/>
<polyline class="StaffLines" fill="none" stroke="#000000" stroke-width="4.48" stroke-linejoin="bevel" points="70.866,2214.59 4137.61,2214.59"/>
<polyline class="StaffLines" fill="none" stroke="#000000" stroke-width="4.48" stroke-linejoin="bevel" points="70.866,2270.57 4137.61,2270.57"/>
<polyline class="StaffLines" fill="none" stroke="#000000" stroke-width="4.48" stroke-linejoin="bevel" points="70.866,2326.56 4137.61,2326.56"/>
<path class="MeasureNumber" d="M57.1629,1163.52 C58.5379,1163.52 60.59,1164.36 63.3191,1166.04 C66.0483,1167.72 68.4337,1168.56 70.4754,1168.56 C73.7775,1168.56 76.5691,1167.28 78.8504,1164.72 C81.1316,1162.16 82.2722,1158.99 82.2722,1155.23 C82.2722,1152.91 81.9363,1150.86 81.2644,1149.07 C80.5926,1147.28 79.6603,1145.9 78.4676,1144.91 C77.2749,1143.93 75.8087,1143.13 74.0691,1142.5 C72.3295,1141.88 70.6967,1141.47 69.1707,1141.29 C67.6446,1141.11 66.0118,1141.02 64.2722,1141.02 L64.2722,1139.84 C66.3035,1139.13 68.0561,1138.42 69.5301,1137.73 C71.004,1137.05 72.5509,1136.12 74.1707,1134.95 C75.7905,1133.77 77.0353,1132.35 77.9051,1130.67 C78.7749,1128.99 79.2097,1127.07 79.2097,1124.91 C79.2097,1122.09 78.2931,1119.79 76.4597,1117.98 C74.6264,1116.18 72.241,1115.28 69.3035,1115.28 C66.4806,1115.28 64.004,1116.05 61.8738,1117.58 C59.7436,1119.11 57.7514,1121.53 55.8972,1124.83 L54.5535,1124.45 C56.1056,1120.2 58.2176,1116.71 60.8894,1113.98 C63.5613,1111.24 67.3556,1109.88 72.2722,1109.88 C76.4181,1109.88 79.7801,1111.02 82.3582,1113.3 C84.9363,1115.58 86.2254,1118.55 86.2254,1122.2 C86.2254,1124.67 85.5952,1126.84 84.3347,1128.7 C83.0743,1130.55 80.8868,1132.53 77.7722,1134.63 C81.366,1136.18 84.1837,1138.16 86.2254,1140.59 C88.267,1143.01 89.2879,1146.46 89.2879,1150.94 C89.2879,1157.32 86.8426,1162.43 81.9519,1166.25 C77.0613,1170.07 71.0483,1171.98 63.9129,1171.98 C60.7879,1171.98 58.3113,1171.51 56.4832,1170.55 C54.6551,1169.6 53.741,1168.33 53.741,1166.73 C53.741,1165.76 54.0561,1164.97 54.6863,1164.39 C55.3165,1163.81 56.142,1163.52 57.1629,1163.52"/>
<path class="MeasureNumber" d="M54.1785,1992.63 L53.9129,1990.84 C60.7462,1989.63 66.5483,1986.71 71.3191,1982.07 C76.09,1977.44 79.4077,1971.45 81.2722,1964.1 C76.8243,1967.58 72.3243,1969.32 67.7722,1969.32 C62.9077,1969.32 58.991,1967.64 56.0222,1964.27 C53.0535,1960.9 51.5691,1956.47 51.5691,1950.99 C51.5691,1944.9 53.353,1939.82 56.9207,1935.74 C60.4884,1931.67 64.9441,1929.63 70.2879,1929.63 C76.2358,1929.63 81.1134,1932.01 84.9207,1936.78 C88.728,1941.54 90.6316,1947.66 90.6316,1955.13 C90.6316,1957.53 90.4181,1959.99 89.991,1962.52 C89.5639,1965.04 88.5743,1968.04 87.0222,1971.49 C85.4702,1974.95 83.4493,1978.05 80.9597,1980.78 C78.4702,1983.52 74.9181,1986 70.3035,1988.22 C65.6889,1990.44 60.3139,1991.92 54.1785,1992.63 M71.0066,1965.37 C72.142,1965.37 73.4311,1965.2 74.8738,1964.87 C76.3165,1964.54 77.7722,1963.82 79.241,1962.71 C80.7097,1961.61 81.4441,1960.25 81.4441,1958.63 L81.4441,1955.13 C81.4441,1939.94 77.4858,1932.34 69.5691,1932.34 C67.7045,1932.34 66.1134,1932.83 64.7957,1933.81 C63.478,1934.8 62.4728,1936.1 61.7801,1937.71 C61.0874,1939.33 60.5926,1940.97 60.2957,1942.65 C59.9988,1944.33 59.8504,1946.09 59.8504,1947.95 C59.8504,1953.27 60.8556,1957.5 62.866,1960.65 C64.8764,1963.8 67.59,1965.37 71.0066,1965.37"/>
<path class="SlurSegment" stroke="#000000" stroke-width="3.92" stroke-linecap="round" stroke-linejoin="round" fill-rule="evenodd" d="M825.85,1204.31 C925.324,1110.18 1124.27,1110.18 1223.75,1204.31 C1124.27,1119.14 925.324,1119.14 825.85,1204.31"/>
<path class="SlurSegment" stroke="#000000" stroke-width="3.92" stroke-linecap="round" stroke-linejoin="round" fill-rule="evenodd" d="M2043.53,1204.31 C2164.29,1100.75 2405.81,1100.75 2526.57,1204.31 C2405.81,1109.71 2164.29,1109.71 2043.53,1204.31"/>
<path class="SlurSegment" stroke="#000000" stroke-width="3.92" stroke-linecap="round" stroke-linejoin="round" fill-rule="evenodd" d="M3332.58,1120.33 C3437.38,1023.67 3646.96,1023.67 3751.75,1120.33 C3646.96,1032.63 3437.38,1032.63 3332.58,1120.33"/>
<path class="SlurSegment" stroke="#000000" stroke-width="3.92" stroke-linecap="round" stroke-linejoin="round" fill-rule="evenodd" d="M824.597,2024.24 C923.272,1930.5 1120.62,1930.5 1219.3,2024.24 C1120.62,1939.46 923.272,1939.46 824.597,2024.24"/>
<path class="SlurSegment" stroke="#000000" stroke-width="3.92" stroke-linecap="round" stroke-linejoin="round" fill-rule="evenodd" d="M3316.72,2024.24 C3415.39,1930.5 3612.74,1930.5 3711.42,2024.24 C3612.74,1939.46 3415.39,1939.46 3316.72,2024.24"/>
<polyline class="BarLine" stroke="#000000" stroke-width="8.96" stroke-linejoin="bevel" points="2296.12,460.516 2296.12,688.932"/>
<path class="BarLine" transform="matrix(2.23937,0,0,2.23937,4047.41,574.724)" d="M1.66406,-8.5 C0.554688,-9.60417 0,-10.9375 0,-12.5 C0,-14.0625 0.554688,-15.3984 1.66406,-16.5078 C2.77344,-17.6172 4.10938,-18.1719 5.67188,-18.1719 C7.23438,-18.1719 8.56771,-17.6172 9.67188,-16.5078 C10.776,-15.3984 11.3281,-14.0625 11.3281,-12.5 C11.3281,-10.9375 10.776,-9.60417 9.67188,-8.5 C8.56771,-7.39583 7.23438,-6.84375 5.67188,-6.84375 C4.10938,-6.84375 2.77344,-7.39583 1.66406,-8.5"/>
<path class="BarLine" transform="matrix(2.23937,0,0,2.23937,4047.41,630.709)" d="M1.66406,-8.5 C0.554688,-9.60417 0,-10.9375 0,-12.5 C0,-14.0625 0.554688,-15.3984 1.66406,-16.5078 C2.77344,-17.6172 4.10938,-18.1719 5.67188,-18.1719 C7.23438,-18.1719 8.56771,-17.6172 9.67188,-16.5078 C10.776,-15.3984 11.3281,-14.0625 11.3281,-12.5 C11.3281,-10.9375 10.776,-9.60417 9.67188,-8.5 C8.56771,-7.39583 7.23438,-6.84375 5.67188,-6.84375 C4.10938,-6.84375 2.77344,-7.39583 1.66406,-8.5"/>
<polyline class="BarLine" stroke="#000000" stroke-width="8.96" stroke-linejoin="bevel" points="4095.36,460.516 4095.36,688.932"/>
<polyline class="BarLine" stroke="#000000" stroke-width="27.99" stroke-linejoin="bevel" points="4130.63,460.516 4130.63,688.932"/>
<polyline class="BarLine" stroke="#000000" stroke-width="8.96" stroke-linejoin="bevel" points="1064.85,1280.45 1064.85,1508.86"/>
<polyline class="BarLine" stroke="#000000" stroke-width="8.96" stroke-linejoin="bevel" points="1605.12,1280.45 1605.12,1508.86"/>
<polyline class="BarLine" stroke="#000000" stroke-width="8.96" stroke-linejoin="bevel" points="2367.67,1280.45 2367.67,1508.86"/>
<polyline class="BarLine" stroke="#000000" stroke-width="8.96" stroke-linejoin="bevel" points="2907.94,1280.45 2907.94,1508.86"/>
<polyline class="BarLine" stroke="#000000" stroke-width="8.96" stroke-linejoin="bevel" points="3571.58,1280.45 3571.58,1508.86"/>
<polyline class="BarLine" stroke="#000000" stroke-width="8.96" stroke-linejoin="bevel" points="4133.13,1280.45 4133.13,1508.86"/>
<polyline class="BarLine" stroke="#000000" stroke-width="8.96" stroke-linejoin="bevel" points="1060.4,2100.38 1060.4,2328.8"/>
<polyline class="BarLine" stroke="#000000" stroke-width="8.96" stroke-linejoin="bevel" points="1596.22,2100.38 1596.22,2328.8"/>
<polyline class="BarLine" stroke="#000000" stroke-width="8.96" stroke-linejoin="bevel" points="2255.41,2100.38 2255.41,2328.8"/>
<polyline class="BarLine" stroke="#000000" stroke-width="8.96" stroke-linejoin="bevel" points="2914.6,2100.38 2914.6,2328.8"/>
<polyline class="BarLine" stroke="#000000" stroke-width="8.96" stroke-linejoin="bevel" points="3552.52,2100.38 3552.52,2328.8"/>
<polyline class="BarLine" stroke="#000000" stroke-width="8.96" stroke-linejoin="bevel" points="4088.34,2100.38 4088.34,2328.8"/>
<polyline class="BarLine" stroke="#000000" stroke-width="27.99" stroke-linejoin="bevel" points="4123.61,2100.38 4123.61,2328.8"/>
<path class="Accidental" transform="matrix(2.23937,0,0,2.23937,1011.62,462.756)" d="M22.6563,-21.9688 C24.0938,-22.3646 24.8125,-22.0104 24.8125,-20.9063 L24.8125,-13.0938 C24.8125,-12.3125 24.1927,-11.6927 22.9531,-11.2344 L19.7344,-9.96875 L19.7344,4.20313 L22.6563,3.03125 C24.0938,2.63542 24.8125,2.99479 24.8125,4.10938 L24.8125,11.9219 C24.8125,12.7031 24.1927,13.3177 22.9531,13.7656 L19.7344,15.0469 L19.7344,31.25 C19.7344,32.4896 19.2448,33.1094 18.2656,33.1094 C17.2865,33.1094 16.7969,32.4896 16.7969,31.25 L16.7969,16.2188 L7.51563,19.9219 L7.51563,36.0313 C7.51563,37.2708 7.02865,37.8906 6.05469,37.8906 C5.08073,37.8906 4.59375,37.2708 4.59375,36.0313 L4.59375,21.0938 L2.04688,22.1719 C0.682292,22.7552 0,22.3646 0,21 L0,13.2813 C0,12.6354 0.588542,12.0521 1.76563,11.5313 L4.59375,10.3594 L4.59375,-3.90625 L2.04688,-2.82813 C0.682292,-2.24479 0,-2.63542 0,-4 L0,-11.7188 C0,-12.375 0.588542,-12.9635 1.76563,-13.4844 L4.59375,-14.6563 L4.59375,-30.7656 C4.59375,-32.0052 5.08073,-32.625 6.05469,-32.625 C7.02865,-32.625 7.51563,-32.0052 7.51563,-30.7656 L7.51563,-15.8281 L16.7969,-19.625 L16.7969,-35.5469 C16.7969,-36.7865 17.2865,-37.4063 18.2656,-37.4063 C19.2448,-37.4063 19.7344,-36.7865 19.7344,-35.5469 L19.7344,-20.7969 L22.6563,-21.9688 M7.51563,-5.07813 L7.51563,9.1875 L16.7969,5.375 L16.7969,-8.79688 L7.51563,-5.07813 "/>
<path class="Accidental" transform="matrix(2.23937,0,0,2.23937,1428.19,462.756)" d="M1.76563,20.3125 C0.588542,20.6354 0,20.1823 0,18.9531 L0,-35.75 C0,-37.1146 0.520833,-37.7969 1.5625,-37.7969 C2.60417,-37.7969 3.125,-37.1146 3.125,-35.75 L3.125,-15.9219 L14.6563,-20.3125 C15.8229,-20.6354 16.4063,-20.1823 16.4063,-18.9531 L16.4063,35.75 C16.4063,37.1146 15.8854,37.7969 14.8438,37.7969 C13.8021,37.7969 13.2813,37.1146 13.2813,35.75 L13.2813,15.9219 L1.76563,20.3125 M3.125,9.07813 L13.2813,5.17188 L13.2813,-9.07813 L3.125,-5.17188 L3.125,9.07813 "/>
<path class="Accidental" transform="matrix(2.23937,0,0,2.23937,1826.67,462.756)" d="M22.6563,-21.9688 C24.0938,-22.3646 24.8125,-22.0104 24.8125,-20.9063 L24.8125,-13.0938 C24.8125,-12.3125 24.1927,-11.6927 22.9531,-11.2344 L19.7344,-9.96875 L19.7344,4.20313 L22.6563,3.03125 C24.0938,2.63542 24.8125,2.99479 24.8125,4.10938 L24.8125,11.9219 C24.8125,12.7031 24.1927,13.3177 22.9531,13.7656 L19.7344,15.0469 L19.7344,31.25 C19.7344,32.4896 19.2448,33.1094 18.2656,33.1094 C17.2865,33.1094 16.7969,32.4896 16.7969,31.25 L16.7969,16.2188 L7.51563,19.9219 L7.51563,36.0313 C7.51563,37.2708 7.02865,37.8906 6.05469,37.8906 C5.08073,37.8906 4.59375,37.2708 4.59375,36.0313 L4.59375,21.0938 L2.04688,22.1719 C0.682292,22.7552 0,22.3646 0,21 L0,13.2813 C0,12.6354 0.588542,12.0521 1.76563,11.5313 L4.59375,10.3594 L4.59375,-3.90625 L2.04688,-2.82813 C0.682292,-2.24479 0,-2.63542 0,-4 L0,-11.7188 C0,-12.375 0.588542,-12.9635 1.76563,-13.4844 L4.59375,-14.6563 L4.59375,-30.7656 C4.59375,-32.0052 5.08073,-32.625 6.05469,-32.625 C7.02865,-32.625 7.51563,-32.0052 7.51563,-30.7656 L7.51563,-15.8281 L16.7969,-19.625 L16.7969,-35.5469 C16.7969,-36.7865 17.2865,-37.4063 18.2656,-37.4063 C19.2448,-37.4063 19.7344,-36.7865 19.7344,-35.5469 L19.7344,-20.7969 L22.6563,-21.9688 M7.51563,-5.07813 L7.51563,9.1875 L16.7969,5.375 L16.7969,-8.79688 L7.51563,-5.07813 "/>
<path class="Accidental" transform="matrix(2.23937,0,0,2.23937,2767.38,462.756)" d="M22.6563,-21.9688 C24.0938,-22.3646 24.8125,-22.0104 24.8125,-20.9063 L24.8125,-13.0938 C24.8125,-12.3125 24.1927,-11.6927 22.9531,-11.2344 L19.7344,-9.96875 L19.7344,4.20313 L22.6563,3.03125 C24.0938,2.63542 24.8125,2.99479 24.8125,4.10938 L24.8125,11.9219 C24.8125,12.7031 24.1927,13.3177 22.9531,13.7656 L19.7344,15.0469 L19.7344,31.25 C19.7344,32.4896 19.2448,33.1094 18.2656,33.1094 C17.2865,33.1094 16.7969,32.4896 16.7969,31.25 L16.7969,16.2188 L7.51563,19.9219 L7.51563,36.0313 C7.51563,37.2708 7.02865,37.8906 6.05469,37.8906 C5.08073,37.8906 4.59375,37.2708 4.59375,36.0313 L4.59375,21.0938 L2.04688,22.1719 C0.682292,22.7552 0,22.3646 0,21 L0,13.2813 C0,12.6354 0.588542,12.0521 1.76563,11.5313 L4.59375,10.3594 L4.59375,-3.90625 L2.04688,-2.82813 C0.682292,-2.24479 0,-2.63542 0,-4 L0,-11.7188 C0,-12.375 0.588542,-12.9635 1.76563,-13.4844 L4.59375,-14.6563 L4.59375,-30.7656 C4.59375,-32.0052 5.08073,-32.625 6.05469,-32.625 C7.02865,-32.625 7.51563,-32.0052 7.51563,-30.7656 L7.51563,-15.8281 L16.7969,-19.625 L16.7969,-35.5469 C16.7969,-36.7865 17.2865,-37.4063 18.2656,-37.4063 C19.2448,-37.4063 19.7344,-36.7865 19.7344,-35.5469 L19.7344,-20.7969 L22.6563,-21.9688 M7.51563,-5.07813 L7.51563,9.1875 L16.7969,5.375 L16.7969,-8.79688 L7.51563,-5.07813 "/>
<path class="Accidental" transform="matrix(2.23937,0,0,2.23937,3183.95,462.756)" d="M1.76563,20.3125 C0.588542,20.6354 0,20.1823 0,18.9531 L0,-35.75 C0,-37.1146 0.520833,-37.7969 1.5625,-37.7969 C2.60417,-37.7969 3.125,-37.1146 3.125,-35.75 L3.125,-15.9219 L14.6563,-20.3125 C15.8229,-20.6354 16.4063,-20.1823 16.4063,-18.9531 L16.4063,35.75 C16.4063,37.1146 15.8854,37.7969 14.8438,37.7969 C13.8021,37.7969 13.2813,37.1146 13.2813,35.75 L13.2813,15.9219 L1.76563,20.3125 M3.125,9.07813 L13.2813,5.17188 L13.2813,-9.07813 L3.125,-5.17188 L3.125,9.07813 "/>
<path class="Accidental" transform="matrix(2.23937,0,0,2.23937,3582.43,462.756)" d="M22.6563,-21.9688 C24.0938,-22.3646 24.8125,-22.0104 24.8125,-20.9063 L24.8125,-13.0938 C24.8125,-12.3125 24.1927,-11.6927 22.9531,-11.2344 L19.7344,-9.96875 L19.7344,4.20313 L22.6563,3.03125 C24.0938,2.63542 24.8125,2.99479 24.8125,4.10938 L24.8125,11.9219 C24.8125,12.7031 24.1927,13.3177 22.9531,13.7656 L19.7344,15.0469 L19.7344,31.25 C19.7344,32.4896 19.2448,33.1094 18.2656,33.1094 C17.2865,33.1094 16.7969,32.4896 16.7969,31.25 L16.7969,16.2188 L7.51563,19.9219 L7.51563,36.0313 C7.51563,37.2708 7.02865,37.8906 6.05469,37.8906 C5.08073,37.8906 4.59375,37.2708 4.59375,36.0313 L4.59375,21.0938 L2.04688,22.1719 C0.682292,22.7552 0,22.3646 0,21 L0,13.2813 C0,12.6354 0.588542,12.0521 1.76563,11.5313 L4.59375,10.3594 L4.59375,-3.90625 L2.04688,-2.82813 C0.682292,-2.24479 0,-2.63542 0,-4 L0,-11.7188 C0,-12.375 0.588542,-12.9635 1.76563,-13.4844 L4.59375,-14.6563 L4.59375,-30.7656 C4.59375,-32.0052 5.08073,-32.625 6.05469,-32.625 C7.02865,-32.625 7.51563,-32.0052 7.51563,-30.7656 L7.51563,-15.8281 L16.7969,-19.625 L16.7969,-35.5469 C16.7969,-36.7865 17.2865,-37.4063 18.2656,-37.4063 C19.2448,-37.4063 19.7344,-36.7865 19.7344,-35.5469 L19.7344,-20.7969 L22.6563,-21.9688 M7.51563,-5.07813 L7.51563,9.1875 L16.7969,5.375 L16.7969,-8.79688 L7.51563,-5.07813 "/>
<polyline class="LedgerLine" stroke="#000000" stroke-width="8.96" stroke-linejoin="bevel" points="3029.99,1226.7 3146.24,1226.7"/>
<polyline class="LedgerLine" stroke="#000000" stroke-width="8.96" stroke-linejoin="bevel" points="3029.99,1170.72 3146.24,1170.72"/>
<polyline class="LedgerLine" stroke="#000000" stroke-width="8.96" stroke-linejoin="bevel" points="3272.44,1226.7 3392.73,1226.7"/>
<polyline class="LedgerLine" stroke="#000000" stroke-width="8.96" stroke-linejoin="bevel" points="3272.44,1170.72 3392.73,1170.72"/>
<polyline class="LedgerLine" stroke="#000000" stroke-width="8.96" stroke-linejoin="bevel" points="3693.63,1226.7 3809.88,1226.7"/>
<polyline class="LedgerLine" stroke="#000000" stroke-width="8.96" stroke-linejoin="bevel" points="3693.63,1170.72 3809.88,1170.72"/>
<polyline class="LedgerLine" stroke="#000000" stroke-width="8.96" stroke-linejoin="bevel" points="1718.27,2046.63 1834.52,2046.63"/>
<polyline class="LedgerLine" stroke="#000000" stroke-width="8.96" stroke-linejoin="bevel" points="1718.27,1990.65 1834.52,1990.65"/>
<polyline class="LedgerLine" stroke="#000000" stroke-width="8.96" stroke-linejoin="bevel" points="1959.46,2046.63 2079.76,2046.63"/>
<polyline class="LedgerLine" stroke="#000000" stroke-width="8.96" stroke-linejoin="bevel" points="1959.46,1990.65 2079.76,1990.65"/>
<polyline class="LedgerLine" stroke="#000000" stroke-width="8.96" stroke-linejoin="bevel" points="2377.46,2046.63 2493.71,2046.63"/>
<polyline class="LedgerLine" stroke="#000000" stroke-width="8.96" stroke-linejoin="bevel" points="2377.46,1990.65 2493.71,1990.65"/>
<polyline class="LedgerLine" stroke="#000000" stroke-width="8.96" stroke-linejoin="bevel" points="2618.65,2046.63 2738.95,2046.63"/>
<polyline class="LedgerLine" stroke="#000000" stroke-width="8.96" stroke-linejoin="bevel" points="2618.65,1990.65 2738.95,1990.65"/>
<polyline class="Stem" stroke="#000000" stroke-width="7.28" stroke-linejoin="bevel" points="666.049,445.278 666.049,616.712"/>
<polyline class="Stem" stroke="#000000" stroke-width="7.28" stroke-linejoin="bevel" points="864.857,445.278 864.857,621.234"/>
<polyline class="Stem" stroke="#000000" stroke-width="7.28" stroke-linejoin="bevel" points="1082.62,473.27 1082.62,626.187"/>
<polyline class="Stem" stroke="#000000" stroke-width="7.28" stroke-linejoin="bevel" points="1281.43,473.27 1281.43,630.709"/>
<polyline class="Stem" stroke="#000000" stroke-width="7.28" stroke-linejoin="bevel" points="1481.1,473.27 1481.1,630.709"/>
<polyline class="Stem" stroke="#000000" stroke-width="7.28" stroke-linejoin="bevel" points="1679.91,473.27 1679.91,630.709"/>
<polyline class="Stem" stroke="#000000" stroke-width="7.28" stroke-linejoin="bevel" points="1897.67,473.27 1897.67,630.709"/>
<polyline class="Stem" stroke="#000000" stroke-width="7.28" stroke-linejoin="bevel" points="2096.48,473.27 2096.48,630.709"/>
<polyline class="Stem" stroke="#000000" stroke-width="7.28" stroke-linejoin="bevel" points="2421.81,445.278 2421.81,616.712"/>
<polyline class="Stem" stroke="#000000" stroke-width="7.28" stroke-linejoin="bevel" points="2620.62,445.278 2620.62,621.234"/>
<polyline class="Stem" stroke="#000000" stroke-width="7.28" stroke-linejoin="bevel" points="2838.38,473.27 2838.38,626.187"/>
<polyline class="Stem" stroke="#000000" stroke-width="7.28" stroke-linejoin="bevel" points="3037.19,473.27 3037.19,630.709"/>
<polyline class="Stem" stroke="#000000" stroke-width="7.28" stroke-linejoin="bevel" points="3236.86,473.27 3236.86,630.709"/>
<polyline class="Stem" stroke="#000000" stroke-width="7.28" stroke-linejoin="bevel" points="3435.67,473.27 3435.67,630.709"/>
<polyline class="Stem" stroke="#000000" stroke-width="7.28" stroke-linejoin="bevel" points="3653.43,473.27 3653.43,630.709"/>
<polyline class="Stem" stroke="#000000" stroke-width="7.28" stroke-linejoin="bevel" points="3852.24,473.27 3852.24,630.709"/>
<polyline class="Stem" stroke="#000000" stroke-width="7.28" stroke-linejoin="bevel" points="548.167,1265.21 548.167,1450.64"/>
<polyline class="Stem" stroke="#000000" stroke-width="7.28" stroke-linejoin="bevel" points="790.615,1263.47 790.615,1450.64"/>
<polyline class="Stem" stroke="#000000" stroke-width="7.28" stroke-linejoin="bevel" points="1190.53,1265.21 1190.53,1450.64"/>
<polyline class="Stem" stroke="#000000" stroke-width="7.28" stroke-linejoin="bevel" points="1730.8,1265.21 1730.8,1450.64"/>
<polyline class="Stem" stroke="#000000" stroke-width="7.28" stroke-linejoin="bevel" points="2008.3,1263.47 2008.3,1450.64"/>
<polyline class="Stem" stroke="#000000" stroke-width="7.28" stroke-linejoin="bevel" points="2493.36,1265.21 2493.36,1450.64"/>
<polyline class="Stem" stroke="#000000" stroke-width="7.28" stroke-linejoin="bevel" points="3054.9,1181.23 3054.9,1394.66"/>
<polyline class="Stem" stroke="#000000" stroke-width="7.28" stroke-linejoin="bevel" points="3297.35,1179.5 3297.35,1394.66"/>
<polyline class="Stem" stroke="#000000" stroke-width="7.28" stroke-linejoin="bevel" points="3718.54,1181.23 3718.54,1394.66"/>
<polyline class="Stem" stroke="#000000" stroke-width="7.28" stroke-linejoin="bevel" points="548.167,2085.14 548.167,2270.57"/>
<polyline class="Stem" stroke="#000000" stroke-width="7.28" stroke-linejoin="bevel" points="789.362,2083.41 789.362,2270.57"/>
<polyline class="Stem" stroke="#000000" stroke-width="7.28" stroke-linejoin="bevel" points="1186.08,2085.14 1186.08,2270.57"/>
<polyline class="Stem" stroke="#000000" stroke-width="7.28" stroke-linejoin="bevel" points="1743.18,1973.17 1743.18,2214.59"/>
<polyline class="Stem" stroke="#000000" stroke-width="7.28" stroke-linejoin="bevel" points="1984.37,1971.44 1984.37,2214.59"/>
<polyline class="Stem" stroke="#000000" stroke-width="7.28" stroke-linejoin="bevel" points="2402.37,2001.17 2402.37,2214.59"/>
<polyline class="Stem" stroke="#000000" stroke-width="7.28" stroke-linejoin="bevel" points="2643.56,1999.43 2643.56,2214.59"/>
<polyline class="Stem" stroke="#000000" stroke-width="7.28" stroke-linejoin="bevel" points="3040.29,2085.14 3040.29,2270.57"/>
<polyline class="Stem" stroke="#000000" stroke-width="7.28" stroke-linejoin="bevel" points="3281.48,2083.41 3281.48,2270.57"/>
<polyline class="Stem" stroke="#000000" stroke-width="7.28" stroke-linejoin="bevel" points="3678.2,2085.14 3678.2,2270.57"/>
<path class="Note" transform="matrix(2.23937,0,0,2.23937,662.41,434.764)" d="M21.9688,-13.7656 C25.0938,-13.7656 27.6979,-12.9844 29.7813,-11.4219 C31.8646,-9.85938 32.9063,-7.61458 32.9063,-4.6875 C32.9063,-0.197917 30.5807,4 25.9297,7.90625 C21.2786,11.8125 16.2813,13.7656 10.9375,13.7656 C7.8125,13.7656 5.17708,12.9531 3.03125,11.3281 C1.01042,9.56771 0,7.35417 0,4.6875 C0,0.322917 2.3125,-3.84375 6.9375,-7.8125 C11.5625,-11.7813 16.5729,-13.7656 21.9688,-13.7656"/>
<path class="Note" transform="matrix(2.23937,0,0,2.23937,861.218,434.764)" d="M21.9688,-13.7656 C25.0938,-13.7656 27.6979,-12.9844 29.7813,-11.4219 C31.8646,-9.85938 32.9063,-7.61458 32.9063,-4.6875 C32.9063,-0.197917 30.5807,4 25.9297,7.90625 C21.2786,11.8125 16.2813,13.7656 10.9375,13.7656 C7.8125,13.7656 5.17708,12.9531 3.03125,11.3281 C1.01042,9.56771 0,7.35417 0,4.6875 C0,0.322917 2.3125,-3.84375 6.9375,-7.8125 C11.5625,-11.7813 16.5729,-13.7656 21.9688,-13.7656"/>
<path class="Note" transform="matrix(2.23937,0,0,2.23937,1078.98,462.756)" d="M21.9688,-13.7656 C25.0938,-13.7656 27.6979,-12.9844 29.7813,-11.4219 C31.8646,-9.85938 32.9063,-7.61458 32.9063,-4.6875 C32.9063,-0.197917 30.5807,4 25.9297,7.90625 C21.2786,11.8125 16.2813,13.7656 10.9375,13.7656 C7.8125,13.7656 5.17708,12.9531 3.03125,11.3281 C1.01042,9.56771 0,7.35417 0,4.6875 C0,0.322917 2.3125,-3.84375 6.9375,-7.8125 C11.5625,-11.7813 16.5729,-13.7656 21.9688,-13.7656"/>
<path class="Note" transform="matrix(2.23937,0,0,2.23937,1277.79,462.756)" d="M21.9688,-13.7656 C25.0938,-13.7656 27.6979,-12.9844 29.7813,-11.4219 C31.8646,-9.85938 32.9063,-7.61458 32.9063,-4.6875 C32.9063,-0.197917 30.5807,4 25.9297,7.90625 C21.2786,11.8125 16.2813,13.7656 10.9375,13.7656 C7.8125,13.7656 5.17708,12.9531 3.03125,11.3281 C1.01042,9.56771 0,7.35417 0,4.6875 C0,0.322917 2.3125,-3.84375 6.9375,-7.8125 C11.5625,-11.7813 16.5729,-13.7656 21.9688,-13.7656"/>
<path class="Note" transform="matrix(2.23937,0,0,2.23937,1477.46,462.756)" d="M21.9688,-13.7656 C25.0938,-13.7656 27.6979,-12.9844 29.7813,-11.4219 C31.8646,-9.85938 32.9063,-7.61458 32.9063,-4.6875 C32.9063,-0.197917 30.5807,4 25.9297,7.90625 C21.2786,11.8125 16.2813,13.7656 10.9375,13.7656 C7.8125,13.7656 5.17708,12.9531 3.03125,11.3281 C1.01042,9.56771 0,7.35417 0,4.6875 C0,0.322917 2.3125,-3.84375 6.9375,-7.8125 C11.5625,-11.7813 16.5729,-13.7656 21.9688,-13.7656"/>
<path class="Note" transform="matrix(2.23937,0,0,2.23937,1676.27,462.756)" d="M21.9688,-13.7656 C25.0938,-13.7656 27.6979,-12.9844 29.7813,-11.4219 C31.8646,-9.85938 32.9063,-7.61458 32.9063,-4.6875 C32.9063,-0.197917 30.5807,4 25.9297,7.90625 C21.2786,11.8125 16.2813,13.7656 10.9375,13.7656 C7.8125,13.7656 5.17708,12.9531 3.03125,11.3281 C1.01042,9.56771 0,7.35417 0,4.6875 C0,0.322917 2.3125,-3.84375 6.9375,-7.8125 C11.5625,-11.7813 16.5729,-13.7656 21.9688,-13.7656"/>
<path class="Note" transform="matrix(2.23937,0,0,2.23937,1894.03,462.756)" d="M21.9688,-13.7656 C25.0938,-13.7656 27.6979,-12.9844 29.7813,-11.4219 C31.8646,-9.85938 32.9063,-7.61458 32.9063,-4.6875 C32.9063,-0.197917 30.5807,4 25.9297,7.90625 C21.2786,11.8125 16.2813,13.7656 10.9375,13.7656 C7.8125,13.7656 5.17708,12.9531 3.03125,11.3281 C1.01042,9.56771 0,7.35417 0,4.6875 C0,0.322917 2.3125,-3.84375 6.9375,-7.8125 C11.5625,-11.7813 16.5729,-13.7656 21.9688,-13.7656"/>
<path class="Note" transform="matrix(2.23937,0,0,2.23937,2092.84,462.756)" d="M21.9688,-13.7656 C25.0938,-13.7656 27.6979,-12.9844 29.7813,-11.4219 C31.8646,-9.85938 32.9063,-7.61458 32.9063,-4.6875 C32.9063,-0.197917 30.5807,4 25.9297,7.90625 C21.2786,11.8125 16.2813,13.7656 10.9375,13.7656 C7.8125,13.7656 5.17708,12.9531 3.03125,11.3281 C1.01042,9.56771 0,7.35417 0,4.6875 C0,0.322917 2.3125,-3.84375 6.9375,-7.8125 C11.5625,-11.7813 16.5729,-13.7656 21.9688,-13.7656"/>
<path class="Note" transform="matrix(2.23937,0,0,2.23937,2418.17,434.764)" d="M21.9688,-13.7656 C25.0938,-13.7656 27.6979,-12.9844 29.7813,-11.4219 C31.8646,-9.85938 32.9063,-7.61458 32.9063,-4.6875 C32.9063,-0.197917 30.5807,4 25.9297,7.90625 C21.2786,11.8125 16.2813,13.7656 10.9375,13.7656 C7.8125,13.7656 5.17708,12.9531 3.03125,11.3281 C1.01042,9.56771 0,7.35417 0,4.6875 C0,0.322917 2.3125,-3.84375 6.9375,-7.8125 C11.5625,-11.7813 16.5729,-13.7656 21.9688,-13.7656"/>
<path class="Note" transform="matrix(2.23937,0,0,2.23937,2616.98,434.764)" d="M21.9688,-13.7656 C25.0938,-13.7656 27.6979,-12.9844 29.7813,-11.4219 C31.8646,-9.85938 32.9063,-7.61458 32.9063,-4.6875 C32.9063,-0.197917 30.5807,4 25.9297,7.90625 C21.2786,11.8125 16.2813,13.7656 10.9375,13.7656 C7.8125,13.7656 5.17708,12.9531 3.03125,11.3281 C1.01042,9.56771 0,7.35417 0,4.6875 C0,0.322917 2.3125,-3.84375 6.9375,-7.8125 C11.5625,-11.7813 16.5729,-13.7656 21.9688,-13.7656"/>
<path class="Note" transform="matrix(2.23937,0,0,2.23937,2834.74,462.756)" d="M21.9688,-13.7656 C25.0938,-13.7656 27.6979,-12.9844 29.7813,-11.4219 C31.8646,-9.85938 32.9063,-7.61458 32.9063,-4.6875 C32.9063,-0.197917 30.5807,4 25.9297,7.90625 C21.2786,11.8125 16.2813,13.7656 10.9375,13.7656 C7.8125,13.7656 5.17708,12.9531 3.03125,11.3281 C1.01042,9.56771 0,7.35417 0,4.6875 C0,0.322917 2.3125,-3.84375 6.9375,-7.8125 C11.5625,-11.7813 16.5729,-13.7656 21.9688,-13.7656"/>
<path class="Note" transform="matrix(2.23937,0,0,2.23937,3033.55,462.756)" d="M21.9688,-13.7656 C25.0938,-13.7656 27.6979,-12.9844 29.7813,-11.4219 C31.8646,-9.85938 32.9063,-7.61458 32.9063,-4.6875 C32.9063,-0.197917 30.5807,4 25.9297,7.90625 C21.2786,11.8125 16.2813,13.7656 10.9375,13.7656 C7.8125,13.7656 5.17708,12.9531 3.03125,11.3281 C1.01042,9.56771 0,7.35417 0,4.6875 C0,0.322917 2.3125,-3.84375 6.9375,-7.8125 C11.5625,-11.7813 16.5729,-13.7656 21.9688,-13.7656"/>
<path class="Note" transform="matrix(2.23937,0,0,2.23937,3233.22,462.756)" d="M21.9688,-13.7656 C25.0938,-13.7656 27.6979,-12.9844 29.7813,-11.4219 C31.8646,-9.85938 32.9063,-7.61458 32.9063,-4.6875 C32.9063,-0.197917 30.5807,4 25.9297,7.90625 C21.2786,11.8125 16.2813,13.7656 10.9375,13.7656 C7.8125,13.7656 5.17708,12.9531 3.03125,11.3281 C1.01042,9.56771 0,7.35417 0,4.6875 C0,0.322917 2.3125,-3.84375 6.9375,-7.8125 C11.5625,-11.7813 16.5729,-13.7656 21.9688,-13.7656"/>
<path class="Note" transform="matrix(2.23937,0,0,2.23937,3432.03,462.756)" d="M21.9688,-13.7656 C25.0938,-13.7656 27.6979,-12.9844 29.7813,-11.4219 C31.8646,-9.85938 32.9063,-7.61458 32.9063,-4.6875 C32.9063,-0.197917 30.5807,4 25.9297,7.90625 C21.2786,11.8125 16.2813,13.7656 10.9375,13.7656 C7.8125,13.7656 5.17708,12.9531 3.03125,11.3281 C1.01042,9.56771 0,7.35417 0,4.6875 C0,0.322917 2.3125,-3.84375 6.9375,-7.8125 C11.5625,-11.7813 16.5729,-13.7656 21.9688,-13.7656"/>
<path class="Note" transform="matrix(2.23937,0,0,2.23937,3649.79,462.756)" d="M21.9688,-13.7656 C25.0938,-13.7656 27.6979,-12.9844 29.7813,-11.4219 C31.8646,-9.85938 32.9063,-7.61458 32.9063,-4.6875 C32.9063,-0.197917 30.5807,4 25.9297,7.90625 C21.2786,11.8125 16.2813,13.7656 10.9375,13.7656 C7.8125,13.7656 5.17708,12.9531 3.03125,11.3281 C1.01042,9.56771 0,7.35417 0,4.6875 C0,0.322917 2.3125,-3.84375 6.9375,-7.8125 C11.5625,-11.7813 16.5729,-13.7656 21.9688,-13.7656"/>
<path class="Note" transform="matrix(2.23937,0,0,2.23937,3848.6,462.756)" d="M21.9688,-13.7656 C25.0938,-13.7656 27.6979,-12.9844 29.7813,-11.4219 C31.8646,-9.85938 32.9063,-7.61458 32.9063,-4.6875 C32.9063,-0.197917 30.5807,4 25.9297,7.90625 C21.2786,11.8125 16.2813,13.7656 10.9375,13.7656 C7.8125,13.7656 5.17708,12.9531 3.03125,11.3281 C1.01042,9.56771 0,7.35417 0,4.6875 C0,0.322917 2.3125,-3.84375 6.9375,-7.8125 C11.5625,-11.7813 16.5729,-13.7656 21.9688,-13.7656"/>
<path class="Note" transform="matrix(2.23937,0,0,2.23937,544.528,1254.7)" d="M21.9688,-13.7656 C25.0938,-13.7656 27.6979,-12.9844 29.7813,-11.4219 C31.8646,-9.85938 32.9063,-7.61458 32.9063,-4.6875 C32.9063,-0.197917 30.5807,4 25.9297,7.90625 C21.2786,11.8125 16.2813,13.7656 10.9375,13.7656 C7.8125,13.7656 5.17708,12.9531 3.03125,11.3281 C1.01042,9.56771 0,7.35417 0,4.6875 C0,0.322917 2.3125,-3.84375 6.9375,-7.8125 C11.5625,-11.7813 16.5729,-13.7656 21.9688,-13.7656"/>
<path class="Note" transform="matrix(2.23937,0,0,2.23937,786.976,1254.7)" d="M7.42188,10.6406 C9.30729,10.6406 13.263,8.6875 19.2891,4.78125 C25.3151,0.875 28.8646,-1.74479 29.9375,-3.07813 C31.0104,-4.41146 31.5469,-5.59896 31.5469,-6.64063 C31.5469,-7.68229 31.1224,-8.60938 30.2734,-9.42188 C29.4245,-10.2344 28.4479,-10.6406 27.3438,-10.6406 C25.3958,-10.6406 21.4089,-8.67188 15.3828,-4.73438 C9.35677,-0.796875 5.82292,1.82292 4.78125,3.125 C3.73958,4.42708 3.21875,5.59896 3.21875,6.64063 C3.21875,7.68229 3.6276,8.60938 4.44531,9.42188 C5.26302,10.2344 6.25521,10.6406 7.42188,10.6406 M26.375,-13.7656 C31.9688,-13.7656 34.7656,-11.3594 34.7656,-6.54688 C34.7656,-4.20313 34.0833,-1.48438 32.7188,1.60938 C31.3542,4.70313 29.5313,7.0625 27.25,8.6875 C22.2396,12.0729 15.9583,13.7656 8.40625,13.7656 C2.80208,13.7656 0,11.3594 0,6.54688 C0,4.40104 0.666667,1.73177 2,-1.46094 C3.33333,-4.65365 5.17188,-7.0625 7.51563,-8.6875 C12.5365,-12.0729 18.8229,-13.7656 26.375,-13.7656"/>
<path class="Note" transform="matrix(2.23937,0,0,2.23937,1186.89,1254.7)" d="M21.9688,-13.7656 C25.0938,-13.7656 27.6979,-12.9844 29.7813,-11.4219 C31.8646,-9.85938 32.9063,-7.61458 32.9063,-4.6875 C32.9063,-0.197917 30.5807,4 25.9297,7.90625 C21.2786,11.8125 16.2813,13.7656 10.9375,13.7656 C7.8125,13.7656 5.17708,12.9531 3.03125,11.3281 C1.01042,9.56771 0,7.35417 0,4.6875 C0,0.322917 2.3125,-3.84375 6.9375,-7.8125 C11.5625,-11.7813 16.5729,-13.7656 21.9688,-13.7656"/>
<path class="Note" transform="matrix(2.23937,0,0,2.23937,1727.17,1254.7)" d="M21.9688,-13.7656 C25.0938,-13.7656 27.6979,-12.9844 29.7813,-11.4219 C31.8646,-9.85938 32.9063,-7.61458 32.9063,-4.6875 C32.9063,-0.197917 30.5807,4 25.9297,7.90625 C21.2786,11.8125 16.2813,13.7656 10.9375,13.7656 C7.8125,13.7656 5.17708,12.9531 3.03125,11.3281 C1.01042,9.56771 0,7.35417 0,4.6875 C0,0.322917 2.3125,-3.84375 6.9375,-7.8125 C11.5625,-11.7813 16.5729,-13.7656 21.9688,-13.7656"/>
<path class="Note" transform="matrix(2.23937,0,0,2.23937,2004.66,1254.7)" d="M7.42188,10.6406 C9.30729,10.6406 13.263,8.6875 19.2891,4.78125 C25.3151,0.875 28.8646,-1.74479 29.9375,-3.07813 C31.0104,-4.41146 31.5469,-5.59896 31.5469,-6.64063 C31.5469,-7.68229 31.1224,-8.60938 30.2734,-9.42188 C29.4245,-10.2344 28.4479,-10.6406 27.3438,-10.6406 C25.3958,-10.6406 21.4089,-8.67188 15.3828,-4.73438 C9.35677,-0.796875 5.82292,1.82292 4.78125,3.125 C3.73958,4.42708 3.21875,5.59896 3.21875,6.64063 C3.21875,7.68229 3.6276,8.60938 4.44531,9.42188 C5.26302,10.2344 6.25521,10.6406 7.42188,10.6406 M26.375,-13.7656 C31.9688,-13.7656 34.7656,-11.3594 34.7656,-6.54688 C34.7656,-4.20313 34.0833,-1.48438 32.7188,1.60938 C31.3542,4.70313 29.5313,7.0625 27.25,8.6875 C22.2396,12.0729 15.9583,13.7656 8.40625,13.7656 C2.80208,13.7656 0,11.3594 0,6.54688 C0,4.40104 0.666667,1.73177 2,-1.46094 C3.33333,-4.65365 5.17188,-7.0625 7.51563,-8.6875 C12.5365,-12.0729 18.8229,-13.7656 26.375,-13.7656"/>
<path class="Note" transform="matrix(2.23937,0,0,2.23937,2489.72,1254.7)" d="M21.9688,-13.7656 C25.0938,-13.7656 27.6979,-12.9844 29.7813,-11.4219 C31.8646,-9.85938 32.9063,-7.61458 32.9063,-4.6875 C32.9063,-0.197917 30.5807,4 25.9297,7.90625 C21.2786,11.8125 16.2813,13.7656 10.9375,13.7656 C7.8125,13.7656 5.17708,12.9531 3.03125,11.3281 C1.01042,9.56771 0,7.35417 0,4.6875 C0,0.322917 2.3125,-3.84375 6.9375,-7.8125 C11.5625,-11.7813 16.5729,-13.7656 21.9688,-13.7656"/>
<path class="Note" transform="matrix(2.23937,0,0,2.23937,3051.26,1170.72)" d="M21.9688,-13.7656 C25.0938,-13.7656 27.6979,-12.9844 29.7813,-11.4219 C31.8646,-9.85938 32.9063,-7.61458 32.9063,-4.6875 C32.9063,-0.197917 30.5807,4 25.9297,7.90625 C21.2786,11.8125 16.2813,13.7656 10.9375,13.7656 C7.8125,13.7656 5.17708,12.9531 3.03125,11.3281 C1.01042,9.56771 0,7.35417 0,4.6875 C0,0.322917 2.3125,-3.84375 6.9375,-7.8125 C11.5625,-11.7813 16.5729,-13.7656 21.9688,-13.7656"/>
<path class="Note" transform="matrix(2.23937,0,0,2.23937,3293.71,1170.72)" d="M7.42188,10.6406 C9.30729,10.6406 13.263,8.6875 19.2891,4.78125 C25.3151,0.875 28.8646,-1.74479 29.9375,-3.07813 C31.0104,-4.41146 31.5469,-5.59896 31.5469,-6.64063 C31.5469,-7.68229 31.1224,-8.60938 30.2734,-9.42188 C29.4245,-10.2344 28.4479,-10.6406 27.3438,-10.6406 C25.3958,-10.6406 21.4089,-8.67188 15.3828,-4.73438 C9.35677,-0.796875 5.82292,1.82292 4.78125,3.125 C3.73958,4.42708 3.21875,5.59896 3.21875,6.64063 C3.21875,7.68229 3.6276,8.60938 4.44531,9.42188 C5.26302,10.2344 6.25521,10.6406 7.42188,10.6406 M26.375,-13.7656 C31.9688,-13.7656 34.7656,-11.3594 34.7656,-6.54688 C34.7656,-4.20313 34.0833,-1.48438 32.7188,1.60938 C31.3542,4.70313 29.5313,7.0625 27.25,8.6875 C22.2396,12.0729 15.9583,13.7656 8.40625,13.7656 C2.80208,13.7656 0,11.3594 0,6.54688 C0,4.40104 0.666667,1.73177 2,-1.46094 C3.33333,-4.65365 5.17188,-7.0625 7.51563,-8.6875 C12.5365,-12.0729 18.8229,-13.7656 26.375,-13.7656"/>
<path class="Note" transform="matrix(2.23937,0,0,2.23937,3714.9,1170.72)" d="M21.9688,-13.7656 C25.0938,-13.7656 27.6979,-12.9844 29.7813,-11.4219 C31.8646,-9.85938 32.9063,-7.61458 32.9063,-4.6875 C32.9063,-0.197917 30.5807,4 25.9297,7.90625 C21.2786,11.8125 16.2813,13.7656 10.9375,13.7656 C7.8125,13.7656 5.17708,12.9531 3.03125,11.3281 C1.01042,9.56771 0,7.35417 0,4.6875 C0,0.322917 2.3125,-3.84375 6.9375,-7.8125 C11.5625,-11.7813 16.5729,-13.7656 21.9688,-13.7656"/>
<path class="Note" transform="matrix(2.23937,0,0,2.23937,544.528,2074.63)" d="M21.9688,-13.7656 C25.0938,-13.7656 27.6979,-12.9844 29.7813,-11.4219 C31.8646,-9.85938 32.9063,-7.61458 32.9063,-4.6875 C32.9063,-0.197917 30.5807,4 25.9297,7.90625 C21.2786,11.8125 16.2813,13.7656 10.9375,13.7656 C7.8125,13.7656 5.17708,12.9531 3.03125,11.3281 C1.01042,9.56771 0,7.35417 0,4.6875 C0,0.322917 2.3125,-3.84375 6.9375,-7.8125 C11.5625,-11.7813 16.5729,-13.7656 21.9688,-13.7656"/>
<path class="Note" transform="matrix(2.23937,0,0,2.23937,785.723,2074.63)" d="M7.42188,10.6406 C9.30729,10.6406 13.263,8.6875 19.2891,4.78125 C25.3151,0.875 28.8646,-1.74479 29.9375,-3.07813 C31.0104,-4.41146 31.5469,-5.59896 31.5469,-6.64063 C31.5469,-7.68229 31.1224,-8.60938 30.2734,-9.42188 C29.4245,-10.2344 28.4479,-10.6406 27.3438,-10.6406 C25.3958,-10.6406 21.4089,-8.67188 15.3828,-4.73438 C9.35677,-0.796875 5.82292,1.82292 4.78125,3.125 C3.73958,4.42708 3.21875,5.59896 3.21875,6.64063 C3.21875,7.68229 3.6276,8.60938 4.44531,9.42188 C5.26302,10.2344 6.25521,10.6406 7.42188,10.6406 M26.375,-13.7656 C31.9688,-13.7656 34.7656,-11.3594 34.7656,-6.54688 C34.7656,-4.20313 34.0833,-1.48438 32.7188,1.60938 C31.3542,4.70313 29.5313,7.0625 27.25,8.6875 C22.2396,12.0729 15.9583,13.7656 8.40625,13.7656 C2.80208,13.7656 0,11.3594 0,6.54688 C0,4.40104 0.666667,1.73177 2,-1.46094 C3.33333,-4.65365 5.17188,-7.0625 7.51563,-8.6875 C12.5365,-12.0729 18.8229,-13.7656 26.375,-13.7656"/>
<path class="Note" transform="matrix(2.23937,0,0,2.23937,1182.44,2074.63)" d="M21.9688,-13.7656 C25.0938,-13.7656 27.6979,-12.9844 29.7813,-11.4219 C31.8646,-9.85938 32.9063,-7.61458 32.9063,-4.6875 C32.9063,-0.197917 30.5807,4 25.9297,7.90625 C21.2786,11.8125 16.2813,13.7656 10.9375,13.7656 C7.8125,13.7656 5.17708,12.9531 3.03125,11.3281 C1.01042,9.56771 0,7.35417 0,4.6875 C0,0.322917 2.3125,-3.84375 6.9375,-7.8125 C11.5625,-11.7813 16.5729,-13.7656 21.9688,-13.7656"/>
<path class="Note" transform="matrix(2.23937,0,0,2.23937,1739.54,1962.66)" d="M21.9688,-13.7656 C25.0938,-13.7656 27.6979,-12.9844 29.7813,-11.4219 C31.8646,-9.85938 32.9063,-7.61458 32.9063,-4.6875 C32.9063,-0.197917 30.5807,4 25.9297,7.90625 C21.2786,11.8125 16.2813,13.7656 10.9375,13.7656 C7.8125,13.7656 5.17708,12.9531 3.03125,11.3281 C1.01042,9.56771 0,7.35417 0,4.6875 C0,0.322917 2.3125,-3.84375 6.9375,-7.8125 C11.5625,-11.7813 16.5729,-13.7656 21.9688,-13.7656"/>
<path class="Note" transform="matrix(2.23937,0,0,2.23937,1980.74,1962.66)" d="M7.42188,10.6406 C9.30729,10.6406 13.263,8.6875 19.2891,4.78125 C25.3151,0.875 28.8646,-1.74479 29.9375,-3.07813 C31.0104,-4.41146 31.5469,-5.59896 31.5469,-6.64063 C31.5469,-7.68229 31.1224,-8.60938 30.2734,-9.42188 C29.4245,-10.2344 28.4479,-10.6406 27.3438,-10.6406 C25.3958,-10.6406 21.4089,-8.67188 15.3828,-4.73438 C9.35677,-0.796875 5.82292,1.82292 4.78125,3.125 C3.73958,4.42708 3.21875,5.59896 3.21875,6.64063 C3.21875,7.68229 3.6276,8.60938 4.44531,9.42188 C5.26302,10.2344 6.25521,10.6406 7.42188,10.6406 M26.375,-13.7656 C31.9688,-13.7656 34.7656,-11.3594 34.7656,-6.54688 C34.7656,-4.20313 34.0833,-1.48438 32.7188,1.60938 C31.3542,4.70313 29.5313,7.0625 27.25,8.6875 C22.2396,12.0729 15.9583,13.7656 8.40625,13.7656 C2.80208,13.7656 0,11.3594 0,6.54688 C0,4.40104 0.666667,1.73177 2,-1.46094 C3.33333,-4.65365 5.17188,-7.0625 7.51563,-8.6875 C12.5365,-12.0729 18.8229,-13.7656 26.375,-13.7656"/>
<path class="Note" transform="matrix(2.23937,0,0,2.23937,2398.73,1990.65)" d="M21.9688,-13.7656 C25.0938,-13.7656 27.6979,-12.9844 29.7813,-11.4219 C31.8646,-9.85938 32.9063,-7.61458 32.9063,-4.6875 C32.9063,-0.197917 30.5807,4 25.9297,7.90625 C21.2786,11.8125 16.2813,13.7656 10.9375,13.7656 C7.8125,13.7656 5.17708,12.9531 3.03125,11.3281 C1.01042,9.56771 0,7.35417 0,4.6875 C0,0.322917 2.3125,-3.84375 6.9375,-7.8125 C11.5625,-11.7813 16.5729,-13.7656 21.9688,-13.7656"/>
<path class="Note" transform="matrix(2.23937,0,0,2.23937,2639.93,1990.65)" d="M7.42188,10.6406 C9.30729,10.6406 13.263,8.6875 19.2891,4.78125 C25.3151,0.875 28.8646,-1.74479 29.9375,-3.07813 C31.0104,-4.41146 31.5469,-5.59896 31.5469,-6.64063 C31.5469,-7.68229 31.1224,-8.60938 30.2734,-9.42188 C29.4245,-10.2344 28.4479,-10.6406 27.3438,-10.6406 C25.3958,-10.6406 21.4089,-8.67188 15.3828,-4.73438 C9.35677,-0.796875 5.82292,1.82292 4.78125,3.125 C3.73958,4.42708 3.21875,5.59896 3.21875,6.64063 C3.21875,7.68229 3.6276,8.60938 4.44531,9.42188 C5.26302,10.2344 6.25521,10.6406 7.42188,10.6406 M26.375,-13.7656 C31.9688,-13.7656 34.7656,-11.3594 34.7656,-6.54688 C34.7656,-4.20313 34.0833,-1.48438 32.7188,1.60938 C31.3542,4.70313 29.5313,7.0625 27.25,8.6875 C22.2396,12.0729 15.9583,13.7656 8.40625,13.7656 C2.80208,13.7656 0,11.3594 0,6.54688 C0,4.40104 0.666667,1.73177 2,-1.46094 C3.33333,-4.65365 5.17188,-7.0625 7.51563,-8.6875 C12.5365,-12.0729 18.8229,-13.7656 26.375,-13.7656"/>
<path class="Note" transform="matrix(2.23937,0,0,2.23937,3036.65,2074.63)" d="M21.9688,-13.7656 C25.0938,-13.7656 27.6979,-12.9844 29.7813,-11.4219 C31.8646,-9.85938 32.9063,-7.61458 32.9063,-4.6875 C32.9063,-0.197917 30.5807,4 25.9297,7.90625 C21.2786,11.8125 16.2813,13.7656 10.9375,13.7656 C7.8125,13.7656 5.17708,12.9531 3.03125,11.3281 C1.01042,9.56771 0,7.35417 0,4.6875 C0,0.322917 2.3125,-3.84375 6.9375,-7.8125 C11.5625,-11.7813 16.5729,-13.7656 21.9688,-13.7656"/>
<path class="Note" transform="matrix(2.23937,0,0,2.23937,3277.84,2074.63)" d="M7.42188,10.6406 C9.30729,10.6406 13.263,8.6875 19.2891,4.78125 C25.3151,0.875 28.8646,-1.74479 29.9375,-3.07813 C31.0104,-4.41146 31.5469,-5.59896 31.5469,-6.64063 C31.5469,-7.68229 31.1224,-8.60938 30.2734,-9.42188 C29.4245,-10.2344 28.4479,-10.6406 27.3438,-10.6406 C25.3958,-10.6406 21.4089,-8.67188 15.3828,-4.73438 C9.35677,-0.796875 5.82292,1.82292 4.78125,3.125 C3.73958,4.42708 3.21875,5.59896 3.21875,6.64063 C3.21875,7.68229 3.6276,8.60938 4.44531,9.42188 C5.26302,10.2344 6.25521,10.6406 7.42188,10.6406 M26.375,-13.7656 C31.9688,-13.7656 34.7656,-11.3594 34.7656,-6.54688 C34.7656,-4.20313 34.0833,-1.48438 32.7188,1.60938 C31.3542,4.70313 29.5313,7.0625 27.25,8.6875 C22.2396,12.0729 15.9583,13.7656 8.40625,13.7656 C2.80208,13.7656 0,11.3594 0,6.54688 C0,4.40104 0.666667,1.73177 2,-1.46094 C3.33333,-4.65365 5.17188,-7.0625 7.51563,-8.6875 C12.5365,-12.0729 18.8229,-13.7656 26.375,-13.7656"/>
<path class="Note" transform="matrix(2.23937,0,0,2.23937,3674.56,2074.63)" d="M21.9688,-13.7656 C25.0938,-13.7656 27.6979,-12.9844 29.7813,-11.4219 C31.8646,-9.85938 32.9063,-7.61458 32.9063,-4.6875 C32.9063,-0.197917 30.5807,4 25.9297,7.90625 C21.2786,11.8125 16.2813,13.7656 10.9375,13.7656 C7.8125,13.7656 5.17708,12.9531 3.03125,11.3281 C1.01042,9.56771 0,7.35417 0,4.6875 C0,0.322917 2.3125,-3.84375 6.9375,-7.8125 C11.5625,-11.7813 16.5729,-13.7656 21.9688,-13.7656"/>
<path class="Clef" transform="matrix(2.23937,0,0,2.23937,106.696,630.709)" d="M41.8906,32.125 L41.8906,29.9844 C41.8281,28.8802 41.6667,27.1563 41.4063,24.8125 C38.1563,25.3333 35.2604,25.5938 32.7188,25.5938 C23.6042,25.5938 15.8724,21.9948 9.52344,14.7969 C3.17448,7.59896 0,-0.979167 0,-10.9375 C0,-13.6042 0.520833,-16.8099 1.5625,-20.5547 C2.60417,-24.2995 3.5651,-26.8073 4.44531,-28.0781 C5.32552,-29.349 6.64583,-31.5781 8.40625,-34.7656 C8.92708,-35.7448 10.6198,-37.8958 13.4844,-41.2188 C14.0052,-41.9271 14.4609,-42.5104 14.8516,-42.9688 C15.2422,-43.4271 15.875,-44.2422 16.75,-45.4141 C17.625,-46.5859 18.5677,-47.6771 19.5781,-48.6875 C20.5885,-49.6979 21.4844,-50.6745 22.2656,-51.6172 C23.0469,-52.5599 23.7656,-53.3542 24.4219,-54 C22.0781,-61.75 20.6458,-67.7083 20.125,-71.875 C19.6042,-76.0417 19.3438,-81.1536 19.3438,-87.2109 C19.3438,-93.2682 20.6458,-98.7708 23.25,-103.719 C25.7813,-108.854 29.3281,-113.052 33.8906,-116.313 C34.151,-116.51 34.4922,-116.609 34.9141,-116.609 C35.3359,-116.609 35.6458,-116.51 35.8438,-116.313 C39.3542,-112.083 42.3958,-106.583 44.9688,-99.8125 C47.5417,-93.0417 48.8281,-86.7083 48.8281,-80.8125 C48.8281,-74.9167 47.3333,-69.2344 44.3438,-63.7656 C40.9583,-57.974 36.5938,-51.9844 31.25,-45.7969 C32.6146,-41.5052 34.4375,-34.7708 36.7188,-25.5938 L37.3125,-25.5938 C37.5729,-25.6563 37.7969,-25.6875 37.9844,-25.6875 C45.349,-25.6875 51.3568,-23.099 56.0078,-17.9219 C60.6589,-12.7448 62.9844,-6.77083 62.9844,0 C62.9844,8.39583 59.5052,15.1667 52.5469,20.3125 C50.526,21.8125 48.1458,22.9844 45.4063,23.8281 C45.7396,28.0573 45.9063,30.8724 45.9063,32.2734 C45.9063,33.6745 45.8385,36.1667 45.7031,39.75 C45.6406,45.8646 43.5573,51.1042 39.4531,55.4688 C35.349,59.8333 30.6615,62.0156 25.3906,62.0156 C20.1198,62.0156 15.6276,60.1432 11.9141,56.3984 C8.20052,52.6536 6.34375,48.1146 6.34375,42.7813 C6.34375,39.9792 7.42188,37.599 9.57813,35.6406 C11.7865,33.6927 14.2734,32.7188 17.0391,32.7188 C19.8047,32.7188 22.0677,33.7292 23.8281,35.75 C25.651,37.6354 26.5625,39.9115 26.5625,42.5781 C26.5625,45.2448 25.651,47.4896 23.8281,49.3125 C22.0052,51.1354 19.8229,52.0469 17.2813,52.0469 C16.2396,52.0469 15.2344,51.8542 14.2656,51.4688 C17.1302,55.6979 20.8073,57.8125 25.2969,57.8125 C29.7865,57.8125 33.6276,55.9583 36.8203,52.25 C40.013,48.5417 41.6094,44.1771 41.6094,39.1563 L41.8906,32.125 M45.0156,19.8281 C48.401,18.5885 51.0885,16.3906 53.0781,13.2344 C55.0677,10.0781 56.0625,6.9375 56.0625,3.8125 C56.0625,-0.8125 54.4661,-4.94792 51.2734,-8.59375 C48.0807,-12.2396 44.0417,-14.2917 39.1563,-14.75 C41.9583,-1.01042 43.9115,10.5156 45.0156,19.8281 M7.23438,-2.73438 C7.23438,3.71354 9.80469,9.34635 14.9453,14.1641 C20.0859,18.9818 26.1094,21.3906 33.0156,21.3906 C35.7448,21.3906 38.4115,21.1927 41.0156,20.7969 C39.974,10.901 37.9219,-0.947917 34.8594,-14.75 C31.026,-14.3542 28.0495,-13.0339 25.9297,-10.7891 C23.8099,-8.54427 22.75,-5.98958 22.75,-3.125 C22.75,1.82292 25.3906,5.82813 30.6719,8.89063 C31.1198,9.15104 31.3438,9.59115 31.3438,10.2109 C31.3438,10.8307 31.1328,11.3672 30.7109,11.8203 C30.2891,12.2734 29.9167,12.5 29.5938,12.5 C29.2708,12.5 28.849,12.4375 28.3281,12.3125 C20.7031,8.14583 16.8906,1.85938 16.8906,-6.54688 C16.8906,-10.5156 18.2917,-14.3229 21.0938,-17.9688 C24.0208,-21.6146 27.8281,-23.9583 32.5156,-25 C30.6927,-32.2917 29.1979,-37.9896 28.0313,-42.0938 C19.1146,-32.0625 13.5781,-24.6406 11.4219,-19.8281 C8.63021,-13.5781 7.23438,-7.88021 7.23438,-2.73438 M39.8438,-102.047 C34.9583,-99.6406 31.1016,-96.1589 28.2734,-91.6016 C25.4453,-87.0443 24.0313,-82.2604 24.0313,-77.25 C24.0313,-72.2396 25.2031,-65.7604 27.5469,-57.8125 C32.2344,-63.4792 35.7813,-68.7865 38.1875,-73.7344 C40.5938,-78.6823 41.7969,-83.5807 41.7969,-88.4297 C41.7969,-93.2786 41.1458,-97.8177 39.8438,-102.047"/>
<path class="Clef" transform="matrix(2.23937,0,0,2.23937,106.696,1450.64)" d="M41.8906,32.125 L41.8906,29.9844 C41.8281,28.8802 41.6667,27.1563 41.4063,24.8125 C38.1563,25.3333 35.2604,25.5938 32.7188,25.5938 C23.6042,25.5938 15.8724,21.9948 9.52344,14.7969 C3.17448,7.59896 0,-0.979167 0,-10.9375 C0,-13.6042 0.520833,-16.8099 1.5625,-20.5547 C2.60417,-24.2995 3.5651,-26.8073 4.44531,-28.0781 C5.32552,-29.349 6.64583,-31.5781 8.40625,-34.7656 C8.92708,-35.7448 10.6198,-37.8958 13.4844,-41.2188 C14.0052,-41.9271 14.4609,-42.5104 14.8516,-42.9688 C15.2422,-43.4271 15.875,-44.2422 16.75,-45.4141 C17.625,-46.5859 18.5677,-47.6771 19.5781,-48.6875 C20.5885,-49.6979 21.4844,-50.6745 22.2656,-51.6172 C23.0469,-52.5599 23.7656,-53.3542 24.4219,-54 C22.0781,-61.75 20.6458,-67.7083 20.125,-71.875 C19.6042,-76.0417 19.3438,-81.1536 19.3438,-87.2109 C19.3438,-93.2682 20.6458,-98.7708 23.25,-103.719 C25.7813,-108.854 29.3281,-113.052 33.8906,-116.313 C34.151,-116.51 34.4922,-116.609 34.9141,-116.609 C35.3359,-116.609 35.6458,-116.51 35.8438,-116.313 C39.3542,-112.083 42.3958,-106.583 44.9688,-99.8125 C47.5417,-93.0417 48.8281,-86.7083 48.8281,-80.8125 C48.8281,-74.9167 47.3333,-69.2344 44.3438,-63.7656 C40.9583,-57.974 36.5938,-51.9844 31.25,-45.7969 C32.6146,-41.5052 34.4375,-34.7708 36.7188,-25.5938 L37.3125,-25.5938 C37.5729,-25.6563 37.7969,-25.6875 37.9844,-25.6875 C45.349,-25.6875 51.3568,-23.099 56.0078,-17.9219 C60.6589,-12.7448 62.9844,-6.77083 62.9844,0 C62.9844,8.39583 59.5052,15.1667 52.5469,20.3125 C50.526,21.8125 48.1458,22.9844 45.4063,23.8281 C45.7396,28.0573 45.9063,30.8724 45.9063,32.2734 C45.9063,33.6745 45.8385,36.1667 45.7031,39.75 C45.6406,45.8646 43.5573,51.1042 39.4531,55.4688 C35.349,59.8333 30.6615,62.0156 25.3906,62.0156 C20.1198,62.0156 15.6276,60.1432 11.9141,56.3984 C8.20052,52.6536 6.34375,48.1146 6.34375,42.7813 C6.34375,39.9792 7.42188,37.599 9.57813,35.6406 C11.7865,33.6927 14.2734,32.7188 17.0391,32.7188 C19.8047,32.7188 22.0677,33.7292 23.8281,35.75 C25.651,37.6354 26.5625,39.9115 26.5625,42.5781 C26.5625,45.2448 25.651,47.4896 23.8281,49.3125 C22.0052,51.1354 19.8229,52.0469 17.2813,52.0469 C16.2396,52.0469 15.2344,51.8542 14.2656,51.4688 C17.1302,55.6979 20.8073,57.8125 25.2969,57.8125 C29.7865,57.8125 33.6276,55.9583 36.8203,52.25 C40.013,48.5417 41.6094,44.1771 41.6094,39.1563 L41.8906,32.125 M45.0156,19.8281 C48.401,18.5885 51.0885,16.3906 53.0781,13.2344 C55.0677,10.0781 56.0625,6.9375 56.0625,3.8125 C56.0625,-0.8125 54.4661,-4.94792 51.2734,-8.59375 C48.0807,-12.2396 44.0417,-14.2917 39.1563,-14.75 C41.9583,-1.01042 43.9115,10.5156 45.0156,19.8281 M7.23438,-2.73438 C7.23438,3.71354 9.80469,9.34635 14.9453,14.1641 C20.0859,18.9818 26.1094,21.3906 33.0156,21.3906 C35.7448,21.3906 38.4115,21.1927 41.0156,20.7969 C39.974,10.901 37.9219,-0.947917 34.8594,-14.75 C31.026,-14.3542 28.0495,-13.0339 25.9297,-10.7891 C23.8099,-8.54427 22.75,-5.98958 22.75,-3.125 C22.75,1.82292 25.3906,5.82813 30.6719,8.89063 C31.1198,9.15104 31.3438,9.59115 31.3438,10.2109 C31.3438,10.8307 31.1328,11.3672 30.7109,11.8203 C30.2891,12.2734 29.9167,12.5 29.5938,12.5 C29.2708,12.5 28.849,12.4375 28.3281,12.3125 C20.7031,8.14583 16.8906,1.85938 16.8906,-6.54688 C16.8906,-10.5156 18.2917,-14.3229 21.0938,-17.9688 C24.0208,-21.6146 27.8281,-23.9583 32.5156,-25 C30.6927,-32.2917 29.1979,-37.9896 28.0313,-42.0938 C19.1146,-32.0625 13.5781,-24.6406 11.4219,-19.8281 C8.63021,-13.5781 7.23438,-7.88021 7.23438,-2.73438 M39.8438,-102.047 C34.9583,-99.6406 31.1016,-96.1589 28.2734,-91.6016 C25.4453,-87.0443 24.0313,-82.2604 24.0313,-77.25 C24.0313,-72.2396 25.2031,-65.7604 27.5469,-57.8125 C32.2344,-63.4792 35.7813,-68.7865 38.1875,-73.7344 C40.5938,-78.6823 41.7969,-83.5807 41.7969,-88.4297 C41.7969,-93.2786 41.1458,-97.8177 39.8438,-102.047"/>
<path class="Clef" transform="matrix(2.23937,0,0,2.23937,106.696,2270.57)" d="M41.8906,32.125 L41.8906,29.9844 C41.8281,28.8802 41.6667,27.1563 41.4063,24.8125 C38.1563,25.3333 35.2604,25.5938 32.7188,25.5938 C23.6042,25.5938 15.8724,21.9948 9.52344,14.7969 C3.17448,7.59896 0,-0.979167 0,-10.9375 C0,-13.6042 0.520833,-16.8099 1.5625,-20.5547 C2.60417,-24.2995 3.5651,-26.8073 4.44531,-28.0781 C5.32552,-29.349 6.64583,-31.5781 8.40625,-34.7656 C8.92708,-35.7448 10.6198,-37.8958 13.4844,-41.2188 C14.0052,-41.9271 14.4609,-42.5104 14.8516,-42.9688 C15.2422,-43.4271 15.875,-44.2422 16.75,-45.4141 C17.625,-46.5859 18.5677,-47.6771 19.5781,-48.6875 C20.5885,-49.6979 21.4844,-50.6745 22.2656,-51.6172 C23.0469,-52.5599 23.7656,-53.3542 24.4219,-54 C22.0781,-61.75 20.6458,-67.7083 20.125,-71.875 C19.6042,-76.0417 19.3438,-81.1536 19.3438,-87.2109 C19.3438,-93.2682 20.6458,-98.7708 23.25,-103.719 C25.7813,-108.854 29.3281,-113.052 33.8906,-116.313 C34.151,-116.51 34.4922,-116.609 34.9141,-116.609 C35.3359,-116.609 35.6458,-116.51 35.8438,-116.313 C39.3542,-112.083 42.3958,-106.583 44.9688,-99.8125 C47.5417,-93.0417 48.8281,-86.7083 48.8281,-80.8125 C48.8281,-74.9167 47.3333,-69.2344 44.3438,-63.7656 C40.9583,-57.974 36.5938,-51.9844 31.25,-45.7969 C32.6146,-41.5052 34.4375,-34.7708 36.7188,-25.5938 L37.3125,-25.5938 C37.5729,-25.6563 37.7969,-25.6875 37.9844,-25.6875 C45.349,-25.6875 51.3568,-23.099 56.0078,-17.9219 C60.6589,-12.7448 62.9844,-6.77083 62.9844,0 C62.9844,8.39583 59.5052,15.1667 52.5469,20.3125 C50.526,21.8125 48.1458,22.9844 45.4063,23.8281 C45.7396,28.0573 45.9063,30.8724 45.9063,32.2734 C45.9063,33.6745 45.8385,36.1667 45.7031,39.75 C45.6406,45.8646 43.5573,51.1042 39.4531,55.4688 C35.349,59.8333 30.6615,62.0156 25.3906,62.0156 C20.1198,62.0156 15.6276,60.1432 11.9141,56.3984 C8.20052,52.6536 6.34375,48.1146 6.34375,42.7813 C6.34375,39.9792 7.42188,37.599 9.57813,35.6406 C11.7865,33.6927 14.2734,32.7188 17.0391,32.7188 C19.8047,32.7188 22.0677,33.7292 23.8281,35.75 C25.651,37.6354 26.5625,39.9115 26.5625,42.5781 C26.5625,45.2448 25.651,47.4896 23.8281,49.3125 C22.0052,51.1354 19.8229,52.0469 17.2813,52.0469 C16.2396,52.0469 15.2344,51.8542 14.2656,51.4688 C17.1302,55.6979 20.8073,57.8125 25.2969,57.8125 C29.7865,57.8125 33.6276,55.9583 36.8203,52.25 C40.013,48.5417 41.6094,44.1771 41.6094,39.1563 L41.8906,32.125 M45.0156,19.8281 C48.401,18.5885 51.0885,16.3906 53.0781,13.2344 C55.0677,10.0781 56.0625,6.9375 56.0625,3.8125 C56.0625,-0.8125 54.4661,-4.94792 51.2734,-8.59375 C48.0807,-12.2396 44.0417,-14.2917 39.1563,-14.75 C41.9583,-1.01042 43.9115,10.5156 45.0156,19.8281 M7.23438,-2.73438 C7.23438,3.71354 9.80469,9.34635 14.9453,14.1641 C20.0859,18.9818 26.1094,21.3906 33.0156,21.3906 C35.7448,21.3906 38.4115,21.1927 41.0156,20.7969 C39.974,10.901 37.9219,-0.947917 34.8594,-14.75 C31.026,-14.3542 28.0495,-13.0339 25.9297,-10.7891 C23.8099,-8.54427 22.75,-5.98958 22.75,-3.125 C22.75,1.82292 25.3906,5.82813 30.6719,8.89063 C31.1198,9.15104 31.3438,9.59115 31.3438,10.2109 C31.3438,10.8307 31.1328,11.3672 30.7109,11.8203 C30.2891,12.2734 29.9167,12.5 29.5938,12.5 C29.2708,12.5 28.849,12.4375 28.3281,12.3125 C20.7031,8.14583 16.8906,1.85938 16.8906,-6.54688 C16.8906,-10.5156 18.2917,-14.3229 21.0938,-17.9688 C24.0208,-21.6146 27.8281,-23.9583 32.5156,-25 C30.6927,-32.2917 29.1979,-37.9896 28.0313,-42.0938 C19.1146,-32.0625 13.5781,-24.6406 11.4219,-19.8281 C8.63021,-13.5781 7.23438,-7.88021 7.23438,-2.73438 M39.8438,-102.047 C34.9583,-99.6406 31.1016,-96.1589 28.2734,-91.6016 C25.4453,-87.0443 24.0313,-82.2604 24.0313,-77.25 C24.0313,-72.2396 25.2031,-65.7604 27.5469,-57.8125 C32.2344,-63.4792 35.7813,-68.7865 38.1875,-73.7344 C40.5938,-78.6823 41.7969,-83.5807 41.7969,-88.4297 C41.7969,-93.2786 41.1458,-97.8177 39.8438,-102.047"/>
<path class="KeySig" transform="matrix(2.23937,0,0,2.23937,304.915,574.724)" d="M0.875,17.5781 L-0.390625,-44.5313 C-0.390625,-45.5104 0.375,-46 1.90625,-46 C3.4375,-46 4.20313,-45.5104 4.20313,-44.5313 L3.42188,-10.6406 C5.18229,-12.401 6.69531,-13.6224 7.96094,-14.3047 C9.22656,-14.987 10.9505,-15.3281 13.1328,-15.3281 C15.3151,-15.3281 17.3333,-14.3203 19.1875,-12.3047 C21.0417,-10.2891 21.9688,-7.78125 21.9688,-4.78125 C21.9688,-0.291667 17.25,5.92708 7.8125,13.875 C4.30208,17.0625 2.47917,18.6563 2.34375,18.6563 L1.76563,18.6563 C1.17188,18.6563 0.875,18.2969 0.875,17.5781 M3.32813,-7.51563 L3.03125,14.6563 C5.05208,12.7604 7.10417,9.61458 9.1875,5.21875 C11.2708,0.822917 12.3125,-2.9375 12.3125,-6.0625 C12.3125,-7.625 12.0521,-9.05729 11.5313,-10.3594 C11.0104,-11.6615 10.1953,-12.3125 9.08594,-12.3125 C7.97656,-12.3125 6.98177,-11.9219 6.10156,-11.1406 C5.22135,-10.3594 4.29688,-9.15104 3.32813,-7.51563"/>
<path class="KeySig" transform="matrix(2.23937,0,0,2.23937,304.915,1394.66)" d="M0.875,17.5781 L-0.390625,-44.5313 C-0.390625,-45.5104 0.375,-46 1.90625,-46 C3.4375,-46 4.20313,-45.5104 4.20313,-44.5313 L3.42188,-10.6406 C5.18229,-12.401 6.69531,-13.6224 7.96094,-14.3047 C9.22656,-14.987 10.9505,-15.3281 13.1328,-15.3281 C15.3151,-15.3281 17.3333,-14.3203 19.1875,-12.3047 C21.0417,-10.2891 21.9688,-7.78125 21.9688,-4.78125 C21.9688,-0.291667 17.25,5.92708 7.8125,13.875 C4.30208,17.0625 2.47917,18.6563 2.34375,18.6563 L1.76563,18.6563 C1.17188,18.6563 0.875,18.2969 0.875,17.5781 M3.32813,-7.51563 L3.03125,14.6563 C5.05208,12.7604 7.10417,9.61458 9.1875,5.21875 C11.2708,0.822917 12.3125,-2.9375 12.3125,-6.0625 C12.3125,-7.625 12.0521,-9.05729 11.5313,-10.3594 C11.0104,-11.6615 10.1953,-12.3125 9.08594,-12.3125 C7.97656,-12.3125 6.98177,-11.9219 6.10156,-11.1406 C5.22135,-10.3594 4.29688,-9.15104 3.32813,-7.51563"/>
<path class="KeySig" transform="matrix(2.23937,0,0,2.23937,304.915,2214.59)" d="M0.875,17.5781 L-0.390625,-44.5313 C-0.390625,-45.5104 0.375,-46 1.90625,-46 C3.4375,-46 4.20313,-45.5104 4.20313,-44.5313 L3.42188,-10.6406 C5.18229,-12.401 6.69531,-13.6224 7.96094,-14.3047 C9.22656,-14.987 10.9505,-15.3281 13.1328,-15.3281 C15.3151,-15.3281 17.3333,-14.3203 19.1875,-12.3047 C21.0417,-10.2891 21.9688,-7.78125 21.9688,-4.78125 C21.9688,-0.291667 17.25,5.92708 7.8125,13.875 C4.30208,17.0625 2.47917,18.6563 2.34375,18.6563 L1.76563,18.6563 C1.17188,18.6563 0.875,18.2969 0.875,17.5781 M3.32813,-7.51563 L3.03125,14.6563 C5.05208,12.7604 7.10417,9.61458 9.1875,5.21875 C11.2708,0.822917 12.3125,-2.9375 12.3125,-6.0625 C12.3125,-7.625 12.0521,-9.05729 11.5313,-10.3594 C11.0104,-11.6615 10.1953,-12.3125 9.08594,-12.3125 C7.97656,-12.3125 6.98177,-11.9219 6.10156,-11.1406 C5.22135,-10.3594 4.29688,-9.15104 3.32813,-7.51563"/>
<path class="TimeSig" transform="matrix(2.23937,0,0,2.23937,410.48,518.548)" d="M23.1484,-23.7344 C24.6432,-23.7344 26.0755,-23.9609 27.4453,-24.4141 C28.8151,-24.8672 29.7917,-25.0938 30.375,-25.0938 C30.9583,-25.0938 31.349,-24.7396 31.5469,-24.0313 C31.5469,-23.9583 31.4792,-23.7604 31.3438,-23.4375 L2.9375,9.57813 L19.625,9.57813 L19.625,-3.51563 C19.625,-5.14063 20.5729,-6.3125 22.4688,-7.03125 C24.4167,-7.75 26.6302,-10.6458 29.1094,-15.7188 C29.2969,-16.1146 29.5885,-16.3125 29.9844,-16.3125 C30.7656,-16.3125 31.2188,-15.8542 31.3438,-14.9375 L31.3438,9.57813 L38.4844,9.57813 C39.3906,9.57813 39.8776,10.0651 39.9453,11.0391 C40.013,12.013 39.526,12.5 38.4844,12.5 L31.3438,12.5 L31.3438,13.2813 C31.3438,15.8854 31.9948,18.099 33.2969,19.9219 C34.7969,21.7448 36.5573,22.6563 38.5781,22.6563 C39.3594,22.6563 39.75,23.0469 39.75,23.8281 C39.75,24.6094 39.2135,25 38.1406,25 C37.0677,25 35.0651,24.7891 32.1328,24.3672 C29.2005,23.9453 26.9375,23.7344 25.3438,23.7344 C23.75,23.7344 21.5365,23.9453 18.7031,24.3672 C15.8698,24.7891 13.7396,25 12.3125,25 C11.5313,25 11.1406,24.6094 11.1406,23.8281 C11.1406,23.0469 11.5313,22.6563 12.3125,22.6563 C14.3229,22.6563 16.0781,21.7448 17.5781,19.9219 C18.9427,18.0365 19.625,15.8229 19.625,13.2813 L19.625,12.5 L2.9375,12.5 C2.08333,12.5 1.34635,12.2734 0.726563,11.8203 C0.106771,11.3672 -0.203125,10.9453 -0.203125,10.5547 C-0.203125,10.1641 0.611979,8.99219 2.24219,7.03906 C3.8724,5.08594 6.20052,1.32552 9.22656,-4.24219 C12.2526,-9.8099 13.7656,-16.2083 13.7656,-23.4375 C13.7656,-24.4792 14.224,-25 15.1406,-25 C15.3385,-25 15.6484,-24.9349 16.0703,-24.8047 C16.4922,-24.6745 17.4036,-24.4635 18.8047,-24.1719 C20.2057,-23.8802 21.6536,-23.7344 23.1484,-23.7344"/>
<path class="TimeSig" transform="matrix(2.23937,0,0,2.23937,410.48,630.901)" d="M23.1484,-23.7344 C24.6432,-23.7344 26.0755,-23.9609 27.4453,-24.4141 C28.8151,-24.8672 29.7917,-25.0938 30.375,-25.0938 C30.9583,-25.0938 31.349,-24.7396 31.5469,-24.0313 C31.5469,-23.9583 31.4792,-23.7604 31.3438,-23.4375 L2.9375,9.57813 L19.625,9.57813 L19.625,-3.51563 C19.625,-5.14063 20.5729,-6.3125 22.4688,-7.03125 C24.4167,-7.75 26.6302,-10.6458 29.1094,-15.7188 C29.2969,-16.1146 29.5885,-16.3125 29.9844,-16.3125 C30.7656,-16.3125 31.2188,-15.8542 31.3438,-14.9375 L31.3438,9.57813 L38.4844,9.57813 C39.3906,9.57813 39.8776,10.0651 39.9453,11.0391 C40.013,12.013 39.526,12.5 38.4844,12.5 L31.3438,12.5 L31.3438,13.2813 C31.3438,15.8854 31.9948,18.099 33.2969,19.9219 C34.7969,21.7448 36.5573,22.6563 38.5781,22.6563 C39.3594,22.6563 39.75,23.0469 39.75,23.8281 C39.75,24.6094 39.2135,25 38.1406,25 C37.0677,25 35.0651,24.7891 32.1328,24.3672 C29.2005,23.9453 26.9375,23.7344 25.3438,23.7344 C23.75,23.7344 21.5365,23.9453 18.7031,24.3672 C15.8698,24.7891 13.7396,25 12.3125,25 C11.5313,25 11.1406,24.6094 11.1406,23.8281 C11.1406,23.0469 11.5313,22.6563 12.3125,22.6563 C14.3229,22.6563 16.0781,21.7448 17.5781,19.9219 C18.9427,18.0365 19.625,15.8229 19.625,13.2813 L19.625,12.5 L2.9375,12.5 C2.08333,12.5 1.34635,12.2734 0.726563,11.8203 C0.106771,11.3672 -0.203125,10.9453 -0.203125,10.5547 C-0.203125,10.1641 0.611979,8.99219 2.24219,7.03906 C3.8724,5.08594 6.20052,1.32552 9.22656,-4.24219 C12.2526,-9.8099 13.7656,-16.2083 13.7656,-23.4375 C13.7656,-24.4792 14.224,-25 15.1406,-25 C15.3385,-25 15.6484,-24.9349 16.0703,-24.8047 C16.4922,-24.6745 17.4036,-24.4635 18.8047,-24.1719 C20.2057,-23.8802 21.6536,-23.7344 23.1484,-23.7344"/>
<path class="Rest" transform="matrix(2.23937,0,0,2.23937,650.908,1394.66)" d="M18.9531,-7.625 C14.7865,-6.125 11.401,-5.375 8.79688,-5.375 C6.19271,-5.375 4.02604,-6.10677 2.29688,-7.57031 C0.567708,-9.03385 -0.296875,-10.8568 -0.296875,-13.0391 C-0.296875,-15.2214 0.419271,-17.013 1.85156,-18.4141 C3.28385,-19.8151 4.97656,-20.5156 6.92969,-20.5156 C8.88281,-20.5156 10.349,-19.9609 11.3281,-18.8516 C12.3073,-17.7422 12.8464,-16.6823 12.9453,-15.6719 C13.0443,-14.6615 13.3542,-13.5417 13.875,-12.3125 C14.4583,-11.2708 15.1563,-10.75 15.9688,-10.75 C16.7813,-10.75 17.8724,-11.513 19.2422,-13.0391 C20.612,-14.5651 21.5234,-15.7682 21.9766,-16.6484 C22.4297,-17.5286 22.9818,-17.9531 23.6328,-17.9219 C24.2839,-17.8906 24.7396,-17.5833 25,-17 L12.7031,25 C12.0469,25.6563 11.1328,25.9844 9.96094,25.9844 C8.78906,25.9844 7.88021,25.6563 7.23438,25 L18.9531,-7.625 "/>
<path class="Rest" transform="matrix(2.23937,0,0,2.23937,1301.82,1394.66)" d="M0.390625,-5.28125 C-0.265625,-6.125 -0.59375,-7.03646 -0.59375,-8.01563 C-0.59375,-9.76563 1.49479,-12.2031 5.67188,-15.3281 C9.76563,-18.526 11.8125,-22.1719 11.8125,-26.2656 C11.8125,-28.6823 10.9688,-30.8958 9.28125,-32.9063 L5.76563,-37.1094 C5.50521,-37.3698 5.375,-37.6953 5.375,-38.0859 C5.375,-38.4766 5.56771,-38.8333 5.95313,-39.1563 C6.41146,-39.4896 6.83594,-39.6563 7.22656,-39.6563 C7.61719,-39.6563 7.94271,-39.4583 8.20313,-39.0625 L23.3438,-21.0938 C23.9896,-20.25 24.3125,-19.3229 24.3125,-18.3125 C24.3125,-17.3021 23.776,-16.2109 22.7031,-15.0391 C21.6302,-13.8672 20.1198,-12.5 18.1719,-10.9375 C16.6719,-10.0313 15.2552,-8.60156 13.9219,-6.64844 C12.5885,-4.69531 11.9219,-2.47917 11.9219,0 C11.9219,2.47917 12.7031,4.66146 14.2656,6.54688 L22.6563,16.4063 C22.8542,16.6042 22.9844,16.9297 23.0469,17.3828 C23.1094,17.8359 22.9453,18.2266 22.5547,18.5547 C22.1641,18.8828 21.8568,19.0469 21.6328,19.0469 C21.4089,19.0469 20.8229,18.6719 19.875,17.9219 C18.9271,17.1719 17.5911,16.4401 15.8672,15.7266 C14.1432,15.013 12.4349,14.6563 10.7422,14.6563 C9.04948,14.6563 7.71615,15.112 6.74219,16.0234 C5.76823,16.9349 5.28125,19.0339 5.28125,22.3203 C5.28125,25.6068 6.22396,28.3906 8.10938,30.6719 C8.30729,30.9323 8.34115,31.224 8.21094,31.5469 C8.08073,31.8698 7.82031,32.0313 7.42969,32.0313 C7.03906,32.0313 6.04427,30.8281 4.44531,28.4219 C2.84635,26.0156 1.3151,23.1667 -0.148438,19.875 C-1.61198,16.5833 -2.34375,13.8333 -2.34375,11.625 C-2.34375,8.82292 -0.911458,7.42188 1.95313,7.42188 C4.81771,7.42188 8.69271,8.46354 13.5781,10.5469 L0.390625,-5.28125 "/>
<path class="Rest" transform="matrix(2.23937,0,0,2.23937,1416.75,1394.66)" d="M36.5313,0 L0.984375,0 C0.328125,0 0,-0.328125 0,-0.984375 L0,-14.6563 C0,-15.3021 0.328125,-15.625 0.984375,-15.625 L36.5313,-15.625 C37.1771,-15.625 37.5,-15.3021 37.5,-14.6563 L37.5,-0.984375 C37.5,-0.328125 37.1771,0 36.5313,0"/>
<path class="Rest" transform="matrix(2.23937,0,0,2.23937,1866.92,1394.66)" d="M18.9531,-7.625 C14.7865,-6.125 11.401,-5.375 8.79688,-5.375 C6.19271,-5.375 4.02604,-6.10677 2.29688,-7.57031 C0.567708,-9.03385 -0.296875,-10.8568 -0.296875,-13.0391 C-0.296875,-15.2214 0.419271,-17.013 1.85156,-18.4141 C3.28385,-19.8151 4.97656,-20.5156 6.92969,-20.5156 C8.88281,-20.5156 10.349,-19.9609 11.3281,-18.8516 C12.3073,-17.7422 12.8464,-16.6823 12.9453,-15.6719 C13.0443,-14.6615 13.3542,-13.5417 13.875,-12.3125 C14.4583,-11.2708 15.1563,-10.75 15.9688,-10.75 C16.7813,-10.75 17.8724,-11.513 19.2422,-13.0391 C20.612,-14.5651 21.5234,-15.7682 21.9766,-16.6484 C22.4297,-17.5286 22.9818,-17.9531 23.6328,-17.9219 C24.2839,-17.8906 24.7396,-17.5833 25,-17 L12.7031,25 C12.0469,25.6563 11.1328,25.9844 9.96094,25.9844 C8.78906,25.9844 7.88021,25.6563 7.23438,25 L18.9531,-7.625 "/>
<path class="Rest" transform="matrix(2.23937,0,0,2.23937,2604.65,1394.66)" d="M0.390625,-5.28125 C-0.265625,-6.125 -0.59375,-7.03646 -0.59375,-8.01563 C-0.59375,-9.76563 1.49479,-12.2031 5.67188,-15.3281 C9.76563,-18.526 11.8125,-22.1719 11.8125,-26.2656 C11.8125,-28.6823 10.9688,-30.8958 9.28125,-32.9063 L5.76563,-37.1094 C5.50521,-37.3698 5.375,-37.6953 5.375,-38.0859 C5.375,-38.4766 5.56771,-38.8333 5.95313,-39.1563 C6.41146,-39.4896 6.83594,-39.6563 7.22656,-39.6563 C7.61719,-39.6563 7.94271,-39.4583 8.20313,-39.0625 L23.3438,-21.0938 C23.9896,-20.25 24.3125,-19.3229 24.3125,-18.3125 C24.3125,-17.3021 23.776,-16.2109 22.7031,-15.0391 C21.6302,-13.8672 20.1198,-12.5 18.1719,-10.9375 C16.6719,-10.0313 15.2552,-8.60156 13.9219,-6.64844 C12.5885,-4.69531 11.9219,-2.47917 11.9219,0 C11.9219,2.47917 12.7031,4.66146 14.2656,6.54688 L22.6563,16.4063 C22.8542,16.6042 22.9844,16.9297 23.0469,17.3828 C23.1094,17.8359 22.9453,18.2266 22.5547,18.5547 C22.1641,18.8828 21.8568,19.0469 21.6328,19.0469 C21.4089,19.0469 20.8229,18.6719 19.875,17.9219 C18.9271,17.1719 17.5911,16.4401 15.8672,15.7266 C14.1432,15.013 12.4349,14.6563 10.7422,14.6563 C9.04948,14.6563 7.71615,15.112 6.74219,16.0234 C5.76823,16.9349 5.28125,19.0339 5.28125,22.3203 C5.28125,25.6068 6.22396,28.3906 8.10938,30.6719 C8.30729,30.9323 8.34115,31.224 8.21094,31.5469 C8.08073,31.8698 7.82031,32.0313 7.42969,32.0313 C7.03906,32.0313 6.04427,30.8281 4.44531,28.4219 C2.84635,26.0156 1.3151,23.1667 -0.148438,19.875 C-1.61198,16.5833 -2.34375,13.8333 -2.34375,11.625 C-2.34375,8.82292 -0.911458,7.42188 1.95313,7.42188 C4.81771,7.42188 8.69271,8.46354 13.5781,10.5469 L0.390625,-5.28125 "/>
<path class="Rest" transform="matrix(2.23937,0,0,2.23937,2719.58,1394.66)" d="M36.5313,0 L0.984375,0 C0.328125,0 0,-0.328125 0,-0.984375 L0,-14.6563 C0,-15.3021 0.328125,-15.625 0.984375,-15.625 L36.5313,-15.625 C37.1771,-15.625 37.5,-15.3021 37.5,-14.6563 L37.5,-0.984375 C37.5,-0.328125 37.1771,0 36.5313,0"/>
<path class="Rest" transform="matrix(2.23937,0,0,2.23937,3157.64,1394.66)" d="M18.9531,-7.625 C14.7865,-6.125 11.401,-5.375 8.79688,-5.375 C6.19271,-5.375 4.02604,-6.10677 2.29688,-7.57031 C0.567708,-9.03385 -0.296875,-10.8568 -0.296875,-13.0391 C-0.296875,-15.2214 0.419271,-17.013 1.85156,-18.4141 C3.28385,-19.8151 4.97656,-20.5156 6.92969,-20.5156 C8.88281,-20.5156 10.349,-19.9609 11.3281,-18.8516 C12.3073,-17.7422 12.8464,-16.6823 12.9453,-15.6719 C13.0443,-14.6615 13.3542,-13.5417 13.875,-12.3125 C14.4583,-11.2708 15.1563,-10.75 15.9688,-10.75 C16.7813,-10.75 17.8724,-11.513 19.2422,-13.0391 C20.612,-14.5651 21.5234,-15.7682 21.9766,-16.6484 C22.4297,-17.5286 22.9818,-17.9531 23.6328,-17.9219 C24.2839,-17.8906 24.7396,-17.5833 25,-17 L12.7031,25 C12.0469,25.6563 11.1328,25.9844 9.96094,25.9844 C8.78906,25.9844 7.88021,25.6563 7.23438,25 L18.9531,-7.625 "/>
<path class="Rest" transform="matrix(2.23937,0,0,2.23937,3829.83,1394.66)" d="M0.390625,-5.28125 C-0.265625,-6.125 -0.59375,-7.03646 -0.59375,-8.01563 C-0.59375,-9.76563 1.49479,-12.2031 5.67188,-15.3281 C9.76563,-18.526 11.8125,-22.1719 11.8125,-26.2656 C11.8125,-28.6823 10.9688,-30.8958 9.28125,-32.9063 L5.76563,-37.1094 C5.50521,-37.3698 5.375,-37.6953 5.375,-38.0859 C5.375,-38.4766 5.56771,-38.8333 5.95313,-39.1563 C6.41146,-39.4896 6.83594,-39.6563 7.22656,-39.6563 C7.61719,-39.6563 7.94271,-39.4583 8.20313,-39.0625 L23.3438,-21.0938 C23.9896,-20.25 24.3125,-19.3229 24.3125,-18.3125 C24.3125,-17.3021 23.776,-16.2109 22.7031,-15.0391 C21.6302,-13.8672 20.1198,-12.5 18.1719,-10.9375 C16.6719,-10.0313 15.2552,-8.60156 13.9219,-6.64844 C12.5885,-4.69531 11.9219,-2.47917 11.9219,0 C11.9219,2.47917 12.7031,4.66146 14.2656,6.54688 L22.6563,16.4063 C22.8542,16.6042 22.9844,16.9297 23.0469,17.3828 C23.1094,17.8359 22.9453,18.2266 22.5547,18.5547 C22.1641,18.8828 21.8568,19.0469 21.6328,19.0469 C21.4089,19.0469 20.8229,18.6719 19.875,17.9219 C18.9271,17.1719 17.5911,16.4401 15.8672,15.7266 C14.1432,15.013 12.4349,14.6563 10.7422,14.6563 C9.04948,14.6563 7.71615,15.112 6.74219,16.0234 C5.76823,16.9349 5.28125,19.0339 5.28125,22.3203 C5.28125,25.6068 6.22396,28.3906 8.10938,30.6719 C8.30729,30.9323 8.34115,31.224 8.21094,31.5469 C8.08073,31.8698 7.82031,32.0313 7.42969,32.0313 C7.03906,32.0313 6.04427,30.8281 4.44531,28.4219 C2.84635,26.0156 1.3151,23.1667 -0.148438,19.875 C-1.61198,16.5833 -2.34375,13.8333 -2.34375,11.625 C-2.34375,8.82292 -0.911458,7.42188 1.95313,7.42188 C4.81771,7.42188 8.69271,8.46354 13.5781,10.5469 L0.390625,-5.28125 "/>
<path class="Rest" transform="matrix(2.23937,0,0,2.23937,3944.76,1394.66)" d="M36.5313,0 L0.984375,0 C0.328125,0 0,-0.328125 0,-0.984375 L0,-14.6563 C0,-15.3021 0.328125,-15.625 0.984375,-15.625 L36.5313,-15.625 C37.1771,-15.625 37.5,-15.3021 37.5,-14.6563 L37.5,-0.984375 C37.5,-0.328125 37.1771,0 36.5313,0"/>
<path class="Rest" transform="matrix(2.23937,0,0,2.23937,649.655,2214.59)" d="M18.9531,-7.625 C14.7865,-6.125 11.401,-5.375 8.79688,-5.375 C6.19271,-5.375 4.02604,-6.10677 2.29688,-7.57031 C0.567708,-9.03385 -0.296875,-10.8568 -0.296875,-13.0391 C-0.296875,-15.2214 0.419271,-17.013 1.85156,-18.4141 C3.28385,-19.8151 4.97656,-20.5156 6.92969,-20.5156 C8.88281,-20.5156 10.349,-19.9609 11.3281,-18.8516 C12.3073,-17.7422 12.8464,-16.6823 12.9453,-15.6719 C13.0443,-14.6615 13.3542,-13.5417 13.875,-12.3125 C14.4583,-11.2708 15.1563,-10.75 15.9688,-10.75 C16.7813,-10.75 17.8724,-11.513 19.2422,-13.0391 C20.612,-14.5651 21.5234,-15.7682 21.9766,-16.6484 C22.4297,-17.5286 22.9818,-17.9531 23.6328,-17.9219 C24.2839,-17.8906 24.7396,-17.5833 25,-17 L12.7031,25 C12.0469,25.6563 11.1328,25.9844 9.96094,25.9844 C8.78906,25.9844 7.88021,25.6563 7.23438,25 L18.9531,-7.625 "/>
<path class="Rest" transform="matrix(2.23937,0,0,2.23937,1296.14,2214.59)" d="M0.390625,-5.28125 C-0.265625,-6.125 -0.59375,-7.03646 -0.59375,-8.01563 C-0.59375,-9.76563 1.49479,-12.2031 5.67188,-15.3281 C9.76563,-18.526 11.8125,-22.1719 11.8125,-26.2656 C11.8125,-28.6823 10.9688,-30.8958 9.28125,-32.9063 L5.76563,-37.1094 C5.50521,-37.3698 5.375,-37.6953 5.375,-38.0859 C5.375,-38.4766 5.56771,-38.8333 5.95313,-39.1563 C6.41146,-39.4896 6.83594,-39.6563 7.22656,-39.6563 C7.61719,-39.6563 7.94271,-39.4583 8.20313,-39.0625 L23.3438,-21.0938 C23.9896,-20.25 24.3125,-19.3229 24.3125,-18.3125 C24.3125,-17.3021 23.776,-16.2109 22.7031,-15.0391 C21.6302,-13.8672 20.1198,-12.5 18.1719,-10.9375 C16.6719,-10.0313 15.2552,-8.60156 13.9219,-6.64844 C12.5885,-4.69531 11.9219,-2.47917 11.9219,0 C11.9219,2.47917 12.7031,4.66146 14.2656,6.54688 L22.6563,16.4063 C22.8542,16.6042 22.9844,16.9297 23.0469,17.3828 C23.1094,17.8359 22.9453,18.2266 22.5547,18.5547 C22.1641,18.8828 21.8568,19.0469 21.6328,19.0469 C21.4089,19.0469 20.8229,18.6719 19.875,17.9219 C18.9271,17.1719 17.5911,16.4401 15.8672,15.7266 C14.1432,15.013 12.4349,14.6563 10.7422,14.6563 C9.04948,14.6563 7.71615,15.112 6.74219,16.0234 C5.76823,16.9349 5.28125,19.0339 5.28125,22.3203 C5.28125,25.6068 6.22396,28.3906 8.10938,30.6719 C8.30729,30.9323 8.34115,31.224 8.21094,31.5469 C8.08073,31.8698 7.82031,32.0313 7.42969,32.0313 C7.03906,32.0313 6.04427,30.8281 4.44531,28.4219 C2.84635,26.0156 1.3151,23.1667 -0.148438,19.875 C-1.61198,16.5833 -2.34375,13.8333 -2.34375,11.625 C-2.34375,8.82292 -0.911458,7.42188 1.95313,7.42188 C4.81771,7.42188 8.69271,8.46354 13.5781,10.5469 L0.390625,-5.28125 "/>
<path class="Rest" transform="matrix(2.23937,0,0,2.23937,1409.83,2214.59)" d="M36.5313,0 L0.984375,0 C0.328125,0 0,-0.328125 0,-0.984375 L0,-14.6563 C0,-15.3021 0.328125,-15.625 0.984375,-15.625 L36.5313,-15.625 C37.1771,-15.625 37.5,-15.3021 37.5,-14.6563 L37.5,-0.984375 C37.5,-0.328125 37.1771,0 36.5313,0"/>
<path class="Rest" transform="matrix(2.23937,0,0,2.23937,1844.67,2214.59)" d="M18.9531,-7.625 C14.7865,-6.125 11.401,-5.375 8.79688,-5.375 C6.19271,-5.375 4.02604,-6.10677 2.29688,-7.57031 C0.567708,-9.03385 -0.296875,-10.8568 -0.296875,-13.0391 C-0.296875,-15.2214 0.419271,-17.013 1.85156,-18.4141 C3.28385,-19.8151 4.97656,-20.5156 6.92969,-20.5156 C8.88281,-20.5156 10.349,-19.9609 11.3281,-18.8516 C12.3073,-17.7422 12.8464,-16.6823 12.9453,-15.6719 C13.0443,-14.6615 13.3542,-13.5417 13.875,-12.3125 C14.4583,-11.2708 15.1563,-10.75 15.9688,-10.75 C16.7813,-10.75 17.8724,-11.513 19.2422,-13.0391 C20.612,-14.5651 21.5234,-15.7682 21.9766,-16.6484 C22.4297,-17.5286 22.9818,-17.9531 23.6328,-17.9219 C24.2839,-17.8906 24.7396,-17.5833 25,-17 L12.7031,25 C12.0469,25.6563 11.1328,25.9844 9.96094,25.9844 C8.78906,25.9844 7.88021,25.6563 7.23438,25 L18.9531,-7.625 "/>
<path class="Rest" transform="matrix(2.23937,0,0,2.23937,2503.86,2214.59)" d="M18.9531,-7.625 C14.7865,-6.125 11.401,-5.375 8.79688,-5.375 C6.19271,-5.375 4.02604,-6.10677 2.29688,-7.57031 C0.567708,-9.03385 -0.296875,-10.8568 -0.296875,-13.0391 C-0.296875,-15.2214 0.419271,-17.013 1.85156,-18.4141 C3.28385,-19.8151 4.97656,-20.5156 6.92969,-20.5156 C8.88281,-20.5156 10.349,-19.9609 11.3281,-18.8516 C12.3073,-17.7422 12.8464,-16.6823 12.9453,-15.6719 C13.0443,-14.6615 13.3542,-13.5417 13.875,-12.3125 C14.4583,-11.2708 15.1563,-10.75 15.9688,-10.75 C16.7813,-10.75 17.8724,-11.513 19.2422,-13.0391 C20.612,-14.5651 21.5234,-15.7682 21.9766,-16.6484 C22.4297,-17.5286 22.9818,-17.9531 23.6328,-17.9219 C24.2839,-17.8906 24.7396,-17.5833 25,-17 L12.7031,25 C12.0469,25.6563 11.1328,25.9844 9.96094,25.9844 C8.78906,25.9844 7.88021,25.6563 7.23438,25 L18.9531,-7.625 "/>
<path class="Rest" transform="matrix(2.23937,0,0,2.23937,3141.77,2214.59)" d="M18.9531,-7.625 C14.7865,-6.125 11.401,-5.375 8.79688,-5.375 C6.19271,-5.375 4.02604,-6.10677 2.29688,-7.57031 C0.567708,-9.03385 -0.296875,-10.8568 -0.296875,-13.0391 C-0.296875,-15.2214 0.419271,-17.013 1.85156,-18.4141 C3.28385,-19.8151 4.97656,-20.5156 6.92969,-20.5156 C8.88281,-20.5156 10.349,-19.9609 11.3281,-18.8516 C12.3073,-17.7422 12.8464,-16.6823 12.9453,-15.6719 C13.0443,-14.6615 13.3542,-13.5417 13.875,-12.3125 C14.4583,-11.2708 15.1563,-10.75 15.9688,-10.75 C16.7813,-10.75 17.8724,-11.513 19.2422,-13.0391 C20.612,-14.5651 21.5234,-15.7682 21.9766,-16.6484 C22.4297,-17.5286 22.9818,-17.9531 23.6328,-17.9219 C24.2839,-17.8906 24.7396,-17.5833 25,-17 L12.7031,25 C12.0469,25.6563 11.1328,25.9844 9.96094,25.9844 C8.78906,25.9844 7.88021,25.6563 7.23438,25 L18.9531,-7.625 "/>
<path class="Rest" transform="matrix(2.23937,0,0,2.23937,3788.26,2214.59)" d="M0.390625,-5.28125 C-0.265625,-6.125 -0.59375,-7.03646 -0.59375,-8.01563 C-0.59375,-9.76563 1.49479,-12.2031 5.67188,-15.3281 C9.76563,-18.526 11.8125,-22.1719 11.8125,-26.2656 C11.8125,-28.6823 10.9688,-30.8958 9.28125,-32.9063 L5.76563,-37.1094 C5.50521,-37.3698 5.375,-37.6953 5.375,-38.0859 C5.375,-38.4766 5.56771,-38.8333 5.95313,-39.1563 C6.41146,-39.4896 6.83594,-39.6563 7.22656,-39.6563 C7.61719,-39.6563 7.94271,-39.4583 8.20313,-39.0625 L23.3438,-21.0938 C23.9896,-20.25 24.3125,-19.3229 24.3125,-18.3125 C24.3125,-17.3021 23.776,-16.2109 22.7031,-15.0391 C21.6302,-13.8672 20.1198,-12.5 18.1719,-10.9375 C16.6719,-10.0313 15.2552,-8.60156 13.9219,-6.64844 C12.5885,-4.69531 11.9219,-2.47917 11.9219,0 C11.9219,2.47917 12.7031,4.66146 14.2656,6.54688 L22.6563,16.4063 C22.8542,16.6042 22.9844,16.9297 23.0469,17.3828 C23.1094,17.8359 22.9453,18.2266 22.5547,18.5547 C22.1641,18.8828 21.8568,19.0469 21.6328,19.0469 C21.4089,19.0469 20.8229,18.6719 19.875,17.9219 C18.9271,17.1719 17.5911,16.4401 15.8672,15.7266 C14.1432,15.013 12.4349,14.6563 10.7422,14.6563 C9.04948,14.6563 7.71615,15.112 6.74219,16.0234 C5.76823,16.9349 5.28125,19.0339 5.28125,22.3203 C5.28125,25.6068 6.22396,28.3906 8.10938,30.6719 C8.30729,30.9323 8.34115,31.224 8.21094,31.5469 C8.08073,31.8698 7.82031,32.0313 7.42969,32.0313 C7.03906,32.0313 6.04427,30.8281 4.44531,28.4219 C2.84635,26.0156 1.3151,23.1667 -0.148438,19.875 C-1.61198,16.5833 -2.34375,13.8333 -2.34375,11.625 C-2.34375,8.82292 -0.911458,7.42188 1.95313,7.42188 C4.81771,7.42188 8.69271,8.46354 13.5781,10.5469 L0.390625,-5.28125 "/>
<path class="Rest" transform="matrix(2.23937,0,0,2.23937,3901.95,2214.59)" d="M36.5313,0 L0.984375,0 C0.328125,0 0,-0.328125 0,-0.984375 L0,-14.6563 C0,-15.3021 0.328125,-15.625 0.984375,-15.625 L36.5313,-15.625 C37.1771,-15.625 37.5,-15.3021 37.5,-14.6563 L37.5,-0.984375 C37.5,-0.328125 37.1771,0 36.5313,0"/>
<path class="Beam" fill-rule="evenodd" d="M662.41,602.713 L1285.07,616.874 L1285.07,644.874 L662.41,630.712 L662.41,602.713 "/>
<path class="Beam" fill-rule="evenodd" d="M1477.46,616.712 L2100.12,616.712 L2100.12,644.705 L1477.46,644.705 L1477.46,616.712 "/>
<path class="Beam" fill-rule="evenodd" d="M2418.17,602.713 L3040.83,616.874 L3040.83,644.874 L2418.17,630.712 L2418.17,602.713 "/>
<path class="Beam" fill-rule="evenodd" d="M3233.22,616.712 L3855.88,616.712 L3855.88,644.705 L3233.22,644.705 L3233.22,616.712 "/>
<path class="Hook" transform="matrix(2.23937,0,0,2.23937,544.528,1450.64)" d="M22.75,-72.3594 C24.25,-72.3594 25.8307,-69.9349 27.4922,-65.0859 C29.1536,-60.237 29.9844,-55.7943 29.9844,-51.7578 C29.9844,-47.7214 29.0573,-43.8151 27.2031,-40.0391 C25.349,-36.263 23.1198,-32.9427 20.5156,-30.0781 L12.5,-21.0938 C10.0313,-18.2292 7.85156,-14.9427 5.96094,-11.2344 C4.07031,-7.52604 3.125,-3.78125 3.125,0 L0,0 L0,-25 L3.125,-25 C14.0625,-31.9063 20.9323,-38.026 23.7344,-43.3594 C25.099,-45.9635 25.7813,-48.599 25.7813,-51.2656 C25.7813,-57.4531 23.9896,-63.6094 20.4063,-69.7344 L20.4063,-70.125 C20.4063,-70.7083 20.6354,-71.2266 21.0938,-71.6797 C21.5521,-72.1328 22.1042,-72.3594 22.75,-72.3594"/>
<path class="Hook" transform="matrix(2.23937,0,0,2.23937,1727.17,1450.64)" d="M22.75,-72.3594 C24.25,-72.3594 25.8307,-69.9349 27.4922,-65.0859 C29.1536,-60.237 29.9844,-55.7943 29.9844,-51.7578 C29.9844,-47.7214 29.0573,-43.8151 27.2031,-40.0391 C25.349,-36.263 23.1198,-32.9427 20.5156,-30.0781 L12.5,-21.0938 C10.0313,-18.2292 7.85156,-14.9427 5.96094,-11.2344 C4.07031,-7.52604 3.125,-3.78125 3.125,0 L0,0 L0,-25 L3.125,-25 C14.0625,-31.9063 20.9323,-38.026 23.7344,-43.3594 C25.099,-45.9635 25.7813,-48.599 25.7813,-51.2656 C25.7813,-57.4531 23.9896,-63.6094 20.4063,-69.7344 L20.4063,-70.125 C20.4063,-70.7083 20.6354,-71.2266 21.0938,-71.6797 C21.5521,-72.1328 22.1042,-72.3594 22.75,-72.3594"/>
<path class="Hook" transform="matrix(2.23937,0,0,2.23937,3051.26,1394.66)" d="M22.75,-72.3594 C24.25,-72.3594 25.8307,-69.9349 27.4922,-65.0859 C29.1536,-60.237 29.9844,-55.7943 29.9844,-51.7578 C29.9844,-47.7214 29.0573,-43.8151 27.2031,-40.0391 C25.349,-36.263 23.1198,-32.9427 20.5156,-30.0781 L12.5,-21.0938 C10.0313,-18.2292 7.85156,-14.9427 5.96094,-11.2344 C4.07031,-7.52604 3.125,-3.78125 3.125,0 L0,0 L0,-25 L3.125,-25 C14.0625,-31.9063 20.9323,-38.026 23.7344,-43.3594 C25.099,-45.9635 25.7813,-48.599 25.7813,-51.2656 C25.7813,-57.4531 23.9896,-63.6094 20.4063,-69.7344 L20.4063,-70.125 C20.4063,-70.7083 20.6354,-71.2266 21.0938,-71.6797 C21.5521,-72.1328 22.1042,-72.3594 22.75,-72.3594"/>
<path class="Hook" transform="matrix(2.23937,0,0,2.23937,544.528,2270.57)" d="M22.75,-72.3594 C24.25,-72.3594 25.8307,-69.9349 27.4922,-65.0859 C29.1536,-60.237 29.9844,-55.7943 29.9844,-51.7578 C29.9844,-47.7214 29.0573,-43.8151 27.2031,-40.0391 C25.349,-36.263 23.1198,-32.9427 20.5156,-30.0781 L12.5,-21.0938 C10.0313,-18.2292 7.85156,-14.9427 5.96094,-11.2344 C4.07031,-7.52604 3.125,-3.78125 3.125,0 L0,0 L0,-25 L3.125,-25 C14.0625,-31.9063 20.9323,-38.026 23.7344,-43.3594 C25.099,-45.9635 25.7813,-48.599 25.7813,-51.2656 C25.7813,-57.4531 23.9896,-63.6094 20.4063,-69.7344 L20.4063,-70.125 C20.4063,-70.7083 20.6354,-71.2266 21.0938,-71.6797 C21.5521,-72.1328 22.1042,-72.3594 22.75,-72.3594"/>
<path class="Hook" transform="matrix(2.23937,0,0,2.23937,1739.54,2214.59)" d="M22.75,-72.3594 C24.25,-72.3594 25.8307,-69.9349 27.4922,-65.0859 C29.1536,-60.237 29.9844,-55.7943 29.9844,-51.7578 C29.9844,-47.7214 29.0573,-43.8151 27.2031,-40.0391 C25.349,-36.263 23.1198,-32.9427 20.5156,-30.0781 L12.5,-21.0938 C10.0313,-18.2292 7.85156,-14.9427 5.96094,-11.2344 C4.07031,-7.52604 3.125,-3.78125 3.125,0 L0,0 L0,-25 L3.125,-25 C14.0625,-31.9063 20.9323,-38.026 23.7344,-43.3594 C25.099,-45.9635 25.7813,-48.599 25.7813,-51.2656 C25.7813,-57.4531 23.9896,-63.6094 20.4063,-69.7344 L20.4063,-70.125 C20.4063,-70.7083 20.6354,-71.2266 21.0938,-71.6797 C21.5521,-72.1328 22.1042,-72.3594 22.75,-72.3594"/>
<path class="Hook" transform="matrix(2.23937,0,0,2.23937,2398.73,2214.59)" d="M22.75,-72.3594 C24.25,-72.3594 25.8307,-69.9349 27.4922,-65.0859 C29.1536,-60.237 29.9844,-55.7943 29.9844,-51.7578 C29.9844,-47.7214 29.0573,-43.8151 27.2031,-40.0391 C25.349,-36.263 23.1198,-32.9427 20.5156,-30.0781 L12.5,-21.0938 C10.0313,-18.2292 7.85156,-14.9427 5.96094,-11.2344 C4.07031,-7.52604 3.125,-3.78125 3.125,0 L0,0 L0,-25 L3.125,-25 C14.0625,-31.9063 20.9323,-38.026 23.7344,-43.3594 C25.099,-45.9635 25.7813,-48.599 25.7813,-51.2656 C25.7813,-57.4531 23.9896,-63.6094 20.4063,-69.7344 L20.4063,-70.125 C20.4063,-70.7083 20.6354,-71.2266 21.0938,-71.6797 C21.5521,-72.1328 22.1042,-72.3594 22.75,-72.3594"/>
<path class="Hook" transform="matrix(2.23937,0,0,2.23937,3036.65,2270.57)" d="M22.75,-72.3594 C24.25,-72.3594 25.8307,-69.9349 27.4922,-65.0859 C29.1536,-60.237 29.9844,-55.7943 29.9844,-51.7578 C29.9844,-47.7214 29.0573,-43.8151 27.2031,-40.0391 C25.349,-36.263 23.1198,-32.9427 20.5156,-30.0781 L12.5,-21.0938 C10.0313,-18.2292 7.85156,-14.9427 5.96094,-11.2344 C4.07031,-7.52604 3.125,-3.78125 3.125,0 L0,0 L0,-25 L3.125,-25 C14.0625,-31.9063 20.9323,-38.026 23.7344,-43.3594 C25.099,-45.9635 25.7813,-48.599 25.7813,-51.2656 C25.7813,-57.4531 23.9896,-63.6094 20.4063,-69.7344 L20.4063,-70.125 C20.4063,-70.7083 20.6354,-71.2266 21.0938,-71.6797 C21.5521,-72.1328 22.1042,-72.3594 22.75,-72.3594"/>
<path class="RehearsalMark" fill="none" stroke="#000000" stroke-width="11.20" stroke-linecap="square" stroke-linejoin="miter" stroke-miterlimit="2" fill-rule="evenodd" d="M412.28,174.212 C412.28,162.062 422.386,152.212 434.854,152.212 L565.886,152.212 C578.354,152.212 588.461,162.062 588.461,174.212 L588.461,306.394 C588.461,318.544 578.354,328.394 565.886,328.394 L434.854,328.394 C422.386,328.394 412.28,318.544 412.28,306.394 L412.28,174.212 "/>
<path class="RehearsalMark" d="M553.698,290.881 L553.698,294.803 L502.839,294.803 L502.839,290.881 C505.037,290.569 506.709,290.412 507.855,290.412 C512.875,290.1 515.386,288.373 515.386,285.233 C515.386,282.092 512.98,274.975 508.167,263.881 L472.839,263.881 L470.495,269.991 C467.454,277.845 465.933,282.662 465.933,284.444 C465.933,286.433 466.927,287.925 468.917,288.92 C470.907,289.915 474.204,290.569 478.808,290.881 L478.808,294.803 L446.933,294.803 L446.933,290.881 C450.704,290.142 453.454,288.727 455.183,286.639 C456.912,284.55 459.292,279.839 462.323,272.506 L497.183,186.475 L501.573,186.475 L536.589,269.053 C540.464,278.261 543.42,284.201 545.456,286.873 C547.493,289.545 550.032,290.881 553.073,290.881 L553.698,290.881 M475.198,257.756 L505.808,257.756 L489.964,219.6 L475.198,257.756 "/>
<path class="RehearsalMark" fill="none" stroke="#000000" stroke-width="11.20" stroke-linecap="square" stroke-linejoin="miter" stroke-miterlimit="2" fill-rule="evenodd" d="M268.245,996.144 C268.245,983.994 278.352,974.144 290.82,974.144 L419.852,974.144 C432.32,974.144 442.427,983.994 442.427,996.144 L442.427,1126.33 C442.427,1138.48 432.32,1148.33 419.852,1148.33 L290.82,1148.33 C278.352,1148.33 268.245,1138.48 268.245,1126.33 L268.245,996.144 "/>
<path class="RehearsalMark" d="M372.508,1057.08 C391.654,1061.41 401.227,1070.77 401.227,1085.14 C401.227,1094.06 397.268,1101.22 389.352,1106.63 C381.435,1112.03 370.945,1114.73 357.883,1114.73 L307.977,1114.73 L307.977,1110.81 C313.737,1110.19 317.479,1109.17 319.203,1107.77 C320.927,1106.36 321.789,1103.68 321.789,1099.72 L321.789,1024.09 C321.789,1020.14 320.846,1017.38 318.961,1015.81 C317.076,1014.25 313.414,1013.31 307.977,1013 L307.977,1008.61 L356.336,1008.61 C369.367,1008.61 379.401,1010.78 386.438,1015.13 C393.474,1019.47 396.992,1025.68 396.992,1033.75 C396.992,1039.63 395.143,1044.34 391.445,1047.89 C387.747,1051.44 381.435,1054.51 372.508,1057.08 M347.227,1060.89 L347.227,1100.02 C347.227,1103.45 347.956,1105.9 349.414,1107.36 C350.872,1108.82 353.315,1109.55 356.742,1109.55 C369.451,1109.55 375.805,1101.88 375.805,1086.55 C375.805,1069.44 367.841,1060.89 351.914,1060.89 L347.227,1060.89 M347.227,1021.31 L347.227,1055.7 C356.789,1055.49 363.234,1053.98 366.563,1051.17 C369.891,1048.36 371.555,1042.91 371.555,1034.81 C371.555,1027.55 370.255,1022.23 367.656,1018.85 C365.057,1015.47 361.055,1013.78 355.648,1013.78 C352.638,1013.78 350.482,1014.34 349.18,1015.47 C347.878,1016.59 347.227,1018.54 347.227,1021.31"/>
<path class="NoteDot" transform="matrix(2.23937,0,0,2.23937,884.318,1254.7)" d="M1.66406,4.00781 C0.554688,2.89844 0,1.5625 0,0 C0,-1.5625 0.554688,-2.89844 1.66406,-4.00781 C2.77344,-5.11719 4.10938,-5.67188 5.67188,-5.67188 C7.23438,-5.67188 8.56771,-5.11719 9.67188,-4.00781 C10.776,-2.89844 11.3281,-1.5625 11.3281,0 C11.3281,1.5625 10.776,2.89844 9.67188,4.00781 C8.56771,5.11719 7.23438,5.67188 5.67188,5.67188 C4.10938,5.67188 2.77344,5.11719 1.66406,4.00781"/>
<path class="NoteDot" transform="matrix(2.23937,0,0,2.23937,2200.13,1303.76)" d="M1.66406,4.00781 C0.554688,2.89844 0,1.5625 0,0 C0,-1.5625 0.554688,-2.89844 1.66406,-4.00781 C2.77344,-5.11719 4.10938,-5.67188 5.67188,-5.67188 C7.23438,-5.67188 8.56771,-5.11719 9.67188,-4.00781 C10.776,-2.89844 11.3281,-1.5625 11.3281,0 C11.3281,1.5625 10.776,2.89844 9.67188,4.00781 C8.56771,5.11719 7.23438,5.67188 5.67188,5.67188 C4.10938,5.67188 2.77344,5.11719 1.66406,4.00781"/>
<path class="NoteDot" transform="matrix(2.23937,0,0,2.23937,3489.19,1220.01)" d="M1.66406,4.00781 C0.554688,2.89844 0,1.5625 0,0 C0,-1.5625 0.554688,-2.89844 1.66406,-4.00781 C2.77344,-5.11719 4.10938,-5.67188 5.67188,-5.67188 C7.23438,-5.67188 8.56771,-5.11719 9.67188,-4.00781 C10.776,-2.89844 11.3281,-1.5625 11.3281,0 C11.3281,1.5625 10.776,2.89844 9.67188,4.00781 C8.56771,5.11719 7.23438,5.67188 5.67188,5.67188 C4.10938,5.67188 2.77344,5.11719 1.66406,4.00781"/>
<path class="NoteDot" transform="matrix(2.23937,0,0,2.23937,883.065,2074.63)" d="M1.66406,4.00781 C0.554688,2.89844 0,1.5625 0,0 C0,-1.5625 0.554688,-2.89844 1.66406,-4.00781 C2.77344,-5.11719 4.10938,-5.67188 5.67188,-5.67188 C7.23438,-5.67188 8.56771,-5.11719 9.67188,-4.00781 C10.776,-2.89844 11.3281,-1.5625 11.3281,0 C11.3281,1.5625 10.776,2.89844 9.67188,4.00781 C8.56771,5.11719 7.23438,5.67188 5.67188,5.67188 C4.10938,5.67188 2.77344,5.11719 1.66406,4.00781"/>
<path class="NoteDot" transform="matrix(2.23937,0,0,2.23937,2078.08,1962.66)" d="M1.66406,4.00781 C0.554688,2.89844 0,1.5625 0,0 C0,-1.5625 0.554688,-2.89844 1.66406,-4.00781 C2.77344,-5.11719 4.10938,-5.67188 5.67188,-5.67188 C7.23438,-5.67188 8.56771,-5.11719 9.67188,-4.00781 C10.776,-2.89844 11.3281,-1.5625 11.3281,0 C11.3281,1.5625 10.776,2.89844 9.67188,4.00781 C8.56771,5.11719 7.23438,5.67188 5.67188,5.67188 C4.10938,5.67188 2.77344,5.11719 1.66406,4.00781"/>
<path class="NoteDot" transform="matrix(2.23937,0,0,2.23937,2737.27,1962.66)" d="M1.66406,4.00781 C0.554688,2.89844 0,1.5625 0,0 C0,-1.5625 0.554688,-2.89844 1.66406,-4.00781 C2.77344,-5.11719 4.10938,-5.67188 5.67188,-5.67188 C7.23438,-5.67188 8.56771,-5.11719 9.67188,-4.00781 C10.776,-2.89844 11.3281,-1.5625 11.3281,0 C11.3281,1.5625 10.776,2.89844 9.67188,4.00781 C8.56771,5.11719 7.23438,5.67188 5.67188,5.67188 C4.10938,5.67188 2.77344,5.11719 1.66406,4.00781"/>
<path class="NoteDot" transform="matrix(2.23937,0,0,2.23937,3375.18,2074.63)" d="M1.66406,4.00781 C0.554688,2.89844 0,1.5625 0,0 C0,-1.5625 0.554688,-2.89844 1.66406,-4.00781 C2.77344,-5.11719 4.10938,-5.67188 5.67188,-5.67188 C7.23438,-5.67188 8.56771,-5.11719 9.67188,-4.00781 C10.776,-2.89844 11.3281,-1.5625 11.3281,0 C11.3281,1.5625 10.776,2.89844 9.67188,4.00781 C8.56771,5.11719 7.23438,5.67188 5.67188,5.67188 C4.10938,5.67188 2.77344,5.11719 1.66406,4.00781"/>
</svg>
