<?xml version="1.0" encoding="UTF-8" standalone="no"?>
<svg width="4208.47px" height="2409.45px" viewBox="0 0 4208.47 2409.45"
 xmlns="http://www.w3.org/2000/svg" xmlns:xlink="http://www.w3.org/1999/xlink" version="1.2" baseProfile="tiny">
<title>Trombone (2)</title>
<desc>Generated by MuseScore 3.6.2</desc>
<polyline class="StaffLines" fill="none" stroke="#000000" stroke-width="3.38" stroke-linejoin="bevel" points="70.866,385.6 4137.61,385.6"/>
<polyline class="StaffLines" fill="none" stroke="#000000" stroke-width="3.38" stroke-linejoin="bevel" points="70.866,416.3 4137.61,416.3"/>
<polyline class="StaffLines" fill="none" stroke="#000000" stroke-width="3.38" stroke-linejoin="bevel" points="70.866,447 4137.61,447"/>
<polyline class="StaffLines" fill="none" stroke="#000000" stroke-width="3.38" stroke-linejoin="bevel" points="70.866,477.7 4137.61,477.7"/>
<polyline class="StaffLines" fill="none" stroke="#000000" stroke-width="3.38" stroke-linejoin="bevel" points="70.866,508.4 4137.61,508.4"/>
<path class="MeasureNumber" d="M84.5441,309.64 C86.4241,309.04 87.1841,308.72 88.1441,308.08 C90.0241,306.84 91.1841,304.64 91.1841,302.4 C91.1841,298.6 88.1441,296.04 83.6641,296.04 C79.3041,296.04 75.6241,298.76 75.6241,302.04 C75.6241,303.68 76.6241,304.8 78.1441,304.8 C79.4641,304.8 80.4241,303.84 80.4241,302.52 C80.4241,301.84 80.2241,301.36 79.5841,300.72 C79.1841,300.36 79.0241,300.08 79.0241,299.8 C79.0241,298.84 81.0241,297.84 82.9041,297.84 C85.5841,297.84 87.1841,299.32 87.1841,301.8 C87.1841,305.36 84.6641,308.72 81.9841,308.72 C81.8641,308.72 81.5041,308.68 81.0641,308.64 C79.9041,308.56 79.9041,308.56 79.6641,308.56 C78.7841,308.56 78.3041,308.96 78.3041,309.68 C78.3041,310.32 78.7441,310.72 79.4641,310.72 C79.6641,310.72 79.9441,310.68 80.2641,310.64 C80.8241,310.52 81.4241,310.48 81.7841,310.48 C83.6641,310.48 84.9441,312.16 84.9441,314.64 C84.9441,316.56 84.5041,318.4 83.6241,319.92 C82.4241,322.08 80.5841,323.12 77.9841,323.12 C75.7441,323.12 73.8241,322 73.8241,320.72 C73.8241,320.28 73.9841,320.12 74.6241,319.84 C75.7841,319.32 76.2641,318.6 76.2641,317.52 C76.2641,316.12 75.1441,315.04 73.7041,315.04 C71.9841,315.04 70.8641,316.4 70.8641,318.48 C70.8641,322.36 73.8241,324.8 78.6241,324.8 C84.6641,324.8 89.2641,320.76 89.2641,315.4 C89.2641,313.96 88.8241,312.72 87.9841,311.72 C87.1041,310.68 86.3041,310.2 84.5441,309.64 M108.898,310.52 C108.219,313.68 107.499,315.6 106.338,317.84 C104.379,321.48 102.299,323.12 99.4985,323.12 C98.3385,323.12 97.5785,322.64 97.5785,321.92 C97.5785,321.64 97.6585,321.52 97.9785,321.04 C98.3785,320.52 98.5785,320.04 98.5785,319.48 C98.5785,318.16 97.5385,317.16 96.1785,317.16 C94.5785,317.16 93.4585,318.36 93.4585,320.12 C93.4585,322.84 96.0185,324.8 99.5785,324.8 C102.779,324.8 105.739,323.4 108.178,320.6 C111.659,316.72 113.939,310.92 113.939,306 C113.939,299.76 110.939,296.04 105.978,296.04 C103.019,296.04 100.258,297.36 98.4185,299.64 C96.6185,301.84 95.5785,304.64 95.5785,307.24 C95.5785,311.04 98.4985,313.92 102.379,313.92 C105.019,313.92 107.059,312.84 108.898,310.52 M105.939,297.72 C108.499,297.72 110.138,299.76 110.138,302.96 C110.138,307.92 107.418,311.56 103.739,311.56 C101.219,311.56 99.8185,309.84 99.8185,306.84 C99.8185,304.48 100.379,302.36 101.459,300.56 C102.659,298.64 104.099,297.72 105.939,297.72"/>
<path class="TieSegment" stroke="#000000" stroke-width="2.15" stroke-linecap="round" stroke-linejoin="round" fill-rule="evenodd" d="M2019.76,331.875 C2077.39,287.667 2250.26,287.667 2307.89,331.875 C2250.26,296.263 2077.39,296.263 2019.76,331.875"/>
<polyline class="BarLine" stroke="#000000" stroke-width="5.53" stroke-linejoin="bevel" points="1257.95,383.911 1257.95,510.089"/>
<polyline class="BarLine" stroke="#000000" stroke-width="5.53" stroke-linejoin="bevel" points="2234.36,383.911 2234.36,510.089"/>
<path class="BarLine" transform="matrix(1.228,0,0,1.228,3326.19,431.65)" d="M10.4,0 C10.4,-2.9 8.1,-5.3 5.2,-5.3 C2.3,-5.3 0,-2.9 0,0 C0,2.9 2.3,5.3 5.2,5.3 C8.1,5.3 10.4,2.9 10.4,0"/>
<path class="BarLine" transform="matrix(1.228,0,0,1.228,3326.19,462.35)" d="M10.4,0 C10.4,-2.9 8.1,-5.3 5.2,-5.3 C2.3,-5.3 0,-2.9 0,0 C0,2.9 2.3,5.3 5.2,5.3 C8.1,5.3 10.4,2.9 10.4,0"/>
<polyline class="BarLine" stroke="#000000" stroke-width="5.53" stroke-linejoin="bevel" points="3354.06,383.911 3354.06,510.089"/>
<polyline class="BarLine" stroke="#000000" stroke-width="16.89" stroke-linejoin="bevel" points="3375.55,383.911 3375.55,510.089"/>
<polyline class="BarLine" stroke="#000000" stroke-width="5.53" stroke-linejoin="bevel" points="4107.67,383.911 4107.67,510.089"/>
<polyline class="BarLine" stroke="#000000" stroke-width="16.89" stroke-linejoin="bevel" points="4129.16,383.911 4129.16,510.089"/>
<polyline class="LedgerLine" stroke="#000000" stroke-width="4.91" stroke-linejoin="bevel" points="1306.77,354.9 1368.16,354.9"/>
<polyline class="LedgerLine" stroke="#000000" stroke-width="4.91" stroke-linejoin="bevel" points="1745.31,354.9 1806.7,354.9"/>
<polyline class="LedgerLine" stroke="#000000" stroke-width="4.91" stroke-linejoin="bevel" points="1983.08,354.9 2044.47,354.9"/>
<polyline class="LedgerLine" stroke="#000000" stroke-width="4.91" stroke-linejoin="bevel" points="2283.18,354.9 2344.57,354.9"/>
<polyline class="Stem" stroke="#000000" stroke-width="3.38" stroke-linejoin="bevel" points="347.867,389.726 347.867,500.725"/>
<polyline class="Stem" stroke="#000000" stroke-width="3.38" stroke-linejoin="bevel" points="648.354,405.076 648.354,508.4"/>
<polyline class="Stem" stroke="#000000" stroke-width="3.38" stroke-linejoin="bevel" points="802.373,389.726 802.373,500.725"/>
<polyline class="Stem" stroke="#000000" stroke-width="3.38" stroke-linejoin="bevel" points="1102.86,405.076 1102.86,508.4"/>
<polyline class="Stem" stroke="#000000" stroke-width="3.38" stroke-linejoin="bevel" points="1319.2,343.676 1319.2,447"/>
<polyline class="Stem" stroke="#000000" stroke-width="3.38" stroke-linejoin="bevel" points="1609.13,374.376 1609.13,470.025"/>
<polyline class="Stem" stroke="#000000" stroke-width="3.38" stroke-linejoin="bevel" points="1757.74,359.026 1757.74,447"/>
<polyline class="Stem" stroke="#000000" stroke-width="3.38" stroke-linejoin="bevel" points="1995.52,359.026 1995.52,447"/>
<polyline class="Stem" stroke="#000000" stroke-width="3.38" stroke-linejoin="bevel" points="2295.61,359.026 2295.61,470.025"/>
<polyline class="Stem" stroke="#000000" stroke-width="3.38" stroke-linejoin="bevel" points="2512.93,374.376 2512.93,477.7"/>
<polyline class="Stem" stroke="#000000" stroke-width="3.38" stroke-linejoin="bevel" points="2648.75,405.076 2648.75,508.4"/>
<polyline class="Stem" stroke="#000000" stroke-width="3.38" stroke-linejoin="bevel" points="2821.1,397.02 2821.1,301.175"/>
<polyline class="Stem" stroke="#000000" stroke-width="3.38" stroke-linejoin="bevel" points="2956.93,397.02 2956.93,311.408"/>
<polyline class="Stem" stroke="#000000" stroke-width="3.38" stroke-linejoin="bevel" points="3092.75,443.07 3092.75,321.641"/>
<polyline class="Stem" stroke="#000000" stroke-width="3.38" stroke-linejoin="bevel" points="3228.57,443.07 3228.57,331.875"/>
<polyline class="Stem" stroke="#000000" stroke-width="3.38" stroke-linejoin="bevel" points="3430.55,374.376 3430.55,477.7"/>
<path class="Note" transform="matrix(1.228,0,0,1.228,346.178,385.6)" d="M31.5,-8.1 C29.7,-11.4 25.9,-13.2 21.3,-13.2 C17.9,-13.2 14.2,-12.2 10.6,-10.3 C4,-6.8 0,-0.9 0,4.2 C0,5.6 0.3,7 1,8.3 C2.8,11.6 6.6,13.3 11.2,13.3 C14.6,13.3 18.3,12.4 21.9,10.5 C28.5,7 32.5,1.1 32.5,-4 C32.5,-5.4 32.2,-6.8 31.5,-8.1"/>
<path class="Note" transform="matrix(1.228,0,0,1.228,646.666,400.95)" d="M31.5,-8.1 C29.7,-11.4 25.9,-13.2 21.3,-13.2 C17.9,-13.2 14.2,-12.2 10.6,-10.3 C4,-6.8 0,-0.9 0,4.2 C0,5.6 0.3,7 1,8.3 C2.8,11.6 6.6,13.3 11.2,13.3 C14.6,13.3 18.3,12.4 21.9,10.5 C28.5,7 32.5,1.1 32.5,-4 C32.5,-5.4 32.2,-6.8 31.5,-8.1"/>
<path class="Note" transform="matrix(1.228,0,0,1.228,800.685,385.6)" d="M31.5,-8.1 C29.7,-11.4 25.9,-13.2 21.3,-13.2 C17.9,-13.2 14.2,-12.2 10.6,-10.3 C4,-6.8 0,-0.9 0,4.2 C0,5.6 0.3,7 1,8.3 C2.8,11.6 6.6,13.3 11.2,13.3 C14.6,13.3 18.3,12.4 21.9,10.5 C28.5,7 32.5,1.1 32.5,-4 C32.5,-5.4 32.2,-6.8 31.5,-8.1"/>
<path class="Note" transform="matrix(1.228,0,0,1.228,1101.17,400.95)" d="M31.5,-8.1 C29.7,-11.4 25.9,-13.2 21.3,-13.2 C17.9,-13.2 14.2,-12.2 10.6,-10.3 C4,-6.8 0,-0.9 0,4.2 C0,5.6 0.3,7 1,8.3 C2.8,11.6 6.6,13.3 11.2,13.3 C14.6,13.3 18.3,12.4 21.9,10.5 C28.5,7 32.5,1.1 32.5,-4 C32.5,-5.4 32.2,-6.8 31.5,-8.1"/>
<path class="Note" transform="matrix(1.228,0,0,1.228,1317.51,339.55)" d="M31.5,-8.1 C29.7,-11.4 25.9,-13.2 21.3,-13.2 C17.9,-13.2 14.2,-12.2 10.6,-10.3 C4,-6.8 0,-0.9 0,4.2 C0,5.6 0.3,7 1,8.3 C2.8,11.6 6.6,13.3 11.2,13.3 C14.6,13.3 18.3,12.4 21.9,10.5 C28.5,7 32.5,1.1 32.5,-4 C32.5,-5.4 32.2,-6.8 31.5,-8.1"/>
<path class="Note" transform="matrix(1.228,0,0,1.228,1607.44,370.25)" d="M31.5,-8.1 C29.7,-11.4 25.9,-13.2 21.3,-13.2 C17.9,-13.2 14.2,-12.2 10.6,-10.3 C4,-6.8 0,-0.9 0,4.2 C0,5.6 0.3,7 1,8.3 C2.8,11.6 6.6,13.3 11.2,13.3 C14.6,13.3 18.3,12.4 21.9,10.5 C28.5,7 32.5,1.1 32.5,-4 C32.5,-5.4 32.2,-6.8 31.5,-8.1"/>
<path class="Note" transform="matrix(1.228,0,0,1.228,1756.05,354.9)" d="M31.5,-8.1 C29.7,-11.4 25.9,-13.2 21.3,-13.2 C17.9,-13.2 14.2,-12.2 10.6,-10.3 C4,-6.8 0,-0.9 0,4.2 C0,5.6 0.3,7 1,8.3 C2.8,11.6 6.6,13.3 11.2,13.3 C14.6,13.3 18.3,12.4 21.9,10.5 C28.5,7 32.5,1.1 32.5,-4 C32.5,-5.4 32.2,-6.8 31.5,-8.1"/>
<path class="Note" transform="matrix(1.228,0,0,1.228,1993.83,354.9)" d="M31.5,-8.1 C29.7,-11.4 25.9,-13.2 21.3,-13.2 C17.9,-13.2 14.2,-12.2 10.6,-10.3 C4,-6.8 0,-0.9 0,4.2 C0,5.6 0.3,7 1,8.3 C2.8,11.6 6.6,13.3 11.2,13.3 C14.6,13.3 18.3,12.4 21.9,10.5 C28.5,7 32.5,1.1 32.5,-4 C32.5,-5.4 32.2,-6.8 31.5,-8.1"/>
<path class="Note" transform="matrix(1.228,0,0,1.228,2293.92,354.9)" d="M31.5,-8.1 C29.7,-11.4 25.9,-13.2 21.3,-13.2 C17.9,-13.2 14.2,-12.2 10.6,-10.3 C4,-6.8 0,-0.9 0,4.2 C0,5.6 0.3,7 1,8.3 C2.8,11.6 6.6,13.3 11.2,13.3 C14.6,13.3 18.3,12.4 21.9,10.5 C28.5,7 32.5,1.1 32.5,-4 C32.5,-5.4 32.2,-6.8 31.5,-8.1"/>
<path class="Note" transform="matrix(1.228,0,0,1.228,2511.24,370.25)" d="M31.5,-8.1 C29.7,-11.4 25.9,-13.2 21.3,-13.2 C17.9,-13.2 14.2,-12.2 10.6,-10.3 C4,-6.8 0,-0.9 0,4.2 C0,5.6 0.3,7 1,8.3 C2.8,11.6 6.6,13.3 11.2,13.3 C14.6,13.3 18.3,12.4 21.9,10.5 C28.5,7 32.5,1.1 32.5,-4 C32.5,-5.4 32.2,-6.8 31.5,-8.1"/>
<path class="Note" transform="matrix(1.228,0,0,1.228,2647.07,400.95)" d="M31.5,-8.1 C29.7,-11.4 25.9,-13.2 21.3,-13.2 C17.9,-13.2 14.2,-12.2 10.6,-10.3 C4,-6.8 0,-0.9 0,4.2 C0,5.6 0.3,7 1,8.3 C2.8,11.6 6.6,13.3 11.2,13.3 C14.6,13.3 18.3,12.4 21.9,10.5 C28.5,7 32.5,1.1 32.5,-4 C32.5,-5.4 32.2,-6.8 31.5,-8.1"/>
<path class="Note" transform="matrix(1.228,0,0,1.228,2782.89,400.95)" d="M31.5,-8.1 C29.7,-11.4 25.9,-13.2 21.3,-13.2 C17.9,-13.2 14.2,-12.2 10.6,-10.3 C4,-6.8 0,-0.9 0,4.2 C0,5.6 0.3,7 1,8.3 C2.8,11.6 6.6,13.3 11.2,13.3 C14.6,13.3 18.3,12.4 21.9,10.5 C28.5,7 32.5,1.1 32.5,-4 C32.5,-5.4 32.2,-6.8 31.5,-8.1"/>
<path class="Note" transform="matrix(1.228,0,0,1.228,2918.71,400.95)" d="M31.5,-8.1 C29.7,-11.4 25.9,-13.2 21.3,-13.2 C17.9,-13.2 14.2,-12.2 10.6,-10.3 C4,-6.8 0,-0.9 0,4.2 C0,5.6 0.3,7 1,8.3 C2.8,11.6 6.6,13.3 11.2,13.3 C14.6,13.3 18.3,12.4 21.9,10.5 C28.5,7 32.5,1.1 32.5,-4 C32.5,-5.4 32.2,-6.8 31.5,-8.1"/>
<path class="Note" transform="matrix(1.228,0,0,1.228,3054.54,447)" d="M31.5,-8.1 C29.7,-11.4 25.9,-13.2 21.3,-13.2 C17.9,-13.2 14.2,-12.2 10.6,-10.3 C4,-6.8 0,-0.9 0,4.2 C0,5.6 0.3,7 1,8.3 C2.8,11.6 6.6,13.3 11.2,13.3 C14.6,13.3 18.3,12.4 21.9,10.5 C28.5,7 32.5,1.1 32.5,-4 C32.5,-5.4 32.2,-6.8 31.5,-8.1"/>
<path class="Note" transform="matrix(1.228,0,0,1.228,3190.36,447)" d="M31.5,-8.1 C29.7,-11.4 25.9,-13.2 21.3,-13.2 C17.9,-13.2 14.2,-12.2 10.6,-10.3 C4,-6.8 0,-0.9 0,4.2 C0,5.6 0.3,7 1,8.3 C2.8,11.6 6.6,13.3 11.2,13.3 C14.6,13.3 18.3,12.4 21.9,10.5 C28.5,7 32.5,1.1 32.5,-4 C32.5,-5.4 32.2,-6.8 31.5,-8.1"/>
<path class="Note" transform="matrix(1.228,0,0,1.228,3428.86,370.25)" d="M31.5,-8.1 C29.7,-11.4 25.9,-13.2 21.3,-13.2 C17.9,-13.2 14.2,-12.2 10.6,-10.3 C4,-6.8 0,-0.9 0,4.2 C0,5.6 0.3,7 1,8.3 C2.8,11.6 6.6,13.3 11.2,13.3 C14.6,13.3 18.3,12.4 21.9,10.5 C28.5,7 32.5,1.1 32.5,-4 C32.5,-5.4 32.2,-6.8 31.5,-8.1 M27.2,-1.3 C25.5,0.4 22.1,2.5 18.5,4.5 C14.9,6.5 11.3,8 8.9,8.5 C8.4,8.6 7.9,8.7 7.4,8.7 C5.8,8.7 4.6,8.1 3.9,6.8 C3.6,6.3 3.4,5.7 3.4,5.1 C3.4,4 4.1,2.7 5.2,1.6 C6.9,-0.1 10.2,-2.2 13.8,-4.2 C17.4,-6.2 21,-7.7 23.4,-8.2 C23.9,-8.3 24.4,-8.4 24.9,-8.4 C26.5,-8.4 27.8,-7.8 28.5,-6.5 C28.8,-6 28.9,-5.4 28.9,-4.8 C28.9,-3.7 28.3,-2.5 27.2,-1.3"/>
<path class="Clef" transform="matrix(1.228,0,0,1.228,95.4261,416.3)" d="M25.4,-25.1 C17.8,-25.1 11.7,-20.7 11.6,-20.7 C5.8,-16.4 3.5,-11.3 2.6,-7.8 C2.1,-6 1.9,-4.2 1.9,-2.5 C1.9,-0.1 2.3,2.1 3.2,4 C4.4,6.7 6.7,8.6 9.7,9.6 C10.9,10 12.2,10.2 13.5,10.2 C15.7,10.2 18,9.6 19.9,8.5 C23,6.8 24.9,3.2 24.9,-0.7 C24.9,-4.2 23.1,-7.4 20.1,-9.3 C18,-10.7 16,-11.1 14.3,-11.1 C13.1,-11.1 12,-10.9 11.1,-10.6 C10.1,-10.2 8.4,-9.2 7.6,-8.5 C7.9,-10.4 9.1,-13.3 10.2,-14.9 C11.3,-16.5 13.5,-18.5 15.2,-19.4 C17.7,-20.8 20.9,-21.4 24.4,-21.4 C34.6,-21.4 39.6,-13.2 39.6,3.6 C39.6,12.9 36.1,21.8 33.1,27.7 C29.8,34.3 25.4,40.6 21.5,44.1 C11.1,53.6 1.3,58.1 1.2,58.1 C1.2,58.1 -0.3,59 0.1,60.5 C0.4,61.5 1.3,61.7 1.9,61.7 C2,61.7 2.3,61.6 2.4,61.6 C2.5,61.6 13.9,56.9 23,49.8 C28.1,46.1 32.7,42.1 36.7,37.8 C40.3,33.9 43.4,29.7 45.9,25.5 C50.3,18 52.8,10.2 52.8,3.5 C52.8,-4.8 50.6,-11.7 46.5,-16.6 C41.8,-22.2 34.7,-25.1 25.4,-25.1 M56.8,-12.4 C56.8,-9.6 59,-7.4 61.6,-7.4 C64.2,-7.4 66.4,-9.6 66.4,-12.4 C66.4,-15.2 64.2,-17.5 61.6,-17.5 C59,-17.5 56.8,-15.2 56.8,-12.4 M56.8,12.3 C56.8,15.1 59,17.4 61.6,17.4 C64.2,17.4 66.4,15.1 66.4,12.3 C66.4,9.5 64.2,7.2 61.6,7.2 C59,7.2 56.8,9.5 56.8,12.3"/>
<path class="KeySig" transform="matrix(1.228,0,0,1.228,238.364,431.65)" d="M20.1,-7.9 C19.5,-11.8 17.1,-15.5 12,-15.5 C7,-15.5 4.1,-12.4 3.6,-11.8 L4,-43.9 C4,-44.7 3.4,-45.3 2.6,-45.3 L1.4,-45.3 C0.6,-45.3 0,-44.7 0,-43.9 L0.5,16.2 C0.5,17 1.1,17.6 1.9,17.6 C2.1,17.6 2.5,17.5 2.7,17.4 C3.1,17.2 9.6,14 15,7.9 C18.8,3.6 20.3,-1.3 20.3,-5.4 C20.3,-6.3 20.2,-7.1 20.1,-7.9 M13.2,-4 C13.2,-2.5 12.8,2.1 10.3,5.9 C8.6,8.5 5.2,11.2 3.3,12.7 L3.6,-6.8 C3.8,-7.7 5.3,-10.6 9.3,-10.6 C12.9,-10.6 13.2,-7.2 13.2,-5.1 L13.2,-4 "/>
<path class="KeySig" transform="matrix(1.228,0,0,1.228,207.664,477.7)" d="M20.1,-7.9 C19.5,-11.8 17.1,-15.5 12,-15.5 C7,-15.5 4.1,-12.4 3.6,-11.8 L4,-43.9 C4,-44.7 3.4,-45.3 2.6,-45.3 L1.4,-45.3 C0.6,-45.3 0,-44.7 0,-43.9 L0.5,16.2 C0.5,17 1.1,17.6 1.9,17.6 C2.1,17.6 2.5,17.5 2.7,17.4 C3.1,17.2 9.6,14 15,7.9 C18.8,3.6 20.3,-1.3 20.3,-5.4 C20.3,-6.3 20.2,-7.1 20.1,-7.9 M13.2,-4 C13.2,-2.5 12.8,2.1 10.3,5.9 C8.6,8.5 5.2,11.2 3.3,12.7 L3.6,-6.8 C3.8,-7.7 5.3,-10.6 9.3,-10.6 C12.9,-10.6 13.2,-7.2 13.2,-5.1 L13.2,-4 "/>
<path class="Beam" fill-rule="evenodd" d="M346.178,493.048 L650.043,500.809 L650.043,516.164 L346.178,508.403 L346.178,493.048 "/>
<path class="Beam" fill-rule="evenodd" d="M650.043,477.784 L610.133,476.764 L610.133,492.119 L650.043,493.139 L650.043,477.784 "/>
<path class="Beam" fill-rule="evenodd" d="M800.685,493.048 L1104.55,500.809 L1104.55,516.164 L800.685,508.403 L800.685,493.048 "/>
<path class="Beam" fill-rule="evenodd" d="M1104.55,477.784 L1064.64,476.764 L1064.64,492.119 L1104.55,493.139 L1104.55,477.784 "/>
<path class="Beam" fill-rule="evenodd" d="M1317.51,439.301 L1610.82,462.594 L1610.82,477.992 L1317.51,454.699 L1317.51,439.301 "/>
<path class="Beam" fill-rule="evenodd" d="M1610.82,439.569 L1570.91,436.399 L1570.91,451.798 L1610.82,454.967 L1610.82,439.569 "/>
<path class="Beam" fill-rule="evenodd" d="M1756.05,439.325 L1997.2,439.325 L1997.2,454.675 L1756.05,454.675 L1756.05,439.325 "/>
<path class="Beam" fill-rule="evenodd" d="M2293.92,462.345 L2514.62,470.139 L2514.62,485.499 L2293.92,477.705 L2293.92,462.345 "/>
<path class="Beam" fill-rule="evenodd" d="M2514.62,447.114 L2474.71,445.705 L2474.71,461.065 L2514.62,462.474 L2514.62,447.114 "/>
<path class="Beam" fill-rule="evenodd" d="M2819.41,293.223 L3230.26,324.178 L3230.26,339.571 L2819.41,308.617 L2819.41,293.223 "/>
<path class="Beam" fill-rule="evenodd" d="M2819.41,316.248 L3230.26,347.203 L3230.26,362.597 L2819.41,331.642 L2819.41,316.248 "/>
<path class="Hook" transform="matrix(1.228,0,0,1.228,2647.07,508.4)" d="M-0.05,0.774023 C-0.05,1.45498 0.273047,2.01201 1.42705,2.01201 C2.58105,2.01201 2.78906,1.504 2.904,0.774023 C2.904,0.774023 4.46201,-9.84902 8.28506,-15.395 C12.108,-20.941 18.309,-24.095 23.146,-30.257 C26.6511,-34.72 27.905,-40.08 28,-45.3 C28.09,-50.273 27.123,-55.0891 26.0511,-58.912 C26.3851,-61.028 26.584,-63.461 26.584,-66.312 C26.584,-71.974 23.996,-77.382 22.158,-80.248 C21.684,-80.986 21.178,-82.048 20.125,-81.504 C19.0721,-80.9601 19.541,-79.746 19.88,-78.804 C21.338,-74.7771 22.021,-69.704 22.1011,-67.213 C22.229,-63.226 21.9271,-59.334 17.917,-53.347 C11.9351,-44.417 4.01699,-39.447 1.42705,-38.49 C0.749023,-38.2561 -0.05,-37.78 -0.05,-37.533 L-0.05,0.774023 M23.45,-50.695 C23.803,-45.88 23.867,-41.071 18.2181,-34.2181 C14.4181,-29.611 8.30801,-25.069 3.82402,-24.7101 L3.72402,-24.299 C3.78701,-24.6311 3.85,-24.9311 3.91201,-25.17 C4.56807,-27.7181 6.40498,-31.198 10.32,-35.13 C15.233,-40.0641 18.208,-43.23 20.912,-46.748 C21.7105,-47.775 22.8493,-49.5433 23.454,-50.695 L23.45,-50.695 "/>
<path class="Fingering" d="M387.761,206.032 L383.713,206.032 L382.793,210.724 C381.597,216.704 380.861,217.256 375.157,217.256 L354.549,217.256 C360.897,210.632 363.013,208.7 368.901,204.1 C377.273,197.66 380.861,194.44 382.977,191.68 C385.921,187.632 387.393,183.584 387.393,179.076 C387.393,168.588 378.745,161.136 366.693,161.136 C355.009,161.136 346.085,168.588 346.085,178.432 C346.085,184.228 349.029,188.184 353.353,188.184 C356.757,188.184 359.057,185.884 359.057,182.572 C359.057,180.272 357.769,178.156 355.837,177.328 C352.433,175.948 352.249,175.764 352.249,174.568 C352.249,173.188 353.169,171.072 354.457,169.508 C356.757,166.656 360.529,165.092 364.853,165.092 C372.489,165.092 376.997,169.784 376.997,177.512 C376.997,184.32 373.777,190.484 366.141,198.58 C359.333,205.756 355.101,210.264 353.537,212.012 C350.225,215.876 348.569,217.992 344.521,223.328 L344.521,225.904 L386.013,225.904 L387.761,206.032 "/>
<path class="Fingering" d="M674.957,190.44 L643.677,233.956 L643.677,239.108 L669.529,239.108 L669.529,243.892 C669.529,248.584 669.529,248.768 668.977,249.596 C668.241,250.608 666.493,250.884 661.249,250.884 L660.237,250.884 L660.237,255.208 L687.101,255.208 L687.101,250.884 L686.733,250.884 C681.489,250.884 679.741,250.608 679.005,249.596 C678.453,248.768 678.453,248.676 678.453,243.892 L678.453,239.108 L689.585,239.108 L689.585,233.956 L678.453,233.956 L678.453,208.84 C678.453,197.34 678.453,197.064 678.913,190.44 L674.957,190.44 M669.529,233.956 L649.289,233.956 L669.529,206.08 L669.529,233.956 "/>
<path class="Fingering" d="M842.267,206.032 L838.219,206.032 L837.299,210.724 C836.103,216.704 835.367,217.256 829.663,217.256 L809.055,217.256 C815.403,210.632 817.519,208.7 823.407,204.1 C831.779,197.66 835.367,194.44 837.483,191.68 C840.427,187.632 841.899,183.584 841.899,179.076 C841.899,168.588 833.251,161.136 821.199,161.136 C809.515,161.136 800.591,168.588 800.591,178.432 C800.591,184.228 803.535,188.184 807.859,188.184 C811.263,188.184 813.563,185.884 813.563,182.572 C813.563,180.272 812.275,178.156 810.343,177.328 C806.939,175.948 806.755,175.764 806.755,174.568 C806.755,173.188 807.675,171.072 808.963,169.508 C811.263,166.656 815.035,165.092 819.359,165.092 C826.995,165.092 831.503,169.784 831.503,177.512 C831.503,184.32 828.283,190.484 820.647,198.58 C813.839,205.756 809.607,210.264 808.043,212.012 C804.731,215.876 803.075,217.992 799.027,223.328 L799.027,225.904 L840.519,225.904 L842.267,206.032 "/>
<path class="Fingering" d="M1129.46,190.44 L1098.18,233.956 L1098.18,239.108 L1124.04,239.108 L1124.04,243.892 C1124.04,248.584 1124.04,248.768 1123.48,249.596 C1122.75,250.608 1121,250.884 1115.76,250.884 L1114.74,250.884 L1114.74,255.208 L1141.61,255.208 L1141.61,250.884 L1141.24,250.884 C1136,250.884 1134.25,250.608 1133.51,249.596 C1132.96,248.768 1132.96,248.676 1132.96,243.892 L1132.96,239.108 L1144.09,239.108 L1144.09,233.956 L1132.96,233.956 L1132.96,208.84 C1132.96,197.34 1132.96,197.064 1133.42,190.44 L1129.46,190.44 M1124.04,233.956 L1103.8,233.956 L1124.04,206.08 L1124.04,233.956 "/>
<path class="Fingering" d="M1339.7,80.1992 C1336.57,83.9712 1328.1,86.8232 1319.64,87.0072 L1319.64,90.9632 L1327.74,90.9632 C1333.07,91.0552 1333.62,91.6072 1333.44,96.7592 L1333.44,133.651 C1333.44,138.343 1333.44,138.527 1332.89,139.355 C1332.15,140.275 1330.4,140.643 1325.25,140.643 L1319.27,140.643 L1319.27,144.967 L1355.7,144.967 L1355.7,140.643 L1350.64,140.643 C1345.49,140.643 1343.74,140.275 1343.01,139.355 C1342.36,138.527 1342.36,138.435 1342.36,133.651 L1342.36,95.6552 C1342.36,90.5032 1342.55,86.1792 1343.01,80.1992 L1339.7,80.1992 "/>
<path class="Fingering" d="M1629.63,138.808 C1626.5,142.58 1618.04,145.432 1609.57,145.616 L1609.57,149.572 L1617.67,149.572 C1623,149.664 1623.56,150.216 1623.37,155.368 L1623.37,192.26 C1623.37,196.952 1623.37,197.136 1622.82,197.964 C1622.08,198.884 1620.34,199.252 1615.18,199.252 L1609.2,199.252 L1609.2,203.576 L1645.64,203.576 L1645.64,199.252 L1640.58,199.252 C1635.42,199.252 1633.68,198.884 1632.94,197.964 C1632.3,197.136 1632.3,197.044 1632.3,192.26 L1632.3,154.264 C1632.3,149.112 1632.48,144.788 1632.94,138.808 L1629.63,138.808 "/>
<path class="Fingering" d="M1783.01,139.041 C1791.38,136.005 1795.24,131.313 1795.24,123.953 C1795.24,114.293 1787.88,108.129 1776.48,108.129 C1765.71,108.129 1757.52,114.477 1757.52,122.849 C1757.52,126.621 1760.01,129.289 1763.6,129.289 C1766.82,129.289 1769.02,127.081 1769.02,123.769 C1769.02,121.745 1768.29,120.549 1766.17,119.077 C1765.25,118.433 1764.98,118.065 1764.98,117.421 C1764.98,114.845 1770.31,112.085 1775.56,112.085 C1782.18,112.085 1785.68,116.225 1785.68,124.045 C1785.68,132.601 1782.18,137.109 1775.65,137.109 C1774.82,137.109 1773.26,137.017 1771.88,136.925 C1771.14,136.833 1770.4,136.833 1769.85,136.833 C1767.92,136.833 1766.91,137.661 1766.91,139.317 C1766.91,140.881 1767.83,141.617 1769.85,141.617 C1770.4,141.617 1771.14,141.617 1771.97,141.525 C1773.81,141.433 1775.28,141.433 1776.29,141.433 C1783.1,141.433 1786.78,146.309 1786.78,155.417 C1786.78,164.985 1782.18,170.321 1773.9,170.321 C1768.1,170.321 1761.85,167.193 1761.85,164.341 C1761.85,163.513 1762.03,163.329 1763.78,162.317 C1766.36,160.753 1767.37,159.189 1767.37,156.889 C1767.37,153.577 1764.88,151.093 1761.57,151.093 C1757.62,151.093 1755.04,154.313 1755.04,159.189 C1755.04,168.113 1763.23,174.277 1775,174.277 C1788.34,174.277 1796.99,166.917 1796.99,155.601 C1796.99,146.953 1792.58,141.709 1783.01,139.041"/>
<path class="Fingering" d="M2020.78,139.041 C2029.15,136.005 2033.02,131.313 2033.02,123.953 C2033.02,114.293 2025.66,108.129 2014.25,108.129 C2003.49,108.129 1995.3,114.477 1995.3,122.849 C1995.3,126.621 1997.78,129.289 2001.37,129.289 C2004.59,129.289 2006.8,127.081 2006.8,123.769 C2006.8,121.745 2006.06,120.549 2003.95,119.077 C2003.03,118.433 2002.75,118.065 2002.75,117.421 C2002.75,114.845 2008.09,112.085 2013.33,112.085 C2019.95,112.085 2023.45,116.225 2023.45,124.045 C2023.45,132.601 2019.95,137.109 2013.42,137.109 C2012.59,137.109 2011.03,137.017 2009.65,136.925 C2008.91,136.833 2008.18,136.833 2007.63,136.833 C2005.69,136.833 2004.68,137.661 2004.68,139.317 C2004.68,140.881 2005.6,141.617 2007.63,141.617 C2008.18,141.617 2008.91,141.617 2009.74,141.525 C2011.58,141.433 2013.05,141.433 2014.07,141.433 C2020.87,141.433 2024.55,146.309 2024.55,155.417 C2024.55,164.985 2019.95,170.321 2011.67,170.321 C2005.88,170.321 1999.62,167.193 1999.62,164.341 C1999.62,163.513 1999.81,163.329 2001.55,162.317 C2004.13,160.753 2005.14,159.189 2005.14,156.889 C2005.14,153.577 2002.66,151.093 1999.35,151.093 C1995.39,151.093 1992.81,154.313 1992.81,159.189 C1992.81,168.113 2001,174.277 2012.78,174.277 C2026.12,174.277 2034.77,166.917 2034.77,155.601 C2034.77,146.953 2030.35,141.709 2020.78,139.041"/>
<path class="Fingering" d="M2533.43,138.808 C2530.3,142.58 2521.83,145.432 2513.37,145.616 L2513.37,149.572 L2521.47,149.572 C2526.8,149.664 2527.35,150.216 2527.17,155.368 L2527.17,192.26 C2527.17,196.952 2527.17,197.136 2526.62,197.964 C2525.88,198.884 2524.13,199.252 2518.98,199.252 L2513,199.252 L2513,203.576 L2549.43,203.576 L2549.43,199.252 L2544.37,199.252 C2539.22,199.252 2537.47,198.884 2536.74,197.964 C2536.09,197.136 2536.09,197.044 2536.09,192.26 L2536.09,154.264 C2536.09,149.112 2536.28,144.788 2536.74,138.808 L2533.43,138.808 "/>
<path class="Fingering" d="M2675.36,190.44 L2644.08,233.956 L2644.08,239.108 L2669.93,239.108 L2669.93,243.892 C2669.93,248.584 2669.93,248.768 2669.38,249.596 C2668.64,250.608 2666.89,250.884 2661.65,250.884 L2660.64,250.884 L2660.64,255.208 L2687.5,255.208 L2687.5,250.884 L2687.13,250.884 C2681.89,250.884 2680.14,250.608 2679.4,249.596 C2678.85,248.768 2678.85,248.676 2678.85,243.892 L2678.85,239.108 L2689.98,239.108 L2689.98,233.956 L2678.85,233.956 L2678.85,208.84 C2678.85,197.34 2678.85,197.064 2679.31,190.44 L2675.36,190.44 M2669.93,233.956 L2649.69,233.956 L2669.93,206.08 L2669.93,233.956 "/>
<path class="Fingering" d="M2811.18,104.941 L2779.9,148.457 L2779.9,153.609 L2805.75,153.609 L2805.75,158.393 C2805.75,163.085 2805.75,163.269 2805.2,164.097 C2804.46,165.109 2802.72,165.385 2797.47,165.385 L2796.46,165.385 L2796.46,169.709 L2823.32,169.709 L2823.32,165.385 L2822.96,165.385 C2817.71,165.385 2815.96,165.109 2815.23,164.097 C2814.68,163.269 2814.68,163.177 2814.68,158.393 L2814.68,153.609 L2825.81,153.609 L2825.81,148.457 L2814.68,148.457 L2814.68,123.341 C2814.68,111.841 2814.68,111.565 2815.14,104.941 L2811.18,104.941 M2805.75,148.457 L2785.51,148.457 L2805.75,120.581 L2805.75,148.457 "/>
<path class="Fingering" d="M2947,115.174 L2915.72,158.69 L2915.72,163.842 L2941.58,163.842 L2941.58,168.626 C2941.58,173.318 2941.58,173.502 2941.02,174.33 C2940.29,175.342 2938.54,175.618 2933.3,175.618 L2932.28,175.618 L2932.28,179.942 L2959.15,179.942 L2959.15,175.618 L2958.78,175.618 C2953.54,175.618 2951.79,175.342 2951.05,174.33 C2950.5,173.502 2950.5,173.41 2950.5,168.626 L2950.5,163.842 L2961.63,163.842 L2961.63,158.69 L2950.5,158.69 L2950.5,133.574 C2950.5,122.074 2950.5,121.798 2950.96,115.174 L2947,115.174 M2941.58,158.69 L2921.34,158.69 L2941.58,130.814 L2941.58,158.69 "/>
<path class="Fingering" d="M3082.83,160.294 L3051.55,203.81 L3051.55,208.962 L3077.4,208.962 L3077.4,213.746 C3077.4,218.438 3077.4,218.622 3076.85,219.45 C3076.11,220.462 3074.36,220.738 3069.12,220.738 L3068.11,220.738 L3068.11,225.062 L3094.97,225.062 L3094.97,220.738 L3094.6,220.738 C3089.36,220.738 3087.61,220.462 3086.88,219.45 C3086.32,218.622 3086.32,218.53 3086.32,213.746 L3086.32,208.962 L3097.46,208.962 L3097.46,203.81 L3086.32,203.81 L3086.32,178.694 C3086.32,167.194 3086.32,166.918 3086.78,160.294 L3082.83,160.294 M3077.4,203.81 L3057.16,203.81 L3077.4,175.934 L3077.4,203.81 "/>
<path class="Fingering" d="M3218.65,170.527 L3187.37,214.043 L3187.37,219.195 L3213.22,219.195 L3213.22,223.979 C3213.22,228.671 3213.22,228.855 3212.67,229.683 C3211.94,230.695 3210.19,230.971 3204.94,230.971 L3203.93,230.971 L3203.93,235.295 L3230.8,235.295 L3230.8,230.971 L3230.43,230.971 C3225.18,230.971 3223.44,230.695 3222.7,229.683 C3222.15,228.855 3222.15,228.763 3222.15,223.979 L3222.15,219.195 L3233.28,219.195 L3233.28,214.043 L3222.15,214.043 L3222.15,188.927 C3222.15,177.427 3222.15,177.151 3222.61,170.527 L3218.65,170.527 M3213.22,214.043 L3192.98,214.043 L3213.22,186.167 L3213.22,214.043 "/>
<path class="VoltaSegment" d="M2275.14,91.9506 L2272.76,91.9506 C2268.47,95.1466 2263.64,96.5066 2255.55,96.6426 L2255.55,100.451 L2258.41,100.451 C2264.46,100.451 2264.53,100.587 2264.46,106.163 L2264.46,130.303 C2264.46,134.519 2264.46,134.723 2263.98,135.403 C2263.37,136.151 2262.01,136.423 2258.34,136.423 L2256.16,136.423 L2256.16,140.095 L2283.3,140.095 L2283.3,136.423 L2281.12,136.423 C2277.52,136.423 2276.22,136.151 2275.61,135.403 C2275.14,134.723 2275.14,134.451 2275.14,130.303 L2275.14,91.9506 M2298.39,128.331 C2294.85,128.331 2292,131.187 2292,134.723 C2292,138.191 2294.85,141.115 2298.32,141.115 C2301.93,141.115 2304.78,138.259 2304.78,134.723 C2304.78,131.187 2301.93,128.331 2298.39,128.331"/>
<polyline class="VoltaSegment" fill="none" stroke="#000000" stroke-width="3.38" stroke-linecap="square" stroke-linejoin="bevel" points="2237.13,140.095 2237.13,72.5545"/>
<polyline class="VoltaSegment" fill="none" stroke="#000000" stroke-width="3.38" stroke-linecap="square" stroke-linejoin="bevel" points="2237.13,72.5545 3363.21,72.5545"/>
<polyline class="VoltaSegment" fill="none" stroke="#000000" stroke-width="3.38" stroke-linecap="square" stroke-linejoin="bevel" points="3363.21,72.5545 3363.21,140.095"/>
<path class="NoteDot" transform="matrix(1.228,0,0,1.228,401.429,370.25)" d="M0,-0.00166016 C0,2.75977 2.23857,4.99834 5,4.99834 C7.76143,4.99834 10,2.75977 10,-0.00166016 C10,-2.76309 7.76143,-5.00166 5,-5.00166 C2.23857,-5.00166 0,-2.76309 0,-0.00166016"/>
<path class="NoteDot" transform="matrix(1.228,0,0,1.228,855.935,370.25)" d="M0,-0.00166016 C0,2.75977 2.23857,4.99834 5,4.99834 C7.76143,4.99834 10,2.75977 10,-0.00166016 C10,-2.76309 7.76143,-5.00166 5,-5.00166 C2.23857,-5.00166 0,-2.76309 0,-0.00166016"/>
<path class="NoteDot" transform="matrix(1.228,0,0,1.228,1372.76,339.55)" d="M0,-0.00166016 C0,2.75977 2.23857,4.99834 5,4.99834 C7.76143,4.99834 10,2.75977 10,-0.00166016 C10,-2.76309 7.76143,-5.00166 5,-5.00166 C2.23857,-5.00166 0,-2.76309 0,-0.00166016"/>
<path class="Page" d="M96.0631,95.1735 L95.4581,97.9235 C94.9631,100.124 94.6331,100.838 94.1931,101.114 C93.6431,101.499 93.5331,101.499 90.0681,101.553 L79.4531,101.553 C81.3781,99.9035 82.8081,98.8585 84.9531,97.4285 C92.7081,92.4235 94.3031,91.2135 95.8981,89.1785 C97.7681,86.7035 98.8681,83.7885 98.8681,81.2035 C98.8681,75.3185 93.0931,70.8635 85.3381,70.8635 C77.8581,70.8635 72.0831,75.7035 72.0831,81.9735 C72.0831,85.8235 74.2281,88.2985 77.5281,88.2985 C80.3881,88.2985 82.2031,86.4835 82.2031,83.6235 C82.2031,81.2585 81.1581,79.8835 78.6281,78.6735 C78.0231,78.3985 77.7481,78.0685 77.7481,77.6285 C77.7481,75.8685 80.7181,73.9985 83.4681,73.9985 C87.3181,73.9985 89.5181,76.3635 89.5181,80.4335 C89.5181,84.9985 87.7581,88.2435 81.9281,94.4585 C75.7681,101.004 73.6231,103.478 70.8731,107.439 L70.8731,110.023 C72.3031,109.859 72.9081,109.803 73.7331,109.803 L94.4131,109.803 C95.4581,109.803 96.1181,109.859 97.7681,110.023 L99.0331,95.1735 L96.0631,95.1735 "/>
</svg>
