<?xml version="1.0" encoding="UTF-8" standalone="no"?>
<svg width="4208.47px" height="2409.45px" viewBox="0 0 4208.47 2409.45"
 xmlns="http://www.w3.org/2000/svg" xmlns:xlink="http://www.w3.org/1999/xlink" version="1.2" baseProfile="tiny">
<title>BONE PIRATA</title>
<desc>Generated by MuseScore 3.6.2</desc>
<polyline class="StaffLines" fill="none" stroke="#000000" stroke-width="6.47" stroke-linejoin="bevel" points="70.866,482.598 4137.61,482.598"/>
<polyline class="StaffLines" fill="none" stroke="#000000" stroke-width="6.47" stroke-linejoin="bevel" points="70.866,541.417 4137.61,541.417"/>
<polyline class="StaffLines" fill="none" stroke="#000000" stroke-width="6.47" stroke-linejoin="bevel" points="70.866,600.236 4137.61,600.236"/>
<polyline class="StaffLines" fill="none" stroke="#000000" stroke-width="6.47" stroke-linejoin="bevel" points="70.866,659.055 4137.61,659.055"/>
<polyline class="StaffLines" fill="none" stroke="#000000" stroke-width="6.47" stroke-linejoin="bevel" points="70.866,717.874 4137.61,717.874"/>
<polyline class="StaffLines" fill="none" stroke="#000000" stroke-width="6.47" stroke-linejoin="bevel" points="70.866,1600.16 4137.61,1600.16"/>
<polyline class="StaffLines" fill="none" stroke="#000000" stroke-width="6.47" stroke-linejoin="bevel" points="70.866,1658.98 4137.61,1658.98"/>
<polyline class="StaffLines" fill="none" stroke="#000000" stroke-width="6.47" stroke-linejoin="bevel" points="70.866,1717.8 4137.61,1717.8"/>
<polyline class="StaffLines" fill="none" stroke="#000000" stroke-width="6.47" stroke-linejoin="bevel" points="70.866,1776.61 4137.61,1776.61"/>
<polyline class="StaffLines" fill="none" stroke="#000000" stroke-width="6.47" stroke-linejoin="bevel" points="70.866,1835.43 4137.61,1835.43"/>
<path class="MeasureNumber" d="M86.5847,1468.85 C85.8972,1472 85.1785,1473.93 84.0222,1476.16 C82.0691,1479.8 79.991,1481.44 77.1785,1481.44 C76.0222,1481.44 75.2722,1480.96 75.2722,1480.24 C75.2722,1479.96 75.3504,1479.85 75.6629,1479.36 C76.0691,1478.85 76.2722,1478.36 76.2722,1477.8 C76.2722,1476.49 75.2254,1475.49 73.866,1475.49 C72.2722,1475.49 71.1472,1476.68 71.1472,1478.44 C71.1472,1481.16 73.7097,1483.11 77.2722,1483.11 C80.4597,1483.11 83.4285,1481.72 85.866,1478.93 C89.3504,1475.04 91.616,1469.24 91.616,1464.32 C91.616,1458.08 88.616,1454.36 83.6629,1454.36 C80.7097,1454.36 77.9441,1455.69 76.1004,1457.96 C74.3035,1460.16 73.2722,1462.96 73.2722,1465.57 C73.2722,1469.36 76.1785,1472.24 80.0691,1472.24 C82.7097,1472.24 84.741,1471.16 86.5847,1468.85 M83.6316,1456.05 C86.1785,1456.05 87.8191,1458.08 87.8191,1461.29 C87.8191,1466.24 85.1004,1469.88 81.4285,1469.88 C78.8972,1469.88 77.5066,1468.16 77.5066,1465.16 C77.5066,1462.8 78.0691,1460.68 79.1472,1458.88 C80.3504,1456.96 81.7879,1456.05 83.6316,1456.05"/>
<polyline class="BarLine" fill="none" stroke="#000000" stroke-width="32.35" stroke-linejoin="bevel" points="488.113,479.363 488.113,721.109"/>
<polyline class="BarLine" fill="none" stroke="#000000" stroke-width="10.59" stroke-linejoin="bevel" points="529.286,479.363 529.286,721.109"/>
<path class="BarLine" transform="matrix(2.35276,0,0,2.35276,558.217,570.827)" d="M10.4063,0 C10.4063,-2.90625 8.09375,-5.29688 5.20313,-5.29688 C2.29688,-5.29688 0,-2.90625 0,0 C0,2.90625 2.29688,5.29688 5.20313,5.29688 C8.09375,5.29688 10.4063,2.90625 10.4063,0"/>
<path class="BarLine" transform="matrix(2.35276,0,0,2.35276,558.217,629.646)" d="M10.4063,0 C10.4063,-2.90625 8.09375,-5.29688 5.20313,-5.29688 C2.29688,-5.29688 0,-2.90625 0,0 C0,2.90625 2.29688,5.29688 5.20313,5.29688 C8.09375,5.29688 10.4063,2.90625 10.4063,0"/>
<polyline class="BarLine" fill="none" stroke="#000000" stroke-width="10.59" stroke-linejoin="bevel" points="1003.88,479.363 1003.88,721.109"/>
<polyline class="BarLine" fill="none" stroke="#000000" stroke-width="10.59" stroke-linejoin="bevel" points="1579.71,479.363 1579.71,721.109"/>
<polyline class="BarLine" fill="none" stroke="#000000" stroke-width="10.59" stroke-linejoin="bevel" points="1955.01,479.363 1955.01,721.109"/>
<polyline class="BarLine" fill="none" stroke="#000000" stroke-width="10.59" stroke-linejoin="bevel" points="2430.58,479.363 2430.58,721.109"/>
<polyline class="BarLine" fill="none" stroke="#000000" stroke-width="10.59" stroke-linejoin="bevel" points="2805.88,479.363 2805.88,721.109"/>
<polyline class="BarLine" fill="none" stroke="#000000" stroke-width="10.59" stroke-linejoin="bevel" points="3281.44,479.363 3281.44,721.109"/>
<polyline class="BarLine" fill="none" stroke="#000000" stroke-width="10.59" stroke-linejoin="bevel" points="3656.75,479.363 3656.75,721.109"/>
<polyline class="BarLine" fill="none" stroke="#000000" stroke-width="10.59" stroke-linejoin="bevel" points="4132.31,479.363 4132.31,721.109"/>
<polyline class="BarLine" fill="none" stroke="#000000" stroke-width="10.59" stroke-linejoin="bevel" points="731.956,1596.92 731.956,1838.67"/>
<polyline class="BarLine" fill="none" stroke="#000000" stroke-width="10.59" stroke-linejoin="bevel" points="1224.75,1596.92 1224.75,1838.67"/>
<polyline class="BarLine" fill="none" stroke="#000000" stroke-width="10.59" stroke-linejoin="bevel" points="1617.27,1596.92 1617.27,1838.67"/>
<polyline class="BarLine" fill="none" stroke="#000000" stroke-width="10.59" stroke-linejoin="bevel" points="2110.07,1596.92 2110.07,1838.67"/>
<polyline class="BarLine" fill="none" stroke="#000000" stroke-width="10.59" stroke-linejoin="bevel" points="2602.86,1596.92 2602.86,1838.67"/>
<polyline class="BarLine" fill="none" stroke="#000000" stroke-width="10.59" stroke-linejoin="bevel" points="3195.92,1596.92 3195.92,1838.67"/>
<polyline class="BarLine" fill="none" stroke="#000000" stroke-width="10.59" stroke-linejoin="bevel" points="3588.44,1596.92 3588.44,1838.67"/>
<path class="BarLine" transform="matrix(2.35276,0,0,2.35276,4033.89,1688.39)" d="M10.4063,0 C10.4063,-2.90625 8.09375,-5.29688 5.20313,-5.29688 C2.29688,-5.29688 0,-2.90625 0,0 C0,2.90625 2.29688,5.29688 5.20313,5.29688 C8.09375,5.29688 10.4063,2.90625 10.4063,0"/>
<path class="BarLine" transform="matrix(2.35276,0,0,2.35276,4033.89,1747.2)" d="M10.4063,0 C10.4063,-2.90625 8.09375,-5.29688 5.20313,-5.29688 C2.29688,-5.29688 0,-2.90625 0,0 C0,2.90625 2.29688,5.29688 5.20313,5.29688 C8.09375,5.29688 10.4063,2.90625 10.4063,0"/>
<polyline class="BarLine" fill="none" stroke="#000000" stroke-width="10.59" stroke-linejoin="bevel" points="4087.29,1596.92 4087.29,1838.67"/>
<polyline class="BarLine" fill="none" stroke="#000000" stroke-width="32.35" stroke-linejoin="bevel" points="4128.46,1596.92 4128.46,1838.67"/>
<polyline class="LedgerLine" fill="none" stroke="#000000" stroke-width="9.41" stroke-linejoin="bevel" points="3394.95,1541.34 3512.57,1541.34"/>
<polyline class="Stem" fill="none" stroke="#000000" stroke-width="6.47" stroke-linejoin="bevel" points="658.299,519.913 658.299,717.874"/>
<polyline class="Stem" fill="none" stroke="#000000" stroke-width="6.47" stroke-linejoin="bevel" points="834.202,549.322 834.202,747.283"/>
<polyline class="Stem" fill="none" stroke="#000000" stroke-width="6.47" stroke-linejoin="bevel" points="1091.81,578.732 1091.81,761.988"/>
<polyline class="Stem" fill="none" stroke="#000000" stroke-width="6.47" stroke-linejoin="bevel" points="1197.89,608.141 1197.89,776.693"/>
<polyline class="Stem" fill="none" stroke="#000000" stroke-width="6.47" stroke-linejoin="bevel" points="1303.96,578.732 1303.96,732.579"/>
<polyline class="Stem" fill="none" stroke="#000000" stroke-width="6.47" stroke-linejoin="bevel" points="1410.03,549.322 1410.03,717.874"/>
<polyline class="Stem" fill="none" stroke="#000000" stroke-width="6.47" stroke-linejoin="bevel" points="1667.64,519.913 1667.64,717.874"/>
<polyline class="Stem" fill="none" stroke="#000000" stroke-width="6.47" stroke-linejoin="bevel" points="1785.34,519.913 1785.34,717.874"/>
<polyline class="Stem" fill="none" stroke="#000000" stroke-width="6.47" stroke-linejoin="bevel" points="2042.94,519.913 2042.94,717.874"/>
<polyline class="Stem" fill="none" stroke="#000000" stroke-width="6.47" stroke-linejoin="bevel" points="2169.75,490.504 2169.75,659.055"/>
<polyline class="Stem" fill="none" stroke="#000000" stroke-width="6.47" stroke-linejoin="bevel" points="2260.9,519.913 2260.9,673.76"/>
<polyline class="Stem" fill="none" stroke="#000000" stroke-width="6.47" stroke-linejoin="bevel" points="2518.51,549.322 2518.51,739.931"/>
<polyline class="Stem" fill="none" stroke="#000000" stroke-width="6.47" stroke-linejoin="bevel" points="2636.2,549.322 2636.2,739.931"/>
<polyline class="Stem" fill="none" stroke="#000000" stroke-width="6.47" stroke-linejoin="bevel" points="2893.81,549.322 2893.81,739.931"/>
<polyline class="Stem" fill="none" stroke="#000000" stroke-width="6.47" stroke-linejoin="bevel" points="3020.62,519.913 3020.62,703.169"/>
<polyline class="Stem" fill="none" stroke="#000000" stroke-width="6.47" stroke-linejoin="bevel" points="3111.77,549.322 3111.77,717.874"/>
<polyline class="Stem" fill="none" stroke="#000000" stroke-width="6.47" stroke-linejoin="bevel" points="3369.38,578.732 3369.38,761.988"/>
<polyline class="Stem" fill="none" stroke="#000000" stroke-width="6.47" stroke-linejoin="bevel" points="3487.07,578.732 3487.07,761.988"/>
<polyline class="Stem" fill="none" stroke="#000000" stroke-width="6.47" stroke-linejoin="bevel" points="3744.68,578.732 3744.68,761.988"/>
<polyline class="Stem" fill="none" stroke="#000000" stroke-width="6.47" stroke-linejoin="bevel" points="3871.49,637.551 3871.49,726.903"/>
<polyline class="Stem" fill="none" stroke="#000000" stroke-width="6.47" stroke-linejoin="bevel" points="3962.64,637.551 3962.64,726.903"/>
<polyline class="Stem" fill="none" stroke="#000000" stroke-width="6.47" stroke-linejoin="bevel" points="427.364,1608.06 427.364,1806.02"/>
<polyline class="Stem" fill="none" stroke="#000000" stroke-width="6.47" stroke-linejoin="bevel" points="562.281,1608.06 562.281,1806.02"/>
<polyline class="Stem" fill="none" stroke="#000000" stroke-width="6.47" stroke-linejoin="bevel" points="819.89,1608.06 819.89,1806.02"/>
<polyline class="Stem" fill="none" stroke="#000000" stroke-width="6.47" stroke-linejoin="bevel" points="963.923,1578.65 963.923,1761.91"/>
<polyline class="Stem" fill="none" stroke="#000000" stroke-width="6.47" stroke-linejoin="bevel" points="1055.07,1608.06 1055.07,1776.61"/>
<polyline class="Stem" fill="none" stroke="#000000" stroke-width="6.47" stroke-linejoin="bevel" points="1312.68,1637.47 1312.68,1835.43"/>
<polyline class="Stem" fill="none" stroke="#000000" stroke-width="6.47" stroke-linejoin="bevel" points="1447.6,1637.47 1447.6,1835.43"/>
<polyline class="Stem" fill="none" stroke="#000000" stroke-width="6.47" stroke-linejoin="bevel" points="1705.21,1637.47 1705.21,1835.43"/>
<polyline class="Stem" fill="none" stroke="#000000" stroke-width="6.47" stroke-linejoin="bevel" points="1849.24,1696.29 1849.24,1850.14"/>
<polyline class="Stem" fill="none" stroke="#000000" stroke-width="6.47" stroke-linejoin="bevel" points="1940.39,1666.88 1940.39,1835.43"/>
<polyline class="Stem" fill="none" stroke="#000000" stroke-width="6.47" stroke-linejoin="bevel" points="2198,1637.47 2198,1835.43"/>
<polyline class="Stem" fill="none" stroke="#000000" stroke-width="6.47" stroke-linejoin="bevel" points="2342.03,1696.29 2342.03,1850.14"/>
<polyline class="Stem" fill="none" stroke="#000000" stroke-width="6.47" stroke-linejoin="bevel" points="2433.18,1666.88 2433.18,1835.43"/>
<polyline class="Stem" fill="none" stroke="#000000" stroke-width="6.47" stroke-linejoin="bevel" points="2690.79,1637.47 2690.79,1820.73"/>
<polyline class="Stem" fill="none" stroke="#000000" stroke-width="6.47" stroke-linejoin="bevel" points="2802.61,1666.88 2802.61,1835.43"/>
<polyline class="Stem" fill="none" stroke="#000000" stroke-width="6.47" stroke-linejoin="bevel" points="2914.43,1696.29 2914.43,1879.55"/>
<polyline class="Stem" fill="none" stroke="#000000" stroke-width="6.47" stroke-linejoin="bevel" points="3026.24,1725.7 3026.24,1894.25"/>
<polyline class="Stem" fill="none" stroke="#000000" stroke-width="6.47" stroke-linejoin="bevel" points="3353.83,1739.68 3353.83,1556.04"/>
<polyline class="Stem" fill="none" stroke="#000000" stroke-width="6.47" stroke-linejoin="bevel" points="3418.77,1549.24 3418.77,1747.2"/>
<polyline class="Stem" fill="none" stroke="#000000" stroke-width="6.47" stroke-linejoin="bevel" points="3746.35,1739.68 3746.35,1556.04"/>
<path class="Note" transform="matrix(2.35276,0,0,2.35276,655.064,512.008)" d="M31.5,-8.09375 C29.7031,-11.4063 25.9063,-13.2031 21.2969,-13.2031 C17.9063,-13.2031 14.2031,-12.2031 10.5938,-10.2969 C4,-6.79688 0,-0.90625 0,4.20313 C0,5.59375 0.296875,7 1,8.29688 C2.79688,11.5938 6.59375,13.2969 11.2031,13.2969 C14.5938,13.2969 18.2969,12.4063 21.9063,10.5 C28.5,7 32.5,1.09375 32.5,-4 C32.5,-5.40625 32.2031,-6.79688 31.5,-8.09375"/>
<path class="Note" transform="matrix(2.35276,0,0,2.35276,830.967,541.417)" d="M31.5,-8.09375 C29.7031,-11.4063 25.9063,-13.2031 21.2969,-13.2031 C17.9063,-13.2031 14.2031,-12.2031 10.5938,-10.2969 C4,-6.79688 0,-0.90625 0,4.20313 C0,5.59375 0.296875,7 1,8.29688 C2.79688,11.5938 6.59375,13.2969 11.2031,13.2969 C14.5938,13.2969 18.2969,12.4063 21.9063,10.5 C28.5,7 32.5,1.09375 32.5,-4 C32.5,-5.40625 32.2031,-6.79688 31.5,-8.09375"/>
<path class="Note" transform="matrix(2.35276,0,0,2.35276,1088.58,570.827)" d="M31.5,-8.09375 C29.7031,-11.4063 25.9063,-13.2031 21.2969,-13.2031 C17.9063,-13.2031 14.2031,-12.2031 10.5938,-10.2969 C4,-6.79688 0,-0.90625 0,4.20313 C0,5.59375 0.296875,7 1,8.29688 C2.79688,11.5938 6.59375,13.2969 11.2031,13.2969 C14.5938,13.2969 18.2969,12.4063 21.9063,10.5 C28.5,7 32.5,1.09375 32.5,-4 C32.5,-5.40625 32.2031,-6.79688 31.5,-8.09375"/>
<path class="Note" transform="matrix(2.35276,0,0,2.35276,1194.65,600.236)" d="M31.5,-8.09375 C29.7031,-11.4063 25.9063,-13.2031 21.2969,-13.2031 C17.9063,-13.2031 14.2031,-12.2031 10.5938,-10.2969 C4,-6.79688 0,-0.90625 0,4.20313 C0,5.59375 0.296875,7 1,8.29688 C2.79688,11.5938 6.59375,13.2969 11.2031,13.2969 C14.5938,13.2969 18.2969,12.4063 21.9063,10.5 C28.5,7 32.5,1.09375 32.5,-4 C32.5,-5.40625 32.2031,-6.79688 31.5,-8.09375"/>
<path class="Note" transform="matrix(2.35276,0,0,2.35276,1300.72,570.827)" d="M31.5,-8.09375 C29.7031,-11.4063 25.9063,-13.2031 21.2969,-13.2031 C17.9063,-13.2031 14.2031,-12.2031 10.5938,-10.2969 C4,-6.79688 0,-0.90625 0,4.20313 C0,5.59375 0.296875,7 1,8.29688 C2.79688,11.5938 6.59375,13.2969 11.2031,13.2969 C14.5938,13.2969 18.2969,12.4063 21.9063,10.5 C28.5,7 32.5,1.09375 32.5,-4 C32.5,-5.40625 32.2031,-6.79688 31.5,-8.09375"/>
<path class="Note" transform="matrix(2.35276,0,0,2.35276,1406.8,541.417)" d="M31.5,-8.09375 C29.7031,-11.4063 25.9063,-13.2031 21.2969,-13.2031 C17.9063,-13.2031 14.2031,-12.2031 10.5938,-10.2969 C4,-6.79688 0,-0.90625 0,4.20313 C0,5.59375 0.296875,7 1,8.29688 C2.79688,11.5938 6.59375,13.2969 11.2031,13.2969 C14.5938,13.2969 18.2969,12.4063 21.9063,10.5 C28.5,7 32.5,1.09375 32.5,-4 C32.5,-5.40625 32.2031,-6.79688 31.5,-8.09375"/>
<path class="Note" transform="matrix(2.35276,0,0,2.35276,1664.41,512.008)" d="M31.5,-8.09375 C29.7031,-11.4063 25.9063,-13.2031 21.2969,-13.2031 C17.9063,-13.2031 14.2031,-12.2031 10.5938,-10.2969 C4,-6.79688 0,-0.90625 0,4.20313 C0,5.59375 0.296875,7 1,8.29688 C2.79688,11.5938 6.59375,13.2969 11.2031,13.2969 C14.5938,13.2969 18.2969,12.4063 21.9063,10.5 C28.5,7 32.5,1.09375 32.5,-4 C32.5,-5.40625 32.2031,-6.79688 31.5,-8.09375"/>
<path class="Note" transform="matrix(2.35276,0,0,2.35276,1782.1,512.008)" d="M31.5,-8.09375 C29.7031,-11.4063 25.9063,-13.2031 21.2969,-13.2031 C17.9063,-13.2031 14.2031,-12.2031 10.5938,-10.2969 C4,-6.79688 0,-0.90625 0,4.20313 C0,5.59375 0.296875,7 1,8.29688 C2.79688,11.5938 6.59375,13.2969 11.2031,13.2969 C14.5938,13.2969 18.2969,12.4063 21.9063,10.5 C28.5,7 32.5,1.09375 32.5,-4 C32.5,-5.40625 32.2031,-6.79688 31.5,-8.09375"/>
<path class="Note" transform="matrix(2.35276,0,0,2.35276,2039.71,512.008)" d="M31.5,-8.09375 C29.7031,-11.4063 25.9063,-13.2031 21.2969,-13.2031 C17.9063,-13.2031 14.2031,-12.2031 10.5938,-10.2969 C4,-6.79688 0,-0.90625 0,4.20313 C0,5.59375 0.296875,7 1,8.29688 C2.79688,11.5938 6.59375,13.2969 11.2031,13.2969 C14.5938,13.2969 18.2969,12.4063 21.9063,10.5 C28.5,7 32.5,1.09375 32.5,-4 C32.5,-5.40625 32.2031,-6.79688 31.5,-8.09375"/>
<path class="Note" transform="matrix(2.35276,0,0,2.35276,2166.52,482.598)" d="M31.5,-8.09375 C29.7031,-11.4063 25.9063,-13.2031 21.2969,-13.2031 C17.9063,-13.2031 14.2031,-12.2031 10.5938,-10.2969 C4,-6.79688 0,-0.90625 0,4.20313 C0,5.59375 0.296875,7 1,8.29688 C2.79688,11.5938 6.59375,13.2969 11.2031,13.2969 C14.5938,13.2969 18.2969,12.4063 21.9063,10.5 C28.5,7 32.5,1.09375 32.5,-4 C32.5,-5.40625 32.2031,-6.79688 31.5,-8.09375"/>
<path class="Note" transform="matrix(2.35276,0,0,2.35276,2257.67,512.008)" d="M31.5,-8.09375 C29.7031,-11.4063 25.9063,-13.2031 21.2969,-13.2031 C17.9063,-13.2031 14.2031,-12.2031 10.5938,-10.2969 C4,-6.79688 0,-0.90625 0,4.20313 C0,5.59375 0.296875,7 1,8.29688 C2.79688,11.5938 6.59375,13.2969 11.2031,13.2969 C14.5938,13.2969 18.2969,12.4063 21.9063,10.5 C28.5,7 32.5,1.09375 32.5,-4 C32.5,-5.40625 32.2031,-6.79688 31.5,-8.09375"/>
<path class="Note" transform="matrix(2.35276,0,0,2.35276,2515.28,541.417)" d="M31.5,-8.09375 C29.7031,-11.4063 25.9063,-13.2031 21.2969,-13.2031 C17.9063,-13.2031 14.2031,-12.2031 10.5938,-10.2969 C4,-6.79688 0,-0.90625 0,4.20313 C0,5.59375 0.296875,7 1,8.29688 C2.79688,11.5938 6.59375,13.2969 11.2031,13.2969 C14.5938,13.2969 18.2969,12.4063 21.9063,10.5 C28.5,7 32.5,1.09375 32.5,-4 C32.5,-5.40625 32.2031,-6.79688 31.5,-8.09375"/>
<path class="Note" transform="matrix(2.35276,0,0,2.35276,2632.97,541.417)" d="M31.5,-8.09375 C29.7031,-11.4063 25.9063,-13.2031 21.2969,-13.2031 C17.9063,-13.2031 14.2031,-12.2031 10.5938,-10.2969 C4,-6.79688 0,-0.90625 0,4.20313 C0,5.59375 0.296875,7 1,8.29688 C2.79688,11.5938 6.59375,13.2969 11.2031,13.2969 C14.5938,13.2969 18.2969,12.4063 21.9063,10.5 C28.5,7 32.5,1.09375 32.5,-4 C32.5,-5.40625 32.2031,-6.79688 31.5,-8.09375"/>
<path class="Note" transform="matrix(2.35276,0,0,2.35276,2890.58,541.417)" d="M31.5,-8.09375 C29.7031,-11.4063 25.9063,-13.2031 21.2969,-13.2031 C17.9063,-13.2031 14.2031,-12.2031 10.5938,-10.2969 C4,-6.79688 0,-0.90625 0,4.20313 C0,5.59375 0.296875,7 1,8.29688 C2.79688,11.5938 6.59375,13.2969 11.2031,13.2969 C14.5938,13.2969 18.2969,12.4063 21.9063,10.5 C28.5,7 32.5,1.09375 32.5,-4 C32.5,-5.40625 32.2031,-6.79688 31.5,-8.09375"/>
<path class="Note" transform="matrix(2.35276,0,0,2.35276,3017.38,512.008)" d="M31.5,-8.09375 C29.7031,-11.4063 25.9063,-13.2031 21.2969,-13.2031 C17.9063,-13.2031 14.2031,-12.2031 10.5938,-10.2969 C4,-6.79688 0,-0.90625 0,4.20313 C0,5.59375 0.296875,7 1,8.29688 C2.79688,11.5938 6.59375,13.2969 11.2031,13.2969 C14.5938,13.2969 18.2969,12.4063 21.9063,10.5 C28.5,7 32.5,1.09375 32.5,-4 C32.5,-5.40625 32.2031,-6.79688 31.5,-8.09375"/>
<path class="Note" transform="matrix(2.35276,0,0,2.35276,3108.54,541.417)" d="M31.5,-8.09375 C29.7031,-11.4063 25.9063,-13.2031 21.2969,-13.2031 C17.9063,-13.2031 14.2031,-12.2031 10.5938,-10.2969 C4,-6.79688 0,-0.90625 0,4.20313 C0,5.59375 0.296875,7 1,8.29688 C2.79688,11.5938 6.59375,13.2969 11.2031,13.2969 C14.5938,13.2969 18.2969,12.4063 21.9063,10.5 C28.5,7 32.5,1.09375 32.5,-4 C32.5,-5.40625 32.2031,-6.79688 31.5,-8.09375"/>
<path class="Note" transform="matrix(2.35276,0,0,2.35276,3366.14,570.827)" d="M31.5,-8.09375 C29.7031,-11.4063 25.9063,-13.2031 21.2969,-13.2031 C17.9063,-13.2031 14.2031,-12.2031 10.5938,-10.2969 C4,-6.79688 0,-0.90625 0,4.20313 C0,5.59375 0.296875,7 1,8.29688 C2.79688,11.5938 6.59375,13.2969 11.2031,13.2969 C14.5938,13.2969 18.2969,12.4063 21.9063,10.5 C28.5,7 32.5,1.09375 32.5,-4 C32.5,-5.40625 32.2031,-6.79688 31.5,-8.09375"/>
<path class="Note" transform="matrix(2.35276,0,0,2.35276,3483.84,570.827)" d="M31.5,-8.09375 C29.7031,-11.4063 25.9063,-13.2031 21.2969,-13.2031 C17.9063,-13.2031 14.2031,-12.2031 10.5938,-10.2969 C4,-6.79688 0,-0.90625 0,4.20313 C0,5.59375 0.296875,7 1,8.29688 C2.79688,11.5938 6.59375,13.2969 11.2031,13.2969 C14.5938,13.2969 18.2969,12.4063 21.9063,10.5 C28.5,7 32.5,1.09375 32.5,-4 C32.5,-5.40625 32.2031,-6.79688 31.5,-8.09375"/>
<path class="Note" transform="matrix(2.35276,0,0,2.35276,3741.44,570.827)" d="M31.5,-8.09375 C29.7031,-11.4063 25.9063,-13.2031 21.2969,-13.2031 C17.9063,-13.2031 14.2031,-12.2031 10.5938,-10.2969 C4,-6.79688 0,-0.90625 0,4.20313 C0,5.59375 0.296875,7 1,8.29688 C2.79688,11.5938 6.59375,13.2969 11.2031,13.2969 C14.5938,13.2969 18.2969,12.4063 21.9063,10.5 C28.5,7 32.5,1.09375 32.5,-4 C32.5,-5.40625 32.2031,-6.79688 31.5,-8.09375"/>
<path class="Note" transform="matrix(2.35276,0,0,2.35276,3868.25,629.646)" d="M31.5,-8.09375 C29.7031,-11.4063 25.9063,-13.2031 21.2969,-13.2031 C17.9063,-13.2031 14.2031,-12.2031 10.5938,-10.2969 C4,-6.79688 0,-0.90625 0,4.20313 C0,5.59375 0.296875,7 1,8.29688 C2.79688,11.5938 6.59375,13.2969 11.2031,13.2969 C14.5938,13.2969 18.2969,12.4063 21.9063,10.5 C28.5,7 32.5,1.09375 32.5,-4 C32.5,-5.40625 32.2031,-6.79688 31.5,-8.09375"/>
<path class="Note" transform="matrix(2.35276,0,0,2.35276,3959.4,629.646)" d="M31.5,-8.09375 C29.7031,-11.4063 25.9063,-13.2031 21.2969,-13.2031 C17.9063,-13.2031 14.2031,-12.2031 10.5938,-10.2969 C4,-6.79688 0,-0.90625 0,4.20313 C0,5.59375 0.296875,7 1,8.29688 C2.79688,11.5938 6.59375,13.2969 11.2031,13.2969 C14.5938,13.2969 18.2969,12.4063 21.9063,10.5 C28.5,7 32.5,1.09375 32.5,-4 C32.5,-5.40625 32.2031,-6.79688 31.5,-8.09375"/>
<path class="Note" transform="matrix(2.35276,0,0,2.35276,424.129,1600.16)" d="M31.5,-8.09375 C29.7031,-11.4063 25.9063,-13.2031 21.2969,-13.2031 C17.9063,-13.2031 14.2031,-12.2031 10.5938,-10.2969 C4,-6.79688 0,-0.90625 0,4.20313 C0,5.59375 0.296875,7 1,8.29688 C2.79688,11.5938 6.59375,13.2969 11.2031,13.2969 C14.5938,13.2969 18.2969,12.4063 21.9063,10.5 C28.5,7 32.5,1.09375 32.5,-4 C32.5,-5.40625 32.2031,-6.79688 31.5,-8.09375"/>
<path class="Note" transform="matrix(2.35276,0,0,2.35276,559.046,1600.16)" d="M31.5,-8.09375 C29.7031,-11.4063 25.9063,-13.2031 21.2969,-13.2031 C17.9063,-13.2031 14.2031,-12.2031 10.5938,-10.2969 C4,-6.79688 0,-0.90625 0,4.20313 C0,5.59375 0.296875,7 1,8.29688 C2.79688,11.5938 6.59375,13.2969 11.2031,13.2969 C14.5938,13.2969 18.2969,12.4063 21.9063,10.5 C28.5,7 32.5,1.09375 32.5,-4 C32.5,-5.40625 32.2031,-6.79688 31.5,-8.09375"/>
<path class="Note" transform="matrix(2.35276,0,0,2.35276,816.655,1600.16)" d="M31.5,-8.09375 C29.7031,-11.4063 25.9063,-13.2031 21.2969,-13.2031 C17.9063,-13.2031 14.2031,-12.2031 10.5938,-10.2969 C4,-6.79688 0,-0.90625 0,4.20313 C0,5.59375 0.296875,7 1,8.29688 C2.79688,11.5938 6.59375,13.2969 11.2031,13.2969 C14.5938,13.2969 18.2969,12.4063 21.9063,10.5 C28.5,7 32.5,1.09375 32.5,-4 C32.5,-5.40625 32.2031,-6.79688 31.5,-8.09375"/>
<path class="Note" transform="matrix(2.35276,0,0,2.35276,960.688,1570.75)" d="M31.5,-8.09375 C29.7031,-11.4063 25.9063,-13.2031 21.2969,-13.2031 C17.9063,-13.2031 14.2031,-12.2031 10.5938,-10.2969 C4,-6.79688 0,-0.90625 0,4.20313 C0,5.59375 0.296875,7 1,8.29688 C2.79688,11.5938 6.59375,13.2969 11.2031,13.2969 C14.5938,13.2969 18.2969,12.4063 21.9063,10.5 C28.5,7 32.5,1.09375 32.5,-4 C32.5,-5.40625 32.2031,-6.79688 31.5,-8.09375"/>
<path class="Note" transform="matrix(2.35276,0,0,2.35276,1051.84,1600.16)" d="M31.5,-8.09375 C29.7031,-11.4063 25.9063,-13.2031 21.2969,-13.2031 C17.9063,-13.2031 14.2031,-12.2031 10.5938,-10.2969 C4,-6.79688 0,-0.90625 0,4.20313 C0,5.59375 0.296875,7 1,8.29688 C2.79688,11.5938 6.59375,13.2969 11.2031,13.2969 C14.5938,13.2969 18.2969,12.4063 21.9063,10.5 C28.5,7 32.5,1.09375 32.5,-4 C32.5,-5.40625 32.2031,-6.79688 31.5,-8.09375"/>
<path class="Note" transform="matrix(2.35276,0,0,2.35276,1309.45,1629.57)" d="M31.5,-8.09375 C29.7031,-11.4063 25.9063,-13.2031 21.2969,-13.2031 C17.9063,-13.2031 14.2031,-12.2031 10.5938,-10.2969 C4,-6.79688 0,-0.90625 0,4.20313 C0,5.59375 0.296875,7 1,8.29688 C2.79688,11.5938 6.59375,13.2969 11.2031,13.2969 C14.5938,13.2969 18.2969,12.4063 21.9063,10.5 C28.5,7 32.5,1.09375 32.5,-4 C32.5,-5.40625 32.2031,-6.79688 31.5,-8.09375"/>
<path class="Note" transform="matrix(2.35276,0,0,2.35276,1444.36,1629.57)" d="M31.5,-8.09375 C29.7031,-11.4063 25.9063,-13.2031 21.2969,-13.2031 C17.9063,-13.2031 14.2031,-12.2031 10.5938,-10.2969 C4,-6.79688 0,-0.90625 0,4.20313 C0,5.59375 0.296875,7 1,8.29688 C2.79688,11.5938 6.59375,13.2969 11.2031,13.2969 C14.5938,13.2969 18.2969,12.4063 21.9063,10.5 C28.5,7 32.5,1.09375 32.5,-4 C32.5,-5.40625 32.2031,-6.79688 31.5,-8.09375"/>
<path class="Note" transform="matrix(2.35276,0,0,2.35276,1701.97,1629.57)" d="M31.5,-8.09375 C29.7031,-11.4063 25.9063,-13.2031 21.2969,-13.2031 C17.9063,-13.2031 14.2031,-12.2031 10.5938,-10.2969 C4,-6.79688 0,-0.90625 0,4.20313 C0,5.59375 0.296875,7 1,8.29688 C2.79688,11.5938 6.59375,13.2969 11.2031,13.2969 C14.5938,13.2969 18.2969,12.4063 21.9063,10.5 C28.5,7 32.5,1.09375 32.5,-4 C32.5,-5.40625 32.2031,-6.79688 31.5,-8.09375"/>
<path class="Note" transform="matrix(2.35276,0,0,2.35276,1846.01,1688.39)" d="M31.5,-8.09375 C29.7031,-11.4063 25.9063,-13.2031 21.2969,-13.2031 C17.9063,-13.2031 14.2031,-12.2031 10.5938,-10.2969 C4,-6.79688 0,-0.90625 0,4.20313 C0,5.59375 0.296875,7 1,8.29688 C2.79688,11.5938 6.59375,13.2969 11.2031,13.2969 C14.5938,13.2969 18.2969,12.4063 21.9063,10.5 C28.5,7 32.5,1.09375 32.5,-4 C32.5,-5.40625 32.2031,-6.79688 31.5,-8.09375"/>
<path class="Note" transform="matrix(2.35276,0,0,2.35276,1937.16,1658.98)" d="M31.5,-8.09375 C29.7031,-11.4063 25.9063,-13.2031 21.2969,-13.2031 C17.9063,-13.2031 14.2031,-12.2031 10.5938,-10.2969 C4,-6.79688 0,-0.90625 0,4.20313 C0,5.59375 0.296875,7 1,8.29688 C2.79688,11.5938 6.59375,13.2969 11.2031,13.2969 C14.5938,13.2969 18.2969,12.4063 21.9063,10.5 C28.5,7 32.5,1.09375 32.5,-4 C32.5,-5.40625 32.2031,-6.79688 31.5,-8.09375"/>
<path class="Note" transform="matrix(2.35276,0,0,2.35276,2194.77,1629.57)" d="M31.5,-8.09375 C29.7031,-11.4063 25.9063,-13.2031 21.2969,-13.2031 C17.9063,-13.2031 14.2031,-12.2031 10.5938,-10.2969 C4,-6.79688 0,-0.90625 0,4.20313 C0,5.59375 0.296875,7 1,8.29688 C2.79688,11.5938 6.59375,13.2969 11.2031,13.2969 C14.5938,13.2969 18.2969,12.4063 21.9063,10.5 C28.5,7 32.5,1.09375 32.5,-4 C32.5,-5.40625 32.2031,-6.79688 31.5,-8.09375"/>
<path class="Note" transform="matrix(2.35276,0,0,2.35276,2338.8,1688.39)" d="M31.5,-8.09375 C29.7031,-11.4063 25.9063,-13.2031 21.2969,-13.2031 C17.9063,-13.2031 14.2031,-12.2031 10.5938,-10.2969 C4,-6.79688 0,-0.90625 0,4.20313 C0,5.59375 0.296875,7 1,8.29688 C2.79688,11.5938 6.59375,13.2969 11.2031,13.2969 C14.5938,13.2969 18.2969,12.4063 21.9063,10.5 C28.5,7 32.5,1.09375 32.5,-4 C32.5,-5.40625 32.2031,-6.79688 31.5,-8.09375"/>
<path class="Note" transform="matrix(2.35276,0,0,2.35276,2429.95,1658.98)" d="M31.5,-8.09375 C29.7031,-11.4063 25.9063,-13.2031 21.2969,-13.2031 C17.9063,-13.2031 14.2031,-12.2031 10.5938,-10.2969 C4,-6.79688 0,-0.90625 0,4.20313 C0,5.59375 0.296875,7 1,8.29688 C2.79688,11.5938 6.59375,13.2969 11.2031,13.2969 C14.5938,13.2969 18.2969,12.4063 21.9063,10.5 C28.5,7 32.5,1.09375 32.5,-4 C32.5,-5.40625 32.2031,-6.79688 31.5,-8.09375"/>
<path class="Note" transform="matrix(2.35276,0,0,2.35276,2687.56,1629.57)" d="M31.5,-8.09375 C29.7031,-11.4063 25.9063,-13.2031 21.2969,-13.2031 C17.9063,-13.2031 14.2031,-12.2031 10.5938,-10.2969 C4,-6.79688 0,-0.90625 0,4.20313 C0,5.59375 0.296875,7 1,8.29688 C2.79688,11.5938 6.59375,13.2969 11.2031,13.2969 C14.5938,13.2969 18.2969,12.4063 21.9063,10.5 C28.5,7 32.5,1.09375 32.5,-4 C32.5,-5.40625 32.2031,-6.79688 31.5,-8.09375"/>
<path class="Note" transform="matrix(2.35276,0,0,2.35276,2799.37,1658.98)" d="M31.5,-8.09375 C29.7031,-11.4063 25.9063,-13.2031 21.2969,-13.2031 C17.9063,-13.2031 14.2031,-12.2031 10.5938,-10.2969 C4,-6.79688 0,-0.90625 0,4.20313 C0,5.59375 0.296875,7 1,8.29688 C2.79688,11.5938 6.59375,13.2969 11.2031,13.2969 C14.5938,13.2969 18.2969,12.4063 21.9063,10.5 C28.5,7 32.5,1.09375 32.5,-4 C32.5,-5.40625 32.2031,-6.79688 31.5,-8.09375"/>
<path class="Note" transform="matrix(2.35276,0,0,2.35276,2911.19,1688.39)" d="M31.5,-8.09375 C29.7031,-11.4063 25.9063,-13.2031 21.2969,-13.2031 C17.9063,-13.2031 14.2031,-12.2031 10.5938,-10.2969 C4,-6.79688 0,-0.90625 0,4.20313 C0,5.59375 0.296875,7 1,8.29688 C2.79688,11.5938 6.59375,13.2969 11.2031,13.2969 C14.5938,13.2969 18.2969,12.4063 21.9063,10.5 C28.5,7 32.5,1.09375 32.5,-4 C32.5,-5.40625 32.2031,-6.79688 31.5,-8.09375"/>
<path class="Note" transform="matrix(2.35276,0,0,2.35276,3023.01,1717.8)" d="M31.5,-8.09375 C29.7031,-11.4063 25.9063,-13.2031 21.2969,-13.2031 C17.9063,-13.2031 14.2031,-12.2031 10.5938,-10.2969 C4,-6.79688 0,-0.90625 0,4.20313 C0,5.59375 0.296875,7 1,8.29688 C2.79688,11.5938 6.59375,13.2969 11.2031,13.2969 C14.5938,13.2969 18.2969,12.4063 21.9063,10.5 C28.5,7 32.5,1.09375 32.5,-4 C32.5,-5.40625 32.2031,-6.79688 31.5,-8.09375"/>
<path class="Note" transform="matrix(2.35276,0,0,2.35276,3280.62,1747.2)" d="M31.5,-8.09375 C29.7031,-11.4063 25.9063,-13.2031 21.2969,-13.2031 C17.9063,-13.2031 14.2031,-12.2031 10.5938,-10.2969 C4,-6.79688 0,-0.90625 0,4.20313 C0,5.59375 0.296875,7 1,8.29688 C2.79688,11.5938 6.59375,13.2969 11.2031,13.2969 C14.5938,13.2969 18.2969,12.4063 21.9063,10.5 C28.5,7 32.5,1.09375 32.5,-4 C32.5,-5.40625 32.2031,-6.79688 31.5,-8.09375"/>
<path class="Note" transform="matrix(2.35276,0,0,2.35276,3415.53,1541.34)" d="M31.5,-8.09375 C29.7031,-11.4063 25.9063,-13.2031 21.2969,-13.2031 C17.9063,-13.2031 14.2031,-12.2031 10.5938,-10.2969 C4,-6.79688 0,-0.90625 0,4.20313 C0,5.59375 0.296875,7 1,8.29688 C2.79688,11.5938 6.59375,13.2969 11.2031,13.2969 C14.5938,13.2969 18.2969,12.4063 21.9063,10.5 C28.5,7 32.5,1.09375 32.5,-4 C32.5,-5.40625 32.2031,-6.79688 31.5,-8.09375"/>
<path class="Note" transform="matrix(2.35276,0,0,2.35276,3673.14,1747.2)" d="M31.5,-8.09375 C29.7031,-11.4063 25.9063,-13.2031 21.2969,-13.2031 C17.9063,-13.2031 14.2031,-12.2031 10.5938,-10.2969 C4,-6.79688 0,-0.90625 0,4.20313 C0,5.59375 0.296875,7 1,8.29688 C2.79688,11.5938 6.59375,13.2969 11.2031,13.2969 C14.5938,13.2969 18.2969,12.4063 21.9063,10.5 C28.5,7 32.5,1.09375 32.5,-4 C32.5,-5.40625 32.2031,-6.79688 31.5,-8.09375"/>
<path class="Clef" transform="matrix(2.35276,0,0,2.35276,120.862,541.417)" d="M25.4063,-25.0938 C17.7969,-25.0938 11.7031,-20.7031 11.5938,-20.7031 C5.79688,-16.4063 3.5,-11.2969 2.59375,-7.79688 C2.09375,-6 1.90625,-4.20313 1.90625,-2.5 C1.90625,-0.09375 2.29688,2.09375 3.20313,4 C4.40625,6.70313 6.70313,8.59375 9.70313,9.59375 C10.9063,10 12.2031,10.2031 13.5,10.2031 C15.7031,10.2031 18,9.59375 19.9063,8.5 C23,6.79688 24.9063,3.20313 24.9063,-0.703125 C24.9063,-4.20313 23.0938,-7.40625 20.0938,-9.29688 C18,-10.7031 16,-11.0938 14.2969,-11.0938 C13.0938,-11.0938 12,-10.9063 11.0938,-10.5938 C10.0938,-10.2031 8.40625,-9.20313 7.59375,-8.5 C7.90625,-10.4063 9.09375,-13.2969 10.2031,-14.9063 C11.2969,-16.5 13.5,-18.5 15.2031,-19.4063 C17.7031,-20.7969 20.9063,-21.4063 24.4063,-21.4063 C34.6094,-21.4063 39.6094,-13.2031 39.6094,3.59375 C39.6094,12.9063 36.1094,21.7969 33.1094,27.7031 C29.7969,34.2969 25.4063,40.6094 21.5,44.1094 C11.0938,53.6094 1.29688,58.1094 1.20313,58.1094 C1.20313,58.1094 -0.296875,59 0.09375,60.5 C0.40625,61.5 1.29688,61.7031 1.90625,61.7031 C2,61.7031 2.29688,61.6094 2.40625,61.6094 C2.5,61.6094 13.9063,56.9063 23,49.7969 C28.1094,46.1094 32.7031,42.1094 36.7031,37.7969 C40.2969,33.9063 43.4063,29.7031 45.9063,25.5 C50.2969,18 52.7969,10.2031 52.7969,3.5 C52.7969,-4.79688 50.6094,-11.7031 46.5,-16.5938 C41.7969,-22.2031 34.7031,-25.0938 25.4063,-25.0938 M56.7969,-12.4063 C56.7969,-9.59375 59,-7.40625 61.6094,-7.40625 C64.2031,-7.40625 66.4063,-9.59375 66.4063,-12.4063 C66.4063,-15.2031 64.2031,-17.5 61.6094,-17.5 C59,-17.5 56.7969,-15.2031 56.7969,-12.4063 M56.7969,12.2969 C56.7969,15.0938 59,17.4063 61.6094,17.4063 C64.2031,17.4063 66.4063,15.0938 66.4063,12.2969 C66.4063,9.5 64.2031,7.20313 61.6094,7.20313 C59,7.20313 56.7969,9.5 56.7969,12.2969"/>
<path class="Clef" transform="matrix(2.35276,0,0,2.35276,117.921,1658.98)" d="M25.4063,-25.0938 C17.7969,-25.0938 11.7031,-20.7031 11.5938,-20.7031 C5.79688,-16.4063 3.5,-11.2969 2.59375,-7.79688 C2.09375,-6 1.90625,-4.20313 1.90625,-2.5 C1.90625,-0.09375 2.29688,2.09375 3.20313,4 C4.40625,6.70313 6.70313,8.59375 9.70313,9.59375 C10.9063,10 12.2031,10.2031 13.5,10.2031 C15.7031,10.2031 18,9.59375 19.9063,8.5 C23,6.79688 24.9063,3.20313 24.9063,-0.703125 C24.9063,-4.20313 23.0938,-7.40625 20.0938,-9.29688 C18,-10.7031 16,-11.0938 14.2969,-11.0938 C13.0938,-11.0938 12,-10.9063 11.0938,-10.5938 C10.0938,-10.2031 8.40625,-9.20313 7.59375,-8.5 C7.90625,-10.4063 9.09375,-13.2969 10.2031,-14.9063 C11.2969,-16.5 13.5,-18.5 15.2031,-19.4063 C17.7031,-20.7969 20.9063,-21.4063 24.4063,-21.4063 C34.6094,-21.4063 39.6094,-13.2031 39.6094,3.59375 C39.6094,12.9063 36.1094,21.7969 33.1094,27.7031 C29.7969,34.2969 25.4063,40.6094 21.5,44.1094 C11.0938,53.6094 1.29688,58.1094 1.20313,58.1094 C1.20313,58.1094 -0.296875,59 0.09375,60.5 C0.40625,61.5 1.29688,61.7031 1.90625,61.7031 C2,61.7031 2.29688,61.6094 2.40625,61.6094 C2.5,61.6094 13.9063,56.9063 23,49.7969 C28.1094,46.1094 32.7031,42.1094 36.7031,37.7969 C40.2969,33.9063 43.4063,29.7031 45.9063,25.5 C50.2969,18 52.7969,10.2031 52.7969,3.5 C52.7969,-4.79688 50.6094,-11.7031 46.5,-16.5938 C41.7969,-22.2031 34.7031,-25.0938 25.4063,-25.0938 M56.7969,-12.4063 C56.7969,-9.59375 59,-7.40625 61.6094,-7.40625 C64.2031,-7.40625 66.4063,-9.59375 66.4063,-12.4063 C66.4063,-15.2031 64.2031,-17.5 61.6094,-17.5 C59,-17.5 56.7969,-15.2031 56.7969,-12.4063 M56.7969,12.2969 C56.7969,15.0938 59,17.4063 61.6094,17.4063 C64.2031,17.4063 66.4063,15.0938 66.4063,12.2969 C66.4063,9.5 64.2031,7.20313 61.6094,7.20313 C59,7.20313 56.7969,9.5 56.7969,12.2969"/>
<path class="TimeSig" transform="matrix(2.35276,0,0,2.35276,343.363,542.594)" d="M34.2031,3.90625 C33.4063,6.09375 31.4063,13.2969 26.5,13.2969 C20,13.2969 18.5938,9.29688 13.2031,9.29688 C12.4063,9.29688 11.5938,9.40625 10.5938,9.59375 C10.5938,9.59375 13.0938,5.79688 23.7031,2.5 C34.2969,-0.796875 37,-6 37,-12 C37,-16.2031 35.1094,-24.5 20,-24.5 C4.90625,-24.5 2.09375,-15.4063 2.09375,-10.7969 C2.09375,-6.70313 5.5,-3.40625 9.59375,-3.40625 C13.7031,-3.40625 17,-6.70313 17,-10.7969 C17,-13.5938 15,-16.7031 12.4063,-17.7031 C12.0938,-17.7969 11.7031,-18.2969 11.7031,-18.7969 C11.7031,-19.4063 12.2031,-20.0938 14,-20.5938 C14.5,-20.7969 15.9063,-21.0938 17.4063,-21.0938 C18.7969,-21.0938 20.4063,-20.7969 21.5938,-20 C23.5,-18.7969 24.2031,-17 24.2031,-12.5 C24.2031,-0.796875 10.2969,1.70313 4.5,10.4063 C4.5,10.4063 1.5,14.5938 1.5,19.2969 C1.5,24 3.90625,24.2969 5.09375,24.2969 C6.70313,24.2969 8.40625,23 8.40625,21.2031 C8.40625,20.7969 8.29688,20.4063 8.09375,19.9063 C7.5,18.5 7.29688,17.4063 7.29688,16.5938 C7.29688,16.2969 7.29688,16 7.40625,15.7031 C7.5,15.0938 8.29688,14.0938 10.7031,14.0938 C13.5938,14.0938 14.7031,17.5 16.5,20.0938 C18.2969,22.7031 21.0938,24.2969 24.2969,24.2969 C27.5,24.2969 31.7969,22 33.6094,18.2969 C35.4063,14.5938 37.7031,7.09375 37.7031,4.40625 C37.7031,3.09375 36.9063,2.5 36,2.5 C35.2969,2.5 34.6094,2.90625 34.2031,3.90625"/>
<path class="TimeSig" transform="matrix(2.35276,0,0,2.35276,335.606,658.743)" d="M3.59375,12.625 L20.7656,12.625 L20.7656,20.0781 L12.5469,20.0781 C11.7656,20.0781 11.125,20.7031 11.125,21.4844 L11.125,23.3906 C11.125,24.1719 11.7656,24.7969 12.5469,24.7969 L42.7969,24.7969 C43.5781,24.7969 44.2031,24.1719 44.2031,23.3906 L44.2031,21.4844 C44.2031,20.7031 43.5781,20.0781 42.7969,20.0781 L33.8594,20.0781 L33.8594,12.625 L42.7969,12.625 C43.5781,12.625 44.2031,12 44.2031,11.2188 L44.2031,9.3125 C44.2031,8.53125 43.5781,7.90625 42.7969,7.90625 L33.8594,7.90625 L33.8594,-8.0625 C33.8594,-8.59375 33.5469,-9.07813 33.0781,-9.3125 L31.8594,-9.92188 C31.3281,-10.1719 30.7031,-10.0781 30.2656,-9.6875 L21.2188,-1.375 C20.9375,-1.09375 20.7656,-0.734375 20.7656,-0.328125 L20.7656,7.90625 L9.25,7.90625 C9.25,7.90625 20.375,-4.125 32.2188,-19.8906 C33.0781,-21.0469 32.5781,-22.0938 32.3906,-22.2813 L30.2188,-24.4844 C29.9531,-24.75 29.5938,-24.9063 29.2188,-24.9063 C28.625,-24.9063 15.0625,-24.875 14.3438,-24.9063 C13.625,-24.9219 13.0938,-24.2969 13.0156,-23.6875 C13.0156,-23.6875 12.4844,-16.3281 9.875,-8.1875 C7.28125,-0.078125 4.34375,4.90625 1.6875,8.53125 C1.6875,8.53125 1.14063,9.51563 1.5,10.2656 C1.84375,11.0156 2.48438,12.0938 2.48438,12.0938 C2.48438,12.0938 2.73438,12.625 3.59375,12.625"/>
<path class="Rest" transform="matrix(2.35276,0,0,2.35276,3866.27,1717.8)" d="M26.7344,-20.2656 C25.9844,-20.5469 25.3125,-20.2031 24.9844,-19.5938 C24.6563,-18.9844 21.4688,-13.0625 17.0469,-9.79688 C15.6563,-8.78125 14.0625,-8.14063 12.5,-7.8125 C13.625,-9.0625 14.2969,-10.7344 14.2969,-12.5469 C14.2969,-16.5 11.0938,-19.7031 7.15625,-19.7031 C3.20313,-19.7031 0,-16.5 0,-12.5469 C0,-9.54688 1.875,-6.95313 4.51563,-5.90625 C6.04688,-5.1875 7.95313,-4.73438 10,-4.73438 C12.8438,-4.73438 15.9531,-5.5625 18.6719,-7.5625 C19.9375,-8.48438 21.125,-9.6875 22.2031,-10.9375 L10.8125,24.6875 L13.4531,25.5469 L27.5313,-18.5469 C27.7656,-19.2813 27.4688,-19.9688 26.7344,-20.2656"/>
<path class="Beam" fill-rule="evenodd" d="M1088.58,747.143 L1201.12,762.744 L1201.12,792.435 L1088.58,776.833 L1088.58,747.143 "/>
<path class="Beam" fill-rule="evenodd" d="M1300.72,717.733 L1413.27,702.132 L1413.27,731.822 L1300.72,747.424 L1300.72,717.733 "/>
<path class="Beam" fill-rule="evenodd" d="M2166.52,644.16 L2264.14,659.909 L2264.14,689.698 L2166.52,673.95 L2166.52,644.16 "/>
<path class="Beam" fill-rule="evenodd" d="M3017.38,688.274 L3115.01,704.023 L3115.01,733.812 L3017.38,718.064 L3017.38,688.274 "/>
<path class="Beam" fill-rule="evenodd" d="M3868.25,712.198 L3965.87,712.198 L3965.87,741.607 L3868.25,741.607 L3868.25,712.198 "/>
<path class="Beam" fill-rule="evenodd" d="M960.688,1747.01 L1058.31,1762.76 L1058.31,1792.55 L960.688,1776.8 L960.688,1747.01 "/>
<path class="Beam" fill-rule="evenodd" d="M1846.01,1835.24 L1943.63,1819.49 L1943.63,1849.28 L1846.01,1865.03 L1846.01,1835.24 "/>
<path class="Beam" fill-rule="evenodd" d="M2338.8,1835.24 L2436.42,1819.49 L2436.42,1849.28 L2338.8,1865.03 L2338.8,1835.24 "/>
<path class="Beam" fill-rule="evenodd" d="M2687.56,1805.9 L2805.84,1821.45 L2805.84,1851.12 L2687.56,1835.56 L2687.56,1805.9 "/>
<path class="Beam" fill-rule="evenodd" d="M2911.19,1864.72 L3029.48,1880.27 L3029.48,1909.93 L2911.19,1894.38 L2911.19,1864.72 "/>
<path class="Hook" transform="matrix(2.35276,0,0,2.35276,830.967,747.283)" d="M2.5,0.40625 C2.5,0.203125 3.40625,-3.20313 3.5,-3.5 C3.59375,-3.90625 5.40625,-9.59375 9.09375,-15.2969 C11.7969,-19.5 21.2969,-31.7969 21,-31.7969 C21,-31.7969 28.4063,-41.2969 28.9063,-54.2031 L28.9063,-56.5 C28.9063,-62.6094 28.1094,-71.2031 24.5938,-79.9063 C24.2031,-80.9063 23.7969,-81.9063 22.7031,-81.5 C21.5938,-81.1094 21.9063,-79.9063 22.2031,-78.8125 C24,-71.7969 25,-64.6094 25,-57.4063 C25,-49 22,-44.7969 20.2031,-41.7031 C13.5938,-30.6094 5,-25.2031 0.796875,-23.7969 C0.296875,-23.5938 0,-23.2031 0,-22.7031 L0,-16.5 L0,-0.09375 C0,0.59375 0.59375,1.20313 1.29688,1.20313 C1.79688,1.20313 2.40625,0.796875 2.5,0.40625"/>
<path class="StaffText" d="M715.829,128.318 L655.986,211.568 L655.986,221.427 L705.439,221.427 L705.439,230.583 C705.439,239.552 705.439,239.912 704.392,241.49 C702.986,243.427 699.642,243.958 689.611,243.958 L687.673,243.958 L687.673,252.224 L739.064,252.224 L739.064,243.958 L738.361,243.958 C728.329,243.958 724.986,243.427 723.579,241.49 C722.517,239.912 722.517,239.724 722.517,230.583 L722.517,221.427 L743.814,221.427 L743.814,211.568 L722.517,211.568 L722.517,163.521 C722.517,141.521 722.517,140.99 723.392,128.318 L715.829,128.318 M705.439,211.568 L666.72,211.568 L705.439,158.24 L705.439,211.568 "/>
<path class="StaffText" d="M870.639,177.334 C864.654,184.553 848.467,190.006 832.264,190.365 L832.264,197.928 L847.764,197.928 C857.967,198.1 859.029,199.162 858.67,209.021 L858.67,279.6 C858.67,288.568 858.67,288.928 857.607,290.506 C856.201,292.271 852.857,292.975 843.014,292.975 L831.561,292.975 L831.561,301.24 L901.264,301.24 L901.264,292.975 L891.576,292.975 C881.732,292.975 878.389,292.271 876.967,290.506 C875.748,288.928 875.748,288.74 875.748,279.6 L875.748,206.912 C875.748,197.053 876.092,188.787 876.967,177.334 L870.639,177.334 "/>
<path class="StaffText" d="M1171.45,287.732 L1163.72,287.732 L1161.95,296.701 C1159.65,308.154 1158.25,309.201 1147.34,309.201 L1107.92,309.201 C1120.06,296.529 1124.11,292.841 1135.37,284.045 C1151.39,271.716 1158.25,265.56 1162.29,260.279 C1167.93,252.529 1170.75,244.795 1170.75,236.17 C1170.75,216.107 1154.2,201.841 1131.15,201.841 C1108.79,201.841 1091.73,216.107 1091.73,234.935 C1091.73,246.029 1097.36,253.591 1105.64,253.591 C1112.14,253.591 1116.54,249.185 1116.54,242.857 C1116.54,238.451 1114.08,234.404 1110.39,232.826 C1103.87,230.185 1103.51,229.826 1103.51,227.545 C1103.51,224.904 1105.28,220.857 1107.75,217.857 C1112.14,212.404 1119.36,209.42 1127.64,209.42 C1142.23,209.42 1150.86,218.388 1150.86,233.17 C1150.86,246.201 1144.7,257.982 1130.09,273.482 C1117.08,287.201 1108.98,295.826 1105.98,299.17 C1099.65,306.56 1096.48,310.607 1088.73,320.826 L1088.73,325.748 L1168.11,325.748 L1171.45,287.732 "/>
<path class="StaffText" d="M1255.42,250.858 L1195.57,334.108 L1195.57,343.967 L1245.02,343.967 L1245.02,353.123 C1245.02,362.092 1245.02,362.451 1243.98,364.029 C1242.57,365.967 1239.23,366.498 1229.2,366.498 L1227.26,366.498 L1227.26,374.764 L1278.65,374.764 L1278.65,366.498 L1277.95,366.498 C1267.92,366.498 1264.57,365.967 1263.17,364.029 C1262.1,362.451 1262.1,362.264 1262.1,353.123 L1262.1,343.967 L1283.4,343.967 L1283.4,334.108 L1262.1,334.108 L1262.1,286.061 C1262.1,264.061 1262.1,263.529 1262.98,250.858 L1255.42,250.858 M1245.02,334.108 L1206.31,334.108 L1245.02,280.779 L1245.02,334.108 "/>
<path class="StaffText" d="M1383.6,287.732 L1375.87,287.732 L1374.1,296.701 C1371.8,308.154 1370.4,309.201 1359.49,309.201 L1320.07,309.201 C1332.21,296.529 1336.26,292.841 1347.52,284.045 C1363.54,271.716 1370.4,265.56 1374.44,260.279 C1380.08,252.529 1382.9,244.795 1382.9,236.17 C1382.9,216.107 1366.35,201.841 1343.3,201.841 C1320.94,201.841 1303.88,216.107 1303.88,234.935 C1303.88,246.029 1309.51,253.591 1317.79,253.591 C1324.29,253.591 1328.69,249.185 1328.69,242.857 C1328.69,238.451 1326.22,234.404 1322.54,232.826 C1316.02,230.185 1315.66,229.826 1315.66,227.545 C1315.66,224.904 1317.43,220.857 1319.9,217.857 C1324.29,212.404 1331.51,209.42 1339.79,209.42 C1354.38,209.42 1363.01,218.388 1363.01,233.17 C1363.01,246.201 1356.85,257.982 1342.24,273.482 C1329.22,287.201 1321.13,295.826 1318.13,299.17 C1311.8,306.56 1308.63,310.607 1300.88,320.826 L1300.88,325.748 L1380.26,325.748 L1383.6,287.732 "/>
<path class="StaffText" d="M1446.47,177.334 C1440.49,184.553 1424.3,190.006 1408.1,190.365 L1408.1,197.928 L1423.6,197.928 C1433.8,198.1 1434.86,199.162 1434.5,209.021 L1434.5,279.6 C1434.5,288.568 1434.5,288.928 1433.44,290.506 C1432.03,292.271 1428.69,292.975 1418.85,292.975 L1407.39,292.975 L1407.39,301.24 L1477.1,301.24 L1477.1,292.975 L1467.41,292.975 C1457.57,292.975 1454.22,292.271 1452.8,290.506 C1451.58,288.928 1451.58,288.74 1451.58,279.6 L1451.58,206.912 C1451.58,197.053 1451.92,188.787 1452.8,177.334 L1446.47,177.334 "/>
<path class="StaffText" d="M1725.17,128.318 L1665.33,211.568 L1665.33,221.427 L1714.78,221.427 L1714.78,230.583 C1714.78,239.552 1714.78,239.912 1713.74,241.49 C1712.33,243.427 1708.99,243.958 1698.95,243.958 L1697.02,243.958 L1697.02,252.224 L1748.41,252.224 L1748.41,243.958 L1747.7,243.958 C1737.67,243.958 1734.33,243.427 1732.92,241.49 C1731.86,239.912 1731.86,239.724 1731.86,230.583 L1731.86,221.427 L1753.16,221.427 L1753.16,211.568 L1731.86,211.568 L1731.86,163.521 C1731.86,141.521 1731.86,140.99 1732.74,128.318 L1725.17,128.318 M1714.78,211.568 L1676.06,211.568 L1714.78,158.24 L1714.78,211.568 "/>
<path class="StaffText" d="M1842.87,128.318 L1783.02,211.568 L1783.02,221.427 L1832.48,221.427 L1832.48,230.583 C1832.48,239.552 1832.48,239.912 1831.43,241.49 C1830.02,243.427 1826.68,243.958 1816.65,243.958 L1814.71,243.958 L1814.71,252.224 L1866.1,252.224 L1866.1,243.958 L1865.4,243.958 C1855.37,243.958 1852.02,243.427 1850.62,241.49 C1849.55,239.912 1849.55,239.724 1849.55,230.583 L1849.55,221.427 L1870.85,221.427 L1870.85,211.568 L1849.55,211.568 L1849.55,163.521 C1849.55,141.521 1849.55,140.99 1850.43,128.318 L1842.87,128.318 M1832.48,211.568 L1793.76,211.568 L1832.48,158.24 L1832.48,211.568 "/>
<path class="StaffText" d="M2100.47,128.318 L2040.63,211.568 L2040.63,221.427 L2090.08,221.427 L2090.08,230.583 C2090.08,239.552 2090.08,239.912 2089.04,241.49 C2087.63,243.427 2084.29,243.958 2074.26,243.958 L2072.32,243.958 L2072.32,252.224 L2123.71,252.224 L2123.71,243.958 L2123.01,243.958 C2112.97,243.958 2109.63,243.427 2108.22,241.49 C2107.16,239.912 2107.16,239.724 2107.16,230.583 L2107.16,221.427 L2128.46,221.427 L2128.46,211.568 L2107.16,211.568 L2107.16,163.521 C2107.16,141.521 2107.16,140.99 2108.04,128.318 L2100.47,128.318 M2090.08,211.568 L2051.37,211.568 L2090.08,158.24 L2090.08,211.568 "/>
<path class="StaffText" d="M2249.39,165.193 L2241.66,165.193 L2239.89,174.162 C2237.59,185.615 2236.19,186.662 2225.28,186.662 L2185.86,186.662 C2198,173.99 2202.05,170.302 2213.31,161.505 C2229.33,149.177 2236.19,143.021 2240.24,137.74 C2245.88,129.99 2248.69,122.255 2248.69,113.63 C2248.69,93.5679 2232.14,79.3023 2209.09,79.3023 C2186.74,79.3023 2169.67,93.5679 2169.67,112.396 C2169.67,123.49 2175.3,131.052 2183.58,131.052 C2190.08,131.052 2194.49,126.646 2194.49,120.318 C2194.49,115.912 2192.02,111.865 2188.33,110.287 C2181.81,107.646 2181.45,107.287 2181.45,105.005 C2181.45,102.365 2183.22,98.3179 2185.69,95.3179 C2190.08,89.8648 2197.3,86.8804 2205.58,86.8804 C2220.17,86.8804 2228.8,95.8491 2228.8,110.63 C2228.8,123.662 2222.64,135.443 2208.03,150.943 C2195.02,164.662 2186.92,173.287 2183.92,176.63 C2177.59,184.021 2174.42,188.068 2166.67,198.287 L2166.67,203.209 L2246.05,203.209 L2249.39,165.193 "/>
<path class="StaffText" d="M2318.43,128.318 L2258.59,211.568 L2258.59,221.427 L2308.04,221.427 L2308.04,230.583 C2308.04,239.552 2308.04,239.912 2307,241.49 C2305.59,243.427 2302.25,243.958 2292.21,243.958 L2290.28,243.958 L2290.28,252.224 L2341.67,252.224 L2341.67,243.958 L2340.96,243.958 C2330.93,243.958 2327.59,243.427 2326.18,241.49 C2325.12,239.912 2325.12,239.724 2325.12,230.583 L2325.12,221.427 L2346.42,221.427 L2346.42,211.568 L2325.12,211.568 L2325.12,163.521 C2325.12,141.521 2325.12,140.99 2326,128.318 L2318.43,128.318 M2308.04,211.568 L2269.32,211.568 L2308.04,158.24 L2308.04,211.568 "/>
<path class="StaffText" d="M2554.95,177.334 C2548.96,184.553 2532.78,190.006 2516.57,190.365 L2516.57,197.928 L2532.07,197.928 C2542.28,198.1 2543.34,199.162 2542.98,209.021 L2542.98,279.6 C2542.98,288.568 2542.98,288.928 2541.92,290.506 C2540.51,292.271 2537.17,292.975 2527.32,292.975 L2515.87,292.975 L2515.87,301.24 L2585.57,301.24 L2585.57,292.975 L2575.89,292.975 C2566.04,292.975 2562.7,292.271 2561.28,290.506 C2560.06,288.928 2560.06,288.74 2560.06,279.6 L2560.06,206.912 C2560.06,197.053 2560.4,188.787 2561.28,177.334 L2554.95,177.334 "/>
<path class="StaffText" d="M2672.64,177.334 C2666.66,184.553 2650.47,190.006 2634.27,190.365 L2634.27,197.928 L2649.77,197.928 C2659.97,198.1 2661.03,199.162 2660.67,209.021 L2660.67,279.6 C2660.67,288.568 2660.67,288.928 2659.61,290.506 C2658.2,292.271 2654.86,292.975 2645.02,292.975 L2633.56,292.975 L2633.56,301.24 L2703.27,301.24 L2703.27,292.975 L2693.58,292.975 C2683.73,292.975 2680.39,292.271 2678.97,290.506 C2677.75,288.928 2677.75,288.74 2677.75,279.6 L2677.75,206.912 C2677.75,197.053 2678.09,188.787 2678.97,177.334 L2672.64,177.334 "/>
<path class="StaffText" d="M2930.25,177.334 C2924.26,184.553 2908.08,190.006 2891.87,190.365 L2891.87,197.928 L2907.37,197.928 C2917.58,198.1 2918.64,199.162 2918.28,209.021 L2918.28,279.6 C2918.28,288.568 2918.28,288.928 2917.22,290.506 C2915.81,292.271 2912.47,292.975 2902.62,292.975 L2891.17,292.975 L2891.17,301.24 L2960.87,301.24 L2960.87,292.975 L2951.19,292.975 C2941.34,292.975 2938,292.271 2936.58,290.506 C2935.36,288.928 2935.36,288.74 2935.36,279.6 L2935.36,206.912 C2935.36,197.053 2935.7,188.787 2936.58,177.334 L2930.25,177.334 "/>
<path class="StaffText" d="M3078.15,128.318 L3018.31,211.568 L3018.31,221.427 L3067.76,221.427 L3067.76,230.583 C3067.76,239.552 3067.76,239.912 3066.71,241.49 C3065.31,243.427 3061.96,243.958 3051.93,243.958 L3049.99,243.958 L3049.99,252.224 L3101.38,252.224 L3101.38,243.958 L3100.68,243.958 C3090.65,243.958 3087.31,243.427 3085.9,241.49 C3084.84,239.912 3084.84,239.724 3084.84,230.583 L3084.84,221.427 L3106.13,221.427 L3106.13,211.568 L3084.84,211.568 L3084.84,163.521 C3084.84,141.521 3084.84,140.99 3085.71,128.318 L3078.15,128.318 M3067.76,211.568 L3029.04,211.568 L3067.76,158.24 L3067.76,211.568 "/>
<path class="StaffText" d="M3148.21,177.334 C3142.22,184.553 3126.04,190.006 3109.83,190.365 L3109.83,197.928 L3125.33,197.928 C3135.54,198.1 3136.6,199.162 3136.24,209.021 L3136.24,279.6 C3136.24,288.568 3136.24,288.928 3135.18,290.506 C3133.77,292.271 3130.43,292.975 3120.58,292.975 L3109.13,292.975 L3109.13,301.24 L3178.83,301.24 L3178.83,292.975 L3169.14,292.975 C3159.3,292.975 3155.96,292.271 3154.54,290.506 C3153.32,288.928 3153.32,288.74 3153.32,279.6 L3153.32,206.912 C3153.32,197.053 3153.66,188.787 3154.54,177.334 L3148.21,177.334 "/>
<path class="StaffText" d="M3449.02,287.732 L3441.28,287.732 L3439.52,296.701 C3437.22,308.154 3435.82,309.201 3424.91,309.201 L3385.49,309.201 C3397.63,296.529 3401.67,292.841 3412.94,284.045 C3428.96,271.716 3435.82,265.56 3439.86,260.279 C3445.5,252.529 3448.32,244.795 3448.32,236.17 C3448.32,216.107 3431.77,201.841 3408.72,201.841 C3386.36,201.841 3369.3,216.107 3369.3,234.935 C3369.3,246.029 3374.92,253.591 3383.21,253.591 C3389.71,253.591 3394.11,249.185 3394.11,242.857 C3394.11,238.451 3391.64,234.404 3387.96,232.826 C3381.44,230.185 3381.08,229.826 3381.08,227.545 C3381.08,224.904 3382.85,220.857 3385.32,217.857 C3389.71,212.404 3396.92,209.42 3405.21,209.42 C3419.8,209.42 3428.42,218.388 3428.42,233.17 C3428.42,246.201 3422.27,257.982 3407.66,273.482 C3394.64,287.201 3386.55,295.826 3383.55,299.17 C3377.22,306.56 3374.05,310.607 3366.3,320.826 L3366.3,325.748 L3445.67,325.748 L3449.02,287.732 "/>
<path class="StaffText" d="M3566.71,287.732 L3558.98,287.732 L3557.21,296.701 C3554.91,308.154 3553.51,309.201 3542.6,309.201 L3503.18,309.201 C3515.32,296.529 3519.37,292.841 3530.63,284.045 C3546.65,271.716 3553.51,265.56 3557.55,260.279 C3563.2,252.529 3566.01,244.795 3566.01,236.17 C3566.01,216.107 3549.46,201.841 3526.41,201.841 C3504.05,201.841 3486.99,216.107 3486.99,234.935 C3486.99,246.029 3492.62,253.591 3500.9,253.591 C3507.4,253.591 3511.8,249.185 3511.8,242.857 C3511.8,238.451 3509.34,234.404 3505.65,232.826 C3499.13,230.185 3498.77,229.826 3498.77,227.545 C3498.77,224.904 3500.54,220.857 3503.01,217.857 C3507.4,212.404 3514.62,209.42 3522.9,209.42 C3537.49,209.42 3546.12,218.388 3546.12,233.17 C3546.12,246.201 3539.96,257.982 3525.35,273.482 C3512.34,287.201 3504.24,295.826 3501.24,299.17 C3494.91,306.56 3491.74,310.607 3483.99,320.826 L3483.99,325.748 L3563.37,325.748 L3566.71,287.732 "/>
<path class="StaffText" d="M3824.32,287.732 L3816.59,287.732 L3814.82,296.701 C3812.52,308.154 3811.12,309.201 3800.21,309.201 L3760.79,309.201 C3772.93,296.529 3776.98,292.841 3788.24,284.045 C3804.26,271.716 3811.12,265.56 3815.16,260.279 C3820.8,252.529 3823.62,244.795 3823.62,236.17 C3823.62,216.107 3807.07,201.841 3784.02,201.841 C3761.66,201.841 3744.6,216.107 3744.6,234.935 C3744.6,246.029 3750.23,253.591 3758.51,253.591 C3765.01,253.591 3769.41,249.185 3769.41,242.857 C3769.41,238.451 3766.94,234.404 3763.26,232.826 C3756.74,230.185 3756.38,229.826 3756.38,227.545 C3756.38,224.904 3758.15,220.857 3760.62,217.857 C3765.01,212.404 3772.23,209.42 3780.51,209.42 C3795.1,209.42 3803.73,218.388 3803.73,233.17 C3803.73,246.201 3797.57,257.982 3782.96,273.482 C3769.94,287.201 3761.85,295.826 3758.85,299.17 C3752.52,306.56 3749.35,310.607 3741.6,320.826 L3741.6,325.748 L3820.98,325.748 L3824.32,287.732 "/>
<path class="StaffText" d="M3888.17,363.936 C3889.94,341.936 3890.81,336.139 3894.69,327.154 C3899.8,314.67 3909.13,307.451 3920.21,307.451 C3926.38,307.451 3930.06,309.389 3930.06,312.545 C3930.06,313.248 3929.89,313.779 3929.19,315.014 C3927.42,318.358 3926.55,320.998 3926.55,323.467 C3926.55,329.264 3931.13,333.67 3937.28,333.67 C3944.14,333.67 3948.89,328.389 3948.89,320.998 C3948.89,308.858 3936.75,299.873 3920.03,299.873 C3905.6,299.873 3892.05,306.748 3883.6,318.529 C3873.92,332.092 3868.64,350.389 3868.64,369.576 C3868.64,404.061 3885.53,426.42 3911.58,426.42 C3923.03,426.42 3932.53,422.545 3939.92,414.811 C3947.49,407.061 3952.06,395.623 3952.06,384.358 C3952.06,363.592 3937.28,348.108 3917.22,348.108 C3905.25,348.108 3896.46,352.858 3888.17,363.936 M3912.28,358.842 C3925.14,358.842 3932.88,368.873 3932.88,385.592 C3932.88,405.998 3924.78,418.858 3911.94,418.858 C3903.85,418.858 3897.69,414.623 3893.46,405.998 C3890.64,400.545 3889.24,394.561 3889.24,388.045 C3889.24,369.92 3898.03,358.842 3912.28,358.842"/>
<path class="StaffText" d="M3979.32,363.936 C3981.09,341.936 3981.97,336.139 3985.84,327.154 C3990.95,314.67 4000.28,307.451 4011.36,307.451 C4017.53,307.451 4021.22,309.389 4021.22,312.545 C4021.22,313.248 4021.04,313.779 4020.34,315.014 C4018.57,318.358 4017.7,320.998 4017.7,323.467 C4017.7,329.264 4022.28,333.67 4028.43,333.67 C4035.29,333.67 4040.04,328.389 4040.04,320.998 C4040.04,308.858 4027.9,299.873 4011.18,299.873 C3996.75,299.873 3983.2,306.748 3974.75,318.529 C3965.07,332.092 3959.79,350.389 3959.79,369.576 C3959.79,404.061 3976.68,426.42 4002.73,426.42 C4014.18,426.42 4023.68,422.545 4031.07,414.811 C4038.64,407.061 4043.22,395.623 4043.22,384.358 C4043.22,363.592 4028.43,348.108 4008.37,348.108 C3996.4,348.108 3987.61,352.858 3979.32,363.936 M4003.43,358.842 C4016.29,358.842 4024.03,368.873 4024.03,385.592 C4024.03,405.998 4015.93,418.858 4003.09,418.858 C3995,418.858 3988.84,414.623 3984.61,405.998 C3981.79,400.545 3980.39,394.561 3980.39,388.045 C3980.39,369.92 3989.18,358.842 4003.43,358.842"/>
<path class="StaffText" d="M507.004,1282.75 L499.269,1282.75 L497.504,1291.72 C495.207,1303.17 493.8,1304.22 482.894,1304.22 L443.472,1304.22 C455.613,1291.55 459.66,1287.86 470.925,1279.06 C486.941,1266.74 493.8,1260.58 497.847,1255.3 C503.488,1247.55 506.3,1239.81 506.3,1231.19 C506.3,1211.13 489.754,1196.86 466.707,1196.86 C444.347,1196.86 427.285,1211.13 427.285,1229.96 C427.285,1241.05 432.91,1248.61 441.191,1248.61 C447.691,1248.61 452.097,1244.21 452.097,1237.88 C452.097,1233.47 449.629,1229.42 445.941,1227.85 C439.425,1225.21 439.066,1224.85 439.066,1222.56 C439.066,1219.92 440.832,1215.88 443.3,1212.88 C447.691,1207.42 454.91,1204.44 463.191,1204.44 C477.785,1204.44 486.41,1213.41 486.41,1228.19 C486.41,1241.22 480.254,1253 465.644,1268.5 C452.629,1282.22 444.535,1290.85 441.535,1294.19 C435.207,1301.58 432.035,1305.63 424.285,1315.85 L424.285,1320.77 L503.66,1320.77 L507.004,1282.75 "/>
<path class="StaffText" d="M641.921,1282.75 L634.187,1282.75 L632.421,1291.72 C630.124,1303.17 628.718,1304.22 617.812,1304.22 L578.39,1304.22 C590.531,1291.55 594.578,1287.86 605.843,1279.06 C621.859,1266.74 628.718,1260.58 632.765,1255.3 C638.406,1247.55 641.218,1239.81 641.218,1231.19 C641.218,1211.13 624.671,1196.86 601.624,1196.86 C579.265,1196.86 562.203,1211.13 562.203,1229.96 C562.203,1241.05 567.828,1248.61 576.109,1248.61 C582.609,1248.61 587.015,1244.21 587.015,1237.88 C587.015,1233.47 584.546,1229.42 580.859,1227.85 C574.343,1225.21 573.984,1224.85 573.984,1222.56 C573.984,1219.92 575.749,1215.88 578.218,1212.88 C582.609,1207.42 589.828,1204.44 598.109,1204.44 C612.703,1204.44 621.328,1213.41 621.328,1228.19 C621.328,1241.22 615.171,1253 600.562,1268.5 C587.546,1282.22 579.453,1290.85 576.453,1294.19 C570.124,1301.58 566.953,1305.63 559.203,1315.85 L559.203,1320.77 L638.578,1320.77 L641.921,1282.75 "/>
<path class="StaffText" d="M899.53,1282.75 L891.795,1282.75 L890.03,1291.72 C887.733,1303.17 886.327,1304.22 875.42,1304.22 L835.998,1304.22 C848.139,1291.55 852.186,1287.86 863.452,1279.06 C879.467,1266.74 886.327,1260.58 890.373,1255.3 C896.014,1247.55 898.827,1239.81 898.827,1231.19 C898.827,1211.13 882.28,1196.86 859.233,1196.86 C836.873,1196.86 819.811,1211.13 819.811,1229.96 C819.811,1241.05 825.436,1248.61 833.717,1248.61 C840.217,1248.61 844.623,1244.21 844.623,1237.88 C844.623,1233.47 842.155,1229.42 838.467,1227.85 C831.952,1225.21 831.592,1224.85 831.592,1222.56 C831.592,1219.92 833.358,1215.88 835.827,1212.88 C840.217,1207.42 847.436,1204.44 855.717,1204.44 C870.311,1204.44 878.936,1213.41 878.936,1228.19 C878.936,1241.22 872.78,1253 858.17,1268.5 C845.155,1282.22 837.061,1290.85 834.061,1294.19 C827.733,1301.58 824.561,1305.63 816.811,1315.85 L816.811,1320.77 L896.186,1320.77 L899.53,1282.75 "/>
<path class="StaffText" d="M1021.45,1147.85 L961.609,1231.1 L961.609,1240.96 L1011.06,1240.96 L1011.06,1250.11 C1011.06,1259.08 1011.06,1259.44 1010.02,1261.02 C1008.61,1262.96 1005.27,1263.49 995.234,1263.49 L993.297,1263.49 L993.297,1271.75 L1044.69,1271.75 L1044.69,1263.49 L1043.98,1263.49 C1033.95,1263.49 1030.61,1262.96 1029.2,1261.02 C1028.14,1259.44 1028.14,1259.25 1028.14,1250.11 L1028.14,1240.96 L1049.44,1240.96 L1049.44,1231.1 L1028.14,1231.1 L1028.14,1183.05 C1028.14,1161.05 1028.14,1160.52 1029.02,1147.85 L1021.45,1147.85 M1011.06,1231.1 L972.344,1231.1 L1011.06,1177.77 L1011.06,1231.1 "/>
<path class="StaffText" d="M1134.71,1282.75 L1126.98,1282.75 L1125.21,1291.72 C1122.92,1303.17 1121.51,1304.22 1110.6,1304.22 L1071.18,1304.22 C1083.32,1291.55 1087.37,1287.86 1098.64,1279.06 C1114.65,1266.74 1121.51,1260.58 1125.56,1255.3 C1131.2,1247.55 1134.01,1239.81 1134.01,1231.19 C1134.01,1211.13 1117.46,1196.86 1094.42,1196.86 C1072.06,1196.86 1054.99,1211.13 1054.99,1229.96 C1054.99,1241.05 1060.62,1248.61 1068.9,1248.61 C1075.4,1248.61 1079.81,1244.21 1079.81,1237.88 C1079.81,1233.47 1077.34,1229.42 1073.65,1227.85 C1067.14,1225.21 1066.78,1224.85 1066.78,1222.56 C1066.78,1219.92 1068.54,1215.88 1071.01,1212.88 C1075.4,1207.42 1082.62,1204.44 1090.9,1204.44 C1105.49,1204.44 1114.12,1213.41 1114.12,1228.19 C1114.12,1241.22 1107.96,1253 1093.35,1268.5 C1080.34,1282.22 1072.24,1290.85 1069.24,1294.19 C1062.92,1301.58 1059.74,1305.63 1051.99,1315.85 L1051.99,1320.77 L1131.37,1320.77 L1134.71,1282.75 "/>
<path class="StaffText" d="M1370.21,1245.88 L1310.37,1329.13 L1310.37,1338.99 L1359.82,1338.99 L1359.82,1348.14 C1359.82,1357.11 1359.82,1357.47 1358.77,1359.05 C1357.37,1360.99 1354.02,1361.52 1343.99,1361.52 L1342.06,1361.52 L1342.06,1369.78 L1393.45,1369.78 L1393.45,1361.52 L1392.74,1361.52 C1382.71,1361.52 1379.37,1360.99 1377.96,1359.05 C1376.9,1357.47 1376.9,1357.28 1376.9,1348.14 L1376.9,1338.99 L1398.2,1338.99 L1398.2,1329.13 L1376.9,1329.13 L1376.9,1281.08 C1376.9,1259.08 1376.9,1258.55 1377.77,1245.88 L1370.21,1245.88 M1359.82,1329.13 L1321.1,1329.13 L1359.82,1275.8 L1359.82,1329.13 "/>
<path class="StaffText" d="M1505.13,1245.88 L1445.29,1329.13 L1445.29,1338.99 L1494.74,1338.99 L1494.74,1348.14 C1494.74,1357.11 1494.74,1357.47 1493.69,1359.05 C1492.29,1360.99 1488.94,1361.52 1478.91,1361.52 L1476.97,1361.52 L1476.97,1369.78 L1528.36,1369.78 L1528.36,1361.52 L1527.66,1361.52 C1517.63,1361.52 1514.29,1360.99 1512.88,1359.05 C1511.82,1357.47 1511.82,1357.28 1511.82,1348.14 L1511.82,1338.99 L1533.11,1338.99 L1533.11,1329.13 L1511.82,1329.13 L1511.82,1281.08 C1511.82,1259.08 1511.82,1258.55 1512.69,1245.88 L1505.13,1245.88 M1494.74,1329.13 L1456.02,1329.13 L1494.74,1275.8 L1494.74,1329.13 "/>
<path class="StaffText" d="M1754.68,1205.57 L1694.83,1288.82 L1694.83,1298.68 L1744.29,1298.68 L1744.29,1307.83 C1744.29,1316.8 1744.29,1317.16 1743.24,1318.74 C1741.83,1320.68 1738.49,1321.21 1728.46,1321.21 L1726.52,1321.21 L1726.52,1329.47 L1777.91,1329.47 L1777.91,1321.21 L1777.21,1321.21 C1767.18,1321.21 1763.83,1320.68 1762.43,1318.74 C1761.36,1317.16 1761.36,1316.97 1761.36,1307.83 L1761.36,1298.68 L1782.66,1298.68 L1782.66,1288.82 L1761.36,1288.82 L1761.36,1240.77 C1761.36,1218.77 1761.36,1218.24 1762.24,1205.57 L1754.68,1205.57 M1744.29,1288.82 L1705.57,1288.82 L1744.29,1235.49 L1744.29,1288.82 "/>
<path class="StaffText" d="M1920.82,1364.98 L1913.08,1364.98 L1911.32,1373.95 C1909.02,1385.4 1907.62,1386.45 1896.71,1386.45 L1857.29,1386.45 C1869.43,1373.78 1873.48,1370.09 1884.74,1361.29 C1900.76,1348.97 1907.62,1342.81 1911.66,1337.53 C1917.3,1329.78 1920.12,1322.04 1920.12,1313.42 C1920.12,1293.36 1903.57,1279.09 1880.52,1279.09 C1858.16,1279.09 1841.1,1293.36 1841.1,1312.19 C1841.1,1323.28 1846.73,1330.84 1855.01,1330.84 C1861.51,1330.84 1865.91,1326.44 1865.91,1320.11 C1865.91,1315.7 1863.44,1311.65 1859.76,1310.08 C1853.24,1307.44 1852.88,1307.08 1852.88,1304.79 C1852.88,1302.15 1854.65,1298.11 1857.12,1295.11 C1861.51,1289.65 1868.73,1286.67 1877.01,1286.67 C1891.6,1286.67 1900.23,1295.64 1900.23,1310.42 C1900.23,1323.45 1894.07,1335.23 1879.46,1350.73 C1866.44,1364.45 1858.35,1373.08 1855.35,1376.42 C1849.02,1383.81 1845.85,1387.86 1838.1,1398.08 L1838.1,1403 L1917.48,1403 L1920.82,1364.98 "/>
<path class="StaffText" d="M1968.77,1254.58 C1962.78,1261.8 1946.59,1267.26 1930.39,1267.61 L1930.39,1275.18 L1945.89,1275.18 C1956.09,1275.35 1957.16,1276.41 1956.8,1286.27 L1956.8,1356.85 C1956.8,1365.82 1956.8,1366.18 1955.74,1367.76 C1954.33,1369.52 1950.99,1370.22 1941.14,1370.22 L1929.69,1370.22 L1929.69,1378.49 L1999.39,1378.49 L1999.39,1370.22 L1989.7,1370.22 C1979.86,1370.22 1976.52,1369.52 1975.09,1367.76 C1973.88,1366.18 1973.88,1365.99 1973.88,1356.85 L1973.88,1284.16 C1973.88,1274.3 1974.22,1266.04 1975.09,1254.58 L1968.77,1254.58 "/>
<path class="StaffText" d="M2247.47,1205.57 L2187.63,1288.82 L2187.63,1298.68 L2237.08,1298.68 L2237.08,1307.83 C2237.08,1316.8 2237.08,1317.16 2236.03,1318.74 C2234.63,1320.68 2231.28,1321.21 2221.25,1321.21 L2219.31,1321.21 L2219.31,1329.47 L2270.7,1329.47 L2270.7,1321.21 L2270,1321.21 C2259.97,1321.21 2256.63,1320.68 2255.22,1318.74 C2254.16,1317.16 2254.16,1316.97 2254.16,1307.83 L2254.16,1298.68 L2275.45,1298.68 L2275.45,1288.82 L2254.16,1288.82 L2254.16,1240.77 C2254.16,1218.77 2254.16,1218.24 2255.03,1205.57 L2247.47,1205.57 M2237.08,1288.82 L2198.36,1288.82 L2237.08,1235.49 L2237.08,1288.82 "/>
<path class="StaffText" d="M2413.61,1364.98 L2405.88,1364.98 L2404.11,1373.95 C2401.81,1385.4 2400.41,1386.45 2389.5,1386.45 L2350.08,1386.45 C2362.22,1373.78 2366.27,1370.09 2377.53,1361.29 C2393.55,1348.97 2400.41,1342.81 2404.45,1337.53 C2410.1,1329.78 2412.91,1322.04 2412.91,1313.42 C2412.91,1293.36 2396.36,1279.09 2373.31,1279.09 C2350.95,1279.09 2333.89,1293.36 2333.89,1312.19 C2333.89,1323.28 2339.52,1330.84 2347.8,1330.84 C2354.3,1330.84 2358.7,1326.44 2358.7,1320.11 C2358.7,1315.7 2356.24,1311.65 2352.55,1310.08 C2346.03,1307.44 2345.67,1307.08 2345.67,1304.79 C2345.67,1302.15 2347.44,1298.11 2349.91,1295.11 C2354.3,1289.65 2361.52,1286.67 2369.8,1286.67 C2384.39,1286.67 2393.02,1295.64 2393.02,1310.42 C2393.02,1323.45 2386.86,1335.23 2372.25,1350.73 C2359.24,1364.45 2351.14,1373.08 2348.14,1376.42 C2341.81,1383.81 2338.64,1387.86 2330.89,1398.08 L2330.89,1403 L2410.27,1403 L2413.61,1364.98 "/>
<path class="StaffText" d="M2461.56,1254.58 C2455.57,1261.8 2439.39,1267.26 2423.18,1267.61 L2423.18,1275.18 L2438.68,1275.18 C2448.89,1275.35 2449.95,1276.41 2449.59,1286.27 L2449.59,1356.85 C2449.59,1365.82 2449.59,1366.18 2448.53,1367.76 C2447.12,1369.52 2443.78,1370.22 2433.93,1370.22 L2422.48,1370.22 L2422.48,1378.49 L2492.18,1378.49 L2492.18,1370.22 L2482.5,1370.22 C2472.65,1370.22 2469.31,1369.52 2467.89,1367.76 C2466.67,1366.18 2466.67,1365.99 2466.67,1356.85 L2466.67,1284.16 C2466.67,1274.3 2467.01,1266.04 2467.89,1254.58 L2461.56,1254.58 "/>
<path class="StaffText" d="M2740.26,1205.57 L2680.42,1288.82 L2680.42,1298.68 L2729.87,1298.68 L2729.87,1307.83 C2729.87,1316.8 2729.87,1317.16 2728.82,1318.74 C2727.42,1320.68 2724.07,1321.21 2714.04,1321.21 L2712.1,1321.21 L2712.1,1329.47 L2763.5,1329.47 L2763.5,1321.21 L2762.79,1321.21 C2752.76,1321.21 2749.42,1320.68 2748.01,1318.74 C2746.95,1317.16 2746.95,1316.97 2746.95,1307.83 L2746.95,1298.68 L2768.25,1298.68 L2768.25,1288.82 L2746.95,1288.82 L2746.95,1240.77 C2746.95,1218.77 2746.95,1218.24 2747.82,1205.57 L2740.26,1205.57 M2729.87,1288.82 L2691.15,1288.82 L2729.87,1235.49 L2729.87,1288.82 "/>
<path class="StaffText" d="M2830.98,1254.58 C2825,1261.8 2808.81,1267.26 2792.61,1267.61 L2792.61,1275.18 L2808.11,1275.18 C2818.31,1275.35 2819.37,1276.41 2819.02,1286.27 L2819.02,1356.85 C2819.02,1365.82 2819.02,1366.18 2817.95,1367.76 C2816.55,1369.52 2813.2,1370.22 2803.36,1370.22 L2791.91,1370.22 L2791.91,1378.49 L2861.61,1378.49 L2861.61,1370.22 L2851.92,1370.22 C2842.08,1370.22 2838.73,1369.52 2837.31,1367.76 C2836.09,1366.18 2836.09,1365.99 2836.09,1356.85 L2836.09,1284.16 C2836.09,1274.3 2836.44,1266.04 2837.31,1254.58 L2830.98,1254.58 "/>
<path class="StaffText" d="M2986,1364.98 L2978.27,1364.98 L2976.5,1373.95 C2974.21,1385.4 2972.8,1386.45 2961.89,1386.45 L2922.47,1386.45 C2934.61,1373.78 2938.66,1370.09 2949.93,1361.29 C2965.94,1348.97 2972.8,1342.81 2976.85,1337.53 C2982.49,1329.78 2985.3,1322.04 2985.3,1313.42 C2985.3,1293.36 2968.75,1279.09 2945.71,1279.09 C2923.35,1279.09 2906.28,1293.36 2906.28,1312.19 C2906.28,1323.28 2911.91,1330.84 2920.19,1330.84 C2926.69,1330.84 2931.1,1326.44 2931.1,1320.11 C2931.1,1315.7 2928.63,1311.65 2924.94,1310.08 C2918.43,1307.44 2918.07,1307.08 2918.07,1304.79 C2918.07,1302.15 2919.83,1298.11 2922.3,1295.11 C2926.69,1289.65 2933.91,1286.67 2942.19,1286.67 C2956.78,1286.67 2965.41,1295.64 2965.41,1310.42 C2965.41,1323.45 2959.25,1335.23 2944.64,1350.73 C2931.63,1364.45 2923.53,1373.08 2920.53,1376.42 C2914.21,1383.81 2911.03,1387.86 2903.28,1398.08 L2903.28,1403 L2982.66,1403 L2986,1364.98 "/>
<path class="StaffText" d="M3075.71,1328.11 L3015.87,1411.36 L3015.87,1421.22 L3065.32,1421.22 L3065.32,1430.37 C3065.32,1439.34 3065.32,1439.7 3064.27,1441.28 C3062.87,1443.22 3059.52,1443.75 3049.49,1443.75 L3047.55,1443.75 L3047.55,1452.01 L3098.95,1452.01 L3098.95,1443.75 L3098.24,1443.75 C3088.21,1443.75 3084.87,1443.22 3083.46,1441.28 C3082.4,1439.7 3082.4,1439.51 3082.4,1430.37 L3082.4,1421.22 L3103.7,1421.22 L3103.7,1411.36 L3082.4,1411.36 L3082.4,1363.31 C3082.4,1341.31 3082.4,1340.78 3083.27,1328.11 L3075.71,1328.11 M3065.32,1411.36 L3026.6,1411.36 L3065.32,1358.03 L3065.32,1411.36 "/>
<path class="StaffText" d="M3292.48,1441.18 C3294.24,1419.18 3295.12,1413.39 3298.99,1404.4 C3304.1,1391.92 3313.43,1384.7 3324.51,1384.7 C3330.68,1384.7 3334.37,1386.64 3334.37,1389.79 C3334.37,1390.5 3334.19,1391.03 3333.49,1392.26 C3331.73,1395.61 3330.85,1398.25 3330.85,1400.72 C3330.85,1406.51 3335.43,1410.92 3341.58,1410.92 C3348.44,1410.92 3353.19,1405.64 3353.19,1398.25 C3353.19,1386.11 3341.05,1377.12 3324.33,1377.12 C3309.9,1377.12 3296.35,1384 3287.9,1395.78 C3278.23,1409.34 3272.94,1427.64 3272.94,1446.83 C3272.94,1481.31 3289.83,1503.67 3315.88,1503.67 C3327.33,1503.67 3336.83,1499.79 3344.23,1492.06 C3351.79,1484.31 3356.37,1472.87 3356.37,1461.61 C3356.37,1440.84 3341.58,1425.36 3321.52,1425.36 C3309.55,1425.36 3300.76,1430.11 3292.48,1441.18 M3316.58,1436.09 C3329.44,1436.09 3337.18,1446.12 3337.18,1462.84 C3337.18,1483.25 3329.08,1496.11 3316.24,1496.11 C3308.15,1496.11 3301.99,1491.87 3297.76,1483.25 C3294.94,1477.79 3293.54,1471.81 3293.54,1465.29 C3293.54,1447.17 3302.33,1436.09 3316.58,1436.09"/>
<path class="StaffText" d="M3469.42,1198.6 C3485.44,1192.79 3492.83,1183.82 3492.83,1169.74 C3492.83,1151.26 3478.75,1139.46 3456.94,1139.46 C3436.35,1139.46 3420.67,1151.62 3420.67,1167.63 C3420.67,1174.84 3425.42,1179.95 3432.3,1179.95 C3438.45,1179.95 3442.67,1175.73 3442.67,1169.38 C3442.67,1165.51 3441.27,1163.23 3437.22,1160.41 C3435.45,1159.18 3434.94,1158.48 3434.94,1157.24 C3434.94,1152.32 3445.14,1147.04 3455.17,1147.04 C3467.85,1147.04 3474.53,1154.96 3474.53,1169.91 C3474.53,1186.29 3467.85,1194.9 3455.35,1194.9 C3453.77,1194.9 3450.77,1194.73 3448.13,1194.56 C3446.72,1194.38 3445.31,1194.38 3444.27,1194.38 C3440.56,1194.38 3438.63,1195.96 3438.63,1199.13 C3438.63,1202.12 3440.39,1203.52 3444.27,1203.52 C3445.31,1203.52 3446.72,1203.52 3448.31,1203.35 C3451.83,1203.18 3454.64,1203.18 3456.58,1203.18 C3469.6,1203.18 3476.64,1212.51 3476.64,1229.93 C3476.64,1248.23 3467.85,1258.45 3452,1258.45 C3440.92,1258.45 3428.95,1252.46 3428.95,1246.99 C3428.95,1245.41 3429.3,1245.07 3432.64,1243.13 C3437.58,1240.13 3439.5,1237.15 3439.5,1232.74 C3439.5,1226.41 3434.75,1221.66 3428.42,1221.66 C3420.85,1221.66 3415.92,1227.82 3415.92,1237.15 C3415.92,1254.21 3431.6,1266.01 3454.11,1266.01 C3479.64,1266.01 3496.17,1251.93 3496.17,1230.27 C3496.17,1213.74 3487.74,1203.71 3469.42,1198.6"/>
<path class="StaffText" d="M3685,1441.18 C3686.77,1419.18 3687.64,1413.39 3691.52,1404.4 C3696.63,1391.92 3705.95,1384.7 3717.03,1384.7 C3723.2,1384.7 3726.89,1386.64 3726.89,1389.79 C3726.89,1390.5 3726.72,1391.03 3726.02,1392.26 C3724.25,1395.61 3723.38,1398.25 3723.38,1400.72 C3723.38,1406.51 3727.95,1410.92 3734.11,1410.92 C3740.97,1410.92 3745.72,1405.64 3745.72,1398.25 C3745.72,1386.11 3733.58,1377.12 3716.86,1377.12 C3702.42,1377.12 3688.88,1384 3680.42,1395.78 C3670.75,1409.34 3665.47,1427.64 3665.47,1446.83 C3665.47,1481.31 3682.36,1503.67 3708.41,1503.67 C3719.86,1503.67 3729.36,1499.79 3736.75,1492.06 C3744.31,1484.31 3748.89,1472.87 3748.89,1461.61 C3748.89,1440.84 3734.11,1425.36 3714.05,1425.36 C3702.08,1425.36 3693.28,1430.11 3685,1441.18 M3709.11,1436.09 C3721.97,1436.09 3729.7,1446.12 3729.7,1462.84 C3729.7,1483.25 3721.61,1496.11 3708.77,1496.11 C3700.67,1496.11 3694.52,1491.87 3690.28,1483.25 C3687.47,1477.79 3686.06,1471.81 3686.06,1465.29 C3686.06,1447.17 3694.86,1436.09 3709.11,1436.09"/>
<path class="NoteDot" transform="matrix(2.35276,0,0,2.35276,760.919,512.008)" d="M0,0 C0,2.76563 2.23438,5 5,5 C7.76563,5 10,2.76563 10,0 C10,-2.76563 7.76563,-5 5,-5 C2.23438,-5 0,-2.76563 0,0"/>
<path class="NoteDot" transform="matrix(2.35276,0,0,2.35276,3779,1747.2)" d="M0,0 C0,2.76563 2.23438,5 5,5 C7.76563,5 10,2.76563 10,0 C10,-2.76563 7.76563,-5 5,-5 C2.23438,-5 0,-2.76563 0,0"/>
</svg>
