<?xml version="1.0" encoding="UTF-8" standalone="no"?>
<svg width="4208.47px" height="2409.45px" viewBox="0 0 4208.47 2409.45"
 xmlns="http://www.w3.org/2000/svg" xmlns:xlink="http://www.w3.org/1999/xlink" version="1.2" baseProfile="tiny">
<title>FLAUTA</title>
<desc>Generated by MuseScore 3.6.2</desc>
<polyline class="StaffLines" fill="none" stroke="#000000" stroke-width="5.22" stroke-linejoin="bevel" points="70.866,403.228 4137.61,403.228"/>
<polyline class="StaffLines" fill="none" stroke="#000000" stroke-width="5.22" stroke-linejoin="bevel" points="70.866,450.709 4137.61,450.709"/>
<polyline class="StaffLines" fill="none" stroke="#000000" stroke-width="5.22" stroke-linejoin="bevel" points="70.866,498.189 4137.61,498.189"/>
<polyline class="StaffLines" fill="none" stroke="#000000" stroke-width="5.22" stroke-linejoin="bevel" points="70.866,545.669 4137.61,545.669"/>
<polyline class="StaffLines" fill="none" stroke="#000000" stroke-width="5.22" stroke-linejoin="bevel" points="70.866,593.149 4137.61,593.149"/>
<polyline class="StaffLines" fill="none" stroke="#000000" stroke-width="5.22" stroke-linejoin="bevel" points="70.866,1180.98 4137.61,1180.98"/>
<polyline class="StaffLines" fill="none" stroke="#000000" stroke-width="5.22" stroke-linejoin="bevel" points="70.866,1228.46 4137.61,1228.46"/>
<polyline class="StaffLines" fill="none" stroke="#000000" stroke-width="5.22" stroke-linejoin="bevel" points="70.866,1275.94 4137.61,1275.94"/>
<polyline class="StaffLines" fill="none" stroke="#000000" stroke-width="5.22" stroke-linejoin="bevel" points="70.866,1323.42 4137.61,1323.42"/>
<polyline class="StaffLines" fill="none" stroke="#000000" stroke-width="5.22" stroke-linejoin="bevel" points="70.866,1370.9 4137.61,1370.9"/>
<polyline class="StaffLines" fill="none" stroke="#000000" stroke-width="5.22" stroke-linejoin="bevel" points="70.866,1958.74 4137.61,1958.74"/>
<polyline class="StaffLines" fill="none" stroke="#000000" stroke-width="5.22" stroke-linejoin="bevel" points="70.866,2006.22 4137.61,2006.22"/>
<polyline class="StaffLines" fill="none" stroke="#000000" stroke-width="5.22" stroke-linejoin="bevel" points="70.866,2053.7 4137.61,2053.7"/>
<polyline class="StaffLines" fill="none" stroke="#000000" stroke-width="5.22" stroke-linejoin="bevel" points="70.866,2101.18 4137.61,2101.18"/>
<polyline class="StaffLines" fill="none" stroke="#000000" stroke-width="5.22" stroke-linejoin="bevel" points="70.866,2148.66 4137.61,2148.66"/>
<path class="MeasureNumber" d="M81.9116,1074.92 C83.2916,1074.26 83.9216,1073.9 84.4616,1073.48 C85.7516,1072.49 86.4416,1071.11 86.4416,1069.58 C86.4416,1066.85 84.1316,1064.9 80.9216,1064.9 C77.0516,1064.9 74.0516,1067.69 74.0516,1071.32 C74.0516,1073.15 74.6816,1074.32 76.3016,1075.49 C72.7616,1076.84 70.8716,1079.03 70.8716,1081.76 C70.8716,1084.67 73.2716,1086.47 77.1116,1086.47 C81.7316,1086.47 85.0316,1083.65 85.0316,1079.75 C85.0316,1078.64 84.6716,1077.56 84.0116,1076.69 C83.5616,1076.09 83.0216,1075.64 81.9116,1074.92 M80.6216,1074.2 C77.5616,1072.76 76.4516,1071.59 76.4516,1069.88 C76.4516,1067.81 78.3116,1066.19 80.6816,1066.19 C82.7516,1066.19 84.1916,1067.51 84.1916,1069.4 C84.1916,1070.63 83.6216,1071.98 82.6316,1072.94 C82.0616,1073.51 81.6116,1073.81 80.6216,1074.2 M77.4416,1076.3 C78.8816,1076.96 79.3616,1077.2 80.1116,1077.65 C81.6116,1078.55 82.4216,1079.75 82.4216,1081.1 C82.4216,1083.41 80.2616,1085.15 77.4416,1085.15 C74.8916,1085.15 73.3016,1083.71 73.3016,1081.4 C73.3016,1079.15 74.7416,1077.38 77.4416,1076.3"/>
<path class="MeasureNumber" d="M83.136,1842.54 L82.266,1842.54 C80.616,1843.77 77.436,1844.82 75.276,1844.82 L74.916,1846.14 L76.986,1846.14 C78.816,1846.14 79.026,1846.2 79.026,1846.74 C79.026,1847.01 79.026,1847.01 78.726,1848.09 L75.516,1860.09 C75.126,1861.59 75.096,1861.68 74.826,1861.95 C74.526,1862.25 73.896,1862.34 72.306,1862.37 L71.016,1862.37 L70.866,1863.78 L81.966,1863.78 L82.146,1862.37 L80.526,1862.37 C78.576,1862.37 78.156,1862.22 78.156,1861.56 C78.156,1861.35 78.276,1860.66 78.426,1860.09 L83.136,1842.54 M101.398,1842.54 L99.7779,1842.54 L85.7979,1857 L85.7979,1858.26 L94.2579,1858.26 L93.7779,1860.09 C93.3879,1861.59 93.3579,1861.68 93.0879,1861.95 C92.7879,1862.25 92.1579,1862.37 90.5679,1862.37 L90.0279,1862.37 L89.8479,1863.78 L99.1779,1863.78 L99.3279,1862.37 L98.7879,1862.37 C96.8079,1862.37 96.3879,1862.22 96.3879,1861.56 C96.3879,1861.32 96.4479,1861.02 96.6879,1860.09 L97.1979,1858.26 L100.618,1858.26 L101.068,1856.64 L97.6179,1856.64 L101.398,1842.54 M94.7079,1856.64 L87.9879,1856.64 L97.2579,1847.1 L94.7079,1856.64 "/>
<path class="TieSegment" stroke="#000000" stroke-width="3.32" stroke-linecap="round" stroke-linejoin="round" fill-rule="evenodd" d="M1384.94,652.5 C1396.69,664.845 1431.95,664.845 1443.7,652.5 C1431.95,678.139 1396.69,678.139 1384.94,652.5"/>
<path class="TieSegment" stroke="#000000" stroke-width="3.32" stroke-linecap="round" stroke-linejoin="round" fill-rule="evenodd" d="M4036.24,597.66 C4056.51,610.005 4117.33,610.005 4137.61,597.66 C4117.33,623.299 4056.51,623.299 4036.24,597.66"/>
<path class="TieSegment" stroke="#000000" stroke-width="3.32" stroke-linecap="round" stroke-linejoin="round" fill-rule="evenodd" d="M411.359,1375.42 C430.562,1387.76 488.169,1387.76 507.372,1375.42 C488.169,1401.05 430.562,1401.05 411.359,1375.42"/>
<path class="TieSegment" stroke="#000000" stroke-width="3.32" stroke-linecap="round" stroke-linejoin="round" fill-rule="evenodd" d="M2501.54,1169.11 C2515.19,1143.47 2556.12,1143.47 2569.76,1169.11 C2556.12,1156.77 2515.19,1156.77 2501.54,1169.11"/>
<path class="TieSegment" stroke="#000000" stroke-width="3.32" stroke-linecap="round" stroke-linejoin="round" fill-rule="evenodd" d="M3891.64,1176.47 C3905.28,1150.83 3946.21,1150.83 3959.85,1176.47 C3946.21,1164.13 3905.28,1164.13 3891.64,1176.47"/>
<path class="TieSegment" stroke="#000000" stroke-width="3.32" stroke-linecap="round" stroke-linejoin="round" fill-rule="evenodd" d="M1125.35,2184.27 C1164.66,2207.5 1282.59,2207.5 1321.91,2184.27 C1282.59,2220.79 1164.66,2220.79 1125.35,2184.27"/>
<path class="TieSegment" stroke="#000000" stroke-width="3.32" stroke-linecap="round" stroke-linejoin="round" fill-rule="evenodd" d="M1943.08,1962.39 C1982.39,1925.87 2100.32,1925.87 2139.63,1962.39 C2100.32,1939.16 1982.39,1939.16 1943.08,1962.39"/>
<path class="TieSegment" stroke="#000000" stroke-width="3.32" stroke-linecap="round" stroke-linejoin="round" fill-rule="evenodd" d="M2760.8,2145.16 C2799.84,2168.19 2916.96,2168.19 2955.99,2145.16 C2916.96,2181.48 2799.84,2181.48 2760.8,2145.16"/>
<polyline class="BarLine" stroke="#000000" stroke-width="26.11" stroke-linejoin="bevel" points="1010.52,400.617 1010.52,595.761"/>
<polyline class="BarLine" stroke="#000000" stroke-width="8.55" stroke-linejoin="bevel" points="1043.75,400.617 1043.75,595.761"/>
<path class="BarLine" transform="matrix(1.89921,0,0,1.89921,1067.11,474.449)" d="M10.4,0 C10.4,-2.9 8.1,-5.3 5.2,-5.3 C2.3,-5.3 0,-2.9 0,0 C0,2.9 2.3,5.3 5.2,5.3 C8.1,5.3 10.4,2.9 10.4,0"/>
<path class="BarLine" transform="matrix(1.89921,0,0,1.89921,1067.11,521.929)" d="M10.4,0 C10.4,-2.9 8.1,-5.3 5.2,-5.3 C2.3,-5.3 0,-2.9 0,0 C0,2.9 2.3,5.3 5.2,5.3 C8.1,5.3 10.4,2.9 10.4,0"/>
<polyline class="BarLine" stroke="#000000" stroke-width="8.55" stroke-linejoin="bevel" points="1596.38,400.617 1596.38,595.761"/>
<polyline class="BarLine" stroke="#000000" stroke-width="8.55" stroke-linejoin="bevel" points="2109.7,400.617 2109.7,595.761"/>
<polyline class="BarLine" stroke="#000000" stroke-width="8.55" stroke-linejoin="bevel" points="2401.8,400.617 2401.8,595.761"/>
<polyline class="BarLine" stroke="#000000" stroke-width="8.55" stroke-linejoin="bevel" points="2915.12,400.617 2915.12,595.761"/>
<polyline class="BarLine" stroke="#000000" stroke-width="8.55" stroke-linejoin="bevel" points="3440.31,400.617 3440.31,595.761"/>
<polyline class="BarLine" stroke="#000000" stroke-width="8.55" stroke-linejoin="bevel" points="4133.33,400.617 4133.33,595.761"/>
<polyline class="BarLine" stroke="#000000" stroke-width="8.55" stroke-linejoin="bevel" points="743.917,1178.37 743.917,1373.52"/>
<path class="BarLine" transform="matrix(1.89921,0,0,1.89921,1307.81,1252.2)" d="M10.4,0 C10.4,-2.9 8.1,-5.3 5.2,-5.3 C2.3,-5.3 0,-2.9 0,0 C0,2.9 2.3,5.3 5.2,5.3 C8.1,5.3 10.4,2.9 10.4,0"/>
<path class="BarLine" transform="matrix(1.89921,0,0,1.89921,1307.81,1299.68)" d="M10.4,0 C10.4,-2.9 8.1,-5.3 5.2,-5.3 C2.3,-5.3 0,-2.9 0,0 C0,2.9 2.3,5.3 5.2,5.3 C8.1,5.3 10.4,2.9 10.4,0"/>
<polyline class="BarLine" stroke="#000000" stroke-width="8.55" stroke-linejoin="bevel" points="1350.92,1178.37 1350.92,1373.52"/>
<polyline class="BarLine" stroke="#000000" stroke-width="26.11" stroke-linejoin="bevel" points="1384.15,1178.37 1384.15,1373.52"/>
<polyline class="BarLine" stroke="#000000" stroke-width="8.55" stroke-linejoin="bevel" points="2158.07,1178.37 2158.07,1373.52"/>
<polyline class="BarLine" stroke="#000000" stroke-width="8.55" stroke-linejoin="bevel" points="2743.24,1178.37 2743.24,1373.52"/>
<polyline class="BarLine" stroke="#000000" stroke-width="8.55" stroke-linejoin="bevel" points="3548.16,1178.37 3548.16,1373.52"/>
<polyline class="BarLine" stroke="#000000" stroke-width="8.55" stroke-linejoin="bevel" points="4133.33,1178.37 4133.33,1373.52"/>
<polyline class="BarLine" stroke="#000000" stroke-width="8.55" stroke-linejoin="bevel" points="1222.44,1956.13 1222.44,2151.27"/>
<polyline class="BarLine" stroke="#000000" stroke-width="8.55" stroke-linejoin="bevel" points="2040.17,1956.13 2040.17,2151.27"/>
<polyline class="BarLine" stroke="#000000" stroke-width="8.55" stroke-linejoin="bevel" points="2857.9,1956.13 2857.9,2151.27"/>
<polyline class="BarLine" stroke="#000000" stroke-width="8.55" stroke-linejoin="bevel" points="3344.79,1956.13 3344.79,2151.27"/>
<polyline class="BarLine" stroke="#000000" stroke-width="8.55" stroke-linejoin="bevel" points="3370.9,1956.13 3370.9,2151.27"/>
<polyline class="BarLine" stroke="#000000" stroke-width="8.55" stroke-linejoin="bevel" points="4091.31,1956.13 4091.31,2151.27"/>
<polyline class="BarLine" stroke="#000000" stroke-width="26.11" stroke-linejoin="bevel" points="4124.55,1956.13 4124.55,2151.27"/>
<path class="Accidental" transform="matrix(1.89921,0,0,1.89921,3857.42,569.409)" d="M23.3,-10.6 C23.9,-10.7 24.4,-11.4 24.4,-12 L24.4,-17.9 C24.4,-18.7 23.8,-19.3 23,-19.3 L22.8,-19.3 L19.5,-18.6 L19.5,-33.5 L16.7,-33.5 L16.7,-18 L7.8,-16.2 L7.8,-30.3 L5,-30.3 L5,-15.6 L1.1,-14.8 C0.5,-14.7 0,-14 0,-13.4 L0,-13.2 L0,-7.4 L0,-7.6 C0,-6.8 0.6,-6.2 1.4,-6.2 L1.7,-6.2 L5,-6.9 L5,9.6 L1.1,10.4 C0.5,10.5 0,11.2 0,11.8 L0,17.6 C0,18.4 0.6,19 1.4,19 L1.7,19 L5,18.3 L5,33.2 L7.8,33.2 L7.8,17.7 L16.7,15.9 L16.7,30 L19.5,30 L19.5,15.3 L23.3,14.6 C23.9,14.5 24.4,13.8 24.4,13.2 L24.4,7.3 C24.4,6.5 23.8,5.9 23,5.9 L22.8,5.9 L19.5,6.6 L19.5,-9.9 L23.3,-10.6 M7.8,9.1 L7.8,-7.5 L16.7,-9.3 L16.7,7.2 L7.8,9.1 "/>
<polyline class="Stem" stroke="#000000" stroke-width="5.22" stroke-linejoin="bevel" points="716.88,539.592 716.88,385.423"/>
<polyline class="Stem" stroke="#000000" stroke-width="5.22" stroke-linejoin="bevel" points="820.254,515.852 820.254,367.618"/>
<polyline class="Stem" stroke="#000000" stroke-width="5.22" stroke-linejoin="bevel" points="867.141,504.57 867.141,646.565"/>
<polyline class="Stem" stroke="#000000" stroke-width="5.22" stroke-linejoin="bevel" points="1203.01,515.852 1203.01,367.618"/>
<polyline class="Stem" stroke="#000000" stroke-width="5.22" stroke-linejoin="bevel" points="1326.65,539.592 1326.65,403.228"/>
<polyline class="Stem" stroke="#000000" stroke-width="5.22" stroke-linejoin="bevel" points="1403.92,610.812 1403.92,450.709"/>
<polyline class="Stem" stroke="#000000" stroke-width="5.22" stroke-linejoin="bevel" points="1481.2,610.812 1481.2,450.709"/>
<polyline class="Stem" stroke="#000000" stroke-width="5.22" stroke-linejoin="bevel" points="1824.85,539.592 1824.85,385.423"/>
<polyline class="Stem" stroke="#000000" stroke-width="5.22" stroke-linejoin="bevel" points="1928.22,515.852 1928.22,367.618"/>
<polyline class="Stem" stroke="#000000" stroke-width="5.22" stroke-linejoin="bevel" points="1975.11,504.57 1975.11,646.565"/>
<polyline class="Stem" stroke="#000000" stroke-width="5.22" stroke-linejoin="bevel" points="2573.78,480.83 2573.78,628.76"/>
<polyline class="Stem" stroke="#000000" stroke-width="5.22" stroke-linejoin="bevel" points="2677.15,504.57 2677.15,646.565"/>
<polyline class="Stem" stroke="#000000" stroke-width="5.22" stroke-linejoin="bevel" points="2837.01,515.852 2837.01,367.618"/>
<polyline class="Stem" stroke="#000000" stroke-width="5.22" stroke-linejoin="bevel" points="2995.6,433.35 2995.6,593.149"/>
<polyline class="Stem" stroke="#000000" stroke-width="5.22" stroke-linejoin="bevel" points="3098.97,457.09 3098.97,610.955"/>
<polyline class="Stem" stroke="#000000" stroke-width="5.22" stroke-linejoin="bevel" points="3202.34,504.57 3202.34,646.565"/>
<polyline class="Stem" stroke="#000000" stroke-width="5.22" stroke-linejoin="bevel" points="3362.2,539.592 3362.2,385.423"/>
<polyline class="Stem" stroke="#000000" stroke-width="5.22" stroke-linejoin="bevel" points="3520.79,457.09 3520.79,610.955"/>
<polyline class="Stem" stroke="#000000" stroke-width="5.22" stroke-linejoin="bevel" points="3649.59,480.83 3649.59,628.76"/>
<polyline class="Stem" stroke="#000000" stroke-width="5.22" stroke-linejoin="bevel" points="3834.87,515.852 3834.87,367.618"/>
<polyline class="Stem" stroke="#000000" stroke-width="5.22" stroke-linejoin="bevel" points="3974.73,563.332 3974.73,415.098"/>
<polyline class="Stem" stroke="#000000" stroke-width="5.22" stroke-linejoin="bevel" points="4055.23,539.592 4055.23,403.228"/>
<polyline class="Stem" stroke="#000000" stroke-width="5.22" stroke-linejoin="bevel" points="990.667,1317.35 990.667,1163.18"/>
<polyline class="Stem" stroke="#000000" stroke-width="5.22" stroke-linejoin="bevel" points="1112.32,1293.61 1112.32,1145.37"/>
<polyline class="Stem" stroke="#000000" stroke-width="5.22" stroke-linejoin="bevel" points="1177.49,1282.33 1177.49,1424.32"/>
<polyline class="Stem" stroke="#000000" stroke-width="5.22" stroke-linejoin="bevel" points="1642.63,1282.33 1642.63,1442.13"/>
<polyline class="Stem" stroke="#000000" stroke-width="5.22" stroke-linejoin="bevel" points="1737.84,1282.33 1737.84,1418.39"/>
<polyline class="Stem" stroke="#000000" stroke-width="5.22" stroke-linejoin="bevel" points="1833.05,1282.33 1833.05,1418.39"/>
<polyline class="Stem" stroke="#000000" stroke-width="5.22" stroke-linejoin="bevel" points="1928.26,1282.33 1928.26,1418.39"/>
<polyline class="Stem" stroke="#000000" stroke-width="5.22" stroke-linejoin="bevel" points="2023.48,1258.59 2023.48,1418.39"/>
<polyline class="Stem" stroke="#000000" stroke-width="5.22" stroke-linejoin="bevel" points="2238.55,1282.33 2238.55,1424.32"/>
<polyline class="Stem" stroke="#000000" stroke-width="5.22" stroke-linejoin="bevel" points="2377.32,1306.07 2377.32,1430.26"/>
<polyline class="Stem" stroke="#000000" stroke-width="5.22" stroke-linejoin="bevel" points="2464.04,1211.11 2464.04,1382.77"/>
<polyline class="Stem" stroke="#000000" stroke-width="5.22" stroke-linejoin="bevel" points="2550.77,1211.11 2550.77,1370.9"/>
<polyline class="Stem" stroke="#000000" stroke-width="5.22" stroke-linejoin="bevel" points="3055.76,1293.61 3055.76,1145.37"/>
<polyline class="Stem" stroke="#000000" stroke-width="5.22" stroke-linejoin="bevel" points="3181.85,1293.61 3181.85,1145.37"/>
<polyline class="Stem" stroke="#000000" stroke-width="5.22" stroke-linejoin="bevel" points="3277.92,1293.61 3277.92,1141.42"/>
<polyline class="Stem" stroke="#000000" stroke-width="5.22" stroke-linejoin="bevel" points="3373.99,1293.61 3373.99,1137.46"/>
<polyline class="Stem" stroke="#000000" stroke-width="5.22" stroke-linejoin="bevel" points="3470.05,1269.87 3470.05,1133.5"/>
<polyline class="Stem" stroke="#000000" stroke-width="5.22" stroke-linejoin="bevel" points="3685.13,1293.61 3685.13,1145.37"/>
<polyline class="Stem" stroke="#000000" stroke-width="5.22" stroke-linejoin="bevel" points="3767.41,1329.81 3767.41,1465.87"/>
<polyline class="Stem" stroke="#000000" stroke-width="5.22" stroke-linejoin="bevel" points="3854.14,1234.85 3854.14,1418.39"/>
<polyline class="Stem" stroke="#000000" stroke-width="5.22" stroke-linejoin="bevel" points="3940.87,1234.85 3940.87,1388.71"/>
<polyline class="Stem" stroke="#000000" stroke-width="5.22" stroke-linejoin="bevel" points="707.928,2166.32 707.928,2006.22"/>
<polyline class="Stem" stroke="#000000" stroke-width="5.22" stroke-linejoin="bevel" points="874.178,2095.1 874.178,1940.93"/>
<polyline class="Stem" stroke="#000000" stroke-width="5.22" stroke-linejoin="bevel" points="1040.43,2166.32 1040.43,2018.09"/>
<polyline class="Stem" stroke="#000000" stroke-width="5.22" stroke-linejoin="bevel" points="1144.33,2142.58 1144.33,2006.22"/>
<polyline class="Stem" stroke="#000000" stroke-width="5.22" stroke-linejoin="bevel" points="1359.41,2142.58 1359.41,1982.48"/>
<polyline class="Stem" stroke="#000000" stroke-width="5.22" stroke-linejoin="bevel" points="1525.66,2095.1 1525.66,1940.93"/>
<polyline class="Stem" stroke="#000000" stroke-width="5.22" stroke-linejoin="bevel" points="1691.91,2071.36 1691.91,1923.13"/>
<polyline class="Stem" stroke="#000000" stroke-width="5.22" stroke-linejoin="bevel" points="1801.67,2060.08 1801.67,2196.14"/>
<polyline class="Stem" stroke="#000000" stroke-width="5.22" stroke-linejoin="bevel" points="1905.58,2012.6 1905.58,2148.66"/>
<polyline class="Stem" stroke="#000000" stroke-width="5.22" stroke-linejoin="bevel" points="2120.65,2012.6 2120.65,2166.47"/>
<polyline class="Stem" stroke="#000000" stroke-width="5.22" stroke-linejoin="bevel" points="2286.9,2036.34 2286.9,2184.27"/>
<polyline class="Stem" stroke="#000000" stroke-width="5.22" stroke-linejoin="bevel" points="2453.15,2060.08 2453.15,2202.08"/>
<polyline class="Stem" stroke="#000000" stroke-width="5.22" stroke-linejoin="bevel" points="2675.88,2071.36 2675.88,1946.87"/>
<polyline class="Stem" stroke="#000000" stroke-width="5.22" stroke-linejoin="bevel" points="2779.79,2095.1 2779.79,1958.74"/>
<polyline class="Stem" stroke="#000000" stroke-width="5.22" stroke-linejoin="bevel" points="3658.53,2095.1 3658.53,1940.93"/>
<polyline class="Stem" stroke="#000000" stroke-width="5.22" stroke-linejoin="bevel" points="3821.07,2071.36 3821.07,1923.13"/>
<polyline class="Stem" stroke="#000000" stroke-width="5.22" stroke-linejoin="bevel" points="3927.12,2060.08 3927.12,2202.08"/>
<path class="Note" transform="matrix(1.89921,0,0,1.89921,657.782,545.669)" d="M31.5,-8.1 C29.7,-11.4 25.9,-13.2 21.3,-13.2 C17.9,-13.2 14.2,-12.2 10.6,-10.3 C4,-6.8 0,-0.9 0,4.2 C0,5.6 0.3,7 1,8.3 C2.8,11.6 6.6,13.3 11.2,13.3 C14.6,13.3 18.3,12.4 21.9,10.5 C28.5,7 32.5,1.1 32.5,-4 C32.5,-5.4 32.2,-6.8 31.5,-8.1"/>
<path class="Note" transform="matrix(1.89921,0,0,1.89921,761.156,521.929)" d="M31.5,-8.1 C29.7,-11.4 25.9,-13.2 21.3,-13.2 C17.9,-13.2 14.2,-12.2 10.6,-10.3 C4,-6.8 0,-0.9 0,4.2 C0,5.6 0.3,7 1,8.3 C2.8,11.6 6.6,13.3 11.2,13.3 C14.6,13.3 18.3,12.4 21.9,10.5 C28.5,7 32.5,1.1 32.5,-4 C32.5,-5.4 32.2,-6.8 31.5,-8.1"/>
<path class="Note" transform="matrix(1.89921,0,0,1.89921,864.53,498.189)" d="M31.5,-8.1 C29.7,-11.4 25.9,-13.2 21.3,-13.2 C17.9,-13.2 14.2,-12.2 10.6,-10.3 C4,-6.8 0,-0.9 0,4.2 C0,5.6 0.3,7 1,8.3 C2.8,11.6 6.6,13.3 11.2,13.3 C14.6,13.3 18.3,12.4 21.9,10.5 C28.5,7 32.5,1.1 32.5,-4 C32.5,-5.4 32.2,-6.8 31.5,-8.1"/>
<path class="Note" transform="matrix(1.89921,0,0,1.89921,1143.91,521.929)" d="M31.5,-8.1 C29.7,-11.4 25.9,-13.2 21.3,-13.2 C17.9,-13.2 14.2,-12.2 10.6,-10.3 C4,-6.8 0,-0.9 0,4.2 C0,5.6 0.3,7 1,8.3 C2.8,11.6 6.6,13.3 11.2,13.3 C14.6,13.3 18.3,12.4 21.9,10.5 C28.5,7 32.5,1.1 32.5,-4 C32.5,-5.4 32.2,-6.8 31.5,-8.1"/>
<path class="Note" transform="matrix(1.89921,0,0,1.89921,1267.55,545.669)" d="M31.5,-8.1 C29.7,-11.4 25.9,-13.2 21.3,-13.2 C17.9,-13.2 14.2,-12.2 10.6,-10.3 C4,-6.8 0,-0.9 0,4.2 C0,5.6 0.3,7 1,8.3 C2.8,11.6 6.6,13.3 11.2,13.3 C14.6,13.3 18.3,12.4 21.9,10.5 C28.5,7 32.5,1.1 32.5,-4 C32.5,-5.4 32.2,-6.8 31.5,-8.1"/>
<path class="Note" transform="matrix(1.89921,0,0,1.89921,1344.83,616.89)" d="M31.5,-8.1 C29.7,-11.4 25.9,-13.2 21.3,-13.2 C17.9,-13.2 14.2,-12.2 10.6,-10.3 C4,-6.8 0,-0.9 0,4.2 C0,5.6 0.3,7 1,8.3 C2.8,11.6 6.6,13.3 11.2,13.3 C14.6,13.3 18.3,12.4 21.9,10.5 C28.5,7 32.5,1.1 32.5,-4 C32.5,-5.4 32.2,-6.8 31.5,-8.1"/>
<path class="Note" transform="matrix(1.89921,0,0,1.89921,1422.1,616.89)" d="M31.5,-8.1 C29.7,-11.4 25.9,-13.2 21.3,-13.2 C17.9,-13.2 14.2,-12.2 10.6,-10.3 C4,-6.8 0,-0.9 0,4.2 C0,5.6 0.3,7 1,8.3 C2.8,11.6 6.6,13.3 11.2,13.3 C14.6,13.3 18.3,12.4 21.9,10.5 C28.5,7 32.5,1.1 32.5,-4 C32.5,-5.4 32.2,-6.8 31.5,-8.1 M27.2,-1.3 C25.5,0.4 22.1,2.5 18.5,4.5 C14.9,6.5 11.3,8 8.9,8.5 C8.4,8.6 7.9,8.7 7.4,8.7 C5.8,8.7 4.6,8.1 3.9,6.8 C3.6,6.3 3.4,5.7 3.4,5.1 C3.4,4 4.1,2.7 5.2,1.6 C6.9,-0.1 10.2,-2.2 13.8,-4.2 C17.4,-6.2 21,-7.7 23.4,-8.2 C23.9,-8.3 24.4,-8.4 24.9,-8.4 C26.5,-8.4 27.8,-7.8 28.5,-6.5 C28.8,-6 28.9,-5.4 28.9,-4.8 C28.9,-3.7 28.3,-2.5 27.2,-1.3"/>
<path class="Note" transform="matrix(1.89921,0,0,1.89921,1765.75,545.669)" d="M31.5,-8.1 C29.7,-11.4 25.9,-13.2 21.3,-13.2 C17.9,-13.2 14.2,-12.2 10.6,-10.3 C4,-6.8 0,-0.9 0,4.2 C0,5.6 0.3,7 1,8.3 C2.8,11.6 6.6,13.3 11.2,13.3 C14.6,13.3 18.3,12.4 21.9,10.5 C28.5,7 32.5,1.1 32.5,-4 C32.5,-5.4 32.2,-6.8 31.5,-8.1"/>
<path class="Note" transform="matrix(1.89921,0,0,1.89921,1869.12,521.929)" d="M31.5,-8.1 C29.7,-11.4 25.9,-13.2 21.3,-13.2 C17.9,-13.2 14.2,-12.2 10.6,-10.3 C4,-6.8 0,-0.9 0,4.2 C0,5.6 0.3,7 1,8.3 C2.8,11.6 6.6,13.3 11.2,13.3 C14.6,13.3 18.3,12.4 21.9,10.5 C28.5,7 32.5,1.1 32.5,-4 C32.5,-5.4 32.2,-6.8 31.5,-8.1"/>
<path class="Note" transform="matrix(1.89921,0,0,1.89921,1972.5,498.189)" d="M31.5,-8.1 C29.7,-11.4 25.9,-13.2 21.3,-13.2 C17.9,-13.2 14.2,-12.2 10.6,-10.3 C4,-6.8 0,-0.9 0,4.2 C0,5.6 0.3,7 1,8.3 C2.8,11.6 6.6,13.3 11.2,13.3 C14.6,13.3 18.3,12.4 21.9,10.5 C28.5,7 32.5,1.1 32.5,-4 C32.5,-5.4 32.2,-6.8 31.5,-8.1"/>
<path class="Note" transform="matrix(1.89921,0,0,1.89921,2187.57,474.449)" d="M18.7,-13.6 C4.9,-13.6 0,-6.6 0,-0.1 C0,6.4 4.9,13.4 18.7,13.4 C32.5,13.4 37.3,6.4 37.3,-0.1 C37.3,-6.6 32.5,-13.6 18.7,-13.6 M10.4,-4.5 C10.3,-4.9 10.3,-5.3 10.3,-5.7 C10.3,-6.5 10.5,-7.3 10.9,-8 C11.6,-9 12.8,-9.7 14.3,-10 C15.6,-10.3 16.3,-10.5 18.9,-10.5 L19,-10.5 C23,-10.5 24.3,-6.8 25.4,-3 L25.7,-2 C26.5,0.6 26.9,2.8 26.9,4.5 C26.9,5.7 26.7,6.8 26.3,7.6 C25.7,8.7 24.7,9.4 23,9.8 C22.1,10 20.6,10.1 20.6,10.1 C20.1,10.1 19.7,10.2 19.3,10.2 C16.1,10.2 14.1,9 12.7,4.7 C11.5,1 11.3,-0.1 10.4,-4.5"/>
<path class="Note" transform="matrix(1.89921,0,0,1.89921,2571.17,474.449)" d="M31.5,-8.1 C29.7,-11.4 25.9,-13.2 21.3,-13.2 C17.9,-13.2 14.2,-12.2 10.6,-10.3 C4,-6.8 0,-0.9 0,4.2 C0,5.6 0.3,7 1,8.3 C2.8,11.6 6.6,13.3 11.2,13.3 C14.6,13.3 18.3,12.4 21.9,10.5 C28.5,7 32.5,1.1 32.5,-4 C32.5,-5.4 32.2,-6.8 31.5,-8.1"/>
<path class="Note" transform="matrix(1.89921,0,0,1.89921,2674.54,498.189)" d="M31.5,-8.1 C29.7,-11.4 25.9,-13.2 21.3,-13.2 C17.9,-13.2 14.2,-12.2 10.6,-10.3 C4,-6.8 0,-0.9 0,4.2 C0,5.6 0.3,7 1,8.3 C2.8,11.6 6.6,13.3 11.2,13.3 C14.6,13.3 18.3,12.4 21.9,10.5 C28.5,7 32.5,1.1 32.5,-4 C32.5,-5.4 32.2,-6.8 31.5,-8.1"/>
<path class="Note" transform="matrix(1.89921,0,0,1.89921,2777.91,521.929)" d="M31.5,-8.1 C29.7,-11.4 25.9,-13.2 21.3,-13.2 C17.9,-13.2 14.2,-12.2 10.6,-10.3 C4,-6.8 0,-0.9 0,4.2 C0,5.6 0.3,7 1,8.3 C2.8,11.6 6.6,13.3 11.2,13.3 C14.6,13.3 18.3,12.4 21.9,10.5 C28.5,7 32.5,1.1 32.5,-4 C32.5,-5.4 32.2,-6.8 31.5,-8.1"/>
<path class="Note" transform="matrix(1.89921,0,0,1.89921,2992.98,426.968)" d="M31.5,-8.1 C29.7,-11.4 25.9,-13.2 21.3,-13.2 C17.9,-13.2 14.2,-12.2 10.6,-10.3 C4,-6.8 0,-0.9 0,4.2 C0,5.6 0.3,7 1,8.3 C2.8,11.6 6.6,13.3 11.2,13.3 C14.6,13.3 18.3,12.4 21.9,10.5 C28.5,7 32.5,1.1 32.5,-4 C32.5,-5.4 32.2,-6.8 31.5,-8.1"/>
<path class="Note" transform="matrix(1.89921,0,0,1.89921,3096.36,450.709)" d="M31.5,-8.1 C29.7,-11.4 25.9,-13.2 21.3,-13.2 C17.9,-13.2 14.2,-12.2 10.6,-10.3 C4,-6.8 0,-0.9 0,4.2 C0,5.6 0.3,7 1,8.3 C2.8,11.6 6.6,13.3 11.2,13.3 C14.6,13.3 18.3,12.4 21.9,10.5 C28.5,7 32.5,1.1 32.5,-4 C32.5,-5.4 32.2,-6.8 31.5,-8.1"/>
<path class="Note" transform="matrix(1.89921,0,0,1.89921,3199.73,498.189)" d="M31.5,-8.1 C29.7,-11.4 25.9,-13.2 21.3,-13.2 C17.9,-13.2 14.2,-12.2 10.6,-10.3 C4,-6.8 0,-0.9 0,4.2 C0,5.6 0.3,7 1,8.3 C2.8,11.6 6.6,13.3 11.2,13.3 C14.6,13.3 18.3,12.4 21.9,10.5 C28.5,7 32.5,1.1 32.5,-4 C32.5,-5.4 32.2,-6.8 31.5,-8.1"/>
<path class="Note" transform="matrix(1.89921,0,0,1.89921,3303.11,545.669)" d="M31.5,-8.1 C29.7,-11.4 25.9,-13.2 21.3,-13.2 C17.9,-13.2 14.2,-12.2 10.6,-10.3 C4,-6.8 0,-0.9 0,4.2 C0,5.6 0.3,7 1,8.3 C2.8,11.6 6.6,13.3 11.2,13.3 C14.6,13.3 18.3,12.4 21.9,10.5 C28.5,7 32.5,1.1 32.5,-4 C32.5,-5.4 32.2,-6.8 31.5,-8.1"/>
<path class="Note" transform="matrix(1.89921,0,0,1.89921,3518.18,450.709)" d="M31.5,-8.1 C29.7,-11.4 25.9,-13.2 21.3,-13.2 C17.9,-13.2 14.2,-12.2 10.6,-10.3 C4,-6.8 0,-0.9 0,4.2 C0,5.6 0.3,7 1,8.3 C2.8,11.6 6.6,13.3 11.2,13.3 C14.6,13.3 18.3,12.4 21.9,10.5 C28.5,7 32.5,1.1 32.5,-4 C32.5,-5.4 32.2,-6.8 31.5,-8.1"/>
<path class="Note" transform="matrix(1.89921,0,0,1.89921,3646.97,474.449)" d="M31.5,-8.1 C29.7,-11.4 25.9,-13.2 21.3,-13.2 C17.9,-13.2 14.2,-12.2 10.6,-10.3 C4,-6.8 0,-0.9 0,4.2 C0,5.6 0.3,7 1,8.3 C2.8,11.6 6.6,13.3 11.2,13.3 C14.6,13.3 18.3,12.4 21.9,10.5 C28.5,7 32.5,1.1 32.5,-4 C32.5,-5.4 32.2,-6.8 31.5,-8.1"/>
<path class="Note" transform="matrix(1.89921,0,0,1.89921,3775.77,521.929)" d="M31.5,-8.1 C29.7,-11.4 25.9,-13.2 21.3,-13.2 C17.9,-13.2 14.2,-12.2 10.6,-10.3 C4,-6.8 0,-0.9 0,4.2 C0,5.6 0.3,7 1,8.3 C2.8,11.6 6.6,13.3 11.2,13.3 C14.6,13.3 18.3,12.4 21.9,10.5 C28.5,7 32.5,1.1 32.5,-4 C32.5,-5.4 32.2,-6.8 31.5,-8.1"/>
<path class="Note" transform="matrix(1.89921,0,0,1.89921,3915.63,569.409)" d="M31.5,-8.1 C29.7,-11.4 25.9,-13.2 21.3,-13.2 C17.9,-13.2 14.2,-12.2 10.6,-10.3 C4,-6.8 0,-0.9 0,4.2 C0,5.6 0.3,7 1,8.3 C2.8,11.6 6.6,13.3 11.2,13.3 C14.6,13.3 18.3,12.4 21.9,10.5 C28.5,7 32.5,1.1 32.5,-4 C32.5,-5.4 32.2,-6.8 31.5,-8.1"/>
<path class="Note" transform="matrix(1.89921,0,0,1.89921,3996.13,545.669)" d="M31.5,-8.1 C29.7,-11.4 25.9,-13.2 21.3,-13.2 C17.9,-13.2 14.2,-12.2 10.6,-10.3 C4,-6.8 0,-0.9 0,4.2 C0,5.6 0.3,7 1,8.3 C2.8,11.6 6.6,13.3 11.2,13.3 C14.6,13.3 18.3,12.4 21.9,10.5 C28.5,7 32.5,1.1 32.5,-4 C32.5,-5.4 32.2,-6.8 31.5,-8.1"/>
<path class="Note" transform="matrix(1.89921,0,0,1.89921,482.58,1323.42)" d="M18.7,-13.6 C4.9,-13.6 0,-6.6 0,-0.1 C0,6.4 4.9,13.4 18.7,13.4 C32.5,13.4 37.3,6.4 37.3,-0.1 C37.3,-6.6 32.5,-13.6 18.7,-13.6 M10.4,-4.5 C10.3,-4.9 10.3,-5.3 10.3,-5.7 C10.3,-6.5 10.5,-7.3 10.9,-8 C11.6,-9 12.8,-9.7 14.3,-10 C15.6,-10.3 16.3,-10.5 18.9,-10.5 L19,-10.5 C23,-10.5 24.3,-6.8 25.4,-3 L25.7,-2 C26.5,0.6 26.9,2.8 26.9,4.5 C26.9,5.7 26.7,6.8 26.3,7.6 C25.7,8.7 24.7,9.4 23,9.8 C22.1,10 20.6,10.1 20.6,10.1 C20.1,10.1 19.7,10.2 19.3,10.2 C16.1,10.2 14.1,9 12.7,4.7 C11.5,1 11.3,-0.1 10.4,-4.5"/>
<path class="Note" transform="matrix(1.89921,0,0,1.89921,931.569,1323.42)" d="M31.5,-8.1 C29.7,-11.4 25.9,-13.2 21.3,-13.2 C17.9,-13.2 14.2,-12.2 10.6,-10.3 C4,-6.8 0,-0.9 0,4.2 C0,5.6 0.3,7 1,8.3 C2.8,11.6 6.6,13.3 11.2,13.3 C14.6,13.3 18.3,12.4 21.9,10.5 C28.5,7 32.5,1.1 32.5,-4 C32.5,-5.4 32.2,-6.8 31.5,-8.1"/>
<path class="Note" transform="matrix(1.89921,0,0,1.89921,1053.22,1299.68)" d="M31.5,-8.1 C29.7,-11.4 25.9,-13.2 21.3,-13.2 C17.9,-13.2 14.2,-12.2 10.6,-10.3 C4,-6.8 0,-0.9 0,4.2 C0,5.6 0.3,7 1,8.3 C2.8,11.6 6.6,13.3 11.2,13.3 C14.6,13.3 18.3,12.4 21.9,10.5 C28.5,7 32.5,1.1 32.5,-4 C32.5,-5.4 32.2,-6.8 31.5,-8.1"/>
<path class="Note" transform="matrix(1.89921,0,0,1.89921,1174.88,1275.94)" d="M31.5,-8.1 C29.7,-11.4 25.9,-13.2 21.3,-13.2 C17.9,-13.2 14.2,-12.2 10.6,-10.3 C4,-6.8 0,-0.9 0,4.2 C0,5.6 0.3,7 1,8.3 C2.8,11.6 6.6,13.3 11.2,13.3 C14.6,13.3 18.3,12.4 21.9,10.5 C28.5,7 32.5,1.1 32.5,-4 C32.5,-5.4 32.2,-6.8 31.5,-8.1"/>
<path class="Note" transform="matrix(1.89921,0,0,1.89921,1640.02,1275.94)" d="M31.5,-8.1 C29.7,-11.4 25.9,-13.2 21.3,-13.2 C17.9,-13.2 14.2,-12.2 10.6,-10.3 C4,-6.8 0,-0.9 0,4.2 C0,5.6 0.3,7 1,8.3 C2.8,11.6 6.6,13.3 11.2,13.3 C14.6,13.3 18.3,12.4 21.9,10.5 C28.5,7 32.5,1.1 32.5,-4 C32.5,-5.4 32.2,-6.8 31.5,-8.1"/>
<path class="Note" transform="matrix(1.89921,0,0,1.89921,1735.23,1275.94)" d="M31.5,-8.1 C29.7,-11.4 25.9,-13.2 21.3,-13.2 C17.9,-13.2 14.2,-12.2 10.6,-10.3 C4,-6.8 0,-0.9 0,4.2 C0,5.6 0.3,7 1,8.3 C2.8,11.6 6.6,13.3 11.2,13.3 C14.6,13.3 18.3,12.4 21.9,10.5 C28.5,7 32.5,1.1 32.5,-4 C32.5,-5.4 32.2,-6.8 31.5,-8.1"/>
<path class="Note" transform="matrix(1.89921,0,0,1.89921,1830.44,1275.94)" d="M31.5,-8.1 C29.7,-11.4 25.9,-13.2 21.3,-13.2 C17.9,-13.2 14.2,-12.2 10.6,-10.3 C4,-6.8 0,-0.9 0,4.2 C0,5.6 0.3,7 1,8.3 C2.8,11.6 6.6,13.3 11.2,13.3 C14.6,13.3 18.3,12.4 21.9,10.5 C28.5,7 32.5,1.1 32.5,-4 C32.5,-5.4 32.2,-6.8 31.5,-8.1"/>
<path class="Note" transform="matrix(1.89921,0,0,1.89921,1925.65,1275.94)" d="M31.5,-8.1 C29.7,-11.4 25.9,-13.2 21.3,-13.2 C17.9,-13.2 14.2,-12.2 10.6,-10.3 C4,-6.8 0,-0.9 0,4.2 C0,5.6 0.3,7 1,8.3 C2.8,11.6 6.6,13.3 11.2,13.3 C14.6,13.3 18.3,12.4 21.9,10.5 C28.5,7 32.5,1.1 32.5,-4 C32.5,-5.4 32.2,-6.8 31.5,-8.1"/>
<path class="Note" transform="matrix(1.89921,0,0,1.89921,2020.87,1252.2)" d="M31.5,-8.1 C29.7,-11.4 25.9,-13.2 21.3,-13.2 C17.9,-13.2 14.2,-12.2 10.6,-10.3 C4,-6.8 0,-0.9 0,4.2 C0,5.6 0.3,7 1,8.3 C2.8,11.6 6.6,13.3 11.2,13.3 C14.6,13.3 18.3,12.4 21.9,10.5 C28.5,7 32.5,1.1 32.5,-4 C32.5,-5.4 32.2,-6.8 31.5,-8.1"/>
<path class="Note" transform="matrix(1.89921,0,0,1.89921,2235.94,1275.94)" d="M31.5,-8.1 C29.7,-11.4 25.9,-13.2 21.3,-13.2 C17.9,-13.2 14.2,-12.2 10.6,-10.3 C4,-6.8 0,-0.9 0,4.2 C0,5.6 0.3,7 1,8.3 C2.8,11.6 6.6,13.3 11.2,13.3 C14.6,13.3 18.3,12.4 21.9,10.5 C28.5,7 32.5,1.1 32.5,-4 C32.5,-5.4 32.2,-6.8 31.5,-8.1"/>
<path class="Note" transform="matrix(1.89921,0,0,1.89921,2374.7,1299.68)" d="M31.5,-8.1 C29.7,-11.4 25.9,-13.2 21.3,-13.2 C17.9,-13.2 14.2,-12.2 10.6,-10.3 C4,-6.8 0,-0.9 0,4.2 C0,5.6 0.3,7 1,8.3 C2.8,11.6 6.6,13.3 11.2,13.3 C14.6,13.3 18.3,12.4 21.9,10.5 C28.5,7 32.5,1.1 32.5,-4 C32.5,-5.4 32.2,-6.8 31.5,-8.1"/>
<path class="Note" transform="matrix(1.89921,0,0,1.89921,2461.43,1204.72)" d="M31.5,-8.1 C29.7,-11.4 25.9,-13.2 21.3,-13.2 C17.9,-13.2 14.2,-12.2 10.6,-10.3 C4,-6.8 0,-0.9 0,4.2 C0,5.6 0.3,7 1,8.3 C2.8,11.6 6.6,13.3 11.2,13.3 C14.6,13.3 18.3,12.4 21.9,10.5 C28.5,7 32.5,1.1 32.5,-4 C32.5,-5.4 32.2,-6.8 31.5,-8.1"/>
<path class="Note" transform="matrix(1.89921,0,0,1.89921,2548.16,1204.72)" d="M31.5,-8.1 C29.7,-11.4 25.9,-13.2 21.3,-13.2 C17.9,-13.2 14.2,-12.2 10.6,-10.3 C4,-6.8 0,-0.9 0,4.2 C0,5.6 0.3,7 1,8.3 C2.8,11.6 6.6,13.3 11.2,13.3 C14.6,13.3 18.3,12.4 21.9,10.5 C28.5,7 32.5,1.1 32.5,-4 C32.5,-5.4 32.2,-6.8 31.5,-8.1 M27.2,-1.3 C25.5,0.4 22.1,2.5 18.5,4.5 C14.9,6.5 11.3,8 8.9,8.5 C8.4,8.6 7.9,8.7 7.4,8.7 C5.8,8.7 4.6,8.1 3.9,6.8 C3.6,6.3 3.4,5.7 3.4,5.1 C3.4,4 4.1,2.7 5.2,1.6 C6.9,-0.1 10.2,-2.2 13.8,-4.2 C17.4,-6.2 21,-7.7 23.4,-8.2 C23.9,-8.3 24.4,-8.4 24.9,-8.4 C26.5,-8.4 27.8,-7.8 28.5,-6.5 C28.8,-6 28.9,-5.4 28.9,-4.8 C28.9,-3.7 28.3,-2.5 27.2,-1.3"/>
<path class="Note" transform="matrix(1.89921,0,0,1.89921,2996.66,1299.68)" d="M31.5,-8.1 C29.7,-11.4 25.9,-13.2 21.3,-13.2 C17.9,-13.2 14.2,-12.2 10.6,-10.3 C4,-6.8 0,-0.9 0,4.2 C0,5.6 0.3,7 1,8.3 C2.8,11.6 6.6,13.3 11.2,13.3 C14.6,13.3 18.3,12.4 21.9,10.5 C28.5,7 32.5,1.1 32.5,-4 C32.5,-5.4 32.2,-6.8 31.5,-8.1"/>
<path class="Note" transform="matrix(1.89921,0,0,1.89921,3122.75,1299.68)" d="M31.5,-8.1 C29.7,-11.4 25.9,-13.2 21.3,-13.2 C17.9,-13.2 14.2,-12.2 10.6,-10.3 C4,-6.8 0,-0.9 0,4.2 C0,5.6 0.3,7 1,8.3 C2.8,11.6 6.6,13.3 11.2,13.3 C14.6,13.3 18.3,12.4 21.9,10.5 C28.5,7 32.5,1.1 32.5,-4 C32.5,-5.4 32.2,-6.8 31.5,-8.1"/>
<path class="Note" transform="matrix(1.89921,0,0,1.89921,3218.82,1299.68)" d="M31.5,-8.1 C29.7,-11.4 25.9,-13.2 21.3,-13.2 C17.9,-13.2 14.2,-12.2 10.6,-10.3 C4,-6.8 0,-0.9 0,4.2 C0,5.6 0.3,7 1,8.3 C2.8,11.6 6.6,13.3 11.2,13.3 C14.6,13.3 18.3,12.4 21.9,10.5 C28.5,7 32.5,1.1 32.5,-4 C32.5,-5.4 32.2,-6.8 31.5,-8.1"/>
<path class="Note" transform="matrix(1.89921,0,0,1.89921,3314.89,1299.68)" d="M31.5,-8.1 C29.7,-11.4 25.9,-13.2 21.3,-13.2 C17.9,-13.2 14.2,-12.2 10.6,-10.3 C4,-6.8 0,-0.9 0,4.2 C0,5.6 0.3,7 1,8.3 C2.8,11.6 6.6,13.3 11.2,13.3 C14.6,13.3 18.3,12.4 21.9,10.5 C28.5,7 32.5,1.1 32.5,-4 C32.5,-5.4 32.2,-6.8 31.5,-8.1"/>
<path class="Note" transform="matrix(1.89921,0,0,1.89921,3410.96,1275.94)" d="M31.5,-8.1 C29.7,-11.4 25.9,-13.2 21.3,-13.2 C17.9,-13.2 14.2,-12.2 10.6,-10.3 C4,-6.8 0,-0.9 0,4.2 C0,5.6 0.3,7 1,8.3 C2.8,11.6 6.6,13.3 11.2,13.3 C14.6,13.3 18.3,12.4 21.9,10.5 C28.5,7 32.5,1.1 32.5,-4 C32.5,-5.4 32.2,-6.8 31.5,-8.1"/>
<path class="Note" transform="matrix(1.89921,0,0,1.89921,3626.03,1299.68)" d="M31.5,-8.1 C29.7,-11.4 25.9,-13.2 21.3,-13.2 C17.9,-13.2 14.2,-12.2 10.6,-10.3 C4,-6.8 0,-0.9 0,4.2 C0,5.6 0.3,7 1,8.3 C2.8,11.6 6.6,13.3 11.2,13.3 C14.6,13.3 18.3,12.4 21.9,10.5 C28.5,7 32.5,1.1 32.5,-4 C32.5,-5.4 32.2,-6.8 31.5,-8.1"/>
<path class="Note" transform="matrix(1.89921,0,0,1.89921,3764.79,1323.42)" d="M31.5,-8.1 C29.7,-11.4 25.9,-13.2 21.3,-13.2 C17.9,-13.2 14.2,-12.2 10.6,-10.3 C4,-6.8 0,-0.9 0,4.2 C0,5.6 0.3,7 1,8.3 C2.8,11.6 6.6,13.3 11.2,13.3 C14.6,13.3 18.3,12.4 21.9,10.5 C28.5,7 32.5,1.1 32.5,-4 C32.5,-5.4 32.2,-6.8 31.5,-8.1"/>
<path class="Note" transform="matrix(1.89921,0,0,1.89921,3851.52,1228.46)" d="M31.5,-8.1 C29.7,-11.4 25.9,-13.2 21.3,-13.2 C17.9,-13.2 14.2,-12.2 10.6,-10.3 C4,-6.8 0,-0.9 0,4.2 C0,5.6 0.3,7 1,8.3 C2.8,11.6 6.6,13.3 11.2,13.3 C14.6,13.3 18.3,12.4 21.9,10.5 C28.5,7 32.5,1.1 32.5,-4 C32.5,-5.4 32.2,-6.8 31.5,-8.1"/>
<path class="Note" transform="matrix(1.89921,0,0,1.89921,3938.25,1228.46)" d="M31.5,-8.1 C29.7,-11.4 25.9,-13.2 21.3,-13.2 C17.9,-13.2 14.2,-12.2 10.6,-10.3 C4,-6.8 0,-0.9 0,4.2 C0,5.6 0.3,7 1,8.3 C2.8,11.6 6.6,13.3 11.2,13.3 C14.6,13.3 18.3,12.4 21.9,10.5 C28.5,7 32.5,1.1 32.5,-4 C32.5,-5.4 32.2,-6.8 31.5,-8.1 M27.2,-1.3 C25.5,0.4 22.1,2.5 18.5,4.5 C14.9,6.5 11.3,8 8.9,8.5 C8.4,8.6 7.9,8.7 7.4,8.7 C5.8,8.7 4.6,8.1 3.9,6.8 C3.6,6.3 3.4,5.7 3.4,5.1 C3.4,4 4.1,2.7 5.2,1.6 C6.9,-0.1 10.2,-2.2 13.8,-4.2 C17.4,-6.2 21,-7.7 23.4,-8.2 C23.9,-8.3 24.4,-8.4 24.9,-8.4 C26.5,-8.4 27.8,-7.8 28.5,-6.5 C28.8,-6 28.9,-5.4 28.9,-4.8 C28.9,-3.7 28.3,-2.5 27.2,-1.3"/>
<path class="Note" transform="matrix(1.89921,0,0,1.89921,648.83,2172.4)" d="M31.5,-8.1 C29.7,-11.4 25.9,-13.2 21.3,-13.2 C17.9,-13.2 14.2,-12.2 10.6,-10.3 C4,-6.8 0,-0.9 0,4.2 C0,5.6 0.3,7 1,8.3 C2.8,11.6 6.6,13.3 11.2,13.3 C14.6,13.3 18.3,12.4 21.9,10.5 C28.5,7 32.5,1.1 32.5,-4 C32.5,-5.4 32.2,-6.8 31.5,-8.1"/>
<path class="Note" transform="matrix(1.89921,0,0,1.89921,815.08,2101.18)" d="M31.5,-8.1 C29.7,-11.4 25.9,-13.2 21.3,-13.2 C17.9,-13.2 14.2,-12.2 10.6,-10.3 C4,-6.8 0,-0.9 0,4.2 C0,5.6 0.3,7 1,8.3 C2.8,11.6 6.6,13.3 11.2,13.3 C14.6,13.3 18.3,12.4 21.9,10.5 C28.5,7 32.5,1.1 32.5,-4 C32.5,-5.4 32.2,-6.8 31.5,-8.1"/>
<path class="Note" transform="matrix(1.89921,0,0,1.89921,981.33,2172.4)" d="M31.5,-8.1 C29.7,-11.4 25.9,-13.2 21.3,-13.2 C17.9,-13.2 14.2,-12.2 10.6,-10.3 C4,-6.8 0,-0.9 0,4.2 C0,5.6 0.3,7 1,8.3 C2.8,11.6 6.6,13.3 11.2,13.3 C14.6,13.3 18.3,12.4 21.9,10.5 C28.5,7 32.5,1.1 32.5,-4 C32.5,-5.4 32.2,-6.8 31.5,-8.1"/>
<path class="Note" transform="matrix(1.89921,0,0,1.89921,1085.24,2148.66)" d="M31.5,-8.1 C29.7,-11.4 25.9,-13.2 21.3,-13.2 C17.9,-13.2 14.2,-12.2 10.6,-10.3 C4,-6.8 0,-0.9 0,4.2 C0,5.6 0.3,7 1,8.3 C2.8,11.6 6.6,13.3 11.2,13.3 C14.6,13.3 18.3,12.4 21.9,10.5 C28.5,7 32.5,1.1 32.5,-4 C32.5,-5.4 32.2,-6.8 31.5,-8.1"/>
<path class="Note" transform="matrix(1.89921,0,0,1.89921,1300.31,2148.66)" d="M31.5,-8.1 C29.7,-11.4 25.9,-13.2 21.3,-13.2 C17.9,-13.2 14.2,-12.2 10.6,-10.3 C4,-6.8 0,-0.9 0,4.2 C0,5.6 0.3,7 1,8.3 C2.8,11.6 6.6,13.3 11.2,13.3 C14.6,13.3 18.3,12.4 21.9,10.5 C28.5,7 32.5,1.1 32.5,-4 C32.5,-5.4 32.2,-6.8 31.5,-8.1"/>
<path class="Note" transform="matrix(1.89921,0,0,1.89921,1466.56,2101.18)" d="M31.5,-8.1 C29.7,-11.4 25.9,-13.2 21.3,-13.2 C17.9,-13.2 14.2,-12.2 10.6,-10.3 C4,-6.8 0,-0.9 0,4.2 C0,5.6 0.3,7 1,8.3 C2.8,11.6 6.6,13.3 11.2,13.3 C14.6,13.3 18.3,12.4 21.9,10.5 C28.5,7 32.5,1.1 32.5,-4 C32.5,-5.4 32.2,-6.8 31.5,-8.1"/>
<path class="Note" transform="matrix(1.89921,0,0,1.89921,1632.81,2077.44)" d="M31.5,-8.1 C29.7,-11.4 25.9,-13.2 21.3,-13.2 C17.9,-13.2 14.2,-12.2 10.6,-10.3 C4,-6.8 0,-0.9 0,4.2 C0,5.6 0.3,7 1,8.3 C2.8,11.6 6.6,13.3 11.2,13.3 C14.6,13.3 18.3,12.4 21.9,10.5 C28.5,7 32.5,1.1 32.5,-4 C32.5,-5.4 32.2,-6.8 31.5,-8.1"/>
<path class="Note" transform="matrix(1.89921,0,0,1.89921,1799.06,2053.7)" d="M31.5,-8.1 C29.7,-11.4 25.9,-13.2 21.3,-13.2 C17.9,-13.2 14.2,-12.2 10.6,-10.3 C4,-6.8 0,-0.9 0,4.2 C0,5.6 0.3,7 1,8.3 C2.8,11.6 6.6,13.3 11.2,13.3 C14.6,13.3 18.3,12.4 21.9,10.5 C28.5,7 32.5,1.1 32.5,-4 C32.5,-5.4 32.2,-6.8 31.5,-8.1"/>
<path class="Note" transform="matrix(1.89921,0,0,1.89921,1902.96,2006.22)" d="M31.5,-8.1 C29.7,-11.4 25.9,-13.2 21.3,-13.2 C17.9,-13.2 14.2,-12.2 10.6,-10.3 C4,-6.8 0,-0.9 0,4.2 C0,5.6 0.3,7 1,8.3 C2.8,11.6 6.6,13.3 11.2,13.3 C14.6,13.3 18.3,12.4 21.9,10.5 C28.5,7 32.5,1.1 32.5,-4 C32.5,-5.4 32.2,-6.8 31.5,-8.1"/>
<path class="Note" transform="matrix(1.89921,0,0,1.89921,2118.04,2006.22)" d="M31.5,-8.1 C29.7,-11.4 25.9,-13.2 21.3,-13.2 C17.9,-13.2 14.2,-12.2 10.6,-10.3 C4,-6.8 0,-0.9 0,4.2 C0,5.6 0.3,7 1,8.3 C2.8,11.6 6.6,13.3 11.2,13.3 C14.6,13.3 18.3,12.4 21.9,10.5 C28.5,7 32.5,1.1 32.5,-4 C32.5,-5.4 32.2,-6.8 31.5,-8.1"/>
<path class="Note" transform="matrix(1.89921,0,0,1.89921,2284.29,2029.96)" d="M31.5,-8.1 C29.7,-11.4 25.9,-13.2 21.3,-13.2 C17.9,-13.2 14.2,-12.2 10.6,-10.3 C4,-6.8 0,-0.9 0,4.2 C0,5.6 0.3,7 1,8.3 C2.8,11.6 6.6,13.3 11.2,13.3 C14.6,13.3 18.3,12.4 21.9,10.5 C28.5,7 32.5,1.1 32.5,-4 C32.5,-5.4 32.2,-6.8 31.5,-8.1"/>
<path class="Note" transform="matrix(1.89921,0,0,1.89921,2450.54,2053.7)" d="M31.5,-8.1 C29.7,-11.4 25.9,-13.2 21.3,-13.2 C17.9,-13.2 14.2,-12.2 10.6,-10.3 C4,-6.8 0,-0.9 0,4.2 C0,5.6 0.3,7 1,8.3 C2.8,11.6 6.6,13.3 11.2,13.3 C14.6,13.3 18.3,12.4 21.9,10.5 C28.5,7 32.5,1.1 32.5,-4 C32.5,-5.4 32.2,-6.8 31.5,-8.1"/>
<path class="Note" transform="matrix(1.89921,0,0,1.89921,2616.79,2077.44)" d="M31.5,-8.1 C29.7,-11.4 25.9,-13.2 21.3,-13.2 C17.9,-13.2 14.2,-12.2 10.6,-10.3 C4,-6.8 0,-0.9 0,4.2 C0,5.6 0.3,7 1,8.3 C2.8,11.6 6.6,13.3 11.2,13.3 C14.6,13.3 18.3,12.4 21.9,10.5 C28.5,7 32.5,1.1 32.5,-4 C32.5,-5.4 32.2,-6.8 31.5,-8.1"/>
<path class="Note" transform="matrix(1.89921,0,0,1.89921,2720.69,2101.18)" d="M31.5,-8.1 C29.7,-11.4 25.9,-13.2 21.3,-13.2 C17.9,-13.2 14.2,-12.2 10.6,-10.3 C4,-6.8 0,-0.9 0,4.2 C0,5.6 0.3,7 1,8.3 C2.8,11.6 6.6,13.3 11.2,13.3 C14.6,13.3 18.3,12.4 21.9,10.5 C28.5,7 32.5,1.1 32.5,-4 C32.5,-5.4 32.2,-6.8 31.5,-8.1"/>
<path class="Note" transform="matrix(1.89921,0,0,1.89921,2931.2,2101.18)" d="M18.7,-13.6 C4.9,-13.6 0,-6.6 0,-0.1 C0,6.4 4.9,13.4 18.7,13.4 C32.5,13.4 37.3,6.4 37.3,-0.1 C37.3,-6.6 32.5,-13.6 18.7,-13.6 M10.4,-4.5 C10.3,-4.9 10.3,-5.3 10.3,-5.7 C10.3,-6.5 10.5,-7.3 10.9,-8 C11.6,-9 12.8,-9.7 14.3,-10 C15.6,-10.3 16.3,-10.5 18.9,-10.5 L19,-10.5 C23,-10.5 24.3,-6.8 25.4,-3 L25.7,-2 C26.5,0.6 26.9,2.8 26.9,4.5 C26.9,5.7 26.7,6.8 26.3,7.6 C25.7,8.7 24.7,9.4 23,9.8 C22.1,10 20.6,10.1 20.6,10.1 C20.1,10.1 19.7,10.2 19.3,10.2 C16.1,10.2 14.1,9 12.7,4.7 C11.5,1 11.3,-0.1 10.4,-4.5"/>
<path class="Note" transform="matrix(1.89921,0,0,1.89921,3599.43,2101.18)" d="M31.5,-8.1 C29.7,-11.4 25.9,-13.2 21.3,-13.2 C17.9,-13.2 14.2,-12.2 10.6,-10.3 C4,-6.8 0,-0.9 0,4.2 C0,5.6 0.3,7 1,8.3 C2.8,11.6 6.6,13.3 11.2,13.3 C14.6,13.3 18.3,12.4 21.9,10.5 C28.5,7 32.5,1.1 32.5,-4 C32.5,-5.4 32.2,-6.8 31.5,-8.1"/>
<path class="Note" transform="matrix(1.89921,0,0,1.89921,3761.97,2077.44)" d="M31.5,-8.1 C29.7,-11.4 25.9,-13.2 21.3,-13.2 C17.9,-13.2 14.2,-12.2 10.6,-10.3 C4,-6.8 0,-0.9 0,4.2 C0,5.6 0.3,7 1,8.3 C2.8,11.6 6.6,13.3 11.2,13.3 C14.6,13.3 18.3,12.4 21.9,10.5 C28.5,7 32.5,1.1 32.5,-4 C32.5,-5.4 32.2,-6.8 31.5,-8.1"/>
<path class="Note" transform="matrix(1.89921,0,0,1.89921,3924.5,2053.7)" d="M31.5,-8.1 C29.7,-11.4 25.9,-13.2 21.3,-13.2 C17.9,-13.2 14.2,-12.2 10.6,-10.3 C4,-6.8 0,-0.9 0,4.2 C0,5.6 0.3,7 1,8.3 C2.8,11.6 6.6,13.3 11.2,13.3 C14.6,13.3 18.3,12.4 21.9,10.5 C28.5,7 32.5,1.1 32.5,-4 C32.5,-5.4 32.2,-6.8 31.5,-8.1"/>
<path class="Clef" transform="matrix(1.89921,0,0,1.89921,108.85,545.669)" d="M63.35,-5.86992 C62.12,-11.3 59.48,-15.1199 58.7,-16.16 C55.51,-20.43 51.5,-23.28 46.81,-24.63 C43.7,-25.5199 40.7,-25.63 38.28,-25.45 C37.24,-31.46 36.24,-37.3399 35.33,-42.7899 C40.78,-48.96 44.4,-54.76 46.68,-59.06 C50.15,-65.6399 51.3,-70.2199 51.35,-70.4199 C53.07,-75.63 53.43,-83.33 52.33,-91.5399 C51.32,-99.0899 49.23,-105.8 46.88,-109.05 C45.85,-110.48 44.8,-111.21 43.76,-111.21 C42.54,-111.21 40.03,-109.97 37.14,-107.2 C34.84,-105 31.57,-101.11 29.01,-95.1 C26.01,-88.0399 25.8,-78.55 26.15,-71.83 C26.53,-64.56 27.64,-58.8699 27.65,-58.8199 C27.67,-58.73 27.93,-57.23 28.38,-54.66 C28.15,-54.43 27.91,-54.21 27.66,-53.9699 C26.62,-52.9699 25.43,-51.83 24.05,-50.45 C23.19,-49.5899 22.24,-48.68 21.24,-47.71 C12.79,-39.5699 0,-27.25 0,-8.1 C0,-3.4 0.9,1.02002 2.67998,5.03008 C4.27002,8.63008 6.57002,11.9101 9.5,14.7801 C17.23,22.3301 27.82,25.54 34.88,25.3801 C37.83,25.3101 40.46,25.07 42.85,24.62 C44.68,34.22 45.82,41.25 45.86,46.59 C45.9,53.1 44.25,57.07 40.35,59.84 C37.92,61.57 35.11,62.52 32.01,62.67 C29.42,62.79 27.16,62.32 25.73,61.9101 L25.72,61.9101 C25.72,61.9101 25.43,61.8301 25.42,61.6301 C25.41,61.45 25.76,61.4 25.77,61.4 L25.79,61.4 C27.71,60.9601 31.28,59.7301 33.64,56.4301 C35.44,53.9101 36.31,49.29 34.47,45.35 C33.36,42.9601 30.85,40.0101 25.23,39.5601 C22.74,39.3601 20.47,39.87 18.47,41.07 C16.66,42.15 15.16,43.79 14.11,45.79 C11.65,50.49 12.11,56.22 15.24,60.0601 C18.2,63.6801 22.82,65.99 28.25,66.57 C29.1,66.6601 29.95,66.7 30.8,66.7 C35.23,66.7 39.63,65.5 43.2,63.29 C46.86,60.72 48.98,56.74 49.66,51.1101 C50.22,46.47 49.83,40.5601 48.43,32.49 C48.07,30.4 47.53,27.37 46.87,23.6101 C52.62,21.69 56.78,18.12 60.55,12.27 C63.84,6.53008 64.78,0.430078 63.35,-5.86992 M29.14,20.32 C24.5,19.1 20.07,16.6 16.31,13.1 C15,11.87 13.13,9.7 11.66,6.31006 C10.29,3.15 9.62998,-0.27998 9.67998,-3.86992 C9.75,-8.55996 11.06,-13.38 13.57,-18.1699 C16.49,-23.75 21.05,-29.28 27.11,-34.61 C28.56,-35.8899 29.93,-37.1699 31.22,-38.45 C31.98,-34.1899 32.81,-29.5 33.69,-24.6199 C29.84,-23.35 25.09,-20.2 21.98,-14.55 C18.44,-7.97998 18.58,-2.45996 19.31,1.02002 C20.25,5.48008 22.78,9.24004 26.24,11.3301 C27.17,11.89 31.3,14.02 33.14,13.44 C33.51,13.32 33.78,13.1 33.92,12.77 C34.43,11.6 33.41,10.9601 31.85,10 C31.25,9.63008 30.58,9.21006 29.85,8.68008 C26.53,6.19004 25.08,1.74004 26.15,-2.63994 C26.73,-5.03994 28.01,-7.2 29.85,-8.9 C31.52,-10.45 33.56,-11.55 35.94,-12.1899 C37.98,-0.95 40.04,10.2 41.68,18.5601 C41.81,19.25 41.95,19.92 42.08,20.59 C37.7,21.52 33.35,21.4301 29.14,20.32 M40.46,-12.86 C50.81,-13.33 55.08,-5.88994 55.97,-1.05996 C56.44,1.47002 56.43,5.91006 54.89,10.12 C53.72,13.3 51.26,17.37 46.13,19.4301 C46.06,19.0101 45.98,18.5801 45.9,18.15 C44.36,9.38008 42.42,-1.60996 40.46,-12.86 M33.14,-83.8 C34.92,-89.5399 37.66,-92.7899 39.65,-94.5199 C41.4,-96.0399 43.05,-96.75 43.97,-96.75 C44.11,-96.75 44.23,-96.73 44.33,-96.7 C44.79,-96.56 45.32,-95.9899 45.79,-95.1199 C48.1,-90.83 47.36,-84.1199 46.02,-79.68 C44.39,-74.28 41.47,-68.66 32.67,-59.05 C32.5,-60.16 32.34,-61.21 32.19,-62.1899 C30.94,-70.48 31.26,-77.75 33.14,-83.8"/>
<path class="Clef" transform="matrix(1.89921,0,0,1.89921,108.85,1323.42)" d="M63.35,-5.86992 C62.12,-11.3 59.48,-15.1199 58.7,-16.16 C55.51,-20.43 51.5,-23.28 46.81,-24.63 C43.7,-25.5199 40.7,-25.63 38.28,-25.45 C37.24,-31.46 36.24,-37.3399 35.33,-42.7899 C40.78,-48.96 44.4,-54.76 46.68,-59.06 C50.15,-65.6399 51.3,-70.2199 51.35,-70.4199 C53.07,-75.63 53.43,-83.33 52.33,-91.5399 C51.32,-99.0899 49.23,-105.8 46.88,-109.05 C45.85,-110.48 44.8,-111.21 43.76,-111.21 C42.54,-111.21 40.03,-109.97 37.14,-107.2 C34.84,-105 31.57,-101.11 29.01,-95.1 C26.01,-88.0399 25.8,-78.55 26.15,-71.83 C26.53,-64.56 27.64,-58.8699 27.65,-58.8199 C27.67,-58.73 27.93,-57.23 28.38,-54.66 C28.15,-54.43 27.91,-54.21 27.66,-53.9699 C26.62,-52.9699 25.43,-51.83 24.05,-50.45 C23.19,-49.5899 22.24,-48.68 21.24,-47.71 C12.79,-39.5699 0,-27.25 0,-8.1 C0,-3.4 0.9,1.02002 2.67998,5.03008 C4.27002,8.63008 6.57002,11.9101 9.5,14.7801 C17.23,22.3301 27.82,25.54 34.88,25.3801 C37.83,25.3101 40.46,25.07 42.85,24.62 C44.68,34.22 45.82,41.25 45.86,46.59 C45.9,53.1 44.25,57.07 40.35,59.84 C37.92,61.57 35.11,62.52 32.01,62.67 C29.42,62.79 27.16,62.32 25.73,61.9101 L25.72,61.9101 C25.72,61.9101 25.43,61.8301 25.42,61.6301 C25.41,61.45 25.76,61.4 25.77,61.4 L25.79,61.4 C27.71,60.9601 31.28,59.7301 33.64,56.4301 C35.44,53.9101 36.31,49.29 34.47,45.35 C33.36,42.9601 30.85,40.0101 25.23,39.5601 C22.74,39.3601 20.47,39.87 18.47,41.07 C16.66,42.15 15.16,43.79 14.11,45.79 C11.65,50.49 12.11,56.22 15.24,60.0601 C18.2,63.6801 22.82,65.99 28.25,66.57 C29.1,66.6601 29.95,66.7 30.8,66.7 C35.23,66.7 39.63,65.5 43.2,63.29 C46.86,60.72 48.98,56.74 49.66,51.1101 C50.22,46.47 49.83,40.5601 48.43,32.49 C48.07,30.4 47.53,27.37 46.87,23.6101 C52.62,21.69 56.78,18.12 60.55,12.27 C63.84,6.53008 64.78,0.430078 63.35,-5.86992 M29.14,20.32 C24.5,19.1 20.07,16.6 16.31,13.1 C15,11.87 13.13,9.7 11.66,6.31006 C10.29,3.15 9.62998,-0.27998 9.67998,-3.86992 C9.75,-8.55996 11.06,-13.38 13.57,-18.1699 C16.49,-23.75 21.05,-29.28 27.11,-34.61 C28.56,-35.8899 29.93,-37.1699 31.22,-38.45 C31.98,-34.1899 32.81,-29.5 33.69,-24.6199 C29.84,-23.35 25.09,-20.2 21.98,-14.55 C18.44,-7.97998 18.58,-2.45996 19.31,1.02002 C20.25,5.48008 22.78,9.24004 26.24,11.3301 C27.17,11.89 31.3,14.02 33.14,13.44 C33.51,13.32 33.78,13.1 33.92,12.77 C34.43,11.6 33.41,10.9601 31.85,10 C31.25,9.63008 30.58,9.21006 29.85,8.68008 C26.53,6.19004 25.08,1.74004 26.15,-2.63994 C26.73,-5.03994 28.01,-7.2 29.85,-8.9 C31.52,-10.45 33.56,-11.55 35.94,-12.1899 C37.98,-0.95 40.04,10.2 41.68,18.5601 C41.81,19.25 41.95,19.92 42.08,20.59 C37.7,21.52 33.35,21.4301 29.14,20.32 M40.46,-12.86 C50.81,-13.33 55.08,-5.88994 55.97,-1.05996 C56.44,1.47002 56.43,5.91006 54.89,10.12 C53.72,13.3 51.26,17.37 46.13,19.4301 C46.06,19.0101 45.98,18.5801 45.9,18.15 C44.36,9.38008 42.42,-1.60996 40.46,-12.86 M33.14,-83.8 C34.92,-89.5399 37.66,-92.7899 39.65,-94.5199 C41.4,-96.0399 43.05,-96.75 43.97,-96.75 C44.11,-96.75 44.23,-96.73 44.33,-96.7 C44.79,-96.56 45.32,-95.9899 45.79,-95.1199 C48.1,-90.83 47.36,-84.1199 46.02,-79.68 C44.39,-74.28 41.47,-68.66 32.67,-59.05 C32.5,-60.16 32.34,-61.21 32.19,-62.1899 C30.94,-70.48 31.26,-77.75 33.14,-83.8"/>
<path class="Clef" transform="matrix(1.89921,0,0,1.89921,108.85,2101.18)" d="M63.35,-5.86992 C62.12,-11.3 59.48,-15.1199 58.7,-16.16 C55.51,-20.43 51.5,-23.28 46.81,-24.63 C43.7,-25.5199 40.7,-25.63 38.28,-25.45 C37.24,-31.46 36.24,-37.3399 35.33,-42.7899 C40.78,-48.96 44.4,-54.76 46.68,-59.06 C50.15,-65.6399 51.3,-70.2199 51.35,-70.4199 C53.07,-75.63 53.43,-83.33 52.33,-91.5399 C51.32,-99.0899 49.23,-105.8 46.88,-109.05 C45.85,-110.48 44.8,-111.21 43.76,-111.21 C42.54,-111.21 40.03,-109.97 37.14,-107.2 C34.84,-105 31.57,-101.11 29.01,-95.1 C26.01,-88.0399 25.8,-78.55 26.15,-71.83 C26.53,-64.56 27.64,-58.8699 27.65,-58.8199 C27.67,-58.73 27.93,-57.23 28.38,-54.66 C28.15,-54.43 27.91,-54.21 27.66,-53.9699 C26.62,-52.9699 25.43,-51.83 24.05,-50.45 C23.19,-49.5899 22.24,-48.68 21.24,-47.71 C12.79,-39.5699 0,-27.25 0,-8.1 C0,-3.4 0.9,1.02002 2.67998,5.03008 C4.27002,8.63008 6.57002,11.9101 9.5,14.7801 C17.23,22.3301 27.82,25.54 34.88,25.3801 C37.83,25.3101 40.46,25.07 42.85,24.62 C44.68,34.22 45.82,41.25 45.86,46.59 C45.9,53.1 44.25,57.07 40.35,59.84 C37.92,61.57 35.11,62.52 32.01,62.67 C29.42,62.79 27.16,62.32 25.73,61.9101 L25.72,61.9101 C25.72,61.9101 25.43,61.8301 25.42,61.6301 C25.41,61.45 25.76,61.4 25.77,61.4 L25.79,61.4 C27.71,60.9601 31.28,59.7301 33.64,56.4301 C35.44,53.9101 36.31,49.29 34.47,45.35 C33.36,42.9601 30.85,40.0101 25.23,39.5601 C22.74,39.3601 20.47,39.87 18.47,41.07 C16.66,42.15 15.16,43.79 14.11,45.79 C11.65,50.49 12.11,56.22 15.24,60.0601 C18.2,63.6801 22.82,65.99 28.25,66.57 C29.1,66.6601 29.95,66.7 30.8,66.7 C35.23,66.7 39.63,65.5 43.2,63.29 C46.86,60.72 48.98,56.74 49.66,51.1101 C50.22,46.47 49.83,40.5601 48.43,32.49 C48.07,30.4 47.53,27.37 46.87,23.6101 C52.62,21.69 56.78,18.12 60.55,12.27 C63.84,6.53008 64.78,0.430078 63.35,-5.86992 M29.14,20.32 C24.5,19.1 20.07,16.6 16.31,13.1 C15,11.87 13.13,9.7 11.66,6.31006 C10.29,3.15 9.62998,-0.27998 9.67998,-3.86992 C9.75,-8.55996 11.06,-13.38 13.57,-18.1699 C16.49,-23.75 21.05,-29.28 27.11,-34.61 C28.56,-35.8899 29.93,-37.1699 31.22,-38.45 C31.98,-34.1899 32.81,-29.5 33.69,-24.6199 C29.84,-23.35 25.09,-20.2 21.98,-14.55 C18.44,-7.97998 18.58,-2.45996 19.31,1.02002 C20.25,5.48008 22.78,9.24004 26.24,11.3301 C27.17,11.89 31.3,14.02 33.14,13.44 C33.51,13.32 33.78,13.1 33.92,12.77 C34.43,11.6 33.41,10.9601 31.85,10 C31.25,9.63008 30.58,9.21006 29.85,8.68008 C26.53,6.19004 25.08,1.74004 26.15,-2.63994 C26.73,-5.03994 28.01,-7.2 29.85,-8.9 C31.52,-10.45 33.56,-11.55 35.94,-12.1899 C37.98,-0.95 40.04,10.2 41.68,18.5601 C41.81,19.25 41.95,19.92 42.08,20.59 C37.7,21.52 33.35,21.4301 29.14,20.32 M40.46,-12.86 C50.81,-13.33 55.08,-5.88994 55.97,-1.05996 C56.44,1.47002 56.43,5.91006 54.89,10.12 C53.72,13.3 51.26,17.37 46.13,19.4301 C46.06,19.0101 45.98,18.5801 45.9,18.15 C44.36,9.38008 42.42,-1.60996 40.46,-12.86 M33.14,-83.8 C34.92,-89.5399 37.66,-92.7899 39.65,-94.5199 C41.4,-96.0399 43.05,-96.75 43.97,-96.75 C44.11,-96.75 44.23,-96.73 44.33,-96.7 C44.79,-96.56 45.32,-95.9899 45.79,-95.1199 C48.1,-90.83 47.36,-84.1199 46.02,-79.68 C44.39,-74.28 41.47,-68.66 32.67,-59.05 C32.5,-60.16 32.34,-61.21 32.19,-62.1899 C30.94,-70.48 31.26,-77.75 33.14,-83.8"/>
<path class="KeySig" transform="matrix(1.89921,0,0,1.89921,325.331,426.968)" d="M20.1,-7.9 C19.5,-11.8 17.1,-15.5 12,-15.5 C7,-15.5 4.1,-12.4 3.6,-11.8 L4,-43.9 C4,-44.7 3.4,-45.3 2.6,-45.3 L1.4,-45.3 C0.6,-45.3 0,-44.7 0,-43.9 L0.5,16.2 C0.5,17 1.1,17.6 1.9,17.6 C2.1,17.6 2.5,17.5 2.7,17.4 C3.1,17.2 9.6,14 15,7.9 C18.8,3.6 20.3,-1.3 20.3,-5.4 C20.3,-6.3 20.2,-7.1 20.1,-7.9 M13.2,-4 C13.2,-2.5 12.8,2.1 10.3,5.9 C8.6,8.5 5.2,11.2 3.3,12.7 L3.6,-6.8 C3.8,-7.7 5.3,-10.6 9.3,-10.6 C12.9,-10.6 13.2,-7.2 13.2,-5.1 L13.2,-4 "/>
<path class="KeySig" transform="matrix(1.89921,0,0,1.89921,277.85,498.189)" d="M20.1,-7.9 C19.5,-11.8 17.1,-15.5 12,-15.5 C7,-15.5 4.1,-12.4 3.6,-11.8 L4,-43.9 C4,-44.7 3.4,-45.3 2.6,-45.3 L1.4,-45.3 C0.6,-45.3 0,-44.7 0,-43.9 L0.5,16.2 C0.5,17 1.1,17.6 1.9,17.6 C2.1,17.6 2.5,17.5 2.7,17.4 C3.1,17.2 9.6,14 15,7.9 C18.8,3.6 20.3,-1.3 20.3,-5.4 C20.3,-6.3 20.2,-7.1 20.1,-7.9 M13.2,-4 C13.2,-2.5 12.8,2.1 10.3,5.9 C8.6,8.5 5.2,11.2 3.3,12.7 L3.6,-6.8 C3.8,-7.7 5.3,-10.6 9.3,-10.6 C12.9,-10.6 13.2,-7.2 13.2,-5.1 L13.2,-4 "/>
<path class="KeySig" transform="matrix(1.89921,0,0,1.89921,325.331,1204.72)" d="M20.1,-7.9 C19.5,-11.8 17.1,-15.5 12,-15.5 C7,-15.5 4.1,-12.4 3.6,-11.8 L4,-43.9 C4,-44.7 3.4,-45.3 2.6,-45.3 L1.4,-45.3 C0.6,-45.3 0,-44.7 0,-43.9 L0.5,16.2 C0.5,17 1.1,17.6 1.9,17.6 C2.1,17.6 2.5,17.5 2.7,17.4 C3.1,17.2 9.6,14 15,7.9 C18.8,3.6 20.3,-1.3 20.3,-5.4 C20.3,-6.3 20.2,-7.1 20.1,-7.9 M13.2,-4 C13.2,-2.5 12.8,2.1 10.3,5.9 C8.6,8.5 5.2,11.2 3.3,12.7 L3.6,-6.8 C3.8,-7.7 5.3,-10.6 9.3,-10.6 C12.9,-10.6 13.2,-7.2 13.2,-5.1 L13.2,-4 "/>
<path class="KeySig" transform="matrix(1.89921,0,0,1.89921,277.85,1275.94)" d="M20.1,-7.9 C19.5,-11.8 17.1,-15.5 12,-15.5 C7,-15.5 4.1,-12.4 3.6,-11.8 L4,-43.9 C4,-44.7 3.4,-45.3 2.6,-45.3 L1.4,-45.3 C0.6,-45.3 0,-44.7 0,-43.9 L0.5,16.2 C0.5,17 1.1,17.6 1.9,17.6 C2.1,17.6 2.5,17.5 2.7,17.4 C3.1,17.2 9.6,14 15,7.9 C18.8,3.6 20.3,-1.3 20.3,-5.4 C20.3,-6.3 20.2,-7.1 20.1,-7.9 M13.2,-4 C13.2,-2.5 12.8,2.1 10.3,5.9 C8.6,8.5 5.2,11.2 3.3,12.7 L3.6,-6.8 C3.8,-7.7 5.3,-10.6 9.3,-10.6 C12.9,-10.6 13.2,-7.2 13.2,-5.1 L13.2,-4 "/>
<path class="KeySig" transform="matrix(1.89921,0,0,1.89921,325.331,1982.48)" d="M20.1,-7.9 C19.5,-11.8 17.1,-15.5 12,-15.5 C7,-15.5 4.1,-12.4 3.6,-11.8 L4,-43.9 C4,-44.7 3.4,-45.3 2.6,-45.3 L1.4,-45.3 C0.6,-45.3 0,-44.7 0,-43.9 L0.5,16.2 C0.5,17 1.1,17.6 1.9,17.6 C2.1,17.6 2.5,17.5 2.7,17.4 C3.1,17.2 9.6,14 15,7.9 C18.8,3.6 20.3,-1.3 20.3,-5.4 C20.3,-6.3 20.2,-7.1 20.1,-7.9 M13.2,-4 C13.2,-2.5 12.8,2.1 10.3,5.9 C8.6,8.5 5.2,11.2 3.3,12.7 L3.6,-6.8 C3.8,-7.7 5.3,-10.6 9.3,-10.6 C12.9,-10.6 13.2,-7.2 13.2,-5.1 L13.2,-4 "/>
<path class="KeySig" transform="matrix(1.89921,0,0,1.89921,277.85,2053.7)" d="M20.1,-7.9 C19.5,-11.8 17.1,-15.5 12,-15.5 C7,-15.5 4.1,-12.4 3.6,-11.8 L4,-43.9 C4,-44.7 3.4,-45.3 2.6,-45.3 L1.4,-45.3 C0.6,-45.3 0,-44.7 0,-43.9 L0.5,16.2 C0.5,17 1.1,17.6 1.9,17.6 C2.1,17.6 2.5,17.5 2.7,17.4 C3.1,17.2 9.6,14 15,7.9 C18.8,3.6 20.3,-1.3 20.3,-5.4 C20.3,-6.3 20.2,-7.1 20.1,-7.9 M13.2,-4 C13.2,-2.5 12.8,2.1 10.3,5.9 C8.6,8.5 5.2,11.2 3.3,12.7 L3.6,-6.8 C3.8,-7.7 5.3,-10.6 9.3,-10.6 C12.9,-10.6 13.2,-7.2 13.2,-5.1 L13.2,-4 "/>
<path class="TimeSig" transform="matrix(1.89921,0,0,1.89921,408.748,450.961)" d="M3.59004,12.65 L20.77,12.65 L20.77,20.07 L12.54,20.07 C11.7601,20.07 11.1301,20.7 11.1301,21.48 L11.1301,23.39 C11.1301,24.17 11.7601,24.8 12.54,24.8 L42.79,24.8 C43.57,24.8 44.2,24.17 44.2,23.39 L44.2,21.48 C44.2,20.7 43.57,20.07 42.79,20.07 L33.85,20.07 L33.85,12.65 L42.79,12.65 C43.57,12.65 44.2,12.02 44.2,11.24 L44.2,9.32998 C44.2,8.55 43.57,7.92002 42.79,7.92002 L33.85,7.92002 L33.85,-8.04004 C33.85,-8.57998 33.55,-9.05996 33.07,-9.3 L31.8601,-9.9 C31.3301,-10.16 30.7,-10.07 30.27,-9.67002 L21.22,-1.35 C20.9301,-1.07998 20.7601,-0.709961 20.7601,-0.309961 L20.7601,7.92002 L9.25,7.92002 C9.25,7.92002 20.37,-4.10996 32.2101,-19.88 C33.0801,-21.03 32.5801,-22.08 32.39,-22.27 L30.22,-24.48 C29.95,-24.74 29.59,-24.89 29.22,-24.89 C28.62,-24.89 15.07,-24.87 14.35,-24.89 C13.6301,-24.91 13.09,-24.29 13.02,-23.67 C13.02,-23.67 12.4801,-16.31 9.88008,-8.17998 C7.28008,-0.0599609 4.34004,4.92002 1.68008,8.55 C1.68008,8.55 1.14004,9.54004 1.5,10.28 C1.85,11.03 2.48008,12.12 2.48008,12.12 C2.48008,12.12 2.74004,12.65 3.59004,12.65"/>
<path class="TimeSig" transform="matrix(1.89921,0,0,1.89921,408.748,545.417)" d="M3.59004,12.65 L20.77,12.65 L20.77,20.07 L12.54,20.07 C11.7601,20.07 11.1301,20.7 11.1301,21.48 L11.1301,23.39 C11.1301,24.17 11.7601,24.8 12.54,24.8 L42.79,24.8 C43.57,24.8 44.2,24.17 44.2,23.39 L44.2,21.48 C44.2,20.7 43.57,20.07 42.79,20.07 L33.85,20.07 L33.85,12.65 L42.79,12.65 C43.57,12.65 44.2,12.02 44.2,11.24 L44.2,9.32998 C44.2,8.55 43.57,7.92002 42.79,7.92002 L33.85,7.92002 L33.85,-8.04004 C33.85,-8.57998 33.55,-9.05996 33.07,-9.3 L31.8601,-9.9 C31.3301,-10.16 30.7,-10.07 30.27,-9.67002 L21.22,-1.35 C20.9301,-1.07998 20.7601,-0.709961 20.7601,-0.309961 L20.7601,7.92002 L9.25,7.92002 C9.25,7.92002 20.37,-4.10996 32.2101,-19.88 C33.0801,-21.03 32.5801,-22.08 32.39,-22.27 L30.22,-24.48 C29.95,-24.74 29.59,-24.89 29.22,-24.89 C28.62,-24.89 15.07,-24.87 14.35,-24.89 C13.6301,-24.91 13.09,-24.29 13.02,-23.67 C13.02,-23.67 12.4801,-16.31 9.88008,-8.17998 C7.28008,-0.0599609 4.34004,4.92002 1.68008,8.55 C1.68008,8.55 1.14004,9.54004 1.5,10.28 C1.85,11.03 2.48008,12.12 2.48008,12.12 C2.48008,12.12 2.74004,12.65 3.59004,12.65"/>
<path class="Rest" transform="matrix(1.89921,0,0,1.89921,554.408,498.189)" d="M23.2,16.9 L23,16.6 C22.9,16.5 22.7,16.3 22.4,15.9 L10.9,1.7 C10.6,1.4 10.7,0.6 10.9,0.2 L21.1,-15.2 C21.2,-15.4 21.3,-15.7 21.3,-15.9 L21.3,-16.8 C21.3,-17.1 21.2,-17.4 21,-17.6 L4.8,-39.5 C4.8,-39.5 4,-40.7 3,-39.8 C2,-39 2.8,-37.7 2.8,-37.7 L10.4,-27.3 C10.8,-26.7 10.8,-25.5 10.4,-24.9 L0.3,-9.5 C0.2,-9.3 0.1,-8.9 0.1,-8.7 L0.1,-7.8 C0.1,-7.5 0.2,-7.2 0.4,-7 L11.6,6.9 C11.2,6.8 10.3,6.6 9.1,6.6 C7.4,6.6 5.2,7 3.4,8.6 C1.2,10.6 0,13.4 0,15.9 C0,17.3 0.3,18.7 1.1,19.8 C3.2,23 10.7,32.5 10.7,32.5 C10.7,32.5 11.6,33.6 12.5,32.9 C13.4,32.2 13.2,31.3 12.9,30.8 C12.6,30.3 9.4,24.5 9.4,24.5 C9.4,24.5 8.7,23.1 8.7,21.3 C8.7,20 9.1,18.4 10.4,17.1 C11.6,15.9 13,15.5 14.3,15.5 C15.6,15.5 16.7,15.9 17.5,16.4 L21.4,18.9 C21.4,18.9 22.6,19.5 23.2,18.6 C23.7,17.8 23.5,17.4 23.2,16.9"/>
<path class="Rest" transform="matrix(1.89921,0,0,1.89921,1662.38,498.189)" d="M23.2,16.9 L23,16.6 C22.9,16.5 22.7,16.3 22.4,15.9 L10.9,1.7 C10.6,1.4 10.7,0.6 10.9,0.2 L21.1,-15.2 C21.2,-15.4 21.3,-15.7 21.3,-15.9 L21.3,-16.8 C21.3,-17.1 21.2,-17.4 21,-17.6 L4.8,-39.5 C4.8,-39.5 4,-40.7 3,-39.8 C2,-39 2.8,-37.7 2.8,-37.7 L10.4,-27.3 C10.8,-26.7 10.8,-25.5 10.4,-24.9 L0.3,-9.5 C0.2,-9.3 0.1,-8.9 0.1,-8.7 L0.1,-7.8 C0.1,-7.5 0.2,-7.2 0.4,-7 L11.6,6.9 C11.2,6.8 10.3,6.6 9.1,6.6 C7.4,6.6 5.2,7 3.4,8.6 C1.2,10.6 0,13.4 0,15.9 C0,17.3 0.3,18.7 1.1,19.8 C3.2,23 10.7,32.5 10.7,32.5 C10.7,32.5 11.6,33.6 12.5,32.9 C13.4,32.2 13.2,31.3 12.9,30.8 C12.6,30.3 9.4,24.5 9.4,24.5 C9.4,24.5 8.7,23.1 8.7,21.3 C8.7,20 9.1,18.4 10.4,17.1 C11.6,15.9 13,15.5 14.3,15.5 C15.6,15.5 16.7,15.9 17.5,16.4 L21.4,18.9 C21.4,18.9 22.6,19.5 23.2,18.6 C23.7,17.8 23.5,17.4 23.2,16.9"/>
<path class="Rest" transform="matrix(1.89921,0,0,1.89921,2467.79,498.189)" d="M23.2,16.9 L23,16.6 C22.9,16.5 22.7,16.3 22.4,15.9 L10.9,1.7 C10.6,1.4 10.7,0.6 10.9,0.2 L21.1,-15.2 C21.2,-15.4 21.3,-15.7 21.3,-15.9 L21.3,-16.8 C21.3,-17.1 21.2,-17.4 21,-17.6 L4.8,-39.5 C4.8,-39.5 4,-40.7 3,-39.8 C2,-39 2.8,-37.7 2.8,-37.7 L10.4,-27.3 C10.8,-26.7 10.8,-25.5 10.4,-24.9 L0.3,-9.5 C0.2,-9.3 0.1,-8.9 0.1,-8.7 L0.1,-7.8 C0.1,-7.5 0.2,-7.2 0.4,-7 L11.6,6.9 C11.2,6.8 10.3,6.6 9.1,6.6 C7.4,6.6 5.2,7 3.4,8.6 C1.2,10.6 0,13.4 0,15.9 C0,17.3 0.3,18.7 1.1,19.8 C3.2,23 10.7,32.5 10.7,32.5 C10.7,32.5 11.6,33.6 12.5,32.9 C13.4,32.2 13.2,31.3 12.9,30.8 C12.6,30.3 9.4,24.5 9.4,24.5 C9.4,24.5 8.7,23.1 8.7,21.3 C8.7,20 9.1,18.4 10.4,17.1 C11.6,15.9 13,15.5 14.3,15.5 C15.6,15.5 16.7,15.9 17.5,16.4 L21.4,18.9 C21.4,18.9 22.6,19.5 23.2,18.6 C23.7,17.8 23.5,17.4 23.2,16.9"/>
<path class="Rest" transform="matrix(1.89921,0,0,1.89921,809.915,1275.94)" d="M23.2,16.9 L23,16.6 C22.9,16.5 22.7,16.3 22.4,15.9 L10.9,1.7 C10.6,1.4 10.7,0.6 10.9,0.2 L21.1,-15.2 C21.2,-15.4 21.3,-15.7 21.3,-15.9 L21.3,-16.8 C21.3,-17.1 21.2,-17.4 21,-17.6 L4.8,-39.5 C4.8,-39.5 4,-40.7 3,-39.8 C2,-39 2.8,-37.7 2.8,-37.7 L10.4,-27.3 C10.8,-26.7 10.8,-25.5 10.4,-24.9 L0.3,-9.5 C0.2,-9.3 0.1,-8.9 0.1,-8.7 L0.1,-7.8 C0.1,-7.5 0.2,-7.2 0.4,-7 L11.6,6.9 C11.2,6.8 10.3,6.6 9.1,6.6 C7.4,6.6 5.2,7 3.4,8.6 C1.2,10.6 0,13.4 0,15.9 C0,17.3 0.3,18.7 1.1,19.8 C3.2,23 10.7,32.5 10.7,32.5 C10.7,32.5 11.6,33.6 12.5,32.9 C13.4,32.2 13.2,31.3 12.9,30.8 C12.6,30.3 9.4,24.5 9.4,24.5 C9.4,24.5 8.7,23.1 8.7,21.3 C8.7,20 9.1,18.4 10.4,17.1 C11.6,15.9 13,15.5 14.3,15.5 C15.6,15.5 16.7,15.9 17.5,16.4 L21.4,18.9 C21.4,18.9 22.6,19.5 23.2,18.6 C23.7,17.8 23.5,17.4 23.2,16.9"/>
<path class="Rest" transform="matrix(1.89921,0,0,1.89921,1454.26,1275.94)" d="M23.2,16.9 L23,16.6 C22.9,16.5 22.7,16.3 22.4,15.9 L10.9,1.7 C10.6,1.4 10.7,0.6 10.9,0.2 L21.1,-15.2 C21.2,-15.4 21.3,-15.7 21.3,-15.9 L21.3,-16.8 C21.3,-17.1 21.2,-17.4 21,-17.6 L4.8,-39.5 C4.8,-39.5 4,-40.7 3,-39.8 C2,-39 2.8,-37.7 2.8,-37.7 L10.4,-27.3 C10.8,-26.7 10.8,-25.5 10.4,-24.9 L0.3,-9.5 C0.2,-9.3 0.1,-8.9 0.1,-8.7 L0.1,-7.8 C0.1,-7.5 0.2,-7.2 0.4,-7 L11.6,6.9 C11.2,6.8 10.3,6.6 9.1,6.6 C7.4,6.6 5.2,7 3.4,8.6 C1.2,10.6 0,13.4 0,15.9 C0,17.3 0.3,18.7 1.1,19.8 C3.2,23 10.7,32.5 10.7,32.5 C10.7,32.5 11.6,33.6 12.5,32.9 C13.4,32.2 13.2,31.3 12.9,30.8 C12.6,30.3 9.4,24.5 9.4,24.5 C9.4,24.5 8.7,23.1 8.7,21.3 C8.7,20 9.1,18.4 10.4,17.1 C11.6,15.9 13,15.5 14.3,15.5 C15.6,15.5 16.7,15.9 17.5,16.4 L21.4,18.9 C21.4,18.9 22.6,19.5 23.2,18.6 C23.7,17.8 23.5,17.4 23.2,16.9"/>
<path class="Rest" transform="matrix(1.89921,0,0,1.89921,2809.24,1275.94)" d="M23.2,16.9 L23,16.6 C22.9,16.5 22.7,16.3 22.4,15.9 L10.9,1.7 C10.6,1.4 10.7,0.6 10.9,0.2 L21.1,-15.2 C21.2,-15.4 21.3,-15.7 21.3,-15.9 L21.3,-16.8 C21.3,-17.1 21.2,-17.4 21,-17.6 L4.8,-39.5 C4.8,-39.5 4,-40.7 3,-39.8 C2,-39 2.8,-37.7 2.8,-37.7 L10.4,-27.3 C10.8,-26.7 10.8,-25.5 10.4,-24.9 L0.3,-9.5 C0.2,-9.3 0.1,-8.9 0.1,-8.7 L0.1,-7.8 C0.1,-7.5 0.2,-7.2 0.4,-7 L11.6,6.9 C11.2,6.8 10.3,6.6 9.1,6.6 C7.4,6.6 5.2,7 3.4,8.6 C1.2,10.6 0,13.4 0,15.9 C0,17.3 0.3,18.7 1.1,19.8 C3.2,23 10.7,32.5 10.7,32.5 C10.7,32.5 11.6,33.6 12.5,32.9 C13.4,32.2 13.2,31.3 12.9,30.8 C12.6,30.3 9.4,24.5 9.4,24.5 C9.4,24.5 8.7,23.1 8.7,21.3 C8.7,20 9.1,18.4 10.4,17.1 C11.6,15.9 13,15.5 14.3,15.5 C15.6,15.5 16.7,15.9 17.5,16.4 L21.4,18.9 C21.4,18.9 22.6,19.5 23.2,18.6 C23.7,17.8 23.5,17.4 23.2,16.9"/>
<path class="Rest" transform="matrix(1.89921,0,0,1.89921,482.58,2053.7)" d="M23.2,16.9 L23,16.6 C22.9,16.5 22.7,16.3 22.4,15.9 L10.9,1.7 C10.6,1.4 10.7,0.6 10.9,0.2 L21.1,-15.2 C21.2,-15.4 21.3,-15.7 21.3,-15.9 L21.3,-16.8 C21.3,-17.1 21.2,-17.4 21,-17.6 L4.8,-39.5 C4.8,-39.5 4,-40.7 3,-39.8 C2,-39 2.8,-37.7 2.8,-37.7 L10.4,-27.3 C10.8,-26.7 10.8,-25.5 10.4,-24.9 L0.3,-9.5 C0.2,-9.3 0.1,-8.9 0.1,-8.7 L0.1,-7.8 C0.1,-7.5 0.2,-7.2 0.4,-7 L11.6,6.9 C11.2,6.8 10.3,6.6 9.1,6.6 C7.4,6.6 5.2,7 3.4,8.6 C1.2,10.6 0,13.4 0,15.9 C0,17.3 0.3,18.7 1.1,19.8 C3.2,23 10.7,32.5 10.7,32.5 C10.7,32.5 11.6,33.6 12.5,32.9 C13.4,32.2 13.2,31.3 12.9,30.8 C12.6,30.3 9.4,24.5 9.4,24.5 C9.4,24.5 8.7,23.1 8.7,21.3 C8.7,20 9.1,18.4 10.4,17.1 C11.6,15.9 13,15.5 14.3,15.5 C15.6,15.5 16.7,15.9 17.5,16.4 L21.4,18.9 C21.4,18.9 22.6,19.5 23.2,18.6 C23.7,17.8 23.5,17.4 23.2,16.9"/>
<path class="Rest" transform="matrix(1.89921,0,0,1.89921,3436.9,2053.7)" d="M23.2,16.9 L23,16.6 C22.9,16.5 22.7,16.3 22.4,15.9 L10.9,1.7 C10.6,1.4 10.7,0.6 10.9,0.2 L21.1,-15.2 C21.2,-15.4 21.3,-15.7 21.3,-15.9 L21.3,-16.8 C21.3,-17.1 21.2,-17.4 21,-17.6 L4.8,-39.5 C4.8,-39.5 4,-40.7 3,-39.8 C2,-39 2.8,-37.7 2.8,-37.7 L10.4,-27.3 C10.8,-26.7 10.8,-25.5 10.4,-24.9 L0.3,-9.5 C0.2,-9.3 0.1,-8.9 0.1,-8.7 L0.1,-7.8 C0.1,-7.5 0.2,-7.2 0.4,-7 L11.6,6.9 C11.2,6.8 10.3,6.6 9.1,6.6 C7.4,6.6 5.2,7 3.4,8.6 C1.2,10.6 0,13.4 0,15.9 C0,17.3 0.3,18.7 1.1,19.8 C3.2,23 10.7,32.5 10.7,32.5 C10.7,32.5 11.6,33.6 12.5,32.9 C13.4,32.2 13.2,31.3 12.9,30.8 C12.6,30.3 9.4,24.5 9.4,24.5 C9.4,24.5 8.7,23.1 8.7,21.3 C8.7,20 9.1,18.4 10.4,17.1 C11.6,15.9 13,15.5 14.3,15.5 C15.6,15.5 16.7,15.9 17.5,16.4 L21.4,18.9 C21.4,18.9 22.6,19.5 23.2,18.6 C23.7,17.8 23.5,17.4 23.2,16.9"/>
<path class="Beam" fill-rule="evenodd" d="M1324.04,386.087 L1406.54,436.777 L1406.54,464.64 L1324.04,413.951 L1324.04,386.087 "/>
<path class="Beam" fill-rule="evenodd" d="M3972.12,403.87 L4057.84,391.23 L4057.84,415.227 L3972.12,427.867 L3972.12,403.87 "/>
<path class="Beam" fill-rule="evenodd" d="M1735.23,1406.52 L2026.09,1406.52 L2026.09,1430.26 L1735.23,1430.26 L1735.23,1406.52 "/>
<path class="Beam" fill-rule="evenodd" d="M2374.7,1416.72 L2466.66,1366.38 L2466.66,1393.45 L2374.7,1443.79 L2374.7,1416.72 "/>
<path class="Beam" fill-rule="evenodd" d="M3179.24,1133.71 L3472.67,1121.62 L3472.67,1145.38 L3179.24,1157.47 L3179.24,1133.71 "/>
<path class="Beam" fill-rule="evenodd" d="M3764.79,1452.33 L3856.75,1401.99 L3856.75,1429.06 L3764.79,1479.4 L3764.79,1452.33 "/>
<path class="Beam" fill-rule="evenodd" d="M1037.82,2006.74 L1146.95,1994.27 L1146.95,2018.17 L1037.82,2030.63 L1037.82,2006.74 "/>
<path class="Beam" fill-rule="evenodd" d="M1799.06,2183.09 L1908.19,2133.22 L1908.19,2159.32 L1799.06,2209.19 L1799.06,2183.09 "/>
<path class="Beam" fill-rule="evenodd" d="M2673.27,1934.33 L2782.4,1946.79 L2782.4,1970.69 L2673.27,1958.22 L2673.27,1934.33 "/>
<path class="Hook" transform="matrix(1.89921,0,0,1.89921,1640.02,1442.13)" d="M2.5,0.4 C2.5,0.2 3.4,-3.2 3.5,-3.5 C3.6,-3.9 5.4,-9.6 9.1,-15.3 C11.8,-19.5 21.3,-31.8 21,-31.8 C21,-31.8 28.4,-41.3 28.9,-54.2 L28.9,-56.5 C28.9,-62.6 28.1,-71.2 24.6,-79.9 C24.2,-80.9 23.8,-81.9 22.7,-81.5 C21.6,-81.1 21.9,-79.9 22.2,-78.8 C24,-71.8 25,-64.6 25,-57.4 C25,-49 22,-44.8 20.2,-41.7 C13.6,-30.6 5,-25.2 0.8,-23.8 C0.3,-23.6 0,-23.2 0,-22.7 L0,-16.5 L0,-0.1 C0,0.6 0.6,1.2 1.3,1.2 C1.8,1.2 2.4,0.8 2.5,0.4"/>
<path class="Hook" transform="matrix(1.89921,0,0,1.89921,3053.15,1145.37)" d="M3.5,3.5 C3.4,3.2 2.5,-0.3 2.5,-0.5 C2.4,-0.9 1.8,-1.2 1.3,-1.2 C0.6,-1.2 0,-0.6 0,0.1 L0,16.5 L0,22.7 C0,23.2 0.4,23.6 0.8,23.8 C5,25.1 13.7,30.6 20.2,41.7 C22,44.8 24.9,49 24.9,57.4 C24.9,64.6 23.8,72.2 22,79.2 C21.7,80.3 21.4,81.3 22.5,81.7 C23.6,82.1 24,81.3 24.4,80.3 C28,71.5 28.9,62.3 28.9,56.1 L28.9,54.2 C28.4,41.3 21,31.8 21,31.8 C21.3,31.8 11.8,19.5 9.1,15.3 C5.4,9.6 3.6,3.9 3.5,3.5"/>
<path class="Marker" d="M960.48,239.508 C965.16,250.128 986.04,262.908 987.12,263.268 C987.66,263.628 988.02,263.988 988.02,264.528 C988.02,265.068 987.66,265.788 987.12,266.868 C986.04,268.848 965.34,306.108 965.34,306.108 C965.16,306.648 964.98,307.368 964.98,307.908 C964.98,309.348 965.7,310.788 966.96,311.508 C967.68,312.048 968.22,312.228 968.94,312.228 C970.38,312.228 971.82,311.328 972.54,310.068 C972.54,310.068 994.86,269.748 995.4,268.848 C995.4,269.028 996.48,268.128 997.02,268.128 C999.18,268.488 1027.98,276.948 1027.98,290.628 C1027.98,296.388 1024.56,299.988 1019.88,300.708 C1019.7,300.708 1019.16,300.888 1018.98,300.888 C1016.28,300.888 1013.76,298.908 1013.76,294.408 L1013.76,292.788 C1013.76,287.388 1010.16,283.428 1006.2,283.428 C1005.48,283.428 1004.94,283.428 1004.4,283.608 C999,284.868 994.14,287.208 994.14,292.968 C994.14,293.508 994.14,294.228 994.32,294.948 C995.4,301.068 1001.88,309.348 1011.6,309.348 C1025.28,309.348 1036.8,296.748 1036.8,283.248 C1036.8,281.988 1036.62,280.548 1036.44,279.108 C1034.28,263.268 1011.6,250.308 1009.8,249.588 C1008.18,248.508 1007.46,247.968 1007.46,247.248 C1007.46,246.888 1007.64,246.708 1007.64,246.348 C1008.36,245.268 1030.68,204.948 1030.68,204.948 C1031.22,204.228 1031.4,203.688 1031.4,202.968 C1031.4,201.528 1030.5,200.088 1029.24,199.368 C1028.52,199.188 1027.8,199.008 1027.26,199.008 C1025.82,199.008 1024.38,199.728 1023.66,200.988 C1023.66,200.988 1000.8,242.388 999.9,243.648 C999.54,244.368 999.18,244.728 998.64,244.728 C998.28,244.728 997.74,244.548 997.2,244.368 C995.94,243.828 974.16,235.548 970.38,229.068 C969.48,227.448 968.4,224.388 968.4,221.508 C968.4,217.548 970.2,213.588 976.14,212.508 L977.04,212.508 C977.94,212.508 978.84,212.868 979.38,214.308 L979.56,215.388 C980.64,219.348 982.8,227.808 990.18,227.808 C996.12,227.808 1000.08,224.388 1000.08,218.088 C1000.08,206.028 990.54,202.248 979.56,202.248 C969.48,202.248 958.14,214.668 958.14,228.888 C958.14,232.308 958.86,235.908 960.48,239.508 M1025.64,249.408 C1030.14,249.408 1033.74,245.628 1033.74,241.128 C1033.74,236.628 1030.14,233.028 1025.64,233.028 C1021.14,233.028 1017.36,236.628 1017.36,241.128 C1017.36,245.628 1021.14,249.408 1025.64,249.408 M969.48,278.388 C974.16,278.388 977.76,274.788 977.76,270.288 C977.76,265.788 974.16,262.008 969.48,262.008 C965.16,262.008 961.38,265.788 961.38,270.288 C961.38,274.788 965.16,278.388 969.48,278.388"/>
<path class="Jump" d="M3986.26,1934.89 L4014.82,1934.89 C4022.38,1934.89 4028.16,1933.7 4032.67,1931.15 C4041.25,1926.31 4046.01,1916.62 4046.01,1903.87 C4046.01,1892.14 4041.76,1882.96 4033.94,1877.86 C4029.27,1874.88 4022.98,1873.52 4013.29,1873.52 L3986.26,1873.52 L3986.26,1877.52 L3987.87,1877.52 C3992.63,1877.6 3994.25,1877.86 3994.93,1878.71 C3995.44,1879.47 3995.44,1879.64 3995.44,1883.98 L3995.44,1924.44 C3995.44,1928.77 3995.44,1928.94 3994.93,1929.71 C3994.25,1930.56 3992.63,1930.81 3987.87,1930.9 L3986.26,1930.9 L3986.26,1934.89 M4009.8,1930.9 C4005.47,1930.9 4004.96,1930.39 4004.96,1926.22 L4004.96,1882.28 C4004.96,1878.11 4005.55,1877.52 4009.8,1877.52 L4014.22,1877.52 C4028.76,1877.52 4034.79,1885.42 4034.79,1904.21 C4034.79,1923.25 4029.35,1930.9 4015.58,1930.9 L4009.8,1930.9 M4061.56,1925.46 C4058.59,1925.46 4056.21,1927.84 4056.21,1930.73 C4056.21,1933.7 4058.59,1936.08 4061.48,1936.08 C4064.45,1936.08 4066.83,1933.7 4066.83,1930.73 C4066.83,1927.84 4064.45,1925.46 4061.56,1925.46 M4119.95,1873.01 L4116.81,1873.01 L4113.41,1878.11 C4109.33,1874.29 4103.97,1872.25 4097.94,1872.25 C4086.72,1872.25 4079.32,1879.3 4079.32,1890.01 C4079.32,1899.28 4083.91,1903.87 4096.41,1907.1 L4104.48,1909.14 C4110.77,1910.75 4111.37,1910.92 4113.15,1912.28 C4115.7,1914.24 4117.06,1917.04 4117.06,1920.36 C4117.06,1923.76 4115.79,1926.56 4113.24,1928.94 C4110.43,1931.32 4107.63,1932.26 4102.95,1932.26 C4096.66,1932.26 4092.16,1930.3 4088.16,1925.88 C4084.59,1921.97 4082.81,1917.89 4081.53,1911.35 L4077.88,1911.35 L4078.22,1935.57 L4081.53,1935.57 L4085.36,1929.79 C4091.05,1934.47 4095.73,1936.17 4103.21,1936.17 C4115.7,1936.17 4123.69,1928.86 4123.69,1917.47 C4123.69,1912.11 4121.99,1907.69 4118.59,1904.46 C4116.3,1902.25 4112.98,1900.81 4106.18,1899.11 L4097.09,1896.81 C4089.52,1894.86 4085.95,1891.54 4085.95,1886.36 C4085.95,1880.41 4090.8,1876.33 4098.02,1876.33 C4103.97,1876.33 4108.82,1878.88 4112.22,1883.72 C4114.68,1887.21 4116.3,1890.78 4117.32,1895.11 L4120.97,1895.11 L4119.95,1873.01 M4138.73,1925.46 C4135.76,1925.46 4133.38,1927.84 4133.38,1930.73 C4133.38,1933.7 4135.76,1936.08 4138.65,1936.08 C4141.62,1936.08 4144,1933.7 4144,1930.73 C4144,1927.84 4141.62,1925.46 4138.73,1925.46"/>
<path class="RehearsalMark" fill="none" stroke="#000000" stroke-width="7.60" stroke-linecap="square" stroke-linejoin="miter" stroke-miterlimit="2" fill-rule="evenodd" d="M658.62,151.32 L811.603,151.32 L811.603,297.038 L658.62,297.038 L658.62,151.32 "/>
<path class="RehearsalMark" d="M731.535,178.848 L703.614,244.038 C697.956,257.322 693.405,262.119 686.148,262.857 L686.148,269.499 L721.695,269.499 L721.695,262.857 C712.962,262.365 709.518,260.028 709.518,254.37 C709.518,252.279 710.01,250.311 711.363,247.359 L713.331,242.685 L743.958,242.685 L748.632,254.739 C749.985,258.183 750.108,258.798 750.108,259.782 C750.108,261.996 748.386,262.734 742.974,262.734 L740.883,262.857 L740.883,269.499 L784.056,269.499 L784.056,262.857 C777.045,262.611 775.077,261.381 772.494,255.108 L740.883,178.848 L731.535,178.848 M728.952,205.047 L740.883,234.444 L716.529,234.444 L728.952,205.047 "/>
<path class="RehearsalMark" fill="none" stroke="#000000" stroke-width="7.60" stroke-linecap="square" stroke-linejoin="miter" stroke-miterlimit="2" fill-rule="evenodd" d="M1988.02,883.208 L2131.9,883.208 L2131.9,1027.08 L1988.02,1027.08 L1988.02,883.208 "/>
<path class="RehearsalMark" d="M2015.77,910.737 L2015.77,917.379 L2017.62,917.379 C2024.26,917.379 2026.6,917.871 2027.7,919.101 C2028.56,920.454 2028.56,920.823 2028.56,928.449 L2028.56,981.831 C2028.56,989.457 2028.56,989.826 2027.7,991.056 C2026.6,992.409 2024.14,992.901 2017.62,992.901 L2015.77,992.901 L2015.77,999.543 L2065.59,999.543 C2078.38,999.543 2084.9,998.559 2091.29,995.73 C2099.04,992.286 2104.21,984.537 2104.21,976.173 C2104.21,967.563 2099.29,960.798 2090.19,956.616 C2086,954.648 2082.44,953.664 2075.92,952.803 C2081.95,951.819 2085.39,950.958 2088.83,949.359 C2096.21,945.792 2100.15,939.888 2100.15,932.508 C2100.15,925.497 2096.46,918.978 2090.43,915.657 C2083.67,911.844 2077.76,910.737 2063.25,910.737 L2015.77,910.737 M2050.7,950.589 L2050.7,924.513 C2050.46,919.347 2052.18,917.625 2057.59,917.379 L2061.28,917.379 C2072.11,917.379 2077.89,922.791 2077.89,933 C2077.89,939.027 2075.8,943.824 2071.86,946.899 C2068.54,949.605 2064.36,950.589 2056.73,950.589 L2050.7,950.589 M2050.7,957.354 L2059.19,957.354 C2066.94,957.354 2070.51,958.092 2073.95,960.306 C2078.26,963.135 2080.72,968.547 2080.72,974.943 C2080.72,980.847 2078.5,986.259 2074.93,989.211 C2071.86,991.671 2067.8,992.901 2061.9,992.901 L2058.21,992.901 C2051.2,992.655 2050.46,991.917 2050.7,985.029 L2050.7,957.354 "/>
<path class="Harmony" d="M1204.73,179.384 L1200.93,179.384 L1197.03,185.384 C1190.53,180.284 1186.13,178.584 1178.83,178.584 C1170.93,178.584 1164.73,180.784 1158.43,185.884 C1148.53,193.884 1143.93,203.984 1143.93,217.484 C1143.93,227.684 1146.83,236.184 1152.73,242.684 C1158.93,249.684 1168.13,253.784 1177.73,253.784 C1186.13,253.784 1192.03,251.184 1198.53,244.684 L1202.23,253.684 L1206.43,253.684 L1206.43,231.684 C1206.43,226.584 1206.43,226.384 1207.03,225.484 C1207.93,224.384 1209.73,224.084 1215.43,224.084 L1216.93,224.084 L1216.93,219.384 L1185.13,219.384 L1185.13,224.084 L1187.03,224.084 C1195.43,224.084 1196.13,224.584 1196.13,230.184 C1196.13,234.484 1195.43,238.384 1194.13,240.784 C1191.63,245.684 1185.23,249.084 1178.73,249.084 C1172.23,249.084 1165.83,245.784 1162.43,240.784 C1158.73,235.184 1157.13,228.184 1157.13,217.484 C1157.13,195.184 1164.53,183.284 1178.43,183.284 C1189.83,183.284 1197.73,191.484 1201.83,207.484 L1206.13,207.484 L1204.73,179.384 "/>
<path class="Harmony" d="M1246.64,205.684 L1228.84,206.784 L1228.84,211.084 L1232.94,211.084 C1236.74,211.184 1237.24,211.784 1237.24,216.084 L1237.24,239.984 L1237.24,243.884 L1237.24,244.684 C1237.14,246.184 1237.04,246.784 1236.64,247.284 C1235.94,248.184 1234.04,248.584 1229.74,248.684 L1229.34,248.684 L1229.34,252.284 L1254.54,252.284 L1254.54,248.684 L1254.14,248.684 C1247.54,248.484 1246.64,247.984 1246.64,244.284 L1246.64,239.984 L1246.64,225.784 C1246.64,216.884 1251.54,210.284 1258.04,210.284 C1263.74,210.284 1266.64,214.384 1266.64,222.484 L1266.64,239.984 L1266.64,244.784 C1266.54,246.084 1266.44,246.784 1265.94,247.284 C1265.34,248.184 1263.34,248.584 1259.04,248.684 L1258.64,248.684 L1258.64,252.284 L1283.94,252.284 L1283.94,248.684 L1283.54,248.684 C1276.94,248.484 1276.04,247.984 1276.04,244.384 L1276.04,239.984 L1276.04,226.684 C1276.04,216.684 1280.54,210.284 1287.54,210.284 C1293.24,210.284 1296.04,214.584 1296.04,223.584 L1296.04,239.984 L1296.04,244.684 C1295.94,246.084 1295.84,246.784 1295.34,247.284 C1294.74,248.184 1292.74,248.584 1288.44,248.684 L1288.04,248.684 L1288.04,252.284 L1313.34,252.284 L1313.34,248.684 L1312.94,248.684 C1306.34,248.484 1305.44,247.984 1305.44,244.284 L1305.44,239.984 L1305.44,221.584 C1305.44,215.384 1304.84,213.284 1302.24,209.884 C1299.34,206.184 1295.24,204.184 1290.44,204.184 C1283.94,204.184 1279.14,207.284 1274.84,214.184 C1273.14,208.184 1267.74,204.184 1261.04,204.184 C1254.94,204.184 1250.54,207.084 1246.64,213.384 L1246.64,205.684 "/>
<path class="Harmony" d="M2251.53,179.384 L2247.73,179.384 L2243.73,185.284 C2236.43,179.984 2232.73,178.584 2225.83,178.584 C2216.33,178.584 2208.23,182.584 2201.53,190.584 C2195.13,198.184 2192.13,206.584 2192.13,216.884 C2192.13,238.484 2206.23,253.784 2225.93,253.784 C2241.93,253.784 2252.13,244.384 2254.43,227.584 L2249.73,226.784 C2247.03,241.684 2239.43,249.084 2227.13,249.084 C2212.33,249.084 2205.33,238.884 2205.33,217.284 C2205.33,205.884 2206.83,198.384 2210.23,192.384 C2213.33,186.784 2219.43,183.284 2225.93,183.284 C2232.93,183.284 2239.13,186.984 2242.93,193.384 C2244.83,196.684 2246.23,200.384 2248.63,208.284 L2253.03,208.284 L2251.53,179.384 "/>
<path class="Harmony" d="M2288.93,205.684 L2271.13,206.784 L2271.13,211.084 L2275.23,211.084 C2279.03,211.184 2279.53,211.784 2279.53,216.084 L2279.53,239.984 L2279.53,243.884 L2279.53,244.684 C2279.43,246.184 2279.33,246.784 2278.93,247.284 C2278.23,248.184 2276.33,248.584 2272.03,248.684 L2271.63,248.684 L2271.63,252.284 L2296.83,252.284 L2296.83,248.684 L2296.43,248.684 C2289.83,248.484 2288.93,247.984 2288.93,244.284 L2288.93,239.984 L2288.93,225.784 C2288.93,216.884 2293.83,210.284 2300.33,210.284 C2306.03,210.284 2308.93,214.384 2308.93,222.484 L2308.93,239.984 L2308.93,244.784 C2308.83,246.084 2308.73,246.784 2308.23,247.284 C2307.63,248.184 2305.63,248.584 2301.33,248.684 L2300.93,248.684 L2300.93,252.284 L2326.23,252.284 L2326.23,248.684 L2325.83,248.684 C2319.23,248.484 2318.33,247.984 2318.33,244.384 L2318.33,239.984 L2318.33,226.684 C2318.33,216.684 2322.83,210.284 2329.83,210.284 C2335.53,210.284 2338.33,214.584 2338.33,223.584 L2338.33,239.984 L2338.33,244.684 C2338.23,246.084 2338.13,246.784 2337.63,247.284 C2337.03,248.184 2335.03,248.584 2330.73,248.684 L2330.33,248.684 L2330.33,252.284 L2355.63,252.284 L2355.63,248.684 L2355.23,248.684 C2348.63,248.484 2347.73,247.984 2347.73,244.284 L2347.73,239.984 L2347.73,221.584 C2347.73,215.384 2347.13,213.284 2344.53,209.884 C2341.63,206.184 2337.53,204.184 2332.73,204.184 C2326.23,204.184 2321.43,207.284 2317.13,214.184 C2315.43,208.184 2310.03,204.184 2303.33,204.184 C2297.23,204.184 2292.83,207.084 2288.93,213.384 L2288.93,205.684 "/>
<path class="Harmony" d="M3053.8,179.384 L3050,179.384 L3046.1,185.384 C3039.6,180.284 3035.2,178.584 3027.9,178.584 C3020,178.584 3013.8,180.784 3007.5,185.884 C2997.6,193.884 2993,203.984 2993,217.484 C2993,227.684 2995.9,236.184 3001.8,242.684 C3008,249.684 3017.2,253.784 3026.8,253.784 C3035.2,253.784 3041.1,251.184 3047.6,244.684 L3051.3,253.684 L3055.5,253.684 L3055.5,231.684 C3055.5,226.584 3055.5,226.384 3056.1,225.484 C3057,224.384 3058.8,224.084 3064.5,224.084 L3066,224.084 L3066,219.384 L3034.2,219.384 L3034.2,224.084 L3036.1,224.084 C3044.5,224.084 3045.2,224.584 3045.2,230.184 C3045.2,234.484 3044.5,238.384 3043.2,240.784 C3040.7,245.684 3034.3,249.084 3027.8,249.084 C3021.3,249.084 3014.9,245.784 3011.5,240.784 C3007.8,235.184 3006.2,228.184 3006.2,217.484 C3006.2,195.184 3013.6,183.284 3027.5,183.284 C3038.9,183.284 3046.8,191.484 3050.9,207.484 L3055.2,207.484 L3053.8,179.384 "/>
<path class="Harmony" d="M3095.71,205.684 L3077.91,206.784 L3077.91,211.084 L3082.01,211.084 C3085.81,211.184 3086.31,211.784 3086.31,216.084 L3086.31,239.984 L3086.31,243.884 L3086.31,244.684 C3086.21,246.184 3086.11,246.784 3085.71,247.284 C3085.01,248.184 3083.11,248.584 3078.81,248.684 L3078.41,248.684 L3078.41,252.284 L3103.61,252.284 L3103.61,248.684 L3103.21,248.684 C3096.61,248.484 3095.71,247.984 3095.71,244.284 L3095.71,239.984 L3095.71,225.784 C3095.71,216.884 3100.61,210.284 3107.11,210.284 C3112.81,210.284 3115.71,214.384 3115.71,222.484 L3115.71,239.984 L3115.71,244.784 C3115.61,246.084 3115.51,246.784 3115.01,247.284 C3114.41,248.184 3112.41,248.584 3108.11,248.684 L3107.71,248.684 L3107.71,252.284 L3133.01,252.284 L3133.01,248.684 L3132.61,248.684 C3126.01,248.484 3125.11,247.984 3125.11,244.384 L3125.11,239.984 L3125.11,226.684 C3125.11,216.684 3129.61,210.284 3136.61,210.284 C3142.31,210.284 3145.11,214.584 3145.11,223.584 L3145.11,239.984 L3145.11,244.684 C3145.01,246.084 3144.91,246.784 3144.41,247.284 C3143.81,248.184 3141.81,248.584 3137.51,248.684 L3137.11,248.684 L3137.11,252.284 L3162.41,252.284 L3162.41,248.684 L3162.01,248.684 C3155.41,248.484 3154.51,247.984 3154.51,244.284 L3154.51,239.984 L3154.51,221.584 C3154.51,215.384 3153.91,213.284 3151.31,209.884 C3148.41,206.184 3144.31,204.184 3139.51,204.184 C3133.01,204.184 3128.21,207.284 3123.91,214.184 C3122.21,208.184 3116.81,204.184 3110.11,204.184 C3104.01,204.184 3099.61,207.084 3095.71,213.384 L3095.71,205.684 "/>
<path class="Harmony" d="M3518.19,252.284 L3551.79,252.284 C3560.69,252.284 3567.49,250.884 3572.79,247.884 C3582.89,242.184 3588.49,230.784 3588.49,215.784 C3588.49,201.984 3583.49,191.184 3574.29,185.184 C3568.79,181.684 3561.39,180.084 3549.99,180.084 L3518.19,180.084 L3518.19,184.784 L3520.09,184.784 C3525.69,184.884 3527.59,185.184 3528.39,186.184 C3528.99,187.084 3528.99,187.284 3528.99,192.384 L3528.99,239.984 C3528.99,245.084 3528.99,245.284 3528.39,246.184 C3527.59,247.184 3525.69,247.484 3520.09,247.584 L3518.19,247.584 L3518.19,252.284 M3545.89,247.584 C3540.79,247.584 3540.19,246.984 3540.19,242.084 L3540.19,190.384 C3540.19,185.484 3540.89,184.784 3545.89,184.784 L3551.09,184.784 C3568.19,184.784 3575.29,194.084 3575.29,216.184 C3575.29,238.584 3568.89,247.584 3552.69,247.584 L3545.89,247.584 "/>
<path class="Harmony" d="M3608,206.084 L3612.4,206.784 L3614.2,198.884 C3615.7,192.284 3616.4,191.284 3619.3,191.284 C3619.8,191.284 3620.6,191.284 3621.5,191.384 C3633.8,191.984 3633.8,191.984 3638.4,191.984 C3639.7,191.984 3642,191.984 3644.8,191.884 L3638,205.584 C3630.6,220.284 3629.7,222.084 3627.2,228.284 C3624.1,235.784 3622.5,242.084 3622.5,246.284 C3622.5,250.884 3624.9,253.684 3628.8,253.684 C3633.6,253.684 3635.5,250.484 3635.4,241.784 C3634.9,227.384 3636.7,220.384 3647.4,196.984 C3648.9,193.784 3650.4,190.684 3651.9,187.584 C3652,187.384 3652.3,186.484 3652.9,185.184 L3652.9,182.284 C3646.9,182.784 3643.7,182.984 3637.5,182.984 C3628.8,182.984 3621.9,182.684 3611.1,181.884 L3608,206.084 "/>
<path class="Harmony" d="M547.955,957.139 L544.155,957.139 L540.255,963.139 C533.755,958.039 529.355,956.339 522.055,956.339 C514.155,956.339 507.955,958.539 501.655,963.639 C491.755,971.639 487.155,981.739 487.155,995.239 C487.155,1005.44 490.055,1013.94 495.955,1020.44 C502.155,1027.44 511.355,1031.54 520.955,1031.54 C529.355,1031.54 535.255,1028.94 541.755,1022.44 L545.455,1031.44 L549.655,1031.44 L549.655,1009.44 C549.655,1004.34 549.655,1004.14 550.255,1003.24 C551.155,1002.14 552.955,1001.84 558.655,1001.84 L560.155,1001.84 L560.155,997.139 L528.355,997.139 L528.355,1001.84 L530.255,1001.84 C538.655,1001.84 539.355,1002.34 539.355,1007.94 C539.355,1012.24 538.655,1016.14 537.355,1018.54 C534.855,1023.44 528.455,1026.84 521.955,1026.84 C515.455,1026.84 509.055,1023.54 505.655,1018.54 C501.955,1012.94 500.355,1005.94 500.355,995.239 C500.355,972.939 507.755,961.039 521.655,961.039 C533.055,961.039 540.955,969.239 545.055,985.239 L549.355,985.239 L547.955,957.139 "/>
<path class="Harmony" d="M589.867,983.439 L572.067,984.539 L572.067,988.839 L576.167,988.839 C579.967,988.939 580.467,989.539 580.467,993.839 L580.467,1017.74 L580.467,1021.64 L580.467,1022.44 C580.367,1023.94 580.267,1024.54 579.867,1025.04 C579.167,1025.94 577.267,1026.34 572.967,1026.44 L572.567,1026.44 L572.567,1030.04 L597.767,1030.04 L597.767,1026.44 L597.367,1026.44 C590.767,1026.24 589.867,1025.74 589.867,1022.04 L589.867,1017.74 L589.867,1003.54 C589.867,994.639 594.767,988.039 601.267,988.039 C606.967,988.039 609.867,992.139 609.867,1000.24 L609.867,1017.74 L609.867,1022.54 C609.767,1023.84 609.667,1024.54 609.167,1025.04 C608.567,1025.94 606.567,1026.34 602.267,1026.44 L601.867,1026.44 L601.867,1030.04 L627.167,1030.04 L627.167,1026.44 L626.767,1026.44 C620.167,1026.24 619.267,1025.74 619.267,1022.14 L619.267,1017.74 L619.267,1004.44 C619.267,994.439 623.767,988.039 630.767,988.039 C636.467,988.039 639.267,992.339 639.267,1001.34 L639.267,1017.74 L639.267,1022.44 C639.167,1023.84 639.067,1024.54 638.567,1025.04 C637.967,1025.94 635.967,1026.34 631.667,1026.44 L631.267,1026.44 L631.267,1030.04 L656.567,1030.04 L656.567,1026.44 L656.167,1026.44 C649.567,1026.24 648.667,1025.74 648.667,1022.04 L648.667,1017.74 L648.667,999.339 C648.667,993.139 648.067,991.039 645.467,987.639 C642.567,983.939 638.467,981.939 633.667,981.939 C627.167,981.939 622.367,985.039 618.067,991.939 C616.367,985.939 610.967,981.939 604.267,981.939 C598.167,981.939 593.767,984.839 589.867,991.139 L589.867,983.439 "/>
<path class="Harmony" d="M2295.34,957.139 L2291.54,957.139 L2287.54,963.039 C2280.24,957.739 2276.54,956.339 2269.64,956.339 C2260.14,956.339 2252.04,960.339 2245.34,968.339 C2238.94,975.939 2235.94,984.339 2235.94,994.639 C2235.94,1016.24 2250.04,1031.54 2269.74,1031.54 C2285.74,1031.54 2295.94,1022.14 2298.24,1005.34 L2293.54,1004.54 C2290.84,1019.44 2283.24,1026.84 2270.94,1026.84 C2256.14,1026.84 2249.14,1016.64 2249.14,995.039 C2249.14,983.639 2250.64,976.139 2254.04,970.139 C2257.14,964.539 2263.24,961.039 2269.74,961.039 C2276.74,961.039 2282.94,964.739 2286.74,971.139 C2288.64,974.439 2290.04,978.139 2292.44,986.039 L2296.84,986.039 L2295.34,957.139 "/>
<path class="Harmony" d="M2332.74,983.439 L2314.94,984.539 L2314.94,988.839 L2319.04,988.839 C2322.84,988.939 2323.34,989.539 2323.34,993.839 L2323.34,1017.74 L2323.34,1021.64 L2323.34,1022.44 C2323.24,1023.94 2323.14,1024.54 2322.74,1025.04 C2322.04,1025.94 2320.14,1026.34 2315.84,1026.44 L2315.44,1026.44 L2315.44,1030.04 L2340.64,1030.04 L2340.64,1026.44 L2340.24,1026.44 C2333.64,1026.24 2332.74,1025.74 2332.74,1022.04 L2332.74,1017.74 L2332.74,1003.54 C2332.74,994.639 2337.64,988.039 2344.14,988.039 C2349.84,988.039 2352.74,992.139 2352.74,1000.24 L2352.74,1017.74 L2352.74,1022.54 C2352.64,1023.84 2352.54,1024.54 2352.04,1025.04 C2351.44,1025.94 2349.44,1026.34 2345.14,1026.44 L2344.74,1026.44 L2344.74,1030.04 L2370.04,1030.04 L2370.04,1026.44 L2369.64,1026.44 C2363.04,1026.24 2362.14,1025.74 2362.14,1022.14 L2362.14,1017.74 L2362.14,1004.44 C2362.14,994.439 2366.64,988.039 2373.64,988.039 C2379.34,988.039 2382.14,992.339 2382.14,1001.34 L2382.14,1017.74 L2382.14,1022.44 C2382.04,1023.84 2381.94,1024.54 2381.44,1025.04 C2380.84,1025.94 2378.84,1026.34 2374.54,1026.44 L2374.14,1026.44 L2374.14,1030.04 L2399.44,1030.04 L2399.44,1026.44 L2399.04,1026.44 C2392.44,1026.24 2391.54,1025.74 2391.54,1022.04 L2391.54,1017.74 L2391.54,999.339 C2391.54,993.139 2390.94,991.039 2388.34,987.639 C2385.44,983.939 2381.34,981.939 2376.54,981.939 C2370.04,981.939 2365.24,985.039 2360.94,991.939 C2359.24,985.939 2353.84,981.939 2347.14,981.939 C2341.04,981.939 2336.64,984.839 2332.74,991.139 L2332.74,983.439 "/>
<path class="Harmony" d="M3686.84,957.139 L3683.04,957.139 L3679.14,963.139 C3672.64,958.039 3668.24,956.339 3660.94,956.339 C3653.04,956.339 3646.84,958.539 3640.54,963.639 C3630.64,971.639 3626.04,981.739 3626.04,995.239 C3626.04,1005.44 3628.94,1013.94 3634.84,1020.44 C3641.04,1027.44 3650.24,1031.54 3659.84,1031.54 C3668.24,1031.54 3674.14,1028.94 3680.64,1022.44 L3684.34,1031.44 L3688.54,1031.44 L3688.54,1009.44 C3688.54,1004.34 3688.54,1004.14 3689.14,1003.24 C3690.04,1002.14 3691.84,1001.84 3697.54,1001.84 L3699.04,1001.84 L3699.04,997.139 L3667.24,997.139 L3667.24,1001.84 L3669.14,1001.84 C3677.54,1001.84 3678.24,1002.34 3678.24,1007.94 C3678.24,1012.24 3677.54,1016.14 3676.24,1018.54 C3673.74,1023.44 3667.34,1026.84 3660.84,1026.84 C3654.34,1026.84 3647.94,1023.54 3644.54,1018.54 C3640.84,1012.94 3639.24,1005.94 3639.24,995.239 C3639.24,972.939 3646.64,961.039 3660.54,961.039 C3671.94,961.039 3679.84,969.239 3683.94,985.239 L3688.24,985.239 L3686.84,957.139 "/>
<path class="Harmony" d="M3728.75,983.439 L3710.95,984.539 L3710.95,988.839 L3715.05,988.839 C3718.85,988.939 3719.35,989.539 3719.35,993.839 L3719.35,1017.74 L3719.35,1021.64 L3719.35,1022.44 C3719.25,1023.94 3719.15,1024.54 3718.75,1025.04 C3718.05,1025.94 3716.15,1026.34 3711.85,1026.44 L3711.45,1026.44 L3711.45,1030.04 L3736.65,1030.04 L3736.65,1026.44 L3736.25,1026.44 C3729.65,1026.24 3728.75,1025.74 3728.75,1022.04 L3728.75,1017.74 L3728.75,1003.54 C3728.75,994.639 3733.65,988.039 3740.15,988.039 C3745.85,988.039 3748.75,992.139 3748.75,1000.24 L3748.75,1017.74 L3748.75,1022.54 C3748.65,1023.84 3748.55,1024.54 3748.05,1025.04 C3747.45,1025.94 3745.45,1026.34 3741.15,1026.44 L3740.75,1026.44 L3740.75,1030.04 L3766.05,1030.04 L3766.05,1026.44 L3765.65,1026.44 C3759.05,1026.24 3758.15,1025.74 3758.15,1022.14 L3758.15,1017.74 L3758.15,1004.44 C3758.15,994.439 3762.65,988.039 3769.65,988.039 C3775.35,988.039 3778.15,992.339 3778.15,1001.34 L3778.15,1017.74 L3778.15,1022.44 C3778.05,1023.84 3777.95,1024.54 3777.45,1025.04 C3776.85,1025.94 3774.85,1026.34 3770.55,1026.44 L3770.15,1026.44 L3770.15,1030.04 L3795.45,1030.04 L3795.45,1026.44 L3795.05,1026.44 C3788.45,1026.24 3787.55,1025.74 3787.55,1022.04 L3787.55,1017.74 L3787.55,999.339 C3787.55,993.139 3786.95,991.039 3784.35,987.639 C3781.45,983.939 3777.35,981.939 3772.55,981.939 C3766.05,981.939 3761.25,985.039 3756.95,991.939 C3755.25,985.939 3749.85,981.939 3743.15,981.939 C3737.05,981.939 3732.65,984.839 3728.75,991.139 L3728.75,983.439 "/>
<path class="Harmony" d="M1359.71,1734.89 L1355.91,1734.89 L1351.91,1740.79 C1344.61,1735.49 1340.91,1734.09 1334.01,1734.09 C1324.51,1734.09 1316.41,1738.09 1309.71,1746.09 C1303.31,1753.69 1300.31,1762.09 1300.31,1772.39 C1300.31,1793.99 1314.41,1809.29 1334.11,1809.29 C1350.11,1809.29 1360.31,1799.89 1362.61,1783.09 L1357.91,1782.29 C1355.21,1797.19 1347.61,1804.59 1335.31,1804.59 C1320.51,1804.59 1313.51,1794.39 1313.51,1772.79 C1313.51,1761.39 1315.01,1753.89 1318.41,1747.89 C1321.51,1742.29 1327.61,1738.79 1334.11,1738.79 C1341.11,1738.79 1347.31,1742.49 1351.11,1748.89 C1353.01,1752.19 1354.41,1755.89 1356.81,1763.79 L1361.21,1763.79 L1359.71,1734.89 "/>
<path class="Harmony" d="M1397.11,1761.19 L1379.31,1762.29 L1379.31,1766.59 L1383.41,1766.59 C1387.21,1766.69 1387.71,1767.29 1387.71,1771.59 L1387.71,1795.49 L1387.71,1799.39 L1387.71,1800.19 C1387.61,1801.69 1387.51,1802.29 1387.11,1802.79 C1386.41,1803.69 1384.51,1804.09 1380.21,1804.19 L1379.81,1804.19 L1379.81,1807.79 L1405.01,1807.79 L1405.01,1804.19 L1404.61,1804.19 C1398.01,1803.99 1397.11,1803.49 1397.11,1799.79 L1397.11,1795.49 L1397.11,1781.29 C1397.11,1772.39 1402.01,1765.79 1408.51,1765.79 C1414.21,1765.79 1417.11,1769.89 1417.11,1777.99 L1417.11,1795.49 L1417.11,1800.29 C1417.01,1801.59 1416.91,1802.29 1416.41,1802.79 C1415.81,1803.69 1413.81,1804.09 1409.51,1804.19 L1409.11,1804.19 L1409.11,1807.79 L1434.41,1807.79 L1434.41,1804.19 L1434.01,1804.19 C1427.41,1803.99 1426.51,1803.49 1426.51,1799.89 L1426.51,1795.49 L1426.51,1782.19 C1426.51,1772.19 1431.01,1765.79 1438.01,1765.79 C1443.71,1765.79 1446.51,1770.09 1446.51,1779.09 L1446.51,1795.49 L1446.51,1800.19 C1446.41,1801.59 1446.31,1802.29 1445.81,1802.79 C1445.21,1803.69 1443.21,1804.09 1438.91,1804.19 L1438.51,1804.19 L1438.51,1807.79 L1463.81,1807.79 L1463.81,1804.19 L1463.41,1804.19 C1456.81,1803.99 1455.91,1803.49 1455.91,1799.79 L1455.91,1795.49 L1455.91,1777.09 C1455.91,1770.89 1455.31,1768.79 1452.71,1765.39 C1449.81,1761.69 1445.71,1759.69 1440.91,1759.69 C1434.41,1759.69 1429.61,1762.79 1425.31,1769.69 C1423.61,1763.69 1418.21,1759.69 1411.51,1759.69 C1405.41,1759.69 1401.01,1762.59 1397.11,1768.89 L1397.11,1761.19 "/>
<path class="Harmony" d="M2118.05,1807.79 L2151.65,1807.79 C2160.55,1807.79 2167.35,1806.39 2172.65,1803.39 C2182.75,1797.69 2188.35,1786.29 2188.35,1771.29 C2188.35,1757.49 2183.35,1746.69 2174.15,1740.69 C2168.65,1737.19 2161.25,1735.59 2149.85,1735.59 L2118.05,1735.59 L2118.05,1740.29 L2119.95,1740.29 C2125.55,1740.39 2127.45,1740.69 2128.25,1741.69 C2128.85,1742.59 2128.85,1742.79 2128.85,1747.89 L2128.85,1795.49 C2128.85,1800.59 2128.85,1800.79 2128.25,1801.69 C2127.45,1802.69 2125.55,1802.99 2119.95,1803.09 L2118.05,1803.09 L2118.05,1807.79 M2145.75,1803.09 C2140.65,1803.09 2140.05,1802.49 2140.05,1797.59 L2140.05,1745.89 C2140.05,1740.99 2140.75,1740.29 2145.75,1740.29 L2150.95,1740.29 C2168.05,1740.29 2175.15,1749.59 2175.15,1771.69 C2175.15,1794.09 2168.75,1803.09 2152.55,1803.09 L2145.75,1803.09 "/>
<path class="Harmony" d="M2207.86,1761.59 L2212.26,1762.29 L2214.06,1754.39 C2215.56,1747.79 2216.26,1746.79 2219.16,1746.79 C2219.66,1746.79 2220.46,1746.79 2221.36,1746.89 C2233.66,1747.49 2233.66,1747.49 2238.26,1747.49 C2239.56,1747.49 2241.86,1747.49 2244.66,1747.39 L2237.86,1761.09 C2230.46,1775.79 2229.56,1777.59 2227.06,1783.79 C2223.96,1791.29 2222.36,1797.59 2222.36,1801.79 C2222.36,1806.39 2224.76,1809.19 2228.66,1809.19 C2233.46,1809.19 2235.36,1805.99 2235.26,1797.29 C2234.76,1782.89 2236.56,1775.89 2247.26,1752.49 C2248.76,1749.29 2250.26,1746.19 2251.76,1743.09 C2251.86,1742.89 2252.16,1741.99 2252.76,1740.69 L2252.76,1737.79 C2246.76,1738.29 2243.56,1738.49 2237.36,1738.49 C2228.66,1738.49 2221.76,1738.19 2210.96,1737.39 L2207.86,1761.59 "/>
<path class="Harmony" d="M2996.58,1734.89 L2992.78,1734.89 L2988.88,1740.89 C2982.38,1735.79 2977.98,1734.09 2970.68,1734.09 C2962.78,1734.09 2956.58,1736.29 2950.28,1741.39 C2940.38,1749.39 2935.78,1759.49 2935.78,1772.99 C2935.78,1783.19 2938.68,1791.69 2944.58,1798.19 C2950.78,1805.19 2959.98,1809.29 2969.58,1809.29 C2977.98,1809.29 2983.88,1806.69 2990.38,1800.19 L2994.08,1809.19 L2998.28,1809.19 L2998.28,1787.19 C2998.28,1782.09 2998.28,1781.89 2998.88,1780.99 C2999.78,1779.89 3001.58,1779.59 3007.28,1779.59 L3008.78,1779.59 L3008.78,1774.89 L2976.98,1774.89 L2976.98,1779.59 L2978.88,1779.59 C2987.28,1779.59 2987.98,1780.09 2987.98,1785.69 C2987.98,1789.99 2987.28,1793.89 2985.98,1796.29 C2983.48,1801.19 2977.08,1804.59 2970.58,1804.59 C2964.08,1804.59 2957.68,1801.29 2954.28,1796.29 C2950.58,1790.69 2948.98,1783.69 2948.98,1772.99 C2948.98,1750.69 2956.38,1738.79 2970.28,1738.79 C2981.68,1738.79 2989.58,1746.99 2993.68,1762.99 L2997.98,1762.99 L2996.58,1734.89 "/>
<path class="Harmony" d="M3038.49,1761.19 L3020.69,1762.29 L3020.69,1766.59 L3024.79,1766.59 C3028.59,1766.69 3029.09,1767.29 3029.09,1771.59 L3029.09,1795.49 L3029.09,1799.39 L3029.09,1800.19 C3028.99,1801.69 3028.89,1802.29 3028.49,1802.79 C3027.79,1803.69 3025.89,1804.09 3021.59,1804.19 L3021.19,1804.19 L3021.19,1807.79 L3046.39,1807.79 L3046.39,1804.19 L3045.99,1804.19 C3039.39,1803.99 3038.49,1803.49 3038.49,1799.79 L3038.49,1795.49 L3038.49,1781.29 C3038.49,1772.39 3043.39,1765.79 3049.89,1765.79 C3055.59,1765.79 3058.49,1769.89 3058.49,1777.99 L3058.49,1795.49 L3058.49,1800.29 C3058.39,1801.59 3058.29,1802.29 3057.79,1802.79 C3057.19,1803.69 3055.19,1804.09 3050.89,1804.19 L3050.49,1804.19 L3050.49,1807.79 L3075.79,1807.79 L3075.79,1804.19 L3075.39,1804.19 C3068.79,1803.99 3067.89,1803.49 3067.89,1799.89 L3067.89,1795.49 L3067.89,1782.19 C3067.89,1772.19 3072.39,1765.79 3079.39,1765.79 C3085.09,1765.79 3087.89,1770.09 3087.89,1779.09 L3087.89,1795.49 L3087.89,1800.19 C3087.79,1801.59 3087.69,1802.29 3087.19,1802.79 C3086.59,1803.69 3084.59,1804.09 3080.29,1804.19 L3079.89,1804.19 L3079.89,1807.79 L3105.19,1807.79 L3105.19,1804.19 L3104.79,1804.19 C3098.19,1803.99 3097.29,1803.49 3097.29,1799.79 L3097.29,1795.49 L3097.29,1777.09 C3097.29,1770.89 3096.69,1768.79 3094.09,1765.39 C3091.19,1761.69 3087.09,1759.69 3082.29,1759.69 C3075.79,1759.69 3070.99,1762.79 3066.69,1769.69 C3064.99,1763.69 3059.59,1759.69 3052.89,1759.69 C3046.79,1759.69 3042.39,1762.59 3038.49,1768.89 L3038.49,1761.19 "/>
<path class="VoltaSegment" d="M806.638,1085.52 L802.998,1085.52 C796.446,1090.41 789.062,1092.49 776.686,1092.69 L776.686,1098.52 L781.054,1098.52 C790.31,1098.52 790.414,1098.73 790.31,1107.25 L790.31,1144.17 C790.31,1150.62 790.31,1150.93 789.582,1151.97 C788.646,1153.12 786.566,1153.53 780.95,1153.53 L777.622,1153.53 L777.622,1159.15 L819.118,1159.15 L819.118,1153.53 L815.79,1153.53 C810.278,1153.53 808.302,1153.12 807.366,1151.97 C806.638,1150.93 806.638,1150.52 806.638,1144.17 L806.638,1085.52 "/>
<polyline class="VoltaSegment" fill="none" stroke="#000000" stroke-width="5.22" stroke-linecap="square" stroke-linejoin="bevel" points="748.191,1159.15 748.191,1054.69"/>
<polyline class="VoltaSegment" fill="none" stroke="#000000" stroke-width="5.22" stroke-linecap="square" stroke-linejoin="bevel" points="748.191,1054.69 1365.07,1054.69"/>
<polyline class="VoltaSegment" fill="none" stroke="#000000" stroke-width="5.22" stroke-linecap="square" stroke-linejoin="bevel" points="1365.07,1054.69 1365.07,1159.15"/>
<path class="VoltaSegment" d="M1468.66,1128.22 L1467.52,1133.42 C1466.58,1137.58 1465.96,1138.93 1465.13,1139.45 C1464.09,1140.18 1463.88,1140.18 1457.33,1140.29 L1437.26,1140.29 C1440.9,1137.17 1443.6,1135.19 1447.66,1132.49 C1462.32,1123.02 1465.34,1120.73 1468.35,1116.89 C1471.89,1112.21 1473.97,1106.69 1473.97,1101.81 C1473.97,1090.68 1463.05,1082.25 1448.38,1082.25 C1434.24,1082.25 1423.32,1091.41 1423.32,1103.26 C1423.32,1110.54 1427.38,1115.22 1433.62,1115.22 C1439.02,1115.22 1442.46,1111.79 1442.46,1106.38 C1442.46,1101.91 1440.48,1099.31 1435.7,1097.02 C1434.55,1096.5 1434.03,1095.88 1434.03,1095.05 C1434.03,1091.72 1439.65,1088.18 1444.85,1088.18 C1452.13,1088.18 1456.29,1092.65 1456.29,1100.35 C1456.29,1108.98 1452.96,1115.12 1441.94,1126.87 C1430.29,1139.25 1426.23,1143.93 1421.03,1151.41 L1421.03,1156.3 C1423.74,1155.99 1424.88,1155.89 1426.44,1155.89 L1465.54,1155.89 C1467.52,1155.89 1468.77,1155.99 1471.89,1156.3 L1474.28,1128.22 L1468.66,1128.22 "/>
<polyline class="VoltaSegment" fill="none" stroke="#000000" stroke-width="5.22" stroke-linecap="square" stroke-linejoin="bevel" points="1392.54,1155.89 1392.54,1051.43"/>
<polyline class="VoltaSegment" fill="none" stroke="#000000" stroke-width="5.22" stroke-linecap="square" stroke-linejoin="bevel" points="1392.54,1051.43 1870.13,1051.43"/>
<path class="NoteDot" transform="matrix(1.89921,0,0,1.89921,1522.62,1252.2)" d="M0,-0.00166016 C0,2.75977 2.23857,4.99834 5,4.99834 C7.76143,4.99834 10,2.75977 10,-0.00166016 C10,-2.76309 7.76143,-5.00166 5,-5.00166 C2.23857,-5.00166 0,-2.76309 0,-0.00166016"/>
<path class="NoteDot" transform="matrix(1.89921,0,0,1.89921,2877.6,1252.2)" d="M0,-0.00166016 C0,2.75977 2.23857,4.99834 5,4.99834 C7.76143,4.99834 10,2.75977 10,-0.00166016 C10,-2.76309 7.76143,-5.00166 5,-5.00166 C2.23857,-5.00166 0,-2.76309 0,-0.00166016"/>
</svg>
