<?xml version="1.0" encoding="UTF-8" standalone="no"?>
<svg width="4208.47px" height="2977.23px" viewBox="0 0 4208.47 2977.23"
 xmlns="http://www.w3.org/2000/svg" xmlns:xlink="http://www.w3.org/1999/xlink" version="1.2" baseProfile="tiny">
<title>Flauta Transversal</title>
<desc>Generated by MuseScore 3.6.2</desc>
<polyline class="StaffLines" fill="none" stroke="#000000" stroke-width="3.80" stroke-linejoin="bevel" points="212.598,717.631 3995.01,717.631"/>
<polyline class="StaffLines" fill="none" stroke="#000000" stroke-width="3.80" stroke-linejoin="bevel" points="212.598,765.111 3995.01,765.111"/>
<polyline class="StaffLines" fill="none" stroke="#000000" stroke-width="3.80" stroke-linejoin="bevel" points="212.598,812.591 3995.01,812.591"/>
<polyline class="StaffLines" fill="none" stroke="#000000" stroke-width="3.80" stroke-linejoin="bevel" points="212.598,860.072 3995.01,860.072"/>
<polyline class="StaffLines" fill="none" stroke="#000000" stroke-width="3.80" stroke-linejoin="bevel" points="212.598,907.552 3995.01,907.552"/>
<polyline class="StaffLines" fill="none" stroke="#000000" stroke-width="3.80" stroke-linejoin="bevel" points="212.598,1479.99 3995.01,1479.99"/>
<polyline class="StaffLines" fill="none" stroke="#000000" stroke-width="3.80" stroke-linejoin="bevel" points="212.598,1527.47 3995.01,1527.47"/>
<polyline class="StaffLines" fill="none" stroke="#000000" stroke-width="3.80" stroke-linejoin="bevel" points="212.598,1574.95 3995.01,1574.95"/>
<polyline class="StaffLines" fill="none" stroke="#000000" stroke-width="3.80" stroke-linejoin="bevel" points="212.598,1622.43 3995.01,1622.43"/>
<polyline class="StaffLines" fill="none" stroke="#000000" stroke-width="3.80" stroke-linejoin="bevel" points="212.598,1669.91 3995.01,1669.91"/>
<polyline class="StaffLines" fill="none" stroke="#000000" stroke-width="3.80" stroke-linejoin="bevel" points="212.598,2242.35 3995.01,2242.35"/>
<polyline class="StaffLines" fill="none" stroke="#000000" stroke-width="3.80" stroke-linejoin="bevel" points="212.598,2289.83 3995.01,2289.83"/>
<polyline class="StaffLines" fill="none" stroke="#000000" stroke-width="3.80" stroke-linejoin="bevel" points="212.598,2337.31 3995.01,2337.31"/>
<polyline class="StaffLines" fill="none" stroke="#000000" stroke-width="3.80" stroke-linejoin="bevel" points="212.598,2384.79 3995.01,2384.79"/>
<polyline class="StaffLines" fill="none" stroke="#000000" stroke-width="3.80" stroke-linejoin="bevel" points="212.598,2432.27 3995.01,2432.27"/>
<path class="Text" d="M1870.63,212.596 L1870.63,214.876 C1867.67,215.036 1865.57,215.756 1864.33,217.036 C1863.09,218.316 1861.51,221.316 1859.59,226.036 L1832.95,293.356 L1831.15,293.356 L1801.63,227.476 C1799.31,222.196 1797.37,218.816 1795.81,217.336 C1794.25,215.856 1791.95,215.036 1788.91,214.876 L1788.91,212.596 L1820.83,212.596 L1820.83,214.876 C1818.59,215.036 1817.43,215.116 1817.35,215.116 C1813.67,215.356 1811.83,216.596 1811.83,218.836 C1811.83,220.436 1813.47,224.876 1816.75,232.156 L1834.87,272.716 L1852.51,228.676 C1854.03,224.836 1854.79,221.916 1854.79,219.916 C1854.79,218.236 1854.15,217.016 1852.87,216.256 C1851.59,215.496 1849.31,215.036 1846.03,214.876 L1846.03,212.596 L1870.63,212.596 M1883.46,258.796 C1883.62,263.836 1884.3,268.176 1885.5,271.816 C1886.7,275.456 1888.26,278.176 1890.18,279.976 C1892.1,281.776 1894.04,283.056 1896,283.816 C1897.96,284.576 1900.02,284.956 1902.18,284.956 C1906.02,284.956 1909.36,283.996 1912.2,282.076 C1915.04,280.156 1917.9,276.916 1920.78,272.356 L1922.7,273.196 C1920.22,279.676 1916.78,284.636 1912.38,288.076 C1907.98,291.516 1902.94,293.236 1897.26,293.236 C1890.38,293.236 1884.92,290.816 1880.88,285.976 C1876.84,281.136 1874.82,274.596 1874.82,266.356 C1874.82,257.476 1877.16,250.336 1881.84,244.936 C1886.52,239.536 1892.54,236.836 1899.9,236.836 C1905.98,236.836 1910.7,238.656 1914.06,242.296 C1917.42,245.936 1919.54,251.436 1920.42,258.796 L1883.46,258.796 M1883.7,254.956 L1908.18,254.956 C1907.38,249.756 1906.14,246.156 1904.46,244.156 C1902.78,242.156 1900.1,241.156 1896.42,241.156 C1889.22,241.156 1884.98,245.756 1883.7,254.956 M1926.64,244.276 L1926.64,242.236 C1932.4,240.636 1938,238.836 1943.44,236.836 L1944.28,237.076 L1944.28,246.076 C1949.24,242.316 1952.92,239.836 1955.32,238.636 C1957.72,237.436 1960.24,236.836 1962.88,236.836 C1969.2,236.836 1973.44,240.196 1975.6,246.916 C1981.84,240.196 1988.36,236.836 1995.16,236.836 C2004.44,236.836 2009.08,243.956 2009.08,258.196 L2009.08,282.916 C2009.08,287.396 2010.8,289.756 2014.24,289.996 L2017.36,290.236 L2017.36,292.036 L1991.08,292.036 L1991.08,290.236 C1994.6,289.836 1996.8,289.156 1997.68,288.196 C1998.56,287.236 1999,285.036 1999,281.596 L1999,256.276 C1999,251.316 1998.36,247.876 1997.08,245.956 C1995.8,244.036 1993.44,243.076 1990,243.076 C1984.72,243.076 1980.36,245.516 1976.92,250.396 L1976.92,280.636 C1976.92,284.396 1977.5,286.916 1978.66,288.196 C1979.82,289.476 1982.12,290.156 1985.56,290.236 L1985.56,292.036 L1958.68,292.036 L1958.68,290.236 C1962.12,289.996 1964.34,289.356 1965.34,288.316 C1966.34,287.276 1966.84,285.076 1966.84,281.716 L1966.84,255.676 C1966.84,247.276 1964.2,243.076 1958.92,243.076 C1956.68,243.076 1954.18,243.636 1951.42,244.756 C1948.66,245.876 1946.44,247.676 1944.76,250.156 L1944.76,283.996 C1944.76,286.316 1945.32,287.896 1946.44,288.736 C1947.56,289.576 1949.72,290.076 1952.92,290.236 L1952.92,292.036 L1926.28,292.036 L1926.28,290.236 C1929.64,290.156 1931.88,289.556 1933,288.436 C1934.12,287.316 1934.68,285.116 1934.68,281.836 L1934.68,251.476 C1934.68,248.596 1934.38,246.596 1933.78,245.476 C1933.18,244.356 1932.08,243.796 1930.48,243.796 C1929.28,243.796 1928,243.956 1926.64,244.276 M2129.79,223.276 L2099.07,292.036 L2097.39,292.036 L2067.27,226.036 L2067.27,274.396 C2067.27,280.476 2067.99,284.496 2069.43,286.456 C2070.87,288.416 2073.91,289.516 2078.55,289.756 L2078.55,292.036 L2050.35,292.036 L2050.35,289.756 C2055.31,289.436 2058.49,288.336 2059.89,286.456 C2061.29,284.576 2061.99,280.556 2061.99,274.396 L2061.99,225.676 C2061.99,221.276 2061.33,218.456 2060.01,217.216 C2058.69,215.976 2055.55,215.196 2050.59,214.876 L2050.59,212.596 L2074.35,212.596 L2102.07,273.196 L2128.59,212.596 L2152.47,212.596 L2152.47,214.876 C2147.99,215.276 2145.13,216.116 2143.89,217.396 C2142.65,218.676 2142.03,221.436 2142.03,225.676 L2142.03,278.956 C2142.03,283.196 2142.67,285.976 2143.95,287.296 C2145.23,288.616 2148.07,289.436 2152.47,289.756 L2152.47,292.036 L2118.87,292.036 L2118.87,289.756 C2123.59,289.436 2126.59,288.576 2127.87,287.176 C2129.15,285.776 2129.79,282.596 2129.79,277.636 L2129.79,223.276 M2183.79,236.836 C2191.47,236.836 2197.79,239.396 2202.75,244.516 C2207.71,249.636 2210.19,256.116 2210.19,263.956 C2210.19,272.276 2207.63,279.236 2202.51,284.836 C2197.39,290.436 2191.07,293.236 2183.55,293.236 C2176.03,293.236 2169.77,290.536 2164.77,285.136 C2159.77,279.736 2157.27,272.996 2157.27,264.916 C2157.27,256.676 2159.73,249.936 2164.65,244.696 C2169.57,239.456 2175.95,236.836 2183.79,236.836 M2168.07,259.036 C2168.07,267.596 2169.63,274.876 2172.75,280.876 C2175.87,286.876 2179.95,289.876 2184.99,289.876 C2189.47,289.876 2192.99,287.956 2195.55,284.116 C2198.11,280.276 2199.39,274.956 2199.39,268.156 C2199.39,259.916 2197.79,253.196 2194.59,247.996 C2191.39,242.796 2187.27,240.196 2182.23,240.196 C2177.99,240.196 2174.57,241.916 2171.97,245.356 C2169.37,248.796 2168.07,253.356 2168.07,259.036 M2249.3,248.596 C2248.1,248.596 2246.62,247.896 2244.86,246.496 C2243.1,245.096 2241.94,244.396 2241.38,244.396 C2239.78,244.396 2237.98,245.556 2235.98,247.876 C2233.98,250.196 2232.98,252.316 2232.98,254.236 L2232.98,281.236 C2232.98,284.676 2233.66,286.996 2235.02,288.196 C2236.38,289.396 2239.1,290.076 2243.18,290.236 L2243.18,292.036 L2214.38,292.036 L2214.38,290.236 C2218.22,289.516 2220.6,288.716 2221.52,287.836 C2222.44,286.956 2222.9,284.996 2222.9,281.956 L2222.9,251.956 C2222.9,249.316 2222.6,247.456 2222,246.376 C2221.4,245.296 2220.34,244.756 2218.82,244.756 C2217.54,244.756 2216.14,244.916 2214.62,245.236 L2214.62,243.316 C2221.02,241.236 2226.94,239.076 2232.38,236.836 L2232.98,237.076 L2232.98,248.116 C2235.94,243.876 2238.46,240.936 2240.54,239.296 C2242.62,237.656 2244.9,236.836 2247.38,236.836 C2249.46,236.836 2251.08,237.396 2252.24,238.516 C2253.4,239.636 2253.98,241.196 2253.98,243.196 C2253.98,244.876 2253.56,246.196 2252.72,247.156 C2251.88,248.116 2250.74,248.596 2249.3,248.596 M2266.21,258.796 C2266.37,263.836 2267.05,268.176 2268.25,271.816 C2269.45,275.456 2271.01,278.176 2272.93,279.976 C2274.85,281.776 2276.79,283.056 2278.75,283.816 C2280.71,284.576 2282.77,284.956 2284.93,284.956 C2288.77,284.956 2292.11,283.996 2294.95,282.076 C2297.79,280.156 2300.65,276.916 2303.53,272.356 L2305.45,273.196 C2302.97,279.676 2299.53,284.636 2295.13,288.076 C2290.73,291.516 2285.69,293.236 2280.01,293.236 C2273.13,293.236 2267.67,290.816 2263.63,285.976 C2259.59,281.136 2257.57,274.596 2257.57,266.356 C2257.57,257.476 2259.91,250.336 2264.59,244.936 C2269.27,239.536 2275.29,236.836 2282.65,236.836 C2288.73,236.836 2293.45,238.656 2296.81,242.296 C2300.17,245.936 2302.29,251.436 2303.17,258.796 L2266.21,258.796 M2266.45,254.956 L2290.93,254.956 C2290.13,249.756 2288.89,246.156 2287.21,244.156 C2285.53,242.156 2282.85,241.156 2279.17,241.156 C2271.97,241.156 2267.73,245.756 2266.45,254.956 M2309.03,244.276 L2309.03,242.236 C2314.95,240.476 2320.47,238.676 2325.59,236.836 L2326.43,237.076 L2326.43,246.556 C2330.51,242.716 2333.73,240.136 2336.09,238.816 C2338.45,237.496 2341.03,236.836 2343.83,236.836 C2348.23,236.836 2351.69,238.416 2354.21,241.576 C2356.73,244.736 2357.99,249.156 2357.99,254.836 L2357.99,282.316 C2357.99,285.276 2358.47,287.256 2359.43,288.256 C2360.39,289.256 2362.35,289.916 2365.31,290.236 L2365.31,292.036 L2340.35,292.036 L2340.35,290.236 C2343.39,289.996 2345.41,289.196 2346.41,287.836 C2347.41,286.476 2347.91,283.916 2347.91,280.156 L2347.91,255.076 C2347.91,247.316 2344.99,243.436 2339.15,243.436 C2337.15,243.436 2335.31,243.896 2333.63,244.816 C2331.95,245.736 2329.67,247.556 2326.79,250.276 L2326.79,283.996 C2326.79,286.156 2327.35,287.676 2328.47,288.556 C2329.59,289.436 2331.67,289.996 2334.71,290.236 L2334.71,292.036 L2309.27,292.036 L2309.27,290.236 C2312.31,289.996 2314.31,289.296 2315.27,288.136 C2316.23,286.976 2316.71,284.676 2316.71,281.236 L2316.71,251.476 C2316.71,248.516 2316.39,246.496 2315.75,245.416 C2315.11,244.336 2313.95,243.796 2312.27,243.796 C2310.75,243.796 2309.67,243.956 2309.03,244.276 M2369.5,280.396 C2369.5,278.956 2369.66,277.616 2369.98,276.376 C2370.3,275.136 2370.86,273.976 2371.66,272.896 C2372.46,271.816 2373.22,270.836 2373.94,269.956 C2374.66,269.076 2375.74,268.176 2377.18,267.256 C2378.62,266.336 2379.82,265.576 2380.78,264.976 C2381.74,264.376 2383.2,263.656 2385.16,262.816 C2387.12,261.976 2388.62,261.336 2389.66,260.896 C2390.7,260.456 2392.34,259.796 2394.58,258.916 C2396.82,258.036 2398.46,257.396 2399.5,256.996 L2399.5,249.676 C2399.5,243.036 2396.46,239.716 2390.38,239.716 C2387.98,239.716 2385.94,240.296 2384.26,241.456 C2382.58,242.616 2381.74,243.996 2381.74,245.596 C2381.74,246.236 2381.84,247.116 2382.04,248.236 C2382.24,249.356 2382.34,250.076 2382.34,250.396 C2382.34,251.756 2381.8,252.936 2380.72,253.936 C2379.64,254.936 2378.38,255.436 2376.94,255.436 C2375.58,255.436 2374.38,254.916 2373.34,253.876 C2372.3,252.836 2371.78,251.636 2371.78,250.276 C2371.78,246.516 2373.72,243.336 2377.6,240.736 C2381.48,238.136 2386.26,236.836 2391.94,236.836 C2398.5,236.836 2403.02,238.416 2405.5,241.576 C2407.98,244.736 2409.22,249.556 2409.22,256.036 L2409.22,279.436 C2409.22,282.076 2409.48,283.896 2410,284.896 C2410.52,285.896 2411.46,286.396 2412.82,286.396 C2414.5,286.396 2416.26,285.636 2418.1,284.116 L2418.1,287.236 C2416.02,289.556 2414.2,291.136 2412.64,291.976 C2411.08,292.816 2409.3,293.236 2407.3,293.236 C2404.82,293.236 2403,292.556 2401.84,291.196 C2400.68,289.836 2399.94,287.596 2399.62,284.476 C2392.74,290.316 2386.9,293.236 2382.1,293.236 C2378.42,293.236 2375.4,292.036 2373.04,289.636 C2370.68,287.236 2369.5,284.156 2369.5,280.396 M2399.5,277.276 L2399.5,259.876 C2392.3,262.516 2387.26,265.076 2384.38,267.556 C2381.5,270.036 2380.06,273.036 2380.06,276.556 C2380.06,279.836 2380.86,282.276 2382.46,283.876 C2384.06,285.476 2385.78,286.276 2387.62,286.276 C2390.34,286.276 2393.26,285.356 2396.38,283.516 C2397.66,282.796 2398.5,282.036 2398.9,281.236 C2399.3,280.436 2399.5,279.116 2399.5,277.276"/>
<path class="MeasureNumber" d="M228.91,1334.72 L228.91,1335.93 L212.798,1385.64 L207.858,1385.64 L222.906,1340.34 L206.414,1340.34 C204.337,1340.34 202.753,1340.72 201.664,1341.48 C200.575,1342.24 199.219,1343.91 197.598,1346.5 L196.306,1345.89 L200.79,1334.72 L228.91,1334.72 "/>
<path class="MeasureNumber" d="M185.256,2102.32 C184.344,2102.32 182.52,2102.88 179.784,2103.99 L179.784,2102.93 L193.464,2096.01 L194.072,2096.16 L194.072,2141.76 C194.072,2143.59 194.528,2144.78 195.44,2145.33 C196.352,2145.89 198.303,2146.2 201.292,2146.25 L201.292,2147.39 L180.316,2147.39 L180.316,2146.25 C183.154,2146.15 185.066,2145.73 186.054,2144.99 C187.042,2144.26 187.536,2142.7 187.536,2140.32 L187.536,2105.89 C187.536,2103.51 186.776,2102.32 185.256,2102.32 M211.704,2111.13 C211.958,2109.97 212.211,2108.96 212.464,2108.09 C212.718,2107.23 213.262,2105.98 214.098,2104.33 C214.934,2102.69 215.872,2101.32 216.91,2100.23 C217.949,2099.14 219.393,2098.16 221.242,2097.3 C223.092,2096.44 225.182,2096.01 227.512,2096.01 C231.464,2096.01 234.796,2097.3 237.506,2099.89 C240.217,2102.47 241.572,2105.66 241.572,2109.46 C241.572,2115.19 238.33,2121.45 231.844,2128.23 L219.076,2141.61 L237.24,2141.61 C238.963,2141.61 240.242,2141.32 241.078,2140.74 C241.914,2140.15 243.042,2138.77 244.46,2136.59 L245.448,2136.97 L241.268,2147.39 L211.628,2147.39 L211.628,2146.47 L225.156,2132.11 C231.743,2125.12 235.036,2118.53 235.036,2112.35 C235.036,2109.16 234.048,2106.57 232.072,2104.6 C230.096,2102.62 227.512,2101.63 224.32,2101.63 C221.686,2101.63 219.57,2102.36 217.974,2103.8 C216.378,2105.24 214.82,2107.82 213.3,2111.51 L211.704,2111.13 "/>
<path class="TieSegment" stroke="#000000" stroke-width="3.32" stroke-linecap="round" stroke-linejoin="round" fill-rule="evenodd" d="M2034.23,2277.96 C2235.56,2212.43 2839.54,2212.43 3040.87,2277.96 C2839.54,2220.03 2235.56,2220.03 2034.23,2277.96"/>
<polyline class="BarLine" stroke="#000000" stroke-width="23.74" stroke-linejoin="bevel" points="987.651,715.732 987.651,909.451"/>
<polyline class="BarLine" stroke="#000000" stroke-width="7.60" stroke-linejoin="bevel" points="1022.31,715.732 1022.31,909.451"/>
<path class="BarLine" transform="matrix(1.89921,0,0,1.89921,1041.45,812.591)" d="M1.66016,-8.49609 C0.553385,-9.60286 0,-10.9375 0,-12.5 C0,-14.0625 0.553385,-15.3971 1.66016,-16.5039 C2.76693,-17.6107 4.10156,-18.1641 5.66406,-18.1641 C7.22656,-18.1641 8.5612,-17.6107 9.66797,-16.5039 C10.7747,-15.3971 11.3281,-14.0625 11.3281,-12.5 C11.3281,-10.9375 10.7747,-9.60286 9.66797,-8.49609 C8.5612,-7.38932 7.22656,-6.83594 5.66406,-6.83594 C4.10156,-6.83594 2.76693,-7.38932 1.66016,-8.49609"/>
<path class="BarLine" transform="matrix(1.89921,0,0,1.89921,1041.45,860.072)" d="M1.66016,-8.49609 C0.553385,-9.60286 0,-10.9375 0,-12.5 C0,-14.0625 0.553385,-15.3971 1.66016,-16.5039 C2.76693,-17.6107 4.10156,-18.1641 5.66406,-18.1641 C7.22656,-18.1641 8.5612,-17.6107 9.66797,-16.5039 C10.7747,-15.3971 11.3281,-14.0625 11.3281,-12.5 C11.3281,-10.9375 10.7747,-9.60286 9.66797,-8.49609 C8.5612,-7.38932 7.22656,-6.83594 5.66406,-6.83594 C4.10156,-6.83594 2.76693,-7.38932 1.66016,-8.49609"/>
<polyline class="BarLine" stroke="#000000" stroke-width="7.60" stroke-linejoin="bevel" points="1548.84,715.732 1548.84,909.451"/>
<polyline class="BarLine" stroke="#000000" stroke-width="7.60" stroke-linejoin="bevel" points="2063.44,715.732 2063.44,909.451"/>
<polyline class="BarLine" stroke="#000000" stroke-width="7.60" stroke-linejoin="bevel" points="2576.24,715.732 2576.24,909.451"/>
<path class="BarLine" transform="matrix(1.89921,0,0,1.89921,3005.22,812.591)" d="M1.66016,-8.49609 C0.553385,-9.60286 0,-10.9375 0,-12.5 C0,-14.0625 0.553385,-15.3971 1.66016,-16.5039 C2.76693,-17.6107 4.10156,-18.1641 5.66406,-18.1641 C7.22656,-18.1641 8.5612,-17.6107 9.66797,-16.5039 C10.7747,-15.3971 11.3281,-14.0625 11.3281,-12.5 C11.3281,-10.9375 10.7747,-9.60286 9.66797,-8.49609 C8.5612,-7.38932 7.22656,-6.83594 5.66406,-6.83594 C4.10156,-6.83594 2.76693,-7.38932 1.66016,-8.49609"/>
<path class="BarLine" transform="matrix(1.89921,0,0,1.89921,3005.22,860.072)" d="M1.66016,-8.49609 C0.553385,-9.60286 0,-10.9375 0,-12.5 C0,-14.0625 0.553385,-15.3971 1.66016,-16.5039 C2.76693,-17.6107 4.10156,-18.1641 5.66406,-18.1641 C7.22656,-18.1641 8.5612,-17.6107 9.66797,-16.5039 C10.7747,-15.3971 11.3281,-14.0625 11.3281,-12.5 C11.3281,-10.9375 10.7747,-9.60286 9.66797,-8.49609 C8.5612,-7.38932 7.22656,-6.83594 5.66406,-6.83594 C4.10156,-6.83594 2.76693,-7.38932 1.66016,-8.49609"/>
<polyline class="BarLine" stroke="#000000" stroke-width="7.60" stroke-linejoin="bevel" points="3045.89,715.732 3045.89,909.451"/>
<polyline class="BarLine" stroke="#000000" stroke-width="23.74" stroke-linejoin="bevel" points="3080.55,715.732 3080.55,909.451"/>
<polyline class="BarLine" stroke="#000000" stroke-width="7.60" stroke-linejoin="bevel" points="3496.46,715.732 3496.46,909.451"/>
<polyline class="BarLine" stroke="#000000" stroke-width="7.60" stroke-linejoin="bevel" points="3991.21,715.732 3991.21,909.451"/>
<polyline class="BarLine" stroke="#000000" stroke-width="7.60" stroke-linejoin="bevel" points="1438.55,1478.09 1438.55,1671.81"/>
<polyline class="BarLine" stroke="#000000" stroke-width="7.60" stroke-linejoin="bevel" points="2138.08,1478.09 2138.08,1671.81"/>
<polyline class="BarLine" stroke="#000000" stroke-width="7.60" stroke-linejoin="bevel" points="2592.15,1478.09 2592.15,1671.81"/>
<polyline class="BarLine" stroke="#000000" stroke-width="7.60" stroke-linejoin="bevel" points="3128.04,1478.09 3128.04,1671.81"/>
<polyline class="BarLine" stroke="#000000" stroke-width="7.60" stroke-linejoin="bevel" points="3991.21,1478.09 3991.21,1671.81"/>
<polyline class="BarLine" stroke="#000000" stroke-width="7.60" stroke-linejoin="bevel" points="1938.38,2240.45 1938.38,2434.17"/>
<polyline class="BarLine" stroke="#000000" stroke-width="7.60" stroke-linejoin="bevel" points="2964.8,2240.45 2964.8,2434.17"/>
<polyline class="BarLine" stroke="#000000" stroke-width="7.60" stroke-linejoin="bevel" points="3948.48,2240.45 3948.48,2434.17"/>
<polyline class="BarLine" stroke="#000000" stroke-width="23.74" stroke-linejoin="bevel" points="3983.14,2240.45 3983.14,2434.17"/>
<polyline class="LedgerLine" stroke="#000000" stroke-width="7.60" stroke-linejoin="bevel" points="708.59,670.15 807.185,670.15"/>
<polyline class="LedgerLine" stroke="#000000" stroke-width="7.60" stroke-linejoin="bevel" points="1087.33,670.15 1185.92,670.15"/>
<polyline class="LedgerLine" stroke="#000000" stroke-width="7.60" stroke-linejoin="bevel" points="1811.84,670.15 1910.44,670.15"/>
<polyline class="LedgerLine" stroke="#000000" stroke-width="7.60" stroke-linejoin="bevel" points="2114.72,670.15 2213.32,670.15"/>
<polyline class="LedgerLine" stroke="#000000" stroke-width="7.60" stroke-linejoin="bevel" points="2774.22,670.15 2872.81,670.15"/>
<polyline class="Stem" stroke="#000000" stroke-width="6.17" stroke-linejoin="bevel" points="729.718,655.328 729.718,800.721"/>
<polyline class="Stem" stroke="#000000" stroke-width="6.17" stroke-linejoin="bevel" points="854.293,702.808 854.293,824.462"/>
<polyline class="Stem" stroke="#000000" stroke-width="6.17" stroke-linejoin="bevel" points="1108.46,679.068 1108.46,812.591"/>
<polyline class="Stem" stroke="#000000" stroke-width="6.17" stroke-linejoin="bevel" points="1218.35,726.548 1218.35,860.072"/>
<polyline class="Stem" stroke="#000000" stroke-width="6.17" stroke-linejoin="bevel" points="1328.24,774.029 1328.24,907.552"/>
<polyline class="Stem" stroke="#000000" stroke-width="6.17" stroke-linejoin="bevel" points="1438.14,797.769 1438.14,919.422"/>
<polyline class="Stem" stroke="#000000" stroke-width="6.17" stroke-linejoin="bevel" points="1603.21,750.288 1603.21,895.682"/>
<polyline class="Stem" stroke="#000000" stroke-width="6.17" stroke-linejoin="bevel" points="1718.09,797.769 1718.09,919.422"/>
<polyline class="Stem" stroke="#000000" stroke-width="6.17" stroke-linejoin="bevel" points="1832.97,655.328 1832.97,800.721"/>
<polyline class="Stem" stroke="#000000" stroke-width="6.17" stroke-linejoin="bevel" points="1947.85,702.808 1947.85,824.462"/>
<polyline class="Stem" stroke="#000000" stroke-width="6.17" stroke-linejoin="bevel" points="2135.85,679.068 2135.85,812.591"/>
<polyline class="Stem" stroke="#000000" stroke-width="6.17" stroke-linejoin="bevel" points="2245.74,726.548 2245.74,860.072"/>
<polyline class="Stem" stroke="#000000" stroke-width="6.17" stroke-linejoin="bevel" points="2355.64,774.029 2355.64,907.552"/>
<polyline class="Stem" stroke="#000000" stroke-width="6.17" stroke-linejoin="bevel" points="2465.53,797.769 2465.53,919.422"/>
<polyline class="Stem" stroke="#000000" stroke-width="6.17" stroke-linejoin="bevel" points="2630.6,797.769 2630.6,943.162"/>
<polyline class="Stem" stroke="#000000" stroke-width="6.17" stroke-linejoin="bevel" points="2795.35,655.328 2795.35,800.721"/>
<polyline class="Stem" stroke="#000000" stroke-width="6.17" stroke-linejoin="bevel" points="2898.31,702.808 2898.31,824.462"/>
<polyline class="Stem" stroke="#000000" stroke-width="6.17" stroke-linejoin="bevel" points="3137.89,797.769 3137.89,943.162"/>
<polyline class="Stem" stroke="#000000" stroke-width="6.17" stroke-linejoin="bevel" points="3290.42,845.249 3290.42,966.902"/>
<polyline class="Stem" stroke="#000000" stroke-width="6.17" stroke-linejoin="bevel" points="3385.76,797.769 3385.76,943.162"/>
<polyline class="Stem" stroke="#000000" stroke-width="6.17" stroke-linejoin="bevel" points="3550.82,750.288 3550.82,895.682"/>
<polyline class="Stem" stroke="#000000" stroke-width="6.17" stroke-linejoin="bevel" points="3660.72,750.288 3660.72,895.682"/>
<polyline class="Stem" stroke="#000000" stroke-width="6.17" stroke-linejoin="bevel" points="3770.61,774.029 3770.61,907.552"/>
<polyline class="Stem" stroke="#000000" stroke-width="6.17" stroke-linejoin="bevel" points="3880.51,797.769 3880.51,919.422"/>
<polyline class="Stem" stroke="#000000" stroke-width="6.17" stroke-linejoin="bevel" points="629.743,1512.65 629.743,1705.52"/>
<polyline class="Stem" stroke="#000000" stroke-width="6.17" stroke-linejoin="bevel" points="729.471,1560.13 729.471,1725.3"/>
<polyline class="Stem" stroke="#000000" stroke-width="6.17" stroke-linejoin="bevel" points="829.2,1607.61 829.2,1745.09"/>
<polyline class="Stem" stroke="#000000" stroke-width="6.17" stroke-linejoin="bevel" points="928.928,1607.61 928.928,1764.87"/>
<polyline class="Stem" stroke="#000000" stroke-width="6.17" stroke-linejoin="bevel" points="1028.66,1560.13 1028.66,1705.52"/>
<polyline class="Stem" stroke="#000000" stroke-width="6.17" stroke-linejoin="bevel" points="1128.39,1560.13 1128.39,1705.52"/>
<polyline class="Stem" stroke="#000000" stroke-width="6.17" stroke-linejoin="bevel" points="1228.11,1560.13 1228.11,1705.52"/>
<polyline class="Stem" stroke="#000000" stroke-width="6.17" stroke-linejoin="bevel" points="1327.84,1560.13 1327.84,1705.52"/>
<polyline class="Stem" stroke="#000000" stroke-width="6.17" stroke-linejoin="bevel" points="1492.91,1512.65 1492.91,1658.04"/>
<polyline class="Stem" stroke="#000000" stroke-width="6.17" stroke-linejoin="bevel" points="1582.42,1512.65 1582.42,1658.04"/>
<polyline class="Stem" stroke="#000000" stroke-width="6.17" stroke-linejoin="bevel" points="1671.93,1512.65 1671.93,1658.04"/>
<polyline class="Stem" stroke="#000000" stroke-width="6.17" stroke-linejoin="bevel" points="1761.43,1512.65 1761.43,1658.04"/>
<polyline class="Stem" stroke="#000000" stroke-width="6.17" stroke-linejoin="bevel" points="1850.94,1536.39 1850.94,1669.91"/>
<polyline class="Stem" stroke="#000000" stroke-width="6.17" stroke-linejoin="bevel" points="1994.15,1560.13 1994.15,1681.78"/>
<polyline class="Stem" stroke="#000000" stroke-width="6.17" stroke-linejoin="bevel" points="2192.44,1560.13 2192.44,1705.52"/>
<polyline class="Stem" stroke="#000000" stroke-width="6.17" stroke-linejoin="bevel" points="2369.77,1607.61 2369.77,1729.26"/>
<polyline class="Stem" stroke="#000000" stroke-width="6.17" stroke-linejoin="bevel" points="2480.61,1560.13 2480.61,1705.52"/>
<polyline class="Stem" stroke="#000000" stroke-width="6.17" stroke-linejoin="bevel" points="2646.52,1512.65 2646.52,1658.04"/>
<polyline class="Stem" stroke="#000000" stroke-width="6.17" stroke-linejoin="bevel" points="2766.72,1512.65 2766.72,1658.04"/>
<polyline class="Stem" stroke="#000000" stroke-width="6.17" stroke-linejoin="bevel" points="2886.92,1536.39 2886.92,1669.91"/>
<polyline class="Stem" stroke="#000000" stroke-width="6.17" stroke-linejoin="bevel" points="3007.13,1560.13 3007.13,1681.78"/>
<polyline class="Stem" stroke="#000000" stroke-width="6.17" stroke-linejoin="bevel" points="3182.41,1512.65 3182.41,1705.52"/>
<polyline class="Stem" stroke="#000000" stroke-width="6.17" stroke-linejoin="bevel" points="3282.14,1560.13 3282.14,1725.3"/>
<polyline class="Stem" stroke="#000000" stroke-width="6.17" stroke-linejoin="bevel" points="3381.87,1607.61 3381.87,1745.09"/>
<polyline class="Stem" stroke="#000000" stroke-width="6.17" stroke-linejoin="bevel" points="3481.59,1607.61 3481.59,1764.87"/>
<polyline class="Stem" stroke="#000000" stroke-width="6.17" stroke-linejoin="bevel" points="3581.32,1560.13 3581.32,1705.52"/>
<polyline class="Stem" stroke="#000000" stroke-width="6.17" stroke-linejoin="bevel" points="3681.05,1560.13 3681.05,1705.52"/>
<polyline class="Stem" stroke="#000000" stroke-width="6.17" stroke-linejoin="bevel" points="3780.78,1560.13 3780.78,1705.52"/>
<polyline class="Stem" stroke="#000000" stroke-width="6.17" stroke-linejoin="bevel" points="3880.51,1560.13 3880.51,1705.52"/>
<polyline class="Stem" stroke="#000000" stroke-width="6.17" stroke-linejoin="bevel" points="629.743,2275 629.743,2420.4"/>
<polyline class="Stem" stroke="#000000" stroke-width="6.17" stroke-linejoin="bevel" points="811.399,2275 811.399,2420.4"/>
<polyline class="Stem" stroke="#000000" stroke-width="6.17" stroke-linejoin="bevel" points="993.056,2275 993.056,2420.4"/>
<polyline class="Stem" stroke="#000000" stroke-width="6.17" stroke-linejoin="bevel" points="1174.71,2275 1174.71,2420.4"/>
<polyline class="Stem" stroke="#000000" stroke-width="6.17" stroke-linejoin="bevel" points="1356.37,2298.74 1356.37,2432.27"/>
<polyline class="Stem" stroke="#000000" stroke-width="6.17" stroke-linejoin="bevel" points="1647.02,2322.48 1647.02,2444.14"/>
<polyline class="Stem" stroke="#000000" stroke-width="6.17" stroke-linejoin="bevel" points="1994.46,2321.01 1994.46,2467.88"/>
<polyline class="Stem" stroke="#000000" stroke-width="6.17" stroke-linejoin="bevel" points="3020.88,2321.01 3020.88,2467.88"/>
<path class="Note" transform="matrix(1.89921,0,0,1.89921,726.632,646.41)" d="M21.9727,-13.7695 C25.0977,-13.7695 27.7018,-12.9883 29.7852,-11.4258 C31.8685,-9.86328 32.9102,-7.61719 32.9102,-4.6875 C32.9102,-0.195313 30.5827,4.00391 25.9277,7.91016 C21.2728,11.8164 16.276,13.7695 10.9375,13.7695 C7.8125,13.7695 5.17578,12.9557 3.02734,11.3281 C1.00911,9.57031 0,7.35677 0,4.6875 C0,0.325521 2.3112,-3.84115 6.93359,-7.8125 C11.556,-11.7839 16.569,-13.7695 21.9727,-13.7695"/>
<path class="Note" transform="matrix(1.89921,0,0,1.89921,851.207,693.891)" d="M21.9727,-13.7695 C25.0977,-13.7695 27.7018,-12.9883 29.7852,-11.4258 C31.8685,-9.86328 32.9102,-7.61719 32.9102,-4.6875 C32.9102,-0.195313 30.5827,4.00391 25.9277,7.91016 C21.2728,11.8164 16.276,13.7695 10.9375,13.7695 C7.8125,13.7695 5.17578,12.9557 3.02734,11.3281 C1.00911,9.57031 0,7.35677 0,4.6875 C0,0.325521 2.3112,-3.84115 6.93359,-7.8125 C11.556,-11.7839 16.569,-13.7695 21.9727,-13.7695"/>
<path class="Note" transform="matrix(1.89921,0,0,1.89921,1105.37,670.15)" d="M21.9727,-13.7695 C25.0977,-13.7695 27.7018,-12.9883 29.7852,-11.4258 C31.8685,-9.86328 32.9102,-7.61719 32.9102,-4.6875 C32.9102,-0.195313 30.5827,4.00391 25.9277,7.91016 C21.2728,11.8164 16.276,13.7695 10.9375,13.7695 C7.8125,13.7695 5.17578,12.9557 3.02734,11.3281 C1.00911,9.57031 0,7.35677 0,4.6875 C0,0.325521 2.3112,-3.84115 6.93359,-7.8125 C11.556,-11.7839 16.569,-13.7695 21.9727,-13.7695"/>
<path class="Note" transform="matrix(1.89921,0,0,1.89921,1215.26,717.631)" d="M21.9727,-13.7695 C25.0977,-13.7695 27.7018,-12.9883 29.7852,-11.4258 C31.8685,-9.86328 32.9102,-7.61719 32.9102,-4.6875 C32.9102,-0.195313 30.5827,4.00391 25.9277,7.91016 C21.2728,11.8164 16.276,13.7695 10.9375,13.7695 C7.8125,13.7695 5.17578,12.9557 3.02734,11.3281 C1.00911,9.57031 0,7.35677 0,4.6875 C0,0.325521 2.3112,-3.84115 6.93359,-7.8125 C11.556,-11.7839 16.569,-13.7695 21.9727,-13.7695"/>
<path class="Note" transform="matrix(1.89921,0,0,1.89921,1325.16,765.111)" d="M21.9727,-13.7695 C25.0977,-13.7695 27.7018,-12.9883 29.7852,-11.4258 C31.8685,-9.86328 32.9102,-7.61719 32.9102,-4.6875 C32.9102,-0.195313 30.5827,4.00391 25.9277,7.91016 C21.2728,11.8164 16.276,13.7695 10.9375,13.7695 C7.8125,13.7695 5.17578,12.9557 3.02734,11.3281 C1.00911,9.57031 0,7.35677 0,4.6875 C0,0.325521 2.3112,-3.84115 6.93359,-7.8125 C11.556,-11.7839 16.569,-13.7695 21.9727,-13.7695"/>
<path class="Note" transform="matrix(1.89921,0,0,1.89921,1435.05,788.851)" d="M21.9727,-13.7695 C25.0977,-13.7695 27.7018,-12.9883 29.7852,-11.4258 C31.8685,-9.86328 32.9102,-7.61719 32.9102,-4.6875 C32.9102,-0.195313 30.5827,4.00391 25.9277,7.91016 C21.2728,11.8164 16.276,13.7695 10.9375,13.7695 C7.8125,13.7695 5.17578,12.9557 3.02734,11.3281 C1.00911,9.57031 0,7.35677 0,4.6875 C0,0.325521 2.3112,-3.84115 6.93359,-7.8125 C11.556,-11.7839 16.569,-13.7695 21.9727,-13.7695"/>
<path class="Note" transform="matrix(1.89921,0,0,1.89921,1600.12,741.371)" d="M21.9727,-13.7695 C25.0977,-13.7695 27.7018,-12.9883 29.7852,-11.4258 C31.8685,-9.86328 32.9102,-7.61719 32.9102,-4.6875 C32.9102,-0.195313 30.5827,4.00391 25.9277,7.91016 C21.2728,11.8164 16.276,13.7695 10.9375,13.7695 C7.8125,13.7695 5.17578,12.9557 3.02734,11.3281 C1.00911,9.57031 0,7.35677 0,4.6875 C0,0.325521 2.3112,-3.84115 6.93359,-7.8125 C11.556,-11.7839 16.569,-13.7695 21.9727,-13.7695"/>
<path class="Note" transform="matrix(1.89921,0,0,1.89921,1715,788.851)" d="M21.9727,-13.7695 C25.0977,-13.7695 27.7018,-12.9883 29.7852,-11.4258 C31.8685,-9.86328 32.9102,-7.61719 32.9102,-4.6875 C32.9102,-0.195313 30.5827,4.00391 25.9277,7.91016 C21.2728,11.8164 16.276,13.7695 10.9375,13.7695 C7.8125,13.7695 5.17578,12.9557 3.02734,11.3281 C1.00911,9.57031 0,7.35677 0,4.6875 C0,0.325521 2.3112,-3.84115 6.93359,-7.8125 C11.556,-11.7839 16.569,-13.7695 21.9727,-13.7695"/>
<path class="Note" transform="matrix(1.89921,0,0,1.89921,1829.88,646.41)" d="M21.9727,-13.7695 C25.0977,-13.7695 27.7018,-12.9883 29.7852,-11.4258 C31.8685,-9.86328 32.9102,-7.61719 32.9102,-4.6875 C32.9102,-0.195313 30.5827,4.00391 25.9277,7.91016 C21.2728,11.8164 16.276,13.7695 10.9375,13.7695 C7.8125,13.7695 5.17578,12.9557 3.02734,11.3281 C1.00911,9.57031 0,7.35677 0,4.6875 C0,0.325521 2.3112,-3.84115 6.93359,-7.8125 C11.556,-11.7839 16.569,-13.7695 21.9727,-13.7695"/>
<path class="Note" transform="matrix(1.89921,0,0,1.89921,1944.76,693.891)" d="M21.9727,-13.7695 C25.0977,-13.7695 27.7018,-12.9883 29.7852,-11.4258 C31.8685,-9.86328 32.9102,-7.61719 32.9102,-4.6875 C32.9102,-0.195313 30.5827,4.00391 25.9277,7.91016 C21.2728,11.8164 16.276,13.7695 10.9375,13.7695 C7.8125,13.7695 5.17578,12.9557 3.02734,11.3281 C1.00911,9.57031 0,7.35677 0,4.6875 C0,0.325521 2.3112,-3.84115 6.93359,-7.8125 C11.556,-11.7839 16.569,-13.7695 21.9727,-13.7695"/>
<path class="Note" transform="matrix(1.89921,0,0,1.89921,2132.76,670.15)" d="M21.9727,-13.7695 C25.0977,-13.7695 27.7018,-12.9883 29.7852,-11.4258 C31.8685,-9.86328 32.9102,-7.61719 32.9102,-4.6875 C32.9102,-0.195313 30.5827,4.00391 25.9277,7.91016 C21.2728,11.8164 16.276,13.7695 10.9375,13.7695 C7.8125,13.7695 5.17578,12.9557 3.02734,11.3281 C1.00911,9.57031 0,7.35677 0,4.6875 C0,0.325521 2.3112,-3.84115 6.93359,-7.8125 C11.556,-11.7839 16.569,-13.7695 21.9727,-13.7695"/>
<path class="Note" transform="matrix(1.89921,0,0,1.89921,2242.66,717.631)" d="M21.9727,-13.7695 C25.0977,-13.7695 27.7018,-12.9883 29.7852,-11.4258 C31.8685,-9.86328 32.9102,-7.61719 32.9102,-4.6875 C32.9102,-0.195313 30.5827,4.00391 25.9277,7.91016 C21.2728,11.8164 16.276,13.7695 10.9375,13.7695 C7.8125,13.7695 5.17578,12.9557 3.02734,11.3281 C1.00911,9.57031 0,7.35677 0,4.6875 C0,0.325521 2.3112,-3.84115 6.93359,-7.8125 C11.556,-11.7839 16.569,-13.7695 21.9727,-13.7695"/>
<path class="Note" transform="matrix(1.89921,0,0,1.89921,2352.55,765.111)" d="M21.9727,-13.7695 C25.0977,-13.7695 27.7018,-12.9883 29.7852,-11.4258 C31.8685,-9.86328 32.9102,-7.61719 32.9102,-4.6875 C32.9102,-0.195313 30.5827,4.00391 25.9277,7.91016 C21.2728,11.8164 16.276,13.7695 10.9375,13.7695 C7.8125,13.7695 5.17578,12.9557 3.02734,11.3281 C1.00911,9.57031 0,7.35677 0,4.6875 C0,0.325521 2.3112,-3.84115 6.93359,-7.8125 C11.556,-11.7839 16.569,-13.7695 21.9727,-13.7695"/>
<path class="Note" transform="matrix(1.89921,0,0,1.89921,2462.45,788.851)" d="M21.9727,-13.7695 C25.0977,-13.7695 27.7018,-12.9883 29.7852,-11.4258 C31.8685,-9.86328 32.9102,-7.61719 32.9102,-4.6875 C32.9102,-0.195313 30.5827,4.00391 25.9277,7.91016 C21.2728,11.8164 16.276,13.7695 10.9375,13.7695 C7.8125,13.7695 5.17578,12.9557 3.02734,11.3281 C1.00911,9.57031 0,7.35677 0,4.6875 C0,0.325521 2.3112,-3.84115 6.93359,-7.8125 C11.556,-11.7839 16.569,-13.7695 21.9727,-13.7695"/>
<path class="Note" transform="matrix(1.89921,0,0,1.89921,2627.51,788.851)" d="M21.9727,-13.7695 C25.0977,-13.7695 27.7018,-12.9883 29.7852,-11.4258 C31.8685,-9.86328 32.9102,-7.61719 32.9102,-4.6875 C32.9102,-0.195313 30.5827,4.00391 25.9277,7.91016 C21.2728,11.8164 16.276,13.7695 10.9375,13.7695 C7.8125,13.7695 5.17578,12.9557 3.02734,11.3281 C1.00911,9.57031 0,7.35677 0,4.6875 C0,0.325521 2.3112,-3.84115 6.93359,-7.8125 C11.556,-11.7839 16.569,-13.7695 21.9727,-13.7695"/>
<path class="Note" transform="matrix(1.89921,0,0,1.89921,2792.26,646.41)" d="M21.9727,-13.7695 C25.0977,-13.7695 27.7018,-12.9883 29.7852,-11.4258 C31.8685,-9.86328 32.9102,-7.61719 32.9102,-4.6875 C32.9102,-0.195313 30.5827,4.00391 25.9277,7.91016 C21.2728,11.8164 16.276,13.7695 10.9375,13.7695 C7.8125,13.7695 5.17578,12.9557 3.02734,11.3281 C1.00911,9.57031 0,7.35677 0,4.6875 C0,0.325521 2.3112,-3.84115 6.93359,-7.8125 C11.556,-11.7839 16.569,-13.7695 21.9727,-13.7695"/>
<path class="Note" transform="matrix(1.89921,0,0,1.89921,2895.23,693.891)" d="M21.9727,-13.7695 C25.0977,-13.7695 27.7018,-12.9883 29.7852,-11.4258 C31.8685,-9.86328 32.9102,-7.61719 32.9102,-4.6875 C32.9102,-0.195313 30.5827,4.00391 25.9277,7.91016 C21.2728,11.8164 16.276,13.7695 10.9375,13.7695 C7.8125,13.7695 5.17578,12.9557 3.02734,11.3281 C1.00911,9.57031 0,7.35677 0,4.6875 C0,0.325521 2.3112,-3.84115 6.93359,-7.8125 C11.556,-11.7839 16.569,-13.7695 21.9727,-13.7695"/>
<path class="Note" transform="matrix(1.89921,0,0,1.89921,3134.81,788.851)" d="M21.9727,-13.7695 C25.0977,-13.7695 27.7018,-12.9883 29.7852,-11.4258 C31.8685,-9.86328 32.9102,-7.61719 32.9102,-4.6875 C32.9102,-0.195313 30.5827,4.00391 25.9277,7.91016 C21.2728,11.8164 16.276,13.7695 10.9375,13.7695 C7.8125,13.7695 5.17578,12.9557 3.02734,11.3281 C1.00911,9.57031 0,7.35677 0,4.6875 C0,0.325521 2.3112,-3.84115 6.93359,-7.8125 C11.556,-11.7839 16.569,-13.7695 21.9727,-13.7695"/>
<path class="Note" transform="matrix(1.89921,0,0,1.89921,3287.34,836.332)" d="M21.9727,-13.7695 C25.0977,-13.7695 27.7018,-12.9883 29.7852,-11.4258 C31.8685,-9.86328 32.9102,-7.61719 32.9102,-4.6875 C32.9102,-0.195313 30.5827,4.00391 25.9277,7.91016 C21.2728,11.8164 16.276,13.7695 10.9375,13.7695 C7.8125,13.7695 5.17578,12.9557 3.02734,11.3281 C1.00911,9.57031 0,7.35677 0,4.6875 C0,0.325521 2.3112,-3.84115 6.93359,-7.8125 C11.556,-11.7839 16.569,-13.7695 21.9727,-13.7695"/>
<path class="Note" transform="matrix(1.89921,0,0,1.89921,3382.67,788.851)" d="M21.9727,-13.7695 C25.0977,-13.7695 27.7018,-12.9883 29.7852,-11.4258 C31.8685,-9.86328 32.9102,-7.61719 32.9102,-4.6875 C32.9102,-0.195313 30.5827,4.00391 25.9277,7.91016 C21.2728,11.8164 16.276,13.7695 10.9375,13.7695 C7.8125,13.7695 5.17578,12.9557 3.02734,11.3281 C1.00911,9.57031 0,7.35677 0,4.6875 C0,0.325521 2.3112,-3.84115 6.93359,-7.8125 C11.556,-11.7839 16.569,-13.7695 21.9727,-13.7695"/>
<path class="Note" transform="matrix(1.89921,0,0,1.89921,3547.74,741.371)" d="M21.9727,-13.7695 C25.0977,-13.7695 27.7018,-12.9883 29.7852,-11.4258 C31.8685,-9.86328 32.9102,-7.61719 32.9102,-4.6875 C32.9102,-0.195313 30.5827,4.00391 25.9277,7.91016 C21.2728,11.8164 16.276,13.7695 10.9375,13.7695 C7.8125,13.7695 5.17578,12.9557 3.02734,11.3281 C1.00911,9.57031 0,7.35677 0,4.6875 C0,0.325521 2.3112,-3.84115 6.93359,-7.8125 C11.556,-11.7839 16.569,-13.7695 21.9727,-13.7695"/>
<path class="Note" transform="matrix(1.89921,0,0,1.89921,3657.63,741.371)" d="M21.9727,-13.7695 C25.0977,-13.7695 27.7018,-12.9883 29.7852,-11.4258 C31.8685,-9.86328 32.9102,-7.61719 32.9102,-4.6875 C32.9102,-0.195313 30.5827,4.00391 25.9277,7.91016 C21.2728,11.8164 16.276,13.7695 10.9375,13.7695 C7.8125,13.7695 5.17578,12.9557 3.02734,11.3281 C1.00911,9.57031 0,7.35677 0,4.6875 C0,0.325521 2.3112,-3.84115 6.93359,-7.8125 C11.556,-11.7839 16.569,-13.7695 21.9727,-13.7695"/>
<path class="Note" transform="matrix(1.89921,0,0,1.89921,3767.53,765.111)" d="M21.9727,-13.7695 C25.0977,-13.7695 27.7018,-12.9883 29.7852,-11.4258 C31.8685,-9.86328 32.9102,-7.61719 32.9102,-4.6875 C32.9102,-0.195313 30.5827,4.00391 25.9277,7.91016 C21.2728,11.8164 16.276,13.7695 10.9375,13.7695 C7.8125,13.7695 5.17578,12.9557 3.02734,11.3281 C1.00911,9.57031 0,7.35677 0,4.6875 C0,0.325521 2.3112,-3.84115 6.93359,-7.8125 C11.556,-11.7839 16.569,-13.7695 21.9727,-13.7695"/>
<path class="Note" transform="matrix(1.89921,0,0,1.89921,3877.42,788.851)" d="M21.9727,-13.7695 C25.0977,-13.7695 27.7018,-12.9883 29.7852,-11.4258 C31.8685,-9.86328 32.9102,-7.61719 32.9102,-4.6875 C32.9102,-0.195313 30.5827,4.00391 25.9277,7.91016 C21.2728,11.8164 16.276,13.7695 10.9375,13.7695 C7.8125,13.7695 5.17578,12.9557 3.02734,11.3281 C1.00911,9.57031 0,7.35677 0,4.6875 C0,0.325521 2.3112,-3.84115 6.93359,-7.8125 C11.556,-11.7839 16.569,-13.7695 21.9727,-13.7695"/>
<path class="Note" transform="matrix(1.89921,0,0,1.89921,626.656,1503.73)" d="M21.9727,-13.7695 C25.0977,-13.7695 27.7018,-12.9883 29.7852,-11.4258 C31.8685,-9.86328 32.9102,-7.61719 32.9102,-4.6875 C32.9102,-0.195313 30.5827,4.00391 25.9277,7.91016 C21.2728,11.8164 16.276,13.7695 10.9375,13.7695 C7.8125,13.7695 5.17578,12.9557 3.02734,11.3281 C1.00911,9.57031 0,7.35677 0,4.6875 C0,0.325521 2.3112,-3.84115 6.93359,-7.8125 C11.556,-11.7839 16.569,-13.7695 21.9727,-13.7695"/>
<path class="Note" transform="matrix(1.89921,0,0,1.89921,726.385,1551.21)" d="M21.9727,-13.7695 C25.0977,-13.7695 27.7018,-12.9883 29.7852,-11.4258 C31.8685,-9.86328 32.9102,-7.61719 32.9102,-4.6875 C32.9102,-0.195313 30.5827,4.00391 25.9277,7.91016 C21.2728,11.8164 16.276,13.7695 10.9375,13.7695 C7.8125,13.7695 5.17578,12.9557 3.02734,11.3281 C1.00911,9.57031 0,7.35677 0,4.6875 C0,0.325521 2.3112,-3.84115 6.93359,-7.8125 C11.556,-11.7839 16.569,-13.7695 21.9727,-13.7695"/>
<path class="Note" transform="matrix(1.89921,0,0,1.89921,826.114,1598.69)" d="M21.9727,-13.7695 C25.0977,-13.7695 27.7018,-12.9883 29.7852,-11.4258 C31.8685,-9.86328 32.9102,-7.61719 32.9102,-4.6875 C32.9102,-0.195313 30.5827,4.00391 25.9277,7.91016 C21.2728,11.8164 16.276,13.7695 10.9375,13.7695 C7.8125,13.7695 5.17578,12.9557 3.02734,11.3281 C1.00911,9.57031 0,7.35677 0,4.6875 C0,0.325521 2.3112,-3.84115 6.93359,-7.8125 C11.556,-11.7839 16.569,-13.7695 21.9727,-13.7695"/>
<path class="Note" transform="matrix(1.89921,0,0,1.89921,925.842,1598.69)" d="M21.9727,-13.7695 C25.0977,-13.7695 27.7018,-12.9883 29.7852,-11.4258 C31.8685,-9.86328 32.9102,-7.61719 32.9102,-4.6875 C32.9102,-0.195313 30.5827,4.00391 25.9277,7.91016 C21.2728,11.8164 16.276,13.7695 10.9375,13.7695 C7.8125,13.7695 5.17578,12.9557 3.02734,11.3281 C1.00911,9.57031 0,7.35677 0,4.6875 C0,0.325521 2.3112,-3.84115 6.93359,-7.8125 C11.556,-11.7839 16.569,-13.7695 21.9727,-13.7695"/>
<path class="Note" transform="matrix(1.89921,0,0,1.89921,1025.57,1551.21)" d="M21.9727,-13.7695 C25.0977,-13.7695 27.7018,-12.9883 29.7852,-11.4258 C31.8685,-9.86328 32.9102,-7.61719 32.9102,-4.6875 C32.9102,-0.195313 30.5827,4.00391 25.9277,7.91016 C21.2728,11.8164 16.276,13.7695 10.9375,13.7695 C7.8125,13.7695 5.17578,12.9557 3.02734,11.3281 C1.00911,9.57031 0,7.35677 0,4.6875 C0,0.325521 2.3112,-3.84115 6.93359,-7.8125 C11.556,-11.7839 16.569,-13.7695 21.9727,-13.7695"/>
<path class="Note" transform="matrix(1.89921,0,0,1.89921,1125.3,1551.21)" d="M21.9727,-13.7695 C25.0977,-13.7695 27.7018,-12.9883 29.7852,-11.4258 C31.8685,-9.86328 32.9102,-7.61719 32.9102,-4.6875 C32.9102,-0.195313 30.5827,4.00391 25.9277,7.91016 C21.2728,11.8164 16.276,13.7695 10.9375,13.7695 C7.8125,13.7695 5.17578,12.9557 3.02734,11.3281 C1.00911,9.57031 0,7.35677 0,4.6875 C0,0.325521 2.3112,-3.84115 6.93359,-7.8125 C11.556,-11.7839 16.569,-13.7695 21.9727,-13.7695"/>
<path class="Note" transform="matrix(1.89921,0,0,1.89921,1225.03,1551.21)" d="M21.9727,-13.7695 C25.0977,-13.7695 27.7018,-12.9883 29.7852,-11.4258 C31.8685,-9.86328 32.9102,-7.61719 32.9102,-4.6875 C32.9102,-0.195313 30.5827,4.00391 25.9277,7.91016 C21.2728,11.8164 16.276,13.7695 10.9375,13.7695 C7.8125,13.7695 5.17578,12.9557 3.02734,11.3281 C1.00911,9.57031 0,7.35677 0,4.6875 C0,0.325521 2.3112,-3.84115 6.93359,-7.8125 C11.556,-11.7839 16.569,-13.7695 21.9727,-13.7695"/>
<path class="Note" transform="matrix(1.89921,0,0,1.89921,1324.76,1551.21)" d="M21.9727,-13.7695 C25.0977,-13.7695 27.7018,-12.9883 29.7852,-11.4258 C31.8685,-9.86328 32.9102,-7.61719 32.9102,-4.6875 C32.9102,-0.195313 30.5827,4.00391 25.9277,7.91016 C21.2728,11.8164 16.276,13.7695 10.9375,13.7695 C7.8125,13.7695 5.17578,12.9557 3.02734,11.3281 C1.00911,9.57031 0,7.35677 0,4.6875 C0,0.325521 2.3112,-3.84115 6.93359,-7.8125 C11.556,-11.7839 16.569,-13.7695 21.9727,-13.7695"/>
<path class="Note" transform="matrix(1.89921,0,0,1.89921,1489.82,1503.73)" d="M21.9727,-13.7695 C25.0977,-13.7695 27.7018,-12.9883 29.7852,-11.4258 C31.8685,-9.86328 32.9102,-7.61719 32.9102,-4.6875 C32.9102,-0.195313 30.5827,4.00391 25.9277,7.91016 C21.2728,11.8164 16.276,13.7695 10.9375,13.7695 C7.8125,13.7695 5.17578,12.9557 3.02734,11.3281 C1.00911,9.57031 0,7.35677 0,4.6875 C0,0.325521 2.3112,-3.84115 6.93359,-7.8125 C11.556,-11.7839 16.569,-13.7695 21.9727,-13.7695"/>
<path class="Note" transform="matrix(1.89921,0,0,1.89921,1579.33,1503.73)" d="M21.9727,-13.7695 C25.0977,-13.7695 27.7018,-12.9883 29.7852,-11.4258 C31.8685,-9.86328 32.9102,-7.61719 32.9102,-4.6875 C32.9102,-0.195313 30.5827,4.00391 25.9277,7.91016 C21.2728,11.8164 16.276,13.7695 10.9375,13.7695 C7.8125,13.7695 5.17578,12.9557 3.02734,11.3281 C1.00911,9.57031 0,7.35677 0,4.6875 C0,0.325521 2.3112,-3.84115 6.93359,-7.8125 C11.556,-11.7839 16.569,-13.7695 21.9727,-13.7695"/>
<path class="Note" transform="matrix(1.89921,0,0,1.89921,1668.84,1503.73)" d="M21.9727,-13.7695 C25.0977,-13.7695 27.7018,-12.9883 29.7852,-11.4258 C31.8685,-9.86328 32.9102,-7.61719 32.9102,-4.6875 C32.9102,-0.195313 30.5827,4.00391 25.9277,7.91016 C21.2728,11.8164 16.276,13.7695 10.9375,13.7695 C7.8125,13.7695 5.17578,12.9557 3.02734,11.3281 C1.00911,9.57031 0,7.35677 0,4.6875 C0,0.325521 2.3112,-3.84115 6.93359,-7.8125 C11.556,-11.7839 16.569,-13.7695 21.9727,-13.7695"/>
<path class="Note" transform="matrix(1.89921,0,0,1.89921,1758.35,1503.73)" d="M21.9727,-13.7695 C25.0977,-13.7695 27.7018,-12.9883 29.7852,-11.4258 C31.8685,-9.86328 32.9102,-7.61719 32.9102,-4.6875 C32.9102,-0.195313 30.5827,4.00391 25.9277,7.91016 C21.2728,11.8164 16.276,13.7695 10.9375,13.7695 C7.8125,13.7695 5.17578,12.9557 3.02734,11.3281 C1.00911,9.57031 0,7.35677 0,4.6875 C0,0.325521 2.3112,-3.84115 6.93359,-7.8125 C11.556,-11.7839 16.569,-13.7695 21.9727,-13.7695"/>
<path class="Note" transform="matrix(1.89921,0,0,1.89921,1847.85,1527.47)" d="M21.9727,-13.7695 C25.0977,-13.7695 27.7018,-12.9883 29.7852,-11.4258 C31.8685,-9.86328 32.9102,-7.61719 32.9102,-4.6875 C32.9102,-0.195313 30.5827,4.00391 25.9277,7.91016 C21.2728,11.8164 16.276,13.7695 10.9375,13.7695 C7.8125,13.7695 5.17578,12.9557 3.02734,11.3281 C1.00911,9.57031 0,7.35677 0,4.6875 C0,0.325521 2.3112,-3.84115 6.93359,-7.8125 C11.556,-11.7839 16.569,-13.7695 21.9727,-13.7695"/>
<path class="Note" transform="matrix(1.89921,0,0,1.89921,1991.07,1551.21)" d="M21.9727,-13.7695 C25.0977,-13.7695 27.7018,-12.9883 29.7852,-11.4258 C31.8685,-9.86328 32.9102,-7.61719 32.9102,-4.6875 C32.9102,-0.195313 30.5827,4.00391 25.9277,7.91016 C21.2728,11.8164 16.276,13.7695 10.9375,13.7695 C7.8125,13.7695 5.17578,12.9557 3.02734,11.3281 C1.00911,9.57031 0,7.35677 0,4.6875 C0,0.325521 2.3112,-3.84115 6.93359,-7.8125 C11.556,-11.7839 16.569,-13.7695 21.9727,-13.7695"/>
<path class="Note" transform="matrix(1.89921,0,0,1.89921,2189.36,1551.21)" d="M21.9727,-13.7695 C25.0977,-13.7695 27.7018,-12.9883 29.7852,-11.4258 C31.8685,-9.86328 32.9102,-7.61719 32.9102,-4.6875 C32.9102,-0.195313 30.5827,4.00391 25.9277,7.91016 C21.2728,11.8164 16.276,13.7695 10.9375,13.7695 C7.8125,13.7695 5.17578,12.9557 3.02734,11.3281 C1.00911,9.57031 0,7.35677 0,4.6875 C0,0.325521 2.3112,-3.84115 6.93359,-7.8125 C11.556,-11.7839 16.569,-13.7695 21.9727,-13.7695"/>
<path class="Note" transform="matrix(1.89921,0,0,1.89921,2366.69,1598.69)" d="M21.9727,-13.7695 C25.0977,-13.7695 27.7018,-12.9883 29.7852,-11.4258 C31.8685,-9.86328 32.9102,-7.61719 32.9102,-4.6875 C32.9102,-0.195313 30.5827,4.00391 25.9277,7.91016 C21.2728,11.8164 16.276,13.7695 10.9375,13.7695 C7.8125,13.7695 5.17578,12.9557 3.02734,11.3281 C1.00911,9.57031 0,7.35677 0,4.6875 C0,0.325521 2.3112,-3.84115 6.93359,-7.8125 C11.556,-11.7839 16.569,-13.7695 21.9727,-13.7695"/>
<path class="Note" transform="matrix(1.89921,0,0,1.89921,2477.52,1551.21)" d="M21.9727,-13.7695 C25.0977,-13.7695 27.7018,-12.9883 29.7852,-11.4258 C31.8685,-9.86328 32.9102,-7.61719 32.9102,-4.6875 C32.9102,-0.195313 30.5827,4.00391 25.9277,7.91016 C21.2728,11.8164 16.276,13.7695 10.9375,13.7695 C7.8125,13.7695 5.17578,12.9557 3.02734,11.3281 C1.00911,9.57031 0,7.35677 0,4.6875 C0,0.325521 2.3112,-3.84115 6.93359,-7.8125 C11.556,-11.7839 16.569,-13.7695 21.9727,-13.7695"/>
<path class="Note" transform="matrix(1.89921,0,0,1.89921,2643.43,1503.73)" d="M21.9727,-13.7695 C25.0977,-13.7695 27.7018,-12.9883 29.7852,-11.4258 C31.8685,-9.86328 32.9102,-7.61719 32.9102,-4.6875 C32.9102,-0.195313 30.5827,4.00391 25.9277,7.91016 C21.2728,11.8164 16.276,13.7695 10.9375,13.7695 C7.8125,13.7695 5.17578,12.9557 3.02734,11.3281 C1.00911,9.57031 0,7.35677 0,4.6875 C0,0.325521 2.3112,-3.84115 6.93359,-7.8125 C11.556,-11.7839 16.569,-13.7695 21.9727,-13.7695"/>
<path class="Note" transform="matrix(1.89921,0,0,1.89921,2763.63,1503.73)" d="M21.9727,-13.7695 C25.0977,-13.7695 27.7018,-12.9883 29.7852,-11.4258 C31.8685,-9.86328 32.9102,-7.61719 32.9102,-4.6875 C32.9102,-0.195313 30.5827,4.00391 25.9277,7.91016 C21.2728,11.8164 16.276,13.7695 10.9375,13.7695 C7.8125,13.7695 5.17578,12.9557 3.02734,11.3281 C1.00911,9.57031 0,7.35677 0,4.6875 C0,0.325521 2.3112,-3.84115 6.93359,-7.8125 C11.556,-11.7839 16.569,-13.7695 21.9727,-13.7695"/>
<path class="Note" transform="matrix(1.89921,0,0,1.89921,2883.84,1527.47)" d="M21.9727,-13.7695 C25.0977,-13.7695 27.7018,-12.9883 29.7852,-11.4258 C31.8685,-9.86328 32.9102,-7.61719 32.9102,-4.6875 C32.9102,-0.195313 30.5827,4.00391 25.9277,7.91016 C21.2728,11.8164 16.276,13.7695 10.9375,13.7695 C7.8125,13.7695 5.17578,12.9557 3.02734,11.3281 C1.00911,9.57031 0,7.35677 0,4.6875 C0,0.325521 2.3112,-3.84115 6.93359,-7.8125 C11.556,-11.7839 16.569,-13.7695 21.9727,-13.7695"/>
<path class="Note" transform="matrix(1.89921,0,0,1.89921,3004.04,1551.21)" d="M21.9727,-13.7695 C25.0977,-13.7695 27.7018,-12.9883 29.7852,-11.4258 C31.8685,-9.86328 32.9102,-7.61719 32.9102,-4.6875 C32.9102,-0.195313 30.5827,4.00391 25.9277,7.91016 C21.2728,11.8164 16.276,13.7695 10.9375,13.7695 C7.8125,13.7695 5.17578,12.9557 3.02734,11.3281 C1.00911,9.57031 0,7.35677 0,4.6875 C0,0.325521 2.3112,-3.84115 6.93359,-7.8125 C11.556,-11.7839 16.569,-13.7695 21.9727,-13.7695"/>
<path class="Note" transform="matrix(1.89921,0,0,1.89921,3179.32,1503.73)" d="M21.9727,-13.7695 C25.0977,-13.7695 27.7018,-12.9883 29.7852,-11.4258 C31.8685,-9.86328 32.9102,-7.61719 32.9102,-4.6875 C32.9102,-0.195313 30.5827,4.00391 25.9277,7.91016 C21.2728,11.8164 16.276,13.7695 10.9375,13.7695 C7.8125,13.7695 5.17578,12.9557 3.02734,11.3281 C1.00911,9.57031 0,7.35677 0,4.6875 C0,0.325521 2.3112,-3.84115 6.93359,-7.8125 C11.556,-11.7839 16.569,-13.7695 21.9727,-13.7695"/>
<path class="Note" transform="matrix(1.89921,0,0,1.89921,3279.05,1551.21)" d="M21.9727,-13.7695 C25.0977,-13.7695 27.7018,-12.9883 29.7852,-11.4258 C31.8685,-9.86328 32.9102,-7.61719 32.9102,-4.6875 C32.9102,-0.195313 30.5827,4.00391 25.9277,7.91016 C21.2728,11.8164 16.276,13.7695 10.9375,13.7695 C7.8125,13.7695 5.17578,12.9557 3.02734,11.3281 C1.00911,9.57031 0,7.35677 0,4.6875 C0,0.325521 2.3112,-3.84115 6.93359,-7.8125 C11.556,-11.7839 16.569,-13.7695 21.9727,-13.7695"/>
<path class="Note" transform="matrix(1.89921,0,0,1.89921,3378.78,1598.69)" d="M21.9727,-13.7695 C25.0977,-13.7695 27.7018,-12.9883 29.7852,-11.4258 C31.8685,-9.86328 32.9102,-7.61719 32.9102,-4.6875 C32.9102,-0.195313 30.5827,4.00391 25.9277,7.91016 C21.2728,11.8164 16.276,13.7695 10.9375,13.7695 C7.8125,13.7695 5.17578,12.9557 3.02734,11.3281 C1.00911,9.57031 0,7.35677 0,4.6875 C0,0.325521 2.3112,-3.84115 6.93359,-7.8125 C11.556,-11.7839 16.569,-13.7695 21.9727,-13.7695"/>
<path class="Note" transform="matrix(1.89921,0,0,1.89921,3478.51,1598.69)" d="M21.9727,-13.7695 C25.0977,-13.7695 27.7018,-12.9883 29.7852,-11.4258 C31.8685,-9.86328 32.9102,-7.61719 32.9102,-4.6875 C32.9102,-0.195313 30.5827,4.00391 25.9277,7.91016 C21.2728,11.8164 16.276,13.7695 10.9375,13.7695 C7.8125,13.7695 5.17578,12.9557 3.02734,11.3281 C1.00911,9.57031 0,7.35677 0,4.6875 C0,0.325521 2.3112,-3.84115 6.93359,-7.8125 C11.556,-11.7839 16.569,-13.7695 21.9727,-13.7695"/>
<path class="Note" transform="matrix(1.89921,0,0,1.89921,3578.24,1551.21)" d="M21.9727,-13.7695 C25.0977,-13.7695 27.7018,-12.9883 29.7852,-11.4258 C31.8685,-9.86328 32.9102,-7.61719 32.9102,-4.6875 C32.9102,-0.195313 30.5827,4.00391 25.9277,7.91016 C21.2728,11.8164 16.276,13.7695 10.9375,13.7695 C7.8125,13.7695 5.17578,12.9557 3.02734,11.3281 C1.00911,9.57031 0,7.35677 0,4.6875 C0,0.325521 2.3112,-3.84115 6.93359,-7.8125 C11.556,-11.7839 16.569,-13.7695 21.9727,-13.7695"/>
<path class="Note" transform="matrix(1.89921,0,0,1.89921,3677.97,1551.21)" d="M21.9727,-13.7695 C25.0977,-13.7695 27.7018,-12.9883 29.7852,-11.4258 C31.8685,-9.86328 32.9102,-7.61719 32.9102,-4.6875 C32.9102,-0.195313 30.5827,4.00391 25.9277,7.91016 C21.2728,11.8164 16.276,13.7695 10.9375,13.7695 C7.8125,13.7695 5.17578,12.9557 3.02734,11.3281 C1.00911,9.57031 0,7.35677 0,4.6875 C0,0.325521 2.3112,-3.84115 6.93359,-7.8125 C11.556,-11.7839 16.569,-13.7695 21.9727,-13.7695"/>
<path class="Note" transform="matrix(1.89921,0,0,1.89921,3777.69,1551.21)" d="M21.9727,-13.7695 C25.0977,-13.7695 27.7018,-12.9883 29.7852,-11.4258 C31.8685,-9.86328 32.9102,-7.61719 32.9102,-4.6875 C32.9102,-0.195313 30.5827,4.00391 25.9277,7.91016 C21.2728,11.8164 16.276,13.7695 10.9375,13.7695 C7.8125,13.7695 5.17578,12.9557 3.02734,11.3281 C1.00911,9.57031 0,7.35677 0,4.6875 C0,0.325521 2.3112,-3.84115 6.93359,-7.8125 C11.556,-11.7839 16.569,-13.7695 21.9727,-13.7695"/>
<path class="Note" transform="matrix(1.89921,0,0,1.89921,3877.42,1551.21)" d="M21.9727,-13.7695 C25.0977,-13.7695 27.7018,-12.9883 29.7852,-11.4258 C31.8685,-9.86328 32.9102,-7.61719 32.9102,-4.6875 C32.9102,-0.195313 30.5827,4.00391 25.9277,7.91016 C21.2728,11.8164 16.276,13.7695 10.9375,13.7695 C7.8125,13.7695 5.17578,12.9557 3.02734,11.3281 C1.00911,9.57031 0,7.35677 0,4.6875 C0,0.325521 2.3112,-3.84115 6.93359,-7.8125 C11.556,-11.7839 16.569,-13.7695 21.9727,-13.7695"/>
<path class="Note" transform="matrix(1.89921,0,0,1.89921,626.656,2266.09)" d="M21.9727,-13.7695 C25.0977,-13.7695 27.7018,-12.9883 29.7852,-11.4258 C31.8685,-9.86328 32.9102,-7.61719 32.9102,-4.6875 C32.9102,-0.195313 30.5827,4.00391 25.9277,7.91016 C21.2728,11.8164 16.276,13.7695 10.9375,13.7695 C7.8125,13.7695 5.17578,12.9557 3.02734,11.3281 C1.00911,9.57031 0,7.35677 0,4.6875 C0,0.325521 2.3112,-3.84115 6.93359,-7.8125 C11.556,-11.7839 16.569,-13.7695 21.9727,-13.7695"/>
<path class="Note" transform="matrix(1.89921,0,0,1.89921,808.313,2266.09)" d="M21.9727,-13.7695 C25.0977,-13.7695 27.7018,-12.9883 29.7852,-11.4258 C31.8685,-9.86328 32.9102,-7.61719 32.9102,-4.6875 C32.9102,-0.195313 30.5827,4.00391 25.9277,7.91016 C21.2728,11.8164 16.276,13.7695 10.9375,13.7695 C7.8125,13.7695 5.17578,12.9557 3.02734,11.3281 C1.00911,9.57031 0,7.35677 0,4.6875 C0,0.325521 2.3112,-3.84115 6.93359,-7.8125 C11.556,-11.7839 16.569,-13.7695 21.9727,-13.7695"/>
<path class="Note" transform="matrix(1.89921,0,0,1.89921,989.97,2266.09)" d="M21.9727,-13.7695 C25.0977,-13.7695 27.7018,-12.9883 29.7852,-11.4258 C31.8685,-9.86328 32.9102,-7.61719 32.9102,-4.6875 C32.9102,-0.195313 30.5827,4.00391 25.9277,7.91016 C21.2728,11.8164 16.276,13.7695 10.9375,13.7695 C7.8125,13.7695 5.17578,12.9557 3.02734,11.3281 C1.00911,9.57031 0,7.35677 0,4.6875 C0,0.325521 2.3112,-3.84115 6.93359,-7.8125 C11.556,-11.7839 16.569,-13.7695 21.9727,-13.7695"/>
<path class="Note" transform="matrix(1.89921,0,0,1.89921,1171.63,2266.09)" d="M21.9727,-13.7695 C25.0977,-13.7695 27.7018,-12.9883 29.7852,-11.4258 C31.8685,-9.86328 32.9102,-7.61719 32.9102,-4.6875 C32.9102,-0.195313 30.5827,4.00391 25.9277,7.91016 C21.2728,11.8164 16.276,13.7695 10.9375,13.7695 C7.8125,13.7695 5.17578,12.9557 3.02734,11.3281 C1.00911,9.57031 0,7.35677 0,4.6875 C0,0.325521 2.3112,-3.84115 6.93359,-7.8125 C11.556,-11.7839 16.569,-13.7695 21.9727,-13.7695"/>
<path class="Note" transform="matrix(1.89921,0,0,1.89921,1353.28,2289.83)" d="M21.9727,-13.7695 C25.0977,-13.7695 27.7018,-12.9883 29.7852,-11.4258 C31.8685,-9.86328 32.9102,-7.61719 32.9102,-4.6875 C32.9102,-0.195313 30.5827,4.00391 25.9277,7.91016 C21.2728,11.8164 16.276,13.7695 10.9375,13.7695 C7.8125,13.7695 5.17578,12.9557 3.02734,11.3281 C1.00911,9.57031 0,7.35677 0,4.6875 C0,0.325521 2.3112,-3.84115 6.93359,-7.8125 C11.556,-11.7839 16.569,-13.7695 21.9727,-13.7695"/>
<path class="Note" transform="matrix(1.89921,0,0,1.89921,1643.93,2313.57)" d="M21.9727,-13.7695 C25.0977,-13.7695 27.7018,-12.9883 29.7852,-11.4258 C31.8685,-9.86328 32.9102,-7.61719 32.9102,-4.6875 C32.9102,-0.195313 30.5827,4.00391 25.9277,7.91016 C21.2728,11.8164 16.276,13.7695 10.9375,13.7695 C7.8125,13.7695 5.17578,12.9557 3.02734,11.3281 C1.00911,9.57031 0,7.35677 0,4.6875 C0,0.325521 2.3112,-3.84115 6.93359,-7.8125 C11.556,-11.7839 16.569,-13.7695 21.9727,-13.7695"/>
<path class="Note" transform="matrix(1.89921,0,0,1.89921,1991.38,2313.57)" d="M7.42188,10.6445 C9.3099,10.6445 13.265,8.69141 19.2871,4.78516 C25.3092,0.878906 28.8574,-1.74154 29.9316,-3.07617 C31.0059,-4.41081 31.543,-5.59896 31.543,-6.64063 C31.543,-7.68229 31.1198,-8.61003 30.2734,-9.42383 C29.4271,-10.2376 28.4505,-10.6445 27.3438,-10.6445 C25.3906,-10.6445 21.403,-8.67513 15.3809,-4.73633 C9.35872,-0.797526 5.82682,1.82292 4.78516,3.125 C3.74349,4.42708 3.22266,5.59896 3.22266,6.64063 C3.22266,7.68229 3.62956,8.61003 4.44336,9.42383 C5.25716,10.2376 6.25,10.6445 7.42188,10.6445 M26.3672,-13.7695 C31.9661,-13.7695 34.7656,-11.3607 34.7656,-6.54297 C34.7656,-4.19922 34.082,-1.48112 32.7148,1.61133 C31.3477,4.70378 29.5247,7.0638 27.2461,8.69141 C22.2331,12.0768 15.9505,13.7695 8.39844,13.7695 C2.79948,13.7695 0,11.3607 0,6.54297 C0,4.39453 0.667318,1.72526 2.00195,-1.46484 C3.33659,-4.65495 5.17578,-7.0638 7.51953,-8.69141 C12.5326,-12.0768 18.8151,-13.7695 26.3672,-13.7695"/>
<path class="Note" transform="matrix(1.89921,0,0,1.89921,3017.79,2313.57)" d="M7.42188,10.6445 C9.3099,10.6445 13.265,8.69141 19.2871,4.78516 C25.3092,0.878906 28.8574,-1.74154 29.9316,-3.07617 C31.0059,-4.41081 31.543,-5.59896 31.543,-6.64063 C31.543,-7.68229 31.1198,-8.61003 30.2734,-9.42383 C29.4271,-10.2376 28.4505,-10.6445 27.3438,-10.6445 C25.3906,-10.6445 21.403,-8.67513 15.3809,-4.73633 C9.35872,-0.797526 5.82682,1.82292 4.78516,3.125 C3.74349,4.42708 3.22266,5.59896 3.22266,6.64063 C3.22266,7.68229 3.62956,8.61003 4.44336,9.42383 C5.25716,10.2376 6.25,10.6445 7.42188,10.6445 M26.3672,-13.7695 C31.9661,-13.7695 34.7656,-11.3607 34.7656,-6.54297 C34.7656,-4.19922 34.082,-1.48112 32.7148,1.61133 C31.3477,4.70378 29.5247,7.0638 27.2461,8.69141 C22.2331,12.0768 15.9505,13.7695 8.39844,13.7695 C2.79948,13.7695 0,11.3607 0,6.54297 C0,4.39453 0.667318,1.72526 2.00195,-1.46484 C3.33659,-4.65495 5.17578,-7.0638 7.51953,-8.69141 C12.5326,-12.0768 18.8151,-13.7695 26.3672,-13.7695"/>
<path class="Clef" transform="matrix(1.89921,0,0,1.89921,250.583,860.072)" d="M41.8945,32.1289 L41.8945,29.9805 C41.8294,28.8737 41.6667,27.1484 41.4063,24.8047 C38.151,25.3255 35.2539,25.5859 32.7148,25.5859 C23.6003,25.5859 15.8691,21.9889 9.52148,14.7949 C3.17383,7.60091 0,-0.976563 0,-10.9375 C0,-13.6068 0.520833,-16.8132 1.5625,-20.5566 C2.60417,-24.3001 3.56445,-26.8066 4.44336,-28.0762 C5.32227,-29.3457 6.64063,-31.5755 8.39844,-34.7656 C8.91927,-35.7422 10.612,-37.8906 13.4766,-41.2109 C13.9974,-41.9271 14.4531,-42.513 14.8438,-42.9688 C15.2344,-43.4245 15.8691,-44.2383 16.748,-45.4102 C17.627,-46.582 18.571,-47.6725 19.5801,-48.6816 C20.5892,-49.6908 21.4844,-50.6673 22.2656,-51.6113 C23.0469,-52.5553 23.763,-53.3529 24.4141,-54.0039 C22.0703,-61.7513 20.638,-67.7083 20.1172,-71.875 C19.5964,-76.0417 19.3359,-81.1523 19.3359,-87.207 C19.3359,-93.2617 20.638,-98.763 23.2422,-103.711 C25.7813,-108.854 29.3294,-113.053 33.8867,-116.309 C34.1471,-116.504 34.4889,-116.602 34.9121,-116.602 C35.3353,-116.602 35.6445,-116.504 35.8398,-116.309 C39.3555,-112.077 42.3991,-106.576 44.9707,-99.8047 C47.5423,-93.0339 48.8281,-86.7025 48.8281,-80.8105 C48.8281,-74.9186 47.3307,-69.2383 44.3359,-63.7695 C40.9505,-57.9753 36.5885,-51.9857 31.25,-45.8008 C32.6172,-41.5039 34.4401,-34.7656 36.7188,-25.5859 L37.3047,-25.5859 C37.5651,-25.651 37.793,-25.6836 37.9883,-25.6836 C45.3451,-25.6836 51.3509,-23.0957 56.0059,-17.9199 C60.6608,-12.7441 62.9883,-6.77083 62.9883,0 C62.9883,8.39844 59.5052,15.1693 52.5391,20.3125 C50.5208,21.8099 48.1445,22.9818 45.4102,23.8281 C45.7357,28.0599 45.8984,30.8757 45.8984,32.2754 C45.8984,33.6751 45.8333,36.1654 45.7031,39.7461 C45.638,45.8659 43.5547,51.1068 39.4531,55.4688 C35.3516,59.8307 30.6641,62.0117 25.3906,62.0117 C20.1172,62.0117 15.625,60.14 11.9141,56.3965 C8.20313,52.653 6.34766,48.112 6.34766,42.7734 C6.34766,39.974 7.42188,37.5977 9.57031,35.6445 C11.7839,33.6914 14.2741,32.7148 17.041,32.7148 C19.8079,32.7148 22.0703,33.724 23.8281,35.7422 C25.651,37.6302 26.5625,39.9089 26.5625,42.5781 C26.5625,45.2474 25.651,47.4935 23.8281,49.3164 C22.0052,51.1393 19.8242,52.0508 17.2852,52.0508 C16.2435,52.0508 15.2344,51.8555 14.2578,51.4648 C17.1224,55.6966 20.8008,57.8125 25.293,57.8125 C29.7852,57.8125 33.6263,55.957 36.8164,52.2461 C40.0065,48.5352 41.6016,44.1732 41.6016,39.1602 L41.8945,32.1289 M45.0195,19.8242 C48.4049,18.5872 51.0905,16.39 53.0762,13.2324 C55.0618,10.0749 56.0547,6.93359 56.0547,3.80859 C56.0547,-0.813802 54.4596,-4.94792 51.2695,-8.59375 C48.0794,-12.2396 44.043,-14.2904 39.1602,-14.7461 C41.9596,-1.00911 43.9128,10.5143 45.0195,19.8242 M7.22656,-2.73438 C7.22656,3.71094 9.79818,9.34245 14.9414,14.1602 C20.0846,18.9779 26.1068,21.3867 33.0078,21.3867 C35.7422,21.3867 38.4115,21.1914 41.0156,20.8008 C39.974,10.9049 37.9232,-0.94401 34.8633,-14.7461 C31.0221,-14.3555 28.0436,-13.0371 25.9277,-10.791 C23.8118,-8.54492 22.7539,-5.98958 22.7539,-3.125 C22.7539,1.82292 25.3906,5.82682 30.6641,8.88672 C31.1198,9.14714 31.3477,9.58659 31.3477,10.2051 C31.3477,10.8236 31.1361,11.3607 30.7129,11.8164 C30.2897,12.2721 29.9154,12.5 29.5898,12.5 C29.2643,12.5 28.8411,12.4349 28.3203,12.3047 C20.7031,8.13802 16.8945,1.85547 16.8945,-6.54297 C16.8945,-10.5143 18.2943,-14.3229 21.0938,-17.9688 C24.0234,-21.6146 27.832,-23.9583 32.5195,-25 C30.6966,-32.2917 29.1992,-37.9883 28.0273,-42.0898 C19.1081,-32.0638 13.5742,-24.6419 11.4258,-19.8242 C8.6263,-13.5742 7.22656,-7.8776 7.22656,-2.73438 M39.8438,-102.051 C34.9609,-99.6419 31.1035,-96.1589 28.2715,-91.6016 C25.4395,-87.0443 24.0234,-82.2591 24.0234,-77.2461 C24.0234,-72.2331 25.1953,-65.7552 27.5391,-57.8125 C32.2266,-63.4766 35.7747,-68.7826 38.1836,-73.7305 C40.5924,-78.6784 41.7969,-83.5775 41.7969,-88.4277 C41.7969,-93.278 41.1458,-97.819 39.8438,-102.051"/>
<path class="Clef" transform="matrix(1.89921,0,0,1.89921,250.583,1622.43)" d="M41.8945,32.1289 L41.8945,29.9805 C41.8294,28.8737 41.6667,27.1484 41.4063,24.8047 C38.151,25.3255 35.2539,25.5859 32.7148,25.5859 C23.6003,25.5859 15.8691,21.9889 9.52148,14.7949 C3.17383,7.60091 0,-0.976563 0,-10.9375 C0,-13.6068 0.520833,-16.8132 1.5625,-20.5566 C2.60417,-24.3001 3.56445,-26.8066 4.44336,-28.0762 C5.32227,-29.3457 6.64063,-31.5755 8.39844,-34.7656 C8.91927,-35.7422 10.612,-37.8906 13.4766,-41.2109 C13.9974,-41.9271 14.4531,-42.513 14.8438,-42.9688 C15.2344,-43.4245 15.8691,-44.2383 16.748,-45.4102 C17.627,-46.582 18.571,-47.6725 19.5801,-48.6816 C20.5892,-49.6908 21.4844,-50.6673 22.2656,-51.6113 C23.0469,-52.5553 23.763,-53.3529 24.4141,-54.0039 C22.0703,-61.7513 20.638,-67.7083 20.1172,-71.875 C19.5964,-76.0417 19.3359,-81.1523 19.3359,-87.207 C19.3359,-93.2617 20.638,-98.763 23.2422,-103.711 C25.7813,-108.854 29.3294,-113.053 33.8867,-116.309 C34.1471,-116.504 34.4889,-116.602 34.9121,-116.602 C35.3353,-116.602 35.6445,-116.504 35.8398,-116.309 C39.3555,-112.077 42.3991,-106.576 44.9707,-99.8047 C47.5423,-93.0339 48.8281,-86.7025 48.8281,-80.8105 C48.8281,-74.9186 47.3307,-69.2383 44.3359,-63.7695 C40.9505,-57.9753 36.5885,-51.9857 31.25,-45.8008 C32.6172,-41.5039 34.4401,-34.7656 36.7188,-25.5859 L37.3047,-25.5859 C37.5651,-25.651 37.793,-25.6836 37.9883,-25.6836 C45.3451,-25.6836 51.3509,-23.0957 56.0059,-17.9199 C60.6608,-12.7441 62.9883,-6.77083 62.9883,0 C62.9883,8.39844 59.5052,15.1693 52.5391,20.3125 C50.5208,21.8099 48.1445,22.9818 45.4102,23.8281 C45.7357,28.0599 45.8984,30.8757 45.8984,32.2754 C45.8984,33.6751 45.8333,36.1654 45.7031,39.7461 C45.638,45.8659 43.5547,51.1068 39.4531,55.4688 C35.3516,59.8307 30.6641,62.0117 25.3906,62.0117 C20.1172,62.0117 15.625,60.14 11.9141,56.3965 C8.20313,52.653 6.34766,48.112 6.34766,42.7734 C6.34766,39.974 7.42188,37.5977 9.57031,35.6445 C11.7839,33.6914 14.2741,32.7148 17.041,32.7148 C19.8079,32.7148 22.0703,33.724 23.8281,35.7422 C25.651,37.6302 26.5625,39.9089 26.5625,42.5781 C26.5625,45.2474 25.651,47.4935 23.8281,49.3164 C22.0052,51.1393 19.8242,52.0508 17.2852,52.0508 C16.2435,52.0508 15.2344,51.8555 14.2578,51.4648 C17.1224,55.6966 20.8008,57.8125 25.293,57.8125 C29.7852,57.8125 33.6263,55.957 36.8164,52.2461 C40.0065,48.5352 41.6016,44.1732 41.6016,39.1602 L41.8945,32.1289 M45.0195,19.8242 C48.4049,18.5872 51.0905,16.39 53.0762,13.2324 C55.0618,10.0749 56.0547,6.93359 56.0547,3.80859 C56.0547,-0.813802 54.4596,-4.94792 51.2695,-8.59375 C48.0794,-12.2396 44.043,-14.2904 39.1602,-14.7461 C41.9596,-1.00911 43.9128,10.5143 45.0195,19.8242 M7.22656,-2.73438 C7.22656,3.71094 9.79818,9.34245 14.9414,14.1602 C20.0846,18.9779 26.1068,21.3867 33.0078,21.3867 C35.7422,21.3867 38.4115,21.1914 41.0156,20.8008 C39.974,10.9049 37.9232,-0.94401 34.8633,-14.7461 C31.0221,-14.3555 28.0436,-13.0371 25.9277,-10.791 C23.8118,-8.54492 22.7539,-5.98958 22.7539,-3.125 C22.7539,1.82292 25.3906,5.82682 30.6641,8.88672 C31.1198,9.14714 31.3477,9.58659 31.3477,10.2051 C31.3477,10.8236 31.1361,11.3607 30.7129,11.8164 C30.2897,12.2721 29.9154,12.5 29.5898,12.5 C29.2643,12.5 28.8411,12.4349 28.3203,12.3047 C20.7031,8.13802 16.8945,1.85547 16.8945,-6.54297 C16.8945,-10.5143 18.2943,-14.3229 21.0938,-17.9688 C24.0234,-21.6146 27.832,-23.9583 32.5195,-25 C30.6966,-32.2917 29.1992,-37.9883 28.0273,-42.0898 C19.1081,-32.0638 13.5742,-24.6419 11.4258,-19.8242 C8.6263,-13.5742 7.22656,-7.8776 7.22656,-2.73438 M39.8438,-102.051 C34.9609,-99.6419 31.1035,-96.1589 28.2715,-91.6016 C25.4395,-87.0443 24.0234,-82.2591 24.0234,-77.2461 C24.0234,-72.2331 25.1953,-65.7552 27.5391,-57.8125 C32.2266,-63.4766 35.7747,-68.7826 38.1836,-73.7305 C40.5924,-78.6784 41.7969,-83.5775 41.7969,-88.4277 C41.7969,-93.278 41.1458,-97.819 39.8438,-102.051"/>
<path class="Clef" transform="matrix(1.89921,0,0,1.89921,250.583,2384.79)" d="M41.8945,32.1289 L41.8945,29.9805 C41.8294,28.8737 41.6667,27.1484 41.4063,24.8047 C38.151,25.3255 35.2539,25.5859 32.7148,25.5859 C23.6003,25.5859 15.8691,21.9889 9.52148,14.7949 C3.17383,7.60091 0,-0.976563 0,-10.9375 C0,-13.6068 0.520833,-16.8132 1.5625,-20.5566 C2.60417,-24.3001 3.56445,-26.8066 4.44336,-28.0762 C5.32227,-29.3457 6.64063,-31.5755 8.39844,-34.7656 C8.91927,-35.7422 10.612,-37.8906 13.4766,-41.2109 C13.9974,-41.9271 14.4531,-42.513 14.8438,-42.9688 C15.2344,-43.4245 15.8691,-44.2383 16.748,-45.4102 C17.627,-46.582 18.571,-47.6725 19.5801,-48.6816 C20.5892,-49.6908 21.4844,-50.6673 22.2656,-51.6113 C23.0469,-52.5553 23.763,-53.3529 24.4141,-54.0039 C22.0703,-61.7513 20.638,-67.7083 20.1172,-71.875 C19.5964,-76.0417 19.3359,-81.1523 19.3359,-87.207 C19.3359,-93.2617 20.638,-98.763 23.2422,-103.711 C25.7813,-108.854 29.3294,-113.053 33.8867,-116.309 C34.1471,-116.504 34.4889,-116.602 34.9121,-116.602 C35.3353,-116.602 35.6445,-116.504 35.8398,-116.309 C39.3555,-112.077 42.3991,-106.576 44.9707,-99.8047 C47.5423,-93.0339 48.8281,-86.7025 48.8281,-80.8105 C48.8281,-74.9186 47.3307,-69.2383 44.3359,-63.7695 C40.9505,-57.9753 36.5885,-51.9857 31.25,-45.8008 C32.6172,-41.5039 34.4401,-34.7656 36.7188,-25.5859 L37.3047,-25.5859 C37.5651,-25.651 37.793,-25.6836 37.9883,-25.6836 C45.3451,-25.6836 51.3509,-23.0957 56.0059,-17.9199 C60.6608,-12.7441 62.9883,-6.77083 62.9883,0 C62.9883,8.39844 59.5052,15.1693 52.5391,20.3125 C50.5208,21.8099 48.1445,22.9818 45.4102,23.8281 C45.7357,28.0599 45.8984,30.8757 45.8984,32.2754 C45.8984,33.6751 45.8333,36.1654 45.7031,39.7461 C45.638,45.8659 43.5547,51.1068 39.4531,55.4688 C35.3516,59.8307 30.6641,62.0117 25.3906,62.0117 C20.1172,62.0117 15.625,60.14 11.9141,56.3965 C8.20313,52.653 6.34766,48.112 6.34766,42.7734 C6.34766,39.974 7.42188,37.5977 9.57031,35.6445 C11.7839,33.6914 14.2741,32.7148 17.041,32.7148 C19.8079,32.7148 22.0703,33.724 23.8281,35.7422 C25.651,37.6302 26.5625,39.9089 26.5625,42.5781 C26.5625,45.2474 25.651,47.4935 23.8281,49.3164 C22.0052,51.1393 19.8242,52.0508 17.2852,52.0508 C16.2435,52.0508 15.2344,51.8555 14.2578,51.4648 C17.1224,55.6966 20.8008,57.8125 25.293,57.8125 C29.7852,57.8125 33.6263,55.957 36.8164,52.2461 C40.0065,48.5352 41.6016,44.1732 41.6016,39.1602 L41.8945,32.1289 M45.0195,19.8242 C48.4049,18.5872 51.0905,16.39 53.0762,13.2324 C55.0618,10.0749 56.0547,6.93359 56.0547,3.80859 C56.0547,-0.813802 54.4596,-4.94792 51.2695,-8.59375 C48.0794,-12.2396 44.043,-14.2904 39.1602,-14.7461 C41.9596,-1.00911 43.9128,10.5143 45.0195,19.8242 M7.22656,-2.73438 C7.22656,3.71094 9.79818,9.34245 14.9414,14.1602 C20.0846,18.9779 26.1068,21.3867 33.0078,21.3867 C35.7422,21.3867 38.4115,21.1914 41.0156,20.8008 C39.974,10.9049 37.9232,-0.94401 34.8633,-14.7461 C31.0221,-14.3555 28.0436,-13.0371 25.9277,-10.791 C23.8118,-8.54492 22.7539,-5.98958 22.7539,-3.125 C22.7539,1.82292 25.3906,5.82682 30.6641,8.88672 C31.1198,9.14714 31.3477,9.58659 31.3477,10.2051 C31.3477,10.8236 31.1361,11.3607 30.7129,11.8164 C30.2897,12.2721 29.9154,12.5 29.5898,12.5 C29.2643,12.5 28.8411,12.4349 28.3203,12.3047 C20.7031,8.13802 16.8945,1.85547 16.8945,-6.54297 C16.8945,-10.5143 18.2943,-14.3229 21.0938,-17.9688 C24.0234,-21.6146 27.832,-23.9583 32.5195,-25 C30.6966,-32.2917 29.1992,-37.9883 28.0273,-42.0898 C19.1081,-32.0638 13.5742,-24.6419 11.4258,-19.8242 C8.6263,-13.5742 7.22656,-7.8776 7.22656,-2.73438 M39.8438,-102.051 C34.9609,-99.6419 31.1035,-96.1589 28.2715,-91.6016 C25.4395,-87.0443 24.0234,-82.2591 24.0234,-77.2461 C24.0234,-72.2331 25.1953,-65.7552 27.5391,-57.8125 C32.2266,-63.4766 35.7747,-68.7826 38.1836,-73.7305 C40.5924,-78.6784 41.7969,-83.5775 41.7969,-88.4277 C41.7969,-93.278 41.1458,-97.819 39.8438,-102.051"/>
<path class="KeySig" transform="matrix(1.89921,0,0,1.89921,466.173,741.371)" d="M0.878906,17.5781 L-0.390625,-44.5313 C-0.390625,-45.5078 0.374349,-45.9961 1.9043,-45.9961 C3.43424,-45.9961 4.19922,-45.5078 4.19922,-44.5313 L3.41797,-10.6445 C5.17578,-12.4023 6.68945,-13.623 7.95898,-14.3066 C9.22852,-14.9902 10.9538,-15.332 13.1348,-15.332 C15.3158,-15.332 17.334,-14.3229 19.1895,-12.3047 C21.0449,-10.2865 21.9727,-7.77995 21.9727,-4.78516 C21.9727,-0.292969 17.2526,5.92448 7.8125,13.8672 C4.29688,17.0573 2.47396,18.6523 2.34375,18.6523 L1.75781,18.6523 C1.17188,18.6523 0.878906,18.2943 0.878906,17.5781 M3.32031,-7.51953 L3.02734,14.6484 C5.04557,12.7604 7.09635,9.61914 9.17969,5.22461 C11.263,0.830078 12.3047,-2.92969 12.3047,-6.05469 C12.3047,-7.61719 12.0443,-9.04948 11.5234,-10.3516 C11.0026,-11.6536 10.1888,-12.3047 9.08203,-12.3047 C7.97526,-12.3047 6.98242,-11.9141 6.10352,-11.1328 C5.22461,-10.3516 4.29688,-9.14714 3.32031,-7.51953"/>
<path class="KeySig" transform="matrix(1.89921,0,0,1.89921,418.693,812.591)" d="M0.878906,17.5781 L-0.390625,-44.5313 C-0.390625,-45.5078 0.374349,-45.9961 1.9043,-45.9961 C3.43424,-45.9961 4.19922,-45.5078 4.19922,-44.5313 L3.41797,-10.6445 C5.17578,-12.4023 6.68945,-13.623 7.95898,-14.3066 C9.22852,-14.9902 10.9538,-15.332 13.1348,-15.332 C15.3158,-15.332 17.334,-14.3229 19.1895,-12.3047 C21.0449,-10.2865 21.9727,-7.77995 21.9727,-4.78516 C21.9727,-0.292969 17.2526,5.92448 7.8125,13.8672 C4.29688,17.0573 2.47396,18.6523 2.34375,18.6523 L1.75781,18.6523 C1.17188,18.6523 0.878906,18.2943 0.878906,17.5781 M3.32031,-7.51953 L3.02734,14.6484 C5.04557,12.7604 7.09635,9.61914 9.17969,5.22461 C11.263,0.830078 12.3047,-2.92969 12.3047,-6.05469 C12.3047,-7.61719 12.0443,-9.04948 11.5234,-10.3516 C11.0026,-11.6536 10.1888,-12.3047 9.08203,-12.3047 C7.97526,-12.3047 6.98242,-11.9141 6.10352,-11.1328 C5.22461,-10.3516 4.29688,-9.14714 3.32031,-7.51953"/>
<path class="KeySig" transform="matrix(1.89921,0,0,1.89921,466.173,1503.73)" d="M0.878906,17.5781 L-0.390625,-44.5313 C-0.390625,-45.5078 0.374349,-45.9961 1.9043,-45.9961 C3.43424,-45.9961 4.19922,-45.5078 4.19922,-44.5313 L3.41797,-10.6445 C5.17578,-12.4023 6.68945,-13.623 7.95898,-14.3066 C9.22852,-14.9902 10.9538,-15.332 13.1348,-15.332 C15.3158,-15.332 17.334,-14.3229 19.1895,-12.3047 C21.0449,-10.2865 21.9727,-7.77995 21.9727,-4.78516 C21.9727,-0.292969 17.2526,5.92448 7.8125,13.8672 C4.29688,17.0573 2.47396,18.6523 2.34375,18.6523 L1.75781,18.6523 C1.17188,18.6523 0.878906,18.2943 0.878906,17.5781 M3.32031,-7.51953 L3.02734,14.6484 C5.04557,12.7604 7.09635,9.61914 9.17969,5.22461 C11.263,0.830078 12.3047,-2.92969 12.3047,-6.05469 C12.3047,-7.61719 12.0443,-9.04948 11.5234,-10.3516 C11.0026,-11.6536 10.1888,-12.3047 9.08203,-12.3047 C7.97526,-12.3047 6.98242,-11.9141 6.10352,-11.1328 C5.22461,-10.3516 4.29688,-9.14714 3.32031,-7.51953"/>
<path class="KeySig" transform="matrix(1.89921,0,0,1.89921,418.693,1574.95)" d="M0.878906,17.5781 L-0.390625,-44.5313 C-0.390625,-45.5078 0.374349,-45.9961 1.9043,-45.9961 C3.43424,-45.9961 4.19922,-45.5078 4.19922,-44.5313 L3.41797,-10.6445 C5.17578,-12.4023 6.68945,-13.623 7.95898,-14.3066 C9.22852,-14.9902 10.9538,-15.332 13.1348,-15.332 C15.3158,-15.332 17.334,-14.3229 19.1895,-12.3047 C21.0449,-10.2865 21.9727,-7.77995 21.9727,-4.78516 C21.9727,-0.292969 17.2526,5.92448 7.8125,13.8672 C4.29688,17.0573 2.47396,18.6523 2.34375,18.6523 L1.75781,18.6523 C1.17188,18.6523 0.878906,18.2943 0.878906,17.5781 M3.32031,-7.51953 L3.02734,14.6484 C5.04557,12.7604 7.09635,9.61914 9.17969,5.22461 C11.263,0.830078 12.3047,-2.92969 12.3047,-6.05469 C12.3047,-7.61719 12.0443,-9.04948 11.5234,-10.3516 C11.0026,-11.6536 10.1888,-12.3047 9.08203,-12.3047 C7.97526,-12.3047 6.98242,-11.9141 6.10352,-11.1328 C5.22461,-10.3516 4.29688,-9.14714 3.32031,-7.51953"/>
<path class="KeySig" transform="matrix(1.89921,0,0,1.89921,466.173,2266.09)" d="M0.878906,17.5781 L-0.390625,-44.5313 C-0.390625,-45.5078 0.374349,-45.9961 1.9043,-45.9961 C3.43424,-45.9961 4.19922,-45.5078 4.19922,-44.5313 L3.41797,-10.6445 C5.17578,-12.4023 6.68945,-13.623 7.95898,-14.3066 C9.22852,-14.9902 10.9538,-15.332 13.1348,-15.332 C15.3158,-15.332 17.334,-14.3229 19.1895,-12.3047 C21.0449,-10.2865 21.9727,-7.77995 21.9727,-4.78516 C21.9727,-0.292969 17.2526,5.92448 7.8125,13.8672 C4.29688,17.0573 2.47396,18.6523 2.34375,18.6523 L1.75781,18.6523 C1.17188,18.6523 0.878906,18.2943 0.878906,17.5781 M3.32031,-7.51953 L3.02734,14.6484 C5.04557,12.7604 7.09635,9.61914 9.17969,5.22461 C11.263,0.830078 12.3047,-2.92969 12.3047,-6.05469 C12.3047,-7.61719 12.0443,-9.04948 11.5234,-10.3516 C11.0026,-11.6536 10.1888,-12.3047 9.08203,-12.3047 C7.97526,-12.3047 6.98242,-11.9141 6.10352,-11.1328 C5.22461,-10.3516 4.29688,-9.14714 3.32031,-7.51953"/>
<path class="KeySig" transform="matrix(1.89921,0,0,1.89921,418.693,2337.31)" d="M0.878906,17.5781 L-0.390625,-44.5313 C-0.390625,-45.5078 0.374349,-45.9961 1.9043,-45.9961 C3.43424,-45.9961 4.19922,-45.5078 4.19922,-44.5313 L3.41797,-10.6445 C5.17578,-12.4023 6.68945,-13.623 7.95898,-14.3066 C9.22852,-14.9902 10.9538,-15.332 13.1348,-15.332 C15.3158,-15.332 17.334,-14.3229 19.1895,-12.3047 C21.0449,-10.2865 21.9727,-7.77995 21.9727,-4.78516 C21.9727,-0.292969 17.2526,5.92448 7.8125,13.8672 C4.29688,17.0573 2.47396,18.6523 2.34375,18.6523 L1.75781,18.6523 C1.17188,18.6523 0.878906,18.2943 0.878906,17.5781 M3.32031,-7.51953 L3.02734,14.6484 C5.04557,12.7604 7.09635,9.61914 9.17969,5.22461 C11.263,0.830078 12.3047,-2.92969 12.3047,-6.05469 C12.3047,-7.61719 12.0443,-9.04948 11.5234,-10.3516 C11.0026,-11.6536 10.1888,-12.3047 9.08203,-12.3047 C7.97526,-12.3047 6.98242,-11.9141 6.10352,-11.1328 C5.22461,-10.3516 4.29688,-9.14714 3.32031,-7.51953"/>
<path class="TimeSig" transform="matrix(1.89921,0,0,1.89921,559.027,765.111)" d="M22.8516,25 C20.8984,25 19.1406,24.6419 17.5781,23.9258 C16.0156,23.2096 14.8438,22.3958 14.0625,21.4844 C12.3047,19.401 10.5143,18.3594 8.69141,18.3594 C6.86849,18.3594 5.38737,18.8639 4.24805,19.873 C3.10872,20.8822 2.47396,22.2331 2.34375,23.9258 C2.21354,24.6419 1.79036,25 1.07422,25 C0.358073,25 0,24.6419 0,23.9258 C0,19.4336 2.01823,15.4297 6.05469,11.9141 C8.00781,10.2214 9.73307,8.82161 11.2305,7.71484 C12.7279,6.60807 14.5508,5.14323 16.6992,3.32031 C21.2565,-0.585938 23.5352,-5.20833 23.5352,-10.5469 C23.5352,-13.8672 22.9818,-16.7318 21.875,-19.1406 C20.7031,-21.4844 18.9128,-22.6563 16.5039,-22.6563 C15.0065,-22.6563 13.7858,-22.3307 12.8418,-21.6797 C11.8978,-21.0286 11.4258,-20.1986 11.4258,-19.1895 C11.4258,-18.1803 12.0117,-16.9922 13.1836,-15.625 C14.3555,-14.2578 14.9414,-13.1185 14.9414,-12.207 C14.9414,-10.2539 14.2741,-8.61003 12.9395,-7.27539 C11.6048,-5.94076 9.97721,-5.27344 8.05664,-5.27344 C6.13607,-5.27344 4.49219,-5.95703 3.125,-7.32422 C1.82292,-8.75651 1.17188,-10.3841 1.17188,-12.207 C1.17188,-15.918 2.66927,-18.9779 5.66406,-21.3867 C8.65885,-23.7956 12.4674,-25 17.0898,-25 C21.7122,-25 25.8789,-23.6654 29.5898,-20.9961 C33.3008,-18.3268 35.1563,-14.8438 35.1563,-10.5469 C35.1563,-4.6224 33.1706,-0.390625 29.1992,2.14844 C25.7487,4.36198 22.1029,6.23372 18.2617,7.76367 C14.4206,9.29362 11.7513,10.5469 10.2539,11.5234 C11.1003,11.3281 11.9792,11.2305 12.8906,11.2305 C15.8203,11.2305 18.9453,12.207 22.2656,14.1602 C25.5859,16.1133 28.2227,17.0898 30.1758,17.0898 C32.1289,17.0898 33.3659,16.4551 33.8867,15.1855 C34.4076,13.916 34.9609,13.2813 35.5469,13.2813 C36.3281,13.2813 36.7188,13.6719 36.7188,14.4531 C36.7188,16.276 35.4329,18.4896 32.8613,21.0938 C30.2897,23.6979 26.9531,25 22.8516,25"/>
<path class="TimeSig" transform="matrix(1.89921,0,0,1.89921,555.703,860.235)" d="M23.1445,-23.7305 C24.6419,-23.7305 26.0742,-23.9583 27.4414,-24.4141 C28.8086,-24.8698 29.7852,-25.0977 30.3711,-25.0977 C30.957,-25.0977 31.3477,-24.7396 31.543,-24.0234 C31.543,-23.9583 31.4779,-23.763 31.3477,-23.4375 L2.92969,9.57031 L19.6289,9.57031 L19.6289,-3.51563 C19.6289,-5.14323 20.5729,-6.3151 22.4609,-7.03125 C24.4141,-7.7474 26.6276,-10.6445 29.1016,-15.7227 C29.2969,-16.1133 29.5898,-16.3086 29.9805,-16.3086 C30.7617,-16.3086 31.2174,-15.8529 31.3477,-14.9414 L31.3477,9.57031 L38.4766,9.57031 C39.388,9.57031 39.8763,10.0586 39.9414,11.0352 C40.0065,12.0117 39.5182,12.5 38.4766,12.5 L31.3477,12.5 L31.3477,13.2813 C31.3477,15.8854 31.9987,18.099 33.3008,19.9219 C34.7982,21.7448 36.556,22.6563 38.5742,22.6563 C39.3555,22.6563 39.7461,23.0469 39.7461,23.8281 C39.7461,24.6094 39.209,25 38.1348,25 C37.0605,25 35.0586,24.7884 32.1289,24.3652 C29.1992,23.9421 26.9368,23.7305 25.3418,23.7305 C23.7467,23.7305 21.5332,23.9421 18.7012,24.3652 C15.8691,24.7884 13.737,25 12.3047,25 C11.5234,25 11.1328,24.6094 11.1328,23.8281 C11.1328,23.0469 11.5234,22.6563 12.3047,22.6563 C14.3229,22.6563 16.0807,21.7448 17.5781,19.9219 C18.9453,18.0339 19.6289,15.8203 19.6289,13.2813 L19.6289,12.5 L2.92969,12.5 C2.08333,12.5 1.35091,12.2721 0.732422,11.8164 C0.113932,11.3607 -0.195313,10.9375 -0.195313,10.5469 C-0.195313,10.1563 0.61849,8.98438 2.24609,7.03125 C3.8737,5.07813 6.20117,1.31836 9.22852,-4.24805 C12.2559,-9.81445 13.7695,-16.2109 13.7695,-23.4375 C13.7695,-24.4792 14.2253,-25 15.1367,-25 C15.332,-25 15.6413,-24.9349 16.0645,-24.8047 C16.4876,-24.6745 17.3991,-24.4629 18.7988,-24.1699 C20.1986,-23.877 21.6471,-23.7305 23.1445,-23.7305"/>
<path class="Beam" fill-rule="evenodd" d="M726.632,788.638 L857.379,813.554 L857.379,837.721 L726.632,812.805 L726.632,788.638 "/>
<path class="Beam" fill-rule="evenodd" d="M1105.37,799.661 L1221.44,849.808 L1221.44,875.669 L1105.37,825.522 L1105.37,799.661 "/>
<path class="Beam" fill-rule="evenodd" d="M1325.16,895.613 L1441.23,908.15 L1441.23,932.028 L1325.16,919.491 L1325.16,895.613 "/>
<path class="Beam" fill-rule="evenodd" d="M1600.12,883.561 L1721.17,908.577 L1721.17,932.819 L1600.12,907.803 L1600.12,883.561 "/>
<path class="Beam" fill-rule="evenodd" d="M1829.88,788.6 L1950.93,813.616 L1950.93,837.858 L1829.88,812.842 L1829.88,788.6 "/>
<path class="Beam" fill-rule="evenodd" d="M2132.76,799.661 L2248.83,849.808 L2248.83,875.669 L2132.76,825.522 L2132.76,799.661 "/>
<path class="Beam" fill-rule="evenodd" d="M2352.55,895.613 L2468.62,908.15 L2468.62,932.028 L2352.55,919.491 L2352.55,895.613 "/>
<path class="Beam" fill-rule="evenodd" d="M2792.26,788.54 L2901.4,813.703 L2901.4,838.066 L2792.26,812.903 L2792.26,788.54 "/>
<path class="Beam" fill-rule="evenodd" d="M3287.34,954.67 L3388.84,929.393 L3388.84,953.858 L3287.34,979.135 L3287.34,954.67 "/>
<path class="Beam" fill-rule="evenodd" d="M3547.74,883.812 L3663.81,883.812 L3663.81,907.552 L3547.74,907.552 L3547.74,883.812 "/>
<path class="Beam" fill-rule="evenodd" d="M3767.53,895.613 L3883.59,908.15 L3883.59,932.028 L3767.53,919.491 L3767.53,895.613 "/>
<path class="Beam" fill-rule="evenodd" d="M626.656,1693.42 L932.015,1753.99 L932.015,1778.2 L626.656,1717.62 L626.656,1693.42 "/>
<path class="Beam" fill-rule="evenodd" d="M626.656,1657.81 L932.015,1718.38 L932.015,1742.59 L626.656,1682.01 L626.656,1657.81 "/>
<path class="Beam" fill-rule="evenodd" d="M1025.57,1693.65 L1330.93,1693.65 L1330.93,1717.39 L1025.57,1717.39 L1025.57,1693.65 "/>
<path class="Beam" fill-rule="evenodd" d="M1025.57,1658.04 L1330.93,1658.04 L1330.93,1681.78 L1025.57,1681.78 L1025.57,1658.04 "/>
<path class="Beam" fill-rule="evenodd" d="M1489.82,1646.17 L1764.52,1646.17 L1764.52,1669.91 L1489.82,1669.91 L1489.82,1646.17 "/>
<path class="Beam" fill-rule="evenodd" d="M1489.82,1610.56 L1764.52,1610.56 L1764.52,1634.3 L1489.82,1634.3 L1489.82,1610.56 "/>
<path class="Beam" fill-rule="evenodd" d="M1847.85,1658 L1997.24,1670.38 L1997.24,1694.2 L1847.85,1681.82 L1847.85,1658 "/>
<path class="Beam" fill-rule="evenodd" d="M2366.69,1717.12 L2483.69,1692.06 L2483.69,1716.34 L2366.69,1741.4 L2366.69,1717.12 "/>
<path class="Beam" fill-rule="evenodd" d="M2643.43,1646.17 L2769.81,1646.17 L2769.81,1669.91 L2643.43,1669.91 L2643.43,1646.17 "/>
<path class="Beam" fill-rule="evenodd" d="M2883.84,1657.98 L3010.21,1670.46 L3010.21,1694.32 L2883.84,1681.84 L2883.84,1657.98 "/>
<path class="Beam" fill-rule="evenodd" d="M3179.32,1693.42 L3484.68,1753.99 L3484.68,1778.2 L3179.32,1717.62 L3179.32,1693.42 "/>
<path class="Beam" fill-rule="evenodd" d="M3179.32,1657.81 L3484.68,1718.38 L3484.68,1742.59 L3179.32,1682.01 L3179.32,1657.81 "/>
<path class="Beam" fill-rule="evenodd" d="M3578.24,1693.65 L3883.59,1693.65 L3883.59,1717.39 L3578.24,1717.39 L3578.24,1693.65 "/>
<path class="Beam" fill-rule="evenodd" d="M3578.24,1658.04 L3883.59,1658.04 L3883.59,1681.78 L3578.24,1681.78 L3578.24,1658.04 "/>
<path class="Beam" fill-rule="evenodd" d="M626.656,2408.53 L1177.8,2408.53 L1177.8,2432.27 L626.656,2432.27 L626.656,2408.53 "/>
<path class="Beam" fill-rule="evenodd" d="M626.656,2372.92 L1177.8,2372.92 L1177.8,2396.66 L626.656,2396.66 L626.656,2372.92 "/>
<path class="Beam" fill-rule="evenodd" d="M1353.28,2420.39 L1650.11,2432.51 L1650.11,2456.27 L1353.28,2444.15 L1353.28,2420.39 "/>
<path class="VoltaSegment" d="M2612.62,600.928 C2611.79,600.928 2610.8,601.102 2609.66,601.448 C2608.52,601.795 2607.3,602.211 2606.02,602.696 C2604.74,603.182 2603.99,603.459 2603.78,603.528 L2603.78,600.824 L2629.99,589.488 L2631.76,589.488 L2631.76,648.768 C2631.76,652.79 2632.45,655.407 2633.84,656.62 C2635.23,657.834 2638.28,658.475 2642.99,658.544 L2642.99,661.04 L2603.99,661.04 L2603.99,658.544 C2609.12,658.475 2612.47,657.799 2614.03,656.516 C2615.59,655.234 2616.37,652.443 2616.37,648.144 L2616.37,608.104 C2616.37,603.32 2615.12,600.928 2612.62,600.928 M2662.02,644.816 C2664.45,644.816 2666.53,645.7 2668.26,647.468 C2670,649.236 2670.86,651.334 2670.86,653.76 C2670.86,656.187 2670,658.232 2668.26,659.896 C2666.53,661.56 2664.42,662.392 2661.92,662.392 C2659.49,662.392 2657.45,661.543 2655.78,659.844 C2654.12,658.146 2653.29,656.048 2653.29,653.552 C2653.29,651.195 2654.16,649.15 2655.89,647.416 C2657.62,645.683 2659.67,644.816 2662.02,644.816"/>
<polyline class="VoltaSegment" fill="none" stroke="#000000" stroke-width="4.75" stroke-linecap="square" stroke-linejoin="bevel" points="2580.03,661.04 2580.03,570.828"/>
<polyline class="VoltaSegment" fill="none" stroke="#000000" stroke-width="4.75" stroke-linecap="square" stroke-linejoin="bevel" points="2580.03,570.828 3065.19,570.828"/>
<polyline class="VoltaSegment" fill="none" stroke="#000000" stroke-width="4.75" stroke-linecap="square" stroke-linejoin="bevel" points="3065.19,570.828 3065.19,661.04"/>
<path class="VoltaSegment" d="M3112.52,610.704 C3117.79,596.56 3125.42,589.488 3135.4,589.488 C3141.02,589.488 3145.63,591.274 3149.24,594.844 C3152.84,598.415 3154.64,602.974 3154.64,608.52 C3154.64,616.147 3150.69,623.704 3142.79,631.192 L3125.94,647.208 L3141.64,647.208 C3146.98,647.208 3150.41,646.792 3151.94,645.96 C3153.46,645.128 3154.99,642.84 3156.52,639.096 L3159.01,639.096 L3154.33,661.04 L3111.07,661.04 L3111.07,658.648 C3122.92,646.03 3130.79,636.722 3134.68,630.724 C3138.56,624.727 3140.5,619.336 3140.5,614.552 C3140.5,611.016 3139.36,607.931 3137.07,605.296 C3134.78,602.662 3131.8,601.344 3128.12,601.344 C3122.78,601.344 3118.56,604.464 3115.44,610.704 L3112.52,610.704 M3174.3,644.816 C3176.73,644.816 3178.81,645.7 3180.54,647.468 C3182.27,649.236 3183.14,651.334 3183.14,653.76 C3183.14,656.187 3182.27,658.232 3180.54,659.896 C3178.81,661.56 3176.69,662.392 3174.2,662.392 C3171.77,662.392 3169.72,661.543 3168.06,659.844 C3166.4,658.146 3165.56,656.048 3165.56,653.552 C3165.56,651.195 3166.43,649.15 3168.16,647.416 C3169.9,645.683 3171.94,644.816 3174.3,644.816"/>
<polyline class="VoltaSegment" fill="none" stroke="#000000" stroke-width="4.75" stroke-linecap="square" stroke-linejoin="bevel" points="3087.32,661.04 3087.32,570.828"/>
<polyline class="VoltaSegment" fill="none" stroke="#000000" stroke-width="4.75" stroke-linecap="square" stroke-linejoin="bevel" points="3087.32,570.828 3496.46,570.828"/>
<polyline class="VoltaSegment" fill="none" stroke="#000000" stroke-width="4.75" stroke-linecap="square" stroke-linejoin="bevel" points="3496.46,570.828 3496.46,661.04"/>
</svg>
