<?xml version="1.0" encoding="UTF-8" standalone="no"?>
<svg width="4208.47px" height="2409.45px" viewBox="0 0 4208.47 2409.45"
 xmlns="http://www.w3.org/2000/svg" xmlns:xlink="http://www.w3.org/1999/xlink" version="1.2" baseProfile="tiny">
<title>SAX TENOR</title>
<desc>Generated by MuseScore 3.6.2</desc>
<polyline class="StaffLines" fill="none" stroke="#000000" stroke-width="5.22" stroke-linejoin="bevel" points="70.866,403.228 4137.61,403.228"/>
<polyline class="StaffLines" fill="none" stroke="#000000" stroke-width="5.22" stroke-linejoin="bevel" points="70.866,450.709 4137.61,450.709"/>
<polyline class="StaffLines" fill="none" stroke="#000000" stroke-width="5.22" stroke-linejoin="bevel" points="70.866,498.189 4137.61,498.189"/>
<polyline class="StaffLines" fill="none" stroke="#000000" stroke-width="5.22" stroke-linejoin="bevel" points="70.866,545.669 4137.61,545.669"/>
<polyline class="StaffLines" fill="none" stroke="#000000" stroke-width="5.22" stroke-linejoin="bevel" points="70.866,593.149 4137.61,593.149"/>
<polyline class="StaffLines" fill="none" stroke="#000000" stroke-width="5.22" stroke-linejoin="bevel" points="70.866,1271.94 4137.61,1271.94"/>
<polyline class="StaffLines" fill="none" stroke="#000000" stroke-width="5.22" stroke-linejoin="bevel" points="70.866,1319.42 4137.61,1319.42"/>
<polyline class="StaffLines" fill="none" stroke="#000000" stroke-width="5.22" stroke-linejoin="bevel" points="70.866,1366.9 4137.61,1366.9"/>
<polyline class="StaffLines" fill="none" stroke="#000000" stroke-width="5.22" stroke-linejoin="bevel" points="70.866,1414.38 4137.61,1414.38"/>
<polyline class="StaffLines" fill="none" stroke="#000000" stroke-width="5.22" stroke-linejoin="bevel" points="70.866,1461.86 4137.61,1461.86"/>
<polyline class="StaffLines" fill="none" stroke="#000000" stroke-width="5.22" stroke-linejoin="bevel" points="70.866,2140.65 4137.61,2140.65"/>
<polyline class="StaffLines" fill="none" stroke="#000000" stroke-width="5.22" stroke-linejoin="bevel" points="70.866,2188.13 4137.61,2188.13"/>
<polyline class="StaffLines" fill="none" stroke="#000000" stroke-width="5.22" stroke-linejoin="bevel" points="70.866,2235.61 4137.61,2235.61"/>
<polyline class="StaffLines" fill="none" stroke="#000000" stroke-width="5.22" stroke-linejoin="bevel" points="70.866,2283.09 4137.61,2283.09"/>
<polyline class="StaffLines" fill="none" stroke="#000000" stroke-width="5.22" stroke-linejoin="bevel" points="70.866,2330.57 4137.61,2330.57"/>
<path class="MeasureNumber" d="M98.7097,1138.26 C95.8035,1138.59 92.2254,1138.81 89.1472,1138.81 C87.616,1138.81 85.8504,1138.76 83.866,1138.65 C82.0535,1138.54 80.241,1138.43 78.366,1138.32 L76.991,1138.26 L71.6629,1149.87 L73.6941,1150.53 L75.0222,1148.32 C77.6004,1144.04 78.8035,1143.43 84.4129,1143.49 L93.7097,1143.49 L87.7254,1152.07 C80.6785,1161.96 80.6785,1161.96 77.991,1166.37 C75.5691,1170.28 74.5691,1172.68 74.5691,1174.67 C74.5691,1176.59 75.7879,1177.81 77.7097,1177.81 C79.741,1177.81 80.7879,1176.81 81.5066,1174.23 C84.2566,1163.88 85.8972,1160.32 93.5535,1147.95 L98.7097,1139.92 L98.7097,1138.26 "/>
<path class="MeasureNumber" d="M94.1004,2006.75 L92.5066,2006.75 C89.491,2009 83.6629,2010.94 79.6941,2010.94 L79.0379,2013.36 L82.8347,2013.36 C86.1941,2013.36 86.5691,2013.47 86.5691,2014.45 C86.5691,2014.95 86.5691,2014.95 86.0222,2016.92 L80.1472,2038.92 C79.4285,2041.67 79.366,2041.85 78.8816,2042.33 C78.3191,2042.89 77.1629,2043.05 74.2566,2043.11 L71.8972,2043.11 L71.616,2045.69 L91.9597,2045.69 L92.2879,2043.11 L89.3191,2043.11 C85.741,2043.11 84.9754,2042.83 84.9754,2041.63 C84.9754,2041.24 85.1941,2039.97 85.4754,2038.92 L94.1004,2006.75 M127.6,2006.75 L124.632,2006.75 L99.0066,2033.27 L99.0066,2035.56 L114.507,2035.56 L113.632,2038.92 C112.913,2041.67 112.866,2041.85 112.366,2042.33 C111.819,2042.89 110.663,2043.11 107.741,2043.11 L106.757,2043.11 L106.428,2045.69 L123.538,2045.69 L123.803,2043.11 L122.819,2043.11 C119.194,2043.11 118.413,2042.83 118.413,2041.63 C118.413,2041.17 118.522,2040.63 118.96,2038.92 L119.897,2035.56 L126.163,2035.56 L126.991,2032.6 L120.678,2032.6 L127.6,2006.75 M115.335,2032.6 L103.022,2032.6 L120.007,2015.11 L115.335,2032.6 "/>
<path class="TieSegment" stroke="#000000" stroke-width="3.32" stroke-linecap="round" stroke-linejoin="round" fill-rule="evenodd" d="M832.695,550.18 C844.09,562.525 878.276,562.525 889.671,550.18 C878.276,575.819 844.09,575.819 832.695,550.18"/>
<path class="TieSegment" stroke="#000000" stroke-width="3.32" stroke-linecap="round" stroke-linejoin="round" fill-rule="evenodd" d="M1048.25,438.838 C1066.76,413.199 1122.29,413.199 1140.8,438.838 C1122.29,426.494 1066.76,426.494 1048.25,438.838"/>
<path class="TieSegment" stroke="#000000" stroke-width="3.32" stroke-linecap="round" stroke-linejoin="round" fill-rule="evenodd" d="M1559.37,550.18 C1570.76,562.525 1604.95,562.525 1616.34,550.18 C1604.95,575.819 1570.76,575.819 1559.37,550.18"/>
<path class="TieSegment" stroke="#000000" stroke-width="3.32" stroke-linecap="round" stroke-linejoin="round" fill-rule="evenodd" d="M1774.92,438.838 C1793.43,413.199 1848.96,413.199 1867.47,438.838 C1848.96,426.494 1793.43,426.494 1774.92,438.838"/>
<path class="TieSegment" stroke="#000000" stroke-width="3.32" stroke-linecap="round" stroke-linejoin="round" fill-rule="evenodd" d="M3648.2,550.18 C3659.59,562.525 3693.78,562.525 3705.17,550.18 C3693.78,575.819 3659.59,575.819 3648.2,550.18"/>
<path class="TieSegment" stroke="#000000" stroke-width="3.32" stroke-linecap="round" stroke-linejoin="round" fill-rule="evenodd" d="M3863.75,438.838 C3882.26,413.199 3937.79,413.199 3956.3,438.838 C3937.79,426.494 3882.26,426.494 3863.75,438.838"/>
<path class="TieSegment" stroke="#000000" stroke-width="3.32" stroke-linecap="round" stroke-linejoin="round" fill-rule="evenodd" d="M748.043,1418.89 C759.438,1431.24 793.624,1431.24 805.019,1418.89 C793.624,1444.53 759.438,1444.53 748.043,1418.89"/>
<path class="TieSegment" stroke="#000000" stroke-width="3.32" stroke-linecap="round" stroke-linejoin="round" fill-rule="evenodd" d="M953.082,1307.55 C969.488,1281.91 1018.71,1281.91 1035.11,1307.55 C1018.71,1295.2 969.488,1295.2 953.082,1307.55"/>
<polyline class="BarLine" stroke="#000000" stroke-width="8.55" stroke-linejoin="bevel" points="1317.83,400.617 1317.83,595.761"/>
<polyline class="BarLine" stroke="#000000" stroke-width="8.55" stroke-linejoin="bevel" points="2044.5,400.617 2044.5,595.761"/>
<polyline class="BarLine" stroke="#000000" stroke-width="8.55" stroke-linejoin="bevel" points="2760.27,400.617 2760.27,595.761"/>
<polyline class="BarLine" stroke="#000000" stroke-width="8.55" stroke-linejoin="bevel" points="3083.92,400.617 3083.92,595.761"/>
<polyline class="BarLine" stroke="#000000" stroke-width="8.55" stroke-linejoin="bevel" points="3406.66,400.617 3406.66,595.761"/>
<polyline class="BarLine" stroke="#000000" stroke-width="8.55" stroke-linejoin="bevel" points="4133.33,400.617 4133.33,595.761"/>
<polyline class="BarLine" stroke="#000000" stroke-width="8.55" stroke-linejoin="bevel" points="1193.75,1269.33 1193.75,1464.47"/>
<polyline class="BarLine" stroke="#000000" stroke-width="8.55" stroke-linejoin="bevel" points="1857.26,1269.33 1857.26,1464.47"/>
<polyline class="BarLine" stroke="#000000" stroke-width="8.55" stroke-linejoin="bevel" points="2128.65,1269.33 2128.65,1464.47"/>
<polyline class="BarLine" stroke="#000000" stroke-width="8.55" stroke-linejoin="bevel" points="2399.13,1269.33 2399.13,1464.47"/>
<polyline class="BarLine" stroke="#000000" stroke-width="8.55" stroke-linejoin="bevel" points="2977.2,1269.33 2977.2,1464.47"/>
<polyline class="BarLine" stroke="#000000" stroke-width="8.55" stroke-linejoin="bevel" points="3555.27,1269.33 3555.27,1464.47"/>
<polyline class="BarLine" stroke="#000000" stroke-width="8.55" stroke-linejoin="bevel" points="4133.33,1269.33 4133.33,1464.47"/>
<polyline class="BarLine" stroke="#000000" stroke-width="8.55" stroke-linejoin="bevel" points="838.158,2138.04 838.158,2333.18"/>
<polyline class="BarLine" stroke="#000000" stroke-width="8.55" stroke-linejoin="bevel" points="1106.65,2138.04 1106.65,2333.18"/>
<polyline class="BarLine" stroke="#000000" stroke-width="8.55" stroke-linejoin="bevel" points="1374.23,2138.04 1374.23,2333.18"/>
<polyline class="BarLine" stroke="#000000" stroke-width="8.55" stroke-linejoin="bevel" points="2034.84,2138.04 2034.84,2333.18"/>
<polyline class="BarLine" stroke="#000000" stroke-width="8.55" stroke-linejoin="bevel" points="2610.01,2138.04 2610.01,2333.18"/>
<polyline class="BarLine" stroke="#000000" stroke-width="8.55" stroke-linejoin="bevel" points="3270.62,2138.04 3270.62,2333.18"/>
<polyline class="BarLine" stroke="#000000" stroke-width="8.55" stroke-linejoin="bevel" points="3589.44,2138.04 3589.44,2333.18"/>
<polyline class="BarLine" stroke="#000000" stroke-width="8.55" stroke-linejoin="bevel" points="3857.93,2138.04 3857.93,2333.18"/>
<polyline class="BarLine" stroke="#000000" stroke-width="8.55" stroke-linejoin="bevel" points="4091.31,2138.04 4091.31,2333.18"/>
<polyline class="BarLine" stroke="#000000" stroke-width="26.11" stroke-linejoin="bevel" points="4124.55,2138.04 4124.55,2333.18"/>
<polyline class="Stem" stroke="#000000" stroke-width="5.22" stroke-linejoin="bevel" points="716.257,539.592 716.257,403.228"/>
<polyline class="Stem" stroke="#000000" stroke-width="5.22" stroke-linejoin="bevel" points="851.682,492.111 851.682,355.748"/>
<polyline class="Stem" stroke="#000000" stroke-width="5.22" stroke-linejoin="bevel" points="899.688,504.57 899.688,640.63"/>
<polyline class="Stem" stroke="#000000" stroke-width="5.22" stroke-linejoin="bevel" points="1010.75,480.83 1010.75,628.76"/>
<polyline class="Stem" stroke="#000000" stroke-width="5.22" stroke-linejoin="bevel" points="1121.81,480.83 1121.81,628.76"/>
<polyline class="Stem" stroke="#000000" stroke-width="5.22" stroke-linejoin="bevel" points="1442.93,539.592 1442.93,403.228"/>
<polyline class="Stem" stroke="#000000" stroke-width="5.22" stroke-linejoin="bevel" points="1578.35,492.111 1578.35,355.748"/>
<polyline class="Stem" stroke="#000000" stroke-width="5.22" stroke-linejoin="bevel" points="1626.36,504.57 1626.36,640.63"/>
<polyline class="Stem" stroke="#000000" stroke-width="5.22" stroke-linejoin="bevel" points="1737.42,480.83 1737.42,628.76"/>
<polyline class="Stem" stroke="#000000" stroke-width="5.22" stroke-linejoin="bevel" points="1848.48,480.83 1848.48,628.76"/>
<polyline class="Stem" stroke="#000000" stroke-width="5.22" stroke-linejoin="bevel" points="2113.11,433.35 2113.11,581.279"/>
<polyline class="Stem" stroke="#000000" stroke-width="5.22" stroke-linejoin="bevel" points="2202.76,433.35 2202.76,589.193"/>
<polyline class="Stem" stroke="#000000" stroke-width="5.22" stroke-linejoin="bevel" points="2292.42,457.09 2292.42,597.106"/>
<polyline class="Stem" stroke="#000000" stroke-width="5.22" stroke-linejoin="bevel" points="2382.07,480.83 2382.07,605.02"/>
<polyline class="Stem" stroke="#000000" stroke-width="5.22" stroke-linejoin="bevel" points="2471.72,504.57 2471.72,646.565"/>
<polyline class="Stem" stroke="#000000" stroke-width="5.22" stroke-linejoin="bevel" points="2615.17,480.83 2615.17,628.76"/>
<polyline class="Stem" stroke="#000000" stroke-width="5.22" stroke-linejoin="bevel" points="3531.76,539.592 3531.76,403.228"/>
<polyline class="Stem" stroke="#000000" stroke-width="5.22" stroke-linejoin="bevel" points="3667.18,492.111 3667.18,355.748"/>
<polyline class="Stem" stroke="#000000" stroke-width="5.22" stroke-linejoin="bevel" points="3715.19,504.57 3715.19,640.63"/>
<polyline class="Stem" stroke="#000000" stroke-width="5.22" stroke-linejoin="bevel" points="3826.25,480.83 3826.25,628.76"/>
<polyline class="Stem" stroke="#000000" stroke-width="5.22" stroke-linejoin="bevel" points="3937.31,480.83 3937.31,628.76"/>
<polyline class="Stem" stroke="#000000" stroke-width="5.22" stroke-linejoin="bevel" points="644.428,1408.3 644.428,1271.94"/>
<polyline class="Stem" stroke="#000000" stroke-width="5.22" stroke-linejoin="bevel" points="767.03,1360.82 767.03,1224.46"/>
<polyline class="Stem" stroke="#000000" stroke-width="5.22" stroke-linejoin="bevel" points="815.036,1373.28 815.036,1509.34"/>
<polyline class="Stem" stroke="#000000" stroke-width="5.22" stroke-linejoin="bevel" points="915.582,1349.54 915.582,1497.47"/>
<polyline class="Stem" stroke="#000000" stroke-width="5.22" stroke-linejoin="bevel" points="1016.13,1349.54 1016.13,1497.47"/>
<polyline class="Stem" stroke="#000000" stroke-width="5.22" stroke-linejoin="bevel" points="1262.35,1302.06 1262.35,1449.99"/>
<polyline class="Stem" stroke="#000000" stroke-width="5.22" stroke-linejoin="bevel" points="1344.55,1302.06 1344.55,1453.95"/>
<polyline class="Stem" stroke="#000000" stroke-width="5.22" stroke-linejoin="bevel" points="1426.75,1325.8 1426.75,1457.9"/>
<polyline class="Stem" stroke="#000000" stroke-width="5.22" stroke-linejoin="bevel" points="1508.95,1325.8 1508.95,1461.86"/>
<polyline class="Stem" stroke="#000000" stroke-width="5.22" stroke-linejoin="bevel" points="1591.15,1349.54 1591.15,1497.47"/>
<polyline class="Stem" stroke="#000000" stroke-width="5.22" stroke-linejoin="bevel" points="1722.67,1325.8 1722.67,1479.67"/>
<polyline class="Stem" stroke="#000000" stroke-width="5.22" stroke-linejoin="bevel" points="2549.64,1302.06 2549.64,1461.86"/>
<polyline class="Stem" stroke="#000000" stroke-width="5.22" stroke-linejoin="bevel" points="2631.55,1325.8 2631.55,1461.86"/>
<polyline class="Stem" stroke="#000000" stroke-width="5.22" stroke-linejoin="bevel" points="2713.45,1349.54 2713.45,1473.73"/>
<polyline class="Stem" stroke="#000000" stroke-width="5.22" stroke-linejoin="bevel" points="2795.35,1373.28 2795.35,1515.28"/>
<polyline class="Stem" stroke="#000000" stroke-width="5.22" stroke-linejoin="bevel" points="3127.71,1302.06 3127.71,1461.86"/>
<polyline class="Stem" stroke="#000000" stroke-width="5.22" stroke-linejoin="bevel" points="3209.61,1325.8 3209.61,1461.86"/>
<polyline class="Stem" stroke="#000000" stroke-width="5.22" stroke-linejoin="bevel" points="3291.52,1349.54 3291.52,1473.73"/>
<polyline class="Stem" stroke="#000000" stroke-width="5.22" stroke-linejoin="bevel" points="3373.42,1373.28 3373.42,1515.28"/>
<polyline class="Stem" stroke="#000000" stroke-width="5.22" stroke-linejoin="bevel" points="3705.78,1302.06 3705.78,1461.86"/>
<polyline class="Stem" stroke="#000000" stroke-width="5.22" stroke-linejoin="bevel" points="3787.68,1325.8 3787.68,1461.86"/>
<polyline class="Stem" stroke="#000000" stroke-width="5.22" stroke-linejoin="bevel" points="3869.58,1349.54 3869.58,1473.73"/>
<polyline class="Stem" stroke="#000000" stroke-width="5.22" stroke-linejoin="bevel" points="3951.49,1373.28 3951.49,1515.28"/>
<polyline class="Stem" stroke="#000000" stroke-width="5.22" stroke-linejoin="bevel" points="587.941,2170.77 587.941,2330.57"/>
<polyline class="Stem" stroke="#000000" stroke-width="5.22" stroke-linejoin="bevel" points="703.566,2147.03 703.566,2306.83"/>
<polyline class="Stem" stroke="#000000" stroke-width="5.22" stroke-linejoin="bevel" points="1524.52,2170.77 1524.52,2330.57"/>
<polyline class="Stem" stroke="#000000" stroke-width="5.22" stroke-linejoin="bevel" points="1606.2,2194.51 1606.2,2330.57"/>
<polyline class="Stem" stroke="#000000" stroke-width="5.22" stroke-linejoin="bevel" points="1687.88,2218.25 1687.88,2342.44"/>
<polyline class="Stem" stroke="#000000" stroke-width="5.22" stroke-linejoin="bevel" points="1769.56,2241.99 1769.56,2383.99"/>
<polyline class="Stem" stroke="#000000" stroke-width="5.22" stroke-linejoin="bevel" points="1956.74,2277.01 1956.74,2122.84"/>
<polyline class="Stem" stroke="#000000" stroke-width="5.22" stroke-linejoin="bevel" points="2184.88,2170.77 2184.88,2330.57"/>
<polyline class="Stem" stroke="#000000" stroke-width="5.22" stroke-linejoin="bevel" points="2266.32,2194.51 2266.32,2330.57"/>
<polyline class="Stem" stroke="#000000" stroke-width="5.22" stroke-linejoin="bevel" points="2347.75,2218.25 2347.75,2342.44"/>
<polyline class="Stem" stroke="#000000" stroke-width="5.22" stroke-linejoin="bevel" points="2429.19,2241.99 2429.19,2383.99"/>
<polyline class="Stem" stroke="#000000" stroke-width="5.22" stroke-linejoin="bevel" points="2760.3,2170.77 2760.3,2330.57"/>
<polyline class="Stem" stroke="#000000" stroke-width="5.22" stroke-linejoin="bevel" points="2841.98,2194.51 2841.98,2330.57"/>
<polyline class="Stem" stroke="#000000" stroke-width="5.22" stroke-linejoin="bevel" points="2923.66,2218.25 2923.66,2342.44"/>
<polyline class="Stem" stroke="#000000" stroke-width="5.22" stroke-linejoin="bevel" points="3005.34,2241.99 3005.34,2383.99"/>
<polyline class="Stem" stroke="#000000" stroke-width="5.22" stroke-linejoin="bevel" points="3192.51,2277.01 3192.51,2122.84"/>
<polyline class="Stem" stroke="#000000" stroke-width="5.22" stroke-linejoin="bevel" points="3339.23,2170.77 3339.23,2330.57"/>
<polyline class="Stem" stroke="#000000" stroke-width="5.22" stroke-linejoin="bevel" points="3454.85,2147.03 3454.85,2306.83"/>
<path class="Note" transform="matrix(1.89921,0,0,1.89921,657.159,545.669)" d="M31.5,-8.09375 C29.7031,-11.4063 25.9063,-13.2031 21.2969,-13.2031 C17.9063,-13.2031 14.2031,-12.2031 10.5938,-10.2969 C4,-6.79688 0,-0.90625 0,4.20313 C0,5.59375 0.296875,7 1,8.29688 C2.79688,11.5938 6.59375,13.2969 11.2031,13.2969 C14.5938,13.2969 18.2969,12.4063 21.9063,10.5 C28.5,7 32.5,1.09375 32.5,-4 C32.5,-5.40625 32.2031,-6.79688 31.5,-8.09375"/>
<path class="Note" transform="matrix(1.89921,0,0,1.89921,792.583,498.189)" d="M31.5,-8.09375 C29.7031,-11.4063 25.9063,-13.2031 21.2969,-13.2031 C17.9063,-13.2031 14.2031,-12.2031 10.5938,-10.2969 C4,-6.79688 0,-0.90625 0,4.20313 C0,5.59375 0.296875,7 1,8.29688 C2.79688,11.5938 6.59375,13.2969 11.2031,13.2969 C14.5938,13.2969 18.2969,12.4063 21.9063,10.5 C28.5,7 32.5,1.09375 32.5,-4 C32.5,-5.40625 32.2031,-6.79688 31.5,-8.09375"/>
<path class="Note" transform="matrix(1.89921,0,0,1.89921,897.076,498.189)" d="M31.5,-8.09375 C29.7031,-11.4063 25.9063,-13.2031 21.2969,-13.2031 C17.9063,-13.2031 14.2031,-12.2031 10.5938,-10.2969 C4,-6.79688 0,-0.90625 0,4.20313 C0,5.59375 0.296875,7 1,8.29688 C2.79688,11.5938 6.59375,13.2969 11.2031,13.2969 C14.5938,13.2969 18.2969,12.4063 21.9063,10.5 C28.5,7 32.5,1.09375 32.5,-4 C32.5,-5.40625 32.2031,-6.79688 31.5,-8.09375"/>
<path class="Note" transform="matrix(1.89921,0,0,1.89921,1008.14,474.449)" d="M31.5,-8.09375 C29.7031,-11.4063 25.9063,-13.2031 21.2969,-13.2031 C17.9063,-13.2031 14.2031,-12.2031 10.5938,-10.2969 C4,-6.79688 0,-0.90625 0,4.20313 C0,5.59375 0.296875,7 1,8.29688 C2.79688,11.5938 6.59375,13.2969 11.2031,13.2969 C14.5938,13.2969 18.2969,12.4063 21.9063,10.5 C28.5,7 32.5,1.09375 32.5,-4 C32.5,-5.40625 32.2031,-6.79688 31.5,-8.09375"/>
<path class="Note" transform="matrix(1.89921,0,0,1.89921,1119.2,474.449)" d="M31.5,-8.14063 C29.7031,-11.4375 25.9063,-13.2344 21.2969,-13.2344 C17.9063,-13.2344 14.2031,-12.2344 10.5938,-10.3438 C4,-6.84375 0,-0.9375 0,4.15625 C0,5.5625 0.296875,6.96875 1,8.26563 C2.79688,11.5781 6.59375,13.2813 11.2031,13.2813 C14.5938,13.2813 18.2969,12.375 21.9063,10.4844 C28.5,6.96875 32.5,1.0625 32.5,-4.04688 C32.5,-5.4375 32.2031,-6.84375 31.5,-8.14063 M27.2031,-1.34375 C25.5,0.359375 22.0938,2.45313 18.5,4.46875 C14.9063,6.46875 11.2969,7.96875 8.90625,8.46875 C8.40625,8.57813 7.90625,8.67188 7.40625,8.67188 C5.79688,8.67188 4.59375,8.07813 3.90625,6.76563 C3.59375,6.26563 3.40625,5.67188 3.40625,5.0625 C3.40625,3.96875 4.09375,2.65625 5.20313,1.5625 C6.90625,-0.140625 10.2031,-2.23438 13.7969,-4.23438 C17.4063,-6.23438 21,-7.73438 23.4063,-8.23438 C23.9063,-8.34375 24.4063,-8.4375 24.9063,-8.4375 C26.5,-8.4375 27.7969,-7.84375 28.5,-6.54688 C28.7969,-6.04688 28.9063,-5.4375 28.9063,-4.84375 C28.9063,-3.73438 28.2969,-2.54688 27.2031,-1.34375"/>
<path class="Note" transform="matrix(1.89921,0,0,1.89921,1383.83,545.669)" d="M31.5,-8.09375 C29.7031,-11.4063 25.9063,-13.2031 21.2969,-13.2031 C17.9063,-13.2031 14.2031,-12.2031 10.5938,-10.2969 C4,-6.79688 0,-0.90625 0,4.20313 C0,5.59375 0.296875,7 1,8.29688 C2.79688,11.5938 6.59375,13.2969 11.2031,13.2969 C14.5938,13.2969 18.2969,12.4063 21.9063,10.5 C28.5,7 32.5,1.09375 32.5,-4 C32.5,-5.40625 32.2031,-6.79688 31.5,-8.09375"/>
<path class="Note" transform="matrix(1.89921,0,0,1.89921,1519.25,498.189)" d="M31.5,-8.09375 C29.7031,-11.4063 25.9063,-13.2031 21.2969,-13.2031 C17.9063,-13.2031 14.2031,-12.2031 10.5938,-10.2969 C4,-6.79688 0,-0.90625 0,4.20313 C0,5.59375 0.296875,7 1,8.29688 C2.79688,11.5938 6.59375,13.2969 11.2031,13.2969 C14.5938,13.2969 18.2969,12.4063 21.9063,10.5 C28.5,7 32.5,1.09375 32.5,-4 C32.5,-5.40625 32.2031,-6.79688 31.5,-8.09375"/>
<path class="Note" transform="matrix(1.89921,0,0,1.89921,1623.75,498.189)" d="M31.5,-8.09375 C29.7031,-11.4063 25.9063,-13.2031 21.2969,-13.2031 C17.9063,-13.2031 14.2031,-12.2031 10.5938,-10.2969 C4,-6.79688 0,-0.90625 0,4.20313 C0,5.59375 0.296875,7 1,8.29688 C2.79688,11.5938 6.59375,13.2969 11.2031,13.2969 C14.5938,13.2969 18.2969,12.4063 21.9063,10.5 C28.5,7 32.5,1.09375 32.5,-4 C32.5,-5.40625 32.2031,-6.79688 31.5,-8.09375"/>
<path class="Note" transform="matrix(1.89921,0,0,1.89921,1734.81,474.449)" d="M31.5,-8.09375 C29.7031,-11.4063 25.9063,-13.2031 21.2969,-13.2031 C17.9063,-13.2031 14.2031,-12.2031 10.5938,-10.2969 C4,-6.79688 0,-0.90625 0,4.20313 C0,5.59375 0.296875,7 1,8.29688 C2.79688,11.5938 6.59375,13.2969 11.2031,13.2969 C14.5938,13.2969 18.2969,12.4063 21.9063,10.5 C28.5,7 32.5,1.09375 32.5,-4 C32.5,-5.40625 32.2031,-6.79688 31.5,-8.09375"/>
<path class="Note" transform="matrix(1.89921,0,0,1.89921,1845.87,474.449)" d="M31.5,-8.14063 C29.7031,-11.4375 25.9063,-13.2344 21.2969,-13.2344 C17.9063,-13.2344 14.2031,-12.2344 10.5938,-10.3438 C4,-6.84375 0,-0.9375 0,4.15625 C0,5.5625 0.296875,6.96875 1,8.26563 C2.79688,11.5781 6.59375,13.2813 11.2031,13.2813 C14.5938,13.2813 18.2969,12.375 21.9063,10.4844 C28.5,6.96875 32.5,1.0625 32.5,-4.04688 C32.5,-5.4375 32.2031,-6.84375 31.5,-8.14063 M27.2031,-1.34375 C25.5,0.359375 22.0938,2.45313 18.5,4.46875 C14.9063,6.46875 11.2969,7.96875 8.90625,8.46875 C8.40625,8.57813 7.90625,8.67188 7.40625,8.67188 C5.79688,8.67188 4.59375,8.07813 3.90625,6.76563 C3.59375,6.26563 3.40625,5.67188 3.40625,5.0625 C3.40625,3.96875 4.09375,2.65625 5.20313,1.5625 C6.90625,-0.140625 10.2031,-2.23438 13.7969,-4.23438 C17.4063,-6.23438 21,-7.73438 23.4063,-8.23438 C23.9063,-8.34375 24.4063,-8.4375 24.9063,-8.4375 C26.5,-8.4375 27.7969,-7.84375 28.5,-6.54688 C28.7969,-6.04688 28.9063,-5.4375 28.9063,-4.84375 C28.9063,-3.73438 28.2969,-2.54688 27.2031,-1.34375"/>
<path class="Note" transform="matrix(1.89921,0,0,1.89921,2110.5,426.968)" d="M31.5,-8.09375 C29.7031,-11.4063 25.9063,-13.2031 21.2969,-13.2031 C17.9063,-13.2031 14.2031,-12.2031 10.5938,-10.2969 C4,-6.79688 0,-0.90625 0,4.20313 C0,5.59375 0.296875,7 1,8.29688 C2.79688,11.5938 6.59375,13.2969 11.2031,13.2969 C14.5938,13.2969 18.2969,12.4063 21.9063,10.5 C28.5,7 32.5,1.09375 32.5,-4 C32.5,-5.40625 32.2031,-6.79688 31.5,-8.09375"/>
<path class="Note" transform="matrix(1.89921,0,0,1.89921,2200.15,426.968)" d="M31.5,-8.09375 C29.7031,-11.4063 25.9063,-13.2031 21.2969,-13.2031 C17.9063,-13.2031 14.2031,-12.2031 10.5938,-10.2969 C4,-6.79688 0,-0.90625 0,4.20313 C0,5.59375 0.296875,7 1,8.29688 C2.79688,11.5938 6.59375,13.2969 11.2031,13.2969 C14.5938,13.2969 18.2969,12.4063 21.9063,10.5 C28.5,7 32.5,1.09375 32.5,-4 C32.5,-5.40625 32.2031,-6.79688 31.5,-8.09375"/>
<path class="Note" transform="matrix(1.89921,0,0,1.89921,2289.81,450.709)" d="M31.5,-8.09375 C29.7031,-11.4063 25.9063,-13.2031 21.2969,-13.2031 C17.9063,-13.2031 14.2031,-12.2031 10.5938,-10.2969 C4,-6.79688 0,-0.90625 0,4.20313 C0,5.59375 0.296875,7 1,8.29688 C2.79688,11.5938 6.59375,13.2969 11.2031,13.2969 C14.5938,13.2969 18.2969,12.4063 21.9063,10.5 C28.5,7 32.5,1.09375 32.5,-4 C32.5,-5.40625 32.2031,-6.79688 31.5,-8.09375"/>
<path class="Note" transform="matrix(1.89921,0,0,1.89921,2379.46,474.449)" d="M31.5,-8.09375 C29.7031,-11.4063 25.9063,-13.2031 21.2969,-13.2031 C17.9063,-13.2031 14.2031,-12.2031 10.5938,-10.2969 C4,-6.79688 0,-0.90625 0,4.20313 C0,5.59375 0.296875,7 1,8.29688 C2.79688,11.5938 6.59375,13.2969 11.2031,13.2969 C14.5938,13.2969 18.2969,12.4063 21.9063,10.5 C28.5,7 32.5,1.09375 32.5,-4 C32.5,-5.40625 32.2031,-6.79688 31.5,-8.09375"/>
<path class="Note" transform="matrix(1.89921,0,0,1.89921,2469.11,498.189)" d="M31.5,-8.09375 C29.7031,-11.4063 25.9063,-13.2031 21.2969,-13.2031 C17.9063,-13.2031 14.2031,-12.2031 10.5938,-10.2969 C4,-6.79688 0,-0.90625 0,4.20313 C0,5.59375 0.296875,7 1,8.29688 C2.79688,11.5938 6.59375,13.2969 11.2031,13.2969 C14.5938,13.2969 18.2969,12.4063 21.9063,10.5 C28.5,7 32.5,1.09375 32.5,-4 C32.5,-5.40625 32.2031,-6.79688 31.5,-8.09375"/>
<path class="Note" transform="matrix(1.89921,0,0,1.89921,2612.56,474.449)" d="M31.5,-8.09375 C29.7031,-11.4063 25.9063,-13.2031 21.2969,-13.2031 C17.9063,-13.2031 14.2031,-12.2031 10.5938,-10.2969 C4,-6.79688 0,-0.90625 0,4.20313 C0,5.59375 0.296875,7 1,8.29688 C2.79688,11.5938 6.59375,13.2969 11.2031,13.2969 C14.5938,13.2969 18.2969,12.4063 21.9063,10.5 C28.5,7 32.5,1.09375 32.5,-4 C32.5,-5.40625 32.2031,-6.79688 31.5,-8.09375"/>
<path class="Note" transform="matrix(1.89921,0,0,1.89921,2830.83,498.189)" d="M18.7031,-13.5938 C4.90625,-13.5938 0,-6.59375 0,-0.09375 C0,6.40625 4.90625,13.4063 18.7031,13.4063 C32.5,13.4063 37.2969,6.40625 37.2969,-0.09375 C37.2969,-6.59375 32.5,-13.5938 18.7031,-13.5938 M10.4063,-4.5 C10.2969,-4.90625 10.2969,-5.29688 10.2969,-5.70313 C10.2969,-6.5 10.5,-7.29688 10.9063,-8 C11.5938,-9 12.7969,-9.70313 14.2969,-10 C15.5938,-10.2969 16.2969,-10.5 18.9063,-10.5 L19,-10.5 C23,-10.5 24.2969,-6.79688 25.4063,-3 L25.7031,-2 C26.5,0.59375 26.9063,2.79688 26.9063,4.5 C26.9063,5.70313 26.7031,6.79688 26.2969,7.59375 C25.7031,8.70313 24.7031,9.40625 23,9.79688 C22.0938,10 20.5938,10.0938 20.5938,10.0938 C20.0938,10.0938 19.7031,10.2031 19.2969,10.2031 C16.0938,10.2031 14.0938,9 12.7031,4.70313 C11.5,1 11.2969,-0.09375 10.4063,-4.5"/>
<path class="Note" transform="matrix(1.89921,0,0,1.89921,3472.66,545.669)" d="M31.5,-8.09375 C29.7031,-11.4063 25.9063,-13.2031 21.2969,-13.2031 C17.9063,-13.2031 14.2031,-12.2031 10.5938,-10.2969 C4,-6.79688 0,-0.90625 0,4.20313 C0,5.59375 0.296875,7 1,8.29688 C2.79688,11.5938 6.59375,13.2969 11.2031,13.2969 C14.5938,13.2969 18.2969,12.4063 21.9063,10.5 C28.5,7 32.5,1.09375 32.5,-4 C32.5,-5.40625 32.2031,-6.79688 31.5,-8.09375"/>
<path class="Note" transform="matrix(1.89921,0,0,1.89921,3608.08,498.189)" d="M31.5,-8.09375 C29.7031,-11.4063 25.9063,-13.2031 21.2969,-13.2031 C17.9063,-13.2031 14.2031,-12.2031 10.5938,-10.2969 C4,-6.79688 0,-0.90625 0,4.20313 C0,5.59375 0.296875,7 1,8.29688 C2.79688,11.5938 6.59375,13.2969 11.2031,13.2969 C14.5938,13.2969 18.2969,12.4063 21.9063,10.5 C28.5,7 32.5,1.09375 32.5,-4 C32.5,-5.40625 32.2031,-6.79688 31.5,-8.09375"/>
<path class="Note" transform="matrix(1.89921,0,0,1.89921,3712.58,498.189)" d="M31.5,-8.09375 C29.7031,-11.4063 25.9063,-13.2031 21.2969,-13.2031 C17.9063,-13.2031 14.2031,-12.2031 10.5938,-10.2969 C4,-6.79688 0,-0.90625 0,4.20313 C0,5.59375 0.296875,7 1,8.29688 C2.79688,11.5938 6.59375,13.2969 11.2031,13.2969 C14.5938,13.2969 18.2969,12.4063 21.9063,10.5 C28.5,7 32.5,1.09375 32.5,-4 C32.5,-5.40625 32.2031,-6.79688 31.5,-8.09375"/>
<path class="Note" transform="matrix(1.89921,0,0,1.89921,3823.64,474.449)" d="M31.5,-8.09375 C29.7031,-11.4063 25.9063,-13.2031 21.2969,-13.2031 C17.9063,-13.2031 14.2031,-12.2031 10.5938,-10.2969 C4,-6.79688 0,-0.90625 0,4.20313 C0,5.59375 0.296875,7 1,8.29688 C2.79688,11.5938 6.59375,13.2969 11.2031,13.2969 C14.5938,13.2969 18.2969,12.4063 21.9063,10.5 C28.5,7 32.5,1.09375 32.5,-4 C32.5,-5.40625 32.2031,-6.79688 31.5,-8.09375"/>
<path class="Note" transform="matrix(1.89921,0,0,1.89921,3934.7,474.449)" d="M31.5,-8.14063 C29.7031,-11.4375 25.9063,-13.2344 21.2969,-13.2344 C17.9063,-13.2344 14.2031,-12.2344 10.5938,-10.3438 C4,-6.84375 0,-0.9375 0,4.15625 C0,5.5625 0.296875,6.96875 1,8.26563 C2.79688,11.5781 6.59375,13.2813 11.2031,13.2813 C14.5938,13.2813 18.2969,12.375 21.9063,10.4844 C28.5,6.96875 32.5,1.0625 32.5,-4.04688 C32.5,-5.4375 32.2031,-6.84375 31.5,-8.14063 M27.2031,-1.34375 C25.5,0.359375 22.0938,2.45313 18.5,4.46875 C14.9063,6.46875 11.2969,7.96875 8.90625,8.46875 C8.40625,8.57813 7.90625,8.67188 7.40625,8.67188 C5.79688,8.67188 4.59375,8.07813 3.90625,6.76563 C3.59375,6.26563 3.40625,5.67188 3.40625,5.0625 C3.40625,3.96875 4.09375,2.65625 5.20313,1.5625 C6.90625,-0.140625 10.2031,-2.23438 13.7969,-4.23438 C17.4063,-6.23438 21,-7.73438 23.4063,-8.23438 C23.9063,-8.34375 24.4063,-8.4375 24.9063,-8.4375 C26.5,-8.4375 27.7969,-7.84375 28.5,-6.54688 C28.7969,-6.04688 28.9063,-5.4375 28.9063,-4.84375 C28.9063,-3.73438 28.2969,-2.54688 27.2031,-1.34375"/>
<path class="Note" transform="matrix(1.89921,0,0,1.89921,585.33,1414.38)" d="M31.5,-8.09375 C29.7031,-11.4063 25.9063,-13.2031 21.2969,-13.2031 C17.9063,-13.2031 14.2031,-12.2031 10.5938,-10.2969 C4,-6.79688 0,-0.90625 0,4.20313 C0,5.59375 0.296875,7 1,8.29688 C2.79688,11.5938 6.59375,13.2969 11.2031,13.2969 C14.5938,13.2969 18.2969,12.4063 21.9063,10.5 C28.5,7 32.5,1.09375 32.5,-4 C32.5,-5.40625 32.2031,-6.79688 31.5,-8.09375"/>
<path class="Note" transform="matrix(1.89921,0,0,1.89921,707.932,1366.9)" d="M31.5,-8.09375 C29.7031,-11.4063 25.9063,-13.2031 21.2969,-13.2031 C17.9063,-13.2031 14.2031,-12.2031 10.5938,-10.2969 C4,-6.79688 0,-0.90625 0,4.20313 C0,5.59375 0.296875,7 1,8.29688 C2.79688,11.5938 6.59375,13.2969 11.2031,13.2969 C14.5938,13.2969 18.2969,12.4063 21.9063,10.5 C28.5,7 32.5,1.09375 32.5,-4 C32.5,-5.40625 32.2031,-6.79688 31.5,-8.09375"/>
<path class="Note" transform="matrix(1.89921,0,0,1.89921,812.425,1366.9)" d="M31.5,-8.09375 C29.7031,-11.4063 25.9063,-13.2031 21.2969,-13.2031 C17.9063,-13.2031 14.2031,-12.2031 10.5938,-10.2969 C4,-6.79688 0,-0.90625 0,4.20313 C0,5.59375 0.296875,7 1,8.29688 C2.79688,11.5938 6.59375,13.2969 11.2031,13.2969 C14.5938,13.2969 18.2969,12.4063 21.9063,10.5 C28.5,7 32.5,1.09375 32.5,-4 C32.5,-5.40625 32.2031,-6.79688 31.5,-8.09375"/>
<path class="Note" transform="matrix(1.89921,0,0,1.89921,912.971,1343.16)" d="M31.5,-8.09375 C29.7031,-11.4063 25.9063,-13.2031 21.2969,-13.2031 C17.9063,-13.2031 14.2031,-12.2031 10.5938,-10.2969 C4,-6.79688 0,-0.90625 0,4.20313 C0,5.59375 0.296875,7 1,8.29688 C2.79688,11.5938 6.59375,13.2969 11.2031,13.2969 C14.5938,13.2969 18.2969,12.4063 21.9063,10.5 C28.5,7 32.5,1.09375 32.5,-4 C32.5,-5.40625 32.2031,-6.79688 31.5,-8.09375"/>
<path class="Note" transform="matrix(1.89921,0,0,1.89921,1013.52,1343.16)" d="M31.5,-8.14063 C29.7031,-11.4375 25.9063,-13.2344 21.2969,-13.2344 C17.9063,-13.2344 14.2031,-12.2344 10.5938,-10.3438 C4,-6.84375 0,-0.9375 0,4.15625 C0,5.5625 0.296875,6.96875 1,8.26563 C2.79688,11.5781 6.59375,13.2813 11.2031,13.2813 C14.5938,13.2813 18.2969,12.375 21.9063,10.4844 C28.5,6.96875 32.5,1.0625 32.5,-4.04688 C32.5,-5.4375 32.2031,-6.84375 31.5,-8.14063 M27.2031,-1.34375 C25.5,0.359375 22.0938,2.45313 18.5,4.46875 C14.9063,6.46875 11.2969,7.96875 8.90625,8.46875 C8.40625,8.57813 7.90625,8.67188 7.40625,8.67188 C5.79688,8.67188 4.59375,8.07813 3.90625,6.76563 C3.59375,6.26563 3.40625,5.67188 3.40625,5.0625 C3.40625,3.96875 4.09375,2.65625 5.20313,1.5625 C6.90625,-0.140625 10.2031,-2.23438 13.7969,-4.23438 C17.4063,-6.23438 21,-7.73438 23.4063,-8.23438 C23.9063,-8.34375 24.4063,-8.4375 24.9063,-8.4375 C26.5,-8.4375 27.7969,-7.84375 28.5,-6.54688 C28.7969,-6.04688 28.9063,-5.4375 28.9063,-4.84375 C28.9063,-3.73438 28.2969,-2.54688 27.2031,-1.34375"/>
<path class="Note" transform="matrix(1.89921,0,0,1.89921,1259.74,1295.68)" d="M31.5,-8.09375 C29.7031,-11.4063 25.9063,-13.2031 21.2969,-13.2031 C17.9063,-13.2031 14.2031,-12.2031 10.5938,-10.2969 C4,-6.79688 0,-0.90625 0,4.20313 C0,5.59375 0.296875,7 1,8.29688 C2.79688,11.5938 6.59375,13.2969 11.2031,13.2969 C14.5938,13.2969 18.2969,12.4063 21.9063,10.5 C28.5,7 32.5,1.09375 32.5,-4 C32.5,-5.40625 32.2031,-6.79688 31.5,-8.09375"/>
<path class="Note" transform="matrix(1.89921,0,0,1.89921,1341.94,1295.68)" d="M31.5,-8.09375 C29.7031,-11.4063 25.9063,-13.2031 21.2969,-13.2031 C17.9063,-13.2031 14.2031,-12.2031 10.5938,-10.2969 C4,-6.79688 0,-0.90625 0,4.20313 C0,5.59375 0.296875,7 1,8.29688 C2.79688,11.5938 6.59375,13.2969 11.2031,13.2969 C14.5938,13.2969 18.2969,12.4063 21.9063,10.5 C28.5,7 32.5,1.09375 32.5,-4 C32.5,-5.40625 32.2031,-6.79688 31.5,-8.09375"/>
<path class="Note" transform="matrix(1.89921,0,0,1.89921,1424.14,1319.42)" d="M31.5,-8.09375 C29.7031,-11.4063 25.9063,-13.2031 21.2969,-13.2031 C17.9063,-13.2031 14.2031,-12.2031 10.5938,-10.2969 C4,-6.79688 0,-0.90625 0,4.20313 C0,5.59375 0.296875,7 1,8.29688 C2.79688,11.5938 6.59375,13.2969 11.2031,13.2969 C14.5938,13.2969 18.2969,12.4063 21.9063,10.5 C28.5,7 32.5,1.09375 32.5,-4 C32.5,-5.40625 32.2031,-6.79688 31.5,-8.09375"/>
<path class="Note" transform="matrix(1.89921,0,0,1.89921,1506.34,1319.42)" d="M31.5,-8.09375 C29.7031,-11.4063 25.9063,-13.2031 21.2969,-13.2031 C17.9063,-13.2031 14.2031,-12.2031 10.5938,-10.2969 C4,-6.79688 0,-0.90625 0,4.20313 C0,5.59375 0.296875,7 1,8.29688 C2.79688,11.5938 6.59375,13.2969 11.2031,13.2969 C14.5938,13.2969 18.2969,12.4063 21.9063,10.5 C28.5,7 32.5,1.09375 32.5,-4 C32.5,-5.40625 32.2031,-6.79688 31.5,-8.09375"/>
<path class="Note" transform="matrix(1.89921,0,0,1.89921,1588.54,1343.16)" d="M31.5,-8.09375 C29.7031,-11.4063 25.9063,-13.2031 21.2969,-13.2031 C17.9063,-13.2031 14.2031,-12.2031 10.5938,-10.2969 C4,-6.79688 0,-0.90625 0,4.20313 C0,5.59375 0.296875,7 1,8.29688 C2.79688,11.5938 6.59375,13.2969 11.2031,13.2969 C14.5938,13.2969 18.2969,12.4063 21.9063,10.5 C28.5,7 32.5,1.09375 32.5,-4 C32.5,-5.40625 32.2031,-6.79688 31.5,-8.09375"/>
<path class="Note" transform="matrix(1.89921,0,0,1.89921,1720.06,1319.42)" d="M31.5,-8.09375 C29.7031,-11.4063 25.9063,-13.2031 21.2969,-13.2031 C17.9063,-13.2031 14.2031,-12.2031 10.5938,-10.2969 C4,-6.79688 0,-0.90625 0,4.20313 C0,5.59375 0.296875,7 1,8.29688 C2.79688,11.5938 6.59375,13.2969 11.2031,13.2969 C14.5938,13.2969 18.2969,12.4063 21.9063,10.5 C28.5,7 32.5,1.09375 32.5,-4 C32.5,-5.40625 32.2031,-6.79688 31.5,-8.09375"/>
<path class="Note" transform="matrix(1.89921,0,0,1.89921,1927.82,1343.16)" d="M18.7031,-13.5938 C4.90625,-13.5938 0,-6.59375 0,-0.09375 C0,6.40625 4.90625,13.4063 18.7031,13.4063 C32.5,13.4063 37.2969,6.40625 37.2969,-0.09375 C37.2969,-6.59375 32.5,-13.5938 18.7031,-13.5938 M10.4063,-4.5 C10.2969,-4.90625 10.2969,-5.29688 10.2969,-5.70313 C10.2969,-6.5 10.5,-7.29688 10.9063,-8 C11.5938,-9 12.7969,-9.70313 14.2969,-10 C15.5938,-10.2969 16.2969,-10.5 18.9063,-10.5 L19,-10.5 C23,-10.5 24.2969,-6.79688 25.4063,-3 L25.7031,-2 C26.5,0.59375 26.9063,2.79688 26.9063,4.5 C26.9063,5.70313 26.7031,6.79688 26.2969,7.59375 C25.7031,8.70313 24.7031,9.40625 23,9.79688 C22.0938,10 20.5938,10.0938 20.5938,10.0938 C20.0938,10.0938 19.7031,10.2031 19.2969,10.2031 C16.0938,10.2031 14.0938,9 12.7031,4.70313 C11.5,1 11.2969,-0.09375 10.4063,-4.5"/>
<path class="Note" transform="matrix(1.89921,0,0,1.89921,2547.03,1295.68)" d="M31.5,-8.09375 C29.7031,-11.4063 25.9063,-13.2031 21.2969,-13.2031 C17.9063,-13.2031 14.2031,-12.2031 10.5938,-10.2969 C4,-6.79688 0,-0.90625 0,4.20313 C0,5.59375 0.296875,7 1,8.29688 C2.79688,11.5938 6.59375,13.2969 11.2031,13.2969 C14.5938,13.2969 18.2969,12.4063 21.9063,10.5 C28.5,7 32.5,1.09375 32.5,-4 C32.5,-5.40625 32.2031,-6.79688 31.5,-8.09375"/>
<path class="Note" transform="matrix(1.89921,0,0,1.89921,2628.93,1319.42)" d="M31.5,-8.09375 C29.7031,-11.4063 25.9063,-13.2031 21.2969,-13.2031 C17.9063,-13.2031 14.2031,-12.2031 10.5938,-10.2969 C4,-6.79688 0,-0.90625 0,4.20313 C0,5.59375 0.296875,7 1,8.29688 C2.79688,11.5938 6.59375,13.2969 11.2031,13.2969 C14.5938,13.2969 18.2969,12.4063 21.9063,10.5 C28.5,7 32.5,1.09375 32.5,-4 C32.5,-5.40625 32.2031,-6.79688 31.5,-8.09375"/>
<path class="Note" transform="matrix(1.89921,0,0,1.89921,2710.84,1343.16)" d="M31.5,-8.09375 C29.7031,-11.4063 25.9063,-13.2031 21.2969,-13.2031 C17.9063,-13.2031 14.2031,-12.2031 10.5938,-10.2969 C4,-6.79688 0,-0.90625 0,4.20313 C0,5.59375 0.296875,7 1,8.29688 C2.79688,11.5938 6.59375,13.2969 11.2031,13.2969 C14.5938,13.2969 18.2969,12.4063 21.9063,10.5 C28.5,7 32.5,1.09375 32.5,-4 C32.5,-5.40625 32.2031,-6.79688 31.5,-8.09375"/>
<path class="Note" transform="matrix(1.89921,0,0,1.89921,2792.74,1366.9)" d="M31.5,-8.14063 C29.7031,-11.4375 25.9063,-13.2344 21.2969,-13.2344 C17.9063,-13.2344 14.2031,-12.2344 10.5938,-10.3438 C4,-6.84375 0,-0.9375 0,4.15625 C0,5.5625 0.296875,6.96875 1,8.26563 C2.79688,11.5781 6.59375,13.2813 11.2031,13.2813 C14.5938,13.2813 18.2969,12.375 21.9063,10.4844 C28.5,6.96875 32.5,1.0625 32.5,-4.04688 C32.5,-5.4375 32.2031,-6.84375 31.5,-8.14063 M27.2031,-1.34375 C25.5,0.359375 22.0938,2.45313 18.5,4.46875 C14.9063,6.46875 11.2969,7.96875 8.90625,8.46875 C8.40625,8.57813 7.90625,8.67188 7.40625,8.67188 C5.79688,8.67188 4.59375,8.07813 3.90625,6.76563 C3.59375,6.26563 3.40625,5.67188 3.40625,5.0625 C3.40625,3.96875 4.09375,2.65625 5.20313,1.5625 C6.90625,-0.140625 10.2031,-2.23438 13.7969,-4.23438 C17.4063,-6.23438 21,-7.73438 23.4063,-8.23438 C23.9063,-8.34375 24.4063,-8.4375 24.9063,-8.4375 C26.5,-8.4375 27.7969,-7.84375 28.5,-6.54688 C28.7969,-6.04688 28.9063,-5.4375 28.9063,-4.84375 C28.9063,-3.73438 28.2969,-2.54688 27.2031,-1.34375"/>
<path class="Note" transform="matrix(1.89921,0,0,1.89921,3125.1,1295.68)" d="M31.5,-8.09375 C29.7031,-11.4063 25.9063,-13.2031 21.2969,-13.2031 C17.9063,-13.2031 14.2031,-12.2031 10.5938,-10.2969 C4,-6.79688 0,-0.90625 0,4.20313 C0,5.59375 0.296875,7 1,8.29688 C2.79688,11.5938 6.59375,13.2969 11.2031,13.2969 C14.5938,13.2969 18.2969,12.4063 21.9063,10.5 C28.5,7 32.5,1.09375 32.5,-4 C32.5,-5.40625 32.2031,-6.79688 31.5,-8.09375"/>
<path class="Note" transform="matrix(1.89921,0,0,1.89921,3207,1319.42)" d="M31.5,-8.09375 C29.7031,-11.4063 25.9063,-13.2031 21.2969,-13.2031 C17.9063,-13.2031 14.2031,-12.2031 10.5938,-10.2969 C4,-6.79688 0,-0.90625 0,4.20313 C0,5.59375 0.296875,7 1,8.29688 C2.79688,11.5938 6.59375,13.2969 11.2031,13.2969 C14.5938,13.2969 18.2969,12.4063 21.9063,10.5 C28.5,7 32.5,1.09375 32.5,-4 C32.5,-5.40625 32.2031,-6.79688 31.5,-8.09375"/>
<path class="Note" transform="matrix(1.89921,0,0,1.89921,3288.9,1343.16)" d="M31.5,-8.09375 C29.7031,-11.4063 25.9063,-13.2031 21.2969,-13.2031 C17.9063,-13.2031 14.2031,-12.2031 10.5938,-10.2969 C4,-6.79688 0,-0.90625 0,4.20313 C0,5.59375 0.296875,7 1,8.29688 C2.79688,11.5938 6.59375,13.2969 11.2031,13.2969 C14.5938,13.2969 18.2969,12.4063 21.9063,10.5 C28.5,7 32.5,1.09375 32.5,-4 C32.5,-5.40625 32.2031,-6.79688 31.5,-8.09375"/>
<path class="Note" transform="matrix(1.89921,0,0,1.89921,3370.81,1366.9)" d="M31.5,-8.14063 C29.7031,-11.4375 25.9063,-13.2344 21.2969,-13.2344 C17.9063,-13.2344 14.2031,-12.2344 10.5938,-10.3438 C4,-6.84375 0,-0.9375 0,4.15625 C0,5.5625 0.296875,6.96875 1,8.26563 C2.79688,11.5781 6.59375,13.2813 11.2031,13.2813 C14.5938,13.2813 18.2969,12.375 21.9063,10.4844 C28.5,6.96875 32.5,1.0625 32.5,-4.04688 C32.5,-5.4375 32.2031,-6.84375 31.5,-8.14063 M27.2031,-1.34375 C25.5,0.359375 22.0938,2.45313 18.5,4.46875 C14.9063,6.46875 11.2969,7.96875 8.90625,8.46875 C8.40625,8.57813 7.90625,8.67188 7.40625,8.67188 C5.79688,8.67188 4.59375,8.07813 3.90625,6.76563 C3.59375,6.26563 3.40625,5.67188 3.40625,5.0625 C3.40625,3.96875 4.09375,2.65625 5.20313,1.5625 C6.90625,-0.140625 10.2031,-2.23438 13.7969,-4.23438 C17.4063,-6.23438 21,-7.73438 23.4063,-8.23438 C23.9063,-8.34375 24.4063,-8.4375 24.9063,-8.4375 C26.5,-8.4375 27.7969,-7.84375 28.5,-6.54688 C28.7969,-6.04688 28.9063,-5.4375 28.9063,-4.84375 C28.9063,-3.73438 28.2969,-2.54688 27.2031,-1.34375"/>
<path class="Note" transform="matrix(1.89921,0,0,1.89921,3703.17,1295.68)" d="M31.5,-8.09375 C29.7031,-11.4063 25.9063,-13.2031 21.2969,-13.2031 C17.9063,-13.2031 14.2031,-12.2031 10.5938,-10.2969 C4,-6.79688 0,-0.90625 0,4.20313 C0,5.59375 0.296875,7 1,8.29688 C2.79688,11.5938 6.59375,13.2969 11.2031,13.2969 C14.5938,13.2969 18.2969,12.4063 21.9063,10.5 C28.5,7 32.5,1.09375 32.5,-4 C32.5,-5.40625 32.2031,-6.79688 31.5,-8.09375"/>
<path class="Note" transform="matrix(1.89921,0,0,1.89921,3785.07,1319.42)" d="M31.5,-8.09375 C29.7031,-11.4063 25.9063,-13.2031 21.2969,-13.2031 C17.9063,-13.2031 14.2031,-12.2031 10.5938,-10.2969 C4,-6.79688 0,-0.90625 0,4.20313 C0,5.59375 0.296875,7 1,8.29688 C2.79688,11.5938 6.59375,13.2969 11.2031,13.2969 C14.5938,13.2969 18.2969,12.4063 21.9063,10.5 C28.5,7 32.5,1.09375 32.5,-4 C32.5,-5.40625 32.2031,-6.79688 31.5,-8.09375"/>
<path class="Note" transform="matrix(1.89921,0,0,1.89921,3866.97,1343.16)" d="M31.5,-8.09375 C29.7031,-11.4063 25.9063,-13.2031 21.2969,-13.2031 C17.9063,-13.2031 14.2031,-12.2031 10.5938,-10.2969 C4,-6.79688 0,-0.90625 0,4.20313 C0,5.59375 0.296875,7 1,8.29688 C2.79688,11.5938 6.59375,13.2969 11.2031,13.2969 C14.5938,13.2969 18.2969,12.4063 21.9063,10.5 C28.5,7 32.5,1.09375 32.5,-4 C32.5,-5.40625 32.2031,-6.79688 31.5,-8.09375"/>
<path class="Note" transform="matrix(1.89921,0,0,1.89921,3948.87,1366.9)" d="M31.5,-8.14063 C29.7031,-11.4375 25.9063,-13.2344 21.2969,-13.2344 C17.9063,-13.2344 14.2031,-12.2344 10.5938,-10.3438 C4,-6.84375 0,-0.9375 0,4.15625 C0,5.5625 0.296875,6.96875 1,8.26563 C2.79688,11.5781 6.59375,13.2813 11.2031,13.2813 C14.5938,13.2813 18.2969,12.375 21.9063,10.4844 C28.5,6.96875 32.5,1.0625 32.5,-4.04688 C32.5,-5.4375 32.2031,-6.84375 31.5,-8.14063 M27.2031,-1.34375 C25.5,0.359375 22.0938,2.45313 18.5,4.46875 C14.9063,6.46875 11.2969,7.96875 8.90625,8.46875 C8.40625,8.57813 7.90625,8.67188 7.40625,8.67188 C5.79688,8.67188 4.59375,8.07813 3.90625,6.76563 C3.59375,6.26563 3.40625,5.67188 3.40625,5.0625 C3.40625,3.96875 4.09375,2.65625 5.20313,1.5625 C6.90625,-0.140625 10.2031,-2.23438 13.7969,-4.23438 C17.4063,-6.23438 21,-7.73438 23.4063,-8.23438 C23.9063,-8.34375 24.4063,-8.4375 24.9063,-8.4375 C26.5,-8.4375 27.7969,-7.84375 28.5,-6.54688 C28.7969,-6.04688 28.9063,-5.4375 28.9063,-4.84375 C28.9063,-3.73438 28.2969,-2.54688 27.2031,-1.34375"/>
<path class="Note" transform="matrix(1.89921,0,0,1.89921,585.33,2164.39)" d="M31.5,-8.14063 C29.7031,-11.4375 25.9063,-13.2344 21.2969,-13.2344 C17.9063,-13.2344 14.2031,-12.2344 10.5938,-10.3438 C4,-6.84375 0,-0.9375 0,4.15625 C0,5.5625 0.296875,6.96875 1,8.26563 C2.79688,11.5781 6.59375,13.2813 11.2031,13.2813 C14.5938,13.2813 18.2969,12.375 21.9063,10.4844 C28.5,6.96875 32.5,1.0625 32.5,-4.04688 C32.5,-5.4375 32.2031,-6.84375 31.5,-8.14063 M27.2031,-1.34375 C25.5,0.359375 22.0938,2.45313 18.5,4.46875 C14.9063,6.46875 11.2969,7.96875 8.90625,8.46875 C8.40625,8.57813 7.90625,8.67188 7.40625,8.67188 C5.79688,8.67188 4.59375,8.07813 3.90625,6.76563 C3.59375,6.26563 3.40625,5.67188 3.40625,5.0625 C3.40625,3.96875 4.09375,2.65625 5.20313,1.5625 C6.90625,-0.140625 10.2031,-2.23438 13.7969,-4.23438 C17.4063,-6.23438 21,-7.73438 23.4063,-8.23438 C23.9063,-8.34375 24.4063,-8.4375 24.9063,-8.4375 C26.5,-8.4375 27.7969,-7.84375 28.5,-6.54688 C28.7969,-6.04688 28.9063,-5.4375 28.9063,-4.84375 C28.9063,-3.73438 28.2969,-2.54688 27.2031,-1.34375"/>
<path class="Note" transform="matrix(1.89921,0,0,1.89921,700.954,2140.65)" d="M31.5,-8.14063 C29.7031,-11.4375 25.9063,-13.2344 21.2969,-13.2344 C17.9063,-13.2344 14.2031,-12.2344 10.5938,-10.3438 C4,-6.84375 0,-0.9375 0,4.15625 C0,5.5625 0.296875,6.96875 1,8.26563 C2.79688,11.5781 6.59375,13.2813 11.2031,13.2813 C14.5938,13.2813 18.2969,12.375 21.9063,10.4844 C28.5,6.96875 32.5,1.0625 32.5,-4.04688 C32.5,-5.4375 32.2031,-6.84375 31.5,-8.14063 M27.2031,-1.34375 C25.5,0.359375 22.0938,2.45313 18.5,4.46875 C14.9063,6.46875 11.2969,7.96875 8.90625,8.46875 C8.40625,8.57813 7.90625,8.67188 7.40625,8.67188 C5.79688,8.67188 4.59375,8.07813 3.90625,6.76563 C3.59375,6.26563 3.40625,5.67188 3.40625,5.0625 C3.40625,3.96875 4.09375,2.65625 5.20313,1.5625 C6.90625,-0.140625 10.2031,-2.23438 13.7969,-4.23438 C17.4063,-6.23438 21,-7.73438 23.4063,-8.23438 C23.9063,-8.34375 24.4063,-8.4375 24.9063,-8.4375 C26.5,-8.4375 27.7969,-7.84375 28.5,-6.54688 C28.7969,-6.04688 28.9063,-5.4375 28.9063,-4.84375 C28.9063,-3.73438 28.2969,-2.54688 27.2031,-1.34375"/>
<path class="Note" transform="matrix(1.89921,0,0,1.89921,908.718,2164.39)" d="M18.7031,-13.5938 C4.90625,-13.5938 0,-6.59375 0,-0.09375 C0,6.40625 4.90625,13.4063 18.7031,13.4063 C32.5,13.4063 37.2969,6.40625 37.2969,-0.09375 C37.2969,-6.59375 32.5,-13.5938 18.7031,-13.5938 M10.4063,-4.5 C10.2969,-4.90625 10.2969,-5.29688 10.2969,-5.70313 C10.2969,-6.5 10.5,-7.29688 10.9063,-8 C11.5938,-9 12.7969,-9.70313 14.2969,-10 C15.5938,-10.2969 16.2969,-10.5 18.9063,-10.5 L19,-10.5 C23,-10.5 24.2969,-6.79688 25.4063,-3 L25.7031,-2 C26.5,0.59375 26.9063,2.79688 26.9063,4.5 C26.9063,5.70313 26.7031,6.79688 26.2969,7.59375 C25.7031,8.70313 24.7031,9.40625 23,9.79688 C22.0938,10 20.5938,10.0938 20.5938,10.0938 C20.0938,10.0938 19.7031,10.2031 19.2969,10.2031 C16.0938,10.2031 14.0938,9 12.7031,4.70313 C11.5,1 11.2969,-0.09375 10.4063,-4.5"/>
<path class="Note" transform="matrix(1.89921,0,0,1.89921,1521.91,2164.39)" d="M31.5,-8.09375 C29.7031,-11.4063 25.9063,-13.2031 21.2969,-13.2031 C17.9063,-13.2031 14.2031,-12.2031 10.5938,-10.2969 C4,-6.79688 0,-0.90625 0,4.20313 C0,5.59375 0.296875,7 1,8.29688 C2.79688,11.5938 6.59375,13.2969 11.2031,13.2969 C14.5938,13.2969 18.2969,12.4063 21.9063,10.5 C28.5,7 32.5,1.09375 32.5,-4 C32.5,-5.40625 32.2031,-6.79688 31.5,-8.09375"/>
<path class="Note" transform="matrix(1.89921,0,0,1.89921,1603.59,2188.13)" d="M31.5,-8.09375 C29.7031,-11.4063 25.9063,-13.2031 21.2969,-13.2031 C17.9063,-13.2031 14.2031,-12.2031 10.5938,-10.2969 C4,-6.79688 0,-0.90625 0,4.20313 C0,5.59375 0.296875,7 1,8.29688 C2.79688,11.5938 6.59375,13.2969 11.2031,13.2969 C14.5938,13.2969 18.2969,12.4063 21.9063,10.5 C28.5,7 32.5,1.09375 32.5,-4 C32.5,-5.40625 32.2031,-6.79688 31.5,-8.09375"/>
<path class="Note" transform="matrix(1.89921,0,0,1.89921,1685.27,2211.87)" d="M31.5,-8.09375 C29.7031,-11.4063 25.9063,-13.2031 21.2969,-13.2031 C17.9063,-13.2031 14.2031,-12.2031 10.5938,-10.2969 C4,-6.79688 0,-0.90625 0,4.20313 C0,5.59375 0.296875,7 1,8.29688 C2.79688,11.5938 6.59375,13.2969 11.2031,13.2969 C14.5938,13.2969 18.2969,12.4063 21.9063,10.5 C28.5,7 32.5,1.09375 32.5,-4 C32.5,-5.40625 32.2031,-6.79688 31.5,-8.09375"/>
<path class="Note" transform="matrix(1.89921,0,0,1.89921,1766.95,2235.61)" d="M31.5,-8.09375 C29.7031,-11.4063 25.9063,-13.2031 21.2969,-13.2031 C17.9063,-13.2031 14.2031,-12.2031 10.5938,-10.2969 C4,-6.79688 0,-0.90625 0,4.20313 C0,5.59375 0.296875,7 1,8.29688 C2.79688,11.5938 6.59375,13.2969 11.2031,13.2969 C14.5938,13.2969 18.2969,12.4063 21.9063,10.5 C28.5,7 32.5,1.09375 32.5,-4 C32.5,-5.40625 32.2031,-6.79688 31.5,-8.09375"/>
<path class="Note" transform="matrix(1.89921,0,0,1.89921,1897.64,2283.09)" d="M31.5,-8.09375 C29.7031,-11.4063 25.9063,-13.2031 21.2969,-13.2031 C17.9063,-13.2031 14.2031,-12.2031 10.5938,-10.2969 C4,-6.79688 0,-0.90625 0,4.20313 C0,5.59375 0.296875,7 1,8.29688 C2.79688,11.5938 6.59375,13.2969 11.2031,13.2969 C14.5938,13.2969 18.2969,12.4063 21.9063,10.5 C28.5,7 32.5,1.09375 32.5,-4 C32.5,-5.40625 32.2031,-6.79688 31.5,-8.09375"/>
<path class="Note" transform="matrix(1.89921,0,0,1.89921,2182.27,2164.39)" d="M31.5,-8.09375 C29.7031,-11.4063 25.9063,-13.2031 21.2969,-13.2031 C17.9063,-13.2031 14.2031,-12.2031 10.5938,-10.2969 C4,-6.79688 0,-0.90625 0,4.20313 C0,5.59375 0.296875,7 1,8.29688 C2.79688,11.5938 6.59375,13.2969 11.2031,13.2969 C14.5938,13.2969 18.2969,12.4063 21.9063,10.5 C28.5,7 32.5,1.09375 32.5,-4 C32.5,-5.40625 32.2031,-6.79688 31.5,-8.09375"/>
<path class="Note" transform="matrix(1.89921,0,0,1.89921,2263.71,2188.13)" d="M31.5,-8.09375 C29.7031,-11.4063 25.9063,-13.2031 21.2969,-13.2031 C17.9063,-13.2031 14.2031,-12.2031 10.5938,-10.2969 C4,-6.79688 0,-0.90625 0,4.20313 C0,5.59375 0.296875,7 1,8.29688 C2.79688,11.5938 6.59375,13.2969 11.2031,13.2969 C14.5938,13.2969 18.2969,12.4063 21.9063,10.5 C28.5,7 32.5,1.09375 32.5,-4 C32.5,-5.40625 32.2031,-6.79688 31.5,-8.09375"/>
<path class="Note" transform="matrix(1.89921,0,0,1.89921,2345.14,2211.87)" d="M31.5,-8.09375 C29.7031,-11.4063 25.9063,-13.2031 21.2969,-13.2031 C17.9063,-13.2031 14.2031,-12.2031 10.5938,-10.2969 C4,-6.79688 0,-0.90625 0,4.20313 C0,5.59375 0.296875,7 1,8.29688 C2.79688,11.5938 6.59375,13.2969 11.2031,13.2969 C14.5938,13.2969 18.2969,12.4063 21.9063,10.5 C28.5,7 32.5,1.09375 32.5,-4 C32.5,-5.40625 32.2031,-6.79688 31.5,-8.09375"/>
<path class="Note" transform="matrix(1.89921,0,0,1.89921,2426.58,2235.61)" d="M31.5,-8.14063 C29.7031,-11.4375 25.9063,-13.2344 21.2969,-13.2344 C17.9063,-13.2344 14.2031,-12.2344 10.5938,-10.3438 C4,-6.84375 0,-0.9375 0,4.15625 C0,5.5625 0.296875,6.96875 1,8.26563 C2.79688,11.5781 6.59375,13.2813 11.2031,13.2813 C14.5938,13.2813 18.2969,12.375 21.9063,10.4844 C28.5,6.96875 32.5,1.0625 32.5,-4.04688 C32.5,-5.4375 32.2031,-6.84375 31.5,-8.14063 M27.2031,-1.34375 C25.5,0.359375 22.0938,2.45313 18.5,4.46875 C14.9063,6.46875 11.2969,7.96875 8.90625,8.46875 C8.40625,8.57813 7.90625,8.67188 7.40625,8.67188 C5.79688,8.67188 4.59375,8.07813 3.90625,6.76563 C3.59375,6.26563 3.40625,5.67188 3.40625,5.0625 C3.40625,3.96875 4.09375,2.65625 5.20313,1.5625 C6.90625,-0.140625 10.2031,-2.23438 13.7969,-4.23438 C17.4063,-6.23438 21,-7.73438 23.4063,-8.23438 C23.9063,-8.34375 24.4063,-8.4375 24.9063,-8.4375 C26.5,-8.4375 27.7969,-7.84375 28.5,-6.54688 C28.7969,-6.04688 28.9063,-5.4375 28.9063,-4.84375 C28.9063,-3.73438 28.2969,-2.54688 27.2031,-1.34375"/>
<path class="Note" transform="matrix(1.89921,0,0,1.89921,2757.68,2164.39)" d="M31.5,-8.09375 C29.7031,-11.4063 25.9063,-13.2031 21.2969,-13.2031 C17.9063,-13.2031 14.2031,-12.2031 10.5938,-10.2969 C4,-6.79688 0,-0.90625 0,4.20313 C0,5.59375 0.296875,7 1,8.29688 C2.79688,11.5938 6.59375,13.2969 11.2031,13.2969 C14.5938,13.2969 18.2969,12.4063 21.9063,10.5 C28.5,7 32.5,1.09375 32.5,-4 C32.5,-5.40625 32.2031,-6.79688 31.5,-8.09375"/>
<path class="Note" transform="matrix(1.89921,0,0,1.89921,2839.36,2188.13)" d="M31.5,-8.09375 C29.7031,-11.4063 25.9063,-13.2031 21.2969,-13.2031 C17.9063,-13.2031 14.2031,-12.2031 10.5938,-10.2969 C4,-6.79688 0,-0.90625 0,4.20313 C0,5.59375 0.296875,7 1,8.29688 C2.79688,11.5938 6.59375,13.2969 11.2031,13.2969 C14.5938,13.2969 18.2969,12.4063 21.9063,10.5 C28.5,7 32.5,1.09375 32.5,-4 C32.5,-5.40625 32.2031,-6.79688 31.5,-8.09375"/>
<path class="Note" transform="matrix(1.89921,0,0,1.89921,2921.04,2211.87)" d="M31.5,-8.09375 C29.7031,-11.4063 25.9063,-13.2031 21.2969,-13.2031 C17.9063,-13.2031 14.2031,-12.2031 10.5938,-10.2969 C4,-6.79688 0,-0.90625 0,4.20313 C0,5.59375 0.296875,7 1,8.29688 C2.79688,11.5938 6.59375,13.2969 11.2031,13.2969 C14.5938,13.2969 18.2969,12.4063 21.9063,10.5 C28.5,7 32.5,1.09375 32.5,-4 C32.5,-5.40625 32.2031,-6.79688 31.5,-8.09375"/>
<path class="Note" transform="matrix(1.89921,0,0,1.89921,3002.73,2235.61)" d="M31.5,-8.09375 C29.7031,-11.4063 25.9063,-13.2031 21.2969,-13.2031 C17.9063,-13.2031 14.2031,-12.2031 10.5938,-10.2969 C4,-6.79688 0,-0.90625 0,4.20313 C0,5.59375 0.296875,7 1,8.29688 C2.79688,11.5938 6.59375,13.2969 11.2031,13.2969 C14.5938,13.2969 18.2969,12.4063 21.9063,10.5 C28.5,7 32.5,1.09375 32.5,-4 C32.5,-5.40625 32.2031,-6.79688 31.5,-8.09375"/>
<path class="Note" transform="matrix(1.89921,0,0,1.89921,3133.41,2283.09)" d="M31.5,-8.09375 C29.7031,-11.4063 25.9063,-13.2031 21.2969,-13.2031 C17.9063,-13.2031 14.2031,-12.2031 10.5938,-10.2969 C4,-6.79688 0,-0.90625 0,4.20313 C0,5.59375 0.296875,7 1,8.29688 C2.79688,11.5938 6.59375,13.2969 11.2031,13.2969 C14.5938,13.2969 18.2969,12.4063 21.9063,10.5 C28.5,7 32.5,1.09375 32.5,-4 C32.5,-5.40625 32.2031,-6.79688 31.5,-8.09375"/>
<path class="Note" transform="matrix(1.89921,0,0,1.89921,3336.62,2164.39)" d="M31.5,-8.14063 C29.7031,-11.4375 25.9063,-13.2344 21.2969,-13.2344 C17.9063,-13.2344 14.2031,-12.2344 10.5938,-10.3438 C4,-6.84375 0,-0.9375 0,4.15625 C0,5.5625 0.296875,6.96875 1,8.26563 C2.79688,11.5781 6.59375,13.2813 11.2031,13.2813 C14.5938,13.2813 18.2969,12.375 21.9063,10.4844 C28.5,6.96875 32.5,1.0625 32.5,-4.04688 C32.5,-5.4375 32.2031,-6.84375 31.5,-8.14063 M27.2031,-1.34375 C25.5,0.359375 22.0938,2.45313 18.5,4.46875 C14.9063,6.46875 11.2969,7.96875 8.90625,8.46875 C8.40625,8.57813 7.90625,8.67188 7.40625,8.67188 C5.79688,8.67188 4.59375,8.07813 3.90625,6.76563 C3.59375,6.26563 3.40625,5.67188 3.40625,5.0625 C3.40625,3.96875 4.09375,2.65625 5.20313,1.5625 C6.90625,-0.140625 10.2031,-2.23438 13.7969,-4.23438 C17.4063,-6.23438 21,-7.73438 23.4063,-8.23438 C23.9063,-8.34375 24.4063,-8.4375 24.9063,-8.4375 C26.5,-8.4375 27.7969,-7.84375 28.5,-6.54688 C28.7969,-6.04688 28.9063,-5.4375 28.9063,-4.84375 C28.9063,-3.73438 28.2969,-2.54688 27.2031,-1.34375"/>
<path class="Note" transform="matrix(1.89921,0,0,1.89921,3452.24,2140.65)" d="M31.5,-8.14063 C29.7031,-11.4375 25.9063,-13.2344 21.2969,-13.2344 C17.9063,-13.2344 14.2031,-12.2344 10.5938,-10.3438 C4,-6.84375 0,-0.9375 0,4.15625 C0,5.5625 0.296875,6.96875 1,8.26563 C2.79688,11.5781 6.59375,13.2813 11.2031,13.2813 C14.5938,13.2813 18.2969,12.375 21.9063,10.4844 C28.5,6.96875 32.5,1.0625 32.5,-4.04688 C32.5,-5.4375 32.2031,-6.84375 31.5,-8.14063 M27.2031,-1.34375 C25.5,0.359375 22.0938,2.45313 18.5,4.46875 C14.9063,6.46875 11.2969,7.96875 8.90625,8.46875 C8.40625,8.57813 7.90625,8.67188 7.40625,8.67188 C5.79688,8.67188 4.59375,8.07813 3.90625,6.76563 C3.59375,6.26563 3.40625,5.67188 3.40625,5.0625 C3.40625,3.96875 4.09375,2.65625 5.20313,1.5625 C6.90625,-0.140625 10.2031,-2.23438 13.7969,-4.23438 C17.4063,-6.23438 21,-7.73438 23.4063,-8.23438 C23.9063,-8.34375 24.4063,-8.4375 24.9063,-8.4375 C26.5,-8.4375 27.7969,-7.84375 28.5,-6.54688 C28.7969,-6.04688 28.9063,-5.4375 28.9063,-4.84375 C28.9063,-3.73438 28.2969,-2.54688 27.2031,-1.34375"/>
<path class="Note" transform="matrix(1.89921,0,0,1.89921,3660,2164.39)" d="M18.7031,-13.5938 C4.90625,-13.5938 0,-6.59375 0,-0.09375 C0,6.40625 4.90625,13.4063 18.7031,13.4063 C32.5,13.4063 37.2969,6.40625 37.2969,-0.09375 C37.2969,-6.59375 32.5,-13.5938 18.7031,-13.5938 M10.4063,-4.5 C10.2969,-4.90625 10.2969,-5.29688 10.2969,-5.70313 C10.2969,-6.5 10.5,-7.29688 10.9063,-8 C11.5938,-9 12.7969,-9.70313 14.2969,-10 C15.5938,-10.2969 16.2969,-10.5 18.9063,-10.5 L19,-10.5 C23,-10.5 24.2969,-6.79688 25.4063,-3 L25.7031,-2 C26.5,0.59375 26.9063,2.79688 26.9063,4.5 C26.9063,5.70313 26.7031,6.79688 26.2969,7.59375 C25.7031,8.70313 24.7031,9.40625 23,9.79688 C22.0938,10 20.5938,10.0938 20.5938,10.0938 C20.0938,10.0938 19.7031,10.2031 19.2969,10.2031 C16.0938,10.2031 14.0938,9 12.7031,4.70313 C11.5,1 11.2969,-0.09375 10.4063,-4.5"/>
<path class="Clef" transform="matrix(1.89921,0,0,1.89921,108.85,545.669)" d="M63.3594,-5.92188 C62.125,-11.3438 59.4844,-15.1719 58.7031,-16.2031 C55.5156,-20.4844 51.5,-23.3281 46.8125,-24.6875 C43.7031,-25.5625 40.7031,-25.6875 38.2813,-25.5 C37.2344,-31.5156 36.2344,-37.3906 35.3281,-42.8438 C40.7813,-49.0156 44.4063,-54.8125 46.6875,-59.1094 C50.1563,-65.6875 51.2969,-70.2656 51.3594,-70.4688 C53.0781,-75.6875 53.4375,-83.3906 52.3281,-91.5938 C51.3281,-99.1406 49.2344,-105.859 46.875,-109.109 C45.8594,-110.531 44.7969,-111.266 43.7656,-111.266 C42.5469,-111.266 40.0313,-110.031 37.1406,-107.25 C34.8438,-105.063 31.5781,-101.172 29.0156,-95.1563 C26.0156,-88.0938 25.7969,-78.6094 26.1563,-71.8906 C26.5313,-64.6094 27.6406,-58.9219 27.6563,-58.875 C27.6719,-58.7813 27.9375,-57.2813 28.375,-54.7188 C28.1563,-54.4844 27.9063,-54.2656 27.6563,-54.0156 C26.625,-53.0156 25.4375,-51.8906 24.0469,-50.5 C23.1875,-49.6406 22.2344,-48.7344 21.2344,-47.7656 C12.7969,-39.625 0,-27.2969 0,-8.14063 C0,-3.4375 0.90625,0.984375 2.6875,5 C4.26563,8.59375 6.5625,11.875 9.5,14.75 C17.2344,22.3125 27.8281,25.5156 34.875,25.3594 C37.8281,25.2813 40.4688,25.0469 42.8594,24.5938 C44.6875,34.2031 45.8281,41.2344 45.8594,46.5781 C45.9063,53.0938 44.25,57.0781 40.3594,59.8438 C37.9219,61.5781 35.1094,62.5313 32.0156,62.6719 C29.4219,62.7969 27.1563,62.3281 25.7344,61.9219 L25.7188,61.9219 C25.7188,61.9219 25.4375,61.8281 25.4219,61.6406 C25.4063,61.4531 25.7656,61.4063 25.7656,61.4063 L25.7969,61.4063 C27.7188,60.9688 31.2813,59.7344 33.6406,56.4375 C35.4375,53.9063 36.3125,49.2813 34.4688,45.3438 C33.3594,42.9531 30.8594,40 25.2344,39.5469 C22.7344,39.3438 20.4688,39.8594 18.4688,41.0625 C16.6563,42.1406 15.1563,43.7813 14.1094,45.7813 C11.6563,50.4844 12.1094,56.2188 15.2344,60.0625 C18.2031,63.6875 22.8125,66 28.25,66.5781 C29.1094,66.6719 29.9531,66.7031 30.7969,66.7031 C35.2344,66.7031 39.625,65.5 43.2031,63.2969 C46.8594,60.7188 48.9844,56.7344 49.6563,51.1094 C50.2188,46.4688 49.8281,40.5469 48.4375,32.4688 C48.0781,30.375 47.5313,27.3438 46.875,23.5938 C52.625,21.6719 56.7813,18.0938 60.5469,12.2344 C63.8438,6.5 64.7813,0.390625 63.3594,-5.92188 M29.1406,20.2969 C24.5,19.0781 20.0625,16.5781 16.3125,13.0625 C15,11.8438 13.125,9.67188 11.6563,6.28125 C10.2969,3.10938 9.625,-0.328125 9.6875,-3.90625 C9.75,-8.60938 11.0625,-13.4375 13.5625,-18.2188 C16.4844,-23.7969 21.0469,-29.3281 27.1094,-34.6563 C28.5625,-35.9375 29.9375,-37.2188 31.2188,-38.5 C31.9844,-34.2344 32.8125,-29.5469 33.6875,-24.6719 C29.8438,-23.4063 25.0938,-20.25 21.9844,-14.5938 C18.4375,-8.03125 18.5781,-2.5 19.3125,0.984375 C20.25,5.4375 22.7813,9.20313 26.2344,11.2969 C27.1719,11.8594 31.2969,13.9844 33.1406,13.4063 C33.5156,13.2969 33.7813,13.0625 33.9219,12.7344 C34.4375,11.5625 33.4063,10.9219 31.8594,9.96875 C31.25,9.59375 30.5781,9.17188 29.8594,8.64063 C26.5313,6.15625 25.0781,1.70313 26.1563,-2.6875 C26.7344,-5.07813 28.0156,-7.25 29.8594,-8.95313 C31.5156,-10.5 33.5625,-11.5938 35.9375,-12.2344 C37.9844,-0.984375 40.0469,10.1719 41.6875,18.5313 C41.8125,19.2188 41.9531,19.8906 42.0781,20.5625 C37.7031,21.5 33.3594,21.4063 29.1406,20.2969 M40.4688,-12.9063 C50.8125,-13.375 55.0781,-5.9375 55.9688,-1.10938 C56.4375,1.4375 56.4375,5.875 54.8906,10.0938 C53.7188,13.2656 51.2656,17.3438 46.125,19.4063 C46.0625,18.9844 45.9844,18.5469 45.9063,18.125 C44.3594,9.34375 42.4219,-1.65625 40.4688,-12.9063 M33.1406,-83.8594 C34.9219,-89.5938 37.6563,-92.8438 39.6563,-94.5781 C41.4063,-96.0938 43.0469,-96.8125 43.9688,-96.8125 C44.1094,-96.8125 44.2344,-96.7813 44.3281,-96.75 C44.7969,-96.6094 45.3281,-96.0469 45.7969,-95.1719 C48.1094,-90.8906 47.3594,-84.1719 46.0156,-79.7344 C44.3906,-74.3281 41.4688,-68.7188 32.6719,-59.1094 C32.5,-60.2188 32.3438,-61.2656 32.1875,-62.25 C30.9375,-70.5313 31.2656,-77.8125 33.1406,-83.8594"/>
<path class="Clef" transform="matrix(1.89921,0,0,1.89921,108.85,1414.38)" d="M63.3594,-5.92188 C62.125,-11.3438 59.4844,-15.1719 58.7031,-16.2031 C55.5156,-20.4844 51.5,-23.3281 46.8125,-24.6875 C43.7031,-25.5625 40.7031,-25.6875 38.2813,-25.5 C37.2344,-31.5156 36.2344,-37.3906 35.3281,-42.8438 C40.7813,-49.0156 44.4063,-54.8125 46.6875,-59.1094 C50.1563,-65.6875 51.2969,-70.2656 51.3594,-70.4688 C53.0781,-75.6875 53.4375,-83.3906 52.3281,-91.5938 C51.3281,-99.1406 49.2344,-105.859 46.875,-109.109 C45.8594,-110.531 44.7969,-111.266 43.7656,-111.266 C42.5469,-111.266 40.0313,-110.031 37.1406,-107.25 C34.8438,-105.063 31.5781,-101.172 29.0156,-95.1563 C26.0156,-88.0938 25.7969,-78.6094 26.1563,-71.8906 C26.5313,-64.6094 27.6406,-58.9219 27.6563,-58.875 C27.6719,-58.7813 27.9375,-57.2813 28.375,-54.7188 C28.1563,-54.4844 27.9063,-54.2656 27.6563,-54.0156 C26.625,-53.0156 25.4375,-51.8906 24.0469,-50.5 C23.1875,-49.6406 22.2344,-48.7344 21.2344,-47.7656 C12.7969,-39.625 0,-27.2969 0,-8.14063 C0,-3.4375 0.90625,0.984375 2.6875,5 C4.26563,8.59375 6.5625,11.875 9.5,14.75 C17.2344,22.3125 27.8281,25.5156 34.875,25.3594 C37.8281,25.2813 40.4688,25.0469 42.8594,24.5938 C44.6875,34.2031 45.8281,41.2344 45.8594,46.5781 C45.9063,53.0938 44.25,57.0781 40.3594,59.8438 C37.9219,61.5781 35.1094,62.5313 32.0156,62.6719 C29.4219,62.7969 27.1563,62.3281 25.7344,61.9219 L25.7188,61.9219 C25.7188,61.9219 25.4375,61.8281 25.4219,61.6406 C25.4063,61.4531 25.7656,61.4063 25.7656,61.4063 L25.7969,61.4063 C27.7188,60.9688 31.2813,59.7344 33.6406,56.4375 C35.4375,53.9063 36.3125,49.2813 34.4688,45.3438 C33.3594,42.9531 30.8594,40 25.2344,39.5469 C22.7344,39.3438 20.4688,39.8594 18.4688,41.0625 C16.6563,42.1406 15.1563,43.7813 14.1094,45.7813 C11.6563,50.4844 12.1094,56.2188 15.2344,60.0625 C18.2031,63.6875 22.8125,66 28.25,66.5781 C29.1094,66.6719 29.9531,66.7031 30.7969,66.7031 C35.2344,66.7031 39.625,65.5 43.2031,63.2969 C46.8594,60.7188 48.9844,56.7344 49.6563,51.1094 C50.2188,46.4688 49.8281,40.5469 48.4375,32.4688 C48.0781,30.375 47.5313,27.3438 46.875,23.5938 C52.625,21.6719 56.7813,18.0938 60.5469,12.2344 C63.8438,6.5 64.7813,0.390625 63.3594,-5.92188 M29.1406,20.2969 C24.5,19.0781 20.0625,16.5781 16.3125,13.0625 C15,11.8438 13.125,9.67188 11.6563,6.28125 C10.2969,3.10938 9.625,-0.328125 9.6875,-3.90625 C9.75,-8.60938 11.0625,-13.4375 13.5625,-18.2188 C16.4844,-23.7969 21.0469,-29.3281 27.1094,-34.6563 C28.5625,-35.9375 29.9375,-37.2188 31.2188,-38.5 C31.9844,-34.2344 32.8125,-29.5469 33.6875,-24.6719 C29.8438,-23.4063 25.0938,-20.25 21.9844,-14.5938 C18.4375,-8.03125 18.5781,-2.5 19.3125,0.984375 C20.25,5.4375 22.7813,9.20313 26.2344,11.2969 C27.1719,11.8594 31.2969,13.9844 33.1406,13.4063 C33.5156,13.2969 33.7813,13.0625 33.9219,12.7344 C34.4375,11.5625 33.4063,10.9219 31.8594,9.96875 C31.25,9.59375 30.5781,9.17188 29.8594,8.64063 C26.5313,6.15625 25.0781,1.70313 26.1563,-2.6875 C26.7344,-5.07813 28.0156,-7.25 29.8594,-8.95313 C31.5156,-10.5 33.5625,-11.5938 35.9375,-12.2344 C37.9844,-0.984375 40.0469,10.1719 41.6875,18.5313 C41.8125,19.2188 41.9531,19.8906 42.0781,20.5625 C37.7031,21.5 33.3594,21.4063 29.1406,20.2969 M40.4688,-12.9063 C50.8125,-13.375 55.0781,-5.9375 55.9688,-1.10938 C56.4375,1.4375 56.4375,5.875 54.8906,10.0938 C53.7188,13.2656 51.2656,17.3438 46.125,19.4063 C46.0625,18.9844 45.9844,18.5469 45.9063,18.125 C44.3594,9.34375 42.4219,-1.65625 40.4688,-12.9063 M33.1406,-83.8594 C34.9219,-89.5938 37.6563,-92.8438 39.6563,-94.5781 C41.4063,-96.0938 43.0469,-96.8125 43.9688,-96.8125 C44.1094,-96.8125 44.2344,-96.7813 44.3281,-96.75 C44.7969,-96.6094 45.3281,-96.0469 45.7969,-95.1719 C48.1094,-90.8906 47.3594,-84.1719 46.0156,-79.7344 C44.3906,-74.3281 41.4688,-68.7188 32.6719,-59.1094 C32.5,-60.2188 32.3438,-61.2656 32.1875,-62.25 C30.9375,-70.5313 31.2656,-77.8125 33.1406,-83.8594"/>
<path class="Clef" transform="matrix(1.89921,0,0,1.89921,108.85,2283.09)" d="M63.3594,-5.92188 C62.125,-11.3438 59.4844,-15.1719 58.7031,-16.2031 C55.5156,-20.4844 51.5,-23.3281 46.8125,-24.6875 C43.7031,-25.5625 40.7031,-25.6875 38.2813,-25.5 C37.2344,-31.5156 36.2344,-37.3906 35.3281,-42.8438 C40.7813,-49.0156 44.4063,-54.8125 46.6875,-59.1094 C50.1563,-65.6875 51.2969,-70.2656 51.3594,-70.4688 C53.0781,-75.6875 53.4375,-83.3906 52.3281,-91.5938 C51.3281,-99.1406 49.2344,-105.859 46.875,-109.109 C45.8594,-110.531 44.7969,-111.266 43.7656,-111.266 C42.5469,-111.266 40.0313,-110.031 37.1406,-107.25 C34.8438,-105.063 31.5781,-101.172 29.0156,-95.1563 C26.0156,-88.0938 25.7969,-78.6094 26.1563,-71.8906 C26.5313,-64.6094 27.6406,-58.9219 27.6563,-58.875 C27.6719,-58.7813 27.9375,-57.2813 28.375,-54.7188 C28.1563,-54.4844 27.9063,-54.2656 27.6563,-54.0156 C26.625,-53.0156 25.4375,-51.8906 24.0469,-50.5 C23.1875,-49.6406 22.2344,-48.7344 21.2344,-47.7656 C12.7969,-39.625 0,-27.2969 0,-8.14063 C0,-3.4375 0.90625,0.984375 2.6875,5 C4.26563,8.59375 6.5625,11.875 9.5,14.75 C17.2344,22.3125 27.8281,25.5156 34.875,25.3594 C37.8281,25.2813 40.4688,25.0469 42.8594,24.5938 C44.6875,34.2031 45.8281,41.2344 45.8594,46.5781 C45.9063,53.0938 44.25,57.0781 40.3594,59.8438 C37.9219,61.5781 35.1094,62.5313 32.0156,62.6719 C29.4219,62.7969 27.1563,62.3281 25.7344,61.9219 L25.7188,61.9219 C25.7188,61.9219 25.4375,61.8281 25.4219,61.6406 C25.4063,61.4531 25.7656,61.4063 25.7656,61.4063 L25.7969,61.4063 C27.7188,60.9688 31.2813,59.7344 33.6406,56.4375 C35.4375,53.9063 36.3125,49.2813 34.4688,45.3438 C33.3594,42.9531 30.8594,40 25.2344,39.5469 C22.7344,39.3438 20.4688,39.8594 18.4688,41.0625 C16.6563,42.1406 15.1563,43.7813 14.1094,45.7813 C11.6563,50.4844 12.1094,56.2188 15.2344,60.0625 C18.2031,63.6875 22.8125,66 28.25,66.5781 C29.1094,66.6719 29.9531,66.7031 30.7969,66.7031 C35.2344,66.7031 39.625,65.5 43.2031,63.2969 C46.8594,60.7188 48.9844,56.7344 49.6563,51.1094 C50.2188,46.4688 49.8281,40.5469 48.4375,32.4688 C48.0781,30.375 47.5313,27.3438 46.875,23.5938 C52.625,21.6719 56.7813,18.0938 60.5469,12.2344 C63.8438,6.5 64.7813,0.390625 63.3594,-5.92188 M29.1406,20.2969 C24.5,19.0781 20.0625,16.5781 16.3125,13.0625 C15,11.8438 13.125,9.67188 11.6563,6.28125 C10.2969,3.10938 9.625,-0.328125 9.6875,-3.90625 C9.75,-8.60938 11.0625,-13.4375 13.5625,-18.2188 C16.4844,-23.7969 21.0469,-29.3281 27.1094,-34.6563 C28.5625,-35.9375 29.9375,-37.2188 31.2188,-38.5 C31.9844,-34.2344 32.8125,-29.5469 33.6875,-24.6719 C29.8438,-23.4063 25.0938,-20.25 21.9844,-14.5938 C18.4375,-8.03125 18.5781,-2.5 19.3125,0.984375 C20.25,5.4375 22.7813,9.20313 26.2344,11.2969 C27.1719,11.8594 31.2969,13.9844 33.1406,13.4063 C33.5156,13.2969 33.7813,13.0625 33.9219,12.7344 C34.4375,11.5625 33.4063,10.9219 31.8594,9.96875 C31.25,9.59375 30.5781,9.17188 29.8594,8.64063 C26.5313,6.15625 25.0781,1.70313 26.1563,-2.6875 C26.7344,-5.07813 28.0156,-7.25 29.8594,-8.95313 C31.5156,-10.5 33.5625,-11.5938 35.9375,-12.2344 C37.9844,-0.984375 40.0469,10.1719 41.6875,18.5313 C41.8125,19.2188 41.9531,19.8906 42.0781,20.5625 C37.7031,21.5 33.3594,21.4063 29.1406,20.2969 M40.4688,-12.9063 C50.8125,-13.375 55.0781,-5.9375 55.9688,-1.10938 C56.4375,1.4375 56.4375,5.875 54.8906,10.0938 C53.7188,13.2656 51.2656,17.3438 46.125,19.4063 C46.0625,18.9844 45.9844,18.5469 45.9063,18.125 C44.3594,9.34375 42.4219,-1.65625 40.4688,-12.9063 M33.1406,-83.8594 C34.9219,-89.5938 37.6563,-92.8438 39.6563,-94.5781 C41.4063,-96.0938 43.0469,-96.8125 43.9688,-96.8125 C44.1094,-96.8125 44.2344,-96.7813 44.3281,-96.75 C44.7969,-96.6094 45.3281,-96.0469 45.7969,-95.1719 C48.1094,-90.8906 47.3594,-84.1719 46.0156,-79.7344 C44.3906,-74.3281 41.4688,-68.7188 32.6719,-59.1094 C32.5,-60.2188 32.3438,-61.2656 32.1875,-62.25 C30.9375,-70.5313 31.2656,-77.8125 33.1406,-83.8594"/>
<path class="KeySig" transform="matrix(1.89921,0,0,1.89921,420.291,450.709)" d="M23.2969,-10.5938 C23.9063,-10.7031 24.4063,-11.4063 24.4063,-12 L24.4063,-17.9063 C24.4063,-18.7031 23.7969,-19.2969 23,-19.2969 L22.7969,-19.2969 L19.5,-18.5938 L19.5,-33.5 L16.7031,-33.5 L16.7031,-18 L7.79688,-16.2031 L7.79688,-30.2969 L5,-30.2969 L5,-15.5938 L1.09375,-14.7969 C0.5,-14.7031 0,-14 0,-13.4063 L0,-13.2031 L0,-7.40625 L0,-7.59375 C0,-6.79688 0.59375,-6.20313 1.40625,-6.20313 L1.70313,-6.20313 L5,-6.90625 L5,9.59375 L1.09375,10.4063 C0.5,10.5 0,11.2031 0,11.7969 L0,17.5938 C0,18.4063 0.59375,19 1.40625,19 L1.70313,19 L5,18.2969 L5,33.2031 L7.79688,33.2031 L7.79688,17.7031 L16.7031,15.9063 L16.7031,30 L19.5,30 L19.5,15.2969 L23.2969,14.5938 C23.9063,14.5 24.4063,13.7969 24.4063,13.2031 L24.4063,7.29688 C24.4063,6.5 23.7969,5.90625 23,5.90625 L22.7969,5.90625 L19.5,6.59375 L19.5,-9.90625 L23.2969,-10.5938 M7.79688,9.09375 L7.79688,-7.5 L16.7031,-9.29688 L16.7031,7.20313 L7.79688,9.09375 "/>
<path class="KeySig" transform="matrix(1.89921,0,0,1.89921,372.811,379.488)" d="M23.2969,-10.5938 C23.9063,-10.7031 24.4063,-11.4063 24.4063,-12 L24.4063,-17.9063 C24.4063,-18.7031 23.7969,-19.2969 23,-19.2969 L22.7969,-19.2969 L19.5,-18.5938 L19.5,-33.5 L16.7031,-33.5 L16.7031,-18 L7.79688,-16.2031 L7.79688,-30.2969 L5,-30.2969 L5,-15.5938 L1.09375,-14.7969 C0.5,-14.7031 0,-14 0,-13.4063 L0,-13.2031 L0,-7.40625 L0,-7.59375 C0,-6.79688 0.59375,-6.20313 1.40625,-6.20313 L1.70313,-6.20313 L5,-6.90625 L5,9.59375 L1.09375,10.4063 C0.5,10.5 0,11.2031 0,11.7969 L0,17.5938 C0,18.4063 0.59375,19 1.40625,19 L1.70313,19 L5,18.2969 L5,33.2031 L7.79688,33.2031 L7.79688,17.7031 L16.7031,15.9063 L16.7031,30 L19.5,30 L19.5,15.2969 L23.2969,14.5938 C23.9063,14.5 24.4063,13.7969 24.4063,13.2031 L24.4063,7.29688 C24.4063,6.5 23.7969,5.90625 23,5.90625 L22.7969,5.90625 L19.5,6.59375 L19.5,-9.90625 L23.2969,-10.5938 M7.79688,9.09375 L7.79688,-7.5 L16.7031,-9.29688 L16.7031,7.20313 L7.79688,9.09375 "/>
<path class="KeySig" transform="matrix(1.89921,0,0,1.89921,325.331,474.449)" d="M23.2969,-10.5938 C23.9063,-10.7031 24.4063,-11.4063 24.4063,-12 L24.4063,-17.9063 C24.4063,-18.7031 23.7969,-19.2969 23,-19.2969 L22.7969,-19.2969 L19.5,-18.5938 L19.5,-33.5 L16.7031,-33.5 L16.7031,-18 L7.79688,-16.2031 L7.79688,-30.2969 L5,-30.2969 L5,-15.5938 L1.09375,-14.7969 C0.5,-14.7031 0,-14 0,-13.4063 L0,-13.2031 L0,-7.40625 L0,-7.59375 C0,-6.79688 0.59375,-6.20313 1.40625,-6.20313 L1.70313,-6.20313 L5,-6.90625 L5,9.59375 L1.09375,10.4063 C0.5,10.5 0,11.2031 0,11.7969 L0,17.5938 C0,18.4063 0.59375,19 1.40625,19 L1.70313,19 L5,18.2969 L5,33.2031 L7.79688,33.2031 L7.79688,17.7031 L16.7031,15.9063 L16.7031,30 L19.5,30 L19.5,15.2969 L23.2969,14.5938 C23.9063,14.5 24.4063,13.7969 24.4063,13.2031 L24.4063,7.29688 C24.4063,6.5 23.7969,5.90625 23,5.90625 L22.7969,5.90625 L19.5,6.59375 L19.5,-9.90625 L23.2969,-10.5938 M7.79688,9.09375 L7.79688,-7.5 L16.7031,-9.29688 L16.7031,7.20313 L7.79688,9.09375 "/>
<path class="KeySig" transform="matrix(1.89921,0,0,1.89921,277.85,403.228)" d="M23.2969,-10.5938 C23.9063,-10.7031 24.4063,-11.4063 24.4063,-12 L24.4063,-17.9063 C24.4063,-18.7031 23.7969,-19.2969 23,-19.2969 L22.7969,-19.2969 L19.5,-18.5938 L19.5,-33.5 L16.7031,-33.5 L16.7031,-18 L7.79688,-16.2031 L7.79688,-30.2969 L5,-30.2969 L5,-15.5938 L1.09375,-14.7969 C0.5,-14.7031 0,-14 0,-13.4063 L0,-13.2031 L0,-7.40625 L0,-7.59375 C0,-6.79688 0.59375,-6.20313 1.40625,-6.20313 L1.70313,-6.20313 L5,-6.90625 L5,9.59375 L1.09375,10.4063 C0.5,10.5 0,11.2031 0,11.7969 L0,17.5938 C0,18.4063 0.59375,19 1.40625,19 L1.70313,19 L5,18.2969 L5,33.2031 L7.79688,33.2031 L7.79688,17.7031 L16.7031,15.9063 L16.7031,30 L19.5,30 L19.5,15.2969 L23.2969,14.5938 C23.9063,14.5 24.4063,13.7969 24.4063,13.2031 L24.4063,7.29688 C24.4063,6.5 23.7969,5.90625 23,5.90625 L22.7969,5.90625 L19.5,6.59375 L19.5,-9.90625 L23.2969,-10.5938 M7.79688,9.09375 L7.79688,-7.5 L16.7031,-9.29688 L16.7031,7.20313 L7.79688,9.09375 "/>
<path class="KeySig" transform="matrix(1.89921,0,0,1.89921,420.291,1319.42)" d="M23.2969,-10.5938 C23.9063,-10.7031 24.4063,-11.4063 24.4063,-12 L24.4063,-17.9063 C24.4063,-18.7031 23.7969,-19.2969 23,-19.2969 L22.7969,-19.2969 L19.5,-18.5938 L19.5,-33.5 L16.7031,-33.5 L16.7031,-18 L7.79688,-16.2031 L7.79688,-30.2969 L5,-30.2969 L5,-15.5938 L1.09375,-14.7969 C0.5,-14.7031 0,-14 0,-13.4063 L0,-13.2031 L0,-7.40625 L0,-7.59375 C0,-6.79688 0.59375,-6.20313 1.40625,-6.20313 L1.70313,-6.20313 L5,-6.90625 L5,9.59375 L1.09375,10.4063 C0.5,10.5 0,11.2031 0,11.7969 L0,17.5938 C0,18.4063 0.59375,19 1.40625,19 L1.70313,19 L5,18.2969 L5,33.2031 L7.79688,33.2031 L7.79688,17.7031 L16.7031,15.9063 L16.7031,30 L19.5,30 L19.5,15.2969 L23.2969,14.5938 C23.9063,14.5 24.4063,13.7969 24.4063,13.2031 L24.4063,7.29688 C24.4063,6.5 23.7969,5.90625 23,5.90625 L22.7969,5.90625 L19.5,6.59375 L19.5,-9.90625 L23.2969,-10.5938 M7.79688,9.09375 L7.79688,-7.5 L16.7031,-9.29688 L16.7031,7.20313 L7.79688,9.09375 "/>
<path class="KeySig" transform="matrix(1.89921,0,0,1.89921,372.811,1248.2)" d="M23.2969,-10.5938 C23.9063,-10.7031 24.4063,-11.4063 24.4063,-12 L24.4063,-17.9063 C24.4063,-18.7031 23.7969,-19.2969 23,-19.2969 L22.7969,-19.2969 L19.5,-18.5938 L19.5,-33.5 L16.7031,-33.5 L16.7031,-18 L7.79688,-16.2031 L7.79688,-30.2969 L5,-30.2969 L5,-15.5938 L1.09375,-14.7969 C0.5,-14.7031 0,-14 0,-13.4063 L0,-13.2031 L0,-7.40625 L0,-7.59375 C0,-6.79688 0.59375,-6.20313 1.40625,-6.20313 L1.70313,-6.20313 L5,-6.90625 L5,9.59375 L1.09375,10.4063 C0.5,10.5 0,11.2031 0,11.7969 L0,17.5938 C0,18.4063 0.59375,19 1.40625,19 L1.70313,19 L5,18.2969 L5,33.2031 L7.79688,33.2031 L7.79688,17.7031 L16.7031,15.9063 L16.7031,30 L19.5,30 L19.5,15.2969 L23.2969,14.5938 C23.9063,14.5 24.4063,13.7969 24.4063,13.2031 L24.4063,7.29688 C24.4063,6.5 23.7969,5.90625 23,5.90625 L22.7969,5.90625 L19.5,6.59375 L19.5,-9.90625 L23.2969,-10.5938 M7.79688,9.09375 L7.79688,-7.5 L16.7031,-9.29688 L16.7031,7.20313 L7.79688,9.09375 "/>
<path class="KeySig" transform="matrix(1.89921,0,0,1.89921,325.331,1343.16)" d="M23.2969,-10.5938 C23.9063,-10.7031 24.4063,-11.4063 24.4063,-12 L24.4063,-17.9063 C24.4063,-18.7031 23.7969,-19.2969 23,-19.2969 L22.7969,-19.2969 L19.5,-18.5938 L19.5,-33.5 L16.7031,-33.5 L16.7031,-18 L7.79688,-16.2031 L7.79688,-30.2969 L5,-30.2969 L5,-15.5938 L1.09375,-14.7969 C0.5,-14.7031 0,-14 0,-13.4063 L0,-13.2031 L0,-7.40625 L0,-7.59375 C0,-6.79688 0.59375,-6.20313 1.40625,-6.20313 L1.70313,-6.20313 L5,-6.90625 L5,9.59375 L1.09375,10.4063 C0.5,10.5 0,11.2031 0,11.7969 L0,17.5938 C0,18.4063 0.59375,19 1.40625,19 L1.70313,19 L5,18.2969 L5,33.2031 L7.79688,33.2031 L7.79688,17.7031 L16.7031,15.9063 L16.7031,30 L19.5,30 L19.5,15.2969 L23.2969,14.5938 C23.9063,14.5 24.4063,13.7969 24.4063,13.2031 L24.4063,7.29688 C24.4063,6.5 23.7969,5.90625 23,5.90625 L22.7969,5.90625 L19.5,6.59375 L19.5,-9.90625 L23.2969,-10.5938 M7.79688,9.09375 L7.79688,-7.5 L16.7031,-9.29688 L16.7031,7.20313 L7.79688,9.09375 "/>
<path class="KeySig" transform="matrix(1.89921,0,0,1.89921,277.85,1271.94)" d="M23.2969,-10.5938 C23.9063,-10.7031 24.4063,-11.4063 24.4063,-12 L24.4063,-17.9063 C24.4063,-18.7031 23.7969,-19.2969 23,-19.2969 L22.7969,-19.2969 L19.5,-18.5938 L19.5,-33.5 L16.7031,-33.5 L16.7031,-18 L7.79688,-16.2031 L7.79688,-30.2969 L5,-30.2969 L5,-15.5938 L1.09375,-14.7969 C0.5,-14.7031 0,-14 0,-13.4063 L0,-13.2031 L0,-7.40625 L0,-7.59375 C0,-6.79688 0.59375,-6.20313 1.40625,-6.20313 L1.70313,-6.20313 L5,-6.90625 L5,9.59375 L1.09375,10.4063 C0.5,10.5 0,11.2031 0,11.7969 L0,17.5938 C0,18.4063 0.59375,19 1.40625,19 L1.70313,19 L5,18.2969 L5,33.2031 L7.79688,33.2031 L7.79688,17.7031 L16.7031,15.9063 L16.7031,30 L19.5,30 L19.5,15.2969 L23.2969,14.5938 C23.9063,14.5 24.4063,13.7969 24.4063,13.2031 L24.4063,7.29688 C24.4063,6.5 23.7969,5.90625 23,5.90625 L22.7969,5.90625 L19.5,6.59375 L19.5,-9.90625 L23.2969,-10.5938 M7.79688,9.09375 L7.79688,-7.5 L16.7031,-9.29688 L16.7031,7.20313 L7.79688,9.09375 "/>
<path class="KeySig" transform="matrix(1.89921,0,0,1.89921,420.291,2188.13)" d="M23.2969,-10.5938 C23.9063,-10.7031 24.4063,-11.4063 24.4063,-12 L24.4063,-17.9063 C24.4063,-18.7031 23.7969,-19.2969 23,-19.2969 L22.7969,-19.2969 L19.5,-18.5938 L19.5,-33.5 L16.7031,-33.5 L16.7031,-18 L7.79688,-16.2031 L7.79688,-30.2969 L5,-30.2969 L5,-15.5938 L1.09375,-14.7969 C0.5,-14.7031 0,-14 0,-13.4063 L0,-13.2031 L0,-7.40625 L0,-7.59375 C0,-6.79688 0.59375,-6.20313 1.40625,-6.20313 L1.70313,-6.20313 L5,-6.90625 L5,9.59375 L1.09375,10.4063 C0.5,10.5 0,11.2031 0,11.7969 L0,17.5938 C0,18.4063 0.59375,19 1.40625,19 L1.70313,19 L5,18.2969 L5,33.2031 L7.79688,33.2031 L7.79688,17.7031 L16.7031,15.9063 L16.7031,30 L19.5,30 L19.5,15.2969 L23.2969,14.5938 C23.9063,14.5 24.4063,13.7969 24.4063,13.2031 L24.4063,7.29688 C24.4063,6.5 23.7969,5.90625 23,5.90625 L22.7969,5.90625 L19.5,6.59375 L19.5,-9.90625 L23.2969,-10.5938 M7.79688,9.09375 L7.79688,-7.5 L16.7031,-9.29688 L16.7031,7.20313 L7.79688,9.09375 "/>
<path class="KeySig" transform="matrix(1.89921,0,0,1.89921,372.811,2116.91)" d="M23.2969,-10.5938 C23.9063,-10.7031 24.4063,-11.4063 24.4063,-12 L24.4063,-17.9063 C24.4063,-18.7031 23.7969,-19.2969 23,-19.2969 L22.7969,-19.2969 L19.5,-18.5938 L19.5,-33.5 L16.7031,-33.5 L16.7031,-18 L7.79688,-16.2031 L7.79688,-30.2969 L5,-30.2969 L5,-15.5938 L1.09375,-14.7969 C0.5,-14.7031 0,-14 0,-13.4063 L0,-13.2031 L0,-7.40625 L0,-7.59375 C0,-6.79688 0.59375,-6.20313 1.40625,-6.20313 L1.70313,-6.20313 L5,-6.90625 L5,9.59375 L1.09375,10.4063 C0.5,10.5 0,11.2031 0,11.7969 L0,17.5938 C0,18.4063 0.59375,19 1.40625,19 L1.70313,19 L5,18.2969 L5,33.2031 L7.79688,33.2031 L7.79688,17.7031 L16.7031,15.9063 L16.7031,30 L19.5,30 L19.5,15.2969 L23.2969,14.5938 C23.9063,14.5 24.4063,13.7969 24.4063,13.2031 L24.4063,7.29688 C24.4063,6.5 23.7969,5.90625 23,5.90625 L22.7969,5.90625 L19.5,6.59375 L19.5,-9.90625 L23.2969,-10.5938 M7.79688,9.09375 L7.79688,-7.5 L16.7031,-9.29688 L16.7031,7.20313 L7.79688,9.09375 "/>
<path class="KeySig" transform="matrix(1.89921,0,0,1.89921,325.331,2211.87)" d="M23.2969,-10.5938 C23.9063,-10.7031 24.4063,-11.4063 24.4063,-12 L24.4063,-17.9063 C24.4063,-18.7031 23.7969,-19.2969 23,-19.2969 L22.7969,-19.2969 L19.5,-18.5938 L19.5,-33.5 L16.7031,-33.5 L16.7031,-18 L7.79688,-16.2031 L7.79688,-30.2969 L5,-30.2969 L5,-15.5938 L1.09375,-14.7969 C0.5,-14.7031 0,-14 0,-13.4063 L0,-13.2031 L0,-7.40625 L0,-7.59375 C0,-6.79688 0.59375,-6.20313 1.40625,-6.20313 L1.70313,-6.20313 L5,-6.90625 L5,9.59375 L1.09375,10.4063 C0.5,10.5 0,11.2031 0,11.7969 L0,17.5938 C0,18.4063 0.59375,19 1.40625,19 L1.70313,19 L5,18.2969 L5,33.2031 L7.79688,33.2031 L7.79688,17.7031 L16.7031,15.9063 L16.7031,30 L19.5,30 L19.5,15.2969 L23.2969,14.5938 C23.9063,14.5 24.4063,13.7969 24.4063,13.2031 L24.4063,7.29688 C24.4063,6.5 23.7969,5.90625 23,5.90625 L22.7969,5.90625 L19.5,6.59375 L19.5,-9.90625 L23.2969,-10.5938 M7.79688,9.09375 L7.79688,-7.5 L16.7031,-9.29688 L16.7031,7.20313 L7.79688,9.09375 "/>
<path class="KeySig" transform="matrix(1.89921,0,0,1.89921,277.85,2140.65)" d="M23.2969,-10.5938 C23.9063,-10.7031 24.4063,-11.4063 24.4063,-12 L24.4063,-17.9063 C24.4063,-18.7031 23.7969,-19.2969 23,-19.2969 L22.7969,-19.2969 L19.5,-18.5938 L19.5,-33.5 L16.7031,-33.5 L16.7031,-18 L7.79688,-16.2031 L7.79688,-30.2969 L5,-30.2969 L5,-15.5938 L1.09375,-14.7969 C0.5,-14.7031 0,-14 0,-13.4063 L0,-13.2031 L0,-7.40625 L0,-7.59375 C0,-6.79688 0.59375,-6.20313 1.40625,-6.20313 L1.70313,-6.20313 L5,-6.90625 L5,9.59375 L1.09375,10.4063 C0.5,10.5 0,11.2031 0,11.7969 L0,17.5938 C0,18.4063 0.59375,19 1.40625,19 L1.70313,19 L5,18.2969 L5,33.2031 L7.79688,33.2031 L7.79688,17.7031 L16.7031,15.9063 L16.7031,30 L19.5,30 L19.5,15.2969 L23.2969,14.5938 C23.9063,14.5 24.4063,13.7969 24.4063,13.2031 L24.4063,7.29688 C24.4063,6.5 23.7969,5.90625 23,5.90625 L22.7969,5.90625 L19.5,6.59375 L19.5,-9.90625 L23.2969,-10.5938 M7.79688,9.09375 L7.79688,-7.5 L16.7031,-9.29688 L16.7031,7.20313 L7.79688,9.09375 "/>
<path class="TimeSig" transform="matrix(1.89921,0,0,1.89921,511.498,450.961)" d="M3.59375,12.625 L20.7656,12.625 L20.7656,20.0781 L12.5469,20.0781 C11.7656,20.0781 11.125,20.7031 11.125,21.4844 L11.125,23.3906 C11.125,24.1719 11.7656,24.7969 12.5469,24.7969 L42.7969,24.7969 C43.5781,24.7969 44.2031,24.1719 44.2031,23.3906 L44.2031,21.4844 C44.2031,20.7031 43.5781,20.0781 42.7969,20.0781 L33.8594,20.0781 L33.8594,12.625 L42.7969,12.625 C43.5781,12.625 44.2031,12 44.2031,11.2188 L44.2031,9.3125 C44.2031,8.53125 43.5781,7.90625 42.7969,7.90625 L33.8594,7.90625 L33.8594,-8.0625 C33.8594,-8.59375 33.5469,-9.07813 33.0781,-9.3125 L31.8594,-9.92188 C31.3281,-10.1719 30.7031,-10.0781 30.2656,-9.6875 L21.2188,-1.375 C20.9375,-1.09375 20.7656,-0.734375 20.7656,-0.328125 L20.7656,7.90625 L9.25,7.90625 C9.25,7.90625 20.375,-4.125 32.2188,-19.8906 C33.0781,-21.0469 32.5781,-22.0938 32.3906,-22.2813 L30.2188,-24.4844 C29.9531,-24.75 29.5938,-24.9063 29.2188,-24.9063 C28.625,-24.9063 15.0625,-24.875 14.3438,-24.9063 C13.625,-24.9219 13.0938,-24.2969 13.0156,-23.6875 C13.0156,-23.6875 12.4844,-16.3281 9.875,-8.1875 C7.28125,-0.078125 4.34375,4.90625 1.6875,8.53125 C1.6875,8.53125 1.14063,9.51563 1.5,10.2656 C1.84375,11.0156 2.48438,12.0938 2.48438,12.0938 C2.48438,12.0938 2.73438,12.625 3.59375,12.625"/>
<path class="TimeSig" transform="matrix(1.89921,0,0,1.89921,511.498,545.417)" d="M3.59375,12.625 L20.7656,12.625 L20.7656,20.0781 L12.5469,20.0781 C11.7656,20.0781 11.125,20.7031 11.125,21.4844 L11.125,23.3906 C11.125,24.1719 11.7656,24.7969 12.5469,24.7969 L42.7969,24.7969 C43.5781,24.7969 44.2031,24.1719 44.2031,23.3906 L44.2031,21.4844 C44.2031,20.7031 43.5781,20.0781 42.7969,20.0781 L33.8594,20.0781 L33.8594,12.625 L42.7969,12.625 C43.5781,12.625 44.2031,12 44.2031,11.2188 L44.2031,9.3125 C44.2031,8.53125 43.5781,7.90625 42.7969,7.90625 L33.8594,7.90625 L33.8594,-8.0625 C33.8594,-8.59375 33.5469,-9.07813 33.0781,-9.3125 L31.8594,-9.92188 C31.3281,-10.1719 30.7031,-10.0781 30.2656,-9.6875 L21.2188,-1.375 C20.9375,-1.09375 20.7656,-0.734375 20.7656,-0.328125 L20.7656,7.90625 L9.25,7.90625 C9.25,7.90625 20.375,-4.125 32.2188,-19.8906 C33.0781,-21.0469 32.5781,-22.0938 32.3906,-22.2813 L30.2188,-24.4844 C29.9531,-24.75 29.5938,-24.9063 29.2188,-24.9063 C28.625,-24.9063 15.0625,-24.875 14.3438,-24.9063 C13.625,-24.9219 13.0938,-24.2969 13.0156,-23.6875 C13.0156,-23.6875 12.4844,-16.3281 9.875,-8.1875 C7.28125,-0.078125 4.34375,4.90625 1.6875,8.53125 C1.6875,8.53125 1.14063,9.51563 1.5,10.2656 C1.84375,11.0156 2.48438,12.0938 2.48438,12.0938 C2.48438,12.0938 2.73438,12.625 3.59375,12.625"/>
<path class="Rest" transform="matrix(1.89921,0,0,1.89921,3149.92,450.709)" d="M31.1094,-0.5 L1.40625,-0.5 C0.59375,-0.5 0,0.09375 0,0.90625 L0,11.7031 C0,12.5 0.59375,13.0938 1.40625,13.0938 L31.1094,13.0938 C31.9063,13.0938 32.5,12.5 32.5,11.7031 L32.5,0.90625 C32.5,0.09375 31.9063,-0.5 31.1094,-0.5"/>
<path class="Rest" transform="matrix(1.89921,0,0,1.89921,2194.65,1319.42)" d="M31.1094,-0.5 L1.40625,-0.5 C0.59375,-0.5 0,0.09375 0,0.90625 L0,11.7031 C0,12.5 0.59375,13.0938 1.40625,13.0938 L31.1094,13.0938 C31.9063,13.0938 32.5,12.5 32.5,11.7031 L32.5,0.90625 C32.5,0.09375 31.9063,-0.5 31.1094,-0.5"/>
<path class="Rest" transform="matrix(1.89921,0,0,1.89921,2465.13,1366.9)" d="M26.7344,-20.2656 C25.9844,-20.5469 25.3125,-20.2031 24.9844,-19.5938 C24.6563,-18.9844 21.4688,-13.0625 17.0469,-9.79688 C15.6563,-8.78125 14.0625,-8.14063 12.5,-7.8125 C13.625,-9.0625 14.2969,-10.7344 14.2969,-12.5469 C14.2969,-16.5 11.0938,-19.7031 7.15625,-19.7031 C3.20313,-19.7031 0,-16.5 0,-12.5469 C0,-9.54688 1.875,-6.95313 4.51563,-5.90625 C6.04688,-5.1875 7.95313,-4.73438 10,-4.73438 C12.8438,-4.73438 15.9531,-5.5625 18.6719,-7.5625 C19.9375,-8.48438 21.125,-9.6875 22.2031,-10.9375 L10.8125,24.6875 L13.4531,25.5469 L27.5313,-18.5469 C27.7656,-19.2813 27.4688,-19.9688 26.7344,-20.2656"/>
<path class="Rest" transform="matrix(1.89921,0,0,1.89921,3043.2,1366.9)" d="M26.7344,-20.2656 C25.9844,-20.5469 25.3125,-20.2031 24.9844,-19.5938 C24.6563,-18.9844 21.4688,-13.0625 17.0469,-9.79688 C15.6563,-8.78125 14.0625,-8.14063 12.5,-7.8125 C13.625,-9.0625 14.2969,-10.7344 14.2969,-12.5469 C14.2969,-16.5 11.0938,-19.7031 7.15625,-19.7031 C3.20313,-19.7031 0,-16.5 0,-12.5469 C0,-9.54688 1.875,-6.95313 4.51563,-5.90625 C6.04688,-5.1875 7.95313,-4.73438 10,-4.73438 C12.8438,-4.73438 15.9531,-5.5625 18.6719,-7.5625 C19.9375,-8.48438 21.125,-9.6875 22.2031,-10.9375 L10.8125,24.6875 L13.4531,25.5469 L27.5313,-18.5469 C27.7656,-19.2813 27.4688,-19.9688 26.7344,-20.2656"/>
<path class="Rest" transform="matrix(1.89921,0,0,1.89921,3621.26,1366.9)" d="M26.7344,-20.2656 C25.9844,-20.5469 25.3125,-20.2031 24.9844,-19.5938 C24.6563,-18.9844 21.4688,-13.0625 17.0469,-9.79688 C15.6563,-8.78125 14.0625,-8.14063 12.5,-7.8125 C13.625,-9.0625 14.2969,-10.7344 14.2969,-12.5469 C14.2969,-16.5 11.0938,-19.7031 7.15625,-19.7031 C3.20313,-19.7031 0,-16.5 0,-12.5469 C0,-9.54688 1.875,-6.95313 4.51563,-5.90625 C6.04688,-5.1875 7.95313,-4.73438 10,-4.73438 C12.8438,-4.73438 15.9531,-5.5625 18.6719,-7.5625 C19.9375,-8.48438 21.125,-9.6875 22.2031,-10.9375 L10.8125,24.6875 L13.4531,25.5469 L27.5313,-18.5469 C27.7656,-19.2813 27.4688,-19.9688 26.7344,-20.2656"/>
<path class="Rest" transform="matrix(1.89921,0,0,1.89921,1172.65,2188.13)" d="M31.1094,-0.5 L1.40625,-0.5 C0.59375,-0.5 0,0.09375 0,0.90625 L0,11.7031 C0,12.5 0.59375,13.0938 1.40625,13.0938 L31.1094,13.0938 C31.9063,13.0938 32.5,12.5 32.5,11.7031 L32.5,0.90625 C32.5,0.09375 31.9063,-0.5 31.1094,-0.5"/>
<path class="Rest" transform="matrix(1.89921,0,0,1.89921,1440.23,2235.61)" d="M26.7344,-20.2656 C25.9844,-20.5469 25.3125,-20.2031 24.9844,-19.5938 C24.6563,-18.9844 21.4688,-13.0625 17.0469,-9.79688 C15.6563,-8.78125 14.0625,-8.14063 12.5,-7.8125 C13.625,-9.0625 14.2969,-10.7344 14.2969,-12.5469 C14.2969,-16.5 11.0938,-19.7031 7.15625,-19.7031 C3.20313,-19.7031 0,-16.5 0,-12.5469 C0,-9.54688 1.875,-6.95313 4.51563,-5.90625 C6.04688,-5.1875 7.95313,-4.73438 10,-4.73438 C12.8438,-4.73438 15.9531,-5.5625 18.6719,-7.5625 C19.9375,-8.48438 21.125,-9.6875 22.2031,-10.9375 L10.8125,24.6875 L13.4531,25.5469 L27.5313,-18.5469 C27.7656,-19.2813 27.4688,-19.9688 26.7344,-20.2656"/>
<path class="Rest" transform="matrix(1.89921,0,0,1.89921,2100.84,2235.61)" d="M26.7344,-20.2656 C25.9844,-20.5469 25.3125,-20.2031 24.9844,-19.5938 C24.6563,-18.9844 21.4688,-13.0625 17.0469,-9.79688 C15.6563,-8.78125 14.0625,-8.14063 12.5,-7.8125 C13.625,-9.0625 14.2969,-10.7344 14.2969,-12.5469 C14.2969,-16.5 11.0938,-19.7031 7.15625,-19.7031 C3.20313,-19.7031 0,-16.5 0,-12.5469 C0,-9.54688 1.875,-6.95313 4.51563,-5.90625 C6.04688,-5.1875 7.95313,-4.73438 10,-4.73438 C12.8438,-4.73438 15.9531,-5.5625 18.6719,-7.5625 C19.9375,-8.48438 21.125,-9.6875 22.2031,-10.9375 L10.8125,24.6875 L13.4531,25.5469 L27.5313,-18.5469 C27.7656,-19.2813 27.4688,-19.9688 26.7344,-20.2656"/>
<path class="Rest" transform="matrix(1.89921,0,0,1.89921,2676,2235.61)" d="M26.7344,-20.2656 C25.9844,-20.5469 25.3125,-20.2031 24.9844,-19.5938 C24.6563,-18.9844 21.4688,-13.0625 17.0469,-9.79688 C15.6563,-8.78125 14.0625,-8.14063 12.5,-7.8125 C13.625,-9.0625 14.2969,-10.7344 14.2969,-12.5469 C14.2969,-16.5 11.0938,-19.7031 7.15625,-19.7031 C3.20313,-19.7031 0,-16.5 0,-12.5469 C0,-9.54688 1.875,-6.95313 4.51563,-5.90625 C6.04688,-5.1875 7.95313,-4.73438 10,-4.73438 C12.8438,-4.73438 15.9531,-5.5625 18.6719,-7.5625 C19.9375,-8.48438 21.125,-9.6875 22.2031,-10.9375 L10.8125,24.6875 L13.4531,25.5469 L27.5313,-18.5469 C27.7656,-19.2813 27.4688,-19.9688 26.7344,-20.2656"/>
<path class="Rest" transform="matrix(1.89921,0,0,1.89921,3923.93,2188.13)" d="M31.1094,-0.5 L1.40625,-0.5 C0.59375,-0.5 0,0.09375 0,0.90625 L0,11.7031 C0,12.5 0.59375,13.0938 1.40625,13.0938 L31.1094,13.0938 C31.9063,13.0938 32.5,12.5 32.5,11.7031 L32.5,0.90625 C32.5,0.09375 31.9063,-0.5 31.1094,-0.5"/>
<path class="Beam" fill-rule="evenodd" d="M713.646,392.481 L854.293,343.169 L854.293,368.326 L713.646,417.638 L713.646,392.481 "/>
<path class="Beam" fill-rule="evenodd" d="M854.293,378.78 L792.569,400.42 L792.569,425.577 L854.293,403.937 L854.293,378.78 "/>
<path class="Beam" fill-rule="evenodd" d="M897.076,628.692 L1013.36,616.264 L1013.36,640.139 L897.076,652.567 L897.076,628.692 "/>
<path class="Beam" fill-rule="evenodd" d="M1440.32,392.481 L1580.96,343.169 L1580.96,368.326 L1440.32,417.638 L1440.32,392.481 "/>
<path class="Beam" fill-rule="evenodd" d="M1580.96,378.78 L1519.24,400.42 L1519.24,425.577 L1580.96,403.937 L1580.96,378.78 "/>
<path class="Beam" fill-rule="evenodd" d="M1623.75,628.692 L1740.03,616.264 L1740.03,640.139 L1623.75,652.567 L1623.75,628.692 "/>
<path class="Beam" fill-rule="evenodd" d="M2110.5,569.363 L2384.68,593.564 L2384.68,617.397 L2110.5,593.196 L2110.5,569.363 "/>
<path class="Beam" fill-rule="evenodd" d="M3529.15,392.481 L3669.79,343.169 L3669.79,368.326 L3529.15,417.638 L3529.15,392.481 "/>
<path class="Beam" fill-rule="evenodd" d="M3669.79,378.78 L3608.07,400.42 L3608.07,425.577 L3669.79,403.937 L3669.79,378.78 "/>
<path class="Beam" fill-rule="evenodd" d="M3712.58,628.692 L3828.86,616.264 L3828.86,640.139 L3712.58,652.567 L3712.58,628.692 "/>
<path class="Beam" fill-rule="evenodd" d="M641.817,1261.23 L769.641,1211.73 L769.641,1237.19 L641.817,1286.69 L641.817,1261.23 "/>
<path class="Beam" fill-rule="evenodd" d="M769.641,1247.34 L707.917,1271.24 L707.917,1296.7 L769.641,1272.8 L769.641,1247.34 "/>
<path class="Beam" fill-rule="evenodd" d="M812.425,1497.39 L918.193,1484.9 L918.193,1508.81 L812.425,1521.29 L812.425,1497.39 "/>
<path class="Beam" fill-rule="evenodd" d="M1259.74,1438.11 L1511.56,1450.23 L1511.56,1474 L1259.74,1461.87 L1259.74,1438.11 "/>
<path class="Beam" fill-rule="evenodd" d="M2628.93,1449.87 L2716.06,1462.49 L2716.06,1486.48 L2628.93,1473.85 L2628.93,1449.87 "/>
<path class="Beam" fill-rule="evenodd" d="M3207,1449.87 L3294.13,1462.49 L3294.13,1486.48 L3207,1473.85 L3207,1449.87 "/>
<path class="Beam" fill-rule="evenodd" d="M3785.07,1449.87 L3872.19,1462.49 L3872.19,1486.48 L3785.07,1473.85 L3785.07,1449.87 "/>
<path class="Beam" fill-rule="evenodd" d="M1603.59,2318.58 L1690.49,2331.21 L1690.49,2355.19 L1603.59,2342.57 L1603.59,2318.58 "/>
<path class="Beam" fill-rule="evenodd" d="M2263.71,2318.58 L2350.36,2331.21 L2350.36,2355.2 L2263.71,2342.57 L2263.71,2318.58 "/>
<path class="Beam" fill-rule="evenodd" d="M2839.36,2318.58 L2926.27,2331.21 L2926.27,2355.19 L2839.36,2342.57 L2839.36,2318.58 "/>
<path class="Hook" transform="matrix(1.89921,0,0,1.89921,2547.03,1461.86)" d="M2.5,0.40625 C2.5,0.203125 3.40625,-3.20313 3.5,-3.5 C3.59375,-3.90625 5.40625,-9.59375 9.09375,-15.2969 C11.7969,-19.5 21.2969,-31.7969 21,-31.7969 C21,-31.7969 28.4063,-41.2969 28.9063,-54.2031 L28.9063,-56.5 C28.9063,-62.6094 28.1094,-71.2031 24.5938,-79.9063 C24.2031,-80.9063 23.7969,-81.9063 22.7031,-81.5 C21.5938,-81.1094 21.9063,-79.9063 22.2031,-78.8125 C24,-71.7969 25,-64.6094 25,-57.4063 C25,-49 22,-44.7969 20.2031,-41.7031 C13.5938,-30.6094 5,-25.2031 0.796875,-23.7969 C0.296875,-23.5938 0,-23.2031 0,-22.7031 L0,-16.5 L0,-0.09375 C0,0.59375 0.59375,1.20313 1.29688,1.20313 C1.79688,1.20313 2.40625,0.796875 2.5,0.40625"/>
<path class="Hook" transform="matrix(1.89921,0,0,1.89921,3125.1,1461.86)" d="M2.5,0.40625 C2.5,0.203125 3.40625,-3.20313 3.5,-3.5 C3.59375,-3.90625 5.40625,-9.59375 9.09375,-15.2969 C11.7969,-19.5 21.2969,-31.7969 21,-31.7969 C21,-31.7969 28.4063,-41.2969 28.9063,-54.2031 L28.9063,-56.5 C28.9063,-62.6094 28.1094,-71.2031 24.5938,-79.9063 C24.2031,-80.9063 23.7969,-81.9063 22.7031,-81.5 C21.5938,-81.1094 21.9063,-79.9063 22.2031,-78.8125 C24,-71.7969 25,-64.6094 25,-57.4063 C25,-49 22,-44.7969 20.2031,-41.7031 C13.5938,-30.6094 5,-25.2031 0.796875,-23.7969 C0.296875,-23.5938 0,-23.2031 0,-22.7031 L0,-16.5 L0,-0.09375 C0,0.59375 0.59375,1.20313 1.29688,1.20313 C1.79688,1.20313 2.40625,0.796875 2.5,0.40625"/>
<path class="Hook" transform="matrix(1.89921,0,0,1.89921,3703.17,1461.86)" d="M2.5,0.40625 C2.5,0.203125 3.40625,-3.20313 3.5,-3.5 C3.59375,-3.90625 5.40625,-9.59375 9.09375,-15.2969 C11.7969,-19.5 21.2969,-31.7969 21,-31.7969 C21,-31.7969 28.4063,-41.2969 28.9063,-54.2031 L28.9063,-56.5 C28.9063,-62.6094 28.1094,-71.2031 24.5938,-79.9063 C24.2031,-80.9063 23.7969,-81.9063 22.7031,-81.5 C21.5938,-81.1094 21.9063,-79.9063 22.2031,-78.8125 C24,-71.7969 25,-64.6094 25,-57.4063 C25,-49 22,-44.7969 20.2031,-41.7031 C13.5938,-30.6094 5,-25.2031 0.796875,-23.7969 C0.296875,-23.5938 0,-23.2031 0,-22.7031 L0,-16.5 L0,-0.09375 C0,0.59375 0.59375,1.20313 1.29688,1.20313 C1.79688,1.20313 2.40625,0.796875 2.5,0.40625"/>
<path class="Hook" transform="matrix(1.89921,0,0,1.89921,1521.91,2330.57)" d="M2.5,0.40625 C2.5,0.203125 3.40625,-3.20313 3.5,-3.5 C3.59375,-3.90625 5.40625,-9.59375 9.09375,-15.2969 C11.7969,-19.5 21.2969,-31.7969 21,-31.7969 C21,-31.7969 28.4063,-41.2969 28.9063,-54.2031 L28.9063,-56.5 C28.9063,-62.6094 28.1094,-71.2031 24.5938,-79.9063 C24.2031,-80.9063 23.7969,-81.9063 22.7031,-81.5 C21.5938,-81.1094 21.9063,-79.9063 22.2031,-78.8125 C24,-71.7969 25,-64.6094 25,-57.4063 C25,-49 22,-44.7969 20.2031,-41.7031 C13.5938,-30.6094 5,-25.2031 0.796875,-23.7969 C0.296875,-23.5938 0,-23.2031 0,-22.7031 L0,-16.5 L0,-0.09375 C0,0.59375 0.59375,1.20313 1.29688,1.20313 C1.79688,1.20313 2.40625,0.796875 2.5,0.40625"/>
<path class="Hook" transform="matrix(1.89921,0,0,1.89921,2182.27,2330.57)" d="M2.5,0.40625 C2.5,0.203125 3.40625,-3.20313 3.5,-3.5 C3.59375,-3.90625 5.40625,-9.59375 9.09375,-15.2969 C11.7969,-19.5 21.2969,-31.7969 21,-31.7969 C21,-31.7969 28.4063,-41.2969 28.9063,-54.2031 L28.9063,-56.5 C28.9063,-62.6094 28.1094,-71.2031 24.5938,-79.9063 C24.2031,-80.9063 23.7969,-81.9063 22.7031,-81.5 C21.5938,-81.1094 21.9063,-79.9063 22.2031,-78.8125 C24,-71.7969 25,-64.6094 25,-57.4063 C25,-49 22,-44.7969 20.2031,-41.7031 C13.5938,-30.6094 5,-25.2031 0.796875,-23.7969 C0.296875,-23.5938 0,-23.2031 0,-22.7031 L0,-16.5 L0,-0.09375 C0,0.59375 0.59375,1.20313 1.29688,1.20313 C1.79688,1.20313 2.40625,0.796875 2.5,0.40625"/>
<path class="Hook" transform="matrix(1.89921,0,0,1.89921,2757.68,2330.57)" d="M2.5,0.40625 C2.5,0.203125 3.40625,-3.20313 3.5,-3.5 C3.59375,-3.90625 5.40625,-9.59375 9.09375,-15.2969 C11.7969,-19.5 21.2969,-31.7969 21,-31.7969 C21,-31.7969 28.4063,-41.2969 28.9063,-54.2031 L28.9063,-56.5 C28.9063,-62.6094 28.1094,-71.2031 24.5938,-79.9063 C24.2031,-80.9063 23.7969,-81.9063 22.7031,-81.5 C21.5938,-81.1094 21.9063,-79.9063 22.2031,-78.8125 C24,-71.7969 25,-64.6094 25,-57.4063 C25,-49 22,-44.7969 20.2031,-41.7031 C13.5938,-30.6094 5,-25.2031 0.796875,-23.7969 C0.296875,-23.5938 0,-23.2031 0,-22.7031 L0,-16.5 L0,-0.09375 C0,0.59375 0.59375,1.20313 1.29688,1.20313 C1.79688,1.20313 2.40625,0.796875 2.5,0.40625"/>
<path class="Jump" d="M3932.65,2045.69 L3967.93,2045.69 C3977.27,2045.69 3984.41,2044.22 3989.97,2041.06 C4000.58,2035.08 4006.46,2023.11 4006.46,2007.36 C4006.46,1992.88 4001.21,1981.53 3991.55,1975.24 C3985.77,1971.56 3978,1969.88 3966.04,1969.88 L3932.65,1969.88 L3932.65,1974.81 L3934.65,1974.81 C3940.52,1974.92 3942.52,1975.24 3943.35,1976.28 C3943.99,1977.24 3943.99,1977.44 3943.99,1982.8 L3943.99,2032.77 C3943.99,2038.13 3943.99,2038.35 3943.35,2039.28 C3942.52,2040.33 3940.52,2040.64 3934.65,2040.75 L3932.65,2040.75 L3932.65,2045.69 M3961.72,2040.75 C3956.38,2040.75 3955.74,2040.13 3955.74,2034.99 L3955.74,1980.69 C3955.74,1975.55 3956.47,1974.81 3961.72,1974.81 L3967.19,1974.81 C3985.15,1974.81 3992.6,1984.58 3992.6,2007.78 C3992.6,2031.3 3985.88,2040.75 3968.86,2040.75 L3961.72,2040.75 M4025.68,2034.03 C4021.99,2034.03 4019.05,2036.97 4019.05,2040.55 C4019.05,2044.22 4021.99,2047.16 4025.57,2047.16 C4029.24,2047.16 4032.18,2044.22 4032.18,2040.55 C4032.18,2036.97 4029.24,2034.03 4025.68,2034.03 M4107.57,1969.14 L4103.58,1969.14 L4099.38,1975.35 C4091.71,1969.78 4087.83,1968.31 4080.58,1968.31 C4070.61,1968.31 4062.1,1972.5 4055.07,1980.91 C4048.35,1988.89 4045.19,1997.7 4045.19,2008.52 C4045.19,2031.2 4060,2047.27 4080.69,2047.27 C4097.49,2047.27 4108.19,2037.39 4110.61,2019.75 L4105.68,2018.91 C4102.85,2034.56 4094.86,2042.33 4081.94,2042.33 C4066.41,2042.33 4059.05,2031.63 4059.05,2008.94 C4059.05,1996.97 4060.63,1989.1 4064.21,1982.8 C4067.46,1976.92 4073.86,1973.24 4080.69,1973.24 C4088.04,1973.24 4094.55,1977.13 4098.54,1983.85 C4100.54,1987.31 4102,1991.19 4104.52,1999.49 L4109.15,1999.49 L4107.57,1969.14 M4130.13,2034.03 C4126.44,2034.03 4123.5,2036.97 4123.5,2040.55 C4123.5,2044.22 4126.44,2047.16 4130.02,2047.16 C4133.69,2047.16 4136.63,2044.22 4136.63,2040.55 C4136.63,2036.97 4133.69,2034.03 4130.13,2034.03"/>
<path class="RehearsalMark" fill="none" stroke="#000000" stroke-width="7.60" stroke-linecap="square" stroke-linejoin="miter" stroke-miterlimit="2" fill-rule="evenodd" d="M504.545,148.511 L700.623,148.511 L700.623,333.588 L504.545,333.588 L504.545,148.511 "/>
<path class="RehearsalMark" d="M597.865,176.347 L557.912,269.612 C549.818,288.628 543.303,295.487 532.912,296.55 L532.912,306.05 L583.772,306.05 L583.772,296.55 C571.287,295.847 566.35,292.503 566.35,284.409 C566.35,281.409 567.053,278.597 568.99,274.378 L571.818,267.69 L615.631,267.69 L622.318,284.925 C624.256,289.862 624.428,290.737 624.428,292.144 C624.428,295.315 621.975,296.362 614.225,296.362 L611.24,296.55 L611.24,306.05 L673.006,306.05 L673.006,296.55 C662.975,296.19 660.162,294.44 656.459,285.456 L611.24,176.347 L597.865,176.347 M594.162,213.831 L611.24,255.894 L576.381,255.894 L594.162,213.831 "/>
<path class="RehearsalMark" fill="none" stroke="#000000" stroke-width="7.60" stroke-linecap="square" stroke-linejoin="miter" stroke-miterlimit="2" fill-rule="evenodd" d="M2311.87,1052.12 L2494.94,1052.12 L2494.94,1235.19 L2311.87,1235.19 L2311.87,1052.12 "/>
<path class="RehearsalMark" d="M2340.39,1080.59 L2340.39,1090.09 L2343.03,1090.09 C2352.55,1090.09 2355.89,1090.8 2357.47,1092.56 C2358.7,1094.48 2358.7,1095.01 2358.7,1105.94 L2358.7,1182.31 C2358.7,1193.22 2358.7,1193.75 2357.47,1195.51 C2355.89,1197.45 2352.36,1198.16 2343.03,1198.16 L2340.39,1198.16 L2340.39,1207.66 L2411.67,1207.66 C2429.98,1207.66 2439.31,1206.25 2448.45,1202.2 C2459.55,1197.26 2466.94,1186.19 2466.94,1174.22 C2466.94,1161.89 2459.91,1152.22 2446.87,1146.23 C2440.89,1143.42 2435.78,1142.01 2426.45,1140.78 C2435.08,1139.37 2440.01,1138.14 2444.94,1135.84 C2455.5,1130.75 2461.12,1122.3 2461.12,1111.73 C2461.12,1101.7 2455.84,1092.37 2447.23,1087.62 C2437.55,1082.17 2429.09,1080.59 2408.33,1080.59 L2340.39,1080.59 M2390.37,1137.61 L2390.37,1100.3 C2390.03,1092.91 2392.5,1090.44 2400.23,1090.09 L2405.51,1090.09 C2421,1090.09 2429.28,1097.83 2429.28,1112.44 C2429.28,1121.06 2426.28,1127.94 2420.66,1132.33 C2415.91,1136.2 2409.92,1137.61 2399,1137.61 L2390.37,1137.61 M2390.37,1147.3 L2402.53,1147.3 C2413.61,1147.3 2418.72,1148.34 2423.64,1151.51 C2429.8,1155.56 2433.33,1163.31 2433.33,1172.45 C2433.33,1180.91 2430.16,1188.66 2425.05,1192.87 C2420.66,1196.39 2414.84,1198.16 2406.39,1198.16 L2401.11,1198.16 C2391.08,1197.8 2390.03,1196.75 2390.37,1186.89 L2390.37,1147.3 "/>
<path class="NoteDot" transform="matrix(1.89921,0,0,1.89921,742.609,521.929)" d="M0,0 C0,2.76563 2.23438,5 5,5 C7.76563,5 10,2.76563 10,0 C10,-2.76563 7.76563,-5 5,-5 C2.23438,-5 0,-2.76563 0,0"/>
<path class="NoteDot" transform="matrix(1.89921,0,0,1.89921,1469.28,521.929)" d="M0,0 C0,2.76563 2.23438,5 5,5 C7.76563,5 10,2.76563 10,0 C10,-2.76563 7.76563,-5 5,-5 C2.23438,-5 0,-2.76563 0,0"/>
<path class="NoteDot" transform="matrix(1.89921,0,0,1.89921,3558.11,521.929)" d="M0,0 C0,2.76563 2.23438,5 5,5 C7.76563,5 10,2.76563 10,0 C10,-2.76563 7.76563,-5 5,-5 C2.23438,-5 0,-2.76563 0,0"/>
<path class="NoteDot" transform="matrix(1.89921,0,0,1.89921,670.78,1390.64)" d="M0,0 C0,2.76563 2.23438,5 5,5 C7.76563,5 10,2.76563 10,0 C10,-2.76563 7.76563,-5 5,-5 C2.23438,-5 0,-2.76563 0,0"/>
</svg>
