<?xml version="1.0" encoding="UTF-8" standalone="no"?>
<svg width="4208.47px" height="2409.45px" viewBox="0 0 4208.47 2409.45"
 xmlns="http://www.w3.org/2000/svg" xmlns:xlink="http://www.w3.org/1999/xlink" version="1.2" baseProfile="tiny">
<title>FLAUTA</title>
<desc>Generated by MuseScore 3.6.2</desc>
<polyline class="StaffLines" fill="none" stroke="#000000" stroke-width="5.85" stroke-linejoin="bevel" points="70.866,442.913 4137.61,442.913"/>
<polyline class="StaffLines" fill="none" stroke="#000000" stroke-width="5.85" stroke-linejoin="bevel" points="70.866,496.063 4137.61,496.063"/>
<polyline class="StaffLines" fill="none" stroke="#000000" stroke-width="5.85" stroke-linejoin="bevel" points="70.866,549.212 4137.61,549.212"/>
<polyline class="StaffLines" fill="none" stroke="#000000" stroke-width="5.85" stroke-linejoin="bevel" points="70.866,602.362 4137.61,602.362"/>
<polyline class="StaffLines" fill="none" stroke="#000000" stroke-width="5.85" stroke-linejoin="bevel" points="70.866,655.512 4137.61,655.512"/>
<polyline class="StaffLines" fill="none" stroke="#000000" stroke-width="5.85" stroke-linejoin="bevel" points="70.866,1213.27 4137.61,1213.27"/>
<polyline class="StaffLines" fill="none" stroke="#000000" stroke-width="5.85" stroke-linejoin="bevel" points="70.866,1266.42 4137.61,1266.42"/>
<polyline class="StaffLines" fill="none" stroke="#000000" stroke-width="5.85" stroke-linejoin="bevel" points="70.866,1319.57 4137.61,1319.57"/>
<polyline class="StaffLines" fill="none" stroke="#000000" stroke-width="5.85" stroke-linejoin="bevel" points="70.866,1372.72 4137.61,1372.72"/>
<polyline class="StaffLines" fill="none" stroke="#000000" stroke-width="5.85" stroke-linejoin="bevel" points="70.866,1425.87 4137.61,1425.87"/>
<polyline class="StaffLines" fill="none" stroke="#000000" stroke-width="5.85" stroke-linejoin="bevel" points="70.866,1983.63 4137.61,1983.63"/>
<polyline class="StaffLines" fill="none" stroke="#000000" stroke-width="5.85" stroke-linejoin="bevel" points="70.866,2036.78 4137.61,2036.78"/>
<polyline class="StaffLines" fill="none" stroke="#000000" stroke-width="5.85" stroke-linejoin="bevel" points="70.866,2089.93 4137.61,2089.93"/>
<polyline class="StaffLines" fill="none" stroke="#000000" stroke-width="5.85" stroke-linejoin="bevel" points="70.866,2143.07 4137.61,2143.07"/>
<polyline class="StaffLines" fill="none" stroke="#000000" stroke-width="5.85" stroke-linejoin="bevel" points="70.866,2196.22 4137.61,2196.22"/>
<path class="MeasureNumber" d="M90.556,1078.81 C88.436,1079.05 85.836,1079.21 83.596,1079.21 C82.476,1079.21 81.196,1079.17 79.756,1079.09 C78.436,1079.01 77.116,1078.93 75.756,1078.85 L74.756,1078.81 L70.876,1087.25 L72.356,1087.73 L73.316,1086.13 C75.196,1083.01 76.076,1082.57 80.156,1082.61 L86.916,1082.61 L82.556,1088.85 C77.436,1096.05 77.436,1096.05 75.476,1099.25 C73.716,1102.09 72.996,1103.85 72.996,1105.29 C72.996,1106.69 73.876,1107.57 75.276,1107.57 C76.756,1107.57 77.516,1106.85 78.036,1104.97 C80.036,1097.45 81.236,1094.85 86.796,1085.85 L90.556,1080.01 L90.556,1078.81 "/>
<path class="MeasureNumber" d="M87.226,1849.01 L86.066,1849.01 C83.866,1850.65 79.626,1852.05 76.746,1852.05 L76.266,1853.81 L79.026,1853.81 C81.466,1853.81 81.746,1853.89 81.746,1854.61 C81.746,1854.97 81.746,1854.97 81.346,1856.41 L77.066,1872.41 C76.546,1874.41 76.506,1874.53 76.146,1874.89 C75.746,1875.29 74.906,1875.41 72.786,1875.45 L71.066,1875.45 L70.866,1877.33 L85.666,1877.33 L85.906,1875.45 L83.746,1875.45 C81.146,1875.45 80.586,1875.25 80.586,1874.37 C80.586,1874.09 80.746,1873.17 80.946,1872.41 L87.226,1849.01 M104.7,1862.77 C106.58,1862.17 107.34,1861.85 108.3,1861.21 C110.18,1859.97 111.34,1857.77 111.34,1855.53 C111.34,1851.73 108.3,1849.17 103.82,1849.17 C99.4604,1849.17 95.7804,1851.89 95.7804,1855.17 C95.7804,1856.81 96.7804,1857.93 98.3004,1857.93 C99.6204,1857.93 100.58,1856.97 100.58,1855.65 C100.58,1854.97 100.38,1854.49 99.7404,1853.85 C99.3404,1853.49 99.1804,1853.21 99.1804,1852.93 C99.1804,1851.97 101.18,1850.97 103.06,1850.97 C105.74,1850.97 107.34,1852.45 107.34,1854.93 C107.34,1858.49 104.82,1861.85 102.14,1861.85 C102.02,1861.85 101.66,1861.81 101.22,1861.77 C100.06,1861.69 100.06,1861.69 99.8204,1861.69 C98.9404,1861.69 98.4604,1862.09 98.4604,1862.81 C98.4604,1863.45 98.9004,1863.85 99.6204,1863.85 C99.8204,1863.85 100.1,1863.81 100.42,1863.77 C100.98,1863.65 101.58,1863.61 101.94,1863.61 C103.82,1863.61 105.1,1865.29 105.1,1867.77 C105.1,1869.69 104.66,1871.53 103.78,1873.05 C102.58,1875.21 100.74,1876.25 98.1404,1876.25 C95.9004,1876.25 93.9804,1875.13 93.9804,1873.85 C93.9804,1873.41 94.1404,1873.25 94.7804,1872.97 C95.9404,1872.45 96.4204,1871.73 96.4204,1870.65 C96.4204,1869.25 95.3004,1868.17 93.8604,1868.17 C92.1404,1868.17 91.0204,1869.53 91.0204,1871.61 C91.0204,1875.49 93.9804,1877.93 98.7804,1877.93 C104.82,1877.93 109.42,1873.89 109.42,1868.53 C109.42,1867.09 108.98,1865.85 108.14,1864.85 C107.26,1863.81 106.46,1863.33 104.7,1862.77"/>
<polyline class="BarLine" fill="none" stroke="#000000" stroke-width="9.57" stroke-linejoin="bevel" points="936.658,439.99 936.658,658.435"/>
<polyline class="BarLine" fill="none" stroke="#000000" stroke-width="9.57" stroke-linejoin="bevel" points="965.89,439.99 965.89,658.435"/>
<polyline class="BarLine" fill="none" stroke="#000000" stroke-width="9.57" stroke-linejoin="bevel" points="1651.88,439.99 1651.88,658.435"/>
<polyline class="BarLine" fill="none" stroke="#000000" stroke-width="9.57" stroke-linejoin="bevel" points="2250.2,439.99 2250.2,658.435"/>
<polyline class="BarLine" fill="none" stroke="#000000" stroke-width="9.57" stroke-linejoin="bevel" points="2936.19,439.99 2936.19,658.435"/>
<polyline class="BarLine" fill="none" stroke="#000000" stroke-width="9.57" stroke-linejoin="bevel" points="3446.83,439.99 3446.83,658.435"/>
<polyline class="BarLine" fill="none" stroke="#000000" stroke-width="9.57" stroke-linejoin="bevel" points="4132.82,439.99 4132.82,658.435"/>
<polyline class="BarLine" fill="none" stroke="#000000" stroke-width="9.57" stroke-linejoin="bevel" points="975.543,1210.35 975.543,1428.79"/>
<polyline class="BarLine" fill="none" stroke="#000000" stroke-width="9.57" stroke-linejoin="bevel" points="1730.35,1210.35 1730.35,1428.79"/>
<polyline class="BarLine" fill="none" stroke="#000000" stroke-width="29.23" stroke-linejoin="bevel" points="2319.64,1210.35 2319.64,1428.79"/>
<polyline class="BarLine" fill="none" stroke="#000000" stroke-width="9.57" stroke-linejoin="bevel" points="2356.84,1210.35 2356.84,1428.79"/>
<path class="BarLine" transform="matrix(2.12598,0,0,2.12598,2382.99,1292.99)" d="M10.4,0 C10.4,-2.9 8.1,-5.3 5.2,-5.3 C2.3,-5.3 0,-2.9 0,0 C0,2.9 2.3,5.3 5.2,5.3 C8.1,5.3 10.4,2.9 10.4,0"/>
<path class="BarLine" transform="matrix(2.12598,0,0,2.12598,2382.99,1346.14)" d="M10.4,0 C10.4,-2.9 8.1,-5.3 5.2,-5.3 C2.3,-5.3 0,-2.9 0,0 C0,2.9 2.3,5.3 5.2,5.3 C8.1,5.3 10.4,2.9 10.4,0"/>
<polyline class="BarLine" fill="none" stroke="#000000" stroke-width="9.57" stroke-linejoin="bevel" points="2973.92,1210.35 2973.92,1428.79"/>
<polyline class="BarLine" fill="none" stroke="#000000" stroke-width="9.57" stroke-linejoin="bevel" points="3553.37,1210.35 3553.37,1428.79"/>
<polyline class="BarLine" fill="none" stroke="#000000" stroke-width="9.57" stroke-linejoin="bevel" points="4132.82,1210.35 4132.82,1428.79"/>
<polyline class="BarLine" fill="none" stroke="#000000" stroke-width="9.57" stroke-linejoin="bevel" points="949.539,1980.7 949.539,2199.15"/>
<polyline class="BarLine" fill="none" stroke="#000000" stroke-width="9.57" stroke-linejoin="bevel" points="1590.67,1980.7 1590.67,2199.15"/>
<polyline class="BarLine" fill="none" stroke="#000000" stroke-width="9.57" stroke-linejoin="bevel" points="2231.79,1980.7 2231.79,2199.15"/>
<polyline class="BarLine" fill="none" stroke="#000000" stroke-width="9.57" stroke-linejoin="bevel" points="2872.92,1980.7 2872.92,2199.15"/>
<polyline class="BarLine" fill="none" stroke="#000000" stroke-width="9.57" stroke-linejoin="bevel" points="2902.15,1980.7 2902.15,2199.15"/>
<path class="BarLine" transform="matrix(2.12598,0,0,2.12598,3618.25,2063.35)" d="M10.4,0 C10.4,-2.9 8.1,-5.3 5.2,-5.3 C2.3,-5.3 0,-2.9 0,0 C0,2.9 2.3,5.3 5.2,5.3 C8.1,5.3 10.4,2.9 10.4,0"/>
<path class="BarLine" transform="matrix(2.12598,0,0,2.12598,3618.25,2116.5)" d="M10.4,0 C10.4,-2.9 8.1,-5.3 5.2,-5.3 C2.3,-5.3 0,-2.9 0,0 C0,2.9 2.3,5.3 5.2,5.3 C8.1,5.3 10.4,2.9 10.4,0"/>
<polyline class="BarLine" fill="none" stroke="#000000" stroke-width="9.57" stroke-linejoin="bevel" points="3666.51,1980.7 3666.51,2199.15"/>
<polyline class="BarLine" fill="none" stroke="#000000" stroke-width="29.23" stroke-linejoin="bevel" points="3703.71,1980.7 3703.71,2199.15"/>
<polyline class="BarLine" fill="none" stroke="#000000" stroke-width="9.57" stroke-linejoin="bevel" points="4085.79,1980.7 4085.79,2199.15"/>
<polyline class="BarLine" fill="none" stroke="#000000" stroke-width="29.23" stroke-linejoin="bevel" points="4122.99,1980.7 4122.99,2199.15"/>
<polyline class="LedgerLine" fill="none" stroke="#000000" stroke-width="8.50" stroke-linejoin="bevel" points="2976.03,2249.37 3082.32,2249.37"/>
<polyline class="Stem" fill="none" stroke="#000000" stroke-width="5.85" stroke-linejoin="bevel" points="502.823,529.781 502.823,695.374"/>
<polyline class="Stem" fill="none" stroke="#000000" stroke-width="5.85" stroke-linejoin="bevel" points="706.288,476.631 706.288,642.224"/>
<polyline class="Stem" fill="none" stroke="#000000" stroke-width="5.85" stroke-linejoin="bevel" points="785.996,503.206 785.996,655.512"/>
<polyline class="Stem" fill="none" stroke="#000000" stroke-width="5.85" stroke-linejoin="bevel" points="1042.69,529.781 1042.69,695.374"/>
<polyline class="Stem" fill="none" stroke="#000000" stroke-width="5.85" stroke-linejoin="bevel" points="1152.39,529.781 1152.39,703.07"/>
<polyline class="Stem" fill="none" stroke="#000000" stroke-width="5.85" stroke-linejoin="bevel" points="1232.1,556.356 1232.1,708.661"/>
<polyline class="Stem" fill="none" stroke="#000000" stroke-width="5.85" stroke-linejoin="bevel" points="1311.81,582.931 1311.81,748.523"/>
<polyline class="Stem" fill="none" stroke="#000000" stroke-width="5.85" stroke-linejoin="bevel" points="1421.51,582.931 1421.51,756.219"/>
<polyline class="Stem" fill="none" stroke="#000000" stroke-width="5.85" stroke-linejoin="bevel" points="1501.22,609.505 1501.22,761.811"/>
<polyline class="Stem" fill="none" stroke="#000000" stroke-width="5.85" stroke-linejoin="bevel" points="1728.69,636.08 1728.69,775.098"/>
<polyline class="Stem" fill="none" stroke="#000000" stroke-width="5.85" stroke-linejoin="bevel" points="1825.73,689.23 1825.73,828.248"/>
<polyline class="Stem" fill="none" stroke="#000000" stroke-width="5.85" stroke-linejoin="bevel" points="2019.83,503.206 2019.83,695.374"/>
<polyline class="Stem" fill="none" stroke="#000000" stroke-width="5.85" stroke-linejoin="bevel" points="2099.54,529.781 2099.54,708.661"/>
<polyline class="Stem" fill="none" stroke="#000000" stroke-width="5.85" stroke-linejoin="bevel" points="2327,556.356 2327,748.523"/>
<polyline class="Stem" fill="none" stroke="#000000" stroke-width="5.85" stroke-linejoin="bevel" points="2436.7,556.356 2436.7,756.219"/>
<polyline class="Stem" fill="none" stroke="#000000" stroke-width="5.85" stroke-linejoin="bevel" points="2516.41,582.931 2516.41,761.811"/>
<polyline class="Stem" fill="none" stroke="#000000" stroke-width="5.85" stroke-linejoin="bevel" points="2596.12,609.505 2596.12,801.673"/>
<polyline class="Stem" fill="none" stroke="#000000" stroke-width="5.85" stroke-linejoin="bevel" points="2705.82,609.505 2705.82,809.369"/>
<polyline class="Stem" fill="none" stroke="#000000" stroke-width="5.85" stroke-linejoin="bevel" points="2785.53,636.08 2785.53,814.96"/>
<polyline class="Stem" fill="none" stroke="#000000" stroke-width="5.85" stroke-linejoin="bevel" points="3012.99,662.655 3012.99,795.029"/>
<polyline class="Stem" fill="none" stroke="#000000" stroke-width="5.85" stroke-linejoin="bevel" points="3216.46,476.631 3216.46,642.224"/>
<polyline class="Stem" fill="none" stroke="#000000" stroke-width="5.85" stroke-linejoin="bevel" points="3296.17,503.206 3296.17,655.512"/>
<polyline class="Stem" fill="none" stroke="#000000" stroke-width="5.85" stroke-linejoin="bevel" points="3523.63,529.781 3523.63,695.374"/>
<polyline class="Stem" fill="none" stroke="#000000" stroke-width="5.85" stroke-linejoin="bevel" points="3633.33,529.781 3633.33,703.07"/>
<polyline class="Stem" fill="none" stroke="#000000" stroke-width="5.85" stroke-linejoin="bevel" points="3713.04,556.356 3713.04,708.661"/>
<polyline class="Stem" fill="none" stroke="#000000" stroke-width="5.85" stroke-linejoin="bevel" points="3792.75,582.931 3792.75,748.523"/>
<polyline class="Stem" fill="none" stroke="#000000" stroke-width="5.85" stroke-linejoin="bevel" points="3902.45,582.931 3902.45,756.219"/>
<polyline class="Stem" fill="none" stroke="#000000" stroke-width="5.85" stroke-linejoin="bevel" points="3982.16,609.505 3982.16,761.811"/>
<polyline class="Stem" fill="none" stroke="#000000" stroke-width="5.85" stroke-linejoin="bevel" points="385.213,1406.44 385.213,1545.45"/>
<polyline class="Stem" fill="none" stroke="#000000" stroke-width="5.85" stroke-linejoin="bevel" points="505.199,1459.59 505.199,1598.6"/>
<polyline class="Stem" fill="none" stroke="#000000" stroke-width="5.85" stroke-linejoin="bevel" points="745.173,1273.56 745.173,1465.73"/>
<polyline class="Stem" fill="none" stroke="#000000" stroke-width="5.85" stroke-linejoin="bevel" points="824.88,1300.14 824.88,1479.02"/>
<polyline class="Stem" fill="none" stroke="#000000" stroke-width="5.85" stroke-linejoin="bevel" points="1052.34,1326.71 1052.34,1518.88"/>
<polyline class="Stem" fill="none" stroke="#000000" stroke-width="5.85" stroke-linejoin="bevel" points="1188.43,1326.71 1188.43,1527.06"/>
<polyline class="Stem" fill="none" stroke="#000000" stroke-width="5.85" stroke-linejoin="bevel" points="1273.49,1353.29 1273.49,1532.17"/>
<polyline class="Stem" fill="none" stroke="#000000" stroke-width="5.85" stroke-linejoin="bevel" points="1358.55,1379.86 1358.55,1532.17"/>
<polyline class="Stem" fill="none" stroke="#000000" stroke-width="5.85" stroke-linejoin="bevel" points="1494.63,1353.29 1494.63,1499.46"/>
<polyline class="Stem" fill="none" stroke="#000000" stroke-width="5.85" stroke-linejoin="bevel" points="1579.69,1326.71 1579.69,1479.02"/>
<polyline class="Stem" fill="none" stroke="#000000" stroke-width="5.85" stroke-linejoin="bevel" points="1807.15,1300.14 1807.15,1479.02"/>
<polyline class="Stem" fill="none" stroke="#000000" stroke-width="5.85" stroke-linejoin="bevel" points="2041.81,1379.86 2041.81,1518.88"/>
<polyline class="Stem" fill="none" stroke="#000000" stroke-width="5.85" stroke-linejoin="bevel" points="2159.14,1379.86 2159.14,1518.88"/>
<polyline class="Stem" fill="none" stroke="#000000" stroke-width="5.85" stroke-linejoin="bevel" points="2471.27,1433.01 2471.27,1585.32"/>
<polyline class="Stem" fill="none" stroke="#000000" stroke-width="5.85" stroke-linejoin="bevel" points="2588.59,1433.01 2588.59,1585.32"/>
<polyline class="Stem" fill="none" stroke="#000000" stroke-width="5.85" stroke-linejoin="bevel" points="2705.92,1406.44 2705.92,1558.74"/>
<polyline class="Stem" fill="none" stroke="#000000" stroke-width="5.85" stroke-linejoin="bevel" points="2823.25,1406.44 2823.25,1558.74"/>
<polyline class="Stem" fill="none" stroke="#000000" stroke-width="5.85" stroke-linejoin="bevel" points="3050.72,1459.59 3050.72,1598.6"/>
<polyline class="Stem" fill="none" stroke="#000000" stroke-width="5.85" stroke-linejoin="bevel" points="3168.05,1459.59 3168.05,1598.6"/>
<polyline class="Stem" fill="none" stroke="#000000" stroke-width="5.85" stroke-linejoin="bevel" points="3285.38,1406.44 3285.38,1558.74"/>
<polyline class="Stem" fill="none" stroke="#000000" stroke-width="5.85" stroke-linejoin="bevel" points="3402.71,1406.44 3402.71,1558.74"/>
<polyline class="Stem" fill="none" stroke="#000000" stroke-width="5.85" stroke-linejoin="bevel" points="3630.17,1459.59 3630.17,1598.6"/>
<polyline class="Stem" fill="none" stroke="#000000" stroke-width="5.85" stroke-linejoin="bevel" points="3747.5,1459.59 3747.5,1598.6"/>
<polyline class="Stem" fill="none" stroke="#000000" stroke-width="5.85" stroke-linejoin="bevel" points="3864.83,1379.86 3864.83,1518.88"/>
<polyline class="Stem" fill="none" stroke="#000000" stroke-width="5.85" stroke-linejoin="bevel" points="3982.16,1379.86 3982.16,1518.88"/>
<polyline class="Stem" fill="none" stroke="#000000" stroke-width="5.85" stroke-linejoin="bevel" points="385.213,2203.37 385.213,2382.25"/>
<polyline class="Stem" fill="none" stroke="#000000" stroke-width="5.85" stroke-linejoin="bevel" points="660.989,2150.22 660.989,2289.24"/>
<polyline class="Stem" fill="none" stroke="#000000" stroke-width="5.85" stroke-linejoin="bevel" points="798.877,2150.22 798.877,2289.24"/>
<polyline class="Stem" fill="none" stroke="#000000" stroke-width="5.85" stroke-linejoin="bevel" points="1026.34,2203.37 1026.34,2355.67"/>
<polyline class="Stem" fill="none" stroke="#000000" stroke-width="5.85" stroke-linejoin="bevel" points="1164.23,2203.37 1164.23,2355.67"/>
<polyline class="Stem" fill="none" stroke="#000000" stroke-width="5.85" stroke-linejoin="bevel" points="1302.12,2176.79 1302.12,2329.1"/>
<polyline class="Stem" fill="none" stroke="#000000" stroke-width="5.85" stroke-linejoin="bevel" points="1440,2176.79 1440,2329.1"/>
<polyline class="Stem" fill="none" stroke="#000000" stroke-width="5.85" stroke-linejoin="bevel" points="1667.47,2229.94 1667.47,2368.96"/>
<polyline class="Stem" fill="none" stroke="#000000" stroke-width="5.85" stroke-linejoin="bevel" points="1805.36,2229.94 1805.36,2368.96"/>
<polyline class="Stem" fill="none" stroke="#000000" stroke-width="5.85" stroke-linejoin="bevel" points="1943.24,2097.07 1943.24,2249.37"/>
<polyline class="Stem" fill="none" stroke="#000000" stroke-width="5.85" stroke-linejoin="bevel" points="2081.13,2123.64 2081.13,2262.66"/>
<polyline class="Stem" fill="none" stroke="#000000" stroke-width="5.85" stroke-linejoin="bevel" points="2308.6,2150.22 2308.6,2329.1"/>
<polyline class="Stem" fill="none" stroke="#000000" stroke-width="5.85" stroke-linejoin="bevel" points="2446.48,2176.79 2446.48,2342.39"/>
<polyline class="Stem" fill="none" stroke="#000000" stroke-width="5.85" stroke-linejoin="bevel" points="2584.37,2203.37 2584.37,2382.25"/>
<polyline class="Stem" fill="none" stroke="#000000" stroke-width="5.85" stroke-linejoin="bevel" points="2722.26,2229.94 2722.26,2395.54"/>
<polyline class="Stem" fill="none" stroke="#000000" stroke-width="5.85" stroke-linejoin="bevel" points="3060.79,2242.57 3060.79,2063.35"/>
<polyline class="Stem" fill="none" stroke="#000000" stroke-width="5.85" stroke-linejoin="bevel" points="3309.37,2150.22 3309.37,2289.24"/>
<polyline class="Stem" fill="none" stroke="#000000" stroke-width="5.85" stroke-linejoin="bevel" points="3465.27,2150.22 3465.27,2289.24"/>
<path class="Note" transform="matrix(2.12598,0,0,2.12598,499.9,522.638)" d="M31.5,-8.1 C29.7,-11.4 25.9,-13.2 21.3,-13.2 C17.9,-13.2 14.2,-12.2 10.6,-10.3 C4,-6.8 0,-0.9 0,4.2 C0,5.6 0.3,7 1,8.3 C2.8,11.6 6.6,13.3 11.2,13.3 C14.6,13.3 18.3,12.4 21.9,10.5 C28.5,7 32.5,1.1 32.5,-4 C32.5,-5.4 32.2,-6.8 31.5,-8.1"/>
<path class="Note" transform="matrix(2.12598,0,0,2.12598,703.365,469.488)" d="M31.5,-8.1 C29.7,-11.4 25.9,-13.2 21.3,-13.2 C17.9,-13.2 14.2,-12.2 10.6,-10.3 C4,-6.8 0,-0.9 0,4.2 C0,5.6 0.3,7 1,8.3 C2.8,11.6 6.6,13.3 11.2,13.3 C14.6,13.3 18.3,12.4 21.9,10.5 C28.5,7 32.5,1.1 32.5,-4 C32.5,-5.4 32.2,-6.8 31.5,-8.1"/>
<path class="Note" transform="matrix(2.12598,0,0,2.12598,783.072,496.063)" d="M31.5,-8.1 C29.7,-11.4 25.9,-13.2 21.3,-13.2 C17.9,-13.2 14.2,-12.2 10.6,-10.3 C4,-6.8 0,-0.9 0,4.2 C0,5.6 0.3,7 1,8.3 C2.8,11.6 6.6,13.3 11.2,13.3 C14.6,13.3 18.3,12.4 21.9,10.5 C28.5,7 32.5,1.1 32.5,-4 C32.5,-5.4 32.2,-6.8 31.5,-8.1"/>
<path class="Note" transform="matrix(2.12598,0,0,2.12598,1039.77,522.638)" d="M31.5,-8.1 C29.7,-11.4 25.9,-13.2 21.3,-13.2 C17.9,-13.2 14.2,-12.2 10.6,-10.3 C4,-6.8 0,-0.9 0,4.2 C0,5.6 0.3,7 1,8.3 C2.8,11.6 6.6,13.3 11.2,13.3 C14.6,13.3 18.3,12.4 21.9,10.5 C28.5,7 32.5,1.1 32.5,-4 C32.5,-5.4 32.2,-6.8 31.5,-8.1"/>
<path class="Note" transform="matrix(2.12598,0,0,2.12598,1149.47,522.638)" d="M31.5,-8.1 C29.7,-11.4 25.9,-13.2 21.3,-13.2 C17.9,-13.2 14.2,-12.2 10.6,-10.3 C4,-6.8 0,-0.9 0,4.2 C0,5.6 0.3,7 1,8.3 C2.8,11.6 6.6,13.3 11.2,13.3 C14.6,13.3 18.3,12.4 21.9,10.5 C28.5,7 32.5,1.1 32.5,-4 C32.5,-5.4 32.2,-6.8 31.5,-8.1"/>
<path class="Note" transform="matrix(2.12598,0,0,2.12598,1229.18,549.212)" d="M31.5,-8.1 C29.7,-11.4 25.9,-13.2 21.3,-13.2 C17.9,-13.2 14.2,-12.2 10.6,-10.3 C4,-6.8 0,-0.9 0,4.2 C0,5.6 0.3,7 1,8.3 C2.8,11.6 6.6,13.3 11.2,13.3 C14.6,13.3 18.3,12.4 21.9,10.5 C28.5,7 32.5,1.1 32.5,-4 C32.5,-5.4 32.2,-6.8 31.5,-8.1"/>
<path class="Note" transform="matrix(2.12598,0,0,2.12598,1308.89,575.787)" d="M31.5,-8.1 C29.7,-11.4 25.9,-13.2 21.3,-13.2 C17.9,-13.2 14.2,-12.2 10.6,-10.3 C4,-6.8 0,-0.9 0,4.2 C0,5.6 0.3,7 1,8.3 C2.8,11.6 6.6,13.3 11.2,13.3 C14.6,13.3 18.3,12.4 21.9,10.5 C28.5,7 32.5,1.1 32.5,-4 C32.5,-5.4 32.2,-6.8 31.5,-8.1"/>
<path class="Note" transform="matrix(2.12598,0,0,2.12598,1418.59,575.787)" d="M31.5,-8.1 C29.7,-11.4 25.9,-13.2 21.3,-13.2 C17.9,-13.2 14.2,-12.2 10.6,-10.3 C4,-6.8 0,-0.9 0,4.2 C0,5.6 0.3,7 1,8.3 C2.8,11.6 6.6,13.3 11.2,13.3 C14.6,13.3 18.3,12.4 21.9,10.5 C28.5,7 32.5,1.1 32.5,-4 C32.5,-5.4 32.2,-6.8 31.5,-8.1"/>
<path class="Note" transform="matrix(2.12598,0,0,2.12598,1498.3,602.362)" d="M31.5,-8.1 C29.7,-11.4 25.9,-13.2 21.3,-13.2 C17.9,-13.2 14.2,-12.2 10.6,-10.3 C4,-6.8 0,-0.9 0,4.2 C0,5.6 0.3,7 1,8.3 C2.8,11.6 6.6,13.3 11.2,13.3 C14.6,13.3 18.3,12.4 21.9,10.5 C28.5,7 32.5,1.1 32.5,-4 C32.5,-5.4 32.2,-6.8 31.5,-8.1"/>
<path class="Note" transform="matrix(2.12598,0,0,2.12598,1725.76,628.937)" d="M31.5,-8.1 C29.7,-11.4 25.9,-13.2 21.3,-13.2 C17.9,-13.2 14.2,-12.2 10.6,-10.3 C4,-6.8 0,-0.9 0,4.2 C0,5.6 0.3,7 1,8.3 C2.8,11.6 6.6,13.3 11.2,13.3 C14.6,13.3 18.3,12.4 21.9,10.5 C28.5,7 32.5,1.1 32.5,-4 C32.5,-5.4 32.2,-6.8 31.5,-8.1"/>
<path class="Note" transform="matrix(2.12598,0,0,2.12598,1822.81,682.086)" d="M31.5,-8.1 C29.7,-11.4 25.9,-13.2 21.3,-13.2 C17.9,-13.2 14.2,-12.2 10.6,-10.3 C4,-6.8 0,-0.9 0,4.2 C0,5.6 0.3,7 1,8.3 C2.8,11.6 6.6,13.3 11.2,13.3 C14.6,13.3 18.3,12.4 21.9,10.5 C28.5,7 32.5,1.1 32.5,-4 C32.5,-5.4 32.2,-6.8 31.5,-8.1"/>
<path class="Note" transform="matrix(2.12598,0,0,2.12598,2016.91,496.063)" d="M31.5,-8.1 C29.7,-11.4 25.9,-13.2 21.3,-13.2 C17.9,-13.2 14.2,-12.2 10.6,-10.3 C4,-6.8 0,-0.9 0,4.2 C0,5.6 0.3,7 1,8.3 C2.8,11.6 6.6,13.3 11.2,13.3 C14.6,13.3 18.3,12.4 21.9,10.5 C28.5,7 32.5,1.1 32.5,-4 C32.5,-5.4 32.2,-6.8 31.5,-8.1"/>
<path class="Note" transform="matrix(2.12598,0,0,2.12598,2096.61,522.638)" d="M31.5,-8.1 C29.7,-11.4 25.9,-13.2 21.3,-13.2 C17.9,-13.2 14.2,-12.2 10.6,-10.3 C4,-6.8 0,-0.9 0,4.2 C0,5.6 0.3,7 1,8.3 C2.8,11.6 6.6,13.3 11.2,13.3 C14.6,13.3 18.3,12.4 21.9,10.5 C28.5,7 32.5,1.1 32.5,-4 C32.5,-5.4 32.2,-6.8 31.5,-8.1"/>
<path class="Note" transform="matrix(2.12598,0,0,2.12598,2324.08,549.212)" d="M31.5,-8.1 C29.7,-11.4 25.9,-13.2 21.3,-13.2 C17.9,-13.2 14.2,-12.2 10.6,-10.3 C4,-6.8 0,-0.9 0,4.2 C0,5.6 0.3,7 1,8.3 C2.8,11.6 6.6,13.3 11.2,13.3 C14.6,13.3 18.3,12.4 21.9,10.5 C28.5,7 32.5,1.1 32.5,-4 C32.5,-5.4 32.2,-6.8 31.5,-8.1"/>
<path class="Note" transform="matrix(2.12598,0,0,2.12598,2433.78,549.212)" d="M31.5,-8.1 C29.7,-11.4 25.9,-13.2 21.3,-13.2 C17.9,-13.2 14.2,-12.2 10.6,-10.3 C4,-6.8 0,-0.9 0,4.2 C0,5.6 0.3,7 1,8.3 C2.8,11.6 6.6,13.3 11.2,13.3 C14.6,13.3 18.3,12.4 21.9,10.5 C28.5,7 32.5,1.1 32.5,-4 C32.5,-5.4 32.2,-6.8 31.5,-8.1"/>
<path class="Note" transform="matrix(2.12598,0,0,2.12598,2513.49,575.787)" d="M31.5,-8.1 C29.7,-11.4 25.9,-13.2 21.3,-13.2 C17.9,-13.2 14.2,-12.2 10.6,-10.3 C4,-6.8 0,-0.9 0,4.2 C0,5.6 0.3,7 1,8.3 C2.8,11.6 6.6,13.3 11.2,13.3 C14.6,13.3 18.3,12.4 21.9,10.5 C28.5,7 32.5,1.1 32.5,-4 C32.5,-5.4 32.2,-6.8 31.5,-8.1"/>
<path class="Note" transform="matrix(2.12598,0,0,2.12598,2593.2,602.362)" d="M31.5,-8.1 C29.7,-11.4 25.9,-13.2 21.3,-13.2 C17.9,-13.2 14.2,-12.2 10.6,-10.3 C4,-6.8 0,-0.9 0,4.2 C0,5.6 0.3,7 1,8.3 C2.8,11.6 6.6,13.3 11.2,13.3 C14.6,13.3 18.3,12.4 21.9,10.5 C28.5,7 32.5,1.1 32.5,-4 C32.5,-5.4 32.2,-6.8 31.5,-8.1"/>
<path class="Note" transform="matrix(2.12598,0,0,2.12598,2702.9,602.362)" d="M31.5,-8.1 C29.7,-11.4 25.9,-13.2 21.3,-13.2 C17.9,-13.2 14.2,-12.2 10.6,-10.3 C4,-6.8 0,-0.9 0,4.2 C0,5.6 0.3,7 1,8.3 C2.8,11.6 6.6,13.3 11.2,13.3 C14.6,13.3 18.3,12.4 21.9,10.5 C28.5,7 32.5,1.1 32.5,-4 C32.5,-5.4 32.2,-6.8 31.5,-8.1"/>
<path class="Note" transform="matrix(2.12598,0,0,2.12598,2782.61,628.937)" d="M31.5,-8.1 C29.7,-11.4 25.9,-13.2 21.3,-13.2 C17.9,-13.2 14.2,-12.2 10.6,-10.3 C4,-6.8 0,-0.9 0,4.2 C0,5.6 0.3,7 1,8.3 C2.8,11.6 6.6,13.3 11.2,13.3 C14.6,13.3 18.3,12.4 21.9,10.5 C28.5,7 32.5,1.1 32.5,-4 C32.5,-5.4 32.2,-6.8 31.5,-8.1"/>
<path class="Note" transform="matrix(2.12598,0,0,2.12598,3010.07,655.512)" d="M31.5,-8.1 C29.7,-11.4 25.9,-13.2 21.3,-13.2 C17.9,-13.2 14.2,-12.2 10.6,-10.3 C4,-6.8 0,-0.9 0,4.2 C0,5.6 0.3,7 1,8.3 C2.8,11.6 6.6,13.3 11.2,13.3 C14.6,13.3 18.3,12.4 21.9,10.5 C28.5,7 32.5,1.1 32.5,-4 C32.5,-5.4 32.2,-6.8 31.5,-8.1"/>
<path class="Note" transform="matrix(2.12598,0,0,2.12598,3213.54,469.488)" d="M31.5,-8.1 C29.7,-11.4 25.9,-13.2 21.3,-13.2 C17.9,-13.2 14.2,-12.2 10.6,-10.3 C4,-6.8 0,-0.9 0,4.2 C0,5.6 0.3,7 1,8.3 C2.8,11.6 6.6,13.3 11.2,13.3 C14.6,13.3 18.3,12.4 21.9,10.5 C28.5,7 32.5,1.1 32.5,-4 C32.5,-5.4 32.2,-6.8 31.5,-8.1"/>
<path class="Note" transform="matrix(2.12598,0,0,2.12598,3293.24,496.063)" d="M31.5,-8.1 C29.7,-11.4 25.9,-13.2 21.3,-13.2 C17.9,-13.2 14.2,-12.2 10.6,-10.3 C4,-6.8 0,-0.9 0,4.2 C0,5.6 0.3,7 1,8.3 C2.8,11.6 6.6,13.3 11.2,13.3 C14.6,13.3 18.3,12.4 21.9,10.5 C28.5,7 32.5,1.1 32.5,-4 C32.5,-5.4 32.2,-6.8 31.5,-8.1"/>
<path class="Note" transform="matrix(2.12598,0,0,2.12598,3520.71,522.638)" d="M31.5,-8.1 C29.7,-11.4 25.9,-13.2 21.3,-13.2 C17.9,-13.2 14.2,-12.2 10.6,-10.3 C4,-6.8 0,-0.9 0,4.2 C0,5.6 0.3,7 1,8.3 C2.8,11.6 6.6,13.3 11.2,13.3 C14.6,13.3 18.3,12.4 21.9,10.5 C28.5,7 32.5,1.1 32.5,-4 C32.5,-5.4 32.2,-6.8 31.5,-8.1"/>
<path class="Note" transform="matrix(2.12598,0,0,2.12598,3630.41,522.638)" d="M31.5,-8.1 C29.7,-11.4 25.9,-13.2 21.3,-13.2 C17.9,-13.2 14.2,-12.2 10.6,-10.3 C4,-6.8 0,-0.9 0,4.2 C0,5.6 0.3,7 1,8.3 C2.8,11.6 6.6,13.3 11.2,13.3 C14.6,13.3 18.3,12.4 21.9,10.5 C28.5,7 32.5,1.1 32.5,-4 C32.5,-5.4 32.2,-6.8 31.5,-8.1"/>
<path class="Note" transform="matrix(2.12598,0,0,2.12598,3710.12,549.212)" d="M31.5,-8.1 C29.7,-11.4 25.9,-13.2 21.3,-13.2 C17.9,-13.2 14.2,-12.2 10.6,-10.3 C4,-6.8 0,-0.9 0,4.2 C0,5.6 0.3,7 1,8.3 C2.8,11.6 6.6,13.3 11.2,13.3 C14.6,13.3 18.3,12.4 21.9,10.5 C28.5,7 32.5,1.1 32.5,-4 C32.5,-5.4 32.2,-6.8 31.5,-8.1"/>
<path class="Note" transform="matrix(2.12598,0,0,2.12598,3789.83,575.787)" d="M31.5,-8.1 C29.7,-11.4 25.9,-13.2 21.3,-13.2 C17.9,-13.2 14.2,-12.2 10.6,-10.3 C4,-6.8 0,-0.9 0,4.2 C0,5.6 0.3,7 1,8.3 C2.8,11.6 6.6,13.3 11.2,13.3 C14.6,13.3 18.3,12.4 21.9,10.5 C28.5,7 32.5,1.1 32.5,-4 C32.5,-5.4 32.2,-6.8 31.5,-8.1"/>
<path class="Note" transform="matrix(2.12598,0,0,2.12598,3899.53,575.787)" d="M31.5,-8.1 C29.7,-11.4 25.9,-13.2 21.3,-13.2 C17.9,-13.2 14.2,-12.2 10.6,-10.3 C4,-6.8 0,-0.9 0,4.2 C0,5.6 0.3,7 1,8.3 C2.8,11.6 6.6,13.3 11.2,13.3 C14.6,13.3 18.3,12.4 21.9,10.5 C28.5,7 32.5,1.1 32.5,-4 C32.5,-5.4 32.2,-6.8 31.5,-8.1"/>
<path class="Note" transform="matrix(2.12598,0,0,2.12598,3979.24,602.362)" d="M31.5,-8.1 C29.7,-11.4 25.9,-13.2 21.3,-13.2 C17.9,-13.2 14.2,-12.2 10.6,-10.3 C4,-6.8 0,-0.9 0,4.2 C0,5.6 0.3,7 1,8.3 C2.8,11.6 6.6,13.3 11.2,13.3 C14.6,13.3 18.3,12.4 21.9,10.5 C28.5,7 32.5,1.1 32.5,-4 C32.5,-5.4 32.2,-6.8 31.5,-8.1"/>
<path class="Note" transform="matrix(2.12598,0,0,2.12598,382.289,1399.29)" d="M31.5,-8.1 C29.7,-11.4 25.9,-13.2 21.3,-13.2 C17.9,-13.2 14.2,-12.2 10.6,-10.3 C4,-6.8 0,-0.9 0,4.2 C0,5.6 0.3,7 1,8.3 C2.8,11.6 6.6,13.3 11.2,13.3 C14.6,13.3 18.3,12.4 21.9,10.5 C28.5,7 32.5,1.1 32.5,-4 C32.5,-5.4 32.2,-6.8 31.5,-8.1"/>
<path class="Note" transform="matrix(2.12598,0,0,2.12598,502.276,1452.44)" d="M31.5,-8.1 C29.7,-11.4 25.9,-13.2 21.3,-13.2 C17.9,-13.2 14.2,-12.2 10.6,-10.3 C4,-6.8 0,-0.9 0,4.2 C0,5.6 0.3,7 1,8.3 C2.8,11.6 6.6,13.3 11.2,13.3 C14.6,13.3 18.3,12.4 21.9,10.5 C28.5,7 32.5,1.1 32.5,-4 C32.5,-5.4 32.2,-6.8 31.5,-8.1"/>
<path class="Note" transform="matrix(2.12598,0,0,2.12598,742.249,1266.42)" d="M31.5,-8.1 C29.7,-11.4 25.9,-13.2 21.3,-13.2 C17.9,-13.2 14.2,-12.2 10.6,-10.3 C4,-6.8 0,-0.9 0,4.2 C0,5.6 0.3,7 1,8.3 C2.8,11.6 6.6,13.3 11.2,13.3 C14.6,13.3 18.3,12.4 21.9,10.5 C28.5,7 32.5,1.1 32.5,-4 C32.5,-5.4 32.2,-6.8 31.5,-8.1"/>
<path class="Note" transform="matrix(2.12598,0,0,2.12598,821.957,1292.99)" d="M31.5,-8.1 C29.7,-11.4 25.9,-13.2 21.3,-13.2 C17.9,-13.2 14.2,-12.2 10.6,-10.3 C4,-6.8 0,-0.9 0,4.2 C0,5.6 0.3,7 1,8.3 C2.8,11.6 6.6,13.3 11.2,13.3 C14.6,13.3 18.3,12.4 21.9,10.5 C28.5,7 32.5,1.1 32.5,-4 C32.5,-5.4 32.2,-6.8 31.5,-8.1"/>
<path class="Note" transform="matrix(2.12598,0,0,2.12598,1049.42,1319.57)" d="M31.5,-8.1 C29.7,-11.4 25.9,-13.2 21.3,-13.2 C17.9,-13.2 14.2,-12.2 10.6,-10.3 C4,-6.8 0,-0.9 0,4.2 C0,5.6 0.3,7 1,8.3 C2.8,11.6 6.6,13.3 11.2,13.3 C14.6,13.3 18.3,12.4 21.9,10.5 C28.5,7 32.5,1.1 32.5,-4 C32.5,-5.4 32.2,-6.8 31.5,-8.1"/>
<path class="Note" transform="matrix(2.12598,0,0,2.12598,1185.51,1319.57)" d="M31.5,-8.1 C29.7,-11.4 25.9,-13.2 21.3,-13.2 C17.9,-13.2 14.2,-12.2 10.6,-10.3 C4,-6.8 0,-0.9 0,4.2 C0,5.6 0.3,7 1,8.3 C2.8,11.6 6.6,13.3 11.2,13.3 C14.6,13.3 18.3,12.4 21.9,10.5 C28.5,7 32.5,1.1 32.5,-4 C32.5,-5.4 32.2,-6.8 31.5,-8.1"/>
<path class="Note" transform="matrix(2.12598,0,0,2.12598,1270.57,1346.14)" d="M31.5,-8.1 C29.7,-11.4 25.9,-13.2 21.3,-13.2 C17.9,-13.2 14.2,-12.2 10.6,-10.3 C4,-6.8 0,-0.9 0,4.2 C0,5.6 0.3,7 1,8.3 C2.8,11.6 6.6,13.3 11.2,13.3 C14.6,13.3 18.3,12.4 21.9,10.5 C28.5,7 32.5,1.1 32.5,-4 C32.5,-5.4 32.2,-6.8 31.5,-8.1"/>
<path class="Note" transform="matrix(2.12598,0,0,2.12598,1355.62,1372.72)" d="M31.5,-8.1 C29.7,-11.4 25.9,-13.2 21.3,-13.2 C17.9,-13.2 14.2,-12.2 10.6,-10.3 C4,-6.8 0,-0.9 0,4.2 C0,5.6 0.3,7 1,8.3 C2.8,11.6 6.6,13.3 11.2,13.3 C14.6,13.3 18.3,12.4 21.9,10.5 C28.5,7 32.5,1.1 32.5,-4 C32.5,-5.4 32.2,-6.8 31.5,-8.1"/>
<path class="Note" transform="matrix(2.12598,0,0,2.12598,1491.71,1346.14)" d="M31.5,-8.1 C29.7,-11.4 25.9,-13.2 21.3,-13.2 C17.9,-13.2 14.2,-12.2 10.6,-10.3 C4,-6.8 0,-0.9 0,4.2 C0,5.6 0.3,7 1,8.3 C2.8,11.6 6.6,13.3 11.2,13.3 C14.6,13.3 18.3,12.4 21.9,10.5 C28.5,7 32.5,1.1 32.5,-4 C32.5,-5.4 32.2,-6.8 31.5,-8.1"/>
<path class="Note" transform="matrix(2.12598,0,0,2.12598,1576.77,1319.57)" d="M31.5,-8.1 C29.7,-11.4 25.9,-13.2 21.3,-13.2 C17.9,-13.2 14.2,-12.2 10.6,-10.3 C4,-6.8 0,-0.9 0,4.2 C0,5.6 0.3,7 1,8.3 C2.8,11.6 6.6,13.3 11.2,13.3 C14.6,13.3 18.3,12.4 21.9,10.5 C28.5,7 32.5,1.1 32.5,-4 C32.5,-5.4 32.2,-6.8 31.5,-8.1"/>
<path class="Note" transform="matrix(2.12598,0,0,2.12598,1804.23,1292.99)" d="M31.5,-8.1 C29.7,-11.4 25.9,-13.2 21.3,-13.2 C17.9,-13.2 14.2,-12.2 10.6,-10.3 C4,-6.8 0,-0.9 0,4.2 C0,5.6 0.3,7 1,8.3 C2.8,11.6 6.6,13.3 11.2,13.3 C14.6,13.3 18.3,12.4 21.9,10.5 C28.5,7 32.5,1.1 32.5,-4 C32.5,-5.4 32.2,-6.8 31.5,-8.1"/>
<path class="Note" transform="matrix(2.12598,0,0,2.12598,2038.89,1372.72)" d="M31.5,-8.1 C29.7,-11.4 25.9,-13.2 21.3,-13.2 C17.9,-13.2 14.2,-12.2 10.6,-10.3 C4,-6.8 0,-0.9 0,4.2 C0,5.6 0.3,7 1,8.3 C2.8,11.6 6.6,13.3 11.2,13.3 C14.6,13.3 18.3,12.4 21.9,10.5 C28.5,7 32.5,1.1 32.5,-4 C32.5,-5.4 32.2,-6.8 31.5,-8.1"/>
<path class="Note" transform="matrix(2.12598,0,0,2.12598,2156.22,1372.72)" d="M31.5,-8.1 C29.7,-11.4 25.9,-13.2 21.3,-13.2 C17.9,-13.2 14.2,-12.2 10.6,-10.3 C4,-6.8 0,-0.9 0,4.2 C0,5.6 0.3,7 1,8.3 C2.8,11.6 6.6,13.3 11.2,13.3 C14.6,13.3 18.3,12.4 21.9,10.5 C28.5,7 32.5,1.1 32.5,-4 C32.5,-5.4 32.2,-6.8 31.5,-8.1"/>
<path class="Note" transform="matrix(2.12598,0,0,2.12598,2468.34,1425.87)" d="M31.5,-8.1 C29.7,-11.4 25.9,-13.2 21.3,-13.2 C17.9,-13.2 14.2,-12.2 10.6,-10.3 C4,-6.8 0,-0.9 0,4.2 C0,5.6 0.3,7 1,8.3 C2.8,11.6 6.6,13.3 11.2,13.3 C14.6,13.3 18.3,12.4 21.9,10.5 C28.5,7 32.5,1.1 32.5,-4 C32.5,-5.4 32.2,-6.8 31.5,-8.1"/>
<path class="Note" transform="matrix(2.12598,0,0,2.12598,2585.67,1425.87)" d="M31.5,-8.1 C29.7,-11.4 25.9,-13.2 21.3,-13.2 C17.9,-13.2 14.2,-12.2 10.6,-10.3 C4,-6.8 0,-0.9 0,4.2 C0,5.6 0.3,7 1,8.3 C2.8,11.6 6.6,13.3 11.2,13.3 C14.6,13.3 18.3,12.4 21.9,10.5 C28.5,7 32.5,1.1 32.5,-4 C32.5,-5.4 32.2,-6.8 31.5,-8.1"/>
<path class="Note" transform="matrix(2.12598,0,0,2.12598,2703,1399.29)" d="M31.5,-8.1 C29.7,-11.4 25.9,-13.2 21.3,-13.2 C17.9,-13.2 14.2,-12.2 10.6,-10.3 C4,-6.8 0,-0.9 0,4.2 C0,5.6 0.3,7 1,8.3 C2.8,11.6 6.6,13.3 11.2,13.3 C14.6,13.3 18.3,12.4 21.9,10.5 C28.5,7 32.5,1.1 32.5,-4 C32.5,-5.4 32.2,-6.8 31.5,-8.1"/>
<path class="Note" transform="matrix(2.12598,0,0,2.12598,2820.33,1399.29)" d="M31.5,-8.1 C29.7,-11.4 25.9,-13.2 21.3,-13.2 C17.9,-13.2 14.2,-12.2 10.6,-10.3 C4,-6.8 0,-0.9 0,4.2 C0,5.6 0.3,7 1,8.3 C2.8,11.6 6.6,13.3 11.2,13.3 C14.6,13.3 18.3,12.4 21.9,10.5 C28.5,7 32.5,1.1 32.5,-4 C32.5,-5.4 32.2,-6.8 31.5,-8.1"/>
<path class="Note" transform="matrix(2.12598,0,0,2.12598,3047.79,1452.44)" d="M31.5,-8.1 C29.7,-11.4 25.9,-13.2 21.3,-13.2 C17.9,-13.2 14.2,-12.2 10.6,-10.3 C4,-6.8 0,-0.9 0,4.2 C0,5.6 0.3,7 1,8.3 C2.8,11.6 6.6,13.3 11.2,13.3 C14.6,13.3 18.3,12.4 21.9,10.5 C28.5,7 32.5,1.1 32.5,-4 C32.5,-5.4 32.2,-6.8 31.5,-8.1"/>
<path class="Note" transform="matrix(2.12598,0,0,2.12598,3165.12,1452.44)" d="M31.5,-8.1 C29.7,-11.4 25.9,-13.2 21.3,-13.2 C17.9,-13.2 14.2,-12.2 10.6,-10.3 C4,-6.8 0,-0.9 0,4.2 C0,5.6 0.3,7 1,8.3 C2.8,11.6 6.6,13.3 11.2,13.3 C14.6,13.3 18.3,12.4 21.9,10.5 C28.5,7 32.5,1.1 32.5,-4 C32.5,-5.4 32.2,-6.8 31.5,-8.1"/>
<path class="Note" transform="matrix(2.12598,0,0,2.12598,3282.45,1399.29)" d="M31.5,-8.1 C29.7,-11.4 25.9,-13.2 21.3,-13.2 C17.9,-13.2 14.2,-12.2 10.6,-10.3 C4,-6.8 0,-0.9 0,4.2 C0,5.6 0.3,7 1,8.3 C2.8,11.6 6.6,13.3 11.2,13.3 C14.6,13.3 18.3,12.4 21.9,10.5 C28.5,7 32.5,1.1 32.5,-4 C32.5,-5.4 32.2,-6.8 31.5,-8.1"/>
<path class="Note" transform="matrix(2.12598,0,0,2.12598,3399.78,1399.29)" d="M31.5,-8.1 C29.7,-11.4 25.9,-13.2 21.3,-13.2 C17.9,-13.2 14.2,-12.2 10.6,-10.3 C4,-6.8 0,-0.9 0,4.2 C0,5.6 0.3,7 1,8.3 C2.8,11.6 6.6,13.3 11.2,13.3 C14.6,13.3 18.3,12.4 21.9,10.5 C28.5,7 32.5,1.1 32.5,-4 C32.5,-5.4 32.2,-6.8 31.5,-8.1"/>
<path class="Note" transform="matrix(2.12598,0,0,2.12598,3627.25,1452.44)" d="M31.5,-8.1 C29.7,-11.4 25.9,-13.2 21.3,-13.2 C17.9,-13.2 14.2,-12.2 10.6,-10.3 C4,-6.8 0,-0.9 0,4.2 C0,5.6 0.3,7 1,8.3 C2.8,11.6 6.6,13.3 11.2,13.3 C14.6,13.3 18.3,12.4 21.9,10.5 C28.5,7 32.5,1.1 32.5,-4 C32.5,-5.4 32.2,-6.8 31.5,-8.1"/>
<path class="Note" transform="matrix(2.12598,0,0,2.12598,3744.58,1452.44)" d="M31.5,-8.1 C29.7,-11.4 25.9,-13.2 21.3,-13.2 C17.9,-13.2 14.2,-12.2 10.6,-10.3 C4,-6.8 0,-0.9 0,4.2 C0,5.6 0.3,7 1,8.3 C2.8,11.6 6.6,13.3 11.2,13.3 C14.6,13.3 18.3,12.4 21.9,10.5 C28.5,7 32.5,1.1 32.5,-4 C32.5,-5.4 32.2,-6.8 31.5,-8.1"/>
<path class="Note" transform="matrix(2.12598,0,0,2.12598,3861.91,1372.72)" d="M31.5,-8.1 C29.7,-11.4 25.9,-13.2 21.3,-13.2 C17.9,-13.2 14.2,-12.2 10.6,-10.3 C4,-6.8 0,-0.9 0,4.2 C0,5.6 0.3,7 1,8.3 C2.8,11.6 6.6,13.3 11.2,13.3 C14.6,13.3 18.3,12.4 21.9,10.5 C28.5,7 32.5,1.1 32.5,-4 C32.5,-5.4 32.2,-6.8 31.5,-8.1"/>
<path class="Note" transform="matrix(2.12598,0,0,2.12598,3979.24,1372.72)" d="M31.5,-8.1 C29.7,-11.4 25.9,-13.2 21.3,-13.2 C17.9,-13.2 14.2,-12.2 10.6,-10.3 C4,-6.8 0,-0.9 0,4.2 C0,5.6 0.3,7 1,8.3 C2.8,11.6 6.6,13.3 11.2,13.3 C14.6,13.3 18.3,12.4 21.9,10.5 C28.5,7 32.5,1.1 32.5,-4 C32.5,-5.4 32.2,-6.8 31.5,-8.1"/>
<path class="Note" transform="matrix(2.12598,0,0,2.12598,382.289,2196.22)" d="M31.5,-8.1 C29.7,-11.4 25.9,-13.2 21.3,-13.2 C17.9,-13.2 14.2,-12.2 10.6,-10.3 C4,-6.8 0,-0.9 0,4.2 C0,5.6 0.3,7 1,8.3 C2.8,11.6 6.6,13.3 11.2,13.3 C14.6,13.3 18.3,12.4 21.9,10.5 C28.5,7 32.5,1.1 32.5,-4 C32.5,-5.4 32.2,-6.8 31.5,-8.1"/>
<path class="Note" transform="matrix(2.12598,0,0,2.12598,658.066,2143.07)" d="M31.5,-8.1 C29.7,-11.4 25.9,-13.2 21.3,-13.2 C17.9,-13.2 14.2,-12.2 10.6,-10.3 C4,-6.8 0,-0.9 0,4.2 C0,5.6 0.3,7 1,8.3 C2.8,11.6 6.6,13.3 11.2,13.3 C14.6,13.3 18.3,12.4 21.9,10.5 C28.5,7 32.5,1.1 32.5,-4 C32.5,-5.4 32.2,-6.8 31.5,-8.1"/>
<path class="Note" transform="matrix(2.12598,0,0,2.12598,795.954,2143.07)" d="M31.5,-8.1 C29.7,-11.4 25.9,-13.2 21.3,-13.2 C17.9,-13.2 14.2,-12.2 10.6,-10.3 C4,-6.8 0,-0.9 0,4.2 C0,5.6 0.3,7 1,8.3 C2.8,11.6 6.6,13.3 11.2,13.3 C14.6,13.3 18.3,12.4 21.9,10.5 C28.5,7 32.5,1.1 32.5,-4 C32.5,-5.4 32.2,-6.8 31.5,-8.1"/>
<path class="Note" transform="matrix(2.12598,0,0,2.12598,1023.42,2196.22)" d="M31.5,-8.1 C29.7,-11.4 25.9,-13.2 21.3,-13.2 C17.9,-13.2 14.2,-12.2 10.6,-10.3 C4,-6.8 0,-0.9 0,4.2 C0,5.6 0.3,7 1,8.3 C2.8,11.6 6.6,13.3 11.2,13.3 C14.6,13.3 18.3,12.4 21.9,10.5 C28.5,7 32.5,1.1 32.5,-4 C32.5,-5.4 32.2,-6.8 31.5,-8.1"/>
<path class="Note" transform="matrix(2.12598,0,0,2.12598,1161.31,2196.22)" d="M31.5,-8.1 C29.7,-11.4 25.9,-13.2 21.3,-13.2 C17.9,-13.2 14.2,-12.2 10.6,-10.3 C4,-6.8 0,-0.9 0,4.2 C0,5.6 0.3,7 1,8.3 C2.8,11.6 6.6,13.3 11.2,13.3 C14.6,13.3 18.3,12.4 21.9,10.5 C28.5,7 32.5,1.1 32.5,-4 C32.5,-5.4 32.2,-6.8 31.5,-8.1"/>
<path class="Note" transform="matrix(2.12598,0,0,2.12598,1299.19,2169.65)" d="M31.5,-8.1 C29.7,-11.4 25.9,-13.2 21.3,-13.2 C17.9,-13.2 14.2,-12.2 10.6,-10.3 C4,-6.8 0,-0.9 0,4.2 C0,5.6 0.3,7 1,8.3 C2.8,11.6 6.6,13.3 11.2,13.3 C14.6,13.3 18.3,12.4 21.9,10.5 C28.5,7 32.5,1.1 32.5,-4 C32.5,-5.4 32.2,-6.8 31.5,-8.1"/>
<path class="Note" transform="matrix(2.12598,0,0,2.12598,1437.08,2169.65)" d="M31.5,-8.1 C29.7,-11.4 25.9,-13.2 21.3,-13.2 C17.9,-13.2 14.2,-12.2 10.6,-10.3 C4,-6.8 0,-0.9 0,4.2 C0,5.6 0.3,7 1,8.3 C2.8,11.6 6.6,13.3 11.2,13.3 C14.6,13.3 18.3,12.4 21.9,10.5 C28.5,7 32.5,1.1 32.5,-4 C32.5,-5.4 32.2,-6.8 31.5,-8.1"/>
<path class="Note" transform="matrix(2.12598,0,0,2.12598,1664.54,2222.8)" d="M31.5,-8.1 C29.7,-11.4 25.9,-13.2 21.3,-13.2 C17.9,-13.2 14.2,-12.2 10.6,-10.3 C4,-6.8 0,-0.9 0,4.2 C0,5.6 0.3,7 1,8.3 C2.8,11.6 6.6,13.3 11.2,13.3 C14.6,13.3 18.3,12.4 21.9,10.5 C28.5,7 32.5,1.1 32.5,-4 C32.5,-5.4 32.2,-6.8 31.5,-8.1"/>
<path class="Note" transform="matrix(2.12598,0,0,2.12598,1802.43,2222.8)" d="M31.5,-8.1 C29.7,-11.4 25.9,-13.2 21.3,-13.2 C17.9,-13.2 14.2,-12.2 10.6,-10.3 C4,-6.8 0,-0.9 0,4.2 C0,5.6 0.3,7 1,8.3 C2.8,11.6 6.6,13.3 11.2,13.3 C14.6,13.3 18.3,12.4 21.9,10.5 C28.5,7 32.5,1.1 32.5,-4 C32.5,-5.4 32.2,-6.8 31.5,-8.1"/>
<path class="Note" transform="matrix(2.12598,0,0,2.12598,1940.32,2089.93)" d="M31.5,-8.1 C29.7,-11.4 25.9,-13.2 21.3,-13.2 C17.9,-13.2 14.2,-12.2 10.6,-10.3 C4,-6.8 0,-0.9 0,4.2 C0,5.6 0.3,7 1,8.3 C2.8,11.6 6.6,13.3 11.2,13.3 C14.6,13.3 18.3,12.4 21.9,10.5 C28.5,7 32.5,1.1 32.5,-4 C32.5,-5.4 32.2,-6.8 31.5,-8.1"/>
<path class="Note" transform="matrix(2.12598,0,0,2.12598,2078.21,2116.5)" d="M31.5,-8.1 C29.7,-11.4 25.9,-13.2 21.3,-13.2 C17.9,-13.2 14.2,-12.2 10.6,-10.3 C4,-6.8 0,-0.9 0,4.2 C0,5.6 0.3,7 1,8.3 C2.8,11.6 6.6,13.3 11.2,13.3 C14.6,13.3 18.3,12.4 21.9,10.5 C28.5,7 32.5,1.1 32.5,-4 C32.5,-5.4 32.2,-6.8 31.5,-8.1"/>
<path class="Note" transform="matrix(2.12598,0,0,2.12598,2305.67,2143.07)" d="M31.5,-8.1 C29.7,-11.4 25.9,-13.2 21.3,-13.2 C17.9,-13.2 14.2,-12.2 10.6,-10.3 C4,-6.8 0,-0.9 0,4.2 C0,5.6 0.3,7 1,8.3 C2.8,11.6 6.6,13.3 11.2,13.3 C14.6,13.3 18.3,12.4 21.9,10.5 C28.5,7 32.5,1.1 32.5,-4 C32.5,-5.4 32.2,-6.8 31.5,-8.1"/>
<path class="Note" transform="matrix(2.12598,0,0,2.12598,2443.56,2169.65)" d="M31.5,-8.1 C29.7,-11.4 25.9,-13.2 21.3,-13.2 C17.9,-13.2 14.2,-12.2 10.6,-10.3 C4,-6.8 0,-0.9 0,4.2 C0,5.6 0.3,7 1,8.3 C2.8,11.6 6.6,13.3 11.2,13.3 C14.6,13.3 18.3,12.4 21.9,10.5 C28.5,7 32.5,1.1 32.5,-4 C32.5,-5.4 32.2,-6.8 31.5,-8.1"/>
<path class="Note" transform="matrix(2.12598,0,0,2.12598,2581.45,2196.22)" d="M31.5,-8.1 C29.7,-11.4 25.9,-13.2 21.3,-13.2 C17.9,-13.2 14.2,-12.2 10.6,-10.3 C4,-6.8 0,-0.9 0,4.2 C0,5.6 0.3,7 1,8.3 C2.8,11.6 6.6,13.3 11.2,13.3 C14.6,13.3 18.3,12.4 21.9,10.5 C28.5,7 32.5,1.1 32.5,-4 C32.5,-5.4 32.2,-6.8 31.5,-8.1"/>
<path class="Note" transform="matrix(2.12598,0,0,2.12598,2719.34,2222.8)" d="M31.5,-8.1 C29.7,-11.4 25.9,-13.2 21.3,-13.2 C17.9,-13.2 14.2,-12.2 10.6,-10.3 C4,-6.8 0,-0.9 0,4.2 C0,5.6 0.3,7 1,8.3 C2.8,11.6 6.6,13.3 11.2,13.3 C14.6,13.3 18.3,12.4 21.9,10.5 C28.5,7 32.5,1.1 32.5,-4 C32.5,-5.4 32.2,-6.8 31.5,-8.1"/>
<path class="Note" transform="matrix(2.12598,0,0,2.12598,2994.64,2249.37)" d="M31.5,-8.1 C29.7,-11.4 25.9,-13.2 21.3,-13.2 C17.9,-13.2 14.2,-12.2 10.6,-10.3 C4,-6.8 0,-0.9 0,4.2 C0,5.6 0.3,7 1,8.3 C2.8,11.6 6.6,13.3 11.2,13.3 C14.6,13.3 18.3,12.4 21.9,10.5 C28.5,7 32.5,1.1 32.5,-4 C32.5,-5.4 32.2,-6.8 31.5,-8.1"/>
<path class="Note" transform="matrix(2.12598,0,0,2.12598,3306.44,2143.07)" d="M31.5,-8.1 C29.7,-11.4 25.9,-13.2 21.3,-13.2 C17.9,-13.2 14.2,-12.2 10.6,-10.3 C4,-6.8 0,-0.9 0,4.2 C0,5.6 0.3,7 1,8.3 C2.8,11.6 6.6,13.3 11.2,13.3 C14.6,13.3 18.3,12.4 21.9,10.5 C28.5,7 32.5,1.1 32.5,-4 C32.5,-5.4 32.2,-6.8 31.5,-8.1"/>
<path class="Note" transform="matrix(2.12598,0,0,2.12598,3462.35,2143.07)" d="M31.5,-8.1 C29.7,-11.4 25.9,-13.2 21.3,-13.2 C17.9,-13.2 14.2,-12.2 10.6,-10.3 C4,-6.8 0,-0.9 0,4.2 C0,5.6 0.3,7 1,8.3 C2.8,11.6 6.6,13.3 11.2,13.3 C14.6,13.3 18.3,12.4 21.9,10.5 C28.5,7 32.5,1.1 32.5,-4 C32.5,-5.4 32.2,-6.8 31.5,-8.1"/>
<path class="Clef" transform="matrix(2.12598,0,0,2.12598,113.386,602.362)" d="M63.35,-5.86992 C62.12,-11.3 59.48,-15.1199 58.7,-16.16 C55.51,-20.43 51.5,-23.28 46.81,-24.63 C43.7,-25.5199 40.7,-25.63 38.28,-25.45 C37.24,-31.46 36.24,-37.3399 35.33,-42.7899 C40.78,-48.96 44.4,-54.76 46.68,-59.06 C50.15,-65.6399 51.3,-70.2199 51.35,-70.4199 C53.07,-75.63 53.43,-83.33 52.33,-91.5399 C51.32,-99.0899 49.23,-105.8 46.88,-109.05 C45.85,-110.48 44.8,-111.21 43.76,-111.21 C42.54,-111.21 40.03,-109.97 37.14,-107.2 C34.84,-105 31.57,-101.11 29.01,-95.1 C26.01,-88.0399 25.8,-78.55 26.15,-71.83 C26.53,-64.56 27.64,-58.8699 27.65,-58.8199 C27.67,-58.73 27.93,-57.23 28.38,-54.66 C28.15,-54.43 27.91,-54.21 27.66,-53.9699 C26.62,-52.9699 25.43,-51.83 24.05,-50.45 C23.19,-49.5899 22.24,-48.68 21.24,-47.71 C12.79,-39.5699 0,-27.25 0,-8.1 C0,-3.4 0.9,1.02002 2.67998,5.03008 C4.27002,8.63008 6.57002,11.9101 9.5,14.7801 C17.23,22.3301 27.82,25.54 34.88,25.3801 C37.83,25.3101 40.46,25.07 42.85,24.62 C44.68,34.22 45.82,41.25 45.86,46.59 C45.9,53.1 44.25,57.07 40.35,59.84 C37.92,61.57 35.11,62.52 32.01,62.67 C29.42,62.79 27.16,62.32 25.73,61.9101 L25.72,61.9101 C25.72,61.9101 25.43,61.8301 25.42,61.6301 C25.41,61.45 25.76,61.4 25.77,61.4 L25.79,61.4 C27.71,60.9601 31.28,59.7301 33.64,56.4301 C35.44,53.9101 36.31,49.29 34.47,45.35 C33.36,42.9601 30.85,40.0101 25.23,39.5601 C22.74,39.3601 20.47,39.87 18.47,41.07 C16.66,42.15 15.16,43.79 14.11,45.79 C11.65,50.49 12.11,56.22 15.24,60.0601 C18.2,63.6801 22.82,65.99 28.25,66.57 C29.1,66.6601 29.95,66.7 30.8,66.7 C35.23,66.7 39.63,65.5 43.2,63.29 C46.86,60.72 48.98,56.74 49.66,51.1101 C50.22,46.47 49.83,40.5601 48.43,32.49 C48.07,30.4 47.53,27.37 46.87,23.6101 C52.62,21.69 56.78,18.12 60.55,12.27 C63.84,6.53008 64.78,0.430078 63.35,-5.86992 M29.14,20.32 C24.5,19.1 20.07,16.6 16.31,13.1 C15,11.87 13.13,9.7 11.66,6.31006 C10.29,3.15 9.62998,-0.27998 9.67998,-3.86992 C9.75,-8.55996 11.06,-13.38 13.57,-18.1699 C16.49,-23.75 21.05,-29.28 27.11,-34.61 C28.56,-35.8899 29.93,-37.1699 31.22,-38.45 C31.98,-34.1899 32.81,-29.5 33.69,-24.6199 C29.84,-23.35 25.09,-20.2 21.98,-14.55 C18.44,-7.97998 18.58,-2.45996 19.31,1.02002 C20.25,5.48008 22.78,9.24004 26.24,11.3301 C27.17,11.89 31.3,14.02 33.14,13.44 C33.51,13.32 33.78,13.1 33.92,12.77 C34.43,11.6 33.41,10.9601 31.85,10 C31.25,9.63008 30.58,9.21006 29.85,8.68008 C26.53,6.19004 25.08,1.74004 26.15,-2.63994 C26.73,-5.03994 28.01,-7.2 29.85,-8.9 C31.52,-10.45 33.56,-11.55 35.94,-12.1899 C37.98,-0.95 40.04,10.2 41.68,18.5601 C41.81,19.25 41.95,19.92 42.08,20.59 C37.7,21.52 33.35,21.4301 29.14,20.32 M40.46,-12.86 C50.81,-13.33 55.08,-5.88994 55.97,-1.05996 C56.44,1.47002 56.43,5.91006 54.89,10.12 C53.72,13.3 51.26,17.37 46.13,19.4301 C46.06,19.0101 45.98,18.5801 45.9,18.15 C44.36,9.38008 42.42,-1.60996 40.46,-12.86 M33.14,-83.8 C34.92,-89.5399 37.66,-92.7899 39.65,-94.5199 C41.4,-96.0399 43.05,-96.75 43.97,-96.75 C44.11,-96.75 44.23,-96.73 44.33,-96.7 C44.79,-96.56 45.32,-95.9899 45.79,-95.1199 C48.1,-90.83 47.36,-84.1199 46.02,-79.68 C44.39,-74.28 41.47,-68.66 32.67,-59.05 C32.5,-60.16 32.34,-61.21 32.19,-62.1899 C30.94,-70.48 31.26,-77.75 33.14,-83.8"/>
<path class="Clef" transform="matrix(2.12598,0,0,2.12598,113.386,1372.72)" d="M63.35,-5.86992 C62.12,-11.3 59.48,-15.1199 58.7,-16.16 C55.51,-20.43 51.5,-23.28 46.81,-24.63 C43.7,-25.5199 40.7,-25.63 38.28,-25.45 C37.24,-31.46 36.24,-37.3399 35.33,-42.7899 C40.78,-48.96 44.4,-54.76 46.68,-59.06 C50.15,-65.6399 51.3,-70.2199 51.35,-70.4199 C53.07,-75.63 53.43,-83.33 52.33,-91.5399 C51.32,-99.0899 49.23,-105.8 46.88,-109.05 C45.85,-110.48 44.8,-111.21 43.76,-111.21 C42.54,-111.21 40.03,-109.97 37.14,-107.2 C34.84,-105 31.57,-101.11 29.01,-95.1 C26.01,-88.0399 25.8,-78.55 26.15,-71.83 C26.53,-64.56 27.64,-58.8699 27.65,-58.8199 C27.67,-58.73 27.93,-57.23 28.38,-54.66 C28.15,-54.43 27.91,-54.21 27.66,-53.9699 C26.62,-52.9699 25.43,-51.83 24.05,-50.45 C23.19,-49.5899 22.24,-48.68 21.24,-47.71 C12.79,-39.5699 0,-27.25 0,-8.1 C0,-3.4 0.9,1.02002 2.67998,5.03008 C4.27002,8.63008 6.57002,11.9101 9.5,14.7801 C17.23,22.3301 27.82,25.54 34.88,25.3801 C37.83,25.3101 40.46,25.07 42.85,24.62 C44.68,34.22 45.82,41.25 45.86,46.59 C45.9,53.1 44.25,57.07 40.35,59.84 C37.92,61.57 35.11,62.52 32.01,62.67 C29.42,62.79 27.16,62.32 25.73,61.9101 L25.72,61.9101 C25.72,61.9101 25.43,61.8301 25.42,61.6301 C25.41,61.45 25.76,61.4 25.77,61.4 L25.79,61.4 C27.71,60.9601 31.28,59.7301 33.64,56.4301 C35.44,53.9101 36.31,49.29 34.47,45.35 C33.36,42.9601 30.85,40.0101 25.23,39.5601 C22.74,39.3601 20.47,39.87 18.47,41.07 C16.66,42.15 15.16,43.79 14.11,45.79 C11.65,50.49 12.11,56.22 15.24,60.0601 C18.2,63.6801 22.82,65.99 28.25,66.57 C29.1,66.6601 29.95,66.7 30.8,66.7 C35.23,66.7 39.63,65.5 43.2,63.29 C46.86,60.72 48.98,56.74 49.66,51.1101 C50.22,46.47 49.83,40.5601 48.43,32.49 C48.07,30.4 47.53,27.37 46.87,23.6101 C52.62,21.69 56.78,18.12 60.55,12.27 C63.84,6.53008 64.78,0.430078 63.35,-5.86992 M29.14,20.32 C24.5,19.1 20.07,16.6 16.31,13.1 C15,11.87 13.13,9.7 11.66,6.31006 C10.29,3.15 9.62998,-0.27998 9.67998,-3.86992 C9.75,-8.55996 11.06,-13.38 13.57,-18.1699 C16.49,-23.75 21.05,-29.28 27.11,-34.61 C28.56,-35.8899 29.93,-37.1699 31.22,-38.45 C31.98,-34.1899 32.81,-29.5 33.69,-24.6199 C29.84,-23.35 25.09,-20.2 21.98,-14.55 C18.44,-7.97998 18.58,-2.45996 19.31,1.02002 C20.25,5.48008 22.78,9.24004 26.24,11.3301 C27.17,11.89 31.3,14.02 33.14,13.44 C33.51,13.32 33.78,13.1 33.92,12.77 C34.43,11.6 33.41,10.9601 31.85,10 C31.25,9.63008 30.58,9.21006 29.85,8.68008 C26.53,6.19004 25.08,1.74004 26.15,-2.63994 C26.73,-5.03994 28.01,-7.2 29.85,-8.9 C31.52,-10.45 33.56,-11.55 35.94,-12.1899 C37.98,-0.95 40.04,10.2 41.68,18.5601 C41.81,19.25 41.95,19.92 42.08,20.59 C37.7,21.52 33.35,21.4301 29.14,20.32 M40.46,-12.86 C50.81,-13.33 55.08,-5.88994 55.97,-1.05996 C56.44,1.47002 56.43,5.91006 54.89,10.12 C53.72,13.3 51.26,17.37 46.13,19.4301 C46.06,19.0101 45.98,18.5801 45.9,18.15 C44.36,9.38008 42.42,-1.60996 40.46,-12.86 M33.14,-83.8 C34.92,-89.5399 37.66,-92.7899 39.65,-94.5199 C41.4,-96.0399 43.05,-96.75 43.97,-96.75 C44.11,-96.75 44.23,-96.73 44.33,-96.7 C44.79,-96.56 45.32,-95.9899 45.79,-95.1199 C48.1,-90.83 47.36,-84.1199 46.02,-79.68 C44.39,-74.28 41.47,-68.66 32.67,-59.05 C32.5,-60.16 32.34,-61.21 32.19,-62.1899 C30.94,-70.48 31.26,-77.75 33.14,-83.8"/>
<path class="Clef" transform="matrix(2.12598,0,0,2.12598,113.386,2143.07)" d="M63.35,-5.86992 C62.12,-11.3 59.48,-15.1199 58.7,-16.16 C55.51,-20.43 51.5,-23.28 46.81,-24.63 C43.7,-25.5199 40.7,-25.63 38.28,-25.45 C37.24,-31.46 36.24,-37.3399 35.33,-42.7899 C40.78,-48.96 44.4,-54.76 46.68,-59.06 C50.15,-65.6399 51.3,-70.2199 51.35,-70.4199 C53.07,-75.63 53.43,-83.33 52.33,-91.5399 C51.32,-99.0899 49.23,-105.8 46.88,-109.05 C45.85,-110.48 44.8,-111.21 43.76,-111.21 C42.54,-111.21 40.03,-109.97 37.14,-107.2 C34.84,-105 31.57,-101.11 29.01,-95.1 C26.01,-88.0399 25.8,-78.55 26.15,-71.83 C26.53,-64.56 27.64,-58.8699 27.65,-58.8199 C27.67,-58.73 27.93,-57.23 28.38,-54.66 C28.15,-54.43 27.91,-54.21 27.66,-53.9699 C26.62,-52.9699 25.43,-51.83 24.05,-50.45 C23.19,-49.5899 22.24,-48.68 21.24,-47.71 C12.79,-39.5699 0,-27.25 0,-8.1 C0,-3.4 0.9,1.02002 2.67998,5.03008 C4.27002,8.63008 6.57002,11.9101 9.5,14.7801 C17.23,22.3301 27.82,25.54 34.88,25.3801 C37.83,25.3101 40.46,25.07 42.85,24.62 C44.68,34.22 45.82,41.25 45.86,46.59 C45.9,53.1 44.25,57.07 40.35,59.84 C37.92,61.57 35.11,62.52 32.01,62.67 C29.42,62.79 27.16,62.32 25.73,61.9101 L25.72,61.9101 C25.72,61.9101 25.43,61.8301 25.42,61.6301 C25.41,61.45 25.76,61.4 25.77,61.4 L25.79,61.4 C27.71,60.9601 31.28,59.7301 33.64,56.4301 C35.44,53.9101 36.31,49.29 34.47,45.35 C33.36,42.9601 30.85,40.0101 25.23,39.5601 C22.74,39.3601 20.47,39.87 18.47,41.07 C16.66,42.15 15.16,43.79 14.11,45.79 C11.65,50.49 12.11,56.22 15.24,60.0601 C18.2,63.6801 22.82,65.99 28.25,66.57 C29.1,66.6601 29.95,66.7 30.8,66.7 C35.23,66.7 39.63,65.5 43.2,63.29 C46.86,60.72 48.98,56.74 49.66,51.1101 C50.22,46.47 49.83,40.5601 48.43,32.49 C48.07,30.4 47.53,27.37 46.87,23.6101 C52.62,21.69 56.78,18.12 60.55,12.27 C63.84,6.53008 64.78,0.430078 63.35,-5.86992 M29.14,20.32 C24.5,19.1 20.07,16.6 16.31,13.1 C15,11.87 13.13,9.7 11.66,6.31006 C10.29,3.15 9.62998,-0.27998 9.67998,-3.86992 C9.75,-8.55996 11.06,-13.38 13.57,-18.1699 C16.49,-23.75 21.05,-29.28 27.11,-34.61 C28.56,-35.8899 29.93,-37.1699 31.22,-38.45 C31.98,-34.1899 32.81,-29.5 33.69,-24.6199 C29.84,-23.35 25.09,-20.2 21.98,-14.55 C18.44,-7.97998 18.58,-2.45996 19.31,1.02002 C20.25,5.48008 22.78,9.24004 26.24,11.3301 C27.17,11.89 31.3,14.02 33.14,13.44 C33.51,13.32 33.78,13.1 33.92,12.77 C34.43,11.6 33.41,10.9601 31.85,10 C31.25,9.63008 30.58,9.21006 29.85,8.68008 C26.53,6.19004 25.08,1.74004 26.15,-2.63994 C26.73,-5.03994 28.01,-7.2 29.85,-8.9 C31.52,-10.45 33.56,-11.55 35.94,-12.1899 C37.98,-0.95 40.04,10.2 41.68,18.5601 C41.81,19.25 41.95,19.92 42.08,20.59 C37.7,21.52 33.35,21.4301 29.14,20.32 M40.46,-12.86 C50.81,-13.33 55.08,-5.88994 55.97,-1.05996 C56.44,1.47002 56.43,5.91006 54.89,10.12 C53.72,13.3 51.26,17.37 46.13,19.4301 C46.06,19.0101 45.98,18.5801 45.9,18.15 C44.36,9.38008 42.42,-1.60996 40.46,-12.86 M33.14,-83.8 C34.92,-89.5399 37.66,-92.7899 39.65,-94.5199 C41.4,-96.0399 43.05,-96.75 43.97,-96.75 C44.11,-96.75 44.23,-96.73 44.33,-96.7 C44.79,-96.56 45.32,-95.9899 45.79,-95.1199 C48.1,-90.83 47.36,-84.1199 46.02,-79.68 C44.39,-74.28 41.47,-68.66 32.67,-59.05 C32.5,-60.16 32.34,-61.21 32.19,-62.1899 C30.94,-70.48 31.26,-77.75 33.14,-83.8"/>
<path class="TimeSig" transform="matrix(2.12598,0,0,2.12598,306.651,497.126)" d="M34.2,3.9 C33.4,6.1 31.4,13.3 26.5,13.3 C20,13.3 18.6,9.3 13.2,9.3 C12.4,9.3 11.6,9.4 10.6,9.6 C10.6,9.6 13.1,5.8 23.7,2.5 C34.3,-0.8 37,-6 37,-12 C37,-16.2 35.1,-24.5 20,-24.5 C4.9,-24.5 2.1,-15.4 2.1,-10.8 C2.1,-6.7 5.5,-3.4 9.6,-3.4 C13.7,-3.4 17,-6.7 17,-10.8 C17,-13.6 15,-16.7 12.4,-17.7 C12.1,-17.8 11.7,-18.3 11.7,-18.8 C11.7,-19.4 12.2,-20.1 14,-20.6 C14.5,-20.8 15.9,-21.1 17.4,-21.1 C18.8,-21.1 20.4,-20.8 21.6,-20 C23.5,-18.8 24.2,-17 24.2,-12.5 C24.2,-0.8 10.3,1.7 4.5,10.4 C4.5,10.4 1.5,14.6 1.5,19.3 C1.5,24 3.9,24.3 5.1,24.3 C6.7,24.3 8.4,23 8.4,21.2 C8.4,20.8 8.3,20.4 8.1,19.9 C7.5,18.5 7.3,17.4 7.3,16.6 C7.3,16.3 7.3,16 7.4,15.7 C7.5,15.1 8.3,14.1 10.7,14.1 C13.6,14.1 14.7,17.5 16.5,20.1 C18.3,22.7 21.1,24.3 24.3,24.3 C27.5,24.3 31.8,22 33.6,18.3 C35.4,14.6 37.7,7.1 37.7,4.4 C37.7,3.1 36.9,2.5 36,2.5 C35.3,2.5 34.6,2.9 34.2,3.9"/>
<path class="TimeSig" transform="matrix(2.12598,0,0,2.12598,299.642,602.08)" d="M3.59004,12.65 L20.77,12.65 L20.77,20.07 L12.54,20.07 C11.7601,20.07 11.1301,20.7 11.1301,21.48 L11.1301,23.39 C11.1301,24.17 11.7601,24.8 12.54,24.8 L42.79,24.8 C43.57,24.8 44.2,24.17 44.2,23.39 L44.2,21.48 C44.2,20.7 43.57,20.07 42.79,20.07 L33.85,20.07 L33.85,12.65 L42.79,12.65 C43.57,12.65 44.2,12.02 44.2,11.24 L44.2,9.32998 C44.2,8.55 43.57,7.92002 42.79,7.92002 L33.85,7.92002 L33.85,-8.04004 C33.85,-8.57998 33.55,-9.05996 33.07,-9.3 L31.8601,-9.9 C31.3301,-10.16 30.7,-10.07 30.27,-9.67002 L21.22,-1.35 C20.9301,-1.07998 20.7601,-0.709961 20.7601,-0.309961 L20.7601,7.92002 L9.25,7.92002 C9.25,7.92002 20.37,-4.10996 32.2101,-19.88 C33.0801,-21.03 32.5801,-22.08 32.39,-22.27 L30.22,-24.48 C29.95,-24.74 29.59,-24.89 29.22,-24.89 C28.62,-24.89 15.07,-24.87 14.35,-24.89 C13.6301,-24.91 13.09,-24.29 13.02,-23.67 C13.02,-23.67 12.4801,-16.31 9.88008,-8.17998 C7.28008,-0.0599609 4.34004,4.92002 1.68008,8.55 C1.68008,8.55 1.14004,9.54004 1.5,10.28 C1.85,11.03 2.48008,12.12 2.48008,12.12 C2.48008,12.12 2.74004,12.65 3.59004,12.65"/>
<path class="Rest" transform="matrix(2.12598,0,0,2.12598,617.695,549.212)" d="M26.73,-20.26 C25.9899,-20.5399 25.31,-20.21 24.98,-19.6 C24.65,-18.9899 21.4699,-13.06 17.0399,-9.8 C15.65,-8.77998 14.0699,-8.13994 12.5,-7.80996 C13.6199,-9.06992 14.3,-10.73 14.3,-12.55 C14.3,-16.5 11.1,-19.7 7.15,-19.7 C3.2,-19.7 0,-16.5 0,-12.55 C0,-9.53994 1.86992,-6.95996 4.50996,-5.90996 C6.03994,-5.17998 7.95,-4.73994 10,-4.73994 C12.85,-4.73994 15.96,-5.56992 18.6699,-7.55996 C19.93,-8.48994 21.13,-9.67998 22.21,-10.9399 L10.8199,24.69 L13.46,25.54 L27.53,-18.55 C27.76,-19.28 27.4699,-19.9699 26.73,-20.26"/>
<path class="Rest" transform="matrix(2.12598,0,0,2.12598,1919.86,549.212)" d="M26.73,-20.26 C25.9899,-20.5399 25.31,-20.21 24.98,-19.6 C24.65,-18.9899 21.4699,-13.06 17.0399,-9.8 C15.65,-8.77998 14.0699,-8.13994 12.5,-7.80996 C13.6199,-9.06992 14.3,-10.73 14.3,-12.55 C14.3,-16.5 11.1,-19.7 7.15,-19.7 C3.2,-19.7 0,-16.5 0,-12.55 C0,-9.53994 1.86992,-6.95996 4.50996,-5.90996 C6.03994,-5.17998 7.95,-4.73994 10,-4.73994 C12.85,-4.73994 15.96,-5.56992 18.6699,-7.55996 C19.93,-8.48994 21.13,-9.67998 22.21,-10.9399 L10.8199,24.69 L13.46,25.54 L27.53,-18.55 C27.76,-19.28 27.4699,-19.9699 26.73,-20.26"/>
<path class="Rest" transform="matrix(2.12598,0,0,2.12598,3127.87,549.212)" d="M26.73,-20.26 C25.9899,-20.5399 25.31,-20.21 24.98,-19.6 C24.65,-18.9899 21.4699,-13.06 17.0399,-9.8 C15.65,-8.77998 14.0699,-8.13994 12.5,-7.80996 C13.6199,-9.06992 14.3,-10.73 14.3,-12.55 C14.3,-16.5 11.1,-19.7 7.15,-19.7 C3.2,-19.7 0,-16.5 0,-12.55 C0,-9.53994 1.86992,-6.95996 4.50996,-5.90996 C6.03994,-5.17998 7.95,-4.73994 10,-4.73994 C12.85,-4.73994 15.96,-5.56992 18.6699,-7.55996 C19.93,-8.48994 21.13,-9.67998 22.21,-10.9399 L10.8199,24.69 L13.46,25.54 L27.53,-18.55 C27.76,-19.28 27.4699,-19.9699 26.73,-20.26"/>
<path class="Rest" transform="matrix(2.12598,0,0,2.12598,622.263,1319.57)" d="M26.73,-20.26 C25.9899,-20.5399 25.31,-20.21 24.98,-19.6 C24.65,-18.9899 21.4699,-13.06 17.0399,-9.8 C15.65,-8.77998 14.0699,-8.13994 12.5,-7.80996 C13.6199,-9.06992 14.3,-10.73 14.3,-12.55 C14.3,-16.5 11.1,-19.7 7.15,-19.7 C3.2,-19.7 0,-16.5 0,-12.55 C0,-9.53994 1.86992,-6.95996 4.50996,-5.90996 C6.03994,-5.17998 7.95,-4.73994 10,-4.73994 C12.85,-4.73994 15.96,-5.56992 18.6699,-7.55996 C19.93,-8.48994 21.13,-9.67998 22.21,-10.9399 L10.8199,24.69 L13.46,25.54 L27.53,-18.55 C27.76,-19.28 27.4699,-19.9699 26.73,-20.26"/>
<path class="Rest" transform="matrix(2.12598,0,0,2.12598,1921.56,1319.57)" d="M26.73,-20.26 C25.9899,-20.5399 25.31,-20.21 24.98,-19.6 C24.65,-18.9899 21.4699,-13.06 17.0399,-9.8 C15.65,-8.77998 14.0699,-8.13994 12.5,-7.80996 C13.6199,-9.06992 14.3,-10.73 14.3,-12.55 C14.3,-16.5 11.1,-19.7 7.15,-19.7 C3.2,-19.7 0,-16.5 0,-12.55 C0,-9.53994 1.86992,-6.95996 4.50996,-5.90996 C6.03994,-5.17998 7.95,-4.73994 10,-4.73994 C12.85,-4.73994 15.96,-5.56992 18.6699,-7.55996 C19.93,-8.48994 21.13,-9.67998 22.21,-10.9399 L10.8199,24.69 L13.46,25.54 L27.53,-18.55 C27.76,-19.28 27.4699,-19.9699 26.73,-20.26"/>
<path class="Rest" transform="matrix(2.12598,0,0,2.12598,520.177,2089.93)" d="M26.73,-20.26 C25.9899,-20.5399 25.31,-20.21 24.98,-19.6 C24.65,-18.9899 21.4699,-13.06 17.0399,-9.8 C15.65,-8.77998 14.0699,-8.13994 12.5,-7.80996 C13.6199,-9.06992 14.3,-10.73 14.3,-12.55 C14.3,-16.5 11.1,-19.7 7.15,-19.7 C3.2,-19.7 0,-16.5 0,-12.55 C0,-9.53994 1.86992,-6.95996 4.50996,-5.90996 C6.03994,-5.17998 7.95,-4.73994 10,-4.73994 C12.85,-4.73994 15.96,-5.56992 18.6699,-7.55996 C19.93,-8.48994 21.13,-9.67998 22.21,-10.9399 L10.8199,24.69 L13.46,25.54 L27.53,-18.55 C27.76,-19.28 27.4699,-19.9699 26.73,-20.26"/>
<path class="Rest" transform="matrix(2.12598,0,0,2.12598,3150.54,2089.93)" d="M26.73,-20.26 C25.9899,-20.5399 25.31,-20.21 24.98,-19.6 C24.65,-18.9899 21.4699,-13.06 17.0399,-9.8 C15.65,-8.77998 14.0699,-8.13994 12.5,-7.80996 C13.6199,-9.06992 14.3,-10.73 14.3,-12.55 C14.3,-16.5 11.1,-19.7 7.15,-19.7 C3.2,-19.7 0,-16.5 0,-12.55 C0,-9.53994 1.86992,-6.95996 4.50996,-5.90996 C6.03994,-5.17998 7.95,-4.73994 10,-4.73994 C12.85,-4.73994 15.96,-5.56992 18.6699,-7.55996 C19.93,-8.48994 21.13,-9.67998 22.21,-10.9399 L10.8199,24.69 L13.46,25.54 L27.53,-18.55 C27.76,-19.28 27.4699,-19.9699 26.73,-20.26"/>
<path class="Rest" transform="matrix(2.12598,0,0,2.12598,3862.2,2036.78)" d="M31.1,-0.5 L1.4,-0.5 C0.6,-0.5 0,0.1 0,0.9 L0,11.7 C0,12.5 0.6,13.1 1.4,13.1 L31.1,13.1 C31.9,13.1 32.5,12.5 32.5,11.7 L32.5,0.9 C32.5,0.1 31.9,-0.5 31.1,-0.5"/>
<path class="Beam" fill-rule="evenodd" d="M703.365,628.754 L788.919,643.016 L788.919,669.957 L703.365,655.695 L703.365,628.754 "/>
<path class="Beam" fill-rule="evenodd" d="M703.365,588.891 L788.919,603.153 L788.919,630.095 L703.365,615.833 L703.365,588.891 "/>
<path class="Beam" fill-rule="evenodd" d="M1039.77,682.054 L1235.03,695.751 L1235.03,722.391 L1039.77,708.694 L1039.77,682.054 "/>
<path class="Beam" fill-rule="evenodd" d="M1149.47,649.887 L1235.03,655.889 L1235.03,682.529 L1149.47,676.528 L1149.47,649.887 "/>
<path class="Beam" fill-rule="evenodd" d="M1308.89,735.203 L1504.14,748.901 L1504.14,775.541 L1308.89,761.844 L1308.89,735.203 "/>
<path class="Beam" fill-rule="evenodd" d="M1418.59,703.037 L1504.14,709.039 L1504.14,735.679 L1418.59,729.677 L1418.59,703.037 "/>
<path class="Beam" fill-rule="evenodd" d="M1725.76,759.949 L1828.66,816.3 L1828.66,846.599 L1725.76,790.248 L1725.76,759.949 "/>
<path class="Beam" fill-rule="evenodd" d="M2016.91,681.903 L2102.46,696.165 L2102.46,723.107 L2016.91,708.845 L2016.91,681.903 "/>
<path class="Beam" fill-rule="evenodd" d="M2016.91,642.041 L2102.46,656.303 L2102.46,683.244 L2016.91,668.982 L2016.91,642.041 "/>
<path class="Beam" fill-rule="evenodd" d="M2324.08,735.203 L2519.33,748.901 L2519.33,775.541 L2324.08,761.844 L2324.08,735.203 "/>
<path class="Beam" fill-rule="evenodd" d="M2433.78,703.037 L2519.33,709.039 L2519.33,735.679 L2433.78,729.677 L2433.78,703.037 "/>
<path class="Beam" fill-rule="evenodd" d="M2593.2,788.353 L2788.45,802.051 L2788.45,828.691 L2593.2,814.993 L2593.2,788.353 "/>
<path class="Beam" fill-rule="evenodd" d="M2702.9,756.187 L2788.45,762.188 L2788.45,788.828 L2702.9,782.827 L2702.9,756.187 "/>
<path class="Beam" fill-rule="evenodd" d="M3213.54,628.754 L3299.09,643.016 L3299.09,669.957 L3213.54,655.695 L3213.54,628.754 "/>
<path class="Beam" fill-rule="evenodd" d="M3213.54,588.891 L3299.09,603.153 L3299.09,630.095 L3213.54,615.833 L3213.54,588.891 "/>
<path class="Beam" fill-rule="evenodd" d="M3520.71,682.054 L3715.96,695.751 L3715.96,722.391 L3520.71,708.694 L3520.71,682.054 "/>
<path class="Beam" fill-rule="evenodd" d="M3630.41,649.887 L3715.96,655.889 L3715.96,682.529 L3630.41,676.528 L3630.41,649.887 "/>
<path class="Beam" fill-rule="evenodd" d="M3789.83,735.203 L3985.08,748.901 L3985.08,775.541 L3789.83,761.844 L3789.83,735.203 "/>
<path class="Beam" fill-rule="evenodd" d="M3899.53,703.037 L3985.08,709.039 L3985.08,735.679 L3899.53,729.677 L3899.53,703.037 "/>
<path class="Beam" fill-rule="evenodd" d="M382.289,1530.92 L508.123,1586.66 L508.123,1615.73 L382.289,1559.99 L382.289,1530.92 "/>
<path class="Beam" fill-rule="evenodd" d="M742.249,1452.26 L827.804,1466.52 L827.804,1493.46 L742.249,1479.2 L742.249,1452.26 "/>
<path class="Beam" fill-rule="evenodd" d="M742.249,1412.4 L827.804,1426.66 L827.804,1453.6 L742.249,1439.34 L742.249,1412.4 "/>
<path class="Beam" fill-rule="evenodd" d="M1049.42,1505.57 L1276.41,1519.21 L1276.41,1545.83 L1049.42,1532.19 L1049.42,1505.57 "/>
<path class="Beam" fill-rule="evenodd" d="M1185.51,1473.88 L1276.41,1479.34 L1276.41,1505.97 L1185.51,1500.51 L1185.51,1473.88 "/>
<path class="Beam" fill-rule="evenodd" d="M1355.62,1518.5 L1582.61,1463.95 L1582.61,1491.28 L1355.62,1545.83 L1355.62,1518.5 "/>
<path class="Beam" fill-rule="evenodd" d="M1491.71,1445.93 L1582.61,1424.08 L1582.61,1451.42 L1491.71,1473.26 L1491.71,1445.93 "/>
<path class="Beam" fill-rule="evenodd" d="M2038.89,1505.59 L2162.07,1505.59 L2162.07,1532.17 L2038.89,1532.17 L2038.89,1505.59 "/>
<path class="Beam" fill-rule="evenodd" d="M2468.34,1572.03 L2591.52,1572.03 L2591.52,1598.6 L2468.34,1598.6 L2468.34,1572.03 "/>
<path class="Beam" fill-rule="evenodd" d="M2703,1545.45 L2826.18,1545.45 L2826.18,1572.03 L2703,1572.03 L2703,1545.45 "/>
<path class="Beam" fill-rule="evenodd" d="M3047.79,1585.32 L3170.97,1585.32 L3170.97,1611.89 L3047.79,1611.89 L3047.79,1585.32 "/>
<path class="Beam" fill-rule="evenodd" d="M3282.45,1545.45 L3405.63,1545.45 L3405.63,1572.03 L3282.45,1572.03 L3282.45,1545.45 "/>
<path class="Beam" fill-rule="evenodd" d="M3627.25,1585.32 L3750.42,1585.32 L3750.42,1611.89 L3627.25,1611.89 L3627.25,1585.32 "/>
<path class="Beam" fill-rule="evenodd" d="M3861.91,1505.59 L3985.08,1505.59 L3985.08,1532.17 L3861.91,1532.17 L3861.91,1505.59 "/>
<path class="Beam" fill-rule="evenodd" d="M658.066,2275.95 L801.8,2275.95 L801.8,2302.52 L658.066,2302.52 L658.066,2275.95 "/>
<path class="Beam" fill-rule="evenodd" d="M1023.42,2342.39 L1167.15,2342.39 L1167.15,2368.96 L1023.42,2368.96 L1023.42,2342.39 "/>
<path class="Beam" fill-rule="evenodd" d="M1299.19,2315.81 L1442.93,2315.81 L1442.93,2342.39 L1299.19,2342.39 L1299.19,2315.81 "/>
<path class="Beam" fill-rule="evenodd" d="M1664.54,2355.67 L1808.28,2355.67 L1808.28,2382.25 L1664.54,2382.25 L1664.54,2355.67 "/>
<path class="Beam" fill-rule="evenodd" d="M1940.32,2236.02 L2084.06,2249.88 L2084.06,2276.57 L1940.32,2262.72 L1940.32,2236.02 "/>
<path class="Beam" fill-rule="evenodd" d="M2305.67,2315.75 L2449.41,2329.6 L2449.41,2356.3 L2305.67,2342.45 L2305.67,2315.75 "/>
<path class="Beam" fill-rule="evenodd" d="M2581.45,2368.9 L2725.18,2382.75 L2725.18,2409.45 L2581.45,2395.6 L2581.45,2368.9 "/>
<path class="Beam" fill-rule="evenodd" d="M3306.44,2275.95 L3468.19,2275.95 L3468.19,2302.52 L3306.44,2302.52 L3306.44,2275.95 "/>
<path class="Hook" transform="matrix(2.12598,0,0,2.12598,1804.23,1479.02)" d="M2.5,0.4 C2.5,0.2 3.4,-3.2 3.5,-3.5 C3.6,-3.9 5.4,-9.6 9.1,-15.3 C11.8,-19.5 21.3,-31.8 21,-31.8 C21,-31.8 28.4,-41.3 28.9,-54.2 L28.9,-56.5 C28.9,-62.6 28.1,-71.2 24.6,-79.9 C24.2,-80.9 23.8,-81.9 22.7,-81.5 C21.6,-81.1 21.9,-79.9 22.2,-78.8 C24,-71.8 25,-64.6 25,-57.4 C25,-49 22,-44.8 20.2,-41.7 C13.6,-30.6 5,-25.2 0.8,-23.8 C0.3,-23.6 0,-23.2 0,-22.7 L0,-16.5 L0,-0.1 C0,0.6 0.6,1.2 1.3,1.2 C1.8,1.2 2.4,0.8 2.5,0.4"/>
<path class="Hook" transform="matrix(2.12598,0,0,2.12598,382.289,2382.25)" d="M2.5,0.4 C2.5,0.2 3.4,-3.2 3.5,-3.5 C3.6,-3.9 5.4,-9.6 9.1,-15.3 C11.8,-19.5 21.3,-31.8 21,-31.8 C21,-31.8 28.4,-41.3 28.9,-54.2 L28.9,-56.5 C28.9,-62.6 28.1,-71.2 24.6,-79.9 C24.2,-80.9 23.8,-81.9 22.7,-81.5 C21.6,-81.1 21.9,-79.9 22.2,-78.8 C24,-71.8 25,-64.6 25,-57.4 C25,-49 22,-44.8 20.2,-41.7 C13.6,-30.6 5,-25.2 0.8,-23.8 C0.3,-23.6 0,-23.2 0,-22.7 L0,-16.5 L0,-0.1 C0,0.6 0.6,1.2 1.3,1.2 C1.8,1.2 2.4,0.8 2.5,0.4"/>
<path class="Hook" transform="matrix(2.12598,0,0,2.12598,3057.87,2063.35)" d="M3.5,3.5 C3.4,3.2 2.5,-0.3 2.5,-0.5 C2.4,-0.9 1.8,-1.2 1.3,-1.2 C0.6,-1.2 0,-0.6 0,0.1 L0,16.5 L0,22.7 C0,23.2 0.4,23.6 0.8,23.8 C5,25.1 13.7,30.6 20.2,41.7 C22,44.8 24.9,49 24.9,57.4 C24.9,64.6 23.8,72.2 22,79.2 C21.7,80.3 21.4,81.3 22.5,81.7 C23.6,82.1 24,81.3 24.4,80.3 C28,71.5 28.9,62.3 28.9,56.1 L28.9,54.2 C28.4,41.3 21,31.8 21,31.8 C21.3,31.8 11.8,19.5 9.1,15.3 C5.4,9.6 3.6,3.9 3.5,3.5"/>
<path class="Marker" d="M931.441,263.652 C936.407,274.921 958.563,288.482 959.709,288.864 C960.282,289.246 960.664,289.628 960.664,290.201 C960.664,290.774 960.282,291.538 959.709,292.684 C958.563,294.785 936.598,334.322 936.598,334.322 C936.407,334.895 936.216,335.659 936.216,336.232 C936.216,337.76 936.98,339.288 938.317,340.052 C939.081,340.625 939.654,340.816 940.418,340.816 C941.946,340.816 943.474,339.861 944.238,338.524 C944.238,338.524 967.922,295.74 968.495,294.785 C968.495,294.976 969.641,294.021 970.214,294.021 C972.506,294.403 1003.07,303.38 1003.07,317.896 C1003.07,324.008 999.437,327.828 994.471,328.592 C994.28,328.592 993.707,328.783 993.516,328.783 C990.651,328.783 987.977,326.682 987.977,321.907 L987.977,320.188 C987.977,314.458 984.157,310.256 979.955,310.256 C979.191,310.256 978.618,310.256 978.045,310.447 C972.315,311.784 967.158,314.267 967.158,320.379 C967.158,320.952 967.158,321.716 967.349,322.48 C968.495,328.974 975.371,337.76 985.685,337.76 C1000.2,337.76 1012.42,324.39 1012.42,310.065 C1012.42,308.728 1012.23,307.2 1012.04,305.672 C1009.75,288.864 985.685,275.112 983.775,274.348 C982.056,273.202 981.292,272.629 981.292,271.865 C981.292,271.483 981.483,271.292 981.483,270.91 C982.247,269.764 1005.93,226.98 1005.93,226.98 C1006.5,226.216 1006.69,225.643 1006.69,224.879 C1006.69,223.351 1005.74,221.823 1004.4,221.059 C1003.64,220.868 1002.87,220.677 1002.3,220.677 C1000.77,220.677 999.246,221.441 998.482,222.778 C998.482,222.778 974.225,266.708 973.27,268.045 C972.888,268.809 972.506,269.191 971.933,269.191 C971.551,269.191 970.978,269 970.405,268.809 C969.068,268.236 945.957,259.45 941.946,252.574 C940.991,250.855 939.845,247.608 939.845,244.552 C939.845,240.35 941.755,236.148 948.058,235.002 L949.013,235.002 C949.968,235.002 950.923,235.384 951.496,236.912 L951.687,238.058 C952.833,242.26 955.125,251.237 962.956,251.237 C969.259,251.237 973.461,247.608 973.461,240.923 C973.461,228.126 963.338,224.115 951.687,224.115 C940.991,224.115 928.958,237.294 928.958,252.383 C928.958,256.012 929.722,259.832 931.441,263.652 M1000.58,274.157 C1005.36,274.157 1009.18,270.146 1009.18,265.371 C1009.18,260.596 1005.36,256.776 1000.58,256.776 C995.808,256.776 991.797,260.596 991.797,265.371 C991.797,270.146 995.808,274.157 1000.58,274.157 M940.991,304.908 C945.957,304.908 949.777,301.088 949.777,296.313 C949.777,291.538 945.957,287.527 940.991,287.527 C936.407,287.527 932.396,291.538 932.396,296.313 C932.396,301.088 936.407,304.908 940.991,304.908"/>
<path class="Jump" d="M3920.48,1877.33 L3959.79,1877.33 C3970.2,1877.33 3978.16,1875.69 3984.36,1872.18 C3996.18,1865.51 4002.73,1852.17 4002.73,1834.62 C4002.73,1818.48 3996.88,1805.84 3986.12,1798.82 C3979.68,1794.72 3971.02,1792.85 3957.68,1792.85 L3920.48,1792.85 L3920.48,1798.35 L3922.7,1798.35 C3929.25,1798.47 3931.48,1798.82 3932.41,1799.99 C3933.11,1801.04 3933.11,1801.28 3933.11,1807.24 L3933.11,1862.94 C3933.11,1868.9 3933.11,1869.14 3932.41,1870.19 C3931.48,1871.36 3929.25,1871.71 3922.7,1871.83 L3920.48,1871.83 L3920.48,1877.33 M3952.89,1871.83 C3946.92,1871.83 3946.22,1871.13 3946.22,1865.39 L3946.22,1804.9 C3946.22,1799.17 3947.04,1798.35 3952.89,1798.35 L3958.97,1798.35 C3978.98,1798.35 3987.29,1809.23 3987.29,1835.09 C3987.29,1861.3 3979.8,1871.83 3960.84,1871.83 L3952.89,1871.83 M4024.13,1864.34 C4020.04,1864.34 4016.76,1867.62 4016.76,1871.59 C4016.76,1875.69 4020.04,1878.96 4024.01,1878.96 C4028.11,1878.96 4031.38,1875.69 4031.38,1871.59 C4031.38,1867.62 4028.11,1864.34 4024.13,1864.34 M4104.5,1792.15 L4100.17,1792.15 L4095.49,1799.17 C4089.87,1793.91 4082.5,1791.1 4074.2,1791.1 C4058.75,1791.1 4048.57,1800.81 4048.57,1815.55 C4048.57,1828.3 4054.89,1834.62 4072.09,1839.07 L4083.21,1841.88 C4091.86,1844.1 4092.68,1844.33 4095.14,1846.2 C4098.65,1848.9 4100.52,1852.76 4100.52,1857.32 C4100.52,1862 4098.77,1865.86 4095.26,1869.14 C4091.4,1872.41 4087.53,1873.7 4081.1,1873.7 C4072.44,1873.7 4066.24,1871.01 4060.74,1864.92 C4055.83,1859.54 4053.37,1853.93 4051.62,1844.92 L4046.58,1844.92 L4047.05,1878.26 L4051.62,1878.26 L4056.88,1870.31 C4064.72,1876.74 4071.15,1879.08 4081.45,1879.08 C4098.65,1879.08 4109.65,1869.02 4109.65,1853.34 C4109.65,1845.97 4107.31,1839.89 4102.63,1835.44 C4099.47,1832.4 4094.91,1830.41 4085.55,1828.07 L4073.03,1824.91 C4062.61,1822.22 4057.7,1817.66 4057.7,1810.52 C4057.7,1802.33 4064.37,1796.71 4074.31,1796.71 C4082.5,1796.71 4089.17,1800.22 4093.85,1806.89 C4097.25,1811.69 4099.47,1816.6 4100.87,1822.57 L4105.9,1822.57 L4104.5,1792.15 M4130.35,1864.34 C4126.25,1864.34 4122.98,1867.62 4122.98,1871.59 C4122.98,1875.69 4126.25,1878.96 4130.23,1878.96 C4134.33,1878.96 4137.6,1875.69 4137.6,1871.59 C4137.6,1867.62 4134.33,1864.34 4130.35,1864.34"/>
<path class="RehearsalMark" fill="none" stroke="#000000" stroke-width="8.50" stroke-linecap="square" stroke-linejoin="miter" stroke-miterlimit="2" fill-rule="evenodd" d="M150.436,166.419 L630.918,166.419 L630.918,316.041 L150.436,316.041 L150.436,166.419 "/>
<path class="RehearsalMark" d="M181.281,283.464 L226.794,283.464 L226.794,277.146 L225.039,277.146 C218.721,277.146 216.381,276.678 215.328,275.391 C214.509,274.221 214.509,273.87 214.509,266.616 L214.509,215.838 C214.509,208.584 214.509,208.233 215.328,207.063 C216.381,205.776 218.721,205.308 225.039,205.308 L226.794,205.308 L226.794,198.99 L181.281,198.99 L181.281,205.308 L183.036,205.308 C189.237,205.308 191.577,205.776 192.63,207.063 C193.449,208.233 193.449,208.584 193.449,215.838 L193.449,266.616 C193.449,273.87 193.449,274.221 192.63,275.391 C191.577,276.678 189.237,277.146 183.036,277.146 L181.281,277.146 L181.281,283.464 M261.533,198.99 L232.049,198.99 L232.049,205.425 C237.314,205.542 241.409,207.765 244.451,211.977 L244.451,258.075 C244.685,273.168 242.462,276.561 231.815,277.146 L231.815,283.464 L265.16,283.464 L265.16,277.146 C254.279,276.561 252.056,273.168 252.29,258.075 L252.29,219.582 L306.695,284.283 L314.534,284.283 L314.534,224.379 C314.183,209.286 316.64,205.776 327.404,205.308 L327.404,198.99 L294.059,198.99 L294.059,205.308 C304.706,205.776 306.929,209.286 306.695,224.379 L306.695,251.874 L261.533,198.99 M411.282,198.99 L333.828,198.99 L332.073,230.697 L338.274,230.697 C339.795,222.039 341.433,217.476 344.241,213.381 C347.985,207.765 352.314,205.074 357.813,205.074 C361.323,205.074 362.025,205.893 362.025,209.754 L362.025,266.616 C362.025,273.87 362.025,274.221 361.206,275.391 C360.153,276.678 357.813,277.146 351.495,277.146 L348.921,277.146 L348.921,283.464 L396.189,283.464 L396.189,277.146 L393.615,277.146 C387.297,277.146 384.957,276.678 383.904,275.391 C383.085,274.338 383.085,273.753 383.085,266.616 L383.085,209.754 C383.085,205.893 383.787,205.074 387.297,205.074 C392.328,205.074 396.189,207.18 399.933,211.977 C403.209,216.189 405.081,221.103 406.836,230.697 L413.037,230.697 L411.282,198.99 M452.105,242.865 L458.657,242.865 C467.9,242.982 471.527,246.375 471.878,255.735 L472.229,260.298 C472.931,269.073 473.282,271.179 474.452,274.338 C477.26,281.592 483.11,285.219 492.236,285.219 C504.872,285.219 512.126,278.199 512.126,265.68 L512.126,264.276 L505.808,264.276 C505.691,271.647 503.936,275.391 500.426,275.391 C499.139,275.391 497.735,274.689 497.033,273.753 C496.331,272.7 496.214,271.881 495.629,268.137 C495.629,267.552 495.395,266.499 495.161,264.861 L494.342,260.415 C492.587,249.885 488.141,244.62 477.962,241.227 C484.163,240.057 487.205,239.238 490.13,237.834 C497.267,234.207 501.362,227.772 501.362,220.167 C501.362,213.147 497.969,207.18 491.885,203.202 C487.439,200.394 479.6,198.99 468.836,198.99 L418.877,198.99 L418.877,205.308 L420.632,205.308 C426.95,205.308 429.173,205.776 430.226,206.946 C431.045,208.233 431.045,208.584 431.045,215.838 L431.045,266.499 C431.045,273.753 431.045,274.221 430.226,275.391 C429.173,276.678 426.833,277.029 420.632,277.146 L418.877,277.146 L418.877,283.464 L465.677,283.464 L465.677,277.146 L462.635,277.146 C456.434,277.029 453.977,276.678 452.924,275.391 C452.105,274.221 452.105,273.753 452.105,266.499 L452.105,242.865 M452.105,236.43 L452.105,212.796 C451.988,206.361 452.924,205.425 460.412,205.308 L463.22,205.308 C474.218,205.308 479.015,210.105 479.015,220.869 C479.015,232.686 474.101,236.43 458.54,236.43 L452.105,236.43 M560.435,197.235 C549.086,197.235 539.492,200.511 531.887,207.18 C522.059,215.604 516.209,228.825 516.209,242.514 C516.209,267.318 534.461,285.219 559.85,285.219 C571.901,285.219 581.027,282.411 588.866,276.093 C599.045,268.137 604.544,256.086 604.544,242.397 C604.544,228.825 598.694,215.487 588.866,207.18 C581.027,200.394 571.901,197.235 560.435,197.235 M560.552,203.319 C566.87,203.319 571.784,206.361 575.177,212.328 C579.038,219.348 581.144,229.878 581.144,242.514 C581.144,266.265 573.89,279.135 560.552,279.135 C553.766,279.135 548.852,276.21 545.576,270.126 C541.715,262.872 539.609,252.693 539.609,240.291 C539.609,227.655 541.598,218.295 545.576,211.626 C548.969,205.893 553.649,203.319 560.552,203.319"/>
<path class="RehearsalMark" fill="none" stroke="#000000" stroke-width="8.50" stroke-linecap="square" stroke-linejoin="miter" stroke-miterlimit="2" fill-rule="evenodd" d="M2223.26,928.666 L2386.79,928.666 L2386.79,1084.65 L2223.26,1084.65 L2223.26,928.666 "/>
<path class="RehearsalMark" d="M2301.31,959.485 L2272.25,1027.32 C2266.37,1041.15 2261.63,1046.14 2254.08,1046.91 L2254.08,1053.82 L2291.07,1053.82 L2291.07,1046.91 C2281.98,1046.4 2278.4,1043.96 2278.4,1038.08 C2278.4,1035.9 2278.91,1033.85 2280.32,1030.78 L2282.37,1025.92 L2314.24,1025.92 L2319.1,1038.46 C2320.51,1042.04 2320.64,1042.68 2320.64,1043.71 C2320.64,1046.01 2318.85,1046.78 2313.21,1046.78 L2311.04,1046.91 L2311.04,1053.82 L2355.97,1053.82 L2355.97,1046.91 C2348.67,1046.65 2346.62,1045.37 2343.93,1038.84 L2311.04,959.485 L2301.31,959.485 M2298.62,986.749 L2311.04,1017.34 L2285.69,1017.34 L2298.62,986.749 "/>
<path class="VoltaSegment" d="M2972.53,1841.79 L2968.44,1841.79 C2961.07,1847.29 2952.76,1849.63 2938.84,1849.87 L2938.84,1856.42 L2943.75,1856.42 C2954.16,1856.42 2954.28,1856.65 2954.16,1866.25 L2954.16,1907.78 C2954.16,1915.04 2954.16,1915.39 2953.34,1916.56 C2952.29,1917.84 2949.95,1918.31 2943.63,1918.31 L2939.89,1918.31 L2939.89,1924.63 L2986.57,1924.63 L2986.57,1918.31 L2982.83,1918.31 C2976.63,1918.31 2974.4,1917.84 2973.35,1916.56 C2972.53,1915.39 2972.53,1914.92 2972.53,1907.78 L2972.53,1841.79 M3012.54,1904.39 C3006.46,1904.39 3001.55,1909.3 3001.55,1915.39 C3001.55,1921.35 3006.46,1926.38 3012.43,1926.38 C3018.63,1926.38 3023.54,1921.47 3023.54,1915.39 C3023.54,1909.3 3018.63,1904.39 3012.54,1904.39"/>
<polyline class="VoltaSegment" fill="none" stroke="#000000" stroke-width="5.85" stroke-linecap="square" stroke-linejoin="bevel" points="2906.94,1924.63 2906.94,1807.7"/>
<polyline class="VoltaSegment" fill="none" stroke="#000000" stroke-width="5.85" stroke-linecap="square" stroke-linejoin="bevel" points="2906.94,1807.7 3682.35,1807.7"/>
<polyline class="VoltaSegment" fill="none" stroke="#000000" stroke-width="5.85" stroke-linecap="square" stroke-linejoin="bevel" points="3682.35,1807.7 3682.35,1924.63"/>
</svg>
