<?xml version="1.0" encoding="UTF-8" standalone="no"?>
<svg width="4208.47px" height="2409.45px" viewBox="0 0 4208.47 2409.45"
 xmlns="http://www.w3.org/2000/svg" xmlns:xlink="http://www.w3.org/1999/xlink" version="1.2" baseProfile="tiny">
<title>SAX ALTO</title>
<desc>Generated by MuseScore 3.6.2</desc>
<polyline class="StaffLines" fill="none" stroke="#000000" stroke-width="5.85" stroke-linejoin="bevel" points="70.866,442.913 4137.61,442.913"/>
<polyline class="StaffLines" fill="none" stroke="#000000" stroke-width="5.85" stroke-linejoin="bevel" points="70.866,496.063 4137.61,496.063"/>
<polyline class="StaffLines" fill="none" stroke="#000000" stroke-width="5.85" stroke-linejoin="bevel" points="70.866,549.212 4137.61,549.212"/>
<polyline class="StaffLines" fill="none" stroke="#000000" stroke-width="5.85" stroke-linejoin="bevel" points="70.866,602.362 4137.61,602.362"/>
<polyline class="StaffLines" fill="none" stroke="#000000" stroke-width="5.85" stroke-linejoin="bevel" points="70.866,655.512 4137.61,655.512"/>
<polyline class="StaffLines" fill="none" stroke="#000000" stroke-width="5.85" stroke-linejoin="bevel" points="70.866,1213.58 4137.61,1213.58"/>
<polyline class="StaffLines" fill="none" stroke="#000000" stroke-width="5.85" stroke-linejoin="bevel" points="70.866,1266.73 4137.61,1266.73"/>
<polyline class="StaffLines" fill="none" stroke="#000000" stroke-width="5.85" stroke-linejoin="bevel" points="70.866,1319.88 4137.61,1319.88"/>
<polyline class="StaffLines" fill="none" stroke="#000000" stroke-width="5.85" stroke-linejoin="bevel" points="70.866,1373.03 4137.61,1373.03"/>
<polyline class="StaffLines" fill="none" stroke="#000000" stroke-width="5.85" stroke-linejoin="bevel" points="70.866,1426.18 4137.61,1426.18"/>
<polyline class="StaffLines" fill="none" stroke="#000000" stroke-width="5.85" stroke-linejoin="bevel" points="70.866,1984.25 4137.61,1984.25"/>
<polyline class="StaffLines" fill="none" stroke="#000000" stroke-width="5.85" stroke-linejoin="bevel" points="70.866,2037.4 4137.61,2037.4"/>
<polyline class="StaffLines" fill="none" stroke="#000000" stroke-width="5.85" stroke-linejoin="bevel" points="70.866,2090.55 4137.61,2090.55"/>
<polyline class="StaffLines" fill="none" stroke="#000000" stroke-width="5.85" stroke-linejoin="bevel" points="70.866,2143.7 4137.61,2143.7"/>
<polyline class="StaffLines" fill="none" stroke="#000000" stroke-width="5.85" stroke-linejoin="bevel" points="70.866,2196.85 4137.61,2196.85"/>
<path class="MeasureNumber" d="M76.1785,1093.89 C76.866,1090.36 77.6629,1088.17 79.1785,1085.49 C80.991,1082.33 83.1472,1080.72 85.5379,1080.72 C86.7879,1080.72 87.5379,1081.2 87.5379,1081.97 C87.5379,1082.25 87.4597,1082.41 87.1785,1082.92 C86.8191,1083.61 86.6629,1084.08 86.6629,1084.69 C86.6629,1085.97 87.616,1086.85 88.9754,1086.85 C90.616,1086.85 91.741,1085.64 91.741,1083.85 C91.741,1081.13 89.1785,1079.13 85.616,1079.13 C81.866,1079.13 78.5066,1081.13 75.7879,1084.97 C72.991,1088.92 71.3035,1094 71.3035,1098.44 C71.3035,1104.33 74.2254,1107.88 79.1004,1107.88 C82.1004,1107.88 84.7879,1106.69 86.7097,1104.56 C88.4597,1102.56 89.5379,1099.69 89.5379,1097.05 C89.5379,1092.97 86.7879,1090.13 82.7879,1090.13 C79.991,1090.13 77.8191,1091.33 76.1785,1093.89 M81.5066,1092.44 C83.991,1092.44 85.3504,1094.16 85.3504,1097.28 C85.3504,1102.36 82.6629,1106.24 79.1004,1106.24 C76.5379,1106.24 75.0222,1104.36 75.0222,1101.16 C75.0222,1096.16 77.7879,1092.44 81.5066,1092.44"/>
<path class="MeasureNumber" d="M87.2254,1849.64 L86.0691,1849.64 C83.866,1851.28 79.6316,1852.67 76.741,1852.67 L76.2722,1854.44 L79.0222,1854.44 C81.4597,1854.44 81.741,1854.51 81.741,1855.23 C81.741,1855.59 81.741,1855.59 81.3504,1857.03 L77.0691,1873.03 C76.5379,1875.03 76.5066,1875.15 76.1472,1875.51 C75.741,1875.9 74.8972,1876.03 72.7879,1876.08 L71.0691,1876.08 L70.866,1877.95 L85.6629,1877.95 L85.8972,1876.08 L83.741,1876.08 C81.1472,1876.08 80.5847,1875.87 80.5847,1875 C80.5847,1874.72 80.741,1873.8 80.9441,1873.03 L87.2254,1849.64 M108.491,1869.67 L107.46,1871.51 C105.85,1874.28 105.538,1874.51 103.491,1874.55 L94.2254,1874.55 C95.1785,1873.28 96.9441,1871.8 100.132,1869.55 C105.413,1865.92 105.772,1865.67 106.897,1864.8 C110.1,1862.31 111.413,1859.95 111.413,1856.8 C111.413,1852.59 108.303,1849.8 103.694,1849.8 C98.5847,1849.8 94.1472,1853.56 94.1472,1857.92 C94.1472,1860.15 95.3347,1861.59 97.2566,1861.59 C98.6941,1861.59 99.8191,1860.51 99.8191,1859.03 C99.8191,1858 99.3035,1857.31 97.9754,1856.59 C97.0222,1856.11 96.866,1855.92 96.866,1855.44 C96.866,1853.72 99.8191,1851.8 102.538,1851.8 C105.335,1851.8 107.225,1853.67 107.225,1856.48 C107.225,1859.47 105.897,1861.67 102.303,1864.8 C91.6629,1874.03 90.0535,1875.72 89.6941,1877.95 L106.85,1877.95 L109.944,1870.23 L108.491,1869.67 "/>
<polyline class="BarLine" fill="none" stroke="#000000" stroke-width="9.57" stroke-linejoin="bevel" points="1251.47,439.99 1251.47,658.435"/>
<polyline class="BarLine" fill="none" stroke="#000000" stroke-width="9.57" stroke-linejoin="bevel" points="1280.7,439.99 1280.7,658.435"/>
<polyline class="BarLine" fill="none" stroke="#000000" stroke-width="9.57" stroke-linejoin="bevel" points="2091.71,439.99 2091.71,658.435"/>
<polyline class="BarLine" fill="none" stroke="#000000" stroke-width="9.57" stroke-linejoin="bevel" points="2787.67,439.99 2787.67,658.435"/>
<polyline class="BarLine" fill="none" stroke="#000000" stroke-width="9.57" stroke-linejoin="bevel" points="3518.69,439.99 3518.69,658.435"/>
<polyline class="BarLine" fill="none" stroke="#000000" stroke-width="9.57" stroke-linejoin="bevel" points="4132.82,439.99 4132.82,658.435"/>
<polyline class="BarLine" fill="none" stroke="#000000" stroke-width="9.57" stroke-linejoin="bevel" points="1258.06,1210.66 1258.06,1429.1"/>
<polyline class="BarLine" fill="none" stroke="#000000" stroke-width="9.57" stroke-linejoin="bevel" points="1881.34,1210.66 1881.34,1429.1"/>
<polyline class="BarLine" fill="none" stroke="#000000" stroke-width="9.57" stroke-linejoin="bevel" points="2539.68,1210.66 2539.68,1429.1"/>
<polyline class="BarLine" fill="none" stroke="#000000" stroke-width="29.23" stroke-linejoin="bevel" points="3068.64,1210.66 3068.64,1429.1"/>
<polyline class="BarLine" fill="none" stroke="#000000" stroke-width="9.57" stroke-linejoin="bevel" points="3105.85,1210.66 3105.85,1429.1"/>
<path class="BarLine" transform="matrix(2.12598,0,0,2.12598,3131.99,1293.31)" d="M10.4063,0 C10.4063,-2.90625 8.09375,-5.29688 5.20313,-5.29688 C2.29688,-5.29688 0,-2.90625 0,0 C0,2.90625 2.29688,5.29688 5.20313,5.29688 C8.09375,5.29688 10.4063,2.90625 10.4063,0"/>
<path class="BarLine" transform="matrix(2.12598,0,0,2.12598,3131.99,1346.46)" d="M10.4063,0 C10.4063,-2.90625 8.09375,-5.29688 5.20313,-5.29688 C2.29688,-5.29688 0,-2.90625 0,0 C0,2.90625 2.29688,5.29688 5.20313,5.29688 C8.09375,5.29688 10.4063,2.90625 10.4063,0"/>
<polyline class="BarLine" fill="none" stroke="#000000" stroke-width="9.57" stroke-linejoin="bevel" points="3638.15,1210.66 3638.15,1429.1"/>
<polyline class="BarLine" fill="none" stroke="#000000" stroke-width="9.57" stroke-linejoin="bevel" points="4132.82,1210.66 4132.82,1429.1"/>
<polyline class="BarLine" fill="none" stroke="#000000" stroke-width="9.57" stroke-linejoin="bevel" points="1036.8,1981.33 1036.8,2199.77"/>
<polyline class="BarLine" fill="none" stroke="#000000" stroke-width="9.57" stroke-linejoin="bevel" points="1559.72,1981.33 1559.72,2199.77"/>
<polyline class="BarLine" fill="none" stroke="#000000" stroke-width="9.57" stroke-linejoin="bevel" points="2076.79,1981.33 2076.79,2199.77"/>
<polyline class="BarLine" fill="none" stroke="#000000" stroke-width="9.57" stroke-linejoin="bevel" points="2593.86,1981.33 2593.86,2199.77"/>
<polyline class="BarLine" fill="none" stroke="#000000" stroke-width="9.57" stroke-linejoin="bevel" points="3110.94,1981.33 3110.94,2199.77"/>
<polyline class="BarLine" fill="none" stroke="#000000" stroke-width="9.57" stroke-linejoin="bevel" points="3140.17,1981.33 3140.17,2199.77"/>
<path class="BarLine" transform="matrix(2.12598,0,0,2.12598,3719.45,2063.98)" d="M10.4063,0 C10.4063,-2.90625 8.09375,-5.29688 5.20313,-5.29688 C2.29688,-5.29688 0,-2.90625 0,0 C0,2.90625 2.29688,5.29688 5.20313,5.29688 C8.09375,5.29688 10.4063,2.90625 10.4063,0"/>
<path class="BarLine" transform="matrix(2.12598,0,0,2.12598,3719.45,2117.12)" d="M10.4063,0 C10.4063,-2.90625 8.09375,-5.29688 5.20313,-5.29688 C2.29688,-5.29688 0,-2.90625 0,0 C0,2.90625 2.29688,5.29688 5.20313,5.29688 C8.09375,5.29688 10.4063,2.90625 10.4063,0"/>
<polyline class="BarLine" fill="none" stroke="#000000" stroke-width="9.57" stroke-linejoin="bevel" points="3767.71,1981.33 3767.71,2199.77"/>
<polyline class="BarLine" fill="none" stroke="#000000" stroke-width="29.23" stroke-linejoin="bevel" points="3804.92,1981.33 3804.92,2199.77"/>
<polyline class="BarLine" fill="none" stroke="#000000" stroke-width="9.57" stroke-linejoin="bevel" points="4085.79,1981.33 4085.79,2199.77"/>
<polyline class="BarLine" fill="none" stroke="#000000" stroke-width="29.23" stroke-linejoin="bevel" points="4122.99,1981.33 4122.99,2199.77"/>
<polyline class="LedgerLine" fill="none" stroke="#000000" stroke-width="8.50" stroke-linejoin="bevel" points="687.302,389.764 793.584,389.764"/>
<polyline class="LedgerLine" fill="none" stroke="#000000" stroke-width="8.50" stroke-linejoin="bevel" points="967.684,389.764 1073.97,389.764"/>
<polyline class="LedgerLine" fill="none" stroke="#000000" stroke-width="8.50" stroke-linejoin="bevel" points="967.684,336.614 1073.97,336.614"/>
<polyline class="LedgerLine" fill="none" stroke="#000000" stroke-width="8.50" stroke-linejoin="bevel" points="1079.28,389.764 1185.56,389.764"/>
<polyline class="LedgerLine" fill="none" stroke="#000000" stroke-width="8.50" stroke-linejoin="bevel" points="1349.26,389.764 1455.55,389.764"/>
<polyline class="LedgerLine" fill="none" stroke="#000000" stroke-width="8.50" stroke-linejoin="bevel" points="1496.12,389.764 1602.4,389.764"/>
<polyline class="LedgerLine" fill="none" stroke="#000000" stroke-width="8.50" stroke-linejoin="bevel" points="2503.89,389.764 2610.17,389.764"/>
<polyline class="LedgerLine" fill="none" stroke="#000000" stroke-width="8.50" stroke-linejoin="bevel" points="2615.49,389.764 2721.77,389.764"/>
<polyline class="LedgerLine" fill="none" stroke="#000000" stroke-width="8.50" stroke-linejoin="bevel" points="3849.04,389.764 3955.32,389.764"/>
<polyline class="LedgerLine" fill="none" stroke="#000000" stroke-width="8.50" stroke-linejoin="bevel" points="3849.04,336.614 3955.32,336.614"/>
<polyline class="LedgerLine" fill="none" stroke="#000000" stroke-width="8.50" stroke-linejoin="bevel" points="3960.63,389.764 4066.92,389.764"/>
<polyline class="LedgerLine" fill="none" stroke="#000000" stroke-width="8.50" stroke-linejoin="bevel" points="588.294,1160.43 694.577,1160.43"/>
<polyline class="LedgerLine" fill="none" stroke="#000000" stroke-width="8.50" stroke-linejoin="bevel" points="712.782,1160.43 819.064,1160.43"/>
<polyline class="LedgerLine" fill="none" stroke="#000000" stroke-width="8.50" stroke-linejoin="bevel" points="1597.56,1160.43 1703.84,1160.43"/>
<polyline class="LedgerLine" fill="none" stroke="#000000" stroke-width="8.50" stroke-linejoin="bevel" points="1709.16,1160.43 1815.44,1160.43"/>
<polyline class="LedgerLine" fill="none" stroke="#000000" stroke-width="8.50" stroke-linejoin="bevel" points="2608.25,1160.43 2714.53,1160.43"/>
<polyline class="Stem" fill="none" stroke="#000000" stroke-width="5.85" stroke-linejoin="bevel" points="708.827,396.907 708.827,575.787"/>
<polyline class="Stem" fill="none" stroke="#000000" stroke-width="5.85" stroke-linejoin="bevel" points="989.209,343.757 989.209,535.925"/>
<polyline class="Stem" fill="none" stroke="#000000" stroke-width="5.85" stroke-linejoin="bevel" points="1100.81,370.332 1100.81,549.212"/>
<polyline class="Stem" fill="none" stroke="#000000" stroke-width="5.85" stroke-linejoin="bevel" points="1370.79,396.907 1370.79,589.075"/>
<polyline class="Stem" fill="none" stroke="#000000" stroke-width="5.85" stroke-linejoin="bevel" points="1517.64,396.907 1517.64,597.21"/>
<polyline class="Stem" fill="none" stroke="#000000" stroke-width="5.85" stroke-linejoin="bevel" points="1610.64,423.482 1610.64,602.362"/>
<polyline class="Stem" fill="none" stroke="#000000" stroke-width="5.85" stroke-linejoin="bevel" points="1702.42,450.057 1702.42,642.224"/>
<polyline class="Stem" fill="none" stroke="#000000" stroke-width="5.85" stroke-linejoin="bevel" points="1849.27,450.057 1849.27,650.401"/>
<polyline class="Stem" fill="none" stroke="#000000" stroke-width="5.85" stroke-linejoin="bevel" points="1941.05,476.631 1941.05,655.512"/>
<polyline class="Stem" fill="none" stroke="#000000" stroke-width="5.85" stroke-linejoin="bevel" points="2163.2,503.206 2163.2,655.512"/>
<polyline class="Stem" fill="none" stroke="#000000" stroke-width="5.85" stroke-linejoin="bevel" points="2283.94,556.356 2283.94,708.661"/>
<polyline class="Stem" fill="none" stroke="#000000" stroke-width="5.85" stroke-linejoin="bevel" points="2525.41,370.332 2525.41,535.925"/>
<polyline class="Stem" fill="none" stroke="#000000" stroke-width="5.85" stroke-linejoin="bevel" points="2637.01,396.907 2637.01,549.212"/>
<polyline class="Stem" fill="none" stroke="#000000" stroke-width="5.85" stroke-linejoin="bevel" points="2859.16,423.482 2859.16,589.075"/>
<polyline class="Stem" fill="none" stroke="#000000" stroke-width="5.85" stroke-linejoin="bevel" points="2990.48,423.482 2990.48,597.252"/>
<polyline class="Stem" fill="none" stroke="#000000" stroke-width="5.85" stroke-linejoin="bevel" points="3072.56,450.057 3072.56,602.362"/>
<polyline class="Stem" fill="none" stroke="#000000" stroke-width="5.85" stroke-linejoin="bevel" points="3154.63,476.631 3154.63,642.224"/>
<polyline class="Stem" fill="none" stroke="#000000" stroke-width="5.85" stroke-linejoin="bevel" points="3285.96,476.631 3285.96,650.401"/>
<polyline class="Stem" fill="none" stroke="#000000" stroke-width="5.85" stroke-linejoin="bevel" points="3368.03,503.206 3368.03,655.512"/>
<polyline class="Stem" fill="none" stroke="#000000" stroke-width="5.85" stroke-linejoin="bevel" points="3590.18,529.781 3590.18,695.374"/>
<polyline class="Stem" fill="none" stroke="#000000" stroke-width="5.85" stroke-linejoin="bevel" points="3870.56,343.757 3870.56,535.925"/>
<polyline class="Stem" fill="none" stroke="#000000" stroke-width="5.85" stroke-linejoin="bevel" points="3982.16,370.332 3982.16,549.212"/>
<polyline class="Stem" fill="none" stroke="#000000" stroke-width="5.85" stroke-linejoin="bevel" points="609.82,1167.58 609.82,1359.74"/>
<polyline class="Stem" fill="none" stroke="#000000" stroke-width="5.85" stroke-linejoin="bevel" points="734.307,1167.58 734.307,1367.35"/>
<polyline class="Stem" fill="none" stroke="#000000" stroke-width="5.85" stroke-linejoin="bevel" points="827.303,1194.15 827.303,1373.03"/>
<polyline class="Stem" fill="none" stroke="#000000" stroke-width="5.85" stroke-linejoin="bevel" points="905.107,1220.73 905.107,1412.89"/>
<polyline class="Stem" fill="none" stroke="#000000" stroke-width="5.85" stroke-linejoin="bevel" points="1029.6,1220.73 1029.6,1421.07"/>
<polyline class="Stem" fill="none" stroke="#000000" stroke-width="5.85" stroke-linejoin="bevel" points="1107.4,1247.3 1107.4,1426.18"/>
<polyline class="Stem" fill="none" stroke="#000000" stroke-width="5.85" stroke-linejoin="bevel" points="1329.55,1273.87 1329.55,1426.18"/>
<polyline class="Stem" fill="none" stroke="#000000" stroke-width="5.85" stroke-linejoin="bevel" points="1426.06,1327.02 1426.06,1479.33"/>
<polyline class="Stem" fill="none" stroke="#000000" stroke-width="5.85" stroke-linejoin="bevel" points="1619.08,1141 1619.08,1306.59"/>
<polyline class="Stem" fill="none" stroke="#000000" stroke-width="5.85" stroke-linejoin="bevel" points="1730.68,1167.58 1730.68,1319.88"/>
<polyline class="Stem" fill="none" stroke="#000000" stroke-width="5.85" stroke-linejoin="bevel" points="1952.83,1194.15 1952.83,1359.74"/>
<polyline class="Stem" fill="none" stroke="#000000" stroke-width="5.85" stroke-linejoin="bevel" points="2059.34,1194.15 2059.34,1367.57"/>
<polyline class="Stem" fill="none" stroke="#000000" stroke-width="5.85" stroke-linejoin="bevel" points="2133.73,1220.73 2133.73,1373.03"/>
<polyline class="Stem" fill="none" stroke="#000000" stroke-width="5.85" stroke-linejoin="bevel" points="2208.12,1247.3 2208.12,1412.89"/>
<polyline class="Stem" fill="none" stroke="#000000" stroke-width="5.85" stroke-linejoin="bevel" points="2314.63,1220.73 2314.63,1389.42"/>
<polyline class="Stem" fill="none" stroke="#000000" stroke-width="5.85" stroke-linejoin="bevel" points="2389.02,1194.15 2389.02,1373.03"/>
<polyline class="Stem" fill="none" stroke="#000000" stroke-width="5.85" stroke-linejoin="bevel" points="2629.77,1167.58 2629.77,1346.46"/>
<polyline class="Stem" fill="none" stroke="#000000" stroke-width="5.85" stroke-linejoin="bevel" points="2815.36,1247.3 2815.36,1412.89"/>
<polyline class="Stem" fill="none" stroke="#000000" stroke-width="5.85" stroke-linejoin="bevel" points="2908.15,1247.3 2908.15,1412.89"/>
<polyline class="Stem" fill="none" stroke="#000000" stroke-width="5.85" stroke-linejoin="bevel" points="3214.95,1300.45 3214.95,1439.47"/>
<polyline class="Stem" fill="none" stroke="#000000" stroke-width="5.85" stroke-linejoin="bevel" points="3305.8,1300.45 3305.8,1439.47"/>
<polyline class="Stem" fill="none" stroke="#000000" stroke-width="5.85" stroke-linejoin="bevel" points="3396.64,1273.87 3396.64,1426.18"/>
<polyline class="Stem" fill="none" stroke="#000000" stroke-width="5.85" stroke-linejoin="bevel" points="3487.48,1273.87 3487.48,1426.18"/>
<polyline class="Stem" fill="none" stroke="#000000" stroke-width="5.85" stroke-linejoin="bevel" points="3709.63,1327.02 3709.63,1479.33"/>
<polyline class="Stem" fill="none" stroke="#000000" stroke-width="5.85" stroke-linejoin="bevel" points="3800.47,1327.02 3800.47,1479.33"/>
<polyline class="Stem" fill="none" stroke="#000000" stroke-width="5.85" stroke-linejoin="bevel" points="3891.32,1273.87 3891.32,1426.18"/>
<polyline class="Stem" fill="none" stroke="#000000" stroke-width="5.85" stroke-linejoin="bevel" points="3982.16,1273.87 3982.16,1426.18"/>
<polyline class="Stem" fill="none" stroke="#000000" stroke-width="5.85" stroke-linejoin="bevel" points="591.217,2097.69 591.217,2250"/>
<polyline class="Stem" fill="none" stroke="#000000" stroke-width="5.85" stroke-linejoin="bevel" points="689.525,2097.69 689.525,2250"/>
<polyline class="Stem" fill="none" stroke="#000000" stroke-width="5.85" stroke-linejoin="bevel" points="787.833,2017.97 787.833,2183.56"/>
<polyline class="Stem" fill="none" stroke="#000000" stroke-width="5.85" stroke-linejoin="bevel" points="886.14,2017.97 886.14,2183.56"/>
<polyline class="Stem" fill="none" stroke="#000000" stroke-width="5.85" stroke-linejoin="bevel" points="1108.29,2071.12 1108.29,2250"/>
<polyline class="Stem" fill="none" stroke="#000000" stroke-width="5.85" stroke-linejoin="bevel" points="1308.8,2017.97 1308.8,2183.56"/>
<polyline class="Stem" fill="none" stroke="#000000" stroke-width="5.85" stroke-linejoin="bevel" points="1409.06,2017.97 1409.06,2183.56"/>
<polyline class="Stem" fill="none" stroke="#000000" stroke-width="5.85" stroke-linejoin="bevel" points="1631.21,2071.12 1631.21,2210.14"/>
<polyline class="Stem" fill="none" stroke="#000000" stroke-width="5.85" stroke-linejoin="bevel" points="1729.51,2071.12 1729.51,2210.14"/>
<polyline class="Stem" fill="none" stroke="#000000" stroke-width="5.85" stroke-linejoin="bevel" points="1827.82,2044.54 1827.82,2196.85"/>
<polyline class="Stem" fill="none" stroke="#000000" stroke-width="5.85" stroke-linejoin="bevel" points="1926.13,2044.54 1926.13,2196.85"/>
<polyline class="Stem" fill="none" stroke="#000000" stroke-width="5.85" stroke-linejoin="bevel" points="2148.28,2097.69 2148.28,2250"/>
<polyline class="Stem" fill="none" stroke="#000000" stroke-width="5.85" stroke-linejoin="bevel" points="2246.59,2097.69 2246.59,2250"/>
<polyline class="Stem" fill="none" stroke="#000000" stroke-width="5.85" stroke-linejoin="bevel" points="2344.89,1964.82 2344.89,2130.41"/>
<polyline class="Stem" fill="none" stroke="#000000" stroke-width="5.85" stroke-linejoin="bevel" points="2443.2,1991.39 2443.2,2143.7"/>
<polyline class="Stem" fill="none" stroke="#000000" stroke-width="5.85" stroke-linejoin="bevel" points="2665.35,2017.97 2665.35,2183.56"/>
<polyline class="Stem" fill="none" stroke="#000000" stroke-width="5.85" stroke-linejoin="bevel" points="2763.66,2044.54 2763.66,2196.85"/>
<polyline class="Stem" fill="none" stroke="#000000" stroke-width="5.85" stroke-linejoin="bevel" points="2861.97,2071.12 2861.97,2236.71"/>
<polyline class="Stem" fill="none" stroke="#000000" stroke-width="5.85" stroke-linejoin="bevel" points="2960.27,2097.69 2960.27,2250"/>
<polyline class="Stem" fill="none" stroke="#000000" stroke-width="5.85" stroke-linejoin="bevel" points="3274.89,2110.32 3274.89,1944.39"/>
<polyline class="Stem" fill="none" stroke="#000000" stroke-width="5.85" stroke-linejoin="bevel" points="3460.26,2017.97 3460.26,2183.56"/>
<polyline class="Stem" fill="none" stroke="#000000" stroke-width="5.85" stroke-linejoin="bevel" points="3573.57,2017.97 3573.57,2183.56"/>
<path class="Note" transform="matrix(2.12598,0,0,2.12598,705.904,389.764)" d="M31.5,-8.09375 C29.7031,-11.4063 25.9063,-13.2031 21.2969,-13.2031 C17.9063,-13.2031 14.2031,-12.2031 10.5938,-10.2969 C4,-6.79688 0,-0.90625 0,4.20313 C0,5.59375 0.296875,7 1,8.29688 C2.79688,11.5938 6.59375,13.2969 11.2031,13.2969 C14.5938,13.2969 18.2969,12.4063 21.9063,10.5 C28.5,7 32.5,1.09375 32.5,-4 C32.5,-5.40625 32.2031,-6.79688 31.5,-8.09375"/>
<path class="Note" transform="matrix(2.12598,0,0,2.12598,986.286,336.614)" d="M31.5,-8.09375 C29.7031,-11.4063 25.9063,-13.2031 21.2969,-13.2031 C17.9063,-13.2031 14.2031,-12.2031 10.5938,-10.2969 C4,-6.79688 0,-0.90625 0,4.20313 C0,5.59375 0.296875,7 1,8.29688 C2.79688,11.5938 6.59375,13.2969 11.2031,13.2969 C14.5938,13.2969 18.2969,12.4063 21.9063,10.5 C28.5,7 32.5,1.09375 32.5,-4 C32.5,-5.40625 32.2031,-6.79688 31.5,-8.09375"/>
<path class="Note" transform="matrix(2.12598,0,0,2.12598,1097.88,363.189)" d="M31.5,-8.09375 C29.7031,-11.4063 25.9063,-13.2031 21.2969,-13.2031 C17.9063,-13.2031 14.2031,-12.2031 10.5938,-10.2969 C4,-6.79688 0,-0.90625 0,4.20313 C0,5.59375 0.296875,7 1,8.29688 C2.79688,11.5938 6.59375,13.2969 11.2031,13.2969 C14.5938,13.2969 18.2969,12.4063 21.9063,10.5 C28.5,7 32.5,1.09375 32.5,-4 C32.5,-5.40625 32.2031,-6.79688 31.5,-8.09375"/>
<path class="Note" transform="matrix(2.12598,0,0,2.12598,1367.87,389.764)" d="M31.5,-8.09375 C29.7031,-11.4063 25.9063,-13.2031 21.2969,-13.2031 C17.9063,-13.2031 14.2031,-12.2031 10.5938,-10.2969 C4,-6.79688 0,-0.90625 0,4.20313 C0,5.59375 0.296875,7 1,8.29688 C2.79688,11.5938 6.59375,13.2969 11.2031,13.2969 C14.5938,13.2969 18.2969,12.4063 21.9063,10.5 C28.5,7 32.5,1.09375 32.5,-4 C32.5,-5.40625 32.2031,-6.79688 31.5,-8.09375"/>
<path class="Note" transform="matrix(2.12598,0,0,2.12598,1514.72,389.764)" d="M31.5,-8.09375 C29.7031,-11.4063 25.9063,-13.2031 21.2969,-13.2031 C17.9063,-13.2031 14.2031,-12.2031 10.5938,-10.2969 C4,-6.79688 0,-0.90625 0,4.20313 C0,5.59375 0.296875,7 1,8.29688 C2.79688,11.5938 6.59375,13.2969 11.2031,13.2969 C14.5938,13.2969 18.2969,12.4063 21.9063,10.5 C28.5,7 32.5,1.09375 32.5,-4 C32.5,-5.40625 32.2031,-6.79688 31.5,-8.09375"/>
<path class="Note" transform="matrix(2.12598,0,0,2.12598,1607.71,416.338)" d="M31.5,-8.09375 C29.7031,-11.4063 25.9063,-13.2031 21.2969,-13.2031 C17.9063,-13.2031 14.2031,-12.2031 10.5938,-10.2969 C4,-6.79688 0,-0.90625 0,4.20313 C0,5.59375 0.296875,7 1,8.29688 C2.79688,11.5938 6.59375,13.2969 11.2031,13.2969 C14.5938,13.2969 18.2969,12.4063 21.9063,10.5 C28.5,7 32.5,1.09375 32.5,-4 C32.5,-5.40625 32.2031,-6.79688 31.5,-8.09375"/>
<path class="Note" transform="matrix(2.12598,0,0,2.12598,1699.49,442.913)" d="M31.5,-8.09375 C29.7031,-11.4063 25.9063,-13.2031 21.2969,-13.2031 C17.9063,-13.2031 14.2031,-12.2031 10.5938,-10.2969 C4,-6.79688 0,-0.90625 0,4.20313 C0,5.59375 0.296875,7 1,8.29688 C2.79688,11.5938 6.59375,13.2969 11.2031,13.2969 C14.5938,13.2969 18.2969,12.4063 21.9063,10.5 C28.5,7 32.5,1.09375 32.5,-4 C32.5,-5.40625 32.2031,-6.79688 31.5,-8.09375"/>
<path class="Note" transform="matrix(2.12598,0,0,2.12598,1846.35,442.913)" d="M31.5,-8.09375 C29.7031,-11.4063 25.9063,-13.2031 21.2969,-13.2031 C17.9063,-13.2031 14.2031,-12.2031 10.5938,-10.2969 C4,-6.79688 0,-0.90625 0,4.20313 C0,5.59375 0.296875,7 1,8.29688 C2.79688,11.5938 6.59375,13.2969 11.2031,13.2969 C14.5938,13.2969 18.2969,12.4063 21.9063,10.5 C28.5,7 32.5,1.09375 32.5,-4 C32.5,-5.40625 32.2031,-6.79688 31.5,-8.09375"/>
<path class="Note" transform="matrix(2.12598,0,0,2.12598,1938.13,469.488)" d="M31.5,-8.09375 C29.7031,-11.4063 25.9063,-13.2031 21.2969,-13.2031 C17.9063,-13.2031 14.2031,-12.2031 10.5938,-10.2969 C4,-6.79688 0,-0.90625 0,4.20313 C0,5.59375 0.296875,7 1,8.29688 C2.79688,11.5938 6.59375,13.2969 11.2031,13.2969 C14.5938,13.2969 18.2969,12.4063 21.9063,10.5 C28.5,7 32.5,1.09375 32.5,-4 C32.5,-5.40625 32.2031,-6.79688 31.5,-8.09375"/>
<path class="Note" transform="matrix(2.12598,0,0,2.12598,2160.28,496.063)" d="M31.5,-8.09375 C29.7031,-11.4063 25.9063,-13.2031 21.2969,-13.2031 C17.9063,-13.2031 14.2031,-12.2031 10.5938,-10.2969 C4,-6.79688 0,-0.90625 0,4.20313 C0,5.59375 0.296875,7 1,8.29688 C2.79688,11.5938 6.59375,13.2969 11.2031,13.2969 C14.5938,13.2969 18.2969,12.4063 21.9063,10.5 C28.5,7 32.5,1.09375 32.5,-4 C32.5,-5.40625 32.2031,-6.79688 31.5,-8.09375"/>
<path class="Note" transform="matrix(2.12598,0,0,2.12598,2281.01,549.212)" d="M31.5,-8.09375 C29.7031,-11.4063 25.9063,-13.2031 21.2969,-13.2031 C17.9063,-13.2031 14.2031,-12.2031 10.5938,-10.2969 C4,-6.79688 0,-0.90625 0,4.20313 C0,5.59375 0.296875,7 1,8.29688 C2.79688,11.5938 6.59375,13.2969 11.2031,13.2969 C14.5938,13.2969 18.2969,12.4063 21.9063,10.5 C28.5,7 32.5,1.09375 32.5,-4 C32.5,-5.40625 32.2031,-6.79688 31.5,-8.09375"/>
<path class="Note" transform="matrix(2.12598,0,0,2.12598,2522.49,363.189)" d="M31.5,-8.09375 C29.7031,-11.4063 25.9063,-13.2031 21.2969,-13.2031 C17.9063,-13.2031 14.2031,-12.2031 10.5938,-10.2969 C4,-6.79688 0,-0.90625 0,4.20313 C0,5.59375 0.296875,7 1,8.29688 C2.79688,11.5938 6.59375,13.2969 11.2031,13.2969 C14.5938,13.2969 18.2969,12.4063 21.9063,10.5 C28.5,7 32.5,1.09375 32.5,-4 C32.5,-5.40625 32.2031,-6.79688 31.5,-8.09375"/>
<path class="Note" transform="matrix(2.12598,0,0,2.12598,2634.09,389.764)" d="M31.5,-8.09375 C29.7031,-11.4063 25.9063,-13.2031 21.2969,-13.2031 C17.9063,-13.2031 14.2031,-12.2031 10.5938,-10.2969 C4,-6.79688 0,-0.90625 0,4.20313 C0,5.59375 0.296875,7 1,8.29688 C2.79688,11.5938 6.59375,13.2969 11.2031,13.2969 C14.5938,13.2969 18.2969,12.4063 21.9063,10.5 C28.5,7 32.5,1.09375 32.5,-4 C32.5,-5.40625 32.2031,-6.79688 31.5,-8.09375"/>
<path class="Note" transform="matrix(2.12598,0,0,2.12598,2856.24,416.338)" d="M31.5,-8.09375 C29.7031,-11.4063 25.9063,-13.2031 21.2969,-13.2031 C17.9063,-13.2031 14.2031,-12.2031 10.5938,-10.2969 C4,-6.79688 0,-0.90625 0,4.20313 C0,5.59375 0.296875,7 1,8.29688 C2.79688,11.5938 6.59375,13.2969 11.2031,13.2969 C14.5938,13.2969 18.2969,12.4063 21.9063,10.5 C28.5,7 32.5,1.09375 32.5,-4 C32.5,-5.40625 32.2031,-6.79688 31.5,-8.09375"/>
<path class="Note" transform="matrix(2.12598,0,0,2.12598,2987.56,416.338)" d="M31.5,-8.09375 C29.7031,-11.4063 25.9063,-13.2031 21.2969,-13.2031 C17.9063,-13.2031 14.2031,-12.2031 10.5938,-10.2969 C4,-6.79688 0,-0.90625 0,4.20313 C0,5.59375 0.296875,7 1,8.29688 C2.79688,11.5938 6.59375,13.2969 11.2031,13.2969 C14.5938,13.2969 18.2969,12.4063 21.9063,10.5 C28.5,7 32.5,1.09375 32.5,-4 C32.5,-5.40625 32.2031,-6.79688 31.5,-8.09375"/>
<path class="Note" transform="matrix(2.12598,0,0,2.12598,3069.63,442.913)" d="M31.5,-8.09375 C29.7031,-11.4063 25.9063,-13.2031 21.2969,-13.2031 C17.9063,-13.2031 14.2031,-12.2031 10.5938,-10.2969 C4,-6.79688 0,-0.90625 0,4.20313 C0,5.59375 0.296875,7 1,8.29688 C2.79688,11.5938 6.59375,13.2969 11.2031,13.2969 C14.5938,13.2969 18.2969,12.4063 21.9063,10.5 C28.5,7 32.5,1.09375 32.5,-4 C32.5,-5.40625 32.2031,-6.79688 31.5,-8.09375"/>
<path class="Note" transform="matrix(2.12598,0,0,2.12598,3151.71,469.488)" d="M31.5,-8.09375 C29.7031,-11.4063 25.9063,-13.2031 21.2969,-13.2031 C17.9063,-13.2031 14.2031,-12.2031 10.5938,-10.2969 C4,-6.79688 0,-0.90625 0,4.20313 C0,5.59375 0.296875,7 1,8.29688 C2.79688,11.5938 6.59375,13.2969 11.2031,13.2969 C14.5938,13.2969 18.2969,12.4063 21.9063,10.5 C28.5,7 32.5,1.09375 32.5,-4 C32.5,-5.40625 32.2031,-6.79688 31.5,-8.09375"/>
<path class="Note" transform="matrix(2.12598,0,0,2.12598,3283.03,469.488)" d="M31.5,-8.09375 C29.7031,-11.4063 25.9063,-13.2031 21.2969,-13.2031 C17.9063,-13.2031 14.2031,-12.2031 10.5938,-10.2969 C4,-6.79688 0,-0.90625 0,4.20313 C0,5.59375 0.296875,7 1,8.29688 C2.79688,11.5938 6.59375,13.2969 11.2031,13.2969 C14.5938,13.2969 18.2969,12.4063 21.9063,10.5 C28.5,7 32.5,1.09375 32.5,-4 C32.5,-5.40625 32.2031,-6.79688 31.5,-8.09375"/>
<path class="Note" transform="matrix(2.12598,0,0,2.12598,3365.11,496.063)" d="M31.5,-8.09375 C29.7031,-11.4063 25.9063,-13.2031 21.2969,-13.2031 C17.9063,-13.2031 14.2031,-12.2031 10.5938,-10.2969 C4,-6.79688 0,-0.90625 0,4.20313 C0,5.59375 0.296875,7 1,8.29688 C2.79688,11.5938 6.59375,13.2969 11.2031,13.2969 C14.5938,13.2969 18.2969,12.4063 21.9063,10.5 C28.5,7 32.5,1.09375 32.5,-4 C32.5,-5.40625 32.2031,-6.79688 31.5,-8.09375"/>
<path class="Note" transform="matrix(2.12598,0,0,2.12598,3587.26,522.638)" d="M31.5,-8.09375 C29.7031,-11.4063 25.9063,-13.2031 21.2969,-13.2031 C17.9063,-13.2031 14.2031,-12.2031 10.5938,-10.2969 C4,-6.79688 0,-0.90625 0,4.20313 C0,5.59375 0.296875,7 1,8.29688 C2.79688,11.5938 6.59375,13.2969 11.2031,13.2969 C14.5938,13.2969 18.2969,12.4063 21.9063,10.5 C28.5,7 32.5,1.09375 32.5,-4 C32.5,-5.40625 32.2031,-6.79688 31.5,-8.09375"/>
<path class="Note" transform="matrix(2.12598,0,0,2.12598,3867.64,336.614)" d="M31.5,-8.09375 C29.7031,-11.4063 25.9063,-13.2031 21.2969,-13.2031 C17.9063,-13.2031 14.2031,-12.2031 10.5938,-10.2969 C4,-6.79688 0,-0.90625 0,4.20313 C0,5.59375 0.296875,7 1,8.29688 C2.79688,11.5938 6.59375,13.2969 11.2031,13.2969 C14.5938,13.2969 18.2969,12.4063 21.9063,10.5 C28.5,7 32.5,1.09375 32.5,-4 C32.5,-5.40625 32.2031,-6.79688 31.5,-8.09375"/>
<path class="Note" transform="matrix(2.12598,0,0,2.12598,3979.24,363.189)" d="M31.5,-8.09375 C29.7031,-11.4063 25.9063,-13.2031 21.2969,-13.2031 C17.9063,-13.2031 14.2031,-12.2031 10.5938,-10.2969 C4,-6.79688 0,-0.90625 0,4.20313 C0,5.59375 0.296875,7 1,8.29688 C2.79688,11.5938 6.59375,13.2969 11.2031,13.2969 C14.5938,13.2969 18.2969,12.4063 21.9063,10.5 C28.5,7 32.5,1.09375 32.5,-4 C32.5,-5.40625 32.2031,-6.79688 31.5,-8.09375"/>
<path class="Note" transform="matrix(2.12598,0,0,2.12598,606.896,1160.43)" d="M31.5,-8.09375 C29.7031,-11.4063 25.9063,-13.2031 21.2969,-13.2031 C17.9063,-13.2031 14.2031,-12.2031 10.5938,-10.2969 C4,-6.79688 0,-0.90625 0,4.20313 C0,5.59375 0.296875,7 1,8.29688 C2.79688,11.5938 6.59375,13.2969 11.2031,13.2969 C14.5938,13.2969 18.2969,12.4063 21.9063,10.5 C28.5,7 32.5,1.09375 32.5,-4 C32.5,-5.40625 32.2031,-6.79688 31.5,-8.09375"/>
<path class="Note" transform="matrix(2.12598,0,0,2.12598,731.384,1160.43)" d="M31.5,-8.09375 C29.7031,-11.4063 25.9063,-13.2031 21.2969,-13.2031 C17.9063,-13.2031 14.2031,-12.2031 10.5938,-10.2969 C4,-6.79688 0,-0.90625 0,4.20313 C0,5.59375 0.296875,7 1,8.29688 C2.79688,11.5938 6.59375,13.2969 11.2031,13.2969 C14.5938,13.2969 18.2969,12.4063 21.9063,10.5 C28.5,7 32.5,1.09375 32.5,-4 C32.5,-5.40625 32.2031,-6.79688 31.5,-8.09375"/>
<path class="Note" transform="matrix(2.12598,0,0,2.12598,824.379,1187.01)" d="M31.5,-8.09375 C29.7031,-11.4063 25.9063,-13.2031 21.2969,-13.2031 C17.9063,-13.2031 14.2031,-12.2031 10.5938,-10.2969 C4,-6.79688 0,-0.90625 0,4.20313 C0,5.59375 0.296875,7 1,8.29688 C2.79688,11.5938 6.59375,13.2969 11.2031,13.2969 C14.5938,13.2969 18.2969,12.4063 21.9063,10.5 C28.5,7 32.5,1.09375 32.5,-4 C32.5,-5.40625 32.2031,-6.79688 31.5,-8.09375"/>
<path class="Note" transform="matrix(2.12598,0,0,2.12598,902.184,1213.58)" d="M31.5,-8.09375 C29.7031,-11.4063 25.9063,-13.2031 21.2969,-13.2031 C17.9063,-13.2031 14.2031,-12.2031 10.5938,-10.2969 C4,-6.79688 0,-0.90625 0,4.20313 C0,5.59375 0.296875,7 1,8.29688 C2.79688,11.5938 6.59375,13.2969 11.2031,13.2969 C14.5938,13.2969 18.2969,12.4063 21.9063,10.5 C28.5,7 32.5,1.09375 32.5,-4 C32.5,-5.40625 32.2031,-6.79688 31.5,-8.09375"/>
<path class="Note" transform="matrix(2.12598,0,0,2.12598,1026.67,1213.58)" d="M31.5,-8.09375 C29.7031,-11.4063 25.9063,-13.2031 21.2969,-13.2031 C17.9063,-13.2031 14.2031,-12.2031 10.5938,-10.2969 C4,-6.79688 0,-0.90625 0,4.20313 C0,5.59375 0.296875,7 1,8.29688 C2.79688,11.5938 6.59375,13.2969 11.2031,13.2969 C14.5938,13.2969 18.2969,12.4063 21.9063,10.5 C28.5,7 32.5,1.09375 32.5,-4 C32.5,-5.40625 32.2031,-6.79688 31.5,-8.09375"/>
<path class="Note" transform="matrix(2.12598,0,0,2.12598,1104.48,1240.16)" d="M31.5,-8.09375 C29.7031,-11.4063 25.9063,-13.2031 21.2969,-13.2031 C17.9063,-13.2031 14.2031,-12.2031 10.5938,-10.2969 C4,-6.79688 0,-0.90625 0,4.20313 C0,5.59375 0.296875,7 1,8.29688 C2.79688,11.5938 6.59375,13.2969 11.2031,13.2969 C14.5938,13.2969 18.2969,12.4063 21.9063,10.5 C28.5,7 32.5,1.09375 32.5,-4 C32.5,-5.40625 32.2031,-6.79688 31.5,-8.09375"/>
<path class="Note" transform="matrix(2.12598,0,0,2.12598,1326.63,1266.73)" d="M31.5,-8.09375 C29.7031,-11.4063 25.9063,-13.2031 21.2969,-13.2031 C17.9063,-13.2031 14.2031,-12.2031 10.5938,-10.2969 C4,-6.79688 0,-0.90625 0,4.20313 C0,5.59375 0.296875,7 1,8.29688 C2.79688,11.5938 6.59375,13.2969 11.2031,13.2969 C14.5938,13.2969 18.2969,12.4063 21.9063,10.5 C28.5,7 32.5,1.09375 32.5,-4 C32.5,-5.40625 32.2031,-6.79688 31.5,-8.09375"/>
<path class="Note" transform="matrix(2.12598,0,0,2.12598,1423.14,1319.88)" d="M31.5,-8.09375 C29.7031,-11.4063 25.9063,-13.2031 21.2969,-13.2031 C17.9063,-13.2031 14.2031,-12.2031 10.5938,-10.2969 C4,-6.79688 0,-0.90625 0,4.20313 C0,5.59375 0.296875,7 1,8.29688 C2.79688,11.5938 6.59375,13.2969 11.2031,13.2969 C14.5938,13.2969 18.2969,12.4063 21.9063,10.5 C28.5,7 32.5,1.09375 32.5,-4 C32.5,-5.40625 32.2031,-6.79688 31.5,-8.09375"/>
<path class="Note" transform="matrix(2.12598,0,0,2.12598,1616.16,1133.86)" d="M31.5,-8.09375 C29.7031,-11.4063 25.9063,-13.2031 21.2969,-13.2031 C17.9063,-13.2031 14.2031,-12.2031 10.5938,-10.2969 C4,-6.79688 0,-0.90625 0,4.20313 C0,5.59375 0.296875,7 1,8.29688 C2.79688,11.5938 6.59375,13.2969 11.2031,13.2969 C14.5938,13.2969 18.2969,12.4063 21.9063,10.5 C28.5,7 32.5,1.09375 32.5,-4 C32.5,-5.40625 32.2031,-6.79688 31.5,-8.09375"/>
<path class="Note" transform="matrix(2.12598,0,0,2.12598,1727.76,1160.43)" d="M31.5,-8.09375 C29.7031,-11.4063 25.9063,-13.2031 21.2969,-13.2031 C17.9063,-13.2031 14.2031,-12.2031 10.5938,-10.2969 C4,-6.79688 0,-0.90625 0,4.20313 C0,5.59375 0.296875,7 1,8.29688 C2.79688,11.5938 6.59375,13.2969 11.2031,13.2969 C14.5938,13.2969 18.2969,12.4063 21.9063,10.5 C28.5,7 32.5,1.09375 32.5,-4 C32.5,-5.40625 32.2031,-6.79688 31.5,-8.09375"/>
<path class="Note" transform="matrix(2.12598,0,0,2.12598,1949.91,1187.01)" d="M31.5,-8.09375 C29.7031,-11.4063 25.9063,-13.2031 21.2969,-13.2031 C17.9063,-13.2031 14.2031,-12.2031 10.5938,-10.2969 C4,-6.79688 0,-0.90625 0,4.20313 C0,5.59375 0.296875,7 1,8.29688 C2.79688,11.5938 6.59375,13.2969 11.2031,13.2969 C14.5938,13.2969 18.2969,12.4063 21.9063,10.5 C28.5,7 32.5,1.09375 32.5,-4 C32.5,-5.40625 32.2031,-6.79688 31.5,-8.09375"/>
<path class="Note" transform="matrix(2.12598,0,0,2.12598,2056.41,1187.01)" d="M31.5,-8.09375 C29.7031,-11.4063 25.9063,-13.2031 21.2969,-13.2031 C17.9063,-13.2031 14.2031,-12.2031 10.5938,-10.2969 C4,-6.79688 0,-0.90625 0,4.20313 C0,5.59375 0.296875,7 1,8.29688 C2.79688,11.5938 6.59375,13.2969 11.2031,13.2969 C14.5938,13.2969 18.2969,12.4063 21.9063,10.5 C28.5,7 32.5,1.09375 32.5,-4 C32.5,-5.40625 32.2031,-6.79688 31.5,-8.09375"/>
<path class="Note" transform="matrix(2.12598,0,0,2.12598,2130.81,1213.58)" d="M31.5,-8.09375 C29.7031,-11.4063 25.9063,-13.2031 21.2969,-13.2031 C17.9063,-13.2031 14.2031,-12.2031 10.5938,-10.2969 C4,-6.79688 0,-0.90625 0,4.20313 C0,5.59375 0.296875,7 1,8.29688 C2.79688,11.5938 6.59375,13.2969 11.2031,13.2969 C14.5938,13.2969 18.2969,12.4063 21.9063,10.5 C28.5,7 32.5,1.09375 32.5,-4 C32.5,-5.40625 32.2031,-6.79688 31.5,-8.09375"/>
<path class="Note" transform="matrix(2.12598,0,0,2.12598,2205.2,1240.16)" d="M31.5,-8.09375 C29.7031,-11.4063 25.9063,-13.2031 21.2969,-13.2031 C17.9063,-13.2031 14.2031,-12.2031 10.5938,-10.2969 C4,-6.79688 0,-0.90625 0,4.20313 C0,5.59375 0.296875,7 1,8.29688 C2.79688,11.5938 6.59375,13.2969 11.2031,13.2969 C14.5938,13.2969 18.2969,12.4063 21.9063,10.5 C28.5,7 32.5,1.09375 32.5,-4 C32.5,-5.40625 32.2031,-6.79688 31.5,-8.09375"/>
<path class="Note" transform="matrix(2.12598,0,0,2.12598,2311.71,1213.58)" d="M31.5,-8.09375 C29.7031,-11.4063 25.9063,-13.2031 21.2969,-13.2031 C17.9063,-13.2031 14.2031,-12.2031 10.5938,-10.2969 C4,-6.79688 0,-0.90625 0,4.20313 C0,5.59375 0.296875,7 1,8.29688 C2.79688,11.5938 6.59375,13.2969 11.2031,13.2969 C14.5938,13.2969 18.2969,12.4063 21.9063,10.5 C28.5,7 32.5,1.09375 32.5,-4 C32.5,-5.40625 32.2031,-6.79688 31.5,-8.09375"/>
<path class="Note" transform="matrix(2.12598,0,0,2.12598,2386.1,1187.01)" d="M31.5,-8.09375 C29.7031,-11.4063 25.9063,-13.2031 21.2969,-13.2031 C17.9063,-13.2031 14.2031,-12.2031 10.5938,-10.2969 C4,-6.79688 0,-0.90625 0,4.20313 C0,5.59375 0.296875,7 1,8.29688 C2.79688,11.5938 6.59375,13.2969 11.2031,13.2969 C14.5938,13.2969 18.2969,12.4063 21.9063,10.5 C28.5,7 32.5,1.09375 32.5,-4 C32.5,-5.40625 32.2031,-6.79688 31.5,-8.09375"/>
<path class="Note" transform="matrix(2.12598,0,0,2.12598,2626.85,1160.43)" d="M31.5,-8.09375 C29.7031,-11.4063 25.9063,-13.2031 21.2969,-13.2031 C17.9063,-13.2031 14.2031,-12.2031 10.5938,-10.2969 C4,-6.79688 0,-0.90625 0,4.20313 C0,5.59375 0.296875,7 1,8.29688 C2.79688,11.5938 6.59375,13.2969 11.2031,13.2969 C14.5938,13.2969 18.2969,12.4063 21.9063,10.5 C28.5,7 32.5,1.09375 32.5,-4 C32.5,-5.40625 32.2031,-6.79688 31.5,-8.09375"/>
<path class="Note" transform="matrix(2.12598,0,0,2.12598,2812.43,1240.16)" d="M31.5,-8.09375 C29.7031,-11.4063 25.9063,-13.2031 21.2969,-13.2031 C17.9063,-13.2031 14.2031,-12.2031 10.5938,-10.2969 C4,-6.79688 0,-0.90625 0,4.20313 C0,5.59375 0.296875,7 1,8.29688 C2.79688,11.5938 6.59375,13.2969 11.2031,13.2969 C14.5938,13.2969 18.2969,12.4063 21.9063,10.5 C28.5,7 32.5,1.09375 32.5,-4 C32.5,-5.40625 32.2031,-6.79688 31.5,-8.09375"/>
<path class="Note" transform="matrix(2.12598,0,0,2.12598,2905.22,1240.16)" d="M31.5,-8.09375 C29.7031,-11.4063 25.9063,-13.2031 21.2969,-13.2031 C17.9063,-13.2031 14.2031,-12.2031 10.5938,-10.2969 C4,-6.79688 0,-0.90625 0,4.20313 C0,5.59375 0.296875,7 1,8.29688 C2.79688,11.5938 6.59375,13.2969 11.2031,13.2969 C14.5938,13.2969 18.2969,12.4063 21.9063,10.5 C28.5,7 32.5,1.09375 32.5,-4 C32.5,-5.40625 32.2031,-6.79688 31.5,-8.09375"/>
<path class="Note" transform="matrix(2.12598,0,0,2.12598,3212.03,1293.31)" d="M31.5,-8.09375 C29.7031,-11.4063 25.9063,-13.2031 21.2969,-13.2031 C17.9063,-13.2031 14.2031,-12.2031 10.5938,-10.2969 C4,-6.79688 0,-0.90625 0,4.20313 C0,5.59375 0.296875,7 1,8.29688 C2.79688,11.5938 6.59375,13.2969 11.2031,13.2969 C14.5938,13.2969 18.2969,12.4063 21.9063,10.5 C28.5,7 32.5,1.09375 32.5,-4 C32.5,-5.40625 32.2031,-6.79688 31.5,-8.09375"/>
<path class="Note" transform="matrix(2.12598,0,0,2.12598,3302.87,1293.31)" d="M31.5,-8.09375 C29.7031,-11.4063 25.9063,-13.2031 21.2969,-13.2031 C17.9063,-13.2031 14.2031,-12.2031 10.5938,-10.2969 C4,-6.79688 0,-0.90625 0,4.20313 C0,5.59375 0.296875,7 1,8.29688 C2.79688,11.5938 6.59375,13.2969 11.2031,13.2969 C14.5938,13.2969 18.2969,12.4063 21.9063,10.5 C28.5,7 32.5,1.09375 32.5,-4 C32.5,-5.40625 32.2031,-6.79688 31.5,-8.09375"/>
<path class="Note" transform="matrix(2.12598,0,0,2.12598,3393.72,1266.73)" d="M31.5,-8.09375 C29.7031,-11.4063 25.9063,-13.2031 21.2969,-13.2031 C17.9063,-13.2031 14.2031,-12.2031 10.5938,-10.2969 C4,-6.79688 0,-0.90625 0,4.20313 C0,5.59375 0.296875,7 1,8.29688 C2.79688,11.5938 6.59375,13.2969 11.2031,13.2969 C14.5938,13.2969 18.2969,12.4063 21.9063,10.5 C28.5,7 32.5,1.09375 32.5,-4 C32.5,-5.40625 32.2031,-6.79688 31.5,-8.09375"/>
<path class="Note" transform="matrix(2.12598,0,0,2.12598,3484.56,1266.73)" d="M31.5,-8.09375 C29.7031,-11.4063 25.9063,-13.2031 21.2969,-13.2031 C17.9063,-13.2031 14.2031,-12.2031 10.5938,-10.2969 C4,-6.79688 0,-0.90625 0,4.20313 C0,5.59375 0.296875,7 1,8.29688 C2.79688,11.5938 6.59375,13.2969 11.2031,13.2969 C14.5938,13.2969 18.2969,12.4063 21.9063,10.5 C28.5,7 32.5,1.09375 32.5,-4 C32.5,-5.40625 32.2031,-6.79688 31.5,-8.09375"/>
<path class="Note" transform="matrix(2.12598,0,0,2.12598,3706.71,1319.88)" d="M31.5,-8.09375 C29.7031,-11.4063 25.9063,-13.2031 21.2969,-13.2031 C17.9063,-13.2031 14.2031,-12.2031 10.5938,-10.2969 C4,-6.79688 0,-0.90625 0,4.20313 C0,5.59375 0.296875,7 1,8.29688 C2.79688,11.5938 6.59375,13.2969 11.2031,13.2969 C14.5938,13.2969 18.2969,12.4063 21.9063,10.5 C28.5,7 32.5,1.09375 32.5,-4 C32.5,-5.40625 32.2031,-6.79688 31.5,-8.09375"/>
<path class="Note" transform="matrix(2.12598,0,0,2.12598,3797.55,1319.88)" d="M31.5,-8.09375 C29.7031,-11.4063 25.9063,-13.2031 21.2969,-13.2031 C17.9063,-13.2031 14.2031,-12.2031 10.5938,-10.2969 C4,-6.79688 0,-0.90625 0,4.20313 C0,5.59375 0.296875,7 1,8.29688 C2.79688,11.5938 6.59375,13.2969 11.2031,13.2969 C14.5938,13.2969 18.2969,12.4063 21.9063,10.5 C28.5,7 32.5,1.09375 32.5,-4 C32.5,-5.40625 32.2031,-6.79688 31.5,-8.09375"/>
<path class="Note" transform="matrix(2.12598,0,0,2.12598,3888.39,1266.73)" d="M31.5,-8.09375 C29.7031,-11.4063 25.9063,-13.2031 21.2969,-13.2031 C17.9063,-13.2031 14.2031,-12.2031 10.5938,-10.2969 C4,-6.79688 0,-0.90625 0,4.20313 C0,5.59375 0.296875,7 1,8.29688 C2.79688,11.5938 6.59375,13.2969 11.2031,13.2969 C14.5938,13.2969 18.2969,12.4063 21.9063,10.5 C28.5,7 32.5,1.09375 32.5,-4 C32.5,-5.40625 32.2031,-6.79688 31.5,-8.09375"/>
<path class="Note" transform="matrix(2.12598,0,0,2.12598,3979.24,1266.73)" d="M31.5,-8.09375 C29.7031,-11.4063 25.9063,-13.2031 21.2969,-13.2031 C17.9063,-13.2031 14.2031,-12.2031 10.5938,-10.2969 C4,-6.79688 0,-0.90625 0,4.20313 C0,5.59375 0.296875,7 1,8.29688 C2.79688,11.5938 6.59375,13.2969 11.2031,13.2969 C14.5938,13.2969 18.2969,12.4063 21.9063,10.5 C28.5,7 32.5,1.09375 32.5,-4 C32.5,-5.40625 32.2031,-6.79688 31.5,-8.09375"/>
<path class="Note" transform="matrix(2.12598,0,0,2.12598,588.294,2090.55)" d="M31.5,-8.09375 C29.7031,-11.4063 25.9063,-13.2031 21.2969,-13.2031 C17.9063,-13.2031 14.2031,-12.2031 10.5938,-10.2969 C4,-6.79688 0,-0.90625 0,4.20313 C0,5.59375 0.296875,7 1,8.29688 C2.79688,11.5938 6.59375,13.2969 11.2031,13.2969 C14.5938,13.2969 18.2969,12.4063 21.9063,10.5 C28.5,7 32.5,1.09375 32.5,-4 C32.5,-5.40625 32.2031,-6.79688 31.5,-8.09375"/>
<path class="Note" transform="matrix(2.12598,0,0,2.12598,686.602,2090.55)" d="M31.5,-8.09375 C29.7031,-11.4063 25.9063,-13.2031 21.2969,-13.2031 C17.9063,-13.2031 14.2031,-12.2031 10.5938,-10.2969 C4,-6.79688 0,-0.90625 0,4.20313 C0,5.59375 0.296875,7 1,8.29688 C2.79688,11.5938 6.59375,13.2969 11.2031,13.2969 C14.5938,13.2969 18.2969,12.4063 21.9063,10.5 C28.5,7 32.5,1.09375 32.5,-4 C32.5,-5.40625 32.2031,-6.79688 31.5,-8.09375"/>
<path class="Note" transform="matrix(2.12598,0,0,2.12598,784.909,2010.83)" d="M31.5,-8.09375 C29.7031,-11.4063 25.9063,-13.2031 21.2969,-13.2031 C17.9063,-13.2031 14.2031,-12.2031 10.5938,-10.2969 C4,-6.79688 0,-0.90625 0,4.20313 C0,5.59375 0.296875,7 1,8.29688 C2.79688,11.5938 6.59375,13.2969 11.2031,13.2969 C14.5938,13.2969 18.2969,12.4063 21.9063,10.5 C28.5,7 32.5,1.09375 32.5,-4 C32.5,-5.40625 32.2031,-6.79688 31.5,-8.09375"/>
<path class="Note" transform="matrix(2.12598,0,0,2.12598,883.217,2010.83)" d="M31.5,-8.09375 C29.7031,-11.4063 25.9063,-13.2031 21.2969,-13.2031 C17.9063,-13.2031 14.2031,-12.2031 10.5938,-10.2969 C4,-6.79688 0,-0.90625 0,4.20313 C0,5.59375 0.296875,7 1,8.29688 C2.79688,11.5938 6.59375,13.2969 11.2031,13.2969 C14.5938,13.2969 18.2969,12.4063 21.9063,10.5 C28.5,7 32.5,1.09375 32.5,-4 C32.5,-5.40625 32.2031,-6.79688 31.5,-8.09375"/>
<path class="Note" transform="matrix(2.12598,0,0,2.12598,1105.37,2063.98)" d="M31.5,-8.09375 C29.7031,-11.4063 25.9063,-13.2031 21.2969,-13.2031 C17.9063,-13.2031 14.2031,-12.2031 10.5938,-10.2969 C4,-6.79688 0,-0.90625 0,4.20313 C0,5.59375 0.296875,7 1,8.29688 C2.79688,11.5938 6.59375,13.2969 11.2031,13.2969 C14.5938,13.2969 18.2969,12.4063 21.9063,10.5 C28.5,7 32.5,1.09375 32.5,-4 C32.5,-5.40625 32.2031,-6.79688 31.5,-8.09375"/>
<path class="Note" transform="matrix(2.12598,0,0,2.12598,1305.88,2010.83)" d="M31.5,-8.09375 C29.7031,-11.4063 25.9063,-13.2031 21.2969,-13.2031 C17.9063,-13.2031 14.2031,-12.2031 10.5938,-10.2969 C4,-6.79688 0,-0.90625 0,4.20313 C0,5.59375 0.296875,7 1,8.29688 C2.79688,11.5938 6.59375,13.2969 11.2031,13.2969 C14.5938,13.2969 18.2969,12.4063 21.9063,10.5 C28.5,7 32.5,1.09375 32.5,-4 C32.5,-5.40625 32.2031,-6.79688 31.5,-8.09375"/>
<path class="Note" transform="matrix(2.12598,0,0,2.12598,1406.14,2010.83)" d="M31.5,-8.09375 C29.7031,-11.4063 25.9063,-13.2031 21.2969,-13.2031 C17.9063,-13.2031 14.2031,-12.2031 10.5938,-10.2969 C4,-6.79688 0,-0.90625 0,4.20313 C0,5.59375 0.296875,7 1,8.29688 C2.79688,11.5938 6.59375,13.2969 11.2031,13.2969 C14.5938,13.2969 18.2969,12.4063 21.9063,10.5 C28.5,7 32.5,1.09375 32.5,-4 C32.5,-5.40625 32.2031,-6.79688 31.5,-8.09375"/>
<path class="Note" transform="matrix(2.12598,0,0,2.12598,1628.28,2063.98)" d="M31.5,-8.09375 C29.7031,-11.4063 25.9063,-13.2031 21.2969,-13.2031 C17.9063,-13.2031 14.2031,-12.2031 10.5938,-10.2969 C4,-6.79688 0,-0.90625 0,4.20313 C0,5.59375 0.296875,7 1,8.29688 C2.79688,11.5938 6.59375,13.2969 11.2031,13.2969 C14.5938,13.2969 18.2969,12.4063 21.9063,10.5 C28.5,7 32.5,1.09375 32.5,-4 C32.5,-5.40625 32.2031,-6.79688 31.5,-8.09375"/>
<path class="Note" transform="matrix(2.12598,0,0,2.12598,1726.59,2063.98)" d="M31.5,-8.09375 C29.7031,-11.4063 25.9063,-13.2031 21.2969,-13.2031 C17.9063,-13.2031 14.2031,-12.2031 10.5938,-10.2969 C4,-6.79688 0,-0.90625 0,4.20313 C0,5.59375 0.296875,7 1,8.29688 C2.79688,11.5938 6.59375,13.2969 11.2031,13.2969 C14.5938,13.2969 18.2969,12.4063 21.9063,10.5 C28.5,7 32.5,1.09375 32.5,-4 C32.5,-5.40625 32.2031,-6.79688 31.5,-8.09375"/>
<path class="Note" transform="matrix(2.12598,0,0,2.12598,1824.9,2037.4)" d="M31.5,-8.09375 C29.7031,-11.4063 25.9063,-13.2031 21.2969,-13.2031 C17.9063,-13.2031 14.2031,-12.2031 10.5938,-10.2969 C4,-6.79688 0,-0.90625 0,4.20313 C0,5.59375 0.296875,7 1,8.29688 C2.79688,11.5938 6.59375,13.2969 11.2031,13.2969 C14.5938,13.2969 18.2969,12.4063 21.9063,10.5 C28.5,7 32.5,1.09375 32.5,-4 C32.5,-5.40625 32.2031,-6.79688 31.5,-8.09375"/>
<path class="Note" transform="matrix(2.12598,0,0,2.12598,1923.21,2037.4)" d="M31.5,-8.09375 C29.7031,-11.4063 25.9063,-13.2031 21.2969,-13.2031 C17.9063,-13.2031 14.2031,-12.2031 10.5938,-10.2969 C4,-6.79688 0,-0.90625 0,4.20313 C0,5.59375 0.296875,7 1,8.29688 C2.79688,11.5938 6.59375,13.2969 11.2031,13.2969 C14.5938,13.2969 18.2969,12.4063 21.9063,10.5 C28.5,7 32.5,1.09375 32.5,-4 C32.5,-5.40625 32.2031,-6.79688 31.5,-8.09375"/>
<path class="Note" transform="matrix(2.12598,0,0,2.12598,2145.36,2090.55)" d="M31.5,-8.09375 C29.7031,-11.4063 25.9063,-13.2031 21.2969,-13.2031 C17.9063,-13.2031 14.2031,-12.2031 10.5938,-10.2969 C4,-6.79688 0,-0.90625 0,4.20313 C0,5.59375 0.296875,7 1,8.29688 C2.79688,11.5938 6.59375,13.2969 11.2031,13.2969 C14.5938,13.2969 18.2969,12.4063 21.9063,10.5 C28.5,7 32.5,1.09375 32.5,-4 C32.5,-5.40625 32.2031,-6.79688 31.5,-8.09375"/>
<path class="Note" transform="matrix(2.12598,0,0,2.12598,2243.66,2090.55)" d="M31.5,-8.09375 C29.7031,-11.4063 25.9063,-13.2031 21.2969,-13.2031 C17.9063,-13.2031 14.2031,-12.2031 10.5938,-10.2969 C4,-6.79688 0,-0.90625 0,4.20313 C0,5.59375 0.296875,7 1,8.29688 C2.79688,11.5938 6.59375,13.2969 11.2031,13.2969 C14.5938,13.2969 18.2969,12.4063 21.9063,10.5 C28.5,7 32.5,1.09375 32.5,-4 C32.5,-5.40625 32.2031,-6.79688 31.5,-8.09375"/>
<path class="Note" transform="matrix(2.12598,0,0,2.12598,2341.97,1957.68)" d="M31.5,-8.09375 C29.7031,-11.4063 25.9063,-13.2031 21.2969,-13.2031 C17.9063,-13.2031 14.2031,-12.2031 10.5938,-10.2969 C4,-6.79688 0,-0.90625 0,4.20313 C0,5.59375 0.296875,7 1,8.29688 C2.79688,11.5938 6.59375,13.2969 11.2031,13.2969 C14.5938,13.2969 18.2969,12.4063 21.9063,10.5 C28.5,7 32.5,1.09375 32.5,-4 C32.5,-5.40625 32.2031,-6.79688 31.5,-8.09375"/>
<path class="Note" transform="matrix(2.12598,0,0,2.12598,2440.28,1984.25)" d="M31.5,-8.09375 C29.7031,-11.4063 25.9063,-13.2031 21.2969,-13.2031 C17.9063,-13.2031 14.2031,-12.2031 10.5938,-10.2969 C4,-6.79688 0,-0.90625 0,4.20313 C0,5.59375 0.296875,7 1,8.29688 C2.79688,11.5938 6.59375,13.2969 11.2031,13.2969 C14.5938,13.2969 18.2969,12.4063 21.9063,10.5 C28.5,7 32.5,1.09375 32.5,-4 C32.5,-5.40625 32.2031,-6.79688 31.5,-8.09375"/>
<path class="Note" transform="matrix(2.12598,0,0,2.12598,2662.43,2010.83)" d="M31.5,-8.09375 C29.7031,-11.4063 25.9063,-13.2031 21.2969,-13.2031 C17.9063,-13.2031 14.2031,-12.2031 10.5938,-10.2969 C4,-6.79688 0,-0.90625 0,4.20313 C0,5.59375 0.296875,7 1,8.29688 C2.79688,11.5938 6.59375,13.2969 11.2031,13.2969 C14.5938,13.2969 18.2969,12.4063 21.9063,10.5 C28.5,7 32.5,1.09375 32.5,-4 C32.5,-5.40625 32.2031,-6.79688 31.5,-8.09375"/>
<path class="Note" transform="matrix(2.12598,0,0,2.12598,2760.74,2037.4)" d="M31.5,-8.09375 C29.7031,-11.4063 25.9063,-13.2031 21.2969,-13.2031 C17.9063,-13.2031 14.2031,-12.2031 10.5938,-10.2969 C4,-6.79688 0,-0.90625 0,4.20313 C0,5.59375 0.296875,7 1,8.29688 C2.79688,11.5938 6.59375,13.2969 11.2031,13.2969 C14.5938,13.2969 18.2969,12.4063 21.9063,10.5 C28.5,7 32.5,1.09375 32.5,-4 C32.5,-5.40625 32.2031,-6.79688 31.5,-8.09375"/>
<path class="Note" transform="matrix(2.12598,0,0,2.12598,2859.04,2063.98)" d="M31.5,-8.09375 C29.7031,-11.4063 25.9063,-13.2031 21.2969,-13.2031 C17.9063,-13.2031 14.2031,-12.2031 10.5938,-10.2969 C4,-6.79688 0,-0.90625 0,4.20313 C0,5.59375 0.296875,7 1,8.29688 C2.79688,11.5938 6.59375,13.2969 11.2031,13.2969 C14.5938,13.2969 18.2969,12.4063 21.9063,10.5 C28.5,7 32.5,1.09375 32.5,-4 C32.5,-5.40625 32.2031,-6.79688 31.5,-8.09375"/>
<path class="Note" transform="matrix(2.12598,0,0,2.12598,2957.35,2090.55)" d="M31.5,-8.09375 C29.7031,-11.4063 25.9063,-13.2031 21.2969,-13.2031 C17.9063,-13.2031 14.2031,-12.2031 10.5938,-10.2969 C4,-6.79688 0,-0.90625 0,4.20313 C0,5.59375 0.296875,7 1,8.29688 C2.79688,11.5938 6.59375,13.2969 11.2031,13.2969 C14.5938,13.2969 18.2969,12.4063 21.9063,10.5 C28.5,7 32.5,1.09375 32.5,-4 C32.5,-5.40625 32.2031,-6.79688 31.5,-8.09375"/>
<path class="Note" transform="matrix(2.12598,0,0,2.12598,3208.73,2117.12)" d="M31.5,-8.09375 C29.7031,-11.4063 25.9063,-13.2031 21.2969,-13.2031 C17.9063,-13.2031 14.2031,-12.2031 10.5938,-10.2969 C4,-6.79688 0,-0.90625 0,4.20313 C0,5.59375 0.296875,7 1,8.29688 C2.79688,11.5938 6.59375,13.2969 11.2031,13.2969 C14.5938,13.2969 18.2969,12.4063 21.9063,10.5 C28.5,7 32.5,1.09375 32.5,-4 C32.5,-5.40625 32.2031,-6.79688 31.5,-8.09375"/>
<path class="Note" transform="matrix(2.12598,0,0,2.12598,3457.34,2010.83)" d="M31.5,-8.09375 C29.7031,-11.4063 25.9063,-13.2031 21.2969,-13.2031 C17.9063,-13.2031 14.2031,-12.2031 10.5938,-10.2969 C4,-6.79688 0,-0.90625 0,4.20313 C0,5.59375 0.296875,7 1,8.29688 C2.79688,11.5938 6.59375,13.2969 11.2031,13.2969 C14.5938,13.2969 18.2969,12.4063 21.9063,10.5 C28.5,7 32.5,1.09375 32.5,-4 C32.5,-5.40625 32.2031,-6.79688 31.5,-8.09375"/>
<path class="Note" transform="matrix(2.12598,0,0,2.12598,3570.65,2010.83)" d="M31.5,-8.09375 C29.7031,-11.4063 25.9063,-13.2031 21.2969,-13.2031 C17.9063,-13.2031 14.2031,-12.2031 10.5938,-10.2969 C4,-6.79688 0,-0.90625 0,4.20313 C0,5.59375 0.296875,7 1,8.29688 C2.79688,11.5938 6.59375,13.2969 11.2031,13.2969 C14.5938,13.2969 18.2969,12.4063 21.9063,10.5 C28.5,7 32.5,1.09375 32.5,-4 C32.5,-5.40625 32.2031,-6.79688 31.5,-8.09375"/>
<path class="Clef" transform="matrix(2.12598,0,0,2.12598,113.386,602.362)" d="M63.3594,-5.92188 C62.125,-11.3438 59.4844,-15.1719 58.7031,-16.2031 C55.5156,-20.4844 51.5,-23.3281 46.8125,-24.6875 C43.7031,-25.5625 40.7031,-25.6875 38.2813,-25.5 C37.2344,-31.5156 36.2344,-37.3906 35.3281,-42.8438 C40.7813,-49.0156 44.4063,-54.8125 46.6875,-59.1094 C50.1563,-65.6875 51.2969,-70.2656 51.3594,-70.4688 C53.0781,-75.6875 53.4375,-83.3906 52.3281,-91.5938 C51.3281,-99.1406 49.2344,-105.859 46.875,-109.109 C45.8594,-110.531 44.7969,-111.266 43.7656,-111.266 C42.5469,-111.266 40.0313,-110.031 37.1406,-107.25 C34.8438,-105.063 31.5781,-101.172 29.0156,-95.1563 C26.0156,-88.0938 25.7969,-78.6094 26.1563,-71.8906 C26.5313,-64.6094 27.6406,-58.9219 27.6563,-58.875 C27.6719,-58.7813 27.9375,-57.2813 28.375,-54.7188 C28.1563,-54.4844 27.9063,-54.2656 27.6563,-54.0156 C26.625,-53.0156 25.4375,-51.8906 24.0469,-50.5 C23.1875,-49.6406 22.2344,-48.7344 21.2344,-47.7656 C12.7969,-39.625 0,-27.2969 0,-8.14063 C0,-3.4375 0.90625,0.984375 2.6875,5 C4.26563,8.59375 6.5625,11.875 9.5,14.75 C17.2344,22.3125 27.8281,25.5156 34.875,25.3594 C37.8281,25.2813 40.4688,25.0469 42.8594,24.5938 C44.6875,34.2031 45.8281,41.2344 45.8594,46.5781 C45.9063,53.0938 44.25,57.0781 40.3594,59.8438 C37.9219,61.5781 35.1094,62.5313 32.0156,62.6719 C29.4219,62.7969 27.1563,62.3281 25.7344,61.9219 L25.7188,61.9219 C25.7188,61.9219 25.4375,61.8281 25.4219,61.6406 C25.4063,61.4531 25.7656,61.4063 25.7656,61.4063 L25.7969,61.4063 C27.7188,60.9688 31.2813,59.7344 33.6406,56.4375 C35.4375,53.9063 36.3125,49.2813 34.4688,45.3438 C33.3594,42.9531 30.8594,40 25.2344,39.5469 C22.7344,39.3438 20.4688,39.8594 18.4688,41.0625 C16.6563,42.1406 15.1563,43.7813 14.1094,45.7813 C11.6563,50.4844 12.1094,56.2188 15.2344,60.0625 C18.2031,63.6875 22.8125,66 28.25,66.5781 C29.1094,66.6719 29.9531,66.7031 30.7969,66.7031 C35.2344,66.7031 39.625,65.5 43.2031,63.2969 C46.8594,60.7188 48.9844,56.7344 49.6563,51.1094 C50.2188,46.4688 49.8281,40.5469 48.4375,32.4688 C48.0781,30.375 47.5313,27.3438 46.875,23.5938 C52.625,21.6719 56.7813,18.0938 60.5469,12.2344 C63.8438,6.5 64.7813,0.390625 63.3594,-5.92188 M29.1406,20.2969 C24.5,19.0781 20.0625,16.5781 16.3125,13.0625 C15,11.8438 13.125,9.67188 11.6563,6.28125 C10.2969,3.10938 9.625,-0.328125 9.6875,-3.90625 C9.75,-8.60938 11.0625,-13.4375 13.5625,-18.2188 C16.4844,-23.7969 21.0469,-29.3281 27.1094,-34.6563 C28.5625,-35.9375 29.9375,-37.2188 31.2188,-38.5 C31.9844,-34.2344 32.8125,-29.5469 33.6875,-24.6719 C29.8438,-23.4063 25.0938,-20.25 21.9844,-14.5938 C18.4375,-8.03125 18.5781,-2.5 19.3125,0.984375 C20.25,5.4375 22.7813,9.20313 26.2344,11.2969 C27.1719,11.8594 31.2969,13.9844 33.1406,13.4063 C33.5156,13.2969 33.7813,13.0625 33.9219,12.7344 C34.4375,11.5625 33.4063,10.9219 31.8594,9.96875 C31.25,9.59375 30.5781,9.17188 29.8594,8.64063 C26.5313,6.15625 25.0781,1.70313 26.1563,-2.6875 C26.7344,-5.07813 28.0156,-7.25 29.8594,-8.95313 C31.5156,-10.5 33.5625,-11.5938 35.9375,-12.2344 C37.9844,-0.984375 40.0469,10.1719 41.6875,18.5313 C41.8125,19.2188 41.9531,19.8906 42.0781,20.5625 C37.7031,21.5 33.3594,21.4063 29.1406,20.2969 M40.4688,-12.9063 C50.8125,-13.375 55.0781,-5.9375 55.9688,-1.10938 C56.4375,1.4375 56.4375,5.875 54.8906,10.0938 C53.7188,13.2656 51.2656,17.3438 46.125,19.4063 C46.0625,18.9844 45.9844,18.5469 45.9063,18.125 C44.3594,9.34375 42.4219,-1.65625 40.4688,-12.9063 M33.1406,-83.8594 C34.9219,-89.5938 37.6563,-92.8438 39.6563,-94.5781 C41.4063,-96.0938 43.0469,-96.8125 43.9688,-96.8125 C44.1094,-96.8125 44.2344,-96.7813 44.3281,-96.75 C44.7969,-96.6094 45.3281,-96.0469 45.7969,-95.1719 C48.1094,-90.8906 47.3594,-84.1719 46.0156,-79.7344 C44.3906,-74.3281 41.4688,-68.7188 32.6719,-59.1094 C32.5,-60.2188 32.3438,-61.2656 32.1875,-62.25 C30.9375,-70.5313 31.2656,-77.8125 33.1406,-83.8594"/>
<path class="Clef" transform="matrix(2.12598,0,0,2.12598,113.386,1373.03)" d="M63.3594,-5.92188 C62.125,-11.3438 59.4844,-15.1719 58.7031,-16.2031 C55.5156,-20.4844 51.5,-23.3281 46.8125,-24.6875 C43.7031,-25.5625 40.7031,-25.6875 38.2813,-25.5 C37.2344,-31.5156 36.2344,-37.3906 35.3281,-42.8438 C40.7813,-49.0156 44.4063,-54.8125 46.6875,-59.1094 C50.1563,-65.6875 51.2969,-70.2656 51.3594,-70.4688 C53.0781,-75.6875 53.4375,-83.3906 52.3281,-91.5938 C51.3281,-99.1406 49.2344,-105.859 46.875,-109.109 C45.8594,-110.531 44.7969,-111.266 43.7656,-111.266 C42.5469,-111.266 40.0313,-110.031 37.1406,-107.25 C34.8438,-105.063 31.5781,-101.172 29.0156,-95.1563 C26.0156,-88.0938 25.7969,-78.6094 26.1563,-71.8906 C26.5313,-64.6094 27.6406,-58.9219 27.6563,-58.875 C27.6719,-58.7813 27.9375,-57.2813 28.375,-54.7188 C28.1563,-54.4844 27.9063,-54.2656 27.6563,-54.0156 C26.625,-53.0156 25.4375,-51.8906 24.0469,-50.5 C23.1875,-49.6406 22.2344,-48.7344 21.2344,-47.7656 C12.7969,-39.625 0,-27.2969 0,-8.14063 C0,-3.4375 0.90625,0.984375 2.6875,5 C4.26563,8.59375 6.5625,11.875 9.5,14.75 C17.2344,22.3125 27.8281,25.5156 34.875,25.3594 C37.8281,25.2813 40.4688,25.0469 42.8594,24.5938 C44.6875,34.2031 45.8281,41.2344 45.8594,46.5781 C45.9063,53.0938 44.25,57.0781 40.3594,59.8438 C37.9219,61.5781 35.1094,62.5313 32.0156,62.6719 C29.4219,62.7969 27.1563,62.3281 25.7344,61.9219 L25.7188,61.9219 C25.7188,61.9219 25.4375,61.8281 25.4219,61.6406 C25.4063,61.4531 25.7656,61.4063 25.7656,61.4063 L25.7969,61.4063 C27.7188,60.9688 31.2813,59.7344 33.6406,56.4375 C35.4375,53.9063 36.3125,49.2813 34.4688,45.3438 C33.3594,42.9531 30.8594,40 25.2344,39.5469 C22.7344,39.3438 20.4688,39.8594 18.4688,41.0625 C16.6563,42.1406 15.1563,43.7813 14.1094,45.7813 C11.6563,50.4844 12.1094,56.2188 15.2344,60.0625 C18.2031,63.6875 22.8125,66 28.25,66.5781 C29.1094,66.6719 29.9531,66.7031 30.7969,66.7031 C35.2344,66.7031 39.625,65.5 43.2031,63.2969 C46.8594,60.7188 48.9844,56.7344 49.6563,51.1094 C50.2188,46.4688 49.8281,40.5469 48.4375,32.4688 C48.0781,30.375 47.5313,27.3438 46.875,23.5938 C52.625,21.6719 56.7813,18.0938 60.5469,12.2344 C63.8438,6.5 64.7813,0.390625 63.3594,-5.92188 M29.1406,20.2969 C24.5,19.0781 20.0625,16.5781 16.3125,13.0625 C15,11.8438 13.125,9.67188 11.6563,6.28125 C10.2969,3.10938 9.625,-0.328125 9.6875,-3.90625 C9.75,-8.60938 11.0625,-13.4375 13.5625,-18.2188 C16.4844,-23.7969 21.0469,-29.3281 27.1094,-34.6563 C28.5625,-35.9375 29.9375,-37.2188 31.2188,-38.5 C31.9844,-34.2344 32.8125,-29.5469 33.6875,-24.6719 C29.8438,-23.4063 25.0938,-20.25 21.9844,-14.5938 C18.4375,-8.03125 18.5781,-2.5 19.3125,0.984375 C20.25,5.4375 22.7813,9.20313 26.2344,11.2969 C27.1719,11.8594 31.2969,13.9844 33.1406,13.4063 C33.5156,13.2969 33.7813,13.0625 33.9219,12.7344 C34.4375,11.5625 33.4063,10.9219 31.8594,9.96875 C31.25,9.59375 30.5781,9.17188 29.8594,8.64063 C26.5313,6.15625 25.0781,1.70313 26.1563,-2.6875 C26.7344,-5.07813 28.0156,-7.25 29.8594,-8.95313 C31.5156,-10.5 33.5625,-11.5938 35.9375,-12.2344 C37.9844,-0.984375 40.0469,10.1719 41.6875,18.5313 C41.8125,19.2188 41.9531,19.8906 42.0781,20.5625 C37.7031,21.5 33.3594,21.4063 29.1406,20.2969 M40.4688,-12.9063 C50.8125,-13.375 55.0781,-5.9375 55.9688,-1.10938 C56.4375,1.4375 56.4375,5.875 54.8906,10.0938 C53.7188,13.2656 51.2656,17.3438 46.125,19.4063 C46.0625,18.9844 45.9844,18.5469 45.9063,18.125 C44.3594,9.34375 42.4219,-1.65625 40.4688,-12.9063 M33.1406,-83.8594 C34.9219,-89.5938 37.6563,-92.8438 39.6563,-94.5781 C41.4063,-96.0938 43.0469,-96.8125 43.9688,-96.8125 C44.1094,-96.8125 44.2344,-96.7813 44.3281,-96.75 C44.7969,-96.6094 45.3281,-96.0469 45.7969,-95.1719 C48.1094,-90.8906 47.3594,-84.1719 46.0156,-79.7344 C44.3906,-74.3281 41.4688,-68.7188 32.6719,-59.1094 C32.5,-60.2188 32.3438,-61.2656 32.1875,-62.25 C30.9375,-70.5313 31.2656,-77.8125 33.1406,-83.8594"/>
<path class="Clef" transform="matrix(2.12598,0,0,2.12598,113.386,2143.7)" d="M63.3594,-5.92188 C62.125,-11.3438 59.4844,-15.1719 58.7031,-16.2031 C55.5156,-20.4844 51.5,-23.3281 46.8125,-24.6875 C43.7031,-25.5625 40.7031,-25.6875 38.2813,-25.5 C37.2344,-31.5156 36.2344,-37.3906 35.3281,-42.8438 C40.7813,-49.0156 44.4063,-54.8125 46.6875,-59.1094 C50.1563,-65.6875 51.2969,-70.2656 51.3594,-70.4688 C53.0781,-75.6875 53.4375,-83.3906 52.3281,-91.5938 C51.3281,-99.1406 49.2344,-105.859 46.875,-109.109 C45.8594,-110.531 44.7969,-111.266 43.7656,-111.266 C42.5469,-111.266 40.0313,-110.031 37.1406,-107.25 C34.8438,-105.063 31.5781,-101.172 29.0156,-95.1563 C26.0156,-88.0938 25.7969,-78.6094 26.1563,-71.8906 C26.5313,-64.6094 27.6406,-58.9219 27.6563,-58.875 C27.6719,-58.7813 27.9375,-57.2813 28.375,-54.7188 C28.1563,-54.4844 27.9063,-54.2656 27.6563,-54.0156 C26.625,-53.0156 25.4375,-51.8906 24.0469,-50.5 C23.1875,-49.6406 22.2344,-48.7344 21.2344,-47.7656 C12.7969,-39.625 0,-27.2969 0,-8.14063 C0,-3.4375 0.90625,0.984375 2.6875,5 C4.26563,8.59375 6.5625,11.875 9.5,14.75 C17.2344,22.3125 27.8281,25.5156 34.875,25.3594 C37.8281,25.2813 40.4688,25.0469 42.8594,24.5938 C44.6875,34.2031 45.8281,41.2344 45.8594,46.5781 C45.9063,53.0938 44.25,57.0781 40.3594,59.8438 C37.9219,61.5781 35.1094,62.5313 32.0156,62.6719 C29.4219,62.7969 27.1563,62.3281 25.7344,61.9219 L25.7188,61.9219 C25.7188,61.9219 25.4375,61.8281 25.4219,61.6406 C25.4063,61.4531 25.7656,61.4063 25.7656,61.4063 L25.7969,61.4063 C27.7188,60.9688 31.2813,59.7344 33.6406,56.4375 C35.4375,53.9063 36.3125,49.2813 34.4688,45.3438 C33.3594,42.9531 30.8594,40 25.2344,39.5469 C22.7344,39.3438 20.4688,39.8594 18.4688,41.0625 C16.6563,42.1406 15.1563,43.7813 14.1094,45.7813 C11.6563,50.4844 12.1094,56.2188 15.2344,60.0625 C18.2031,63.6875 22.8125,66 28.25,66.5781 C29.1094,66.6719 29.9531,66.7031 30.7969,66.7031 C35.2344,66.7031 39.625,65.5 43.2031,63.2969 C46.8594,60.7188 48.9844,56.7344 49.6563,51.1094 C50.2188,46.4688 49.8281,40.5469 48.4375,32.4688 C48.0781,30.375 47.5313,27.3438 46.875,23.5938 C52.625,21.6719 56.7813,18.0938 60.5469,12.2344 C63.8438,6.5 64.7813,0.390625 63.3594,-5.92188 M29.1406,20.2969 C24.5,19.0781 20.0625,16.5781 16.3125,13.0625 C15,11.8438 13.125,9.67188 11.6563,6.28125 C10.2969,3.10938 9.625,-0.328125 9.6875,-3.90625 C9.75,-8.60938 11.0625,-13.4375 13.5625,-18.2188 C16.4844,-23.7969 21.0469,-29.3281 27.1094,-34.6563 C28.5625,-35.9375 29.9375,-37.2188 31.2188,-38.5 C31.9844,-34.2344 32.8125,-29.5469 33.6875,-24.6719 C29.8438,-23.4063 25.0938,-20.25 21.9844,-14.5938 C18.4375,-8.03125 18.5781,-2.5 19.3125,0.984375 C20.25,5.4375 22.7813,9.20313 26.2344,11.2969 C27.1719,11.8594 31.2969,13.9844 33.1406,13.4063 C33.5156,13.2969 33.7813,13.0625 33.9219,12.7344 C34.4375,11.5625 33.4063,10.9219 31.8594,9.96875 C31.25,9.59375 30.5781,9.17188 29.8594,8.64063 C26.5313,6.15625 25.0781,1.70313 26.1563,-2.6875 C26.7344,-5.07813 28.0156,-7.25 29.8594,-8.95313 C31.5156,-10.5 33.5625,-11.5938 35.9375,-12.2344 C37.9844,-0.984375 40.0469,10.1719 41.6875,18.5313 C41.8125,19.2188 41.9531,19.8906 42.0781,20.5625 C37.7031,21.5 33.3594,21.4063 29.1406,20.2969 M40.4688,-12.9063 C50.8125,-13.375 55.0781,-5.9375 55.9688,-1.10938 C56.4375,1.4375 56.4375,5.875 54.8906,10.0938 C53.7188,13.2656 51.2656,17.3438 46.125,19.4063 C46.0625,18.9844 45.9844,18.5469 45.9063,18.125 C44.3594,9.34375 42.4219,-1.65625 40.4688,-12.9063 M33.1406,-83.8594 C34.9219,-89.5938 37.6563,-92.8438 39.6563,-94.5781 C41.4063,-96.0938 43.0469,-96.8125 43.9688,-96.8125 C44.1094,-96.8125 44.2344,-96.7813 44.3281,-96.75 C44.7969,-96.6094 45.3281,-96.0469 45.7969,-95.1719 C48.1094,-90.8906 47.3594,-84.1719 46.0156,-79.7344 C44.3906,-74.3281 41.4688,-68.7188 32.6719,-59.1094 C32.5,-60.2188 32.3438,-61.2656 32.1875,-62.25 C30.9375,-70.5313 31.2656,-77.8125 33.1406,-83.8594"/>
<path class="KeySig" transform="matrix(2.12598,0,0,2.12598,408.864,416.338)" d="M23.2969,-10.5938 C23.9063,-10.7031 24.4063,-11.4063 24.4063,-12 L24.4063,-17.9063 C24.4063,-18.7031 23.7969,-19.2969 23,-19.2969 L22.7969,-19.2969 L19.5,-18.5938 L19.5,-33.5 L16.7031,-33.5 L16.7031,-18 L7.79688,-16.2031 L7.79688,-30.2969 L5,-30.2969 L5,-15.5938 L1.09375,-14.7969 C0.5,-14.7031 0,-14 0,-13.4063 L0,-13.2031 L0,-7.40625 L0,-7.59375 C0,-6.79688 0.59375,-6.20313 1.40625,-6.20313 L1.70313,-6.20313 L5,-6.90625 L5,9.59375 L1.09375,10.4063 C0.5,10.5 0,11.2031 0,11.7969 L0,17.5938 C0,18.4063 0.59375,19 1.40625,19 L1.70313,19 L5,18.2969 L5,33.2031 L7.79688,33.2031 L7.79688,17.7031 L16.7031,15.9063 L16.7031,30 L19.5,30 L19.5,15.2969 L23.2969,14.5938 C23.9063,14.5 24.4063,13.7969 24.4063,13.2031 L24.4063,7.29688 C24.4063,6.5 23.7969,5.90625 23,5.90625 L22.7969,5.90625 L19.5,6.59375 L19.5,-9.90625 L23.2969,-10.5938 M7.79688,9.09375 L7.79688,-7.5 L16.7031,-9.29688 L16.7031,7.20313 L7.79688,9.09375 "/>
<path class="KeySig" transform="matrix(2.12598,0,0,2.12598,355.715,522.638)" d="M23.2969,-10.5938 C23.9063,-10.7031 24.4063,-11.4063 24.4063,-12 L24.4063,-17.9063 C24.4063,-18.7031 23.7969,-19.2969 23,-19.2969 L22.7969,-19.2969 L19.5,-18.5938 L19.5,-33.5 L16.7031,-33.5 L16.7031,-18 L7.79688,-16.2031 L7.79688,-30.2969 L5,-30.2969 L5,-15.5938 L1.09375,-14.7969 C0.5,-14.7031 0,-14 0,-13.4063 L0,-13.2031 L0,-7.40625 L0,-7.59375 C0,-6.79688 0.59375,-6.20313 1.40625,-6.20313 L1.70313,-6.20313 L5,-6.90625 L5,9.59375 L1.09375,10.4063 C0.5,10.5 0,11.2031 0,11.7969 L0,17.5938 C0,18.4063 0.59375,19 1.40625,19 L1.70313,19 L5,18.2969 L5,33.2031 L7.79688,33.2031 L7.79688,17.7031 L16.7031,15.9063 L16.7031,30 L19.5,30 L19.5,15.2969 L23.2969,14.5938 C23.9063,14.5 24.4063,13.7969 24.4063,13.2031 L24.4063,7.29688 C24.4063,6.5 23.7969,5.90625 23,5.90625 L22.7969,5.90625 L19.5,6.59375 L19.5,-9.90625 L23.2969,-10.5938 M7.79688,9.09375 L7.79688,-7.5 L16.7031,-9.29688 L16.7031,7.20313 L7.79688,9.09375 "/>
<path class="KeySig" transform="matrix(2.12598,0,0,2.12598,302.565,442.913)" d="M23.2969,-10.5938 C23.9063,-10.7031 24.4063,-11.4063 24.4063,-12 L24.4063,-17.9063 C24.4063,-18.7031 23.7969,-19.2969 23,-19.2969 L22.7969,-19.2969 L19.5,-18.5938 L19.5,-33.5 L16.7031,-33.5 L16.7031,-18 L7.79688,-16.2031 L7.79688,-30.2969 L5,-30.2969 L5,-15.5938 L1.09375,-14.7969 C0.5,-14.7031 0,-14 0,-13.4063 L0,-13.2031 L0,-7.40625 L0,-7.59375 C0,-6.79688 0.59375,-6.20313 1.40625,-6.20313 L1.70313,-6.20313 L5,-6.90625 L5,9.59375 L1.09375,10.4063 C0.5,10.5 0,11.2031 0,11.7969 L0,17.5938 C0,18.4063 0.59375,19 1.40625,19 L1.70313,19 L5,18.2969 L5,33.2031 L7.79688,33.2031 L7.79688,17.7031 L16.7031,15.9063 L16.7031,30 L19.5,30 L19.5,15.2969 L23.2969,14.5938 C23.9063,14.5 24.4063,13.7969 24.4063,13.2031 L24.4063,7.29688 C24.4063,6.5 23.7969,5.90625 23,5.90625 L22.7969,5.90625 L19.5,6.59375 L19.5,-9.90625 L23.2969,-10.5938 M7.79688,9.09375 L7.79688,-7.5 L16.7031,-9.29688 L16.7031,7.20313 L7.79688,9.09375 "/>
<path class="KeySig" transform="matrix(2.12598,0,0,2.12598,408.864,1187.01)" d="M23.2969,-10.5938 C23.9063,-10.7031 24.4063,-11.4063 24.4063,-12 L24.4063,-17.9063 C24.4063,-18.7031 23.7969,-19.2969 23,-19.2969 L22.7969,-19.2969 L19.5,-18.5938 L19.5,-33.5 L16.7031,-33.5 L16.7031,-18 L7.79688,-16.2031 L7.79688,-30.2969 L5,-30.2969 L5,-15.5938 L1.09375,-14.7969 C0.5,-14.7031 0,-14 0,-13.4063 L0,-13.2031 L0,-7.40625 L0,-7.59375 C0,-6.79688 0.59375,-6.20313 1.40625,-6.20313 L1.70313,-6.20313 L5,-6.90625 L5,9.59375 L1.09375,10.4063 C0.5,10.5 0,11.2031 0,11.7969 L0,17.5938 C0,18.4063 0.59375,19 1.40625,19 L1.70313,19 L5,18.2969 L5,33.2031 L7.79688,33.2031 L7.79688,17.7031 L16.7031,15.9063 L16.7031,30 L19.5,30 L19.5,15.2969 L23.2969,14.5938 C23.9063,14.5 24.4063,13.7969 24.4063,13.2031 L24.4063,7.29688 C24.4063,6.5 23.7969,5.90625 23,5.90625 L22.7969,5.90625 L19.5,6.59375 L19.5,-9.90625 L23.2969,-10.5938 M7.79688,9.09375 L7.79688,-7.5 L16.7031,-9.29688 L16.7031,7.20313 L7.79688,9.09375 "/>
<path class="KeySig" transform="matrix(2.12598,0,0,2.12598,355.715,1293.31)" d="M23.2969,-10.5938 C23.9063,-10.7031 24.4063,-11.4063 24.4063,-12 L24.4063,-17.9063 C24.4063,-18.7031 23.7969,-19.2969 23,-19.2969 L22.7969,-19.2969 L19.5,-18.5938 L19.5,-33.5 L16.7031,-33.5 L16.7031,-18 L7.79688,-16.2031 L7.79688,-30.2969 L5,-30.2969 L5,-15.5938 L1.09375,-14.7969 C0.5,-14.7031 0,-14 0,-13.4063 L0,-13.2031 L0,-7.40625 L0,-7.59375 C0,-6.79688 0.59375,-6.20313 1.40625,-6.20313 L1.70313,-6.20313 L5,-6.90625 L5,9.59375 L1.09375,10.4063 C0.5,10.5 0,11.2031 0,11.7969 L0,17.5938 C0,18.4063 0.59375,19 1.40625,19 L1.70313,19 L5,18.2969 L5,33.2031 L7.79688,33.2031 L7.79688,17.7031 L16.7031,15.9063 L16.7031,30 L19.5,30 L19.5,15.2969 L23.2969,14.5938 C23.9063,14.5 24.4063,13.7969 24.4063,13.2031 L24.4063,7.29688 C24.4063,6.5 23.7969,5.90625 23,5.90625 L22.7969,5.90625 L19.5,6.59375 L19.5,-9.90625 L23.2969,-10.5938 M7.79688,9.09375 L7.79688,-7.5 L16.7031,-9.29688 L16.7031,7.20313 L7.79688,9.09375 "/>
<path class="KeySig" transform="matrix(2.12598,0,0,2.12598,302.565,1213.58)" d="M23.2969,-10.5938 C23.9063,-10.7031 24.4063,-11.4063 24.4063,-12 L24.4063,-17.9063 C24.4063,-18.7031 23.7969,-19.2969 23,-19.2969 L22.7969,-19.2969 L19.5,-18.5938 L19.5,-33.5 L16.7031,-33.5 L16.7031,-18 L7.79688,-16.2031 L7.79688,-30.2969 L5,-30.2969 L5,-15.5938 L1.09375,-14.7969 C0.5,-14.7031 0,-14 0,-13.4063 L0,-13.2031 L0,-7.40625 L0,-7.59375 C0,-6.79688 0.59375,-6.20313 1.40625,-6.20313 L1.70313,-6.20313 L5,-6.90625 L5,9.59375 L1.09375,10.4063 C0.5,10.5 0,11.2031 0,11.7969 L0,17.5938 C0,18.4063 0.59375,19 1.40625,19 L1.70313,19 L5,18.2969 L5,33.2031 L7.79688,33.2031 L7.79688,17.7031 L16.7031,15.9063 L16.7031,30 L19.5,30 L19.5,15.2969 L23.2969,14.5938 C23.9063,14.5 24.4063,13.7969 24.4063,13.2031 L24.4063,7.29688 C24.4063,6.5 23.7969,5.90625 23,5.90625 L22.7969,5.90625 L19.5,6.59375 L19.5,-9.90625 L23.2969,-10.5938 M7.79688,9.09375 L7.79688,-7.5 L16.7031,-9.29688 L16.7031,7.20313 L7.79688,9.09375 "/>
<path class="KeySig" transform="matrix(2.12598,0,0,2.12598,408.864,1957.68)" d="M23.2969,-10.5938 C23.9063,-10.7031 24.4063,-11.4063 24.4063,-12 L24.4063,-17.9063 C24.4063,-18.7031 23.7969,-19.2969 23,-19.2969 L22.7969,-19.2969 L19.5,-18.5938 L19.5,-33.5 L16.7031,-33.5 L16.7031,-18 L7.79688,-16.2031 L7.79688,-30.2969 L5,-30.2969 L5,-15.5938 L1.09375,-14.7969 C0.5,-14.7031 0,-14 0,-13.4063 L0,-13.2031 L0,-7.40625 L0,-7.59375 C0,-6.79688 0.59375,-6.20313 1.40625,-6.20313 L1.70313,-6.20313 L5,-6.90625 L5,9.59375 L1.09375,10.4063 C0.5,10.5 0,11.2031 0,11.7969 L0,17.5938 C0,18.4063 0.59375,19 1.40625,19 L1.70313,19 L5,18.2969 L5,33.2031 L7.79688,33.2031 L7.79688,17.7031 L16.7031,15.9063 L16.7031,30 L19.5,30 L19.5,15.2969 L23.2969,14.5938 C23.9063,14.5 24.4063,13.7969 24.4063,13.2031 L24.4063,7.29688 C24.4063,6.5 23.7969,5.90625 23,5.90625 L22.7969,5.90625 L19.5,6.59375 L19.5,-9.90625 L23.2969,-10.5938 M7.79688,9.09375 L7.79688,-7.5 L16.7031,-9.29688 L16.7031,7.20313 L7.79688,9.09375 "/>
<path class="KeySig" transform="matrix(2.12598,0,0,2.12598,355.715,2063.98)" d="M23.2969,-10.5938 C23.9063,-10.7031 24.4063,-11.4063 24.4063,-12 L24.4063,-17.9063 C24.4063,-18.7031 23.7969,-19.2969 23,-19.2969 L22.7969,-19.2969 L19.5,-18.5938 L19.5,-33.5 L16.7031,-33.5 L16.7031,-18 L7.79688,-16.2031 L7.79688,-30.2969 L5,-30.2969 L5,-15.5938 L1.09375,-14.7969 C0.5,-14.7031 0,-14 0,-13.4063 L0,-13.2031 L0,-7.40625 L0,-7.59375 C0,-6.79688 0.59375,-6.20313 1.40625,-6.20313 L1.70313,-6.20313 L5,-6.90625 L5,9.59375 L1.09375,10.4063 C0.5,10.5 0,11.2031 0,11.7969 L0,17.5938 C0,18.4063 0.59375,19 1.40625,19 L1.70313,19 L5,18.2969 L5,33.2031 L7.79688,33.2031 L7.79688,17.7031 L16.7031,15.9063 L16.7031,30 L19.5,30 L19.5,15.2969 L23.2969,14.5938 C23.9063,14.5 24.4063,13.7969 24.4063,13.2031 L24.4063,7.29688 C24.4063,6.5 23.7969,5.90625 23,5.90625 L22.7969,5.90625 L19.5,6.59375 L19.5,-9.90625 L23.2969,-10.5938 M7.79688,9.09375 L7.79688,-7.5 L16.7031,-9.29688 L16.7031,7.20313 L7.79688,9.09375 "/>
<path class="KeySig" transform="matrix(2.12598,0,0,2.12598,302.565,1984.25)" d="M23.2969,-10.5938 C23.9063,-10.7031 24.4063,-11.4063 24.4063,-12 L24.4063,-17.9063 C24.4063,-18.7031 23.7969,-19.2969 23,-19.2969 L22.7969,-19.2969 L19.5,-18.5938 L19.5,-33.5 L16.7031,-33.5 L16.7031,-18 L7.79688,-16.2031 L7.79688,-30.2969 L5,-30.2969 L5,-15.5938 L1.09375,-14.7969 C0.5,-14.7031 0,-14 0,-13.4063 L0,-13.2031 L0,-7.40625 L0,-7.59375 C0,-6.79688 0.59375,-6.20313 1.40625,-6.20313 L1.70313,-6.20313 L5,-6.90625 L5,9.59375 L1.09375,10.4063 C0.5,10.5 0,11.2031 0,11.7969 L0,17.5938 C0,18.4063 0.59375,19 1.40625,19 L1.70313,19 L5,18.2969 L5,33.2031 L7.79688,33.2031 L7.79688,17.7031 L16.7031,15.9063 L16.7031,30 L19.5,30 L19.5,15.2969 L23.2969,14.5938 C23.9063,14.5 24.4063,13.7969 24.4063,13.2031 L24.4063,7.29688 C24.4063,6.5 23.7969,5.90625 23,5.90625 L22.7969,5.90625 L19.5,6.59375 L19.5,-9.90625 L23.2969,-10.5938 M7.79688,9.09375 L7.79688,-7.5 L16.7031,-9.29688 L16.7031,7.20313 L7.79688,9.09375 "/>
<path class="TimeSig" transform="matrix(2.12598,0,0,2.12598,517.97,497.126)" d="M34.2031,3.90625 C33.4063,6.09375 31.4063,13.2969 26.5,13.2969 C20,13.2969 18.5938,9.29688 13.2031,9.29688 C12.4063,9.29688 11.5938,9.40625 10.5938,9.59375 C10.5938,9.59375 13.0938,5.79688 23.7031,2.5 C34.2969,-0.796875 37,-6 37,-12 C37,-16.2031 35.1094,-24.5 20,-24.5 C4.90625,-24.5 2.09375,-15.4063 2.09375,-10.7969 C2.09375,-6.70313 5.5,-3.40625 9.59375,-3.40625 C13.7031,-3.40625 17,-6.70313 17,-10.7969 C17,-13.5938 15,-16.7031 12.4063,-17.7031 C12.0938,-17.7969 11.7031,-18.2969 11.7031,-18.7969 C11.7031,-19.4063 12.2031,-20.0938 14,-20.5938 C14.5,-20.7969 15.9063,-21.0938 17.4063,-21.0938 C18.7969,-21.0938 20.4063,-20.7969 21.5938,-20 C23.5,-18.7969 24.2031,-17 24.2031,-12.5 C24.2031,-0.796875 10.2969,1.70313 4.5,10.4063 C4.5,10.4063 1.5,14.5938 1.5,19.2969 C1.5,24 3.90625,24.2969 5.09375,24.2969 C6.70313,24.2969 8.40625,23 8.40625,21.2031 C8.40625,20.7969 8.29688,20.4063 8.09375,19.9063 C7.5,18.5 7.29688,17.4063 7.29688,16.5938 C7.29688,16.2969 7.29688,16 7.40625,15.7031 C7.5,15.0938 8.29688,14.0938 10.7031,14.0938 C13.5938,14.0938 14.7031,17.5 16.5,20.0938 C18.2969,22.7031 21.0938,24.2969 24.2969,24.2969 C27.5,24.2969 31.7969,22 33.6094,18.2969 C35.4063,14.5938 37.7031,7.09375 37.7031,4.40625 C37.7031,3.09375 36.9063,2.5 36,2.5 C35.2969,2.5 34.6094,2.90625 34.2031,3.90625"/>
<path class="TimeSig" transform="matrix(2.12598,0,0,2.12598,510.961,602.08)" d="M3.59375,12.625 L20.7656,12.625 L20.7656,20.0781 L12.5469,20.0781 C11.7656,20.0781 11.125,20.7031 11.125,21.4844 L11.125,23.3906 C11.125,24.1719 11.7656,24.7969 12.5469,24.7969 L42.7969,24.7969 C43.5781,24.7969 44.2031,24.1719 44.2031,23.3906 L44.2031,21.4844 C44.2031,20.7031 43.5781,20.0781 42.7969,20.0781 L33.8594,20.0781 L33.8594,12.625 L42.7969,12.625 C43.5781,12.625 44.2031,12 44.2031,11.2188 L44.2031,9.3125 C44.2031,8.53125 43.5781,7.90625 42.7969,7.90625 L33.8594,7.90625 L33.8594,-8.0625 C33.8594,-8.59375 33.5469,-9.07813 33.0781,-9.3125 L31.8594,-9.92188 C31.3281,-10.1719 30.7031,-10.0781 30.2656,-9.6875 L21.2188,-1.375 C20.9375,-1.09375 20.7656,-0.734375 20.7656,-0.328125 L20.7656,7.90625 L9.25,7.90625 C9.25,7.90625 20.375,-4.125 32.2188,-19.8906 C33.0781,-21.0469 32.5781,-22.0938 32.3906,-22.2813 L30.2188,-24.4844 C29.9531,-24.75 29.5938,-24.9063 29.2188,-24.9063 C28.625,-24.9063 15.0625,-24.875 14.3438,-24.9063 C13.625,-24.9219 13.0938,-24.2969 13.0156,-23.6875 C13.0156,-23.6875 12.4844,-16.3281 9.875,-8.1875 C7.28125,-0.078125 4.34375,4.90625 1.6875,8.53125 C1.6875,8.53125 1.14063,9.51563 1.5,10.2656 C1.84375,11.0156 2.48438,12.0938 2.48438,12.0938 C2.48438,12.0938 2.73438,12.625 3.59375,12.625"/>
<path class="Rest" transform="matrix(2.12598,0,0,2.12598,868.231,549.212)" d="M26.7344,-20.2656 C25.9844,-20.5469 25.3125,-20.2031 24.9844,-19.5938 C24.6563,-18.9844 21.4688,-13.0625 17.0469,-9.79688 C15.6563,-8.78125 14.0625,-8.14063 12.5,-7.8125 C13.625,-9.0625 14.2969,-10.7344 14.2969,-12.5469 C14.2969,-16.5 11.0938,-19.7031 7.15625,-19.7031 C3.20313,-19.7031 0,-16.5 0,-12.5469 C0,-9.54688 1.875,-6.95313 4.51563,-5.90625 C6.04688,-5.1875 7.95313,-4.73438 10,-4.73438 C12.8438,-4.73438 15.9531,-5.5625 18.6719,-7.5625 C19.9375,-8.48438 21.125,-9.6875 22.2031,-10.9375 L10.8125,24.6875 L13.4531,25.5469 L27.5313,-18.5469 C27.7656,-19.2813 27.4688,-19.9688 26.7344,-20.2656"/>
<path class="Rest" transform="matrix(2.12598,0,0,2.12598,2401.75,549.212)" d="M26.7344,-20.2656 C25.9844,-20.5469 25.3125,-20.2031 24.9844,-19.5938 C24.6563,-18.9844 21.4688,-13.0625 17.0469,-9.79688 C15.6563,-8.78125 14.0625,-8.14063 12.5,-7.8125 C13.625,-9.0625 14.2969,-10.7344 14.2969,-12.5469 C14.2969,-16.5 11.0938,-19.7031 7.15625,-19.7031 C3.20313,-19.7031 0,-16.5 0,-12.5469 C0,-9.54688 1.875,-6.95313 4.51563,-5.90625 C6.04688,-5.1875 7.95313,-4.73438 10,-4.73438 C12.8438,-4.73438 15.9531,-5.5625 18.6719,-7.5625 C19.9375,-8.48438 21.125,-9.6875 22.2031,-10.9375 L10.8125,24.6875 L13.4531,25.5469 L27.5313,-18.5469 C27.7656,-19.2813 27.4688,-19.9688 26.7344,-20.2656"/>
<path class="Rest" transform="matrix(2.12598,0,0,2.12598,3749.58,549.212)" d="M26.7344,-20.2656 C25.9844,-20.5469 25.3125,-20.2031 24.9844,-19.5938 C24.6563,-18.9844 21.4688,-13.0625 17.0469,-9.79688 C15.6563,-8.78125 14.0625,-8.14063 12.5,-7.8125 C13.625,-9.0625 14.2969,-10.7344 14.2969,-12.5469 C14.2969,-16.5 11.0938,-19.7031 7.15625,-19.7031 C3.20313,-19.7031 0,-16.5 0,-12.5469 C0,-9.54688 1.875,-6.95313 4.51563,-5.90625 C6.04688,-5.1875 7.95313,-4.73438 10,-4.73438 C12.8438,-4.73438 15.9531,-5.5625 18.6719,-7.5625 C19.9375,-8.48438 21.125,-9.6875 22.2031,-10.9375 L10.8125,24.6875 L13.4531,25.5469 L27.5313,-18.5469 C27.7656,-19.2813 27.4688,-19.9688 26.7344,-20.2656"/>
<path class="Rest" transform="matrix(2.12598,0,0,2.12598,1519.65,1319.88)" d="M26.7344,-20.2656 C25.9844,-20.5469 25.3125,-20.2031 24.9844,-19.5938 C24.6563,-18.9844 21.4688,-13.0625 17.0469,-9.79688 C15.6563,-8.78125 14.0625,-8.14063 12.5,-7.8125 C13.625,-9.0625 14.2969,-10.7344 14.2969,-12.5469 C14.2969,-16.5 11.0938,-19.7031 7.15625,-19.7031 C3.20313,-19.7031 0,-16.5 0,-12.5469 C0,-9.54688 1.875,-6.95313 4.51563,-5.90625 C6.04688,-5.1875 7.95313,-4.73438 10,-4.73438 C12.8438,-4.73438 15.9531,-5.5625 18.6719,-7.5625 C19.9375,-8.48438 21.125,-9.6875 22.2031,-10.9375 L10.8125,24.6875 L13.4531,25.5469 L27.5313,-18.5469 C27.7656,-19.2813 27.4688,-19.9688 26.7344,-20.2656"/>
<path class="Rest" transform="matrix(2.12598,0,0,2.12598,2719.64,1319.88)" d="M26.7344,-20.2656 C25.9844,-20.5469 25.3125,-20.2031 24.9844,-19.5938 C24.6563,-18.9844 21.4688,-13.0625 17.0469,-9.79688 C15.6563,-8.78125 14.0625,-8.14063 12.5,-7.8125 C13.625,-9.0625 14.2969,-10.7344 14.2969,-12.5469 C14.2969,-16.5 11.0938,-19.7031 7.15625,-19.7031 C3.20313,-19.7031 0,-16.5 0,-12.5469 C0,-9.54688 1.875,-6.95313 4.51563,-5.90625 C6.04688,-5.1875 7.95313,-4.73438 10,-4.73438 C12.8438,-4.73438 15.9531,-5.5625 18.6719,-7.5625 C19.9375,-8.48438 21.125,-9.6875 22.2031,-10.9375 L10.8125,24.6875 L13.4531,25.5469 L27.5313,-18.5469 C27.7656,-19.2813 27.4688,-19.9688 26.7344,-20.2656"/>
<path class="Rest" transform="matrix(2.12598,0,0,2.12598,1205.62,2090.55)" d="M26.7344,-20.2656 C25.9844,-20.5469 25.3125,-20.2031 24.9844,-19.5938 C24.6563,-18.9844 21.4688,-13.0625 17.0469,-9.79688 C15.6563,-8.78125 14.0625,-8.14063 12.5,-7.8125 C13.625,-9.0625 14.2969,-10.7344 14.2969,-12.5469 C14.2969,-16.5 11.0938,-19.7031 7.15625,-19.7031 C3.20313,-19.7031 0,-16.5 0,-12.5469 C0,-9.54688 1.875,-6.95313 4.51563,-5.90625 C6.04688,-5.1875 7.95313,-4.73438 10,-4.73438 C12.8438,-4.73438 15.9531,-5.5625 18.6719,-7.5625 C19.9375,-8.48438 21.125,-9.6875 22.2031,-10.9375 L10.8125,24.6875 L13.4531,25.5469 L27.5313,-18.5469 C27.7656,-19.2813 27.4688,-19.9688 26.7344,-20.2656"/>
<path class="Rest" transform="matrix(2.12598,0,0,2.12598,3344.03,2090.55)" d="M26.7344,-20.2656 C25.9844,-20.5469 25.3125,-20.2031 24.9844,-19.5938 C24.6563,-18.9844 21.4688,-13.0625 17.0469,-9.79688 C15.6563,-8.78125 14.0625,-8.14063 12.5,-7.8125 C13.625,-9.0625 14.2969,-10.7344 14.2969,-12.5469 C14.2969,-16.5 11.0938,-19.7031 7.15625,-19.7031 C3.20313,-19.7031 0,-16.5 0,-12.5469 C0,-9.54688 1.875,-6.95313 4.51563,-5.90625 C6.04688,-5.1875 7.95313,-4.73438 10,-4.73438 C12.8438,-4.73438 15.9531,-5.5625 18.6719,-7.5625 C19.9375,-8.48438 21.125,-9.6875 22.2031,-10.9375 L10.8125,24.6875 L13.4531,25.5469 L27.5313,-18.5469 C27.7656,-19.2813 27.4688,-19.9688 26.7344,-20.2656"/>
<path class="Rest" transform="matrix(2.12598,0,0,2.12598,3912.8,2037.4)" d="M31.1094,-0.5 L1.40625,-0.5 C0.59375,-0.5 0,0.09375 0,0.90625 L0,11.7031 C0,12.5 0.59375,13.0938 1.40625,13.0938 L31.1094,13.0938 C31.9063,13.0938 32.5,12.5 32.5,11.7031 L32.5,0.90625 C32.5,0.09375 31.9063,-0.5 31.1094,-0.5"/>
<path class="Beam" fill-rule="evenodd" d="M986.286,522.544 L1103.73,536.527 L1103.73,563.29 L986.286,549.306 L986.286,522.544 "/>
<path class="Beam" fill-rule="evenodd" d="M986.286,482.682 L1103.73,496.665 L1103.73,523.428 L986.286,509.444 L986.286,482.682 "/>
<path class="Beam" fill-rule="evenodd" d="M1367.87,575.767 L1613.56,589.378 L1613.56,615.994 L1367.87,602.382 L1367.87,575.767 "/>
<path class="Beam" fill-rule="evenodd" d="M1514.72,544.04 L1613.56,549.516 L1613.56,576.132 L1514.72,570.656 L1514.72,544.04 "/>
<path class="Beam" fill-rule="evenodd" d="M1699.49,628.916 L1943.97,642.529 L1943.97,669.145 L1699.49,655.532 L1699.49,628.916 "/>
<path class="Beam" fill-rule="evenodd" d="M1846.35,597.231 L1943.97,602.667 L1943.97,629.283 L1846.35,623.847 L1846.35,597.231 "/>
<path class="Beam" fill-rule="evenodd" d="M2160.28,640.994 L2286.86,696.717 L2286.86,725.753 L2160.28,670.03 L2160.28,640.994 "/>
<path class="Beam" fill-rule="evenodd" d="M2522.49,522.544 L2639.93,536.527 L2639.93,563.29 L2522.49,549.306 L2522.49,522.544 "/>
<path class="Beam" fill-rule="evenodd" d="M2522.49,482.682 L2639.93,496.665 L2639.93,523.428 L2522.49,509.444 L2522.49,482.682 "/>
<path class="Beam" fill-rule="evenodd" d="M2856.24,575.762 L3075.48,589.413 L3075.48,616.039 L2856.24,602.388 L2856.24,575.762 "/>
<path class="Beam" fill-rule="evenodd" d="M2987.56,544.076 L3075.48,549.551 L3075.48,576.177 L2987.56,570.702 L2987.56,544.076 "/>
<path class="Beam" fill-rule="evenodd" d="M3151.71,628.911 L3370.95,642.563 L3370.95,669.189 L3151.71,655.537 L3151.71,628.911 "/>
<path class="Beam" fill-rule="evenodd" d="M3283.03,597.226 L3370.95,602.7 L3370.95,629.327 L3283.03,623.852 L3283.03,597.226 "/>
<path class="Beam" fill-rule="evenodd" d="M3867.64,522.544 L3985.08,536.527 L3985.08,563.29 L3867.64,549.306 L3867.64,522.544 "/>
<path class="Beam" fill-rule="evenodd" d="M3867.64,482.682 L3985.08,496.665 L3985.08,523.428 L3867.64,509.444 L3867.64,482.682 "/>
<path class="Beam" fill-rule="evenodd" d="M606.896,1346.43 L830.226,1360.08 L830.226,1386.7 L606.896,1373.06 L606.896,1346.43 "/>
<path class="Beam" fill-rule="evenodd" d="M731.384,1314.17 L830.226,1320.21 L830.226,1346.84 L731.384,1340.8 L731.384,1314.17 "/>
<path class="Beam" fill-rule="evenodd" d="M902.184,1399.58 L1110.32,1413.25 L1110.32,1439.88 L902.184,1426.21 L902.184,1399.58 "/>
<path class="Beam" fill-rule="evenodd" d="M1026.67,1367.89 L1110.32,1373.39 L1110.32,1400.02 L1026.67,1394.52 L1026.67,1367.89 "/>
<path class="Beam" fill-rule="evenodd" d="M1326.63,1411.01 L1428.98,1467.38 L1428.98,1497.72 L1326.63,1441.35 L1326.63,1411.01 "/>
<path class="Beam" fill-rule="evenodd" d="M1616.16,1293.21 L1733.6,1307.2 L1733.6,1333.96 L1616.16,1319.98 L1616.16,1293.21 "/>
<path class="Beam" fill-rule="evenodd" d="M1616.16,1253.35 L1733.6,1267.33 L1733.6,1294.1 L1616.16,1280.11 L1616.16,1253.35 "/>
<path class="Beam" fill-rule="evenodd" d="M1949.91,1346.42 L2136.65,1360.14 L2136.65,1386.78 L1949.91,1373.07 L1949.91,1346.42 "/>
<path class="Beam" fill-rule="evenodd" d="M2056.41,1314.38 L2136.65,1320.27 L2136.65,1346.92 L2056.41,1341.03 L2056.41,1314.38 "/>
<path class="Beam" fill-rule="evenodd" d="M2205.2,1399.29 L2391.95,1358.14 L2391.95,1385.35 L2205.2,1426.5 L2205.2,1399.29 "/>
<path class="Beam" fill-rule="evenodd" d="M2311.71,1335.96 L2391.95,1318.27 L2391.95,1345.49 L2311.71,1363.17 L2311.71,1335.96 "/>
<path class="Beam" fill-rule="evenodd" d="M2812.43,1399.61 L2911.07,1399.61 L2911.07,1426.18 L2812.43,1426.18 L2812.43,1399.61 "/>
<path class="Beam" fill-rule="evenodd" d="M3212.03,1426.18 L3308.72,1426.18 L3308.72,1452.76 L3212.03,1452.76 L3212.03,1426.18 "/>
<path class="Beam" fill-rule="evenodd" d="M3393.72,1412.89 L3490.41,1412.89 L3490.41,1439.47 L3393.72,1439.47 L3393.72,1412.89 "/>
<path class="Beam" fill-rule="evenodd" d="M3706.71,1466.04 L3803.4,1466.04 L3803.4,1492.62 L3706.71,1492.62 L3706.71,1466.04 "/>
<path class="Beam" fill-rule="evenodd" d="M3888.39,1412.89 L3985.08,1412.89 L3985.08,1439.47 L3888.39,1439.47 L3888.39,1412.89 "/>
<path class="Beam" fill-rule="evenodd" d="M588.294,2236.71 L692.448,2236.71 L692.448,2263.29 L588.294,2263.29 L588.294,2236.71 "/>
<path class="Beam" fill-rule="evenodd" d="M784.909,2170.27 L889.063,2170.27 L889.063,2196.85 L784.909,2196.85 L784.909,2170.27 "/>
<path class="Beam" fill-rule="evenodd" d="M1305.88,2170.27 L1411.98,2170.27 L1411.98,2196.85 L1305.88,2196.85 L1305.88,2170.27 "/>
<path class="Beam" fill-rule="evenodd" d="M1628.28,2196.85 L1732.44,2196.85 L1732.44,2223.42 L1628.28,2223.42 L1628.28,2196.85 "/>
<path class="Beam" fill-rule="evenodd" d="M1824.9,2183.56 L1929.05,2183.56 L1929.05,2210.14 L1824.9,2210.14 L1824.9,2183.56 "/>
<path class="Beam" fill-rule="evenodd" d="M2145.36,2236.71 L2249.51,2236.71 L2249.51,2263.29 L2145.36,2263.29 L2145.36,2236.71 "/>
<path class="Beam" fill-rule="evenodd" d="M2341.97,2117 L2446.13,2131.08 L2446.13,2157.9 L2341.97,2143.82 L2341.97,2117 "/>
<path class="Beam" fill-rule="evenodd" d="M2662.43,2170.15 L2766.58,2184.23 L2766.58,2211.05 L2662.43,2196.97 L2662.43,2170.15 "/>
<path class="Beam" fill-rule="evenodd" d="M2859.04,2223.3 L2963.2,2237.38 L2963.2,2264.2 L2859.04,2250.12 L2859.04,2223.3 "/>
<path class="Beam" fill-rule="evenodd" d="M3457.34,2170.27 L3576.5,2170.27 L3576.5,2196.85 L3457.34,2196.85 L3457.34,2170.27 "/>
<path class="Hook" transform="matrix(2.12598,0,0,2.12598,2626.85,1346.46)" d="M2.5,0.40625 C2.5,0.203125 3.40625,-3.20313 3.5,-3.5 C3.59375,-3.90625 5.40625,-9.59375 9.09375,-15.2969 C11.7969,-19.5 21.2969,-31.7969 21,-31.7969 C21,-31.7969 28.4063,-41.2969 28.9063,-54.2031 L28.9063,-56.5 C28.9063,-62.6094 28.1094,-71.2031 24.5938,-79.9063 C24.2031,-80.9063 23.7969,-81.9063 22.7031,-81.5 C21.5938,-81.1094 21.9063,-79.9063 22.2031,-78.8125 C24,-71.7969 25,-64.6094 25,-57.4063 C25,-49 22,-44.7969 20.2031,-41.7031 C13.5938,-30.6094 5,-25.2031 0.796875,-23.7969 C0.296875,-23.5938 0,-23.2031 0,-22.7031 L0,-16.5 L0,-0.09375 C0,0.59375 0.59375,1.20313 1.29688,1.20313 C1.79688,1.20313 2.40625,0.796875 2.5,0.40625"/>
<path class="Hook" transform="matrix(2.12598,0,0,2.12598,1105.37,2250)" d="M2.5,0.40625 C2.5,0.203125 3.40625,-3.20313 3.5,-3.5 C3.59375,-3.90625 5.40625,-9.59375 9.09375,-15.2969 C11.7969,-19.5 21.2969,-31.7969 21,-31.7969 C21,-31.7969 28.4063,-41.2969 28.9063,-54.2031 L28.9063,-56.5 C28.9063,-62.6094 28.1094,-71.2031 24.5938,-79.9063 C24.2031,-80.9063 23.7969,-81.9063 22.7031,-81.5 C21.5938,-81.1094 21.9063,-79.9063 22.2031,-78.8125 C24,-71.7969 25,-64.6094 25,-57.4063 C25,-49 22,-44.7969 20.2031,-41.7031 C13.5938,-30.6094 5,-25.2031 0.796875,-23.7969 C0.296875,-23.5938 0,-23.2031 0,-22.7031 L0,-16.5 L0,-0.09375 C0,0.59375 0.59375,1.20313 1.29688,1.20313 C1.79688,1.20313 2.40625,0.796875 2.5,0.40625"/>
<path class="Hook" transform="matrix(2.12598,0,0,2.12598,3271.96,1944.39)" d="M3.5,3.5 C3.40625,3.20313 2.5,-0.296875 2.5,-0.5 C2.40625,-0.90625 1.79688,-1.20313 1.29688,-1.20313 C0.59375,-1.20313 0,-0.59375 0,0.09375 L0,16.5 L0,22.7031 C0,23.2031 0.40625,23.5938 0.796875,23.7969 C5,25.0938 13.7031,30.6094 20.2031,41.7031 C22,44.7969 24.9063,49 24.9063,57.4063 C24.9063,64.6094 23.7969,72.2031 22,79.2031 C21.7031,80.3125 21.4063,81.3125 22.5,81.7031 C23.5938,82.1094 24,81.3125 24.4063,80.3125 C28,71.5 28.9063,62.2969 28.9063,56.1094 L28.9063,54.2031 C28.4063,41.2969 21,31.7969 21,31.7969 C21.2969,31.7969 11.7969,19.5 9.09375,15.2969 C5.40625,9.59375 3.59375,3.90625 3.5,3.5"/>
<path class="Marker" d="M1246.05,263.661 C1251,274.927 1273.16,288.489 1274.31,288.864 C1274.88,289.255 1275.27,289.63 1275.27,290.208 C1275.27,290.77 1274.88,291.536 1274.31,292.692 C1273.16,294.786 1251.2,334.317 1251.2,334.317 C1251,334.895 1250.81,335.661 1250.81,336.239 C1250.81,337.755 1251.58,339.286 1252.92,340.052 C1253.69,340.63 1254.25,340.817 1255.02,340.817 C1256.55,340.817 1258.08,339.864 1258.84,338.52 C1258.84,338.52 1282.52,295.739 1283.09,294.786 C1283.09,294.973 1284.24,294.02 1284.81,294.02 C1287.11,294.411 1317.66,303.38 1317.66,317.895 C1317.66,324.005 1314.03,327.833 1309.06,328.598 C1308.88,328.598 1308.3,328.786 1308.11,328.786 C1305.25,328.786 1302.58,326.677 1302.58,321.911 L1302.58,320.192 C1302.58,314.458 1298.75,310.255 1294.55,310.255 C1293.78,310.255 1293.22,310.255 1292.64,310.442 C1286.91,311.786 1281.75,314.27 1281.75,320.38 C1281.75,320.958 1281.75,321.723 1281.95,322.473 C1283.09,328.973 1289.97,337.755 1300.28,337.755 C1314.8,337.755 1327.02,324.395 1327.02,310.067 C1327.02,308.723 1326.83,307.208 1326.64,305.677 C1324.34,288.864 1300.28,275.114 1298.38,274.348 C1296.66,273.208 1295.89,272.63 1295.89,271.864 C1295.89,271.489 1296.08,271.302 1296.08,270.911 C1296.84,269.77 1320.53,226.989 1320.53,226.989 C1321.09,226.223 1321.3,225.645 1321.3,224.88 C1321.3,223.348 1320.34,221.833 1319,221.067 C1318.24,220.864 1317.47,220.677 1316.91,220.677 C1315.38,220.677 1313.84,221.442 1313.08,222.786 C1313.08,222.786 1288.83,266.708 1287.88,268.052 C1287.49,268.817 1287.11,269.192 1286.53,269.192 C1286.16,269.192 1285.58,269.005 1285,268.817 C1283.67,268.239 1260.56,259.458 1256.55,252.583 C1255.59,250.864 1254.44,247.614 1254.44,244.552 C1254.44,240.348 1256.36,236.145 1262.66,235.005 L1263.61,235.005 C1264.56,235.005 1265.52,235.38 1266.09,236.911 L1266.28,238.067 C1267.44,242.27 1269.72,251.239 1277.55,251.239 C1283.86,251.239 1288.06,247.614 1288.06,240.927 C1288.06,228.13 1277.94,224.114 1266.28,224.114 C1255.59,224.114 1243.56,237.302 1243.56,252.38 C1243.56,256.02 1244.33,259.833 1246.05,263.661 M1315.19,274.161 C1319.95,274.161 1323.78,270.145 1323.78,265.38 C1323.78,260.598 1319.95,256.786 1315.19,256.786 C1310.41,256.786 1306.39,260.598 1306.39,265.38 C1306.39,270.145 1310.41,274.161 1315.19,274.161 M1255.59,304.911 C1260.56,304.911 1264.38,301.083 1264.38,296.317 C1264.38,291.536 1260.56,287.536 1255.59,287.536 C1251,287.536 1247,291.536 1247,296.317 C1247,301.083 1251,304.911 1255.59,304.911"/>
<path class="Jump" d="M3918.99,1877.95 L3958.3,1877.95 C3968.73,1877.95 3976.68,1876.31 3982.88,1872.81 C3994.69,1866.14 4001.24,1852.8 4001.24,1835.25 C4001.24,1819.09 3995.4,1806.47 3984.63,1799.44 C3978.19,1795.34 3969.54,1793.47 3956.19,1793.47 L3918.99,1793.47 L3918.99,1798.97 L3921.21,1798.97 C3927.77,1799.09 3929.99,1799.44 3930.93,1800.61 C3931.63,1801.67 3931.63,1801.9 3931.63,1807.87 L3931.63,1863.56 C3931.63,1869.53 3931.63,1869.76 3930.93,1870.81 C3929.99,1871.98 3927.77,1872.34 3921.21,1872.45 L3918.99,1872.45 L3918.99,1877.95 M3951.4,1872.45 C3945.44,1872.45 3944.74,1871.75 3944.74,1866.01 L3944.74,1805.53 C3944.74,1799.8 3945.55,1798.97 3951.4,1798.97 L3957.49,1798.97 C3977.49,1798.97 3985.8,1809.86 3985.8,1835.72 C3985.8,1861.92 3978.32,1872.45 3959.37,1872.45 L3951.4,1872.45 M4022.65,1864.97 C4018.55,1864.97 4015.27,1868.23 4015.27,1872.22 C4015.27,1876.31 4018.55,1879.59 4022.52,1879.59 C4026.62,1879.59 4029.9,1876.31 4029.9,1872.22 C4029.9,1868.23 4026.62,1864.97 4022.65,1864.97 M4103.02,1792.78 L4098.69,1792.78 L4094.01,1799.8 C4088.4,1794.53 4081.02,1791.72 4072.71,1791.72 C4057.27,1791.72 4047.08,1801.44 4047.08,1816.17 C4047.08,1828.92 4053.41,1835.25 4070.6,1839.69 L4081.73,1842.5 C4090.38,1844.72 4091.19,1844.95 4093.66,1846.83 C4097.16,1849.51 4099.04,1853.37 4099.04,1857.95 C4099.04,1862.62 4097.29,1866.48 4093.77,1869.76 C4089.91,1873.03 4086.05,1874.33 4079.62,1874.33 C4070.96,1874.33 4064.76,1871.64 4059.26,1865.55 C4054.33,1860.17 4051.88,1854.55 4050.13,1845.55 L4045.1,1845.55 L4045.57,1878.89 L4050.13,1878.89 L4055.4,1870.94 C4063.24,1877.37 4069.66,1879.7 4079.96,1879.7 C4097.16,1879.7 4108.16,1869.64 4108.16,1853.97 C4108.16,1846.59 4105.82,1840.51 4101.15,1836.06 C4097.99,1833.01 4093.43,1831.03 4084.07,1828.69 L4071.54,1825.53 C4061.13,1822.84 4056.21,1818.28 4056.21,1811.14 C4056.21,1802.95 4062.88,1797.34 4072.83,1797.34 C4081.02,1797.34 4087.69,1800.84 4092.37,1807.51 C4095.76,1812.31 4097.99,1817.23 4099.38,1823.19 L4104.41,1823.19 L4103.02,1792.78 M4128.87,1864.97 C4124.77,1864.97 4121.49,1868.23 4121.49,1872.22 C4121.49,1876.31 4124.77,1879.59 4128.74,1879.59 C4132.83,1879.59 4136.12,1876.31 4136.12,1872.22 C4136.12,1868.23 4132.83,1864.97 4128.87,1864.97"/>
<path class="RehearsalMark" fill="none" stroke="#000000" stroke-width="8.50" stroke-linecap="square" stroke-linejoin="miter" stroke-miterlimit="2" fill-rule="evenodd" d="M176.607,134.007 L656.26,134.007 L656.26,284.66 L176.607,284.66 L176.607,134.007 "/>
<path class="RehearsalMark" d="M207.715,251.833 L253.23,251.833 L253.23,245.521 L251.465,245.521 C245.152,245.521 242.808,245.052 241.761,243.755 C240.933,242.583 240.933,242.24 240.933,234.99 L240.933,184.208 C240.933,176.943 240.933,176.599 241.761,175.427 C242.808,174.146 245.152,173.677 251.465,173.677 L253.23,173.677 L253.23,167.349 L207.715,167.349 L207.715,173.677 L209.465,173.677 C215.668,173.677 218.011,174.146 219.058,175.427 C219.871,176.599 219.871,176.943 219.871,184.208 L219.871,234.99 C219.871,242.24 219.871,242.583 219.058,243.755 C218.011,245.052 215.668,245.521 209.465,245.521 L207.715,245.521 L207.715,251.833 M287.965,167.349 L258.48,167.349 L258.48,173.787 C263.746,173.912 267.84,176.13 270.886,180.349 L270.886,226.443 C271.121,241.537 268.886,244.927 258.246,245.521 L258.246,251.833 L291.59,251.833 L291.59,245.521 C280.715,244.927 278.48,241.537 278.715,226.443 L278.715,187.943 L333.121,252.646 L340.965,252.646 L340.965,192.74 C340.621,177.646 343.074,174.146 353.84,173.677 L353.84,167.349 L320.496,167.349 L320.496,173.677 C331.136,174.146 333.355,177.646 333.121,192.74 L333.121,220.24 L287.965,167.349 M437.715,167.349 L360.261,167.349 L358.496,199.068 L364.699,199.068 C366.23,190.412 367.855,185.849 370.668,181.755 C374.418,176.13 378.746,173.443 384.246,173.443 C387.746,173.443 388.449,174.255 388.449,178.115 L388.449,234.99 C388.449,242.24 388.449,242.583 387.636,243.755 C386.59,245.052 384.246,245.521 377.918,245.521 L375.355,245.521 L375.355,251.833 L422.621,251.833 L422.621,245.521 L420.043,245.521 C413.73,245.521 411.386,245.052 410.34,243.755 C409.511,242.708 409.511,242.115 409.511,234.99 L409.511,178.115 C409.511,174.255 410.215,173.443 413.73,173.443 C418.761,173.443 422.621,175.552 426.371,180.349 C429.636,184.552 431.511,189.474 433.261,199.068 L439.465,199.068 L437.715,167.349 M478.527,211.24 L485.09,211.24 C494.324,211.349 497.949,214.74 498.308,224.099 L498.652,228.662 C499.355,237.443 499.715,239.552 500.886,242.708 C503.683,249.958 509.543,253.583 518.668,253.583 C531.308,253.583 538.558,246.568 538.558,234.052 L538.558,232.646 L532.246,232.646 C532.121,240.021 530.371,243.755 526.855,243.755 C525.574,243.755 524.168,243.052 523.465,242.115 C522.761,241.068 522.652,240.255 522.058,236.505 C522.058,235.927 521.824,234.865 521.59,233.224 L520.777,228.787 C519.011,218.255 514.574,212.99 504.386,209.599 C510.59,208.427 513.636,207.599 516.558,206.208 C523.699,202.568 527.793,196.146 527.793,188.537 C527.793,181.521 524.402,175.552 518.308,171.568 C513.871,168.755 506.027,167.349 495.261,167.349 L445.308,167.349 L445.308,173.677 L447.058,173.677 C453.371,173.677 455.605,174.146 456.652,175.318 C457.48,176.599 457.48,176.943 457.48,184.208 L457.48,234.865 C457.48,242.115 457.48,242.583 456.652,243.755 C455.605,245.052 453.261,245.396 447.058,245.521 L445.308,245.521 L445.308,251.833 L492.105,251.833 L492.105,245.521 L489.058,245.521 C482.871,245.396 480.402,245.052 479.355,243.755 C478.527,242.583 478.527,242.115 478.527,234.865 L478.527,211.24 M478.527,204.802 L478.527,181.162 C478.418,174.724 479.355,173.787 486.84,173.677 L489.652,173.677 C500.652,173.677 505.449,178.474 505.449,189.24 C505.449,201.052 500.527,204.802 484.965,204.802 L478.527,204.802 M586.871,165.599 C575.511,165.599 565.918,168.88 558.308,175.552 C548.48,183.974 542.636,197.193 542.636,210.88 C542.636,235.693 560.886,253.583 586.277,253.583 C598.324,253.583 607.465,250.787 615.293,244.458 C625.48,236.505 630.98,224.458 630.98,210.771 C630.98,197.193 625.121,183.849 615.293,175.552 C607.465,168.755 598.324,165.599 586.871,165.599 M586.98,171.693 C593.293,171.693 598.215,174.724 601.605,180.693 C605.465,187.708 607.574,198.24 607.574,210.88 C607.574,234.63 600.324,247.505 586.98,247.505 C580.199,247.505 575.277,244.583 572.011,238.49 C568.136,231.24 566.043,221.068 566.043,208.662 C566.043,196.021 568.027,186.662 572.011,179.99 C575.402,174.255 580.074,171.693 586.98,171.693"/>
<path class="RehearsalMark" fill="none" stroke="#000000" stroke-width="8.50" stroke-linecap="square" stroke-linejoin="miter" stroke-miterlimit="2" fill-rule="evenodd" d="M2971.7,928.306 L3136.35,928.306 L3136.35,1084.96 L2971.7,1084.96 L2971.7,928.306 "/>
<path class="RehearsalMark" d="M3050.46,959.789 L3021.4,1027.63 C3015.51,1041.46 3010.78,1046.45 3003.23,1047.23 L3003.23,1054.13 L3040.21,1054.13 L3040.21,1047.23 C3031.12,1046.71 3027.54,1044.27 3027.54,1038.38 C3027.54,1036.21 3028.06,1034.16 3029.46,1031.09 L3031.51,1026.23 L3063.39,1026.23 L3068.25,1038.77 C3069.65,1042.35 3069.79,1042.99 3069.79,1044.02 C3069.79,1046.32 3068,1047.09 3062.36,1047.09 L3060.18,1047.23 L3060.18,1054.13 L3105.12,1054.13 L3105.12,1047.23 C3097.82,1046.96 3095.78,1045.68 3093.09,1039.15 L3060.18,959.789 L3050.46,959.789 M3047.76,987.055 L3060.18,1017.65 L3034.84,1017.65 L3047.76,987.055 "/>
<path class="VoltaSegment" d="M3211.25,1842.41 L3207.15,1842.41 C3199.78,1847.91 3191.48,1850.25 3177.56,1850.49 L3177.56,1857.04 L3182.47,1857.04 C3192.87,1857.04 3193,1857.27 3192.87,1866.86 L3192.87,1908.41 C3192.87,1915.66 3192.87,1916 3192.06,1917.18 C3191.01,1918.47 3188.67,1918.94 3182.36,1918.94 L3178.61,1918.94 L3178.61,1925.25 L3225.29,1925.25 L3225.29,1918.94 L3221.54,1918.94 C3215.34,1918.94 3213.12,1918.47 3212.08,1917.18 C3211.25,1916 3211.25,1915.54 3211.25,1908.41 L3211.25,1842.41 M3251.26,1905.02 C3245.17,1905.02 3240.26,1909.93 3240.26,1916 C3240.26,1921.97 3245.17,1927 3251.14,1927 C3257.34,1927 3262.26,1922.1 3262.26,1916 C3262.26,1909.93 3257.34,1905.02 3251.26,1905.02"/>
<polyline class="VoltaSegment" fill="none" stroke="#000000" stroke-width="5.85" stroke-linecap="square" stroke-linejoin="bevel" points="3144.95,1925.25 3144.95,1808.33"/>
<polyline class="VoltaSegment" fill="none" stroke="#000000" stroke-width="5.85" stroke-linecap="square" stroke-linejoin="bevel" points="3144.95,1808.33 3783.55,1808.33"/>
<polyline class="VoltaSegment" fill="none" stroke="#000000" stroke-width="5.85" stroke-linecap="square" stroke-linejoin="bevel" points="3783.55,1808.33 3783.55,1925.25"/>
</svg>
