<?xml version="1.0" encoding="UTF-8" standalone="no"?>
<svg width="4208.47px" height="2409.45px" viewBox="0 0 4208.47 2409.45"
 xmlns="http://www.w3.org/2000/svg" xmlns:xlink="http://www.w3.org/1999/xlink" version="1.2" baseProfile="tiny">
<title>SAX TENOR</title>
<desc>Generated by MuseScore 3.6.2</desc>
<polyline class="StaffLines" fill="none" stroke="#000000" stroke-width="5.85" stroke-linejoin="bevel" points="70.866,442.913 4137.61,442.913"/>
<polyline class="StaffLines" fill="none" stroke="#000000" stroke-width="5.85" stroke-linejoin="bevel" points="70.866,496.063 4137.61,496.063"/>
<polyline class="StaffLines" fill="none" stroke="#000000" stroke-width="5.85" stroke-linejoin="bevel" points="70.866,549.212 4137.61,549.212"/>
<polyline class="StaffLines" fill="none" stroke="#000000" stroke-width="5.85" stroke-linejoin="bevel" points="70.866,602.362 4137.61,602.362"/>
<polyline class="StaffLines" fill="none" stroke="#000000" stroke-width="5.85" stroke-linejoin="bevel" points="70.866,655.512 4137.61,655.512"/>
<polyline class="StaffLines" fill="none" stroke="#000000" stroke-width="5.85" stroke-linejoin="bevel" points="70.866,1213.58 4137.61,1213.58"/>
<polyline class="StaffLines" fill="none" stroke="#000000" stroke-width="5.85" stroke-linejoin="bevel" points="70.866,1266.73 4137.61,1266.73"/>
<polyline class="StaffLines" fill="none" stroke="#000000" stroke-width="5.85" stroke-linejoin="bevel" points="70.866,1319.88 4137.61,1319.88"/>
<polyline class="StaffLines" fill="none" stroke="#000000" stroke-width="5.85" stroke-linejoin="bevel" points="70.866,1373.03 4137.61,1373.03"/>
<polyline class="StaffLines" fill="none" stroke="#000000" stroke-width="5.85" stroke-linejoin="bevel" points="70.866,1426.18 4137.61,1426.18"/>
<polyline class="StaffLines" fill="none" stroke="#000000" stroke-width="5.85" stroke-linejoin="bevel" points="70.866,1984.25 4137.61,1984.25"/>
<polyline class="StaffLines" fill="none" stroke="#000000" stroke-width="5.85" stroke-linejoin="bevel" points="70.866,2037.4 4137.61,2037.4"/>
<polyline class="StaffLines" fill="none" stroke="#000000" stroke-width="5.85" stroke-linejoin="bevel" points="70.866,2090.55 4137.61,2090.55"/>
<polyline class="StaffLines" fill="none" stroke="#000000" stroke-width="5.85" stroke-linejoin="bevel" points="70.866,2143.7 4137.61,2143.7"/>
<polyline class="StaffLines" fill="none" stroke="#000000" stroke-width="5.85" stroke-linejoin="bevel" points="70.866,2196.85 4137.61,2196.85"/>
<path class="MeasureNumber" d="M75.7485,1093.88 C76.4285,1090.36 77.2285,1088.16 78.7485,1085.48 C80.5485,1082.32 82.7085,1080.72 85.1085,1080.72 C86.3485,1080.72 87.1085,1081.2 87.1085,1081.96 C87.1085,1082.24 87.0285,1082.4 86.7485,1082.92 C86.3885,1083.6 86.2285,1084.08 86.2285,1084.68 C86.2285,1085.96 87.1885,1086.84 88.5485,1086.84 C90.1885,1086.84 91.3085,1085.64 91.3085,1083.84 C91.3085,1081.12 88.7485,1079.12 85.1885,1079.12 C81.4285,1079.12 78.0685,1081.12 75.3485,1084.96 C72.5485,1088.92 70.8685,1094 70.8685,1098.44 C70.8685,1104.32 73.7885,1107.88 78.6685,1107.88 C81.6685,1107.88 84.3485,1106.68 86.2685,1104.56 C88.0285,1102.56 89.1085,1099.68 89.1085,1097.04 C89.1085,1092.96 86.3485,1090.12 82.3485,1090.12 C79.5485,1090.12 77.3885,1091.32 75.7485,1093.88 M81.0685,1092.44 C83.5485,1092.44 84.9085,1094.16 84.9085,1097.28 C84.9085,1102.36 82.2285,1106.24 78.6685,1106.24 C76.1085,1106.24 74.5885,1104.36 74.5885,1101.16 C74.5885,1096.16 77.3485,1092.44 81.0685,1092.44"/>
<path class="MeasureNumber" d="M87.226,1849.63 L86.066,1849.63 C83.866,1851.27 79.626,1852.67 76.746,1852.67 L76.266,1854.43 L79.026,1854.43 C81.466,1854.43 81.746,1854.51 81.746,1855.23 C81.746,1855.59 81.746,1855.59 81.346,1857.03 L77.066,1873.03 C76.546,1875.03 76.506,1875.15 76.146,1875.51 C75.746,1875.91 74.906,1876.03 72.786,1876.07 L71.066,1876.07 L70.866,1877.95 L85.666,1877.95 L85.906,1876.07 L83.746,1876.07 C81.146,1876.07 80.586,1875.87 80.586,1874.99 C80.586,1874.71 80.746,1873.79 80.946,1873.03 L87.226,1849.63 M108.5,1869.67 L107.46,1871.51 C105.86,1874.27 105.54,1874.51 103.5,1874.55 L94.2204,1874.55 C95.1804,1873.27 96.9404,1871.79 100.14,1869.55 C105.42,1865.91 105.78,1865.67 106.9,1864.79 C110.1,1862.31 111.42,1859.95 111.42,1856.79 C111.42,1852.59 108.3,1849.79 103.7,1849.79 C98.5804,1849.79 94.1404,1853.55 94.1404,1857.91 C94.1404,1860.15 95.3404,1861.59 97.2604,1861.59 C98.7004,1861.59 99.8204,1860.51 99.8204,1859.03 C99.8204,1857.99 99.3004,1857.31 97.9804,1856.59 C97.0204,1856.11 96.8604,1855.91 96.8604,1855.43 C96.8604,1853.71 99.8204,1851.79 102.54,1851.79 C105.34,1851.79 107.22,1853.67 107.22,1856.47 C107.22,1859.47 105.9,1861.67 102.3,1864.79 C91.6604,1874.03 90.0604,1875.71 89.7004,1877.95 L106.86,1877.95 L109.94,1870.23 L108.5,1869.67 "/>
<polyline class="BarLine" fill="none" stroke="#000000" stroke-width="9.57" stroke-linejoin="bevel" points="1200.39,439.99 1200.39,658.435"/>
<polyline class="BarLine" fill="none" stroke="#000000" stroke-width="9.57" stroke-linejoin="bevel" points="1229.62,439.99 1229.62,658.435"/>
<polyline class="BarLine" fill="none" stroke="#000000" stroke-width="9.57" stroke-linejoin="bevel" points="2021.18,439.99 2021.18,658.435"/>
<polyline class="BarLine" fill="none" stroke="#000000" stroke-width="9.57" stroke-linejoin="bevel" points="2725.06,439.99 2725.06,658.435"/>
<polyline class="BarLine" fill="none" stroke="#000000" stroke-width="9.57" stroke-linejoin="bevel" points="3516.62,439.99 3516.62,658.435"/>
<polyline class="BarLine" fill="none" stroke="#000000" stroke-width="9.57" stroke-linejoin="bevel" points="4132.82,439.99 4132.82,658.435"/>
<polyline class="BarLine" fill="none" stroke="#000000" stroke-width="9.57" stroke-linejoin="bevel" points="1165.8,1210.66 1165.8,1429.1"/>
<polyline class="BarLine" fill="none" stroke="#000000" stroke-width="9.57" stroke-linejoin="bevel" points="1777.35,1210.66 1777.35,1429.1"/>
<polyline class="BarLine" fill="none" stroke="#000000" stroke-width="9.57" stroke-linejoin="bevel" points="2476.57,1210.66 2476.57,1429.1"/>
<polyline class="BarLine" fill="none" stroke="#000000" stroke-width="29.23" stroke-linejoin="bevel" points="3010.27,1210.66 3010.27,1429.1"/>
<polyline class="BarLine" fill="none" stroke="#000000" stroke-width="9.57" stroke-linejoin="bevel" points="3047.47,1210.66 3047.47,1429.1"/>
<path class="BarLine" transform="matrix(2.12598,0,0,2.12598,3073.61,1293.31)" d="M10.4,0 C10.4,-2.9 8.1,-5.3 5.2,-5.3 C2.3,-5.3 0,-2.9 0,0 C0,2.9 2.3,5.3 5.2,5.3 C8.1,5.3 10.4,2.9 10.4,0"/>
<path class="BarLine" transform="matrix(2.12598,0,0,2.12598,3073.61,1346.46)" d="M10.4,0 C10.4,-2.9 8.1,-5.3 5.2,-5.3 C2.3,-5.3 0,-2.9 0,0 C0,2.9 2.3,5.3 5.2,5.3 C8.1,5.3 10.4,2.9 10.4,0"/>
<polyline class="BarLine" fill="none" stroke="#000000" stroke-width="9.57" stroke-linejoin="bevel" points="3608.96,1210.66 3608.96,1429.1"/>
<polyline class="BarLine" fill="none" stroke="#000000" stroke-width="9.57" stroke-linejoin="bevel" points="4132.82,1210.66 4132.82,1429.1"/>
<polyline class="BarLine" fill="none" stroke="#000000" stroke-width="9.57" stroke-linejoin="bevel" points="996.181,1981.33 996.181,2199.77"/>
<polyline class="BarLine" fill="none" stroke="#000000" stroke-width="9.57" stroke-linejoin="bevel" points="1525.78,1981.33 1525.78,2199.77"/>
<polyline class="BarLine" fill="none" stroke="#000000" stroke-width="9.57" stroke-linejoin="bevel" points="2055.38,1981.33 2055.38,2199.77"/>
<polyline class="BarLine" fill="none" stroke="#000000" stroke-width="9.57" stroke-linejoin="bevel" points="2584.98,1981.33 2584.98,2199.77"/>
<polyline class="BarLine" fill="none" stroke="#000000" stroke-width="9.57" stroke-linejoin="bevel" points="3114.58,1981.33 3114.58,2199.77"/>
<polyline class="BarLine" fill="none" stroke="#000000" stroke-width="9.57" stroke-linejoin="bevel" points="3143.81,1981.33 3143.81,2199.77"/>
<path class="BarLine" transform="matrix(2.12598,0,0,2.12598,3729.78,2063.98)" d="M10.4,0 C10.4,-2.9 8.1,-5.3 5.2,-5.3 C2.3,-5.3 0,-2.9 0,0 C0,2.9 2.3,5.3 5.2,5.3 C8.1,5.3 10.4,2.9 10.4,0"/>
<path class="BarLine" transform="matrix(2.12598,0,0,2.12598,3729.78,2117.12)" d="M10.4,0 C10.4,-2.9 8.1,-5.3 5.2,-5.3 C2.3,-5.3 0,-2.9 0,0 C0,2.9 2.3,5.3 5.2,5.3 C8.1,5.3 10.4,2.9 10.4,0"/>
<polyline class="BarLine" fill="none" stroke="#000000" stroke-width="9.57" stroke-linejoin="bevel" points="3778.04,1981.33 3778.04,2199.77"/>
<polyline class="BarLine" fill="none" stroke="#000000" stroke-width="29.23" stroke-linejoin="bevel" points="3815.24,1981.33 3815.24,2199.77"/>
<polyline class="BarLine" fill="none" stroke="#000000" stroke-width="9.57" stroke-linejoin="bevel" points="4085.79,1981.33 4085.79,2199.77"/>
<polyline class="BarLine" fill="none" stroke="#000000" stroke-width="29.23" stroke-linejoin="bevel" points="4122.99,1981.33 4122.99,2199.77"/>
<polyline class="Stem" fill="none" stroke="#000000" stroke-width="5.85" stroke-linejoin="bevel" points="660.993,503.206 660.993,675.443"/>
<polyline class="Stem" fill="none" stroke="#000000" stroke-width="5.85" stroke-linejoin="bevel" points="968.743,450.057 968.743,642.224"/>
<polyline class="Stem" fill="none" stroke="#000000" stroke-width="5.85" stroke-linejoin="bevel" points="1049.73,476.631 1049.73,655.512"/>
<polyline class="Stem" fill="none" stroke="#000000" stroke-width="5.85" stroke-linejoin="bevel" points="1306.43,503.206 1306.43,695.374"/>
<polyline class="Stem" fill="none" stroke="#000000" stroke-width="5.85" stroke-linejoin="bevel" points="1452,503.206 1452,703.551"/>
<polyline class="Stem" fill="none" stroke="#000000" stroke-width="5.85" stroke-linejoin="bevel" points="1542.98,529.781 1542.98,708.661"/>
<polyline class="Stem" fill="none" stroke="#000000" stroke-width="5.85" stroke-linejoin="bevel" points="1633.96,556.356 1633.96,748.523"/>
<polyline class="Stem" fill="none" stroke="#000000" stroke-width="5.85" stroke-linejoin="bevel" points="1779.54,556.356 1779.54,756.7"/>
<polyline class="Stem" fill="none" stroke="#000000" stroke-width="5.85" stroke-linejoin="bevel" points="1870.52,582.931 1870.52,761.811"/>
<polyline class="Stem" fill="none" stroke="#000000" stroke-width="5.85" stroke-linejoin="bevel" points="2097.98,609.505 2097.98,775.098"/>
<polyline class="Stem" fill="none" stroke="#000000" stroke-width="5.85" stroke-linejoin="bevel" points="2229.41,662.655 2229.41,814.96"/>
<polyline class="Stem" fill="none" stroke="#000000" stroke-width="5.85" stroke-linejoin="bevel" points="2492.26,476.631 2492.26,642.224"/>
<polyline class="Stem" fill="none" stroke="#000000" stroke-width="5.85" stroke-linejoin="bevel" points="2574.4,503.206 2574.4,655.512"/>
<polyline class="Stem" fill="none" stroke="#000000" stroke-width="5.85" stroke-linejoin="bevel" points="2801.86,529.781 2801.86,695.374"/>
<polyline class="Stem" fill="none" stroke="#000000" stroke-width="5.85" stroke-linejoin="bevel" points="2947.44,529.781 2947.44,703.551"/>
<polyline class="Stem" fill="none" stroke="#000000" stroke-width="5.85" stroke-linejoin="bevel" points="3038.42,556.356 3038.42,708.661"/>
<polyline class="Stem" fill="none" stroke="#000000" stroke-width="5.85" stroke-linejoin="bevel" points="3129.4,582.931 3129.4,748.523"/>
<polyline class="Stem" fill="none" stroke="#000000" stroke-width="5.85" stroke-linejoin="bevel" points="3274.98,582.931 3274.98,756.7"/>
<polyline class="Stem" fill="none" stroke="#000000" stroke-width="5.85" stroke-linejoin="bevel" points="3365.96,609.505 3365.96,761.811"/>
<polyline class="Stem" fill="none" stroke="#000000" stroke-width="5.85" stroke-linejoin="bevel" points="3593.42,636.08 3593.42,775.098"/>
<polyline class="Stem" fill="none" stroke="#000000" stroke-width="5.85" stroke-linejoin="bevel" points="3901.17,450.057 3901.17,642.224"/>
<polyline class="Stem" fill="none" stroke="#000000" stroke-width="5.85" stroke-linejoin="bevel" points="3982.16,476.631 3982.16,655.512"/>
<polyline class="Stem" fill="none" stroke="#000000" stroke-width="5.85" stroke-linejoin="bevel" points="543.383,1273.87 543.383,1466.04"/>
<polyline class="Stem" fill="none" stroke="#000000" stroke-width="5.85" stroke-linejoin="bevel" points="659.7,1273.87 659.7,1473.93"/>
<polyline class="Stem" fill="none" stroke="#000000" stroke-width="5.85" stroke-linejoin="bevel" points="739.408,1300.45 739.408,1479.33"/>
<polyline class="Stem" fill="none" stroke="#000000" stroke-width="5.85" stroke-linejoin="bevel" points="819.116,1327.02 819.116,1519.19"/>
<polyline class="Stem" fill="none" stroke="#000000" stroke-width="5.85" stroke-linejoin="bevel" points="935.433,1327.02 935.433,1527.08"/>
<polyline class="Stem" fill="none" stroke="#000000" stroke-width="5.85" stroke-linejoin="bevel" points="1015.14,1353.6 1015.14,1532.48"/>
<polyline class="Stem" fill="none" stroke="#000000" stroke-width="5.85" stroke-linejoin="bevel" points="1242.6,1380.17 1242.6,1545.77"/>
<polyline class="Stem" fill="none" stroke="#000000" stroke-width="5.85" stroke-linejoin="bevel" points="1344.06,1433.32 1344.06,1585.63"/>
<polyline class="Stem" fill="none" stroke="#000000" stroke-width="5.85" stroke-linejoin="bevel" points="1546.98,1247.3 1546.98,1412.89"/>
<polyline class="Stem" fill="none" stroke="#000000" stroke-width="5.85" stroke-linejoin="bevel" points="1626.68,1273.87 1626.68,1426.18"/>
<polyline class="Stem" fill="none" stroke="#000000" stroke-width="5.85" stroke-linejoin="bevel" points="1854.15,1300.45 1854.15,1466.04"/>
<polyline class="Stem" fill="none" stroke="#000000" stroke-width="5.85" stroke-linejoin="bevel" points="1970.47,1300.45 1970.47,1473.93"/>
<polyline class="Stem" fill="none" stroke="#000000" stroke-width="5.85" stroke-linejoin="bevel" points="2050.17,1327.02 2050.17,1479.33"/>
<polyline class="Stem" fill="none" stroke="#000000" stroke-width="5.85" stroke-linejoin="bevel" points="2129.88,1353.6 2129.88,1519.19"/>
<polyline class="Stem" fill="none" stroke="#000000" stroke-width="5.85" stroke-linejoin="bevel" points="2246.2,1327.02 2246.2,1495.54"/>
<polyline class="Stem" fill="none" stroke="#000000" stroke-width="5.85" stroke-linejoin="bevel" points="2325.91,1300.45 2325.91,1479.33"/>
<polyline class="Stem" fill="none" stroke="#000000" stroke-width="5.85" stroke-linejoin="bevel" points="2553.37,1273.87 2553.37,1452.76"/>
<polyline class="Stem" fill="none" stroke="#000000" stroke-width="5.85" stroke-linejoin="bevel" points="2750.97,1353.6 2750.97,1492.62"/>
<polyline class="Stem" fill="none" stroke="#000000" stroke-width="5.85" stroke-linejoin="bevel" points="2849.77,1353.6 2849.77,1492.62"/>
<polyline class="Stem" fill="none" stroke="#000000" stroke-width="5.85" stroke-linejoin="bevel" points="3161.89,1406.75 3161.89,1559.05"/>
<polyline class="Stem" fill="none" stroke="#000000" stroke-width="5.85" stroke-linejoin="bevel" points="3260.69,1406.75 3260.69,1559.05"/>
<polyline class="Stem" fill="none" stroke="#000000" stroke-width="5.85" stroke-linejoin="bevel" points="3359.49,1380.17 3359.49,1519.19"/>
<polyline class="Stem" fill="none" stroke="#000000" stroke-width="5.85" stroke-linejoin="bevel" points="3458.29,1380.17 3458.29,1519.19"/>
<polyline class="Stem" fill="none" stroke="#000000" stroke-width="5.85" stroke-linejoin="bevel" points="3685.76,1433.32 3685.76,1585.63"/>
<polyline class="Stem" fill="none" stroke="#000000" stroke-width="5.85" stroke-linejoin="bevel" points="3784.56,1433.32 3784.56,1585.63"/>
<polyline class="Stem" fill="none" stroke="#000000" stroke-width="5.85" stroke-linejoin="bevel" points="3883.36,1380.17 3883.36,1519.19"/>
<polyline class="Stem" fill="none" stroke="#000000" stroke-width="5.85" stroke-linejoin="bevel" points="3982.16,1380.17 3982.16,1519.19"/>
<polyline class="Stem" fill="none" stroke="#000000" stroke-width="5.85" stroke-linejoin="bevel" points="543.383,2203.99 543.383,2356.3"/>
<polyline class="Stem" fill="none" stroke="#000000" stroke-width="5.85" stroke-linejoin="bevel" points="644.095,2203.99 644.095,2356.3"/>
<polyline class="Stem" fill="none" stroke="#000000" stroke-width="5.85" stroke-linejoin="bevel" points="744.807,2124.27 744.807,2263.29"/>
<polyline class="Stem" fill="none" stroke="#000000" stroke-width="5.85" stroke-linejoin="bevel" points="845.519,2124.27 845.519,2263.29"/>
<polyline class="Stem" fill="none" stroke="#000000" stroke-width="5.85" stroke-linejoin="bevel" points="1072.98,2177.42 1072.98,2356.3"/>
<polyline class="Stem" fill="none" stroke="#000000" stroke-width="5.85" stroke-linejoin="bevel" points="1274.41,2124.27 1274.41,2263.29"/>
<polyline class="Stem" fill="none" stroke="#000000" stroke-width="5.85" stroke-linejoin="bevel" points="1375.12,2124.27 1375.12,2263.29"/>
<polyline class="Stem" fill="none" stroke="#000000" stroke-width="5.85" stroke-linejoin="bevel" points="1602.58,2177.42 1602.58,2329.72"/>
<polyline class="Stem" fill="none" stroke="#000000" stroke-width="5.85" stroke-linejoin="bevel" points="1703.29,2177.42 1703.29,2329.72"/>
<polyline class="Stem" fill="none" stroke="#000000" stroke-width="5.85" stroke-linejoin="bevel" points="1804.01,2150.84 1804.01,2289.86"/>
<polyline class="Stem" fill="none" stroke="#000000" stroke-width="5.85" stroke-linejoin="bevel" points="1904.72,2150.84 1904.72,2289.86"/>
<polyline class="Stem" fill="none" stroke="#000000" stroke-width="5.85" stroke-linejoin="bevel" points="2132.18,2203.99 2132.18,2356.3"/>
<polyline class="Stem" fill="none" stroke="#000000" stroke-width="5.85" stroke-linejoin="bevel" points="2232.89,2203.99 2232.89,2356.3"/>
<polyline class="Stem" fill="none" stroke="#000000" stroke-width="5.85" stroke-linejoin="bevel" points="2333.61,2071.12 2333.61,2236.71"/>
<polyline class="Stem" fill="none" stroke="#000000" stroke-width="5.85" stroke-linejoin="bevel" points="2434.32,2097.69 2434.32,2250"/>
<polyline class="Stem" fill="none" stroke="#000000" stroke-width="5.85" stroke-linejoin="bevel" points="2661.78,2124.27 2661.78,2276.57"/>
<polyline class="Stem" fill="none" stroke="#000000" stroke-width="5.85" stroke-linejoin="bevel" points="2762.49,2150.84 2762.49,2289.86"/>
<polyline class="Stem" fill="none" stroke="#000000" stroke-width="5.85" stroke-linejoin="bevel" points="2863.21,2177.42 2863.21,2329.72"/>
<polyline class="Stem" fill="none" stroke="#000000" stroke-width="5.85" stroke-linejoin="bevel" points="2963.92,2203.99 2963.92,2343.01"/>
<polyline class="Stem" fill="none" stroke="#000000" stroke-width="5.85" stroke-linejoin="bevel" points="3283.85,2216.62 3283.85,2037.4"/>
<polyline class="Stem" fill="none" stroke="#000000" stroke-width="5.85" stroke-linejoin="bevel" points="3469.91,2124.27 3469.91,2263.29"/>
<polyline class="Stem" fill="none" stroke="#000000" stroke-width="5.85" stroke-linejoin="bevel" points="3583.9,2124.27 3583.9,2263.29"/>
<path class="Note" transform="matrix(2.12598,0,0,2.12598,658.069,496.063)" d="M31.5,-8.1 C29.7,-11.4 25.9,-13.2 21.3,-13.2 C17.9,-13.2 14.2,-12.2 10.6,-10.3 C4,-6.8 0,-0.9 0,4.2 C0,5.6 0.3,7 1,8.3 C2.8,11.6 6.6,13.3 11.2,13.3 C14.6,13.3 18.3,12.4 21.9,10.5 C28.5,7 32.5,1.1 32.5,-4 C32.5,-5.4 32.2,-6.8 31.5,-8.1"/>
<path class="Note" transform="matrix(2.12598,0,0,2.12598,965.82,442.913)" d="M31.5,-8.1 C29.7,-11.4 25.9,-13.2 21.3,-13.2 C17.9,-13.2 14.2,-12.2 10.6,-10.3 C4,-6.8 0,-0.9 0,4.2 C0,5.6 0.3,7 1,8.3 C2.8,11.6 6.6,13.3 11.2,13.3 C14.6,13.3 18.3,12.4 21.9,10.5 C28.5,7 32.5,1.1 32.5,-4 C32.5,-5.4 32.2,-6.8 31.5,-8.1"/>
<path class="Note" transform="matrix(2.12598,0,0,2.12598,1046.81,469.488)" d="M31.5,-8.1 C29.7,-11.4 25.9,-13.2 21.3,-13.2 C17.9,-13.2 14.2,-12.2 10.6,-10.3 C4,-6.8 0,-0.9 0,4.2 C0,5.6 0.3,7 1,8.3 C2.8,11.6 6.6,13.3 11.2,13.3 C14.6,13.3 18.3,12.4 21.9,10.5 C28.5,7 32.5,1.1 32.5,-4 C32.5,-5.4 32.2,-6.8 31.5,-8.1"/>
<path class="Note" transform="matrix(2.12598,0,0,2.12598,1303.5,496.063)" d="M31.5,-8.1 C29.7,-11.4 25.9,-13.2 21.3,-13.2 C17.9,-13.2 14.2,-12.2 10.6,-10.3 C4,-6.8 0,-0.9 0,4.2 C0,5.6 0.3,7 1,8.3 C2.8,11.6 6.6,13.3 11.2,13.3 C14.6,13.3 18.3,12.4 21.9,10.5 C28.5,7 32.5,1.1 32.5,-4 C32.5,-5.4 32.2,-6.8 31.5,-8.1"/>
<path class="Note" transform="matrix(2.12598,0,0,2.12598,1449.08,496.063)" d="M31.5,-8.1 C29.7,-11.4 25.9,-13.2 21.3,-13.2 C17.9,-13.2 14.2,-12.2 10.6,-10.3 C4,-6.8 0,-0.9 0,4.2 C0,5.6 0.3,7 1,8.3 C2.8,11.6 6.6,13.3 11.2,13.3 C14.6,13.3 18.3,12.4 21.9,10.5 C28.5,7 32.5,1.1 32.5,-4 C32.5,-5.4 32.2,-6.8 31.5,-8.1"/>
<path class="Note" transform="matrix(2.12598,0,0,2.12598,1540.06,522.638)" d="M31.5,-8.1 C29.7,-11.4 25.9,-13.2 21.3,-13.2 C17.9,-13.2 14.2,-12.2 10.6,-10.3 C4,-6.8 0,-0.9 0,4.2 C0,5.6 0.3,7 1,8.3 C2.8,11.6 6.6,13.3 11.2,13.3 C14.6,13.3 18.3,12.4 21.9,10.5 C28.5,7 32.5,1.1 32.5,-4 C32.5,-5.4 32.2,-6.8 31.5,-8.1"/>
<path class="Note" transform="matrix(2.12598,0,0,2.12598,1631.04,549.212)" d="M31.5,-8.1 C29.7,-11.4 25.9,-13.2 21.3,-13.2 C17.9,-13.2 14.2,-12.2 10.6,-10.3 C4,-6.8 0,-0.9 0,4.2 C0,5.6 0.3,7 1,8.3 C2.8,11.6 6.6,13.3 11.2,13.3 C14.6,13.3 18.3,12.4 21.9,10.5 C28.5,7 32.5,1.1 32.5,-4 C32.5,-5.4 32.2,-6.8 31.5,-8.1"/>
<path class="Note" transform="matrix(2.12598,0,0,2.12598,1776.61,549.212)" d="M31.5,-8.1 C29.7,-11.4 25.9,-13.2 21.3,-13.2 C17.9,-13.2 14.2,-12.2 10.6,-10.3 C4,-6.8 0,-0.9 0,4.2 C0,5.6 0.3,7 1,8.3 C2.8,11.6 6.6,13.3 11.2,13.3 C14.6,13.3 18.3,12.4 21.9,10.5 C28.5,7 32.5,1.1 32.5,-4 C32.5,-5.4 32.2,-6.8 31.5,-8.1"/>
<path class="Note" transform="matrix(2.12598,0,0,2.12598,1867.6,575.787)" d="M31.5,-8.1 C29.7,-11.4 25.9,-13.2 21.3,-13.2 C17.9,-13.2 14.2,-12.2 10.6,-10.3 C4,-6.8 0,-0.9 0,4.2 C0,5.6 0.3,7 1,8.3 C2.8,11.6 6.6,13.3 11.2,13.3 C14.6,13.3 18.3,12.4 21.9,10.5 C28.5,7 32.5,1.1 32.5,-4 C32.5,-5.4 32.2,-6.8 31.5,-8.1"/>
<path class="Note" transform="matrix(2.12598,0,0,2.12598,2095.06,602.362)" d="M31.5,-8.1 C29.7,-11.4 25.9,-13.2 21.3,-13.2 C17.9,-13.2 14.2,-12.2 10.6,-10.3 C4,-6.8 0,-0.9 0,4.2 C0,5.6 0.3,7 1,8.3 C2.8,11.6 6.6,13.3 11.2,13.3 C14.6,13.3 18.3,12.4 21.9,10.5 C28.5,7 32.5,1.1 32.5,-4 C32.5,-5.4 32.2,-6.8 31.5,-8.1"/>
<path class="Note" transform="matrix(2.12598,0,0,2.12598,2226.49,655.512)" d="M31.5,-8.1 C29.7,-11.4 25.9,-13.2 21.3,-13.2 C17.9,-13.2 14.2,-12.2 10.6,-10.3 C4,-6.8 0,-0.9 0,4.2 C0,5.6 0.3,7 1,8.3 C2.8,11.6 6.6,13.3 11.2,13.3 C14.6,13.3 18.3,12.4 21.9,10.5 C28.5,7 32.5,1.1 32.5,-4 C32.5,-5.4 32.2,-6.8 31.5,-8.1"/>
<path class="Note" transform="matrix(2.12598,0,0,2.12598,2489.34,469.488)" d="M31.5,-8.1 C29.7,-11.4 25.9,-13.2 21.3,-13.2 C17.9,-13.2 14.2,-12.2 10.6,-10.3 C4,-6.8 0,-0.9 0,4.2 C0,5.6 0.3,7 1,8.3 C2.8,11.6 6.6,13.3 11.2,13.3 C14.6,13.3 18.3,12.4 21.9,10.5 C28.5,7 32.5,1.1 32.5,-4 C32.5,-5.4 32.2,-6.8 31.5,-8.1"/>
<path class="Note" transform="matrix(2.12598,0,0,2.12598,2571.48,496.063)" d="M31.5,-8.1 C29.7,-11.4 25.9,-13.2 21.3,-13.2 C17.9,-13.2 14.2,-12.2 10.6,-10.3 C4,-6.8 0,-0.9 0,4.2 C0,5.6 0.3,7 1,8.3 C2.8,11.6 6.6,13.3 11.2,13.3 C14.6,13.3 18.3,12.4 21.9,10.5 C28.5,7 32.5,1.1 32.5,-4 C32.5,-5.4 32.2,-6.8 31.5,-8.1"/>
<path class="Note" transform="matrix(2.12598,0,0,2.12598,2798.94,522.638)" d="M31.5,-8.1 C29.7,-11.4 25.9,-13.2 21.3,-13.2 C17.9,-13.2 14.2,-12.2 10.6,-10.3 C4,-6.8 0,-0.9 0,4.2 C0,5.6 0.3,7 1,8.3 C2.8,11.6 6.6,13.3 11.2,13.3 C14.6,13.3 18.3,12.4 21.9,10.5 C28.5,7 32.5,1.1 32.5,-4 C32.5,-5.4 32.2,-6.8 31.5,-8.1"/>
<path class="Note" transform="matrix(2.12598,0,0,2.12598,2944.51,522.638)" d="M31.5,-8.1 C29.7,-11.4 25.9,-13.2 21.3,-13.2 C17.9,-13.2 14.2,-12.2 10.6,-10.3 C4,-6.8 0,-0.9 0,4.2 C0,5.6 0.3,7 1,8.3 C2.8,11.6 6.6,13.3 11.2,13.3 C14.6,13.3 18.3,12.4 21.9,10.5 C28.5,7 32.5,1.1 32.5,-4 C32.5,-5.4 32.2,-6.8 31.5,-8.1"/>
<path class="Note" transform="matrix(2.12598,0,0,2.12598,3035.5,549.212)" d="M31.5,-8.1 C29.7,-11.4 25.9,-13.2 21.3,-13.2 C17.9,-13.2 14.2,-12.2 10.6,-10.3 C4,-6.8 0,-0.9 0,4.2 C0,5.6 0.3,7 1,8.3 C2.8,11.6 6.6,13.3 11.2,13.3 C14.6,13.3 18.3,12.4 21.9,10.5 C28.5,7 32.5,1.1 32.5,-4 C32.5,-5.4 32.2,-6.8 31.5,-8.1"/>
<path class="Note" transform="matrix(2.12598,0,0,2.12598,3126.48,575.787)" d="M31.5,-8.1 C29.7,-11.4 25.9,-13.2 21.3,-13.2 C17.9,-13.2 14.2,-12.2 10.6,-10.3 C4,-6.8 0,-0.9 0,4.2 C0,5.6 0.3,7 1,8.3 C2.8,11.6 6.6,13.3 11.2,13.3 C14.6,13.3 18.3,12.4 21.9,10.5 C28.5,7 32.5,1.1 32.5,-4 C32.5,-5.4 32.2,-6.8 31.5,-8.1"/>
<path class="Note" transform="matrix(2.12598,0,0,2.12598,3272.05,575.787)" d="M31.5,-8.1 C29.7,-11.4 25.9,-13.2 21.3,-13.2 C17.9,-13.2 14.2,-12.2 10.6,-10.3 C4,-6.8 0,-0.9 0,4.2 C0,5.6 0.3,7 1,8.3 C2.8,11.6 6.6,13.3 11.2,13.3 C14.6,13.3 18.3,12.4 21.9,10.5 C28.5,7 32.5,1.1 32.5,-4 C32.5,-5.4 32.2,-6.8 31.5,-8.1"/>
<path class="Note" transform="matrix(2.12598,0,0,2.12598,3363.04,602.362)" d="M31.5,-8.1 C29.7,-11.4 25.9,-13.2 21.3,-13.2 C17.9,-13.2 14.2,-12.2 10.6,-10.3 C4,-6.8 0,-0.9 0,4.2 C0,5.6 0.3,7 1,8.3 C2.8,11.6 6.6,13.3 11.2,13.3 C14.6,13.3 18.3,12.4 21.9,10.5 C28.5,7 32.5,1.1 32.5,-4 C32.5,-5.4 32.2,-6.8 31.5,-8.1"/>
<path class="Note" transform="matrix(2.12598,0,0,2.12598,3590.5,628.937)" d="M31.5,-8.1 C29.7,-11.4 25.9,-13.2 21.3,-13.2 C17.9,-13.2 14.2,-12.2 10.6,-10.3 C4,-6.8 0,-0.9 0,4.2 C0,5.6 0.3,7 1,8.3 C2.8,11.6 6.6,13.3 11.2,13.3 C14.6,13.3 18.3,12.4 21.9,10.5 C28.5,7 32.5,1.1 32.5,-4 C32.5,-5.4 32.2,-6.8 31.5,-8.1"/>
<path class="Note" transform="matrix(2.12598,0,0,2.12598,3898.25,442.913)" d="M31.5,-8.1 C29.7,-11.4 25.9,-13.2 21.3,-13.2 C17.9,-13.2 14.2,-12.2 10.6,-10.3 C4,-6.8 0,-0.9 0,4.2 C0,5.6 0.3,7 1,8.3 C2.8,11.6 6.6,13.3 11.2,13.3 C14.6,13.3 18.3,12.4 21.9,10.5 C28.5,7 32.5,1.1 32.5,-4 C32.5,-5.4 32.2,-6.8 31.5,-8.1"/>
<path class="Note" transform="matrix(2.12598,0,0,2.12598,3979.24,469.488)" d="M31.5,-8.1 C29.7,-11.4 25.9,-13.2 21.3,-13.2 C17.9,-13.2 14.2,-12.2 10.6,-10.3 C4,-6.8 0,-0.9 0,4.2 C0,5.6 0.3,7 1,8.3 C2.8,11.6 6.6,13.3 11.2,13.3 C14.6,13.3 18.3,12.4 21.9,10.5 C28.5,7 32.5,1.1 32.5,-4 C32.5,-5.4 32.2,-6.8 31.5,-8.1"/>
<path class="Note" transform="matrix(2.12598,0,0,2.12598,540.459,1266.73)" d="M31.5,-8.1 C29.7,-11.4 25.9,-13.2 21.3,-13.2 C17.9,-13.2 14.2,-12.2 10.6,-10.3 C4,-6.8 0,-0.9 0,4.2 C0,5.6 0.3,7 1,8.3 C2.8,11.6 6.6,13.3 11.2,13.3 C14.6,13.3 18.3,12.4 21.9,10.5 C28.5,7 32.5,1.1 32.5,-4 C32.5,-5.4 32.2,-6.8 31.5,-8.1"/>
<path class="Note" transform="matrix(2.12598,0,0,2.12598,656.777,1266.73)" d="M31.5,-8.1 C29.7,-11.4 25.9,-13.2 21.3,-13.2 C17.9,-13.2 14.2,-12.2 10.6,-10.3 C4,-6.8 0,-0.9 0,4.2 C0,5.6 0.3,7 1,8.3 C2.8,11.6 6.6,13.3 11.2,13.3 C14.6,13.3 18.3,12.4 21.9,10.5 C28.5,7 32.5,1.1 32.5,-4 C32.5,-5.4 32.2,-6.8 31.5,-8.1"/>
<path class="Note" transform="matrix(2.12598,0,0,2.12598,736.485,1293.31)" d="M31.5,-8.1 C29.7,-11.4 25.9,-13.2 21.3,-13.2 C17.9,-13.2 14.2,-12.2 10.6,-10.3 C4,-6.8 0,-0.9 0,4.2 C0,5.6 0.3,7 1,8.3 C2.8,11.6 6.6,13.3 11.2,13.3 C14.6,13.3 18.3,12.4 21.9,10.5 C28.5,7 32.5,1.1 32.5,-4 C32.5,-5.4 32.2,-6.8 31.5,-8.1"/>
<path class="Note" transform="matrix(2.12598,0,0,2.12598,816.193,1319.88)" d="M31.5,-8.1 C29.7,-11.4 25.9,-13.2 21.3,-13.2 C17.9,-13.2 14.2,-12.2 10.6,-10.3 C4,-6.8 0,-0.9 0,4.2 C0,5.6 0.3,7 1,8.3 C2.8,11.6 6.6,13.3 11.2,13.3 C14.6,13.3 18.3,12.4 21.9,10.5 C28.5,7 32.5,1.1 32.5,-4 C32.5,-5.4 32.2,-6.8 31.5,-8.1"/>
<path class="Note" transform="matrix(2.12598,0,0,2.12598,932.51,1319.88)" d="M31.5,-8.1 C29.7,-11.4 25.9,-13.2 21.3,-13.2 C17.9,-13.2 14.2,-12.2 10.6,-10.3 C4,-6.8 0,-0.9 0,4.2 C0,5.6 0.3,7 1,8.3 C2.8,11.6 6.6,13.3 11.2,13.3 C14.6,13.3 18.3,12.4 21.9,10.5 C28.5,7 32.5,1.1 32.5,-4 C32.5,-5.4 32.2,-6.8 31.5,-8.1"/>
<path class="Note" transform="matrix(2.12598,0,0,2.12598,1012.22,1346.46)" d="M31.5,-8.1 C29.7,-11.4 25.9,-13.2 21.3,-13.2 C17.9,-13.2 14.2,-12.2 10.6,-10.3 C4,-6.8 0,-0.9 0,4.2 C0,5.6 0.3,7 1,8.3 C2.8,11.6 6.6,13.3 11.2,13.3 C14.6,13.3 18.3,12.4 21.9,10.5 C28.5,7 32.5,1.1 32.5,-4 C32.5,-5.4 32.2,-6.8 31.5,-8.1"/>
<path class="Note" transform="matrix(2.12598,0,0,2.12598,1239.68,1373.03)" d="M31.5,-8.1 C29.7,-11.4 25.9,-13.2 21.3,-13.2 C17.9,-13.2 14.2,-12.2 10.6,-10.3 C4,-6.8 0,-0.9 0,4.2 C0,5.6 0.3,7 1,8.3 C2.8,11.6 6.6,13.3 11.2,13.3 C14.6,13.3 18.3,12.4 21.9,10.5 C28.5,7 32.5,1.1 32.5,-4 C32.5,-5.4 32.2,-6.8 31.5,-8.1"/>
<path class="Note" transform="matrix(2.12598,0,0,2.12598,1341.14,1426.18)" d="M31.5,-8.1 C29.7,-11.4 25.9,-13.2 21.3,-13.2 C17.9,-13.2 14.2,-12.2 10.6,-10.3 C4,-6.8 0,-0.9 0,4.2 C0,5.6 0.3,7 1,8.3 C2.8,11.6 6.6,13.3 11.2,13.3 C14.6,13.3 18.3,12.4 21.9,10.5 C28.5,7 32.5,1.1 32.5,-4 C32.5,-5.4 32.2,-6.8 31.5,-8.1"/>
<path class="Note" transform="matrix(2.12598,0,0,2.12598,1544.05,1240.16)" d="M31.5,-8.1 C29.7,-11.4 25.9,-13.2 21.3,-13.2 C17.9,-13.2 14.2,-12.2 10.6,-10.3 C4,-6.8 0,-0.9 0,4.2 C0,5.6 0.3,7 1,8.3 C2.8,11.6 6.6,13.3 11.2,13.3 C14.6,13.3 18.3,12.4 21.9,10.5 C28.5,7 32.5,1.1 32.5,-4 C32.5,-5.4 32.2,-6.8 31.5,-8.1"/>
<path class="Note" transform="matrix(2.12598,0,0,2.12598,1623.76,1266.73)" d="M31.5,-8.1 C29.7,-11.4 25.9,-13.2 21.3,-13.2 C17.9,-13.2 14.2,-12.2 10.6,-10.3 C4,-6.8 0,-0.9 0,4.2 C0,5.6 0.3,7 1,8.3 C2.8,11.6 6.6,13.3 11.2,13.3 C14.6,13.3 18.3,12.4 21.9,10.5 C28.5,7 32.5,1.1 32.5,-4 C32.5,-5.4 32.2,-6.8 31.5,-8.1"/>
<path class="Note" transform="matrix(2.12598,0,0,2.12598,1851.23,1293.31)" d="M31.5,-8.1 C29.7,-11.4 25.9,-13.2 21.3,-13.2 C17.9,-13.2 14.2,-12.2 10.6,-10.3 C4,-6.8 0,-0.9 0,4.2 C0,5.6 0.3,7 1,8.3 C2.8,11.6 6.6,13.3 11.2,13.3 C14.6,13.3 18.3,12.4 21.9,10.5 C28.5,7 32.5,1.1 32.5,-4 C32.5,-5.4 32.2,-6.8 31.5,-8.1"/>
<path class="Note" transform="matrix(2.12598,0,0,2.12598,1967.54,1293.31)" d="M31.5,-8.1 C29.7,-11.4 25.9,-13.2 21.3,-13.2 C17.9,-13.2 14.2,-12.2 10.6,-10.3 C4,-6.8 0,-0.9 0,4.2 C0,5.6 0.3,7 1,8.3 C2.8,11.6 6.6,13.3 11.2,13.3 C14.6,13.3 18.3,12.4 21.9,10.5 C28.5,7 32.5,1.1 32.5,-4 C32.5,-5.4 32.2,-6.8 31.5,-8.1"/>
<path class="Note" transform="matrix(2.12598,0,0,2.12598,2047.25,1319.88)" d="M31.5,-8.1 C29.7,-11.4 25.9,-13.2 21.3,-13.2 C17.9,-13.2 14.2,-12.2 10.6,-10.3 C4,-6.8 0,-0.9 0,4.2 C0,5.6 0.3,7 1,8.3 C2.8,11.6 6.6,13.3 11.2,13.3 C14.6,13.3 18.3,12.4 21.9,10.5 C28.5,7 32.5,1.1 32.5,-4 C32.5,-5.4 32.2,-6.8 31.5,-8.1"/>
<path class="Note" transform="matrix(2.12598,0,0,2.12598,2126.96,1346.46)" d="M31.5,-8.1 C29.7,-11.4 25.9,-13.2 21.3,-13.2 C17.9,-13.2 14.2,-12.2 10.6,-10.3 C4,-6.8 0,-0.9 0,4.2 C0,5.6 0.3,7 1,8.3 C2.8,11.6 6.6,13.3 11.2,13.3 C14.6,13.3 18.3,12.4 21.9,10.5 C28.5,7 32.5,1.1 32.5,-4 C32.5,-5.4 32.2,-6.8 31.5,-8.1"/>
<path class="Note" transform="matrix(2.12598,0,0,2.12598,2243.28,1319.88)" d="M31.5,-8.1 C29.7,-11.4 25.9,-13.2 21.3,-13.2 C17.9,-13.2 14.2,-12.2 10.6,-10.3 C4,-6.8 0,-0.9 0,4.2 C0,5.6 0.3,7 1,8.3 C2.8,11.6 6.6,13.3 11.2,13.3 C14.6,13.3 18.3,12.4 21.9,10.5 C28.5,7 32.5,1.1 32.5,-4 C32.5,-5.4 32.2,-6.8 31.5,-8.1"/>
<path class="Note" transform="matrix(2.12598,0,0,2.12598,2322.98,1293.31)" d="M31.5,-8.1 C29.7,-11.4 25.9,-13.2 21.3,-13.2 C17.9,-13.2 14.2,-12.2 10.6,-10.3 C4,-6.8 0,-0.9 0,4.2 C0,5.6 0.3,7 1,8.3 C2.8,11.6 6.6,13.3 11.2,13.3 C14.6,13.3 18.3,12.4 21.9,10.5 C28.5,7 32.5,1.1 32.5,-4 C32.5,-5.4 32.2,-6.8 31.5,-8.1"/>
<path class="Note" transform="matrix(2.12598,0,0,2.12598,2550.45,1266.73)" d="M31.5,-8.1 C29.7,-11.4 25.9,-13.2 21.3,-13.2 C17.9,-13.2 14.2,-12.2 10.6,-10.3 C4,-6.8 0,-0.9 0,4.2 C0,5.6 0.3,7 1,8.3 C2.8,11.6 6.6,13.3 11.2,13.3 C14.6,13.3 18.3,12.4 21.9,10.5 C28.5,7 32.5,1.1 32.5,-4 C32.5,-5.4 32.2,-6.8 31.5,-8.1"/>
<path class="Note" transform="matrix(2.12598,0,0,2.12598,2748.05,1346.46)" d="M31.5,-8.1 C29.7,-11.4 25.9,-13.2 21.3,-13.2 C17.9,-13.2 14.2,-12.2 10.6,-10.3 C4,-6.8 0,-0.9 0,4.2 C0,5.6 0.3,7 1,8.3 C2.8,11.6 6.6,13.3 11.2,13.3 C14.6,13.3 18.3,12.4 21.9,10.5 C28.5,7 32.5,1.1 32.5,-4 C32.5,-5.4 32.2,-6.8 31.5,-8.1"/>
<path class="Note" transform="matrix(2.12598,0,0,2.12598,2846.85,1346.46)" d="M31.5,-8.1 C29.7,-11.4 25.9,-13.2 21.3,-13.2 C17.9,-13.2 14.2,-12.2 10.6,-10.3 C4,-6.8 0,-0.9 0,4.2 C0,5.6 0.3,7 1,8.3 C2.8,11.6 6.6,13.3 11.2,13.3 C14.6,13.3 18.3,12.4 21.9,10.5 C28.5,7 32.5,1.1 32.5,-4 C32.5,-5.4 32.2,-6.8 31.5,-8.1"/>
<path class="Note" transform="matrix(2.12598,0,0,2.12598,3158.97,1399.61)" d="M31.5,-8.1 C29.7,-11.4 25.9,-13.2 21.3,-13.2 C17.9,-13.2 14.2,-12.2 10.6,-10.3 C4,-6.8 0,-0.9 0,4.2 C0,5.6 0.3,7 1,8.3 C2.8,11.6 6.6,13.3 11.2,13.3 C14.6,13.3 18.3,12.4 21.9,10.5 C28.5,7 32.5,1.1 32.5,-4 C32.5,-5.4 32.2,-6.8 31.5,-8.1"/>
<path class="Note" transform="matrix(2.12598,0,0,2.12598,3257.77,1399.61)" d="M31.5,-8.1 C29.7,-11.4 25.9,-13.2 21.3,-13.2 C17.9,-13.2 14.2,-12.2 10.6,-10.3 C4,-6.8 0,-0.9 0,4.2 C0,5.6 0.3,7 1,8.3 C2.8,11.6 6.6,13.3 11.2,13.3 C14.6,13.3 18.3,12.4 21.9,10.5 C28.5,7 32.5,1.1 32.5,-4 C32.5,-5.4 32.2,-6.8 31.5,-8.1"/>
<path class="Note" transform="matrix(2.12598,0,0,2.12598,3356.57,1373.03)" d="M31.5,-8.1 C29.7,-11.4 25.9,-13.2 21.3,-13.2 C17.9,-13.2 14.2,-12.2 10.6,-10.3 C4,-6.8 0,-0.9 0,4.2 C0,5.6 0.3,7 1,8.3 C2.8,11.6 6.6,13.3 11.2,13.3 C14.6,13.3 18.3,12.4 21.9,10.5 C28.5,7 32.5,1.1 32.5,-4 C32.5,-5.4 32.2,-6.8 31.5,-8.1"/>
<path class="Note" transform="matrix(2.12598,0,0,2.12598,3455.37,1373.03)" d="M31.5,-8.1 C29.7,-11.4 25.9,-13.2 21.3,-13.2 C17.9,-13.2 14.2,-12.2 10.6,-10.3 C4,-6.8 0,-0.9 0,4.2 C0,5.6 0.3,7 1,8.3 C2.8,11.6 6.6,13.3 11.2,13.3 C14.6,13.3 18.3,12.4 21.9,10.5 C28.5,7 32.5,1.1 32.5,-4 C32.5,-5.4 32.2,-6.8 31.5,-8.1"/>
<path class="Note" transform="matrix(2.12598,0,0,2.12598,3682.84,1426.18)" d="M31.5,-8.1 C29.7,-11.4 25.9,-13.2 21.3,-13.2 C17.9,-13.2 14.2,-12.2 10.6,-10.3 C4,-6.8 0,-0.9 0,4.2 C0,5.6 0.3,7 1,8.3 C2.8,11.6 6.6,13.3 11.2,13.3 C14.6,13.3 18.3,12.4 21.9,10.5 C28.5,7 32.5,1.1 32.5,-4 C32.5,-5.4 32.2,-6.8 31.5,-8.1"/>
<path class="Note" transform="matrix(2.12598,0,0,2.12598,3781.64,1426.18)" d="M31.5,-8.1 C29.7,-11.4 25.9,-13.2 21.3,-13.2 C17.9,-13.2 14.2,-12.2 10.6,-10.3 C4,-6.8 0,-0.9 0,4.2 C0,5.6 0.3,7 1,8.3 C2.8,11.6 6.6,13.3 11.2,13.3 C14.6,13.3 18.3,12.4 21.9,10.5 C28.5,7 32.5,1.1 32.5,-4 C32.5,-5.4 32.2,-6.8 31.5,-8.1"/>
<path class="Note" transform="matrix(2.12598,0,0,2.12598,3880.44,1373.03)" d="M31.5,-8.1 C29.7,-11.4 25.9,-13.2 21.3,-13.2 C17.9,-13.2 14.2,-12.2 10.6,-10.3 C4,-6.8 0,-0.9 0,4.2 C0,5.6 0.3,7 1,8.3 C2.8,11.6 6.6,13.3 11.2,13.3 C14.6,13.3 18.3,12.4 21.9,10.5 C28.5,7 32.5,1.1 32.5,-4 C32.5,-5.4 32.2,-6.8 31.5,-8.1"/>
<path class="Note" transform="matrix(2.12598,0,0,2.12598,3979.24,1373.03)" d="M31.5,-8.1 C29.7,-11.4 25.9,-13.2 21.3,-13.2 C17.9,-13.2 14.2,-12.2 10.6,-10.3 C4,-6.8 0,-0.9 0,4.2 C0,5.6 0.3,7 1,8.3 C2.8,11.6 6.6,13.3 11.2,13.3 C14.6,13.3 18.3,12.4 21.9,10.5 C28.5,7 32.5,1.1 32.5,-4 C32.5,-5.4 32.2,-6.8 31.5,-8.1"/>
<path class="Note" transform="matrix(2.12598,0,0,2.12598,540.459,2196.85)" d="M31.5,-8.1 C29.7,-11.4 25.9,-13.2 21.3,-13.2 C17.9,-13.2 14.2,-12.2 10.6,-10.3 C4,-6.8 0,-0.9 0,4.2 C0,5.6 0.3,7 1,8.3 C2.8,11.6 6.6,13.3 11.2,13.3 C14.6,13.3 18.3,12.4 21.9,10.5 C28.5,7 32.5,1.1 32.5,-4 C32.5,-5.4 32.2,-6.8 31.5,-8.1"/>
<path class="Note" transform="matrix(2.12598,0,0,2.12598,641.171,2196.85)" d="M31.5,-8.1 C29.7,-11.4 25.9,-13.2 21.3,-13.2 C17.9,-13.2 14.2,-12.2 10.6,-10.3 C4,-6.8 0,-0.9 0,4.2 C0,5.6 0.3,7 1,8.3 C2.8,11.6 6.6,13.3 11.2,13.3 C14.6,13.3 18.3,12.4 21.9,10.5 C28.5,7 32.5,1.1 32.5,-4 C32.5,-5.4 32.2,-6.8 31.5,-8.1"/>
<path class="Note" transform="matrix(2.12598,0,0,2.12598,741.883,2117.12)" d="M31.5,-8.1 C29.7,-11.4 25.9,-13.2 21.3,-13.2 C17.9,-13.2 14.2,-12.2 10.6,-10.3 C4,-6.8 0,-0.9 0,4.2 C0,5.6 0.3,7 1,8.3 C2.8,11.6 6.6,13.3 11.2,13.3 C14.6,13.3 18.3,12.4 21.9,10.5 C28.5,7 32.5,1.1 32.5,-4 C32.5,-5.4 32.2,-6.8 31.5,-8.1"/>
<path class="Note" transform="matrix(2.12598,0,0,2.12598,842.596,2117.12)" d="M31.5,-8.1 C29.7,-11.4 25.9,-13.2 21.3,-13.2 C17.9,-13.2 14.2,-12.2 10.6,-10.3 C4,-6.8 0,-0.9 0,4.2 C0,5.6 0.3,7 1,8.3 C2.8,11.6 6.6,13.3 11.2,13.3 C14.6,13.3 18.3,12.4 21.9,10.5 C28.5,7 32.5,1.1 32.5,-4 C32.5,-5.4 32.2,-6.8 31.5,-8.1"/>
<path class="Note" transform="matrix(2.12598,0,0,2.12598,1070.06,2170.27)" d="M31.5,-8.1 C29.7,-11.4 25.9,-13.2 21.3,-13.2 C17.9,-13.2 14.2,-12.2 10.6,-10.3 C4,-6.8 0,-0.9 0,4.2 C0,5.6 0.3,7 1,8.3 C2.8,11.6 6.6,13.3 11.2,13.3 C14.6,13.3 18.3,12.4 21.9,10.5 C28.5,7 32.5,1.1 32.5,-4 C32.5,-5.4 32.2,-6.8 31.5,-8.1"/>
<path class="Note" transform="matrix(2.12598,0,0,2.12598,1271.48,2117.12)" d="M31.5,-8.1 C29.7,-11.4 25.9,-13.2 21.3,-13.2 C17.9,-13.2 14.2,-12.2 10.6,-10.3 C4,-6.8 0,-0.9 0,4.2 C0,5.6 0.3,7 1,8.3 C2.8,11.6 6.6,13.3 11.2,13.3 C14.6,13.3 18.3,12.4 21.9,10.5 C28.5,7 32.5,1.1 32.5,-4 C32.5,-5.4 32.2,-6.8 31.5,-8.1"/>
<path class="Note" transform="matrix(2.12598,0,0,2.12598,1372.2,2117.12)" d="M31.5,-8.1 C29.7,-11.4 25.9,-13.2 21.3,-13.2 C17.9,-13.2 14.2,-12.2 10.6,-10.3 C4,-6.8 0,-0.9 0,4.2 C0,5.6 0.3,7 1,8.3 C2.8,11.6 6.6,13.3 11.2,13.3 C14.6,13.3 18.3,12.4 21.9,10.5 C28.5,7 32.5,1.1 32.5,-4 C32.5,-5.4 32.2,-6.8 31.5,-8.1"/>
<path class="Note" transform="matrix(2.12598,0,0,2.12598,1599.66,2170.27)" d="M31.5,-8.1 C29.7,-11.4 25.9,-13.2 21.3,-13.2 C17.9,-13.2 14.2,-12.2 10.6,-10.3 C4,-6.8 0,-0.9 0,4.2 C0,5.6 0.3,7 1,8.3 C2.8,11.6 6.6,13.3 11.2,13.3 C14.6,13.3 18.3,12.4 21.9,10.5 C28.5,7 32.5,1.1 32.5,-4 C32.5,-5.4 32.2,-6.8 31.5,-8.1"/>
<path class="Note" transform="matrix(2.12598,0,0,2.12598,1700.37,2170.27)" d="M31.5,-8.1 C29.7,-11.4 25.9,-13.2 21.3,-13.2 C17.9,-13.2 14.2,-12.2 10.6,-10.3 C4,-6.8 0,-0.9 0,4.2 C0,5.6 0.3,7 1,8.3 C2.8,11.6 6.6,13.3 11.2,13.3 C14.6,13.3 18.3,12.4 21.9,10.5 C28.5,7 32.5,1.1 32.5,-4 C32.5,-5.4 32.2,-6.8 31.5,-8.1"/>
<path class="Note" transform="matrix(2.12598,0,0,2.12598,1801.08,2143.7)" d="M31.5,-8.1 C29.7,-11.4 25.9,-13.2 21.3,-13.2 C17.9,-13.2 14.2,-12.2 10.6,-10.3 C4,-6.8 0,-0.9 0,4.2 C0,5.6 0.3,7 1,8.3 C2.8,11.6 6.6,13.3 11.2,13.3 C14.6,13.3 18.3,12.4 21.9,10.5 C28.5,7 32.5,1.1 32.5,-4 C32.5,-5.4 32.2,-6.8 31.5,-8.1"/>
<path class="Note" transform="matrix(2.12598,0,0,2.12598,1901.8,2143.7)" d="M31.5,-8.1 C29.7,-11.4 25.9,-13.2 21.3,-13.2 C17.9,-13.2 14.2,-12.2 10.6,-10.3 C4,-6.8 0,-0.9 0,4.2 C0,5.6 0.3,7 1,8.3 C2.8,11.6 6.6,13.3 11.2,13.3 C14.6,13.3 18.3,12.4 21.9,10.5 C28.5,7 32.5,1.1 32.5,-4 C32.5,-5.4 32.2,-6.8 31.5,-8.1"/>
<path class="Note" transform="matrix(2.12598,0,0,2.12598,2129.26,2196.85)" d="M31.5,-8.1 C29.7,-11.4 25.9,-13.2 21.3,-13.2 C17.9,-13.2 14.2,-12.2 10.6,-10.3 C4,-6.8 0,-0.9 0,4.2 C0,5.6 0.3,7 1,8.3 C2.8,11.6 6.6,13.3 11.2,13.3 C14.6,13.3 18.3,12.4 21.9,10.5 C28.5,7 32.5,1.1 32.5,-4 C32.5,-5.4 32.2,-6.8 31.5,-8.1"/>
<path class="Note" transform="matrix(2.12598,0,0,2.12598,2229.97,2196.85)" d="M31.5,-8.1 C29.7,-11.4 25.9,-13.2 21.3,-13.2 C17.9,-13.2 14.2,-12.2 10.6,-10.3 C4,-6.8 0,-0.9 0,4.2 C0,5.6 0.3,7 1,8.3 C2.8,11.6 6.6,13.3 11.2,13.3 C14.6,13.3 18.3,12.4 21.9,10.5 C28.5,7 32.5,1.1 32.5,-4 C32.5,-5.4 32.2,-6.8 31.5,-8.1"/>
<path class="Note" transform="matrix(2.12598,0,0,2.12598,2330.68,2063.98)" d="M31.5,-8.1 C29.7,-11.4 25.9,-13.2 21.3,-13.2 C17.9,-13.2 14.2,-12.2 10.6,-10.3 C4,-6.8 0,-0.9 0,4.2 C0,5.6 0.3,7 1,8.3 C2.8,11.6 6.6,13.3 11.2,13.3 C14.6,13.3 18.3,12.4 21.9,10.5 C28.5,7 32.5,1.1 32.5,-4 C32.5,-5.4 32.2,-6.8 31.5,-8.1"/>
<path class="Note" transform="matrix(2.12598,0,0,2.12598,2431.4,2090.55)" d="M31.5,-8.1 C29.7,-11.4 25.9,-13.2 21.3,-13.2 C17.9,-13.2 14.2,-12.2 10.6,-10.3 C4,-6.8 0,-0.9 0,4.2 C0,5.6 0.3,7 1,8.3 C2.8,11.6 6.6,13.3 11.2,13.3 C14.6,13.3 18.3,12.4 21.9,10.5 C28.5,7 32.5,1.1 32.5,-4 C32.5,-5.4 32.2,-6.8 31.5,-8.1"/>
<path class="Note" transform="matrix(2.12598,0,0,2.12598,2658.86,2117.12)" d="M31.5,-8.1 C29.7,-11.4 25.9,-13.2 21.3,-13.2 C17.9,-13.2 14.2,-12.2 10.6,-10.3 C4,-6.8 0,-0.9 0,4.2 C0,5.6 0.3,7 1,8.3 C2.8,11.6 6.6,13.3 11.2,13.3 C14.6,13.3 18.3,12.4 21.9,10.5 C28.5,7 32.5,1.1 32.5,-4 C32.5,-5.4 32.2,-6.8 31.5,-8.1"/>
<path class="Note" transform="matrix(2.12598,0,0,2.12598,2759.57,2143.7)" d="M31.5,-8.1 C29.7,-11.4 25.9,-13.2 21.3,-13.2 C17.9,-13.2 14.2,-12.2 10.6,-10.3 C4,-6.8 0,-0.9 0,4.2 C0,5.6 0.3,7 1,8.3 C2.8,11.6 6.6,13.3 11.2,13.3 C14.6,13.3 18.3,12.4 21.9,10.5 C28.5,7 32.5,1.1 32.5,-4 C32.5,-5.4 32.2,-6.8 31.5,-8.1"/>
<path class="Note" transform="matrix(2.12598,0,0,2.12598,2860.28,2170.27)" d="M31.5,-8.1 C29.7,-11.4 25.9,-13.2 21.3,-13.2 C17.9,-13.2 14.2,-12.2 10.6,-10.3 C4,-6.8 0,-0.9 0,4.2 C0,5.6 0.3,7 1,8.3 C2.8,11.6 6.6,13.3 11.2,13.3 C14.6,13.3 18.3,12.4 21.9,10.5 C28.5,7 32.5,1.1 32.5,-4 C32.5,-5.4 32.2,-6.8 31.5,-8.1"/>
<path class="Note" transform="matrix(2.12598,0,0,2.12598,2960.99,2196.85)" d="M31.5,-8.1 C29.7,-11.4 25.9,-13.2 21.3,-13.2 C17.9,-13.2 14.2,-12.2 10.6,-10.3 C4,-6.8 0,-0.9 0,4.2 C0,5.6 0.3,7 1,8.3 C2.8,11.6 6.6,13.3 11.2,13.3 C14.6,13.3 18.3,12.4 21.9,10.5 C28.5,7 32.5,1.1 32.5,-4 C32.5,-5.4 32.2,-6.8 31.5,-8.1"/>
<path class="Note" transform="matrix(2.12598,0,0,2.12598,3217.69,2223.42)" d="M31.5,-8.1 C29.7,-11.4 25.9,-13.2 21.3,-13.2 C17.9,-13.2 14.2,-12.2 10.6,-10.3 C4,-6.8 0,-0.9 0,4.2 C0,5.6 0.3,7 1,8.3 C2.8,11.6 6.6,13.3 11.2,13.3 C14.6,13.3 18.3,12.4 21.9,10.5 C28.5,7 32.5,1.1 32.5,-4 C32.5,-5.4 32.2,-6.8 31.5,-8.1"/>
<path class="Note" transform="matrix(2.12598,0,0,2.12598,3466.98,2117.12)" d="M31.5,-8.1 C29.7,-11.4 25.9,-13.2 21.3,-13.2 C17.9,-13.2 14.2,-12.2 10.6,-10.3 C4,-6.8 0,-0.9 0,4.2 C0,5.6 0.3,7 1,8.3 C2.8,11.6 6.6,13.3 11.2,13.3 C14.6,13.3 18.3,12.4 21.9,10.5 C28.5,7 32.5,1.1 32.5,-4 C32.5,-5.4 32.2,-6.8 31.5,-8.1"/>
<path class="Note" transform="matrix(2.12598,0,0,2.12598,3580.98,2117.12)" d="M31.5,-8.1 C29.7,-11.4 25.9,-13.2 21.3,-13.2 C17.9,-13.2 14.2,-12.2 10.6,-10.3 C4,-6.8 0,-0.9 0,4.2 C0,5.6 0.3,7 1,8.3 C2.8,11.6 6.6,13.3 11.2,13.3 C14.6,13.3 18.3,12.4 21.9,10.5 C28.5,7 32.5,1.1 32.5,-4 C32.5,-5.4 32.2,-6.8 31.5,-8.1"/>
<path class="Clef" transform="matrix(2.12598,0,0,2.12598,113.386,602.362)" d="M63.35,-5.86992 C62.12,-11.3 59.48,-15.1199 58.7,-16.16 C55.51,-20.43 51.5,-23.28 46.81,-24.63 C43.7,-25.5199 40.7,-25.63 38.28,-25.45 C37.24,-31.46 36.24,-37.3399 35.33,-42.7899 C40.78,-48.96 44.4,-54.76 46.68,-59.06 C50.15,-65.6399 51.3,-70.2199 51.35,-70.4199 C53.07,-75.63 53.43,-83.33 52.33,-91.5399 C51.32,-99.0899 49.23,-105.8 46.88,-109.05 C45.85,-110.48 44.8,-111.21 43.76,-111.21 C42.54,-111.21 40.03,-109.97 37.14,-107.2 C34.84,-105 31.57,-101.11 29.01,-95.1 C26.01,-88.0399 25.8,-78.55 26.15,-71.83 C26.53,-64.56 27.64,-58.8699 27.65,-58.8199 C27.67,-58.73 27.93,-57.23 28.38,-54.66 C28.15,-54.43 27.91,-54.21 27.66,-53.9699 C26.62,-52.9699 25.43,-51.83 24.05,-50.45 C23.19,-49.5899 22.24,-48.68 21.24,-47.71 C12.79,-39.5699 0,-27.25 0,-8.1 C0,-3.4 0.9,1.02002 2.67998,5.03008 C4.27002,8.63008 6.57002,11.9101 9.5,14.7801 C17.23,22.3301 27.82,25.54 34.88,25.3801 C37.83,25.3101 40.46,25.07 42.85,24.62 C44.68,34.22 45.82,41.25 45.86,46.59 C45.9,53.1 44.25,57.07 40.35,59.84 C37.92,61.57 35.11,62.52 32.01,62.67 C29.42,62.79 27.16,62.32 25.73,61.9101 L25.72,61.9101 C25.72,61.9101 25.43,61.8301 25.42,61.6301 C25.41,61.45 25.76,61.4 25.77,61.4 L25.79,61.4 C27.71,60.9601 31.28,59.7301 33.64,56.4301 C35.44,53.9101 36.31,49.29 34.47,45.35 C33.36,42.9601 30.85,40.0101 25.23,39.5601 C22.74,39.3601 20.47,39.87 18.47,41.07 C16.66,42.15 15.16,43.79 14.11,45.79 C11.65,50.49 12.11,56.22 15.24,60.0601 C18.2,63.6801 22.82,65.99 28.25,66.57 C29.1,66.6601 29.95,66.7 30.8,66.7 C35.23,66.7 39.63,65.5 43.2,63.29 C46.86,60.72 48.98,56.74 49.66,51.1101 C50.22,46.47 49.83,40.5601 48.43,32.49 C48.07,30.4 47.53,27.37 46.87,23.6101 C52.62,21.69 56.78,18.12 60.55,12.27 C63.84,6.53008 64.78,0.430078 63.35,-5.86992 M29.14,20.32 C24.5,19.1 20.07,16.6 16.31,13.1 C15,11.87 13.13,9.7 11.66,6.31006 C10.29,3.15 9.62998,-0.27998 9.67998,-3.86992 C9.75,-8.55996 11.06,-13.38 13.57,-18.1699 C16.49,-23.75 21.05,-29.28 27.11,-34.61 C28.56,-35.8899 29.93,-37.1699 31.22,-38.45 C31.98,-34.1899 32.81,-29.5 33.69,-24.6199 C29.84,-23.35 25.09,-20.2 21.98,-14.55 C18.44,-7.97998 18.58,-2.45996 19.31,1.02002 C20.25,5.48008 22.78,9.24004 26.24,11.3301 C27.17,11.89 31.3,14.02 33.14,13.44 C33.51,13.32 33.78,13.1 33.92,12.77 C34.43,11.6 33.41,10.9601 31.85,10 C31.25,9.63008 30.58,9.21006 29.85,8.68008 C26.53,6.19004 25.08,1.74004 26.15,-2.63994 C26.73,-5.03994 28.01,-7.2 29.85,-8.9 C31.52,-10.45 33.56,-11.55 35.94,-12.1899 C37.98,-0.95 40.04,10.2 41.68,18.5601 C41.81,19.25 41.95,19.92 42.08,20.59 C37.7,21.52 33.35,21.4301 29.14,20.32 M40.46,-12.86 C50.81,-13.33 55.08,-5.88994 55.97,-1.05996 C56.44,1.47002 56.43,5.91006 54.89,10.12 C53.72,13.3 51.26,17.37 46.13,19.4301 C46.06,19.0101 45.98,18.5801 45.9,18.15 C44.36,9.38008 42.42,-1.60996 40.46,-12.86 M33.14,-83.8 C34.92,-89.5399 37.66,-92.7899 39.65,-94.5199 C41.4,-96.0399 43.05,-96.75 43.97,-96.75 C44.11,-96.75 44.23,-96.73 44.33,-96.7 C44.79,-96.56 45.32,-95.9899 45.79,-95.1199 C48.1,-90.83 47.36,-84.1199 46.02,-79.68 C44.39,-74.28 41.47,-68.66 32.67,-59.05 C32.5,-60.16 32.34,-61.21 32.19,-62.1899 C30.94,-70.48 31.26,-77.75 33.14,-83.8"/>
<path class="Clef" transform="matrix(2.12598,0,0,2.12598,113.386,1373.03)" d="M63.35,-5.86992 C62.12,-11.3 59.48,-15.1199 58.7,-16.16 C55.51,-20.43 51.5,-23.28 46.81,-24.63 C43.7,-25.5199 40.7,-25.63 38.28,-25.45 C37.24,-31.46 36.24,-37.3399 35.33,-42.7899 C40.78,-48.96 44.4,-54.76 46.68,-59.06 C50.15,-65.6399 51.3,-70.2199 51.35,-70.4199 C53.07,-75.63 53.43,-83.33 52.33,-91.5399 C51.32,-99.0899 49.23,-105.8 46.88,-109.05 C45.85,-110.48 44.8,-111.21 43.76,-111.21 C42.54,-111.21 40.03,-109.97 37.14,-107.2 C34.84,-105 31.57,-101.11 29.01,-95.1 C26.01,-88.0399 25.8,-78.55 26.15,-71.83 C26.53,-64.56 27.64,-58.8699 27.65,-58.8199 C27.67,-58.73 27.93,-57.23 28.38,-54.66 C28.15,-54.43 27.91,-54.21 27.66,-53.9699 C26.62,-52.9699 25.43,-51.83 24.05,-50.45 C23.19,-49.5899 22.24,-48.68 21.24,-47.71 C12.79,-39.5699 0,-27.25 0,-8.1 C0,-3.4 0.9,1.02002 2.67998,5.03008 C4.27002,8.63008 6.57002,11.9101 9.5,14.7801 C17.23,22.3301 27.82,25.54 34.88,25.3801 C37.83,25.3101 40.46,25.07 42.85,24.62 C44.68,34.22 45.82,41.25 45.86,46.59 C45.9,53.1 44.25,57.07 40.35,59.84 C37.92,61.57 35.11,62.52 32.01,62.67 C29.42,62.79 27.16,62.32 25.73,61.9101 L25.72,61.9101 C25.72,61.9101 25.43,61.8301 25.42,61.6301 C25.41,61.45 25.76,61.4 25.77,61.4 L25.79,61.4 C27.71,60.9601 31.28,59.7301 33.64,56.4301 C35.44,53.9101 36.31,49.29 34.47,45.35 C33.36,42.9601 30.85,40.0101 25.23,39.5601 C22.74,39.3601 20.47,39.87 18.47,41.07 C16.66,42.15 15.16,43.79 14.11,45.79 C11.65,50.49 12.11,56.22 15.24,60.0601 C18.2,63.6801 22.82,65.99 28.25,66.57 C29.1,66.6601 29.95,66.7 30.8,66.7 C35.23,66.7 39.63,65.5 43.2,63.29 C46.86,60.72 48.98,56.74 49.66,51.1101 C50.22,46.47 49.83,40.5601 48.43,32.49 C48.07,30.4 47.53,27.37 46.87,23.6101 C52.62,21.69 56.78,18.12 60.55,12.27 C63.84,6.53008 64.78,0.430078 63.35,-5.86992 M29.14,20.32 C24.5,19.1 20.07,16.6 16.31,13.1 C15,11.87 13.13,9.7 11.66,6.31006 C10.29,3.15 9.62998,-0.27998 9.67998,-3.86992 C9.75,-8.55996 11.06,-13.38 13.57,-18.1699 C16.49,-23.75 21.05,-29.28 27.11,-34.61 C28.56,-35.8899 29.93,-37.1699 31.22,-38.45 C31.98,-34.1899 32.81,-29.5 33.69,-24.6199 C29.84,-23.35 25.09,-20.2 21.98,-14.55 C18.44,-7.97998 18.58,-2.45996 19.31,1.02002 C20.25,5.48008 22.78,9.24004 26.24,11.3301 C27.17,11.89 31.3,14.02 33.14,13.44 C33.51,13.32 33.78,13.1 33.92,12.77 C34.43,11.6 33.41,10.9601 31.85,10 C31.25,9.63008 30.58,9.21006 29.85,8.68008 C26.53,6.19004 25.08,1.74004 26.15,-2.63994 C26.73,-5.03994 28.01,-7.2 29.85,-8.9 C31.52,-10.45 33.56,-11.55 35.94,-12.1899 C37.98,-0.95 40.04,10.2 41.68,18.5601 C41.81,19.25 41.95,19.92 42.08,20.59 C37.7,21.52 33.35,21.4301 29.14,20.32 M40.46,-12.86 C50.81,-13.33 55.08,-5.88994 55.97,-1.05996 C56.44,1.47002 56.43,5.91006 54.89,10.12 C53.72,13.3 51.26,17.37 46.13,19.4301 C46.06,19.0101 45.98,18.5801 45.9,18.15 C44.36,9.38008 42.42,-1.60996 40.46,-12.86 M33.14,-83.8 C34.92,-89.5399 37.66,-92.7899 39.65,-94.5199 C41.4,-96.0399 43.05,-96.75 43.97,-96.75 C44.11,-96.75 44.23,-96.73 44.33,-96.7 C44.79,-96.56 45.32,-95.9899 45.79,-95.1199 C48.1,-90.83 47.36,-84.1199 46.02,-79.68 C44.39,-74.28 41.47,-68.66 32.67,-59.05 C32.5,-60.16 32.34,-61.21 32.19,-62.1899 C30.94,-70.48 31.26,-77.75 33.14,-83.8"/>
<path class="Clef" transform="matrix(2.12598,0,0,2.12598,113.386,2143.7)" d="M63.35,-5.86992 C62.12,-11.3 59.48,-15.1199 58.7,-16.16 C55.51,-20.43 51.5,-23.28 46.81,-24.63 C43.7,-25.5199 40.7,-25.63 38.28,-25.45 C37.24,-31.46 36.24,-37.3399 35.33,-42.7899 C40.78,-48.96 44.4,-54.76 46.68,-59.06 C50.15,-65.6399 51.3,-70.2199 51.35,-70.4199 C53.07,-75.63 53.43,-83.33 52.33,-91.5399 C51.32,-99.0899 49.23,-105.8 46.88,-109.05 C45.85,-110.48 44.8,-111.21 43.76,-111.21 C42.54,-111.21 40.03,-109.97 37.14,-107.2 C34.84,-105 31.57,-101.11 29.01,-95.1 C26.01,-88.0399 25.8,-78.55 26.15,-71.83 C26.53,-64.56 27.64,-58.8699 27.65,-58.8199 C27.67,-58.73 27.93,-57.23 28.38,-54.66 C28.15,-54.43 27.91,-54.21 27.66,-53.9699 C26.62,-52.9699 25.43,-51.83 24.05,-50.45 C23.19,-49.5899 22.24,-48.68 21.24,-47.71 C12.79,-39.5699 0,-27.25 0,-8.1 C0,-3.4 0.9,1.02002 2.67998,5.03008 C4.27002,8.63008 6.57002,11.9101 9.5,14.7801 C17.23,22.3301 27.82,25.54 34.88,25.3801 C37.83,25.3101 40.46,25.07 42.85,24.62 C44.68,34.22 45.82,41.25 45.86,46.59 C45.9,53.1 44.25,57.07 40.35,59.84 C37.92,61.57 35.11,62.52 32.01,62.67 C29.42,62.79 27.16,62.32 25.73,61.9101 L25.72,61.9101 C25.72,61.9101 25.43,61.8301 25.42,61.6301 C25.41,61.45 25.76,61.4 25.77,61.4 L25.79,61.4 C27.71,60.9601 31.28,59.7301 33.64,56.4301 C35.44,53.9101 36.31,49.29 34.47,45.35 C33.36,42.9601 30.85,40.0101 25.23,39.5601 C22.74,39.3601 20.47,39.87 18.47,41.07 C16.66,42.15 15.16,43.79 14.11,45.79 C11.65,50.49 12.11,56.22 15.24,60.0601 C18.2,63.6801 22.82,65.99 28.25,66.57 C29.1,66.6601 29.95,66.7 30.8,66.7 C35.23,66.7 39.63,65.5 43.2,63.29 C46.86,60.72 48.98,56.74 49.66,51.1101 C50.22,46.47 49.83,40.5601 48.43,32.49 C48.07,30.4 47.53,27.37 46.87,23.6101 C52.62,21.69 56.78,18.12 60.55,12.27 C63.84,6.53008 64.78,0.430078 63.35,-5.86992 M29.14,20.32 C24.5,19.1 20.07,16.6 16.31,13.1 C15,11.87 13.13,9.7 11.66,6.31006 C10.29,3.15 9.62998,-0.27998 9.67998,-3.86992 C9.75,-8.55996 11.06,-13.38 13.57,-18.1699 C16.49,-23.75 21.05,-29.28 27.11,-34.61 C28.56,-35.8899 29.93,-37.1699 31.22,-38.45 C31.98,-34.1899 32.81,-29.5 33.69,-24.6199 C29.84,-23.35 25.09,-20.2 21.98,-14.55 C18.44,-7.97998 18.58,-2.45996 19.31,1.02002 C20.25,5.48008 22.78,9.24004 26.24,11.3301 C27.17,11.89 31.3,14.02 33.14,13.44 C33.51,13.32 33.78,13.1 33.92,12.77 C34.43,11.6 33.41,10.9601 31.85,10 C31.25,9.63008 30.58,9.21006 29.85,8.68008 C26.53,6.19004 25.08,1.74004 26.15,-2.63994 C26.73,-5.03994 28.01,-7.2 29.85,-8.9 C31.52,-10.45 33.56,-11.55 35.94,-12.1899 C37.98,-0.95 40.04,10.2 41.68,18.5601 C41.81,19.25 41.95,19.92 42.08,20.59 C37.7,21.52 33.35,21.4301 29.14,20.32 M40.46,-12.86 C50.81,-13.33 55.08,-5.88994 55.97,-1.05996 C56.44,1.47002 56.43,5.91006 54.89,10.12 C53.72,13.3 51.26,17.37 46.13,19.4301 C46.06,19.0101 45.98,18.5801 45.9,18.15 C44.36,9.38008 42.42,-1.60996 40.46,-12.86 M33.14,-83.8 C34.92,-89.5399 37.66,-92.7899 39.65,-94.5199 C41.4,-96.0399 43.05,-96.75 43.97,-96.75 C44.11,-96.75 44.23,-96.73 44.33,-96.7 C44.79,-96.56 45.32,-95.9899 45.79,-95.1199 C48.1,-90.83 47.36,-84.1199 46.02,-79.68 C44.39,-74.28 41.47,-68.66 32.67,-59.05 C32.5,-60.16 32.34,-61.21 32.19,-62.1899 C30.94,-70.48 31.26,-77.75 33.14,-83.8"/>
<path class="KeySig" transform="matrix(2.12598,0,0,2.12598,355.715,522.638)" d="M23.3,-10.6 C23.9,-10.7 24.4,-11.4 24.4,-12 L24.4,-17.9 C24.4,-18.7 23.8,-19.3 23,-19.3 L22.8,-19.3 L19.5,-18.6 L19.5,-33.5 L16.7,-33.5 L16.7,-18 L7.8,-16.2 L7.8,-30.3 L5,-30.3 L5,-15.6 L1.1,-14.8 C0.5,-14.7 0,-14 0,-13.4 L0,-13.2 L0,-7.4 L0,-7.6 C0,-6.8 0.6,-6.2 1.4,-6.2 L1.7,-6.2 L5,-6.9 L5,9.6 L1.1,10.4 C0.5,10.5 0,11.2 0,11.8 L0,17.6 C0,18.4 0.6,19 1.4,19 L1.7,19 L5,18.3 L5,33.2 L7.8,33.2 L7.8,17.7 L16.7,15.9 L16.7,30 L19.5,30 L19.5,15.3 L23.3,14.6 C23.9,14.5 24.4,13.8 24.4,13.2 L24.4,7.3 C24.4,6.5 23.8,5.9 23,5.9 L22.8,5.9 L19.5,6.6 L19.5,-9.9 L23.3,-10.6 M7.8,9.1 L7.8,-7.5 L16.7,-9.3 L16.7,7.2 L7.8,9.1 "/>
<path class="KeySig" transform="matrix(2.12598,0,0,2.12598,302.565,442.913)" d="M23.3,-10.6 C23.9,-10.7 24.4,-11.4 24.4,-12 L24.4,-17.9 C24.4,-18.7 23.8,-19.3 23,-19.3 L22.8,-19.3 L19.5,-18.6 L19.5,-33.5 L16.7,-33.5 L16.7,-18 L7.8,-16.2 L7.8,-30.3 L5,-30.3 L5,-15.6 L1.1,-14.8 C0.5,-14.7 0,-14 0,-13.4 L0,-13.2 L0,-7.4 L0,-7.6 C0,-6.8 0.6,-6.2 1.4,-6.2 L1.7,-6.2 L5,-6.9 L5,9.6 L1.1,10.4 C0.5,10.5 0,11.2 0,11.8 L0,17.6 C0,18.4 0.6,19 1.4,19 L1.7,19 L5,18.3 L5,33.2 L7.8,33.2 L7.8,17.7 L16.7,15.9 L16.7,30 L19.5,30 L19.5,15.3 L23.3,14.6 C23.9,14.5 24.4,13.8 24.4,13.2 L24.4,7.3 C24.4,6.5 23.8,5.9 23,5.9 L22.8,5.9 L19.5,6.6 L19.5,-9.9 L23.3,-10.6 M7.8,9.1 L7.8,-7.5 L16.7,-9.3 L16.7,7.2 L7.8,9.1 "/>
<path class="KeySig" transform="matrix(2.12598,0,0,2.12598,355.715,1293.31)" d="M23.3,-10.6 C23.9,-10.7 24.4,-11.4 24.4,-12 L24.4,-17.9 C24.4,-18.7 23.8,-19.3 23,-19.3 L22.8,-19.3 L19.5,-18.6 L19.5,-33.5 L16.7,-33.5 L16.7,-18 L7.8,-16.2 L7.8,-30.3 L5,-30.3 L5,-15.6 L1.1,-14.8 C0.5,-14.7 0,-14 0,-13.4 L0,-13.2 L0,-7.4 L0,-7.6 C0,-6.8 0.6,-6.2 1.4,-6.2 L1.7,-6.2 L5,-6.9 L5,9.6 L1.1,10.4 C0.5,10.5 0,11.2 0,11.8 L0,17.6 C0,18.4 0.6,19 1.4,19 L1.7,19 L5,18.3 L5,33.2 L7.8,33.2 L7.8,17.7 L16.7,15.9 L16.7,30 L19.5,30 L19.5,15.3 L23.3,14.6 C23.9,14.5 24.4,13.8 24.4,13.2 L24.4,7.3 C24.4,6.5 23.8,5.9 23,5.9 L22.8,5.9 L19.5,6.6 L19.5,-9.9 L23.3,-10.6 M7.8,9.1 L7.8,-7.5 L16.7,-9.3 L16.7,7.2 L7.8,9.1 "/>
<path class="KeySig" transform="matrix(2.12598,0,0,2.12598,302.565,1213.58)" d="M23.3,-10.6 C23.9,-10.7 24.4,-11.4 24.4,-12 L24.4,-17.9 C24.4,-18.7 23.8,-19.3 23,-19.3 L22.8,-19.3 L19.5,-18.6 L19.5,-33.5 L16.7,-33.5 L16.7,-18 L7.8,-16.2 L7.8,-30.3 L5,-30.3 L5,-15.6 L1.1,-14.8 C0.5,-14.7 0,-14 0,-13.4 L0,-13.2 L0,-7.4 L0,-7.6 C0,-6.8 0.6,-6.2 1.4,-6.2 L1.7,-6.2 L5,-6.9 L5,9.6 L1.1,10.4 C0.5,10.5 0,11.2 0,11.8 L0,17.6 C0,18.4 0.6,19 1.4,19 L1.7,19 L5,18.3 L5,33.2 L7.8,33.2 L7.8,17.7 L16.7,15.9 L16.7,30 L19.5,30 L19.5,15.3 L23.3,14.6 C23.9,14.5 24.4,13.8 24.4,13.2 L24.4,7.3 C24.4,6.5 23.8,5.9 23,5.9 L22.8,5.9 L19.5,6.6 L19.5,-9.9 L23.3,-10.6 M7.8,9.1 L7.8,-7.5 L16.7,-9.3 L16.7,7.2 L7.8,9.1 "/>
<path class="KeySig" transform="matrix(2.12598,0,0,2.12598,355.715,2063.98)" d="M23.3,-10.6 C23.9,-10.7 24.4,-11.4 24.4,-12 L24.4,-17.9 C24.4,-18.7 23.8,-19.3 23,-19.3 L22.8,-19.3 L19.5,-18.6 L19.5,-33.5 L16.7,-33.5 L16.7,-18 L7.8,-16.2 L7.8,-30.3 L5,-30.3 L5,-15.6 L1.1,-14.8 C0.5,-14.7 0,-14 0,-13.4 L0,-13.2 L0,-7.4 L0,-7.6 C0,-6.8 0.6,-6.2 1.4,-6.2 L1.7,-6.2 L5,-6.9 L5,9.6 L1.1,10.4 C0.5,10.5 0,11.2 0,11.8 L0,17.6 C0,18.4 0.6,19 1.4,19 L1.7,19 L5,18.3 L5,33.2 L7.8,33.2 L7.8,17.7 L16.7,15.9 L16.7,30 L19.5,30 L19.5,15.3 L23.3,14.6 C23.9,14.5 24.4,13.8 24.4,13.2 L24.4,7.3 C24.4,6.5 23.8,5.9 23,5.9 L22.8,5.9 L19.5,6.6 L19.5,-9.9 L23.3,-10.6 M7.8,9.1 L7.8,-7.5 L16.7,-9.3 L16.7,7.2 L7.8,9.1 "/>
<path class="KeySig" transform="matrix(2.12598,0,0,2.12598,302.565,1984.25)" d="M23.3,-10.6 C23.9,-10.7 24.4,-11.4 24.4,-12 L24.4,-17.9 C24.4,-18.7 23.8,-19.3 23,-19.3 L22.8,-19.3 L19.5,-18.6 L19.5,-33.5 L16.7,-33.5 L16.7,-18 L7.8,-16.2 L7.8,-30.3 L5,-30.3 L5,-15.6 L1.1,-14.8 C0.5,-14.7 0,-14 0,-13.4 L0,-13.2 L0,-7.4 L0,-7.6 C0,-6.8 0.6,-6.2 1.4,-6.2 L1.7,-6.2 L5,-6.9 L5,9.6 L1.1,10.4 C0.5,10.5 0,11.2 0,11.8 L0,17.6 C0,18.4 0.6,19 1.4,19 L1.7,19 L5,18.3 L5,33.2 L7.8,33.2 L7.8,17.7 L16.7,15.9 L16.7,30 L19.5,30 L19.5,15.3 L23.3,14.6 C23.9,14.5 24.4,13.8 24.4,13.2 L24.4,7.3 C24.4,6.5 23.8,5.9 23,5.9 L22.8,5.9 L19.5,6.6 L19.5,-9.9 L23.3,-10.6 M7.8,9.1 L7.8,-7.5 L16.7,-9.3 L16.7,7.2 L7.8,9.1 "/>
<path class="TimeSig" transform="matrix(2.12598,0,0,2.12598,464.821,497.126)" d="M34.2,3.9 C33.4,6.1 31.4,13.3 26.5,13.3 C20,13.3 18.6,9.3 13.2,9.3 C12.4,9.3 11.6,9.4 10.6,9.6 C10.6,9.6 13.1,5.8 23.7,2.5 C34.3,-0.8 37,-6 37,-12 C37,-16.2 35.1,-24.5 20,-24.5 C4.9,-24.5 2.1,-15.4 2.1,-10.8 C2.1,-6.7 5.5,-3.4 9.6,-3.4 C13.7,-3.4 17,-6.7 17,-10.8 C17,-13.6 15,-16.7 12.4,-17.7 C12.1,-17.8 11.7,-18.3 11.7,-18.8 C11.7,-19.4 12.2,-20.1 14,-20.6 C14.5,-20.8 15.9,-21.1 17.4,-21.1 C18.8,-21.1 20.4,-20.8 21.6,-20 C23.5,-18.8 24.2,-17 24.2,-12.5 C24.2,-0.8 10.3,1.7 4.5,10.4 C4.5,10.4 1.5,14.6 1.5,19.3 C1.5,24 3.9,24.3 5.1,24.3 C6.7,24.3 8.4,23 8.4,21.2 C8.4,20.8 8.3,20.4 8.1,19.9 C7.5,18.5 7.3,17.4 7.3,16.6 C7.3,16.3 7.3,16 7.4,15.7 C7.5,15.1 8.3,14.1 10.7,14.1 C13.6,14.1 14.7,17.5 16.5,20.1 C18.3,22.7 21.1,24.3 24.3,24.3 C27.5,24.3 31.8,22 33.6,18.3 C35.4,14.6 37.7,7.1 37.7,4.4 C37.7,3.1 36.9,2.5 36,2.5 C35.3,2.5 34.6,2.9 34.2,3.9"/>
<path class="TimeSig" transform="matrix(2.12598,0,0,2.12598,457.812,602.08)" d="M3.59004,12.65 L20.77,12.65 L20.77,20.07 L12.54,20.07 C11.7601,20.07 11.1301,20.7 11.1301,21.48 L11.1301,23.39 C11.1301,24.17 11.7601,24.8 12.54,24.8 L42.79,24.8 C43.57,24.8 44.2,24.17 44.2,23.39 L44.2,21.48 C44.2,20.7 43.57,20.07 42.79,20.07 L33.85,20.07 L33.85,12.65 L42.79,12.65 C43.57,12.65 44.2,12.02 44.2,11.24 L44.2,9.32998 C44.2,8.55 43.57,7.92002 42.79,7.92002 L33.85,7.92002 L33.85,-8.04004 C33.85,-8.57998 33.55,-9.05996 33.07,-9.3 L31.8601,-9.9 C31.3301,-10.16 30.7,-10.07 30.27,-9.67002 L21.22,-1.35 C20.9301,-1.07998 20.7601,-0.709961 20.7601,-0.309961 L20.7601,7.92002 L9.25,7.92002 C9.25,7.92002 20.37,-4.10996 32.2101,-19.88 C33.0801,-21.03 32.5801,-22.08 32.39,-22.27 L30.22,-24.48 C29.95,-24.74 29.59,-24.89 29.22,-24.89 C28.62,-24.89 15.07,-24.87 14.35,-24.89 C13.6301,-24.91 13.09,-24.29 13.02,-23.67 C13.02,-23.67 12.4801,-16.31 9.88008,-8.17998 C7.28008,-0.0599609 4.34004,4.92002 1.68008,8.55 C1.68008,8.55 1.14004,9.54004 1.5,10.28 C1.85,11.03 2.48008,12.12 2.48008,12.12 C2.48008,12.12 2.74004,12.65 3.59004,12.65"/>
<path class="Rest" transform="matrix(2.12598,0,0,2.12598,836.241,549.212)" d="M26.73,-20.26 C25.9899,-20.5399 25.31,-20.21 24.98,-19.6 C24.65,-18.9899 21.4699,-13.06 17.0399,-9.8 C15.65,-8.77998 14.0699,-8.13994 12.5,-7.80996 C13.6199,-9.06992 14.3,-10.73 14.3,-12.55 C14.3,-16.5 11.1,-19.7 7.15,-19.7 C3.2,-19.7 0,-16.5 0,-12.55 C0,-9.53994 1.86992,-6.95996 4.50996,-5.90996 C6.03994,-5.17998 7.95,-4.73994 10,-4.73994 C12.85,-4.73994 15.96,-5.56992 18.6699,-7.55996 C19.93,-8.48994 21.13,-9.67998 22.21,-10.9399 L10.8199,24.69 L13.46,25.54 L27.53,-18.55 C27.76,-19.28 27.4699,-19.9699 26.73,-20.26"/>
<path class="Rest" transform="matrix(2.12598,0,0,2.12598,2357.91,549.212)" d="M26.73,-20.26 C25.9899,-20.5399 25.31,-20.21 24.98,-19.6 C24.65,-18.9899 21.4699,-13.06 17.0399,-9.8 C15.65,-8.77998 14.0699,-8.13994 12.5,-7.80996 C13.6199,-9.06992 14.3,-10.73 14.3,-12.55 C14.3,-16.5 11.1,-19.7 7.15,-19.7 C3.2,-19.7 0,-16.5 0,-12.55 C0,-9.53994 1.86992,-6.95996 4.50996,-5.90996 C6.03994,-5.17998 7.95,-4.73994 10,-4.73994 C12.85,-4.73994 15.96,-5.56992 18.6699,-7.55996 C19.93,-8.48994 21.13,-9.67998 22.21,-10.9399 L10.8199,24.69 L13.46,25.54 L27.53,-18.55 C27.76,-19.28 27.4699,-19.9699 26.73,-20.26"/>
<path class="Rest" transform="matrix(2.12598,0,0,2.12598,3768.67,549.212)" d="M26.73,-20.26 C25.9899,-20.5399 25.31,-20.21 24.98,-19.6 C24.65,-18.9899 21.4699,-13.06 17.0399,-9.8 C15.65,-8.77998 14.0699,-8.13994 12.5,-7.80996 C13.6199,-9.06992 14.3,-10.73 14.3,-12.55 C14.3,-16.5 11.1,-19.7 7.15,-19.7 C3.2,-19.7 0,-16.5 0,-12.55 C0,-9.53994 1.86992,-6.95996 4.50996,-5.90996 C6.03994,-5.17998 7.95,-4.73994 10,-4.73994 C12.85,-4.73994 15.96,-5.56992 18.6699,-7.55996 C19.93,-8.48994 21.13,-9.67998 22.21,-10.9399 L10.8199,24.69 L13.46,25.54 L27.53,-18.55 C27.76,-19.28 27.4699,-19.9699 26.73,-20.26"/>
<path class="Rest" transform="matrix(2.12598,0,0,2.12598,1442.6,1319.88)" d="M26.73,-20.26 C25.9899,-20.5399 25.31,-20.21 24.98,-19.6 C24.65,-18.9899 21.4699,-13.06 17.0399,-9.8 C15.65,-8.77998 14.0699,-8.13994 12.5,-7.80996 C13.6199,-9.06992 14.3,-10.73 14.3,-12.55 C14.3,-16.5 11.1,-19.7 7.15,-19.7 C3.2,-19.7 0,-16.5 0,-12.55 C0,-9.53994 1.86992,-6.95996 4.50996,-5.90996 C6.03994,-5.17998 7.95,-4.73994 10,-4.73994 C12.85,-4.73994 15.96,-5.56992 18.6699,-7.55996 C19.93,-8.48994 21.13,-9.67998 22.21,-10.9399 L10.8199,24.69 L13.46,25.54 L27.53,-18.55 C27.76,-19.28 27.4699,-19.9699 26.73,-20.26"/>
<path class="Rest" transform="matrix(2.12598,0,0,2.12598,2649.25,1319.88)" d="M26.73,-20.26 C25.9899,-20.5399 25.31,-20.21 24.98,-19.6 C24.65,-18.9899 21.4699,-13.06 17.0399,-9.8 C15.65,-8.77998 14.0699,-8.13994 12.5,-7.80996 C13.6199,-9.06992 14.3,-10.73 14.3,-12.55 C14.3,-16.5 11.1,-19.7 7.15,-19.7 C3.2,-19.7 0,-16.5 0,-12.55 C0,-9.53994 1.86992,-6.95996 4.50996,-5.90996 C6.03994,-5.17998 7.95,-4.73994 10,-4.73994 C12.85,-4.73994 15.96,-5.56992 18.6699,-7.55996 C19.93,-8.48994 21.13,-9.67998 22.21,-10.9399 L10.8199,24.69 L13.46,25.54 L27.53,-18.55 C27.76,-19.28 27.4699,-19.9699 26.73,-20.26"/>
<path class="Rest" transform="matrix(2.12598,0,0,2.12598,1170.77,2090.55)" d="M26.73,-20.26 C25.9899,-20.5399 25.31,-20.21 24.98,-19.6 C24.65,-18.9899 21.4699,-13.06 17.0399,-9.8 C15.65,-8.77998 14.0699,-8.13994 12.5,-7.80996 C13.6199,-9.06992 14.3,-10.73 14.3,-12.55 C14.3,-16.5 11.1,-19.7 7.15,-19.7 C3.2,-19.7 0,-16.5 0,-12.55 C0,-9.53994 1.86992,-6.95996 4.50996,-5.90996 C6.03994,-5.17998 7.95,-4.73994 10,-4.73994 C12.85,-4.73994 15.96,-5.56992 18.6699,-7.55996 C19.93,-8.48994 21.13,-9.67998 22.21,-10.9399 L10.8199,24.69 L13.46,25.54 L27.53,-18.55 C27.76,-19.28 27.4699,-19.9699 26.73,-20.26"/>
<path class="Rest" transform="matrix(2.12598,0,0,2.12598,3352.99,2090.55)" d="M26.73,-20.26 C25.9899,-20.5399 25.31,-20.21 24.98,-19.6 C24.65,-18.9899 21.4699,-13.06 17.0399,-9.8 C15.65,-8.77998 14.0699,-8.13994 12.5,-7.80996 C13.6199,-9.06992 14.3,-10.73 14.3,-12.55 C14.3,-16.5 11.1,-19.7 7.15,-19.7 C3.2,-19.7 0,-16.5 0,-12.55 C0,-9.53994 1.86992,-6.95996 4.50996,-5.90996 C6.03994,-5.17998 7.95,-4.73994 10,-4.73994 C12.85,-4.73994 15.96,-5.56992 18.6699,-7.55996 C19.93,-8.48994 21.13,-9.67998 22.21,-10.9399 L10.8199,24.69 L13.46,25.54 L27.53,-18.55 C27.76,-19.28 27.4699,-19.9699 26.73,-20.26"/>
<path class="Rest" transform="matrix(2.12598,0,0,2.12598,3917.96,2037.4)" d="M31.1,-0.5 L1.4,-0.5 C0.6,-0.5 0,0.1 0,0.9 L0,11.7 C0,12.5 0.6,13.1 1.4,13.1 L31.1,13.1 C31.9,13.1 32.5,12.5 32.5,11.7 L32.5,0.9 C32.5,0.1 31.9,-0.5 31.1,-0.5"/>
<path class="Beam" fill-rule="evenodd" d="M965.82,628.759 L1052.65,643.006 L1052.65,669.936 L965.82,655.689 L965.82,628.759 "/>
<path class="Beam" fill-rule="evenodd" d="M965.82,588.897 L1052.65,603.144 L1052.65,630.074 L965.82,615.827 L965.82,588.897 "/>
<path class="Beam" fill-rule="evenodd" d="M1303.5,682.066 L1545.91,695.681 L1545.91,722.298 L1303.5,708.682 L1303.5,682.066 "/>
<path class="Beam" fill-rule="evenodd" d="M1449.08,650.38 L1545.91,655.819 L1545.91,682.436 L1449.08,676.997 L1449.08,650.38 "/>
<path class="Beam" fill-rule="evenodd" d="M1631.04,735.215 L1873.44,748.831 L1873.44,775.448 L1631.04,761.832 L1631.04,735.215 "/>
<path class="Beam" fill-rule="evenodd" d="M1776.61,703.53 L1873.44,708.969 L1873.44,735.585 L1776.61,730.146 L1776.61,703.53 "/>
<path class="Beam" fill-rule="evenodd" d="M2095.06,761.213 L2232.33,802.849 L2232.33,830.619 L2095.06,788.983 L2095.06,761.213 "/>
<path class="Beam" fill-rule="evenodd" d="M2489.34,628.764 L2577.32,642.997 L2577.32,669.918 L2489.34,655.684 L2489.34,628.764 "/>
<path class="Beam" fill-rule="evenodd" d="M2489.34,588.902 L2577.32,603.135 L2577.32,630.055 L2489.34,615.822 L2489.34,588.902 "/>
<path class="Beam" fill-rule="evenodd" d="M2798.94,682.066 L3041.34,695.681 L3041.34,722.298 L2798.94,708.682 L2798.94,682.066 "/>
<path class="Beam" fill-rule="evenodd" d="M2944.51,650.38 L3041.34,655.819 L3041.34,682.436 L2944.51,676.997 L2944.51,650.38 "/>
<path class="Beam" fill-rule="evenodd" d="M3126.48,735.215 L3368.88,748.831 L3368.88,775.448 L3126.48,761.832 L3126.48,735.215 "/>
<path class="Beam" fill-rule="evenodd" d="M3272.05,703.53 L3368.88,708.969 L3368.88,735.585 L3272.05,730.146 L3272.05,703.53 "/>
<path class="Beam" fill-rule="evenodd" d="M3898.25,628.759 L3985.08,643.006 L3985.08,669.936 L3898.25,655.689 L3898.25,628.759 "/>
<path class="Beam" fill-rule="evenodd" d="M3898.25,588.897 L3985.08,603.144 L3985.08,630.074 L3898.25,615.827 L3898.25,588.897 "/>
<path class="Beam" fill-rule="evenodd" d="M540.459,1452.72 L742.331,1466.41 L742.331,1493.04 L540.459,1479.36 L540.459,1452.72 "/>
<path class="Beam" fill-rule="evenodd" d="M656.777,1420.75 L742.331,1426.55 L742.331,1453.18 L656.777,1447.38 L656.777,1420.75 "/>
<path class="Beam" fill-rule="evenodd" d="M816.193,1505.87 L1018.06,1519.56 L1018.06,1546.19 L816.193,1532.51 L816.193,1505.87 "/>
<path class="Beam" fill-rule="evenodd" d="M932.51,1473.9 L1018.06,1479.7 L1018.06,1506.33 L932.51,1500.53 L932.51,1473.9 "/>
<path class="Beam" fill-rule="evenodd" d="M1239.68,1531.49 L1346.99,1573.65 L1346.99,1602.2 L1239.68,1560.04 L1239.68,1531.49 "/>
<path class="Beam" fill-rule="evenodd" d="M1544.05,1399.42 L1629.61,1413.68 L1629.61,1440.63 L1544.05,1426.36 L1544.05,1399.42 "/>
<path class="Beam" fill-rule="evenodd" d="M1544.05,1359.56 L1629.61,1373.82 L1629.61,1400.76 L1544.05,1386.5 L1544.05,1359.56 "/>
<path class="Beam" fill-rule="evenodd" d="M1851.23,1452.72 L2053.1,1466.41 L2053.1,1493.04 L1851.23,1479.36 L1851.23,1452.72 "/>
<path class="Beam" fill-rule="evenodd" d="M1967.54,1420.75 L2053.1,1426.55 L2053.1,1453.18 L1967.54,1447.38 L1967.54,1420.75 "/>
<path class="Beam" fill-rule="evenodd" d="M2126.96,1505.63 L2328.83,1464.58 L2328.83,1491.7 L2126.96,1532.75 L2126.96,1505.63 "/>
<path class="Beam" fill-rule="evenodd" d="M2243.28,1442.12 L2328.83,1424.72 L2328.83,1451.84 L2243.28,1469.24 L2243.28,1442.12 "/>
<path class="Beam" fill-rule="evenodd" d="M2748.05,1479.33 L2852.7,1479.33 L2852.7,1505.9 L2748.05,1505.9 L2748.05,1479.33 "/>
<path class="Beam" fill-rule="evenodd" d="M3158.97,1545.77 L3263.62,1545.77 L3263.62,1572.34 L3158.97,1572.34 L3158.97,1545.77 "/>
<path class="Beam" fill-rule="evenodd" d="M3356.57,1505.9 L3461.22,1505.9 L3461.22,1532.48 L3356.57,1532.48 L3356.57,1505.9 "/>
<path class="Beam" fill-rule="evenodd" d="M3682.84,1572.34 L3787.48,1572.34 L3787.48,1598.92 L3682.84,1598.92 L3682.84,1572.34 "/>
<path class="Beam" fill-rule="evenodd" d="M3880.44,1505.9 L3985.08,1505.9 L3985.08,1532.48 L3880.44,1532.48 L3880.44,1505.9 "/>
<path class="Beam" fill-rule="evenodd" d="M540.459,2343.01 L647.018,2343.01 L647.018,2369.59 L540.459,2369.59 L540.459,2343.01 "/>
<path class="Beam" fill-rule="evenodd" d="M741.883,2250 L848.442,2250 L848.442,2276.57 L741.883,2276.57 L741.883,2250 "/>
<path class="Beam" fill-rule="evenodd" d="M1271.48,2250 L1378.04,2250 L1378.04,2276.57 L1271.48,2276.57 L1271.48,2250 "/>
<path class="Beam" fill-rule="evenodd" d="M1599.66,2316.44 L1706.22,2316.44 L1706.22,2343.01 L1599.66,2343.01 L1599.66,2316.44 "/>
<path class="Beam" fill-rule="evenodd" d="M1801.08,2276.57 L1907.64,2276.57 L1907.64,2303.15 L1801.08,2303.15 L1801.08,2276.57 "/>
<path class="Beam" fill-rule="evenodd" d="M2129.26,2343.01 L2235.82,2343.01 L2235.82,2369.59 L2129.26,2369.59 L2129.26,2343.01 "/>
<path class="Beam" fill-rule="evenodd" d="M2330.68,2223.31 L2437.24,2237.37 L2437.24,2264.17 L2330.68,2250.11 L2330.68,2223.31 "/>
<path class="Beam" fill-rule="evenodd" d="M2658.86,2263.17 L2765.42,2277.23 L2765.42,2304.03 L2658.86,2289.98 L2658.86,2263.17 "/>
<path class="Beam" fill-rule="evenodd" d="M2860.28,2316.32 L2966.84,2330.38 L2966.84,2357.18 L2860.28,2343.13 L2860.28,2316.32 "/>
<path class="Beam" fill-rule="evenodd" d="M3466.98,2250 L3586.82,2250 L3586.82,2276.57 L3466.98,2276.57 L3466.98,2250 "/>
<path class="Hook" transform="matrix(2.12598,0,0,2.12598,2550.45,1452.76)" d="M2.5,0.4 C2.5,0.2 3.4,-3.2 3.5,-3.5 C3.6,-3.9 5.4,-9.6 9.1,-15.3 C11.8,-19.5 21.3,-31.8 21,-31.8 C21,-31.8 28.4,-41.3 28.9,-54.2 L28.9,-56.5 C28.9,-62.6 28.1,-71.2 24.6,-79.9 C24.2,-80.9 23.8,-81.9 22.7,-81.5 C21.6,-81.1 21.9,-79.9 22.2,-78.8 C24,-71.8 25,-64.6 25,-57.4 C25,-49 22,-44.8 20.2,-41.7 C13.6,-30.6 5,-25.2 0.8,-23.8 C0.3,-23.6 0,-23.2 0,-22.7 L0,-16.5 L0,-0.1 C0,0.6 0.6,1.2 1.3,1.2 C1.8,1.2 2.4,0.8 2.5,0.4"/>
<path class="Hook" transform="matrix(2.12598,0,0,2.12598,1070.06,2356.3)" d="M2.5,0.4 C2.5,0.2 3.4,-3.2 3.5,-3.5 C3.6,-3.9 5.4,-9.6 9.1,-15.3 C11.8,-19.5 21.3,-31.8 21,-31.8 C21,-31.8 28.4,-41.3 28.9,-54.2 L28.9,-56.5 C28.9,-62.6 28.1,-71.2 24.6,-79.9 C24.2,-80.9 23.8,-81.9 22.7,-81.5 C21.6,-81.1 21.9,-79.9 22.2,-78.8 C24,-71.8 25,-64.6 25,-57.4 C25,-49 22,-44.8 20.2,-41.7 C13.6,-30.6 5,-25.2 0.8,-23.8 C0.3,-23.6 0,-23.2 0,-22.7 L0,-16.5 L0,-0.1 C0,0.6 0.6,1.2 1.3,1.2 C1.8,1.2 2.4,0.8 2.5,0.4"/>
<path class="Hook" transform="matrix(2.12598,0,0,2.12598,3280.92,2037.4)" d="M3.5,3.5 C3.4,3.2 2.5,-0.3 2.5,-0.5 C2.4,-0.9 1.8,-1.2 1.3,-1.2 C0.6,-1.2 0,-0.6 0,0.1 L0,16.5 L0,22.7 C0,23.2 0.4,23.6 0.8,23.8 C5,25.1 13.7,30.6 20.2,41.7 C22,44.8 24.9,49 24.9,57.4 C24.9,64.6 23.8,72.2 22,79.2 C21.7,80.3 21.4,81.3 22.5,81.7 C23.6,82.1 24,81.3 24.4,80.3 C28,71.5 28.9,62.3 28.9,56.1 L28.9,54.2 C28.4,41.3 21,31.8 21,31.8 C21.3,31.8 11.8,19.5 9.1,15.3 C5.4,9.6 3.6,3.9 3.5,3.5"/>
<path class="Marker" d="M1195.18,263.652 C1200.14,274.921 1222.3,288.482 1223.44,288.864 C1224.02,289.246 1224.4,289.628 1224.4,290.201 C1224.4,290.774 1224.02,291.538 1223.44,292.684 C1222.3,294.785 1200.33,334.322 1200.33,334.322 C1200.14,334.895 1199.95,335.659 1199.95,336.232 C1199.95,337.76 1200.71,339.288 1202.05,340.052 C1202.82,340.625 1203.39,340.816 1204.15,340.816 C1205.68,340.816 1207.21,339.861 1207.97,338.524 C1207.97,338.524 1231.66,295.74 1232.23,294.785 C1232.23,294.976 1233.38,294.021 1233.95,294.021 C1236.24,294.403 1266.8,303.38 1266.8,317.896 C1266.8,324.008 1263.17,327.828 1258.21,328.592 C1258.01,328.592 1257.44,328.783 1257.25,328.783 C1254.39,328.783 1251.71,326.682 1251.71,321.907 L1251.71,320.188 C1251.71,314.458 1247.89,310.256 1243.69,310.256 C1242.93,310.256 1242.35,310.256 1241.78,310.447 C1236.05,311.784 1230.89,314.267 1230.89,320.379 C1230.89,320.952 1230.89,321.716 1231.08,322.48 C1232.23,328.974 1239.11,337.76 1249.42,337.76 C1263.94,337.76 1276.16,324.39 1276.16,310.065 C1276.16,308.728 1275.97,307.2 1275.78,305.672 C1273.49,288.864 1249.42,275.112 1247.51,274.348 C1245.79,273.202 1245.03,272.629 1245.03,271.865 C1245.03,271.483 1245.22,271.292 1245.22,270.91 C1245.98,269.764 1269.67,226.98 1269.67,226.98 C1270.24,226.216 1270.43,225.643 1270.43,224.879 C1270.43,223.351 1269.47,221.823 1268.14,221.059 C1267.37,220.868 1266.61,220.677 1266.04,220.677 C1264.51,220.677 1262.98,221.441 1262.22,222.778 C1262.22,222.778 1237.96,266.708 1237,268.045 C1236.62,268.809 1236.24,269.191 1235.67,269.191 C1235.29,269.191 1234.71,269 1234.14,268.809 C1232.8,268.236 1209.69,259.45 1205.68,252.574 C1204.73,250.855 1203.58,247.608 1203.58,244.552 C1203.58,240.35 1205.49,236.148 1211.79,235.002 L1212.75,235.002 C1213.7,235.002 1214.66,235.384 1215.23,236.912 L1215.42,238.058 C1216.57,242.26 1218.86,251.237 1226.69,251.237 C1232.99,251.237 1237.2,247.608 1237.2,240.923 C1237.2,228.126 1227.07,224.115 1215.42,224.115 C1204.73,224.115 1192.69,237.294 1192.69,252.383 C1192.69,256.012 1193.46,259.832 1195.18,263.652 M1264.32,274.157 C1269.09,274.157 1272.91,270.146 1272.91,265.371 C1272.91,260.596 1269.09,256.776 1264.32,256.776 C1259.54,256.776 1255.53,260.596 1255.53,265.371 C1255.53,270.146 1259.54,274.157 1264.32,274.157 M1204.73,304.908 C1209.69,304.908 1213.51,301.088 1213.51,296.313 C1213.51,291.538 1209.69,287.527 1204.73,287.527 C1200.14,287.527 1196.13,291.538 1196.13,296.313 C1196.13,301.088 1200.14,304.908 1204.73,304.908"/>
<path class="Jump" d="M3920.48,1877.95 L3959.79,1877.95 C3970.2,1877.95 3978.16,1876.31 3984.36,1872.8 C3996.17,1866.13 4002.73,1852.8 4002.73,1835.25 C4002.73,1819.1 3996.88,1806.46 3986.11,1799.44 C3979.68,1795.35 3971.02,1793.48 3957.68,1793.48 L3920.48,1793.48 L3920.48,1798.98 L3922.7,1798.98 C3929.25,1799.09 3931.47,1799.44 3932.41,1800.61 C3933.11,1801.67 3933.11,1801.9 3933.11,1807.87 L3933.11,1863.56 C3933.11,1869.53 3933.11,1869.76 3932.41,1870.81 C3931.47,1871.98 3929.25,1872.34 3922.7,1872.45 L3920.48,1872.45 L3920.48,1877.95 M3952.88,1872.45 C3946.92,1872.45 3946.22,1871.75 3946.22,1866.02 L3946.22,1805.53 C3946.22,1799.8 3947.03,1798.98 3952.88,1798.98 L3958.97,1798.98 C3978.98,1798.98 3987.28,1809.86 3987.28,1835.71 C3987.28,1861.92 3979.79,1872.45 3960.84,1872.45 L3952.88,1872.45 M4024.13,1864.96 C4020.03,1864.96 4016.76,1868.24 4016.76,1872.22 C4016.76,1876.31 4020.03,1879.59 4024.01,1879.59 C4028.11,1879.59 4031.38,1876.31 4031.38,1872.22 C4031.38,1868.24 4028.11,1864.96 4024.13,1864.96 M4104.5,1792.78 L4100.17,1792.78 L4095.49,1799.8 C4089.87,1794.53 4082.5,1791.72 4074.19,1791.72 C4058.75,1791.72 4048.57,1801.43 4048.57,1816.18 C4048.57,1828.93 4054.89,1835.25 4072.09,1839.69 L4083.2,1842.5 C4091.86,1844.72 4092.68,1844.96 4095.14,1846.83 C4098.65,1849.52 4100.52,1853.38 4100.52,1857.94 C4100.52,1862.62 4098.76,1866.49 4095.25,1869.76 C4091.39,1873.04 4087.53,1874.32 4081.1,1874.32 C4072.44,1874.32 4066.24,1871.63 4060.74,1865.55 C4055.82,1860.17 4053.37,1854.55 4051.61,1845.54 L4046.58,1845.54 L4047.05,1878.89 L4051.61,1878.89 L4056.88,1870.93 C4064.72,1877.37 4071.15,1879.71 4081.45,1879.71 C4098.65,1879.71 4109.64,1869.64 4109.64,1853.97 C4109.64,1846.6 4107.3,1840.51 4102.62,1836.07 C4099.46,1833.02 4094.9,1831.03 4085.54,1828.69 L4073.02,1825.54 C4062.61,1822.84 4057.7,1818.28 4057.7,1811.14 C4057.7,1802.95 4064.36,1797.34 4074.31,1797.34 C4082.5,1797.34 4089.17,1800.85 4093.85,1807.52 C4097.24,1812.31 4099.46,1817.23 4100.87,1823.2 L4105.9,1823.2 L4104.5,1792.78 M4130.35,1864.96 C4126.25,1864.96 4122.97,1868.24 4122.97,1872.22 C4122.97,1876.31 4126.25,1879.59 4130.23,1879.59 C4134.32,1879.59 4137.6,1876.31 4137.6,1872.22 C4137.6,1868.24 4134.32,1864.96 4130.35,1864.96"/>
<path class="RehearsalMark" fill="none" stroke="#000000" stroke-width="8.50" stroke-linecap="square" stroke-linejoin="miter" stroke-miterlimit="2" fill-rule="evenodd" d="M308.606,166.419 L789.088,166.419 L789.088,316.041 L308.606,316.041 L308.606,166.419 "/>
<path class="RehearsalMark" d="M339.451,283.464 L384.964,283.464 L384.964,277.146 L383.209,277.146 C376.891,277.146 374.551,276.678 373.498,275.391 C372.679,274.221 372.679,273.87 372.679,266.616 L372.679,215.838 C372.679,208.584 372.679,208.233 373.498,207.063 C374.551,205.776 376.891,205.308 383.209,205.308 L384.964,205.308 L384.964,198.99 L339.451,198.99 L339.451,205.308 L341.206,205.308 C347.407,205.308 349.747,205.776 350.8,207.063 C351.619,208.233 351.619,208.584 351.619,215.838 L351.619,266.616 C351.619,273.87 351.619,274.221 350.8,275.391 C349.747,276.678 347.407,277.146 341.206,277.146 L339.451,277.146 L339.451,283.464 M419.703,198.99 L390.219,198.99 L390.219,205.425 C395.484,205.542 399.579,207.765 402.621,211.977 L402.621,258.075 C402.855,273.168 400.632,276.561 389.985,277.146 L389.985,283.464 L423.33,283.464 L423.33,277.146 C412.449,276.561 410.226,273.168 410.46,258.075 L410.46,219.582 L464.865,284.283 L472.704,284.283 L472.704,224.379 C472.353,209.286 474.81,205.776 485.574,205.308 L485.574,198.99 L452.229,198.99 L452.229,205.308 C462.876,205.776 465.099,209.286 464.865,224.379 L464.865,251.874 L419.703,198.99 M569.452,198.99 L491.998,198.99 L490.243,230.697 L496.444,230.697 C497.965,222.039 499.603,217.476 502.411,213.381 C506.155,207.765 510.484,205.074 515.983,205.074 C519.493,205.074 520.195,205.893 520.195,209.754 L520.195,266.616 C520.195,273.87 520.195,274.221 519.376,275.391 C518.323,276.678 515.983,277.146 509.665,277.146 L507.091,277.146 L507.091,283.464 L554.359,283.464 L554.359,277.146 L551.785,277.146 C545.467,277.146 543.127,276.678 542.074,275.391 C541.255,274.338 541.255,273.753 541.255,266.616 L541.255,209.754 C541.255,205.893 541.957,205.074 545.467,205.074 C550.498,205.074 554.359,207.18 558.103,211.977 C561.379,216.189 563.251,221.103 565.006,230.697 L571.207,230.697 L569.452,198.99 M610.274,242.865 L616.826,242.865 C626.069,242.982 629.696,246.375 630.047,255.735 L630.398,260.298 C631.1,269.073 631.451,271.179 632.621,274.338 C635.429,281.592 641.279,285.219 650.405,285.219 C663.041,285.219 670.295,278.199 670.295,265.68 L670.295,264.276 L663.977,264.276 C663.86,271.647 662.105,275.391 658.595,275.391 C657.308,275.391 655.904,274.689 655.202,273.753 C654.5,272.7 654.383,271.881 653.798,268.137 C653.798,267.552 653.564,266.499 653.33,264.861 L652.511,260.415 C650.756,249.885 646.31,244.62 636.131,241.227 C642.332,240.057 645.374,239.238 648.299,237.834 C655.436,234.207 659.531,227.772 659.531,220.167 C659.531,213.147 656.138,207.18 650.054,203.202 C645.608,200.394 637.769,198.99 627.005,198.99 L577.046,198.99 L577.046,205.308 L578.801,205.308 C585.119,205.308 587.342,205.776 588.395,206.946 C589.214,208.233 589.214,208.584 589.214,215.838 L589.214,266.499 C589.214,273.753 589.214,274.221 588.395,275.391 C587.342,276.678 585.002,277.029 578.801,277.146 L577.046,277.146 L577.046,283.464 L623.846,283.464 L623.846,277.146 L620.804,277.146 C614.603,277.029 612.146,276.678 611.093,275.391 C610.274,274.221 610.274,273.753 610.274,266.499 L610.274,242.865 M610.274,236.43 L610.274,212.796 C610.157,206.361 611.093,205.425 618.581,205.308 L621.389,205.308 C632.387,205.308 637.184,210.105 637.184,220.869 C637.184,232.686 632.27,236.43 616.709,236.43 L610.274,236.43 M718.605,197.235 C707.256,197.235 697.662,200.511 690.057,207.18 C680.229,215.604 674.379,228.825 674.379,242.514 C674.379,267.318 692.631,285.219 718.02,285.219 C730.071,285.219 739.197,282.411 747.036,276.093 C757.215,268.137 762.714,256.086 762.714,242.397 C762.714,228.825 756.864,215.487 747.036,207.18 C739.197,200.394 730.071,197.235 718.605,197.235 M718.722,203.319 C725.04,203.319 729.954,206.361 733.347,212.328 C737.208,219.348 739.314,229.878 739.314,242.514 C739.314,266.265 732.06,279.135 718.722,279.135 C711.936,279.135 707.022,276.21 703.746,270.126 C699.885,262.872 697.779,252.693 697.779,240.291 C697.779,227.655 699.768,218.295 703.746,211.626 C707.139,205.893 711.819,203.319 718.722,203.319"/>
<path class="RehearsalMark" fill="none" stroke="#000000" stroke-width="8.50" stroke-linecap="square" stroke-linejoin="miter" stroke-miterlimit="2" fill-rule="evenodd" d="M2913.89,928.978 L3077.42,928.978 L3077.42,1084.96 L2913.89,1084.96 L2913.89,928.978 "/>
<path class="RehearsalMark" d="M2991.94,959.797 L2962.88,1027.64 C2956.99,1041.46 2952.26,1046.45 2944.71,1047.22 L2944.71,1054.13 L2981.7,1054.13 L2981.7,1047.22 C2972.61,1046.71 2969.03,1044.28 2969.03,1038.39 C2969.03,1036.21 2969.54,1034.17 2970.95,1031.09 L2972.99,1026.23 L3004.87,1026.23 L3009.73,1038.77 C3011.14,1042.36 3011.27,1043 3011.27,1044.02 C3011.27,1046.33 3009.47,1047.09 3003.84,1047.09 L3001.67,1047.22 L3001.67,1054.13 L3046.59,1054.13 L3046.59,1047.22 C3039.3,1046.97 3037.25,1045.69 3034.56,1039.16 L3001.67,959.797 L2991.94,959.797 M2989.25,987.061 L3001.67,1017.65 L2976.32,1017.65 L2989.25,987.061 "/>
<path class="VoltaSegment" d="M3214.19,1842.42 L3210.1,1842.42 C3202.72,1847.92 3194.42,1850.26 3180.49,1850.49 L3180.49,1857.04 L3185.41,1857.04 C3195.82,1857.04 3195.94,1857.28 3195.82,1866.87 L3195.82,1908.41 C3195.82,1915.66 3195.82,1916.01 3195,1917.18 C3193.95,1918.47 3191.61,1918.94 3185.29,1918.94 L3181.55,1918.94 L3181.55,1925.25 L3228.23,1925.25 L3228.23,1918.94 L3224.49,1918.94 C3218.29,1918.94 3216.06,1918.47 3215.01,1917.18 C3214.19,1916.01 3214.19,1915.54 3214.19,1908.41 L3214.19,1842.42 M3254.2,1905.01 C3248.12,1905.01 3243.2,1909.93 3243.2,1916.01 C3243.2,1921.98 3248.12,1927.01 3254.09,1927.01 C3260.29,1927.01 3265.2,1922.1 3265.2,1916.01 C3265.2,1909.93 3260.29,1905.01 3254.2,1905.01"/>
<polyline class="VoltaSegment" fill="none" stroke="#000000" stroke-width="5.85" stroke-linecap="square" stroke-linejoin="bevel" points="3148.6,1925.25 3148.6,1808.33"/>
<polyline class="VoltaSegment" fill="none" stroke="#000000" stroke-width="5.85" stroke-linecap="square" stroke-linejoin="bevel" points="3148.6,1808.33 3793.87,1808.33"/>
<polyline class="VoltaSegment" fill="none" stroke="#000000" stroke-width="5.85" stroke-linecap="square" stroke-linejoin="bevel" points="3793.87,1808.33 3793.87,1925.25"/>
</svg>
