<?xml version="1.0" encoding="UTF-8" standalone="no"?>
<svg width="4208.47px" height="2409.45px" viewBox="0 0 4208.47 2409.45"
 xmlns="http://www.w3.org/2000/svg" xmlns:xlink="http://www.w3.org/1999/xlink" version="1.2" baseProfile="tiny">
<title>PETE_SEM_PIRATA (1)</title>
<desc>Generated by MuseScore 3.6.2</desc>
<polyline class="StaffLines" fill="none" stroke="#000000" stroke-width="4.85" stroke-linejoin="bevel" points="70.866,379.566 4137.61,379.566"/>
<polyline class="StaffLines" fill="none" stroke="#000000" stroke-width="4.85" stroke-linejoin="bevel" points="70.866,423.666 4137.61,423.666"/>
<polyline class="StaffLines" fill="none" stroke="#000000" stroke-width="4.85" stroke-linejoin="bevel" points="70.866,467.766 4137.61,467.766"/>
<polyline class="StaffLines" fill="none" stroke="#000000" stroke-width="4.85" stroke-linejoin="bevel" points="70.866,511.866 4137.61,511.866"/>
<polyline class="StaffLines" fill="none" stroke="#000000" stroke-width="4.85" stroke-linejoin="bevel" points="70.866,555.966 4137.61,555.966"/>
<polyline class="StaffLines" fill="none" stroke="#000000" stroke-width="4.85" stroke-linejoin="bevel" points="70.866,1217.47 4137.61,1217.47"/>
<polyline class="StaffLines" fill="none" stroke="#000000" stroke-width="4.85" stroke-linejoin="bevel" points="70.866,1261.57 4137.61,1261.57"/>
<polyline class="StaffLines" fill="none" stroke="#000000" stroke-width="4.85" stroke-linejoin="bevel" points="70.866,1305.67 4137.61,1305.67"/>
<polyline class="StaffLines" fill="none" stroke="#000000" stroke-width="4.85" stroke-linejoin="bevel" points="70.866,1349.77 4137.61,1349.77"/>
<polyline class="StaffLines" fill="none" stroke="#000000" stroke-width="4.85" stroke-linejoin="bevel" points="70.866,1393.87 4137.61,1393.87"/>
<polyline class="StaffLines" fill="none" stroke="#000000" stroke-width="4.85" stroke-linejoin="bevel" points="70.866,2055.37 4137.61,2055.37"/>
<polyline class="StaffLines" fill="none" stroke="#000000" stroke-width="4.85" stroke-linejoin="bevel" points="70.866,2099.47 4137.61,2099.47"/>
<polyline class="StaffLines" fill="none" stroke="#000000" stroke-width="4.85" stroke-linejoin="bevel" points="70.866,2143.57 4137.61,2143.57"/>
<polyline class="StaffLines" fill="none" stroke="#000000" stroke-width="4.85" stroke-linejoin="bevel" points="70.866,2187.67 4137.61,2187.67"/>
<polyline class="StaffLines" fill="none" stroke="#000000" stroke-width="4.85" stroke-linejoin="bevel" points="70.866,2231.77 4137.61,2231.77"/>
<path class="MeasureNumber" d="M75.3504,1113.95 C74.1004,1114.7 73.741,1115.19 73.741,1115.98 C73.741,1116.75 74.3816,1117.31 75.1785,1117.31 C76.2254,1117.31 76.8191,1116.55 76.9441,1115.06 C78.1785,1114.06 79.5066,1113.63 81.1004,1113.63 C84.0691,1113.63 85.7097,1115.47 85.7097,1118.78 C85.7097,1123.98 82.3504,1128.22 78.2254,1128.22 C75.866,1128.22 73.9441,1127.11 73.9441,1125.78 C73.9441,1125.55 73.991,1125.47 74.1785,1125.34 C75.2254,1124.86 75.2254,1124.86 75.5066,1124.67 C76.1472,1124.19 76.5066,1123.47 76.5066,1122.63 C76.5066,1121.34 75.5066,1120.39 74.1004,1120.39 C72.3504,1120.39 71.0222,1121.86 71.0222,1123.78 C71.0222,1127.31 74.0691,1129.86 78.3504,1129.86 C84.8191,1129.86 90.0691,1124.7 90.0691,1118.31 C90.0691,1114.27 86.991,1111.42 82.6316,1111.42 C80.8972,1111.42 79.5066,1111.78 77.5847,1112.75 L79.8191,1105.19 C81.9441,1105.63 83.6316,1105.83 85.0691,1105.83 C87.7097,1105.83 90.0691,1104.98 91.3816,1103.59 C92.0691,1102.8 92.4597,1102.11 92.4597,1101.59 C92.4597,1101.34 92.3347,1101.11 92.1785,1101.11 C92.0691,1101.11 91.9754,1101.16 91.741,1101.27 C90.4285,1101.91 88.741,1102.27 87.1785,1102.27 C84.7879,1102.27 81.9441,1101.88 78.991,1101.11 L75.3504,1113.95 "/>
<path class="MeasureNumber" d="M85.8972,1952.37 C87.741,1951.49 88.5847,1951.01 89.3035,1950.45 C91.0222,1949.13 91.9441,1947.29 91.9441,1945.24 C91.9441,1941.6 88.866,1939.01 84.5847,1939.01 C79.4285,1939.01 75.4285,1942.73 75.4285,1947.57 C75.4285,1950.01 76.2722,1951.57 78.4285,1953.13 C73.7097,1954.93 71.1785,1957.85 71.1785,1961.49 C71.1785,1965.37 74.3816,1967.76 79.5066,1967.76 C85.6629,1967.76 90.0691,1964.01 90.0691,1958.81 C90.0691,1957.32 89.5847,1955.88 88.7097,1954.73 C88.1004,1953.93 87.3816,1953.32 85.8972,1952.37 M84.1785,1951.42 C80.1004,1949.49 78.6316,1947.93 78.6316,1945.65 C78.6316,1942.88 81.1004,1940.73 84.2566,1940.73 C87.0222,1940.73 88.9441,1942.49 88.9441,1945.01 C88.9441,1946.65 88.1785,1948.45 86.866,1949.73 C86.1004,1950.49 85.5066,1950.88 84.1785,1951.42 M79.9441,1954.21 C81.866,1955.09 82.5066,1955.4 83.5066,1956.01 C85.5066,1957.21 86.5847,1958.81 86.5847,1960.6 C86.5847,1963.68 83.7097,1966.01 79.9441,1966.01 C76.5379,1966.01 74.4285,1964.09 74.4285,1961.01 C74.4285,1958.01 76.3504,1955.65 79.9441,1954.21"/>
<path class="TieSegment" stroke="#000000" stroke-width="3.09" stroke-linecap="round" stroke-linejoin="round" fill-rule="evenodd" d="M3862.83,456.741 C3878.4,432.927 3925.1,432.927 3940.67,456.741 C3925.1,445.275 3878.4,445.275 3862.83,456.741"/>
<path class="TieSegment" stroke="#000000" stroke-width="3.09" stroke-linecap="round" stroke-linejoin="round" fill-rule="evenodd" d="M746.258,2132.54 C765.454,2108.73 823.042,2108.73 842.238,2132.54 C823.042,2121.07 765.454,2121.07 746.258,2132.54"/>
<path class="TieSegment" stroke="#000000" stroke-width="3.09" stroke-linecap="round" stroke-linejoin="round" fill-rule="evenodd" d="M1198.96,2176.64 C1237.39,2141.26 1352.67,2141.26 1391.1,2176.64 C1352.67,2153.61 1237.39,2153.61 1198.96,2176.64"/>
<path class="TieSegment" stroke="#000000" stroke-width="3.09" stroke-linecap="round" stroke-linejoin="round" fill-rule="evenodd" d="M2793.43,2088.44 C2831.27,2053.51 2944.78,2053.51 2982.61,2088.44 C2944.78,2065.86 2831.27,2065.86 2793.43,2088.44"/>
<polyline class="BarLine" stroke="#000000" stroke-width="7.94" stroke-linejoin="bevel" points="1491.6,377.14 1491.6,558.391"/>
<polyline class="BarLine" stroke="#000000" stroke-width="7.94" stroke-linejoin="bevel" points="2480.99,377.14 2480.99,558.391"/>
<polyline class="BarLine" stroke="#000000" stroke-width="7.94" stroke-linejoin="bevel" points="3470.38,377.14 3470.38,558.391"/>
<polyline class="BarLine" stroke="#000000" stroke-width="7.94" stroke-linejoin="bevel" points="4133.64,377.14 4133.64,558.391"/>
<polyline class="BarLine" stroke="#000000" stroke-width="7.94" stroke-linejoin="bevel" points="1396.22,1215.04 1396.22,1396.29"/>
<polyline class="BarLine" stroke="#000000" stroke-width="7.94" stroke-linejoin="bevel" points="2676.98,1215.04 2676.98,1396.29"/>
<polyline class="BarLine" stroke="#000000" stroke-width="7.94" stroke-linejoin="bevel" points="4133.64,1215.04 4133.64,1396.29"/>
<polyline class="BarLine" stroke="#000000" stroke-width="7.94" stroke-linejoin="bevel" points="1297.96,2052.94 1297.96,2234.19"/>
<polyline class="BarLine" stroke="#000000" stroke-width="7.94" stroke-linejoin="bevel" points="1677.97,2052.94 1677.97,2234.19"/>
<polyline class="BarLine" stroke="#000000" stroke-width="24.26" stroke-linejoin="bevel" points="2332.45,2052.94 2332.45,2234.19"/>
<polyline class="BarLine" stroke="#000000" stroke-width="7.94" stroke-linejoin="bevel" points="2363.32,2052.94 2363.32,2234.19"/>
<path class="BarLine" transform="matrix(1.764,0,0,1.764,2385.01,2121.52)" d="M10.4063,0 C10.4063,-2.90625 8.09375,-5.29688 5.20313,-5.29688 C2.29688,-5.29688 0,-2.90625 0,0 C0,2.90625 2.29688,5.29688 5.20313,5.29688 C8.09375,5.29688 10.4063,2.90625 10.4063,0"/>
<path class="BarLine" transform="matrix(1.764,0,0,1.764,2385.01,2165.62)" d="M10.4063,0 C10.4063,-2.90625 8.09375,-5.29688 5.20313,-5.29688 C2.29688,-5.29688 0,-2.90625 0,0 C0,2.90625 2.29688,5.29688 5.20313,5.29688 C8.09375,5.29688 10.4063,2.90625 10.4063,0"/>
<polyline class="BarLine" stroke="#000000" stroke-width="7.94" stroke-linejoin="bevel" points="2892.43,2052.94 2892.43,2234.19"/>
<polyline class="BarLine" stroke="#000000" stroke-width="7.94" stroke-linejoin="bevel" points="3589.97,2052.94 3589.97,2234.19"/>
<polyline class="BarLine" stroke="#000000" stroke-width="7.94" stroke-linejoin="bevel" points="4133.64,2052.94 4133.64,2234.19"/>
<path class="Accidental" transform="matrix(1.764,0,0,1.764,1077.2,467.766)" d="M16.5938,-18.2969 C16.4063,-18.5 16.0938,-18.5938 15.7969,-18.5938 C15.7031,-18.5938 15.5,-18.5 15.4063,-18.5 L2.79688,-15 L2.79688,-32.5 L0,-32.5 L0,17 C0,17.7969 0.59375,18.2969 1.40625,18.2969 L1.79688,18.2969 L14.4063,14.7969 L14.4063,32.2969 L17.0938,32.2969 L17.0938,-17.2031 C17.0938,-17.5938 16.9063,-18.0938 16.5938,-18.2969 M14.4063,6.5 L2.79688,9.70313 L2.79688,-6.70313 L14.4063,-10 L14.4063,6.5 "/>
<path class="Accidental" transform="matrix(1.764,0,0,1.764,2084.5,467.766)" d="M16.5938,-18.2969 C16.4063,-18.5 16.0938,-18.5938 15.7969,-18.5938 C15.7031,-18.5938 15.5,-18.5 15.4063,-18.5 L2.79688,-15 L2.79688,-32.5 L0,-32.5 L0,17 C0,17.7969 0.59375,18.2969 1.40625,18.2969 L1.79688,18.2969 L14.4063,14.7969 L14.4063,32.2969 L17.0938,32.2969 L17.0938,-17.2031 C17.0938,-17.5938 16.9063,-18.0938 16.5938,-18.2969 M14.4063,6.5 L2.79688,9.70313 L2.79688,-6.70313 L14.4063,-10 L14.4063,6.5 "/>
<path class="Accidental" transform="matrix(1.764,0,0,1.764,3073.88,467.766)" d="M16.5938,-18.2969 C16.4063,-18.5 16.0938,-18.5938 15.7969,-18.5938 C15.7031,-18.5938 15.5,-18.5 15.4063,-18.5 L2.79688,-15 L2.79688,-32.5 L0,-32.5 L0,17 C0,17.7969 0.59375,18.2969 1.40625,18.2969 L1.79688,18.2969 L14.4063,14.7969 L14.4063,32.2969 L17.0938,32.2969 L17.0938,-17.2031 C17.0938,-17.5938 16.9063,-18.0938 16.5938,-18.2969 M14.4063,6.5 L2.79688,9.70313 L2.79688,-6.70313 L14.4063,-10 L14.4063,6.5 "/>
<path class="Accidental" transform="matrix(1.764,0,0,1.764,833.638,1239.52)" d="M20.0938,-7.90625 C19.5,-11.7969 17.0938,-15.5 12,-15.5 C7,-15.5 4.09375,-12.4063 3.59375,-11.7969 L4,-43.9063 C4,-44.7031 3.40625,-45.2969 2.59375,-45.2969 L1.40625,-45.2969 C0.59375,-45.2969 0,-44.7031 0,-43.9063 L0.5,16.2031 C0.5,17 1.09375,17.5938 1.90625,17.5938 C2.09375,17.5938 2.5,17.5 2.70313,17.4063 C3.09375,17.2031 9.59375,14 15,7.90625 C18.7969,3.59375 20.2969,-1.29688 20.2969,-5.40625 C20.2969,-6.29688 20.2031,-7.09375 20.0938,-7.90625 M13.2031,-4 C13.2031,-2.5 12.7969,2.09375 10.2969,5.90625 C8.59375,8.5 5.20313,11.2031 3.29688,12.7031 L3.59375,-6.79688 C3.79688,-7.70313 5.29688,-10.5938 9.29688,-10.5938 C12.9063,-10.5938 13.2031,-7.20313 13.2031,-5.09375 L13.2031,-4 "/>
<path class="Accidental" transform="matrix(1.764,0,0,1.764,2080.06,1239.52)" d="M20.0938,-7.90625 C19.5,-11.7969 17.0938,-15.5 12,-15.5 C7,-15.5 4.09375,-12.4063 3.59375,-11.7969 L4,-43.9063 C4,-44.7031 3.40625,-45.2969 2.59375,-45.2969 L1.40625,-45.2969 C0.59375,-45.2969 0,-44.7031 0,-43.9063 L0.5,16.2031 C0.5,17 1.09375,17.5938 1.90625,17.5938 C2.09375,17.5938 2.5,17.5 2.70313,17.4063 C3.09375,17.2031 9.59375,14 15,7.90625 C18.7969,3.59375 20.2969,-1.29688 20.2969,-5.40625 C20.2969,-6.29688 20.2031,-7.09375 20.0938,-7.90625 M13.2031,-4 C13.2031,-2.5 12.7969,2.09375 10.2969,5.90625 C8.59375,8.5 5.20313,11.2031 3.29688,12.7031 L3.59375,-6.79688 C3.79688,-7.70313 5.29688,-10.5938 9.29688,-10.5938 C12.9063,-10.5938 13.2031,-7.20313 13.2031,-5.09375 L13.2031,-4 "/>
<path class="Accidental" transform="matrix(1.764,0,0,1.764,3111.85,1239.52)" d="M20.0938,-7.90625 C19.5,-11.7969 17.0938,-15.5 12,-15.5 C7,-15.5 4.09375,-12.4063 3.59375,-11.7969 L4,-43.9063 C4,-44.7031 3.40625,-45.2969 2.59375,-45.2969 L1.40625,-45.2969 C0.59375,-45.2969 0,-44.7031 0,-43.9063 L0.5,16.2031 C0.5,17 1.09375,17.5938 1.90625,17.5938 C2.09375,17.5938 2.5,17.5 2.70313,17.4063 C3.09375,17.2031 9.59375,14 15,7.90625 C18.7969,3.59375 20.2969,-1.29688 20.2969,-5.40625 C20.2969,-6.29688 20.2031,-7.09375 20.0938,-7.90625 M13.2031,-4 C13.2031,-2.5 12.7969,2.09375 10.2969,5.90625 C8.59375,8.5 5.20313,11.2031 3.29688,12.7031 L3.59375,-6.79688 C3.79688,-7.70313 5.29688,-10.5938 9.29688,-10.5938 C12.9063,-10.5938 13.2031,-7.20313 13.2031,-5.09375 L13.2031,-4 "/>
<path class="Accidental" transform="matrix(1.764,0,0,1.764,2465.54,2077.42)" d="M20.0938,-7.90625 C19.5,-11.7969 17.0938,-15.5 12,-15.5 C7,-15.5 4.09375,-12.4063 3.59375,-11.7969 L4,-43.9063 C4,-44.7031 3.40625,-45.2969 2.59375,-45.2969 L1.40625,-45.2969 C0.59375,-45.2969 0,-44.7031 0,-43.9063 L0.5,16.2031 C0.5,17 1.09375,17.5938 1.90625,17.5938 C2.09375,17.5938 2.5,17.5 2.70313,17.4063 C3.09375,17.2031 9.59375,14 15,7.90625 C18.7969,3.59375 20.2969,-1.29688 20.2969,-5.40625 C20.2969,-6.29688 20.2031,-7.09375 20.0938,-7.90625 M13.2031,-4 C13.2031,-2.5 12.7969,2.09375 10.2969,5.90625 C8.59375,8.5 5.20313,11.2031 3.29688,12.7031 L3.59375,-6.79688 C3.79688,-7.70313 5.29688,-10.5938 9.29688,-10.5938 C12.9063,-10.5938 13.2031,-7.20313 13.2031,-5.09375 L13.2031,-4 "/>
<polyline class="Stem" stroke="#000000" stroke-width="4.85" stroke-linejoin="bevel" points="684.537,572.371 684.537,423.666"/>
<polyline class="Stem" stroke="#000000" stroke-width="4.85" stroke-linejoin="bevel" points="758.005,539.843 758.005,655.191"/>
<polyline class="Stem" stroke="#000000" stroke-width="4.85" stroke-linejoin="bevel" points="876.488,495.743 876.488,611.091"/>
<polyline class="Stem" stroke="#000000" stroke-width="4.85" stroke-linejoin="bevel" points="994.97,451.643 994.97,589.041"/>
<polyline class="Stem" stroke="#000000" stroke-width="4.85" stroke-linejoin="bevel" points="1120.81,473.693 1120.81,589.041"/>
<polyline class="Stem" stroke="#000000" stroke-width="4.85" stroke-linejoin="bevel" points="1239.29,451.643 1239.29,589.041"/>
<polyline class="Stem" stroke="#000000" stroke-width="4.85" stroke-linejoin="bevel" points="1357.77,473.693 1357.77,589.041"/>
<polyline class="Stem" stroke="#000000" stroke-width="4.85" stroke-linejoin="bevel" points="1564.15,495.743 1564.15,699.291"/>
<polyline class="Stem" stroke="#000000" stroke-width="4.85" stroke-linejoin="bevel" points="1673.68,583.943 1673.68,699.291"/>
<polyline class="Stem" stroke="#000000" stroke-width="4.85" stroke-linejoin="bevel" points="1783.21,539.843 1783.21,699.291"/>
<polyline class="Stem" stroke="#000000" stroke-width="4.85" stroke-linejoin="bevel" points="1892.73,495.743 1892.73,699.291"/>
<polyline class="Stem" stroke="#000000" stroke-width="4.85" stroke-linejoin="bevel" points="2002.26,451.643 2002.26,589.041"/>
<polyline class="Stem" stroke="#000000" stroke-width="4.85" stroke-linejoin="bevel" points="2128.1,473.693 2128.1,589.041"/>
<polyline class="Stem" stroke="#000000" stroke-width="4.85" stroke-linejoin="bevel" points="2237.63,451.643 2237.63,589.041"/>
<polyline class="Stem" stroke="#000000" stroke-width="4.85" stroke-linejoin="bevel" points="2347.16,473.693 2347.16,589.041"/>
<polyline class="Stem" stroke="#000000" stroke-width="4.85" stroke-linejoin="bevel" points="2553.53,495.743 2553.53,699.291"/>
<polyline class="Stem" stroke="#000000" stroke-width="4.85" stroke-linejoin="bevel" points="2663.06,583.943 2663.06,699.291"/>
<polyline class="Stem" stroke="#000000" stroke-width="4.85" stroke-linejoin="bevel" points="2772.59,539.843 2772.59,699.291"/>
<polyline class="Stem" stroke="#000000" stroke-width="4.85" stroke-linejoin="bevel" points="2882.12,495.743 2882.12,699.291"/>
<polyline class="Stem" stroke="#000000" stroke-width="4.85" stroke-linejoin="bevel" points="2991.65,451.643 2991.65,589.041"/>
<polyline class="Stem" stroke="#000000" stroke-width="4.85" stroke-linejoin="bevel" points="3117.49,473.693 3117.49,589.041"/>
<polyline class="Stem" stroke="#000000" stroke-width="4.85" stroke-linejoin="bevel" points="3227.02,451.643 3227.02,589.041"/>
<polyline class="Stem" stroke="#000000" stroke-width="4.85" stroke-linejoin="bevel" points="3336.55,473.693 3336.55,589.041"/>
<polyline class="Stem" stroke="#000000" stroke-width="4.85" stroke-linejoin="bevel" points="3542.92,495.743 3542.92,699.291"/>
<polyline class="Stem" stroke="#000000" stroke-width="4.85" stroke-linejoin="bevel" points="3637.95,583.943 3637.95,699.291"/>
<polyline class="Stem" stroke="#000000" stroke-width="4.85" stroke-linejoin="bevel" points="3732.98,539.843 3732.98,699.291"/>
<polyline class="Stem" stroke="#000000" stroke-width="4.85" stroke-linejoin="bevel" points="3828,495.743 3828,699.291"/>
<polyline class="Stem" stroke="#000000" stroke-width="4.85" stroke-linejoin="bevel" points="3923.03,495.743 3923.03,622.116"/>
<polyline class="Stem" stroke="#000000" stroke-width="4.85" stroke-linejoin="bevel" points="498.404,1377.74 498.404,1526.17"/>
<polyline class="Stem" stroke="#000000" stroke-width="4.85" stroke-linejoin="bevel" points="624.904,1333.64 624.904,1448.99"/>
<polyline class="Stem" stroke="#000000" stroke-width="4.85" stroke-linejoin="bevel" points="751.405,1289.54 751.405,1426.94"/>
<polyline class="Stem" stroke="#000000" stroke-width="4.85" stroke-linejoin="bevel" points="882.892,1245.44 882.892,1382.84"/>
<polyline class="Stem" stroke="#000000" stroke-width="4.85" stroke-linejoin="bevel" points="1009.39,1267.49 1009.39,1382.84"/>
<polyline class="Stem" stroke="#000000" stroke-width="4.85" stroke-linejoin="bevel" points="1135.89,1245.44 1135.89,1382.84"/>
<polyline class="Stem" stroke="#000000" stroke-width="4.85" stroke-linejoin="bevel" points="1262.39,1267.49 1262.39,1382.84"/>
<polyline class="Stem" stroke="#000000" stroke-width="4.85" stroke-linejoin="bevel" points="1468.77,1289.54 1468.77,1404.89"/>
<polyline class="Stem" stroke="#000000" stroke-width="4.85" stroke-linejoin="bevel" points="1605.3,1289.54 1605.3,1404.89"/>
<polyline class="Stem" stroke="#000000" stroke-width="4.85" stroke-linejoin="bevel" points="1827.16,1377.74 1827.16,1526.17"/>
<polyline class="Stem" stroke="#000000" stroke-width="4.85" stroke-linejoin="bevel" points="1912.49,1333.64 1912.49,1498.6"/>
<polyline class="Stem" stroke="#000000" stroke-width="4.85" stroke-linejoin="bevel" points="1997.83,1289.54 1997.83,1471.04"/>
<polyline class="Stem" stroke="#000000" stroke-width="4.85" stroke-linejoin="bevel" points="2129.31,1245.44 2129.31,1382.84"/>
<polyline class="Stem" stroke="#000000" stroke-width="4.85" stroke-linejoin="bevel" points="2265.85,1267.49 2265.85,1382.84"/>
<polyline class="Stem" stroke="#000000" stroke-width="4.85" stroke-linejoin="bevel" points="2402.38,1245.44 2402.38,1382.84"/>
<polyline class="Stem" stroke="#000000" stroke-width="4.85" stroke-linejoin="bevel" points="2538.91,1267.49 2538.91,1382.84"/>
<polyline class="Stem" stroke="#000000" stroke-width="4.85" stroke-linejoin="bevel" points="2749.53,1289.54 2749.53,1515.14"/>
<polyline class="Stem" stroke="#000000" stroke-width="4.85" stroke-linejoin="bevel" points="2842.89,1377.74 2842.89,1515.14"/>
<polyline class="Stem" stroke="#000000" stroke-width="4.85" stroke-linejoin="bevel" points="2936.26,1333.64 2936.26,1515.14"/>
<polyline class="Stem" stroke="#000000" stroke-width="4.85" stroke-linejoin="bevel" points="3029.62,1289.54 3029.62,1515.14"/>
<polyline class="Stem" stroke="#000000" stroke-width="4.85" stroke-linejoin="bevel" points="3161.11,1245.44 3161.11,1393.87"/>
<polyline class="Stem" stroke="#000000" stroke-width="4.85" stroke-linejoin="bevel" points="3254.47,1267.49 3254.47,1393.87"/>
<polyline class="Stem" stroke="#000000" stroke-width="4.85" stroke-linejoin="bevel" points="3347.84,1245.44 3347.84,1393.87"/>
<polyline class="Stem" stroke="#000000" stroke-width="4.85" stroke-linejoin="bevel" points="3441.2,1267.49 3441.2,1393.87"/>
<polyline class="Stem" stroke="#000000" stroke-width="4.85" stroke-linejoin="bevel" points="3534.56,1245.44 3534.56,1382.84"/>
<polyline class="Stem" stroke="#000000" stroke-width="4.85" stroke-linejoin="bevel" points="3683.95,1267.49 3683.95,1382.84"/>
<polyline class="Stem" stroke="#000000" stroke-width="4.85" stroke-linejoin="bevel" points="3833.33,1245.44 3833.33,1382.84"/>
<polyline class="Stem" stroke="#000000" stroke-width="4.85" stroke-linejoin="bevel" points="3982.71,1267.49 3982.71,1382.84"/>
<polyline class="Stem" stroke="#000000" stroke-width="4.85" stroke-linejoin="bevel" points="371.904,2127.44 371.904,2330.99"/>
<polyline class="Stem" stroke="#000000" stroke-width="4.85" stroke-linejoin="bevel" points="485.078,2215.64 485.078,2330.99"/>
<polyline class="Stem" stroke="#000000" stroke-width="4.85" stroke-linejoin="bevel" points="598.253,2193.59 598.253,2330.99"/>
<polyline class="Stem" stroke="#000000" stroke-width="4.85" stroke-linejoin="bevel" points="711.428,2171.54 711.428,2330.99"/>
<polyline class="Stem" stroke="#000000" stroke-width="4.85" stroke-linejoin="bevel" points="824.603,2171.54 824.603,2319.97"/>
<polyline class="Stem" stroke="#000000" stroke-width="4.85" stroke-linejoin="bevel" points="937.777,2215.64 937.777,2330.99"/>
<polyline class="Stem" stroke="#000000" stroke-width="4.85" stroke-linejoin="bevel" points="1050.95,2193.59 1050.95,2342.02"/>
<polyline class="Stem" stroke="#000000" stroke-width="4.85" stroke-linejoin="bevel" points="1164.13,2215.64 1164.13,2353.04"/>
<polyline class="Stem" stroke="#000000" stroke-width="4.85" stroke-linejoin="bevel" points="1988.9,2127.44 1988.9,2264.84"/>
<polyline class="Stem" stroke="#000000" stroke-width="4.85" stroke-linejoin="bevel" points="2066.28,2127.44 2066.28,2264.84"/>
<polyline class="Stem" stroke="#000000" stroke-width="4.85" stroke-linejoin="bevel" points="2143.67,2061.29 2143.67,2209.72"/>
<polyline class="Stem" stroke="#000000" stroke-width="4.85" stroke-linejoin="bevel" points="2514.79,2083.34 2514.79,2231.77"/>
<polyline class="Stem" stroke="#000000" stroke-width="4.85" stroke-linejoin="bevel" points="2664.83,2061.29 2664.83,2198.69"/>
<polyline class="Stem" stroke="#000000" stroke-width="4.85" stroke-linejoin="bevel" points="2758.6,2127.44 2758.6,2242.79"/>
<polyline class="Stem" stroke="#000000" stroke-width="4.85" stroke-linejoin="bevel" points="2964.98,2127.44 2964.98,2308.94"/>
<polyline class="Stem" stroke="#000000" stroke-width="4.85" stroke-linejoin="bevel" points="3051.57,2171.54 3051.57,2308.94"/>
<polyline class="Stem" stroke="#000000" stroke-width="4.85" stroke-linejoin="bevel" points="3138.16,2171.54 3138.16,2308.94"/>
<polyline class="Stem" stroke="#000000" stroke-width="4.85" stroke-linejoin="bevel" points="3224.75,2171.54 3224.75,2308.94"/>
<polyline class="Stem" stroke="#000000" stroke-width="4.85" stroke-linejoin="bevel" points="3311.34,2127.44 3311.34,2242.79"/>
<polyline class="Stem" stroke="#000000" stroke-width="4.85" stroke-linejoin="bevel" points="3449.89,2127.44 3449.89,2242.79"/>
<polyline class="Stem" stroke="#000000" stroke-width="4.85" stroke-linejoin="bevel" points="3673.54,2149.49 3673.54,2275.87"/>
<polyline class="Stem" stroke="#000000" stroke-width="4.85" stroke-linejoin="bevel" points="3782.3,2127.44 3782.3,2264.84"/>
<polyline class="Stem" stroke="#000000" stroke-width="4.85" stroke-linejoin="bevel" points="3891.05,2149.49 3891.05,2275.87"/>
<polyline class="Stem" stroke="#000000" stroke-width="4.85" stroke-linejoin="bevel" points="3999.81,2171.54 3999.81,2286.89"/>
<path class="Note" transform="matrix(1.764,0,0,1.764,629.646,578.016)" d="M31.5,-8.09375 C29.7031,-11.4063 25.9063,-13.2031 21.2969,-13.2031 C17.9063,-13.2031 14.2031,-12.2031 10.5938,-10.2969 C4,-6.79688 0,-0.90625 0,4.20313 C0,5.59375 0.296875,7 1,8.29688 C2.79688,11.5938 6.59375,13.2969 11.2031,13.2969 C14.5938,13.2969 18.2969,12.4063 21.9063,10.5 C28.5,7 32.5,1.09375 32.5,-4 C32.5,-5.40625 32.2031,-6.79688 31.5,-8.09375"/>
<path class="Note" transform="matrix(1.764,0,0,1.764,755.579,533.916)" d="M31.5,-8.09375 C29.7031,-11.4063 25.9063,-13.2031 21.2969,-13.2031 C17.9063,-13.2031 14.2031,-12.2031 10.5938,-10.2969 C4,-6.79688 0,-0.90625 0,4.20313 C0,5.59375 0.296875,7 1,8.29688 C2.79688,11.5938 6.59375,13.2969 11.2031,13.2969 C14.5938,13.2969 18.2969,12.4063 21.9063,10.5 C28.5,7 32.5,1.09375 32.5,-4 C32.5,-5.40625 32.2031,-6.79688 31.5,-8.09375"/>
<path class="Note" transform="matrix(1.764,0,0,1.764,874.062,489.816)" d="M31.5,-8.09375 C29.7031,-11.4063 25.9063,-13.2031 21.2969,-13.2031 C17.9063,-13.2031 14.2031,-12.2031 10.5938,-10.2969 C4,-6.79688 0,-0.90625 0,4.20313 C0,5.59375 0.296875,7 1,8.29688 C2.79688,11.5938 6.59375,13.2969 11.2031,13.2969 C14.5938,13.2969 18.2969,12.4063 21.9063,10.5 C28.5,7 32.5,1.09375 32.5,-4 C32.5,-5.40625 32.2031,-6.79688 31.5,-8.09375"/>
<path class="Note" transform="matrix(1.764,0,0,1.764,992.545,445.716)" d="M31.5,-8.09375 C29.7031,-11.4063 25.9063,-13.2031 21.2969,-13.2031 C17.9063,-13.2031 14.2031,-12.2031 10.5938,-10.2969 C4,-6.79688 0,-0.90625 0,4.20313 C0,5.59375 0.296875,7 1,8.29688 C2.79688,11.5938 6.59375,13.2969 11.2031,13.2969 C14.5938,13.2969 18.2969,12.4063 21.9063,10.5 C28.5,7 32.5,1.09375 32.5,-4 C32.5,-5.40625 32.2031,-6.79688 31.5,-8.09375"/>
<path class="Note" transform="matrix(1.764,0,0,1.764,1118.38,467.766)" d="M31.5,-8.09375 C29.7031,-11.4063 25.9063,-13.2031 21.2969,-13.2031 C17.9063,-13.2031 14.2031,-12.2031 10.5938,-10.2969 C4,-6.79688 0,-0.90625 0,4.20313 C0,5.59375 0.296875,7 1,8.29688 C2.79688,11.5938 6.59375,13.2969 11.2031,13.2969 C14.5938,13.2969 18.2969,12.4063 21.9063,10.5 C28.5,7 32.5,1.09375 32.5,-4 C32.5,-5.40625 32.2031,-6.79688 31.5,-8.09375"/>
<path class="Note" transform="matrix(1.764,0,0,1.764,1236.86,445.716)" d="M31.5,-8.09375 C29.7031,-11.4063 25.9063,-13.2031 21.2969,-13.2031 C17.9063,-13.2031 14.2031,-12.2031 10.5938,-10.2969 C4,-6.79688 0,-0.90625 0,4.20313 C0,5.59375 0.296875,7 1,8.29688 C2.79688,11.5938 6.59375,13.2969 11.2031,13.2969 C14.5938,13.2969 18.2969,12.4063 21.9063,10.5 C28.5,7 32.5,1.09375 32.5,-4 C32.5,-5.40625 32.2031,-6.79688 31.5,-8.09375"/>
<path class="Note" transform="matrix(1.764,0,0,1.764,1355.35,467.766)" d="M31.5,-8.09375 C29.7031,-11.4063 25.9063,-13.2031 21.2969,-13.2031 C17.9063,-13.2031 14.2031,-12.2031 10.5938,-10.2969 C4,-6.79688 0,-0.90625 0,4.20313 C0,5.59375 0.296875,7 1,8.29688 C2.79688,11.5938 6.59375,13.2969 11.2031,13.2969 C14.5938,13.2969 18.2969,12.4063 21.9063,10.5 C28.5,7 32.5,1.09375 32.5,-4 C32.5,-5.40625 32.2031,-6.79688 31.5,-8.09375"/>
<path class="Note" transform="matrix(1.764,0,0,1.764,1561.72,489.816)" d="M31.5,-8.09375 C29.7031,-11.4063 25.9063,-13.2031 21.2969,-13.2031 C17.9063,-13.2031 14.2031,-12.2031 10.5938,-10.2969 C4,-6.79688 0,-0.90625 0,4.20313 C0,5.59375 0.296875,7 1,8.29688 C2.79688,11.5938 6.59375,13.2969 11.2031,13.2969 C14.5938,13.2969 18.2969,12.4063 21.9063,10.5 C28.5,7 32.5,1.09375 32.5,-4 C32.5,-5.40625 32.2031,-6.79688 31.5,-8.09375"/>
<path class="Note" transform="matrix(1.764,0,0,1.764,1671.25,578.016)" d="M31.5,-8.09375 C29.7031,-11.4063 25.9063,-13.2031 21.2969,-13.2031 C17.9063,-13.2031 14.2031,-12.2031 10.5938,-10.2969 C4,-6.79688 0,-0.90625 0,4.20313 C0,5.59375 0.296875,7 1,8.29688 C2.79688,11.5938 6.59375,13.2969 11.2031,13.2969 C14.5938,13.2969 18.2969,12.4063 21.9063,10.5 C28.5,7 32.5,1.09375 32.5,-4 C32.5,-5.40625 32.2031,-6.79688 31.5,-8.09375"/>
<path class="Note" transform="matrix(1.764,0,0,1.764,1780.78,533.916)" d="M31.5,-8.09375 C29.7031,-11.4063 25.9063,-13.2031 21.2969,-13.2031 C17.9063,-13.2031 14.2031,-12.2031 10.5938,-10.2969 C4,-6.79688 0,-0.90625 0,4.20313 C0,5.59375 0.296875,7 1,8.29688 C2.79688,11.5938 6.59375,13.2969 11.2031,13.2969 C14.5938,13.2969 18.2969,12.4063 21.9063,10.5 C28.5,7 32.5,1.09375 32.5,-4 C32.5,-5.40625 32.2031,-6.79688 31.5,-8.09375"/>
<path class="Note" transform="matrix(1.764,0,0,1.764,1890.31,489.816)" d="M31.5,-8.09375 C29.7031,-11.4063 25.9063,-13.2031 21.2969,-13.2031 C17.9063,-13.2031 14.2031,-12.2031 10.5938,-10.2969 C4,-6.79688 0,-0.90625 0,4.20313 C0,5.59375 0.296875,7 1,8.29688 C2.79688,11.5938 6.59375,13.2969 11.2031,13.2969 C14.5938,13.2969 18.2969,12.4063 21.9063,10.5 C28.5,7 32.5,1.09375 32.5,-4 C32.5,-5.40625 32.2031,-6.79688 31.5,-8.09375"/>
<path class="Note" transform="matrix(1.764,0,0,1.764,1999.84,445.716)" d="M31.5,-8.09375 C29.7031,-11.4063 25.9063,-13.2031 21.2969,-13.2031 C17.9063,-13.2031 14.2031,-12.2031 10.5938,-10.2969 C4,-6.79688 0,-0.90625 0,4.20313 C0,5.59375 0.296875,7 1,8.29688 C2.79688,11.5938 6.59375,13.2969 11.2031,13.2969 C14.5938,13.2969 18.2969,12.4063 21.9063,10.5 C28.5,7 32.5,1.09375 32.5,-4 C32.5,-5.40625 32.2031,-6.79688 31.5,-8.09375"/>
<path class="Note" transform="matrix(1.764,0,0,1.764,2125.68,467.766)" d="M31.5,-8.09375 C29.7031,-11.4063 25.9063,-13.2031 21.2969,-13.2031 C17.9063,-13.2031 14.2031,-12.2031 10.5938,-10.2969 C4,-6.79688 0,-0.90625 0,4.20313 C0,5.59375 0.296875,7 1,8.29688 C2.79688,11.5938 6.59375,13.2969 11.2031,13.2969 C14.5938,13.2969 18.2969,12.4063 21.9063,10.5 C28.5,7 32.5,1.09375 32.5,-4 C32.5,-5.40625 32.2031,-6.79688 31.5,-8.09375"/>
<path class="Note" transform="matrix(1.764,0,0,1.764,2235.2,445.716)" d="M31.5,-8.09375 C29.7031,-11.4063 25.9063,-13.2031 21.2969,-13.2031 C17.9063,-13.2031 14.2031,-12.2031 10.5938,-10.2969 C4,-6.79688 0,-0.90625 0,4.20313 C0,5.59375 0.296875,7 1,8.29688 C2.79688,11.5938 6.59375,13.2969 11.2031,13.2969 C14.5938,13.2969 18.2969,12.4063 21.9063,10.5 C28.5,7 32.5,1.09375 32.5,-4 C32.5,-5.40625 32.2031,-6.79688 31.5,-8.09375"/>
<path class="Note" transform="matrix(1.764,0,0,1.764,2344.73,467.766)" d="M31.5,-8.09375 C29.7031,-11.4063 25.9063,-13.2031 21.2969,-13.2031 C17.9063,-13.2031 14.2031,-12.2031 10.5938,-10.2969 C4,-6.79688 0,-0.90625 0,4.20313 C0,5.59375 0.296875,7 1,8.29688 C2.79688,11.5938 6.59375,13.2969 11.2031,13.2969 C14.5938,13.2969 18.2969,12.4063 21.9063,10.5 C28.5,7 32.5,1.09375 32.5,-4 C32.5,-5.40625 32.2031,-6.79688 31.5,-8.09375"/>
<path class="Note" transform="matrix(1.764,0,0,1.764,2551.11,489.816)" d="M31.5,-8.09375 C29.7031,-11.4063 25.9063,-13.2031 21.2969,-13.2031 C17.9063,-13.2031 14.2031,-12.2031 10.5938,-10.2969 C4,-6.79688 0,-0.90625 0,4.20313 C0,5.59375 0.296875,7 1,8.29688 C2.79688,11.5938 6.59375,13.2969 11.2031,13.2969 C14.5938,13.2969 18.2969,12.4063 21.9063,10.5 C28.5,7 32.5,1.09375 32.5,-4 C32.5,-5.40625 32.2031,-6.79688 31.5,-8.09375"/>
<path class="Note" transform="matrix(1.764,0,0,1.764,2660.64,578.016)" d="M31.5,-8.09375 C29.7031,-11.4063 25.9063,-13.2031 21.2969,-13.2031 C17.9063,-13.2031 14.2031,-12.2031 10.5938,-10.2969 C4,-6.79688 0,-0.90625 0,4.20313 C0,5.59375 0.296875,7 1,8.29688 C2.79688,11.5938 6.59375,13.2969 11.2031,13.2969 C14.5938,13.2969 18.2969,12.4063 21.9063,10.5 C28.5,7 32.5,1.09375 32.5,-4 C32.5,-5.40625 32.2031,-6.79688 31.5,-8.09375"/>
<path class="Note" transform="matrix(1.764,0,0,1.764,2770.17,533.916)" d="M31.5,-8.09375 C29.7031,-11.4063 25.9063,-13.2031 21.2969,-13.2031 C17.9063,-13.2031 14.2031,-12.2031 10.5938,-10.2969 C4,-6.79688 0,-0.90625 0,4.20313 C0,5.59375 0.296875,7 1,8.29688 C2.79688,11.5938 6.59375,13.2969 11.2031,13.2969 C14.5938,13.2969 18.2969,12.4063 21.9063,10.5 C28.5,7 32.5,1.09375 32.5,-4 C32.5,-5.40625 32.2031,-6.79688 31.5,-8.09375"/>
<path class="Note" transform="matrix(1.764,0,0,1.764,2879.7,489.816)" d="M31.5,-8.09375 C29.7031,-11.4063 25.9063,-13.2031 21.2969,-13.2031 C17.9063,-13.2031 14.2031,-12.2031 10.5938,-10.2969 C4,-6.79688 0,-0.90625 0,4.20313 C0,5.59375 0.296875,7 1,8.29688 C2.79688,11.5938 6.59375,13.2969 11.2031,13.2969 C14.5938,13.2969 18.2969,12.4063 21.9063,10.5 C28.5,7 32.5,1.09375 32.5,-4 C32.5,-5.40625 32.2031,-6.79688 31.5,-8.09375"/>
<path class="Note" transform="matrix(1.764,0,0,1.764,2989.22,445.716)" d="M31.5,-8.09375 C29.7031,-11.4063 25.9063,-13.2031 21.2969,-13.2031 C17.9063,-13.2031 14.2031,-12.2031 10.5938,-10.2969 C4,-6.79688 0,-0.90625 0,4.20313 C0,5.59375 0.296875,7 1,8.29688 C2.79688,11.5938 6.59375,13.2969 11.2031,13.2969 C14.5938,13.2969 18.2969,12.4063 21.9063,10.5 C28.5,7 32.5,1.09375 32.5,-4 C32.5,-5.40625 32.2031,-6.79688 31.5,-8.09375"/>
<path class="Note" transform="matrix(1.764,0,0,1.764,3115.06,467.766)" d="M31.5,-8.09375 C29.7031,-11.4063 25.9063,-13.2031 21.2969,-13.2031 C17.9063,-13.2031 14.2031,-12.2031 10.5938,-10.2969 C4,-6.79688 0,-0.90625 0,4.20313 C0,5.59375 0.296875,7 1,8.29688 C2.79688,11.5938 6.59375,13.2969 11.2031,13.2969 C14.5938,13.2969 18.2969,12.4063 21.9063,10.5 C28.5,7 32.5,1.09375 32.5,-4 C32.5,-5.40625 32.2031,-6.79688 31.5,-8.09375"/>
<path class="Note" transform="matrix(1.764,0,0,1.764,3224.59,445.716)" d="M31.5,-8.09375 C29.7031,-11.4063 25.9063,-13.2031 21.2969,-13.2031 C17.9063,-13.2031 14.2031,-12.2031 10.5938,-10.2969 C4,-6.79688 0,-0.90625 0,4.20313 C0,5.59375 0.296875,7 1,8.29688 C2.79688,11.5938 6.59375,13.2969 11.2031,13.2969 C14.5938,13.2969 18.2969,12.4063 21.9063,10.5 C28.5,7 32.5,1.09375 32.5,-4 C32.5,-5.40625 32.2031,-6.79688 31.5,-8.09375"/>
<path class="Note" transform="matrix(1.764,0,0,1.764,3334.12,467.766)" d="M31.5,-8.09375 C29.7031,-11.4063 25.9063,-13.2031 21.2969,-13.2031 C17.9063,-13.2031 14.2031,-12.2031 10.5938,-10.2969 C4,-6.79688 0,-0.90625 0,4.20313 C0,5.59375 0.296875,7 1,8.29688 C2.79688,11.5938 6.59375,13.2969 11.2031,13.2969 C14.5938,13.2969 18.2969,12.4063 21.9063,10.5 C28.5,7 32.5,1.09375 32.5,-4 C32.5,-5.40625 32.2031,-6.79688 31.5,-8.09375"/>
<path class="Note" transform="matrix(1.764,0,0,1.764,3540.49,489.816)" d="M31.5,-8.09375 C29.7031,-11.4063 25.9063,-13.2031 21.2969,-13.2031 C17.9063,-13.2031 14.2031,-12.2031 10.5938,-10.2969 C4,-6.79688 0,-0.90625 0,4.20313 C0,5.59375 0.296875,7 1,8.29688 C2.79688,11.5938 6.59375,13.2969 11.2031,13.2969 C14.5938,13.2969 18.2969,12.4063 21.9063,10.5 C28.5,7 32.5,1.09375 32.5,-4 C32.5,-5.40625 32.2031,-6.79688 31.5,-8.09375"/>
<path class="Note" transform="matrix(1.764,0,0,1.764,3635.52,578.016)" d="M31.5,-8.09375 C29.7031,-11.4063 25.9063,-13.2031 21.2969,-13.2031 C17.9063,-13.2031 14.2031,-12.2031 10.5938,-10.2969 C4,-6.79688 0,-0.90625 0,4.20313 C0,5.59375 0.296875,7 1,8.29688 C2.79688,11.5938 6.59375,13.2969 11.2031,13.2969 C14.5938,13.2969 18.2969,12.4063 21.9063,10.5 C28.5,7 32.5,1.09375 32.5,-4 C32.5,-5.40625 32.2031,-6.79688 31.5,-8.09375"/>
<path class="Note" transform="matrix(1.764,0,0,1.764,3730.55,533.916)" d="M31.5,-8.09375 C29.7031,-11.4063 25.9063,-13.2031 21.2969,-13.2031 C17.9063,-13.2031 14.2031,-12.2031 10.5938,-10.2969 C4,-6.79688 0,-0.90625 0,4.20313 C0,5.59375 0.296875,7 1,8.29688 C2.79688,11.5938 6.59375,13.2969 11.2031,13.2969 C14.5938,13.2969 18.2969,12.4063 21.9063,10.5 C28.5,7 32.5,1.09375 32.5,-4 C32.5,-5.40625 32.2031,-6.79688 31.5,-8.09375"/>
<path class="Note" transform="matrix(1.764,0,0,1.764,3825.58,489.816)" d="M31.5,-8.09375 C29.7031,-11.4063 25.9063,-13.2031 21.2969,-13.2031 C17.9063,-13.2031 14.2031,-12.2031 10.5938,-10.2969 C4,-6.79688 0,-0.90625 0,4.20313 C0,5.59375 0.296875,7 1,8.29688 C2.79688,11.5938 6.59375,13.2969 11.2031,13.2969 C14.5938,13.2969 18.2969,12.4063 21.9063,10.5 C28.5,7 32.5,1.09375 32.5,-4 C32.5,-5.40625 32.2031,-6.79688 31.5,-8.09375"/>
<path class="Note" transform="matrix(1.764,0,0,1.764,3920.61,489.816)" d="M31.5,-8.14063 C29.7031,-11.4375 25.9063,-13.2344 21.2969,-13.2344 C17.9063,-13.2344 14.2031,-12.2344 10.5938,-10.3438 C4,-6.84375 0,-0.9375 0,4.15625 C0,5.5625 0.296875,6.96875 1,8.26563 C2.79688,11.5781 6.59375,13.2813 11.2031,13.2813 C14.5938,13.2813 18.2969,12.375 21.9063,10.4844 C28.5,6.96875 32.5,1.0625 32.5,-4.04688 C32.5,-5.4375 32.2031,-6.84375 31.5,-8.14063 M27.2031,-1.34375 C25.5,0.359375 22.0938,2.45313 18.5,4.46875 C14.9063,6.46875 11.2969,7.96875 8.90625,8.46875 C8.40625,8.57813 7.90625,8.67188 7.40625,8.67188 C5.79688,8.67188 4.59375,8.07813 3.90625,6.76563 C3.59375,6.26563 3.40625,5.67188 3.40625,5.0625 C3.40625,3.96875 4.09375,2.65625 5.20313,1.5625 C6.90625,-0.140625 10.2031,-2.23438 13.7969,-4.23438 C17.4063,-6.23438 21,-7.73438 23.4063,-8.23438 C23.9063,-8.34375 24.4063,-8.4375 24.9063,-8.4375 C26.5,-8.4375 27.7969,-7.84375 28.5,-6.54688 C28.7969,-6.04688 28.9063,-5.4375 28.9063,-4.84375 C28.9063,-3.73438 28.2969,-2.54688 27.2031,-1.34375"/>
<path class="Note" transform="matrix(1.764,0,0,1.764,495.979,1371.82)" d="M31.5,-8.09375 C29.7031,-11.4063 25.9063,-13.2031 21.2969,-13.2031 C17.9063,-13.2031 14.2031,-12.2031 10.5938,-10.2969 C4,-6.79688 0,-0.90625 0,4.20313 C0,5.59375 0.296875,7 1,8.29688 C2.79688,11.5938 6.59375,13.2969 11.2031,13.2969 C14.5938,13.2969 18.2969,12.4063 21.9063,10.5 C28.5,7 32.5,1.09375 32.5,-4 C32.5,-5.40625 32.2031,-6.79688 31.5,-8.09375"/>
<path class="Note" transform="matrix(1.764,0,0,1.764,622.479,1327.72)" d="M31.5,-8.09375 C29.7031,-11.4063 25.9063,-13.2031 21.2969,-13.2031 C17.9063,-13.2031 14.2031,-12.2031 10.5938,-10.2969 C4,-6.79688 0,-0.90625 0,4.20313 C0,5.59375 0.296875,7 1,8.29688 C2.79688,11.5938 6.59375,13.2969 11.2031,13.2969 C14.5938,13.2969 18.2969,12.4063 21.9063,10.5 C28.5,7 32.5,1.09375 32.5,-4 C32.5,-5.40625 32.2031,-6.79688 31.5,-8.09375"/>
<path class="Note" transform="matrix(1.764,0,0,1.764,748.979,1283.62)" d="M31.5,-8.09375 C29.7031,-11.4063 25.9063,-13.2031 21.2969,-13.2031 C17.9063,-13.2031 14.2031,-12.2031 10.5938,-10.2969 C4,-6.79688 0,-0.90625 0,4.20313 C0,5.59375 0.296875,7 1,8.29688 C2.79688,11.5938 6.59375,13.2969 11.2031,13.2969 C14.5938,13.2969 18.2969,12.4063 21.9063,10.5 C28.5,7 32.5,1.09375 32.5,-4 C32.5,-5.40625 32.2031,-6.79688 31.5,-8.09375"/>
<path class="Note" transform="matrix(1.764,0,0,1.764,880.466,1239.52)" d="M31.5,-8.09375 C29.7031,-11.4063 25.9063,-13.2031 21.2969,-13.2031 C17.9063,-13.2031 14.2031,-12.2031 10.5938,-10.2969 C4,-6.79688 0,-0.90625 0,4.20313 C0,5.59375 0.296875,7 1,8.29688 C2.79688,11.5938 6.59375,13.2969 11.2031,13.2969 C14.5938,13.2969 18.2969,12.4063 21.9063,10.5 C28.5,7 32.5,1.09375 32.5,-4 C32.5,-5.40625 32.2031,-6.79688 31.5,-8.09375"/>
<path class="Note" transform="matrix(1.764,0,0,1.764,1006.97,1261.57)" d="M31.5,-8.09375 C29.7031,-11.4063 25.9063,-13.2031 21.2969,-13.2031 C17.9063,-13.2031 14.2031,-12.2031 10.5938,-10.2969 C4,-6.79688 0,-0.90625 0,4.20313 C0,5.59375 0.296875,7 1,8.29688 C2.79688,11.5938 6.59375,13.2969 11.2031,13.2969 C14.5938,13.2969 18.2969,12.4063 21.9063,10.5 C28.5,7 32.5,1.09375 32.5,-4 C32.5,-5.40625 32.2031,-6.79688 31.5,-8.09375"/>
<path class="Note" transform="matrix(1.764,0,0,1.764,1133.47,1239.52)" d="M31.5,-8.09375 C29.7031,-11.4063 25.9063,-13.2031 21.2969,-13.2031 C17.9063,-13.2031 14.2031,-12.2031 10.5938,-10.2969 C4,-6.79688 0,-0.90625 0,4.20313 C0,5.59375 0.296875,7 1,8.29688 C2.79688,11.5938 6.59375,13.2969 11.2031,13.2969 C14.5938,13.2969 18.2969,12.4063 21.9063,10.5 C28.5,7 32.5,1.09375 32.5,-4 C32.5,-5.40625 32.2031,-6.79688 31.5,-8.09375"/>
<path class="Note" transform="matrix(1.764,0,0,1.764,1259.97,1261.57)" d="M31.5,-8.09375 C29.7031,-11.4063 25.9063,-13.2031 21.2969,-13.2031 C17.9063,-13.2031 14.2031,-12.2031 10.5938,-10.2969 C4,-6.79688 0,-0.90625 0,4.20313 C0,5.59375 0.296875,7 1,8.29688 C2.79688,11.5938 6.59375,13.2969 11.2031,13.2969 C14.5938,13.2969 18.2969,12.4063 21.9063,10.5 C28.5,7 32.5,1.09375 32.5,-4 C32.5,-5.40625 32.2031,-6.79688 31.5,-8.09375"/>
<path class="Note" transform="matrix(1.764,0,0,1.764,1466.34,1283.62)" d="M31.5,-8.09375 C29.7031,-11.4063 25.9063,-13.2031 21.2969,-13.2031 C17.9063,-13.2031 14.2031,-12.2031 10.5938,-10.2969 C4,-6.79688 0,-0.90625 0,4.20313 C0,5.59375 0.296875,7 1,8.29688 C2.79688,11.5938 6.59375,13.2969 11.2031,13.2969 C14.5938,13.2969 18.2969,12.4063 21.9063,10.5 C28.5,7 32.5,1.09375 32.5,-4 C32.5,-5.40625 32.2031,-6.79688 31.5,-8.09375"/>
<path class="Note" transform="matrix(1.764,0,0,1.764,1602.87,1283.62)" d="M31.5,-8.09375 C29.7031,-11.4063 25.9063,-13.2031 21.2969,-13.2031 C17.9063,-13.2031 14.2031,-12.2031 10.5938,-10.2969 C4,-6.79688 0,-0.90625 0,4.20313 C0,5.59375 0.296875,7 1,8.29688 C2.79688,11.5938 6.59375,13.2969 11.2031,13.2969 C14.5938,13.2969 18.2969,12.4063 21.9063,10.5 C28.5,7 32.5,1.09375 32.5,-4 C32.5,-5.40625 32.2031,-6.79688 31.5,-8.09375"/>
<path class="Note" transform="matrix(1.764,0,0,1.764,1824.74,1371.82)" d="M31.5,-8.09375 C29.7031,-11.4063 25.9063,-13.2031 21.2969,-13.2031 C17.9063,-13.2031 14.2031,-12.2031 10.5938,-10.2969 C4,-6.79688 0,-0.90625 0,4.20313 C0,5.59375 0.296875,7 1,8.29688 C2.79688,11.5938 6.59375,13.2969 11.2031,13.2969 C14.5938,13.2969 18.2969,12.4063 21.9063,10.5 C28.5,7 32.5,1.09375 32.5,-4 C32.5,-5.40625 32.2031,-6.79688 31.5,-8.09375"/>
<path class="Note" transform="matrix(1.764,0,0,1.764,1910.07,1327.72)" d="M31.5,-8.09375 C29.7031,-11.4063 25.9063,-13.2031 21.2969,-13.2031 C17.9063,-13.2031 14.2031,-12.2031 10.5938,-10.2969 C4,-6.79688 0,-0.90625 0,4.20313 C0,5.59375 0.296875,7 1,8.29688 C2.79688,11.5938 6.59375,13.2969 11.2031,13.2969 C14.5938,13.2969 18.2969,12.4063 21.9063,10.5 C28.5,7 32.5,1.09375 32.5,-4 C32.5,-5.40625 32.2031,-6.79688 31.5,-8.09375"/>
<path class="Note" transform="matrix(1.764,0,0,1.764,1995.4,1283.62)" d="M31.5,-8.09375 C29.7031,-11.4063 25.9063,-13.2031 21.2969,-13.2031 C17.9063,-13.2031 14.2031,-12.2031 10.5938,-10.2969 C4,-6.79688 0,-0.90625 0,4.20313 C0,5.59375 0.296875,7 1,8.29688 C2.79688,11.5938 6.59375,13.2969 11.2031,13.2969 C14.5938,13.2969 18.2969,12.4063 21.9063,10.5 C28.5,7 32.5,1.09375 32.5,-4 C32.5,-5.40625 32.2031,-6.79688 31.5,-8.09375"/>
<path class="Note" transform="matrix(1.764,0,0,1.764,2126.89,1239.52)" d="M31.5,-8.09375 C29.7031,-11.4063 25.9063,-13.2031 21.2969,-13.2031 C17.9063,-13.2031 14.2031,-12.2031 10.5938,-10.2969 C4,-6.79688 0,-0.90625 0,4.20313 C0,5.59375 0.296875,7 1,8.29688 C2.79688,11.5938 6.59375,13.2969 11.2031,13.2969 C14.5938,13.2969 18.2969,12.4063 21.9063,10.5 C28.5,7 32.5,1.09375 32.5,-4 C32.5,-5.40625 32.2031,-6.79688 31.5,-8.09375"/>
<path class="Note" transform="matrix(1.764,0,0,1.764,2263.42,1261.57)" d="M31.5,-8.09375 C29.7031,-11.4063 25.9063,-13.2031 21.2969,-13.2031 C17.9063,-13.2031 14.2031,-12.2031 10.5938,-10.2969 C4,-6.79688 0,-0.90625 0,4.20313 C0,5.59375 0.296875,7 1,8.29688 C2.79688,11.5938 6.59375,13.2969 11.2031,13.2969 C14.5938,13.2969 18.2969,12.4063 21.9063,10.5 C28.5,7 32.5,1.09375 32.5,-4 C32.5,-5.40625 32.2031,-6.79688 31.5,-8.09375"/>
<path class="Note" transform="matrix(1.764,0,0,1.764,2399.95,1239.52)" d="M31.5,-8.09375 C29.7031,-11.4063 25.9063,-13.2031 21.2969,-13.2031 C17.9063,-13.2031 14.2031,-12.2031 10.5938,-10.2969 C4,-6.79688 0,-0.90625 0,4.20313 C0,5.59375 0.296875,7 1,8.29688 C2.79688,11.5938 6.59375,13.2969 11.2031,13.2969 C14.5938,13.2969 18.2969,12.4063 21.9063,10.5 C28.5,7 32.5,1.09375 32.5,-4 C32.5,-5.40625 32.2031,-6.79688 31.5,-8.09375"/>
<path class="Note" transform="matrix(1.764,0,0,1.764,2536.48,1261.57)" d="M31.5,-8.09375 C29.7031,-11.4063 25.9063,-13.2031 21.2969,-13.2031 C17.9063,-13.2031 14.2031,-12.2031 10.5938,-10.2969 C4,-6.79688 0,-0.90625 0,4.20313 C0,5.59375 0.296875,7 1,8.29688 C2.79688,11.5938 6.59375,13.2969 11.2031,13.2969 C14.5938,13.2969 18.2969,12.4063 21.9063,10.5 C28.5,7 32.5,1.09375 32.5,-4 C32.5,-5.40625 32.2031,-6.79688 31.5,-8.09375"/>
<path class="Note" transform="matrix(1.764,0,0,1.764,2747.1,1283.62)" d="M31.5,-8.09375 C29.7031,-11.4063 25.9063,-13.2031 21.2969,-13.2031 C17.9063,-13.2031 14.2031,-12.2031 10.5938,-10.2969 C4,-6.79688 0,-0.90625 0,4.20313 C0,5.59375 0.296875,7 1,8.29688 C2.79688,11.5938 6.59375,13.2969 11.2031,13.2969 C14.5938,13.2969 18.2969,12.4063 21.9063,10.5 C28.5,7 32.5,1.09375 32.5,-4 C32.5,-5.40625 32.2031,-6.79688 31.5,-8.09375"/>
<path class="Note" transform="matrix(1.764,0,0,1.764,2840.47,1371.82)" d="M31.5,-8.09375 C29.7031,-11.4063 25.9063,-13.2031 21.2969,-13.2031 C17.9063,-13.2031 14.2031,-12.2031 10.5938,-10.2969 C4,-6.79688 0,-0.90625 0,4.20313 C0,5.59375 0.296875,7 1,8.29688 C2.79688,11.5938 6.59375,13.2969 11.2031,13.2969 C14.5938,13.2969 18.2969,12.4063 21.9063,10.5 C28.5,7 32.5,1.09375 32.5,-4 C32.5,-5.40625 32.2031,-6.79688 31.5,-8.09375"/>
<path class="Note" transform="matrix(1.764,0,0,1.764,2933.83,1327.72)" d="M31.5,-8.09375 C29.7031,-11.4063 25.9063,-13.2031 21.2969,-13.2031 C17.9063,-13.2031 14.2031,-12.2031 10.5938,-10.2969 C4,-6.79688 0,-0.90625 0,4.20313 C0,5.59375 0.296875,7 1,8.29688 C2.79688,11.5938 6.59375,13.2969 11.2031,13.2969 C14.5938,13.2969 18.2969,12.4063 21.9063,10.5 C28.5,7 32.5,1.09375 32.5,-4 C32.5,-5.40625 32.2031,-6.79688 31.5,-8.09375"/>
<path class="Note" transform="matrix(1.764,0,0,1.764,3027.19,1283.62)" d="M31.5,-8.09375 C29.7031,-11.4063 25.9063,-13.2031 21.2969,-13.2031 C17.9063,-13.2031 14.2031,-12.2031 10.5938,-10.2969 C4,-6.79688 0,-0.90625 0,4.20313 C0,5.59375 0.296875,7 1,8.29688 C2.79688,11.5938 6.59375,13.2969 11.2031,13.2969 C14.5938,13.2969 18.2969,12.4063 21.9063,10.5 C28.5,7 32.5,1.09375 32.5,-4 C32.5,-5.40625 32.2031,-6.79688 31.5,-8.09375"/>
<path class="Note" transform="matrix(1.764,0,0,1.764,3158.68,1239.52)" d="M31.5,-8.09375 C29.7031,-11.4063 25.9063,-13.2031 21.2969,-13.2031 C17.9063,-13.2031 14.2031,-12.2031 10.5938,-10.2969 C4,-6.79688 0,-0.90625 0,4.20313 C0,5.59375 0.296875,7 1,8.29688 C2.79688,11.5938 6.59375,13.2969 11.2031,13.2969 C14.5938,13.2969 18.2969,12.4063 21.9063,10.5 C28.5,7 32.5,1.09375 32.5,-4 C32.5,-5.40625 32.2031,-6.79688 31.5,-8.09375"/>
<path class="Note" transform="matrix(1.764,0,0,1.764,3252.05,1261.57)" d="M31.5,-8.09375 C29.7031,-11.4063 25.9063,-13.2031 21.2969,-13.2031 C17.9063,-13.2031 14.2031,-12.2031 10.5938,-10.2969 C4,-6.79688 0,-0.90625 0,4.20313 C0,5.59375 0.296875,7 1,8.29688 C2.79688,11.5938 6.59375,13.2969 11.2031,13.2969 C14.5938,13.2969 18.2969,12.4063 21.9063,10.5 C28.5,7 32.5,1.09375 32.5,-4 C32.5,-5.40625 32.2031,-6.79688 31.5,-8.09375"/>
<path class="Note" transform="matrix(1.764,0,0,1.764,3345.41,1239.52)" d="M31.5,-8.09375 C29.7031,-11.4063 25.9063,-13.2031 21.2969,-13.2031 C17.9063,-13.2031 14.2031,-12.2031 10.5938,-10.2969 C4,-6.79688 0,-0.90625 0,4.20313 C0,5.59375 0.296875,7 1,8.29688 C2.79688,11.5938 6.59375,13.2969 11.2031,13.2969 C14.5938,13.2969 18.2969,12.4063 21.9063,10.5 C28.5,7 32.5,1.09375 32.5,-4 C32.5,-5.40625 32.2031,-6.79688 31.5,-8.09375"/>
<path class="Note" transform="matrix(1.764,0,0,1.764,3438.77,1261.57)" d="M31.5,-8.09375 C29.7031,-11.4063 25.9063,-13.2031 21.2969,-13.2031 C17.9063,-13.2031 14.2031,-12.2031 10.5938,-10.2969 C4,-6.79688 0,-0.90625 0,4.20313 C0,5.59375 0.296875,7 1,8.29688 C2.79688,11.5938 6.59375,13.2969 11.2031,13.2969 C14.5938,13.2969 18.2969,12.4063 21.9063,10.5 C28.5,7 32.5,1.09375 32.5,-4 C32.5,-5.40625 32.2031,-6.79688 31.5,-8.09375"/>
<path class="Note" transform="matrix(1.764,0,0,1.764,3532.14,1239.52)" d="M31.5,-8.09375 C29.7031,-11.4063 25.9063,-13.2031 21.2969,-13.2031 C17.9063,-13.2031 14.2031,-12.2031 10.5938,-10.2969 C4,-6.79688 0,-0.90625 0,4.20313 C0,5.59375 0.296875,7 1,8.29688 C2.79688,11.5938 6.59375,13.2969 11.2031,13.2969 C14.5938,13.2969 18.2969,12.4063 21.9063,10.5 C28.5,7 32.5,1.09375 32.5,-4 C32.5,-5.40625 32.2031,-6.79688 31.5,-8.09375"/>
<path class="Note" transform="matrix(1.764,0,0,1.764,3681.52,1261.57)" d="M31.5,-8.09375 C29.7031,-11.4063 25.9063,-13.2031 21.2969,-13.2031 C17.9063,-13.2031 14.2031,-12.2031 10.5938,-10.2969 C4,-6.79688 0,-0.90625 0,4.20313 C0,5.59375 0.296875,7 1,8.29688 C2.79688,11.5938 6.59375,13.2969 11.2031,13.2969 C14.5938,13.2969 18.2969,12.4063 21.9063,10.5 C28.5,7 32.5,1.09375 32.5,-4 C32.5,-5.40625 32.2031,-6.79688 31.5,-8.09375"/>
<path class="Note" transform="matrix(1.764,0,0,1.764,3830.9,1239.52)" d="M31.5,-8.09375 C29.7031,-11.4063 25.9063,-13.2031 21.2969,-13.2031 C17.9063,-13.2031 14.2031,-12.2031 10.5938,-10.2969 C4,-6.79688 0,-0.90625 0,4.20313 C0,5.59375 0.296875,7 1,8.29688 C2.79688,11.5938 6.59375,13.2969 11.2031,13.2969 C14.5938,13.2969 18.2969,12.4063 21.9063,10.5 C28.5,7 32.5,1.09375 32.5,-4 C32.5,-5.40625 32.2031,-6.79688 31.5,-8.09375"/>
<path class="Note" transform="matrix(1.764,0,0,1.764,3980.29,1261.57)" d="M31.5,-8.09375 C29.7031,-11.4063 25.9063,-13.2031 21.2969,-13.2031 C17.9063,-13.2031 14.2031,-12.2031 10.5938,-10.2969 C4,-6.79688 0,-0.90625 0,4.20313 C0,5.59375 0.296875,7 1,8.29688 C2.79688,11.5938 6.59375,13.2969 11.2031,13.2969 C14.5938,13.2969 18.2969,12.4063 21.9063,10.5 C28.5,7 32.5,1.09375 32.5,-4 C32.5,-5.40625 32.2031,-6.79688 31.5,-8.09375"/>
<path class="Note" transform="matrix(1.764,0,0,1.764,369.478,2121.52)" d="M31.5,-8.09375 C29.7031,-11.4063 25.9063,-13.2031 21.2969,-13.2031 C17.9063,-13.2031 14.2031,-12.2031 10.5938,-10.2969 C4,-6.79688 0,-0.90625 0,4.20313 C0,5.59375 0.296875,7 1,8.29688 C2.79688,11.5938 6.59375,13.2969 11.2031,13.2969 C14.5938,13.2969 18.2969,12.4063 21.9063,10.5 C28.5,7 32.5,1.09375 32.5,-4 C32.5,-5.40625 32.2031,-6.79688 31.5,-8.09375"/>
<path class="Note" transform="matrix(1.764,0,0,1.764,482.653,2209.72)" d="M31.5,-8.09375 C29.7031,-11.4063 25.9063,-13.2031 21.2969,-13.2031 C17.9063,-13.2031 14.2031,-12.2031 10.5938,-10.2969 C4,-6.79688 0,-0.90625 0,4.20313 C0,5.59375 0.296875,7 1,8.29688 C2.79688,11.5938 6.59375,13.2969 11.2031,13.2969 C14.5938,13.2969 18.2969,12.4063 21.9063,10.5 C28.5,7 32.5,1.09375 32.5,-4 C32.5,-5.40625 32.2031,-6.79688 31.5,-8.09375"/>
<path class="Note" transform="matrix(1.764,0,0,1.764,595.828,2187.67)" d="M31.5,-8.09375 C29.7031,-11.4063 25.9063,-13.2031 21.2969,-13.2031 C17.9063,-13.2031 14.2031,-12.2031 10.5938,-10.2969 C4,-6.79688 0,-0.90625 0,4.20313 C0,5.59375 0.296875,7 1,8.29688 C2.79688,11.5938 6.59375,13.2969 11.2031,13.2969 C14.5938,13.2969 18.2969,12.4063 21.9063,10.5 C28.5,7 32.5,1.09375 32.5,-4 C32.5,-5.40625 32.2031,-6.79688 31.5,-8.09375"/>
<path class="Note" transform="matrix(1.764,0,0,1.764,709.002,2165.62)" d="M31.5,-8.09375 C29.7031,-11.4063 25.9063,-13.2031 21.2969,-13.2031 C17.9063,-13.2031 14.2031,-12.2031 10.5938,-10.2969 C4,-6.79688 0,-0.90625 0,4.20313 C0,5.59375 0.296875,7 1,8.29688 C2.79688,11.5938 6.59375,13.2969 11.2031,13.2969 C14.5938,13.2969 18.2969,12.4063 21.9063,10.5 C28.5,7 32.5,1.09375 32.5,-4 C32.5,-5.40625 32.2031,-6.79688 31.5,-8.09375"/>
<path class="Note" transform="matrix(1.764,0,0,1.764,822.177,2165.62)" d="M31.5,-8.09375 C29.7031,-11.4063 25.9063,-13.2031 21.2969,-13.2031 C17.9063,-13.2031 14.2031,-12.2031 10.5938,-10.2969 C4,-6.79688 0,-0.90625 0,4.20313 C0,5.59375 0.296875,7 1,8.29688 C2.79688,11.5938 6.59375,13.2969 11.2031,13.2969 C14.5938,13.2969 18.2969,12.4063 21.9063,10.5 C28.5,7 32.5,1.09375 32.5,-4 C32.5,-5.40625 32.2031,-6.79688 31.5,-8.09375"/>
<path class="Note" transform="matrix(1.764,0,0,1.764,935.352,2209.72)" d="M31.5,-8.09375 C29.7031,-11.4063 25.9063,-13.2031 21.2969,-13.2031 C17.9063,-13.2031 14.2031,-12.2031 10.5938,-10.2969 C4,-6.79688 0,-0.90625 0,4.20313 C0,5.59375 0.296875,7 1,8.29688 C2.79688,11.5938 6.59375,13.2969 11.2031,13.2969 C14.5938,13.2969 18.2969,12.4063 21.9063,10.5 C28.5,7 32.5,1.09375 32.5,-4 C32.5,-5.40625 32.2031,-6.79688 31.5,-8.09375"/>
<path class="Note" transform="matrix(1.764,0,0,1.764,1048.53,2187.67)" d="M31.5,-8.09375 C29.7031,-11.4063 25.9063,-13.2031 21.2969,-13.2031 C17.9063,-13.2031 14.2031,-12.2031 10.5938,-10.2969 C4,-6.79688 0,-0.90625 0,4.20313 C0,5.59375 0.296875,7 1,8.29688 C2.79688,11.5938 6.59375,13.2969 11.2031,13.2969 C14.5938,13.2969 18.2969,12.4063 21.9063,10.5 C28.5,7 32.5,1.09375 32.5,-4 C32.5,-5.40625 32.2031,-6.79688 31.5,-8.09375"/>
<path class="Note" transform="matrix(1.764,0,0,1.764,1161.7,2209.72)" d="M31.5,-8.09375 C29.7031,-11.4063 25.9063,-13.2031 21.2969,-13.2031 C17.9063,-13.2031 14.2031,-12.2031 10.5938,-10.2969 C4,-6.79688 0,-0.90625 0,4.20313 C0,5.59375 0.296875,7 1,8.29688 C2.79688,11.5938 6.59375,13.2969 11.2031,13.2969 C14.5938,13.2969 18.2969,12.4063 21.9063,10.5 C28.5,7 32.5,1.09375 32.5,-4 C32.5,-5.40625 32.2031,-6.79688 31.5,-8.09375"/>
<path class="Note" transform="matrix(1.764,0,0,1.764,1368.08,2209.72)" d="M18.7031,-13.5938 C4.90625,-13.5938 0,-6.59375 0,-0.09375 C0,6.40625 4.90625,13.4063 18.7031,13.4063 C32.5,13.4063 37.2969,6.40625 37.2969,-0.09375 C37.2969,-6.59375 32.5,-13.5938 18.7031,-13.5938 M10.4063,-4.5 C10.2969,-4.90625 10.2969,-5.29688 10.2969,-5.70313 C10.2969,-6.5 10.5,-7.29688 10.9063,-8 C11.5938,-9 12.7969,-9.70313 14.2969,-10 C15.5938,-10.2969 16.2969,-10.5 18.9063,-10.5 L19,-10.5 C23,-10.5 24.2969,-6.79688 25.4063,-3 L25.7031,-2 C26.5,0.59375 26.9063,2.79688 26.9063,4.5 C26.9063,5.70313 26.7031,6.79688 26.2969,7.59375 C25.7031,8.70313 24.7031,9.40625 23,9.79688 C22.0938,10 20.5938,10.0938 20.5938,10.0938 C20.0938,10.0938 19.7031,10.2031 19.2969,10.2031 C16.0938,10.2031 14.0938,9 12.7031,4.70313 C11.5,1 11.2969,-0.09375 10.4063,-4.5"/>
<path class="Note" transform="matrix(1.764,0,0,1.764,1986.47,2121.52)" d="M31.5,-8.09375 C29.7031,-11.4063 25.9063,-13.2031 21.2969,-13.2031 C17.9063,-13.2031 14.2031,-12.2031 10.5938,-10.2969 C4,-6.79688 0,-0.90625 0,4.20313 C0,5.59375 0.296875,7 1,8.29688 C2.79688,11.5938 6.59375,13.2969 11.2031,13.2969 C14.5938,13.2969 18.2969,12.4063 21.9063,10.5 C28.5,7 32.5,1.09375 32.5,-4 C32.5,-5.40625 32.2031,-6.79688 31.5,-8.09375"/>
<path class="Note" transform="matrix(1.764,0,0,1.764,2063.86,2121.52)" d="M31.5,-8.09375 C29.7031,-11.4063 25.9063,-13.2031 21.2969,-13.2031 C17.9063,-13.2031 14.2031,-12.2031 10.5938,-10.2969 C4,-6.79688 0,-0.90625 0,4.20313 C0,5.59375 0.296875,7 1,8.29688 C2.79688,11.5938 6.59375,13.2969 11.2031,13.2969 C14.5938,13.2969 18.2969,12.4063 21.9063,10.5 C28.5,7 32.5,1.09375 32.5,-4 C32.5,-5.40625 32.2031,-6.79688 31.5,-8.09375"/>
<path class="Note" transform="matrix(1.764,0,0,1.764,2141.25,2055.37)" d="M31.5,-8.09375 C29.7031,-11.4063 25.9063,-13.2031 21.2969,-13.2031 C17.9063,-13.2031 14.2031,-12.2031 10.5938,-10.2969 C4,-6.79688 0,-0.90625 0,4.20313 C0,5.59375 0.296875,7 1,8.29688 C2.79688,11.5938 6.59375,13.2969 11.2031,13.2969 C14.5938,13.2969 18.2969,12.4063 21.9063,10.5 C28.5,7 32.5,1.09375 32.5,-4 C32.5,-5.40625 32.2031,-6.79688 31.5,-8.09375"/>
<path class="Note" transform="matrix(1.764,0,0,1.764,2512.36,2077.42)" d="M31.5,-8.09375 C29.7031,-11.4063 25.9063,-13.2031 21.2969,-13.2031 C17.9063,-13.2031 14.2031,-12.2031 10.5938,-10.2969 C4,-6.79688 0,-0.90625 0,4.20313 C0,5.59375 0.296875,7 1,8.29688 C2.79688,11.5938 6.59375,13.2969 11.2031,13.2969 C14.5938,13.2969 18.2969,12.4063 21.9063,10.5 C28.5,7 32.5,1.09375 32.5,-4 C32.5,-5.40625 32.2031,-6.79688 31.5,-8.09375"/>
<path class="Note" transform="matrix(1.764,0,0,1.764,2662.4,2055.37)" d="M31.5,-8.09375 C29.7031,-11.4063 25.9063,-13.2031 21.2969,-13.2031 C17.9063,-13.2031 14.2031,-12.2031 10.5938,-10.2969 C4,-6.79688 0,-0.90625 0,4.20313 C0,5.59375 0.296875,7 1,8.29688 C2.79688,11.5938 6.59375,13.2969 11.2031,13.2969 C14.5938,13.2969 18.2969,12.4063 21.9063,10.5 C28.5,7 32.5,1.09375 32.5,-4 C32.5,-5.40625 32.2031,-6.79688 31.5,-8.09375"/>
<path class="Note" transform="matrix(1.764,0,0,1.764,2756.18,2121.52)" d="M31.5,-8.09375 C29.7031,-11.4063 25.9063,-13.2031 21.2969,-13.2031 C17.9063,-13.2031 14.2031,-12.2031 10.5938,-10.2969 C4,-6.79688 0,-0.90625 0,4.20313 C0,5.59375 0.296875,7 1,8.29688 C2.79688,11.5938 6.59375,13.2969 11.2031,13.2969 C14.5938,13.2969 18.2969,12.4063 21.9063,10.5 C28.5,7 32.5,1.09375 32.5,-4 C32.5,-5.40625 32.2031,-6.79688 31.5,-8.09375"/>
<path class="Note" transform="matrix(1.764,0,0,1.764,2962.55,2121.52)" d="M31.5,-8.09375 C29.7031,-11.4063 25.9063,-13.2031 21.2969,-13.2031 C17.9063,-13.2031 14.2031,-12.2031 10.5938,-10.2969 C4,-6.79688 0,-0.90625 0,4.20313 C0,5.59375 0.296875,7 1,8.29688 C2.79688,11.5938 6.59375,13.2969 11.2031,13.2969 C14.5938,13.2969 18.2969,12.4063 21.9063,10.5 C28.5,7 32.5,1.09375 32.5,-4 C32.5,-5.40625 32.2031,-6.79688 31.5,-8.09375"/>
<path class="Note" transform="matrix(1.764,0,0,1.764,3049.14,2165.62)" d="M31.5,-8.09375 C29.7031,-11.4063 25.9063,-13.2031 21.2969,-13.2031 C17.9063,-13.2031 14.2031,-12.2031 10.5938,-10.2969 C4,-6.79688 0,-0.90625 0,4.20313 C0,5.59375 0.296875,7 1,8.29688 C2.79688,11.5938 6.59375,13.2969 11.2031,13.2969 C14.5938,13.2969 18.2969,12.4063 21.9063,10.5 C28.5,7 32.5,1.09375 32.5,-4 C32.5,-5.40625 32.2031,-6.79688 31.5,-8.09375"/>
<path class="Note" transform="matrix(1.764,0,0,1.764,3135.73,2165.62)" d="M31.5,-8.09375 C29.7031,-11.4063 25.9063,-13.2031 21.2969,-13.2031 C17.9063,-13.2031 14.2031,-12.2031 10.5938,-10.2969 C4,-6.79688 0,-0.90625 0,4.20313 C0,5.59375 0.296875,7 1,8.29688 C2.79688,11.5938 6.59375,13.2969 11.2031,13.2969 C14.5938,13.2969 18.2969,12.4063 21.9063,10.5 C28.5,7 32.5,1.09375 32.5,-4 C32.5,-5.40625 32.2031,-6.79688 31.5,-8.09375"/>
<path class="Note" transform="matrix(1.764,0,0,1.764,3222.32,2165.62)" d="M31.5,-8.09375 C29.7031,-11.4063 25.9063,-13.2031 21.2969,-13.2031 C17.9063,-13.2031 14.2031,-12.2031 10.5938,-10.2969 C4,-6.79688 0,-0.90625 0,4.20313 C0,5.59375 0.296875,7 1,8.29688 C2.79688,11.5938 6.59375,13.2969 11.2031,13.2969 C14.5938,13.2969 18.2969,12.4063 21.9063,10.5 C28.5,7 32.5,1.09375 32.5,-4 C32.5,-5.40625 32.2031,-6.79688 31.5,-8.09375"/>
<path class="Note" transform="matrix(1.764,0,0,1.764,3308.91,2121.52)" d="M31.5,-8.09375 C29.7031,-11.4063 25.9063,-13.2031 21.2969,-13.2031 C17.9063,-13.2031 14.2031,-12.2031 10.5938,-10.2969 C4,-6.79688 0,-0.90625 0,4.20313 C0,5.59375 0.296875,7 1,8.29688 C2.79688,11.5938 6.59375,13.2969 11.2031,13.2969 C14.5938,13.2969 18.2969,12.4063 21.9063,10.5 C28.5,7 32.5,1.09375 32.5,-4 C32.5,-5.40625 32.2031,-6.79688 31.5,-8.09375"/>
<path class="Note" transform="matrix(1.764,0,0,1.764,3447.46,2121.52)" d="M31.5,-8.09375 C29.7031,-11.4063 25.9063,-13.2031 21.2969,-13.2031 C17.9063,-13.2031 14.2031,-12.2031 10.5938,-10.2969 C4,-6.79688 0,-0.90625 0,4.20313 C0,5.59375 0.296875,7 1,8.29688 C2.79688,11.5938 6.59375,13.2969 11.2031,13.2969 C14.5938,13.2969 18.2969,12.4063 21.9063,10.5 C28.5,7 32.5,1.09375 32.5,-4 C32.5,-5.40625 32.2031,-6.79688 31.5,-8.09375"/>
<path class="Note" transform="matrix(1.764,0,0,1.764,3671.12,2143.57)" d="M31.5,-8.09375 C29.7031,-11.4063 25.9063,-13.2031 21.2969,-13.2031 C17.9063,-13.2031 14.2031,-12.2031 10.5938,-10.2969 C4,-6.79688 0,-0.90625 0,4.20313 C0,5.59375 0.296875,7 1,8.29688 C2.79688,11.5938 6.59375,13.2969 11.2031,13.2969 C14.5938,13.2969 18.2969,12.4063 21.9063,10.5 C28.5,7 32.5,1.09375 32.5,-4 C32.5,-5.40625 32.2031,-6.79688 31.5,-8.09375"/>
<path class="Note" transform="matrix(1.764,0,0,1.764,3779.87,2121.52)" d="M31.5,-8.09375 C29.7031,-11.4063 25.9063,-13.2031 21.2969,-13.2031 C17.9063,-13.2031 14.2031,-12.2031 10.5938,-10.2969 C4,-6.79688 0,-0.90625 0,4.20313 C0,5.59375 0.296875,7 1,8.29688 C2.79688,11.5938 6.59375,13.2969 11.2031,13.2969 C14.5938,13.2969 18.2969,12.4063 21.9063,10.5 C28.5,7 32.5,1.09375 32.5,-4 C32.5,-5.40625 32.2031,-6.79688 31.5,-8.09375"/>
<path class="Note" transform="matrix(1.764,0,0,1.764,3888.63,2143.57)" d="M31.5,-8.09375 C29.7031,-11.4063 25.9063,-13.2031 21.2969,-13.2031 C17.9063,-13.2031 14.2031,-12.2031 10.5938,-10.2969 C4,-6.79688 0,-0.90625 0,4.20313 C0,5.59375 0.296875,7 1,8.29688 C2.79688,11.5938 6.59375,13.2969 11.2031,13.2969 C14.5938,13.2969 18.2969,12.4063 21.9063,10.5 C28.5,7 32.5,1.09375 32.5,-4 C32.5,-5.40625 32.2031,-6.79688 31.5,-8.09375"/>
<path class="Note" transform="matrix(1.764,0,0,1.764,3997.38,2165.62)" d="M31.5,-8.09375 C29.7031,-11.4063 25.9063,-13.2031 21.2969,-13.2031 C17.9063,-13.2031 14.2031,-12.2031 10.5938,-10.2969 C4,-6.79688 0,-0.90625 0,4.20313 C0,5.59375 0.296875,7 1,8.29688 C2.79688,11.5938 6.59375,13.2969 11.2031,13.2969 C14.5938,13.2969 18.2969,12.4063 21.9063,10.5 C28.5,7 32.5,1.09375 32.5,-4 C32.5,-5.40625 32.2031,-6.79688 31.5,-8.09375"/>
<path class="Clef" transform="matrix(1.764,0,0,1.764,114.966,511.866)" d="M63.3594,-5.92188 C62.125,-11.3438 59.4844,-15.1719 58.7031,-16.2031 C55.5156,-20.4844 51.5,-23.3281 46.8125,-24.6875 C43.7031,-25.5625 40.7031,-25.6875 38.2813,-25.5 C37.2344,-31.5156 36.2344,-37.3906 35.3281,-42.8438 C40.7813,-49.0156 44.4063,-54.8125 46.6875,-59.1094 C50.1563,-65.6875 51.2969,-70.2656 51.3594,-70.4688 C53.0781,-75.6875 53.4375,-83.3906 52.3281,-91.5938 C51.3281,-99.1406 49.2344,-105.859 46.875,-109.109 C45.8594,-110.531 44.7969,-111.266 43.7656,-111.266 C42.5469,-111.266 40.0313,-110.031 37.1406,-107.25 C34.8438,-105.063 31.5781,-101.172 29.0156,-95.1563 C26.0156,-88.0938 25.7969,-78.6094 26.1563,-71.8906 C26.5313,-64.6094 27.6406,-58.9219 27.6563,-58.875 C27.6719,-58.7813 27.9375,-57.2813 28.375,-54.7188 C28.1563,-54.4844 27.9063,-54.2656 27.6563,-54.0156 C26.625,-53.0156 25.4375,-51.8906 24.0469,-50.5 C23.1875,-49.6406 22.2344,-48.7344 21.2344,-47.7656 C12.7969,-39.625 0,-27.2969 0,-8.14063 C0,-3.4375 0.90625,0.984375 2.6875,5 C4.26563,8.59375 6.5625,11.875 9.5,14.75 C17.2344,22.3125 27.8281,25.5156 34.875,25.3594 C37.8281,25.2813 40.4688,25.0469 42.8594,24.5938 C44.6875,34.2031 45.8281,41.2344 45.8594,46.5781 C45.9063,53.0938 44.25,57.0781 40.3594,59.8438 C37.9219,61.5781 35.1094,62.5313 32.0156,62.6719 C29.4219,62.7969 27.1563,62.3281 25.7344,61.9219 L25.7188,61.9219 C25.7188,61.9219 25.4375,61.8281 25.4219,61.6406 C25.4063,61.4531 25.7656,61.4063 25.7656,61.4063 L25.7969,61.4063 C27.7188,60.9688 31.2813,59.7344 33.6406,56.4375 C35.4375,53.9063 36.3125,49.2813 34.4688,45.3438 C33.3594,42.9531 30.8594,40 25.2344,39.5469 C22.7344,39.3438 20.4688,39.8594 18.4688,41.0625 C16.6563,42.1406 15.1563,43.7813 14.1094,45.7813 C11.6563,50.4844 12.1094,56.2188 15.2344,60.0625 C18.2031,63.6875 22.8125,66 28.25,66.5781 C29.1094,66.6719 29.9531,66.7031 30.7969,66.7031 C35.2344,66.7031 39.625,65.5 43.2031,63.2969 C46.8594,60.7188 48.9844,56.7344 49.6563,51.1094 C50.2188,46.4688 49.8281,40.5469 48.4375,32.4688 C48.0781,30.375 47.5313,27.3438 46.875,23.5938 C52.625,21.6719 56.7813,18.0938 60.5469,12.2344 C63.8438,6.5 64.7813,0.390625 63.3594,-5.92188 M29.1406,20.2969 C24.5,19.0781 20.0625,16.5781 16.3125,13.0625 C15,11.8438 13.125,9.67188 11.6563,6.28125 C10.2969,3.10938 9.625,-0.328125 9.6875,-3.90625 C9.75,-8.60938 11.0625,-13.4375 13.5625,-18.2188 C16.4844,-23.7969 21.0469,-29.3281 27.1094,-34.6563 C28.5625,-35.9375 29.9375,-37.2188 31.2188,-38.5 C31.9844,-34.2344 32.8125,-29.5469 33.6875,-24.6719 C29.8438,-23.4063 25.0938,-20.25 21.9844,-14.5938 C18.4375,-8.03125 18.5781,-2.5 19.3125,0.984375 C20.25,5.4375 22.7813,9.20313 26.2344,11.2969 C27.1719,11.8594 31.2969,13.9844 33.1406,13.4063 C33.5156,13.2969 33.7813,13.0625 33.9219,12.7344 C34.4375,11.5625 33.4063,10.9219 31.8594,9.96875 C31.25,9.59375 30.5781,9.17188 29.8594,8.64063 C26.5313,6.15625 25.0781,1.70313 26.1563,-2.6875 C26.7344,-5.07813 28.0156,-7.25 29.8594,-8.95313 C31.5156,-10.5 33.5625,-11.5938 35.9375,-12.2344 C37.9844,-0.984375 40.0469,10.1719 41.6875,18.5313 C41.8125,19.2188 41.9531,19.8906 42.0781,20.5625 C37.7031,21.5 33.3594,21.4063 29.1406,20.2969 M40.4688,-12.9063 C50.8125,-13.375 55.0781,-5.9375 55.9688,-1.10938 C56.4375,1.4375 56.4375,5.875 54.8906,10.0938 C53.7188,13.2656 51.2656,17.3438 46.125,19.4063 C46.0625,18.9844 45.9844,18.5469 45.9063,18.125 C44.3594,9.34375 42.4219,-1.65625 40.4688,-12.9063 M33.1406,-83.8594 C34.9219,-89.5938 37.6563,-92.8438 39.6563,-94.5781 C41.4063,-96.0938 43.0469,-96.8125 43.9688,-96.8125 C44.1094,-96.8125 44.2344,-96.7813 44.3281,-96.75 C44.7969,-96.6094 45.3281,-96.0469 45.7969,-95.1719 C48.1094,-90.8906 47.3594,-84.1719 46.0156,-79.7344 C44.3906,-74.3281 41.4688,-68.7188 32.6719,-59.1094 C32.5,-60.2188 32.3438,-61.2656 32.1875,-62.25 C30.9375,-70.5313 31.2656,-77.8125 33.1406,-83.8594"/>
<path class="Clef" transform="matrix(1.764,0,0,1.764,114.966,1349.77)" d="M63.3594,-5.92188 C62.125,-11.3438 59.4844,-15.1719 58.7031,-16.2031 C55.5156,-20.4844 51.5,-23.3281 46.8125,-24.6875 C43.7031,-25.5625 40.7031,-25.6875 38.2813,-25.5 C37.2344,-31.5156 36.2344,-37.3906 35.3281,-42.8438 C40.7813,-49.0156 44.4063,-54.8125 46.6875,-59.1094 C50.1563,-65.6875 51.2969,-70.2656 51.3594,-70.4688 C53.0781,-75.6875 53.4375,-83.3906 52.3281,-91.5938 C51.3281,-99.1406 49.2344,-105.859 46.875,-109.109 C45.8594,-110.531 44.7969,-111.266 43.7656,-111.266 C42.5469,-111.266 40.0313,-110.031 37.1406,-107.25 C34.8438,-105.063 31.5781,-101.172 29.0156,-95.1563 C26.0156,-88.0938 25.7969,-78.6094 26.1563,-71.8906 C26.5313,-64.6094 27.6406,-58.9219 27.6563,-58.875 C27.6719,-58.7813 27.9375,-57.2813 28.375,-54.7188 C28.1563,-54.4844 27.9063,-54.2656 27.6563,-54.0156 C26.625,-53.0156 25.4375,-51.8906 24.0469,-50.5 C23.1875,-49.6406 22.2344,-48.7344 21.2344,-47.7656 C12.7969,-39.625 0,-27.2969 0,-8.14063 C0,-3.4375 0.90625,0.984375 2.6875,5 C4.26563,8.59375 6.5625,11.875 9.5,14.75 C17.2344,22.3125 27.8281,25.5156 34.875,25.3594 C37.8281,25.2813 40.4688,25.0469 42.8594,24.5938 C44.6875,34.2031 45.8281,41.2344 45.8594,46.5781 C45.9063,53.0938 44.25,57.0781 40.3594,59.8438 C37.9219,61.5781 35.1094,62.5313 32.0156,62.6719 C29.4219,62.7969 27.1563,62.3281 25.7344,61.9219 L25.7188,61.9219 C25.7188,61.9219 25.4375,61.8281 25.4219,61.6406 C25.4063,61.4531 25.7656,61.4063 25.7656,61.4063 L25.7969,61.4063 C27.7188,60.9688 31.2813,59.7344 33.6406,56.4375 C35.4375,53.9063 36.3125,49.2813 34.4688,45.3438 C33.3594,42.9531 30.8594,40 25.2344,39.5469 C22.7344,39.3438 20.4688,39.8594 18.4688,41.0625 C16.6563,42.1406 15.1563,43.7813 14.1094,45.7813 C11.6563,50.4844 12.1094,56.2188 15.2344,60.0625 C18.2031,63.6875 22.8125,66 28.25,66.5781 C29.1094,66.6719 29.9531,66.7031 30.7969,66.7031 C35.2344,66.7031 39.625,65.5 43.2031,63.2969 C46.8594,60.7188 48.9844,56.7344 49.6563,51.1094 C50.2188,46.4688 49.8281,40.5469 48.4375,32.4688 C48.0781,30.375 47.5313,27.3438 46.875,23.5938 C52.625,21.6719 56.7813,18.0938 60.5469,12.2344 C63.8438,6.5 64.7813,0.390625 63.3594,-5.92188 M29.1406,20.2969 C24.5,19.0781 20.0625,16.5781 16.3125,13.0625 C15,11.8438 13.125,9.67188 11.6563,6.28125 C10.2969,3.10938 9.625,-0.328125 9.6875,-3.90625 C9.75,-8.60938 11.0625,-13.4375 13.5625,-18.2188 C16.4844,-23.7969 21.0469,-29.3281 27.1094,-34.6563 C28.5625,-35.9375 29.9375,-37.2188 31.2188,-38.5 C31.9844,-34.2344 32.8125,-29.5469 33.6875,-24.6719 C29.8438,-23.4063 25.0938,-20.25 21.9844,-14.5938 C18.4375,-8.03125 18.5781,-2.5 19.3125,0.984375 C20.25,5.4375 22.7813,9.20313 26.2344,11.2969 C27.1719,11.8594 31.2969,13.9844 33.1406,13.4063 C33.5156,13.2969 33.7813,13.0625 33.9219,12.7344 C34.4375,11.5625 33.4063,10.9219 31.8594,9.96875 C31.25,9.59375 30.5781,9.17188 29.8594,8.64063 C26.5313,6.15625 25.0781,1.70313 26.1563,-2.6875 C26.7344,-5.07813 28.0156,-7.25 29.8594,-8.95313 C31.5156,-10.5 33.5625,-11.5938 35.9375,-12.2344 C37.9844,-0.984375 40.0469,10.1719 41.6875,18.5313 C41.8125,19.2188 41.9531,19.8906 42.0781,20.5625 C37.7031,21.5 33.3594,21.4063 29.1406,20.2969 M40.4688,-12.9063 C50.8125,-13.375 55.0781,-5.9375 55.9688,-1.10938 C56.4375,1.4375 56.4375,5.875 54.8906,10.0938 C53.7188,13.2656 51.2656,17.3438 46.125,19.4063 C46.0625,18.9844 45.9844,18.5469 45.9063,18.125 C44.3594,9.34375 42.4219,-1.65625 40.4688,-12.9063 M33.1406,-83.8594 C34.9219,-89.5938 37.6563,-92.8438 39.6563,-94.5781 C41.4063,-96.0938 43.0469,-96.8125 43.9688,-96.8125 C44.1094,-96.8125 44.2344,-96.7813 44.3281,-96.75 C44.7969,-96.6094 45.3281,-96.0469 45.7969,-95.1719 C48.1094,-90.8906 47.3594,-84.1719 46.0156,-79.7344 C44.3906,-74.3281 41.4688,-68.7188 32.6719,-59.1094 C32.5,-60.2188 32.3438,-61.2656 32.1875,-62.25 C30.9375,-70.5313 31.2656,-77.8125 33.1406,-83.8594"/>
<path class="Clef" transform="matrix(1.764,0,0,1.764,114.966,2187.67)" d="M63.3594,-5.92188 C62.125,-11.3438 59.4844,-15.1719 58.7031,-16.2031 C55.5156,-20.4844 51.5,-23.3281 46.8125,-24.6875 C43.7031,-25.5625 40.7031,-25.6875 38.2813,-25.5 C37.2344,-31.5156 36.2344,-37.3906 35.3281,-42.8438 C40.7813,-49.0156 44.4063,-54.8125 46.6875,-59.1094 C50.1563,-65.6875 51.2969,-70.2656 51.3594,-70.4688 C53.0781,-75.6875 53.4375,-83.3906 52.3281,-91.5938 C51.3281,-99.1406 49.2344,-105.859 46.875,-109.109 C45.8594,-110.531 44.7969,-111.266 43.7656,-111.266 C42.5469,-111.266 40.0313,-110.031 37.1406,-107.25 C34.8438,-105.063 31.5781,-101.172 29.0156,-95.1563 C26.0156,-88.0938 25.7969,-78.6094 26.1563,-71.8906 C26.5313,-64.6094 27.6406,-58.9219 27.6563,-58.875 C27.6719,-58.7813 27.9375,-57.2813 28.375,-54.7188 C28.1563,-54.4844 27.9063,-54.2656 27.6563,-54.0156 C26.625,-53.0156 25.4375,-51.8906 24.0469,-50.5 C23.1875,-49.6406 22.2344,-48.7344 21.2344,-47.7656 C12.7969,-39.625 0,-27.2969 0,-8.14063 C0,-3.4375 0.90625,0.984375 2.6875,5 C4.26563,8.59375 6.5625,11.875 9.5,14.75 C17.2344,22.3125 27.8281,25.5156 34.875,25.3594 C37.8281,25.2813 40.4688,25.0469 42.8594,24.5938 C44.6875,34.2031 45.8281,41.2344 45.8594,46.5781 C45.9063,53.0938 44.25,57.0781 40.3594,59.8438 C37.9219,61.5781 35.1094,62.5313 32.0156,62.6719 C29.4219,62.7969 27.1563,62.3281 25.7344,61.9219 L25.7188,61.9219 C25.7188,61.9219 25.4375,61.8281 25.4219,61.6406 C25.4063,61.4531 25.7656,61.4063 25.7656,61.4063 L25.7969,61.4063 C27.7188,60.9688 31.2813,59.7344 33.6406,56.4375 C35.4375,53.9063 36.3125,49.2813 34.4688,45.3438 C33.3594,42.9531 30.8594,40 25.2344,39.5469 C22.7344,39.3438 20.4688,39.8594 18.4688,41.0625 C16.6563,42.1406 15.1563,43.7813 14.1094,45.7813 C11.6563,50.4844 12.1094,56.2188 15.2344,60.0625 C18.2031,63.6875 22.8125,66 28.25,66.5781 C29.1094,66.6719 29.9531,66.7031 30.7969,66.7031 C35.2344,66.7031 39.625,65.5 43.2031,63.2969 C46.8594,60.7188 48.9844,56.7344 49.6563,51.1094 C50.2188,46.4688 49.8281,40.5469 48.4375,32.4688 C48.0781,30.375 47.5313,27.3438 46.875,23.5938 C52.625,21.6719 56.7813,18.0938 60.5469,12.2344 C63.8438,6.5 64.7813,0.390625 63.3594,-5.92188 M29.1406,20.2969 C24.5,19.0781 20.0625,16.5781 16.3125,13.0625 C15,11.8438 13.125,9.67188 11.6563,6.28125 C10.2969,3.10938 9.625,-0.328125 9.6875,-3.90625 C9.75,-8.60938 11.0625,-13.4375 13.5625,-18.2188 C16.4844,-23.7969 21.0469,-29.3281 27.1094,-34.6563 C28.5625,-35.9375 29.9375,-37.2188 31.2188,-38.5 C31.9844,-34.2344 32.8125,-29.5469 33.6875,-24.6719 C29.8438,-23.4063 25.0938,-20.25 21.9844,-14.5938 C18.4375,-8.03125 18.5781,-2.5 19.3125,0.984375 C20.25,5.4375 22.7813,9.20313 26.2344,11.2969 C27.1719,11.8594 31.2969,13.9844 33.1406,13.4063 C33.5156,13.2969 33.7813,13.0625 33.9219,12.7344 C34.4375,11.5625 33.4063,10.9219 31.8594,9.96875 C31.25,9.59375 30.5781,9.17188 29.8594,8.64063 C26.5313,6.15625 25.0781,1.70313 26.1563,-2.6875 C26.7344,-5.07813 28.0156,-7.25 29.8594,-8.95313 C31.5156,-10.5 33.5625,-11.5938 35.9375,-12.2344 C37.9844,-0.984375 40.0469,10.1719 41.6875,18.5313 C41.8125,19.2188 41.9531,19.8906 42.0781,20.5625 C37.7031,21.5 33.3594,21.4063 29.1406,20.2969 M40.4688,-12.9063 C50.8125,-13.375 55.0781,-5.9375 55.9688,-1.10938 C56.4375,1.4375 56.4375,5.875 54.8906,10.0938 C53.7188,13.2656 51.2656,17.3438 46.125,19.4063 C46.0625,18.9844 45.9844,18.5469 45.9063,18.125 C44.3594,9.34375 42.4219,-1.65625 40.4688,-12.9063 M33.1406,-83.8594 C34.9219,-89.5938 37.6563,-92.8438 39.6563,-94.5781 C41.4063,-96.0938 43.0469,-96.8125 43.9688,-96.8125 C44.1094,-96.8125 44.2344,-96.7813 44.3281,-96.75 C44.7969,-96.6094 45.3281,-96.0469 45.7969,-95.1719 C48.1094,-90.8906 47.3594,-84.1719 46.0156,-79.7344 C44.3906,-74.3281 41.4688,-68.7188 32.6719,-59.1094 C32.5,-60.2188 32.3438,-61.2656 32.1875,-62.25 C30.9375,-70.5313 31.2656,-77.8125 33.1406,-83.8594"/>
<path class="KeySig" transform="matrix(1.764,0,0,1.764,280.754,467.766)" d="M20.0938,-7.90625 C19.5,-11.7969 17.0938,-15.5 12,-15.5 C7,-15.5 4.09375,-12.4063 3.59375,-11.7969 L4,-43.9063 C4,-44.7031 3.40625,-45.2969 2.59375,-45.2969 L1.40625,-45.2969 C0.59375,-45.2969 0,-44.7031 0,-43.9063 L0.5,16.2031 C0.5,17 1.09375,17.5938 1.90625,17.5938 C2.09375,17.5938 2.5,17.5 2.70313,17.4063 C3.09375,17.2031 9.59375,14 15,7.90625 C18.7969,3.59375 20.2969,-1.29688 20.2969,-5.40625 C20.2969,-6.29688 20.2031,-7.09375 20.0938,-7.90625 M13.2031,-4 C13.2031,-2.5 12.7969,2.09375 10.2969,5.90625 C8.59375,8.5 5.20313,11.2031 3.29688,12.7031 L3.59375,-6.79688 C3.79688,-7.70313 5.29688,-10.5938 9.29688,-10.5938 C12.9063,-10.5938 13.2031,-7.20313 13.2031,-5.09375 L13.2031,-4 "/>
<path class="KeySig" transform="matrix(1.764,0,0,1.764,280.754,1305.67)" d="M20.0938,-7.90625 C19.5,-11.7969 17.0938,-15.5 12,-15.5 C7,-15.5 4.09375,-12.4063 3.59375,-11.7969 L4,-43.9063 C4,-44.7031 3.40625,-45.2969 2.59375,-45.2969 L1.40625,-45.2969 C0.59375,-45.2969 0,-44.7031 0,-43.9063 L0.5,16.2031 C0.5,17 1.09375,17.5938 1.90625,17.5938 C2.09375,17.5938 2.5,17.5 2.70313,17.4063 C3.09375,17.2031 9.59375,14 15,7.90625 C18.7969,3.59375 20.2969,-1.29688 20.2969,-5.40625 C20.2969,-6.29688 20.2031,-7.09375 20.0938,-7.90625 M13.2031,-4 C13.2031,-2.5 12.7969,2.09375 10.2969,5.90625 C8.59375,8.5 5.20313,11.2031 3.29688,12.7031 L3.59375,-6.79688 C3.79688,-7.70313 5.29688,-10.5938 9.29688,-10.5938 C12.9063,-10.5938 13.2031,-7.20313 13.2031,-5.09375 L13.2031,-4 "/>
<path class="KeySig" transform="matrix(1.764,0,0,1.764,280.754,2143.57)" d="M20.0938,-7.90625 C19.5,-11.7969 17.0938,-15.5 12,-15.5 C7,-15.5 4.09375,-12.4063 3.59375,-11.7969 L4,-43.9063 C4,-44.7031 3.40625,-45.2969 2.59375,-45.2969 L1.40625,-45.2969 C0.59375,-45.2969 0,-44.7031 0,-43.9063 L0.5,16.2031 C0.5,17 1.09375,17.5938 1.90625,17.5938 C2.09375,17.5938 2.5,17.5 2.70313,17.4063 C3.09375,17.2031 9.59375,14 15,7.90625 C18.7969,3.59375 20.2969,-1.29688 20.2969,-5.40625 C20.2969,-6.29688 20.2031,-7.09375 20.0938,-7.90625 M13.2031,-4 C13.2031,-2.5 12.7969,2.09375 10.2969,5.90625 C8.59375,8.5 5.20313,11.2031 3.29688,12.7031 L3.59375,-6.79688 C3.79688,-7.70313 5.29688,-10.5938 9.29688,-10.5938 C12.9063,-10.5938 13.2031,-7.20313 13.2031,-5.09375 L13.2031,-4 "/>
<path class="TimeSig" transform="matrix(1.764,0,0,1.764,367.053,423.9)" d="M3.59375,12.625 L20.7656,12.625 L20.7656,20.0781 L12.5469,20.0781 C11.7656,20.0781 11.125,20.7031 11.125,21.4844 L11.125,23.3906 C11.125,24.1719 11.7656,24.7969 12.5469,24.7969 L42.7969,24.7969 C43.5781,24.7969 44.2031,24.1719 44.2031,23.3906 L44.2031,21.4844 C44.2031,20.7031 43.5781,20.0781 42.7969,20.0781 L33.8594,20.0781 L33.8594,12.625 L42.7969,12.625 C43.5781,12.625 44.2031,12 44.2031,11.2188 L44.2031,9.3125 C44.2031,8.53125 43.5781,7.90625 42.7969,7.90625 L33.8594,7.90625 L33.8594,-8.0625 C33.8594,-8.59375 33.5469,-9.07813 33.0781,-9.3125 L31.8594,-9.92188 C31.3281,-10.1719 30.7031,-10.0781 30.2656,-9.6875 L21.2188,-1.375 C20.9375,-1.09375 20.7656,-0.734375 20.7656,-0.328125 L20.7656,7.90625 L9.25,7.90625 C9.25,7.90625 20.375,-4.125 32.2188,-19.8906 C33.0781,-21.0469 32.5781,-22.0938 32.3906,-22.2813 L30.2188,-24.4844 C29.9531,-24.75 29.5938,-24.9063 29.2188,-24.9063 C28.625,-24.9063 15.0625,-24.875 14.3438,-24.9063 C13.625,-24.9219 13.0938,-24.2969 13.0156,-23.6875 C13.0156,-23.6875 12.4844,-16.3281 9.875,-8.1875 C7.28125,-0.078125 4.34375,4.90625 1.6875,8.53125 C1.6875,8.53125 1.14063,9.51563 1.5,10.2656 C1.84375,11.0156 2.48438,12.0938 2.48438,12.0938 C2.48438,12.0938 2.73438,12.625 3.59375,12.625"/>
<path class="TimeSig" transform="matrix(1.764,0,0,1.764,367.053,511.632)" d="M3.59375,12.625 L20.7656,12.625 L20.7656,20.0781 L12.5469,20.0781 C11.7656,20.0781 11.125,20.7031 11.125,21.4844 L11.125,23.3906 C11.125,24.1719 11.7656,24.7969 12.5469,24.7969 L42.7969,24.7969 C43.5781,24.7969 44.2031,24.1719 44.2031,23.3906 L44.2031,21.4844 C44.2031,20.7031 43.5781,20.0781 42.7969,20.0781 L33.8594,20.0781 L33.8594,12.625 L42.7969,12.625 C43.5781,12.625 44.2031,12 44.2031,11.2188 L44.2031,9.3125 C44.2031,8.53125 43.5781,7.90625 42.7969,7.90625 L33.8594,7.90625 L33.8594,-8.0625 C33.8594,-8.59375 33.5469,-9.07813 33.0781,-9.3125 L31.8594,-9.92188 C31.3281,-10.1719 30.7031,-10.0781 30.2656,-9.6875 L21.2188,-1.375 C20.9375,-1.09375 20.7656,-0.734375 20.7656,-0.328125 L20.7656,7.90625 L9.25,7.90625 C9.25,7.90625 20.375,-4.125 32.2188,-19.8906 C33.0781,-21.0469 32.5781,-22.0938 32.3906,-22.2813 L30.2188,-24.4844 C29.9531,-24.75 29.5938,-24.9063 29.2188,-24.9063 C28.625,-24.9063 15.0625,-24.875 14.3438,-24.9063 C13.625,-24.9219 13.0938,-24.2969 13.0156,-23.6875 C13.0156,-23.6875 12.4844,-16.3281 9.875,-8.1875 C7.28125,-0.078125 4.34375,4.90625 1.6875,8.53125 C1.6875,8.53125 1.14063,9.51563 1.5,10.2656 C1.84375,11.0156 2.48438,12.0938 2.48438,12.0938 C2.48438,12.0938 2.73438,12.625 3.59375,12.625"/>
<path class="TimeSig" transform="matrix(1.764,0,0,1.764,1724.36,2100.35)" d="M34.2031,3.90625 C33.4063,6.09375 31.4063,13.2969 26.5,13.2969 C20,13.2969 18.5938,9.29688 13.2031,9.29688 C12.4063,9.29688 11.5938,9.40625 10.5938,9.59375 C10.5938,9.59375 13.0938,5.79688 23.7031,2.5 C34.2969,-0.796875 37,-6 37,-12 C37,-16.2031 35.1094,-24.5 20,-24.5 C4.90625,-24.5 2.09375,-15.4063 2.09375,-10.7969 C2.09375,-6.70313 5.5,-3.40625 9.59375,-3.40625 C13.7031,-3.40625 17,-6.70313 17,-10.7969 C17,-13.5938 15,-16.7031 12.4063,-17.7031 C12.0938,-17.7969 11.7031,-18.2969 11.7031,-18.7969 C11.7031,-19.4063 12.2031,-20.0938 14,-20.5938 C14.5,-20.7969 15.9063,-21.0938 17.4063,-21.0938 C18.7969,-21.0938 20.4063,-20.7969 21.5938,-20 C23.5,-18.7969 24.2031,-17 24.2031,-12.5 C24.2031,-0.796875 10.2969,1.70313 4.5,10.4063 C4.5,10.4063 1.5,14.5938 1.5,19.2969 C1.5,24 3.90625,24.2969 5.09375,24.2969 C6.70313,24.2969 8.40625,23 8.40625,21.2031 C8.40625,20.7969 8.29688,20.4063 8.09375,19.9063 C7.5,18.5 7.29688,17.4063 7.29688,16.5938 C7.29688,16.2969 7.29688,16 7.40625,15.7031 C7.5,15.0938 8.29688,14.0938 10.7031,14.0938 C13.5938,14.0938 14.7031,17.5 16.5,20.0938 C18.2969,22.7031 21.0938,24.2969 24.2969,24.2969 C27.5,24.2969 31.7969,22 33.6094,18.2969 C35.4063,14.5938 37.7031,7.09375 37.7031,4.40625 C37.7031,3.09375 36.9063,2.5 36,2.5 C35.2969,2.5 34.6094,2.90625 34.2031,3.90625"/>
<path class="TimeSig" transform="matrix(1.764,0,0,1.764,1718.54,2187.43)" d="M3.59375,12.625 L20.7656,12.625 L20.7656,20.0781 L12.5469,20.0781 C11.7656,20.0781 11.125,20.7031 11.125,21.4844 L11.125,23.3906 C11.125,24.1719 11.7656,24.7969 12.5469,24.7969 L42.7969,24.7969 C43.5781,24.7969 44.2031,24.1719 44.2031,23.3906 L44.2031,21.4844 C44.2031,20.7031 43.5781,20.0781 42.7969,20.0781 L33.8594,20.0781 L33.8594,12.625 L42.7969,12.625 C43.5781,12.625 44.2031,12 44.2031,11.2188 L44.2031,9.3125 C44.2031,8.53125 43.5781,7.90625 42.7969,7.90625 L33.8594,7.90625 L33.8594,-8.0625 C33.8594,-8.59375 33.5469,-9.07813 33.0781,-9.3125 L31.8594,-9.92188 C31.3281,-10.1719 30.7031,-10.0781 30.2656,-9.6875 L21.2188,-1.375 C20.9375,-1.09375 20.7656,-0.734375 20.7656,-0.328125 L20.7656,7.90625 L9.25,7.90625 C9.25,7.90625 20.375,-4.125 32.2188,-19.8906 C33.0781,-21.0469 32.5781,-22.0938 32.3906,-22.2813 L30.2188,-24.4844 C29.9531,-24.75 29.5938,-24.9063 29.2188,-24.9063 C28.625,-24.9063 15.0625,-24.875 14.3438,-24.9063 C13.625,-24.9219 13.0938,-24.2969 13.0156,-23.6875 C13.0156,-23.6875 12.4844,-16.3281 9.875,-8.1875 C7.28125,-0.078125 4.34375,4.90625 1.6875,8.53125 C1.6875,8.53125 1.14063,9.51563 1.5,10.2656 C1.84375,11.0156 2.48438,12.0938 2.48438,12.0938 C2.48438,12.0938 2.73438,12.625 3.59375,12.625"/>
<path class="Rest" transform="matrix(1.764,0,0,1.764,511.163,467.766)" d="M26.7344,-20.2656 C25.9844,-20.5469 25.3125,-20.2031 24.9844,-19.5938 C24.6563,-18.9844 21.4688,-13.0625 17.0469,-9.79688 C15.6563,-8.78125 14.0625,-8.14063 12.5,-7.8125 C13.625,-9.0625 14.2969,-10.7344 14.2969,-12.5469 C14.2969,-16.5 11.0938,-19.7031 7.15625,-19.7031 C3.20313,-19.7031 0,-16.5 0,-12.5469 C0,-9.54688 1.875,-6.95313 4.51563,-5.90625 C6.04688,-5.1875 7.95313,-4.73438 10,-4.73438 C12.8438,-4.73438 15.9531,-5.5625 18.6719,-7.5625 C19.9375,-8.48438 21.125,-9.6875 22.2031,-10.9375 L10.8125,24.6875 L13.4531,25.5469 L27.5313,-18.5469 C27.7656,-19.2813 27.4688,-19.9688 26.7344,-20.2656"/>
<path class="Rest" transform="matrix(1.764,0,0,1.764,369.478,1305.67)" d="M26.7344,-20.2656 C25.9844,-20.5469 25.3125,-20.2031 24.9844,-19.5938 C24.6563,-18.9844 21.4688,-13.0625 17.0469,-9.79688 C15.6563,-8.78125 14.0625,-8.14063 12.5,-7.8125 C13.625,-9.0625 14.2969,-10.7344 14.2969,-12.5469 C14.2969,-16.5 11.0938,-19.7031 7.15625,-19.7031 C3.20313,-19.7031 0,-16.5 0,-12.5469 C0,-9.54688 1.875,-6.95313 4.51563,-5.90625 C6.04688,-5.1875 7.95313,-4.73438 10,-4.73438 C12.8438,-4.73438 15.9531,-5.5625 18.6719,-7.5625 C19.9375,-8.48438 21.125,-9.6875 22.2031,-10.9375 L10.8125,24.6875 L13.4531,25.5469 L27.5313,-18.5469 C27.7656,-19.2813 27.4688,-19.9688 26.7344,-20.2656"/>
<path class="Rest" transform="matrix(1.764,0,0,1.764,1739.4,1305.67)" d="M33.4688,-20.2656 C32.7188,-20.5313 32.0469,-20.1719 31.7344,-19.5469 C31.4375,-18.9375 28.6094,-13.5 24.2969,-10.0938 C22.9531,-9.03125 21.3906,-8.34375 19.8281,-7.95313 C20.9063,-9.26563 21.5313,-10.9375 21.4688,-12.75 C21.3281,-16.6875 18.0313,-19.7656 14.0938,-19.625 C10.1563,-19.4844 7.0625,-16.1875 7.20313,-12.25 C7.3125,-9.23438 9.26563,-6.73438 11.9375,-5.78125 C13.5,-5.09375 15.4063,-4.73438 17.4531,-4.79688 C20.2969,-4.90625 23.375,-5.84375 26.0156,-7.92188 C27.25,-8.89063 28.4063,-10.125 29.4375,-11.4219 L29.4375,-11.4063 L24.9375,4.5 C24.9375,4.5 24.9375,4.51563 24.9219,4.51563 L24.9219,4.53125 C24.4531,5.48438 21.2031,11.6563 17.1875,14.8281 C15.8438,15.9063 14.2813,16.5938 12.7188,16.9688 C13.7969,15.6719 14.4219,14 14.3594,12.1875 C14.2188,8.23438 10.9219,5.15625 6.98438,5.29688 C3.04688,5.4375 -0.046875,8.73438 0.09375,12.6875 C0.203125,15.6875 2.15625,18.1875 4.82813,19.1563 C6.39063,19.8281 8.29688,20.2031 10.3438,20.125 C13.1875,20.0313 16.2656,19.0938 18.9063,17.0156 C20.125,16.0469 21.2813,14.8281 22.3125,13.5156 L12.1094,49.9844 L14.7813,50.7344 L33.4531,-15.4688 L34.3281,-18.5938 C34.5313,-19.3281 34.2188,-20.0156 33.4688,-20.2656"/>
<path class="Rest" transform="matrix(1.764,0,0,1.764,1862.65,2143.57)" d="M26.7344,-20.2656 C25.9844,-20.5469 25.3125,-20.2031 24.9844,-19.5938 C24.6563,-18.9844 21.4688,-13.0625 17.0469,-9.79688 C15.6563,-8.78125 14.0625,-8.14063 12.5,-7.8125 C13.625,-9.0625 14.2969,-10.7344 14.2969,-12.5469 C14.2969,-16.5 11.0938,-19.7031 7.15625,-19.7031 C3.20313,-19.7031 0,-16.5 0,-12.5469 C0,-9.54688 1.875,-6.95313 4.51563,-5.90625 C6.04688,-5.1875 7.95313,-4.73438 10,-4.73438 C12.8438,-4.73438 15.9531,-5.5625 18.6719,-7.5625 C19.9375,-8.48438 21.125,-9.6875 22.2031,-10.9375 L10.8125,24.6875 L13.4531,25.5469 L27.5313,-18.5469 C27.7656,-19.2813 27.4688,-19.9688 26.7344,-20.2656"/>
<path class="Beam" fill-rule="evenodd" d="M755.579,643.427 L878.913,597.522 L878.913,621.049 L755.579,666.955 L755.579,643.427 "/>
<path class="Beam" fill-rule="evenodd" d="M992.545,578.016 L1360.2,578.016 L1360.2,600.066 L992.545,600.066 L992.545,578.016 "/>
<path class="Beam" fill-rule="evenodd" d="M1561.72,688.266 L1895.16,688.266 L1895.16,710.316 L1561.72,710.316 L1561.72,688.266 "/>
<path class="Beam" fill-rule="evenodd" d="M1999.84,578.016 L2349.58,578.016 L2349.58,600.066 L1999.84,600.066 L1999.84,578.016 "/>
<path class="Beam" fill-rule="evenodd" d="M2551.11,688.266 L2884.55,688.266 L2884.55,710.316 L2551.11,710.316 L2551.11,688.266 "/>
<path class="Beam" fill-rule="evenodd" d="M2989.22,578.016 L3338.97,578.016 L3338.97,600.066 L2989.22,600.066 L2989.22,578.016 "/>
<path class="Beam" fill-rule="evenodd" d="M3540.49,688.266 L3830.43,688.266 L3830.43,710.316 L3540.49,710.316 L3540.49,688.266 "/>
<path class="Beam" fill-rule="evenodd" d="M622.479,1437.8 L753.83,1414.9 L753.83,1437.29 L622.479,1460.18 L622.479,1437.8 "/>
<path class="Beam" fill-rule="evenodd" d="M880.466,1371.82 L1264.82,1371.82 L1264.82,1393.87 L880.466,1393.87 L880.466,1371.82 "/>
<path class="Beam" fill-rule="evenodd" d="M1466.34,1393.87 L1607.72,1393.87 L1607.72,1415.92 L1466.34,1415.92 L1466.34,1393.87 "/>
<path class="Beam" fill-rule="evenodd" d="M1824.74,1514.58 L2000.25,1457.89 L2000.25,1481.06 L1824.74,1537.75 L1824.74,1514.58 "/>
<path class="Beam" fill-rule="evenodd" d="M1824.74,1481.51 L2000.25,1424.81 L2000.25,1447.98 L1824.74,1504.68 L1824.74,1481.51 "/>
<path class="Beam" fill-rule="evenodd" d="M2126.89,1371.82 L2541.33,1371.82 L2541.33,1393.87 L2126.89,1393.87 L2126.89,1371.82 "/>
<path class="Beam" fill-rule="evenodd" d="M2747.1,1504.12 L3032.05,1504.12 L3032.05,1526.17 L2747.1,1526.17 L2747.1,1504.12 "/>
<path class="Beam" fill-rule="evenodd" d="M2747.1,1471.04 L3032.05,1471.04 L3032.05,1493.09 L2747.1,1493.09 L2747.1,1471.04 "/>
<path class="Beam" fill-rule="evenodd" d="M3158.68,1382.84 L3443.62,1382.84 L3443.62,1404.89 L3158.68,1404.89 L3158.68,1382.84 "/>
<path class="Beam" fill-rule="evenodd" d="M3158.68,1349.77 L3443.62,1349.77 L3443.62,1371.82 L3158.68,1371.82 L3158.68,1349.77 "/>
<path class="Beam" fill-rule="evenodd" d="M3532.14,1371.82 L3985.14,1371.82 L3985.14,1393.87 L3532.14,1393.87 L3532.14,1371.82 "/>
<path class="Beam" fill-rule="evenodd" d="M369.478,2319.97 L713.853,2319.97 L713.853,2342.02 L369.478,2342.02 L369.478,2319.97 "/>
<path class="Beam" fill-rule="evenodd" d="M822.177,2308.89 L1166.55,2342.44 L1166.55,2364.59 L822.177,2331.04 L822.177,2308.89 "/>
<path class="Beam" fill-rule="evenodd" d="M1986.47,2253.82 L2068.71,2253.82 L2068.71,2275.87 L1986.47,2275.87 L1986.47,2253.82 "/>
<path class="Beam" fill-rule="evenodd" d="M1986.47,2220.74 L2068.71,2220.74 L2068.71,2242.79 L1986.47,2242.79 L1986.47,2220.74 "/>
<path class="Beam" fill-rule="evenodd" d="M2662.4,2186.51 L2761.03,2232.89 L2761.03,2257.26 L2662.4,2210.87 L2662.4,2186.51 "/>
<path class="Beam" fill-rule="evenodd" d="M2962.55,2297.92 L3227.17,2297.92 L3227.17,2319.97 L2962.55,2319.97 L2962.55,2297.92 "/>
<path class="Beam" fill-rule="evenodd" d="M2962.55,2264.84 L3227.17,2264.84 L3227.17,2286.89 L2962.55,2286.89 L2962.55,2264.84 "/>
<path class="Beam" fill-rule="evenodd" d="M3308.91,2231.77 L3452.31,2231.77 L3452.31,2253.82 L3308.91,2253.82 L3308.91,2231.77 "/>
<path class="Beam" fill-rule="evenodd" d="M3671.12,2264.78 L3784.72,2253.27 L3784.72,2275.43 L3671.12,2286.95 L3671.12,2264.78 "/>
<path class="Beam" fill-rule="evenodd" d="M3888.63,2264.78 L4002.23,2276.3 L4002.23,2298.46 L3888.63,2286.95 L3888.63,2264.78 "/>
<path class="Hook" transform="matrix(1.764,0,0,1.764,682.111,423.666)" d="M3.5,3.5 C3.40625,3.20313 2.5,-0.296875 2.5,-0.5 C2.40625,-0.90625 1.79688,-1.20313 1.29688,-1.20313 C0.59375,-1.20313 0,-0.59375 0,0.09375 L0,16.5 L0,22.7031 C0,23.2031 0.40625,23.5938 0.796875,23.7969 C5,25.0938 13.7031,30.6094 20.2031,41.7031 C22,44.7969 24.9063,49 24.9063,57.4063 C24.9063,64.6094 23.7969,72.2031 22,79.2031 C21.7031,80.3125 21.4063,81.3125 22.5,81.7031 C23.5938,82.1094 24,81.3125 24.4063,80.3125 C28,71.5 28.9063,62.2969 28.9063,56.1094 L28.9063,54.2031 C28.4063,41.2969 21,31.7969 21,31.7969 C21.2969,31.7969 11.7969,19.5 9.09375,15.2969 C5.40625,9.59375 3.59375,3.90625 3.5,3.5"/>
<path class="Hook" transform="matrix(1.764,0,0,1.764,495.979,1526.17)" d="M2.5,0.40625 C2.5,0.203125 3.40625,-3.20313 3.5,-3.5 C3.59375,-3.90625 5.40625,-9.59375 9.09375,-15.2969 C11.7969,-19.5 21.2969,-31.7969 21,-31.7969 C21,-31.7969 28.4063,-41.2969 28.9063,-54.2031 L28.9063,-56.5 C28.9063,-62.6094 28.1094,-71.2031 24.5938,-79.9063 C24.2031,-80.9063 23.7969,-81.9063 22.7031,-81.5 C21.5938,-81.1094 21.9063,-79.9063 22.2031,-78.8125 C24,-71.7969 25,-64.6094 25,-57.4063 C25,-49 22,-44.7969 20.2031,-41.7031 C13.5938,-30.6094 5,-25.2031 0.796875,-23.7969 C0.296875,-23.5938 0,-23.2031 0,-22.7031 L0,-16.5 L0,-0.09375 C0,0.59375 0.59375,1.20313 1.29688,1.20313 C1.79688,1.20313 2.40625,0.796875 2.5,0.40625"/>
<path class="Harmony" d="M511.913,269.316 L543.835,269.316 C552.288,269.316 558.757,267.988 563.788,265.128 C573.382,259.722 578.71,248.894 578.71,234.644 C578.71,221.535 573.96,211.269 565.21,205.566 C559.991,202.238 552.96,200.722 542.132,200.722 L511.913,200.722 L511.913,205.191 L513.726,205.191 C519.038,205.285 520.851,205.566 521.601,206.519 C522.179,207.378 522.179,207.566 522.179,212.41 L522.179,257.628 C522.179,262.472 522.179,262.66 521.601,263.519 C520.851,264.472 519.038,264.753 513.726,264.847 L511.913,264.847 L511.913,269.316 M538.241,264.847 C533.382,264.847 532.819,264.285 532.819,259.628 L532.819,210.503 C532.819,205.863 533.491,205.191 538.241,205.191 L543.179,205.191 C559.413,205.191 566.163,214.019 566.163,235.019 C566.163,256.3 560.085,264.847 544.694,264.847 L538.241,264.847 "/>
<path class="Harmony" d="M609.929,225.05 L593.023,226.097 L593.023,230.175 L596.913,230.175 C600.523,230.269 601.007,230.847 601.007,234.925 L601.007,257.628 L601.007,261.332 L601.007,262.097 C600.898,263.519 600.804,264.097 600.429,264.566 C599.773,265.425 597.96,265.8 593.882,265.894 L593.491,265.894 L593.491,269.316 L617.429,269.316 L617.429,265.894 L617.054,265.894 C610.788,265.707 609.929,265.238 609.929,261.722 L609.929,257.628 L609.929,244.144 C609.929,235.691 614.585,229.41 620.757,229.41 C626.179,229.41 628.929,233.316 628.929,241.003 L628.929,257.628 L628.929,262.191 C628.835,263.425 628.741,264.097 628.273,264.566 C627.694,265.425 625.788,265.8 621.71,265.894 L621.335,265.894 L621.335,269.316 L645.366,269.316 L645.366,265.894 L644.991,265.894 C638.71,265.707 637.866,265.238 637.866,261.816 L637.866,257.628 L637.866,244.988 C637.866,235.488 642.132,229.41 648.788,229.41 C654.194,229.41 656.866,233.503 656.866,242.05 L656.866,257.628 L656.866,262.097 C656.773,263.425 656.663,264.097 656.194,264.566 C655.632,265.425 653.726,265.8 649.648,265.894 L649.257,265.894 L649.257,269.316 L673.304,269.316 L673.304,265.894 L672.913,265.894 C666.648,265.707 665.788,265.238 665.788,261.722 L665.788,257.628 L665.788,240.144 C665.788,234.253 665.226,232.269 662.757,229.035 C659.991,225.519 656.101,223.613 651.538,223.613 C645.366,223.613 640.804,226.566 636.726,233.113 C635.101,227.425 629.976,223.613 623.616,223.613 C617.819,223.613 613.632,226.378 609.929,232.363 L609.929,225.05 "/>
<path class="Harmony" d="M426.759,1038.62 L370.228,1038.62 L370.228,1043.09 L371.947,1043.09 C377.353,1043.18 379.166,1043.47 379.916,1044.42 C380.494,1045.28 380.494,1045.47 380.494,1050.31 L380.494,1095.53 C380.494,1100.37 380.494,1100.56 379.916,1101.42 C379.166,1102.37 377.353,1102.75 371.947,1102.75 L370.228,1102.75 L370.228,1107.22 L402.822,1107.22 L402.822,1102.75 L399.681,1102.75 C394.275,1102.75 392.462,1102.37 391.697,1101.42 C391.134,1100.56 391.134,1100.28 391.134,1095.53 L391.134,1073.97 L393.041,1073.97 C402.822,1073.59 406.337,1077.11 406.712,1087.65 L411.181,1087.65 L411.181,1056.48 L406.712,1056.48 C406.15,1065.79 402.431,1069.4 393.416,1069.5 L391.134,1069.5 L391.134,1047.84 C391.041,1043.86 391.994,1043.18 397.119,1043.09 L401.494,1043.09 C417.072,1043 420.962,1046.51 423.916,1062.86 L428.087,1062.86 L426.759,1038.62 "/>
<path class="Harmony" d="M2570.21,1876.52 L2513.11,1876.52 L2513.11,1880.99 L2514.83,1880.99 C2520.24,1881.08 2522.05,1881.37 2522.8,1882.32 C2523.38,1883.18 2523.38,1883.37 2523.38,1888.21 L2523.38,1933.43 C2523.38,1938.27 2523.38,1938.46 2522.8,1939.32 C2522.05,1940.27 2520.24,1940.65 2514.83,1940.65 L2513.11,1940.65 L2513.11,1945.12 L2571.44,1945.12 L2573.35,1919.76 L2569.18,1919.76 C2565.57,1936.66 2561.66,1940.27 2547.13,1940.65 L2540.86,1940.65 C2535.16,1940.46 2533.74,1939.51 2534.02,1936.08 L2534.02,1911.87 L2535.93,1911.87 C2545.71,1911.49 2549.22,1915.01 2549.6,1925.55 L2554.07,1925.55 L2554.07,1894.38 L2549.6,1894.38 C2549.04,1903.69 2545.32,1907.4 2536.3,1907.4 L2534.02,1907.4 L2534.02,1885.74 C2533.93,1881.76 2534.88,1881.08 2540.01,1880.99 L2544.94,1880.99 C2560.52,1880.9 2564.43,1884.32 2567.46,1900.76 L2571.55,1900.76 L2570.21,1876.52 "/>
<path class="Harmony" d="M2610.49,1917.08 C2609.72,1912.15 2606.8,1907.58 2600.33,1907.58 C2593.88,1907.58 2590.46,1911.46 2589.83,1912.21 L2590.27,1872.01 C2590.27,1872.01 2590.27,1872.01 2590.27,1871.99 C2590.27,1871.04 2589.49,1870.26 2588.52,1870.26 L2587.05,1870.26 C2586.65,1870.26 2586.1,1870.49 2585.82,1870.77 C2585.54,1871.05 2585.3,1871.58 2585.3,1871.98 C2585.3,1871.99 2585.3,1872.01 2585.3,1872.01 L2585.97,1947.38 C2585.99,1948.33 2586.77,1949.1 2587.72,1949.1 C2588.02,1949.1 2588.47,1948.96 2588.72,1948.79 C2589.22,1948.55 2597.26,1944.6 2604.08,1936.91 C2609.9,1930.37 2611.43,1922.69 2610.49,1917.08 M2601.88,1922.07 C2601.88,1923.9 2601.43,1929.74 2598.24,1934.49 C2596.07,1937.74 2591.9,1941.18 2589.51,1943.02 L2589.77,1918.55 C2590.05,1917.38 2591.94,1913.77 2596.99,1913.79 C2602.49,1913.82 2601.88,1920.24 2601.88,1922.07"/>
<path class="Harmony" d="M3106.42,1876.52 L3049.89,1876.52 L3049.89,1880.99 L3051.61,1880.99 C3057.02,1881.08 3058.83,1881.37 3059.58,1882.32 C3060.16,1883.18 3060.16,1883.37 3060.16,1888.21 L3060.16,1933.43 C3060.16,1938.27 3060.16,1938.46 3059.58,1939.32 C3058.83,1940.27 3057.02,1940.65 3051.61,1940.65 L3049.89,1940.65 L3049.89,1945.12 L3082.49,1945.12 L3082.49,1940.65 L3079.34,1940.65 C3073.94,1940.65 3072.13,1940.27 3071.36,1939.32 C3070.8,1938.46 3070.8,1938.18 3070.8,1933.43 L3070.8,1911.87 L3072.7,1911.87 C3082.49,1911.49 3086,1915.01 3086.38,1925.55 L3090.84,1925.55 L3090.84,1894.38 L3086.38,1894.38 C3085.81,1903.69 3082.09,1907.3 3073.08,1907.4 L3070.8,1907.4 L3070.8,1885.74 C3070.7,1881.76 3071.66,1881.08 3076.78,1880.99 L3081.16,1880.99 C3096.74,1880.9 3100.63,1884.41 3103.58,1900.76 L3107.75,1900.76 L3106.42,1876.52 "/>
<path class="Harmony" d="M3728.96,1876.52 L3671.87,1876.52 L3671.87,1880.99 L3673.59,1880.99 C3678.99,1881.08 3680.81,1881.37 3681.56,1882.32 C3682.13,1883.18 3682.13,1883.37 3682.13,1888.21 L3682.13,1933.43 C3682.13,1938.27 3682.13,1938.46 3681.56,1939.32 C3680.81,1940.27 3678.99,1940.65 3673.59,1940.65 L3671.87,1940.65 L3671.87,1945.12 L3730.2,1945.12 L3732.1,1919.76 L3727.93,1919.76 C3724.32,1936.66 3720.41,1940.27 3705.88,1940.65 L3699.62,1940.65 C3693.91,1940.46 3692.49,1939.51 3692.77,1936.08 L3692.77,1911.87 L3694.68,1911.87 C3704.46,1911.49 3707.98,1915.01 3708.35,1925.55 L3712.82,1925.55 L3712.82,1894.38 L3708.35,1894.38 C3707.79,1903.69 3704.07,1907.4 3695.06,1907.4 L3692.77,1907.4 L3692.77,1885.74 C3692.68,1881.76 3693.63,1881.08 3698.76,1880.99 L3703.7,1880.99 C3719.27,1880.9 3723.18,1884.32 3726.21,1900.76 L3730.31,1900.76 L3728.96,1876.52 "/>
<path class="Harmony" d="M3769.24,1917.08 C3768.48,1912.15 3765.56,1907.58 3759.09,1907.58 C3752.63,1907.58 3749.21,1911.46 3748.59,1912.21 L3749.02,1872.01 C3749.02,1872.01 3749.02,1872.01 3749.02,1871.99 C3749.02,1871.04 3748.24,1870.26 3747.27,1870.26 L3745.81,1870.26 C3745.4,1870.26 3744.85,1870.49 3744.57,1870.77 C3744.29,1871.05 3744.06,1871.58 3744.06,1871.98 C3744.06,1871.99 3744.06,1872.01 3744.06,1872.01 L3744.73,1947.38 C3744.74,1948.33 3745.52,1949.1 3746.48,1949.1 C3746.77,1949.1 3747.23,1948.96 3747.48,1948.79 C3747.98,1948.55 3756.01,1944.6 3762.84,1936.91 C3768.65,1930.37 3770.18,1922.69 3769.24,1917.08 M3760.63,1922.07 C3760.63,1923.9 3760.18,1929.74 3756.99,1934.49 C3754.82,1937.74 3750.65,1941.18 3748.26,1943.02 L3748.52,1918.55 C3748.81,1917.38 3750.7,1913.77 3755.74,1913.79 C3761.24,1913.82 3760.63,1920.24 3760.63,1922.07"/>
<path class="VoltaSegment" d="M3648.39,1851.94 L3645,1851.94 C3638.89,1856.5 3632,1858.44 3620.45,1858.63 L3620.45,1864.06 L3624.53,1864.06 C3633.17,1864.06 3633.26,1864.25 3633.17,1872.2 L3633.17,1906.64 C3633.17,1912.66 3633.17,1912.95 3632.48,1913.92 C3631.61,1914.99 3629.67,1915.38 3624.43,1915.38 L3621.32,1915.38 L3621.32,1920.61 L3660.03,1920.61 L3660.03,1915.38 L3656.92,1915.38 C3651.78,1915.38 3649.93,1914.99 3649.07,1913.92 C3648.39,1912.95 3648.39,1912.56 3648.39,1906.64 L3648.39,1851.94 "/>
<polyline class="VoltaSegment" fill="none" stroke="#000000" stroke-width="4.85" stroke-linecap="square" stroke-linejoin="bevel" points="3593.94,1920.61 3593.94,1823.59"/>
<polyline class="VoltaSegment" fill="none" stroke="#000000" stroke-width="4.85" stroke-linecap="square" stroke-linejoin="bevel" points="3593.94,1823.59 4133.64,1823.59"/>
<polyline class="VoltaSegment" fill="none" stroke="#000000" stroke-width="4.85" stroke-linecap="square" stroke-linejoin="bevel" points="4133.64,1823.59 4133.64,1920.61"/>
<path class="Page" d="M2037.58,2446.83 L2037.58,2448.94 L2038.39,2448.94 C2040.95,2448.99 2041.81,2449.13 2042.17,2449.56 C2042.44,2449.97 2042.44,2450.06 2042.44,2452.36 L2042.44,2473.78 C2042.44,2476.08 2042.44,2476.16 2042.17,2476.56 C2041.81,2477.02 2040.95,2477.2 2038.39,2477.2 L2037.58,2477.2 L2037.58,2479.31 L2053.92,2479.31 C2061.7,2479.31 2066.39,2476.03 2066.39,2470.5 C2066.39,2466 2063.55,2463.42 2057.39,2462.34 C2059.55,2461.89 2060.53,2461.5 2061.7,2460.64 C2063.55,2459.25 2064.67,2457.03 2064.67,2454.78 C2064.67,2451.86 2062.88,2449.03 2060.27,2447.91 C2058.64,2447.19 2056.39,2446.83 2053.73,2446.83 L2037.58,2446.83 M2047.48,2461.45 L2047.48,2451.19 C2047.48,2449.44 2048.06,2448.99 2050.45,2448.94 L2052.25,2448.94 C2054.33,2448.94 2056.03,2449.3 2056.98,2449.89 C2058.59,2450.88 2059.45,2452.77 2059.45,2455.28 C2059.45,2459.74 2057.3,2461.45 2051.48,2461.45 L2047.48,2461.45 M2047.48,2463.56 L2051.44,2463.56 C2058.33,2463.56 2060.84,2465.41 2060.84,2470.36 C2060.84,2473.24 2059.86,2475.31 2058.11,2476.16 C2056.7,2476.88 2054.81,2477.2 2051.98,2477.2 L2050.09,2477.2 C2047.84,2477.2 2047.39,2476.75 2047.48,2474.36 L2047.48,2463.56 M2077.89,2446.16 L2069.58,2446.64 L2069.58,2448.58 L2071.78,2448.58 C2073.44,2448.63 2073.67,2448.89 2073.67,2450.83 L2073.67,2473.78 L2073.67,2475.89 C2073.63,2476.56 2073.58,2476.84 2073.41,2477.06 C2073.08,2477.47 2072.23,2477.64 2070.3,2477.69 L2069.98,2477.69 L2069.98,2479.31 L2081.64,2479.31 L2081.64,2477.69 L2081.31,2477.69 C2078.3,2477.61 2077.89,2477.38 2077.89,2475.75 L2077.89,2473.78 L2077.89,2446.16 M2094.23,2457.67 C2088.7,2457.67 2084.42,2462.58 2084.42,2468.88 C2084.42,2475.03 2088.73,2479.99 2094.14,2479.99 C2099.55,2479.99 2103.86,2475.03 2103.86,2468.83 C2103.86,2462.66 2099.55,2457.67 2094.23,2457.67 M2094.23,2459.61 C2097.38,2459.61 2099.14,2462.89 2099.14,2468.83 C2099.14,2474.81 2097.38,2478.05 2094.14,2478.05 C2090.91,2478.05 2089.14,2474.81 2089.14,2468.88 C2089.14,2462.75 2090.86,2459.61 2094.23,2459.61 M2122.81,2472.7 C2121.36,2475.94 2119.83,2477.25 2117.5,2477.25 C2113.89,2477.25 2111.64,2473.95 2111.64,2468.69 C2111.64,2463.2 2113.84,2459.61 2117.19,2459.61 C2118.53,2459.61 2119.7,2460.24 2119.7,2460.95 C2119.7,2461.09 2119.66,2461.22 2119.44,2461.5 C2118.7,2462.34 2118.53,2462.8 2118.53,2463.56 C2118.53,2465.05 2119.66,2466.08 2121.23,2466.08 C2122.84,2466.08 2123.97,2464.83 2123.97,2463.02 C2123.97,2459.97 2120.95,2457.67 2116.95,2457.67 C2111.11,2457.67 2106.92,2462.44 2106.92,2469.19 C2106.92,2475.58 2110.75,2479.99 2116.33,2479.99 C2120.33,2479.99 2122.63,2478.14 2124.56,2473.38 L2122.81,2472.7 M2145.75,2464.83 C2145.75,2461.99 2145.25,2460.55 2143.95,2459.47 C2142.45,2458.25 2140.25,2457.67 2137.38,2457.67 C2132.3,2457.67 2128.59,2460.05 2128.59,2463.34 C2128.59,2465 2129.64,2466.08 2131.22,2466.08 C2132.66,2466.08 2133.64,2465.14 2133.64,2463.78 C2133.64,2463.2 2133.42,2462.58 2132.97,2461.94 C2132.7,2461.63 2132.66,2461.53 2132.66,2461.31 C2132.66,2460.41 2134.45,2459.61 2136.61,2459.61 C2138.05,2459.61 2139.63,2460.05 2140.34,2460.74 C2141.2,2461.45 2141.52,2462.53 2141.52,2464.55 L2141.52,2466.31 C2136.83,2467.13 2135.34,2467.49 2133.14,2468.33 C2129.23,2469.77 2127.39,2471.84 2127.39,2474.72 C2127.39,2477.97 2129.91,2479.99 2133.91,2479.99 C2137.02,2479.99 2139.81,2478.74 2141.73,2476.44 C2142.45,2478.74 2143.58,2479.63 2145.7,2479.63 C2147.72,2479.63 2149.84,2478.33 2149.84,2477.02 C2149.84,2476.7 2149.66,2476.49 2149.39,2476.49 C2149.2,2476.49 2149.03,2476.52 2148.72,2476.66 C2148.08,2476.92 2147.81,2476.97 2147.45,2476.97 C2146.2,2476.97 2145.75,2476.16 2145.75,2473.88 L2145.75,2464.83 M2141.52,2470.31 C2141.52,2473.02 2141.38,2473.64 2140.61,2474.81 C2139.48,2476.49 2137.47,2477.61 2135.48,2477.61 C2133.42,2477.61 2131.94,2476.13 2131.94,2474.09 C2131.94,2472.2 2132.88,2470.86 2134.86,2469.91 C2136.25,2469.28 2138,2468.83 2141.52,2468.25 L2141.52,2470.31 M2171.34,2469.19 C2171.39,2462.44 2167.56,2457.67 2162.08,2457.67 C2156.31,2457.67 2152,2462.66 2152,2469.41 C2152,2475.75 2156.09,2479.99 2162.17,2479.99 C2166.48,2479.99 2169.5,2477.88 2171.34,2473.59 L2169.77,2472.75 C2167.92,2476.2 2166.03,2477.56 2163.02,2477.56 C2160.72,2477.56 2159.06,2476.61 2157.89,2474.59 C2157.08,2473.24 2156.72,2471.66 2156.77,2469.19 L2171.34,2469.19 M2156.81,2467.25 C2156.81,2465.86 2156.98,2464.88 2157.44,2463.61 C2158.39,2460.91 2159.83,2459.61 2162.03,2459.61 C2164.73,2459.61 2166.53,2461.99 2166.53,2465.64 C2166.53,2466.89 2166.13,2467.25 2164.69,2467.25 L2156.81,2467.25 M2163.42,2447.77 L2160.55,2447.77 L2154.92,2455.24 L2156.55,2455.24 L2161.98,2450.69 L2167.44,2455.24 L2169,2455.24 L2163.42,2447.77 "/>
</svg>
