<?xml version="1.0" encoding="UTF-8" standalone="no"?>
<svg width="4208.47px" height="2409.45px" viewBox="0 0 4208.47 2409.45"
 xmlns="http://www.w3.org/2000/svg" xmlns:xlink="http://www.w3.org/1999/xlink" version="1.2" baseProfile="tiny">
<title>FLAUTA</title>
<desc>Generated by MuseScore 3.6.2</desc>
<polyline class="StaffLines" fill="none" stroke="#000000" stroke-width="6.42" stroke-linejoin="bevel" points="70.866,479.666 4137.61,479.666"/>
<polyline class="StaffLines" fill="none" stroke="#000000" stroke-width="6.42" stroke-linejoin="bevel" points="70.866,538.065 4137.61,538.065"/>
<polyline class="StaffLines" fill="none" stroke="#000000" stroke-width="6.42" stroke-linejoin="bevel" points="70.866,596.465 4137.61,596.465"/>
<polyline class="StaffLines" fill="none" stroke="#000000" stroke-width="6.42" stroke-linejoin="bevel" points="70.866,654.865 4137.61,654.865"/>
<polyline class="StaffLines" fill="none" stroke="#000000" stroke-width="6.42" stroke-linejoin="bevel" points="70.866,713.265 4137.61,713.265"/>
<polyline class="StaffLines" fill="none" stroke="#000000" stroke-width="6.42" stroke-linejoin="bevel" points="70.866,1210.96 4137.61,1210.96"/>
<polyline class="StaffLines" fill="none" stroke="#000000" stroke-width="6.42" stroke-linejoin="bevel" points="70.866,1269.36 4137.61,1269.36"/>
<polyline class="StaffLines" fill="none" stroke="#000000" stroke-width="6.42" stroke-linejoin="bevel" points="70.866,1327.76 4137.61,1327.76"/>
<polyline class="StaffLines" fill="none" stroke="#000000" stroke-width="6.42" stroke-linejoin="bevel" points="70.866,1386.16 4137.61,1386.16"/>
<polyline class="StaffLines" fill="none" stroke="#000000" stroke-width="6.42" stroke-linejoin="bevel" points="70.866,1444.56 4137.61,1444.56"/>
<polyline class="StaffLines" fill="none" stroke="#000000" stroke-width="6.42" stroke-linejoin="bevel" points="70.866,1942.25 4137.61,1942.25"/>
<polyline class="StaffLines" fill="none" stroke="#000000" stroke-width="6.42" stroke-linejoin="bevel" points="70.866,2000.65 4137.61,2000.65"/>
<polyline class="StaffLines" fill="none" stroke="#000000" stroke-width="6.42" stroke-linejoin="bevel" points="70.866,2059.05 4137.61,2059.05"/>
<polyline class="StaffLines" fill="none" stroke="#000000" stroke-width="6.42" stroke-linejoin="bevel" points="70.866,2117.45 4137.61,2117.45"/>
<polyline class="StaffLines" fill="none" stroke="#000000" stroke-width="6.42" stroke-linejoin="bevel" points="70.866,2175.85 4137.61,2175.85"/>
<path class="MeasureNumber" d="M85.4597,1079.59 C87.3504,1079 88.1004,1078.67 89.0691,1078.03 C90.9441,1076.8 92.1004,1074.59 92.1004,1072.36 C92.1004,1068.56 89.0691,1066 84.5847,1066 C80.2254,1066 76.5379,1068.72 76.5379,1072 C76.5379,1073.64 77.5379,1074.77 79.0691,1074.77 C80.3816,1074.77 81.3504,1073.8 81.3504,1072.49 C81.3504,1071.8 81.1472,1071.31 80.5066,1070.69 C80.1004,1070.31 79.9441,1070.05 79.9441,1069.77 C79.9441,1068.8 81.9441,1067.8 83.8191,1067.8 C86.5066,1067.8 88.1004,1069.28 88.1004,1071.77 C88.1004,1075.31 85.5847,1078.67 82.8972,1078.67 C82.7879,1078.67 82.4285,1078.64 81.991,1078.59 C80.8191,1078.52 80.8191,1078.52 80.5847,1078.52 C79.7097,1078.52 79.2254,1078.92 79.2254,1079.64 C79.2254,1080.28 79.6629,1080.67 80.3816,1080.67 C80.5847,1080.67 80.866,1080.64 81.1785,1080.59 C81.741,1080.49 82.3504,1080.44 82.7097,1080.44 C84.5847,1080.44 85.866,1082.13 85.866,1084.59 C85.866,1086.52 85.4285,1088.36 84.5379,1089.88 C83.3504,1092.03 81.5066,1093.08 78.8972,1093.08 C76.6629,1093.08 74.741,1091.95 74.741,1090.67 C74.741,1090.24 74.9129,1090.08 75.5379,1089.8 C76.7097,1089.28 77.1785,1088.56 77.1785,1087.49 C77.1785,1086.08 76.0691,1085 74.6316,1085 C72.9129,1085 71.7879,1086.36 71.7879,1088.44 C71.7879,1092.31 74.741,1094.75 79.5379,1094.75 C85.5847,1094.75 90.1785,1090.72 90.1785,1085.36 C90.1785,1083.92 89.741,1082.67 88.8972,1081.67 C88.0222,1080.64 87.2254,1080.16 85.4597,1079.59"/>
<path class="MeasureNumber" d="M75.3504,1810.14 C74.1004,1810.89 73.741,1811.37 73.741,1812.17 C73.741,1812.93 74.3816,1813.5 75.1785,1813.5 C76.2254,1813.5 76.8191,1812.73 76.9441,1811.25 C78.1785,1810.25 79.5066,1809.81 81.1004,1809.81 C84.0691,1809.81 85.7097,1811.65 85.7097,1814.96 C85.7097,1820.17 82.3504,1824.4 78.2254,1824.4 C75.866,1824.4 73.9441,1823.29 73.9441,1821.96 C73.9441,1821.73 73.991,1821.65 74.1785,1821.53 C75.2254,1821.04 75.2254,1821.04 75.5066,1820.85 C76.1472,1820.37 76.5066,1819.65 76.5066,1818.81 C76.5066,1817.53 75.5066,1816.57 74.1004,1816.57 C72.3504,1816.57 71.0222,1818.04 71.0222,1819.96 C71.0222,1823.5 74.0691,1826.04 78.3504,1826.04 C84.8191,1826.04 90.0691,1820.89 90.0691,1814.5 C90.0691,1810.45 86.991,1807.6 82.6316,1807.6 C80.8972,1807.6 79.5066,1807.96 77.5847,1808.93 L79.8191,1801.37 C81.9441,1801.81 83.6316,1802.01 85.0691,1802.01 C87.7097,1802.01 90.0691,1801.17 91.3816,1799.78 C92.0691,1798.98 92.4597,1798.29 92.4597,1797.78 C92.4597,1797.53 92.3347,1797.29 92.1785,1797.29 C92.0691,1797.29 91.9754,1797.34 91.741,1797.45 C90.4285,1798.09 88.741,1798.45 87.1785,1798.45 C84.7879,1798.45 81.9441,1798.06 78.991,1797.29 L75.3504,1810.14 "/>
<path class="TieSegment" stroke="#000000" stroke-width="4.09" stroke-linecap="round" stroke-linejoin="round" fill-rule="evenodd" d="M3023.1,1869.25 C3123.55,1785.15 3424.9,1785.15 3525.35,1869.25 C3424.9,1801.5 3123.55,1801.5 3023.1,1869.25"/>
<polyline class="BarLine" stroke="#000000" stroke-width="10.51" stroke-linejoin="bevel" points="2168.83,476.454 2168.83,716.477"/>
<polyline class="BarLine" stroke="#000000" stroke-width="10.51" stroke-linejoin="bevel" points="4132.35,476.454 4132.35,716.477"/>
<polyline class="BarLine" stroke="#000000" stroke-width="10.51" stroke-linejoin="bevel" points="2213.56,1207.74 2213.56,1447.77"/>
<polyline class="BarLine" stroke="#000000" stroke-width="10.51" stroke-linejoin="bevel" points="4132.35,1207.74 4132.35,1447.77"/>
<polyline class="BarLine" stroke="#000000" stroke-width="10.51" stroke-linejoin="bevel" points="2069.66,1939.04 2069.66,2179.06"/>
<polyline class="BarLine" stroke="#000000" stroke-width="10.51" stroke-linejoin="bevel" points="3375.95,1939.04 3375.95,2179.06"/>
<polyline class="BarLine" stroke="#000000" stroke-width="10.51" stroke-linejoin="bevel" points="4080.67,1939.04 4080.67,2179.06"/>
<polyline class="BarLine" stroke="#000000" stroke-width="32.12" stroke-linejoin="bevel" points="4121.55,1939.04 4121.55,2179.06"/>
<polyline class="LedgerLine" stroke="#000000" stroke-width="9.34" stroke-linejoin="bevel" points="2326.85,1152.56 2443.63,1152.56"/>
<polyline class="LedgerLine" stroke="#000000" stroke-width="9.34" stroke-linejoin="bevel" points="3898.72,1152.56 4015.51,1152.56"/>
<polyline class="LedgerLine" stroke="#000000" stroke-width="9.34" stroke-linejoin="bevel" points="407.213,1883.85 523.995,1883.85"/>
<polyline class="LedgerLine" stroke="#000000" stroke-width="9.34" stroke-linejoin="bevel" points="407.213,1825.45 523.995,1825.45"/>
<polyline class="LedgerLine" stroke="#000000" stroke-width="9.34" stroke-linejoin="bevel" points="1848.34,1883.85 1965.12,1883.85"/>
<polyline class="LedgerLine" stroke="#000000" stroke-width="9.34" stroke-linejoin="bevel" points="2182.95,1883.85 2299.74,1883.85"/>
<polyline class="LedgerLine" stroke="#000000" stroke-width="9.34" stroke-linejoin="bevel" points="2182.95,1825.45 2299.74,1825.45"/>
<polyline class="Stem" stroke="#000000" stroke-width="6.42" stroke-linejoin="bevel" points="609.094,516.714 609.094,698.665"/>
<polyline class="Stem" stroke="#000000" stroke-width="6.42" stroke-linejoin="bevel" points="787.914,516.714 787.914,698.665"/>
<polyline class="Stem" stroke="#000000" stroke-width="6.42" stroke-linejoin="bevel" points="907.615,516.714 907.615,698.665"/>
<polyline class="Stem" stroke="#000000" stroke-width="6.42" stroke-linejoin="bevel" points="1027.32,516.714 1027.32,713.265"/>
<polyline class="Stem" stroke="#000000" stroke-width="6.42" stroke-linejoin="bevel" points="1273.19,516.714 1273.19,669.465"/>
<polyline class="Stem" stroke="#000000" stroke-width="6.42" stroke-linejoin="bevel" points="1412.79,487.515 1412.79,669.465"/>
<polyline class="Stem" stroke="#000000" stroke-width="6.42" stroke-linejoin="bevel" points="1552.38,516.714 1552.38,669.465"/>
<polyline class="Stem" stroke="#000000" stroke-width="6.42" stroke-linejoin="bevel" points="1691.97,487.515 1691.97,698.665"/>
<polyline class="Stem" stroke="#000000" stroke-width="6.42" stroke-linejoin="bevel" points="1831.57,516.714 1831.57,698.665"/>
<polyline class="Stem" stroke="#000000" stroke-width="6.42" stroke-linejoin="bevel" points="1971.16,487.515 1971.16,698.665"/>
<polyline class="Stem" stroke="#000000" stroke-width="6.42" stroke-linejoin="bevel" points="2285.33,516.714 2285.33,698.665"/>
<polyline class="Stem" stroke="#000000" stroke-width="6.42" stroke-linejoin="bevel" points="2479.49,516.714 2479.49,698.665"/>
<polyline class="Stem" stroke="#000000" stroke-width="6.42" stroke-linejoin="bevel" points="2600.83,516.714 2600.83,698.665"/>
<polyline class="Stem" stroke="#000000" stroke-width="6.42" stroke-linejoin="bevel" points="2722.18,516.714 2722.18,669.465"/>
<polyline class="Stem" stroke="#000000" stroke-width="6.42" stroke-linejoin="bevel" points="2873.74,516.714 2873.74,669.465"/>
<polyline class="Stem" stroke="#000000" stroke-width="6.42" stroke-linejoin="bevel" points="3025.3,516.714 3025.3,669.465"/>
<polyline class="Stem" stroke="#000000" stroke-width="6.42" stroke-linejoin="bevel" points="3176.87,516.714 3176.87,669.465"/>
<polyline class="Stem" stroke="#000000" stroke-width="6.42" stroke-linejoin="bevel" points="3328.43,516.714 3328.43,669.465"/>
<polyline class="Stem" stroke="#000000" stroke-width="6.42" stroke-linejoin="bevel" points="3479.99,516.714 3479.99,669.465"/>
<polyline class="Stem" stroke="#000000" stroke-width="6.42" stroke-linejoin="bevel" points="3631.56,516.714 3631.56,727.865"/>
<polyline class="Stem" stroke="#000000" stroke-width="6.42" stroke-linejoin="bevel" points="3783.12,575.114 3783.12,727.865"/>
<polyline class="Stem" stroke="#000000" stroke-width="6.42" stroke-linejoin="bevel" points="3934.68,545.914 3934.68,727.865"/>
<polyline class="Stem" stroke="#000000" stroke-width="6.42" stroke-linejoin="bevel" points="410.425,1248.01 410.425,1488.36"/>
<polyline class="Stem" stroke="#000000" stroke-width="6.42" stroke-linejoin="bevel" points="706.641,1248.01 706.641,1488.36"/>
<polyline class="Stem" stroke="#000000" stroke-width="6.42" stroke-linejoin="bevel" points="826.343,1248.01 826.343,1488.36"/>
<polyline class="Stem" stroke="#000000" stroke-width="6.42" stroke-linejoin="bevel" points="946.045,1248.01 946.045,1444.56"/>
<polyline class="Stem" stroke="#000000" stroke-width="6.42" stroke-linejoin="bevel" points="1567.39,1306.41 1567.39,1459.16"/>
<polyline class="Stem" stroke="#000000" stroke-width="6.42" stroke-linejoin="bevel" points="1782.1,1248.01 1782.1,1422.66"/>
<polyline class="Stem" stroke="#000000" stroke-width="6.42" stroke-linejoin="bevel" points="1996.81,1189.61 1996.81,1386.16"/>
<polyline class="Stem" stroke="#000000" stroke-width="6.42" stroke-linejoin="bevel" points="2350.5,1160.41 2350.5,1356.96"/>
<polyline class="Stem" stroke="#000000" stroke-width="6.42" stroke-linejoin="bevel" points="2665.37,1218.81 2665.37,1429.96"/>
<polyline class="Stem" stroke="#000000" stroke-width="6.42" stroke-linejoin="bevel" points="2952.24,1218.81 2952.24,1429.96"/>
<polyline class="Stem" stroke="#000000" stroke-width="6.42" stroke-linejoin="bevel" points="3071.94,1218.81 3071.94,1429.96"/>
<polyline class="Stem" stroke="#000000" stroke-width="6.42" stroke-linejoin="bevel" points="3191.64,1218.81 3191.64,1415.36"/>
<polyline class="Stem" stroke="#000000" stroke-width="6.42" stroke-linejoin="bevel" points="3506.52,1277.21 3506.52,1444.56"/>
<polyline class="Stem" stroke="#000000" stroke-width="6.42" stroke-linejoin="bevel" points="3714.45,1218.81 3714.45,1408.06"/>
<polyline class="Stem" stroke="#000000" stroke-width="6.42" stroke-linejoin="bevel" points="3922.38,1160.41 3922.38,1371.56"/>
<polyline class="Stem" stroke="#000000" stroke-width="6.42" stroke-linejoin="bevel" points="430.865,1833.3 430.865,2059.05"/>
<polyline class="Stem" stroke="#000000" stroke-width="6.42" stroke-linejoin="bevel" points="714.84,1950.1 714.84,2161.25"/>
<polyline class="Stem" stroke="#000000" stroke-width="6.42" stroke-linejoin="bevel" points="973.56,1950.1 973.56,2161.25"/>
<polyline class="Stem" stroke="#000000" stroke-width="6.42" stroke-linejoin="bevel" points="1093.26,1950.1 1093.26,2161.25"/>
<polyline class="Stem" stroke="#000000" stroke-width="6.42" stroke-linejoin="bevel" points="1212.96,1950.1 1212.96,2146.65"/>
<polyline class="Stem" stroke="#000000" stroke-width="6.42" stroke-linejoin="bevel" points="1496.94,2008.5 1496.94,2175.85"/>
<polyline class="Stem" stroke="#000000" stroke-width="6.42" stroke-linejoin="bevel" points="1684.47,1950.1 1684.47,2139.35"/>
<polyline class="Stem" stroke="#000000" stroke-width="6.42" stroke-linejoin="bevel" points="1871.99,1891.7 1871.99,2102.85"/>
<polyline class="Stem" stroke="#000000" stroke-width="6.42" stroke-linejoin="bevel" points="2206.61,1833.3 2206.61,2059.05"/>
<polyline class="Stem" stroke="#000000" stroke-width="6.42" stroke-linejoin="bevel" points="2510.18,1920.9 2510.18,2132.05"/>
<polyline class="Stem" stroke="#000000" stroke-width="6.42" stroke-linejoin="bevel" points="2665.78,1979.3 2665.78,2132.05"/>
<polyline class="Stem" stroke="#000000" stroke-width="6.42" stroke-linejoin="bevel" points="2821.38,1950.1 2821.38,2132.05"/>
<polyline class="Stem" stroke="#000000" stroke-width="6.42" stroke-linejoin="bevel" points="2976.98,1920.9 2976.98,2117.45"/>
<path class="Note" transform="matrix(2.336,0,0,2.336,605.882,508.866)" d="M31.5,-8.09375 C29.7031,-11.4063 25.9063,-13.2031 21.2969,-13.2031 C17.9063,-13.2031 14.2031,-12.2031 10.5938,-10.2969 C4,-6.79688 0,-0.90625 0,4.20313 C0,5.59375 0.296875,7 1,8.29688 C2.79688,11.5938 6.59375,13.2969 11.2031,13.2969 C14.5938,13.2969 18.2969,12.4063 21.9063,10.5 C28.5,7 32.5,1.09375 32.5,-4 C32.5,-5.40625 32.2031,-6.79688 31.5,-8.09375"/>
<path class="Note" transform="matrix(2.336,0,0,2.336,784.702,508.866)" d="M31.5,-8.09375 C29.7031,-11.4063 25.9063,-13.2031 21.2969,-13.2031 C17.9063,-13.2031 14.2031,-12.2031 10.5938,-10.2969 C4,-6.79688 0,-0.90625 0,4.20313 C0,5.59375 0.296875,7 1,8.29688 C2.79688,11.5938 6.59375,13.2969 11.2031,13.2969 C14.5938,13.2969 18.2969,12.4063 21.9063,10.5 C28.5,7 32.5,1.09375 32.5,-4 C32.5,-5.40625 32.2031,-6.79688 31.5,-8.09375"/>
<path class="Note" transform="matrix(2.336,0,0,2.336,904.403,508.866)" d="M31.5,-8.09375 C29.7031,-11.4063 25.9063,-13.2031 21.2969,-13.2031 C17.9063,-13.2031 14.2031,-12.2031 10.5938,-10.2969 C4,-6.79688 0,-0.90625 0,4.20313 C0,5.59375 0.296875,7 1,8.29688 C2.79688,11.5938 6.59375,13.2969 11.2031,13.2969 C14.5938,13.2969 18.2969,12.4063 21.9063,10.5 C28.5,7 32.5,1.09375 32.5,-4 C32.5,-5.40625 32.2031,-6.79688 31.5,-8.09375"/>
<path class="Note" transform="matrix(2.336,0,0,2.336,1024.11,508.866)" d="M31.5,-8.09375 C29.7031,-11.4063 25.9063,-13.2031 21.2969,-13.2031 C17.9063,-13.2031 14.2031,-12.2031 10.5938,-10.2969 C4,-6.79688 0,-0.90625 0,4.20313 C0,5.59375 0.296875,7 1,8.29688 C2.79688,11.5938 6.59375,13.2969 11.2031,13.2969 C14.5938,13.2969 18.2969,12.4063 21.9063,10.5 C28.5,7 32.5,1.09375 32.5,-4 C32.5,-5.40625 32.2031,-6.79688 31.5,-8.09375"/>
<path class="Note" transform="matrix(2.336,0,0,2.336,1269.98,508.866)" d="M31.5,-8.09375 C29.7031,-11.4063 25.9063,-13.2031 21.2969,-13.2031 C17.9063,-13.2031 14.2031,-12.2031 10.5938,-10.2969 C4,-6.79688 0,-0.90625 0,4.20313 C0,5.59375 0.296875,7 1,8.29688 C2.79688,11.5938 6.59375,13.2969 11.2031,13.2969 C14.5938,13.2969 18.2969,12.4063 21.9063,10.5 C28.5,7 32.5,1.09375 32.5,-4 C32.5,-5.40625 32.2031,-6.79688 31.5,-8.09375"/>
<path class="Note" transform="matrix(2.336,0,0,2.336,1409.58,479.666)" d="M31.5,-8.09375 C29.7031,-11.4063 25.9063,-13.2031 21.2969,-13.2031 C17.9063,-13.2031 14.2031,-12.2031 10.5938,-10.2969 C4,-6.79688 0,-0.90625 0,4.20313 C0,5.59375 0.296875,7 1,8.29688 C2.79688,11.5938 6.59375,13.2969 11.2031,13.2969 C14.5938,13.2969 18.2969,12.4063 21.9063,10.5 C28.5,7 32.5,1.09375 32.5,-4 C32.5,-5.40625 32.2031,-6.79688 31.5,-8.09375"/>
<path class="Note" transform="matrix(2.336,0,0,2.336,1549.17,508.866)" d="M31.5,-8.09375 C29.7031,-11.4063 25.9063,-13.2031 21.2969,-13.2031 C17.9063,-13.2031 14.2031,-12.2031 10.5938,-10.2969 C4,-6.79688 0,-0.90625 0,4.20313 C0,5.59375 0.296875,7 1,8.29688 C2.79688,11.5938 6.59375,13.2969 11.2031,13.2969 C14.5938,13.2969 18.2969,12.4063 21.9063,10.5 C28.5,7 32.5,1.09375 32.5,-4 C32.5,-5.40625 32.2031,-6.79688 31.5,-8.09375"/>
<path class="Note" transform="matrix(2.336,0,0,2.336,1688.76,479.666)" d="M31.5,-8.09375 C29.7031,-11.4063 25.9063,-13.2031 21.2969,-13.2031 C17.9063,-13.2031 14.2031,-12.2031 10.5938,-10.2969 C4,-6.79688 0,-0.90625 0,4.20313 C0,5.59375 0.296875,7 1,8.29688 C2.79688,11.5938 6.59375,13.2969 11.2031,13.2969 C14.5938,13.2969 18.2969,12.4063 21.9063,10.5 C28.5,7 32.5,1.09375 32.5,-4 C32.5,-5.40625 32.2031,-6.79688 31.5,-8.09375"/>
<path class="Note" transform="matrix(2.336,0,0,2.336,1828.36,508.866)" d="M31.5,-8.09375 C29.7031,-11.4063 25.9063,-13.2031 21.2969,-13.2031 C17.9063,-13.2031 14.2031,-12.2031 10.5938,-10.2969 C4,-6.79688 0,-0.90625 0,4.20313 C0,5.59375 0.296875,7 1,8.29688 C2.79688,11.5938 6.59375,13.2969 11.2031,13.2969 C14.5938,13.2969 18.2969,12.4063 21.9063,10.5 C28.5,7 32.5,1.09375 32.5,-4 C32.5,-5.40625 32.2031,-6.79688 31.5,-8.09375"/>
<path class="Note" transform="matrix(2.336,0,0,2.336,1967.95,479.666)" d="M31.5,-8.09375 C29.7031,-11.4063 25.9063,-13.2031 21.2969,-13.2031 C17.9063,-13.2031 14.2031,-12.2031 10.5938,-10.2969 C4,-6.79688 0,-0.90625 0,4.20313 C0,5.59375 0.296875,7 1,8.29688 C2.79688,11.5938 6.59375,13.2969 11.2031,13.2969 C14.5938,13.2969 18.2969,12.4063 21.9063,10.5 C28.5,7 32.5,1.09375 32.5,-4 C32.5,-5.40625 32.2031,-6.79688 31.5,-8.09375"/>
<path class="Note" transform="matrix(2.336,0,0,2.336,2282.12,508.866)" d="M31.5,-8.09375 C29.7031,-11.4063 25.9063,-13.2031 21.2969,-13.2031 C17.9063,-13.2031 14.2031,-12.2031 10.5938,-10.2969 C4,-6.79688 0,-0.90625 0,4.20313 C0,5.59375 0.296875,7 1,8.29688 C2.79688,11.5938 6.59375,13.2969 11.2031,13.2969 C14.5938,13.2969 18.2969,12.4063 21.9063,10.5 C28.5,7 32.5,1.09375 32.5,-4 C32.5,-5.40625 32.2031,-6.79688 31.5,-8.09375"/>
<path class="Note" transform="matrix(2.336,0,0,2.336,2476.28,508.866)" d="M31.5,-8.09375 C29.7031,-11.4063 25.9063,-13.2031 21.2969,-13.2031 C17.9063,-13.2031 14.2031,-12.2031 10.5938,-10.2969 C4,-6.79688 0,-0.90625 0,4.20313 C0,5.59375 0.296875,7 1,8.29688 C2.79688,11.5938 6.59375,13.2969 11.2031,13.2969 C14.5938,13.2969 18.2969,12.4063 21.9063,10.5 C28.5,7 32.5,1.09375 32.5,-4 C32.5,-5.40625 32.2031,-6.79688 31.5,-8.09375"/>
<path class="Note" transform="matrix(2.336,0,0,2.336,2597.62,508.866)" d="M31.5,-8.09375 C29.7031,-11.4063 25.9063,-13.2031 21.2969,-13.2031 C17.9063,-13.2031 14.2031,-12.2031 10.5938,-10.2969 C4,-6.79688 0,-0.90625 0,4.20313 C0,5.59375 0.296875,7 1,8.29688 C2.79688,11.5938 6.59375,13.2969 11.2031,13.2969 C14.5938,13.2969 18.2969,12.4063 21.9063,10.5 C28.5,7 32.5,1.09375 32.5,-4 C32.5,-5.40625 32.2031,-6.79688 31.5,-8.09375"/>
<path class="Note" transform="matrix(2.336,0,0,2.336,2718.97,508.866)" d="M31.5,-8.09375 C29.7031,-11.4063 25.9063,-13.2031 21.2969,-13.2031 C17.9063,-13.2031 14.2031,-12.2031 10.5938,-10.2969 C4,-6.79688 0,-0.90625 0,4.20313 C0,5.59375 0.296875,7 1,8.29688 C2.79688,11.5938 6.59375,13.2969 11.2031,13.2969 C14.5938,13.2969 18.2969,12.4063 21.9063,10.5 C28.5,7 32.5,1.09375 32.5,-4 C32.5,-5.40625 32.2031,-6.79688 31.5,-8.09375"/>
<path class="Note" transform="matrix(2.336,0,0,2.336,2870.53,508.866)" d="M31.5,-8.09375 C29.7031,-11.4063 25.9063,-13.2031 21.2969,-13.2031 C17.9063,-13.2031 14.2031,-12.2031 10.5938,-10.2969 C4,-6.79688 0,-0.90625 0,4.20313 C0,5.59375 0.296875,7 1,8.29688 C2.79688,11.5938 6.59375,13.2969 11.2031,13.2969 C14.5938,13.2969 18.2969,12.4063 21.9063,10.5 C28.5,7 32.5,1.09375 32.5,-4 C32.5,-5.40625 32.2031,-6.79688 31.5,-8.09375"/>
<path class="Note" transform="matrix(2.336,0,0,2.336,3022.09,508.866)" d="M31.5,-8.09375 C29.7031,-11.4063 25.9063,-13.2031 21.2969,-13.2031 C17.9063,-13.2031 14.2031,-12.2031 10.5938,-10.2969 C4,-6.79688 0,-0.90625 0,4.20313 C0,5.59375 0.296875,7 1,8.29688 C2.79688,11.5938 6.59375,13.2969 11.2031,13.2969 C14.5938,13.2969 18.2969,12.4063 21.9063,10.5 C28.5,7 32.5,1.09375 32.5,-4 C32.5,-5.40625 32.2031,-6.79688 31.5,-8.09375"/>
<path class="Note" transform="matrix(2.336,0,0,2.336,3173.66,508.866)" d="M31.5,-8.09375 C29.7031,-11.4063 25.9063,-13.2031 21.2969,-13.2031 C17.9063,-13.2031 14.2031,-12.2031 10.5938,-10.2969 C4,-6.79688 0,-0.90625 0,4.20313 C0,5.59375 0.296875,7 1,8.29688 C2.79688,11.5938 6.59375,13.2969 11.2031,13.2969 C14.5938,13.2969 18.2969,12.4063 21.9063,10.5 C28.5,7 32.5,1.09375 32.5,-4 C32.5,-5.40625 32.2031,-6.79688 31.5,-8.09375"/>
<path class="Note" transform="matrix(2.336,0,0,2.336,3325.22,508.866)" d="M31.5,-8.09375 C29.7031,-11.4063 25.9063,-13.2031 21.2969,-13.2031 C17.9063,-13.2031 14.2031,-12.2031 10.5938,-10.2969 C4,-6.79688 0,-0.90625 0,4.20313 C0,5.59375 0.296875,7 1,8.29688 C2.79688,11.5938 6.59375,13.2969 11.2031,13.2969 C14.5938,13.2969 18.2969,12.4063 21.9063,10.5 C28.5,7 32.5,1.09375 32.5,-4 C32.5,-5.40625 32.2031,-6.79688 31.5,-8.09375"/>
<path class="Note" transform="matrix(2.336,0,0,2.336,3476.78,508.866)" d="M31.5,-8.09375 C29.7031,-11.4063 25.9063,-13.2031 21.2969,-13.2031 C17.9063,-13.2031 14.2031,-12.2031 10.5938,-10.2969 C4,-6.79688 0,-0.90625 0,4.20313 C0,5.59375 0.296875,7 1,8.29688 C2.79688,11.5938 6.59375,13.2969 11.2031,13.2969 C14.5938,13.2969 18.2969,12.4063 21.9063,10.5 C28.5,7 32.5,1.09375 32.5,-4 C32.5,-5.40625 32.2031,-6.79688 31.5,-8.09375"/>
<path class="Note" transform="matrix(2.336,0,0,2.336,3628.35,508.866)" d="M31.5,-8.09375 C29.7031,-11.4063 25.9063,-13.2031 21.2969,-13.2031 C17.9063,-13.2031 14.2031,-12.2031 10.5938,-10.2969 C4,-6.79688 0,-0.90625 0,4.20313 C0,5.59375 0.296875,7 1,8.29688 C2.79688,11.5938 6.59375,13.2969 11.2031,13.2969 C14.5938,13.2969 18.2969,12.4063 21.9063,10.5 C28.5,7 32.5,1.09375 32.5,-4 C32.5,-5.40625 32.2031,-6.79688 31.5,-8.09375"/>
<path class="Note" transform="matrix(2.336,0,0,2.336,3779.91,567.265)" d="M31.5,-8.09375 C29.7031,-11.4063 25.9063,-13.2031 21.2969,-13.2031 C17.9063,-13.2031 14.2031,-12.2031 10.5938,-10.2969 C4,-6.79688 0,-0.90625 0,4.20313 C0,5.59375 0.296875,7 1,8.29688 C2.79688,11.5938 6.59375,13.2969 11.2031,13.2969 C14.5938,13.2969 18.2969,12.4063 21.9063,10.5 C28.5,7 32.5,1.09375 32.5,-4 C32.5,-5.40625 32.2031,-6.79688 31.5,-8.09375"/>
<path class="Note" transform="matrix(2.336,0,0,2.336,3931.47,538.065)" d="M31.5,-8.09375 C29.7031,-11.4063 25.9063,-13.2031 21.2969,-13.2031 C17.9063,-13.2031 14.2031,-12.2031 10.5938,-10.2969 C4,-6.79688 0,-0.90625 0,4.20313 C0,5.59375 0.296875,7 1,8.29688 C2.79688,11.5938 6.59375,13.2969 11.2031,13.2969 C14.5938,13.2969 18.2969,12.4063 21.9063,10.5 C28.5,7 32.5,1.09375 32.5,-4 C32.5,-5.40625 32.2031,-6.79688 31.5,-8.09375"/>
<path class="Note" transform="matrix(2.336,0,0,2.336,407.213,1240.16)" d="M31.5,-8.09375 C29.7031,-11.4063 25.9063,-13.2031 21.2969,-13.2031 C17.9063,-13.2031 14.2031,-12.2031 10.5938,-10.2969 C4,-6.79688 0,-0.90625 0,4.20313 C0,5.59375 0.296875,7 1,8.29688 C2.79688,11.5938 6.59375,13.2969 11.2031,13.2969 C14.5938,13.2969 18.2969,12.4063 21.9063,10.5 C28.5,7 32.5,1.09375 32.5,-4 C32.5,-5.40625 32.2031,-6.79688 31.5,-8.09375"/>
<path class="Note" transform="matrix(2.336,0,0,2.336,703.429,1240.16)" d="M31.5,-8.09375 C29.7031,-11.4063 25.9063,-13.2031 21.2969,-13.2031 C17.9063,-13.2031 14.2031,-12.2031 10.5938,-10.2969 C4,-6.79688 0,-0.90625 0,4.20313 C0,5.59375 0.296875,7 1,8.29688 C2.79688,11.5938 6.59375,13.2969 11.2031,13.2969 C14.5938,13.2969 18.2969,12.4063 21.9063,10.5 C28.5,7 32.5,1.09375 32.5,-4 C32.5,-5.40625 32.2031,-6.79688 31.5,-8.09375"/>
<path class="Note" transform="matrix(2.336,0,0,2.336,823.131,1240.16)" d="M31.5,-8.09375 C29.7031,-11.4063 25.9063,-13.2031 21.2969,-13.2031 C17.9063,-13.2031 14.2031,-12.2031 10.5938,-10.2969 C4,-6.79688 0,-0.90625 0,4.20313 C0,5.59375 0.296875,7 1,8.29688 C2.79688,11.5938 6.59375,13.2969 11.2031,13.2969 C14.5938,13.2969 18.2969,12.4063 21.9063,10.5 C28.5,7 32.5,1.09375 32.5,-4 C32.5,-5.40625 32.2031,-6.79688 31.5,-8.09375"/>
<path class="Note" transform="matrix(2.336,0,0,2.336,942.833,1240.16)" d="M31.5,-8.09375 C29.7031,-11.4063 25.9063,-13.2031 21.2969,-13.2031 C17.9063,-13.2031 14.2031,-12.2031 10.5938,-10.2969 C4,-6.79688 0,-0.90625 0,4.20313 C0,5.59375 0.296875,7 1,8.29688 C2.79688,11.5938 6.59375,13.2969 11.2031,13.2969 C14.5938,13.2969 18.2969,12.4063 21.9063,10.5 C28.5,7 32.5,1.09375 32.5,-4 C32.5,-5.40625 32.2031,-6.79688 31.5,-8.09375"/>
<path class="Note" transform="matrix(2.336,0,0,2.336,1564.18,1298.56)" d="M31.5,-8.09375 C29.7031,-11.4063 25.9063,-13.2031 21.2969,-13.2031 C17.9063,-13.2031 14.2031,-12.2031 10.5938,-10.2969 C4,-6.79688 0,-0.90625 0,4.20313 C0,5.59375 0.296875,7 1,8.29688 C2.79688,11.5938 6.59375,13.2969 11.2031,13.2969 C14.5938,13.2969 18.2969,12.4063 21.9063,10.5 C28.5,7 32.5,1.09375 32.5,-4 C32.5,-5.40625 32.2031,-6.79688 31.5,-8.09375"/>
<path class="Note" transform="matrix(2.336,0,0,2.336,1778.89,1240.16)" d="M31.5,-8.09375 C29.7031,-11.4063 25.9063,-13.2031 21.2969,-13.2031 C17.9063,-13.2031 14.2031,-12.2031 10.5938,-10.2969 C4,-6.79688 0,-0.90625 0,4.20313 C0,5.59375 0.296875,7 1,8.29688 C2.79688,11.5938 6.59375,13.2969 11.2031,13.2969 C14.5938,13.2969 18.2969,12.4063 21.9063,10.5 C28.5,7 32.5,1.09375 32.5,-4 C32.5,-5.40625 32.2031,-6.79688 31.5,-8.09375"/>
<path class="Note" transform="matrix(2.336,0,0,2.336,1993.59,1181.76)" d="M31.5,-8.09375 C29.7031,-11.4063 25.9063,-13.2031 21.2969,-13.2031 C17.9063,-13.2031 14.2031,-12.2031 10.5938,-10.2969 C4,-6.79688 0,-0.90625 0,4.20313 C0,5.59375 0.296875,7 1,8.29688 C2.79688,11.5938 6.59375,13.2969 11.2031,13.2969 C14.5938,13.2969 18.2969,12.4063 21.9063,10.5 C28.5,7 32.5,1.09375 32.5,-4 C32.5,-5.40625 32.2031,-6.79688 31.5,-8.09375"/>
<path class="Note" transform="matrix(2.336,0,0,2.336,2347.29,1152.56)" d="M31.5,-8.09375 C29.7031,-11.4063 25.9063,-13.2031 21.2969,-13.2031 C17.9063,-13.2031 14.2031,-12.2031 10.5938,-10.2969 C4,-6.79688 0,-0.90625 0,4.20313 C0,5.59375 0.296875,7 1,8.29688 C2.79688,11.5938 6.59375,13.2969 11.2031,13.2969 C14.5938,13.2969 18.2969,12.4063 21.9063,10.5 C28.5,7 32.5,1.09375 32.5,-4 C32.5,-5.40625 32.2031,-6.79688 31.5,-8.09375"/>
<path class="Note" transform="matrix(2.336,0,0,2.336,2662.16,1210.96)" d="M31.5,-8.09375 C29.7031,-11.4063 25.9063,-13.2031 21.2969,-13.2031 C17.9063,-13.2031 14.2031,-12.2031 10.5938,-10.2969 C4,-6.79688 0,-0.90625 0,4.20313 C0,5.59375 0.296875,7 1,8.29688 C2.79688,11.5938 6.59375,13.2969 11.2031,13.2969 C14.5938,13.2969 18.2969,12.4063 21.9063,10.5 C28.5,7 32.5,1.09375 32.5,-4 C32.5,-5.40625 32.2031,-6.79688 31.5,-8.09375"/>
<path class="Note" transform="matrix(2.336,0,0,2.336,2949.03,1210.96)" d="M31.5,-8.09375 C29.7031,-11.4063 25.9063,-13.2031 21.2969,-13.2031 C17.9063,-13.2031 14.2031,-12.2031 10.5938,-10.2969 C4,-6.79688 0,-0.90625 0,4.20313 C0,5.59375 0.296875,7 1,8.29688 C2.79688,11.5938 6.59375,13.2969 11.2031,13.2969 C14.5938,13.2969 18.2969,12.4063 21.9063,10.5 C28.5,7 32.5,1.09375 32.5,-4 C32.5,-5.40625 32.2031,-6.79688 31.5,-8.09375"/>
<path class="Note" transform="matrix(2.336,0,0,2.336,3068.73,1210.96)" d="M31.5,-8.09375 C29.7031,-11.4063 25.9063,-13.2031 21.2969,-13.2031 C17.9063,-13.2031 14.2031,-12.2031 10.5938,-10.2969 C4,-6.79688 0,-0.90625 0,4.20313 C0,5.59375 0.296875,7 1,8.29688 C2.79688,11.5938 6.59375,13.2969 11.2031,13.2969 C14.5938,13.2969 18.2969,12.4063 21.9063,10.5 C28.5,7 32.5,1.09375 32.5,-4 C32.5,-5.40625 32.2031,-6.79688 31.5,-8.09375"/>
<path class="Note" transform="matrix(2.336,0,0,2.336,3188.43,1210.96)" d="M31.5,-8.09375 C29.7031,-11.4063 25.9063,-13.2031 21.2969,-13.2031 C17.9063,-13.2031 14.2031,-12.2031 10.5938,-10.2969 C4,-6.79688 0,-0.90625 0,4.20313 C0,5.59375 0.296875,7 1,8.29688 C2.79688,11.5938 6.59375,13.2969 11.2031,13.2969 C14.5938,13.2969 18.2969,12.4063 21.9063,10.5 C28.5,7 32.5,1.09375 32.5,-4 C32.5,-5.40625 32.2031,-6.79688 31.5,-8.09375"/>
<path class="Note" transform="matrix(2.336,0,0,2.336,3503.3,1269.36)" d="M31.5,-8.09375 C29.7031,-11.4063 25.9063,-13.2031 21.2969,-13.2031 C17.9063,-13.2031 14.2031,-12.2031 10.5938,-10.2969 C4,-6.79688 0,-0.90625 0,4.20313 C0,5.59375 0.296875,7 1,8.29688 C2.79688,11.5938 6.59375,13.2969 11.2031,13.2969 C14.5938,13.2969 18.2969,12.4063 21.9063,10.5 C28.5,7 32.5,1.09375 32.5,-4 C32.5,-5.40625 32.2031,-6.79688 31.5,-8.09375"/>
<path class="Note" transform="matrix(2.336,0,0,2.336,3711.23,1210.96)" d="M31.5,-8.09375 C29.7031,-11.4063 25.9063,-13.2031 21.2969,-13.2031 C17.9063,-13.2031 14.2031,-12.2031 10.5938,-10.2969 C4,-6.79688 0,-0.90625 0,4.20313 C0,5.59375 0.296875,7 1,8.29688 C2.79688,11.5938 6.59375,13.2969 11.2031,13.2969 C14.5938,13.2969 18.2969,12.4063 21.9063,10.5 C28.5,7 32.5,1.09375 32.5,-4 C32.5,-5.40625 32.2031,-6.79688 31.5,-8.09375"/>
<path class="Note" transform="matrix(2.336,0,0,2.336,3919.16,1152.56)" d="M31.5,-8.09375 C29.7031,-11.4063 25.9063,-13.2031 21.2969,-13.2031 C17.9063,-13.2031 14.2031,-12.2031 10.5938,-10.2969 C4,-6.79688 0,-0.90625 0,4.20313 C0,5.59375 0.296875,7 1,8.29688 C2.79688,11.5938 6.59375,13.2969 11.2031,13.2969 C14.5938,13.2969 18.2969,12.4063 21.9063,10.5 C28.5,7 32.5,1.09375 32.5,-4 C32.5,-5.40625 32.2031,-6.79688 31.5,-8.09375"/>
<path class="Note" transform="matrix(2.336,0,0,2.336,427.653,1825.45)" d="M31.5,-8.09375 C29.7031,-11.4063 25.9063,-13.2031 21.2969,-13.2031 C17.9063,-13.2031 14.2031,-12.2031 10.5938,-10.2969 C4,-6.79688 0,-0.90625 0,4.20313 C0,5.59375 0.296875,7 1,8.29688 C2.79688,11.5938 6.59375,13.2969 11.2031,13.2969 C14.5938,13.2969 18.2969,12.4063 21.9063,10.5 C28.5,7 32.5,1.09375 32.5,-4 C32.5,-5.40625 32.2031,-6.79688 31.5,-8.09375"/>
<path class="Note" transform="matrix(2.336,0,0,2.336,711.628,1942.25)" d="M31.5,-8.09375 C29.7031,-11.4063 25.9063,-13.2031 21.2969,-13.2031 C17.9063,-13.2031 14.2031,-12.2031 10.5938,-10.2969 C4,-6.79688 0,-0.90625 0,4.20313 C0,5.59375 0.296875,7 1,8.29688 C2.79688,11.5938 6.59375,13.2969 11.2031,13.2969 C14.5938,13.2969 18.2969,12.4063 21.9063,10.5 C28.5,7 32.5,1.09375 32.5,-4 C32.5,-5.40625 32.2031,-6.79688 31.5,-8.09375"/>
<path class="Note" transform="matrix(2.336,0,0,2.336,970.348,1942.25)" d="M31.5,-8.09375 C29.7031,-11.4063 25.9063,-13.2031 21.2969,-13.2031 C17.9063,-13.2031 14.2031,-12.2031 10.5938,-10.2969 C4,-6.79688 0,-0.90625 0,4.20313 C0,5.59375 0.296875,7 1,8.29688 C2.79688,11.5938 6.59375,13.2969 11.2031,13.2969 C14.5938,13.2969 18.2969,12.4063 21.9063,10.5 C28.5,7 32.5,1.09375 32.5,-4 C32.5,-5.40625 32.2031,-6.79688 31.5,-8.09375"/>
<path class="Note" transform="matrix(2.336,0,0,2.336,1090.05,1942.25)" d="M31.5,-8.09375 C29.7031,-11.4063 25.9063,-13.2031 21.2969,-13.2031 C17.9063,-13.2031 14.2031,-12.2031 10.5938,-10.2969 C4,-6.79688 0,-0.90625 0,4.20313 C0,5.59375 0.296875,7 1,8.29688 C2.79688,11.5938 6.59375,13.2969 11.2031,13.2969 C14.5938,13.2969 18.2969,12.4063 21.9063,10.5 C28.5,7 32.5,1.09375 32.5,-4 C32.5,-5.40625 32.2031,-6.79688 31.5,-8.09375"/>
<path class="Note" transform="matrix(2.336,0,0,2.336,1209.75,1942.25)" d="M31.5,-8.09375 C29.7031,-11.4063 25.9063,-13.2031 21.2969,-13.2031 C17.9063,-13.2031 14.2031,-12.2031 10.5938,-10.2969 C4,-6.79688 0,-0.90625 0,4.20313 C0,5.59375 0.296875,7 1,8.29688 C2.79688,11.5938 6.59375,13.2969 11.2031,13.2969 C14.5938,13.2969 18.2969,12.4063 21.9063,10.5 C28.5,7 32.5,1.09375 32.5,-4 C32.5,-5.40625 32.2031,-6.79688 31.5,-8.09375"/>
<path class="Note" transform="matrix(2.336,0,0,2.336,1493.73,2000.65)" d="M31.5,-8.09375 C29.7031,-11.4063 25.9063,-13.2031 21.2969,-13.2031 C17.9063,-13.2031 14.2031,-12.2031 10.5938,-10.2969 C4,-6.79688 0,-0.90625 0,4.20313 C0,5.59375 0.296875,7 1,8.29688 C2.79688,11.5938 6.59375,13.2969 11.2031,13.2969 C14.5938,13.2969 18.2969,12.4063 21.9063,10.5 C28.5,7 32.5,1.09375 32.5,-4 C32.5,-5.40625 32.2031,-6.79688 31.5,-8.09375"/>
<path class="Note" transform="matrix(2.336,0,0,2.336,1681.25,1942.25)" d="M31.5,-8.09375 C29.7031,-11.4063 25.9063,-13.2031 21.2969,-13.2031 C17.9063,-13.2031 14.2031,-12.2031 10.5938,-10.2969 C4,-6.79688 0,-0.90625 0,4.20313 C0,5.59375 0.296875,7 1,8.29688 C2.79688,11.5938 6.59375,13.2969 11.2031,13.2969 C14.5938,13.2969 18.2969,12.4063 21.9063,10.5 C28.5,7 32.5,1.09375 32.5,-4 C32.5,-5.40625 32.2031,-6.79688 31.5,-8.09375"/>
<path class="Note" transform="matrix(2.336,0,0,2.336,1868.78,1883.85)" d="M31.5,-8.09375 C29.7031,-11.4063 25.9063,-13.2031 21.2969,-13.2031 C17.9063,-13.2031 14.2031,-12.2031 10.5938,-10.2969 C4,-6.79688 0,-0.90625 0,4.20313 C0,5.59375 0.296875,7 1,8.29688 C2.79688,11.5938 6.59375,13.2969 11.2031,13.2969 C14.5938,13.2969 18.2969,12.4063 21.9063,10.5 C28.5,7 32.5,1.09375 32.5,-4 C32.5,-5.40625 32.2031,-6.79688 31.5,-8.09375"/>
<path class="Note" transform="matrix(2.336,0,0,2.336,2203.39,1825.45)" d="M31.5,-8.09375 C29.7031,-11.4063 25.9063,-13.2031 21.2969,-13.2031 C17.9063,-13.2031 14.2031,-12.2031 10.5938,-10.2969 C4,-6.79688 0,-0.90625 0,4.20313 C0,5.59375 0.296875,7 1,8.29688 C2.79688,11.5938 6.59375,13.2969 11.2031,13.2969 C14.5938,13.2969 18.2969,12.4063 21.9063,10.5 C28.5,7 32.5,1.09375 32.5,-4 C32.5,-5.40625 32.2031,-6.79688 31.5,-8.09375"/>
<path class="Note" transform="matrix(2.336,0,0,2.336,2506.97,1913.05)" d="M31.5,-8.09375 C29.7031,-11.4063 25.9063,-13.2031 21.2969,-13.2031 C17.9063,-13.2031 14.2031,-12.2031 10.5938,-10.2969 C4,-6.79688 0,-0.90625 0,4.20313 C0,5.59375 0.296875,7 1,8.29688 C2.79688,11.5938 6.59375,13.2969 11.2031,13.2969 C14.5938,13.2969 18.2969,12.4063 21.9063,10.5 C28.5,7 32.5,1.09375 32.5,-4 C32.5,-5.40625 32.2031,-6.79688 31.5,-8.09375"/>
<path class="Note" transform="matrix(2.336,0,0,2.336,2662.56,1971.45)" d="M31.5,-8.09375 C29.7031,-11.4063 25.9063,-13.2031 21.2969,-13.2031 C17.9063,-13.2031 14.2031,-12.2031 10.5938,-10.2969 C4,-6.79688 0,-0.90625 0,4.20313 C0,5.59375 0.296875,7 1,8.29688 C2.79688,11.5938 6.59375,13.2969 11.2031,13.2969 C14.5938,13.2969 18.2969,12.4063 21.9063,10.5 C28.5,7 32.5,1.09375 32.5,-4 C32.5,-5.40625 32.2031,-6.79688 31.5,-8.09375"/>
<path class="Note" transform="matrix(2.336,0,0,2.336,2818.16,1942.25)" d="M31.5,-8.09375 C29.7031,-11.4063 25.9063,-13.2031 21.2969,-13.2031 C17.9063,-13.2031 14.2031,-12.2031 10.5938,-10.2969 C4,-6.79688 0,-0.90625 0,4.20313 C0,5.59375 0.296875,7 1,8.29688 C2.79688,11.5938 6.59375,13.2969 11.2031,13.2969 C14.5938,13.2969 18.2969,12.4063 21.9063,10.5 C28.5,7 32.5,1.09375 32.5,-4 C32.5,-5.40625 32.2031,-6.79688 31.5,-8.09375"/>
<path class="Note" transform="matrix(2.336,0,0,2.336,2973.76,1913.05)" d="M31.5,-8.14063 C29.7031,-11.4375 25.9063,-13.2344 21.2969,-13.2344 C17.9063,-13.2344 14.2031,-12.2344 10.5938,-10.3438 C4,-6.84375 0,-0.9375 0,4.15625 C0,5.5625 0.296875,6.96875 1,8.26563 C2.79688,11.5781 6.59375,13.2813 11.2031,13.2813 C14.5938,13.2813 18.2969,12.375 21.9063,10.4844 C28.5,6.96875 32.5,1.0625 32.5,-4.04688 C32.5,-5.4375 32.2031,-6.84375 31.5,-8.14063 M27.2031,-1.34375 C25.5,0.359375 22.0938,2.45313 18.5,4.46875 C14.9063,6.46875 11.2969,7.96875 8.90625,8.46875 C8.40625,8.57813 7.90625,8.67188 7.40625,8.67188 C5.79688,8.67188 4.59375,8.07813 3.90625,6.76563 C3.59375,6.26563 3.40625,5.67188 3.40625,5.0625 C3.40625,3.96875 4.09375,2.65625 5.20313,1.5625 C6.90625,-0.140625 10.2031,-2.23438 13.7969,-4.23438 C17.4063,-6.23438 21,-7.73438 23.4063,-8.23438 C23.9063,-8.34375 24.4063,-8.4375 24.9063,-8.4375 C26.5,-8.4375 27.7969,-7.84375 28.5,-6.54688 C28.7969,-6.04688 28.9063,-5.4375 28.9063,-4.84375 C28.9063,-3.73438 28.2969,-2.54688 27.2031,-1.34375"/>
<path class="Note" transform="matrix(2.336,0,0,2.336,3494.86,1913.05)" d="M18.7031,-13.5938 C4.90625,-13.5938 0,-6.59375 0,-0.09375 C0,6.40625 4.90625,13.4063 18.7031,13.4063 C32.5,13.4063 37.2969,6.40625 37.2969,-0.09375 C37.2969,-6.59375 32.5,-13.5938 18.7031,-13.5938 M10.4063,-4.5 C10.2969,-4.90625 10.2969,-5.29688 10.2969,-5.70313 C10.2969,-6.5 10.5,-7.29688 10.9063,-8 C11.5938,-9 12.7969,-9.70313 14.2969,-10 C15.5938,-10.2969 16.2969,-10.5 18.9063,-10.5 L19,-10.5 C23,-10.5 24.2969,-6.79688 25.4063,-3 L25.7031,-2 C26.5,0.59375 26.9063,2.79688 26.9063,4.5 C26.9063,5.70313 26.7031,6.79688 26.2969,7.59375 C25.7031,8.70313 24.7031,9.40625 23,9.79688 C22.0938,10 20.5938,10.0938 20.5938,10.0938 C20.0938,10.0938 19.7031,10.2031 19.2969,10.2031 C16.0938,10.2031 14.0938,9 12.7031,4.70313 C11.5,1 11.2969,-0.09375 10.4063,-4.5"/>
<path class="Clef" transform="matrix(2.336,0,0,2.336,149.706,654.865)" d="M63.3594,-5.92188 C62.125,-11.3438 59.4844,-15.1719 58.7031,-16.2031 C55.5156,-20.4844 51.5,-23.3281 46.8125,-24.6875 C43.7031,-25.5625 40.7031,-25.6875 38.2813,-25.5 C37.2344,-31.5156 36.2344,-37.3906 35.3281,-42.8438 C40.7813,-49.0156 44.4063,-54.8125 46.6875,-59.1094 C50.1563,-65.6875 51.2969,-70.2656 51.3594,-70.4688 C53.0781,-75.6875 53.4375,-83.3906 52.3281,-91.5938 C51.3281,-99.1406 49.2344,-105.859 46.875,-109.109 C45.8594,-110.531 44.7969,-111.266 43.7656,-111.266 C42.5469,-111.266 40.0313,-110.031 37.1406,-107.25 C34.8438,-105.063 31.5781,-101.172 29.0156,-95.1563 C26.0156,-88.0938 25.7969,-78.6094 26.1563,-71.8906 C26.5313,-64.6094 27.6406,-58.9219 27.6563,-58.875 C27.6719,-58.7813 27.9375,-57.2813 28.375,-54.7188 C28.1563,-54.4844 27.9063,-54.2656 27.6563,-54.0156 C26.625,-53.0156 25.4375,-51.8906 24.0469,-50.5 C23.1875,-49.6406 22.2344,-48.7344 21.2344,-47.7656 C12.7969,-39.625 0,-27.2969 0,-8.14063 C0,-3.4375 0.90625,0.984375 2.6875,5 C4.26563,8.59375 6.5625,11.875 9.5,14.75 C17.2344,22.3125 27.8281,25.5156 34.875,25.3594 C37.8281,25.2813 40.4688,25.0469 42.8594,24.5938 C44.6875,34.2031 45.8281,41.2344 45.8594,46.5781 C45.9063,53.0938 44.25,57.0781 40.3594,59.8438 C37.9219,61.5781 35.1094,62.5313 32.0156,62.6719 C29.4219,62.7969 27.1563,62.3281 25.7344,61.9219 L25.7188,61.9219 C25.7188,61.9219 25.4375,61.8281 25.4219,61.6406 C25.4063,61.4531 25.7656,61.4063 25.7656,61.4063 L25.7969,61.4063 C27.7188,60.9688 31.2813,59.7344 33.6406,56.4375 C35.4375,53.9063 36.3125,49.2813 34.4688,45.3438 C33.3594,42.9531 30.8594,40 25.2344,39.5469 C22.7344,39.3438 20.4688,39.8594 18.4688,41.0625 C16.6563,42.1406 15.1563,43.7813 14.1094,45.7813 C11.6563,50.4844 12.1094,56.2188 15.2344,60.0625 C18.2031,63.6875 22.8125,66 28.25,66.5781 C29.1094,66.6719 29.9531,66.7031 30.7969,66.7031 C35.2344,66.7031 39.625,65.5 43.2031,63.2969 C46.8594,60.7188 48.9844,56.7344 49.6563,51.1094 C50.2188,46.4688 49.8281,40.5469 48.4375,32.4688 C48.0781,30.375 47.5313,27.3438 46.875,23.5938 C52.625,21.6719 56.7813,18.0938 60.5469,12.2344 C63.8438,6.5 64.7813,0.390625 63.3594,-5.92188 M29.1406,20.2969 C24.5,19.0781 20.0625,16.5781 16.3125,13.0625 C15,11.8438 13.125,9.67188 11.6563,6.28125 C10.2969,3.10938 9.625,-0.328125 9.6875,-3.90625 C9.75,-8.60938 11.0625,-13.4375 13.5625,-18.2188 C16.4844,-23.7969 21.0469,-29.3281 27.1094,-34.6563 C28.5625,-35.9375 29.9375,-37.2188 31.2188,-38.5 C31.9844,-34.2344 32.8125,-29.5469 33.6875,-24.6719 C29.8438,-23.4063 25.0938,-20.25 21.9844,-14.5938 C18.4375,-8.03125 18.5781,-2.5 19.3125,0.984375 C20.25,5.4375 22.7813,9.20313 26.2344,11.2969 C27.1719,11.8594 31.2969,13.9844 33.1406,13.4063 C33.5156,13.2969 33.7813,13.0625 33.9219,12.7344 C34.4375,11.5625 33.4063,10.9219 31.8594,9.96875 C31.25,9.59375 30.5781,9.17188 29.8594,8.64063 C26.5313,6.15625 25.0781,1.70313 26.1563,-2.6875 C26.7344,-5.07813 28.0156,-7.25 29.8594,-8.95313 C31.5156,-10.5 33.5625,-11.5938 35.9375,-12.2344 C37.9844,-0.984375 40.0469,10.1719 41.6875,18.5313 C41.8125,19.2188 41.9531,19.8906 42.0781,20.5625 C37.7031,21.5 33.3594,21.4063 29.1406,20.2969 M40.4688,-12.9063 C50.8125,-13.375 55.0781,-5.9375 55.9688,-1.10938 C56.4375,1.4375 56.4375,5.875 54.8906,10.0938 C53.7188,13.2656 51.2656,17.3438 46.125,19.4063 C46.0625,18.9844 45.9844,18.5469 45.9063,18.125 C44.3594,9.34375 42.4219,-1.65625 40.4688,-12.9063 M33.1406,-83.8594 C34.9219,-89.5938 37.6563,-92.8438 39.6563,-94.5781 C41.4063,-96.0938 43.0469,-96.8125 43.9688,-96.8125 C44.1094,-96.8125 44.2344,-96.7813 44.3281,-96.75 C44.7969,-96.6094 45.3281,-96.0469 45.7969,-95.1719 C48.1094,-90.8906 47.3594,-84.1719 46.0156,-79.7344 C44.3906,-74.3281 41.4688,-68.7188 32.6719,-59.1094 C32.5,-60.2188 32.3438,-61.2656 32.1875,-62.25 C30.9375,-70.5313 31.2656,-77.8125 33.1406,-83.8594"/>
<path class="Clef" transform="matrix(2.336,0,0,2.336,149.706,1386.16)" d="M63.3594,-5.92188 C62.125,-11.3438 59.4844,-15.1719 58.7031,-16.2031 C55.5156,-20.4844 51.5,-23.3281 46.8125,-24.6875 C43.7031,-25.5625 40.7031,-25.6875 38.2813,-25.5 C37.2344,-31.5156 36.2344,-37.3906 35.3281,-42.8438 C40.7813,-49.0156 44.4063,-54.8125 46.6875,-59.1094 C50.1563,-65.6875 51.2969,-70.2656 51.3594,-70.4688 C53.0781,-75.6875 53.4375,-83.3906 52.3281,-91.5938 C51.3281,-99.1406 49.2344,-105.859 46.875,-109.109 C45.8594,-110.531 44.7969,-111.266 43.7656,-111.266 C42.5469,-111.266 40.0313,-110.031 37.1406,-107.25 C34.8438,-105.063 31.5781,-101.172 29.0156,-95.1563 C26.0156,-88.0938 25.7969,-78.6094 26.1563,-71.8906 C26.5313,-64.6094 27.6406,-58.9219 27.6563,-58.875 C27.6719,-58.7813 27.9375,-57.2813 28.375,-54.7188 C28.1563,-54.4844 27.9063,-54.2656 27.6563,-54.0156 C26.625,-53.0156 25.4375,-51.8906 24.0469,-50.5 C23.1875,-49.6406 22.2344,-48.7344 21.2344,-47.7656 C12.7969,-39.625 0,-27.2969 0,-8.14063 C0,-3.4375 0.90625,0.984375 2.6875,5 C4.26563,8.59375 6.5625,11.875 9.5,14.75 C17.2344,22.3125 27.8281,25.5156 34.875,25.3594 C37.8281,25.2813 40.4688,25.0469 42.8594,24.5938 C44.6875,34.2031 45.8281,41.2344 45.8594,46.5781 C45.9063,53.0938 44.25,57.0781 40.3594,59.8438 C37.9219,61.5781 35.1094,62.5313 32.0156,62.6719 C29.4219,62.7969 27.1563,62.3281 25.7344,61.9219 L25.7188,61.9219 C25.7188,61.9219 25.4375,61.8281 25.4219,61.6406 C25.4063,61.4531 25.7656,61.4063 25.7656,61.4063 L25.7969,61.4063 C27.7188,60.9688 31.2813,59.7344 33.6406,56.4375 C35.4375,53.9063 36.3125,49.2813 34.4688,45.3438 C33.3594,42.9531 30.8594,40 25.2344,39.5469 C22.7344,39.3438 20.4688,39.8594 18.4688,41.0625 C16.6563,42.1406 15.1563,43.7813 14.1094,45.7813 C11.6563,50.4844 12.1094,56.2188 15.2344,60.0625 C18.2031,63.6875 22.8125,66 28.25,66.5781 C29.1094,66.6719 29.9531,66.7031 30.7969,66.7031 C35.2344,66.7031 39.625,65.5 43.2031,63.2969 C46.8594,60.7188 48.9844,56.7344 49.6563,51.1094 C50.2188,46.4688 49.8281,40.5469 48.4375,32.4688 C48.0781,30.375 47.5313,27.3438 46.875,23.5938 C52.625,21.6719 56.7813,18.0938 60.5469,12.2344 C63.8438,6.5 64.7813,0.390625 63.3594,-5.92188 M29.1406,20.2969 C24.5,19.0781 20.0625,16.5781 16.3125,13.0625 C15,11.8438 13.125,9.67188 11.6563,6.28125 C10.2969,3.10938 9.625,-0.328125 9.6875,-3.90625 C9.75,-8.60938 11.0625,-13.4375 13.5625,-18.2188 C16.4844,-23.7969 21.0469,-29.3281 27.1094,-34.6563 C28.5625,-35.9375 29.9375,-37.2188 31.2188,-38.5 C31.9844,-34.2344 32.8125,-29.5469 33.6875,-24.6719 C29.8438,-23.4063 25.0938,-20.25 21.9844,-14.5938 C18.4375,-8.03125 18.5781,-2.5 19.3125,0.984375 C20.25,5.4375 22.7813,9.20313 26.2344,11.2969 C27.1719,11.8594 31.2969,13.9844 33.1406,13.4063 C33.5156,13.2969 33.7813,13.0625 33.9219,12.7344 C34.4375,11.5625 33.4063,10.9219 31.8594,9.96875 C31.25,9.59375 30.5781,9.17188 29.8594,8.64063 C26.5313,6.15625 25.0781,1.70313 26.1563,-2.6875 C26.7344,-5.07813 28.0156,-7.25 29.8594,-8.95313 C31.5156,-10.5 33.5625,-11.5938 35.9375,-12.2344 C37.9844,-0.984375 40.0469,10.1719 41.6875,18.5313 C41.8125,19.2188 41.9531,19.8906 42.0781,20.5625 C37.7031,21.5 33.3594,21.4063 29.1406,20.2969 M40.4688,-12.9063 C50.8125,-13.375 55.0781,-5.9375 55.9688,-1.10938 C56.4375,1.4375 56.4375,5.875 54.8906,10.0938 C53.7188,13.2656 51.2656,17.3438 46.125,19.4063 C46.0625,18.9844 45.9844,18.5469 45.9063,18.125 C44.3594,9.34375 42.4219,-1.65625 40.4688,-12.9063 M33.1406,-83.8594 C34.9219,-89.5938 37.6563,-92.8438 39.6563,-94.5781 C41.4063,-96.0938 43.0469,-96.8125 43.9688,-96.8125 C44.1094,-96.8125 44.2344,-96.7813 44.3281,-96.75 C44.7969,-96.6094 45.3281,-96.0469 45.7969,-95.1719 C48.1094,-90.8906 47.3594,-84.1719 46.0156,-79.7344 C44.3906,-74.3281 41.4688,-68.7188 32.6719,-59.1094 C32.5,-60.2188 32.3438,-61.2656 32.1875,-62.25 C30.9375,-70.5313 31.2656,-77.8125 33.1406,-83.8594"/>
<path class="Clef" transform="matrix(2.336,0,0,2.336,149.706,2117.45)" d="M63.3594,-5.92188 C62.125,-11.3438 59.4844,-15.1719 58.7031,-16.2031 C55.5156,-20.4844 51.5,-23.3281 46.8125,-24.6875 C43.7031,-25.5625 40.7031,-25.6875 38.2813,-25.5 C37.2344,-31.5156 36.2344,-37.3906 35.3281,-42.8438 C40.7813,-49.0156 44.4063,-54.8125 46.6875,-59.1094 C50.1563,-65.6875 51.2969,-70.2656 51.3594,-70.4688 C53.0781,-75.6875 53.4375,-83.3906 52.3281,-91.5938 C51.3281,-99.1406 49.2344,-105.859 46.875,-109.109 C45.8594,-110.531 44.7969,-111.266 43.7656,-111.266 C42.5469,-111.266 40.0313,-110.031 37.1406,-107.25 C34.8438,-105.063 31.5781,-101.172 29.0156,-95.1563 C26.0156,-88.0938 25.7969,-78.6094 26.1563,-71.8906 C26.5313,-64.6094 27.6406,-58.9219 27.6563,-58.875 C27.6719,-58.7813 27.9375,-57.2813 28.375,-54.7188 C28.1563,-54.4844 27.9063,-54.2656 27.6563,-54.0156 C26.625,-53.0156 25.4375,-51.8906 24.0469,-50.5 C23.1875,-49.6406 22.2344,-48.7344 21.2344,-47.7656 C12.7969,-39.625 0,-27.2969 0,-8.14063 C0,-3.4375 0.90625,0.984375 2.6875,5 C4.26563,8.59375 6.5625,11.875 9.5,14.75 C17.2344,22.3125 27.8281,25.5156 34.875,25.3594 C37.8281,25.2813 40.4688,25.0469 42.8594,24.5938 C44.6875,34.2031 45.8281,41.2344 45.8594,46.5781 C45.9063,53.0938 44.25,57.0781 40.3594,59.8438 C37.9219,61.5781 35.1094,62.5313 32.0156,62.6719 C29.4219,62.7969 27.1563,62.3281 25.7344,61.9219 L25.7188,61.9219 C25.7188,61.9219 25.4375,61.8281 25.4219,61.6406 C25.4063,61.4531 25.7656,61.4063 25.7656,61.4063 L25.7969,61.4063 C27.7188,60.9688 31.2813,59.7344 33.6406,56.4375 C35.4375,53.9063 36.3125,49.2813 34.4688,45.3438 C33.3594,42.9531 30.8594,40 25.2344,39.5469 C22.7344,39.3438 20.4688,39.8594 18.4688,41.0625 C16.6563,42.1406 15.1563,43.7813 14.1094,45.7813 C11.6563,50.4844 12.1094,56.2188 15.2344,60.0625 C18.2031,63.6875 22.8125,66 28.25,66.5781 C29.1094,66.6719 29.9531,66.7031 30.7969,66.7031 C35.2344,66.7031 39.625,65.5 43.2031,63.2969 C46.8594,60.7188 48.9844,56.7344 49.6563,51.1094 C50.2188,46.4688 49.8281,40.5469 48.4375,32.4688 C48.0781,30.375 47.5313,27.3438 46.875,23.5938 C52.625,21.6719 56.7813,18.0938 60.5469,12.2344 C63.8438,6.5 64.7813,0.390625 63.3594,-5.92188 M29.1406,20.2969 C24.5,19.0781 20.0625,16.5781 16.3125,13.0625 C15,11.8438 13.125,9.67188 11.6563,6.28125 C10.2969,3.10938 9.625,-0.328125 9.6875,-3.90625 C9.75,-8.60938 11.0625,-13.4375 13.5625,-18.2188 C16.4844,-23.7969 21.0469,-29.3281 27.1094,-34.6563 C28.5625,-35.9375 29.9375,-37.2188 31.2188,-38.5 C31.9844,-34.2344 32.8125,-29.5469 33.6875,-24.6719 C29.8438,-23.4063 25.0938,-20.25 21.9844,-14.5938 C18.4375,-8.03125 18.5781,-2.5 19.3125,0.984375 C20.25,5.4375 22.7813,9.20313 26.2344,11.2969 C27.1719,11.8594 31.2969,13.9844 33.1406,13.4063 C33.5156,13.2969 33.7813,13.0625 33.9219,12.7344 C34.4375,11.5625 33.4063,10.9219 31.8594,9.96875 C31.25,9.59375 30.5781,9.17188 29.8594,8.64063 C26.5313,6.15625 25.0781,1.70313 26.1563,-2.6875 C26.7344,-5.07813 28.0156,-7.25 29.8594,-8.95313 C31.5156,-10.5 33.5625,-11.5938 35.9375,-12.2344 C37.9844,-0.984375 40.0469,10.1719 41.6875,18.5313 C41.8125,19.2188 41.9531,19.8906 42.0781,20.5625 C37.7031,21.5 33.3594,21.4063 29.1406,20.2969 M40.4688,-12.9063 C50.8125,-13.375 55.0781,-5.9375 55.9688,-1.10938 C56.4375,1.4375 56.4375,5.875 54.8906,10.0938 C53.7188,13.2656 51.2656,17.3438 46.125,19.4063 C46.0625,18.9844 45.9844,18.5469 45.9063,18.125 C44.3594,9.34375 42.4219,-1.65625 40.4688,-12.9063 M33.1406,-83.8594 C34.9219,-89.5938 37.6563,-92.8438 39.6563,-94.5781 C41.4063,-96.0938 43.0469,-96.8125 43.9688,-96.8125 C44.1094,-96.8125 44.2344,-96.7813 44.3281,-96.75 C44.7969,-96.6094 45.3281,-96.0469 45.7969,-95.1719 C48.1094,-90.8906 47.3594,-84.1719 46.0156,-79.7344 C44.3906,-74.3281 41.4688,-68.7188 32.6719,-59.1094 C32.5,-60.2188 32.3438,-61.2656 32.1875,-62.25 C30.9375,-70.5313 31.2656,-77.8125 33.1406,-83.8594"/>
<path class="TimeSig" transform="matrix(2.336,0,0,2.336,389.693,596.465)" d="M32.5,-17.9063 C30,-16.2969 28.2031,-13.4063 28.2031,-10.2031 C28.2031,-9.79688 28.2031,-9.40625 28.2969,-9 C28.7969,-4.90625 32.1094,-1.70313 36.2031,-1.20313 L37.2969,-1.20313 C42.2969,-1.20313 46.2969,-5.20313 46.2969,-10.2031 L46.2969,-10.7969 C46.2969,-11.2031 46.2031,-11.9063 46.1094,-12.2969 C45.2031,-16.5938 41.2969,-25.7969 24.2969,-25.7969 C2.5,-25.7969 0,-7.70313 0,-1.20313 C0,10.7031 1.5,25.6094 26.5,25.6094 C36.4063,25.6094 44.1094,19.7969 44.5,9.09375 C44.5,8.59375 44.2031,8.29688 43.7031,8.29688 L42.4063,8.29688 C42,8.29688 41.6094,8.70313 41.6094,9.09375 C41.2031,17.4063 35.2969,22.4063 26.5,22.4063 C17.7969,22.4063 13.5938,17.7031 13.5938,8.90625 L13.5938,-10.2031 C13.5938,-15.7969 15.7969,-22.2031 24.7031,-22.2031 C29.4063,-22.2031 31.5,-20.5 32.6094,-18.7969 C32.7969,-18.4063 32.7969,-18.0938 32.5,-17.9063"/>
<path class="Rest" transform="matrix(2.336,0,0,2.336,1290.98,1301.15)" d="M26.7344,-20.2656 C25.9844,-20.5469 25.3125,-20.2031 24.9844,-19.5938 C24.6563,-18.9844 21.4688,-13.0625 17.0469,-9.79688 C15.6563,-8.78125 14.0625,-8.14063 12.5,-7.8125 C13.625,-9.0625 14.2969,-10.7344 14.2969,-12.5469 C14.2969,-16.5 11.0938,-19.7031 7.15625,-19.7031 C3.20313,-19.7031 0,-16.5 0,-12.5469 C0,-9.54688 1.875,-6.95313 4.51563,-5.90625 C6.04688,-5.1875 7.95313,-4.73438 10,-4.73438 C12.8438,-4.73438 15.9531,-5.5625 18.6719,-7.5625 C19.9375,-8.48438 21.125,-9.6875 22.2031,-10.9375 L10.8125,24.6875 L13.4531,25.5469 L27.5313,-18.5469 C27.7656,-19.2813 27.4688,-19.9688 26.7344,-20.2656"/>
<path class="Beam" fill-rule="evenodd" d="M605.882,684.065 L910.827,684.065 L910.827,713.265 L605.882,713.265 L605.882,684.065 "/>
<path class="Beam" fill-rule="evenodd" d="M784.702,640.265 L910.827,640.265 L910.827,669.465 L784.702,669.465 L784.702,640.265 "/>
<path class="Beam" fill-rule="evenodd" d="M1269.98,654.865 L1555.59,654.865 L1555.59,684.065 L1269.98,684.065 L1269.98,654.865 "/>
<path class="Beam" fill-rule="evenodd" d="M1688.76,684.065 L1974.37,684.065 L1974.37,713.265 L1688.76,713.265 L1688.76,684.065 "/>
<path class="Beam" fill-rule="evenodd" d="M2282.12,684.065 L2604.04,684.065 L2604.04,713.265 L2282.12,713.265 L2282.12,684.065 "/>
<path class="Beam" fill-rule="evenodd" d="M2476.28,640.265 L2604.04,640.265 L2604.04,669.465 L2476.28,669.465 L2476.28,640.265 "/>
<path class="Beam" fill-rule="evenodd" d="M2718.97,654.865 L3028.52,654.865 L3028.52,684.065 L2718.97,684.065 L2718.97,654.865 "/>
<path class="Beam" fill-rule="evenodd" d="M3173.66,654.865 L3483.21,654.865 L3483.21,684.065 L3173.66,684.065 L3173.66,654.865 "/>
<path class="Beam" fill-rule="evenodd" d="M3628.35,713.265 L3937.9,713.265 L3937.9,742.465 L3628.35,742.465 L3628.35,713.265 "/>
<path class="Beam" fill-rule="evenodd" d="M407.213,1473.76 L829.555,1473.76 L829.555,1502.96 L407.213,1502.96 L407.213,1473.76 "/>
<path class="Beam" fill-rule="evenodd" d="M703.429,1429.96 L829.555,1429.96 L829.555,1459.16 L703.429,1459.16 L703.429,1429.96 "/>
<path class="Beam" fill-rule="evenodd" d="M703.429,1386.16 L829.555,1386.16 L829.555,1415.36 L703.429,1415.36 L703.429,1386.16 "/>
<path class="Beam" fill-rule="evenodd" d="M1564.18,1444.35 L2000.02,1370.26 L2000.02,1399.87 L1564.18,1473.97 L1564.18,1444.35 "/>
<path class="Beam" fill-rule="evenodd" d="M2662.16,1415.36 L3075.16,1415.36 L3075.16,1444.56 L2662.16,1444.56 L2662.16,1415.36 "/>
<path class="Beam" fill-rule="evenodd" d="M2949.03,1371.56 L3075.16,1371.56 L3075.16,1400.76 L2949.03,1400.76 L2949.03,1371.56 "/>
<path class="Beam" fill-rule="evenodd" d="M2949.03,1327.76 L3075.16,1327.76 L3075.16,1356.96 L2949.03,1356.96 L2949.03,1327.76 "/>
<path class="Beam" fill-rule="evenodd" d="M3503.3,1429.73 L3925.59,1355.61 L3925.59,1385.25 L3503.3,1459.38 L3503.3,1429.73 "/>
<path class="Beam" fill-rule="evenodd" d="M711.628,2146.65 L1096.47,2146.65 L1096.47,2175.85 L711.628,2175.85 L711.628,2146.65 "/>
<path class="Beam" fill-rule="evenodd" d="M970.348,2102.85 L1096.47,2102.85 L1096.47,2132.05 L970.348,2132.05 L970.348,2102.85 "/>
<path class="Beam" fill-rule="evenodd" d="M970.348,2059.05 L1096.47,2059.05 L1096.47,2088.25 L970.348,2088.25 L970.348,2059.05 "/>
<path class="Beam" fill-rule="evenodd" d="M1493.73,2160.97 L1875.2,2086.72 L1875.2,2116.47 L1493.73,2190.72 L1493.73,2160.97 "/>
<path class="Beam" fill-rule="evenodd" d="M2506.97,2117.45 L2824.59,2117.45 L2824.59,2146.65 L2506.97,2146.65 L2506.97,2117.45 "/>
<path class="Tuplet" d="M1418.78,784.046 C1423.72,782.468 1425.7,781.625 1428.22,779.953 C1433.15,776.703 1436.2,770.921 1436.2,765.046 C1436.2,755.062 1428.22,748.343 1416.47,748.343 C1405.01,748.343 1395.36,755.484 1395.36,764.093 C1395.36,768.406 1397.98,771.343 1401.98,771.343 C1405.43,771.343 1407.97,768.828 1407.97,765.359 C1407.97,763.578 1407.43,762.312 1405.75,760.64 C1404.7,759.687 1404.28,758.953 1404.28,758.218 C1404.28,755.703 1409.53,753.078 1414.47,753.078 C1421.5,753.078 1425.7,756.953 1425.7,763.468 C1425.7,772.812 1419.09,781.625 1412.06,781.625 C1411.73,781.625 1410.79,781.531 1409.64,781.421 C1406.59,781.218 1406.59,781.218 1405.97,781.218 C1403.65,781.218 1402.39,782.265 1402.39,784.156 C1402.39,785.828 1403.54,786.875 1405.43,786.875 C1405.97,786.875 1406.7,786.781 1407.54,786.671 C1409.01,786.359 1410.59,786.25 1411.53,786.25 C1416.47,786.25 1419.83,790.656 1419.83,797.171 C1419.83,802.218 1418.67,807.046 1416.36,811.031 C1413.22,816.703 1408.37,819.437 1401.56,819.437 C1395.67,819.437 1390.64,816.484 1390.64,813.125 C1390.64,811.968 1391.06,811.562 1392.73,810.828 C1395.78,809.453 1397.04,807.562 1397.04,804.734 C1397.04,801.062 1394.11,798.218 1390.33,798.218 C1385.81,798.218 1382.87,801.796 1382.87,807.25 C1382.87,817.437 1390.64,823.843 1403.23,823.843 C1419.09,823.843 1431.17,813.234 1431.17,799.171 C1431.17,795.39 1430.01,792.125 1427.81,789.5 C1425.5,786.781 1423.39,785.515 1418.78,784.046"/>
<path class="Tuplet" d="M1837.56,789.543 C1842.5,787.965 1844.48,787.121 1847,785.45 C1851.93,782.2 1854.98,776.418 1854.98,770.543 C1854.98,760.559 1847,753.84 1835.25,753.84 C1823.79,753.84 1814.14,760.981 1814.14,769.59 C1814.14,773.903 1816.76,776.84 1820.76,776.84 C1824.21,776.84 1826.75,774.325 1826.75,770.856 C1826.75,769.075 1826.21,767.809 1824.53,766.137 C1823.48,765.184 1823.06,764.45 1823.06,763.715 C1823.06,761.2 1828.31,758.575 1833.25,758.575 C1840.28,758.575 1844.48,762.45 1844.48,768.965 C1844.48,778.309 1837.87,787.121 1830.84,787.121 C1830.51,787.121 1829.57,787.028 1828.42,786.918 C1825.37,786.715 1825.37,786.715 1824.75,786.715 C1822.43,786.715 1821.17,787.762 1821.17,789.653 C1821.17,791.325 1822.32,792.371 1824.21,792.371 C1824.75,792.371 1825.48,792.278 1826.32,792.168 C1827.79,791.856 1829.37,791.746 1830.31,791.746 C1835.25,791.746 1838.61,796.153 1838.61,802.668 C1838.61,807.715 1837.45,812.543 1835.14,816.528 C1832,822.2 1827.15,824.934 1820.34,824.934 C1814.45,824.934 1809.42,821.981 1809.42,818.621 C1809.42,817.465 1809.84,817.059 1811.51,816.325 C1814.56,814.95 1815.82,813.059 1815.82,810.231 C1815.82,806.559 1812.89,803.715 1809.11,803.715 C1804.59,803.715 1801.65,807.293 1801.65,812.746 C1801.65,822.934 1809.42,829.34 1822.01,829.34 C1837.87,829.34 1849.95,818.731 1849.95,804.668 C1849.95,800.887 1848.79,797.621 1846.59,794.996 C1844.28,792.278 1842.17,791.012 1837.56,789.543"/>
<path class="Tuplet" d="M2879.73,784.046 C2884.67,782.468 2886.65,781.625 2889.17,779.953 C2894.11,776.703 2897.15,770.921 2897.15,765.046 C2897.15,755.062 2889.17,748.343 2877.42,748.343 C2865.97,748.343 2856.31,755.484 2856.31,764.093 C2856.31,768.406 2858.94,771.343 2862.94,771.343 C2866.39,771.343 2868.92,768.828 2868.92,765.359 C2868.92,763.578 2868.39,762.312 2866.7,760.64 C2865.65,759.687 2865.23,758.953 2865.23,758.218 C2865.23,755.703 2870.48,753.078 2875.42,753.078 C2882.45,753.078 2886.65,756.953 2886.65,763.468 C2886.65,772.812 2880.05,781.625 2873.01,781.625 C2872.69,781.625 2871.75,781.531 2870.59,781.421 C2867.55,781.218 2867.55,781.218 2866.92,781.218 C2864.61,781.218 2863.34,782.265 2863.34,784.156 C2863.34,785.828 2864.5,786.875 2866.39,786.875 C2866.92,786.875 2867.65,786.781 2868.5,786.671 C2869.97,786.359 2871.55,786.25 2872.48,786.25 C2877.42,786.25 2880.78,790.656 2880.78,797.171 C2880.78,802.218 2879.62,807.046 2877.31,811.031 C2874.17,816.703 2869.33,819.437 2862.51,819.437 C2856.62,819.437 2851.59,816.484 2851.59,813.125 C2851.59,811.968 2852.01,811.562 2853.69,810.828 C2856.73,809.453 2858,807.562 2858,804.734 C2858,801.062 2855.06,798.218 2851.28,798.218 C2846.76,798.218 2843.83,801.796 2843.83,807.25 C2843.83,817.437 2851.59,823.843 2864.19,823.843 C2880.05,823.843 2892.12,813.234 2892.12,799.171 C2892.12,795.39 2890.97,792.125 2888.76,789.5 C2886.45,786.781 2884.34,785.515 2879.73,784.046"/>
<path class="Tuplet" d="M3334.42,784.046 C3339.36,782.468 3341.34,781.625 3343.86,779.953 C3348.8,776.703 3351.84,770.921 3351.84,765.046 C3351.84,755.062 3343.86,748.343 3332.11,748.343 C3320.66,748.343 3311,755.484 3311,764.093 C3311,768.406 3313.63,771.343 3317.63,771.343 C3321.08,771.343 3323.61,768.828 3323.61,765.359 C3323.61,763.578 3323.08,762.312 3321.39,760.64 C3320.34,759.687 3319.92,758.953 3319.92,758.218 C3319.92,755.703 3325.17,753.078 3330.11,753.078 C3337.14,753.078 3341.34,756.953 3341.34,763.468 C3341.34,772.812 3334.73,781.625 3327.7,781.625 C3327.38,781.625 3326.44,781.531 3325.28,781.421 C3322.23,781.218 3322.23,781.218 3321.61,781.218 C3319.3,781.218 3318.03,782.265 3318.03,784.156 C3318.03,785.828 3319.19,786.875 3321.08,786.875 C3321.61,786.875 3322.34,786.781 3323.19,786.671 C3324.66,786.359 3326.23,786.25 3327.17,786.25 C3332.11,786.25 3335.47,790.656 3335.47,797.171 C3335.47,802.218 3334.31,807.046 3332,811.031 C3328.86,816.703 3324.02,819.437 3317.2,819.437 C3311.31,819.437 3306.28,816.484 3306.28,813.125 C3306.28,811.968 3306.7,811.562 3308.38,810.828 C3311.42,809.453 3312.69,807.562 3312.69,804.734 C3312.69,801.062 3309.75,798.218 3305.97,798.218 C3301.45,798.218 3298.52,801.796 3298.52,807.25 C3298.52,817.437 3306.28,823.843 3318.88,823.843 C3334.73,823.843 3346.81,813.234 3346.81,799.171 C3346.81,795.39 3345.66,792.125 3343.45,789.5 C3341.14,786.781 3339.03,785.515 3334.42,784.046"/>
<path class="Tuplet" d="M3789.11,818.743 C3794.05,817.165 3796.03,816.321 3798.55,814.65 C3803.49,811.4 3806.53,805.618 3806.53,799.743 C3806.53,789.759 3798.55,783.04 3786.8,783.04 C3775.35,783.04 3765.69,790.181 3765.69,798.79 C3765.69,803.103 3768.32,806.04 3772.32,806.04 C3775.77,806.04 3778.3,803.525 3778.3,800.056 C3778.3,798.275 3777.77,797.009 3776.08,795.337 C3775.03,794.384 3774.61,793.65 3774.61,792.915 C3774.61,790.4 3779.86,787.775 3784.8,787.775 C3791.83,787.775 3796.03,791.65 3796.03,798.165 C3796.03,807.509 3789.42,816.321 3782.39,816.321 C3782.07,816.321 3781.13,816.228 3779.97,816.118 C3776.92,815.915 3776.92,815.915 3776.3,815.915 C3773.99,815.915 3772.72,816.962 3772.72,818.853 C3772.72,820.525 3773.88,821.571 3775.77,821.571 C3776.3,821.571 3777.03,821.478 3777.88,821.368 C3779.35,821.056 3780.92,820.946 3781.86,820.946 C3786.8,820.946 3790.16,825.353 3790.16,831.868 C3790.16,836.915 3789,841.743 3786.69,845.728 C3783.55,851.4 3778.71,854.134 3771.89,854.134 C3766,854.134 3760.97,851.181 3760.97,847.821 C3760.97,846.665 3761.39,846.259 3763.07,845.525 C3766.11,844.15 3767.38,842.259 3767.38,839.431 C3767.38,835.759 3764.44,832.915 3760.66,832.915 C3756.14,832.915 3753.21,836.493 3753.21,841.946 C3753.21,852.134 3760.97,858.54 3773.57,858.54 C3789.42,858.54 3801.5,847.931 3801.5,833.868 C3801.5,830.087 3800.35,826.821 3798.14,824.196 C3795.83,821.478 3793.72,820.212 3789.11,818.743"/>
<path class="Tuplet" d="M1788.09,1546.14 C1793.03,1544.57 1795.01,1543.72 1797.53,1542.05 C1802.47,1538.8 1805.51,1533.02 1805.51,1527.14 C1805.51,1517.16 1797.53,1510.44 1785.78,1510.44 C1774.32,1510.44 1764.67,1517.58 1764.67,1526.19 C1764.67,1530.5 1767.29,1533.44 1771.29,1533.44 C1774.75,1533.44 1777.28,1530.92 1777.28,1527.46 C1777.28,1525.67 1776.75,1524.41 1775.06,1522.74 C1774.01,1521.78 1773.59,1521.05 1773.59,1520.32 C1773.59,1517.8 1778.84,1515.17 1783.78,1515.17 C1790.81,1515.17 1795.01,1519.05 1795.01,1525.57 C1795.01,1534.91 1788.4,1543.72 1781.37,1543.72 C1781.04,1543.72 1780.11,1543.63 1778.95,1543.52 C1775.9,1543.32 1775.9,1543.32 1775.28,1543.32 C1772.97,1543.32 1771.7,1544.36 1771.7,1546.25 C1771.7,1547.92 1772.86,1548.97 1774.75,1548.97 C1775.28,1548.97 1776.01,1548.88 1776.86,1548.77 C1778.32,1548.46 1779.9,1548.35 1780.84,1548.35 C1785.78,1548.35 1789.14,1552.75 1789.14,1559.27 C1789.14,1564.32 1787.98,1569.14 1785.67,1573.13 C1782.53,1578.8 1777.68,1581.53 1770.87,1581.53 C1764.98,1581.53 1759.95,1578.58 1759.95,1575.22 C1759.95,1574.07 1760.37,1573.66 1762.04,1572.92 C1765.09,1571.55 1766.36,1569.66 1766.36,1566.83 C1766.36,1563.16 1763.42,1560.32 1759.64,1560.32 C1755.12,1560.32 1752.18,1563.89 1752.18,1569.35 C1752.18,1579.53 1759.95,1585.94 1772.54,1585.94 C1788.4,1585.94 1800.48,1575.33 1800.48,1561.27 C1800.48,1557.49 1799.32,1554.22 1797.12,1551.6 C1794.81,1548.88 1792.7,1547.61 1788.09,1546.14"/>
<path class="Tuplet" d="M3720.44,1531.54 C3725.37,1529.97 3727.36,1529.12 3729.87,1527.45 C3734.81,1524.2 3737.86,1518.42 3737.86,1512.54 C3737.86,1502.56 3729.87,1495.84 3718.12,1495.84 C3706.67,1495.84 3697.02,1502.98 3697.02,1511.59 C3697.02,1515.9 3699.64,1518.84 3703.64,1518.84 C3707.09,1518.84 3709.62,1516.32 3709.62,1512.86 C3709.62,1511.07 3709.09,1509.81 3707.41,1508.14 C3706.36,1507.18 3705.94,1506.45 3705.94,1505.72 C3705.94,1503.2 3711.19,1500.57 3716.12,1500.57 C3723.16,1500.57 3727.36,1504.45 3727.36,1510.97 C3727.36,1520.31 3720.75,1529.12 3713.72,1529.12 C3713.39,1529.12 3712.45,1529.03 3711.3,1528.92 C3708.25,1528.72 3708.25,1528.72 3707.62,1528.72 C3705.31,1528.72 3704.05,1529.76 3704.05,1531.65 C3704.05,1533.32 3705.2,1534.37 3707.09,1534.37 C3707.62,1534.37 3708.36,1534.28 3709.2,1534.17 C3710.67,1533.86 3712.25,1533.75 3713.19,1533.75 C3718.12,1533.75 3721.48,1538.15 3721.48,1544.67 C3721.48,1549.72 3720.33,1554.54 3718.02,1558.53 C3714.87,1564.2 3710.03,1566.93 3703.22,1566.93 C3697.33,1566.93 3692.3,1563.98 3692.3,1560.62 C3692.3,1559.47 3692.72,1559.06 3694.39,1558.32 C3697.44,1556.95 3698.7,1555.06 3698.7,1552.23 C3698.7,1548.56 3695.77,1545.72 3691.98,1545.72 C3687.47,1545.72 3684.53,1549.29 3684.53,1554.75 C3684.53,1564.93 3692.3,1571.34 3704.89,1571.34 C3720.75,1571.34 3732.83,1560.73 3732.83,1546.67 C3732.83,1542.89 3731.67,1539.62 3729.47,1537 C3727.16,1534.28 3725.05,1533.01 3720.44,1531.54"/>
<path class="Tuplet" d="M1690.46,2262.84 C1695.39,2261.26 1697.38,2260.41 1699.89,2258.74 C1704.83,2255.49 1707.88,2249.71 1707.88,2243.84 C1707.88,2233.85 1699.89,2227.13 1688.14,2227.13 C1676.69,2227.13 1667.03,2234.27 1667.03,2242.88 C1667.03,2247.19 1669.66,2250.13 1673.66,2250.13 C1677.11,2250.13 1679.64,2247.62 1679.64,2244.15 C1679.64,2242.37 1679.11,2241.1 1677.43,2239.43 C1676.38,2238.48 1675.96,2237.74 1675.96,2237.01 C1675.96,2234.49 1681.21,2231.87 1686.14,2231.87 C1693.18,2231.87 1697.38,2235.74 1697.38,2242.26 C1697.38,2251.6 1690.77,2260.41 1683.74,2260.41 C1683.41,2260.41 1682.47,2260.32 1681.32,2260.21 C1678.27,2260.01 1678.27,2260.01 1677.64,2260.01 C1675.33,2260.01 1674.07,2261.05 1674.07,2262.94 C1674.07,2264.62 1675.22,2265.66 1677.11,2265.66 C1677.64,2265.66 1678.38,2265.57 1679.22,2265.46 C1680.69,2265.15 1682.27,2265.04 1683.21,2265.04 C1688.14,2265.04 1691.5,2269.44 1691.5,2275.96 C1691.5,2281.01 1690.35,2285.84 1688.03,2289.82 C1684.89,2295.49 1680.05,2298.23 1673.24,2298.23 C1667.35,2298.23 1662.32,2295.27 1662.32,2291.91 C1662.32,2290.76 1662.74,2290.35 1664.41,2289.62 C1667.46,2288.24 1668.72,2286.35 1668.72,2283.52 C1668.72,2279.85 1665.78,2277.01 1662,2277.01 C1657.49,2277.01 1654.55,2280.59 1654.55,2286.04 C1654.55,2296.23 1662.32,2302.63 1674.91,2302.63 C1690.77,2302.63 1702.85,2292.02 1702.85,2277.96 C1702.85,2274.18 1701.69,2270.91 1699.49,2268.29 C1697.18,2265.57 1695.07,2264.3 1690.46,2262.84"/>
<path class="Tuplet" d="M2671.77,2246.63 C2676.71,2245.05 2678.69,2244.21 2681.21,2242.54 C2686.14,2239.29 2689.19,2233.5 2689.19,2227.63 C2689.19,2217.64 2681.21,2210.93 2669.46,2210.93 C2658,2210.93 2648.35,2218.07 2648.35,2226.68 C2648.35,2230.99 2650.97,2233.93 2654.97,2233.93 C2658.42,2233.93 2660.96,2231.41 2660.96,2227.94 C2660.96,2226.16 2660.42,2224.89 2658.74,2223.22 C2657.69,2222.27 2657.27,2221.54 2657.27,2220.8 C2657.27,2218.29 2662.52,2215.66 2667.46,2215.66 C2674.49,2215.66 2678.69,2219.54 2678.69,2226.05 C2678.69,2235.39 2672.08,2244.21 2665.05,2244.21 C2664.72,2244.21 2663.78,2244.11 2662.63,2244 C2659.58,2243.8 2659.58,2243.8 2658.96,2243.8 C2656.64,2243.8 2655.38,2244.85 2655.38,2246.74 C2655.38,2248.41 2656.53,2249.46 2658.42,2249.46 C2658.96,2249.46 2659.69,2249.36 2660.53,2249.25 C2662,2248.94 2663.58,2248.83 2664.52,2248.83 C2669.46,2248.83 2672.81,2253.24 2672.81,2259.75 C2672.81,2264.8 2671.66,2269.63 2669.35,2273.61 C2666.21,2279.29 2661.36,2282.02 2654.55,2282.02 C2648.66,2282.02 2643.63,2279.07 2643.63,2275.71 C2643.63,2274.55 2644.05,2274.14 2645.72,2273.41 C2648.77,2272.04 2650.03,2270.14 2650.03,2267.32 C2650.03,2263.64 2647.1,2260.8 2643.31,2260.8 C2638.8,2260.8 2635.86,2264.38 2635.86,2269.83 C2635.86,2280.02 2643.63,2286.43 2656.22,2286.43 C2672.08,2286.43 2684.16,2275.82 2684.16,2261.75 C2684.16,2257.97 2683,2254.71 2680.8,2252.08 C2678.49,2249.36 2676.38,2248.1 2671.77,2246.63"/>
<path class="NoteDot" transform="matrix(2.336,0,0,2.336,512.315,1240.16)" d="M0,0 C0,2.76563 2.23438,5 5,5 C7.76563,5 10,2.76563 10,0 C10,-2.76563 7.76563,-5 5,-5 C2.23438,-5 0,-2.76563 0,0"/>
<path class="NoteDot" transform="matrix(2.336,0,0,2.336,1047.93,1240.16)" d="M0,0 C0,2.76563 2.23438,5 5,5 C7.76563,5 10,2.76563 10,0 C10,-2.76563 7.76563,-5 5,-5 C2.23438,-5 0,-2.76563 0,0"/>
<path class="NoteDot" transform="matrix(2.336,0,0,2.336,2767.26,1181.76)" d="M0,0 C0,2.76563 2.23438,5 5,5 C7.76563,5 10,2.76563 10,0 C10,-2.76563 7.76563,-5 5,-5 C2.23438,-5 0,-2.76563 0,0"/>
<path class="NoteDot" transform="matrix(2.336,0,0,2.336,816.73,1913.05)" d="M0,0 C0,2.76563 2.23438,5 5,5 C7.76563,5 10,2.76563 10,0 C10,-2.76563 7.76563,-5 5,-5 C2.23438,-5 0,-2.76563 0,0"/>
</svg>
