<?xml version="1.0" encoding="UTF-8" standalone="no"?>
<svg width="4208.47px" height="2409.45px" viewBox="0 0 4208.47 2409.45"
 xmlns="http://www.w3.org/2000/svg" xmlns:xlink="http://www.w3.org/1999/xlink" version="1.2" baseProfile="tiny">
<title>SAX TENOR</title>
<desc>Generated by MuseScore 3.6.2</desc>
<polyline class="StaffLines" fill="none" stroke="#000000" stroke-width="5.94" stroke-linejoin="bevel" points="70.866,448.866 4137.61,448.866"/>
<polyline class="StaffLines" fill="none" stroke="#000000" stroke-width="5.94" stroke-linejoin="bevel" points="70.866,502.866 4137.61,502.866"/>
<polyline class="StaffLines" fill="none" stroke="#000000" stroke-width="5.94" stroke-linejoin="bevel" points="70.866,556.866 4137.61,556.866"/>
<polyline class="StaffLines" fill="none" stroke="#000000" stroke-width="5.94" stroke-linejoin="bevel" points="70.866,610.866 4137.61,610.866"/>
<polyline class="StaffLines" fill="none" stroke="#000000" stroke-width="5.94" stroke-linejoin="bevel" points="70.866,664.866 4137.61,664.866"/>
<polyline class="StaffLines" fill="none" stroke="#000000" stroke-width="5.94" stroke-linejoin="bevel" points="70.866,1181.16 4137.61,1181.16"/>
<polyline class="StaffLines" fill="none" stroke="#000000" stroke-width="5.94" stroke-linejoin="bevel" points="70.866,1235.16 4137.61,1235.16"/>
<polyline class="StaffLines" fill="none" stroke="#000000" stroke-width="5.94" stroke-linejoin="bevel" points="70.866,1289.16 4137.61,1289.16"/>
<polyline class="StaffLines" fill="none" stroke="#000000" stroke-width="5.94" stroke-linejoin="bevel" points="70.866,1343.16 4137.61,1343.16"/>
<polyline class="StaffLines" fill="none" stroke="#000000" stroke-width="5.94" stroke-linejoin="bevel" points="70.866,1397.16 4137.61,1397.16"/>
<polyline class="StaffLines" fill="none" stroke="#000000" stroke-width="5.94" stroke-linejoin="bevel" points="70.866,1913.46 4137.61,1913.46"/>
<polyline class="StaffLines" fill="none" stroke="#000000" stroke-width="5.94" stroke-linejoin="bevel" points="70.866,1967.46 4137.61,1967.46"/>
<polyline class="StaffLines" fill="none" stroke="#000000" stroke-width="5.94" stroke-linejoin="bevel" points="70.866,2021.46 4137.61,2021.46"/>
<polyline class="StaffLines" fill="none" stroke="#000000" stroke-width="5.94" stroke-linejoin="bevel" points="70.866,2075.46 4137.61,2075.46"/>
<polyline class="StaffLines" fill="none" stroke="#000000" stroke-width="5.94" stroke-linejoin="bevel" points="70.866,2129.46 4137.61,2129.46"/>
<path class="MeasureNumber" d="M85.4597,1058.6 C87.3504,1058.01 88.1004,1057.68 89.0691,1057.04 C90.9441,1055.8 92.1004,1053.6 92.1004,1051.37 C92.1004,1047.57 89.0691,1045.01 84.5847,1045.01 C80.2254,1045.01 76.5379,1047.73 76.5379,1051.01 C76.5379,1052.65 77.5379,1053.77 79.0691,1053.77 C80.3816,1053.77 81.3504,1052.8 81.3504,1051.49 C81.3504,1050.8 81.1472,1050.32 80.5066,1049.7 C80.1004,1049.32 79.9441,1049.05 79.9441,1048.77 C79.9441,1047.8 81.9441,1046.8 83.8191,1046.8 C86.5066,1046.8 88.1004,1048.29 88.1004,1050.77 C88.1004,1054.32 85.5847,1057.68 82.8972,1057.68 C82.7879,1057.68 82.4285,1057.65 81.991,1057.6 C80.8191,1057.52 80.8191,1057.52 80.5847,1057.52 C79.7097,1057.52 79.2254,1057.93 79.2254,1058.65 C79.2254,1059.29 79.6629,1059.68 80.3816,1059.68 C80.5847,1059.68 80.866,1059.65 81.1785,1059.6 C81.741,1059.49 82.3504,1059.45 82.7097,1059.45 C84.5847,1059.45 85.866,1061.13 85.866,1063.6 C85.866,1065.52 85.4285,1067.37 84.5379,1068.88 C83.3504,1071.04 81.5066,1072.09 78.8972,1072.09 C76.6629,1072.09 74.741,1070.96 74.741,1069.68 C74.741,1069.24 74.9129,1069.09 75.5379,1068.8 C76.7097,1068.29 77.1785,1067.57 77.1785,1066.49 C77.1785,1065.09 76.0691,1064.01 74.6316,1064.01 C72.9129,1064.01 71.7879,1065.37 71.7879,1067.45 C71.7879,1071.32 74.741,1073.76 79.5379,1073.76 C85.5847,1073.76 90.1785,1069.73 90.1785,1064.37 C90.1785,1062.93 89.741,1061.68 88.8972,1060.68 C88.0222,1059.65 87.2254,1059.16 85.4597,1058.6"/>
<path class="MeasureNumber" d="M75.3504,1790.15 C74.1004,1790.9 73.741,1791.38 73.741,1792.18 C73.741,1792.95 74.3816,1793.51 75.1785,1793.51 C76.2254,1793.51 76.8191,1792.74 76.9441,1791.26 C78.1785,1790.26 79.5066,1789.82 81.1004,1789.82 C84.0691,1789.82 85.7097,1791.67 85.7097,1794.98 C85.7097,1800.18 82.3504,1804.42 78.2254,1804.42 C75.866,1804.42 73.9441,1803.31 73.9441,1801.98 C73.9441,1801.74 73.991,1801.67 74.1785,1801.54 C75.2254,1801.06 75.2254,1801.06 75.5066,1800.87 C76.1472,1800.38 76.5066,1799.67 76.5066,1798.82 C76.5066,1797.54 75.5066,1796.59 74.1004,1796.59 C72.3504,1796.59 71.0222,1798.06 71.0222,1799.98 C71.0222,1803.51 74.0691,1806.06 78.3504,1806.06 C84.8191,1806.06 90.0691,1800.9 90.0691,1794.51 C90.0691,1790.46 86.991,1787.62 82.6316,1787.62 C80.8972,1787.62 79.5066,1787.98 77.5847,1788.95 L79.8191,1781.38 C81.9441,1781.82 83.6316,1782.03 85.0691,1782.03 C87.7097,1782.03 90.0691,1781.18 91.3816,1779.79 C92.0691,1778.99 92.4597,1778.31 92.4597,1777.79 C92.4597,1777.54 92.3347,1777.31 92.1785,1777.31 C92.0691,1777.31 91.9754,1777.35 91.741,1777.46 C90.4285,1778.1 88.741,1778.46 87.1785,1778.46 C84.7879,1778.46 81.9441,1778.07 78.991,1777.31 L75.3504,1790.15 "/>
<path class="TieSegment" stroke="#000000" stroke-width="3.78" stroke-linecap="round" stroke-linejoin="round" fill-rule="evenodd" d="M3042.99,2007.96 C3137.94,1930.2 3422.8,1930.2 3517.76,2007.96 C3422.8,1945.32 3137.94,1945.32 3042.99,2007.96"/>
<polyline class="BarLine" stroke="#000000" stroke-width="9.72" stroke-linejoin="bevel" points="2259.97,445.896 2259.97,667.836"/>
<polyline class="BarLine" stroke="#000000" stroke-width="9.72" stroke-linejoin="bevel" points="4132.75,445.896 4132.75,667.836"/>
<polyline class="BarLine" stroke="#000000" stroke-width="9.72" stroke-linejoin="bevel" points="2294.73,1178.19 2294.73,1400.13"/>
<polyline class="BarLine" stroke="#000000" stroke-width="9.72" stroke-linejoin="bevel" points="4132.75,1178.19 4132.75,1400.13"/>
<polyline class="BarLine" stroke="#000000" stroke-width="9.72" stroke-linejoin="bevel" points="2152.65,1910.49 2152.65,2132.43"/>
<polyline class="BarLine" stroke="#000000" stroke-width="9.72" stroke-linejoin="bevel" points="3382.1,1910.49 3382.1,2132.43"/>
<polyline class="BarLine" stroke="#000000" stroke-width="9.72" stroke-linejoin="bevel" points="4084.96,1910.49 4084.96,2132.43"/>
<polyline class="BarLine" stroke="#000000" stroke-width="29.70" stroke-linejoin="bevel" points="4122.76,1910.49 4122.76,2132.43"/>
<polyline class="Stem" stroke="#000000" stroke-width="5.94" stroke-linejoin="bevel" points="769.744,645.124 769.744,813.366"/>
<polyline class="Stem" stroke="#000000" stroke-width="5.94" stroke-linejoin="bevel" points="941.447,645.124 941.447,813.366"/>
<polyline class="Stem" stroke="#000000" stroke-width="5.94" stroke-linejoin="bevel" points="1054.83,645.124 1054.83,813.366"/>
<polyline class="Stem" stroke="#000000" stroke-width="5.94" stroke-linejoin="bevel" points="1168.21,645.124 1168.21,786.366"/>
<polyline class="Stem" stroke="#000000" stroke-width="5.94" stroke-linejoin="bevel" points="1404.31,645.124 1404.31,786.366"/>
<polyline class="Stem" stroke="#000000" stroke-width="5.94" stroke-linejoin="bevel" points="1538.34,618.124 1538.34,786.366"/>
<polyline class="Stem" stroke="#000000" stroke-width="5.94" stroke-linejoin="bevel" points="1672.38,645.124 1672.38,786.366"/>
<polyline class="Stem" stroke="#000000" stroke-width="5.94" stroke-linejoin="bevel" points="1806.42,618.124 1806.42,813.366"/>
<polyline class="Stem" stroke="#000000" stroke-width="5.94" stroke-linejoin="bevel" points="1940.46,645.124 1940.46,813.366"/>
<polyline class="Stem" stroke="#000000" stroke-width="5.94" stroke-linejoin="bevel" points="2074.5,618.124 2074.5,813.366"/>
<polyline class="Stem" stroke="#000000" stroke-width="5.94" stroke-linejoin="bevel" points="2370.4,645.124 2370.4,813.366"/>
<polyline class="Stem" stroke="#000000" stroke-width="5.94" stroke-linejoin="bevel" points="2556.02,645.124 2556.02,813.366"/>
<polyline class="Stem" stroke="#000000" stroke-width="5.94" stroke-linejoin="bevel" points="2672.03,645.124 2672.03,813.366"/>
<polyline class="Stem" stroke="#000000" stroke-width="5.94" stroke-linejoin="bevel" points="2788.05,645.124 2788.05,786.366"/>
<polyline class="Stem" stroke="#000000" stroke-width="5.94" stroke-linejoin="bevel" points="2932.95,645.124 2932.95,786.366"/>
<polyline class="Stem" stroke="#000000" stroke-width="5.94" stroke-linejoin="bevel" points="3077.85,645.124 3077.85,786.366"/>
<polyline class="Stem" stroke="#000000" stroke-width="5.94" stroke-linejoin="bevel" points="3222.76,645.124 3222.76,786.366"/>
<polyline class="Stem" stroke="#000000" stroke-width="5.94" stroke-linejoin="bevel" points="3367.66,645.124 3367.66,786.366"/>
<polyline class="Stem" stroke="#000000" stroke-width="5.94" stroke-linejoin="bevel" points="3512.56,645.124 3512.56,786.366"/>
<polyline class="Stem" stroke="#000000" stroke-width="5.94" stroke-linejoin="bevel" points="3657.47,645.124 3657.47,840.366"/>
<polyline class="Stem" stroke="#000000" stroke-width="5.94" stroke-linejoin="bevel" points="3802.37,699.124 3802.37,840.366"/>
<polyline class="Stem" stroke="#000000" stroke-width="5.94" stroke-linejoin="bevel" points="3947.27,672.124 3947.27,840.366"/>
<polyline class="Stem" stroke="#000000" stroke-width="5.94" stroke-linejoin="bevel" points="567.143,1377.42 567.143,1572.66"/>
<polyline class="Stem" stroke="#000000" stroke-width="5.94" stroke-linejoin="bevel" points="851.456,1377.42 851.456,1572.66"/>
<polyline class="Stem" stroke="#000000" stroke-width="5.94" stroke-linejoin="bevel" points="964.839,1377.42 964.839,1572.66"/>
<polyline class="Stem" stroke="#000000" stroke-width="5.94" stroke-linejoin="bevel" points="1078.22,1377.42 1078.22,1518.66"/>
<polyline class="Stem" stroke="#000000" stroke-width="5.94" stroke-linejoin="bevel" points="1674.6,1431.42 1674.6,1572.66"/>
<polyline class="Stem" stroke="#000000" stroke-width="5.94" stroke-linejoin="bevel" points="1880.68,1377.42 1880.68,1538.91"/>
<polyline class="Stem" stroke="#000000" stroke-width="5.94" stroke-linejoin="bevel" points="2086.76,1323.42 2086.76,1505.16"/>
<polyline class="Stem" stroke="#000000" stroke-width="5.94" stroke-linejoin="bevel" points="2405.16,1296.42 2405.16,1457.91"/>
<polyline class="Stem" stroke="#000000" stroke-width="5.94" stroke-linejoin="bevel" points="2711.55,1350.42 2711.55,1545.66"/>
<polyline class="Stem" stroke="#000000" stroke-width="5.94" stroke-linejoin="bevel" points="2990.7,1350.42 2990.7,1545.66"/>
<polyline class="Stem" stroke="#000000" stroke-width="5.94" stroke-linejoin="bevel" points="3104.08,1350.42 3104.08,1545.66"/>
<polyline class="Stem" stroke="#000000" stroke-width="5.94" stroke-linejoin="bevel" points="3217.46,1350.42 3217.46,1498.41"/>
<polyline class="Stem" stroke="#000000" stroke-width="5.94" stroke-linejoin="bevel" points="3523.86,1404.42 3523.86,1559.16"/>
<polyline class="Stem" stroke="#000000" stroke-width="5.94" stroke-linejoin="bevel" points="3726.19,1350.42 3726.19,1525.41"/>
<polyline class="Stem" stroke="#000000" stroke-width="5.94" stroke-linejoin="bevel" points="3928.52,1296.42 3928.52,1491.66"/>
<polyline class="Stem" stroke="#000000" stroke-width="5.94" stroke-linejoin="bevel" points="567.143,1974.72 567.143,2149.71"/>
<polyline class="Stem" stroke="#000000" stroke-width="5.94" stroke-linejoin="bevel" points="844.392,2082.72 844.392,2277.96"/>
<polyline class="Stem" stroke="#000000" stroke-width="5.94" stroke-linejoin="bevel" points="1096.98,2082.72 1096.98,2277.96"/>
<polyline class="Stem" stroke="#000000" stroke-width="5.94" stroke-linejoin="bevel" points="1210.37,2082.72 1210.37,2277.96"/>
<polyline class="Stem" stroke="#000000" stroke-width="5.94" stroke-linejoin="bevel" points="1323.75,2082.72 1323.75,2230.71"/>
<polyline class="Stem" stroke="#000000" stroke-width="5.94" stroke-linejoin="bevel" points="1601,2136.72 1601,2291.46"/>
<polyline class="Stem" stroke="#000000" stroke-width="5.94" stroke-linejoin="bevel" points="1784.09,2082.72 1784.09,2257.71"/>
<polyline class="Stem" stroke="#000000" stroke-width="5.94" stroke-linejoin="bevel" points="1967.17,2028.72 1967.17,2223.96"/>
<polyline class="Stem" stroke="#000000" stroke-width="5.94" stroke-linejoin="bevel" points="2263.08,1974.72 2263.08,2149.71"/>
<polyline class="Stem" stroke="#000000" stroke-width="5.94" stroke-linejoin="bevel" points="2553.6,2055.72 2553.6,2250.96"/>
<polyline class="Stem" stroke="#000000" stroke-width="5.94" stroke-linejoin="bevel" points="2702.51,2109.72 2702.51,2250.96"/>
<polyline class="Stem" stroke="#000000" stroke-width="5.94" stroke-linejoin="bevel" points="2851.42,2082.72 2851.42,2250.96"/>
<polyline class="Stem" stroke="#000000" stroke-width="5.94" stroke-linejoin="bevel" points="3000.34,2055.72 3000.34,2210.46"/>
<path class="Note" transform="matrix(2.16,0,0,2.16,766.774,637.866)" d="M31.5,-8.09375 C29.7031,-11.4063 25.9063,-13.2031 21.2969,-13.2031 C17.9063,-13.2031 14.2031,-12.2031 10.5938,-10.2969 C4,-6.79688 0,-0.90625 0,4.20313 C0,5.59375 0.296875,7 1,8.29688 C2.79688,11.5938 6.59375,13.2969 11.2031,13.2969 C14.5938,13.2969 18.2969,12.4063 21.9063,10.5 C28.5,7 32.5,1.09375 32.5,-4 C32.5,-5.40625 32.2031,-6.79688 31.5,-8.09375"/>
<path class="Note" transform="matrix(2.16,0,0,2.16,938.477,637.866)" d="M31.5,-8.09375 C29.7031,-11.4063 25.9063,-13.2031 21.2969,-13.2031 C17.9063,-13.2031 14.2031,-12.2031 10.5938,-10.2969 C4,-6.79688 0,-0.90625 0,4.20313 C0,5.59375 0.296875,7 1,8.29688 C2.79688,11.5938 6.59375,13.2969 11.2031,13.2969 C14.5938,13.2969 18.2969,12.4063 21.9063,10.5 C28.5,7 32.5,1.09375 32.5,-4 C32.5,-5.40625 32.2031,-6.79688 31.5,-8.09375"/>
<path class="Note" transform="matrix(2.16,0,0,2.16,1051.86,637.866)" d="M31.5,-8.09375 C29.7031,-11.4063 25.9063,-13.2031 21.2969,-13.2031 C17.9063,-13.2031 14.2031,-12.2031 10.5938,-10.2969 C4,-6.79688 0,-0.90625 0,4.20313 C0,5.59375 0.296875,7 1,8.29688 C2.79688,11.5938 6.59375,13.2969 11.2031,13.2969 C14.5938,13.2969 18.2969,12.4063 21.9063,10.5 C28.5,7 32.5,1.09375 32.5,-4 C32.5,-5.40625 32.2031,-6.79688 31.5,-8.09375"/>
<path class="Note" transform="matrix(2.16,0,0,2.16,1165.24,637.866)" d="M31.5,-8.09375 C29.7031,-11.4063 25.9063,-13.2031 21.2969,-13.2031 C17.9063,-13.2031 14.2031,-12.2031 10.5938,-10.2969 C4,-6.79688 0,-0.90625 0,4.20313 C0,5.59375 0.296875,7 1,8.29688 C2.79688,11.5938 6.59375,13.2969 11.2031,13.2969 C14.5938,13.2969 18.2969,12.4063 21.9063,10.5 C28.5,7 32.5,1.09375 32.5,-4 C32.5,-5.40625 32.2031,-6.79688 31.5,-8.09375"/>
<path class="Note" transform="matrix(2.16,0,0,2.16,1401.34,637.866)" d="M31.5,-8.09375 C29.7031,-11.4063 25.9063,-13.2031 21.2969,-13.2031 C17.9063,-13.2031 14.2031,-12.2031 10.5938,-10.2969 C4,-6.79688 0,-0.90625 0,4.20313 C0,5.59375 0.296875,7 1,8.29688 C2.79688,11.5938 6.59375,13.2969 11.2031,13.2969 C14.5938,13.2969 18.2969,12.4063 21.9063,10.5 C28.5,7 32.5,1.09375 32.5,-4 C32.5,-5.40625 32.2031,-6.79688 31.5,-8.09375"/>
<path class="Note" transform="matrix(2.16,0,0,2.16,1535.37,610.866)" d="M31.5,-8.09375 C29.7031,-11.4063 25.9063,-13.2031 21.2969,-13.2031 C17.9063,-13.2031 14.2031,-12.2031 10.5938,-10.2969 C4,-6.79688 0,-0.90625 0,4.20313 C0,5.59375 0.296875,7 1,8.29688 C2.79688,11.5938 6.59375,13.2969 11.2031,13.2969 C14.5938,13.2969 18.2969,12.4063 21.9063,10.5 C28.5,7 32.5,1.09375 32.5,-4 C32.5,-5.40625 32.2031,-6.79688 31.5,-8.09375"/>
<path class="Note" transform="matrix(2.16,0,0,2.16,1669.41,637.866)" d="M31.5,-8.09375 C29.7031,-11.4063 25.9063,-13.2031 21.2969,-13.2031 C17.9063,-13.2031 14.2031,-12.2031 10.5938,-10.2969 C4,-6.79688 0,-0.90625 0,4.20313 C0,5.59375 0.296875,7 1,8.29688 C2.79688,11.5938 6.59375,13.2969 11.2031,13.2969 C14.5938,13.2969 18.2969,12.4063 21.9063,10.5 C28.5,7 32.5,1.09375 32.5,-4 C32.5,-5.40625 32.2031,-6.79688 31.5,-8.09375"/>
<path class="Note" transform="matrix(2.16,0,0,2.16,1803.45,610.866)" d="M31.5,-8.09375 C29.7031,-11.4063 25.9063,-13.2031 21.2969,-13.2031 C17.9063,-13.2031 14.2031,-12.2031 10.5938,-10.2969 C4,-6.79688 0,-0.90625 0,4.20313 C0,5.59375 0.296875,7 1,8.29688 C2.79688,11.5938 6.59375,13.2969 11.2031,13.2969 C14.5938,13.2969 18.2969,12.4063 21.9063,10.5 C28.5,7 32.5,1.09375 32.5,-4 C32.5,-5.40625 32.2031,-6.79688 31.5,-8.09375"/>
<path class="Note" transform="matrix(2.16,0,0,2.16,1937.49,637.866)" d="M31.5,-8.09375 C29.7031,-11.4063 25.9063,-13.2031 21.2969,-13.2031 C17.9063,-13.2031 14.2031,-12.2031 10.5938,-10.2969 C4,-6.79688 0,-0.90625 0,4.20313 C0,5.59375 0.296875,7 1,8.29688 C2.79688,11.5938 6.59375,13.2969 11.2031,13.2969 C14.5938,13.2969 18.2969,12.4063 21.9063,10.5 C28.5,7 32.5,1.09375 32.5,-4 C32.5,-5.40625 32.2031,-6.79688 31.5,-8.09375"/>
<path class="Note" transform="matrix(2.16,0,0,2.16,2071.53,610.866)" d="M31.5,-8.09375 C29.7031,-11.4063 25.9063,-13.2031 21.2969,-13.2031 C17.9063,-13.2031 14.2031,-12.2031 10.5938,-10.2969 C4,-6.79688 0,-0.90625 0,4.20313 C0,5.59375 0.296875,7 1,8.29688 C2.79688,11.5938 6.59375,13.2969 11.2031,13.2969 C14.5938,13.2969 18.2969,12.4063 21.9063,10.5 C28.5,7 32.5,1.09375 32.5,-4 C32.5,-5.40625 32.2031,-6.79688 31.5,-8.09375"/>
<path class="Note" transform="matrix(2.16,0,0,2.16,2367.43,637.866)" d="M31.5,-8.09375 C29.7031,-11.4063 25.9063,-13.2031 21.2969,-13.2031 C17.9063,-13.2031 14.2031,-12.2031 10.5938,-10.2969 C4,-6.79688 0,-0.90625 0,4.20313 C0,5.59375 0.296875,7 1,8.29688 C2.79688,11.5938 6.59375,13.2969 11.2031,13.2969 C14.5938,13.2969 18.2969,12.4063 21.9063,10.5 C28.5,7 32.5,1.09375 32.5,-4 C32.5,-5.40625 32.2031,-6.79688 31.5,-8.09375"/>
<path class="Note" transform="matrix(2.16,0,0,2.16,2553.05,637.866)" d="M31.5,-8.09375 C29.7031,-11.4063 25.9063,-13.2031 21.2969,-13.2031 C17.9063,-13.2031 14.2031,-12.2031 10.5938,-10.2969 C4,-6.79688 0,-0.90625 0,4.20313 C0,5.59375 0.296875,7 1,8.29688 C2.79688,11.5938 6.59375,13.2969 11.2031,13.2969 C14.5938,13.2969 18.2969,12.4063 21.9063,10.5 C28.5,7 32.5,1.09375 32.5,-4 C32.5,-5.40625 32.2031,-6.79688 31.5,-8.09375"/>
<path class="Note" transform="matrix(2.16,0,0,2.16,2669.06,637.866)" d="M31.5,-8.09375 C29.7031,-11.4063 25.9063,-13.2031 21.2969,-13.2031 C17.9063,-13.2031 14.2031,-12.2031 10.5938,-10.2969 C4,-6.79688 0,-0.90625 0,4.20313 C0,5.59375 0.296875,7 1,8.29688 C2.79688,11.5938 6.59375,13.2969 11.2031,13.2969 C14.5938,13.2969 18.2969,12.4063 21.9063,10.5 C28.5,7 32.5,1.09375 32.5,-4 C32.5,-5.40625 32.2031,-6.79688 31.5,-8.09375"/>
<path class="Note" transform="matrix(2.16,0,0,2.16,2785.08,637.866)" d="M31.5,-8.09375 C29.7031,-11.4063 25.9063,-13.2031 21.2969,-13.2031 C17.9063,-13.2031 14.2031,-12.2031 10.5938,-10.2969 C4,-6.79688 0,-0.90625 0,4.20313 C0,5.59375 0.296875,7 1,8.29688 C2.79688,11.5938 6.59375,13.2969 11.2031,13.2969 C14.5938,13.2969 18.2969,12.4063 21.9063,10.5 C28.5,7 32.5,1.09375 32.5,-4 C32.5,-5.40625 32.2031,-6.79688 31.5,-8.09375"/>
<path class="Note" transform="matrix(2.16,0,0,2.16,2929.98,637.866)" d="M31.5,-8.09375 C29.7031,-11.4063 25.9063,-13.2031 21.2969,-13.2031 C17.9063,-13.2031 14.2031,-12.2031 10.5938,-10.2969 C4,-6.79688 0,-0.90625 0,4.20313 C0,5.59375 0.296875,7 1,8.29688 C2.79688,11.5938 6.59375,13.2969 11.2031,13.2969 C14.5938,13.2969 18.2969,12.4063 21.9063,10.5 C28.5,7 32.5,1.09375 32.5,-4 C32.5,-5.40625 32.2031,-6.79688 31.5,-8.09375"/>
<path class="Note" transform="matrix(2.16,0,0,2.16,3074.88,637.866)" d="M31.5,-8.09375 C29.7031,-11.4063 25.9063,-13.2031 21.2969,-13.2031 C17.9063,-13.2031 14.2031,-12.2031 10.5938,-10.2969 C4,-6.79688 0,-0.90625 0,4.20313 C0,5.59375 0.296875,7 1,8.29688 C2.79688,11.5938 6.59375,13.2969 11.2031,13.2969 C14.5938,13.2969 18.2969,12.4063 21.9063,10.5 C28.5,7 32.5,1.09375 32.5,-4 C32.5,-5.40625 32.2031,-6.79688 31.5,-8.09375"/>
<path class="Note" transform="matrix(2.16,0,0,2.16,3219.79,637.866)" d="M31.5,-8.09375 C29.7031,-11.4063 25.9063,-13.2031 21.2969,-13.2031 C17.9063,-13.2031 14.2031,-12.2031 10.5938,-10.2969 C4,-6.79688 0,-0.90625 0,4.20313 C0,5.59375 0.296875,7 1,8.29688 C2.79688,11.5938 6.59375,13.2969 11.2031,13.2969 C14.5938,13.2969 18.2969,12.4063 21.9063,10.5 C28.5,7 32.5,1.09375 32.5,-4 C32.5,-5.40625 32.2031,-6.79688 31.5,-8.09375"/>
<path class="Note" transform="matrix(2.16,0,0,2.16,3364.69,637.866)" d="M31.5,-8.09375 C29.7031,-11.4063 25.9063,-13.2031 21.2969,-13.2031 C17.9063,-13.2031 14.2031,-12.2031 10.5938,-10.2969 C4,-6.79688 0,-0.90625 0,4.20313 C0,5.59375 0.296875,7 1,8.29688 C2.79688,11.5938 6.59375,13.2969 11.2031,13.2969 C14.5938,13.2969 18.2969,12.4063 21.9063,10.5 C28.5,7 32.5,1.09375 32.5,-4 C32.5,-5.40625 32.2031,-6.79688 31.5,-8.09375"/>
<path class="Note" transform="matrix(2.16,0,0,2.16,3509.59,637.866)" d="M31.5,-8.09375 C29.7031,-11.4063 25.9063,-13.2031 21.2969,-13.2031 C17.9063,-13.2031 14.2031,-12.2031 10.5938,-10.2969 C4,-6.79688 0,-0.90625 0,4.20313 C0,5.59375 0.296875,7 1,8.29688 C2.79688,11.5938 6.59375,13.2969 11.2031,13.2969 C14.5938,13.2969 18.2969,12.4063 21.9063,10.5 C28.5,7 32.5,1.09375 32.5,-4 C32.5,-5.40625 32.2031,-6.79688 31.5,-8.09375"/>
<path class="Note" transform="matrix(2.16,0,0,2.16,3654.5,637.866)" d="M31.5,-8.09375 C29.7031,-11.4063 25.9063,-13.2031 21.2969,-13.2031 C17.9063,-13.2031 14.2031,-12.2031 10.5938,-10.2969 C4,-6.79688 0,-0.90625 0,4.20313 C0,5.59375 0.296875,7 1,8.29688 C2.79688,11.5938 6.59375,13.2969 11.2031,13.2969 C14.5938,13.2969 18.2969,12.4063 21.9063,10.5 C28.5,7 32.5,1.09375 32.5,-4 C32.5,-5.40625 32.2031,-6.79688 31.5,-8.09375"/>
<path class="Note" transform="matrix(2.16,0,0,2.16,3799.4,691.866)" d="M31.5,-8.09375 C29.7031,-11.4063 25.9063,-13.2031 21.2969,-13.2031 C17.9063,-13.2031 14.2031,-12.2031 10.5938,-10.2969 C4,-6.79688 0,-0.90625 0,4.20313 C0,5.59375 0.296875,7 1,8.29688 C2.79688,11.5938 6.59375,13.2969 11.2031,13.2969 C14.5938,13.2969 18.2969,12.4063 21.9063,10.5 C28.5,7 32.5,1.09375 32.5,-4 C32.5,-5.40625 32.2031,-6.79688 31.5,-8.09375"/>
<path class="Note" transform="matrix(2.16,0,0,2.16,3944.3,664.866)" d="M31.5,-8.09375 C29.7031,-11.4063 25.9063,-13.2031 21.2969,-13.2031 C17.9063,-13.2031 14.2031,-12.2031 10.5938,-10.2969 C4,-6.79688 0,-0.90625 0,4.20313 C0,5.59375 0.296875,7 1,8.29688 C2.79688,11.5938 6.59375,13.2969 11.2031,13.2969 C14.5938,13.2969 18.2969,12.4063 21.9063,10.5 C28.5,7 32.5,1.09375 32.5,-4 C32.5,-5.40625 32.2031,-6.79688 31.5,-8.09375"/>
<path class="Note" transform="matrix(2.16,0,0,2.16,564.173,1370.16)" d="M31.5,-8.09375 C29.7031,-11.4063 25.9063,-13.2031 21.2969,-13.2031 C17.9063,-13.2031 14.2031,-12.2031 10.5938,-10.2969 C4,-6.79688 0,-0.90625 0,4.20313 C0,5.59375 0.296875,7 1,8.29688 C2.79688,11.5938 6.59375,13.2969 11.2031,13.2969 C14.5938,13.2969 18.2969,12.4063 21.9063,10.5 C28.5,7 32.5,1.09375 32.5,-4 C32.5,-5.40625 32.2031,-6.79688 31.5,-8.09375"/>
<path class="Note" transform="matrix(2.16,0,0,2.16,848.486,1370.16)" d="M31.5,-8.09375 C29.7031,-11.4063 25.9063,-13.2031 21.2969,-13.2031 C17.9063,-13.2031 14.2031,-12.2031 10.5938,-10.2969 C4,-6.79688 0,-0.90625 0,4.20313 C0,5.59375 0.296875,7 1,8.29688 C2.79688,11.5938 6.59375,13.2969 11.2031,13.2969 C14.5938,13.2969 18.2969,12.4063 21.9063,10.5 C28.5,7 32.5,1.09375 32.5,-4 C32.5,-5.40625 32.2031,-6.79688 31.5,-8.09375"/>
<path class="Note" transform="matrix(2.16,0,0,2.16,961.869,1370.16)" d="M31.5,-8.09375 C29.7031,-11.4063 25.9063,-13.2031 21.2969,-13.2031 C17.9063,-13.2031 14.2031,-12.2031 10.5938,-10.2969 C4,-6.79688 0,-0.90625 0,4.20313 C0,5.59375 0.296875,7 1,8.29688 C2.79688,11.5938 6.59375,13.2969 11.2031,13.2969 C14.5938,13.2969 18.2969,12.4063 21.9063,10.5 C28.5,7 32.5,1.09375 32.5,-4 C32.5,-5.40625 32.2031,-6.79688 31.5,-8.09375"/>
<path class="Note" transform="matrix(2.16,0,0,2.16,1075.25,1370.16)" d="M31.5,-8.09375 C29.7031,-11.4063 25.9063,-13.2031 21.2969,-13.2031 C17.9063,-13.2031 14.2031,-12.2031 10.5938,-10.2969 C4,-6.79688 0,-0.90625 0,4.20313 C0,5.59375 0.296875,7 1,8.29688 C2.79688,11.5938 6.59375,13.2969 11.2031,13.2969 C14.5938,13.2969 18.2969,12.4063 21.9063,10.5 C28.5,7 32.5,1.09375 32.5,-4 C32.5,-5.40625 32.2031,-6.79688 31.5,-8.09375"/>
<path class="Note" transform="matrix(2.16,0,0,2.16,1671.63,1424.16)" d="M31.5,-8.09375 C29.7031,-11.4063 25.9063,-13.2031 21.2969,-13.2031 C17.9063,-13.2031 14.2031,-12.2031 10.5938,-10.2969 C4,-6.79688 0,-0.90625 0,4.20313 C0,5.59375 0.296875,7 1,8.29688 C2.79688,11.5938 6.59375,13.2969 11.2031,13.2969 C14.5938,13.2969 18.2969,12.4063 21.9063,10.5 C28.5,7 32.5,1.09375 32.5,-4 C32.5,-5.40625 32.2031,-6.79688 31.5,-8.09375"/>
<path class="Note" transform="matrix(2.16,0,0,2.16,1877.71,1370.16)" d="M31.5,-8.09375 C29.7031,-11.4063 25.9063,-13.2031 21.2969,-13.2031 C17.9063,-13.2031 14.2031,-12.2031 10.5938,-10.2969 C4,-6.79688 0,-0.90625 0,4.20313 C0,5.59375 0.296875,7 1,8.29688 C2.79688,11.5938 6.59375,13.2969 11.2031,13.2969 C14.5938,13.2969 18.2969,12.4063 21.9063,10.5 C28.5,7 32.5,1.09375 32.5,-4 C32.5,-5.40625 32.2031,-6.79688 31.5,-8.09375"/>
<path class="Note" transform="matrix(2.16,0,0,2.16,2083.79,1316.16)" d="M31.5,-8.09375 C29.7031,-11.4063 25.9063,-13.2031 21.2969,-13.2031 C17.9063,-13.2031 14.2031,-12.2031 10.5938,-10.2969 C4,-6.79688 0,-0.90625 0,4.20313 C0,5.59375 0.296875,7 1,8.29688 C2.79688,11.5938 6.59375,13.2969 11.2031,13.2969 C14.5938,13.2969 18.2969,12.4063 21.9063,10.5 C28.5,7 32.5,1.09375 32.5,-4 C32.5,-5.40625 32.2031,-6.79688 31.5,-8.09375"/>
<path class="Note" transform="matrix(2.16,0,0,2.16,2402.19,1289.16)" d="M31.5,-8.09375 C29.7031,-11.4063 25.9063,-13.2031 21.2969,-13.2031 C17.9063,-13.2031 14.2031,-12.2031 10.5938,-10.2969 C4,-6.79688 0,-0.90625 0,4.20313 C0,5.59375 0.296875,7 1,8.29688 C2.79688,11.5938 6.59375,13.2969 11.2031,13.2969 C14.5938,13.2969 18.2969,12.4063 21.9063,10.5 C28.5,7 32.5,1.09375 32.5,-4 C32.5,-5.40625 32.2031,-6.79688 31.5,-8.09375"/>
<path class="Note" transform="matrix(2.16,0,0,2.16,2708.58,1343.16)" d="M31.5,-8.09375 C29.7031,-11.4063 25.9063,-13.2031 21.2969,-13.2031 C17.9063,-13.2031 14.2031,-12.2031 10.5938,-10.2969 C4,-6.79688 0,-0.90625 0,4.20313 C0,5.59375 0.296875,7 1,8.29688 C2.79688,11.5938 6.59375,13.2969 11.2031,13.2969 C14.5938,13.2969 18.2969,12.4063 21.9063,10.5 C28.5,7 32.5,1.09375 32.5,-4 C32.5,-5.40625 32.2031,-6.79688 31.5,-8.09375"/>
<path class="Note" transform="matrix(2.16,0,0,2.16,2987.73,1343.16)" d="M31.5,-8.09375 C29.7031,-11.4063 25.9063,-13.2031 21.2969,-13.2031 C17.9063,-13.2031 14.2031,-12.2031 10.5938,-10.2969 C4,-6.79688 0,-0.90625 0,4.20313 C0,5.59375 0.296875,7 1,8.29688 C2.79688,11.5938 6.59375,13.2969 11.2031,13.2969 C14.5938,13.2969 18.2969,12.4063 21.9063,10.5 C28.5,7 32.5,1.09375 32.5,-4 C32.5,-5.40625 32.2031,-6.79688 31.5,-8.09375"/>
<path class="Note" transform="matrix(2.16,0,0,2.16,3101.11,1343.16)" d="M31.5,-8.09375 C29.7031,-11.4063 25.9063,-13.2031 21.2969,-13.2031 C17.9063,-13.2031 14.2031,-12.2031 10.5938,-10.2969 C4,-6.79688 0,-0.90625 0,4.20313 C0,5.59375 0.296875,7 1,8.29688 C2.79688,11.5938 6.59375,13.2969 11.2031,13.2969 C14.5938,13.2969 18.2969,12.4063 21.9063,10.5 C28.5,7 32.5,1.09375 32.5,-4 C32.5,-5.40625 32.2031,-6.79688 31.5,-8.09375"/>
<path class="Note" transform="matrix(2.16,0,0,2.16,3214.49,1343.16)" d="M31.5,-8.09375 C29.7031,-11.4063 25.9063,-13.2031 21.2969,-13.2031 C17.9063,-13.2031 14.2031,-12.2031 10.5938,-10.2969 C4,-6.79688 0,-0.90625 0,4.20313 C0,5.59375 0.296875,7 1,8.29688 C2.79688,11.5938 6.59375,13.2969 11.2031,13.2969 C14.5938,13.2969 18.2969,12.4063 21.9063,10.5 C28.5,7 32.5,1.09375 32.5,-4 C32.5,-5.40625 32.2031,-6.79688 31.5,-8.09375"/>
<path class="Note" transform="matrix(2.16,0,0,2.16,3520.89,1397.16)" d="M31.5,-8.09375 C29.7031,-11.4063 25.9063,-13.2031 21.2969,-13.2031 C17.9063,-13.2031 14.2031,-12.2031 10.5938,-10.2969 C4,-6.79688 0,-0.90625 0,4.20313 C0,5.59375 0.296875,7 1,8.29688 C2.79688,11.5938 6.59375,13.2969 11.2031,13.2969 C14.5938,13.2969 18.2969,12.4063 21.9063,10.5 C28.5,7 32.5,1.09375 32.5,-4 C32.5,-5.40625 32.2031,-6.79688 31.5,-8.09375"/>
<path class="Note" transform="matrix(2.16,0,0,2.16,3723.22,1343.16)" d="M31.5,-8.09375 C29.7031,-11.4063 25.9063,-13.2031 21.2969,-13.2031 C17.9063,-13.2031 14.2031,-12.2031 10.5938,-10.2969 C4,-6.79688 0,-0.90625 0,4.20313 C0,5.59375 0.296875,7 1,8.29688 C2.79688,11.5938 6.59375,13.2969 11.2031,13.2969 C14.5938,13.2969 18.2969,12.4063 21.9063,10.5 C28.5,7 32.5,1.09375 32.5,-4 C32.5,-5.40625 32.2031,-6.79688 31.5,-8.09375"/>
<path class="Note" transform="matrix(2.16,0,0,2.16,3925.55,1289.16)" d="M31.5,-8.09375 C29.7031,-11.4063 25.9063,-13.2031 21.2969,-13.2031 C17.9063,-13.2031 14.2031,-12.2031 10.5938,-10.2969 C4,-6.79688 0,-0.90625 0,4.20313 C0,5.59375 0.296875,7 1,8.29688 C2.79688,11.5938 6.59375,13.2969 11.2031,13.2969 C14.5938,13.2969 18.2969,12.4063 21.9063,10.5 C28.5,7 32.5,1.09375 32.5,-4 C32.5,-5.40625 32.2031,-6.79688 31.5,-8.09375"/>
<path class="Note" transform="matrix(2.16,0,0,2.16,564.173,1967.46)" d="M31.5,-8.09375 C29.7031,-11.4063 25.9063,-13.2031 21.2969,-13.2031 C17.9063,-13.2031 14.2031,-12.2031 10.5938,-10.2969 C4,-6.79688 0,-0.90625 0,4.20313 C0,5.59375 0.296875,7 1,8.29688 C2.79688,11.5938 6.59375,13.2969 11.2031,13.2969 C14.5938,13.2969 18.2969,12.4063 21.9063,10.5 C28.5,7 32.5,1.09375 32.5,-4 C32.5,-5.40625 32.2031,-6.79688 31.5,-8.09375"/>
<path class="Note" transform="matrix(2.16,0,0,2.16,841.422,2075.46)" d="M31.5,-8.09375 C29.7031,-11.4063 25.9063,-13.2031 21.2969,-13.2031 C17.9063,-13.2031 14.2031,-12.2031 10.5938,-10.2969 C4,-6.79688 0,-0.90625 0,4.20313 C0,5.59375 0.296875,7 1,8.29688 C2.79688,11.5938 6.59375,13.2969 11.2031,13.2969 C14.5938,13.2969 18.2969,12.4063 21.9063,10.5 C28.5,7 32.5,1.09375 32.5,-4 C32.5,-5.40625 32.2031,-6.79688 31.5,-8.09375"/>
<path class="Note" transform="matrix(2.16,0,0,2.16,1094.01,2075.46)" d="M31.5,-8.09375 C29.7031,-11.4063 25.9063,-13.2031 21.2969,-13.2031 C17.9063,-13.2031 14.2031,-12.2031 10.5938,-10.2969 C4,-6.79688 0,-0.90625 0,4.20313 C0,5.59375 0.296875,7 1,8.29688 C2.79688,11.5938 6.59375,13.2969 11.2031,13.2969 C14.5938,13.2969 18.2969,12.4063 21.9063,10.5 C28.5,7 32.5,1.09375 32.5,-4 C32.5,-5.40625 32.2031,-6.79688 31.5,-8.09375"/>
<path class="Note" transform="matrix(2.16,0,0,2.16,1207.4,2075.46)" d="M31.5,-8.09375 C29.7031,-11.4063 25.9063,-13.2031 21.2969,-13.2031 C17.9063,-13.2031 14.2031,-12.2031 10.5938,-10.2969 C4,-6.79688 0,-0.90625 0,4.20313 C0,5.59375 0.296875,7 1,8.29688 C2.79688,11.5938 6.59375,13.2969 11.2031,13.2969 C14.5938,13.2969 18.2969,12.4063 21.9063,10.5 C28.5,7 32.5,1.09375 32.5,-4 C32.5,-5.40625 32.2031,-6.79688 31.5,-8.09375"/>
<path class="Note" transform="matrix(2.16,0,0,2.16,1320.78,2075.46)" d="M31.5,-8.09375 C29.7031,-11.4063 25.9063,-13.2031 21.2969,-13.2031 C17.9063,-13.2031 14.2031,-12.2031 10.5938,-10.2969 C4,-6.79688 0,-0.90625 0,4.20313 C0,5.59375 0.296875,7 1,8.29688 C2.79688,11.5938 6.59375,13.2969 11.2031,13.2969 C14.5938,13.2969 18.2969,12.4063 21.9063,10.5 C28.5,7 32.5,1.09375 32.5,-4 C32.5,-5.40625 32.2031,-6.79688 31.5,-8.09375"/>
<path class="Note" transform="matrix(2.16,0,0,2.16,1598.03,2129.46)" d="M31.5,-8.09375 C29.7031,-11.4063 25.9063,-13.2031 21.2969,-13.2031 C17.9063,-13.2031 14.2031,-12.2031 10.5938,-10.2969 C4,-6.79688 0,-0.90625 0,4.20313 C0,5.59375 0.296875,7 1,8.29688 C2.79688,11.5938 6.59375,13.2969 11.2031,13.2969 C14.5938,13.2969 18.2969,12.4063 21.9063,10.5 C28.5,7 32.5,1.09375 32.5,-4 C32.5,-5.40625 32.2031,-6.79688 31.5,-8.09375"/>
<path class="Note" transform="matrix(2.16,0,0,2.16,1781.12,2075.46)" d="M31.5,-8.09375 C29.7031,-11.4063 25.9063,-13.2031 21.2969,-13.2031 C17.9063,-13.2031 14.2031,-12.2031 10.5938,-10.2969 C4,-6.79688 0,-0.90625 0,4.20313 C0,5.59375 0.296875,7 1,8.29688 C2.79688,11.5938 6.59375,13.2969 11.2031,13.2969 C14.5938,13.2969 18.2969,12.4063 21.9063,10.5 C28.5,7 32.5,1.09375 32.5,-4 C32.5,-5.40625 32.2031,-6.79688 31.5,-8.09375"/>
<path class="Note" transform="matrix(2.16,0,0,2.16,1964.2,2021.46)" d="M31.5,-8.09375 C29.7031,-11.4063 25.9063,-13.2031 21.2969,-13.2031 C17.9063,-13.2031 14.2031,-12.2031 10.5938,-10.2969 C4,-6.79688 0,-0.90625 0,4.20313 C0,5.59375 0.296875,7 1,8.29688 C2.79688,11.5938 6.59375,13.2969 11.2031,13.2969 C14.5938,13.2969 18.2969,12.4063 21.9063,10.5 C28.5,7 32.5,1.09375 32.5,-4 C32.5,-5.40625 32.2031,-6.79688 31.5,-8.09375"/>
<path class="Note" transform="matrix(2.16,0,0,2.16,2260.11,1967.46)" d="M31.5,-8.09375 C29.7031,-11.4063 25.9063,-13.2031 21.2969,-13.2031 C17.9063,-13.2031 14.2031,-12.2031 10.5938,-10.2969 C4,-6.79688 0,-0.90625 0,4.20313 C0,5.59375 0.296875,7 1,8.29688 C2.79688,11.5938 6.59375,13.2969 11.2031,13.2969 C14.5938,13.2969 18.2969,12.4063 21.9063,10.5 C28.5,7 32.5,1.09375 32.5,-4 C32.5,-5.40625 32.2031,-6.79688 31.5,-8.09375"/>
<path class="Note" transform="matrix(2.16,0,0,2.16,2550.63,2048.46)" d="M31.5,-8.09375 C29.7031,-11.4063 25.9063,-13.2031 21.2969,-13.2031 C17.9063,-13.2031 14.2031,-12.2031 10.5938,-10.2969 C4,-6.79688 0,-0.90625 0,4.20313 C0,5.59375 0.296875,7 1,8.29688 C2.79688,11.5938 6.59375,13.2969 11.2031,13.2969 C14.5938,13.2969 18.2969,12.4063 21.9063,10.5 C28.5,7 32.5,1.09375 32.5,-4 C32.5,-5.40625 32.2031,-6.79688 31.5,-8.09375"/>
<path class="Note" transform="matrix(2.16,0,0,2.16,2699.54,2102.46)" d="M31.5,-8.09375 C29.7031,-11.4063 25.9063,-13.2031 21.2969,-13.2031 C17.9063,-13.2031 14.2031,-12.2031 10.5938,-10.2969 C4,-6.79688 0,-0.90625 0,4.20313 C0,5.59375 0.296875,7 1,8.29688 C2.79688,11.5938 6.59375,13.2969 11.2031,13.2969 C14.5938,13.2969 18.2969,12.4063 21.9063,10.5 C28.5,7 32.5,1.09375 32.5,-4 C32.5,-5.40625 32.2031,-6.79688 31.5,-8.09375"/>
<path class="Note" transform="matrix(2.16,0,0,2.16,2848.45,2075.46)" d="M31.5,-8.09375 C29.7031,-11.4063 25.9063,-13.2031 21.2969,-13.2031 C17.9063,-13.2031 14.2031,-12.2031 10.5938,-10.2969 C4,-6.79688 0,-0.90625 0,4.20313 C0,5.59375 0.296875,7 1,8.29688 C2.79688,11.5938 6.59375,13.2969 11.2031,13.2969 C14.5938,13.2969 18.2969,12.4063 21.9063,10.5 C28.5,7 32.5,1.09375 32.5,-4 C32.5,-5.40625 32.2031,-6.79688 31.5,-8.09375"/>
<path class="Note" transform="matrix(2.16,0,0,2.16,2997.37,2048.46)" d="M31.5,-8.14063 C29.7031,-11.4375 25.9063,-13.2344 21.2969,-13.2344 C17.9063,-13.2344 14.2031,-12.2344 10.5938,-10.3438 C4,-6.84375 0,-0.9375 0,4.15625 C0,5.5625 0.296875,6.96875 1,8.26563 C2.79688,11.5781 6.59375,13.2813 11.2031,13.2813 C14.5938,13.2813 18.2969,12.375 21.9063,10.4844 C28.5,6.96875 32.5,1.0625 32.5,-4.04688 C32.5,-5.4375 32.2031,-6.84375 31.5,-8.14063 M27.2031,-1.34375 C25.5,0.359375 22.0938,2.45313 18.5,4.46875 C14.9063,6.46875 11.2969,7.96875 8.90625,8.46875 C8.40625,8.57813 7.90625,8.67188 7.40625,8.67188 C5.79688,8.67188 4.59375,8.07813 3.90625,6.76563 C3.59375,6.26563 3.40625,5.67188 3.40625,5.0625 C3.40625,3.96875 4.09375,2.65625 5.20313,1.5625 C6.90625,-0.140625 10.2031,-2.23438 13.7969,-4.23438 C17.4063,-6.23438 21,-7.73438 23.4063,-8.23438 C23.9063,-8.34375 24.4063,-8.4375 24.9063,-8.4375 C26.5,-8.4375 27.7969,-7.84375 28.5,-6.54688 C28.7969,-6.04688 28.9063,-5.4375 28.9063,-4.84375 C28.9063,-3.73438 28.2969,-2.54688 27.2031,-1.34375"/>
<path class="Note" transform="matrix(2.16,0,0,2.16,3489.56,2048.46)" d="M18.7031,-13.5938 C4.90625,-13.5938 0,-6.59375 0,-0.09375 C0,6.40625 4.90625,13.4063 18.7031,13.4063 C32.5,13.4063 37.2969,6.40625 37.2969,-0.09375 C37.2969,-6.59375 32.5,-13.5938 18.7031,-13.5938 M10.4063,-4.5 C10.2969,-4.90625 10.2969,-5.29688 10.2969,-5.70313 C10.2969,-6.5 10.5,-7.29688 10.9063,-8 C11.5938,-9 12.7969,-9.70313 14.2969,-10 C15.5938,-10.2969 16.2969,-10.5 18.9063,-10.5 L19,-10.5 C23,-10.5 24.2969,-6.79688 25.4063,-3 L25.7031,-2 C26.5,0.59375 26.9063,2.79688 26.9063,4.5 C26.9063,5.70313 26.7031,6.79688 26.2969,7.59375 C25.7031,8.70313 24.7031,9.40625 23,9.79688 C22.0938,10 20.5938,10.0938 20.5938,10.0938 C20.0938,10.0938 19.7031,10.2031 19.2969,10.2031 C16.0938,10.2031 14.0938,9 12.7031,4.70313 C11.5,1 11.2969,-0.09375 10.4063,-4.5"/>
<path class="Clef" transform="matrix(2.16,0,0,2.16,146.466,610.866)" d="M63.3594,-5.92188 C62.125,-11.3438 59.4844,-15.1719 58.7031,-16.2031 C55.5156,-20.4844 51.5,-23.3281 46.8125,-24.6875 C43.7031,-25.5625 40.7031,-25.6875 38.2813,-25.5 C37.2344,-31.5156 36.2344,-37.3906 35.3281,-42.8438 C40.7813,-49.0156 44.4063,-54.8125 46.6875,-59.1094 C50.1563,-65.6875 51.2969,-70.2656 51.3594,-70.4688 C53.0781,-75.6875 53.4375,-83.3906 52.3281,-91.5938 C51.3281,-99.1406 49.2344,-105.859 46.875,-109.109 C45.8594,-110.531 44.7969,-111.266 43.7656,-111.266 C42.5469,-111.266 40.0313,-110.031 37.1406,-107.25 C34.8438,-105.063 31.5781,-101.172 29.0156,-95.1563 C26.0156,-88.0938 25.7969,-78.6094 26.1563,-71.8906 C26.5313,-64.6094 27.6406,-58.9219 27.6563,-58.875 C27.6719,-58.7813 27.9375,-57.2813 28.375,-54.7188 C28.1563,-54.4844 27.9063,-54.2656 27.6563,-54.0156 C26.625,-53.0156 25.4375,-51.8906 24.0469,-50.5 C23.1875,-49.6406 22.2344,-48.7344 21.2344,-47.7656 C12.7969,-39.625 0,-27.2969 0,-8.14063 C0,-3.4375 0.90625,0.984375 2.6875,5 C4.26563,8.59375 6.5625,11.875 9.5,14.75 C17.2344,22.3125 27.8281,25.5156 34.875,25.3594 C37.8281,25.2813 40.4688,25.0469 42.8594,24.5938 C44.6875,34.2031 45.8281,41.2344 45.8594,46.5781 C45.9063,53.0938 44.25,57.0781 40.3594,59.8438 C37.9219,61.5781 35.1094,62.5313 32.0156,62.6719 C29.4219,62.7969 27.1563,62.3281 25.7344,61.9219 L25.7188,61.9219 C25.7188,61.9219 25.4375,61.8281 25.4219,61.6406 C25.4063,61.4531 25.7656,61.4063 25.7656,61.4063 L25.7969,61.4063 C27.7188,60.9688 31.2813,59.7344 33.6406,56.4375 C35.4375,53.9063 36.3125,49.2813 34.4688,45.3438 C33.3594,42.9531 30.8594,40 25.2344,39.5469 C22.7344,39.3438 20.4688,39.8594 18.4688,41.0625 C16.6563,42.1406 15.1563,43.7813 14.1094,45.7813 C11.6563,50.4844 12.1094,56.2188 15.2344,60.0625 C18.2031,63.6875 22.8125,66 28.25,66.5781 C29.1094,66.6719 29.9531,66.7031 30.7969,66.7031 C35.2344,66.7031 39.625,65.5 43.2031,63.2969 C46.8594,60.7188 48.9844,56.7344 49.6563,51.1094 C50.2188,46.4688 49.8281,40.5469 48.4375,32.4688 C48.0781,30.375 47.5313,27.3438 46.875,23.5938 C52.625,21.6719 56.7813,18.0938 60.5469,12.2344 C63.8438,6.5 64.7813,0.390625 63.3594,-5.92188 M29.1406,20.2969 C24.5,19.0781 20.0625,16.5781 16.3125,13.0625 C15,11.8438 13.125,9.67188 11.6563,6.28125 C10.2969,3.10938 9.625,-0.328125 9.6875,-3.90625 C9.75,-8.60938 11.0625,-13.4375 13.5625,-18.2188 C16.4844,-23.7969 21.0469,-29.3281 27.1094,-34.6563 C28.5625,-35.9375 29.9375,-37.2188 31.2188,-38.5 C31.9844,-34.2344 32.8125,-29.5469 33.6875,-24.6719 C29.8438,-23.4063 25.0938,-20.25 21.9844,-14.5938 C18.4375,-8.03125 18.5781,-2.5 19.3125,0.984375 C20.25,5.4375 22.7813,9.20313 26.2344,11.2969 C27.1719,11.8594 31.2969,13.9844 33.1406,13.4063 C33.5156,13.2969 33.7813,13.0625 33.9219,12.7344 C34.4375,11.5625 33.4063,10.9219 31.8594,9.96875 C31.25,9.59375 30.5781,9.17188 29.8594,8.64063 C26.5313,6.15625 25.0781,1.70313 26.1563,-2.6875 C26.7344,-5.07813 28.0156,-7.25 29.8594,-8.95313 C31.5156,-10.5 33.5625,-11.5938 35.9375,-12.2344 C37.9844,-0.984375 40.0469,10.1719 41.6875,18.5313 C41.8125,19.2188 41.9531,19.8906 42.0781,20.5625 C37.7031,21.5 33.3594,21.4063 29.1406,20.2969 M40.4688,-12.9063 C50.8125,-13.375 55.0781,-5.9375 55.9688,-1.10938 C56.4375,1.4375 56.4375,5.875 54.8906,10.0938 C53.7188,13.2656 51.2656,17.3438 46.125,19.4063 C46.0625,18.9844 45.9844,18.5469 45.9063,18.125 C44.3594,9.34375 42.4219,-1.65625 40.4688,-12.9063 M33.1406,-83.8594 C34.9219,-89.5938 37.6563,-92.8438 39.6563,-94.5781 C41.4063,-96.0938 43.0469,-96.8125 43.9688,-96.8125 C44.1094,-96.8125 44.2344,-96.7813 44.3281,-96.75 C44.7969,-96.6094 45.3281,-96.0469 45.7969,-95.1719 C48.1094,-90.8906 47.3594,-84.1719 46.0156,-79.7344 C44.3906,-74.3281 41.4688,-68.7188 32.6719,-59.1094 C32.5,-60.2188 32.3438,-61.2656 32.1875,-62.25 C30.9375,-70.5313 31.2656,-77.8125 33.1406,-83.8594"/>
<path class="Clef" transform="matrix(2.16,0,0,2.16,146.466,1343.16)" d="M63.3594,-5.92188 C62.125,-11.3438 59.4844,-15.1719 58.7031,-16.2031 C55.5156,-20.4844 51.5,-23.3281 46.8125,-24.6875 C43.7031,-25.5625 40.7031,-25.6875 38.2813,-25.5 C37.2344,-31.5156 36.2344,-37.3906 35.3281,-42.8438 C40.7813,-49.0156 44.4063,-54.8125 46.6875,-59.1094 C50.1563,-65.6875 51.2969,-70.2656 51.3594,-70.4688 C53.0781,-75.6875 53.4375,-83.3906 52.3281,-91.5938 C51.3281,-99.1406 49.2344,-105.859 46.875,-109.109 C45.8594,-110.531 44.7969,-111.266 43.7656,-111.266 C42.5469,-111.266 40.0313,-110.031 37.1406,-107.25 C34.8438,-105.063 31.5781,-101.172 29.0156,-95.1563 C26.0156,-88.0938 25.7969,-78.6094 26.1563,-71.8906 C26.5313,-64.6094 27.6406,-58.9219 27.6563,-58.875 C27.6719,-58.7813 27.9375,-57.2813 28.375,-54.7188 C28.1563,-54.4844 27.9063,-54.2656 27.6563,-54.0156 C26.625,-53.0156 25.4375,-51.8906 24.0469,-50.5 C23.1875,-49.6406 22.2344,-48.7344 21.2344,-47.7656 C12.7969,-39.625 0,-27.2969 0,-8.14063 C0,-3.4375 0.90625,0.984375 2.6875,5 C4.26563,8.59375 6.5625,11.875 9.5,14.75 C17.2344,22.3125 27.8281,25.5156 34.875,25.3594 C37.8281,25.2813 40.4688,25.0469 42.8594,24.5938 C44.6875,34.2031 45.8281,41.2344 45.8594,46.5781 C45.9063,53.0938 44.25,57.0781 40.3594,59.8438 C37.9219,61.5781 35.1094,62.5313 32.0156,62.6719 C29.4219,62.7969 27.1563,62.3281 25.7344,61.9219 L25.7188,61.9219 C25.7188,61.9219 25.4375,61.8281 25.4219,61.6406 C25.4063,61.4531 25.7656,61.4063 25.7656,61.4063 L25.7969,61.4063 C27.7188,60.9688 31.2813,59.7344 33.6406,56.4375 C35.4375,53.9063 36.3125,49.2813 34.4688,45.3438 C33.3594,42.9531 30.8594,40 25.2344,39.5469 C22.7344,39.3438 20.4688,39.8594 18.4688,41.0625 C16.6563,42.1406 15.1563,43.7813 14.1094,45.7813 C11.6563,50.4844 12.1094,56.2188 15.2344,60.0625 C18.2031,63.6875 22.8125,66 28.25,66.5781 C29.1094,66.6719 29.9531,66.7031 30.7969,66.7031 C35.2344,66.7031 39.625,65.5 43.2031,63.2969 C46.8594,60.7188 48.9844,56.7344 49.6563,51.1094 C50.2188,46.4688 49.8281,40.5469 48.4375,32.4688 C48.0781,30.375 47.5313,27.3438 46.875,23.5938 C52.625,21.6719 56.7813,18.0938 60.5469,12.2344 C63.8438,6.5 64.7813,0.390625 63.3594,-5.92188 M29.1406,20.2969 C24.5,19.0781 20.0625,16.5781 16.3125,13.0625 C15,11.8438 13.125,9.67188 11.6563,6.28125 C10.2969,3.10938 9.625,-0.328125 9.6875,-3.90625 C9.75,-8.60938 11.0625,-13.4375 13.5625,-18.2188 C16.4844,-23.7969 21.0469,-29.3281 27.1094,-34.6563 C28.5625,-35.9375 29.9375,-37.2188 31.2188,-38.5 C31.9844,-34.2344 32.8125,-29.5469 33.6875,-24.6719 C29.8438,-23.4063 25.0938,-20.25 21.9844,-14.5938 C18.4375,-8.03125 18.5781,-2.5 19.3125,0.984375 C20.25,5.4375 22.7813,9.20313 26.2344,11.2969 C27.1719,11.8594 31.2969,13.9844 33.1406,13.4063 C33.5156,13.2969 33.7813,13.0625 33.9219,12.7344 C34.4375,11.5625 33.4063,10.9219 31.8594,9.96875 C31.25,9.59375 30.5781,9.17188 29.8594,8.64063 C26.5313,6.15625 25.0781,1.70313 26.1563,-2.6875 C26.7344,-5.07813 28.0156,-7.25 29.8594,-8.95313 C31.5156,-10.5 33.5625,-11.5938 35.9375,-12.2344 C37.9844,-0.984375 40.0469,10.1719 41.6875,18.5313 C41.8125,19.2188 41.9531,19.8906 42.0781,20.5625 C37.7031,21.5 33.3594,21.4063 29.1406,20.2969 M40.4688,-12.9063 C50.8125,-13.375 55.0781,-5.9375 55.9688,-1.10938 C56.4375,1.4375 56.4375,5.875 54.8906,10.0938 C53.7188,13.2656 51.2656,17.3438 46.125,19.4063 C46.0625,18.9844 45.9844,18.5469 45.9063,18.125 C44.3594,9.34375 42.4219,-1.65625 40.4688,-12.9063 M33.1406,-83.8594 C34.9219,-89.5938 37.6563,-92.8438 39.6563,-94.5781 C41.4063,-96.0938 43.0469,-96.8125 43.9688,-96.8125 C44.1094,-96.8125 44.2344,-96.7813 44.3281,-96.75 C44.7969,-96.6094 45.3281,-96.0469 45.7969,-95.1719 C48.1094,-90.8906 47.3594,-84.1719 46.0156,-79.7344 C44.3906,-74.3281 41.4688,-68.7188 32.6719,-59.1094 C32.5,-60.2188 32.3438,-61.2656 32.1875,-62.25 C30.9375,-70.5313 31.2656,-77.8125 33.1406,-83.8594"/>
<path class="Clef" transform="matrix(2.16,0,0,2.16,146.466,2075.46)" d="M63.3594,-5.92188 C62.125,-11.3438 59.4844,-15.1719 58.7031,-16.2031 C55.5156,-20.4844 51.5,-23.3281 46.8125,-24.6875 C43.7031,-25.5625 40.7031,-25.6875 38.2813,-25.5 C37.2344,-31.5156 36.2344,-37.3906 35.3281,-42.8438 C40.7813,-49.0156 44.4063,-54.8125 46.6875,-59.1094 C50.1563,-65.6875 51.2969,-70.2656 51.3594,-70.4688 C53.0781,-75.6875 53.4375,-83.3906 52.3281,-91.5938 C51.3281,-99.1406 49.2344,-105.859 46.875,-109.109 C45.8594,-110.531 44.7969,-111.266 43.7656,-111.266 C42.5469,-111.266 40.0313,-110.031 37.1406,-107.25 C34.8438,-105.063 31.5781,-101.172 29.0156,-95.1563 C26.0156,-88.0938 25.7969,-78.6094 26.1563,-71.8906 C26.5313,-64.6094 27.6406,-58.9219 27.6563,-58.875 C27.6719,-58.7813 27.9375,-57.2813 28.375,-54.7188 C28.1563,-54.4844 27.9063,-54.2656 27.6563,-54.0156 C26.625,-53.0156 25.4375,-51.8906 24.0469,-50.5 C23.1875,-49.6406 22.2344,-48.7344 21.2344,-47.7656 C12.7969,-39.625 0,-27.2969 0,-8.14063 C0,-3.4375 0.90625,0.984375 2.6875,5 C4.26563,8.59375 6.5625,11.875 9.5,14.75 C17.2344,22.3125 27.8281,25.5156 34.875,25.3594 C37.8281,25.2813 40.4688,25.0469 42.8594,24.5938 C44.6875,34.2031 45.8281,41.2344 45.8594,46.5781 C45.9063,53.0938 44.25,57.0781 40.3594,59.8438 C37.9219,61.5781 35.1094,62.5313 32.0156,62.6719 C29.4219,62.7969 27.1563,62.3281 25.7344,61.9219 L25.7188,61.9219 C25.7188,61.9219 25.4375,61.8281 25.4219,61.6406 C25.4063,61.4531 25.7656,61.4063 25.7656,61.4063 L25.7969,61.4063 C27.7188,60.9688 31.2813,59.7344 33.6406,56.4375 C35.4375,53.9063 36.3125,49.2813 34.4688,45.3438 C33.3594,42.9531 30.8594,40 25.2344,39.5469 C22.7344,39.3438 20.4688,39.8594 18.4688,41.0625 C16.6563,42.1406 15.1563,43.7813 14.1094,45.7813 C11.6563,50.4844 12.1094,56.2188 15.2344,60.0625 C18.2031,63.6875 22.8125,66 28.25,66.5781 C29.1094,66.6719 29.9531,66.7031 30.7969,66.7031 C35.2344,66.7031 39.625,65.5 43.2031,63.2969 C46.8594,60.7188 48.9844,56.7344 49.6563,51.1094 C50.2188,46.4688 49.8281,40.5469 48.4375,32.4688 C48.0781,30.375 47.5313,27.3438 46.875,23.5938 C52.625,21.6719 56.7813,18.0938 60.5469,12.2344 C63.8438,6.5 64.7813,0.390625 63.3594,-5.92188 M29.1406,20.2969 C24.5,19.0781 20.0625,16.5781 16.3125,13.0625 C15,11.8438 13.125,9.67188 11.6563,6.28125 C10.2969,3.10938 9.625,-0.328125 9.6875,-3.90625 C9.75,-8.60938 11.0625,-13.4375 13.5625,-18.2188 C16.4844,-23.7969 21.0469,-29.3281 27.1094,-34.6563 C28.5625,-35.9375 29.9375,-37.2188 31.2188,-38.5 C31.9844,-34.2344 32.8125,-29.5469 33.6875,-24.6719 C29.8438,-23.4063 25.0938,-20.25 21.9844,-14.5938 C18.4375,-8.03125 18.5781,-2.5 19.3125,0.984375 C20.25,5.4375 22.7813,9.20313 26.2344,11.2969 C27.1719,11.8594 31.2969,13.9844 33.1406,13.4063 C33.5156,13.2969 33.7813,13.0625 33.9219,12.7344 C34.4375,11.5625 33.4063,10.9219 31.8594,9.96875 C31.25,9.59375 30.5781,9.17188 29.8594,8.64063 C26.5313,6.15625 25.0781,1.70313 26.1563,-2.6875 C26.7344,-5.07813 28.0156,-7.25 29.8594,-8.95313 C31.5156,-10.5 33.5625,-11.5938 35.9375,-12.2344 C37.9844,-0.984375 40.0469,10.1719 41.6875,18.5313 C41.8125,19.2188 41.9531,19.8906 42.0781,20.5625 C37.7031,21.5 33.3594,21.4063 29.1406,20.2969 M40.4688,-12.9063 C50.8125,-13.375 55.0781,-5.9375 55.9688,-1.10938 C56.4375,1.4375 56.4375,5.875 54.8906,10.0938 C53.7188,13.2656 51.2656,17.3438 46.125,19.4063 C46.0625,18.9844 45.9844,18.5469 45.9063,18.125 C44.3594,9.34375 42.4219,-1.65625 40.4688,-12.9063 M33.1406,-83.8594 C34.9219,-89.5938 37.6563,-92.8438 39.6563,-94.5781 C41.4063,-96.0938 43.0469,-96.8125 43.9688,-96.8125 C44.1094,-96.8125 44.2344,-96.7813 44.3281,-96.75 C44.7969,-96.6094 45.3281,-96.0469 45.7969,-95.1719 C48.1094,-90.8906 47.3594,-84.1719 46.0156,-79.7344 C44.3906,-74.3281 41.4688,-68.7188 32.6719,-59.1094 C32.5,-60.2188 32.3438,-61.2656 32.1875,-62.25 C30.9375,-70.5313 31.2656,-77.8125 33.1406,-83.8594"/>
<path class="KeySig" transform="matrix(2.16,0,0,2.16,425.072,529.866)" d="M23.2969,-10.5938 C23.9063,-10.7031 24.4063,-11.4063 24.4063,-12 L24.4063,-17.9063 C24.4063,-18.7031 23.7969,-19.2969 23,-19.2969 L22.7969,-19.2969 L19.5,-18.5938 L19.5,-33.5 L16.7031,-33.5 L16.7031,-18 L7.79688,-16.2031 L7.79688,-30.2969 L5,-30.2969 L5,-15.5938 L1.09375,-14.7969 C0.5,-14.7031 0,-14 0,-13.4063 L0,-13.2031 L0,-7.40625 L0,-7.59375 C0,-6.79688 0.59375,-6.20313 1.40625,-6.20313 L1.70313,-6.20313 L5,-6.90625 L5,9.59375 L1.09375,10.4063 C0.5,10.5 0,11.2031 0,11.7969 L0,17.5938 C0,18.4063 0.59375,19 1.40625,19 L1.70313,19 L5,18.2969 L5,33.2031 L7.79688,33.2031 L7.79688,17.7031 L16.7031,15.9063 L16.7031,30 L19.5,30 L19.5,15.2969 L23.2969,14.5938 C23.9063,14.5 24.4063,13.7969 24.4063,13.2031 L24.4063,7.29688 C24.4063,6.5 23.7969,5.90625 23,5.90625 L22.7969,5.90625 L19.5,6.59375 L19.5,-9.90625 L23.2969,-10.5938 M7.79688,9.09375 L7.79688,-7.5 L16.7031,-9.29688 L16.7031,7.20313 L7.79688,9.09375 "/>
<path class="KeySig" transform="matrix(2.16,0,0,2.16,371.072,448.866)" d="M23.2969,-10.5938 C23.9063,-10.7031 24.4063,-11.4063 24.4063,-12 L24.4063,-17.9063 C24.4063,-18.7031 23.7969,-19.2969 23,-19.2969 L22.7969,-19.2969 L19.5,-18.5938 L19.5,-33.5 L16.7031,-33.5 L16.7031,-18 L7.79688,-16.2031 L7.79688,-30.2969 L5,-30.2969 L5,-15.5938 L1.09375,-14.7969 C0.5,-14.7031 0,-14 0,-13.4063 L0,-13.2031 L0,-7.40625 L0,-7.59375 C0,-6.79688 0.59375,-6.20313 1.40625,-6.20313 L1.70313,-6.20313 L5,-6.90625 L5,9.59375 L1.09375,10.4063 C0.5,10.5 0,11.2031 0,11.7969 L0,17.5938 C0,18.4063 0.59375,19 1.40625,19 L1.70313,19 L5,18.2969 L5,33.2031 L7.79688,33.2031 L7.79688,17.7031 L16.7031,15.9063 L16.7031,30 L19.5,30 L19.5,15.2969 L23.2969,14.5938 C23.9063,14.5 24.4063,13.7969 24.4063,13.2031 L24.4063,7.29688 C24.4063,6.5 23.7969,5.90625 23,5.90625 L22.7969,5.90625 L19.5,6.59375 L19.5,-9.90625 L23.2969,-10.5938 M7.79688,9.09375 L7.79688,-7.5 L16.7031,-9.29688 L16.7031,7.20313 L7.79688,9.09375 "/>
<path class="KeySig" transform="matrix(2.16,0,0,2.16,425.072,1262.16)" d="M23.2969,-10.5938 C23.9063,-10.7031 24.4063,-11.4063 24.4063,-12 L24.4063,-17.9063 C24.4063,-18.7031 23.7969,-19.2969 23,-19.2969 L22.7969,-19.2969 L19.5,-18.5938 L19.5,-33.5 L16.7031,-33.5 L16.7031,-18 L7.79688,-16.2031 L7.79688,-30.2969 L5,-30.2969 L5,-15.5938 L1.09375,-14.7969 C0.5,-14.7031 0,-14 0,-13.4063 L0,-13.2031 L0,-7.40625 L0,-7.59375 C0,-6.79688 0.59375,-6.20313 1.40625,-6.20313 L1.70313,-6.20313 L5,-6.90625 L5,9.59375 L1.09375,10.4063 C0.5,10.5 0,11.2031 0,11.7969 L0,17.5938 C0,18.4063 0.59375,19 1.40625,19 L1.70313,19 L5,18.2969 L5,33.2031 L7.79688,33.2031 L7.79688,17.7031 L16.7031,15.9063 L16.7031,30 L19.5,30 L19.5,15.2969 L23.2969,14.5938 C23.9063,14.5 24.4063,13.7969 24.4063,13.2031 L24.4063,7.29688 C24.4063,6.5 23.7969,5.90625 23,5.90625 L22.7969,5.90625 L19.5,6.59375 L19.5,-9.90625 L23.2969,-10.5938 M7.79688,9.09375 L7.79688,-7.5 L16.7031,-9.29688 L16.7031,7.20313 L7.79688,9.09375 "/>
<path class="KeySig" transform="matrix(2.16,0,0,2.16,371.072,1181.16)" d="M23.2969,-10.5938 C23.9063,-10.7031 24.4063,-11.4063 24.4063,-12 L24.4063,-17.9063 C24.4063,-18.7031 23.7969,-19.2969 23,-19.2969 L22.7969,-19.2969 L19.5,-18.5938 L19.5,-33.5 L16.7031,-33.5 L16.7031,-18 L7.79688,-16.2031 L7.79688,-30.2969 L5,-30.2969 L5,-15.5938 L1.09375,-14.7969 C0.5,-14.7031 0,-14 0,-13.4063 L0,-13.2031 L0,-7.40625 L0,-7.59375 C0,-6.79688 0.59375,-6.20313 1.40625,-6.20313 L1.70313,-6.20313 L5,-6.90625 L5,9.59375 L1.09375,10.4063 C0.5,10.5 0,11.2031 0,11.7969 L0,17.5938 C0,18.4063 0.59375,19 1.40625,19 L1.70313,19 L5,18.2969 L5,33.2031 L7.79688,33.2031 L7.79688,17.7031 L16.7031,15.9063 L16.7031,30 L19.5,30 L19.5,15.2969 L23.2969,14.5938 C23.9063,14.5 24.4063,13.7969 24.4063,13.2031 L24.4063,7.29688 C24.4063,6.5 23.7969,5.90625 23,5.90625 L22.7969,5.90625 L19.5,6.59375 L19.5,-9.90625 L23.2969,-10.5938 M7.79688,9.09375 L7.79688,-7.5 L16.7031,-9.29688 L16.7031,7.20313 L7.79688,9.09375 "/>
<path class="KeySig" transform="matrix(2.16,0,0,2.16,425.072,1994.46)" d="M23.2969,-10.5938 C23.9063,-10.7031 24.4063,-11.4063 24.4063,-12 L24.4063,-17.9063 C24.4063,-18.7031 23.7969,-19.2969 23,-19.2969 L22.7969,-19.2969 L19.5,-18.5938 L19.5,-33.5 L16.7031,-33.5 L16.7031,-18 L7.79688,-16.2031 L7.79688,-30.2969 L5,-30.2969 L5,-15.5938 L1.09375,-14.7969 C0.5,-14.7031 0,-14 0,-13.4063 L0,-13.2031 L0,-7.40625 L0,-7.59375 C0,-6.79688 0.59375,-6.20313 1.40625,-6.20313 L1.70313,-6.20313 L5,-6.90625 L5,9.59375 L1.09375,10.4063 C0.5,10.5 0,11.2031 0,11.7969 L0,17.5938 C0,18.4063 0.59375,19 1.40625,19 L1.70313,19 L5,18.2969 L5,33.2031 L7.79688,33.2031 L7.79688,17.7031 L16.7031,15.9063 L16.7031,30 L19.5,30 L19.5,15.2969 L23.2969,14.5938 C23.9063,14.5 24.4063,13.7969 24.4063,13.2031 L24.4063,7.29688 C24.4063,6.5 23.7969,5.90625 23,5.90625 L22.7969,5.90625 L19.5,6.59375 L19.5,-9.90625 L23.2969,-10.5938 M7.79688,9.09375 L7.79688,-7.5 L16.7031,-9.29688 L16.7031,7.20313 L7.79688,9.09375 "/>
<path class="KeySig" transform="matrix(2.16,0,0,2.16,371.072,1913.46)" d="M23.2969,-10.5938 C23.9063,-10.7031 24.4063,-11.4063 24.4063,-12 L24.4063,-17.9063 C24.4063,-18.7031 23.7969,-19.2969 23,-19.2969 L22.7969,-19.2969 L19.5,-18.5938 L19.5,-33.5 L16.7031,-33.5 L16.7031,-18 L7.79688,-16.2031 L7.79688,-30.2969 L5,-30.2969 L5,-15.5938 L1.09375,-14.7969 C0.5,-14.7031 0,-14 0,-13.4063 L0,-13.2031 L0,-7.40625 L0,-7.59375 C0,-6.79688 0.59375,-6.20313 1.40625,-6.20313 L1.70313,-6.20313 L5,-6.90625 L5,9.59375 L1.09375,10.4063 C0.5,10.5 0,11.2031 0,11.7969 L0,17.5938 C0,18.4063 0.59375,19 1.40625,19 L1.70313,19 L5,18.2969 L5,33.2031 L7.79688,33.2031 L7.79688,17.7031 L16.7031,15.9063 L16.7031,30 L19.5,30 L19.5,15.2969 L23.2969,14.5938 C23.9063,14.5 24.4063,13.7969 24.4063,13.2031 L24.4063,7.29688 C24.4063,6.5 23.7969,5.90625 23,5.90625 L22.7969,5.90625 L19.5,6.59375 L19.5,-9.90625 L23.2969,-10.5938 M7.79688,9.09375 L7.79688,-7.5 L16.7031,-9.29688 L16.7031,7.20313 L7.79688,9.09375 "/>
<path class="TimeSig" transform="matrix(2.16,0,0,2.16,564.173,556.866)" d="M32.5,-17.9063 C30,-16.2969 28.2031,-13.4063 28.2031,-10.2031 C28.2031,-9.79688 28.2031,-9.40625 28.2969,-9 C28.7969,-4.90625 32.1094,-1.70313 36.2031,-1.20313 L37.2969,-1.20313 C42.2969,-1.20313 46.2969,-5.20313 46.2969,-10.2031 L46.2969,-10.7969 C46.2969,-11.2031 46.2031,-11.9063 46.1094,-12.2969 C45.2031,-16.5938 41.2969,-25.7969 24.2969,-25.7969 C2.5,-25.7969 0,-7.70313 0,-1.20313 C0,10.7031 1.5,25.6094 26.5,25.6094 C36.4063,25.6094 44.1094,19.7969 44.5,9.09375 C44.5,8.59375 44.2031,8.29688 43.7031,8.29688 L42.4063,8.29688 C42,8.29688 41.6094,8.70313 41.6094,9.09375 C41.2031,17.4063 35.2969,22.4063 26.5,22.4063 C17.7969,22.4063 13.5938,17.7031 13.5938,8.90625 L13.5938,-10.2031 C13.5938,-15.7969 15.7969,-22.2031 24.7031,-22.2031 C29.4063,-22.2031 31.5,-20.5 32.6094,-18.7969 C32.7969,-18.4063 32.7969,-18.0938 32.5,-17.9063"/>
<path class="Rest" transform="matrix(2.16,0,0,2.16,1410.04,1264.56)" d="M26.7344,-20.2656 C25.9844,-20.5469 25.3125,-20.2031 24.9844,-19.5938 C24.6563,-18.9844 21.4688,-13.0625 17.0469,-9.79688 C15.6563,-8.78125 14.0625,-8.14063 12.5,-7.8125 C13.625,-9.0625 14.2969,-10.7344 14.2969,-12.5469 C14.2969,-16.5 11.0938,-19.7031 7.15625,-19.7031 C3.20313,-19.7031 0,-16.5 0,-12.5469 C0,-9.54688 1.875,-6.95313 4.51563,-5.90625 C6.04688,-5.1875 7.95313,-4.73438 10,-4.73438 C12.8438,-4.73438 15.9531,-5.5625 18.6719,-7.5625 C19.9375,-8.48438 21.125,-9.6875 22.2031,-10.9375 L10.8125,24.6875 L13.4531,25.5469 L27.5313,-18.5469 C27.7656,-19.2813 27.4688,-19.9688 26.7344,-20.2656"/>
<path class="Beam" fill-rule="evenodd" d="M766.774,799.866 L1057.8,799.866 L1057.8,826.866 L766.774,826.866 L766.774,799.866 "/>
<path class="Beam" fill-rule="evenodd" d="M938.477,759.366 L1057.8,759.366 L1057.8,786.366 L938.477,786.366 L938.477,759.366 "/>
<path class="Beam" fill-rule="evenodd" d="M1401.34,772.866 L1675.35,772.866 L1675.35,799.866 L1401.34,799.866 L1401.34,772.866 "/>
<path class="Beam" fill-rule="evenodd" d="M1803.45,799.866 L2077.47,799.866 L2077.47,826.866 L1803.45,826.866 L1803.45,799.866 "/>
<path class="Beam" fill-rule="evenodd" d="M2367.43,799.866 L2675,799.866 L2675,826.866 L2367.43,826.866 L2367.43,799.866 "/>
<path class="Beam" fill-rule="evenodd" d="M2553.05,759.366 L2675,759.366 L2675,786.366 L2553.05,786.366 L2553.05,759.366 "/>
<path class="Beam" fill-rule="evenodd" d="M2785.08,772.866 L3080.82,772.866 L3080.82,799.866 L2785.08,799.866 L2785.08,772.866 "/>
<path class="Beam" fill-rule="evenodd" d="M3219.79,772.866 L3515.53,772.866 L3515.53,799.866 L3219.79,799.866 L3219.79,772.866 "/>
<path class="Beam" fill-rule="evenodd" d="M3654.5,826.866 L3950.24,826.866 L3950.24,853.866 L3654.5,853.866 L3654.5,826.866 "/>
<path class="Beam" fill-rule="evenodd" d="M564.173,1559.16 L967.809,1559.16 L967.809,1586.16 L564.173,1586.16 L564.173,1559.16 "/>
<path class="Beam" fill-rule="evenodd" d="M848.486,1518.66 L967.809,1518.66 L967.809,1545.66 L848.486,1545.66 L848.486,1518.66 "/>
<path class="Beam" fill-rule="evenodd" d="M848.486,1478.16 L967.809,1478.16 L967.809,1505.16 L848.486,1505.16 L848.486,1478.16 "/>
<path class="Beam" fill-rule="evenodd" d="M1671.63,1558.98 L2089.73,1490.51 L2089.73,1517.87 L1671.63,1586.34 L1671.63,1558.98 "/>
<path class="Beam" fill-rule="evenodd" d="M2708.58,1532.16 L3107.05,1532.16 L3107.05,1559.16 L2708.58,1559.16 L2708.58,1532.16 "/>
<path class="Beam" fill-rule="evenodd" d="M2987.73,1491.66 L3107.05,1491.66 L3107.05,1518.66 L2987.73,1518.66 L2987.73,1491.66 "/>
<path class="Beam" fill-rule="evenodd" d="M2987.73,1451.16 L3107.05,1451.16 L3107.05,1478.16 L2987.73,1478.16 L2987.73,1451.16 "/>
<path class="Beam" fill-rule="evenodd" d="M3520.89,1545.48 L3931.49,1476.99 L3931.49,1504.36 L3520.89,1572.85 L3520.89,1545.48 "/>
<path class="Beam" fill-rule="evenodd" d="M841.422,2264.46 L1213.34,2264.46 L1213.34,2291.46 L841.422,2291.46 L841.422,2264.46 "/>
<path class="Beam" fill-rule="evenodd" d="M1094.01,2223.96 L1213.34,2223.96 L1213.34,2250.96 L1094.01,2250.96 L1094.01,2223.96 "/>
<path class="Beam" fill-rule="evenodd" d="M1094.01,2183.46 L1213.34,2183.46 L1213.34,2210.46 L1094.01,2210.46 L1094.01,2183.46 "/>
<path class="Beam" fill-rule="evenodd" d="M1598.03,2277.74 L1970.14,2209.14 L1970.14,2236.6 L1598.03,2305.19 L1598.03,2277.74 "/>
<path class="Beam" fill-rule="evenodd" d="M2550.63,2237.46 L2854.39,2237.46 L2854.39,2264.46 L2550.63,2264.46 L2550.63,2237.46 "/>
<path class="Tuplet" d="M1543.86,871.85 C1548.41,870.397 1550.25,869.631 1552.58,868.069 C1557.14,865.069 1559.95,859.725 1559.95,854.303 C1559.95,845.085 1552.58,838.881 1541.72,838.881 C1531.14,838.881 1522.22,845.475 1522.22,853.428 C1522.22,857.397 1524.66,860.116 1528.33,860.116 C1531.53,860.116 1533.86,857.788 1533.86,854.585 C1533.86,852.944 1533.37,851.772 1531.83,850.225 C1530.86,849.35 1530.47,848.678 1530.47,847.991 C1530.47,845.663 1535.31,843.241 1539.87,843.241 C1546.37,843.241 1550.25,846.835 1550.25,852.85 C1550.25,861.475 1544.14,869.631 1537.64,869.631 C1537.36,869.631 1536.48,869.522 1535.42,869.428 C1532.61,869.241 1532.61,869.241 1532.01,869.241 C1529.89,869.241 1528.72,870.21 1528.72,871.944 C1528.72,873.506 1529.8,874.475 1531.53,874.475 C1532.01,874.475 1532.7,874.381 1533.47,874.272 C1534.83,873.991 1536.28,873.897 1537.16,873.897 C1541.72,873.897 1544.83,877.96 1544.83,883.975 C1544.83,888.631 1543.76,893.1 1541.62,896.788 C1538.72,902.022 1534.25,904.538 1527.95,904.538 C1522.51,904.538 1517.86,901.835 1517.86,898.725 C1517.86,897.663 1518.25,897.272 1519.8,896.585 C1522.61,895.335 1523.78,893.585 1523.78,890.96 C1523.78,887.569 1521.06,884.944 1517.56,884.944 C1513.39,884.944 1510.69,888.241 1510.69,893.288 C1510.69,902.694 1517.86,908.616 1529.5,908.616 C1544.14,908.616 1555.3,898.819 1555.3,885.819 C1555.3,882.335 1554.23,879.319 1552.2,876.897 C1550.06,874.381 1548.12,873.21 1543.86,871.85"/>
<path class="Tuplet" d="M1945.97,898.85 C1950.52,897.397 1952.36,896.631 1954.69,895.069 C1959.25,892.069 1962.07,886.725 1962.07,881.303 C1962.07,872.085 1954.69,865.881 1943.83,865.881 C1933.25,865.881 1924.33,872.475 1924.33,880.428 C1924.33,884.397 1926.77,887.116 1930.44,887.116 C1933.65,887.116 1935.97,884.788 1935.97,881.585 C1935.97,879.944 1935.49,878.772 1933.94,877.225 C1932.97,876.35 1932.58,875.678 1932.58,874.991 C1932.58,872.663 1937.43,870.241 1941.99,870.241 C1948.49,870.241 1952.36,873.835 1952.36,879.85 C1952.36,888.475 1946.25,896.631 1939.75,896.631 C1939.47,896.631 1938.6,896.522 1937.54,896.428 C1934.72,896.241 1934.72,896.241 1934.13,896.241 C1932,896.241 1930.83,897.21 1930.83,898.944 C1930.83,900.506 1931.91,901.475 1933.65,901.475 C1934.13,901.475 1934.82,901.381 1935.58,901.272 C1936.94,900.991 1938.4,900.897 1939.27,900.897 C1943.83,900.897 1946.94,904.96 1946.94,910.975 C1946.94,915.631 1945.88,920.1 1943.74,923.788 C1940.83,929.022 1936.36,931.538 1930.07,931.538 C1924.63,931.538 1919.97,928.835 1919.97,925.725 C1919.97,924.663 1920.36,924.272 1921.91,923.585 C1924.72,922.335 1925.9,920.585 1925.9,917.96 C1925.9,914.569 1923.18,911.944 1919.68,911.944 C1915.5,911.944 1912.8,915.241 1912.8,920.288 C1912.8,929.694 1919.97,935.616 1931.61,935.616 C1946.25,935.616 1957.41,925.819 1957.41,912.819 C1957.41,909.335 1956.35,906.319 1954.32,903.897 C1952.18,901.381 1950.24,900.21 1945.97,898.85"/>
<path class="Tuplet" d="M2938.47,871.85 C2943.01,870.397 2944.86,869.631 2947.18,868.069 C2951.75,865.069 2954.56,859.725 2954.56,854.303 C2954.56,845.085 2947.18,838.881 2936.32,838.881 C2925.75,838.881 2916.82,845.475 2916.82,853.428 C2916.82,857.397 2919.26,860.116 2922.93,860.116 C2926.14,860.116 2928.47,857.788 2928.47,854.585 C2928.47,852.944 2927.98,851.772 2926.43,850.225 C2925.47,849.35 2925.07,848.678 2925.07,847.991 C2925.07,845.663 2929.92,843.241 2934.48,843.241 C2940.98,843.241 2944.86,846.835 2944.86,852.85 C2944.86,861.475 2938.75,869.631 2932.25,869.631 C2931.97,869.631 2931.09,869.522 2930.03,869.428 C2927.22,869.241 2927.22,869.241 2926.62,869.241 C2924.5,869.241 2923.32,870.21 2923.32,871.944 C2923.32,873.506 2924.4,874.475 2926.14,874.475 C2926.62,874.475 2927.31,874.381 2928.07,874.272 C2929.43,873.991 2930.89,873.897 2931.76,873.897 C2936.32,873.897 2939.43,877.96 2939.43,883.975 C2939.43,888.631 2938.37,893.1 2936.23,896.788 C2933.32,902.022 2928.86,904.538 2922.56,904.538 C2917.12,904.538 2912.47,901.835 2912.47,898.725 C2912.47,897.663 2912.86,897.272 2914.4,896.585 C2917.22,895.335 2918.39,893.585 2918.39,890.96 C2918.39,887.569 2915.67,884.944 2912.17,884.944 C2908,884.944 2905.29,888.241 2905.29,893.288 C2905.29,902.694 2912.47,908.616 2924.11,908.616 C2938.75,908.616 2949.9,898.819 2949.9,885.819 C2949.9,882.335 2948.84,879.319 2946.81,876.897 C2944.67,874.381 2942.73,873.21 2938.47,871.85"/>
<path class="Tuplet" d="M3373.17,871.85 C3377.72,870.397 3379.57,869.631 3381.89,868.069 C3386.46,865.069 3389.27,859.725 3389.27,854.303 C3389.27,845.085 3381.89,838.881 3371.03,838.881 C3360.46,838.881 3351.53,845.475 3351.53,853.428 C3351.53,857.397 3353.97,860.116 3357.64,860.116 C3360.85,860.116 3363.17,857.788 3363.17,854.585 C3363.17,852.944 3362.69,851.772 3361.14,850.225 C3360.17,849.35 3359.78,848.678 3359.78,847.991 C3359.78,845.663 3364.63,843.241 3369.19,843.241 C3375.69,843.241 3379.57,846.835 3379.57,852.85 C3379.57,861.475 3373.46,869.631 3366.96,869.631 C3366.67,869.631 3365.8,869.522 3364.74,869.428 C3361.92,869.241 3361.92,869.241 3361.33,869.241 C3359.21,869.241 3358.03,870.21 3358.03,871.944 C3358.03,873.506 3359.11,874.475 3360.85,874.475 C3361.33,874.475 3362.02,874.381 3362.78,874.272 C3364.14,873.991 3365.6,873.897 3366.47,873.897 C3371.03,873.897 3374.14,877.96 3374.14,883.975 C3374.14,888.631 3373.08,893.1 3370.94,896.788 C3368.03,902.022 3363.57,904.538 3357.27,904.538 C3351.83,904.538 3347.17,901.835 3347.17,898.725 C3347.17,897.663 3347.57,897.272 3349.11,896.585 C3351.92,895.335 3353.1,893.585 3353.1,890.96 C3353.1,887.569 3350.38,884.944 3346.88,884.944 C3342.71,884.944 3340,888.241 3340,893.288 C3340,902.694 3347.17,908.616 3358.82,908.616 C3373.46,908.616 3384.61,898.819 3384.61,885.819 C3384.61,882.335 3383.55,879.319 3381.52,876.897 C3379.38,874.381 3377.44,873.21 3373.17,871.85"/>
<path class="Tuplet" d="M3807.88,925.85 C3812.43,924.397 3814.27,923.631 3816.6,922.069 C3821.17,919.069 3823.98,913.725 3823.98,908.303 C3823.98,899.085 3816.6,892.881 3805.74,892.881 C3795.17,892.881 3786.24,899.475 3786.24,907.428 C3786.24,911.397 3788.68,914.116 3792.35,914.116 C3795.56,914.116 3797.88,911.788 3797.88,908.585 C3797.88,906.944 3797.4,905.772 3795.85,904.225 C3794.88,903.35 3794.49,902.678 3794.49,901.991 C3794.49,899.663 3799.34,897.241 3803.9,897.241 C3810.4,897.241 3814.27,900.835 3814.27,906.85 C3814.27,915.475 3808.17,923.631 3801.67,923.631 C3801.38,923.631 3800.51,923.522 3799.45,923.428 C3796.63,923.241 3796.63,923.241 3796.04,923.241 C3793.92,923.241 3792.74,924.21 3792.74,925.944 C3792.74,927.506 3793.82,928.475 3795.56,928.475 C3796.04,928.475 3796.73,928.381 3797.49,928.272 C3798.85,927.991 3800.31,927.897 3801.18,927.897 C3805.74,927.897 3808.85,931.96 3808.85,937.975 C3808.85,942.631 3807.79,947.1 3805.65,950.788 C3802.74,956.022 3798.27,958.538 3791.98,958.538 C3786.54,958.538 3781.88,955.835 3781.88,952.725 C3781.88,951.663 3782.27,951.272 3783.82,950.585 C3786.63,949.335 3787.81,947.585 3787.81,944.96 C3787.81,941.569 3785.09,938.944 3781.59,938.944 C3777.42,938.944 3774.71,942.241 3774.71,947.288 C3774.71,956.694 3781.88,962.616 3793.52,962.616 C3808.17,962.616 3819.32,952.819 3819.32,939.819 C3819.32,936.335 3818.26,933.319 3816.23,930.897 C3814.09,928.381 3812.15,927.21 3807.88,925.85"/>
<path class="Tuplet" d="M1886.2,1653.34 C1890.74,1651.88 1892.59,1651.12 1894.92,1649.56 C1899.48,1646.56 1902.29,1641.21 1902.29,1635.79 C1902.29,1626.57 1894.92,1620.37 1884.06,1620.37 C1873.48,1620.37 1864.56,1626.96 1864.56,1634.91 C1864.56,1638.88 1866.99,1641.6 1870.67,1641.6 C1873.87,1641.6 1876.2,1639.27 1876.2,1636.07 C1876.2,1634.43 1875.71,1633.26 1874.17,1631.71 C1873.2,1630.84 1872.81,1630.16 1872.81,1629.48 C1872.81,1627.15 1877.65,1624.73 1882.21,1624.73 C1888.71,1624.73 1892.59,1628.32 1892.59,1634.34 C1892.59,1642.96 1886.48,1651.12 1879.98,1651.12 C1879.7,1651.12 1878.82,1651.01 1877.76,1650.91 C1874.95,1650.73 1874.95,1650.73 1874.35,1650.73 C1872.23,1650.73 1871.06,1651.7 1871.06,1653.43 C1871.06,1654.99 1872.13,1655.96 1873.87,1655.96 C1874.35,1655.96 1875.04,1655.87 1875.81,1655.76 C1877.17,1655.48 1878.62,1655.38 1879.49,1655.38 C1884.06,1655.38 1887.17,1659.45 1887.17,1665.46 C1887.17,1670.12 1886.1,1674.59 1883.96,1678.27 C1881.06,1683.51 1876.59,1686.02 1870.29,1686.02 C1864.85,1686.02 1860.2,1683.32 1860.2,1680.21 C1860.2,1679.15 1860.59,1678.76 1862.13,1678.07 C1864.95,1676.82 1866.12,1675.07 1866.12,1672.45 C1866.12,1669.06 1863.4,1666.43 1859.9,1666.43 C1855.73,1666.43 1853.02,1669.73 1853.02,1674.77 C1853.02,1684.18 1860.2,1690.1 1871.84,1690.1 C1886.48,1690.1 1897.63,1680.31 1897.63,1667.31 C1897.63,1663.82 1896.57,1660.81 1894.54,1658.38 C1892.4,1655.87 1890.46,1654.7 1886.2,1653.34"/>
<path class="Tuplet" d="M3731.71,1639.84 C3736.25,1638.38 3738.1,1637.62 3740.42,1636.06 C3744.99,1633.06 3747.8,1627.71 3747.8,1622.29 C3747.8,1613.07 3740.42,1606.87 3729.57,1606.87 C3718.99,1606.87 3710.07,1613.46 3710.07,1621.41 C3710.07,1625.38 3712.5,1628.1 3716.17,1628.1 C3719.38,1628.1 3721.71,1625.77 3721.71,1622.57 C3721.71,1620.93 3721.22,1619.76 3719.67,1618.21 C3718.71,1617.34 3718.32,1616.66 3718.32,1615.98 C3718.32,1613.65 3723.16,1611.23 3727.72,1611.23 C3734.22,1611.23 3738.1,1614.82 3738.1,1620.84 C3738.1,1629.46 3731.99,1637.62 3725.49,1637.62 C3725.21,1637.62 3724.33,1637.51 3723.27,1637.41 C3720.46,1637.23 3720.46,1637.23 3719.86,1637.23 C3717.74,1637.23 3716.57,1638.2 3716.57,1639.93 C3716.57,1641.49 3717.64,1642.46 3719.38,1642.46 C3719.86,1642.46 3720.55,1642.37 3721.32,1642.26 C3722.67,1641.98 3724.13,1641.88 3725,1641.88 C3729.57,1641.88 3732.67,1645.95 3732.67,1651.96 C3732.67,1656.62 3731.61,1661.09 3729.47,1664.77 C3726.57,1670.01 3722.1,1672.52 3715.8,1672.52 C3710.36,1672.52 3705.71,1669.82 3705.71,1666.71 C3705.71,1665.65 3706.1,1665.26 3707.64,1664.57 C3710.46,1663.32 3711.63,1661.57 3711.63,1658.95 C3711.63,1655.56 3708.91,1652.93 3705.41,1652.93 C3701.24,1652.93 3698.53,1656.23 3698.53,1661.27 C3698.53,1670.68 3705.71,1676.6 3717.35,1676.6 C3731.99,1676.6 3743.14,1666.81 3743.14,1653.81 C3743.14,1650.32 3742.08,1647.31 3740.05,1644.88 C3737.91,1642.37 3735.97,1641.2 3731.71,1639.84"/>
<path class="Tuplet" d="M1789.6,2372.14 C1794.15,2370.68 1795.99,2369.92 1798.32,2368.35 C1802.88,2365.35 1805.69,2360.01 1805.69,2354.59 C1805.69,2345.37 1798.32,2339.17 1787.46,2339.17 C1776.88,2339.17 1767.96,2345.76 1767.96,2353.71 C1767.96,2357.68 1770.4,2360.4 1774.07,2360.4 C1777.27,2360.4 1779.6,2358.07 1779.6,2354.87 C1779.6,2353.23 1779.12,2352.06 1777.57,2350.51 C1776.6,2349.64 1776.21,2348.96 1776.21,2348.28 C1776.21,2345.95 1781.05,2343.53 1785.62,2343.53 C1792.12,2343.53 1795.99,2347.12 1795.99,2353.14 C1795.99,2361.76 1789.88,2369.92 1783.38,2369.92 C1783.1,2369.92 1782.23,2369.81 1781.16,2369.71 C1778.35,2369.53 1778.35,2369.53 1777.76,2369.53 C1775.63,2369.53 1774.46,2370.49 1774.46,2372.23 C1774.46,2373.79 1775.54,2374.76 1777.27,2374.76 C1777.76,2374.76 1778.44,2374.67 1779.21,2374.56 C1780.57,2374.28 1782.02,2374.18 1782.9,2374.18 C1787.46,2374.18 1790.57,2378.24 1790.57,2384.26 C1790.57,2388.92 1789.51,2393.39 1787.37,2397.07 C1784.46,2402.31 1779.99,2404.82 1773.69,2404.82 C1768.26,2404.82 1763.6,2402.12 1763.6,2399.01 C1763.6,2397.95 1763.99,2397.56 1765.54,2396.87 C1768.35,2395.62 1769.52,2393.87 1769.52,2391.24 C1769.52,2387.85 1766.8,2385.23 1763.3,2385.23 C1759.13,2385.23 1756.43,2388.53 1756.43,2393.57 C1756.43,2402.98 1763.6,2408.9 1775.24,2408.9 C1789.88,2408.9 1801.04,2399.1 1801.04,2386.1 C1801.04,2382.62 1799.98,2379.6 1797.94,2377.18 C1795.8,2374.67 1793.87,2373.49 1789.6,2372.14"/>
<path class="Tuplet" d="M2708.03,2336.45 C2712.57,2334.99 2714.42,2334.23 2716.75,2332.67 C2721.31,2329.67 2724.12,2324.32 2724.12,2318.9 C2724.12,2309.68 2716.75,2303.48 2705.89,2303.48 C2695.31,2303.48 2686.39,2310.07 2686.39,2318.02 C2686.39,2321.99 2688.82,2324.71 2692.5,2324.71 C2695.7,2324.71 2698.03,2322.38 2698.03,2319.18 C2698.03,2317.54 2697.54,2316.37 2696,2314.82 C2695.03,2313.95 2694.64,2313.27 2694.64,2312.59 C2694.64,2310.26 2699.48,2307.84 2704.04,2307.84 C2710.54,2307.84 2714.42,2311.43 2714.42,2317.45 C2714.42,2326.07 2708.31,2334.23 2701.81,2334.23 C2701.53,2334.23 2700.65,2334.12 2699.59,2334.02 C2696.78,2333.84 2696.78,2333.84 2696.18,2333.84 C2694.06,2333.84 2692.89,2334.81 2692.89,2336.54 C2692.89,2338.1 2693.96,2339.07 2695.7,2339.07 C2696.18,2339.07 2696.87,2338.98 2697.64,2338.87 C2699,2338.59 2700.45,2338.49 2701.32,2338.49 C2705.89,2338.49 2709,2342.56 2709,2348.57 C2709,2353.23 2707.93,2357.7 2705.79,2361.38 C2702.89,2366.62 2698.42,2369.13 2692.12,2369.13 C2686.68,2369.13 2682.03,2366.43 2682.03,2363.32 C2682.03,2362.26 2682.42,2361.87 2683.96,2361.18 C2686.78,2359.93 2687.95,2358.18 2687.95,2355.56 C2687.95,2352.17 2685.23,2349.54 2681.73,2349.54 C2677.56,2349.54 2674.85,2352.84 2674.85,2357.88 C2674.85,2367.29 2682.03,2373.21 2693.67,2373.21 C2708.31,2373.21 2719.46,2363.42 2719.46,2350.42 C2719.46,2346.93 2718.4,2343.92 2716.37,2341.49 C2714.23,2338.98 2712.29,2337.81 2708.03,2336.45"/>
<path class="NoteDot" transform="matrix(2.16,0,0,2.16,661.356,1370.16)" d="M0,0 C0,2.76563 2.23438,5 5,5 C7.76563,5 10,2.76563 10,0 C10,-2.76563 7.76563,-5 5,-5 C2.23438,-5 0,-2.76563 0,0"/>
<path class="NoteDot" transform="matrix(2.16,0,0,2.16,1172.44,1370.16)" d="M0,0 C0,2.76563 2.23438,5 5,5 C7.76563,5 10,2.76563 10,0 C10,-2.76563 7.76563,-5 5,-5 C2.23438,-5 0,-2.76563 0,0"/>
<path class="NoteDot" transform="matrix(2.16,0,0,2.16,2805.77,1316.16)" d="M0,0 C0,2.76563 2.23438,5 5,5 C7.76563,5 10,2.76563 10,0 C10,-2.76563 7.76563,-5 5,-5 C2.23438,-5 0,-2.76563 0,0"/>
<path class="NoteDot" transform="matrix(2.16,0,0,2.16,938.606,2048.46)" d="M0,0 C0,2.76563 2.23438,5 5,5 C7.76563,5 10,2.76563 10,0 C10,-2.76563 7.76563,-5 5,-5 C2.23438,-5 0,-2.76563 0,0"/>
</svg>
