<?xml version="1.0" encoding="UTF-8" standalone="no"?>
<svg width="4208.47px" height="2409.45px" viewBox="0 0 4208.47 2409.45"
 xmlns="http://www.w3.org/2000/svg" xmlns:xlink="http://www.w3.org/1999/xlink" version="1.2" baseProfile="tiny">
<title>FLAUTA</title>
<desc>Generated by MuseScore 3.6.2</desc>
<polyline class="StaffLines" fill="none" stroke="#000000" stroke-width="5.53" stroke-linejoin="bevel" points="70.866,423.071 4137.61,423.071"/>
<polyline class="StaffLines" fill="none" stroke="#000000" stroke-width="5.53" stroke-linejoin="bevel" points="70.866,473.386 4137.61,473.386"/>
<polyline class="StaffLines" fill="none" stroke="#000000" stroke-width="5.53" stroke-linejoin="bevel" points="70.866,523.701 4137.61,523.701"/>
<polyline class="StaffLines" fill="none" stroke="#000000" stroke-width="5.53" stroke-linejoin="bevel" points="70.866,574.016 4137.61,574.016"/>
<polyline class="StaffLines" fill="none" stroke="#000000" stroke-width="5.53" stroke-linejoin="bevel" points="70.866,624.331 4137.61,624.331"/>
<polyline class="StaffLines" fill="none" stroke="#000000" stroke-width="5.53" stroke-linejoin="bevel" points="70.866,1273.84 4137.61,1273.84"/>
<polyline class="StaffLines" fill="none" stroke="#000000" stroke-width="5.53" stroke-linejoin="bevel" points="70.866,1324.15 4137.61,1324.15"/>
<polyline class="StaffLines" fill="none" stroke="#000000" stroke-width="5.53" stroke-linejoin="bevel" points="70.866,1374.47 4137.61,1374.47"/>
<polyline class="StaffLines" fill="none" stroke="#000000" stroke-width="5.53" stroke-linejoin="bevel" points="70.866,1424.78 4137.61,1424.78"/>
<polyline class="StaffLines" fill="none" stroke="#000000" stroke-width="5.53" stroke-linejoin="bevel" points="70.866,1475.1 4137.61,1475.1"/>
<polyline class="StaffLines" fill="none" stroke="#000000" stroke-width="5.53" stroke-linejoin="bevel" points="70.866,2124.6 4137.61,2124.6"/>
<polyline class="StaffLines" fill="none" stroke="#000000" stroke-width="5.53" stroke-linejoin="bevel" points="70.866,2174.92 4137.61,2174.92"/>
<polyline class="StaffLines" fill="none" stroke="#000000" stroke-width="5.53" stroke-linejoin="bevel" points="70.866,2225.23 4137.61,2225.23"/>
<polyline class="StaffLines" fill="none" stroke="#000000" stroke-width="5.53" stroke-linejoin="bevel" points="70.866,2275.55 4137.61,2275.55"/>
<polyline class="StaffLines" fill="none" stroke="#000000" stroke-width="5.53" stroke-linejoin="bevel" points="70.866,2325.86 4137.61,2325.86"/>
<path class="MeasureNumber" d="M90.556,1145.05 C88.436,1145.29 85.836,1145.45 83.596,1145.45 C82.476,1145.45 81.196,1145.41 79.756,1145.33 C78.436,1145.25 77.116,1145.17 75.756,1145.09 L74.756,1145.05 L70.876,1153.49 L72.356,1153.97 L73.316,1152.37 C75.196,1149.25 76.076,1148.81 80.156,1148.85 L86.916,1148.85 L82.556,1155.09 C77.436,1162.29 77.436,1162.29 75.476,1165.49 C73.716,1168.33 72.996,1170.09 72.996,1171.53 C72.996,1172.93 73.876,1173.81 75.276,1173.81 C76.756,1173.81 77.516,1173.09 78.036,1171.21 C80.036,1163.69 81.236,1161.09 86.796,1152.09 L90.556,1146.25 L90.556,1145.05 "/>
<path class="MeasureNumber" d="M87.226,1995.65 L86.066,1995.65 C83.866,1997.29 79.626,1998.69 76.746,1998.69 L76.266,2000.45 L79.026,2000.45 C81.466,2000.45 81.746,2000.53 81.746,2001.25 C81.746,2001.61 81.746,2001.61 81.346,2003.05 L77.066,2019.05 C76.546,2021.05 76.506,2021.17 76.146,2021.53 C75.746,2021.93 74.906,2022.05 72.786,2022.09 L71.066,2022.09 L70.866,2023.97 L85.666,2023.97 L85.906,2022.09 L83.746,2022.09 C81.146,2022.09 80.586,2021.89 80.586,2021.01 C80.586,2020.73 80.746,2019.81 80.946,2019.05 L87.226,1995.65 M104.7,2009.41 C106.58,2008.81 107.34,2008.49 108.3,2007.85 C110.18,2006.61 111.34,2004.41 111.34,2002.17 C111.34,1998.37 108.3,1995.81 103.82,1995.81 C99.4604,1995.81 95.7804,1998.53 95.7804,2001.81 C95.7804,2003.45 96.7804,2004.57 98.3004,2004.57 C99.6204,2004.57 100.58,2003.61 100.58,2002.29 C100.58,2001.61 100.38,2001.13 99.7404,2000.49 C99.3404,2000.13 99.1804,1999.85 99.1804,1999.57 C99.1804,1998.61 101.18,1997.61 103.06,1997.61 C105.74,1997.61 107.34,1999.09 107.34,2001.57 C107.34,2005.13 104.82,2008.49 102.14,2008.49 C102.02,2008.49 101.66,2008.45 101.22,2008.41 C100.06,2008.33 100.06,2008.33 99.8204,2008.33 C98.9404,2008.33 98.4604,2008.73 98.4604,2009.45 C98.4604,2010.09 98.9004,2010.49 99.6204,2010.49 C99.8204,2010.49 100.1,2010.45 100.42,2010.41 C100.98,2010.29 101.58,2010.25 101.94,2010.25 C103.82,2010.25 105.1,2011.93 105.1,2014.41 C105.1,2016.33 104.66,2018.17 103.78,2019.69 C102.58,2021.85 100.74,2022.89 98.1404,2022.89 C95.9004,2022.89 93.9804,2021.77 93.9804,2020.49 C93.9804,2020.05 94.1404,2019.89 94.7804,2019.61 C95.9404,2019.09 96.4204,2018.37 96.4204,2017.29 C96.4204,2015.89 95.3004,2014.81 93.8604,2014.81 C92.1404,2014.81 91.0204,2016.17 91.0204,2018.25 C91.0204,2022.13 93.9804,2024.57 98.7804,2024.57 C104.82,2024.57 109.42,2020.53 109.42,2015.17 C109.42,2013.73 108.98,2012.49 108.14,2011.49 C107.26,2010.45 106.46,2009.97 104.7,2009.41"/>
<path class="TieSegment" stroke="#000000" stroke-width="3.52" stroke-linecap="round" stroke-linejoin="round" fill-rule="evenodd" d="M3263.46,2134.57 C3315.82,2087.73 3472.92,2087.73 3525.28,2134.57 C3472.92,2101.82 3315.82,2101.82 3263.46,2134.57"/>
<path class="TieSegment" stroke="#000000" stroke-width="3.52" stroke-linecap="round" stroke-linejoin="round" fill-rule="evenodd" d="M3544.9,2129.15 C3587.74,2089.54 3716.26,2089.54 3759.1,2129.15 C3716.26,2103.63 3587.74,2103.63 3544.9,2129.15"/>
<polyline class="BarLine" stroke="#000000" stroke-width="9.06" stroke-linejoin="bevel" points="890.959,420.303 890.959,627.098"/>
<polyline class="BarLine" stroke="#000000" stroke-width="9.06" stroke-linejoin="bevel" points="1556.76,420.303 1556.76,627.098"/>
<polyline class="BarLine" stroke="#000000" stroke-width="9.06" stroke-linejoin="bevel" points="2175.98,420.303 2175.98,627.098"/>
<polyline class="BarLine" stroke="#000000" stroke-width="9.06" stroke-linejoin="bevel" points="2964.49,420.303 2964.49,627.098"/>
<polyline class="BarLine" stroke="#000000" stroke-width="9.06" stroke-linejoin="bevel" points="3467.28,420.303 3467.28,627.098"/>
<polyline class="BarLine" stroke="#000000" stroke-width="9.06" stroke-linejoin="bevel" points="4133.08,420.303 4133.08,627.098"/>
<polyline class="BarLine" stroke="#000000" stroke-width="9.06" stroke-linejoin="bevel" points="873.824,1271.07 873.824,1477.86"/>
<polyline class="BarLine" stroke="#000000" stroke-width="9.06" stroke-linejoin="bevel" points="1621.18,1271.07 1621.18,1477.86"/>
<polyline class="BarLine" stroke="#000000" stroke-width="9.06" stroke-linejoin="bevel" points="2082.83,1271.07 2082.83,1477.86"/>
<polyline class="BarLine" stroke="#000000" stroke-width="9.06" stroke-linejoin="bevel" points="2751.97,1271.07 2751.97,1477.86"/>
<polyline class="BarLine" stroke="#000000" stroke-width="9.06" stroke-linejoin="bevel" points="3330.05,1271.07 3330.05,1477.86"/>
<polyline class="BarLine" stroke="#000000" stroke-width="9.06" stroke-linejoin="bevel" points="4133.08,1271.07 4133.08,1477.86"/>
<polyline class="BarLine" stroke="#000000" stroke-width="9.06" stroke-linejoin="bevel" points="823.16,2121.83 823.16,2328.63"/>
<polyline class="BarLine" stroke="#000000" stroke-width="9.06" stroke-linejoin="bevel" points="1655.2,2121.83 1655.2,2328.63"/>
<polyline class="BarLine" stroke="#000000" stroke-width="9.06" stroke-linejoin="bevel" points="2321.49,2121.83 2321.49,2328.63"/>
<polyline class="BarLine" stroke="#000000" stroke-width="9.06" stroke-linejoin="bevel" points="3135.92,2121.83 3135.92,2328.63"/>
<polyline class="BarLine" stroke="#000000" stroke-width="9.06" stroke-linejoin="bevel" points="3651.18,2121.83 3651.18,2328.63"/>
<polyline class="BarLine" stroke="#000000" stroke-width="9.06" stroke-linejoin="bevel" points="4088.55,2121.83 4088.55,2328.63"/>
<polyline class="BarLine" stroke="#000000" stroke-width="27.67" stroke-linejoin="bevel" points="4123.77,2121.83 4123.77,2328.63"/>
<path class="Accidental" transform="matrix(2.0126,0,0,2.0126,954.356,423.071)" d="M23.3,-10.6 C23.9,-10.7 24.4,-11.4 24.4,-12 L24.4,-17.9 C24.4,-18.7 23.8,-19.3 23,-19.3 L22.8,-19.3 L19.5,-18.6 L19.5,-33.5 L16.7,-33.5 L16.7,-18 L7.8,-16.2 L7.8,-30.3 L5,-30.3 L5,-15.6 L1.1,-14.8 C0.5,-14.7 0,-14 0,-13.4 L0,-13.2 L0,-7.4 L0,-7.6 C0,-6.8 0.6,-6.2 1.4,-6.2 L1.7,-6.2 L5,-6.9 L5,9.6 L1.1,10.4 C0.5,10.5 0,11.2 0,11.8 L0,17.6 C0,18.4 0.6,19 1.4,19 L1.7,19 L5,18.3 L5,33.2 L7.8,33.2 L7.8,17.7 L16.7,15.9 L16.7,30 L19.5,30 L19.5,15.3 L23.3,14.6 C23.9,14.5 24.4,13.8 24.4,13.2 L24.4,7.3 C24.4,6.5 23.8,5.9 23,5.9 L22.8,5.9 L19.5,6.6 L19.5,-9.9 L23.3,-10.6 M7.8,9.1 L7.8,-7.5 L16.7,-9.3 L16.7,7.2 L7.8,9.1 "/>
<path class="Accidental" transform="matrix(2.0126,0,0,2.0126,2421.02,423.071)" d="M23.3,-10.6 C23.9,-10.7 24.4,-11.4 24.4,-12 L24.4,-17.9 C24.4,-18.7 23.8,-19.3 23,-19.3 L22.8,-19.3 L19.5,-18.6 L19.5,-33.5 L16.7,-33.5 L16.7,-18 L7.8,-16.2 L7.8,-30.3 L5,-30.3 L5,-15.6 L1.1,-14.8 C0.5,-14.7 0,-14 0,-13.4 L0,-13.2 L0,-7.4 L0,-7.6 C0,-6.8 0.6,-6.2 1.4,-6.2 L1.7,-6.2 L5,-6.9 L5,9.6 L1.1,10.4 C0.5,10.5 0,11.2 0,11.8 L0,17.6 C0,18.4 0.6,19 1.4,19 L1.7,19 L5,18.3 L5,33.2 L7.8,33.2 L7.8,17.7 L16.7,15.9 L16.7,30 L19.5,30 L19.5,15.3 L23.3,14.6 C23.9,14.5 24.4,13.8 24.4,13.2 L24.4,7.3 C24.4,6.5 23.8,5.9 23,5.9 L22.8,5.9 L19.5,6.6 L19.5,-9.9 L23.3,-10.6 M7.8,9.1 L7.8,-7.5 L16.7,-9.3 L16.7,7.2 L7.8,9.1 "/>
<path class="Accidental" transform="matrix(2.0126,0,0,2.0126,3027.88,423.071)" d="M23.3,-10.6 C23.9,-10.7 24.4,-11.4 24.4,-12 L24.4,-17.9 C24.4,-18.7 23.8,-19.3 23,-19.3 L22.8,-19.3 L19.5,-18.6 L19.5,-33.5 L16.7,-33.5 L16.7,-18 L7.8,-16.2 L7.8,-30.3 L5,-30.3 L5,-15.6 L1.1,-14.8 C0.5,-14.7 0,-14 0,-13.4 L0,-13.2 L0,-7.4 L0,-7.6 C0,-6.8 0.6,-6.2 1.4,-6.2 L1.7,-6.2 L5,-6.9 L5,9.6 L1.1,10.4 C0.5,10.5 0,11.2 0,11.8 L0,17.6 C0,18.4 0.6,19 1.4,19 L1.7,19 L5,18.3 L5,33.2 L7.8,33.2 L7.8,17.7 L16.7,15.9 L16.7,30 L19.5,30 L19.5,15.3 L23.3,14.6 C23.9,14.5 24.4,13.8 24.4,13.2 L24.4,7.3 C24.4,6.5 23.8,5.9 23,5.9 L22.8,5.9 L19.5,6.6 L19.5,-9.9 L23.3,-10.6 M7.8,9.1 L7.8,-7.5 L16.7,-9.3 L16.7,7.2 L7.8,9.1 "/>
<path class="Accidental" transform="matrix(2.0126,0,0,2.0126,3530.68,423.071)" d="M23.3,-10.6 C23.9,-10.7 24.4,-11.4 24.4,-12 L24.4,-17.9 C24.4,-18.7 23.8,-19.3 23,-19.3 L22.8,-19.3 L19.5,-18.6 L19.5,-33.5 L16.7,-33.5 L16.7,-18 L7.8,-16.2 L7.8,-30.3 L5,-30.3 L5,-15.6 L1.1,-14.8 C0.5,-14.7 0,-14 0,-13.4 L0,-13.2 L0,-7.4 L0,-7.6 C0,-6.8 0.6,-6.2 1.4,-6.2 L1.7,-6.2 L5,-6.9 L5,9.6 L1.1,10.4 C0.5,10.5 0,11.2 0,11.8 L0,17.6 C0,18.4 0.6,19 1.4,19 L1.7,19 L5,18.3 L5,33.2 L7.8,33.2 L7.8,17.7 L16.7,15.9 L16.7,30 L19.5,30 L19.5,15.3 L23.3,14.6 C23.9,14.5 24.4,13.8 24.4,13.2 L24.4,7.3 C24.4,6.5 23.8,5.9 23,5.9 L22.8,5.9 L19.5,6.6 L19.5,-9.9 L23.3,-10.6 M7.8,9.1 L7.8,-7.5 L16.7,-9.3 L16.7,7.2 L7.8,9.1 "/>
<path class="Accidental" transform="matrix(2.0126,0,0,2.0126,1105.82,1273.84)" d="M23.3,-10.6 C23.9,-10.7 24.4,-11.4 24.4,-12 L24.4,-17.9 C24.4,-18.7 23.8,-19.3 23,-19.3 L22.8,-19.3 L19.5,-18.6 L19.5,-33.5 L16.7,-33.5 L16.7,-18 L7.8,-16.2 L7.8,-30.3 L5,-30.3 L5,-15.6 L1.1,-14.8 C0.5,-14.7 0,-14 0,-13.4 L0,-13.2 L0,-7.4 L0,-7.6 C0,-6.8 0.6,-6.2 1.4,-6.2 L1.7,-6.2 L5,-6.9 L5,9.6 L1.1,10.4 C0.5,10.5 0,11.2 0,11.8 L0,17.6 C0,18.4 0.6,19 1.4,19 L1.7,19 L5,18.3 L5,33.2 L7.8,33.2 L7.8,17.7 L16.7,15.9 L16.7,30 L19.5,30 L19.5,15.3 L23.3,14.6 C23.9,14.5 24.4,13.8 24.4,13.2 L24.4,7.3 C24.4,6.5 23.8,5.9 23,5.9 L22.8,5.9 L19.5,6.6 L19.5,-9.9 L23.3,-10.6 M7.8,9.1 L7.8,-7.5 L16.7,-9.3 L16.7,7.2 L7.8,9.1 "/>
<path class="Accidental" transform="matrix(2.0126,0,0,2.0126,1684.58,1273.84)" d="M23.3,-10.6 C23.9,-10.7 24.4,-11.4 24.4,-12 L24.4,-17.9 C24.4,-18.7 23.8,-19.3 23,-19.3 L22.8,-19.3 L19.5,-18.6 L19.5,-33.5 L16.7,-33.5 L16.7,-18 L7.8,-16.2 L7.8,-30.3 L5,-30.3 L5,-15.6 L1.1,-14.8 C0.5,-14.7 0,-14 0,-13.4 L0,-13.2 L0,-7.4 L0,-7.6 C0,-6.8 0.6,-6.2 1.4,-6.2 L1.7,-6.2 L5,-6.9 L5,9.6 L1.1,10.4 C0.5,10.5 0,11.2 0,11.8 L0,17.6 C0,18.4 0.6,19 1.4,19 L1.7,19 L5,18.3 L5,33.2 L7.8,33.2 L7.8,17.7 L16.7,15.9 L16.7,30 L19.5,30 L19.5,15.3 L23.3,14.6 C23.9,14.5 24.4,13.8 24.4,13.2 L24.4,7.3 C24.4,6.5 23.8,5.9 23,5.9 L22.8,5.9 L19.5,6.6 L19.5,-9.9 L23.3,-10.6 M7.8,9.1 L7.8,-7.5 L16.7,-9.3 L16.7,7.2 L7.8,9.1 "/>
<path class="Accidental" transform="matrix(2.0126,0,0,2.0126,3710.32,1173.21)" d="M23.3,-10.6 C23.9,-10.7 24.4,-11.4 24.4,-12 L24.4,-17.9 C24.4,-18.7 23.8,-19.3 23,-19.3 L22.8,-19.3 L19.5,-18.6 L19.5,-33.5 L16.7,-33.5 L16.7,-18 L7.8,-16.2 L7.8,-30.3 L5,-30.3 L5,-15.6 L1.1,-14.8 C0.5,-14.7 0,-14 0,-13.4 L0,-13.2 L0,-7.4 L0,-7.6 C0,-6.8 0.6,-6.2 1.4,-6.2 L1.7,-6.2 L5,-6.9 L5,9.6 L1.1,10.4 C0.5,10.5 0,11.2 0,11.8 L0,17.6 C0,18.4 0.6,19 1.4,19 L1.7,19 L5,18.3 L5,33.2 L7.8,33.2 L7.8,17.7 L16.7,15.9 L16.7,30 L19.5,30 L19.5,15.3 L23.3,14.6 C23.9,14.5 24.4,13.8 24.4,13.2 L24.4,7.3 C24.4,6.5 23.8,5.9 23,5.9 L22.8,5.9 L19.5,6.6 L19.5,-9.9 L23.3,-10.6 M7.8,9.1 L7.8,-7.5 L16.7,-9.3 L16.7,7.2 L7.8,9.1 "/>
<path class="Accidental" transform="matrix(2.0126,0,0,2.0126,1094.04,2124.6)" d="M23.3,-10.6 C23.9,-10.7 24.4,-11.4 24.4,-12 L24.4,-17.9 C24.4,-18.7 23.8,-19.3 23,-19.3 L22.8,-19.3 L19.5,-18.6 L19.5,-33.5 L16.7,-33.5 L16.7,-18 L7.8,-16.2 L7.8,-30.3 L5,-30.3 L5,-15.6 L1.1,-14.8 C0.5,-14.7 0,-14 0,-13.4 L0,-13.2 L0,-7.4 L0,-7.6 C0,-6.8 0.6,-6.2 1.4,-6.2 L1.7,-6.2 L5,-6.9 L5,9.6 L1.1,10.4 C0.5,10.5 0,11.2 0,11.8 L0,17.6 C0,18.4 0.6,19 1.4,19 L1.7,19 L5,18.3 L5,33.2 L7.8,33.2 L7.8,17.7 L16.7,15.9 L16.7,30 L19.5,30 L19.5,15.3 L23.3,14.6 C23.9,14.5 24.4,13.8 24.4,13.2 L24.4,7.3 C24.4,6.5 23.8,5.9 23,5.9 L22.8,5.9 L19.5,6.6 L19.5,-9.9 L23.3,-10.6 M7.8,9.1 L7.8,-7.5 L16.7,-9.3 L16.7,7.2 L7.8,9.1 "/>
<path class="Accidental" transform="matrix(2.0126,0,0,2.0126,2574.75,2124.6)" d="M23.3,-10.6 C23.9,-10.7 24.4,-11.4 24.4,-12 L24.4,-17.9 C24.4,-18.7 23.8,-19.3 23,-19.3 L22.8,-19.3 L19.5,-18.6 L19.5,-33.5 L16.7,-33.5 L16.7,-18 L7.8,-16.2 L7.8,-30.3 L5,-30.3 L5,-15.6 L1.1,-14.8 C0.5,-14.7 0,-14 0,-13.4 L0,-13.2 L0,-7.4 L0,-7.6 C0,-6.8 0.6,-6.2 1.4,-6.2 L1.7,-6.2 L5,-6.9 L5,9.6 L1.1,10.4 C0.5,10.5 0,11.2 0,11.8 L0,17.6 C0,18.4 0.6,19 1.4,19 L1.7,19 L5,18.3 L5,33.2 L7.8,33.2 L7.8,17.7 L16.7,15.9 L16.7,30 L19.5,30 L19.5,15.3 L23.3,14.6 C23.9,14.5 24.4,13.8 24.4,13.2 L24.4,7.3 C24.4,6.5 23.8,5.9 23,5.9 L22.8,5.9 L19.5,6.6 L19.5,-9.9 L23.3,-10.6 M7.8,9.1 L7.8,-7.5 L16.7,-9.3 L16.7,7.2 L7.8,9.1 "/>
<polyline class="LedgerLine" stroke="#000000" stroke-width="8.05" stroke-linejoin="bevel" points="1641.79,372.756 1742.4,372.756"/>
<polyline class="LedgerLine" stroke="#000000" stroke-width="8.05" stroke-linejoin="bevel" points="1869.37,372.756 1969.98,372.756"/>
<polyline class="LedgerLine" stroke="#000000" stroke-width="8.05" stroke-linejoin="bevel" points="2011.61,372.756 2112.22,372.756"/>
<polyline class="LedgerLine" stroke="#000000" stroke-width="8.05" stroke-linejoin="bevel" points="2760.54,372.756 2861.15,372.756"/>
<polyline class="LedgerLine" stroke="#000000" stroke-width="8.05" stroke-linejoin="bevel" points="380.775,1223.52 481.389,1223.52"/>
<polyline class="LedgerLine" stroke="#000000" stroke-width="8.05" stroke-linejoin="bevel" points="583.879,1223.52 684.494,1223.52"/>
<polyline class="LedgerLine" stroke="#000000" stroke-width="8.05" stroke-linejoin="bevel" points="710.82,1223.52 811.434,1223.52"/>
<polyline class="LedgerLine" stroke="#000000" stroke-width="8.05" stroke-linejoin="bevel" points="1427.94,1223.52 1528.55,1223.52"/>
<polyline class="LedgerLine" stroke="#000000" stroke-width="8.05" stroke-linejoin="bevel" points="2295.15,1223.52 2395.76,1223.52"/>
<polyline class="LedgerLine" stroke="#000000" stroke-width="8.05" stroke-linejoin="bevel" points="2440.04,1223.52 2540.66,1223.52"/>
<polyline class="LedgerLine" stroke="#000000" stroke-width="8.05" stroke-linejoin="bevel" points="2584.94,1223.52 2685.55,1223.52"/>
<polyline class="LedgerLine" stroke="#000000" stroke-width="8.05" stroke-linejoin="bevel" points="2837,1223.52 2937.61,1223.52"/>
<polyline class="LedgerLine" stroke="#000000" stroke-width="8.05" stroke-linejoin="bevel" points="3040.1,1223.52 3140.72,1223.52"/>
<polyline class="LedgerLine" stroke="#000000" stroke-width="8.05" stroke-linejoin="bevel" points="3167.05,1223.52 3267.66,1223.52"/>
<polyline class="LedgerLine" stroke="#000000" stroke-width="8.05" stroke-linejoin="bevel" points="3415.08,1223.52 3515.7,1223.52"/>
<polyline class="LedgerLine" stroke="#000000" stroke-width="8.05" stroke-linejoin="bevel" points="3584.55,1223.52 3685.16,1223.52"/>
<polyline class="LedgerLine" stroke="#000000" stroke-width="8.05" stroke-linejoin="bevel" points="3584.55,1173.21 3685.16,1173.21"/>
<polyline class="LedgerLine" stroke="#000000" stroke-width="8.05" stroke-linejoin="bevel" points="3772,1223.52 3872.62,1223.52"/>
<polyline class="LedgerLine" stroke="#000000" stroke-width="8.05" stroke-linejoin="bevel" points="3772,1173.21 3872.62,1173.21"/>
<polyline class="LedgerLine" stroke="#000000" stroke-width="8.05" stroke-linejoin="bevel" points="3941.47,1223.52 4042.09,1223.52"/>
<polyline class="LedgerLine" stroke="#000000" stroke-width="8.05" stroke-linejoin="bevel" points="380.775,2074.29 481.389,2074.29"/>
<polyline class="LedgerLine" stroke="#000000" stroke-width="8.05" stroke-linejoin="bevel" points="658.612,2074.29 759.226,2074.29"/>
<polyline class="LedgerLine" stroke="#000000" stroke-width="8.05" stroke-linejoin="bevel" points="908.192,2074.29 1008.81,2074.29"/>
<polyline class="LedgerLine" stroke="#000000" stroke-width="8.05" stroke-linejoin="bevel" points="908.192,2023.97 1008.81,2023.97"/>
<polyline class="LedgerLine" stroke="#000000" stroke-width="8.05" stroke-linejoin="bevel" points="1740.24,2074.29 1840.85,2074.29"/>
<polyline class="LedgerLine" stroke="#000000" stroke-width="8.05" stroke-linejoin="bevel" points="1988.73,2074.29 2089.35,2074.29"/>
<polyline class="LedgerLine" stroke="#000000" stroke-width="8.05" stroke-linejoin="bevel" points="2144.04,2074.29 2244.66,2074.29"/>
<polyline class="Stem" stroke="#000000" stroke-width="5.53" stroke-linejoin="bevel" points="748.332,480.148 748.332,643.199"/>
<polyline class="Stem" stroke="#000000" stroke-width="5.53" stroke-linejoin="bevel" points="1018.81,429.833 1018.81,599.173"/>
<polyline class="Stem" stroke="#000000" stroke-width="5.53" stroke-linejoin="bevel" points="1150.58,454.991 1150.58,624.331"/>
<polyline class="Stem" stroke="#000000" stroke-width="5.53" stroke-linejoin="bevel" points="1282.35,429.833 1282.35,599.173"/>
<polyline class="Stem" stroke="#000000" stroke-width="5.53" stroke-linejoin="bevel" points="1414.13,404.676 1414.13,574.016"/>
<polyline class="Stem" stroke="#000000" stroke-width="5.53" stroke-linejoin="bevel" points="1662.17,379.518 1662.17,548.858"/>
<polyline class="Stem" stroke="#000000" stroke-width="5.53" stroke-linejoin="bevel" points="1889.75,379.518 1889.75,548.858"/>
<polyline class="Stem" stroke="#000000" stroke-width="5.53" stroke-linejoin="bevel" points="2031.98,379.518 2031.98,548.858"/>
<polyline class="Stem" stroke="#000000" stroke-width="5.53" stroke-linejoin="bevel" points="2263.78,404.676 2263.78,574.016"/>
<polyline class="Stem" stroke="#000000" stroke-width="5.53" stroke-linejoin="bevel" points="2485.47,429.833 2485.47,599.173"/>
<polyline class="Stem" stroke="#000000" stroke-width="5.53" stroke-linejoin="bevel" points="2599.11,404.676 2599.11,574.016"/>
<polyline class="Stem" stroke="#000000" stroke-width="5.53" stroke-linejoin="bevel" points="2780.92,379.518 2780.92,548.858"/>
<polyline class="Stem" stroke="#000000" stroke-width="5.53" stroke-linejoin="bevel" points="3092.33,429.833 3092.33,599.173"/>
<polyline class="Stem" stroke="#000000" stroke-width="5.53" stroke-linejoin="bevel" points="3324.65,480.148 3324.65,643.199"/>
<polyline class="Stem" stroke="#000000" stroke-width="5.53" stroke-linejoin="bevel" points="3595.13,429.833 3595.13,599.173"/>
<polyline class="Stem" stroke="#000000" stroke-width="5.53" stroke-linejoin="bevel" points="3726.9,454.991 3726.9,624.331"/>
<polyline class="Stem" stroke="#000000" stroke-width="5.53" stroke-linejoin="bevel" points="3858.68,429.833 3858.68,599.173"/>
<polyline class="Stem" stroke="#000000" stroke-width="5.53" stroke-linejoin="bevel" points="3990.45,404.676 3990.45,574.016"/>
<polyline class="Stem" stroke="#000000" stroke-width="5.53" stroke-linejoin="bevel" points="401.152,1230.28 401.152,1399.62"/>
<polyline class="Stem" stroke="#000000" stroke-width="5.53" stroke-linejoin="bevel" points="604.257,1230.28 604.257,1399.62"/>
<polyline class="Stem" stroke="#000000" stroke-width="5.53" stroke-linejoin="bevel" points="731.197,1230.28 731.197,1399.62"/>
<polyline class="Stem" stroke="#000000" stroke-width="5.53" stroke-linejoin="bevel" points="961.624,1255.44 961.624,1424.78"/>
<polyline class="Stem" stroke="#000000" stroke-width="5.53" stroke-linejoin="bevel" points="1170.27,1280.6 1170.27,1449.94"/>
<polyline class="Stem" stroke="#000000" stroke-width="5.53" stroke-linejoin="bevel" points="1277.21,1255.44 1277.21,1424.78"/>
<polyline class="Stem" stroke="#000000" stroke-width="5.53" stroke-linejoin="bevel" points="1448.32,1230.28 1448.32,1399.62"/>
<polyline class="Stem" stroke="#000000" stroke-width="5.53" stroke-linejoin="bevel" points="1749.03,1280.6 1749.03,1449.94"/>
<polyline class="Stem" stroke="#000000" stroke-width="5.53" stroke-linejoin="bevel" points="1940.21,1330.91 1940.21,1493.96"/>
<polyline class="Stem" stroke="#000000" stroke-width="5.53" stroke-linejoin="bevel" points="2170.63,1330.91 2170.63,1493.96"/>
<polyline class="Stem" stroke="#000000" stroke-width="5.53" stroke-linejoin="bevel" points="2315.53,1205.13 2315.53,1374.47"/>
<polyline class="Stem" stroke="#000000" stroke-width="5.53" stroke-linejoin="bevel" points="2460.42,1205.13 2460.42,1374.47"/>
<polyline class="Stem" stroke="#000000" stroke-width="5.53" stroke-linejoin="bevel" points="2605.31,1205.13 2605.31,1374.47"/>
<polyline class="Stem" stroke="#000000" stroke-width="5.53" stroke-linejoin="bevel" points="2857.38,1205.13 2857.38,1374.47"/>
<polyline class="Stem" stroke="#000000" stroke-width="5.53" stroke-linejoin="bevel" points="3060.48,1205.13 3060.48,1374.47"/>
<polyline class="Stem" stroke="#000000" stroke-width="5.53" stroke-linejoin="bevel" points="3187.42,1205.13 3187.42,1374.47"/>
<polyline class="Stem" stroke="#000000" stroke-width="5.53" stroke-linejoin="bevel" points="3435.46,1205.13 3435.46,1374.47"/>
<polyline class="Stem" stroke="#000000" stroke-width="5.53" stroke-linejoin="bevel" points="3604.93,1154.81 3604.93,1374.47"/>
<polyline class="Stem" stroke="#000000" stroke-width="5.53" stroke-linejoin="bevel" points="3792.38,1179.97 3792.38,1374.47"/>
<polyline class="Stem" stroke="#000000" stroke-width="5.53" stroke-linejoin="bevel" points="3961.85,1205.13 3961.85,1374.47"/>
<polyline class="Stem" stroke="#000000" stroke-width="5.53" stroke-linejoin="bevel" points="401.152,2081.05 401.152,2250.39"/>
<polyline class="Stem" stroke="#000000" stroke-width="5.53" stroke-linejoin="bevel" points="678.99,2081.05 678.99,2250.39"/>
<polyline class="Stem" stroke="#000000" stroke-width="5.53" stroke-linejoin="bevel" points="928.57,2005.58 928.57,2225.23"/>
<polyline class="Stem" stroke="#000000" stroke-width="5.53" stroke-linejoin="bevel" points="1158.49,2131.36 1158.49,2300.7"/>
<polyline class="Stem" stroke="#000000" stroke-width="5.53" stroke-linejoin="bevel" points="1276.33,2131.36 1276.33,2300.7"/>
<polyline class="Stem" stroke="#000000" stroke-width="5.53" stroke-linejoin="bevel" points="1464.89,2131.36 1464.89,2300.7"/>
<polyline class="Stem" stroke="#000000" stroke-width="5.53" stroke-linejoin="bevel" points="1760.61,2081.05 1760.61,2250.39"/>
<polyline class="Stem" stroke="#000000" stroke-width="5.53" stroke-linejoin="bevel" points="2009.11,2081.05 2009.11,2250.39"/>
<polyline class="Stem" stroke="#000000" stroke-width="5.53" stroke-linejoin="bevel" points="2164.42,2081.05 2164.42,2250.39"/>
<polyline class="Stem" stroke="#000000" stroke-width="5.53" stroke-linejoin="bevel" points="2409.29,2106.21 2409.29,2275.55"/>
<polyline class="Stem" stroke="#000000" stroke-width="5.53" stroke-linejoin="bevel" points="2639.21,2131.36 2639.21,2300.7"/>
<polyline class="Stem" stroke="#000000" stroke-width="5.53" stroke-linejoin="bevel" points="2757.05,2106.21 2757.05,2275.55"/>
<polyline class="Stem" stroke="#000000" stroke-width="5.53" stroke-linejoin="bevel" points="2945.61,2156.52 2945.61,2325.86"/>
<polyline class="Stem" stroke="#000000" stroke-width="5.53" stroke-linejoin="bevel" points="3223.72,2181.68 3223.72,2344.73"/>
<polyline class="Stem" stroke="#000000" stroke-width="5.53" stroke-linejoin="bevel" points="3505.16,2181.68 3505.16,2344.73"/>
<polyline class="Stem" stroke="#000000" stroke-width="5.53" stroke-linejoin="bevel" points="3738.98,2181.68 3738.98,2344.73"/>
<path class="Note" transform="matrix(2.0126,0,0,2.0126,745.565,473.386)" d="M31.5,-8.1 C29.7,-11.4 25.9,-13.2 21.3,-13.2 C17.9,-13.2 14.2,-12.2 10.6,-10.3 C4,-6.8 0,-0.9 0,4.2 C0,5.6 0.3,7 1,8.3 C2.8,11.6 6.6,13.3 11.2,13.3 C14.6,13.3 18.3,12.4 21.9,10.5 C28.5,7 32.5,1.1 32.5,-4 C32.5,-5.4 32.2,-6.8 31.5,-8.1"/>
<path class="Note" transform="matrix(2.0126,0,0,2.0126,1016.04,423.071)" d="M31.5,-8.1 C29.7,-11.4 25.9,-13.2 21.3,-13.2 C17.9,-13.2 14.2,-12.2 10.6,-10.3 C4,-6.8 0,-0.9 0,4.2 C0,5.6 0.3,7 1,8.3 C2.8,11.6 6.6,13.3 11.2,13.3 C14.6,13.3 18.3,12.4 21.9,10.5 C28.5,7 32.5,1.1 32.5,-4 C32.5,-5.4 32.2,-6.8 31.5,-8.1"/>
<path class="Note" transform="matrix(2.0126,0,0,2.0126,1147.81,448.228)" d="M31.5,-8.1 C29.7,-11.4 25.9,-13.2 21.3,-13.2 C17.9,-13.2 14.2,-12.2 10.6,-10.3 C4,-6.8 0,-0.9 0,4.2 C0,5.6 0.3,7 1,8.3 C2.8,11.6 6.6,13.3 11.2,13.3 C14.6,13.3 18.3,12.4 21.9,10.5 C28.5,7 32.5,1.1 32.5,-4 C32.5,-5.4 32.2,-6.8 31.5,-8.1"/>
<path class="Note" transform="matrix(2.0126,0,0,2.0126,1279.59,423.071)" d="M31.5,-8.1 C29.7,-11.4 25.9,-13.2 21.3,-13.2 C17.9,-13.2 14.2,-12.2 10.6,-10.3 C4,-6.8 0,-0.9 0,4.2 C0,5.6 0.3,7 1,8.3 C2.8,11.6 6.6,13.3 11.2,13.3 C14.6,13.3 18.3,12.4 21.9,10.5 C28.5,7 32.5,1.1 32.5,-4 C32.5,-5.4 32.2,-6.8 31.5,-8.1"/>
<path class="Note" transform="matrix(2.0126,0,0,2.0126,1411.36,397.913)" d="M31.5,-8.1 C29.7,-11.4 25.9,-13.2 21.3,-13.2 C17.9,-13.2 14.2,-12.2 10.6,-10.3 C4,-6.8 0,-0.9 0,4.2 C0,5.6 0.3,7 1,8.3 C2.8,11.6 6.6,13.3 11.2,13.3 C14.6,13.3 18.3,12.4 21.9,10.5 C28.5,7 32.5,1.1 32.5,-4 C32.5,-5.4 32.2,-6.8 31.5,-8.1"/>
<path class="Note" transform="matrix(2.0126,0,0,2.0126,1659.4,372.756)" d="M31.5,-8.1 C29.7,-11.4 25.9,-13.2 21.3,-13.2 C17.9,-13.2 14.2,-12.2 10.6,-10.3 C4,-6.8 0,-0.9 0,4.2 C0,5.6 0.3,7 1,8.3 C2.8,11.6 6.6,13.3 11.2,13.3 C14.6,13.3 18.3,12.4 21.9,10.5 C28.5,7 32.5,1.1 32.5,-4 C32.5,-5.4 32.2,-6.8 31.5,-8.1 M27.2,-1.3 C25.5,0.4 22.1,2.5 18.5,4.5 C14.9,6.5 11.3,8 8.9,8.5 C8.4,8.6 7.9,8.7 7.4,8.7 C5.8,8.7 4.6,8.1 3.9,6.8 C3.6,6.3 3.4,5.7 3.4,5.1 C3.4,4 4.1,2.7 5.2,1.6 C6.9,-0.1 10.2,-2.2 13.8,-4.2 C17.4,-6.2 21,-7.7 23.4,-8.2 C23.9,-8.3 24.4,-8.4 24.9,-8.4 C26.5,-8.4 27.8,-7.8 28.5,-6.5 C28.8,-6 28.9,-5.4 28.9,-4.8 C28.9,-3.7 28.3,-2.5 27.2,-1.3"/>
<path class="Note" transform="matrix(2.0126,0,0,2.0126,1886.98,372.756)" d="M31.5,-8.1 C29.7,-11.4 25.9,-13.2 21.3,-13.2 C17.9,-13.2 14.2,-12.2 10.6,-10.3 C4,-6.8 0,-0.9 0,4.2 C0,5.6 0.3,7 1,8.3 C2.8,11.6 6.6,13.3 11.2,13.3 C14.6,13.3 18.3,12.4 21.9,10.5 C28.5,7 32.5,1.1 32.5,-4 C32.5,-5.4 32.2,-6.8 31.5,-8.1"/>
<path class="Note" transform="matrix(2.0126,0,0,2.0126,2029.22,372.756)" d="M31.5,-8.1 C29.7,-11.4 25.9,-13.2 21.3,-13.2 C17.9,-13.2 14.2,-12.2 10.6,-10.3 C4,-6.8 0,-0.9 0,4.2 C0,5.6 0.3,7 1,8.3 C2.8,11.6 6.6,13.3 11.2,13.3 C14.6,13.3 18.3,12.4 21.9,10.5 C28.5,7 32.5,1.1 32.5,-4 C32.5,-5.4 32.2,-6.8 31.5,-8.1"/>
<path class="Note" transform="matrix(2.0126,0,0,2.0126,2261.01,397.913)" d="M31.5,-8.1 C29.7,-11.4 25.9,-13.2 21.3,-13.2 C17.9,-13.2 14.2,-12.2 10.6,-10.3 C4,-6.8 0,-0.9 0,4.2 C0,5.6 0.3,7 1,8.3 C2.8,11.6 6.6,13.3 11.2,13.3 C14.6,13.3 18.3,12.4 21.9,10.5 C28.5,7 32.5,1.1 32.5,-4 C32.5,-5.4 32.2,-6.8 31.5,-8.1"/>
<path class="Note" transform="matrix(2.0126,0,0,2.0126,2482.71,423.071)" d="M31.5,-8.1 C29.7,-11.4 25.9,-13.2 21.3,-13.2 C17.9,-13.2 14.2,-12.2 10.6,-10.3 C4,-6.8 0,-0.9 0,4.2 C0,5.6 0.3,7 1,8.3 C2.8,11.6 6.6,13.3 11.2,13.3 C14.6,13.3 18.3,12.4 21.9,10.5 C28.5,7 32.5,1.1 32.5,-4 C32.5,-5.4 32.2,-6.8 31.5,-8.1"/>
<path class="Note" transform="matrix(2.0126,0,0,2.0126,2596.34,397.913)" d="M31.5,-8.1 C29.7,-11.4 25.9,-13.2 21.3,-13.2 C17.9,-13.2 14.2,-12.2 10.6,-10.3 C4,-6.8 0,-0.9 0,4.2 C0,5.6 0.3,7 1,8.3 C2.8,11.6 6.6,13.3 11.2,13.3 C14.6,13.3 18.3,12.4 21.9,10.5 C28.5,7 32.5,1.1 32.5,-4 C32.5,-5.4 32.2,-6.8 31.5,-8.1"/>
<path class="Note" transform="matrix(2.0126,0,0,2.0126,2778.15,372.756)" d="M31.5,-8.1 C29.7,-11.4 25.9,-13.2 21.3,-13.2 C17.9,-13.2 14.2,-12.2 10.6,-10.3 C4,-6.8 0,-0.9 0,4.2 C0,5.6 0.3,7 1,8.3 C2.8,11.6 6.6,13.3 11.2,13.3 C14.6,13.3 18.3,12.4 21.9,10.5 C28.5,7 32.5,1.1 32.5,-4 C32.5,-5.4 32.2,-6.8 31.5,-8.1"/>
<path class="Note" transform="matrix(2.0126,0,0,2.0126,3089.57,423.071)" d="M31.5,-8.1 C29.7,-11.4 25.9,-13.2 21.3,-13.2 C17.9,-13.2 14.2,-12.2 10.6,-10.3 C4,-6.8 0,-0.9 0,4.2 C0,5.6 0.3,7 1,8.3 C2.8,11.6 6.6,13.3 11.2,13.3 C14.6,13.3 18.3,12.4 21.9,10.5 C28.5,7 32.5,1.1 32.5,-4 C32.5,-5.4 32.2,-6.8 31.5,-8.1 M27.2,-1.3 C25.5,0.4 22.1,2.5 18.5,4.5 C14.9,6.5 11.3,8 8.9,8.5 C8.4,8.6 7.9,8.7 7.4,8.7 C5.8,8.7 4.6,8.1 3.9,6.8 C3.6,6.3 3.4,5.7 3.4,5.1 C3.4,4 4.1,2.7 5.2,1.6 C6.9,-0.1 10.2,-2.2 13.8,-4.2 C17.4,-6.2 21,-7.7 23.4,-8.2 C23.9,-8.3 24.4,-8.4 24.9,-8.4 C26.5,-8.4 27.8,-7.8 28.5,-6.5 C28.8,-6 28.9,-5.4 28.9,-4.8 C28.9,-3.7 28.3,-2.5 27.2,-1.3"/>
<path class="Note" transform="matrix(2.0126,0,0,2.0126,3321.89,473.386)" d="M31.5,-8.1 C29.7,-11.4 25.9,-13.2 21.3,-13.2 C17.9,-13.2 14.2,-12.2 10.6,-10.3 C4,-6.8 0,-0.9 0,4.2 C0,5.6 0.3,7 1,8.3 C2.8,11.6 6.6,13.3 11.2,13.3 C14.6,13.3 18.3,12.4 21.9,10.5 C28.5,7 32.5,1.1 32.5,-4 C32.5,-5.4 32.2,-6.8 31.5,-8.1"/>
<path class="Note" transform="matrix(2.0126,0,0,2.0126,3592.36,423.071)" d="M31.5,-8.1 C29.7,-11.4 25.9,-13.2 21.3,-13.2 C17.9,-13.2 14.2,-12.2 10.6,-10.3 C4,-6.8 0,-0.9 0,4.2 C0,5.6 0.3,7 1,8.3 C2.8,11.6 6.6,13.3 11.2,13.3 C14.6,13.3 18.3,12.4 21.9,10.5 C28.5,7 32.5,1.1 32.5,-4 C32.5,-5.4 32.2,-6.8 31.5,-8.1"/>
<path class="Note" transform="matrix(2.0126,0,0,2.0126,3724.14,448.228)" d="M31.5,-8.1 C29.7,-11.4 25.9,-13.2 21.3,-13.2 C17.9,-13.2 14.2,-12.2 10.6,-10.3 C4,-6.8 0,-0.9 0,4.2 C0,5.6 0.3,7 1,8.3 C2.8,11.6 6.6,13.3 11.2,13.3 C14.6,13.3 18.3,12.4 21.9,10.5 C28.5,7 32.5,1.1 32.5,-4 C32.5,-5.4 32.2,-6.8 31.5,-8.1"/>
<path class="Note" transform="matrix(2.0126,0,0,2.0126,3855.91,423.071)" d="M31.5,-8.1 C29.7,-11.4 25.9,-13.2 21.3,-13.2 C17.9,-13.2 14.2,-12.2 10.6,-10.3 C4,-6.8 0,-0.9 0,4.2 C0,5.6 0.3,7 1,8.3 C2.8,11.6 6.6,13.3 11.2,13.3 C14.6,13.3 18.3,12.4 21.9,10.5 C28.5,7 32.5,1.1 32.5,-4 C32.5,-5.4 32.2,-6.8 31.5,-8.1"/>
<path class="Note" transform="matrix(2.0126,0,0,2.0126,3987.68,397.913)" d="M31.5,-8.1 C29.7,-11.4 25.9,-13.2 21.3,-13.2 C17.9,-13.2 14.2,-12.2 10.6,-10.3 C4,-6.8 0,-0.9 0,4.2 C0,5.6 0.3,7 1,8.3 C2.8,11.6 6.6,13.3 11.2,13.3 C14.6,13.3 18.3,12.4 21.9,10.5 C28.5,7 32.5,1.1 32.5,-4 C32.5,-5.4 32.2,-6.8 31.5,-8.1"/>
<path class="Note" transform="matrix(2.0126,0,0,2.0126,398.385,1223.52)" d="M31.5,-8.1 C29.7,-11.4 25.9,-13.2 21.3,-13.2 C17.9,-13.2 14.2,-12.2 10.6,-10.3 C4,-6.8 0,-0.9 0,4.2 C0,5.6 0.3,7 1,8.3 C2.8,11.6 6.6,13.3 11.2,13.3 C14.6,13.3 18.3,12.4 21.9,10.5 C28.5,7 32.5,1.1 32.5,-4 C32.5,-5.4 32.2,-6.8 31.5,-8.1 M27.2,-1.3 C25.5,0.4 22.1,2.5 18.5,4.5 C14.9,6.5 11.3,8 8.9,8.5 C8.4,8.6 7.9,8.7 7.4,8.7 C5.8,8.7 4.6,8.1 3.9,6.8 C3.6,6.3 3.4,5.7 3.4,5.1 C3.4,4 4.1,2.7 5.2,1.6 C6.9,-0.1 10.2,-2.2 13.8,-4.2 C17.4,-6.2 21,-7.7 23.4,-8.2 C23.9,-8.3 24.4,-8.4 24.9,-8.4 C26.5,-8.4 27.8,-7.8 28.5,-6.5 C28.8,-6 28.9,-5.4 28.9,-4.8 C28.9,-3.7 28.3,-2.5 27.2,-1.3"/>
<path class="Note" transform="matrix(2.0126,0,0,2.0126,601.49,1223.52)" d="M31.5,-8.1 C29.7,-11.4 25.9,-13.2 21.3,-13.2 C17.9,-13.2 14.2,-12.2 10.6,-10.3 C4,-6.8 0,-0.9 0,4.2 C0,5.6 0.3,7 1,8.3 C2.8,11.6 6.6,13.3 11.2,13.3 C14.6,13.3 18.3,12.4 21.9,10.5 C28.5,7 32.5,1.1 32.5,-4 C32.5,-5.4 32.2,-6.8 31.5,-8.1"/>
<path class="Note" transform="matrix(2.0126,0,0,2.0126,728.43,1223.52)" d="M31.5,-8.1 C29.7,-11.4 25.9,-13.2 21.3,-13.2 C17.9,-13.2 14.2,-12.2 10.6,-10.3 C4,-6.8 0,-0.9 0,4.2 C0,5.6 0.3,7 1,8.3 C2.8,11.6 6.6,13.3 11.2,13.3 C14.6,13.3 18.3,12.4 21.9,10.5 C28.5,7 32.5,1.1 32.5,-4 C32.5,-5.4 32.2,-6.8 31.5,-8.1"/>
<path class="Note" transform="matrix(2.0126,0,0,2.0126,958.857,1248.68)" d="M31.5,-8.1 C29.7,-11.4 25.9,-13.2 21.3,-13.2 C17.9,-13.2 14.2,-12.2 10.6,-10.3 C4,-6.8 0,-0.9 0,4.2 C0,5.6 0.3,7 1,8.3 C2.8,11.6 6.6,13.3 11.2,13.3 C14.6,13.3 18.3,12.4 21.9,10.5 C28.5,7 32.5,1.1 32.5,-4 C32.5,-5.4 32.2,-6.8 31.5,-8.1"/>
<path class="Note" transform="matrix(2.0126,0,0,2.0126,1167.5,1273.84)" d="M31.5,-8.1 C29.7,-11.4 25.9,-13.2 21.3,-13.2 C17.9,-13.2 14.2,-12.2 10.6,-10.3 C4,-6.8 0,-0.9 0,4.2 C0,5.6 0.3,7 1,8.3 C2.8,11.6 6.6,13.3 11.2,13.3 C14.6,13.3 18.3,12.4 21.9,10.5 C28.5,7 32.5,1.1 32.5,-4 C32.5,-5.4 32.2,-6.8 31.5,-8.1"/>
<path class="Note" transform="matrix(2.0126,0,0,2.0126,1274.44,1248.68)" d="M31.5,-8.1 C29.7,-11.4 25.9,-13.2 21.3,-13.2 C17.9,-13.2 14.2,-12.2 10.6,-10.3 C4,-6.8 0,-0.9 0,4.2 C0,5.6 0.3,7 1,8.3 C2.8,11.6 6.6,13.3 11.2,13.3 C14.6,13.3 18.3,12.4 21.9,10.5 C28.5,7 32.5,1.1 32.5,-4 C32.5,-5.4 32.2,-6.8 31.5,-8.1"/>
<path class="Note" transform="matrix(2.0126,0,0,2.0126,1445.55,1223.52)" d="M31.5,-8.1 C29.7,-11.4 25.9,-13.2 21.3,-13.2 C17.9,-13.2 14.2,-12.2 10.6,-10.3 C4,-6.8 0,-0.9 0,4.2 C0,5.6 0.3,7 1,8.3 C2.8,11.6 6.6,13.3 11.2,13.3 C14.6,13.3 18.3,12.4 21.9,10.5 C28.5,7 32.5,1.1 32.5,-4 C32.5,-5.4 32.2,-6.8 31.5,-8.1"/>
<path class="Note" transform="matrix(2.0126,0,0,2.0126,1746.26,1273.84)" d="M31.5,-8.1 C29.7,-11.4 25.9,-13.2 21.3,-13.2 C17.9,-13.2 14.2,-12.2 10.6,-10.3 C4,-6.8 0,-0.9 0,4.2 C0,5.6 0.3,7 1,8.3 C2.8,11.6 6.6,13.3 11.2,13.3 C14.6,13.3 18.3,12.4 21.9,10.5 C28.5,7 32.5,1.1 32.5,-4 C32.5,-5.4 32.2,-6.8 31.5,-8.1 M27.2,-1.3 C25.5,0.4 22.1,2.5 18.5,4.5 C14.9,6.5 11.3,8 8.9,8.5 C8.4,8.6 7.9,8.7 7.4,8.7 C5.8,8.7 4.6,8.1 3.9,6.8 C3.6,6.3 3.4,5.7 3.4,5.1 C3.4,4 4.1,2.7 5.2,1.6 C6.9,-0.1 10.2,-2.2 13.8,-4.2 C17.4,-6.2 21,-7.7 23.4,-8.2 C23.9,-8.3 24.4,-8.4 24.9,-8.4 C26.5,-8.4 27.8,-7.8 28.5,-6.5 C28.8,-6 28.9,-5.4 28.9,-4.8 C28.9,-3.7 28.3,-2.5 27.2,-1.3"/>
<path class="Note" transform="matrix(2.0126,0,0,2.0126,1937.44,1324.15)" d="M31.5,-8.1 C29.7,-11.4 25.9,-13.2 21.3,-13.2 C17.9,-13.2 14.2,-12.2 10.6,-10.3 C4,-6.8 0,-0.9 0,4.2 C0,5.6 0.3,7 1,8.3 C2.8,11.6 6.6,13.3 11.2,13.3 C14.6,13.3 18.3,12.4 21.9,10.5 C28.5,7 32.5,1.1 32.5,-4 C32.5,-5.4 32.2,-6.8 31.5,-8.1"/>
<path class="Note" transform="matrix(2.0126,0,0,2.0126,2167.87,1324.15)" d="M31.5,-8.1 C29.7,-11.4 25.9,-13.2 21.3,-13.2 C17.9,-13.2 14.2,-12.2 10.6,-10.3 C4,-6.8 0,-0.9 0,4.2 C0,5.6 0.3,7 1,8.3 C2.8,11.6 6.6,13.3 11.2,13.3 C14.6,13.3 18.3,12.4 21.9,10.5 C28.5,7 32.5,1.1 32.5,-4 C32.5,-5.4 32.2,-6.8 31.5,-8.1"/>
<path class="Note" transform="matrix(2.0126,0,0,2.0126,2312.76,1198.36)" d="M31.5,-8.1 C29.7,-11.4 25.9,-13.2 21.3,-13.2 C17.9,-13.2 14.2,-12.2 10.6,-10.3 C4,-6.8 0,-0.9 0,4.2 C0,5.6 0.3,7 1,8.3 C2.8,11.6 6.6,13.3 11.2,13.3 C14.6,13.3 18.3,12.4 21.9,10.5 C28.5,7 32.5,1.1 32.5,-4 C32.5,-5.4 32.2,-6.8 31.5,-8.1"/>
<path class="Note" transform="matrix(2.0126,0,0,2.0126,2457.65,1198.36)" d="M31.5,-8.1 C29.7,-11.4 25.9,-13.2 21.3,-13.2 C17.9,-13.2 14.2,-12.2 10.6,-10.3 C4,-6.8 0,-0.9 0,4.2 C0,5.6 0.3,7 1,8.3 C2.8,11.6 6.6,13.3 11.2,13.3 C14.6,13.3 18.3,12.4 21.9,10.5 C28.5,7 32.5,1.1 32.5,-4 C32.5,-5.4 32.2,-6.8 31.5,-8.1"/>
<path class="Note" transform="matrix(2.0126,0,0,2.0126,2602.55,1198.36)" d="M31.5,-8.1 C29.7,-11.4 25.9,-13.2 21.3,-13.2 C17.9,-13.2 14.2,-12.2 10.6,-10.3 C4,-6.8 0,-0.9 0,4.2 C0,5.6 0.3,7 1,8.3 C2.8,11.6 6.6,13.3 11.2,13.3 C14.6,13.3 18.3,12.4 21.9,10.5 C28.5,7 32.5,1.1 32.5,-4 C32.5,-5.4 32.2,-6.8 31.5,-8.1"/>
<path class="Note" transform="matrix(2.0126,0,0,2.0126,2854.61,1198.36)" d="M31.5,-8.1 C29.7,-11.4 25.9,-13.2 21.3,-13.2 C17.9,-13.2 14.2,-12.2 10.6,-10.3 C4,-6.8 0,-0.9 0,4.2 C0,5.6 0.3,7 1,8.3 C2.8,11.6 6.6,13.3 11.2,13.3 C14.6,13.3 18.3,12.4 21.9,10.5 C28.5,7 32.5,1.1 32.5,-4 C32.5,-5.4 32.2,-6.8 31.5,-8.1 M27.2,-1.3 C25.5,0.4 22.1,2.5 18.5,4.5 C14.9,6.5 11.3,8 8.9,8.5 C8.4,8.6 7.9,8.7 7.4,8.7 C5.8,8.7 4.6,8.1 3.9,6.8 C3.6,6.3 3.4,5.7 3.4,5.1 C3.4,4 4.1,2.7 5.2,1.6 C6.9,-0.1 10.2,-2.2 13.8,-4.2 C17.4,-6.2 21,-7.7 23.4,-8.2 C23.9,-8.3 24.4,-8.4 24.9,-8.4 C26.5,-8.4 27.8,-7.8 28.5,-6.5 C28.8,-6 28.9,-5.4 28.9,-4.8 C28.9,-3.7 28.3,-2.5 27.2,-1.3"/>
<path class="Note" transform="matrix(2.0126,0,0,2.0126,3057.72,1198.36)" d="M31.5,-8.1 C29.7,-11.4 25.9,-13.2 21.3,-13.2 C17.9,-13.2 14.2,-12.2 10.6,-10.3 C4,-6.8 0,-0.9 0,4.2 C0,5.6 0.3,7 1,8.3 C2.8,11.6 6.6,13.3 11.2,13.3 C14.6,13.3 18.3,12.4 21.9,10.5 C28.5,7 32.5,1.1 32.5,-4 C32.5,-5.4 32.2,-6.8 31.5,-8.1"/>
<path class="Note" transform="matrix(2.0126,0,0,2.0126,3184.66,1198.36)" d="M31.5,-8.1 C29.7,-11.4 25.9,-13.2 21.3,-13.2 C17.9,-13.2 14.2,-12.2 10.6,-10.3 C4,-6.8 0,-0.9 0,4.2 C0,5.6 0.3,7 1,8.3 C2.8,11.6 6.6,13.3 11.2,13.3 C14.6,13.3 18.3,12.4 21.9,10.5 C28.5,7 32.5,1.1 32.5,-4 C32.5,-5.4 32.2,-6.8 31.5,-8.1"/>
<path class="Note" transform="matrix(2.0126,0,0,2.0126,3432.69,1198.36)" d="M31.5,-8.1 C29.7,-11.4 25.9,-13.2 21.3,-13.2 C17.9,-13.2 14.2,-12.2 10.6,-10.3 C4,-6.8 0,-0.9 0,4.2 C0,5.6 0.3,7 1,8.3 C2.8,11.6 6.6,13.3 11.2,13.3 C14.6,13.3 18.3,12.4 21.9,10.5 C28.5,7 32.5,1.1 32.5,-4 C32.5,-5.4 32.2,-6.8 31.5,-8.1"/>
<path class="Note" transform="matrix(2.0126,0,0,2.0126,3602.16,1148.05)" d="M31.5,-8.1 C29.7,-11.4 25.9,-13.2 21.3,-13.2 C17.9,-13.2 14.2,-12.2 10.6,-10.3 C4,-6.8 0,-0.9 0,4.2 C0,5.6 0.3,7 1,8.3 C2.8,11.6 6.6,13.3 11.2,13.3 C14.6,13.3 18.3,12.4 21.9,10.5 C28.5,7 32.5,1.1 32.5,-4 C32.5,-5.4 32.2,-6.8 31.5,-8.1"/>
<path class="Note" transform="matrix(2.0126,0,0,2.0126,3789.61,1173.21)" d="M31.5,-8.1 C29.7,-11.4 25.9,-13.2 21.3,-13.2 C17.9,-13.2 14.2,-12.2 10.6,-10.3 C4,-6.8 0,-0.9 0,4.2 C0,5.6 0.3,7 1,8.3 C2.8,11.6 6.6,13.3 11.2,13.3 C14.6,13.3 18.3,12.4 21.9,10.5 C28.5,7 32.5,1.1 32.5,-4 C32.5,-5.4 32.2,-6.8 31.5,-8.1"/>
<path class="Note" transform="matrix(2.0126,0,0,2.0126,3959.08,1198.36)" d="M31.5,-8.1 C29.7,-11.4 25.9,-13.2 21.3,-13.2 C17.9,-13.2 14.2,-12.2 10.6,-10.3 C4,-6.8 0,-0.9 0,4.2 C0,5.6 0.3,7 1,8.3 C2.8,11.6 6.6,13.3 11.2,13.3 C14.6,13.3 18.3,12.4 21.9,10.5 C28.5,7 32.5,1.1 32.5,-4 C32.5,-5.4 32.2,-6.8 31.5,-8.1"/>
<path class="Note" transform="matrix(2.0126,0,0,2.0126,398.385,2074.29)" d="M31.5,-8.1 C29.7,-11.4 25.9,-13.2 21.3,-13.2 C17.9,-13.2 14.2,-12.2 10.6,-10.3 C4,-6.8 0,-0.9 0,4.2 C0,5.6 0.3,7 1,8.3 C2.8,11.6 6.6,13.3 11.2,13.3 C14.6,13.3 18.3,12.4 21.9,10.5 C28.5,7 32.5,1.1 32.5,-4 C32.5,-5.4 32.2,-6.8 31.5,-8.1 M27.2,-1.3 C25.5,0.4 22.1,2.5 18.5,4.5 C14.9,6.5 11.3,8 8.9,8.5 C8.4,8.6 7.9,8.7 7.4,8.7 C5.8,8.7 4.6,8.1 3.9,6.8 C3.6,6.3 3.4,5.7 3.4,5.1 C3.4,4 4.1,2.7 5.2,1.6 C6.9,-0.1 10.2,-2.2 13.8,-4.2 C17.4,-6.2 21,-7.7 23.4,-8.2 C23.9,-8.3 24.4,-8.4 24.9,-8.4 C26.5,-8.4 27.8,-7.8 28.5,-6.5 C28.8,-6 28.9,-5.4 28.9,-4.8 C28.9,-3.7 28.3,-2.5 27.2,-1.3"/>
<path class="Note" transform="matrix(2.0126,0,0,2.0126,676.222,2074.29)" d="M31.5,-8.1 C29.7,-11.4 25.9,-13.2 21.3,-13.2 C17.9,-13.2 14.2,-12.2 10.6,-10.3 C4,-6.8 0,-0.9 0,4.2 C0,5.6 0.3,7 1,8.3 C2.8,11.6 6.6,13.3 11.2,13.3 C14.6,13.3 18.3,12.4 21.9,10.5 C28.5,7 32.5,1.1 32.5,-4 C32.5,-5.4 32.2,-6.8 31.5,-8.1"/>
<path class="Note" transform="matrix(2.0126,0,0,2.0126,925.802,1998.81)" d="M31.5,-8.1 C29.7,-11.4 25.9,-13.2 21.3,-13.2 C17.9,-13.2 14.2,-12.2 10.6,-10.3 C4,-6.8 0,-0.9 0,4.2 C0,5.6 0.3,7 1,8.3 C2.8,11.6 6.6,13.3 11.2,13.3 C14.6,13.3 18.3,12.4 21.9,10.5 C28.5,7 32.5,1.1 32.5,-4 C32.5,-5.4 32.2,-6.8 31.5,-8.1"/>
<path class="Note" transform="matrix(2.0126,0,0,2.0126,1155.72,2124.6)" d="M31.5,-8.1 C29.7,-11.4 25.9,-13.2 21.3,-13.2 C17.9,-13.2 14.2,-12.2 10.6,-10.3 C4,-6.8 0,-0.9 0,4.2 C0,5.6 0.3,7 1,8.3 C2.8,11.6 6.6,13.3 11.2,13.3 C14.6,13.3 18.3,12.4 21.9,10.5 C28.5,7 32.5,1.1 32.5,-4 C32.5,-5.4 32.2,-6.8 31.5,-8.1"/>
<path class="Note" transform="matrix(2.0126,0,0,2.0126,1273.57,2124.6)" d="M31.5,-8.1 C29.7,-11.4 25.9,-13.2 21.3,-13.2 C17.9,-13.2 14.2,-12.2 10.6,-10.3 C4,-6.8 0,-0.9 0,4.2 C0,5.6 0.3,7 1,8.3 C2.8,11.6 6.6,13.3 11.2,13.3 C14.6,13.3 18.3,12.4 21.9,10.5 C28.5,7 32.5,1.1 32.5,-4 C32.5,-5.4 32.2,-6.8 31.5,-8.1"/>
<path class="Note" transform="matrix(2.0126,0,0,2.0126,1462.12,2124.6)" d="M31.5,-8.1 C29.7,-11.4 25.9,-13.2 21.3,-13.2 C17.9,-13.2 14.2,-12.2 10.6,-10.3 C4,-6.8 0,-0.9 0,4.2 C0,5.6 0.3,7 1,8.3 C2.8,11.6 6.6,13.3 11.2,13.3 C14.6,13.3 18.3,12.4 21.9,10.5 C28.5,7 32.5,1.1 32.5,-4 C32.5,-5.4 32.2,-6.8 31.5,-8.1"/>
<path class="Note" transform="matrix(2.0126,0,0,2.0126,1757.85,2074.29)" d="M31.5,-8.1 C29.7,-11.4 25.9,-13.2 21.3,-13.2 C17.9,-13.2 14.2,-12.2 10.6,-10.3 C4,-6.8 0,-0.9 0,4.2 C0,5.6 0.3,7 1,8.3 C2.8,11.6 6.6,13.3 11.2,13.3 C14.6,13.3 18.3,12.4 21.9,10.5 C28.5,7 32.5,1.1 32.5,-4 C32.5,-5.4 32.2,-6.8 31.5,-8.1 M27.2,-1.3 C25.5,0.4 22.1,2.5 18.5,4.5 C14.9,6.5 11.3,8 8.9,8.5 C8.4,8.6 7.9,8.7 7.4,8.7 C5.8,8.7 4.6,8.1 3.9,6.8 C3.6,6.3 3.4,5.7 3.4,5.1 C3.4,4 4.1,2.7 5.2,1.6 C6.9,-0.1 10.2,-2.2 13.8,-4.2 C17.4,-6.2 21,-7.7 23.4,-8.2 C23.9,-8.3 24.4,-8.4 24.9,-8.4 C26.5,-8.4 27.8,-7.8 28.5,-6.5 C28.8,-6 28.9,-5.4 28.9,-4.8 C28.9,-3.7 28.3,-2.5 27.2,-1.3"/>
<path class="Note" transform="matrix(2.0126,0,0,2.0126,2006.34,2074.29)" d="M31.5,-8.1 C29.7,-11.4 25.9,-13.2 21.3,-13.2 C17.9,-13.2 14.2,-12.2 10.6,-10.3 C4,-6.8 0,-0.9 0,4.2 C0,5.6 0.3,7 1,8.3 C2.8,11.6 6.6,13.3 11.2,13.3 C14.6,13.3 18.3,12.4 21.9,10.5 C28.5,7 32.5,1.1 32.5,-4 C32.5,-5.4 32.2,-6.8 31.5,-8.1"/>
<path class="Note" transform="matrix(2.0126,0,0,2.0126,2161.65,2074.29)" d="M31.5,-8.1 C29.7,-11.4 25.9,-13.2 21.3,-13.2 C17.9,-13.2 14.2,-12.2 10.6,-10.3 C4,-6.8 0,-0.9 0,4.2 C0,5.6 0.3,7 1,8.3 C2.8,11.6 6.6,13.3 11.2,13.3 C14.6,13.3 18.3,12.4 21.9,10.5 C28.5,7 32.5,1.1 32.5,-4 C32.5,-5.4 32.2,-6.8 31.5,-8.1"/>
<path class="Note" transform="matrix(2.0126,0,0,2.0126,2406.52,2099.44)" d="M31.5,-8.1 C29.7,-11.4 25.9,-13.2 21.3,-13.2 C17.9,-13.2 14.2,-12.2 10.6,-10.3 C4,-6.8 0,-0.9 0,4.2 C0,5.6 0.3,7 1,8.3 C2.8,11.6 6.6,13.3 11.2,13.3 C14.6,13.3 18.3,12.4 21.9,10.5 C28.5,7 32.5,1.1 32.5,-4 C32.5,-5.4 32.2,-6.8 31.5,-8.1"/>
<path class="Note" transform="matrix(2.0126,0,0,2.0126,2636.44,2124.6)" d="M31.5,-8.1 C29.7,-11.4 25.9,-13.2 21.3,-13.2 C17.9,-13.2 14.2,-12.2 10.6,-10.3 C4,-6.8 0,-0.9 0,4.2 C0,5.6 0.3,7 1,8.3 C2.8,11.6 6.6,13.3 11.2,13.3 C14.6,13.3 18.3,12.4 21.9,10.5 C28.5,7 32.5,1.1 32.5,-4 C32.5,-5.4 32.2,-6.8 31.5,-8.1"/>
<path class="Note" transform="matrix(2.0126,0,0,2.0126,2754.28,2099.44)" d="M31.5,-8.1 C29.7,-11.4 25.9,-13.2 21.3,-13.2 C17.9,-13.2 14.2,-12.2 10.6,-10.3 C4,-6.8 0,-0.9 0,4.2 C0,5.6 0.3,7 1,8.3 C2.8,11.6 6.6,13.3 11.2,13.3 C14.6,13.3 18.3,12.4 21.9,10.5 C28.5,7 32.5,1.1 32.5,-4 C32.5,-5.4 32.2,-6.8 31.5,-8.1"/>
<path class="Note" transform="matrix(2.0126,0,0,2.0126,2942.84,2149.76)" d="M31.5,-8.1 C29.7,-11.4 25.9,-13.2 21.3,-13.2 C17.9,-13.2 14.2,-12.2 10.6,-10.3 C4,-6.8 0,-0.9 0,4.2 C0,5.6 0.3,7 1,8.3 C2.8,11.6 6.6,13.3 11.2,13.3 C14.6,13.3 18.3,12.4 21.9,10.5 C28.5,7 32.5,1.1 32.5,-4 C32.5,-5.4 32.2,-6.8 31.5,-8.1"/>
<path class="Note" transform="matrix(2.0126,0,0,2.0126,3220.95,2174.92)" d="M31.5,-8.1 C29.7,-11.4 25.9,-13.2 21.3,-13.2 C17.9,-13.2 14.2,-12.2 10.6,-10.3 C4,-6.8 0,-0.9 0,4.2 C0,5.6 0.3,7 1,8.3 C2.8,11.6 6.6,13.3 11.2,13.3 C14.6,13.3 18.3,12.4 21.9,10.5 C28.5,7 32.5,1.1 32.5,-4 C32.5,-5.4 32.2,-6.8 31.5,-8.1 M27.2,-1.3 C25.5,0.4 22.1,2.5 18.5,4.5 C14.9,6.5 11.3,8 8.9,8.5 C8.4,8.6 7.9,8.7 7.4,8.7 C5.8,8.7 4.6,8.1 3.9,6.8 C3.6,6.3 3.4,5.7 3.4,5.1 C3.4,4 4.1,2.7 5.2,1.6 C6.9,-0.1 10.2,-2.2 13.8,-4.2 C17.4,-6.2 21,-7.7 23.4,-8.2 C23.9,-8.3 24.4,-8.4 24.9,-8.4 C26.5,-8.4 27.8,-7.8 28.5,-6.5 C28.8,-6 28.9,-5.4 28.9,-4.8 C28.9,-3.7 28.3,-2.5 27.2,-1.3"/>
<path class="Note" transform="matrix(2.0126,0,0,2.0126,3502.39,2174.92)" d="M31.5,-8.1 C29.7,-11.4 25.9,-13.2 21.3,-13.2 C17.9,-13.2 14.2,-12.2 10.6,-10.3 C4,-6.8 0,-0.9 0,4.2 C0,5.6 0.3,7 1,8.3 C2.8,11.6 6.6,13.3 11.2,13.3 C14.6,13.3 18.3,12.4 21.9,10.5 C28.5,7 32.5,1.1 32.5,-4 C32.5,-5.4 32.2,-6.8 31.5,-8.1"/>
<path class="Note" transform="matrix(2.0126,0,0,2.0126,3736.21,2174.92)" d="M31.5,-8.1 C29.7,-11.4 25.9,-13.2 21.3,-13.2 C17.9,-13.2 14.2,-12.2 10.6,-10.3 C4,-6.8 0,-0.9 0,4.2 C0,5.6 0.3,7 1,8.3 C2.8,11.6 6.6,13.3 11.2,13.3 C14.6,13.3 18.3,12.4 21.9,10.5 C28.5,7 32.5,1.1 32.5,-4 C32.5,-5.4 32.2,-6.8 31.5,-8.1 M27.2,-1.3 C25.5,0.4 22.1,2.5 18.5,4.5 C14.9,6.5 11.3,8 8.9,8.5 C8.4,8.6 7.9,8.7 7.4,8.7 C5.8,8.7 4.6,8.1 3.9,6.8 C3.6,6.3 3.4,5.7 3.4,5.1 C3.4,4 4.1,2.7 5.2,1.6 C6.9,-0.1 10.2,-2.2 13.8,-4.2 C17.4,-6.2 21,-7.7 23.4,-8.2 C23.9,-8.3 24.4,-8.4 24.9,-8.4 C26.5,-8.4 27.8,-7.8 28.5,-6.5 C28.8,-6 28.9,-5.4 28.9,-4.8 C28.9,-3.7 28.3,-2.5 27.2,-1.3"/>
<path class="Clef" transform="matrix(2.0126,0,0,2.0126,111.118,574.016)" d="M63.35,-5.86992 C62.12,-11.3 59.48,-15.1199 58.7,-16.16 C55.51,-20.43 51.5,-23.28 46.81,-24.63 C43.7,-25.5199 40.7,-25.63 38.28,-25.45 C37.24,-31.46 36.24,-37.3399 35.33,-42.7899 C40.78,-48.96 44.4,-54.76 46.68,-59.06 C50.15,-65.6399 51.3,-70.2199 51.35,-70.4199 C53.07,-75.63 53.43,-83.33 52.33,-91.5399 C51.32,-99.0899 49.23,-105.8 46.88,-109.05 C45.85,-110.48 44.8,-111.21 43.76,-111.21 C42.54,-111.21 40.03,-109.97 37.14,-107.2 C34.84,-105 31.57,-101.11 29.01,-95.1 C26.01,-88.0399 25.8,-78.55 26.15,-71.83 C26.53,-64.56 27.64,-58.8699 27.65,-58.8199 C27.67,-58.73 27.93,-57.23 28.38,-54.66 C28.15,-54.43 27.91,-54.21 27.66,-53.9699 C26.62,-52.9699 25.43,-51.83 24.05,-50.45 C23.19,-49.5899 22.24,-48.68 21.24,-47.71 C12.79,-39.5699 0,-27.25 0,-8.1 C0,-3.4 0.9,1.02002 2.67998,5.03008 C4.27002,8.63008 6.57002,11.9101 9.5,14.7801 C17.23,22.3301 27.82,25.54 34.88,25.3801 C37.83,25.3101 40.46,25.07 42.85,24.62 C44.68,34.22 45.82,41.25 45.86,46.59 C45.9,53.1 44.25,57.07 40.35,59.84 C37.92,61.57 35.11,62.52 32.01,62.67 C29.42,62.79 27.16,62.32 25.73,61.9101 L25.72,61.9101 C25.72,61.9101 25.43,61.8301 25.42,61.6301 C25.41,61.45 25.76,61.4 25.77,61.4 L25.79,61.4 C27.71,60.9601 31.28,59.7301 33.64,56.4301 C35.44,53.9101 36.31,49.29 34.47,45.35 C33.36,42.9601 30.85,40.0101 25.23,39.5601 C22.74,39.3601 20.47,39.87 18.47,41.07 C16.66,42.15 15.16,43.79 14.11,45.79 C11.65,50.49 12.11,56.22 15.24,60.0601 C18.2,63.6801 22.82,65.99 28.25,66.57 C29.1,66.6601 29.95,66.7 30.8,66.7 C35.23,66.7 39.63,65.5 43.2,63.29 C46.86,60.72 48.98,56.74 49.66,51.1101 C50.22,46.47 49.83,40.5601 48.43,32.49 C48.07,30.4 47.53,27.37 46.87,23.6101 C52.62,21.69 56.78,18.12 60.55,12.27 C63.84,6.53008 64.78,0.430078 63.35,-5.86992 M29.14,20.32 C24.5,19.1 20.07,16.6 16.31,13.1 C15,11.87 13.13,9.7 11.66,6.31006 C10.29,3.15 9.62998,-0.27998 9.67998,-3.86992 C9.75,-8.55996 11.06,-13.38 13.57,-18.1699 C16.49,-23.75 21.05,-29.28 27.11,-34.61 C28.56,-35.8899 29.93,-37.1699 31.22,-38.45 C31.98,-34.1899 32.81,-29.5 33.69,-24.6199 C29.84,-23.35 25.09,-20.2 21.98,-14.55 C18.44,-7.97998 18.58,-2.45996 19.31,1.02002 C20.25,5.48008 22.78,9.24004 26.24,11.3301 C27.17,11.89 31.3,14.02 33.14,13.44 C33.51,13.32 33.78,13.1 33.92,12.77 C34.43,11.6 33.41,10.9601 31.85,10 C31.25,9.63008 30.58,9.21006 29.85,8.68008 C26.53,6.19004 25.08,1.74004 26.15,-2.63994 C26.73,-5.03994 28.01,-7.2 29.85,-8.9 C31.52,-10.45 33.56,-11.55 35.94,-12.1899 C37.98,-0.95 40.04,10.2 41.68,18.5601 C41.81,19.25 41.95,19.92 42.08,20.59 C37.7,21.52 33.35,21.4301 29.14,20.32 M40.46,-12.86 C50.81,-13.33 55.08,-5.88994 55.97,-1.05996 C56.44,1.47002 56.43,5.91006 54.89,10.12 C53.72,13.3 51.26,17.37 46.13,19.4301 C46.06,19.0101 45.98,18.5801 45.9,18.15 C44.36,9.38008 42.42,-1.60996 40.46,-12.86 M33.14,-83.8 C34.92,-89.5399 37.66,-92.7899 39.65,-94.5199 C41.4,-96.0399 43.05,-96.75 43.97,-96.75 C44.11,-96.75 44.23,-96.73 44.33,-96.7 C44.79,-96.56 45.32,-95.9899 45.79,-95.1199 C48.1,-90.83 47.36,-84.1199 46.02,-79.68 C44.39,-74.28 41.47,-68.66 32.67,-59.05 C32.5,-60.16 32.34,-61.21 32.19,-62.1899 C30.94,-70.48 31.26,-77.75 33.14,-83.8"/>
<path class="Clef" transform="matrix(2.0126,0,0,2.0126,111.118,1424.78)" d="M63.35,-5.86992 C62.12,-11.3 59.48,-15.1199 58.7,-16.16 C55.51,-20.43 51.5,-23.28 46.81,-24.63 C43.7,-25.5199 40.7,-25.63 38.28,-25.45 C37.24,-31.46 36.24,-37.3399 35.33,-42.7899 C40.78,-48.96 44.4,-54.76 46.68,-59.06 C50.15,-65.6399 51.3,-70.2199 51.35,-70.4199 C53.07,-75.63 53.43,-83.33 52.33,-91.5399 C51.32,-99.0899 49.23,-105.8 46.88,-109.05 C45.85,-110.48 44.8,-111.21 43.76,-111.21 C42.54,-111.21 40.03,-109.97 37.14,-107.2 C34.84,-105 31.57,-101.11 29.01,-95.1 C26.01,-88.0399 25.8,-78.55 26.15,-71.83 C26.53,-64.56 27.64,-58.8699 27.65,-58.8199 C27.67,-58.73 27.93,-57.23 28.38,-54.66 C28.15,-54.43 27.91,-54.21 27.66,-53.9699 C26.62,-52.9699 25.43,-51.83 24.05,-50.45 C23.19,-49.5899 22.24,-48.68 21.24,-47.71 C12.79,-39.5699 0,-27.25 0,-8.1 C0,-3.4 0.9,1.02002 2.67998,5.03008 C4.27002,8.63008 6.57002,11.9101 9.5,14.7801 C17.23,22.3301 27.82,25.54 34.88,25.3801 C37.83,25.3101 40.46,25.07 42.85,24.62 C44.68,34.22 45.82,41.25 45.86,46.59 C45.9,53.1 44.25,57.07 40.35,59.84 C37.92,61.57 35.11,62.52 32.01,62.67 C29.42,62.79 27.16,62.32 25.73,61.9101 L25.72,61.9101 C25.72,61.9101 25.43,61.8301 25.42,61.6301 C25.41,61.45 25.76,61.4 25.77,61.4 L25.79,61.4 C27.71,60.9601 31.28,59.7301 33.64,56.4301 C35.44,53.9101 36.31,49.29 34.47,45.35 C33.36,42.9601 30.85,40.0101 25.23,39.5601 C22.74,39.3601 20.47,39.87 18.47,41.07 C16.66,42.15 15.16,43.79 14.11,45.79 C11.65,50.49 12.11,56.22 15.24,60.0601 C18.2,63.6801 22.82,65.99 28.25,66.57 C29.1,66.6601 29.95,66.7 30.8,66.7 C35.23,66.7 39.63,65.5 43.2,63.29 C46.86,60.72 48.98,56.74 49.66,51.1101 C50.22,46.47 49.83,40.5601 48.43,32.49 C48.07,30.4 47.53,27.37 46.87,23.6101 C52.62,21.69 56.78,18.12 60.55,12.27 C63.84,6.53008 64.78,0.430078 63.35,-5.86992 M29.14,20.32 C24.5,19.1 20.07,16.6 16.31,13.1 C15,11.87 13.13,9.7 11.66,6.31006 C10.29,3.15 9.62998,-0.27998 9.67998,-3.86992 C9.75,-8.55996 11.06,-13.38 13.57,-18.1699 C16.49,-23.75 21.05,-29.28 27.11,-34.61 C28.56,-35.8899 29.93,-37.1699 31.22,-38.45 C31.98,-34.1899 32.81,-29.5 33.69,-24.6199 C29.84,-23.35 25.09,-20.2 21.98,-14.55 C18.44,-7.97998 18.58,-2.45996 19.31,1.02002 C20.25,5.48008 22.78,9.24004 26.24,11.3301 C27.17,11.89 31.3,14.02 33.14,13.44 C33.51,13.32 33.78,13.1 33.92,12.77 C34.43,11.6 33.41,10.9601 31.85,10 C31.25,9.63008 30.58,9.21006 29.85,8.68008 C26.53,6.19004 25.08,1.74004 26.15,-2.63994 C26.73,-5.03994 28.01,-7.2 29.85,-8.9 C31.52,-10.45 33.56,-11.55 35.94,-12.1899 C37.98,-0.95 40.04,10.2 41.68,18.5601 C41.81,19.25 41.95,19.92 42.08,20.59 C37.7,21.52 33.35,21.4301 29.14,20.32 M40.46,-12.86 C50.81,-13.33 55.08,-5.88994 55.97,-1.05996 C56.44,1.47002 56.43,5.91006 54.89,10.12 C53.72,13.3 51.26,17.37 46.13,19.4301 C46.06,19.0101 45.98,18.5801 45.9,18.15 C44.36,9.38008 42.42,-1.60996 40.46,-12.86 M33.14,-83.8 C34.92,-89.5399 37.66,-92.7899 39.65,-94.5199 C41.4,-96.0399 43.05,-96.75 43.97,-96.75 C44.11,-96.75 44.23,-96.73 44.33,-96.7 C44.79,-96.56 45.32,-95.9899 45.79,-95.1199 C48.1,-90.83 47.36,-84.1199 46.02,-79.68 C44.39,-74.28 41.47,-68.66 32.67,-59.05 C32.5,-60.16 32.34,-61.21 32.19,-62.1899 C30.94,-70.48 31.26,-77.75 33.14,-83.8"/>
<path class="Clef" transform="matrix(2.0126,0,0,2.0126,111.118,2275.55)" d="M63.35,-5.86992 C62.12,-11.3 59.48,-15.1199 58.7,-16.16 C55.51,-20.43 51.5,-23.28 46.81,-24.63 C43.7,-25.5199 40.7,-25.63 38.28,-25.45 C37.24,-31.46 36.24,-37.3399 35.33,-42.7899 C40.78,-48.96 44.4,-54.76 46.68,-59.06 C50.15,-65.6399 51.3,-70.2199 51.35,-70.4199 C53.07,-75.63 53.43,-83.33 52.33,-91.5399 C51.32,-99.0899 49.23,-105.8 46.88,-109.05 C45.85,-110.48 44.8,-111.21 43.76,-111.21 C42.54,-111.21 40.03,-109.97 37.14,-107.2 C34.84,-105 31.57,-101.11 29.01,-95.1 C26.01,-88.0399 25.8,-78.55 26.15,-71.83 C26.53,-64.56 27.64,-58.8699 27.65,-58.8199 C27.67,-58.73 27.93,-57.23 28.38,-54.66 C28.15,-54.43 27.91,-54.21 27.66,-53.9699 C26.62,-52.9699 25.43,-51.83 24.05,-50.45 C23.19,-49.5899 22.24,-48.68 21.24,-47.71 C12.79,-39.5699 0,-27.25 0,-8.1 C0,-3.4 0.9,1.02002 2.67998,5.03008 C4.27002,8.63008 6.57002,11.9101 9.5,14.7801 C17.23,22.3301 27.82,25.54 34.88,25.3801 C37.83,25.3101 40.46,25.07 42.85,24.62 C44.68,34.22 45.82,41.25 45.86,46.59 C45.9,53.1 44.25,57.07 40.35,59.84 C37.92,61.57 35.11,62.52 32.01,62.67 C29.42,62.79 27.16,62.32 25.73,61.9101 L25.72,61.9101 C25.72,61.9101 25.43,61.8301 25.42,61.6301 C25.41,61.45 25.76,61.4 25.77,61.4 L25.79,61.4 C27.71,60.9601 31.28,59.7301 33.64,56.4301 C35.44,53.9101 36.31,49.29 34.47,45.35 C33.36,42.9601 30.85,40.0101 25.23,39.5601 C22.74,39.3601 20.47,39.87 18.47,41.07 C16.66,42.15 15.16,43.79 14.11,45.79 C11.65,50.49 12.11,56.22 15.24,60.0601 C18.2,63.6801 22.82,65.99 28.25,66.57 C29.1,66.6601 29.95,66.7 30.8,66.7 C35.23,66.7 39.63,65.5 43.2,63.29 C46.86,60.72 48.98,56.74 49.66,51.1101 C50.22,46.47 49.83,40.5601 48.43,32.49 C48.07,30.4 47.53,27.37 46.87,23.6101 C52.62,21.69 56.78,18.12 60.55,12.27 C63.84,6.53008 64.78,0.430078 63.35,-5.86992 M29.14,20.32 C24.5,19.1 20.07,16.6 16.31,13.1 C15,11.87 13.13,9.7 11.66,6.31006 C10.29,3.15 9.62998,-0.27998 9.67998,-3.86992 C9.75,-8.55996 11.06,-13.38 13.57,-18.1699 C16.49,-23.75 21.05,-29.28 27.11,-34.61 C28.56,-35.8899 29.93,-37.1699 31.22,-38.45 C31.98,-34.1899 32.81,-29.5 33.69,-24.6199 C29.84,-23.35 25.09,-20.2 21.98,-14.55 C18.44,-7.97998 18.58,-2.45996 19.31,1.02002 C20.25,5.48008 22.78,9.24004 26.24,11.3301 C27.17,11.89 31.3,14.02 33.14,13.44 C33.51,13.32 33.78,13.1 33.92,12.77 C34.43,11.6 33.41,10.9601 31.85,10 C31.25,9.63008 30.58,9.21006 29.85,8.68008 C26.53,6.19004 25.08,1.74004 26.15,-2.63994 C26.73,-5.03994 28.01,-7.2 29.85,-8.9 C31.52,-10.45 33.56,-11.55 35.94,-12.1899 C37.98,-0.95 40.04,10.2 41.68,18.5601 C41.81,19.25 41.95,19.92 42.08,20.59 C37.7,21.52 33.35,21.4301 29.14,20.32 M40.46,-12.86 C50.81,-13.33 55.08,-5.88994 55.97,-1.05996 C56.44,1.47002 56.43,5.91006 54.89,10.12 C53.72,13.3 51.26,17.37 46.13,19.4301 C46.06,19.0101 45.98,18.5801 45.9,18.15 C44.36,9.38008 42.42,-1.60996 40.46,-12.86 M33.14,-83.8 C34.92,-89.5399 37.66,-92.7899 39.65,-94.5199 C41.4,-96.0399 43.05,-96.75 43.97,-96.75 C44.11,-96.75 44.23,-96.73 44.33,-96.7 C44.79,-96.56 45.32,-95.9899 45.79,-95.1199 C48.1,-90.83 47.36,-84.1199 46.02,-79.68 C44.39,-74.28 41.47,-68.66 32.67,-59.05 C32.5,-60.16 32.34,-61.21 32.19,-62.1899 C30.94,-70.48 31.26,-77.75 33.14,-83.8"/>
<path class="TimeSig" transform="matrix(2.0126,0,0,2.0126,287.44,473.653)" d="M3.59004,12.65 L20.77,12.65 L20.77,20.07 L12.54,20.07 C11.7601,20.07 11.1301,20.7 11.1301,21.48 L11.1301,23.39 C11.1301,24.17 11.7601,24.8 12.54,24.8 L42.79,24.8 C43.57,24.8 44.2,24.17 44.2,23.39 L44.2,21.48 C44.2,20.7 43.57,20.07 42.79,20.07 L33.85,20.07 L33.85,12.65 L42.79,12.65 C43.57,12.65 44.2,12.02 44.2,11.24 L44.2,9.32998 C44.2,8.55 43.57,7.92002 42.79,7.92002 L33.85,7.92002 L33.85,-8.04004 C33.85,-8.57998 33.55,-9.05996 33.07,-9.3 L31.8601,-9.9 C31.3301,-10.16 30.7,-10.07 30.27,-9.67002 L21.22,-1.35 C20.9301,-1.07998 20.7601,-0.709961 20.7601,-0.309961 L20.7601,7.92002 L9.25,7.92002 C9.25,7.92002 20.37,-4.10996 32.2101,-19.88 C33.0801,-21.03 32.5801,-22.08 32.39,-22.27 L30.22,-24.48 C29.95,-24.74 29.59,-24.89 29.22,-24.89 C28.62,-24.89 15.07,-24.87 14.35,-24.89 C13.6301,-24.91 13.09,-24.29 13.02,-23.67 C13.02,-23.67 12.4801,-16.31 9.88008,-8.17998 C7.28008,-0.0599609 4.34004,4.92002 1.68008,8.55 C1.68008,8.55 1.14004,9.54004 1.5,10.28 C1.85,11.03 2.48008,12.12 2.48008,12.12 C2.48008,12.12 2.74004,12.65 3.59004,12.65"/>
<path class="TimeSig" transform="matrix(2.0126,0,0,2.0126,287.44,573.748)" d="M3.59004,12.65 L20.77,12.65 L20.77,20.07 L12.54,20.07 C11.7601,20.07 11.1301,20.7 11.1301,21.48 L11.1301,23.39 C11.1301,24.17 11.7601,24.8 12.54,24.8 L42.79,24.8 C43.57,24.8 44.2,24.17 44.2,23.39 L44.2,21.48 C44.2,20.7 43.57,20.07 42.79,20.07 L33.85,20.07 L33.85,12.65 L42.79,12.65 C43.57,12.65 44.2,12.02 44.2,11.24 L44.2,9.32998 C44.2,8.55 43.57,7.92002 42.79,7.92002 L33.85,7.92002 L33.85,-8.04004 C33.85,-8.57998 33.55,-9.05996 33.07,-9.3 L31.8601,-9.9 C31.3301,-10.16 30.7,-10.07 30.27,-9.67002 L21.22,-1.35 C20.9301,-1.07998 20.7601,-0.709961 20.7601,-0.309961 L20.7601,7.92002 L9.25,7.92002 C9.25,7.92002 20.37,-4.10996 32.2101,-19.88 C33.0801,-21.03 32.5801,-22.08 32.39,-22.27 L30.22,-24.48 C29.95,-24.74 29.59,-24.89 29.22,-24.89 C28.62,-24.89 15.07,-24.87 14.35,-24.89 C13.6301,-24.91 13.09,-24.29 13.02,-23.67 C13.02,-23.67 12.4801,-16.31 9.88008,-8.17998 C7.28008,-0.0599609 4.34004,4.92002 1.68008,8.55 C1.68008,8.55 1.14004,9.54004 1.5,10.28 C1.85,11.03 2.48008,12.12 2.48008,12.12 C2.48008,12.12 2.74004,12.65 3.59004,12.65"/>
<path class="Rest" transform="matrix(2.0126,0,0,2.0126,477.018,523.701)" d="M0,-11.8 L0,-1 C0,0.4 0,0.4 1.4,0.4 L31.1,0.4 C32.5,0.4 32.5,0.4 32.5,-1 L32.5,-11.8 C32.5,-13.2 32.5,-13.2 31.1,-13.2 L1.4,-13.2 C0,-13.2 0,-13.2 0,-11.8"/>
<path class="Rest" transform="matrix(2.0126,0,0,2.0126,642.277,523.701)" d="M23.2,16.9 L23,16.6 C22.9,16.5 22.7,16.3 22.4,15.9 L10.9,1.7 C10.6,1.4 10.7,0.6 10.9,0.2 L21.1,-15.2 C21.2,-15.4 21.3,-15.7 21.3,-15.9 L21.3,-16.8 C21.3,-17.1 21.2,-17.4 21,-17.6 L4.8,-39.5 C4.8,-39.5 4,-40.7 3,-39.8 C2,-39 2.8,-37.7 2.8,-37.7 L10.4,-27.3 C10.8,-26.7 10.8,-25.5 10.4,-24.9 L0.3,-9.5 C0.2,-9.3 0.1,-8.9 0.1,-8.7 L0.1,-7.8 C0.1,-7.5 0.2,-7.2 0.4,-7 L11.6,6.9 C11.2,6.8 10.3,6.6 9.1,6.6 C7.4,6.6 5.2,7 3.4,8.6 C1.2,10.6 0,13.4 0,15.9 C0,17.3 0.3,18.7 1.1,19.8 C3.2,23 10.7,32.5 10.7,32.5 C10.7,32.5 11.6,33.6 12.5,32.9 C13.4,32.2 13.2,31.3 12.9,30.8 C12.6,30.3 9.4,24.5 9.4,24.5 C9.4,24.5 8.7,23.1 8.7,21.3 C8.7,20 9.1,18.4 10.4,17.1 C11.6,15.9 13,15.5 14.3,15.5 C15.6,15.5 16.7,15.9 17.5,16.4 L21.4,18.9 C21.4,18.9 22.6,19.5 23.2,18.6 C23.7,17.8 23.5,17.4 23.2,16.9"/>
<path class="Rest" transform="matrix(2.0126,0,0,2.0126,3910.11,2225.23)" d="M0,-11.8 L0,-1 C0,0.4 0,0.4 1.4,0.4 L31.1,0.4 C32.5,0.4 32.5,0.4 32.5,-1 L32.5,-11.8 C32.5,-13.2 32.5,-13.2 31.1,-13.2 L1.4,-13.2 C0,-13.2 0,-13.2 0,-11.8"/>
<path class="Articulation" transform="matrix(2.0126,0,0,2.0126,1911.84,330.287)" d="M1.14229,-1.13359 C2.66533,0.389453 5.13467,0.389453 6.65771,-1.13359 C8.18076,-2.65664 8.18076,-5.12598 6.65771,-6.64902 C5.13467,-8.17207 2.66533,-8.17207 1.14229,-6.64902 C-0.380762,-5.12598 -0.380762,-2.65664 1.14229,-1.13359"/>
<path class="Articulation" transform="matrix(2.0126,0,0,2.0126,626.356,1181.05)" d="M1.14229,-1.13359 C2.66533,0.389453 5.13467,0.389453 6.65771,-1.13359 C8.18076,-2.65664 8.18076,-5.12598 6.65771,-6.64902 C5.13467,-8.17207 2.66533,-8.17207 1.14229,-6.64902 C-0.380762,-5.12598 -0.380762,-2.65664 1.14229,-1.13359"/>
<path class="Articulation" transform="matrix(2.0126,0,0,2.0126,3082.58,1155.89)" d="M1.14229,-1.13359 C2.66533,0.389453 5.13467,0.389453 6.65771,-1.13359 C8.18076,-2.65664 8.18076,-5.12598 6.65771,-6.64902 C5.13467,-8.17207 2.66533,-8.17207 1.14229,-6.64902 C-0.380762,-5.12598 -0.380762,-2.65664 1.14229,-1.13359"/>
<path class="Articulation" transform="matrix(2.0126,0,0,2.0126,2031.21,2031.82)" d="M1.14229,-1.13359 C2.66533,0.389453 5.13467,0.389453 6.65771,-1.13359 C8.18076,-2.65664 8.18076,-5.12598 6.65771,-6.64902 C5.13467,-8.17207 2.66533,-8.17207 1.14229,-6.64902 C-0.380762,-5.12598 -0.380762,-2.65664 1.14229,-1.13359"/>
<path class="Hook" transform="matrix(2.0126,0,0,2.0126,2482.71,599.173)" d="M2.5,0.4 C2.5,0.2 3.4,-3.2 3.5,-3.5 C3.6,-3.9 5.4,-9.6 9.1,-15.3 C11.8,-19.5 21.3,-31.8 21,-31.8 C21,-31.8 28.4,-41.3 28.9,-54.2 L28.9,-56.5 C28.9,-62.6 28.1,-71.2 24.6,-79.9 C24.2,-80.9 23.8,-81.9 22.7,-81.5 C21.6,-81.1 21.9,-79.9 22.2,-78.8 C24,-71.8 25,-64.6 25,-57.4 C25,-49 22,-44.8 20.2,-41.7 C13.6,-30.6 5,-25.2 0.8,-23.8 C0.3,-23.6 0,-23.2 0,-22.7 L0,-16.5 L0,-0.1 C0,0.6 0.6,1.2 1.3,1.2 C1.8,1.2 2.4,0.8 2.5,0.4"/>
<path class="Hook" transform="matrix(2.0126,0,0,2.0126,1167.5,1449.94)" d="M2.5,0.4 C2.5,0.2 3.4,-3.2 3.5,-3.5 C3.6,-3.9 5.4,-9.6 9.1,-15.3 C11.8,-19.5 21.3,-31.8 21,-31.8 C21,-31.8 28.4,-41.3 28.9,-54.2 L28.9,-56.5 C28.9,-62.6 28.1,-71.2 24.6,-79.9 C24.2,-80.9 23.8,-81.9 22.7,-81.5 C21.6,-81.1 21.9,-79.9 22.2,-78.8 C24,-71.8 25,-64.6 25,-57.4 C25,-49 22,-44.8 20.2,-41.7 C13.6,-30.6 5,-25.2 0.8,-23.8 C0.3,-23.6 0,-23.2 0,-22.7 L0,-16.5 L0,-0.1 C0,0.6 0.6,1.2 1.3,1.2 C1.8,1.2 2.4,0.8 2.5,0.4"/>
<path class="Hook" transform="matrix(2.0126,0,0,2.0126,1155.72,2300.7)" d="M2.5,0.4 C2.5,0.2 3.4,-3.2 3.5,-3.5 C3.6,-3.9 5.4,-9.6 9.1,-15.3 C11.8,-19.5 21.3,-31.8 21,-31.8 C21,-31.8 28.4,-41.3 28.9,-54.2 L28.9,-56.5 C28.9,-62.6 28.1,-71.2 24.6,-79.9 C24.2,-80.9 23.8,-81.9 22.7,-81.5 C21.6,-81.1 21.9,-79.9 22.2,-78.8 C24,-71.8 25,-64.6 25,-57.4 C25,-49 22,-44.8 20.2,-41.7 C13.6,-30.6 5,-25.2 0.8,-23.8 C0.3,-23.6 0,-23.2 0,-22.7 L0,-16.5 L0,-0.1 C0,0.6 0.6,1.2 1.3,1.2 C1.8,1.2 2.4,0.8 2.5,0.4"/>
<path class="Hook" transform="matrix(2.0126,0,0,2.0126,2636.44,2300.7)" d="M2.5,0.4 C2.5,0.2 3.4,-3.2 3.5,-3.5 C3.6,-3.9 5.4,-9.6 9.1,-15.3 C11.8,-19.5 21.3,-31.8 21,-31.8 C21,-31.8 28.4,-41.3 28.9,-54.2 L28.9,-56.5 C28.9,-62.6 28.1,-71.2 24.6,-79.9 C24.2,-80.9 23.8,-81.9 22.7,-81.5 C21.6,-81.1 21.9,-79.9 22.2,-78.8 C24,-71.8 25,-64.6 25,-57.4 C25,-49 22,-44.8 20.2,-41.7 C13.6,-30.6 5,-25.2 0.8,-23.8 C0.3,-23.6 0,-23.2 0,-22.7 L0,-16.5 L0,-0.1 C0,0.6 0.6,1.2 1.3,1.2 C1.8,1.2 2.4,0.8 2.5,0.4"/>
<path class="Tempo" d="M339.719,205.773 L333.076,205.773 L333.076,296.486 C330.789,295.131 328.006,294.26 324.811,293.933 C323.928,293.836 323.021,293.8 322.113,293.8 C316.62,293.8 310.703,295.373 305.185,298.362 C298.748,301.835 293.606,306.796 290.714,312.337 C287.81,317.891 287.507,323.36 289.867,327.741 C292.662,332.919 298.724,335.606 305.899,335.606 C311.223,335.606 317.164,334.117 322.839,331.068 C333.221,325.466 339.682,316.209 339.719,308.139 L339.719,205.773 "/>
<path class="Tempo" d="M384.596,311.309 L445.58,311.309 L445.58,297.394 L384.596,297.394 L384.596,311.309 M384.596,286.383 L445.58,286.383 L445.58,272.468 L384.596,272.468 L384.596,286.383 M531.347,236.773 L527.112,236.773 C519.489,242.46 510.898,244.88 496.499,245.122 L496.499,251.898 L501.581,251.898 C512.35,251.898 512.471,252.14 512.35,262.062 L512.35,305.017 C512.35,312.519 512.35,312.882 511.503,314.092 C510.414,315.423 507.994,315.907 501.46,315.907 L497.588,315.907 L497.588,322.441 L545.867,322.441 L545.867,315.907 L541.995,315.907 C535.582,315.907 533.283,315.423 532.194,314.092 C531.347,312.882 531.347,312.398 531.347,305.017 L531.347,236.773 M598.38,277.913 C603.099,276.703 605.156,275.977 607.818,274.646 C614.231,271.258 617.861,265.329 617.861,258.19 C617.861,245.364 606.487,236.773 589.305,236.773 C580.472,236.773 573.333,239.072 568.251,243.549 C564.258,247.058 561.838,252.14 561.838,256.738 C561.838,263.03 566.557,267.749 572.728,267.749 C578.536,267.749 582.529,263.877 582.529,258.19 C582.529,254.923 581.198,252.382 577.81,249.115 C577.205,248.51 576.963,248.147 576.963,247.663 C576.963,245.364 581.44,243.065 586.159,243.065 C593.782,243.065 598.259,248.631 598.259,258.069 C598.259,268.596 594.75,275.009 588.821,275.009 C587.853,275.009 586.643,274.888 584.707,274.404 C582.045,273.799 581.198,273.678 579.867,273.678 C576.842,273.678 575.39,275.009 575.39,277.671 C575.39,280.454 577.205,282.269 579.746,282.269 C580.593,282.269 581.319,282.148 583.376,281.906 C586.159,281.664 586.885,281.543 587.732,281.543 C595.234,281.543 598.985,287.351 598.985,298.725 C598.985,310.946 593.903,317.843 584.949,317.843 C579.867,317.843 574.543,315.302 574.543,312.761 C574.543,312.035 574.906,311.309 575.632,310.583 C579.262,307.195 580.109,305.622 580.109,302.113 C580.109,296.426 575.632,292.07 569.703,292.07 C563.169,292.07 558.813,296.789 558.813,303.565 C558.813,315.786 570.671,324.135 588.095,324.135 C596.928,324.135 605.277,321.957 610.843,318.085 C616.409,314.213 620.039,306.832 620.039,299.088 C620.039,291.465 616.651,284.81 611.085,281.543 C607.576,279.607 604.793,278.76 598.38,277.913 M674.125,272.71 C677.634,271.379 679.328,270.532 681.022,269.322 C685.741,266.055 688.403,261.094 688.403,255.407 C688.403,244.275 677.876,236.773 662.146,236.773 C643.391,236.773 631.291,246.816 631.291,262.546 C631.291,272.105 635.768,279.123 645.327,284.205 C641.576,285.415 640.003,285.899 637.946,286.988 C631.896,290.134 628.629,295.7 628.629,302.718 C628.629,315.786 640.366,324.135 658.758,324.135 C678.239,324.135 691.428,313.003 691.428,296.426 C691.428,285.052 685.862,277.55 674.125,272.71 M667.349,270.169 C662.267,268.959 658.516,267.87 656.217,267.023 C650.651,264.966 647.021,260.005 647.021,254.681 C647.021,248.026 652.587,243.065 660.089,243.065 C668.196,243.065 673.278,248.389 673.278,256.859 C673.278,262.304 671.221,266.902 667.349,270.169 M651.861,287.472 C656.822,288.803 662.872,290.618 665.897,291.586 C673.52,294.248 676.424,297.515 676.424,303.686 C676.424,311.914 669.648,317.843 660.089,317.843 C650.288,317.843 644.359,312.035 644.359,302.355 C644.359,295.942 646.416,291.828 651.861,287.472"/>
<path class="NoteDot" transform="matrix(2.0126,0,0,2.0126,2351.57,397.913)" d="M0,-0.00166016 C0,2.75977 2.23857,4.99834 5,4.99834 C7.76143,4.99834 10,2.75977 10,-0.00166016 C10,-2.76309 7.76143,-5.00166 5,-5.00166 C2.23857,-5.00166 0,-2.76309 0,-0.00166016"/>
<path class="NoteDot" transform="matrix(2.0126,0,0,2.0126,3180.12,397.913)" d="M0,-0.00166016 C0,2.75977 2.23857,4.99834 5,4.99834 C7.76143,4.99834 10,2.75977 10,-0.00166016 C10,-2.76309 7.76143,-5.00166 5,-5.00166 C2.23857,-5.00166 0,-2.76309 0,-0.00166016"/>
<path class="NoteDot" transform="matrix(2.0126,0,0,2.0126,1049.41,1248.68)" d="M0,-0.00166016 C0,2.75977 2.23857,4.99834 5,4.99834 C7.76143,4.99834 10,2.75977 10,-0.00166016 C10,-2.76309 7.76143,-5.00166 5,-5.00166 C2.23857,-5.00166 0,-2.76309 0,-0.00166016"/>
<path class="NoteDot" transform="matrix(2.0126,0,0,2.0126,1836.82,1248.68)" d="M0,-0.00166016 C0,2.75977 2.23857,4.99834 5,4.99834 C7.76143,4.99834 10,2.75977 10,-0.00166016 C10,-2.76309 7.76143,-5.00166 5,-5.00166 C2.23857,-5.00166 0,-2.76309 0,-0.00166016"/>
<path class="NoteDot" transform="matrix(2.0126,0,0,2.0126,488.936,2049.13)" d="M0,-0.00166016 C0,2.75977 2.23857,4.99834 5,4.99834 C7.76143,4.99834 10,2.75977 10,-0.00166016 C10,-2.76309 7.76143,-5.00166 5,-5.00166 C2.23857,-5.00166 0,-2.76309 0,-0.00166016"/>
<path class="NoteDot" transform="matrix(2.0126,0,0,2.0126,1016.35,1998.81)" d="M0,-0.00166016 C0,2.75977 2.23857,4.99834 5,4.99834 C7.76143,4.99834 10,2.75977 10,-0.00166016 C10,-2.76309 7.76143,-5.00166 5,-5.00166 C2.23857,-5.00166 0,-2.76309 0,-0.00166016"/>
<path class="NoteDot" transform="matrix(2.0126,0,0,2.0126,2497.07,2099.44)" d="M0,-0.00166016 C0,2.75977 2.23857,4.99834 5,4.99834 C7.76143,4.99834 10,2.75977 10,-0.00166016 C10,-2.76309 7.76143,-5.00166 5,-5.00166 C2.23857,-5.00166 0,-2.76309 0,-0.00166016"/>
<path class="NoteDot" transform="matrix(2.0126,0,0,2.0126,3311.51,2149.76)" d="M0,-0.00166016 C0,2.75977 2.23857,4.99834 5,4.99834 C7.76143,4.99834 10,2.75977 10,-0.00166016 C10,-2.76309 7.76143,-5.00166 5,-5.00166 C2.23857,-5.00166 0,-2.76309 0,-0.00166016"/>
</svg>
