<?xml version="1.0" encoding="UTF-8" standalone="no"?>
<svg width="4208.47px" height="2409.45px" viewBox="0 0 4208.47 2409.45"
 xmlns="http://www.w3.org/2000/svg" xmlns:xlink="http://www.w3.org/1999/xlink" version="1.2" baseProfile="tiny">
<title>SAX ALTO</title>
<desc>Generated by MuseScore 3.6.2</desc>
<polyline class="StaffLines" fill="none" stroke="#000000" stroke-width="5.85" stroke-linejoin="bevel" points="70.866,473.275 4137.61,473.275"/>
<polyline class="StaffLines" fill="none" stroke="#000000" stroke-width="5.85" stroke-linejoin="bevel" points="70.866,526.425 4137.61,526.425"/>
<polyline class="StaffLines" fill="none" stroke="#000000" stroke-width="5.85" stroke-linejoin="bevel" points="70.866,579.574 4137.61,579.574"/>
<polyline class="StaffLines" fill="none" stroke="#000000" stroke-width="5.85" stroke-linejoin="bevel" points="70.866,632.724 4137.61,632.724"/>
<polyline class="StaffLines" fill="none" stroke="#000000" stroke-width="5.85" stroke-linejoin="bevel" points="70.866,685.874 4137.61,685.874"/>
<polyline class="StaffLines" fill="none" stroke="#000000" stroke-width="5.85" stroke-linejoin="bevel" points="70.866,1275.16 4137.61,1275.16"/>
<polyline class="StaffLines" fill="none" stroke="#000000" stroke-width="5.85" stroke-linejoin="bevel" points="70.866,1328.3 4137.61,1328.3"/>
<polyline class="StaffLines" fill="none" stroke="#000000" stroke-width="5.85" stroke-linejoin="bevel" points="70.866,1381.45 4137.61,1381.45"/>
<polyline class="StaffLines" fill="none" stroke="#000000" stroke-width="5.85" stroke-linejoin="bevel" points="70.866,1434.6 4137.61,1434.6"/>
<polyline class="StaffLines" fill="none" stroke="#000000" stroke-width="5.85" stroke-linejoin="bevel" points="70.866,1487.75 4137.61,1487.75"/>
<polyline class="StaffLines" fill="none" stroke="#000000" stroke-width="5.85" stroke-linejoin="bevel" points="70.866,2077.04 4137.61,2077.04"/>
<polyline class="StaffLines" fill="none" stroke="#000000" stroke-width="5.85" stroke-linejoin="bevel" points="70.866,2130.18 4137.61,2130.18"/>
<polyline class="StaffLines" fill="none" stroke="#000000" stroke-width="5.85" stroke-linejoin="bevel" points="70.866,2183.33 4137.61,2183.33"/>
<polyline class="StaffLines" fill="none" stroke="#000000" stroke-width="5.85" stroke-linejoin="bevel" points="70.866,2236.48 4137.61,2236.48"/>
<polyline class="StaffLines" fill="none" stroke="#000000" stroke-width="5.85" stroke-linejoin="bevel" points="70.866,2289.63 4137.61,2289.63"/>
<path class="MeasureNumber" d="M75.1898,1153.54 C73.9497,1154.3 73.5897,1154.78 73.5897,1155.58 C73.5897,1156.34 74.2297,1156.9 75.0298,1156.9 C76.0697,1156.9 76.6697,1156.14 76.7897,1154.66 C78.0298,1153.66 79.3498,1153.22 80.9497,1153.22 C83.9098,1153.22 85.5498,1155.06 85.5498,1158.38 C85.5498,1163.58 82.1898,1167.82 78.0697,1167.82 C75.7097,1167.82 73.7897,1166.7 73.7897,1165.38 C73.7897,1165.14 73.8298,1165.06 74.0298,1164.94 C75.0697,1164.46 75.0697,1164.46 75.3498,1164.26 C75.9898,1163.78 76.3498,1163.06 76.3498,1162.22 C76.3498,1160.94 75.3498,1159.98 73.9497,1159.98 C72.1898,1159.98 70.8697,1161.46 70.8697,1163.38 C70.8697,1166.9 73.9098,1169.46 78.1898,1169.46 C84.6697,1169.46 89.9098,1164.3 89.9098,1157.9 C89.9098,1153.86 86.8298,1151.02 82.4698,1151.02 C80.7498,1151.02 79.3498,1151.38 77.4297,1152.34 L79.6697,1144.78 C81.7897,1145.22 83.4698,1145.42 84.9098,1145.42 C87.5498,1145.42 89.9098,1144.58 91.2297,1143.18 C91.9098,1142.38 92.3098,1141.7 92.3098,1141.18 C92.3098,1140.94 92.1898,1140.7 92.0298,1140.7 C91.9098,1140.7 91.8298,1140.74 91.5897,1140.86 C90.2698,1141.5 88.5897,1141.86 87.0298,1141.86 C84.6298,1141.86 81.7897,1141.46 78.8298,1140.7 L75.1898,1153.54 "/>
<path class="MeasureNumber" d="M85.5935,1955.94 C87.4335,1955.06 88.2735,1954.58 88.9935,1954.02 C90.7135,1952.7 91.6335,1950.86 91.6335,1948.82 C91.6335,1945.18 88.5535,1942.58 84.2735,1942.58 C79.1135,1942.58 75.1135,1946.3 75.1135,1951.14 C75.1135,1953.58 75.9535,1955.14 78.1135,1956.7 C73.3935,1958.5 70.8735,1961.42 70.8735,1965.06 C70.8735,1968.94 74.0735,1971.34 79.1935,1971.34 C85.3535,1971.34 89.7535,1967.58 89.7535,1962.38 C89.7535,1960.9 89.2735,1959.46 88.3935,1958.3 C87.7935,1957.5 87.0735,1956.9 85.5935,1955.94 M83.8735,1954.98 C79.7935,1953.06 78.3135,1951.5 78.3135,1949.22 C78.3135,1946.46 80.7935,1944.3 83.9535,1944.3 C86.7135,1944.3 88.6335,1946.06 88.6335,1948.58 C88.6335,1950.22 87.8735,1952.02 86.5535,1953.3 C85.7935,1954.06 85.1935,1954.46 83.8735,1954.98 M79.6335,1957.78 C81.5535,1958.66 82.1935,1958.98 83.1935,1959.58 C85.1935,1960.78 86.2735,1962.38 86.2735,1964.18 C86.2735,1967.26 83.3935,1969.58 79.6335,1969.58 C76.2335,1969.58 74.1135,1967.66 74.1135,1964.58 C74.1135,1961.58 76.0335,1959.22 79.6335,1957.78"/>
<path class="Note" transform="matrix(2.12598,0,0,2.12598,3101.93,420.126)" d="M31.5,-8.1 C29.7,-11.4 25.9,-13.2 21.3,-13.2 C17.9,-13.2 14.2,-12.2 10.6,-10.3 C4,-6.8 0,-0.9 0,4.2 C0,5.6 0.3,7 1,8.3 C2.8,11.6 6.6,13.3 11.2,13.3 C14.6,13.3 18.3,12.4 21.9,10.5 C28.5,7 32.5,1.1 32.5,-4 C32.5,-5.4 32.2,-6.8 31.5,-8.1"/>
<path class="Note" transform="matrix(2.12598,0,0,2.12598,3258.84,420.126)" d="M31.5,-8.1 C29.7,-11.4 25.9,-13.2 21.3,-13.2 C17.9,-13.2 14.2,-12.2 10.6,-10.3 C4,-6.8 0,-0.9 0,4.2 C0,5.6 0.3,7 1,8.3 C2.8,11.6 6.6,13.3 11.2,13.3 C14.6,13.3 18.3,12.4 21.9,10.5 C28.5,7 32.5,1.1 32.5,-4 C32.5,-5.4 32.2,-6.8 31.5,-8.1"/>
<path class="Note" transform="matrix(2.12598,0,0,2.12598,3415.75,366.976)" d="M31.5,-8.1 C29.7,-11.4 25.9,-13.2 21.3,-13.2 C17.9,-13.2 14.2,-12.2 10.6,-10.3 C4,-6.8 0,-0.9 0,4.2 C0,5.6 0.3,7 1,8.3 C2.8,11.6 6.6,13.3 11.2,13.3 C14.6,13.3 18.3,12.4 21.9,10.5 C28.5,7 32.5,1.1 32.5,-4 C32.5,-5.4 32.2,-6.8 31.5,-8.1"/>
<path class="Note" transform="matrix(2.12598,0,0,2.12598,3572.65,366.976)" d="M31.5,-8.1 C29.7,-11.4 25.9,-13.2 21.3,-13.2 C17.9,-13.2 14.2,-12.2 10.6,-10.3 C4,-6.8 0,-0.9 0,4.2 C0,5.6 0.3,7 1,8.3 C2.8,11.6 6.6,13.3 11.2,13.3 C14.6,13.3 18.3,12.4 21.9,10.5 C28.5,7 32.5,1.1 32.5,-4 C32.5,-5.4 32.2,-6.8 31.5,-8.1"/>
<path class="Note" transform="matrix(2.12598,0,0,2.12598,3729.56,420.126)" d="M31.5,-8.1 C29.7,-11.4 25.9,-13.2 21.3,-13.2 C17.9,-13.2 14.2,-12.2 10.6,-10.3 C4,-6.8 0,-0.9 0,4.2 C0,5.6 0.3,7 1,8.3 C2.8,11.6 6.6,13.3 11.2,13.3 C14.6,13.3 18.3,12.4 21.9,10.5 C28.5,7 32.5,1.1 32.5,-4 C32.5,-5.4 32.2,-6.8 31.5,-8.1"/>
<path class="TieSegment" stroke="#000000" stroke-width="3.72" stroke-linecap="round" stroke-linejoin="round" fill-rule="evenodd" d="M1254.92,1261.87 C1318.54,1206.08 1509.39,1206.08 1573.01,1261.87 C1509.39,1220.96 1318.54,1220.96 1254.92,1261.87"/>
<path class="TieSegment" stroke="#000000" stroke-width="3.72" stroke-linecap="round" stroke-linejoin="round" fill-rule="evenodd" d="M2681.86,1280.77 C2728.54,1237.85 2868.6,1237.85 2915.29,1280.77 C2868.6,1252.73 2728.54,1252.73 2681.86,1280.77"/>
<path class="TieSegment" stroke="#000000" stroke-width="3.72" stroke-linecap="round" stroke-linejoin="round" fill-rule="evenodd" d="M4024.14,1270.11 C4046.83,1241.41 4114.91,1241.41 4137.61,1270.11 C4114.91,1256.29 4046.83,1256.29 4024.14,1270.11"/>
<path class="TieSegment" stroke="#000000" stroke-width="3.72" stroke-linecap="round" stroke-linejoin="round" fill-rule="evenodd" d="M302.565,2071.99 C328.684,2043.29 407.039,2043.29 433.158,2071.99 C407.039,2058.17 328.684,2058.17 302.565,2071.99"/>
<path class="TieSegment" stroke="#000000" stroke-width="3.72" stroke-linecap="round" stroke-linejoin="round" fill-rule="evenodd" d="M1497.74,2249.77 C1544.41,2277.79 1684.4,2277.79 1731.06,2249.77 C1684.4,2292.68 1544.41,2292.68 1497.74,2249.77"/>
<polyline class="BarLine" stroke="#000000" stroke-width="9.57" stroke-linejoin="bevel" points="1347.49,470.352 1347.49,688.797"/>
<polyline class="BarLine" stroke="#000000" stroke-width="9.57" stroke-linejoin="bevel" points="1828.95,470.352 1828.95,688.797"/>
<polyline class="BarLine" stroke="#000000" stroke-width="9.57" stroke-linejoin="bevel" points="2750.42,470.352 2750.42,688.797"/>
<path class="BarLine" transform="matrix(2.12598,0,0,2.12598,4043.38,553)" d="M10.4,0 C10.4,-2.9 8.1,-5.3 5.2,-5.3 C2.3,-5.3 0,-2.9 0,0 C0,2.9 2.3,5.3 5.2,5.3 C8.1,5.3 10.4,2.9 10.4,0"/>
<path class="BarLine" transform="matrix(2.12598,0,0,2.12598,4043.38,606.149)" d="M10.4,0 C10.4,-2.9 8.1,-5.3 5.2,-5.3 C2.3,-5.3 0,-2.9 0,0 C0,2.9 2.3,5.3 5.2,5.3 C8.1,5.3 10.4,2.9 10.4,0"/>
<polyline class="BarLine" stroke="#000000" stroke-width="9.57" stroke-linejoin="bevel" points="4091.64,470.352 4091.64,688.797"/>
<polyline class="BarLine" stroke="#000000" stroke-width="29.23" stroke-linejoin="bevel" points="4128.84,470.352 4128.84,688.797"/>
<polyline class="BarLine" stroke="#000000" stroke-width="29.23" stroke-linejoin="bevel" points="1373.44,1272.23 1373.44,1490.68"/>
<polyline class="BarLine" stroke="#000000" stroke-width="9.57" stroke-linejoin="bevel" points="1410.64,1272.23 1410.64,1490.68"/>
<path class="BarLine" transform="matrix(2.12598,0,0,2.12598,1436.79,1354.88)" d="M10.4,0 C10.4,-2.9 8.1,-5.3 5.2,-5.3 C2.3,-5.3 0,-2.9 0,0 C0,2.9 2.3,5.3 5.2,5.3 C8.1,5.3 10.4,2.9 10.4,0"/>
<path class="BarLine" transform="matrix(2.12598,0,0,2.12598,1436.79,1408.03)" d="M10.4,0 C10.4,-2.9 8.1,-5.3 5.2,-5.3 C2.3,-5.3 0,-2.9 0,0 C0,2.9 2.3,5.3 5.2,5.3 C8.1,5.3 10.4,2.9 10.4,0"/>
<polyline class="BarLine" stroke="#000000" stroke-width="9.57" stroke-linejoin="bevel" points="2790.54,1272.23 2790.54,1490.68"/>
<polyline class="BarLine" stroke="#000000" stroke-width="9.57" stroke-linejoin="bevel" points="4132.82,1272.23 4132.82,1490.68"/>
<polyline class="BarLine" stroke="#000000" stroke-width="9.57" stroke-linejoin="bevel" points="1606.43,2074.11 1606.43,2292.56"/>
<path class="BarLine" transform="matrix(2.12598,0,0,2.12598,2774.94,2156.76)" d="M10.4,0 C10.4,-2.9 8.1,-5.3 5.2,-5.3 C2.3,-5.3 0,-2.9 0,0 C0,2.9 2.3,5.3 5.2,5.3 C8.1,5.3 10.4,2.9 10.4,0"/>
<path class="BarLine" transform="matrix(2.12598,0,0,2.12598,2774.94,2209.91)" d="M10.4,0 C10.4,-2.9 8.1,-5.3 5.2,-5.3 C2.3,-5.3 0,-2.9 0,0 C0,2.9 2.3,5.3 5.2,5.3 C8.1,5.3 10.4,2.9 10.4,0"/>
<polyline class="BarLine" stroke="#000000" stroke-width="9.57" stroke-linejoin="bevel" points="2823.2,2074.11 2823.2,2292.56"/>
<polyline class="BarLine" stroke="#000000" stroke-width="29.23" stroke-linejoin="bevel" points="2860.4,2074.11 2860.4,2292.56"/>
<polyline class="BarLine" stroke="#000000" stroke-width="9.57" stroke-linejoin="bevel" points="4085.79,2074.11 4085.79,2292.56"/>
<polyline class="BarLine" stroke="#000000" stroke-width="29.23" stroke-linejoin="bevel" points="4122.99,2074.11 4122.99,2292.56"/>
<polyline class="LedgerLine" stroke="#000000" stroke-width="8.50" stroke-linejoin="bevel" points="507.872,420.126 614.155,420.126"/>
<polyline class="LedgerLine" stroke="#000000" stroke-width="8.50" stroke-linejoin="bevel" points="3083.32,420.126 3189.61,420.126"/>
<polyline class="LedgerLine" stroke="#000000" stroke-width="8.50" stroke-linejoin="bevel" points="3240.23,420.126 3346.52,420.126"/>
<polyline class="LedgerLine" stroke="#000000" stroke-width="8.50" stroke-linejoin="bevel" points="3397.14,420.126 3503.43,420.126"/>
<polyline class="LedgerLine" stroke="#000000" stroke-width="8.50" stroke-linejoin="bevel" points="3397.14,366.976 3503.43,366.976"/>
<polyline class="LedgerLine" stroke="#000000" stroke-width="8.50" stroke-linejoin="bevel" points="3554.05,420.126 3660.33,420.126"/>
<polyline class="LedgerLine" stroke="#000000" stroke-width="8.50" stroke-linejoin="bevel" points="3554.05,366.976 3660.33,366.976"/>
<polyline class="LedgerLine" stroke="#000000" stroke-width="8.50" stroke-linejoin="bevel" points="3710.96,420.126 3817.24,420.126"/>
<polyline class="LedgerLine" stroke="#000000" stroke-width="8.50" stroke-linejoin="bevel" points="3180.74,2023.89 3287.03,2023.89"/>
<polyline class="LedgerLine" stroke="#000000" stroke-width="8.50" stroke-linejoin="bevel" points="3327.31,2023.89 3433.6,2023.89"/>
<polyline class="LedgerLine" stroke="#000000" stroke-width="8.50" stroke-linejoin="bevel" points="3473.88,2023.89 3580.17,2023.89"/>
<polyline class="LedgerLine" stroke="#000000" stroke-width="8.50" stroke-linejoin="bevel" points="3473.88,1970.74 3580.17,1970.74"/>
<polyline class="LedgerLine" stroke="#000000" stroke-width="8.50" stroke-linejoin="bevel" points="3620.46,2023.89 3726.74,2023.89"/>
<polyline class="LedgerLine" stroke="#000000" stroke-width="8.50" stroke-linejoin="bevel" points="3620.46,1970.74 3726.74,1970.74"/>
<polyline class="LedgerLine" stroke="#000000" stroke-width="8.50" stroke-linejoin="bevel" points="3767.03,2023.89 3873.31,2023.89"/>
<polyline class="Stem" stroke="#000000" stroke-width="5.85" stroke-linejoin="bevel" points="529.398,427.269 529.398,606.149"/>
<polyline class="Stem" stroke="#000000" stroke-width="5.85" stroke-linejoin="bevel" points="898.746,506.993 898.746,685.874"/>
<polyline class="Stem" stroke="#000000" stroke-width="5.85" stroke-linejoin="bevel" points="1033.05,453.844 1033.05,632.724"/>
<polyline class="Stem" stroke="#000000" stroke-width="5.85" stroke-linejoin="bevel" points="1196.82,506.993 1196.82,685.874"/>
<polyline class="Stem" stroke="#000000" stroke-width="5.85" stroke-linejoin="bevel" points="1450.86,533.568 1450.86,705.805"/>
<polyline class="Stem" stroke="#000000" stroke-width="5.85" stroke-linejoin="bevel" points="1932.33,533.568 1932.33,705.805"/>
<polyline class="Stem" stroke="#000000" stroke-width="5.85" stroke-linejoin="bevel" points="2301.68,560.143 2301.68,739.023"/>
<polyline class="Stem" stroke="#000000" stroke-width="5.85" stroke-linejoin="bevel" points="2435.99,506.993 2435.99,685.874"/>
<polyline class="Stem" stroke="#000000" stroke-width="5.85" stroke-linejoin="bevel" points="2599.76,560.143 2599.76,725.736"/>
<polyline class="Stem" stroke="#000000" stroke-width="5.85" stroke-linejoin="bevel" points="2917.03,599.346 2917.03,433.413"/>
<polyline class="Stem" stroke="#000000" stroke-width="5.85" stroke-linejoin="bevel" points="3104.85,427.269 3104.85,579.574"/>
<polyline class="Stem" stroke="#000000" stroke-width="5.85" stroke-linejoin="bevel" points="3261.76,427.269 3261.76,579.574"/>
<polyline class="Stem" stroke="#000000" stroke-width="5.85" stroke-linejoin="bevel" points="3418.67,374.119 3418.67,539.712"/>
<polyline class="Stem" stroke="#000000" stroke-width="5.85" stroke-linejoin="bevel" points="3575.58,374.119 3575.58,553"/>
<polyline class="Stem" stroke="#000000" stroke-width="5.85" stroke-linejoin="bevel" points="3732.49,427.269 3732.49,566.287"/>
<polyline class="Stem" stroke="#000000" stroke-width="5.85" stroke-linejoin="bevel" points="475.019,1401.23 475.019,1235.29"/>
<polyline class="Stem" stroke="#000000" stroke-width="5.85" stroke-linejoin="bevel" points="864.966,1415.17 864.966,1594.05"/>
<polyline class="Stem" stroke="#000000" stroke-width="5.85" stroke-linejoin="bevel" points="971.249,1362.02 971.249,1573.76"/>
<polyline class="Stem" stroke="#000000" stroke-width="5.85" stroke-linejoin="bevel" points="1092.1,1335.45 1092.1,1550.69"/>
<polyline class="Stem" stroke="#000000" stroke-width="5.85" stroke-linejoin="bevel" points="1212.94,1308.87 1212.94,1527.62"/>
<polyline class="Stem" stroke="#000000" stroke-width="5.85" stroke-linejoin="bevel" points="1551.76,1308.87 1551.76,1487.75"/>
<polyline class="Stem" stroke="#000000" stroke-width="5.85" stroke-linejoin="bevel" points="1658.04,1308.87 1658.04,1474.47"/>
<polyline class="Stem" stroke="#000000" stroke-width="5.85" stroke-linejoin="bevel" points="1801.16,1335.45 1801.16,1487.75"/>
<polyline class="Stem" stroke="#000000" stroke-width="5.85" stroke-linejoin="bevel" points="1907.44,1308.87 1907.44,1487.75"/>
<polyline class="Stem" stroke="#000000" stroke-width="5.85" stroke-linejoin="bevel" points="2247.36,1415.17 2247.36,1580.77"/>
<polyline class="Stem" stroke="#000000" stroke-width="5.85" stroke-linejoin="bevel" points="2353.64,1362.02 2353.64,1566.37"/>
<polyline class="Stem" stroke="#000000" stroke-width="5.85" stroke-linejoin="bevel" points="2496.76,1308.87 2496.76,1547"/>
<polyline class="Stem" stroke="#000000" stroke-width="5.85" stroke-linejoin="bevel" points="2639.88,1335.45 2639.88,1527.62"/>
<polyline class="Stem" stroke="#000000" stroke-width="5.85" stroke-linejoin="bevel" points="2894.04,1335.45 2894.04,1514.33"/>
<polyline class="Stem" stroke="#000000" stroke-width="5.85" stroke-linejoin="bevel" points="3000.32,1335.45 3000.32,1527.62"/>
<polyline class="Stem" stroke="#000000" stroke-width="5.85" stroke-linejoin="bevel" points="3143.44,1362.02 3143.44,1540.9"/>
<polyline class="Stem" stroke="#000000" stroke-width="5.85" stroke-linejoin="bevel" points="3249.72,1335.45 3249.72,1507.68"/>
<polyline class="Stem" stroke="#000000" stroke-width="5.85" stroke-linejoin="bevel" points="3589.63,1415.17 3589.63,1580.77"/>
<polyline class="Stem" stroke="#000000" stroke-width="5.85" stroke-linejoin="bevel" points="3695.92,1362.02 3695.92,1566.37"/>
<polyline class="Stem" stroke="#000000" stroke-width="5.85" stroke-linejoin="bevel" points="3839.04,1308.87 3839.04,1547"/>
<polyline class="Stem" stroke="#000000" stroke-width="5.85" stroke-linejoin="bevel" points="3982.16,1335.45 3982.16,1527.62"/>
<polyline class="Stem" stroke="#000000" stroke-width="5.85" stroke-linejoin="bevel" points="411.904,2137.33 411.904,2316.21"/>
<polyline class="Stem" stroke="#000000" stroke-width="5.85" stroke-linejoin="bevel" points="518.186,2137.33 518.186,2329.5"/>
<polyline class="Stem" stroke="#000000" stroke-width="5.85" stroke-linejoin="bevel" points="653.073,2163.9 653.073,2342.78"/>
<polyline class="Stem" stroke="#000000" stroke-width="5.85" stroke-linejoin="bevel" points="759.356,2137.33 759.356,2309.56"/>
<polyline class="Stem" stroke="#000000" stroke-width="5.85" stroke-linejoin="bevel" points="1079.71,2137.33 1079.71,2316.21"/>
<polyline class="Stem" stroke="#000000" stroke-width="5.85" stroke-linejoin="bevel" points="1277.83,2149.96 1277.83,1984.02"/>
<polyline class="Stem" stroke="#000000" stroke-width="5.85" stroke-linejoin="bevel" points="1412.72,2229.68 1412.72,2006.32"/>
<polyline class="Stem" stroke="#000000" stroke-width="5.85" stroke-linejoin="bevel" points="1519,2203.11 1519,2023.89"/>
<polyline class="Stem" stroke="#000000" stroke-width="5.85" stroke-linejoin="bevel" points="1773.04,2203.11 1773.04,2037.17"/>
<polyline class="Stem" stroke="#000000" stroke-width="5.85" stroke-linejoin="bevel" points="2270.62,2217.05 2270.62,2395.93"/>
<polyline class="Stem" stroke="#000000" stroke-width="5.85" stroke-linejoin="bevel" points="2376.9,2163.9 2376.9,2376.23"/>
<polyline class="Stem" stroke="#000000" stroke-width="5.85" stroke-linejoin="bevel" points="2502.98,2137.33 2502.98,2352.86"/>
<polyline class="Stem" stroke="#000000" stroke-width="5.85" stroke-linejoin="bevel" points="2629.06,2110.75 2629.06,2329.5"/>
<polyline class="Stem" stroke="#000000" stroke-width="5.85" stroke-linejoin="bevel" points="3030.99,2203.11 3030.99,2037.17"/>
<polyline class="Stem" stroke="#000000" stroke-width="5.85" stroke-linejoin="bevel" points="3202.27,2031.03 3202.27,2183.33"/>
<polyline class="Stem" stroke="#000000" stroke-width="5.85" stroke-linejoin="bevel" points="3348.84,2031.03 3348.84,2183.33"/>
<polyline class="Stem" stroke="#000000" stroke-width="5.85" stroke-linejoin="bevel" points="3495.41,1977.88 3495.41,2143.47"/>
<polyline class="Stem" stroke="#000000" stroke-width="5.85" stroke-linejoin="bevel" points="3641.98,1977.88 3641.98,2156.76"/>
<polyline class="Stem" stroke="#000000" stroke-width="5.85" stroke-linejoin="bevel" points="3788.55,2031.03 3788.55,2170.05"/>
<path class="Note" transform="matrix(2.12598,0,0,2.12598,526.474,420.126)" d="M31.5,-8.1 C29.7,-11.4 25.9,-13.2 21.3,-13.2 C17.9,-13.2 14.2,-12.2 10.6,-10.3 C4,-6.8 0,-0.9 0,4.2 C0,5.6 0.3,7 1,8.3 C2.8,11.6 6.6,13.3 11.2,13.3 C14.6,13.3 18.3,12.4 21.9,10.5 C28.5,7 32.5,1.1 32.5,-4 C32.5,-5.4 32.2,-6.8 31.5,-8.1 M27.2,-1.3 C25.5,0.4 22.1,2.5 18.5,4.5 C14.9,6.5 11.3,8 8.9,8.5 C8.4,8.6 7.9,8.7 7.4,8.7 C5.8,8.7 4.6,8.1 3.9,6.8 C3.6,6.3 3.4,5.7 3.4,5.1 C3.4,4 4.1,2.7 5.2,1.6 C6.9,-0.1 10.2,-2.2 13.8,-4.2 C17.4,-6.2 21,-7.7 23.4,-8.2 C23.9,-8.3 24.4,-8.4 24.9,-8.4 C26.5,-8.4 27.8,-7.8 28.5,-6.5 C28.8,-6 28.9,-5.4 28.9,-4.8 C28.9,-3.7 28.3,-2.5 27.2,-1.3"/>
<path class="Note" transform="matrix(2.12598,0,0,2.12598,895.823,499.85)" d="M31.5,-8.1 C29.7,-11.4 25.9,-13.2 21.3,-13.2 C17.9,-13.2 14.2,-12.2 10.6,-10.3 C4,-6.8 0,-0.9 0,4.2 C0,5.6 0.3,7 1,8.3 C2.8,11.6 6.6,13.3 11.2,13.3 C14.6,13.3 18.3,12.4 21.9,10.5 C28.5,7 32.5,1.1 32.5,-4 C32.5,-5.4 32.2,-6.8 31.5,-8.1"/>
<path class="Note" transform="matrix(2.12598,0,0,2.12598,1030.13,446.7)" d="M31.5,-8.1 C29.7,-11.4 25.9,-13.2 21.3,-13.2 C17.9,-13.2 14.2,-12.2 10.6,-10.3 C4,-6.8 0,-0.9 0,4.2 C0,5.6 0.3,7 1,8.3 C2.8,11.6 6.6,13.3 11.2,13.3 C14.6,13.3 18.3,12.4 21.9,10.5 C28.5,7 32.5,1.1 32.5,-4 C32.5,-5.4 32.2,-6.8 31.5,-8.1"/>
<path class="Note" transform="matrix(2.12598,0,0,2.12598,1193.9,499.85)" d="M31.5,-8.1 C29.7,-11.4 25.9,-13.2 21.3,-13.2 C17.9,-13.2 14.2,-12.2 10.6,-10.3 C4,-6.8 0,-0.9 0,4.2 C0,5.6 0.3,7 1,8.3 C2.8,11.6 6.6,13.3 11.2,13.3 C14.6,13.3 18.3,12.4 21.9,10.5 C28.5,7 32.5,1.1 32.5,-4 C32.5,-5.4 32.2,-6.8 31.5,-8.1"/>
<path class="Note" transform="matrix(2.12598,0,0,2.12598,1447.94,526.425)" d="M31.5,-8.1 C29.7,-11.4 25.9,-13.2 21.3,-13.2 C17.9,-13.2 14.2,-12.2 10.6,-10.3 C4,-6.8 0,-0.9 0,4.2 C0,5.6 0.3,7 1,8.3 C2.8,11.6 6.6,13.3 11.2,13.3 C14.6,13.3 18.3,12.4 21.9,10.5 C28.5,7 32.5,1.1 32.5,-4 C32.5,-5.4 32.2,-6.8 31.5,-8.1 M27.2,-1.3 C25.5,0.4 22.1,2.5 18.5,4.5 C14.9,6.5 11.3,8 8.9,8.5 C8.4,8.6 7.9,8.7 7.4,8.7 C5.8,8.7 4.6,8.1 3.9,6.8 C3.6,6.3 3.4,5.7 3.4,5.1 C3.4,4 4.1,2.7 5.2,1.6 C6.9,-0.1 10.2,-2.2 13.8,-4.2 C17.4,-6.2 21,-7.7 23.4,-8.2 C23.9,-8.3 24.4,-8.4 24.9,-8.4 C26.5,-8.4 27.8,-7.8 28.5,-6.5 C28.8,-6 28.9,-5.4 28.9,-4.8 C28.9,-3.7 28.3,-2.5 27.2,-1.3"/>
<path class="Note" transform="matrix(2.12598,0,0,2.12598,1929.41,526.425)" d="M31.5,-8.1 C29.7,-11.4 25.9,-13.2 21.3,-13.2 C17.9,-13.2 14.2,-12.2 10.6,-10.3 C4,-6.8 0,-0.9 0,4.2 C0,5.6 0.3,7 1,8.3 C2.8,11.6 6.6,13.3 11.2,13.3 C14.6,13.3 18.3,12.4 21.9,10.5 C28.5,7 32.5,1.1 32.5,-4 C32.5,-5.4 32.2,-6.8 31.5,-8.1 M27.2,-1.3 C25.5,0.4 22.1,2.5 18.5,4.5 C14.9,6.5 11.3,8 8.9,8.5 C8.4,8.6 7.9,8.7 7.4,8.7 C5.8,8.7 4.6,8.1 3.9,6.8 C3.6,6.3 3.4,5.7 3.4,5.1 C3.4,4 4.1,2.7 5.2,1.6 C6.9,-0.1 10.2,-2.2 13.8,-4.2 C17.4,-6.2 21,-7.7 23.4,-8.2 C23.9,-8.3 24.4,-8.4 24.9,-8.4 C26.5,-8.4 27.8,-7.8 28.5,-6.5 C28.8,-6 28.9,-5.4 28.9,-4.8 C28.9,-3.7 28.3,-2.5 27.2,-1.3"/>
<path class="Note" transform="matrix(2.12598,0,0,2.12598,2298.75,553)" d="M31.5,-8.1 C29.7,-11.4 25.9,-13.2 21.3,-13.2 C17.9,-13.2 14.2,-12.2 10.6,-10.3 C4,-6.8 0,-0.9 0,4.2 C0,5.6 0.3,7 1,8.3 C2.8,11.6 6.6,13.3 11.2,13.3 C14.6,13.3 18.3,12.4 21.9,10.5 C28.5,7 32.5,1.1 32.5,-4 C32.5,-5.4 32.2,-6.8 31.5,-8.1"/>
<path class="Note" transform="matrix(2.12598,0,0,2.12598,2433.06,499.85)" d="M31.5,-8.1 C29.7,-11.4 25.9,-13.2 21.3,-13.2 C17.9,-13.2 14.2,-12.2 10.6,-10.3 C4,-6.8 0,-0.9 0,4.2 C0,5.6 0.3,7 1,8.3 C2.8,11.6 6.6,13.3 11.2,13.3 C14.6,13.3 18.3,12.4 21.9,10.5 C28.5,7 32.5,1.1 32.5,-4 C32.5,-5.4 32.2,-6.8 31.5,-8.1"/>
<path class="Note" transform="matrix(2.12598,0,0,2.12598,2596.83,553)" d="M31.5,-8.1 C29.7,-11.4 25.9,-13.2 21.3,-13.2 C17.9,-13.2 14.2,-12.2 10.6,-10.3 C4,-6.8 0,-0.9 0,4.2 C0,5.6 0.3,7 1,8.3 C2.8,11.6 6.6,13.3 11.2,13.3 C14.6,13.3 18.3,12.4 21.9,10.5 C28.5,7 32.5,1.1 32.5,-4 C32.5,-5.4 32.2,-6.8 31.5,-8.1"/>
<path class="Note" transform="matrix(2.12598,0,0,2.12598,2850.87,606.149)" d="M31.5,-8.1 C29.7,-11.4 25.9,-13.2 21.3,-13.2 C17.9,-13.2 14.2,-12.2 10.6,-10.3 C4,-6.8 0,-0.9 0,4.2 C0,5.6 0.3,7 1,8.3 C2.8,11.6 6.6,13.3 11.2,13.3 C14.6,13.3 18.3,12.4 21.9,10.5 C28.5,7 32.5,1.1 32.5,-4 C32.5,-5.4 32.2,-6.8 31.5,-8.1"/>
<path class="Note" transform="matrix(2.12598,0,0,2.12598,408.864,1408.03)" d="M31.5,-8.1 C29.7,-11.4 25.9,-13.2 21.3,-13.2 C17.9,-13.2 14.2,-12.2 10.6,-10.3 C4,-6.8 0,-0.9 0,4.2 C0,5.6 0.3,7 1,8.3 C2.8,11.6 6.6,13.3 11.2,13.3 C14.6,13.3 18.3,12.4 21.9,10.5 C28.5,7 32.5,1.1 32.5,-4 C32.5,-5.4 32.2,-6.8 31.5,-8.1"/>
<path class="Note" transform="matrix(2.12598,0,0,2.12598,862.043,1408.03)" d="M31.5,-8.1 C29.7,-11.4 25.9,-13.2 21.3,-13.2 C17.9,-13.2 14.2,-12.2 10.6,-10.3 C4,-6.8 0,-0.9 0,4.2 C0,5.6 0.3,7 1,8.3 C2.8,11.6 6.6,13.3 11.2,13.3 C14.6,13.3 18.3,12.4 21.9,10.5 C28.5,7 32.5,1.1 32.5,-4 C32.5,-5.4 32.2,-6.8 31.5,-8.1"/>
<path class="Note" transform="matrix(2.12598,0,0,2.12598,968.325,1354.88)" d="M31.5,-8.1 C29.7,-11.4 25.9,-13.2 21.3,-13.2 C17.9,-13.2 14.2,-12.2 10.6,-10.3 C4,-6.8 0,-0.9 0,4.2 C0,5.6 0.3,7 1,8.3 C2.8,11.6 6.6,13.3 11.2,13.3 C14.6,13.3 18.3,12.4 21.9,10.5 C28.5,7 32.5,1.1 32.5,-4 C32.5,-5.4 32.2,-6.8 31.5,-8.1"/>
<path class="Note" transform="matrix(2.12598,0,0,2.12598,1089.17,1328.3)" d="M31.5,-8.1 C29.7,-11.4 25.9,-13.2 21.3,-13.2 C17.9,-13.2 14.2,-12.2 10.6,-10.3 C4,-6.8 0,-0.9 0,4.2 C0,5.6 0.3,7 1,8.3 C2.8,11.6 6.6,13.3 11.2,13.3 C14.6,13.3 18.3,12.4 21.9,10.5 C28.5,7 32.5,1.1 32.5,-4 C32.5,-5.4 32.2,-6.8 31.5,-8.1"/>
<path class="Note" transform="matrix(2.12598,0,0,2.12598,1210.02,1301.73)" d="M31.5,-8.1 C29.7,-11.4 25.9,-13.2 21.3,-13.2 C17.9,-13.2 14.2,-12.2 10.6,-10.3 C4,-6.8 0,-0.9 0,4.2 C0,5.6 0.3,7 1,8.3 C2.8,11.6 6.6,13.3 11.2,13.3 C14.6,13.3 18.3,12.4 21.9,10.5 C28.5,7 32.5,1.1 32.5,-4 C32.5,-5.4 32.2,-6.8 31.5,-8.1"/>
<path class="Note" transform="matrix(2.12598,0,0,2.12598,1548.83,1301.73)" d="M31.5,-8.1 C29.7,-11.4 25.9,-13.2 21.3,-13.2 C17.9,-13.2 14.2,-12.2 10.6,-10.3 C4,-6.8 0,-0.9 0,4.2 C0,5.6 0.3,7 1,8.3 C2.8,11.6 6.6,13.3 11.2,13.3 C14.6,13.3 18.3,12.4 21.9,10.5 C28.5,7 32.5,1.1 32.5,-4 C32.5,-5.4 32.2,-6.8 31.5,-8.1"/>
<path class="Note" transform="matrix(2.12598,0,0,2.12598,1655.12,1301.73)" d="M31.5,-8.1 C29.7,-11.4 25.9,-13.2 21.3,-13.2 C17.9,-13.2 14.2,-12.2 10.6,-10.3 C4,-6.8 0,-0.9 0,4.2 C0,5.6 0.3,7 1,8.3 C2.8,11.6 6.6,13.3 11.2,13.3 C14.6,13.3 18.3,12.4 21.9,10.5 C28.5,7 32.5,1.1 32.5,-4 C32.5,-5.4 32.2,-6.8 31.5,-8.1"/>
<path class="Note" transform="matrix(2.12598,0,0,2.12598,1798.24,1328.3)" d="M31.5,-8.1 C29.7,-11.4 25.9,-13.2 21.3,-13.2 C17.9,-13.2 14.2,-12.2 10.6,-10.3 C4,-6.8 0,-0.9 0,4.2 C0,5.6 0.3,7 1,8.3 C2.8,11.6 6.6,13.3 11.2,13.3 C14.6,13.3 18.3,12.4 21.9,10.5 C28.5,7 32.5,1.1 32.5,-4 C32.5,-5.4 32.2,-6.8 31.5,-8.1"/>
<path class="Note" transform="matrix(2.12598,0,0,2.12598,1904.52,1301.73)" d="M31.5,-8.1 C29.7,-11.4 25.9,-13.2 21.3,-13.2 C17.9,-13.2 14.2,-12.2 10.6,-10.3 C4,-6.8 0,-0.9 0,4.2 C0,5.6 0.3,7 1,8.3 C2.8,11.6 6.6,13.3 11.2,13.3 C14.6,13.3 18.3,12.4 21.9,10.5 C28.5,7 32.5,1.1 32.5,-4 C32.5,-5.4 32.2,-6.8 31.5,-8.1"/>
<path class="Note" transform="matrix(2.12598,0,0,2.12598,2244.43,1408.03)" d="M31.5,-8.1 C29.7,-11.4 25.9,-13.2 21.3,-13.2 C17.9,-13.2 14.2,-12.2 10.6,-10.3 C4,-6.8 0,-0.9 0,4.2 C0,5.6 0.3,7 1,8.3 C2.8,11.6 6.6,13.3 11.2,13.3 C14.6,13.3 18.3,12.4 21.9,10.5 C28.5,7 32.5,1.1 32.5,-4 C32.5,-5.4 32.2,-6.8 31.5,-8.1"/>
<path class="Note" transform="matrix(2.12598,0,0,2.12598,2350.72,1354.88)" d="M31.5,-8.1 C29.7,-11.4 25.9,-13.2 21.3,-13.2 C17.9,-13.2 14.2,-12.2 10.6,-10.3 C4,-6.8 0,-0.9 0,4.2 C0,5.6 0.3,7 1,8.3 C2.8,11.6 6.6,13.3 11.2,13.3 C14.6,13.3 18.3,12.4 21.9,10.5 C28.5,7 32.5,1.1 32.5,-4 C32.5,-5.4 32.2,-6.8 31.5,-8.1"/>
<path class="Note" transform="matrix(2.12598,0,0,2.12598,2493.84,1301.73)" d="M31.5,-8.1 C29.7,-11.4 25.9,-13.2 21.3,-13.2 C17.9,-13.2 14.2,-12.2 10.6,-10.3 C4,-6.8 0,-0.9 0,4.2 C0,5.6 0.3,7 1,8.3 C2.8,11.6 6.6,13.3 11.2,13.3 C14.6,13.3 18.3,12.4 21.9,10.5 C28.5,7 32.5,1.1 32.5,-4 C32.5,-5.4 32.2,-6.8 31.5,-8.1"/>
<path class="Note" transform="matrix(2.12598,0,0,2.12598,2636.96,1328.3)" d="M31.5,-8.1 C29.7,-11.4 25.9,-13.2 21.3,-13.2 C17.9,-13.2 14.2,-12.2 10.6,-10.3 C4,-6.8 0,-0.9 0,4.2 C0,5.6 0.3,7 1,8.3 C2.8,11.6 6.6,13.3 11.2,13.3 C14.6,13.3 18.3,12.4 21.9,10.5 C28.5,7 32.5,1.1 32.5,-4 C32.5,-5.4 32.2,-6.8 31.5,-8.1"/>
<path class="Note" transform="matrix(2.12598,0,0,2.12598,2891.11,1328.3)" d="M31.5,-8.1 C29.7,-11.4 25.9,-13.2 21.3,-13.2 C17.9,-13.2 14.2,-12.2 10.6,-10.3 C4,-6.8 0,-0.9 0,4.2 C0,5.6 0.3,7 1,8.3 C2.8,11.6 6.6,13.3 11.2,13.3 C14.6,13.3 18.3,12.4 21.9,10.5 C28.5,7 32.5,1.1 32.5,-4 C32.5,-5.4 32.2,-6.8 31.5,-8.1"/>
<path class="Note" transform="matrix(2.12598,0,0,2.12598,2997.4,1328.3)" d="M31.5,-8.1 C29.7,-11.4 25.9,-13.2 21.3,-13.2 C17.9,-13.2 14.2,-12.2 10.6,-10.3 C4,-6.8 0,-0.9 0,4.2 C0,5.6 0.3,7 1,8.3 C2.8,11.6 6.6,13.3 11.2,13.3 C14.6,13.3 18.3,12.4 21.9,10.5 C28.5,7 32.5,1.1 32.5,-4 C32.5,-5.4 32.2,-6.8 31.5,-8.1"/>
<path class="Note" transform="matrix(2.12598,0,0,2.12598,3140.52,1354.88)" d="M31.5,-8.1 C29.7,-11.4 25.9,-13.2 21.3,-13.2 C17.9,-13.2 14.2,-12.2 10.6,-10.3 C4,-6.8 0,-0.9 0,4.2 C0,5.6 0.3,7 1,8.3 C2.8,11.6 6.6,13.3 11.2,13.3 C14.6,13.3 18.3,12.4 21.9,10.5 C28.5,7 32.5,1.1 32.5,-4 C32.5,-5.4 32.2,-6.8 31.5,-8.1"/>
<path class="Note" transform="matrix(2.12598,0,0,2.12598,3246.8,1328.3)" d="M31.5,-8.1 C29.7,-11.4 25.9,-13.2 21.3,-13.2 C17.9,-13.2 14.2,-12.2 10.6,-10.3 C4,-6.8 0,-0.9 0,4.2 C0,5.6 0.3,7 1,8.3 C2.8,11.6 6.6,13.3 11.2,13.3 C14.6,13.3 18.3,12.4 21.9,10.5 C28.5,7 32.5,1.1 32.5,-4 C32.5,-5.4 32.2,-6.8 31.5,-8.1"/>
<path class="Note" transform="matrix(2.12598,0,0,2.12598,3586.71,1408.03)" d="M31.5,-8.1 C29.7,-11.4 25.9,-13.2 21.3,-13.2 C17.9,-13.2 14.2,-12.2 10.6,-10.3 C4,-6.8 0,-0.9 0,4.2 C0,5.6 0.3,7 1,8.3 C2.8,11.6 6.6,13.3 11.2,13.3 C14.6,13.3 18.3,12.4 21.9,10.5 C28.5,7 32.5,1.1 32.5,-4 C32.5,-5.4 32.2,-6.8 31.5,-8.1"/>
<path class="Note" transform="matrix(2.12598,0,0,2.12598,3692.99,1354.88)" d="M31.5,-8.1 C29.7,-11.4 25.9,-13.2 21.3,-13.2 C17.9,-13.2 14.2,-12.2 10.6,-10.3 C4,-6.8 0,-0.9 0,4.2 C0,5.6 0.3,7 1,8.3 C2.8,11.6 6.6,13.3 11.2,13.3 C14.6,13.3 18.3,12.4 21.9,10.5 C28.5,7 32.5,1.1 32.5,-4 C32.5,-5.4 32.2,-6.8 31.5,-8.1"/>
<path class="Note" transform="matrix(2.12598,0,0,2.12598,3836.12,1301.73)" d="M31.5,-8.1 C29.7,-11.4 25.9,-13.2 21.3,-13.2 C17.9,-13.2 14.2,-12.2 10.6,-10.3 C4,-6.8 0,-0.9 0,4.2 C0,5.6 0.3,7 1,8.3 C2.8,11.6 6.6,13.3 11.2,13.3 C14.6,13.3 18.3,12.4 21.9,10.5 C28.5,7 32.5,1.1 32.5,-4 C32.5,-5.4 32.2,-6.8 31.5,-8.1"/>
<path class="Note" transform="matrix(2.12598,0,0,2.12598,3979.24,1328.3)" d="M31.5,-8.1 C29.7,-11.4 25.9,-13.2 21.3,-13.2 C17.9,-13.2 14.2,-12.2 10.6,-10.3 C4,-6.8 0,-0.9 0,4.2 C0,5.6 0.3,7 1,8.3 C2.8,11.6 6.6,13.3 11.2,13.3 C14.6,13.3 18.3,12.4 21.9,10.5 C28.5,7 32.5,1.1 32.5,-4 C32.5,-5.4 32.2,-6.8 31.5,-8.1"/>
<path class="Note" transform="matrix(2.12598,0,0,2.12598,408.981,2130.18)" d="M31.5,-8.1 C29.7,-11.4 25.9,-13.2 21.3,-13.2 C17.9,-13.2 14.2,-12.2 10.6,-10.3 C4,-6.8 0,-0.9 0,4.2 C0,5.6 0.3,7 1,8.3 C2.8,11.6 6.6,13.3 11.2,13.3 C14.6,13.3 18.3,12.4 21.9,10.5 C28.5,7 32.5,1.1 32.5,-4 C32.5,-5.4 32.2,-6.8 31.5,-8.1"/>
<path class="Note" transform="matrix(2.12598,0,0,2.12598,515.263,2130.18)" d="M31.5,-8.1 C29.7,-11.4 25.9,-13.2 21.3,-13.2 C17.9,-13.2 14.2,-12.2 10.6,-10.3 C4,-6.8 0,-0.9 0,4.2 C0,5.6 0.3,7 1,8.3 C2.8,11.6 6.6,13.3 11.2,13.3 C14.6,13.3 18.3,12.4 21.9,10.5 C28.5,7 32.5,1.1 32.5,-4 C32.5,-5.4 32.2,-6.8 31.5,-8.1"/>
<path class="Note" transform="matrix(2.12598,0,0,2.12598,650.15,2156.76)" d="M31.5,-8.1 C29.7,-11.4 25.9,-13.2 21.3,-13.2 C17.9,-13.2 14.2,-12.2 10.6,-10.3 C4,-6.8 0,-0.9 0,4.2 C0,5.6 0.3,7 1,8.3 C2.8,11.6 6.6,13.3 11.2,13.3 C14.6,13.3 18.3,12.4 21.9,10.5 C28.5,7 32.5,1.1 32.5,-4 C32.5,-5.4 32.2,-6.8 31.5,-8.1"/>
<path class="Note" transform="matrix(2.12598,0,0,2.12598,756.432,2130.18)" d="M31.5,-8.1 C29.7,-11.4 25.9,-13.2 21.3,-13.2 C17.9,-13.2 14.2,-12.2 10.6,-10.3 C4,-6.8 0,-0.9 0,4.2 C0,5.6 0.3,7 1,8.3 C2.8,11.6 6.6,13.3 11.2,13.3 C14.6,13.3 18.3,12.4 21.9,10.5 C28.5,7 32.5,1.1 32.5,-4 C32.5,-5.4 32.2,-6.8 31.5,-8.1"/>
<path class="Note" transform="matrix(2.12598,0,0,2.12598,1076.79,2130.18)" d="M31.5,-8.1 C29.7,-11.4 25.9,-13.2 21.3,-13.2 C17.9,-13.2 14.2,-12.2 10.6,-10.3 C4,-6.8 0,-0.9 0,4.2 C0,5.6 0.3,7 1,8.3 C2.8,11.6 6.6,13.3 11.2,13.3 C14.6,13.3 18.3,12.4 21.9,10.5 C28.5,7 32.5,1.1 32.5,-4 C32.5,-5.4 32.2,-6.8 31.5,-8.1"/>
<path class="Note" transform="matrix(2.12598,0,0,2.12598,1211.67,2156.76)" d="M31.5,-8.1 C29.7,-11.4 25.9,-13.2 21.3,-13.2 C17.9,-13.2 14.2,-12.2 10.6,-10.3 C4,-6.8 0,-0.9 0,4.2 C0,5.6 0.3,7 1,8.3 C2.8,11.6 6.6,13.3 11.2,13.3 C14.6,13.3 18.3,12.4 21.9,10.5 C28.5,7 32.5,1.1 32.5,-4 C32.5,-5.4 32.2,-6.8 31.5,-8.1"/>
<path class="Note" transform="matrix(2.12598,0,0,2.12598,1346.56,2236.48)" d="M31.5,-8.1 C29.7,-11.4 25.9,-13.2 21.3,-13.2 C17.9,-13.2 14.2,-12.2 10.6,-10.3 C4,-6.8 0,-0.9 0,4.2 C0,5.6 0.3,7 1,8.3 C2.8,11.6 6.6,13.3 11.2,13.3 C14.6,13.3 18.3,12.4 21.9,10.5 C28.5,7 32.5,1.1 32.5,-4 C32.5,-5.4 32.2,-6.8 31.5,-8.1"/>
<path class="Note" transform="matrix(2.12598,0,0,2.12598,1452.84,2209.91)" d="M31.5,-8.1 C29.7,-11.4 25.9,-13.2 21.3,-13.2 C17.9,-13.2 14.2,-12.2 10.6,-10.3 C4,-6.8 0,-0.9 0,4.2 C0,5.6 0.3,7 1,8.3 C2.8,11.6 6.6,13.3 11.2,13.3 C14.6,13.3 18.3,12.4 21.9,10.5 C28.5,7 32.5,1.1 32.5,-4 C32.5,-5.4 32.2,-6.8 31.5,-8.1"/>
<path class="Note" transform="matrix(2.12598,0,0,2.12598,1706.88,2209.91)" d="M31.5,-8.1 C29.7,-11.4 25.9,-13.2 21.3,-13.2 C17.9,-13.2 14.2,-12.2 10.6,-10.3 C4,-6.8 0,-0.9 0,4.2 C0,5.6 0.3,7 1,8.3 C2.8,11.6 6.6,13.3 11.2,13.3 C14.6,13.3 18.3,12.4 21.9,10.5 C28.5,7 32.5,1.1 32.5,-4 C32.5,-5.4 32.2,-6.8 31.5,-8.1"/>
<path class="Note" transform="matrix(2.12598,0,0,2.12598,2267.7,2209.91)" d="M31.5,-8.1 C29.7,-11.4 25.9,-13.2 21.3,-13.2 C17.9,-13.2 14.2,-12.2 10.6,-10.3 C4,-6.8 0,-0.9 0,4.2 C0,5.6 0.3,7 1,8.3 C2.8,11.6 6.6,13.3 11.2,13.3 C14.6,13.3 18.3,12.4 21.9,10.5 C28.5,7 32.5,1.1 32.5,-4 C32.5,-5.4 32.2,-6.8 31.5,-8.1"/>
<path class="Note" transform="matrix(2.12598,0,0,2.12598,2373.98,2156.76)" d="M31.5,-8.1 C29.7,-11.4 25.9,-13.2 21.3,-13.2 C17.9,-13.2 14.2,-12.2 10.6,-10.3 C4,-6.8 0,-0.9 0,4.2 C0,5.6 0.3,7 1,8.3 C2.8,11.6 6.6,13.3 11.2,13.3 C14.6,13.3 18.3,12.4 21.9,10.5 C28.5,7 32.5,1.1 32.5,-4 C32.5,-5.4 32.2,-6.8 31.5,-8.1"/>
<path class="Note" transform="matrix(2.12598,0,0,2.12598,2500.06,2130.18)" d="M31.5,-8.1 C29.7,-11.4 25.9,-13.2 21.3,-13.2 C17.9,-13.2 14.2,-12.2 10.6,-10.3 C4,-6.8 0,-0.9 0,4.2 C0,5.6 0.3,7 1,8.3 C2.8,11.6 6.6,13.3 11.2,13.3 C14.6,13.3 18.3,12.4 21.9,10.5 C28.5,7 32.5,1.1 32.5,-4 C32.5,-5.4 32.2,-6.8 31.5,-8.1"/>
<path class="Note" transform="matrix(2.12598,0,0,2.12598,2626.14,2103.61)" d="M31.5,-8.1 C29.7,-11.4 25.9,-13.2 21.3,-13.2 C17.9,-13.2 14.2,-12.2 10.6,-10.3 C4,-6.8 0,-0.9 0,4.2 C0,5.6 0.3,7 1,8.3 C2.8,11.6 6.6,13.3 11.2,13.3 C14.6,13.3 18.3,12.4 21.9,10.5 C28.5,7 32.5,1.1 32.5,-4 C32.5,-5.4 32.2,-6.8 31.5,-8.1"/>
<path class="Note" transform="matrix(2.12598,0,0,2.12598,2964.83,2209.91)" d="M31.5,-8.1 C29.7,-11.4 25.9,-13.2 21.3,-13.2 C17.9,-13.2 14.2,-12.2 10.6,-10.3 C4,-6.8 0,-0.9 0,4.2 C0,5.6 0.3,7 1,8.3 C2.8,11.6 6.6,13.3 11.2,13.3 C14.6,13.3 18.3,12.4 21.9,10.5 C28.5,7 32.5,1.1 32.5,-4 C32.5,-5.4 32.2,-6.8 31.5,-8.1"/>
<path class="Note" transform="matrix(2.12598,0,0,2.12598,3199.35,2023.89)" d="M31.5,-8.1 C29.7,-11.4 25.9,-13.2 21.3,-13.2 C17.9,-13.2 14.2,-12.2 10.6,-10.3 C4,-6.8 0,-0.9 0,4.2 C0,5.6 0.3,7 1,8.3 C2.8,11.6 6.6,13.3 11.2,13.3 C14.6,13.3 18.3,12.4 21.9,10.5 C28.5,7 32.5,1.1 32.5,-4 C32.5,-5.4 32.2,-6.8 31.5,-8.1"/>
<path class="Note" transform="matrix(2.12598,0,0,2.12598,3345.92,2023.89)" d="M31.5,-8.1 C29.7,-11.4 25.9,-13.2 21.3,-13.2 C17.9,-13.2 14.2,-12.2 10.6,-10.3 C4,-6.8 0,-0.9 0,4.2 C0,5.6 0.3,7 1,8.3 C2.8,11.6 6.6,13.3 11.2,13.3 C14.6,13.3 18.3,12.4 21.9,10.5 C28.5,7 32.5,1.1 32.5,-4 C32.5,-5.4 32.2,-6.8 31.5,-8.1"/>
<path class="Note" transform="matrix(2.12598,0,0,2.12598,3492.49,1970.74)" d="M31.5,-8.1 C29.7,-11.4 25.9,-13.2 21.3,-13.2 C17.9,-13.2 14.2,-12.2 10.6,-10.3 C4,-6.8 0,-0.9 0,4.2 C0,5.6 0.3,7 1,8.3 C2.8,11.6 6.6,13.3 11.2,13.3 C14.6,13.3 18.3,12.4 21.9,10.5 C28.5,7 32.5,1.1 32.5,-4 C32.5,-5.4 32.2,-6.8 31.5,-8.1"/>
<path class="Note" transform="matrix(2.12598,0,0,2.12598,3639.06,1970.74)" d="M31.5,-8.1 C29.7,-11.4 25.9,-13.2 21.3,-13.2 C17.9,-13.2 14.2,-12.2 10.6,-10.3 C4,-6.8 0,-0.9 0,4.2 C0,5.6 0.3,7 1,8.3 C2.8,11.6 6.6,13.3 11.2,13.3 C14.6,13.3 18.3,12.4 21.9,10.5 C28.5,7 32.5,1.1 32.5,-4 C32.5,-5.4 32.2,-6.8 31.5,-8.1"/>
<path class="Note" transform="matrix(2.12598,0,0,2.12598,3785.63,2023.89)" d="M31.5,-8.1 C29.7,-11.4 25.9,-13.2 21.3,-13.2 C17.9,-13.2 14.2,-12.2 10.6,-10.3 C4,-6.8 0,-0.9 0,4.2 C0,5.6 0.3,7 1,8.3 C2.8,11.6 6.6,13.3 11.2,13.3 C14.6,13.3 18.3,12.4 21.9,10.5 C28.5,7 32.5,1.1 32.5,-4 C32.5,-5.4 32.2,-6.8 31.5,-8.1"/>
<path class="Clef" transform="matrix(2.12598,0,0,2.12598,113.386,632.724)" d="M63.35,-5.86992 C62.12,-11.3 59.48,-15.1199 58.7,-16.16 C55.51,-20.43 51.5,-23.28 46.81,-24.63 C43.7,-25.5199 40.7,-25.63 38.28,-25.45 C37.24,-31.46 36.24,-37.3399 35.33,-42.7899 C40.78,-48.96 44.4,-54.76 46.68,-59.06 C50.15,-65.6399 51.3,-70.2199 51.35,-70.4199 C53.07,-75.63 53.43,-83.33 52.33,-91.5399 C51.32,-99.0899 49.23,-105.8 46.88,-109.05 C45.85,-110.48 44.8,-111.21 43.76,-111.21 C42.54,-111.21 40.03,-109.97 37.14,-107.2 C34.84,-105 31.57,-101.11 29.01,-95.1 C26.01,-88.0399 25.8,-78.55 26.15,-71.83 C26.53,-64.56 27.64,-58.8699 27.65,-58.8199 C27.67,-58.73 27.93,-57.23 28.38,-54.66 C28.15,-54.43 27.91,-54.21 27.66,-53.9699 C26.62,-52.9699 25.43,-51.83 24.05,-50.45 C23.19,-49.5899 22.24,-48.68 21.24,-47.71 C12.79,-39.5699 0,-27.25 0,-8.1 C0,-3.4 0.9,1.02002 2.67998,5.03008 C4.27002,8.63008 6.57002,11.9101 9.5,14.7801 C17.23,22.3301 27.82,25.54 34.88,25.3801 C37.83,25.3101 40.46,25.07 42.85,24.62 C44.68,34.22 45.82,41.25 45.86,46.59 C45.9,53.1 44.25,57.07 40.35,59.84 C37.92,61.57 35.11,62.52 32.01,62.67 C29.42,62.79 27.16,62.32 25.73,61.9101 L25.72,61.9101 C25.72,61.9101 25.43,61.8301 25.42,61.6301 C25.41,61.45 25.76,61.4 25.77,61.4 L25.79,61.4 C27.71,60.9601 31.28,59.7301 33.64,56.4301 C35.44,53.9101 36.31,49.29 34.47,45.35 C33.36,42.9601 30.85,40.0101 25.23,39.5601 C22.74,39.3601 20.47,39.87 18.47,41.07 C16.66,42.15 15.16,43.79 14.11,45.79 C11.65,50.49 12.11,56.22 15.24,60.0601 C18.2,63.6801 22.82,65.99 28.25,66.57 C29.1,66.6601 29.95,66.7 30.8,66.7 C35.23,66.7 39.63,65.5 43.2,63.29 C46.86,60.72 48.98,56.74 49.66,51.1101 C50.22,46.47 49.83,40.5601 48.43,32.49 C48.07,30.4 47.53,27.37 46.87,23.6101 C52.62,21.69 56.78,18.12 60.55,12.27 C63.84,6.53008 64.78,0.430078 63.35,-5.86992 M29.14,20.32 C24.5,19.1 20.07,16.6 16.31,13.1 C15,11.87 13.13,9.7 11.66,6.31006 C10.29,3.15 9.62998,-0.27998 9.67998,-3.86992 C9.75,-8.55996 11.06,-13.38 13.57,-18.1699 C16.49,-23.75 21.05,-29.28 27.11,-34.61 C28.56,-35.8899 29.93,-37.1699 31.22,-38.45 C31.98,-34.1899 32.81,-29.5 33.69,-24.6199 C29.84,-23.35 25.09,-20.2 21.98,-14.55 C18.44,-7.97998 18.58,-2.45996 19.31,1.02002 C20.25,5.48008 22.78,9.24004 26.24,11.3301 C27.17,11.89 31.3,14.02 33.14,13.44 C33.51,13.32 33.78,13.1 33.92,12.77 C34.43,11.6 33.41,10.9601 31.85,10 C31.25,9.63008 30.58,9.21006 29.85,8.68008 C26.53,6.19004 25.08,1.74004 26.15,-2.63994 C26.73,-5.03994 28.01,-7.2 29.85,-8.9 C31.52,-10.45 33.56,-11.55 35.94,-12.1899 C37.98,-0.95 40.04,10.2 41.68,18.5601 C41.81,19.25 41.95,19.92 42.08,20.59 C37.7,21.52 33.35,21.4301 29.14,20.32 M40.46,-12.86 C50.81,-13.33 55.08,-5.88994 55.97,-1.05996 C56.44,1.47002 56.43,5.91006 54.89,10.12 C53.72,13.3 51.26,17.37 46.13,19.4301 C46.06,19.0101 45.98,18.5801 45.9,18.15 C44.36,9.38008 42.42,-1.60996 40.46,-12.86 M33.14,-83.8 C34.92,-89.5399 37.66,-92.7899 39.65,-94.5199 C41.4,-96.0399 43.05,-96.75 43.97,-96.75 C44.11,-96.75 44.23,-96.73 44.33,-96.7 C44.79,-96.56 45.32,-95.9899 45.79,-95.1199 C48.1,-90.83 47.36,-84.1199 46.02,-79.68 C44.39,-74.28 41.47,-68.66 32.67,-59.05 C32.5,-60.16 32.34,-61.21 32.19,-62.1899 C30.94,-70.48 31.26,-77.75 33.14,-83.8"/>
<path class="Clef" transform="matrix(2.12598,0,0,2.12598,113.386,1434.6)" d="M63.35,-5.86992 C62.12,-11.3 59.48,-15.1199 58.7,-16.16 C55.51,-20.43 51.5,-23.28 46.81,-24.63 C43.7,-25.5199 40.7,-25.63 38.28,-25.45 C37.24,-31.46 36.24,-37.3399 35.33,-42.7899 C40.78,-48.96 44.4,-54.76 46.68,-59.06 C50.15,-65.6399 51.3,-70.2199 51.35,-70.4199 C53.07,-75.63 53.43,-83.33 52.33,-91.5399 C51.32,-99.0899 49.23,-105.8 46.88,-109.05 C45.85,-110.48 44.8,-111.21 43.76,-111.21 C42.54,-111.21 40.03,-109.97 37.14,-107.2 C34.84,-105 31.57,-101.11 29.01,-95.1 C26.01,-88.0399 25.8,-78.55 26.15,-71.83 C26.53,-64.56 27.64,-58.8699 27.65,-58.8199 C27.67,-58.73 27.93,-57.23 28.38,-54.66 C28.15,-54.43 27.91,-54.21 27.66,-53.9699 C26.62,-52.9699 25.43,-51.83 24.05,-50.45 C23.19,-49.5899 22.24,-48.68 21.24,-47.71 C12.79,-39.5699 0,-27.25 0,-8.1 C0,-3.4 0.9,1.02002 2.67998,5.03008 C4.27002,8.63008 6.57002,11.9101 9.5,14.7801 C17.23,22.3301 27.82,25.54 34.88,25.3801 C37.83,25.3101 40.46,25.07 42.85,24.62 C44.68,34.22 45.82,41.25 45.86,46.59 C45.9,53.1 44.25,57.07 40.35,59.84 C37.92,61.57 35.11,62.52 32.01,62.67 C29.42,62.79 27.16,62.32 25.73,61.9101 L25.72,61.9101 C25.72,61.9101 25.43,61.8301 25.42,61.6301 C25.41,61.45 25.76,61.4 25.77,61.4 L25.79,61.4 C27.71,60.9601 31.28,59.7301 33.64,56.4301 C35.44,53.9101 36.31,49.29 34.47,45.35 C33.36,42.9601 30.85,40.0101 25.23,39.5601 C22.74,39.3601 20.47,39.87 18.47,41.07 C16.66,42.15 15.16,43.79 14.11,45.79 C11.65,50.49 12.11,56.22 15.24,60.0601 C18.2,63.6801 22.82,65.99 28.25,66.57 C29.1,66.6601 29.95,66.7 30.8,66.7 C35.23,66.7 39.63,65.5 43.2,63.29 C46.86,60.72 48.98,56.74 49.66,51.1101 C50.22,46.47 49.83,40.5601 48.43,32.49 C48.07,30.4 47.53,27.37 46.87,23.6101 C52.62,21.69 56.78,18.12 60.55,12.27 C63.84,6.53008 64.78,0.430078 63.35,-5.86992 M29.14,20.32 C24.5,19.1 20.07,16.6 16.31,13.1 C15,11.87 13.13,9.7 11.66,6.31006 C10.29,3.15 9.62998,-0.27998 9.67998,-3.86992 C9.75,-8.55996 11.06,-13.38 13.57,-18.1699 C16.49,-23.75 21.05,-29.28 27.11,-34.61 C28.56,-35.8899 29.93,-37.1699 31.22,-38.45 C31.98,-34.1899 32.81,-29.5 33.69,-24.6199 C29.84,-23.35 25.09,-20.2 21.98,-14.55 C18.44,-7.97998 18.58,-2.45996 19.31,1.02002 C20.25,5.48008 22.78,9.24004 26.24,11.3301 C27.17,11.89 31.3,14.02 33.14,13.44 C33.51,13.32 33.78,13.1 33.92,12.77 C34.43,11.6 33.41,10.9601 31.85,10 C31.25,9.63008 30.58,9.21006 29.85,8.68008 C26.53,6.19004 25.08,1.74004 26.15,-2.63994 C26.73,-5.03994 28.01,-7.2 29.85,-8.9 C31.52,-10.45 33.56,-11.55 35.94,-12.1899 C37.98,-0.95 40.04,10.2 41.68,18.5601 C41.81,19.25 41.95,19.92 42.08,20.59 C37.7,21.52 33.35,21.4301 29.14,20.32 M40.46,-12.86 C50.81,-13.33 55.08,-5.88994 55.97,-1.05996 C56.44,1.47002 56.43,5.91006 54.89,10.12 C53.72,13.3 51.26,17.37 46.13,19.4301 C46.06,19.0101 45.98,18.5801 45.9,18.15 C44.36,9.38008 42.42,-1.60996 40.46,-12.86 M33.14,-83.8 C34.92,-89.5399 37.66,-92.7899 39.65,-94.5199 C41.4,-96.0399 43.05,-96.75 43.97,-96.75 C44.11,-96.75 44.23,-96.73 44.33,-96.7 C44.79,-96.56 45.32,-95.9899 45.79,-95.1199 C48.1,-90.83 47.36,-84.1199 46.02,-79.68 C44.39,-74.28 41.47,-68.66 32.67,-59.05 C32.5,-60.16 32.34,-61.21 32.19,-62.1899 C30.94,-70.48 31.26,-77.75 33.14,-83.8"/>
<path class="Clef" transform="matrix(2.12598,0,0,2.12598,113.386,2236.48)" d="M63.35,-5.86992 C62.12,-11.3 59.48,-15.1199 58.7,-16.16 C55.51,-20.43 51.5,-23.28 46.81,-24.63 C43.7,-25.5199 40.7,-25.63 38.28,-25.45 C37.24,-31.46 36.24,-37.3399 35.33,-42.7899 C40.78,-48.96 44.4,-54.76 46.68,-59.06 C50.15,-65.6399 51.3,-70.2199 51.35,-70.4199 C53.07,-75.63 53.43,-83.33 52.33,-91.5399 C51.32,-99.0899 49.23,-105.8 46.88,-109.05 C45.85,-110.48 44.8,-111.21 43.76,-111.21 C42.54,-111.21 40.03,-109.97 37.14,-107.2 C34.84,-105 31.57,-101.11 29.01,-95.1 C26.01,-88.0399 25.8,-78.55 26.15,-71.83 C26.53,-64.56 27.64,-58.8699 27.65,-58.8199 C27.67,-58.73 27.93,-57.23 28.38,-54.66 C28.15,-54.43 27.91,-54.21 27.66,-53.9699 C26.62,-52.9699 25.43,-51.83 24.05,-50.45 C23.19,-49.5899 22.24,-48.68 21.24,-47.71 C12.79,-39.5699 0,-27.25 0,-8.1 C0,-3.4 0.9,1.02002 2.67998,5.03008 C4.27002,8.63008 6.57002,11.9101 9.5,14.7801 C17.23,22.3301 27.82,25.54 34.88,25.3801 C37.83,25.3101 40.46,25.07 42.85,24.62 C44.68,34.22 45.82,41.25 45.86,46.59 C45.9,53.1 44.25,57.07 40.35,59.84 C37.92,61.57 35.11,62.52 32.01,62.67 C29.42,62.79 27.16,62.32 25.73,61.9101 L25.72,61.9101 C25.72,61.9101 25.43,61.8301 25.42,61.6301 C25.41,61.45 25.76,61.4 25.77,61.4 L25.79,61.4 C27.71,60.9601 31.28,59.7301 33.64,56.4301 C35.44,53.9101 36.31,49.29 34.47,45.35 C33.36,42.9601 30.85,40.0101 25.23,39.5601 C22.74,39.3601 20.47,39.87 18.47,41.07 C16.66,42.15 15.16,43.79 14.11,45.79 C11.65,50.49 12.11,56.22 15.24,60.0601 C18.2,63.6801 22.82,65.99 28.25,66.57 C29.1,66.6601 29.95,66.7 30.8,66.7 C35.23,66.7 39.63,65.5 43.2,63.29 C46.86,60.72 48.98,56.74 49.66,51.1101 C50.22,46.47 49.83,40.5601 48.43,32.49 C48.07,30.4 47.53,27.37 46.87,23.6101 C52.62,21.69 56.78,18.12 60.55,12.27 C63.84,6.53008 64.78,0.430078 63.35,-5.86992 M29.14,20.32 C24.5,19.1 20.07,16.6 16.31,13.1 C15,11.87 13.13,9.7 11.66,6.31006 C10.29,3.15 9.62998,-0.27998 9.67998,-3.86992 C9.75,-8.55996 11.06,-13.38 13.57,-18.1699 C16.49,-23.75 21.05,-29.28 27.11,-34.61 C28.56,-35.8899 29.93,-37.1699 31.22,-38.45 C31.98,-34.1899 32.81,-29.5 33.69,-24.6199 C29.84,-23.35 25.09,-20.2 21.98,-14.55 C18.44,-7.97998 18.58,-2.45996 19.31,1.02002 C20.25,5.48008 22.78,9.24004 26.24,11.3301 C27.17,11.89 31.3,14.02 33.14,13.44 C33.51,13.32 33.78,13.1 33.92,12.77 C34.43,11.6 33.41,10.9601 31.85,10 C31.25,9.63008 30.58,9.21006 29.85,8.68008 C26.53,6.19004 25.08,1.74004 26.15,-2.63994 C26.73,-5.03994 28.01,-7.2 29.85,-8.9 C31.52,-10.45 33.56,-11.55 35.94,-12.1899 C37.98,-0.95 40.04,10.2 41.68,18.5601 C41.81,19.25 41.95,19.92 42.08,20.59 C37.7,21.52 33.35,21.4301 29.14,20.32 M40.46,-12.86 C50.81,-13.33 55.08,-5.88994 55.97,-1.05996 C56.44,1.47002 56.43,5.91006 54.89,10.12 C53.72,13.3 51.26,17.37 46.13,19.4301 C46.06,19.0101 45.98,18.5801 45.9,18.15 C44.36,9.38008 42.42,-1.60996 40.46,-12.86 M33.14,-83.8 C34.92,-89.5399 37.66,-92.7899 39.65,-94.5199 C41.4,-96.0399 43.05,-96.75 43.97,-96.75 C44.11,-96.75 44.23,-96.73 44.33,-96.7 C44.79,-96.56 45.32,-95.9899 45.79,-95.1199 C48.1,-90.83 47.36,-84.1199 46.02,-79.68 C44.39,-74.28 41.47,-68.66 32.67,-59.05 C32.5,-60.16 32.34,-61.21 32.19,-62.1899 C30.94,-70.48 31.26,-77.75 33.14,-83.8"/>
<path class="TimeSig" transform="matrix(2.12598,0,0,2.12598,299.642,526.707)" d="M3.59004,12.65 L20.77,12.65 L20.77,20.07 L12.54,20.07 C11.7601,20.07 11.1301,20.7 11.1301,21.48 L11.1301,23.39 C11.1301,24.17 11.7601,24.8 12.54,24.8 L42.79,24.8 C43.57,24.8 44.2,24.17 44.2,23.39 L44.2,21.48 C44.2,20.7 43.57,20.07 42.79,20.07 L33.85,20.07 L33.85,12.65 L42.79,12.65 C43.57,12.65 44.2,12.02 44.2,11.24 L44.2,9.32998 C44.2,8.55 43.57,7.92002 42.79,7.92002 L33.85,7.92002 L33.85,-8.04004 C33.85,-8.57998 33.55,-9.05996 33.07,-9.3 L31.8601,-9.9 C31.3301,-10.16 30.7,-10.07 30.27,-9.67002 L21.22,-1.35 C20.9301,-1.07998 20.7601,-0.709961 20.7601,-0.309961 L20.7601,7.92002 L9.25,7.92002 C9.25,7.92002 20.37,-4.10996 32.2101,-19.88 C33.0801,-21.03 32.5801,-22.08 32.39,-22.27 L30.22,-24.48 C29.95,-24.74 29.59,-24.89 29.22,-24.89 C28.62,-24.89 15.07,-24.87 14.35,-24.89 C13.6301,-24.91 13.09,-24.29 13.02,-23.67 C13.02,-23.67 12.4801,-16.31 9.88008,-8.17998 C7.28008,-0.0599609 4.34004,4.92002 1.68008,8.55 C1.68008,8.55 1.14004,9.54004 1.5,10.28 C1.85,11.03 2.48008,12.12 2.48008,12.12 C2.48008,12.12 2.74004,12.65 3.59004,12.65"/>
<path class="TimeSig" transform="matrix(2.12598,0,0,2.12598,299.642,632.442)" d="M3.59004,12.65 L20.77,12.65 L20.77,20.07 L12.54,20.07 C11.7601,20.07 11.1301,20.7 11.1301,21.48 L11.1301,23.39 C11.1301,24.17 11.7601,24.8 12.54,24.8 L42.79,24.8 C43.57,24.8 44.2,24.17 44.2,23.39 L44.2,21.48 C44.2,20.7 43.57,20.07 42.79,20.07 L33.85,20.07 L33.85,12.65 L42.79,12.65 C43.57,12.65 44.2,12.02 44.2,11.24 L44.2,9.32998 C44.2,8.55 43.57,7.92002 42.79,7.92002 L33.85,7.92002 L33.85,-8.04004 C33.85,-8.57998 33.55,-9.05996 33.07,-9.3 L31.8601,-9.9 C31.3301,-10.16 30.7,-10.07 30.27,-9.67002 L21.22,-1.35 C20.9301,-1.07998 20.7601,-0.709961 20.7601,-0.309961 L20.7601,7.92002 L9.25,7.92002 C9.25,7.92002 20.37,-4.10996 32.2101,-19.88 C33.0801,-21.03 32.5801,-22.08 32.39,-22.27 L30.22,-24.48 C29.95,-24.74 29.59,-24.89 29.22,-24.89 C28.62,-24.89 15.07,-24.87 14.35,-24.89 C13.6301,-24.91 13.09,-24.29 13.02,-23.67 C13.02,-23.67 12.4801,-16.31 9.88008,-8.17998 C7.28008,-0.0599609 4.34004,4.92002 1.68008,8.55 C1.68008,8.55 1.14004,9.54004 1.5,10.28 C1.85,11.03 2.48008,12.12 2.48008,12.12 C2.48008,12.12 2.74004,12.65 3.59004,12.65"/>
<path class="Rest" transform="matrix(2.12598,0,0,2.12598,761.514,579.574)" d="M26.73,-20.26 C25.9899,-20.5399 25.31,-20.21 24.98,-19.6 C24.65,-18.9899 21.4699,-13.06 17.0399,-9.8 C15.65,-8.77998 14.0699,-8.13994 12.5,-7.80996 C13.6199,-9.06992 14.3,-10.73 14.3,-12.55 C14.3,-16.5 11.1,-19.7 7.15,-19.7 C3.2,-19.7 0,-16.5 0,-12.55 C0,-9.53994 1.86992,-6.95996 4.50996,-5.90996 C6.03994,-5.17998 7.95,-4.73994 10,-4.73994 C12.85,-4.73994 15.96,-5.56992 18.6699,-7.55996 C19.93,-8.48994 21.13,-9.67998 22.21,-10.9399 L10.8199,24.69 L13.46,25.54 L27.53,-18.55 C27.76,-19.28 27.4699,-19.9699 26.73,-20.26"/>
<path class="Rest" transform="matrix(2.12598,0,0,2.12598,1636.06,579.574)" d="M0,-11.8 L0,-1 C0,0.4 0,0.4 1.4,0.4 L31.1,0.4 C32.5,0.4 32.5,0.4 32.5,-1 L32.5,-11.8 C32.5,-13.2 32.5,-13.2 31.1,-13.2 L1.4,-13.2 C0,-13.2 0,-13.2 0,-11.8"/>
<path class="Rest" transform="matrix(2.12598,0,0,2.12598,2164.45,579.574)" d="M26.73,-20.26 C25.9899,-20.5399 25.31,-20.21 24.98,-19.6 C24.65,-18.9899 21.4699,-13.06 17.0399,-9.8 C15.65,-8.77998 14.0699,-8.13994 12.5,-7.80996 C13.6199,-9.06992 14.3,-10.73 14.3,-12.55 C14.3,-16.5 11.1,-19.7 7.15,-19.7 C3.2,-19.7 0,-16.5 0,-12.55 C0,-9.53994 1.86992,-6.95996 4.50996,-5.90996 C6.03994,-5.17998 7.95,-4.73994 10,-4.73994 C12.85,-4.73994 15.96,-5.56992 18.6699,-7.55996 C19.93,-8.48994 21.13,-9.67998 22.21,-10.9399 L10.8199,24.69 L13.46,25.54 L27.53,-18.55 C27.76,-19.28 27.4699,-19.9699 26.73,-20.26"/>
<path class="Rest" transform="matrix(2.12598,0,0,2.12598,3886.47,579.574)" d="M26.73,-20.26 C25.9899,-20.5399 25.31,-20.21 24.98,-19.6 C24.65,-18.9899 21.4699,-13.06 17.0399,-9.8 C15.65,-8.77998 14.0699,-8.13994 12.5,-7.80996 C13.6199,-9.06992 14.3,-10.73 14.3,-12.55 C14.3,-16.5 11.1,-19.7 7.15,-19.7 C3.2,-19.7 0,-16.5 0,-12.55 C0,-9.53994 1.86992,-6.95996 4.50996,-5.90996 C6.03994,-5.17998 7.95,-4.73994 10,-4.73994 C12.85,-4.73994 15.96,-5.56992 18.6699,-7.55996 C19.93,-8.48994 21.13,-9.67998 22.21,-10.9399 L10.8199,24.69 L13.46,25.54 L27.53,-18.55 C27.76,-19.28 27.4699,-19.9699 26.73,-20.26"/>
<path class="Rest" transform="matrix(2.12598,0,0,2.12598,575.03,1381.45)" d="M23.2,16.9 L23,16.6 C22.9,16.5 22.7,16.3 22.4,15.9 L10.9,1.7 C10.6,1.4 10.7,0.6 10.9,0.2 L21.1,-15.2 C21.2,-15.4 21.3,-15.7 21.3,-15.9 L21.3,-16.8 C21.3,-17.1 21.2,-17.4 21,-17.6 L4.8,-39.5 C4.8,-39.5 4,-40.7 3,-39.8 C2,-39 2.8,-37.7 2.8,-37.7 L10.4,-27.3 C10.8,-26.7 10.8,-25.5 10.4,-24.9 L0.3,-9.5 C0.2,-9.3 0.1,-8.9 0.1,-8.7 L0.1,-7.8 C0.1,-7.5 0.2,-7.2 0.4,-7 L11.6,6.9 C11.2,6.8 10.3,6.6 9.1,6.6 C7.4,6.6 5.2,7 3.4,8.6 C1.2,10.6 0,13.4 0,15.9 C0,17.3 0.3,18.7 1.1,19.8 C3.2,23 10.7,32.5 10.7,32.5 C10.7,32.5 11.6,33.6 12.5,32.9 C13.4,32.2 13.2,31.3 12.9,30.8 C12.6,30.3 9.4,24.5 9.4,24.5 C9.4,24.5 8.7,23.1 8.7,21.3 C8.7,20 9.1,18.4 10.4,17.1 C11.6,15.9 13,15.5 14.3,15.5 C15.6,15.5 16.7,15.9 17.5,16.4 L21.4,18.9 C21.4,18.9 22.6,19.5 23.2,18.6 C23.7,17.8 23.5,17.4 23.2,16.9"/>
<path class="Rest" transform="matrix(2.12598,0,0,2.12598,741.195,1381.45)" d="M26.73,-20.26 C25.9899,-20.5399 25.31,-20.21 24.98,-19.6 C24.65,-18.9899 21.4699,-13.06 17.0399,-9.8 C15.65,-8.77998 14.0699,-8.13994 12.5,-7.80996 C13.6199,-9.06992 14.3,-10.73 14.3,-12.55 C14.3,-16.5 11.1,-19.7 7.15,-19.7 C3.2,-19.7 0,-16.5 0,-12.55 C0,-9.53994 1.86992,-6.95996 4.50996,-5.90996 C6.03994,-5.17998 7.95,-4.73994 10,-4.73994 C12.85,-4.73994 15.96,-5.56992 18.6699,-7.55996 C19.93,-8.48994 21.13,-9.67998 22.21,-10.9399 L10.8199,24.69 L13.46,25.54 L27.53,-18.55 C27.76,-19.28 27.4699,-19.9699 26.73,-20.26"/>
<path class="Rest" transform="matrix(2.12598,0,0,2.12598,2101.31,1381.45)" d="M26.73,-20.26 C25.9899,-20.5399 25.31,-20.21 24.98,-19.6 C24.65,-18.9899 21.4699,-13.06 17.0399,-9.8 C15.65,-8.77998 14.0699,-8.13994 12.5,-7.80996 C13.6199,-9.06992 14.3,-10.73 14.3,-12.55 C14.3,-16.5 11.1,-19.7 7.15,-19.7 C3.2,-19.7 0,-16.5 0,-12.55 C0,-9.53994 1.86992,-6.95996 4.50996,-5.90996 C6.03994,-5.17998 7.95,-4.73994 10,-4.73994 C12.85,-4.73994 15.96,-5.56992 18.6699,-7.55996 C19.93,-8.48994 21.13,-9.67998 22.21,-10.9399 L10.8199,24.69 L13.46,25.54 L27.53,-18.55 C27.76,-19.28 27.4699,-19.9699 26.73,-20.26"/>
<path class="Rest" transform="matrix(2.12598,0,0,2.12598,3443.59,1381.45)" d="M26.73,-20.26 C25.9899,-20.5399 25.31,-20.21 24.98,-19.6 C24.65,-18.9899 21.4699,-13.06 17.0399,-9.8 C15.65,-8.77998 14.0699,-8.13994 12.5,-7.80996 C13.6199,-9.06992 14.3,-10.73 14.3,-12.55 C14.3,-16.5 11.1,-19.7 7.15,-19.7 C3.2,-19.7 0,-16.5 0,-12.55 C0,-9.53994 1.86992,-6.95996 4.50996,-5.90996 C6.03994,-5.17998 7.95,-4.73994 10,-4.73994 C12.85,-4.73994 15.96,-5.56992 18.6699,-7.55996 C19.93,-8.48994 21.13,-9.67998 22.21,-10.9399 L10.8199,24.69 L13.46,25.54 L27.53,-18.55 C27.76,-19.28 27.4699,-19.9699 26.73,-20.26"/>
<path class="Rest" transform="matrix(2.12598,0,0,2.12598,941.901,2183.33)" d="M26.73,-20.26 C25.9899,-20.5399 25.31,-20.21 24.98,-19.6 C24.65,-18.9899 21.4699,-13.06 17.0399,-9.8 C15.65,-8.77998 14.0699,-8.13994 12.5,-7.80996 C13.6199,-9.06992 14.3,-10.73 14.3,-12.55 C14.3,-16.5 11.1,-19.7 7.15,-19.7 C3.2,-19.7 0,-16.5 0,-12.55 C0,-9.53994 1.86992,-6.95996 4.50996,-5.90996 C6.03994,-5.17998 7.95,-4.73994 10,-4.73994 C12.85,-4.73994 15.96,-5.56992 18.6699,-7.55996 C19.93,-8.48994 21.13,-9.67998 22.21,-10.9399 L10.8199,24.69 L13.46,25.54 L27.53,-18.55 C27.76,-19.28 27.4699,-19.9699 26.73,-20.26"/>
<path class="Rest" transform="matrix(2.12598,0,0,2.12598,1842.18,2183.33)" d="M26.73,-20.26 C25.9899,-20.5399 25.31,-20.21 24.98,-19.6 C24.65,-18.9899 21.4699,-13.06 17.0399,-9.8 C15.65,-8.77998 14.0699,-8.13994 12.5,-7.80996 C13.6199,-9.06992 14.3,-10.73 14.3,-12.55 C14.3,-16.5 11.1,-19.7 7.15,-19.7 C3.2,-19.7 0,-16.5 0,-12.55 C0,-9.53994 1.86992,-6.95996 4.50996,-5.90996 C6.03994,-5.17998 7.95,-4.73994 10,-4.73994 C12.85,-4.73994 15.96,-5.56992 18.6699,-7.55996 C19.93,-8.48994 21.13,-9.67998 22.21,-10.9399 L10.8199,24.69 L13.46,25.54 L27.53,-18.55 C27.76,-19.28 27.4699,-19.9699 26.73,-20.26"/>
<path class="Rest" transform="matrix(2.12598,0,0,2.12598,1968.26,2183.33)" d="M23.2,16.9 L23,16.6 C22.9,16.5 22.7,16.3 22.4,15.9 L10.9,1.7 C10.6,1.4 10.7,0.6 10.9,0.2 L21.1,-15.2 C21.2,-15.4 21.3,-15.7 21.3,-15.9 L21.3,-16.8 C21.3,-17.1 21.2,-17.4 21,-17.6 L4.8,-39.5 C4.8,-39.5 4,-40.7 3,-39.8 C2,-39 2.8,-37.7 2.8,-37.7 L10.4,-27.3 C10.8,-26.7 10.8,-25.5 10.4,-24.9 L0.3,-9.5 C0.2,-9.3 0.1,-8.9 0.1,-8.7 L0.1,-7.8 C0.1,-7.5 0.2,-7.2 0.4,-7 L11.6,6.9 C11.2,6.8 10.3,6.6 9.1,6.6 C7.4,6.6 5.2,7 3.4,8.6 C1.2,10.6 0,13.4 0,15.9 C0,17.3 0.3,18.7 1.1,19.8 C3.2,23 10.7,32.5 10.7,32.5 C10.7,32.5 11.6,33.6 12.5,32.9 C13.4,32.2 13.2,31.3 12.9,30.8 C12.6,30.3 9.4,24.5 9.4,24.5 C9.4,24.5 8.7,23.1 8.7,21.3 C8.7,20 9.1,18.4 10.4,17.1 C11.6,15.9 13,15.5 14.3,15.5 C15.6,15.5 16.7,15.9 17.5,16.4 L21.4,18.9 C21.4,18.9 22.6,19.5 23.2,18.6 C23.7,17.8 23.5,17.4 23.2,16.9"/>
<path class="Rest" transform="matrix(2.12598,0,0,2.12598,2141.62,2183.33)" d="M26.73,-20.26 C25.9899,-20.5399 25.31,-20.21 24.98,-19.6 C24.65,-18.9899 21.4699,-13.06 17.0399,-9.8 C15.65,-8.77998 14.0699,-8.13994 12.5,-7.80996 C13.6199,-9.06992 14.3,-10.73 14.3,-12.55 C14.3,-16.5 11.1,-19.7 7.15,-19.7 C3.2,-19.7 0,-16.5 0,-12.55 C0,-9.53994 1.86992,-6.95996 4.50996,-5.90996 C6.03994,-5.17998 7.95,-4.73994 10,-4.73994 C12.85,-4.73994 15.96,-5.56992 18.6699,-7.55996 C19.93,-8.48994 21.13,-9.67998 22.21,-10.9399 L10.8199,24.69 L13.46,25.54 L27.53,-18.55 C27.76,-19.28 27.4699,-19.9699 26.73,-20.26"/>
<path class="Rest" transform="matrix(2.12598,0,0,2.12598,3932.2,2183.33)" d="M26.73,-20.26 C25.9899,-20.5399 25.31,-20.21 24.98,-19.6 C24.65,-18.9899 21.4699,-13.06 17.0399,-9.8 C15.65,-8.77998 14.0699,-8.13994 12.5,-7.80996 C13.6199,-9.06992 14.3,-10.73 14.3,-12.55 C14.3,-16.5 11.1,-19.7 7.15,-19.7 C3.2,-19.7 0,-16.5 0,-12.55 C0,-9.53994 1.86992,-6.95996 4.50996,-5.90996 C6.03994,-5.17998 7.95,-4.73994 10,-4.73994 C12.85,-4.73994 15.96,-5.56992 18.6699,-7.55996 C19.93,-8.48994 21.13,-9.67998 22.21,-10.9399 L10.8199,24.69 L13.46,25.54 L27.53,-18.55 C27.76,-19.28 27.4699,-19.9699 26.73,-20.26"/>
<path class="Beam" fill-rule="evenodd" d="M2433.06,672.198 L2602.68,713.484 L2602.68,740.834 L2433.06,699.549 L2433.06,672.198 "/>
<path class="Beam" fill-rule="evenodd" d="M2602.68,673.621 L2533.59,656.804 L2533.59,684.154 L2602.68,700.972 L2602.68,673.621 "/>
<path class="Beam" fill-rule="evenodd" d="M3101.93,566.287 L3264.68,566.287 L3264.68,592.862 L3101.93,592.862 L3101.93,566.287 "/>
<path class="Beam" fill-rule="evenodd" d="M3415.75,526.377 L3735.41,553.447 L3735.41,580.117 L3415.75,553.047 L3415.75,526.377 "/>
<path class="Beam" fill-rule="evenodd" d="M862.043,1580.53 L1215.87,1512.97 L1215.87,1540.03 L862.043,1607.58 L862.043,1580.53 "/>
<path class="Beam" fill-rule="evenodd" d="M862.043,1540.66 L931.137,1527.47 L931.137,1554.53 L862.043,1567.72 L862.043,1540.66 "/>
<path class="Beam" fill-rule="evenodd" d="M1215.87,1473.11 L1146.77,1486.3 L1146.77,1513.36 L1215.87,1500.16 L1215.87,1473.11 "/>
<path class="Beam" fill-rule="evenodd" d="M1655.12,1461.12 L1804.08,1474.95 L1804.08,1501.64 L1655.12,1487.81 L1655.12,1461.12 "/>
<path class="Beam" fill-rule="evenodd" d="M1804.08,1435.09 L1734.99,1428.67 L1734.99,1455.36 L1804.08,1461.78 L1804.08,1435.09 "/>
<path class="Beam" fill-rule="evenodd" d="M2244.43,1567.36 L2642.8,1513.42 L2642.8,1540.23 L2244.43,1594.17 L2244.43,1567.36 "/>
<path class="Beam" fill-rule="evenodd" d="M2244.43,1527.49 L2313.53,1518.14 L2313.53,1544.96 L2244.43,1554.31 L2244.43,1527.49 "/>
<path class="Beam" fill-rule="evenodd" d="M2642.8,1473.55 L2573.71,1482.91 L2573.71,1509.73 L2642.8,1500.37 L2642.8,1473.55 "/>
<path class="Beam" fill-rule="evenodd" d="M2997.4,1514.27 L3146.36,1528.1 L3146.36,1554.79 L2997.4,1540.96 L2997.4,1514.27 "/>
<path class="Beam" fill-rule="evenodd" d="M3146.36,1488.24 L3077.27,1481.82 L3077.27,1508.51 L3146.36,1514.93 L3146.36,1488.24 "/>
<path class="Beam" fill-rule="evenodd" d="M3586.71,1567.36 L3985.08,1513.42 L3985.08,1540.23 L3586.71,1594.17 L3586.71,1567.36 "/>
<path class="Beam" fill-rule="evenodd" d="M3586.71,1527.49 L3655.81,1518.14 L3655.81,1544.96 L3586.71,1554.31 L3586.71,1527.49 "/>
<path class="Beam" fill-rule="evenodd" d="M3985.08,1473.55 L3915.99,1482.91 L3915.99,1509.73 L3985.08,1500.37 L3985.08,1473.55 "/>
<path class="Beam" fill-rule="evenodd" d="M515.263,2316.14 L655.996,2330.01 L655.996,2356.71 L515.263,2342.85 L515.263,2316.14 "/>
<path class="Beam" fill-rule="evenodd" d="M655.996,2290.15 L586.902,2283.34 L586.902,2310.04 L655.996,2316.85 L655.996,2290.15 "/>
<path class="Beam" fill-rule="evenodd" d="M1274.91,1969.59 L1521.92,2010.42 L1521.92,2037.35 L1274.91,1996.52 L1274.91,1969.59 "/>
<path class="Beam" fill-rule="evenodd" d="M1409.79,2031.75 L1521.92,2050.28 L1521.92,2077.22 L1409.79,2058.68 L1409.79,2031.75 "/>
<path class="Beam" fill-rule="evenodd" d="M2267.7,2382.42 L2631.98,2314.9 L2631.98,2341.93 L2267.7,2409.45 L2267.7,2382.42 "/>
<path class="Beam" fill-rule="evenodd" d="M2267.7,2342.56 L2336.79,2329.75 L2336.79,2356.78 L2267.7,2369.58 L2267.7,2342.56 "/>
<path class="Beam" fill-rule="evenodd" d="M2631.98,2275.04 L2562.89,2287.84 L2562.89,2314.87 L2631.98,2302.06 L2631.98,2275.04 "/>
<path class="Beam" fill-rule="evenodd" d="M3199.35,2170.05 L3351.76,2170.05 L3351.76,2196.62 L3199.35,2196.62 L3199.35,2170.05 "/>
<path class="Beam" fill-rule="evenodd" d="M3492.49,2130.13 L3791.48,2157.24 L3791.48,2183.92 L3492.49,2156.81 L3492.49,2130.13 "/>
<path class="Hook" transform="matrix(2.12598,0,0,2.12598,895.823,685.874)" d="M2.5,0.4 C2.5,0.2 3.4,-3.2 3.5,-3.5 C3.6,-3.9 5.4,-9.6 9.1,-15.3 C11.8,-19.5 21.3,-31.8 21,-31.8 C21,-31.8 28.4,-41.3 28.9,-54.2 L28.9,-56.5 C28.9,-62.6 28.1,-71.2 24.6,-79.9 C24.2,-80.9 23.8,-81.9 22.7,-81.5 C21.6,-81.1 21.9,-79.9 22.2,-78.8 C24,-71.8 25,-64.6 25,-57.4 C25,-49 22,-44.8 20.2,-41.7 C13.6,-30.6 5,-25.2 0.8,-23.8 C0.3,-23.6 0,-23.2 0,-22.7 L0,-16.5 L0,-0.1 C0,0.6 0.6,1.2 1.3,1.2 C1.8,1.2 2.4,0.8 2.5,0.4"/>
<path class="Hook" transform="matrix(2.12598,0,0,2.12598,1030.13,632.724)" d="M2.5,0.4 C2.5,0.2 3.4,-3.2 3.5,-3.5 C3.6,-3.9 5.4,-9.6 9.1,-15.3 C11.8,-19.5 21.3,-31.8 21,-31.8 C21,-31.8 28.4,-41.3 28.9,-54.2 L28.9,-56.5 C28.9,-62.6 28.1,-71.2 24.6,-79.9 C24.2,-80.9 23.8,-81.9 22.7,-81.5 C21.6,-81.1 21.9,-79.9 22.2,-78.8 C24,-71.8 25,-64.6 25,-57.4 C25,-49 22,-44.8 20.2,-41.7 C13.6,-30.6 5,-25.2 0.8,-23.8 C0.3,-23.6 0,-23.2 0,-22.7 L0,-16.5 L0,-0.1 C0,0.6 0.6,1.2 1.3,1.2 C1.8,1.2 2.4,0.8 2.5,0.4"/>
<path class="Hook" transform="matrix(2.12598,0,0,2.12598,1193.9,685.874)" d="M-0.05,0.774023 C-0.05,1.45498 0.273047,2.01201 1.42705,2.01201 C2.58105,2.01201 2.78906,1.504 2.904,0.774023 C2.904,0.774023 4.46201,-9.84902 8.28506,-15.395 C12.108,-20.941 18.309,-24.095 23.146,-30.257 C26.6511,-34.72 27.905,-40.08 28,-45.3 C28.09,-50.273 27.123,-55.0891 26.0511,-58.912 C26.3851,-61.028 26.584,-63.461 26.584,-66.312 C26.584,-71.974 23.996,-77.382 22.158,-80.248 C21.684,-80.986 21.178,-82.048 20.125,-81.504 C19.0721,-80.9601 19.541,-79.746 19.88,-78.804 C21.338,-74.7771 22.021,-69.704 22.1011,-67.213 C22.229,-63.226 21.9271,-59.334 17.917,-53.347 C11.9351,-44.417 4.01699,-39.447 1.42705,-38.49 C0.749023,-38.2561 -0.05,-37.78 -0.05,-37.533 L-0.05,0.774023 M23.45,-50.695 C23.803,-45.88 23.867,-41.071 18.2181,-34.2181 C14.4181,-29.611 8.30801,-25.069 3.82402,-24.7101 L3.72402,-24.299 C3.78701,-24.6311 3.85,-24.9311 3.91201,-25.17 C4.56807,-27.7181 6.40498,-31.198 10.32,-35.13 C15.233,-40.0641 18.208,-43.23 20.912,-46.748 C21.7105,-47.775 22.8493,-49.5433 23.454,-50.695 L23.45,-50.695 "/>
<path class="Hook" transform="matrix(2.12598,0,0,2.12598,2298.75,739.023)" d="M2.5,0.4 C2.5,0.2 3.4,-3.2 3.5,-3.5 C3.6,-3.9 5.4,-9.6 9.1,-15.3 C11.8,-19.5 21.3,-31.8 21,-31.8 C21,-31.8 28.4,-41.3 28.9,-54.2 L28.9,-56.5 C28.9,-62.6 28.1,-71.2 24.6,-79.9 C24.2,-80.9 23.8,-81.9 22.7,-81.5 C21.6,-81.1 21.9,-79.9 22.2,-78.8 C24,-71.8 25,-64.6 25,-57.4 C25,-49 22,-44.8 20.2,-41.7 C13.6,-30.6 5,-25.2 0.8,-23.8 C0.3,-23.6 0,-23.2 0,-22.7 L0,-16.5 L0,-0.1 C0,0.6 0.6,1.2 1.3,1.2 C1.8,1.2 2.4,0.8 2.5,0.4"/>
<path class="Hook" transform="matrix(2.12598,0,0,2.12598,1548.83,1487.75)" d="M-0.05,0.774023 C-0.05,1.45498 0.273047,2.01201 1.42705,2.01201 C2.58105,2.01201 2.78906,1.504 2.904,0.774023 C2.904,0.774023 4.46201,-9.84902 8.28506,-15.395 C12.108,-20.941 18.309,-24.095 23.146,-30.257 C26.6511,-34.72 27.905,-40.08 28,-45.3 C28.09,-50.273 27.123,-55.0891 26.0511,-58.912 C26.3851,-61.028 26.584,-63.461 26.584,-66.312 C26.584,-71.974 23.996,-77.382 22.158,-80.248 C21.684,-80.986 21.178,-82.048 20.125,-81.504 C19.0721,-80.9601 19.541,-79.746 19.88,-78.804 C21.338,-74.7771 22.021,-69.704 22.1011,-67.213 C22.229,-63.226 21.9271,-59.334 17.917,-53.347 C11.9351,-44.417 4.01699,-39.447 1.42705,-38.49 C0.749023,-38.2561 -0.05,-37.78 -0.05,-37.533 L-0.05,0.774023 M23.45,-50.695 C23.803,-45.88 23.867,-41.071 18.2181,-34.2181 C14.4181,-29.611 8.30801,-25.069 3.82402,-24.7101 L3.72402,-24.299 C3.78701,-24.6311 3.85,-24.9311 3.91201,-25.17 C4.56807,-27.7181 6.40498,-31.198 10.32,-35.13 C15.233,-40.0641 18.208,-43.23 20.912,-46.748 C21.7105,-47.775 22.8493,-49.5433 23.454,-50.695 L23.45,-50.695 "/>
<path class="Hook" transform="matrix(2.12598,0,0,2.12598,2891.11,1514.33)" d="M-0.05,0.774023 C-0.05,1.45498 0.273047,2.01201 1.42705,2.01201 C2.58105,2.01201 2.78906,1.504 2.904,0.774023 C2.904,0.774023 4.46201,-9.84902 8.28506,-15.395 C12.108,-20.941 18.309,-24.095 23.146,-30.257 C26.6511,-34.72 27.905,-40.08 28,-45.3 C28.09,-50.273 27.123,-55.0891 26.0511,-58.912 C26.3851,-61.028 26.584,-63.461 26.584,-66.312 C26.584,-71.974 23.996,-77.382 22.158,-80.248 C21.684,-80.986 21.178,-82.048 20.125,-81.504 C19.0721,-80.9601 19.541,-79.746 19.88,-78.804 C21.338,-74.7771 22.021,-69.704 22.1011,-67.213 C22.229,-63.226 21.9271,-59.334 17.917,-53.347 C11.9351,-44.417 4.01699,-39.447 1.42705,-38.49 C0.749023,-38.2561 -0.05,-37.78 -0.05,-37.533 L-0.05,0.774023 M23.45,-50.695 C23.803,-45.88 23.867,-41.071 18.2181,-34.2181 C14.4181,-29.611 8.30801,-25.069 3.82402,-24.7101 L3.72402,-24.299 C3.78701,-24.6311 3.85,-24.9311 3.91201,-25.17 C4.56807,-27.7181 6.40498,-31.198 10.32,-35.13 C15.233,-40.0641 18.208,-43.23 20.912,-46.748 C21.7105,-47.775 22.8493,-49.5433 23.454,-50.695 L23.45,-50.695 "/>
<path class="Hook" transform="matrix(2.12598,0,0,2.12598,408.981,2316.21)" d="M-0.05,0.774023 C-0.05,1.45498 0.273047,2.01201 1.42705,2.01201 C2.58105,2.01201 2.78906,1.504 2.904,0.774023 C2.904,0.774023 4.46201,-9.84902 8.28506,-15.395 C12.108,-20.941 18.309,-24.095 23.146,-30.257 C26.6511,-34.72 27.905,-40.08 28,-45.3 C28.09,-50.273 27.123,-55.0891 26.0511,-58.912 C26.3851,-61.028 26.584,-63.461 26.584,-66.312 C26.584,-71.974 23.996,-77.382 22.158,-80.248 C21.684,-80.986 21.178,-82.048 20.125,-81.504 C19.0721,-80.9601 19.541,-79.746 19.88,-78.804 C21.338,-74.7771 22.021,-69.704 22.1011,-67.213 C22.229,-63.226 21.9271,-59.334 17.917,-53.347 C11.9351,-44.417 4.01699,-39.447 1.42705,-38.49 C0.749023,-38.2561 -0.05,-37.78 -0.05,-37.533 L-0.05,0.774023 M23.45,-50.695 C23.803,-45.88 23.867,-41.071 18.2181,-34.2181 C14.4181,-29.611 8.30801,-25.069 3.82402,-24.7101 L3.72402,-24.299 C3.78701,-24.6311 3.85,-24.9311 3.91201,-25.17 C4.56807,-27.7181 6.40498,-31.198 10.32,-35.13 C15.233,-40.0641 18.208,-43.23 20.912,-46.748 C21.7105,-47.775 22.8493,-49.5433 23.454,-50.695 L23.45,-50.695 "/>
<path class="Hook" transform="matrix(2.12598,0,0,2.12598,1076.79,2316.21)" d="M2.5,0.4 C2.5,0.2 3.4,-3.2 3.5,-3.5 C3.6,-3.9 5.4,-9.6 9.1,-15.3 C11.8,-19.5 21.3,-31.8 21,-31.8 C21,-31.8 28.4,-41.3 28.9,-54.2 L28.9,-56.5 C28.9,-62.6 28.1,-71.2 24.6,-79.9 C24.2,-80.9 23.8,-81.9 22.7,-81.5 C21.6,-81.1 21.9,-79.9 22.2,-78.8 C24,-71.8 25,-64.6 25,-57.4 C25,-49 22,-44.8 20.2,-41.7 C13.6,-30.6 5,-25.2 0.8,-23.8 C0.3,-23.6 0,-23.2 0,-22.7 L0,-16.5 L0,-0.1 C0,0.6 0.6,1.2 1.3,1.2 C1.8,1.2 2.4,0.8 2.5,0.4"/>
<path class="Hook" transform="matrix(2.12598,0,0,2.12598,1770.11,2037.17)" d="M3.5,3.5 C3.4,3.2 2.5,-0.3 2.5,-0.5 C2.4,-0.9 1.8,-1.2 1.3,-1.2 C0.6,-1.2 0,-0.6 0,0.1 L0,16.5 L0,22.7 C0,23.2 0.4,23.6 0.8,23.8 C5,25.1 13.7,30.6 20.2,41.7 C22,44.8 24.9,49 24.9,57.4 C24.9,64.6 23.8,72.2 22,79.2 C21.7,80.3 21.4,81.3 22.5,81.7 C23.6,82.1 24,81.3 24.4,80.3 C28,71.5 28.9,62.3 28.9,56.1 L28.9,54.2 C28.4,41.3 21,31.8 21,31.8 C21.3,31.8 11.8,19.5 9.1,15.3 C5.4,9.6 3.6,3.9 3.5,3.5"/>
<path class="Tempo" d="M341.126,262.398 L335.856,262.398 L335.856,334.37 C334.041,333.294 331.833,332.603 329.299,332.344 C328.598,332.267 327.878,332.238 327.158,332.238 C322.8,332.238 318.105,333.486 313.728,335.858 C308.621,338.613 304.541,342.549 302.246,346.946 C299.942,351.352 299.702,355.691 301.574,359.166 C303.792,363.275 308.601,365.406 314.294,365.406 C318.518,365.406 323.232,364.226 327.734,361.806 C335.971,357.362 341.097,350.018 341.126,343.614 L341.126,262.398 "/>
<path class="Tempo" d="M376.725,346.13 L425.109,346.13 L425.109,335.09 L376.725,335.09 L376.725,346.13 M376.725,326.354 L425.109,326.354 L425.109,315.314 L376.725,315.314 L376.725,326.354 M493.164,286.994 L489.804,286.994 C483.756,291.506 476.94,293.426 465.516,293.618 L465.516,298.994 L469.548,298.994 C478.092,298.994 478.188,299.186 478.092,307.058 L478.092,341.138 C478.092,347.09 478.092,347.378 477.42,348.338 C476.556,349.394 474.636,349.778 469.452,349.778 L466.38,349.778 L466.38,354.962 L504.684,354.962 L504.684,349.778 L501.612,349.778 C496.524,349.778 494.7,349.394 493.836,348.338 C493.164,347.378 493.164,346.994 493.164,341.138 L493.164,286.994 M558.434,329.426 L557.378,334.226 C556.514,338.066 555.938,339.314 555.17,339.794 C554.21,340.466 554.018,340.466 547.97,340.562 L529.442,340.562 C532.802,337.682 535.298,335.858 539.042,333.362 C552.578,324.626 555.362,322.514 558.146,318.962 C561.41,314.642 563.33,309.554 563.33,305.042 C563.33,294.77 553.25,286.994 539.714,286.994 C526.658,286.994 516.578,295.442 516.578,306.386 C516.578,313.106 520.322,317.426 526.082,317.426 C531.074,317.426 534.242,314.258 534.242,309.266 C534.242,305.138 532.418,302.738 528.002,300.626 C526.946,300.146 526.466,299.57 526.466,298.802 C526.466,295.73 531.65,292.466 536.45,292.466 C543.17,292.466 547.01,296.594 547.01,303.698 C547.01,311.666 543.938,317.33 533.762,328.178 C523.01,339.602 519.266,343.922 514.466,350.834 L514.466,355.346 C516.962,355.058 518.018,354.962 519.458,354.962 L555.554,354.962 C557.378,354.962 558.53,355.058 561.41,355.346 L563.618,329.426 L558.434,329.426 M595.288,286.994 C580.888,286.994 570.328,301.682 570.328,321.65 C570.328,341.618 580.888,356.306 595.288,356.306 C609.4,356.306 620.152,341.618 620.152,322.13 C620.152,310.802 617.56,302.45 611.896,295.346 C607.384,289.874 601.72,286.994 595.288,286.994 M595.192,291.986 C598.072,291.986 600.376,293.714 601.432,296.786 C602.68,299.954 603.448,310.034 603.448,321.938 C603.448,331.826 602.68,342.194 601.816,345.458 C600.76,349.298 598.456,351.314 595.192,351.314 C592.216,351.314 590.008,349.682 588.856,346.514 C587.608,343.346 586.84,333.17 586.84,321.65 C586.84,311.57 587.608,301.106 588.472,297.842 C589.528,294.002 591.832,291.986 595.192,291.986"/>
<path class="RehearsalMark" fill="none" stroke="#000000" stroke-width="8.50" stroke-linecap="square" stroke-linejoin="miter" stroke-miterlimit="2" fill-rule="evenodd" d="M313.288,79.3699 L468.066,79.3699 L468.066,227.242 L313.288,227.242 L313.288,79.3699 "/>
<path class="RehearsalMark" d="M387.275,110.186 L360.716,172.196 C355.334,184.832 351.005,189.395 344.102,190.097 L344.102,196.415 L377.915,196.415 L377.915,190.097 C369.608,189.629 366.332,187.406 366.332,182.024 C366.332,180.035 366.8,178.163 368.087,175.355 L369.959,170.909 L399.092,170.909 L403.538,182.375 C404.825,185.651 404.942,186.236 404.942,187.172 C404.942,189.278 403.304,189.98 398.156,189.98 L396.167,190.097 L396.167,196.415 L437.234,196.415 L437.234,190.097 C430.565,189.863 428.693,188.693 426.236,182.726 L396.167,110.186 L387.275,110.186 M384.818,135.107 L396.167,163.07 L373.001,163.07 L384.818,135.107 "/>
<path class="RehearsalMark" fill="none" stroke="#000000" stroke-width="8.50" stroke-linecap="square" stroke-linejoin="miter" stroke-miterlimit="2" fill-rule="evenodd" d="M1285.76,858.124 L1431.88,858.124 L1431.88,1004.25 L1285.76,1004.25 L1285.76,858.124 "/>
<path class="RehearsalMark" d="M1316.78,888.945 L1316.78,895.263 L1318.54,895.263 C1324.85,895.263 1327.08,895.731 1328.13,896.901 C1328.95,898.188 1328.95,898.539 1328.95,905.793 L1328.95,956.571 C1328.95,963.825 1328.95,964.176 1328.13,965.346 C1327.08,966.633 1324.74,967.101 1318.54,967.101 L1316.78,967.101 L1316.78,973.419 L1364.17,973.419 C1376.33,973.419 1382.53,972.483 1388.62,969.792 C1395.99,966.516 1400.9,959.145 1400.9,951.189 C1400.9,942.999 1396.22,936.564 1387.57,932.586 C1383.59,930.714 1380.19,929.778 1373.99,928.959 C1379.73,928.023 1383,927.204 1386.28,925.683 C1393.3,922.29 1397.04,916.674 1397.04,909.654 C1397.04,902.985 1393.53,896.784 1387.8,893.625 C1381.36,889.998 1375.75,888.945 1361.94,888.945 L1316.78,888.945 M1350.01,926.853 L1350.01,902.049 C1349.77,897.135 1351.41,895.497 1356.56,895.263 L1360.07,895.263 C1370.37,895.263 1375.87,900.411 1375.87,910.122 C1375.87,915.855 1373.88,920.418 1370.13,923.343 C1366.97,925.917 1363,926.853 1355.74,926.853 L1350.01,926.853 M1350.01,933.288 L1358.08,933.288 C1365.45,933.288 1368.85,933.99 1372.12,936.096 C1376.22,938.787 1378.56,943.935 1378.56,950.019 C1378.56,955.635 1376.45,960.783 1373.06,963.591 C1370.13,965.931 1366.27,967.101 1360.66,967.101 L1357.15,967.101 C1350.48,966.867 1349.77,966.165 1350.01,959.613 L1350.01,933.288 "/>
<path class="VoltaSegment" d="M2820.8,317.358 L2816.7,317.358 C2809.33,322.857 2801.02,325.197 2787.1,325.431 L2787.1,331.983 L2792.01,331.983 C2802.43,331.983 2802.54,332.217 2802.43,341.811 L2802.43,383.346 C2802.43,390.6 2802.43,390.951 2801.61,392.121 C2800.56,393.408 2798.22,393.876 2791.9,393.876 L2788.15,393.876 L2788.15,400.194 L2834.84,400.194 L2834.84,393.876 L2831.09,393.876 C2824.89,393.876 2822.67,393.408 2821.62,392.121 C2820.8,390.951 2820.8,390.483 2820.8,383.346 L2820.8,317.358 M2860.81,379.953 C2854.73,379.953 2849.81,384.867 2849.81,390.951 C2849.81,396.918 2854.73,401.949 2860.69,401.949 C2866.89,401.949 2871.81,397.035 2871.81,390.951 C2871.81,384.867 2866.89,379.953 2860.81,379.953"/>
<polyline class="VoltaSegment" fill="none" stroke="#000000" stroke-width="5.85" stroke-linecap="square" stroke-linejoin="bevel" points="2755.2,400.194 2755.2,283.265"/>
<polyline class="VoltaSegment" fill="none" stroke="#000000" stroke-width="5.85" stroke-linecap="square" stroke-linejoin="bevel" points="2755.2,283.265 4107.48,283.265"/>
<polyline class="VoltaSegment" fill="none" stroke="#000000" stroke-width="5.85" stroke-linecap="square" stroke-linejoin="bevel" points="4107.48,283.265 4107.48,400.194"/>
<path class="VoltaSegment" d="M334.895,1128.06 L333.608,1133.91 C332.555,1138.59 331.853,1140.11 330.917,1140.69 C329.747,1141.51 329.513,1141.51 322.142,1141.63 L299.561,1141.63 C303.656,1138.12 306.698,1135.89 311.261,1132.85 C327.758,1122.21 331.151,1119.63 334.544,1115.3 C338.522,1110.04 340.862,1103.84 340.862,1098.34 C340.862,1085.82 328.577,1076.34 312.08,1076.34 C296.168,1076.34 283.883,1086.64 283.883,1099.98 C283.883,1108.17 288.446,1113.43 295.466,1113.43 C301.55,1113.43 305.411,1109.57 305.411,1103.49 C305.411,1098.45 303.188,1095.53 297.806,1092.96 C296.519,1092.37 295.934,1091.67 295.934,1090.73 C295.934,1086.99 302.252,1083.01 308.102,1083.01 C316.292,1083.01 320.972,1088.04 320.972,1096.7 C320.972,1106.41 317.228,1113.31 304.826,1126.53 C291.722,1140.46 287.159,1145.72 281.309,1154.15 L281.309,1159.65 C284.351,1159.29 285.638,1159.18 287.393,1159.18 L331.385,1159.18 C333.608,1159.18 335.012,1159.29 338.522,1159.65 L341.213,1128.06 L334.895,1128.06 M362.506,1138.94 C356.422,1138.94 351.508,1143.85 351.508,1149.93 C351.508,1155.9 356.422,1160.93 362.389,1160.93 C368.59,1160.93 373.504,1156.02 373.504,1149.93 C373.504,1143.85 368.59,1138.94 362.506,1138.94"/>
<polyline class="VoltaSegment" fill="none" stroke="#000000" stroke-width="5.85" stroke-linecap="square" stroke-linejoin="bevel" points="249.415,1159.18 249.415,1042.25"/>
<polyline class="VoltaSegment" fill="none" stroke="#000000" stroke-width="5.85" stroke-linecap="square" stroke-linejoin="bevel" points="249.415,1042.25 1373.44,1042.25"/>
<polyline class="VoltaSegment" fill="none" stroke="#000000" stroke-width="5.85" stroke-linecap="square" stroke-linejoin="bevel" points="1373.44,1042.25 1373.44,1159.18"/>
<path class="VoltaSegment" d="M1676.81,1921.12 L1672.71,1921.12 C1665.34,1926.62 1657.03,1928.96 1643.11,1929.19 L1643.11,1935.74 L1648.02,1935.74 C1658.44,1935.74 1658.55,1935.98 1658.44,1945.57 L1658.44,1987.11 C1658.44,1994.36 1658.44,1994.71 1657.62,1995.88 C1656.57,1997.17 1654.23,1997.64 1647.91,1997.64 L1644.16,1997.64 L1644.16,2003.95 L1690.85,2003.95 L1690.85,1997.64 L1687.1,1997.64 C1680.9,1997.64 1678.68,1997.17 1677.63,1995.88 C1676.81,1994.71 1676.81,1994.24 1676.81,1987.11 L1676.81,1921.12 M1716.82,1983.71 C1710.73,1983.71 1705.82,1988.63 1705.82,1994.71 C1705.82,2000.68 1710.73,2005.71 1716.7,2005.71 C1722.9,2005.71 1727.82,2000.8 1727.82,1994.71 C1727.82,1988.63 1722.9,1983.71 1716.82,1983.71"/>
<polyline class="VoltaSegment" fill="none" stroke="#000000" stroke-width="5.85" stroke-linecap="square" stroke-linejoin="bevel" points="1611.21,2003.95 1611.21,1887.03"/>
<polyline class="VoltaSegment" fill="none" stroke="#000000" stroke-width="5.85" stroke-linecap="square" stroke-linejoin="bevel" points="1611.21,1887.03 2839.03,1887.03"/>
<polyline class="VoltaSegment" fill="none" stroke="#000000" stroke-width="5.85" stroke-linecap="square" stroke-linejoin="bevel" points="2839.03,1887.03 2839.03,2003.95"/>
<path class="VoltaSegment" d="M2954.64,1972.83 L2953.36,1978.68 C2952.3,1983.36 2951.6,1984.88 2950.66,1985.47 C2949.49,1986.29 2949.26,1986.29 2941.89,1986.4 L2919.31,1986.4 C2923.4,1982.89 2926.45,1980.67 2931.01,1977.63 C2947.51,1966.98 2950.9,1964.41 2954.29,1960.08 C2958.27,1954.81 2960.61,1948.61 2960.61,1943.11 C2960.61,1930.6 2948.32,1921.12 2931.83,1921.12 C2915.92,1921.12 2903.63,1931.41 2903.63,1944.75 C2903.63,1952.94 2908.19,1958.21 2915.21,1958.21 C2921.3,1958.21 2925.16,1954.35 2925.16,1948.26 C2925.16,1943.23 2922.94,1940.31 2917.55,1937.73 C2916.27,1937.15 2915.68,1936.45 2915.68,1935.51 C2915.68,1931.77 2922,1927.79 2927.85,1927.79 C2936.04,1927.79 2940.72,1932.82 2940.72,1941.48 C2940.72,1951.19 2936.98,1958.09 2924.57,1971.31 C2911.47,1985.23 2906.91,1990.5 2901.06,1998.92 L2901.06,2004.42 C2904.1,2004.07 2905.39,2003.95 2907.14,2003.95 L2951.13,2003.95 C2953.36,2003.95 2954.76,2004.07 2958.27,2004.42 L2960.96,1972.83 L2954.64,1972.83 M2982.25,1983.71 C2976.17,1983.71 2971.26,1988.63 2971.26,1994.71 C2971.26,2000.68 2976.17,2005.71 2982.14,2005.71 C2988.34,2005.71 2993.25,2000.8 2993.25,1994.71 C2993.25,1988.63 2988.34,1983.71 2982.25,1983.71"/>
<polyline class="VoltaSegment" fill="none" stroke="#000000" stroke-width="5.85" stroke-linecap="square" stroke-linejoin="bevel" points="2869.16,2003.95 2869.16,1887.03"/>
<polyline class="VoltaSegment" fill="none" stroke="#000000" stroke-width="5.85" stroke-linecap="square" stroke-linejoin="bevel" points="2869.16,1887.03 4085.79,1887.03"/>
<polyline class="VoltaSegment" fill="none" stroke="#000000" stroke-width="5.85" stroke-linecap="square" stroke-linejoin="bevel" points="4085.79,1887.03 4085.79,2003.95"/>
<path class="NoteDot" transform="matrix(2.12598,0,0,2.12598,1125.78,446.7)" d="M0,-0.00166016 C0,2.75977 2.23857,4.99834 5,4.99834 C7.76143,4.99834 10,2.75977 10,-0.00166016 C10,-2.76309 7.76143,-5.00166 5,-5.00166 C2.23857,-5.00166 0,-2.76309 0,-0.00166016"/>
<path class="NoteDot" transform="matrix(2.12598,0,0,2.12598,2528.72,499.85)" d="M0,-0.00166016 C0,2.75977 2.23857,4.99834 5,4.99834 C7.76143,4.99834 10,2.75977 10,-0.00166016 C10,-2.76309 7.76143,-5.00166 5,-5.00166 C2.23857,-5.00166 0,-2.76309 0,-0.00166016"/>
</svg>
