<?xml version="1.0" encoding="UTF-8" standalone="no"?>
<svg width="4208.47px" height="2409.45px" viewBox="0 0 4208.47 2409.45"
 xmlns="http://www.w3.org/2000/svg" xmlns:xlink="http://www.w3.org/1999/xlink" version="1.2" baseProfile="tiny">
<title>PETE</title>
<desc>Generated by MuseScore 3.6.2</desc>
<polyline class="StaffLines" fill="none" stroke="#000000" stroke-width="5.85" stroke-linejoin="bevel" points="70.866,494.764 4137.61,494.764"/>
<polyline class="StaffLines" fill="none" stroke="#000000" stroke-width="5.85" stroke-linejoin="bevel" points="70.866,547.913 4137.61,547.913"/>
<polyline class="StaffLines" fill="none" stroke="#000000" stroke-width="5.85" stroke-linejoin="bevel" points="70.866,601.063 4137.61,601.063"/>
<polyline class="StaffLines" fill="none" stroke="#000000" stroke-width="5.85" stroke-linejoin="bevel" points="70.866,654.212 4137.61,654.212"/>
<polyline class="StaffLines" fill="none" stroke="#000000" stroke-width="5.85" stroke-linejoin="bevel" points="70.866,707.362 4137.61,707.362"/>
<polyline class="StaffLines" fill="none" stroke="#000000" stroke-width="5.85" stroke-linejoin="bevel" points="70.866,1277.91 4137.61,1277.91"/>
<polyline class="StaffLines" fill="none" stroke="#000000" stroke-width="5.85" stroke-linejoin="bevel" points="70.866,1331.06 4137.61,1331.06"/>
<polyline class="StaffLines" fill="none" stroke="#000000" stroke-width="5.85" stroke-linejoin="bevel" points="70.866,1384.21 4137.61,1384.21"/>
<polyline class="StaffLines" fill="none" stroke="#000000" stroke-width="5.85" stroke-linejoin="bevel" points="70.866,1437.36 4137.61,1437.36"/>
<polyline class="StaffLines" fill="none" stroke="#000000" stroke-width="5.85" stroke-linejoin="bevel" points="70.866,1490.51 4137.61,1490.51"/>
<polyline class="StaffLines" fill="none" stroke="#000000" stroke-width="5.85" stroke-linejoin="bevel" points="70.866,2061.05 4137.61,2061.05"/>
<polyline class="StaffLines" fill="none" stroke="#000000" stroke-width="5.85" stroke-linejoin="bevel" points="70.866,2114.2 4137.61,2114.2"/>
<polyline class="StaffLines" fill="none" stroke="#000000" stroke-width="5.85" stroke-linejoin="bevel" points="70.866,2167.35 4137.61,2167.35"/>
<polyline class="StaffLines" fill="none" stroke="#000000" stroke-width="5.85" stroke-linejoin="bevel" points="70.866,2220.5 4137.61,2220.5"/>
<polyline class="StaffLines" fill="none" stroke="#000000" stroke-width="5.85" stroke-linejoin="bevel" points="70.866,2273.65 4137.61,2273.65"/>
<path class="MeasureNumber" d="M85.4597,1157.05 C87.3504,1156.45 88.1004,1156.12 89.0691,1155.48 C90.9441,1154.25 92.1004,1152.05 92.1004,1149.81 C92.1004,1146.01 89.0691,1143.45 84.5847,1143.45 C80.2254,1143.45 76.5379,1146.17 76.5379,1149.45 C76.5379,1151.09 77.5379,1152.22 79.0691,1152.22 C80.3816,1152.22 81.3504,1151.25 81.3504,1149.94 C81.3504,1149.25 81.1472,1148.76 80.5066,1148.14 C80.1004,1147.76 79.9441,1147.5 79.9441,1147.22 C79.9441,1146.25 81.9441,1145.25 83.8191,1145.25 C86.5066,1145.25 88.1004,1146.73 88.1004,1149.22 C88.1004,1152.76 85.5847,1156.12 82.8972,1156.12 C82.7879,1156.12 82.4285,1156.09 81.991,1156.05 C80.8191,1155.97 80.8191,1155.97 80.5847,1155.97 C79.7097,1155.97 79.2254,1156.37 79.2254,1157.09 C79.2254,1157.73 79.6629,1158.12 80.3816,1158.12 C80.5847,1158.12 80.866,1158.09 81.1785,1158.05 C81.741,1157.94 82.3504,1157.89 82.7097,1157.89 C84.5847,1157.89 85.866,1159.58 85.866,1162.05 C85.866,1163.97 85.4285,1165.81 84.5379,1167.33 C83.3504,1169.48 81.5066,1170.53 78.8972,1170.53 C76.6629,1170.53 74.741,1169.41 74.741,1168.12 C74.741,1167.69 74.9129,1167.53 75.5379,1167.25 C76.7097,1166.73 77.1785,1166.01 77.1785,1164.94 C77.1785,1163.53 76.0691,1162.45 74.6316,1162.45 C72.9129,1162.45 71.7879,1163.81 71.7879,1165.89 C71.7879,1169.76 74.741,1172.2 79.5379,1172.2 C85.5847,1172.2 90.1785,1168.17 90.1785,1162.81 C90.1785,1161.37 89.741,1160.12 88.8972,1159.12 C88.0222,1158.09 87.2254,1157.61 85.4597,1157.05"/>
<path class="MeasureNumber" d="M75.3504,1939.44 C74.1004,1940.19 73.741,1940.67 73.741,1941.47 C73.741,1942.24 74.3816,1942.8 75.1785,1942.8 C76.2254,1942.8 76.8191,1942.03 76.9441,1940.55 C78.1785,1939.55 79.5066,1939.11 81.1004,1939.11 C84.0691,1939.11 85.7097,1940.96 85.7097,1944.27 C85.7097,1949.47 82.3504,1953.71 78.2254,1953.71 C75.866,1953.71 73.9441,1952.6 73.9441,1951.27 C73.9441,1951.03 73.991,1950.96 74.1785,1950.83 C75.2254,1950.35 75.2254,1950.35 75.5066,1950.16 C76.1472,1949.67 76.5066,1948.96 76.5066,1948.11 C76.5066,1946.83 75.5066,1945.88 74.1004,1945.88 C72.3504,1945.88 71.0222,1947.35 71.0222,1949.27 C71.0222,1952.8 74.0691,1955.35 78.3504,1955.35 C84.8191,1955.35 90.0691,1950.19 90.0691,1943.8 C90.0691,1939.75 86.991,1936.91 82.6316,1936.91 C80.8972,1936.91 79.5066,1937.27 77.5847,1938.24 L79.8191,1930.67 C81.9441,1931.11 83.6316,1931.32 85.0691,1931.32 C87.7097,1931.32 90.0691,1930.47 91.3816,1929.08 C92.0691,1928.28 92.4597,1927.6 92.4597,1927.08 C92.4597,1926.83 92.3347,1926.6 92.1785,1926.6 C92.0691,1926.6 91.9754,1926.64 91.741,1926.75 C90.4285,1927.39 88.741,1927.75 87.1785,1927.75 C84.7879,1927.75 81.9441,1927.36 78.991,1926.6 L75.3504,1939.44 "/>
<path class="TieSegment" stroke="#000000" stroke-width="3.72" stroke-linecap="round" stroke-linejoin="round" fill-rule="evenodd" d="M4024.14,1326.01 C4046.83,1297.31 4114.91,1297.31 4137.61,1326.01 C4114.91,1312.19 4046.83,1312.19 4024.14,1326.01"/>
<path class="TieSegment" stroke="#000000" stroke-width="3.72" stroke-linecap="round" stroke-linejoin="round" fill-rule="evenodd" d="M460.735,2118.38 C504.901,2077.37 637.4,2077.37 681.566,2118.38 C637.4,2092.26 504.901,2092.26 460.735,2118.38"/>
<polyline class="BarLine" stroke="#000000" stroke-width="29.23" stroke-linejoin="bevel" points="1976.45,491.84 1976.45,710.285"/>
<polyline class="BarLine" stroke="#000000" stroke-width="9.57" stroke-linejoin="bevel" points="2013.66,491.84 2013.66,710.285"/>
<path class="BarLine" transform="matrix(2.12598,0,0,2.12598,2039.8,574.488)" d="M10.4063,0 C10.4063,-2.90625 8.09375,-5.29688 5.20313,-5.29688 C2.29688,-5.29688 0,-2.90625 0,0 C0,2.90625 2.29688,5.29688 5.20313,5.29688 C8.09375,5.29688 10.4063,2.90625 10.4063,0"/>
<path class="BarLine" transform="matrix(2.12598,0,0,2.12598,2039.8,627.638)" d="M10.4063,0 C10.4063,-2.90625 8.09375,-5.29688 5.20313,-5.29688 C2.29688,-5.29688 0,-2.90625 0,0 C0,2.90625 2.29688,5.29688 5.20313,5.29688 C8.09375,5.29688 10.4063,2.90625 10.4063,0"/>
<polyline class="BarLine" stroke="#000000" stroke-width="9.57" stroke-linejoin="bevel" points="4132.82,491.84 4132.82,710.285"/>
<polyline class="BarLine" stroke="#000000" stroke-width="9.57" stroke-linejoin="bevel" points="2385.67,1274.98 2385.67,1493.43"/>
<polyline class="BarLine" stroke="#000000" stroke-width="9.57" stroke-linejoin="bevel" points="4132.82,1274.98 4132.82,1493.43"/>
<path class="BarLine" transform="matrix(2.12598,0,0,2.12598,2583.02,2140.78)" d="M10.4063,0 C10.4063,-2.90625 8.09375,-5.29688 5.20313,-5.29688 C2.29688,-5.29688 0,-2.90625 0,0 C0,2.90625 2.29688,5.29688 5.20313,5.29688 C8.09375,5.29688 10.4063,2.90625 10.4063,0"/>
<path class="BarLine" transform="matrix(2.12598,0,0,2.12598,2583.02,2193.93)" d="M10.4063,0 C10.4063,-2.90625 8.09375,-5.29688 5.20313,-5.29688 C2.29688,-5.29688 0,-2.90625 0,0 C0,2.90625 2.29688,5.29688 5.20313,5.29688 C8.09375,5.29688 10.4063,2.90625 10.4063,0"/>
<polyline class="BarLine" stroke="#000000" stroke-width="9.57" stroke-linejoin="bevel" points="2631.28,2058.13 2631.28,2276.57"/>
<polyline class="BarLine" stroke="#000000" stroke-width="29.23" stroke-linejoin="bevel" points="2668.48,2058.13 2668.48,2276.57"/>
<polyline class="BarLine" stroke="#000000" stroke-width="9.57" stroke-linejoin="bevel" points="4085.79,2058.13 4085.79,2276.57"/>
<polyline class="BarLine" stroke="#000000" stroke-width="29.23" stroke-linejoin="bevel" points="4122.99,2058.13 4122.99,2276.57"/>
<path class="Accidental" transform="matrix(2.12598,0,0,2.12598,2242.08,574.488)" d="M16.5938,-18.2969 C16.4063,-18.5 16.0938,-18.5938 15.7969,-18.5938 C15.7031,-18.5938 15.5,-18.5 15.4063,-18.5 L2.79688,-15 L2.79688,-32.5 L0,-32.5 L0,17 C0,17.7969 0.59375,18.2969 1.40625,18.2969 L1.79688,18.2969 L14.4063,14.7969 L14.4063,32.2969 L17.0938,32.2969 L17.0938,-17.2031 C17.0938,-17.5938 16.9063,-18.0938 16.5938,-18.2969 M14.4063,6.5 L2.79688,9.70313 L2.79688,-6.70313 L14.4063,-10 L14.4063,6.5 "/>
<path class="Accidental" transform="matrix(2.12598,0,0,2.12598,2553.63,1357.63)" d="M16.5938,-18.2969 C16.4063,-18.5 16.0938,-18.5938 15.7969,-18.5938 C15.7031,-18.5938 15.5,-18.5 15.4063,-18.5 L2.79688,-15 L2.79688,-32.5 L0,-32.5 L0,17 C0,17.7969 0.59375,18.2969 1.40625,18.2969 L1.79688,18.2969 L14.4063,14.7969 L14.4063,32.2969 L17.0938,32.2969 L17.0938,-17.2031 C17.0938,-17.5938 16.9063,-18.0938 16.5938,-18.2969 M14.4063,6.5 L2.79688,9.70313 L2.79688,-6.70313 L14.4063,-10 L14.4063,6.5 "/>
<polyline class="Stem" stroke="#000000" stroke-width="5.85" stroke-linejoin="bevel" points="1333.9,661.356 1333.9,840.236"/>
<polyline class="Stem" stroke="#000000" stroke-width="5.85" stroke-linejoin="bevel" points="1544.19,634.781 1544.19,773.799"/>
<polyline class="Stem" stroke="#000000" stroke-width="5.85" stroke-linejoin="bevel" points="1754.47,608.206 1754.47,760.512"/>
<polyline class="Stem" stroke="#000000" stroke-width="5.85" stroke-linejoin="bevel" points="2294.64,581.631 2294.64,760.512"/>
<polyline class="Stem" stroke="#000000" stroke-width="5.85" stroke-linejoin="bevel" points="2700.29,581.631 2700.29,760.512"/>
<polyline class="Stem" stroke="#000000" stroke-width="5.85" stroke-linejoin="bevel" points="3105.95,634.781 3105.95,813.661"/>
<polyline class="Stem" stroke="#000000" stroke-width="5.85" stroke-linejoin="bevel" points="3515.96,634.781 3515.96,813.661"/>
<polyline class="Stem" stroke="#000000" stroke-width="5.85" stroke-linejoin="bevel" points="3925.96,608.206 3925.96,787.086"/>
<polyline class="Stem" stroke="#000000" stroke-width="5.85" stroke-linejoin="bevel" points="773.437,1444.5 773.437,1623.38"/>
<polyline class="Stem" stroke="#000000" stroke-width="5.85" stroke-linejoin="bevel" points="1003.49,1417.93 1003.49,1570.23"/>
<polyline class="Stem" stroke="#000000" stroke-width="5.85" stroke-linejoin="bevel" points="1233.54,1444.5 1233.54,1583.52"/>
<polyline class="Stem" stroke="#000000" stroke-width="5.85" stroke-linejoin="bevel" points="1463.6,1417.93 1463.6,1583.52"/>
<polyline class="Stem" stroke="#000000" stroke-width="5.85" stroke-linejoin="bevel" points="1693.65,1444.5 1693.65,1583.52"/>
<polyline class="Stem" stroke="#000000" stroke-width="5.85" stroke-linejoin="bevel" points="1923.71,1417.93 1923.71,1583.52"/>
<polyline class="Stem" stroke="#000000" stroke-width="5.85" stroke-linejoin="bevel" points="2153.76,1391.35 2153.76,1583.52"/>
<polyline class="Stem" stroke="#000000" stroke-width="5.85" stroke-linejoin="bevel" points="2606.18,1364.78 2606.18,1543.66"/>
<polyline class="Stem" stroke="#000000" stroke-width="5.85" stroke-linejoin="bevel" points="2952.18,1364.78 2952.18,1543.66"/>
<polyline class="Stem" stroke="#000000" stroke-width="5.85" stroke-linejoin="bevel" points="3298.19,1417.93 3298.19,1596.81"/>
<polyline class="Stem" stroke="#000000" stroke-width="5.85" stroke-linejoin="bevel" points="3640.17,1417.93 3640.17,1596.81"/>
<polyline class="Stem" stroke="#000000" stroke-width="5.85" stroke-linejoin="bevel" points="3982.16,1391.35 3982.16,1570.23"/>
<polyline class="Stem" stroke="#000000" stroke-width="5.85" stroke-linejoin="bevel" points="660.312,2174.49 660.312,2353.37"/>
<polyline class="Stem" stroke="#000000" stroke-width="5.85" stroke-linejoin="bevel" points="1825.82,2227.64 1825.82,2406.52"/>
<polyline class="Stem" stroke="#000000" stroke-width="5.85" stroke-linejoin="bevel" points="2079.2,2201.07 2079.2,2340.09"/>
<polyline class="Stem" stroke="#000000" stroke-width="5.85" stroke-linejoin="bevel" points="2332.57,2174.49 2332.57,2326.8"/>
<polyline class="Stem" stroke="#000000" stroke-width="5.85" stroke-linejoin="bevel" points="2866.19,2174.49 2866.19,2353.37"/>
<path class="Note" transform="matrix(2.12598,0,0,2.12598,1330.98,654.212)" d="M31.5,-8.09375 C29.7031,-11.4063 25.9063,-13.2031 21.2969,-13.2031 C17.9063,-13.2031 14.2031,-12.2031 10.5938,-10.2969 C4,-6.79688 0,-0.90625 0,4.20313 C0,5.59375 0.296875,7 1,8.29688 C2.79688,11.5938 6.59375,13.2969 11.2031,13.2969 C14.5938,13.2969 18.2969,12.4063 21.9063,10.5 C28.5,7 32.5,1.09375 32.5,-4 C32.5,-5.40625 32.2031,-6.79688 31.5,-8.09375"/>
<path class="Note" transform="matrix(2.12598,0,0,2.12598,1541.27,627.638)" d="M31.5,-8.09375 C29.7031,-11.4063 25.9063,-13.2031 21.2969,-13.2031 C17.9063,-13.2031 14.2031,-12.2031 10.5938,-10.2969 C4,-6.79688 0,-0.90625 0,4.20313 C0,5.59375 0.296875,7 1,8.29688 C2.79688,11.5938 6.59375,13.2969 11.2031,13.2969 C14.5938,13.2969 18.2969,12.4063 21.9063,10.5 C28.5,7 32.5,1.09375 32.5,-4 C32.5,-5.40625 32.2031,-6.79688 31.5,-8.09375"/>
<path class="Note" transform="matrix(2.12598,0,0,2.12598,1751.55,601.063)" d="M31.5,-8.09375 C29.7031,-11.4063 25.9063,-13.2031 21.2969,-13.2031 C17.9063,-13.2031 14.2031,-12.2031 10.5938,-10.2969 C4,-6.79688 0,-0.90625 0,4.20313 C0,5.59375 0.296875,7 1,8.29688 C2.79688,11.5938 6.59375,13.2969 11.2031,13.2969 C14.5938,13.2969 18.2969,12.4063 21.9063,10.5 C28.5,7 32.5,1.09375 32.5,-4 C32.5,-5.40625 32.2031,-6.79688 31.5,-8.09375"/>
<path class="Note" transform="matrix(2.12598,0,0,2.12598,2291.71,574.488)" d="M31.5,-8.09375 C29.7031,-11.4063 25.9063,-13.2031 21.2969,-13.2031 C17.9063,-13.2031 14.2031,-12.2031 10.5938,-10.2969 C4,-6.79688 0,-0.90625 0,4.20313 C0,5.59375 0.296875,7 1,8.29688 C2.79688,11.5938 6.59375,13.2969 11.2031,13.2969 C14.5938,13.2969 18.2969,12.4063 21.9063,10.5 C28.5,7 32.5,1.09375 32.5,-4 C32.5,-5.40625 32.2031,-6.79688 31.5,-8.09375"/>
<path class="Note" transform="matrix(2.12598,0,0,2.12598,2697.37,574.488)" d="M31.5,-8.09375 C29.7031,-11.4063 25.9063,-13.2031 21.2969,-13.2031 C17.9063,-13.2031 14.2031,-12.2031 10.5938,-10.2969 C4,-6.79688 0,-0.90625 0,4.20313 C0,5.59375 0.296875,7 1,8.29688 C2.79688,11.5938 6.59375,13.2969 11.2031,13.2969 C14.5938,13.2969 18.2969,12.4063 21.9063,10.5 C28.5,7 32.5,1.09375 32.5,-4 C32.5,-5.40625 32.2031,-6.79688 31.5,-8.09375"/>
<path class="Note" transform="matrix(2.12598,0,0,2.12598,3103.03,627.638)" d="M31.5,-8.09375 C29.7031,-11.4063 25.9063,-13.2031 21.2969,-13.2031 C17.9063,-13.2031 14.2031,-12.2031 10.5938,-10.2969 C4,-6.79688 0,-0.90625 0,4.20313 C0,5.59375 0.296875,7 1,8.29688 C2.79688,11.5938 6.59375,13.2969 11.2031,13.2969 C14.5938,13.2969 18.2969,12.4063 21.9063,10.5 C28.5,7 32.5,1.09375 32.5,-4 C32.5,-5.40625 32.2031,-6.79688 31.5,-8.09375"/>
<path class="Note" transform="matrix(2.12598,0,0,2.12598,3513.03,627.638)" d="M31.5,-8.09375 C29.7031,-11.4063 25.9063,-13.2031 21.2969,-13.2031 C17.9063,-13.2031 14.2031,-12.2031 10.5938,-10.2969 C4,-6.79688 0,-0.90625 0,4.20313 C0,5.59375 0.296875,7 1,8.29688 C2.79688,11.5938 6.59375,13.2969 11.2031,13.2969 C14.5938,13.2969 18.2969,12.4063 21.9063,10.5 C28.5,7 32.5,1.09375 32.5,-4 C32.5,-5.40625 32.2031,-6.79688 31.5,-8.09375"/>
<path class="Note" transform="matrix(2.12598,0,0,2.12598,3923.04,601.063)" d="M31.5,-8.09375 C29.7031,-11.4063 25.9063,-13.2031 21.2969,-13.2031 C17.9063,-13.2031 14.2031,-12.2031 10.5938,-10.2969 C4,-6.79688 0,-0.90625 0,4.20313 C0,5.59375 0.296875,7 1,8.29688 C2.79688,11.5938 6.59375,13.2969 11.2031,13.2969 C14.5938,13.2969 18.2969,12.4063 21.9063,10.5 C28.5,7 32.5,1.09375 32.5,-4 C32.5,-5.40625 32.2031,-6.79688 31.5,-8.09375"/>
<path class="Note" transform="matrix(2.12598,0,0,2.12598,770.513,1437.36)" d="M31.5,-8.09375 C29.7031,-11.4063 25.9063,-13.2031 21.2969,-13.2031 C17.9063,-13.2031 14.2031,-12.2031 10.5938,-10.2969 C4,-6.79688 0,-0.90625 0,4.20313 C0,5.59375 0.296875,7 1,8.29688 C2.79688,11.5938 6.59375,13.2969 11.2031,13.2969 C14.5938,13.2969 18.2969,12.4063 21.9063,10.5 C28.5,7 32.5,1.09375 32.5,-4 C32.5,-5.40625 32.2031,-6.79688 31.5,-8.09375"/>
<path class="Note" transform="matrix(2.12598,0,0,2.12598,1000.57,1410.78)" d="M31.5,-8.09375 C29.7031,-11.4063 25.9063,-13.2031 21.2969,-13.2031 C17.9063,-13.2031 14.2031,-12.2031 10.5938,-10.2969 C4,-6.79688 0,-0.90625 0,4.20313 C0,5.59375 0.296875,7 1,8.29688 C2.79688,11.5938 6.59375,13.2969 11.2031,13.2969 C14.5938,13.2969 18.2969,12.4063 21.9063,10.5 C28.5,7 32.5,1.09375 32.5,-4 C32.5,-5.40625 32.2031,-6.79688 31.5,-8.09375"/>
<path class="Note" transform="matrix(2.12598,0,0,2.12598,1230.62,1437.36)" d="M31.5,-8.09375 C29.7031,-11.4063 25.9063,-13.2031 21.2969,-13.2031 C17.9063,-13.2031 14.2031,-12.2031 10.5938,-10.2969 C4,-6.79688 0,-0.90625 0,4.20313 C0,5.59375 0.296875,7 1,8.29688 C2.79688,11.5938 6.59375,13.2969 11.2031,13.2969 C14.5938,13.2969 18.2969,12.4063 21.9063,10.5 C28.5,7 32.5,1.09375 32.5,-4 C32.5,-5.40625 32.2031,-6.79688 31.5,-8.09375"/>
<path class="Note" transform="matrix(2.12598,0,0,2.12598,1460.68,1410.78)" d="M31.5,-8.09375 C29.7031,-11.4063 25.9063,-13.2031 21.2969,-13.2031 C17.9063,-13.2031 14.2031,-12.2031 10.5938,-10.2969 C4,-6.79688 0,-0.90625 0,4.20313 C0,5.59375 0.296875,7 1,8.29688 C2.79688,11.5938 6.59375,13.2969 11.2031,13.2969 C14.5938,13.2969 18.2969,12.4063 21.9063,10.5 C28.5,7 32.5,1.09375 32.5,-4 C32.5,-5.40625 32.2031,-6.79688 31.5,-8.09375"/>
<path class="Note" transform="matrix(2.12598,0,0,2.12598,1690.73,1437.36)" d="M31.5,-8.09375 C29.7031,-11.4063 25.9063,-13.2031 21.2969,-13.2031 C17.9063,-13.2031 14.2031,-12.2031 10.5938,-10.2969 C4,-6.79688 0,-0.90625 0,4.20313 C0,5.59375 0.296875,7 1,8.29688 C2.79688,11.5938 6.59375,13.2969 11.2031,13.2969 C14.5938,13.2969 18.2969,12.4063 21.9063,10.5 C28.5,7 32.5,1.09375 32.5,-4 C32.5,-5.40625 32.2031,-6.79688 31.5,-8.09375"/>
<path class="Note" transform="matrix(2.12598,0,0,2.12598,1920.78,1410.78)" d="M31.5,-8.09375 C29.7031,-11.4063 25.9063,-13.2031 21.2969,-13.2031 C17.9063,-13.2031 14.2031,-12.2031 10.5938,-10.2969 C4,-6.79688 0,-0.90625 0,4.20313 C0,5.59375 0.296875,7 1,8.29688 C2.79688,11.5938 6.59375,13.2969 11.2031,13.2969 C14.5938,13.2969 18.2969,12.4063 21.9063,10.5 C28.5,7 32.5,1.09375 32.5,-4 C32.5,-5.40625 32.2031,-6.79688 31.5,-8.09375"/>
<path class="Note" transform="matrix(2.12598,0,0,2.12598,2150.84,1384.21)" d="M31.5,-8.09375 C29.7031,-11.4063 25.9063,-13.2031 21.2969,-13.2031 C17.9063,-13.2031 14.2031,-12.2031 10.5938,-10.2969 C4,-6.79688 0,-0.90625 0,4.20313 C0,5.59375 0.296875,7 1,8.29688 C2.79688,11.5938 6.59375,13.2969 11.2031,13.2969 C14.5938,13.2969 18.2969,12.4063 21.9063,10.5 C28.5,7 32.5,1.09375 32.5,-4 C32.5,-5.40625 32.2031,-6.79688 31.5,-8.09375"/>
<path class="Note" transform="matrix(2.12598,0,0,2.12598,2603.26,1357.63)" d="M31.5,-8.09375 C29.7031,-11.4063 25.9063,-13.2031 21.2969,-13.2031 C17.9063,-13.2031 14.2031,-12.2031 10.5938,-10.2969 C4,-6.79688 0,-0.90625 0,4.20313 C0,5.59375 0.296875,7 1,8.29688 C2.79688,11.5938 6.59375,13.2969 11.2031,13.2969 C14.5938,13.2969 18.2969,12.4063 21.9063,10.5 C28.5,7 32.5,1.09375 32.5,-4 C32.5,-5.40625 32.2031,-6.79688 31.5,-8.09375"/>
<path class="Note" transform="matrix(2.12598,0,0,2.12598,2949.26,1357.63)" d="M31.5,-8.09375 C29.7031,-11.4063 25.9063,-13.2031 21.2969,-13.2031 C17.9063,-13.2031 14.2031,-12.2031 10.5938,-10.2969 C4,-6.79688 0,-0.90625 0,4.20313 C0,5.59375 0.296875,7 1,8.29688 C2.79688,11.5938 6.59375,13.2969 11.2031,13.2969 C14.5938,13.2969 18.2969,12.4063 21.9063,10.5 C28.5,7 32.5,1.09375 32.5,-4 C32.5,-5.40625 32.2031,-6.79688 31.5,-8.09375"/>
<path class="Note" transform="matrix(2.12598,0,0,2.12598,3295.27,1410.78)" d="M31.5,-8.09375 C29.7031,-11.4063 25.9063,-13.2031 21.2969,-13.2031 C17.9063,-13.2031 14.2031,-12.2031 10.5938,-10.2969 C4,-6.79688 0,-0.90625 0,4.20313 C0,5.59375 0.296875,7 1,8.29688 C2.79688,11.5938 6.59375,13.2969 11.2031,13.2969 C14.5938,13.2969 18.2969,12.4063 21.9063,10.5 C28.5,7 32.5,1.09375 32.5,-4 C32.5,-5.40625 32.2031,-6.79688 31.5,-8.09375"/>
<path class="Note" transform="matrix(2.12598,0,0,2.12598,3637.25,1410.78)" d="M31.5,-8.09375 C29.7031,-11.4063 25.9063,-13.2031 21.2969,-13.2031 C17.9063,-13.2031 14.2031,-12.2031 10.5938,-10.2969 C4,-6.79688 0,-0.90625 0,4.20313 C0,5.59375 0.296875,7 1,8.29688 C2.79688,11.5938 6.59375,13.2969 11.2031,13.2969 C14.5938,13.2969 18.2969,12.4063 21.9063,10.5 C28.5,7 32.5,1.09375 32.5,-4 C32.5,-5.40625 32.2031,-6.79688 31.5,-8.09375"/>
<path class="Note" transform="matrix(2.12598,0,0,2.12598,3979.24,1384.21)" d="M31.5,-8.09375 C29.7031,-11.4063 25.9063,-13.2031 21.2969,-13.2031 C17.9063,-13.2031 14.2031,-12.2031 10.5938,-10.2969 C4,-6.79688 0,-0.90625 0,4.20313 C0,5.59375 0.296875,7 1,8.29688 C2.79688,11.5938 6.59375,13.2969 11.2031,13.2969 C14.5938,13.2969 18.2969,12.4063 21.9063,10.5 C28.5,7 32.5,1.09375 32.5,-4 C32.5,-5.40625 32.2031,-6.79688 31.5,-8.09375"/>
<path class="Note" transform="matrix(2.12598,0,0,2.12598,657.389,2167.35)" d="M31.5,-8.09375 C29.7031,-11.4063 25.9063,-13.2031 21.2969,-13.2031 C17.9063,-13.2031 14.2031,-12.2031 10.5938,-10.2969 C4,-6.79688 0,-0.90625 0,4.20313 C0,5.59375 0.296875,7 1,8.29688 C2.79688,11.5938 6.59375,13.2969 11.2031,13.2969 C14.5938,13.2969 18.2969,12.4063 21.9063,10.5 C28.5,7 32.5,1.09375 32.5,-4 C32.5,-5.40625 32.2031,-6.79688 31.5,-8.09375"/>
<path class="Note" transform="matrix(2.12598,0,0,2.12598,1822.9,2220.5)" d="M31.5,-8.09375 C29.7031,-11.4063 25.9063,-13.2031 21.2969,-13.2031 C17.9063,-13.2031 14.2031,-12.2031 10.5938,-10.2969 C4,-6.79688 0,-0.90625 0,4.20313 C0,5.59375 0.296875,7 1,8.29688 C2.79688,11.5938 6.59375,13.2969 11.2031,13.2969 C14.5938,13.2969 18.2969,12.4063 21.9063,10.5 C28.5,7 32.5,1.09375 32.5,-4 C32.5,-5.40625 32.2031,-6.79688 31.5,-8.09375"/>
<path class="Note" transform="matrix(2.12598,0,0,2.12598,2076.27,2193.93)" d="M31.5,-8.09375 C29.7031,-11.4063 25.9063,-13.2031 21.2969,-13.2031 C17.9063,-13.2031 14.2031,-12.2031 10.5938,-10.2969 C4,-6.79688 0,-0.90625 0,4.20313 C0,5.59375 0.296875,7 1,8.29688 C2.79688,11.5938 6.59375,13.2969 11.2031,13.2969 C14.5938,13.2969 18.2969,12.4063 21.9063,10.5 C28.5,7 32.5,1.09375 32.5,-4 C32.5,-5.40625 32.2031,-6.79688 31.5,-8.09375"/>
<path class="Note" transform="matrix(2.12598,0,0,2.12598,2329.65,2167.35)" d="M31.5,-8.09375 C29.7031,-11.4063 25.9063,-13.2031 21.2969,-13.2031 C17.9063,-13.2031 14.2031,-12.2031 10.5938,-10.2969 C4,-6.79688 0,-0.90625 0,4.20313 C0,5.59375 0.296875,7 1,8.29688 C2.79688,11.5938 6.59375,13.2969 11.2031,13.2969 C14.5938,13.2969 18.2969,12.4063 21.9063,10.5 C28.5,7 32.5,1.09375 32.5,-4 C32.5,-5.40625 32.2031,-6.79688 31.5,-8.09375"/>
<path class="Note" transform="matrix(2.12598,0,0,2.12598,2863.27,2167.35)" d="M31.5,-8.09375 C29.7031,-11.4063 25.9063,-13.2031 21.2969,-13.2031 C17.9063,-13.2031 14.2031,-12.2031 10.5938,-10.2969 C4,-6.79688 0,-0.90625 0,4.20313 C0,5.59375 0.296875,7 1,8.29688 C2.79688,11.5938 6.59375,13.2969 11.2031,13.2969 C14.5938,13.2969 18.2969,12.4063 21.9063,10.5 C28.5,7 32.5,1.09375 32.5,-4 C32.5,-5.40625 32.2031,-6.79688 31.5,-8.09375"/>
<path class="Clef" transform="matrix(2.12598,0,0,2.12598,113.386,654.212)" d="M63.3594,-5.92188 C62.125,-11.3438 59.4844,-15.1719 58.7031,-16.2031 C55.5156,-20.4844 51.5,-23.3281 46.8125,-24.6875 C43.7031,-25.5625 40.7031,-25.6875 38.2813,-25.5 C37.2344,-31.5156 36.2344,-37.3906 35.3281,-42.8438 C40.7813,-49.0156 44.4063,-54.8125 46.6875,-59.1094 C50.1563,-65.6875 51.2969,-70.2656 51.3594,-70.4688 C53.0781,-75.6875 53.4375,-83.3906 52.3281,-91.5938 C51.3281,-99.1406 49.2344,-105.859 46.875,-109.109 C45.8594,-110.531 44.7969,-111.266 43.7656,-111.266 C42.5469,-111.266 40.0313,-110.031 37.1406,-107.25 C34.8438,-105.063 31.5781,-101.172 29.0156,-95.1563 C26.0156,-88.0938 25.7969,-78.6094 26.1563,-71.8906 C26.5313,-64.6094 27.6406,-58.9219 27.6563,-58.875 C27.6719,-58.7813 27.9375,-57.2813 28.375,-54.7188 C28.1563,-54.4844 27.9063,-54.2656 27.6563,-54.0156 C26.625,-53.0156 25.4375,-51.8906 24.0469,-50.5 C23.1875,-49.6406 22.2344,-48.7344 21.2344,-47.7656 C12.7969,-39.625 0,-27.2969 0,-8.14063 C0,-3.4375 0.90625,0.984375 2.6875,5 C4.26563,8.59375 6.5625,11.875 9.5,14.75 C17.2344,22.3125 27.8281,25.5156 34.875,25.3594 C37.8281,25.2813 40.4688,25.0469 42.8594,24.5938 C44.6875,34.2031 45.8281,41.2344 45.8594,46.5781 C45.9063,53.0938 44.25,57.0781 40.3594,59.8438 C37.9219,61.5781 35.1094,62.5313 32.0156,62.6719 C29.4219,62.7969 27.1563,62.3281 25.7344,61.9219 L25.7188,61.9219 C25.7188,61.9219 25.4375,61.8281 25.4219,61.6406 C25.4063,61.4531 25.7656,61.4063 25.7656,61.4063 L25.7969,61.4063 C27.7188,60.9688 31.2813,59.7344 33.6406,56.4375 C35.4375,53.9063 36.3125,49.2813 34.4688,45.3438 C33.3594,42.9531 30.8594,40 25.2344,39.5469 C22.7344,39.3438 20.4688,39.8594 18.4688,41.0625 C16.6563,42.1406 15.1563,43.7813 14.1094,45.7813 C11.6563,50.4844 12.1094,56.2188 15.2344,60.0625 C18.2031,63.6875 22.8125,66 28.25,66.5781 C29.1094,66.6719 29.9531,66.7031 30.7969,66.7031 C35.2344,66.7031 39.625,65.5 43.2031,63.2969 C46.8594,60.7188 48.9844,56.7344 49.6563,51.1094 C50.2188,46.4688 49.8281,40.5469 48.4375,32.4688 C48.0781,30.375 47.5313,27.3438 46.875,23.5938 C52.625,21.6719 56.7813,18.0938 60.5469,12.2344 C63.8438,6.5 64.7813,0.390625 63.3594,-5.92188 M29.1406,20.2969 C24.5,19.0781 20.0625,16.5781 16.3125,13.0625 C15,11.8438 13.125,9.67188 11.6563,6.28125 C10.2969,3.10938 9.625,-0.328125 9.6875,-3.90625 C9.75,-8.60938 11.0625,-13.4375 13.5625,-18.2188 C16.4844,-23.7969 21.0469,-29.3281 27.1094,-34.6563 C28.5625,-35.9375 29.9375,-37.2188 31.2188,-38.5 C31.9844,-34.2344 32.8125,-29.5469 33.6875,-24.6719 C29.8438,-23.4063 25.0938,-20.25 21.9844,-14.5938 C18.4375,-8.03125 18.5781,-2.5 19.3125,0.984375 C20.25,5.4375 22.7813,9.20313 26.2344,11.2969 C27.1719,11.8594 31.2969,13.9844 33.1406,13.4063 C33.5156,13.2969 33.7813,13.0625 33.9219,12.7344 C34.4375,11.5625 33.4063,10.9219 31.8594,9.96875 C31.25,9.59375 30.5781,9.17188 29.8594,8.64063 C26.5313,6.15625 25.0781,1.70313 26.1563,-2.6875 C26.7344,-5.07813 28.0156,-7.25 29.8594,-8.95313 C31.5156,-10.5 33.5625,-11.5938 35.9375,-12.2344 C37.9844,-0.984375 40.0469,10.1719 41.6875,18.5313 C41.8125,19.2188 41.9531,19.8906 42.0781,20.5625 C37.7031,21.5 33.3594,21.4063 29.1406,20.2969 M40.4688,-12.9063 C50.8125,-13.375 55.0781,-5.9375 55.9688,-1.10938 C56.4375,1.4375 56.4375,5.875 54.8906,10.0938 C53.7188,13.2656 51.2656,17.3438 46.125,19.4063 C46.0625,18.9844 45.9844,18.5469 45.9063,18.125 C44.3594,9.34375 42.4219,-1.65625 40.4688,-12.9063 M33.1406,-83.8594 C34.9219,-89.5938 37.6563,-92.8438 39.6563,-94.5781 C41.4063,-96.0938 43.0469,-96.8125 43.9688,-96.8125 C44.1094,-96.8125 44.2344,-96.7813 44.3281,-96.75 C44.7969,-96.6094 45.3281,-96.0469 45.7969,-95.1719 C48.1094,-90.8906 47.3594,-84.1719 46.0156,-79.7344 C44.3906,-74.3281 41.4688,-68.7188 32.6719,-59.1094 C32.5,-60.2188 32.3438,-61.2656 32.1875,-62.25 C30.9375,-70.5313 31.2656,-77.8125 33.1406,-83.8594"/>
<path class="Clef" transform="matrix(2.12598,0,0,2.12598,113.386,1437.36)" d="M63.3594,-5.92188 C62.125,-11.3438 59.4844,-15.1719 58.7031,-16.2031 C55.5156,-20.4844 51.5,-23.3281 46.8125,-24.6875 C43.7031,-25.5625 40.7031,-25.6875 38.2813,-25.5 C37.2344,-31.5156 36.2344,-37.3906 35.3281,-42.8438 C40.7813,-49.0156 44.4063,-54.8125 46.6875,-59.1094 C50.1563,-65.6875 51.2969,-70.2656 51.3594,-70.4688 C53.0781,-75.6875 53.4375,-83.3906 52.3281,-91.5938 C51.3281,-99.1406 49.2344,-105.859 46.875,-109.109 C45.8594,-110.531 44.7969,-111.266 43.7656,-111.266 C42.5469,-111.266 40.0313,-110.031 37.1406,-107.25 C34.8438,-105.063 31.5781,-101.172 29.0156,-95.1563 C26.0156,-88.0938 25.7969,-78.6094 26.1563,-71.8906 C26.5313,-64.6094 27.6406,-58.9219 27.6563,-58.875 C27.6719,-58.7813 27.9375,-57.2813 28.375,-54.7188 C28.1563,-54.4844 27.9063,-54.2656 27.6563,-54.0156 C26.625,-53.0156 25.4375,-51.8906 24.0469,-50.5 C23.1875,-49.6406 22.2344,-48.7344 21.2344,-47.7656 C12.7969,-39.625 0,-27.2969 0,-8.14063 C0,-3.4375 0.90625,0.984375 2.6875,5 C4.26563,8.59375 6.5625,11.875 9.5,14.75 C17.2344,22.3125 27.8281,25.5156 34.875,25.3594 C37.8281,25.2813 40.4688,25.0469 42.8594,24.5938 C44.6875,34.2031 45.8281,41.2344 45.8594,46.5781 C45.9063,53.0938 44.25,57.0781 40.3594,59.8438 C37.9219,61.5781 35.1094,62.5313 32.0156,62.6719 C29.4219,62.7969 27.1563,62.3281 25.7344,61.9219 L25.7188,61.9219 C25.7188,61.9219 25.4375,61.8281 25.4219,61.6406 C25.4063,61.4531 25.7656,61.4063 25.7656,61.4063 L25.7969,61.4063 C27.7188,60.9688 31.2813,59.7344 33.6406,56.4375 C35.4375,53.9063 36.3125,49.2813 34.4688,45.3438 C33.3594,42.9531 30.8594,40 25.2344,39.5469 C22.7344,39.3438 20.4688,39.8594 18.4688,41.0625 C16.6563,42.1406 15.1563,43.7813 14.1094,45.7813 C11.6563,50.4844 12.1094,56.2188 15.2344,60.0625 C18.2031,63.6875 22.8125,66 28.25,66.5781 C29.1094,66.6719 29.9531,66.7031 30.7969,66.7031 C35.2344,66.7031 39.625,65.5 43.2031,63.2969 C46.8594,60.7188 48.9844,56.7344 49.6563,51.1094 C50.2188,46.4688 49.8281,40.5469 48.4375,32.4688 C48.0781,30.375 47.5313,27.3438 46.875,23.5938 C52.625,21.6719 56.7813,18.0938 60.5469,12.2344 C63.8438,6.5 64.7813,0.390625 63.3594,-5.92188 M29.1406,20.2969 C24.5,19.0781 20.0625,16.5781 16.3125,13.0625 C15,11.8438 13.125,9.67188 11.6563,6.28125 C10.2969,3.10938 9.625,-0.328125 9.6875,-3.90625 C9.75,-8.60938 11.0625,-13.4375 13.5625,-18.2188 C16.4844,-23.7969 21.0469,-29.3281 27.1094,-34.6563 C28.5625,-35.9375 29.9375,-37.2188 31.2188,-38.5 C31.9844,-34.2344 32.8125,-29.5469 33.6875,-24.6719 C29.8438,-23.4063 25.0938,-20.25 21.9844,-14.5938 C18.4375,-8.03125 18.5781,-2.5 19.3125,0.984375 C20.25,5.4375 22.7813,9.20313 26.2344,11.2969 C27.1719,11.8594 31.2969,13.9844 33.1406,13.4063 C33.5156,13.2969 33.7813,13.0625 33.9219,12.7344 C34.4375,11.5625 33.4063,10.9219 31.8594,9.96875 C31.25,9.59375 30.5781,9.17188 29.8594,8.64063 C26.5313,6.15625 25.0781,1.70313 26.1563,-2.6875 C26.7344,-5.07813 28.0156,-7.25 29.8594,-8.95313 C31.5156,-10.5 33.5625,-11.5938 35.9375,-12.2344 C37.9844,-0.984375 40.0469,10.1719 41.6875,18.5313 C41.8125,19.2188 41.9531,19.8906 42.0781,20.5625 C37.7031,21.5 33.3594,21.4063 29.1406,20.2969 M40.4688,-12.9063 C50.8125,-13.375 55.0781,-5.9375 55.9688,-1.10938 C56.4375,1.4375 56.4375,5.875 54.8906,10.0938 C53.7188,13.2656 51.2656,17.3438 46.125,19.4063 C46.0625,18.9844 45.9844,18.5469 45.9063,18.125 C44.3594,9.34375 42.4219,-1.65625 40.4688,-12.9063 M33.1406,-83.8594 C34.9219,-89.5938 37.6563,-92.8438 39.6563,-94.5781 C41.4063,-96.0938 43.0469,-96.8125 43.9688,-96.8125 C44.1094,-96.8125 44.2344,-96.7813 44.3281,-96.75 C44.7969,-96.6094 45.3281,-96.0469 45.7969,-95.1719 C48.1094,-90.8906 47.3594,-84.1719 46.0156,-79.7344 C44.3906,-74.3281 41.4688,-68.7188 32.6719,-59.1094 C32.5,-60.2188 32.3438,-61.2656 32.1875,-62.25 C30.9375,-70.5313 31.2656,-77.8125 33.1406,-83.8594"/>
<path class="Clef" transform="matrix(2.12598,0,0,2.12598,113.386,2220.5)" d="M63.3594,-5.92188 C62.125,-11.3438 59.4844,-15.1719 58.7031,-16.2031 C55.5156,-20.4844 51.5,-23.3281 46.8125,-24.6875 C43.7031,-25.5625 40.7031,-25.6875 38.2813,-25.5 C37.2344,-31.5156 36.2344,-37.3906 35.3281,-42.8438 C40.7813,-49.0156 44.4063,-54.8125 46.6875,-59.1094 C50.1563,-65.6875 51.2969,-70.2656 51.3594,-70.4688 C53.0781,-75.6875 53.4375,-83.3906 52.3281,-91.5938 C51.3281,-99.1406 49.2344,-105.859 46.875,-109.109 C45.8594,-110.531 44.7969,-111.266 43.7656,-111.266 C42.5469,-111.266 40.0313,-110.031 37.1406,-107.25 C34.8438,-105.063 31.5781,-101.172 29.0156,-95.1563 C26.0156,-88.0938 25.7969,-78.6094 26.1563,-71.8906 C26.5313,-64.6094 27.6406,-58.9219 27.6563,-58.875 C27.6719,-58.7813 27.9375,-57.2813 28.375,-54.7188 C28.1563,-54.4844 27.9063,-54.2656 27.6563,-54.0156 C26.625,-53.0156 25.4375,-51.8906 24.0469,-50.5 C23.1875,-49.6406 22.2344,-48.7344 21.2344,-47.7656 C12.7969,-39.625 0,-27.2969 0,-8.14063 C0,-3.4375 0.90625,0.984375 2.6875,5 C4.26563,8.59375 6.5625,11.875 9.5,14.75 C17.2344,22.3125 27.8281,25.5156 34.875,25.3594 C37.8281,25.2813 40.4688,25.0469 42.8594,24.5938 C44.6875,34.2031 45.8281,41.2344 45.8594,46.5781 C45.9063,53.0938 44.25,57.0781 40.3594,59.8438 C37.9219,61.5781 35.1094,62.5313 32.0156,62.6719 C29.4219,62.7969 27.1563,62.3281 25.7344,61.9219 L25.7188,61.9219 C25.7188,61.9219 25.4375,61.8281 25.4219,61.6406 C25.4063,61.4531 25.7656,61.4063 25.7656,61.4063 L25.7969,61.4063 C27.7188,60.9688 31.2813,59.7344 33.6406,56.4375 C35.4375,53.9063 36.3125,49.2813 34.4688,45.3438 C33.3594,42.9531 30.8594,40 25.2344,39.5469 C22.7344,39.3438 20.4688,39.8594 18.4688,41.0625 C16.6563,42.1406 15.1563,43.7813 14.1094,45.7813 C11.6563,50.4844 12.1094,56.2188 15.2344,60.0625 C18.2031,63.6875 22.8125,66 28.25,66.5781 C29.1094,66.6719 29.9531,66.7031 30.7969,66.7031 C35.2344,66.7031 39.625,65.5 43.2031,63.2969 C46.8594,60.7188 48.9844,56.7344 49.6563,51.1094 C50.2188,46.4688 49.8281,40.5469 48.4375,32.4688 C48.0781,30.375 47.5313,27.3438 46.875,23.5938 C52.625,21.6719 56.7813,18.0938 60.5469,12.2344 C63.8438,6.5 64.7813,0.390625 63.3594,-5.92188 M29.1406,20.2969 C24.5,19.0781 20.0625,16.5781 16.3125,13.0625 C15,11.8438 13.125,9.67188 11.6563,6.28125 C10.2969,3.10938 9.625,-0.328125 9.6875,-3.90625 C9.75,-8.60938 11.0625,-13.4375 13.5625,-18.2188 C16.4844,-23.7969 21.0469,-29.3281 27.1094,-34.6563 C28.5625,-35.9375 29.9375,-37.2188 31.2188,-38.5 C31.9844,-34.2344 32.8125,-29.5469 33.6875,-24.6719 C29.8438,-23.4063 25.0938,-20.25 21.9844,-14.5938 C18.4375,-8.03125 18.5781,-2.5 19.3125,0.984375 C20.25,5.4375 22.7813,9.20313 26.2344,11.2969 C27.1719,11.8594 31.2969,13.9844 33.1406,13.4063 C33.5156,13.2969 33.7813,13.0625 33.9219,12.7344 C34.4375,11.5625 33.4063,10.9219 31.8594,9.96875 C31.25,9.59375 30.5781,9.17188 29.8594,8.64063 C26.5313,6.15625 25.0781,1.70313 26.1563,-2.6875 C26.7344,-5.07813 28.0156,-7.25 29.8594,-8.95313 C31.5156,-10.5 33.5625,-11.5938 35.9375,-12.2344 C37.9844,-0.984375 40.0469,10.1719 41.6875,18.5313 C41.8125,19.2188 41.9531,19.8906 42.0781,20.5625 C37.7031,21.5 33.3594,21.4063 29.1406,20.2969 M40.4688,-12.9063 C50.8125,-13.375 55.0781,-5.9375 55.9688,-1.10938 C56.4375,1.4375 56.4375,5.875 54.8906,10.0938 C53.7188,13.2656 51.2656,17.3438 46.125,19.4063 C46.0625,18.9844 45.9844,18.5469 45.9063,18.125 C44.3594,9.34375 42.4219,-1.65625 40.4688,-12.9063 M33.1406,-83.8594 C34.9219,-89.5938 37.6563,-92.8438 39.6563,-94.5781 C41.4063,-96.0938 43.0469,-96.8125 43.9688,-96.8125 C44.1094,-96.8125 44.2344,-96.7813 44.3281,-96.75 C44.7969,-96.6094 45.3281,-96.0469 45.7969,-95.1719 C48.1094,-90.8906 47.3594,-84.1719 46.0156,-79.7344 C44.3906,-74.3281 41.4688,-68.7188 32.6719,-59.1094 C32.5,-60.2188 32.3438,-61.2656 32.1875,-62.25 C30.9375,-70.5313 31.2656,-77.8125 33.1406,-83.8594"/>
<path class="KeySig" transform="matrix(2.12598,0,0,2.12598,355.715,574.488)" d="M23.2969,-10.5938 C23.9063,-10.7031 24.4063,-11.4063 24.4063,-12 L24.4063,-17.9063 C24.4063,-18.7031 23.7969,-19.2969 23,-19.2969 L22.7969,-19.2969 L19.5,-18.5938 L19.5,-33.5 L16.7031,-33.5 L16.7031,-18 L7.79688,-16.2031 L7.79688,-30.2969 L5,-30.2969 L5,-15.5938 L1.09375,-14.7969 C0.5,-14.7031 0,-14 0,-13.4063 L0,-13.2031 L0,-7.40625 L0,-7.59375 C0,-6.79688 0.59375,-6.20313 1.40625,-6.20313 L1.70313,-6.20313 L5,-6.90625 L5,9.59375 L1.09375,10.4063 C0.5,10.5 0,11.2031 0,11.7969 L0,17.5938 C0,18.4063 0.59375,19 1.40625,19 L1.70313,19 L5,18.2969 L5,33.2031 L7.79688,33.2031 L7.79688,17.7031 L16.7031,15.9063 L16.7031,30 L19.5,30 L19.5,15.2969 L23.2969,14.5938 C23.9063,14.5 24.4063,13.7969 24.4063,13.2031 L24.4063,7.29688 C24.4063,6.5 23.7969,5.90625 23,5.90625 L22.7969,5.90625 L19.5,6.59375 L19.5,-9.90625 L23.2969,-10.5938 M7.79688,9.09375 L7.79688,-7.5 L16.7031,-9.29688 L16.7031,7.20313 L7.79688,9.09375 "/>
<path class="KeySig" transform="matrix(2.12598,0,0,2.12598,302.565,494.764)" d="M23.2969,-10.5938 C23.9063,-10.7031 24.4063,-11.4063 24.4063,-12 L24.4063,-17.9063 C24.4063,-18.7031 23.7969,-19.2969 23,-19.2969 L22.7969,-19.2969 L19.5,-18.5938 L19.5,-33.5 L16.7031,-33.5 L16.7031,-18 L7.79688,-16.2031 L7.79688,-30.2969 L5,-30.2969 L5,-15.5938 L1.09375,-14.7969 C0.5,-14.7031 0,-14 0,-13.4063 L0,-13.2031 L0,-7.40625 L0,-7.59375 C0,-6.79688 0.59375,-6.20313 1.40625,-6.20313 L1.70313,-6.20313 L5,-6.90625 L5,9.59375 L1.09375,10.4063 C0.5,10.5 0,11.2031 0,11.7969 L0,17.5938 C0,18.4063 0.59375,19 1.40625,19 L1.70313,19 L5,18.2969 L5,33.2031 L7.79688,33.2031 L7.79688,17.7031 L16.7031,15.9063 L16.7031,30 L19.5,30 L19.5,15.2969 L23.2969,14.5938 C23.9063,14.5 24.4063,13.7969 24.4063,13.2031 L24.4063,7.29688 C24.4063,6.5 23.7969,5.90625 23,5.90625 L22.7969,5.90625 L19.5,6.59375 L19.5,-9.90625 L23.2969,-10.5938 M7.79688,9.09375 L7.79688,-7.5 L16.7031,-9.29688 L16.7031,7.20313 L7.79688,9.09375 "/>
<path class="KeySig" transform="matrix(2.12598,0,0,2.12598,355.715,1357.63)" d="M23.2969,-10.5938 C23.9063,-10.7031 24.4063,-11.4063 24.4063,-12 L24.4063,-17.9063 C24.4063,-18.7031 23.7969,-19.2969 23,-19.2969 L22.7969,-19.2969 L19.5,-18.5938 L19.5,-33.5 L16.7031,-33.5 L16.7031,-18 L7.79688,-16.2031 L7.79688,-30.2969 L5,-30.2969 L5,-15.5938 L1.09375,-14.7969 C0.5,-14.7031 0,-14 0,-13.4063 L0,-13.2031 L0,-7.40625 L0,-7.59375 C0,-6.79688 0.59375,-6.20313 1.40625,-6.20313 L1.70313,-6.20313 L5,-6.90625 L5,9.59375 L1.09375,10.4063 C0.5,10.5 0,11.2031 0,11.7969 L0,17.5938 C0,18.4063 0.59375,19 1.40625,19 L1.70313,19 L5,18.2969 L5,33.2031 L7.79688,33.2031 L7.79688,17.7031 L16.7031,15.9063 L16.7031,30 L19.5,30 L19.5,15.2969 L23.2969,14.5938 C23.9063,14.5 24.4063,13.7969 24.4063,13.2031 L24.4063,7.29688 C24.4063,6.5 23.7969,5.90625 23,5.90625 L22.7969,5.90625 L19.5,6.59375 L19.5,-9.90625 L23.2969,-10.5938 M7.79688,9.09375 L7.79688,-7.5 L16.7031,-9.29688 L16.7031,7.20313 L7.79688,9.09375 "/>
<path class="KeySig" transform="matrix(2.12598,0,0,2.12598,302.565,1277.91)" d="M23.2969,-10.5938 C23.9063,-10.7031 24.4063,-11.4063 24.4063,-12 L24.4063,-17.9063 C24.4063,-18.7031 23.7969,-19.2969 23,-19.2969 L22.7969,-19.2969 L19.5,-18.5938 L19.5,-33.5 L16.7031,-33.5 L16.7031,-18 L7.79688,-16.2031 L7.79688,-30.2969 L5,-30.2969 L5,-15.5938 L1.09375,-14.7969 C0.5,-14.7031 0,-14 0,-13.4063 L0,-13.2031 L0,-7.40625 L0,-7.59375 C0,-6.79688 0.59375,-6.20313 1.40625,-6.20313 L1.70313,-6.20313 L5,-6.90625 L5,9.59375 L1.09375,10.4063 C0.5,10.5 0,11.2031 0,11.7969 L0,17.5938 C0,18.4063 0.59375,19 1.40625,19 L1.70313,19 L5,18.2969 L5,33.2031 L7.79688,33.2031 L7.79688,17.7031 L16.7031,15.9063 L16.7031,30 L19.5,30 L19.5,15.2969 L23.2969,14.5938 C23.9063,14.5 24.4063,13.7969 24.4063,13.2031 L24.4063,7.29688 C24.4063,6.5 23.7969,5.90625 23,5.90625 L22.7969,5.90625 L19.5,6.59375 L19.5,-9.90625 L23.2969,-10.5938 M7.79688,9.09375 L7.79688,-7.5 L16.7031,-9.29688 L16.7031,7.20313 L7.79688,9.09375 "/>
<path class="KeySig" transform="matrix(2.12598,0,0,2.12598,355.715,2140.78)" d="M23.2969,-10.5938 C23.9063,-10.7031 24.4063,-11.4063 24.4063,-12 L24.4063,-17.9063 C24.4063,-18.7031 23.7969,-19.2969 23,-19.2969 L22.7969,-19.2969 L19.5,-18.5938 L19.5,-33.5 L16.7031,-33.5 L16.7031,-18 L7.79688,-16.2031 L7.79688,-30.2969 L5,-30.2969 L5,-15.5938 L1.09375,-14.7969 C0.5,-14.7031 0,-14 0,-13.4063 L0,-13.2031 L0,-7.40625 L0,-7.59375 C0,-6.79688 0.59375,-6.20313 1.40625,-6.20313 L1.70313,-6.20313 L5,-6.90625 L5,9.59375 L1.09375,10.4063 C0.5,10.5 0,11.2031 0,11.7969 L0,17.5938 C0,18.4063 0.59375,19 1.40625,19 L1.70313,19 L5,18.2969 L5,33.2031 L7.79688,33.2031 L7.79688,17.7031 L16.7031,15.9063 L16.7031,30 L19.5,30 L19.5,15.2969 L23.2969,14.5938 C23.9063,14.5 24.4063,13.7969 24.4063,13.2031 L24.4063,7.29688 C24.4063,6.5 23.7969,5.90625 23,5.90625 L22.7969,5.90625 L19.5,6.59375 L19.5,-9.90625 L23.2969,-10.5938 M7.79688,9.09375 L7.79688,-7.5 L16.7031,-9.29688 L16.7031,7.20313 L7.79688,9.09375 "/>
<path class="KeySig" transform="matrix(2.12598,0,0,2.12598,302.565,2061.05)" d="M23.2969,-10.5938 C23.9063,-10.7031 24.4063,-11.4063 24.4063,-12 L24.4063,-17.9063 C24.4063,-18.7031 23.7969,-19.2969 23,-19.2969 L22.7969,-19.2969 L19.5,-18.5938 L19.5,-33.5 L16.7031,-33.5 L16.7031,-18 L7.79688,-16.2031 L7.79688,-30.2969 L5,-30.2969 L5,-15.5938 L1.09375,-14.7969 C0.5,-14.7031 0,-14 0,-13.4063 L0,-13.2031 L0,-7.40625 L0,-7.59375 C0,-6.79688 0.59375,-6.20313 1.40625,-6.20313 L1.70313,-6.20313 L5,-6.90625 L5,9.59375 L1.09375,10.4063 C0.5,10.5 0,11.2031 0,11.7969 L0,17.5938 C0,18.4063 0.59375,19 1.40625,19 L1.70313,19 L5,18.2969 L5,33.2031 L7.79688,33.2031 L7.79688,17.7031 L16.7031,15.9063 L16.7031,30 L19.5,30 L19.5,15.2969 L23.2969,14.5938 C23.9063,14.5 24.4063,13.7969 24.4063,13.2031 L24.4063,7.29688 C24.4063,6.5 23.7969,5.90625 23,5.90625 L22.7969,5.90625 L19.5,6.59375 L19.5,-9.90625 L23.2969,-10.5938 M7.79688,9.09375 L7.79688,-7.5 L16.7031,-9.29688 L16.7031,7.20313 L7.79688,9.09375 "/>
<path class="TimeSig" transform="matrix(2.12598,0,0,2.12598,457.812,548.196)" d="M3.59375,12.625 L20.7656,12.625 L20.7656,20.0781 L12.5469,20.0781 C11.7656,20.0781 11.125,20.7031 11.125,21.4844 L11.125,23.3906 C11.125,24.1719 11.7656,24.7969 12.5469,24.7969 L42.7969,24.7969 C43.5781,24.7969 44.2031,24.1719 44.2031,23.3906 L44.2031,21.4844 C44.2031,20.7031 43.5781,20.0781 42.7969,20.0781 L33.8594,20.0781 L33.8594,12.625 L42.7969,12.625 C43.5781,12.625 44.2031,12 44.2031,11.2188 L44.2031,9.3125 C44.2031,8.53125 43.5781,7.90625 42.7969,7.90625 L33.8594,7.90625 L33.8594,-8.0625 C33.8594,-8.59375 33.5469,-9.07813 33.0781,-9.3125 L31.8594,-9.92188 C31.3281,-10.1719 30.7031,-10.0781 30.2656,-9.6875 L21.2188,-1.375 C20.9375,-1.09375 20.7656,-0.734375 20.7656,-0.328125 L20.7656,7.90625 L9.25,7.90625 C9.25,7.90625 20.375,-4.125 32.2188,-19.8906 C33.0781,-21.0469 32.5781,-22.0938 32.3906,-22.2813 L30.2188,-24.4844 C29.9531,-24.75 29.5938,-24.9063 29.2188,-24.9063 C28.625,-24.9063 15.0625,-24.875 14.3438,-24.9063 C13.625,-24.9219 13.0938,-24.2969 13.0156,-23.6875 C13.0156,-23.6875 12.4844,-16.3281 9.875,-8.1875 C7.28125,-0.078125 4.34375,4.90625 1.6875,8.53125 C1.6875,8.53125 1.14063,9.51563 1.5,10.2656 C1.84375,11.0156 2.48438,12.0938 2.48438,12.0938 C2.48438,12.0938 2.73438,12.625 3.59375,12.625"/>
<path class="TimeSig" transform="matrix(2.12598,0,0,2.12598,457.812,653.93)" d="M3.59375,12.625 L20.7656,12.625 L20.7656,20.0781 L12.5469,20.0781 C11.7656,20.0781 11.125,20.7031 11.125,21.4844 L11.125,23.3906 C11.125,24.1719 11.7656,24.7969 12.5469,24.7969 L42.7969,24.7969 C43.5781,24.7969 44.2031,24.1719 44.2031,23.3906 L44.2031,21.4844 C44.2031,20.7031 43.5781,20.0781 42.7969,20.0781 L33.8594,20.0781 L33.8594,12.625 L42.7969,12.625 C43.5781,12.625 44.2031,12 44.2031,11.2188 L44.2031,9.3125 C44.2031,8.53125 43.5781,7.90625 42.7969,7.90625 L33.8594,7.90625 L33.8594,-8.0625 C33.8594,-8.59375 33.5469,-9.07813 33.0781,-9.3125 L31.8594,-9.92188 C31.3281,-10.1719 30.7031,-10.0781 30.2656,-9.6875 L21.2188,-1.375 C20.9375,-1.09375 20.7656,-0.734375 20.7656,-0.328125 L20.7656,7.90625 L9.25,7.90625 C9.25,7.90625 20.375,-4.125 32.2188,-19.8906 C33.0781,-21.0469 32.5781,-22.0938 32.3906,-22.2813 L30.2188,-24.4844 C29.9531,-24.75 29.5938,-24.9063 29.2188,-24.9063 C28.625,-24.9063 15.0625,-24.875 14.3438,-24.9063 C13.625,-24.9219 13.0938,-24.2969 13.0156,-23.6875 C13.0156,-23.6875 12.4844,-16.3281 9.875,-8.1875 C7.28125,-0.078125 4.34375,4.90625 1.6875,8.53125 C1.6875,8.53125 1.14063,9.51563 1.5,10.2656 C1.84375,11.0156 2.48438,12.0938 2.48438,12.0938 C2.48438,12.0938 2.73438,12.625 3.59375,12.625"/>
<path class="Rest" transform="matrix(2.12598,0,0,2.12598,658.069,601.063)" d="M0,-11.7969 L0,-1 C0,0.40625 0,0.40625 1.40625,0.40625 L31.1094,0.40625 C32.5,0.40625 32.5,0.40625 32.5,-1 L32.5,-11.7969 C32.5,-13.2031 32.5,-13.2031 31.1094,-13.2031 L1.40625,-13.2031 C0,-13.2031 0,-13.2031 0,-11.7969"/>
<path class="Rest" transform="matrix(2.12598,0,0,2.12598,1120.7,601.063)" d="M26.7344,-20.2656 C25.9844,-20.5469 25.3125,-20.2031 24.9844,-19.5938 C24.6563,-18.9844 21.4688,-13.0625 17.0469,-9.79688 C15.6563,-8.78125 14.0625,-8.14063 12.5,-7.8125 C13.625,-9.0625 14.2969,-10.7344 14.2969,-12.5469 C14.2969,-16.5 11.0938,-19.7031 7.15625,-19.7031 C3.20313,-19.7031 0,-16.5 0,-12.5469 C0,-9.54688 1.875,-6.95313 4.51563,-5.90625 C6.04688,-5.1875 7.95313,-4.73438 10,-4.73438 C12.8438,-4.73438 15.9531,-5.5625 18.6719,-7.5625 C19.9375,-8.48438 21.125,-9.6875 22.2031,-10.9375 L10.8125,24.6875 L13.4531,25.5469 L27.5313,-18.5469 C27.7656,-19.2813 27.4688,-19.9688 26.7344,-20.2656"/>
<path class="Rest" transform="matrix(2.12598,0,0,2.12598,2496.72,601.063)" d="M33.4688,-20.2656 C32.7188,-20.5313 32.0469,-20.1719 31.7344,-19.5469 C31.4375,-18.9375 28.6094,-13.5 24.2969,-10.0938 C22.9531,-9.03125 21.3906,-8.34375 19.8281,-7.95313 C20.9063,-9.26563 21.5313,-10.9375 21.4688,-12.75 C21.3281,-16.6875 18.0313,-19.7656 14.0938,-19.625 C10.1563,-19.4844 7.0625,-16.1875 7.20313,-12.25 C7.3125,-9.23438 9.26563,-6.73438 11.9375,-5.78125 C13.5,-5.09375 15.4063,-4.73438 17.4531,-4.79688 C20.2969,-4.90625 23.375,-5.84375 26.0156,-7.92188 C27.25,-8.89063 28.4063,-10.125 29.4375,-11.4219 L29.4375,-11.4063 L24.9375,4.5 C24.9375,4.5 24.9375,4.51563 24.9219,4.51563 L24.9219,4.53125 C24.4531,5.48438 21.2031,11.6563 17.1875,14.8281 C15.8438,15.9063 14.2813,16.5938 12.7188,16.9688 C13.7969,15.6719 14.4219,14 14.3594,12.1875 C14.2188,8.23438 10.9219,5.15625 6.98438,5.29688 C3.04688,5.4375 -0.046875,8.73438 0.09375,12.6875 C0.203125,15.6875 2.15625,18.1875 4.82813,19.1563 C6.39063,19.8281 8.29688,20.2031 10.3438,20.125 C13.1875,20.0313 16.2656,19.0938 18.9063,17.0156 C20.125,16.0469 21.2813,14.8281 22.3125,13.5156 L12.1094,49.9844 L14.7813,50.7344 L33.4531,-15.4688 L34.3281,-18.5938 C34.5313,-19.3281 34.2188,-20.0156 33.4688,-20.2656"/>
<path class="Rest" transform="matrix(2.12598,0,0,2.12598,2902.37,601.063)" d="M33.4688,-20.2656 C32.7188,-20.5313 32.0469,-20.1719 31.7344,-19.5469 C31.4375,-18.9375 28.6094,-13.5 24.2969,-10.0938 C22.9531,-9.03125 21.3906,-8.34375 19.8281,-7.95313 C20.9063,-9.26563 21.5313,-10.9375 21.4688,-12.75 C21.3281,-16.6875 18.0313,-19.7656 14.0938,-19.625 C10.1563,-19.4844 7.0625,-16.1875 7.20313,-12.25 C7.3125,-9.23438 9.26563,-6.73438 11.9375,-5.78125 C13.5,-5.09375 15.4063,-4.73438 17.4531,-4.79688 C20.2969,-4.90625 23.375,-5.84375 26.0156,-7.92188 C27.25,-8.89063 28.4063,-10.125 29.4375,-11.4219 L29.4375,-11.4063 L24.9375,4.5 C24.9375,4.5 24.9375,4.51563 24.9219,4.51563 L24.9219,4.53125 C24.4531,5.48438 21.2031,11.6563 17.1875,14.8281 C15.8438,15.9063 14.2813,16.5938 12.7188,16.9688 C13.7969,15.6719 14.4219,14 14.3594,12.1875 C14.2188,8.23438 10.9219,5.15625 6.98438,5.29688 C3.04688,5.4375 -0.046875,8.73438 0.09375,12.6875 C0.203125,15.6875 2.15625,18.1875 4.82813,19.1563 C6.39063,19.8281 8.29688,20.2031 10.3438,20.125 C13.1875,20.0313 16.2656,19.0938 18.9063,17.0156 C20.125,16.0469 21.2813,14.8281 22.3125,13.5156 L12.1094,49.9844 L14.7813,50.7344 L33.4531,-15.4688 L34.3281,-18.5938 C34.5313,-19.3281 34.2188,-20.0156 33.4688,-20.2656"/>
<path class="Rest" transform="matrix(2.12598,0,0,2.12598,3308.03,601.063)" d="M26.7344,-20.2656 C25.9844,-20.5469 25.3125,-20.2031 24.9844,-19.5938 C24.6563,-18.9844 21.4688,-13.0625 17.0469,-9.79688 C15.6563,-8.78125 14.0625,-8.14063 12.5,-7.8125 C13.625,-9.0625 14.2969,-10.7344 14.2969,-12.5469 C14.2969,-16.5 11.0938,-19.7031 7.15625,-19.7031 C3.20313,-19.7031 0,-16.5 0,-12.5469 C0,-9.54688 1.875,-6.95313 4.51563,-5.90625 C6.04688,-5.1875 7.95313,-4.73438 10,-4.73438 C12.8438,-4.73438 15.9531,-5.5625 18.6719,-7.5625 C19.9375,-8.48438 21.125,-9.6875 22.2031,-10.9375 L10.8125,24.6875 L13.4531,25.5469 L27.5313,-18.5469 C27.7656,-19.2813 27.4688,-19.9688 26.7344,-20.2656"/>
<path class="Rest" transform="matrix(2.12598,0,0,2.12598,3718.04,601.063)" d="M26.7344,-20.2656 C25.9844,-20.5469 25.3125,-20.2031 24.9844,-19.5938 C24.6563,-18.9844 21.4688,-13.0625 17.0469,-9.79688 C15.6563,-8.78125 14.0625,-8.14063 12.5,-7.8125 C13.625,-9.0625 14.2969,-10.7344 14.2969,-12.5469 C14.2969,-16.5 11.0938,-19.7031 7.15625,-19.7031 C3.20313,-19.7031 0,-16.5 0,-12.5469 C0,-9.54688 1.875,-6.95313 4.51563,-5.90625 C6.04688,-5.1875 7.95313,-4.73438 10,-4.73438 C12.8438,-4.73438 15.9531,-5.5625 18.6719,-7.5625 C19.9375,-8.48438 21.125,-9.6875 22.2031,-10.9375 L10.8125,24.6875 L13.4531,25.5469 L27.5313,-18.5469 C27.7656,-19.2813 27.4688,-19.9688 26.7344,-20.2656"/>
<path class="Rest" transform="matrix(2.12598,0,0,2.12598,540.459,1384.21)" d="M26.7344,-20.2656 C25.9844,-20.5469 25.3125,-20.2031 24.9844,-19.5938 C24.6563,-18.9844 21.4688,-13.0625 17.0469,-9.79688 C15.6563,-8.78125 14.0625,-8.14063 12.5,-7.8125 C13.625,-9.0625 14.2969,-10.7344 14.2969,-12.5469 C14.2969,-16.5 11.0938,-19.7031 7.15625,-19.7031 C3.20313,-19.7031 0,-16.5 0,-12.5469 C0,-9.54688 1.875,-6.95313 4.51563,-5.90625 C6.04688,-5.1875 7.95313,-4.73438 10,-4.73438 C12.8438,-4.73438 15.9531,-5.5625 18.6719,-7.5625 C19.9375,-8.48438 21.125,-9.6875 22.2031,-10.9375 L10.8125,24.6875 L13.4531,25.5469 L27.5313,-18.5469 C27.7656,-19.2813 27.4688,-19.9688 26.7344,-20.2656"/>
<path class="Rest" transform="matrix(2.12598,0,0,2.12598,2748.6,1384.21)" d="M33.4688,-20.2656 C32.7188,-20.5313 32.0469,-20.1719 31.7344,-19.5469 C31.4375,-18.9375 28.6094,-13.5 24.2969,-10.0938 C22.9531,-9.03125 21.3906,-8.34375 19.8281,-7.95313 C20.9063,-9.26563 21.5313,-10.9375 21.4688,-12.75 C21.3281,-16.6875 18.0313,-19.7656 14.0938,-19.625 C10.1563,-19.4844 7.0625,-16.1875 7.20313,-12.25 C7.3125,-9.23438 9.26563,-6.73438 11.9375,-5.78125 C13.5,-5.09375 15.4063,-4.73438 17.4531,-4.79688 C20.2969,-4.90625 23.375,-5.84375 26.0156,-7.92188 C27.25,-8.89063 28.4063,-10.125 29.4375,-11.4219 L29.4375,-11.4063 L24.9375,4.5 C24.9375,4.5 24.9375,4.51563 24.9219,4.51563 L24.9219,4.53125 C24.4531,5.48438 21.2031,11.6563 17.1875,14.8281 C15.8438,15.9063 14.2813,16.5938 12.7188,16.9688 C13.7969,15.6719 14.4219,14 14.3594,12.1875 C14.2188,8.23438 10.9219,5.15625 6.98438,5.29688 C3.04688,5.4375 -0.046875,8.73438 0.09375,12.6875 C0.203125,15.6875 2.15625,18.1875 4.82813,19.1563 C6.39063,19.8281 8.29688,20.2031 10.3438,20.125 C13.1875,20.0313 16.2656,19.0938 18.9063,17.0156 C20.125,16.0469 21.2813,14.8281 22.3125,13.5156 L12.1094,49.9844 L14.7813,50.7344 L33.4531,-15.4688 L34.3281,-18.5938 C34.5313,-19.3281 34.2188,-20.0156 33.4688,-20.2656"/>
<path class="Rest" transform="matrix(2.12598,0,0,2.12598,3094.61,1384.21)" d="M33.4688,-20.2656 C32.7188,-20.5313 32.0469,-20.1719 31.7344,-19.5469 C31.4375,-18.9375 28.6094,-13.5 24.2969,-10.0938 C22.9531,-9.03125 21.3906,-8.34375 19.8281,-7.95313 C20.9063,-9.26563 21.5313,-10.9375 21.4688,-12.75 C21.3281,-16.6875 18.0313,-19.7656 14.0938,-19.625 C10.1563,-19.4844 7.0625,-16.1875 7.20313,-12.25 C7.3125,-9.23438 9.26563,-6.73438 11.9375,-5.78125 C13.5,-5.09375 15.4063,-4.73438 17.4531,-4.79688 C20.2969,-4.90625 23.375,-5.84375 26.0156,-7.92188 C27.25,-8.89063 28.4063,-10.125 29.4375,-11.4219 L29.4375,-11.4063 L24.9375,4.5 C24.9375,4.5 24.9375,4.51563 24.9219,4.51563 L24.9219,4.53125 C24.4531,5.48438 21.2031,11.6563 17.1875,14.8281 C15.8438,15.9063 14.2813,16.5938 12.7188,16.9688 C13.7969,15.6719 14.4219,14 14.3594,12.1875 C14.2188,8.23438 10.9219,5.15625 6.98438,5.29688 C3.04688,5.4375 -0.046875,8.73438 0.09375,12.6875 C0.203125,15.6875 2.15625,18.1875 4.82813,19.1563 C6.39063,19.8281 8.29688,20.2031 10.3438,20.125 C13.1875,20.0313 16.2656,19.0938 18.9063,17.0156 C20.125,16.0469 21.2813,14.8281 22.3125,13.5156 L12.1094,49.9844 L14.7813,50.7344 L33.4531,-15.4688 L34.3281,-18.5938 C34.5313,-19.3281 34.2188,-20.0156 33.4688,-20.2656"/>
<path class="Rest" transform="matrix(2.12598,0,0,2.12598,3440.61,1384.21)" d="M26.7344,-20.2656 C25.9844,-20.5469 25.3125,-20.2031 24.9844,-19.5938 C24.6563,-18.9844 21.4688,-13.0625 17.0469,-9.79688 C15.6563,-8.78125 14.0625,-8.14063 12.5,-7.8125 C13.625,-9.0625 14.2969,-10.7344 14.2969,-12.5469 C14.2969,-16.5 11.0938,-19.7031 7.15625,-19.7031 C3.20313,-19.7031 0,-16.5 0,-12.5469 C0,-9.54688 1.875,-6.95313 4.51563,-5.90625 C6.04688,-5.1875 7.95313,-4.73438 10,-4.73438 C12.8438,-4.73438 15.9531,-5.5625 18.6719,-7.5625 C19.9375,-8.48438 21.125,-9.6875 22.2031,-10.9375 L10.8125,24.6875 L13.4531,25.5469 L27.5313,-18.5469 C27.7656,-19.2813 27.4688,-19.9688 26.7344,-20.2656"/>
<path class="Rest" transform="matrix(2.12598,0,0,2.12598,3782.6,1384.21)" d="M26.7344,-20.2656 C25.9844,-20.5469 25.3125,-20.2031 24.9844,-19.5938 C24.6563,-18.9844 21.4688,-13.0625 17.0469,-9.79688 C15.6563,-8.78125 14.0625,-8.14063 12.5,-7.8125 C13.625,-9.0625 14.2969,-10.7344 14.2969,-12.5469 C14.2969,-16.5 11.0938,-19.7031 7.15625,-19.7031 C3.20313,-19.7031 0,-16.5 0,-12.5469 C0,-9.54688 1.875,-6.95313 4.51563,-5.90625 C6.04688,-5.1875 7.95313,-4.73438 10,-4.73438 C12.8438,-4.73438 15.9531,-5.5625 18.6719,-7.5625 C19.9375,-8.48438 21.125,-9.6875 22.2031,-10.9375 L10.8125,24.6875 L13.4531,25.5469 L27.5313,-18.5469 C27.7656,-19.2813 27.4688,-19.9688 26.7344,-20.2656"/>
<path class="Rest" transform="matrix(2.12598,0,0,2.12598,910.761,2167.35)" d="M26.7344,-20.2656 C25.9844,-20.5469 25.3125,-20.2031 24.9844,-19.5938 C24.6563,-18.9844 21.4688,-13.0625 17.0469,-9.79688 C15.6563,-8.78125 14.0625,-8.14063 12.5,-7.8125 C13.625,-9.0625 14.2969,-10.7344 14.2969,-12.5469 C14.2969,-16.5 11.0938,-19.7031 7.15625,-19.7031 C3.20313,-19.7031 0,-16.5 0,-12.5469 C0,-9.54688 1.875,-6.95313 4.51563,-5.90625 C6.04688,-5.1875 7.95313,-4.73438 10,-4.73438 C12.8438,-4.73438 15.9531,-5.5625 18.6719,-7.5625 C19.9375,-8.48438 21.125,-9.6875 22.2031,-10.9375 L10.8125,24.6875 L13.4531,25.5469 L27.5313,-18.5469 C27.7656,-19.2813 27.4688,-19.9688 26.7344,-20.2656"/>
<path class="Rest" transform="matrix(2.12598,0,0,2.12598,1164.13,2167.35)" d="M23.2031,16.9063 L23,16.5938 C22.9063,16.5 22.7031,16.2969 22.4063,15.9063 L10.9063,1.70313 C10.5938,1.40625 10.7031,0.59375 10.9063,0.203125 L21.0938,-15.2031 C21.2031,-15.4063 21.2969,-15.7031 21.2969,-15.9063 L21.2969,-16.7969 C21.2969,-17.0938 21.2031,-17.4063 21,-17.5938 L4.79688,-39.5 C4.79688,-39.5 4,-40.7031 3,-39.7969 C2,-39 2.79688,-37.7031 2.79688,-37.7031 L10.4063,-27.2969 C10.7969,-26.7031 10.7969,-25.5 10.4063,-24.9063 L0.296875,-9.5 C0.203125,-9.29688 0.09375,-8.90625 0.09375,-8.70313 L0.09375,-7.79688 C0.09375,-7.5 0.203125,-7.20313 0.40625,-7 L11.5938,6.90625 C11.2031,6.79688 10.2969,6.59375 9.09375,6.59375 C7.40625,6.59375 5.20313,7 3.40625,8.59375 C1.20313,10.5938 0,13.4063 0,15.9063 C0,17.2969 0.296875,18.7031 1.09375,19.7969 C3.20313,23 10.7031,32.5 10.7031,32.5 C10.7031,32.5 11.5938,33.6094 12.5,32.9063 C13.4063,32.2031 13.2031,31.2969 12.9063,30.7969 C12.5938,30.2969 9.40625,24.5 9.40625,24.5 C9.40625,24.5 8.70313,23.0938 8.70313,21.2969 C8.70313,20 9.09375,18.4063 10.4063,17.0938 C11.5938,15.9063 13,15.5 14.2969,15.5 C15.5938,15.5 16.7031,15.9063 17.5,16.4063 L21.4063,18.9063 C21.4063,18.9063 22.5938,19.5 23.2031,18.5938 C23.7031,17.7969 23.5,17.4063 23.2031,16.9063"/>
<path class="Rest" transform="matrix(2.12598,0,0,2.12598,1569.53,2167.35)" d="M26.7344,-20.2656 C25.9844,-20.5469 25.3125,-20.2031 24.9844,-19.5938 C24.6563,-18.9844 21.4688,-13.0625 17.0469,-9.79688 C15.6563,-8.78125 14.0625,-8.14063 12.5,-7.8125 C13.625,-9.0625 14.2969,-10.7344 14.2969,-12.5469 C14.2969,-16.5 11.0938,-19.7031 7.15625,-19.7031 C3.20313,-19.7031 0,-16.5 0,-12.5469 C0,-9.54688 1.875,-6.95313 4.51563,-5.90625 C6.04688,-5.1875 7.95313,-4.73438 10,-4.73438 C12.8438,-4.73438 15.9531,-5.5625 18.6719,-7.5625 C19.9375,-8.48438 21.125,-9.6875 22.2031,-10.9375 L10.8125,24.6875 L13.4531,25.5469 L27.5313,-18.5469 C27.7656,-19.2813 27.4688,-19.9688 26.7344,-20.2656"/>
<path class="Rest" transform="matrix(2.12598,0,0,2.12598,3073.22,2167.35)" d="M26.7344,-20.2656 C25.9844,-20.5469 25.3125,-20.2031 24.9844,-19.5938 C24.6563,-18.9844 21.4688,-13.0625 17.0469,-9.79688 C15.6563,-8.78125 14.0625,-8.14063 12.5,-7.8125 C13.625,-9.0625 14.2969,-10.7344 14.2969,-12.5469 C14.2969,-16.5 11.0938,-19.7031 7.15625,-19.7031 C3.20313,-19.7031 0,-16.5 0,-12.5469 C0,-9.54688 1.875,-6.95313 4.51563,-5.90625 C6.04688,-5.1875 7.95313,-4.73438 10,-4.73438 C12.8438,-4.73438 15.9531,-5.5625 18.6719,-7.5625 C19.9375,-8.48438 21.125,-9.6875 22.2031,-10.9375 L10.8125,24.6875 L13.4531,25.5469 L27.5313,-18.5469 C27.7656,-19.2813 27.4688,-19.9688 26.7344,-20.2656"/>
<path class="Rest" transform="matrix(2.12598,0,0,2.12598,3283.17,2167.35)" d="M23.2031,16.9063 L23,16.5938 C22.9063,16.5 22.7031,16.2969 22.4063,15.9063 L10.9063,1.70313 C10.5938,1.40625 10.7031,0.59375 10.9063,0.203125 L21.0938,-15.2031 C21.2031,-15.4063 21.2969,-15.7031 21.2969,-15.9063 L21.2969,-16.7969 C21.2969,-17.0938 21.2031,-17.4063 21,-17.5938 L4.79688,-39.5 C4.79688,-39.5 4,-40.7031 3,-39.7969 C2,-39 2.79688,-37.7031 2.79688,-37.7031 L10.4063,-27.2969 C10.7969,-26.7031 10.7969,-25.5 10.4063,-24.9063 L0.296875,-9.5 C0.203125,-9.29688 0.09375,-8.90625 0.09375,-8.70313 L0.09375,-7.79688 C0.09375,-7.5 0.203125,-7.20313 0.40625,-7 L11.5938,6.90625 C11.2031,6.79688 10.2969,6.59375 9.09375,6.59375 C7.40625,6.59375 5.20313,7 3.40625,8.59375 C1.20313,10.5938 0,13.4063 0,15.9063 C0,17.2969 0.296875,18.7031 1.09375,19.7969 C3.20313,23 10.7031,32.5 10.7031,32.5 C10.7031,32.5 11.5938,33.6094 12.5,32.9063 C13.4063,32.2031 13.2031,31.2969 12.9063,30.7969 C12.5938,30.2969 9.40625,24.5 9.40625,24.5 C9.40625,24.5 8.70313,23.0938 8.70313,21.2969 C8.70313,20 9.09375,18.4063 10.4063,17.0938 C11.5938,15.9063 13,15.5 14.2969,15.5 C15.5938,15.5 16.7031,15.9063 17.5,16.4063 L21.4063,18.9063 C21.4063,18.9063 22.5938,19.5 23.2031,18.5938 C23.7031,17.7969 23.5,17.4063 23.2031,16.9063"/>
<path class="Rest" transform="matrix(2.12598,0,0,2.12598,3619.1,2167.35)" d="M0,-11.7969 L0,-1 C0,0.40625 0,0.40625 1.40625,0.40625 L31.1094,0.40625 C32.5,0.40625 32.5,0.40625 32.5,-1 L32.5,-11.7969 C32.5,-13.2031 32.5,-13.2031 31.1094,-13.2031 L1.40625,-13.2031 C0,-13.2031 0,-13.2031 0,-11.7969"/>
<path class="Beam" fill-rule="evenodd" d="M1541.27,760.485 L1757.4,746.828 L1757.4,773.456 L1541.27,787.113 L1541.27,760.485 "/>
<path class="Beam" fill-rule="evenodd" d="M1000.57,1556.92 L1236.47,1570.55 L1236.47,1597.17 L1000.57,1583.54 L1000.57,1556.92 "/>
<path class="Beam" fill-rule="evenodd" d="M1460.68,1570.23 L2156.68,1570.23 L2156.68,1596.81 L1460.68,1596.81 L1460.68,1570.23 "/>
<path class="Beam" fill-rule="evenodd" d="M2076.27,2326.78 L2335.49,2313.19 L2335.49,2339.8 L2076.27,2353.39 L2076.27,2326.78 "/>
<path class="Hook" transform="matrix(2.12598,0,0,2.12598,1330.98,840.236)" d="M2.5,0.40625 C2.5,0.203125 3.40625,-3.20313 3.5,-3.5 C3.59375,-3.90625 5.40625,-9.59375 9.09375,-15.2969 C11.7969,-19.5 21.2969,-31.7969 21,-31.7969 C21,-31.7969 28.4063,-41.2969 28.9063,-54.2031 L28.9063,-56.5 C28.9063,-62.6094 28.1094,-71.2031 24.5938,-79.9063 C24.2031,-80.9063 23.7969,-81.9063 22.7031,-81.5 C21.5938,-81.1094 21.9063,-79.9063 22.2031,-78.8125 C24,-71.7969 25,-64.6094 25,-57.4063 C25,-49 22,-44.7969 20.2031,-41.7031 C13.5938,-30.6094 5,-25.2031 0.796875,-23.7969 C0.296875,-23.5938 0,-23.2031 0,-22.7031 L0,-16.5 L0,-0.09375 C0,0.59375 0.59375,1.20313 1.29688,1.20313 C1.79688,1.20313 2.40625,0.796875 2.5,0.40625"/>
<path class="Hook" transform="matrix(2.12598,0,0,2.12598,2291.71,760.512)" d="M2.5,0.40625 C2.5,0.203125 3.40625,-3.20313 3.5,-3.5 C3.59375,-3.90625 5.40625,-9.59375 9.09375,-15.2969 C11.7969,-19.5 21.2969,-31.7969 21,-31.7969 C21,-31.7969 28.4063,-41.2969 28.9063,-54.2031 L28.9063,-56.5 C28.9063,-62.6094 28.1094,-71.2031 24.5938,-79.9063 C24.2031,-80.9063 23.7969,-81.9063 22.7031,-81.5 C21.5938,-81.1094 21.9063,-79.9063 22.2031,-78.8125 C24,-71.7969 25,-64.6094 25,-57.4063 C25,-49 22,-44.7969 20.2031,-41.7031 C13.5938,-30.6094 5,-25.2031 0.796875,-23.7969 C0.296875,-23.5938 0,-23.2031 0,-22.7031 L0,-16.5 L0,-0.09375 C0,0.59375 0.59375,1.20313 1.29688,1.20313 C1.79688,1.20313 2.40625,0.796875 2.5,0.40625"/>
<path class="Hook" transform="matrix(2.12598,0,0,2.12598,2697.37,760.512)" d="M2.5,0.40625 C2.5,0.203125 3.40625,-3.20313 3.5,-3.5 C3.59375,-3.90625 5.40625,-9.59375 9.09375,-15.2969 C11.7969,-19.5 21.2969,-31.7969 21,-31.7969 C21,-31.7969 28.4063,-41.2969 28.9063,-54.2031 L28.9063,-56.5 C28.9063,-62.6094 28.1094,-71.2031 24.5938,-79.9063 C24.2031,-80.9063 23.7969,-81.9063 22.7031,-81.5 C21.5938,-81.1094 21.9063,-79.9063 22.2031,-78.8125 C24,-71.7969 25,-64.6094 25,-57.4063 C25,-49 22,-44.7969 20.2031,-41.7031 C13.5938,-30.6094 5,-25.2031 0.796875,-23.7969 C0.296875,-23.5938 0,-23.2031 0,-22.7031 L0,-16.5 L0,-0.09375 C0,0.59375 0.59375,1.20313 1.29688,1.20313 C1.79688,1.20313 2.40625,0.796875 2.5,0.40625"/>
<path class="Hook" transform="matrix(2.12598,0,0,2.12598,3103.03,813.661)" d="M2.5,0.40625 C2.5,0.203125 3.40625,-3.20313 3.5,-3.5 C3.59375,-3.90625 5.40625,-9.59375 9.09375,-15.2969 C11.7969,-19.5 21.2969,-31.7969 21,-31.7969 C21,-31.7969 28.4063,-41.2969 28.9063,-54.2031 L28.9063,-56.5 C28.9063,-62.6094 28.1094,-71.2031 24.5938,-79.9063 C24.2031,-80.9063 23.7969,-81.9063 22.7031,-81.5 C21.5938,-81.1094 21.9063,-79.9063 22.2031,-78.8125 C24,-71.7969 25,-64.6094 25,-57.4063 C25,-49 22,-44.7969 20.2031,-41.7031 C13.5938,-30.6094 5,-25.2031 0.796875,-23.7969 C0.296875,-23.5938 0,-23.2031 0,-22.7031 L0,-16.5 L0,-0.09375 C0,0.59375 0.59375,1.20313 1.29688,1.20313 C1.79688,1.20313 2.40625,0.796875 2.5,0.40625"/>
<path class="Hook" transform="matrix(2.12598,0,0,2.12598,3513.03,813.661)" d="M2.5,0.40625 C2.5,0.203125 3.40625,-3.20313 3.5,-3.5 C3.59375,-3.90625 5.40625,-9.59375 9.09375,-15.2969 C11.7969,-19.5 21.2969,-31.7969 21,-31.7969 C21,-31.7969 28.4063,-41.2969 28.9063,-54.2031 L28.9063,-56.5 C28.9063,-62.6094 28.1094,-71.2031 24.5938,-79.9063 C24.2031,-80.9063 23.7969,-81.9063 22.7031,-81.5 C21.5938,-81.1094 21.9063,-79.9063 22.2031,-78.8125 C24,-71.7969 25,-64.6094 25,-57.4063 C25,-49 22,-44.7969 20.2031,-41.7031 C13.5938,-30.6094 5,-25.2031 0.796875,-23.7969 C0.296875,-23.5938 0,-23.2031 0,-22.7031 L0,-16.5 L0,-0.09375 C0,0.59375 0.59375,1.20313 1.29688,1.20313 C1.79688,1.20313 2.40625,0.796875 2.5,0.40625"/>
<path class="Hook" transform="matrix(2.12598,0,0,2.12598,3923.04,787.086)" d="M2.5,0.40625 C2.5,0.203125 3.40625,-3.20313 3.5,-3.5 C3.59375,-3.90625 5.40625,-9.59375 9.09375,-15.2969 C11.7969,-19.5 21.2969,-31.7969 21,-31.7969 C21,-31.7969 28.4063,-41.2969 28.9063,-54.2031 L28.9063,-56.5 C28.9063,-62.6094 28.1094,-71.2031 24.5938,-79.9063 C24.2031,-80.9063 23.7969,-81.9063 22.7031,-81.5 C21.5938,-81.1094 21.9063,-79.9063 22.2031,-78.8125 C24,-71.7969 25,-64.6094 25,-57.4063 C25,-49 22,-44.7969 20.2031,-41.7031 C13.5938,-30.6094 5,-25.2031 0.796875,-23.7969 C0.296875,-23.5938 0,-23.2031 0,-22.7031 L0,-16.5 L0,-0.09375 C0,0.59375 0.59375,1.20313 1.29688,1.20313 C1.79688,1.20313 2.40625,0.796875 2.5,0.40625"/>
<path class="Hook" transform="matrix(2.12598,0,0,2.12598,770.513,1623.38)" d="M2.5,0.40625 C2.5,0.203125 3.40625,-3.20313 3.5,-3.5 C3.59375,-3.90625 5.40625,-9.59375 9.09375,-15.2969 C11.7969,-19.5 21.2969,-31.7969 21,-31.7969 C21,-31.7969 28.4063,-41.2969 28.9063,-54.2031 L28.9063,-56.5 C28.9063,-62.6094 28.1094,-71.2031 24.5938,-79.9063 C24.2031,-80.9063 23.7969,-81.9063 22.7031,-81.5 C21.5938,-81.1094 21.9063,-79.9063 22.2031,-78.8125 C24,-71.7969 25,-64.6094 25,-57.4063 C25,-49 22,-44.7969 20.2031,-41.7031 C13.5938,-30.6094 5,-25.2031 0.796875,-23.7969 C0.296875,-23.5938 0,-23.2031 0,-22.7031 L0,-16.5 L0,-0.09375 C0,0.59375 0.59375,1.20313 1.29688,1.20313 C1.79688,1.20313 2.40625,0.796875 2.5,0.40625"/>
<path class="Hook" transform="matrix(2.12598,0,0,2.12598,2603.26,1543.66)" d="M2.5,0.40625 C2.5,0.203125 3.40625,-3.20313 3.5,-3.5 C3.59375,-3.90625 5.40625,-9.59375 9.09375,-15.2969 C11.7969,-19.5 21.2969,-31.7969 21,-31.7969 C21,-31.7969 28.4063,-41.2969 28.9063,-54.2031 L28.9063,-56.5 C28.9063,-62.6094 28.1094,-71.2031 24.5938,-79.9063 C24.2031,-80.9063 23.7969,-81.9063 22.7031,-81.5 C21.5938,-81.1094 21.9063,-79.9063 22.2031,-78.8125 C24,-71.7969 25,-64.6094 25,-57.4063 C25,-49 22,-44.7969 20.2031,-41.7031 C13.5938,-30.6094 5,-25.2031 0.796875,-23.7969 C0.296875,-23.5938 0,-23.2031 0,-22.7031 L0,-16.5 L0,-0.09375 C0,0.59375 0.59375,1.20313 1.29688,1.20313 C1.79688,1.20313 2.40625,0.796875 2.5,0.40625"/>
<path class="Hook" transform="matrix(2.12598,0,0,2.12598,2949.26,1543.66)" d="M2.5,0.40625 C2.5,0.203125 3.40625,-3.20313 3.5,-3.5 C3.59375,-3.90625 5.40625,-9.59375 9.09375,-15.2969 C11.7969,-19.5 21.2969,-31.7969 21,-31.7969 C21,-31.7969 28.4063,-41.2969 28.9063,-54.2031 L28.9063,-56.5 C28.9063,-62.6094 28.1094,-71.2031 24.5938,-79.9063 C24.2031,-80.9063 23.7969,-81.9063 22.7031,-81.5 C21.5938,-81.1094 21.9063,-79.9063 22.2031,-78.8125 C24,-71.7969 25,-64.6094 25,-57.4063 C25,-49 22,-44.7969 20.2031,-41.7031 C13.5938,-30.6094 5,-25.2031 0.796875,-23.7969 C0.296875,-23.5938 0,-23.2031 0,-22.7031 L0,-16.5 L0,-0.09375 C0,0.59375 0.59375,1.20313 1.29688,1.20313 C1.79688,1.20313 2.40625,0.796875 2.5,0.40625"/>
<path class="Hook" transform="matrix(2.12598,0,0,2.12598,3295.27,1596.81)" d="M2.5,0.40625 C2.5,0.203125 3.40625,-3.20313 3.5,-3.5 C3.59375,-3.90625 5.40625,-9.59375 9.09375,-15.2969 C11.7969,-19.5 21.2969,-31.7969 21,-31.7969 C21,-31.7969 28.4063,-41.2969 28.9063,-54.2031 L28.9063,-56.5 C28.9063,-62.6094 28.1094,-71.2031 24.5938,-79.9063 C24.2031,-80.9063 23.7969,-81.9063 22.7031,-81.5 C21.5938,-81.1094 21.9063,-79.9063 22.2031,-78.8125 C24,-71.7969 25,-64.6094 25,-57.4063 C25,-49 22,-44.7969 20.2031,-41.7031 C13.5938,-30.6094 5,-25.2031 0.796875,-23.7969 C0.296875,-23.5938 0,-23.2031 0,-22.7031 L0,-16.5 L0,-0.09375 C0,0.59375 0.59375,1.20313 1.29688,1.20313 C1.79688,1.20313 2.40625,0.796875 2.5,0.40625"/>
<path class="Hook" transform="matrix(2.12598,0,0,2.12598,3637.25,1596.81)" d="M2.5,0.40625 C2.5,0.203125 3.40625,-3.20313 3.5,-3.5 C3.59375,-3.90625 5.40625,-9.59375 9.09375,-15.2969 C11.7969,-19.5 21.2969,-31.7969 21,-31.7969 C21,-31.7969 28.4063,-41.2969 28.9063,-54.2031 L28.9063,-56.5 C28.9063,-62.6094 28.1094,-71.2031 24.5938,-79.9063 C24.2031,-80.9063 23.7969,-81.9063 22.7031,-81.5 C21.5938,-81.1094 21.9063,-79.9063 22.2031,-78.8125 C24,-71.7969 25,-64.6094 25,-57.4063 C25,-49 22,-44.7969 20.2031,-41.7031 C13.5938,-30.6094 5,-25.2031 0.796875,-23.7969 C0.296875,-23.5938 0,-23.2031 0,-22.7031 L0,-16.5 L0,-0.09375 C0,0.59375 0.59375,1.20313 1.29688,1.20313 C1.79688,1.20313 2.40625,0.796875 2.5,0.40625"/>
<path class="Hook" transform="matrix(2.12598,0,0,2.12598,3979.24,1570.23)" d="M2.5,0.40625 C2.5,0.203125 3.40625,-3.20313 3.5,-3.5 C3.59375,-3.90625 5.40625,-9.59375 9.09375,-15.2969 C11.7969,-19.5 21.2969,-31.7969 21,-31.7969 C21,-31.7969 28.4063,-41.2969 28.9063,-54.2031 L28.9063,-56.5 C28.9063,-62.6094 28.1094,-71.2031 24.5938,-79.9063 C24.2031,-80.9063 23.7969,-81.9063 22.7031,-81.5 C21.5938,-81.1094 21.9063,-79.9063 22.2031,-78.8125 C24,-71.7969 25,-64.6094 25,-57.4063 C25,-49 22,-44.7969 20.2031,-41.7031 C13.5938,-30.6094 5,-25.2031 0.796875,-23.7969 C0.296875,-23.5938 0,-23.2031 0,-22.7031 L0,-16.5 L0,-0.09375 C0,0.59375 0.59375,1.20313 1.29688,1.20313 C1.79688,1.20313 2.40625,0.796875 2.5,0.40625"/>
<path class="Hook" transform="matrix(2.12598,0,0,2.12598,657.389,2353.37)" d="M2.5,0.40625 C2.5,0.203125 3.40625,-3.20313 3.5,-3.5 C3.59375,-3.90625 5.40625,-9.59375 9.09375,-15.2969 C11.7969,-19.5 21.2969,-31.7969 21,-31.7969 C21,-31.7969 28.4063,-41.2969 28.9063,-54.2031 L28.9063,-56.5 C28.9063,-62.6094 28.1094,-71.2031 24.5938,-79.9063 C24.2031,-80.9063 23.7969,-81.9063 22.7031,-81.5 C21.5938,-81.1094 21.9063,-79.9063 22.2031,-78.8125 C24,-71.7969 25,-64.6094 25,-57.4063 C25,-49 22,-44.7969 20.2031,-41.7031 C13.5938,-30.6094 5,-25.2031 0.796875,-23.7969 C0.296875,-23.5938 0,-23.2031 0,-22.7031 L0,-16.5 L0,-0.09375 C0,0.59375 0.59375,1.20313 1.29688,1.20313 C1.79688,1.20313 2.40625,0.796875 2.5,0.40625"/>
<path class="Hook" transform="matrix(2.12598,0,0,2.12598,1822.9,2406.52)" d="M2.5,0.40625 C2.5,0.203125 3.40625,-3.20313 3.5,-3.5 C3.59375,-3.90625 5.40625,-9.59375 9.09375,-15.2969 C11.7969,-19.5 21.2969,-31.7969 21,-31.7969 C21,-31.7969 28.4063,-41.2969 28.9063,-54.2031 L28.9063,-56.5 C28.9063,-62.6094 28.1094,-71.2031 24.5938,-79.9063 C24.2031,-80.9063 23.7969,-81.9063 22.7031,-81.5 C21.5938,-81.1094 21.9063,-79.9063 22.2031,-78.8125 C24,-71.7969 25,-64.6094 25,-57.4063 C25,-49 22,-44.7969 20.2031,-41.7031 C13.5938,-30.6094 5,-25.2031 0.796875,-23.7969 C0.296875,-23.5938 0,-23.2031 0,-22.7031 L0,-16.5 L0,-0.09375 C0,0.59375 0.59375,1.20313 1.29688,1.20313 C1.79688,1.20313 2.40625,0.796875 2.5,0.40625"/>
<path class="Hook" transform="matrix(2.12598,0,0,2.12598,2863.27,2353.37)" d="M2.5,0.40625 C2.5,0.203125 3.40625,-3.20313 3.5,-3.5 C3.59375,-3.90625 5.40625,-9.59375 9.09375,-15.2969 C11.7969,-19.5 21.2969,-31.7969 21,-31.7969 C21,-31.7969 28.4063,-41.2969 28.9063,-54.2031 L28.9063,-56.5 C28.9063,-62.6094 28.1094,-71.2031 24.5938,-79.9063 C24.2031,-80.9063 23.7969,-81.9063 22.7031,-81.5 C21.5938,-81.1094 21.9063,-79.9063 22.2031,-78.8125 C24,-71.7969 25,-64.6094 25,-57.4063 C25,-49 22,-44.7969 20.2031,-41.7031 C13.5938,-30.6094 5,-25.2031 0.796875,-23.7969 C0.296875,-23.5938 0,-23.2031 0,-22.7031 L0,-16.5 L0,-0.09375 C0,0.59375 0.59375,1.20313 1.29688,1.20313 C1.79688,1.20313 2.40625,0.796875 2.5,0.40625"/>
<path class="Tempo" d="M513.437,265.043 L506.405,265.043 L506.405,361.011 C503.999,359.574 501.046,358.652 497.671,358.308 C496.734,358.199 495.78,358.168 494.812,358.168 C488.999,358.168 482.749,359.824 476.905,362.996 C470.093,366.668 464.655,371.918 461.593,377.777 C458.53,383.652 458.202,389.433 460.702,394.074 C463.655,399.558 470.077,402.386 477.655,402.386 C483.296,402.386 489.577,400.824 495.577,397.589 C506.562,391.668 513.405,381.871 513.437,373.339 L513.437,265.043 "/>
<path class="Tempo" d="M560.921,376.683 L625.437,376.683 L625.437,361.964 L560.921,361.964 L560.921,376.683 M560.921,350.324 L625.437,350.324 L625.437,335.605 L560.921,335.605 L560.921,350.324 M716.171,297.839 L711.702,297.839 C703.64,303.855 694.546,306.418 679.312,306.668 L679.312,313.839 L684.687,313.839 C696.077,313.839 696.202,314.089 696.077,324.589 L696.077,370.027 C696.077,377.964 696.077,378.355 695.187,379.636 C694.03,381.043 691.468,381.558 684.562,381.558 L680.468,381.558 L680.468,388.464 L731.53,388.464 L731.53,381.558 L727.437,381.558 C720.655,381.558 718.218,381.043 717.077,379.636 C716.171,378.355 716.171,377.839 716.171,370.027 L716.171,297.839 M803.218,354.418 L801.812,360.808 C800.655,365.933 799.89,367.605 798.859,368.246 C797.577,369.136 797.327,369.136 789.265,369.261 L764.562,369.261 C769.03,365.418 772.359,362.996 777.359,359.668 C795.405,348.011 799.124,345.199 802.827,340.464 C807.187,334.699 809.749,327.918 809.749,321.902 C809.749,308.199 796.296,297.839 778.249,297.839 C760.843,297.839 747.405,309.105 747.405,323.699 C747.405,332.652 752.39,338.418 760.077,338.418 C766.734,338.418 770.952,334.183 770.952,327.527 C770.952,322.027 768.53,318.824 762.64,316.011 C761.234,315.371 760.593,314.605 760.593,313.574 C760.593,309.48 767.499,305.136 773.905,305.136 C782.859,305.136 787.984,310.636 787.984,320.105 C787.984,330.73 783.89,338.293 770.312,352.746 C755.984,367.98 750.984,373.746 744.593,382.964 L744.593,388.98 C747.921,388.589 749.327,388.464 751.249,388.464 L799.374,388.464 C801.812,388.464 803.343,388.589 807.187,388.98 L810.124,354.418 L803.218,354.418 M852.359,297.839 C833.155,297.839 819.077,317.418 819.077,344.043 C819.077,370.668 833.155,390.261 852.359,390.261 C871.171,390.261 885.515,370.668 885.515,344.683 C885.515,329.589 882.062,318.449 874.499,308.98 C868.484,301.683 860.937,297.839 852.359,297.839 M852.234,304.496 C856.077,304.496 859.14,306.793 860.562,310.886 C862.218,315.121 863.249,328.558 863.249,344.433 C863.249,357.621 862.218,371.433 861.062,375.793 C859.655,380.918 856.593,383.605 852.234,383.605 C848.265,383.605 845.327,381.418 843.78,377.199 C842.124,372.98 841.093,359.402 841.093,344.043 C841.093,330.605 842.124,316.652 843.28,312.308 C844.687,307.183 847.749,304.496 852.234,304.496"/>
<path class="StaffText" d="M1367.29,336.723 C1346.43,336.723 1331.25,359.364 1331.25,390.661 C1331.25,421.348 1346,443.848 1366.11,443.848 C1386.97,443.848 1401.58,422.098 1401.58,391.098 C1401.58,375.302 1398.29,362.192 1392.03,351.911 C1386.22,342.52 1376.68,336.723 1367.29,336.723 M1366.26,343.13 C1371.17,343.13 1375.93,346.395 1379.51,352.364 C1383.54,359.364 1384.89,367.864 1384.89,388.27 C1384.89,409.286 1383.84,419.114 1380.86,425.677 C1377.43,432.973 1372.06,437.442 1366.4,437.442 C1361.34,437.442 1356.72,434.161 1353.14,428.208 C1348.97,421.208 1347.78,411.958 1347.78,387.52 C1347.78,370.098 1348.83,361.458 1351.81,354.895 C1355.23,347.442 1360.59,343.13 1366.26,343.13"/>
<path class="StaffText" d="M1575.25,230.424 C1570.17,236.534 1556.47,241.143 1542.77,241.44 L1542.77,247.846 L1555.88,247.846 C1564.52,248.002 1565.41,248.893 1565.11,257.237 L1565.11,316.987 C1565.11,324.58 1565.11,324.877 1564.22,326.221 C1563.03,327.721 1560.19,328.315 1551.84,328.315 L1542.17,328.315 L1542.17,335.315 L1601.17,335.315 L1601.17,328.315 L1592.97,328.315 C1584.63,328.315 1581.8,327.721 1580.61,326.221 C1579.56,324.877 1579.56,324.737 1579.56,316.987 L1579.56,255.455 C1579.56,247.112 1579.86,240.096 1580.61,230.424 L1575.25,230.424 M1685.36,303.127 L1678.8,303.127 L1677.31,310.737 C1675.38,320.409 1674.19,321.315 1664.94,321.315 L1631.56,321.315 C1641.84,310.58 1645.28,307.455 1654.81,300.002 C1668.38,289.565 1674.19,284.362 1677.61,279.893 C1682.38,273.33 1684.77,266.768 1684.77,259.471 C1684.77,242.487 1670.75,230.424 1651.24,230.424 C1632.31,230.424 1617.86,242.487 1617.86,258.424 C1617.86,267.815 1622.63,274.221 1629.63,274.221 C1635.14,274.221 1638.86,270.502 1638.86,265.127 C1638.86,261.409 1636.78,257.987 1633.66,256.643 C1628.14,254.409 1627.84,254.112 1627.84,252.174 C1627.84,249.94 1629.33,246.502 1631.42,243.971 C1635.14,239.362 1641.25,236.83 1648.25,236.83 C1660.63,236.83 1667.92,244.424 1667.92,256.94 C1667.92,267.971 1662.7,277.955 1650.34,291.065 C1639.31,302.69 1632.45,309.987 1629.92,312.815 C1624.56,319.08 1621.88,322.502 1615.33,331.143 L1615.33,335.315 L1682.53,335.315 L1685.36,303.127 "/>
<path class="StaffText" d="M1821.8,196.828 L1815.24,196.828 L1813.75,204.437 C1811.82,214.109 1810.63,215.016 1801.38,215.016 L1768,215.016 C1778.29,204.281 1781.72,201.156 1791.25,193.703 C1804.82,183.266 1810.63,178.062 1814.05,173.594 C1818.82,167.031 1821.21,160.469 1821.21,153.172 C1821.21,136.187 1807.19,124.125 1787.68,124.125 C1768.75,124.125 1754.3,136.187 1754.3,152.125 C1754.3,161.516 1759.07,167.922 1766.07,167.922 C1771.58,167.922 1775.3,164.203 1775.3,158.828 C1775.3,155.109 1773.22,151.687 1770.1,150.344 C1764.58,148.109 1764.29,147.812 1764.29,145.875 C1764.29,143.641 1765.77,140.203 1767.86,137.672 C1771.58,133.062 1777.69,130.531 1784.69,130.531 C1797.07,130.531 1804.36,138.125 1804.36,150.641 C1804.36,161.672 1799.15,171.656 1786.79,184.766 C1775.75,196.391 1768.9,203.687 1766.36,206.516 C1761,212.781 1758.32,216.203 1751.77,224.844 L1751.77,229.016 L1818.97,229.016 L1821.8,196.828 "/>
<path class="StaffText" d="M2328.03,70.9754 C2307.17,70.9754 2291.98,93.616 2291.98,124.913 C2291.98,155.6 2306.73,178.1 2326.84,178.1 C2347.7,178.1 2362.31,156.35 2362.31,125.35 C2362.31,109.553 2359.03,96.4441 2352.76,86.1629 C2346.95,76.7722 2337.42,70.9754 2328.03,70.9754 M2326.99,77.3816 C2331.9,77.3816 2336.67,80.6472 2340.24,86.616 C2344.28,93.616 2345.62,102.116 2345.62,122.522 C2345.62,143.538 2344.57,153.366 2341.59,159.928 C2338.17,167.225 2332.79,171.694 2327.14,171.694 C2322.07,171.694 2317.45,168.413 2313.87,162.46 C2309.7,155.46 2308.51,146.21 2308.51,121.772 C2308.51,104.35 2309.56,95.7097 2312.54,89.1472 C2315.96,81.6941 2321.32,77.3816 2326.99,77.3816"/>
<path class="StaffText" d="M2733.68,70.9754 C2712.82,70.9754 2697.64,93.616 2697.64,124.913 C2697.64,155.6 2712.39,178.1 2732.5,178.1 C2753.36,178.1 2767.97,156.35 2767.97,125.35 C2767.97,109.553 2764.68,96.4441 2758.42,86.1629 C2752.61,76.7722 2743.07,70.9754 2733.68,70.9754 M2732.65,77.3816 C2737.56,77.3816 2742.32,80.6472 2745.9,86.616 C2749.93,93.616 2751.28,102.116 2751.28,122.522 C2751.28,143.538 2750.23,153.366 2747.25,159.928 C2743.82,167.225 2738.45,171.694 2732.79,171.694 C2727.73,171.694 2723.11,168.413 2719.53,162.46 C2715.36,155.46 2714.17,146.21 2714.17,121.772 C2714.17,104.35 2715.22,95.7097 2718.2,89.1472 C2721.62,81.6941 2726.98,77.3816 2732.65,77.3816"/>
<path class="StaffText" d="M3137.01,230.424 C3131.94,236.534 3118.23,241.143 3104.53,241.44 L3104.53,247.846 L3117.64,247.846 C3126.28,248.002 3127.17,248.893 3126.87,257.237 L3126.87,316.987 C3126.87,324.58 3126.87,324.877 3125.98,326.221 C3124.8,327.721 3121.95,328.315 3113.61,328.315 L3103.94,328.315 L3103.94,335.315 L3162.94,335.315 L3162.94,328.315 L3154.73,328.315 C3146.39,328.315 3143.56,327.721 3142.37,326.221 C3141.33,324.877 3141.33,324.737 3141.33,316.987 L3141.33,255.455 C3141.33,247.112 3141.62,240.096 3142.37,230.424 L3137.01,230.424 M3247.12,303.127 L3240.56,303.127 L3239.08,310.737 C3237.14,320.409 3235.95,321.315 3226.7,321.315 L3193.33,321.315 C3203.61,310.58 3207.05,307.455 3216.58,300.002 C3230.14,289.565 3235.95,284.362 3239.37,279.893 C3244.14,273.33 3246.53,266.768 3246.53,259.471 C3246.53,242.487 3232.51,230.424 3213,230.424 C3194.08,230.424 3179.62,242.487 3179.62,258.424 C3179.62,267.815 3184.39,274.221 3191.39,274.221 C3196.9,274.221 3200.62,270.502 3200.62,265.127 C3200.62,261.409 3198.55,257.987 3195.42,256.643 C3189.9,254.409 3189.61,254.112 3189.61,252.174 C3189.61,249.94 3191.09,246.502 3193.19,243.971 C3196.9,239.362 3203.01,236.83 3210.01,236.83 C3222.39,236.83 3229.69,244.424 3229.69,256.94 C3229.69,267.971 3224.47,277.955 3212.11,291.065 C3201.08,302.69 3194.22,309.987 3191.69,312.815 C3186.33,319.08 3183.64,322.502 3177.09,331.143 L3177.09,335.315 L3244.3,335.315 L3247.12,303.127 "/>
<path class="StaffText" d="M3547.02,230.424 C3541.94,236.534 3528.24,241.143 3514.53,241.44 L3514.53,247.846 L3527.64,247.846 C3536.28,248.002 3537.17,248.893 3536.88,257.237 L3536.88,316.987 C3536.88,324.58 3536.88,324.877 3535.99,326.221 C3534.8,327.721 3531.96,328.315 3523.61,328.315 L3513.94,328.315 L3513.94,335.315 L3572.94,335.315 L3572.94,328.315 L3564.74,328.315 C3556.39,328.315 3553.56,327.721 3552.38,326.221 C3551.33,324.877 3551.33,324.737 3551.33,316.987 L3551.33,255.455 C3551.33,247.112 3551.63,240.096 3552.38,230.424 L3547.02,230.424 M3657.13,303.127 L3650.56,303.127 L3649.08,310.737 C3647.14,320.409 3645.96,321.315 3636.71,321.315 L3603.33,321.315 C3613.61,310.58 3617.05,307.455 3626.58,300.002 C3640.14,289.565 3645.96,284.362 3649.38,279.893 C3654.14,273.33 3656.53,266.768 3656.53,259.471 C3656.53,242.487 3642.52,230.424 3623,230.424 C3604.08,230.424 3589.63,242.487 3589.63,258.424 C3589.63,267.815 3594.39,274.221 3601.39,274.221 C3606.91,274.221 3610.63,270.502 3610.63,265.127 C3610.63,261.409 3608.55,257.987 3605.42,256.643 C3599.91,254.409 3599.61,254.112 3599.61,252.174 C3599.61,249.94 3601.1,246.502 3603.19,243.971 C3606.91,239.362 3613.02,236.83 3620.02,236.83 C3632.39,236.83 3639.69,244.424 3639.69,256.94 C3639.69,267.971 3634.47,277.955 3622.11,291.065 C3611.08,302.69 3604.22,309.987 3601.69,312.815 C3596.33,319.08 3593.64,322.502 3587.1,331.143 L3587.1,335.315 L3654.3,335.315 L3657.13,303.127 "/>
<path class="StaffText" d="M3993.29,196.828 L3986.72,196.828 L3985.24,204.437 C3983.3,214.109 3982.12,215.016 3972.87,215.016 L3939.49,215.016 C3949.77,204.281 3953.21,201.156 3962.74,193.703 C3976.3,183.266 3982.12,178.062 3985.54,173.594 C3990.3,167.031 3992.69,160.469 3992.69,153.172 C3992.69,136.187 3978.68,124.125 3959.16,124.125 C3940.24,124.125 3925.79,136.187 3925.79,152.125 C3925.79,161.516 3930.55,167.922 3937.55,167.922 C3943.07,167.922 3946.79,164.203 3946.79,158.828 C3946.79,155.109 3944.71,151.687 3941.58,150.344 C3936.07,148.109 3935.77,147.812 3935.77,145.875 C3935.77,143.641 3937.26,140.203 3939.35,137.672 C3943.07,133.062 3949.18,130.531 3956.18,130.531 C3968.55,130.531 3975.85,138.125 3975.85,150.641 C3975.85,161.672 3970.63,171.656 3958.27,184.766 C3947.24,196.391 3940.38,203.687 3937.85,206.516 C3932.49,212.781 3929.8,216.203 3923.26,224.844 L3923.26,229.016 L3990.46,229.016 L3993.29,196.828 "/>
<path class="StaffText" d="M806.826,1119.87 C785.966,1119.87 770.779,1142.51 770.779,1173.8 C770.779,1204.49 785.529,1226.99 805.638,1226.99 C826.498,1226.99 841.107,1205.24 841.107,1174.24 C841.107,1158.45 837.826,1145.34 831.56,1135.05 C825.748,1125.66 816.216,1119.87 806.826,1119.87 M805.795,1126.27 C810.701,1126.27 815.466,1129.54 819.045,1135.51 C823.076,1142.51 824.42,1151.01 824.42,1171.41 C824.42,1192.43 823.373,1202.26 820.388,1208.82 C816.966,1216.12 811.591,1220.59 805.935,1220.59 C800.873,1220.59 796.248,1217.3 792.67,1211.35 C788.498,1204.35 787.31,1195.1 787.31,1170.66 C787.31,1153.24 788.357,1144.6 791.341,1138.04 C794.763,1130.59 800.123,1126.27 805.795,1126.27"/>
<path class="StaffText" d="M1034.55,1013.57 C1029.47,1019.68 1015.77,1024.29 1002.07,1024.58 L1002.07,1030.99 L1015.18,1030.99 C1023.82,1031.15 1024.71,1032.04 1024.41,1040.38 L1024.41,1100.13 C1024.41,1107.72 1024.41,1108.02 1023.52,1109.37 C1022.33,1110.87 1019.49,1111.46 1011.15,1111.46 L1001.47,1111.46 L1001.47,1118.46 L1060.47,1118.46 L1060.47,1111.46 L1052.27,1111.46 C1043.93,1111.46 1041.1,1110.87 1039.91,1109.37 C1038.86,1108.02 1038.86,1107.88 1038.86,1100.13 L1038.86,1038.6 C1038.86,1030.26 1039.16,1023.24 1039.91,1013.57 L1034.55,1013.57 M1144.66,1086.27 L1138.1,1086.27 L1136.61,1093.88 C1134.68,1103.55 1133.49,1104.46 1124.24,1104.46 L1090.86,1104.46 C1101.15,1093.72 1104.58,1090.6 1114.11,1083.15 C1127.68,1072.71 1133.49,1067.51 1136.91,1063.04 C1141.68,1056.47 1144.07,1049.91 1144.07,1042.62 C1144.07,1025.63 1130.05,1013.57 1110.54,1013.57 C1091.61,1013.57 1077.16,1025.63 1077.16,1041.57 C1077.16,1050.96 1081.93,1057.37 1088.93,1057.37 C1094.44,1057.37 1098.16,1053.65 1098.16,1048.27 C1098.16,1044.55 1096.08,1041.13 1092.96,1039.79 C1087.44,1037.55 1087.15,1037.26 1087.15,1035.32 C1087.15,1033.08 1088.63,1029.65 1090.72,1027.12 C1094.44,1022.51 1100.55,1019.97 1107.55,1019.97 C1119.93,1019.97 1127.22,1027.57 1127.22,1040.08 C1127.22,1051.12 1122,1061.1 1109.65,1074.21 C1098.61,1085.83 1091.75,1093.13 1089.22,1095.96 C1083.86,1102.22 1081.18,1105.65 1074.63,1114.29 L1074.63,1118.46 L1141.83,1118.46 L1144.66,1086.27 "/>
<path class="StaffText" d="M1266.93,1119.87 C1246.07,1119.87 1230.89,1142.51 1230.89,1173.8 C1230.89,1204.49 1245.64,1226.99 1265.75,1226.99 C1286.61,1226.99 1301.22,1205.24 1301.22,1174.24 C1301.22,1158.45 1297.93,1145.34 1291.67,1135.05 C1285.86,1125.66 1276.32,1119.87 1266.93,1119.87 M1265.9,1126.27 C1270.81,1126.27 1275.57,1129.54 1279.15,1135.51 C1283.18,1142.51 1284.53,1151.01 1284.53,1171.41 C1284.53,1192.43 1283.48,1202.26 1280.5,1208.82 C1277.07,1216.12 1271.7,1220.59 1266.04,1220.59 C1260.98,1220.59 1256.36,1217.3 1252.78,1211.35 C1248.61,1204.35 1247.42,1195.1 1247.42,1170.66 C1247.42,1153.24 1248.47,1144.6 1251.45,1138.04 C1254.87,1130.59 1260.23,1126.27 1265.9,1126.27"/>
<path class="StaffText" d="M1494.66,1013.57 C1489.58,1019.68 1475.88,1024.29 1462.18,1024.58 L1462.18,1030.99 L1475.28,1030.99 C1483.93,1031.15 1484.82,1032.04 1484.52,1040.38 L1484.52,1100.13 C1484.52,1107.72 1484.52,1108.02 1483.63,1109.37 C1482.44,1110.87 1479.6,1111.46 1471.25,1111.46 L1461.58,1111.46 L1461.58,1118.46 L1520.58,1118.46 L1520.58,1111.46 L1512.38,1111.46 C1504.03,1111.46 1501.21,1110.87 1500.02,1109.37 C1498.97,1108.02 1498.97,1107.88 1498.97,1100.13 L1498.97,1038.6 C1498.97,1030.26 1499.27,1023.24 1500.02,1013.57 L1494.66,1013.57 M1604.77,1086.27 L1598.21,1086.27 L1596.72,1093.88 C1594.78,1103.55 1593.6,1104.46 1584.35,1104.46 L1550.97,1104.46 C1561.25,1093.72 1564.69,1090.6 1574.22,1083.15 C1587.78,1072.71 1593.6,1067.51 1597.02,1063.04 C1601.78,1056.47 1604.18,1049.91 1604.18,1042.62 C1604.18,1025.63 1590.16,1013.57 1570.64,1013.57 C1551.72,1013.57 1537.27,1025.63 1537.27,1041.57 C1537.27,1050.96 1542.03,1057.37 1549.03,1057.37 C1554.55,1057.37 1558.27,1053.65 1558.27,1048.27 C1558.27,1044.55 1556.19,1041.13 1553.07,1039.79 C1547.55,1037.55 1547.25,1037.26 1547.25,1035.32 C1547.25,1033.08 1548.74,1029.65 1550.83,1027.12 C1554.55,1022.51 1560.66,1019.97 1567.66,1019.97 C1580.03,1019.97 1587.33,1027.57 1587.33,1040.08 C1587.33,1051.12 1582.11,1061.1 1569.75,1074.21 C1558.72,1085.83 1551.86,1093.13 1549.33,1095.96 C1543.97,1102.22 1541.28,1105.65 1534.74,1114.29 L1534.74,1118.46 L1601.94,1118.46 L1604.77,1086.27 "/>
<path class="StaffText" d="M1727.04,1119.87 C1706.18,1119.87 1690.99,1142.51 1690.99,1173.8 C1690.99,1204.49 1705.74,1226.99 1725.85,1226.99 C1746.71,1226.99 1761.32,1205.24 1761.32,1174.24 C1761.32,1158.45 1758.04,1145.34 1751.78,1135.05 C1745.96,1125.66 1736.43,1119.87 1727.04,1119.87 M1726.01,1126.27 C1730.92,1126.27 1735.68,1129.54 1739.26,1135.51 C1743.29,1142.51 1744.64,1151.01 1744.64,1171.41 C1744.64,1192.43 1743.59,1202.26 1740.6,1208.82 C1737.18,1216.12 1731.81,1220.59 1726.15,1220.59 C1721.09,1220.59 1716.46,1217.3 1712.89,1211.35 C1708.71,1204.35 1707.53,1195.1 1707.53,1170.66 C1707.53,1153.24 1708.57,1144.6 1711.56,1138.04 C1714.98,1130.59 1720.34,1126.27 1726.01,1126.27"/>
<path class="StaffText" d="M1954.77,1013.57 C1949.69,1019.68 1935.99,1024.29 1922.28,1024.58 L1922.28,1030.99 L1935.39,1030.99 C1944.03,1031.15 1944.92,1032.04 1944.63,1040.38 L1944.63,1100.13 C1944.63,1107.72 1944.63,1108.02 1943.74,1109.37 C1942.55,1110.87 1939.71,1111.46 1931.36,1111.46 L1921.69,1111.46 L1921.69,1118.46 L1980.69,1118.46 L1980.69,1111.46 L1972.49,1111.46 C1964.14,1111.46 1961.31,1110.87 1960.13,1109.37 C1959.08,1108.02 1959.08,1107.88 1959.08,1100.13 L1959.08,1038.6 C1959.08,1030.26 1959.38,1023.24 1960.13,1013.57 L1954.77,1013.57 M2064.88,1086.27 L2058.31,1086.27 L2056.83,1093.88 C2054.89,1103.55 2053.71,1104.46 2044.46,1104.46 L2011.08,1104.46 C2021.36,1093.72 2024.8,1090.6 2034.33,1083.15 C2047.89,1072.71 2053.71,1067.51 2057.13,1063.04 C2061.89,1056.47 2064.28,1049.91 2064.28,1042.62 C2064.28,1025.63 2050.27,1013.57 2030.75,1013.57 C2011.83,1013.57 1997.38,1025.63 1997.38,1041.57 C1997.38,1050.96 2002.14,1057.37 2009.14,1057.37 C2014.66,1057.37 2018.38,1053.65 2018.38,1048.27 C2018.38,1044.55 2016.3,1041.13 2013.17,1039.79 C2007.66,1037.55 2007.36,1037.26 2007.36,1035.32 C2007.36,1033.08 2008.85,1029.65 2010.94,1027.12 C2014.66,1022.51 2020.77,1019.97 2027.77,1019.97 C2040.14,1019.97 2047.44,1027.57 2047.44,1040.08 C2047.44,1051.12 2042.22,1061.1 2029.86,1074.21 C2018.83,1085.83 2011.97,1093.13 2009.44,1095.96 C2004.08,1102.22 2001.39,1105.65 1994.85,1114.29 L1994.85,1118.46 L2062.05,1118.46 L2064.88,1086.27 "/>
<path class="StaffText" d="M2221.09,979.972 L2214.52,979.972 L2213.04,987.582 C2211.1,997.253 2209.92,998.16 2200.67,998.16 L2167.29,998.16 C2177.57,987.425 2181.01,984.3 2190.54,976.847 C2204.1,966.41 2209.92,961.207 2213.34,956.738 C2218.1,950.175 2220.49,943.613 2220.49,936.316 C2220.49,919.332 2206.48,907.269 2186.96,907.269 C2168.04,907.269 2153.59,919.332 2153.59,935.269 C2153.59,944.66 2158.35,951.066 2165.35,951.066 C2170.87,951.066 2174.59,947.347 2174.59,941.972 C2174.59,938.253 2172.51,934.832 2169.38,933.488 C2163.87,931.253 2163.57,930.957 2163.57,929.019 C2163.57,926.785 2165.06,923.347 2167.15,920.816 C2170.87,916.207 2176.98,913.675 2183.98,913.675 C2196.35,913.675 2203.65,921.269 2203.65,933.785 C2203.65,944.816 2198.43,954.8 2186.07,967.91 C2175.04,979.535 2168.18,986.832 2165.65,989.66 C2160.29,995.925 2157.6,999.347 2151.06,1007.99 L2151.06,1012.16 L2218.26,1012.16 L2221.09,979.972 "/>
<path class="StaffText" d="M2639.57,854.119 C2618.71,854.119 2603.52,876.76 2603.52,908.057 C2603.52,938.744 2618.27,961.244 2638.38,961.244 C2659.24,961.244 2673.85,939.494 2673.85,908.494 C2673.85,892.698 2670.57,879.588 2664.3,869.307 C2658.49,859.916 2648.96,854.119 2639.57,854.119 M2638.54,860.526 C2643.44,860.526 2648.21,863.791 2651.79,869.76 C2655.82,876.76 2657.16,885.26 2657.16,905.666 C2657.16,926.682 2656.12,936.51 2653.13,943.073 C2649.71,950.369 2644.33,954.838 2638.68,954.838 C2633.62,954.838 2628.99,951.557 2625.41,945.604 C2621.24,938.604 2620.05,929.354 2620.05,904.916 C2620.05,887.494 2621.1,878.854 2624.08,872.291 C2627.51,864.838 2632.87,860.526 2638.54,860.526"/>
<path class="StaffText" d="M2985.57,854.119 C2964.71,854.119 2949.53,876.76 2949.53,908.057 C2949.53,938.744 2964.28,961.244 2984.39,961.244 C3005.25,961.244 3019.85,939.494 3019.85,908.494 C3019.85,892.698 3016.57,879.588 3010.31,869.307 C3004.5,859.916 2994.96,854.119 2985.57,854.119 M2984.54,860.526 C2989.45,860.526 2994.21,863.791 2997.79,869.76 C3001.82,876.76 3003.17,885.26 3003.17,905.666 C3003.17,926.682 3002.12,936.51 2999.14,943.073 C2995.71,950.369 2990.34,954.838 2984.68,954.838 C2979.62,954.838 2975,951.557 2971.42,945.604 C2967.25,938.604 2966.06,929.354 2966.06,904.916 C2966.06,887.494 2967.1,878.854 2970.09,872.291 C2973.51,864.838 2978.87,860.526 2984.54,860.526"/>
<path class="StaffText" d="M3329.25,1013.57 C3324.17,1019.68 3310.47,1024.29 3296.77,1024.58 L3296.77,1030.99 L3309.88,1030.99 C3318.52,1031.15 3319.41,1032.04 3319.11,1040.38 L3319.11,1100.13 C3319.11,1107.72 3319.11,1108.02 3318.22,1109.37 C3317.03,1110.87 3314.19,1111.46 3305.84,1111.46 L3296.17,1111.46 L3296.17,1118.46 L3355.17,1118.46 L3355.17,1111.46 L3346.97,1111.46 C3338.63,1111.46 3335.8,1110.87 3334.61,1109.37 C3333.56,1108.02 3333.56,1107.88 3333.56,1100.13 L3333.56,1038.6 C3333.56,1030.26 3333.86,1023.24 3334.61,1013.57 L3329.25,1013.57 M3439.36,1086.27 L3432.8,1086.27 L3431.31,1093.88 C3429.38,1103.55 3428.19,1104.46 3418.94,1104.46 L3385.56,1104.46 C3395.84,1093.72 3399.28,1090.6 3408.81,1083.15 C3422.38,1072.71 3428.19,1067.51 3431.61,1063.04 C3436.38,1056.47 3438.77,1049.91 3438.77,1042.62 C3438.77,1025.63 3424.75,1013.57 3405.23,1013.57 C3386.31,1013.57 3371.86,1025.63 3371.86,1041.57 C3371.86,1050.96 3376.63,1057.37 3383.63,1057.37 C3389.14,1057.37 3392.86,1053.65 3392.86,1048.27 C3392.86,1044.55 3390.78,1041.13 3387.66,1039.79 C3382.14,1037.55 3381.84,1037.26 3381.84,1035.32 C3381.84,1033.08 3383.33,1029.65 3385.42,1027.12 C3389.14,1022.51 3395.25,1019.97 3402.25,1019.97 C3414.63,1019.97 3421.92,1027.57 3421.92,1040.08 C3421.92,1051.12 3416.7,1061.1 3404.34,1074.21 C3393.31,1085.83 3386.45,1093.13 3383.92,1095.96 C3378.56,1102.22 3375.88,1105.65 3369.33,1114.29 L3369.33,1118.46 L3436.53,1118.46 L3439.36,1086.27 "/>
<path class="StaffText" d="M3671.24,1013.57 C3666.16,1019.68 3652.45,1024.29 3638.75,1024.58 L3638.75,1030.99 L3651.86,1030.99 C3660.5,1031.15 3661.39,1032.04 3661.1,1040.38 L3661.1,1100.13 C3661.1,1107.72 3661.1,1108.02 3660.2,1109.37 C3659.02,1110.87 3656.17,1111.46 3647.83,1111.46 L3638.16,1111.46 L3638.16,1118.46 L3697.16,1118.46 L3697.16,1111.46 L3688.95,1111.46 C3680.61,1111.46 3677.78,1110.87 3676.6,1109.37 C3675.55,1108.02 3675.55,1107.88 3675.55,1100.13 L3675.55,1038.6 C3675.55,1030.26 3675.85,1023.24 3676.6,1013.57 L3671.24,1013.57 M3781.35,1086.27 L3774.78,1086.27 L3773.3,1093.88 C3771.36,1103.55 3770.17,1104.46 3760.92,1104.46 L3727.55,1104.46 C3737.83,1093.72 3741.27,1090.6 3750.8,1083.15 C3764.36,1072.71 3770.17,1067.51 3773.6,1063.04 C3778.36,1056.47 3780.75,1049.91 3780.75,1042.62 C3780.75,1025.63 3766.74,1013.57 3747.22,1013.57 C3728.3,1013.57 3713.85,1025.63 3713.85,1041.57 C3713.85,1050.96 3718.61,1057.37 3725.61,1057.37 C3731.13,1057.37 3734.85,1053.65 3734.85,1048.27 C3734.85,1044.55 3732.77,1041.13 3729.64,1039.79 C3724.13,1037.55 3723.83,1037.26 3723.83,1035.32 C3723.83,1033.08 3725.31,1029.65 3727.41,1027.12 C3731.13,1022.51 3737.24,1019.97 3744.24,1019.97 C3756.61,1019.97 3763.91,1027.57 3763.91,1040.08 C3763.91,1051.12 3758.69,1061.1 3746.33,1074.21 C3735.3,1085.83 3728.44,1093.13 3725.91,1095.96 C3720.55,1102.22 3717.86,1105.65 3711.31,1114.29 L3711.31,1118.46 L3778.52,1118.46 L3781.35,1086.27 "/>
<path class="StaffText" d="M4049.49,979.972 L4042.92,979.972 L4041.44,987.582 C4039.5,997.253 4038.31,998.16 4029.06,998.16 L3995.69,998.16 C4005.97,987.425 4009.41,984.3 4018.94,976.847 C4032.5,966.41 4038.31,961.207 4041.74,956.738 C4046.5,950.175 4048.89,943.613 4048.89,936.316 C4048.89,919.332 4034.88,907.269 4015.36,907.269 C3996.44,907.269 3981.99,919.332 3981.99,935.269 C3981.99,944.66 3986.75,951.066 3993.75,951.066 C3999.27,951.066 4002.99,947.347 4002.99,941.972 C4002.99,938.253 4000.91,934.832 3997.78,933.488 C3992.27,931.253 3991.97,930.957 3991.97,929.019 C3991.97,926.785 3993.46,923.347 3995.55,920.816 C3999.27,916.207 4005.38,913.675 4012.38,913.675 C4024.75,913.675 4032.05,921.269 4032.05,933.785 C4032.05,944.816 4026.83,954.8 4014.47,967.91 C4003.44,979.535 3996.58,986.832 3994.05,989.66 C3988.69,995.925 3986,999.347 3979.46,1007.99 L3979.46,1012.16 L4046.66,1012.16 L4049.49,979.972 "/>
<path class="StaffText" d="M1864.86,1761.79 C1844,1761.79 1828.82,1784.43 1828.82,1815.73 C1828.82,1846.42 1843.57,1868.92 1863.67,1868.92 C1884.53,1868.92 1899.14,1847.17 1899.14,1816.17 C1899.14,1800.37 1895.86,1787.26 1889.6,1776.98 C1883.78,1767.59 1874.25,1761.79 1864.86,1761.79 M1863.83,1768.2 C1868.74,1768.2 1873.5,1771.46 1877.08,1777.43 C1881.11,1784.43 1882.46,1792.93 1882.46,1813.34 C1882.46,1834.35 1881.41,1844.18 1878.42,1850.74 C1875,1858.04 1869.63,1862.51 1863.97,1862.51 C1858.91,1862.51 1854.28,1859.23 1850.71,1853.28 C1846.53,1846.28 1845.35,1837.03 1845.35,1812.59 C1845.35,1795.17 1846.39,1786.53 1849.38,1779.96 C1852.8,1772.51 1858.16,1768.2 1863.83,1768.2"/>
<path class="StaffText" d="M2115.91,1655.49 C2110.83,1661.6 2097.12,1666.21 2083.42,1666.51 L2083.42,1672.91 L2096.53,1672.91 C2105.17,1673.07 2106.06,1673.96 2105.77,1682.3 L2105.77,1742.05 C2105.77,1749.65 2105.77,1749.95 2104.87,1751.29 C2103.69,1752.79 2100.84,1753.38 2092.5,1753.38 L2082.83,1753.38 L2082.83,1760.38 L2141.83,1760.38 L2141.83,1753.38 L2133.62,1753.38 C2125.28,1753.38 2122.45,1752.79 2121.27,1751.29 C2120.22,1749.95 2120.22,1749.8 2120.22,1742.05 L2120.22,1680.52 C2120.22,1672.18 2120.52,1665.16 2121.27,1655.49 L2115.91,1655.49 M2226.02,1728.2 L2219.45,1728.2 L2217.97,1735.8 C2216.03,1745.48 2214.84,1746.38 2205.59,1746.38 L2172.22,1746.38 C2182.5,1735.65 2185.94,1732.52 2195.47,1725.07 C2209.03,1714.63 2214.84,1709.43 2218.27,1704.96 C2223.03,1698.4 2225.42,1691.84 2225.42,1684.54 C2225.42,1667.55 2211.41,1655.49 2191.89,1655.49 C2172.97,1655.49 2158.52,1667.55 2158.52,1683.49 C2158.52,1692.88 2163.28,1699.29 2170.28,1699.29 C2175.8,1699.29 2179.52,1695.57 2179.52,1690.2 C2179.52,1686.48 2177.44,1683.05 2174.31,1681.71 C2168.8,1679.48 2168.5,1679.18 2168.5,1677.24 C2168.5,1675.01 2169.98,1671.57 2172.08,1669.04 C2175.8,1664.43 2181.91,1661.9 2188.91,1661.9 C2201.28,1661.9 2208.58,1669.49 2208.58,1682.01 C2208.58,1693.04 2203.36,1703.02 2191,1716.13 C2179.97,1727.76 2173.11,1735.05 2170.58,1737.88 C2165.22,1744.15 2162.53,1747.57 2155.98,1756.21 L2155.98,1760.38 L2223.19,1760.38 L2226.02,1728.2 "/>
<path class="StaffText" d="M2405.54,1621.9 L2398.98,1621.9 L2397.5,1629.51 C2395.56,1639.18 2394.37,1640.08 2385.12,1640.08 L2351.75,1640.08 C2362.03,1629.35 2365.47,1626.22 2375,1618.77 C2388.56,1608.33 2394.37,1603.13 2397.79,1598.66 C2402.56,1592.1 2404.95,1585.54 2404.95,1578.24 C2404.95,1561.26 2390.93,1549.19 2371.42,1549.19 C2352.5,1549.19 2338.04,1561.26 2338.04,1577.19 C2338.04,1586.58 2342.81,1592.99 2349.81,1592.99 C2355.33,1592.99 2359.04,1589.27 2359.04,1583.9 C2359.04,1580.18 2356.97,1576.76 2353.84,1575.41 C2348.33,1573.18 2348.03,1572.88 2348.03,1570.94 C2348.03,1568.71 2349.51,1565.27 2351.61,1562.74 C2355.33,1558.13 2361.43,1555.6 2368.43,1555.6 C2380.81,1555.6 2388.11,1563.19 2388.11,1575.71 C2388.11,1586.74 2382.89,1596.72 2370.53,1609.83 C2359.5,1621.46 2352.64,1628.76 2350.11,1631.58 C2344.75,1637.85 2342.06,1641.27 2335.51,1649.91 L2335.51,1654.08 L2402.72,1654.08 L2405.54,1621.9 "/>
<path class="StaffText" d="M2939.16,1621.9 L2932.6,1621.9 L2931.12,1629.51 C2929.18,1639.18 2927.99,1640.08 2918.74,1640.08 L2885.37,1640.08 C2895.65,1629.35 2899.09,1626.22 2908.62,1618.77 C2922.18,1608.33 2927.99,1603.13 2931.41,1598.66 C2936.18,1592.1 2938.57,1585.54 2938.57,1578.24 C2938.57,1561.26 2924.56,1549.19 2905.04,1549.19 C2886.12,1549.19 2871.66,1561.26 2871.66,1577.19 C2871.66,1586.58 2876.43,1592.99 2883.43,1592.99 C2888.95,1592.99 2892.66,1589.27 2892.66,1583.9 C2892.66,1580.18 2890.59,1576.76 2887.46,1575.41 C2881.95,1573.18 2881.65,1572.88 2881.65,1570.94 C2881.65,1568.71 2883.13,1565.27 2885.23,1562.74 C2888.95,1558.13 2895.06,1555.6 2902.06,1555.6 C2914.43,1555.6 2921.73,1563.19 2921.73,1575.71 C2921.73,1586.74 2916.51,1596.72 2904.15,1609.83 C2893.12,1621.46 2886.26,1628.76 2883.73,1631.58 C2878.37,1637.85 2875.68,1641.27 2869.13,1649.91 L2869.13,1654.08 L2936.34,1654.08 L2939.16,1621.9 "/>
<path class="VoltaSegment" d="M473.881,1915.09 L469.788,1915.09 C462.413,1920.59 454.116,1922.93 440.194,1923.17 L440.194,1929.71 L445.1,1929.71 C455.506,1929.71 455.631,1929.95 455.506,1939.54 L455.506,1981.09 C455.506,1988.34 455.506,1988.68 454.694,1989.85 C453.647,1991.15 451.303,1991.62 444.991,1991.62 L441.241,1991.62 L441.241,1997.93 L487.928,1997.93 L487.928,1991.62 L484.178,1991.62 C477.975,1991.62 475.756,1991.15 474.71,1989.85 C473.881,1988.68 473.881,1988.21 473.881,1981.09 L473.881,1915.09 M513.897,1977.7 C507.803,1977.7 502.897,1982.6 502.897,1988.68 C502.897,1994.65 507.803,1999.68 513.772,1999.68 C519.975,1999.68 524.897,1994.78 524.897,1988.68 C524.897,1982.6 519.975,1977.7 513.897,1977.7"/>
<polyline class="VoltaSegment" fill="none" stroke="#000000" stroke-width="5.85" stroke-linecap="square" stroke-linejoin="bevel" points="407.585,1997.93 407.585,1881"/>
<polyline class="VoltaSegment" fill="none" stroke="#000000" stroke-width="5.85" stroke-linecap="square" stroke-linejoin="bevel" points="407.585,1881 2647.11,1881"/>
<polyline class="VoltaSegment" fill="none" stroke="#000000" stroke-width="5.85" stroke-linecap="square" stroke-linejoin="bevel" points="2647.11,1881 2647.11,1997.93"/>
<path class="VoltaSegment" d="M2762.94,1966.81 L2761.66,1972.67 C2760.6,1977.34 2759.9,1978.85 2758.96,1979.45 C2757.79,1980.26 2757.55,1980.26 2750.19,1980.39 L2727.6,1980.39 C2731.71,1976.87 2734.74,1974.65 2739.3,1971.6 C2755.8,1960.96 2759.19,1958.39 2762.59,1954.06 C2766.57,1948.79 2768.91,1942.59 2768.91,1937.09 C2768.91,1924.57 2756.63,1915.09 2740.13,1915.09 C2724.21,1915.09 2711.93,1925.39 2711.93,1938.73 C2711.93,1946.92 2716.49,1952.18 2723.51,1952.18 C2729.6,1952.18 2733.46,1948.32 2733.46,1942.24 C2733.46,1937.21 2731.24,1934.28 2725.85,1931.71 C2724.57,1931.12 2723.98,1930.42 2723.98,1929.48 C2723.98,1925.74 2730.3,1921.76 2736.15,1921.76 C2744.34,1921.76 2749.02,1926.79 2749.02,1935.45 C2749.02,1945.17 2745.27,1952.07 2732.87,1965.29 C2719.77,1979.21 2715.21,1984.48 2709.35,1992.9 L2709.35,1998.4 C2712.4,1998.04 2713.68,1997.93 2715.44,1997.93 L2759.43,1997.93 C2761.66,1997.93 2763.05,1998.04 2766.57,1998.4 L2769.26,1966.81 L2762.94,1966.81 M2790.55,1977.7 C2784.46,1977.7 2779.55,1982.6 2779.55,1988.68 C2779.55,1994.65 2784.46,1999.68 2790.43,1999.68 C2796.63,1999.68 2801.55,1994.78 2801.55,1988.68 C2801.55,1982.6 2796.63,1977.7 2790.55,1977.7"/>
<polyline class="VoltaSegment" fill="none" stroke="#000000" stroke-width="5.85" stroke-linecap="square" stroke-linejoin="bevel" points="2677.24,1997.93 2677.24,1881"/>
<polyline class="VoltaSegment" fill="none" stroke="#000000" stroke-width="5.85" stroke-linecap="square" stroke-linejoin="bevel" points="2677.24,1881 4085.79,1881"/>
</svg>
