<?xml version="1.0" encoding="UTF-8" standalone="no"?>
<svg width="2977.2px" height="4208.4px" viewBox="0 0 2977.2 4208.4"
 xmlns="http://www.w3.org/2000/svg" xmlns:xlink="http://www.w3.org/1999/xlink" version="1.2" baseProfile="tiny">
<title>SAX ALTO</title>
<desc>Generated by MuseScore 3.6.2</desc>
<polyline class="StaffLines" fill="none" stroke="#000000" stroke-width="2.73" stroke-linejoin="bevel" points="336.599,634.199 2763.78,634.199"/>
<polyline class="StaffLines" fill="none" stroke="#000000" stroke-width="2.73" stroke-linejoin="bevel" points="336.599,658.999 2763.78,658.999"/>
<polyline class="StaffLines" fill="none" stroke="#000000" stroke-width="2.73" stroke-linejoin="bevel" points="336.599,683.799 2763.78,683.799"/>
<polyline class="StaffLines" fill="none" stroke="#000000" stroke-width="2.73" stroke-linejoin="bevel" points="336.599,708.599 2763.78,708.599"/>
<polyline class="StaffLines" fill="none" stroke="#000000" stroke-width="2.73" stroke-linejoin="bevel" points="336.599,733.399 2763.78,733.399"/>
<path class="Text" d="M1078.96,259.286 L1091.38,259.286 C1101.29,259.286 1106.46,258.52 1110.97,256.427 C1118.66,252.692 1123.07,245.645 1123.07,236.958 C1123.07,228.598 1119.22,222.223 1111.96,218.583 C1107.66,216.395 1100.85,215.177 1093.25,215.177 L1054.75,215.177 L1054.75,220.348 L1056.74,220.348 C1063,220.458 1065.1,220.786 1065.97,221.895 C1066.63,222.88 1066.63,223.098 1066.63,228.708 L1066.63,281.067 C1066.63,286.677 1066.63,286.895 1065.97,287.895 C1065.1,288.989 1063,289.427 1056.74,289.427 L1054.75,289.427 L1054.75,294.598 L1091.72,294.598 L1091.72,289.427 L1088.86,289.427 C1082.58,289.427 1080.49,288.989 1079.61,287.895 C1078.96,286.895 1078.96,286.677 1078.96,281.067 L1078.96,259.286 M1078.96,254.114 L1078.96,225.958 C1078.96,220.895 1079.5,220.348 1085.66,220.348 L1092.71,220.348 C1104.15,220.348 1109.54,225.739 1109.54,237.395 C1109.54,248.723 1103.93,254.114 1092.27,254.114 L1078.96,254.114 M1145.38,213.52 L1125.04,214.739 L1125.04,219.473 L1130.43,219.473 C1134.49,219.583 1135.04,220.239 1135.04,224.973 L1135.04,281.067 L1135.04,286.239 C1134.93,287.895 1134.82,288.552 1134.38,289.098 C1133.61,290.083 1131.52,290.536 1126.79,290.645 L1126.02,290.645 L1126.02,294.598 L1154.5,294.598 L1154.5,290.645 L1153.74,290.645 C1146.38,290.411 1145.38,289.864 1145.38,285.911 L1145.38,281.067 L1145.38,213.52 M1207.3,259.177 C1207.3,252.255 1206.1,248.723 1202.9,246.083 C1199.27,243.114 1193.88,241.692 1186.85,241.692 C1174.41,241.692 1165.4,247.52 1165.4,255.552 C1165.4,259.614 1167.93,262.255 1171.77,262.255 C1175.29,262.255 1177.71,259.942 1177.71,256.645 C1177.71,255.223 1177.16,253.677 1176.07,252.145 C1175.4,251.364 1175.29,251.145 1175.29,250.598 C1175.29,248.395 1179.69,246.411 1184.97,246.411 C1188.49,246.411 1192.35,247.52 1194.1,249.161 C1196.19,250.927 1196.96,253.567 1196.96,258.52 L1196.96,262.802 C1185.52,264.786 1181.9,265.661 1176.5,267.755 C1166.93,271.286 1162.43,276.333 1162.43,283.38 C1162.43,291.302 1168.58,296.255 1178.38,296.255 C1185.96,296.255 1192.79,293.161 1197.52,287.552 C1199.27,293.161 1202.02,295.364 1207.19,295.364 C1212.15,295.364 1217.32,292.177 1217.32,288.989 C1217.32,288.223 1216.88,287.661 1216.21,287.661 C1215.77,287.661 1215.33,287.786 1214.57,288.114 C1213.02,288.77 1212.36,288.88 1211.49,288.88 C1208.4,288.88 1207.3,286.895 1207.3,281.286 L1207.3,259.177 M1196.96,272.598 C1196.96,279.192 1196.63,280.739 1194.77,283.598 C1192.02,287.661 1187.07,290.411 1182.22,290.411 C1177.16,290.411 1173.54,286.786 1173.54,281.833 C1173.54,277.223 1175.85,273.911 1180.68,271.614 C1184.1,270.067 1188.38,268.973 1196.96,267.536 L1196.96,272.598 M1240.74,243.333 L1221.71,244.552 L1221.71,249.286 L1225.68,249.286 C1229.85,249.395 1230.4,250.052 1230.4,254.786 L1230.4,281.067 L1230.4,283.708 L1230.4,286.239 C1230.29,287.895 1230.18,288.552 1229.74,289.098 C1228.97,290.083 1226.88,290.536 1222.15,290.645 L1221.71,290.645 L1221.71,294.598 L1249.54,294.598 L1249.54,290.645 L1249.1,290.645 C1241.72,290.411 1240.74,289.864 1240.74,285.911 L1240.74,281.067 L1240.74,269.63 C1240.74,264.239 1241.5,259.286 1242.72,256.755 C1245.04,251.802 1249.97,248.395 1254.71,248.395 C1257.57,248.395 1260.86,249.942 1262.52,252.255 C1264.18,254.661 1264.94,257.973 1264.94,263.255 L1264.94,281.067 L1264.94,286.239 C1264.83,287.895 1264.72,288.552 1264.29,289.098 C1263.5,290.083 1261.3,290.536 1256.58,290.645 L1256.15,290.645 L1256.15,294.598 L1283.97,294.598 L1283.97,290.645 L1283.54,290.645 C1276.27,290.411 1275.29,289.864 1275.29,285.911 L1275.29,281.067 L1275.29,263.802 C1275.29,255.88 1274.94,253.895 1272.97,250.161 C1270.22,244.88 1264.72,241.692 1258.11,241.692 C1250.97,241.692 1245.58,244.989 1240.74,252.255 L1240.74,243.333 M1307.29,243.333 L1307.29,221.552 L1302.77,221.552 C1301.68,235.864 1296.83,243.114 1287.93,243.786 L1287.93,248.067 L1296.94,248.067 L1296.94,276.114 C1296.94,283.817 1297.16,286.567 1298.25,289.098 C1300.02,293.723 1304.43,296.255 1310.8,296.255 C1320.71,296.255 1327.08,288.77 1327.08,277.114 C1327.08,276.442 1327.08,275.677 1326.97,274.583 L1322.35,274.583 C1322.02,284.473 1319.16,289.536 1313.77,289.536 C1311.24,289.536 1309.04,288.223 1308.27,286.348 C1307.61,284.802 1307.29,282.052 1307.29,278.098 L1307.29,248.067 L1323.46,248.067 L1323.46,243.333 L1307.29,243.333 M1373.16,222.114 C1372.61,225.302 1370.19,227.723 1367.55,227.723 C1366.02,227.723 1364.91,227.395 1361.07,225.63 C1355.02,222.88 1354.24,222.661 1351.71,222.661 C1346.21,222.661 1342.04,226.942 1340.6,233.77 L1344.46,233.77 C1345.22,230.802 1347.1,229.145 1349.63,229.145 C1351.27,229.145 1353.36,229.692 1355.35,230.692 C1361.07,233.333 1362.27,233.77 1365.13,233.77 C1371.41,233.77 1376.24,229.036 1377.02,222.114 L1373.16,222.114 M1378.44,259.177 C1378.44,252.255 1377.24,248.723 1374.04,246.083 C1370.41,243.114 1365.02,241.692 1357.99,241.692 C1345.55,241.692 1336.54,247.52 1336.54,255.552 C1336.54,259.614 1339.07,262.255 1342.91,262.255 C1346.43,262.255 1348.85,259.942 1348.85,256.645 C1348.85,255.223 1348.3,253.677 1347.21,252.145 C1346.54,251.364 1346.43,251.145 1346.43,250.598 C1346.43,248.395 1350.83,246.411 1356.11,246.411 C1359.63,246.411 1363.49,247.52 1365.24,249.161 C1367.33,250.927 1368.1,253.567 1368.1,258.52 L1368.1,262.802 C1356.66,264.786 1353.04,265.661 1347.65,267.755 C1338.07,271.286 1333.57,276.333 1333.57,283.38 C1333.57,291.302 1339.72,296.255 1349.52,296.255 C1357.1,296.255 1363.93,293.161 1368.66,287.552 C1370.41,293.161 1373.16,295.364 1378.33,295.364 C1383.29,295.364 1388.46,292.177 1388.46,288.989 C1388.46,288.223 1388.02,287.661 1387.35,287.661 C1386.91,287.661 1386.47,287.786 1385.71,288.114 C1384.16,288.77 1383.5,288.88 1382.63,288.88 C1379.54,288.88 1378.44,286.895 1378.44,281.286 L1378.44,259.177 M1368.1,272.598 C1368.1,279.192 1367.77,280.739 1365.91,283.598 C1363.16,287.661 1358.21,290.411 1353.36,290.411 C1348.3,290.411 1344.68,286.786 1344.68,281.833 C1344.68,277.223 1346.99,273.911 1351.82,271.614 C1355.24,270.067 1359.52,268.973 1368.1,267.536 L1368.1,272.598 M1417.6,241.692 C1404.07,241.692 1393.61,253.677 1393.61,269.083 C1393.61,284.145 1404.18,296.255 1417.38,296.255 C1430.58,296.255 1441.15,284.145 1441.15,268.973 C1441.15,253.895 1430.58,241.692 1417.6,241.692 M1417.6,246.411 C1425.3,246.411 1429.58,254.442 1429.58,268.973 C1429.58,283.598 1425.3,291.52 1417.38,291.52 C1409.46,291.52 1405.18,283.598 1405.18,269.083 C1405.18,254.114 1409.35,246.411 1417.6,246.411 M1517.24,295.364 L1536.38,294.598 L1536.38,289.864 L1534.4,289.864 C1528.13,289.536 1527.58,288.88 1527.58,281.833 L1527.58,213.52 L1506.02,214.739 L1506.02,219.473 L1512.5,219.473 C1516.69,219.583 1517.24,220.239 1517.24,224.973 L1517.24,249.833 C1513.18,244.223 1508.44,241.692 1502.07,241.692 C1489.63,241.692 1480.18,253.677 1480.18,269.52 C1480.18,285.145 1489.3,296.255 1502.07,296.255 C1508.99,296.255 1513.72,293.286 1517.24,286.677 L1517.24,295.364 M1504.25,247.63 C1508.77,247.63 1513.07,250.927 1515.04,255.989 C1516.47,259.286 1517.13,263.802 1517.13,269.192 C1517.13,282.052 1512.07,290.302 1504.15,290.302 C1496.35,290.302 1491.72,283.052 1491.72,270.833 C1491.72,264.239 1492.38,259.286 1493.82,255.661 C1495.68,250.708 1499.75,247.63 1504.25,247.63 M1587.85,259.177 C1587.85,252.255 1586.65,248.723 1583.44,246.083 C1579.82,243.114 1574.43,241.692 1567.4,241.692 C1554.96,241.692 1545.94,247.52 1545.94,255.552 C1545.94,259.614 1548.47,262.255 1552.32,262.255 C1555.83,262.255 1558.25,259.942 1558.25,256.645 C1558.25,255.223 1557.71,253.677 1556.61,252.145 C1555.94,251.364 1555.83,251.145 1555.83,250.598 C1555.83,248.395 1560.24,246.411 1565.52,246.411 C1569.04,246.411 1572.9,247.52 1574.65,249.161 C1576.74,250.927 1577.5,253.567 1577.5,258.52 L1577.5,262.802 C1566.07,264.786 1562.44,265.661 1557.05,267.755 C1547.47,271.286 1542.97,276.333 1542.97,283.38 C1542.97,291.302 1549.13,296.255 1558.93,296.255 C1566.5,296.255 1573.33,293.161 1578.07,287.552 C1579.82,293.161 1582.57,295.364 1587.74,295.364 C1592.69,295.364 1597.86,292.177 1597.86,288.989 C1597.86,288.223 1597.43,287.661 1596.75,287.661 C1596.32,287.661 1595.88,287.786 1595.11,288.114 C1593.57,288.77 1592.91,288.88 1592.04,288.88 C1588.94,288.88 1587.85,286.895 1587.85,281.286 L1587.85,259.177 M1577.5,272.598 C1577.5,279.192 1577.18,280.739 1575.32,283.598 C1572.57,287.661 1567.61,290.411 1562.77,290.411 C1557.71,290.411 1554.08,286.786 1554.08,281.833 C1554.08,277.223 1556.4,273.911 1561.22,271.614 C1564.65,270.067 1568.93,268.973 1577.5,267.536 L1577.5,272.598 M1701.36,214.411 L1697.19,214.411 L1692.9,221.005 C1685.74,215.395 1680.91,213.52 1672.88,213.52 C1664.18,213.52 1657.36,215.942 1650.43,221.552 C1639.55,230.364 1634.49,241.473 1634.49,256.317 C1634.49,267.536 1637.68,276.895 1644.16,284.036 C1650.99,291.739 1661.1,296.255 1671.66,296.255 C1680.91,296.255 1687.4,293.395 1694.55,286.239 L1698.61,296.145 L1703.24,296.145 L1703.24,271.942 C1703.24,266.333 1703.24,266.114 1703.9,265.114 C1704.88,263.911 1706.86,263.583 1713.13,263.583 L1714.79,263.583 L1714.79,258.411 L1679.8,258.411 L1679.8,263.583 L1681.9,263.583 C1691.13,263.583 1691.91,264.13 1691.91,270.286 C1691.91,275.02 1691.13,279.302 1689.71,281.942 C1686.96,287.333 1679.91,291.083 1672.77,291.083 C1665.61,291.083 1658.57,287.442 1654.83,281.942 C1650.77,275.786 1649,268.083 1649,256.317 C1649,231.786 1657.15,218.692 1672.43,218.692 C1684.97,218.692 1693.66,227.723 1698.18,245.317 L1702.91,245.317 L1701.36,214.411 M1737.88,213.52 L1717.54,214.739 L1717.54,219.473 L1722.93,219.473 C1726.99,219.583 1727.54,220.239 1727.54,224.973 L1727.54,281.067 L1727.54,286.239 C1727.43,287.895 1727.32,288.552 1726.88,289.098 C1726.11,290.083 1724.02,290.536 1719.29,290.645 L1718.52,290.645 L1718.52,294.598 L1747,294.598 L1747,290.645 L1746.24,290.645 C1738.88,290.411 1737.88,289.864 1737.88,285.911 L1737.88,281.067 L1737.88,213.52 M1777.8,241.692 C1764.27,241.692 1753.82,253.677 1753.82,269.083 C1753.82,284.145 1764.38,296.255 1777.58,296.255 C1790.79,296.255 1801.35,284.145 1801.35,268.973 C1801.35,253.895 1790.79,241.692 1777.8,241.692 M1777.8,246.411 C1785.5,246.411 1789.79,254.442 1789.79,268.973 C1789.79,283.598 1785.5,291.52 1777.58,291.52 C1769.66,291.52 1765.38,283.598 1765.38,269.083 C1765.38,254.114 1769.55,246.411 1777.8,246.411 M1824.86,213.52 L1805.94,214.739 L1805.94,219.473 L1809.8,219.473 C1813.97,219.583 1814.52,220.239 1814.52,224.973 L1814.52,267.755 C1814.52,283.052 1813.86,291.411 1812.55,296.145 L1816.72,296.145 L1822.11,287.552 C1826.63,293.505 1831.8,296.255 1838.61,296.255 C1852.25,296.255 1862.27,284.583 1862.27,268.645 C1862.27,252.802 1853.02,241.692 1839.83,241.692 C1833.11,241.692 1829.05,244.005 1824.86,250.27 L1824.86,213.52 M1837.85,247.302 C1846.1,247.302 1850.72,255.333 1850.72,269.739 C1850.72,283.708 1846.21,291.52 1838.18,291.52 C1829.49,291.52 1824.32,283.489 1824.32,269.958 C1824.32,255.223 1829.05,247.302 1837.85,247.302 M1893.94,241.692 C1880.41,241.692 1869.96,253.677 1869.96,269.083 C1869.96,284.145 1880.52,296.255 1893.72,296.255 C1906.93,296.255 1917.49,284.145 1917.49,268.973 C1917.49,253.895 1906.93,241.692 1893.94,241.692 M1893.94,246.411 C1901.65,246.411 1905.93,254.442 1905.93,268.973 C1905.93,283.598 1901.65,291.52 1893.72,291.52 C1885.8,291.52 1881.52,283.598 1881.52,269.083 C1881.52,254.114 1885.69,246.411 1893.94,246.411"/>
<path class="Text" d="M247.817,213.63 L245.239,213.63 L242.427,217.833 C239.067,214.677 234.661,213.005 229.692,213.005 C220.442,213.005 214.364,218.817 214.364,227.63 C214.364,235.27 218.145,239.052 228.427,241.708 L235.083,243.38 C240.255,244.723 240.755,244.864 242.223,245.973 C244.317,247.583 245.442,249.895 245.442,252.63 C245.442,255.427 244.395,257.739 242.286,259.692 C239.989,261.661 237.677,262.427 233.817,262.427 C228.645,262.427 224.927,260.817 221.645,257.177 C218.692,253.958 217.223,250.598 216.177,245.208 L213.177,245.208 L213.442,265.161 L216.177,265.161 L219.333,260.395 C224.02,264.255 227.864,265.645 234.036,265.645 C244.317,265.645 250.895,259.63 250.895,250.255 C250.895,245.833 249.505,242.192 246.708,239.536 C244.817,237.708 242.083,236.52 236.489,235.13 L228.989,233.239 C222.755,231.63 219.817,228.895 219.817,224.63 C219.817,219.723 223.817,216.364 229.755,216.364 C234.661,216.364 238.645,218.458 241.458,222.458 C243.489,225.317 244.817,228.27 245.645,231.833 L248.661,231.833 L247.817,213.63 M285.192,242.052 C285.192,237.645 284.427,235.411 282.395,233.723 C280.083,231.833 276.661,230.927 272.177,230.927 C264.27,230.927 258.52,234.63 258.52,239.739 C258.52,242.333 260.13,244.02 262.583,244.02 C264.817,244.02 266.364,242.552 266.364,240.442 C266.364,239.536 266.02,238.552 265.317,237.583 C264.895,237.083 264.817,236.942 264.817,236.598 C264.817,235.192 267.63,233.942 270.989,233.942 C273.223,233.942 275.677,234.63 276.802,235.692 C278.13,236.802 278.614,238.489 278.614,241.63 L278.614,244.364 C271.333,245.63 269.02,246.192 265.598,247.52 C259.505,249.755 256.63,252.973 256.63,257.458 C256.63,262.505 260.552,265.645 266.786,265.645 C271.614,265.645 275.958,263.692 278.958,260.114 C280.083,263.692 281.833,265.083 285.13,265.083 C288.27,265.083 291.567,263.052 291.567,261.02 C291.567,260.536 291.286,260.192 290.864,260.192 C290.583,260.192 290.302,260.255 289.817,260.473 C288.833,260.895 288.411,260.958 287.848,260.958 C285.895,260.958 285.192,259.692 285.192,256.13 L285.192,242.052 M278.614,250.598 C278.614,254.802 278.411,255.77 277.208,257.598 C275.458,260.192 272.317,261.942 269.239,261.942 C266.02,261.942 263.708,259.63 263.708,256.473 C263.708,253.536 265.177,251.442 268.255,249.973 C270.427,248.989 273.161,248.286 278.614,247.38 L278.614,250.598 M315.552,246.739 L323.536,237.442 C325.286,235.411 326.895,234.489 328.786,234.489 L329.427,234.489 L329.427,231.973 L314.927,231.973 L314.927,234.489 L316.255,234.489 C318.364,234.489 319.411,234.989 319.411,236.036 C319.411,236.739 318.927,237.708 318.005,238.833 L313.598,244.161 L308.208,237.302 C307.786,236.739 307.505,236.177 307.505,235.755 C307.505,234.848 308.411,234.489 310.583,234.489 L311.567,234.489 L311.567,231.973 L294.973,231.973 L294.973,234.489 C297.567,234.708 298.552,235.333 300.786,238.27 L309.333,248.989 L301.27,258.364 C298.895,261.02 296.864,262.145 294.973,262.083 L294.552,262.083 L294.552,264.598 L309.333,264.598 L309.333,262.083 L308.27,262.083 C306.661,262.083 306.317,262.005 305.833,261.802 C305.27,261.442 304.848,260.817 304.848,260.192 C304.848,259.692 305.052,259.067 305.411,258.645 L311.286,251.645 L316.614,258.723 C317.098,259.411 317.52,260.333 317.52,260.817 C317.52,261.723 316.473,262.083 313.802,262.083 L313.317,262.083 L313.317,264.598 L330.958,264.598 L330.958,262.083 L330.473,262.083 C328.02,262.083 326.411,261.161 324.38,258.645 L315.552,246.739 M347.333,230.927 C338.723,230.927 332.067,238.552 332.067,248.364 C332.067,257.942 338.786,265.645 347.192,265.645 C355.598,265.645 362.317,257.942 362.317,248.286 C362.317,238.692 355.598,230.927 347.333,230.927 M347.333,233.942 C352.239,233.942 354.958,239.052 354.958,248.286 C354.958,257.598 352.239,262.645 347.192,262.645 C342.161,262.645 339.427,257.598 339.427,248.364 C339.427,238.833 342.083,233.942 347.333,233.942 M378.755,231.973 L378.755,227.989 C378.755,224.489 378.958,222.177 379.52,220.77 C380.645,217.692 383.083,215.802 385.895,215.802 C387.364,215.802 388.27,216.223 388.27,216.989 C388.27,217.27 388.27,217.348 387.848,217.911 C387.427,218.536 387.223,219.38 387.223,220.145 C387.223,222.239 388.895,223.848 391.067,223.848 C393.38,223.848 394.989,222.098 394.989,219.583 C394.989,215.52 391.489,213.005 385.817,213.005 C380.989,213.005 377.411,214.677 374.973,218.177 C372.864,221.13 372.161,224.13 372.161,229.802 L372.161,231.973 L366.005,231.973 L366.005,234.989 L372.161,234.989 L372.161,255.989 L372.161,257.661 L372.161,259.27 C372.098,260.255 372.02,260.677 371.755,261.098 C371.255,261.723 369.927,262.005 366.911,262.083 L366.63,262.083 L366.63,264.598 L385.333,264.598 L385.333,262.083 L384.067,262.083 C379.38,261.942 378.755,261.583 378.755,259.067 L378.755,255.989 L378.755,234.989 L386.442,234.989 L386.442,231.973 L378.755,231.973 M403.802,230.927 C395.192,230.927 388.536,238.552 388.536,248.364 C388.536,257.942 395.255,265.645 403.661,265.645 C412.067,265.645 418.786,257.942 418.786,248.286 C418.786,238.692 412.067,230.927 403.802,230.927 M403.802,233.942 C408.708,233.942 411.427,239.052 411.427,248.286 C411.427,257.598 408.708,262.645 403.661,262.645 C398.63,262.645 395.895,257.598 395.895,248.364 C395.895,238.833 398.552,233.942 403.802,233.942 M435.145,231.973 L423.036,232.739 L423.036,235.755 L425.552,235.755 C428.223,235.833 428.567,236.239 428.567,239.255 L428.567,255.989 L428.567,257.661 L428.567,259.27 C428.489,260.333 428.427,260.755 428.145,261.098 C427.661,261.723 426.333,262.005 423.317,262.083 L423.036,262.083 L423.036,264.598 L440.755,264.598 L440.755,262.083 L440.473,262.083 C435.77,261.942 435.145,261.583 435.145,259.067 L435.145,255.989 L435.145,248.708 C435.145,245.27 435.63,242.13 436.411,240.52 C437.88,237.364 441.02,235.192 444.036,235.192 C445.864,235.192 447.958,236.177 449.005,237.645 C450.052,239.192 450.552,241.286 450.552,244.645 L450.552,255.989 L450.552,259.27 C450.473,260.333 450.411,260.755 450.13,261.098 C449.645,261.723 448.239,262.005 445.223,262.083 L444.942,262.083 L444.942,264.598 L462.661,264.598 L462.661,262.083 L462.38,262.083 C457.755,261.942 457.13,261.583 457.13,259.067 L457.13,255.989 L457.13,244.989 C457.13,239.958 456.927,238.692 455.661,236.317 C453.911,232.958 450.411,230.927 446.208,230.927 C441.661,230.927 438.223,233.02 435.145,237.645 L435.145,231.973 M496.458,248.848 C496.536,238.348 490.583,230.927 482.036,230.927 C473.083,230.927 466.364,238.692 466.364,249.192 C466.364,259.067 472.739,265.645 482.177,265.645 C488.911,265.645 493.598,262.364 496.458,255.708 L494.02,254.38 C491.145,259.77 488.208,261.864 483.52,261.864 C479.942,261.864 477.348,260.395 475.536,257.255 C474.27,255.145 473.708,252.692 473.786,248.848 L496.458,248.848 M473.848,245.833 C473.848,243.661 474.13,242.13 474.833,240.161 C476.302,235.958 478.536,233.942 481.973,233.942 C486.177,233.942 488.973,237.645 488.973,243.317 C488.973,245.27 488.348,245.833 486.098,245.833 L473.848,245.833 M544.817,213.067 L541.864,213.067 L525.77,253.88 C523.88,259.348 522.052,261.02 518.067,261.302 L517.786,261.302 L517.786,264.598 L536.333,264.598 L536.333,261.302 L534.942,261.302 C531.161,261.302 529.27,259.973 529.27,257.317 C529.27,256.411 529.473,255.567 529.895,254.38 L532.208,248.223 L550.755,248.223 L554.536,257.598 C554.958,258.723 555.098,259.145 555.098,259.489 C555.098,260.614 553.348,261.302 550.755,261.302 L547.817,261.302 L547.817,264.598 L569.52,264.598 L569.52,261.302 L568.536,261.302 C564.911,261.239 564.27,260.817 562.661,256.833 L544.817,213.067 M541.38,224.552 L549.286,244.442 L533.614,244.442 L541.38,224.552 M583.161,213.005 L570.208,213.77 L570.208,216.786 L573.645,216.786 C576.223,216.848 576.583,217.27 576.583,220.286 L576.583,255.989 L576.583,259.27 C576.505,260.333 576.442,260.755 576.161,261.098 C575.677,261.723 574.333,262.005 571.333,262.083 L570.833,262.083 L570.833,264.598 L588.973,264.598 L588.973,262.083 L588.489,262.083 C583.786,261.942 583.161,261.583 583.161,259.067 L583.161,255.989 L583.161,213.005 M604.505,231.973 L604.505,218.114 L601.645,218.114 C600.942,227.208 597.864,231.833 592.192,232.255 L592.192,234.989 L597.927,234.989 L597.927,252.833 C597.927,257.739 598.067,259.489 598.77,261.098 C599.895,264.036 602.692,265.645 606.755,265.645 C613.052,265.645 617.114,260.895 617.114,253.473 C617.114,253.052 617.114,252.552 617.036,251.864 L614.098,251.864 C613.895,258.161 612.067,261.38 608.645,261.38 C607.036,261.38 605.63,260.536 605.145,259.348 C604.723,258.364 604.505,256.614 604.505,254.098 L604.505,234.989 L614.802,234.989 L614.802,231.973 L604.505,231.973 M636.208,230.927 C627.598,230.927 620.942,238.552 620.942,248.364 C620.942,257.942 627.661,265.645 636.067,265.645 C644.473,265.645 651.192,257.942 651.192,248.286 C651.192,238.692 644.473,230.927 636.208,230.927 M636.208,233.942 C641.114,233.942 643.833,239.052 643.833,248.286 C643.833,257.598 641.114,262.645 636.067,262.645 C631.036,262.645 628.302,257.598 628.302,248.364 C628.302,238.833 630.958,233.942 636.208,233.942"/>
<path class="TieSegment" stroke="#000000" stroke-width="1.74" stroke-linecap="round" stroke-linejoin="round" fill-rule="evenodd" d="M976.456,615.599 C995.749,597.464 1053.63,597.464 1072.92,615.599 C1053.63,604.408 995.749,604.408 976.456,615.599"/>
<path class="TieSegment" stroke="#000000" stroke-width="1.74" stroke-linecap="round" stroke-linejoin="round" fill-rule="evenodd" d="M1586.44,631.843 C1595.11,618.451 1621.14,618.451 1629.82,631.843 C1621.14,625.395 1595.11,625.395 1586.44,631.843"/>
<path class="TieSegment" stroke="#000000" stroke-width="1.74" stroke-linecap="round" stroke-linejoin="round" fill-rule="evenodd" d="M1742.98,615.599 C1762.27,597.464 1820.15,597.464 1839.45,615.599 C1820.15,604.408 1762.27,604.408 1742.98,615.599"/>
<path class="TieSegment" stroke="#000000" stroke-width="1.74" stroke-linecap="round" stroke-linejoin="round" fill-rule="evenodd" d="M2327.17,603.199 C2335.46,589.807 2360.33,589.807 2368.62,603.199 C2360.33,596.751 2335.46,596.751 2327.17,603.199"/>
<path class="TieSegment" stroke="#000000" stroke-width="1.74" stroke-linecap="round" stroke-linejoin="round" fill-rule="evenodd" d="M2429.41,627.999 C2437.7,614.607 2462.57,614.607 2470.86,627.999 C2462.57,621.551 2437.7,621.551 2429.41,627.999"/>
<path class="TieSegment" stroke="#000000" stroke-width="1.74" stroke-linecap="round" stroke-linejoin="round" fill-rule="evenodd" d="M2531.64,590.799 C2553.01,571.091 2617.1,571.091 2638.46,590.799 C2617.1,578.035 2553.01,578.035 2531.64,590.799"/>
<polyline class="BarLine" stroke="#000000" stroke-width="4.46" stroke-linejoin="bevel" points="747.099,632.835 747.099,734.763"/>
<polyline class="BarLine" stroke="#000000" stroke-width="4.46" stroke-linejoin="bevel" points="1027.17,632.835 1027.17,734.763"/>
<polyline class="BarLine" stroke="#000000" stroke-width="4.46" stroke-linejoin="bevel" points="1351.87,632.835 1351.87,734.763"/>
<polyline class="BarLine" stroke="#000000" stroke-width="4.46" stroke-linejoin="bevel" points="1793.69,632.835 1793.69,734.763"/>
<polyline class="BarLine" stroke="#000000" stroke-width="4.46" stroke-linejoin="bevel" points="2118.39,632.835 2118.39,734.763"/>
<polyline class="BarLine" stroke="#000000" stroke-width="4.46" stroke-linejoin="bevel" points="2582.36,632.835 2582.36,734.763"/>
<polyline class="BarLine" stroke="#000000" stroke-width="4.46" stroke-linejoin="bevel" points="2739.6,632.835 2739.6,734.763"/>
<polyline class="BarLine" stroke="#000000" stroke-width="13.64" stroke-linejoin="bevel" points="2756.96,632.835 2756.96,734.763"/>
<path class="Accidental" transform="matrix(0.992001,0,0,0.992001,1535.09,658.999)" d="M23.2969,-10.5938 C23.9063,-10.7031 24.4063,-11.4063 24.4063,-12 L24.4063,-17.9063 C24.4063,-18.7031 23.7969,-19.2969 23,-19.2969 L22.7969,-19.2969 L19.5,-18.5938 L19.5,-33.5 L16.7031,-33.5 L16.7031,-18 L7.79688,-16.2031 L7.79688,-30.2969 L5,-30.2969 L5,-15.5938 L1.09375,-14.7969 C0.5,-14.7031 0,-14 0,-13.4063 L0,-13.2031 L0,-7.40625 L0,-7.59375 C0,-6.79688 0.59375,-6.20313 1.40625,-6.20313 L1.70313,-6.20313 L5,-6.90625 L5,9.59375 L1.09375,10.4063 C0.5,10.5 0,11.2031 0,11.7969 L0,17.5938 C0,18.4063 0.59375,19 1.40625,19 L1.70313,19 L5,18.2969 L5,33.2031 L7.79688,33.2031 L7.79688,17.7031 L16.7031,15.9063 L16.7031,30 L19.5,30 L19.5,15.2969 L23.2969,14.5938 C23.9063,14.5 24.4063,13.7969 24.4063,13.2031 L24.4063,7.29688 C24.4063,6.5 23.7969,5.90625 23,5.90625 L22.7969,5.90625 L19.5,6.59375 L19.5,-9.90625 L23.2969,-10.5938 M7.79688,9.09375 L7.79688,-7.5 L16.7031,-9.29688 L16.7031,7.20313 L7.79688,9.09375 "/>
<polyline class="LedgerLine" stroke="#000000" stroke-width="3.97" stroke-linejoin="bevel" points="2502.01,609.399 2551.61,609.399"/>
<polyline class="LedgerLine" stroke="#000000" stroke-width="3.97" stroke-linejoin="bevel" points="2616.83,609.399 2671.19,609.399"/>
<polyline class="Stem" stroke="#000000" stroke-width="2.73" stroke-linejoin="bevel" points="956.869,637.532 956.869,720.999"/>
<polyline class="Stem" stroke="#000000" stroke-width="2.73" stroke-linejoin="bevel" points="1063.01,637.532 1063.01,708.599"/>
<polyline class="Stem" stroke="#000000" stroke-width="2.73" stroke-linejoin="bevel" points="1105.04,649.932 1105.04,714.799"/>
<polyline class="Stem" stroke="#000000" stroke-width="2.73" stroke-linejoin="bevel" points="1147.07,637.532 1147.07,720.999"/>
<polyline class="Stem" stroke="#000000" stroke-width="2.73" stroke-linejoin="bevel" points="1214.32,649.932 1214.32,733.399"/>
<polyline class="Stem" stroke="#000000" stroke-width="2.73" stroke-linejoin="bevel" points="1281.57,637.532 1281.57,720.999"/>
<polyline class="Stem" stroke="#000000" stroke-width="2.73" stroke-linejoin="bevel" points="1387.71,649.932 1387.71,727.199"/>
<polyline class="Stem" stroke="#000000" stroke-width="2.73" stroke-linejoin="bevel" points="1440.75,637.532 1440.75,729.035"/>
<polyline class="Stem" stroke="#000000" stroke-width="2.73" stroke-linejoin="bevel" points="1493.8,649.932 1493.8,730.871"/>
<polyline class="Stem" stroke="#000000" stroke-width="2.73" stroke-linejoin="bevel" points="1566.85,662.332 1566.85,733.399"/>
<polyline class="Stem" stroke="#000000" stroke-width="2.73" stroke-linejoin="bevel" points="1619.9,662.332 1619.9,742.699"/>
<polyline class="Stem" stroke="#000000" stroke-width="2.73" stroke-linejoin="bevel" points="1723.39,637.532 1723.39,720.999"/>
<polyline class="Stem" stroke="#000000" stroke-width="2.73" stroke-linejoin="bevel" points="1829.53,637.532 1829.53,708.599"/>
<polyline class="Stem" stroke="#000000" stroke-width="2.73" stroke-linejoin="bevel" points="1871.56,649.932 1871.56,714.799"/>
<polyline class="Stem" stroke="#000000" stroke-width="2.73" stroke-linejoin="bevel" points="1913.59,637.532 1913.59,720.999"/>
<polyline class="Stem" stroke="#000000" stroke-width="2.73" stroke-linejoin="bevel" points="1980.84,649.932 1980.84,733.399"/>
<polyline class="Stem" stroke="#000000" stroke-width="2.73" stroke-linejoin="bevel" points="2048.09,637.532 2048.09,720.999"/>
<polyline class="Stem" stroke="#000000" stroke-width="2.73" stroke-linejoin="bevel" points="2154.23,649.932 2154.23,727.199"/>
<polyline class="Stem" stroke="#000000" stroke-width="2.73" stroke-linejoin="bevel" points="2205.35,637.532 2205.35,723.066"/>
<polyline class="Stem" stroke="#000000" stroke-width="2.73" stroke-linejoin="bevel" points="2256.47,649.932 2256.47,718.932"/>
<polyline class="Stem" stroke="#000000" stroke-width="2.73" stroke-linejoin="bevel" points="2307.59,625.132 2307.59,714.799"/>
<polyline class="Stem" stroke="#000000" stroke-width="2.73" stroke-linejoin="bevel" points="2358.7,625.132 2358.7,714.799"/>
<polyline class="Stem" stroke="#000000" stroke-width="2.73" stroke-linejoin="bevel" points="2409.82,649.932 2409.82,714.799"/>
<polyline class="Stem" stroke="#000000" stroke-width="2.73" stroke-linejoin="bevel" points="2460.94,649.932 2460.94,714.799"/>
<polyline class="Stem" stroke="#000000" stroke-width="2.73" stroke-linejoin="bevel" points="2512.06,612.732 2512.06,714.799"/>
<path class="Note" transform="matrix(0.992001,0,0,0.992001,955.505,634.199)" d="M31.5,-8.09375 C29.7031,-11.4063 25.9063,-13.2031 21.2969,-13.2031 C17.9063,-13.2031 14.2031,-12.2031 10.5938,-10.2969 C4,-6.79688 0,-0.90625 0,4.20313 C0,5.59375 0.296875,7 1,8.29688 C2.79688,11.5938 6.59375,13.2969 11.2031,13.2969 C14.5938,13.2969 18.2969,12.4063 21.9063,10.5 C28.5,7 32.5,1.09375 32.5,-4 C32.5,-5.40625 32.2031,-6.79688 31.5,-8.09375"/>
<path class="Note" transform="matrix(0.992001,0,0,0.992001,1061.64,634.199)" d="M31.5,-8.09375 C29.7031,-11.4063 25.9063,-13.2031 21.2969,-13.2031 C17.9063,-13.2031 14.2031,-12.2031 10.5938,-10.2969 C4,-6.79688 0,-0.90625 0,4.20313 C0,5.59375 0.296875,7 1,8.29688 C2.79688,11.5938 6.59375,13.2969 11.2031,13.2969 C14.5938,13.2969 18.2969,12.4063 21.9063,10.5 C28.5,7 32.5,1.09375 32.5,-4 C32.5,-5.40625 32.2031,-6.79688 31.5,-8.09375"/>
<path class="Note" transform="matrix(0.992001,0,0,0.992001,1103.67,646.599)" d="M31.5,-8.09375 C29.7031,-11.4063 25.9063,-13.2031 21.2969,-13.2031 C17.9063,-13.2031 14.2031,-12.2031 10.5938,-10.2969 C4,-6.79688 0,-0.90625 0,4.20313 C0,5.59375 0.296875,7 1,8.29688 C2.79688,11.5938 6.59375,13.2969 11.2031,13.2969 C14.5938,13.2969 18.2969,12.4063 21.9063,10.5 C28.5,7 32.5,1.09375 32.5,-4 C32.5,-5.40625 32.2031,-6.79688 31.5,-8.09375"/>
<path class="Note" transform="matrix(0.992001,0,0,0.992001,1145.7,634.199)" d="M31.5,-8.09375 C29.7031,-11.4063 25.9063,-13.2031 21.2969,-13.2031 C17.9063,-13.2031 14.2031,-12.2031 10.5938,-10.2969 C4,-6.79688 0,-0.90625 0,4.20313 C0,5.59375 0.296875,7 1,8.29688 C2.79688,11.5938 6.59375,13.2969 11.2031,13.2969 C14.5938,13.2969 18.2969,12.4063 21.9063,10.5 C28.5,7 32.5,1.09375 32.5,-4 C32.5,-5.40625 32.2031,-6.79688 31.5,-8.09375"/>
<path class="Note" transform="matrix(0.992001,0,0,0.992001,1212.96,646.599)" d="M31.5,-8.09375 C29.7031,-11.4063 25.9063,-13.2031 21.2969,-13.2031 C17.9063,-13.2031 14.2031,-12.2031 10.5938,-10.2969 C4,-6.79688 0,-0.90625 0,4.20313 C0,5.59375 0.296875,7 1,8.29688 C2.79688,11.5938 6.59375,13.2969 11.2031,13.2969 C14.5938,13.2969 18.2969,12.4063 21.9063,10.5 C28.5,7 32.5,1.09375 32.5,-4 C32.5,-5.40625 32.2031,-6.79688 31.5,-8.09375"/>
<path class="Note" transform="matrix(0.992001,0,0,0.992001,1280.21,634.199)" d="M31.5,-8.09375 C29.7031,-11.4063 25.9063,-13.2031 21.2969,-13.2031 C17.9063,-13.2031 14.2031,-12.2031 10.5938,-10.2969 C4,-6.79688 0,-0.90625 0,4.20313 C0,5.59375 0.296875,7 1,8.29688 C2.79688,11.5938 6.59375,13.2969 11.2031,13.2969 C14.5938,13.2969 18.2969,12.4063 21.9063,10.5 C28.5,7 32.5,1.09375 32.5,-4 C32.5,-5.40625 32.2031,-6.79688 31.5,-8.09375"/>
<path class="Note" transform="matrix(0.992001,0,0,0.992001,1386.34,646.599)" d="M31.5,-8.09375 C29.7031,-11.4063 25.9063,-13.2031 21.2969,-13.2031 C17.9063,-13.2031 14.2031,-12.2031 10.5938,-10.2969 C4,-6.79688 0,-0.90625 0,4.20313 C0,5.59375 0.296875,7 1,8.29688 C2.79688,11.5938 6.59375,13.2969 11.2031,13.2969 C14.5938,13.2969 18.2969,12.4063 21.9063,10.5 C28.5,7 32.5,1.09375 32.5,-4 C32.5,-5.40625 32.2031,-6.79688 31.5,-8.09375"/>
<path class="Note" transform="matrix(0.992001,0,0,0.992001,1439.39,634.199)" d="M31.5,-8.09375 C29.7031,-11.4063 25.9063,-13.2031 21.2969,-13.2031 C17.9063,-13.2031 14.2031,-12.2031 10.5938,-10.2969 C4,-6.79688 0,-0.90625 0,4.20313 C0,5.59375 0.296875,7 1,8.29688 C2.79688,11.5938 6.59375,13.2969 11.2031,13.2969 C14.5938,13.2969 18.2969,12.4063 21.9063,10.5 C28.5,7 32.5,1.09375 32.5,-4 C32.5,-5.40625 32.2031,-6.79688 31.5,-8.09375"/>
<path class="Note" transform="matrix(0.992001,0,0,0.992001,1492.44,646.599)" d="M31.5,-8.09375 C29.7031,-11.4063 25.9063,-13.2031 21.2969,-13.2031 C17.9063,-13.2031 14.2031,-12.2031 10.5938,-10.2969 C4,-6.79688 0,-0.90625 0,4.20313 C0,5.59375 0.296875,7 1,8.29688 C2.79688,11.5938 6.59375,13.2969 11.2031,13.2969 C14.5938,13.2969 18.2969,12.4063 21.9063,10.5 C28.5,7 32.5,1.09375 32.5,-4 C32.5,-5.40625 32.2031,-6.79688 31.5,-8.09375"/>
<path class="Note" transform="matrix(0.992001,0,0,0.992001,1565.49,658.999)" d="M31.5,-8.09375 C29.7031,-11.4063 25.9063,-13.2031 21.2969,-13.2031 C17.9063,-13.2031 14.2031,-12.2031 10.5938,-10.2969 C4,-6.79688 0,-0.90625 0,4.20313 C0,5.59375 0.296875,7 1,8.29688 C2.79688,11.5938 6.59375,13.2969 11.2031,13.2969 C14.5938,13.2969 18.2969,12.4063 21.9063,10.5 C28.5,7 32.5,1.09375 32.5,-4 C32.5,-5.40625 32.2031,-6.79688 31.5,-8.09375"/>
<path class="Note" transform="matrix(0.992001,0,0,0.992001,1618.54,658.999)" d="M31.5,-8.09375 C29.7031,-11.4063 25.9063,-13.2031 21.2969,-13.2031 C17.9063,-13.2031 14.2031,-12.2031 10.5938,-10.2969 C4,-6.79688 0,-0.90625 0,4.20313 C0,5.59375 0.296875,7 1,8.29688 C2.79688,11.5938 6.59375,13.2969 11.2031,13.2969 C14.5938,13.2969 18.2969,12.4063 21.9063,10.5 C28.5,7 32.5,1.09375 32.5,-4 C32.5,-5.40625 32.2031,-6.79688 31.5,-8.09375"/>
<path class="Note" transform="matrix(0.992001,0,0,0.992001,1722.03,634.199)" d="M31.5,-8.09375 C29.7031,-11.4063 25.9063,-13.2031 21.2969,-13.2031 C17.9063,-13.2031 14.2031,-12.2031 10.5938,-10.2969 C4,-6.79688 0,-0.90625 0,4.20313 C0,5.59375 0.296875,7 1,8.29688 C2.79688,11.5938 6.59375,13.2969 11.2031,13.2969 C14.5938,13.2969 18.2969,12.4063 21.9063,10.5 C28.5,7 32.5,1.09375 32.5,-4 C32.5,-5.40625 32.2031,-6.79688 31.5,-8.09375"/>
<path class="Note" transform="matrix(0.992001,0,0,0.992001,1828.17,634.199)" d="M31.5,-8.09375 C29.7031,-11.4063 25.9063,-13.2031 21.2969,-13.2031 C17.9063,-13.2031 14.2031,-12.2031 10.5938,-10.2969 C4,-6.79688 0,-0.90625 0,4.20313 C0,5.59375 0.296875,7 1,8.29688 C2.79688,11.5938 6.59375,13.2969 11.2031,13.2969 C14.5938,13.2969 18.2969,12.4063 21.9063,10.5 C28.5,7 32.5,1.09375 32.5,-4 C32.5,-5.40625 32.2031,-6.79688 31.5,-8.09375"/>
<path class="Note" transform="matrix(0.992001,0,0,0.992001,1870.2,646.599)" d="M31.5,-8.09375 C29.7031,-11.4063 25.9063,-13.2031 21.2969,-13.2031 C17.9063,-13.2031 14.2031,-12.2031 10.5938,-10.2969 C4,-6.79688 0,-0.90625 0,4.20313 C0,5.59375 0.296875,7 1,8.29688 C2.79688,11.5938 6.59375,13.2969 11.2031,13.2969 C14.5938,13.2969 18.2969,12.4063 21.9063,10.5 C28.5,7 32.5,1.09375 32.5,-4 C32.5,-5.40625 32.2031,-6.79688 31.5,-8.09375"/>
<path class="Note" transform="matrix(0.992001,0,0,0.992001,1912.23,634.199)" d="M31.5,-8.09375 C29.7031,-11.4063 25.9063,-13.2031 21.2969,-13.2031 C17.9063,-13.2031 14.2031,-12.2031 10.5938,-10.2969 C4,-6.79688 0,-0.90625 0,4.20313 C0,5.59375 0.296875,7 1,8.29688 C2.79688,11.5938 6.59375,13.2969 11.2031,13.2969 C14.5938,13.2969 18.2969,12.4063 21.9063,10.5 C28.5,7 32.5,1.09375 32.5,-4 C32.5,-5.40625 32.2031,-6.79688 31.5,-8.09375"/>
<path class="Note" transform="matrix(0.992001,0,0,0.992001,1979.48,646.599)" d="M31.5,-8.09375 C29.7031,-11.4063 25.9063,-13.2031 21.2969,-13.2031 C17.9063,-13.2031 14.2031,-12.2031 10.5938,-10.2969 C4,-6.79688 0,-0.90625 0,4.20313 C0,5.59375 0.296875,7 1,8.29688 C2.79688,11.5938 6.59375,13.2969 11.2031,13.2969 C14.5938,13.2969 18.2969,12.4063 21.9063,10.5 C28.5,7 32.5,1.09375 32.5,-4 C32.5,-5.40625 32.2031,-6.79688 31.5,-8.09375"/>
<path class="Note" transform="matrix(0.992001,0,0,0.992001,2046.73,634.199)" d="M31.5,-8.09375 C29.7031,-11.4063 25.9063,-13.2031 21.2969,-13.2031 C17.9063,-13.2031 14.2031,-12.2031 10.5938,-10.2969 C4,-6.79688 0,-0.90625 0,4.20313 C0,5.59375 0.296875,7 1,8.29688 C2.79688,11.5938 6.59375,13.2969 11.2031,13.2969 C14.5938,13.2969 18.2969,12.4063 21.9063,10.5 C28.5,7 32.5,1.09375 32.5,-4 C32.5,-5.40625 32.2031,-6.79688 31.5,-8.09375"/>
<path class="Note" transform="matrix(0.992001,0,0,0.992001,2152.87,646.599)" d="M31.5,-8.09375 C29.7031,-11.4063 25.9063,-13.2031 21.2969,-13.2031 C17.9063,-13.2031 14.2031,-12.2031 10.5938,-10.2969 C4,-6.79688 0,-0.90625 0,4.20313 C0,5.59375 0.296875,7 1,8.29688 C2.79688,11.5938 6.59375,13.2969 11.2031,13.2969 C14.5938,13.2969 18.2969,12.4063 21.9063,10.5 C28.5,7 32.5,1.09375 32.5,-4 C32.5,-5.40625 32.2031,-6.79688 31.5,-8.09375"/>
<path class="Note" transform="matrix(0.992001,0,0,0.992001,2203.98,634.199)" d="M31.5,-8.09375 C29.7031,-11.4063 25.9063,-13.2031 21.2969,-13.2031 C17.9063,-13.2031 14.2031,-12.2031 10.5938,-10.2969 C4,-6.79688 0,-0.90625 0,4.20313 C0,5.59375 0.296875,7 1,8.29688 C2.79688,11.5938 6.59375,13.2969 11.2031,13.2969 C14.5938,13.2969 18.2969,12.4063 21.9063,10.5 C28.5,7 32.5,1.09375 32.5,-4 C32.5,-5.40625 32.2031,-6.79688 31.5,-8.09375"/>
<path class="Note" transform="matrix(0.992001,0,0,0.992001,2255.1,646.599)" d="M31.5,-8.09375 C29.7031,-11.4063 25.9063,-13.2031 21.2969,-13.2031 C17.9063,-13.2031 14.2031,-12.2031 10.5938,-10.2969 C4,-6.79688 0,-0.90625 0,4.20313 C0,5.59375 0.296875,7 1,8.29688 C2.79688,11.5938 6.59375,13.2969 11.2031,13.2969 C14.5938,13.2969 18.2969,12.4063 21.9063,10.5 C28.5,7 32.5,1.09375 32.5,-4 C32.5,-5.40625 32.2031,-6.79688 31.5,-8.09375"/>
<path class="Note" transform="matrix(0.992001,0,0,0.992001,2306.22,621.799)" d="M31.5,-8.09375 C29.7031,-11.4063 25.9063,-13.2031 21.2969,-13.2031 C17.9063,-13.2031 14.2031,-12.2031 10.5938,-10.2969 C4,-6.79688 0,-0.90625 0,4.20313 C0,5.59375 0.296875,7 1,8.29688 C2.79688,11.5938 6.59375,13.2969 11.2031,13.2969 C14.5938,13.2969 18.2969,12.4063 21.9063,10.5 C28.5,7 32.5,1.09375 32.5,-4 C32.5,-5.40625 32.2031,-6.79688 31.5,-8.09375"/>
<path class="Note" transform="matrix(0.992001,0,0,0.992001,2357.34,621.799)" d="M31.5,-8.09375 C29.7031,-11.4063 25.9063,-13.2031 21.2969,-13.2031 C17.9063,-13.2031 14.2031,-12.2031 10.5938,-10.2969 C4,-6.79688 0,-0.90625 0,4.20313 C0,5.59375 0.296875,7 1,8.29688 C2.79688,11.5938 6.59375,13.2969 11.2031,13.2969 C14.5938,13.2969 18.2969,12.4063 21.9063,10.5 C28.5,7 32.5,1.09375 32.5,-4 C32.5,-5.40625 32.2031,-6.79688 31.5,-8.09375"/>
<path class="Note" transform="matrix(0.992001,0,0,0.992001,2408.46,646.599)" d="M31.5,-8.09375 C29.7031,-11.4063 25.9063,-13.2031 21.2969,-13.2031 C17.9063,-13.2031 14.2031,-12.2031 10.5938,-10.2969 C4,-6.79688 0,-0.90625 0,4.20313 C0,5.59375 0.296875,7 1,8.29688 C2.79688,11.5938 6.59375,13.2969 11.2031,13.2969 C14.5938,13.2969 18.2969,12.4063 21.9063,10.5 C28.5,7 32.5,1.09375 32.5,-4 C32.5,-5.40625 32.2031,-6.79688 31.5,-8.09375"/>
<path class="Note" transform="matrix(0.992001,0,0,0.992001,2459.58,646.599)" d="M31.5,-8.09375 C29.7031,-11.4063 25.9063,-13.2031 21.2969,-13.2031 C17.9063,-13.2031 14.2031,-12.2031 10.5938,-10.2969 C4,-6.79688 0,-0.90625 0,4.20313 C0,5.59375 0.296875,7 1,8.29688 C2.79688,11.5938 6.59375,13.2969 11.2031,13.2969 C14.5938,13.2969 18.2969,12.4063 21.9063,10.5 C28.5,7 32.5,1.09375 32.5,-4 C32.5,-5.40625 32.2031,-6.79688 31.5,-8.09375"/>
<path class="Note" transform="matrix(0.992001,0,0,0.992001,2510.69,609.399)" d="M31.5,-8.09375 C29.7031,-11.4063 25.9063,-13.2031 21.2969,-13.2031 C17.9063,-13.2031 14.2031,-12.2031 10.5938,-10.2969 C4,-6.79688 0,-0.90625 0,4.20313 C0,5.59375 0.296875,7 1,8.29688 C2.79688,11.5938 6.59375,13.2969 11.2031,13.2969 C14.5938,13.2969 18.2969,12.4063 21.9063,10.5 C28.5,7 32.5,1.09375 32.5,-4 C32.5,-5.40625 32.2031,-6.79688 31.5,-8.09375"/>
<path class="Note" transform="matrix(0.992001,0,0,0.992001,2625.51,609.399)" d="M18.7031,-13.5938 C4.90625,-13.5938 0,-6.59375 0,-0.09375 C0,6.40625 4.90625,13.4063 18.7031,13.4063 C32.5,13.4063 37.2969,6.40625 37.2969,-0.09375 C37.2969,-6.59375 32.5,-13.5938 18.7031,-13.5938 M10.4063,-4.5 C10.2969,-4.90625 10.2969,-5.29688 10.2969,-5.70313 C10.2969,-6.5 10.5,-7.29688 10.9063,-8 C11.5938,-9 12.7969,-9.70313 14.2969,-10 C15.5938,-10.2969 16.2969,-10.5 18.9063,-10.5 L19,-10.5 C23,-10.5 24.2969,-6.79688 25.4063,-3 L25.7031,-2 C26.5,0.59375 26.9063,2.79688 26.9063,4.5 C26.9063,5.70313 26.7031,6.79688 26.2969,7.59375 C25.7031,8.70313 24.7031,9.40625 23,9.79688 C22.0938,10 20.5938,10.0938 20.5938,10.0938 C20.0938,10.0938 19.7031,10.2031 19.2969,10.2031 C16.0938,10.2031 14.0938,9 12.7031,4.70313 C11.5,1 11.2969,-0.09375 10.4063,-4.5"/>
<path class="Clef" transform="matrix(0.992001,0,0,0.992001,356.439,708.599)" d="M63.3594,-5.92188 C62.125,-11.3438 59.4844,-15.1719 58.7031,-16.2031 C55.5156,-20.4844 51.5,-23.3281 46.8125,-24.6875 C43.7031,-25.5625 40.7031,-25.6875 38.2813,-25.5 C37.2344,-31.5156 36.2344,-37.3906 35.3281,-42.8438 C40.7813,-49.0156 44.4063,-54.8125 46.6875,-59.1094 C50.1563,-65.6875 51.2969,-70.2656 51.3594,-70.4688 C53.0781,-75.6875 53.4375,-83.3906 52.3281,-91.5938 C51.3281,-99.1406 49.2344,-105.859 46.875,-109.109 C45.8594,-110.531 44.7969,-111.266 43.7656,-111.266 C42.5469,-111.266 40.0313,-110.031 37.1406,-107.25 C34.8438,-105.063 31.5781,-101.172 29.0156,-95.1563 C26.0156,-88.0938 25.7969,-78.6094 26.1563,-71.8906 C26.5313,-64.6094 27.6406,-58.9219 27.6563,-58.875 C27.6719,-58.7813 27.9375,-57.2813 28.375,-54.7188 C28.1563,-54.4844 27.9063,-54.2656 27.6563,-54.0156 C26.625,-53.0156 25.4375,-51.8906 24.0469,-50.5 C23.1875,-49.6406 22.2344,-48.7344 21.2344,-47.7656 C12.7969,-39.625 0,-27.2969 0,-8.14063 C0,-3.4375 0.90625,0.984375 2.6875,5 C4.26563,8.59375 6.5625,11.875 9.5,14.75 C17.2344,22.3125 27.8281,25.5156 34.875,25.3594 C37.8281,25.2813 40.4688,25.0469 42.8594,24.5938 C44.6875,34.2031 45.8281,41.2344 45.8594,46.5781 C45.9063,53.0938 44.25,57.0781 40.3594,59.8438 C37.9219,61.5781 35.1094,62.5313 32.0156,62.6719 C29.4219,62.7969 27.1563,62.3281 25.7344,61.9219 L25.7188,61.9219 C25.7188,61.9219 25.4375,61.8281 25.4219,61.6406 C25.4063,61.4531 25.7656,61.4063 25.7656,61.4063 L25.7969,61.4063 C27.7188,60.9688 31.2813,59.7344 33.6406,56.4375 C35.4375,53.9063 36.3125,49.2813 34.4688,45.3438 C33.3594,42.9531 30.8594,40 25.2344,39.5469 C22.7344,39.3438 20.4688,39.8594 18.4688,41.0625 C16.6563,42.1406 15.1563,43.7813 14.1094,45.7813 C11.6563,50.4844 12.1094,56.2188 15.2344,60.0625 C18.2031,63.6875 22.8125,66 28.25,66.5781 C29.1094,66.6719 29.9531,66.7031 30.7969,66.7031 C35.2344,66.7031 39.625,65.5 43.2031,63.2969 C46.8594,60.7188 48.9844,56.7344 49.6563,51.1094 C50.2188,46.4688 49.8281,40.5469 48.4375,32.4688 C48.0781,30.375 47.5313,27.3438 46.875,23.5938 C52.625,21.6719 56.7813,18.0938 60.5469,12.2344 C63.8438,6.5 64.7813,0.390625 63.3594,-5.92188 M29.1406,20.2969 C24.5,19.0781 20.0625,16.5781 16.3125,13.0625 C15,11.8438 13.125,9.67188 11.6563,6.28125 C10.2969,3.10938 9.625,-0.328125 9.6875,-3.90625 C9.75,-8.60938 11.0625,-13.4375 13.5625,-18.2188 C16.4844,-23.7969 21.0469,-29.3281 27.1094,-34.6563 C28.5625,-35.9375 29.9375,-37.2188 31.2188,-38.5 C31.9844,-34.2344 32.8125,-29.5469 33.6875,-24.6719 C29.8438,-23.4063 25.0938,-20.25 21.9844,-14.5938 C18.4375,-8.03125 18.5781,-2.5 19.3125,0.984375 C20.25,5.4375 22.7813,9.20313 26.2344,11.2969 C27.1719,11.8594 31.2969,13.9844 33.1406,13.4063 C33.5156,13.2969 33.7813,13.0625 33.9219,12.7344 C34.4375,11.5625 33.4063,10.9219 31.8594,9.96875 C31.25,9.59375 30.5781,9.17188 29.8594,8.64063 C26.5313,6.15625 25.0781,1.70313 26.1563,-2.6875 C26.7344,-5.07813 28.0156,-7.25 29.8594,-8.95313 C31.5156,-10.5 33.5625,-11.5938 35.9375,-12.2344 C37.9844,-0.984375 40.0469,10.1719 41.6875,18.5313 C41.8125,19.2188 41.9531,19.8906 42.0781,20.5625 C37.7031,21.5 33.3594,21.4063 29.1406,20.2969 M40.4688,-12.9063 C50.8125,-13.375 55.0781,-5.9375 55.9688,-1.10938 C56.4375,1.4375 56.4375,5.875 54.8906,10.0938 C53.7188,13.2656 51.2656,17.3438 46.125,19.4063 C46.0625,18.9844 45.9844,18.5469 45.9063,18.125 C44.3594,9.34375 42.4219,-1.65625 40.4688,-12.9063 M33.1406,-83.8594 C34.9219,-89.5938 37.6563,-92.8438 39.6563,-94.5781 C41.4063,-96.0938 43.0469,-96.8125 43.9688,-96.8125 C44.1094,-96.8125 44.2344,-96.7813 44.3281,-96.75 C44.7969,-96.6094 45.3281,-96.0469 45.7969,-95.1719 C48.1094,-90.8906 47.3594,-84.1719 46.0156,-79.7344 C44.3906,-74.3281 41.4688,-68.7188 32.6719,-59.1094 C32.5,-60.2188 32.3438,-61.2656 32.1875,-62.25 C30.9375,-70.5313 31.2656,-77.8125 33.1406,-83.8594"/>
<path class="KeySig" transform="matrix(0.992001,0,0,0.992001,494.311,621.799)" d="M23.2969,-10.5938 C23.9063,-10.7031 24.4063,-11.4063 24.4063,-12 L24.4063,-17.9063 C24.4063,-18.7031 23.7969,-19.2969 23,-19.2969 L22.7969,-19.2969 L19.5,-18.5938 L19.5,-33.5 L16.7031,-33.5 L16.7031,-18 L7.79688,-16.2031 L7.79688,-30.2969 L5,-30.2969 L5,-15.5938 L1.09375,-14.7969 C0.5,-14.7031 0,-14 0,-13.4063 L0,-13.2031 L0,-7.40625 L0,-7.59375 C0,-6.79688 0.59375,-6.20313 1.40625,-6.20313 L1.70313,-6.20313 L5,-6.90625 L5,9.59375 L1.09375,10.4063 C0.5,10.5 0,11.2031 0,11.7969 L0,17.5938 C0,18.4063 0.59375,19 1.40625,19 L1.70313,19 L5,18.2969 L5,33.2031 L7.79688,33.2031 L7.79688,17.7031 L16.7031,15.9063 L16.7031,30 L19.5,30 L19.5,15.2969 L23.2969,14.5938 C23.9063,14.5 24.4063,13.7969 24.4063,13.2031 L24.4063,7.29688 C24.4063,6.5 23.7969,5.90625 23,5.90625 L22.7969,5.90625 L19.5,6.59375 L19.5,-9.90625 L23.2969,-10.5938 M7.79688,9.09375 L7.79688,-7.5 L16.7031,-9.29688 L16.7031,7.20313 L7.79688,9.09375 "/>
<path class="KeySig" transform="matrix(0.992001,0,0,0.992001,469.511,671.399)" d="M23.2969,-10.5938 C23.9063,-10.7031 24.4063,-11.4063 24.4063,-12 L24.4063,-17.9063 C24.4063,-18.7031 23.7969,-19.2969 23,-19.2969 L22.7969,-19.2969 L19.5,-18.5938 L19.5,-33.5 L16.7031,-33.5 L16.7031,-18 L7.79688,-16.2031 L7.79688,-30.2969 L5,-30.2969 L5,-15.5938 L1.09375,-14.7969 C0.5,-14.7031 0,-14 0,-13.4063 L0,-13.2031 L0,-7.40625 L0,-7.59375 C0,-6.79688 0.59375,-6.20313 1.40625,-6.20313 L1.70313,-6.20313 L5,-6.90625 L5,9.59375 L1.09375,10.4063 C0.5,10.5 0,11.2031 0,11.7969 L0,17.5938 C0,18.4063 0.59375,19 1.40625,19 L1.70313,19 L5,18.2969 L5,33.2031 L7.79688,33.2031 L7.79688,17.7031 L16.7031,15.9063 L16.7031,30 L19.5,30 L19.5,15.2969 L23.2969,14.5938 C23.9063,14.5 24.4063,13.7969 24.4063,13.2031 L24.4063,7.29688 C24.4063,6.5 23.7969,5.90625 23,5.90625 L22.7969,5.90625 L19.5,6.59375 L19.5,-9.90625 L23.2969,-10.5938 M7.79688,9.09375 L7.79688,-7.5 L16.7031,-9.29688 L16.7031,7.20313 L7.79688,9.09375 "/>
<path class="KeySig" transform="matrix(0.992001,0,0,0.992001,444.711,634.199)" d="M23.2969,-10.5938 C23.9063,-10.7031 24.4063,-11.4063 24.4063,-12 L24.4063,-17.9063 C24.4063,-18.7031 23.7969,-19.2969 23,-19.2969 L22.7969,-19.2969 L19.5,-18.5938 L19.5,-33.5 L16.7031,-33.5 L16.7031,-18 L7.79688,-16.2031 L7.79688,-30.2969 L5,-30.2969 L5,-15.5938 L1.09375,-14.7969 C0.5,-14.7031 0,-14 0,-13.4063 L0,-13.2031 L0,-7.40625 L0,-7.59375 C0,-6.79688 0.59375,-6.20313 1.40625,-6.20313 L1.70313,-6.20313 L5,-6.90625 L5,9.59375 L1.09375,10.4063 C0.5,10.5 0,11.2031 0,11.7969 L0,17.5938 C0,18.4063 0.59375,19 1.40625,19 L1.70313,19 L5,18.2969 L5,33.2031 L7.79688,33.2031 L7.79688,17.7031 L16.7031,15.9063 L16.7031,30 L19.5,30 L19.5,15.2969 L23.2969,14.5938 C23.9063,14.5 24.4063,13.7969 24.4063,13.2031 L24.4063,7.29688 C24.4063,6.5 23.7969,5.90625 23,5.90625 L22.7969,5.90625 L19.5,6.59375 L19.5,-9.90625 L23.2969,-10.5938 M7.79688,9.09375 L7.79688,-7.5 L16.7031,-9.29688 L16.7031,7.20313 L7.79688,9.09375 "/>
<path class="TimeSig" transform="matrix(0.992001,0,0,0.992001,541.951,659.131)" d="M3.59375,12.625 L20.7656,12.625 L20.7656,20.0781 L12.5469,20.0781 C11.7656,20.0781 11.125,20.7031 11.125,21.4844 L11.125,23.3906 C11.125,24.1719 11.7656,24.7969 12.5469,24.7969 L42.7969,24.7969 C43.5781,24.7969 44.2031,24.1719 44.2031,23.3906 L44.2031,21.4844 C44.2031,20.7031 43.5781,20.0781 42.7969,20.0781 L33.8594,20.0781 L33.8594,12.625 L42.7969,12.625 C43.5781,12.625 44.2031,12 44.2031,11.2188 L44.2031,9.3125 C44.2031,8.53125 43.5781,7.90625 42.7969,7.90625 L33.8594,7.90625 L33.8594,-8.0625 C33.8594,-8.59375 33.5469,-9.07813 33.0781,-9.3125 L31.8594,-9.92188 C31.3281,-10.1719 30.7031,-10.0781 30.2656,-9.6875 L21.2188,-1.375 C20.9375,-1.09375 20.7656,-0.734375 20.7656,-0.328125 L20.7656,7.90625 L9.25,7.90625 C9.25,7.90625 20.375,-4.125 32.2188,-19.8906 C33.0781,-21.0469 32.5781,-22.0938 32.3906,-22.2813 L30.2188,-24.4844 C29.9531,-24.75 29.5938,-24.9063 29.2188,-24.9063 C28.625,-24.9063 15.0625,-24.875 14.3438,-24.9063 C13.625,-24.9219 13.0938,-24.2969 13.0156,-23.6875 C13.0156,-23.6875 12.4844,-16.3281 9.875,-8.1875 C7.28125,-0.078125 4.34375,4.90625 1.6875,8.53125 C1.6875,8.53125 1.14063,9.51563 1.5,10.2656 C1.84375,11.0156 2.48438,12.0938 2.48438,12.0938 C2.48438,12.0938 2.73438,12.625 3.59375,12.625"/>
<path class="TimeSig" transform="matrix(0.992001,0,0,0.992001,541.951,708.467)" d="M3.59375,12.625 L20.7656,12.625 L20.7656,20.0781 L12.5469,20.0781 C11.7656,20.0781 11.125,20.7031 11.125,21.4844 L11.125,23.3906 C11.125,24.1719 11.7656,24.7969 12.5469,24.7969 L42.7969,24.7969 C43.5781,24.7969 44.2031,24.1719 44.2031,23.3906 L44.2031,21.4844 C44.2031,20.7031 43.5781,20.0781 42.7969,20.0781 L33.8594,20.0781 L33.8594,12.625 L42.7969,12.625 C43.5781,12.625 44.2031,12 44.2031,11.2188 L44.2031,9.3125 C44.2031,8.53125 43.5781,7.90625 42.7969,7.90625 L33.8594,7.90625 L33.8594,-8.0625 C33.8594,-8.59375 33.5469,-9.07813 33.0781,-9.3125 L31.8594,-9.92188 C31.3281,-10.1719 30.7031,-10.0781 30.2656,-9.6875 L21.2188,-1.375 C20.9375,-1.09375 20.7656,-0.734375 20.7656,-0.328125 L20.7656,7.90625 L9.25,7.90625 C9.25,7.90625 20.375,-4.125 32.2188,-19.8906 C33.0781,-21.0469 32.5781,-22.0938 32.3906,-22.2813 L30.2188,-24.4844 C29.9531,-24.75 29.5938,-24.9063 29.2188,-24.9063 C28.625,-24.9063 15.0625,-24.875 14.3438,-24.9063 C13.625,-24.9219 13.0938,-24.2969 13.0156,-23.6875 C13.0156,-23.6875 12.4844,-16.3281 9.875,-8.1875 C7.28125,-0.078125 4.34375,4.90625 1.6875,8.53125 C1.6875,8.53125 1.14063,9.51563 1.5,10.2656 C1.84375,11.0156 2.48438,12.0938 2.48438,12.0938 C2.48438,12.0938 2.73438,12.625 3.59375,12.625"/>
<path class="Rest" transform="matrix(0.992001,0,0,0.992001,649.213,658.999)" d="M31.1094,-0.5 L1.40625,-0.5 C0.59375,-0.5 0,0.09375 0,0.90625 L0,11.7031 C0,12.5 0.59375,13.0938 1.40625,13.0938 L31.1094,13.0938 C31.9063,13.0938 32.5,12.5 32.5,11.7031 L32.5,0.90625 C32.5,0.09375 31.9063,-0.5 31.1094,-0.5"/>
<path class="Rest" transform="matrix(0.992001,0,0,0.992001,781.571,683.799)" d="M0,-11.7969 L0,-1 C0,0.40625 0,0.40625 1.40625,0.40625 L31.1094,0.40625 C32.5,0.40625 32.5,0.40625 32.5,-1 L32.5,-11.7969 C32.5,-13.2031 32.5,-13.2031 31.1094,-13.2031 L1.40625,-13.2031 C0,-13.2031 0,-13.2031 0,-11.7969"/>
<path class="Rest" transform="matrix(0.992001,0,0,0.992001,860.737,683.799)" d="M23.2031,16.9063 L23,16.5938 C22.9063,16.5 22.7031,16.2969 22.4063,15.9063 L10.9063,1.70313 C10.5938,1.40625 10.7031,0.59375 10.9063,0.203125 L21.0938,-15.2031 C21.2031,-15.4063 21.2969,-15.7031 21.2969,-15.9063 L21.2969,-16.7969 C21.2969,-17.0938 21.2031,-17.4063 21,-17.5938 L4.79688,-39.5 C4.79688,-39.5 4,-40.7031 3,-39.7969 C2,-39 2.79688,-37.7031 2.79688,-37.7031 L10.4063,-27.2969 C10.7969,-26.7031 10.7969,-25.5 10.4063,-24.9063 L0.296875,-9.5 C0.203125,-9.29688 0.09375,-8.90625 0.09375,-8.70313 L0.09375,-7.79688 C0.09375,-7.5 0.203125,-7.20313 0.40625,-7 L11.5938,6.90625 C11.2031,6.79688 10.2969,6.59375 9.09375,6.59375 C7.40625,6.59375 5.20313,7 3.40625,8.59375 C1.20313,10.5938 0,13.4063 0,15.9063 C0,17.2969 0.296875,18.7031 1.09375,19.7969 C3.20313,23 10.7031,32.5 10.7031,32.5 C10.7031,32.5 11.5938,33.6094 12.5,32.9063 C13.4063,32.2031 13.2031,31.2969 12.9063,30.7969 C12.5938,30.2969 9.40625,24.5 9.40625,24.5 C9.40625,24.5 8.70313,23.0938 8.70313,21.2969 C8.70313,20 9.09375,18.4063 10.4063,17.0938 C11.5938,15.9063 13,15.5 14.2969,15.5 C15.5938,15.5 16.7031,15.9063 17.5,16.4063 L21.4063,18.9063 C21.4063,18.9063 22.5938,19.5 23.2031,18.5938 C23.7031,17.7969 23.5,17.4063 23.2031,16.9063"/>
<path class="Rest" transform="matrix(0.992001,0,0,0.992001,918.313,683.799)" d="M26.7344,-20.2656 C25.9844,-20.5469 25.3125,-20.2031 24.9844,-19.5938 C24.6563,-18.9844 21.4688,-13.0625 17.0469,-9.79688 C15.6563,-8.78125 14.0625,-8.14063 12.5,-7.8125 C13.625,-9.0625 14.2969,-10.7344 14.2969,-12.5469 C14.2969,-16.5 11.0938,-19.7031 7.15625,-19.7031 C3.20313,-19.7031 0,-16.5 0,-12.5469 C0,-9.54688 1.875,-6.95313 4.51563,-5.90625 C6.04688,-5.1875 7.95313,-4.73438 10,-4.73438 C12.8438,-4.73438 15.9531,-5.5625 18.6719,-7.5625 C19.9375,-8.48438 21.125,-9.6875 22.2031,-10.9375 L10.8125,24.6875 L13.4531,25.5469 L27.5313,-18.5469 C27.7656,-19.2813 27.4688,-19.9688 26.7344,-20.2656"/>
<path class="Beam" fill-rule="evenodd" d="M1061.64,702.332 L1106.4,708.934 L1106.4,721.469 L1061.64,714.866 L1061.64,702.332 "/>
<path class="Beam" fill-rule="evenodd" d="M1386.34,720.995 L1568.22,727.29 L1568.22,739.697 L1386.34,733.403 L1386.34,720.995 "/>
<path class="Beam" fill-rule="evenodd" d="M1828.17,702.332 L1872.93,708.934 L1872.93,721.469 L1828.17,714.866 L1828.17,702.332 "/>
<path class="Beam" fill-rule="evenodd" d="M2152.87,720.979 L2308.95,708.358 L2308.95,720.799 L2152.87,733.419 L2152.87,720.979 "/>
<path class="Beam" fill-rule="evenodd" d="M2357.34,708.599 L2513.42,708.599 L2513.42,720.999 L2357.34,720.999 L2357.34,708.599 "/>
<path class="Hook" transform="matrix(0.992001,0,0,0.992001,955.505,720.999)" d="M2.5,0.40625 C2.5,0.203125 3.40625,-3.20313 3.5,-3.5 C3.59375,-3.90625 5.40625,-9.59375 9.09375,-15.2969 C11.7969,-19.5 21.2969,-31.7969 21,-31.7969 C21,-31.7969 28.4063,-41.2969 28.9063,-54.2031 L28.9063,-56.5 C28.9063,-62.6094 28.1094,-71.2031 24.5938,-79.9063 C24.2031,-80.9063 23.7969,-81.9063 22.7031,-81.5 C21.5938,-81.1094 21.9063,-79.9063 22.2031,-78.8125 C24,-71.7969 25,-64.6094 25,-57.4063 C25,-49 22,-44.7969 20.2031,-41.7031 C13.5938,-30.6094 5,-25.2031 0.796875,-23.7969 C0.296875,-23.5938 0,-23.2031 0,-22.7031 L0,-16.5 L0,-0.09375 C0,0.59375 0.59375,1.20313 1.29688,1.20313 C1.79688,1.20313 2.40625,0.796875 2.5,0.40625"/>
<path class="Hook" transform="matrix(0.992001,0,0,0.992001,1722.03,720.999)" d="M2.5,0.40625 C2.5,0.203125 3.40625,-3.20313 3.5,-3.5 C3.59375,-3.90625 5.40625,-9.59375 9.09375,-15.2969 C11.7969,-19.5 21.2969,-31.7969 21,-31.7969 C21,-31.7969 28.4063,-41.2969 28.9063,-54.2031 L28.9063,-56.5 C28.9063,-62.6094 28.1094,-71.2031 24.5938,-79.9063 C24.2031,-80.9063 23.7969,-81.9063 22.7031,-81.5 C21.5938,-81.1094 21.9063,-79.9063 22.2031,-78.8125 C24,-71.7969 25,-64.6094 25,-57.4063 C25,-49 22,-44.7969 20.2031,-41.7031 C13.5938,-30.6094 5,-25.2031 0.796875,-23.7969 C0.296875,-23.5938 0,-23.2031 0,-22.7031 L0,-16.5 L0,-0.09375 C0,0.59375 0.59375,1.20313 1.29688,1.20313 C1.79688,1.20313 2.40625,0.796875 2.5,0.40625"/>
<path class="NoteDot" transform="matrix(0.992001,0,0,0.992001,1663.17,646.599)" d="M0,0 C0,2.76563 2.23438,5 5,5 C7.76563,5 10,2.76563 10,0 C10,-2.76563 7.76563,-5 5,-5 C2.23438,-5 0,-2.76563 0,0"/>
</svg>
