<?xml version="1.0" encoding="UTF-8" standalone="no"?>
<svg width="4208.47px" height="2409.45px" viewBox="0 0 4208.47 2409.45"
 xmlns="http://www.w3.org/2000/svg" xmlns:xlink="http://www.w3.org/1999/xlink" version="1.2" baseProfile="tiny">
<title>BONE PIRATA (2)</title>
<desc>Generated by MuseScore 3.6.2</desc>
<polyline class="StaffLines" fill="none" stroke="#000000" stroke-width="5.94" stroke-linejoin="bevel" points="70.866,448.866 4137.61,448.866"/>
<polyline class="StaffLines" fill="none" stroke="#000000" stroke-width="5.94" stroke-linejoin="bevel" points="70.866,502.866 4137.61,502.866"/>
<polyline class="StaffLines" fill="none" stroke="#000000" stroke-width="5.94" stroke-linejoin="bevel" points="70.866,556.866 4137.61,556.866"/>
<polyline class="StaffLines" fill="none" stroke="#000000" stroke-width="5.94" stroke-linejoin="bevel" points="70.866,610.866 4137.61,610.866"/>
<polyline class="StaffLines" fill="none" stroke="#000000" stroke-width="5.94" stroke-linejoin="bevel" points="70.866,664.866 4137.61,664.866"/>
<path class="MeasureNumber" d="M92.3504,312.554 L90.1785,312.554 L71.5535,331.835 L71.5535,333.507 L82.8191,333.507 L82.1785,335.944 C81.6629,337.944 81.6316,338.069 81.2566,338.429 C80.866,338.819 80.0222,338.991 77.8972,338.991 L77.1785,338.991 L76.9441,340.866 L89.3816,340.866 L89.5847,338.991 L88.866,338.991 C86.2254,338.991 85.6629,338.788 85.6629,337.913 C85.6629,337.585 85.741,337.194 86.0691,335.944 L86.741,333.507 L91.3035,333.507 L91.8972,331.35 L87.3035,331.35 L92.3504,312.554 M83.4285,331.35 L74.4597,331.35 L86.8191,318.632 L83.4285,331.35 "/>
<polyline class="BarLine" fill="none" stroke="#000000" stroke-width="9.72" stroke-linejoin="bevel" points="4084.96,445.896 4084.96,667.836"/>
<polyline class="BarLine" fill="none" stroke="#000000" stroke-width="29.70" stroke-linejoin="bevel" points="4122.76,445.896 4122.76,667.836"/>
<polyline class="Stem" fill="none" stroke="#000000" stroke-width="5.94" stroke-linejoin="bevel" points="917.957,483.124 917.957,664.866"/>
<polyline class="Stem" fill="none" stroke="#000000" stroke-width="5.94" stroke-linejoin="bevel" points="1577.09,510.124 1577.09,691.866"/>
<polyline class="Stem" fill="none" stroke="#000000" stroke-width="5.94" stroke-linejoin="bevel" points="1906.65,537.124 1906.65,678.366"/>
<polyline class="Stem" fill="none" stroke="#000000" stroke-width="5.94" stroke-linejoin="bevel" points="2351.89,510.124 2351.89,664.866"/>
<polyline class="Stem" fill="none" stroke="#000000" stroke-width="5.94" stroke-linejoin="bevel" points="2797.12,564.124 2797.12,725.616"/>
<path class="Note" transform="matrix(2.16,0,0,2.16,914.987,475.866)" d="M31.5,-8.09375 C29.7031,-11.4063 25.9063,-13.2031 21.2969,-13.2031 C17.9063,-13.2031 14.2031,-12.2031 10.5938,-10.2969 C4,-6.79688 0,-0.90625 0,4.20313 C0,5.59375 0.296875,7 1,8.29688 C2.79688,11.5938 6.59375,13.2969 11.2031,13.2969 C14.5938,13.2969 18.2969,12.4063 21.9063,10.5 C28.5,7 32.5,1.09375 32.5,-4 C32.5,-5.40625 32.2031,-6.79688 31.5,-8.09375"/>
<path class="Note" transform="matrix(2.16,0,0,2.16,1574.12,502.866)" d="M31.5,-8.09375 C29.7031,-11.4063 25.9063,-13.2031 21.2969,-13.2031 C17.9063,-13.2031 14.2031,-12.2031 10.5938,-10.2969 C4,-6.79688 0,-0.90625 0,4.20313 C0,5.59375 0.296875,7 1,8.29688 C2.79688,11.5938 6.59375,13.2969 11.2031,13.2969 C14.5938,13.2969 18.2969,12.4063 21.9063,10.5 C28.5,7 32.5,1.09375 32.5,-4 C32.5,-5.40625 32.2031,-6.79688 31.5,-8.09375"/>
<path class="Note" transform="matrix(2.16,0,0,2.16,1903.68,529.866)" d="M31.5,-8.09375 C29.7031,-11.4063 25.9063,-13.2031 21.2969,-13.2031 C17.9063,-13.2031 14.2031,-12.2031 10.5938,-10.2969 C4,-6.79688 0,-0.90625 0,4.20313 C0,5.59375 0.296875,7 1,8.29688 C2.79688,11.5938 6.59375,13.2969 11.2031,13.2969 C14.5938,13.2969 18.2969,12.4063 21.9063,10.5 C28.5,7 32.5,1.09375 32.5,-4 C32.5,-5.40625 32.2031,-6.79688 31.5,-8.09375"/>
<path class="Note" transform="matrix(2.16,0,0,2.16,2348.92,502.866)" d="M31.5,-8.09375 C29.7031,-11.4063 25.9063,-13.2031 21.2969,-13.2031 C17.9063,-13.2031 14.2031,-12.2031 10.5938,-10.2969 C4,-6.79688 0,-0.90625 0,4.20313 C0,5.59375 0.296875,7 1,8.29688 C2.79688,11.5938 6.59375,13.2969 11.2031,13.2969 C14.5938,13.2969 18.2969,12.4063 21.9063,10.5 C28.5,7 32.5,1.09375 32.5,-4 C32.5,-5.40625 32.2031,-6.79688 31.5,-8.09375"/>
<path class="Note" transform="matrix(2.16,0,0,2.16,2794.15,556.866)" d="M31.5,-8.09375 C29.7031,-11.4063 25.9063,-13.2031 21.2969,-13.2031 C17.9063,-13.2031 14.2031,-12.2031 10.5938,-10.2969 C4,-6.79688 0,-0.90625 0,4.20313 C0,5.59375 0.296875,7 1,8.29688 C2.79688,11.5938 6.59375,13.2969 11.2031,13.2969 C14.5938,13.2969 18.2969,12.4063 21.9063,10.5 C28.5,7 32.5,1.09375 32.5,-4 C32.5,-5.40625 32.2031,-6.79688 31.5,-8.09375"/>
<path class="Clef" transform="matrix(2.16,0,0,2.16,362.466,502.866)" d="M25.4063,-25.0938 C17.7969,-25.0938 11.7031,-20.7031 11.5938,-20.7031 C5.79688,-16.4063 3.5,-11.2969 2.59375,-7.79688 C2.09375,-6 1.90625,-4.20313 1.90625,-2.5 C1.90625,-0.09375 2.29688,2.09375 3.20313,4 C4.40625,6.70313 6.70313,8.59375 9.70313,9.59375 C10.9063,10 12.2031,10.2031 13.5,10.2031 C15.7031,10.2031 18,9.59375 19.9063,8.5 C23,6.79688 24.9063,3.20313 24.9063,-0.703125 C24.9063,-4.20313 23.0938,-7.40625 20.0938,-9.29688 C18,-10.7031 16,-11.0938 14.2969,-11.0938 C13.0938,-11.0938 12,-10.9063 11.0938,-10.5938 C10.0938,-10.2031 8.40625,-9.20313 7.59375,-8.5 C7.90625,-10.4063 9.09375,-13.2969 10.2031,-14.9063 C11.2969,-16.5 13.5,-18.5 15.2031,-19.4063 C17.7031,-20.7969 20.9063,-21.4063 24.4063,-21.4063 C34.6094,-21.4063 39.6094,-13.2031 39.6094,3.59375 C39.6094,12.9063 36.1094,21.7969 33.1094,27.7031 C29.7969,34.2969 25.4063,40.6094 21.5,44.1094 C11.0938,53.6094 1.29688,58.1094 1.20313,58.1094 C1.20313,58.1094 -0.296875,59 0.09375,60.5 C0.40625,61.5 1.29688,61.7031 1.90625,61.7031 C2,61.7031 2.29688,61.6094 2.40625,61.6094 C2.5,61.6094 13.9063,56.9063 23,49.7969 C28.1094,46.1094 32.7031,42.1094 36.7031,37.7969 C40.2969,33.9063 43.4063,29.7031 45.9063,25.5 C50.2969,18 52.7969,10.2031 52.7969,3.5 C52.7969,-4.79688 50.6094,-11.7031 46.5,-16.5938 C41.7969,-22.2031 34.7031,-25.0938 25.4063,-25.0938 M56.7969,-12.4063 C56.7969,-9.59375 59,-7.40625 61.6094,-7.40625 C64.2031,-7.40625 66.4063,-9.59375 66.4063,-12.4063 C66.4063,-15.2031 64.2031,-17.5 61.6094,-17.5 C59,-17.5 56.7969,-15.2031 56.7969,-12.4063 M56.7969,12.2969 C56.7969,15.0938 59,17.4063 61.6094,17.4063 C64.2031,17.4063 66.4063,15.0938 66.4063,12.2969 C66.4063,9.5 64.2031,7.20313 61.6094,7.20313 C59,7.20313 56.7969,9.5 56.7969,12.2969"/>
<path class="KeySig" transform="matrix(2.16,0,0,2.16,808.287,502.866)" d="M23.2969,-10.5938 C23.9063,-10.7031 24.4063,-11.4063 24.4063,-12 L24.4063,-17.9063 C24.4063,-18.7031 23.7969,-19.2969 23,-19.2969 L22.7969,-19.2969 L19.5,-18.5938 L19.5,-33.5 L16.7031,-33.5 L16.7031,-18 L7.79688,-16.2031 L7.79688,-30.2969 L5,-30.2969 L5,-15.5938 L1.09375,-14.7969 C0.5,-14.7031 0,-14 0,-13.4063 L0,-13.2031 L0,-7.40625 L0,-7.59375 C0,-6.79688 0.59375,-6.20313 1.40625,-6.20313 L1.70313,-6.20313 L5,-6.90625 L5,9.59375 L1.09375,10.4063 C0.5,10.5 0,11.2031 0,11.7969 L0,17.5938 C0,18.4063 0.59375,19 1.40625,19 L1.70313,19 L5,18.2969 L5,33.2031 L7.79688,33.2031 L7.79688,17.7031 L16.7031,15.9063 L16.7031,30 L19.5,30 L19.5,15.2969 L23.2969,14.5938 C23.9063,14.5 24.4063,13.7969 24.4063,13.2031 L24.4063,7.29688 C24.4063,6.5 23.7969,5.90625 23,5.90625 L22.7969,5.90625 L19.5,6.59375 L19.5,-9.90625 L23.2969,-10.5938 M7.79688,9.09375 L7.79688,-7.5 L16.7031,-9.29688 L16.7031,7.20313 L7.79688,9.09375 "/>
<path class="Rest" transform="matrix(2.16,0,0,2.16,1244.55,556.866)" d="M26.7344,-20.2656 C25.9844,-20.5469 25.3125,-20.2031 24.9844,-19.5938 C24.6563,-18.9844 21.4688,-13.0625 17.0469,-9.79688 C15.6563,-8.78125 14.0625,-8.14063 12.5,-7.8125 C13.625,-9.0625 14.2969,-10.7344 14.2969,-12.5469 C14.2969,-16.5 11.0938,-19.7031 7.15625,-19.7031 C3.20313,-19.7031 0,-16.5 0,-12.5469 C0,-9.54688 1.875,-6.95313 4.51563,-5.90625 C6.04688,-5.1875 7.95313,-4.73438 10,-4.73438 C12.8438,-4.73438 15.9531,-5.5625 18.6719,-7.5625 C19.9375,-8.48438 21.125,-9.6875 22.2031,-10.9375 L10.8125,24.6875 L13.4531,25.5469 L27.5313,-18.5469 C27.7656,-19.2813 27.4688,-19.9688 26.7344,-20.2656"/>
<path class="Rest" transform="matrix(2.16,0,0,2.16,3437.12,556.866)" d="M23.2031,16.9063 L23,16.5938 C22.9063,16.5 22.7031,16.2969 22.4063,15.9063 L10.9063,1.70313 C10.5938,1.40625 10.7031,0.59375 10.9063,0.203125 L21.0938,-15.2031 C21.2031,-15.4063 21.2969,-15.7031 21.2969,-15.9063 L21.2969,-16.7969 C21.2969,-17.0938 21.2031,-17.4063 21,-17.5938 L4.79688,-39.5 C4.79688,-39.5 4,-40.7031 3,-39.7969 C2,-39 2.79688,-37.7031 2.79688,-37.7031 L10.4063,-27.2969 C10.7969,-26.7031 10.7969,-25.5 10.4063,-24.9063 L0.296875,-9.5 C0.203125,-9.29688 0.09375,-8.90625 0.09375,-8.70313 L0.09375,-7.79688 C0.09375,-7.5 0.203125,-7.20313 0.40625,-7 L11.5938,6.90625 C11.2031,6.79688 10.2969,6.59375 9.09375,6.59375 C7.40625,6.59375 5.20313,7 3.40625,8.59375 C1.20313,10.5938 0,13.4063 0,15.9063 C0,17.2969 0.296875,18.7031 1.09375,19.7969 C3.20313,23 10.7031,32.5 10.7031,32.5 C10.7031,32.5 11.5938,33.6094 12.5,32.9063 C13.4063,32.2031 13.2031,31.2969 12.9063,30.7969 C12.5938,30.2969 9.40625,24.5 9.40625,24.5 C9.40625,24.5 8.70313,23.0938 8.70313,21.2969 C8.70313,20 9.09375,18.4063 10.4063,17.0938 C11.5938,15.9063 13,15.5 14.2969,15.5 C15.5938,15.5 16.7031,15.9063 17.5,16.4063 L21.4063,18.9063 C21.4063,18.9063 22.5938,19.5 23.2031,18.5938 C23.7031,17.7969 23.5,17.4063 23.2031,16.9063"/>
<path class="Articulation" transform="matrix(2.16,0,0,2.16,941.675,430.287)" d="M1.14063,-1.14063 C2.67188,0.390625 5.14063,0.390625 6.65625,-1.14063 C8.1875,-2.65625 8.1875,-5.125 6.65625,-6.65625 C5.14063,-8.17188 2.67188,-8.17188 1.14063,-6.65625 C-0.375,-5.125 -0.375,-2.65625 1.14063,-1.14063"/>
<path class="Articulation" transform="matrix(2.16,0,0,2.16,1600.8,430.287)" d="M1.14063,-1.14063 C2.67188,0.390625 5.14063,0.390625 6.65625,-1.14063 C8.1875,-2.65625 8.1875,-5.125 6.65625,-6.65625 C5.14063,-8.17188 2.67188,-8.17188 1.14063,-6.65625 C-0.375,-5.125 -0.375,-2.65625 1.14063,-1.14063"/>
<path class="Articulation" transform="matrix(2.16,0,0,2.16,1930.37,484.287)" d="M1.14063,-1.14063 C2.67188,0.390625 5.14063,0.390625 6.65625,-1.14063 C8.1875,-2.65625 8.1875,-5.125 6.65625,-6.65625 C5.14063,-8.17188 2.67188,-8.17188 1.14063,-6.65625 C-0.375,-5.125 -0.375,-2.65625 1.14063,-1.14063"/>
<path class="Articulation" transform="matrix(2.16,0,0,2.16,2820.84,484.287)" d="M1.14063,-1.14063 C2.67188,0.390625 5.14063,0.390625 6.65625,-1.14063 C8.1875,-2.65625 8.1875,-5.125 6.65625,-6.65625 C5.14063,-8.17188 2.67188,-8.17188 1.14063,-6.65625 C-0.375,-5.125 -0.375,-2.65625 1.14063,-1.14063"/>
<path class="Beam" fill-rule="evenodd" d="M1903.68,664.86 L2354.86,651.18 L2354.86,678.192 L1903.68,691.872 L1903.68,664.86 "/>
<path class="Hook" transform="matrix(2.16,0,0,2.16,914.987,664.866)" d="M2.5,0.40625 C2.5,0.203125 3.40625,-3.20313 3.5,-3.5 C3.59375,-3.90625 5.40625,-9.59375 9.09375,-15.2969 C11.7969,-19.5 21.2969,-31.7969 21,-31.7969 C21,-31.7969 28.4063,-41.2969 28.9063,-54.2031 L28.9063,-56.5 C28.9063,-62.6094 28.1094,-71.2031 24.5938,-79.9063 C24.2031,-80.9063 23.7969,-81.9063 22.7031,-81.5 C21.5938,-81.1094 21.9063,-79.9063 22.2031,-78.8125 C24,-71.7969 25,-64.6094 25,-57.4063 C25,-49 22,-44.7969 20.2031,-41.7031 C13.5938,-30.6094 5,-25.2031 0.796875,-23.7969 C0.296875,-23.5938 0,-23.2031 0,-22.7031 L0,-16.5 L0,-0.09375 C0,0.59375 0.59375,1.20313 1.29688,1.20313 C1.79688,1.20313 2.40625,0.796875 2.5,0.40625"/>
<path class="Hook" transform="matrix(2.16,0,0,2.16,1574.12,691.866)" d="M2.5,0.40625 C2.5,0.203125 3.40625,-3.20313 3.5,-3.5 C3.59375,-3.90625 5.40625,-9.59375 9.09375,-15.2969 C11.7969,-19.5 21.2969,-31.7969 21,-31.7969 C21,-31.7969 28.4063,-41.2969 28.9063,-54.2031 L28.9063,-56.5 C28.9063,-62.6094 28.1094,-71.2031 24.5938,-79.9063 C24.2031,-80.9063 23.7969,-81.9063 22.7031,-81.5 C21.5938,-81.1094 21.9063,-79.9063 22.2031,-78.8125 C24,-71.7969 25,-64.6094 25,-57.4063 C25,-49 22,-44.7969 20.2031,-41.7031 C13.5938,-30.6094 5,-25.2031 0.796875,-23.7969 C0.296875,-23.5938 0,-23.2031 0,-22.7031 L0,-16.5 L0,-0.09375 C0,0.59375 0.59375,1.20313 1.29688,1.20313 C1.79688,1.20313 2.40625,0.796875 2.5,0.40625"/>
<path class="Fingering" d="M963.641,110.473 L912.313,181.911 L912.313,190.364 L954.735,190.364 L954.735,198.208 C954.735,205.911 954.735,206.223 953.829,207.567 C952.626,209.239 949.751,209.692 941.141,209.692 L939.485,209.692 L939.485,216.786 L983.579,216.786 L983.579,209.692 L982.969,209.692 C974.376,209.692 971.501,209.239 970.298,207.567 C969.391,206.223 969.391,206.067 969.391,198.208 L969.391,190.364 L987.657,190.364 L987.657,181.911 L969.391,181.911 L969.391,140.677 C969.391,121.802 969.391,121.348 970.141,110.473 L963.641,110.473 M954.735,181.911 L921.516,181.911 L954.735,136.145 L954.735,181.911 "/>
<path class="Fingering" d="M1592.97,155.632 C1601.13,157.585 1605.21,158.194 1611.24,158.194 C1624.08,158.194 1633.44,153.819 1638.43,145.35 C1640.08,142.632 1640.69,141.132 1640.69,139.913 C1640.69,139.007 1640.38,138.554 1639.47,138.554 C1639.02,138.554 1638.43,138.71 1637.52,139.163 C1630.11,142.335 1626.19,143.085 1617.43,143.085 C1607.77,143.085 1601.72,142.179 1586.33,138.554 C1585.72,151.241 1584.36,167.397 1582.25,186.132 C1579.08,189.444 1578.02,191.413 1578.02,193.835 C1578.02,196.991 1579.99,198.96 1582.85,198.96 C1586.79,198.96 1589.05,195.788 1589.65,189.757 C1594.94,185.975 1599.91,184.319 1605.96,184.319 C1619.55,184.319 1627.55,194.585 1627.55,211.944 C1627.55,222.069 1624.99,230.679 1620.46,235.35 C1617.43,238.522 1611.24,240.632 1605.05,240.632 C1595.99,240.632 1586.63,235.96 1586.63,231.272 C1586.63,230.225 1587.54,229.007 1589.35,227.96 C1594.04,225.085 1595.4,223.116 1595.4,219.038 C1595.4,213.757 1591.32,209.679 1585.88,209.679 C1579.83,209.679 1575,215.272 1575,222.366 C1575,229.913 1579.38,237.46 1586.18,242.147 C1591.32,245.475 1597.35,247.132 1605.35,247.132 C1629.07,247.132 1644,233.241 1644,211.038 C1644,190.507 1630.43,176.772 1609.88,176.772 C1603.4,176.772 1598.71,177.819 1590.41,181.288 L1592.97,155.632 "/>
<path class="Fingering" d="M1974.02,275.257 L1967.38,275.257 L1965.87,282.944 C1963.91,292.772 1962.71,293.679 1953.34,293.679 L1919.52,293.679 C1929.93,282.804 1933.41,279.632 1943.07,272.085 C1956.82,261.507 1962.71,256.225 1966.18,251.694 C1971.01,245.054 1973.43,238.413 1973.43,231.007 C1973.43,213.788 1959.23,201.554 1939.44,201.554 C1920.27,201.554 1905.63,213.788 1905.63,229.944 C1905.63,239.46 1910.46,245.96 1917.55,245.96 C1923.15,245.96 1926.91,242.179 1926.91,236.741 C1926.91,232.975 1924.8,229.491 1921.63,228.132 C1916.04,225.866 1915.74,225.569 1915.74,223.6 C1915.74,221.335 1917.26,217.866 1919.37,215.304 C1923.15,210.616 1929.34,208.054 1936.43,208.054 C1948.96,208.054 1956.37,215.757 1956.37,228.444 C1956.37,239.616 1951.07,249.725 1938.54,263.022 C1927.37,274.804 1920.43,282.194 1917.85,285.069 C1912.41,291.413 1909.69,294.882 1903.05,303.632 L1903.05,307.866 L1971.16,307.866 L1974.02,275.257 "/>
<path class="Fingering" d="M2367.77,155.632 C2375.93,157.585 2380.01,158.194 2386.04,158.194 C2398.88,158.194 2408.24,153.819 2413.23,145.35 C2414.88,142.632 2415.49,141.132 2415.49,139.913 C2415.49,139.007 2415.18,138.554 2414.27,138.554 C2413.82,138.554 2413.23,138.71 2412.32,139.163 C2404.91,142.335 2400.99,143.085 2392.23,143.085 C2382.57,143.085 2376.52,142.179 2361.13,138.554 C2360.52,151.241 2359.16,167.397 2357.05,186.132 C2353.88,189.444 2352.82,191.413 2352.82,193.835 C2352.82,196.991 2354.79,198.96 2357.65,198.96 C2361.59,198.96 2363.85,195.788 2364.44,189.757 C2369.74,185.975 2374.71,184.319 2380.76,184.319 C2394.35,184.319 2402.35,194.585 2402.35,211.944 C2402.35,222.069 2399.79,230.679 2395.26,235.35 C2392.23,238.522 2386.04,240.632 2379.85,240.632 C2370.79,240.632 2361.43,235.96 2361.43,231.272 C2361.43,230.225 2362.34,229.007 2364.15,227.96 C2368.84,225.085 2370.19,223.116 2370.19,219.038 C2370.19,213.757 2366.12,209.679 2360.68,209.679 C2354.63,209.679 2349.8,215.272 2349.8,222.366 C2349.8,229.913 2354.18,237.46 2360.98,242.147 C2366.12,245.475 2372.15,247.132 2380.15,247.132 C2403.87,247.132 2418.8,233.241 2418.8,211.038 C2418.8,190.507 2405.23,176.772 2384.68,176.772 C2378.19,176.772 2373.51,177.819 2365.21,181.288 L2367.77,155.632 "/>
<path class="Fingering" d="M2842.8,261.554 L2791.48,332.991 L2791.48,341.444 L2833.9,341.444 L2833.9,349.288 C2833.9,356.991 2833.9,357.304 2832.99,358.647 C2831.79,360.319 2828.91,360.772 2820.3,360.772 L2818.65,360.772 L2818.65,367.866 L2862.74,367.866 L2862.74,360.772 L2862.13,360.772 C2853.54,360.772 2850.66,360.319 2849.46,358.647 C2848.55,357.304 2848.55,357.147 2848.55,349.288 L2848.55,341.444 L2866.82,341.444 L2866.82,332.991 L2848.55,332.991 L2848.55,291.757 C2848.55,272.882 2848.55,272.429 2849.3,261.554 L2842.8,261.554 M2833.9,332.991 L2800.68,332.991 L2833.9,287.225 L2833.9,332.991 "/>
<path class="Tuplet" d="M1288.13,749.724 C1292.67,748.27 1294.52,747.505 1296.85,745.942 C1301.41,742.942 1304.22,737.599 1304.22,732.177 C1304.22,722.958 1296.85,716.755 1285.99,716.755 C1275.41,716.755 1266.49,723.349 1266.49,731.302 C1266.49,735.27 1268.92,737.989 1272.6,737.989 C1275.8,737.989 1278.13,735.661 1278.13,732.458 C1278.13,730.817 1277.64,729.645 1276.1,728.099 C1275.13,727.224 1274.74,726.552 1274.74,725.864 C1274.74,723.536 1279.58,721.114 1284.14,721.114 C1290.64,721.114 1294.52,724.708 1294.52,730.724 C1294.52,739.349 1288.41,747.505 1281.91,747.505 C1281.63,747.505 1280.75,747.395 1279.69,747.302 C1276.88,747.114 1276.88,747.114 1276.28,747.114 C1274.16,747.114 1272.99,748.083 1272.99,749.817 C1272.99,751.38 1274.07,752.349 1275.8,752.349 C1276.28,752.349 1276.97,752.255 1277.74,752.145 C1279.1,751.864 1280.55,751.77 1281.42,751.77 C1285.99,751.77 1289.1,755.833 1289.1,761.849 C1289.1,766.505 1288.03,770.974 1285.89,774.661 C1282.99,779.895 1278.52,782.411 1272.22,782.411 C1266.78,782.411 1262.13,779.708 1262.13,776.599 C1262.13,775.536 1262.52,775.145 1264.07,774.458 C1266.88,773.208 1268.05,771.458 1268.05,768.833 C1268.05,765.442 1265.33,762.817 1261.83,762.817 C1257.66,762.817 1254.96,766.114 1254.96,771.161 C1254.96,780.567 1262.13,786.489 1273.77,786.489 C1288.41,786.489 1299.57,776.692 1299.57,763.692 C1299.57,760.208 1298.5,757.192 1296.47,754.77 C1294.33,752.255 1292.39,751.083 1288.13,749.724"/>
<polyline class="Tuplet" fill="none" stroke="#000000" stroke-width="5.40" stroke-linecap="square" stroke-linejoin="bevel" points="914.987,697.536 914.987,738.036 1227.14,749.592"/>
<polyline class="Tuplet" fill="none" stroke="#000000" stroke-width="5.40" stroke-linecap="square" stroke-linejoin="bevel" points="1332.14,753.48 1644.3,765.036 1644.3,724.536"/>
<path class="Page" d="M96.0938,96.241 L95.4844,98.991 C94.9844,101.194 94.6563,101.897 94.2188,102.178 C93.6719,102.569 93.5625,102.569 90.0938,102.616 L79.4844,102.616 C81.4063,100.96 82.8438,99.9285 84.9844,98.491 C92.7344,93.491 94.3281,92.2722 95.9219,90.241 C97.7969,87.7722 98.8906,84.8504 98.8906,82.2722 C98.8906,76.3816 93.125,71.9285 85.375,71.9285 C77.8906,71.9285 72.1094,76.7722 72.1094,83.0379 C72.1094,86.8816 74.2656,89.366 77.5625,89.366 C80.4219,89.366 82.2344,87.5535 82.2344,84.6941 C82.2344,82.3191 81.1875,80.9441 78.6563,79.741 C78.0469,79.4597 77.7813,79.1316 77.7813,78.6941 C77.7813,76.9285 80.75,75.0691 83.5,75.0691 C87.3438,75.0691 89.5469,77.4285 89.5469,81.5066 C89.5469,86.0691 87.7813,89.3035 81.9531,95.5222 C75.7969,102.069 73.6563,104.538 70.9063,108.507 L70.9063,111.085 C72.3281,110.928 72.9375,110.866 73.7656,110.866 L94.4375,110.866 C95.4844,110.866 96.1406,110.928 97.7969,111.085 L99.0625,96.241 L96.0938,96.241 "/>
</svg>
