<?xml version="1.0" encoding="UTF-8" standalone="no"?>
<svg width="4208.47px" height="2409.45px" viewBox="0 0 4208.47 2409.45"
 xmlns="http://www.w3.org/2000/svg" xmlns:xlink="http://www.w3.org/1999/xlink" version="1.2" baseProfile="tiny">
<title>PETE PIRATA (2)</title>
<desc>Generated by MuseScore 3.6.2</desc>
<polyline class="StaffLines" fill="none" stroke="#000000" stroke-width="2.53" stroke-linejoin="bevel" points="70.866,304.826 4137.61,304.826"/>
<polyline class="StaffLines" fill="none" stroke="#000000" stroke-width="2.53" stroke-linejoin="bevel" points="70.866,327.826 4137.61,327.826"/>
<polyline class="StaffLines" fill="none" stroke="#000000" stroke-width="2.53" stroke-linejoin="bevel" points="70.866,350.826 4137.61,350.826"/>
<polyline class="StaffLines" fill="none" stroke="#000000" stroke-width="2.53" stroke-linejoin="bevel" points="70.866,373.826 4137.61,373.826"/>
<polyline class="StaffLines" fill="none" stroke="#000000" stroke-width="2.53" stroke-linejoin="bevel" points="70.866,396.826 4137.61,396.826"/>
<path class="MeasureNumber" d="M75.3504,243.514 C74.1004,244.264 73.741,244.748 73.741,245.545 C73.741,246.311 74.3816,246.873 75.1785,246.873 C76.2254,246.873 76.8191,246.107 76.9441,244.623 C78.1785,243.623 79.5066,243.186 81.1004,243.186 C84.0691,243.186 85.7097,245.029 85.7097,248.342 C85.7097,253.545 82.3504,257.779 78.2254,257.779 C75.866,257.779 73.9441,256.67 73.9441,255.342 C73.9441,255.107 73.991,255.029 74.1785,254.904 C75.2254,254.42 75.2254,254.42 75.5066,254.232 C76.1472,253.748 76.5066,253.029 76.5066,252.186 C76.5066,250.904 75.5066,249.951 74.1004,249.951 C72.3504,249.951 71.0222,251.42 71.0222,253.342 C71.0222,256.873 74.0691,259.42 78.3504,259.42 C84.8191,259.42 90.0691,254.264 90.0691,247.873 C90.0691,243.826 86.991,240.982 82.6316,240.982 C80.8972,240.982 79.5066,241.342 77.5847,242.311 L79.8191,234.748 C81.9441,235.186 83.6316,235.389 85.0691,235.389 C87.7097,235.389 90.0691,234.545 91.3816,233.154 C92.0691,232.357 92.4597,231.67 92.4597,231.154 C92.4597,230.904 92.3347,230.67 92.1785,230.67 C92.0691,230.67 91.9754,230.717 91.741,230.826 C90.4285,231.467 88.741,231.826 87.1785,231.826 C84.7879,231.826 81.9441,231.436 78.991,230.67 L75.3504,243.514 M108.819,245.154 C108.132,248.311 107.413,250.232 106.257,252.467 C104.303,256.107 102.225,257.748 99.4129,257.748 C98.2566,257.748 97.5066,257.264 97.5066,256.545 C97.5066,256.264 97.5847,256.154 97.8972,255.67 C98.3035,255.154 98.5066,254.67 98.5066,254.107 C98.5066,252.795 97.4597,251.795 96.1004,251.795 C94.5066,251.795 93.3816,252.982 93.3816,254.748 C93.3816,257.467 95.9441,259.42 99.5066,259.42 C102.694,259.42 105.663,258.029 108.1,255.232 C111.585,251.342 113.85,245.545 113.85,240.623 C113.85,234.389 110.85,230.67 105.897,230.67 C102.944,230.67 100.178,231.998 98.3347,234.264 C96.5379,236.467 95.5066,239.264 95.5066,241.873 C95.5066,245.67 98.4129,248.545 102.303,248.545 C104.944,248.545 106.975,247.467 108.819,245.154 M105.866,232.357 C108.413,232.357 110.053,234.389 110.053,237.592 C110.053,242.545 107.335,246.186 103.663,246.186 C101.132,246.186 99.741,244.467 99.741,241.467 C99.741,239.107 100.303,236.982 101.382,235.186 C102.585,233.264 104.022,232.357 105.866,232.357"/>
<path class="TieSegment" stroke="#000000" stroke-width="1.61" stroke-linecap="round" stroke-linejoin="round" fill-rule="evenodd" d="M1660.78,299.076 C1757.78,265.956 2048.76,265.956 2145.75,299.076 C2048.76,272.396 1757.78,272.396 1660.78,299.076"/>
<path class="TieSegment" stroke="#000000" stroke-width="1.61" stroke-linecap="round" stroke-linejoin="round" fill-rule="evenodd" d="M2738.47,299.076 C2798.28,265.956 2977.7,265.956 3037.51,299.076 C2977.7,272.396 2798.28,272.396 2738.47,299.076"/>
<polyline class="BarLine" stroke="#000000" stroke-width="4.14" stroke-linejoin="bevel" points="1545.4,303.561 1545.4,398.091"/>
<polyline class="BarLine" stroke="#000000" stroke-width="4.14" stroke-linejoin="bevel" points="2945.63,303.561 2945.63,398.091"/>
<polyline class="BarLine" stroke="#000000" stroke-width="4.14" stroke-linejoin="bevel" points="4115.18,303.561 4115.18,398.091"/>
<polyline class="BarLine" stroke="#000000" stroke-width="12.65" stroke-linejoin="bevel" points="4131.28,303.561 4131.28,398.091"/>
<path class="Accidental" transform="matrix(0.920001,0,0,0.920001,1616.93,316.326)" d="M20.0938,-7.90625 C19.5,-11.7969 17.0938,-15.5 12,-15.5 C7,-15.5 4.09375,-12.4063 3.59375,-11.7969 L4,-43.9063 C4,-44.7031 3.40625,-45.2969 2.59375,-45.2969 L1.40625,-45.2969 C0.59375,-45.2969 0,-44.7031 0,-43.9063 L0.5,16.2031 C0.5,17 1.09375,17.5938 1.90625,17.5938 C2.09375,17.5938 2.5,17.5 2.70313,17.4063 C3.09375,17.2031 9.59375,14 15,7.90625 C18.7969,3.59375 20.2969,-1.29688 20.2969,-5.40625 C20.2969,-6.29688 20.2031,-7.09375 20.0938,-7.90625 M13.2031,-4 C13.2031,-2.5 12.7969,2.09375 10.2969,5.90625 C8.59375,8.5 5.20313,11.2031 3.29688,12.7031 L3.59375,-6.79688 C3.79688,-7.70313 5.29688,-10.5938 9.29688,-10.5938 C12.9063,-10.5938 13.2031,-7.20313 13.2031,-5.09375 L13.2031,-4 "/>
<path class="Accidental" transform="matrix(0.920001,0,0,0.920001,2697.56,316.326)" d="M16.5938,-18.2969 C16.4063,-18.5 16.0938,-18.5938 15.7969,-18.5938 C15.7031,-18.5938 15.5,-18.5 15.4063,-18.5 L2.79688,-15 L2.79688,-32.5 L0,-32.5 L0,17 C0,17.7969 0.59375,18.2969 1.40625,18.2969 L1.79688,18.2969 L14.4063,14.7969 L14.4063,32.2969 L17.0938,32.2969 L17.0938,-17.2031 C17.0938,-17.5938 16.9063,-18.0938 16.5938,-18.2969 M14.4063,6.5 L2.79688,9.70313 L2.79688,-6.70313 L14.4063,-10 L14.4063,6.5 "/>
<polyline class="Stem" stroke="#000000" stroke-width="2.53" stroke-linejoin="bevel" points="366.194,296.417 366.194,373.826"/>
<polyline class="Stem" stroke="#000000" stroke-width="2.53" stroke-linejoin="bevel" points="889.926,307.917 889.926,373.826"/>
<polyline class="Stem" stroke="#000000" stroke-width="2.53" stroke-linejoin="bevel" points="1217.26,319.417 1217.26,379.576"/>
<polyline class="Stem" stroke="#000000" stroke-width="2.53" stroke-linejoin="bevel" points="1642.62,319.417 1642.62,396.826"/>
<polyline class="Stem" stroke="#000000" stroke-width="2.53" stroke-linejoin="bevel" points="2136.56,319.417 2136.56,391.076"/>
<polyline class="Stem" stroke="#000000" stroke-width="2.53" stroke-linejoin="bevel" points="2361.08,307.917 2361.08,391.076"/>
<polyline class="Stem" stroke="#000000" stroke-width="2.53" stroke-linejoin="bevel" points="2720.31,319.417 2720.31,391.076"/>
<polyline class="Stem" stroke="#000000" stroke-width="2.53" stroke-linejoin="bevel" points="3028.31,319.417 3028.31,396.826"/>
<path class="Note" transform="matrix(0.920001,0,0,0.920001,364.929,293.326)" d="M31.5,-8.09375 C29.7031,-11.4063 25.9063,-13.2031 21.2969,-13.2031 C17.9063,-13.2031 14.2031,-12.2031 10.5938,-10.2969 C4,-6.79688 0,-0.90625 0,4.20313 C0,5.59375 0.296875,7 1,8.29688 C2.79688,11.5938 6.59375,13.2969 11.2031,13.2969 C14.5938,13.2969 18.2969,12.4063 21.9063,10.5 C28.5,7 32.5,1.09375 32.5,-4 C32.5,-5.40625 32.2031,-6.79688 31.5,-8.09375"/>
<path class="Note" transform="matrix(0.920001,0,0,0.920001,888.661,304.826)" d="M31.5,-8.09375 C29.7031,-11.4063 25.9063,-13.2031 21.2969,-13.2031 C17.9063,-13.2031 14.2031,-12.2031 10.5938,-10.2969 C4,-6.79688 0,-0.90625 0,4.20313 C0,5.59375 0.296875,7 1,8.29688 C2.79688,11.5938 6.59375,13.2969 11.2031,13.2969 C14.5938,13.2969 18.2969,12.4063 21.9063,10.5 C28.5,7 32.5,1.09375 32.5,-4 C32.5,-5.40625 32.2031,-6.79688 31.5,-8.09375"/>
<path class="Note" transform="matrix(0.920001,0,0,0.920001,1215.99,316.326)" d="M31.5,-8.09375 C29.7031,-11.4063 25.9063,-13.2031 21.2969,-13.2031 C17.9063,-13.2031 14.2031,-12.2031 10.5938,-10.2969 C4,-6.79688 0,-0.90625 0,4.20313 C0,5.59375 0.296875,7 1,8.29688 C2.79688,11.5938 6.59375,13.2969 11.2031,13.2969 C14.5938,13.2969 18.2969,12.4063 21.9063,10.5 C28.5,7 32.5,1.09375 32.5,-4 C32.5,-5.40625 32.2031,-6.79688 31.5,-8.09375"/>
<path class="Note" transform="matrix(0.920001,0,0,0.920001,1641.35,316.326)" d="M31.5,-8.09375 C29.7031,-11.4063 25.9063,-13.2031 21.2969,-13.2031 C17.9063,-13.2031 14.2031,-12.2031 10.5938,-10.2969 C4,-6.79688 0,-0.90625 0,4.20313 C0,5.59375 0.296875,7 1,8.29688 C2.79688,11.5938 6.59375,13.2969 11.2031,13.2969 C14.5938,13.2969 18.2969,12.4063 21.9063,10.5 C28.5,7 32.5,1.09375 32.5,-4 C32.5,-5.40625 32.2031,-6.79688 31.5,-8.09375"/>
<path class="Note" transform="matrix(0.920001,0,0,0.920001,2135.29,316.326)" d="M31.5,-8.09375 C29.7031,-11.4063 25.9063,-13.2031 21.2969,-13.2031 C17.9063,-13.2031 14.2031,-12.2031 10.5938,-10.2969 C4,-6.79688 0,-0.90625 0,4.20313 C0,5.59375 0.296875,7 1,8.29688 C2.79688,11.5938 6.59375,13.2969 11.2031,13.2969 C14.5938,13.2969 18.2969,12.4063 21.9063,10.5 C28.5,7 32.5,1.09375 32.5,-4 C32.5,-5.40625 32.2031,-6.79688 31.5,-8.09375"/>
<path class="Note" transform="matrix(0.920001,0,0,0.920001,2359.81,304.826)" d="M31.5,-8.09375 C29.7031,-11.4063 25.9063,-13.2031 21.2969,-13.2031 C17.9063,-13.2031 14.2031,-12.2031 10.5938,-10.2969 C4,-6.79688 0,-0.90625 0,4.20313 C0,5.59375 0.296875,7 1,8.29688 C2.79688,11.5938 6.59375,13.2969 11.2031,13.2969 C14.5938,13.2969 18.2969,12.4063 21.9063,10.5 C28.5,7 32.5,1.09375 32.5,-4 C32.5,-5.40625 32.2031,-6.79688 31.5,-8.09375"/>
<path class="Note" transform="matrix(0.920001,0,0,0.920001,2719.04,316.326)" d="M31.5,-8.09375 C29.7031,-11.4063 25.9063,-13.2031 21.2969,-13.2031 C17.9063,-13.2031 14.2031,-12.2031 10.5938,-10.2969 C4,-6.79688 0,-0.90625 0,4.20313 C0,5.59375 0.296875,7 1,8.29688 C2.79688,11.5938 6.59375,13.2969 11.2031,13.2969 C14.5938,13.2969 18.2969,12.4063 21.9063,10.5 C28.5,7 32.5,1.09375 32.5,-4 C32.5,-5.40625 32.2031,-6.79688 31.5,-8.09375"/>
<path class="Note" transform="matrix(0.920001,0,0,0.920001,3027.05,316.326)" d="M31.5,-8.09375 C29.7031,-11.4063 25.9063,-13.2031 21.2969,-13.2031 C17.9063,-13.2031 14.2031,-12.2031 10.5938,-10.2969 C4,-6.79688 0,-0.90625 0,4.20313 C0,5.59375 0.296875,7 1,8.29688 C2.79688,11.5938 6.59375,13.2969 11.2031,13.2969 C14.5938,13.2969 18.2969,12.4063 21.9063,10.5 C28.5,7 32.5,1.09375 32.5,-4 C32.5,-5.40625 32.2031,-6.79688 31.5,-8.09375"/>
<path class="Clef" transform="matrix(0.920001,0,0,0.920001,138.716,373.826)" d="M63.3594,-5.92188 C62.125,-11.3438 59.4844,-15.1719 58.7031,-16.2031 C55.5156,-20.4844 51.5,-23.3281 46.8125,-24.6875 C43.7031,-25.5625 40.7031,-25.6875 38.2813,-25.5 C37.2344,-31.5156 36.2344,-37.3906 35.3281,-42.8438 C40.7813,-49.0156 44.4063,-54.8125 46.6875,-59.1094 C50.1563,-65.6875 51.2969,-70.2656 51.3594,-70.4688 C53.0781,-75.6875 53.4375,-83.3906 52.3281,-91.5938 C51.3281,-99.1406 49.2344,-105.859 46.875,-109.109 C45.8594,-110.531 44.7969,-111.266 43.7656,-111.266 C42.5469,-111.266 40.0313,-110.031 37.1406,-107.25 C34.8438,-105.063 31.5781,-101.172 29.0156,-95.1563 C26.0156,-88.0938 25.7969,-78.6094 26.1563,-71.8906 C26.5313,-64.6094 27.6406,-58.9219 27.6563,-58.875 C27.6719,-58.7813 27.9375,-57.2813 28.375,-54.7188 C28.1563,-54.4844 27.9063,-54.2656 27.6563,-54.0156 C26.625,-53.0156 25.4375,-51.8906 24.0469,-50.5 C23.1875,-49.6406 22.2344,-48.7344 21.2344,-47.7656 C12.7969,-39.625 0,-27.2969 0,-8.14063 C0,-3.4375 0.90625,0.984375 2.6875,5 C4.26563,8.59375 6.5625,11.875 9.5,14.75 C17.2344,22.3125 27.8281,25.5156 34.875,25.3594 C37.8281,25.2813 40.4688,25.0469 42.8594,24.5938 C44.6875,34.2031 45.8281,41.2344 45.8594,46.5781 C45.9063,53.0938 44.25,57.0781 40.3594,59.8438 C37.9219,61.5781 35.1094,62.5313 32.0156,62.6719 C29.4219,62.7969 27.1563,62.3281 25.7344,61.9219 L25.7188,61.9219 C25.7188,61.9219 25.4375,61.8281 25.4219,61.6406 C25.4063,61.4531 25.7656,61.4063 25.7656,61.4063 L25.7969,61.4063 C27.7188,60.9688 31.2813,59.7344 33.6406,56.4375 C35.4375,53.9063 36.3125,49.2813 34.4688,45.3438 C33.3594,42.9531 30.8594,40 25.2344,39.5469 C22.7344,39.3438 20.4688,39.8594 18.4688,41.0625 C16.6563,42.1406 15.1563,43.7813 14.1094,45.7813 C11.6563,50.4844 12.1094,56.2188 15.2344,60.0625 C18.2031,63.6875 22.8125,66 28.25,66.5781 C29.1094,66.6719 29.9531,66.7031 30.7969,66.7031 C35.2344,66.7031 39.625,65.5 43.2031,63.2969 C46.8594,60.7188 48.9844,56.7344 49.6563,51.1094 C50.2188,46.4688 49.8281,40.5469 48.4375,32.4688 C48.0781,30.375 47.5313,27.3438 46.875,23.5938 C52.625,21.6719 56.7813,18.0938 60.5469,12.2344 C63.8438,6.5 64.7813,0.390625 63.3594,-5.92188 M29.1406,20.2969 C24.5,19.0781 20.0625,16.5781 16.3125,13.0625 C15,11.8438 13.125,9.67188 11.6563,6.28125 C10.2969,3.10938 9.625,-0.328125 9.6875,-3.90625 C9.75,-8.60938 11.0625,-13.4375 13.5625,-18.2188 C16.4844,-23.7969 21.0469,-29.3281 27.1094,-34.6563 C28.5625,-35.9375 29.9375,-37.2188 31.2188,-38.5 C31.9844,-34.2344 32.8125,-29.5469 33.6875,-24.6719 C29.8438,-23.4063 25.0938,-20.25 21.9844,-14.5938 C18.4375,-8.03125 18.5781,-2.5 19.3125,0.984375 C20.25,5.4375 22.7813,9.20313 26.2344,11.2969 C27.1719,11.8594 31.2969,13.9844 33.1406,13.4063 C33.5156,13.2969 33.7813,13.0625 33.9219,12.7344 C34.4375,11.5625 33.4063,10.9219 31.8594,9.96875 C31.25,9.59375 30.5781,9.17188 29.8594,8.64063 C26.5313,6.15625 25.0781,1.70313 26.1563,-2.6875 C26.7344,-5.07813 28.0156,-7.25 29.8594,-8.95313 C31.5156,-10.5 33.5625,-11.5938 35.9375,-12.2344 C37.9844,-0.984375 40.0469,10.1719 41.6875,18.5313 C41.8125,19.2188 41.9531,19.8906 42.0781,20.5625 C37.7031,21.5 33.3594,21.4063 29.1406,20.2969 M40.4688,-12.9063 C50.8125,-13.375 55.0781,-5.9375 55.9688,-1.10938 C56.4375,1.4375 56.4375,5.875 54.8906,10.0938 C53.7188,13.2656 51.2656,17.3438 46.125,19.4063 C46.0625,18.9844 45.9844,18.5469 45.9063,18.125 C44.3594,9.34375 42.4219,-1.65625 40.4688,-12.9063 M33.1406,-83.8594 C34.9219,-89.5938 37.6563,-92.8438 39.6563,-94.5781 C41.4063,-96.0938 43.0469,-96.8125 43.9688,-96.8125 C44.1094,-96.8125 44.2344,-96.7813 44.3281,-96.75 C44.7969,-96.6094 45.3281,-96.0469 45.7969,-95.1719 C48.1094,-90.8906 47.3594,-84.1719 46.0156,-79.7344 C44.3906,-74.3281 41.4688,-68.7188 32.6719,-59.1094 C32.5,-60.2188 32.3438,-61.2656 32.1875,-62.25 C30.9375,-70.5313 31.2656,-77.8125 33.1406,-83.8594"/>
<path class="KeySig" transform="matrix(0.920001,0,0,0.920001,270.032,304.826)" d="M23.2969,-10.5938 C23.9063,-10.7031 24.4063,-11.4063 24.4063,-12 L24.4063,-17.9063 C24.4063,-18.7031 23.7969,-19.2969 23,-19.2969 L22.7969,-19.2969 L19.5,-18.5938 L19.5,-33.5 L16.7031,-33.5 L16.7031,-18 L7.79688,-16.2031 L7.79688,-30.2969 L5,-30.2969 L5,-15.5938 L1.09375,-14.7969 C0.5,-14.7031 0,-14 0,-13.4063 L0,-13.2031 L0,-7.40625 L0,-7.59375 C0,-6.79688 0.59375,-6.20313 1.40625,-6.20313 L1.70313,-6.20313 L5,-6.90625 L5,9.59375 L1.09375,10.4063 C0.5,10.5 0,11.2031 0,11.7969 L0,17.5938 C0,18.4063 0.59375,19 1.40625,19 L1.70313,19 L5,18.2969 L5,33.2031 L7.79688,33.2031 L7.79688,17.7031 L16.7031,15.9063 L16.7031,30 L19.5,30 L19.5,15.2969 L23.2969,14.5938 C23.9063,14.5 24.4063,13.7969 24.4063,13.2031 L24.4063,7.29688 C24.4063,6.5 23.7969,5.90625 23,5.90625 L22.7969,5.90625 L19.5,6.59375 L19.5,-9.90625 L23.2969,-10.5938 M7.79688,9.09375 L7.79688,-7.5 L16.7031,-9.29688 L16.7031,7.20313 L7.79688,9.09375 "/>
<path class="Rest" transform="matrix(0.920001,0,0,0.920001,3570.08,350.826)" d="M23.2031,16.9063 L23,16.5938 C22.9063,16.5 22.7031,16.2969 22.4063,15.9063 L10.9063,1.70313 C10.5938,1.40625 10.7031,0.59375 10.9063,0.203125 L21.0938,-15.2031 C21.2031,-15.4063 21.2969,-15.7031 21.2969,-15.9063 L21.2969,-16.7969 C21.2969,-17.0938 21.2031,-17.4063 21,-17.5938 L4.79688,-39.5 C4.79688,-39.5 4,-40.7031 3,-39.7969 C2,-39 2.79688,-37.7031 2.79688,-37.7031 L10.4063,-27.2969 C10.7969,-26.7031 10.7969,-25.5 10.4063,-24.9063 L0.296875,-9.5 C0.203125,-9.29688 0.09375,-8.90625 0.09375,-8.70313 L0.09375,-7.79688 C0.09375,-7.5 0.203125,-7.20313 0.40625,-7 L11.5938,6.90625 C11.2031,6.79688 10.2969,6.59375 9.09375,6.59375 C7.40625,6.59375 5.20313,7 3.40625,8.59375 C1.20313,10.5938 0,13.4063 0,15.9063 C0,17.2969 0.296875,18.7031 1.09375,19.7969 C3.20313,23 10.7031,32.5 10.7031,32.5 C10.7031,32.5 11.5938,33.6094 12.5,32.9063 C13.4063,32.2031 13.2031,31.2969 12.9063,30.7969 C12.5938,30.2969 9.40625,24.5 9.40625,24.5 C9.40625,24.5 8.70313,23.0938 8.70313,21.2969 C8.70313,20 9.09375,18.4063 10.4063,17.0938 C11.5938,15.9063 13,15.5 14.2969,15.5 C15.5938,15.5 16.7031,15.9063 17.5,16.4063 L21.4063,18.9063 C21.4063,18.9063 22.5938,19.5 23.2031,18.5938 C23.7031,17.7969 23.5,17.4063 23.2031,16.9063"/>
<path class="Beam" fill-rule="evenodd" d="M888.661,368.075 L1218.52,373.87 L1218.52,385.372 L888.661,379.577 L888.661,368.075 "/>
<path class="Beam" fill-rule="evenodd" d="M2135.29,385.326 L2721.57,385.326 L2721.57,396.826 L2135.29,396.826 L2135.29,385.326 "/>
<path class="Beam" fill-rule="evenodd" d="M2135.29,368.076 L2165.19,368.076 L2165.19,379.576 L2135.29,379.576 L2135.29,368.076 "/>
<path class="Beam" fill-rule="evenodd" d="M2721.57,368.076 L2691.67,368.076 L2691.67,379.576 L2721.57,379.576 L2721.57,368.076 "/>
<path class="Fingering" d="M380.438,71.4441 C368.828,71.4441 360.359,84.0535 360.359,101.475 C360.359,118.585 368.578,131.116 379.781,131.116 C391.406,131.116 399.531,118.991 399.531,101.725 C399.531,92.9285 397.703,85.6316 394.219,79.8972 C390.984,74.6785 385.672,71.4441 380.438,71.4441 M379.859,75.0066 C382.609,75.0066 385.266,76.8347 387.25,80.1472 C389.484,84.0535 390.234,88.7879 390.234,100.147 C390.234,111.85 389.656,117.335 388,120.991 C386.094,125.053 383.094,127.538 379.953,127.538 C377.125,127.538 374.547,125.71 372.563,122.397 C370.234,118.491 369.578,113.35 369.578,99.741 C369.578,90.0222 370.156,85.2097 371.813,81.5691 C373.719,77.4129 376.703,75.0066 379.859,75.0066"/>
<path class="Fingering" d="M923.514,131.194 L919.873,131.194 L919.03,135.429 C917.952,140.819 917.295,141.319 912.155,141.319 L893.561,141.319 C899.28,135.335 901.202,133.6 906.498,129.444 C914.061,123.632 917.295,120.725 919.202,118.241 C921.858,114.585 923.186,110.944 923.186,106.866 C923.186,97.4129 915.389,90.6941 904.514,90.6941 C893.967,90.6941 885.92,97.4129 885.92,106.288 C885.92,111.522 888.577,115.085 892.483,115.085 C895.545,115.085 897.623,113.007 897.623,110.022 C897.623,107.944 896.467,106.038 894.717,105.304 C891.655,104.054 891.483,103.882 891.483,102.804 C891.483,101.554 892.311,99.6473 893.483,98.241 C895.545,95.6629 898.952,94.2566 902.858,94.2566 C909.748,94.2566 913.811,98.491 913.811,105.46 C913.811,111.6 910.905,117.163 904.014,124.46 C897.873,130.944 894.061,135.007 892.639,136.585 C889.655,140.069 888.17,141.975 884.514,146.788 L884.514,149.116 L921.936,149.116 L923.514,131.194 "/>
<path class="Fingering" d="M1231.5,111.694 C1219.89,111.694 1211.43,124.304 1211.43,141.725 C1211.43,158.835 1219.64,171.366 1230.85,171.366 C1242.47,171.366 1250.6,159.241 1250.6,141.975 C1250.6,133.179 1248.77,125.882 1245.28,120.147 C1242.05,114.929 1236.74,111.694 1231.5,111.694 M1230.93,115.257 C1233.68,115.257 1236.33,117.085 1238.32,120.397 C1240.55,124.304 1241.3,129.038 1241.3,140.397 C1241.3,152.1 1240.72,157.585 1239.07,161.241 C1237.16,165.304 1234.16,167.788 1231.02,167.788 C1228.19,167.788 1225.61,165.96 1223.63,162.647 C1221.3,158.741 1220.64,153.6 1220.64,139.991 C1220.64,130.272 1221.22,125.46 1222.88,121.819 C1224.78,117.663 1227.77,115.257 1230.93,115.257"/>
<path class="Fingering" d="M1676.2,159.944 L1672.56,159.944 L1671.72,164.179 C1670.64,169.569 1669.98,170.069 1664.84,170.069 L1646.25,170.069 C1651.97,164.085 1653.89,162.35 1659.19,158.194 C1666.75,152.382 1669.98,149.475 1671.89,146.991 C1674.55,143.335 1675.88,139.694 1675.88,135.616 C1675.88,126.163 1668.08,119.444 1657.2,119.444 C1646.66,119.444 1638.61,126.163 1638.61,135.038 C1638.61,140.272 1641.27,143.835 1645.17,143.835 C1648.23,143.835 1650.31,141.757 1650.31,138.772 C1650.31,136.694 1649.16,134.788 1647.41,134.054 C1644.34,132.804 1644.17,132.632 1644.17,131.554 C1644.17,130.304 1645,128.397 1646.17,126.991 C1648.23,124.413 1651.64,123.007 1655.55,123.007 C1662.44,123.007 1666.5,127.241 1666.5,134.21 C1666.5,140.35 1663.59,145.913 1656.7,153.21 C1650.56,159.694 1646.75,163.757 1645.33,165.335 C1642.34,168.819 1640.86,170.725 1637.2,175.538 L1637.2,177.866 L1674.63,177.866 L1676.2,159.944 "/>
<path class="Fingering" d="M2394.66,131.194 L2391.02,131.194 L2390.18,135.429 C2389.1,140.819 2388.44,141.319 2383.3,141.319 L2364.71,141.319 C2370.43,135.335 2372.35,133.6 2377.65,129.444 C2385.21,123.632 2388.44,120.725 2390.35,118.241 C2393.01,114.585 2394.34,110.944 2394.34,106.866 C2394.34,97.4129 2386.54,90.6941 2375.66,90.6941 C2365.12,90.6941 2357.07,97.4129 2357.07,106.288 C2357.07,111.522 2359.73,115.085 2363.63,115.085 C2366.69,115.085 2368.77,113.007 2368.77,110.022 C2368.77,107.944 2367.62,106.038 2365.87,105.304 C2362.8,104.054 2362.63,103.882 2362.63,102.804 C2362.63,101.554 2363.46,99.6473 2364.63,98.241 C2366.69,95.6629 2370.1,94.2566 2374.01,94.2566 C2380.9,94.2566 2384.96,98.491 2384.96,105.46 C2384.96,111.6 2382.05,117.163 2375.16,124.46 C2369.02,130.944 2365.21,135.007 2363.79,136.585 C2360.8,140.069 2359.32,141.975 2355.66,146.788 L2355.66,149.116 L2393.09,149.116 L2394.66,131.194 "/>
<path class="Fingering" d="M2734.55,111.694 C2722.94,111.694 2714.47,124.304 2714.47,141.725 C2714.47,158.835 2722.69,171.366 2733.89,171.366 C2745.52,171.366 2753.64,159.241 2753.64,141.975 C2753.64,133.179 2751.82,125.882 2748.33,120.147 C2745.1,114.929 2739.78,111.694 2734.55,111.694 M2733.97,115.257 C2736.72,115.257 2739.38,117.085 2741.36,120.397 C2743.6,124.304 2744.35,129.038 2744.35,140.397 C2744.35,152.1 2743.77,157.585 2742.11,161.241 C2740.21,165.304 2737.21,167.788 2734.07,167.788 C2731.24,167.788 2728.66,165.96 2726.67,162.647 C2724.35,158.741 2723.69,153.6 2723.69,139.991 C2723.69,130.272 2724.27,125.46 2725.92,121.819 C2727.83,117.663 2730.82,115.257 2733.97,115.257"/>
<path class="Page" d="M96.0938,96.241 L95.4844,98.991 C94.9844,101.194 94.6563,101.897 94.2188,102.178 C93.6719,102.569 93.5625,102.569 90.0938,102.616 L79.4844,102.616 C81.4063,100.96 82.8438,99.9285 84.9844,98.491 C92.7344,93.491 94.3281,92.2722 95.9219,90.241 C97.7969,87.7722 98.8906,84.8504 98.8906,82.2722 C98.8906,76.3816 93.125,71.9285 85.375,71.9285 C77.8906,71.9285 72.1094,76.7722 72.1094,83.0379 C72.1094,86.8816 74.2656,89.366 77.5625,89.366 C80.4219,89.366 82.2344,87.5535 82.2344,84.6941 C82.2344,82.3191 81.1875,80.9441 78.6563,79.741 C78.0469,79.4597 77.7813,79.1316 77.7813,78.6941 C77.7813,76.9285 80.75,75.0691 83.5,75.0691 C87.3438,75.0691 89.5469,77.4285 89.5469,81.5066 C89.5469,86.0691 87.7813,89.3035 81.9531,95.5222 C75.7969,102.069 73.6563,104.538 70.9063,108.507 L70.9063,111.085 C72.3281,110.928 72.9375,110.866 73.7656,110.866 L94.4375,110.866 C95.4844,110.866 96.1406,110.928 97.7969,111.085 L99.0625,96.241 L96.0938,96.241 "/>
</svg>
