<?xml version="1.0" encoding="UTF-8" standalone="no"?>
<svg width="4208.47px" height="2409.45px" viewBox="0 0 4208.47 2409.45"
 xmlns="http://www.w3.org/2000/svg" xmlns:xlink="http://www.w3.org/1999/xlink" version="1.2" baseProfile="tiny">
<title>SAX TENOR</title>
<desc>Generated by MuseScore 3.6.2</desc>
<polyline class="StaffLines" fill="none" stroke="#000000" stroke-width="6.16" stroke-linejoin="bevel" points="70.866,462.756 4137.61,462.756"/>
<polyline class="StaffLines" fill="none" stroke="#000000" stroke-width="6.16" stroke-linejoin="bevel" points="70.866,518.74 4137.61,518.74"/>
<polyline class="StaffLines" fill="none" stroke="#000000" stroke-width="6.16" stroke-linejoin="bevel" points="70.866,574.724 4137.61,574.724"/>
<polyline class="StaffLines" fill="none" stroke="#000000" stroke-width="6.16" stroke-linejoin="bevel" points="70.866,630.709 4137.61,630.709"/>
<polyline class="StaffLines" fill="none" stroke="#000000" stroke-width="6.16" stroke-linejoin="bevel" points="70.866,686.693 4137.61,686.693"/>
<polyline class="StaffLines" fill="none" stroke="#000000" stroke-width="6.16" stroke-linejoin="bevel" points="70.866,1277.63 4137.61,1277.63"/>
<polyline class="StaffLines" fill="none" stroke="#000000" stroke-width="6.16" stroke-linejoin="bevel" points="70.866,1333.62 4137.61,1333.62"/>
<polyline class="StaffLines" fill="none" stroke="#000000" stroke-width="6.16" stroke-linejoin="bevel" points="70.866,1389.6 4137.61,1389.6"/>
<polyline class="StaffLines" fill="none" stroke="#000000" stroke-width="6.16" stroke-linejoin="bevel" points="70.866,1445.58 4137.61,1445.58"/>
<polyline class="StaffLines" fill="none" stroke="#000000" stroke-width="6.16" stroke-linejoin="bevel" points="70.866,1501.57 4137.61,1501.57"/>
<polyline class="StaffLines" fill="none" stroke="#000000" stroke-width="6.16" stroke-linejoin="bevel" points="70.866,2092.51 4137.61,2092.51"/>
<polyline class="StaffLines" fill="none" stroke="#000000" stroke-width="6.16" stroke-linejoin="bevel" points="70.866,2148.49 4137.61,2148.49"/>
<polyline class="StaffLines" fill="none" stroke="#000000" stroke-width="6.16" stroke-linejoin="bevel" points="70.866,2204.47 4137.61,2204.47"/>
<polyline class="StaffLines" fill="none" stroke="#000000" stroke-width="6.16" stroke-linejoin="bevel" points="70.866,2260.46 4137.61,2260.46"/>
<polyline class="StaffLines" fill="none" stroke="#000000" stroke-width="6.16" stroke-linejoin="bevel" points="70.866,2316.44 4137.61,2316.44"/>
<path class="MeasureNumber" d="M85.4597,1151.1 C87.3504,1150.51 88.1004,1150.18 89.0691,1149.54 C90.9441,1148.3 92.1004,1146.1 92.1004,1143.87 C92.1004,1140.07 89.0691,1137.51 84.5847,1137.51 C80.2254,1137.51 76.5379,1140.22 76.5379,1143.51 C76.5379,1145.15 77.5379,1146.27 79.0691,1146.27 C80.3816,1146.27 81.3504,1145.3 81.3504,1143.99 C81.3504,1143.3 81.1472,1142.82 80.5066,1142.19 C80.1004,1141.82 79.9441,1141.55 79.9441,1141.27 C79.9441,1140.3 81.9441,1139.3 83.8191,1139.3 C86.5066,1139.3 88.1004,1140.79 88.1004,1143.27 C88.1004,1146.82 85.5847,1150.18 82.8972,1150.18 C82.7879,1150.18 82.4285,1150.15 81.991,1150.1 C80.8191,1150.02 80.8191,1150.02 80.5847,1150.02 C79.7097,1150.02 79.2254,1150.43 79.2254,1151.15 C79.2254,1151.79 79.6629,1152.18 80.3816,1152.18 C80.5847,1152.18 80.866,1152.15 81.1785,1152.1 C81.741,1151.99 82.3504,1151.94 82.7097,1151.94 C84.5847,1151.94 85.866,1153.63 85.866,1156.1 C85.866,1158.02 85.4285,1159.87 84.5379,1161.38 C83.3504,1163.54 81.5066,1164.58 78.8972,1164.58 C76.6629,1164.58 74.741,1163.46 74.741,1162.18 C74.741,1161.74 74.9129,1161.58 75.5379,1161.3 C76.7097,1160.79 77.1785,1160.07 77.1785,1158.99 C77.1785,1157.58 76.0691,1156.51 74.6316,1156.51 C72.9129,1156.51 71.7879,1157.87 71.7879,1159.94 C71.7879,1163.82 74.741,1166.26 79.5379,1166.26 C85.5847,1166.26 90.1785,1162.22 90.1785,1156.87 C90.1785,1155.43 89.741,1154.18 88.8972,1153.18 C88.0222,1152.15 87.2254,1151.66 85.4597,1151.1"/>
<path class="MeasureNumber" d="M75.3504,1965.22 C74.1004,1965.97 73.741,1966.46 73.741,1967.26 C73.741,1968.02 74.3816,1968.58 75.1785,1968.58 C76.2254,1968.58 76.8191,1967.82 76.9441,1966.33 C78.1785,1965.33 79.5066,1964.9 81.1004,1964.9 C84.0691,1964.9 85.7097,1966.74 85.7097,1970.05 C85.7097,1975.26 82.3504,1979.49 78.2254,1979.49 C75.866,1979.49 73.9441,1978.38 73.9441,1977.05 C73.9441,1976.82 73.991,1976.74 74.1785,1976.62 C75.2254,1976.13 75.2254,1976.13 75.5066,1975.94 C76.1472,1975.46 76.5066,1974.74 76.5066,1973.9 C76.5066,1972.62 75.5066,1971.66 74.1004,1971.66 C72.3504,1971.66 71.0222,1973.13 71.0222,1975.05 C71.0222,1978.58 74.0691,1981.13 78.3504,1981.13 C84.8191,1981.13 90.0691,1975.97 90.0691,1969.58 C90.0691,1965.54 86.991,1962.69 82.6316,1962.69 C80.8972,1962.69 79.5066,1963.05 77.5847,1964.02 L79.8191,1956.46 C81.9441,1956.9 83.6316,1957.1 85.0691,1957.1 C87.7097,1957.1 90.0691,1956.26 91.3816,1954.87 C92.0691,1954.07 92.4597,1953.38 92.4597,1952.87 C92.4597,1952.62 92.3347,1952.38 92.1785,1952.38 C92.0691,1952.38 91.9754,1952.43 91.741,1952.54 C90.4285,1953.18 88.741,1953.54 87.1785,1953.54 C84.7879,1953.54 81.9441,1953.15 78.991,1952.38 L75.3504,1965.22 "/>
<path class="TieSegment" stroke="#000000" stroke-width="3.92" stroke-linecap="round" stroke-linejoin="round" fill-rule="evenodd" d="M2013.95,644.705 C2077.53,685.181 2268.24,685.181 2331.81,644.705 C2268.24,700.857 2077.53,700.857 2013.95,644.705"/>
<path class="TieSegment" stroke="#000000" stroke-width="3.92" stroke-linecap="round" stroke-linejoin="round" fill-rule="evenodd" d="M4018.09,692.011 C4041.99,706.567 4113.7,706.567 4137.61,692.011 C4113.7,722.243 4041.99,722.243 4018.09,692.011"/>
<path class="TieSegment" stroke="#000000" stroke-width="3.92" stroke-linecap="round" stroke-linejoin="round" fill-rule="evenodd" d="M481.528,1506.89 C505.656,1521.44 578.04,1521.44 602.168,1506.89 C578.04,1537.12 505.656,1537.12 481.528,1506.89"/>
<path class="TieSegment" stroke="#000000" stroke-width="3.92" stroke-linecap="round" stroke-linejoin="round" fill-rule="evenodd" d="M2255.15,1515.56 C2300.95,1542.53 2438.32,1542.53 2484.12,1515.56 C2438.32,1558.2 2300.95,1558.2 2255.15,1515.56"/>
<path class="TieSegment" stroke="#000000" stroke-width="3.92" stroke-linecap="round" stroke-linejoin="round" fill-rule="evenodd" d="M4018.09,1506.89 C4041.99,1521.44 4113.7,1521.44 4137.61,1506.89 C4113.7,1537.12 4041.99,1537.12 4018.09,1506.89"/>
<path class="TieSegment" stroke="#000000" stroke-width="3.92" stroke-linecap="round" stroke-linejoin="round" fill-rule="evenodd" d="M481.528,2321.76 C505.656,2336.32 578.04,2336.32 602.168,2321.76 C578.04,2351.99 505.656,2351.99 481.528,2321.76"/>
<polyline class="BarLine" stroke="#000000" stroke-width="30.79" stroke-linejoin="bevel" points="2138.79,459.677 2138.79,689.772"/>
<polyline class="BarLine" stroke="#000000" stroke-width="10.08" stroke-linejoin="bevel" points="2177.98,459.677 2177.98,689.772"/>
<path class="BarLine" transform="matrix(2.23937,0,0,2.23937,2205.52,546.732)" d="M10.4063,0 C10.4063,-2.90625 8.09375,-5.29688 5.20313,-5.29688 C2.29688,-5.29688 0,-2.90625 0,0 C0,2.90625 2.29688,5.29688 5.20313,5.29688 C8.09375,5.29688 10.4063,2.90625 10.4063,0"/>
<path class="BarLine" transform="matrix(2.23937,0,0,2.23937,2205.52,602.716)" d="M10.4063,0 C10.4063,-2.90625 8.09375,-5.29688 5.20313,-5.29688 C2.29688,-5.29688 0,-2.90625 0,0 C0,2.90625 2.29688,5.29688 5.20313,5.29688 C8.09375,5.29688 10.4063,2.90625 10.4063,0"/>
<polyline class="BarLine" stroke="#000000" stroke-width="10.08" stroke-linejoin="bevel" points="4132.57,459.677 4132.57,689.772"/>
<polyline class="BarLine" stroke="#000000" stroke-width="10.08" stroke-linejoin="bevel" points="2369.63,1274.55 2369.63,1504.65"/>
<polyline class="BarLine" stroke="#000000" stroke-width="10.08" stroke-linejoin="bevel" points="4132.57,1274.55 4132.57,1504.65"/>
<path class="BarLine" transform="matrix(2.23937,0,0,2.23937,2683.77,2176.48)" d="M10.4063,0 C10.4063,-2.90625 8.09375,-5.29688 5.20313,-5.29688 C2.29688,-5.29688 0,-2.90625 0,0 C0,2.90625 2.29688,5.29688 5.20313,5.29688 C8.09375,5.29688 10.4063,2.90625 10.4063,0"/>
<path class="BarLine" transform="matrix(2.23937,0,0,2.23937,2683.77,2232.47)" d="M10.4063,0 C10.4063,-2.90625 8.09375,-5.29688 5.20313,-5.29688 C2.29688,-5.29688 0,-2.90625 0,0 C0,2.90625 2.29688,5.29688 5.20313,5.29688 C8.09375,5.29688 10.4063,2.90625 10.4063,0"/>
<polyline class="BarLine" stroke="#000000" stroke-width="10.08" stroke-linejoin="bevel" points="2734.6,2089.43 2734.6,2319.52"/>
<polyline class="BarLine" stroke="#000000" stroke-width="30.79" stroke-linejoin="bevel" points="2773.79,2089.43 2773.79,2319.52"/>
<polyline class="BarLine" stroke="#000000" stroke-width="10.08" stroke-linejoin="bevel" points="4083.02,2089.43 4083.02,2319.52"/>
<polyline class="BarLine" stroke="#000000" stroke-width="30.79" stroke-linejoin="bevel" points="4122.21,2089.43 4122.21,2319.52"/>
<path class="Accidental" transform="matrix(2.23937,0,0,2.23937,3064.97,630.709)" d="M23.2969,-10.5938 C23.9063,-10.7031 24.4063,-11.4063 24.4063,-12 L24.4063,-17.9063 C24.4063,-18.7031 23.7969,-19.2969 23,-19.2969 L22.7969,-19.2969 L19.5,-18.5938 L19.5,-33.5 L16.7031,-33.5 L16.7031,-18 L7.79688,-16.2031 L7.79688,-30.2969 L5,-30.2969 L5,-15.5938 L1.09375,-14.7969 C0.5,-14.7031 0,-14 0,-13.4063 L0,-13.2031 L0,-7.40625 L0,-7.59375 C0,-6.79688 0.59375,-6.20313 1.40625,-6.20313 L1.70313,-6.20313 L5,-6.90625 L5,9.59375 L1.09375,10.4063 C0.5,10.5 0,11.2031 0,11.7969 L0,17.5938 C0,18.4063 0.59375,19 1.40625,19 L1.70313,19 L5,18.2969 L5,33.2031 L7.79688,33.2031 L7.79688,17.7031 L16.7031,15.9063 L16.7031,30 L19.5,30 L19.5,15.2969 L23.2969,14.5938 C23.9063,14.5 24.4063,13.7969 24.4063,13.2031 L24.4063,7.29688 C24.4063,6.5 23.7969,5.90625 23,5.90625 L22.7969,5.90625 L19.5,6.59375 L19.5,-9.90625 L23.2969,-10.5938 M7.79688,9.09375 L7.79688,-7.5 L16.7031,-9.29688 L16.7031,7.20313 L7.79688,9.09375 "/>
<path class="Accidental" transform="matrix(2.23937,0,0,2.23937,1207.08,1445.58)" d="M23.2969,-10.5938 C23.9063,-10.7031 24.4063,-11.4063 24.4063,-12 L24.4063,-17.9063 C24.4063,-18.7031 23.7969,-19.2969 23,-19.2969 L22.7969,-19.2969 L19.5,-18.5938 L19.5,-33.5 L16.7031,-33.5 L16.7031,-18 L7.79688,-16.2031 L7.79688,-30.2969 L5,-30.2969 L5,-15.5938 L1.09375,-14.7969 C0.5,-14.7031 0,-14 0,-13.4063 L0,-13.2031 L0,-7.40625 L0,-7.59375 C0,-6.79688 0.59375,-6.20313 1.40625,-6.20313 L1.70313,-6.20313 L5,-6.90625 L5,9.59375 L1.09375,10.4063 C0.5,10.5 0,11.2031 0,11.7969 L0,17.5938 C0,18.4063 0.59375,19 1.40625,19 L1.70313,19 L5,18.2969 L5,33.2031 L7.79688,33.2031 L7.79688,17.7031 L16.7031,15.9063 L16.7031,30 L19.5,30 L19.5,15.2969 L23.2969,14.5938 C23.9063,14.5 24.4063,13.7969 24.4063,13.2031 L24.4063,7.29688 C24.4063,6.5 23.7969,5.90625 23,5.90625 L22.7969,5.90625 L19.5,6.59375 L19.5,-9.90625 L23.2969,-10.5938 M7.79688,9.09375 L7.79688,-7.5 L16.7031,-9.29688 L16.7031,7.20313 L7.79688,9.09375 "/>
<path class="Accidental" transform="matrix(2.23937,0,0,2.23937,2910.91,1445.58)" d="M23.2969,-10.5938 C23.9063,-10.7031 24.4063,-11.4063 24.4063,-12 L24.4063,-17.9063 C24.4063,-18.7031 23.7969,-19.2969 23,-19.2969 L22.7969,-19.2969 L19.5,-18.5938 L19.5,-33.5 L16.7031,-33.5 L16.7031,-18 L7.79688,-16.2031 L7.79688,-30.2969 L5,-30.2969 L5,-15.5938 L1.09375,-14.7969 C0.5,-14.7031 0,-14 0,-13.4063 L0,-13.2031 L0,-7.40625 L0,-7.59375 C0,-6.79688 0.59375,-6.20313 1.40625,-6.20313 L1.70313,-6.20313 L5,-6.90625 L5,9.59375 L1.09375,10.4063 C0.5,10.5 0,11.2031 0,11.7969 L0,17.5938 C0,18.4063 0.59375,19 1.40625,19 L1.70313,19 L5,18.2969 L5,33.2031 L7.79688,33.2031 L7.79688,17.7031 L16.7031,15.9063 L16.7031,30 L19.5,30 L19.5,15.2969 L23.2969,14.5938 C23.9063,14.5 24.4063,13.7969 24.4063,13.2031 L24.4063,7.29688 C24.4063,6.5 23.7969,5.90625 23,5.90625 L22.7969,5.90625 L19.5,6.59375 L19.5,-9.90625 L23.2969,-10.5938 M7.79688,9.09375 L7.79688,-7.5 L16.7031,-9.29688 L16.7031,7.20313 L7.79688,9.09375 "/>
<path class="Accidental" transform="matrix(2.23937,0,0,2.23937,2842.65,2260.46)" d="M23.2969,-10.5938 C23.9063,-10.7031 24.4063,-11.4063 24.4063,-12 L24.4063,-17.9063 C24.4063,-18.7031 23.7969,-19.2969 23,-19.2969 L22.7969,-19.2969 L19.5,-18.5938 L19.5,-33.5 L16.7031,-33.5 L16.7031,-18 L7.79688,-16.2031 L7.79688,-30.2969 L5,-30.2969 L5,-15.5938 L1.09375,-14.7969 C0.5,-14.7031 0,-14 0,-13.4063 L0,-13.2031 L0,-7.40625 L0,-7.59375 C0,-6.79688 0.59375,-6.20313 1.40625,-6.20313 L1.70313,-6.20313 L5,-6.90625 L5,9.59375 L1.09375,10.4063 C0.5,10.5 0,11.2031 0,11.7969 L0,17.5938 C0,18.4063 0.59375,19 1.40625,19 L1.70313,19 L5,18.2969 L5,33.2031 L7.79688,33.2031 L7.79688,17.7031 L16.7031,15.9063 L16.7031,30 L19.5,30 L19.5,15.2969 L23.2969,14.5938 C23.9063,14.5 24.4063,13.7969 24.4063,13.2031 L24.4063,7.29688 C24.4063,6.5 23.7969,5.90625 23,5.90625 L22.7969,5.90625 L19.5,6.59375 L19.5,-9.90625 L23.2969,-10.5938 M7.79688,9.09375 L7.79688,-7.5 L16.7031,-9.29688 L16.7031,7.20313 L7.79688,9.09375 "/>
<polyline class="Stem" stroke="#000000" stroke-width="6.16" stroke-linejoin="bevel" points="985.683,679.527 985.683,462.756"/>
<polyline class="Stem" stroke="#000000" stroke-width="6.16" stroke-linejoin="bevel" points="1088.69,651.535 1088.69,452.759"/>
<polyline class="Stem" stroke="#000000" stroke-width="6.16" stroke-linejoin="bevel" points="1191.69,679.527 1191.69,442.761"/>
<polyline class="Stem" stroke="#000000" stroke-width="6.16" stroke-linejoin="bevel" points="1294.7,595.55 1294.7,432.764"/>
<polyline class="Stem" stroke="#000000" stroke-width="6.16" stroke-linejoin="bevel" points="1459.51,595.55 1459.51,416.769"/>
<polyline class="Stem" stroke="#000000" stroke-width="6.16" stroke-linejoin="bevel" points="1562.51,595.55 1562.51,406.772"/>
<polyline class="Stem" stroke="#000000" stroke-width="6.16" stroke-linejoin="bevel" points="1665.52,595.55 1665.52,420.768"/>
<polyline class="Stem" stroke="#000000" stroke-width="6.16" stroke-linejoin="bevel" points="1830.33,595.55 1830.33,420.768"/>
<polyline class="Stem" stroke="#000000" stroke-width="6.16" stroke-linejoin="bevel" points="1933.34,595.55 1933.34,420.768"/>
<polyline class="Stem" stroke="#000000" stroke-width="6.16" stroke-linejoin="bevel" points="2036.34,595.55 2036.34,420.768"/>
<polyline class="Stem" stroke="#000000" stroke-width="6.16" stroke-linejoin="bevel" points="2376.03,595.55 2376.03,420.768"/>
<polyline class="Stem" stroke="#000000" stroke-width="6.16" stroke-linejoin="bevel" points="2678.35,567.558 2678.35,364.783"/>
<polyline class="Stem" stroke="#000000" stroke-width="6.16" stroke-linejoin="bevel" points="2794.62,539.566 2794.62,364.783"/>
<polyline class="Stem" stroke="#000000" stroke-width="6.16" stroke-linejoin="bevel" points="2910.9,567.558 2910.9,364.783"/>
<polyline class="Stem" stroke="#000000" stroke-width="6.16" stroke-linejoin="bevel" points="3027.18,595.55 3027.18,364.783"/>
<polyline class="Stem" stroke="#000000" stroke-width="6.16" stroke-linejoin="bevel" points="3203.28,623.543 3203.28,364.783"/>
<polyline class="Stem" stroke="#000000" stroke-width="6.16" stroke-linejoin="bevel" points="3389.33,623.543 3389.33,462.756"/>
<polyline class="Stem" stroke="#000000" stroke-width="6.16" stroke-linejoin="bevel" points="3505.6,623.543 3505.6,462.756"/>
<polyline class="Stem" stroke="#000000" stroke-width="6.16" stroke-linejoin="bevel" points="3621.88,623.543 3621.88,462.756"/>
<polyline class="Stem" stroke="#000000" stroke-width="6.16" stroke-linejoin="bevel" points="3807.92,623.543 3807.92,462.756"/>
<polyline class="Stem" stroke="#000000" stroke-width="6.16" stroke-linejoin="bevel" points="3924.2,623.543 3924.2,462.756"/>
<polyline class="Stem" stroke="#000000" stroke-width="6.16" stroke-linejoin="bevel" points="4040.47,623.543 4040.47,462.756"/>
<polyline class="Stem" stroke="#000000" stroke-width="6.16" stroke-linejoin="bevel" points="646.384,1438.42 646.384,1256.64"/>
<polyline class="Stem" stroke="#000000" stroke-width="6.16" stroke-linejoin="bevel" points="941.941,1410.43 941.941,1221.65"/>
<polyline class="Stem" stroke="#000000" stroke-width="6.16" stroke-linejoin="bevel" points="1055.62,1382.43 1055.62,1221.65"/>
<polyline class="Stem" stroke="#000000" stroke-width="6.16" stroke-linejoin="bevel" points="1169.29,1410.43 1169.29,1221.65"/>
<polyline class="Stem" stroke="#000000" stroke-width="6.16" stroke-linejoin="bevel" points="1345.4,1438.42 1345.4,1221.65"/>
<polyline class="Stem" stroke="#000000" stroke-width="6.16" stroke-linejoin="bevel" points="1459.07,1466.41 1459.07,1221.65"/>
<polyline class="Stem" stroke="#000000" stroke-width="6.16" stroke-linejoin="bevel" points="1640.96,1466.41 1640.96,1291.63"/>
<polyline class="Stem" stroke="#000000" stroke-width="6.16" stroke-linejoin="bevel" points="1754.63,1466.41 1754.63,1291.63"/>
<polyline class="Stem" stroke="#000000" stroke-width="6.16" stroke-linejoin="bevel" points="1868.31,1466.41 1868.31,1291.63"/>
<polyline class="Stem" stroke="#000000" stroke-width="6.16" stroke-linejoin="bevel" points="2050.19,1466.41 2050.19,1291.63"/>
<polyline class="Stem" stroke="#000000" stroke-width="6.16" stroke-linejoin="bevel" points="2163.86,1466.41 2163.86,1291.63"/>
<polyline class="Stem" stroke="#000000" stroke-width="6.16" stroke-linejoin="bevel" points="2277.54,1466.41 2277.54,1291.63"/>
<polyline class="Stem" stroke="#000000" stroke-width="6.16" stroke-linejoin="bevel" points="2528.33,1466.41 2528.33,1277.63"/>
<polyline class="Stem" stroke="#000000" stroke-width="6.16" stroke-linejoin="bevel" points="2873.12,1466.41 2873.12,1235.64"/>
<polyline class="Stem" stroke="#000000" stroke-width="6.16" stroke-linejoin="bevel" points="3049.22,1438.42 3049.22,1235.64"/>
<polyline class="Stem" stroke="#000000" stroke-width="6.16" stroke-linejoin="bevel" points="3156.97,1410.43 3156.97,1235.64"/>
<polyline class="Stem" stroke="#000000" stroke-width="6.16" stroke-linejoin="bevel" points="3264.71,1438.42 3264.71,1235.64"/>
<polyline class="Stem" stroke="#000000" stroke-width="6.16" stroke-linejoin="bevel" points="3437.1,1438.42 3437.1,1277.63"/>
<polyline class="Stem" stroke="#000000" stroke-width="6.16" stroke-linejoin="bevel" points="3544.85,1438.42 3544.85,1277.63"/>
<polyline class="Stem" stroke="#000000" stroke-width="6.16" stroke-linejoin="bevel" points="3652.59,1438.42 3652.59,1277.63"/>
<polyline class="Stem" stroke="#000000" stroke-width="6.16" stroke-linejoin="bevel" points="3824.98,1438.42 3824.98,1277.63"/>
<polyline class="Stem" stroke="#000000" stroke-width="6.16" stroke-linejoin="bevel" points="3932.73,1438.42 3932.73,1277.63"/>
<polyline class="Stem" stroke="#000000" stroke-width="6.16" stroke-linejoin="bevel" points="4040.47,1438.42 4040.47,1277.63"/>
<polyline class="Stem" stroke="#000000" stroke-width="6.16" stroke-linejoin="bevel" points="646.384,2253.29 646.384,2071.51"/>
<polyline class="Stem" stroke="#000000" stroke-width="6.16" stroke-linejoin="bevel" points="1112.13,2309.28 1112.13,2092.51"/>
<polyline class="Stem" stroke="#000000" stroke-width="6.16" stroke-linejoin="bevel" points="1257.68,2281.28 1257.68,2082.51"/>
<polyline class="Stem" stroke="#000000" stroke-width="6.16" stroke-linejoin="bevel" points="1403.23,2309.28 1403.23,2072.51"/>
<polyline class="Stem" stroke="#000000" stroke-width="6.16" stroke-linejoin="bevel" points="1548.78,2225.3 1548.78,2062.51"/>
<polyline class="Stem" stroke="#000000" stroke-width="6.16" stroke-linejoin="bevel" points="1781.65,2225.3 1781.65,2046.52"/>
<polyline class="Stem" stroke="#000000" stroke-width="6.16" stroke-linejoin="bevel" points="1927.2,2225.3 1927.2,2036.52"/>
<polyline class="Stem" stroke="#000000" stroke-width="6.16" stroke-linejoin="bevel" points="2072.75,2225.3 2072.75,2050.52"/>
<polyline class="Stem" stroke="#000000" stroke-width="6.16" stroke-linejoin="bevel" points="2305.62,2225.3 2305.62,2050.52"/>
<polyline class="Stem" stroke="#000000" stroke-width="6.16" stroke-linejoin="bevel" points="2451.17,2225.3 2451.17,2050.52"/>
<polyline class="Stem" stroke="#000000" stroke-width="6.16" stroke-linejoin="bevel" points="2596.72,2225.3 2596.72,2050.52"/>
<polyline class="Stem" stroke="#000000" stroke-width="6.16" stroke-linejoin="bevel" points="2980.96,2253.29 2980.96,2071.51"/>
<path class="Note" transform="matrix(2.23937,0,0,2.23937,916,686.693)" d="M31.5,-8.09375 C29.7031,-11.4063 25.9063,-13.2031 21.2969,-13.2031 C17.9063,-13.2031 14.2031,-12.2031 10.5938,-10.2969 C4,-6.79688 0,-0.90625 0,4.20313 C0,5.59375 0.296875,7 1,8.29688 C2.79688,11.5938 6.59375,13.2969 11.2031,13.2969 C14.5938,13.2969 18.2969,12.4063 21.9063,10.5 C28.5,7 32.5,1.09375 32.5,-4 C32.5,-5.40625 32.2031,-6.79688 31.5,-8.09375"/>
<path class="Note" transform="matrix(2.23937,0,0,2.23937,1019.01,658.701)" d="M31.5,-8.09375 C29.7031,-11.4063 25.9063,-13.2031 21.2969,-13.2031 C17.9063,-13.2031 14.2031,-12.2031 10.5938,-10.2969 C4,-6.79688 0,-0.90625 0,4.20313 C0,5.59375 0.296875,7 1,8.29688 C2.79688,11.5938 6.59375,13.2969 11.2031,13.2969 C14.5938,13.2969 18.2969,12.4063 21.9063,10.5 C28.5,7 32.5,1.09375 32.5,-4 C32.5,-5.40625 32.2031,-6.79688 31.5,-8.09375"/>
<path class="Note" transform="matrix(2.23937,0,0,2.23937,1122.01,686.693)" d="M31.5,-8.09375 C29.7031,-11.4063 25.9063,-13.2031 21.2969,-13.2031 C17.9063,-13.2031 14.2031,-12.2031 10.5938,-10.2969 C4,-6.79688 0,-0.90625 0,4.20313 C0,5.59375 0.296875,7 1,8.29688 C2.79688,11.5938 6.59375,13.2969 11.2031,13.2969 C14.5938,13.2969 18.2969,12.4063 21.9063,10.5 C28.5,7 32.5,1.09375 32.5,-4 C32.5,-5.40625 32.2031,-6.79688 31.5,-8.09375"/>
<path class="Note" transform="matrix(2.23937,0,0,2.23937,1225.02,602.716)" d="M31.5,-8.09375 C29.7031,-11.4063 25.9063,-13.2031 21.2969,-13.2031 C17.9063,-13.2031 14.2031,-12.2031 10.5938,-10.2969 C4,-6.79688 0,-0.90625 0,4.20313 C0,5.59375 0.296875,7 1,8.29688 C2.79688,11.5938 6.59375,13.2969 11.2031,13.2969 C14.5938,13.2969 18.2969,12.4063 21.9063,10.5 C28.5,7 32.5,1.09375 32.5,-4 C32.5,-5.40625 32.2031,-6.79688 31.5,-8.09375"/>
<path class="Note" transform="matrix(2.23937,0,0,2.23937,1389.83,602.716)" d="M31.5,-8.09375 C29.7031,-11.4063 25.9063,-13.2031 21.2969,-13.2031 C17.9063,-13.2031 14.2031,-12.2031 10.5938,-10.2969 C4,-6.79688 0,-0.90625 0,4.20313 C0,5.59375 0.296875,7 1,8.29688 C2.79688,11.5938 6.59375,13.2969 11.2031,13.2969 C14.5938,13.2969 18.2969,12.4063 21.9063,10.5 C28.5,7 32.5,1.09375 32.5,-4 C32.5,-5.40625 32.2031,-6.79688 31.5,-8.09375"/>
<path class="Note" transform="matrix(2.23937,0,0,2.23937,1492.83,602.716)" d="M31.5,-8.09375 C29.7031,-11.4063 25.9063,-13.2031 21.2969,-13.2031 C17.9063,-13.2031 14.2031,-12.2031 10.5938,-10.2969 C4,-6.79688 0,-0.90625 0,4.20313 C0,5.59375 0.296875,7 1,8.29688 C2.79688,11.5938 6.59375,13.2969 11.2031,13.2969 C14.5938,13.2969 18.2969,12.4063 21.9063,10.5 C28.5,7 32.5,1.09375 32.5,-4 C32.5,-5.40625 32.2031,-6.79688 31.5,-8.09375"/>
<path class="Note" transform="matrix(2.23937,0,0,2.23937,1595.84,602.716)" d="M31.5,-8.09375 C29.7031,-11.4063 25.9063,-13.2031 21.2969,-13.2031 C17.9063,-13.2031 14.2031,-12.2031 10.5938,-10.2969 C4,-6.79688 0,-0.90625 0,4.20313 C0,5.59375 0.296875,7 1,8.29688 C2.79688,11.5938 6.59375,13.2969 11.2031,13.2969 C14.5938,13.2969 18.2969,12.4063 21.9063,10.5 C28.5,7 32.5,1.09375 32.5,-4 C32.5,-5.40625 32.2031,-6.79688 31.5,-8.09375"/>
<path class="Note" transform="matrix(2.23937,0,0,2.23937,1760.65,602.716)" d="M31.5,-8.09375 C29.7031,-11.4063 25.9063,-13.2031 21.2969,-13.2031 C17.9063,-13.2031 14.2031,-12.2031 10.5938,-10.2969 C4,-6.79688 0,-0.90625 0,4.20313 C0,5.59375 0.296875,7 1,8.29688 C2.79688,11.5938 6.59375,13.2969 11.2031,13.2969 C14.5938,13.2969 18.2969,12.4063 21.9063,10.5 C28.5,7 32.5,1.09375 32.5,-4 C32.5,-5.40625 32.2031,-6.79688 31.5,-8.09375"/>
<path class="Note" transform="matrix(2.23937,0,0,2.23937,1863.65,602.716)" d="M31.5,-8.09375 C29.7031,-11.4063 25.9063,-13.2031 21.2969,-13.2031 C17.9063,-13.2031 14.2031,-12.2031 10.5938,-10.2969 C4,-6.79688 0,-0.90625 0,4.20313 C0,5.59375 0.296875,7 1,8.29688 C2.79688,11.5938 6.59375,13.2969 11.2031,13.2969 C14.5938,13.2969 18.2969,12.4063 21.9063,10.5 C28.5,7 32.5,1.09375 32.5,-4 C32.5,-5.40625 32.2031,-6.79688 31.5,-8.09375"/>
<path class="Note" transform="matrix(2.23937,0,0,2.23937,1966.66,602.716)" d="M31.5,-8.09375 C29.7031,-11.4063 25.9063,-13.2031 21.2969,-13.2031 C17.9063,-13.2031 14.2031,-12.2031 10.5938,-10.2969 C4,-6.79688 0,-0.90625 0,4.20313 C0,5.59375 0.296875,7 1,8.29688 C2.79688,11.5938 6.59375,13.2969 11.2031,13.2969 C14.5938,13.2969 18.2969,12.4063 21.9063,10.5 C28.5,7 32.5,1.09375 32.5,-4 C32.5,-5.40625 32.2031,-6.79688 31.5,-8.09375"/>
<path class="Note" transform="matrix(2.23937,0,0,2.23937,2306.35,602.716)" d="M31.5,-8.09375 C29.7031,-11.4063 25.9063,-13.2031 21.2969,-13.2031 C17.9063,-13.2031 14.2031,-12.2031 10.5938,-10.2969 C4,-6.79688 0,-0.90625 0,4.20313 C0,5.59375 0.296875,7 1,8.29688 C2.79688,11.5938 6.59375,13.2969 11.2031,13.2969 C14.5938,13.2969 18.2969,12.4063 21.9063,10.5 C28.5,7 32.5,1.09375 32.5,-4 C32.5,-5.40625 32.2031,-6.79688 31.5,-8.09375"/>
<path class="Note" transform="matrix(2.23937,0,0,2.23937,2608.66,574.724)" d="M31.5,-8.09375 C29.7031,-11.4063 25.9063,-13.2031 21.2969,-13.2031 C17.9063,-13.2031 14.2031,-12.2031 10.5938,-10.2969 C4,-6.79688 0,-0.90625 0,4.20313 C0,5.59375 0.296875,7 1,8.29688 C2.79688,11.5938 6.59375,13.2969 11.2031,13.2969 C14.5938,13.2969 18.2969,12.4063 21.9063,10.5 C28.5,7 32.5,1.09375 32.5,-4 C32.5,-5.40625 32.2031,-6.79688 31.5,-8.09375"/>
<path class="Note" transform="matrix(2.23937,0,0,2.23937,2724.94,546.732)" d="M31.5,-8.09375 C29.7031,-11.4063 25.9063,-13.2031 21.2969,-13.2031 C17.9063,-13.2031 14.2031,-12.2031 10.5938,-10.2969 C4,-6.79688 0,-0.90625 0,4.20313 C0,5.59375 0.296875,7 1,8.29688 C2.79688,11.5938 6.59375,13.2969 11.2031,13.2969 C14.5938,13.2969 18.2969,12.4063 21.9063,10.5 C28.5,7 32.5,1.09375 32.5,-4 C32.5,-5.40625 32.2031,-6.79688 31.5,-8.09375"/>
<path class="Note" transform="matrix(2.23937,0,0,2.23937,2841.22,574.724)" d="M31.5,-8.09375 C29.7031,-11.4063 25.9063,-13.2031 21.2969,-13.2031 C17.9063,-13.2031 14.2031,-12.2031 10.5938,-10.2969 C4,-6.79688 0,-0.90625 0,4.20313 C0,5.59375 0.296875,7 1,8.29688 C2.79688,11.5938 6.59375,13.2969 11.2031,13.2969 C14.5938,13.2969 18.2969,12.4063 21.9063,10.5 C28.5,7 32.5,1.09375 32.5,-4 C32.5,-5.40625 32.2031,-6.79688 31.5,-8.09375"/>
<path class="Note" transform="matrix(2.23937,0,0,2.23937,2957.49,602.716)" d="M31.5,-8.09375 C29.7031,-11.4063 25.9063,-13.2031 21.2969,-13.2031 C17.9063,-13.2031 14.2031,-12.2031 10.5938,-10.2969 C4,-6.79688 0,-0.90625 0,4.20313 C0,5.59375 0.296875,7 1,8.29688 C2.79688,11.5938 6.59375,13.2969 11.2031,13.2969 C14.5938,13.2969 18.2969,12.4063 21.9063,10.5 C28.5,7 32.5,1.09375 32.5,-4 C32.5,-5.40625 32.2031,-6.79688 31.5,-8.09375"/>
<path class="Note" transform="matrix(2.23937,0,0,2.23937,3133.6,630.709)" d="M31.5,-8.09375 C29.7031,-11.4063 25.9063,-13.2031 21.2969,-13.2031 C17.9063,-13.2031 14.2031,-12.2031 10.5938,-10.2969 C4,-6.79688 0,-0.90625 0,4.20313 C0,5.59375 0.296875,7 1,8.29688 C2.79688,11.5938 6.59375,13.2969 11.2031,13.2969 C14.5938,13.2969 18.2969,12.4063 21.9063,10.5 C28.5,7 32.5,1.09375 32.5,-4 C32.5,-5.40625 32.2031,-6.79688 31.5,-8.09375"/>
<path class="Note" transform="matrix(2.23937,0,0,2.23937,3319.64,630.709)" d="M31.5,-8.09375 C29.7031,-11.4063 25.9063,-13.2031 21.2969,-13.2031 C17.9063,-13.2031 14.2031,-12.2031 10.5938,-10.2969 C4,-6.79688 0,-0.90625 0,4.20313 C0,5.59375 0.296875,7 1,8.29688 C2.79688,11.5938 6.59375,13.2969 11.2031,13.2969 C14.5938,13.2969 18.2969,12.4063 21.9063,10.5 C28.5,7 32.5,1.09375 32.5,-4 C32.5,-5.40625 32.2031,-6.79688 31.5,-8.09375"/>
<path class="Note" transform="matrix(2.23937,0,0,2.23937,3435.92,630.709)" d="M31.5,-8.09375 C29.7031,-11.4063 25.9063,-13.2031 21.2969,-13.2031 C17.9063,-13.2031 14.2031,-12.2031 10.5938,-10.2969 C4,-6.79688 0,-0.90625 0,4.20313 C0,5.59375 0.296875,7 1,8.29688 C2.79688,11.5938 6.59375,13.2969 11.2031,13.2969 C14.5938,13.2969 18.2969,12.4063 21.9063,10.5 C28.5,7 32.5,1.09375 32.5,-4 C32.5,-5.40625 32.2031,-6.79688 31.5,-8.09375"/>
<path class="Note" transform="matrix(2.23937,0,0,2.23937,3552.2,630.709)" d="M31.5,-8.09375 C29.7031,-11.4063 25.9063,-13.2031 21.2969,-13.2031 C17.9063,-13.2031 14.2031,-12.2031 10.5938,-10.2969 C4,-6.79688 0,-0.90625 0,4.20313 C0,5.59375 0.296875,7 1,8.29688 C2.79688,11.5938 6.59375,13.2969 11.2031,13.2969 C14.5938,13.2969 18.2969,12.4063 21.9063,10.5 C28.5,7 32.5,1.09375 32.5,-4 C32.5,-5.40625 32.2031,-6.79688 31.5,-8.09375"/>
<path class="Note" transform="matrix(2.23937,0,0,2.23937,3738.24,630.709)" d="M31.5,-8.09375 C29.7031,-11.4063 25.9063,-13.2031 21.2969,-13.2031 C17.9063,-13.2031 14.2031,-12.2031 10.5938,-10.2969 C4,-6.79688 0,-0.90625 0,4.20313 C0,5.59375 0.296875,7 1,8.29688 C2.79688,11.5938 6.59375,13.2969 11.2031,13.2969 C14.5938,13.2969 18.2969,12.4063 21.9063,10.5 C28.5,7 32.5,1.09375 32.5,-4 C32.5,-5.40625 32.2031,-6.79688 31.5,-8.09375"/>
<path class="Note" transform="matrix(2.23937,0,0,2.23937,3854.51,630.709)" d="M31.5,-8.09375 C29.7031,-11.4063 25.9063,-13.2031 21.2969,-13.2031 C17.9063,-13.2031 14.2031,-12.2031 10.5938,-10.2969 C4,-6.79688 0,-0.90625 0,4.20313 C0,5.59375 0.296875,7 1,8.29688 C2.79688,11.5938 6.59375,13.2969 11.2031,13.2969 C14.5938,13.2969 18.2969,12.4063 21.9063,10.5 C28.5,7 32.5,1.09375 32.5,-4 C32.5,-5.40625 32.2031,-6.79688 31.5,-8.09375"/>
<path class="Note" transform="matrix(2.23937,0,0,2.23937,3970.79,630.709)" d="M31.5,-8.09375 C29.7031,-11.4063 25.9063,-13.2031 21.2969,-13.2031 C17.9063,-13.2031 14.2031,-12.2031 10.5938,-10.2969 C4,-6.79688 0,-0.90625 0,4.20313 C0,5.59375 0.296875,7 1,8.29688 C2.79688,11.5938 6.59375,13.2969 11.2031,13.2969 C14.5938,13.2969 18.2969,12.4063 21.9063,10.5 C28.5,7 32.5,1.09375 32.5,-4 C32.5,-5.40625 32.2031,-6.79688 31.5,-8.09375"/>
<path class="Note" transform="matrix(2.23937,0,0,2.23937,576.701,1445.58)" d="M31.5,-8.09375 C29.7031,-11.4063 25.9063,-13.2031 21.2969,-13.2031 C17.9063,-13.2031 14.2031,-12.2031 10.5938,-10.2969 C4,-6.79688 0,-0.90625 0,4.20313 C0,5.59375 0.296875,7 1,8.29688 C2.79688,11.5938 6.59375,13.2969 11.2031,13.2969 C14.5938,13.2969 18.2969,12.4063 21.9063,10.5 C28.5,7 32.5,1.09375 32.5,-4 C32.5,-5.40625 32.2031,-6.79688 31.5,-8.09375"/>
<path class="Note" transform="matrix(2.23937,0,0,2.23937,872.258,1417.59)" d="M31.5,-8.09375 C29.7031,-11.4063 25.9063,-13.2031 21.2969,-13.2031 C17.9063,-13.2031 14.2031,-12.2031 10.5938,-10.2969 C4,-6.79688 0,-0.90625 0,4.20313 C0,5.59375 0.296875,7 1,8.29688 C2.79688,11.5938 6.59375,13.2969 11.2031,13.2969 C14.5938,13.2969 18.2969,12.4063 21.9063,10.5 C28.5,7 32.5,1.09375 32.5,-4 C32.5,-5.40625 32.2031,-6.79688 31.5,-8.09375"/>
<path class="Note" transform="matrix(2.23937,0,0,2.23937,985.934,1389.6)" d="M31.5,-8.09375 C29.7031,-11.4063 25.9063,-13.2031 21.2969,-13.2031 C17.9063,-13.2031 14.2031,-12.2031 10.5938,-10.2969 C4,-6.79688 0,-0.90625 0,4.20313 C0,5.59375 0.296875,7 1,8.29688 C2.79688,11.5938 6.59375,13.2969 11.2031,13.2969 C14.5938,13.2969 18.2969,12.4063 21.9063,10.5 C28.5,7 32.5,1.09375 32.5,-4 C32.5,-5.40625 32.2031,-6.79688 31.5,-8.09375"/>
<path class="Note" transform="matrix(2.23937,0,0,2.23937,1099.61,1417.59)" d="M31.5,-8.09375 C29.7031,-11.4063 25.9063,-13.2031 21.2969,-13.2031 C17.9063,-13.2031 14.2031,-12.2031 10.5938,-10.2969 C4,-6.79688 0,-0.90625 0,4.20313 C0,5.59375 0.296875,7 1,8.29688 C2.79688,11.5938 6.59375,13.2969 11.2031,13.2969 C14.5938,13.2969 18.2969,12.4063 21.9063,10.5 C28.5,7 32.5,1.09375 32.5,-4 C32.5,-5.40625 32.2031,-6.79688 31.5,-8.09375"/>
<path class="Note" transform="matrix(2.23937,0,0,2.23937,1275.72,1445.58)" d="M31.5,-8.09375 C29.7031,-11.4063 25.9063,-13.2031 21.2969,-13.2031 C17.9063,-13.2031 14.2031,-12.2031 10.5938,-10.2969 C4,-6.79688 0,-0.90625 0,4.20313 C0,5.59375 0.296875,7 1,8.29688 C2.79688,11.5938 6.59375,13.2969 11.2031,13.2969 C14.5938,13.2969 18.2969,12.4063 21.9063,10.5 C28.5,7 32.5,1.09375 32.5,-4 C32.5,-5.40625 32.2031,-6.79688 31.5,-8.09375"/>
<path class="Note" transform="matrix(2.23937,0,0,2.23937,1389.39,1473.58)" d="M31.5,-8.09375 C29.7031,-11.4063 25.9063,-13.2031 21.2969,-13.2031 C17.9063,-13.2031 14.2031,-12.2031 10.5938,-10.2969 C4,-6.79688 0,-0.90625 0,4.20313 C0,5.59375 0.296875,7 1,8.29688 C2.79688,11.5938 6.59375,13.2969 11.2031,13.2969 C14.5938,13.2969 18.2969,12.4063 21.9063,10.5 C28.5,7 32.5,1.09375 32.5,-4 C32.5,-5.40625 32.2031,-6.79688 31.5,-8.09375"/>
<path class="Note" transform="matrix(2.23937,0,0,2.23937,1571.27,1473.58)" d="M31.5,-8.09375 C29.7031,-11.4063 25.9063,-13.2031 21.2969,-13.2031 C17.9063,-13.2031 14.2031,-12.2031 10.5938,-10.2969 C4,-6.79688 0,-0.90625 0,4.20313 C0,5.59375 0.296875,7 1,8.29688 C2.79688,11.5938 6.59375,13.2969 11.2031,13.2969 C14.5938,13.2969 18.2969,12.4063 21.9063,10.5 C28.5,7 32.5,1.09375 32.5,-4 C32.5,-5.40625 32.2031,-6.79688 31.5,-8.09375"/>
<path class="Note" transform="matrix(2.23937,0,0,2.23937,1684.95,1473.58)" d="M31.5,-8.09375 C29.7031,-11.4063 25.9063,-13.2031 21.2969,-13.2031 C17.9063,-13.2031 14.2031,-12.2031 10.5938,-10.2969 C4,-6.79688 0,-0.90625 0,4.20313 C0,5.59375 0.296875,7 1,8.29688 C2.79688,11.5938 6.59375,13.2969 11.2031,13.2969 C14.5938,13.2969 18.2969,12.4063 21.9063,10.5 C28.5,7 32.5,1.09375 32.5,-4 C32.5,-5.40625 32.2031,-6.79688 31.5,-8.09375"/>
<path class="Note" transform="matrix(2.23937,0,0,2.23937,1798.62,1473.58)" d="M31.5,-8.09375 C29.7031,-11.4063 25.9063,-13.2031 21.2969,-13.2031 C17.9063,-13.2031 14.2031,-12.2031 10.5938,-10.2969 C4,-6.79688 0,-0.90625 0,4.20313 C0,5.59375 0.296875,7 1,8.29688 C2.79688,11.5938 6.59375,13.2969 11.2031,13.2969 C14.5938,13.2969 18.2969,12.4063 21.9063,10.5 C28.5,7 32.5,1.09375 32.5,-4 C32.5,-5.40625 32.2031,-6.79688 31.5,-8.09375"/>
<path class="Note" transform="matrix(2.23937,0,0,2.23937,1980.51,1473.58)" d="M31.5,-8.09375 C29.7031,-11.4063 25.9063,-13.2031 21.2969,-13.2031 C17.9063,-13.2031 14.2031,-12.2031 10.5938,-10.2969 C4,-6.79688 0,-0.90625 0,4.20313 C0,5.59375 0.296875,7 1,8.29688 C2.79688,11.5938 6.59375,13.2969 11.2031,13.2969 C14.5938,13.2969 18.2969,12.4063 21.9063,10.5 C28.5,7 32.5,1.09375 32.5,-4 C32.5,-5.40625 32.2031,-6.79688 31.5,-8.09375"/>
<path class="Note" transform="matrix(2.23937,0,0,2.23937,2094.18,1473.58)" d="M31.5,-8.09375 C29.7031,-11.4063 25.9063,-13.2031 21.2969,-13.2031 C17.9063,-13.2031 14.2031,-12.2031 10.5938,-10.2969 C4,-6.79688 0,-0.90625 0,4.20313 C0,5.59375 0.296875,7 1,8.29688 C2.79688,11.5938 6.59375,13.2969 11.2031,13.2969 C14.5938,13.2969 18.2969,12.4063 21.9063,10.5 C28.5,7 32.5,1.09375 32.5,-4 C32.5,-5.40625 32.2031,-6.79688 31.5,-8.09375"/>
<path class="Note" transform="matrix(2.23937,0,0,2.23937,2207.86,1473.58)" d="M31.5,-8.09375 C29.7031,-11.4063 25.9063,-13.2031 21.2969,-13.2031 C17.9063,-13.2031 14.2031,-12.2031 10.5938,-10.2969 C4,-6.79688 0,-0.90625 0,4.20313 C0,5.59375 0.296875,7 1,8.29688 C2.79688,11.5938 6.59375,13.2969 11.2031,13.2969 C14.5938,13.2969 18.2969,12.4063 21.9063,10.5 C28.5,7 32.5,1.09375 32.5,-4 C32.5,-5.40625 32.2031,-6.79688 31.5,-8.09375"/>
<path class="Note" transform="matrix(2.23937,0,0,2.23937,2458.65,1473.58)" d="M31.5,-8.09375 C29.7031,-11.4063 25.9063,-13.2031 21.2969,-13.2031 C17.9063,-13.2031 14.2031,-12.2031 10.5938,-10.2969 C4,-6.79688 0,-0.90625 0,4.20313 C0,5.59375 0.296875,7 1,8.29688 C2.79688,11.5938 6.59375,13.2969 11.2031,13.2969 C14.5938,13.2969 18.2969,12.4063 21.9063,10.5 C28.5,7 32.5,1.09375 32.5,-4 C32.5,-5.40625 32.2031,-6.79688 31.5,-8.09375"/>
<path class="Note" transform="matrix(2.23937,0,0,2.23937,2803.43,1473.58)" d="M31.5,-8.09375 C29.7031,-11.4063 25.9063,-13.2031 21.2969,-13.2031 C17.9063,-13.2031 14.2031,-12.2031 10.5938,-10.2969 C4,-6.79688 0,-0.90625 0,4.20313 C0,5.59375 0.296875,7 1,8.29688 C2.79688,11.5938 6.59375,13.2969 11.2031,13.2969 C14.5938,13.2969 18.2969,12.4063 21.9063,10.5 C28.5,7 32.5,1.09375 32.5,-4 C32.5,-5.40625 32.2031,-6.79688 31.5,-8.09375"/>
<path class="Note" transform="matrix(2.23937,0,0,2.23937,2979.54,1445.58)" d="M31.5,-8.09375 C29.7031,-11.4063 25.9063,-13.2031 21.2969,-13.2031 C17.9063,-13.2031 14.2031,-12.2031 10.5938,-10.2969 C4,-6.79688 0,-0.90625 0,4.20313 C0,5.59375 0.296875,7 1,8.29688 C2.79688,11.5938 6.59375,13.2969 11.2031,13.2969 C14.5938,13.2969 18.2969,12.4063 21.9063,10.5 C28.5,7 32.5,1.09375 32.5,-4 C32.5,-5.40625 32.2031,-6.79688 31.5,-8.09375"/>
<path class="Note" transform="matrix(2.23937,0,0,2.23937,3087.28,1417.59)" d="M31.5,-8.09375 C29.7031,-11.4063 25.9063,-13.2031 21.2969,-13.2031 C17.9063,-13.2031 14.2031,-12.2031 10.5938,-10.2969 C4,-6.79688 0,-0.90625 0,4.20313 C0,5.59375 0.296875,7 1,8.29688 C2.79688,11.5938 6.59375,13.2969 11.2031,13.2969 C14.5938,13.2969 18.2969,12.4063 21.9063,10.5 C28.5,7 32.5,1.09375 32.5,-4 C32.5,-5.40625 32.2031,-6.79688 31.5,-8.09375"/>
<path class="Note" transform="matrix(2.23937,0,0,2.23937,3195.03,1445.58)" d="M31.5,-8.09375 C29.7031,-11.4063 25.9063,-13.2031 21.2969,-13.2031 C17.9063,-13.2031 14.2031,-12.2031 10.5938,-10.2969 C4,-6.79688 0,-0.90625 0,4.20313 C0,5.59375 0.296875,7 1,8.29688 C2.79688,11.5938 6.59375,13.2969 11.2031,13.2969 C14.5938,13.2969 18.2969,12.4063 21.9063,10.5 C28.5,7 32.5,1.09375 32.5,-4 C32.5,-5.40625 32.2031,-6.79688 31.5,-8.09375"/>
<path class="Note" transform="matrix(2.23937,0,0,2.23937,3367.42,1445.58)" d="M31.5,-8.09375 C29.7031,-11.4063 25.9063,-13.2031 21.2969,-13.2031 C17.9063,-13.2031 14.2031,-12.2031 10.5938,-10.2969 C4,-6.79688 0,-0.90625 0,4.20313 C0,5.59375 0.296875,7 1,8.29688 C2.79688,11.5938 6.59375,13.2969 11.2031,13.2969 C14.5938,13.2969 18.2969,12.4063 21.9063,10.5 C28.5,7 32.5,1.09375 32.5,-4 C32.5,-5.40625 32.2031,-6.79688 31.5,-8.09375"/>
<path class="Note" transform="matrix(2.23937,0,0,2.23937,3475.16,1445.58)" d="M31.5,-8.09375 C29.7031,-11.4063 25.9063,-13.2031 21.2969,-13.2031 C17.9063,-13.2031 14.2031,-12.2031 10.5938,-10.2969 C4,-6.79688 0,-0.90625 0,4.20313 C0,5.59375 0.296875,7 1,8.29688 C2.79688,11.5938 6.59375,13.2969 11.2031,13.2969 C14.5938,13.2969 18.2969,12.4063 21.9063,10.5 C28.5,7 32.5,1.09375 32.5,-4 C32.5,-5.40625 32.2031,-6.79688 31.5,-8.09375"/>
<path class="Note" transform="matrix(2.23937,0,0,2.23937,3582.91,1445.58)" d="M31.5,-8.09375 C29.7031,-11.4063 25.9063,-13.2031 21.2969,-13.2031 C17.9063,-13.2031 14.2031,-12.2031 10.5938,-10.2969 C4,-6.79688 0,-0.90625 0,4.20313 C0,5.59375 0.296875,7 1,8.29688 C2.79688,11.5938 6.59375,13.2969 11.2031,13.2969 C14.5938,13.2969 18.2969,12.4063 21.9063,10.5 C28.5,7 32.5,1.09375 32.5,-4 C32.5,-5.40625 32.2031,-6.79688 31.5,-8.09375"/>
<path class="Note" transform="matrix(2.23937,0,0,2.23937,3755.3,1445.58)" d="M31.5,-8.09375 C29.7031,-11.4063 25.9063,-13.2031 21.2969,-13.2031 C17.9063,-13.2031 14.2031,-12.2031 10.5938,-10.2969 C4,-6.79688 0,-0.90625 0,4.20313 C0,5.59375 0.296875,7 1,8.29688 C2.79688,11.5938 6.59375,13.2969 11.2031,13.2969 C14.5938,13.2969 18.2969,12.4063 21.9063,10.5 C28.5,7 32.5,1.09375 32.5,-4 C32.5,-5.40625 32.2031,-6.79688 31.5,-8.09375"/>
<path class="Note" transform="matrix(2.23937,0,0,2.23937,3863.05,1445.58)" d="M31.5,-8.09375 C29.7031,-11.4063 25.9063,-13.2031 21.2969,-13.2031 C17.9063,-13.2031 14.2031,-12.2031 10.5938,-10.2969 C4,-6.79688 0,-0.90625 0,4.20313 C0,5.59375 0.296875,7 1,8.29688 C2.79688,11.5938 6.59375,13.2969 11.2031,13.2969 C14.5938,13.2969 18.2969,12.4063 21.9063,10.5 C28.5,7 32.5,1.09375 32.5,-4 C32.5,-5.40625 32.2031,-6.79688 31.5,-8.09375"/>
<path class="Note" transform="matrix(2.23937,0,0,2.23937,3970.79,1445.58)" d="M31.5,-8.09375 C29.7031,-11.4063 25.9063,-13.2031 21.2969,-13.2031 C17.9063,-13.2031 14.2031,-12.2031 10.5938,-10.2969 C4,-6.79688 0,-0.90625 0,4.20313 C0,5.59375 0.296875,7 1,8.29688 C2.79688,11.5938 6.59375,13.2969 11.2031,13.2969 C14.5938,13.2969 18.2969,12.4063 21.9063,10.5 C28.5,7 32.5,1.09375 32.5,-4 C32.5,-5.40625 32.2031,-6.79688 31.5,-8.09375"/>
<path class="Note" transform="matrix(2.23937,0,0,2.23937,576.701,2260.46)" d="M31.5,-8.09375 C29.7031,-11.4063 25.9063,-13.2031 21.2969,-13.2031 C17.9063,-13.2031 14.2031,-12.2031 10.5938,-10.2969 C4,-6.79688 0,-0.90625 0,4.20313 C0,5.59375 0.296875,7 1,8.29688 C2.79688,11.5938 6.59375,13.2969 11.2031,13.2969 C14.5938,13.2969 18.2969,12.4063 21.9063,10.5 C28.5,7 32.5,1.09375 32.5,-4 C32.5,-5.40625 32.2031,-6.79688 31.5,-8.09375"/>
<path class="Note" transform="matrix(2.23937,0,0,2.23937,1042.45,2316.44)" d="M31.5,-8.09375 C29.7031,-11.4063 25.9063,-13.2031 21.2969,-13.2031 C17.9063,-13.2031 14.2031,-12.2031 10.5938,-10.2969 C4,-6.79688 0,-0.90625 0,4.20313 C0,5.59375 0.296875,7 1,8.29688 C2.79688,11.5938 6.59375,13.2969 11.2031,13.2969 C14.5938,13.2969 18.2969,12.4063 21.9063,10.5 C28.5,7 32.5,1.09375 32.5,-4 C32.5,-5.40625 32.2031,-6.79688 31.5,-8.09375"/>
<path class="Note" transform="matrix(2.23937,0,0,2.23937,1188,2288.45)" d="M31.5,-8.09375 C29.7031,-11.4063 25.9063,-13.2031 21.2969,-13.2031 C17.9063,-13.2031 14.2031,-12.2031 10.5938,-10.2969 C4,-6.79688 0,-0.90625 0,4.20313 C0,5.59375 0.296875,7 1,8.29688 C2.79688,11.5938 6.59375,13.2969 11.2031,13.2969 C14.5938,13.2969 18.2969,12.4063 21.9063,10.5 C28.5,7 32.5,1.09375 32.5,-4 C32.5,-5.40625 32.2031,-6.79688 31.5,-8.09375"/>
<path class="Note" transform="matrix(2.23937,0,0,2.23937,1333.55,2316.44)" d="M31.5,-8.09375 C29.7031,-11.4063 25.9063,-13.2031 21.2969,-13.2031 C17.9063,-13.2031 14.2031,-12.2031 10.5938,-10.2969 C4,-6.79688 0,-0.90625 0,4.20313 C0,5.59375 0.296875,7 1,8.29688 C2.79688,11.5938 6.59375,13.2969 11.2031,13.2969 C14.5938,13.2969 18.2969,12.4063 21.9063,10.5 C28.5,7 32.5,1.09375 32.5,-4 C32.5,-5.40625 32.2031,-6.79688 31.5,-8.09375"/>
<path class="Note" transform="matrix(2.23937,0,0,2.23937,1479.09,2232.47)" d="M31.5,-8.09375 C29.7031,-11.4063 25.9063,-13.2031 21.2969,-13.2031 C17.9063,-13.2031 14.2031,-12.2031 10.5938,-10.2969 C4,-6.79688 0,-0.90625 0,4.20313 C0,5.59375 0.296875,7 1,8.29688 C2.79688,11.5938 6.59375,13.2969 11.2031,13.2969 C14.5938,13.2969 18.2969,12.4063 21.9063,10.5 C28.5,7 32.5,1.09375 32.5,-4 C32.5,-5.40625 32.2031,-6.79688 31.5,-8.09375"/>
<path class="Note" transform="matrix(2.23937,0,0,2.23937,1711.97,2232.47)" d="M31.5,-8.09375 C29.7031,-11.4063 25.9063,-13.2031 21.2969,-13.2031 C17.9063,-13.2031 14.2031,-12.2031 10.5938,-10.2969 C4,-6.79688 0,-0.90625 0,4.20313 C0,5.59375 0.296875,7 1,8.29688 C2.79688,11.5938 6.59375,13.2969 11.2031,13.2969 C14.5938,13.2969 18.2969,12.4063 21.9063,10.5 C28.5,7 32.5,1.09375 32.5,-4 C32.5,-5.40625 32.2031,-6.79688 31.5,-8.09375"/>
<path class="Note" transform="matrix(2.23937,0,0,2.23937,1857.52,2232.47)" d="M31.5,-8.09375 C29.7031,-11.4063 25.9063,-13.2031 21.2969,-13.2031 C17.9063,-13.2031 14.2031,-12.2031 10.5938,-10.2969 C4,-6.79688 0,-0.90625 0,4.20313 C0,5.59375 0.296875,7 1,8.29688 C2.79688,11.5938 6.59375,13.2969 11.2031,13.2969 C14.5938,13.2969 18.2969,12.4063 21.9063,10.5 C28.5,7 32.5,1.09375 32.5,-4 C32.5,-5.40625 32.2031,-6.79688 31.5,-8.09375"/>
<path class="Note" transform="matrix(2.23937,0,0,2.23937,2003.06,2232.47)" d="M31.5,-8.09375 C29.7031,-11.4063 25.9063,-13.2031 21.2969,-13.2031 C17.9063,-13.2031 14.2031,-12.2031 10.5938,-10.2969 C4,-6.79688 0,-0.90625 0,4.20313 C0,5.59375 0.296875,7 1,8.29688 C2.79688,11.5938 6.59375,13.2969 11.2031,13.2969 C14.5938,13.2969 18.2969,12.4063 21.9063,10.5 C28.5,7 32.5,1.09375 32.5,-4 C32.5,-5.40625 32.2031,-6.79688 31.5,-8.09375"/>
<path class="Note" transform="matrix(2.23937,0,0,2.23937,2235.94,2232.47)" d="M31.5,-8.09375 C29.7031,-11.4063 25.9063,-13.2031 21.2969,-13.2031 C17.9063,-13.2031 14.2031,-12.2031 10.5938,-10.2969 C4,-6.79688 0,-0.90625 0,4.20313 C0,5.59375 0.296875,7 1,8.29688 C2.79688,11.5938 6.59375,13.2969 11.2031,13.2969 C14.5938,13.2969 18.2969,12.4063 21.9063,10.5 C28.5,7 32.5,1.09375 32.5,-4 C32.5,-5.40625 32.2031,-6.79688 31.5,-8.09375"/>
<path class="Note" transform="matrix(2.23937,0,0,2.23937,2381.49,2232.47)" d="M31.5,-8.09375 C29.7031,-11.4063 25.9063,-13.2031 21.2969,-13.2031 C17.9063,-13.2031 14.2031,-12.2031 10.5938,-10.2969 C4,-6.79688 0,-0.90625 0,4.20313 C0,5.59375 0.296875,7 1,8.29688 C2.79688,11.5938 6.59375,13.2969 11.2031,13.2969 C14.5938,13.2969 18.2969,12.4063 21.9063,10.5 C28.5,7 32.5,1.09375 32.5,-4 C32.5,-5.40625 32.2031,-6.79688 31.5,-8.09375"/>
<path class="Note" transform="matrix(2.23937,0,0,2.23937,2527.03,2232.47)" d="M31.5,-8.09375 C29.7031,-11.4063 25.9063,-13.2031 21.2969,-13.2031 C17.9063,-13.2031 14.2031,-12.2031 10.5938,-10.2969 C4,-6.79688 0,-0.90625 0,4.20313 C0,5.59375 0.296875,7 1,8.29688 C2.79688,11.5938 6.59375,13.2969 11.2031,13.2969 C14.5938,13.2969 18.2969,12.4063 21.9063,10.5 C28.5,7 32.5,1.09375 32.5,-4 C32.5,-5.40625 32.2031,-6.79688 31.5,-8.09375"/>
<path class="Note" transform="matrix(2.23937,0,0,2.23937,2911.28,2260.46)" d="M31.5,-8.09375 C29.7031,-11.4063 25.9063,-13.2031 21.2969,-13.2031 C17.9063,-13.2031 14.2031,-12.2031 10.5938,-10.2969 C4,-6.79688 0,-0.90625 0,4.20313 C0,5.59375 0.296875,7 1,8.29688 C2.79688,11.5938 6.59375,13.2969 11.2031,13.2969 C14.5938,13.2969 18.2969,12.4063 21.9063,10.5 C28.5,7 32.5,1.09375 32.5,-4 C32.5,-5.40625 32.2031,-6.79688 31.5,-8.09375"/>
<path class="Clef" transform="matrix(2.23937,0,0,2.23937,115.653,630.709)" d="M63.3594,-5.92188 C62.125,-11.3438 59.4844,-15.1719 58.7031,-16.2031 C55.5156,-20.4844 51.5,-23.3281 46.8125,-24.6875 C43.7031,-25.5625 40.7031,-25.6875 38.2813,-25.5 C37.2344,-31.5156 36.2344,-37.3906 35.3281,-42.8438 C40.7813,-49.0156 44.4063,-54.8125 46.6875,-59.1094 C50.1563,-65.6875 51.2969,-70.2656 51.3594,-70.4688 C53.0781,-75.6875 53.4375,-83.3906 52.3281,-91.5938 C51.3281,-99.1406 49.2344,-105.859 46.875,-109.109 C45.8594,-110.531 44.7969,-111.266 43.7656,-111.266 C42.5469,-111.266 40.0313,-110.031 37.1406,-107.25 C34.8438,-105.063 31.5781,-101.172 29.0156,-95.1563 C26.0156,-88.0938 25.7969,-78.6094 26.1563,-71.8906 C26.5313,-64.6094 27.6406,-58.9219 27.6563,-58.875 C27.6719,-58.7813 27.9375,-57.2813 28.375,-54.7188 C28.1563,-54.4844 27.9063,-54.2656 27.6563,-54.0156 C26.625,-53.0156 25.4375,-51.8906 24.0469,-50.5 C23.1875,-49.6406 22.2344,-48.7344 21.2344,-47.7656 C12.7969,-39.625 0,-27.2969 0,-8.14063 C0,-3.4375 0.90625,0.984375 2.6875,5 C4.26563,8.59375 6.5625,11.875 9.5,14.75 C17.2344,22.3125 27.8281,25.5156 34.875,25.3594 C37.8281,25.2813 40.4688,25.0469 42.8594,24.5938 C44.6875,34.2031 45.8281,41.2344 45.8594,46.5781 C45.9063,53.0938 44.25,57.0781 40.3594,59.8438 C37.9219,61.5781 35.1094,62.5313 32.0156,62.6719 C29.4219,62.7969 27.1563,62.3281 25.7344,61.9219 L25.7188,61.9219 C25.7188,61.9219 25.4375,61.8281 25.4219,61.6406 C25.4063,61.4531 25.7656,61.4063 25.7656,61.4063 L25.7969,61.4063 C27.7188,60.9688 31.2813,59.7344 33.6406,56.4375 C35.4375,53.9063 36.3125,49.2813 34.4688,45.3438 C33.3594,42.9531 30.8594,40 25.2344,39.5469 C22.7344,39.3438 20.4688,39.8594 18.4688,41.0625 C16.6563,42.1406 15.1563,43.7813 14.1094,45.7813 C11.6563,50.4844 12.1094,56.2188 15.2344,60.0625 C18.2031,63.6875 22.8125,66 28.25,66.5781 C29.1094,66.6719 29.9531,66.7031 30.7969,66.7031 C35.2344,66.7031 39.625,65.5 43.2031,63.2969 C46.8594,60.7188 48.9844,56.7344 49.6563,51.1094 C50.2188,46.4688 49.8281,40.5469 48.4375,32.4688 C48.0781,30.375 47.5313,27.3438 46.875,23.5938 C52.625,21.6719 56.7813,18.0938 60.5469,12.2344 C63.8438,6.5 64.7813,0.390625 63.3594,-5.92188 M29.1406,20.2969 C24.5,19.0781 20.0625,16.5781 16.3125,13.0625 C15,11.8438 13.125,9.67188 11.6563,6.28125 C10.2969,3.10938 9.625,-0.328125 9.6875,-3.90625 C9.75,-8.60938 11.0625,-13.4375 13.5625,-18.2188 C16.4844,-23.7969 21.0469,-29.3281 27.1094,-34.6563 C28.5625,-35.9375 29.9375,-37.2188 31.2188,-38.5 C31.9844,-34.2344 32.8125,-29.5469 33.6875,-24.6719 C29.8438,-23.4063 25.0938,-20.25 21.9844,-14.5938 C18.4375,-8.03125 18.5781,-2.5 19.3125,0.984375 C20.25,5.4375 22.7813,9.20313 26.2344,11.2969 C27.1719,11.8594 31.2969,13.9844 33.1406,13.4063 C33.5156,13.2969 33.7813,13.0625 33.9219,12.7344 C34.4375,11.5625 33.4063,10.9219 31.8594,9.96875 C31.25,9.59375 30.5781,9.17188 29.8594,8.64063 C26.5313,6.15625 25.0781,1.70313 26.1563,-2.6875 C26.7344,-5.07813 28.0156,-7.25 29.8594,-8.95313 C31.5156,-10.5 33.5625,-11.5938 35.9375,-12.2344 C37.9844,-0.984375 40.0469,10.1719 41.6875,18.5313 C41.8125,19.2188 41.9531,19.8906 42.0781,20.5625 C37.7031,21.5 33.3594,21.4063 29.1406,20.2969 M40.4688,-12.9063 C50.8125,-13.375 55.0781,-5.9375 55.9688,-1.10938 C56.4375,1.4375 56.4375,5.875 54.8906,10.0938 C53.7188,13.2656 51.2656,17.3438 46.125,19.4063 C46.0625,18.9844 45.9844,18.5469 45.9063,18.125 C44.3594,9.34375 42.4219,-1.65625 40.4688,-12.9063 M33.1406,-83.8594 C34.9219,-89.5938 37.6563,-92.8438 39.6563,-94.5781 C41.4063,-96.0938 43.0469,-96.8125 43.9688,-96.8125 C44.1094,-96.8125 44.2344,-96.7813 44.3281,-96.75 C44.7969,-96.6094 45.3281,-96.0469 45.7969,-95.1719 C48.1094,-90.8906 47.3594,-84.1719 46.0156,-79.7344 C44.3906,-74.3281 41.4688,-68.7188 32.6719,-59.1094 C32.5,-60.2188 32.3438,-61.2656 32.1875,-62.25 C30.9375,-70.5313 31.2656,-77.8125 33.1406,-83.8594"/>
<path class="Clef" transform="matrix(2.23937,0,0,2.23937,115.653,1445.58)" d="M63.3594,-5.92188 C62.125,-11.3438 59.4844,-15.1719 58.7031,-16.2031 C55.5156,-20.4844 51.5,-23.3281 46.8125,-24.6875 C43.7031,-25.5625 40.7031,-25.6875 38.2813,-25.5 C37.2344,-31.5156 36.2344,-37.3906 35.3281,-42.8438 C40.7813,-49.0156 44.4063,-54.8125 46.6875,-59.1094 C50.1563,-65.6875 51.2969,-70.2656 51.3594,-70.4688 C53.0781,-75.6875 53.4375,-83.3906 52.3281,-91.5938 C51.3281,-99.1406 49.2344,-105.859 46.875,-109.109 C45.8594,-110.531 44.7969,-111.266 43.7656,-111.266 C42.5469,-111.266 40.0313,-110.031 37.1406,-107.25 C34.8438,-105.063 31.5781,-101.172 29.0156,-95.1563 C26.0156,-88.0938 25.7969,-78.6094 26.1563,-71.8906 C26.5313,-64.6094 27.6406,-58.9219 27.6563,-58.875 C27.6719,-58.7813 27.9375,-57.2813 28.375,-54.7188 C28.1563,-54.4844 27.9063,-54.2656 27.6563,-54.0156 C26.625,-53.0156 25.4375,-51.8906 24.0469,-50.5 C23.1875,-49.6406 22.2344,-48.7344 21.2344,-47.7656 C12.7969,-39.625 0,-27.2969 0,-8.14063 C0,-3.4375 0.90625,0.984375 2.6875,5 C4.26563,8.59375 6.5625,11.875 9.5,14.75 C17.2344,22.3125 27.8281,25.5156 34.875,25.3594 C37.8281,25.2813 40.4688,25.0469 42.8594,24.5938 C44.6875,34.2031 45.8281,41.2344 45.8594,46.5781 C45.9063,53.0938 44.25,57.0781 40.3594,59.8438 C37.9219,61.5781 35.1094,62.5313 32.0156,62.6719 C29.4219,62.7969 27.1563,62.3281 25.7344,61.9219 L25.7188,61.9219 C25.7188,61.9219 25.4375,61.8281 25.4219,61.6406 C25.4063,61.4531 25.7656,61.4063 25.7656,61.4063 L25.7969,61.4063 C27.7188,60.9688 31.2813,59.7344 33.6406,56.4375 C35.4375,53.9063 36.3125,49.2813 34.4688,45.3438 C33.3594,42.9531 30.8594,40 25.2344,39.5469 C22.7344,39.3438 20.4688,39.8594 18.4688,41.0625 C16.6563,42.1406 15.1563,43.7813 14.1094,45.7813 C11.6563,50.4844 12.1094,56.2188 15.2344,60.0625 C18.2031,63.6875 22.8125,66 28.25,66.5781 C29.1094,66.6719 29.9531,66.7031 30.7969,66.7031 C35.2344,66.7031 39.625,65.5 43.2031,63.2969 C46.8594,60.7188 48.9844,56.7344 49.6563,51.1094 C50.2188,46.4688 49.8281,40.5469 48.4375,32.4688 C48.0781,30.375 47.5313,27.3438 46.875,23.5938 C52.625,21.6719 56.7813,18.0938 60.5469,12.2344 C63.8438,6.5 64.7813,0.390625 63.3594,-5.92188 M29.1406,20.2969 C24.5,19.0781 20.0625,16.5781 16.3125,13.0625 C15,11.8438 13.125,9.67188 11.6563,6.28125 C10.2969,3.10938 9.625,-0.328125 9.6875,-3.90625 C9.75,-8.60938 11.0625,-13.4375 13.5625,-18.2188 C16.4844,-23.7969 21.0469,-29.3281 27.1094,-34.6563 C28.5625,-35.9375 29.9375,-37.2188 31.2188,-38.5 C31.9844,-34.2344 32.8125,-29.5469 33.6875,-24.6719 C29.8438,-23.4063 25.0938,-20.25 21.9844,-14.5938 C18.4375,-8.03125 18.5781,-2.5 19.3125,0.984375 C20.25,5.4375 22.7813,9.20313 26.2344,11.2969 C27.1719,11.8594 31.2969,13.9844 33.1406,13.4063 C33.5156,13.2969 33.7813,13.0625 33.9219,12.7344 C34.4375,11.5625 33.4063,10.9219 31.8594,9.96875 C31.25,9.59375 30.5781,9.17188 29.8594,8.64063 C26.5313,6.15625 25.0781,1.70313 26.1563,-2.6875 C26.7344,-5.07813 28.0156,-7.25 29.8594,-8.95313 C31.5156,-10.5 33.5625,-11.5938 35.9375,-12.2344 C37.9844,-0.984375 40.0469,10.1719 41.6875,18.5313 C41.8125,19.2188 41.9531,19.8906 42.0781,20.5625 C37.7031,21.5 33.3594,21.4063 29.1406,20.2969 M40.4688,-12.9063 C50.8125,-13.375 55.0781,-5.9375 55.9688,-1.10938 C56.4375,1.4375 56.4375,5.875 54.8906,10.0938 C53.7188,13.2656 51.2656,17.3438 46.125,19.4063 C46.0625,18.9844 45.9844,18.5469 45.9063,18.125 C44.3594,9.34375 42.4219,-1.65625 40.4688,-12.9063 M33.1406,-83.8594 C34.9219,-89.5938 37.6563,-92.8438 39.6563,-94.5781 C41.4063,-96.0938 43.0469,-96.8125 43.9688,-96.8125 C44.1094,-96.8125 44.2344,-96.7813 44.3281,-96.75 C44.7969,-96.6094 45.3281,-96.0469 45.7969,-95.1719 C48.1094,-90.8906 47.3594,-84.1719 46.0156,-79.7344 C44.3906,-74.3281 41.4688,-68.7188 32.6719,-59.1094 C32.5,-60.2188 32.3438,-61.2656 32.1875,-62.25 C30.9375,-70.5313 31.2656,-77.8125 33.1406,-83.8594"/>
<path class="Clef" transform="matrix(2.23937,0,0,2.23937,115.653,2260.46)" d="M63.3594,-5.92188 C62.125,-11.3438 59.4844,-15.1719 58.7031,-16.2031 C55.5156,-20.4844 51.5,-23.3281 46.8125,-24.6875 C43.7031,-25.5625 40.7031,-25.6875 38.2813,-25.5 C37.2344,-31.5156 36.2344,-37.3906 35.3281,-42.8438 C40.7813,-49.0156 44.4063,-54.8125 46.6875,-59.1094 C50.1563,-65.6875 51.2969,-70.2656 51.3594,-70.4688 C53.0781,-75.6875 53.4375,-83.3906 52.3281,-91.5938 C51.3281,-99.1406 49.2344,-105.859 46.875,-109.109 C45.8594,-110.531 44.7969,-111.266 43.7656,-111.266 C42.5469,-111.266 40.0313,-110.031 37.1406,-107.25 C34.8438,-105.063 31.5781,-101.172 29.0156,-95.1563 C26.0156,-88.0938 25.7969,-78.6094 26.1563,-71.8906 C26.5313,-64.6094 27.6406,-58.9219 27.6563,-58.875 C27.6719,-58.7813 27.9375,-57.2813 28.375,-54.7188 C28.1563,-54.4844 27.9063,-54.2656 27.6563,-54.0156 C26.625,-53.0156 25.4375,-51.8906 24.0469,-50.5 C23.1875,-49.6406 22.2344,-48.7344 21.2344,-47.7656 C12.7969,-39.625 0,-27.2969 0,-8.14063 C0,-3.4375 0.90625,0.984375 2.6875,5 C4.26563,8.59375 6.5625,11.875 9.5,14.75 C17.2344,22.3125 27.8281,25.5156 34.875,25.3594 C37.8281,25.2813 40.4688,25.0469 42.8594,24.5938 C44.6875,34.2031 45.8281,41.2344 45.8594,46.5781 C45.9063,53.0938 44.25,57.0781 40.3594,59.8438 C37.9219,61.5781 35.1094,62.5313 32.0156,62.6719 C29.4219,62.7969 27.1563,62.3281 25.7344,61.9219 L25.7188,61.9219 C25.7188,61.9219 25.4375,61.8281 25.4219,61.6406 C25.4063,61.4531 25.7656,61.4063 25.7656,61.4063 L25.7969,61.4063 C27.7188,60.9688 31.2813,59.7344 33.6406,56.4375 C35.4375,53.9063 36.3125,49.2813 34.4688,45.3438 C33.3594,42.9531 30.8594,40 25.2344,39.5469 C22.7344,39.3438 20.4688,39.8594 18.4688,41.0625 C16.6563,42.1406 15.1563,43.7813 14.1094,45.7813 C11.6563,50.4844 12.1094,56.2188 15.2344,60.0625 C18.2031,63.6875 22.8125,66 28.25,66.5781 C29.1094,66.6719 29.9531,66.7031 30.7969,66.7031 C35.2344,66.7031 39.625,65.5 43.2031,63.2969 C46.8594,60.7188 48.9844,56.7344 49.6563,51.1094 C50.2188,46.4688 49.8281,40.5469 48.4375,32.4688 C48.0781,30.375 47.5313,27.3438 46.875,23.5938 C52.625,21.6719 56.7813,18.0938 60.5469,12.2344 C63.8438,6.5 64.7813,0.390625 63.3594,-5.92188 M29.1406,20.2969 C24.5,19.0781 20.0625,16.5781 16.3125,13.0625 C15,11.8438 13.125,9.67188 11.6563,6.28125 C10.2969,3.10938 9.625,-0.328125 9.6875,-3.90625 C9.75,-8.60938 11.0625,-13.4375 13.5625,-18.2188 C16.4844,-23.7969 21.0469,-29.3281 27.1094,-34.6563 C28.5625,-35.9375 29.9375,-37.2188 31.2188,-38.5 C31.9844,-34.2344 32.8125,-29.5469 33.6875,-24.6719 C29.8438,-23.4063 25.0938,-20.25 21.9844,-14.5938 C18.4375,-8.03125 18.5781,-2.5 19.3125,0.984375 C20.25,5.4375 22.7813,9.20313 26.2344,11.2969 C27.1719,11.8594 31.2969,13.9844 33.1406,13.4063 C33.5156,13.2969 33.7813,13.0625 33.9219,12.7344 C34.4375,11.5625 33.4063,10.9219 31.8594,9.96875 C31.25,9.59375 30.5781,9.17188 29.8594,8.64063 C26.5313,6.15625 25.0781,1.70313 26.1563,-2.6875 C26.7344,-5.07813 28.0156,-7.25 29.8594,-8.95313 C31.5156,-10.5 33.5625,-11.5938 35.9375,-12.2344 C37.9844,-0.984375 40.0469,10.1719 41.6875,18.5313 C41.8125,19.2188 41.9531,19.8906 42.0781,20.5625 C37.7031,21.5 33.3594,21.4063 29.1406,20.2969 M40.4688,-12.9063 C50.8125,-13.375 55.0781,-5.9375 55.9688,-1.10938 C56.4375,1.4375 56.4375,5.875 54.8906,10.0938 C53.7188,13.2656 51.2656,17.3438 46.125,19.4063 C46.0625,18.9844 45.9844,18.5469 45.9063,18.125 C44.3594,9.34375 42.4219,-1.65625 40.4688,-12.9063 M33.1406,-83.8594 C34.9219,-89.5938 37.6563,-92.8438 39.6563,-94.5781 C41.4063,-96.0938 43.0469,-96.8125 43.9688,-96.8125 C44.1094,-96.8125 44.2344,-96.7813 44.3281,-96.75 C44.7969,-96.6094 45.3281,-96.0469 45.7969,-95.1719 C48.1094,-90.8906 47.3594,-84.1719 46.0156,-79.7344 C44.3906,-74.3281 41.4688,-68.7188 32.6719,-59.1094 C32.5,-60.2188 32.3438,-61.2656 32.1875,-62.25 C30.9375,-70.5313 31.2656,-77.8125 33.1406,-83.8594"/>
<path class="KeySig" transform="matrix(2.23937,0,0,2.23937,370.907,546.732)" d="M23.2969,-10.5938 C23.9063,-10.7031 24.4063,-11.4063 24.4063,-12 L24.4063,-17.9063 C24.4063,-18.7031 23.7969,-19.2969 23,-19.2969 L22.7969,-19.2969 L19.5,-18.5938 L19.5,-33.5 L16.7031,-33.5 L16.7031,-18 L7.79688,-16.2031 L7.79688,-30.2969 L5,-30.2969 L5,-15.5938 L1.09375,-14.7969 C0.5,-14.7031 0,-14 0,-13.4063 L0,-13.2031 L0,-7.40625 L0,-7.59375 C0,-6.79688 0.59375,-6.20313 1.40625,-6.20313 L1.70313,-6.20313 L5,-6.90625 L5,9.59375 L1.09375,10.4063 C0.5,10.5 0,11.2031 0,11.7969 L0,17.5938 C0,18.4063 0.59375,19 1.40625,19 L1.70313,19 L5,18.2969 L5,33.2031 L7.79688,33.2031 L7.79688,17.7031 L16.7031,15.9063 L16.7031,30 L19.5,30 L19.5,15.2969 L23.2969,14.5938 C23.9063,14.5 24.4063,13.7969 24.4063,13.2031 L24.4063,7.29688 C24.4063,6.5 23.7969,5.90625 23,5.90625 L22.7969,5.90625 L19.5,6.59375 L19.5,-9.90625 L23.2969,-10.5938 M7.79688,9.09375 L7.79688,-7.5 L16.7031,-9.29688 L16.7031,7.20313 L7.79688,9.09375 "/>
<path class="KeySig" transform="matrix(2.23937,0,0,2.23937,314.922,462.756)" d="M23.2969,-10.5938 C23.9063,-10.7031 24.4063,-11.4063 24.4063,-12 L24.4063,-17.9063 C24.4063,-18.7031 23.7969,-19.2969 23,-19.2969 L22.7969,-19.2969 L19.5,-18.5938 L19.5,-33.5 L16.7031,-33.5 L16.7031,-18 L7.79688,-16.2031 L7.79688,-30.2969 L5,-30.2969 L5,-15.5938 L1.09375,-14.7969 C0.5,-14.7031 0,-14 0,-13.4063 L0,-13.2031 L0,-7.40625 L0,-7.59375 C0,-6.79688 0.59375,-6.20313 1.40625,-6.20313 L1.70313,-6.20313 L5,-6.90625 L5,9.59375 L1.09375,10.4063 C0.5,10.5 0,11.2031 0,11.7969 L0,17.5938 C0,18.4063 0.59375,19 1.40625,19 L1.70313,19 L5,18.2969 L5,33.2031 L7.79688,33.2031 L7.79688,17.7031 L16.7031,15.9063 L16.7031,30 L19.5,30 L19.5,15.2969 L23.2969,14.5938 C23.9063,14.5 24.4063,13.7969 24.4063,13.2031 L24.4063,7.29688 C24.4063,6.5 23.7969,5.90625 23,5.90625 L22.7969,5.90625 L19.5,6.59375 L19.5,-9.90625 L23.2969,-10.5938 M7.79688,9.09375 L7.79688,-7.5 L16.7031,-9.29688 L16.7031,7.20313 L7.79688,9.09375 "/>
<path class="KeySig" transform="matrix(2.23937,0,0,2.23937,370.907,1361.61)" d="M23.2969,-10.5938 C23.9063,-10.7031 24.4063,-11.4063 24.4063,-12 L24.4063,-17.9063 C24.4063,-18.7031 23.7969,-19.2969 23,-19.2969 L22.7969,-19.2969 L19.5,-18.5938 L19.5,-33.5 L16.7031,-33.5 L16.7031,-18 L7.79688,-16.2031 L7.79688,-30.2969 L5,-30.2969 L5,-15.5938 L1.09375,-14.7969 C0.5,-14.7031 0,-14 0,-13.4063 L0,-13.2031 L0,-7.40625 L0,-7.59375 C0,-6.79688 0.59375,-6.20313 1.40625,-6.20313 L1.70313,-6.20313 L5,-6.90625 L5,9.59375 L1.09375,10.4063 C0.5,10.5 0,11.2031 0,11.7969 L0,17.5938 C0,18.4063 0.59375,19 1.40625,19 L1.70313,19 L5,18.2969 L5,33.2031 L7.79688,33.2031 L7.79688,17.7031 L16.7031,15.9063 L16.7031,30 L19.5,30 L19.5,15.2969 L23.2969,14.5938 C23.9063,14.5 24.4063,13.7969 24.4063,13.2031 L24.4063,7.29688 C24.4063,6.5 23.7969,5.90625 23,5.90625 L22.7969,5.90625 L19.5,6.59375 L19.5,-9.90625 L23.2969,-10.5938 M7.79688,9.09375 L7.79688,-7.5 L16.7031,-9.29688 L16.7031,7.20313 L7.79688,9.09375 "/>
<path class="KeySig" transform="matrix(2.23937,0,0,2.23937,314.922,1277.63)" d="M23.2969,-10.5938 C23.9063,-10.7031 24.4063,-11.4063 24.4063,-12 L24.4063,-17.9063 C24.4063,-18.7031 23.7969,-19.2969 23,-19.2969 L22.7969,-19.2969 L19.5,-18.5938 L19.5,-33.5 L16.7031,-33.5 L16.7031,-18 L7.79688,-16.2031 L7.79688,-30.2969 L5,-30.2969 L5,-15.5938 L1.09375,-14.7969 C0.5,-14.7031 0,-14 0,-13.4063 L0,-13.2031 L0,-7.40625 L0,-7.59375 C0,-6.79688 0.59375,-6.20313 1.40625,-6.20313 L1.70313,-6.20313 L5,-6.90625 L5,9.59375 L1.09375,10.4063 C0.5,10.5 0,11.2031 0,11.7969 L0,17.5938 C0,18.4063 0.59375,19 1.40625,19 L1.70313,19 L5,18.2969 L5,33.2031 L7.79688,33.2031 L7.79688,17.7031 L16.7031,15.9063 L16.7031,30 L19.5,30 L19.5,15.2969 L23.2969,14.5938 C23.9063,14.5 24.4063,13.7969 24.4063,13.2031 L24.4063,7.29688 C24.4063,6.5 23.7969,5.90625 23,5.90625 L22.7969,5.90625 L19.5,6.59375 L19.5,-9.90625 L23.2969,-10.5938 M7.79688,9.09375 L7.79688,-7.5 L16.7031,-9.29688 L16.7031,7.20313 L7.79688,9.09375 "/>
<path class="KeySig" transform="matrix(2.23937,0,0,2.23937,370.907,2176.48)" d="M23.2969,-10.5938 C23.9063,-10.7031 24.4063,-11.4063 24.4063,-12 L24.4063,-17.9063 C24.4063,-18.7031 23.7969,-19.2969 23,-19.2969 L22.7969,-19.2969 L19.5,-18.5938 L19.5,-33.5 L16.7031,-33.5 L16.7031,-18 L7.79688,-16.2031 L7.79688,-30.2969 L5,-30.2969 L5,-15.5938 L1.09375,-14.7969 C0.5,-14.7031 0,-14 0,-13.4063 L0,-13.2031 L0,-7.40625 L0,-7.59375 C0,-6.79688 0.59375,-6.20313 1.40625,-6.20313 L1.70313,-6.20313 L5,-6.90625 L5,9.59375 L1.09375,10.4063 C0.5,10.5 0,11.2031 0,11.7969 L0,17.5938 C0,18.4063 0.59375,19 1.40625,19 L1.70313,19 L5,18.2969 L5,33.2031 L7.79688,33.2031 L7.79688,17.7031 L16.7031,15.9063 L16.7031,30 L19.5,30 L19.5,15.2969 L23.2969,14.5938 C23.9063,14.5 24.4063,13.7969 24.4063,13.2031 L24.4063,7.29688 C24.4063,6.5 23.7969,5.90625 23,5.90625 L22.7969,5.90625 L19.5,6.59375 L19.5,-9.90625 L23.2969,-10.5938 M7.79688,9.09375 L7.79688,-7.5 L16.7031,-9.29688 L16.7031,7.20313 L7.79688,9.09375 "/>
<path class="KeySig" transform="matrix(2.23937,0,0,2.23937,314.922,2092.51)" d="M23.2969,-10.5938 C23.9063,-10.7031 24.4063,-11.4063 24.4063,-12 L24.4063,-17.9063 C24.4063,-18.7031 23.7969,-19.2969 23,-19.2969 L22.7969,-19.2969 L19.5,-18.5938 L19.5,-33.5 L16.7031,-33.5 L16.7031,-18 L7.79688,-16.2031 L7.79688,-30.2969 L5,-30.2969 L5,-15.5938 L1.09375,-14.7969 C0.5,-14.7031 0,-14 0,-13.4063 L0,-13.2031 L0,-7.40625 L0,-7.59375 C0,-6.79688 0.59375,-6.20313 1.40625,-6.20313 L1.70313,-6.20313 L5,-6.90625 L5,9.59375 L1.09375,10.4063 C0.5,10.5 0,11.2031 0,11.7969 L0,17.5938 C0,18.4063 0.59375,19 1.40625,19 L1.70313,19 L5,18.2969 L5,33.2031 L7.79688,33.2031 L7.79688,17.7031 L16.7031,15.9063 L16.7031,30 L19.5,30 L19.5,15.2969 L23.2969,14.5938 C23.9063,14.5 24.4063,13.7969 24.4063,13.2031 L24.4063,7.29688 C24.4063,6.5 23.7969,5.90625 23,5.90625 L22.7969,5.90625 L19.5,6.59375 L19.5,-9.90625 L23.2969,-10.5938 M7.79688,9.09375 L7.79688,-7.5 L16.7031,-9.29688 L16.7031,7.20313 L7.79688,9.09375 "/>
<path class="TimeSig" transform="matrix(2.23937,0,0,2.23937,478.449,519.037)" d="M3.59375,12.625 L20.7656,12.625 L20.7656,20.0781 L12.5469,20.0781 C11.7656,20.0781 11.125,20.7031 11.125,21.4844 L11.125,23.3906 C11.125,24.1719 11.7656,24.7969 12.5469,24.7969 L42.7969,24.7969 C43.5781,24.7969 44.2031,24.1719 44.2031,23.3906 L44.2031,21.4844 C44.2031,20.7031 43.5781,20.0781 42.7969,20.0781 L33.8594,20.0781 L33.8594,12.625 L42.7969,12.625 C43.5781,12.625 44.2031,12 44.2031,11.2188 L44.2031,9.3125 C44.2031,8.53125 43.5781,7.90625 42.7969,7.90625 L33.8594,7.90625 L33.8594,-8.0625 C33.8594,-8.59375 33.5469,-9.07813 33.0781,-9.3125 L31.8594,-9.92188 C31.3281,-10.1719 30.7031,-10.0781 30.2656,-9.6875 L21.2188,-1.375 C20.9375,-1.09375 20.7656,-0.734375 20.7656,-0.328125 L20.7656,7.90625 L9.25,7.90625 C9.25,7.90625 20.375,-4.125 32.2188,-19.8906 C33.0781,-21.0469 32.5781,-22.0938 32.3906,-22.2813 L30.2188,-24.4844 C29.9531,-24.75 29.5938,-24.9063 29.2188,-24.9063 C28.625,-24.9063 15.0625,-24.875 14.3438,-24.9063 C13.625,-24.9219 13.0938,-24.2969 13.0156,-23.6875 C13.0156,-23.6875 12.4844,-16.3281 9.875,-8.1875 C7.28125,-0.078125 4.34375,4.90625 1.6875,8.53125 C1.6875,8.53125 1.14063,9.51563 1.5,10.2656 C1.84375,11.0156 2.48438,12.0938 2.48438,12.0938 C2.48438,12.0938 2.73438,12.625 3.59375,12.625"/>
<path class="TimeSig" transform="matrix(2.23937,0,0,2.23937,478.449,630.411)" d="M3.59375,12.625 L20.7656,12.625 L20.7656,20.0781 L12.5469,20.0781 C11.7656,20.0781 11.125,20.7031 11.125,21.4844 L11.125,23.3906 C11.125,24.1719 11.7656,24.7969 12.5469,24.7969 L42.7969,24.7969 C43.5781,24.7969 44.2031,24.1719 44.2031,23.3906 L44.2031,21.4844 C44.2031,20.7031 43.5781,20.0781 42.7969,20.0781 L33.8594,20.0781 L33.8594,12.625 L42.7969,12.625 C43.5781,12.625 44.2031,12 44.2031,11.2188 L44.2031,9.3125 C44.2031,8.53125 43.5781,7.90625 42.7969,7.90625 L33.8594,7.90625 L33.8594,-8.0625 C33.8594,-8.59375 33.5469,-9.07813 33.0781,-9.3125 L31.8594,-9.92188 C31.3281,-10.1719 30.7031,-10.0781 30.2656,-9.6875 L21.2188,-1.375 C20.9375,-1.09375 20.7656,-0.734375 20.7656,-0.328125 L20.7656,7.90625 L9.25,7.90625 C9.25,7.90625 20.375,-4.125 32.2188,-19.8906 C33.0781,-21.0469 32.5781,-22.0938 32.3906,-22.2813 L30.2188,-24.4844 C29.9531,-24.75 29.5938,-24.9063 29.2188,-24.9063 C28.625,-24.9063 15.0625,-24.875 14.3438,-24.9063 C13.625,-24.9219 13.0938,-24.2969 13.0156,-23.6875 C13.0156,-23.6875 12.4844,-16.3281 9.875,-8.1875 C7.28125,-0.078125 4.34375,4.90625 1.6875,8.53125 C1.6875,8.53125 1.14063,9.51563 1.5,10.2656 C1.84375,11.0156 2.48438,12.0938 2.48438,12.0938 C2.48438,12.0938 2.73438,12.625 3.59375,12.625"/>
<path class="Rest" transform="matrix(2.23937,0,0,2.23937,689.387,574.724)" d="M23.2031,16.9063 L23,16.5938 C22.9063,16.5 22.7031,16.2969 22.4063,15.9063 L10.9063,1.70313 C10.5938,1.40625 10.7031,0.59375 10.9063,0.203125 L21.0938,-15.2031 C21.2031,-15.4063 21.2969,-15.7031 21.2969,-15.9063 L21.2969,-16.7969 C21.2969,-17.0938 21.2031,-17.4063 21,-17.5938 L4.79688,-39.5 C4.79688,-39.5 4,-40.7031 3,-39.7969 C2,-39 2.79688,-37.7031 2.79688,-37.7031 L10.4063,-27.2969 C10.7969,-26.7031 10.7969,-25.5 10.4063,-24.9063 L0.296875,-9.5 C0.203125,-9.29688 0.09375,-8.90625 0.09375,-8.70313 L0.09375,-7.79688 C0.09375,-7.5 0.203125,-7.20313 0.40625,-7 L11.5938,6.90625 C11.2031,6.79688 10.2969,6.59375 9.09375,6.59375 C7.40625,6.59375 5.20313,7 3.40625,8.59375 C1.20313,10.5938 0,13.4063 0,15.9063 C0,17.2969 0.296875,18.7031 1.09375,19.7969 C3.20313,23 10.7031,32.5 10.7031,32.5 C10.7031,32.5 11.5938,33.6094 12.5,32.9063 C13.4063,32.2031 13.2031,31.2969 12.9063,30.7969 C12.5938,30.2969 9.40625,24.5 9.40625,24.5 C9.40625,24.5 8.70313,23.0938 8.70313,21.2969 C8.70313,20 9.09375,18.4063 10.4063,17.0938 C11.5938,15.9063 13,15.5 14.2969,15.5 C15.5938,15.5 16.7031,15.9063 17.5,16.4063 L21.4063,18.9063 C21.4063,18.9063 22.5938,19.5 23.2031,18.5938 C23.7031,17.7969 23.5,17.4063 23.2031,16.9063"/>
<path class="Rest" transform="matrix(2.23937,0,0,2.23937,2492.39,574.724)" d="M33.4688,-20.2656 C32.7188,-20.5313 32.0469,-20.1719 31.7344,-19.5469 C31.4375,-18.9375 28.6094,-13.5 24.2969,-10.0938 C22.9531,-9.03125 21.3906,-8.34375 19.8281,-7.95313 C20.9063,-9.26563 21.5313,-10.9375 21.4688,-12.75 C21.3281,-16.6875 18.0313,-19.7656 14.0938,-19.625 C10.1563,-19.4844 7.0625,-16.1875 7.20313,-12.25 C7.3125,-9.23438 9.26563,-6.73438 11.9375,-5.78125 C13.5,-5.09375 15.4063,-4.73438 17.4531,-4.79688 C20.2969,-4.90625 23.375,-5.84375 26.0156,-7.92188 C27.25,-8.89063 28.4063,-10.125 29.4375,-11.4219 L29.4375,-11.4063 L24.9375,4.5 C24.9375,4.5 24.9375,4.51563 24.9219,4.51563 L24.9219,4.53125 C24.4531,5.48438 21.2031,11.6563 17.1875,14.8281 C15.8438,15.9063 14.2813,16.5938 12.7188,16.9688 C13.7969,15.6719 14.4219,14 14.3594,12.1875 C14.2188,8.23438 10.9219,5.15625 6.98438,5.29688 C3.04688,5.4375 -0.046875,8.73438 0.09375,12.6875 C0.203125,15.6875 2.15625,18.1875 4.82813,19.1563 C6.39063,19.8281 8.29688,20.2031 10.3438,20.125 C13.1875,20.0313 16.2656,19.0938 18.9063,17.0156 C20.125,16.0469 21.2813,14.8281 22.3125,13.5156 L12.1094,49.9844 L14.7813,50.7344 L33.4531,-15.4688 L34.3281,-18.5938 C34.5313,-19.3281 34.2188,-20.0156 33.4688,-20.2656"/>
<path class="Rest" transform="matrix(2.23937,0,0,2.23937,758.583,1389.6)" d="M33.4688,-20.2656 C32.7188,-20.5313 32.0469,-20.1719 31.7344,-19.5469 C31.4375,-18.9375 28.6094,-13.5 24.2969,-10.0938 C22.9531,-9.03125 21.3906,-8.34375 19.8281,-7.95313 C20.9063,-9.26563 21.5313,-10.9375 21.4688,-12.75 C21.3281,-16.6875 18.0313,-19.7656 14.0938,-19.625 C10.1563,-19.4844 7.0625,-16.1875 7.20313,-12.25 C7.3125,-9.23438 9.26563,-6.73438 11.9375,-5.78125 C13.5,-5.09375 15.4063,-4.73438 17.4531,-4.79688 C20.2969,-4.90625 23.375,-5.84375 26.0156,-7.92188 C27.25,-8.89063 28.4063,-10.125 29.4375,-11.4219 L29.4375,-11.4063 L24.9375,4.5 C24.9375,4.5 24.9375,4.51563 24.9219,4.51563 L24.9219,4.53125 C24.4531,5.48438 21.2031,11.6563 17.1875,14.8281 C15.8438,15.9063 14.2813,16.5938 12.7188,16.9688 C13.7969,15.6719 14.4219,14 14.3594,12.1875 C14.2188,8.23438 10.9219,5.15625 6.98438,5.29688 C3.04688,5.4375 -0.046875,8.73438 0.09375,12.6875 C0.203125,15.6875 2.15625,18.1875 4.82813,19.1563 C6.39063,19.8281 8.29688,20.2031 10.3438,20.125 C13.1875,20.0313 16.2656,19.0938 18.9063,17.0156 C20.125,16.0469 21.2813,14.8281 22.3125,13.5156 L12.1094,49.9844 L14.7813,50.7344 L33.4531,-15.4688 L34.3281,-18.5938 C34.5313,-19.3281 34.2188,-20.0156 33.4688,-20.2656"/>
<path class="Rest" transform="matrix(2.23937,0,0,2.23937,2631.04,1389.6)" d="M26.7344,-20.2656 C25.9844,-20.5469 25.3125,-20.2031 24.9844,-19.5938 C24.6563,-18.9844 21.4688,-13.0625 17.0469,-9.79688 C15.6563,-8.78125 14.0625,-8.14063 12.5,-7.8125 C13.625,-9.0625 14.2969,-10.7344 14.2969,-12.5469 C14.2969,-16.5 11.0938,-19.7031 7.15625,-19.7031 C3.20313,-19.7031 0,-16.5 0,-12.5469 C0,-9.54688 1.875,-6.95313 4.51563,-5.90625 C6.04688,-5.1875 7.95313,-4.73438 10,-4.73438 C12.8438,-4.73438 15.9531,-5.5625 18.6719,-7.5625 C19.9375,-8.48438 21.125,-9.6875 22.2031,-10.9375 L10.8125,24.6875 L13.4531,25.5469 L27.5313,-18.5469 C27.7656,-19.2813 27.4688,-19.9688 26.7344,-20.2656"/>
<path class="Rest" transform="matrix(2.23937,0,0,2.23937,809.577,2204.47)" d="M26.7344,-20.2656 C25.9844,-20.5469 25.3125,-20.2031 24.9844,-19.5938 C24.6563,-18.9844 21.4688,-13.0625 17.0469,-9.79688 C15.6563,-8.78125 14.0625,-8.14063 12.5,-7.8125 C13.625,-9.0625 14.2969,-10.7344 14.2969,-12.5469 C14.2969,-16.5 11.0938,-19.7031 7.15625,-19.7031 C3.20313,-19.7031 0,-16.5 0,-12.5469 C0,-9.54688 1.875,-6.95313 4.51563,-5.90625 C6.04688,-5.1875 7.95313,-4.73438 10,-4.73438 C12.8438,-4.73438 15.9531,-5.5625 18.6719,-7.5625 C19.9375,-8.48438 21.125,-9.6875 22.2031,-10.9375 L10.8125,24.6875 L13.4531,25.5469 L27.5313,-18.5469 C27.7656,-19.2813 27.4688,-19.9688 26.7344,-20.2656"/>
<path class="Rest" transform="matrix(2.23937,0,0,2.23937,3112.44,2204.47)" d="M26.7344,-20.2656 C25.9844,-20.5469 25.3125,-20.2031 24.9844,-19.5938 C24.6563,-18.9844 21.4688,-13.0625 17.0469,-9.79688 C15.6563,-8.78125 14.0625,-8.14063 12.5,-7.8125 C13.625,-9.0625 14.2969,-10.7344 14.2969,-12.5469 C14.2969,-16.5 11.0938,-19.7031 7.15625,-19.7031 C3.20313,-19.7031 0,-16.5 0,-12.5469 C0,-9.54688 1.875,-6.95313 4.51563,-5.90625 C6.04688,-5.1875 7.95313,-4.73438 10,-4.73438 C12.8438,-4.73438 15.9531,-5.5625 18.6719,-7.5625 C19.9375,-8.48438 21.125,-9.6875 22.2031,-10.9375 L10.8125,24.6875 L13.4531,25.5469 L27.5313,-18.5469 C27.7656,-19.2813 27.4688,-19.9688 26.7344,-20.2656"/>
<path class="Rest" transform="matrix(2.23937,0,0,2.23937,3313.59,2204.47)" d="M23.2031,16.9063 L23,16.5938 C22.9063,16.5 22.7031,16.2969 22.4063,15.9063 L10.9063,1.70313 C10.5938,1.40625 10.7031,0.59375 10.9063,0.203125 L21.0938,-15.2031 C21.2031,-15.4063 21.2969,-15.7031 21.2969,-15.9063 L21.2969,-16.7969 C21.2969,-17.0938 21.2031,-17.4063 21,-17.5938 L4.79688,-39.5 C4.79688,-39.5 4,-40.7031 3,-39.7969 C2,-39 2.79688,-37.7031 2.79688,-37.7031 L10.4063,-27.2969 C10.7969,-26.7031 10.7969,-25.5 10.4063,-24.9063 L0.296875,-9.5 C0.203125,-9.29688 0.09375,-8.90625 0.09375,-8.70313 L0.09375,-7.79688 C0.09375,-7.5 0.203125,-7.20313 0.40625,-7 L11.5938,6.90625 C11.2031,6.79688 10.2969,6.59375 9.09375,6.59375 C7.40625,6.59375 5.20313,7 3.40625,8.59375 C1.20313,10.5938 0,13.4063 0,15.9063 C0,17.2969 0.296875,18.7031 1.09375,19.7969 C3.20313,23 10.7031,32.5 10.7031,32.5 C10.7031,32.5 11.5938,33.6094 12.5,32.9063 C13.4063,32.2031 13.2031,31.2969 12.9063,30.7969 C12.5938,30.2969 9.40625,24.5 9.40625,24.5 C9.40625,24.5 8.70313,23.0938 8.70313,21.2969 C8.70313,20 9.09375,18.4063 10.4063,17.0938 C11.5938,15.9063 13,15.5 14.2969,15.5 C15.5938,15.5 16.7031,15.9063 17.5,16.4063 L21.4063,18.9063 C21.4063,18.9063 22.5938,19.5 23.2031,18.5938 C23.7031,17.7969 23.5,17.4063 23.2031,16.9063"/>
<path class="Rest" transform="matrix(2.23937,0,0,2.23937,3635.44,2204.47)" d="M0,-11.7969 L0,-1 C0,0.40625 0,0.40625 1.40625,0.40625 L31.1094,0.40625 C32.5,0.40625 32.5,0.40625 32.5,-1 L32.5,-11.7969 C32.5,-13.2031 32.5,-13.2031 31.1094,-13.2031 L1.40625,-13.2031 C0,-13.2031 0,-13.2031 0,-11.7969"/>
<path class="Beam" fill-rule="evenodd" d="M982.603,449.292 L1565.59,392.71 L1565.59,420.833 L982.603,477.415 L982.603,449.292 "/>
<path class="Beam" fill-rule="evenodd" d="M982.603,491.28 L1194.77,470.688 L1194.77,498.811 L982.603,519.403 L982.603,491.28 "/>
<path class="Beam" fill-rule="evenodd" d="M1456.43,445.293 L1565.59,434.698 L1565.59,462.822 L1456.43,473.416 L1456.43,445.293 "/>
<path class="Beam" fill-rule="evenodd" d="M1662.44,406.772 L2039.42,406.772 L2039.42,434.764 L1662.44,434.764 L1662.44,406.772 "/>
<path class="Beam" fill-rule="evenodd" d="M1827.25,448.76 L2039.42,448.76 L2039.42,476.752 L1827.25,476.752 L1827.25,448.76 "/>
<path class="Beam" fill-rule="evenodd" d="M2675.27,350.787 L3206.36,350.787 L3206.36,378.779 L2675.27,378.779 L2675.27,350.787 "/>
<path class="Beam" fill-rule="evenodd" d="M2675.27,392.775 L3030.26,392.775 L3030.26,420.768 L2675.27,420.768 L2675.27,392.775 "/>
<path class="Beam" fill-rule="evenodd" d="M3386.25,448.76 L4043.55,448.76 L4043.55,476.752 L3386.25,476.752 L3386.25,448.76 "/>
<path class="Beam" fill-rule="evenodd" d="M3386.25,490.748 L3508.68,490.748 L3508.68,518.74 L3386.25,518.74 L3386.25,490.748 "/>
<path class="Beam" fill-rule="evenodd" d="M3804.84,490.748 L4043.55,490.748 L4043.55,518.74 L3804.84,518.74 L3804.84,490.748 "/>
<path class="Beam" fill-rule="evenodd" d="M938.862,1207.65 L1462.15,1207.65 L1462.15,1235.64 L938.862,1235.64 L938.862,1207.65 "/>
<path class="Beam" fill-rule="evenodd" d="M938.862,1249.64 L1348.48,1249.64 L1348.48,1277.63 L938.862,1277.63 L938.862,1249.64 "/>
<path class="Beam" fill-rule="evenodd" d="M1637.88,1277.63 L2280.62,1277.63 L2280.62,1305.62 L1637.88,1305.62 L1637.88,1277.63 "/>
<path class="Beam" fill-rule="evenodd" d="M1637.88,1319.62 L1757.71,1319.62 L1757.71,1347.61 L1637.88,1347.61 L1637.88,1319.62 "/>
<path class="Beam" fill-rule="evenodd" d="M2047.11,1319.62 L2280.62,1319.62 L2280.62,1347.61 L2047.11,1347.61 L2047.11,1319.62 "/>
<path class="Beam" fill-rule="evenodd" d="M2870.04,1221.65 L3267.79,1221.65 L3267.79,1249.64 L2870.04,1249.64 L2870.04,1221.65 "/>
<path class="Beam" fill-rule="evenodd" d="M2870.04,1263.63 L3160.05,1263.63 L3160.05,1291.63 L2870.04,1291.63 L2870.04,1263.63 "/>
<path class="Beam" fill-rule="evenodd" d="M3434.02,1263.63 L4043.55,1263.63 L4043.55,1291.63 L3434.02,1291.63 L3434.02,1263.63 "/>
<path class="Beam" fill-rule="evenodd" d="M3434.02,1305.62 L3547.93,1305.62 L3547.93,1333.62 L3434.02,1333.62 L3434.02,1305.62 "/>
<path class="Beam" fill-rule="evenodd" d="M3821.9,1305.62 L4043.55,1305.62 L4043.55,1333.62 L3821.9,1333.62 L3821.9,1305.62 "/>
<path class="Beam" fill-rule="evenodd" d="M1109.06,2078.9 L1930.28,2022.49 L1930.28,2050.55 L1109.06,2106.96 L1109.06,2078.9 "/>
<path class="Beam" fill-rule="evenodd" d="M1109.06,2120.89 L1406.31,2100.47 L1406.31,2128.53 L1109.06,2148.95 L1109.06,2120.89 "/>
<path class="Beam" fill-rule="evenodd" d="M1778.57,2074.9 L1930.28,2064.48 L1930.28,2092.54 L1778.57,2102.96 L1778.57,2074.9 "/>
<path class="Beam" fill-rule="evenodd" d="M2069.67,2036.52 L2599.79,2036.52 L2599.79,2064.51 L2069.67,2064.51 L2069.67,2036.52 "/>
<path class="Beam" fill-rule="evenodd" d="M2302.54,2078.51 L2599.79,2078.51 L2599.79,2106.5 L2302.54,2106.5 L2302.54,2078.51 "/>
<path class="Hook" transform="matrix(2.23937,0,0,2.23937,2372.95,420.768)" d="M3.5,3.5 C3.40625,3.20313 2.5,-0.296875 2.5,-0.5 C2.40625,-0.90625 1.79688,-1.20313 1.29688,-1.20313 C0.59375,-1.20313 0,-0.59375 0,0.09375 L0,16.5 L0,22.7031 C0,23.2031 0.40625,23.5938 0.796875,23.7969 C5,25.0938 13.7031,30.6094 20.2031,41.7031 C22,44.7969 24.9063,49 24.9063,57.4063 C24.9063,64.6094 23.7969,72.2031 22,79.2031 C21.7031,80.3125 21.4063,81.3125 22.5,81.7031 C23.5938,82.1094 24,81.3125 24.4063,80.3125 C28,71.5 28.9063,62.2969 28.9063,56.1094 L28.9063,54.2031 C28.4063,41.2969 21,31.7969 21,31.7969 C21.2969,31.7969 11.7969,19.5 9.09375,15.2969 C5.40625,9.59375 3.59375,3.90625 3.5,3.5"/>
<path class="Hook" transform="matrix(2.23937,0,0,2.23937,643.305,1256.64)" d="M3.5,3.5 C3.40625,3.20313 2.5,-0.296875 2.5,-0.5 C2.40625,-0.90625 1.79688,-1.20313 1.29688,-1.20313 C0.59375,-1.20313 0,-0.59375 0,0.09375 L0,16.5 L0,22.7031 C0,23.2031 0.40625,23.5938 0.796875,23.7969 C5,25.0938 13.7031,30.6094 20.2031,41.7031 C22,44.7969 24.9063,49 24.9063,57.4063 C24.9063,64.6094 23.7969,72.2031 22,79.2031 C21.7031,80.3125 21.4063,81.3125 22.5,81.7031 C23.5938,82.1094 24,81.3125 24.4063,80.3125 C28,71.5 28.9063,62.2969 28.9063,56.1094 L28.9063,54.2031 C28.4063,41.2969 21,31.7969 21,31.7969 C21.2969,31.7969 11.7969,19.5 9.09375,15.2969 C5.40625,9.59375 3.59375,3.90625 3.5,3.5"/>
<path class="Hook" transform="matrix(2.23937,0,0,2.23937,2525.25,1277.63)" d="M3.5,3.5 C3.40625,3.20313 2.5,-0.296875 2.5,-0.5 C2.40625,-0.90625 1.79688,-1.20313 1.29688,-1.20313 C0.59375,-1.20313 0,-0.59375 0,0.09375 L0,16.5 L0,22.7031 C0,23.2031 0.40625,23.5938 0.796875,23.7969 C5,25.0938 13.7031,30.6094 20.2031,41.7031 C22,44.7969 24.9063,49 24.9063,57.4063 C24.9063,64.6094 23.7969,72.2031 22,79.2031 C21.7031,80.3125 21.4063,81.3125 22.5,81.7031 C23.5938,82.1094 24,81.3125 24.4063,80.3125 C28,71.5 28.9063,62.2969 28.9063,56.1094 L28.9063,54.2031 C28.4063,41.2969 21,31.7969 21,31.7969 C21.2969,31.7969 11.7969,19.5 9.09375,15.2969 C5.40625,9.59375 3.59375,3.90625 3.5,3.5"/>
<path class="Hook" transform="matrix(2.23937,0,0,2.23937,643.305,2071.51)" d="M3.5,3.5 C3.40625,3.20313 2.5,-0.296875 2.5,-0.5 C2.40625,-0.90625 1.79688,-1.20313 1.29688,-1.20313 C0.59375,-1.20313 0,-0.59375 0,0.09375 L0,16.5 L0,22.7031 C0,23.2031 0.40625,23.5938 0.796875,23.7969 C5,25.0938 13.7031,30.6094 20.2031,41.7031 C22,44.7969 24.9063,49 24.9063,57.4063 C24.9063,64.6094 23.7969,72.2031 22,79.2031 C21.7031,80.3125 21.4063,81.3125 22.5,81.7031 C23.5938,82.1094 24,81.3125 24.4063,80.3125 C28,71.5 28.9063,62.2969 28.9063,56.1094 L28.9063,54.2031 C28.4063,41.2969 21,31.7969 21,31.7969 C21.2969,31.7969 11.7969,19.5 9.09375,15.2969 C5.40625,9.59375 3.59375,3.90625 3.5,3.5"/>
<path class="Hook" transform="matrix(2.23937,0,0,2.23937,2977.88,2071.51)" d="M3.5,3.5 C3.40625,3.20313 2.5,-0.296875 2.5,-0.5 C2.40625,-0.90625 1.79688,-1.20313 1.29688,-1.20313 C0.59375,-1.20313 0,-0.59375 0,0.09375 L0,16.5 L0,22.7031 C0,23.2031 0.40625,23.5938 0.796875,23.7969 C5,25.0938 13.7031,30.6094 20.2031,41.7031 C22,44.7969 24.9063,49 24.9063,57.4063 C24.9063,64.6094 23.7969,72.2031 22,79.2031 C21.7031,80.3125 21.4063,81.3125 22.5,81.7031 C23.5938,82.1094 24,81.3125 24.4063,80.3125 C28,71.5 28.9063,62.2969 28.9063,56.1094 L28.9063,54.2031 C28.4063,41.2969 21,31.7969 21,31.7969 C21.2969,31.7969 11.7969,19.5 9.09375,15.2969 C5.40625,9.59375 3.59375,3.90625 3.5,3.5"/>
<path class="VoltaSegment" d="M494.775,1943.29 L490.462,1943.29 C482.712,1949.07 473.978,1951.52 459.337,1951.77 L459.337,1958.66 L464.509,1958.66 C475.462,1958.66 475.572,1958.89 475.462,1968.99 L475.462,2012.64 C475.462,2020.27 475.462,2020.64 474.603,2021.88 C473.494,2023.22 471.025,2023.72 464.384,2023.72 L460.447,2023.72 L460.447,2030.36 L509.525,2030.36 L509.525,2023.72 L505.587,2023.72 C499.072,2023.72 496.728,2023.22 495.634,2021.88 C494.775,2020.64 494.775,2020.16 494.775,2012.64 L494.775,1943.29 M536.822,2009.08 C530.431,2009.08 525.259,2014.25 525.259,2020.64 C525.259,2026.93 530.431,2032.21 536.697,2032.21 C543.228,2032.21 548.384,2027.04 548.384,2020.64 C548.384,2014.25 543.228,2009.08 536.822,2009.08"/>
<polyline class="VoltaSegment" fill="none" stroke="#000000" stroke-width="6.16" stroke-linecap="square" stroke-linejoin="bevel" points="425.544,2030.36 425.544,1907.2"/>
<polyline class="VoltaSegment" fill="none" stroke="#000000" stroke-width="6.16" stroke-linecap="square" stroke-linejoin="bevel" points="425.544,1907.2 2751.28,1907.2"/>
<polyline class="VoltaSegment" fill="none" stroke="#000000" stroke-width="6.16" stroke-linecap="square" stroke-linejoin="bevel" points="2751.28,1907.2 2751.28,2030.36"/>
<path class="VoltaSegment" d="M2873.01,1997.64 L2871.65,2003.8 C2870.55,2008.72 2869.8,2010.32 2868.82,2010.93 C2867.6,2011.79 2867.35,2011.79 2859.6,2011.91 L2835.87,2011.91 C2840.16,2008.22 2843.37,2005.88 2848.16,2002.69 C2865.51,1991.49 2869.07,1988.79 2872.63,1984.24 C2876.82,1978.71 2879.27,1972.19 2879.27,1966.41 C2879.27,1953.24 2866.37,1943.29 2849.02,1943.29 C2832.29,1943.29 2819.38,1954.1 2819.38,1968.13 C2819.38,1976.74 2824.18,1982.27 2831.55,1982.27 C2837.94,1982.27 2842.01,1978.21 2842.01,1971.82 C2842.01,1966.52 2839.68,1963.46 2834.02,1960.74 C2832.66,1960.13 2832.05,1959.39 2832.05,1958.41 C2832.05,1954.47 2838.69,1950.29 2844.83,1950.29 C2853.44,1950.29 2858.37,1955.58 2858.37,1964.68 C2858.37,1974.89 2854.43,1982.14 2841.4,1996.05 C2827.62,2010.68 2822.82,2016.22 2816.68,2025.08 L2816.68,2030.85 C2819.87,2030.49 2821.23,2030.36 2823.07,2030.36 L2869.32,2030.36 C2871.65,2030.36 2873.13,2030.49 2876.82,2030.85 L2879.65,1997.64 L2873.01,1997.64 M2902.02,2009.08 C2895.63,2009.08 2890.46,2014.25 2890.46,2020.64 C2890.46,2026.93 2895.63,2032.21 2901.9,2032.21 C2908.43,2032.21 2913.58,2027.04 2913.58,2020.64 C2913.58,2014.25 2908.43,2009.08 2902.02,2009.08"/>
<polyline class="VoltaSegment" fill="none" stroke="#000000" stroke-width="6.16" stroke-linecap="square" stroke-linejoin="bevel" points="2782.74,2030.36 2782.74,1907.2"/>
<polyline class="VoltaSegment" fill="none" stroke="#000000" stroke-width="6.16" stroke-linecap="square" stroke-linejoin="bevel" points="2782.74,1907.2 4083.02,1907.2"/>
<polyline class="VoltaSegment" fill="none" stroke="#000000" stroke-width="6.16" stroke-linecap="square" stroke-linejoin="bevel" points="4083.02,1907.2 4083.02,2030.36"/>
</svg>
