<?xml version="1.0" encoding="UTF-8" standalone="no"?>
<svg width="4208.47px" height="2409.45px" viewBox="0 0 4208.47 2409.45"
 xmlns="http://www.w3.org/2000/svg" xmlns:xlink="http://www.w3.org/1999/xlink" version="1.2" baseProfile="tiny">
<title>BONE PIRATA</title>
<desc>Generated by MuseScore 3.6.2</desc>
<polyline class="StaffLines" fill="none" stroke="#000000" stroke-width="4.95" stroke-linejoin="bevel" points="70.866,385.866 4137.61,385.866"/>
<polyline class="StaffLines" fill="none" stroke="#000000" stroke-width="4.95" stroke-linejoin="bevel" points="70.866,430.866 4137.61,430.866"/>
<polyline class="StaffLines" fill="none" stroke="#000000" stroke-width="4.95" stroke-linejoin="bevel" points="70.866,475.866 4137.61,475.866"/>
<polyline class="StaffLines" fill="none" stroke="#000000" stroke-width="4.95" stroke-linejoin="bevel" points="70.866,520.866 4137.61,520.866"/>
<polyline class="StaffLines" fill="none" stroke="#000000" stroke-width="4.95" stroke-linejoin="bevel" points="70.866,565.866 4137.61,565.866"/>
<polyline class="StaffLines" fill="none" stroke="#000000" stroke-width="4.95" stroke-linejoin="bevel" points="70.866,1211.99 4137.61,1211.99"/>
<polyline class="StaffLines" fill="none" stroke="#000000" stroke-width="4.95" stroke-linejoin="bevel" points="70.866,1256.99 4137.61,1256.99"/>
<polyline class="StaffLines" fill="none" stroke="#000000" stroke-width="4.95" stroke-linejoin="bevel" points="70.866,1301.99 4137.61,1301.99"/>
<polyline class="StaffLines" fill="none" stroke="#000000" stroke-width="4.95" stroke-linejoin="bevel" points="70.866,1346.99 4137.61,1346.99"/>
<polyline class="StaffLines" fill="none" stroke="#000000" stroke-width="4.95" stroke-linejoin="bevel" points="70.866,1391.99 4137.61,1391.99"/>
<polyline class="StaffLines" fill="none" stroke="#000000" stroke-width="4.95" stroke-linejoin="bevel" points="70.866,2038.12 4137.61,2038.12"/>
<polyline class="StaffLines" fill="none" stroke="#000000" stroke-width="4.95" stroke-linejoin="bevel" points="70.866,2083.12 4137.61,2083.12"/>
<polyline class="StaffLines" fill="none" stroke="#000000" stroke-width="4.95" stroke-linejoin="bevel" points="70.866,2128.12 4137.61,2128.12"/>
<polyline class="StaffLines" fill="none" stroke="#000000" stroke-width="4.95" stroke-linejoin="bevel" points="70.866,2173.12 4137.61,2173.12"/>
<polyline class="StaffLines" fill="none" stroke="#000000" stroke-width="4.95" stroke-linejoin="bevel" points="70.866,2218.12 4137.61,2218.12"/>
<path class="MeasureNumber" d="M75.3504,1106.68 C74.1004,1107.43 73.741,1107.92 73.741,1108.71 C73.741,1109.48 74.3816,1110.04 75.1785,1110.04 C76.2254,1110.04 76.8191,1109.28 76.9441,1107.79 C78.1785,1106.79 79.5066,1106.35 81.1004,1106.35 C84.0691,1106.35 85.7097,1108.2 85.7097,1111.51 C85.7097,1116.71 82.3504,1120.95 78.2254,1120.95 C75.866,1120.95 73.9441,1119.84 73.9441,1118.51 C73.9441,1118.28 73.991,1118.2 74.1785,1118.07 C75.2254,1117.59 75.2254,1117.59 75.5066,1117.4 C76.1472,1116.92 76.5066,1116.2 76.5066,1115.35 C76.5066,1114.07 75.5066,1113.12 74.1004,1113.12 C72.3504,1113.12 71.0222,1114.59 71.0222,1116.51 C71.0222,1120.04 74.0691,1122.59 78.3504,1122.59 C84.8191,1122.59 90.0691,1117.43 90.0691,1111.04 C90.0691,1106.99 86.991,1104.15 82.6316,1104.15 C80.8972,1104.15 79.5066,1104.51 77.5847,1105.48 L79.8191,1097.92 C81.9441,1098.35 83.6316,1098.56 85.0691,1098.56 C87.7097,1098.56 90.0691,1097.71 91.3816,1096.32 C92.0691,1095.53 92.4597,1094.84 92.4597,1094.32 C92.4597,1094.07 92.3347,1093.84 92.1785,1093.84 C92.0691,1093.84 91.9754,1093.89 91.741,1093.99 C90.4285,1094.64 88.741,1094.99 87.1785,1094.99 C84.7879,1094.99 81.9441,1094.6 78.991,1093.84 L75.3504,1106.68 "/>
<path class="MeasureNumber" d="M87.2254,1919.81 L86.0691,1919.81 C83.866,1921.45 79.6316,1922.84 76.741,1922.84 L76.2722,1924.61 L79.0222,1924.61 C81.4597,1924.61 81.741,1924.69 81.741,1925.4 C81.741,1925.76 81.741,1925.76 81.3504,1927.2 L77.0691,1943.2 C76.5379,1945.2 76.5066,1945.33 76.1472,1945.69 C75.741,1946.08 74.8972,1946.2 72.7879,1946.25 L71.0691,1946.25 L70.866,1948.12 L85.6629,1948.12 L85.8972,1946.25 L83.741,1946.25 C81.1472,1946.25 80.5847,1946.04 80.5847,1945.17 C80.5847,1944.89 80.741,1943.97 80.9441,1943.2 L87.2254,1919.81 M105.132,1919.97 C102.491,1919.97 100.022,1921.17 97.8191,1923.48 C94.5066,1927.09 92.2566,1933.25 92.2566,1938.84 C92.2566,1944.64 95.1472,1948.72 99.2254,1948.72 C106.053,1948.72 112.178,1939.84 112.178,1929.92 C112.178,1923.97 109.335,1919.97 105.132,1919.97 M105.1,1921.56 C107.178,1921.56 108.303,1923.4 108.303,1926.84 C108.303,1930.76 107.303,1935.84 105.663,1939.97 C103.741,1944.97 101.819,1947.12 99.4129,1947.12 C97.2566,1947.12 96.0535,1945.2 96.0535,1941.81 C96.0535,1936.61 97.8972,1929.64 100.46,1925.01 C101.694,1922.76 103.303,1921.56 105.1,1921.56"/>
<path class="TieSegment" stroke="#000000" stroke-width="3.15" stroke-linecap="round" stroke-linejoin="round" fill-rule="evenodd" d="M1272.9,1223.24 C1334.91,1169.82 1520.94,1169.82 1582.94,1223.24 C1520.94,1182.42 1334.91,1182.42 1272.9,1223.24"/>
<path class="TieSegment" stroke="#000000" stroke-width="3.15" stroke-linecap="round" stroke-linejoin="round" fill-rule="evenodd" d="M3974.04,1200.74 C4006.75,1169.58 4104.89,1169.58 4137.61,1200.74 C4104.89,1182.18 4006.75,1182.18 3974.04,1200.74"/>
<path class="TieSegment" stroke="#000000" stroke-width="3.15" stroke-linecap="round" stroke-linejoin="round" fill-rule="evenodd" d="M338.883,2026.87 C359.177,2002.57 420.059,2002.57 440.353,2026.87 C420.059,2015.17 359.177,2015.17 338.883,2026.87"/>
<path class="TieSegment" stroke="#000000" stroke-width="3.15" stroke-linecap="round" stroke-linejoin="round" fill-rule="evenodd" d="M3360.06,1936.87 C3425.21,1881.05 3620.69,1881.05 3685.85,1936.87 C3620.69,1893.65 3425.21,1893.65 3360.06,1936.87"/>
<polyline class="BarLine" stroke="#000000" stroke-width="8.10" stroke-linejoin="bevel" points="1550.69,383.391 1550.69,568.341"/>
<polyline class="BarLine" stroke="#000000" stroke-width="8.10" stroke-linejoin="bevel" points="2118.3,383.391 2118.3,568.341"/>
<polyline class="BarLine" stroke="#000000" stroke-width="8.10" stroke-linejoin="bevel" points="3189.58,383.391 3189.58,568.341"/>
<path class="BarLine" transform="matrix(1.8,0,0,1.8,4057.03,453.366)" d="M10.4063,0 C10.4063,-2.90625 8.09375,-5.29688 5.20313,-5.29688 C2.29688,-5.29688 0,-2.90625 0,0 C0,2.90625 2.29688,5.29688 5.20313,5.29688 C8.09375,5.29688 10.4063,2.90625 10.4063,0"/>
<path class="BarLine" transform="matrix(1.8,0,0,1.8,4057.03,498.366)" d="M10.4063,0 C10.4063,-2.90625 8.09375,-5.29688 5.20313,-5.29688 C2.29688,-5.29688 0,-2.90625 0,0 C0,2.90625 2.29688,5.29688 5.20313,5.29688 C8.09375,5.29688 10.4063,2.90625 10.4063,0"/>
<polyline class="BarLine" stroke="#000000" stroke-width="8.10" stroke-linejoin="bevel" points="4097.89,383.391 4097.89,568.341"/>
<polyline class="BarLine" stroke="#000000" stroke-width="24.75" stroke-linejoin="bevel" points="4129.39,383.391 4129.39,568.341"/>
<polyline class="BarLine" stroke="#000000" stroke-width="8.10" stroke-linejoin="bevel" points="1432.42,1209.52 1432.42,1394.47"/>
<polyline class="BarLine" stroke="#000000" stroke-width="8.10" stroke-linejoin="bevel" points="2059.57,1209.52 2059.57,1394.47"/>
<polyline class="BarLine" stroke="#000000" stroke-width="8.10" stroke-linejoin="bevel" points="2489.99,1209.52 2489.99,1394.47"/>
<polyline class="BarLine" stroke="#000000" stroke-width="8.10" stroke-linejoin="bevel" points="3152.95,1209.52 3152.95,1394.47"/>
<polyline class="BarLine" stroke="#000000" stroke-width="8.10" stroke-linejoin="bevel" points="4133.56,1209.52 4133.56,1394.47"/>
<polyline class="BarLine" stroke="#000000" stroke-width="8.10" stroke-linejoin="bevel" points="896.821,2035.65 896.821,2220.6"/>
<polyline class="BarLine" stroke="#000000" stroke-width="8.10" stroke-linejoin="bevel" points="1307.08,2035.65 1307.08,2220.6"/>
<polyline class="BarLine" stroke="#000000" stroke-width="8.10" stroke-linejoin="bevel" points="1717.34,2035.65 1717.34,2220.6"/>
<polyline class="BarLine" stroke="#000000" stroke-width="24.75" stroke-linejoin="bevel" points="2122.43,2035.65 2122.43,2220.6"/>
<polyline class="BarLine" stroke="#000000" stroke-width="8.10" stroke-linejoin="bevel" points="2153.93,2035.65 2153.93,2220.6"/>
<path class="BarLine" transform="matrix(1.8,0,0,1.8,2176.06,2105.62)" d="M10.4063,0 C10.4063,-2.90625 8.09375,-5.29688 5.20313,-5.29688 C2.29688,-5.29688 0,-2.90625 0,0 C0,2.90625 2.29688,5.29688 5.20313,5.29688 C8.09375,5.29688 10.4063,2.90625 10.4063,0"/>
<path class="BarLine" transform="matrix(1.8,0,0,1.8,2176.06,2150.62)" d="M10.4063,0 C10.4063,-2.90625 8.09375,-5.29688 5.20313,-5.29688 C2.29688,-5.29688 0,-2.90625 0,0 C0,2.90625 2.29688,5.29688 5.20313,5.29688 C8.09375,5.29688 10.4063,2.90625 10.4063,0"/>
<polyline class="BarLine" stroke="#000000" stroke-width="8.10" stroke-linejoin="bevel" points="3519.58,2035.65 3519.58,2220.6"/>
<polyline class="BarLine" stroke="#000000" stroke-width="8.10" stroke-linejoin="bevel" points="4093.73,2035.65 4093.73,2220.6"/>
<polyline class="BarLine" stroke="#000000" stroke-width="24.75" stroke-linejoin="bevel" points="4125.23,2035.65 4125.23,2220.6"/>
<path class="Accidental" transform="matrix(1.8,0,0,1.8,1179.72,1256.99)" d="M23.2969,-10.5938 C23.9063,-10.7031 24.4063,-11.4063 24.4063,-12 L24.4063,-17.9063 C24.4063,-18.7031 23.7969,-19.2969 23,-19.2969 L22.7969,-19.2969 L19.5,-18.5938 L19.5,-33.5 L16.7031,-33.5 L16.7031,-18 L7.79688,-16.2031 L7.79688,-30.2969 L5,-30.2969 L5,-15.5938 L1.09375,-14.7969 C0.5,-14.7031 0,-14 0,-13.4063 L0,-13.2031 L0,-7.40625 L0,-7.59375 C0,-6.79688 0.59375,-6.20313 1.40625,-6.20313 L1.70313,-6.20313 L5,-6.90625 L5,9.59375 L1.09375,10.4063 C0.5,10.5 0,11.2031 0,11.7969 L0,17.5938 C0,18.4063 0.59375,19 1.40625,19 L1.70313,19 L5,18.2969 L5,33.2031 L7.79688,33.2031 L7.79688,17.7031 L16.7031,15.9063 L16.7031,30 L19.5,30 L19.5,15.2969 L23.2969,14.5938 C23.9063,14.5 24.4063,13.7969 24.4063,13.2031 L24.4063,7.29688 C24.4063,6.5 23.7969,5.90625 23,5.90625 L22.7969,5.90625 L19.5,6.59375 L19.5,-9.90625 L23.2969,-10.5938 M7.79688,9.09375 L7.79688,-7.5 L16.7031,-9.29688 L16.7031,7.20313 L7.79688,9.09375 "/>
<path class="Accidental" transform="matrix(1.8,0,0,1.8,2600.69,1256.99)" d="M23.2969,-10.5938 C23.9063,-10.7031 24.4063,-11.4063 24.4063,-12 L24.4063,-17.9063 C24.4063,-18.7031 23.7969,-19.2969 23,-19.2969 L22.7969,-19.2969 L19.5,-18.5938 L19.5,-33.5 L16.7031,-33.5 L16.7031,-18 L7.79688,-16.2031 L7.79688,-30.2969 L5,-30.2969 L5,-15.5938 L1.09375,-14.7969 C0.5,-14.7031 0,-14 0,-13.4063 L0,-13.2031 L0,-7.40625 L0,-7.59375 C0,-6.79688 0.59375,-6.20313 1.40625,-6.20313 L1.70313,-6.20313 L5,-6.90625 L5,9.59375 L1.09375,10.4063 C0.5,10.5 0,11.2031 0,11.7969 L0,17.5938 C0,18.4063 0.59375,19 1.40625,19 L1.70313,19 L5,18.2969 L5,33.2031 L7.79688,33.2031 L7.79688,17.7031 L16.7031,15.9063 L16.7031,30 L19.5,30 L19.5,15.2969 L23.2969,14.5938 C23.9063,14.5 24.4063,13.7969 24.4063,13.2031 L24.4063,7.29688 C24.4063,6.5 23.7969,5.90625 23,5.90625 L22.7969,5.90625 L19.5,6.59375 L19.5,-9.90625 L23.2969,-10.5938 M7.79688,9.09375 L7.79688,-7.5 L16.7031,-9.29688 L16.7031,7.20313 L7.79688,9.09375 "/>
<path class="Accidental" transform="matrix(1.8,0,0,1.8,3690.13,1256.99)" d="M23.2969,-10.5938 C23.9063,-10.7031 24.4063,-11.4063 24.4063,-12 L24.4063,-17.9063 C24.4063,-18.7031 23.7969,-19.2969 23,-19.2969 L22.7969,-19.2969 L19.5,-18.5938 L19.5,-33.5 L16.7031,-33.5 L16.7031,-18 L7.79688,-16.2031 L7.79688,-30.2969 L5,-30.2969 L5,-15.5938 L1.09375,-14.7969 C0.5,-14.7031 0,-14 0,-13.4063 L0,-13.2031 L0,-7.40625 L0,-7.59375 C0,-6.79688 0.59375,-6.20313 1.40625,-6.20313 L1.70313,-6.20313 L5,-6.90625 L5,9.59375 L1.09375,10.4063 C0.5,10.5 0,11.2031 0,11.7969 L0,17.5938 C0,18.4063 0.59375,19 1.40625,19 L1.70313,19 L5,18.2969 L5,33.2031 L7.79688,33.2031 L7.79688,17.7031 L16.7031,15.9063 L16.7031,30 L19.5,30 L19.5,15.2969 L23.2969,14.5938 C23.9063,14.5 24.4063,13.7969 24.4063,13.2031 L24.4063,7.29688 C24.4063,6.5 23.7969,5.90625 23,5.90625 L22.7969,5.90625 L19.5,6.59375 L19.5,-9.90625 L23.2969,-10.5938 M7.79688,9.09375 L7.79688,-7.5 L16.7031,-9.29688 L16.7031,7.20313 L7.79688,9.09375 "/>
<path class="Accidental" transform="matrix(1.8,0,0,1.8,2778.87,2038.12)" d="M23.2969,-10.5938 C23.9063,-10.7031 24.4063,-11.4063 24.4063,-12 L24.4063,-17.9063 C24.4063,-18.7031 23.7969,-19.2969 23,-19.2969 L22.7969,-19.2969 L19.5,-18.5938 L19.5,-33.5 L16.7031,-33.5 L16.7031,-18 L7.79688,-16.2031 L7.79688,-30.2969 L5,-30.2969 L5,-15.5938 L1.09375,-14.7969 C0.5,-14.7031 0,-14 0,-13.4063 L0,-13.2031 L0,-7.40625 L0,-7.59375 C0,-6.79688 0.59375,-6.20313 1.40625,-6.20313 L1.70313,-6.20313 L5,-6.90625 L5,9.59375 L1.09375,10.4063 C0.5,10.5 0,11.2031 0,11.7969 L0,17.5938 C0,18.4063 0.59375,19 1.40625,19 L1.70313,19 L5,18.2969 L5,33.2031 L7.79688,33.2031 L7.79688,17.7031 L16.7031,15.9063 L16.7031,30 L19.5,30 L19.5,15.2969 L23.2969,14.5938 C23.9063,14.5 24.4063,13.7969 24.4063,13.2031 L24.4063,7.29688 C24.4063,6.5 23.7969,5.90625 23,5.90625 L22.7969,5.90625 L19.5,6.59375 L19.5,-9.90625 L23.2969,-10.5938 M7.79688,9.09375 L7.79688,-7.5 L16.7031,-9.29688 L16.7031,7.20313 L7.79688,9.09375 "/>
<polyline class="LedgerLine" stroke="#000000" stroke-width="7.20" stroke-linejoin="bevel" points="593.71,340.866 683.696,340.866"/>
<polyline class="LedgerLine" stroke="#000000" stroke-width="7.20" stroke-linejoin="bevel" points="1170.92,340.866 1260.91,340.866"/>
<polyline class="LedgerLine" stroke="#000000" stroke-width="7.20" stroke-linejoin="bevel" points="1337.41,340.866 1427.39,340.866"/>
<polyline class="LedgerLine" stroke="#000000" stroke-width="7.20" stroke-linejoin="bevel" points="1680.74,340.866 1779.38,340.866"/>
<polyline class="LedgerLine" stroke="#000000" stroke-width="7.20" stroke-linejoin="bevel" points="2701.19,340.866 2791.18,340.866"/>
<polyline class="LedgerLine" stroke="#000000" stroke-width="7.20" stroke-linejoin="bevel" points="2935.49,340.866 3025.47,340.866"/>
<polyline class="LedgerLine" stroke="#000000" stroke-width="7.20" stroke-linejoin="bevel" points="2980.96,1993.12 3070.94,1993.12"/>
<polyline class="LedgerLine" stroke="#000000" stroke-width="7.20" stroke-linejoin="bevel" points="3306.29,1993.12 3396.28,1993.12"/>
<polyline class="LedgerLine" stroke="#000000" stroke-width="7.20" stroke-linejoin="bevel" points="3649.63,1993.12 3739.61,1993.12"/>
<polyline class="Stem" stroke="#000000" stroke-width="4.95" stroke-linejoin="bevel" points="611.935,346.914 611.935,498.366"/>
<polyline class="Stem" stroke="#000000" stroke-width="4.95" stroke-linejoin="bevel" points="1189.15,346.914 1189.15,475.866"/>
<polyline class="Stem" stroke="#000000" stroke-width="4.95" stroke-linejoin="bevel" points="1355.63,346.914 1355.63,475.866"/>
<polyline class="Stem" stroke="#000000" stroke-width="4.95" stroke-linejoin="bevel" points="2250.82,414.414 2250.82,565.866"/>
<polyline class="Stem" stroke="#000000" stroke-width="4.95" stroke-linejoin="bevel" points="2485.12,414.414 2485.12,565.866"/>
<polyline class="Stem" stroke="#000000" stroke-width="4.95" stroke-linejoin="bevel" points="2719.42,346.914 2719.42,498.366"/>
<polyline class="Stem" stroke="#000000" stroke-width="4.95" stroke-linejoin="bevel" points="2953.71,346.914 2953.71,498.366"/>
<polyline class="Stem" stroke="#000000" stroke-width="4.95" stroke-linejoin="bevel" points="3322.11,414.414 3322.11,565.866"/>
<polyline class="Stem" stroke="#000000" stroke-width="4.95" stroke-linejoin="bevel" points="872.016,1308.04 872.016,1459.49"/>
<polyline class="Stem" stroke="#000000" stroke-width="4.95" stroke-linejoin="bevel" points="1012.53,1240.54 1012.53,1391.99"/>
<polyline class="Stem" stroke="#000000" stroke-width="4.95" stroke-linejoin="bevel" points="1237.36,1263.04 1237.36,1414.49"/>
<polyline class="Stem" stroke="#000000" stroke-width="4.95" stroke-linejoin="bevel" points="1564.95,1263.04 1564.95,1408.87"/>
<polyline class="Stem" stroke="#000000" stroke-width="4.95" stroke-linejoin="bevel" points="2658.33,1263.04 2658.33,1408.87"/>
<polyline class="Stem" stroke="#000000" stroke-width="4.95" stroke-linejoin="bevel" points="3547.72,1308.04 3547.72,1459.49"/>
<polyline class="Stem" stroke="#000000" stroke-width="4.95" stroke-linejoin="bevel" points="3747.77,1263.04 3747.77,1408.87"/>
<polyline class="Stem" stroke="#000000" stroke-width="4.95" stroke-linejoin="bevel" points="3938.5,1240.54 3938.5,1391.99"/>
<polyline class="Stem" stroke="#000000" stroke-width="4.95" stroke-linejoin="bevel" points="422.358,2066.67 422.358,2218.12"/>
<polyline class="Stem" stroke="#000000" stroke-width="4.95" stroke-linejoin="bevel" points="2319.1,2066.67 2319.1,2218.12"/>
<polyline class="Stem" stroke="#000000" stroke-width="4.95" stroke-linejoin="bevel" points="2636.46,2066.67 2636.46,2218.12"/>
<polyline class="Stem" stroke="#000000" stroke-width="4.95" stroke-linejoin="bevel" points="2836.51,2044.17 2836.51,2218.12"/>
<polyline class="Stem" stroke="#000000" stroke-width="4.95" stroke-linejoin="bevel" points="2999.18,1999.17 2999.18,2199.37"/>
<polyline class="Stem" stroke="#000000" stroke-width="4.95" stroke-linejoin="bevel" points="3161.85,2044.17 3161.85,2180.62"/>
<polyline class="Stem" stroke="#000000" stroke-width="4.95" stroke-linejoin="bevel" points="3324.51,1976.67 3324.51,2161.87"/>
<polyline class="Stem" stroke="#000000" stroke-width="4.95" stroke-linejoin="bevel" points="3667.85,1976.67 3667.85,2128.12"/>
<path class="Note" transform="matrix(1.8,0,0,1.8,609.46,340.866)" d="M31.5,-8.14063 C29.7031,-11.4375 25.9063,-13.2344 21.2969,-13.2344 C17.9063,-13.2344 14.2031,-12.2344 10.5938,-10.3438 C4,-6.84375 0,-0.9375 0,4.15625 C0,5.5625 0.296875,6.96875 1,8.26563 C2.79688,11.5781 6.59375,13.2813 11.2031,13.2813 C14.5938,13.2813 18.2969,12.375 21.9063,10.4844 C28.5,6.96875 32.5,1.0625 32.5,-4.04688 C32.5,-5.4375 32.2031,-6.84375 31.5,-8.14063 M27.2031,-1.34375 C25.5,0.359375 22.0938,2.45313 18.5,4.46875 C14.9063,6.46875 11.2969,7.96875 8.90625,8.46875 C8.40625,8.57813 7.90625,8.67188 7.40625,8.67188 C5.79688,8.67188 4.59375,8.07813 3.90625,6.76563 C3.59375,6.26563 3.40625,5.67188 3.40625,5.0625 C3.40625,3.96875 4.09375,2.65625 5.20313,1.5625 C6.90625,-0.140625 10.2031,-2.23438 13.7969,-4.23438 C17.4063,-6.23438 21,-7.73438 23.4063,-8.23438 C23.9063,-8.34375 24.4063,-8.4375 24.9063,-8.4375 C26.5,-8.4375 27.7969,-7.84375 28.5,-6.54688 C28.7969,-6.04688 28.9063,-5.4375 28.9063,-4.84375 C28.9063,-3.73438 28.2969,-2.54688 27.2031,-1.34375"/>
<path class="Note" transform="matrix(1.8,0,0,1.8,1186.67,340.866)" d="M31.5,-8.09375 C29.7031,-11.4063 25.9063,-13.2031 21.2969,-13.2031 C17.9063,-13.2031 14.2031,-12.2031 10.5938,-10.2969 C4,-6.79688 0,-0.90625 0,4.20313 C0,5.59375 0.296875,7 1,8.29688 C2.79688,11.5938 6.59375,13.2969 11.2031,13.2969 C14.5938,13.2969 18.2969,12.4063 21.9063,10.5 C28.5,7 32.5,1.09375 32.5,-4 C32.5,-5.40625 32.2031,-6.79688 31.5,-8.09375"/>
<path class="Note" transform="matrix(1.8,0,0,1.8,1353.16,340.866)" d="M31.5,-8.09375 C29.7031,-11.4063 25.9063,-13.2031 21.2969,-13.2031 C17.9063,-13.2031 14.2031,-12.2031 10.5938,-10.2969 C4,-6.79688 0,-0.90625 0,4.20313 C0,5.59375 0.296875,7 1,8.29688 C2.79688,11.5938 6.59375,13.2969 11.2031,13.2969 C14.5938,13.2969 18.2969,12.4063 21.9063,10.5 C28.5,7 32.5,1.09375 32.5,-4 C32.5,-5.40625 32.2031,-6.79688 31.5,-8.09375"/>
<path class="Note" transform="matrix(1.8,0,0,1.8,1696.49,318.366)" d="M18.7031,-13.5938 C4.90625,-13.5938 0,-6.59375 0,-0.09375 C0,6.40625 4.90625,13.4063 18.7031,13.4063 C32.5,13.4063 37.2969,6.40625 37.2969,-0.09375 C37.2969,-6.59375 32.5,-13.5938 18.7031,-13.5938 M10.4063,-4.5 C10.2969,-4.90625 10.2969,-5.29688 10.2969,-5.70313 C10.2969,-6.5 10.5,-7.29688 10.9063,-8 C11.5938,-9 12.7969,-9.70313 14.2969,-10 C15.5938,-10.2969 16.2969,-10.5 18.9063,-10.5 L19,-10.5 C23,-10.5 24.2969,-6.79688 25.4063,-3 L25.7031,-2 C26.5,0.59375 26.9063,2.79688 26.9063,4.5 C26.9063,5.70313 26.7031,6.79688 26.2969,7.59375 C25.7031,8.70313 24.7031,9.40625 23,9.79688 C22.0938,10 20.5938,10.0938 20.5938,10.0938 C20.0938,10.0938 19.7031,10.2031 19.2969,10.2031 C16.0938,10.2031 14.0938,9 12.7031,4.70313 C11.5,1 11.2969,-0.09375 10.4063,-4.5"/>
<path class="Note" transform="matrix(1.8,0,0,1.8,2248.35,408.366)" d="M31.5,-8.09375 C29.7031,-11.4063 25.9063,-13.2031 21.2969,-13.2031 C17.9063,-13.2031 14.2031,-12.2031 10.5938,-10.2969 C4,-6.79688 0,-0.90625 0,4.20313 C0,5.59375 0.296875,7 1,8.29688 C2.79688,11.5938 6.59375,13.2969 11.2031,13.2969 C14.5938,13.2969 18.2969,12.4063 21.9063,10.5 C28.5,7 32.5,1.09375 32.5,-4 C32.5,-5.40625 32.2031,-6.79688 31.5,-8.09375"/>
<path class="Note" transform="matrix(1.8,0,0,1.8,2482.65,408.366)" d="M31.5,-8.09375 C29.7031,-11.4063 25.9063,-13.2031 21.2969,-13.2031 C17.9063,-13.2031 14.2031,-12.2031 10.5938,-10.2969 C4,-6.79688 0,-0.90625 0,4.20313 C0,5.59375 0.296875,7 1,8.29688 C2.79688,11.5938 6.59375,13.2969 11.2031,13.2969 C14.5938,13.2969 18.2969,12.4063 21.9063,10.5 C28.5,7 32.5,1.09375 32.5,-4 C32.5,-5.40625 32.2031,-6.79688 31.5,-8.09375"/>
<path class="Note" transform="matrix(1.8,0,0,1.8,2716.94,340.866)" d="M31.5,-8.09375 C29.7031,-11.4063 25.9063,-13.2031 21.2969,-13.2031 C17.9063,-13.2031 14.2031,-12.2031 10.5938,-10.2969 C4,-6.79688 0,-0.90625 0,4.20313 C0,5.59375 0.296875,7 1,8.29688 C2.79688,11.5938 6.59375,13.2969 11.2031,13.2969 C14.5938,13.2969 18.2969,12.4063 21.9063,10.5 C28.5,7 32.5,1.09375 32.5,-4 C32.5,-5.40625 32.2031,-6.79688 31.5,-8.09375"/>
<path class="Note" transform="matrix(1.8,0,0,1.8,2951.24,340.866)" d="M31.5,-8.09375 C29.7031,-11.4063 25.9063,-13.2031 21.2969,-13.2031 C17.9063,-13.2031 14.2031,-12.2031 10.5938,-10.2969 C4,-6.79688 0,-0.90625 0,4.20313 C0,5.59375 0.296875,7 1,8.29688 C2.79688,11.5938 6.59375,13.2969 11.2031,13.2969 C14.5938,13.2969 18.2969,12.4063 21.9063,10.5 C28.5,7 32.5,1.09375 32.5,-4 C32.5,-5.40625 32.2031,-6.79688 31.5,-8.09375"/>
<path class="Note" transform="matrix(1.8,0,0,1.8,3319.63,408.366)" d="M31.5,-8.09375 C29.7031,-11.4063 25.9063,-13.2031 21.2969,-13.2031 C17.9063,-13.2031 14.2031,-12.2031 10.5938,-10.2969 C4,-6.79688 0,-0.90625 0,4.20313 C0,5.59375 0.296875,7 1,8.29688 C2.79688,11.5938 6.59375,13.2969 11.2031,13.2969 C14.5938,13.2969 18.2969,12.4063 21.9063,10.5 C28.5,7 32.5,1.09375 32.5,-4 C32.5,-5.40625 32.2031,-6.79688 31.5,-8.09375"/>
<path class="Note" transform="matrix(1.8,0,0,1.8,869.541,1301.99)" d="M31.5,-8.09375 C29.7031,-11.4063 25.9063,-13.2031 21.2969,-13.2031 C17.9063,-13.2031 14.2031,-12.2031 10.5938,-10.2969 C4,-6.79688 0,-0.90625 0,4.20313 C0,5.59375 0.296875,7 1,8.29688 C2.79688,11.5938 6.59375,13.2969 11.2031,13.2969 C14.5938,13.2969 18.2969,12.4063 21.9063,10.5 C28.5,7 32.5,1.09375 32.5,-4 C32.5,-5.40625 32.2031,-6.79688 31.5,-8.09375"/>
<path class="Note" transform="matrix(1.8,0,0,1.8,1010.06,1234.49)" d="M31.5,-8.09375 C29.7031,-11.4063 25.9063,-13.2031 21.2969,-13.2031 C17.9063,-13.2031 14.2031,-12.2031 10.5938,-10.2969 C4,-6.79688 0,-0.90625 0,4.20313 C0,5.59375 0.296875,7 1,8.29688 C2.79688,11.5938 6.59375,13.2969 11.2031,13.2969 C14.5938,13.2969 18.2969,12.4063 21.9063,10.5 C28.5,7 32.5,1.09375 32.5,-4 C32.5,-5.40625 32.2031,-6.79688 31.5,-8.09375"/>
<path class="Note" transform="matrix(1.8,0,0,1.8,1234.89,1256.99)" d="M31.5,-8.09375 C29.7031,-11.4063 25.9063,-13.2031 21.2969,-13.2031 C17.9063,-13.2031 14.2031,-12.2031 10.5938,-10.2969 C4,-6.79688 0,-0.90625 0,4.20313 C0,5.59375 0.296875,7 1,8.29688 C2.79688,11.5938 6.59375,13.2969 11.2031,13.2969 C14.5938,13.2969 18.2969,12.4063 21.9063,10.5 C28.5,7 32.5,1.09375 32.5,-4 C32.5,-5.40625 32.2031,-6.79688 31.5,-8.09375"/>
<path class="Note" transform="matrix(1.8,0,0,1.8,1562.47,1256.99)" d="M31.5,-8.14063 C29.7031,-11.4375 25.9063,-13.2344 21.2969,-13.2344 C17.9063,-13.2344 14.2031,-12.2344 10.5938,-10.3438 C4,-6.84375 0,-0.9375 0,4.15625 C0,5.5625 0.296875,6.96875 1,8.26563 C2.79688,11.5781 6.59375,13.2813 11.2031,13.2813 C14.5938,13.2813 18.2969,12.375 21.9063,10.4844 C28.5,6.96875 32.5,1.0625 32.5,-4.04688 C32.5,-5.4375 32.2031,-6.84375 31.5,-8.14063 M27.2031,-1.34375 C25.5,0.359375 22.0938,2.45313 18.5,4.46875 C14.9063,6.46875 11.2969,7.96875 8.90625,8.46875 C8.40625,8.57813 7.90625,8.67188 7.40625,8.67188 C5.79688,8.67188 4.59375,8.07813 3.90625,6.76563 C3.59375,6.26563 3.40625,5.67188 3.40625,5.0625 C3.40625,3.96875 4.09375,2.65625 5.20313,1.5625 C6.90625,-0.140625 10.2031,-2.23438 13.7969,-4.23438 C17.4063,-6.23438 21,-7.73438 23.4063,-8.23438 C23.9063,-8.34375 24.4063,-8.4375 24.9063,-8.4375 C26.5,-8.4375 27.7969,-7.84375 28.5,-6.54688 C28.7969,-6.04688 28.9063,-5.4375 28.9063,-4.84375 C28.9063,-3.73438 28.2969,-2.54688 27.2031,-1.34375"/>
<path class="Note" transform="matrix(1.8,0,0,1.8,2193.94,1279.49)" d="M18.7031,-13.5938 C4.90625,-13.5938 0,-6.59375 0,-0.09375 C0,6.40625 4.90625,13.4063 18.7031,13.4063 C32.5,13.4063 37.2969,6.40625 37.2969,-0.09375 C37.2969,-6.59375 32.5,-13.5938 18.7031,-13.5938 M10.4063,-4.5 C10.2969,-4.90625 10.2969,-5.29688 10.2969,-5.70313 C10.2969,-6.5 10.5,-7.29688 10.9063,-8 C11.5938,-9 12.7969,-9.70313 14.2969,-10 C15.5938,-10.2969 16.2969,-10.5 18.9063,-10.5 L19,-10.5 C23,-10.5 24.2969,-6.79688 25.4063,-3 L25.7031,-2 C26.5,0.59375 26.9063,2.79688 26.9063,4.5 C26.9063,5.70313 26.7031,6.79688 26.2969,7.59375 C25.7031,8.70313 24.7031,9.40625 23,9.79688 C22.0938,10 20.5938,10.0938 20.5938,10.0938 C20.0938,10.0938 19.7031,10.2031 19.2969,10.2031 C16.0938,10.2031 14.0938,9 12.7031,4.70313 C11.5,1 11.2969,-0.09375 10.4063,-4.5"/>
<path class="Note" transform="matrix(1.8,0,0,1.8,2655.85,1256.99)" d="M31.5,-8.14063 C29.7031,-11.4375 25.9063,-13.2344 21.2969,-13.2344 C17.9063,-13.2344 14.2031,-12.2344 10.5938,-10.3438 C4,-6.84375 0,-0.9375 0,4.15625 C0,5.5625 0.296875,6.96875 1,8.26563 C2.79688,11.5781 6.59375,13.2813 11.2031,13.2813 C14.5938,13.2813 18.2969,12.375 21.9063,10.4844 C28.5,6.96875 32.5,1.0625 32.5,-4.04688 C32.5,-5.4375 32.2031,-6.84375 31.5,-8.14063 M27.2031,-1.34375 C25.5,0.359375 22.0938,2.45313 18.5,4.46875 C14.9063,6.46875 11.2969,7.96875 8.90625,8.46875 C8.40625,8.57813 7.90625,8.67188 7.40625,8.67188 C5.79688,8.67188 4.59375,8.07813 3.90625,6.76563 C3.59375,6.26563 3.40625,5.67188 3.40625,5.0625 C3.40625,3.96875 4.09375,2.65625 5.20313,1.5625 C6.90625,-0.140625 10.2031,-2.23438 13.7969,-4.23438 C17.4063,-6.23438 21,-7.73438 23.4063,-8.23438 C23.9063,-8.34375 24.4063,-8.4375 24.9063,-8.4375 C26.5,-8.4375 27.7969,-7.84375 28.5,-6.54688 C28.7969,-6.04688 28.9063,-5.4375 28.9063,-4.84375 C28.9063,-3.73438 28.2969,-2.54688 27.2031,-1.34375"/>
<path class="Note" transform="matrix(1.8,0,0,1.8,3545.24,1301.99)" d="M31.5,-8.09375 C29.7031,-11.4063 25.9063,-13.2031 21.2969,-13.2031 C17.9063,-13.2031 14.2031,-12.2031 10.5938,-10.2969 C4,-6.79688 0,-0.90625 0,4.20313 C0,5.59375 0.296875,7 1,8.29688 C2.79688,11.5938 6.59375,13.2969 11.2031,13.2969 C14.5938,13.2969 18.2969,12.4063 21.9063,10.5 C28.5,7 32.5,1.09375 32.5,-4 C32.5,-5.40625 32.2031,-6.79688 31.5,-8.09375"/>
<path class="Note" transform="matrix(1.8,0,0,1.8,3745.3,1256.99)" d="M31.5,-8.09375 C29.7031,-11.4063 25.9063,-13.2031 21.2969,-13.2031 C17.9063,-13.2031 14.2031,-12.2031 10.5938,-10.2969 C4,-6.79688 0,-0.90625 0,4.20313 C0,5.59375 0.296875,7 1,8.29688 C2.79688,11.5938 6.59375,13.2969 11.2031,13.2969 C14.5938,13.2969 18.2969,12.4063 21.9063,10.5 C28.5,7 32.5,1.09375 32.5,-4 C32.5,-5.40625 32.2031,-6.79688 31.5,-8.09375"/>
<path class="Note" transform="matrix(1.8,0,0,1.8,3936.02,1234.49)" d="M31.5,-8.09375 C29.7031,-11.4063 25.9063,-13.2031 21.2969,-13.2031 C17.9063,-13.2031 14.2031,-12.2031 10.5938,-10.2969 C4,-6.79688 0,-0.90625 0,4.20313 C0,5.59375 0.296875,7 1,8.29688 C2.79688,11.5938 6.59375,13.2969 11.2031,13.2969 C14.5938,13.2969 18.2969,12.4063 21.9063,10.5 C28.5,7 32.5,1.09375 32.5,-4 C32.5,-5.40625 32.2031,-6.79688 31.5,-8.09375"/>
<path class="Note" transform="matrix(1.8,0,0,1.8,419.883,2060.62)" d="M31.5,-8.14063 C29.7031,-11.4375 25.9063,-13.2344 21.2969,-13.2344 C17.9063,-13.2344 14.2031,-12.2344 10.5938,-10.3438 C4,-6.84375 0,-0.9375 0,4.15625 C0,5.5625 0.296875,6.96875 1,8.26563 C2.79688,11.5781 6.59375,13.2813 11.2031,13.2813 C14.5938,13.2813 18.2969,12.375 21.9063,10.4844 C28.5,6.96875 32.5,1.0625 32.5,-4.04688 C32.5,-5.4375 32.2031,-6.84375 31.5,-8.14063 M27.2031,-1.34375 C25.5,0.359375 22.0938,2.45313 18.5,4.46875 C14.9063,6.46875 11.2969,7.96875 8.90625,8.46875 C8.40625,8.57813 7.90625,8.67188 7.40625,8.67188 C5.79688,8.67188 4.59375,8.07813 3.90625,6.76563 C3.59375,6.26563 3.40625,5.67188 3.40625,5.0625 C3.40625,3.96875 4.09375,2.65625 5.20313,1.5625 C6.90625,-0.140625 10.2031,-2.23438 13.7969,-4.23438 C17.4063,-6.23438 21,-7.73438 23.4063,-8.23438 C23.9063,-8.34375 24.4063,-8.4375 24.9063,-8.4375 C26.5,-8.4375 27.7969,-7.84375 28.5,-6.54688 C28.7969,-6.04688 28.9063,-5.4375 28.9063,-4.84375 C28.9063,-3.73438 28.2969,-2.54688 27.2031,-1.34375"/>
<path class="Note" transform="matrix(1.8,0,0,1.8,1031.2,2105.62)" d="M18.7031,-13.5938 C4.90625,-13.5938 0,-6.59375 0,-0.09375 C0,6.40625 4.90625,13.4063 18.7031,13.4063 C32.5,13.4063 37.2969,6.40625 37.2969,-0.09375 C37.2969,-6.59375 32.5,-13.5938 18.7031,-13.5938 M10.4063,-4.5 C10.2969,-4.90625 10.2969,-5.29688 10.2969,-5.70313 C10.2969,-6.5 10.5,-7.29688 10.9063,-8 C11.5938,-9 12.7969,-9.70313 14.2969,-10 C15.5938,-10.2969 16.2969,-10.5 18.9063,-10.5 L19,-10.5 C23,-10.5 24.2969,-6.79688 25.4063,-3 L25.7031,-2 C26.5,0.59375 26.9063,2.79688 26.9063,4.5 C26.9063,5.70313 26.7031,6.79688 26.2969,7.59375 C25.7031,8.70313 24.7031,9.40625 23,9.79688 C22.0938,10 20.5938,10.0938 20.5938,10.0938 C20.0938,10.0938 19.7031,10.2031 19.2969,10.2031 C16.0938,10.2031 14.0938,9 12.7031,4.70313 C11.5,1 11.2969,-0.09375 10.4063,-4.5"/>
<path class="Note" transform="matrix(1.8,0,0,1.8,1441.46,2038.12)" d="M18.7031,-13.5938 C4.90625,-13.5938 0,-6.59375 0,-0.09375 C0,6.40625 4.90625,13.4063 18.7031,13.4063 C32.5,13.4063 37.2969,6.40625 37.2969,-0.09375 C37.2969,-6.59375 32.5,-13.5938 18.7031,-13.5938 M10.4063,-4.5 C10.2969,-4.90625 10.2969,-5.29688 10.2969,-5.70313 C10.2969,-6.5 10.5,-7.29688 10.9063,-8 C11.5938,-9 12.7969,-9.70313 14.2969,-10 C15.5938,-10.2969 16.2969,-10.5 18.9063,-10.5 L19,-10.5 C23,-10.5 24.2969,-6.79688 25.4063,-3 L25.7031,-2 C26.5,0.59375 26.9063,2.79688 26.9063,4.5 C26.9063,5.70313 26.7031,6.79688 26.2969,7.59375 C25.7031,8.70313 24.7031,9.40625 23,9.79688 C22.0938,10 20.5938,10.0938 20.5938,10.0938 C20.0938,10.0938 19.7031,10.2031 19.2969,10.2031 C16.0938,10.2031 14.0938,9 12.7031,4.70313 C11.5,1 11.2969,-0.09375 10.4063,-4.5"/>
<path class="Note" transform="matrix(1.8,0,0,1.8,1851.71,2038.12)" d="M18.7031,-13.5938 C4.90625,-13.5938 0,-6.59375 0,-0.09375 C0,6.40625 4.90625,13.4063 18.7031,13.4063 C32.5,13.4063 37.2969,6.40625 37.2969,-0.09375 C37.2969,-6.59375 32.5,-13.5938 18.7031,-13.5938 M10.4063,-4.5 C10.2969,-4.90625 10.2969,-5.29688 10.2969,-5.70313 C10.2969,-6.5 10.5,-7.29688 10.9063,-8 C11.5938,-9 12.7969,-9.70313 14.2969,-10 C15.5938,-10.2969 16.2969,-10.5 18.9063,-10.5 L19,-10.5 C23,-10.5 24.2969,-6.79688 25.4063,-3 L25.7031,-2 C26.5,0.59375 26.9063,2.79688 26.9063,4.5 C26.9063,5.70313 26.7031,6.79688 26.2969,7.59375 C25.7031,8.70313 24.7031,9.40625 23,9.79688 C22.0938,10 20.5938,10.0938 20.5938,10.0938 C20.0938,10.0938 19.7031,10.2031 19.2969,10.2031 C16.0938,10.2031 14.0938,9 12.7031,4.70313 C11.5,1 11.2969,-0.09375 10.4063,-4.5"/>
<path class="Note" transform="matrix(1.8,0,0,1.8,2316.62,2060.62)" d="M31.5,-8.09375 C29.7031,-11.4063 25.9063,-13.2031 21.2969,-13.2031 C17.9063,-13.2031 14.2031,-12.2031 10.5938,-10.2969 C4,-6.79688 0,-0.90625 0,4.20313 C0,5.59375 0.296875,7 1,8.29688 C2.79688,11.5938 6.59375,13.2969 11.2031,13.2969 C14.5938,13.2969 18.2969,12.4063 21.9063,10.5 C28.5,7 32.5,1.09375 32.5,-4 C32.5,-5.40625 32.2031,-6.79688 31.5,-8.09375"/>
<path class="Note" transform="matrix(1.8,0,0,1.8,2633.98,2060.62)" d="M31.5,-8.09375 C29.7031,-11.4063 25.9063,-13.2031 21.2969,-13.2031 C17.9063,-13.2031 14.2031,-12.2031 10.5938,-10.2969 C4,-6.79688 0,-0.90625 0,4.20313 C0,5.59375 0.296875,7 1,8.29688 C2.79688,11.5938 6.59375,13.2969 11.2031,13.2969 C14.5938,13.2969 18.2969,12.4063 21.9063,10.5 C28.5,7 32.5,1.09375 32.5,-4 C32.5,-5.40625 32.2031,-6.79688 31.5,-8.09375"/>
<path class="Note" transform="matrix(1.8,0,0,1.8,2834.04,2038.12)" d="M31.5,-8.09375 C29.7031,-11.4063 25.9063,-13.2031 21.2969,-13.2031 C17.9063,-13.2031 14.2031,-12.2031 10.5938,-10.2969 C4,-6.79688 0,-0.90625 0,4.20313 C0,5.59375 0.296875,7 1,8.29688 C2.79688,11.5938 6.59375,13.2969 11.2031,13.2969 C14.5938,13.2969 18.2969,12.4063 21.9063,10.5 C28.5,7 32.5,1.09375 32.5,-4 C32.5,-5.40625 32.2031,-6.79688 31.5,-8.09375"/>
<path class="Note" transform="matrix(1.8,0,0,1.8,2996.71,1993.12)" d="M31.5,-8.09375 C29.7031,-11.4063 25.9063,-13.2031 21.2969,-13.2031 C17.9063,-13.2031 14.2031,-12.2031 10.5938,-10.2969 C4,-6.79688 0,-0.90625 0,4.20313 C0,5.59375 0.296875,7 1,8.29688 C2.79688,11.5938 6.59375,13.2969 11.2031,13.2969 C14.5938,13.2969 18.2969,12.4063 21.9063,10.5 C28.5,7 32.5,1.09375 32.5,-4 C32.5,-5.40625 32.2031,-6.79688 31.5,-8.09375"/>
<path class="Note" transform="matrix(1.8,0,0,1.8,3159.37,2038.12)" d="M31.5,-8.09375 C29.7031,-11.4063 25.9063,-13.2031 21.2969,-13.2031 C17.9063,-13.2031 14.2031,-12.2031 10.5938,-10.2969 C4,-6.79688 0,-0.90625 0,4.20313 C0,5.59375 0.296875,7 1,8.29688 C2.79688,11.5938 6.59375,13.2969 11.2031,13.2969 C14.5938,13.2969 18.2969,12.4063 21.9063,10.5 C28.5,7 32.5,1.09375 32.5,-4 C32.5,-5.40625 32.2031,-6.79688 31.5,-8.09375"/>
<path class="Note" transform="matrix(1.8,0,0,1.8,3322.04,1970.62)" d="M31.5,-8.09375 C29.7031,-11.4063 25.9063,-13.2031 21.2969,-13.2031 C17.9063,-13.2031 14.2031,-12.2031 10.5938,-10.2969 C4,-6.79688 0,-0.90625 0,4.20313 C0,5.59375 0.296875,7 1,8.29688 C2.79688,11.5938 6.59375,13.2969 11.2031,13.2969 C14.5938,13.2969 18.2969,12.4063 21.9063,10.5 C28.5,7 32.5,1.09375 32.5,-4 C32.5,-5.40625 32.2031,-6.79688 31.5,-8.09375"/>
<path class="Note" transform="matrix(1.8,0,0,1.8,3665.38,1970.62)" d="M31.5,-8.14063 C29.7031,-11.4375 25.9063,-13.2344 21.2969,-13.2344 C17.9063,-13.2344 14.2031,-12.2344 10.5938,-10.3438 C4,-6.84375 0,-0.9375 0,4.15625 C0,5.5625 0.296875,6.96875 1,8.26563 C2.79688,11.5781 6.59375,13.2813 11.2031,13.2813 C14.5938,13.2813 18.2969,12.375 21.9063,10.4844 C28.5,6.96875 32.5,1.0625 32.5,-4.04688 C32.5,-5.4375 32.2031,-6.84375 31.5,-8.14063 M27.2031,-1.34375 C25.5,0.359375 22.0938,2.45313 18.5,4.46875 C14.9063,6.46875 11.2969,7.96875 8.90625,8.46875 C8.40625,8.57813 7.90625,8.67188 7.40625,8.67188 C5.79688,8.67188 4.59375,8.07813 3.90625,6.76563 C3.59375,6.26563 3.40625,5.67188 3.40625,5.0625 C3.40625,3.96875 4.09375,2.65625 5.20313,1.5625 C6.90625,-0.140625 10.2031,-2.23438 13.7969,-4.23438 C17.4063,-6.23438 21,-7.73438 23.4063,-8.23438 C23.9063,-8.34375 24.4063,-8.4375 24.9063,-8.4375 C26.5,-8.4375 27.7969,-7.84375 28.5,-6.54688 C28.7969,-6.04688 28.9063,-5.4375 28.9063,-4.84375 C28.9063,-3.73438 28.2969,-2.54688 27.2031,-1.34375"/>
<path class="Clef" transform="matrix(1.8,0,0,1.8,174.366,430.866)" d="M25.4063,-25.0938 C17.7969,-25.0938 11.7031,-20.7031 11.5938,-20.7031 C5.79688,-16.4063 3.5,-11.2969 2.59375,-7.79688 C2.09375,-6 1.90625,-4.20313 1.90625,-2.5 C1.90625,-0.09375 2.29688,2.09375 3.20313,4 C4.40625,6.70313 6.70313,8.59375 9.70313,9.59375 C10.9063,10 12.2031,10.2031 13.5,10.2031 C15.7031,10.2031 18,9.59375 19.9063,8.5 C23,6.79688 24.9063,3.20313 24.9063,-0.703125 C24.9063,-4.20313 23.0938,-7.40625 20.0938,-9.29688 C18,-10.7031 16,-11.0938 14.2969,-11.0938 C13.0938,-11.0938 12,-10.9063 11.0938,-10.5938 C10.0938,-10.2031 8.40625,-9.20313 7.59375,-8.5 C7.90625,-10.4063 9.09375,-13.2969 10.2031,-14.9063 C11.2969,-16.5 13.5,-18.5 15.2031,-19.4063 C17.7031,-20.7969 20.9063,-21.4063 24.4063,-21.4063 C34.6094,-21.4063 39.6094,-13.2031 39.6094,3.59375 C39.6094,12.9063 36.1094,21.7969 33.1094,27.7031 C29.7969,34.2969 25.4063,40.6094 21.5,44.1094 C11.0938,53.6094 1.29688,58.1094 1.20313,58.1094 C1.20313,58.1094 -0.296875,59 0.09375,60.5 C0.40625,61.5 1.29688,61.7031 1.90625,61.7031 C2,61.7031 2.29688,61.6094 2.40625,61.6094 C2.5,61.6094 13.9063,56.9063 23,49.7969 C28.1094,46.1094 32.7031,42.1094 36.7031,37.7969 C40.2969,33.9063 43.4063,29.7031 45.9063,25.5 C50.2969,18 52.7969,10.2031 52.7969,3.5 C52.7969,-4.79688 50.6094,-11.7031 46.5,-16.5938 C41.7969,-22.2031 34.7031,-25.0938 25.4063,-25.0938 M56.7969,-12.4063 C56.7969,-9.59375 59,-7.40625 61.6094,-7.40625 C64.2031,-7.40625 66.4063,-9.59375 66.4063,-12.4063 C66.4063,-15.2031 64.2031,-17.5 61.6094,-17.5 C59,-17.5 56.7969,-15.2031 56.7969,-12.4063 M56.7969,12.2969 C56.7969,15.0938 59,17.4063 61.6094,17.4063 C64.2031,17.4063 66.4063,15.0938 66.4063,12.2969 C66.4063,9.5 64.2031,7.20313 61.6094,7.20313 C59,7.20313 56.7969,9.5 56.7969,12.2969"/>
<path class="Clef" transform="matrix(1.8,0,0,1.8,174.366,1256.99)" d="M25.4063,-25.0938 C17.7969,-25.0938 11.7031,-20.7031 11.5938,-20.7031 C5.79688,-16.4063 3.5,-11.2969 2.59375,-7.79688 C2.09375,-6 1.90625,-4.20313 1.90625,-2.5 C1.90625,-0.09375 2.29688,2.09375 3.20313,4 C4.40625,6.70313 6.70313,8.59375 9.70313,9.59375 C10.9063,10 12.2031,10.2031 13.5,10.2031 C15.7031,10.2031 18,9.59375 19.9063,8.5 C23,6.79688 24.9063,3.20313 24.9063,-0.703125 C24.9063,-4.20313 23.0938,-7.40625 20.0938,-9.29688 C18,-10.7031 16,-11.0938 14.2969,-11.0938 C13.0938,-11.0938 12,-10.9063 11.0938,-10.5938 C10.0938,-10.2031 8.40625,-9.20313 7.59375,-8.5 C7.90625,-10.4063 9.09375,-13.2969 10.2031,-14.9063 C11.2969,-16.5 13.5,-18.5 15.2031,-19.4063 C17.7031,-20.7969 20.9063,-21.4063 24.4063,-21.4063 C34.6094,-21.4063 39.6094,-13.2031 39.6094,3.59375 C39.6094,12.9063 36.1094,21.7969 33.1094,27.7031 C29.7969,34.2969 25.4063,40.6094 21.5,44.1094 C11.0938,53.6094 1.29688,58.1094 1.20313,58.1094 C1.20313,58.1094 -0.296875,59 0.09375,60.5 C0.40625,61.5 1.29688,61.7031 1.90625,61.7031 C2,61.7031 2.29688,61.6094 2.40625,61.6094 C2.5,61.6094 13.9063,56.9063 23,49.7969 C28.1094,46.1094 32.7031,42.1094 36.7031,37.7969 C40.2969,33.9063 43.4063,29.7031 45.9063,25.5 C50.2969,18 52.7969,10.2031 52.7969,3.5 C52.7969,-4.79688 50.6094,-11.7031 46.5,-16.5938 C41.7969,-22.2031 34.7031,-25.0938 25.4063,-25.0938 M56.7969,-12.4063 C56.7969,-9.59375 59,-7.40625 61.6094,-7.40625 C64.2031,-7.40625 66.4063,-9.59375 66.4063,-12.4063 C66.4063,-15.2031 64.2031,-17.5 61.6094,-17.5 C59,-17.5 56.7969,-15.2031 56.7969,-12.4063 M56.7969,12.2969 C56.7969,15.0938 59,17.4063 61.6094,17.4063 C64.2031,17.4063 66.4063,15.0938 66.4063,12.2969 C66.4063,9.5 64.2031,7.20313 61.6094,7.20313 C59,7.20313 56.7969,9.5 56.7969,12.2969"/>
<path class="Clef" transform="matrix(1.8,0,0,1.8,174.366,2083.12)" d="M25.4063,-25.0938 C17.7969,-25.0938 11.7031,-20.7031 11.5938,-20.7031 C5.79688,-16.4063 3.5,-11.2969 2.59375,-7.79688 C2.09375,-6 1.90625,-4.20313 1.90625,-2.5 C1.90625,-0.09375 2.29688,2.09375 3.20313,4 C4.40625,6.70313 6.70313,8.59375 9.70313,9.59375 C10.9063,10 12.2031,10.2031 13.5,10.2031 C15.7031,10.2031 18,9.59375 19.9063,8.5 C23,6.79688 24.9063,3.20313 24.9063,-0.703125 C24.9063,-4.20313 23.0938,-7.40625 20.0938,-9.29688 C18,-10.7031 16,-11.0938 14.2969,-11.0938 C13.0938,-11.0938 12,-10.9063 11.0938,-10.5938 C10.0938,-10.2031 8.40625,-9.20313 7.59375,-8.5 C7.90625,-10.4063 9.09375,-13.2969 10.2031,-14.9063 C11.2969,-16.5 13.5,-18.5 15.2031,-19.4063 C17.7031,-20.7969 20.9063,-21.4063 24.4063,-21.4063 C34.6094,-21.4063 39.6094,-13.2031 39.6094,3.59375 C39.6094,12.9063 36.1094,21.7969 33.1094,27.7031 C29.7969,34.2969 25.4063,40.6094 21.5,44.1094 C11.0938,53.6094 1.29688,58.1094 1.20313,58.1094 C1.20313,58.1094 -0.296875,59 0.09375,60.5 C0.40625,61.5 1.29688,61.7031 1.90625,61.7031 C2,61.7031 2.29688,61.6094 2.40625,61.6094 C2.5,61.6094 13.9063,56.9063 23,49.7969 C28.1094,46.1094 32.7031,42.1094 36.7031,37.7969 C40.2969,33.9063 43.4063,29.7031 45.9063,25.5 C50.2969,18 52.7969,10.2031 52.7969,3.5 C52.7969,-4.79688 50.6094,-11.7031 46.5,-16.5938 C41.7969,-22.2031 34.7031,-25.0938 25.4063,-25.0938 M56.7969,-12.4063 C56.7969,-9.59375 59,-7.40625 61.6094,-7.40625 C64.2031,-7.40625 66.4063,-9.59375 66.4063,-12.4063 C66.4063,-15.2031 64.2031,-17.5 61.6094,-17.5 C59,-17.5 56.7969,-15.2031 56.7969,-12.4063 M56.7969,12.2969 C56.7969,15.0938 59,17.4063 61.6094,17.4063 C64.2031,17.4063 66.4063,15.0938 66.4063,12.2969 C66.4063,9.5 64.2031,7.20313 61.6094,7.20313 C59,7.20313 56.7969,9.5 56.7969,12.2969"/>
<path class="TimeSig" transform="matrix(1.8,0,0,1.8,403.908,431.105)" d="M3.59375,12.625 L20.7656,12.625 L20.7656,20.0781 L12.5469,20.0781 C11.7656,20.0781 11.125,20.7031 11.125,21.4844 L11.125,23.3906 C11.125,24.1719 11.7656,24.7969 12.5469,24.7969 L42.7969,24.7969 C43.5781,24.7969 44.2031,24.1719 44.2031,23.3906 L44.2031,21.4844 C44.2031,20.7031 43.5781,20.0781 42.7969,20.0781 L33.8594,20.0781 L33.8594,12.625 L42.7969,12.625 C43.5781,12.625 44.2031,12 44.2031,11.2188 L44.2031,9.3125 C44.2031,8.53125 43.5781,7.90625 42.7969,7.90625 L33.8594,7.90625 L33.8594,-8.0625 C33.8594,-8.59375 33.5469,-9.07813 33.0781,-9.3125 L31.8594,-9.92188 C31.3281,-10.1719 30.7031,-10.0781 30.2656,-9.6875 L21.2188,-1.375 C20.9375,-1.09375 20.7656,-0.734375 20.7656,-0.328125 L20.7656,7.90625 L9.25,7.90625 C9.25,7.90625 20.375,-4.125 32.2188,-19.8906 C33.0781,-21.0469 32.5781,-22.0938 32.3906,-22.2813 L30.2188,-24.4844 C29.9531,-24.75 29.5938,-24.9063 29.2188,-24.9063 C28.625,-24.9063 15.0625,-24.875 14.3438,-24.9063 C13.625,-24.9219 13.0938,-24.2969 13.0156,-23.6875 C13.0156,-23.6875 12.4844,-16.3281 9.875,-8.1875 C7.28125,-0.078125 4.34375,4.90625 1.6875,8.53125 C1.6875,8.53125 1.14063,9.51563 1.5,10.2656 C1.84375,11.0156 2.48438,12.0938 2.48438,12.0938 C2.48438,12.0938 2.73438,12.625 3.59375,12.625"/>
<path class="TimeSig" transform="matrix(1.8,0,0,1.8,403.908,520.627)" d="M3.59375,12.625 L20.7656,12.625 L20.7656,20.0781 L12.5469,20.0781 C11.7656,20.0781 11.125,20.7031 11.125,21.4844 L11.125,23.3906 C11.125,24.1719 11.7656,24.7969 12.5469,24.7969 L42.7969,24.7969 C43.5781,24.7969 44.2031,24.1719 44.2031,23.3906 L44.2031,21.4844 C44.2031,20.7031 43.5781,20.0781 42.7969,20.0781 L33.8594,20.0781 L33.8594,12.625 L42.7969,12.625 C43.5781,12.625 44.2031,12 44.2031,11.2188 L44.2031,9.3125 C44.2031,8.53125 43.5781,7.90625 42.7969,7.90625 L33.8594,7.90625 L33.8594,-8.0625 C33.8594,-8.59375 33.5469,-9.07813 33.0781,-9.3125 L31.8594,-9.92188 C31.3281,-10.1719 30.7031,-10.0781 30.2656,-9.6875 L21.2188,-1.375 C20.9375,-1.09375 20.7656,-0.734375 20.7656,-0.328125 L20.7656,7.90625 L9.25,7.90625 C9.25,7.90625 20.375,-4.125 32.2188,-19.8906 C33.0781,-21.0469 32.5781,-22.0938 32.3906,-22.2813 L30.2188,-24.4844 C29.9531,-24.75 29.5938,-24.9063 29.2188,-24.9063 C28.625,-24.9063 15.0625,-24.875 14.3438,-24.9063 C13.625,-24.9219 13.0938,-24.2969 13.0156,-23.6875 C13.0156,-23.6875 12.4844,-16.3281 9.875,-8.1875 C7.28125,-0.078125 4.34375,4.90625 1.6875,8.53125 C1.6875,8.53125 1.14063,9.51563 1.5,10.2656 C1.84375,11.0156 2.48438,12.0938 2.48438,12.0938 C2.48438,12.0938 2.73438,12.625 3.59375,12.625"/>
<path class="Rest" transform="matrix(1.8,0,0,1.8,943.634,475.866)" d="M23.2031,16.9063 L23,16.5938 C22.9063,16.5 22.7031,16.2969 22.4063,15.9063 L10.9063,1.70313 C10.5938,1.40625 10.7031,0.59375 10.9063,0.203125 L21.0938,-15.2031 C21.2031,-15.4063 21.2969,-15.7031 21.2969,-15.9063 L21.2969,-16.7969 C21.2969,-17.0938 21.2031,-17.4063 21,-17.5938 L4.79688,-39.5 C4.79688,-39.5 4,-40.7031 3,-39.7969 C2,-39 2.79688,-37.7031 2.79688,-37.7031 L10.4063,-27.2969 C10.7969,-26.7031 10.7969,-25.5 10.4063,-24.9063 L0.296875,-9.5 C0.203125,-9.29688 0.09375,-8.90625 0.09375,-8.70313 L0.09375,-7.79688 C0.09375,-7.5 0.203125,-7.20313 0.40625,-7 L11.5938,6.90625 C11.2031,6.79688 10.2969,6.59375 9.09375,6.59375 C7.40625,6.59375 5.20313,7 3.40625,8.59375 C1.20313,10.5938 0,13.4063 0,15.9063 C0,17.2969 0.296875,18.7031 1.09375,19.7969 C3.20313,23 10.7031,32.5 10.7031,32.5 C10.7031,32.5 11.5938,33.6094 12.5,32.9063 C13.4063,32.2031 13.2031,31.2969 12.9063,30.7969 C12.5938,30.2969 9.40625,24.5 9.40625,24.5 C9.40625,24.5 8.70313,23.0938 8.70313,21.2969 C8.70313,20 9.09375,18.4063 10.4063,17.0938 C11.5938,15.9063 13,15.5 14.2969,15.5 C15.5938,15.5 16.7031,15.9063 17.5,16.4063 L21.4063,18.9063 C21.4063,18.9063 22.5938,19.5 23.2031,18.5938 C23.7031,17.7969 23.5,17.4063 23.2031,16.9063"/>
<path class="Rest" transform="matrix(1.8,0,0,1.8,3524.47,475.866)" d="M23.2031,16.9063 L23,16.5938 C22.9063,16.5 22.7031,16.2969 22.4063,15.9063 L10.9063,1.70313 C10.5938,1.40625 10.7031,0.59375 10.9063,0.203125 L21.0938,-15.2031 C21.2031,-15.4063 21.2969,-15.7031 21.2969,-15.9063 L21.2969,-16.7969 C21.2969,-17.0938 21.2031,-17.4063 21,-17.5938 L4.79688,-39.5 C4.79688,-39.5 4,-40.7031 3,-39.7969 C2,-39 2.79688,-37.7031 2.79688,-37.7031 L10.4063,-27.2969 C10.7969,-26.7031 10.7969,-25.5 10.4063,-24.9063 L0.296875,-9.5 C0.203125,-9.29688 0.09375,-8.90625 0.09375,-8.70313 L0.09375,-7.79688 C0.09375,-7.5 0.203125,-7.20313 0.40625,-7 L11.5938,6.90625 C11.2031,6.79688 10.2969,6.59375 9.09375,6.59375 C7.40625,6.59375 5.20313,7 3.40625,8.59375 C1.20313,10.5938 0,13.4063 0,15.9063 C0,17.2969 0.296875,18.7031 1.09375,19.7969 C3.20313,23 10.7031,32.5 10.7031,32.5 C10.7031,32.5 11.5938,33.6094 12.5,32.9063 C13.4063,32.2031 13.2031,31.2969 12.9063,30.7969 C12.5938,30.2969 9.40625,24.5 9.40625,24.5 C9.40625,24.5 8.70313,23.0938 8.70313,21.2969 C8.70313,20 9.09375,18.4063 10.4063,17.0938 C11.5938,15.9063 13,15.5 14.2969,15.5 C15.5938,15.5 16.7031,15.9063 17.5,16.4063 L21.4063,18.9063 C21.4063,18.9063 22.5938,19.5 23.2031,18.5938 C23.7031,17.7969 23.5,17.4063 23.2031,16.9063"/>
<path class="Rest" transform="matrix(1.8,0,0,1.8,3729.3,475.866)" d="M0,-11.7969 L0,-1 C0,0.40625 0,0.40625 1.40625,0.40625 L31.1094,0.40625 C32.5,0.40625 32.5,0.40625 32.5,-1 L32.5,-11.7969 C32.5,-13.2031 32.5,-13.2031 31.1094,-13.2031 L1.40625,-13.2031 C0,-13.2031 0,-13.2031 0,-11.7969"/>
<path class="Rest" transform="matrix(1.8,0,0,1.8,419.883,1301.99)" d="M23.2031,16.9063 L23,16.5938 C22.9063,16.5 22.7031,16.2969 22.4063,15.9063 L10.9063,1.70313 C10.5938,1.40625 10.7031,0.59375 10.9063,0.203125 L21.0938,-15.2031 C21.2031,-15.4063 21.2969,-15.7031 21.2969,-15.9063 L21.2969,-16.7969 C21.2969,-17.0938 21.2031,-17.4063 21,-17.5938 L4.79688,-39.5 C4.79688,-39.5 4,-40.7031 3,-39.7969 C2,-39 2.79688,-37.7031 2.79688,-37.7031 L10.4063,-27.2969 C10.7969,-26.7031 10.7969,-25.5 10.4063,-24.9063 L0.296875,-9.5 C0.203125,-9.29688 0.09375,-8.90625 0.09375,-8.70313 L0.09375,-7.79688 C0.09375,-7.5 0.203125,-7.20313 0.40625,-7 L11.5938,6.90625 C11.2031,6.79688 10.2969,6.59375 9.09375,6.59375 C7.40625,6.59375 5.20313,7 3.40625,8.59375 C1.20313,10.5938 0,13.4063 0,15.9063 C0,17.2969 0.296875,18.7031 1.09375,19.7969 C3.20313,23 10.7031,32.5 10.7031,32.5 C10.7031,32.5 11.5938,33.6094 12.5,32.9063 C13.4063,32.2031 13.2031,31.2969 12.9063,30.7969 C12.5938,30.2969 9.40625,24.5 9.40625,24.5 C9.40625,24.5 8.70313,23.0938 8.70313,21.2969 C8.70313,20 9.09375,18.4063 10.4063,17.0938 C11.5938,15.9063 13,15.5 14.2969,15.5 C15.5938,15.5 16.7031,15.9063 17.5,16.4063 L21.4063,18.9063 C21.4063,18.9063 22.5938,19.5 23.2031,18.5938 C23.7031,17.7969 23.5,17.4063 23.2031,16.9063"/>
<path class="Rest" transform="matrix(1.8,0,0,1.8,644.712,1301.99)" d="M23.2031,16.9063 L23,16.5938 C22.9063,16.5 22.7031,16.2969 22.4063,15.9063 L10.9063,1.70313 C10.5938,1.40625 10.7031,0.59375 10.9063,0.203125 L21.0938,-15.2031 C21.2031,-15.4063 21.2969,-15.7031 21.2969,-15.9063 L21.2969,-16.7969 C21.2969,-17.0938 21.2031,-17.4063 21,-17.5938 L4.79688,-39.5 C4.79688,-39.5 4,-40.7031 3,-39.7969 C2,-39 2.79688,-37.7031 2.79688,-37.7031 L10.4063,-27.2969 C10.7969,-26.7031 10.7969,-25.5 10.4063,-24.9063 L0.296875,-9.5 C0.203125,-9.29688 0.09375,-8.90625 0.09375,-8.70313 L0.09375,-7.79688 C0.09375,-7.5 0.203125,-7.20313 0.40625,-7 L11.5938,6.90625 C11.2031,6.79688 10.2969,6.59375 9.09375,6.59375 C7.40625,6.59375 5.20313,7 3.40625,8.59375 C1.20313,10.5938 0,13.4063 0,15.9063 C0,17.2969 0.296875,18.7031 1.09375,19.7969 C3.20313,23 10.7031,32.5 10.7031,32.5 C10.7031,32.5 11.5938,33.6094 12.5,32.9063 C13.4063,32.2031 13.2031,31.2969 12.9063,30.7969 C12.5938,30.2969 9.40625,24.5 9.40625,24.5 C9.40625,24.5 8.70313,23.0938 8.70313,21.2969 C8.70313,20 9.09375,18.4063 10.4063,17.0938 C11.5938,15.9063 13,15.5 14.2969,15.5 C15.5938,15.5 16.7031,15.9063 17.5,16.4063 L21.4063,18.9063 C21.4063,18.9063 22.5938,19.5 23.2031,18.5938 C23.7031,17.7969 23.5,17.4063 23.2031,16.9063"/>
<path class="Rest" transform="matrix(1.8,0,0,1.8,1862.03,1301.99)" d="M23.2031,16.9063 L23,16.5938 C22.9063,16.5 22.7031,16.2969 22.4063,15.9063 L10.9063,1.70313 C10.5938,1.40625 10.7031,0.59375 10.9063,0.203125 L21.0938,-15.2031 C21.2031,-15.4063 21.2969,-15.7031 21.2969,-15.9063 L21.2969,-16.7969 C21.2969,-17.0938 21.2031,-17.4063 21,-17.5938 L4.79688,-39.5 C4.79688,-39.5 4,-40.7031 3,-39.7969 C2,-39 2.79688,-37.7031 2.79688,-37.7031 L10.4063,-27.2969 C10.7969,-26.7031 10.7969,-25.5 10.4063,-24.9063 L0.296875,-9.5 C0.203125,-9.29688 0.09375,-8.90625 0.09375,-8.70313 L0.09375,-7.79688 C0.09375,-7.5 0.203125,-7.20313 0.40625,-7 L11.5938,6.90625 C11.2031,6.79688 10.2969,6.59375 9.09375,6.59375 C7.40625,6.59375 5.20313,7 3.40625,8.59375 C1.20313,10.5938 0,13.4063 0,15.9063 C0,17.2969 0.296875,18.7031 1.09375,19.7969 C3.20313,23 10.7031,32.5 10.7031,32.5 C10.7031,32.5 11.5938,33.6094 12.5,32.9063 C13.4063,32.2031 13.2031,31.2969 12.9063,30.7969 C12.5938,30.2969 9.40625,24.5 9.40625,24.5 C9.40625,24.5 8.70313,23.0938 8.70313,21.2969 C8.70313,20 9.09375,18.4063 10.4063,17.0938 C11.5938,15.9063 13,15.5 14.2969,15.5 C15.5938,15.5 16.7031,15.9063 17.5,16.4063 L21.4063,18.9063 C21.4063,18.9063 22.5938,19.5 23.2031,18.5938 C23.7031,17.7969 23.5,17.4063 23.2031,16.9063"/>
<path class="Rest" transform="matrix(1.8,0,0,1.8,2955.41,1301.99)" d="M23.2031,16.9063 L23,16.5938 C22.9063,16.5 22.7031,16.2969 22.4063,15.9063 L10.9063,1.70313 C10.5938,1.40625 10.7031,0.59375 10.9063,0.203125 L21.0938,-15.2031 C21.2031,-15.4063 21.2969,-15.7031 21.2969,-15.9063 L21.2969,-16.7969 C21.2969,-17.0938 21.2031,-17.4063 21,-17.5938 L4.79688,-39.5 C4.79688,-39.5 4,-40.7031 3,-39.7969 C2,-39 2.79688,-37.7031 2.79688,-37.7031 L10.4063,-27.2969 C10.7969,-26.7031 10.7969,-25.5 10.4063,-24.9063 L0.296875,-9.5 C0.203125,-9.29688 0.09375,-8.90625 0.09375,-8.70313 L0.09375,-7.79688 C0.09375,-7.5 0.203125,-7.20313 0.40625,-7 L11.5938,6.90625 C11.2031,6.79688 10.2969,6.59375 9.09375,6.59375 C7.40625,6.59375 5.20313,7 3.40625,8.59375 C1.20313,10.5938 0,13.4063 0,15.9063 C0,17.2969 0.296875,18.7031 1.09375,19.7969 C3.20313,23 10.7031,32.5 10.7031,32.5 C10.7031,32.5 11.5938,33.6094 12.5,32.9063 C13.4063,32.2031 13.2031,31.2969 12.9063,30.7969 C12.5938,30.2969 9.40625,24.5 9.40625,24.5 C9.40625,24.5 8.70313,23.0938 8.70313,21.2969 C8.70313,20 9.09375,18.4063 10.4063,17.0938 C11.5938,15.9063 13,15.5 14.2969,15.5 C15.5938,15.5 16.7031,15.9063 17.5,16.4063 L21.4063,18.9063 C21.4063,18.9063 22.5938,19.5 23.2031,18.5938 C23.7031,17.7969 23.5,17.4063 23.2031,16.9063"/>
<path class="Rest" transform="matrix(1.8,0,0,1.8,3283,1301.99)" d="M0,-11.7969 L0,-1 C0,0.40625 0,0.40625 1.40625,0.40625 L31.1094,0.40625 C32.5,0.40625 32.5,0.40625 32.5,-1 L32.5,-11.7969 C32.5,-13.2031 32.5,-13.2031 31.1094,-13.2031 L1.40625,-13.2031 C0,-13.2031 0,-13.2031 0,-11.7969"/>
<path class="Rest" transform="matrix(1.8,0,0,1.8,699.286,2128.12)" d="M23.2031,16.9063 L23,16.5938 C22.9063,16.5 22.7031,16.2969 22.4063,15.9063 L10.9063,1.70313 C10.5938,1.40625 10.7031,0.59375 10.9063,0.203125 L21.0938,-15.2031 C21.2031,-15.4063 21.2969,-15.7031 21.2969,-15.9063 L21.2969,-16.7969 C21.2969,-17.0938 21.2031,-17.4063 21,-17.5938 L4.79688,-39.5 C4.79688,-39.5 4,-40.7031 3,-39.7969 C2,-39 2.79688,-37.7031 2.79688,-37.7031 L10.4063,-27.2969 C10.7969,-26.7031 10.7969,-25.5 10.4063,-24.9063 L0.296875,-9.5 C0.203125,-9.29688 0.09375,-8.90625 0.09375,-8.70313 L0.09375,-7.79688 C0.09375,-7.5 0.203125,-7.20313 0.40625,-7 L11.5938,6.90625 C11.2031,6.79688 10.2969,6.59375 9.09375,6.59375 C7.40625,6.59375 5.20313,7 3.40625,8.59375 C1.20313,10.5938 0,13.4063 0,15.9063 C0,17.2969 0.296875,18.7031 1.09375,19.7969 C3.20313,23 10.7031,32.5 10.7031,32.5 C10.7031,32.5 11.5938,33.6094 12.5,32.9063 C13.4063,32.2031 13.2031,31.2969 12.9063,30.7969 C12.5938,30.2969 9.40625,24.5 9.40625,24.5 C9.40625,24.5 8.70313,23.0938 8.70313,21.2969 C8.70313,20 9.09375,18.4063 10.4063,17.0938 C11.5938,15.9063 13,15.5 14.2969,15.5 C15.5938,15.5 16.7031,15.9063 17.5,16.4063 L21.4063,18.9063 C21.4063,18.9063 22.5938,19.5 23.2031,18.5938 C23.7031,17.7969 23.5,17.4063 23.2031,16.9063"/>
<path class="Rest" transform="matrix(1.8,0,0,1.8,3896.2,2128.12)" d="M26.7344,-20.2656 C25.9844,-20.5469 25.3125,-20.2031 24.9844,-19.5938 C24.6563,-18.9844 21.4688,-13.0625 17.0469,-9.79688 C15.6563,-8.78125 14.0625,-8.14063 12.5,-7.8125 C13.625,-9.0625 14.2969,-10.7344 14.2969,-12.5469 C14.2969,-16.5 11.0938,-19.7031 7.15625,-19.7031 C3.20313,-19.7031 0,-16.5 0,-12.5469 C0,-9.54688 1.875,-6.95313 4.51563,-5.90625 C6.04688,-5.1875 7.95313,-4.73438 10,-4.73438 C12.8438,-4.73438 15.9531,-5.5625 18.6719,-7.5625 C19.9375,-8.48438 21.125,-9.6875 22.2031,-10.9375 L10.8125,24.6875 L13.4531,25.5469 L27.5313,-18.5469 C27.7656,-19.2813 27.4688,-19.9688 26.7344,-20.2656"/>
<path class="Beam" fill-rule="evenodd" d="M1186.67,464.616 L1358.11,464.616 L1358.11,487.116 L1186.67,487.116 L1186.67,464.616 "/>
<path class="Beam" fill-rule="evenodd" d="M2834.04,2206.8 L3326.99,2149.98 L3326.99,2172.63 L2834.04,2229.45 L2834.04,2206.8 "/>
<path class="Hook" transform="matrix(1.8,0,0,1.8,869.541,1459.49)" d="M2.5,0.40625 C2.5,0.203125 3.40625,-3.20313 3.5,-3.5 C3.59375,-3.90625 5.40625,-9.59375 9.09375,-15.2969 C11.7969,-19.5 21.2969,-31.7969 21,-31.7969 C21,-31.7969 28.4063,-41.2969 28.9063,-54.2031 L28.9063,-56.5 C28.9063,-62.6094 28.1094,-71.2031 24.5938,-79.9063 C24.2031,-80.9063 23.7969,-81.9063 22.7031,-81.5 C21.5938,-81.1094 21.9063,-79.9063 22.2031,-78.8125 C24,-71.7969 25,-64.6094 25,-57.4063 C25,-49 22,-44.7969 20.2031,-41.7031 C13.5938,-30.6094 5,-25.2031 0.796875,-23.7969 C0.296875,-23.5938 0,-23.2031 0,-22.7031 L0,-16.5 L0,-0.09375 C0,0.59375 0.59375,1.20313 1.29688,1.20313 C1.79688,1.20313 2.40625,0.796875 2.5,0.40625"/>
<path class="Hook" transform="matrix(1.8,0,0,1.8,1234.89,1414.49)" d="M2.5,0.40625 C2.5,0.203125 3.40625,-3.20313 3.5,-3.5 C3.59375,-3.90625 5.40625,-9.59375 9.09375,-15.2969 C11.7969,-19.5 21.2969,-31.7969 21,-31.7969 C21,-31.7969 28.4063,-41.2969 28.9063,-54.2031 L28.9063,-56.5 C28.9063,-62.6094 28.1094,-71.2031 24.5938,-79.9063 C24.2031,-80.9063 23.7969,-81.9063 22.7031,-81.5 C21.5938,-81.1094 21.9063,-79.9063 22.2031,-78.8125 C24,-71.7969 25,-64.6094 25,-57.4063 C25,-49 22,-44.7969 20.2031,-41.7031 C13.5938,-30.6094 5,-25.2031 0.796875,-23.7969 C0.296875,-23.5938 0,-23.2031 0,-22.7031 L0,-16.5 L0,-0.09375 C0,0.59375 0.59375,1.20313 1.29688,1.20313 C1.79688,1.20313 2.40625,0.796875 2.5,0.40625"/>
<path class="Hook" transform="matrix(1.8,0,0,1.8,3545.24,1459.49)" d="M2.5,0.40625 C2.5,0.203125 3.40625,-3.20313 3.5,-3.5 C3.59375,-3.90625 5.40625,-9.59375 9.09375,-15.2969 C11.7969,-19.5 21.2969,-31.7969 21,-31.7969 C21,-31.7969 28.4063,-41.2969 28.9063,-54.2031 L28.9063,-56.5 C28.9063,-62.6094 28.1094,-71.2031 24.5938,-79.9063 C24.2031,-80.9063 23.7969,-81.9063 22.7031,-81.5 C21.5938,-81.1094 21.9063,-79.9063 22.2031,-78.8125 C24,-71.7969 25,-64.6094 25,-57.4063 C25,-49 22,-44.7969 20.2031,-41.7031 C13.5938,-30.6094 5,-25.2031 0.796875,-23.7969 C0.296875,-23.5938 0,-23.2031 0,-22.7031 L0,-16.5 L0,-0.09375 C0,0.59375 0.59375,1.20313 1.29688,1.20313 C1.79688,1.20313 2.40625,0.796875 2.5,0.40625"/>
<path class="Hook" transform="matrix(1.8,0,0,1.8,3936.02,1391.99)" d="M2.5,0.40625 C2.5,0.203125 3.40625,-3.20313 3.5,-3.5 C3.59375,-3.90625 5.40625,-9.59375 9.09375,-15.2969 C11.7969,-19.5 21.2969,-31.7969 21,-31.7969 C21,-31.7969 28.4063,-41.2969 28.9063,-54.2031 L28.9063,-56.5 C28.9063,-62.6094 28.1094,-71.2031 24.5938,-79.9063 C24.2031,-80.9063 23.7969,-81.9063 22.7031,-81.5 C21.5938,-81.1094 21.9063,-79.9063 22.2031,-78.8125 C24,-71.7969 25,-64.6094 25,-57.4063 C25,-49 22,-44.7969 20.2031,-41.7031 C13.5938,-30.6094 5,-25.2031 0.796875,-23.7969 C0.296875,-23.5938 0,-23.2031 0,-22.7031 L0,-16.5 L0,-0.09375 C0,0.59375 0.59375,1.20313 1.29688,1.20313 C1.79688,1.20313 2.40625,0.796875 2.5,0.40625"/>
<path class="Hook" transform="matrix(1.8,0,0,1.8,2633.98,2218.12)" d="M2.5,0.40625 C2.5,0.203125 3.40625,-3.20313 3.5,-3.5 C3.59375,-3.90625 5.40625,-9.59375 9.09375,-15.2969 C11.7969,-19.5 21.2969,-31.7969 21,-31.7969 C21,-31.7969 28.4063,-41.2969 28.9063,-54.2031 L28.9063,-56.5 C28.9063,-62.6094 28.1094,-71.2031 24.5938,-79.9063 C24.2031,-80.9063 23.7969,-81.9063 22.7031,-81.5 C21.5938,-81.1094 21.9063,-79.9063 22.2031,-78.8125 C24,-71.7969 25,-64.6094 25,-57.4063 C25,-49 22,-44.7969 20.2031,-41.7031 C13.5938,-30.6094 5,-25.2031 0.796875,-23.7969 C0.296875,-23.5938 0,-23.2031 0,-22.7031 L0,-16.5 L0,-0.09375 C0,0.59375 0.59375,1.20313 1.29688,1.20313 C1.79688,1.20313 2.40625,0.796875 2.5,0.40625"/>
<path class="StaffText" d="M609.882,104.256 L611.678,104.256 C616.803,104.349 618.522,104.615 619.241,105.521 C619.772,106.334 619.772,106.599 619.772,111.099 L619.772,153.943 C619.772,158.443 619.772,158.709 619.241,159.521 C618.522,160.412 616.803,160.771 611.678,160.771 L609.882,160.771 L609.882,165.006 L639.663,165.006 L639.663,160.771 L637.866,160.771 C632.835,160.771 631.116,160.506 630.397,159.521 C629.866,158.709 629.866,158.521 629.866,153.943 L629.866,111.099 C629.866,106.506 629.866,106.334 630.397,105.521 C631.116,104.615 632.741,104.349 637.866,104.256 L639.663,104.256 L639.663,100.021 L609.882,100.021 L609.882,104.256 M686.194,123.068 L686.194,117.943 C686.194,113.443 686.46,110.474 687.178,108.662 C688.616,104.709 691.772,102.271 695.366,102.271 C697.257,102.271 698.428,102.818 698.428,103.802 C698.428,104.162 698.428,104.256 697.882,104.974 C697.35,105.787 697.085,106.865 697.085,107.865 C697.085,110.552 699.241,112.631 702.022,112.631 C705.007,112.631 707.069,110.381 707.069,107.131 C707.069,101.912 702.569,98.6774 695.272,98.6774 C689.069,98.6774 684.475,100.834 681.335,105.334 C678.632,109.115 677.725,112.99 677.725,120.271 L677.725,123.068 L669.803,123.068 L669.803,126.943 L677.725,126.943 L677.725,153.943 L677.725,156.099 L677.725,158.162 C677.647,159.427 677.553,159.959 677.194,160.506 C676.553,161.318 674.85,161.677 670.975,161.771 L670.616,161.771 L670.616,165.006 L694.647,165.006 L694.647,161.771 L693.022,161.771 C687.007,161.584 686.194,161.131 686.194,157.896 L686.194,153.943 L686.194,126.943 L696.085,126.943 L696.085,123.068 L686.194,123.068 M719.491,123.068 L702.569,124.052 L702.569,127.927 L707.147,127.927 C710.569,128.021 711.022,128.552 711.022,132.427 L711.022,153.943 L711.022,158.162 C710.928,159.521 710.85,160.052 710.491,160.506 C709.85,161.318 708.147,161.677 704.272,161.771 L703.647,161.771 L703.647,165.006 L726.96,165.006 L726.96,161.771 L726.319,161.771 C720.288,161.584 719.491,161.131 719.491,157.896 L719.491,153.943 L719.491,123.068 M715.257,100.662 C712.366,100.662 710.038,103.006 710.038,105.881 C710.038,108.756 712.366,111.099 715.163,111.099 C718.132,111.099 720.475,108.756 720.475,105.881 C720.475,103.006 718.132,100.662 715.257,100.662 M747.288,123.068 L731.725,124.052 L731.725,127.927 L734.96,127.927 C738.382,128.021 738.835,128.552 738.835,132.427 L738.835,153.943 L738.835,156.099 L738.835,158.162 C738.741,159.521 738.647,160.052 738.288,160.506 C737.663,161.318 735.944,161.677 732.085,161.771 L731.725,161.771 L731.725,165.006 L754.491,165.006 L754.491,161.771 L754.132,161.771 C748.1,161.584 747.288,161.131 747.288,157.896 L747.288,153.943 L747.288,144.584 C747.288,140.162 747.913,136.115 748.913,134.052 C750.803,129.99 754.85,127.209 758.71,127.209 C761.053,127.209 763.757,128.474 765.1,130.349 C766.46,132.334 767.085,135.037 767.085,139.349 L767.085,153.943 L767.085,158.162 C766.991,159.521 766.913,160.052 766.553,160.506 C765.913,161.318 764.116,161.677 760.241,161.771 L759.882,161.771 L759.882,165.006 L782.663,165.006 L782.663,161.771 L782.303,161.771 C776.35,161.584 775.553,161.131 775.553,157.896 L775.553,153.943 L775.553,139.802 C775.553,133.334 775.272,131.709 773.663,128.646 C771.413,124.334 766.913,121.724 761.507,121.724 C755.663,121.724 751.241,124.412 747.288,130.349 L747.288,123.068 M818.475,165.631 L834.132,165.006 L834.132,161.131 L832.507,161.131 C827.382,160.865 826.928,160.318 826.928,154.568 L826.928,98.6774 L809.288,99.6618 L809.288,103.537 L814.6,103.537 C818.022,103.631 818.475,104.162 818.475,108.037 L818.475,128.381 C815.147,123.787 811.272,121.724 806.053,121.724 C795.882,121.724 788.147,131.521 788.147,144.49 C788.147,157.271 795.616,166.349 806.053,166.349 C811.725,166.349 815.585,163.927 818.475,158.521 L818.475,165.631 M807.85,126.584 C811.538,126.584 815.053,129.271 816.678,133.412 C817.835,136.115 818.382,139.802 818.382,144.209 C818.382,154.74 814.241,161.49 807.757,161.49 C801.366,161.49 797.585,155.552 797.585,145.568 C797.585,140.162 798.132,136.115 799.303,133.146 C800.835,129.099 804.163,126.584 807.85,126.584 M878.397,123.068 L878.397,105.256 L874.71,105.256 C873.819,116.943 869.85,122.881 862.569,123.427 L862.569,126.943 L869.944,126.943 L869.944,149.881 C869.944,156.193 870.116,158.443 871.022,160.506 C872.46,164.287 876.069,166.349 881.288,166.349 C889.382,166.349 894.6,160.24 894.6,150.693 C894.6,150.162 894.6,149.521 894.507,148.631 L890.725,148.631 C890.46,156.724 888.116,160.865 883.71,160.865 C881.647,160.865 879.85,159.787 879.21,158.256 C878.678,156.99 878.397,154.74 878.397,151.506 L878.397,126.943 L891.632,126.943 L891.632,123.068 L878.397,123.068 M913.85,98.6774 L897.194,99.6618 L897.194,103.537 L901.522,103.537 C904.944,103.631 905.397,104.162 905.397,108.037 L905.397,153.943 L905.397,156.099 L905.397,158.256 C905.303,159.521 905.21,160.052 904.85,160.506 C904.225,161.318 902.507,161.677 898.647,161.771 L898.288,161.771 L898.288,165.006 L921.053,165.006 L921.053,161.771 L920.694,161.771 C914.663,161.584 913.85,161.131 913.85,157.896 L913.85,153.943 L913.85,144.584 C913.85,140.162 914.475,136.115 915.475,134.052 C917.444,129.99 921.413,127.209 925.272,127.209 C927.616,127.209 930.319,128.552 931.585,130.349 C933.022,132.334 933.647,135.037 933.647,139.443 L933.647,153.943 L933.647,158.256 C933.553,159.521 933.475,160.052 933.116,160.506 C932.475,161.318 930.678,161.677 926.803,161.771 L926.444,161.771 L926.444,165.006 L949.225,165.006 L949.225,161.771 L948.866,161.771 C942.913,161.584 942.116,161.131 942.116,157.896 L942.116,153.943 L942.116,139.802 C942.116,133.334 941.835,131.709 940.225,128.646 C937.975,124.24 933.475,121.724 928.069,121.724 C922.225,121.724 917.897,124.334 913.85,130.349 L913.85,98.6774 M992.678,144.756 C992.772,131.256 985.116,121.724 974.147,121.724 C962.632,121.724 953.991,131.709 953.991,145.209 C953.991,157.896 962.178,166.349 974.319,166.349 C982.96,166.349 988.991,162.131 992.678,153.584 L989.538,151.865 C985.85,158.802 982.069,161.49 976.038,161.49 C971.444,161.49 968.116,159.599 965.772,155.552 C964.147,152.849 963.428,149.709 963.522,144.756 L992.678,144.756 M963.616,140.881 C963.616,138.099 963.975,136.115 964.882,133.599 C966.757,128.193 969.647,125.584 974.053,125.584 C979.46,125.584 983.053,130.349 983.053,137.646 C983.053,140.162 982.241,140.881 979.366,140.881 L963.616,140.881 "/>
<path class="StaffText" d="M1055.12,122.443 L1043.43,122.443 L1043.43,104.615 L1037.76,104.615 C1036.32,116.131 1031.46,122.162 1022.9,123.162 L1022.9,127.834 L1029.29,127.834 L1029.29,149.349 C1029.29,156.724 1029.65,158.881 1031.18,161.412 C1033.07,164.552 1036.94,166.349 1042.07,166.349 C1047.21,166.349 1051.26,164.646 1053.68,161.49 C1055.93,158.521 1057.29,154.302 1057.29,150.334 C1057.29,149.881 1057.29,149.162 1057.19,148.271 L1052.43,148.271 C1052.51,155.021 1050.44,158.709 1046.76,158.709 C1044.15,158.709 1043.43,157.084 1043.43,150.959 L1043.43,127.834 L1055.12,127.834 L1055.12,122.443 M1081.85,98.6774 L1060.24,100.021 L1060.24,104.615 L1061.96,104.615 C1067.54,104.615 1067.8,104.974 1067.71,113.349 L1067.71,152.052 L1067.71,156.912 C1067.62,158.162 1067.54,158.709 1067.18,159.24 C1066.54,160.052 1064.83,160.412 1060.87,160.412 L1060.51,160.412 L1060.51,165.006 L1087.96,165.006 L1087.96,160.412 C1082.93,160.412 1081.76,159.693 1081.85,156.552 L1081.85,152.052 L1081.85,143.318 C1081.85,139.271 1082.21,136.927 1083.19,134.771 C1084.63,131.521 1087.79,129.459 1091.12,129.459 C1095.26,129.459 1097.51,132.521 1097.51,138.271 L1097.51,152.052 L1097.51,154.568 L1097.51,156.912 C1097.41,158.162 1097.32,158.709 1096.96,159.24 C1096.07,160.146 1094.35,160.506 1091.29,160.412 L1091.29,165.006 L1118.74,165.006 L1118.74,160.412 L1118.38,160.412 C1112.44,160.318 1111.63,159.881 1111.63,156.552 L1111.63,152.052 L1111.63,137.021 C1111.63,131.443 1110.65,128.021 1108.21,125.412 C1105.79,122.615 1101.82,121.084 1097.15,121.084 C1090.3,121.084 1085.62,123.615 1081.85,129.365 L1081.85,98.6774 M1144.12,122.443 L1122.96,123.068 L1122.96,127.662 L1124.23,127.662 C1129.71,127.74 1129.99,128.099 1129.99,136.115 L1129.99,152.052 L1129.99,156.193 L1129.99,156.912 C1129.9,158.162 1129.8,158.709 1129.44,159.24 C1128.9,160.052 1127.1,160.412 1123.32,160.412 L1122.96,160.412 L1122.96,165.006 L1151.13,165.006 L1151.13,160.412 L1150.6,160.412 C1144.93,160.318 1144.12,159.787 1144.12,156.552 L1144.12,152.052 L1144.12,122.443 M1136.82,98.6774 C1132.41,98.6774 1128.82,102.271 1128.82,106.599 C1128.82,111.006 1132.41,114.615 1136.65,114.615 C1141.24,114.615 1144.74,111.099 1144.74,106.599 C1144.74,102.271 1141.15,98.6774 1136.82,98.6774 M1176.15,122.443 L1155.54,123.068 L1155.54,127.662 L1156.9,127.662 C1162.48,127.74 1162.74,128.099 1162.65,136.381 L1162.65,152.052 L1162.65,156.193 L1162.65,156.912 C1162.55,158.162 1162.48,158.709 1162.12,159.24 C1161.48,160.052 1159.77,160.412 1155.9,160.412 L1155.54,160.412 L1155.54,165.006 L1182.99,165.006 L1182.99,160.412 C1177.87,160.412 1176.69,159.693 1176.79,156.552 L1176.79,152.052 L1176.79,143.318 C1176.79,139.271 1177.15,136.927 1178.23,134.771 C1179.66,131.521 1182.8,129.459 1186.05,129.459 C1190.27,129.459 1192.62,132.521 1192.62,138.271 L1192.62,152.052 L1192.62,154.568 L1192.62,156.912 C1192.52,158.162 1192.44,158.709 1192.08,159.24 C1191.18,160.146 1189.48,160.506 1186.41,160.412 L1186.41,165.006 L1213.87,165.006 L1213.87,160.412 L1213.49,160.412 C1207.48,160.318 1206.76,159.881 1206.76,156.552 L1206.76,152.052 L1206.76,137.021 C1206.76,131.443 1205.76,128.021 1203.33,125.412 C1200.9,122.615 1196.94,121.084 1192.16,121.084 C1185.05,121.084 1180.55,123.693 1176.15,130.349 L1176.15,122.443 M1238.87,156.271 C1234.1,156.271 1233.01,155.834 1233.01,153.662 C1233.01,151.412 1234.63,150.693 1239.85,150.693 L1241.48,150.693 C1247.41,150.693 1250.74,150.162 1254.16,148.537 C1259.38,146.193 1262.44,141.599 1262.44,136.021 C1262.44,131.802 1261.01,129.099 1257.04,125.865 C1258.21,124.146 1259.29,123.334 1260.37,123.334 C1260.65,123.334 1260.82,123.427 1260.82,123.787 L1260.82,124.146 C1260.82,126.224 1263.16,128.193 1265.68,128.193 C1268.83,128.193 1271.26,125.677 1271.26,122.443 C1271.26,118.927 1268.57,116.584 1264.6,116.584 C1260.46,116.584 1257.04,118.74 1253.08,123.693 C1249.66,121.99 1245.62,121.084 1241.02,121.084 C1228.69,121.084 1219.79,127.568 1219.79,136.474 C1219.79,142.599 1223.21,146.912 1229.68,149.162 C1222.57,150.521 1219.24,153.302 1219.24,157.99 C1219.24,161.943 1222.13,164.912 1227.43,166.349 C1221.4,167.256 1217.9,170.131 1217.9,174.365 C1217.9,180.302 1225.1,183.177 1239.85,183.177 C1256.58,183.177 1265.96,177.881 1265.96,168.24 C1265.96,163.209 1262.98,158.974 1258.48,157.631 C1255.51,156.631 1251.55,156.271 1245.07,156.271 L1238.87,156.271 M1241.29,125.771 C1245.62,125.771 1247.87,129.365 1247.87,136.209 C1247.87,142.693 1245.43,146.381 1241.21,146.381 C1238.51,146.381 1236.79,145.381 1235.8,143.131 C1234.82,141.162 1234.37,138.552 1234.37,135.662 C1234.37,129.006 1236.71,125.771 1241.29,125.771 M1244.71,168.881 C1250.29,168.881 1251.37,169.052 1252.9,170.052 C1253.71,170.584 1254.26,171.756 1254.26,173.021 C1254.26,176.709 1249.76,178.506 1240.48,178.506 C1233.55,178.506 1229.6,176.615 1229.6,173.287 C1229.6,171.302 1230.68,169.865 1232.93,168.881 L1244.71,168.881 M1309.24,121.99 L1305.37,121.99 L1302.04,123.974 C1298.62,121.99 1295.29,121.084 1290.88,121.084 C1280.71,121.084 1273.51,127.115 1273.51,135.662 C1273.51,139.084 1274.77,142.24 1277.29,144.584 C1279.99,147.193 1282.6,148.443 1288.44,149.709 L1295.01,151.146 C1299.51,152.131 1301.32,153.662 1301.32,156.365 C1301.32,159.599 1298.35,161.677 1293.57,161.677 C1286.65,161.677 1281.52,157.802 1277.19,149.256 L1273.15,149.256 L1273.6,164.818 L1277.38,164.818 L1280.88,163.209 C1284.3,165.193 1288.9,166.349 1293.57,166.349 C1304.19,166.349 1311.66,160.052 1311.66,151.052 C1311.66,147.271 1310.32,144.131 1307.79,141.881 C1305.46,139.802 1303.57,138.99 1297.08,137.381 L1288.99,135.396 C1284.57,134.224 1283.4,133.334 1283.4,130.99 C1283.4,127.927 1286.46,125.771 1290.96,125.771 C1296.73,125.771 1300.96,128.834 1305.37,136.209 L1309.6,136.209 L1309.24,121.99 "/>
<polyline class="StaffText" fill="none" stroke="#000000" stroke-width="8.09" stroke-linejoin="bevel" points="1020.46,175.506 1314.46,175.506"/>
<path class="StaffText" d="M1357.18,123.068 L1357.18,105.256 L1353.49,105.256 C1352.6,116.943 1348.63,122.881 1341.35,123.427 L1341.35,126.943 L1348.73,126.943 L1348.73,149.881 C1348.73,156.193 1348.9,158.443 1349.8,160.506 C1351.24,164.287 1354.85,166.349 1360.07,166.349 C1368.16,166.349 1373.38,160.24 1373.38,150.693 C1373.38,150.162 1373.38,149.521 1373.29,148.631 L1369.51,148.631 C1369.24,156.724 1366.9,160.865 1362.49,160.865 C1360.43,160.865 1358.63,159.787 1357.99,158.256 C1357.46,156.99 1357.18,154.74 1357.18,151.506 L1357.18,126.943 L1370.41,126.943 L1370.41,123.068 L1357.18,123.068 M1392.63,98.6774 L1375.98,99.6618 L1375.98,103.537 L1380.3,103.537 C1383.73,103.631 1384.18,104.162 1384.18,108.037 L1384.18,153.943 L1384.18,156.099 L1384.18,158.256 C1384.08,159.521 1383.99,160.052 1383.63,160.506 C1383.01,161.318 1381.29,161.677 1377.43,161.771 L1377.07,161.771 L1377.07,165.006 L1399.83,165.006 L1399.83,161.771 L1399.48,161.771 C1393.44,161.584 1392.63,161.131 1392.63,157.896 L1392.63,153.943 L1392.63,144.584 C1392.63,140.162 1393.26,136.115 1394.26,134.052 C1396.23,129.99 1400.19,127.209 1404.05,127.209 C1406.4,127.209 1409.1,128.552 1410.37,130.349 C1411.8,132.334 1412.43,135.037 1412.43,139.443 L1412.43,153.943 L1412.43,158.256 C1412.33,159.521 1412.26,160.052 1411.9,160.506 C1411.26,161.318 1409.46,161.677 1405.58,161.771 L1405.23,161.771 L1405.23,165.006 L1428.01,165.006 L1428.01,161.771 L1427.65,161.771 C1421.69,161.584 1420.9,161.131 1420.9,157.896 L1420.9,153.943 L1420.9,139.802 C1420.9,133.334 1420.62,131.709 1419.01,128.646 C1416.76,124.24 1412.26,121.724 1406.85,121.724 C1401.01,121.724 1396.68,124.334 1392.63,130.349 L1392.63,98.6774 M1470.29,136.021 C1470.29,130.349 1469.3,127.474 1466.69,125.318 C1463.73,122.881 1459.32,121.724 1453.55,121.724 C1443.38,121.724 1436.01,126.49 1436.01,133.052 C1436.01,136.381 1438.07,138.552 1441.23,138.552 C1444.1,138.552 1446.08,136.662 1446.08,133.959 C1446.08,132.787 1445.63,131.521 1444.74,130.271 C1444.19,129.631 1444.1,129.459 1444.1,129.006 C1444.1,127.209 1447.71,125.584 1452.02,125.584 C1454.9,125.584 1458.05,126.49 1459.49,127.834 C1461.21,129.271 1461.83,131.443 1461.83,135.49 L1461.83,138.99 C1452.48,140.615 1449.51,141.334 1445.1,143.052 C1437.27,145.927 1433.57,150.068 1433.57,155.834 C1433.57,162.302 1438.62,166.349 1446.63,166.349 C1452.83,166.349 1458.41,163.834 1462.29,159.24 C1463.73,163.834 1465.98,165.631 1470.21,165.631 C1474.26,165.631 1478.49,163.021 1478.49,160.412 C1478.49,159.787 1478.13,159.334 1477.58,159.334 C1477.23,159.334 1476.87,159.427 1476.24,159.693 C1474.98,160.24 1474.43,160.318 1473.71,160.318 C1471.19,160.318 1470.29,158.709 1470.29,154.115 L1470.29,136.021 M1461.83,147.006 C1461.83,152.412 1461.57,153.662 1460.04,156.006 C1457.79,159.334 1453.74,161.584 1449.77,161.584 C1445.63,161.584 1442.66,158.615 1442.66,154.568 C1442.66,150.787 1444.55,148.084 1448.52,146.193 C1451.3,144.943 1454.82,144.037 1461.83,142.865 L1461.83,147.006 M1494.76,123.068 L1494.76,105.256 L1491.07,105.256 C1490.18,116.943 1486.21,122.881 1478.93,123.427 L1478.93,126.943 L1486.3,126.943 L1486.3,149.881 C1486.3,156.193 1486.48,158.443 1487.38,160.506 C1488.82,164.287 1492.43,166.349 1497.65,166.349 C1505.74,166.349 1510.96,160.24 1510.96,150.693 C1510.96,150.162 1510.96,149.521 1510.87,148.631 L1507.08,148.631 C1506.82,156.724 1504.48,160.865 1500.07,160.865 C1498.01,160.865 1496.21,159.787 1495.57,158.256 C1495.04,156.99 1494.76,154.74 1494.76,151.506 L1494.76,126.943 L1507.99,126.943 L1507.99,123.068 L1494.76,123.068 M1564.32,153.584 L1554.41,130.443 C1554.05,129.552 1553.88,129.099 1553.88,128.646 C1553.88,126.943 1554.96,126.302 1558.02,126.302 L1559.91,126.302 L1559.91,123.068 L1538.49,123.068 L1538.49,126.302 L1539.48,126.302 C1542.54,126.396 1543.71,127.302 1545.6,131.162 L1560.27,164.381 L1558.74,167.521 C1555.49,174.365 1551.27,179.131 1548.38,179.131 C1547.58,179.131 1546.94,178.771 1546.94,178.24 C1546.94,178.052 1547.04,177.787 1547.13,177.427 C1547.4,176.615 1547.58,175.802 1547.58,175.084 C1547.58,172.74 1545.69,171.037 1542.99,171.037 C1539.83,171.037 1537.58,173.381 1537.58,176.615 C1537.58,180.662 1541.01,183.552 1545.77,183.552 C1550.55,183.552 1554.6,181.209 1558.19,176.349 C1560.99,172.662 1562.79,168.881 1566.74,159.068 L1577.01,133.599 C1579.08,128.381 1581.05,126.396 1584.57,126.302 L1585.1,126.302 L1585.1,123.068 L1567.1,123.068 L1567.1,126.302 L1568.55,126.302 C1571.98,126.302 1573.41,127.302 1573.41,129.631 C1573.41,130.631 1573.13,131.709 1572.51,133.24 L1564.32,153.584 M1605.71,121.724 C1594.65,121.724 1586.1,131.521 1586.1,144.131 C1586.1,156.459 1594.74,166.349 1605.54,166.349 C1616.33,166.349 1624.98,156.459 1624.98,144.037 C1624.98,131.709 1616.33,121.724 1605.71,121.724 M1605.71,125.584 C1612.02,125.584 1615.52,132.162 1615.52,144.037 C1615.52,156.006 1612.02,162.49 1605.54,162.49 C1599.05,162.49 1595.55,156.006 1595.55,144.131 C1595.55,131.881 1598.96,125.584 1605.71,125.584 M1665.1,165.631 L1681.48,165.006 L1681.48,161.131 L1679.23,161.131 C1674.01,160.959 1673.55,160.412 1673.55,154.568 L1673.55,123.068 L1656.65,124.052 L1656.65,127.927 L1661.23,127.927 C1664.65,128.021 1665.1,128.552 1665.1,132.427 L1665.1,143.49 C1665.1,148.631 1664.55,151.693 1663.21,154.568 C1661.32,158.615 1657.73,160.865 1653.3,160.865 C1650.52,160.865 1648.18,159.881 1647.01,158.068 C1645.83,156.365 1645.66,155.459 1645.66,150.521 L1645.66,123.068 L1629.91,124.052 L1629.91,127.927 L1633.33,127.927 C1636.76,128.021 1637.19,128.552 1637.19,132.427 L1637.19,151.865 C1637.19,156.459 1637.57,158.521 1638.91,160.599 C1641.33,164.287 1645.66,166.349 1651.07,166.349 C1657.01,166.349 1661.15,163.927 1665.1,158.162 L1665.1,165.631 M1742.23,165.631 L1757.88,165.006 L1757.88,161.131 L1756.26,161.131 C1751.13,160.865 1750.68,160.318 1750.68,154.568 L1750.68,98.6774 L1733.04,99.6618 L1733.04,103.537 L1738.35,103.537 C1741.77,103.631 1742.23,104.162 1742.23,108.037 L1742.23,128.381 C1738.9,123.787 1735.02,121.724 1729.8,121.724 C1719.63,121.724 1711.9,131.521 1711.9,144.49 C1711.9,157.271 1719.37,166.349 1729.8,166.349 C1735.48,166.349 1739.33,163.927 1742.23,158.521 L1742.23,165.631 M1731.6,126.584 C1735.29,126.584 1738.8,129.271 1740.43,133.412 C1741.58,136.115 1742.13,139.802 1742.13,144.209 C1742.13,154.74 1737.99,161.49 1731.51,161.49 C1725.12,161.49 1721.33,155.552 1721.33,145.568 C1721.33,140.162 1721.88,136.115 1723.05,133.146 C1724.58,129.099 1727.91,126.584 1731.6,126.584 M1782.35,121.724 C1771.29,121.724 1762.74,131.521 1762.74,144.131 C1762.74,156.459 1771.38,166.349 1782.18,166.349 C1792.98,166.349 1801.62,156.459 1801.62,144.037 C1801.62,131.709 1792.98,121.724 1782.35,121.724 M1782.35,125.584 C1788.66,125.584 1792.16,132.162 1792.16,144.037 C1792.16,156.006 1788.66,162.49 1782.18,162.49 C1775.69,162.49 1772.19,156.006 1772.19,144.131 C1772.19,131.881 1775.6,125.584 1782.35,125.584"/>
<path class="StaffText" d="M930.239,1076.54 L920.614,1044.51 C920.161,1043.06 920.067,1042.62 920.067,1042.07 C920.067,1040.37 921.145,1039.92 925.38,1039.64 L925.38,1034.78 L898.739,1034.78 L898.739,1039.64 C902.255,1039.82 903.161,1040.54 904.505,1044.51 L907.739,1054.59 L900.536,1077.17 L890.098,1044.95 C889.567,1043.34 889.38,1042.53 889.38,1041.89 C889.38,1040.28 890.458,1039.82 894.692,1039.64 L894.692,1034.78 L866.802,1034.78 L866.802,1039.64 C871.02,1039.64 872.02,1040.37 873.63,1044.87 L891.989,1101.1 L898.739,1101.1 L910.63,1064.48 L921.88,1101.1 L928.442,1101.1 L944.098,1051.79 C946.708,1042.79 948.333,1040.81 953.817,1039.64 L953.817,1034.78 L931.145,1034.78 L931.145,1039.64 C933.755,1039.73 935.005,1039.92 936.177,1040.45 C938.067,1041.35 939.239,1043.25 939.239,1045.4 C939.239,1046.67 939.067,1047.65 938.067,1050.89 L930.239,1076.54 M979.567,1033.43 L957.958,1034.78 L957.958,1039.37 L959.677,1039.37 C965.255,1039.37 965.52,1039.73 965.427,1048.1 L965.427,1086.81 L965.427,1091.67 C965.333,1092.92 965.255,1093.46 964.895,1094 C964.255,1094.81 962.552,1095.17 958.583,1095.17 L958.223,1095.17 L958.223,1099.76 L985.677,1099.76 L985.677,1095.17 C980.645,1095.17 979.473,1094.45 979.567,1091.31 L979.567,1086.81 L979.567,1078.07 C979.567,1074.03 979.927,1071.68 980.911,1069.53 C982.348,1066.28 985.505,1064.21 988.833,1064.21 C992.973,1064.21 995.223,1067.28 995.223,1073.03 L995.223,1086.81 L995.223,1089.32 L995.223,1091.67 C995.13,1092.92 995.036,1093.46 994.677,1094 C993.786,1094.9 992.067,1095.26 989.005,1095.17 L989.005,1099.76 L1016.46,1099.76 L1016.46,1095.17 L1016.1,1095.17 C1010.16,1095.07 1009.35,1094.64 1009.35,1091.31 L1009.35,1086.81 L1009.35,1071.78 C1009.35,1066.2 1008.36,1062.78 1005.93,1060.17 C1003.5,1057.37 999.536,1055.84 994.864,1055.84 C988.02,1055.84 983.333,1058.37 979.567,1064.12 L979.567,1033.43 M1066.75,1079.25 L1066.75,1077.81 C1066.75,1064.39 1058.47,1055.84 1045.25,1055.84 C1037.96,1055.84 1032.02,1058.18 1027.52,1062.78 C1023.47,1067 1021.04,1072.95 1021.04,1078.89 C1021.04,1085.35 1023.83,1091.75 1028.33,1095.62 C1032.47,1099.14 1038.5,1101.1 1045.33,1101.1 C1055.86,1101.1 1062.8,1096.43 1066.75,1086.81 L1062.35,1085 C1058.75,1092.03 1054.79,1095 1048.85,1095 C1044.71,1095 1041.11,1093.01 1038.86,1089.59 C1037.33,1087.17 1036.71,1084.37 1036.61,1079.25 L1066.75,1079.25 M1036.71,1074.29 C1036.71,1065.75 1040.11,1060.53 1045.52,1060.53 C1050.19,1060.53 1052.63,1064.31 1052.63,1071.42 C1052.63,1073.57 1052,1074.29 1050.19,1074.29 L1036.71,1074.29 M1092.22,1057.2 L1071.61,1057.82 L1071.61,1062.42 L1072.97,1062.42 C1078.55,1062.5 1078.82,1062.85 1078.72,1071.14 L1078.72,1086.81 L1078.72,1090.95 L1078.72,1091.67 C1078.63,1092.92 1078.55,1093.46 1078.19,1094 C1077.55,1094.81 1075.85,1095.17 1071.97,1095.17 L1071.61,1095.17 L1071.61,1099.76 L1099.07,1099.76 L1099.07,1095.17 C1093.94,1095.17 1092.77,1094.45 1092.86,1091.31 L1092.86,1086.81 L1092.86,1078.07 C1092.86,1074.03 1093.22,1071.68 1094.3,1069.53 C1095.74,1066.28 1098.88,1064.21 1102.13,1064.21 C1106.35,1064.21 1108.69,1067.28 1108.69,1073.03 L1108.69,1086.81 L1108.69,1089.32 L1108.69,1091.67 C1108.6,1092.92 1108.52,1093.46 1108.16,1094 C1107.25,1094.9 1105.55,1095.26 1102.49,1095.17 L1102.49,1099.76 L1129.94,1099.76 L1129.94,1095.17 L1129.57,1095.17 C1123.55,1095.07 1122.83,1094.64 1122.83,1091.31 L1122.83,1086.81 L1122.83,1071.78 C1122.83,1066.2 1121.83,1062.78 1119.41,1060.17 C1116.97,1057.37 1113.02,1055.84 1108.24,1055.84 C1101.13,1055.84 1096.63,1058.45 1092.22,1065.1 L1092.22,1057.2 "/>
<polyline class="StaffText" fill="none" stroke="#000000" stroke-width="8.09" stroke-linejoin="bevel" points="866.255,1110.26 1131.25,1110.26"/>
<path class="StaffText" d="M1159.9,1039.01 L1161.69,1039.01 C1166.82,1039.1 1168.54,1039.37 1169.25,1040.28 C1169.79,1041.09 1169.79,1041.35 1169.79,1045.85 L1169.79,1088.7 C1169.79,1093.2 1169.79,1093.46 1169.25,1094.28 C1168.54,1095.17 1166.82,1095.53 1161.69,1095.53 L1159.9,1095.53 L1159.9,1099.76 L1189.68,1099.76 L1189.68,1095.53 L1187.88,1095.53 C1182.85,1095.53 1181.13,1095.26 1180.41,1094.28 C1179.88,1093.46 1179.88,1093.28 1179.88,1088.7 L1179.88,1045.85 C1179.88,1041.26 1179.88,1041.09 1180.41,1040.28 C1181.13,1039.37 1182.75,1039.1 1187.88,1039.01 L1189.68,1039.01 L1189.68,1034.78 L1159.9,1034.78 L1159.9,1039.01 M1201.29,1054.95 L1203.27,1054.95 L1206.05,1038.84 C1206.15,1038.39 1206.15,1037.84 1206.15,1037.39 C1206.15,1035.14 1204.52,1033.53 1202.27,1033.53 C1200.04,1033.53 1198.41,1035.14 1198.41,1037.39 C1198.41,1037.84 1198.41,1038.29 1198.5,1038.84 L1201.29,1054.95 M1229.55,1057.82 L1213.52,1058.81 L1213.52,1062.68 L1217.22,1062.68 C1220.63,1062.78 1221.08,1063.31 1221.08,1067.18 L1221.08,1088.7 L1221.08,1092.2 L1221.08,1092.92 C1221,1094.28 1220.91,1094.81 1220.55,1095.26 C1219.91,1096.07 1218.21,1096.43 1214.33,1096.53 L1213.97,1096.53 L1213.97,1099.76 L1236.66,1099.76 L1236.66,1096.53 L1236.3,1096.53 C1230.36,1096.34 1229.55,1095.89 1229.55,1092.56 L1229.55,1088.7 L1229.55,1075.92 C1229.55,1067.9 1233.96,1061.96 1239.8,1061.96 C1244.94,1061.96 1247.55,1065.65 1247.55,1072.95 L1247.55,1088.7 L1247.55,1093.01 C1247.46,1094.18 1247.36,1094.81 1246.91,1095.26 C1246.38,1096.07 1244.58,1096.43 1240.71,1096.53 L1240.35,1096.53 L1240.35,1099.76 L1263.11,1099.76 L1263.11,1096.53 L1262.75,1096.53 C1256.82,1096.34 1256,1095.89 1256,1092.65 L1256,1088.7 L1256,1076.71 C1256,1067.73 1260.05,1061.96 1266.35,1061.96 C1271.49,1061.96 1274,1065.84 1274,1073.93 L1274,1088.7 L1274,1092.92 C1273.91,1094.18 1273.83,1094.81 1273.38,1095.26 C1272.83,1096.07 1271.04,1096.43 1267.16,1096.53 L1266.8,1096.53 L1266.8,1099.76 L1289.57,1099.76 L1289.57,1096.53 L1289.21,1096.53 C1283.27,1096.34 1282.46,1095.89 1282.46,1092.56 L1282.46,1088.7 L1282.46,1072.14 C1282.46,1066.56 1281.93,1064.67 1279.58,1061.6 C1276.97,1058.28 1273.29,1056.48 1268.96,1056.48 C1263.11,1056.48 1258.8,1059.26 1254.93,1065.48 C1253.4,1060.07 1248.54,1056.48 1242.5,1056.48 C1237.02,1056.48 1233.05,1059.09 1229.55,1064.75 L1229.55,1057.82 M1334.47,1033.43 L1317.82,1034.42 L1317.82,1038.29 L1322.15,1038.29 C1325.57,1038.39 1326.02,1038.92 1326.02,1042.79 L1326.02,1088.7 L1326.02,1090.85 L1326.02,1093.01 C1325.93,1094.28 1325.83,1094.81 1325.47,1095.26 C1324.85,1096.07 1323.13,1096.43 1319.27,1096.53 L1318.91,1096.53 L1318.91,1099.76 L1341.68,1099.76 L1341.68,1096.53 L1341.32,1096.53 C1335.29,1096.34 1334.47,1095.89 1334.47,1092.65 L1334.47,1088.7 L1334.47,1079.34 C1334.47,1074.92 1335.1,1070.87 1336.1,1068.81 C1338.07,1064.75 1342.04,1061.96 1345.9,1061.96 C1348.24,1061.96 1350.94,1063.31 1352.21,1065.1 C1353.65,1067.09 1354.27,1069.79 1354.27,1074.2 L1354.27,1088.7 L1354.27,1093.01 C1354.18,1094.28 1354.1,1094.81 1353.74,1095.26 C1353.1,1096.07 1351.3,1096.43 1347.43,1096.53 L1347.07,1096.53 L1347.07,1099.76 L1369.85,1099.76 L1369.85,1096.53 L1369.49,1096.53 C1363.54,1096.34 1362.74,1095.89 1362.74,1092.65 L1362.74,1088.7 L1362.74,1074.56 C1362.74,1068.09 1362.46,1066.46 1360.85,1063.4 C1358.6,1059 1354.1,1056.48 1348.69,1056.48 C1342.85,1056.48 1338.52,1059.09 1334.47,1065.1 L1334.47,1033.43 M1394.13,1056.48 C1383.07,1056.48 1374.52,1066.28 1374.52,1078.89 C1374.52,1091.21 1383.16,1101.1 1393.96,1101.1 C1404.75,1101.1 1413.4,1091.21 1413.4,1078.79 C1413.4,1066.46 1404.75,1056.48 1394.13,1056.48 M1394.13,1060.34 C1400.44,1060.34 1403.94,1066.92 1403.94,1078.79 C1403.94,1090.76 1400.44,1097.25 1393.96,1097.25 C1387.47,1097.25 1383.97,1090.76 1383.97,1078.89 C1383.97,1066.64 1387.38,1060.34 1394.13,1060.34 M1434.54,1057.82 L1418.5,1058.81 L1418.5,1062.68 L1422.21,1062.68 C1425.61,1062.78 1426.07,1063.31 1426.07,1067.18 L1426.07,1088.7 L1426.07,1092.2 L1426.07,1092.92 C1425.99,1094.28 1425.9,1094.81 1425.54,1095.26 C1424.9,1096.07 1423.19,1096.43 1419.32,1096.53 L1418.96,1096.53 L1418.96,1099.76 L1441.65,1099.76 L1441.65,1096.53 L1441.29,1096.53 C1435.35,1096.34 1434.54,1095.89 1434.54,1092.56 L1434.54,1088.7 L1434.54,1075.92 C1434.54,1067.9 1438.94,1061.96 1444.79,1061.96 C1449.93,1061.96 1452.54,1065.65 1452.54,1072.95 L1452.54,1088.7 L1452.54,1093.01 C1452.44,1094.18 1452.35,1094.81 1451.9,1095.26 C1451.36,1096.07 1449.57,1096.43 1445.69,1096.53 L1445.33,1096.53 L1445.33,1099.76 L1468.1,1099.76 L1468.1,1096.53 L1467.74,1096.53 C1461.8,1096.34 1460.99,1095.89 1460.99,1092.65 L1460.99,1088.7 L1460.99,1076.71 C1460.99,1067.73 1465.04,1061.96 1471.33,1061.96 C1476.47,1061.96 1478.99,1065.84 1478.99,1073.93 L1478.99,1088.7 L1478.99,1092.92 C1478.9,1094.18 1478.82,1094.81 1478.36,1095.26 C1477.82,1096.07 1476.02,1096.43 1472.15,1096.53 L1471.79,1096.53 L1471.79,1099.76 L1494.55,1099.76 L1494.55,1096.53 L1494.19,1096.53 C1488.25,1096.34 1487.44,1095.89 1487.44,1092.56 L1487.44,1088.7 L1487.44,1072.14 C1487.44,1066.56 1486.91,1064.67 1484.57,1061.6 C1481.96,1058.28 1478.27,1056.48 1473.94,1056.48 C1468.1,1056.48 1463.79,1059.26 1459.91,1065.48 C1458.38,1060.07 1453.52,1056.48 1447.49,1056.48 C1442,1056.48 1438.04,1059.09 1434.54,1064.75 L1434.54,1057.82 M1538.29,1079.51 C1538.38,1066.01 1530.72,1056.48 1519.75,1056.48 C1508.24,1056.48 1499.6,1066.46 1499.6,1079.96 C1499.6,1092.65 1507.79,1101.1 1519.93,1101.1 C1528.57,1101.1 1534.6,1096.89 1538.29,1088.34 L1535.15,1086.62 C1531.46,1093.56 1527.68,1096.25 1521.65,1096.25 C1517.05,1096.25 1513.72,1094.35 1511.38,1090.31 C1509.75,1087.6 1509.04,1084.46 1509.13,1079.51 L1538.29,1079.51 M1509.22,1075.64 C1509.22,1072.85 1509.58,1070.87 1510.49,1068.35 C1512.36,1062.95 1515.25,1060.34 1519.66,1060.34 C1525.07,1060.34 1528.66,1065.1 1528.66,1072.4 C1528.66,1074.92 1527.85,1075.64 1524.97,1075.64 L1509.22,1075.64 "/>
<path class="StaffText" d="M2289.48,1816.78 L2286.15,1816.78 L2282.54,1822.17 C2278.23,1818.13 2272.56,1815.97 2266.17,1815.97 C2254.29,1815.97 2246.47,1823.44 2246.47,1834.78 C2246.47,1844.6 2251.33,1849.45 2264.54,1852.88 L2273.11,1855.03 C2279.76,1856.74 2280.39,1856.92 2282.28,1858.36 C2284.98,1860.42 2286.42,1863.39 2286.42,1866.91 C2286.42,1870.5 2285.08,1873.49 2282.37,1876 C2279.4,1878.52 2276.44,1879.5 2271.48,1879.5 C2264.83,1879.5 2260.04,1877.44 2255.83,1872.75 C2252.04,1868.63 2250.15,1864.3 2248.79,1857.38 L2244.94,1857.38 L2245.29,1883.02 L2248.79,1883.02 L2252.86,1876.89 C2258.89,1881.85 2263.83,1883.64 2271.75,1883.64 C2284.98,1883.64 2293.44,1875.91 2293.44,1863.85 C2293.44,1858.17 2291.64,1853.5 2288.04,1850.08 C2285.61,1847.74 2282.11,1846.2 2274.9,1844.41 L2265.26,1841.99 C2257.26,1839.91 2253.48,1836.41 2253.48,1830.91 C2253.48,1824.61 2258.61,1820.3 2266.26,1820.3 C2272.56,1820.3 2277.69,1822.99 2281.29,1828.13 C2283.9,1831.81 2285.61,1835.6 2286.69,1840.17 L2290.56,1840.17 L2289.48,1816.78 M2320.61,1839.02 C2309.54,1839.02 2301,1848.81 2301,1861.42 C2301,1873.75 2309.64,1883.64 2320.44,1883.64 C2331.23,1883.64 2339.87,1873.75 2339.87,1861.33 C2339.87,1849 2331.23,1839.02 2320.61,1839.02 M2320.61,1842.88 C2326.92,1842.88 2330.42,1849.45 2330.42,1861.33 C2330.42,1873.3 2326.92,1879.78 2320.44,1879.78 C2313.95,1879.78 2310.45,1873.3 2310.45,1861.42 C2310.45,1849.17 2313.86,1842.88 2320.61,1842.88 M2361.28,1815.97 L2344.62,1816.95 L2344.62,1820.83 L2349.04,1820.83 C2352.37,1820.92 2352.83,1821.45 2352.83,1825.33 L2352.83,1871.24 L2352.83,1875.45 C2352.73,1876.81 2352.64,1877.35 2352.28,1877.8 C2351.65,1878.61 2349.94,1878.97 2346.08,1879.06 L2345.44,1879.06 L2345.44,1882.3 L2368.75,1882.3 L2368.75,1879.06 L2368.12,1879.06 C2362.09,1878.88 2361.28,1878.42 2361.28,1875.19 L2361.28,1871.24 L2361.28,1815.97 M2393.94,1839.02 C2382.87,1839.02 2374.33,1848.81 2374.33,1861.42 C2374.33,1873.75 2382.97,1883.64 2393.76,1883.64 C2404.56,1883.64 2413.2,1873.75 2413.2,1861.33 C2413.2,1849 2404.56,1839.02 2393.94,1839.02 M2393.94,1842.88 C2400.25,1842.88 2403.75,1849.45 2403.75,1861.33 C2403.75,1873.3 2400.25,1879.78 2393.76,1879.78 C2387.28,1879.78 2383.78,1873.3 2383.78,1861.42 C2383.78,1849.17 2387.19,1842.88 2393.94,1842.88"/>
<path class="RehearsalMark" fill="none" stroke="#000000" stroke-width="7.20" stroke-linecap="square" stroke-linejoin="miter" stroke-miterlimit="2" fill-rule="evenodd" d="M216.607,105.482 L370.807,105.482 L370.807,250.681 L216.607,250.681 L216.607,105.482 "/>
<path class="RehearsalMark" d="M289.942,131.707 L261.332,198.503 C255.535,212.113 250.879,217.019 243.442,217.785 L243.442,224.582 L279.848,224.582 L279.848,217.785 C270.91,217.269 267.379,214.878 267.379,209.082 C267.379,206.941 267.879,204.925 269.27,201.894 L271.285,197.113 L302.66,197.113 L307.457,209.457 C308.832,212.988 308.957,213.613 308.957,214.628 C308.957,216.894 307.192,217.644 301.66,217.644 L299.52,217.785 L299.52,224.582 L343.739,224.582 L343.739,217.785 C336.551,217.519 334.535,216.269 331.895,209.832 L299.52,131.707 L289.942,131.707 M287.285,158.55 L299.52,188.675 L274.567,188.675 L287.285,158.55 "/>
<path class="RehearsalMark" fill="none" stroke="#000000" stroke-width="7.20" stroke-linecap="square" stroke-linejoin="miter" stroke-miterlimit="2" fill-rule="evenodd" d="M281.367,869.385 L424.567,869.385 L424.567,1012.59 L281.367,1012.59 L281.367,869.385 "/>
<path class="RehearsalMark" d="M307.608,895.501 L307.608,902.314 L309.499,902.314 C316.311,902.314 318.702,902.814 319.827,904.079 C320.717,905.47 320.717,905.845 320.717,913.657 L320.717,968.345 C320.717,976.157 320.717,976.532 319.827,977.798 C318.702,979.173 316.17,979.689 309.499,979.689 L307.608,979.689 L307.608,986.485 L358.639,986.485 C371.749,986.485 378.42,985.47 384.983,982.579 C392.92,979.048 398.202,971.11 398.202,962.548 C398.202,953.72 393.17,946.798 383.842,942.517 C379.561,940.485 375.905,939.485 369.233,938.61 C375.405,937.595 378.936,936.72 382.452,935.079 C390.014,931.423 394.045,925.376 394.045,917.814 C394.045,910.626 390.264,903.954 384.092,900.548 C377.17,896.642 371.124,895.501 356.249,895.501 L307.608,895.501 M343.389,936.329 L343.389,909.626 C343.139,904.329 344.905,902.564 350.452,902.314 L354.233,902.314 C365.327,902.314 371.249,907.86 371.249,918.314 C371.249,924.485 369.108,929.407 365.061,932.548 C361.67,935.329 357.389,936.329 349.577,936.329 L343.389,936.329 M343.389,943.267 L352.092,943.267 C360.03,943.267 363.686,944.017 367.217,946.282 C371.624,949.189 374.139,954.735 374.139,961.282 C374.139,967.329 371.874,972.876 368.217,975.907 C365.061,978.423 360.905,979.689 354.858,979.689 L351.077,979.689 C343.905,979.423 343.139,978.673 343.389,971.61 L343.389,943.267 "/>
<path class="RehearsalMark" fill="none" stroke="#000000" stroke-width="7.20" stroke-linecap="square" stroke-linejoin="miter" stroke-miterlimit="2" fill-rule="evenodd" d="M2010.17,1682.17 L2157.37,1682.17 L2157.37,1829.37 L2010.17,1829.37 L2010.17,1682.17 "/>
<path class="RehearsalMark" d="M2123.22,1708.91 L2117.8,1708.91 L2111,1715.08 C2102.67,1710.04 2097.02,1708.4 2087.94,1708.4 C2073.83,1708.4 2062.11,1713.19 2053.03,1722.9 C2044.47,1731.97 2040.31,1743.18 2040.31,1756.91 C2040.31,1770.02 2044.09,1780.35 2052.28,1789.3 C2060.97,1798.88 2071.56,1803.16 2086.42,1803.16 C2108.73,1803.16 2121.45,1792.44 2126.37,1769.77 L2118.56,1767.88 C2115.16,1785.4 2105.08,1795.35 2090.58,1795.35 C2073.45,1795.35 2065.37,1782.36 2065.37,1754.65 C2065.37,1728.44 2073.45,1714.96 2088.94,1714.96 C2102.94,1714.96 2112.12,1724.66 2117.8,1745.71 L2124.48,1744.94 L2123.22,1708.91 "/>
<path class="NoteDot" transform="matrix(1.8,0,0,1.8,1643.46,1234.49)" d="M0,0 C0,2.76563 2.23438,5 5,5 C7.76563,5 10,2.76563 10,0 C10,-2.76563 7.76563,-5 5,-5 C2.23438,-5 0,-2.76563 0,0"/>
<path class="NoteDot" transform="matrix(1.8,0,0,1.8,2736.84,1234.49)" d="M0,0 C0,2.76563 2.23438,5 5,5 C7.76563,5 10,2.76563 10,0 C10,-2.76563 7.76563,-5 5,-5 C2.23438,-5 0,-2.76563 0,0"/>
<path class="NoteDot" transform="matrix(1.8,0,0,1.8,500.869,2060.62)" d="M0,0 C0,2.76563 2.23438,5 5,5 C7.76563,5 10,2.76563 10,0 C10,-2.76563 7.76563,-5 5,-5 C2.23438,-5 0,-2.76563 0,0"/>
<path class="NoteDot" transform="matrix(1.8,0,0,1.8,2397.61,2060.62)" d="M0,0 C0,2.76563 2.23438,5 5,5 C7.76563,5 10,2.76563 10,0 C10,-2.76563 7.76563,-5 5,-5 C2.23438,-5 0,-2.76563 0,0"/>
<path class="NoteDot" transform="matrix(1.8,0,0,1.8,3746.36,1970.62)" d="M0,0 C0,2.76563 2.23438,5 5,5 C7.76563,5 10,2.76563 10,0 C10,-2.76563 7.76563,-5 5,-5 C2.23438,-5 0,-2.76563 0,0"/>
<path class="NoteDot" transform="matrix(1.8,0,0,1.8,3775.61,1970.62)" d="M0,0 C0,2.76563 2.23438,5 5,5 C7.76563,5 10,2.76563 10,0 C10,-2.76563 7.76563,-5 5,-5 C2.23438,-5 0,-2.76563 0,0"/>
</svg>
