<?xml version="1.0" encoding="UTF-8" standalone="no"?>
<svg width="4208.47px" height="2409.45px" viewBox="0 0 4208.47 2409.45"
 xmlns="http://www.w3.org/2000/svg" xmlns:xlink="http://www.w3.org/1999/xlink" version="1.2" baseProfile="tiny">
<title>SAX TENOR</title>
<desc>Generated by MuseScore 3.6.2</desc>
<polyline class="StaffLines" fill="none" stroke="#000000" stroke-width="3.57" stroke-linejoin="bevel" points="70.866,383.386 4137.61,383.386"/>
<polyline class="StaffLines" fill="none" stroke="#000000" stroke-width="3.57" stroke-linejoin="bevel" points="70.866,428.031 4137.61,428.031"/>
<polyline class="StaffLines" fill="none" stroke="#000000" stroke-width="3.57" stroke-linejoin="bevel" points="70.866,472.677 4137.61,472.677"/>
<polyline class="StaffLines" fill="none" stroke="#000000" stroke-width="3.57" stroke-linejoin="bevel" points="70.866,517.323 4137.61,517.323"/>
<polyline class="StaffLines" fill="none" stroke="#000000" stroke-width="3.57" stroke-linejoin="bevel" points="70.866,561.968 4137.61,561.968"/>
<polyline class="StaffLines" fill="none" stroke="#000000" stroke-width="3.57" stroke-linejoin="bevel" points="70.866,977.178 4137.61,977.178"/>
<polyline class="StaffLines" fill="none" stroke="#000000" stroke-width="3.57" stroke-linejoin="bevel" points="70.866,1021.82 4137.61,1021.82"/>
<polyline class="StaffLines" fill="none" stroke="#000000" stroke-width="3.57" stroke-linejoin="bevel" points="70.866,1066.47 4137.61,1066.47"/>
<polyline class="StaffLines" fill="none" stroke="#000000" stroke-width="3.57" stroke-linejoin="bevel" points="70.866,1111.11 4137.61,1111.11"/>
<polyline class="StaffLines" fill="none" stroke="#000000" stroke-width="3.57" stroke-linejoin="bevel" points="70.866,1155.76 4137.61,1155.76"/>
<polyline class="StaffLines" fill="none" stroke="#000000" stroke-width="3.57" stroke-linejoin="bevel" points="70.866,1570.97 4137.61,1570.97"/>
<polyline class="StaffLines" fill="none" stroke="#000000" stroke-width="3.57" stroke-linejoin="bevel" points="70.866,1615.62 4137.61,1615.62"/>
<polyline class="StaffLines" fill="none" stroke="#000000" stroke-width="3.57" stroke-linejoin="bevel" points="70.866,1660.26 4137.61,1660.26"/>
<polyline class="StaffLines" fill="none" stroke="#000000" stroke-width="3.57" stroke-linejoin="bevel" points="70.866,1704.91 4137.61,1704.91"/>
<polyline class="StaffLines" fill="none" stroke="#000000" stroke-width="3.57" stroke-linejoin="bevel" points="70.866,1749.55 4137.61,1749.55"/>
<polyline class="StaffLines" fill="none" stroke="#000000" stroke-width="3.57" stroke-linejoin="bevel" points="70.866,2164.76 4137.61,2164.76"/>
<polyline class="StaffLines" fill="none" stroke="#000000" stroke-width="3.57" stroke-linejoin="bevel" points="70.866,2209.41 4137.61,2209.41"/>
<polyline class="StaffLines" fill="none" stroke="#000000" stroke-width="3.57" stroke-linejoin="bevel" points="70.866,2254.05 4137.61,2254.05"/>
<polyline class="StaffLines" fill="none" stroke="#000000" stroke-width="3.57" stroke-linejoin="bevel" points="70.866,2298.7 4137.61,2298.7"/>
<polyline class="StaffLines" fill="none" stroke="#000000" stroke-width="3.57" stroke-linejoin="bevel" points="70.866,2343.34 4137.61,2343.34"/>
<path class="MeasureNumber" d="M79.2097,873.933 C79.2097,871.402 78.6551,869.157 77.5457,867.199 C76.4363,865.24 75.0874,863.725 73.4988,862.652 C71.9103,861.579 70.1342,860.696 68.1707,860.003 C66.2071,859.311 64.504,858.858 63.0613,858.644 C61.6186,858.431 60.3504,858.324 59.2566,858.324 C58.6941,858.324 58.4129,858.131 58.4129,857.746 C58.4129,857.61 58.4337,857.496 58.4754,857.402 L66.2254,840.886 L81.0535,840.886 C81.8139,840.886 82.4181,840.766 82.866,840.527 C83.3139,840.287 83.7983,839.793 84.3191,839.043 L84.9597,839.543 L82.2722,845.48 C82.0743,845.876 81.5275,846.074 80.6316,846.074 L66.7097,846.074 L63.741,852.152 C70.6472,853.391 75.7801,855.41 79.1394,858.207 C82.4988,861.003 84.1785,865.1 84.1785,870.496 C84.1785,873.319 83.741,875.832 82.866,878.035 C81.991,880.238 80.879,882.009 79.5301,883.347 C78.1811,884.686 76.6186,885.787 74.8426,886.652 C73.0665,887.516 71.3634,888.105 69.7332,888.418 C68.103,888.73 66.4597,888.886 64.8035,888.886 C62.1472,888.886 60.0379,888.49 58.4754,887.699 C56.9129,886.907 56.1316,885.819 56.1316,884.433 C56.1316,882.662 57.1525,881.777 59.1941,881.777 C60.517,881.777 62.2306,882.511 64.3347,883.98 C66.4389,885.449 68.1108,886.183 69.3504,886.183 C72.142,886.183 74.4832,885.001 76.3738,882.636 C78.2644,880.272 79.2097,877.371 79.2097,873.933"/>
<path class="MeasureNumber" d="M57.5535,1483.24 L57.3347,1481.82 C62.7306,1480.87 67.3113,1478.57 71.0769,1474.91 C74.8426,1471.26 77.4597,1466.53 78.9285,1460.74 C75.4285,1463.48 71.8764,1464.85 68.2722,1464.85 C64.4389,1464.85 61.3504,1463.52 59.0066,1460.87 C56.6629,1458.21 55.491,1454.72 55.491,1450.4 C55.491,1445.58 56.8999,1441.57 59.7176,1438.36 C62.5353,1435.14 66.0483,1433.54 70.2566,1433.54 C74.9545,1433.54 78.8035,1435.42 81.8035,1439.17 C84.8035,1442.93 86.3035,1447.76 86.3035,1453.66 C86.3035,1455.56 86.1368,1457.5 85.8035,1459.49 C85.4702,1461.48 84.6915,1463.84 83.4676,1466.56 C82.2436,1469.28 80.6499,1471.73 78.6863,1473.89 C76.7228,1476.05 73.9207,1478.01 70.2801,1479.76 C66.6394,1481.51 62.3972,1482.67 57.5535,1483.24 M70.8347,1461.73 C71.7306,1461.73 72.7462,1461.59 73.8816,1461.33 C75.017,1461.07 76.1655,1460.51 77.3269,1459.64 C78.4884,1458.77 79.0691,1457.69 79.0691,1456.41 L79.0691,1453.66 C79.0691,1441.67 75.9441,1435.68 69.6941,1435.68 C68.2254,1435.68 66.9702,1436.07 65.9285,1436.84 C64.8868,1437.62 64.0952,1438.64 63.5535,1439.92 C63.0118,1441.2 62.6212,1442.5 62.3816,1443.82 C62.142,1445.14 62.0222,1446.53 62.0222,1447.99 C62.0222,1452.19 62.8165,1455.53 64.4051,1458.01 C65.9936,1460.49 68.1368,1461.73 70.8347,1461.73"/>
<path class="MeasureNumber" d="M45.366,2033.36 C44.5118,2033.36 42.8035,2033.88 40.241,2034.92 L40.241,2033.94 L52.9597,2027.47 L53.5222,2027.61 L53.5222,2070.22 C53.5222,2071.92 53.9493,2073.03 54.8035,2073.55 C55.6577,2074.07 57.4806,2074.36 60.2722,2074.41 L60.2722,2075.47 L40.741,2075.47 L40.741,2074.41 C43.3972,2074.31 45.1863,2073.92 46.1082,2073.24 C47.0301,2072.55 47.491,2071.09 47.491,2068.86 L47.491,2036.7 C47.491,2034.48 46.7827,2033.36 45.366,2033.36 M70.0691,2041.66 C70.3087,2040.56 70.5457,2039.62 70.7801,2038.81 C71.0144,2038.01 71.5222,2036.84 72.3035,2035.31 C73.0847,2033.77 73.9597,2032.49 74.9285,2031.48 C75.8972,2030.46 77.2462,2029.55 78.9754,2028.75 C80.7045,2027.95 82.6577,2027.55 84.8347,2027.55 C88.5118,2027.55 91.6082,2028.75 94.1238,2031.16 C96.6394,2033.56 97.8972,2036.54 97.8972,2040.08 C97.8972,2045.46 94.8764,2051.35 88.8347,2057.72 L76.9597,2070.28 L93.866,2070.28 C95.4702,2070.28 96.6629,2070.01 97.4441,2069.46 C98.2254,2068.92 99.2775,2067.62 100.6,2065.58 L101.522,2065.94 L97.616,2075.47 L69.991,2075.47 L69.991,2074.66 L82.6316,2061.24 C88.7879,2054.71 91.866,2048.57 91.866,2042.8 C91.866,2039.8 90.9415,2037.37 89.0926,2035.52 C87.2436,2033.66 84.8295,2032.74 81.8504,2032.74 C79.392,2032.74 77.4181,2033.41 75.9285,2034.77 C74.4389,2036.12 72.9806,2038.54 71.5535,2042.02 L70.0691,2041.66 "/>
<polyline class="BarLine" fill="none" stroke="#000000" stroke-width="7.14" stroke-linejoin="bevel" points="1452.01,381.6 1452.01,563.754"/>
<polyline class="BarLine" fill="none" stroke="#000000" stroke-width="7.14" stroke-linejoin="bevel" points="2456.27,381.6 2456.27,563.754"/>
<polyline class="BarLine" fill="none" stroke="#000000" stroke-width="7.14" stroke-linejoin="bevel" points="3674.5,381.6 3674.5,563.754"/>
<path class="BarLine" transform="matrix(1.78583,0,0,1.78583,4064.53,472.677)" d="M1.66406,-8.5 C0.554688,-9.60417 0,-10.9375 0,-12.5 C0,-14.0625 0.554688,-15.3984 1.66406,-16.5078 C2.77344,-17.6172 4.10938,-18.1719 5.67188,-18.1719 C7.23438,-18.1719 8.56771,-17.6172 9.67188,-16.5078 C10.776,-15.3984 11.3281,-14.0625 11.3281,-12.5 C11.3281,-10.9375 10.776,-9.60417 9.67188,-8.5 C8.56771,-7.39583 7.23438,-6.84375 5.67188,-6.84375 C4.10938,-6.84375 2.77344,-7.39583 1.66406,-8.5"/>
<path class="BarLine" transform="matrix(1.78583,0,0,1.78583,4064.53,517.323)" d="M1.66406,-8.5 C0.554688,-9.60417 0,-10.9375 0,-12.5 C0,-14.0625 0.554688,-15.3984 1.66406,-16.5078 C2.77344,-17.6172 4.10938,-18.1719 5.67188,-18.1719 C7.23438,-18.1719 8.56771,-17.6172 9.67188,-16.5078 C10.776,-15.3984 11.3281,-14.0625 11.3281,-12.5 C11.3281,-10.9375 10.776,-9.60417 9.67188,-8.5 C8.56771,-7.39583 7.23438,-6.84375 5.67188,-6.84375 C4.10938,-6.84375 2.77344,-7.39583 1.66406,-8.5"/>
<polyline class="BarLine" fill="none" stroke="#000000" stroke-width="7.14" stroke-linejoin="bevel" points="4102.77,381.6 4102.77,563.754"/>
<polyline class="BarLine" fill="none" stroke="#000000" stroke-width="22.32" stroke-linejoin="bevel" points="4130.9,381.6 4130.9,563.754"/>
<polyline class="BarLine" fill="none" stroke="#000000" stroke-width="7.14" stroke-linejoin="bevel" points="888.951,975.392 888.951,1157.55"/>
<polyline class="BarLine" fill="none" stroke="#000000" stroke-width="7.14" stroke-linejoin="bevel" points="1895.35,975.392 1895.35,1157.55"/>
<polyline class="BarLine" fill="none" stroke="#000000" stroke-width="7.14" stroke-linejoin="bevel" points="3127.64,975.392 3127.64,1157.55"/>
<polyline class="BarLine" fill="none" stroke="#000000" stroke-width="7.14" stroke-linejoin="bevel" points="4134.03,975.392 4134.03,1157.55"/>
<polyline class="BarLine" fill="none" stroke="#000000" stroke-width="7.14" stroke-linejoin="bevel" points="1742.27,1569.18 1742.27,1751.34"/>
<polyline class="BarLine" fill="none" stroke="#000000" stroke-width="7.14" stroke-linejoin="bevel" points="2912.41,1569.18 2912.41,1751.34"/>
<polyline class="BarLine" fill="none" stroke="#000000" stroke-width="7.14" stroke-linejoin="bevel" points="4134.03,1569.18 4134.03,1751.34"/>
<polyline class="BarLine" fill="none" stroke="#000000" stroke-width="7.14" stroke-linejoin="bevel" points="1543.15,2162.98 1543.15,2345.13"/>
<polyline class="BarLine" fill="none" stroke="#000000" stroke-width="7.14" stroke-linejoin="bevel" points="2662.77,2162.98 2662.77,2345.13"/>
<polyline class="BarLine" fill="none" stroke="#000000" stroke-width="7.14" stroke-linejoin="bevel" points="3782.4,2162.98 3782.4,2345.13"/>
<polyline class="BarLine" fill="none" stroke="#000000" stroke-width="7.14" stroke-linejoin="bevel" points="4098.32,2162.98 4098.32,2345.13"/>
<polyline class="BarLine" fill="none" stroke="#000000" stroke-width="22.32" stroke-linejoin="bevel" points="4126.44,2162.98 4126.44,2345.13"/>
<path class="Accidental" transform="matrix(1.78583,0,0,1.78583,2348.99,1066.47)" d="M0.875,17.5781 L-0.390625,-44.5313 C-0.390625,-45.5104 0.375,-46 1.90625,-46 C3.4375,-46 4.20313,-45.5104 4.20313,-44.5313 L3.42188,-10.6406 C5.18229,-12.401 6.69531,-13.6224 7.96094,-14.3047 C9.22656,-14.987 10.9505,-15.3281 13.1328,-15.3281 C15.3151,-15.3281 17.3333,-14.3203 19.1875,-12.3047 C21.0417,-10.2891 21.9688,-7.78125 21.9688,-4.78125 C21.9688,-0.291667 17.25,5.92708 7.8125,13.875 C4.30208,17.0625 2.47917,18.6563 2.34375,18.6563 L1.76563,18.6563 C1.17188,18.6563 0.875,18.2969 0.875,17.5781 M3.32813,-7.51563 L3.03125,14.6563 C5.05208,12.7604 7.10417,9.61458 9.1875,5.21875 C11.2708,0.822917 12.3125,-2.9375 12.3125,-6.0625 C12.3125,-7.625 12.0521,-9.05729 11.5313,-10.3594 C11.0104,-11.6615 10.1953,-12.3125 9.08594,-12.3125 C7.97656,-12.3125 6.98177,-11.9219 6.10156,-11.1406 C5.22135,-10.3594 4.29688,-9.15104 3.32813,-7.51563"/>
<path class="Accidental" transform="matrix(1.78583,0,0,1.78583,2720.31,1066.47)" d="M1.76563,20.3125 C0.588542,20.6354 0,20.1823 0,18.9531 L0,-35.75 C0,-37.1146 0.520833,-37.7969 1.5625,-37.7969 C2.60417,-37.7969 3.125,-37.1146 3.125,-35.75 L3.125,-15.9219 L14.6563,-20.3125 C15.8229,-20.6354 16.4063,-20.1823 16.4063,-18.9531 L16.4063,35.75 C16.4063,37.1146 15.8854,37.7969 14.8438,37.7969 C13.8021,37.7969 13.2813,37.1146 13.2813,35.75 L13.2813,15.9219 L1.76563,20.3125 M3.125,9.07813 L13.2813,5.17188 L13.2813,-9.07813 L3.125,-5.17188 L3.125,9.07813 "/>
<path class="Accidental" transform="matrix(1.78583,0,0,1.78583,880.005,1704.91)" d="M22.6563,-21.9688 C24.0938,-22.3646 24.8125,-22.0104 24.8125,-20.9063 L24.8125,-13.0938 C24.8125,-12.3125 24.1927,-11.6927 22.9531,-11.2344 L19.7344,-9.96875 L19.7344,4.20313 L22.6563,3.03125 C24.0938,2.63542 24.8125,2.99479 24.8125,4.10938 L24.8125,11.9219 C24.8125,12.7031 24.1927,13.3177 22.9531,13.7656 L19.7344,15.0469 L19.7344,31.25 C19.7344,32.4896 19.2448,33.1094 18.2656,33.1094 C17.2865,33.1094 16.7969,32.4896 16.7969,31.25 L16.7969,16.2188 L7.51563,19.9219 L7.51563,36.0313 C7.51563,37.2708 7.02865,37.8906 6.05469,37.8906 C5.08073,37.8906 4.59375,37.2708 4.59375,36.0313 L4.59375,21.0938 L2.04688,22.1719 C0.682292,22.7552 0,22.3646 0,21 L0,13.2813 C0,12.6354 0.588542,12.0521 1.76563,11.5313 L4.59375,10.3594 L4.59375,-3.90625 L2.04688,-2.82813 C0.682292,-2.24479 0,-2.63542 0,-4 L0,-11.7188 C0,-12.375 0.588542,-12.9635 1.76563,-13.4844 L4.59375,-14.6563 L4.59375,-30.7656 C4.59375,-32.0052 5.08073,-32.625 6.05469,-32.625 C7.02865,-32.625 7.51563,-32.0052 7.51563,-30.7656 L7.51563,-15.8281 L16.7969,-19.625 L16.7969,-35.5469 C16.7969,-36.7865 17.2865,-37.4063 18.2656,-37.4063 C19.2448,-37.4063 19.7344,-36.7865 19.7344,-35.5469 L19.7344,-20.7969 L22.6563,-21.9688 M7.51563,-5.07813 L7.51563,9.1875 L16.7969,5.375 L16.7969,-8.79688 L7.51563,-5.07813 "/>
<polyline class="Stem" fill="none" stroke="#000000" stroke-width="5.80" stroke-linejoin="bevel" points="688.148,486.615 688.148,349.901"/>
<polyline class="Stem" fill="none" stroke="#000000" stroke-width="5.80" stroke-linejoin="bevel" points="873.066,575.906 873.066,428.031"/>
<polyline class="Stem" fill="none" stroke="#000000" stroke-width="5.80" stroke-linejoin="bevel" points="1150.85,436.416 1150.85,578.71"/>
<polyline class="Stem" fill="none" stroke="#000000" stroke-width="5.80" stroke-linejoin="bevel" points="1335.76,481.062 1335.76,628.937"/>
<polyline class="Stem" fill="none" stroke="#000000" stroke-width="5.80" stroke-linejoin="bevel" points="1640.93,486.615 1640.93,349.901"/>
<polyline class="Stem" fill="none" stroke="#000000" stroke-width="5.80" stroke-linejoin="bevel" points="1832.76,575.906 1832.76,428.031"/>
<polyline class="Stem" fill="none" stroke="#000000" stroke-width="5.80" stroke-linejoin="bevel" points="2170.42,486.615 2170.42,349.901"/>
<polyline class="Stem" fill="none" stroke="#000000" stroke-width="5.80" stroke-linejoin="bevel" points="2362.25,508.938 2362.25,366.644"/>
<polyline class="Stem" fill="none" stroke="#000000" stroke-width="5.80" stroke-linejoin="bevel" points="2645.19,531.26 2645.19,372.224"/>
<polyline class="Stem" fill="none" stroke="#000000" stroke-width="5.80" stroke-linejoin="bevel" points="2795.42,531.26 2795.42,364.783"/>
<polyline class="Stem" fill="none" stroke="#000000" stroke-width="5.80" stroke-linejoin="bevel" points="2945.64,508.938 2945.64,357.342"/>
<polyline class="Stem" fill="none" stroke="#000000" stroke-width="5.80" stroke-linejoin="bevel" points="3095.86,486.615 3095.86,349.901"/>
<polyline class="Stem" fill="none" stroke="#000000" stroke-width="5.80" stroke-linejoin="bevel" points="3246.09,575.906 3246.09,428.031"/>
<polyline class="Stem" fill="none" stroke="#000000" stroke-width="5.80" stroke-linejoin="bevel" points="3486.45,553.583 3486.45,405.709"/>
<polyline class="Stem" fill="none" stroke="#000000" stroke-width="5.80" stroke-linejoin="bevel" points="591.783,1171.23 591.783,1021.82"/>
<polyline class="Stem" fill="none" stroke="#000000" stroke-width="5.80" stroke-linejoin="bevel" points="1024.9,1052.53 1024.9,1189.24"/>
<polyline class="Stem" fill="none" stroke="#000000" stroke-width="5.80" stroke-linejoin="bevel" points="1277.58,1125.05 1277.58,977.178"/>
<polyline class="Stem" fill="none" stroke="#000000" stroke-width="5.80" stroke-linejoin="bevel" points="1570.15,1030.21 1570.15,1172.5"/>
<polyline class="Stem" fill="none" stroke="#000000" stroke-width="5.80" stroke-linejoin="bevel" points="1769.86,1052.53 1769.86,1200.41"/>
<polyline class="Stem" fill="none" stroke="#000000" stroke-width="5.80" stroke-linejoin="bevel" points="2031.29,1052.53 2031.29,1189.24"/>
<polyline class="Stem" fill="none" stroke="#000000" stroke-width="5.80" stroke-linejoin="bevel" points="2196.23,1074.85 2196.23,1189.24"/>
<polyline class="Stem" fill="none" stroke="#000000" stroke-width="5.80" stroke-linejoin="bevel" points="2401,1074.85 2401,1189.24"/>
<polyline class="Stem" fill="none" stroke="#000000" stroke-width="5.80" stroke-linejoin="bevel" points="2565.94,1052.53 2565.94,1189.24"/>
<polyline class="Stem" fill="none" stroke="#000000" stroke-width="5.80" stroke-linejoin="bevel" points="2762.5,1073.47 2762.5,1205.99"/>
<polyline class="Stem" fill="none" stroke="#000000" stroke-width="5.80" stroke-linejoin="bevel" points="3263.58,1074.85 3263.58,1205.99"/>
<polyline class="Stem" fill="none" stroke="#000000" stroke-width="5.80" stroke-linejoin="bevel" points="3516.27,1147.38 3516.27,999.5"/>
<polyline class="Stem" fill="none" stroke="#000000" stroke-width="5.80" stroke-linejoin="bevel" points="3808.84,1052.53 3808.84,1189.24"/>
<polyline class="Stem" fill="none" stroke="#000000" stroke-width="5.80" stroke-linejoin="bevel" points="4008.55,1074.85 4008.55,1222.73"/>
<polyline class="Stem" fill="none" stroke="#000000" stroke-width="5.80" stroke-linejoin="bevel" points="588.56,1651.88 588.56,1526.32"/>
<polyline class="Stem" fill="none" stroke="#000000" stroke-width="5.80" stroke-linejoin="bevel" points="780.222,1674.2 780.222,1526.32"/>
<polyline class="Stem" fill="none" stroke="#000000" stroke-width="5.80" stroke-linejoin="bevel" points="989.596,1696.52 989.596,1526.32"/>
<polyline class="Stem" fill="none" stroke="#000000" stroke-width="5.80" stroke-linejoin="bevel" points="1181.26,1651.88 1181.26,1526.32"/>
<polyline class="Stem" fill="none" stroke="#000000" stroke-width="5.80" stroke-linejoin="bevel" points="1374.53,1675.73 1374.53,1537.49"/>
<polyline class="Stem" fill="none" stroke="#000000" stroke-width="5.80" stroke-linejoin="bevel" points="1931.19,1674.2 1931.19,1537.49"/>
<polyline class="Stem" fill="none" stroke="#000000" stroke-width="5.80" stroke-linejoin="bevel" points="2174.37,1763.49 2174.37,1615.62"/>
<polyline class="Stem" fill="none" stroke="#000000" stroke-width="5.80" stroke-linejoin="bevel" points="2516.57,1624 2516.57,1766.29"/>
<polyline class="Stem" fill="none" stroke="#000000" stroke-width="5.80" stroke-linejoin="bevel" points="2759.75,1668.65 2759.75,1816.52"/>
<polyline class="Stem" fill="none" stroke="#000000" stroke-width="5.80" stroke-linejoin="bevel" points="3101.33,1674.2 3101.33,1537.49"/>
<polyline class="Stem" fill="none" stroke="#000000" stroke-width="5.80" stroke-linejoin="bevel" points="3356.63,1763.49 3356.63,1615.62"/>
<polyline class="Stem" fill="none" stroke="#000000" stroke-width="5.80" stroke-linejoin="bevel" points="3771.48,1674.2 3771.48,1537.49"/>
<polyline class="Stem" fill="none" stroke="#000000" stroke-width="5.80" stroke-linejoin="bevel" points="4026.78,1696.52 4026.78,1554.23"/>
<polyline class="Stem" fill="none" stroke="#000000" stroke-width="5.80" stroke-linejoin="bevel" points="588.56,2312.64 588.56,2153.6"/>
<polyline class="Stem" fill="none" stroke="#000000" stroke-width="5.80" stroke-linejoin="bevel" points="734.398,2312.64 734.398,2146.16"/>
<polyline class="Stem" fill="none" stroke="#000000" stroke-width="5.80" stroke-linejoin="bevel" points="880.236,2290.31 880.236,2138.72"/>
<polyline class="Stem" fill="none" stroke="#000000" stroke-width="5.80" stroke-linejoin="bevel" points="1026.07,2267.99 1026.07,2131.28"/>
<polyline class="Stem" fill="none" stroke="#000000" stroke-width="5.80" stroke-linejoin="bevel" points="1171.91,2357.28 1171.91,2209.41"/>
<polyline class="Stem" fill="none" stroke="#000000" stroke-width="5.80" stroke-linejoin="bevel" points="1383.68,2334.96 1383.68,2187.08"/>
<polyline class="Stem" fill="none" stroke="#000000" stroke-width="5.80" stroke-linejoin="bevel" points="1802.54,2312.64 1802.54,2164.76"/>
<polyline class="Stem" fill="none" stroke="#000000" stroke-width="5.80" stroke-linejoin="bevel" points="1991.28,2290.31 1991.28,2164.76"/>
<polyline class="Stem" fill="none" stroke="#000000" stroke-width="5.80" stroke-linejoin="bevel" points="2137.12,2267.99 2137.12,2153.6"/>
<polyline class="Stem" fill="none" stroke="#000000" stroke-width="5.80" stroke-linejoin="bevel" points="2282.96,2357.28 2282.96,2209.41"/>
<polyline class="Stem" fill="none" stroke="#000000" stroke-width="5.80" stroke-linejoin="bevel" points="2499.02,2334.96 2499.02,2187.08"/>
<polyline class="Stem" fill="none" stroke="#000000" stroke-width="5.80" stroke-linejoin="bevel" points="2922.17,2312.64 2922.17,2164.76"/>
<polyline class="Stem" fill="none" stroke="#000000" stroke-width="5.80" stroke-linejoin="bevel" points="3110.91,2290.31 3110.91,2164.76"/>
<polyline class="Stem" fill="none" stroke="#000000" stroke-width="5.80" stroke-linejoin="bevel" points="3256.74,2267.99 3256.74,2153.6"/>
<polyline class="Stem" fill="none" stroke="#000000" stroke-width="5.80" stroke-linejoin="bevel" points="3349.61,2217.79 3349.61,2360.09"/>
<polyline class="Stem" fill="none" stroke="#000000" stroke-width="5.80" stroke-linejoin="bevel" points="3565.67,2195.47 3565.67,2343.34"/>
<path class="Note" transform="matrix(1.78583,0,0,1.78583,632.271,495)" d="M21.9688,-13.7656 C25.0938,-13.7656 27.6979,-12.9844 29.7813,-11.4219 C31.8646,-9.85938 32.9063,-7.61458 32.9063,-4.6875 C32.9063,-0.197917 30.5807,4 25.9297,7.90625 C21.2786,11.8125 16.2813,13.7656 10.9375,13.7656 C7.8125,13.7656 5.17708,12.9531 3.03125,11.3281 C1.01042,9.56771 0,7.35417 0,4.6875 C0,0.322917 2.3125,-3.84375 6.9375,-7.8125 C11.5625,-11.7813 16.5729,-13.7656 21.9688,-13.7656"/>
<path class="Note" transform="matrix(1.78583,0,0,1.78583,817.189,584.291)" d="M21.9688,-13.7656 C25.0938,-13.7656 27.6979,-12.9844 29.7813,-11.4219 C31.8646,-9.85938 32.9063,-7.61458 32.9063,-4.6875 C32.9063,-0.197917 30.5807,4 25.9297,7.90625 C21.2786,11.8125 16.2813,13.7656 10.9375,13.7656 C7.8125,13.7656 5.17708,12.9531 3.03125,11.3281 C1.01042,9.56771 0,7.35417 0,4.6875 C0,0.322917 2.3125,-3.84375 6.9375,-7.8125 C11.5625,-11.7813 16.5729,-13.7656 21.9688,-13.7656"/>
<path class="Note" transform="matrix(1.78583,0,0,1.78583,1147.94,428.031)" d="M21.9688,-13.7656 C25.0938,-13.7656 27.6979,-12.9844 29.7813,-11.4219 C31.8646,-9.85938 32.9063,-7.61458 32.9063,-4.6875 C32.9063,-0.197917 30.5807,4 25.9297,7.90625 C21.2786,11.8125 16.2813,13.7656 10.9375,13.7656 C7.8125,13.7656 5.17708,12.9531 3.03125,11.3281 C1.01042,9.56771 0,7.35417 0,4.6875 C0,0.322917 2.3125,-3.84375 6.9375,-7.8125 C11.5625,-11.7813 16.5729,-13.7656 21.9688,-13.7656"/>
<path class="Note" transform="matrix(1.78583,0,0,1.78583,1332.86,472.677)" d="M21.9688,-13.7656 C25.0938,-13.7656 27.6979,-12.9844 29.7813,-11.4219 C31.8646,-9.85938 32.9063,-7.61458 32.9063,-4.6875 C32.9063,-0.197917 30.5807,4 25.9297,7.90625 C21.2786,11.8125 16.2813,13.7656 10.9375,13.7656 C7.8125,13.7656 5.17708,12.9531 3.03125,11.3281 C1.01042,9.56771 0,7.35417 0,4.6875 C0,0.322917 2.3125,-3.84375 6.9375,-7.8125 C11.5625,-11.7813 16.5729,-13.7656 21.9688,-13.7656"/>
<path class="Note" transform="matrix(1.78583,0,0,1.78583,1585.05,495)" d="M21.9688,-13.7656 C25.0938,-13.7656 27.6979,-12.9844 29.7813,-11.4219 C31.8646,-9.85938 32.9063,-7.61458 32.9063,-4.6875 C32.9063,-0.197917 30.5807,4 25.9297,7.90625 C21.2786,11.8125 16.2813,13.7656 10.9375,13.7656 C7.8125,13.7656 5.17708,12.9531 3.03125,11.3281 C1.01042,9.56771 0,7.35417 0,4.6875 C0,0.322917 2.3125,-3.84375 6.9375,-7.8125 C11.5625,-11.7813 16.5729,-13.7656 21.9688,-13.7656"/>
<path class="Note" transform="matrix(1.78583,0,0,1.78583,1776.88,584.291)" d="M21.9688,-13.7656 C25.0938,-13.7656 27.6979,-12.9844 29.7813,-11.4219 C31.8646,-9.85938 32.9063,-7.61458 32.9063,-4.6875 C32.9063,-0.197917 30.5807,4 25.9297,7.90625 C21.2786,11.8125 16.2813,13.7656 10.9375,13.7656 C7.8125,13.7656 5.17708,12.9531 3.03125,11.3281 C1.01042,9.56771 0,7.35417 0,4.6875 C0,0.322917 2.3125,-3.84375 6.9375,-7.8125 C11.5625,-11.7813 16.5729,-13.7656 21.9688,-13.7656"/>
<path class="Note" transform="matrix(1.78583,0,0,1.78583,2114.55,495)" d="M21.9688,-13.7656 C25.0938,-13.7656 27.6979,-12.9844 29.7813,-11.4219 C31.8646,-9.85938 32.9063,-7.61458 32.9063,-4.6875 C32.9063,-0.197917 30.5807,4 25.9297,7.90625 C21.2786,11.8125 16.2813,13.7656 10.9375,13.7656 C7.8125,13.7656 5.17708,12.9531 3.03125,11.3281 C1.01042,9.56771 0,7.35417 0,4.6875 C0,0.322917 2.3125,-3.84375 6.9375,-7.8125 C11.5625,-11.7813 16.5729,-13.7656 21.9688,-13.7656"/>
<path class="Note" transform="matrix(1.78583,0,0,1.78583,2306.37,517.323)" d="M21.9688,-13.7656 C25.0938,-13.7656 27.6979,-12.9844 29.7813,-11.4219 C31.8646,-9.85938 32.9063,-7.61458 32.9063,-4.6875 C32.9063,-0.197917 30.5807,4 25.9297,7.90625 C21.2786,11.8125 16.2813,13.7656 10.9375,13.7656 C7.8125,13.7656 5.17708,12.9531 3.03125,11.3281 C1.01042,9.56771 0,7.35417 0,4.6875 C0,0.322917 2.3125,-3.84375 6.9375,-7.8125 C11.5625,-11.7813 16.5729,-13.7656 21.9688,-13.7656"/>
<path class="Note" transform="matrix(1.78583,0,0,1.78583,2589.31,539.646)" d="M21.9688,-13.7656 C25.0938,-13.7656 27.6979,-12.9844 29.7813,-11.4219 C31.8646,-9.85938 32.9063,-7.61458 32.9063,-4.6875 C32.9063,-0.197917 30.5807,4 25.9297,7.90625 C21.2786,11.8125 16.2813,13.7656 10.9375,13.7656 C7.8125,13.7656 5.17708,12.9531 3.03125,11.3281 C1.01042,9.56771 0,7.35417 0,4.6875 C0,0.322917 2.3125,-3.84375 6.9375,-7.8125 C11.5625,-11.7813 16.5729,-13.7656 21.9688,-13.7656"/>
<path class="Note" transform="matrix(1.78583,0,0,1.78583,2739.54,539.646)" d="M21.9688,-13.7656 C25.0938,-13.7656 27.6979,-12.9844 29.7813,-11.4219 C31.8646,-9.85938 32.9063,-7.61458 32.9063,-4.6875 C32.9063,-0.197917 30.5807,4 25.9297,7.90625 C21.2786,11.8125 16.2813,13.7656 10.9375,13.7656 C7.8125,13.7656 5.17708,12.9531 3.03125,11.3281 C1.01042,9.56771 0,7.35417 0,4.6875 C0,0.322917 2.3125,-3.84375 6.9375,-7.8125 C11.5625,-11.7813 16.5729,-13.7656 21.9688,-13.7656"/>
<path class="Note" transform="matrix(1.78583,0,0,1.78583,2889.76,517.323)" d="M21.9688,-13.7656 C25.0938,-13.7656 27.6979,-12.9844 29.7813,-11.4219 C31.8646,-9.85938 32.9063,-7.61458 32.9063,-4.6875 C32.9063,-0.197917 30.5807,4 25.9297,7.90625 C21.2786,11.8125 16.2813,13.7656 10.9375,13.7656 C7.8125,13.7656 5.17708,12.9531 3.03125,11.3281 C1.01042,9.56771 0,7.35417 0,4.6875 C0,0.322917 2.3125,-3.84375 6.9375,-7.8125 C11.5625,-11.7813 16.5729,-13.7656 21.9688,-13.7656"/>
<path class="Note" transform="matrix(1.78583,0,0,1.78583,3039.99,495)" d="M21.9688,-13.7656 C25.0938,-13.7656 27.6979,-12.9844 29.7813,-11.4219 C31.8646,-9.85938 32.9063,-7.61458 32.9063,-4.6875 C32.9063,-0.197917 30.5807,4 25.9297,7.90625 C21.2786,11.8125 16.2813,13.7656 10.9375,13.7656 C7.8125,13.7656 5.17708,12.9531 3.03125,11.3281 C1.01042,9.56771 0,7.35417 0,4.6875 C0,0.322917 2.3125,-3.84375 6.9375,-7.8125 C11.5625,-11.7813 16.5729,-13.7656 21.9688,-13.7656"/>
<path class="Note" transform="matrix(1.78583,0,0,1.78583,3190.21,584.291)" d="M21.9688,-13.7656 C25.0938,-13.7656 27.6979,-12.9844 29.7813,-11.4219 C31.8646,-9.85938 32.9063,-7.61458 32.9063,-4.6875 C32.9063,-0.197917 30.5807,4 25.9297,7.90625 C21.2786,11.8125 16.2813,13.7656 10.9375,13.7656 C7.8125,13.7656 5.17708,12.9531 3.03125,11.3281 C1.01042,9.56771 0,7.35417 0,4.6875 C0,0.322917 2.3125,-3.84375 6.9375,-7.8125 C11.5625,-11.7813 16.5729,-13.7656 21.9688,-13.7656"/>
<path class="Note" transform="matrix(1.78583,0,0,1.78583,3430.57,561.968)" d="M21.9688,-13.7656 C25.0938,-13.7656 27.6979,-12.9844 29.7813,-11.4219 C31.8646,-9.85938 32.9063,-7.61458 32.9063,-4.6875 C32.9063,-0.197917 30.5807,4 25.9297,7.90625 C21.2786,11.8125 16.2813,13.7656 10.9375,13.7656 C7.8125,13.7656 5.17708,12.9531 3.03125,11.3281 C1.01042,9.56771 0,7.35417 0,4.6875 C0,0.322917 2.3125,-3.84375 6.9375,-7.8125 C11.5625,-11.7813 16.5729,-13.7656 21.9688,-13.7656"/>
<path class="Note" transform="matrix(1.78583,0,0,1.78583,3807.54,539.646)" d="M17.0938,5.46875 C19.9583,9.3125 23.6354,11.2344 28.125,11.2344 C32.6146,11.2344 34.8594,8.20833 34.8594,2.15625 C34.8594,-0.71875 34.0469,-3.26042 32.4219,-5.46875 C29.6198,-9.3125 25.8438,-11.2344 21.0938,-11.2344 C19.0104,-11.2344 17.4167,-10.3724 16.3125,-8.64844 C15.2083,-6.92448 14.6563,-4.69271 14.6563,-1.95313 C14.6563,0.786458 15.4688,3.26042 17.0938,5.46875 M7.42188,-9.76563 C12.3073,-12.4323 18.1849,-13.7656 25.0547,-13.7656 C31.9245,-13.7656 37.7188,-12.3984 42.4375,-9.66406 C47.1563,-6.92969 49.5156,-3.67448 49.5156,0.101563 C49.5156,3.8776 47.0729,7.09896 42.1875,9.76563 C37.3021,12.4323 31.4583,13.7656 24.6563,13.7656 C17.8542,13.7656 12.0443,12.3984 7.22656,9.66406 C2.40885,6.92969 0,3.64323 0,-0.195313 C0,-4.03385 2.47396,-7.22396 7.42188,-9.76563"/>
<path class="Note" transform="matrix(1.78583,0,0,1.78583,532.684,1178.08)" d="M7.42188,10.6406 C9.30729,10.6406 13.263,8.6875 19.2891,4.78125 C25.3151,0.875 28.8646,-1.74479 29.9375,-3.07813 C31.0104,-4.41146 31.5469,-5.59896 31.5469,-6.64063 C31.5469,-7.68229 31.1224,-8.60938 30.2734,-9.42188 C29.4245,-10.2344 28.4479,-10.6406 27.3438,-10.6406 C25.3958,-10.6406 21.4089,-8.67188 15.3828,-4.73438 C9.35677,-0.796875 5.82292,1.82292 4.78125,3.125 C3.73958,4.42708 3.21875,5.59896 3.21875,6.64063 C3.21875,7.68229 3.6276,8.60938 4.44531,9.42188 C5.26302,10.2344 6.25521,10.6406 7.42188,10.6406 M26.375,-13.7656 C31.9688,-13.7656 34.7656,-11.3594 34.7656,-6.54688 C34.7656,-4.20313 34.0833,-1.48438 32.7188,1.60938 C31.3542,4.70313 29.5313,7.0625 27.25,8.6875 C22.2396,12.0729 15.9583,13.7656 8.40625,13.7656 C2.80208,13.7656 0,11.3594 0,6.54688 C0,4.40104 0.666667,1.73177 2,-1.46094 C3.33333,-4.65365 5.17188,-7.0625 7.51563,-8.6875 C12.5365,-12.0729 18.8229,-13.7656 26.375,-13.7656"/>
<path class="Note" transform="matrix(1.78583,0,0,1.78583,1022,1044.15)" d="M21.9688,-13.7656 C25.0938,-13.7656 27.6979,-12.9844 29.7813,-11.4219 C31.8646,-9.85938 32.9063,-7.61458 32.9063,-4.6875 C32.9063,-0.197917 30.5807,4 25.9297,7.90625 C21.2786,11.8125 16.2813,13.7656 10.9375,13.7656 C7.8125,13.7656 5.17708,12.9531 3.03125,11.3281 C1.01042,9.56771 0,7.35417 0,4.6875 C0,0.322917 2.3125,-3.84375 6.9375,-7.8125 C11.5625,-11.7813 16.5729,-13.7656 21.9688,-13.7656"/>
<path class="Note" transform="matrix(1.78583,0,0,1.78583,1221.7,1133.44)" d="M21.9688,-13.7656 C25.0938,-13.7656 27.6979,-12.9844 29.7813,-11.4219 C31.8646,-9.85938 32.9063,-7.61458 32.9063,-4.6875 C32.9063,-0.197917 30.5807,4 25.9297,7.90625 C21.2786,11.8125 16.2813,13.7656 10.9375,13.7656 C7.8125,13.7656 5.17708,12.9531 3.03125,11.3281 C1.01042,9.56771 0,7.35417 0,4.6875 C0,0.322917 2.3125,-3.84375 6.9375,-7.8125 C11.5625,-11.7813 16.5729,-13.7656 21.9688,-13.7656"/>
<path class="Note" transform="matrix(1.78583,0,0,1.78583,1567.25,1021.82)" d="M21.9688,-13.7656 C25.0938,-13.7656 27.6979,-12.9844 29.7813,-11.4219 C31.8646,-9.85938 32.9063,-7.61458 32.9063,-4.6875 C32.9063,-0.197917 30.5807,4 25.9297,7.90625 C21.2786,11.8125 16.2813,13.7656 10.9375,13.7656 C7.8125,13.7656 5.17708,12.9531 3.03125,11.3281 C1.01042,9.56771 0,7.35417 0,4.6875 C0,0.322917 2.3125,-3.84375 6.9375,-7.8125 C11.5625,-11.7813 16.5729,-13.7656 21.9688,-13.7656"/>
<path class="Note" transform="matrix(1.78583,0,0,1.78583,1766.96,1044.15)" d="M21.9688,-13.7656 C25.0938,-13.7656 27.6979,-12.9844 29.7813,-11.4219 C31.8646,-9.85938 32.9063,-7.61458 32.9063,-4.6875 C32.9063,-0.197917 30.5807,4 25.9297,7.90625 C21.2786,11.8125 16.2813,13.7656 10.9375,13.7656 C7.8125,13.7656 5.17708,12.9531 3.03125,11.3281 C1.01042,9.56771 0,7.35417 0,4.6875 C0,0.322917 2.3125,-3.84375 6.9375,-7.8125 C11.5625,-11.7813 16.5729,-13.7656 21.9688,-13.7656"/>
<path class="Note" transform="matrix(1.78583,0,0,1.78583,2028.39,1044.15)" d="M21.9688,-13.7656 C25.0938,-13.7656 27.6979,-12.9844 29.7813,-11.4219 C31.8646,-9.85938 32.9063,-7.61458 32.9063,-4.6875 C32.9063,-0.197917 30.5807,4 25.9297,7.90625 C21.2786,11.8125 16.2813,13.7656 10.9375,13.7656 C7.8125,13.7656 5.17708,12.9531 3.03125,11.3281 C1.01042,9.56771 0,7.35417 0,4.6875 C0,0.322917 2.3125,-3.84375 6.9375,-7.8125 C11.5625,-11.7813 16.5729,-13.7656 21.9688,-13.7656"/>
<path class="Note" transform="matrix(1.78583,0,0,1.78583,2193.33,1066.47)" d="M21.9688,-13.7656 C25.0938,-13.7656 27.6979,-12.9844 29.7813,-11.4219 C31.8646,-9.85938 32.9063,-7.61458 32.9063,-4.6875 C32.9063,-0.197917 30.5807,4 25.9297,7.90625 C21.2786,11.8125 16.2813,13.7656 10.9375,13.7656 C7.8125,13.7656 5.17708,12.9531 3.03125,11.3281 C1.01042,9.56771 0,7.35417 0,4.6875 C0,0.322917 2.3125,-3.84375 6.9375,-7.8125 C11.5625,-11.7813 16.5729,-13.7656 21.9688,-13.7656"/>
<path class="Note" transform="matrix(1.78583,0,0,1.78583,2398.1,1066.47)" d="M21.9688,-13.7656 C25.0938,-13.7656 27.6979,-12.9844 29.7813,-11.4219 C31.8646,-9.85938 32.9063,-7.61458 32.9063,-4.6875 C32.9063,-0.197917 30.5807,4 25.9297,7.90625 C21.2786,11.8125 16.2813,13.7656 10.9375,13.7656 C7.8125,13.7656 5.17708,12.9531 3.03125,11.3281 C1.01042,9.56771 0,7.35417 0,4.6875 C0,0.322917 2.3125,-3.84375 6.9375,-7.8125 C11.5625,-11.7813 16.5729,-13.7656 21.9688,-13.7656"/>
<path class="Note" transform="matrix(1.78583,0,0,1.78583,2563.04,1044.15)" d="M21.9688,-13.7656 C25.0938,-13.7656 27.6979,-12.9844 29.7813,-11.4219 C31.8646,-9.85938 32.9063,-7.61458 32.9063,-4.6875 C32.9063,-0.197917 30.5807,4 25.9297,7.90625 C21.2786,11.8125 16.2813,13.7656 10.9375,13.7656 C7.8125,13.7656 5.17708,12.9531 3.03125,11.3281 C1.01042,9.56771 0,7.35417 0,4.6875 C0,0.322917 2.3125,-3.84375 6.9375,-7.8125 C11.5625,-11.7813 16.5729,-13.7656 21.9688,-13.7656"/>
<path class="Note" transform="matrix(1.78583,0,0,1.78583,2759.59,1066.47)" d="M7.42188,10.6406 C9.30729,10.6406 13.263,8.6875 19.2891,4.78125 C25.3151,0.875 28.8646,-1.74479 29.9375,-3.07813 C31.0104,-4.41146 31.5469,-5.59896 31.5469,-6.64063 C31.5469,-7.68229 31.1224,-8.60938 30.2734,-9.42188 C29.4245,-10.2344 28.4479,-10.6406 27.3438,-10.6406 C25.3958,-10.6406 21.4089,-8.67188 15.3828,-4.73438 C9.35677,-0.796875 5.82292,1.82292 4.78125,3.125 C3.73958,4.42708 3.21875,5.59896 3.21875,6.64063 C3.21875,7.68229 3.6276,8.60938 4.44531,9.42188 C5.26302,10.2344 6.25521,10.6406 7.42188,10.6406 M26.375,-13.7656 C31.9688,-13.7656 34.7656,-11.3594 34.7656,-6.54688 C34.7656,-4.20313 34.0833,-1.48438 32.7188,1.60938 C31.3542,4.70313 29.5313,7.0625 27.25,8.6875 C22.2396,12.0729 15.9583,13.7656 8.40625,13.7656 C2.80208,13.7656 0,11.3594 0,6.54688 C0,4.40104 0.666667,1.73177 2,-1.46094 C3.33333,-4.65365 5.17188,-7.0625 7.51563,-8.6875 C12.5365,-12.0729 18.8229,-13.7656 26.375,-13.7656"/>
<path class="Note" transform="matrix(1.78583,0,0,1.78583,3260.68,1066.47)" d="M21.9688,-13.7656 C25.0938,-13.7656 27.6979,-12.9844 29.7813,-11.4219 C31.8646,-9.85938 32.9063,-7.61458 32.9063,-4.6875 C32.9063,-0.197917 30.5807,4 25.9297,7.90625 C21.2786,11.8125 16.2813,13.7656 10.9375,13.7656 C7.8125,13.7656 5.17708,12.9531 3.03125,11.3281 C1.01042,9.56771 0,7.35417 0,4.6875 C0,0.322917 2.3125,-3.84375 6.9375,-7.8125 C11.5625,-11.7813 16.5729,-13.7656 21.9688,-13.7656"/>
<path class="Note" transform="matrix(1.78583,0,0,1.78583,3460.39,1155.76)" d="M21.9688,-13.7656 C25.0938,-13.7656 27.6979,-12.9844 29.7813,-11.4219 C31.8646,-9.85938 32.9063,-7.61458 32.9063,-4.6875 C32.9063,-0.197917 30.5807,4 25.9297,7.90625 C21.2786,11.8125 16.2813,13.7656 10.9375,13.7656 C7.8125,13.7656 5.17708,12.9531 3.03125,11.3281 C1.01042,9.56771 0,7.35417 0,4.6875 C0,0.322917 2.3125,-3.84375 6.9375,-7.8125 C11.5625,-11.7813 16.5729,-13.7656 21.9688,-13.7656"/>
<path class="Note" transform="matrix(1.78583,0,0,1.78583,3805.94,1044.15)" d="M21.9688,-13.7656 C25.0938,-13.7656 27.6979,-12.9844 29.7813,-11.4219 C31.8646,-9.85938 32.9063,-7.61458 32.9063,-4.6875 C32.9063,-0.197917 30.5807,4 25.9297,7.90625 C21.2786,11.8125 16.2813,13.7656 10.9375,13.7656 C7.8125,13.7656 5.17708,12.9531 3.03125,11.3281 C1.01042,9.56771 0,7.35417 0,4.6875 C0,0.322917 2.3125,-3.84375 6.9375,-7.8125 C11.5625,-11.7813 16.5729,-13.7656 21.9688,-13.7656"/>
<path class="Note" transform="matrix(1.78583,0,0,1.78583,4005.64,1066.47)" d="M21.9688,-13.7656 C25.0938,-13.7656 27.6979,-12.9844 29.7813,-11.4219 C31.8646,-9.85938 32.9063,-7.61458 32.9063,-4.6875 C32.9063,-0.197917 30.5807,4 25.9297,7.90625 C21.2786,11.8125 16.2813,13.7656 10.9375,13.7656 C7.8125,13.7656 5.17708,12.9531 3.03125,11.3281 C1.01042,9.56771 0,7.35417 0,4.6875 C0,0.322917 2.3125,-3.84375 6.9375,-7.8125 C11.5625,-11.7813 16.5729,-13.7656 21.9688,-13.7656"/>
<path class="Note" transform="matrix(1.78583,0,0,1.78583,532.684,1660.26)" d="M21.9688,-13.7656 C25.0938,-13.7656 27.6979,-12.9844 29.7813,-11.4219 C31.8646,-9.85938 32.9063,-7.61458 32.9063,-4.6875 C32.9063,-0.197917 30.5807,4 25.9297,7.90625 C21.2786,11.8125 16.2813,13.7656 10.9375,13.7656 C7.8125,13.7656 5.17708,12.9531 3.03125,11.3281 C1.01042,9.56771 0,7.35417 0,4.6875 C0,0.322917 2.3125,-3.84375 6.9375,-7.8125 C11.5625,-11.7813 16.5729,-13.7656 21.9688,-13.7656"/>
<path class="Note" transform="matrix(1.78583,0,0,1.78583,724.345,1682.58)" d="M21.9688,-13.7656 C25.0938,-13.7656 27.6979,-12.9844 29.7813,-11.4219 C31.8646,-9.85938 32.9063,-7.61458 32.9063,-4.6875 C32.9063,-0.197917 30.5807,4 25.9297,7.90625 C21.2786,11.8125 16.2813,13.7656 10.9375,13.7656 C7.8125,13.7656 5.17708,12.9531 3.03125,11.3281 C1.01042,9.56771 0,7.35417 0,4.6875 C0,0.322917 2.3125,-3.84375 6.9375,-7.8125 C11.5625,-11.7813 16.5729,-13.7656 21.9688,-13.7656"/>
<path class="Note" transform="matrix(1.78583,0,0,1.78583,933.719,1704.91)" d="M21.9688,-13.7656 C25.0938,-13.7656 27.6979,-12.9844 29.7813,-11.4219 C31.8646,-9.85938 32.9063,-7.61458 32.9063,-4.6875 C32.9063,-0.197917 30.5807,4 25.9297,7.90625 C21.2786,11.8125 16.2813,13.7656 10.9375,13.7656 C7.8125,13.7656 5.17708,12.9531 3.03125,11.3281 C1.01042,9.56771 0,7.35417 0,4.6875 C0,0.322917 2.3125,-3.84375 6.9375,-7.8125 C11.5625,-11.7813 16.5729,-13.7656 21.9688,-13.7656"/>
<path class="Note" transform="matrix(1.78583,0,0,1.78583,1125.38,1660.26)" d="M21.9688,-13.7656 C25.0938,-13.7656 27.6979,-12.9844 29.7813,-11.4219 C31.8646,-9.85938 32.9063,-7.61458 32.9063,-4.6875 C32.9063,-0.197917 30.5807,4 25.9297,7.90625 C21.2786,11.8125 16.2813,13.7656 10.9375,13.7656 C7.8125,13.7656 5.17708,12.9531 3.03125,11.3281 C1.01042,9.56771 0,7.35417 0,4.6875 C0,0.322917 2.3125,-3.84375 6.9375,-7.8125 C11.5625,-11.7813 16.5729,-13.7656 21.9688,-13.7656"/>
<path class="Note" transform="matrix(1.78583,0,0,1.78583,1315.43,1682.58)" d="M7.42188,10.6406 C9.30729,10.6406 13.263,8.6875 19.2891,4.78125 C25.3151,0.875 28.8646,-1.74479 29.9375,-3.07813 C31.0104,-4.41146 31.5469,-5.59896 31.5469,-6.64063 C31.5469,-7.68229 31.1224,-8.60938 30.2734,-9.42188 C29.4245,-10.2344 28.4479,-10.6406 27.3438,-10.6406 C25.3958,-10.6406 21.4089,-8.67188 15.3828,-4.73438 C9.35677,-0.796875 5.82292,1.82292 4.78125,3.125 C3.73958,4.42708 3.21875,5.59896 3.21875,6.64063 C3.21875,7.68229 3.6276,8.60938 4.44531,9.42188 C5.26302,10.2344 6.25521,10.6406 7.42188,10.6406 M26.375,-13.7656 C31.9688,-13.7656 34.7656,-11.3594 34.7656,-6.54688 C34.7656,-4.20313 34.0833,-1.48438 32.7188,1.60938 C31.3542,4.70313 29.5313,7.0625 27.25,8.6875 C22.2396,12.0729 15.9583,13.7656 8.40625,13.7656 C2.80208,13.7656 0,11.3594 0,6.54688 C0,4.40104 0.666667,1.73177 2,-1.46094 C3.33333,-4.65365 5.17188,-7.0625 7.51563,-8.6875 C12.5365,-12.0729 18.8229,-13.7656 26.375,-13.7656"/>
<path class="Note" transform="matrix(1.78583,0,0,1.78583,1875.31,1682.58)" d="M21.9688,-13.7656 C25.0938,-13.7656 27.6979,-12.9844 29.7813,-11.4219 C31.8646,-9.85938 32.9063,-7.61458 32.9063,-4.6875 C32.9063,-0.197917 30.5807,4 25.9297,7.90625 C21.2786,11.8125 16.2813,13.7656 10.9375,13.7656 C7.8125,13.7656 5.17708,12.9531 3.03125,11.3281 C1.01042,9.56771 0,7.35417 0,4.6875 C0,0.322917 2.3125,-3.84375 6.9375,-7.8125 C11.5625,-11.7813 16.5729,-13.7656 21.9688,-13.7656"/>
<path class="Note" transform="matrix(1.78583,0,0,1.78583,2118.49,1771.88)" d="M21.9688,-13.7656 C25.0938,-13.7656 27.6979,-12.9844 29.7813,-11.4219 C31.8646,-9.85938 32.9063,-7.61458 32.9063,-4.6875 C32.9063,-0.197917 30.5807,4 25.9297,7.90625 C21.2786,11.8125 16.2813,13.7656 10.9375,13.7656 C7.8125,13.7656 5.17708,12.9531 3.03125,11.3281 C1.01042,9.56771 0,7.35417 0,4.6875 C0,0.322917 2.3125,-3.84375 6.9375,-7.8125 C11.5625,-11.7813 16.5729,-13.7656 21.9688,-13.7656"/>
<path class="Note" transform="matrix(1.78583,0,0,1.78583,2513.67,1615.62)" d="M21.9688,-13.7656 C25.0938,-13.7656 27.6979,-12.9844 29.7813,-11.4219 C31.8646,-9.85938 32.9063,-7.61458 32.9063,-4.6875 C32.9063,-0.197917 30.5807,4 25.9297,7.90625 C21.2786,11.8125 16.2813,13.7656 10.9375,13.7656 C7.8125,13.7656 5.17708,12.9531 3.03125,11.3281 C1.01042,9.56771 0,7.35417 0,4.6875 C0,0.322917 2.3125,-3.84375 6.9375,-7.8125 C11.5625,-11.7813 16.5729,-13.7656 21.9688,-13.7656"/>
<path class="Note" transform="matrix(1.78583,0,0,1.78583,2756.85,1660.26)" d="M21.9688,-13.7656 C25.0938,-13.7656 27.6979,-12.9844 29.7813,-11.4219 C31.8646,-9.85938 32.9063,-7.61458 32.9063,-4.6875 C32.9063,-0.197917 30.5807,4 25.9297,7.90625 C21.2786,11.8125 16.2813,13.7656 10.9375,13.7656 C7.8125,13.7656 5.17708,12.9531 3.03125,11.3281 C1.01042,9.56771 0,7.35417 0,4.6875 C0,0.322917 2.3125,-3.84375 6.9375,-7.8125 C11.5625,-11.7813 16.5729,-13.7656 21.9688,-13.7656"/>
<path class="Note" transform="matrix(1.78583,0,0,1.78583,3045.45,1682.58)" d="M21.9688,-13.7656 C25.0938,-13.7656 27.6979,-12.9844 29.7813,-11.4219 C31.8646,-9.85938 32.9063,-7.61458 32.9063,-4.6875 C32.9063,-0.197917 30.5807,4 25.9297,7.90625 C21.2786,11.8125 16.2813,13.7656 10.9375,13.7656 C7.8125,13.7656 5.17708,12.9531 3.03125,11.3281 C1.01042,9.56771 0,7.35417 0,4.6875 C0,0.322917 2.3125,-3.84375 6.9375,-7.8125 C11.5625,-11.7813 16.5729,-13.7656 21.9688,-13.7656"/>
<path class="Note" transform="matrix(1.78583,0,0,1.78583,3300.75,1771.88)" d="M21.9688,-13.7656 C25.0938,-13.7656 27.6979,-12.9844 29.7813,-11.4219 C31.8646,-9.85938 32.9063,-7.61458 32.9063,-4.6875 C32.9063,-0.197917 30.5807,4 25.9297,7.90625 C21.2786,11.8125 16.2813,13.7656 10.9375,13.7656 C7.8125,13.7656 5.17708,12.9531 3.03125,11.3281 C1.01042,9.56771 0,7.35417 0,4.6875 C0,0.322917 2.3125,-3.84375 6.9375,-7.8125 C11.5625,-11.7813 16.5729,-13.7656 21.9688,-13.7656"/>
<path class="Note" transform="matrix(1.78583,0,0,1.78583,3715.61,1682.58)" d="M21.9688,-13.7656 C25.0938,-13.7656 27.6979,-12.9844 29.7813,-11.4219 C31.8646,-9.85938 32.9063,-7.61458 32.9063,-4.6875 C32.9063,-0.197917 30.5807,4 25.9297,7.90625 C21.2786,11.8125 16.2813,13.7656 10.9375,13.7656 C7.8125,13.7656 5.17708,12.9531 3.03125,11.3281 C1.01042,9.56771 0,7.35417 0,4.6875 C0,0.322917 2.3125,-3.84375 6.9375,-7.8125 C11.5625,-11.7813 16.5729,-13.7656 21.9688,-13.7656"/>
<path class="Note" transform="matrix(1.78583,0,0,1.78583,3970.9,1704.91)" d="M21.9688,-13.7656 C25.0938,-13.7656 27.6979,-12.9844 29.7813,-11.4219 C31.8646,-9.85938 32.9063,-7.61458 32.9063,-4.6875 C32.9063,-0.197917 30.5807,4 25.9297,7.90625 C21.2786,11.8125 16.2813,13.7656 10.9375,13.7656 C7.8125,13.7656 5.17708,12.9531 3.03125,11.3281 C1.01042,9.56771 0,7.35417 0,4.6875 C0,0.322917 2.3125,-3.84375 6.9375,-7.8125 C11.5625,-11.7813 16.5729,-13.7656 21.9688,-13.7656"/>
<path class="Note" transform="matrix(1.78583,0,0,1.78583,532.684,2321.02)" d="M21.9688,-13.7656 C25.0938,-13.7656 27.6979,-12.9844 29.7813,-11.4219 C31.8646,-9.85938 32.9063,-7.61458 32.9063,-4.6875 C32.9063,-0.197917 30.5807,4 25.9297,7.90625 C21.2786,11.8125 16.2813,13.7656 10.9375,13.7656 C7.8125,13.7656 5.17708,12.9531 3.03125,11.3281 C1.01042,9.56771 0,7.35417 0,4.6875 C0,0.322917 2.3125,-3.84375 6.9375,-7.8125 C11.5625,-11.7813 16.5729,-13.7656 21.9688,-13.7656"/>
<path class="Note" transform="matrix(1.78583,0,0,1.78583,678.521,2321.02)" d="M21.9688,-13.7656 C25.0938,-13.7656 27.6979,-12.9844 29.7813,-11.4219 C31.8646,-9.85938 32.9063,-7.61458 32.9063,-4.6875 C32.9063,-0.197917 30.5807,4 25.9297,7.90625 C21.2786,11.8125 16.2813,13.7656 10.9375,13.7656 C7.8125,13.7656 5.17708,12.9531 3.03125,11.3281 C1.01042,9.56771 0,7.35417 0,4.6875 C0,0.322917 2.3125,-3.84375 6.9375,-7.8125 C11.5625,-11.7813 16.5729,-13.7656 21.9688,-13.7656"/>
<path class="Note" transform="matrix(1.78583,0,0,1.78583,824.359,2298.7)" d="M21.9688,-13.7656 C25.0938,-13.7656 27.6979,-12.9844 29.7813,-11.4219 C31.8646,-9.85938 32.9063,-7.61458 32.9063,-4.6875 C32.9063,-0.197917 30.5807,4 25.9297,7.90625 C21.2786,11.8125 16.2813,13.7656 10.9375,13.7656 C7.8125,13.7656 5.17708,12.9531 3.03125,11.3281 C1.01042,9.56771 0,7.35417 0,4.6875 C0,0.322917 2.3125,-3.84375 6.9375,-7.8125 C11.5625,-11.7813 16.5729,-13.7656 21.9688,-13.7656"/>
<path class="Note" transform="matrix(1.78583,0,0,1.78583,970.197,2276.38)" d="M21.9688,-13.7656 C25.0938,-13.7656 27.6979,-12.9844 29.7813,-11.4219 C31.8646,-9.85938 32.9063,-7.61458 32.9063,-4.6875 C32.9063,-0.197917 30.5807,4 25.9297,7.90625 C21.2786,11.8125 16.2813,13.7656 10.9375,13.7656 C7.8125,13.7656 5.17708,12.9531 3.03125,11.3281 C1.01042,9.56771 0,7.35417 0,4.6875 C0,0.322917 2.3125,-3.84375 6.9375,-7.8125 C11.5625,-11.7813 16.5729,-13.7656 21.9688,-13.7656"/>
<path class="Note" transform="matrix(1.78583,0,0,1.78583,1116.04,2365.67)" d="M21.9688,-13.7656 C25.0938,-13.7656 27.6979,-12.9844 29.7813,-11.4219 C31.8646,-9.85938 32.9063,-7.61458 32.9063,-4.6875 C32.9063,-0.197917 30.5807,4 25.9297,7.90625 C21.2786,11.8125 16.2813,13.7656 10.9375,13.7656 C7.8125,13.7656 5.17708,12.9531 3.03125,11.3281 C1.01042,9.56771 0,7.35417 0,4.6875 C0,0.322917 2.3125,-3.84375 6.9375,-7.8125 C11.5625,-11.7813 16.5729,-13.7656 21.9688,-13.7656"/>
<path class="Note" transform="matrix(1.78583,0,0,1.78583,1327.81,2343.34)" d="M21.9688,-13.7656 C25.0938,-13.7656 27.6979,-12.9844 29.7813,-11.4219 C31.8646,-9.85938 32.9063,-7.61458 32.9063,-4.6875 C32.9063,-0.197917 30.5807,4 25.9297,7.90625 C21.2786,11.8125 16.2813,13.7656 10.9375,13.7656 C7.8125,13.7656 5.17708,12.9531 3.03125,11.3281 C1.01042,9.56771 0,7.35417 0,4.6875 C0,0.322917 2.3125,-3.84375 6.9375,-7.8125 C11.5625,-11.7813 16.5729,-13.7656 21.9688,-13.7656"/>
<path class="Note" transform="matrix(1.78583,0,0,1.78583,1746.66,2321.02)" d="M21.9688,-13.7656 C25.0938,-13.7656 27.6979,-12.9844 29.7813,-11.4219 C31.8646,-9.85938 32.9063,-7.61458 32.9063,-4.6875 C32.9063,-0.197917 30.5807,4 25.9297,7.90625 C21.2786,11.8125 16.2813,13.7656 10.9375,13.7656 C7.8125,13.7656 5.17708,12.9531 3.03125,11.3281 C1.01042,9.56771 0,7.35417 0,4.6875 C0,0.322917 2.3125,-3.84375 6.9375,-7.8125 C11.5625,-11.7813 16.5729,-13.7656 21.9688,-13.7656"/>
<path class="Note" transform="matrix(1.78583,0,0,1.78583,1935.4,2298.7)" d="M21.9688,-13.7656 C25.0938,-13.7656 27.6979,-12.9844 29.7813,-11.4219 C31.8646,-9.85938 32.9063,-7.61458 32.9063,-4.6875 C32.9063,-0.197917 30.5807,4 25.9297,7.90625 C21.2786,11.8125 16.2813,13.7656 10.9375,13.7656 C7.8125,13.7656 5.17708,12.9531 3.03125,11.3281 C1.01042,9.56771 0,7.35417 0,4.6875 C0,0.322917 2.3125,-3.84375 6.9375,-7.8125 C11.5625,-11.7813 16.5729,-13.7656 21.9688,-13.7656"/>
<path class="Note" transform="matrix(1.78583,0,0,1.78583,2081.24,2276.38)" d="M21.9688,-13.7656 C25.0938,-13.7656 27.6979,-12.9844 29.7813,-11.4219 C31.8646,-9.85938 32.9063,-7.61458 32.9063,-4.6875 C32.9063,-0.197917 30.5807,4 25.9297,7.90625 C21.2786,11.8125 16.2813,13.7656 10.9375,13.7656 C7.8125,13.7656 5.17708,12.9531 3.03125,11.3281 C1.01042,9.56771 0,7.35417 0,4.6875 C0,0.322917 2.3125,-3.84375 6.9375,-7.8125 C11.5625,-11.7813 16.5729,-13.7656 21.9688,-13.7656"/>
<path class="Note" transform="matrix(1.78583,0,0,1.78583,2227.08,2365.67)" d="M21.9688,-13.7656 C25.0938,-13.7656 27.6979,-12.9844 29.7813,-11.4219 C31.8646,-9.85938 32.9063,-7.61458 32.9063,-4.6875 C32.9063,-0.197917 30.5807,4 25.9297,7.90625 C21.2786,11.8125 16.2813,13.7656 10.9375,13.7656 C7.8125,13.7656 5.17708,12.9531 3.03125,11.3281 C1.01042,9.56771 0,7.35417 0,4.6875 C0,0.322917 2.3125,-3.84375 6.9375,-7.8125 C11.5625,-11.7813 16.5729,-13.7656 21.9688,-13.7656"/>
<path class="Note" transform="matrix(1.78583,0,0,1.78583,2443.14,2343.34)" d="M21.9688,-13.7656 C25.0938,-13.7656 27.6979,-12.9844 29.7813,-11.4219 C31.8646,-9.85938 32.9063,-7.61458 32.9063,-4.6875 C32.9063,-0.197917 30.5807,4 25.9297,7.90625 C21.2786,11.8125 16.2813,13.7656 10.9375,13.7656 C7.8125,13.7656 5.17708,12.9531 3.03125,11.3281 C1.01042,9.56771 0,7.35417 0,4.6875 C0,0.322917 2.3125,-3.84375 6.9375,-7.8125 C11.5625,-11.7813 16.5729,-13.7656 21.9688,-13.7656"/>
<path class="Note" transform="matrix(1.78583,0,0,1.78583,2866.29,2321.02)" d="M21.9688,-13.7656 C25.0938,-13.7656 27.6979,-12.9844 29.7813,-11.4219 C31.8646,-9.85938 32.9063,-7.61458 32.9063,-4.6875 C32.9063,-0.197917 30.5807,4 25.9297,7.90625 C21.2786,11.8125 16.2813,13.7656 10.9375,13.7656 C7.8125,13.7656 5.17708,12.9531 3.03125,11.3281 C1.01042,9.56771 0,7.35417 0,4.6875 C0,0.322917 2.3125,-3.84375 6.9375,-7.8125 C11.5625,-11.7813 16.5729,-13.7656 21.9688,-13.7656"/>
<path class="Note" transform="matrix(1.78583,0,0,1.78583,3055.03,2298.7)" d="M21.9688,-13.7656 C25.0938,-13.7656 27.6979,-12.9844 29.7813,-11.4219 C31.8646,-9.85938 32.9063,-7.61458 32.9063,-4.6875 C32.9063,-0.197917 30.5807,4 25.9297,7.90625 C21.2786,11.8125 16.2813,13.7656 10.9375,13.7656 C7.8125,13.7656 5.17708,12.9531 3.03125,11.3281 C1.01042,9.56771 0,7.35417 0,4.6875 C0,0.322917 2.3125,-3.84375 6.9375,-7.8125 C11.5625,-11.7813 16.5729,-13.7656 21.9688,-13.7656"/>
<path class="Note" transform="matrix(1.78583,0,0,1.78583,3200.87,2276.38)" d="M21.9688,-13.7656 C25.0938,-13.7656 27.6979,-12.9844 29.7813,-11.4219 C31.8646,-9.85938 32.9063,-7.61458 32.9063,-4.6875 C32.9063,-0.197917 30.5807,4 25.9297,7.90625 C21.2786,11.8125 16.2813,13.7656 10.9375,13.7656 C7.8125,13.7656 5.17708,12.9531 3.03125,11.3281 C1.01042,9.56771 0,7.35417 0,4.6875 C0,0.322917 2.3125,-3.84375 6.9375,-7.8125 C11.5625,-11.7813 16.5729,-13.7656 21.9688,-13.7656"/>
<path class="Note" transform="matrix(1.78583,0,0,1.78583,3346.7,2209.41)" d="M21.9688,-13.7656 C25.0938,-13.7656 27.6979,-12.9844 29.7813,-11.4219 C31.8646,-9.85938 32.9063,-7.61458 32.9063,-4.6875 C32.9063,-0.197917 30.5807,4 25.9297,7.90625 C21.2786,11.8125 16.2813,13.7656 10.9375,13.7656 C7.8125,13.7656 5.17708,12.9531 3.03125,11.3281 C1.01042,9.56771 0,7.35417 0,4.6875 C0,0.322917 2.3125,-3.84375 6.9375,-7.8125 C11.5625,-11.7813 16.5729,-13.7656 21.9688,-13.7656"/>
<path class="Note" transform="matrix(1.78583,0,0,1.78583,3562.77,2187.08)" d="M21.9688,-13.7656 C25.0938,-13.7656 27.6979,-12.9844 29.7813,-11.4219 C31.8646,-9.85938 32.9063,-7.61458 32.9063,-4.6875 C32.9063,-0.197917 30.5807,4 25.9297,7.90625 C21.2786,11.8125 16.2813,13.7656 10.9375,13.7656 C7.8125,13.7656 5.17708,12.9531 3.03125,11.3281 C1.01042,9.56771 0,7.35417 0,4.6875 C0,0.322917 2.3125,-3.84375 6.9375,-7.8125 C11.5625,-11.7813 16.5729,-13.7656 21.9688,-13.7656"/>
<path class="Note" transform="matrix(1.78583,0,0,1.78583,3930.27,2209.41)" d="M17.0938,5.46875 C19.9583,9.3125 23.6354,11.2344 28.125,11.2344 C32.6146,11.2344 34.8594,8.20833 34.8594,2.15625 C34.8594,-0.71875 34.0469,-3.26042 32.4219,-5.46875 C29.6198,-9.3125 25.8438,-11.2344 21.0938,-11.2344 C19.0104,-11.2344 17.4167,-10.3724 16.3125,-8.64844 C15.2083,-6.92448 14.6563,-4.69271 14.6563,-1.95313 C14.6563,0.786458 15.4688,3.26042 17.0938,5.46875 M7.42188,-9.76563 C12.3073,-12.4323 18.1849,-13.7656 25.0547,-13.7656 C31.9245,-13.7656 37.7188,-12.3984 42.4375,-9.66406 C47.1563,-6.92969 49.5156,-3.67448 49.5156,0.101563 C49.5156,3.8776 47.0729,7.09896 42.1875,9.76563 C37.3021,12.4323 31.4583,13.7656 24.6563,13.7656 C17.8542,13.7656 12.0443,12.3984 7.22656,9.66406 C2.40885,6.92969 0,3.64323 0,-0.195313 C0,-4.03385 2.47396,-7.22396 7.42188,-9.76563"/>
<path class="Clef" transform="matrix(1.78583,0,0,1.78583,99.4392,517.323)" d="M41.8906,32.125 L41.8906,29.9844 C41.8281,28.8802 41.6667,27.1563 41.4063,24.8125 C38.1563,25.3333 35.2604,25.5938 32.7188,25.5938 C23.6042,25.5938 15.8724,21.9948 9.52344,14.7969 C3.17448,7.59896 0,-0.979167 0,-10.9375 C0,-13.6042 0.520833,-16.8099 1.5625,-20.5547 C2.60417,-24.2995 3.5651,-26.8073 4.44531,-28.0781 C5.32552,-29.349 6.64583,-31.5781 8.40625,-34.7656 C8.92708,-35.7448 10.6198,-37.8958 13.4844,-41.2188 C14.0052,-41.9271 14.4609,-42.5104 14.8516,-42.9688 C15.2422,-43.4271 15.875,-44.2422 16.75,-45.4141 C17.625,-46.5859 18.5677,-47.6771 19.5781,-48.6875 C20.5885,-49.6979 21.4844,-50.6745 22.2656,-51.6172 C23.0469,-52.5599 23.7656,-53.3542 24.4219,-54 C22.0781,-61.75 20.6458,-67.7083 20.125,-71.875 C19.6042,-76.0417 19.3438,-81.1536 19.3438,-87.2109 C19.3438,-93.2682 20.6458,-98.7708 23.25,-103.719 C25.7813,-108.854 29.3281,-113.052 33.8906,-116.313 C34.151,-116.51 34.4922,-116.609 34.9141,-116.609 C35.3359,-116.609 35.6458,-116.51 35.8438,-116.313 C39.3542,-112.083 42.3958,-106.583 44.9688,-99.8125 C47.5417,-93.0417 48.8281,-86.7083 48.8281,-80.8125 C48.8281,-74.9167 47.3333,-69.2344 44.3438,-63.7656 C40.9583,-57.974 36.5938,-51.9844 31.25,-45.7969 C32.6146,-41.5052 34.4375,-34.7708 36.7188,-25.5938 L37.3125,-25.5938 C37.5729,-25.6563 37.7969,-25.6875 37.9844,-25.6875 C45.349,-25.6875 51.3568,-23.099 56.0078,-17.9219 C60.6589,-12.7448 62.9844,-6.77083 62.9844,0 C62.9844,8.39583 59.5052,15.1667 52.5469,20.3125 C50.526,21.8125 48.1458,22.9844 45.4063,23.8281 C45.7396,28.0573 45.9063,30.8724 45.9063,32.2734 C45.9063,33.6745 45.8385,36.1667 45.7031,39.75 C45.6406,45.8646 43.5573,51.1042 39.4531,55.4688 C35.349,59.8333 30.6615,62.0156 25.3906,62.0156 C20.1198,62.0156 15.6276,60.1432 11.9141,56.3984 C8.20052,52.6536 6.34375,48.1146 6.34375,42.7813 C6.34375,39.9792 7.42188,37.599 9.57813,35.6406 C11.7865,33.6927 14.2734,32.7188 17.0391,32.7188 C19.8047,32.7188 22.0677,33.7292 23.8281,35.75 C25.651,37.6354 26.5625,39.9115 26.5625,42.5781 C26.5625,45.2448 25.651,47.4896 23.8281,49.3125 C22.0052,51.1354 19.8229,52.0469 17.2813,52.0469 C16.2396,52.0469 15.2344,51.8542 14.2656,51.4688 C17.1302,55.6979 20.8073,57.8125 25.2969,57.8125 C29.7865,57.8125 33.6276,55.9583 36.8203,52.25 C40.013,48.5417 41.6094,44.1771 41.6094,39.1563 L41.8906,32.125 M45.0156,19.8281 C48.401,18.5885 51.0885,16.3906 53.0781,13.2344 C55.0677,10.0781 56.0625,6.9375 56.0625,3.8125 C56.0625,-0.8125 54.4661,-4.94792 51.2734,-8.59375 C48.0807,-12.2396 44.0417,-14.2917 39.1563,-14.75 C41.9583,-1.01042 43.9115,10.5156 45.0156,19.8281 M7.23438,-2.73438 C7.23438,3.71354 9.80469,9.34635 14.9453,14.1641 C20.0859,18.9818 26.1094,21.3906 33.0156,21.3906 C35.7448,21.3906 38.4115,21.1927 41.0156,20.7969 C39.974,10.901 37.9219,-0.947917 34.8594,-14.75 C31.026,-14.3542 28.0495,-13.0339 25.9297,-10.7891 C23.8099,-8.54427 22.75,-5.98958 22.75,-3.125 C22.75,1.82292 25.3906,5.82813 30.6719,8.89063 C31.1198,9.15104 31.3438,9.59115 31.3438,10.2109 C31.3438,10.8307 31.1328,11.3672 30.7109,11.8203 C30.2891,12.2734 29.9167,12.5 29.5938,12.5 C29.2708,12.5 28.849,12.4375 28.3281,12.3125 C20.7031,8.14583 16.8906,1.85938 16.8906,-6.54688 C16.8906,-10.5156 18.2917,-14.3229 21.0938,-17.9688 C24.0208,-21.6146 27.8281,-23.9583 32.5156,-25 C30.6927,-32.2917 29.1979,-37.9896 28.0313,-42.0938 C19.1146,-32.0625 13.5781,-24.6406 11.4219,-19.8281 C8.63021,-13.5781 7.23438,-7.88021 7.23438,-2.73438 M39.8438,-102.047 C34.9583,-99.6406 31.1016,-96.1589 28.2734,-91.6016 C25.4453,-87.0443 24.0313,-82.2604 24.0313,-77.25 C24.0313,-72.2396 25.2031,-65.7604 27.5469,-57.8125 C32.2344,-63.4792 35.7813,-68.7865 38.1875,-73.7344 C40.5938,-78.6823 41.7969,-83.5807 41.7969,-88.4297 C41.7969,-93.2786 41.1458,-97.8177 39.8438,-102.047"/>
<path class="Clef" transform="matrix(1.78583,0,0,1.78583,99.4392,1111.11)" d="M41.8906,32.125 L41.8906,29.9844 C41.8281,28.8802 41.6667,27.1563 41.4063,24.8125 C38.1563,25.3333 35.2604,25.5938 32.7188,25.5938 C23.6042,25.5938 15.8724,21.9948 9.52344,14.7969 C3.17448,7.59896 0,-0.979167 0,-10.9375 C0,-13.6042 0.520833,-16.8099 1.5625,-20.5547 C2.60417,-24.2995 3.5651,-26.8073 4.44531,-28.0781 C5.32552,-29.349 6.64583,-31.5781 8.40625,-34.7656 C8.92708,-35.7448 10.6198,-37.8958 13.4844,-41.2188 C14.0052,-41.9271 14.4609,-42.5104 14.8516,-42.9688 C15.2422,-43.4271 15.875,-44.2422 16.75,-45.4141 C17.625,-46.5859 18.5677,-47.6771 19.5781,-48.6875 C20.5885,-49.6979 21.4844,-50.6745 22.2656,-51.6172 C23.0469,-52.5599 23.7656,-53.3542 24.4219,-54 C22.0781,-61.75 20.6458,-67.7083 20.125,-71.875 C19.6042,-76.0417 19.3438,-81.1536 19.3438,-87.2109 C19.3438,-93.2682 20.6458,-98.7708 23.25,-103.719 C25.7813,-108.854 29.3281,-113.052 33.8906,-116.313 C34.151,-116.51 34.4922,-116.609 34.9141,-116.609 C35.3359,-116.609 35.6458,-116.51 35.8438,-116.313 C39.3542,-112.083 42.3958,-106.583 44.9688,-99.8125 C47.5417,-93.0417 48.8281,-86.7083 48.8281,-80.8125 C48.8281,-74.9167 47.3333,-69.2344 44.3438,-63.7656 C40.9583,-57.974 36.5938,-51.9844 31.25,-45.7969 C32.6146,-41.5052 34.4375,-34.7708 36.7188,-25.5938 L37.3125,-25.5938 C37.5729,-25.6563 37.7969,-25.6875 37.9844,-25.6875 C45.349,-25.6875 51.3568,-23.099 56.0078,-17.9219 C60.6589,-12.7448 62.9844,-6.77083 62.9844,0 C62.9844,8.39583 59.5052,15.1667 52.5469,20.3125 C50.526,21.8125 48.1458,22.9844 45.4063,23.8281 C45.7396,28.0573 45.9063,30.8724 45.9063,32.2734 C45.9063,33.6745 45.8385,36.1667 45.7031,39.75 C45.6406,45.8646 43.5573,51.1042 39.4531,55.4688 C35.349,59.8333 30.6615,62.0156 25.3906,62.0156 C20.1198,62.0156 15.6276,60.1432 11.9141,56.3984 C8.20052,52.6536 6.34375,48.1146 6.34375,42.7813 C6.34375,39.9792 7.42188,37.599 9.57813,35.6406 C11.7865,33.6927 14.2734,32.7188 17.0391,32.7188 C19.8047,32.7188 22.0677,33.7292 23.8281,35.75 C25.651,37.6354 26.5625,39.9115 26.5625,42.5781 C26.5625,45.2448 25.651,47.4896 23.8281,49.3125 C22.0052,51.1354 19.8229,52.0469 17.2813,52.0469 C16.2396,52.0469 15.2344,51.8542 14.2656,51.4688 C17.1302,55.6979 20.8073,57.8125 25.2969,57.8125 C29.7865,57.8125 33.6276,55.9583 36.8203,52.25 C40.013,48.5417 41.6094,44.1771 41.6094,39.1563 L41.8906,32.125 M45.0156,19.8281 C48.401,18.5885 51.0885,16.3906 53.0781,13.2344 C55.0677,10.0781 56.0625,6.9375 56.0625,3.8125 C56.0625,-0.8125 54.4661,-4.94792 51.2734,-8.59375 C48.0807,-12.2396 44.0417,-14.2917 39.1563,-14.75 C41.9583,-1.01042 43.9115,10.5156 45.0156,19.8281 M7.23438,-2.73438 C7.23438,3.71354 9.80469,9.34635 14.9453,14.1641 C20.0859,18.9818 26.1094,21.3906 33.0156,21.3906 C35.7448,21.3906 38.4115,21.1927 41.0156,20.7969 C39.974,10.901 37.9219,-0.947917 34.8594,-14.75 C31.026,-14.3542 28.0495,-13.0339 25.9297,-10.7891 C23.8099,-8.54427 22.75,-5.98958 22.75,-3.125 C22.75,1.82292 25.3906,5.82813 30.6719,8.89063 C31.1198,9.15104 31.3438,9.59115 31.3438,10.2109 C31.3438,10.8307 31.1328,11.3672 30.7109,11.8203 C30.2891,12.2734 29.9167,12.5 29.5938,12.5 C29.2708,12.5 28.849,12.4375 28.3281,12.3125 C20.7031,8.14583 16.8906,1.85938 16.8906,-6.54688 C16.8906,-10.5156 18.2917,-14.3229 21.0938,-17.9688 C24.0208,-21.6146 27.8281,-23.9583 32.5156,-25 C30.6927,-32.2917 29.1979,-37.9896 28.0313,-42.0938 C19.1146,-32.0625 13.5781,-24.6406 11.4219,-19.8281 C8.63021,-13.5781 7.23438,-7.88021 7.23438,-2.73438 M39.8438,-102.047 C34.9583,-99.6406 31.1016,-96.1589 28.2734,-91.6016 C25.4453,-87.0443 24.0313,-82.2604 24.0313,-77.25 C24.0313,-72.2396 25.2031,-65.7604 27.5469,-57.8125 C32.2344,-63.4792 35.7813,-68.7865 38.1875,-73.7344 C40.5938,-78.6823 41.7969,-83.5807 41.7969,-88.4297 C41.7969,-93.2786 41.1458,-97.8177 39.8438,-102.047"/>
<path class="Clef" transform="matrix(1.78583,0,0,1.78583,99.4392,1704.91)" d="M41.8906,32.125 L41.8906,29.9844 C41.8281,28.8802 41.6667,27.1563 41.4063,24.8125 C38.1563,25.3333 35.2604,25.5938 32.7188,25.5938 C23.6042,25.5938 15.8724,21.9948 9.52344,14.7969 C3.17448,7.59896 0,-0.979167 0,-10.9375 C0,-13.6042 0.520833,-16.8099 1.5625,-20.5547 C2.60417,-24.2995 3.5651,-26.8073 4.44531,-28.0781 C5.32552,-29.349 6.64583,-31.5781 8.40625,-34.7656 C8.92708,-35.7448 10.6198,-37.8958 13.4844,-41.2188 C14.0052,-41.9271 14.4609,-42.5104 14.8516,-42.9688 C15.2422,-43.4271 15.875,-44.2422 16.75,-45.4141 C17.625,-46.5859 18.5677,-47.6771 19.5781,-48.6875 C20.5885,-49.6979 21.4844,-50.6745 22.2656,-51.6172 C23.0469,-52.5599 23.7656,-53.3542 24.4219,-54 C22.0781,-61.75 20.6458,-67.7083 20.125,-71.875 C19.6042,-76.0417 19.3438,-81.1536 19.3438,-87.2109 C19.3438,-93.2682 20.6458,-98.7708 23.25,-103.719 C25.7813,-108.854 29.3281,-113.052 33.8906,-116.313 C34.151,-116.51 34.4922,-116.609 34.9141,-116.609 C35.3359,-116.609 35.6458,-116.51 35.8438,-116.313 C39.3542,-112.083 42.3958,-106.583 44.9688,-99.8125 C47.5417,-93.0417 48.8281,-86.7083 48.8281,-80.8125 C48.8281,-74.9167 47.3333,-69.2344 44.3438,-63.7656 C40.9583,-57.974 36.5938,-51.9844 31.25,-45.7969 C32.6146,-41.5052 34.4375,-34.7708 36.7188,-25.5938 L37.3125,-25.5938 C37.5729,-25.6563 37.7969,-25.6875 37.9844,-25.6875 C45.349,-25.6875 51.3568,-23.099 56.0078,-17.9219 C60.6589,-12.7448 62.9844,-6.77083 62.9844,0 C62.9844,8.39583 59.5052,15.1667 52.5469,20.3125 C50.526,21.8125 48.1458,22.9844 45.4063,23.8281 C45.7396,28.0573 45.9063,30.8724 45.9063,32.2734 C45.9063,33.6745 45.8385,36.1667 45.7031,39.75 C45.6406,45.8646 43.5573,51.1042 39.4531,55.4688 C35.349,59.8333 30.6615,62.0156 25.3906,62.0156 C20.1198,62.0156 15.6276,60.1432 11.9141,56.3984 C8.20052,52.6536 6.34375,48.1146 6.34375,42.7813 C6.34375,39.9792 7.42188,37.599 9.57813,35.6406 C11.7865,33.6927 14.2734,32.7188 17.0391,32.7188 C19.8047,32.7188 22.0677,33.7292 23.8281,35.75 C25.651,37.6354 26.5625,39.9115 26.5625,42.5781 C26.5625,45.2448 25.651,47.4896 23.8281,49.3125 C22.0052,51.1354 19.8229,52.0469 17.2813,52.0469 C16.2396,52.0469 15.2344,51.8542 14.2656,51.4688 C17.1302,55.6979 20.8073,57.8125 25.2969,57.8125 C29.7865,57.8125 33.6276,55.9583 36.8203,52.25 C40.013,48.5417 41.6094,44.1771 41.6094,39.1563 L41.8906,32.125 M45.0156,19.8281 C48.401,18.5885 51.0885,16.3906 53.0781,13.2344 C55.0677,10.0781 56.0625,6.9375 56.0625,3.8125 C56.0625,-0.8125 54.4661,-4.94792 51.2734,-8.59375 C48.0807,-12.2396 44.0417,-14.2917 39.1563,-14.75 C41.9583,-1.01042 43.9115,10.5156 45.0156,19.8281 M7.23438,-2.73438 C7.23438,3.71354 9.80469,9.34635 14.9453,14.1641 C20.0859,18.9818 26.1094,21.3906 33.0156,21.3906 C35.7448,21.3906 38.4115,21.1927 41.0156,20.7969 C39.974,10.901 37.9219,-0.947917 34.8594,-14.75 C31.026,-14.3542 28.0495,-13.0339 25.9297,-10.7891 C23.8099,-8.54427 22.75,-5.98958 22.75,-3.125 C22.75,1.82292 25.3906,5.82813 30.6719,8.89063 C31.1198,9.15104 31.3438,9.59115 31.3438,10.2109 C31.3438,10.8307 31.1328,11.3672 30.7109,11.8203 C30.2891,12.2734 29.9167,12.5 29.5938,12.5 C29.2708,12.5 28.849,12.4375 28.3281,12.3125 C20.7031,8.14583 16.8906,1.85938 16.8906,-6.54688 C16.8906,-10.5156 18.2917,-14.3229 21.0938,-17.9688 C24.0208,-21.6146 27.8281,-23.9583 32.5156,-25 C30.6927,-32.2917 29.1979,-37.9896 28.0313,-42.0938 C19.1146,-32.0625 13.5781,-24.6406 11.4219,-19.8281 C8.63021,-13.5781 7.23438,-7.88021 7.23438,-2.73438 M39.8438,-102.047 C34.9583,-99.6406 31.1016,-96.1589 28.2734,-91.6016 C25.4453,-87.0443 24.0313,-82.2604 24.0313,-77.25 C24.0313,-72.2396 25.2031,-65.7604 27.5469,-57.8125 C32.2344,-63.4792 35.7813,-68.7865 38.1875,-73.7344 C40.5938,-78.6823 41.7969,-83.5807 41.7969,-88.4297 C41.7969,-93.2786 41.1458,-97.8177 39.8438,-102.047"/>
<path class="Clef" transform="matrix(1.78583,0,0,1.78583,99.4392,2298.7)" d="M41.8906,32.125 L41.8906,29.9844 C41.8281,28.8802 41.6667,27.1563 41.4063,24.8125 C38.1563,25.3333 35.2604,25.5938 32.7188,25.5938 C23.6042,25.5938 15.8724,21.9948 9.52344,14.7969 C3.17448,7.59896 0,-0.979167 0,-10.9375 C0,-13.6042 0.520833,-16.8099 1.5625,-20.5547 C2.60417,-24.2995 3.5651,-26.8073 4.44531,-28.0781 C5.32552,-29.349 6.64583,-31.5781 8.40625,-34.7656 C8.92708,-35.7448 10.6198,-37.8958 13.4844,-41.2188 C14.0052,-41.9271 14.4609,-42.5104 14.8516,-42.9688 C15.2422,-43.4271 15.875,-44.2422 16.75,-45.4141 C17.625,-46.5859 18.5677,-47.6771 19.5781,-48.6875 C20.5885,-49.6979 21.4844,-50.6745 22.2656,-51.6172 C23.0469,-52.5599 23.7656,-53.3542 24.4219,-54 C22.0781,-61.75 20.6458,-67.7083 20.125,-71.875 C19.6042,-76.0417 19.3438,-81.1536 19.3438,-87.2109 C19.3438,-93.2682 20.6458,-98.7708 23.25,-103.719 C25.7813,-108.854 29.3281,-113.052 33.8906,-116.313 C34.151,-116.51 34.4922,-116.609 34.9141,-116.609 C35.3359,-116.609 35.6458,-116.51 35.8438,-116.313 C39.3542,-112.083 42.3958,-106.583 44.9688,-99.8125 C47.5417,-93.0417 48.8281,-86.7083 48.8281,-80.8125 C48.8281,-74.9167 47.3333,-69.2344 44.3438,-63.7656 C40.9583,-57.974 36.5938,-51.9844 31.25,-45.7969 C32.6146,-41.5052 34.4375,-34.7708 36.7188,-25.5938 L37.3125,-25.5938 C37.5729,-25.6563 37.7969,-25.6875 37.9844,-25.6875 C45.349,-25.6875 51.3568,-23.099 56.0078,-17.9219 C60.6589,-12.7448 62.9844,-6.77083 62.9844,0 C62.9844,8.39583 59.5052,15.1667 52.5469,20.3125 C50.526,21.8125 48.1458,22.9844 45.4063,23.8281 C45.7396,28.0573 45.9063,30.8724 45.9063,32.2734 C45.9063,33.6745 45.8385,36.1667 45.7031,39.75 C45.6406,45.8646 43.5573,51.1042 39.4531,55.4688 C35.349,59.8333 30.6615,62.0156 25.3906,62.0156 C20.1198,62.0156 15.6276,60.1432 11.9141,56.3984 C8.20052,52.6536 6.34375,48.1146 6.34375,42.7813 C6.34375,39.9792 7.42188,37.599 9.57813,35.6406 C11.7865,33.6927 14.2734,32.7188 17.0391,32.7188 C19.8047,32.7188 22.0677,33.7292 23.8281,35.75 C25.651,37.6354 26.5625,39.9115 26.5625,42.5781 C26.5625,45.2448 25.651,47.4896 23.8281,49.3125 C22.0052,51.1354 19.8229,52.0469 17.2813,52.0469 C16.2396,52.0469 15.2344,51.8542 14.2656,51.4688 C17.1302,55.6979 20.8073,57.8125 25.2969,57.8125 C29.7865,57.8125 33.6276,55.9583 36.8203,52.25 C40.013,48.5417 41.6094,44.1771 41.6094,39.1563 L41.8906,32.125 M45.0156,19.8281 C48.401,18.5885 51.0885,16.3906 53.0781,13.2344 C55.0677,10.0781 56.0625,6.9375 56.0625,3.8125 C56.0625,-0.8125 54.4661,-4.94792 51.2734,-8.59375 C48.0807,-12.2396 44.0417,-14.2917 39.1563,-14.75 C41.9583,-1.01042 43.9115,10.5156 45.0156,19.8281 M7.23438,-2.73438 C7.23438,3.71354 9.80469,9.34635 14.9453,14.1641 C20.0859,18.9818 26.1094,21.3906 33.0156,21.3906 C35.7448,21.3906 38.4115,21.1927 41.0156,20.7969 C39.974,10.901 37.9219,-0.947917 34.8594,-14.75 C31.026,-14.3542 28.0495,-13.0339 25.9297,-10.7891 C23.8099,-8.54427 22.75,-5.98958 22.75,-3.125 C22.75,1.82292 25.3906,5.82813 30.6719,8.89063 C31.1198,9.15104 31.3438,9.59115 31.3438,10.2109 C31.3438,10.8307 31.1328,11.3672 30.7109,11.8203 C30.2891,12.2734 29.9167,12.5 29.5938,12.5 C29.2708,12.5 28.849,12.4375 28.3281,12.3125 C20.7031,8.14583 16.8906,1.85938 16.8906,-6.54688 C16.8906,-10.5156 18.2917,-14.3229 21.0938,-17.9688 C24.0208,-21.6146 27.8281,-23.9583 32.5156,-25 C30.6927,-32.2917 29.1979,-37.9896 28.0313,-42.0938 C19.1146,-32.0625 13.5781,-24.6406 11.4219,-19.8281 C8.63021,-13.5781 7.23438,-7.88021 7.23438,-2.73438 M39.8438,-102.047 C34.9583,-99.6406 31.1016,-96.1589 28.2734,-91.6016 C25.4453,-87.0443 24.0313,-82.2604 24.0313,-77.25 C24.0313,-72.2396 25.2031,-65.7604 27.5469,-57.8125 C32.2344,-63.4792 35.7813,-68.7865 38.1875,-73.7344 C40.5938,-78.6823 41.7969,-83.5807 41.7969,-88.4297 C41.7969,-93.2786 41.1458,-97.8177 39.8438,-102.047"/>
<path class="KeySig" transform="matrix(1.78583,0,0,1.78583,301.28,450.354)" d="M22.6563,-21.9688 C24.0938,-22.3646 24.8125,-22.0104 24.8125,-20.9063 L24.8125,-13.0938 C24.8125,-12.3125 24.1927,-11.6927 22.9531,-11.2344 L19.7344,-9.96875 L19.7344,4.20313 L22.6563,3.03125 C24.0938,2.63542 24.8125,2.99479 24.8125,4.10938 L24.8125,11.9219 C24.8125,12.7031 24.1927,13.3177 22.9531,13.7656 L19.7344,15.0469 L19.7344,31.25 C19.7344,32.4896 19.2448,33.1094 18.2656,33.1094 C17.2865,33.1094 16.7969,32.4896 16.7969,31.25 L16.7969,16.2188 L7.51563,19.9219 L7.51563,36.0313 C7.51563,37.2708 7.02865,37.8906 6.05469,37.8906 C5.08073,37.8906 4.59375,37.2708 4.59375,36.0313 L4.59375,21.0938 L2.04688,22.1719 C0.682292,22.7552 0,22.3646 0,21 L0,13.2813 C0,12.6354 0.588542,12.0521 1.76563,11.5313 L4.59375,10.3594 L4.59375,-3.90625 L2.04688,-2.82813 C0.682292,-2.24479 0,-2.63542 0,-4 L0,-11.7188 C0,-12.375 0.588542,-12.9635 1.76563,-13.4844 L4.59375,-14.6563 L4.59375,-30.7656 C4.59375,-32.0052 5.08073,-32.625 6.05469,-32.625 C7.02865,-32.625 7.51563,-32.0052 7.51563,-30.7656 L7.51563,-15.8281 L16.7969,-19.625 L16.7969,-35.5469 C16.7969,-36.7865 17.2865,-37.4063 18.2656,-37.4063 C19.2448,-37.4063 19.7344,-36.7865 19.7344,-35.5469 L19.7344,-20.7969 L22.6563,-21.9688 M7.51563,-5.07813 L7.51563,9.1875 L16.7969,5.375 L16.7969,-8.79688 L7.51563,-5.07813 "/>
<path class="KeySig" transform="matrix(1.78583,0,0,1.78583,256.634,383.386)" d="M22.6563,-21.9688 C24.0938,-22.3646 24.8125,-22.0104 24.8125,-20.9063 L24.8125,-13.0938 C24.8125,-12.3125 24.1927,-11.6927 22.9531,-11.2344 L19.7344,-9.96875 L19.7344,4.20313 L22.6563,3.03125 C24.0938,2.63542 24.8125,2.99479 24.8125,4.10938 L24.8125,11.9219 C24.8125,12.7031 24.1927,13.3177 22.9531,13.7656 L19.7344,15.0469 L19.7344,31.25 C19.7344,32.4896 19.2448,33.1094 18.2656,33.1094 C17.2865,33.1094 16.7969,32.4896 16.7969,31.25 L16.7969,16.2188 L7.51563,19.9219 L7.51563,36.0313 C7.51563,37.2708 7.02865,37.8906 6.05469,37.8906 C5.08073,37.8906 4.59375,37.2708 4.59375,36.0313 L4.59375,21.0938 L2.04688,22.1719 C0.682292,22.7552 0,22.3646 0,21 L0,13.2813 C0,12.6354 0.588542,12.0521 1.76563,11.5313 L4.59375,10.3594 L4.59375,-3.90625 L2.04688,-2.82813 C0.682292,-2.24479 0,-2.63542 0,-4 L0,-11.7188 C0,-12.375 0.588542,-12.9635 1.76563,-13.4844 L4.59375,-14.6563 L4.59375,-30.7656 C4.59375,-32.0052 5.08073,-32.625 6.05469,-32.625 C7.02865,-32.625 7.51563,-32.0052 7.51563,-30.7656 L7.51563,-15.8281 L16.7969,-19.625 L16.7969,-35.5469 C16.7969,-36.7865 17.2865,-37.4063 18.2656,-37.4063 C19.2448,-37.4063 19.7344,-36.7865 19.7344,-35.5469 L19.7344,-20.7969 L22.6563,-21.9688 M7.51563,-5.07813 L7.51563,9.1875 L16.7969,5.375 L16.7969,-8.79688 L7.51563,-5.07813 "/>
<path class="KeySig" transform="matrix(1.78583,0,0,1.78583,301.28,1044.15)" d="M22.6563,-21.9688 C24.0938,-22.3646 24.8125,-22.0104 24.8125,-20.9063 L24.8125,-13.0938 C24.8125,-12.3125 24.1927,-11.6927 22.9531,-11.2344 L19.7344,-9.96875 L19.7344,4.20313 L22.6563,3.03125 C24.0938,2.63542 24.8125,2.99479 24.8125,4.10938 L24.8125,11.9219 C24.8125,12.7031 24.1927,13.3177 22.9531,13.7656 L19.7344,15.0469 L19.7344,31.25 C19.7344,32.4896 19.2448,33.1094 18.2656,33.1094 C17.2865,33.1094 16.7969,32.4896 16.7969,31.25 L16.7969,16.2188 L7.51563,19.9219 L7.51563,36.0313 C7.51563,37.2708 7.02865,37.8906 6.05469,37.8906 C5.08073,37.8906 4.59375,37.2708 4.59375,36.0313 L4.59375,21.0938 L2.04688,22.1719 C0.682292,22.7552 0,22.3646 0,21 L0,13.2813 C0,12.6354 0.588542,12.0521 1.76563,11.5313 L4.59375,10.3594 L4.59375,-3.90625 L2.04688,-2.82813 C0.682292,-2.24479 0,-2.63542 0,-4 L0,-11.7188 C0,-12.375 0.588542,-12.9635 1.76563,-13.4844 L4.59375,-14.6563 L4.59375,-30.7656 C4.59375,-32.0052 5.08073,-32.625 6.05469,-32.625 C7.02865,-32.625 7.51563,-32.0052 7.51563,-30.7656 L7.51563,-15.8281 L16.7969,-19.625 L16.7969,-35.5469 C16.7969,-36.7865 17.2865,-37.4063 18.2656,-37.4063 C19.2448,-37.4063 19.7344,-36.7865 19.7344,-35.5469 L19.7344,-20.7969 L22.6563,-21.9688 M7.51563,-5.07813 L7.51563,9.1875 L16.7969,5.375 L16.7969,-8.79688 L7.51563,-5.07813 "/>
<path class="KeySig" transform="matrix(1.78583,0,0,1.78583,256.634,977.178)" d="M22.6563,-21.9688 C24.0938,-22.3646 24.8125,-22.0104 24.8125,-20.9063 L24.8125,-13.0938 C24.8125,-12.3125 24.1927,-11.6927 22.9531,-11.2344 L19.7344,-9.96875 L19.7344,4.20313 L22.6563,3.03125 C24.0938,2.63542 24.8125,2.99479 24.8125,4.10938 L24.8125,11.9219 C24.8125,12.7031 24.1927,13.3177 22.9531,13.7656 L19.7344,15.0469 L19.7344,31.25 C19.7344,32.4896 19.2448,33.1094 18.2656,33.1094 C17.2865,33.1094 16.7969,32.4896 16.7969,31.25 L16.7969,16.2188 L7.51563,19.9219 L7.51563,36.0313 C7.51563,37.2708 7.02865,37.8906 6.05469,37.8906 C5.08073,37.8906 4.59375,37.2708 4.59375,36.0313 L4.59375,21.0938 L2.04688,22.1719 C0.682292,22.7552 0,22.3646 0,21 L0,13.2813 C0,12.6354 0.588542,12.0521 1.76563,11.5313 L4.59375,10.3594 L4.59375,-3.90625 L2.04688,-2.82813 C0.682292,-2.24479 0,-2.63542 0,-4 L0,-11.7188 C0,-12.375 0.588542,-12.9635 1.76563,-13.4844 L4.59375,-14.6563 L4.59375,-30.7656 C4.59375,-32.0052 5.08073,-32.625 6.05469,-32.625 C7.02865,-32.625 7.51563,-32.0052 7.51563,-30.7656 L7.51563,-15.8281 L16.7969,-19.625 L16.7969,-35.5469 C16.7969,-36.7865 17.2865,-37.4063 18.2656,-37.4063 C19.2448,-37.4063 19.7344,-36.7865 19.7344,-35.5469 L19.7344,-20.7969 L22.6563,-21.9688 M7.51563,-5.07813 L7.51563,9.1875 L16.7969,5.375 L16.7969,-8.79688 L7.51563,-5.07813 "/>
<path class="KeySig" transform="matrix(1.78583,0,0,1.78583,301.28,1637.94)" d="M22.6563,-21.9688 C24.0938,-22.3646 24.8125,-22.0104 24.8125,-20.9063 L24.8125,-13.0938 C24.8125,-12.3125 24.1927,-11.6927 22.9531,-11.2344 L19.7344,-9.96875 L19.7344,4.20313 L22.6563,3.03125 C24.0938,2.63542 24.8125,2.99479 24.8125,4.10938 L24.8125,11.9219 C24.8125,12.7031 24.1927,13.3177 22.9531,13.7656 L19.7344,15.0469 L19.7344,31.25 C19.7344,32.4896 19.2448,33.1094 18.2656,33.1094 C17.2865,33.1094 16.7969,32.4896 16.7969,31.25 L16.7969,16.2188 L7.51563,19.9219 L7.51563,36.0313 C7.51563,37.2708 7.02865,37.8906 6.05469,37.8906 C5.08073,37.8906 4.59375,37.2708 4.59375,36.0313 L4.59375,21.0938 L2.04688,22.1719 C0.682292,22.7552 0,22.3646 0,21 L0,13.2813 C0,12.6354 0.588542,12.0521 1.76563,11.5313 L4.59375,10.3594 L4.59375,-3.90625 L2.04688,-2.82813 C0.682292,-2.24479 0,-2.63542 0,-4 L0,-11.7188 C0,-12.375 0.588542,-12.9635 1.76563,-13.4844 L4.59375,-14.6563 L4.59375,-30.7656 C4.59375,-32.0052 5.08073,-32.625 6.05469,-32.625 C7.02865,-32.625 7.51563,-32.0052 7.51563,-30.7656 L7.51563,-15.8281 L16.7969,-19.625 L16.7969,-35.5469 C16.7969,-36.7865 17.2865,-37.4063 18.2656,-37.4063 C19.2448,-37.4063 19.7344,-36.7865 19.7344,-35.5469 L19.7344,-20.7969 L22.6563,-21.9688 M7.51563,-5.07813 L7.51563,9.1875 L16.7969,5.375 L16.7969,-8.79688 L7.51563,-5.07813 "/>
<path class="KeySig" transform="matrix(1.78583,0,0,1.78583,256.634,1570.97)" d="M22.6563,-21.9688 C24.0938,-22.3646 24.8125,-22.0104 24.8125,-20.9063 L24.8125,-13.0938 C24.8125,-12.3125 24.1927,-11.6927 22.9531,-11.2344 L19.7344,-9.96875 L19.7344,4.20313 L22.6563,3.03125 C24.0938,2.63542 24.8125,2.99479 24.8125,4.10938 L24.8125,11.9219 C24.8125,12.7031 24.1927,13.3177 22.9531,13.7656 L19.7344,15.0469 L19.7344,31.25 C19.7344,32.4896 19.2448,33.1094 18.2656,33.1094 C17.2865,33.1094 16.7969,32.4896 16.7969,31.25 L16.7969,16.2188 L7.51563,19.9219 L7.51563,36.0313 C7.51563,37.2708 7.02865,37.8906 6.05469,37.8906 C5.08073,37.8906 4.59375,37.2708 4.59375,36.0313 L4.59375,21.0938 L2.04688,22.1719 C0.682292,22.7552 0,22.3646 0,21 L0,13.2813 C0,12.6354 0.588542,12.0521 1.76563,11.5313 L4.59375,10.3594 L4.59375,-3.90625 L2.04688,-2.82813 C0.682292,-2.24479 0,-2.63542 0,-4 L0,-11.7188 C0,-12.375 0.588542,-12.9635 1.76563,-13.4844 L4.59375,-14.6563 L4.59375,-30.7656 C4.59375,-32.0052 5.08073,-32.625 6.05469,-32.625 C7.02865,-32.625 7.51563,-32.0052 7.51563,-30.7656 L7.51563,-15.8281 L16.7969,-19.625 L16.7969,-35.5469 C16.7969,-36.7865 17.2865,-37.4063 18.2656,-37.4063 C19.2448,-37.4063 19.7344,-36.7865 19.7344,-35.5469 L19.7344,-20.7969 L22.6563,-21.9688 M7.51563,-5.07813 L7.51563,9.1875 L16.7969,5.375 L16.7969,-8.79688 L7.51563,-5.07813 "/>
<path class="KeySig" transform="matrix(1.78583,0,0,1.78583,301.28,2231.73)" d="M22.6563,-21.9688 C24.0938,-22.3646 24.8125,-22.0104 24.8125,-20.9063 L24.8125,-13.0938 C24.8125,-12.3125 24.1927,-11.6927 22.9531,-11.2344 L19.7344,-9.96875 L19.7344,4.20313 L22.6563,3.03125 C24.0938,2.63542 24.8125,2.99479 24.8125,4.10938 L24.8125,11.9219 C24.8125,12.7031 24.1927,13.3177 22.9531,13.7656 L19.7344,15.0469 L19.7344,31.25 C19.7344,32.4896 19.2448,33.1094 18.2656,33.1094 C17.2865,33.1094 16.7969,32.4896 16.7969,31.25 L16.7969,16.2188 L7.51563,19.9219 L7.51563,36.0313 C7.51563,37.2708 7.02865,37.8906 6.05469,37.8906 C5.08073,37.8906 4.59375,37.2708 4.59375,36.0313 L4.59375,21.0938 L2.04688,22.1719 C0.682292,22.7552 0,22.3646 0,21 L0,13.2813 C0,12.6354 0.588542,12.0521 1.76563,11.5313 L4.59375,10.3594 L4.59375,-3.90625 L2.04688,-2.82813 C0.682292,-2.24479 0,-2.63542 0,-4 L0,-11.7188 C0,-12.375 0.588542,-12.9635 1.76563,-13.4844 L4.59375,-14.6563 L4.59375,-30.7656 C4.59375,-32.0052 5.08073,-32.625 6.05469,-32.625 C7.02865,-32.625 7.51563,-32.0052 7.51563,-30.7656 L7.51563,-15.8281 L16.7969,-19.625 L16.7969,-35.5469 C16.7969,-36.7865 17.2865,-37.4063 18.2656,-37.4063 C19.2448,-37.4063 19.7344,-36.7865 19.7344,-35.5469 L19.7344,-20.7969 L22.6563,-21.9688 M7.51563,-5.07813 L7.51563,9.1875 L16.7969,5.375 L16.7969,-8.79688 L7.51563,-5.07813 "/>
<path class="KeySig" transform="matrix(1.78583,0,0,1.78583,256.634,2164.76)" d="M22.6563,-21.9688 C24.0938,-22.3646 24.8125,-22.0104 24.8125,-20.9063 L24.8125,-13.0938 C24.8125,-12.3125 24.1927,-11.6927 22.9531,-11.2344 L19.7344,-9.96875 L19.7344,4.20313 L22.6563,3.03125 C24.0938,2.63542 24.8125,2.99479 24.8125,4.10938 L24.8125,11.9219 C24.8125,12.7031 24.1927,13.3177 22.9531,13.7656 L19.7344,15.0469 L19.7344,31.25 C19.7344,32.4896 19.2448,33.1094 18.2656,33.1094 C17.2865,33.1094 16.7969,32.4896 16.7969,31.25 L16.7969,16.2188 L7.51563,19.9219 L7.51563,36.0313 C7.51563,37.2708 7.02865,37.8906 6.05469,37.8906 C5.08073,37.8906 4.59375,37.2708 4.59375,36.0313 L4.59375,21.0938 L2.04688,22.1719 C0.682292,22.7552 0,22.3646 0,21 L0,13.2813 C0,12.6354 0.588542,12.0521 1.76563,11.5313 L4.59375,10.3594 L4.59375,-3.90625 L2.04688,-2.82813 C0.682292,-2.24479 0,-2.63542 0,-4 L0,-11.7188 C0,-12.375 0.588542,-12.9635 1.76563,-13.4844 L4.59375,-14.6563 L4.59375,-30.7656 C4.59375,-32.0052 5.08073,-32.625 6.05469,-32.625 C7.02865,-32.625 7.51563,-32.0052 7.51563,-30.7656 L7.51563,-15.8281 L16.7969,-19.625 L16.7969,-35.5469 C16.7969,-36.7865 17.2865,-37.4063 18.2656,-37.4063 C19.2448,-37.4063 19.7344,-36.7865 19.7344,-35.5469 L19.7344,-20.7969 L22.6563,-21.9688 M7.51563,-5.07813 L7.51563,9.1875 L16.7969,5.375 L16.7969,-8.79688 L7.51563,-5.07813 "/>
<path class="TimeSig" transform="matrix(1.78583,0,0,1.78583,389.817,472.677)" d="M40.625,-4.78125 C39.4583,-3.41667 37.9635,-2.73438 36.1406,-2.73438 C34.3177,-2.73438 32.5755,-3.36979 30.9141,-4.64063 C29.2526,-5.91146 28.4219,-7.65365 28.4219,-9.86719 C28.4219,-12.0807 29.0885,-13.9688 30.4219,-15.5313 C31.7552,-17.0938 33.4948,-17.875 35.6406,-17.875 C36.3594,-17.875 36.8177,-17.8438 37.0156,-17.7813 C34.0156,-21.6146 30.0104,-23.599 25,-23.7344 C21.2292,-23.7344 18.3646,-22.6615 16.4063,-20.5156 C15.7604,-19.6615 15.1771,-18.2917 14.6563,-16.4063 C14.1354,-14.5208 13.875,-12.8281 13.875,-11.3281 C13.7396,-10.2865 13.6719,-8.20313 13.6719,-5.07813 L13.6719,5.07813 C13.6719,12.9531 14.5521,18.0469 16.3125,20.3594 C18.0729,22.6719 20.9375,23.8281 24.9063,23.8281 C28.875,23.8281 32.2422,22.4115 35.0078,19.5781 C37.7734,16.7448 39.7135,13.1146 40.8281,8.6875 C41.0156,8.04167 41.4063,7.71875 42,7.71875 C42.8438,7.71875 43.2656,8.10938 43.2656,8.89063 C43.2656,9.34896 43.0677,10.2292 42.6719,11.5313 C41.7656,14.7188 39.9792,17.8073 37.3125,20.7969 C34.1146,24.4427 30.0104,26.2656 25,26.2656 C18.3646,26.2656 12.7344,24.4115 8.10938,20.7031 C5.56771,18.6823 3.58073,15.8672 2.14844,12.2578 C0.716146,8.64844 0,4.5625 0,0 C0,-7.94792 2.15104,-14.2656 6.45313,-18.9531 C10.6198,-23.7656 16.8021,-26.1719 25,-26.1719 C30.3438,-26.1719 34.6094,-24.349 37.7969,-20.7031 C40.9844,-17.0573 42.5781,-13.4427 42.5781,-9.85938 C42.5781,-7.77604 41.9271,-6.08333 40.625,-4.78125"/>
<path class="Rest" transform="matrix(1.78583,0,0,1.78583,1002.11,472.677)" d="M18.9531,-7.625 C14.7865,-6.125 11.401,-5.375 8.79688,-5.375 C6.19271,-5.375 4.02604,-6.10677 2.29688,-7.57031 C0.567708,-9.03385 -0.296875,-10.8568 -0.296875,-13.0391 C-0.296875,-15.2214 0.419271,-17.013 1.85156,-18.4141 C3.28385,-19.8151 4.97656,-20.5156 6.92969,-20.5156 C8.88281,-20.5156 10.349,-19.9609 11.3281,-18.8516 C12.3073,-17.7422 12.8464,-16.6823 12.9453,-15.6719 C13.0443,-14.6615 13.3542,-13.5417 13.875,-12.3125 C14.4583,-11.2708 15.1563,-10.75 15.9688,-10.75 C16.7813,-10.75 17.8724,-11.513 19.2422,-13.0391 C20.612,-14.5651 21.5234,-15.7682 21.9766,-16.6484 C22.4297,-17.5286 22.9818,-17.9531 23.6328,-17.9219 C24.2839,-17.8906 24.7396,-17.5833 25,-17 L12.7031,25 C12.0469,25.6563 11.1328,25.9844 9.96094,25.9844 C8.78906,25.9844 7.88021,25.6563 7.23438,25 L18.9531,-7.625 "/>
<path class="Rest" transform="matrix(1.78583,0,0,1.78583,1968.71,472.677)" d="M18.9531,-7.625 C14.7865,-6.125 11.401,-5.375 8.79688,-5.375 C6.19271,-5.375 4.02604,-6.10677 2.29688,-7.57031 C0.567708,-9.03385 -0.296875,-10.8568 -0.296875,-13.0391 C-0.296875,-15.2214 0.419271,-17.013 1.85156,-18.4141 C3.28385,-19.8151 4.97656,-20.5156 6.92969,-20.5156 C8.88281,-20.5156 10.349,-19.9609 11.3281,-18.8516 C12.3073,-17.7422 12.8464,-16.6823 12.9453,-15.6719 C13.0443,-14.6615 13.3542,-13.5417 13.875,-12.3125 C14.4583,-11.2708 15.1563,-10.75 15.9688,-10.75 C16.7813,-10.75 17.8724,-11.513 19.2422,-13.0391 C20.612,-14.5651 21.5234,-15.7682 21.9766,-16.6484 C22.4297,-17.5286 22.9818,-17.9531 23.6328,-17.9219 C24.2839,-17.8906 24.7396,-17.5833 25,-17 L12.7031,25 C12.0469,25.6563 11.1328,25.9844 9.96094,25.9844 C8.78906,25.9844 7.88021,25.6563 7.23438,25 L18.9531,-7.625 "/>
<path class="Rest" transform="matrix(1.78583,0,0,1.78583,766.407,1066.47)" d="M0.390625,-5.28125 C-0.265625,-6.125 -0.59375,-7.03646 -0.59375,-8.01563 C-0.59375,-9.76563 1.49479,-12.2031 5.67188,-15.3281 C9.76563,-18.526 11.8125,-22.1719 11.8125,-26.2656 C11.8125,-28.6823 10.9688,-30.8958 9.28125,-32.9063 L5.76563,-37.1094 C5.50521,-37.3698 5.375,-37.6953 5.375,-38.0859 C5.375,-38.4766 5.56771,-38.8333 5.95313,-39.1563 C6.41146,-39.4896 6.83594,-39.6563 7.22656,-39.6563 C7.61719,-39.6563 7.94271,-39.4583 8.20313,-39.0625 L23.3438,-21.0938 C23.9896,-20.25 24.3125,-19.3229 24.3125,-18.3125 C24.3125,-17.3021 23.776,-16.2109 22.7031,-15.0391 C21.6302,-13.8672 20.1198,-12.5 18.1719,-10.9375 C16.6719,-10.0313 15.2552,-8.60156 13.9219,-6.64844 C12.5885,-4.69531 11.9219,-2.47917 11.9219,0 C11.9219,2.47917 12.7031,4.66146 14.2656,6.54688 L22.6563,16.4063 C22.8542,16.6042 22.9844,16.9297 23.0469,17.3828 C23.1094,17.8359 22.9453,18.2266 22.5547,18.5547 C22.1641,18.8828 21.8568,19.0469 21.6328,19.0469 C21.4089,19.0469 20.8229,18.6719 19.875,17.9219 C18.9271,17.1719 17.5911,16.4401 15.8672,15.7266 C14.1432,15.013 12.4349,14.6563 10.7422,14.6563 C9.04948,14.6563 7.71615,15.112 6.74219,16.0234 C5.76823,16.9349 5.28125,19.0339 5.28125,22.3203 C5.28125,25.6068 6.22396,28.3906 8.10938,30.6719 C8.30729,30.9323 8.34115,31.224 8.21094,31.5469 C8.08073,31.8698 7.82031,32.0313 7.42969,32.0313 C7.03906,32.0313 6.04427,30.8281 4.44531,28.4219 C2.84635,26.0156 1.3151,23.1667 -0.148438,19.875 C-1.61198,16.5833 -2.34375,13.8333 -2.34375,11.625 C-2.34375,8.82292 -0.911458,7.42188 1.95313,7.42188 C4.81771,7.42188 8.69271,8.46354 13.5781,10.5469 L0.390625,-5.28125 "/>
<path class="Rest" transform="matrix(1.78583,0,0,1.78583,1421.41,1066.47)" d="M18.9531,-7.625 C14.7865,-6.125 11.401,-5.375 8.79688,-5.375 C6.19271,-5.375 4.02604,-6.10677 2.29688,-7.57031 C0.567708,-9.03385 -0.296875,-10.8568 -0.296875,-13.0391 C-0.296875,-15.2214 0.419271,-17.013 1.85156,-18.4141 C3.28385,-19.8151 4.97656,-20.5156 6.92969,-20.5156 C8.88281,-20.5156 10.349,-19.9609 11.3281,-18.8516 C12.3073,-17.7422 12.8464,-16.6823 12.9453,-15.6719 C13.0443,-14.6615 13.3542,-13.5417 13.875,-12.3125 C14.4583,-11.2708 15.1563,-10.75 15.9688,-10.75 C16.7813,-10.75 17.8724,-11.513 19.2422,-13.0391 C20.612,-14.5651 21.5234,-15.7682 21.9766,-16.6484 C22.4297,-17.5286 22.9818,-17.9531 23.6328,-17.9219 C24.2839,-17.8906 24.7396,-17.5833 25,-17 L12.7031,25 C12.0469,25.6563 11.1328,25.9844 9.96094,25.9844 C8.78906,25.9844 7.88021,25.6563 7.23438,25 L18.9531,-7.625 "/>
<path class="Rest" transform="matrix(1.78583,0,0,1.78583,3660.1,1066.47)" d="M18.9531,-7.625 C14.7865,-6.125 11.401,-5.375 8.79688,-5.375 C6.19271,-5.375 4.02604,-6.10677 2.29688,-7.57031 C0.567708,-9.03385 -0.296875,-10.8568 -0.296875,-13.0391 C-0.296875,-15.2214 0.419271,-17.013 1.85156,-18.4141 C3.28385,-19.8151 4.97656,-20.5156 6.92969,-20.5156 C8.88281,-20.5156 10.349,-19.9609 11.3281,-18.8516 C12.3073,-17.7422 12.8464,-16.6823 12.9453,-15.6719 C13.0443,-14.6615 13.3542,-13.5417 13.875,-12.3125 C14.4583,-11.2708 15.1563,-10.75 15.9688,-10.75 C16.7813,-10.75 17.8724,-11.513 19.2422,-13.0391 C20.612,-14.5651 21.5234,-15.7682 21.9766,-16.6484 C22.4297,-17.5286 22.9818,-17.9531 23.6328,-17.9219 C24.2839,-17.8906 24.7396,-17.5833 25,-17 L12.7031,25 C12.0469,25.6563 11.1328,25.9844 9.96094,25.9844 C8.78906,25.9844 7.88021,25.6563 7.23438,25 L18.9531,-7.625 "/>
<path class="Rest" transform="matrix(1.78583,0,0,1.78583,2361.68,1660.26)" d="M18.9531,-7.625 C14.7865,-6.125 11.401,-5.375 8.79688,-5.375 C6.19271,-5.375 4.02604,-6.10677 2.29688,-7.57031 C0.567708,-9.03385 -0.296875,-10.8568 -0.296875,-13.0391 C-0.296875,-15.2214 0.419271,-17.013 1.85156,-18.4141 C3.28385,-19.8151 4.97656,-20.5156 6.92969,-20.5156 C8.88281,-20.5156 10.349,-19.9609 11.3281,-18.8516 C12.3073,-17.7422 12.8464,-16.6823 12.9453,-15.6719 C13.0443,-14.6615 13.3542,-13.5417 13.875,-12.3125 C14.4583,-11.2708 15.1563,-10.75 15.9688,-10.75 C16.7813,-10.75 17.8724,-11.513 19.2422,-13.0391 C20.612,-14.5651 21.5234,-15.7682 21.9766,-16.6484 C22.4297,-17.5286 22.9818,-17.9531 23.6328,-17.9219 C24.2839,-17.8906 24.7396,-17.5833 25,-17 L12.7031,25 C12.0469,25.6563 11.1328,25.9844 9.96094,25.9844 C8.78906,25.9844 7.88021,25.6563 7.23438,25 L18.9531,-7.625 "/>
<path class="Rest" transform="matrix(1.78583,0,0,1.78583,3556.05,1660.26)" d="M18.9531,-7.625 C14.7865,-6.125 11.401,-5.375 8.79688,-5.375 C6.19271,-5.375 4.02604,-6.10677 2.29688,-7.57031 C0.567708,-9.03385 -0.296875,-10.8568 -0.296875,-13.0391 C-0.296875,-15.2214 0.419271,-17.013 1.85156,-18.4141 C3.28385,-19.8151 4.97656,-20.5156 6.92969,-20.5156 C8.88281,-20.5156 10.349,-19.9609 11.3281,-18.8516 C12.3073,-17.7422 12.8464,-16.6823 12.9453,-15.6719 C13.0443,-14.6615 13.3542,-13.5417 13.875,-12.3125 C14.4583,-11.2708 15.1563,-10.75 15.9688,-10.75 C16.7813,-10.75 17.8724,-11.513 19.2422,-13.0391 C20.612,-14.5651 21.5234,-15.7682 21.9766,-16.6484 C22.4297,-17.5286 22.9818,-17.9531 23.6328,-17.9219 C24.2839,-17.8906 24.7396,-17.5833 25,-17 L12.7031,25 C12.0469,25.6563 11.1328,25.9844 9.96094,25.9844 C8.78906,25.9844 7.88021,25.6563 7.23438,25 L18.9531,-7.625 "/>
<path class="Rest" transform="matrix(1.78583,0,0,1.78583,1600.83,2254.05)" d="M18.9531,-7.625 C14.7865,-6.125 11.401,-5.375 8.79688,-5.375 C6.19271,-5.375 4.02604,-6.10677 2.29688,-7.57031 C0.567708,-9.03385 -0.296875,-10.8568 -0.296875,-13.0391 C-0.296875,-15.2214 0.419271,-17.013 1.85156,-18.4141 C3.28385,-19.8151 4.97656,-20.5156 6.92969,-20.5156 C8.88281,-20.5156 10.349,-19.9609 11.3281,-18.8516 C12.3073,-17.7422 12.8464,-16.6823 12.9453,-15.6719 C13.0443,-14.6615 13.3542,-13.5417 13.875,-12.3125 C14.4583,-11.2708 15.1563,-10.75 15.9688,-10.75 C16.7813,-10.75 17.8724,-11.513 19.2422,-13.0391 C20.612,-14.5651 21.5234,-15.7682 21.9766,-16.6484 C22.4297,-17.5286 22.9818,-17.9531 23.6328,-17.9219 C24.2839,-17.8906 24.7396,-17.5833 25,-17 L12.7031,25 C12.0469,25.6563 11.1328,25.9844 9.96094,25.9844 C8.78906,25.9844 7.88021,25.6563 7.23438,25 L18.9531,-7.625 "/>
<path class="Rest" transform="matrix(1.78583,0,0,1.78583,2720.45,2254.05)" d="M18.9531,-7.625 C14.7865,-6.125 11.401,-5.375 8.79688,-5.375 C6.19271,-5.375 4.02604,-6.10677 2.29688,-7.57031 C0.567708,-9.03385 -0.296875,-10.8568 -0.296875,-13.0391 C-0.296875,-15.2214 0.419271,-17.013 1.85156,-18.4141 C3.28385,-19.8151 4.97656,-20.5156 6.92969,-20.5156 C8.88281,-20.5156 10.349,-19.9609 11.3281,-18.8516 C12.3073,-17.7422 12.8464,-16.6823 12.9453,-15.6719 C13.0443,-14.6615 13.3542,-13.5417 13.875,-12.3125 C14.4583,-11.2708 15.1563,-10.75 15.9688,-10.75 C16.7813,-10.75 17.8724,-11.513 19.2422,-13.0391 C20.612,-14.5651 21.5234,-15.7682 21.9766,-16.6484 C22.4297,-17.5286 22.9818,-17.9531 23.6328,-17.9219 C24.2839,-17.8906 24.7396,-17.5833 25,-17 L12.7031,25 C12.0469,25.6563 11.1328,25.9844 9.96094,25.9844 C8.78906,25.9844 7.88021,25.6563 7.23438,25 L18.9531,-7.625 "/>
<path class="Beam" fill-rule="evenodd" d="M2642.29,361.337 L3098.77,338.726 L3098.77,361.077 L2642.29,383.687 L2642.29,361.337 "/>
<path class="Beam" fill-rule="evenodd" d="M2028.39,1178.08 L2568.84,1178.08 L2568.84,1200.41 L2028.39,1200.41 L2028.39,1178.08 "/>
<path class="Beam" fill-rule="evenodd" d="M585.658,1515.16 L1184.16,1515.16 L1184.16,1537.49 L585.658,1537.49 L585.658,1515.16 "/>
<path class="Beam" fill-rule="evenodd" d="M585.658,2142.72 L1028.98,2120.1 L1028.98,2142.45 L585.658,2165.07 L585.658,2142.72 "/>
<path class="Beam" fill-rule="evenodd" d="M1988.38,2154.01 L2140.02,2142.41 L2140.02,2164.79 L1988.38,2176.4 L1988.38,2154.01 "/>
<path class="Beam" fill-rule="evenodd" d="M3108,2154.01 L3259.64,2142.41 L3259.64,2164.79 L3108,2176.4 L3108,2154.01 "/>
<path class="Hook" transform="matrix(1.78583,0,0,1.78583,1332.86,628.937)" d="M22.75,-72.3594 C24.25,-72.3594 25.8307,-69.9349 27.4922,-65.0859 C29.1536,-60.237 29.9844,-55.7943 29.9844,-51.7578 C29.9844,-47.7214 29.0573,-43.8151 27.2031,-40.0391 C25.349,-36.263 23.1198,-32.9427 20.5156,-30.0781 L12.5,-21.0938 C10.0313,-18.2292 7.85156,-14.9427 5.96094,-11.2344 C4.07031,-7.52604 3.125,-3.78125 3.125,0 L0,0 L0,-25 L3.125,-25 C14.0625,-31.9063 20.9323,-38.026 23.7344,-43.3594 C25.099,-45.9635 25.7813,-48.599 25.7813,-51.2656 C25.7813,-57.4531 23.9896,-63.6094 20.4063,-69.7344 L20.4063,-70.125 C20.4063,-70.7083 20.6354,-71.2266 21.0938,-71.6797 C21.5521,-72.1328 22.1042,-72.3594 22.75,-72.3594"/>
<path class="Hook" transform="matrix(1.78583,0,0,1.78583,2359.35,366.644)" d="M0,25 L0,0 L3.125,0 C3.125,3.70833 3.875,7.5 5.375,11.375 C6.875,15.25 8.4375,18.474 10.0625,21.0469 C11.6875,23.6198 13.7031,26.8594 16.1094,30.7656 C21.3906,39.2969 24.0313,46.8828 24.0313,53.5234 C24.0313,60.1641 22.6302,67 19.8281,74.0313 C19.3073,74.8125 18.7057,75.2031 18.0234,75.2031 C17.3411,75.2031 16.7708,74.974 16.3125,74.5156 C15.8542,74.0573 15.625,73.5365 15.625,72.9531 L15.625,72.4688 C18.4271,66.0208 19.8281,59.6406 19.8281,53.3281 C19.8281,50.0677 18.8359,46.5182 16.8516,42.6797 C14.8672,38.8411 12.8151,35.7005 10.6953,33.2578 C8.57552,30.8151 6.05208,28.0625 3.125,25 L0,25 "/>
<path class="Hook" transform="matrix(1.78583,0,0,1.78583,1766.96,1200.41)" d="M22.75,-72.3594 C24.25,-72.3594 25.8307,-69.9349 27.4922,-65.0859 C29.1536,-60.237 29.9844,-55.7943 29.9844,-51.7578 C29.9844,-47.7214 29.0573,-43.8151 27.2031,-40.0391 C25.349,-36.263 23.1198,-32.9427 20.5156,-30.0781 L12.5,-21.0938 C10.0313,-18.2292 7.85156,-14.9427 5.96094,-11.2344 C4.07031,-7.52604 3.125,-3.78125 3.125,0 L0,0 L0,-25 L3.125,-25 C14.0625,-31.9063 20.9323,-38.026 23.7344,-43.3594 C25.099,-45.9635 25.7813,-48.599 25.7813,-51.2656 C25.7813,-57.4531 23.9896,-63.6094 20.4063,-69.7344 L20.4063,-70.125 C20.4063,-70.7083 20.6354,-71.2266 21.0938,-71.6797 C21.5521,-72.1328 22.1042,-72.3594 22.75,-72.3594"/>
<path class="Hook" transform="matrix(1.78583,0,0,1.78583,4005.64,1222.73)" d="M22.75,-72.3594 C24.25,-72.3594 25.8307,-69.9349 27.4922,-65.0859 C29.1536,-60.237 29.9844,-55.7943 29.9844,-51.7578 C29.9844,-47.7214 29.0573,-43.8151 27.2031,-40.0391 C25.349,-36.263 23.1198,-32.9427 20.5156,-30.0781 L12.5,-21.0938 C10.0313,-18.2292 7.85156,-14.9427 5.96094,-11.2344 C4.07031,-7.52604 3.125,-3.78125 3.125,0 L0,0 L0,-25 L3.125,-25 C14.0625,-31.9063 20.9323,-38.026 23.7344,-43.3594 C25.099,-45.9635 25.7813,-48.599 25.7813,-51.2656 C25.7813,-57.4531 23.9896,-63.6094 20.4063,-69.7344 L20.4063,-70.125 C20.4063,-70.7083 20.6354,-71.2266 21.0938,-71.6797 C21.5521,-72.1328 22.1042,-72.3594 22.75,-72.3594"/>
<path class="Hook" transform="matrix(1.78583,0,0,1.78583,2756.85,1816.52)" d="M22.75,-72.3594 C24.25,-72.3594 25.8307,-69.9349 27.4922,-65.0859 C29.1536,-60.237 29.9844,-55.7943 29.9844,-51.7578 C29.9844,-47.7214 29.0573,-43.8151 27.2031,-40.0391 C25.349,-36.263 23.1198,-32.9427 20.5156,-30.0781 L12.5,-21.0938 C10.0313,-18.2292 7.85156,-14.9427 5.96094,-11.2344 C4.07031,-7.52604 3.125,-3.78125 3.125,0 L0,0 L0,-25 L3.125,-25 C14.0625,-31.9063 20.9323,-38.026 23.7344,-43.3594 C25.099,-45.9635 25.7813,-48.599 25.7813,-51.2656 C25.7813,-57.4531 23.9896,-63.6094 20.4063,-69.7344 L20.4063,-70.125 C20.4063,-70.7083 20.6354,-71.2266 21.0938,-71.6797 C21.5521,-72.1328 22.1042,-72.3594 22.75,-72.3594"/>
<path class="Hook" transform="matrix(1.78583,0,0,1.78583,4023.88,1554.23)" d="M0,25 L0,0 L3.125,0 C3.125,3.70833 3.875,7.5 5.375,11.375 C6.875,15.25 8.4375,18.474 10.0625,21.0469 C11.6875,23.6198 13.7031,26.8594 16.1094,30.7656 C21.3906,39.2969 24.0313,46.8828 24.0313,53.5234 C24.0313,60.1641 22.6302,67 19.8281,74.0313 C19.3073,74.8125 18.7057,75.2031 18.0234,75.2031 C17.3411,75.2031 16.7708,74.974 16.3125,74.5156 C15.8542,74.0573 15.625,73.5365 15.625,72.9531 L15.625,72.4688 C18.4271,66.0208 19.8281,59.6406 19.8281,53.3281 C19.8281,50.0677 18.8359,46.5182 16.8516,42.6797 C14.8672,38.8411 12.8151,35.7005 10.6953,33.2578 C8.57552,30.8151 6.05208,28.0625 3.125,25 L0,25 "/>
<path class="Hook" transform="matrix(1.78583,0,0,1.78583,1799.64,2164.76)" d="M0,25 L0,0 L3.125,0 C3.125,3.70833 3.875,7.5 5.375,11.375 C6.875,15.25 8.4375,18.474 10.0625,21.0469 C11.6875,23.6198 13.7031,26.8594 16.1094,30.7656 C21.3906,39.2969 24.0313,46.8828 24.0313,53.5234 C24.0313,60.1641 22.6302,67 19.8281,74.0313 C19.3073,74.8125 18.7057,75.2031 18.0234,75.2031 C17.3411,75.2031 16.7708,74.974 16.3125,74.5156 C15.8542,74.0573 15.625,73.5365 15.625,72.9531 L15.625,72.4688 C18.4271,66.0208 19.8281,59.6406 19.8281,53.3281 C19.8281,50.0677 18.8359,46.5182 16.8516,42.6797 C14.8672,38.8411 12.8151,35.7005 10.6953,33.2578 C8.57552,30.8151 6.05208,28.0625 3.125,25 L0,25 "/>
<path class="Hook" transform="matrix(1.78583,0,0,1.78583,2919.26,2164.76)" d="M0,25 L0,0 L3.125,0 C3.125,3.70833 3.875,7.5 5.375,11.375 C6.875,15.25 8.4375,18.474 10.0625,21.0469 C11.6875,23.6198 13.7031,26.8594 16.1094,30.7656 C21.3906,39.2969 24.0313,46.8828 24.0313,53.5234 C24.0313,60.1641 22.6302,67 19.8281,74.0313 C19.3073,74.8125 18.7057,75.2031 18.0234,75.2031 C17.3411,75.2031 16.7708,74.974 16.3125,74.5156 C15.8542,74.0573 15.625,73.5365 15.625,72.9531 L15.625,72.4688 C18.4271,66.0208 19.8281,59.6406 19.8281,53.3281 C19.8281,50.0677 18.8359,46.5182 16.8516,42.6797 C14.8672,38.8411 12.8151,35.7005 10.6953,33.2578 C8.57552,30.8151 6.05208,28.0625 3.125,25 L0,25 "/>
<path class="VoltaSegment" d="M3709.1,277.635 C3708.31,277.635 3707.38,277.796 3706.31,278.119 C3705.23,278.442 3704.09,278.833 3702.88,279.291 C3701.67,279.749 3700.97,280.01 3700.77,280.072 L3700.77,277.525 L3726.67,266.854 L3728.5,266.854 L3728.5,322.713 C3728.5,326.505 3729.16,328.971 3730.46,330.111 C3731.77,331.252 3734.64,331.854 3739.08,331.916 L3739.08,334.275 L3700.95,334.275 L3700.95,331.916 C3705.79,331.854 3708.94,331.218 3710.42,330.01 C3711.89,328.801 3712.63,326.171 3712.63,322.119 L3712.63,284.385 C3712.63,279.885 3711.45,277.635 3709.1,277.635 M3755.3,318.979 C3757.5,318.979 3759.38,319.812 3760.94,321.479 C3762.5,323.145 3763.28,325.122 3763.28,327.408 C3763.28,329.695 3762.5,331.624 3760.94,333.197 C3759.38,334.77 3757.47,335.557 3755.2,335.557 C3753.02,335.557 3751.17,334.755 3749.67,333.15 C3748.16,331.546 3747.41,329.567 3747.41,327.213 C3747.41,324.994 3748.19,323.067 3749.76,321.432 C3751.33,319.796 3753.17,318.979 3755.3,318.979"/>
<polyline class="VoltaSegment" fill="none" stroke="#000000" stroke-width="4.46" stroke-linecap="square" stroke-linejoin="bevel" points="3678.07,334.275 3678.07,249.449"/>
<polyline class="VoltaSegment" fill="none" stroke="#000000" stroke-width="4.46" stroke-linecap="square" stroke-linejoin="bevel" points="3678.07,249.449 4116.46,249.449"/>
<polyline class="VoltaSegment" fill="none" stroke="#000000" stroke-width="4.46" stroke-linecap="square" stroke-linejoin="bevel" points="4116.46,249.449 4116.46,334.275"/>
<path class="VoltaSegment" d="M369.568,880.63 C374.536,867.307 381.724,860.645 391.13,860.645 C396.422,860.645 400.768,862.328 404.169,865.692 C407.57,869.057 409.271,873.349 409.271,878.567 C409.271,885.755 405.547,892.88 398.099,899.942 L382.224,915.036 L397.021,915.036 C402.052,915.036 405.286,914.643 406.724,913.856 C408.161,913.07 409.599,910.916 411.036,907.395 L413.38,907.395 L408.974,928.067 L368.208,928.067 L368.208,925.817 C379.375,913.922 386.789,905.148 390.451,899.497 C394.112,893.846 395.943,888.765 395.943,884.255 C395.943,880.922 394.865,878.015 392.708,875.536 C390.552,873.057 387.74,871.817 384.271,871.817 C379.24,871.817 375.255,874.755 372.318,880.63 L369.568,880.63 M427.443,912.77 C429.641,912.77 431.521,913.604 433.083,915.27 C434.646,916.937 435.427,918.914 435.427,921.2 C435.427,923.487 434.646,925.416 433.083,926.989 C431.521,928.562 429.609,929.349 427.349,929.349 C425.161,929.349 423.315,928.547 421.81,926.942 C420.305,925.338 419.552,923.359 419.552,921.005 C419.552,918.786 420.336,916.859 421.904,915.224 C423.471,913.588 425.318,912.77 427.443,912.77"/>
<polyline class="VoltaSegment" fill="none" stroke="#000000" stroke-width="4.46" stroke-linecap="square" stroke-linejoin="bevel" points="345.214,928.067 345.214,843.241"/>
<polyline class="VoltaSegment" fill="none" stroke="#000000" stroke-width="4.46" stroke-linecap="square" stroke-linejoin="bevel" points="345.214,843.241 888.951,843.241"/>
<path class="NoteDot" transform="matrix(1.78583,0,0,1.78583,610.311,1178.08)" d="M1.66406,4.00781 C0.554688,2.89844 0,1.5625 0,0 C0,-1.5625 0.554688,-2.89844 1.66406,-4.00781 C2.77344,-5.11719 4.10938,-5.67188 5.67188,-5.67188 C7.23438,-5.67188 8.56771,-5.11719 9.67188,-4.00781 C10.776,-2.89844 11.3281,-1.5625 11.3281,0 C11.3281,1.5625 10.776,2.89844 9.67188,4.00781 C8.56771,5.11719 7.23438,5.67188 5.67188,5.67188 C4.10938,5.67188 2.77344,5.11719 1.66406,4.00781"/>
</svg>
