<?xml version="1.0" encoding="UTF-8" standalone="no"?>
<svg width="2977.2px" height="4208.4px" viewBox="0 0 2977.2 4208.4"
 xmlns="http://www.w3.org/2000/svg" xmlns:xlink="http://www.w3.org/1999/xlink" version="1.2" baseProfile="tiny">
<title>Saxofone Alto</title>
<desc>Generated by MuseScore 3.6.2</desc>
<polyline class="StaffLines" fill="none" stroke="#000000" stroke-width="2.73" stroke-linejoin="bevel" points="336.599,634.199 2763.78,634.199"/>
<polyline class="StaffLines" fill="none" stroke="#000000" stroke-width="2.73" stroke-linejoin="bevel" points="336.599,658.999 2763.78,658.999"/>
<polyline class="StaffLines" fill="none" stroke="#000000" stroke-width="2.73" stroke-linejoin="bevel" points="336.599,683.799 2763.78,683.799"/>
<polyline class="StaffLines" fill="none" stroke="#000000" stroke-width="2.73" stroke-linejoin="bevel" points="336.599,708.599 2763.78,708.599"/>
<polyline class="StaffLines" fill="none" stroke="#000000" stroke-width="2.73" stroke-linejoin="bevel" points="336.599,733.399 2763.78,733.399"/>
<polyline class="StaffLines" fill="none" stroke="#000000" stroke-width="2.73" stroke-linejoin="bevel" points="212.598,1105.4 2763.78,1105.4"/>
<polyline class="StaffLines" fill="none" stroke="#000000" stroke-width="2.73" stroke-linejoin="bevel" points="212.598,1130.2 2763.78,1130.2"/>
<polyline class="StaffLines" fill="none" stroke="#000000" stroke-width="2.73" stroke-linejoin="bevel" points="212.598,1155 2763.78,1155"/>
<polyline class="StaffLines" fill="none" stroke="#000000" stroke-width="2.73" stroke-linejoin="bevel" points="212.598,1179.8 2763.78,1179.8"/>
<polyline class="StaffLines" fill="none" stroke="#000000" stroke-width="2.73" stroke-linejoin="bevel" points="212.598,1204.6 2763.78,1204.6"/>
<path class="Text" d="M247.256,213.217 L244.666,213.217 L241.866,217.417 C238.506,214.267 234.096,212.587 229.126,212.587 C219.886,212.587 213.796,218.397 213.796,227.217 C213.796,234.847 217.576,238.627 227.866,241.287 L234.516,242.967 C239.696,244.297 240.186,244.437 241.656,245.557 C243.756,247.167 244.876,249.477 244.876,252.207 C244.876,255.007 243.826,257.317 241.726,259.277 C239.416,261.237 237.106,262.007 233.256,262.007 C228.076,262.007 224.366,260.397 221.076,256.757 C218.136,253.537 216.666,250.177 215.616,244.787 L212.606,244.787 L212.886,264.737 L215.616,264.737 L218.766,259.977 C223.456,263.827 227.306,265.227 233.466,265.227 C243.756,265.227 250.336,259.207 250.336,249.827 C250.336,245.417 248.936,241.777 246.136,239.117 C244.246,237.297 241.516,236.107 235.916,234.707 L228.426,232.817 C222.196,231.207 219.256,228.477 219.256,224.207 C219.256,219.307 223.246,215.947 229.196,215.947 C234.096,215.947 238.086,218.047 240.886,222.037 C242.916,224.907 244.246,227.847 245.086,231.417 L248.096,231.417 L247.256,213.217 M284.629,241.637 C284.629,237.227 283.859,234.987 281.829,233.307 C279.519,231.417 276.089,230.507 271.609,230.507 C263.699,230.507 257.959,234.217 257.959,239.327 C257.959,241.917 259.569,243.597 262.019,243.597 C264.259,243.597 265.799,242.127 265.799,240.027 C265.799,239.117 265.449,238.137 264.749,237.157 C264.329,236.667 264.259,236.527 264.259,236.177 C264.259,234.777 267.059,233.517 270.419,233.517 C272.659,233.517 275.109,234.217 276.229,235.267 C277.559,236.387 278.049,238.067 278.049,241.217 L278.049,243.947 C270.769,245.207 268.459,245.767 265.029,247.097 C258.939,249.337 256.069,252.557 256.069,257.037 C256.069,262.077 259.989,265.227 266.219,265.227 C271.049,265.227 275.389,263.267 278.399,259.697 C279.519,263.267 281.269,264.667 284.559,264.667 C287.709,264.667 290.999,262.637 290.999,260.607 C290.999,260.117 290.719,259.767 290.299,259.767 C290.019,259.767 289.739,259.837 289.249,260.047 C288.269,260.467 287.849,260.537 287.289,260.537 C285.329,260.537 284.629,259.277 284.629,255.707 L284.629,241.637 M278.049,250.177 C278.049,254.377 277.839,255.357 276.649,257.177 C274.899,259.767 271.749,261.517 268.669,261.517 C265.449,261.517 263.139,259.207 263.139,256.057 C263.139,253.117 264.609,251.017 267.689,249.547 C269.859,248.567 272.589,247.867 278.049,246.957 L278.049,250.177 M314.994,246.327 L322.974,237.017 C324.724,234.987 326.334,234.077 328.224,234.077 L328.854,234.077 L328.854,231.557 L314.364,231.557 L314.364,234.077 L315.694,234.077 C317.794,234.077 318.844,234.567 318.844,235.617 C318.844,236.317 318.354,237.297 317.444,238.417 L313.034,243.737 L307.644,236.877 C307.224,236.317 306.944,235.757 306.944,235.337 C306.944,234.427 307.854,234.077 310.024,234.077 L311.004,234.077 L311.004,231.557 L294.414,231.557 L294.414,234.077 C297.004,234.287 297.984,234.917 300.224,237.857 L308.764,248.567 L300.714,257.947 C298.334,260.607 296.304,261.727 294.414,261.657 L293.994,261.657 L293.994,264.177 L308.764,264.177 L308.764,261.657 L307.714,261.657 C306.104,261.657 305.754,261.587 305.264,261.377 C304.704,261.027 304.284,260.397 304.284,259.767 C304.284,259.277 304.494,258.647 304.844,258.227 L310.724,251.227 L316.044,258.297 C316.534,258.997 316.954,259.907 316.954,260.397 C316.954,261.307 315.904,261.657 313.244,261.657 L312.754,261.657 L312.754,264.177 L330.394,264.177 L330.394,261.657 L329.904,261.657 C327.454,261.657 325.844,260.747 323.814,258.227 L314.994,246.327 M346.77,230.507 C338.16,230.507 331.51,238.137 331.51,247.937 C331.51,257.527 338.23,265.227 346.63,265.227 C355.03,265.227 361.75,257.527 361.75,247.867 C361.75,238.277 355.03,230.507 346.77,230.507 M346.77,233.517 C351.67,233.517 354.4,238.627 354.4,247.867 C354.4,257.177 351.67,262.217 346.63,262.217 C341.59,262.217 338.86,257.177 338.86,247.937 C338.86,238.417 341.52,233.517 346.77,233.517 M378.2,231.557 L378.2,227.567 C378.2,224.067 378.41,221.757 378.97,220.357 C380.09,217.277 382.54,215.387 385.34,215.387 C386.81,215.387 387.72,215.807 387.72,216.577 C387.72,216.857 387.72,216.927 387.3,217.487 C386.88,218.117 386.67,218.957 386.67,219.727 C386.67,221.827 388.35,223.437 390.52,223.437 C392.83,223.437 394.44,221.687 394.44,219.167 C394.44,215.107 390.94,212.587 385.27,212.587 C380.44,212.587 376.87,214.267 374.42,217.767 C372.32,220.707 371.62,223.717 371.62,229.387 L371.62,231.557 L365.46,231.557 L365.46,234.567 L371.62,234.567 L371.62,255.567 L371.62,257.247 L371.62,258.857 C371.55,259.837 371.48,260.257 371.2,260.677 C370.71,261.307 369.38,261.587 366.37,261.657 L366.09,261.657 L366.09,264.177 L384.78,264.177 L384.78,261.657 L383.52,261.657 C378.83,261.517 378.2,261.167 378.2,258.647 L378.2,255.567 L378.2,234.567 L385.9,234.567 L385.9,231.557 L378.2,231.557 M403.254,230.507 C394.644,230.507 387.994,238.137 387.994,247.937 C387.994,257.527 394.714,265.227 403.114,265.227 C411.514,265.227 418.234,257.527 418.234,247.867 C418.234,238.277 411.514,230.507 403.254,230.507 M403.254,233.517 C408.154,233.517 410.884,238.627 410.884,247.867 C410.884,257.177 408.154,262.217 403.114,262.217 C398.074,262.217 395.344,257.177 395.344,247.937 C395.344,238.417 398.004,233.517 403.254,233.517 M434.614,231.557 L422.504,232.327 L422.504,235.337 L425.024,235.337 C427.684,235.407 428.034,235.827 428.034,238.837 L428.034,255.567 L428.034,257.247 L428.034,258.857 C427.964,259.907 427.894,260.327 427.614,260.677 C427.124,261.307 425.794,261.587 422.784,261.657 L422.504,261.657 L422.504,264.177 L440.214,264.177 L440.214,261.657 L439.934,261.657 C435.244,261.517 434.614,261.167 434.614,258.647 L434.614,255.567 L434.614,248.287 C434.614,244.857 435.104,241.707 435.874,240.097 C437.344,236.947 440.494,234.777 443.504,234.777 C445.324,234.777 447.424,235.757 448.474,237.227 C449.524,238.767 450.014,240.867 450.014,244.227 L450.014,255.567 L450.014,258.857 C449.944,259.907 449.874,260.327 449.594,260.677 C449.104,261.307 447.704,261.587 444.694,261.657 L444.414,261.657 L444.414,264.177 L462.124,264.177 L462.124,261.657 L461.844,261.657 C457.224,261.517 456.594,261.167 456.594,258.647 L456.594,255.567 L456.594,244.577 C456.594,239.537 456.384,238.277 455.124,235.897 C453.374,232.537 449.874,230.507 445.674,230.507 C441.124,230.507 437.694,232.607 434.614,237.227 L434.614,231.557 M495.93,248.427 C496,237.927 490.05,230.507 481.51,230.507 C472.55,230.507 465.83,238.277 465.83,248.777 C465.83,258.647 472.2,265.227 481.65,265.227 C488.37,265.227 493.06,261.937 495.93,255.287 L493.48,253.957 C490.61,259.347 487.67,261.447 482.98,261.447 C479.41,261.447 476.82,259.977 475,256.827 C473.74,254.727 473.18,252.277 473.25,248.427 L495.93,248.427 M473.32,245.417 C473.32,243.247 473.6,241.707 474.3,239.747 C475.77,235.547 478.01,233.517 481.44,233.517 C485.64,233.517 488.44,237.227 488.44,242.897 C488.44,244.857 487.81,245.417 485.57,245.417 L473.32,245.417 M544.293,212.657 L541.353,212.657 L525.253,253.467 C523.363,258.927 521.543,260.607 517.553,260.887 L517.273,260.887 L517.273,264.177 L535.823,264.177 L535.823,260.887 L534.423,260.887 C530.643,260.887 528.753,259.557 528.753,256.897 C528.753,255.987 528.963,255.147 529.383,253.957 L531.693,247.797 L550.243,247.797 L554.023,257.177 C554.443,258.297 554.583,258.717 554.583,259.067 C554.583,260.187 552.833,260.887 550.243,260.887 L547.303,260.887 L547.303,264.177 L569.003,264.177 L569.003,260.887 L568.023,260.887 C564.383,260.817 563.753,260.397 562.143,256.407 L544.293,212.657 M540.863,224.137 L548.773,244.017 L533.093,244.017 L540.863,224.137 M582.644,212.587 L569.694,213.357 L569.694,216.367 L573.124,216.367 C575.714,216.437 576.064,216.857 576.064,219.867 L576.064,255.567 L576.064,258.857 C575.994,259.907 575.924,260.327 575.644,260.677 C575.154,261.307 573.824,261.587 570.814,261.657 L570.324,261.657 L570.324,264.177 L588.454,264.177 L588.454,261.657 L587.964,261.657 C583.274,261.517 582.644,261.167 582.644,258.647 L582.644,255.567 L582.644,212.587 M603.991,231.557 L603.991,217.697 L601.121,217.697 C600.421,226.797 597.341,231.417 591.671,231.837 L591.671,234.567 L597.411,234.567 L597.411,252.417 C597.411,257.317 597.551,259.067 598.251,260.677 C599.371,263.617 602.171,265.227 606.231,265.227 C612.531,265.227 616.591,260.467 616.591,253.047 C616.591,252.627 616.591,252.137 616.521,251.437 L613.581,251.437 C613.371,257.737 611.551,260.957 608.121,260.957 C606.511,260.957 605.111,260.117 604.621,258.927 C604.201,257.947 603.991,256.197 603.991,253.677 L603.991,234.567 L614.281,234.567 L614.281,231.557 L603.991,231.557 M635.692,230.507 C627.082,230.507 620.432,238.137 620.432,247.937 C620.432,257.527 627.152,265.227 635.552,265.227 C643.952,265.227 650.672,257.527 650.672,247.867 C650.672,238.277 643.952,230.507 635.692,230.507 M635.692,233.517 C640.592,233.517 643.322,238.627 643.322,247.867 C643.322,257.177 640.592,262.217 635.552,262.217 C630.512,262.217 627.782,257.177 627.782,247.937 C627.782,238.417 630.442,233.517 635.692,233.517"/>
<path class="MeasureNumber" d="M232.288,1027.64 C230.168,1027.88 227.568,1028.04 225.328,1028.04 C224.208,1028.04 222.928,1028 221.488,1027.92 C220.168,1027.84 218.848,1027.76 217.488,1027.68 L216.488,1027.64 L212.608,1036.08 L214.088,1036.56 L215.048,1034.96 C216.928,1031.84 217.808,1031.4 221.888,1031.44 L228.648,1031.44 L224.288,1037.68 C219.168,1044.88 219.168,1044.88 217.208,1048.08 C215.448,1050.92 214.728,1052.68 214.728,1054.12 C214.728,1055.52 215.608,1056.4 217.008,1056.4 C218.488,1056.4 219.248,1055.68 219.768,1053.8 C221.768,1046.28 222.968,1043.68 228.528,1034.68 L232.288,1028.84 L232.288,1027.64 "/>
<path class="TieSegment" stroke="#000000" stroke-width="1.74" stroke-linecap="round" stroke-linejoin="round" fill-rule="evenodd" d="M871.656,677.599 C899.404,653.038 982.649,653.038 1010.4,677.599 C982.649,659.982 899.404,659.982 871.656,677.599"/>
<path class="TieSegment" stroke="#000000" stroke-width="1.74" stroke-linecap="round" stroke-linejoin="round" fill-rule="evenodd" d="M1020.07,677.599 C1036.5,661.636 1085.81,661.636 1102.25,677.599 C1085.81,668.58 1036.5,668.58 1020.07,677.599"/>
<path class="TieSegment" stroke="#000000" stroke-width="1.74" stroke-linecap="round" stroke-linejoin="round" fill-rule="evenodd" d="M1800.96,789.199 C1815.33,796.649 1858.44,796.649 1872.81,789.199 C1858.44,803.593 1815.33,803.593 1800.96,789.199"/>
<polyline class="BarLine" stroke="#000000" stroke-width="13.64" stroke-linejoin="bevel" points="926.957,632.835 926.957,734.763"/>
<polyline class="BarLine" stroke="#000000" stroke-width="4.46" stroke-linejoin="bevel" points="944.317,632.835 944.317,734.763"/>
<path class="BarLine" transform="matrix(0.992001,0,0,0.992001,956.515,671.399)" d="M10.4,0 C10.4,-2.9 8.1,-5.3 5.2,-5.3 C2.3,-5.3 0,-2.9 0,0 C0,2.9 2.3,5.3 5.2,5.3 C8.1,5.3 10.4,2.9 10.4,0"/>
<path class="BarLine" transform="matrix(0.992001,0,0,0.992001,956.515,696.199)" d="M10.4,0 C10.4,-2.9 8.1,-5.3 5.2,-5.3 C2.3,-5.3 0,-2.9 0,0 C0,2.9 2.3,5.3 5.2,5.3 C8.1,5.3 10.4,2.9 10.4,0"/>
<polyline class="BarLine" stroke="#000000" stroke-width="4.46" stroke-linejoin="bevel" points="1327.82,632.835 1327.82,734.763"/>
<polyline class="BarLine" stroke="#000000" stroke-width="4.46" stroke-linejoin="bevel" points="1611.55,632.835 1611.55,734.763"/>
<polyline class="BarLine" stroke="#000000" stroke-width="4.46" stroke-linejoin="bevel" points="2137.92,632.835 2137.92,734.763"/>
<path class="BarLine" transform="matrix(0.992001,0,0,0.992001,2459.11,671.399)" d="M10.4,0 C10.4,-2.9 8.1,-5.3 5.2,-5.3 C2.3,-5.3 0,-2.9 0,0 C0,2.9 2.3,5.3 5.2,5.3 C8.1,5.3 10.4,2.9 10.4,0"/>
<path class="BarLine" transform="matrix(0.992001,0,0,0.992001,2459.11,696.199)" d="M10.4,0 C10.4,-2.9 8.1,-5.3 5.2,-5.3 C2.3,-5.3 0,-2.9 0,0 C0,2.9 2.3,5.3 5.2,5.3 C8.1,5.3 10.4,2.9 10.4,0"/>
<polyline class="BarLine" stroke="#000000" stroke-width="4.46" stroke-linejoin="bevel" points="2481.63,632.835 2481.63,734.763"/>
<polyline class="BarLine" stroke="#000000" stroke-width="13.64" stroke-linejoin="bevel" points="2498.99,632.835 2498.99,734.763"/>
<polyline class="BarLine" stroke="#000000" stroke-width="4.46" stroke-linejoin="bevel" points="2703.45,632.835 2703.45,734.763"/>
<polyline class="BarLine" stroke="#000000" stroke-width="4.46" stroke-linejoin="bevel" points="1032.9,1104.04 1032.9,1205.96"/>
<polyline class="BarLine" stroke="#000000" stroke-width="4.46" stroke-linejoin="bevel" points="1590.86,1104.04 1590.86,1205.96"/>
<polyline class="BarLine" stroke="#000000" stroke-width="4.46" stroke-linejoin="bevel" points="2148.82,1104.04 2148.82,1205.96"/>
<path class="BarLine" transform="matrix(0.992001,0,0,0.992001,2717.04,1142.6)" d="M10.4,0 C10.4,-2.9 8.1,-5.3 5.2,-5.3 C2.3,-5.3 0,-2.9 0,0 C0,2.9 2.3,5.3 5.2,5.3 C8.1,5.3 10.4,2.9 10.4,0"/>
<path class="BarLine" transform="matrix(0.992001,0,0,0.992001,2717.04,1167.4)" d="M10.4,0 C10.4,-2.9 8.1,-5.3 5.2,-5.3 C2.3,-5.3 0,-2.9 0,0 C0,2.9 2.3,5.3 5.2,5.3 C8.1,5.3 10.4,2.9 10.4,0"/>
<polyline class="BarLine" stroke="#000000" stroke-width="4.46" stroke-linejoin="bevel" points="2739.56,1104.04 2739.56,1205.96"/>
<polyline class="BarLine" stroke="#000000" stroke-width="13.64" stroke-linejoin="bevel" points="2756.92,1104.04 2756.92,1205.96"/>
<path class="Accidental" transform="matrix(0.992001,0,0,0.992001,790.355,708.599)" d="M16.6,-18.3 C16.4,-18.5 16.1,-18.6 15.8,-18.6 C15.7,-18.6 15.5,-18.5 15.4,-18.5 L2.8,-15 L2.8,-32.5 L0,-32.5 L0,17 C0,17.8 0.6,18.3 1.4,18.3 L1.8,18.3 L14.4,14.8 L14.4,32.3 L17.1,32.3 L17.1,-17.2 C17.1,-17.6 16.9,-18.1 16.6,-18.3 M14.4,6.5 L2.8,9.7 L2.8,-6.7 L14.4,-10 L14.4,6.5 "/>
<path class="Accidental" transform="matrix(0.992001,0,0,0.992001,1351.63,745.799)" d="M16.6,-18.3 C16.4,-18.5 16.1,-18.6 15.8,-18.6 C15.7,-18.6 15.5,-18.5 15.4,-18.5 L2.8,-15 L2.8,-32.5 L0,-32.5 L0,17 C0,17.8 0.6,18.3 1.4,18.3 L1.8,18.3 L14.4,14.8 L14.4,32.3 L17.1,32.3 L17.1,-17.2 C17.1,-17.6 16.9,-18.1 16.6,-18.3 M14.4,6.5 L2.8,9.7 L2.8,-6.7 L14.4,-10 L14.4,6.5 "/>
<path class="Accidental" transform="matrix(0.992001,0,0,0.992001,1710.98,745.799)" d="M16.6,-18.3 C16.4,-18.5 16.1,-18.6 15.8,-18.6 C15.7,-18.6 15.5,-18.5 15.4,-18.5 L2.8,-15 L2.8,-32.5 L0,-32.5 L0,17 C0,17.8 0.6,18.3 1.4,18.3 L1.8,18.3 L14.4,14.8 L14.4,32.3 L17.1,32.3 L17.1,-17.2 C17.1,-17.6 16.9,-18.1 16.6,-18.3 M14.4,6.5 L2.8,9.7 L2.8,-6.7 L14.4,-10 L14.4,6.5 "/>
<path class="Accidental" transform="matrix(0.992001,0,0,0.992001,2329.33,708.599)" d="M16.6,-18.3 C16.4,-18.5 16.1,-18.6 15.8,-18.6 C15.7,-18.6 15.5,-18.5 15.4,-18.5 L2.8,-15 L2.8,-32.5 L0,-32.5 L0,17 C0,17.8 0.6,18.3 1.4,18.3 L1.8,18.3 L14.4,14.8 L14.4,32.3 L17.1,32.3 L17.1,-17.2 C17.1,-17.6 16.9,-18.1 16.6,-18.3 M14.4,6.5 L2.8,9.7 L2.8,-6.7 L14.4,-10 L14.4,6.5 "/>
<path class="Accidental" transform="matrix(0.992001,0,0,0.992001,2172.63,1217)" d="M16.6,-18.3 C16.4,-18.5 16.1,-18.6 15.8,-18.6 C15.7,-18.6 15.5,-18.5 15.4,-18.5 L2.8,-15 L2.8,-32.5 L0,-32.5 L0,17 C0,17.8 0.6,18.3 1.4,18.3 L1.8,18.3 L14.4,14.8 L14.4,32.3 L17.1,32.3 L17.1,-17.2 C17.1,-17.6 16.9,-18.1 16.6,-18.3 M14.4,6.5 L2.8,9.7 L2.8,-6.7 L14.4,-10 L14.4,6.5 "/>
<polyline class="LedgerLine" stroke="#000000" stroke-width="3.97" stroke-linejoin="bevel" points="1771.33,758.199 1820.92,758.199"/>
<polyline class="LedgerLine" stroke="#000000" stroke-width="3.97" stroke-linejoin="bevel" points="1852.85,758.199 1902.45,758.199"/>
<polyline class="LedgerLine" stroke="#000000" stroke-width="3.97" stroke-linejoin="bevel" points="1947.38,758.199 1996.98,758.199"/>
<polyline class="Stem" stroke="#000000" stroke-width="2.73" stroke-linejoin="bevel" points="749.071,724.332 749.071,801.599"/>
<polyline class="Stem" stroke="#000000" stroke-width="2.73" stroke-linejoin="bevel" points="814.876,711.932 814.876,785.754"/>
<polyline class="Stem" stroke="#000000" stroke-width="2.73" stroke-linejoin="bevel" points="852.069,699.532 852.069,776.799"/>
<polyline class="Stem" stroke="#000000" stroke-width="2.73" stroke-linejoin="bevel" points="1000.48,699.532 1000.48,770.599"/>
<polyline class="Stem" stroke="#000000" stroke-width="2.73" stroke-linejoin="bevel" points="1092.33,699.532 1092.33,782.999"/>
<polyline class="Stem" stroke="#000000" stroke-width="2.73" stroke-linejoin="bevel" points="1156.33,724.332 1156.33,801.599"/>
<polyline class="Stem" stroke="#000000" stroke-width="2.73" stroke-linejoin="bevel" points="1223.03,730.225 1223.03,640.399"/>
<polyline class="Stem" stroke="#000000" stroke-width="2.73" stroke-linejoin="bevel" points="1287.03,717.825 1287.03,634.199"/>
<polyline class="Stem" stroke="#000000" stroke-width="2.73" stroke-linejoin="bevel" points="1405.66,742.625 1405.66,658.999"/>
<polyline class="Stem" stroke="#000000" stroke-width="2.73" stroke-linejoin="bevel" points="1478.11,724.332 1478.11,801.599"/>
<polyline class="Stem" stroke="#000000" stroke-width="2.73" stroke-linejoin="bevel" points="1541.25,724.332 1541.25,801.599"/>
<polyline class="Stem" stroke="#000000" stroke-width="2.73" stroke-linejoin="bevel" points="1676.89,730.225 1676.89,658.999"/>
<polyline class="Stem" stroke="#000000" stroke-width="2.73" stroke-linejoin="bevel" points="1765,742.625 1765,665.199"/>
<polyline class="Stem" stroke="#000000" stroke-width="2.73" stroke-linejoin="bevel" points="1810.88,767.425 1810.88,683.799"/>
<polyline class="Stem" stroke="#000000" stroke-width="2.73" stroke-linejoin="bevel" points="1892.4,767.425 1892.4,683.799"/>
<polyline class="Stem" stroke="#000000" stroke-width="2.73" stroke-linejoin="bevel" points="1986.93,767.425 1986.93,683.799"/>
<polyline class="Stem" stroke="#000000" stroke-width="2.73" stroke-linejoin="bevel" points="2068.46,717.825 2068.46,634.199"/>
<polyline class="Stem" stroke="#000000" stroke-width="2.73" stroke-linejoin="bevel" points="2203.26,730.225 2203.26,646.599"/>
<polyline class="Stem" stroke="#000000" stroke-width="2.73" stroke-linejoin="bevel" points="2288.05,724.332 2288.05,801.599"/>
<polyline class="Stem" stroke="#000000" stroke-width="2.73" stroke-linejoin="bevel" points="2353.85,711.932 2353.85,785.754"/>
<polyline class="Stem" stroke="#000000" stroke-width="2.73" stroke-linejoin="bevel" points="2391.04,699.532 2391.04,776.799"/>
<polyline class="Stem" stroke="#000000" stroke-width="2.73" stroke-linejoin="bevel" points="2568.96,730.225 2568.96,646.599"/>
<polyline class="Stem" stroke="#000000" stroke-width="2.73" stroke-linejoin="bevel" points="537.556,1170.73 537.556,1241.8"/>
<polyline class="Stem" stroke="#000000" stroke-width="2.73" stroke-linejoin="bevel" points="646.913,1170.73 646.913,1241.8"/>
<polyline class="Stem" stroke="#000000" stroke-width="2.73" stroke-linejoin="bevel" points="756.269,1170.73 756.269,1241.8"/>
<polyline class="Stem" stroke="#000000" stroke-width="2.73" stroke-linejoin="bevel" points="865.626,1170.73 865.626,1254.2"/>
<polyline class="Stem" stroke="#000000" stroke-width="2.73" stroke-linejoin="bevel" points="962.604,1158.33 962.604,1248"/>
<polyline class="Stem" stroke="#000000" stroke-width="2.73" stroke-linejoin="bevel" points="1098.24,1201.43 1098.24,1130.2"/>
<polyline class="Stem" stroke="#000000" stroke-width="2.73" stroke-linejoin="bevel" points="1215.11,1201.43 1215.11,1130.2"/>
<polyline class="Stem" stroke="#000000" stroke-width="2.73" stroke-linejoin="bevel" points="1275.01,1201.43 1275.01,1130.2"/>
<polyline class="Stem" stroke="#000000" stroke-width="2.73" stroke-linejoin="bevel" points="1391.88,1201.43 1391.88,1130.2"/>
<polyline class="Stem" stroke="#000000" stroke-width="2.73" stroke-linejoin="bevel" points="1451.78,1201.43 1451.78,1117.8"/>
<polyline class="Stem" stroke="#000000" stroke-width="2.73" stroke-linejoin="bevel" points="1656.2,1201.43 1656.2,1130.2"/>
<polyline class="Stem" stroke="#000000" stroke-width="2.73" stroke-linejoin="bevel" points="1773.07,1201.43 1773.07,1130.2"/>
<polyline class="Stem" stroke="#000000" stroke-width="2.73" stroke-linejoin="bevel" points="1832.97,1201.43 1832.97,1130.2"/>
<polyline class="Stem" stroke="#000000" stroke-width="2.73" stroke-linejoin="bevel" points="1949.83,1201.43 1949.83,1130.2"/>
<polyline class="Stem" stroke="#000000" stroke-width="2.73" stroke-linejoin="bevel" points="2009.73,1201.43 2009.73,1117.8"/>
<polyline class="Stem" stroke="#000000" stroke-width="2.73" stroke-linejoin="bevel" points="2226.65,1213.83 2226.65,1136.4"/>
<polyline class="Stem" stroke="#000000" stroke-width="2.73" stroke-linejoin="bevel" points="2343.52,1213.83 2343.52,1136.4"/>
<polyline class="Stem" stroke="#000000" stroke-width="2.73" stroke-linejoin="bevel" points="2403.42,1213.83 2403.42,1136.4"/>
<polyline class="Stem" stroke="#000000" stroke-width="2.73" stroke-linejoin="bevel" points="2520.29,1213.83 2520.29,1136.4"/>
<polyline class="Stem" stroke="#000000" stroke-width="2.73" stroke-linejoin="bevel" points="2580.19,1213.83 2580.19,1130.2"/>
<path class="Note" transform="matrix(0.992001,0,0,0.992001,747.707,720.999)" d="M31.5,-8.1 C29.7,-11.4 25.9,-13.2 21.3,-13.2 C17.9,-13.2 14.2,-12.2 10.6,-10.3 C4,-6.8 0,-0.9 0,4.2 C0,5.6 0.3,7 1,8.3 C2.8,11.6 6.6,13.3 11.2,13.3 C14.6,13.3 18.3,12.4 21.9,10.5 C28.5,7 32.5,1.1 32.5,-4 C32.5,-5.4 32.2,-6.8 31.5,-8.1"/>
<path class="Note" transform="matrix(0.992001,0,0,0.992001,813.512,708.599)" d="M31.5,-8.1 C29.7,-11.4 25.9,-13.2 21.3,-13.2 C17.9,-13.2 14.2,-12.2 10.6,-10.3 C4,-6.8 0,-0.9 0,4.2 C0,5.6 0.3,7 1,8.3 C2.8,11.6 6.6,13.3 11.2,13.3 C14.6,13.3 18.3,12.4 21.9,10.5 C28.5,7 32.5,1.1 32.5,-4 C32.5,-5.4 32.2,-6.8 31.5,-8.1"/>
<path class="Note" transform="matrix(0.992001,0,0,0.992001,850.705,696.199)" d="M31.5,-8.1 C29.7,-11.4 25.9,-13.2 21.3,-13.2 C17.9,-13.2 14.2,-12.2 10.6,-10.3 C4,-6.8 0,-0.9 0,4.2 C0,5.6 0.3,7 1,8.3 C2.8,11.6 6.6,13.3 11.2,13.3 C14.6,13.3 18.3,12.4 21.9,10.5 C28.5,7 32.5,1.1 32.5,-4 C32.5,-5.4 32.2,-6.8 31.5,-8.1"/>
<path class="Note" transform="matrix(0.992001,0,0,0.992001,999.116,696.199)" d="M31.5,-8.1 C29.7,-11.4 25.9,-13.2 21.3,-13.2 C17.9,-13.2 14.2,-12.2 10.6,-10.3 C4,-6.8 0,-0.9 0,4.2 C0,5.6 0.3,7 1,8.3 C2.8,11.6 6.6,13.3 11.2,13.3 C14.6,13.3 18.3,12.4 21.9,10.5 C28.5,7 32.5,1.1 32.5,-4 C32.5,-5.4 32.2,-6.8 31.5,-8.1 M27.2,-1.3 C25.5,0.4 22.1,2.5 18.5,4.5 C14.9,6.5 11.3,8 8.9,8.5 C8.4,8.6 7.9,8.7 7.4,8.7 C5.8,8.7 4.6,8.1 3.9,6.8 C3.6,6.3 3.4,5.7 3.4,5.1 C3.4,4 4.1,2.7 5.2,1.6 C6.9,-0.1 10.2,-2.2 13.8,-4.2 C17.4,-6.2 21,-7.7 23.4,-8.2 C23.9,-8.3 24.4,-8.4 24.9,-8.4 C26.5,-8.4 27.8,-7.8 28.5,-6.5 C28.8,-6 28.9,-5.4 28.9,-4.8 C28.9,-3.7 28.3,-2.5 27.2,-1.3"/>
<path class="Note" transform="matrix(0.992001,0,0,0.992001,1090.97,696.199)" d="M31.5,-8.1 C29.7,-11.4 25.9,-13.2 21.3,-13.2 C17.9,-13.2 14.2,-12.2 10.6,-10.3 C4,-6.8 0,-0.9 0,4.2 C0,5.6 0.3,7 1,8.3 C2.8,11.6 6.6,13.3 11.2,13.3 C14.6,13.3 18.3,12.4 21.9,10.5 C28.5,7 32.5,1.1 32.5,-4 C32.5,-5.4 32.2,-6.8 31.5,-8.1"/>
<path class="Note" transform="matrix(0.992001,0,0,0.992001,1154.97,720.999)" d="M31.5,-8.1 C29.7,-11.4 25.9,-13.2 21.3,-13.2 C17.9,-13.2 14.2,-12.2 10.6,-10.3 C4,-6.8 0,-0.9 0,4.2 C0,5.6 0.3,7 1,8.3 C2.8,11.6 6.6,13.3 11.2,13.3 C14.6,13.3 18.3,12.4 21.9,10.5 C28.5,7 32.5,1.1 32.5,-4 C32.5,-5.4 32.2,-6.8 31.5,-8.1"/>
<path class="Note" transform="matrix(0.992001,0,0,0.992001,1192.16,733.399)" d="M31.5,-8.1 C29.7,-11.4 25.9,-13.2 21.3,-13.2 C17.9,-13.2 14.2,-12.2 10.6,-10.3 C4,-6.8 0,-0.9 0,4.2 C0,5.6 0.3,7 1,8.3 C2.8,11.6 6.6,13.3 11.2,13.3 C14.6,13.3 18.3,12.4 21.9,10.5 C28.5,7 32.5,1.1 32.5,-4 C32.5,-5.4 32.2,-6.8 31.5,-8.1"/>
<path class="Note" transform="matrix(0.992001,0,0,0.992001,1256.16,720.999)" d="M31.5,-8.1 C29.7,-11.4 25.9,-13.2 21.3,-13.2 C17.9,-13.2 14.2,-12.2 10.6,-10.3 C4,-6.8 0,-0.9 0,4.2 C0,5.6 0.3,7 1,8.3 C2.8,11.6 6.6,13.3 11.2,13.3 C14.6,13.3 18.3,12.4 21.9,10.5 C28.5,7 32.5,1.1 32.5,-4 C32.5,-5.4 32.2,-6.8 31.5,-8.1"/>
<path class="Note" transform="matrix(0.992001,0,0,0.992001,1374.79,745.799)" d="M31.5,-8.1 C29.7,-11.4 25.9,-13.2 21.3,-13.2 C17.9,-13.2 14.2,-12.2 10.6,-10.3 C4,-6.8 0,-0.9 0,4.2 C0,5.6 0.3,7 1,8.3 C2.8,11.6 6.6,13.3 11.2,13.3 C14.6,13.3 18.3,12.4 21.9,10.5 C28.5,7 32.5,1.1 32.5,-4 C32.5,-5.4 32.2,-6.8 31.5,-8.1 M27.2,-1.3 C25.5,0.4 22.1,2.5 18.5,4.5 C14.9,6.5 11.3,8 8.9,8.5 C8.4,8.6 7.9,8.7 7.4,8.7 C5.8,8.7 4.6,8.1 3.9,6.8 C3.6,6.3 3.4,5.7 3.4,5.1 C3.4,4 4.1,2.7 5.2,1.6 C6.9,-0.1 10.2,-2.2 13.8,-4.2 C17.4,-6.2 21,-7.7 23.4,-8.2 C23.9,-8.3 24.4,-8.4 24.9,-8.4 C26.5,-8.4 27.8,-7.8 28.5,-6.5 C28.8,-6 28.9,-5.4 28.9,-4.8 C28.9,-3.7 28.3,-2.5 27.2,-1.3"/>
<path class="Note" transform="matrix(0.992001,0,0,0.992001,1476.75,720.999)" d="M31.5,-8.1 C29.7,-11.4 25.9,-13.2 21.3,-13.2 C17.9,-13.2 14.2,-12.2 10.6,-10.3 C4,-6.8 0,-0.9 0,4.2 C0,5.6 0.3,7 1,8.3 C2.8,11.6 6.6,13.3 11.2,13.3 C14.6,13.3 18.3,12.4 21.9,10.5 C28.5,7 32.5,1.1 32.5,-4 C32.5,-5.4 32.2,-6.8 31.5,-8.1"/>
<path class="Note" transform="matrix(0.992001,0,0,0.992001,1539.88,720.999)" d="M31.5,-8.1 C29.7,-11.4 25.9,-13.2 21.3,-13.2 C17.9,-13.2 14.2,-12.2 10.6,-10.3 C4,-6.8 0,-0.9 0,4.2 C0,5.6 0.3,7 1,8.3 C2.8,11.6 6.6,13.3 11.2,13.3 C14.6,13.3 18.3,12.4 21.9,10.5 C28.5,7 32.5,1.1 32.5,-4 C32.5,-5.4 32.2,-6.8 31.5,-8.1"/>
<path class="Note" transform="matrix(0.992001,0,0,0.992001,1646.02,733.399)" d="M31.5,-8.1 C29.7,-11.4 25.9,-13.2 21.3,-13.2 C17.9,-13.2 14.2,-12.2 10.6,-10.3 C4,-6.8 0,-0.9 0,4.2 C0,5.6 0.3,7 1,8.3 C2.8,11.6 6.6,13.3 11.2,13.3 C14.6,13.3 18.3,12.4 21.9,10.5 C28.5,7 32.5,1.1 32.5,-4 C32.5,-5.4 32.2,-6.8 31.5,-8.1"/>
<path class="Note" transform="matrix(0.992001,0,0,0.992001,1734.14,745.799)" d="M31.5,-8.1 C29.7,-11.4 25.9,-13.2 21.3,-13.2 C17.9,-13.2 14.2,-12.2 10.6,-10.3 C4,-6.8 0,-0.9 0,4.2 C0,5.6 0.3,7 1,8.3 C2.8,11.6 6.6,13.3 11.2,13.3 C14.6,13.3 18.3,12.4 21.9,10.5 C28.5,7 32.5,1.1 32.5,-4 C32.5,-5.4 32.2,-6.8 31.5,-8.1"/>
<path class="Note" transform="matrix(0.992001,0,0,0.992001,1780.01,770.599)" d="M31.5,-8.1 C29.7,-11.4 25.9,-13.2 21.3,-13.2 C17.9,-13.2 14.2,-12.2 10.6,-10.3 C4,-6.8 0,-0.9 0,4.2 C0,5.6 0.3,7 1,8.3 C2.8,11.6 6.6,13.3 11.2,13.3 C14.6,13.3 18.3,12.4 21.9,10.5 C28.5,7 32.5,1.1 32.5,-4 C32.5,-5.4 32.2,-6.8 31.5,-8.1"/>
<path class="Note" transform="matrix(0.992001,0,0,0.992001,1861.53,770.599)" d="M31.5,-8.1 C29.7,-11.4 25.9,-13.2 21.3,-13.2 C17.9,-13.2 14.2,-12.2 10.6,-10.3 C4,-6.8 0,-0.9 0,4.2 C0,5.6 0.3,7 1,8.3 C2.8,11.6 6.6,13.3 11.2,13.3 C14.6,13.3 18.3,12.4 21.9,10.5 C28.5,7 32.5,1.1 32.5,-4 C32.5,-5.4 32.2,-6.8 31.5,-8.1"/>
<path class="Note" transform="matrix(0.992001,0,0,0.992001,1956.06,770.599)" d="M31.5,-8.1 C29.7,-11.4 25.9,-13.2 21.3,-13.2 C17.9,-13.2 14.2,-12.2 10.6,-10.3 C4,-6.8 0,-0.9 0,4.2 C0,5.6 0.3,7 1,8.3 C2.8,11.6 6.6,13.3 11.2,13.3 C14.6,13.3 18.3,12.4 21.9,10.5 C28.5,7 32.5,1.1 32.5,-4 C32.5,-5.4 32.2,-6.8 31.5,-8.1"/>
<path class="Note" transform="matrix(0.992001,0,0,0.992001,2037.59,720.999)" d="M31.5,-8.1 C29.7,-11.4 25.9,-13.2 21.3,-13.2 C17.9,-13.2 14.2,-12.2 10.6,-10.3 C4,-6.8 0,-0.9 0,4.2 C0,5.6 0.3,7 1,8.3 C2.8,11.6 6.6,13.3 11.2,13.3 C14.6,13.3 18.3,12.4 21.9,10.5 C28.5,7 32.5,1.1 32.5,-4 C32.5,-5.4 32.2,-6.8 31.5,-8.1"/>
<path class="Note" transform="matrix(0.992001,0,0,0.992001,2172.39,733.399)" d="M31.5,-8.1 C29.7,-11.4 25.9,-13.2 21.3,-13.2 C17.9,-13.2 14.2,-12.2 10.6,-10.3 C4,-6.8 0,-0.9 0,4.2 C0,5.6 0.3,7 1,8.3 C2.8,11.6 6.6,13.3 11.2,13.3 C14.6,13.3 18.3,12.4 21.9,10.5 C28.5,7 32.5,1.1 32.5,-4 C32.5,-5.4 32.2,-6.8 31.5,-8.1 M27.2,-1.3 C25.5,0.4 22.1,2.5 18.5,4.5 C14.9,6.5 11.3,8 8.9,8.5 C8.4,8.6 7.9,8.7 7.4,8.7 C5.8,8.7 4.6,8.1 3.9,6.8 C3.6,6.3 3.4,5.7 3.4,5.1 C3.4,4 4.1,2.7 5.2,1.6 C6.9,-0.1 10.2,-2.2 13.8,-4.2 C17.4,-6.2 21,-7.7 23.4,-8.2 C23.9,-8.3 24.4,-8.4 24.9,-8.4 C26.5,-8.4 27.8,-7.8 28.5,-6.5 C28.8,-6 28.9,-5.4 28.9,-4.8 C28.9,-3.7 28.3,-2.5 27.2,-1.3"/>
<path class="Note" transform="matrix(0.992001,0,0,0.992001,2286.68,720.999)" d="M31.5,-8.1 C29.7,-11.4 25.9,-13.2 21.3,-13.2 C17.9,-13.2 14.2,-12.2 10.6,-10.3 C4,-6.8 0,-0.9 0,4.2 C0,5.6 0.3,7 1,8.3 C2.8,11.6 6.6,13.3 11.2,13.3 C14.6,13.3 18.3,12.4 21.9,10.5 C28.5,7 32.5,1.1 32.5,-4 C32.5,-5.4 32.2,-6.8 31.5,-8.1"/>
<path class="Note" transform="matrix(0.992001,0,0,0.992001,2352.49,708.599)" d="M31.5,-8.1 C29.7,-11.4 25.9,-13.2 21.3,-13.2 C17.9,-13.2 14.2,-12.2 10.6,-10.3 C4,-6.8 0,-0.9 0,4.2 C0,5.6 0.3,7 1,8.3 C2.8,11.6 6.6,13.3 11.2,13.3 C14.6,13.3 18.3,12.4 21.9,10.5 C28.5,7 32.5,1.1 32.5,-4 C32.5,-5.4 32.2,-6.8 31.5,-8.1"/>
<path class="Note" transform="matrix(0.992001,0,0,0.992001,2389.68,696.199)" d="M31.5,-8.1 C29.7,-11.4 25.9,-13.2 21.3,-13.2 C17.9,-13.2 14.2,-12.2 10.6,-10.3 C4,-6.8 0,-0.9 0,4.2 C0,5.6 0.3,7 1,8.3 C2.8,11.6 6.6,13.3 11.2,13.3 C14.6,13.3 18.3,12.4 21.9,10.5 C28.5,7 32.5,1.1 32.5,-4 C32.5,-5.4 32.2,-6.8 31.5,-8.1"/>
<path class="Note" transform="matrix(0.992001,0,0,0.992001,2538.09,733.399)" d="M31.5,-8.1 C29.7,-11.4 25.9,-13.2 21.3,-13.2 C17.9,-13.2 14.2,-12.2 10.6,-10.3 C4,-6.8 0,-0.9 0,4.2 C0,5.6 0.3,7 1,8.3 C2.8,11.6 6.6,13.3 11.2,13.3 C14.6,13.3 18.3,12.4 21.9,10.5 C28.5,7 32.5,1.1 32.5,-4 C32.5,-5.4 32.2,-6.8 31.5,-8.1 M27.2,-1.3 C25.5,0.4 22.1,2.5 18.5,4.5 C14.9,6.5 11.3,8 8.9,8.5 C8.4,8.6 7.9,8.7 7.4,8.7 C5.8,8.7 4.6,8.1 3.9,6.8 C3.6,6.3 3.4,5.7 3.4,5.1 C3.4,4 4.1,2.7 5.2,1.6 C6.9,-0.1 10.2,-2.2 13.8,-4.2 C17.4,-6.2 21,-7.7 23.4,-8.2 C23.9,-8.3 24.4,-8.4 24.9,-8.4 C26.5,-8.4 27.8,-7.8 28.5,-6.5 C28.8,-6 28.9,-5.4 28.9,-4.8 C28.9,-3.7 28.3,-2.5 27.2,-1.3"/>
<path class="Note" transform="matrix(0.992001,0,0,0.992001,536.192,1167.4)" d="M31.5,-8.1 C29.7,-11.4 25.9,-13.2 21.3,-13.2 C17.9,-13.2 14.2,-12.2 10.6,-10.3 C4,-6.8 0,-0.9 0,4.2 C0,5.6 0.3,7 1,8.3 C2.8,11.6 6.6,13.3 11.2,13.3 C14.6,13.3 18.3,12.4 21.9,10.5 C28.5,7 32.5,1.1 32.5,-4 C32.5,-5.4 32.2,-6.8 31.5,-8.1"/>
<path class="Note" transform="matrix(0.992001,0,0,0.992001,645.549,1167.4)" d="M31.5,-8.1 C29.7,-11.4 25.9,-13.2 21.3,-13.2 C17.9,-13.2 14.2,-12.2 10.6,-10.3 C4,-6.8 0,-0.9 0,4.2 C0,5.6 0.3,7 1,8.3 C2.8,11.6 6.6,13.3 11.2,13.3 C14.6,13.3 18.3,12.4 21.9,10.5 C28.5,7 32.5,1.1 32.5,-4 C32.5,-5.4 32.2,-6.8 31.5,-8.1"/>
<path class="Note" transform="matrix(0.992001,0,0,0.992001,754.905,1167.4)" d="M31.5,-8.1 C29.7,-11.4 25.9,-13.2 21.3,-13.2 C17.9,-13.2 14.2,-12.2 10.6,-10.3 C4,-6.8 0,-0.9 0,4.2 C0,5.6 0.3,7 1,8.3 C2.8,11.6 6.6,13.3 11.2,13.3 C14.6,13.3 18.3,12.4 21.9,10.5 C28.5,7 32.5,1.1 32.5,-4 C32.5,-5.4 32.2,-6.8 31.5,-8.1"/>
<path class="Note" transform="matrix(0.992001,0,0,0.992001,864.262,1167.4)" d="M31.5,-8.1 C29.7,-11.4 25.9,-13.2 21.3,-13.2 C17.9,-13.2 14.2,-12.2 10.6,-10.3 C4,-6.8 0,-0.9 0,4.2 C0,5.6 0.3,7 1,8.3 C2.8,11.6 6.6,13.3 11.2,13.3 C14.6,13.3 18.3,12.4 21.9,10.5 C28.5,7 32.5,1.1 32.5,-4 C32.5,-5.4 32.2,-6.8 31.5,-8.1"/>
<path class="Note" transform="matrix(0.992001,0,0,0.992001,961.24,1155)" d="M31.5,-8.1 C29.7,-11.4 25.9,-13.2 21.3,-13.2 C17.9,-13.2 14.2,-12.2 10.6,-10.3 C4,-6.8 0,-0.9 0,4.2 C0,5.6 0.3,7 1,8.3 C2.8,11.6 6.6,13.3 11.2,13.3 C14.6,13.3 18.3,12.4 21.9,10.5 C28.5,7 32.5,1.1 32.5,-4 C32.5,-5.4 32.2,-6.8 31.5,-8.1"/>
<path class="Note" transform="matrix(0.992001,0,0,0.992001,1067.38,1204.6)" d="M31.5,-8.1 C29.7,-11.4 25.9,-13.2 21.3,-13.2 C17.9,-13.2 14.2,-12.2 10.6,-10.3 C4,-6.8 0,-0.9 0,4.2 C0,5.6 0.3,7 1,8.3 C2.8,11.6 6.6,13.3 11.2,13.3 C14.6,13.3 18.3,12.4 21.9,10.5 C28.5,7 32.5,1.1 32.5,-4 C32.5,-5.4 32.2,-6.8 31.5,-8.1"/>
<path class="Note" transform="matrix(0.992001,0,0,0.992001,1184.24,1204.6)" d="M31.5,-8.1 C29.7,-11.4 25.9,-13.2 21.3,-13.2 C17.9,-13.2 14.2,-12.2 10.6,-10.3 C4,-6.8 0,-0.9 0,4.2 C0,5.6 0.3,7 1,8.3 C2.8,11.6 6.6,13.3 11.2,13.3 C14.6,13.3 18.3,12.4 21.9,10.5 C28.5,7 32.5,1.1 32.5,-4 C32.5,-5.4 32.2,-6.8 31.5,-8.1"/>
<path class="Note" transform="matrix(0.992001,0,0,0.992001,1244.14,1204.6)" d="M31.5,-8.1 C29.7,-11.4 25.9,-13.2 21.3,-13.2 C17.9,-13.2 14.2,-12.2 10.6,-10.3 C4,-6.8 0,-0.9 0,4.2 C0,5.6 0.3,7 1,8.3 C2.8,11.6 6.6,13.3 11.2,13.3 C14.6,13.3 18.3,12.4 21.9,10.5 C28.5,7 32.5,1.1 32.5,-4 C32.5,-5.4 32.2,-6.8 31.5,-8.1"/>
<path class="Note" transform="matrix(0.992001,0,0,0.992001,1361.01,1204.6)" d="M31.5,-8.1 C29.7,-11.4 25.9,-13.2 21.3,-13.2 C17.9,-13.2 14.2,-12.2 10.6,-10.3 C4,-6.8 0,-0.9 0,4.2 C0,5.6 0.3,7 1,8.3 C2.8,11.6 6.6,13.3 11.2,13.3 C14.6,13.3 18.3,12.4 21.9,10.5 C28.5,7 32.5,1.1 32.5,-4 C32.5,-5.4 32.2,-6.8 31.5,-8.1"/>
<path class="Note" transform="matrix(0.992001,0,0,0.992001,1420.91,1204.6)" d="M31.5,-8.1 C29.7,-11.4 25.9,-13.2 21.3,-13.2 C17.9,-13.2 14.2,-12.2 10.6,-10.3 C4,-6.8 0,-0.9 0,4.2 C0,5.6 0.3,7 1,8.3 C2.8,11.6 6.6,13.3 11.2,13.3 C14.6,13.3 18.3,12.4 21.9,10.5 C28.5,7 32.5,1.1 32.5,-4 C32.5,-5.4 32.2,-6.8 31.5,-8.1 M27.2,-1.3 C25.5,0.4 22.1,2.5 18.5,4.5 C14.9,6.5 11.3,8 8.9,8.5 C8.4,8.6 7.9,8.7 7.4,8.7 C5.8,8.7 4.6,8.1 3.9,6.8 C3.6,6.3 3.4,5.7 3.4,5.1 C3.4,4 4.1,2.7 5.2,1.6 C6.9,-0.1 10.2,-2.2 13.8,-4.2 C17.4,-6.2 21,-7.7 23.4,-8.2 C23.9,-8.3 24.4,-8.4 24.9,-8.4 C26.5,-8.4 27.8,-7.8 28.5,-6.5 C28.8,-6 28.9,-5.4 28.9,-4.8 C28.9,-3.7 28.3,-2.5 27.2,-1.3"/>
<path class="Note" transform="matrix(0.992001,0,0,0.992001,1625.33,1204.6)" d="M31.5,-8.1 C29.7,-11.4 25.9,-13.2 21.3,-13.2 C17.9,-13.2 14.2,-12.2 10.6,-10.3 C4,-6.8 0,-0.9 0,4.2 C0,5.6 0.3,7 1,8.3 C2.8,11.6 6.6,13.3 11.2,13.3 C14.6,13.3 18.3,12.4 21.9,10.5 C28.5,7 32.5,1.1 32.5,-4 C32.5,-5.4 32.2,-6.8 31.5,-8.1"/>
<path class="Note" transform="matrix(0.992001,0,0,0.992001,1742.2,1204.6)" d="M31.5,-8.1 C29.7,-11.4 25.9,-13.2 21.3,-13.2 C17.9,-13.2 14.2,-12.2 10.6,-10.3 C4,-6.8 0,-0.9 0,4.2 C0,5.6 0.3,7 1,8.3 C2.8,11.6 6.6,13.3 11.2,13.3 C14.6,13.3 18.3,12.4 21.9,10.5 C28.5,7 32.5,1.1 32.5,-4 C32.5,-5.4 32.2,-6.8 31.5,-8.1"/>
<path class="Note" transform="matrix(0.992001,0,0,0.992001,1802.1,1204.6)" d="M31.5,-8.1 C29.7,-11.4 25.9,-13.2 21.3,-13.2 C17.9,-13.2 14.2,-12.2 10.6,-10.3 C4,-6.8 0,-0.9 0,4.2 C0,5.6 0.3,7 1,8.3 C2.8,11.6 6.6,13.3 11.2,13.3 C14.6,13.3 18.3,12.4 21.9,10.5 C28.5,7 32.5,1.1 32.5,-4 C32.5,-5.4 32.2,-6.8 31.5,-8.1"/>
<path class="Note" transform="matrix(0.992001,0,0,0.992001,1918.97,1204.6)" d="M31.5,-8.1 C29.7,-11.4 25.9,-13.2 21.3,-13.2 C17.9,-13.2 14.2,-12.2 10.6,-10.3 C4,-6.8 0,-0.9 0,4.2 C0,5.6 0.3,7 1,8.3 C2.8,11.6 6.6,13.3 11.2,13.3 C14.6,13.3 18.3,12.4 21.9,10.5 C28.5,7 32.5,1.1 32.5,-4 C32.5,-5.4 32.2,-6.8 31.5,-8.1"/>
<path class="Note" transform="matrix(0.992001,0,0,0.992001,1978.87,1204.6)" d="M31.5,-8.1 C29.7,-11.4 25.9,-13.2 21.3,-13.2 C17.9,-13.2 14.2,-12.2 10.6,-10.3 C4,-6.8 0,-0.9 0,4.2 C0,5.6 0.3,7 1,8.3 C2.8,11.6 6.6,13.3 11.2,13.3 C14.6,13.3 18.3,12.4 21.9,10.5 C28.5,7 32.5,1.1 32.5,-4 C32.5,-5.4 32.2,-6.8 31.5,-8.1 M27.2,-1.3 C25.5,0.4 22.1,2.5 18.5,4.5 C14.9,6.5 11.3,8 8.9,8.5 C8.4,8.6 7.9,8.7 7.4,8.7 C5.8,8.7 4.6,8.1 3.9,6.8 C3.6,6.3 3.4,5.7 3.4,5.1 C3.4,4 4.1,2.7 5.2,1.6 C6.9,-0.1 10.2,-2.2 13.8,-4.2 C17.4,-6.2 21,-7.7 23.4,-8.2 C23.9,-8.3 24.4,-8.4 24.9,-8.4 C26.5,-8.4 27.8,-7.8 28.5,-6.5 C28.8,-6 28.9,-5.4 28.9,-4.8 C28.9,-3.7 28.3,-2.5 27.2,-1.3"/>
<path class="Note" transform="matrix(0.992001,0,0,0.992001,2195.79,1217)" d="M31.5,-8.1 C29.7,-11.4 25.9,-13.2 21.3,-13.2 C17.9,-13.2 14.2,-12.2 10.6,-10.3 C4,-6.8 0,-0.9 0,4.2 C0,5.6 0.3,7 1,8.3 C2.8,11.6 6.6,13.3 11.2,13.3 C14.6,13.3 18.3,12.4 21.9,10.5 C28.5,7 32.5,1.1 32.5,-4 C32.5,-5.4 32.2,-6.8 31.5,-8.1"/>
<path class="Note" transform="matrix(0.992001,0,0,0.992001,2312.65,1217)" d="M31.5,-8.1 C29.7,-11.4 25.9,-13.2 21.3,-13.2 C17.9,-13.2 14.2,-12.2 10.6,-10.3 C4,-6.8 0,-0.9 0,4.2 C0,5.6 0.3,7 1,8.3 C2.8,11.6 6.6,13.3 11.2,13.3 C14.6,13.3 18.3,12.4 21.9,10.5 C28.5,7 32.5,1.1 32.5,-4 C32.5,-5.4 32.2,-6.8 31.5,-8.1"/>
<path class="Note" transform="matrix(0.992001,0,0,0.992001,2372.55,1217)" d="M31.5,-8.1 C29.7,-11.4 25.9,-13.2 21.3,-13.2 C17.9,-13.2 14.2,-12.2 10.6,-10.3 C4,-6.8 0,-0.9 0,4.2 C0,5.6 0.3,7 1,8.3 C2.8,11.6 6.6,13.3 11.2,13.3 C14.6,13.3 18.3,12.4 21.9,10.5 C28.5,7 32.5,1.1 32.5,-4 C32.5,-5.4 32.2,-6.8 31.5,-8.1"/>
<path class="Note" transform="matrix(0.992001,0,0,0.992001,2489.42,1217)" d="M31.5,-8.1 C29.7,-11.4 25.9,-13.2 21.3,-13.2 C17.9,-13.2 14.2,-12.2 10.6,-10.3 C4,-6.8 0,-0.9 0,4.2 C0,5.6 0.3,7 1,8.3 C2.8,11.6 6.6,13.3 11.2,13.3 C14.6,13.3 18.3,12.4 21.9,10.5 C28.5,7 32.5,1.1 32.5,-4 C32.5,-5.4 32.2,-6.8 31.5,-8.1"/>
<path class="Note" transform="matrix(0.992001,0,0,0.992001,2549.32,1217)" d="M31.5,-8.1 C29.7,-11.4 25.9,-13.2 21.3,-13.2 C17.9,-13.2 14.2,-12.2 10.6,-10.3 C4,-6.8 0,-0.9 0,4.2 C0,5.6 0.3,7 1,8.3 C2.8,11.6 6.6,13.3 11.2,13.3 C14.6,13.3 18.3,12.4 21.9,10.5 C28.5,7 32.5,1.1 32.5,-4 C32.5,-5.4 32.2,-6.8 31.5,-8.1 M27.2,-1.3 C25.5,0.4 22.1,2.5 18.5,4.5 C14.9,6.5 11.3,8 8.9,8.5 C8.4,8.6 7.9,8.7 7.4,8.7 C5.8,8.7 4.6,8.1 3.9,6.8 C3.6,6.3 3.4,5.7 3.4,5.1 C3.4,4 4.1,2.7 5.2,1.6 C6.9,-0.1 10.2,-2.2 13.8,-4.2 C17.4,-6.2 21,-7.7 23.4,-8.2 C23.9,-8.3 24.4,-8.4 24.9,-8.4 C26.5,-8.4 27.8,-7.8 28.5,-6.5 C28.8,-6 28.9,-5.4 28.9,-4.8 C28.9,-3.7 28.3,-2.5 27.2,-1.3"/>
<path class="Clef" transform="matrix(0.992001,0,0,0.992001,356.439,708.599)" d="M63.35,-5.86992 C62.12,-11.3 59.48,-15.1199 58.7,-16.16 C55.51,-20.43 51.5,-23.28 46.81,-24.63 C43.7,-25.5199 40.7,-25.63 38.28,-25.45 C37.24,-31.46 36.24,-37.3399 35.33,-42.7899 C40.78,-48.96 44.4,-54.76 46.68,-59.06 C50.15,-65.6399 51.3,-70.2199 51.35,-70.4199 C53.07,-75.63 53.43,-83.33 52.33,-91.5399 C51.32,-99.0899 49.23,-105.8 46.88,-109.05 C45.85,-110.48 44.8,-111.21 43.76,-111.21 C42.54,-111.21 40.03,-109.97 37.14,-107.2 C34.84,-105 31.57,-101.11 29.01,-95.1 C26.01,-88.0399 25.8,-78.55 26.15,-71.83 C26.53,-64.56 27.64,-58.8699 27.65,-58.8199 C27.67,-58.73 27.93,-57.23 28.38,-54.66 C28.15,-54.43 27.91,-54.21 27.66,-53.9699 C26.62,-52.9699 25.43,-51.83 24.05,-50.45 C23.19,-49.5899 22.24,-48.68 21.24,-47.71 C12.79,-39.5699 0,-27.25 0,-8.1 C0,-3.4 0.9,1.02002 2.67998,5.03008 C4.27002,8.63008 6.57002,11.9101 9.5,14.7801 C17.23,22.3301 27.82,25.54 34.88,25.3801 C37.83,25.3101 40.46,25.07 42.85,24.62 C44.68,34.22 45.82,41.25 45.86,46.59 C45.9,53.1 44.25,57.07 40.35,59.84 C37.92,61.57 35.11,62.52 32.01,62.67 C29.42,62.79 27.16,62.32 25.73,61.9101 L25.72,61.9101 C25.72,61.9101 25.43,61.8301 25.42,61.6301 C25.41,61.45 25.76,61.4 25.77,61.4 L25.79,61.4 C27.71,60.9601 31.28,59.7301 33.64,56.4301 C35.44,53.9101 36.31,49.29 34.47,45.35 C33.36,42.9601 30.85,40.0101 25.23,39.5601 C22.74,39.3601 20.47,39.87 18.47,41.07 C16.66,42.15 15.16,43.79 14.11,45.79 C11.65,50.49 12.11,56.22 15.24,60.0601 C18.2,63.6801 22.82,65.99 28.25,66.57 C29.1,66.6601 29.95,66.7 30.8,66.7 C35.23,66.7 39.63,65.5 43.2,63.29 C46.86,60.72 48.98,56.74 49.66,51.1101 C50.22,46.47 49.83,40.5601 48.43,32.49 C48.07,30.4 47.53,27.37 46.87,23.6101 C52.62,21.69 56.78,18.12 60.55,12.27 C63.84,6.53008 64.78,0.430078 63.35,-5.86992 M29.14,20.32 C24.5,19.1 20.07,16.6 16.31,13.1 C15,11.87 13.13,9.7 11.66,6.31006 C10.29,3.15 9.62998,-0.27998 9.67998,-3.86992 C9.75,-8.55996 11.06,-13.38 13.57,-18.1699 C16.49,-23.75 21.05,-29.28 27.11,-34.61 C28.56,-35.8899 29.93,-37.1699 31.22,-38.45 C31.98,-34.1899 32.81,-29.5 33.69,-24.6199 C29.84,-23.35 25.09,-20.2 21.98,-14.55 C18.44,-7.97998 18.58,-2.45996 19.31,1.02002 C20.25,5.48008 22.78,9.24004 26.24,11.3301 C27.17,11.89 31.3,14.02 33.14,13.44 C33.51,13.32 33.78,13.1 33.92,12.77 C34.43,11.6 33.41,10.9601 31.85,10 C31.25,9.63008 30.58,9.21006 29.85,8.68008 C26.53,6.19004 25.08,1.74004 26.15,-2.63994 C26.73,-5.03994 28.01,-7.2 29.85,-8.9 C31.52,-10.45 33.56,-11.55 35.94,-12.1899 C37.98,-0.95 40.04,10.2 41.68,18.5601 C41.81,19.25 41.95,19.92 42.08,20.59 C37.7,21.52 33.35,21.4301 29.14,20.32 M40.46,-12.86 C50.81,-13.33 55.08,-5.88994 55.97,-1.05996 C56.44,1.47002 56.43,5.91006 54.89,10.12 C53.72,13.3 51.26,17.37 46.13,19.4301 C46.06,19.0101 45.98,18.5801 45.9,18.15 C44.36,9.38008 42.42,-1.60996 40.46,-12.86 M33.14,-83.8 C34.92,-89.5399 37.66,-92.7899 39.65,-94.5199 C41.4,-96.0399 43.05,-96.75 43.97,-96.75 C44.11,-96.75 44.23,-96.73 44.33,-96.7 C44.79,-96.56 45.32,-95.9899 45.79,-95.1199 C48.1,-90.83 47.36,-84.1199 46.02,-79.68 C44.39,-74.28 41.47,-68.66 32.67,-59.05 C32.5,-60.16 32.34,-61.21 32.19,-62.1899 C30.94,-70.48 31.26,-77.75 33.14,-83.8"/>
<path class="Clef" transform="matrix(0.992001,0,0,0.992001,232.438,1179.8)" d="M63.35,-5.86992 C62.12,-11.3 59.48,-15.1199 58.7,-16.16 C55.51,-20.43 51.5,-23.28 46.81,-24.63 C43.7,-25.5199 40.7,-25.63 38.28,-25.45 C37.24,-31.46 36.24,-37.3399 35.33,-42.7899 C40.78,-48.96 44.4,-54.76 46.68,-59.06 C50.15,-65.6399 51.3,-70.2199 51.35,-70.4199 C53.07,-75.63 53.43,-83.33 52.33,-91.5399 C51.32,-99.0899 49.23,-105.8 46.88,-109.05 C45.85,-110.48 44.8,-111.21 43.76,-111.21 C42.54,-111.21 40.03,-109.97 37.14,-107.2 C34.84,-105 31.57,-101.11 29.01,-95.1 C26.01,-88.0399 25.8,-78.55 26.15,-71.83 C26.53,-64.56 27.64,-58.8699 27.65,-58.8199 C27.67,-58.73 27.93,-57.23 28.38,-54.66 C28.15,-54.43 27.91,-54.21 27.66,-53.9699 C26.62,-52.9699 25.43,-51.83 24.05,-50.45 C23.19,-49.5899 22.24,-48.68 21.24,-47.71 C12.79,-39.5699 0,-27.25 0,-8.1 C0,-3.4 0.9,1.02002 2.67998,5.03008 C4.27002,8.63008 6.57002,11.9101 9.5,14.7801 C17.23,22.3301 27.82,25.54 34.88,25.3801 C37.83,25.3101 40.46,25.07 42.85,24.62 C44.68,34.22 45.82,41.25 45.86,46.59 C45.9,53.1 44.25,57.07 40.35,59.84 C37.92,61.57 35.11,62.52 32.01,62.67 C29.42,62.79 27.16,62.32 25.73,61.9101 L25.72,61.9101 C25.72,61.9101 25.43,61.8301 25.42,61.6301 C25.41,61.45 25.76,61.4 25.77,61.4 L25.79,61.4 C27.71,60.9601 31.28,59.7301 33.64,56.4301 C35.44,53.9101 36.31,49.29 34.47,45.35 C33.36,42.9601 30.85,40.0101 25.23,39.5601 C22.74,39.3601 20.47,39.87 18.47,41.07 C16.66,42.15 15.16,43.79 14.11,45.79 C11.65,50.49 12.11,56.22 15.24,60.0601 C18.2,63.6801 22.82,65.99 28.25,66.57 C29.1,66.6601 29.95,66.7 30.8,66.7 C35.23,66.7 39.63,65.5 43.2,63.29 C46.86,60.72 48.98,56.74 49.66,51.1101 C50.22,46.47 49.83,40.5601 48.43,32.49 C48.07,30.4 47.53,27.37 46.87,23.6101 C52.62,21.69 56.78,18.12 60.55,12.27 C63.84,6.53008 64.78,0.430078 63.35,-5.86992 M29.14,20.32 C24.5,19.1 20.07,16.6 16.31,13.1 C15,11.87 13.13,9.7 11.66,6.31006 C10.29,3.15 9.62998,-0.27998 9.67998,-3.86992 C9.75,-8.55996 11.06,-13.38 13.57,-18.1699 C16.49,-23.75 21.05,-29.28 27.11,-34.61 C28.56,-35.8899 29.93,-37.1699 31.22,-38.45 C31.98,-34.1899 32.81,-29.5 33.69,-24.6199 C29.84,-23.35 25.09,-20.2 21.98,-14.55 C18.44,-7.97998 18.58,-2.45996 19.31,1.02002 C20.25,5.48008 22.78,9.24004 26.24,11.3301 C27.17,11.89 31.3,14.02 33.14,13.44 C33.51,13.32 33.78,13.1 33.92,12.77 C34.43,11.6 33.41,10.9601 31.85,10 C31.25,9.63008 30.58,9.21006 29.85,8.68008 C26.53,6.19004 25.08,1.74004 26.15,-2.63994 C26.73,-5.03994 28.01,-7.2 29.85,-8.9 C31.52,-10.45 33.56,-11.55 35.94,-12.1899 C37.98,-0.95 40.04,10.2 41.68,18.5601 C41.81,19.25 41.95,19.92 42.08,20.59 C37.7,21.52 33.35,21.4301 29.14,20.32 M40.46,-12.86 C50.81,-13.33 55.08,-5.88994 55.97,-1.05996 C56.44,1.47002 56.43,5.91006 54.89,10.12 C53.72,13.3 51.26,17.37 46.13,19.4301 C46.06,19.0101 45.98,18.5801 45.9,18.15 C44.36,9.38008 42.42,-1.60996 40.46,-12.86 M33.14,-83.8 C34.92,-89.5399 37.66,-92.7899 39.65,-94.5199 C41.4,-96.0399 43.05,-96.75 43.97,-96.75 C44.11,-96.75 44.23,-96.73 44.33,-96.7 C44.79,-96.56 45.32,-95.9899 45.79,-95.1199 C48.1,-90.83 47.36,-84.1199 46.02,-79.68 C44.39,-74.28 41.47,-68.66 32.67,-59.05 C32.5,-60.16 32.34,-61.21 32.19,-62.1899 C30.94,-70.48 31.26,-77.75 33.14,-83.8"/>
<path class="KeySig" transform="matrix(0.992001,0,0,0.992001,519.111,658.999)" d="M23.3,-10.6 C23.9,-10.7 24.4,-11.4 24.4,-12 L24.4,-17.9 C24.4,-18.7 23.8,-19.3 23,-19.3 L22.8,-19.3 L19.5,-18.6 L19.5,-33.5 L16.7,-33.5 L16.7,-18 L7.8,-16.2 L7.8,-30.3 L5,-30.3 L5,-15.6 L1.1,-14.8 C0.5,-14.7 0,-14 0,-13.4 L0,-13.2 L0,-7.4 L0,-7.6 C0,-6.8 0.6,-6.2 1.4,-6.2 L1.7,-6.2 L5,-6.9 L5,9.6 L1.1,10.4 C0.5,10.5 0,11.2 0,11.8 L0,17.6 C0,18.4 0.6,19 1.4,19 L1.7,19 L5,18.3 L5,33.2 L7.8,33.2 L7.8,17.7 L16.7,15.9 L16.7,30 L19.5,30 L19.5,15.3 L23.3,14.6 C23.9,14.5 24.4,13.8 24.4,13.2 L24.4,7.3 C24.4,6.5 23.8,5.9 23,5.9 L22.8,5.9 L19.5,6.6 L19.5,-9.9 L23.3,-10.6 M7.8,9.1 L7.8,-7.5 L16.7,-9.3 L16.7,7.2 L7.8,9.1 "/>
<path class="KeySig" transform="matrix(0.992001,0,0,0.992001,494.311,621.799)" d="M23.3,-10.6 C23.9,-10.7 24.4,-11.4 24.4,-12 L24.4,-17.9 C24.4,-18.7 23.8,-19.3 23,-19.3 L22.8,-19.3 L19.5,-18.6 L19.5,-33.5 L16.7,-33.5 L16.7,-18 L7.8,-16.2 L7.8,-30.3 L5,-30.3 L5,-15.6 L1.1,-14.8 C0.5,-14.7 0,-14 0,-13.4 L0,-13.2 L0,-7.4 L0,-7.6 C0,-6.8 0.6,-6.2 1.4,-6.2 L1.7,-6.2 L5,-6.9 L5,9.6 L1.1,10.4 C0.5,10.5 0,11.2 0,11.8 L0,17.6 C0,18.4 0.6,19 1.4,19 L1.7,19 L5,18.3 L5,33.2 L7.8,33.2 L7.8,17.7 L16.7,15.9 L16.7,30 L19.5,30 L19.5,15.3 L23.3,14.6 C23.9,14.5 24.4,13.8 24.4,13.2 L24.4,7.3 C24.4,6.5 23.8,5.9 23,5.9 L22.8,5.9 L19.5,6.6 L19.5,-9.9 L23.3,-10.6 M7.8,9.1 L7.8,-7.5 L16.7,-9.3 L16.7,7.2 L7.8,9.1 "/>
<path class="KeySig" transform="matrix(0.992001,0,0,0.992001,469.511,671.399)" d="M23.3,-10.6 C23.9,-10.7 24.4,-11.4 24.4,-12 L24.4,-17.9 C24.4,-18.7 23.8,-19.3 23,-19.3 L22.8,-19.3 L19.5,-18.6 L19.5,-33.5 L16.7,-33.5 L16.7,-18 L7.8,-16.2 L7.8,-30.3 L5,-30.3 L5,-15.6 L1.1,-14.8 C0.5,-14.7 0,-14 0,-13.4 L0,-13.2 L0,-7.4 L0,-7.6 C0,-6.8 0.6,-6.2 1.4,-6.2 L1.7,-6.2 L5,-6.9 L5,9.6 L1.1,10.4 C0.5,10.5 0,11.2 0,11.8 L0,17.6 C0,18.4 0.6,19 1.4,19 L1.7,19 L5,18.3 L5,33.2 L7.8,33.2 L7.8,17.7 L16.7,15.9 L16.7,30 L19.5,30 L19.5,15.3 L23.3,14.6 C23.9,14.5 24.4,13.8 24.4,13.2 L24.4,7.3 C24.4,6.5 23.8,5.9 23,5.9 L22.8,5.9 L19.5,6.6 L19.5,-9.9 L23.3,-10.6 M7.8,9.1 L7.8,-7.5 L16.7,-9.3 L16.7,7.2 L7.8,9.1 "/>
<path class="KeySig" transform="matrix(0.992001,0,0,0.992001,444.711,634.199)" d="M23.3,-10.6 C23.9,-10.7 24.4,-11.4 24.4,-12 L24.4,-17.9 C24.4,-18.7 23.8,-19.3 23,-19.3 L22.8,-19.3 L19.5,-18.6 L19.5,-33.5 L16.7,-33.5 L16.7,-18 L7.8,-16.2 L7.8,-30.3 L5,-30.3 L5,-15.6 L1.1,-14.8 C0.5,-14.7 0,-14 0,-13.4 L0,-13.2 L0,-7.4 L0,-7.6 C0,-6.8 0.6,-6.2 1.4,-6.2 L1.7,-6.2 L5,-6.9 L5,9.6 L1.1,10.4 C0.5,10.5 0,11.2 0,11.8 L0,17.6 C0,18.4 0.6,19 1.4,19 L1.7,19 L5,18.3 L5,33.2 L7.8,33.2 L7.8,17.7 L16.7,15.9 L16.7,30 L19.5,30 L19.5,15.3 L23.3,14.6 C23.9,14.5 24.4,13.8 24.4,13.2 L24.4,7.3 C24.4,6.5 23.8,5.9 23,5.9 L22.8,5.9 L19.5,6.6 L19.5,-9.9 L23.3,-10.6 M7.8,9.1 L7.8,-7.5 L16.7,-9.3 L16.7,7.2 L7.8,9.1 "/>
<path class="KeySig" transform="matrix(0.992001,0,0,0.992001,395.111,1130.2)" d="M23.3,-10.6 C23.9,-10.7 24.4,-11.4 24.4,-12 L24.4,-17.9 C24.4,-18.7 23.8,-19.3 23,-19.3 L22.8,-19.3 L19.5,-18.6 L19.5,-33.5 L16.7,-33.5 L16.7,-18 L7.8,-16.2 L7.8,-30.3 L5,-30.3 L5,-15.6 L1.1,-14.8 C0.5,-14.7 0,-14 0,-13.4 L0,-13.2 L0,-7.4 L0,-7.6 C0,-6.8 0.6,-6.2 1.4,-6.2 L1.7,-6.2 L5,-6.9 L5,9.6 L1.1,10.4 C0.5,10.5 0,11.2 0,11.8 L0,17.6 C0,18.4 0.6,19 1.4,19 L1.7,19 L5,18.3 L5,33.2 L7.8,33.2 L7.8,17.7 L16.7,15.9 L16.7,30 L19.5,30 L19.5,15.3 L23.3,14.6 C23.9,14.5 24.4,13.8 24.4,13.2 L24.4,7.3 C24.4,6.5 23.8,5.9 23,5.9 L22.8,5.9 L19.5,6.6 L19.5,-9.9 L23.3,-10.6 M7.8,9.1 L7.8,-7.5 L16.7,-9.3 L16.7,7.2 L7.8,9.1 "/>
<path class="KeySig" transform="matrix(0.992001,0,0,0.992001,370.311,1093)" d="M23.3,-10.6 C23.9,-10.7 24.4,-11.4 24.4,-12 L24.4,-17.9 C24.4,-18.7 23.8,-19.3 23,-19.3 L22.8,-19.3 L19.5,-18.6 L19.5,-33.5 L16.7,-33.5 L16.7,-18 L7.8,-16.2 L7.8,-30.3 L5,-30.3 L5,-15.6 L1.1,-14.8 C0.5,-14.7 0,-14 0,-13.4 L0,-13.2 L0,-7.4 L0,-7.6 C0,-6.8 0.6,-6.2 1.4,-6.2 L1.7,-6.2 L5,-6.9 L5,9.6 L1.1,10.4 C0.5,10.5 0,11.2 0,11.8 L0,17.6 C0,18.4 0.6,19 1.4,19 L1.7,19 L5,18.3 L5,33.2 L7.8,33.2 L7.8,17.7 L16.7,15.9 L16.7,30 L19.5,30 L19.5,15.3 L23.3,14.6 C23.9,14.5 24.4,13.8 24.4,13.2 L24.4,7.3 C24.4,6.5 23.8,5.9 23,5.9 L22.8,5.9 L19.5,6.6 L19.5,-9.9 L23.3,-10.6 M7.8,9.1 L7.8,-7.5 L16.7,-9.3 L16.7,7.2 L7.8,9.1 "/>
<path class="KeySig" transform="matrix(0.992001,0,0,0.992001,345.511,1142.6)" d="M23.3,-10.6 C23.9,-10.7 24.4,-11.4 24.4,-12 L24.4,-17.9 C24.4,-18.7 23.8,-19.3 23,-19.3 L22.8,-19.3 L19.5,-18.6 L19.5,-33.5 L16.7,-33.5 L16.7,-18 L7.8,-16.2 L7.8,-30.3 L5,-30.3 L5,-15.6 L1.1,-14.8 C0.5,-14.7 0,-14 0,-13.4 L0,-13.2 L0,-7.4 L0,-7.6 C0,-6.8 0.6,-6.2 1.4,-6.2 L1.7,-6.2 L5,-6.9 L5,9.6 L1.1,10.4 C0.5,10.5 0,11.2 0,11.8 L0,17.6 C0,18.4 0.6,19 1.4,19 L1.7,19 L5,18.3 L5,33.2 L7.8,33.2 L7.8,17.7 L16.7,15.9 L16.7,30 L19.5,30 L19.5,15.3 L23.3,14.6 C23.9,14.5 24.4,13.8 24.4,13.2 L24.4,7.3 C24.4,6.5 23.8,5.9 23,5.9 L22.8,5.9 L19.5,6.6 L19.5,-9.9 L23.3,-10.6 M7.8,9.1 L7.8,-7.5 L16.7,-9.3 L16.7,7.2 L7.8,9.1 "/>
<path class="KeySig" transform="matrix(0.992001,0,0,0.992001,320.711,1105.4)" d="M23.3,-10.6 C23.9,-10.7 24.4,-11.4 24.4,-12 L24.4,-17.9 C24.4,-18.7 23.8,-19.3 23,-19.3 L22.8,-19.3 L19.5,-18.6 L19.5,-33.5 L16.7,-33.5 L16.7,-18 L7.8,-16.2 L7.8,-30.3 L5,-30.3 L5,-15.6 L1.1,-14.8 C0.5,-14.7 0,-14 0,-13.4 L0,-13.2 L0,-7.4 L0,-7.6 C0,-6.8 0.6,-6.2 1.4,-6.2 L1.7,-6.2 L5,-6.9 L5,9.6 L1.1,10.4 C0.5,10.5 0,11.2 0,11.8 L0,17.6 C0,18.4 0.6,19 1.4,19 L1.7,19 L5,18.3 L5,33.2 L7.8,33.2 L7.8,17.7 L16.7,15.9 L16.7,30 L19.5,30 L19.5,15.3 L23.3,14.6 C23.9,14.5 24.4,13.8 24.4,13.2 L24.4,7.3 C24.4,6.5 23.8,5.9 23,5.9 L22.8,5.9 L19.5,6.6 L19.5,-9.9 L23.3,-10.6 M7.8,9.1 L7.8,-7.5 L16.7,-9.3 L16.7,7.2 L7.8,9.1 "/>
<path class="TimeSig" transform="matrix(0.992001,0,0,0.992001,566.751,659.131)" d="M3.59004,12.65 L20.77,12.65 L20.77,20.07 L12.54,20.07 C11.7601,20.07 11.1301,20.7 11.1301,21.48 L11.1301,23.39 C11.1301,24.17 11.7601,24.8 12.54,24.8 L42.79,24.8 C43.57,24.8 44.2,24.17 44.2,23.39 L44.2,21.48 C44.2,20.7 43.57,20.07 42.79,20.07 L33.85,20.07 L33.85,12.65 L42.79,12.65 C43.57,12.65 44.2,12.02 44.2,11.24 L44.2,9.32998 C44.2,8.55 43.57,7.92002 42.79,7.92002 L33.85,7.92002 L33.85,-8.04004 C33.85,-8.57998 33.55,-9.05996 33.07,-9.3 L31.8601,-9.9 C31.3301,-10.16 30.7,-10.07 30.27,-9.67002 L21.22,-1.35 C20.9301,-1.07998 20.7601,-0.709961 20.7601,-0.309961 L20.7601,7.92002 L9.25,7.92002 C9.25,7.92002 20.37,-4.10996 32.2101,-19.88 C33.0801,-21.03 32.5801,-22.08 32.39,-22.27 L30.22,-24.48 C29.95,-24.74 29.59,-24.89 29.22,-24.89 C28.62,-24.89 15.07,-24.87 14.35,-24.89 C13.6301,-24.91 13.09,-24.29 13.02,-23.67 C13.02,-23.67 12.4801,-16.31 9.88008,-8.17998 C7.28008,-0.0599609 4.34004,4.92002 1.68008,8.55 C1.68008,8.55 1.14004,9.54004 1.5,10.28 C1.85,11.03 2.48008,12.12 2.48008,12.12 C2.48008,12.12 2.74004,12.65 3.59004,12.65"/>
<path class="TimeSig" transform="matrix(0.992001,0,0,0.992001,566.751,708.467)" d="M3.59004,12.65 L20.77,12.65 L20.77,20.07 L12.54,20.07 C11.7601,20.07 11.1301,20.7 11.1301,21.48 L11.1301,23.39 C11.1301,24.17 11.7601,24.8 12.54,24.8 L42.79,24.8 C43.57,24.8 44.2,24.17 44.2,23.39 L44.2,21.48 C44.2,20.7 43.57,20.07 42.79,20.07 L33.85,20.07 L33.85,12.65 L42.79,12.65 C43.57,12.65 44.2,12.02 44.2,11.24 L44.2,9.32998 C44.2,8.55 43.57,7.92002 42.79,7.92002 L33.85,7.92002 L33.85,-8.04004 C33.85,-8.57998 33.55,-9.05996 33.07,-9.3 L31.8601,-9.9 C31.3301,-10.16 30.7,-10.07 30.27,-9.67002 L21.22,-1.35 C20.9301,-1.07998 20.7601,-0.709961 20.7601,-0.309961 L20.7601,7.92002 L9.25,7.92002 C9.25,7.92002 20.37,-4.10996 32.2101,-19.88 C33.0801,-21.03 32.5801,-22.08 32.39,-22.27 L30.22,-24.48 C29.95,-24.74 29.59,-24.89 29.22,-24.89 C28.62,-24.89 15.07,-24.87 14.35,-24.89 C13.6301,-24.91 13.09,-24.29 13.02,-23.67 C13.02,-23.67 12.4801,-16.31 9.88008,-8.17998 C7.28008,-0.0599609 4.34004,4.92002 1.68008,8.55 C1.68008,8.55 1.14004,9.54004 1.5,10.28 C1.85,11.03 2.48008,12.12 2.48008,12.12 C2.48008,12.12 2.74004,12.65 3.59004,12.65"/>
<path class="TimeSig" transform="matrix(0.992001,0,0,0.992001,2723.86,659.495)" d="M27.0172,-1.6 L27.2172,-1.6 C35.2172,-4.7 35.7172,-9.9 35.7172,-11.7 L35.7172,-12.2 C35.7172,-13.1 35.4172,-24.4 18.2172,-24.4 C1.01719,-24.4 1.51719,-12.2 1.51719,-12.2 L1.61719,-12.2 L1.51719,-12 C1.51719,-8.4 4.41719,-5.6 8.01719,-5.6 C11.6172,-5.6 14.4172,-8.4 14.4172,-12 C14.4172,-14.9 12.2172,-17.7 9.41719,-18.3 L9.71719,-18.6 C11.1172,-19.6 13.0172,-20.1 14.9172,-20.1 C19.1172,-20.1 23.6172,-17.6 23.6172,-12.2 C23.6172,-5.9 18.9172,-5 17.7172,-4.8 C16.5172,-4.6 10.9172,-4.2 9.71719,-4.2 C8.51719,-4.2 8.41719,-2.8 8.41719,-2.8 L8.41719,-0.8 C8.41719,-0.8 8.61719,0.3 9.71719,0.4 C11.4172,0.5 13.7172,0.5 16.9172,1 C21.3172,1.6 23.6172,4.6 23.6172,11.6 C23.6172,18.3 19.1172,20.1 14.9172,20.1 C12.1172,20.1 9.51719,19.3 8.41719,18.5 C11.7172,18.3 14.4172,15.4 14.4172,12.1 C14.4172,8.5 11.6172,5.6 8.01719,5.6 C4.41719,5.6 1.51719,8.5 1.51719,12.1 C1.51719,12.1 1.01719,16.6 5.41719,20.7 C9.31719,24.3 14.2172,24.4 16.4172,24.4 C26.0172,24.4 36.4172,21.1 36.4172,10.2 C36.4172,2.9 31.4172,-0.2 27.0172,-1.6"/>
<path class="TimeSig" transform="matrix(0.992001,0,0,0.992001,2719.94,708.467)" d="M3.59004,12.65 L20.77,12.65 L20.77,20.07 L12.54,20.07 C11.7601,20.07 11.1301,20.7 11.1301,21.48 L11.1301,23.39 C11.1301,24.17 11.7601,24.8 12.54,24.8 L42.79,24.8 C43.57,24.8 44.2,24.17 44.2,23.39 L44.2,21.48 C44.2,20.7 43.57,20.07 42.79,20.07 L33.85,20.07 L33.85,12.65 L42.79,12.65 C43.57,12.65 44.2,12.02 44.2,11.24 L44.2,9.32998 C44.2,8.55 43.57,7.92002 42.79,7.92002 L33.85,7.92002 L33.85,-8.04004 C33.85,-8.57998 33.55,-9.05996 33.07,-9.3 L31.8601,-9.9 C31.3301,-10.16 30.7,-10.07 30.27,-9.67002 L21.22,-1.35 C20.9301,-1.07998 20.7601,-0.709961 20.7601,-0.309961 L20.7601,7.92002 L9.25,7.92002 C9.25,7.92002 20.37,-4.10996 32.2101,-19.88 C33.0801,-21.03 32.5801,-22.08 32.39,-22.27 L30.22,-24.48 C29.95,-24.74 29.59,-24.89 29.22,-24.89 C28.62,-24.89 15.07,-24.87 14.35,-24.89 C13.6301,-24.91 13.09,-24.29 13.02,-23.67 C13.02,-23.67 12.4801,-16.31 9.88008,-8.17998 C7.28008,-0.0599609 4.34004,4.92002 1.68008,8.55 C1.68008,8.55 1.14004,9.54004 1.5,10.28 C1.85,11.03 2.48008,12.12 2.48008,12.12 C2.48008,12.12 2.74004,12.65 3.59004,12.65"/>
<path class="TimeSig" transform="matrix(0.992001,0,0,0.992001,446.672,1130.7)" d="M27.0172,-1.6 L27.2172,-1.6 C35.2172,-4.7 35.7172,-9.9 35.7172,-11.7 L35.7172,-12.2 C35.7172,-13.1 35.4172,-24.4 18.2172,-24.4 C1.01719,-24.4 1.51719,-12.2 1.51719,-12.2 L1.61719,-12.2 L1.51719,-12 C1.51719,-8.4 4.41719,-5.6 8.01719,-5.6 C11.6172,-5.6 14.4172,-8.4 14.4172,-12 C14.4172,-14.9 12.2172,-17.7 9.41719,-18.3 L9.71719,-18.6 C11.1172,-19.6 13.0172,-20.1 14.9172,-20.1 C19.1172,-20.1 23.6172,-17.6 23.6172,-12.2 C23.6172,-5.9 18.9172,-5 17.7172,-4.8 C16.5172,-4.6 10.9172,-4.2 9.71719,-4.2 C8.51719,-4.2 8.41719,-2.8 8.41719,-2.8 L8.41719,-0.8 C8.41719,-0.8 8.61719,0.3 9.71719,0.4 C11.4172,0.5 13.7172,0.5 16.9172,1 C21.3172,1.6 23.6172,4.6 23.6172,11.6 C23.6172,18.3 19.1172,20.1 14.9172,20.1 C12.1172,20.1 9.51719,19.3 8.41719,18.5 C11.7172,18.3 14.4172,15.4 14.4172,12.1 C14.4172,8.5 11.6172,5.6 8.01719,5.6 C4.41719,5.6 1.51719,8.5 1.51719,12.1 C1.51719,12.1 1.01719,16.6 5.41719,20.7 C9.31719,24.3 14.2172,24.4 16.4172,24.4 C26.0172,24.4 36.4172,21.1 36.4172,10.2 C36.4172,2.9 31.4172,-0.2 27.0172,-1.6"/>
<path class="TimeSig" transform="matrix(0.992001,0,0,0.992001,442.75,1179.67)" d="M3.59004,12.65 L20.77,12.65 L20.77,20.07 L12.54,20.07 C11.7601,20.07 11.1301,20.7 11.1301,21.48 L11.1301,23.39 C11.1301,24.17 11.7601,24.8 12.54,24.8 L42.79,24.8 C43.57,24.8 44.2,24.17 44.2,23.39 L44.2,21.48 C44.2,20.7 43.57,20.07 42.79,20.07 L33.85,20.07 L33.85,12.65 L42.79,12.65 C43.57,12.65 44.2,12.02 44.2,11.24 L44.2,9.32998 C44.2,8.55 43.57,7.92002 42.79,7.92002 L33.85,7.92002 L33.85,-8.04004 C33.85,-8.57998 33.55,-9.05996 33.07,-9.3 L31.8601,-9.9 C31.3301,-10.16 30.7,-10.07 30.27,-9.67002 L21.22,-1.35 C20.9301,-1.07998 20.7601,-0.709961 20.7601,-0.309961 L20.7601,7.92002 L9.25,7.92002 C9.25,7.92002 20.37,-4.10996 32.2101,-19.88 C33.0801,-21.03 32.5801,-22.08 32.39,-22.27 L30.22,-24.48 C29.95,-24.74 29.59,-24.89 29.22,-24.89 C28.62,-24.89 15.07,-24.87 14.35,-24.89 C13.6301,-24.91 13.09,-24.29 13.02,-23.67 C13.02,-23.67 12.4801,-16.31 9.88008,-8.17998 C7.28008,-0.0599609 4.34004,4.92002 1.68008,8.55 C1.68008,8.55 1.14004,9.54004 1.5,10.28 C1.85,11.03 2.48008,12.12 2.48008,12.12 C2.48008,12.12 2.74004,12.65 3.59004,12.65"/>
<path class="Rest" transform="matrix(0.992001,0,0,0.992001,660.192,683.799)" d="M0,-11.8 L0,-1 C0,0.4 0,0.4 1.4,0.4 L31.1,0.4 C32.5,0.4 32.5,0.4 32.5,-1 L32.5,-11.8 C32.5,-13.2 32.5,-13.2 31.1,-13.2 L1.4,-13.2 C0,-13.2 0,-13.2 0,-11.8"/>
<path class="Rest" transform="matrix(0.992001,0,0,0.992001,2631.78,683.799)" d="M23.2,16.9 L23,16.6 C22.9,16.5 22.7,16.3 22.4,15.9 L10.9,1.7 C10.6,1.4 10.7,0.6 10.9,0.2 L21.1,-15.2 C21.2,-15.4 21.3,-15.7 21.3,-15.9 L21.3,-16.8 C21.3,-17.1 21.2,-17.4 21,-17.6 L4.8,-39.5 C4.8,-39.5 4,-40.7 3,-39.8 C2,-39 2.8,-37.7 2.8,-37.7 L10.4,-27.3 C10.8,-26.7 10.8,-25.5 10.4,-24.9 L0.3,-9.5 C0.2,-9.3 0.1,-8.9 0.1,-8.7 L0.1,-7.8 C0.1,-7.5 0.2,-7.2 0.4,-7 L11.6,6.9 C11.2,6.8 10.3,6.6 9.1,6.6 C7.4,6.6 5.2,7 3.4,8.6 C1.2,10.6 0,13.4 0,15.9 C0,17.3 0.3,18.7 1.1,19.8 C3.2,23 10.7,32.5 10.7,32.5 C10.7,32.5 11.6,33.6 12.5,32.9 C13.4,32.2 13.2,31.3 12.9,30.8 C12.6,30.3 9.4,24.5 9.4,24.5 C9.4,24.5 8.7,23.1 8.7,21.3 C8.7,20 9.1,18.4 10.4,17.1 C11.6,15.9 13,15.5 14.3,15.5 C15.6,15.5 16.7,15.9 17.5,16.4 L21.4,18.9 C21.4,18.9 22.6,19.5 23.2,18.6 C23.7,17.8 23.5,17.4 23.2,16.9"/>
<path class="Articulation" transform="matrix(0.992001,0,0,0.992001,2184.65,754.332)" d="M1.14229,6.66641 C2.66533,8.18945 5.13467,8.18945 6.65771,6.66641 C8.18076,5.14336 8.18076,2.67402 6.65771,1.15098 C5.13467,-0.37207 2.66533,-0.37207 1.14229,1.15098 C-0.380762,2.67402 -0.380762,5.14336 1.14229,6.66641"/>
<path class="Articulation" transform="matrix(0.992001,0,0,0.992001,2550.35,754.332)" d="M1.14229,6.66641 C2.66533,8.18945 5.13467,8.18945 6.65771,6.66641 C8.18076,5.14336 8.18076,2.67402 6.65771,1.15098 C5.13467,-0.37207 2.66533,-0.37207 1.14229,1.15098 C-0.380762,2.67402 -0.380762,5.14336 1.14229,6.66641"/>
<path class="Beam" fill-rule="evenodd" d="M747.707,795.222 L853.433,769.765 L853.433,782.519 L747.707,807.976 L747.707,795.222 "/>
<path class="Beam" fill-rule="evenodd" d="M813.512,760.777 L853.433,751.165 L853.433,763.919 L813.512,773.532 L813.512,760.777 "/>
<path class="Beam" fill-rule="evenodd" d="M1090.97,776.543 L1157.69,795.935 L1157.69,808.849 L1090.97,789.456 L1090.97,776.543 "/>
<path class="Beam" fill-rule="evenodd" d="M1157.69,777.335 L1125.45,767.966 L1125.45,780.879 L1157.69,790.249 L1157.69,777.335 "/>
<path class="Beam" fill-rule="evenodd" d="M1221.66,634.434 L1288.39,627.97 L1288.39,640.428 L1221.66,646.892 L1221.66,634.434 "/>
<path class="Beam" fill-rule="evenodd" d="M1288.39,646.57 L1256.15,649.693 L1256.15,662.151 L1288.39,659.028 L1288.39,646.57 "/>
<path class="Beam" fill-rule="evenodd" d="M1476.75,795.399 L1542.61,795.399 L1542.61,807.799 L1476.75,807.799 L1476.75,795.399 "/>
<path class="Beam" fill-rule="evenodd" d="M1542.61,776.799 L1510.37,776.799 L1510.37,789.199 L1542.61,789.199 L1542.61,776.799 "/>
<path class="Beam" fill-rule="evenodd" d="M1675.52,652.592 L1766.37,658.984 L1766.37,671.414 L1675.52,665.022 L1675.52,652.592 "/>
<path class="Beam" fill-rule="evenodd" d="M1766.37,677.584 L1734.13,675.315 L1734.13,687.746 L1766.37,690.014 L1766.37,677.584 "/>
<path class="Beam" fill-rule="evenodd" d="M2286.68,795.222 L2392.41,769.765 L2392.41,782.519 L2286.68,807.976 L2286.68,795.222 "/>
<path class="Beam" fill-rule="evenodd" d="M2352.49,760.777 L2392.41,751.165 L2392.41,763.919 L2352.49,773.532 L2352.49,760.777 "/>
<path class="Beam" fill-rule="evenodd" d="M864.262,1247.99 L963.968,1241.61 L963.968,1254.04 L864.262,1260.41 L864.262,1247.99 "/>
<path class="Beam" fill-rule="evenodd" d="M963.968,1223.01 L931.728,1225.07 L931.728,1237.5 L963.968,1235.44 L963.968,1223.01 "/>
<path class="Beam" fill-rule="evenodd" d="M1096.88,1124 L1216.47,1124 L1216.47,1136.4 L1096.88,1136.4 L1096.88,1124 "/>
<path class="Beam" fill-rule="evenodd" d="M1216.47,1142.6 L1184.23,1142.6 L1184.23,1155 L1216.47,1155 L1216.47,1142.6 "/>
<path class="Beam" fill-rule="evenodd" d="M1273.65,1124 L1393.24,1124 L1393.24,1136.4 L1273.65,1136.4 L1273.65,1124 "/>
<path class="Beam" fill-rule="evenodd" d="M1393.24,1142.6 L1361,1142.6 L1361,1155 L1393.24,1155 L1393.24,1142.6 "/>
<path class="Beam" fill-rule="evenodd" d="M1654.84,1124 L1774.43,1124 L1774.43,1136.4 L1654.84,1136.4 L1654.84,1124 "/>
<path class="Beam" fill-rule="evenodd" d="M1774.43,1142.6 L1742.19,1142.6 L1742.19,1155 L1774.43,1155 L1774.43,1142.6 "/>
<path class="Beam" fill-rule="evenodd" d="M1831.6,1124 L1951.2,1124 L1951.2,1136.4 L1831.6,1136.4 L1831.6,1124 "/>
<path class="Beam" fill-rule="evenodd" d="M1951.2,1142.6 L1918.96,1142.6 L1918.96,1155 L1951.2,1155 L1951.2,1142.6 "/>
<path class="Beam" fill-rule="evenodd" d="M2225.29,1130.2 L2344.88,1130.2 L2344.88,1142.6 L2225.29,1142.6 L2225.29,1130.2 "/>
<path class="Beam" fill-rule="evenodd" d="M2344.88,1148.8 L2312.64,1148.8 L2312.64,1161.2 L2344.88,1161.2 L2344.88,1148.8 "/>
<path class="Beam" fill-rule="evenodd" d="M2402.06,1130.2 L2521.65,1130.2 L2521.65,1142.6 L2402.06,1142.6 L2402.06,1130.2 "/>
<path class="Beam" fill-rule="evenodd" d="M2521.65,1148.8 L2489.41,1148.8 L2489.41,1161.2 L2521.65,1161.2 L2521.65,1148.8 "/>
<path class="Hook" transform="matrix(0.992001,0,0,0.992001,2067.09,634.199)" d="M3.5,3.5 C3.4,3.2 2.5,-0.3 2.5,-0.5 C2.4,-0.9 1.8,-1.2 1.3,-1.2 C0.6,-1.2 0,-0.6 0,0.1 L0,16.5 L0,22.7 C0,23.2 0.4,23.6 0.8,23.8 C5,25.1 13.7,30.6 20.2,41.7 C22,44.8 24.9,49 24.9,57.4 C24.9,64.6 23.8,72.2 22,79.2 C21.7,80.3 21.4,81.3 22.5,81.7 C23.6,82.1 24,81.3 24.4,80.3 C28,71.5 28.9,62.3 28.9,56.1 L28.9,54.2 C28.4,41.3 21,31.8 21,31.8 C21.3,31.8 11.8,19.5 9.1,15.3 C5.4,9.6 3.6,3.9 3.5,3.5"/>
<path class="NoteDot" transform="matrix(0.992001,0,0,0.992001,704.825,671.399)" d="M0,-0.00166016 C0,2.75977 2.23857,4.99834 5,4.99834 C7.76143,4.99834 10,2.75977 10,-0.00166016 C10,-2.76309 7.76143,-5.00166 5,-5.00166 C2.23857,-5.00166 0,-2.76309 0,-0.00166016"/>
<path class="NoteDot" transform="matrix(0.992001,0,0,0.992001,1135.6,696.199)" d="M0,-0.00166016 C0,2.75977 2.23857,4.99834 5,4.99834 C7.76143,4.99834 10,2.75977 10,-0.00166016 C10,-2.76309 7.76143,-5.00166 5,-5.00166 C2.23857,-5.00166 0,-2.76309 0,-0.00166016"/>
<path class="NoteDot" transform="matrix(0.992001,0,0,0.992001,1236.79,720.999)" d="M0,-0.00166016 C0,2.75977 2.23857,4.99834 5,4.99834 C7.76143,4.99834 10,2.75977 10,-0.00166016 C10,-2.76309 7.76143,-5.00166 5,-5.00166 C2.23857,-5.00166 0,-2.76309 0,-0.00166016"/>
<path class="NoteDot" transform="matrix(0.992001,0,0,0.992001,1419.42,745.799)" d="M0,-0.00166016 C0,2.75977 2.23857,4.99834 5,4.99834 C7.76143,4.99834 10,2.75977 10,-0.00166016 C10,-2.76309 7.76143,-5.00166 5,-5.00166 C2.23857,-5.00166 0,-2.76309 0,-0.00166016"/>
<path class="NoteDot" transform="matrix(0.992001,0,0,0.992001,1521.38,720.999)" d="M0,-0.00166016 C0,2.75977 2.23857,4.99834 5,4.99834 C7.76143,4.99834 10,2.75977 10,-0.00166016 C10,-2.76309 7.76143,-5.00166 5,-5.00166 C2.23857,-5.00166 0,-2.76309 0,-0.00166016"/>
<path class="NoteDot" transform="matrix(0.992001,0,0,0.992001,1690.65,720.999)" d="M0,-0.00166016 C0,2.75977 2.23857,4.99834 5,4.99834 C7.76143,4.99834 10,2.75977 10,-0.00166016 C10,-2.76309 7.76143,-5.00166 5,-5.00166 C2.23857,-5.00166 0,-2.76309 0,-0.00166016"/>
<path class="NoteDot" transform="matrix(0.992001,0,0,0.992001,1906.17,770.599)" d="M0,-0.00166016 C0,2.75977 2.23857,4.99834 5,4.99834 C7.76143,4.99834 10,2.75977 10,-0.00166016 C10,-2.76309 7.76143,-5.00166 5,-5.00166 C2.23857,-5.00166 0,-2.76309 0,-0.00166016"/>
<path class="NoteDot" transform="matrix(0.992001,0,0,0.992001,2217.03,720.999)" d="M0,-0.00166016 C0,2.75977 2.23857,4.99834 5,4.99834 C7.76143,4.99834 10,2.75977 10,-0.00166016 C10,-2.76309 7.76143,-5.00166 5,-5.00166 C2.23857,-5.00166 0,-2.76309 0,-0.00166016"/>
<path class="NoteDot" transform="matrix(0.992001,0,0,0.992001,2582.72,720.999)" d="M0,-0.00166016 C0,2.75977 2.23857,4.99834 5,4.99834 C7.76143,4.99834 10,2.75977 10,-0.00166016 C10,-2.76309 7.76143,-5.00166 5,-5.00166 C2.23857,-5.00166 0,-2.76309 0,-0.00166016"/>
<path class="NoteDot" transform="matrix(0.992001,0,0,0.992001,908.894,1167.4)" d="M0,-0.00166016 C0,2.75977 2.23857,4.99834 5,4.99834 C7.76143,4.99834 10,2.75977 10,-0.00166016 C10,-2.76309 7.76143,-5.00166 5,-5.00166 C2.23857,-5.00166 0,-2.76309 0,-0.00166016"/>
<path class="NoteDot" transform="matrix(0.992001,0,0,0.992001,1112.01,1192.2)" d="M0,-0.00166016 C0,2.75977 2.23857,4.99834 5,4.99834 C7.76143,4.99834 10,2.75977 10,-0.00166016 C10,-2.76309 7.76143,-5.00166 5,-5.00166 C2.23857,-5.00166 0,-2.76309 0,-0.00166016"/>
<path class="NoteDot" transform="matrix(0.992001,0,0,0.992001,1288.77,1192.2)" d="M0,-0.00166016 C0,2.75977 2.23857,4.99834 5,4.99834 C7.76143,4.99834 10,2.75977 10,-0.00166016 C10,-2.76309 7.76143,-5.00166 5,-5.00166 C2.23857,-5.00166 0,-2.76309 0,-0.00166016"/>
<path class="NoteDot" transform="matrix(0.992001,0,0,0.992001,1669.97,1192.2)" d="M0,-0.00166016 C0,2.75977 2.23857,4.99834 5,4.99834 C7.76143,4.99834 10,2.75977 10,-0.00166016 C10,-2.76309 7.76143,-5.00166 5,-5.00166 C2.23857,-5.00166 0,-2.76309 0,-0.00166016"/>
<path class="NoteDot" transform="matrix(0.992001,0,0,0.992001,1846.73,1192.2)" d="M0,-0.00166016 C0,2.75977 2.23857,4.99834 5,4.99834 C7.76143,4.99834 10,2.75977 10,-0.00166016 C10,-2.76309 7.76143,-5.00166 5,-5.00166 C2.23857,-5.00166 0,-2.76309 0,-0.00166016"/>
<path class="NoteDot" transform="matrix(0.992001,0,0,0.992001,2240.42,1217)" d="M0,-0.00166016 C0,2.75977 2.23857,4.99834 5,4.99834 C7.76143,4.99834 10,2.75977 10,-0.00166016 C10,-2.76309 7.76143,-5.00166 5,-5.00166 C2.23857,-5.00166 0,-2.76309 0,-0.00166016"/>
<path class="NoteDot" transform="matrix(0.992001,0,0,0.992001,2417.18,1217)" d="M0,-0.00166016 C0,2.75977 2.23857,4.99834 5,4.99834 C7.76143,4.99834 10,2.75977 10,-0.00166016 C10,-2.76309 7.76143,-5.00166 5,-5.00166 C2.23857,-5.00166 0,-2.76309 0,-0.00166016"/>
</svg>
