<?xml version="1.0" encoding="UTF-8" standalone="no"?>
<svg width="4208.47px" height="2409.45px" viewBox="0 0 4208.47 2409.45"
 xmlns="http://www.w3.org/2000/svg" xmlns:xlink="http://www.w3.org/1999/xlink" version="1.2" baseProfile="tiny">
<title>Trombone</title>
<desc>Generated by MuseScore 3.6.2</desc>
<polyline class="StaffLines" fill="none" stroke="#000000" stroke-width="6.50" stroke-linejoin="bevel" points="70.866,717.499 4137.61,717.499"/>
<polyline class="StaffLines" fill="none" stroke="#000000" stroke-width="6.50" stroke-linejoin="bevel" points="70.866,776.599 4137.61,776.599"/>
<polyline class="StaffLines" fill="none" stroke="#000000" stroke-width="6.50" stroke-linejoin="bevel" points="70.866,835.699 4137.61,835.699"/>
<polyline class="StaffLines" fill="none" stroke="#000000" stroke-width="6.50" stroke-linejoin="bevel" points="70.866,894.799 4137.61,894.799"/>
<polyline class="StaffLines" fill="none" stroke="#000000" stroke-width="6.50" stroke-linejoin="bevel" points="70.866,953.899 4137.61,953.899"/>
<polyline class="StaffLines" fill="none" stroke="#000000" stroke-width="6.50" stroke-linejoin="bevel" points="70.866,1840.4 4137.61,1840.4"/>
<polyline class="StaffLines" fill="none" stroke="#000000" stroke-width="6.50" stroke-linejoin="bevel" points="70.866,1899.5 4137.61,1899.5"/>
<polyline class="StaffLines" fill="none" stroke="#000000" stroke-width="6.50" stroke-linejoin="bevel" points="70.866,1958.6 4137.61,1958.6"/>
<polyline class="StaffLines" fill="none" stroke="#000000" stroke-width="6.50" stroke-linejoin="bevel" points="70.866,2017.7 4137.61,2017.7"/>
<polyline class="StaffLines" fill="none" stroke="#000000" stroke-width="6.50" stroke-linejoin="bevel" points="70.866,2076.8 4137.61,2076.8"/>
<path class="MeasureNumber" d="M88.866,1704 C91.2097,1703.25 92.1629,1702.86 93.366,1702.04 C95.7097,1700.5 97.1629,1697.75 97.1629,1694.95 C97.1629,1690.2 93.366,1687 87.7722,1687 C82.3191,1687 77.7097,1690.4 77.7097,1694.5 C77.7097,1696.54 78.9597,1697.95 80.866,1697.95 C82.5222,1697.95 83.7097,1696.75 83.7097,1695.09 C83.7097,1694.25 83.4597,1693.65 82.6629,1692.84 C82.1629,1692.4 81.9597,1692.04 81.9597,1691.7 C81.9597,1690.5 84.4597,1689.25 86.8191,1689.25 C90.1629,1689.25 92.1629,1691.09 92.1629,1694.2 C92.1629,1698.65 89.0222,1702.86 85.6629,1702.86 C85.5222,1702.86 85.0691,1702.79 84.5222,1702.75 C83.0691,1702.65 83.0691,1702.65 82.7722,1702.65 C81.6629,1702.65 81.0691,1703.15 81.0691,1704.04 C81.0691,1704.86 81.616,1705.36 82.5222,1705.36 C82.7722,1705.36 83.116,1705.29 83.5222,1705.25 C84.2097,1705.11 84.9597,1705.04 85.4129,1705.04 C87.7722,1705.04 89.366,1707.15 89.366,1710.25 C89.366,1712.65 88.8191,1714.95 87.7097,1716.86 C86.2097,1719.54 83.9129,1720.86 80.6629,1720.86 C77.866,1720.86 75.4597,1719.45 75.4597,1717.86 C75.4597,1717.29 75.6629,1717.11 76.4597,1716.75 C77.9129,1716.11 78.5222,1715.2 78.5222,1713.86 C78.5222,1712.11 77.116,1710.75 75.3191,1710.75 C73.1629,1710.75 71.7722,1712.45 71.7722,1715.04 C71.7722,1719.9 75.4597,1722.95 81.4597,1722.95 C89.0222,1722.95 94.7722,1717.9 94.7722,1711.2 C94.7722,1709.4 94.2097,1707.86 93.1629,1706.61 C92.0691,1705.29 91.0691,1704.7 88.866,1704"/>
<polyline class="BarLine" fill="none" stroke="#000000" stroke-width="32.51" stroke-linejoin="bevel" points="765.625,714.248 765.625,957.15"/>
<polyline class="BarLine" fill="none" stroke="#000000" stroke-width="10.64" stroke-linejoin="bevel" points="806.995,714.248 806.995,957.15"/>
<path class="BarLine" transform="matrix(2.364,0,0,2.364,836.064,806.149)" d="M10.4063,0 C10.4063,-2.90625 8.09375,-5.29688 5.20313,-5.29688 C2.29688,-5.29688 0,-2.90625 0,0 C0,2.90625 2.29688,5.29688 5.20313,5.29688 C8.09375,5.29688 10.4063,2.90625 10.4063,0"/>
<path class="BarLine" transform="matrix(2.364,0,0,2.364,836.064,865.249)" d="M10.4063,0 C10.4063,-2.90625 8.09375,-5.29688 5.20313,-5.29688 C2.29688,-5.29688 0,-2.90625 0,0 C0,2.90625 2.29688,5.29688 5.20313,5.29688 C8.09375,5.29688 10.4063,2.90625 10.4063,0"/>
<polyline class="BarLine" fill="none" stroke="#000000" stroke-width="10.64" stroke-linejoin="bevel" points="2681.69,714.248 2681.69,957.15"/>
<polyline class="BarLine" fill="none" stroke="#000000" stroke-width="10.64" stroke-linejoin="bevel" points="4132.29,714.248 4132.29,957.15"/>
<polyline class="BarLine" fill="none" stroke="#000000" stroke-width="10.64" stroke-linejoin="bevel" points="2559.07,1837.15 2559.07,2080.05"/>
<path class="BarLine" transform="matrix(2.364,0,0,2.364,4033.41,1929.05)" d="M10.4063,0 C10.4063,-2.90625 8.09375,-5.29688 5.20313,-5.29688 C2.29688,-5.29688 0,-2.90625 0,0 C0,2.90625 2.29688,5.29688 5.20313,5.29688 C8.09375,5.29688 10.4063,2.90625 10.4063,0"/>
<path class="BarLine" transform="matrix(2.364,0,0,2.364,4033.41,1988.15)" d="M10.4063,0 C10.4063,-2.90625 8.09375,-5.29688 5.20313,-5.29688 C2.29688,-5.29688 0,-2.90625 0,0 C0,2.90625 2.29688,5.29688 5.20313,5.29688 C8.09375,5.29688 10.4063,2.90625 10.4063,0"/>
<polyline class="BarLine" fill="none" stroke="#000000" stroke-width="10.64" stroke-linejoin="bevel" points="4087.08,1837.15 4087.08,2080.05"/>
<polyline class="BarLine" fill="none" stroke="#000000" stroke-width="32.51" stroke-linejoin="bevel" points="4128.45,1837.15 4128.45,2080.05"/>
<path class="Accidental" transform="matrix(2.364,0,0,2.364,1191.48,717.499)" d="M16.5938,-18.2969 C16.4063,-18.5 16.0938,-18.5938 15.7969,-18.5938 C15.7031,-18.5938 15.5,-18.5 15.4063,-18.5 L2.79688,-15 L2.79688,-32.5 L0,-32.5 L0,17 C0,17.7969 0.59375,18.2969 1.40625,18.2969 L1.79688,18.2969 L14.4063,14.7969 L14.4063,32.2969 L17.0938,32.2969 L17.0938,-17.2031 C17.0938,-17.5938 16.9063,-18.0938 16.5938,-18.2969 M14.4063,6.5 L2.79688,9.70313 L2.79688,-6.70313 L14.4063,-10 L14.4063,6.5 "/>
<path class="Accidental" transform="matrix(2.364,0,0,2.364,2054.13,628.849)" d="M16.5938,-18.2969 C16.4063,-18.5 16.0938,-18.5938 15.7969,-18.5938 C15.7031,-18.5938 15.5,-18.5 15.4063,-18.5 L2.79688,-15 L2.79688,-32.5 L0,-32.5 L0,17 C0,17.7969 0.59375,18.2969 1.40625,18.2969 L1.79688,18.2969 L14.4063,14.7969 L14.4063,32.2969 L17.0938,32.2969 L17.0938,-17.2031 C17.0938,-17.5938 16.9063,-18.0938 16.5938,-18.2969 M14.4063,6.5 L2.79688,9.70313 L2.79688,-6.70313 L14.4063,-10 L14.4063,6.5 "/>
<path class="Accidental" transform="matrix(2.364,0,0,2.364,3238.47,628.849)" d="M16.5938,-18.2969 C16.4063,-18.5 16.0938,-18.5938 15.7969,-18.5938 C15.7031,-18.5938 15.5,-18.5 15.4063,-18.5 L2.79688,-15 L2.79688,-32.5 L0,-32.5 L0,17 C0,17.7969 0.59375,18.2969 1.40625,18.2969 L1.79688,18.2969 L14.4063,14.7969 L14.4063,32.2969 L17.0938,32.2969 L17.0938,-17.2031 C17.0938,-17.5938 16.9063,-18.0938 16.5938,-18.2969 M14.4063,6.5 L2.79688,9.70313 L2.79688,-6.70313 L14.4063,-10 L14.4063,6.5 "/>
<path class="Accidental" transform="matrix(2.364,0,0,2.364,980.094,1840.4)" d="M16.5938,-18.2969 C16.4063,-18.5 16.0938,-18.5938 15.7969,-18.5938 C15.7031,-18.5938 15.5,-18.5 15.4063,-18.5 L2.79688,-15 L2.79688,-32.5 L0,-32.5 L0,17 C0,17.7969 0.59375,18.2969 1.40625,18.2969 L1.79688,18.2969 L14.4063,14.7969 L14.4063,32.2969 L17.0938,32.2969 L17.0938,-17.2031 C17.0938,-17.5938 16.9063,-18.0938 16.5938,-18.2969 M14.4063,6.5 L2.79688,9.70313 L2.79688,-6.70313 L14.4063,-10 L14.4063,6.5 "/>
<path class="Accidental" transform="matrix(2.364,0,0,2.364,1136.91,1751.75)" d="M16.5938,-18.2969 C16.4063,-18.5 16.0938,-18.5938 15.7969,-18.5938 C15.7031,-18.5938 15.5,-18.5 15.4063,-18.5 L2.79688,-15 L2.79688,-32.5 L0,-32.5 L0,17 C0,17.7969 0.59375,18.2969 1.40625,18.2969 L1.79688,18.2969 L14.4063,14.7969 L14.4063,32.2969 L17.0938,32.2969 L17.0938,-17.2031 C17.0938,-17.5938 16.9063,-18.0938 16.5938,-18.2969 M14.4063,6.5 L2.79688,9.70313 L2.79688,-6.70313 L14.4063,-10 L14.4063,6.5 "/>
<path class="Accidental" transform="matrix(2.364,0,0,2.364,2800.22,1840.4)" d="M16.5938,-18.2969 C16.4063,-18.5 16.0938,-18.5938 15.7969,-18.5938 C15.7031,-18.5938 15.5,-18.5 15.4063,-18.5 L2.79688,-15 L2.79688,-32.5 L0,-32.5 L0,17 C0,17.7969 0.59375,18.2969 1.40625,18.2969 L1.79688,18.2969 L14.4063,14.7969 L14.4063,32.2969 L17.0938,32.2969 L17.0938,-17.2031 C17.0938,-17.5938 16.9063,-18.0938 16.5938,-18.2969 M14.4063,6.5 L2.79688,9.70313 L2.79688,-6.70313 L14.4063,-10 L14.4063,6.5 "/>
<polyline class="LedgerLine" fill="none" stroke="#000000" stroke-width="9.46" stroke-linejoin="bevel" points="909.709,658.399 1027.89,658.399"/>
<polyline class="LedgerLine" fill="none" stroke="#000000" stroke-width="9.46" stroke-linejoin="bevel" points="1061.48,658.399 1179.66,658.399"/>
<polyline class="LedgerLine" fill="none" stroke="#000000" stroke-width="9.46" stroke-linejoin="bevel" points="1377.75,658.399 1495.93,658.399"/>
<polyline class="LedgerLine" fill="none" stroke="#000000" stroke-width="9.46" stroke-linejoin="bevel" points="1377.75,599.299 1495.93,599.299"/>
<polyline class="LedgerLine" fill="none" stroke="#000000" stroke-width="9.46" stroke-linejoin="bevel" points="1529.52,658.399 1647.7,658.399"/>
<polyline class="LedgerLine" fill="none" stroke="#000000" stroke-width="9.46" stroke-linejoin="bevel" points="1529.52,599.299 1647.7,599.299"/>
<polyline class="LedgerLine" fill="none" stroke="#000000" stroke-width="9.46" stroke-linejoin="bevel" points="1772.36,658.399 1890.54,658.399"/>
<polyline class="LedgerLine" fill="none" stroke="#000000" stroke-width="9.46" stroke-linejoin="bevel" points="1924.13,658.399 2042.31,658.399"/>
<polyline class="LedgerLine" fill="none" stroke="#000000" stroke-width="9.46" stroke-linejoin="bevel" points="2109.31,658.399 2227.5,658.399"/>
<polyline class="LedgerLine" fill="none" stroke="#000000" stroke-width="9.46" stroke-linejoin="bevel" points="2261.08,658.399 2379.27,658.399"/>
<polyline class="LedgerLine" fill="none" stroke="#000000" stroke-width="9.46" stroke-linejoin="bevel" points="2952.87,658.399 3071.05,658.399"/>
<polyline class="LedgerLine" fill="none" stroke="#000000" stroke-width="9.46" stroke-linejoin="bevel" points="3083.94,658.399 3202.12,658.399"/>
<polyline class="LedgerLine" fill="none" stroke="#000000" stroke-width="9.46" stroke-linejoin="bevel" points="3293.65,658.399 3411.83,658.399"/>
<polyline class="LedgerLine" fill="none" stroke="#000000" stroke-width="9.46" stroke-linejoin="bevel" points="3424.72,658.399 3542.9,658.399"/>
<polyline class="LedgerLine" fill="none" stroke="#000000" stroke-width="9.46" stroke-linejoin="bevel" points="3555.79,658.399 3673.97,658.399"/>
<polyline class="LedgerLine" fill="none" stroke="#000000" stroke-width="9.46" stroke-linejoin="bevel" points="3686.86,658.399 3805.04,658.399"/>
<polyline class="LedgerLine" fill="none" stroke="#000000" stroke-width="9.46" stroke-linejoin="bevel" points="686.56,1781.3 804.741,1781.3"/>
<polyline class="LedgerLine" fill="none" stroke="#000000" stroke-width="9.46" stroke-linejoin="bevel" points="850.092,1781.3 968.274,1781.3"/>
<polyline class="LedgerLine" fill="none" stroke="#000000" stroke-width="9.46" stroke-linejoin="bevel" points="1192.1,1781.3 1310.28,1781.3"/>
<polyline class="LedgerLine" fill="none" stroke="#000000" stroke-width="9.46" stroke-linejoin="bevel" points="1355.63,1781.3 1473.81,1781.3"/>
<polyline class="LedgerLine" fill="none" stroke="#000000" stroke-width="9.46" stroke-linejoin="bevel" points="1944.35,1781.3 2062.53,1781.3"/>
<polyline class="LedgerLine" fill="none" stroke="#000000" stroke-width="9.46" stroke-linejoin="bevel" points="3182.77,1781.3 3300.95,1781.3"/>
<polyline class="LedgerLine" fill="none" stroke="#000000" stroke-width="9.46" stroke-linejoin="bevel" points="3316.63,1781.3 3434.81,1781.3"/>
<polyline class="LedgerLine" fill="none" stroke="#000000" stroke-width="9.46" stroke-linejoin="bevel" points="3584.36,1781.3 3702.54,1781.3"/>
<polyline class="Stem" fill="none" stroke="#000000" stroke-width="6.50" stroke-linejoin="bevel" points="933.645,666.342 933.645,894.799"/>
<polyline class="Stem" fill="none" stroke="#000000" stroke-width="6.50" stroke-linejoin="bevel" points="1085.42,666.342 1085.42,894.799"/>
<polyline class="Stem" fill="none" stroke="#000000" stroke-width="6.50" stroke-linejoin="bevel" points="1249.92,725.442 1249.92,894.799"/>
<polyline class="Stem" fill="none" stroke="#000000" stroke-width="6.50" stroke-linejoin="bevel" points="1401.69,577.692 1401.69,894.799"/>
<polyline class="Stem" fill="none" stroke="#000000" stroke-width="6.50" stroke-linejoin="bevel" points="1553.46,577.692 1553.46,835.699"/>
<polyline class="Stem" fill="none" stroke="#000000" stroke-width="6.50" stroke-linejoin="bevel" points="1796.29,666.342 1796.29,835.699"/>
<polyline class="Stem" fill="none" stroke="#000000" stroke-width="6.50" stroke-linejoin="bevel" points="1948.06,666.342 1948.06,835.699"/>
<polyline class="Stem" fill="none" stroke="#000000" stroke-width="6.50" stroke-linejoin="bevel" points="2133.25,636.792 2133.25,835.699"/>
<polyline class="Stem" fill="none" stroke="#000000" stroke-width="6.50" stroke-linejoin="bevel" points="2285.02,666.342 2285.02,835.699"/>
<polyline class="Stem" fill="none" stroke="#000000" stroke-width="6.50" stroke-linejoin="bevel" points="2436.79,725.442 2436.79,924.349"/>
<polyline class="Stem" fill="none" stroke="#000000" stroke-width="6.50" stroke-linejoin="bevel" points="2976.8,666.342 2976.8,865.249"/>
<polyline class="Stem" fill="none" stroke="#000000" stroke-width="6.50" stroke-linejoin="bevel" points="3107.87,666.342 3107.87,865.249"/>
<polyline class="Stem" fill="none" stroke="#000000" stroke-width="6.50" stroke-linejoin="bevel" points="3317.59,636.792 3317.59,835.699"/>
<polyline class="Stem" fill="none" stroke="#000000" stroke-width="6.50" stroke-linejoin="bevel" points="3448.66,636.792 3448.66,820.924"/>
<polyline class="Stem" fill="none" stroke="#000000" stroke-width="6.50" stroke-linejoin="bevel" points="3579.73,666.342 3579.73,835.699"/>
<polyline class="Stem" fill="none" stroke="#000000" stroke-width="6.50" stroke-linejoin="bevel" points="3710.8,636.792 3710.8,835.699"/>
<polyline class="Stem" fill="none" stroke="#000000" stroke-width="6.50" stroke-linejoin="bevel" points="710.495,1789.24 710.495,2017.7"/>
<polyline class="Stem" fill="none" stroke="#000000" stroke-width="6.50" stroke-linejoin="bevel" points="874.028,1789.24 874.028,2017.7"/>
<polyline class="Stem" fill="none" stroke="#000000" stroke-width="6.50" stroke-linejoin="bevel" points="1038.53,1848.34 1038.53,2017.7"/>
<polyline class="Stem" fill="none" stroke="#000000" stroke-width="6.50" stroke-linejoin="bevel" points="1216.03,1759.69 1216.03,2017.7"/>
<polyline class="Stem" fill="none" stroke="#000000" stroke-width="6.50" stroke-linejoin="bevel" points="1379.57,1759.69 1379.57,1958.6"/>
<polyline class="Stem" fill="none" stroke="#000000" stroke-width="6.50" stroke-linejoin="bevel" points="1641.22,1848.34 1641.22,2017.7"/>
<polyline class="Stem" fill="none" stroke="#000000" stroke-width="6.50" stroke-linejoin="bevel" points="1804.75,1848.34 1804.75,2017.7"/>
<polyline class="Stem" fill="none" stroke="#000000" stroke-width="6.50" stroke-linejoin="bevel" points="1968.28,1789.24 1968.28,2017.7"/>
<polyline class="Stem" fill="none" stroke="#000000" stroke-width="6.50" stroke-linejoin="bevel" points="2131.81,1848.34 2131.81,2017.7"/>
<polyline class="Stem" fill="none" stroke="#000000" stroke-width="6.50" stroke-linejoin="bevel" points="2295.35,1907.44 2295.35,2098.96"/>
<polyline class="Stem" fill="none" stroke="#000000" stroke-width="6.50" stroke-linejoin="bevel" points="2858.65,1848.34 2858.65,2047.25"/>
<polyline class="Stem" fill="none" stroke="#000000" stroke-width="6.50" stroke-linejoin="bevel" points="2992.52,1848.34 2992.52,2047.25"/>
<polyline class="Stem" fill="none" stroke="#000000" stroke-width="6.50" stroke-linejoin="bevel" points="3206.7,1789.24 3206.7,1988.15"/>
<polyline class="Stem" fill="none" stroke="#000000" stroke-width="6.50" stroke-linejoin="bevel" points="3340.57,1789.24 3340.57,1958.6"/>
<polyline class="Stem" fill="none" stroke="#000000" stroke-width="6.50" stroke-linejoin="bevel" points="3474.43,1848.34 3474.43,2017.7"/>
<polyline class="Stem" fill="none" stroke="#000000" stroke-width="6.50" stroke-linejoin="bevel" points="3608.3,1789.24 3608.3,1988.15"/>
<path class="Note" transform="matrix(2.364,0,0,2.364,930.394,658.399)" d="M31.5,-8.09375 C29.7031,-11.4063 25.9063,-13.2031 21.2969,-13.2031 C17.9063,-13.2031 14.2031,-12.2031 10.5938,-10.2969 C4,-6.79688 0,-0.90625 0,4.20313 C0,5.59375 0.296875,7 1,8.29688 C2.79688,11.5938 6.59375,13.2969 11.2031,13.2969 C14.5938,13.2969 18.2969,12.4063 21.9063,10.5 C28.5,7 32.5,1.09375 32.5,-4 C32.5,-5.40625 32.2031,-6.79688 31.5,-8.09375"/>
<path class="Note" transform="matrix(2.364,0,0,2.364,1082.16,658.399)" d="M31.5,-8.09375 C29.7031,-11.4063 25.9063,-13.2031 21.2969,-13.2031 C17.9063,-13.2031 14.2031,-12.2031 10.5938,-10.2969 C4,-6.79688 0,-0.90625 0,4.20313 C0,5.59375 0.296875,7 1,8.29688 C2.79688,11.5938 6.59375,13.2969 11.2031,13.2969 C14.5938,13.2969 18.2969,12.4063 21.9063,10.5 C28.5,7 32.5,1.09375 32.5,-4 C32.5,-5.40625 32.2031,-6.79688 31.5,-8.09375"/>
<path class="Note" transform="matrix(2.364,0,0,2.364,1246.67,717.499)" d="M31.5,-8.09375 C29.7031,-11.4063 25.9063,-13.2031 21.2969,-13.2031 C17.9063,-13.2031 14.2031,-12.2031 10.5938,-10.2969 C4,-6.79688 0,-0.90625 0,4.20313 C0,5.59375 0.296875,7 1,8.29688 C2.79688,11.5938 6.59375,13.2969 11.2031,13.2969 C14.5938,13.2969 18.2969,12.4063 21.9063,10.5 C28.5,7 32.5,1.09375 32.5,-4 C32.5,-5.40625 32.2031,-6.79688 31.5,-8.09375"/>
<path class="Note" transform="matrix(2.364,0,0,2.364,1398.44,569.749)" d="M31.5,-8.09375 C29.7031,-11.4063 25.9063,-13.2031 21.2969,-13.2031 C17.9063,-13.2031 14.2031,-12.2031 10.5938,-10.2969 C4,-6.79688 0,-0.90625 0,4.20313 C0,5.59375 0.296875,7 1,8.29688 C2.79688,11.5938 6.59375,13.2969 11.2031,13.2969 C14.5938,13.2969 18.2969,12.4063 21.9063,10.5 C28.5,7 32.5,1.09375 32.5,-4 C32.5,-5.40625 32.2031,-6.79688 31.5,-8.09375"/>
<path class="Note" transform="matrix(2.364,0,0,2.364,1550.21,569.749)" d="M31.5,-8.09375 C29.7031,-11.4063 25.9063,-13.2031 21.2969,-13.2031 C17.9063,-13.2031 14.2031,-12.2031 10.5938,-10.2969 C4,-6.79688 0,-0.90625 0,4.20313 C0,5.59375 0.296875,7 1,8.29688 C2.79688,11.5938 6.59375,13.2969 11.2031,13.2969 C14.5938,13.2969 18.2969,12.4063 21.9063,10.5 C28.5,7 32.5,1.09375 32.5,-4 C32.5,-5.40625 32.2031,-6.79688 31.5,-8.09375"/>
<path class="Note" transform="matrix(2.364,0,0,2.364,1793.04,658.399)" d="M31.5,-8.09375 C29.7031,-11.4063 25.9063,-13.2031 21.2969,-13.2031 C17.9063,-13.2031 14.2031,-12.2031 10.5938,-10.2969 C4,-6.79688 0,-0.90625 0,4.20313 C0,5.59375 0.296875,7 1,8.29688 C2.79688,11.5938 6.59375,13.2969 11.2031,13.2969 C14.5938,13.2969 18.2969,12.4063 21.9063,10.5 C28.5,7 32.5,1.09375 32.5,-4 C32.5,-5.40625 32.2031,-6.79688 31.5,-8.09375"/>
<path class="Note" transform="matrix(2.364,0,0,2.364,1944.81,658.399)" d="M31.5,-8.09375 C29.7031,-11.4063 25.9063,-13.2031 21.2969,-13.2031 C17.9063,-13.2031 14.2031,-12.2031 10.5938,-10.2969 C4,-6.79688 0,-0.90625 0,4.20313 C0,5.59375 0.296875,7 1,8.29688 C2.79688,11.5938 6.59375,13.2969 11.2031,13.2969 C14.5938,13.2969 18.2969,12.4063 21.9063,10.5 C28.5,7 32.5,1.09375 32.5,-4 C32.5,-5.40625 32.2031,-6.79688 31.5,-8.09375"/>
<path class="Note" transform="matrix(2.364,0,0,2.364,2130,628.849)" d="M31.5,-8.09375 C29.7031,-11.4063 25.9063,-13.2031 21.2969,-13.2031 C17.9063,-13.2031 14.2031,-12.2031 10.5938,-10.2969 C4,-6.79688 0,-0.90625 0,4.20313 C0,5.59375 0.296875,7 1,8.29688 C2.79688,11.5938 6.59375,13.2969 11.2031,13.2969 C14.5938,13.2969 18.2969,12.4063 21.9063,10.5 C28.5,7 32.5,1.09375 32.5,-4 C32.5,-5.40625 32.2031,-6.79688 31.5,-8.09375"/>
<path class="Note" transform="matrix(2.364,0,0,2.364,2281.77,658.399)" d="M31.5,-8.09375 C29.7031,-11.4063 25.9063,-13.2031 21.2969,-13.2031 C17.9063,-13.2031 14.2031,-12.2031 10.5938,-10.2969 C4,-6.79688 0,-0.90625 0,4.20313 C0,5.59375 0.296875,7 1,8.29688 C2.79688,11.5938 6.59375,13.2969 11.2031,13.2969 C14.5938,13.2969 18.2969,12.4063 21.9063,10.5 C28.5,7 32.5,1.09375 32.5,-4 C32.5,-5.40625 32.2031,-6.79688 31.5,-8.09375"/>
<path class="Note" transform="matrix(2.364,0,0,2.364,2433.54,717.499)" d="M31.5,-8.09375 C29.7031,-11.4063 25.9063,-13.2031 21.2969,-13.2031 C17.9063,-13.2031 14.2031,-12.2031 10.5938,-10.2969 C4,-6.79688 0,-0.90625 0,4.20313 C0,5.59375 0.296875,7 1,8.29688 C2.79688,11.5938 6.59375,13.2969 11.2031,13.2969 C14.5938,13.2969 18.2969,12.4063 21.9063,10.5 C28.5,7 32.5,1.09375 32.5,-4 C32.5,-5.40625 32.2031,-6.79688 31.5,-8.09375"/>
<path class="Note" transform="matrix(2.364,0,0,2.364,2973.55,658.399)" d="M31.5,-8.09375 C29.7031,-11.4063 25.9063,-13.2031 21.2969,-13.2031 C17.9063,-13.2031 14.2031,-12.2031 10.5938,-10.2969 C4,-6.79688 0,-0.90625 0,4.20313 C0,5.59375 0.296875,7 1,8.29688 C2.79688,11.5938 6.59375,13.2969 11.2031,13.2969 C14.5938,13.2969 18.2969,12.4063 21.9063,10.5 C28.5,7 32.5,1.09375 32.5,-4 C32.5,-5.40625 32.2031,-6.79688 31.5,-8.09375"/>
<path class="Note" transform="matrix(2.364,0,0,2.364,3104.62,658.399)" d="M31.5,-8.09375 C29.7031,-11.4063 25.9063,-13.2031 21.2969,-13.2031 C17.9063,-13.2031 14.2031,-12.2031 10.5938,-10.2969 C4,-6.79688 0,-0.90625 0,4.20313 C0,5.59375 0.296875,7 1,8.29688 C2.79688,11.5938 6.59375,13.2969 11.2031,13.2969 C14.5938,13.2969 18.2969,12.4063 21.9063,10.5 C28.5,7 32.5,1.09375 32.5,-4 C32.5,-5.40625 32.2031,-6.79688 31.5,-8.09375"/>
<path class="Note" transform="matrix(2.364,0,0,2.364,3314.34,628.849)" d="M31.5,-8.09375 C29.7031,-11.4063 25.9063,-13.2031 21.2969,-13.2031 C17.9063,-13.2031 14.2031,-12.2031 10.5938,-10.2969 C4,-6.79688 0,-0.90625 0,4.20313 C0,5.59375 0.296875,7 1,8.29688 C2.79688,11.5938 6.59375,13.2969 11.2031,13.2969 C14.5938,13.2969 18.2969,12.4063 21.9063,10.5 C28.5,7 32.5,1.09375 32.5,-4 C32.5,-5.40625 32.2031,-6.79688 31.5,-8.09375"/>
<path class="Note" transform="matrix(2.364,0,0,2.364,3445.41,628.849)" d="M31.5,-8.09375 C29.7031,-11.4063 25.9063,-13.2031 21.2969,-13.2031 C17.9063,-13.2031 14.2031,-12.2031 10.5938,-10.2969 C4,-6.79688 0,-0.90625 0,4.20313 C0,5.59375 0.296875,7 1,8.29688 C2.79688,11.5938 6.59375,13.2969 11.2031,13.2969 C14.5938,13.2969 18.2969,12.4063 21.9063,10.5 C28.5,7 32.5,1.09375 32.5,-4 C32.5,-5.40625 32.2031,-6.79688 31.5,-8.09375"/>
<path class="Note" transform="matrix(2.364,0,0,2.364,3576.47,658.399)" d="M31.5,-8.09375 C29.7031,-11.4063 25.9063,-13.2031 21.2969,-13.2031 C17.9063,-13.2031 14.2031,-12.2031 10.5938,-10.2969 C4,-6.79688 0,-0.90625 0,4.20313 C0,5.59375 0.296875,7 1,8.29688 C2.79688,11.5938 6.59375,13.2969 11.2031,13.2969 C14.5938,13.2969 18.2969,12.4063 21.9063,10.5 C28.5,7 32.5,1.09375 32.5,-4 C32.5,-5.40625 32.2031,-6.79688 31.5,-8.09375"/>
<path class="Note" transform="matrix(2.364,0,0,2.364,3707.54,628.849)" d="M31.5,-8.09375 C29.7031,-11.4063 25.9063,-13.2031 21.2969,-13.2031 C17.9063,-13.2031 14.2031,-12.2031 10.5938,-10.2969 C4,-6.79688 0,-0.90625 0,4.20313 C0,5.59375 0.296875,7 1,8.29688 C2.79688,11.5938 6.59375,13.2969 11.2031,13.2969 C14.5938,13.2969 18.2969,12.4063 21.9063,10.5 C28.5,7 32.5,1.09375 32.5,-4 C32.5,-5.40625 32.2031,-6.79688 31.5,-8.09375"/>
<path class="Note" transform="matrix(2.364,0,0,2.364,707.245,1781.3)" d="M31.5,-8.09375 C29.7031,-11.4063 25.9063,-13.2031 21.2969,-13.2031 C17.9063,-13.2031 14.2031,-12.2031 10.5938,-10.2969 C4,-6.79688 0,-0.90625 0,4.20313 C0,5.59375 0.296875,7 1,8.29688 C2.79688,11.5938 6.59375,13.2969 11.2031,13.2969 C14.5938,13.2969 18.2969,12.4063 21.9063,10.5 C28.5,7 32.5,1.09375 32.5,-4 C32.5,-5.40625 32.2031,-6.79688 31.5,-8.09375"/>
<path class="Note" transform="matrix(2.364,0,0,2.364,870.777,1781.3)" d="M31.5,-8.09375 C29.7031,-11.4063 25.9063,-13.2031 21.2969,-13.2031 C17.9063,-13.2031 14.2031,-12.2031 10.5938,-10.2969 C4,-6.79688 0,-0.90625 0,4.20313 C0,5.59375 0.296875,7 1,8.29688 C2.79688,11.5938 6.59375,13.2969 11.2031,13.2969 C14.5938,13.2969 18.2969,12.4063 21.9063,10.5 C28.5,7 32.5,1.09375 32.5,-4 C32.5,-5.40625 32.2031,-6.79688 31.5,-8.09375"/>
<path class="Note" transform="matrix(2.364,0,0,2.364,1035.28,1840.4)" d="M31.5,-8.09375 C29.7031,-11.4063 25.9063,-13.2031 21.2969,-13.2031 C17.9063,-13.2031 14.2031,-12.2031 10.5938,-10.2969 C4,-6.79688 0,-0.90625 0,4.20313 C0,5.59375 0.296875,7 1,8.29688 C2.79688,11.5938 6.59375,13.2969 11.2031,13.2969 C14.5938,13.2969 18.2969,12.4063 21.9063,10.5 C28.5,7 32.5,1.09375 32.5,-4 C32.5,-5.40625 32.2031,-6.79688 31.5,-8.09375"/>
<path class="Note" transform="matrix(2.364,0,0,2.364,1212.78,1751.75)" d="M31.5,-8.09375 C29.7031,-11.4063 25.9063,-13.2031 21.2969,-13.2031 C17.9063,-13.2031 14.2031,-12.2031 10.5938,-10.2969 C4,-6.79688 0,-0.90625 0,4.20313 C0,5.59375 0.296875,7 1,8.29688 C2.79688,11.5938 6.59375,13.2969 11.2031,13.2969 C14.5938,13.2969 18.2969,12.4063 21.9063,10.5 C28.5,7 32.5,1.09375 32.5,-4 C32.5,-5.40625 32.2031,-6.79688 31.5,-8.09375"/>
<path class="Note" transform="matrix(2.364,0,0,2.364,1376.31,1751.75)" d="M31.5,-8.09375 C29.7031,-11.4063 25.9063,-13.2031 21.2969,-13.2031 C17.9063,-13.2031 14.2031,-12.2031 10.5938,-10.2969 C4,-6.79688 0,-0.90625 0,4.20313 C0,5.59375 0.296875,7 1,8.29688 C2.79688,11.5938 6.59375,13.2969 11.2031,13.2969 C14.5938,13.2969 18.2969,12.4063 21.9063,10.5 C28.5,7 32.5,1.09375 32.5,-4 C32.5,-5.40625 32.2031,-6.79688 31.5,-8.09375"/>
<path class="Note" transform="matrix(2.364,0,0,2.364,1637.97,1840.4)" d="M31.5,-8.09375 C29.7031,-11.4063 25.9063,-13.2031 21.2969,-13.2031 C17.9063,-13.2031 14.2031,-12.2031 10.5938,-10.2969 C4,-6.79688 0,-0.90625 0,4.20313 C0,5.59375 0.296875,7 1,8.29688 C2.79688,11.5938 6.59375,13.2969 11.2031,13.2969 C14.5938,13.2969 18.2969,12.4063 21.9063,10.5 C28.5,7 32.5,1.09375 32.5,-4 C32.5,-5.40625 32.2031,-6.79688 31.5,-8.09375"/>
<path class="Note" transform="matrix(2.364,0,0,2.364,1801.5,1840.4)" d="M31.5,-8.09375 C29.7031,-11.4063 25.9063,-13.2031 21.2969,-13.2031 C17.9063,-13.2031 14.2031,-12.2031 10.5938,-10.2969 C4,-6.79688 0,-0.90625 0,4.20313 C0,5.59375 0.296875,7 1,8.29688 C2.79688,11.5938 6.59375,13.2969 11.2031,13.2969 C14.5938,13.2969 18.2969,12.4063 21.9063,10.5 C28.5,7 32.5,1.09375 32.5,-4 C32.5,-5.40625 32.2031,-6.79688 31.5,-8.09375"/>
<path class="Note" transform="matrix(2.364,0,0,2.364,1965.03,1781.3)" d="M31.5,-8.09375 C29.7031,-11.4063 25.9063,-13.2031 21.2969,-13.2031 C17.9063,-13.2031 14.2031,-12.2031 10.5938,-10.2969 C4,-6.79688 0,-0.90625 0,4.20313 C0,5.59375 0.296875,7 1,8.29688 C2.79688,11.5938 6.59375,13.2969 11.2031,13.2969 C14.5938,13.2969 18.2969,12.4063 21.9063,10.5 C28.5,7 32.5,1.09375 32.5,-4 C32.5,-5.40625 32.2031,-6.79688 31.5,-8.09375"/>
<path class="Note" transform="matrix(2.364,0,0,2.364,2128.56,1840.4)" d="M31.5,-8.09375 C29.7031,-11.4063 25.9063,-13.2031 21.2969,-13.2031 C17.9063,-13.2031 14.2031,-12.2031 10.5938,-10.2969 C4,-6.79688 0,-0.90625 0,4.20313 C0,5.59375 0.296875,7 1,8.29688 C2.79688,11.5938 6.59375,13.2969 11.2031,13.2969 C14.5938,13.2969 18.2969,12.4063 21.9063,10.5 C28.5,7 32.5,1.09375 32.5,-4 C32.5,-5.40625 32.2031,-6.79688 31.5,-8.09375"/>
<path class="Note" transform="matrix(2.364,0,0,2.364,2292.1,1899.5)" d="M31.5,-8.09375 C29.7031,-11.4063 25.9063,-13.2031 21.2969,-13.2031 C17.9063,-13.2031 14.2031,-12.2031 10.5938,-10.2969 C4,-6.79688 0,-0.90625 0,4.20313 C0,5.59375 0.296875,7 1,8.29688 C2.79688,11.5938 6.59375,13.2969 11.2031,13.2969 C14.5938,13.2969 18.2969,12.4063 21.9063,10.5 C28.5,7 32.5,1.09375 32.5,-4 C32.5,-5.40625 32.2031,-6.79688 31.5,-8.09375"/>
<path class="Note" transform="matrix(2.364,0,0,2.364,2855.4,1840.4)" d="M31.5,-8.09375 C29.7031,-11.4063 25.9063,-13.2031 21.2969,-13.2031 C17.9063,-13.2031 14.2031,-12.2031 10.5938,-10.2969 C4,-6.79688 0,-0.90625 0,4.20313 C0,5.59375 0.296875,7 1,8.29688 C2.79688,11.5938 6.59375,13.2969 11.2031,13.2969 C14.5938,13.2969 18.2969,12.4063 21.9063,10.5 C28.5,7 32.5,1.09375 32.5,-4 C32.5,-5.40625 32.2031,-6.79688 31.5,-8.09375"/>
<path class="Note" transform="matrix(2.364,0,0,2.364,2989.27,1840.4)" d="M31.5,-8.09375 C29.7031,-11.4063 25.9063,-13.2031 21.2969,-13.2031 C17.9063,-13.2031 14.2031,-12.2031 10.5938,-10.2969 C4,-6.79688 0,-0.90625 0,4.20313 C0,5.59375 0.296875,7 1,8.29688 C2.79688,11.5938 6.59375,13.2969 11.2031,13.2969 C14.5938,13.2969 18.2969,12.4063 21.9063,10.5 C28.5,7 32.5,1.09375 32.5,-4 C32.5,-5.40625 32.2031,-6.79688 31.5,-8.09375"/>
<path class="Note" transform="matrix(2.364,0,0,2.364,3203.45,1781.3)" d="M31.5,-8.09375 C29.7031,-11.4063 25.9063,-13.2031 21.2969,-13.2031 C17.9063,-13.2031 14.2031,-12.2031 10.5938,-10.2969 C4,-6.79688 0,-0.90625 0,4.20313 C0,5.59375 0.296875,7 1,8.29688 C2.79688,11.5938 6.59375,13.2969 11.2031,13.2969 C14.5938,13.2969 18.2969,12.4063 21.9063,10.5 C28.5,7 32.5,1.09375 32.5,-4 C32.5,-5.40625 32.2031,-6.79688 31.5,-8.09375"/>
<path class="Note" transform="matrix(2.364,0,0,2.364,3337.32,1781.3)" d="M31.5,-8.09375 C29.7031,-11.4063 25.9063,-13.2031 21.2969,-13.2031 C17.9063,-13.2031 14.2031,-12.2031 10.5938,-10.2969 C4,-6.79688 0,-0.90625 0,4.20313 C0,5.59375 0.296875,7 1,8.29688 C2.79688,11.5938 6.59375,13.2969 11.2031,13.2969 C14.5938,13.2969 18.2969,12.4063 21.9063,10.5 C28.5,7 32.5,1.09375 32.5,-4 C32.5,-5.40625 32.2031,-6.79688 31.5,-8.09375"/>
<path class="Note" transform="matrix(2.364,0,0,2.364,3471.18,1840.4)" d="M31.5,-8.09375 C29.7031,-11.4063 25.9063,-13.2031 21.2969,-13.2031 C17.9063,-13.2031 14.2031,-12.2031 10.5938,-10.2969 C4,-6.79688 0,-0.90625 0,4.20313 C0,5.59375 0.296875,7 1,8.29688 C2.79688,11.5938 6.59375,13.2969 11.2031,13.2969 C14.5938,13.2969 18.2969,12.4063 21.9063,10.5 C28.5,7 32.5,1.09375 32.5,-4 C32.5,-5.40625 32.2031,-6.79688 31.5,-8.09375"/>
<path class="Note" transform="matrix(2.364,0,0,2.364,3605.05,1781.3)" d="M31.5,-8.09375 C29.7031,-11.4063 25.9063,-13.2031 21.2969,-13.2031 C17.9063,-13.2031 14.2031,-12.2031 10.5938,-10.2969 C4,-6.79688 0,-0.90625 0,4.20313 C0,5.59375 0.296875,7 1,8.29688 C2.79688,11.5938 6.59375,13.2969 11.2031,13.2969 C14.5938,13.2969 18.2969,12.4063 21.9063,10.5 C28.5,7 32.5,1.09375 32.5,-4 C32.5,-5.40625 32.2031,-6.79688 31.5,-8.09375"/>
<path class="Clef" transform="matrix(2.364,0,0,2.364,118.146,776.599)" d="M25.4063,-25.0938 C17.7969,-25.0938 11.7031,-20.7031 11.5938,-20.7031 C5.79688,-16.4063 3.5,-11.2969 2.59375,-7.79688 C2.09375,-6 1.90625,-4.20313 1.90625,-2.5 C1.90625,-0.09375 2.29688,2.09375 3.20313,4 C4.40625,6.70313 6.70313,8.59375 9.70313,9.59375 C10.9063,10 12.2031,10.2031 13.5,10.2031 C15.7031,10.2031 18,9.59375 19.9063,8.5 C23,6.79688 24.9063,3.20313 24.9063,-0.703125 C24.9063,-4.20313 23.0938,-7.40625 20.0938,-9.29688 C18,-10.7031 16,-11.0938 14.2969,-11.0938 C13.0938,-11.0938 12,-10.9063 11.0938,-10.5938 C10.0938,-10.2031 8.40625,-9.20313 7.59375,-8.5 C7.90625,-10.4063 9.09375,-13.2969 10.2031,-14.9063 C11.2969,-16.5 13.5,-18.5 15.2031,-19.4063 C17.7031,-20.7969 20.9063,-21.4063 24.4063,-21.4063 C34.6094,-21.4063 39.6094,-13.2031 39.6094,3.59375 C39.6094,12.9063 36.1094,21.7969 33.1094,27.7031 C29.7969,34.2969 25.4063,40.6094 21.5,44.1094 C11.0938,53.6094 1.29688,58.1094 1.20313,58.1094 C1.20313,58.1094 -0.296875,59 0.09375,60.5 C0.40625,61.5 1.29688,61.7031 1.90625,61.7031 C2,61.7031 2.29688,61.6094 2.40625,61.6094 C2.5,61.6094 13.9063,56.9063 23,49.7969 C28.1094,46.1094 32.7031,42.1094 36.7031,37.7969 C40.2969,33.9063 43.4063,29.7031 45.9063,25.5 C50.2969,18 52.7969,10.2031 52.7969,3.5 C52.7969,-4.79688 50.6094,-11.7031 46.5,-16.5938 C41.7969,-22.2031 34.7031,-25.0938 25.4063,-25.0938 M56.7969,-12.4063 C56.7969,-9.59375 59,-7.40625 61.6094,-7.40625 C64.2031,-7.40625 66.4063,-9.59375 66.4063,-12.4063 C66.4063,-15.2031 64.2031,-17.5 61.6094,-17.5 C59,-17.5 56.7969,-15.2031 56.7969,-12.4063 M56.7969,12.2969 C56.7969,15.0938 59,17.4063 61.6094,17.4063 C64.2031,17.4063 66.4063,15.0938 66.4063,12.2969 C66.4063,9.5 64.2031,7.20313 61.6094,7.20313 C59,7.20313 56.7969,9.5 56.7969,12.2969"/>
<path class="Clef" transform="matrix(2.364,0,0,2.364,118.146,1899.5)" d="M25.4063,-25.0938 C17.7969,-25.0938 11.7031,-20.7031 11.5938,-20.7031 C5.79688,-16.4063 3.5,-11.2969 2.59375,-7.79688 C2.09375,-6 1.90625,-4.20313 1.90625,-2.5 C1.90625,-0.09375 2.29688,2.09375 3.20313,4 C4.40625,6.70313 6.70313,8.59375 9.70313,9.59375 C10.9063,10 12.2031,10.2031 13.5,10.2031 C15.7031,10.2031 18,9.59375 19.9063,8.5 C23,6.79688 24.9063,3.20313 24.9063,-0.703125 C24.9063,-4.20313 23.0938,-7.40625 20.0938,-9.29688 C18,-10.7031 16,-11.0938 14.2969,-11.0938 C13.0938,-11.0938 12,-10.9063 11.0938,-10.5938 C10.0938,-10.2031 8.40625,-9.20313 7.59375,-8.5 C7.90625,-10.4063 9.09375,-13.2969 10.2031,-14.9063 C11.2969,-16.5 13.5,-18.5 15.2031,-19.4063 C17.7031,-20.7969 20.9063,-21.4063 24.4063,-21.4063 C34.6094,-21.4063 39.6094,-13.2031 39.6094,3.59375 C39.6094,12.9063 36.1094,21.7969 33.1094,27.7031 C29.7969,34.2969 25.4063,40.6094 21.5,44.1094 C11.0938,53.6094 1.29688,58.1094 1.20313,58.1094 C1.20313,58.1094 -0.296875,59 0.09375,60.5 C0.40625,61.5 1.29688,61.7031 1.90625,61.7031 C2,61.7031 2.29688,61.6094 2.40625,61.6094 C2.5,61.6094 13.9063,56.9063 23,49.7969 C28.1094,46.1094 32.7031,42.1094 36.7031,37.7969 C40.2969,33.9063 43.4063,29.7031 45.9063,25.5 C50.2969,18 52.7969,10.2031 52.7969,3.5 C52.7969,-4.79688 50.6094,-11.7031 46.5,-16.5938 C41.7969,-22.2031 34.7031,-25.0938 25.4063,-25.0938 M56.7969,-12.4063 C56.7969,-9.59375 59,-7.40625 61.6094,-7.40625 C64.2031,-7.40625 66.4063,-9.59375 66.4063,-12.4063 C66.4063,-15.2031 64.2031,-17.5 61.6094,-17.5 C59,-17.5 56.7969,-15.2031 56.7969,-12.4063 M56.7969,12.2969 C56.7969,15.0938 59,17.4063 61.6094,17.4063 C64.2031,17.4063 66.4063,15.0938 66.4063,12.2969 C66.4063,9.5 64.2031,7.20313 61.6094,7.20313 C59,7.20313 56.7969,9.5 56.7969,12.2969"/>
<path class="KeySig" transform="matrix(2.364,0,0,2.364,511.513,835.699)" d="M20.0938,-7.90625 C19.5,-11.7969 17.0938,-15.5 12,-15.5 C7,-15.5 4.09375,-12.4063 3.59375,-11.7969 L4,-43.9063 C4,-44.7031 3.40625,-45.2969 2.59375,-45.2969 L1.40625,-45.2969 C0.59375,-45.2969 0,-44.7031 0,-43.9063 L0.5,16.2031 C0.5,17 1.09375,17.5938 1.90625,17.5938 C2.09375,17.5938 2.5,17.5 2.70313,17.4063 C3.09375,17.2031 9.59375,14 15,7.90625 C18.7969,3.59375 20.2969,-1.29688 20.2969,-5.40625 C20.2969,-6.29688 20.2031,-7.09375 20.0938,-7.90625 M13.2031,-4 C13.2031,-2.5 12.7969,2.09375 10.2969,5.90625 C8.59375,8.5 5.20313,11.2031 3.29688,12.7031 L3.59375,-6.79688 C3.79688,-7.70313 5.29688,-10.5938 9.29688,-10.5938 C12.9063,-10.5938 13.2031,-7.20313 13.2031,-5.09375 L13.2031,-4 "/>
<path class="KeySig" transform="matrix(2.364,0,0,2.364,452.413,924.349)" d="M20.0938,-7.90625 C19.5,-11.7969 17.0938,-15.5 12,-15.5 C7,-15.5 4.09375,-12.4063 3.59375,-11.7969 L4,-43.9063 C4,-44.7031 3.40625,-45.2969 2.59375,-45.2969 L1.40625,-45.2969 C0.59375,-45.2969 0,-44.7031 0,-43.9063 L0.5,16.2031 C0.5,17 1.09375,17.5938 1.90625,17.5938 C2.09375,17.5938 2.5,17.5 2.70313,17.4063 C3.09375,17.2031 9.59375,14 15,7.90625 C18.7969,3.59375 20.2969,-1.29688 20.2969,-5.40625 C20.2969,-6.29688 20.2031,-7.09375 20.0938,-7.90625 M13.2031,-4 C13.2031,-2.5 12.7969,2.09375 10.2969,5.90625 C8.59375,8.5 5.20313,11.2031 3.29688,12.7031 L3.59375,-6.79688 C3.79688,-7.70313 5.29688,-10.5938 9.29688,-10.5938 C12.9063,-10.5938 13.2031,-7.20313 13.2031,-5.09375 L13.2031,-4 "/>
<path class="KeySig" transform="matrix(2.364,0,0,2.364,393.312,806.149)" d="M20.0938,-7.90625 C19.5,-11.7969 17.0938,-15.5 12,-15.5 C7,-15.5 4.09375,-12.4063 3.59375,-11.7969 L4,-43.9063 C4,-44.7031 3.40625,-45.2969 2.59375,-45.2969 L1.40625,-45.2969 C0.59375,-45.2969 0,-44.7031 0,-43.9063 L0.5,16.2031 C0.5,17 1.09375,17.5938 1.90625,17.5938 C2.09375,17.5938 2.5,17.5 2.70313,17.4063 C3.09375,17.2031 9.59375,14 15,7.90625 C18.7969,3.59375 20.2969,-1.29688 20.2969,-5.40625 C20.2969,-6.29688 20.2031,-7.09375 20.0938,-7.90625 M13.2031,-4 C13.2031,-2.5 12.7969,2.09375 10.2969,5.90625 C8.59375,8.5 5.20313,11.2031 3.29688,12.7031 L3.59375,-6.79688 C3.79688,-7.70313 5.29688,-10.5938 9.29688,-10.5938 C12.9063,-10.5938 13.2031,-7.20313 13.2031,-5.09375 L13.2031,-4 "/>
<path class="KeySig" transform="matrix(2.364,0,0,2.364,334.212,894.799)" d="M20.0938,-7.90625 C19.5,-11.7969 17.0938,-15.5 12,-15.5 C7,-15.5 4.09375,-12.4063 3.59375,-11.7969 L4,-43.9063 C4,-44.7031 3.40625,-45.2969 2.59375,-45.2969 L1.40625,-45.2969 C0.59375,-45.2969 0,-44.7031 0,-43.9063 L0.5,16.2031 C0.5,17 1.09375,17.5938 1.90625,17.5938 C2.09375,17.5938 2.5,17.5 2.70313,17.4063 C3.09375,17.2031 9.59375,14 15,7.90625 C18.7969,3.59375 20.2969,-1.29688 20.2969,-5.40625 C20.2969,-6.29688 20.2031,-7.09375 20.0938,-7.90625 M13.2031,-4 C13.2031,-2.5 12.7969,2.09375 10.2969,5.90625 C8.59375,8.5 5.20313,11.2031 3.29688,12.7031 L3.59375,-6.79688 C3.79688,-7.70313 5.29688,-10.5938 9.29688,-10.5938 C12.9063,-10.5938 13.2031,-7.20313 13.2031,-5.09375 L13.2031,-4 "/>
<path class="KeySig" transform="matrix(2.364,0,0,2.364,511.513,1958.6)" d="M20.0938,-7.90625 C19.5,-11.7969 17.0938,-15.5 12,-15.5 C7,-15.5 4.09375,-12.4063 3.59375,-11.7969 L4,-43.9063 C4,-44.7031 3.40625,-45.2969 2.59375,-45.2969 L1.40625,-45.2969 C0.59375,-45.2969 0,-44.7031 0,-43.9063 L0.5,16.2031 C0.5,17 1.09375,17.5938 1.90625,17.5938 C2.09375,17.5938 2.5,17.5 2.70313,17.4063 C3.09375,17.2031 9.59375,14 15,7.90625 C18.7969,3.59375 20.2969,-1.29688 20.2969,-5.40625 C20.2969,-6.29688 20.2031,-7.09375 20.0938,-7.90625 M13.2031,-4 C13.2031,-2.5 12.7969,2.09375 10.2969,5.90625 C8.59375,8.5 5.20313,11.2031 3.29688,12.7031 L3.59375,-6.79688 C3.79688,-7.70313 5.29688,-10.5938 9.29688,-10.5938 C12.9063,-10.5938 13.2031,-7.20313 13.2031,-5.09375 L13.2031,-4 "/>
<path class="KeySig" transform="matrix(2.364,0,0,2.364,452.413,2047.25)" d="M20.0938,-7.90625 C19.5,-11.7969 17.0938,-15.5 12,-15.5 C7,-15.5 4.09375,-12.4063 3.59375,-11.7969 L4,-43.9063 C4,-44.7031 3.40625,-45.2969 2.59375,-45.2969 L1.40625,-45.2969 C0.59375,-45.2969 0,-44.7031 0,-43.9063 L0.5,16.2031 C0.5,17 1.09375,17.5938 1.90625,17.5938 C2.09375,17.5938 2.5,17.5 2.70313,17.4063 C3.09375,17.2031 9.59375,14 15,7.90625 C18.7969,3.59375 20.2969,-1.29688 20.2969,-5.40625 C20.2969,-6.29688 20.2031,-7.09375 20.0938,-7.90625 M13.2031,-4 C13.2031,-2.5 12.7969,2.09375 10.2969,5.90625 C8.59375,8.5 5.20313,11.2031 3.29688,12.7031 L3.59375,-6.79688 C3.79688,-7.70313 5.29688,-10.5938 9.29688,-10.5938 C12.9063,-10.5938 13.2031,-7.20313 13.2031,-5.09375 L13.2031,-4 "/>
<path class="KeySig" transform="matrix(2.364,0,0,2.364,393.312,1929.05)" d="M20.0938,-7.90625 C19.5,-11.7969 17.0938,-15.5 12,-15.5 C7,-15.5 4.09375,-12.4063 3.59375,-11.7969 L4,-43.9063 C4,-44.7031 3.40625,-45.2969 2.59375,-45.2969 L1.40625,-45.2969 C0.59375,-45.2969 0,-44.7031 0,-43.9063 L0.5,16.2031 C0.5,17 1.09375,17.5938 1.90625,17.5938 C2.09375,17.5938 2.5,17.5 2.70313,17.4063 C3.09375,17.2031 9.59375,14 15,7.90625 C18.7969,3.59375 20.2969,-1.29688 20.2969,-5.40625 C20.2969,-6.29688 20.2031,-7.09375 20.0938,-7.90625 M13.2031,-4 C13.2031,-2.5 12.7969,2.09375 10.2969,5.90625 C8.59375,8.5 5.20313,11.2031 3.29688,12.7031 L3.59375,-6.79688 C3.79688,-7.70313 5.29688,-10.5938 9.29688,-10.5938 C12.9063,-10.5938 13.2031,-7.20313 13.2031,-5.09375 L13.2031,-4 "/>
<path class="KeySig" transform="matrix(2.364,0,0,2.364,334.212,2017.7)" d="M20.0938,-7.90625 C19.5,-11.7969 17.0938,-15.5 12,-15.5 C7,-15.5 4.09375,-12.4063 3.59375,-11.7969 L4,-43.9063 C4,-44.7031 3.40625,-45.2969 2.59375,-45.2969 L1.40625,-45.2969 C0.59375,-45.2969 0,-44.7031 0,-43.9063 L0.5,16.2031 C0.5,17 1.09375,17.5938 1.90625,17.5938 C2.09375,17.5938 2.5,17.5 2.70313,17.4063 C3.09375,17.2031 9.59375,14 15,7.90625 C18.7969,3.59375 20.2969,-1.29688 20.2969,-5.40625 C20.2969,-6.29688 20.2031,-7.09375 20.0938,-7.90625 M13.2031,-4 C13.2031,-2.5 12.7969,2.09375 10.2969,5.90625 C8.59375,8.5 5.20313,11.2031 3.29688,12.7031 L3.59375,-6.79688 C3.79688,-7.70313 5.29688,-10.5938 9.29688,-10.5938 C12.9063,-10.5938 13.2031,-7.20313 13.2031,-5.09375 L13.2031,-4 "/>
<path class="TimeSig" transform="matrix(2.364,0,0,2.364,621.956,777.781)" d="M24.7031,-4.79688 C18.5938,-4.79688 16.4063,-3 15,-1.5 C14.7031,-3.59375 14.5,-5.20313 14.5,-6.79688 C14.5,-8.40625 14.7031,-9.79688 15,-11.5938 C15.5938,-15.2969 18.0938,-19.9063 23.5,-19.9063 C26,-19.9063 27.5,-19.0938 28.5,-18 C26.4063,-17.0938 24.7031,-14.4063 24.7031,-12.0938 C24.7031,-8.5 27.5,-5.70313 31.1094,-5.70313 C34.7031,-5.70313 37.6094,-8.5 37.6094,-12.0938 L37.6094,-12.2969 L37.6094,-12.4063 C37.6094,-13.2969 37.4063,-14.7969 37,-15.5938 C35.7031,-19.2031 31.5,-24.5 21.5,-24.5 C12.5,-24.5 6,-15.9063 4,-11.2969 C3,-8.90625 1.5,-4 1.5,1.59375 C1.5,7.70313 3.20313,14.5938 9.09375,19.7969 C14.9063,24.2031 18.5938,24.4063 22.0938,24.4063 C25.6094,24.4063 38.7031,20.2969 38.7031,8.70313 C38.7031,-1.09375 31,-4.79688 24.7031,-4.79688 M21,20.2031 C17.7031,20.2031 15,15.7031 15,10.0938 C15,4.5 17.7031,-0.09375 21,-0.09375 C24.2969,-0.09375 27.1094,4.5 27.1094,10.0938 C27.1094,15.7031 24.2969,20.2031 21,20.2031"/>
<path class="TimeSig" transform="matrix(2.364,0,0,2.364,615.344,894.485)" d="M3.59375,12.625 L20.7656,12.625 L20.7656,20.0781 L12.5469,20.0781 C11.7656,20.0781 11.125,20.7031 11.125,21.4844 L11.125,23.3906 C11.125,24.1719 11.7656,24.7969 12.5469,24.7969 L42.7969,24.7969 C43.5781,24.7969 44.2031,24.1719 44.2031,23.3906 L44.2031,21.4844 C44.2031,20.7031 43.5781,20.0781 42.7969,20.0781 L33.8594,20.0781 L33.8594,12.625 L42.7969,12.625 C43.5781,12.625 44.2031,12 44.2031,11.2188 L44.2031,9.3125 C44.2031,8.53125 43.5781,7.90625 42.7969,7.90625 L33.8594,7.90625 L33.8594,-8.0625 C33.8594,-8.59375 33.5469,-9.07813 33.0781,-9.3125 L31.8594,-9.92188 C31.3281,-10.1719 30.7031,-10.0781 30.2656,-9.6875 L21.2188,-1.375 C20.9375,-1.09375 20.7656,-0.734375 20.7656,-0.328125 L20.7656,7.90625 L9.25,7.90625 C9.25,7.90625 20.375,-4.125 32.2188,-19.8906 C33.0781,-21.0469 32.5781,-22.0938 32.3906,-22.2813 L30.2188,-24.4844 C29.9531,-24.75 29.5938,-24.9063 29.2188,-24.9063 C28.625,-24.9063 15.0625,-24.875 14.3438,-24.9063 C13.625,-24.9219 13.0938,-24.2969 13.0156,-23.6875 C13.0156,-23.6875 12.4844,-16.3281 9.875,-8.1875 C7.28125,-0.078125 4.34375,4.90625 1.6875,8.53125 C1.6875,8.53125 1.14063,9.51563 1.5,10.2656 C1.84375,11.0156 2.48438,12.0938 2.48438,12.0938 C2.48438,12.0938 2.73438,12.625 3.59375,12.625"/>
<path class="Rest" transform="matrix(2.364,0,0,2.364,2763.84,835.699)" d="M23.2031,16.9063 L23,16.5938 C22.9063,16.5 22.7031,16.2969 22.4063,15.9063 L10.9063,1.70313 C10.5938,1.40625 10.7031,0.59375 10.9063,0.203125 L21.0938,-15.2031 C21.2031,-15.4063 21.2969,-15.7031 21.2969,-15.9063 L21.2969,-16.7969 C21.2969,-17.0938 21.2031,-17.4063 21,-17.5938 L4.79688,-39.5 C4.79688,-39.5 4,-40.7031 3,-39.7969 C2,-39 2.79688,-37.7031 2.79688,-37.7031 L10.4063,-27.2969 C10.7969,-26.7031 10.7969,-25.5 10.4063,-24.9063 L0.296875,-9.5 C0.203125,-9.29688 0.09375,-8.90625 0.09375,-8.70313 L0.09375,-7.79688 C0.09375,-7.5 0.203125,-7.20313 0.40625,-7 L11.5938,6.90625 C11.2031,6.79688 10.2969,6.59375 9.09375,6.59375 C7.40625,6.59375 5.20313,7 3.40625,8.59375 C1.20313,10.5938 0,13.4063 0,15.9063 C0,17.2969 0.296875,18.7031 1.09375,19.7969 C3.20313,23 10.7031,32.5 10.7031,32.5 C10.7031,32.5 11.5938,33.6094 12.5,32.9063 C13.4063,32.2031 13.2031,31.2969 12.9063,30.7969 C12.5938,30.2969 9.40625,24.5 9.40625,24.5 C9.40625,24.5 8.70313,23.0938 8.70313,21.2969 C8.70313,20 9.09375,18.4063 10.4063,17.0938 C11.5938,15.9063 13,15.5 14.2969,15.5 C15.5938,15.5 16.7031,15.9063 17.5,16.4063 L21.4063,18.9063 C21.4063,18.9063 22.5938,19.5 23.2031,18.5938 C23.7031,17.7969 23.5,17.4063 23.2031,16.9063"/>
<path class="Rest" transform="matrix(2.364,0,0,2.364,3917.26,835.699)" d="M23.2031,16.9063 L23,16.5938 C22.9063,16.5 22.7031,16.2969 22.4063,15.9063 L10.9063,1.70313 C10.5938,1.40625 10.7031,0.59375 10.9063,0.203125 L21.0938,-15.2031 C21.2031,-15.4063 21.2969,-15.7031 21.2969,-15.9063 L21.2969,-16.7969 C21.2969,-17.0938 21.2031,-17.4063 21,-17.5938 L4.79688,-39.5 C4.79688,-39.5 4,-40.7031 3,-39.7969 C2,-39 2.79688,-37.7031 2.79688,-37.7031 L10.4063,-27.2969 C10.7969,-26.7031 10.7969,-25.5 10.4063,-24.9063 L0.296875,-9.5 C0.203125,-9.29688 0.09375,-8.90625 0.09375,-8.70313 L0.09375,-7.79688 C0.09375,-7.5 0.203125,-7.20313 0.40625,-7 L11.5938,6.90625 C11.2031,6.79688 10.2969,6.59375 9.09375,6.59375 C7.40625,6.59375 5.20313,7 3.40625,8.59375 C1.20313,10.5938 0,13.4063 0,15.9063 C0,17.2969 0.296875,18.7031 1.09375,19.7969 C3.20313,23 10.7031,32.5 10.7031,32.5 C10.7031,32.5 11.5938,33.6094 12.5,32.9063 C13.4063,32.2031 13.2031,31.2969 12.9063,30.7969 C12.5938,30.2969 9.40625,24.5 9.40625,24.5 C9.40625,24.5 8.70313,23.0938 8.70313,21.2969 C8.70313,20 9.09375,18.4063 10.4063,17.0938 C11.5938,15.9063 13,15.5 14.2969,15.5 C15.5938,15.5 16.7031,15.9063 17.5,16.4063 L21.4063,18.9063 C21.4063,18.9063 22.5938,19.5 23.2031,18.5938 C23.7031,17.7969 23.5,17.4063 23.2031,16.9063"/>
<path class="Rest" transform="matrix(2.364,0,0,2.364,2641.22,1958.6)" d="M23.2031,16.9063 L23,16.5938 C22.9063,16.5 22.7031,16.2969 22.4063,15.9063 L10.9063,1.70313 C10.5938,1.40625 10.7031,0.59375 10.9063,0.203125 L21.0938,-15.2031 C21.2031,-15.4063 21.2969,-15.7031 21.2969,-15.9063 L21.2969,-16.7969 C21.2969,-17.0938 21.2031,-17.4063 21,-17.5938 L4.79688,-39.5 C4.79688,-39.5 4,-40.7031 3,-39.7969 C2,-39 2.79688,-37.7031 2.79688,-37.7031 L10.4063,-27.2969 C10.7969,-26.7031 10.7969,-25.5 10.4063,-24.9063 L0.296875,-9.5 C0.203125,-9.29688 0.09375,-8.90625 0.09375,-8.70313 L0.09375,-7.79688 C0.09375,-7.5 0.203125,-7.20313 0.40625,-7 L11.5938,6.90625 C11.2031,6.79688 10.2969,6.59375 9.09375,6.59375 C7.40625,6.59375 5.20313,7 3.40625,8.59375 C1.20313,10.5938 0,13.4063 0,15.9063 C0,17.2969 0.296875,18.7031 1.09375,19.7969 C3.20313,23 10.7031,32.5 10.7031,32.5 C10.7031,32.5 11.5938,33.6094 12.5,32.9063 C13.4063,32.2031 13.2031,31.2969 12.9063,30.7969 C12.5938,30.2969 9.40625,24.5 9.40625,24.5 C9.40625,24.5 8.70313,23.0938 8.70313,21.2969 C8.70313,20 9.09375,18.4063 10.4063,17.0938 C11.5938,15.9063 13,15.5 14.2969,15.5 C15.5938,15.5 16.7031,15.9063 17.5,16.4063 L21.4063,18.9063 C21.4063,18.9063 22.5938,19.5 23.2031,18.5938 C23.7031,17.7969 23.5,17.4063 23.2031,16.9063"/>
<path class="Rest" transform="matrix(2.364,0,0,2.364,3819.23,1958.6)" d="M23.2031,16.9063 L23,16.5938 C22.9063,16.5 22.7031,16.2969 22.4063,15.9063 L10.9063,1.70313 C10.5938,1.40625 10.7031,0.59375 10.9063,0.203125 L21.0938,-15.2031 C21.2031,-15.4063 21.2969,-15.7031 21.2969,-15.9063 L21.2969,-16.7969 C21.2969,-17.0938 21.2031,-17.4063 21,-17.5938 L4.79688,-39.5 C4.79688,-39.5 4,-40.7031 3,-39.7969 C2,-39 2.79688,-37.7031 2.79688,-37.7031 L10.4063,-27.2969 C10.7969,-26.7031 10.7969,-25.5 10.4063,-24.9063 L0.296875,-9.5 C0.203125,-9.29688 0.09375,-8.90625 0.09375,-8.70313 L0.09375,-7.79688 C0.09375,-7.5 0.203125,-7.20313 0.40625,-7 L11.5938,6.90625 C11.2031,6.79688 10.2969,6.59375 9.09375,6.59375 C7.40625,6.59375 5.20313,7 3.40625,8.59375 C1.20313,10.5938 0,13.4063 0,15.9063 C0,17.2969 0.296875,18.7031 1.09375,19.7969 C3.20313,23 10.7031,32.5 10.7031,32.5 C10.7031,32.5 11.5938,33.6094 12.5,32.9063 C13.4063,32.2031 13.2031,31.2969 12.9063,30.7969 C12.5938,30.2969 9.40625,24.5 9.40625,24.5 C9.40625,24.5 8.70313,23.0938 8.70313,21.2969 C8.70313,20 9.09375,18.4063 10.4063,17.0938 C11.5938,15.9063 13,15.5 14.2969,15.5 C15.5938,15.5 16.7031,15.9063 17.5,16.4063 L21.4063,18.9063 C21.4063,18.9063 22.5938,19.5 23.2031,18.5938 C23.7031,17.7969 23.5,17.4063 23.2031,16.9063"/>
<path class="Beam" fill-rule="evenodd" d="M930.394,880.024 L1404.94,880.024 L1404.94,909.574 L930.394,909.574 L930.394,880.024 "/>
<path class="Beam" fill-rule="evenodd" d="M1793.04,820.924 L2288.27,820.924 L2288.27,850.474 L1793.04,850.474 L1793.04,820.924 "/>
<path class="Beam" fill-rule="evenodd" d="M3445.41,806.055 L3582.98,821.563 L3582.98,851.301 L3445.41,835.793 L3445.41,806.055 "/>
<path class="Beam" fill-rule="evenodd" d="M707.245,2002.93 L1219.28,2002.93 L1219.28,2032.48 L707.245,2032.48 L707.245,2002.93 "/>
<path class="Beam" fill-rule="evenodd" d="M1637.97,2002.93 L2135.06,2002.93 L2135.06,2032.48 L1637.97,2032.48 L1637.97,2002.93 "/>
<path class="Beam" fill-rule="evenodd" d="M3337.32,1942.45 L3477.68,2004.42 L3477.68,2036.72 L3337.32,1974.75 L3337.32,1942.45 "/>
<path class="Hook" transform="matrix(2.364,0,0,2.364,2973.55,865.249)" d="M2.5,0.40625 C2.5,0.203125 3.40625,-3.20313 3.5,-3.5 C3.59375,-3.90625 5.40625,-9.59375 9.09375,-15.2969 C11.7969,-19.5 21.2969,-31.7969 21,-31.7969 C21,-31.7969 28.4063,-41.2969 28.9063,-54.2031 L28.9063,-56.5 C28.9063,-62.6094 28.1094,-71.2031 24.5938,-79.9063 C24.2031,-80.9063 23.7969,-81.9063 22.7031,-81.5 C21.5938,-81.1094 21.9063,-79.9063 22.2031,-78.8125 C24,-71.7969 25,-64.6094 25,-57.4063 C25,-49 22,-44.7969 20.2031,-41.7031 C13.5938,-30.6094 5,-25.2031 0.796875,-23.7969 C0.296875,-23.5938 0,-23.2031 0,-22.7031 L0,-16.5 L0,-0.09375 C0,0.59375 0.59375,1.20313 1.29688,1.20313 C1.79688,1.20313 2.40625,0.796875 2.5,0.40625"/>
<path class="Hook" transform="matrix(2.364,0,0,2.364,3314.34,835.699)" d="M2.5,0.40625 C2.5,0.203125 3.40625,-3.20313 3.5,-3.5 C3.59375,-3.90625 5.40625,-9.59375 9.09375,-15.2969 C11.7969,-19.5 21.2969,-31.7969 21,-31.7969 C21,-31.7969 28.4063,-41.2969 28.9063,-54.2031 L28.9063,-56.5 C28.9063,-62.6094 28.1094,-71.2031 24.5938,-79.9063 C24.2031,-80.9063 23.7969,-81.9063 22.7031,-81.5 C21.5938,-81.1094 21.9063,-79.9063 22.2031,-78.8125 C24,-71.7969 25,-64.6094 25,-57.4063 C25,-49 22,-44.7969 20.2031,-41.7031 C13.5938,-30.6094 5,-25.2031 0.796875,-23.7969 C0.296875,-23.5938 0,-23.2031 0,-22.7031 L0,-16.5 L0,-0.09375 C0,0.59375 0.59375,1.20313 1.29688,1.20313 C1.79688,1.20313 2.40625,0.796875 2.5,0.40625"/>
<path class="Hook" transform="matrix(2.364,0,0,2.364,2855.4,2047.25)" d="M2.5,0.40625 C2.5,0.203125 3.40625,-3.20313 3.5,-3.5 C3.59375,-3.90625 5.40625,-9.59375 9.09375,-15.2969 C11.7969,-19.5 21.2969,-31.7969 21,-31.7969 C21,-31.7969 28.4063,-41.2969 28.9063,-54.2031 L28.9063,-56.5 C28.9063,-62.6094 28.1094,-71.2031 24.5938,-79.9063 C24.2031,-80.9063 23.7969,-81.9063 22.7031,-81.5 C21.5938,-81.1094 21.9063,-79.9063 22.2031,-78.8125 C24,-71.7969 25,-64.6094 25,-57.4063 C25,-49 22,-44.7969 20.2031,-41.7031 C13.5938,-30.6094 5,-25.2031 0.796875,-23.7969 C0.296875,-23.5938 0,-23.2031 0,-22.7031 L0,-16.5 L0,-0.09375 C0,0.59375 0.59375,1.20313 1.29688,1.20313 C1.79688,1.20313 2.40625,0.796875 2.5,0.40625"/>
<path class="Hook" transform="matrix(2.364,0,0,2.364,3203.45,1988.15)" d="M2.5,0.40625 C2.5,0.203125 3.40625,-3.20313 3.5,-3.5 C3.59375,-3.90625 5.40625,-9.59375 9.09375,-15.2969 C11.7969,-19.5 21.2969,-31.7969 21,-31.7969 C21,-31.7969 28.4063,-41.2969 28.9063,-54.2031 L28.9063,-56.5 C28.9063,-62.6094 28.1094,-71.2031 24.5938,-79.9063 C24.2031,-80.9063 23.7969,-81.9063 22.7031,-81.5 C21.5938,-81.1094 21.9063,-79.9063 22.2031,-78.8125 C24,-71.7969 25,-64.6094 25,-57.4063 C25,-49 22,-44.7969 20.2031,-41.7031 C13.5938,-30.6094 5,-25.2031 0.796875,-23.7969 C0.296875,-23.5938 0,-23.2031 0,-22.7031 L0,-16.5 L0,-0.09375 C0,0.59375 0.59375,1.20313 1.29688,1.20313 C1.79688,1.20313 2.40625,0.796875 2.5,0.40625"/>
<path class="Fingering" d="M978.128,321.219 C988.862,317.329 993.815,311.313 993.815,301.86 C993.815,289.485 984.378,281.579 969.753,281.579 C955.94,281.579 945.44,289.719 945.44,300.454 C945.44,305.282 948.628,308.704 953.222,308.704 C957.362,308.704 960.19,305.876 960.19,301.626 C960.19,299.032 959.253,297.501 956.534,295.61 C955.347,294.782 955.003,294.313 955.003,293.485 C955.003,290.188 961.847,286.641 968.565,286.641 C977.065,286.641 981.55,291.954 981.55,301.985 C981.55,312.954 977.065,318.735 968.69,318.735 C967.628,318.735 965.612,318.626 963.847,318.501 C962.909,318.391 961.956,318.391 961.253,318.391 C958.769,318.391 957.472,319.454 957.472,321.579 C957.472,323.579 958.659,324.516 961.253,324.516 C961.956,324.516 962.909,324.516 963.972,324.407 C966.331,324.282 968.222,324.282 969.519,324.282 C978.237,324.282 982.972,330.547 982.972,342.219 C982.972,354.501 977.065,361.344 966.44,361.344 C959.019,361.344 950.987,357.329 950.987,353.672 C950.987,352.61 951.222,352.376 953.472,351.079 C956.769,349.063 958.065,347.063 958.065,344.11 C958.065,339.86 954.878,336.672 950.628,336.672 C945.565,336.672 942.253,340.813 942.253,347.063 C942.253,358.501 952.753,366.407 967.862,366.407 C984.972,366.407 996.065,356.969 996.065,342.454 C996.065,331.36 990.394,324.641 978.128,321.219"/>
<path class="Fingering" d="M1129.9,321.219 C1140.63,317.329 1145.59,311.313 1145.59,301.86 C1145.59,289.485 1136.15,281.579 1121.52,281.579 C1107.71,281.579 1097.21,289.719 1097.21,300.454 C1097.21,305.282 1100.4,308.704 1104.99,308.704 C1109.13,308.704 1111.96,305.876 1111.96,301.626 C1111.96,299.032 1111.02,297.501 1108.31,295.61 C1107.12,294.782 1106.77,294.313 1106.77,293.485 C1106.77,290.188 1113.62,286.641 1120.34,286.641 C1128.84,286.641 1133.32,291.954 1133.32,301.985 C1133.32,312.954 1128.84,318.735 1120.46,318.735 C1119.4,318.735 1117.38,318.626 1115.62,318.501 C1114.68,318.391 1113.73,318.391 1113.02,318.391 C1110.54,318.391 1109.24,319.454 1109.24,321.579 C1109.24,323.579 1110.43,324.516 1113.02,324.516 C1113.73,324.516 1114.68,324.516 1115.74,324.407 C1118.1,324.282 1119.99,324.282 1121.29,324.282 C1130.01,324.282 1134.74,330.547 1134.74,342.219 C1134.74,354.501 1128.84,361.344 1118.21,361.344 C1110.79,361.344 1102.76,357.329 1102.76,353.672 C1102.76,352.61 1102.99,352.376 1105.24,351.079 C1108.54,349.063 1109.84,347.063 1109.84,344.11 C1109.84,339.86 1106.65,336.672 1102.4,336.672 C1097.34,336.672 1094.02,340.813 1094.02,347.063 C1094.02,358.501 1104.52,366.407 1119.63,366.407 C1136.74,366.407 1147.84,356.969 1147.84,342.454 C1147.84,331.36 1142.16,324.641 1129.9,321.219"/>
<path class="Fingering" d="M1312.67,474.132 L1307.46,474.132 L1306.29,480.148 C1304.76,487.819 1303.81,488.523 1296.49,488.523 L1270.06,488.523 C1278.21,480.023 1280.92,477.554 1288.48,471.648 C1299.21,463.398 1303.81,459.257 1306.53,455.726 C1310.31,450.523 1312.18,445.335 1312.18,439.554 C1312.18,426.101 1301.1,416.554 1285.63,416.554 C1270.65,416.554 1259.21,426.101 1259.21,438.726 C1259.21,446.163 1262.98,451.241 1268.53,451.241 C1272.9,451.241 1275.84,448.288 1275.84,444.038 C1275.84,441.085 1274.2,438.382 1271.71,437.319 C1267.35,435.538 1267.12,435.304 1267.12,433.773 C1267.12,432.007 1268.29,429.288 1269.95,427.288 C1272.9,423.632 1277.73,421.616 1283.28,421.616 C1293.07,421.616 1298.85,427.632 1298.85,437.554 C1298.85,446.288 1294.73,454.194 1284.93,464.569 C1276.2,473.773 1270.78,479.554 1268.76,481.804 C1264.53,486.757 1262.4,489.476 1257.2,496.319 L1257.2,499.616 L1310.42,499.616 L1312.67,474.132 "/>
<path class="Fingering" d="M1439.84,71.8035 C1435.83,76.6316 1424.97,80.2879 1414.11,80.5222 L1414.11,85.6004 L1424.5,85.6004 C1431.34,85.7254 1432.05,86.4285 1431.81,93.0379 L1431.81,140.35 C1431.81,146.366 1431.81,146.6 1431.11,147.663 C1430.16,148.85 1427.92,149.319 1421.31,149.319 L1413.64,149.319 L1413.64,154.866 L1460.37,154.866 L1460.37,149.319 L1453.87,149.319 C1447.26,149.319 1445.03,148.85 1444.09,147.663 C1443.26,146.6 1443.26,146.491 1443.26,140.35 L1443.26,91.616 C1443.26,85.0066 1443.5,79.4597 1444.09,71.8035 L1439.84,71.8035 "/>
<path class="Fingering" d="M1591.61,71.8035 C1587.6,76.6316 1576.74,80.2879 1565.88,80.5222 L1565.88,85.6004 L1576.27,85.6004 C1583.11,85.7254 1583.82,86.4285 1583.58,93.0379 L1583.58,140.35 C1583.58,146.366 1583.58,146.6 1582.88,147.663 C1581.93,148.85 1579.69,149.319 1573.08,149.319 L1565.41,149.319 L1565.41,154.866 L1612.15,154.866 L1612.15,149.319 L1605.65,149.319 C1599.04,149.319 1596.8,148.85 1595.86,147.663 C1595.04,146.6 1595.04,146.491 1595.04,140.35 L1595.04,91.616 C1595.04,85.0066 1595.27,79.4597 1595.86,71.8035 L1591.61,71.8035 "/>
<path class="Fingering" d="M1840.78,321.219 C1851.51,317.329 1856.46,311.313 1856.46,301.86 C1856.46,289.485 1847.03,281.579 1832.4,281.579 C1818.59,281.579 1808.09,289.719 1808.09,300.454 C1808.09,305.282 1811.28,308.704 1815.87,308.704 C1820.01,308.704 1822.84,305.876 1822.84,301.626 C1822.84,299.032 1821.9,297.501 1819.18,295.61 C1817.99,294.782 1817.65,294.313 1817.65,293.485 C1817.65,290.188 1824.49,286.641 1831.21,286.641 C1839.71,286.641 1844.2,291.954 1844.2,301.985 C1844.2,312.954 1839.71,318.735 1831.34,318.735 C1830.28,318.735 1828.26,318.626 1826.49,318.501 C1825.56,318.391 1824.6,318.391 1823.9,318.391 C1821.42,318.391 1820.12,319.454 1820.12,321.579 C1820.12,323.579 1821.31,324.516 1823.9,324.516 C1824.6,324.516 1825.56,324.516 1826.62,324.407 C1828.98,324.282 1830.87,324.282 1832.17,324.282 C1840.88,324.282 1845.62,330.547 1845.62,342.219 C1845.62,354.501 1839.71,361.344 1829.09,361.344 C1821.67,361.344 1813.63,357.329 1813.63,353.672 C1813.63,352.61 1813.87,352.376 1816.12,351.079 C1819.42,349.063 1820.71,347.063 1820.71,344.11 C1820.71,339.86 1817.53,336.672 1813.28,336.672 C1808.21,336.672 1804.9,340.813 1804.9,347.063 C1804.9,358.501 1815.4,366.407 1830.51,366.407 C1847.62,366.407 1858.71,356.969 1858.71,342.454 C1858.71,331.36 1853.04,324.641 1840.78,321.219"/>
<path class="Fingering" d="M1992.55,321.219 C2003.28,317.329 2008.23,311.313 2008.23,301.86 C2008.23,289.485 1998.8,281.579 1984.17,281.579 C1970.36,281.579 1959.86,289.719 1959.86,300.454 C1959.86,305.282 1963.05,308.704 1967.64,308.704 C1971.78,308.704 1974.61,305.876 1974.61,301.626 C1974.61,299.032 1973.67,297.501 1970.95,295.61 C1969.77,294.782 1969.42,294.313 1969.42,293.485 C1969.42,290.188 1976.27,286.641 1982.98,286.641 C1991.48,286.641 1995.97,291.954 1995.97,301.985 C1995.97,312.954 1991.48,318.735 1983.11,318.735 C1982.05,318.735 1980.03,318.626 1978.27,318.501 C1977.33,318.391 1976.37,318.391 1975.67,318.391 C1973.19,318.391 1971.89,319.454 1971.89,321.579 C1971.89,323.579 1973.08,324.516 1975.67,324.516 C1976.37,324.516 1977.33,324.516 1978.39,324.407 C1980.75,324.282 1982.64,324.282 1983.94,324.282 C1992.66,324.282 1997.39,330.547 1997.39,342.219 C1997.39,354.501 1991.48,361.344 1980.86,361.344 C1973.44,361.344 1965.41,357.329 1965.41,353.672 C1965.41,352.61 1965.64,352.376 1967.89,351.079 C1971.19,349.063 1972.48,347.063 1972.48,344.11 C1972.48,339.86 1969.3,336.672 1965.05,336.672 C1959.98,336.672 1956.67,340.813 1956.67,347.063 C1956.67,358.501 1967.17,366.407 1982.28,366.407 C1999.39,366.407 2010.48,356.969 2010.48,342.454 C2010.48,331.36 2004.81,324.641 1992.55,321.219"/>
<path class="Fingering" d="M2171.4,204.779 C2167.39,209.607 2156.53,213.263 2145.67,213.497 L2145.67,218.576 L2156.06,218.576 C2162.9,218.701 2163.61,219.404 2163.37,226.013 L2163.37,273.326 C2163.37,279.341 2163.37,279.576 2162.67,280.638 C2161.72,281.826 2159.48,282.294 2152.87,282.294 L2145.2,282.294 L2145.2,287.841 L2191.94,287.841 L2191.94,282.294 L2185.44,282.294 C2178.83,282.294 2176.59,281.826 2175.65,280.638 C2174.83,279.576 2174.83,279.466 2174.83,273.326 L2174.83,224.591 C2174.83,217.982 2175.06,212.435 2175.65,204.779 L2171.4,204.779 "/>
<path class="Fingering" d="M2329.5,321.219 C2340.24,317.329 2345.19,311.313 2345.19,301.86 C2345.19,289.485 2335.75,281.579 2321.13,281.579 C2307.32,281.579 2296.82,289.719 2296.82,300.454 C2296.82,305.282 2300,308.704 2304.6,308.704 C2308.74,308.704 2311.57,305.876 2311.57,301.626 C2311.57,299.032 2310.63,297.501 2307.91,295.61 C2306.72,294.782 2306.38,294.313 2306.38,293.485 C2306.38,290.188 2313.22,286.641 2319.94,286.641 C2328.44,286.641 2332.93,291.954 2332.93,301.985 C2332.93,312.954 2328.44,318.735 2320.07,318.735 C2319,318.735 2316.99,318.626 2315.22,318.501 C2314.28,318.391 2313.33,318.391 2312.63,318.391 C2310.14,318.391 2308.85,319.454 2308.85,321.579 C2308.85,323.579 2310.03,324.516 2312.63,324.516 C2313.33,324.516 2314.28,324.516 2315.35,324.407 C2317.71,324.282 2319.6,324.282 2320.89,324.282 C2329.61,324.282 2334.35,330.547 2334.35,342.219 C2334.35,354.501 2328.44,361.344 2317.82,361.344 C2310.39,361.344 2302.36,357.329 2302.36,353.672 C2302.36,352.61 2302.6,352.376 2304.85,351.079 C2308.14,349.063 2309.44,347.063 2309.44,344.11 C2309.44,339.86 2306.25,336.672 2302,336.672 C2296.94,336.672 2293.63,340.813 2293.63,347.063 C2293.63,358.501 2304.13,366.407 2319.24,366.407 C2336.35,366.407 2347.44,356.969 2347.44,342.454 C2347.44,331.36 2341.77,324.641 2329.5,321.219"/>
<path class="Fingering" d="M2499.54,474.132 L2494.34,474.132 L2493.17,480.148 C2491.63,487.819 2490.68,488.523 2483.37,488.523 L2456.93,488.523 C2465.09,480.023 2467.79,477.554 2475.35,471.648 C2486.09,463.398 2490.68,459.257 2493.4,455.726 C2497.18,450.523 2499.06,445.335 2499.06,439.554 C2499.06,426.101 2487.98,416.554 2472.51,416.554 C2457.52,416.554 2446.09,426.101 2446.09,438.726 C2446.09,446.163 2449.85,451.241 2455.4,451.241 C2459.77,451.241 2462.71,448.288 2462.71,444.038 C2462.71,441.085 2461.07,438.382 2458.59,437.319 C2454.23,435.538 2453.99,435.304 2453.99,433.773 C2453.99,432.007 2455.17,429.288 2456.82,427.288 C2459.77,423.632 2464.6,421.616 2470.15,421.616 C2479.95,421.616 2485.73,427.632 2485.73,437.554 C2485.73,446.288 2481.6,454.194 2471.81,464.569 C2463.07,473.773 2457.65,479.554 2455.63,481.804 C2451.4,486.757 2449.27,489.476 2444.07,496.319 L2444.07,499.616 L2497.29,499.616 L2499.54,474.132 "/>
<path class="Fingering" d="M3021.29,321.219 C3032.02,317.329 3036.98,311.313 3036.98,301.86 C3036.98,289.485 3027.54,281.579 3012.91,281.579 C2999.1,281.579 2988.6,289.719 2988.6,300.454 C2988.6,305.282 2991.79,308.704 2996.38,308.704 C3000.52,308.704 3003.35,305.876 3003.35,301.626 C3003.35,299.032 3002.41,297.501 2999.69,295.61 C2998.51,294.782 2998.16,294.313 2998.16,293.485 C2998.16,290.188 3005.01,286.641 3011.73,286.641 C3020.23,286.641 3024.71,291.954 3024.71,301.985 C3024.71,312.954 3020.23,318.735 3011.85,318.735 C3010.79,318.735 3008.77,318.626 3007.01,318.501 C3006.07,318.391 3005.12,318.391 3004.41,318.391 C3001.93,318.391 3000.63,319.454 3000.63,321.579 C3000.63,323.579 3001.82,324.516 3004.41,324.516 C3005.12,324.516 3006.07,324.516 3007.13,324.407 C3009.49,324.282 3011.38,324.282 3012.68,324.282 C3021.4,324.282 3026.13,330.547 3026.13,342.219 C3026.13,354.501 3020.23,361.344 3009.6,361.344 C3002.18,361.344 2994.15,357.329 2994.15,353.672 C2994.15,352.61 2994.38,352.376 2996.63,351.079 C2999.93,349.063 3001.23,347.063 3001.23,344.11 C3001.23,339.86 2998.04,336.672 2993.79,336.672 C2988.73,336.672 2985.41,340.813 2985.41,347.063 C2985.41,358.501 2995.91,366.407 3011.02,366.407 C3028.13,366.407 3039.23,356.969 3039.23,342.454 C3039.23,331.36 3033.55,324.641 3021.29,321.219"/>
<path class="Fingering" d="M3152.36,321.219 C3163.09,317.329 3168.05,311.313 3168.05,301.86 C3168.05,289.485 3158.61,281.579 3143.98,281.579 C3130.17,281.579 3119.67,289.719 3119.67,300.454 C3119.67,305.282 3122.86,308.704 3127.45,308.704 C3131.59,308.704 3134.42,305.876 3134.42,301.626 C3134.42,299.032 3133.48,297.501 3130.76,295.61 C3129.58,294.782 3129.23,294.313 3129.23,293.485 C3129.23,290.188 3136.08,286.641 3142.8,286.641 C3151.3,286.641 3155.78,291.954 3155.78,301.985 C3155.78,312.954 3151.3,318.735 3142.92,318.735 C3141.86,318.735 3139.84,318.626 3138.08,318.501 C3137.14,318.391 3136.19,318.391 3135.48,318.391 C3133,318.391 3131.7,319.454 3131.7,321.579 C3131.7,323.579 3132.89,324.516 3135.48,324.516 C3136.19,324.516 3137.14,324.516 3138.2,324.407 C3140.56,324.282 3142.45,324.282 3143.75,324.282 C3152.47,324.282 3157.2,330.547 3157.2,342.219 C3157.2,354.501 3151.3,361.344 3140.67,361.344 C3133.25,361.344 3125.22,357.329 3125.22,353.672 C3125.22,352.61 3125.45,352.376 3127.7,351.079 C3131,349.063 3132.3,347.063 3132.3,344.11 C3132.3,339.86 3129.11,336.672 3124.86,336.672 C3119.8,336.672 3116.48,340.813 3116.48,347.063 C3116.48,358.501 3126.98,366.407 3142.09,366.407 C3159.2,366.407 3170.3,356.969 3170.3,342.454 C3170.3,331.36 3164.62,324.641 3152.36,321.219"/>
<path class="Fingering" d="M3355.74,204.779 C3351.73,209.607 3340.87,213.263 3330.01,213.497 L3330.01,218.576 L3340.4,218.576 C3347.24,218.701 3347.94,219.404 3347.71,226.013 L3347.71,273.326 C3347.71,279.341 3347.71,279.576 3347.01,280.638 C3346.05,281.826 3343.82,282.294 3337.21,282.294 L3329.54,282.294 L3329.54,287.841 L3376.27,287.841 L3376.27,282.294 L3369.77,282.294 C3363.16,282.294 3360.93,281.826 3359.99,280.638 C3359.16,279.576 3359.16,279.466 3359.16,273.326 L3359.16,224.591 C3359.16,217.982 3359.4,212.435 3359.99,204.779 L3355.74,204.779 "/>
<path class="Fingering" d="M3486.81,204.779 C3482.8,209.607 3471.94,213.263 3461.08,213.497 L3461.08,218.576 L3471.47,218.576 C3478.31,218.701 3479.01,219.404 3478.78,226.013 L3478.78,273.326 C3478.78,279.341 3478.78,279.576 3478.08,280.638 C3477.12,281.826 3474.89,282.294 3468.28,282.294 L3460.61,282.294 L3460.61,287.841 L3507.34,287.841 L3507.34,282.294 L3500.84,282.294 C3494.23,282.294 3492,281.826 3491.06,280.638 C3490.23,279.576 3490.23,279.466 3490.23,273.326 L3490.23,224.591 C3490.23,217.982 3490.47,212.435 3491.06,204.779 L3486.81,204.779 "/>
<path class="Fingering" d="M3624.21,321.219 C3634.94,317.329 3639.9,311.313 3639.9,301.86 C3639.9,289.485 3630.46,281.579 3615.83,281.579 C3602.02,281.579 3591.52,289.719 3591.52,300.454 C3591.52,305.282 3594.71,308.704 3599.3,308.704 C3603.44,308.704 3606.27,305.876 3606.27,301.626 C3606.27,299.032 3605.33,297.501 3602.62,295.61 C3601.43,294.782 3601.08,294.313 3601.08,293.485 C3601.08,290.188 3607.93,286.641 3614.65,286.641 C3623.15,286.641 3627.63,291.954 3627.63,301.985 C3627.63,312.954 3623.15,318.735 3614.77,318.735 C3613.71,318.735 3611.69,318.626 3609.93,318.501 C3608.99,318.391 3608.04,318.391 3607.33,318.391 C3604.85,318.391 3603.55,319.454 3603.55,321.579 C3603.55,323.579 3604.74,324.516 3607.33,324.516 C3608.04,324.516 3608.99,324.516 3610.05,324.407 C3612.41,324.282 3614.3,324.282 3615.6,324.282 C3624.32,324.282 3629.05,330.547 3629.05,342.219 C3629.05,354.501 3623.15,361.344 3612.52,361.344 C3605.1,361.344 3597.07,357.329 3597.07,353.672 C3597.07,352.61 3597.3,352.376 3599.55,351.079 C3602.85,349.063 3604.15,347.063 3604.15,344.11 C3604.15,339.86 3600.96,336.672 3596.71,336.672 C3591.65,336.672 3588.33,340.813 3588.33,347.063 C3588.33,358.501 3598.83,366.407 3613.94,366.407 C3631.05,366.407 3642.15,356.969 3642.15,342.454 C3642.15,331.36 3636.47,324.641 3624.21,321.219"/>
<path class="Fingering" d="M3748.95,204.779 C3744.93,209.607 3734.08,213.263 3723.22,213.497 L3723.22,218.576 L3733.61,218.576 C3740.45,218.701 3741.15,219.404 3740.92,226.013 L3740.92,273.326 C3740.92,279.341 3740.92,279.576 3740.22,280.638 C3739.26,281.826 3737.03,282.294 3730.42,282.294 L3722.75,282.294 L3722.75,287.841 L3769.48,287.841 L3769.48,282.294 L3762.98,282.294 C3756.37,282.294 3754.14,281.826 3753.2,280.638 C3752.37,279.576 3752.37,279.466 3752.37,273.326 L3752.37,224.591 C3752.37,217.982 3752.61,212.435 3753.2,204.779 L3748.95,204.779 "/>
<path class="Fingering" d="M754.979,1444.12 C765.713,1440.23 770.666,1434.21 770.666,1424.76 C770.666,1412.39 761.229,1404.48 746.604,1404.48 C732.791,1404.48 722.291,1412.62 722.291,1423.36 C722.291,1428.18 725.479,1431.61 730.072,1431.61 C734.213,1431.61 737.041,1428.78 737.041,1424.53 C737.041,1421.93 736.104,1420.4 733.385,1418.51 C732.197,1417.68 731.854,1417.21 731.854,1416.39 C731.854,1413.09 738.697,1409.54 745.416,1409.54 C753.916,1409.54 758.401,1414.86 758.401,1424.89 C758.401,1435.86 753.916,1441.64 745.541,1441.64 C744.479,1441.64 742.463,1441.53 740.697,1441.4 C739.76,1441.29 738.807,1441.29 738.104,1441.29 C735.619,1441.29 734.322,1442.36 734.322,1444.48 C734.322,1446.48 735.51,1447.42 738.104,1447.42 C738.807,1447.42 739.76,1447.42 740.822,1447.31 C743.182,1447.18 745.072,1447.18 746.369,1447.18 C755.088,1447.18 759.822,1453.45 759.822,1465.12 C759.822,1477.4 753.916,1484.25 743.291,1484.25 C735.869,1484.25 727.838,1480.23 727.838,1476.57 C727.838,1475.51 728.072,1475.28 730.322,1473.98 C733.619,1471.96 734.916,1469.96 734.916,1467.01 C734.916,1462.76 731.729,1459.57 727.479,1459.57 C722.416,1459.57 719.104,1463.71 719.104,1469.96 C719.104,1481.4 729.604,1489.31 744.713,1489.31 C761.822,1489.31 772.916,1479.87 772.916,1465.36 C772.916,1454.26 767.244,1447.54 754.979,1444.12"/>
<path class="Fingering" d="M918.511,1444.12 C929.246,1440.23 934.199,1434.21 934.199,1424.76 C934.199,1412.39 924.761,1404.48 910.136,1404.48 C896.324,1404.48 885.824,1412.62 885.824,1423.36 C885.824,1428.18 889.011,1431.61 893.605,1431.61 C897.746,1431.61 900.574,1428.78 900.574,1424.53 C900.574,1421.93 899.636,1420.4 896.917,1418.51 C895.73,1417.68 895.386,1417.21 895.386,1416.39 C895.386,1413.09 902.23,1409.54 908.949,1409.54 C917.449,1409.54 921.933,1414.86 921.933,1424.89 C921.933,1435.86 917.449,1441.64 909.074,1441.64 C908.011,1441.64 905.996,1441.53 904.23,1441.4 C903.292,1441.29 902.339,1441.29 901.636,1441.29 C899.152,1441.29 897.855,1442.36 897.855,1444.48 C897.855,1446.48 899.042,1447.42 901.636,1447.42 C902.339,1447.42 903.292,1447.42 904.355,1447.31 C906.714,1447.18 908.605,1447.18 909.902,1447.18 C918.621,1447.18 923.355,1453.45 923.355,1465.12 C923.355,1477.4 917.449,1484.25 906.824,1484.25 C899.402,1484.25 891.371,1480.23 891.371,1476.57 C891.371,1475.51 891.605,1475.28 893.855,1473.98 C897.152,1471.96 898.449,1469.96 898.449,1467.01 C898.449,1462.76 895.261,1459.57 891.011,1459.57 C885.949,1459.57 882.636,1463.71 882.636,1469.96 C882.636,1481.4 893.136,1489.31 908.246,1489.31 C925.355,1489.31 936.449,1479.87 936.449,1465.36 C936.449,1454.26 930.777,1447.54 918.511,1444.12"/>
<path class="Fingering" d="M1101.28,1597.03 L1096.08,1597.03 L1094.9,1603.05 C1093.37,1610.72 1092.42,1611.42 1085.11,1611.42 L1058.67,1611.42 C1066.83,1602.92 1069.53,1600.46 1077.09,1594.55 C1087.83,1586.3 1092.42,1582.16 1095.14,1578.63 C1098.92,1573.42 1100.79,1568.24 1100.79,1562.46 C1100.79,1549 1089.72,1539.46 1074.25,1539.46 C1059.26,1539.46 1047.83,1549 1047.83,1561.63 C1047.83,1569.07 1051.59,1574.14 1057.14,1574.14 C1061.51,1574.14 1064.45,1571.19 1064.45,1566.94 C1064.45,1563.99 1062.81,1561.28 1060.33,1560.22 C1055.97,1558.44 1055.73,1558.21 1055.73,1556.67 C1055.73,1554.91 1056.9,1552.19 1058.56,1550.19 C1061.51,1546.53 1066.34,1544.52 1071.89,1544.52 C1081.68,1544.52 1087.47,1550.53 1087.47,1560.46 C1087.47,1569.19 1083.34,1577.1 1073.54,1587.47 C1064.81,1596.67 1059.39,1602.46 1057.37,1604.71 C1053.14,1609.66 1051.01,1612.38 1045.81,1619.22 L1045.81,1622.52 L1099.03,1622.52 L1101.28,1597.03 "/>
<path class="Fingering" d="M1254.19,1327.68 C1250.17,1332.51 1239.31,1336.16 1228.45,1336.4 L1228.45,1341.48 L1238.84,1341.48 C1245.69,1341.6 1246.39,1342.31 1246.16,1348.91 L1246.16,1396.23 C1246.16,1402.24 1246.16,1402.48 1245.45,1403.54 C1244.5,1404.73 1242.27,1405.2 1235.66,1405.2 L1227.98,1405.2 L1227.98,1410.74 L1274.72,1410.74 L1274.72,1405.2 L1268.22,1405.2 C1261.61,1405.2 1259.38,1404.73 1258.44,1403.54 C1257.61,1402.48 1257.61,1402.37 1257.61,1396.23 L1257.61,1347.49 C1257.61,1340.88 1257.84,1335.34 1258.44,1327.68 L1254.19,1327.68 "/>
<path class="Fingering" d="M1417.72,1327.68 C1413.7,1332.51 1402.85,1336.16 1391.99,1336.4 L1391.99,1341.48 L1402.38,1341.48 C1409.22,1341.6 1409.92,1342.31 1409.69,1348.91 L1409.69,1396.23 C1409.69,1402.24 1409.69,1402.48 1408.99,1403.54 C1408.03,1404.73 1405.8,1405.2 1399.19,1405.2 L1391.52,1405.2 L1391.52,1410.74 L1438.25,1410.74 L1438.25,1405.2 L1431.75,1405.2 C1425.14,1405.2 1422.91,1404.73 1421.97,1403.54 C1421.14,1402.48 1421.14,1402.37 1421.14,1396.23 L1421.14,1347.49 C1421.14,1340.88 1421.38,1335.34 1421.97,1327.68 L1417.72,1327.68 "/>
<path class="Fingering" d="M1703.97,1597.03 L1698.76,1597.03 L1697.59,1603.05 C1696.06,1610.72 1695.11,1611.42 1687.79,1611.42 L1661.36,1611.42 C1669.51,1602.92 1672.22,1600.46 1679.78,1594.55 C1690.51,1586.3 1695.11,1582.16 1697.83,1578.63 C1701.61,1573.42 1703.48,1568.24 1703.48,1562.46 C1703.48,1549 1692.4,1539.46 1676.93,1539.46 C1661.95,1539.46 1650.51,1549 1650.51,1561.63 C1650.51,1569.07 1654.28,1574.14 1659.83,1574.14 C1664.2,1574.14 1667.14,1571.19 1667.14,1566.94 C1667.14,1563.99 1665.5,1561.28 1663.01,1560.22 C1658.65,1558.44 1658.42,1558.21 1658.42,1556.67 C1658.42,1554.91 1659.59,1552.19 1661.25,1550.19 C1664.2,1546.53 1669.03,1544.52 1674.58,1544.52 C1684.37,1544.52 1690.15,1550.53 1690.15,1560.46 C1690.15,1569.19 1686.03,1577.1 1676.23,1587.47 C1667.5,1596.67 1662.08,1602.46 1660.06,1604.71 C1655.83,1609.66 1653.7,1612.38 1648.5,1619.22 L1648.5,1622.52 L1701.72,1622.52 L1703.97,1597.03 "/>
<path class="Fingering" d="M1867.5,1597.03 L1862.3,1597.03 L1861.12,1603.05 C1859.59,1610.72 1858.64,1611.42 1851.33,1611.42 L1824.89,1611.42 C1833.05,1602.92 1835.75,1600.46 1843.31,1594.55 C1854.05,1586.3 1858.64,1582.16 1861.36,1578.63 C1865.14,1573.42 1867.01,1568.24 1867.01,1562.46 C1867.01,1549 1855.94,1539.46 1840.47,1539.46 C1825.48,1539.46 1814.05,1549 1814.05,1561.63 C1814.05,1569.07 1817.81,1574.14 1823.36,1574.14 C1827.73,1574.14 1830.67,1571.19 1830.67,1566.94 C1830.67,1563.99 1829.03,1561.28 1826.55,1560.22 C1822.19,1558.44 1821.95,1558.21 1821.95,1556.67 C1821.95,1554.91 1823.12,1552.19 1824.78,1550.19 C1827.73,1546.53 1832.56,1544.52 1838.11,1544.52 C1847.9,1544.52 1853.69,1550.53 1853.69,1560.46 C1853.69,1569.19 1849.56,1577.1 1839.76,1587.47 C1831.03,1596.67 1825.61,1602.46 1823.59,1604.71 C1819.36,1609.66 1817.23,1612.38 1812.03,1619.22 L1812.03,1622.52 L1865.25,1622.52 L1867.5,1597.03 "/>
<path class="Fingering" d="M2012.77,1444.12 C2023.5,1440.23 2028.45,1434.21 2028.45,1424.76 C2028.45,1412.39 2019.02,1404.48 2004.39,1404.48 C1990.58,1404.48 1980.08,1412.62 1980.08,1423.36 C1980.08,1428.18 1983.27,1431.61 1987.86,1431.61 C1992,1431.61 1994.83,1428.78 1994.83,1424.53 C1994.83,1421.93 1993.89,1420.4 1991.17,1418.51 C1989.98,1417.68 1989.64,1417.21 1989.64,1416.39 C1989.64,1413.09 1996.48,1409.54 2003.2,1409.54 C2011.7,1409.54 2016.19,1414.86 2016.19,1424.89 C2016.19,1435.86 2011.7,1441.64 2003.33,1441.64 C2002.27,1441.64 2000.25,1441.53 1998.48,1441.4 C1997.55,1441.29 1996.59,1441.29 1995.89,1441.29 C1993.41,1441.29 1992.11,1442.36 1992.11,1444.48 C1992.11,1446.48 1993.3,1447.42 1995.89,1447.42 C1996.59,1447.42 1997.55,1447.42 1998.61,1447.31 C2000.97,1447.18 2002.86,1447.18 2004.16,1447.18 C2012.87,1447.18 2017.61,1453.45 2017.61,1465.12 C2017.61,1477.4 2011.7,1484.25 2001.08,1484.25 C1993.66,1484.25 1985.62,1480.23 1985.62,1476.57 C1985.62,1475.51 1985.86,1475.28 1988.11,1473.98 C1991.41,1471.96 1992.7,1469.96 1992.7,1467.01 C1992.7,1462.76 1989.52,1459.57 1985.27,1459.57 C1980.2,1459.57 1976.89,1463.71 1976.89,1469.96 C1976.89,1481.4 1987.39,1489.31 2002.5,1489.31 C2019.61,1489.31 2030.7,1479.87 2030.7,1465.36 C2030.7,1454.26 2025.03,1447.54 2012.77,1444.12"/>
<path class="Fingering" d="M2194.56,1597.03 L2189.36,1597.03 L2188.19,1603.05 C2186.66,1610.72 2185.7,1611.42 2178.39,1611.42 L2151.95,1611.42 C2160.11,1602.92 2162.81,1600.46 2170.38,1594.55 C2181.11,1586.3 2185.7,1582.16 2188.42,1578.63 C2192.2,1573.42 2194.08,1568.24 2194.08,1562.46 C2194.08,1549 2183,1539.46 2167.53,1539.46 C2152.55,1539.46 2141.11,1549 2141.11,1561.63 C2141.11,1569.07 2144.88,1574.14 2150.42,1574.14 C2154.8,1574.14 2157.74,1571.19 2157.74,1566.94 C2157.74,1563.99 2156.09,1561.28 2153.61,1560.22 C2149.25,1558.44 2149.02,1558.21 2149.02,1556.67 C2149.02,1554.91 2150.19,1552.19 2151.84,1550.19 C2154.8,1546.53 2159.63,1544.52 2165.17,1544.52 C2174.97,1544.52 2180.75,1550.53 2180.75,1560.46 C2180.75,1569.19 2176.63,1577.1 2166.83,1587.47 C2158.09,1596.67 2152.67,1602.46 2150.66,1604.71 C2146.42,1609.66 2144.3,1612.38 2139.09,1619.22 L2139.09,1622.52 L2192.31,1622.52 L2194.56,1597.03 "/>
<path class="Fingering" d="M2333.5,1668.69 C2329.49,1673.52 2318.63,1677.17 2307.77,1677.41 L2307.77,1682.48 L2318.16,1682.48 C2325,1682.61 2325.71,1683.31 2325.47,1689.92 L2325.47,1737.23 C2325.47,1743.25 2325.47,1743.48 2324.77,1744.55 C2323.81,1745.73 2321.58,1746.2 2314.97,1746.2 L2307.3,1746.2 L2307.3,1751.75 L2354.03,1751.75 L2354.03,1746.2 L2347.53,1746.2 C2340.92,1746.2 2338.69,1745.73 2337.75,1744.55 C2336.92,1743.48 2336.92,1743.38 2336.92,1737.23 L2336.92,1688.5 C2336.92,1681.89 2337.16,1676.34 2337.75,1668.69 L2333.5,1668.69 "/>
<path class="Fingering" d="M2921.4,1597.03 L2916.2,1597.03 L2915.03,1603.05 C2913.49,1610.72 2912.54,1611.42 2905.23,1611.42 L2878.79,1611.42 C2886.95,1602.92 2889.65,1600.46 2897.21,1594.55 C2907.95,1586.3 2912.54,1582.16 2915.26,1578.63 C2919.04,1573.42 2920.92,1568.24 2920.92,1562.46 C2920.92,1549 2909.84,1539.46 2894.37,1539.46 C2879.38,1539.46 2867.95,1549 2867.95,1561.63 C2867.95,1569.07 2871.71,1574.14 2877.26,1574.14 C2881.63,1574.14 2884.57,1571.19 2884.57,1566.94 C2884.57,1563.99 2882.93,1561.28 2880.45,1560.22 C2876.09,1558.44 2875.85,1558.21 2875.85,1556.67 C2875.85,1554.91 2877.03,1552.19 2878.68,1550.19 C2881.63,1546.53 2886.46,1544.52 2892.01,1544.52 C2901.81,1544.52 2907.59,1550.53 2907.59,1560.46 C2907.59,1569.19 2903.46,1577.1 2893.67,1587.47 C2884.93,1596.67 2879.51,1602.46 2877.49,1604.71 C2873.26,1609.66 2871.13,1612.38 2865.93,1619.22 L2865.93,1622.52 L2919.15,1622.52 L2921.4,1597.03 "/>
<path class="Fingering" d="M3055.27,1597.03 L3050.06,1597.03 L3048.89,1603.05 C3047.36,1610.72 3046.41,1611.42 3039.09,1611.42 L3012.66,1611.42 C3020.81,1602.92 3023.52,1600.46 3031.08,1594.55 C3041.81,1586.3 3046.41,1582.16 3049.12,1578.63 C3052.91,1573.42 3054.78,1568.24 3054.78,1562.46 C3054.78,1549 3043.7,1539.46 3028.23,1539.46 C3013.25,1539.46 3001.81,1549 3001.81,1561.63 C3001.81,1569.07 3005.58,1574.14 3011.12,1574.14 C3015.5,1574.14 3018.44,1571.19 3018.44,1566.94 C3018.44,1563.99 3016.8,1561.28 3014.31,1560.22 C3009.95,1558.44 3009.72,1558.21 3009.72,1556.67 C3009.72,1554.91 3010.89,1552.19 3012.55,1550.19 C3015.5,1546.53 3020.33,1544.52 3025.87,1544.52 C3035.67,1544.52 3041.45,1550.53 3041.45,1560.46 C3041.45,1569.19 3037.33,1577.1 3027.53,1587.47 C3018.8,1596.67 3013.37,1602.46 3011.36,1604.71 C3007.12,1609.66 3005,1612.38 2999.8,1619.22 L2999.8,1622.52 L3053.02,1622.52 L3055.27,1597.03 "/>
<path class="Fingering" d="M3251.18,1444.12 C3261.92,1440.23 3266.87,1434.21 3266.87,1424.76 C3266.87,1412.39 3257.43,1404.48 3242.81,1404.48 C3229,1404.48 3218.5,1412.62 3218.5,1423.36 C3218.5,1428.18 3221.68,1431.61 3226.28,1431.61 C3230.42,1431.61 3233.25,1428.78 3233.25,1424.53 C3233.25,1421.93 3232.31,1420.4 3229.59,1418.51 C3228.4,1417.68 3228.06,1417.21 3228.06,1416.39 C3228.06,1413.09 3234.9,1409.54 3241.62,1409.54 C3250.12,1409.54 3254.61,1414.86 3254.61,1424.89 C3254.61,1435.86 3250.12,1441.64 3241.75,1441.64 C3240.68,1441.64 3238.67,1441.53 3236.9,1441.4 C3235.97,1441.29 3235.01,1441.29 3234.31,1441.29 C3231.82,1441.29 3230.53,1442.36 3230.53,1444.48 C3230.53,1446.48 3231.72,1447.42 3234.31,1447.42 C3235.01,1447.42 3235.97,1447.42 3237.03,1447.31 C3239.39,1447.18 3241.28,1447.18 3242.57,1447.18 C3251.29,1447.18 3256.03,1453.45 3256.03,1465.12 C3256.03,1477.4 3250.12,1484.25 3239.5,1484.25 C3232.07,1484.25 3224.04,1480.23 3224.04,1476.57 C3224.04,1475.51 3224.28,1475.28 3226.53,1473.98 C3229.82,1471.96 3231.12,1469.96 3231.12,1467.01 C3231.12,1462.76 3227.93,1459.57 3223.68,1459.57 C3218.62,1459.57 3215.31,1463.71 3215.31,1469.96 C3215.31,1481.4 3225.81,1489.31 3240.92,1489.31 C3258.03,1489.31 3269.12,1479.87 3269.12,1465.36 C3269.12,1454.26 3263.45,1447.54 3251.18,1444.12"/>
<path class="Fingering" d="M3385.05,1444.12 C3395.78,1440.23 3400.74,1434.21 3400.74,1424.76 C3400.74,1412.39 3391.3,1404.48 3376.67,1404.48 C3362.86,1404.48 3352.36,1412.62 3352.36,1423.36 C3352.36,1428.18 3355.55,1431.61 3360.14,1431.61 C3364.28,1431.61 3367.11,1428.78 3367.11,1424.53 C3367.11,1421.93 3366.17,1420.4 3363.46,1418.51 C3362.27,1417.68 3361.92,1417.21 3361.92,1416.39 C3361.92,1413.09 3368.77,1409.54 3375.49,1409.54 C3383.99,1409.54 3388.47,1414.86 3388.47,1424.89 C3388.47,1435.86 3383.99,1441.64 3375.61,1441.64 C3374.55,1441.64 3372.53,1441.53 3370.77,1441.4 C3369.83,1441.29 3368.88,1441.29 3368.17,1441.29 C3365.69,1441.29 3364.39,1442.36 3364.39,1444.48 C3364.39,1446.48 3365.58,1447.42 3368.17,1447.42 C3368.88,1447.42 3369.83,1447.42 3370.89,1447.31 C3373.25,1447.18 3375.14,1447.18 3376.44,1447.18 C3385.16,1447.18 3389.89,1453.45 3389.89,1465.12 C3389.89,1477.4 3383.99,1484.25 3373.36,1484.25 C3365.94,1484.25 3357.91,1480.23 3357.91,1476.57 C3357.91,1475.51 3358.14,1475.28 3360.39,1473.98 C3363.69,1471.96 3364.99,1469.96 3364.99,1467.01 C3364.99,1462.76 3361.8,1459.57 3357.55,1459.57 C3352.49,1459.57 3349.17,1463.71 3349.17,1469.96 C3349.17,1481.4 3359.67,1489.31 3374.78,1489.31 C3391.89,1489.31 3402.99,1479.87 3402.99,1465.36 C3402.99,1454.26 3397.31,1447.54 3385.05,1444.12"/>
<path class="Fingering" d="M3537.18,1597.03 L3531.98,1597.03 L3530.81,1603.05 C3529.27,1610.72 3528.32,1611.42 3521.01,1611.42 L3494.57,1611.42 C3502.73,1602.92 3505.43,1600.46 3512.99,1594.55 C3523.73,1586.3 3528.32,1582.16 3531.04,1578.63 C3534.82,1573.42 3536.7,1568.24 3536.7,1562.46 C3536.7,1549 3525.62,1539.46 3510.15,1539.46 C3495.16,1539.46 3483.73,1549 3483.73,1561.63 C3483.73,1569.07 3487.49,1574.14 3493.04,1574.14 C3497.41,1574.14 3500.35,1571.19 3500.35,1566.94 C3500.35,1563.99 3498.71,1561.28 3496.23,1560.22 C3491.87,1558.44 3491.63,1558.21 3491.63,1556.67 C3491.63,1554.91 3492.81,1552.19 3494.46,1550.19 C3497.41,1546.53 3502.24,1544.52 3507.79,1544.52 C3517.59,1544.52 3523.37,1550.53 3523.37,1560.46 C3523.37,1569.19 3519.24,1577.1 3509.45,1587.47 C3500.71,1596.67 3495.29,1602.46 3493.27,1604.71 C3489.04,1609.66 3486.91,1612.38 3481.71,1619.22 L3481.71,1622.52 L3534.93,1622.52 L3537.18,1597.03 "/>
<path class="Fingering" d="M3652.78,1444.12 C3663.51,1440.23 3668.47,1434.21 3668.47,1424.76 C3668.47,1412.39 3659.03,1404.48 3644.4,1404.48 C3630.59,1404.48 3620.09,1412.62 3620.09,1423.36 C3620.09,1428.18 3623.28,1431.61 3627.87,1431.61 C3632.01,1431.61 3634.84,1428.78 3634.84,1424.53 C3634.84,1421.93 3633.9,1420.4 3631.19,1418.51 C3630,1417.68 3629.65,1417.21 3629.65,1416.39 C3629.65,1413.09 3636.5,1409.54 3643.22,1409.54 C3651.72,1409.54 3656.2,1414.86 3656.2,1424.89 C3656.2,1435.86 3651.72,1441.64 3643.34,1441.64 C3642.28,1441.64 3640.26,1441.53 3638.5,1441.4 C3637.56,1441.29 3636.61,1441.29 3635.9,1441.29 C3633.42,1441.29 3632.12,1442.36 3632.12,1444.48 C3632.12,1446.48 3633.31,1447.42 3635.9,1447.42 C3636.61,1447.42 3637.56,1447.42 3638.62,1447.31 C3640.98,1447.18 3642.87,1447.18 3644.17,1447.18 C3652.89,1447.18 3657.62,1453.45 3657.62,1465.12 C3657.62,1477.4 3651.72,1484.25 3641.09,1484.25 C3633.67,1484.25 3625.64,1480.23 3625.64,1476.57 C3625.64,1475.51 3625.87,1475.28 3628.12,1473.98 C3631.42,1471.96 3632.72,1469.96 3632.72,1467.01 C3632.72,1462.76 3629.53,1459.57 3625.28,1459.57 C3620.22,1459.57 3616.9,1463.71 3616.9,1469.96 C3616.9,1481.4 3627.4,1489.31 3642.51,1489.31 C3659.62,1489.31 3670.72,1479.87 3670.72,1465.36 C3670.72,1454.26 3665.05,1447.54 3652.78,1444.12"/>
</svg>
