<?xml version="1.0" encoding="UTF-8" standalone="no"?>
<svg width="4208.47px" height="2977.23px" viewBox="0 0 4208.47 2977.23"
 xmlns="http://www.w3.org/2000/svg" xmlns:xlink="http://www.w3.org/1999/xlink" version="1.2" baseProfile="tiny">
<title>Tuba</title>
<desc>Generated by MuseScore 3.6.2</desc>
<polyline class="StaffLines" fill="none" stroke="#000000" stroke-width="2.42" stroke-linejoin="bevel" points="322.441,398.033 3995.01,398.033"/>
<polyline class="StaffLines" fill="none" stroke="#000000" stroke-width="2.42" stroke-linejoin="bevel" points="322.441,420.002 3995.01,420.002"/>
<polyline class="StaffLines" fill="none" stroke="#000000" stroke-width="2.42" stroke-linejoin="bevel" points="322.441,441.97 3995.01,441.97"/>
<polyline class="StaffLines" fill="none" stroke="#000000" stroke-width="2.42" stroke-linejoin="bevel" points="322.441,463.939 3995.01,463.939"/>
<polyline class="StaffLines" fill="none" stroke="#000000" stroke-width="2.42" stroke-linejoin="bevel" points="322.441,485.907 3995.01,485.907"/>
<polyline class="BarLine" fill="none" stroke="#000000" stroke-width="12.08" stroke-linejoin="bevel" points="1207.39,396.825 1207.39,487.115"/>
<polyline class="BarLine" fill="none" stroke="#000000" stroke-width="3.95" stroke-linejoin="bevel" points="1222.77,396.825 1222.77,487.115"/>
<path class="BarLine" transform="matrix(0.87874,0,0,0.87874,1233.58,430.986)" d="M10.4063,0 C10.4063,-2.90625 8.09375,-5.29688 5.20313,-5.29688 C2.29688,-5.29688 0,-2.90625 0,0 C0,2.90625 2.29688,5.29688 5.20313,5.29688 C8.09375,5.29688 10.4063,2.90625 10.4063,0"/>
<path class="BarLine" transform="matrix(0.87874,0,0,0.87874,1233.58,452.954)" d="M10.4063,0 C10.4063,-2.90625 8.09375,-5.29688 5.20313,-5.29688 C2.29688,-5.29688 0,-2.90625 0,0 C0,2.90625 2.29688,5.29688 5.20313,5.29688 C8.09375,5.29688 10.4063,2.90625 10.4063,0"/>
<polyline class="BarLine" fill="none" stroke="#000000" stroke-width="3.95" stroke-linejoin="bevel" points="1895.39,396.825 1895.39,487.115"/>
<path class="BarLine" transform="matrix(0.87874,0,0,0.87874,2581.22,430.986)" d="M10.4063,0 C10.4063,-2.90625 8.09375,-5.29688 5.20313,-5.29688 C2.29688,-5.29688 0,-2.90625 0,0 C0,2.90625 2.29688,5.29688 5.20313,5.29688 C8.09375,5.29688 10.4063,2.90625 10.4063,0"/>
<path class="BarLine" transform="matrix(0.87874,0,0,0.87874,2581.22,452.954)" d="M10.4063,0 C10.4063,-2.90625 8.09375,-5.29688 5.20313,-5.29688 C2.29688,-5.29688 0,-2.90625 0,0 C0,2.90625 2.29688,5.29688 5.20313,5.29688 C8.09375,5.29688 10.4063,2.90625 10.4063,0"/>
<polyline class="BarLine" fill="none" stroke="#000000" stroke-width="3.95" stroke-linejoin="bevel" points="2601.17,396.825 2601.17,487.115"/>
<polyline class="BarLine" fill="none" stroke="#000000" stroke-width="12.08" stroke-linejoin="bevel" points="2616.54,396.825 2616.54,487.115"/>
<polyline class="BarLine" fill="none" stroke="#000000" stroke-width="12.08" stroke-linejoin="bevel" points="2897.91,396.825 2897.91,487.115"/>
<polyline class="BarLine" fill="none" stroke="#000000" stroke-width="3.95" stroke-linejoin="bevel" points="2913.29,396.825 2913.29,487.115"/>
<path class="BarLine" transform="matrix(0.87874,0,0,0.87874,2924.1,430.986)" d="M10.4063,0 C10.4063,-2.90625 8.09375,-5.29688 5.20313,-5.29688 C2.29688,-5.29688 0,-2.90625 0,0 C0,2.90625 2.29688,5.29688 5.20313,5.29688 C8.09375,5.29688 10.4063,2.90625 10.4063,0"/>
<path class="BarLine" transform="matrix(0.87874,0,0,0.87874,2924.1,452.954)" d="M10.4063,0 C10.4063,-2.90625 8.09375,-5.29688 5.20313,-5.29688 C2.29688,-5.29688 0,-2.90625 0,0 C0,2.90625 2.29688,5.29688 5.20313,5.29688 C8.09375,5.29688 10.4063,2.90625 10.4063,0"/>
<polyline class="BarLine" fill="none" stroke="#000000" stroke-width="12.08" stroke-linejoin="bevel" points="3226.11,396.825 3226.11,487.115"/>
<polyline class="BarLine" fill="none" stroke="#000000" stroke-width="3.95" stroke-linejoin="bevel" points="3241.49,396.825 3241.49,487.115"/>
<path class="BarLine" transform="matrix(0.87874,0,0,0.87874,3252.29,430.986)" d="M10.4063,0 C10.4063,-2.90625 8.09375,-5.29688 5.20313,-5.29688 C2.29688,-5.29688 0,-2.90625 0,0 C0,2.90625 2.29688,5.29688 5.20313,5.29688 C8.09375,5.29688 10.4063,2.90625 10.4063,0"/>
<path class="BarLine" transform="matrix(0.87874,0,0,0.87874,3252.29,452.954)" d="M10.4063,0 C10.4063,-2.90625 8.09375,-5.29688 5.20313,-5.29688 C2.29688,-5.29688 0,-2.90625 0,0 C0,2.90625 2.29688,5.29688 5.20313,5.29688 C8.09375,5.29688 10.4063,2.90625 10.4063,0"/>
<polyline class="BarLine" fill="none" stroke="#000000" stroke-width="3.95" stroke-linejoin="bevel" points="3546.73,396.825 3546.73,487.115"/>
<path class="BarLine" transform="matrix(0.87874,0,0,0.87874,3739.16,430.986)" d="M10.4063,0 C10.4063,-2.90625 8.09375,-5.29688 5.20313,-5.29688 C2.29688,-5.29688 0,-2.90625 0,0 C0,2.90625 2.29688,5.29688 5.20313,5.29688 C8.09375,5.29688 10.4063,2.90625 10.4063,0"/>
<path class="BarLine" transform="matrix(0.87874,0,0,0.87874,3739.16,452.954)" d="M10.4063,0 C10.4063,-2.90625 8.09375,-5.29688 5.20313,-5.29688 C2.29688,-5.29688 0,-2.90625 0,0 C0,2.90625 2.29688,5.29688 5.20313,5.29688 C8.09375,5.29688 10.4063,2.90625 10.4063,0"/>
<polyline class="BarLine" fill="none" stroke="#000000" stroke-width="3.95" stroke-linejoin="bevel" points="3759.11,396.825 3759.11,487.115"/>
<polyline class="BarLine" fill="none" stroke="#000000" stroke-width="12.08" stroke-linejoin="bevel" points="3774.49,396.825 3774.49,487.115"/>
<polyline class="BarLine" fill="none" stroke="#000000" stroke-width="3.95" stroke-linejoin="bevel" points="3973.59,396.825 3973.59,487.115"/>
<polyline class="BarLine" fill="none" stroke="#000000" stroke-width="12.08" stroke-linejoin="bevel" points="3988.97,396.825 3988.97,487.115"/>
<path class="Accidental" transform="matrix(0.87874,0,0,0.87874,777.445,441.97)" d="M20.0938,-7.90625 C19.5,-11.7969 17.0938,-15.5 12,-15.5 C7,-15.5 4.09375,-12.4063 3.59375,-11.7969 L4,-43.9063 C4,-44.7031 3.40625,-45.2969 2.59375,-45.2969 L1.40625,-45.2969 C0.59375,-45.2969 0,-44.7031 0,-43.9063 L0.5,16.2031 C0.5,17 1.09375,17.5938 1.90625,17.5938 C2.09375,17.5938 2.5,17.5 2.70313,17.4063 C3.09375,17.2031 9.59375,14 15,7.90625 C18.7969,3.59375 20.2969,-1.29688 20.2969,-5.40625 C20.2969,-6.29688 20.2031,-7.09375 20.0938,-7.90625 M13.2031,-4 C13.2031,-2.5 12.7969,2.09375 10.2969,5.90625 C8.59375,8.5 5.20313,11.2031 3.29688,12.7031 L3.59375,-6.79688 C3.79688,-7.70313 5.29688,-10.5938 9.29688,-10.5938 C12.9063,-10.5938 13.2031,-7.20313 13.2031,-5.09375 L13.2031,-4 "/>
<path class="Accidental" transform="matrix(0.87874,0,0,0.87874,838.552,441.97)" d="M16.5938,-18.2969 C16.4063,-18.5 16.0938,-18.5938 15.7969,-18.5938 C15.7031,-18.5938 15.5,-18.5 15.4063,-18.5 L2.79688,-15 L2.79688,-32.5 L0,-32.5 L0,17 C0,17.7969 0.59375,18.2969 1.40625,18.2969 L1.79688,18.2969 L14.4063,14.7969 L14.4063,32.2969 L17.0938,32.2969 L17.0938,-17.2031 C17.0938,-17.5938 16.9063,-18.0938 16.5938,-18.2969 M14.4063,6.5 L2.79688,9.70313 L2.79688,-6.70313 L14.4063,-10 L14.4063,6.5 "/>
<path class="Accidental" transform="matrix(0.87874,0,0,0.87874,1109.57,441.97)" d="M20.0938,-7.90625 C19.5,-11.7969 17.0938,-15.5 12,-15.5 C7,-15.5 4.09375,-12.4063 3.59375,-11.7969 L4,-43.9063 C4,-44.7031 3.40625,-45.2969 2.59375,-45.2969 L1.40625,-45.2969 C0.59375,-45.2969 0,-44.7031 0,-43.9063 L0.5,16.2031 C0.5,17 1.09375,17.5938 1.90625,17.5938 C2.09375,17.5938 2.5,17.5 2.70313,17.4063 C3.09375,17.2031 9.59375,14 15,7.90625 C18.7969,3.59375 20.2969,-1.29688 20.2969,-5.40625 C20.2969,-6.29688 20.2031,-7.09375 20.0938,-7.90625 M13.2031,-4 C13.2031,-2.5 12.7969,2.09375 10.2969,5.90625 C8.59375,8.5 5.20313,11.2031 3.29688,12.7031 L3.59375,-6.79688 C3.79688,-7.70313 5.29688,-10.5938 9.29688,-10.5938 C12.9063,-10.5938 13.2031,-7.20313 13.2031,-5.09375 L13.2031,-4 "/>
<path class="Accidental" transform="matrix(0.87874,0,0,0.87874,1477.09,441.97)" d="M20.0938,-7.90625 C19.5,-11.7969 17.0938,-15.5 12,-15.5 C7,-15.5 4.09375,-12.4063 3.59375,-11.7969 L4,-43.9063 C4,-44.7031 3.40625,-45.2969 2.59375,-45.2969 L1.40625,-45.2969 C0.59375,-45.2969 0,-44.7031 0,-43.9063 L0.5,16.2031 C0.5,17 1.09375,17.5938 1.90625,17.5938 C2.09375,17.5938 2.5,17.5 2.70313,17.4063 C3.09375,17.2031 9.59375,14 15,7.90625 C18.7969,3.59375 20.2969,-1.29688 20.2969,-5.40625 C20.2969,-6.29688 20.2031,-7.09375 20.0938,-7.90625 M13.2031,-4 C13.2031,-2.5 12.7969,2.09375 10.2969,5.90625 C8.59375,8.5 5.20313,11.2031 3.29688,12.7031 L3.59375,-6.79688 C3.79688,-7.70313 5.29688,-10.5938 9.29688,-10.5938 C12.9063,-10.5938 13.2031,-7.20313 13.2031,-5.09375 L13.2031,-4 "/>
<path class="Accidental" transform="matrix(0.87874,0,0,0.87874,1538.19,441.97)" d="M16.5938,-18.2969 C16.4063,-18.5 16.0938,-18.5938 15.7969,-18.5938 C15.7031,-18.5938 15.5,-18.5 15.4063,-18.5 L2.79688,-15 L2.79688,-32.5 L0,-32.5 L0,17 C0,17.7969 0.59375,18.2969 1.40625,18.2969 L1.79688,18.2969 L14.4063,14.7969 L14.4063,32.2969 L17.0938,32.2969 L17.0938,-17.2031 C17.0938,-17.5938 16.9063,-18.0938 16.5938,-18.2969 M14.4063,6.5 L2.79688,9.70313 L2.79688,-6.70313 L14.4063,-10 L14.4063,6.5 "/>
<path class="Accidental" transform="matrix(0.87874,0,0,0.87874,2142.37,441.97)" d="M20.0938,-7.90625 C19.5,-11.7969 17.0938,-15.5 12,-15.5 C7,-15.5 4.09375,-12.4063 3.59375,-11.7969 L4,-43.9063 C4,-44.7031 3.40625,-45.2969 2.59375,-45.2969 L1.40625,-45.2969 C0.59375,-45.2969 0,-44.7031 0,-43.9063 L0.5,16.2031 C0.5,17 1.09375,17.5938 1.90625,17.5938 C2.09375,17.5938 2.5,17.5 2.70313,17.4063 C3.09375,17.2031 9.59375,14 15,7.90625 C18.7969,3.59375 20.2969,-1.29688 20.2969,-5.40625 C20.2969,-6.29688 20.2031,-7.09375 20.0938,-7.90625 M13.2031,-4 C13.2031,-2.5 12.7969,2.09375 10.2969,5.90625 C8.59375,8.5 5.20313,11.2031 3.29688,12.7031 L3.59375,-6.79688 C3.79688,-7.70313 5.29688,-10.5938 9.29688,-10.5938 C12.9063,-10.5938 13.2031,-7.20313 13.2031,-5.09375 L13.2031,-4 "/>
<path class="Accidental" transform="matrix(0.87874,0,0,0.87874,2203.47,441.97)" d="M16.5938,-18.2969 C16.4063,-18.5 16.0938,-18.5938 15.7969,-18.5938 C15.7031,-18.5938 15.5,-18.5 15.4063,-18.5 L2.79688,-15 L2.79688,-32.5 L0,-32.5 L0,17 C0,17.7969 0.59375,18.2969 1.40625,18.2969 L1.79688,18.2969 L14.4063,14.7969 L14.4063,32.2969 L17.0938,32.2969 L17.0938,-17.2031 C17.0938,-17.5938 16.9063,-18.0938 16.5938,-18.2969 M14.4063,6.5 L2.79688,9.70313 L2.79688,-6.70313 L14.4063,-10 L14.4063,6.5 "/>
<path class="Accidental" transform="matrix(0.87874,0,0,0.87874,2486.44,441.97)" d="M20.0938,-7.90625 C19.5,-11.7969 17.0938,-15.5 12,-15.5 C7,-15.5 4.09375,-12.4063 3.59375,-11.7969 L4,-43.9063 C4,-44.7031 3.40625,-45.2969 2.59375,-45.2969 L1.40625,-45.2969 C0.59375,-45.2969 0,-44.7031 0,-43.9063 L0.5,16.2031 C0.5,17 1.09375,17.5938 1.90625,17.5938 C2.09375,17.5938 2.5,17.5 2.70313,17.4063 C3.09375,17.2031 9.59375,14 15,7.90625 C18.7969,3.59375 20.2969,-1.29688 20.2969,-5.40625 C20.2969,-6.29688 20.2031,-7.09375 20.0938,-7.90625 M13.2031,-4 C13.2031,-2.5 12.7969,2.09375 10.2969,5.90625 C8.59375,8.5 5.20313,11.2031 3.29688,12.7031 L3.59375,-6.79688 C3.79688,-7.70313 5.29688,-10.5938 9.29688,-10.5938 C12.9063,-10.5938 13.2031,-7.20313 13.2031,-5.09375 L13.2031,-4 "/>
<polyline class="LedgerLine" fill="none" stroke="#000000" stroke-width="3.51" stroke-linejoin="bevel" points="646.406,507.876 690.336,507.876"/>
<polyline class="LedgerLine" fill="none" stroke="#000000" stroke-width="3.51" stroke-linejoin="bevel" points="1347.94,507.876 1391.87,507.876"/>
<polyline class="LedgerLine" fill="none" stroke="#000000" stroke-width="3.51" stroke-linejoin="bevel" points="2007.59,507.876 2051.52,507.876"/>
<polyline class="Stem" fill="none" stroke="#000000" stroke-width="2.42" stroke-linejoin="bevel" points="681.438,505.064 681.438,420.002"/>
<polyline class="Stem" fill="none" stroke="#000000" stroke-width="2.42" stroke-linejoin="bevel" points="724.224,461.127 724.224,398.033"/>
<polyline class="Stem" fill="none" stroke="#000000" stroke-width="2.42" stroke-linejoin="bevel" points="767.01,450.142 767.01,376.065"/>
<polyline class="Stem" fill="none" stroke="#000000" stroke-width="2.42" stroke-linejoin="bevel" points="828.117,439.158 828.117,376.065"/>
<polyline class="Stem" fill="none" stroke="#000000" stroke-width="2.42" stroke-linejoin="bevel" points="886.409,439.158 886.409,376.065"/>
<polyline class="Stem" fill="none" stroke="#000000" stroke-width="2.42" stroke-linejoin="bevel" points="954.866,450.142 954.866,381.557"/>
<polyline class="Stem" fill="none" stroke="#000000" stroke-width="2.42" stroke-linejoin="bevel" points="1023.32,461.127 1023.32,379.726"/>
<polyline class="Stem" fill="none" stroke="#000000" stroke-width="2.42" stroke-linejoin="bevel" points="1091.78,450.142 1091.78,377.895"/>
<polyline class="Stem" fill="none" stroke="#000000" stroke-width="2.42" stroke-linejoin="bevel" points="1160.24,439.158 1160.24,376.065"/>
<polyline class="Stem" fill="none" stroke="#000000" stroke-width="2.42" stroke-linejoin="bevel" points="1273.16,444.923 1273.16,518.86"/>
<polyline class="Stem" fill="none" stroke="#000000" stroke-width="2.42" stroke-linejoin="bevel" points="1382.97,505.064 1382.97,420.002"/>
<polyline class="Stem" fill="none" stroke="#000000" stroke-width="2.42" stroke-linejoin="bevel" points="1424.81,461.127 1424.81,398.033"/>
<polyline class="Stem" fill="none" stroke="#000000" stroke-width="2.42" stroke-linejoin="bevel" points="1466.65,450.142 1466.65,376.065"/>
<polyline class="Stem" fill="none" stroke="#000000" stroke-width="2.42" stroke-linejoin="bevel" points="1527.76,439.158 1527.76,376.065"/>
<polyline class="Stem" fill="none" stroke="#000000" stroke-width="2.42" stroke-linejoin="bevel" points="1586.05,439.158 1586.05,376.065"/>
<polyline class="Stem" fill="none" stroke="#000000" stroke-width="2.42" stroke-linejoin="bevel" points="1652.99,450.142 1652.99,381.557"/>
<polyline class="Stem" fill="none" stroke="#000000" stroke-width="2.42" stroke-linejoin="bevel" points="1719.93,461.127 1719.93,379.726"/>
<polyline class="Stem" fill="none" stroke="#000000" stroke-width="2.42" stroke-linejoin="bevel" points="1786.87,450.142 1786.87,377.895"/>
<polyline class="Stem" fill="none" stroke="#000000" stroke-width="2.42" stroke-linejoin="bevel" points="1853.81,439.158 1853.81,376.065"/>
<polyline class="Stem" fill="none" stroke="#000000" stroke-width="2.42" stroke-linejoin="bevel" points="1927.18,433.938 1927.18,507.876"/>
<polyline class="Stem" fill="none" stroke="#000000" stroke-width="2.42" stroke-linejoin="bevel" points="2042.62,505.064 2042.62,420.002"/>
<polyline class="Stem" fill="none" stroke="#000000" stroke-width="2.42" stroke-linejoin="bevel" points="2087.28,461.127 2087.28,398.033"/>
<polyline class="Stem" fill="none" stroke="#000000" stroke-width="2.42" stroke-linejoin="bevel" points="2131.93,450.142 2131.93,376.065"/>
<polyline class="Stem" fill="none" stroke="#000000" stroke-width="2.42" stroke-linejoin="bevel" points="2193.04,439.158 2193.04,376.065"/>
<polyline class="Stem" fill="none" stroke="#000000" stroke-width="2.42" stroke-linejoin="bevel" points="2251.33,439.158 2251.33,376.065"/>
<polyline class="Stem" fill="none" stroke="#000000" stroke-width="2.42" stroke-linejoin="bevel" points="2322.78,450.142 2322.78,381.557"/>
<polyline class="Stem" fill="none" stroke="#000000" stroke-width="2.42" stroke-linejoin="bevel" points="2394.22,461.127 2394.22,379.726"/>
<polyline class="Stem" fill="none" stroke="#000000" stroke-width="2.42" stroke-linejoin="bevel" points="2465.67,450.142 2465.67,377.895"/>
<polyline class="Stem" fill="none" stroke="#000000" stroke-width="2.42" stroke-linejoin="bevel" points="2537.12,439.158 2537.12,376.065"/>
<path class="Note" transform="matrix(0.87874,0,0,0.87874,654.095,507.876)" d="M31.5,-8.09375 C29.7031,-11.4063 25.9063,-13.2031 21.2969,-13.2031 C17.9063,-13.2031 14.2031,-12.2031 10.5938,-10.2969 C4,-6.79688 0,-0.90625 0,4.20313 C0,5.59375 0.296875,7 1,8.29688 C2.79688,11.5938 6.59375,13.2969 11.2031,13.2969 C14.5938,13.2969 18.2969,12.4063 21.9063,10.5 C28.5,7 32.5,1.09375 32.5,-4 C32.5,-5.40625 32.2031,-6.79688 31.5,-8.09375"/>
<path class="Note" transform="matrix(0.87874,0,0,0.87874,696.88,463.939)" d="M31.5,-8.09375 C29.7031,-11.4063 25.9063,-13.2031 21.2969,-13.2031 C17.9063,-13.2031 14.2031,-12.2031 10.5938,-10.2969 C4,-6.79688 0,-0.90625 0,4.20313 C0,5.59375 0.296875,7 1,8.29688 C2.79688,11.5938 6.59375,13.2969 11.2031,13.2969 C14.5938,13.2969 18.2969,12.4063 21.9063,10.5 C28.5,7 32.5,1.09375 32.5,-4 C32.5,-5.40625 32.2031,-6.79688 31.5,-8.09375"/>
<path class="Note" transform="matrix(0.87874,0,0,0.87874,739.666,452.954)" d="M31.5,-8.09375 C29.7031,-11.4063 25.9063,-13.2031 21.2969,-13.2031 C17.9063,-13.2031 14.2031,-12.2031 10.5938,-10.2969 C4,-6.79688 0,-0.90625 0,4.20313 C0,5.59375 0.296875,7 1,8.29688 C2.79688,11.5938 6.59375,13.2969 11.2031,13.2969 C14.5938,13.2969 18.2969,12.4063 21.9063,10.5 C28.5,7 32.5,1.09375 32.5,-4 C32.5,-5.40625 32.2031,-6.79688 31.5,-8.09375"/>
<path class="Note" transform="matrix(0.87874,0,0,0.87874,800.773,441.97)" d="M31.5,-8.09375 C29.7031,-11.4063 25.9063,-13.2031 21.2969,-13.2031 C17.9063,-13.2031 14.2031,-12.2031 10.5938,-10.2969 C4,-6.79688 0,-0.90625 0,4.20313 C0,5.59375 0.296875,7 1,8.29688 C2.79688,11.5938 6.59375,13.2969 11.2031,13.2969 C14.5938,13.2969 18.2969,12.4063 21.9063,10.5 C28.5,7 32.5,1.09375 32.5,-4 C32.5,-5.40625 32.2031,-6.79688 31.5,-8.09375"/>
<path class="Note" transform="matrix(0.87874,0,0,0.87874,859.065,441.97)" d="M31.5,-8.09375 C29.7031,-11.4063 25.9063,-13.2031 21.2969,-13.2031 C17.9063,-13.2031 14.2031,-12.2031 10.5938,-10.2969 C4,-6.79688 0,-0.90625 0,4.20313 C0,5.59375 0.296875,7 1,8.29688 C2.79688,11.5938 6.59375,13.2969 11.2031,13.2969 C14.5938,13.2969 18.2969,12.4063 21.9063,10.5 C28.5,7 32.5,1.09375 32.5,-4 C32.5,-5.40625 32.2031,-6.79688 31.5,-8.09375"/>
<path class="Note" transform="matrix(0.87874,0,0,0.87874,927.522,452.954)" d="M31.5,-8.09375 C29.7031,-11.4063 25.9063,-13.2031 21.2969,-13.2031 C17.9063,-13.2031 14.2031,-12.2031 10.5938,-10.2969 C4,-6.79688 0,-0.90625 0,4.20313 C0,5.59375 0.296875,7 1,8.29688 C2.79688,11.5938 6.59375,13.2969 11.2031,13.2969 C14.5938,13.2969 18.2969,12.4063 21.9063,10.5 C28.5,7 32.5,1.09375 32.5,-4 C32.5,-5.40625 32.2031,-6.79688 31.5,-8.09375"/>
<path class="Note" transform="matrix(0.87874,0,0,0.87874,995.979,463.939)" d="M31.5,-8.09375 C29.7031,-11.4063 25.9063,-13.2031 21.2969,-13.2031 C17.9063,-13.2031 14.2031,-12.2031 10.5938,-10.2969 C4,-6.79688 0,-0.90625 0,4.20313 C0,5.59375 0.296875,7 1,8.29688 C2.79688,11.5938 6.59375,13.2969 11.2031,13.2969 C14.5938,13.2969 18.2969,12.4063 21.9063,10.5 C28.5,7 32.5,1.09375 32.5,-4 C32.5,-5.40625 32.2031,-6.79688 31.5,-8.09375"/>
<path class="Note" transform="matrix(0.87874,0,0,0.87874,1064.44,452.954)" d="M31.5,-8.09375 C29.7031,-11.4063 25.9063,-13.2031 21.2969,-13.2031 C17.9063,-13.2031 14.2031,-12.2031 10.5938,-10.2969 C4,-6.79688 0,-0.90625 0,4.20313 C0,5.59375 0.296875,7 1,8.29688 C2.79688,11.5938 6.59375,13.2969 11.2031,13.2969 C14.5938,13.2969 18.2969,12.4063 21.9063,10.5 C28.5,7 32.5,1.09375 32.5,-4 C32.5,-5.40625 32.2031,-6.79688 31.5,-8.09375"/>
<path class="Note" transform="matrix(0.87874,0,0,0.87874,1132.89,441.97)" d="M31.5,-8.09375 C29.7031,-11.4063 25.9063,-13.2031 21.2969,-13.2031 C17.9063,-13.2031 14.2031,-12.2031 10.5938,-10.2969 C4,-6.79688 0,-0.90625 0,4.20313 C0,5.59375 0.296875,7 1,8.29688 C2.79688,11.5938 6.59375,13.2969 11.2031,13.2969 C14.5938,13.2969 18.2969,12.4063 21.9063,10.5 C28.5,7 32.5,1.09375 32.5,-4 C32.5,-5.40625 32.2031,-6.79688 31.5,-8.09375"/>
<path class="Note" transform="matrix(0.87874,0,0,0.87874,1271.95,441.97)" d="M31.5,-8.09375 C29.7031,-11.4063 25.9063,-13.2031 21.2969,-13.2031 C17.9063,-13.2031 14.2031,-12.2031 10.5938,-10.2969 C4,-6.79688 0,-0.90625 0,4.20313 C0,5.59375 0.296875,7 1,8.29688 C2.79688,11.5938 6.59375,13.2969 11.2031,13.2969 C14.5938,13.2969 18.2969,12.4063 21.9063,10.5 C28.5,7 32.5,1.09375 32.5,-4 C32.5,-5.40625 32.2031,-6.79688 31.5,-8.09375"/>
<path class="Note" transform="matrix(0.87874,0,0,0.87874,1355.63,507.876)" d="M31.5,-8.09375 C29.7031,-11.4063 25.9063,-13.2031 21.2969,-13.2031 C17.9063,-13.2031 14.2031,-12.2031 10.5938,-10.2969 C4,-6.79688 0,-0.90625 0,4.20313 C0,5.59375 0.296875,7 1,8.29688 C2.79688,11.5938 6.59375,13.2969 11.2031,13.2969 C14.5938,13.2969 18.2969,12.4063 21.9063,10.5 C28.5,7 32.5,1.09375 32.5,-4 C32.5,-5.40625 32.2031,-6.79688 31.5,-8.09375"/>
<path class="Note" transform="matrix(0.87874,0,0,0.87874,1397.47,463.939)" d="M31.5,-8.09375 C29.7031,-11.4063 25.9063,-13.2031 21.2969,-13.2031 C17.9063,-13.2031 14.2031,-12.2031 10.5938,-10.2969 C4,-6.79688 0,-0.90625 0,4.20313 C0,5.59375 0.296875,7 1,8.29688 C2.79688,11.5938 6.59375,13.2969 11.2031,13.2969 C14.5938,13.2969 18.2969,12.4063 21.9063,10.5 C28.5,7 32.5,1.09375 32.5,-4 C32.5,-5.40625 32.2031,-6.79688 31.5,-8.09375"/>
<path class="Note" transform="matrix(0.87874,0,0,0.87874,1439.31,452.954)" d="M31.5,-8.09375 C29.7031,-11.4063 25.9063,-13.2031 21.2969,-13.2031 C17.9063,-13.2031 14.2031,-12.2031 10.5938,-10.2969 C4,-6.79688 0,-0.90625 0,4.20313 C0,5.59375 0.296875,7 1,8.29688 C2.79688,11.5938 6.59375,13.2969 11.2031,13.2969 C14.5938,13.2969 18.2969,12.4063 21.9063,10.5 C28.5,7 32.5,1.09375 32.5,-4 C32.5,-5.40625 32.2031,-6.79688 31.5,-8.09375"/>
<path class="Note" transform="matrix(0.87874,0,0,0.87874,1500.41,441.97)" d="M31.5,-8.09375 C29.7031,-11.4063 25.9063,-13.2031 21.2969,-13.2031 C17.9063,-13.2031 14.2031,-12.2031 10.5938,-10.2969 C4,-6.79688 0,-0.90625 0,4.20313 C0,5.59375 0.296875,7 1,8.29688 C2.79688,11.5938 6.59375,13.2969 11.2031,13.2969 C14.5938,13.2969 18.2969,12.4063 21.9063,10.5 C28.5,7 32.5,1.09375 32.5,-4 C32.5,-5.40625 32.2031,-6.79688 31.5,-8.09375"/>
<path class="Note" transform="matrix(0.87874,0,0,0.87874,1558.71,441.97)" d="M31.5,-8.09375 C29.7031,-11.4063 25.9063,-13.2031 21.2969,-13.2031 C17.9063,-13.2031 14.2031,-12.2031 10.5938,-10.2969 C4,-6.79688 0,-0.90625 0,4.20313 C0,5.59375 0.296875,7 1,8.29688 C2.79688,11.5938 6.59375,13.2969 11.2031,13.2969 C14.5938,13.2969 18.2969,12.4063 21.9063,10.5 C28.5,7 32.5,1.09375 32.5,-4 C32.5,-5.40625 32.2031,-6.79688 31.5,-8.09375"/>
<path class="Note" transform="matrix(0.87874,0,0,0.87874,1625.65,452.954)" d="M31.5,-8.09375 C29.7031,-11.4063 25.9063,-13.2031 21.2969,-13.2031 C17.9063,-13.2031 14.2031,-12.2031 10.5938,-10.2969 C4,-6.79688 0,-0.90625 0,4.20313 C0,5.59375 0.296875,7 1,8.29688 C2.79688,11.5938 6.59375,13.2969 11.2031,13.2969 C14.5938,13.2969 18.2969,12.4063 21.9063,10.5 C28.5,7 32.5,1.09375 32.5,-4 C32.5,-5.40625 32.2031,-6.79688 31.5,-8.09375"/>
<path class="Note" transform="matrix(0.87874,0,0,0.87874,1692.59,463.939)" d="M31.5,-8.09375 C29.7031,-11.4063 25.9063,-13.2031 21.2969,-13.2031 C17.9063,-13.2031 14.2031,-12.2031 10.5938,-10.2969 C4,-6.79688 0,-0.90625 0,4.20313 C0,5.59375 0.296875,7 1,8.29688 C2.79688,11.5938 6.59375,13.2969 11.2031,13.2969 C14.5938,13.2969 18.2969,12.4063 21.9063,10.5 C28.5,7 32.5,1.09375 32.5,-4 C32.5,-5.40625 32.2031,-6.79688 31.5,-8.09375"/>
<path class="Note" transform="matrix(0.87874,0,0,0.87874,1759.53,452.954)" d="M31.5,-8.09375 C29.7031,-11.4063 25.9063,-13.2031 21.2969,-13.2031 C17.9063,-13.2031 14.2031,-12.2031 10.5938,-10.2969 C4,-6.79688 0,-0.90625 0,4.20313 C0,5.59375 0.296875,7 1,8.29688 C2.79688,11.5938 6.59375,13.2969 11.2031,13.2969 C14.5938,13.2969 18.2969,12.4063 21.9063,10.5 C28.5,7 32.5,1.09375 32.5,-4 C32.5,-5.40625 32.2031,-6.79688 31.5,-8.09375"/>
<path class="Note" transform="matrix(0.87874,0,0,0.87874,1826.47,441.97)" d="M31.5,-8.09375 C29.7031,-11.4063 25.9063,-13.2031 21.2969,-13.2031 C17.9063,-13.2031 14.2031,-12.2031 10.5938,-10.2969 C4,-6.79688 0,-0.90625 0,4.20313 C0,5.59375 0.296875,7 1,8.29688 C2.79688,11.5938 6.59375,13.2969 11.2031,13.2969 C14.5938,13.2969 18.2969,12.4063 21.9063,10.5 C28.5,7 32.5,1.09375 32.5,-4 C32.5,-5.40625 32.2031,-6.79688 31.5,-8.09375"/>
<path class="Note" transform="matrix(0.87874,0,0,0.87874,1925.97,430.986)" d="M31.5,-8.09375 C29.7031,-11.4063 25.9063,-13.2031 21.2969,-13.2031 C17.9063,-13.2031 14.2031,-12.2031 10.5938,-10.2969 C4,-6.79688 0,-0.90625 0,4.20313 C0,5.59375 0.296875,7 1,8.29688 C2.79688,11.5938 6.59375,13.2969 11.2031,13.2969 C14.5938,13.2969 18.2969,12.4063 21.9063,10.5 C28.5,7 32.5,1.09375 32.5,-4 C32.5,-5.40625 32.2031,-6.79688 31.5,-8.09375"/>
<path class="Note" transform="matrix(0.87874,0,0,0.87874,2015.28,507.876)" d="M31.5,-8.09375 C29.7031,-11.4063 25.9063,-13.2031 21.2969,-13.2031 C17.9063,-13.2031 14.2031,-12.2031 10.5938,-10.2969 C4,-6.79688 0,-0.90625 0,4.20313 C0,5.59375 0.296875,7 1,8.29688 C2.79688,11.5938 6.59375,13.2969 11.2031,13.2969 C14.5938,13.2969 18.2969,12.4063 21.9063,10.5 C28.5,7 32.5,1.09375 32.5,-4 C32.5,-5.40625 32.2031,-6.79688 31.5,-8.09375"/>
<path class="Note" transform="matrix(0.87874,0,0,0.87874,2059.93,463.939)" d="M31.5,-8.09375 C29.7031,-11.4063 25.9063,-13.2031 21.2969,-13.2031 C17.9063,-13.2031 14.2031,-12.2031 10.5938,-10.2969 C4,-6.79688 0,-0.90625 0,4.20313 C0,5.59375 0.296875,7 1,8.29688 C2.79688,11.5938 6.59375,13.2969 11.2031,13.2969 C14.5938,13.2969 18.2969,12.4063 21.9063,10.5 C28.5,7 32.5,1.09375 32.5,-4 C32.5,-5.40625 32.2031,-6.79688 31.5,-8.09375"/>
<path class="Note" transform="matrix(0.87874,0,0,0.87874,2104.59,452.954)" d="M31.5,-8.09375 C29.7031,-11.4063 25.9063,-13.2031 21.2969,-13.2031 C17.9063,-13.2031 14.2031,-12.2031 10.5938,-10.2969 C4,-6.79688 0,-0.90625 0,4.20313 C0,5.59375 0.296875,7 1,8.29688 C2.79688,11.5938 6.59375,13.2969 11.2031,13.2969 C14.5938,13.2969 18.2969,12.4063 21.9063,10.5 C28.5,7 32.5,1.09375 32.5,-4 C32.5,-5.40625 32.2031,-6.79688 31.5,-8.09375"/>
<path class="Note" transform="matrix(0.87874,0,0,0.87874,2165.69,441.97)" d="M31.5,-8.09375 C29.7031,-11.4063 25.9063,-13.2031 21.2969,-13.2031 C17.9063,-13.2031 14.2031,-12.2031 10.5938,-10.2969 C4,-6.79688 0,-0.90625 0,4.20313 C0,5.59375 0.296875,7 1,8.29688 C2.79688,11.5938 6.59375,13.2969 11.2031,13.2969 C14.5938,13.2969 18.2969,12.4063 21.9063,10.5 C28.5,7 32.5,1.09375 32.5,-4 C32.5,-5.40625 32.2031,-6.79688 31.5,-8.09375"/>
<path class="Note" transform="matrix(0.87874,0,0,0.87874,2223.99,441.97)" d="M31.5,-8.09375 C29.7031,-11.4063 25.9063,-13.2031 21.2969,-13.2031 C17.9063,-13.2031 14.2031,-12.2031 10.5938,-10.2969 C4,-6.79688 0,-0.90625 0,4.20313 C0,5.59375 0.296875,7 1,8.29688 C2.79688,11.5938 6.59375,13.2969 11.2031,13.2969 C14.5938,13.2969 18.2969,12.4063 21.9063,10.5 C28.5,7 32.5,1.09375 32.5,-4 C32.5,-5.40625 32.2031,-6.79688 31.5,-8.09375"/>
<path class="Note" transform="matrix(0.87874,0,0,0.87874,2295.43,452.954)" d="M31.5,-8.09375 C29.7031,-11.4063 25.9063,-13.2031 21.2969,-13.2031 C17.9063,-13.2031 14.2031,-12.2031 10.5938,-10.2969 C4,-6.79688 0,-0.90625 0,4.20313 C0,5.59375 0.296875,7 1,8.29688 C2.79688,11.5938 6.59375,13.2969 11.2031,13.2969 C14.5938,13.2969 18.2969,12.4063 21.9063,10.5 C28.5,7 32.5,1.09375 32.5,-4 C32.5,-5.40625 32.2031,-6.79688 31.5,-8.09375"/>
<path class="Note" transform="matrix(0.87874,0,0,0.87874,2366.88,463.939)" d="M31.5,-8.09375 C29.7031,-11.4063 25.9063,-13.2031 21.2969,-13.2031 C17.9063,-13.2031 14.2031,-12.2031 10.5938,-10.2969 C4,-6.79688 0,-0.90625 0,4.20313 C0,5.59375 0.296875,7 1,8.29688 C2.79688,11.5938 6.59375,13.2969 11.2031,13.2969 C14.5938,13.2969 18.2969,12.4063 21.9063,10.5 C28.5,7 32.5,1.09375 32.5,-4 C32.5,-5.40625 32.2031,-6.79688 31.5,-8.09375"/>
<path class="Note" transform="matrix(0.87874,0,0,0.87874,2438.33,452.954)" d="M31.5,-8.09375 C29.7031,-11.4063 25.9063,-13.2031 21.2969,-13.2031 C17.9063,-13.2031 14.2031,-12.2031 10.5938,-10.2969 C4,-6.79688 0,-0.90625 0,4.20313 C0,5.59375 0.296875,7 1,8.29688 C2.79688,11.5938 6.59375,13.2969 11.2031,13.2969 C14.5938,13.2969 18.2969,12.4063 21.9063,10.5 C28.5,7 32.5,1.09375 32.5,-4 C32.5,-5.40625 32.2031,-6.79688 31.5,-8.09375"/>
<path class="Note" transform="matrix(0.87874,0,0,0.87874,2509.77,441.97)" d="M31.5,-8.09375 C29.7031,-11.4063 25.9063,-13.2031 21.2969,-13.2031 C17.9063,-13.2031 14.2031,-12.2031 10.5938,-10.2969 C4,-6.79688 0,-0.90625 0,4.20313 C0,5.59375 0.296875,7 1,8.29688 C2.79688,11.5938 6.59375,13.2969 11.2031,13.2969 C14.5938,13.2969 18.2969,12.4063 21.9063,10.5 C28.5,7 32.5,1.09375 32.5,-4 C32.5,-5.40625 32.2031,-6.79688 31.5,-8.09375"/>
<path class="Clef" transform="matrix(0.87874,0,0,0.87874,340.016,420.002)" d="M25.4063,-25.0938 C17.7969,-25.0938 11.7031,-20.7031 11.5938,-20.7031 C5.79688,-16.4063 3.5,-11.2969 2.59375,-7.79688 C2.09375,-6 1.90625,-4.20313 1.90625,-2.5 C1.90625,-0.09375 2.29688,2.09375 3.20313,4 C4.40625,6.70313 6.70313,8.59375 9.70313,9.59375 C10.9063,10 12.2031,10.2031 13.5,10.2031 C15.7031,10.2031 18,9.59375 19.9063,8.5 C23,6.79688 24.9063,3.20313 24.9063,-0.703125 C24.9063,-4.20313 23.0938,-7.40625 20.0938,-9.29688 C18,-10.7031 16,-11.0938 14.2969,-11.0938 C13.0938,-11.0938 12,-10.9063 11.0938,-10.5938 C10.0938,-10.2031 8.40625,-9.20313 7.59375,-8.5 C7.90625,-10.4063 9.09375,-13.2969 10.2031,-14.9063 C11.2969,-16.5 13.5,-18.5 15.2031,-19.4063 C17.7031,-20.7969 20.9063,-21.4063 24.4063,-21.4063 C34.6094,-21.4063 39.6094,-13.2031 39.6094,3.59375 C39.6094,12.9063 36.1094,21.7969 33.1094,27.7031 C29.7969,34.2969 25.4063,40.6094 21.5,44.1094 C11.0938,53.6094 1.29688,58.1094 1.20313,58.1094 C1.20313,58.1094 -0.296875,59 0.09375,60.5 C0.40625,61.5 1.29688,61.7031 1.90625,61.7031 C2,61.7031 2.29688,61.6094 2.40625,61.6094 C2.5,61.6094 13.9063,56.9063 23,49.7969 C28.1094,46.1094 32.7031,42.1094 36.7031,37.7969 C40.2969,33.9063 43.4063,29.7031 45.9063,25.5 C50.2969,18 52.7969,10.2031 52.7969,3.5 C52.7969,-4.79688 50.6094,-11.7031 46.5,-16.5938 C41.7969,-22.2031 34.7031,-25.0938 25.4063,-25.0938 M56.7969,-12.4063 C56.7969,-9.59375 59,-7.40625 61.6094,-7.40625 C64.2031,-7.40625 66.4063,-9.59375 66.4063,-12.4063 C66.4063,-15.2031 64.2031,-17.5 61.6094,-17.5 C59,-17.5 56.7969,-15.2031 56.7969,-12.4063 M56.7969,12.2969 C56.7969,15.0938 59,17.4063 61.6094,17.4063 C64.2031,17.4063 66.4063,15.0938 66.4063,12.2969 C66.4063,9.5 64.2031,7.20313 61.6094,7.20313 C59,7.20313 56.7969,9.5 56.7969,12.2969"/>
<path class="KeySig" transform="matrix(0.87874,0,0,0.87874,464.268,474.923)" d="M20.0938,-7.90625 C19.5,-11.7969 17.0938,-15.5 12,-15.5 C7,-15.5 4.09375,-12.4063 3.59375,-11.7969 L4,-43.9063 C4,-44.7031 3.40625,-45.2969 2.59375,-45.2969 L1.40625,-45.2969 C0.59375,-45.2969 0,-44.7031 0,-43.9063 L0.5,16.2031 C0.5,17 1.09375,17.5938 1.90625,17.5938 C2.09375,17.5938 2.5,17.5 2.70313,17.4063 C3.09375,17.2031 9.59375,14 15,7.90625 C18.7969,3.59375 20.2969,-1.29688 20.2969,-5.40625 C20.2969,-6.29688 20.2031,-7.09375 20.0938,-7.90625 M13.2031,-4 C13.2031,-2.5 12.7969,2.09375 10.2969,5.90625 C8.59375,8.5 5.20313,11.2031 3.29688,12.7031 L3.59375,-6.79688 C3.79688,-7.70313 5.29688,-10.5938 9.29688,-10.5938 C12.9063,-10.5938 13.2031,-7.20313 13.2031,-5.09375 L13.2031,-4 "/>
<path class="KeySig" transform="matrix(0.87874,0,0,0.87874,442.3,430.986)" d="M20.0938,-7.90625 C19.5,-11.7969 17.0938,-15.5 12,-15.5 C7,-15.5 4.09375,-12.4063 3.59375,-11.7969 L4,-43.9063 C4,-44.7031 3.40625,-45.2969 2.59375,-45.2969 L1.40625,-45.2969 C0.59375,-45.2969 0,-44.7031 0,-43.9063 L0.5,16.2031 C0.5,17 1.09375,17.5938 1.90625,17.5938 C2.09375,17.5938 2.5,17.5 2.70313,17.4063 C3.09375,17.2031 9.59375,14 15,7.90625 C18.7969,3.59375 20.2969,-1.29688 20.2969,-5.40625 C20.2969,-6.29688 20.2031,-7.09375 20.0938,-7.90625 M13.2031,-4 C13.2031,-2.5 12.7969,2.09375 10.2969,5.90625 C8.59375,8.5 5.20313,11.2031 3.29688,12.7031 L3.59375,-6.79688 C3.79688,-7.70313 5.29688,-10.5938 9.29688,-10.5938 C12.9063,-10.5938 13.2031,-7.20313 13.2031,-5.09375 L13.2031,-4 "/>
<path class="KeySig" transform="matrix(0.87874,0,0,0.87874,420.331,463.939)" d="M20.0938,-7.90625 C19.5,-11.7969 17.0938,-15.5 12,-15.5 C7,-15.5 4.09375,-12.4063 3.59375,-11.7969 L4,-43.9063 C4,-44.7031 3.40625,-45.2969 2.59375,-45.2969 L1.40625,-45.2969 C0.59375,-45.2969 0,-44.7031 0,-43.9063 L0.5,16.2031 C0.5,17 1.09375,17.5938 1.90625,17.5938 C2.09375,17.5938 2.5,17.5 2.70313,17.4063 C3.09375,17.2031 9.59375,14 15,7.90625 C18.7969,3.59375 20.2969,-1.29688 20.2969,-5.40625 C20.2969,-6.29688 20.2031,-7.09375 20.0938,-7.90625 M13.2031,-4 C13.2031,-2.5 12.7969,2.09375 10.2969,5.90625 C8.59375,8.5 5.20313,11.2031 3.29688,12.7031 L3.59375,-6.79688 C3.79688,-7.70313 5.29688,-10.5938 9.29688,-10.5938 C12.9063,-10.5938 13.2031,-7.20313 13.2031,-5.09375 L13.2031,-4 "/>
<path class="TimeSig" transform="matrix(0.87874,0,0,0.87874,502.864,420.118)" d="M3.59375,12.625 L20.7656,12.625 L20.7656,20.0781 L12.5469,20.0781 C11.7656,20.0781 11.125,20.7031 11.125,21.4844 L11.125,23.3906 C11.125,24.1719 11.7656,24.7969 12.5469,24.7969 L42.7969,24.7969 C43.5781,24.7969 44.2031,24.1719 44.2031,23.3906 L44.2031,21.4844 C44.2031,20.7031 43.5781,20.0781 42.7969,20.0781 L33.8594,20.0781 L33.8594,12.625 L42.7969,12.625 C43.5781,12.625 44.2031,12 44.2031,11.2188 L44.2031,9.3125 C44.2031,8.53125 43.5781,7.90625 42.7969,7.90625 L33.8594,7.90625 L33.8594,-8.0625 C33.8594,-8.59375 33.5469,-9.07813 33.0781,-9.3125 L31.8594,-9.92188 C31.3281,-10.1719 30.7031,-10.0781 30.2656,-9.6875 L21.2188,-1.375 C20.9375,-1.09375 20.7656,-0.734375 20.7656,-0.328125 L20.7656,7.90625 L9.25,7.90625 C9.25,7.90625 20.375,-4.125 32.2188,-19.8906 C33.0781,-21.0469 32.5781,-22.0938 32.3906,-22.2813 L30.2188,-24.4844 C29.9531,-24.75 29.5938,-24.9063 29.2188,-24.9063 C28.625,-24.9063 15.0625,-24.875 14.3438,-24.9063 C13.625,-24.9219 13.0938,-24.2969 13.0156,-23.6875 C13.0156,-23.6875 12.4844,-16.3281 9.875,-8.1875 C7.28125,-0.078125 4.34375,4.90625 1.6875,8.53125 C1.6875,8.53125 1.14063,9.51563 1.5,10.2656 C1.84375,11.0156 2.48438,12.0938 2.48438,12.0938 C2.48438,12.0938 2.73438,12.625 3.59375,12.625"/>
<path class="TimeSig" transform="matrix(0.87874,0,0,0.87874,502.864,463.822)" d="M3.59375,12.625 L20.7656,12.625 L20.7656,20.0781 L12.5469,20.0781 C11.7656,20.0781 11.125,20.7031 11.125,21.4844 L11.125,23.3906 C11.125,24.1719 11.7656,24.7969 12.5469,24.7969 L42.7969,24.7969 C43.5781,24.7969 44.2031,24.1719 44.2031,23.3906 L44.2031,21.4844 C44.2031,20.7031 43.5781,20.0781 42.7969,20.0781 L33.8594,20.0781 L33.8594,12.625 L42.7969,12.625 C43.5781,12.625 44.2031,12 44.2031,11.2188 L44.2031,9.3125 C44.2031,8.53125 43.5781,7.90625 42.7969,7.90625 L33.8594,7.90625 L33.8594,-8.0625 C33.8594,-8.59375 33.5469,-9.07813 33.0781,-9.3125 L31.8594,-9.92188 C31.3281,-10.1719 30.7031,-10.0781 30.2656,-9.6875 L21.2188,-1.375 C20.9375,-1.09375 20.7656,-0.734375 20.7656,-0.328125 L20.7656,7.90625 L9.25,7.90625 C9.25,7.90625 20.375,-4.125 32.2188,-19.8906 C33.0781,-21.0469 32.5781,-22.0938 32.3906,-22.2813 L30.2188,-24.4844 C29.9531,-24.75 29.5938,-24.9063 29.2188,-24.9063 C28.625,-24.9063 15.0625,-24.875 14.3438,-24.9063 C13.625,-24.9219 13.0938,-24.2969 13.0156,-23.6875 C13.0156,-23.6875 12.4844,-16.3281 9.875,-8.1875 C7.28125,-0.078125 4.34375,4.90625 1.6875,8.53125 C1.6875,8.53125 1.14063,9.51563 1.5,10.2656 C1.84375,11.0156 2.48438,12.0938 2.48438,12.0938 C2.48438,12.0938 2.73438,12.625 3.59375,12.625"/>
<path class="Rest" transform="matrix(0.87874,0,0,0.87874,585.637,441.97)" d="M26.7344,-20.2656 C25.9844,-20.5469 25.3125,-20.2031 24.9844,-19.5938 C24.6563,-18.9844 21.4688,-13.0625 17.0469,-9.79688 C15.6563,-8.78125 14.0625,-8.14063 12.5,-7.8125 C13.625,-9.0625 14.2969,-10.7344 14.2969,-12.5469 C14.2969,-16.5 11.0938,-19.7031 7.15625,-19.7031 C3.20313,-19.7031 0,-16.5 0,-12.5469 C0,-9.54688 1.875,-6.95313 4.51563,-5.90625 C6.04688,-5.1875 7.95313,-4.73438 10,-4.73438 C12.8438,-4.73438 15.9531,-5.5625 18.6719,-7.5625 C19.9375,-8.48438 21.125,-9.6875 22.2031,-10.9375 L10.8125,24.6875 L13.4531,25.5469 L27.5313,-18.5469 C27.7656,-19.2813 27.4688,-19.9688 26.7344,-20.2656"/>
<path class="Rest" transform="matrix(0.87874,0,0,0.87874,1313.79,441.97)" d="M33.4688,-20.2656 C32.7188,-20.5313 32.0469,-20.1719 31.7344,-19.5469 C31.4375,-18.9375 28.6094,-13.5 24.2969,-10.0938 C22.9531,-9.03125 21.3906,-8.34375 19.8281,-7.95313 C20.9063,-9.26563 21.5313,-10.9375 21.4688,-12.75 C21.3281,-16.6875 18.0313,-19.7656 14.0938,-19.625 C10.1563,-19.4844 7.0625,-16.1875 7.20313,-12.25 C7.3125,-9.23438 9.26563,-6.73438 11.9375,-5.78125 C13.5,-5.09375 15.4063,-4.73438 17.4531,-4.79688 C20.2969,-4.90625 23.375,-5.84375 26.0156,-7.92188 C27.25,-8.89063 28.4063,-10.125 29.4375,-11.4219 L29.4375,-11.4063 L24.9375,4.5 C24.9375,4.5 24.9375,4.51563 24.9219,4.51563 L24.9219,4.53125 C24.4531,5.48438 21.2031,11.6563 17.1875,14.8281 C15.8438,15.9063 14.2813,16.5938 12.7188,16.9688 C13.7969,15.6719 14.4219,14 14.3594,12.1875 C14.2188,8.23438 10.9219,5.15625 6.98438,5.29688 C3.04688,5.4375 -0.046875,8.73438 0.09375,12.6875 C0.203125,15.6875 2.15625,18.1875 4.82813,19.1563 C6.39063,19.8281 8.29688,20.2031 10.3438,20.125 C13.1875,20.0313 16.2656,19.0938 18.9063,17.0156 C20.125,16.0469 21.2813,14.8281 22.3125,13.5156 L12.1094,49.9844 L14.7813,50.7344 L33.4531,-15.4688 L34.3281,-18.5938 C34.5313,-19.3281 34.2188,-20.0156 33.4688,-20.2656"/>
<path class="Rest" transform="matrix(0.87874,0,0,0.87874,1970.63,441.97)" d="M33.4688,-20.2656 C32.7188,-20.5313 32.0469,-20.1719 31.7344,-19.5469 C31.4375,-18.9375 28.6094,-13.5 24.2969,-10.0938 C22.9531,-9.03125 21.3906,-8.34375 19.8281,-7.95313 C20.9063,-9.26563 21.5313,-10.9375 21.4688,-12.75 C21.3281,-16.6875 18.0313,-19.7656 14.0938,-19.625 C10.1563,-19.4844 7.0625,-16.1875 7.20313,-12.25 C7.3125,-9.23438 9.26563,-6.73438 11.9375,-5.78125 C13.5,-5.09375 15.4063,-4.73438 17.4531,-4.79688 C20.2969,-4.90625 23.375,-5.84375 26.0156,-7.92188 C27.25,-8.89063 28.4063,-10.125 29.4375,-11.4219 L29.4375,-11.4063 L24.9375,4.5 C24.9375,4.5 24.9375,4.51563 24.9219,4.51563 L24.9219,4.53125 C24.4531,5.48438 21.2031,11.6563 17.1875,14.8281 C15.8438,15.9063 14.2813,16.5938 12.7188,16.9688 C13.7969,15.6719 14.4219,14 14.3594,12.1875 C14.2188,8.23438 10.9219,5.15625 6.98438,5.29688 C3.04688,5.4375 -0.046875,8.73438 0.09375,12.6875 C0.203125,15.6875 2.15625,18.1875 4.82813,19.1563 C6.39063,19.8281 8.29688,20.2031 10.3438,20.125 C13.1875,20.0313 16.2656,19.0938 18.9063,17.0156 C20.125,16.0469 21.2813,14.8281 22.3125,13.5156 L12.1094,49.9844 L14.7813,50.7344 L33.4531,-15.4688 L34.3281,-18.5938 C34.5313,-19.3281 34.2188,-20.0156 33.4688,-20.2656"/>
<path class="Rest" transform="matrix(0.87874,0,0,0.87874,2742.2,365.08)" d="M27.0156,-1.59375 L27.2188,-1.59375 C35.2188,-4.70313 35.7188,-9.90625 35.7188,-11.7031 L35.7188,-12.2031 C35.7188,-13.0938 35.4219,-24.4063 18.2188,-24.4063 C1.01563,-24.4063 1.51563,-12.2031 1.51563,-12.2031 L1.625,-12.2031 L1.51563,-12 C1.51563,-8.40625 4.42188,-5.59375 8.01563,-5.59375 C11.625,-5.59375 14.4219,-8.40625 14.4219,-12 C14.4219,-14.9063 12.2188,-17.7031 9.42188,-18.2969 L9.71875,-18.5938 C11.125,-19.5938 13.0156,-20.0938 14.9219,-20.0938 C19.125,-20.0938 23.625,-17.5938 23.625,-12.2031 C23.625,-5.90625 18.9219,-5 17.7188,-4.79688 C16.5156,-4.59375 10.9219,-4.20313 9.71875,-4.20313 C8.51563,-4.20313 8.42188,-2.79688 8.42188,-2.79688 L8.42188,-0.796875 C8.42188,-0.796875 8.625,0.296875 9.71875,0.40625 C11.4219,0.5 13.7188,0.5 16.9219,1 C21.3125,1.59375 23.625,4.59375 23.625,11.5938 C23.625,18.2969 19.125,20.0938 14.9219,20.0938 C12.125,20.0938 9.51563,19.2969 8.42188,18.5 C11.7188,18.2969 14.4219,15.4063 14.4219,12.0938 C14.4219,8.5 11.625,5.59375 8.01563,5.59375 C4.42188,5.59375 1.51563,8.5 1.51563,12.0938 C1.51563,12.0938 1.01563,16.5938 5.42188,20.7031 C9.3125,24.2969 14.2188,24.4063 16.4219,24.4063 C26.0156,24.4063 36.4219,21.0938 36.4219,10.2031 C36.4219,2.90625 31.4219,-0.203125 27.0156,-1.59375"/>
<polyline class="Rest" fill="none" stroke="#000000" stroke-width="15.38" stroke-linecap="square" stroke-linejoin="bevel" points="2657.27,441.97 2857.82,441.97"/>
<polyline class="Rest" fill="none" stroke="#000000" stroke-width="4.39" stroke-linecap="square" stroke-linejoin="bevel" points="2649.58,420.002 2649.58,463.939"/>
<polyline class="Rest" fill="none" stroke="#000000" stroke-width="4.39" stroke-linecap="square" stroke-linejoin="bevel" points="2865.51,420.002 2865.51,463.939"/>
<path class="Rest" transform="matrix(0.87874,0,0,0.87874,3060.35,365.08)" d="M32.375,-1.79688 C35.7188,-4.29688 38.0156,-7.48438 38.0156,-11.5 C38.0156,-18.7344 30.125,-24.5938 20.4063,-24.5938 C10.6719,-24.5938 2.78125,-18.7344 2.78125,-11.5 C2.78125,-7.48438 3.78125,-3.89063 8.51563,-0.9375 C3.95313,1.73438 1.5,5.40625 1.5,10.1719 C1.5,18.25 9.95313,24.7969 20.4063,24.7969 C30.8438,24.7969 39.2969,18.25 39.2969,10.1719 C39.2969,5.40625 37.5625,0.84375 32.375,-1.79688 M20.3906,19.1875 C14.0313,19.1875 8.5,15.7031 8.5,10.125 C8.5,3.42188 13.6719,1.8125 13.6719,1.8125 C20.4688,4.07813 30.2188,7.51563 30.2188,12.9688 C30.2188,15.7031 26.75,19.1875 20.3906,19.1875 M26.7813,-4.54688 C19.9688,-6.65625 12.4844,-9.95313 12.4844,-14.5 C12.4844,-18.4375 16.0938,-19.9844 20.3906,-19.9844 C26.5469,-19.9844 30.7969,-17.0938 30.7969,-12.5 C30.7969,-7.70313 28.5781,-5.42188 26.7813,-4.54688"/>
<polyline class="Rest" fill="none" stroke="#000000" stroke-width="15.38" stroke-linecap="square" stroke-linejoin="bevel" points="2967.92,441.97 3186.02,441.97"/>
<polyline class="Rest" fill="none" stroke="#000000" stroke-width="4.39" stroke-linecap="square" stroke-linejoin="bevel" points="2960.23,420.002 2960.23,463.939"/>
<polyline class="Rest" fill="none" stroke="#000000" stroke-width="4.39" stroke-linecap="square" stroke-linejoin="bevel" points="3193.7,420.002 3193.7,463.939"/>
<path class="Rest" transform="matrix(0.87874,0,0,0.87874,3387.97,365.08)" d="M36.5469,-23.6875 C36.5469,-24.8438 35.5781,-25.0625 35.5781,-25.0625 L33.6094,-25.0625 C32.4844,-25.0625 32.4375,-23.6875 32.4375,-23.6875 C32.4375,-23.6875 32.4844,-15.8125 28.2656,-15.8125 C24.0469,-15.8125 22.8438,-24.4063 16.3281,-24.4063 C10.1094,-24.4063 6.35938,-18.0469 6.04688,-17.4531 L6.04688,-22.25 C6.04688,-22.875 5.53125,-23.375 4.90625,-23.375 L2.625,-23.375 C2.01563,-23.375 1.51563,-22.875 1.5,-22.25 L1.5,-3.79688 C1.5,-3.1875 2.01563,-2.6875 2.625,-2.67188 L4.90625,-2.67188 C5.53125,-2.67188 6.03125,-3.1875 6.04688,-3.79688 L6.04688,-6.96875 C6.04688,-9.29688 7.57813,-12.4063 11.0625,-12.4063 C14.5469,-12.4063 15.0469,-8.51563 22.8125,-8.51563 C22.8125,-8.51563 28.4531,-8.70313 29.5781,-9.82813 C29.5781,-9.82813 19.7969,7.23438 16.2656,12.2969 C11.2969,19.4375 11.125,23.125 11.125,23.125 C11.0625,23.625 10.9844,25 12.5469,25.0313 C14.125,25.0625 15.125,24.625 18.3281,24.4063 C21.5313,24.2031 24.875,25.0313 25.6875,25.0313 C26.5156,25.0313 26.8594,24.7031 27.1406,24.4688 C27.3125,24.3281 27.4688,24.1563 27.625,24 C27.9063,23.7188 28.2969,23.3594 28.1563,22.7188 C28.0781,22.375 26.6563,15.0469 28.2969,9.03125 C29.5781,4.35938 32.6875,-4.17188 34.9375,-10.4844 C37.125,-16.5625 36.5469,-23.6875 36.5469,-23.6875"/>
<polyline class="Rest" fill="none" stroke="#000000" stroke-width="15.38" stroke-linecap="square" stroke-linejoin="bevel" points="3296.11,441.97 3510.7,441.97"/>
<polyline class="Rest" fill="none" stroke="#000000" stroke-width="4.39" stroke-linecap="square" stroke-linejoin="bevel" points="3288.43,420.002 3288.43,463.939"/>
<polyline class="Rest" fill="none" stroke="#000000" stroke-width="4.39" stroke-linecap="square" stroke-linejoin="bevel" points="3518.39,420.002 3518.39,463.939"/>
<path class="Rest" transform="matrix(0.87874,0,0,0.87874,3629.66,420.002)" d="M31.1094,-0.5 L1.40625,-0.5 C0.59375,-0.5 0,0.09375 0,0.90625 L0,11.7031 C0,12.5 0.59375,13.0938 1.40625,13.0938 L31.1094,13.0938 C31.9063,13.0938 32.5,12.5 32.5,11.7031 L32.5,0.90625 C32.5,0.09375 31.9063,-0.5 31.1094,-0.5"/>
<path class="Rest" transform="matrix(0.87874,0,0,0.87874,3862.11,420.002)" d="M31.1094,-0.5 L1.40625,-0.5 C0.59375,-0.5 0,0.09375 0,0.90625 L0,11.7031 C0,12.5 0.59375,13.0938 1.40625,13.0938 L31.1094,13.0938 C31.9063,13.0938 32.5,12.5 32.5,11.7031 L32.5,0.90625 C32.5,0.09375 31.9063,-0.5 31.1094,-0.5"/>
<path class="Beam" fill-rule="evenodd" d="M680.23,415.069 L725.432,391.859 L725.432,404.207 L680.23,427.416 L680.23,415.069 "/>
<path class="Beam" fill-rule="evenodd" d="M680.23,431.545 L725.432,408.336 L725.432,420.683 L680.23,443.893 L680.23,431.545 "/>
<path class="Beam" fill-rule="evenodd" d="M765.802,370.572 L887.617,370.572 L887.617,381.557 L765.802,381.557 L765.802,370.572 "/>
<path class="Beam" fill-rule="evenodd" d="M765.802,387.049 L829.325,387.049 L829.325,398.033 L765.802,398.033 L765.802,387.049 "/>
<path class="Beam" fill-rule="evenodd" d="M953.658,376.127 L1161.45,370.57 L1161.45,381.559 L953.658,387.115 L953.658,376.127 "/>
<path class="Beam" fill-rule="evenodd" d="M1381.77,415.071 L1426.02,391.834 L1426.02,404.233 L1381.77,427.47 L1381.77,415.071 "/>
<path class="Beam" fill-rule="evenodd" d="M1381.77,431.547 L1426.02,408.31 L1426.02,420.709 L1381.77,443.946 L1381.77,431.547 "/>
<path class="Beam" fill-rule="evenodd" d="M1465.44,370.572 L1587.26,370.572 L1587.26,381.557 L1465.44,381.557 L1465.44,370.572 "/>
<path class="Beam" fill-rule="evenodd" d="M1465.44,387.049 L1528.97,387.049 L1528.97,398.033 L1465.44,398.033 L1465.44,387.049 "/>
<path class="Beam" fill-rule="evenodd" d="M1651.78,376.129 L1855.02,370.57 L1855.02,381.559 L1651.78,387.117 L1651.78,376.129 "/>
<path class="Beam" fill-rule="evenodd" d="M2041.41,415.07 L2088.49,391.912 L2088.49,404.154 L2041.41,427.311 L2041.41,415.07 "/>
<path class="Beam" fill-rule="evenodd" d="M2041.41,431.546 L2088.49,408.389 L2088.49,420.63 L2041.41,443.788 L2041.41,431.546 "/>
<path class="Beam" fill-rule="evenodd" d="M2130.72,370.572 L2252.54,370.572 L2252.54,381.557 L2130.72,381.557 L2130.72,370.572 "/>
<path class="Beam" fill-rule="evenodd" d="M2130.72,387.049 L2194.25,387.049 L2194.25,398.033 L2130.72,398.033 L2130.72,387.049 "/>
<path class="Beam" fill-rule="evenodd" d="M2321.57,376.125 L2538.32,370.571 L2538.32,381.558 L2321.57,387.113 L2321.57,376.125 "/>
<path class="Hook" transform="matrix(0.87874,0,0,0.87874,1271.95,518.86)" d="M-0.046875,0.765625 C-0.046875,1.45313 0.265625,2.01563 1.42188,2.01563 C2.57813,2.01563 2.79688,1.5 2.90625,0.765625 C2.90625,0.765625 4.46875,-9.85938 8.28125,-15.4063 C12.1094,-20.9531 18.3125,-24.0938 23.1406,-30.2656 C26.6563,-34.7344 27.9063,-40.0938 28,-45.3125 C28.0938,-50.2813 27.125,-55.0938 26.0469,-58.9219 C26.3906,-61.0313 26.5781,-63.4688 26.5781,-66.3125 C26.5781,-71.9844 24,-77.3906 22.1563,-80.25 C21.6875,-81 21.1719,-82.0625 20.125,-81.5156 C19.0781,-80.9688 19.5469,-79.75 19.875,-78.8125 C21.3438,-74.7813 22.0156,-69.7188 22.0938,-67.2188 C22.2344,-63.2344 21.9219,-59.3438 17.9219,-53.3594 C11.9375,-44.4219 4.01563,-39.4531 1.42188,-38.5 C0.75,-38.2656 -0.046875,-37.7813 -0.046875,-37.5469 L-0.046875,0.765625 M23.4531,-50.7031 C23.7969,-45.8906 23.8594,-41.0781 18.2188,-34.2188 C14.4219,-29.625 8.3125,-25.0781 3.82813,-24.7188 L3.71875,-24.2969 C3.78125,-24.6406 3.84375,-24.9375 3.90625,-25.1719 C4.5625,-27.7188 6.40625,-31.2031 10.3125,-35.1406 C15.2344,-40.0781 18.2031,-43.2344 20.9063,-46.75 C21.7031,-47.7813 22.8438,-49.5469 23.4531,-50.7031"/>
<path class="Hook" transform="matrix(0.87874,0,0,0.87874,1925.97,507.876)" d="M-0.046875,0.765625 C-0.046875,1.45313 0.265625,2.01563 1.42188,2.01563 C2.57813,2.01563 2.79688,1.5 2.90625,0.765625 C2.90625,0.765625 4.46875,-9.85938 8.28125,-15.4063 C12.1094,-20.9531 18.3125,-24.0938 23.1406,-30.2656 C26.6563,-34.7344 27.9063,-40.0938 28,-45.3125 C28.0938,-50.2813 27.125,-55.0938 26.0469,-58.9219 C26.3906,-61.0313 26.5781,-63.4688 26.5781,-66.3125 C26.5781,-71.9844 24,-77.3906 22.1563,-80.25 C21.6875,-81 21.1719,-82.0625 20.125,-81.5156 C19.0781,-80.9688 19.5469,-79.75 19.875,-78.8125 C21.3438,-74.7813 22.0156,-69.7188 22.0938,-67.2188 C22.2344,-63.2344 21.9219,-59.3438 17.9219,-53.3594 C11.9375,-44.4219 4.01563,-39.4531 1.42188,-38.5 C0.75,-38.2656 -0.046875,-37.7813 -0.046875,-37.5469 L-0.046875,0.765625 M23.4531,-50.7031 C23.7969,-45.8906 23.8594,-41.0781 18.2188,-34.2188 C14.4219,-29.625 8.3125,-25.0781 3.82813,-24.7188 L3.71875,-24.2969 C3.78125,-24.6406 3.84375,-24.9375 3.90625,-25.1719 C4.5625,-27.7188 6.40625,-31.2031 10.3125,-35.1406 C15.2344,-40.0781 18.2031,-43.2344 20.9063,-46.75 C21.7031,-47.7813 22.8438,-49.5469 23.4531,-50.7031"/>
<path class="Tempo" d="M526.13,303.002 L523.224,303.002 L523.224,342.737 C522.224,342.143 521.005,341.752 519.599,341.612 C519.224,341.565 518.817,341.549 518.427,341.549 C516.02,341.549 513.427,342.237 511.005,343.549 C508.192,345.065 505.942,347.237 504.677,349.674 C503.395,352.096 503.27,354.502 504.302,356.424 C505.52,358.69 508.177,359.862 511.317,359.862 C513.661,359.862 516.255,359.205 518.739,357.877 C523.286,355.424 526.114,351.362 526.13,347.83 L526.13,303.002 "/>
<path class="Tempo" d="M545.786,349.221 L572.489,349.221 L572.489,343.127 L545.786,343.127 L545.786,349.221 M545.786,338.299 L572.489,338.299 L572.489,332.205 L545.786,332.205 L545.786,338.299 M610.052,316.58 L608.208,316.58 C604.864,319.065 601.099,320.127 594.802,320.237 L594.802,323.205 L597.02,323.205 C601.739,323.205 601.786,323.299 601.739,327.659 L601.739,346.471 C601.739,349.752 601.739,349.909 601.364,350.44 C600.895,351.018 599.833,351.237 596.974,351.237 L595.27,351.237 L595.27,354.096 L616.411,354.096 L616.411,351.237 L614.724,351.237 C611.911,351.237 610.911,351.018 610.427,350.44 C610.052,349.909 610.052,349.69 610.052,346.471 L610.052,316.58 M640.474,316.58 L638.63,316.58 C635.286,319.065 631.52,320.127 625.224,320.237 L625.224,323.205 L627.442,323.205 C632.161,323.205 632.208,323.299 632.161,327.659 L632.161,346.471 C632.161,349.752 632.161,349.909 631.786,350.44 C631.317,351.018 630.255,351.237 627.395,351.237 L625.692,351.237 L625.692,354.096 L646.833,354.096 L646.833,351.237 L645.145,351.237 C642.333,351.237 641.333,351.018 640.849,350.44 C640.474,349.909 640.474,349.69 640.474,346.471 L640.474,316.58 M666.442,316.58 C658.505,316.58 652.677,324.69 652.677,335.705 C652.677,346.737 658.505,354.83 666.442,354.83 C674.239,354.83 680.177,346.737 680.177,335.971 C680.177,329.721 678.739,325.112 675.614,321.19 C673.13,318.159 670.005,316.58 666.442,316.58 M666.395,319.33 C667.989,319.33 669.255,320.284 669.833,321.987 C670.536,323.737 670.958,329.299 670.958,335.862 C670.958,341.33 670.536,347.049 670.052,348.846 C669.474,350.971 668.192,352.08 666.395,352.08 C664.755,352.08 663.536,351.174 662.895,349.44 C662.208,347.69 661.786,342.065 661.786,335.705 C661.786,330.143 662.208,324.362 662.692,322.565 C663.27,320.44 664.536,319.33 666.395,319.33"/>
<path class="RehearsalMark" fill="none" stroke="#000000" stroke-width="3.51" stroke-linecap="square" stroke-linejoin="miter" stroke-miterlimit="2" fill-rule="evenodd" d="M446.25,216.113 L634.734,216.113 L634.734,287.597 L446.25,287.597 L446.25,216.113 "/>
<path class="RehearsalMark" d="M459.726,273.855 L483.851,273.855 L483.851,270.511 L482.914,270.511 C479.57,270.511 478.32,270.261 477.773,269.574 C477.336,268.964 477.336,268.777 477.336,264.933 L477.336,238.027 C477.336,234.183 477.336,233.996 477.773,233.371 C478.32,232.683 479.57,232.449 482.914,232.449 L483.851,232.449 L483.851,229.089 L459.726,229.089 L459.726,232.449 L460.664,232.449 C463.945,232.449 465.18,232.683 465.742,233.371 C466.18,233.996 466.18,234.183 466.18,238.027 L466.18,264.933 C466.18,268.777 466.18,268.964 465.742,269.574 C465.18,270.261 463.945,270.511 460.664,270.511 L459.726,270.511 L459.726,273.855 M500.945,244.527 L486.742,244.964 L486.742,248.121 L487.68,248.121 C491.523,248.183 491.711,248.433 491.648,254.136 L491.648,264.933 L491.648,267.777 L491.648,268.277 C491.586,269.136 491.523,269.511 491.273,269.886 C490.836,270.449 489.664,270.699 486.992,270.699 L486.742,270.699 L486.742,273.855 L505.664,273.855 L505.664,270.699 C502.117,270.699 501.32,270.199 501.383,268.027 L501.383,264.933 L501.383,258.918 C501.383,256.121 501.633,254.511 502.367,253.027 C503.367,250.793 505.539,249.371 507.758,249.371 C510.68,249.371 512.289,251.48 512.289,255.449 L512.289,264.933 L512.289,266.668 L512.289,268.277 C512.226,269.136 512.164,269.511 511.914,269.886 C511.305,270.511 510.117,270.761 508.008,270.699 L508.008,273.855 L526.914,273.855 L526.914,270.699 L526.68,270.699 C522.523,270.636 522.023,270.324 522.023,268.027 L522.023,264.933 L522.023,254.574 C522.023,250.73 521.336,248.371 519.664,246.574 C517.992,244.652 515.273,243.605 511.976,243.605 C507.086,243.605 503.976,245.402 500.945,249.98 L500.945,244.527 M551.601,244.527 L543.539,244.527 L543.539,232.261 L539.633,232.261 C538.633,240.183 535.289,244.339 529.398,245.027 L529.398,248.246 L533.805,248.246 L533.805,263.074 C533.805,268.152 534.055,269.636 535.101,271.371 C536.414,273.543 539.07,274.793 542.601,274.793 C546.148,274.793 548.93,273.605 550.601,271.433 C552.148,269.386 553.086,266.48 553.086,263.746 C553.086,263.433 553.086,262.949 553.023,262.324 L549.742,262.324 C549.805,266.98 548.367,269.511 545.836,269.511 C544.039,269.511 543.539,268.402 543.539,264.183 L543.539,248.246 L551.601,248.246 L551.601,244.527 M569.32,244.527 L555.492,244.964 L555.492,248.121 L556.43,248.121 C560.273,248.183 560.461,248.433 560.398,254.136 L560.398,264.933 L560.398,268.277 C560.336,269.136 560.273,269.511 560.023,269.886 C559.586,270.449 558.414,270.699 555.742,270.699 L555.492,270.699 L555.492,273.855 L576.211,273.855 L576.211,270.699 L574.836,270.699 C570.695,270.636 570.195,270.324 570.195,268.027 L570.195,264.933 L570.195,263.683 C570.445,254.511 573.039,248.871 577.508,247.699 C576.695,248.808 576.461,249.496 576.461,250.605 C576.461,253.277 578.43,255.199 581.101,255.199 C584.148,255.199 586.43,252.902 586.43,249.855 C586.43,246.261 583.586,243.605 579.617,243.605 C574.836,243.605 571.492,246.324 569.32,252.027 L569.32,244.527 M605.648,243.605 C595.789,243.605 588.476,250.293 588.476,259.293 C588.476,268.277 595.601,274.793 605.398,274.793 C615.195,274.793 622.445,268.214 622.445,259.355 C622.445,250.543 615.07,243.605 605.648,243.605 M605.523,246.824 C607.695,246.824 609.68,248.308 610.492,250.48 C611.226,252.527 611.726,255.996 611.726,259.293 C611.726,267.152 609.492,271.558 605.461,271.558 C601.305,271.558 599.195,267.402 599.195,259.23 C599.195,250.98 601.305,246.824 605.523,246.824"/>
<path class="RehearsalMark" fill="none" stroke="#000000" stroke-width="3.51" stroke-linecap="square" stroke-linejoin="miter" stroke-miterlimit="2" fill-rule="evenodd" d="M2853.63,274.386 L2930.11,274.386 L2930.11,345.869 L2853.63,345.869 L2853.63,274.386 "/>
<path class="RehearsalMark" d="M2890.14,286.44 L2876.06,319.299 C2873.2,325.987 2870.92,328.409 2867.26,328.784 L2867.26,332.128 L2885.17,332.128 L2885.17,328.784 C2880.78,328.534 2879.03,327.346 2879.03,324.503 C2879.03,323.456 2879.28,322.456 2879.97,320.971 L2880.95,318.612 L2896.39,318.612 L2898.75,324.69 C2899.44,326.424 2899.5,326.737 2899.5,327.237 C2899.5,328.346 2898.62,328.721 2895.9,328.721 L2894.84,328.784 L2894.84,332.128 L2916.61,332.128 L2916.61,328.784 C2913.08,328.659 2912.08,328.034 2910.78,324.878 L2894.84,286.44 L2890.14,286.44 M2888.83,299.643 L2894.84,314.456 L2882.58,314.456 L2888.83,299.643 "/>
<path class="RehearsalMark" fill="none" stroke="#000000" stroke-width="3.51" stroke-linecap="square" stroke-linejoin="miter" stroke-miterlimit="2" fill-rule="evenodd" d="M3184.83,274.386 L3255.31,274.386 L3255.31,344.869 L3184.83,344.869 L3184.83,274.386 "/>
<path class="RehearsalMark" d="M3197.61,287.362 L3197.61,290.721 L3198.55,290.721 C3201.9,290.721 3203.08,290.956 3203.63,291.581 C3204.07,292.268 3204.07,292.456 3204.07,296.299 L3204.07,323.206 C3204.07,327.049 3204.07,327.237 3203.63,327.846 C3203.08,328.534 3201.83,328.784 3198.55,328.784 L3197.61,328.784 L3197.61,332.128 L3222.72,332.128 C3229.18,332.128 3232.46,331.628 3235.69,330.206 C3239.6,328.471 3242.19,324.565 3242.19,320.346 C3242.19,316.003 3239.72,312.596 3235.13,310.487 C3233.02,309.503 3231.22,309.003 3227.94,308.565 C3230.97,308.081 3232.71,307.643 3234.44,306.831 C3238.16,305.034 3240.15,302.065 3240.15,298.346 C3240.15,294.799 3238.29,291.518 3235.25,289.846 C3231.85,287.924 3228.86,287.362 3221.55,287.362 L3197.61,287.362 M3215.22,307.456 L3215.22,294.315 C3215.1,291.706 3215.97,290.831 3218.69,290.721 L3220.57,290.721 C3226.02,290.721 3228.93,293.44 3228.93,298.581 C3228.93,301.628 3227.88,304.049 3225.9,305.596 C3224.22,306.956 3222.11,307.456 3218.27,307.456 L3215.22,307.456 M3215.22,310.862 L3219.5,310.862 C3223.41,310.862 3225.21,311.237 3226.94,312.346 C3229.11,313.784 3230.35,316.503 3230.35,319.721 C3230.35,322.706 3229.24,325.424 3227.44,326.924 C3225.9,328.159 3223.85,328.784 3220.86,328.784 L3219,328.784 C3215.47,328.659 3215.1,328.284 3215.22,324.815 L3215.22,310.862 "/>
<path class="VoltaSegment" d="M3576.7,339.664 L3575.01,339.664 C3572,341.914 3568.59,342.882 3562.87,342.976 L3562.87,345.664 L3564.89,345.664 C3569.15,345.664 3569.22,345.757 3569.15,349.695 L3569.15,366.742 C3569.15,369.711 3569.15,369.851 3568.83,370.336 C3568.39,370.867 3567.44,371.054 3564.84,371.054 L3563.31,371.054 L3563.31,373.648 L3582.45,373.648 L3582.45,371.054 L3580.92,371.054 C3578.37,371.054 3577.47,370.867 3577.03,370.336 C3576.7,369.851 3576.7,369.664 3576.7,366.742 L3576.7,339.664 M3593.11,365.336 C3590.61,365.336 3588.59,367.367 3588.59,369.851 C3588.59,372.304 3590.61,374.367 3593.06,374.367 C3595.61,374.367 3597.62,372.351 3597.62,369.851 C3597.62,367.367 3595.61,365.336 3593.11,365.336"/>
<polyline class="VoltaSegment" fill="none" stroke="#000000" stroke-width="2.42" stroke-linecap="square" stroke-linejoin="bevel" points="3548.71,373.648 3548.71,325.317"/>
<polyline class="VoltaSegment" fill="none" stroke="#000000" stroke-width="2.42" stroke-linecap="square" stroke-linejoin="bevel" points="3548.71,325.317 3765.65,325.317"/>
<polyline class="VoltaSegment" fill="none" stroke="#000000" stroke-width="2.42" stroke-linecap="square" stroke-linejoin="bevel" points="3765.65,325.317 3765.65,373.648"/>
<path class="VoltaSegment" d="M3817.23,360.882 L3816.71,363.273 C3816.28,365.195 3816,365.82 3815.61,366.07 C3815.12,366.398 3815.03,366.398 3812.01,366.445 L3802.75,366.445 C3804.42,365.007 3805.67,364.101 3807.54,362.851 C3814.31,358.476 3815.7,357.429 3817.09,355.648 C3818.73,353.492 3819.68,350.945 3819.68,348.679 C3819.68,343.554 3814.65,339.664 3807.87,339.664 C3801.36,339.664 3796.31,343.882 3796.31,349.351 C3796.31,352.711 3798.18,354.882 3801.06,354.882 C3803.56,354.882 3805.14,353.289 3805.14,350.804 C3805.14,348.726 3804.23,347.539 3802.03,346.476 C3801.5,346.242 3801.25,345.945 3801.25,345.57 C3801.25,344.023 3803.84,342.398 3806.25,342.398 C3809.61,342.398 3811.53,344.461 3811.53,348.007 C3811.53,351.992 3810,354.836 3804.9,360.257 C3799.53,365.961 3797.65,368.132 3795.25,371.586 L3795.25,373.836 C3796.5,373.695 3797.03,373.648 3797.75,373.648 L3815.79,373.648 C3816.71,373.648 3817.29,373.695 3818.73,373.836 L3819.82,360.882 L3817.23,360.882 M3828.56,365.336 C3826.06,365.336 3824.04,367.367 3824.04,369.851 C3824.04,372.304 3826.06,374.367 3828.51,374.367 C3831.06,374.367 3833.07,372.351 3833.07,369.851 C3833.07,367.367 3831.06,365.336 3828.56,365.336"/>
<polyline class="VoltaSegment" fill="none" stroke="#000000" stroke-width="2.42" stroke-linecap="square" stroke-linejoin="bevel" points="3781.16,373.648 3781.16,325.317"/>
<polyline class="VoltaSegment" fill="none" stroke="#000000" stroke-width="2.42" stroke-linecap="square" stroke-linejoin="bevel" points="3781.16,325.317 3973.59,325.317"/>
<polyline class="VoltaSegment" fill="none" stroke="#000000" stroke-width="2.42" stroke-linecap="square" stroke-linejoin="bevel" points="3973.59,325.317 3973.59,373.648"/>
</svg>
