<?xml version="1.0" encoding="UTF-8" standalone="no"?>
<svg width="4208.47px" height="2409.45px" viewBox="0 0 4208.47 2409.45"
 xmlns="http://www.w3.org/2000/svg" xmlns:xlink="http://www.w3.org/1999/xlink" version="1.2" baseProfile="tiny">
<title>SAX TENOR</title>
<desc>Generated by MuseScore 3.6.2</desc>
<polyline class="StaffLines" fill="none" stroke="#000000" stroke-width="4.60" stroke-linejoin="bevel" points="70.866,363.543 4137.61,363.543"/>
<polyline class="StaffLines" fill="none" stroke="#000000" stroke-width="4.60" stroke-linejoin="bevel" points="70.866,405.354 4137.61,405.354"/>
<polyline class="StaffLines" fill="none" stroke="#000000" stroke-width="4.60" stroke-linejoin="bevel" points="70.866,447.165 4137.61,447.165"/>
<polyline class="StaffLines" fill="none" stroke="#000000" stroke-width="4.60" stroke-linejoin="bevel" points="70.866,488.976 4137.61,488.976"/>
<polyline class="StaffLines" fill="none" stroke="#000000" stroke-width="4.60" stroke-linejoin="bevel" points="70.866,530.787 4137.61,530.787"/>
<polyline class="StaffLines" fill="none" stroke="#000000" stroke-width="4.60" stroke-linejoin="bevel" points="70.866,947.952 4137.61,947.952"/>
<polyline class="StaffLines" fill="none" stroke="#000000" stroke-width="4.60" stroke-linejoin="bevel" points="70.866,989.763 4137.61,989.763"/>
<polyline class="StaffLines" fill="none" stroke="#000000" stroke-width="4.60" stroke-linejoin="bevel" points="70.866,1031.57 4137.61,1031.57"/>
<polyline class="StaffLines" fill="none" stroke="#000000" stroke-width="4.60" stroke-linejoin="bevel" points="70.866,1073.39 4137.61,1073.39"/>
<polyline class="StaffLines" fill="none" stroke="#000000" stroke-width="4.60" stroke-linejoin="bevel" points="70.866,1115.2 4137.61,1115.2"/>
<polyline class="StaffLines" fill="none" stroke="#000000" stroke-width="4.60" stroke-linejoin="bevel" points="70.866,1532.36 4137.61,1532.36"/>
<polyline class="StaffLines" fill="none" stroke="#000000" stroke-width="4.60" stroke-linejoin="bevel" points="70.866,1574.17 4137.61,1574.17"/>
<polyline class="StaffLines" fill="none" stroke="#000000" stroke-width="4.60" stroke-linejoin="bevel" points="70.866,1615.98 4137.61,1615.98"/>
<polyline class="StaffLines" fill="none" stroke="#000000" stroke-width="4.60" stroke-linejoin="bevel" points="70.866,1657.79 4137.61,1657.79"/>
<polyline class="StaffLines" fill="none" stroke="#000000" stroke-width="4.60" stroke-linejoin="bevel" points="70.866,1699.61 4137.61,1699.61"/>
<polyline class="StaffLines" fill="none" stroke="#000000" stroke-width="4.60" stroke-linejoin="bevel" points="70.866,2116.77 4137.61,2116.77"/>
<polyline class="StaffLines" fill="none" stroke="#000000" stroke-width="4.60" stroke-linejoin="bevel" points="70.866,2158.58 4137.61,2158.58"/>
<polyline class="StaffLines" fill="none" stroke="#000000" stroke-width="4.60" stroke-linejoin="bevel" points="70.866,2200.39 4137.61,2200.39"/>
<polyline class="StaffLines" fill="none" stroke="#000000" stroke-width="4.60" stroke-linejoin="bevel" points="70.866,2242.2 4137.61,2242.2"/>
<polyline class="StaffLines" fill="none" stroke="#000000" stroke-width="4.60" stroke-linejoin="bevel" points="70.866,2284.01 4137.61,2284.01"/>
<path class="MeasureNumber" d="M86.3204,850.65 C85.6404,853.81 84.9204,855.73 83.7604,857.97 C81.8004,861.61 79.7204,863.25 76.9204,863.25 C75.7604,863.25 75.0004,862.77 75.0004,862.05 C75.0004,861.77 75.0804,861.65 75.4004,861.17 C75.8004,860.65 76.0004,860.17 76.0004,859.61 C76.0004,858.29 74.9604,857.29 73.6004,857.29 C72.0004,857.29 70.8804,858.49 70.8804,860.25 C70.8804,862.97 73.4404,864.93 77.0004,864.93 C80.2004,864.93 83.1604,863.53 85.6004,860.73 C89.0804,856.85 91.3604,851.05 91.3604,846.13 C91.3604,839.89 88.3604,836.17 83.4004,836.17 C80.4404,836.17 77.6804,837.49 75.8404,839.77 C74.0404,841.97 73.0004,844.77 73.0004,847.37 C73.0004,851.17 75.9204,854.05 79.8004,854.05 C82.4404,854.05 84.4804,852.97 86.3204,850.65 M83.3604,837.85 C85.9204,837.85 87.5604,839.89 87.5604,843.09 C87.5604,848.05 84.8404,851.69 81.1604,851.69 C78.6404,851.69 77.2404,849.97 77.2404,846.97 C77.2404,844.61 77.8004,842.49 78.8804,840.69 C80.0804,838.77 81.5204,837.85 83.3604,837.85"/>
<path class="MeasureNumber" d="M87.226,1420.42 L86.066,1420.42 C83.866,1422.06 79.626,1423.46 76.746,1423.46 L76.266,1425.22 L79.026,1425.22 C81.466,1425.22 81.746,1425.3 81.746,1426.02 C81.746,1426.38 81.746,1426.38 81.346,1427.82 L77.066,1443.82 C76.546,1445.82 76.506,1445.94 76.146,1446.3 C75.746,1446.7 74.906,1446.82 72.786,1446.86 L71.066,1446.86 L70.866,1448.74 L85.666,1448.74 L85.906,1446.86 L83.746,1446.86 C81.146,1446.86 80.586,1446.66 80.586,1445.78 C80.586,1445.5 80.746,1444.58 80.946,1443.82 L87.226,1420.42 M113.54,1420.58 C111.42,1420.82 108.82,1420.98 106.58,1420.98 C105.46,1420.98 104.18,1420.94 102.74,1420.86 C101.42,1420.78 100.1,1420.7 98.7404,1420.62 L97.7404,1420.58 L93.8604,1429.02 L95.3404,1429.5 L96.3004,1427.9 C98.1804,1424.78 99.0604,1424.34 103.14,1424.38 L109.9,1424.38 L105.54,1430.62 C100.42,1437.82 100.42,1437.82 98.4604,1441.02 C96.7004,1443.86 95.9804,1445.62 95.9804,1447.06 C95.9804,1448.46 96.8604,1449.34 98.2604,1449.34 C99.7404,1449.34 100.5,1448.62 101.02,1446.74 C103.02,1439.22 104.22,1436.62 109.78,1427.62 L113.54,1421.78 L113.54,1420.58 "/>
<path class="MeasureNumber" d="M89.6566,2024.87 L88.6166,2026.71 C87.0166,2029.47 86.6966,2029.71 84.6566,2029.75 L75.3766,2029.75 C76.3366,2028.47 78.0966,2026.99 81.2966,2024.75 C86.5766,2021.11 86.9366,2020.87 88.0566,2019.99 C91.2566,2017.51 92.5766,2015.15 92.5766,2011.99 C92.5766,2007.79 89.4566,2004.99 84.8566,2004.99 C79.7366,2004.99 75.2966,2008.75 75.2966,2013.11 C75.2966,2015.35 76.4966,2016.79 78.4166,2016.79 C79.8566,2016.79 80.9766,2015.71 80.9766,2014.23 C80.9766,2013.19 80.4566,2012.51 79.1366,2011.79 C78.1766,2011.31 78.0166,2011.11 78.0166,2010.63 C78.0166,2008.91 80.9766,2006.99 83.6966,2006.99 C86.4966,2006.99 88.3766,2008.87 88.3766,2011.67 C88.3766,2014.67 87.0566,2016.87 83.4566,2019.99 C72.8166,2029.23 71.2166,2030.91 70.8566,2033.15 L88.0166,2033.15 L91.0966,2025.43 L89.6566,2024.87 M114.971,2004.83 L112.811,2004.83 L94.171,2024.11 L94.171,2025.79 L105.451,2025.79 L104.811,2028.23 C104.291,2030.23 104.251,2030.35 103.891,2030.71 C103.491,2031.11 102.651,2031.27 100.531,2031.27 L99.811,2031.27 L99.571,2033.15 L112.011,2033.15 L112.211,2031.27 L111.491,2031.27 C108.851,2031.27 108.291,2031.07 108.291,2030.19 C108.291,2029.87 108.371,2029.47 108.691,2028.23 L109.371,2025.79 L113.931,2025.79 L114.531,2023.63 L109.931,2023.63 L114.971,2004.83 M106.051,2023.63 L97.091,2023.63 L109.451,2010.91 L106.051,2023.63 "/>
<path class="TieSegment" stroke="#000000" stroke-width="2.93" stroke-linecap="round" stroke-linejoin="round" fill-rule="evenodd" d="M1500.25,368.905 C1538.63,333.882 1653.77,333.882 1692.15,368.905 C1653.77,345.589 1538.63,345.589 1500.25,368.905"/>
<path class="TieSegment" stroke="#000000" stroke-width="2.93" stroke-linecap="round" stroke-linejoin="round" fill-rule="evenodd" d="M1933.89,478.523 C1981.93,509.186 2126.07,509.186 2174.12,478.523 C2126.07,520.893 1981.93,520.893 1933.89,478.523"/>
<path class="TieSegment" stroke="#000000" stroke-width="2.93" stroke-linecap="round" stroke-linejoin="round" fill-rule="evenodd" d="M4048.34,359.571 C4066.2,336.993 4119.75,336.993 4137.61,359.571 C4119.75,348.7 4066.2,348.7 4048.34,359.571"/>
<path class="TieSegment" stroke="#000000" stroke-width="2.93" stroke-linecap="round" stroke-linejoin="round" fill-rule="evenodd" d="M335.752,944.091 C357.953,921.365 424.555,921.365 446.756,944.091 C424.555,933.072 357.953,933.072 335.752,944.091"/>
<path class="TieSegment" stroke="#000000" stroke-width="2.93" stroke-linecap="round" stroke-linejoin="round" fill-rule="evenodd" d="M819.241,995.315 C857.956,960.039 974.1,960.039 1012.81,995.315 C974.1,971.746 857.956,971.746 819.241,995.315"/>
<path class="TieSegment" stroke="#000000" stroke-width="2.93" stroke-linecap="round" stroke-linejoin="round" fill-rule="evenodd" d="M1385.3,1067.83 C1424.01,1091.4 1540.16,1091.4 1578.87,1067.83 C1540.16,1103.11 1424.01,1103.11 1385.3,1067.83"/>
<path class="TieSegment" stroke="#000000" stroke-width="2.93" stroke-linecap="round" stroke-linejoin="round" fill-rule="evenodd" d="M2538.72,895.688 C2577.44,860.412 2693.58,860.412 2732.3,895.688 C2693.58,872.119 2577.44,872.119 2538.72,895.688"/>
<path class="TieSegment" stroke="#000000" stroke-width="2.93" stroke-linecap="round" stroke-linejoin="round" fill-rule="evenodd" d="M3480.62,895.688 C3519.33,860.412 3635.47,860.412 3674.19,895.688 C3635.47,872.119 3519.33,872.119 3480.62,895.688"/>
<path class="TieSegment" stroke="#000000" stroke-width="2.93" stroke-linecap="round" stroke-linejoin="round" fill-rule="evenodd" d="M4046.67,916.594 C4064.86,894.016 4119.42,894.016 4137.61,916.594 C4119.42,905.723 4064.86,905.723 4046.67,916.594"/>
<path class="TieSegment" stroke="#000000" stroke-width="2.93" stroke-linecap="round" stroke-linejoin="round" fill-rule="evenodd" d="M335.752,1501 C357.953,1478.28 424.555,1478.28 446.756,1501 C424.555,1489.98 357.953,1489.98 335.752,1501"/>
<path class="TieSegment" stroke="#000000" stroke-width="2.93" stroke-linecap="round" stroke-linejoin="round" fill-rule="evenodd" d="M835.477,1521.91 C875.274,1485.81 994.665,1485.81 1034.46,1521.91 C994.665,1497.52 875.274,1497.52 835.477,1521.91"/>
<path class="TieSegment" stroke="#000000" stroke-width="2.93" stroke-linecap="round" stroke-linejoin="round" fill-rule="evenodd" d="M1820.66,1480.1 C1860.46,1444 1979.85,1444 2019.65,1480.1 C1979.85,1455.71 1860.46,1455.71 1820.66,1480.1"/>
<path class="TieSegment" stroke="#000000" stroke-width="2.93" stroke-linecap="round" stroke-linejoin="round" fill-rule="evenodd" d="M2408.37,1459.19 C2451.09,1420.87 2579.27,1420.87 2621.99,1459.19 C2579.27,1432.58 2451.09,1432.58 2408.37,1459.19"/>
<path class="TieSegment" stroke="#000000" stroke-width="2.93" stroke-linecap="round" stroke-linejoin="round" fill-rule="evenodd" d="M3022.78,1480.1 C3063.39,1443.39 3185.19,1443.39 3225.79,1480.1 C3185.19,1455.09 3063.39,1455.09 3022.78,1480.1"/>
<path class="TieSegment" stroke="#000000" stroke-width="2.93" stroke-linecap="round" stroke-linejoin="round" fill-rule="evenodd" d="M4041.26,1528.39 C4060.53,1505.81 4118.34,1505.81 4137.61,1528.39 C4118.34,1517.52 4060.53,1517.52 4041.26,1528.39"/>
<path class="TieSegment" stroke="#000000" stroke-width="2.93" stroke-linecap="round" stroke-linejoin="round" fill-rule="evenodd" d="M335.752,2112.91 C357.953,2090.18 424.555,2090.18 446.756,2112.91 C424.555,2101.89 357.953,2101.89 335.752,2112.91"/>
<path class="TieSegment" stroke="#000000" stroke-width="2.93" stroke-linecap="round" stroke-linejoin="round" fill-rule="evenodd" d="M847.991,2165.23 C888.622,2128.49 1010.52,2128.49 1051.15,2165.23 C1010.52,2140.2 888.622,2140.2 847.991,2165.23"/>
<path class="TieSegment" stroke="#000000" stroke-width="2.93" stroke-linecap="round" stroke-linejoin="round" fill-rule="evenodd" d="M1452.38,2235.56 C1493.01,2260.59 1614.91,2260.59 1655.54,2235.56 C1614.91,2272.29 1493.01,2272.29 1452.38,2235.56"/>
<path class="TieSegment" stroke="#000000" stroke-width="2.93" stroke-linecap="round" stroke-linejoin="round" fill-rule="evenodd" d="M2437.24,2124.93 C2480.53,2086.18 2610.4,2086.18 2653.69,2124.93 C2610.4,2097.88 2480.53,2097.88 2437.24,2124.93"/>
<path class="TieSegment" stroke="#000000" stroke-width="2.93" stroke-linecap="round" stroke-linejoin="round" fill-rule="evenodd" d="M3054.92,2165.23 C3095.55,2128.49 3217.45,2128.49 3258.08,2165.23 C3217.45,2140.2 3095.55,2140.2 3054.92,2165.23"/>
<polyline class="BarLine" stroke="#000000" stroke-width="23.00" stroke-linejoin="bevel" points="439.77,361.244 439.77,533.087"/>
<polyline class="BarLine" stroke="#000000" stroke-width="7.53" stroke-linejoin="bevel" points="469.038,361.244 469.038,533.087"/>
<path class="BarLine" transform="matrix(1.67244,0,0,1.67244,489.603,426.26)" d="M10.4,0 C10.4,-2.9 8.1,-5.3 5.2,-5.3 C2.3,-5.3 0,-2.9 0,0 C0,2.9 2.3,5.3 5.2,5.3 C8.1,5.3 10.4,2.9 10.4,0"/>
<path class="BarLine" transform="matrix(1.67244,0,0,1.67244,489.603,468.071)" d="M10.4,0 C10.4,-2.9 8.1,-5.3 5.2,-5.3 C2.3,-5.3 0,-2.9 0,0 C0,2.9 2.3,5.3 5.2,5.3 C8.1,5.3 10.4,2.9 10.4,0"/>
<polyline class="BarLine" stroke="#000000" stroke-width="7.53" stroke-linejoin="bevel" points="1103.78,361.244 1103.78,533.087"/>
<polyline class="BarLine" stroke="#000000" stroke-width="7.53" stroke-linejoin="bevel" points="1585.75,361.244 1585.75,533.087"/>
<polyline class="BarLine" stroke="#000000" stroke-width="7.53" stroke-linejoin="bevel" points="2067.72,361.244 2067.72,533.087"/>
<polyline class="BarLine" stroke="#000000" stroke-width="7.53" stroke-linejoin="bevel" points="2602.85,361.244 2602.85,533.087"/>
<polyline class="BarLine" stroke="#000000" stroke-width="7.53" stroke-linejoin="bevel" points="3025.02,361.244 3025.02,533.087"/>
<polyline class="BarLine" stroke="#000000" stroke-width="7.53" stroke-linejoin="bevel" points="3252.34,361.244 3252.34,533.087"/>
<polyline class="BarLine" stroke="#000000" stroke-width="7.53" stroke-linejoin="bevel" points="3651.88,361.244 3651.88,533.087"/>
<polyline class="BarLine" stroke="#000000" stroke-width="7.53" stroke-linejoin="bevel" points="4133.84,361.244 4133.84,533.087"/>
<polyline class="BarLine" stroke="#000000" stroke-width="7.53" stroke-linejoin="bevel" points="906.41,945.653 906.41,1117.5"/>
<polyline class="BarLine" stroke="#000000" stroke-width="7.53" stroke-linejoin="bevel" points="1472.47,945.653 1472.47,1117.5"/>
<polyline class="BarLine" stroke="#000000" stroke-width="7.53" stroke-linejoin="bevel" points="1735.87,945.653 1735.87,1117.5"/>
<path class="BarLine" transform="matrix(1.67244,0,0,1.67244,1965.4,1010.67)" d="M10.4,0 C10.4,-2.9 8.1,-5.3 5.2,-5.3 C2.3,-5.3 0,-2.9 0,0 C0,2.9 2.3,5.3 5.2,5.3 C8.1,5.3 10.4,2.9 10.4,0"/>
<path class="BarLine" transform="matrix(1.67244,0,0,1.67244,1965.4,1052.48)" d="M10.4,0 C10.4,-2.9 8.1,-5.3 5.2,-5.3 C2.3,-5.3 0,-2.9 0,0 C0,2.9 2.3,5.3 5.2,5.3 C8.1,5.3 10.4,2.9 10.4,0"/>
<polyline class="BarLine" stroke="#000000" stroke-width="7.53" stroke-linejoin="bevel" points="2003.36,945.653 2003.36,1117.5"/>
<polyline class="BarLine" stroke="#000000" stroke-width="23.00" stroke-linejoin="bevel" points="2032.63,945.653 2032.63,1117.5"/>
<polyline class="BarLine" stroke="#000000" stroke-width="23.00" stroke-linejoin="bevel" points="2029.13,945.653 2029.13,1117.5"/>
<polyline class="BarLine" stroke="#000000" stroke-width="7.53" stroke-linejoin="bevel" points="2058.4,945.653 2058.4,1117.5"/>
<path class="BarLine" transform="matrix(1.67244,0,0,1.67244,2078.96,1010.67)" d="M10.4,0 C10.4,-2.9 8.1,-5.3 5.2,-5.3 C2.3,-5.3 0,-2.9 0,0 C0,2.9 2.3,5.3 5.2,5.3 C8.1,5.3 10.4,2.9 10.4,0"/>
<path class="BarLine" transform="matrix(1.67244,0,0,1.67244,2078.96,1052.48)" d="M10.4,0 C10.4,-2.9 8.1,-5.3 5.2,-5.3 C2.3,-5.3 0,-2.9 0,0 C0,2.9 2.3,5.3 5.2,5.3 C8.1,5.3 10.4,2.9 10.4,0"/>
<polyline class="BarLine" stroke="#000000" stroke-width="7.53" stroke-linejoin="bevel" points="2625.89,945.653 2625.89,1117.5"/>
<polyline class="BarLine" stroke="#000000" stroke-width="7.53" stroke-linejoin="bevel" points="3030.99,945.653 3030.99,1117.5"/>
<polyline class="BarLine" stroke="#000000" stroke-width="7.53" stroke-linejoin="bevel" points="3567.78,945.653 3567.78,1117.5"/>
<polyline class="BarLine" stroke="#000000" stroke-width="7.53" stroke-linejoin="bevel" points="4133.84,945.653 4133.84,1117.5"/>
<polyline class="BarLine" stroke="#000000" stroke-width="7.53" stroke-linejoin="bevel" points="928.057,1530.06 928.057,1701.91"/>
<polyline class="BarLine" stroke="#000000" stroke-width="7.53" stroke-linejoin="bevel" points="1354.81,1530.06 1354.81,1701.91"/>
<polyline class="BarLine" stroke="#000000" stroke-width="7.53" stroke-linejoin="bevel" points="1913.24,1530.06 1913.24,1701.91"/>
<polyline class="BarLine" stroke="#000000" stroke-width="7.53" stroke-linejoin="bevel" points="2500.95,1530.06 2500.95,1701.91"/>
<polyline class="BarLine" stroke="#000000" stroke-width="7.53" stroke-linejoin="bevel" points="3119.39,1530.06 3119.39,1701.91"/>
<polyline class="BarLine" stroke="#000000" stroke-width="7.53" stroke-linejoin="bevel" points="3546.14,1530.06 3546.14,1701.91"/>
<polyline class="BarLine" stroke="#000000" stroke-width="7.53" stroke-linejoin="bevel" points="4133.84,1530.06 4133.84,1701.91"/>
<polyline class="BarLine" stroke="#000000" stroke-width="7.53" stroke-linejoin="bevel" points="944.743,2114.47 944.743,2286.31"/>
<polyline class="BarLine" stroke="#000000" stroke-width="7.53" stroke-linejoin="bevel" points="1549.13,2114.47 1549.13,2286.31"/>
<polyline class="BarLine" stroke="#000000" stroke-width="7.53" stroke-linejoin="bevel" points="1918.99,2114.47 1918.99,2286.31"/>
<polyline class="BarLine" stroke="#000000" stroke-width="7.53" stroke-linejoin="bevel" points="2547.28,2114.47 2547.28,2286.31"/>
<polyline class="BarLine" stroke="#000000" stroke-width="7.53" stroke-linejoin="bevel" points="3151.67,2114.47 3151.67,2286.31"/>
<polyline class="BarLine" stroke="#000000" stroke-width="7.53" stroke-linejoin="bevel" points="3654.9,2114.47 3654.9,2286.31"/>
<path class="BarLine" transform="matrix(1.67244,0,0,1.67244,4062.37,2179.49)" d="M10.4,0 C10.4,-2.9 8.1,-5.3 5.2,-5.3 C2.3,-5.3 0,-2.9 0,0 C0,2.9 2.3,5.3 5.2,5.3 C8.1,5.3 10.4,2.9 10.4,0"/>
<path class="BarLine" transform="matrix(1.67244,0,0,1.67244,4062.37,2221.3)" d="M10.4,0 C10.4,-2.9 8.1,-5.3 5.2,-5.3 C2.3,-5.3 0,-2.9 0,0 C0,2.9 2.3,5.3 5.2,5.3 C8.1,5.3 10.4,2.9 10.4,0"/>
<polyline class="BarLine" stroke="#000000" stroke-width="7.53" stroke-linejoin="bevel" points="4100.34,2114.47 4100.34,2286.31"/>
<polyline class="BarLine" stroke="#000000" stroke-width="23.00" stroke-linejoin="bevel" points="4129.6,2114.47 4129.6,2286.31"/>
<polyline class="LedgerLine" stroke="#000000" stroke-width="6.69" stroke-linejoin="bevel" points="2358.41,1490.55 2442.02,1490.55"/>
<polyline class="LedgerLine" stroke="#000000" stroke-width="6.69" stroke-linejoin="bevel" points="2588.34,1490.55 2671.94,1490.55"/>
<polyline class="Stem" stroke="#000000" stroke-width="4.60" stroke-linejoin="bevel" points="777.302,441.813 777.302,316.506"/>
<polyline class="Stem" stroke="#000000" stroke-width="4.60" stroke-linejoin="bevel" points="917.604,441.813 917.604,321.732"/>
<polyline class="Stem" stroke="#000000" stroke-width="4.60" stroke-linejoin="bevel" points="1034.83,441.813 1034.83,321.732"/>
<polyline class="Stem" stroke="#000000" stroke-width="4.60" stroke-linejoin="bevel" points="1243.21,441.813 1243.21,316.506"/>
<polyline class="Stem" stroke="#000000" stroke-width="4.60" stroke-linejoin="bevel" points="1333.77,390.068 1333.77,530.787"/>
<polyline class="Stem" stroke="#000000" stroke-width="4.60" stroke-linejoin="bevel" points="1467.23,410.974 1467.23,551.693"/>
<polyline class="Stem" stroke="#000000" stroke-width="4.60" stroke-linejoin="bevel" points="1675.43,410.974 1675.43,551.693"/>
<polyline class="Stem" stroke="#000000" stroke-width="4.60" stroke-linejoin="bevel" points="1767.41,431.879 1767.41,562.146"/>
<polyline class="Stem" stroke="#000000" stroke-width="4.60" stroke-linejoin="bevel" points="1950.61,441.813 1950.61,316.506"/>
<polyline class="Stem" stroke="#000000" stroke-width="4.60" stroke-linejoin="bevel" points="2207.14,441.813 2207.14,316.506"/>
<polyline class="Stem" stroke="#000000" stroke-width="4.60" stroke-linejoin="bevel" points="2347.45,462.719 2347.45,332.185"/>
<polyline class="Stem" stroke="#000000" stroke-width="4.60" stroke-linejoin="bevel" points="2485.74,441.813 2485.74,316.506"/>
<polyline class="Stem" stroke="#000000" stroke-width="4.60" stroke-linejoin="bevel" points="2742.27,441.813 2742.27,316.506"/>
<polyline class="Stem" stroke="#000000" stroke-width="4.60" stroke-linejoin="bevel" points="2882.58,525.435 2882.58,384.449"/>
<polyline class="Stem" stroke="#000000" stroke-width="4.60" stroke-linejoin="bevel" points="3491.13,441.813 3491.13,321.732"/>
<polyline class="Stem" stroke="#000000" stroke-width="4.60" stroke-linejoin="bevel" points="3583.1,441.813 3583.1,321.732"/>
<polyline class="Stem" stroke="#000000" stroke-width="4.60" stroke-linejoin="bevel" points="3791.3,441.813 3791.3,316.506"/>
<polyline class="Stem" stroke="#000000" stroke-width="4.60" stroke-linejoin="bevel" points="3881.86,390.068 3881.86,530.787"/>
<polyline class="Stem" stroke="#000000" stroke-width="4.60" stroke-linejoin="bevel" points="4015.32,410.974 4015.32,551.693"/>
<polyline class="Stem" stroke="#000000" stroke-width="4.60" stroke-linejoin="bevel" points="430.036,995.383 430.036,1125.65"/>
<polyline class="Stem" stroke="#000000" stroke-width="4.60" stroke-linejoin="bevel" points="548.763,1016.29 548.763,1139.59"/>
<polyline class="Stem" stroke="#000000" stroke-width="4.60" stroke-linejoin="bevel" points="667.491,1016.29 667.491,1153.52"/>
<polyline class="Stem" stroke="#000000" stroke-width="4.60" stroke-linejoin="bevel" points="786.219,1037.19 786.219,1167.46"/>
<polyline class="Stem" stroke="#000000" stroke-width="4.60" stroke-linejoin="bevel" points="1045.84,1026.22 1045.84,874.783"/>
<polyline class="Stem" stroke="#000000" stroke-width="4.60" stroke-linejoin="bevel" points="1164.56,1047.13 1164.56,874.783"/>
<polyline class="Stem" stroke="#000000" stroke-width="4.60" stroke-linejoin="bevel" points="1283.29,984.411 1283.29,874.783"/>
<polyline class="Stem" stroke="#000000" stroke-width="4.60" stroke-linejoin="bevel" points="1402.02,1026.22 1402.02,874.783"/>
<polyline class="Stem" stroke="#000000" stroke-width="4.60" stroke-linejoin="bevel" points="1611.9,1026.22 1611.9,900.915"/>
<polyline class="Stem" stroke="#000000" stroke-width="4.60" stroke-linejoin="bevel" points="2268.25,974.477 2268.25,1115.2"/>
<polyline class="Stem" stroke="#000000" stroke-width="4.60" stroke-linejoin="bevel" points="2386.97,953.572 2386.97,1073.39"/>
<polyline class="Stem" stroke="#000000" stroke-width="4.60" stroke-linejoin="bevel" points="2505.7,932.666 2505.7,1062.93"/>
<polyline class="Stem" stroke="#000000" stroke-width="4.60" stroke-linejoin="bevel" points="2715.58,932.666 2715.58,1073.39"/>
<polyline class="Stem" stroke="#000000" stroke-width="4.60" stroke-linejoin="bevel" points="2821.97,974.477 2821.97,1115.2"/>
<polyline class="Stem" stroke="#000000" stroke-width="4.60" stroke-linejoin="bevel" points="3210.14,932.666 3210.14,1073.39"/>
<polyline class="Stem" stroke="#000000" stroke-width="4.60" stroke-linejoin="bevel" points="3328.87,932.666 3328.87,1062.93"/>
<polyline class="Stem" stroke="#000000" stroke-width="4.60" stroke-linejoin="bevel" points="3447.59,932.666 3447.59,1062.93"/>
<polyline class="Stem" stroke="#000000" stroke-width="4.60" stroke-linejoin="bevel" points="3657.47,932.666 3657.47,1083.84"/>
<polyline class="Stem" stroke="#000000" stroke-width="4.60" stroke-linejoin="bevel" points="3776.2,953.572 3776.2,1083.84"/>
<polyline class="Stem" stroke="#000000" stroke-width="4.60" stroke-linejoin="bevel" points="3894.92,974.477 3894.92,1083.84"/>
<polyline class="Stem" stroke="#000000" stroke-width="4.60" stroke-linejoin="bevel" points="4013.65,953.572 4013.65,1083.84"/>
<polyline class="Stem" stroke="#000000" stroke-width="4.60" stroke-linejoin="bevel" points="430.036,1537.98 430.036,1699.61"/>
<polyline class="Stem" stroke="#000000" stroke-width="4.60" stroke-linejoin="bevel" points="554.175,1558.89 554.175,1699.61"/>
<polyline class="Stem" stroke="#000000" stroke-width="4.60" stroke-linejoin="bevel" points="678.315,1579.79 678.315,1699.61"/>
<polyline class="Stem" stroke="#000000" stroke-width="4.60" stroke-linejoin="bevel" points="802.455,1558.89 802.455,1699.61"/>
<polyline class="Stem" stroke="#000000" stroke-width="4.60" stroke-linejoin="bevel" points="1017.74,1558.89 1017.74,1699.61"/>
<polyline class="Stem" stroke="#000000" stroke-width="4.60" stroke-linejoin="bevel" points="1181.21,1610.63 1181.21,1485.32"/>
<polyline class="Stem" stroke="#000000" stroke-width="4.60" stroke-linejoin="bevel" points="1539.36,1517.08 1539.36,1657.79"/>
<polyline class="Stem" stroke="#000000" stroke-width="4.60" stroke-linejoin="bevel" points="1663.5,1517.08 1663.5,1647.34"/>
<polyline class="Stem" stroke="#000000" stroke-width="4.60" stroke-linejoin="bevel" points="1787.64,1517.08 1787.64,1647.34"/>
<polyline class="Stem" stroke="#000000" stroke-width="4.60" stroke-linejoin="bevel" points="2002.93,1517.08 2002.93,1668.25"/>
<polyline class="Stem" stroke="#000000" stroke-width="4.60" stroke-linejoin="bevel" points="2127.07,1537.98 2127.07,1668.25"/>
<polyline class="Stem" stroke="#000000" stroke-width="4.60" stroke-linejoin="bevel" points="2251.21,1558.89 2251.21,1668.25"/>
<polyline class="Stem" stroke="#000000" stroke-width="4.60" stroke-linejoin="bevel" points="2375.35,1496.17 2375.35,1668.25"/>
<polyline class="Stem" stroke="#000000" stroke-width="4.60" stroke-linejoin="bevel" points="2605.27,1496.17 2605.27,1657.79"/>
<polyline class="Stem" stroke="#000000" stroke-width="4.60" stroke-linejoin="bevel" points="2733.43,1517.08 2733.43,1657.79"/>
<polyline class="Stem" stroke="#000000" stroke-width="4.60" stroke-linejoin="bevel" points="2861.6,1537.98 2861.6,1657.79"/>
<polyline class="Stem" stroke="#000000" stroke-width="4.60" stroke-linejoin="bevel" points="2989.76,1517.08 2989.76,1657.79"/>
<polyline class="Stem" stroke="#000000" stroke-width="4.60" stroke-linejoin="bevel" points="3209.07,1517.08 3209.07,1657.79"/>
<polyline class="Stem" stroke="#000000" stroke-width="4.60" stroke-linejoin="bevel" points="3322.8,1558.89 3322.8,1699.61"/>
<polyline class="Stem" stroke="#000000" stroke-width="4.60" stroke-linejoin="bevel" points="3635.82,1621.6 3635.82,1751.87"/>
<polyline class="Stem" stroke="#000000" stroke-width="4.60" stroke-linejoin="bevel" points="3759.96,1621.6 3759.96,1737.93"/>
<polyline class="Stem" stroke="#000000" stroke-width="4.60" stroke-linejoin="bevel" points="3884.1,1558.89 3884.1,1724"/>
<polyline class="Stem" stroke="#000000" stroke-width="4.60" stroke-linejoin="bevel" points="4008.24,1579.79 4008.24,1710.06"/>
<polyline class="Stem" stroke="#000000" stroke-width="4.60" stroke-linejoin="bevel" points="430.036,2164.2 430.036,2294.47"/>
<polyline class="Stem" stroke="#000000" stroke-width="4.60" stroke-linejoin="bevel" points="558.347,2185.11 558.347,2308.4"/>
<polyline class="Stem" stroke="#000000" stroke-width="4.60" stroke-linejoin="bevel" points="686.658,2185.11 686.658,2322.34"/>
<polyline class="Stem" stroke="#000000" stroke-width="4.60" stroke-linejoin="bevel" points="814.968,2206.01 814.968,2336.28"/>
<polyline class="Stem" stroke="#000000" stroke-width="4.60" stroke-linejoin="bevel" points="1084.17,2195.04 1084.17,2043.6"/>
<polyline class="Stem" stroke="#000000" stroke-width="4.60" stroke-linejoin="bevel" points="1212.48,2215.95 1212.48,2043.6"/>
<polyline class="Stem" stroke="#000000" stroke-width="4.60" stroke-linejoin="bevel" points="1340.79,2153.23 1340.79,2043.6"/>
<polyline class="Stem" stroke="#000000" stroke-width="4.60" stroke-linejoin="bevel" points="1469.1,2195.04 1469.1,2043.6"/>
<polyline class="Stem" stroke="#000000" stroke-width="4.60" stroke-linejoin="bevel" points="1688.56,2195.04 1688.56,2069.73"/>
<polyline class="Stem" stroke="#000000" stroke-width="4.60" stroke-linejoin="bevel" points="2170.76,2195.04 2170.76,2069.73"/>
<polyline class="Stem" stroke="#000000" stroke-width="4.60" stroke-linejoin="bevel" points="2262.62,2143.3 2262.62,2273.56"/>
<polyline class="Stem" stroke="#000000" stroke-width="4.60" stroke-linejoin="bevel" points="2404.22,2164.2 2404.22,2284.01"/>
<polyline class="Stem" stroke="#000000" stroke-width="4.60" stroke-linejoin="bevel" points="2636.97,2164.2 2636.97,2294.47"/>
<polyline class="Stem" stroke="#000000" stroke-width="4.60" stroke-linejoin="bevel" points="2765.28,2185.11 2765.28,2308.4"/>
<polyline class="Stem" stroke="#000000" stroke-width="4.60" stroke-linejoin="bevel" points="2893.59,2185.11 2893.59,2322.34"/>
<polyline class="Stem" stroke="#000000" stroke-width="4.60" stroke-linejoin="bevel" points="3021.9,2206.01 3021.9,2336.28"/>
<polyline class="Stem" stroke="#000000" stroke-width="4.60" stroke-linejoin="bevel" points="3291.1,2195.04 3291.1,2074.96"/>
<polyline class="Stem" stroke="#000000" stroke-width="4.60" stroke-linejoin="bevel" points="3405.57,2215.95 3405.57,2085.41"/>
<polyline class="Stem" stroke="#000000" stroke-width="4.60" stroke-linejoin="bevel" points="3470.29,2164.2 3470.29,2299.69"/>
<polyline class="Stem" stroke="#000000" stroke-width="4.60" stroke-linejoin="bevel" points="3794.32,2195.04 3794.32,2069.73"/>
<path class="Note" transform="matrix(1.67244,0,0,1.67244,725.261,447.165)" d="M31.5,-8.1 C29.7,-11.4 25.9,-13.2 21.3,-13.2 C17.9,-13.2 14.2,-12.2 10.6,-10.3 C4,-6.8 0,-0.9 0,4.2 C0,5.6 0.3,7 1,8.3 C2.8,11.6 6.6,13.3 11.2,13.3 C14.6,13.3 18.3,12.4 21.9,10.5 C28.5,7 32.5,1.1 32.5,-4 C32.5,-5.4 32.2,-6.8 31.5,-8.1"/>
<path class="Note" transform="matrix(1.67244,0,0,1.67244,865.563,447.165)" d="M31.5,-8.1 C29.7,-11.4 25.9,-13.2 21.3,-13.2 C17.9,-13.2 14.2,-12.2 10.6,-10.3 C4,-6.8 0,-0.9 0,4.2 C0,5.6 0.3,7 1,8.3 C2.8,11.6 6.6,13.3 11.2,13.3 C14.6,13.3 18.3,12.4 21.9,10.5 C28.5,7 32.5,1.1 32.5,-4 C32.5,-5.4 32.2,-6.8 31.5,-8.1"/>
<path class="Note" transform="matrix(1.67244,0,0,1.67244,982.791,447.165)" d="M31.5,-8.1 C29.7,-11.4 25.9,-13.2 21.3,-13.2 C17.9,-13.2 14.2,-12.2 10.6,-10.3 C4,-6.8 0,-0.9 0,4.2 C0,5.6 0.3,7 1,8.3 C2.8,11.6 6.6,13.3 11.2,13.3 C14.6,13.3 18.3,12.4 21.9,10.5 C28.5,7 32.5,1.1 32.5,-4 C32.5,-5.4 32.2,-6.8 31.5,-8.1"/>
<path class="Note" transform="matrix(1.67244,0,0,1.67244,1191.17,447.165)" d="M31.5,-8.1 C29.7,-11.4 25.9,-13.2 21.3,-13.2 C17.9,-13.2 14.2,-12.2 10.6,-10.3 C4,-6.8 0,-0.9 0,4.2 C0,5.6 0.3,7 1,8.3 C2.8,11.6 6.6,13.3 11.2,13.3 C14.6,13.3 18.3,12.4 21.9,10.5 C28.5,7 32.5,1.1 32.5,-4 C32.5,-5.4 32.2,-6.8 31.5,-8.1"/>
<path class="Note" transform="matrix(1.67244,0,0,1.67244,1331.47,384.449)" d="M31.5,-8.1 C29.7,-11.4 25.9,-13.2 21.3,-13.2 C17.9,-13.2 14.2,-12.2 10.6,-10.3 C4,-6.8 0,-0.9 0,4.2 C0,5.6 0.3,7 1,8.3 C2.8,11.6 6.6,13.3 11.2,13.3 C14.6,13.3 18.3,12.4 21.9,10.5 C28.5,7 32.5,1.1 32.5,-4 C32.5,-5.4 32.2,-6.8 31.5,-8.1"/>
<path class="Note" transform="matrix(1.67244,0,0,1.67244,1464.93,405.354)" d="M31.5,-8.1 C29.7,-11.4 25.9,-13.2 21.3,-13.2 C17.9,-13.2 14.2,-12.2 10.6,-10.3 C4,-6.8 0,-0.9 0,4.2 C0,5.6 0.3,7 1,8.3 C2.8,11.6 6.6,13.3 11.2,13.3 C14.6,13.3 18.3,12.4 21.9,10.5 C28.5,7 32.5,1.1 32.5,-4 C32.5,-5.4 32.2,-6.8 31.5,-8.1"/>
<path class="Note" transform="matrix(1.67244,0,0,1.67244,1673.13,405.354)" d="M31.5,-8.1 C29.7,-11.4 25.9,-13.2 21.3,-13.2 C17.9,-13.2 14.2,-12.2 10.6,-10.3 C4,-6.8 0,-0.9 0,4.2 C0,5.6 0.3,7 1,8.3 C2.8,11.6 6.6,13.3 11.2,13.3 C14.6,13.3 18.3,12.4 21.9,10.5 C28.5,7 32.5,1.1 32.5,-4 C32.5,-5.4 32.2,-6.8 31.5,-8.1"/>
<path class="Note" transform="matrix(1.67244,0,0,1.67244,1765.11,426.26)" d="M31.5,-8.1 C29.7,-11.4 25.9,-13.2 21.3,-13.2 C17.9,-13.2 14.2,-12.2 10.6,-10.3 C4,-6.8 0,-0.9 0,4.2 C0,5.6 0.3,7 1,8.3 C2.8,11.6 6.6,13.3 11.2,13.3 C14.6,13.3 18.3,12.4 21.9,10.5 C28.5,7 32.5,1.1 32.5,-4 C32.5,-5.4 32.2,-6.8 31.5,-8.1"/>
<path class="Note" transform="matrix(1.67244,0,0,1.67244,1898.56,447.165)" d="M31.5,-8.1 C29.7,-11.4 25.9,-13.2 21.3,-13.2 C17.9,-13.2 14.2,-12.2 10.6,-10.3 C4,-6.8 0,-0.9 0,4.2 C0,5.6 0.3,7 1,8.3 C2.8,11.6 6.6,13.3 11.2,13.3 C14.6,13.3 18.3,12.4 21.9,10.5 C28.5,7 32.5,1.1 32.5,-4 C32.5,-5.4 32.2,-6.8 31.5,-8.1"/>
<path class="Note" transform="matrix(1.67244,0,0,1.67244,2155.1,447.165)" d="M31.5,-8.1 C29.7,-11.4 25.9,-13.2 21.3,-13.2 C17.9,-13.2 14.2,-12.2 10.6,-10.3 C4,-6.8 0,-0.9 0,4.2 C0,5.6 0.3,7 1,8.3 C2.8,11.6 6.6,13.3 11.2,13.3 C14.6,13.3 18.3,12.4 21.9,10.5 C28.5,7 32.5,1.1 32.5,-4 C32.5,-5.4 32.2,-6.8 31.5,-8.1"/>
<path class="Note" transform="matrix(1.67244,0,0,1.67244,2295.4,468.071)" d="M31.5,-8.1 C29.7,-11.4 25.9,-13.2 21.3,-13.2 C17.9,-13.2 14.2,-12.2 10.6,-10.3 C4,-6.8 0,-0.9 0,4.2 C0,5.6 0.3,7 1,8.3 C2.8,11.6 6.6,13.3 11.2,13.3 C14.6,13.3 18.3,12.4 21.9,10.5 C28.5,7 32.5,1.1 32.5,-4 C32.5,-5.4 32.2,-6.8 31.5,-8.1"/>
<path class="Note" transform="matrix(1.67244,0,0,1.67244,2433.7,447.165)" d="M31.5,-8.1 C29.7,-11.4 25.9,-13.2 21.3,-13.2 C17.9,-13.2 14.2,-12.2 10.6,-10.3 C4,-6.8 0,-0.9 0,4.2 C0,5.6 0.3,7 1,8.3 C2.8,11.6 6.6,13.3 11.2,13.3 C14.6,13.3 18.3,12.4 21.9,10.5 C28.5,7 32.5,1.1 32.5,-4 C32.5,-5.4 32.2,-6.8 31.5,-8.1"/>
<path class="Note" transform="matrix(1.67244,0,0,1.67244,2690.23,447.165)" d="M31.5,-8.1 C29.7,-11.4 25.9,-13.2 21.3,-13.2 C17.9,-13.2 14.2,-12.2 10.6,-10.3 C4,-6.8 0,-0.9 0,4.2 C0,5.6 0.3,7 1,8.3 C2.8,11.6 6.6,13.3 11.2,13.3 C14.6,13.3 18.3,12.4 21.9,10.5 C28.5,7 32.5,1.1 32.5,-4 C32.5,-5.4 32.2,-6.8 31.5,-8.1"/>
<path class="Note" transform="matrix(1.67244,0,0,1.67244,2830.53,530.787)" d="M31.5,-8.1 C29.7,-11.4 25.9,-13.2 21.3,-13.2 C17.9,-13.2 14.2,-12.2 10.6,-10.3 C4,-6.8 0,-0.9 0,4.2 C0,5.6 0.3,7 1,8.3 C2.8,11.6 6.6,13.3 11.2,13.3 C14.6,13.3 18.3,12.4 21.9,10.5 C28.5,7 32.5,1.1 32.5,-4 C32.5,-5.4 32.2,-6.8 31.5,-8.1"/>
<path class="Note" transform="matrix(1.67244,0,0,1.67244,3439.08,447.165)" d="M31.5,-8.1 C29.7,-11.4 25.9,-13.2 21.3,-13.2 C17.9,-13.2 14.2,-12.2 10.6,-10.3 C4,-6.8 0,-0.9 0,4.2 C0,5.6 0.3,7 1,8.3 C2.8,11.6 6.6,13.3 11.2,13.3 C14.6,13.3 18.3,12.4 21.9,10.5 C28.5,7 32.5,1.1 32.5,-4 C32.5,-5.4 32.2,-6.8 31.5,-8.1"/>
<path class="Note" transform="matrix(1.67244,0,0,1.67244,3531.06,447.165)" d="M31.5,-8.1 C29.7,-11.4 25.9,-13.2 21.3,-13.2 C17.9,-13.2 14.2,-12.2 10.6,-10.3 C4,-6.8 0,-0.9 0,4.2 C0,5.6 0.3,7 1,8.3 C2.8,11.6 6.6,13.3 11.2,13.3 C14.6,13.3 18.3,12.4 21.9,10.5 C28.5,7 32.5,1.1 32.5,-4 C32.5,-5.4 32.2,-6.8 31.5,-8.1"/>
<path class="Note" transform="matrix(1.67244,0,0,1.67244,3739.26,447.165)" d="M31.5,-8.1 C29.7,-11.4 25.9,-13.2 21.3,-13.2 C17.9,-13.2 14.2,-12.2 10.6,-10.3 C4,-6.8 0,-0.9 0,4.2 C0,5.6 0.3,7 1,8.3 C2.8,11.6 6.6,13.3 11.2,13.3 C14.6,13.3 18.3,12.4 21.9,10.5 C28.5,7 32.5,1.1 32.5,-4 C32.5,-5.4 32.2,-6.8 31.5,-8.1"/>
<path class="Note" transform="matrix(1.67244,0,0,1.67244,3879.56,384.449)" d="M31.5,-8.1 C29.7,-11.4 25.9,-13.2 21.3,-13.2 C17.9,-13.2 14.2,-12.2 10.6,-10.3 C4,-6.8 0,-0.9 0,4.2 C0,5.6 0.3,7 1,8.3 C2.8,11.6 6.6,13.3 11.2,13.3 C14.6,13.3 18.3,12.4 21.9,10.5 C28.5,7 32.5,1.1 32.5,-4 C32.5,-5.4 32.2,-6.8 31.5,-8.1"/>
<path class="Note" transform="matrix(1.67244,0,0,1.67244,4013.02,405.354)" d="M31.5,-8.1 C29.7,-11.4 25.9,-13.2 21.3,-13.2 C17.9,-13.2 14.2,-12.2 10.6,-10.3 C4,-6.8 0,-0.9 0,4.2 C0,5.6 0.3,7 1,8.3 C2.8,11.6 6.6,13.3 11.2,13.3 C14.6,13.3 18.3,12.4 21.9,10.5 C28.5,7 32.5,1.1 32.5,-4 C32.5,-5.4 32.2,-6.8 31.5,-8.1"/>
<path class="Note" transform="matrix(1.67244,0,0,1.67244,427.736,989.763)" d="M31.5,-8.1 C29.7,-11.4 25.9,-13.2 21.3,-13.2 C17.9,-13.2 14.2,-12.2 10.6,-10.3 C4,-6.8 0,-0.9 0,4.2 C0,5.6 0.3,7 1,8.3 C2.8,11.6 6.6,13.3 11.2,13.3 C14.6,13.3 18.3,12.4 21.9,10.5 C28.5,7 32.5,1.1 32.5,-4 C32.5,-5.4 32.2,-6.8 31.5,-8.1"/>
<path class="Note" transform="matrix(1.67244,0,0,1.67244,546.464,1010.67)" d="M31.5,-8.1 C29.7,-11.4 25.9,-13.2 21.3,-13.2 C17.9,-13.2 14.2,-12.2 10.6,-10.3 C4,-6.8 0,-0.9 0,4.2 C0,5.6 0.3,7 1,8.3 C2.8,11.6 6.6,13.3 11.2,13.3 C14.6,13.3 18.3,12.4 21.9,10.5 C28.5,7 32.5,1.1 32.5,-4 C32.5,-5.4 32.2,-6.8 31.5,-8.1"/>
<path class="Note" transform="matrix(1.67244,0,0,1.67244,665.192,1010.67)" d="M31.5,-8.1 C29.7,-11.4 25.9,-13.2 21.3,-13.2 C17.9,-13.2 14.2,-12.2 10.6,-10.3 C4,-6.8 0,-0.9 0,4.2 C0,5.6 0.3,7 1,8.3 C2.8,11.6 6.6,13.3 11.2,13.3 C14.6,13.3 18.3,12.4 21.9,10.5 C28.5,7 32.5,1.1 32.5,-4 C32.5,-5.4 32.2,-6.8 31.5,-8.1"/>
<path class="Note" transform="matrix(1.67244,0,0,1.67244,783.919,1031.57)" d="M31.5,-8.1 C29.7,-11.4 25.9,-13.2 21.3,-13.2 C17.9,-13.2 14.2,-12.2 10.6,-10.3 C4,-6.8 0,-0.9 0,4.2 C0,5.6 0.3,7 1,8.3 C2.8,11.6 6.6,13.3 11.2,13.3 C14.6,13.3 18.3,12.4 21.9,10.5 C28.5,7 32.5,1.1 32.5,-4 C32.5,-5.4 32.2,-6.8 31.5,-8.1"/>
<path class="Note" transform="matrix(1.67244,0,0,1.67244,993.795,1031.57)" d="M31.5,-8.1 C29.7,-11.4 25.9,-13.2 21.3,-13.2 C17.9,-13.2 14.2,-12.2 10.6,-10.3 C4,-6.8 0,-0.9 0,4.2 C0,5.6 0.3,7 1,8.3 C2.8,11.6 6.6,13.3 11.2,13.3 C14.6,13.3 18.3,12.4 21.9,10.5 C28.5,7 32.5,1.1 32.5,-4 C32.5,-5.4 32.2,-6.8 31.5,-8.1"/>
<path class="Note" transform="matrix(1.67244,0,0,1.67244,1112.52,1052.48)" d="M31.5,-8.1 C29.7,-11.4 25.9,-13.2 21.3,-13.2 C17.9,-13.2 14.2,-12.2 10.6,-10.3 C4,-6.8 0,-0.9 0,4.2 C0,5.6 0.3,7 1,8.3 C2.8,11.6 6.6,13.3 11.2,13.3 C14.6,13.3 18.3,12.4 21.9,10.5 C28.5,7 32.5,1.1 32.5,-4 C32.5,-5.4 32.2,-6.8 31.5,-8.1"/>
<path class="Note" transform="matrix(1.67244,0,0,1.67244,1231.25,989.763)" d="M31.5,-8.1 C29.7,-11.4 25.9,-13.2 21.3,-13.2 C17.9,-13.2 14.2,-12.2 10.6,-10.3 C4,-6.8 0,-0.9 0,4.2 C0,5.6 0.3,7 1,8.3 C2.8,11.6 6.6,13.3 11.2,13.3 C14.6,13.3 18.3,12.4 21.9,10.5 C28.5,7 32.5,1.1 32.5,-4 C32.5,-5.4 32.2,-6.8 31.5,-8.1"/>
<path class="Note" transform="matrix(1.67244,0,0,1.67244,1349.98,1031.57)" d="M31.5,-8.1 C29.7,-11.4 25.9,-13.2 21.3,-13.2 C17.9,-13.2 14.2,-12.2 10.6,-10.3 C4,-6.8 0,-0.9 0,4.2 C0,5.6 0.3,7 1,8.3 C2.8,11.6 6.6,13.3 11.2,13.3 C14.6,13.3 18.3,12.4 21.9,10.5 C28.5,7 32.5,1.1 32.5,-4 C32.5,-5.4 32.2,-6.8 31.5,-8.1"/>
<path class="Note" transform="matrix(1.67244,0,0,1.67244,1559.85,1031.57)" d="M31.5,-8.1 C29.7,-11.4 25.9,-13.2 21.3,-13.2 C17.9,-13.2 14.2,-12.2 10.6,-10.3 C4,-6.8 0,-0.9 0,4.2 C0,5.6 0.3,7 1,8.3 C2.8,11.6 6.6,13.3 11.2,13.3 C14.6,13.3 18.3,12.4 21.9,10.5 C28.5,7 32.5,1.1 32.5,-4 C32.5,-5.4 32.2,-6.8 31.5,-8.1 M27.2,-1.3 C25.5,0.4 22.1,2.5 18.5,4.5 C14.9,6.5 11.3,8 8.9,8.5 C8.4,8.6 7.9,8.7 7.4,8.7 C5.8,8.7 4.6,8.1 3.9,6.8 C3.6,6.3 3.4,5.7 3.4,5.1 C3.4,4 4.1,2.7 5.2,1.6 C6.9,-0.1 10.2,-2.2 13.8,-4.2 C17.4,-6.2 21,-7.7 23.4,-8.2 C23.9,-8.3 24.4,-8.4 24.9,-8.4 C26.5,-8.4 27.8,-7.8 28.5,-6.5 C28.8,-6 28.9,-5.4 28.9,-4.8 C28.9,-3.7 28.3,-2.5 27.2,-1.3"/>
<path class="Note" transform="matrix(1.67244,0,0,1.67244,2265.95,968.858)" d="M31.5,-8.1 C29.7,-11.4 25.9,-13.2 21.3,-13.2 C17.9,-13.2 14.2,-12.2 10.6,-10.3 C4,-6.8 0,-0.9 0,4.2 C0,5.6 0.3,7 1,8.3 C2.8,11.6 6.6,13.3 11.2,13.3 C14.6,13.3 18.3,12.4 21.9,10.5 C28.5,7 32.5,1.1 32.5,-4 C32.5,-5.4 32.2,-6.8 31.5,-8.1"/>
<path class="Note" transform="matrix(1.67244,0,0,1.67244,2384.67,947.952)" d="M31.5,-8.1 C29.7,-11.4 25.9,-13.2 21.3,-13.2 C17.9,-13.2 14.2,-12.2 10.6,-10.3 C4,-6.8 0,-0.9 0,4.2 C0,5.6 0.3,7 1,8.3 C2.8,11.6 6.6,13.3 11.2,13.3 C14.6,13.3 18.3,12.4 21.9,10.5 C28.5,7 32.5,1.1 32.5,-4 C32.5,-5.4 32.2,-6.8 31.5,-8.1"/>
<path class="Note" transform="matrix(1.67244,0,0,1.67244,2503.4,927.047)" d="M31.5,-8.1 C29.7,-11.4 25.9,-13.2 21.3,-13.2 C17.9,-13.2 14.2,-12.2 10.6,-10.3 C4,-6.8 0,-0.9 0,4.2 C0,5.6 0.3,7 1,8.3 C2.8,11.6 6.6,13.3 11.2,13.3 C14.6,13.3 18.3,12.4 21.9,10.5 C28.5,7 32.5,1.1 32.5,-4 C32.5,-5.4 32.2,-6.8 31.5,-8.1"/>
<path class="Note" transform="matrix(1.67244,0,0,1.67244,2713.28,927.047)" d="M31.5,-8.1 C29.7,-11.4 25.9,-13.2 21.3,-13.2 C17.9,-13.2 14.2,-12.2 10.6,-10.3 C4,-6.8 0,-0.9 0,4.2 C0,5.6 0.3,7 1,8.3 C2.8,11.6 6.6,13.3 11.2,13.3 C14.6,13.3 18.3,12.4 21.9,10.5 C28.5,7 32.5,1.1 32.5,-4 C32.5,-5.4 32.2,-6.8 31.5,-8.1"/>
<path class="Note" transform="matrix(1.67244,0,0,1.67244,2819.67,968.858)" d="M31.5,-8.1 C29.7,-11.4 25.9,-13.2 21.3,-13.2 C17.9,-13.2 14.2,-12.2 10.6,-10.3 C4,-6.8 0,-0.9 0,4.2 C0,5.6 0.3,7 1,8.3 C2.8,11.6 6.6,13.3 11.2,13.3 C14.6,13.3 18.3,12.4 21.9,10.5 C28.5,7 32.5,1.1 32.5,-4 C32.5,-5.4 32.2,-6.8 31.5,-8.1"/>
<path class="Note" transform="matrix(1.67244,0,0,1.67244,3207.84,927.047)" d="M31.5,-8.1 C29.7,-11.4 25.9,-13.2 21.3,-13.2 C17.9,-13.2 14.2,-12.2 10.6,-10.3 C4,-6.8 0,-0.9 0,4.2 C0,5.6 0.3,7 1,8.3 C2.8,11.6 6.6,13.3 11.2,13.3 C14.6,13.3 18.3,12.4 21.9,10.5 C28.5,7 32.5,1.1 32.5,-4 C32.5,-5.4 32.2,-6.8 31.5,-8.1"/>
<path class="Note" transform="matrix(1.67244,0,0,1.67244,3326.57,927.047)" d="M31.5,-8.1 C29.7,-11.4 25.9,-13.2 21.3,-13.2 C17.9,-13.2 14.2,-12.2 10.6,-10.3 C4,-6.8 0,-0.9 0,4.2 C0,5.6 0.3,7 1,8.3 C2.8,11.6 6.6,13.3 11.2,13.3 C14.6,13.3 18.3,12.4 21.9,10.5 C28.5,7 32.5,1.1 32.5,-4 C32.5,-5.4 32.2,-6.8 31.5,-8.1"/>
<path class="Note" transform="matrix(1.67244,0,0,1.67244,3445.29,927.047)" d="M31.5,-8.1 C29.7,-11.4 25.9,-13.2 21.3,-13.2 C17.9,-13.2 14.2,-12.2 10.6,-10.3 C4,-6.8 0,-0.9 0,4.2 C0,5.6 0.3,7 1,8.3 C2.8,11.6 6.6,13.3 11.2,13.3 C14.6,13.3 18.3,12.4 21.9,10.5 C28.5,7 32.5,1.1 32.5,-4 C32.5,-5.4 32.2,-6.8 31.5,-8.1"/>
<path class="Note" transform="matrix(1.67244,0,0,1.67244,3655.17,927.047)" d="M31.5,-8.1 C29.7,-11.4 25.9,-13.2 21.3,-13.2 C17.9,-13.2 14.2,-12.2 10.6,-10.3 C4,-6.8 0,-0.9 0,4.2 C0,5.6 0.3,7 1,8.3 C2.8,11.6 6.6,13.3 11.2,13.3 C14.6,13.3 18.3,12.4 21.9,10.5 C28.5,7 32.5,1.1 32.5,-4 C32.5,-5.4 32.2,-6.8 31.5,-8.1"/>
<path class="Note" transform="matrix(1.67244,0,0,1.67244,3773.9,947.952)" d="M31.5,-8.1 C29.7,-11.4 25.9,-13.2 21.3,-13.2 C17.9,-13.2 14.2,-12.2 10.6,-10.3 C4,-6.8 0,-0.9 0,4.2 C0,5.6 0.3,7 1,8.3 C2.8,11.6 6.6,13.3 11.2,13.3 C14.6,13.3 18.3,12.4 21.9,10.5 C28.5,7 32.5,1.1 32.5,-4 C32.5,-5.4 32.2,-6.8 31.5,-8.1"/>
<path class="Note" transform="matrix(1.67244,0,0,1.67244,3892.62,968.858)" d="M31.5,-8.1 C29.7,-11.4 25.9,-13.2 21.3,-13.2 C17.9,-13.2 14.2,-12.2 10.6,-10.3 C4,-6.8 0,-0.9 0,4.2 C0,5.6 0.3,7 1,8.3 C2.8,11.6 6.6,13.3 11.2,13.3 C14.6,13.3 18.3,12.4 21.9,10.5 C28.5,7 32.5,1.1 32.5,-4 C32.5,-5.4 32.2,-6.8 31.5,-8.1"/>
<path class="Note" transform="matrix(1.67244,0,0,1.67244,4011.35,947.952)" d="M31.5,-8.1 C29.7,-11.4 25.9,-13.2 21.3,-13.2 C17.9,-13.2 14.2,-12.2 10.6,-10.3 C4,-6.8 0,-0.9 0,4.2 C0,5.6 0.3,7 1,8.3 C2.8,11.6 6.6,13.3 11.2,13.3 C14.6,13.3 18.3,12.4 21.9,10.5 C28.5,7 32.5,1.1 32.5,-4 C32.5,-5.4 32.2,-6.8 31.5,-8.1"/>
<path class="Note" transform="matrix(1.67244,0,0,1.67244,427.736,1532.36)" d="M31.5,-8.1 C29.7,-11.4 25.9,-13.2 21.3,-13.2 C17.9,-13.2 14.2,-12.2 10.6,-10.3 C4,-6.8 0,-0.9 0,4.2 C0,5.6 0.3,7 1,8.3 C2.8,11.6 6.6,13.3 11.2,13.3 C14.6,13.3 18.3,12.4 21.9,10.5 C28.5,7 32.5,1.1 32.5,-4 C32.5,-5.4 32.2,-6.8 31.5,-8.1"/>
<path class="Note" transform="matrix(1.67244,0,0,1.67244,551.876,1553.27)" d="M31.5,-8.1 C29.7,-11.4 25.9,-13.2 21.3,-13.2 C17.9,-13.2 14.2,-12.2 10.6,-10.3 C4,-6.8 0,-0.9 0,4.2 C0,5.6 0.3,7 1,8.3 C2.8,11.6 6.6,13.3 11.2,13.3 C14.6,13.3 18.3,12.4 21.9,10.5 C28.5,7 32.5,1.1 32.5,-4 C32.5,-5.4 32.2,-6.8 31.5,-8.1"/>
<path class="Note" transform="matrix(1.67244,0,0,1.67244,676.015,1574.17)" d="M31.5,-8.1 C29.7,-11.4 25.9,-13.2 21.3,-13.2 C17.9,-13.2 14.2,-12.2 10.6,-10.3 C4,-6.8 0,-0.9 0,4.2 C0,5.6 0.3,7 1,8.3 C2.8,11.6 6.6,13.3 11.2,13.3 C14.6,13.3 18.3,12.4 21.9,10.5 C28.5,7 32.5,1.1 32.5,-4 C32.5,-5.4 32.2,-6.8 31.5,-8.1"/>
<path class="Note" transform="matrix(1.67244,0,0,1.67244,800.155,1553.27)" d="M31.5,-8.1 C29.7,-11.4 25.9,-13.2 21.3,-13.2 C17.9,-13.2 14.2,-12.2 10.6,-10.3 C4,-6.8 0,-0.9 0,4.2 C0,5.6 0.3,7 1,8.3 C2.8,11.6 6.6,13.3 11.2,13.3 C14.6,13.3 18.3,12.4 21.9,10.5 C28.5,7 32.5,1.1 32.5,-4 C32.5,-5.4 32.2,-6.8 31.5,-8.1"/>
<path class="Note" transform="matrix(1.67244,0,0,1.67244,1015.44,1553.27)" d="M31.5,-8.1 C29.7,-11.4 25.9,-13.2 21.3,-13.2 C17.9,-13.2 14.2,-12.2 10.6,-10.3 C4,-6.8 0,-0.9 0,4.2 C0,5.6 0.3,7 1,8.3 C2.8,11.6 6.6,13.3 11.2,13.3 C14.6,13.3 18.3,12.4 21.9,10.5 C28.5,7 32.5,1.1 32.5,-4 C32.5,-5.4 32.2,-6.8 31.5,-8.1"/>
<path class="Note" transform="matrix(1.67244,0,0,1.67244,1129.17,1615.98)" d="M31.5,-8.1 C29.7,-11.4 25.9,-13.2 21.3,-13.2 C17.9,-13.2 14.2,-12.2 10.6,-10.3 C4,-6.8 0,-0.9 0,4.2 C0,5.6 0.3,7 1,8.3 C2.8,11.6 6.6,13.3 11.2,13.3 C14.6,13.3 18.3,12.4 21.9,10.5 C28.5,7 32.5,1.1 32.5,-4 C32.5,-5.4 32.2,-6.8 31.5,-8.1"/>
<path class="Note" transform="matrix(1.67244,0,0,1.67244,1537.06,1511.46)" d="M31.5,-8.1 C29.7,-11.4 25.9,-13.2 21.3,-13.2 C17.9,-13.2 14.2,-12.2 10.6,-10.3 C4,-6.8 0,-0.9 0,4.2 C0,5.6 0.3,7 1,8.3 C2.8,11.6 6.6,13.3 11.2,13.3 C14.6,13.3 18.3,12.4 21.9,10.5 C28.5,7 32.5,1.1 32.5,-4 C32.5,-5.4 32.2,-6.8 31.5,-8.1"/>
<path class="Note" transform="matrix(1.67244,0,0,1.67244,1661.2,1511.46)" d="M31.5,-8.1 C29.7,-11.4 25.9,-13.2 21.3,-13.2 C17.9,-13.2 14.2,-12.2 10.6,-10.3 C4,-6.8 0,-0.9 0,4.2 C0,5.6 0.3,7 1,8.3 C2.8,11.6 6.6,13.3 11.2,13.3 C14.6,13.3 18.3,12.4 21.9,10.5 C28.5,7 32.5,1.1 32.5,-4 C32.5,-5.4 32.2,-6.8 31.5,-8.1"/>
<path class="Note" transform="matrix(1.67244,0,0,1.67244,1785.34,1511.46)" d="M31.5,-8.1 C29.7,-11.4 25.9,-13.2 21.3,-13.2 C17.9,-13.2 14.2,-12.2 10.6,-10.3 C4,-6.8 0,-0.9 0,4.2 C0,5.6 0.3,7 1,8.3 C2.8,11.6 6.6,13.3 11.2,13.3 C14.6,13.3 18.3,12.4 21.9,10.5 C28.5,7 32.5,1.1 32.5,-4 C32.5,-5.4 32.2,-6.8 31.5,-8.1"/>
<path class="Note" transform="matrix(1.67244,0,0,1.67244,2000.63,1511.46)" d="M31.5,-8.1 C29.7,-11.4 25.9,-13.2 21.3,-13.2 C17.9,-13.2 14.2,-12.2 10.6,-10.3 C4,-6.8 0,-0.9 0,4.2 C0,5.6 0.3,7 1,8.3 C2.8,11.6 6.6,13.3 11.2,13.3 C14.6,13.3 18.3,12.4 21.9,10.5 C28.5,7 32.5,1.1 32.5,-4 C32.5,-5.4 32.2,-6.8 31.5,-8.1"/>
<path class="Note" transform="matrix(1.67244,0,0,1.67244,2124.77,1532.36)" d="M31.5,-8.1 C29.7,-11.4 25.9,-13.2 21.3,-13.2 C17.9,-13.2 14.2,-12.2 10.6,-10.3 C4,-6.8 0,-0.9 0,4.2 C0,5.6 0.3,7 1,8.3 C2.8,11.6 6.6,13.3 11.2,13.3 C14.6,13.3 18.3,12.4 21.9,10.5 C28.5,7 32.5,1.1 32.5,-4 C32.5,-5.4 32.2,-6.8 31.5,-8.1"/>
<path class="Note" transform="matrix(1.67244,0,0,1.67244,2248.91,1553.27)" d="M31.5,-8.1 C29.7,-11.4 25.9,-13.2 21.3,-13.2 C17.9,-13.2 14.2,-12.2 10.6,-10.3 C4,-6.8 0,-0.9 0,4.2 C0,5.6 0.3,7 1,8.3 C2.8,11.6 6.6,13.3 11.2,13.3 C14.6,13.3 18.3,12.4 21.9,10.5 C28.5,7 32.5,1.1 32.5,-4 C32.5,-5.4 32.2,-6.8 31.5,-8.1"/>
<path class="Note" transform="matrix(1.67244,0,0,1.67244,2373.05,1490.55)" d="M31.5,-8.1 C29.7,-11.4 25.9,-13.2 21.3,-13.2 C17.9,-13.2 14.2,-12.2 10.6,-10.3 C4,-6.8 0,-0.9 0,4.2 C0,5.6 0.3,7 1,8.3 C2.8,11.6 6.6,13.3 11.2,13.3 C14.6,13.3 18.3,12.4 21.9,10.5 C28.5,7 32.5,1.1 32.5,-4 C32.5,-5.4 32.2,-6.8 31.5,-8.1"/>
<path class="Note" transform="matrix(1.67244,0,0,1.67244,2602.97,1490.55)" d="M31.5,-8.1 C29.7,-11.4 25.9,-13.2 21.3,-13.2 C17.9,-13.2 14.2,-12.2 10.6,-10.3 C4,-6.8 0,-0.9 0,4.2 C0,5.6 0.3,7 1,8.3 C2.8,11.6 6.6,13.3 11.2,13.3 C14.6,13.3 18.3,12.4 21.9,10.5 C28.5,7 32.5,1.1 32.5,-4 C32.5,-5.4 32.2,-6.8 31.5,-8.1"/>
<path class="Note" transform="matrix(1.67244,0,0,1.67244,2731.13,1511.46)" d="M31.5,-8.1 C29.7,-11.4 25.9,-13.2 21.3,-13.2 C17.9,-13.2 14.2,-12.2 10.6,-10.3 C4,-6.8 0,-0.9 0,4.2 C0,5.6 0.3,7 1,8.3 C2.8,11.6 6.6,13.3 11.2,13.3 C14.6,13.3 18.3,12.4 21.9,10.5 C28.5,7 32.5,1.1 32.5,-4 C32.5,-5.4 32.2,-6.8 31.5,-8.1"/>
<path class="Note" transform="matrix(1.67244,0,0,1.67244,2859.3,1532.36)" d="M31.5,-8.1 C29.7,-11.4 25.9,-13.2 21.3,-13.2 C17.9,-13.2 14.2,-12.2 10.6,-10.3 C4,-6.8 0,-0.9 0,4.2 C0,5.6 0.3,7 1,8.3 C2.8,11.6 6.6,13.3 11.2,13.3 C14.6,13.3 18.3,12.4 21.9,10.5 C28.5,7 32.5,1.1 32.5,-4 C32.5,-5.4 32.2,-6.8 31.5,-8.1"/>
<path class="Note" transform="matrix(1.67244,0,0,1.67244,2987.46,1511.46)" d="M31.5,-8.1 C29.7,-11.4 25.9,-13.2 21.3,-13.2 C17.9,-13.2 14.2,-12.2 10.6,-10.3 C4,-6.8 0,-0.9 0,4.2 C0,5.6 0.3,7 1,8.3 C2.8,11.6 6.6,13.3 11.2,13.3 C14.6,13.3 18.3,12.4 21.9,10.5 C28.5,7 32.5,1.1 32.5,-4 C32.5,-5.4 32.2,-6.8 31.5,-8.1"/>
<path class="Note" transform="matrix(1.67244,0,0,1.67244,3206.77,1511.46)" d="M31.5,-8.1 C29.7,-11.4 25.9,-13.2 21.3,-13.2 C17.9,-13.2 14.2,-12.2 10.6,-10.3 C4,-6.8 0,-0.9 0,4.2 C0,5.6 0.3,7 1,8.3 C2.8,11.6 6.6,13.3 11.2,13.3 C14.6,13.3 18.3,12.4 21.9,10.5 C28.5,7 32.5,1.1 32.5,-4 C32.5,-5.4 32.2,-6.8 31.5,-8.1"/>
<path class="Note" transform="matrix(1.67244,0,0,1.67244,3320.5,1553.27)" d="M31.5,-8.1 C29.7,-11.4 25.9,-13.2 21.3,-13.2 C17.9,-13.2 14.2,-12.2 10.6,-10.3 C4,-6.8 0,-0.9 0,4.2 C0,5.6 0.3,7 1,8.3 C2.8,11.6 6.6,13.3 11.2,13.3 C14.6,13.3 18.3,12.4 21.9,10.5 C28.5,7 32.5,1.1 32.5,-4 C32.5,-5.4 32.2,-6.8 31.5,-8.1"/>
<path class="Note" transform="matrix(1.67244,0,0,1.67244,3633.52,1615.98)" d="M31.5,-8.1 C29.7,-11.4 25.9,-13.2 21.3,-13.2 C17.9,-13.2 14.2,-12.2 10.6,-10.3 C4,-6.8 0,-0.9 0,4.2 C0,5.6 0.3,7 1,8.3 C2.8,11.6 6.6,13.3 11.2,13.3 C14.6,13.3 18.3,12.4 21.9,10.5 C28.5,7 32.5,1.1 32.5,-4 C32.5,-5.4 32.2,-6.8 31.5,-8.1"/>
<path class="Note" transform="matrix(1.67244,0,0,1.67244,3757.66,1615.98)" d="M31.5,-8.1 C29.7,-11.4 25.9,-13.2 21.3,-13.2 C17.9,-13.2 14.2,-12.2 10.6,-10.3 C4,-6.8 0,-0.9 0,4.2 C0,5.6 0.3,7 1,8.3 C2.8,11.6 6.6,13.3 11.2,13.3 C14.6,13.3 18.3,12.4 21.9,10.5 C28.5,7 32.5,1.1 32.5,-4 C32.5,-5.4 32.2,-6.8 31.5,-8.1"/>
<path class="Note" transform="matrix(1.67244,0,0,1.67244,3881.8,1553.27)" d="M31.5,-8.1 C29.7,-11.4 25.9,-13.2 21.3,-13.2 C17.9,-13.2 14.2,-12.2 10.6,-10.3 C4,-6.8 0,-0.9 0,4.2 C0,5.6 0.3,7 1,8.3 C2.8,11.6 6.6,13.3 11.2,13.3 C14.6,13.3 18.3,12.4 21.9,10.5 C28.5,7 32.5,1.1 32.5,-4 C32.5,-5.4 32.2,-6.8 31.5,-8.1"/>
<path class="Note" transform="matrix(1.67244,0,0,1.67244,4005.94,1574.17)" d="M31.5,-8.1 C29.7,-11.4 25.9,-13.2 21.3,-13.2 C17.9,-13.2 14.2,-12.2 10.6,-10.3 C4,-6.8 0,-0.9 0,4.2 C0,5.6 0.3,7 1,8.3 C2.8,11.6 6.6,13.3 11.2,13.3 C14.6,13.3 18.3,12.4 21.9,10.5 C28.5,7 32.5,1.1 32.5,-4 C32.5,-5.4 32.2,-6.8 31.5,-8.1"/>
<path class="Note" transform="matrix(1.67244,0,0,1.67244,427.736,2158.58)" d="M31.5,-8.1 C29.7,-11.4 25.9,-13.2 21.3,-13.2 C17.9,-13.2 14.2,-12.2 10.6,-10.3 C4,-6.8 0,-0.9 0,4.2 C0,5.6 0.3,7 1,8.3 C2.8,11.6 6.6,13.3 11.2,13.3 C14.6,13.3 18.3,12.4 21.9,10.5 C28.5,7 32.5,1.1 32.5,-4 C32.5,-5.4 32.2,-6.8 31.5,-8.1"/>
<path class="Note" transform="matrix(1.67244,0,0,1.67244,556.047,2179.49)" d="M31.5,-8.1 C29.7,-11.4 25.9,-13.2 21.3,-13.2 C17.9,-13.2 14.2,-12.2 10.6,-10.3 C4,-6.8 0,-0.9 0,4.2 C0,5.6 0.3,7 1,8.3 C2.8,11.6 6.6,13.3 11.2,13.3 C14.6,13.3 18.3,12.4 21.9,10.5 C28.5,7 32.5,1.1 32.5,-4 C32.5,-5.4 32.2,-6.8 31.5,-8.1"/>
<path class="Note" transform="matrix(1.67244,0,0,1.67244,684.358,2179.49)" d="M31.5,-8.1 C29.7,-11.4 25.9,-13.2 21.3,-13.2 C17.9,-13.2 14.2,-12.2 10.6,-10.3 C4,-6.8 0,-0.9 0,4.2 C0,5.6 0.3,7 1,8.3 C2.8,11.6 6.6,13.3 11.2,13.3 C14.6,13.3 18.3,12.4 21.9,10.5 C28.5,7 32.5,1.1 32.5,-4 C32.5,-5.4 32.2,-6.8 31.5,-8.1"/>
<path class="Note" transform="matrix(1.67244,0,0,1.67244,812.669,2200.39)" d="M31.5,-8.1 C29.7,-11.4 25.9,-13.2 21.3,-13.2 C17.9,-13.2 14.2,-12.2 10.6,-10.3 C4,-6.8 0,-0.9 0,4.2 C0,5.6 0.3,7 1,8.3 C2.8,11.6 6.6,13.3 11.2,13.3 C14.6,13.3 18.3,12.4 21.9,10.5 C28.5,7 32.5,1.1 32.5,-4 C32.5,-5.4 32.2,-6.8 31.5,-8.1"/>
<path class="Note" transform="matrix(1.67244,0,0,1.67244,1032.13,2200.39)" d="M31.5,-8.1 C29.7,-11.4 25.9,-13.2 21.3,-13.2 C17.9,-13.2 14.2,-12.2 10.6,-10.3 C4,-6.8 0,-0.9 0,4.2 C0,5.6 0.3,7 1,8.3 C2.8,11.6 6.6,13.3 11.2,13.3 C14.6,13.3 18.3,12.4 21.9,10.5 C28.5,7 32.5,1.1 32.5,-4 C32.5,-5.4 32.2,-6.8 31.5,-8.1"/>
<path class="Note" transform="matrix(1.67244,0,0,1.67244,1160.44,2221.3)" d="M31.5,-8.1 C29.7,-11.4 25.9,-13.2 21.3,-13.2 C17.9,-13.2 14.2,-12.2 10.6,-10.3 C4,-6.8 0,-0.9 0,4.2 C0,5.6 0.3,7 1,8.3 C2.8,11.6 6.6,13.3 11.2,13.3 C14.6,13.3 18.3,12.4 21.9,10.5 C28.5,7 32.5,1.1 32.5,-4 C32.5,-5.4 32.2,-6.8 31.5,-8.1"/>
<path class="Note" transform="matrix(1.67244,0,0,1.67244,1288.75,2158.58)" d="M31.5,-8.1 C29.7,-11.4 25.9,-13.2 21.3,-13.2 C17.9,-13.2 14.2,-12.2 10.6,-10.3 C4,-6.8 0,-0.9 0,4.2 C0,5.6 0.3,7 1,8.3 C2.8,11.6 6.6,13.3 11.2,13.3 C14.6,13.3 18.3,12.4 21.9,10.5 C28.5,7 32.5,1.1 32.5,-4 C32.5,-5.4 32.2,-6.8 31.5,-8.1"/>
<path class="Note" transform="matrix(1.67244,0,0,1.67244,1417.06,2200.39)" d="M31.5,-8.1 C29.7,-11.4 25.9,-13.2 21.3,-13.2 C17.9,-13.2 14.2,-12.2 10.6,-10.3 C4,-6.8 0,-0.9 0,4.2 C0,5.6 0.3,7 1,8.3 C2.8,11.6 6.6,13.3 11.2,13.3 C14.6,13.3 18.3,12.4 21.9,10.5 C28.5,7 32.5,1.1 32.5,-4 C32.5,-5.4 32.2,-6.8 31.5,-8.1"/>
<path class="Note" transform="matrix(1.67244,0,0,1.67244,1636.52,2200.39)" d="M31.5,-8.1 C29.7,-11.4 25.9,-13.2 21.3,-13.2 C17.9,-13.2 14.2,-12.2 10.6,-10.3 C4,-6.8 0,-0.9 0,4.2 C0,5.6 0.3,7 1,8.3 C2.8,11.6 6.6,13.3 11.2,13.3 C14.6,13.3 18.3,12.4 21.9,10.5 C28.5,7 32.5,1.1 32.5,-4 C32.5,-5.4 32.2,-6.8 31.5,-8.1"/>
<path class="Note" transform="matrix(1.67244,0,0,1.67244,2118.71,2200.39)" d="M31.5,-8.1 C29.7,-11.4 25.9,-13.2 21.3,-13.2 C17.9,-13.2 14.2,-12.2 10.6,-10.3 C4,-6.8 0,-0.9 0,4.2 C0,5.6 0.3,7 1,8.3 C2.8,11.6 6.6,13.3 11.2,13.3 C14.6,13.3 18.3,12.4 21.9,10.5 C28.5,7 32.5,1.1 32.5,-4 C32.5,-5.4 32.2,-6.8 31.5,-8.1"/>
<path class="Note" transform="matrix(1.67244,0,0,1.67244,2260.32,2137.68)" d="M31.5,-8.1 C29.7,-11.4 25.9,-13.2 21.3,-13.2 C17.9,-13.2 14.2,-12.2 10.6,-10.3 C4,-6.8 0,-0.9 0,4.2 C0,5.6 0.3,7 1,8.3 C2.8,11.6 6.6,13.3 11.2,13.3 C14.6,13.3 18.3,12.4 21.9,10.5 C28.5,7 32.5,1.1 32.5,-4 C32.5,-5.4 32.2,-6.8 31.5,-8.1"/>
<path class="Note" transform="matrix(1.67244,0,0,1.67244,2401.92,2158.58)" d="M31.5,-8.1 C29.7,-11.4 25.9,-13.2 21.3,-13.2 C17.9,-13.2 14.2,-12.2 10.6,-10.3 C4,-6.8 0,-0.9 0,4.2 C0,5.6 0.3,7 1,8.3 C2.8,11.6 6.6,13.3 11.2,13.3 C14.6,13.3 18.3,12.4 21.9,10.5 C28.5,7 32.5,1.1 32.5,-4 C32.5,-5.4 32.2,-6.8 31.5,-8.1"/>
<path class="Note" transform="matrix(1.67244,0,0,1.67244,2634.67,2158.58)" d="M31.5,-8.1 C29.7,-11.4 25.9,-13.2 21.3,-13.2 C17.9,-13.2 14.2,-12.2 10.6,-10.3 C4,-6.8 0,-0.9 0,4.2 C0,5.6 0.3,7 1,8.3 C2.8,11.6 6.6,13.3 11.2,13.3 C14.6,13.3 18.3,12.4 21.9,10.5 C28.5,7 32.5,1.1 32.5,-4 C32.5,-5.4 32.2,-6.8 31.5,-8.1"/>
<path class="Note" transform="matrix(1.67244,0,0,1.67244,2762.98,2179.49)" d="M31.5,-8.1 C29.7,-11.4 25.9,-13.2 21.3,-13.2 C17.9,-13.2 14.2,-12.2 10.6,-10.3 C4,-6.8 0,-0.9 0,4.2 C0,5.6 0.3,7 1,8.3 C2.8,11.6 6.6,13.3 11.2,13.3 C14.6,13.3 18.3,12.4 21.9,10.5 C28.5,7 32.5,1.1 32.5,-4 C32.5,-5.4 32.2,-6.8 31.5,-8.1"/>
<path class="Note" transform="matrix(1.67244,0,0,1.67244,2891.29,2179.49)" d="M31.5,-8.1 C29.7,-11.4 25.9,-13.2 21.3,-13.2 C17.9,-13.2 14.2,-12.2 10.6,-10.3 C4,-6.8 0,-0.9 0,4.2 C0,5.6 0.3,7 1,8.3 C2.8,11.6 6.6,13.3 11.2,13.3 C14.6,13.3 18.3,12.4 21.9,10.5 C28.5,7 32.5,1.1 32.5,-4 C32.5,-5.4 32.2,-6.8 31.5,-8.1"/>
<path class="Note" transform="matrix(1.67244,0,0,1.67244,3019.6,2200.39)" d="M31.5,-8.1 C29.7,-11.4 25.9,-13.2 21.3,-13.2 C17.9,-13.2 14.2,-12.2 10.6,-10.3 C4,-6.8 0,-0.9 0,4.2 C0,5.6 0.3,7 1,8.3 C2.8,11.6 6.6,13.3 11.2,13.3 C14.6,13.3 18.3,12.4 21.9,10.5 C28.5,7 32.5,1.1 32.5,-4 C32.5,-5.4 32.2,-6.8 31.5,-8.1"/>
<path class="Note" transform="matrix(1.67244,0,0,1.67244,3239.06,2200.39)" d="M31.5,-8.1 C29.7,-11.4 25.9,-13.2 21.3,-13.2 C17.9,-13.2 14.2,-12.2 10.6,-10.3 C4,-6.8 0,-0.9 0,4.2 C0,5.6 0.3,7 1,8.3 C2.8,11.6 6.6,13.3 11.2,13.3 C14.6,13.3 18.3,12.4 21.9,10.5 C28.5,7 32.5,1.1 32.5,-4 C32.5,-5.4 32.2,-6.8 31.5,-8.1"/>
<path class="Note" transform="matrix(1.67244,0,0,1.67244,3353.52,2221.3)" d="M31.5,-8.1 C29.7,-11.4 25.9,-13.2 21.3,-13.2 C17.9,-13.2 14.2,-12.2 10.6,-10.3 C4,-6.8 0,-0.9 0,4.2 C0,5.6 0.3,7 1,8.3 C2.8,11.6 6.6,13.3 11.2,13.3 C14.6,13.3 18.3,12.4 21.9,10.5 C28.5,7 32.5,1.1 32.5,-4 C32.5,-5.4 32.2,-6.8 31.5,-8.1"/>
<path class="Note" transform="matrix(1.67244,0,0,1.67244,3467.99,2158.58)" d="M31.5,-8.1 C29.7,-11.4 25.9,-13.2 21.3,-13.2 C17.9,-13.2 14.2,-12.2 10.6,-10.3 C4,-6.8 0,-0.9 0,4.2 C0,5.6 0.3,7 1,8.3 C2.8,11.6 6.6,13.3 11.2,13.3 C14.6,13.3 18.3,12.4 21.9,10.5 C28.5,7 32.5,1.1 32.5,-4 C32.5,-5.4 32.2,-6.8 31.5,-8.1"/>
<path class="Note" transform="matrix(1.67244,0,0,1.67244,3742.28,2200.39)" d="M31.5,-8.1 C29.7,-11.4 25.9,-13.2 21.3,-13.2 C17.9,-13.2 14.2,-12.2 10.6,-10.3 C4,-6.8 0,-0.9 0,4.2 C0,5.6 0.3,7 1,8.3 C2.8,11.6 6.6,13.3 11.2,13.3 C14.6,13.3 18.3,12.4 21.9,10.5 C28.5,7 32.5,1.1 32.5,-4 C32.5,-5.4 32.2,-6.8 31.5,-8.1"/>
<path class="Clef" transform="matrix(1.67244,0,0,1.67244,104.315,488.976)" d="M63.35,-5.86992 C62.12,-11.3 59.48,-15.1199 58.7,-16.16 C55.51,-20.43 51.5,-23.28 46.81,-24.63 C43.7,-25.5199 40.7,-25.63 38.28,-25.45 C37.24,-31.46 36.24,-37.3399 35.33,-42.7899 C40.78,-48.96 44.4,-54.76 46.68,-59.06 C50.15,-65.6399 51.3,-70.2199 51.35,-70.4199 C53.07,-75.63 53.43,-83.33 52.33,-91.5399 C51.32,-99.0899 49.23,-105.8 46.88,-109.05 C45.85,-110.48 44.8,-111.21 43.76,-111.21 C42.54,-111.21 40.03,-109.97 37.14,-107.2 C34.84,-105 31.57,-101.11 29.01,-95.1 C26.01,-88.0399 25.8,-78.55 26.15,-71.83 C26.53,-64.56 27.64,-58.8699 27.65,-58.8199 C27.67,-58.73 27.93,-57.23 28.38,-54.66 C28.15,-54.43 27.91,-54.21 27.66,-53.9699 C26.62,-52.9699 25.43,-51.83 24.05,-50.45 C23.19,-49.5899 22.24,-48.68 21.24,-47.71 C12.79,-39.5699 0,-27.25 0,-8.1 C0,-3.4 0.9,1.02002 2.67998,5.03008 C4.27002,8.63008 6.57002,11.9101 9.5,14.7801 C17.23,22.3301 27.82,25.54 34.88,25.3801 C37.83,25.3101 40.46,25.07 42.85,24.62 C44.68,34.22 45.82,41.25 45.86,46.59 C45.9,53.1 44.25,57.07 40.35,59.84 C37.92,61.57 35.11,62.52 32.01,62.67 C29.42,62.79 27.16,62.32 25.73,61.9101 L25.72,61.9101 C25.72,61.9101 25.43,61.8301 25.42,61.6301 C25.41,61.45 25.76,61.4 25.77,61.4 L25.79,61.4 C27.71,60.9601 31.28,59.7301 33.64,56.4301 C35.44,53.9101 36.31,49.29 34.47,45.35 C33.36,42.9601 30.85,40.0101 25.23,39.5601 C22.74,39.3601 20.47,39.87 18.47,41.07 C16.66,42.15 15.16,43.79 14.11,45.79 C11.65,50.49 12.11,56.22 15.24,60.0601 C18.2,63.6801 22.82,65.99 28.25,66.57 C29.1,66.6601 29.95,66.7 30.8,66.7 C35.23,66.7 39.63,65.5 43.2,63.29 C46.86,60.72 48.98,56.74 49.66,51.1101 C50.22,46.47 49.83,40.5601 48.43,32.49 C48.07,30.4 47.53,27.37 46.87,23.6101 C52.62,21.69 56.78,18.12 60.55,12.27 C63.84,6.53008 64.78,0.430078 63.35,-5.86992 M29.14,20.32 C24.5,19.1 20.07,16.6 16.31,13.1 C15,11.87 13.13,9.7 11.66,6.31006 C10.29,3.15 9.62998,-0.27998 9.67998,-3.86992 C9.75,-8.55996 11.06,-13.38 13.57,-18.1699 C16.49,-23.75 21.05,-29.28 27.11,-34.61 C28.56,-35.8899 29.93,-37.1699 31.22,-38.45 C31.98,-34.1899 32.81,-29.5 33.69,-24.6199 C29.84,-23.35 25.09,-20.2 21.98,-14.55 C18.44,-7.97998 18.58,-2.45996 19.31,1.02002 C20.25,5.48008 22.78,9.24004 26.24,11.3301 C27.17,11.89 31.3,14.02 33.14,13.44 C33.51,13.32 33.78,13.1 33.92,12.77 C34.43,11.6 33.41,10.9601 31.85,10 C31.25,9.63008 30.58,9.21006 29.85,8.68008 C26.53,6.19004 25.08,1.74004 26.15,-2.63994 C26.73,-5.03994 28.01,-7.2 29.85,-8.9 C31.52,-10.45 33.56,-11.55 35.94,-12.1899 C37.98,-0.95 40.04,10.2 41.68,18.5601 C41.81,19.25 41.95,19.92 42.08,20.59 C37.7,21.52 33.35,21.4301 29.14,20.32 M40.46,-12.86 C50.81,-13.33 55.08,-5.88994 55.97,-1.05996 C56.44,1.47002 56.43,5.91006 54.89,10.12 C53.72,13.3 51.26,17.37 46.13,19.4301 C46.06,19.0101 45.98,18.5801 45.9,18.15 C44.36,9.38008 42.42,-1.60996 40.46,-12.86 M33.14,-83.8 C34.92,-89.5399 37.66,-92.7899 39.65,-94.5199 C41.4,-96.0399 43.05,-96.75 43.97,-96.75 C44.11,-96.75 44.23,-96.73 44.33,-96.7 C44.79,-96.56 45.32,-95.9899 45.79,-95.1199 C48.1,-90.83 47.36,-84.1199 46.02,-79.68 C44.39,-74.28 41.47,-68.66 32.67,-59.05 C32.5,-60.16 32.34,-61.21 32.19,-62.1899 C30.94,-70.48 31.26,-77.75 33.14,-83.8"/>
<path class="Clef" transform="matrix(1.67244,0,0,1.67244,104.315,1073.39)" d="M63.35,-5.86992 C62.12,-11.3 59.48,-15.1199 58.7,-16.16 C55.51,-20.43 51.5,-23.28 46.81,-24.63 C43.7,-25.5199 40.7,-25.63 38.28,-25.45 C37.24,-31.46 36.24,-37.3399 35.33,-42.7899 C40.78,-48.96 44.4,-54.76 46.68,-59.06 C50.15,-65.6399 51.3,-70.2199 51.35,-70.4199 C53.07,-75.63 53.43,-83.33 52.33,-91.5399 C51.32,-99.0899 49.23,-105.8 46.88,-109.05 C45.85,-110.48 44.8,-111.21 43.76,-111.21 C42.54,-111.21 40.03,-109.97 37.14,-107.2 C34.84,-105 31.57,-101.11 29.01,-95.1 C26.01,-88.0399 25.8,-78.55 26.15,-71.83 C26.53,-64.56 27.64,-58.8699 27.65,-58.8199 C27.67,-58.73 27.93,-57.23 28.38,-54.66 C28.15,-54.43 27.91,-54.21 27.66,-53.9699 C26.62,-52.9699 25.43,-51.83 24.05,-50.45 C23.19,-49.5899 22.24,-48.68 21.24,-47.71 C12.79,-39.5699 0,-27.25 0,-8.1 C0,-3.4 0.9,1.02002 2.67998,5.03008 C4.27002,8.63008 6.57002,11.9101 9.5,14.7801 C17.23,22.3301 27.82,25.54 34.88,25.3801 C37.83,25.3101 40.46,25.07 42.85,24.62 C44.68,34.22 45.82,41.25 45.86,46.59 C45.9,53.1 44.25,57.07 40.35,59.84 C37.92,61.57 35.11,62.52 32.01,62.67 C29.42,62.79 27.16,62.32 25.73,61.9101 L25.72,61.9101 C25.72,61.9101 25.43,61.8301 25.42,61.6301 C25.41,61.45 25.76,61.4 25.77,61.4 L25.79,61.4 C27.71,60.9601 31.28,59.7301 33.64,56.4301 C35.44,53.9101 36.31,49.29 34.47,45.35 C33.36,42.9601 30.85,40.0101 25.23,39.5601 C22.74,39.3601 20.47,39.87 18.47,41.07 C16.66,42.15 15.16,43.79 14.11,45.79 C11.65,50.49 12.11,56.22 15.24,60.0601 C18.2,63.6801 22.82,65.99 28.25,66.57 C29.1,66.6601 29.95,66.7 30.8,66.7 C35.23,66.7 39.63,65.5 43.2,63.29 C46.86,60.72 48.98,56.74 49.66,51.1101 C50.22,46.47 49.83,40.5601 48.43,32.49 C48.07,30.4 47.53,27.37 46.87,23.6101 C52.62,21.69 56.78,18.12 60.55,12.27 C63.84,6.53008 64.78,0.430078 63.35,-5.86992 M29.14,20.32 C24.5,19.1 20.07,16.6 16.31,13.1 C15,11.87 13.13,9.7 11.66,6.31006 C10.29,3.15 9.62998,-0.27998 9.67998,-3.86992 C9.75,-8.55996 11.06,-13.38 13.57,-18.1699 C16.49,-23.75 21.05,-29.28 27.11,-34.61 C28.56,-35.8899 29.93,-37.1699 31.22,-38.45 C31.98,-34.1899 32.81,-29.5 33.69,-24.6199 C29.84,-23.35 25.09,-20.2 21.98,-14.55 C18.44,-7.97998 18.58,-2.45996 19.31,1.02002 C20.25,5.48008 22.78,9.24004 26.24,11.3301 C27.17,11.89 31.3,14.02 33.14,13.44 C33.51,13.32 33.78,13.1 33.92,12.77 C34.43,11.6 33.41,10.9601 31.85,10 C31.25,9.63008 30.58,9.21006 29.85,8.68008 C26.53,6.19004 25.08,1.74004 26.15,-2.63994 C26.73,-5.03994 28.01,-7.2 29.85,-8.9 C31.52,-10.45 33.56,-11.55 35.94,-12.1899 C37.98,-0.95 40.04,10.2 41.68,18.5601 C41.81,19.25 41.95,19.92 42.08,20.59 C37.7,21.52 33.35,21.4301 29.14,20.32 M40.46,-12.86 C50.81,-13.33 55.08,-5.88994 55.97,-1.05996 C56.44,1.47002 56.43,5.91006 54.89,10.12 C53.72,13.3 51.26,17.37 46.13,19.4301 C46.06,19.0101 45.98,18.5801 45.9,18.15 C44.36,9.38008 42.42,-1.60996 40.46,-12.86 M33.14,-83.8 C34.92,-89.5399 37.66,-92.7899 39.65,-94.5199 C41.4,-96.0399 43.05,-96.75 43.97,-96.75 C44.11,-96.75 44.23,-96.73 44.33,-96.7 C44.79,-96.56 45.32,-95.9899 45.79,-95.1199 C48.1,-90.83 47.36,-84.1199 46.02,-79.68 C44.39,-74.28 41.47,-68.66 32.67,-59.05 C32.5,-60.16 32.34,-61.21 32.19,-62.1899 C30.94,-70.48 31.26,-77.75 33.14,-83.8"/>
<path class="Clef" transform="matrix(1.67244,0,0,1.67244,104.315,1657.79)" d="M63.35,-5.86992 C62.12,-11.3 59.48,-15.1199 58.7,-16.16 C55.51,-20.43 51.5,-23.28 46.81,-24.63 C43.7,-25.5199 40.7,-25.63 38.28,-25.45 C37.24,-31.46 36.24,-37.3399 35.33,-42.7899 C40.78,-48.96 44.4,-54.76 46.68,-59.06 C50.15,-65.6399 51.3,-70.2199 51.35,-70.4199 C53.07,-75.63 53.43,-83.33 52.33,-91.5399 C51.32,-99.0899 49.23,-105.8 46.88,-109.05 C45.85,-110.48 44.8,-111.21 43.76,-111.21 C42.54,-111.21 40.03,-109.97 37.14,-107.2 C34.84,-105 31.57,-101.11 29.01,-95.1 C26.01,-88.0399 25.8,-78.55 26.15,-71.83 C26.53,-64.56 27.64,-58.8699 27.65,-58.8199 C27.67,-58.73 27.93,-57.23 28.38,-54.66 C28.15,-54.43 27.91,-54.21 27.66,-53.9699 C26.62,-52.9699 25.43,-51.83 24.05,-50.45 C23.19,-49.5899 22.24,-48.68 21.24,-47.71 C12.79,-39.5699 0,-27.25 0,-8.1 C0,-3.4 0.9,1.02002 2.67998,5.03008 C4.27002,8.63008 6.57002,11.9101 9.5,14.7801 C17.23,22.3301 27.82,25.54 34.88,25.3801 C37.83,25.3101 40.46,25.07 42.85,24.62 C44.68,34.22 45.82,41.25 45.86,46.59 C45.9,53.1 44.25,57.07 40.35,59.84 C37.92,61.57 35.11,62.52 32.01,62.67 C29.42,62.79 27.16,62.32 25.73,61.9101 L25.72,61.9101 C25.72,61.9101 25.43,61.8301 25.42,61.6301 C25.41,61.45 25.76,61.4 25.77,61.4 L25.79,61.4 C27.71,60.9601 31.28,59.7301 33.64,56.4301 C35.44,53.9101 36.31,49.29 34.47,45.35 C33.36,42.9601 30.85,40.0101 25.23,39.5601 C22.74,39.3601 20.47,39.87 18.47,41.07 C16.66,42.15 15.16,43.79 14.11,45.79 C11.65,50.49 12.11,56.22 15.24,60.0601 C18.2,63.6801 22.82,65.99 28.25,66.57 C29.1,66.6601 29.95,66.7 30.8,66.7 C35.23,66.7 39.63,65.5 43.2,63.29 C46.86,60.72 48.98,56.74 49.66,51.1101 C50.22,46.47 49.83,40.5601 48.43,32.49 C48.07,30.4 47.53,27.37 46.87,23.6101 C52.62,21.69 56.78,18.12 60.55,12.27 C63.84,6.53008 64.78,0.430078 63.35,-5.86992 M29.14,20.32 C24.5,19.1 20.07,16.6 16.31,13.1 C15,11.87 13.13,9.7 11.66,6.31006 C10.29,3.15 9.62998,-0.27998 9.67998,-3.86992 C9.75,-8.55996 11.06,-13.38 13.57,-18.1699 C16.49,-23.75 21.05,-29.28 27.11,-34.61 C28.56,-35.8899 29.93,-37.1699 31.22,-38.45 C31.98,-34.1899 32.81,-29.5 33.69,-24.6199 C29.84,-23.35 25.09,-20.2 21.98,-14.55 C18.44,-7.97998 18.58,-2.45996 19.31,1.02002 C20.25,5.48008 22.78,9.24004 26.24,11.3301 C27.17,11.89 31.3,14.02 33.14,13.44 C33.51,13.32 33.78,13.1 33.92,12.77 C34.43,11.6 33.41,10.9601 31.85,10 C31.25,9.63008 30.58,9.21006 29.85,8.68008 C26.53,6.19004 25.08,1.74004 26.15,-2.63994 C26.73,-5.03994 28.01,-7.2 29.85,-8.9 C31.52,-10.45 33.56,-11.55 35.94,-12.1899 C37.98,-0.95 40.04,10.2 41.68,18.5601 C41.81,19.25 41.95,19.92 42.08,20.59 C37.7,21.52 33.35,21.4301 29.14,20.32 M40.46,-12.86 C50.81,-13.33 55.08,-5.88994 55.97,-1.05996 C56.44,1.47002 56.43,5.91006 54.89,10.12 C53.72,13.3 51.26,17.37 46.13,19.4301 C46.06,19.0101 45.98,18.5801 45.9,18.15 C44.36,9.38008 42.42,-1.60996 40.46,-12.86 M33.14,-83.8 C34.92,-89.5399 37.66,-92.7899 39.65,-94.5199 C41.4,-96.0399 43.05,-96.75 43.97,-96.75 C44.11,-96.75 44.23,-96.73 44.33,-96.7 C44.79,-96.56 45.32,-95.9899 45.79,-95.1199 C48.1,-90.83 47.36,-84.1199 46.02,-79.68 C44.39,-74.28 41.47,-68.66 32.67,-59.05 C32.5,-60.16 32.34,-61.21 32.19,-62.1899 C30.94,-70.48 31.26,-77.75 33.14,-83.8"/>
<path class="Clef" transform="matrix(1.67244,0,0,1.67244,104.315,2242.2)" d="M63.35,-5.86992 C62.12,-11.3 59.48,-15.1199 58.7,-16.16 C55.51,-20.43 51.5,-23.28 46.81,-24.63 C43.7,-25.5199 40.7,-25.63 38.28,-25.45 C37.24,-31.46 36.24,-37.3399 35.33,-42.7899 C40.78,-48.96 44.4,-54.76 46.68,-59.06 C50.15,-65.6399 51.3,-70.2199 51.35,-70.4199 C53.07,-75.63 53.43,-83.33 52.33,-91.5399 C51.32,-99.0899 49.23,-105.8 46.88,-109.05 C45.85,-110.48 44.8,-111.21 43.76,-111.21 C42.54,-111.21 40.03,-109.97 37.14,-107.2 C34.84,-105 31.57,-101.11 29.01,-95.1 C26.01,-88.0399 25.8,-78.55 26.15,-71.83 C26.53,-64.56 27.64,-58.8699 27.65,-58.8199 C27.67,-58.73 27.93,-57.23 28.38,-54.66 C28.15,-54.43 27.91,-54.21 27.66,-53.9699 C26.62,-52.9699 25.43,-51.83 24.05,-50.45 C23.19,-49.5899 22.24,-48.68 21.24,-47.71 C12.79,-39.5699 0,-27.25 0,-8.1 C0,-3.4 0.9,1.02002 2.67998,5.03008 C4.27002,8.63008 6.57002,11.9101 9.5,14.7801 C17.23,22.3301 27.82,25.54 34.88,25.3801 C37.83,25.3101 40.46,25.07 42.85,24.62 C44.68,34.22 45.82,41.25 45.86,46.59 C45.9,53.1 44.25,57.07 40.35,59.84 C37.92,61.57 35.11,62.52 32.01,62.67 C29.42,62.79 27.16,62.32 25.73,61.9101 L25.72,61.9101 C25.72,61.9101 25.43,61.8301 25.42,61.6301 C25.41,61.45 25.76,61.4 25.77,61.4 L25.79,61.4 C27.71,60.9601 31.28,59.7301 33.64,56.4301 C35.44,53.9101 36.31,49.29 34.47,45.35 C33.36,42.9601 30.85,40.0101 25.23,39.5601 C22.74,39.3601 20.47,39.87 18.47,41.07 C16.66,42.15 15.16,43.79 14.11,45.79 C11.65,50.49 12.11,56.22 15.24,60.0601 C18.2,63.6801 22.82,65.99 28.25,66.57 C29.1,66.6601 29.95,66.7 30.8,66.7 C35.23,66.7 39.63,65.5 43.2,63.29 C46.86,60.72 48.98,56.74 49.66,51.1101 C50.22,46.47 49.83,40.5601 48.43,32.49 C48.07,30.4 47.53,27.37 46.87,23.6101 C52.62,21.69 56.78,18.12 60.55,12.27 C63.84,6.53008 64.78,0.430078 63.35,-5.86992 M29.14,20.32 C24.5,19.1 20.07,16.6 16.31,13.1 C15,11.87 13.13,9.7 11.66,6.31006 C10.29,3.15 9.62998,-0.27998 9.67998,-3.86992 C9.75,-8.55996 11.06,-13.38 13.57,-18.1699 C16.49,-23.75 21.05,-29.28 27.11,-34.61 C28.56,-35.8899 29.93,-37.1699 31.22,-38.45 C31.98,-34.1899 32.81,-29.5 33.69,-24.6199 C29.84,-23.35 25.09,-20.2 21.98,-14.55 C18.44,-7.97998 18.58,-2.45996 19.31,1.02002 C20.25,5.48008 22.78,9.24004 26.24,11.3301 C27.17,11.89 31.3,14.02 33.14,13.44 C33.51,13.32 33.78,13.1 33.92,12.77 C34.43,11.6 33.41,10.9601 31.85,10 C31.25,9.63008 30.58,9.21006 29.85,8.68008 C26.53,6.19004 25.08,1.74004 26.15,-2.63994 C26.73,-5.03994 28.01,-7.2 29.85,-8.9 C31.52,-10.45 33.56,-11.55 35.94,-12.1899 C37.98,-0.95 40.04,10.2 41.68,18.5601 C41.81,19.25 41.95,19.92 42.08,20.59 C37.7,21.52 33.35,21.4301 29.14,20.32 M40.46,-12.86 C50.81,-13.33 55.08,-5.88994 55.97,-1.05996 C56.44,1.47002 56.43,5.91006 54.89,10.12 C53.72,13.3 51.26,17.37 46.13,19.4301 C46.06,19.0101 45.98,18.5801 45.9,18.15 C44.36,9.38008 42.42,-1.60996 40.46,-12.86 M33.14,-83.8 C34.92,-89.5399 37.66,-92.7899 39.65,-94.5199 C41.4,-96.0399 43.05,-96.75 43.97,-96.75 C44.11,-96.75 44.23,-96.73 44.33,-96.7 C44.79,-96.56 45.32,-95.9899 45.79,-95.1199 C48.1,-90.83 47.36,-84.1199 46.02,-79.68 C44.39,-74.28 41.47,-68.66 32.67,-59.05 C32.5,-60.16 32.34,-61.21 32.19,-62.1899 C30.94,-70.48 31.26,-77.75 33.14,-83.8"/>
<path class="KeySig" transform="matrix(1.67244,0,0,1.67244,253.136,363.543)" d="M23.3,-10.6 C23.9,-10.7 24.4,-11.4 24.4,-12 L24.4,-17.9 C24.4,-18.7 23.8,-19.3 23,-19.3 L22.8,-19.3 L19.5,-18.6 L19.5,-33.5 L16.7,-33.5 L16.7,-18 L7.8,-16.2 L7.8,-30.3 L5,-30.3 L5,-15.6 L1.1,-14.8 C0.5,-14.7 0,-14 0,-13.4 L0,-13.2 L0,-7.4 L0,-7.6 C0,-6.8 0.6,-6.2 1.4,-6.2 L1.7,-6.2 L5,-6.9 L5,9.6 L1.1,10.4 C0.5,10.5 0,11.2 0,11.8 L0,17.6 C0,18.4 0.6,19 1.4,19 L1.7,19 L5,18.3 L5,33.2 L7.8,33.2 L7.8,17.7 L16.7,15.9 L16.7,30 L19.5,30 L19.5,15.3 L23.3,14.6 C23.9,14.5 24.4,13.8 24.4,13.2 L24.4,7.3 C24.4,6.5 23.8,5.9 23,5.9 L22.8,5.9 L19.5,6.6 L19.5,-9.9 L23.3,-10.6 M7.8,9.1 L7.8,-7.5 L16.7,-9.3 L16.7,7.2 L7.8,9.1 "/>
<path class="KeySig" transform="matrix(1.67244,0,0,1.67244,253.136,947.952)" d="M23.3,-10.6 C23.9,-10.7 24.4,-11.4 24.4,-12 L24.4,-17.9 C24.4,-18.7 23.8,-19.3 23,-19.3 L22.8,-19.3 L19.5,-18.6 L19.5,-33.5 L16.7,-33.5 L16.7,-18 L7.8,-16.2 L7.8,-30.3 L5,-30.3 L5,-15.6 L1.1,-14.8 C0.5,-14.7 0,-14 0,-13.4 L0,-13.2 L0,-7.4 L0,-7.6 C0,-6.8 0.6,-6.2 1.4,-6.2 L1.7,-6.2 L5,-6.9 L5,9.6 L1.1,10.4 C0.5,10.5 0,11.2 0,11.8 L0,17.6 C0,18.4 0.6,19 1.4,19 L1.7,19 L5,18.3 L5,33.2 L7.8,33.2 L7.8,17.7 L16.7,15.9 L16.7,30 L19.5,30 L19.5,15.3 L23.3,14.6 C23.9,14.5 24.4,13.8 24.4,13.2 L24.4,7.3 C24.4,6.5 23.8,5.9 23,5.9 L22.8,5.9 L19.5,6.6 L19.5,-9.9 L23.3,-10.6 M7.8,9.1 L7.8,-7.5 L16.7,-9.3 L16.7,7.2 L7.8,9.1 "/>
<path class="KeySig" transform="matrix(1.67244,0,0,1.67244,253.136,1532.36)" d="M23.3,-10.6 C23.9,-10.7 24.4,-11.4 24.4,-12 L24.4,-17.9 C24.4,-18.7 23.8,-19.3 23,-19.3 L22.8,-19.3 L19.5,-18.6 L19.5,-33.5 L16.7,-33.5 L16.7,-18 L7.8,-16.2 L7.8,-30.3 L5,-30.3 L5,-15.6 L1.1,-14.8 C0.5,-14.7 0,-14 0,-13.4 L0,-13.2 L0,-7.4 L0,-7.6 C0,-6.8 0.6,-6.2 1.4,-6.2 L1.7,-6.2 L5,-6.9 L5,9.6 L1.1,10.4 C0.5,10.5 0,11.2 0,11.8 L0,17.6 C0,18.4 0.6,19 1.4,19 L1.7,19 L5,18.3 L5,33.2 L7.8,33.2 L7.8,17.7 L16.7,15.9 L16.7,30 L19.5,30 L19.5,15.3 L23.3,14.6 C23.9,14.5 24.4,13.8 24.4,13.2 L24.4,7.3 C24.4,6.5 23.8,5.9 23,5.9 L22.8,5.9 L19.5,6.6 L19.5,-9.9 L23.3,-10.6 M7.8,9.1 L7.8,-7.5 L16.7,-9.3 L16.7,7.2 L7.8,9.1 "/>
<path class="KeySig" transform="matrix(1.67244,0,0,1.67244,253.136,2116.77)" d="M23.3,-10.6 C23.9,-10.7 24.4,-11.4 24.4,-12 L24.4,-17.9 C24.4,-18.7 23.8,-19.3 23,-19.3 L22.8,-19.3 L19.5,-18.6 L19.5,-33.5 L16.7,-33.5 L16.7,-18 L7.8,-16.2 L7.8,-30.3 L5,-30.3 L5,-15.6 L1.1,-14.8 C0.5,-14.7 0,-14 0,-13.4 L0,-13.2 L0,-7.4 L0,-7.6 C0,-6.8 0.6,-6.2 1.4,-6.2 L1.7,-6.2 L5,-6.9 L5,9.6 L1.1,10.4 C0.5,10.5 0,11.2 0,11.8 L0,17.6 C0,18.4 0.6,19 1.4,19 L1.7,19 L5,18.3 L5,33.2 L7.8,33.2 L7.8,17.7 L16.7,15.9 L16.7,30 L19.5,30 L19.5,15.3 L23.3,14.6 C23.9,14.5 24.4,13.8 24.4,13.2 L24.4,7.3 C24.4,6.5 23.8,5.9 23,5.9 L22.8,5.9 L19.5,6.6 L19.5,-9.9 L23.3,-10.6 M7.8,9.1 L7.8,-7.5 L16.7,-9.3 L16.7,7.2 L7.8,9.1 "/>
<path class="TimeSig" transform="matrix(1.67244,0,0,1.67244,338.966,406.19)" d="M34.2,3.9 C33.4,6.1 31.4,13.3 26.5,13.3 C20,13.3 18.6,9.3 13.2,9.3 C12.4,9.3 11.6,9.4 10.6,9.6 C10.6,9.6 13.1,5.8 23.7,2.5 C34.3,-0.8 37,-6 37,-12 C37,-16.2 35.1,-24.5 20,-24.5 C4.9,-24.5 2.1,-15.4 2.1,-10.8 C2.1,-6.7 5.5,-3.4 9.6,-3.4 C13.7,-3.4 17,-6.7 17,-10.8 C17,-13.6 15,-16.7 12.4,-17.7 C12.1,-17.8 11.7,-18.3 11.7,-18.8 C11.7,-19.4 12.2,-20.1 14,-20.6 C14.5,-20.8 15.9,-21.1 17.4,-21.1 C18.8,-21.1 20.4,-20.8 21.6,-20 C23.5,-18.8 24.2,-17 24.2,-12.5 C24.2,-0.8 10.3,1.7 4.5,10.4 C4.5,10.4 1.5,14.6 1.5,19.3 C1.5,24 3.9,24.3 5.1,24.3 C6.7,24.3 8.4,23 8.4,21.2 C8.4,20.8 8.3,20.4 8.1,19.9 C7.5,18.5 7.3,17.4 7.3,16.6 C7.3,16.3 7.3,16 7.4,15.7 C7.5,15.1 8.3,14.1 10.7,14.1 C13.6,14.1 14.7,17.5 16.5,20.1 C18.3,22.7 21.1,24.3 24.3,24.3 C27.5,24.3 31.8,22 33.6,18.3 C35.4,14.6 37.7,7.1 37.7,4.4 C37.7,3.1 36.9,2.5 36,2.5 C35.3,2.5 34.6,2.9 34.2,3.9"/>
<path class="TimeSig" transform="matrix(1.67244,0,0,1.67244,333.452,488.754)" d="M3.59004,12.65 L20.77,12.65 L20.77,20.07 L12.54,20.07 C11.7601,20.07 11.1301,20.7 11.1301,21.48 L11.1301,23.39 C11.1301,24.17 11.7601,24.8 12.54,24.8 L42.79,24.8 C43.57,24.8 44.2,24.17 44.2,23.39 L44.2,21.48 C44.2,20.7 43.57,20.07 42.79,20.07 L33.85,20.07 L33.85,12.65 L42.79,12.65 C43.57,12.65 44.2,12.02 44.2,11.24 L44.2,9.32998 C44.2,8.55 43.57,7.92002 42.79,7.92002 L33.85,7.92002 L33.85,-8.04004 C33.85,-8.57998 33.55,-9.05996 33.07,-9.3 L31.8601,-9.9 C31.3301,-10.16 30.7,-10.07 30.27,-9.67002 L21.22,-1.35 C20.9301,-1.07998 20.7601,-0.709961 20.7601,-0.309961 L20.7601,7.92002 L9.25,7.92002 C9.25,7.92002 20.37,-4.10996 32.2101,-19.88 C33.0801,-21.03 32.5801,-22.08 32.39,-22.27 L30.22,-24.48 C29.95,-24.74 29.59,-24.89 29.22,-24.89 C28.62,-24.89 15.07,-24.87 14.35,-24.89 C13.6301,-24.91 13.09,-24.29 13.02,-23.67 C13.02,-23.67 12.4801,-16.31 9.88008,-8.17998 C7.28008,-0.0599609 4.34004,4.92002 1.68008,8.55 C1.68008,8.55 1.14004,9.54004 1.5,10.28 C1.85,11.03 2.48008,12.12 2.48008,12.12 C2.48008,12.12 2.74004,12.65 3.59004,12.65"/>
<path class="Rest" transform="matrix(1.67244,0,0,1.67244,608.032,447.165)" d="M26.73,-20.26 C25.9899,-20.5399 25.31,-20.21 24.98,-19.6 C24.65,-18.9899 21.4699,-13.06 17.0399,-9.8 C15.65,-8.77998 14.0699,-8.13994 12.5,-7.80996 C13.6199,-9.06992 14.3,-10.73 14.3,-12.55 C14.3,-16.5 11.1,-19.7 7.15,-19.7 C3.2,-19.7 0,-16.5 0,-12.55 C0,-9.53994 1.86992,-6.95996 4.50996,-5.90996 C6.03994,-5.17998 7.95,-4.73994 10,-4.73994 C12.85,-4.73994 15.96,-5.56992 18.6699,-7.55996 C19.93,-8.48994 21.13,-9.67998 22.21,-10.9399 L10.8199,24.69 L13.46,25.54 L27.53,-18.55 C27.76,-19.28 27.4699,-19.9699 26.73,-20.26"/>
<path class="Rest" transform="matrix(1.67244,0,0,1.67244,3111.51,405.354)" d="M31.1,-0.5 L1.4,-0.5 C0.6,-0.5 0,0.1 0,0.9 L0,11.7 C0,12.5 0.6,13.1 1.4,13.1 L31.1,13.1 C31.9,13.1 32.5,12.5 32.5,11.7 L32.5,0.9 C32.5,0.1 31.9,-0.5 31.1,-0.5"/>
<path class="Rest" transform="matrix(1.67244,0,0,1.67244,3310.46,447.165)" d="M23.2,16.9 L23,16.6 C22.9,16.5 22.7,16.3 22.4,15.9 L10.9,1.7 C10.6,1.4 10.7,0.6 10.9,0.2 L21.1,-15.2 C21.2,-15.4 21.3,-15.7 21.3,-15.9 L21.3,-16.8 C21.3,-17.1 21.2,-17.4 21,-17.6 L4.8,-39.5 C4.8,-39.5 4,-40.7 3,-39.8 C2,-39 2.8,-37.7 2.8,-37.7 L10.4,-27.3 C10.8,-26.7 10.8,-25.5 10.4,-24.9 L0.3,-9.5 C0.2,-9.3 0.1,-8.9 0.1,-8.7 L0.1,-7.8 C0.1,-7.5 0.2,-7.2 0.4,-7 L11.6,6.9 C11.2,6.8 10.3,6.6 9.1,6.6 C7.4,6.6 5.2,7 3.4,8.6 C1.2,10.6 0,13.4 0,15.9 C0,17.3 0.3,18.7 1.1,19.8 C3.2,23 10.7,32.5 10.7,32.5 C10.7,32.5 11.6,33.6 12.5,32.9 C13.4,32.2 13.2,31.3 12.9,30.8 C12.6,30.3 9.4,24.5 9.4,24.5 C9.4,24.5 8.7,23.1 8.7,21.3 C8.7,20 9.1,18.4 10.4,17.1 C11.6,15.9 13,15.5 14.3,15.5 C15.6,15.5 16.7,15.9 17.5,16.4 L21.4,18.9 C21.4,18.9 22.6,19.5 23.2,18.6 C23.7,17.8 23.5,17.4 23.2,16.9"/>
<path class="Rest" transform="matrix(1.67244,0,0,1.67244,1825.34,989.763)" d="M31.1,-0.5 L1.4,-0.5 C0.6,-0.5 0,0.1 0,0.9 L0,11.7 C0,12.5 0.6,13.1 1.4,13.1 L31.1,13.1 C31.9,13.1 32.5,12.5 32.5,11.7 L32.5,0.9 C32.5,0.1 31.9,-0.5 31.1,-0.5"/>
<path class="Rest" transform="matrix(1.67244,0,0,1.67244,2147.22,1031.57)" d="M26.73,-20.26 C25.9899,-20.5399 25.31,-20.21 24.98,-19.6 C24.65,-18.9899 21.4699,-13.06 17.0399,-9.8 C15.65,-8.77998 14.0699,-8.13994 12.5,-7.80996 C13.6199,-9.06992 14.3,-10.73 14.3,-12.55 C14.3,-16.5 11.1,-19.7 7.15,-19.7 C3.2,-19.7 0,-16.5 0,-12.55 C0,-9.53994 1.86992,-6.95996 4.50996,-5.90996 C6.03994,-5.17998 7.95,-4.73994 10,-4.73994 C12.85,-4.73994 15.96,-5.56992 18.6699,-7.55996 C19.93,-8.48994 21.13,-9.67998 22.21,-10.9399 L10.8199,24.69 L13.46,25.54 L27.53,-18.55 C27.76,-19.28 27.4699,-19.9699 26.73,-20.26"/>
<path class="Rest" transform="matrix(1.67244,0,0,1.67244,3089.11,1031.57)" d="M26.73,-20.26 C25.9899,-20.5399 25.31,-20.21 24.98,-19.6 C24.65,-18.9899 21.4699,-13.06 17.0399,-9.8 C15.65,-8.77998 14.0699,-8.13994 12.5,-7.80996 C13.6199,-9.06992 14.3,-10.73 14.3,-12.55 C14.3,-16.5 11.1,-19.7 7.15,-19.7 C3.2,-19.7 0,-16.5 0,-12.55 C0,-9.53994 1.86992,-6.95996 4.50996,-5.90996 C6.03994,-5.17998 7.95,-4.73994 10,-4.73994 C12.85,-4.73994 15.96,-5.56992 18.6699,-7.55996 C19.93,-8.48994 21.13,-9.67998 22.21,-10.9399 L10.8199,24.69 L13.46,25.54 L27.53,-18.55 C27.76,-19.28 27.4699,-19.9699 26.73,-20.26"/>
<path class="Rest" transform="matrix(1.67244,0,0,1.67244,1412.92,1615.98)" d="M26.73,-20.26 C25.9899,-20.5399 25.31,-20.21 24.98,-19.6 C24.65,-18.9899 21.4699,-13.06 17.0399,-9.8 C15.65,-8.77998 14.0699,-8.13994 12.5,-7.80996 C13.6199,-9.06992 14.3,-10.73 14.3,-12.55 C14.3,-16.5 11.1,-19.7 7.15,-19.7 C3.2,-19.7 0,-16.5 0,-12.55 C0,-9.53994 1.86992,-6.95996 4.50996,-5.90996 C6.03994,-5.17998 7.95,-4.73994 10,-4.73994 C12.85,-4.73994 15.96,-5.56992 18.6699,-7.55996 C19.93,-8.48994 21.13,-9.67998 22.21,-10.9399 L10.8199,24.69 L13.46,25.54 L27.53,-18.55 C27.76,-19.28 27.4699,-19.9699 26.73,-20.26"/>
<path class="Rest" transform="matrix(1.67244,0,0,1.67244,1775.88,2200.39)" d="M23.2,16.9 L23,16.6 C22.9,16.5 22.7,16.3 22.4,15.9 L10.9,1.7 C10.6,1.4 10.7,0.6 10.9,0.2 L21.1,-15.2 C21.2,-15.4 21.3,-15.7 21.3,-15.9 L21.3,-16.8 C21.3,-17.1 21.2,-17.4 21,-17.6 L4.8,-39.5 C4.8,-39.5 4,-40.7 3,-39.8 C2,-39 2.8,-37.7 2.8,-37.7 L10.4,-27.3 C10.8,-26.7 10.8,-25.5 10.4,-24.9 L0.3,-9.5 C0.2,-9.3 0.1,-8.9 0.1,-8.7 L0.1,-7.8 C0.1,-7.5 0.2,-7.2 0.4,-7 L11.6,6.9 C11.2,6.8 10.3,6.6 9.1,6.6 C7.4,6.6 5.2,7 3.4,8.6 C1.2,10.6 0,13.4 0,15.9 C0,17.3 0.3,18.7 1.1,19.8 C3.2,23 10.7,32.5 10.7,32.5 C10.7,32.5 11.6,33.6 12.5,32.9 C13.4,32.2 13.2,31.3 12.9,30.8 C12.6,30.3 9.4,24.5 9.4,24.5 C9.4,24.5 8.7,23.1 8.7,21.3 C8.7,20 9.1,18.4 10.4,17.1 C11.6,15.9 13,15.5 14.3,15.5 C15.6,15.5 16.7,15.9 17.5,16.4 L21.4,18.9 C21.4,18.9 22.6,19.5 23.2,18.6 C23.7,17.8 23.5,17.4 23.2,16.9"/>
<path class="Rest" transform="matrix(1.67244,0,0,1.67244,1977.11,2200.39)" d="M26.73,-20.26 C25.9899,-20.5399 25.31,-20.21 24.98,-19.6 C24.65,-18.9899 21.4699,-13.06 17.0399,-9.8 C15.65,-8.77998 14.0699,-8.13994 12.5,-7.80996 C13.6199,-9.06992 14.3,-10.73 14.3,-12.55 C14.3,-16.5 11.1,-19.7 7.15,-19.7 C3.2,-19.7 0,-16.5 0,-12.55 C0,-9.53994 1.86992,-6.95996 4.50996,-5.90996 C6.03994,-5.17998 7.95,-4.73994 10,-4.73994 C12.85,-4.73994 15.96,-5.56992 18.6699,-7.55996 C19.93,-8.48994 21.13,-9.67998 22.21,-10.9399 L10.8199,24.69 L13.46,25.54 L27.53,-18.55 C27.76,-19.28 27.4699,-19.9699 26.73,-20.26"/>
<path class="Rest" transform="matrix(1.67244,0,0,1.67244,3945.32,2200.39)" d="M26.73,-20.26 C25.9899,-20.5399 25.31,-20.21 24.98,-19.6 C24.65,-18.9899 21.4699,-13.06 17.0399,-9.8 C15.65,-8.77998 14.0699,-8.13994 12.5,-7.80996 C13.6199,-9.06992 14.3,-10.73 14.3,-12.55 C14.3,-16.5 11.1,-19.7 7.15,-19.7 C3.2,-19.7 0,-16.5 0,-12.55 C0,-9.53994 1.86992,-6.95996 4.50996,-5.90996 C6.03994,-5.17998 7.95,-4.73994 10,-4.73994 C12.85,-4.73994 15.96,-5.56992 18.6699,-7.55996 C19.93,-8.48994 21.13,-9.67998 22.21,-10.9399 L10.8199,24.69 L13.46,25.54 L27.53,-18.55 C27.76,-19.28 27.4699,-19.9699 26.73,-20.26"/>
<path class="Beam" fill-rule="evenodd" d="M915.305,311.279 L1037.13,311.279 L1037.13,332.185 L915.305,332.185 L915.305,311.279 "/>
<path class="Beam" fill-rule="evenodd" d="M3488.83,311.279 L3585.4,311.279 L3585.4,332.185 L3488.83,332.185 L3488.83,311.279 "/>
<path class="Beam" fill-rule="evenodd" d="M427.736,1115.12 L788.518,1157.48 L788.518,1178.52 L427.736,1136.17 L427.736,1115.12 "/>
<path class="Beam" fill-rule="evenodd" d="M1043.54,864.33 L1404.32,864.33 L1404.32,885.236 L1043.54,885.236 L1043.54,864.33 "/>
<path class="Beam" fill-rule="evenodd" d="M2384.67,1062.89 L2508,1052.03 L2508,1073.02 L2384.67,1083.88 L2384.67,1062.89 "/>
<path class="Beam" fill-rule="evenodd" d="M3326.57,1052.48 L3449.89,1052.48 L3449.89,1073.39 L3326.57,1073.39 L3326.57,1052.48 "/>
<path class="Beam" fill-rule="evenodd" d="M3655.17,1073.39 L4015.95,1073.39 L4015.95,1094.29 L3655.17,1094.29 L3655.17,1073.39 "/>
<path class="Beam" fill-rule="evenodd" d="M427.736,1689.15 L804.754,1689.15 L804.754,1710.06 L427.736,1710.06 L427.736,1689.15 "/>
<path class="Beam" fill-rule="evenodd" d="M1661.2,1636.89 L1789.94,1636.89 L1789.94,1657.79 L1661.2,1657.79 L1661.2,1636.89 "/>
<path class="Beam" fill-rule="evenodd" d="M2000.63,1657.79 L2377.65,1657.79 L2377.65,1678.7 L2000.63,1678.7 L2000.63,1657.79 "/>
<path class="Beam" fill-rule="evenodd" d="M2602.97,1647.34 L2992.06,1647.34 L2992.06,1668.25 L2602.97,1668.25 L2602.97,1647.34 "/>
<path class="Beam" fill-rule="evenodd" d="M3633.52,1741.35 L4010.54,1699.02 L4010.54,1720.06 L3633.52,1762.39 L3633.52,1741.35 "/>
<path class="Beam" fill-rule="evenodd" d="M427.736,2283.95 L817.268,2326.26 L817.268,2347.29 L427.736,2304.98 L427.736,2283.95 "/>
<path class="Beam" fill-rule="evenodd" d="M1081.87,2033.15 L1471.4,2033.15 L1471.4,2054.05 L1081.87,2054.05 L1081.87,2033.15 "/>
<path class="Beam" fill-rule="evenodd" d="M2260.32,2263.08 L2406.52,2273.87 L2406.52,2294.84 L2260.32,2284.04 L2260.32,2263.08 "/>
<path class="Beam" fill-rule="evenodd" d="M2634.67,2283.95 L3024.2,2326.26 L3024.2,2347.29 L2634.67,2304.98 L2634.67,2283.95 "/>
<path class="Beam" fill-rule="evenodd" d="M3288.8,2064.04 L3407.87,2074.92 L3407.87,2095.91 L3288.8,2085.04 L3288.8,2064.04 "/>
<path class="Hook" transform="matrix(1.67244,0,0,1.67244,775.003,316.506)" d="M3.5,3.5 C3.4,3.2 2.5,-0.3 2.5,-0.5 C2.4,-0.9 1.8,-1.2 1.3,-1.2 C0.6,-1.2 0,-0.6 0,0.1 L0,16.5 L0,22.7 C0,23.2 0.4,23.6 0.8,23.8 C5,25.1 13.7,30.6 20.2,41.7 C22,44.8 24.9,49 24.9,57.4 C24.9,64.6 23.8,72.2 22,79.2 C21.7,80.3 21.4,81.3 22.5,81.7 C23.6,82.1 24,81.3 24.4,80.3 C28,71.5 28.9,62.3 28.9,56.1 L28.9,54.2 C28.4,41.3 21,31.8 21,31.8 C21.3,31.8 11.8,19.5 9.1,15.3 C5.4,9.6 3.6,3.9 3.5,3.5"/>
<path class="Hook" transform="matrix(1.67244,0,0,1.67244,1240.91,316.506)" d="M3.5,3.5 C3.4,3.2 2.5,-0.3 2.5,-0.5 C2.4,-0.9 1.8,-1.2 1.3,-1.2 C0.6,-1.2 0,-0.6 0,0.1 L0,16.5 L0,22.7 C0,23.2 0.4,23.6 0.8,23.8 C5,25.1 13.7,30.6 20.2,41.7 C22,44.8 24.9,49 24.9,57.4 C24.9,64.6 23.8,72.2 22,79.2 C21.7,80.3 21.4,81.3 22.5,81.7 C23.6,82.1 24,81.3 24.4,80.3 C28,71.5 28.9,62.3 28.9,56.1 L28.9,54.2 C28.4,41.3 21,31.8 21,31.8 C21.3,31.8 11.8,19.5 9.1,15.3 C5.4,9.6 3.6,3.9 3.5,3.5"/>
<path class="Hook" transform="matrix(1.67244,0,0,1.67244,1464.93,551.693)" d="M2.5,0.4 C2.5,0.2 3.4,-3.2 3.5,-3.5 C3.6,-3.9 5.4,-9.6 9.1,-15.3 C11.8,-19.5 21.3,-31.8 21,-31.8 C21,-31.8 28.4,-41.3 28.9,-54.2 L28.9,-56.5 C28.9,-62.6 28.1,-71.2 24.6,-79.9 C24.2,-80.9 23.8,-81.9 22.7,-81.5 C21.6,-81.1 21.9,-79.9 22.2,-78.8 C24,-71.8 25,-64.6 25,-57.4 C25,-49 22,-44.8 20.2,-41.7 C13.6,-30.6 5,-25.2 0.8,-23.8 C0.3,-23.6 0,-23.2 0,-22.7 L0,-16.5 L0,-0.1 C0,0.6 0.6,1.2 1.3,1.2 C1.8,1.2 2.4,0.8 2.5,0.4"/>
<path class="Hook" transform="matrix(1.67244,0,0,1.67244,1673.13,551.693)" d="M2.5,0.4 C2.5,0.2 3.4,-3.2 3.5,-3.5 C3.6,-3.9 5.4,-9.6 9.1,-15.3 C11.8,-19.5 21.3,-31.8 21,-31.8 C21,-31.8 28.4,-41.3 28.9,-54.2 L28.9,-56.5 C28.9,-62.6 28.1,-71.2 24.6,-79.9 C24.2,-80.9 23.8,-81.9 22.7,-81.5 C21.6,-81.1 21.9,-79.9 22.2,-78.8 C24,-71.8 25,-64.6 25,-57.4 C25,-49 22,-44.8 20.2,-41.7 C13.6,-30.6 5,-25.2 0.8,-23.8 C0.3,-23.6 0,-23.2 0,-22.7 L0,-16.5 L0,-0.1 C0,0.6 0.6,1.2 1.3,1.2 C1.8,1.2 2.4,0.8 2.5,0.4"/>
<path class="Hook" transform="matrix(1.67244,0,0,1.67244,1948.31,316.506)" d="M3.5,3.5 C3.4,3.2 2.5,-0.3 2.5,-0.5 C2.4,-0.9 1.8,-1.2 1.3,-1.2 C0.6,-1.2 0,-0.6 0,0.1 L0,16.5 L0,22.7 C0,23.2 0.4,23.6 0.8,23.8 C5,25.1 13.7,30.6 20.2,41.7 C22,44.8 24.9,49 24.9,57.4 C24.9,64.6 23.8,72.2 22,79.2 C21.7,80.3 21.4,81.3 22.5,81.7 C23.6,82.1 24,81.3 24.4,80.3 C28,71.5 28.9,62.3 28.9,56.1 L28.9,54.2 C28.4,41.3 21,31.8 21,31.8 C21.3,31.8 11.8,19.5 9.1,15.3 C5.4,9.6 3.6,3.9 3.5,3.5"/>
<path class="Hook" transform="matrix(1.67244,0,0,1.67244,2204.84,316.506)" d="M3.5,3.5 C3.4,3.2 2.5,-0.3 2.5,-0.5 C2.4,-0.9 1.8,-1.2 1.3,-1.2 C0.6,-1.2 0,-0.6 0,0.1 L0,16.5 L0,22.7 C0,23.2 0.4,23.6 0.8,23.8 C5,25.1 13.7,30.6 20.2,41.7 C22,44.8 24.9,49 24.9,57.4 C24.9,64.6 23.8,72.2 22,79.2 C21.7,80.3 21.4,81.3 22.5,81.7 C23.6,82.1 24,81.3 24.4,80.3 C28,71.5 28.9,62.3 28.9,56.1 L28.9,54.2 C28.4,41.3 21,31.8 21,31.8 C21.3,31.8 11.8,19.5 9.1,15.3 C5.4,9.6 3.6,3.9 3.5,3.5"/>
<path class="Hook" transform="matrix(1.67244,0,0,1.67244,2483.44,316.506)" d="M3.5,3.5 C3.4,3.2 2.5,-0.3 2.5,-0.5 C2.4,-0.9 1.8,-1.2 1.3,-1.2 C0.6,-1.2 0,-0.6 0,0.1 L0,16.5 L0,22.7 C0,23.2 0.4,23.6 0.8,23.8 C5,25.1 13.7,30.6 20.2,41.7 C22,44.8 24.9,49 24.9,57.4 C24.9,64.6 23.8,72.2 22,79.2 C21.7,80.3 21.4,81.3 22.5,81.7 C23.6,82.1 24,81.3 24.4,80.3 C28,71.5 28.9,62.3 28.9,56.1 L28.9,54.2 C28.4,41.3 21,31.8 21,31.8 C21.3,31.8 11.8,19.5 9.1,15.3 C5.4,9.6 3.6,3.9 3.5,3.5"/>
<path class="Hook" transform="matrix(1.67244,0,0,1.67244,2739.97,316.506)" d="M3.5,3.5 C3.4,3.2 2.5,-0.3 2.5,-0.5 C2.4,-0.9 1.8,-1.2 1.3,-1.2 C0.6,-1.2 0,-0.6 0,0.1 L0,16.5 L0,22.7 C0,23.2 0.4,23.6 0.8,23.8 C5,25.1 13.7,30.6 20.2,41.7 C22,44.8 24.9,49 24.9,57.4 C24.9,64.6 23.8,72.2 22,79.2 C21.7,80.3 21.4,81.3 22.5,81.7 C23.6,82.1 24,81.3 24.4,80.3 C28,71.5 28.9,62.3 28.9,56.1 L28.9,54.2 C28.4,41.3 21,31.8 21,31.8 C21.3,31.8 11.8,19.5 9.1,15.3 C5.4,9.6 3.6,3.9 3.5,3.5"/>
<path class="Hook" transform="matrix(1.67244,0,0,1.67244,3789,316.506)" d="M3.5,3.5 C3.4,3.2 2.5,-0.3 2.5,-0.5 C2.4,-0.9 1.8,-1.2 1.3,-1.2 C0.6,-1.2 0,-0.6 0,0.1 L0,16.5 L0,22.7 C0,23.2 0.4,23.6 0.8,23.8 C5,25.1 13.7,30.6 20.2,41.7 C22,44.8 24.9,49 24.9,57.4 C24.9,64.6 23.8,72.2 22,79.2 C21.7,80.3 21.4,81.3 22.5,81.7 C23.6,82.1 24,81.3 24.4,80.3 C28,71.5 28.9,62.3 28.9,56.1 L28.9,54.2 C28.4,41.3 21,31.8 21,31.8 C21.3,31.8 11.8,19.5 9.1,15.3 C5.4,9.6 3.6,3.9 3.5,3.5"/>
<path class="Hook" transform="matrix(1.67244,0,0,1.67244,4013.02,551.693)" d="M2.5,0.4 C2.5,0.2 3.4,-3.2 3.5,-3.5 C3.6,-3.9 5.4,-9.6 9.1,-15.3 C11.8,-19.5 21.3,-31.8 21,-31.8 C21,-31.8 28.4,-41.3 28.9,-54.2 L28.9,-56.5 C28.9,-62.6 28.1,-71.2 24.6,-79.9 C24.2,-80.9 23.8,-81.9 22.7,-81.5 C21.6,-81.1 21.9,-79.9 22.2,-78.8 C24,-71.8 25,-64.6 25,-57.4 C25,-49 22,-44.8 20.2,-41.7 C13.6,-30.6 5,-25.2 0.8,-23.8 C0.3,-23.6 0,-23.2 0,-22.7 L0,-16.5 L0,-0.1 C0,0.6 0.6,1.2 1.3,1.2 C1.8,1.2 2.4,0.8 2.5,0.4"/>
<path class="Hook" transform="matrix(1.67244,0,0,1.67244,2265.95,1115.2)" d="M2.5,0.4 C2.5,0.2 3.4,-3.2 3.5,-3.5 C3.6,-3.9 5.4,-9.6 9.1,-15.3 C11.8,-19.5 21.3,-31.8 21,-31.8 C21,-31.8 28.4,-41.3 28.9,-54.2 L28.9,-56.5 C28.9,-62.6 28.1,-71.2 24.6,-79.9 C24.2,-80.9 23.8,-81.9 22.7,-81.5 C21.6,-81.1 21.9,-79.9 22.2,-78.8 C24,-71.8 25,-64.6 25,-57.4 C25,-49 22,-44.8 20.2,-41.7 C13.6,-30.6 5,-25.2 0.8,-23.8 C0.3,-23.6 0,-23.2 0,-22.7 L0,-16.5 L0,-0.1 C0,0.6 0.6,1.2 1.3,1.2 C1.8,1.2 2.4,0.8 2.5,0.4"/>
<path class="Hook" transform="matrix(1.67244,0,0,1.67244,2713.28,1073.39)" d="M2.5,0.4 C2.5,0.2 3.4,-3.2 3.5,-3.5 C3.6,-3.9 5.4,-9.6 9.1,-15.3 C11.8,-19.5 21.3,-31.8 21,-31.8 C21,-31.8 28.4,-41.3 28.9,-54.2 L28.9,-56.5 C28.9,-62.6 28.1,-71.2 24.6,-79.9 C24.2,-80.9 23.8,-81.9 22.7,-81.5 C21.6,-81.1 21.9,-79.9 22.2,-78.8 C24,-71.8 25,-64.6 25,-57.4 C25,-49 22,-44.8 20.2,-41.7 C13.6,-30.6 5,-25.2 0.8,-23.8 C0.3,-23.6 0,-23.2 0,-22.7 L0,-16.5 L0,-0.1 C0,0.6 0.6,1.2 1.3,1.2 C1.8,1.2 2.4,0.8 2.5,0.4"/>
<path class="Hook" transform="matrix(1.67244,0,0,1.67244,3207.84,1073.39)" d="M2.5,0.4 C2.5,0.2 3.4,-3.2 3.5,-3.5 C3.6,-3.9 5.4,-9.6 9.1,-15.3 C11.8,-19.5 21.3,-31.8 21,-31.8 C21,-31.8 28.4,-41.3 28.9,-54.2 L28.9,-56.5 C28.9,-62.6 28.1,-71.2 24.6,-79.9 C24.2,-80.9 23.8,-81.9 22.7,-81.5 C21.6,-81.1 21.9,-79.9 22.2,-78.8 C24,-71.8 25,-64.6 25,-57.4 C25,-49 22,-44.8 20.2,-41.7 C13.6,-30.6 5,-25.2 0.8,-23.8 C0.3,-23.6 0,-23.2 0,-22.7 L0,-16.5 L0,-0.1 C0,0.6 0.6,1.2 1.3,1.2 C1.8,1.2 2.4,0.8 2.5,0.4"/>
<path class="Hook" transform="matrix(1.67244,0,0,1.67244,1015.44,1699.61)" d="M2.5,0.4 C2.5,0.2 3.4,-3.2 3.5,-3.5 C3.6,-3.9 5.4,-9.6 9.1,-15.3 C11.8,-19.5 21.3,-31.8 21,-31.8 C21,-31.8 28.4,-41.3 28.9,-54.2 L28.9,-56.5 C28.9,-62.6 28.1,-71.2 24.6,-79.9 C24.2,-80.9 23.8,-81.9 22.7,-81.5 C21.6,-81.1 21.9,-79.9 22.2,-78.8 C24,-71.8 25,-64.6 25,-57.4 C25,-49 22,-44.8 20.2,-41.7 C13.6,-30.6 5,-25.2 0.8,-23.8 C0.3,-23.6 0,-23.2 0,-22.7 L0,-16.5 L0,-0.1 C0,0.6 0.6,1.2 1.3,1.2 C1.8,1.2 2.4,0.8 2.5,0.4"/>
<path class="Hook" transform="matrix(1.67244,0,0,1.67244,1537.06,1657.79)" d="M2.5,0.4 C2.5,0.2 3.4,-3.2 3.5,-3.5 C3.6,-3.9 5.4,-9.6 9.1,-15.3 C11.8,-19.5 21.3,-31.8 21,-31.8 C21,-31.8 28.4,-41.3 28.9,-54.2 L28.9,-56.5 C28.9,-62.6 28.1,-71.2 24.6,-79.9 C24.2,-80.9 23.8,-81.9 22.7,-81.5 C21.6,-81.1 21.9,-79.9 22.2,-78.8 C24,-71.8 25,-64.6 25,-57.4 C25,-49 22,-44.8 20.2,-41.7 C13.6,-30.6 5,-25.2 0.8,-23.8 C0.3,-23.6 0,-23.2 0,-22.7 L0,-16.5 L0,-0.1 C0,0.6 0.6,1.2 1.3,1.2 C1.8,1.2 2.4,0.8 2.5,0.4"/>
<path class="Hook" transform="matrix(1.67244,0,0,1.67244,3206.77,1657.79)" d="M2.5,0.4 C2.5,0.2 3.4,-3.2 3.5,-3.5 C3.6,-3.9 5.4,-9.6 9.1,-15.3 C11.8,-19.5 21.3,-31.8 21,-31.8 C21,-31.8 28.4,-41.3 28.9,-54.2 L28.9,-56.5 C28.9,-62.6 28.1,-71.2 24.6,-79.9 C24.2,-80.9 23.8,-81.9 22.7,-81.5 C21.6,-81.1 21.9,-79.9 22.2,-78.8 C24,-71.8 25,-64.6 25,-57.4 C25,-49 22,-44.8 20.2,-41.7 C13.6,-30.6 5,-25.2 0.8,-23.8 C0.3,-23.6 0,-23.2 0,-22.7 L0,-16.5 L0,-0.1 C0,0.6 0.6,1.2 1.3,1.2 C1.8,1.2 2.4,0.8 2.5,0.4"/>
<path class="Hook" transform="matrix(1.67244,0,0,1.67244,2168.46,2069.73)" d="M3.5,3.5 C3.4,3.2 2.5,-0.3 2.5,-0.5 C2.4,-0.9 1.8,-1.2 1.3,-1.2 C0.6,-1.2 0,-0.6 0,0.1 L0,16.5 L0,22.7 C0,23.2 0.4,23.6 0.8,23.8 C5,25.1 13.7,30.6 20.2,41.7 C22,44.8 24.9,49 24.9,57.4 C24.9,64.6 23.8,72.2 22,79.2 C21.7,80.3 21.4,81.3 22.5,81.7 C23.6,82.1 24,81.3 24.4,80.3 C28,71.5 28.9,62.3 28.9,56.1 L28.9,54.2 C28.4,41.3 21,31.8 21,31.8 C21.3,31.8 11.8,19.5 9.1,15.3 C5.4,9.6 3.6,3.9 3.5,3.5"/>
<path class="RehearsalMark" fill="none" stroke="#000000" stroke-width="6.69" stroke-linecap="square" stroke-linejoin="miter" stroke-miterlimit="2" fill-rule="evenodd" d="M357.459,127.641 L499.085,127.641 L499.085,262.36 L357.459,262.36 L357.459,127.641 "/>
<path class="RehearsalMark" d="M424.87,151.881 L398.311,213.891 C392.929,226.527 388.6,231.09 381.697,231.792 L381.697,238.11 L415.51,238.11 L415.51,231.792 C407.203,231.324 403.927,229.101 403.927,223.719 C403.927,221.73 404.395,219.858 405.682,217.05 L407.554,212.604 L436.687,212.604 L441.133,224.07 C442.42,227.346 442.537,227.931 442.537,228.867 C442.537,230.973 440.899,231.675 435.751,231.675 L433.762,231.792 L433.762,238.11 L474.829,238.11 L474.829,231.792 C468.16,231.558 466.288,230.388 463.831,224.421 L433.762,151.881 L424.87,151.881 M422.413,176.802 L433.762,204.765 L410.596,204.765 L422.413,176.802 "/>
<path class="RehearsalMark" fill="none" stroke="#000000" stroke-width="6.69" stroke-linecap="square" stroke-linejoin="miter" stroke-miterlimit="2" fill-rule="evenodd" d="M1951.15,713.8 L2084.12,713.8 L2084.12,846.77 L1951.15,846.77 L1951.15,713.8 "/>
<path class="RehearsalMark" d="M1975.59,738.045 L1975.59,744.363 L1977.34,744.363 C1983.66,744.363 1985.89,744.831 1986.94,746.001 C1987.76,747.288 1987.76,747.639 1987.76,754.893 L1987.76,805.671 C1987.76,812.925 1987.76,813.276 1986.94,814.446 C1985.89,815.733 1983.55,816.201 1977.34,816.201 L1975.59,816.201 L1975.59,822.519 L2022.97,822.519 C2035.14,822.519 2041.34,821.583 2047.43,818.892 C2054.8,815.616 2059.71,808.245 2059.71,800.289 C2059.71,792.099 2055.03,785.664 2046.37,781.686 C2042.4,779.814 2039,778.878 2032.8,778.059 C2038.54,777.123 2041.81,776.304 2045.09,774.783 C2052.11,771.39 2055.85,765.774 2055.85,758.754 C2055.85,752.085 2052.34,745.884 2046.61,742.725 C2040.17,739.098 2034.56,738.045 2020.75,738.045 L1975.59,738.045 M2008.82,775.953 L2008.82,751.149 C2008.58,746.235 2010.22,744.597 2015.37,744.363 L2018.88,744.363 C2029.18,744.363 2034.67,749.511 2034.67,759.222 C2034.67,764.955 2032.69,769.518 2028.94,772.443 C2025.78,775.017 2021.8,775.953 2014.55,775.953 L2008.82,775.953 M2008.82,782.388 L2016.89,782.388 C2024.26,782.388 2027.65,783.09 2030.93,785.196 C2035.03,787.887 2037.37,793.035 2037.37,799.119 C2037.37,804.735 2035.26,809.883 2031.87,812.691 C2028.94,815.031 2025.08,816.201 2019.46,816.201 L2015.95,816.201 C2009.29,815.967 2008.58,815.265 2008.82,808.713 L2008.82,782.388 "/>
<path class="NoteDot" transform="matrix(1.67244,0,0,1.67244,2905.78,509.882)" d="M0,-0.00166016 C0,2.75977 2.23857,4.99834 5,4.99834 C7.76143,4.99834 10,2.75977 10,-0.00166016 C10,-2.76309 7.76143,-5.00166 5,-5.00166 C2.23857,-5.00166 0,-2.76309 0,-0.00166016"/>
<path class="NoteDot" transform="matrix(1.67244,0,0,1.67244,2894.91,968.858)" d="M0,-0.00166016 C0,2.75977 2.23857,4.99834 5,4.99834 C7.76143,4.99834 10,2.75977 10,-0.00166016 C10,-2.76309 7.76143,-5.00166 5,-5.00166 C2.23857,-5.00166 0,-2.76309 0,-0.00166016"/>
<path class="NoteDot" transform="matrix(1.67244,0,0,1.67244,1204.41,1595.08)" d="M0,-0.00166016 C0,2.75977 2.23857,4.99834 5,4.99834 C7.76143,4.99834 10,2.75977 10,-0.00166016 C10,-2.76309 7.76143,-5.00166 5,-5.00166 C2.23857,-5.00166 0,-2.76309 0,-0.00166016"/>
<path class="NoteDot" transform="matrix(1.67244,0,0,1.67244,3395.75,1553.27)" d="M0,-0.00166016 C0,2.75977 2.23857,4.99834 5,4.99834 C7.76143,4.99834 10,2.75977 10,-0.00166016 C10,-2.76309 7.76143,-5.00166 5,-5.00166 C2.23857,-5.00166 0,-2.76309 0,-0.00166016"/>
<path class="NoteDot" transform="matrix(1.67244,0,0,1.67244,3817.53,2179.49)" d="M0,-0.00166016 C0,2.75977 2.23857,4.99834 5,4.99834 C7.76143,4.99834 10,2.75977 10,-0.00166016 C10,-2.76309 7.76143,-5.00166 5,-5.00166 C2.23857,-5.00166 0,-2.76309 0,-0.00166016"/>
</svg>
