<?xml version="1.0" encoding="UTF-8" standalone="no"?>
<svg width="4208.47px" height="2409.45px" viewBox="0 0 4208.47 2409.45"
 xmlns="http://www.w3.org/2000/svg" xmlns:xlink="http://www.w3.org/1999/xlink" version="1.2" baseProfile="tiny">
<title>FLAUTA</title>
<desc>Generated by MuseScore 3.6.2</desc>
<polyline class="StaffLines" fill="none" stroke="#000000" stroke-width="6.16" stroke-linejoin="bevel" points="70.866,462.756 4137.61,462.756"/>
<polyline class="StaffLines" fill="none" stroke="#000000" stroke-width="6.16" stroke-linejoin="bevel" points="70.866,518.74 4137.61,518.74"/>
<polyline class="StaffLines" fill="none" stroke="#000000" stroke-width="6.16" stroke-linejoin="bevel" points="70.866,574.724 4137.61,574.724"/>
<polyline class="StaffLines" fill="none" stroke="#000000" stroke-width="6.16" stroke-linejoin="bevel" points="70.866,630.709 4137.61,630.709"/>
<polyline class="StaffLines" fill="none" stroke="#000000" stroke-width="6.16" stroke-linejoin="bevel" points="70.866,686.693 4137.61,686.693"/>
<polyline class="StaffLines" fill="none" stroke="#000000" stroke-width="6.16" stroke-linejoin="bevel" points="70.866,1212.16 4137.61,1212.16"/>
<polyline class="StaffLines" fill="none" stroke="#000000" stroke-width="6.16" stroke-linejoin="bevel" points="70.866,1268.15 4137.61,1268.15"/>
<polyline class="StaffLines" fill="none" stroke="#000000" stroke-width="6.16" stroke-linejoin="bevel" points="70.866,1324.13 4137.61,1324.13"/>
<polyline class="StaffLines" fill="none" stroke="#000000" stroke-width="6.16" stroke-linejoin="bevel" points="70.866,1380.12 4137.61,1380.12"/>
<polyline class="StaffLines" fill="none" stroke="#000000" stroke-width="6.16" stroke-linejoin="bevel" points="70.866,1436.1 4137.61,1436.1"/>
<polyline class="StaffLines" fill="none" stroke="#000000" stroke-width="6.16" stroke-linejoin="bevel" points="70.866,1961.57 4137.61,1961.57"/>
<polyline class="StaffLines" fill="none" stroke="#000000" stroke-width="6.16" stroke-linejoin="bevel" points="70.866,2017.56 4137.61,2017.56"/>
<polyline class="StaffLines" fill="none" stroke="#000000" stroke-width="6.16" stroke-linejoin="bevel" points="70.866,2073.54 4137.61,2073.54"/>
<polyline class="StaffLines" fill="none" stroke="#000000" stroke-width="6.16" stroke-linejoin="bevel" points="70.866,2129.53 4137.61,2129.53"/>
<polyline class="StaffLines" fill="none" stroke="#000000" stroke-width="6.16" stroke-linejoin="bevel" points="70.866,2185.51 4137.61,2185.51"/>
<path class="MeasureNumber" d="M86.3204,1086.52 C85.6404,1089.68 84.9204,1091.6 83.7604,1093.84 C81.8004,1097.48 79.7204,1099.12 76.9204,1099.12 C75.7604,1099.12 75.0004,1098.64 75.0004,1097.92 C75.0004,1097.64 75.0804,1097.52 75.4004,1097.04 C75.8004,1096.52 76.0004,1096.04 76.0004,1095.48 C76.0004,1094.16 74.9604,1093.16 73.6004,1093.16 C72.0004,1093.16 70.8804,1094.36 70.8804,1096.12 C70.8804,1098.84 73.4404,1100.8 77.0004,1100.8 C80.2004,1100.8 83.1604,1099.4 85.6004,1096.6 C89.0804,1092.72 91.3604,1086.92 91.3604,1082 C91.3604,1075.76 88.3604,1072.04 83.4004,1072.04 C80.4404,1072.04 77.6804,1073.36 75.8404,1075.64 C74.0404,1077.84 73.0004,1080.64 73.0004,1083.24 C73.0004,1087.04 75.9204,1089.92 79.8004,1089.92 C82.4404,1089.92 84.4804,1088.84 86.3204,1086.52 M83.3604,1073.72 C85.9204,1073.72 87.5604,1075.76 87.5604,1078.96 C87.5604,1083.92 84.8404,1087.56 81.1604,1087.56 C78.6404,1087.56 77.2404,1085.84 77.2404,1082.84 C77.2404,1080.48 77.8004,1078.36 78.8804,1076.56 C80.0804,1074.64 81.5204,1073.72 83.3604,1073.72"/>
<path class="MeasureNumber" d="M87.226,1821.29 L86.066,1821.29 C83.866,1822.93 79.626,1824.33 76.746,1824.33 L76.266,1826.09 L79.026,1826.09 C81.466,1826.09 81.746,1826.17 81.746,1826.89 C81.746,1827.25 81.746,1827.25 81.346,1828.69 L77.066,1844.69 C76.546,1846.69 76.506,1846.81 76.146,1847.17 C75.746,1847.57 74.906,1847.69 72.786,1847.73 L71.066,1847.73 L70.866,1849.61 L85.666,1849.61 L85.906,1847.73 L83.746,1847.73 C81.146,1847.73 80.586,1847.53 80.586,1846.65 C80.586,1846.37 80.746,1845.45 80.946,1844.69 L87.226,1821.29 M113.54,1821.45 C111.42,1821.69 108.82,1821.85 106.58,1821.85 C105.46,1821.85 104.18,1821.81 102.74,1821.73 C101.42,1821.65 100.1,1821.57 98.7404,1821.49 L97.7404,1821.45 L93.8604,1829.89 L95.3404,1830.37 L96.3004,1828.77 C98.1804,1825.65 99.0604,1825.21 103.14,1825.25 L109.9,1825.25 L105.54,1831.49 C100.42,1838.69 100.42,1838.69 98.4604,1841.89 C96.7004,1844.73 95.9804,1846.49 95.9804,1847.93 C95.9804,1849.33 96.8604,1850.21 98.2604,1850.21 C99.7404,1850.21 100.5,1849.49 101.02,1847.61 C103.02,1840.09 104.22,1837.49 109.78,1828.49 L113.54,1822.65 L113.54,1821.45 "/>
<polyline class="BarLine" fill="none" stroke="#000000" stroke-width="10.08" stroke-linejoin="bevel" points="990.431,459.677 990.431,689.772"/>
<polyline class="BarLine" fill="none" stroke="#000000" stroke-width="10.08" stroke-linejoin="bevel" points="1443.54,459.677 1443.54,689.772"/>
<polyline class="BarLine" fill="none" stroke="#000000" stroke-width="10.08" stroke-linejoin="bevel" points="1959.36,459.677 1959.36,689.772"/>
<polyline class="BarLine" fill="none" stroke="#000000" stroke-width="10.08" stroke-linejoin="bevel" points="2320.12,459.677 2320.12,689.772"/>
<polyline class="BarLine" fill="none" stroke="#000000" stroke-width="10.08" stroke-linejoin="bevel" points="2865.58,459.677 2865.58,689.772"/>
<polyline class="BarLine" fill="none" stroke="#000000" stroke-width="10.08" stroke-linejoin="bevel" points="3411.05,459.677 3411.05,689.772"/>
<polyline class="BarLine" fill="none" stroke="#000000" stroke-width="10.08" stroke-linejoin="bevel" points="3771.81,459.677 3771.81,689.772"/>
<polyline class="BarLine" fill="none" stroke="#000000" stroke-width="10.08" stroke-linejoin="bevel" points="4132.57,459.677 4132.57,689.772"/>
<polyline class="BarLine" fill="none" stroke="#000000" stroke-width="10.08" stroke-linejoin="bevel" points="882.033,1209.09 882.033,1439.18"/>
<polyline class="BarLine" fill="none" stroke="#000000" stroke-width="10.08" stroke-linejoin="bevel" points="1350.63,1209.09 1350.63,1439.18"/>
<polyline class="BarLine" fill="none" stroke="#000000" stroke-width="10.08" stroke-linejoin="bevel" points="1881.93,1209.09 1881.93,1439.18"/>
<polyline class="BarLine" fill="none" stroke="#000000" stroke-width="10.08" stroke-linejoin="bevel" points="2258.18,1209.09 2258.18,1439.18"/>
<polyline class="BarLine" fill="none" stroke="#000000" stroke-width="10.08" stroke-linejoin="bevel" points="2819.13,1209.09 2819.13,1439.18"/>
<polyline class="BarLine" fill="none" stroke="#000000" stroke-width="10.08" stroke-linejoin="bevel" points="3380.08,1209.09 3380.08,1439.18"/>
<polyline class="BarLine" fill="none" stroke="#000000" stroke-width="10.08" stroke-linejoin="bevel" points="3756.32,1209.09 3756.32,1439.18"/>
<polyline class="BarLine" fill="none" stroke="#000000" stroke-width="10.08" stroke-linejoin="bevel" points="4132.57,1209.09 4132.57,1439.18"/>
<polyline class="BarLine" fill="none" stroke="#000000" stroke-width="10.08" stroke-linejoin="bevel" points="872.983,1958.49 872.983,2188.59"/>
<polyline class="BarLine" fill="none" stroke="#000000" stroke-width="10.08" stroke-linejoin="bevel" points="1269.83,1958.49 1269.83,2188.59"/>
<polyline class="BarLine" fill="none" stroke="#000000" stroke-width="10.08" stroke-linejoin="bevel" points="1821.73,1958.49 1821.73,2188.59"/>
<polyline class="BarLine" fill="none" stroke="#000000" stroke-width="10.08" stroke-linejoin="bevel" points="2218.58,1958.49 2218.58,2188.59"/>
<polyline class="BarLine" fill="none" stroke="#000000" stroke-width="10.08" stroke-linejoin="bevel" points="2800.13,1958.49 2800.13,2188.59"/>
<polyline class="BarLine" fill="none" stroke="#000000" stroke-width="10.08" stroke-linejoin="bevel" points="3381.69,1958.49 3381.69,2188.59"/>
<polyline class="BarLine" fill="none" stroke="#000000" stroke-width="10.08" stroke-linejoin="bevel" points="3778.53,1958.49 3778.53,2188.59"/>
<polyline class="BarLine" fill="none" stroke="#000000" stroke-width="10.08" stroke-linejoin="bevel" points="4083.02,1958.49 4083.02,2188.59"/>
<polyline class="BarLine" fill="none" stroke="#000000" stroke-width="30.79" stroke-linejoin="bevel" points="4122.21,1958.49 4122.21,2188.59"/>
<polyline class="LedgerLine" fill="none" stroke="#000000" stroke-width="8.96" stroke-linejoin="bevel" points="1521.36,406.772 1633.31,406.772"/>
<polyline class="LedgerLine" fill="none" stroke="#000000" stroke-width="8.96" stroke-linejoin="bevel" points="1521.36,350.787 1633.31,350.787"/>
<polyline class="LedgerLine" fill="none" stroke="#000000" stroke-width="8.96" stroke-linejoin="bevel" points="1679.28,406.772 1791.24,406.772"/>
<polyline class="LedgerLine" fill="none" stroke="#000000" stroke-width="8.96" stroke-linejoin="bevel" points="1428.45,1156.18 1540.4,1156.18"/>
<polyline class="LedgerLine" fill="none" stroke="#000000" stroke-width="8.96" stroke-linejoin="bevel" points="1428.45,1100.2 1540.4,1100.2"/>
<polyline class="LedgerLine" fill="none" stroke="#000000" stroke-width="8.96" stroke-linejoin="bevel" points="1595.9,1156.18 1707.85,1156.18"/>
<polyline class="LedgerLine" fill="none" stroke="#000000" stroke-width="8.96" stroke-linejoin="bevel" points="398.899,1905.59 510.85,1905.59"/>
<polyline class="LedgerLine" fill="none" stroke="#000000" stroke-width="8.96" stroke-linejoin="bevel" points="398.899,1849.61 510.85,1849.61"/>
<polyline class="LedgerLine" fill="none" stroke="#000000" stroke-width="8.96" stroke-linejoin="bevel" points="579.03,1905.59 690.981,1905.59"/>
<polyline class="LedgerLine" fill="none" stroke="#000000" stroke-width="8.96" stroke-linejoin="bevel" points="1347.65,1905.59 1459.6,1905.59"/>
<polyline class="LedgerLine" fill="none" stroke="#000000" stroke-width="8.96" stroke-linejoin="bevel" points="1347.65,1849.61 1459.6,1849.61"/>
<polyline class="LedgerLine" fill="none" stroke="#000000" stroke-width="8.96" stroke-linejoin="bevel" points="1527.78,1905.59 1639.73,1905.59"/>
<polyline class="Stem" fill="none" stroke="#000000" stroke-width="6.16" stroke-linejoin="bevel" points="592.464,539.566 592.464,364.783"/>
<polyline class="Stem" fill="none" stroke="#000000" stroke-width="6.16" stroke-linejoin="bevel" points="694.422,511.574 694.422,350.787"/>
<polyline class="Stem" fill="none" stroke="#000000" stroke-width="6.16" stroke-linejoin="bevel" points="729.775,498.272 729.775,644.705"/>
<polyline class="Stem" fill="none" stroke="#000000" stroke-width="6.16" stroke-linejoin="bevel" points="831.733,470.28 831.733,630.709"/>
<polyline class="Stem" fill="none" stroke="#000000" stroke-width="6.16" stroke-linejoin="bevel" points="1071.33,442.288 1071.33,630.709"/>
<polyline class="Stem" fill="none" stroke="#000000" stroke-width="6.16" stroke-linejoin="bevel" points="1200.89,498.272 1200.89,672.697"/>
<polyline class="Stem" fill="none" stroke="#000000" stroke-width="6.16" stroke-linejoin="bevel" points="1284.85,554.256 1284.85,700.689"/>
<polyline class="Stem" fill="none" stroke="#000000" stroke-width="6.16" stroke-linejoin="bevel" points="1544.04,358.312 1544.04,574.724"/>
<polyline class="Stem" fill="none" stroke="#000000" stroke-width="6.16" stroke-linejoin="bevel" points="1701.96,414.296 1701.96,574.724"/>
<polyline class="Stem" fill="none" stroke="#000000" stroke-width="6.16" stroke-linejoin="bevel" points="1800.66,470.28 1800.66,630.709"/>
<polyline class="Stem" fill="none" stroke="#000000" stroke-width="6.16" stroke-linejoin="bevel" points="2040.26,442.288 2040.26,630.709"/>
<polyline class="Stem" fill="none" stroke="#000000" stroke-width="6.16" stroke-linejoin="bevel" points="2161.42,498.272 2161.42,686.693"/>
<polyline class="Stem" fill="none" stroke="#000000" stroke-width="6.16" stroke-linejoin="bevel" points="2467.62,539.566 2467.62,364.783"/>
<polyline class="Stem" fill="none" stroke="#000000" stroke-width="6.16" stroke-linejoin="bevel" points="2569.57,511.574 2569.57,350.787"/>
<polyline class="Stem" fill="none" stroke="#000000" stroke-width="6.16" stroke-linejoin="bevel" points="2604.93,498.272 2604.93,644.705"/>
<polyline class="Stem" fill="none" stroke="#000000" stroke-width="6.16" stroke-linejoin="bevel" points="2706.89,470.28 2706.89,630.709"/>
<polyline class="Stem" fill="none" stroke="#000000" stroke-width="6.16" stroke-linejoin="bevel" points="2946.48,442.288 2946.48,616.712"/>
<polyline class="Stem" fill="none" stroke="#000000" stroke-width="6.16" stroke-linejoin="bevel" points="3048.44,498.272 3048.44,644.705"/>
<polyline class="Stem" fill="none" stroke="#000000" stroke-width="6.16" stroke-linejoin="bevel" points="3217,511.574 3217,350.787"/>
<polyline class="Stem" fill="none" stroke="#000000" stroke-width="6.16" stroke-linejoin="bevel" points="3318.96,539.566 3318.96,364.783"/>
<polyline class="Stem" fill="none" stroke="#000000" stroke-width="6.16" stroke-linejoin="bevel" points="3491.95,526.264 3491.95,707.687"/>
<polyline class="Stem" fill="none" stroke="#000000" stroke-width="6.16" stroke-linejoin="bevel" points="3613.11,498.272 3613.11,686.693"/>
<polyline class="Stem" fill="none" stroke="#000000" stroke-width="6.16" stroke-linejoin="bevel" points="3852.71,526.264 3852.71,707.687"/>
<polyline class="Stem" fill="none" stroke="#000000" stroke-width="6.16" stroke-linejoin="bevel" points="468.582,1288.98 468.582,1114.19"/>
<polyline class="Stem" fill="none" stroke="#000000" stroke-width="6.16" stroke-linejoin="bevel" points="575.701,1260.98 575.701,1100.2"/>
<polyline class="Stem" fill="none" stroke="#000000" stroke-width="6.16" stroke-linejoin="bevel" points="616.216,1247.68 616.216,1394.11"/>
<polyline class="Stem" fill="none" stroke="#000000" stroke-width="6.16" stroke-linejoin="bevel" points="723.336,1219.69 723.336,1380.12"/>
<polyline class="Stem" fill="none" stroke="#000000" stroke-width="6.16" stroke-linejoin="bevel" points="962.931,1191.7 962.931,1380.12"/>
<polyline class="Stem" fill="none" stroke="#000000" stroke-width="6.16" stroke-linejoin="bevel" points="1103.86,1247.68 1103.86,1422.11"/>
<polyline class="Stem" fill="none" stroke="#000000" stroke-width="6.16" stroke-linejoin="bevel" points="1191.93,1303.67 1191.93,1450.1"/>
<polyline class="Stem" fill="none" stroke="#000000" stroke-width="6.16" stroke-linejoin="bevel" points="1451.12,1107.72 1451.12,1324.13"/>
<polyline class="Stem" fill="none" stroke="#000000" stroke-width="6.16" stroke-linejoin="bevel" points="1618.58,1163.7 1618.58,1324.13"/>
<polyline class="Stem" fill="none" stroke="#000000" stroke-width="6.16" stroke-linejoin="bevel" points="1723.23,1219.69 1723.23,1380.12"/>
<polyline class="Stem" fill="none" stroke="#000000" stroke-width="6.16" stroke-linejoin="bevel" points="1962.83,1191.7 1962.83,1380.12"/>
<polyline class="Stem" fill="none" stroke="#000000" stroke-width="6.16" stroke-linejoin="bevel" points="2099.48,1247.68 2099.48,1436.1"/>
<polyline class="Stem" fill="none" stroke="#000000" stroke-width="6.16" stroke-linejoin="bevel" points="2405.68,1288.98 2405.68,1114.19"/>
<polyline class="Stem" fill="none" stroke="#000000" stroke-width="6.16" stroke-linejoin="bevel" points="2512.8,1260.98 2512.8,1100.2"/>
<polyline class="Stem" fill="none" stroke="#000000" stroke-width="6.16" stroke-linejoin="bevel" points="2553.31,1247.68 2553.31,1394.11"/>
<polyline class="Stem" fill="none" stroke="#000000" stroke-width="6.16" stroke-linejoin="bevel" points="2660.43,1219.69 2660.43,1380.12"/>
<polyline class="Stem" fill="none" stroke="#000000" stroke-width="6.16" stroke-linejoin="bevel" points="2900.03,1191.7 2900.03,1366.12"/>
<polyline class="Stem" fill="none" stroke="#000000" stroke-width="6.16" stroke-linejoin="bevel" points="3007.14,1247.68 3007.14,1394.11"/>
<polyline class="Stem" fill="none" stroke="#000000" stroke-width="6.16" stroke-linejoin="bevel" points="3180.87,1260.98 3180.87,1100.2"/>
<polyline class="Stem" fill="none" stroke="#000000" stroke-width="6.16" stroke-linejoin="bevel" points="3287.99,1288.98 3287.99,1114.19"/>
<polyline class="Stem" fill="none" stroke="#000000" stroke-width="6.16" stroke-linejoin="bevel" points="3460.98,1275.67 3460.98,1457.1"/>
<polyline class="Stem" fill="none" stroke="#000000" stroke-width="6.16" stroke-linejoin="bevel" points="3597.63,1247.68 3597.63,1436.1"/>
<polyline class="Stem" fill="none" stroke="#000000" stroke-width="6.16" stroke-linejoin="bevel" points="3903.83,1288.98 3903.83,1128.19"/>
<polyline class="Stem" fill="none" stroke="#000000" stroke-width="6.16" stroke-linejoin="bevel" points="421.572,1857.13 421.572,2073.54"/>
<polyline class="Stem" fill="none" stroke="#000000" stroke-width="6.16" stroke-linejoin="bevel" points="601.703,1913.11 601.703,2073.54"/>
<polyline class="Stem" fill="none" stroke="#000000" stroke-width="6.16" stroke-linejoin="bevel" points="714.285,1969.1 714.285,2129.53"/>
<polyline class="Stem" fill="none" stroke="#000000" stroke-width="6.16" stroke-linejoin="bevel" points="953.88,1941.11 953.88,2129.53"/>
<polyline class="Stem" fill="none" stroke="#000000" stroke-width="6.16" stroke-linejoin="bevel" points="1110.87,1997.09 1110.87,2185.51"/>
<polyline class="Stem" fill="none" stroke="#000000" stroke-width="6.16" stroke-linejoin="bevel" points="1370.32,1857.13 1370.32,2073.54"/>
<polyline class="Stem" fill="none" stroke="#000000" stroke-width="6.16" stroke-linejoin="bevel" points="1550.45,1913.11 1550.45,2073.54"/>
<polyline class="Stem" fill="none" stroke="#000000" stroke-width="6.16" stroke-linejoin="bevel" points="1663.03,1969.1 1663.03,2129.53"/>
<polyline class="Stem" fill="none" stroke="#000000" stroke-width="6.16" stroke-linejoin="bevel" points="1902.63,1941.11 1902.63,2129.53"/>
<polyline class="Stem" fill="none" stroke="#000000" stroke-width="6.16" stroke-linejoin="bevel" points="2059.62,1997.09 2059.62,2185.51"/>
<polyline class="Stem" fill="none" stroke="#000000" stroke-width="6.16" stroke-linejoin="bevel" points="2366.08,2038.38 2366.08,1863.6"/>
<polyline class="Stem" fill="none" stroke="#000000" stroke-width="6.16" stroke-linejoin="bevel" points="2480.06,2010.39 2480.06,1849.61"/>
<polyline class="Stem" fill="none" stroke="#000000" stroke-width="6.16" stroke-linejoin="bevel" points="2527.45,1997.09 2527.45,2143.52"/>
<polyline class="Stem" fill="none" stroke="#000000" stroke-width="6.16" stroke-linejoin="bevel" points="2641.43,1969.1 2641.43,2129.53"/>
<polyline class="Stem" fill="none" stroke="#000000" stroke-width="6.16" stroke-linejoin="bevel" points="2881.03,1941.11 2881.03,2115.53"/>
<polyline class="Stem" fill="none" stroke="#000000" stroke-width="6.16" stroke-linejoin="bevel" points="2995.01,1997.09 2995.01,2143.52"/>
<polyline class="Stem" fill="none" stroke="#000000" stroke-width="6.16" stroke-linejoin="bevel" points="3175.6,2010.39 3175.6,1849.61"/>
<polyline class="Stem" fill="none" stroke="#000000" stroke-width="6.16" stroke-linejoin="bevel" points="3289.59,2038.38 3289.59,1863.6"/>
<polyline class="Stem" fill="none" stroke="#000000" stroke-width="6.16" stroke-linejoin="bevel" points="3462.58,2025.08 3462.58,2206.5"/>
<polyline class="Stem" fill="none" stroke="#000000" stroke-width="6.16" stroke-linejoin="bevel" points="3619.58,1997.09 3619.58,2185.51"/>
<polyline class="Stem" fill="none" stroke="#000000" stroke-width="6.16" stroke-linejoin="bevel" points="3926.03,2038.38 3926.03,1877.6"/>
<path class="Note" transform="matrix(2.23937,0,0,2.23937,522.781,546.732)" d="M31.5,-8.1 C29.7,-11.4 25.9,-13.2 21.3,-13.2 C17.9,-13.2 14.2,-12.2 10.6,-10.3 C4,-6.8 0,-0.9 0,4.2 C0,5.6 0.3,7 1,8.3 C2.8,11.6 6.6,13.3 11.2,13.3 C14.6,13.3 18.3,12.4 21.9,10.5 C28.5,7 32.5,1.1 32.5,-4 C32.5,-5.4 32.2,-6.8 31.5,-8.1"/>
<path class="Note" transform="matrix(2.23937,0,0,2.23937,624.739,518.74)" d="M31.5,-8.1 C29.7,-11.4 25.9,-13.2 21.3,-13.2 C17.9,-13.2 14.2,-12.2 10.6,-10.3 C4,-6.8 0,-0.9 0,4.2 C0,5.6 0.3,7 1,8.3 C2.8,11.6 6.6,13.3 11.2,13.3 C14.6,13.3 18.3,12.4 21.9,10.5 C28.5,7 32.5,1.1 32.5,-4 C32.5,-5.4 32.2,-6.8 31.5,-8.1"/>
<path class="Note" transform="matrix(2.23937,0,0,2.23937,726.696,490.748)" d="M31.5,-8.1 C29.7,-11.4 25.9,-13.2 21.3,-13.2 C17.9,-13.2 14.2,-12.2 10.6,-10.3 C4,-6.8 0,-0.9 0,4.2 C0,5.6 0.3,7 1,8.3 C2.8,11.6 6.6,13.3 11.2,13.3 C14.6,13.3 18.3,12.4 21.9,10.5 C28.5,7 32.5,1.1 32.5,-4 C32.5,-5.4 32.2,-6.8 31.5,-8.1"/>
<path class="Note" transform="matrix(2.23937,0,0,2.23937,828.654,462.756)" d="M31.5,-8.1 C29.7,-11.4 25.9,-13.2 21.3,-13.2 C17.9,-13.2 14.2,-12.2 10.6,-10.3 C4,-6.8 0,-0.9 0,4.2 C0,5.6 0.3,7 1,8.3 C2.8,11.6 6.6,13.3 11.2,13.3 C14.6,13.3 18.3,12.4 21.9,10.5 C28.5,7 32.5,1.1 32.5,-4 C32.5,-5.4 32.2,-6.8 31.5,-8.1"/>
<path class="Note" transform="matrix(2.23937,0,0,2.23937,1068.25,434.764)" d="M31.5,-8.1 C29.7,-11.4 25.9,-13.2 21.3,-13.2 C17.9,-13.2 14.2,-12.2 10.6,-10.3 C4,-6.8 0,-0.9 0,4.2 C0,5.6 0.3,7 1,8.3 C2.8,11.6 6.6,13.3 11.2,13.3 C14.6,13.3 18.3,12.4 21.9,10.5 C28.5,7 32.5,1.1 32.5,-4 C32.5,-5.4 32.2,-6.8 31.5,-8.1"/>
<path class="Note" transform="matrix(2.23937,0,0,2.23937,1197.81,490.748)" d="M31.5,-8.1 C29.7,-11.4 25.9,-13.2 21.3,-13.2 C17.9,-13.2 14.2,-12.2 10.6,-10.3 C4,-6.8 0,-0.9 0,4.2 C0,5.6 0.3,7 1,8.3 C2.8,11.6 6.6,13.3 11.2,13.3 C14.6,13.3 18.3,12.4 21.9,10.5 C28.5,7 32.5,1.1 32.5,-4 C32.5,-5.4 32.2,-6.8 31.5,-8.1"/>
<path class="Note" transform="matrix(2.23937,0,0,2.23937,1281.77,546.732)" d="M31.5,-8.1 C29.7,-11.4 25.9,-13.2 21.3,-13.2 C17.9,-13.2 14.2,-12.2 10.6,-10.3 C4,-6.8 0,-0.9 0,4.2 C0,5.6 0.3,7 1,8.3 C2.8,11.6 6.6,13.3 11.2,13.3 C14.6,13.3 18.3,12.4 21.9,10.5 C28.5,7 32.5,1.1 32.5,-4 C32.5,-5.4 32.2,-6.8 31.5,-8.1"/>
<path class="Note" transform="matrix(2.23937,0,0,2.23937,1540.96,350.787)" d="M31.5,-8.1 C29.7,-11.4 25.9,-13.2 21.3,-13.2 C17.9,-13.2 14.2,-12.2 10.6,-10.3 C4,-6.8 0,-0.9 0,4.2 C0,5.6 0.3,7 1,8.3 C2.8,11.6 6.6,13.3 11.2,13.3 C14.6,13.3 18.3,12.4 21.9,10.5 C28.5,7 32.5,1.1 32.5,-4 C32.5,-5.4 32.2,-6.8 31.5,-8.1"/>
<path class="Note" transform="matrix(2.23937,0,0,2.23937,1698.88,406.772)" d="M31.5,-8.1 C29.7,-11.4 25.9,-13.2 21.3,-13.2 C17.9,-13.2 14.2,-12.2 10.6,-10.3 C4,-6.8 0,-0.9 0,4.2 C0,5.6 0.3,7 1,8.3 C2.8,11.6 6.6,13.3 11.2,13.3 C14.6,13.3 18.3,12.4 21.9,10.5 C28.5,7 32.5,1.1 32.5,-4 C32.5,-5.4 32.2,-6.8 31.5,-8.1"/>
<path class="Note" transform="matrix(2.23937,0,0,2.23937,1797.58,462.756)" d="M31.5,-8.1 C29.7,-11.4 25.9,-13.2 21.3,-13.2 C17.9,-13.2 14.2,-12.2 10.6,-10.3 C4,-6.8 0,-0.9 0,4.2 C0,5.6 0.3,7 1,8.3 C2.8,11.6 6.6,13.3 11.2,13.3 C14.6,13.3 18.3,12.4 21.9,10.5 C28.5,7 32.5,1.1 32.5,-4 C32.5,-5.4 32.2,-6.8 31.5,-8.1"/>
<path class="Note" transform="matrix(2.23937,0,0,2.23937,2037.18,434.764)" d="M31.5,-8.1 C29.7,-11.4 25.9,-13.2 21.3,-13.2 C17.9,-13.2 14.2,-12.2 10.6,-10.3 C4,-6.8 0,-0.9 0,4.2 C0,5.6 0.3,7 1,8.3 C2.8,11.6 6.6,13.3 11.2,13.3 C14.6,13.3 18.3,12.4 21.9,10.5 C28.5,7 32.5,1.1 32.5,-4 C32.5,-5.4 32.2,-6.8 31.5,-8.1"/>
<path class="Note" transform="matrix(2.23937,0,0,2.23937,2158.34,490.748)" d="M31.5,-8.1 C29.7,-11.4 25.9,-13.2 21.3,-13.2 C17.9,-13.2 14.2,-12.2 10.6,-10.3 C4,-6.8 0,-0.9 0,4.2 C0,5.6 0.3,7 1,8.3 C2.8,11.6 6.6,13.3 11.2,13.3 C14.6,13.3 18.3,12.4 21.9,10.5 C28.5,7 32.5,1.1 32.5,-4 C32.5,-5.4 32.2,-6.8 31.5,-8.1"/>
<path class="Note" transform="matrix(2.23937,0,0,2.23937,2397.93,546.732)" d="M31.5,-8.1 C29.7,-11.4 25.9,-13.2 21.3,-13.2 C17.9,-13.2 14.2,-12.2 10.6,-10.3 C4,-6.8 0,-0.9 0,4.2 C0,5.6 0.3,7 1,8.3 C2.8,11.6 6.6,13.3 11.2,13.3 C14.6,13.3 18.3,12.4 21.9,10.5 C28.5,7 32.5,1.1 32.5,-4 C32.5,-5.4 32.2,-6.8 31.5,-8.1"/>
<path class="Note" transform="matrix(2.23937,0,0,2.23937,2499.89,518.74)" d="M31.5,-8.1 C29.7,-11.4 25.9,-13.2 21.3,-13.2 C17.9,-13.2 14.2,-12.2 10.6,-10.3 C4,-6.8 0,-0.9 0,4.2 C0,5.6 0.3,7 1,8.3 C2.8,11.6 6.6,13.3 11.2,13.3 C14.6,13.3 18.3,12.4 21.9,10.5 C28.5,7 32.5,1.1 32.5,-4 C32.5,-5.4 32.2,-6.8 31.5,-8.1"/>
<path class="Note" transform="matrix(2.23937,0,0,2.23937,2601.85,490.748)" d="M31.5,-8.1 C29.7,-11.4 25.9,-13.2 21.3,-13.2 C17.9,-13.2 14.2,-12.2 10.6,-10.3 C4,-6.8 0,-0.9 0,4.2 C0,5.6 0.3,7 1,8.3 C2.8,11.6 6.6,13.3 11.2,13.3 C14.6,13.3 18.3,12.4 21.9,10.5 C28.5,7 32.5,1.1 32.5,-4 C32.5,-5.4 32.2,-6.8 31.5,-8.1"/>
<path class="Note" transform="matrix(2.23937,0,0,2.23937,2703.81,462.756)" d="M31.5,-8.1 C29.7,-11.4 25.9,-13.2 21.3,-13.2 C17.9,-13.2 14.2,-12.2 10.6,-10.3 C4,-6.8 0,-0.9 0,4.2 C0,5.6 0.3,7 1,8.3 C2.8,11.6 6.6,13.3 11.2,13.3 C14.6,13.3 18.3,12.4 21.9,10.5 C28.5,7 32.5,1.1 32.5,-4 C32.5,-5.4 32.2,-6.8 31.5,-8.1"/>
<path class="Note" transform="matrix(2.23937,0,0,2.23937,2943.4,434.764)" d="M31.5,-8.1 C29.7,-11.4 25.9,-13.2 21.3,-13.2 C17.9,-13.2 14.2,-12.2 10.6,-10.3 C4,-6.8 0,-0.9 0,4.2 C0,5.6 0.3,7 1,8.3 C2.8,11.6 6.6,13.3 11.2,13.3 C14.6,13.3 18.3,12.4 21.9,10.5 C28.5,7 32.5,1.1 32.5,-4 C32.5,-5.4 32.2,-6.8 31.5,-8.1"/>
<path class="Note" transform="matrix(2.23937,0,0,2.23937,3045.36,490.748)" d="M31.5,-8.1 C29.7,-11.4 25.9,-13.2 21.3,-13.2 C17.9,-13.2 14.2,-12.2 10.6,-10.3 C4,-6.8 0,-0.9 0,4.2 C0,5.6 0.3,7 1,8.3 C2.8,11.6 6.6,13.3 11.2,13.3 C14.6,13.3 18.3,12.4 21.9,10.5 C28.5,7 32.5,1.1 32.5,-4 C32.5,-5.4 32.2,-6.8 31.5,-8.1"/>
<path class="Note" transform="matrix(2.23937,0,0,2.23937,3147.32,518.74)" d="M31.5,-8.1 C29.7,-11.4 25.9,-13.2 21.3,-13.2 C17.9,-13.2 14.2,-12.2 10.6,-10.3 C4,-6.8 0,-0.9 0,4.2 C0,5.6 0.3,7 1,8.3 C2.8,11.6 6.6,13.3 11.2,13.3 C14.6,13.3 18.3,12.4 21.9,10.5 C28.5,7 32.5,1.1 32.5,-4 C32.5,-5.4 32.2,-6.8 31.5,-8.1"/>
<path class="Note" transform="matrix(2.23937,0,0,2.23937,3249.27,546.732)" d="M31.5,-8.1 C29.7,-11.4 25.9,-13.2 21.3,-13.2 C17.9,-13.2 14.2,-12.2 10.6,-10.3 C4,-6.8 0,-0.9 0,4.2 C0,5.6 0.3,7 1,8.3 C2.8,11.6 6.6,13.3 11.2,13.3 C14.6,13.3 18.3,12.4 21.9,10.5 C28.5,7 32.5,1.1 32.5,-4 C32.5,-5.4 32.2,-6.8 31.5,-8.1"/>
<path class="Note" transform="matrix(2.23937,0,0,2.23937,3488.87,518.74)" d="M31.5,-8.1 C29.7,-11.4 25.9,-13.2 21.3,-13.2 C17.9,-13.2 14.2,-12.2 10.6,-10.3 C4,-6.8 0,-0.9 0,4.2 C0,5.6 0.3,7 1,8.3 C2.8,11.6 6.6,13.3 11.2,13.3 C14.6,13.3 18.3,12.4 21.9,10.5 C28.5,7 32.5,1.1 32.5,-4 C32.5,-5.4 32.2,-6.8 31.5,-8.1"/>
<path class="Note" transform="matrix(2.23937,0,0,2.23937,3610.03,490.748)" d="M31.5,-8.1 C29.7,-11.4 25.9,-13.2 21.3,-13.2 C17.9,-13.2 14.2,-12.2 10.6,-10.3 C4,-6.8 0,-0.9 0,4.2 C0,5.6 0.3,7 1,8.3 C2.8,11.6 6.6,13.3 11.2,13.3 C14.6,13.3 18.3,12.4 21.9,10.5 C28.5,7 32.5,1.1 32.5,-4 C32.5,-5.4 32.2,-6.8 31.5,-8.1"/>
<path class="Note" transform="matrix(2.23937,0,0,2.23937,3849.63,518.74)" d="M31.5,-8.1 C29.7,-11.4 25.9,-13.2 21.3,-13.2 C17.9,-13.2 14.2,-12.2 10.6,-10.3 C4,-6.8 0,-0.9 0,4.2 C0,5.6 0.3,7 1,8.3 C2.8,11.6 6.6,13.3 11.2,13.3 C14.6,13.3 18.3,12.4 21.9,10.5 C28.5,7 32.5,1.1 32.5,-4 C32.5,-5.4 32.2,-6.8 31.5,-8.1"/>
<path class="Note" transform="matrix(2.23937,0,0,2.23937,398.899,1296.14)" d="M31.5,-8.1 C29.7,-11.4 25.9,-13.2 21.3,-13.2 C17.9,-13.2 14.2,-12.2 10.6,-10.3 C4,-6.8 0,-0.9 0,4.2 C0,5.6 0.3,7 1,8.3 C2.8,11.6 6.6,13.3 11.2,13.3 C14.6,13.3 18.3,12.4 21.9,10.5 C28.5,7 32.5,1.1 32.5,-4 C32.5,-5.4 32.2,-6.8 31.5,-8.1"/>
<path class="Note" transform="matrix(2.23937,0,0,2.23937,506.018,1268.15)" d="M31.5,-8.1 C29.7,-11.4 25.9,-13.2 21.3,-13.2 C17.9,-13.2 14.2,-12.2 10.6,-10.3 C4,-6.8 0,-0.9 0,4.2 C0,5.6 0.3,7 1,8.3 C2.8,11.6 6.6,13.3 11.2,13.3 C14.6,13.3 18.3,12.4 21.9,10.5 C28.5,7 32.5,1.1 32.5,-4 C32.5,-5.4 32.2,-6.8 31.5,-8.1"/>
<path class="Note" transform="matrix(2.23937,0,0,2.23937,613.137,1240.16)" d="M31.5,-8.1 C29.7,-11.4 25.9,-13.2 21.3,-13.2 C17.9,-13.2 14.2,-12.2 10.6,-10.3 C4,-6.8 0,-0.9 0,4.2 C0,5.6 0.3,7 1,8.3 C2.8,11.6 6.6,13.3 11.2,13.3 C14.6,13.3 18.3,12.4 21.9,10.5 C28.5,7 32.5,1.1 32.5,-4 C32.5,-5.4 32.2,-6.8 31.5,-8.1"/>
<path class="Note" transform="matrix(2.23937,0,0,2.23937,720.256,1212.16)" d="M31.5,-8.1 C29.7,-11.4 25.9,-13.2 21.3,-13.2 C17.9,-13.2 14.2,-12.2 10.6,-10.3 C4,-6.8 0,-0.9 0,4.2 C0,5.6 0.3,7 1,8.3 C2.8,11.6 6.6,13.3 11.2,13.3 C14.6,13.3 18.3,12.4 21.9,10.5 C28.5,7 32.5,1.1 32.5,-4 C32.5,-5.4 32.2,-6.8 31.5,-8.1"/>
<path class="Note" transform="matrix(2.23937,0,0,2.23937,959.852,1184.17)" d="M31.5,-8.1 C29.7,-11.4 25.9,-13.2 21.3,-13.2 C17.9,-13.2 14.2,-12.2 10.6,-10.3 C4,-6.8 0,-0.9 0,4.2 C0,5.6 0.3,7 1,8.3 C2.8,11.6 6.6,13.3 11.2,13.3 C14.6,13.3 18.3,12.4 21.9,10.5 C28.5,7 32.5,1.1 32.5,-4 C32.5,-5.4 32.2,-6.8 31.5,-8.1"/>
<path class="Note" transform="matrix(2.23937,0,0,2.23937,1100.78,1240.16)" d="M31.5,-8.1 C29.7,-11.4 25.9,-13.2 21.3,-13.2 C17.9,-13.2 14.2,-12.2 10.6,-10.3 C4,-6.8 0,-0.9 0,4.2 C0,5.6 0.3,7 1,8.3 C2.8,11.6 6.6,13.3 11.2,13.3 C14.6,13.3 18.3,12.4 21.9,10.5 C28.5,7 32.5,1.1 32.5,-4 C32.5,-5.4 32.2,-6.8 31.5,-8.1"/>
<path class="Note" transform="matrix(2.23937,0,0,2.23937,1188.85,1296.14)" d="M31.5,-8.1 C29.7,-11.4 25.9,-13.2 21.3,-13.2 C17.9,-13.2 14.2,-12.2 10.6,-10.3 C4,-6.8 0,-0.9 0,4.2 C0,5.6 0.3,7 1,8.3 C2.8,11.6 6.6,13.3 11.2,13.3 C14.6,13.3 18.3,12.4 21.9,10.5 C28.5,7 32.5,1.1 32.5,-4 C32.5,-5.4 32.2,-6.8 31.5,-8.1"/>
<path class="Note" transform="matrix(2.23937,0,0,2.23937,1448.04,1100.2)" d="M31.5,-8.1 C29.7,-11.4 25.9,-13.2 21.3,-13.2 C17.9,-13.2 14.2,-12.2 10.6,-10.3 C4,-6.8 0,-0.9 0,4.2 C0,5.6 0.3,7 1,8.3 C2.8,11.6 6.6,13.3 11.2,13.3 C14.6,13.3 18.3,12.4 21.9,10.5 C28.5,7 32.5,1.1 32.5,-4 C32.5,-5.4 32.2,-6.8 31.5,-8.1"/>
<path class="Note" transform="matrix(2.23937,0,0,2.23937,1615.5,1156.18)" d="M31.5,-8.1 C29.7,-11.4 25.9,-13.2 21.3,-13.2 C17.9,-13.2 14.2,-12.2 10.6,-10.3 C4,-6.8 0,-0.9 0,4.2 C0,5.6 0.3,7 1,8.3 C2.8,11.6 6.6,13.3 11.2,13.3 C14.6,13.3 18.3,12.4 21.9,10.5 C28.5,7 32.5,1.1 32.5,-4 C32.5,-5.4 32.2,-6.8 31.5,-8.1"/>
<path class="Note" transform="matrix(2.23937,0,0,2.23937,1720.15,1212.16)" d="M31.5,-8.1 C29.7,-11.4 25.9,-13.2 21.3,-13.2 C17.9,-13.2 14.2,-12.2 10.6,-10.3 C4,-6.8 0,-0.9 0,4.2 C0,5.6 0.3,7 1,8.3 C2.8,11.6 6.6,13.3 11.2,13.3 C14.6,13.3 18.3,12.4 21.9,10.5 C28.5,7 32.5,1.1 32.5,-4 C32.5,-5.4 32.2,-6.8 31.5,-8.1"/>
<path class="Note" transform="matrix(2.23937,0,0,2.23937,1959.75,1184.17)" d="M31.5,-8.1 C29.7,-11.4 25.9,-13.2 21.3,-13.2 C17.9,-13.2 14.2,-12.2 10.6,-10.3 C4,-6.8 0,-0.9 0,4.2 C0,5.6 0.3,7 1,8.3 C2.8,11.6 6.6,13.3 11.2,13.3 C14.6,13.3 18.3,12.4 21.9,10.5 C28.5,7 32.5,1.1 32.5,-4 C32.5,-5.4 32.2,-6.8 31.5,-8.1"/>
<path class="Note" transform="matrix(2.23937,0,0,2.23937,2096.4,1240.16)" d="M31.5,-8.1 C29.7,-11.4 25.9,-13.2 21.3,-13.2 C17.9,-13.2 14.2,-12.2 10.6,-10.3 C4,-6.8 0,-0.9 0,4.2 C0,5.6 0.3,7 1,8.3 C2.8,11.6 6.6,13.3 11.2,13.3 C14.6,13.3 18.3,12.4 21.9,10.5 C28.5,7 32.5,1.1 32.5,-4 C32.5,-5.4 32.2,-6.8 31.5,-8.1"/>
<path class="Note" transform="matrix(2.23937,0,0,2.23937,2335.99,1296.14)" d="M31.5,-8.1 C29.7,-11.4 25.9,-13.2 21.3,-13.2 C17.9,-13.2 14.2,-12.2 10.6,-10.3 C4,-6.8 0,-0.9 0,4.2 C0,5.6 0.3,7 1,8.3 C2.8,11.6 6.6,13.3 11.2,13.3 C14.6,13.3 18.3,12.4 21.9,10.5 C28.5,7 32.5,1.1 32.5,-4 C32.5,-5.4 32.2,-6.8 31.5,-8.1"/>
<path class="Note" transform="matrix(2.23937,0,0,2.23937,2443.11,1268.15)" d="M31.5,-8.1 C29.7,-11.4 25.9,-13.2 21.3,-13.2 C17.9,-13.2 14.2,-12.2 10.6,-10.3 C4,-6.8 0,-0.9 0,4.2 C0,5.6 0.3,7 1,8.3 C2.8,11.6 6.6,13.3 11.2,13.3 C14.6,13.3 18.3,12.4 21.9,10.5 C28.5,7 32.5,1.1 32.5,-4 C32.5,-5.4 32.2,-6.8 31.5,-8.1"/>
<path class="Note" transform="matrix(2.23937,0,0,2.23937,2550.23,1240.16)" d="M31.5,-8.1 C29.7,-11.4 25.9,-13.2 21.3,-13.2 C17.9,-13.2 14.2,-12.2 10.6,-10.3 C4,-6.8 0,-0.9 0,4.2 C0,5.6 0.3,7 1,8.3 C2.8,11.6 6.6,13.3 11.2,13.3 C14.6,13.3 18.3,12.4 21.9,10.5 C28.5,7 32.5,1.1 32.5,-4 C32.5,-5.4 32.2,-6.8 31.5,-8.1"/>
<path class="Note" transform="matrix(2.23937,0,0,2.23937,2657.35,1212.16)" d="M31.5,-8.1 C29.7,-11.4 25.9,-13.2 21.3,-13.2 C17.9,-13.2 14.2,-12.2 10.6,-10.3 C4,-6.8 0,-0.9 0,4.2 C0,5.6 0.3,7 1,8.3 C2.8,11.6 6.6,13.3 11.2,13.3 C14.6,13.3 18.3,12.4 21.9,10.5 C28.5,7 32.5,1.1 32.5,-4 C32.5,-5.4 32.2,-6.8 31.5,-8.1"/>
<path class="Note" transform="matrix(2.23937,0,0,2.23937,2896.95,1184.17)" d="M31.5,-8.1 C29.7,-11.4 25.9,-13.2 21.3,-13.2 C17.9,-13.2 14.2,-12.2 10.6,-10.3 C4,-6.8 0,-0.9 0,4.2 C0,5.6 0.3,7 1,8.3 C2.8,11.6 6.6,13.3 11.2,13.3 C14.6,13.3 18.3,12.4 21.9,10.5 C28.5,7 32.5,1.1 32.5,-4 C32.5,-5.4 32.2,-6.8 31.5,-8.1"/>
<path class="Note" transform="matrix(2.23937,0,0,2.23937,3004.07,1240.16)" d="M31.5,-8.1 C29.7,-11.4 25.9,-13.2 21.3,-13.2 C17.9,-13.2 14.2,-12.2 10.6,-10.3 C4,-6.8 0,-0.9 0,4.2 C0,5.6 0.3,7 1,8.3 C2.8,11.6 6.6,13.3 11.2,13.3 C14.6,13.3 18.3,12.4 21.9,10.5 C28.5,7 32.5,1.1 32.5,-4 C32.5,-5.4 32.2,-6.8 31.5,-8.1"/>
<path class="Note" transform="matrix(2.23937,0,0,2.23937,3111.18,1268.15)" d="M31.5,-8.1 C29.7,-11.4 25.9,-13.2 21.3,-13.2 C17.9,-13.2 14.2,-12.2 10.6,-10.3 C4,-6.8 0,-0.9 0,4.2 C0,5.6 0.3,7 1,8.3 C2.8,11.6 6.6,13.3 11.2,13.3 C14.6,13.3 18.3,12.4 21.9,10.5 C28.5,7 32.5,1.1 32.5,-4 C32.5,-5.4 32.2,-6.8 31.5,-8.1"/>
<path class="Note" transform="matrix(2.23937,0,0,2.23937,3218.3,1296.14)" d="M31.5,-8.1 C29.7,-11.4 25.9,-13.2 21.3,-13.2 C17.9,-13.2 14.2,-12.2 10.6,-10.3 C4,-6.8 0,-0.9 0,4.2 C0,5.6 0.3,7 1,8.3 C2.8,11.6 6.6,13.3 11.2,13.3 C14.6,13.3 18.3,12.4 21.9,10.5 C28.5,7 32.5,1.1 32.5,-4 C32.5,-5.4 32.2,-6.8 31.5,-8.1"/>
<path class="Note" transform="matrix(2.23937,0,0,2.23937,3457.9,1268.15)" d="M31.5,-8.1 C29.7,-11.4 25.9,-13.2 21.3,-13.2 C17.9,-13.2 14.2,-12.2 10.6,-10.3 C4,-6.8 0,-0.9 0,4.2 C0,5.6 0.3,7 1,8.3 C2.8,11.6 6.6,13.3 11.2,13.3 C14.6,13.3 18.3,12.4 21.9,10.5 C28.5,7 32.5,1.1 32.5,-4 C32.5,-5.4 32.2,-6.8 31.5,-8.1"/>
<path class="Note" transform="matrix(2.23937,0,0,2.23937,3594.55,1240.16)" d="M31.5,-8.1 C29.7,-11.4 25.9,-13.2 21.3,-13.2 C17.9,-13.2 14.2,-12.2 10.6,-10.3 C4,-6.8 0,-0.9 0,4.2 C0,5.6 0.3,7 1,8.3 C2.8,11.6 6.6,13.3 11.2,13.3 C14.6,13.3 18.3,12.4 21.9,10.5 C28.5,7 32.5,1.1 32.5,-4 C32.5,-5.4 32.2,-6.8 31.5,-8.1"/>
<path class="Note" transform="matrix(2.23937,0,0,2.23937,3834.14,1296.14)" d="M31.5,-8.1 C29.7,-11.4 25.9,-13.2 21.3,-13.2 C17.9,-13.2 14.2,-12.2 10.6,-10.3 C4,-6.8 0,-0.9 0,4.2 C0,5.6 0.3,7 1,8.3 C2.8,11.6 6.6,13.3 11.2,13.3 C14.6,13.3 18.3,12.4 21.9,10.5 C28.5,7 32.5,1.1 32.5,-4 C32.5,-5.4 32.2,-6.8 31.5,-8.1"/>
<path class="Note" transform="matrix(2.23937,0,0,2.23937,418.493,1849.61)" d="M31.5,-8.1 C29.7,-11.4 25.9,-13.2 21.3,-13.2 C17.9,-13.2 14.2,-12.2 10.6,-10.3 C4,-6.8 0,-0.9 0,4.2 C0,5.6 0.3,7 1,8.3 C2.8,11.6 6.6,13.3 11.2,13.3 C14.6,13.3 18.3,12.4 21.9,10.5 C28.5,7 32.5,1.1 32.5,-4 C32.5,-5.4 32.2,-6.8 31.5,-8.1"/>
<path class="Note" transform="matrix(2.23937,0,0,2.23937,598.624,1905.59)" d="M31.5,-8.1 C29.7,-11.4 25.9,-13.2 21.3,-13.2 C17.9,-13.2 14.2,-12.2 10.6,-10.3 C4,-6.8 0,-0.9 0,4.2 C0,5.6 0.3,7 1,8.3 C2.8,11.6 6.6,13.3 11.2,13.3 C14.6,13.3 18.3,12.4 21.9,10.5 C28.5,7 32.5,1.1 32.5,-4 C32.5,-5.4 32.2,-6.8 31.5,-8.1"/>
<path class="Note" transform="matrix(2.23937,0,0,2.23937,711.206,1961.57)" d="M31.5,-8.1 C29.7,-11.4 25.9,-13.2 21.3,-13.2 C17.9,-13.2 14.2,-12.2 10.6,-10.3 C4,-6.8 0,-0.9 0,4.2 C0,5.6 0.3,7 1,8.3 C2.8,11.6 6.6,13.3 11.2,13.3 C14.6,13.3 18.3,12.4 21.9,10.5 C28.5,7 32.5,1.1 32.5,-4 C32.5,-5.4 32.2,-6.8 31.5,-8.1"/>
<path class="Note" transform="matrix(2.23937,0,0,2.23937,950.801,1933.58)" d="M31.5,-8.1 C29.7,-11.4 25.9,-13.2 21.3,-13.2 C17.9,-13.2 14.2,-12.2 10.6,-10.3 C4,-6.8 0,-0.9 0,4.2 C0,5.6 0.3,7 1,8.3 C2.8,11.6 6.6,13.3 11.2,13.3 C14.6,13.3 18.3,12.4 21.9,10.5 C28.5,7 32.5,1.1 32.5,-4 C32.5,-5.4 32.2,-6.8 31.5,-8.1"/>
<path class="Note" transform="matrix(2.23937,0,0,2.23937,1107.8,1989.57)" d="M31.5,-8.1 C29.7,-11.4 25.9,-13.2 21.3,-13.2 C17.9,-13.2 14.2,-12.2 10.6,-10.3 C4,-6.8 0,-0.9 0,4.2 C0,5.6 0.3,7 1,8.3 C2.8,11.6 6.6,13.3 11.2,13.3 C14.6,13.3 18.3,12.4 21.9,10.5 C28.5,7 32.5,1.1 32.5,-4 C32.5,-5.4 32.2,-6.8 31.5,-8.1"/>
<path class="Note" transform="matrix(2.23937,0,0,2.23937,1367.24,1849.61)" d="M31.5,-8.1 C29.7,-11.4 25.9,-13.2 21.3,-13.2 C17.9,-13.2 14.2,-12.2 10.6,-10.3 C4,-6.8 0,-0.9 0,4.2 C0,5.6 0.3,7 1,8.3 C2.8,11.6 6.6,13.3 11.2,13.3 C14.6,13.3 18.3,12.4 21.9,10.5 C28.5,7 32.5,1.1 32.5,-4 C32.5,-5.4 32.2,-6.8 31.5,-8.1"/>
<path class="Note" transform="matrix(2.23937,0,0,2.23937,1547.37,1905.59)" d="M31.5,-8.1 C29.7,-11.4 25.9,-13.2 21.3,-13.2 C17.9,-13.2 14.2,-12.2 10.6,-10.3 C4,-6.8 0,-0.9 0,4.2 C0,5.6 0.3,7 1,8.3 C2.8,11.6 6.6,13.3 11.2,13.3 C14.6,13.3 18.3,12.4 21.9,10.5 C28.5,7 32.5,1.1 32.5,-4 C32.5,-5.4 32.2,-6.8 31.5,-8.1"/>
<path class="Note" transform="matrix(2.23937,0,0,2.23937,1659.95,1961.57)" d="M31.5,-8.1 C29.7,-11.4 25.9,-13.2 21.3,-13.2 C17.9,-13.2 14.2,-12.2 10.6,-10.3 C4,-6.8 0,-0.9 0,4.2 C0,5.6 0.3,7 1,8.3 C2.8,11.6 6.6,13.3 11.2,13.3 C14.6,13.3 18.3,12.4 21.9,10.5 C28.5,7 32.5,1.1 32.5,-4 C32.5,-5.4 32.2,-6.8 31.5,-8.1"/>
<path class="Note" transform="matrix(2.23937,0,0,2.23937,1899.55,1933.58)" d="M31.5,-8.1 C29.7,-11.4 25.9,-13.2 21.3,-13.2 C17.9,-13.2 14.2,-12.2 10.6,-10.3 C4,-6.8 0,-0.9 0,4.2 C0,5.6 0.3,7 1,8.3 C2.8,11.6 6.6,13.3 11.2,13.3 C14.6,13.3 18.3,12.4 21.9,10.5 C28.5,7 32.5,1.1 32.5,-4 C32.5,-5.4 32.2,-6.8 31.5,-8.1"/>
<path class="Note" transform="matrix(2.23937,0,0,2.23937,2056.54,1989.57)" d="M31.5,-8.1 C29.7,-11.4 25.9,-13.2 21.3,-13.2 C17.9,-13.2 14.2,-12.2 10.6,-10.3 C4,-6.8 0,-0.9 0,4.2 C0,5.6 0.3,7 1,8.3 C2.8,11.6 6.6,13.3 11.2,13.3 C14.6,13.3 18.3,12.4 21.9,10.5 C28.5,7 32.5,1.1 32.5,-4 C32.5,-5.4 32.2,-6.8 31.5,-8.1"/>
<path class="Note" transform="matrix(2.23937,0,0,2.23937,2296.39,2045.55)" d="M31.5,-8.1 C29.7,-11.4 25.9,-13.2 21.3,-13.2 C17.9,-13.2 14.2,-12.2 10.6,-10.3 C4,-6.8 0,-0.9 0,4.2 C0,5.6 0.3,7 1,8.3 C2.8,11.6 6.6,13.3 11.2,13.3 C14.6,13.3 18.3,12.4 21.9,10.5 C28.5,7 32.5,1.1 32.5,-4 C32.5,-5.4 32.2,-6.8 31.5,-8.1"/>
<path class="Note" transform="matrix(2.23937,0,0,2.23937,2410.38,2017.56)" d="M31.5,-8.1 C29.7,-11.4 25.9,-13.2 21.3,-13.2 C17.9,-13.2 14.2,-12.2 10.6,-10.3 C4,-6.8 0,-0.9 0,4.2 C0,5.6 0.3,7 1,8.3 C2.8,11.6 6.6,13.3 11.2,13.3 C14.6,13.3 18.3,12.4 21.9,10.5 C28.5,7 32.5,1.1 32.5,-4 C32.5,-5.4 32.2,-6.8 31.5,-8.1"/>
<path class="Note" transform="matrix(2.23937,0,0,2.23937,2524.37,1989.57)" d="M31.5,-8.1 C29.7,-11.4 25.9,-13.2 21.3,-13.2 C17.9,-13.2 14.2,-12.2 10.6,-10.3 C4,-6.8 0,-0.9 0,4.2 C0,5.6 0.3,7 1,8.3 C2.8,11.6 6.6,13.3 11.2,13.3 C14.6,13.3 18.3,12.4 21.9,10.5 C28.5,7 32.5,1.1 32.5,-4 C32.5,-5.4 32.2,-6.8 31.5,-8.1"/>
<path class="Note" transform="matrix(2.23937,0,0,2.23937,2638.35,1961.57)" d="M31.5,-8.1 C29.7,-11.4 25.9,-13.2 21.3,-13.2 C17.9,-13.2 14.2,-12.2 10.6,-10.3 C4,-6.8 0,-0.9 0,4.2 C0,5.6 0.3,7 1,8.3 C2.8,11.6 6.6,13.3 11.2,13.3 C14.6,13.3 18.3,12.4 21.9,10.5 C28.5,7 32.5,1.1 32.5,-4 C32.5,-5.4 32.2,-6.8 31.5,-8.1"/>
<path class="Note" transform="matrix(2.23937,0,0,2.23937,2877.95,1933.58)" d="M31.5,-8.1 C29.7,-11.4 25.9,-13.2 21.3,-13.2 C17.9,-13.2 14.2,-12.2 10.6,-10.3 C4,-6.8 0,-0.9 0,4.2 C0,5.6 0.3,7 1,8.3 C2.8,11.6 6.6,13.3 11.2,13.3 C14.6,13.3 18.3,12.4 21.9,10.5 C28.5,7 32.5,1.1 32.5,-4 C32.5,-5.4 32.2,-6.8 31.5,-8.1"/>
<path class="Note" transform="matrix(2.23937,0,0,2.23937,2991.94,1989.57)" d="M31.5,-8.1 C29.7,-11.4 25.9,-13.2 21.3,-13.2 C17.9,-13.2 14.2,-12.2 10.6,-10.3 C4,-6.8 0,-0.9 0,4.2 C0,5.6 0.3,7 1,8.3 C2.8,11.6 6.6,13.3 11.2,13.3 C14.6,13.3 18.3,12.4 21.9,10.5 C28.5,7 32.5,1.1 32.5,-4 C32.5,-5.4 32.2,-6.8 31.5,-8.1"/>
<path class="Note" transform="matrix(2.23937,0,0,2.23937,3105.92,2017.56)" d="M31.5,-8.1 C29.7,-11.4 25.9,-13.2 21.3,-13.2 C17.9,-13.2 14.2,-12.2 10.6,-10.3 C4,-6.8 0,-0.9 0,4.2 C0,5.6 0.3,7 1,8.3 C2.8,11.6 6.6,13.3 11.2,13.3 C14.6,13.3 18.3,12.4 21.9,10.5 C28.5,7 32.5,1.1 32.5,-4 C32.5,-5.4 32.2,-6.8 31.5,-8.1"/>
<path class="Note" transform="matrix(2.23937,0,0,2.23937,3219.91,2045.55)" d="M31.5,-8.1 C29.7,-11.4 25.9,-13.2 21.3,-13.2 C17.9,-13.2 14.2,-12.2 10.6,-10.3 C4,-6.8 0,-0.9 0,4.2 C0,5.6 0.3,7 1,8.3 C2.8,11.6 6.6,13.3 11.2,13.3 C14.6,13.3 18.3,12.4 21.9,10.5 C28.5,7 32.5,1.1 32.5,-4 C32.5,-5.4 32.2,-6.8 31.5,-8.1"/>
<path class="Note" transform="matrix(2.23937,0,0,2.23937,3459.5,2017.56)" d="M31.5,-8.1 C29.7,-11.4 25.9,-13.2 21.3,-13.2 C17.9,-13.2 14.2,-12.2 10.6,-10.3 C4,-6.8 0,-0.9 0,4.2 C0,5.6 0.3,7 1,8.3 C2.8,11.6 6.6,13.3 11.2,13.3 C14.6,13.3 18.3,12.4 21.9,10.5 C28.5,7 32.5,1.1 32.5,-4 C32.5,-5.4 32.2,-6.8 31.5,-8.1"/>
<path class="Note" transform="matrix(2.23937,0,0,2.23937,3616.5,1989.57)" d="M31.5,-8.1 C29.7,-11.4 25.9,-13.2 21.3,-13.2 C17.9,-13.2 14.2,-12.2 10.6,-10.3 C4,-6.8 0,-0.9 0,4.2 C0,5.6 0.3,7 1,8.3 C2.8,11.6 6.6,13.3 11.2,13.3 C14.6,13.3 18.3,12.4 21.9,10.5 C28.5,7 32.5,1.1 32.5,-4 C32.5,-5.4 32.2,-6.8 31.5,-8.1"/>
<path class="Note" transform="matrix(2.23937,0,0,2.23937,3856.35,2045.55)" d="M31.5,-8.1 C29.7,-11.4 25.9,-13.2 21.3,-13.2 C17.9,-13.2 14.2,-12.2 10.6,-10.3 C4,-6.8 0,-0.9 0,4.2 C0,5.6 0.3,7 1,8.3 C2.8,11.6 6.6,13.3 11.2,13.3 C14.6,13.3 18.3,12.4 21.9,10.5 C28.5,7 32.5,1.1 32.5,-4 C32.5,-5.4 32.2,-6.8 31.5,-8.1 M27.2,-1.3 C25.5,0.4 22.1,2.5 18.5,4.5 C14.9,6.5 11.3,8 8.9,8.5 C8.4,8.6 7.9,8.7 7.4,8.7 C5.8,8.7 4.6,8.1 3.9,6.8 C3.6,6.3 3.4,5.7 3.4,5.1 C3.4,4 4.1,2.7 5.2,1.6 C6.9,-0.1 10.2,-2.2 13.8,-4.2 C17.4,-6.2 21,-7.7 23.4,-8.2 C23.9,-8.3 24.4,-8.4 24.9,-8.4 C26.5,-8.4 27.8,-7.8 28.5,-6.5 C28.8,-6 28.9,-5.4 28.9,-4.8 C28.9,-3.7 28.3,-2.5 27.2,-1.3"/>
<path class="Clef" transform="matrix(2.23937,0,0,2.23937,115.653,630.709)" d="M63.35,-5.86992 C62.12,-11.3 59.48,-15.1199 58.7,-16.16 C55.51,-20.43 51.5,-23.28 46.81,-24.63 C43.7,-25.5199 40.7,-25.63 38.28,-25.45 C37.24,-31.46 36.24,-37.3399 35.33,-42.7899 C40.78,-48.96 44.4,-54.76 46.68,-59.06 C50.15,-65.6399 51.3,-70.2199 51.35,-70.4199 C53.07,-75.63 53.43,-83.33 52.33,-91.5399 C51.32,-99.0899 49.23,-105.8 46.88,-109.05 C45.85,-110.48 44.8,-111.21 43.76,-111.21 C42.54,-111.21 40.03,-109.97 37.14,-107.2 C34.84,-105 31.57,-101.11 29.01,-95.1 C26.01,-88.0399 25.8,-78.55 26.15,-71.83 C26.53,-64.56 27.64,-58.8699 27.65,-58.8199 C27.67,-58.73 27.93,-57.23 28.38,-54.66 C28.15,-54.43 27.91,-54.21 27.66,-53.9699 C26.62,-52.9699 25.43,-51.83 24.05,-50.45 C23.19,-49.5899 22.24,-48.68 21.24,-47.71 C12.79,-39.5699 0,-27.25 0,-8.1 C0,-3.4 0.9,1.02002 2.67998,5.03008 C4.27002,8.63008 6.57002,11.9101 9.5,14.7801 C17.23,22.3301 27.82,25.54 34.88,25.3801 C37.83,25.3101 40.46,25.07 42.85,24.62 C44.68,34.22 45.82,41.25 45.86,46.59 C45.9,53.1 44.25,57.07 40.35,59.84 C37.92,61.57 35.11,62.52 32.01,62.67 C29.42,62.79 27.16,62.32 25.73,61.9101 L25.72,61.9101 C25.72,61.9101 25.43,61.8301 25.42,61.6301 C25.41,61.45 25.76,61.4 25.77,61.4 L25.79,61.4 C27.71,60.9601 31.28,59.7301 33.64,56.4301 C35.44,53.9101 36.31,49.29 34.47,45.35 C33.36,42.9601 30.85,40.0101 25.23,39.5601 C22.74,39.3601 20.47,39.87 18.47,41.07 C16.66,42.15 15.16,43.79 14.11,45.79 C11.65,50.49 12.11,56.22 15.24,60.0601 C18.2,63.6801 22.82,65.99 28.25,66.57 C29.1,66.6601 29.95,66.7 30.8,66.7 C35.23,66.7 39.63,65.5 43.2,63.29 C46.86,60.72 48.98,56.74 49.66,51.1101 C50.22,46.47 49.83,40.5601 48.43,32.49 C48.07,30.4 47.53,27.37 46.87,23.6101 C52.62,21.69 56.78,18.12 60.55,12.27 C63.84,6.53008 64.78,0.430078 63.35,-5.86992 M29.14,20.32 C24.5,19.1 20.07,16.6 16.31,13.1 C15,11.87 13.13,9.7 11.66,6.31006 C10.29,3.15 9.62998,-0.27998 9.67998,-3.86992 C9.75,-8.55996 11.06,-13.38 13.57,-18.1699 C16.49,-23.75 21.05,-29.28 27.11,-34.61 C28.56,-35.8899 29.93,-37.1699 31.22,-38.45 C31.98,-34.1899 32.81,-29.5 33.69,-24.6199 C29.84,-23.35 25.09,-20.2 21.98,-14.55 C18.44,-7.97998 18.58,-2.45996 19.31,1.02002 C20.25,5.48008 22.78,9.24004 26.24,11.3301 C27.17,11.89 31.3,14.02 33.14,13.44 C33.51,13.32 33.78,13.1 33.92,12.77 C34.43,11.6 33.41,10.9601 31.85,10 C31.25,9.63008 30.58,9.21006 29.85,8.68008 C26.53,6.19004 25.08,1.74004 26.15,-2.63994 C26.73,-5.03994 28.01,-7.2 29.85,-8.9 C31.52,-10.45 33.56,-11.55 35.94,-12.1899 C37.98,-0.95 40.04,10.2 41.68,18.5601 C41.81,19.25 41.95,19.92 42.08,20.59 C37.7,21.52 33.35,21.4301 29.14,20.32 M40.46,-12.86 C50.81,-13.33 55.08,-5.88994 55.97,-1.05996 C56.44,1.47002 56.43,5.91006 54.89,10.12 C53.72,13.3 51.26,17.37 46.13,19.4301 C46.06,19.0101 45.98,18.5801 45.9,18.15 C44.36,9.38008 42.42,-1.60996 40.46,-12.86 M33.14,-83.8 C34.92,-89.5399 37.66,-92.7899 39.65,-94.5199 C41.4,-96.0399 43.05,-96.75 43.97,-96.75 C44.11,-96.75 44.23,-96.73 44.33,-96.7 C44.79,-96.56 45.32,-95.9899 45.79,-95.1199 C48.1,-90.83 47.36,-84.1199 46.02,-79.68 C44.39,-74.28 41.47,-68.66 32.67,-59.05 C32.5,-60.16 32.34,-61.21 32.19,-62.1899 C30.94,-70.48 31.26,-77.75 33.14,-83.8"/>
<path class="Clef" transform="matrix(2.23937,0,0,2.23937,115.653,1380.12)" d="M63.35,-5.86992 C62.12,-11.3 59.48,-15.1199 58.7,-16.16 C55.51,-20.43 51.5,-23.28 46.81,-24.63 C43.7,-25.5199 40.7,-25.63 38.28,-25.45 C37.24,-31.46 36.24,-37.3399 35.33,-42.7899 C40.78,-48.96 44.4,-54.76 46.68,-59.06 C50.15,-65.6399 51.3,-70.2199 51.35,-70.4199 C53.07,-75.63 53.43,-83.33 52.33,-91.5399 C51.32,-99.0899 49.23,-105.8 46.88,-109.05 C45.85,-110.48 44.8,-111.21 43.76,-111.21 C42.54,-111.21 40.03,-109.97 37.14,-107.2 C34.84,-105 31.57,-101.11 29.01,-95.1 C26.01,-88.0399 25.8,-78.55 26.15,-71.83 C26.53,-64.56 27.64,-58.8699 27.65,-58.8199 C27.67,-58.73 27.93,-57.23 28.38,-54.66 C28.15,-54.43 27.91,-54.21 27.66,-53.9699 C26.62,-52.9699 25.43,-51.83 24.05,-50.45 C23.19,-49.5899 22.24,-48.68 21.24,-47.71 C12.79,-39.5699 0,-27.25 0,-8.1 C0,-3.4 0.9,1.02002 2.67998,5.03008 C4.27002,8.63008 6.57002,11.9101 9.5,14.7801 C17.23,22.3301 27.82,25.54 34.88,25.3801 C37.83,25.3101 40.46,25.07 42.85,24.62 C44.68,34.22 45.82,41.25 45.86,46.59 C45.9,53.1 44.25,57.07 40.35,59.84 C37.92,61.57 35.11,62.52 32.01,62.67 C29.42,62.79 27.16,62.32 25.73,61.9101 L25.72,61.9101 C25.72,61.9101 25.43,61.8301 25.42,61.6301 C25.41,61.45 25.76,61.4 25.77,61.4 L25.79,61.4 C27.71,60.9601 31.28,59.7301 33.64,56.4301 C35.44,53.9101 36.31,49.29 34.47,45.35 C33.36,42.9601 30.85,40.0101 25.23,39.5601 C22.74,39.3601 20.47,39.87 18.47,41.07 C16.66,42.15 15.16,43.79 14.11,45.79 C11.65,50.49 12.11,56.22 15.24,60.0601 C18.2,63.6801 22.82,65.99 28.25,66.57 C29.1,66.6601 29.95,66.7 30.8,66.7 C35.23,66.7 39.63,65.5 43.2,63.29 C46.86,60.72 48.98,56.74 49.66,51.1101 C50.22,46.47 49.83,40.5601 48.43,32.49 C48.07,30.4 47.53,27.37 46.87,23.6101 C52.62,21.69 56.78,18.12 60.55,12.27 C63.84,6.53008 64.78,0.430078 63.35,-5.86992 M29.14,20.32 C24.5,19.1 20.07,16.6 16.31,13.1 C15,11.87 13.13,9.7 11.66,6.31006 C10.29,3.15 9.62998,-0.27998 9.67998,-3.86992 C9.75,-8.55996 11.06,-13.38 13.57,-18.1699 C16.49,-23.75 21.05,-29.28 27.11,-34.61 C28.56,-35.8899 29.93,-37.1699 31.22,-38.45 C31.98,-34.1899 32.81,-29.5 33.69,-24.6199 C29.84,-23.35 25.09,-20.2 21.98,-14.55 C18.44,-7.97998 18.58,-2.45996 19.31,1.02002 C20.25,5.48008 22.78,9.24004 26.24,11.3301 C27.17,11.89 31.3,14.02 33.14,13.44 C33.51,13.32 33.78,13.1 33.92,12.77 C34.43,11.6 33.41,10.9601 31.85,10 C31.25,9.63008 30.58,9.21006 29.85,8.68008 C26.53,6.19004 25.08,1.74004 26.15,-2.63994 C26.73,-5.03994 28.01,-7.2 29.85,-8.9 C31.52,-10.45 33.56,-11.55 35.94,-12.1899 C37.98,-0.95 40.04,10.2 41.68,18.5601 C41.81,19.25 41.95,19.92 42.08,20.59 C37.7,21.52 33.35,21.4301 29.14,20.32 M40.46,-12.86 C50.81,-13.33 55.08,-5.88994 55.97,-1.05996 C56.44,1.47002 56.43,5.91006 54.89,10.12 C53.72,13.3 51.26,17.37 46.13,19.4301 C46.06,19.0101 45.98,18.5801 45.9,18.15 C44.36,9.38008 42.42,-1.60996 40.46,-12.86 M33.14,-83.8 C34.92,-89.5399 37.66,-92.7899 39.65,-94.5199 C41.4,-96.0399 43.05,-96.75 43.97,-96.75 C44.11,-96.75 44.23,-96.73 44.33,-96.7 C44.79,-96.56 45.32,-95.9899 45.79,-95.1199 C48.1,-90.83 47.36,-84.1199 46.02,-79.68 C44.39,-74.28 41.47,-68.66 32.67,-59.05 C32.5,-60.16 32.34,-61.21 32.19,-62.1899 C30.94,-70.48 31.26,-77.75 33.14,-83.8"/>
<path class="Clef" transform="matrix(2.23937,0,0,2.23937,115.653,2129.53)" d="M63.35,-5.86992 C62.12,-11.3 59.48,-15.1199 58.7,-16.16 C55.51,-20.43 51.5,-23.28 46.81,-24.63 C43.7,-25.5199 40.7,-25.63 38.28,-25.45 C37.24,-31.46 36.24,-37.3399 35.33,-42.7899 C40.78,-48.96 44.4,-54.76 46.68,-59.06 C50.15,-65.6399 51.3,-70.2199 51.35,-70.4199 C53.07,-75.63 53.43,-83.33 52.33,-91.5399 C51.32,-99.0899 49.23,-105.8 46.88,-109.05 C45.85,-110.48 44.8,-111.21 43.76,-111.21 C42.54,-111.21 40.03,-109.97 37.14,-107.2 C34.84,-105 31.57,-101.11 29.01,-95.1 C26.01,-88.0399 25.8,-78.55 26.15,-71.83 C26.53,-64.56 27.64,-58.8699 27.65,-58.8199 C27.67,-58.73 27.93,-57.23 28.38,-54.66 C28.15,-54.43 27.91,-54.21 27.66,-53.9699 C26.62,-52.9699 25.43,-51.83 24.05,-50.45 C23.19,-49.5899 22.24,-48.68 21.24,-47.71 C12.79,-39.5699 0,-27.25 0,-8.1 C0,-3.4 0.9,1.02002 2.67998,5.03008 C4.27002,8.63008 6.57002,11.9101 9.5,14.7801 C17.23,22.3301 27.82,25.54 34.88,25.3801 C37.83,25.3101 40.46,25.07 42.85,24.62 C44.68,34.22 45.82,41.25 45.86,46.59 C45.9,53.1 44.25,57.07 40.35,59.84 C37.92,61.57 35.11,62.52 32.01,62.67 C29.42,62.79 27.16,62.32 25.73,61.9101 L25.72,61.9101 C25.72,61.9101 25.43,61.8301 25.42,61.6301 C25.41,61.45 25.76,61.4 25.77,61.4 L25.79,61.4 C27.71,60.9601 31.28,59.7301 33.64,56.4301 C35.44,53.9101 36.31,49.29 34.47,45.35 C33.36,42.9601 30.85,40.0101 25.23,39.5601 C22.74,39.3601 20.47,39.87 18.47,41.07 C16.66,42.15 15.16,43.79 14.11,45.79 C11.65,50.49 12.11,56.22 15.24,60.0601 C18.2,63.6801 22.82,65.99 28.25,66.57 C29.1,66.6601 29.95,66.7 30.8,66.7 C35.23,66.7 39.63,65.5 43.2,63.29 C46.86,60.72 48.98,56.74 49.66,51.1101 C50.22,46.47 49.83,40.5601 48.43,32.49 C48.07,30.4 47.53,27.37 46.87,23.6101 C52.62,21.69 56.78,18.12 60.55,12.27 C63.84,6.53008 64.78,0.430078 63.35,-5.86992 M29.14,20.32 C24.5,19.1 20.07,16.6 16.31,13.1 C15,11.87 13.13,9.7 11.66,6.31006 C10.29,3.15 9.62998,-0.27998 9.67998,-3.86992 C9.75,-8.55996 11.06,-13.38 13.57,-18.1699 C16.49,-23.75 21.05,-29.28 27.11,-34.61 C28.56,-35.8899 29.93,-37.1699 31.22,-38.45 C31.98,-34.1899 32.81,-29.5 33.69,-24.6199 C29.84,-23.35 25.09,-20.2 21.98,-14.55 C18.44,-7.97998 18.58,-2.45996 19.31,1.02002 C20.25,5.48008 22.78,9.24004 26.24,11.3301 C27.17,11.89 31.3,14.02 33.14,13.44 C33.51,13.32 33.78,13.1 33.92,12.77 C34.43,11.6 33.41,10.9601 31.85,10 C31.25,9.63008 30.58,9.21006 29.85,8.68008 C26.53,6.19004 25.08,1.74004 26.15,-2.63994 C26.73,-5.03994 28.01,-7.2 29.85,-8.9 C31.52,-10.45 33.56,-11.55 35.94,-12.1899 C37.98,-0.95 40.04,10.2 41.68,18.5601 C41.81,19.25 41.95,19.92 42.08,20.59 C37.7,21.52 33.35,21.4301 29.14,20.32 M40.46,-12.86 C50.81,-13.33 55.08,-5.88994 55.97,-1.05996 C56.44,1.47002 56.43,5.91006 54.89,10.12 C53.72,13.3 51.26,17.37 46.13,19.4301 C46.06,19.0101 45.98,18.5801 45.9,18.15 C44.36,9.38008 42.42,-1.60996 40.46,-12.86 M33.14,-83.8 C34.92,-89.5399 37.66,-92.7899 39.65,-94.5199 C41.4,-96.0399 43.05,-96.75 43.97,-96.75 C44.11,-96.75 44.23,-96.73 44.33,-96.7 C44.79,-96.56 45.32,-95.9899 45.79,-95.1199 C48.1,-90.83 47.36,-84.1199 46.02,-79.68 C44.39,-74.28 41.47,-68.66 32.67,-59.05 C32.5,-60.16 32.34,-61.21 32.19,-62.1899 C30.94,-70.48 31.26,-77.75 33.14,-83.8"/>
<path class="TimeSig" transform="matrix(2.23937,0,0,2.23937,319.226,519.86)" d="M34.2,3.9 C33.4,6.1 31.4,13.3 26.5,13.3 C20,13.3 18.6,9.3 13.2,9.3 C12.4,9.3 11.6,9.4 10.6,9.6 C10.6,9.6 13.1,5.8 23.7,2.5 C34.3,-0.8 37,-6 37,-12 C37,-16.2 35.1,-24.5 20,-24.5 C4.9,-24.5 2.1,-15.4 2.1,-10.8 C2.1,-6.7 5.5,-3.4 9.6,-3.4 C13.7,-3.4 17,-6.7 17,-10.8 C17,-13.6 15,-16.7 12.4,-17.7 C12.1,-17.8 11.7,-18.3 11.7,-18.8 C11.7,-19.4 12.2,-20.1 14,-20.6 C14.5,-20.8 15.9,-21.1 17.4,-21.1 C18.8,-21.1 20.4,-20.8 21.6,-20 C23.5,-18.8 24.2,-17 24.2,-12.5 C24.2,-0.8 10.3,1.7 4.5,10.4 C4.5,10.4 1.5,14.6 1.5,19.3 C1.5,24 3.9,24.3 5.1,24.3 C6.7,24.3 8.4,23 8.4,21.2 C8.4,20.8 8.3,20.4 8.1,19.9 C7.5,18.5 7.3,17.4 7.3,16.6 C7.3,16.3 7.3,16 7.4,15.7 C7.5,15.1 8.3,14.1 10.7,14.1 C13.6,14.1 14.7,17.5 16.5,20.1 C18.3,22.7 21.1,24.3 24.3,24.3 C27.5,24.3 31.8,22 33.6,18.3 C35.4,14.6 37.7,7.1 37.7,4.4 C37.7,3.1 36.9,2.5 36,2.5 C35.3,2.5 34.6,2.9 34.2,3.9"/>
<path class="TimeSig" transform="matrix(2.23937,0,0,2.23937,311.843,630.411)" d="M3.59004,12.65 L20.77,12.65 L20.77,20.07 L12.54,20.07 C11.7601,20.07 11.1301,20.7 11.1301,21.48 L11.1301,23.39 C11.1301,24.17 11.7601,24.8 12.54,24.8 L42.79,24.8 C43.57,24.8 44.2,24.17 44.2,23.39 L44.2,21.48 C44.2,20.7 43.57,20.07 42.79,20.07 L33.85,20.07 L33.85,12.65 L42.79,12.65 C43.57,12.65 44.2,12.02 44.2,11.24 L44.2,9.32998 C44.2,8.55 43.57,7.92002 42.79,7.92002 L33.85,7.92002 L33.85,-8.04004 C33.85,-8.57998 33.55,-9.05996 33.07,-9.3 L31.8601,-9.9 C31.3301,-10.16 30.7,-10.07 30.27,-9.67002 L21.22,-1.35 C20.9301,-1.07998 20.7601,-0.709961 20.7601,-0.309961 L20.7601,7.92002 L9.25,7.92002 C9.25,7.92002 20.37,-4.10996 32.2101,-19.88 C33.0801,-21.03 32.5801,-22.08 32.39,-22.27 L30.22,-24.48 C29.95,-24.74 29.59,-24.89 29.22,-24.89 C28.62,-24.89 15.07,-24.87 14.35,-24.89 C13.6301,-24.91 13.09,-24.29 13.02,-23.67 C13.02,-23.67 12.4801,-16.31 9.88008,-8.17998 C7.28008,-0.0599609 4.34004,4.92002 1.68008,8.55 C1.68008,8.55 1.14004,9.54004 1.5,10.28 C1.85,11.03 2.48008,12.12 2.48008,12.12 C2.48008,12.12 2.74004,12.65 3.59004,12.65"/>
<path class="Rest" transform="matrix(2.23937,0,0,2.23937,3970.79,574.724)" d="M23.2,16.9 L23,16.6 C22.9,16.5 22.7,16.3 22.4,15.9 L10.9,1.7 C10.6,1.4 10.7,0.6 10.9,0.2 L21.1,-15.2 C21.2,-15.4 21.3,-15.7 21.3,-15.9 L21.3,-16.8 C21.3,-17.1 21.2,-17.4 21,-17.6 L4.8,-39.5 C4.8,-39.5 4,-40.7 3,-39.8 C2,-39 2.8,-37.7 2.8,-37.7 L10.4,-27.3 C10.8,-26.7 10.8,-25.5 10.4,-24.9 L0.3,-9.5 C0.2,-9.3 0.1,-8.9 0.1,-8.7 L0.1,-7.8 C0.1,-7.5 0.2,-7.2 0.4,-7 L11.6,6.9 C11.2,6.8 10.3,6.6 9.1,6.6 C7.4,6.6 5.2,7 3.4,8.6 C1.2,10.6 0,13.4 0,15.9 C0,17.3 0.3,18.7 1.1,19.8 C3.2,23 10.7,32.5 10.7,32.5 C10.7,32.5 11.6,33.6 12.5,32.9 C13.4,32.2 13.2,31.3 12.9,30.8 C12.6,30.3 9.4,24.5 9.4,24.5 C9.4,24.5 8.7,23.1 8.7,21.3 C8.7,20 9.1,18.4 10.4,17.1 C11.6,15.9 13,15.5 14.3,15.5 C15.6,15.5 16.7,15.9 17.5,16.4 L21.4,18.9 C21.4,18.9 22.6,19.5 23.2,18.6 C23.7,17.8 23.5,17.4 23.2,16.9"/>
<path class="Rest" transform="matrix(2.23937,0,0,2.23937,3970.79,1324.13)" d="M23.2,16.9 L23,16.6 C22.9,16.5 22.7,16.3 22.4,15.9 L10.9,1.7 C10.6,1.4 10.7,0.6 10.9,0.2 L21.1,-15.2 C21.2,-15.4 21.3,-15.7 21.3,-15.9 L21.3,-16.8 C21.3,-17.1 21.2,-17.4 21,-17.6 L4.8,-39.5 C4.8,-39.5 4,-40.7 3,-39.8 C2,-39 2.8,-37.7 2.8,-37.7 L10.4,-27.3 C10.8,-26.7 10.8,-25.5 10.4,-24.9 L0.3,-9.5 C0.2,-9.3 0.1,-8.9 0.1,-8.7 L0.1,-7.8 C0.1,-7.5 0.2,-7.2 0.4,-7 L11.6,6.9 C11.2,6.8 10.3,6.6 9.1,6.6 C7.4,6.6 5.2,7 3.4,8.6 C1.2,10.6 0,13.4 0,15.9 C0,17.3 0.3,18.7 1.1,19.8 C3.2,23 10.7,32.5 10.7,32.5 C10.7,32.5 11.6,33.6 12.5,32.9 C13.4,32.2 13.2,31.3 12.9,30.8 C12.6,30.3 9.4,24.5 9.4,24.5 C9.4,24.5 8.7,23.1 8.7,21.3 C8.7,20 9.1,18.4 10.4,17.1 C11.6,15.9 13,15.5 14.3,15.5 C15.6,15.5 16.7,15.9 17.5,16.4 L21.4,18.9 C21.4,18.9 22.6,19.5 23.2,18.6 C23.7,17.8 23.5,17.4 23.2,16.9"/>
<path class="Beam" fill-rule="evenodd" d="M589.385,351.501 L697.501,336.66 L697.501,364.915 L589.385,379.756 L589.385,351.501 "/>
<path class="Beam" fill-rule="evenodd" d="M726.696,630.577 L834.812,615.736 L834.812,643.99 L726.696,658.832 L726.696,630.577 "/>
<path class="Beam" fill-rule="evenodd" d="M1197.81,657.943 L1287.92,687.989 L1287.92,717.495 L1197.81,687.45 L1197.81,657.943 "/>
<path class="Beam" fill-rule="evenodd" d="M1698.88,558.634 L1803.74,618.111 L1803.74,650.292 L1698.88,590.815 L1698.88,558.634 "/>
<path class="Beam" fill-rule="evenodd" d="M2464.54,351.501 L2572.65,336.66 L2572.65,364.915 L2464.54,379.756 L2464.54,351.501 "/>
<path class="Beam" fill-rule="evenodd" d="M2601.85,630.577 L2709.97,615.736 L2709.97,643.99 L2601.85,658.832 L2601.85,630.577 "/>
<path class="Beam" fill-rule="evenodd" d="M2943.4,602.198 L3051.52,631.881 L3051.52,660.909 L2943.4,631.226 L2943.4,602.198 "/>
<path class="Beam" fill-rule="evenodd" d="M3213.92,335.815 L3322.04,350.656 L3322.04,378.911 L3213.92,364.069 L3213.92,335.815 "/>
<path class="Beam" fill-rule="evenodd" d="M465.502,1100.88 L578.78,1086.08 L578.78,1114.31 L465.502,1129.11 L465.502,1100.88 "/>
<path class="Beam" fill-rule="evenodd" d="M613.137,1380 L726.415,1365.2 L726.415,1393.43 L613.137,1408.23 L613.137,1380 "/>
<path class="Beam" fill-rule="evenodd" d="M1100.78,1407.42 L1195.01,1437.37 L1195.01,1466.74 L1100.78,1436.79 L1100.78,1407.42 "/>
<path class="Beam" fill-rule="evenodd" d="M1615.5,1308.26 L1726.31,1367.54 L1726.31,1399.28 L1615.5,1340.01 L1615.5,1308.26 "/>
<path class="Beam" fill-rule="evenodd" d="M2402.6,1100.88 L2515.87,1086.08 L2515.87,1114.31 L2402.6,1129.11 L2402.6,1100.88 "/>
<path class="Beam" fill-rule="evenodd" d="M2550.23,1380 L2663.51,1365.2 L2663.51,1393.43 L2550.23,1408.23 L2550.23,1380 "/>
<path class="Beam" fill-rule="evenodd" d="M2896.95,1351.66 L3010.22,1381.26 L3010.22,1410.19 L2896.95,1380.59 L2896.95,1351.66 "/>
<path class="Beam" fill-rule="evenodd" d="M3177.79,1085.28 L3291.07,1100.08 L3291.07,1128.31 L3177.79,1113.51 L3177.79,1085.28 "/>
<path class="Beam" fill-rule="evenodd" d="M598.624,2057.91 L717.364,2116.96 L717.364,2148.22 L598.624,2089.17 L598.624,2057.91 "/>
<path class="Beam" fill-rule="evenodd" d="M1547.37,2057.91 L1666.11,2116.96 L1666.11,2148.22 L1547.37,2089.17 L1547.37,2057.91 "/>
<path class="Beam" fill-rule="evenodd" d="M2363,1850.26 L2483.14,1835.5 L2483.14,1863.71 L2363,1878.46 L2363,1850.26 "/>
<path class="Beam" fill-rule="evenodd" d="M2524.37,2129.42 L2644.51,2114.67 L2644.51,2142.87 L2524.37,2157.62 L2524.37,2129.42 "/>
<path class="Beam" fill-rule="evenodd" d="M2877.95,2101.12 L2998.09,2130.62 L2998.09,2159.45 L2877.95,2129.94 L2877.95,2101.12 "/>
<path class="Beam" fill-rule="evenodd" d="M3172.53,1834.75 L3292.67,1849.5 L3292.67,1877.7 L3172.53,1862.95 L3172.53,1834.75 "/>
</svg>
