<?xml version="1.0" encoding="UTF-8" standalone="no"?>
<svg width="4208.47px" height="2409.45px" viewBox="0 0 4208.47 2409.45"
 xmlns="http://www.w3.org/2000/svg" xmlns:xlink="http://www.w3.org/1999/xlink" version="1.2" baseProfile="tiny">
<title>SAX TENOR</title>
<desc>Generated by MuseScore 3.6.2</desc>
<polyline class="StaffLines" fill="none" stroke="#000000" stroke-width="6.16" stroke-linejoin="bevel" points="70.866,462.756 4137.61,462.756"/>
<polyline class="StaffLines" fill="none" stroke="#000000" stroke-width="6.16" stroke-linejoin="bevel" points="70.866,518.74 4137.61,518.74"/>
<polyline class="StaffLines" fill="none" stroke="#000000" stroke-width="6.16" stroke-linejoin="bevel" points="70.866,574.724 4137.61,574.724"/>
<polyline class="StaffLines" fill="none" stroke="#000000" stroke-width="6.16" stroke-linejoin="bevel" points="70.866,630.709 4137.61,630.709"/>
<polyline class="StaffLines" fill="none" stroke="#000000" stroke-width="6.16" stroke-linejoin="bevel" points="70.866,686.693 4137.61,686.693"/>
<polyline class="StaffLines" fill="none" stroke="#000000" stroke-width="6.16" stroke-linejoin="bevel" points="70.866,1212.16 4137.61,1212.16"/>
<polyline class="StaffLines" fill="none" stroke="#000000" stroke-width="6.16" stroke-linejoin="bevel" points="70.866,1268.15 4137.61,1268.15"/>
<polyline class="StaffLines" fill="none" stroke="#000000" stroke-width="6.16" stroke-linejoin="bevel" points="70.866,1324.13 4137.61,1324.13"/>
<polyline class="StaffLines" fill="none" stroke="#000000" stroke-width="6.16" stroke-linejoin="bevel" points="70.866,1380.12 4137.61,1380.12"/>
<polyline class="StaffLines" fill="none" stroke="#000000" stroke-width="6.16" stroke-linejoin="bevel" points="70.866,1436.1 4137.61,1436.1"/>
<polyline class="StaffLines" fill="none" stroke="#000000" stroke-width="6.16" stroke-linejoin="bevel" points="70.866,1961.57 4137.61,1961.57"/>
<polyline class="StaffLines" fill="none" stroke="#000000" stroke-width="6.16" stroke-linejoin="bevel" points="70.866,2017.56 4137.61,2017.56"/>
<polyline class="StaffLines" fill="none" stroke="#000000" stroke-width="6.16" stroke-linejoin="bevel" points="70.866,2073.54 4137.61,2073.54"/>
<polyline class="StaffLines" fill="none" stroke="#000000" stroke-width="6.16" stroke-linejoin="bevel" points="70.866,2129.53 4137.61,2129.53"/>
<polyline class="StaffLines" fill="none" stroke="#000000" stroke-width="6.16" stroke-linejoin="bevel" points="70.866,2185.51 4137.61,2185.51"/>
<path class="MeasureNumber" d="M86.3204,1086.52 C85.6404,1089.68 84.9204,1091.6 83.7604,1093.84 C81.8004,1097.48 79.7204,1099.12 76.9204,1099.12 C75.7604,1099.12 75.0004,1098.64 75.0004,1097.92 C75.0004,1097.64 75.0804,1097.52 75.4004,1097.04 C75.8004,1096.52 76.0004,1096.04 76.0004,1095.48 C76.0004,1094.16 74.9604,1093.16 73.6004,1093.16 C72.0004,1093.16 70.8804,1094.36 70.8804,1096.12 C70.8804,1098.84 73.4404,1100.8 77.0004,1100.8 C80.2004,1100.8 83.1604,1099.4 85.6004,1096.6 C89.0804,1092.72 91.3604,1086.92 91.3604,1082 C91.3604,1075.76 88.3604,1072.04 83.4004,1072.04 C80.4404,1072.04 77.6804,1073.36 75.8404,1075.64 C74.0404,1077.84 73.0004,1080.64 73.0004,1083.24 C73.0004,1087.04 75.9204,1089.92 79.8004,1089.92 C82.4404,1089.92 84.4804,1088.84 86.3204,1086.52 M83.3604,1073.72 C85.9204,1073.72 87.5604,1075.76 87.5604,1078.96 C87.5604,1083.92 84.8404,1087.56 81.1604,1087.56 C78.6404,1087.56 77.2404,1085.84 77.2404,1082.84 C77.2404,1080.48 77.8004,1078.36 78.8804,1076.56 C80.0804,1074.64 81.5204,1073.72 83.3604,1073.72"/>
<path class="MeasureNumber" d="M87.226,1821.29 L86.066,1821.29 C83.866,1822.93 79.626,1824.33 76.746,1824.33 L76.266,1826.09 L79.026,1826.09 C81.466,1826.09 81.746,1826.17 81.746,1826.89 C81.746,1827.25 81.746,1827.25 81.346,1828.69 L77.066,1844.69 C76.546,1846.69 76.506,1846.81 76.146,1847.17 C75.746,1847.57 74.906,1847.69 72.786,1847.73 L71.066,1847.73 L70.866,1849.61 L85.666,1849.61 L85.906,1847.73 L83.746,1847.73 C81.146,1847.73 80.586,1847.53 80.586,1846.65 C80.586,1846.37 80.746,1845.45 80.946,1844.69 L87.226,1821.29 M113.54,1821.45 C111.42,1821.69 108.82,1821.85 106.58,1821.85 C105.46,1821.85 104.18,1821.81 102.74,1821.73 C101.42,1821.65 100.1,1821.57 98.7404,1821.49 L97.7404,1821.45 L93.8604,1829.89 L95.3404,1830.37 L96.3004,1828.77 C98.1804,1825.65 99.0604,1825.21 103.14,1825.25 L109.9,1825.25 L105.54,1831.49 C100.42,1838.69 100.42,1838.69 98.4604,1841.89 C96.7004,1844.73 95.9804,1846.49 95.9804,1847.93 C95.9804,1849.33 96.8604,1850.21 98.2604,1850.21 C99.7404,1850.21 100.5,1849.49 101.02,1847.61 C103.02,1840.09 104.22,1837.49 109.78,1828.49 L113.54,1822.65 L113.54,1821.45 "/>
<polyline class="BarLine" fill="none" stroke="#000000" stroke-width="10.08" stroke-linejoin="bevel" points="1144.05,459.677 1144.05,689.772"/>
<polyline class="BarLine" fill="none" stroke="#000000" stroke-width="10.08" stroke-linejoin="bevel" points="1584.17,459.677 1584.17,689.772"/>
<polyline class="BarLine" fill="none" stroke="#000000" stroke-width="10.08" stroke-linejoin="bevel" points="2024.3,459.677 2024.3,689.772"/>
<polyline class="BarLine" fill="none" stroke="#000000" stroke-width="10.08" stroke-linejoin="bevel" points="2372.07,459.677 2372.07,689.772"/>
<polyline class="BarLine" fill="none" stroke="#000000" stroke-width="10.08" stroke-linejoin="bevel" points="2904.55,459.677 2904.55,689.772"/>
<polyline class="BarLine" fill="none" stroke="#000000" stroke-width="10.08" stroke-linejoin="bevel" points="3437.03,459.677 3437.03,689.772"/>
<polyline class="BarLine" fill="none" stroke="#000000" stroke-width="10.08" stroke-linejoin="bevel" points="3784.8,459.677 3784.8,689.772"/>
<polyline class="BarLine" fill="none" stroke="#000000" stroke-width="10.08" stroke-linejoin="bevel" points="4132.57,459.677 4132.57,689.772"/>
<polyline class="BarLine" fill="none" stroke="#000000" stroke-width="10.08" stroke-linejoin="bevel" points="1035.65,1209.09 1035.65,1439.18"/>
<polyline class="BarLine" fill="none" stroke="#000000" stroke-width="10.08" stroke-linejoin="bevel" points="1491.26,1209.09 1491.26,1439.18"/>
<polyline class="BarLine" fill="none" stroke="#000000" stroke-width="10.08" stroke-linejoin="bevel" points="1946.87,1209.09 1946.87,1439.18"/>
<polyline class="BarLine" fill="none" stroke="#000000" stroke-width="10.08" stroke-linejoin="bevel" points="2310.13,1209.09 2310.13,1439.18"/>
<polyline class="BarLine" fill="none" stroke="#000000" stroke-width="10.08" stroke-linejoin="bevel" points="2858.09,1209.09 2858.09,1439.18"/>
<polyline class="BarLine" fill="none" stroke="#000000" stroke-width="10.08" stroke-linejoin="bevel" points="3406.06,1209.09 3406.06,1439.18"/>
<polyline class="BarLine" fill="none" stroke="#000000" stroke-width="10.08" stroke-linejoin="bevel" points="3769.31,1209.09 3769.31,1439.18"/>
<polyline class="BarLine" fill="none" stroke="#000000" stroke-width="10.08" stroke-linejoin="bevel" points="4132.57,1209.09 4132.57,1439.18"/>
<polyline class="BarLine" fill="none" stroke="#000000" stroke-width="10.08" stroke-linejoin="bevel" points="971.736,1958.49 971.736,2188.59"/>
<polyline class="BarLine" fill="none" stroke="#000000" stroke-width="10.08" stroke-linejoin="bevel" points="1363.43,1958.49 1363.43,2188.59"/>
<polyline class="BarLine" fill="none" stroke="#000000" stroke-width="10.08" stroke-linejoin="bevel" points="1847.48,1958.49 1847.48,2188.59"/>
<polyline class="BarLine" fill="none" stroke="#000000" stroke-width="10.08" stroke-linejoin="bevel" points="2239.18,1958.49 2239.18,2188.59"/>
<polyline class="BarLine" fill="none" stroke="#000000" stroke-width="10.08" stroke-linejoin="bevel" points="2815.58,1958.49 2815.58,2188.59"/>
<polyline class="BarLine" fill="none" stroke="#000000" stroke-width="10.08" stroke-linejoin="bevel" points="3391.99,1958.49 3391.99,2188.59"/>
<polyline class="BarLine" fill="none" stroke="#000000" stroke-width="10.08" stroke-linejoin="bevel" points="3783.68,1958.49 3783.68,2188.59"/>
<polyline class="BarLine" fill="none" stroke="#000000" stroke-width="10.08" stroke-linejoin="bevel" points="4083.02,1958.49 4083.02,2188.59"/>
<polyline class="BarLine" fill="none" stroke="#000000" stroke-width="30.79" stroke-linejoin="bevel" points="4122.21,1958.49 4122.21,2188.59"/>
<polyline class="Stem" fill="none" stroke="#000000" stroke-width="6.16" stroke-linejoin="bevel" points="759.07,707.519 759.07,532.736"/>
<polyline class="Stem" fill="none" stroke="#000000" stroke-width="6.16" stroke-linejoin="bevel" points="856.698,679.527 856.698,518.74"/>
<polyline class="Stem" fill="none" stroke="#000000" stroke-width="6.16" stroke-linejoin="bevel" points="887.722,666.225 887.722,812.657"/>
<polyline class="Stem" fill="none" stroke="#000000" stroke-width="6.16" stroke-linejoin="bevel" points="985.351,638.233 985.351,798.661"/>
<polyline class="Stem" fill="none" stroke="#000000" stroke-width="6.16" stroke-linejoin="bevel" points="1224.95,610.241 1224.95,770.669"/>
<polyline class="Stem" fill="none" stroke="#000000" stroke-width="6.16" stroke-linejoin="bevel" points="1341.52,666.225 1341.52,812.657"/>
<polyline class="Stem" fill="none" stroke="#000000" stroke-width="6.16" stroke-linejoin="bevel" points="1425.48,722.209 1425.48,868.642"/>
<polyline class="Stem" fill="none" stroke="#000000" stroke-width="6.16" stroke-linejoin="bevel" points="1665.07,526.264 1665.07,707.687"/>
<polyline class="Stem" fill="none" stroke="#000000" stroke-width="6.16" stroke-linejoin="bevel" points="1781.64,582.249 1781.64,742.677"/>
<polyline class="Stem" fill="none" stroke="#000000" stroke-width="6.16" stroke-linejoin="bevel" points="1865.6,638.233 1865.6,798.661"/>
<polyline class="Stem" fill="none" stroke="#000000" stroke-width="6.16" stroke-linejoin="bevel" points="2105.2,610.241 2105.2,770.669"/>
<polyline class="Stem" fill="none" stroke="#000000" stroke-width="6.16" stroke-linejoin="bevel" points="2213.37,666.225 2213.37,812.657"/>
<polyline class="Stem" fill="none" stroke="#000000" stroke-width="6.16" stroke-linejoin="bevel" points="2519.57,707.519 2519.57,532.736"/>
<polyline class="Stem" fill="none" stroke="#000000" stroke-width="6.16" stroke-linejoin="bevel" points="2617.2,679.527 2617.2,518.74"/>
<polyline class="Stem" fill="none" stroke="#000000" stroke-width="6.16" stroke-linejoin="bevel" points="2648.22,666.225 2648.22,812.657"/>
<polyline class="Stem" fill="none" stroke="#000000" stroke-width="6.16" stroke-linejoin="bevel" points="2745.85,638.233 2745.85,798.661"/>
<polyline class="Stem" fill="none" stroke="#000000" stroke-width="6.16" stroke-linejoin="bevel" points="2985.44,610.241 2985.44,756.673"/>
<polyline class="Stem" fill="none" stroke="#000000" stroke-width="6.16" stroke-linejoin="bevel" points="3083.07,666.225 3083.07,812.657"/>
<polyline class="Stem" fill="none" stroke="#000000" stroke-width="6.16" stroke-linejoin="bevel" points="3247.31,679.527 3247.31,518.74"/>
<polyline class="Stem" fill="none" stroke="#000000" stroke-width="6.16" stroke-linejoin="bevel" points="3344.93,707.519 3344.93,532.736"/>
<polyline class="Stem" fill="none" stroke="#000000" stroke-width="6.16" stroke-linejoin="bevel" points="3517.92,694.217 3517.92,833.651"/>
<polyline class="Stem" fill="none" stroke="#000000" stroke-width="6.16" stroke-linejoin="bevel" points="3626.1,666.225 3626.1,812.657"/>
<polyline class="Stem" fill="none" stroke="#000000" stroke-width="6.16" stroke-linejoin="bevel" points="3865.69,694.217 3865.69,833.651"/>
<polyline class="Stem" fill="none" stroke="#000000" stroke-width="6.16" stroke-linejoin="bevel" points="635.187,1456.93 635.187,1282.14"/>
<polyline class="Stem" fill="none" stroke="#000000" stroke-width="6.16" stroke-linejoin="bevel" points="737.977,1428.94 737.977,1268.15"/>
<polyline class="Stem" fill="none" stroke="#000000" stroke-width="6.16" stroke-linejoin="bevel" points="774.163,1415.63 774.163,1562.07"/>
<polyline class="Stem" fill="none" stroke="#000000" stroke-width="6.16" stroke-linejoin="bevel" points="876.953,1387.64 876.953,1548.07"/>
<polyline class="Stem" fill="none" stroke="#000000" stroke-width="6.16" stroke-linejoin="bevel" points="1116.55,1359.65 1116.55,1520.08"/>
<polyline class="Stem" fill="none" stroke="#000000" stroke-width="6.16" stroke-linejoin="bevel" points="1248.6,1415.63 1248.6,1562.07"/>
<polyline class="Stem" fill="none" stroke="#000000" stroke-width="6.16" stroke-linejoin="bevel" points="1332.56,1471.62 1332.56,1618.05"/>
<polyline class="Stem" fill="none" stroke="#000000" stroke-width="6.16" stroke-linejoin="bevel" points="1572.16,1275.67 1572.16,1457.1"/>
<polyline class="Stem" fill="none" stroke="#000000" stroke-width="6.16" stroke-linejoin="bevel" points="1704.21,1331.66 1704.21,1492.09"/>
<polyline class="Stem" fill="none" stroke="#000000" stroke-width="6.16" stroke-linejoin="bevel" points="1788.17,1387.64 1788.17,1548.07"/>
<polyline class="Stem" fill="none" stroke="#000000" stroke-width="6.16" stroke-linejoin="bevel" points="2027.77,1359.65 2027.77,1520.08"/>
<polyline class="Stem" fill="none" stroke="#000000" stroke-width="6.16" stroke-linejoin="bevel" points="2151.43,1415.63 2151.43,1562.07"/>
<polyline class="Stem" fill="none" stroke="#000000" stroke-width="6.16" stroke-linejoin="bevel" points="2457.63,1456.93 2457.63,1282.14"/>
<polyline class="Stem" fill="none" stroke="#000000" stroke-width="6.16" stroke-linejoin="bevel" points="2560.42,1428.94 2560.42,1268.15"/>
<polyline class="Stem" fill="none" stroke="#000000" stroke-width="6.16" stroke-linejoin="bevel" points="2596.6,1415.63 2596.6,1562.07"/>
<polyline class="Stem" fill="none" stroke="#000000" stroke-width="6.16" stroke-linejoin="bevel" points="2699.39,1387.64 2699.39,1548.07"/>
<polyline class="Stem" fill="none" stroke="#000000" stroke-width="6.16" stroke-linejoin="bevel" points="2938.99,1359.65 2938.99,1506.08"/>
<polyline class="Stem" fill="none" stroke="#000000" stroke-width="6.16" stroke-linejoin="bevel" points="3041.78,1415.63 3041.78,1562.07"/>
<polyline class="Stem" fill="none" stroke="#000000" stroke-width="6.16" stroke-linejoin="bevel" points="3211.17,1428.94 3211.17,1268.15"/>
<polyline class="Stem" fill="none" stroke="#000000" stroke-width="6.16" stroke-linejoin="bevel" points="3313.96,1456.93 3313.96,1282.14"/>
<polyline class="Stem" fill="none" stroke="#000000" stroke-width="6.16" stroke-linejoin="bevel" points="3486.95,1443.63 3486.95,1583.06"/>
<polyline class="Stem" fill="none" stroke="#000000" stroke-width="6.16" stroke-linejoin="bevel" points="3610.61,1415.63 3610.61,1562.07"/>
<polyline class="Stem" fill="none" stroke="#000000" stroke-width="6.16" stroke-linejoin="bevel" points="3916.81,1456.93 3916.81,1268.15"/>
<polyline class="Stem" fill="none" stroke="#000000" stroke-width="6.16" stroke-linejoin="bevel" points="568.583,2025.08 568.583,2206.5"/>
<polyline class="Stem" fill="none" stroke="#000000" stroke-width="6.16" stroke-linejoin="bevel" points="719.017,2081.07 719.017,2241.49"/>
<polyline class="Stem" fill="none" stroke="#000000" stroke-width="6.16" stroke-linejoin="bevel" points="813.038,2137.05 813.038,2297.48"/>
<polyline class="Stem" fill="none" stroke="#000000" stroke-width="6.16" stroke-linejoin="bevel" points="1052.63,2109.06 1052.63,2269.49"/>
<polyline class="Stem" fill="none" stroke="#000000" stroke-width="6.16" stroke-linejoin="bevel" points="1204.73,2165.04 1204.73,2311.48"/>
<polyline class="Stem" fill="none" stroke="#000000" stroke-width="6.16" stroke-linejoin="bevel" points="1444.33,2025.08 1444.33,2206.5"/>
<polyline class="Stem" fill="none" stroke="#000000" stroke-width="6.16" stroke-linejoin="bevel" points="1594.76,2081.07 1594.76,2241.49"/>
<polyline class="Stem" fill="none" stroke="#000000" stroke-width="6.16" stroke-linejoin="bevel" points="1688.78,2137.05 1688.78,2297.48"/>
<polyline class="Stem" fill="none" stroke="#000000" stroke-width="6.16" stroke-linejoin="bevel" points="1928.38,2109.06 1928.38,2269.49"/>
<polyline class="Stem" fill="none" stroke="#000000" stroke-width="6.16" stroke-linejoin="bevel" points="2080.48,2165.04 2080.48,2311.48"/>
<polyline class="Stem" fill="none" stroke="#000000" stroke-width="6.16" stroke-linejoin="bevel" points="2386.68,2206.34 2386.68,2031.55"/>
<polyline class="Stem" fill="none" stroke="#000000" stroke-width="6.16" stroke-linejoin="bevel" points="2498.95,2178.34 2498.95,2017.56"/>
<polyline class="Stem" fill="none" stroke="#000000" stroke-width="6.16" stroke-linejoin="bevel" points="2544.61,2165.04 2544.61,2311.48"/>
<polyline class="Stem" fill="none" stroke="#000000" stroke-width="6.16" stroke-linejoin="bevel" points="2656.88,2137.05 2656.88,2297.48"/>
<polyline class="Stem" fill="none" stroke="#000000" stroke-width="6.16" stroke-linejoin="bevel" points="2896.48,2109.06 2896.48,2255.49"/>
<polyline class="Stem" fill="none" stroke="#000000" stroke-width="6.16" stroke-linejoin="bevel" points="3008.75,2165.04 3008.75,2311.48"/>
<polyline class="Stem" fill="none" stroke="#000000" stroke-width="6.16" stroke-linejoin="bevel" points="3187.62,2178.34 3187.62,2017.56"/>
<polyline class="Stem" fill="none" stroke="#000000" stroke-width="6.16" stroke-linejoin="bevel" points="3299.89,2206.34 3299.89,2031.55"/>
<polyline class="Stem" fill="none" stroke="#000000" stroke-width="6.16" stroke-linejoin="bevel" points="3472.88,2193.03 3472.88,2332.47"/>
<polyline class="Stem" fill="none" stroke="#000000" stroke-width="6.16" stroke-linejoin="bevel" points="3624.98,2165.04 3624.98,2311.48"/>
<polyline class="Stem" fill="none" stroke="#000000" stroke-width="6.16" stroke-linejoin="bevel" points="3931.18,2206.34 3931.18,2017.56"/>
<path class="Note" transform="matrix(2.23937,0,0,2.23937,689.387,714.685)" d="M31.5,-8.1 C29.7,-11.4 25.9,-13.2 21.3,-13.2 C17.9,-13.2 14.2,-12.2 10.6,-10.3 C4,-6.8 0,-0.9 0,4.2 C0,5.6 0.3,7 1,8.3 C2.8,11.6 6.6,13.3 11.2,13.3 C14.6,13.3 18.3,12.4 21.9,10.5 C28.5,7 32.5,1.1 32.5,-4 C32.5,-5.4 32.2,-6.8 31.5,-8.1"/>
<path class="Note" transform="matrix(2.23937,0,0,2.23937,787.015,686.693)" d="M31.5,-8.1 C29.7,-11.4 25.9,-13.2 21.3,-13.2 C17.9,-13.2 14.2,-12.2 10.6,-10.3 C4,-6.8 0,-0.9 0,4.2 C0,5.6 0.3,7 1,8.3 C2.8,11.6 6.6,13.3 11.2,13.3 C14.6,13.3 18.3,12.4 21.9,10.5 C28.5,7 32.5,1.1 32.5,-4 C32.5,-5.4 32.2,-6.8 31.5,-8.1"/>
<path class="Note" transform="matrix(2.23937,0,0,2.23937,884.643,658.701)" d="M31.5,-8.1 C29.7,-11.4 25.9,-13.2 21.3,-13.2 C17.9,-13.2 14.2,-12.2 10.6,-10.3 C4,-6.8 0,-0.9 0,4.2 C0,5.6 0.3,7 1,8.3 C2.8,11.6 6.6,13.3 11.2,13.3 C14.6,13.3 18.3,12.4 21.9,10.5 C28.5,7 32.5,1.1 32.5,-4 C32.5,-5.4 32.2,-6.8 31.5,-8.1"/>
<path class="Note" transform="matrix(2.23937,0,0,2.23937,982.271,630.709)" d="M31.5,-8.1 C29.7,-11.4 25.9,-13.2 21.3,-13.2 C17.9,-13.2 14.2,-12.2 10.6,-10.3 C4,-6.8 0,-0.9 0,4.2 C0,5.6 0.3,7 1,8.3 C2.8,11.6 6.6,13.3 11.2,13.3 C14.6,13.3 18.3,12.4 21.9,10.5 C28.5,7 32.5,1.1 32.5,-4 C32.5,-5.4 32.2,-6.8 31.5,-8.1"/>
<path class="Note" transform="matrix(2.23937,0,0,2.23937,1221.87,602.716)" d="M31.5,-8.1 C29.7,-11.4 25.9,-13.2 21.3,-13.2 C17.9,-13.2 14.2,-12.2 10.6,-10.3 C4,-6.8 0,-0.9 0,4.2 C0,5.6 0.3,7 1,8.3 C2.8,11.6 6.6,13.3 11.2,13.3 C14.6,13.3 18.3,12.4 21.9,10.5 C28.5,7 32.5,1.1 32.5,-4 C32.5,-5.4 32.2,-6.8 31.5,-8.1"/>
<path class="Note" transform="matrix(2.23937,0,0,2.23937,1338.44,658.701)" d="M31.5,-8.1 C29.7,-11.4 25.9,-13.2 21.3,-13.2 C17.9,-13.2 14.2,-12.2 10.6,-10.3 C4,-6.8 0,-0.9 0,4.2 C0,5.6 0.3,7 1,8.3 C2.8,11.6 6.6,13.3 11.2,13.3 C14.6,13.3 18.3,12.4 21.9,10.5 C28.5,7 32.5,1.1 32.5,-4 C32.5,-5.4 32.2,-6.8 31.5,-8.1"/>
<path class="Note" transform="matrix(2.23937,0,0,2.23937,1422.4,714.685)" d="M31.5,-8.1 C29.7,-11.4 25.9,-13.2 21.3,-13.2 C17.9,-13.2 14.2,-12.2 10.6,-10.3 C4,-6.8 0,-0.9 0,4.2 C0,5.6 0.3,7 1,8.3 C2.8,11.6 6.6,13.3 11.2,13.3 C14.6,13.3 18.3,12.4 21.9,10.5 C28.5,7 32.5,1.1 32.5,-4 C32.5,-5.4 32.2,-6.8 31.5,-8.1"/>
<path class="Note" transform="matrix(2.23937,0,0,2.23937,1661.99,518.74)" d="M31.5,-8.1 C29.7,-11.4 25.9,-13.2 21.3,-13.2 C17.9,-13.2 14.2,-12.2 10.6,-10.3 C4,-6.8 0,-0.9 0,4.2 C0,5.6 0.3,7 1,8.3 C2.8,11.6 6.6,13.3 11.2,13.3 C14.6,13.3 18.3,12.4 21.9,10.5 C28.5,7 32.5,1.1 32.5,-4 C32.5,-5.4 32.2,-6.8 31.5,-8.1"/>
<path class="Note" transform="matrix(2.23937,0,0,2.23937,1778.56,574.724)" d="M31.5,-8.1 C29.7,-11.4 25.9,-13.2 21.3,-13.2 C17.9,-13.2 14.2,-12.2 10.6,-10.3 C4,-6.8 0,-0.9 0,4.2 C0,5.6 0.3,7 1,8.3 C2.8,11.6 6.6,13.3 11.2,13.3 C14.6,13.3 18.3,12.4 21.9,10.5 C28.5,7 32.5,1.1 32.5,-4 C32.5,-5.4 32.2,-6.8 31.5,-8.1"/>
<path class="Note" transform="matrix(2.23937,0,0,2.23937,1862.52,630.709)" d="M31.5,-8.1 C29.7,-11.4 25.9,-13.2 21.3,-13.2 C17.9,-13.2 14.2,-12.2 10.6,-10.3 C4,-6.8 0,-0.9 0,4.2 C0,5.6 0.3,7 1,8.3 C2.8,11.6 6.6,13.3 11.2,13.3 C14.6,13.3 18.3,12.4 21.9,10.5 C28.5,7 32.5,1.1 32.5,-4 C32.5,-5.4 32.2,-6.8 31.5,-8.1"/>
<path class="Note" transform="matrix(2.23937,0,0,2.23937,2102.12,602.716)" d="M31.5,-8.1 C29.7,-11.4 25.9,-13.2 21.3,-13.2 C17.9,-13.2 14.2,-12.2 10.6,-10.3 C4,-6.8 0,-0.9 0,4.2 C0,5.6 0.3,7 1,8.3 C2.8,11.6 6.6,13.3 11.2,13.3 C14.6,13.3 18.3,12.4 21.9,10.5 C28.5,7 32.5,1.1 32.5,-4 C32.5,-5.4 32.2,-6.8 31.5,-8.1"/>
<path class="Note" transform="matrix(2.23937,0,0,2.23937,2210.29,658.701)" d="M31.5,-8.1 C29.7,-11.4 25.9,-13.2 21.3,-13.2 C17.9,-13.2 14.2,-12.2 10.6,-10.3 C4,-6.8 0,-0.9 0,4.2 C0,5.6 0.3,7 1,8.3 C2.8,11.6 6.6,13.3 11.2,13.3 C14.6,13.3 18.3,12.4 21.9,10.5 C28.5,7 32.5,1.1 32.5,-4 C32.5,-5.4 32.2,-6.8 31.5,-8.1"/>
<path class="Note" transform="matrix(2.23937,0,0,2.23937,2449.89,714.685)" d="M31.5,-8.1 C29.7,-11.4 25.9,-13.2 21.3,-13.2 C17.9,-13.2 14.2,-12.2 10.6,-10.3 C4,-6.8 0,-0.9 0,4.2 C0,5.6 0.3,7 1,8.3 C2.8,11.6 6.6,13.3 11.2,13.3 C14.6,13.3 18.3,12.4 21.9,10.5 C28.5,7 32.5,1.1 32.5,-4 C32.5,-5.4 32.2,-6.8 31.5,-8.1"/>
<path class="Note" transform="matrix(2.23937,0,0,2.23937,2547.51,686.693)" d="M31.5,-8.1 C29.7,-11.4 25.9,-13.2 21.3,-13.2 C17.9,-13.2 14.2,-12.2 10.6,-10.3 C4,-6.8 0,-0.9 0,4.2 C0,5.6 0.3,7 1,8.3 C2.8,11.6 6.6,13.3 11.2,13.3 C14.6,13.3 18.3,12.4 21.9,10.5 C28.5,7 32.5,1.1 32.5,-4 C32.5,-5.4 32.2,-6.8 31.5,-8.1"/>
<path class="Note" transform="matrix(2.23937,0,0,2.23937,2645.14,658.701)" d="M31.5,-8.1 C29.7,-11.4 25.9,-13.2 21.3,-13.2 C17.9,-13.2 14.2,-12.2 10.6,-10.3 C4,-6.8 0,-0.9 0,4.2 C0,5.6 0.3,7 1,8.3 C2.8,11.6 6.6,13.3 11.2,13.3 C14.6,13.3 18.3,12.4 21.9,10.5 C28.5,7 32.5,1.1 32.5,-4 C32.5,-5.4 32.2,-6.8 31.5,-8.1"/>
<path class="Note" transform="matrix(2.23937,0,0,2.23937,2742.77,630.709)" d="M31.5,-8.1 C29.7,-11.4 25.9,-13.2 21.3,-13.2 C17.9,-13.2 14.2,-12.2 10.6,-10.3 C4,-6.8 0,-0.9 0,4.2 C0,5.6 0.3,7 1,8.3 C2.8,11.6 6.6,13.3 11.2,13.3 C14.6,13.3 18.3,12.4 21.9,10.5 C28.5,7 32.5,1.1 32.5,-4 C32.5,-5.4 32.2,-6.8 31.5,-8.1"/>
<path class="Note" transform="matrix(2.23937,0,0,2.23937,2982.37,602.716)" d="M31.5,-8.1 C29.7,-11.4 25.9,-13.2 21.3,-13.2 C17.9,-13.2 14.2,-12.2 10.6,-10.3 C4,-6.8 0,-0.9 0,4.2 C0,5.6 0.3,7 1,8.3 C2.8,11.6 6.6,13.3 11.2,13.3 C14.6,13.3 18.3,12.4 21.9,10.5 C28.5,7 32.5,1.1 32.5,-4 C32.5,-5.4 32.2,-6.8 31.5,-8.1"/>
<path class="Note" transform="matrix(2.23937,0,0,2.23937,3079.99,658.701)" d="M31.5,-8.1 C29.7,-11.4 25.9,-13.2 21.3,-13.2 C17.9,-13.2 14.2,-12.2 10.6,-10.3 C4,-6.8 0,-0.9 0,4.2 C0,5.6 0.3,7 1,8.3 C2.8,11.6 6.6,13.3 11.2,13.3 C14.6,13.3 18.3,12.4 21.9,10.5 C28.5,7 32.5,1.1 32.5,-4 C32.5,-5.4 32.2,-6.8 31.5,-8.1"/>
<path class="Note" transform="matrix(2.23937,0,0,2.23937,3177.62,686.693)" d="M31.5,-8.1 C29.7,-11.4 25.9,-13.2 21.3,-13.2 C17.9,-13.2 14.2,-12.2 10.6,-10.3 C4,-6.8 0,-0.9 0,4.2 C0,5.6 0.3,7 1,8.3 C2.8,11.6 6.6,13.3 11.2,13.3 C14.6,13.3 18.3,12.4 21.9,10.5 C28.5,7 32.5,1.1 32.5,-4 C32.5,-5.4 32.2,-6.8 31.5,-8.1"/>
<path class="Note" transform="matrix(2.23937,0,0,2.23937,3275.25,714.685)" d="M31.5,-8.1 C29.7,-11.4 25.9,-13.2 21.3,-13.2 C17.9,-13.2 14.2,-12.2 10.6,-10.3 C4,-6.8 0,-0.9 0,4.2 C0,5.6 0.3,7 1,8.3 C2.8,11.6 6.6,13.3 11.2,13.3 C14.6,13.3 18.3,12.4 21.9,10.5 C28.5,7 32.5,1.1 32.5,-4 C32.5,-5.4 32.2,-6.8 31.5,-8.1"/>
<path class="Note" transform="matrix(2.23937,0,0,2.23937,3514.85,686.693)" d="M31.5,-8.1 C29.7,-11.4 25.9,-13.2 21.3,-13.2 C17.9,-13.2 14.2,-12.2 10.6,-10.3 C4,-6.8 0,-0.9 0,4.2 C0,5.6 0.3,7 1,8.3 C2.8,11.6 6.6,13.3 11.2,13.3 C14.6,13.3 18.3,12.4 21.9,10.5 C28.5,7 32.5,1.1 32.5,-4 C32.5,-5.4 32.2,-6.8 31.5,-8.1"/>
<path class="Note" transform="matrix(2.23937,0,0,2.23937,3623.02,658.701)" d="M31.5,-8.1 C29.7,-11.4 25.9,-13.2 21.3,-13.2 C17.9,-13.2 14.2,-12.2 10.6,-10.3 C4,-6.8 0,-0.9 0,4.2 C0,5.6 0.3,7 1,8.3 C2.8,11.6 6.6,13.3 11.2,13.3 C14.6,13.3 18.3,12.4 21.9,10.5 C28.5,7 32.5,1.1 32.5,-4 C32.5,-5.4 32.2,-6.8 31.5,-8.1"/>
<path class="Note" transform="matrix(2.23937,0,0,2.23937,3862.62,686.693)" d="M31.5,-8.1 C29.7,-11.4 25.9,-13.2 21.3,-13.2 C17.9,-13.2 14.2,-12.2 10.6,-10.3 C4,-6.8 0,-0.9 0,4.2 C0,5.6 0.3,7 1,8.3 C2.8,11.6 6.6,13.3 11.2,13.3 C14.6,13.3 18.3,12.4 21.9,10.5 C28.5,7 32.5,1.1 32.5,-4 C32.5,-5.4 32.2,-6.8 31.5,-8.1"/>
<path class="Note" transform="matrix(2.23937,0,0,2.23937,565.504,1464.09)" d="M31.5,-8.1 C29.7,-11.4 25.9,-13.2 21.3,-13.2 C17.9,-13.2 14.2,-12.2 10.6,-10.3 C4,-6.8 0,-0.9 0,4.2 C0,5.6 0.3,7 1,8.3 C2.8,11.6 6.6,13.3 11.2,13.3 C14.6,13.3 18.3,12.4 21.9,10.5 C28.5,7 32.5,1.1 32.5,-4 C32.5,-5.4 32.2,-6.8 31.5,-8.1"/>
<path class="Note" transform="matrix(2.23937,0,0,2.23937,668.294,1436.1)" d="M31.5,-8.1 C29.7,-11.4 25.9,-13.2 21.3,-13.2 C17.9,-13.2 14.2,-12.2 10.6,-10.3 C4,-6.8 0,-0.9 0,4.2 C0,5.6 0.3,7 1,8.3 C2.8,11.6 6.6,13.3 11.2,13.3 C14.6,13.3 18.3,12.4 21.9,10.5 C28.5,7 32.5,1.1 32.5,-4 C32.5,-5.4 32.2,-6.8 31.5,-8.1"/>
<path class="Note" transform="matrix(2.23937,0,0,2.23937,771.084,1408.11)" d="M31.5,-8.1 C29.7,-11.4 25.9,-13.2 21.3,-13.2 C17.9,-13.2 14.2,-12.2 10.6,-10.3 C4,-6.8 0,-0.9 0,4.2 C0,5.6 0.3,7 1,8.3 C2.8,11.6 6.6,13.3 11.2,13.3 C14.6,13.3 18.3,12.4 21.9,10.5 C28.5,7 32.5,1.1 32.5,-4 C32.5,-5.4 32.2,-6.8 31.5,-8.1"/>
<path class="Note" transform="matrix(2.23937,0,0,2.23937,873.874,1380.12)" d="M31.5,-8.1 C29.7,-11.4 25.9,-13.2 21.3,-13.2 C17.9,-13.2 14.2,-12.2 10.6,-10.3 C4,-6.8 0,-0.9 0,4.2 C0,5.6 0.3,7 1,8.3 C2.8,11.6 6.6,13.3 11.2,13.3 C14.6,13.3 18.3,12.4 21.9,10.5 C28.5,7 32.5,1.1 32.5,-4 C32.5,-5.4 32.2,-6.8 31.5,-8.1"/>
<path class="Note" transform="matrix(2.23937,0,0,2.23937,1113.47,1352.13)" d="M31.5,-8.1 C29.7,-11.4 25.9,-13.2 21.3,-13.2 C17.9,-13.2 14.2,-12.2 10.6,-10.3 C4,-6.8 0,-0.9 0,4.2 C0,5.6 0.3,7 1,8.3 C2.8,11.6 6.6,13.3 11.2,13.3 C14.6,13.3 18.3,12.4 21.9,10.5 C28.5,7 32.5,1.1 32.5,-4 C32.5,-5.4 32.2,-6.8 31.5,-8.1"/>
<path class="Note" transform="matrix(2.23937,0,0,2.23937,1245.53,1408.11)" d="M31.5,-8.1 C29.7,-11.4 25.9,-13.2 21.3,-13.2 C17.9,-13.2 14.2,-12.2 10.6,-10.3 C4,-6.8 0,-0.9 0,4.2 C0,5.6 0.3,7 1,8.3 C2.8,11.6 6.6,13.3 11.2,13.3 C14.6,13.3 18.3,12.4 21.9,10.5 C28.5,7 32.5,1.1 32.5,-4 C32.5,-5.4 32.2,-6.8 31.5,-8.1"/>
<path class="Note" transform="matrix(2.23937,0,0,2.23937,1329.48,1464.09)" d="M31.5,-8.1 C29.7,-11.4 25.9,-13.2 21.3,-13.2 C17.9,-13.2 14.2,-12.2 10.6,-10.3 C4,-6.8 0,-0.9 0,4.2 C0,5.6 0.3,7 1,8.3 C2.8,11.6 6.6,13.3 11.2,13.3 C14.6,13.3 18.3,12.4 21.9,10.5 C28.5,7 32.5,1.1 32.5,-4 C32.5,-5.4 32.2,-6.8 31.5,-8.1"/>
<path class="Note" transform="matrix(2.23937,0,0,2.23937,1569.08,1268.15)" d="M31.5,-8.1 C29.7,-11.4 25.9,-13.2 21.3,-13.2 C17.9,-13.2 14.2,-12.2 10.6,-10.3 C4,-6.8 0,-0.9 0,4.2 C0,5.6 0.3,7 1,8.3 C2.8,11.6 6.6,13.3 11.2,13.3 C14.6,13.3 18.3,12.4 21.9,10.5 C28.5,7 32.5,1.1 32.5,-4 C32.5,-5.4 32.2,-6.8 31.5,-8.1"/>
<path class="Note" transform="matrix(2.23937,0,0,2.23937,1701.14,1324.13)" d="M31.5,-8.1 C29.7,-11.4 25.9,-13.2 21.3,-13.2 C17.9,-13.2 14.2,-12.2 10.6,-10.3 C4,-6.8 0,-0.9 0,4.2 C0,5.6 0.3,7 1,8.3 C2.8,11.6 6.6,13.3 11.2,13.3 C14.6,13.3 18.3,12.4 21.9,10.5 C28.5,7 32.5,1.1 32.5,-4 C32.5,-5.4 32.2,-6.8 31.5,-8.1"/>
<path class="Note" transform="matrix(2.23937,0,0,2.23937,1785.09,1380.12)" d="M31.5,-8.1 C29.7,-11.4 25.9,-13.2 21.3,-13.2 C17.9,-13.2 14.2,-12.2 10.6,-10.3 C4,-6.8 0,-0.9 0,4.2 C0,5.6 0.3,7 1,8.3 C2.8,11.6 6.6,13.3 11.2,13.3 C14.6,13.3 18.3,12.4 21.9,10.5 C28.5,7 32.5,1.1 32.5,-4 C32.5,-5.4 32.2,-6.8 31.5,-8.1"/>
<path class="Note" transform="matrix(2.23937,0,0,2.23937,2024.69,1352.13)" d="M31.5,-8.1 C29.7,-11.4 25.9,-13.2 21.3,-13.2 C17.9,-13.2 14.2,-12.2 10.6,-10.3 C4,-6.8 0,-0.9 0,4.2 C0,5.6 0.3,7 1,8.3 C2.8,11.6 6.6,13.3 11.2,13.3 C14.6,13.3 18.3,12.4 21.9,10.5 C28.5,7 32.5,1.1 32.5,-4 C32.5,-5.4 32.2,-6.8 31.5,-8.1"/>
<path class="Note" transform="matrix(2.23937,0,0,2.23937,2148.35,1408.11)" d="M31.5,-8.1 C29.7,-11.4 25.9,-13.2 21.3,-13.2 C17.9,-13.2 14.2,-12.2 10.6,-10.3 C4,-6.8 0,-0.9 0,4.2 C0,5.6 0.3,7 1,8.3 C2.8,11.6 6.6,13.3 11.2,13.3 C14.6,13.3 18.3,12.4 21.9,10.5 C28.5,7 32.5,1.1 32.5,-4 C32.5,-5.4 32.2,-6.8 31.5,-8.1"/>
<path class="Note" transform="matrix(2.23937,0,0,2.23937,2387.94,1464.09)" d="M31.5,-8.1 C29.7,-11.4 25.9,-13.2 21.3,-13.2 C17.9,-13.2 14.2,-12.2 10.6,-10.3 C4,-6.8 0,-0.9 0,4.2 C0,5.6 0.3,7 1,8.3 C2.8,11.6 6.6,13.3 11.2,13.3 C14.6,13.3 18.3,12.4 21.9,10.5 C28.5,7 32.5,1.1 32.5,-4 C32.5,-5.4 32.2,-6.8 31.5,-8.1"/>
<path class="Note" transform="matrix(2.23937,0,0,2.23937,2490.73,1436.1)" d="M31.5,-8.1 C29.7,-11.4 25.9,-13.2 21.3,-13.2 C17.9,-13.2 14.2,-12.2 10.6,-10.3 C4,-6.8 0,-0.9 0,4.2 C0,5.6 0.3,7 1,8.3 C2.8,11.6 6.6,13.3 11.2,13.3 C14.6,13.3 18.3,12.4 21.9,10.5 C28.5,7 32.5,1.1 32.5,-4 C32.5,-5.4 32.2,-6.8 31.5,-8.1"/>
<path class="Note" transform="matrix(2.23937,0,0,2.23937,2593.52,1408.11)" d="M31.5,-8.1 C29.7,-11.4 25.9,-13.2 21.3,-13.2 C17.9,-13.2 14.2,-12.2 10.6,-10.3 C4,-6.8 0,-0.9 0,4.2 C0,5.6 0.3,7 1,8.3 C2.8,11.6 6.6,13.3 11.2,13.3 C14.6,13.3 18.3,12.4 21.9,10.5 C28.5,7 32.5,1.1 32.5,-4 C32.5,-5.4 32.2,-6.8 31.5,-8.1"/>
<path class="Note" transform="matrix(2.23937,0,0,2.23937,2696.31,1380.12)" d="M31.5,-8.1 C29.7,-11.4 25.9,-13.2 21.3,-13.2 C17.9,-13.2 14.2,-12.2 10.6,-10.3 C4,-6.8 0,-0.9 0,4.2 C0,5.6 0.3,7 1,8.3 C2.8,11.6 6.6,13.3 11.2,13.3 C14.6,13.3 18.3,12.4 21.9,10.5 C28.5,7 32.5,1.1 32.5,-4 C32.5,-5.4 32.2,-6.8 31.5,-8.1"/>
<path class="Note" transform="matrix(2.23937,0,0,2.23937,2935.91,1352.13)" d="M31.5,-8.1 C29.7,-11.4 25.9,-13.2 21.3,-13.2 C17.9,-13.2 14.2,-12.2 10.6,-10.3 C4,-6.8 0,-0.9 0,4.2 C0,5.6 0.3,7 1,8.3 C2.8,11.6 6.6,13.3 11.2,13.3 C14.6,13.3 18.3,12.4 21.9,10.5 C28.5,7 32.5,1.1 32.5,-4 C32.5,-5.4 32.2,-6.8 31.5,-8.1"/>
<path class="Note" transform="matrix(2.23937,0,0,2.23937,3038.7,1408.11)" d="M31.5,-8.1 C29.7,-11.4 25.9,-13.2 21.3,-13.2 C17.9,-13.2 14.2,-12.2 10.6,-10.3 C4,-6.8 0,-0.9 0,4.2 C0,5.6 0.3,7 1,8.3 C2.8,11.6 6.6,13.3 11.2,13.3 C14.6,13.3 18.3,12.4 21.9,10.5 C28.5,7 32.5,1.1 32.5,-4 C32.5,-5.4 32.2,-6.8 31.5,-8.1"/>
<path class="Note" transform="matrix(2.23937,0,0,2.23937,3141.49,1436.1)" d="M31.5,-8.1 C29.7,-11.4 25.9,-13.2 21.3,-13.2 C17.9,-13.2 14.2,-12.2 10.6,-10.3 C4,-6.8 0,-0.9 0,4.2 C0,5.6 0.3,7 1,8.3 C2.8,11.6 6.6,13.3 11.2,13.3 C14.6,13.3 18.3,12.4 21.9,10.5 C28.5,7 32.5,1.1 32.5,-4 C32.5,-5.4 32.2,-6.8 31.5,-8.1"/>
<path class="Note" transform="matrix(2.23937,0,0,2.23937,3244.28,1464.09)" d="M31.5,-8.1 C29.7,-11.4 25.9,-13.2 21.3,-13.2 C17.9,-13.2 14.2,-12.2 10.6,-10.3 C4,-6.8 0,-0.9 0,4.2 C0,5.6 0.3,7 1,8.3 C2.8,11.6 6.6,13.3 11.2,13.3 C14.6,13.3 18.3,12.4 21.9,10.5 C28.5,7 32.5,1.1 32.5,-4 C32.5,-5.4 32.2,-6.8 31.5,-8.1"/>
<path class="Note" transform="matrix(2.23937,0,0,2.23937,3483.87,1436.1)" d="M31.5,-8.1 C29.7,-11.4 25.9,-13.2 21.3,-13.2 C17.9,-13.2 14.2,-12.2 10.6,-10.3 C4,-6.8 0,-0.9 0,4.2 C0,5.6 0.3,7 1,8.3 C2.8,11.6 6.6,13.3 11.2,13.3 C14.6,13.3 18.3,12.4 21.9,10.5 C28.5,7 32.5,1.1 32.5,-4 C32.5,-5.4 32.2,-6.8 31.5,-8.1"/>
<path class="Note" transform="matrix(2.23937,0,0,2.23937,3607.54,1408.11)" d="M31.5,-8.1 C29.7,-11.4 25.9,-13.2 21.3,-13.2 C17.9,-13.2 14.2,-12.2 10.6,-10.3 C4,-6.8 0,-0.9 0,4.2 C0,5.6 0.3,7 1,8.3 C2.8,11.6 6.6,13.3 11.2,13.3 C14.6,13.3 18.3,12.4 21.9,10.5 C28.5,7 32.5,1.1 32.5,-4 C32.5,-5.4 32.2,-6.8 31.5,-8.1"/>
<path class="Note" transform="matrix(2.23937,0,0,2.23937,3847.13,1464.09)" d="M31.5,-8.1 C29.7,-11.4 25.9,-13.2 21.3,-13.2 C17.9,-13.2 14.2,-12.2 10.6,-10.3 C4,-6.8 0,-0.9 0,4.2 C0,5.6 0.3,7 1,8.3 C2.8,11.6 6.6,13.3 11.2,13.3 C14.6,13.3 18.3,12.4 21.9,10.5 C28.5,7 32.5,1.1 32.5,-4 C32.5,-5.4 32.2,-6.8 31.5,-8.1"/>
<path class="Note" transform="matrix(2.23937,0,0,2.23937,565.504,2017.56)" d="M31.5,-8.1 C29.7,-11.4 25.9,-13.2 21.3,-13.2 C17.9,-13.2 14.2,-12.2 10.6,-10.3 C4,-6.8 0,-0.9 0,4.2 C0,5.6 0.3,7 1,8.3 C2.8,11.6 6.6,13.3 11.2,13.3 C14.6,13.3 18.3,12.4 21.9,10.5 C28.5,7 32.5,1.1 32.5,-4 C32.5,-5.4 32.2,-6.8 31.5,-8.1"/>
<path class="Note" transform="matrix(2.23937,0,0,2.23937,715.938,2073.54)" d="M31.5,-8.1 C29.7,-11.4 25.9,-13.2 21.3,-13.2 C17.9,-13.2 14.2,-12.2 10.6,-10.3 C4,-6.8 0,-0.9 0,4.2 C0,5.6 0.3,7 1,8.3 C2.8,11.6 6.6,13.3 11.2,13.3 C14.6,13.3 18.3,12.4 21.9,10.5 C28.5,7 32.5,1.1 32.5,-4 C32.5,-5.4 32.2,-6.8 31.5,-8.1"/>
<path class="Note" transform="matrix(2.23937,0,0,2.23937,809.959,2129.53)" d="M31.5,-8.1 C29.7,-11.4 25.9,-13.2 21.3,-13.2 C17.9,-13.2 14.2,-12.2 10.6,-10.3 C4,-6.8 0,-0.9 0,4.2 C0,5.6 0.3,7 1,8.3 C2.8,11.6 6.6,13.3 11.2,13.3 C14.6,13.3 18.3,12.4 21.9,10.5 C28.5,7 32.5,1.1 32.5,-4 C32.5,-5.4 32.2,-6.8 31.5,-8.1"/>
<path class="Note" transform="matrix(2.23937,0,0,2.23937,1049.55,2101.53)" d="M31.5,-8.1 C29.7,-11.4 25.9,-13.2 21.3,-13.2 C17.9,-13.2 14.2,-12.2 10.6,-10.3 C4,-6.8 0,-0.9 0,4.2 C0,5.6 0.3,7 1,8.3 C2.8,11.6 6.6,13.3 11.2,13.3 C14.6,13.3 18.3,12.4 21.9,10.5 C28.5,7 32.5,1.1 32.5,-4 C32.5,-5.4 32.2,-6.8 31.5,-8.1"/>
<path class="Note" transform="matrix(2.23937,0,0,2.23937,1201.65,2157.52)" d="M31.5,-8.1 C29.7,-11.4 25.9,-13.2 21.3,-13.2 C17.9,-13.2 14.2,-12.2 10.6,-10.3 C4,-6.8 0,-0.9 0,4.2 C0,5.6 0.3,7 1,8.3 C2.8,11.6 6.6,13.3 11.2,13.3 C14.6,13.3 18.3,12.4 21.9,10.5 C28.5,7 32.5,1.1 32.5,-4 C32.5,-5.4 32.2,-6.8 31.5,-8.1"/>
<path class="Note" transform="matrix(2.23937,0,0,2.23937,1441.25,2017.56)" d="M31.5,-8.1 C29.7,-11.4 25.9,-13.2 21.3,-13.2 C17.9,-13.2 14.2,-12.2 10.6,-10.3 C4,-6.8 0,-0.9 0,4.2 C0,5.6 0.3,7 1,8.3 C2.8,11.6 6.6,13.3 11.2,13.3 C14.6,13.3 18.3,12.4 21.9,10.5 C28.5,7 32.5,1.1 32.5,-4 C32.5,-5.4 32.2,-6.8 31.5,-8.1"/>
<path class="Note" transform="matrix(2.23937,0,0,2.23937,1591.68,2073.54)" d="M31.5,-8.1 C29.7,-11.4 25.9,-13.2 21.3,-13.2 C17.9,-13.2 14.2,-12.2 10.6,-10.3 C4,-6.8 0,-0.9 0,4.2 C0,5.6 0.3,7 1,8.3 C2.8,11.6 6.6,13.3 11.2,13.3 C14.6,13.3 18.3,12.4 21.9,10.5 C28.5,7 32.5,1.1 32.5,-4 C32.5,-5.4 32.2,-6.8 31.5,-8.1"/>
<path class="Note" transform="matrix(2.23937,0,0,2.23937,1685.7,2129.53)" d="M31.5,-8.1 C29.7,-11.4 25.9,-13.2 21.3,-13.2 C17.9,-13.2 14.2,-12.2 10.6,-10.3 C4,-6.8 0,-0.9 0,4.2 C0,5.6 0.3,7 1,8.3 C2.8,11.6 6.6,13.3 11.2,13.3 C14.6,13.3 18.3,12.4 21.9,10.5 C28.5,7 32.5,1.1 32.5,-4 C32.5,-5.4 32.2,-6.8 31.5,-8.1"/>
<path class="Note" transform="matrix(2.23937,0,0,2.23937,1925.3,2101.53)" d="M31.5,-8.1 C29.7,-11.4 25.9,-13.2 21.3,-13.2 C17.9,-13.2 14.2,-12.2 10.6,-10.3 C4,-6.8 0,-0.9 0,4.2 C0,5.6 0.3,7 1,8.3 C2.8,11.6 6.6,13.3 11.2,13.3 C14.6,13.3 18.3,12.4 21.9,10.5 C28.5,7 32.5,1.1 32.5,-4 C32.5,-5.4 32.2,-6.8 31.5,-8.1"/>
<path class="Note" transform="matrix(2.23937,0,0,2.23937,2077.4,2157.52)" d="M31.5,-8.1 C29.7,-11.4 25.9,-13.2 21.3,-13.2 C17.9,-13.2 14.2,-12.2 10.6,-10.3 C4,-6.8 0,-0.9 0,4.2 C0,5.6 0.3,7 1,8.3 C2.8,11.6 6.6,13.3 11.2,13.3 C14.6,13.3 18.3,12.4 21.9,10.5 C28.5,7 32.5,1.1 32.5,-4 C32.5,-5.4 32.2,-6.8 31.5,-8.1"/>
<path class="Note" transform="matrix(2.23937,0,0,2.23937,2316.99,2213.5)" d="M31.5,-8.1 C29.7,-11.4 25.9,-13.2 21.3,-13.2 C17.9,-13.2 14.2,-12.2 10.6,-10.3 C4,-6.8 0,-0.9 0,4.2 C0,5.6 0.3,7 1,8.3 C2.8,11.6 6.6,13.3 11.2,13.3 C14.6,13.3 18.3,12.4 21.9,10.5 C28.5,7 32.5,1.1 32.5,-4 C32.5,-5.4 32.2,-6.8 31.5,-8.1"/>
<path class="Note" transform="matrix(2.23937,0,0,2.23937,2429.26,2185.51)" d="M31.5,-8.1 C29.7,-11.4 25.9,-13.2 21.3,-13.2 C17.9,-13.2 14.2,-12.2 10.6,-10.3 C4,-6.8 0,-0.9 0,4.2 C0,5.6 0.3,7 1,8.3 C2.8,11.6 6.6,13.3 11.2,13.3 C14.6,13.3 18.3,12.4 21.9,10.5 C28.5,7 32.5,1.1 32.5,-4 C32.5,-5.4 32.2,-6.8 31.5,-8.1"/>
<path class="Note" transform="matrix(2.23937,0,0,2.23937,2541.53,2157.52)" d="M31.5,-8.1 C29.7,-11.4 25.9,-13.2 21.3,-13.2 C17.9,-13.2 14.2,-12.2 10.6,-10.3 C4,-6.8 0,-0.9 0,4.2 C0,5.6 0.3,7 1,8.3 C2.8,11.6 6.6,13.3 11.2,13.3 C14.6,13.3 18.3,12.4 21.9,10.5 C28.5,7 32.5,1.1 32.5,-4 C32.5,-5.4 32.2,-6.8 31.5,-8.1"/>
<path class="Note" transform="matrix(2.23937,0,0,2.23937,2653.8,2129.53)" d="M31.5,-8.1 C29.7,-11.4 25.9,-13.2 21.3,-13.2 C17.9,-13.2 14.2,-12.2 10.6,-10.3 C4,-6.8 0,-0.9 0,4.2 C0,5.6 0.3,7 1,8.3 C2.8,11.6 6.6,13.3 11.2,13.3 C14.6,13.3 18.3,12.4 21.9,10.5 C28.5,7 32.5,1.1 32.5,-4 C32.5,-5.4 32.2,-6.8 31.5,-8.1"/>
<path class="Note" transform="matrix(2.23937,0,0,2.23937,2893.4,2101.53)" d="M31.5,-8.1 C29.7,-11.4 25.9,-13.2 21.3,-13.2 C17.9,-13.2 14.2,-12.2 10.6,-10.3 C4,-6.8 0,-0.9 0,4.2 C0,5.6 0.3,7 1,8.3 C2.8,11.6 6.6,13.3 11.2,13.3 C14.6,13.3 18.3,12.4 21.9,10.5 C28.5,7 32.5,1.1 32.5,-4 C32.5,-5.4 32.2,-6.8 31.5,-8.1"/>
<path class="Note" transform="matrix(2.23937,0,0,2.23937,3005.67,2157.52)" d="M31.5,-8.1 C29.7,-11.4 25.9,-13.2 21.3,-13.2 C17.9,-13.2 14.2,-12.2 10.6,-10.3 C4,-6.8 0,-0.9 0,4.2 C0,5.6 0.3,7 1,8.3 C2.8,11.6 6.6,13.3 11.2,13.3 C14.6,13.3 18.3,12.4 21.9,10.5 C28.5,7 32.5,1.1 32.5,-4 C32.5,-5.4 32.2,-6.8 31.5,-8.1"/>
<path class="Note" transform="matrix(2.23937,0,0,2.23937,3117.94,2185.51)" d="M31.5,-8.1 C29.7,-11.4 25.9,-13.2 21.3,-13.2 C17.9,-13.2 14.2,-12.2 10.6,-10.3 C4,-6.8 0,-0.9 0,4.2 C0,5.6 0.3,7 1,8.3 C2.8,11.6 6.6,13.3 11.2,13.3 C14.6,13.3 18.3,12.4 21.9,10.5 C28.5,7 32.5,1.1 32.5,-4 C32.5,-5.4 32.2,-6.8 31.5,-8.1"/>
<path class="Note" transform="matrix(2.23937,0,0,2.23937,3230.21,2213.5)" d="M31.5,-8.1 C29.7,-11.4 25.9,-13.2 21.3,-13.2 C17.9,-13.2 14.2,-12.2 10.6,-10.3 C4,-6.8 0,-0.9 0,4.2 C0,5.6 0.3,7 1,8.3 C2.8,11.6 6.6,13.3 11.2,13.3 C14.6,13.3 18.3,12.4 21.9,10.5 C28.5,7 32.5,1.1 32.5,-4 C32.5,-5.4 32.2,-6.8 31.5,-8.1"/>
<path class="Note" transform="matrix(2.23937,0,0,2.23937,3469.8,2185.51)" d="M31.5,-8.1 C29.7,-11.4 25.9,-13.2 21.3,-13.2 C17.9,-13.2 14.2,-12.2 10.6,-10.3 C4,-6.8 0,-0.9 0,4.2 C0,5.6 0.3,7 1,8.3 C2.8,11.6 6.6,13.3 11.2,13.3 C14.6,13.3 18.3,12.4 21.9,10.5 C28.5,7 32.5,1.1 32.5,-4 C32.5,-5.4 32.2,-6.8 31.5,-8.1"/>
<path class="Note" transform="matrix(2.23937,0,0,2.23937,3621.9,2157.52)" d="M31.5,-8.1 C29.7,-11.4 25.9,-13.2 21.3,-13.2 C17.9,-13.2 14.2,-12.2 10.6,-10.3 C4,-6.8 0,-0.9 0,4.2 C0,5.6 0.3,7 1,8.3 C2.8,11.6 6.6,13.3 11.2,13.3 C14.6,13.3 18.3,12.4 21.9,10.5 C28.5,7 32.5,1.1 32.5,-4 C32.5,-5.4 32.2,-6.8 31.5,-8.1"/>
<path class="Note" transform="matrix(2.23937,0,0,2.23937,3861.5,2213.5)" d="M31.5,-8.1 C29.7,-11.4 25.9,-13.2 21.3,-13.2 C17.9,-13.2 14.2,-12.2 10.6,-10.3 C4,-6.8 0,-0.9 0,4.2 C0,5.6 0.3,7 1,8.3 C2.8,11.6 6.6,13.3 11.2,13.3 C14.6,13.3 18.3,12.4 21.9,10.5 C28.5,7 32.5,1.1 32.5,-4 C32.5,-5.4 32.2,-6.8 31.5,-8.1 M27.2,-1.3 C25.5,0.4 22.1,2.5 18.5,4.5 C14.9,6.5 11.3,8 8.9,8.5 C8.4,8.6 7.9,8.7 7.4,8.7 C5.8,8.7 4.6,8.1 3.9,6.8 C3.6,6.3 3.4,5.7 3.4,5.1 C3.4,4 4.1,2.7 5.2,1.6 C6.9,-0.1 10.2,-2.2 13.8,-4.2 C17.4,-6.2 21,-7.7 23.4,-8.2 C23.9,-8.3 24.4,-8.4 24.9,-8.4 C26.5,-8.4 27.8,-7.8 28.5,-6.5 C28.8,-6 28.9,-5.4 28.9,-4.8 C28.9,-3.7 28.3,-2.5 27.2,-1.3"/>
<path class="Clef" transform="matrix(2.23937,0,0,2.23937,115.653,630.709)" d="M63.35,-5.86992 C62.12,-11.3 59.48,-15.1199 58.7,-16.16 C55.51,-20.43 51.5,-23.28 46.81,-24.63 C43.7,-25.5199 40.7,-25.63 38.28,-25.45 C37.24,-31.46 36.24,-37.3399 35.33,-42.7899 C40.78,-48.96 44.4,-54.76 46.68,-59.06 C50.15,-65.6399 51.3,-70.2199 51.35,-70.4199 C53.07,-75.63 53.43,-83.33 52.33,-91.5399 C51.32,-99.0899 49.23,-105.8 46.88,-109.05 C45.85,-110.48 44.8,-111.21 43.76,-111.21 C42.54,-111.21 40.03,-109.97 37.14,-107.2 C34.84,-105 31.57,-101.11 29.01,-95.1 C26.01,-88.0399 25.8,-78.55 26.15,-71.83 C26.53,-64.56 27.64,-58.8699 27.65,-58.8199 C27.67,-58.73 27.93,-57.23 28.38,-54.66 C28.15,-54.43 27.91,-54.21 27.66,-53.9699 C26.62,-52.9699 25.43,-51.83 24.05,-50.45 C23.19,-49.5899 22.24,-48.68 21.24,-47.71 C12.79,-39.5699 0,-27.25 0,-8.1 C0,-3.4 0.9,1.02002 2.67998,5.03008 C4.27002,8.63008 6.57002,11.9101 9.5,14.7801 C17.23,22.3301 27.82,25.54 34.88,25.3801 C37.83,25.3101 40.46,25.07 42.85,24.62 C44.68,34.22 45.82,41.25 45.86,46.59 C45.9,53.1 44.25,57.07 40.35,59.84 C37.92,61.57 35.11,62.52 32.01,62.67 C29.42,62.79 27.16,62.32 25.73,61.9101 L25.72,61.9101 C25.72,61.9101 25.43,61.8301 25.42,61.6301 C25.41,61.45 25.76,61.4 25.77,61.4 L25.79,61.4 C27.71,60.9601 31.28,59.7301 33.64,56.4301 C35.44,53.9101 36.31,49.29 34.47,45.35 C33.36,42.9601 30.85,40.0101 25.23,39.5601 C22.74,39.3601 20.47,39.87 18.47,41.07 C16.66,42.15 15.16,43.79 14.11,45.79 C11.65,50.49 12.11,56.22 15.24,60.0601 C18.2,63.6801 22.82,65.99 28.25,66.57 C29.1,66.6601 29.95,66.7 30.8,66.7 C35.23,66.7 39.63,65.5 43.2,63.29 C46.86,60.72 48.98,56.74 49.66,51.1101 C50.22,46.47 49.83,40.5601 48.43,32.49 C48.07,30.4 47.53,27.37 46.87,23.6101 C52.62,21.69 56.78,18.12 60.55,12.27 C63.84,6.53008 64.78,0.430078 63.35,-5.86992 M29.14,20.32 C24.5,19.1 20.07,16.6 16.31,13.1 C15,11.87 13.13,9.7 11.66,6.31006 C10.29,3.15 9.62998,-0.27998 9.67998,-3.86992 C9.75,-8.55996 11.06,-13.38 13.57,-18.1699 C16.49,-23.75 21.05,-29.28 27.11,-34.61 C28.56,-35.8899 29.93,-37.1699 31.22,-38.45 C31.98,-34.1899 32.81,-29.5 33.69,-24.6199 C29.84,-23.35 25.09,-20.2 21.98,-14.55 C18.44,-7.97998 18.58,-2.45996 19.31,1.02002 C20.25,5.48008 22.78,9.24004 26.24,11.3301 C27.17,11.89 31.3,14.02 33.14,13.44 C33.51,13.32 33.78,13.1 33.92,12.77 C34.43,11.6 33.41,10.9601 31.85,10 C31.25,9.63008 30.58,9.21006 29.85,8.68008 C26.53,6.19004 25.08,1.74004 26.15,-2.63994 C26.73,-5.03994 28.01,-7.2 29.85,-8.9 C31.52,-10.45 33.56,-11.55 35.94,-12.1899 C37.98,-0.95 40.04,10.2 41.68,18.5601 C41.81,19.25 41.95,19.92 42.08,20.59 C37.7,21.52 33.35,21.4301 29.14,20.32 M40.46,-12.86 C50.81,-13.33 55.08,-5.88994 55.97,-1.05996 C56.44,1.47002 56.43,5.91006 54.89,10.12 C53.72,13.3 51.26,17.37 46.13,19.4301 C46.06,19.0101 45.98,18.5801 45.9,18.15 C44.36,9.38008 42.42,-1.60996 40.46,-12.86 M33.14,-83.8 C34.92,-89.5399 37.66,-92.7899 39.65,-94.5199 C41.4,-96.0399 43.05,-96.75 43.97,-96.75 C44.11,-96.75 44.23,-96.73 44.33,-96.7 C44.79,-96.56 45.32,-95.9899 45.79,-95.1199 C48.1,-90.83 47.36,-84.1199 46.02,-79.68 C44.39,-74.28 41.47,-68.66 32.67,-59.05 C32.5,-60.16 32.34,-61.21 32.19,-62.1899 C30.94,-70.48 31.26,-77.75 33.14,-83.8"/>
<path class="Clef" transform="matrix(2.23937,0,0,2.23937,115.653,1380.12)" d="M63.35,-5.86992 C62.12,-11.3 59.48,-15.1199 58.7,-16.16 C55.51,-20.43 51.5,-23.28 46.81,-24.63 C43.7,-25.5199 40.7,-25.63 38.28,-25.45 C37.24,-31.46 36.24,-37.3399 35.33,-42.7899 C40.78,-48.96 44.4,-54.76 46.68,-59.06 C50.15,-65.6399 51.3,-70.2199 51.35,-70.4199 C53.07,-75.63 53.43,-83.33 52.33,-91.5399 C51.32,-99.0899 49.23,-105.8 46.88,-109.05 C45.85,-110.48 44.8,-111.21 43.76,-111.21 C42.54,-111.21 40.03,-109.97 37.14,-107.2 C34.84,-105 31.57,-101.11 29.01,-95.1 C26.01,-88.0399 25.8,-78.55 26.15,-71.83 C26.53,-64.56 27.64,-58.8699 27.65,-58.8199 C27.67,-58.73 27.93,-57.23 28.38,-54.66 C28.15,-54.43 27.91,-54.21 27.66,-53.9699 C26.62,-52.9699 25.43,-51.83 24.05,-50.45 C23.19,-49.5899 22.24,-48.68 21.24,-47.71 C12.79,-39.5699 0,-27.25 0,-8.1 C0,-3.4 0.9,1.02002 2.67998,5.03008 C4.27002,8.63008 6.57002,11.9101 9.5,14.7801 C17.23,22.3301 27.82,25.54 34.88,25.3801 C37.83,25.3101 40.46,25.07 42.85,24.62 C44.68,34.22 45.82,41.25 45.86,46.59 C45.9,53.1 44.25,57.07 40.35,59.84 C37.92,61.57 35.11,62.52 32.01,62.67 C29.42,62.79 27.16,62.32 25.73,61.9101 L25.72,61.9101 C25.72,61.9101 25.43,61.8301 25.42,61.6301 C25.41,61.45 25.76,61.4 25.77,61.4 L25.79,61.4 C27.71,60.9601 31.28,59.7301 33.64,56.4301 C35.44,53.9101 36.31,49.29 34.47,45.35 C33.36,42.9601 30.85,40.0101 25.23,39.5601 C22.74,39.3601 20.47,39.87 18.47,41.07 C16.66,42.15 15.16,43.79 14.11,45.79 C11.65,50.49 12.11,56.22 15.24,60.0601 C18.2,63.6801 22.82,65.99 28.25,66.57 C29.1,66.6601 29.95,66.7 30.8,66.7 C35.23,66.7 39.63,65.5 43.2,63.29 C46.86,60.72 48.98,56.74 49.66,51.1101 C50.22,46.47 49.83,40.5601 48.43,32.49 C48.07,30.4 47.53,27.37 46.87,23.6101 C52.62,21.69 56.78,18.12 60.55,12.27 C63.84,6.53008 64.78,0.430078 63.35,-5.86992 M29.14,20.32 C24.5,19.1 20.07,16.6 16.31,13.1 C15,11.87 13.13,9.7 11.66,6.31006 C10.29,3.15 9.62998,-0.27998 9.67998,-3.86992 C9.75,-8.55996 11.06,-13.38 13.57,-18.1699 C16.49,-23.75 21.05,-29.28 27.11,-34.61 C28.56,-35.8899 29.93,-37.1699 31.22,-38.45 C31.98,-34.1899 32.81,-29.5 33.69,-24.6199 C29.84,-23.35 25.09,-20.2 21.98,-14.55 C18.44,-7.97998 18.58,-2.45996 19.31,1.02002 C20.25,5.48008 22.78,9.24004 26.24,11.3301 C27.17,11.89 31.3,14.02 33.14,13.44 C33.51,13.32 33.78,13.1 33.92,12.77 C34.43,11.6 33.41,10.9601 31.85,10 C31.25,9.63008 30.58,9.21006 29.85,8.68008 C26.53,6.19004 25.08,1.74004 26.15,-2.63994 C26.73,-5.03994 28.01,-7.2 29.85,-8.9 C31.52,-10.45 33.56,-11.55 35.94,-12.1899 C37.98,-0.95 40.04,10.2 41.68,18.5601 C41.81,19.25 41.95,19.92 42.08,20.59 C37.7,21.52 33.35,21.4301 29.14,20.32 M40.46,-12.86 C50.81,-13.33 55.08,-5.88994 55.97,-1.05996 C56.44,1.47002 56.43,5.91006 54.89,10.12 C53.72,13.3 51.26,17.37 46.13,19.4301 C46.06,19.0101 45.98,18.5801 45.9,18.15 C44.36,9.38008 42.42,-1.60996 40.46,-12.86 M33.14,-83.8 C34.92,-89.5399 37.66,-92.7899 39.65,-94.5199 C41.4,-96.0399 43.05,-96.75 43.97,-96.75 C44.11,-96.75 44.23,-96.73 44.33,-96.7 C44.79,-96.56 45.32,-95.9899 45.79,-95.1199 C48.1,-90.83 47.36,-84.1199 46.02,-79.68 C44.39,-74.28 41.47,-68.66 32.67,-59.05 C32.5,-60.16 32.34,-61.21 32.19,-62.1899 C30.94,-70.48 31.26,-77.75 33.14,-83.8"/>
<path class="Clef" transform="matrix(2.23937,0,0,2.23937,115.653,2129.53)" d="M63.35,-5.86992 C62.12,-11.3 59.48,-15.1199 58.7,-16.16 C55.51,-20.43 51.5,-23.28 46.81,-24.63 C43.7,-25.5199 40.7,-25.63 38.28,-25.45 C37.24,-31.46 36.24,-37.3399 35.33,-42.7899 C40.78,-48.96 44.4,-54.76 46.68,-59.06 C50.15,-65.6399 51.3,-70.2199 51.35,-70.4199 C53.07,-75.63 53.43,-83.33 52.33,-91.5399 C51.32,-99.0899 49.23,-105.8 46.88,-109.05 C45.85,-110.48 44.8,-111.21 43.76,-111.21 C42.54,-111.21 40.03,-109.97 37.14,-107.2 C34.84,-105 31.57,-101.11 29.01,-95.1 C26.01,-88.0399 25.8,-78.55 26.15,-71.83 C26.53,-64.56 27.64,-58.8699 27.65,-58.8199 C27.67,-58.73 27.93,-57.23 28.38,-54.66 C28.15,-54.43 27.91,-54.21 27.66,-53.9699 C26.62,-52.9699 25.43,-51.83 24.05,-50.45 C23.19,-49.5899 22.24,-48.68 21.24,-47.71 C12.79,-39.5699 0,-27.25 0,-8.1 C0,-3.4 0.9,1.02002 2.67998,5.03008 C4.27002,8.63008 6.57002,11.9101 9.5,14.7801 C17.23,22.3301 27.82,25.54 34.88,25.3801 C37.83,25.3101 40.46,25.07 42.85,24.62 C44.68,34.22 45.82,41.25 45.86,46.59 C45.9,53.1 44.25,57.07 40.35,59.84 C37.92,61.57 35.11,62.52 32.01,62.67 C29.42,62.79 27.16,62.32 25.73,61.9101 L25.72,61.9101 C25.72,61.9101 25.43,61.8301 25.42,61.6301 C25.41,61.45 25.76,61.4 25.77,61.4 L25.79,61.4 C27.71,60.9601 31.28,59.7301 33.64,56.4301 C35.44,53.9101 36.31,49.29 34.47,45.35 C33.36,42.9601 30.85,40.0101 25.23,39.5601 C22.74,39.3601 20.47,39.87 18.47,41.07 C16.66,42.15 15.16,43.79 14.11,45.79 C11.65,50.49 12.11,56.22 15.24,60.0601 C18.2,63.6801 22.82,65.99 28.25,66.57 C29.1,66.6601 29.95,66.7 30.8,66.7 C35.23,66.7 39.63,65.5 43.2,63.29 C46.86,60.72 48.98,56.74 49.66,51.1101 C50.22,46.47 49.83,40.5601 48.43,32.49 C48.07,30.4 47.53,27.37 46.87,23.6101 C52.62,21.69 56.78,18.12 60.55,12.27 C63.84,6.53008 64.78,0.430078 63.35,-5.86992 M29.14,20.32 C24.5,19.1 20.07,16.6 16.31,13.1 C15,11.87 13.13,9.7 11.66,6.31006 C10.29,3.15 9.62998,-0.27998 9.67998,-3.86992 C9.75,-8.55996 11.06,-13.38 13.57,-18.1699 C16.49,-23.75 21.05,-29.28 27.11,-34.61 C28.56,-35.8899 29.93,-37.1699 31.22,-38.45 C31.98,-34.1899 32.81,-29.5 33.69,-24.6199 C29.84,-23.35 25.09,-20.2 21.98,-14.55 C18.44,-7.97998 18.58,-2.45996 19.31,1.02002 C20.25,5.48008 22.78,9.24004 26.24,11.3301 C27.17,11.89 31.3,14.02 33.14,13.44 C33.51,13.32 33.78,13.1 33.92,12.77 C34.43,11.6 33.41,10.9601 31.85,10 C31.25,9.63008 30.58,9.21006 29.85,8.68008 C26.53,6.19004 25.08,1.74004 26.15,-2.63994 C26.73,-5.03994 28.01,-7.2 29.85,-8.9 C31.52,-10.45 33.56,-11.55 35.94,-12.1899 C37.98,-0.95 40.04,10.2 41.68,18.5601 C41.81,19.25 41.95,19.92 42.08,20.59 C37.7,21.52 33.35,21.4301 29.14,20.32 M40.46,-12.86 C50.81,-13.33 55.08,-5.88994 55.97,-1.05996 C56.44,1.47002 56.43,5.91006 54.89,10.12 C53.72,13.3 51.26,17.37 46.13,19.4301 C46.06,19.0101 45.98,18.5801 45.9,18.15 C44.36,9.38008 42.42,-1.60996 40.46,-12.86 M33.14,-83.8 C34.92,-89.5399 37.66,-92.7899 39.65,-94.5199 C41.4,-96.0399 43.05,-96.75 43.97,-96.75 C44.11,-96.75 44.23,-96.73 44.33,-96.7 C44.79,-96.56 45.32,-95.9899 45.79,-95.1199 C48.1,-90.83 47.36,-84.1199 46.02,-79.68 C44.39,-74.28 41.47,-68.66 32.67,-59.05 C32.5,-60.16 32.34,-61.21 32.19,-62.1899 C30.94,-70.48 31.26,-77.75 33.14,-83.8"/>
<path class="KeySig" transform="matrix(2.23937,0,0,2.23937,370.907,546.732)" d="M23.3,-10.6 C23.9,-10.7 24.4,-11.4 24.4,-12 L24.4,-17.9 C24.4,-18.7 23.8,-19.3 23,-19.3 L22.8,-19.3 L19.5,-18.6 L19.5,-33.5 L16.7,-33.5 L16.7,-18 L7.8,-16.2 L7.8,-30.3 L5,-30.3 L5,-15.6 L1.1,-14.8 C0.5,-14.7 0,-14 0,-13.4 L0,-13.2 L0,-7.4 L0,-7.6 C0,-6.8 0.6,-6.2 1.4,-6.2 L1.7,-6.2 L5,-6.9 L5,9.6 L1.1,10.4 C0.5,10.5 0,11.2 0,11.8 L0,17.6 C0,18.4 0.6,19 1.4,19 L1.7,19 L5,18.3 L5,33.2 L7.8,33.2 L7.8,17.7 L16.7,15.9 L16.7,30 L19.5,30 L19.5,15.3 L23.3,14.6 C23.9,14.5 24.4,13.8 24.4,13.2 L24.4,7.3 C24.4,6.5 23.8,5.9 23,5.9 L22.8,5.9 L19.5,6.6 L19.5,-9.9 L23.3,-10.6 M7.8,9.1 L7.8,-7.5 L16.7,-9.3 L16.7,7.2 L7.8,9.1 "/>
<path class="KeySig" transform="matrix(2.23937,0,0,2.23937,314.922,462.756)" d="M23.3,-10.6 C23.9,-10.7 24.4,-11.4 24.4,-12 L24.4,-17.9 C24.4,-18.7 23.8,-19.3 23,-19.3 L22.8,-19.3 L19.5,-18.6 L19.5,-33.5 L16.7,-33.5 L16.7,-18 L7.8,-16.2 L7.8,-30.3 L5,-30.3 L5,-15.6 L1.1,-14.8 C0.5,-14.7 0,-14 0,-13.4 L0,-13.2 L0,-7.4 L0,-7.6 C0,-6.8 0.6,-6.2 1.4,-6.2 L1.7,-6.2 L5,-6.9 L5,9.6 L1.1,10.4 C0.5,10.5 0,11.2 0,11.8 L0,17.6 C0,18.4 0.6,19 1.4,19 L1.7,19 L5,18.3 L5,33.2 L7.8,33.2 L7.8,17.7 L16.7,15.9 L16.7,30 L19.5,30 L19.5,15.3 L23.3,14.6 C23.9,14.5 24.4,13.8 24.4,13.2 L24.4,7.3 C24.4,6.5 23.8,5.9 23,5.9 L22.8,5.9 L19.5,6.6 L19.5,-9.9 L23.3,-10.6 M7.8,9.1 L7.8,-7.5 L16.7,-9.3 L16.7,7.2 L7.8,9.1 "/>
<path class="KeySig" transform="matrix(2.23937,0,0,2.23937,370.907,1296.14)" d="M23.3,-10.6 C23.9,-10.7 24.4,-11.4 24.4,-12 L24.4,-17.9 C24.4,-18.7 23.8,-19.3 23,-19.3 L22.8,-19.3 L19.5,-18.6 L19.5,-33.5 L16.7,-33.5 L16.7,-18 L7.8,-16.2 L7.8,-30.3 L5,-30.3 L5,-15.6 L1.1,-14.8 C0.5,-14.7 0,-14 0,-13.4 L0,-13.2 L0,-7.4 L0,-7.6 C0,-6.8 0.6,-6.2 1.4,-6.2 L1.7,-6.2 L5,-6.9 L5,9.6 L1.1,10.4 C0.5,10.5 0,11.2 0,11.8 L0,17.6 C0,18.4 0.6,19 1.4,19 L1.7,19 L5,18.3 L5,33.2 L7.8,33.2 L7.8,17.7 L16.7,15.9 L16.7,30 L19.5,30 L19.5,15.3 L23.3,14.6 C23.9,14.5 24.4,13.8 24.4,13.2 L24.4,7.3 C24.4,6.5 23.8,5.9 23,5.9 L22.8,5.9 L19.5,6.6 L19.5,-9.9 L23.3,-10.6 M7.8,9.1 L7.8,-7.5 L16.7,-9.3 L16.7,7.2 L7.8,9.1 "/>
<path class="KeySig" transform="matrix(2.23937,0,0,2.23937,314.922,1212.16)" d="M23.3,-10.6 C23.9,-10.7 24.4,-11.4 24.4,-12 L24.4,-17.9 C24.4,-18.7 23.8,-19.3 23,-19.3 L22.8,-19.3 L19.5,-18.6 L19.5,-33.5 L16.7,-33.5 L16.7,-18 L7.8,-16.2 L7.8,-30.3 L5,-30.3 L5,-15.6 L1.1,-14.8 C0.5,-14.7 0,-14 0,-13.4 L0,-13.2 L0,-7.4 L0,-7.6 C0,-6.8 0.6,-6.2 1.4,-6.2 L1.7,-6.2 L5,-6.9 L5,9.6 L1.1,10.4 C0.5,10.5 0,11.2 0,11.8 L0,17.6 C0,18.4 0.6,19 1.4,19 L1.7,19 L5,18.3 L5,33.2 L7.8,33.2 L7.8,17.7 L16.7,15.9 L16.7,30 L19.5,30 L19.5,15.3 L23.3,14.6 C23.9,14.5 24.4,13.8 24.4,13.2 L24.4,7.3 C24.4,6.5 23.8,5.9 23,5.9 L22.8,5.9 L19.5,6.6 L19.5,-9.9 L23.3,-10.6 M7.8,9.1 L7.8,-7.5 L16.7,-9.3 L16.7,7.2 L7.8,9.1 "/>
<path class="KeySig" transform="matrix(2.23937,0,0,2.23937,370.907,2045.55)" d="M23.3,-10.6 C23.9,-10.7 24.4,-11.4 24.4,-12 L24.4,-17.9 C24.4,-18.7 23.8,-19.3 23,-19.3 L22.8,-19.3 L19.5,-18.6 L19.5,-33.5 L16.7,-33.5 L16.7,-18 L7.8,-16.2 L7.8,-30.3 L5,-30.3 L5,-15.6 L1.1,-14.8 C0.5,-14.7 0,-14 0,-13.4 L0,-13.2 L0,-7.4 L0,-7.6 C0,-6.8 0.6,-6.2 1.4,-6.2 L1.7,-6.2 L5,-6.9 L5,9.6 L1.1,10.4 C0.5,10.5 0,11.2 0,11.8 L0,17.6 C0,18.4 0.6,19 1.4,19 L1.7,19 L5,18.3 L5,33.2 L7.8,33.2 L7.8,17.7 L16.7,15.9 L16.7,30 L19.5,30 L19.5,15.3 L23.3,14.6 C23.9,14.5 24.4,13.8 24.4,13.2 L24.4,7.3 C24.4,6.5 23.8,5.9 23,5.9 L22.8,5.9 L19.5,6.6 L19.5,-9.9 L23.3,-10.6 M7.8,9.1 L7.8,-7.5 L16.7,-9.3 L16.7,7.2 L7.8,9.1 "/>
<path class="KeySig" transform="matrix(2.23937,0,0,2.23937,314.922,1961.57)" d="M23.3,-10.6 C23.9,-10.7 24.4,-11.4 24.4,-12 L24.4,-17.9 C24.4,-18.7 23.8,-19.3 23,-19.3 L22.8,-19.3 L19.5,-18.6 L19.5,-33.5 L16.7,-33.5 L16.7,-18 L7.8,-16.2 L7.8,-30.3 L5,-30.3 L5,-15.6 L1.1,-14.8 C0.5,-14.7 0,-14 0,-13.4 L0,-13.2 L0,-7.4 L0,-7.6 C0,-6.8 0.6,-6.2 1.4,-6.2 L1.7,-6.2 L5,-6.9 L5,9.6 L1.1,10.4 C0.5,10.5 0,11.2 0,11.8 L0,17.6 C0,18.4 0.6,19 1.4,19 L1.7,19 L5,18.3 L5,33.2 L7.8,33.2 L7.8,17.7 L16.7,15.9 L16.7,30 L19.5,30 L19.5,15.3 L23.3,14.6 C23.9,14.5 24.4,13.8 24.4,13.2 L24.4,7.3 C24.4,6.5 23.8,5.9 23,5.9 L22.8,5.9 L19.5,6.6 L19.5,-9.9 L23.3,-10.6 M7.8,9.1 L7.8,-7.5 L16.7,-9.3 L16.7,7.2 L7.8,9.1 "/>
<path class="TimeSig" transform="matrix(2.23937,0,0,2.23937,485.832,519.86)" d="M34.2,3.9 C33.4,6.1 31.4,13.3 26.5,13.3 C20,13.3 18.6,9.3 13.2,9.3 C12.4,9.3 11.6,9.4 10.6,9.6 C10.6,9.6 13.1,5.8 23.7,2.5 C34.3,-0.8 37,-6 37,-12 C37,-16.2 35.1,-24.5 20,-24.5 C4.9,-24.5 2.1,-15.4 2.1,-10.8 C2.1,-6.7 5.5,-3.4 9.6,-3.4 C13.7,-3.4 17,-6.7 17,-10.8 C17,-13.6 15,-16.7 12.4,-17.7 C12.1,-17.8 11.7,-18.3 11.7,-18.8 C11.7,-19.4 12.2,-20.1 14,-20.6 C14.5,-20.8 15.9,-21.1 17.4,-21.1 C18.8,-21.1 20.4,-20.8 21.6,-20 C23.5,-18.8 24.2,-17 24.2,-12.5 C24.2,-0.8 10.3,1.7 4.5,10.4 C4.5,10.4 1.5,14.6 1.5,19.3 C1.5,24 3.9,24.3 5.1,24.3 C6.7,24.3 8.4,23 8.4,21.2 C8.4,20.8 8.3,20.4 8.1,19.9 C7.5,18.5 7.3,17.4 7.3,16.6 C7.3,16.3 7.3,16 7.4,15.7 C7.5,15.1 8.3,14.1 10.7,14.1 C13.6,14.1 14.7,17.5 16.5,20.1 C18.3,22.7 21.1,24.3 24.3,24.3 C27.5,24.3 31.8,22 33.6,18.3 C35.4,14.6 37.7,7.1 37.7,4.4 C37.7,3.1 36.9,2.5 36,2.5 C35.3,2.5 34.6,2.9 34.2,3.9"/>
<path class="TimeSig" transform="matrix(2.23937,0,0,2.23937,478.449,630.411)" d="M3.59004,12.65 L20.77,12.65 L20.77,20.07 L12.54,20.07 C11.7601,20.07 11.1301,20.7 11.1301,21.48 L11.1301,23.39 C11.1301,24.17 11.7601,24.8 12.54,24.8 L42.79,24.8 C43.57,24.8 44.2,24.17 44.2,23.39 L44.2,21.48 C44.2,20.7 43.57,20.07 42.79,20.07 L33.85,20.07 L33.85,12.65 L42.79,12.65 C43.57,12.65 44.2,12.02 44.2,11.24 L44.2,9.32998 C44.2,8.55 43.57,7.92002 42.79,7.92002 L33.85,7.92002 L33.85,-8.04004 C33.85,-8.57998 33.55,-9.05996 33.07,-9.3 L31.8601,-9.9 C31.3301,-10.16 30.7,-10.07 30.27,-9.67002 L21.22,-1.35 C20.9301,-1.07998 20.7601,-0.709961 20.7601,-0.309961 L20.7601,7.92002 L9.25,7.92002 C9.25,7.92002 20.37,-4.10996 32.2101,-19.88 C33.0801,-21.03 32.5801,-22.08 32.39,-22.27 L30.22,-24.48 C29.95,-24.74 29.59,-24.89 29.22,-24.89 C28.62,-24.89 15.07,-24.87 14.35,-24.89 C13.6301,-24.91 13.09,-24.29 13.02,-23.67 C13.02,-23.67 12.4801,-16.31 9.88008,-8.17998 C7.28008,-0.0599609 4.34004,4.92002 1.68008,8.55 C1.68008,8.55 1.14004,9.54004 1.5,10.28 C1.85,11.03 2.48008,12.12 2.48008,12.12 C2.48008,12.12 2.74004,12.65 3.59004,12.65"/>
<path class="Rest" transform="matrix(2.23937,0,0,2.23937,3970.79,574.724)" d="M23.2,16.9 L23,16.6 C22.9,16.5 22.7,16.3 22.4,15.9 L10.9,1.7 C10.6,1.4 10.7,0.6 10.9,0.2 L21.1,-15.2 C21.2,-15.4 21.3,-15.7 21.3,-15.9 L21.3,-16.8 C21.3,-17.1 21.2,-17.4 21,-17.6 L4.8,-39.5 C4.8,-39.5 4,-40.7 3,-39.8 C2,-39 2.8,-37.7 2.8,-37.7 L10.4,-27.3 C10.8,-26.7 10.8,-25.5 10.4,-24.9 L0.3,-9.5 C0.2,-9.3 0.1,-8.9 0.1,-8.7 L0.1,-7.8 C0.1,-7.5 0.2,-7.2 0.4,-7 L11.6,6.9 C11.2,6.8 10.3,6.6 9.1,6.6 C7.4,6.6 5.2,7 3.4,8.6 C1.2,10.6 0,13.4 0,15.9 C0,17.3 0.3,18.7 1.1,19.8 C3.2,23 10.7,32.5 10.7,32.5 C10.7,32.5 11.6,33.6 12.5,32.9 C13.4,32.2 13.2,31.3 12.9,30.8 C12.6,30.3 9.4,24.5 9.4,24.5 C9.4,24.5 8.7,23.1 8.7,21.3 C8.7,20 9.1,18.4 10.4,17.1 C11.6,15.9 13,15.5 14.3,15.5 C15.6,15.5 16.7,15.9 17.5,16.4 L21.4,18.9 C21.4,18.9 22.6,19.5 23.2,18.6 C23.7,17.8 23.5,17.4 23.2,16.9"/>
<path class="Rest" transform="matrix(2.23937,0,0,2.23937,3970.79,1324.13)" d="M23.2,16.9 L23,16.6 C22.9,16.5 22.7,16.3 22.4,15.9 L10.9,1.7 C10.6,1.4 10.7,0.6 10.9,0.2 L21.1,-15.2 C21.2,-15.4 21.3,-15.7 21.3,-15.9 L21.3,-16.8 C21.3,-17.1 21.2,-17.4 21,-17.6 L4.8,-39.5 C4.8,-39.5 4,-40.7 3,-39.8 C2,-39 2.8,-37.7 2.8,-37.7 L10.4,-27.3 C10.8,-26.7 10.8,-25.5 10.4,-24.9 L0.3,-9.5 C0.2,-9.3 0.1,-8.9 0.1,-8.7 L0.1,-7.8 C0.1,-7.5 0.2,-7.2 0.4,-7 L11.6,6.9 C11.2,6.8 10.3,6.6 9.1,6.6 C7.4,6.6 5.2,7 3.4,8.6 C1.2,10.6 0,13.4 0,15.9 C0,17.3 0.3,18.7 1.1,19.8 C3.2,23 10.7,32.5 10.7,32.5 C10.7,32.5 11.6,33.6 12.5,32.9 C13.4,32.2 13.2,31.3 12.9,30.8 C12.6,30.3 9.4,24.5 9.4,24.5 C9.4,24.5 8.7,23.1 8.7,21.3 C8.7,20 9.1,18.4 10.4,17.1 C11.6,15.9 13,15.5 14.3,15.5 C15.6,15.5 16.7,15.9 17.5,16.4 L21.4,18.9 C21.4,18.9 22.6,19.5 23.2,18.6 C23.7,17.8 23.5,17.4 23.2,16.9"/>
<path class="Beam" fill-rule="evenodd" d="M755.991,519.48 L859.777,504.601 L859.777,532.879 L755.991,547.758 L755.991,519.48 "/>
<path class="Beam" fill-rule="evenodd" d="M884.643,798.518 L988.43,783.639 L988.43,811.918 L884.643,826.796 L884.643,798.518 "/>
<path class="Beam" fill-rule="evenodd" d="M1338.44,795.835 L1428.55,855.926 L1428.55,889.57 L1338.44,829.48 L1338.44,795.835 "/>
<path class="Beam" fill-rule="evenodd" d="M1778.56,725.855 L1868.68,785.945 L1868.68,819.59 L1778.56,759.499 L1778.56,725.855 "/>
<path class="Beam" fill-rule="evenodd" d="M2516.49,519.48 L2620.28,504.601 L2620.28,532.879 L2516.49,547.758 L2516.49,519.48 "/>
<path class="Beam" fill-rule="evenodd" d="M2645.14,798.518 L2748.93,783.639 L2748.93,811.918 L2645.14,826.796 L2645.14,798.518 "/>
<path class="Beam" fill-rule="evenodd" d="M2982.37,740.539 L3086.15,800.055 L3086.15,832.323 L2982.37,772.807 L2982.37,740.539 "/>
<path class="Beam" fill-rule="evenodd" d="M3244.23,503.718 L3348.01,518.597 L3348.01,546.875 L3244.23,531.996 L3244.23,503.718 "/>
<path class="Beam" fill-rule="evenodd" d="M632.108,1268.86 L741.056,1254.02 L741.056,1282.27 L632.108,1297.11 L632.108,1268.86 "/>
<path class="Beam" fill-rule="evenodd" d="M771.084,1547.94 L880.032,1533.11 L880.032,1561.36 L771.084,1576.19 L771.084,1547.94 "/>
<path class="Beam" fill-rule="evenodd" d="M1245.53,1545.24 L1335.64,1605.33 L1335.64,1638.98 L1245.53,1578.89 L1245.53,1545.24 "/>
<path class="Beam" fill-rule="evenodd" d="M1701.14,1475.26 L1791.25,1535.35 L1791.25,1569 L1701.14,1508.91 L1701.14,1475.26 "/>
<path class="Beam" fill-rule="evenodd" d="M2454.55,1268.86 L2563.5,1254.02 L2563.5,1282.27 L2454.55,1297.11 L2454.55,1268.86 "/>
<path class="Beam" fill-rule="evenodd" d="M2593.52,1547.94 L2702.47,1533.11 L2702.47,1561.36 L2593.52,1576.19 L2593.52,1547.94 "/>
<path class="Beam" fill-rule="evenodd" d="M2935.91,1490.14 L3044.86,1549.48 L3044.86,1581.36 L2935.91,1522.02 L2935.91,1490.14 "/>
<path class="Beam" fill-rule="evenodd" d="M3208.09,1253.19 L3317.04,1268.02 L3317.04,1296.27 L3208.09,1281.44 L3208.09,1253.19 "/>
<path class="Beam" fill-rule="evenodd" d="M715.938,2225.21 L816.117,2284.86 L816.117,2317.44 L715.938,2257.78 L715.938,2225.21 "/>
<path class="Beam" fill-rule="evenodd" d="M1591.68,2225.21 L1691.86,2284.86 L1691.86,2317.44 L1591.68,2257.78 L1591.68,2225.21 "/>
<path class="Beam" fill-rule="evenodd" d="M2383.6,2018.22 L2502.03,2003.45 L2502.03,2031.66 L2383.6,2046.43 L2383.6,2018.22 "/>
<path class="Beam" fill-rule="evenodd" d="M2541.53,2297.37 L2659.96,2282.61 L2659.96,2310.82 L2541.53,2325.58 L2541.53,2297.37 "/>
<path class="Beam" fill-rule="evenodd" d="M2893.4,2239.85 L3011.83,2298.91 L3011.83,2330.19 L2893.4,2271.13 L2893.4,2239.85 "/>
<path class="Beam" fill-rule="evenodd" d="M3184.54,2002.69 L3302.97,2017.45 L3302.97,2045.66 L3184.54,2030.89 L3184.54,2002.69 "/>
</svg>
