<?xml version="1.0" encoding="UTF-8" standalone="no"?>
<svg width="4208.47px" height="2409.45px" viewBox="0 0 4208.47 2409.45"
 xmlns="http://www.w3.org/2000/svg" xmlns:xlink="http://www.w3.org/1999/xlink" version="1.2" baseProfile="tiny">
<title>BONE PIRATA (2)</title>
<desc>Generated by MuseScore 3.6.2</desc>
<polyline class="StaffLines" fill="none" stroke="#000000" stroke-width="3.08" stroke-linejoin="bevel" points="70.866,364.677 4137.61,364.677"/>
<polyline class="StaffLines" fill="none" stroke="#000000" stroke-width="3.08" stroke-linejoin="bevel" points="70.866,392.677 4137.61,392.677"/>
<polyline class="StaffLines" fill="none" stroke="#000000" stroke-width="3.08" stroke-linejoin="bevel" points="70.866,420.677 4137.61,420.677"/>
<polyline class="StaffLines" fill="none" stroke="#000000" stroke-width="3.08" stroke-linejoin="bevel" points="70.866,448.677 4137.61,448.677"/>
<polyline class="StaffLines" fill="none" stroke="#000000" stroke-width="3.08" stroke-linejoin="bevel" points="70.866,476.677 4137.61,476.677"/>
<path class="MeasureNumber" d="M92.3504,280.364 L90.1785,280.364 L71.5535,299.645 L71.5535,301.317 L82.8191,301.317 L82.1785,303.755 C81.6629,305.755 81.6316,305.88 81.2566,306.239 C80.866,306.63 80.0222,306.801 77.8972,306.801 L77.1785,306.801 L76.9441,308.676 L89.3816,308.676 L89.5847,306.801 L88.866,306.801 C86.2254,306.801 85.6629,306.598 85.6629,305.723 C85.6629,305.395 85.741,305.005 86.0691,303.755 L86.741,301.317 L91.3035,301.317 L91.8972,299.161 L87.3035,299.161 L92.3504,280.364 M83.4285,299.161 L74.4597,299.161 L86.8191,286.442 L83.4285,299.161 M107.694,294.114 C109.585,293.52 110.335,293.192 111.303,292.551 C113.178,291.317 114.335,289.114 114.335,286.88 C114.335,283.083 111.303,280.52 106.819,280.52 C102.46,280.52 98.7722,283.239 98.7722,286.52 C98.7722,288.161 99.7722,289.286 101.303,289.286 C102.616,289.286 103.585,288.317 103.585,287.005 C103.585,286.317 103.382,285.833 102.741,285.208 C102.335,284.833 102.178,284.567 102.178,284.286 C102.178,283.317 104.178,282.317 106.053,282.317 C108.741,282.317 110.335,283.801 110.335,286.286 C110.335,289.833 107.819,293.192 105.132,293.192 C105.022,293.192 104.663,293.161 104.225,293.114 C103.053,293.036 103.053,293.036 102.819,293.036 C101.944,293.036 101.46,293.442 101.46,294.161 C101.46,294.801 101.897,295.192 102.616,295.192 C102.819,295.192 103.1,295.161 103.413,295.114 C103.975,295.005 104.585,294.958 104.944,294.958 C106.819,294.958 108.1,296.645 108.1,299.114 C108.1,301.036 107.663,302.88 106.772,304.395 C105.585,306.551 103.741,307.598 101.132,307.598 C98.8972,307.598 96.9754,306.473 96.9754,305.192 C96.9754,304.755 97.1472,304.598 97.7722,304.317 C98.9441,303.801 99.4129,303.083 99.4129,302.005 C99.4129,300.598 98.3035,299.52 96.866,299.52 C95.1472,299.52 94.0222,300.88 94.0222,302.958 C94.0222,306.833 96.9754,309.27 101.772,309.27 C107.819,309.27 112.413,305.239 112.413,299.88 C112.413,298.442 111.975,297.192 111.132,296.192 C110.257,295.161 109.46,294.676 107.694,294.114"/>
<path class="TieSegment" stroke="#000000" stroke-width="1.96" stroke-linecap="round" stroke-linejoin="round" fill-rule="evenodd" d="M302.365,329.676 C313.593,314.556 347.275,314.556 358.502,329.676 C347.275,322.396 313.593,322.396 302.365,329.676"/>
<path class="TieSegment" stroke="#000000" stroke-width="1.96" stroke-linecap="round" stroke-linejoin="round" fill-rule="evenodd" d="M1146.52,301.676 C1181.66,271.049 1287.08,271.049 1322.22,301.676 C1287.08,278.889 1181.66,278.889 1146.52,301.676"/>
<path class="TieSegment" stroke="#000000" stroke-width="1.96" stroke-linecap="round" stroke-linejoin="round" fill-rule="evenodd" d="M2097.98,343.676 C2131.92,313.961 2233.75,313.961 2267.69,343.676 C2233.75,321.801 2131.92,321.801 2097.98,343.676"/>
<path class="TieSegment" stroke="#000000" stroke-width="1.96" stroke-linecap="round" stroke-linejoin="round" fill-rule="evenodd" d="M3028.12,357.677 C3060.36,329.253 3157.09,329.253 3189.33,357.677 C3157.09,337.093 3060.36,337.093 3028.12,357.677"/>
<polyline class="BarLine" stroke="#000000" stroke-width="5.04" stroke-linejoin="bevel" points="1259.36,363.137 1259.36,478.217"/>
<polyline class="BarLine" stroke="#000000" stroke-width="5.04" stroke-linejoin="bevel" points="2214.63,363.137 2214.63,478.217"/>
<polyline class="BarLine" stroke="#000000" stroke-width="5.04" stroke-linejoin="bevel" points="3136.21,363.137 3136.21,478.217"/>
<polyline class="BarLine" stroke="#000000" stroke-width="5.04" stroke-linejoin="bevel" points="4110.31,363.137 4110.31,478.217"/>
<polyline class="BarLine" stroke="#000000" stroke-width="15.40" stroke-linejoin="bevel" points="4129.91,363.137 4129.91,478.217"/>
<polyline class="LedgerLine" stroke="#000000" stroke-width="4.48" stroke-linejoin="bevel" points="898.69,336.676 954.682,336.676"/>
<polyline class="LedgerLine" stroke="#000000" stroke-width="4.48" stroke-linejoin="bevel" points="1113.06,336.676 1169.05,336.676"/>
<polyline class="LedgerLine" stroke="#000000" stroke-width="4.48" stroke-linejoin="bevel" points="1299.68,336.676 1355.68,336.676"/>
<polyline class="LedgerLine" stroke="#000000" stroke-width="4.48" stroke-linejoin="bevel" points="1437.47,336.676 1493.46,336.676"/>
<polyline class="Stem" stroke="#000000" stroke-width="3.08" stroke-linejoin="bevel" points="347.305,354.44 347.305,469.677"/>
<polyline class="Stem" stroke="#000000" stroke-width="3.08" stroke-linejoin="bevel" points="481.287,382.44 481.287,469.677"/>
<polyline class="Stem" stroke="#000000" stroke-width="3.08" stroke-linejoin="bevel" points="695.659,354.44 695.659,469.677"/>
<polyline class="Stem" stroke="#000000" stroke-width="3.08" stroke-linejoin="bevel" points="910.03,340.44 910.03,469.677"/>
<polyline class="Stem" stroke="#000000" stroke-width="3.08" stroke-linejoin="bevel" points="1124.4,326.44 1124.4,469.677"/>
<polyline class="Stem" stroke="#000000" stroke-width="3.08" stroke-linejoin="bevel" points="1311.02,326.44 1311.02,413.677"/>
<polyline class="Stem" stroke="#000000" stroke-width="3.08" stroke-linejoin="bevel" points="1448.81,340.44 1448.81,420.677"/>
<polyline class="Stem" stroke="#000000" stroke-width="3.08" stroke-linejoin="bevel" points="1855.41,396.44 1855.41,476.677"/>
<polyline class="Stem" stroke="#000000" stroke-width="3.08" stroke-linejoin="bevel" points="2075.87,368.44 2075.87,448.677"/>
<polyline class="Stem" stroke="#000000" stroke-width="3.08" stroke-linejoin="bevel" points="2256.49,368.44 2256.49,469.677"/>
<polyline class="Stem" stroke="#000000" stroke-width="3.08" stroke-linejoin="bevel" points="2385.72,354.44 2385.72,470.884"/>
<polyline class="Stem" stroke="#000000" stroke-width="3.08" stroke-linejoin="bevel" points="2592.48,382.44 2592.48,472.815"/>
<polyline class="Stem" stroke="#000000" stroke-width="3.08" stroke-linejoin="bevel" points="2799.24,368.44 2799.24,474.746"/>
<polyline class="Stem" stroke="#000000" stroke-width="3.08" stroke-linejoin="bevel" points="3006,382.44 3006,476.677"/>
<polyline class="Stem" stroke="#000000" stroke-width="3.08" stroke-linejoin="bevel" points="3178.13,382.44 3178.13,476.677"/>
<polyline class="Stem" stroke="#000000" stroke-width="3.08" stroke-linejoin="bevel" points="3436.8,368.44 3436.8,462.677"/>
<polyline class="Stem" stroke="#000000" stroke-width="3.08" stroke-linejoin="bevel" points="3695.46,410.44 3695.46,504.677"/>
<path class="Note" transform="matrix(1.12,0,0,1.12,345.765,350.676)" d="M31.5,-8.09375 C29.7031,-11.4063 25.9063,-13.2031 21.2969,-13.2031 C17.9063,-13.2031 14.2031,-12.2031 10.5938,-10.2969 C4,-6.79688 0,-0.90625 0,4.20313 C0,5.59375 0.296875,7 1,8.29688 C2.79688,11.5938 6.59375,13.2969 11.2031,13.2969 C14.5938,13.2969 18.2969,12.4063 21.9063,10.5 C28.5,7 32.5,1.09375 32.5,-4 C32.5,-5.40625 32.2031,-6.79688 31.5,-8.09375"/>
<path class="Note" transform="matrix(1.12,0,0,1.12,479.747,378.677)" d="M31.5,-8.09375 C29.7031,-11.4063 25.9063,-13.2031 21.2969,-13.2031 C17.9063,-13.2031 14.2031,-12.2031 10.5938,-10.2969 C4,-6.79688 0,-0.90625 0,4.20313 C0,5.59375 0.296875,7 1,8.29688 C2.79688,11.5938 6.59375,13.2969 11.2031,13.2969 C14.5938,13.2969 18.2969,12.4063 21.9063,10.5 C28.5,7 32.5,1.09375 32.5,-4 C32.5,-5.40625 32.2031,-6.79688 31.5,-8.09375"/>
<path class="Note" transform="matrix(1.12,0,0,1.12,694.119,350.676)" d="M31.5,-8.09375 C29.7031,-11.4063 25.9063,-13.2031 21.2969,-13.2031 C17.9063,-13.2031 14.2031,-12.2031 10.5938,-10.2969 C4,-6.79688 0,-0.90625 0,4.20313 C0,5.59375 0.296875,7 1,8.29688 C2.79688,11.5938 6.59375,13.2969 11.2031,13.2969 C14.5938,13.2969 18.2969,12.4063 21.9063,10.5 C28.5,7 32.5,1.09375 32.5,-4 C32.5,-5.40625 32.2031,-6.79688 31.5,-8.09375"/>
<path class="Note" transform="matrix(1.12,0,0,1.12,908.49,336.676)" d="M31.5,-8.09375 C29.7031,-11.4063 25.9063,-13.2031 21.2969,-13.2031 C17.9063,-13.2031 14.2031,-12.2031 10.5938,-10.2969 C4,-6.79688 0,-0.90625 0,4.20313 C0,5.59375 0.296875,7 1,8.29688 C2.79688,11.5938 6.59375,13.2969 11.2031,13.2969 C14.5938,13.2969 18.2969,12.4063 21.9063,10.5 C28.5,7 32.5,1.09375 32.5,-4 C32.5,-5.40625 32.2031,-6.79688 31.5,-8.09375"/>
<path class="Note" transform="matrix(1.12,0,0,1.12,1122.86,322.676)" d="M31.5,-8.09375 C29.7031,-11.4063 25.9063,-13.2031 21.2969,-13.2031 C17.9063,-13.2031 14.2031,-12.2031 10.5938,-10.2969 C4,-6.79688 0,-0.90625 0,4.20313 C0,5.59375 0.296875,7 1,8.29688 C2.79688,11.5938 6.59375,13.2969 11.2031,13.2969 C14.5938,13.2969 18.2969,12.4063 21.9063,10.5 C28.5,7 32.5,1.09375 32.5,-4 C32.5,-5.40625 32.2031,-6.79688 31.5,-8.09375"/>
<path class="Note" transform="matrix(1.12,0,0,1.12,1309.48,322.676)" d="M31.5,-8.09375 C29.7031,-11.4063 25.9063,-13.2031 21.2969,-13.2031 C17.9063,-13.2031 14.2031,-12.2031 10.5938,-10.2969 C4,-6.79688 0,-0.90625 0,4.20313 C0,5.59375 0.296875,7 1,8.29688 C2.79688,11.5938 6.59375,13.2969 11.2031,13.2969 C14.5938,13.2969 18.2969,12.4063 21.9063,10.5 C28.5,7 32.5,1.09375 32.5,-4 C32.5,-5.40625 32.2031,-6.79688 31.5,-8.09375"/>
<path class="Note" transform="matrix(1.12,0,0,1.12,1447.27,336.676)" d="M31.5,-8.09375 C29.7031,-11.4063 25.9063,-13.2031 21.2969,-13.2031 C17.9063,-13.2031 14.2031,-12.2031 10.5938,-10.2969 C4,-6.79688 0,-0.90625 0,4.20313 C0,5.59375 0.296875,7 1,8.29688 C2.79688,11.5938 6.59375,13.2969 11.2031,13.2969 C14.5938,13.2969 18.2969,12.4063 21.9063,10.5 C28.5,7 32.5,1.09375 32.5,-4 C32.5,-5.40625 32.2031,-6.79688 31.5,-8.09375"/>
<path class="Note" transform="matrix(1.12,0,0,1.12,1853.87,392.677)" d="M31.5,-8.09375 C29.7031,-11.4063 25.9063,-13.2031 21.2969,-13.2031 C17.9063,-13.2031 14.2031,-12.2031 10.5938,-10.2969 C4,-6.79688 0,-0.90625 0,4.20313 C0,5.59375 0.296875,7 1,8.29688 C2.79688,11.5938 6.59375,13.2969 11.2031,13.2969 C14.5938,13.2969 18.2969,12.4063 21.9063,10.5 C28.5,7 32.5,1.09375 32.5,-4 C32.5,-5.40625 32.2031,-6.79688 31.5,-8.09375"/>
<path class="Note" transform="matrix(1.12,0,0,1.12,2074.33,364.677)" d="M31.5,-8.09375 C29.7031,-11.4063 25.9063,-13.2031 21.2969,-13.2031 C17.9063,-13.2031 14.2031,-12.2031 10.5938,-10.2969 C4,-6.79688 0,-0.90625 0,4.20313 C0,5.59375 0.296875,7 1,8.29688 C2.79688,11.5938 6.59375,13.2969 11.2031,13.2969 C14.5938,13.2969 18.2969,12.4063 21.9063,10.5 C28.5,7 32.5,1.09375 32.5,-4 C32.5,-5.40625 32.2031,-6.79688 31.5,-8.09375"/>
<path class="Note" transform="matrix(1.12,0,0,1.12,2254.95,364.677)" d="M31.5,-8.09375 C29.7031,-11.4063 25.9063,-13.2031 21.2969,-13.2031 C17.9063,-13.2031 14.2031,-12.2031 10.5938,-10.2969 C4,-6.79688 0,-0.90625 0,4.20313 C0,5.59375 0.296875,7 1,8.29688 C2.79688,11.5938 6.59375,13.2969 11.2031,13.2969 C14.5938,13.2969 18.2969,12.4063 21.9063,10.5 C28.5,7 32.5,1.09375 32.5,-4 C32.5,-5.40625 32.2031,-6.79688 31.5,-8.09375"/>
<path class="Note" transform="matrix(1.12,0,0,1.12,2384.18,350.676)" d="M31.5,-8.09375 C29.7031,-11.4063 25.9063,-13.2031 21.2969,-13.2031 C17.9063,-13.2031 14.2031,-12.2031 10.5938,-10.2969 C4,-6.79688 0,-0.90625 0,4.20313 C0,5.59375 0.296875,7 1,8.29688 C2.79688,11.5938 6.59375,13.2969 11.2031,13.2969 C14.5938,13.2969 18.2969,12.4063 21.9063,10.5 C28.5,7 32.5,1.09375 32.5,-4 C32.5,-5.40625 32.2031,-6.79688 31.5,-8.09375"/>
<path class="Note" transform="matrix(1.12,0,0,1.12,2590.94,378.677)" d="M31.5,-8.09375 C29.7031,-11.4063 25.9063,-13.2031 21.2969,-13.2031 C17.9063,-13.2031 14.2031,-12.2031 10.5938,-10.2969 C4,-6.79688 0,-0.90625 0,4.20313 C0,5.59375 0.296875,7 1,8.29688 C2.79688,11.5938 6.59375,13.2969 11.2031,13.2969 C14.5938,13.2969 18.2969,12.4063 21.9063,10.5 C28.5,7 32.5,1.09375 32.5,-4 C32.5,-5.40625 32.2031,-6.79688 31.5,-8.09375"/>
<path class="Note" transform="matrix(1.12,0,0,1.12,2797.7,364.677)" d="M31.5,-8.09375 C29.7031,-11.4063 25.9063,-13.2031 21.2969,-13.2031 C17.9063,-13.2031 14.2031,-12.2031 10.5938,-10.2969 C4,-6.79688 0,-0.90625 0,4.20313 C0,5.59375 0.296875,7 1,8.29688 C2.79688,11.5938 6.59375,13.2969 11.2031,13.2969 C14.5938,13.2969 18.2969,12.4063 21.9063,10.5 C28.5,7 32.5,1.09375 32.5,-4 C32.5,-5.40625 32.2031,-6.79688 31.5,-8.09375"/>
<path class="Note" transform="matrix(1.12,0,0,1.12,3004.46,378.677)" d="M31.5,-8.09375 C29.7031,-11.4063 25.9063,-13.2031 21.2969,-13.2031 C17.9063,-13.2031 14.2031,-12.2031 10.5938,-10.2969 C4,-6.79688 0,-0.90625 0,4.20313 C0,5.59375 0.296875,7 1,8.29688 C2.79688,11.5938 6.59375,13.2969 11.2031,13.2969 C14.5938,13.2969 18.2969,12.4063 21.9063,10.5 C28.5,7 32.5,1.09375 32.5,-4 C32.5,-5.40625 32.2031,-6.79688 31.5,-8.09375"/>
<path class="Note" transform="matrix(1.12,0,0,1.12,3176.59,378.677)" d="M31.5,-8.09375 C29.7031,-11.4063 25.9063,-13.2031 21.2969,-13.2031 C17.9063,-13.2031 14.2031,-12.2031 10.5938,-10.2969 C4,-6.79688 0,-0.90625 0,4.20313 C0,5.59375 0.296875,7 1,8.29688 C2.79688,11.5938 6.59375,13.2969 11.2031,13.2969 C14.5938,13.2969 18.2969,12.4063 21.9063,10.5 C28.5,7 32.5,1.09375 32.5,-4 C32.5,-5.40625 32.2031,-6.79688 31.5,-8.09375"/>
<path class="Note" transform="matrix(1.12,0,0,1.12,3435.26,364.677)" d="M31.5,-8.09375 C29.7031,-11.4063 25.9063,-13.2031 21.2969,-13.2031 C17.9063,-13.2031 14.2031,-12.2031 10.5938,-10.2969 C4,-6.79688 0,-0.90625 0,4.20313 C0,5.59375 0.296875,7 1,8.29688 C2.79688,11.5938 6.59375,13.2969 11.2031,13.2969 C14.5938,13.2969 18.2969,12.4063 21.9063,10.5 C28.5,7 32.5,1.09375 32.5,-4 C32.5,-5.40625 32.2031,-6.79688 31.5,-8.09375"/>
<path class="Note" transform="matrix(1.12,0,0,1.12,3693.92,406.677)" d="M31.5,-8.09375 C29.7031,-11.4063 25.9063,-13.2031 21.2969,-13.2031 C17.9063,-13.2031 14.2031,-12.2031 10.5938,-10.2969 C4,-6.79688 0,-0.90625 0,4.20313 C0,5.59375 0.296875,7 1,8.29688 C2.79688,11.5938 6.59375,13.2969 11.2031,13.2969 C14.5938,13.2969 18.2969,12.4063 21.9063,10.5 C28.5,7 32.5,1.09375 32.5,-4 C32.5,-5.40625 32.2031,-6.79688 31.5,-8.09375"/>
<path class="Clef" transform="matrix(1.12,0,0,1.12,93.2661,392.677)" d="M25.4063,-25.0938 C17.7969,-25.0938 11.7031,-20.7031 11.5938,-20.7031 C5.79688,-16.4063 3.5,-11.2969 2.59375,-7.79688 C2.09375,-6 1.90625,-4.20313 1.90625,-2.5 C1.90625,-0.09375 2.29688,2.09375 3.20313,4 C4.40625,6.70313 6.70313,8.59375 9.70313,9.59375 C10.9063,10 12.2031,10.2031 13.5,10.2031 C15.7031,10.2031 18,9.59375 19.9063,8.5 C23,6.79688 24.9063,3.20313 24.9063,-0.703125 C24.9063,-4.20313 23.0938,-7.40625 20.0938,-9.29688 C18,-10.7031 16,-11.0938 14.2969,-11.0938 C13.0938,-11.0938 12,-10.9063 11.0938,-10.5938 C10.0938,-10.2031 8.40625,-9.20313 7.59375,-8.5 C7.90625,-10.4063 9.09375,-13.2969 10.2031,-14.9063 C11.2969,-16.5 13.5,-18.5 15.2031,-19.4063 C17.7031,-20.7969 20.9063,-21.4063 24.4063,-21.4063 C34.6094,-21.4063 39.6094,-13.2031 39.6094,3.59375 C39.6094,12.9063 36.1094,21.7969 33.1094,27.7031 C29.7969,34.2969 25.4063,40.6094 21.5,44.1094 C11.0938,53.6094 1.29688,58.1094 1.20313,58.1094 C1.20313,58.1094 -0.296875,59 0.09375,60.5 C0.40625,61.5 1.29688,61.7031 1.90625,61.7031 C2,61.7031 2.29688,61.6094 2.40625,61.6094 C2.5,61.6094 13.9063,56.9063 23,49.7969 C28.1094,46.1094 32.7031,42.1094 36.7031,37.7969 C40.2969,33.9063 43.4063,29.7031 45.9063,25.5 C50.2969,18 52.7969,10.2031 52.7969,3.5 C52.7969,-4.79688 50.6094,-11.7031 46.5,-16.5938 C41.7969,-22.2031 34.7031,-25.0938 25.4063,-25.0938 M56.7969,-12.4063 C56.7969,-9.59375 59,-7.40625 61.6094,-7.40625 C64.2031,-7.40625 66.4063,-9.59375 66.4063,-12.4063 C66.4063,-15.2031 64.2031,-17.5 61.6094,-17.5 C59,-17.5 56.7969,-15.2031 56.7969,-12.4063 M56.7969,12.2969 C56.7969,15.0938 59,17.4063 61.6094,17.4063 C64.2031,17.4063 66.4063,15.0938 66.4063,12.2969 C66.4063,9.5 64.2031,7.20313 61.6094,7.20313 C59,7.20313 56.7969,9.5 56.7969,12.2969"/>
<path class="KeySig" transform="matrix(1.12,0,0,1.12,251.633,462.677)" d="M20.0938,-7.90625 C19.5,-11.7969 17.0938,-15.5 12,-15.5 C7,-15.5 4.09375,-12.4063 3.59375,-11.7969 L4,-43.9063 C4,-44.7031 3.40625,-45.2969 2.59375,-45.2969 L1.40625,-45.2969 C0.59375,-45.2969 0,-44.7031 0,-43.9063 L0.5,16.2031 C0.5,17 1.09375,17.5938 1.90625,17.5938 C2.09375,17.5938 2.5,17.5 2.70313,17.4063 C3.09375,17.2031 9.59375,14 15,7.90625 C18.7969,3.59375 20.2969,-1.29688 20.2969,-5.40625 C20.2969,-6.29688 20.2031,-7.09375 20.0938,-7.90625 M13.2031,-4 C13.2031,-2.5 12.7969,2.09375 10.2969,5.90625 C8.59375,8.5 5.20313,11.2031 3.29688,12.7031 L3.59375,-6.79688 C3.79688,-7.70313 5.29688,-10.5938 9.29688,-10.5938 C12.9063,-10.5938 13.2031,-7.20313 13.2031,-5.09375 L13.2031,-4 "/>
<path class="KeySig" transform="matrix(1.12,0,0,1.12,223.633,406.677)" d="M20.0938,-7.90625 C19.5,-11.7969 17.0938,-15.5 12,-15.5 C7,-15.5 4.09375,-12.4063 3.59375,-11.7969 L4,-43.9063 C4,-44.7031 3.40625,-45.2969 2.59375,-45.2969 L1.40625,-45.2969 C0.59375,-45.2969 0,-44.7031 0,-43.9063 L0.5,16.2031 C0.5,17 1.09375,17.5938 1.90625,17.5938 C2.09375,17.5938 2.5,17.5 2.70313,17.4063 C3.09375,17.2031 9.59375,14 15,7.90625 C18.7969,3.59375 20.2969,-1.29688 20.2969,-5.40625 C20.2969,-6.29688 20.2031,-7.09375 20.0938,-7.90625 M13.2031,-4 C13.2031,-2.5 12.7969,2.09375 10.2969,5.90625 C8.59375,8.5 5.20313,11.2031 3.29688,12.7031 L3.59375,-6.79688 C3.79688,-7.70313 5.29688,-10.5938 9.29688,-10.5938 C12.9063,-10.5938 13.2031,-7.20313 13.2031,-5.09375 L13.2031,-4 "/>
<path class="KeySig" transform="matrix(1.12,0,0,1.12,195.633,448.677)" d="M20.0938,-7.90625 C19.5,-11.7969 17.0938,-15.5 12,-15.5 C7,-15.5 4.09375,-12.4063 3.59375,-11.7969 L4,-43.9063 C4,-44.7031 3.40625,-45.2969 2.59375,-45.2969 L1.40625,-45.2969 C0.59375,-45.2969 0,-44.7031 0,-43.9063 L0.5,16.2031 C0.5,17 1.09375,17.5938 1.90625,17.5938 C2.09375,17.5938 2.5,17.5 2.70313,17.4063 C3.09375,17.2031 9.59375,14 15,7.90625 C18.7969,3.59375 20.2969,-1.29688 20.2969,-5.40625 C20.2969,-6.29688 20.2031,-7.09375 20.0938,-7.90625 M13.2031,-4 C13.2031,-2.5 12.7969,2.09375 10.2969,5.90625 C8.59375,8.5 5.20313,11.2031 3.29688,12.7031 L3.59375,-6.79688 C3.79688,-7.70313 5.29688,-10.5938 9.29688,-10.5938 C12.9063,-10.5938 13.2031,-7.20313 13.2031,-5.09375 L13.2031,-4 "/>
<path class="Rest" transform="matrix(1.12,0,0,1.12,1716.08,420.677)" d="M33.4688,-20.2656 C32.7188,-20.5313 32.0469,-20.1719 31.7344,-19.5469 C31.4375,-18.9375 28.6094,-13.5 24.2969,-10.0938 C22.9531,-9.03125 21.3906,-8.34375 19.8281,-7.95313 C20.9063,-9.26563 21.5313,-10.9375 21.4688,-12.75 C21.3281,-16.6875 18.0313,-19.7656 14.0938,-19.625 C10.1563,-19.4844 7.0625,-16.1875 7.20313,-12.25 C7.3125,-9.23438 9.26563,-6.73438 11.9375,-5.78125 C13.5,-5.09375 15.4063,-4.73438 17.4531,-4.79688 C20.2969,-4.90625 23.375,-5.84375 26.0156,-7.92188 C27.25,-8.89063 28.4063,-10.125 29.4375,-11.4219 L29.4375,-11.4063 L24.9375,4.5 C24.9375,4.5 24.9375,4.51563 24.9219,4.51563 L24.9219,4.53125 C24.4531,5.48438 21.2031,11.6563 17.1875,14.8281 C15.8438,15.9063 14.2813,16.5938 12.7188,16.9688 C13.7969,15.6719 14.4219,14 14.3594,12.1875 C14.2188,8.23438 10.9219,5.15625 6.98438,5.29688 C3.04688,5.4375 -0.046875,8.73438 0.09375,12.6875 C0.203125,15.6875 2.15625,18.1875 4.82813,19.1563 C6.39063,19.8281 8.29688,20.2031 10.3438,20.125 C13.1875,20.0313 16.2656,19.0938 18.9063,17.0156 C20.125,16.0469 21.2813,14.8281 22.3125,13.5156 L12.1094,49.9844 L14.7813,50.7344 L33.4531,-15.4688 L34.3281,-18.5938 C34.5313,-19.3281 34.2188,-20.0156 33.4688,-20.2656"/>
<path class="Rest" transform="matrix(1.12,0,0,1.12,3305.92,420.677)" d="M33.4688,-20.2656 C32.7188,-20.5313 32.0469,-20.1719 31.7344,-19.5469 C31.4375,-18.9375 28.6094,-13.5 24.2969,-10.0938 C22.9531,-9.03125 21.3906,-8.34375 19.8281,-7.95313 C20.9063,-9.26563 21.5313,-10.9375 21.4688,-12.75 C21.3281,-16.6875 18.0313,-19.7656 14.0938,-19.625 C10.1563,-19.4844 7.0625,-16.1875 7.20313,-12.25 C7.3125,-9.23438 9.26563,-6.73438 11.9375,-5.78125 C13.5,-5.09375 15.4063,-4.73438 17.4531,-4.79688 C20.2969,-4.90625 23.375,-5.84375 26.0156,-7.92188 C27.25,-8.89063 28.4063,-10.125 29.4375,-11.4219 L29.4375,-11.4063 L24.9375,4.5 C24.9375,4.5 24.9375,4.51563 24.9219,4.51563 L24.9219,4.53125 C24.4531,5.48438 21.2031,11.6563 17.1875,14.8281 C15.8438,15.9063 14.2813,16.5938 12.7188,16.9688 C13.7969,15.6719 14.4219,14 14.3594,12.1875 C14.2188,8.23438 10.9219,5.15625 6.98438,5.29688 C3.04688,5.4375 -0.046875,8.73438 0.09375,12.6875 C0.203125,15.6875 2.15625,18.1875 4.82813,19.1563 C6.39063,19.8281 8.29688,20.2031 10.3438,20.125 C13.1875,20.0313 16.2656,19.0938 18.9063,17.0156 C20.125,16.0469 21.2813,14.8281 22.3125,13.5156 L12.1094,49.9844 L14.7813,50.7344 L33.4531,-15.4688 L34.3281,-18.5938 C34.5313,-19.3281 34.2188,-20.0156 33.4688,-20.2656"/>
<path class="Rest" transform="matrix(1.12,0,0,1.12,3564.59,420.677)" d="M33.4688,-20.2656 C32.7188,-20.5313 32.0469,-20.1719 31.7344,-19.5469 C31.4375,-18.9375 28.6094,-13.5 24.2969,-10.0938 C22.9531,-9.03125 21.3906,-8.34375 19.8281,-7.95313 C20.9063,-9.26563 21.5313,-10.9375 21.4688,-12.75 C21.3281,-16.6875 18.0313,-19.7656 14.0938,-19.625 C10.1563,-19.4844 7.0625,-16.1875 7.20313,-12.25 C7.3125,-9.23438 9.26563,-6.73438 11.9375,-5.78125 C13.5,-5.09375 15.4063,-4.73438 17.4531,-4.79688 C20.2969,-4.90625 23.375,-5.84375 26.0156,-7.92188 C27.25,-8.89063 28.4063,-10.125 29.4375,-11.4219 L29.4375,-11.4063 L24.9375,4.5 C24.9375,4.5 24.9375,4.51563 24.9219,4.51563 L24.9219,4.53125 C24.4531,5.48438 21.2031,11.6563 17.1875,14.8281 C15.8438,15.9063 14.2813,16.5938 12.7188,16.9688 C13.7969,15.6719 14.4219,14 14.3594,12.1875 C14.2188,8.23438 10.9219,5.15625 6.98438,5.29688 C3.04688,5.4375 -0.046875,8.73438 0.09375,12.6875 C0.203125,15.6875 2.15625,18.1875 4.82813,19.1563 C6.39063,19.8281 8.29688,20.2031 10.3438,20.125 C13.1875,20.0313 16.2656,19.0938 18.9063,17.0156 C20.125,16.0469 21.2813,14.8281 22.3125,13.5156 L12.1094,49.9844 L14.7813,50.7344 L33.4531,-15.4688 L34.3281,-18.5938 C34.5313,-19.3281 34.2188,-20.0156 33.4688,-20.2656"/>
<path class="Rest" transform="matrix(1.12,0,0,1.12,3900.85,420.677)" d="M26.7344,-20.2656 C25.9844,-20.5469 25.3125,-20.2031 24.9844,-19.5938 C24.6563,-18.9844 21.4688,-13.0625 17.0469,-9.79688 C15.6563,-8.78125 14.0625,-8.14063 12.5,-7.8125 C13.625,-9.0625 14.2969,-10.7344 14.2969,-12.5469 C14.2969,-16.5 11.0938,-19.7031 7.15625,-19.7031 C3.20313,-19.7031 0,-16.5 0,-12.5469 C0,-9.54688 1.875,-6.95313 4.51563,-5.90625 C6.04688,-5.1875 7.95313,-4.73438 10,-4.73438 C12.8438,-4.73438 15.9531,-5.5625 18.6719,-7.5625 C19.9375,-8.48438 21.125,-9.6875 22.2031,-10.9375 L10.8125,24.6875 L13.4531,25.5469 L27.5313,-18.5469 C27.7656,-19.2813 27.4688,-19.9688 26.7344,-20.2656"/>
<path class="Beam" fill-rule="evenodd" d="M345.765,462.677 L1125.94,462.677 L1125.94,476.677 L345.765,476.677 L345.765,462.677 "/>
<path class="Beam" fill-rule="evenodd" d="M345.765,441.677 L382.165,441.677 L382.165,455.677 L345.765,455.677 L345.765,441.677 "/>
<path class="Beam" fill-rule="evenodd" d="M1125.94,441.677 L1089.54,441.677 L1089.54,455.677 L1125.94,455.677 L1125.94,441.677 "/>
<path class="Beam" fill-rule="evenodd" d="M1309.48,406.668 L1450.35,413.824 L1450.35,427.842 L1309.48,420.686 L1309.48,406.668 "/>
<path class="Beam" fill-rule="evenodd" d="M1309.48,385.668 L1345.88,387.517 L1345.88,401.535 L1309.48,399.686 L1309.48,385.668 "/>
<path class="Beam" fill-rule="evenodd" d="M1853.87,469.621 L2077.41,441.229 L2077.41,455.342 L1853.87,483.733 L1853.87,469.621 "/>
<path class="Beam" fill-rule="evenodd" d="M2077.41,420.229 L2041.01,424.852 L2041.01,438.965 L2077.41,434.342 L2077.41,420.229 "/>
<path class="Beam" fill-rule="evenodd" d="M2254.95,462.676 L3007.54,469.705 L3007.54,483.706 L2254.95,476.677 L2254.95,462.676 "/>
<path class="Beam" fill-rule="evenodd" d="M2254.95,441.676 L2291.35,442.016 L2291.35,456.017 L2254.95,455.677 L2254.95,441.676 "/>
<path class="Beam" fill-rule="evenodd" d="M3007.54,448.705 L2971.14,448.365 L2971.14,462.366 L3007.54,462.706 L3007.54,448.705 "/>
<path class="Hook" transform="matrix(1.12,0,0,1.12,3176.59,476.677)" d="M-0.046875,0.765625 C-0.046875,1.45313 0.265625,2.01563 1.42188,2.01563 C2.57813,2.01563 2.79688,1.5 2.90625,0.765625 C2.90625,0.765625 4.46875,-9.85938 8.28125,-15.4063 C12.1094,-20.9531 18.3125,-24.0938 23.1406,-30.2656 C26.6563,-34.7344 27.9063,-40.0938 28,-45.3125 C28.0938,-50.2813 27.125,-55.0938 26.0469,-58.9219 C26.3906,-61.0313 26.5781,-63.4688 26.5781,-66.3125 C26.5781,-71.9844 24,-77.3906 22.1563,-80.25 C21.6875,-81 21.1719,-82.0625 20.125,-81.5156 C19.0781,-80.9688 19.5469,-79.75 19.875,-78.8125 C21.3438,-74.7813 22.0156,-69.7188 22.0938,-67.2188 C22.2344,-63.2344 21.9219,-59.3438 17.9219,-53.3594 C11.9375,-44.4219 4.01563,-39.4531 1.42188,-38.5 C0.75,-38.2656 -0.046875,-37.7813 -0.046875,-37.5469 L-0.046875,0.765625 M23.4531,-50.7031 C23.7969,-45.8906 23.8594,-41.0781 18.2188,-34.2188 C14.4219,-29.625 8.3125,-25.0781 3.82813,-24.7188 L3.71875,-24.2969 C3.78125,-24.6406 3.84375,-24.9375 3.90625,-25.1719 C4.5625,-27.7188 6.40625,-31.2031 10.3125,-35.1406 C15.2344,-40.0781 18.2031,-43.2344 20.9063,-46.75 C21.7031,-47.7813 22.8438,-49.5469 23.4531,-50.7031"/>
<path class="Hook" transform="matrix(1.12,0,0,1.12,3435.26,462.677)" d="M-0.046875,0.765625 C-0.046875,1.45313 0.265625,2.01563 1.42188,2.01563 C2.57813,2.01563 2.79688,1.5 2.90625,0.765625 C2.90625,0.765625 4.46875,-9.85938 8.28125,-15.4063 C12.1094,-20.9531 18.3125,-24.0938 23.1406,-30.2656 C26.6563,-34.7344 27.9063,-40.0938 28,-45.3125 C28.0938,-50.2813 27.125,-55.0938 26.0469,-58.9219 C26.3906,-61.0313 26.5781,-63.4688 26.5781,-66.3125 C26.5781,-71.9844 24,-77.3906 22.1563,-80.25 C21.6875,-81 21.1719,-82.0625 20.125,-81.5156 C19.0781,-80.9688 19.5469,-79.75 19.875,-78.8125 C21.3438,-74.7813 22.0156,-69.7188 22.0938,-67.2188 C22.2344,-63.2344 21.9219,-59.3438 17.9219,-53.3594 C11.9375,-44.4219 4.01563,-39.4531 1.42188,-38.5 C0.75,-38.2656 -0.046875,-37.7813 -0.046875,-37.5469 L-0.046875,0.765625 M23.4531,-50.7031 C23.7969,-45.8906 23.8594,-41.0781 18.2188,-34.2188 C14.4219,-29.625 8.3125,-25.0781 3.82813,-24.7188 L3.71875,-24.2969 C3.78125,-24.6406 3.84375,-24.9375 3.90625,-25.1719 C4.5625,-27.7188 6.40625,-31.2031 10.3125,-35.1406 C15.2344,-40.0781 18.2031,-43.2344 20.9063,-46.75 C21.7031,-47.7813 22.8438,-49.5469 23.4531,-50.7031"/>
<path class="Hook" transform="matrix(1.12,0,0,1.12,3693.92,504.677)" d="M2.5,0.40625 C2.5,0.203125 3.40625,-3.20313 3.5,-3.5 C3.59375,-3.90625 5.40625,-9.59375 9.09375,-15.2969 C11.7969,-19.5 21.2969,-31.7969 21,-31.7969 C21,-31.7969 28.4063,-41.2969 28.9063,-54.2031 L28.9063,-56.5 C28.9063,-62.6094 28.1094,-71.2031 24.5938,-79.9063 C24.2031,-80.9063 23.7969,-81.9063 22.7031,-81.5 C21.5938,-81.1094 21.9063,-79.9063 22.2031,-78.8125 C24,-71.7969 25,-64.6094 25,-57.4063 C25,-49 22,-44.7969 20.2031,-41.7031 C13.5938,-30.6094 5,-25.2031 0.796875,-23.7969 C0.296875,-23.5938 0,-23.2031 0,-22.7031 L0,-16.5 L0,-0.09375 C0,0.59375 0.59375,1.20313 1.29688,1.20313 C1.79688,1.20313 2.40625,0.796875 2.5,0.40625"/>
<path class="Fingering" d="M506.068,188.757 L475.459,231.319 L475.459,236.366 L500.756,236.366 L500.756,241.054 C500.756,245.632 500.756,245.819 500.209,246.632 C499.49,247.616 497.787,247.882 492.646,247.882 L491.662,247.882 L491.662,252.116 L517.943,252.116 L517.943,247.882 L517.584,247.882 C512.459,247.882 510.74,247.616 510.021,246.632 C509.474,245.819 509.474,245.726 509.474,241.054 L509.474,236.366 L520.365,236.366 L520.365,231.319 L509.474,231.319 L509.474,206.757 C509.474,195.507 509.474,195.241 509.928,188.757 L506.068,188.757 M500.756,231.319 L480.959,231.319 L500.756,204.054 L500.756,231.319 "/>
<path class="Fingering" d="M714.299,134.507 C711.236,138.194 702.955,140.991 694.674,141.163 L694.674,145.038 L702.596,145.038 C707.815,145.132 708.361,145.663 708.174,150.71 L708.174,186.804 C708.174,191.382 708.174,191.569 707.627,192.382 C706.908,193.272 705.205,193.632 700.158,193.632 L694.315,193.632 L694.315,197.866 L729.955,197.866 L729.955,193.632 L725.002,193.632 C719.971,193.632 718.252,193.272 717.533,192.382 C716.908,191.569 716.908,191.476 716.908,186.804 L716.908,149.632 C716.908,144.585 717.08,140.366 717.533,134.507 L714.299,134.507 "/>
<path class="Fingering" d="M933.827,131.241 C942.014,128.272 945.795,123.694 945.795,116.491 C945.795,107.038 938.592,101.007 927.436,101.007 C916.905,101.007 908.889,107.225 908.889,115.413 C908.889,119.1 911.327,121.71 914.842,121.71 C917.983,121.71 920.139,119.554 920.139,116.304 C920.139,114.335 919.42,113.163 917.358,111.725 C916.452,111.085 916.186,110.725 916.186,110.1 C916.186,107.585 921.405,104.882 926.53,104.882 C933.014,104.882 936.436,108.929 936.436,116.585 C936.436,124.944 933.014,129.35 926.623,129.35 C925.811,129.35 924.28,129.272 922.936,129.179 C922.217,129.085 921.498,129.085 920.952,129.085 C919.061,129.085 918.077,129.897 918.077,131.522 C918.077,133.054 918.983,133.772 920.952,133.772 C921.498,133.772 922.217,133.772 923.03,133.679 C924.827,133.585 926.264,133.585 927.248,133.585 C933.92,133.585 937.514,138.35 937.514,147.272 C937.514,156.632 933.014,161.85 924.92,161.85 C919.248,161.85 913.123,158.788 913.123,155.991 C913.123,155.194 913.311,155.007 915.014,154.022 C917.53,152.491 918.53,150.96 918.53,148.71 C918.53,145.46 916.092,143.038 912.858,143.038 C908.983,143.038 906.467,146.194 906.467,150.96 C906.467,159.679 914.483,165.71 925.998,165.71 C939.045,165.71 947.498,158.522 947.498,147.444 C947.498,138.991 943.186,133.85 933.827,131.241"/>
<path class="Fingering" d="M1143.04,71.5066 C1139.98,75.1941 1131.7,77.991 1123.42,78.1629 L1123.42,82.0379 L1131.34,82.0379 C1136.56,82.1316 1137.1,82.6629 1136.92,87.7098 L1136.92,123.804 C1136.92,128.382 1136.92,128.569 1136.37,129.382 C1135.65,130.272 1133.95,130.632 1128.9,130.632 L1123.06,130.632 L1123.06,134.866 L1158.7,134.866 L1158.7,130.632 L1153.74,130.632 C1148.71,130.632 1146.99,130.272 1146.28,129.382 C1145.65,128.569 1145.65,128.475 1145.65,123.804 L1145.65,86.6316 C1145.65,81.5848 1145.82,77.366 1146.28,71.5066 L1143.04,71.5066 "/>
<path class="Fingering" d="M1472.61,131.241 C1480.79,128.272 1484.57,123.694 1484.57,116.491 C1484.57,107.038 1477.37,101.007 1466.21,101.007 C1455.68,101.007 1447.67,107.225 1447.67,115.413 C1447.67,119.1 1450.11,121.71 1453.62,121.71 C1456.76,121.71 1458.92,119.554 1458.92,116.304 C1458.92,114.335 1458.2,113.163 1456.14,111.725 C1455.23,111.085 1454.96,110.725 1454.96,110.1 C1454.96,107.585 1460.18,104.882 1465.31,104.882 C1471.79,104.882 1475.21,108.929 1475.21,116.585 C1475.21,124.944 1471.79,129.35 1465.4,129.35 C1464.59,129.35 1463.06,129.272 1461.71,129.179 C1461,129.085 1460.28,129.085 1459.73,129.085 C1457.84,129.085 1456.86,129.897 1456.86,131.522 C1456.86,133.054 1457.76,133.772 1459.73,133.772 C1460.28,133.772 1461,133.772 1461.81,133.679 C1463.61,133.585 1465.04,133.585 1466.03,133.585 C1472.7,133.585 1476.29,138.35 1476.29,147.272 C1476.29,156.632 1471.79,161.85 1463.7,161.85 C1458.03,161.85 1451.9,158.788 1451.9,155.991 C1451.9,155.194 1452.09,155.007 1453.79,154.022 C1456.31,152.491 1457.31,150.96 1457.31,148.71 C1457.31,145.46 1454.87,143.038 1451.64,143.038 C1447.76,143.038 1445.25,146.194 1445.25,150.96 C1445.25,159.679 1453.26,165.71 1464.78,165.71 C1477.82,165.71 1486.28,158.522 1486.28,147.444 C1486.28,138.991 1481.96,133.85 1472.61,131.241"/>
<path class="Fingering" d="M1874.05,206.817 C1870.99,210.504 1862.71,213.301 1854.43,213.473 L1854.43,217.348 L1862.35,217.348 C1867.57,217.442 1868.11,217.973 1867.93,223.02 L1867.93,259.114 C1867.93,263.692 1867.93,263.879 1867.38,264.692 C1866.66,265.583 1864.96,265.942 1859.91,265.942 L1854.07,265.942 L1854.07,270.176 L1889.71,270.176 L1889.71,265.942 L1884.75,265.942 C1879.72,265.942 1878,265.583 1877.28,264.692 C1876.66,263.879 1876.66,263.786 1876.66,259.114 L1876.66,221.942 C1876.66,216.895 1876.83,212.676 1877.28,206.817 L1874.05,206.817 "/>
<path class="Fingering" d="M2099.66,194.241 C2107.85,191.272 2111.63,186.694 2111.63,179.491 C2111.63,170.038 2104.43,164.007 2093.27,164.007 C2082.74,164.007 2074.73,170.226 2074.73,178.413 C2074.73,182.101 2077.16,184.71 2080.68,184.71 C2083.82,184.71 2085.98,182.554 2085.98,179.304 C2085.98,177.335 2085.26,176.163 2083.19,174.726 C2082.29,174.085 2082.02,173.726 2082.02,173.101 C2082.02,170.585 2087.24,167.882 2092.37,167.882 C2098.85,167.882 2102.27,171.929 2102.27,179.585 C2102.27,187.944 2098.85,192.351 2092.46,192.351 C2091.65,192.351 2090.12,192.272 2088.77,192.179 C2088.05,192.085 2087.33,192.085 2086.79,192.085 C2084.9,192.085 2083.91,192.897 2083.91,194.522 C2083.91,196.054 2084.82,196.772 2086.79,196.772 C2087.33,196.772 2088.05,196.772 2088.87,196.679 C2090.66,196.585 2092.1,196.585 2093.08,196.585 C2099.76,196.585 2103.35,201.351 2103.35,210.272 C2103.35,219.632 2098.85,224.851 2090.76,224.851 C2085.08,224.851 2078.96,221.788 2078.96,218.991 C2078.96,218.194 2079.15,218.007 2080.85,217.022 C2083.37,215.491 2084.37,213.96 2084.37,211.71 C2084.37,208.46 2081.93,206.038 2078.69,206.038 C2074.82,206.038 2072.3,209.194 2072.3,213.96 C2072.3,222.679 2080.32,228.71 2091.83,228.71 C2104.88,228.71 2113.33,221.522 2113.33,210.444 C2113.33,201.991 2109.02,196.851 2099.66,194.241"/>
<path class="Fingering" d="M2404.36,134.507 C2401.3,138.194 2393.01,140.991 2384.73,141.163 L2384.73,145.038 L2392.65,145.038 C2397.87,145.132 2398.42,145.663 2398.23,150.71 L2398.23,186.804 C2398.23,191.382 2398.23,191.569 2397.69,192.382 C2396.97,193.272 2395.26,193.632 2390.22,193.632 L2384.37,193.632 L2384.37,197.866 L2420.01,197.866 L2420.01,193.632 L2415.06,193.632 C2410.03,193.632 2408.31,193.272 2407.59,192.382 C2406.97,191.569 2406.97,191.476 2406.97,186.804 L2406.97,149.632 C2406.97,144.585 2407.14,140.366 2407.59,134.507 L2404.36,134.507 "/>
<path class="Fingering" d="M2617.26,188.757 L2586.65,231.319 L2586.65,236.366 L2611.95,236.366 L2611.95,241.054 C2611.95,245.632 2611.95,245.819 2611.4,246.632 C2610.68,247.616 2608.98,247.882 2603.84,247.882 L2602.85,247.882 L2602.85,252.116 L2629.14,252.116 L2629.14,247.882 L2628.78,247.882 C2623.65,247.882 2621.93,247.616 2621.21,246.632 C2620.67,245.819 2620.67,245.726 2620.67,241.054 L2620.67,236.366 L2631.56,236.366 L2631.56,231.319 L2620.67,231.319 L2620.67,206.757 C2620.67,195.507 2620.67,195.241 2621.12,188.757 L2617.26,188.757 M2611.95,231.319 L2592.15,231.319 L2611.95,204.054 L2611.95,231.319 "/>
<path class="Fingering" d="M2823.04,194.241 C2831.23,191.272 2835.01,186.694 2835.01,179.491 C2835.01,170.038 2827.8,164.007 2816.65,164.007 C2806.12,164.007 2798.1,170.226 2798.1,178.413 C2798.1,182.101 2800.54,184.71 2804.05,184.71 C2807.19,184.71 2809.35,182.554 2809.35,179.304 C2809.35,177.335 2808.63,176.163 2806.57,174.726 C2805.66,174.085 2805.4,173.726 2805.4,173.101 C2805.4,170.585 2810.62,167.882 2815.74,167.882 C2822.23,167.882 2825.65,171.929 2825.65,179.585 C2825.65,187.944 2822.23,192.351 2815.83,192.351 C2815.02,192.351 2813.49,192.272 2812.15,192.179 C2811.43,192.085 2810.71,192.085 2810.16,192.085 C2808.27,192.085 2807.29,192.897 2807.29,194.522 C2807.29,196.054 2808.19,196.772 2810.16,196.772 C2810.71,196.772 2811.43,196.772 2812.24,196.679 C2814.04,196.585 2815.48,196.585 2816.46,196.585 C2823.13,196.585 2826.73,201.351 2826.73,210.272 C2826.73,219.632 2822.23,224.851 2814.13,224.851 C2808.46,224.851 2802.33,221.788 2802.33,218.991 C2802.33,218.194 2802.52,218.007 2804.23,217.022 C2806.74,215.491 2807.74,213.96 2807.74,211.71 C2807.74,208.46 2805.3,206.038 2802.07,206.038 C2798.19,206.038 2795.68,209.194 2795.68,213.96 C2795.68,222.679 2803.69,228.71 2815.21,228.71 C2828.26,228.71 2836.71,221.522 2836.71,210.444 C2836.71,201.991 2832.4,196.851 2823.04,194.241"/>
<path class="Fingering" d="M3030.78,188.757 L3000.17,231.319 L3000.17,236.366 L3025.47,236.366 L3025.47,241.054 C3025.47,245.632 3025.47,245.819 3024.92,246.632 C3024.21,247.616 3022.5,247.882 3017.36,247.882 L3016.38,247.882 L3016.38,252.116 L3042.66,252.116 L3042.66,247.882 L3042.3,247.882 C3037.17,247.882 3035.46,247.616 3034.74,246.632 C3034.19,245.819 3034.19,245.726 3034.19,241.054 L3034.19,236.366 L3045.08,236.366 L3045.08,231.319 L3034.19,231.319 L3034.19,206.757 C3034.19,195.507 3034.19,195.241 3034.64,188.757 L3030.78,188.757 M3025.47,231.319 L3005.67,231.319 L3025.47,204.054 L3025.47,231.319 "/>
<path class="Fingering" d="M3460.59,194.241 C3468.78,191.272 3472.56,186.694 3472.56,179.491 C3472.56,170.038 3465.36,164.007 3454.2,164.007 C3443.67,164.007 3435.66,170.226 3435.66,178.413 C3435.66,182.101 3438.09,184.71 3441.61,184.71 C3444.75,184.71 3446.91,182.554 3446.91,179.304 C3446.91,177.335 3446.19,176.163 3444.12,174.726 C3443.22,174.085 3442.95,173.726 3442.95,173.101 C3442.95,170.585 3448.17,167.882 3453.3,167.882 C3459.78,167.882 3463.2,171.929 3463.2,179.585 C3463.2,187.944 3459.78,192.351 3453.39,192.351 C3452.58,192.351 3451.05,192.272 3449.7,192.179 C3448.98,192.085 3448.26,192.085 3447.72,192.085 C3445.83,192.085 3444.84,192.897 3444.84,194.522 C3444.84,196.054 3445.75,196.772 3447.72,196.772 C3448.26,196.772 3448.98,196.772 3449.8,196.679 C3451.59,196.585 3453.03,196.585 3454.01,196.585 C3460.69,196.585 3464.28,201.351 3464.28,210.272 C3464.28,219.632 3459.78,224.851 3451.69,224.851 C3446.01,224.851 3439.89,221.788 3439.89,218.991 C3439.89,218.194 3440.08,218.007 3441.78,217.022 C3444.3,215.491 3445.3,213.96 3445.3,211.71 C3445.3,208.46 3442.86,206.038 3439.62,206.038 C3435.75,206.038 3433.23,209.194 3433.23,213.96 C3433.23,222.679 3441.25,228.71 3452.76,228.71 C3465.81,228.71 3474.26,221.522 3474.26,210.444 C3474.26,201.991 3469.95,196.851 3460.59,194.241"/>
<path class="Fingering" d="M3719.26,252.551 C3727.45,249.583 3731.23,245.004 3731.23,237.801 C3731.23,228.348 3724.02,222.317 3712.87,222.317 C3702.34,222.317 3694.32,228.536 3694.32,236.723 C3694.32,240.411 3696.76,243.02 3700.27,243.02 C3703.41,243.02 3705.57,240.864 3705.57,237.614 C3705.57,235.645 3704.85,234.473 3702.79,233.036 C3701.88,232.395 3701.62,232.036 3701.62,231.411 C3701.62,228.895 3706.84,226.192 3711.96,226.192 C3718.45,226.192 3721.87,230.239 3721.87,237.895 C3721.87,246.254 3718.45,250.661 3712.05,250.661 C3711.24,250.661 3709.71,250.583 3708.37,250.489 C3707.65,250.395 3706.93,250.395 3706.38,250.395 C3704.49,250.395 3703.51,251.208 3703.51,252.833 C3703.51,254.364 3704.41,255.083 3706.38,255.083 C3706.93,255.083 3707.65,255.083 3708.46,254.989 C3710.26,254.895 3711.7,254.895 3712.68,254.895 C3719.35,254.895 3722.95,259.661 3722.95,268.583 C3722.95,277.942 3718.45,283.161 3710.35,283.161 C3704.68,283.161 3698.55,280.098 3698.55,277.301 C3698.55,276.504 3698.74,276.317 3700.45,275.333 C3702.96,273.801 3703.96,272.27 3703.96,270.02 C3703.96,266.77 3701.52,264.348 3698.29,264.348 C3694.41,264.348 3691.9,267.504 3691.9,272.27 C3691.9,280.989 3699.91,287.02 3711.43,287.02 C3724.48,287.02 3732.93,279.833 3732.93,268.754 C3732.93,260.301 3728.62,255.161 3719.26,252.551"/>
<path class="NoteDot" transform="matrix(1.12,0,0,1.12,1497.66,322.676)" d="M0,0 C0,2.76563 2.23438,5 5,5 C7.76563,5 10,2.76563 10,0 C10,-2.76563 7.76563,-5 5,-5 C2.23438,-5 0,-2.76563 0,0"/>
<path class="Page" d="M96.0938,96.241 L95.4844,98.991 C94.9844,101.194 94.6563,101.897 94.2188,102.178 C93.6719,102.569 93.5625,102.569 90.0938,102.616 L79.4844,102.616 C81.4063,100.96 82.8438,99.9285 84.9844,98.491 C92.7344,93.491 94.3281,92.2722 95.9219,90.241 C97.7969,87.7722 98.8906,84.8504 98.8906,82.2722 C98.8906,76.3816 93.125,71.9285 85.375,71.9285 C77.8906,71.9285 72.1094,76.7722 72.1094,83.0379 C72.1094,86.8816 74.2656,89.366 77.5625,89.366 C80.4219,89.366 82.2344,87.5535 82.2344,84.6941 C82.2344,82.3191 81.1875,80.9441 78.6563,79.741 C78.0469,79.4597 77.7813,79.1316 77.7813,78.6941 C77.7813,76.9285 80.75,75.0691 83.5,75.0691 C87.3438,75.0691 89.5469,77.4285 89.5469,81.5066 C89.5469,86.0691 87.7813,89.3035 81.9531,95.5222 C75.7969,102.069 73.6563,104.538 70.9063,108.507 L70.9063,111.085 C72.3281,110.928 72.9375,110.866 73.7656,110.866 L94.4375,110.866 C95.4844,110.866 96.1406,110.928 97.7969,111.085 L99.0625,96.241 L96.0938,96.241 "/>
</svg>
