<?xml version="1.0" encoding="UTF-8" standalone="no"?>
<svg width="4208.47px" height="2409.45px" viewBox="0 0 4208.47 2409.45"
 xmlns="http://www.w3.org/2000/svg" xmlns:xlink="http://www.w3.org/1999/xlink" version="1.2" baseProfile="tiny">
<title>BOMBARDINO</title>
<desc>Generated by MuseScore 3.6.2</desc>
<polyline class="StaffLines" fill="none" stroke="#000000" stroke-width="6.42" stroke-linejoin="bevel" points="70.866,519.605 4137.61,519.605"/>
<polyline class="StaffLines" fill="none" stroke="#000000" stroke-width="6.42" stroke-linejoin="bevel" points="70.866,578.005 4137.61,578.005"/>
<polyline class="StaffLines" fill="none" stroke="#000000" stroke-width="6.42" stroke-linejoin="bevel" points="70.866,636.405 4137.61,636.405"/>
<polyline class="StaffLines" fill="none" stroke="#000000" stroke-width="6.42" stroke-linejoin="bevel" points="70.866,694.805 4137.61,694.805"/>
<polyline class="StaffLines" fill="none" stroke="#000000" stroke-width="6.42" stroke-linejoin="bevel" points="70.866,753.205 4137.61,753.205"/>
<polyline class="StaffLines" fill="none" stroke="#000000" stroke-width="6.42" stroke-linejoin="bevel" points="70.866,1629.2 4137.61,1629.2"/>
<polyline class="StaffLines" fill="none" stroke="#000000" stroke-width="6.42" stroke-linejoin="bevel" points="70.866,1687.6 4137.61,1687.6"/>
<polyline class="StaffLines" fill="none" stroke="#000000" stroke-width="6.42" stroke-linejoin="bevel" points="70.866,1746 4137.61,1746"/>
<polyline class="StaffLines" fill="none" stroke="#000000" stroke-width="6.42" stroke-linejoin="bevel" points="70.866,1804.4 4137.61,1804.4"/>
<polyline class="StaffLines" fill="none" stroke="#000000" stroke-width="6.42" stroke-linejoin="bevel" points="70.866,1862.8 4137.61,1862.8"/>
<path class="MeasureNumber" d="M98.7097,1473.69 C95.8035,1474.01 92.2254,1474.23 89.1472,1474.23 C87.616,1474.23 85.8504,1474.19 83.866,1474.08 C82.0535,1473.97 80.241,1473.86 78.366,1473.75 L76.991,1473.69 L71.6629,1485.29 L73.6941,1485.95 L75.0222,1483.75 C77.6004,1479.47 78.8035,1478.86 84.4129,1478.92 L93.7097,1478.92 L87.7254,1487.5 C80.6785,1497.39 80.6785,1497.39 77.991,1501.79 C75.5691,1505.7 74.5691,1508.11 74.5691,1510.09 C74.5691,1512.01 75.7879,1513.23 77.7097,1513.23 C79.741,1513.23 80.7879,1512.23 81.5066,1509.65 C84.2566,1499.31 85.8972,1495.75 93.5535,1483.37 L98.7097,1475.34 L98.7097,1473.69 "/>
<path class="TieSegment" stroke="#000000" stroke-width="4.09" stroke-linecap="round" stroke-linejoin="round" fill-rule="evenodd" d="M1615.71,684.281 C1674.64,720.894 1851.44,720.894 1910.38,684.281 C1851.44,737.246 1674.64,737.246 1615.71,684.281"/>
<path class="TieSegment" stroke="#000000" stroke-width="4.09" stroke-linecap="round" stroke-linejoin="round" fill-rule="evenodd" d="M3945.42,534.205 C3983.86,555.241 4099.17,555.241 4137.61,534.205 C4099.17,571.593 3983.86,571.593 3945.42,534.205"/>
<path class="TieSegment" stroke="#000000" stroke-width="4.09" stroke-linecap="round" stroke-linejoin="round" fill-rule="evenodd" d="M495.306,1643.8 C518.139,1658.99 586.638,1658.99 609.471,1643.8 C586.638,1675.34 518.139,1675.34 495.306,1643.8"/>
<path class="TieSegment" stroke="#000000" stroke-width="4.09" stroke-linecap="round" stroke-linejoin="round" fill-rule="evenodd" d="M1473.47,1677.08 C1532.4,1713.69 1709.21,1713.69 1768.14,1677.08 C1709.21,1730.05 1532.4,1730.05 1473.47,1677.08"/>
<path class="TieSegment" stroke="#000000" stroke-width="4.09" stroke-linecap="round" stroke-linejoin="round" fill-rule="evenodd" d="M2796.15,1497.8 C2845.67,1451.99 2994.23,1451.99 3043.75,1497.8 C2994.23,1468.34 2845.67,1468.34 2796.15,1497.8"/>
<polyline class="BarLine" stroke="#000000" stroke-width="10.51" stroke-linejoin="bevel" points="1220.01,516.393 1220.01,756.417"/>
<polyline class="BarLine" stroke="#000000" stroke-width="10.51" stroke-linejoin="bevel" points="1252.13,516.393 1252.13,756.417"/>
<polyline class="BarLine" stroke="#000000" stroke-width="10.51" stroke-linejoin="bevel" points="1802.63,516.393 1802.63,756.417"/>
<polyline class="BarLine" stroke="#000000" stroke-width="10.51" stroke-linejoin="bevel" points="2353.14,516.393 2353.14,756.417"/>
<path class="BarLine" transform="matrix(2.336,0,0,2.336,2862.68,607.205)" d="M10.4063,0 C10.4063,-2.90625 8.09375,-5.29688 5.20313,-5.29688 C2.29688,-5.29688 0,-2.90625 0,0 C0,2.90625 2.29688,5.29688 5.20313,5.29688 C8.09375,5.29688 10.4063,2.90625 10.4063,0"/>
<path class="BarLine" transform="matrix(2.336,0,0,2.336,2862.68,665.605)" d="M10.4063,0 C10.4063,-2.90625 8.09375,-5.29688 5.20313,-5.29688 C2.29688,-5.29688 0,-2.90625 0,0 C0,2.90625 2.29688,5.29688 5.20313,5.29688 C8.09375,5.29688 10.4063,2.90625 10.4063,0"/>
<polyline class="BarLine" stroke="#000000" stroke-width="10.51" stroke-linejoin="bevel" points="2915.7,516.393 2915.7,756.417"/>
<polyline class="BarLine" stroke="#000000" stroke-width="32.12" stroke-linejoin="bevel" points="2956.58,516.393 2956.58,756.417"/>
<polyline class="BarLine" stroke="#000000" stroke-width="32.12" stroke-linejoin="bevel" points="2949.64,516.393 2949.64,756.417"/>
<polyline class="BarLine" stroke="#000000" stroke-width="10.51" stroke-linejoin="bevel" points="2990.52,516.393 2990.52,756.417"/>
<path class="BarLine" transform="matrix(2.336,0,0,2.336,3019.24,607.205)" d="M10.4063,0 C10.4063,-2.90625 8.09375,-5.29688 5.20313,-5.29688 C2.29688,-5.29688 0,-2.90625 0,0 C0,2.90625 2.29688,5.29688 5.20313,5.29688 C8.09375,5.29688 10.4063,2.90625 10.4063,0"/>
<path class="BarLine" transform="matrix(2.336,0,0,2.336,3019.24,665.605)" d="M10.4063,0 C10.4063,-2.90625 8.09375,-5.29688 5.20313,-5.29688 C2.29688,-5.29688 0,-2.90625 0,0 C0,2.90625 2.29688,5.29688 5.20313,5.29688 C8.09375,5.29688 10.4063,2.90625 10.4063,0"/>
<polyline class="BarLine" stroke="#000000" stroke-width="10.51" stroke-linejoin="bevel" points="3581.84,516.393 3581.84,756.417"/>
<polyline class="BarLine" stroke="#000000" stroke-width="10.51" stroke-linejoin="bevel" points="4132.35,516.393 4132.35,756.417"/>
<polyline class="BarLine" stroke="#000000" stroke-width="10.51" stroke-linejoin="bevel" points="1118.19,1625.99 1118.19,1866.02"/>
<polyline class="BarLine" stroke="#000000" stroke-width="10.51" stroke-linejoin="bevel" points="1660.4,1625.99 1660.4,1866.02"/>
<polyline class="BarLine" stroke="#000000" stroke-width="10.51" stroke-linejoin="bevel" points="2337.25,1625.99 2337.25,1866.02"/>
<polyline class="BarLine" stroke="#000000" stroke-width="10.51" stroke-linejoin="bevel" points="2915.57,1625.99 2915.57,1866.02"/>
<polyline class="BarLine" stroke="#000000" stroke-width="10.51" stroke-linejoin="bevel" points="3567.75,1625.99 3567.75,1866.02"/>
<polyline class="BarLine" stroke="#000000" stroke-width="10.51" stroke-linejoin="bevel" points="4080.67,1625.99 4080.67,1866.02"/>
<polyline class="BarLine" stroke="#000000" stroke-width="32.12" stroke-linejoin="bevel" points="4121.55,1625.99 4121.55,1866.02"/>
<polyline class="LedgerLine" stroke="#000000" stroke-width="9.34" stroke-linejoin="bevel" points="1890.24,1570.8 2007.02,1570.8"/>
<polyline class="LedgerLine" stroke="#000000" stroke-width="9.34" stroke-linejoin="bevel" points="2080.54,1570.8 2197.32,1570.8"/>
<polyline class="LedgerLine" stroke="#000000" stroke-width="9.34" stroke-linejoin="bevel" points="2418.42,1570.8 2535.2,1570.8"/>
<polyline class="LedgerLine" stroke="#000000" stroke-width="9.34" stroke-linejoin="bevel" points="2597.91,1570.8 2714.69,1570.8"/>
<polyline class="LedgerLine" stroke="#000000" stroke-width="9.34" stroke-linejoin="bevel" points="2726.37,1570.8 2843.15,1570.8"/>
<polyline class="LedgerLine" stroke="#000000" stroke-width="9.34" stroke-linejoin="bevel" points="2996.75,1570.8 3113.53,1570.8"/>
<polyline class="LedgerLine" stroke="#000000" stroke-width="9.34" stroke-linejoin="bevel" points="3125.21,1570.8 3241.99,1570.8"/>
<polyline class="LedgerLine" stroke="#000000" stroke-width="9.34" stroke-linejoin="bevel" points="3783.45,1570.8 3900.23,1570.8"/>
<polyline class="Stem" stroke="#000000" stroke-width="6.42" stroke-linejoin="bevel" points="889.289,482.93 889.289,344.405"/>
<polyline class="Stem" stroke="#000000" stroke-width="6.42" stroke-linejoin="bevel" points="1056.43,512.13 1056.43,344.405"/>
<polyline class="Stem" stroke="#000000" stroke-width="6.42" stroke-linejoin="bevel" points="1405.99,541.33 1405.99,388.205"/>
<polyline class="Stem" stroke="#000000" stroke-width="6.42" stroke-linejoin="bevel" points="1639.06,628.93 1639.06,453.905"/>
<polyline class="Stem" stroke="#000000" stroke-width="6.42" stroke-linejoin="bevel" points="1956.5,628.93 1956.5,453.905"/>
<polyline class="Stem" stroke="#000000" stroke-width="6.42" stroke-linejoin="bevel" points="2189.56,628.93 2189.56,453.905"/>
<polyline class="Stem" stroke="#000000" stroke-width="6.42" stroke-linejoin="bevel" points="2507.01,541.33 2507.01,388.205"/>
<polyline class="Stem" stroke="#000000" stroke-width="6.42" stroke-linejoin="bevel" points="2600.52,556.654 2600.52,753.205"/>
<polyline class="Stem" stroke="#000000" stroke-width="6.42" stroke-linejoin="bevel" points="2702.39,644.254 2702.39,811.605"/>
<polyline class="Stem" stroke="#000000" stroke-width="6.42" stroke-linejoin="bevel" points="3185.2,628.93 3185.2,453.905"/>
<polyline class="Stem" stroke="#000000" stroke-width="6.42" stroke-linejoin="bevel" points="3418.27,658.13 3418.27,475.805"/>
<polyline class="Stem" stroke="#000000" stroke-width="6.42" stroke-linejoin="bevel" points="3735.71,599.73 3735.71,432.005"/>
<polyline class="Stem" stroke="#000000" stroke-width="6.42" stroke-linejoin="bevel" points="3968.78,482.93 3968.78,315.205"/>
<polyline class="Stem" stroke="#000000" stroke-width="6.42" stroke-linejoin="bevel" points="655.595,1592.53 655.595,1424.8"/>
<polyline class="Stem" stroke="#000000" stroke-width="6.42" stroke-linejoin="bevel" points="810.684,1709.33 810.684,1541.6"/>
<polyline class="Stem" stroke="#000000" stroke-width="6.42" stroke-linejoin="bevel" points="954.618,1592.53 954.618,1424.8"/>
<polyline class="Stem" stroke="#000000" stroke-width="6.42" stroke-linejoin="bevel" points="1272.06,1738.53 1272.06,1563.5"/>
<polyline class="Stem" stroke="#000000" stroke-width="6.42" stroke-linejoin="bevel" points="1496.82,1621.73 1496.82,1454"/>
<polyline class="Stem" stroke="#000000" stroke-width="6.42" stroke-linejoin="bevel" points="1814.26,1621.73 1814.26,1454"/>
<polyline class="Stem" stroke="#000000" stroke-width="6.42" stroke-linejoin="bevel" points="1983.37,1534.13 1983.37,1410.2"/>
<polyline class="Stem" stroke="#000000" stroke-width="6.42" stroke-linejoin="bevel" points="2173.67,1563.33 2173.67,1395.6"/>
<polyline class="Stem" stroke="#000000" stroke-width="6.42" stroke-linejoin="bevel" points="2511.55,1534.13 2511.55,1410.2"/>
<polyline class="Stem" stroke="#000000" stroke-width="6.42" stroke-linejoin="bevel" points="2621.56,1578.65 2621.56,1746"/>
<polyline class="Stem" stroke="#000000" stroke-width="6.42" stroke-linejoin="bevel" points="2750.02,1549.45 2750.02,1731.4"/>
<polyline class="Stem" stroke="#000000" stroke-width="6.42" stroke-linejoin="bevel" points="3020.4,1549.45 3020.4,1731.4"/>
<polyline class="Stem" stroke="#000000" stroke-width="6.42" stroke-linejoin="bevel" points="3148.86,1578.65 3148.86,1746"/>
<polyline class="Stem" stroke="#000000" stroke-width="6.42" stroke-linejoin="bevel" points="3275.53,1607.85 3275.53,1789.8"/>
<polyline class="Stem" stroke="#000000" stroke-width="6.42" stroke-linejoin="bevel" points="3402.2,1637.05 3402.2,1804.4"/>
<polyline class="Stem" stroke="#000000" stroke-width="6.42" stroke-linejoin="bevel" points="3721.62,1650.93 3721.62,1497.8"/>
<polyline class="Stem" stroke="#000000" stroke-width="6.42" stroke-linejoin="bevel" points="3807.1,1549.45 3807.1,1731.4"/>
<polyline class="Stem" stroke="#000000" stroke-width="6.42" stroke-linejoin="bevel" points="3915.12,1607.85 3915.12,1760.6"/>
<path class="Note" transform="matrix(2.336,0,0,2.336,816.599,490.405)" d="M31.5,-8.09375 C29.7031,-11.4063 25.9063,-13.2031 21.2969,-13.2031 C17.9063,-13.2031 14.2031,-12.2031 10.5938,-10.2969 C4,-6.79688 0,-0.90625 0,4.20313 C0,5.59375 0.296875,7 1,8.29688 C2.79688,11.5938 6.59375,13.2969 11.2031,13.2969 C14.5938,13.2969 18.2969,12.4063 21.9063,10.5 C28.5,7 32.5,1.09375 32.5,-4 C32.5,-5.40625 32.2031,-6.79688 31.5,-8.09375"/>
<path class="Note" transform="matrix(2.336,0,0,2.336,983.743,519.605)" d="M31.5,-8.09375 C29.7031,-11.4063 25.9063,-13.2031 21.2969,-13.2031 C17.9063,-13.2031 14.2031,-12.2031 10.5938,-10.2969 C4,-6.79688 0,-0.90625 0,4.20313 C0,5.59375 0.296875,7 1,8.29688 C2.79688,11.5938 6.59375,13.2969 11.2031,13.2969 C14.5938,13.2969 18.2969,12.4063 21.9063,10.5 C28.5,7 32.5,1.09375 32.5,-4 C32.5,-5.40625 32.2031,-6.79688 31.5,-8.09375"/>
<path class="Note" transform="matrix(2.336,0,0,2.336,1333.3,548.805)" d="M31.5,-8.09375 C29.7031,-11.4063 25.9063,-13.2031 21.2969,-13.2031 C17.9063,-13.2031 14.2031,-12.2031 10.5938,-10.2969 C4,-6.79688 0,-0.90625 0,4.20313 C0,5.59375 0.296875,7 1,8.29688 C2.79688,11.5938 6.59375,13.2969 11.2031,13.2969 C14.5938,13.2969 18.2969,12.4063 21.9063,10.5 C28.5,7 32.5,1.09375 32.5,-4 C32.5,-5.40625 32.2031,-6.79688 31.5,-8.09375"/>
<path class="Note" transform="matrix(2.336,0,0,2.336,1566.37,636.405)" d="M31.5,-8.09375 C29.7031,-11.4063 25.9063,-13.2031 21.2969,-13.2031 C17.9063,-13.2031 14.2031,-12.2031 10.5938,-10.2969 C4,-6.79688 0,-0.90625 0,4.20313 C0,5.59375 0.296875,7 1,8.29688 C2.79688,11.5938 6.59375,13.2969 11.2031,13.2969 C14.5938,13.2969 18.2969,12.4063 21.9063,10.5 C28.5,7 32.5,1.09375 32.5,-4 C32.5,-5.40625 32.2031,-6.79688 31.5,-8.09375"/>
<path class="Note" transform="matrix(2.336,0,0,2.336,1883.81,636.405)" d="M31.5,-8.09375 C29.7031,-11.4063 25.9063,-13.2031 21.2969,-13.2031 C17.9063,-13.2031 14.2031,-12.2031 10.5938,-10.2969 C4,-6.79688 0,-0.90625 0,4.20313 C0,5.59375 0.296875,7 1,8.29688 C2.79688,11.5938 6.59375,13.2969 11.2031,13.2969 C14.5938,13.2969 18.2969,12.4063 21.9063,10.5 C28.5,7 32.5,1.09375 32.5,-4 C32.5,-5.40625 32.2031,-6.79688 31.5,-8.09375"/>
<path class="Note" transform="matrix(2.336,0,0,2.336,2116.88,636.405)" d="M31.5,-8.09375 C29.7031,-11.4063 25.9063,-13.2031 21.2969,-13.2031 C17.9063,-13.2031 14.2031,-12.2031 10.5938,-10.2969 C4,-6.79688 0,-0.90625 0,4.20313 C0,5.59375 0.296875,7 1,8.29688 C2.79688,11.5938 6.59375,13.2969 11.2031,13.2969 C14.5938,13.2969 18.2969,12.4063 21.9063,10.5 C28.5,7 32.5,1.09375 32.5,-4 C32.5,-5.40625 32.2031,-6.79688 31.5,-8.09375"/>
<path class="Note" transform="matrix(2.336,0,0,2.336,2434.32,548.805)" d="M31.5,-8.09375 C29.7031,-11.4063 25.9063,-13.2031 21.2969,-13.2031 C17.9063,-13.2031 14.2031,-12.2031 10.5938,-10.2969 C4,-6.79688 0,-0.90625 0,4.20313 C0,5.59375 0.296875,7 1,8.29688 C2.79688,11.5938 6.59375,13.2969 11.2031,13.2969 C14.5938,13.2969 18.2969,12.4063 21.9063,10.5 C28.5,7 32.5,1.09375 32.5,-4 C32.5,-5.40625 32.2031,-6.79688 31.5,-8.09375"/>
<path class="Note" transform="matrix(2.336,0,0,2.336,2597.31,548.805)" d="M31.5,-8.09375 C29.7031,-11.4063 25.9063,-13.2031 21.2969,-13.2031 C17.9063,-13.2031 14.2031,-12.2031 10.5938,-10.2969 C4,-6.79688 0,-0.90625 0,4.20313 C0,5.59375 0.296875,7 1,8.29688 C2.79688,11.5938 6.59375,13.2969 11.2031,13.2969 C14.5938,13.2969 18.2969,12.4063 21.9063,10.5 C28.5,7 32.5,1.09375 32.5,-4 C32.5,-5.40625 32.2031,-6.79688 31.5,-8.09375"/>
<path class="Note" transform="matrix(2.336,0,0,2.336,2699.17,636.405)" d="M31.5,-8.09375 C29.7031,-11.4063 25.9063,-13.2031 21.2969,-13.2031 C17.9063,-13.2031 14.2031,-12.2031 10.5938,-10.2969 C4,-6.79688 0,-0.90625 0,4.20313 C0,5.59375 0.296875,7 1,8.29688 C2.79688,11.5938 6.59375,13.2969 11.2031,13.2969 C14.5938,13.2969 18.2969,12.4063 21.9063,10.5 C28.5,7 32.5,1.09375 32.5,-4 C32.5,-5.40625 32.2031,-6.79688 31.5,-8.09375"/>
<path class="Note" transform="matrix(2.336,0,0,2.336,3112.51,636.405)" d="M31.5,-8.09375 C29.7031,-11.4063 25.9063,-13.2031 21.2969,-13.2031 C17.9063,-13.2031 14.2031,-12.2031 10.5938,-10.2969 C4,-6.79688 0,-0.90625 0,4.20313 C0,5.59375 0.296875,7 1,8.29688 C2.79688,11.5938 6.59375,13.2969 11.2031,13.2969 C14.5938,13.2969 18.2969,12.4063 21.9063,10.5 C28.5,7 32.5,1.09375 32.5,-4 C32.5,-5.40625 32.2031,-6.79688 31.5,-8.09375"/>
<path class="Note" transform="matrix(2.336,0,0,2.336,3345.58,665.605)" d="M31.5,-8.09375 C29.7031,-11.4063 25.9063,-13.2031 21.2969,-13.2031 C17.9063,-13.2031 14.2031,-12.2031 10.5938,-10.2969 C4,-6.79688 0,-0.90625 0,4.20313 C0,5.59375 0.296875,7 1,8.29688 C2.79688,11.5938 6.59375,13.2969 11.2031,13.2969 C14.5938,13.2969 18.2969,12.4063 21.9063,10.5 C28.5,7 32.5,1.09375 32.5,-4 C32.5,-5.40625 32.2031,-6.79688 31.5,-8.09375"/>
<path class="Note" transform="matrix(2.336,0,0,2.336,3663.02,607.205)" d="M31.5,-8.09375 C29.7031,-11.4063 25.9063,-13.2031 21.2969,-13.2031 C17.9063,-13.2031 14.2031,-12.2031 10.5938,-10.2969 C4,-6.79688 0,-0.90625 0,4.20313 C0,5.59375 0.296875,7 1,8.29688 C2.79688,11.5938 6.59375,13.2969 11.2031,13.2969 C14.5938,13.2969 18.2969,12.4063 21.9063,10.5 C28.5,7 32.5,1.09375 32.5,-4 C32.5,-5.40625 32.2031,-6.79688 31.5,-8.09375"/>
<path class="Note" transform="matrix(2.336,0,0,2.336,3896.09,490.405)" d="M31.5,-8.09375 C29.7031,-11.4063 25.9063,-13.2031 21.2969,-13.2031 C17.9063,-13.2031 14.2031,-12.2031 10.5938,-10.2969 C4,-6.79688 0,-0.90625 0,4.20313 C0,5.59375 0.296875,7 1,8.29688 C2.79688,11.5938 6.59375,13.2969 11.2031,13.2969 C14.5938,13.2969 18.2969,12.4063 21.9063,10.5 C28.5,7 32.5,1.09375 32.5,-4 C32.5,-5.40625 32.2031,-6.79688 31.5,-8.09375"/>
<path class="Note" transform="matrix(2.336,0,0,2.336,582.906,1600)" d="M31.5,-8.09375 C29.7031,-11.4063 25.9063,-13.2031 21.2969,-13.2031 C17.9063,-13.2031 14.2031,-12.2031 10.5938,-10.2969 C4,-6.79688 0,-0.90625 0,4.20313 C0,5.59375 0.296875,7 1,8.29688 C2.79688,11.5938 6.59375,13.2969 11.2031,13.2969 C14.5938,13.2969 18.2969,12.4063 21.9063,10.5 C28.5,7 32.5,1.09375 32.5,-4 C32.5,-5.40625 32.2031,-6.79688 31.5,-8.09375"/>
<path class="Note" transform="matrix(2.336,0,0,2.336,737.994,1716.8)" d="M31.5,-8.09375 C29.7031,-11.4063 25.9063,-13.2031 21.2969,-13.2031 C17.9063,-13.2031 14.2031,-12.2031 10.5938,-10.2969 C4,-6.79688 0,-0.90625 0,4.20313 C0,5.59375 0.296875,7 1,8.29688 C2.79688,11.5938 6.59375,13.2969 11.2031,13.2969 C14.5938,13.2969 18.2969,12.4063 21.9063,10.5 C28.5,7 32.5,1.09375 32.5,-4 C32.5,-5.40625 32.2031,-6.79688 31.5,-8.09375"/>
<path class="Note" transform="matrix(2.336,0,0,2.336,881.928,1600)" d="M31.5,-8.09375 C29.7031,-11.4063 25.9063,-13.2031 21.2969,-13.2031 C17.9063,-13.2031 14.2031,-12.2031 10.5938,-10.2969 C4,-6.79688 0,-0.90625 0,4.20313 C0,5.59375 0.296875,7 1,8.29688 C2.79688,11.5938 6.59375,13.2969 11.2031,13.2969 C14.5938,13.2969 18.2969,12.4063 21.9063,10.5 C28.5,7 32.5,1.09375 32.5,-4 C32.5,-5.40625 32.2031,-6.79688 31.5,-8.09375"/>
<path class="Note" transform="matrix(2.336,0,0,2.336,1199.37,1746)" d="M31.5,-8.09375 C29.7031,-11.4063 25.9063,-13.2031 21.2969,-13.2031 C17.9063,-13.2031 14.2031,-12.2031 10.5938,-10.2969 C4,-6.79688 0,-0.90625 0,4.20313 C0,5.59375 0.296875,7 1,8.29688 C2.79688,11.5938 6.59375,13.2969 11.2031,13.2969 C14.5938,13.2969 18.2969,12.4063 21.9063,10.5 C28.5,7 32.5,1.09375 32.5,-4 C32.5,-5.40625 32.2031,-6.79688 31.5,-8.09375"/>
<path class="Note" transform="matrix(2.336,0,0,2.336,1424.13,1629.2)" d="M31.5,-8.09375 C29.7031,-11.4063 25.9063,-13.2031 21.2969,-13.2031 C17.9063,-13.2031 14.2031,-12.2031 10.5938,-10.2969 C4,-6.79688 0,-0.90625 0,4.20313 C0,5.59375 0.296875,7 1,8.29688 C2.79688,11.5938 6.59375,13.2969 11.2031,13.2969 C14.5938,13.2969 18.2969,12.4063 21.9063,10.5 C28.5,7 32.5,1.09375 32.5,-4 C32.5,-5.40625 32.2031,-6.79688 31.5,-8.09375"/>
<path class="Note" transform="matrix(2.336,0,0,2.336,1741.57,1629.2)" d="M31.5,-8.09375 C29.7031,-11.4063 25.9063,-13.2031 21.2969,-13.2031 C17.9063,-13.2031 14.2031,-12.2031 10.5938,-10.2969 C4,-6.79688 0,-0.90625 0,4.20313 C0,5.59375 0.296875,7 1,8.29688 C2.79688,11.5938 6.59375,13.2969 11.2031,13.2969 C14.5938,13.2969 18.2969,12.4063 21.9063,10.5 C28.5,7 32.5,1.09375 32.5,-4 C32.5,-5.40625 32.2031,-6.79688 31.5,-8.09375"/>
<path class="Note" transform="matrix(2.336,0,0,2.336,1910.68,1541.6)" d="M31.5,-8.09375 C29.7031,-11.4063 25.9063,-13.2031 21.2969,-13.2031 C17.9063,-13.2031 14.2031,-12.2031 10.5938,-10.2969 C4,-6.79688 0,-0.90625 0,4.20313 C0,5.59375 0.296875,7 1,8.29688 C2.79688,11.5938 6.59375,13.2969 11.2031,13.2969 C14.5938,13.2969 18.2969,12.4063 21.9063,10.5 C28.5,7 32.5,1.09375 32.5,-4 C32.5,-5.40625 32.2031,-6.79688 31.5,-8.09375"/>
<path class="Note" transform="matrix(2.336,0,0,2.336,2100.98,1570.8)" d="M31.5,-8.09375 C29.7031,-11.4063 25.9063,-13.2031 21.2969,-13.2031 C17.9063,-13.2031 14.2031,-12.2031 10.5938,-10.2969 C4,-6.79688 0,-0.90625 0,4.20313 C0,5.59375 0.296875,7 1,8.29688 C2.79688,11.5938 6.59375,13.2969 11.2031,13.2969 C14.5938,13.2969 18.2969,12.4063 21.9063,10.5 C28.5,7 32.5,1.09375 32.5,-4 C32.5,-5.40625 32.2031,-6.79688 31.5,-8.09375"/>
<path class="Note" transform="matrix(2.336,0,0,2.336,2438.86,1541.6)" d="M31.5,-8.09375 C29.7031,-11.4063 25.9063,-13.2031 21.2969,-13.2031 C17.9063,-13.2031 14.2031,-12.2031 10.5938,-10.2969 C4,-6.79688 0,-0.90625 0,4.20313 C0,5.59375 0.296875,7 1,8.29688 C2.79688,11.5938 6.59375,13.2969 11.2031,13.2969 C14.5938,13.2969 18.2969,12.4063 21.9063,10.5 C28.5,7 32.5,1.09375 32.5,-4 C32.5,-5.40625 32.2031,-6.79688 31.5,-8.09375"/>
<path class="Note" transform="matrix(2.336,0,0,2.336,2618.35,1570.8)" d="M31.5,-8.09375 C29.7031,-11.4063 25.9063,-13.2031 21.2969,-13.2031 C17.9063,-13.2031 14.2031,-12.2031 10.5938,-10.2969 C4,-6.79688 0,-0.90625 0,4.20313 C0,5.59375 0.296875,7 1,8.29688 C2.79688,11.5938 6.59375,13.2969 11.2031,13.2969 C14.5938,13.2969 18.2969,12.4063 21.9063,10.5 C28.5,7 32.5,1.09375 32.5,-4 C32.5,-5.40625 32.2031,-6.79688 31.5,-8.09375"/>
<path class="Note" transform="matrix(2.336,0,0,2.336,2746.81,1541.6)" d="M31.5,-8.09375 C29.7031,-11.4063 25.9063,-13.2031 21.2969,-13.2031 C17.9063,-13.2031 14.2031,-12.2031 10.5938,-10.2969 C4,-6.79688 0,-0.90625 0,4.20313 C0,5.59375 0.296875,7 1,8.29688 C2.79688,11.5938 6.59375,13.2969 11.2031,13.2969 C14.5938,13.2969 18.2969,12.4063 21.9063,10.5 C28.5,7 32.5,1.09375 32.5,-4 C32.5,-5.40625 32.2031,-6.79688 31.5,-8.09375"/>
<path class="Note" transform="matrix(2.336,0,0,2.336,3017.19,1541.6)" d="M31.5,-8.09375 C29.7031,-11.4063 25.9063,-13.2031 21.2969,-13.2031 C17.9063,-13.2031 14.2031,-12.2031 10.5938,-10.2969 C4,-6.79688 0,-0.90625 0,4.20313 C0,5.59375 0.296875,7 1,8.29688 C2.79688,11.5938 6.59375,13.2969 11.2031,13.2969 C14.5938,13.2969 18.2969,12.4063 21.9063,10.5 C28.5,7 32.5,1.09375 32.5,-4 C32.5,-5.40625 32.2031,-6.79688 31.5,-8.09375"/>
<path class="Note" transform="matrix(2.336,0,0,2.336,3145.65,1570.8)" d="M31.5,-8.09375 C29.7031,-11.4063 25.9063,-13.2031 21.2969,-13.2031 C17.9063,-13.2031 14.2031,-12.2031 10.5938,-10.2969 C4,-6.79688 0,-0.90625 0,4.20313 C0,5.59375 0.296875,7 1,8.29688 C2.79688,11.5938 6.59375,13.2969 11.2031,13.2969 C14.5938,13.2969 18.2969,12.4063 21.9063,10.5 C28.5,7 32.5,1.09375 32.5,-4 C32.5,-5.40625 32.2031,-6.79688 31.5,-8.09375"/>
<path class="Note" transform="matrix(2.336,0,0,2.336,3272.32,1600)" d="M31.5,-8.09375 C29.7031,-11.4063 25.9063,-13.2031 21.2969,-13.2031 C17.9063,-13.2031 14.2031,-12.2031 10.5938,-10.2969 C4,-6.79688 0,-0.90625 0,4.20313 C0,5.59375 0.296875,7 1,8.29688 C2.79688,11.5938 6.59375,13.2969 11.2031,13.2969 C14.5938,13.2969 18.2969,12.4063 21.9063,10.5 C28.5,7 32.5,1.09375 32.5,-4 C32.5,-5.40625 32.2031,-6.79688 31.5,-8.09375"/>
<path class="Note" transform="matrix(2.336,0,0,2.336,3398.99,1629.2)" d="M31.5,-8.09375 C29.7031,-11.4063 25.9063,-13.2031 21.2969,-13.2031 C17.9063,-13.2031 14.2031,-12.2031 10.5938,-10.2969 C4,-6.79688 0,-0.90625 0,4.20313 C0,5.59375 0.296875,7 1,8.29688 C2.79688,11.5938 6.59375,13.2969 11.2031,13.2969 C14.5938,13.2969 18.2969,12.4063 21.9063,10.5 C28.5,7 32.5,1.09375 32.5,-4 C32.5,-5.40625 32.2031,-6.79688 31.5,-8.09375"/>
<path class="Note" transform="matrix(2.336,0,0,2.336,3648.93,1658.4)" d="M31.5,-8.09375 C29.7031,-11.4063 25.9063,-13.2031 21.2969,-13.2031 C17.9063,-13.2031 14.2031,-12.2031 10.5938,-10.2969 C4,-6.79688 0,-0.90625 0,4.20313 C0,5.59375 0.296875,7 1,8.29688 C2.79688,11.5938 6.59375,13.2969 11.2031,13.2969 C14.5938,13.2969 18.2969,12.4063 21.9063,10.5 C28.5,7 32.5,1.09375 32.5,-4 C32.5,-5.40625 32.2031,-6.79688 31.5,-8.09375"/>
<path class="Note" transform="matrix(2.336,0,0,2.336,3803.89,1541.6)" d="M31.5,-8.09375 C29.7031,-11.4063 25.9063,-13.2031 21.2969,-13.2031 C17.9063,-13.2031 14.2031,-12.2031 10.5938,-10.2969 C4,-6.79688 0,-0.90625 0,4.20313 C0,5.59375 0.296875,7 1,8.29688 C2.79688,11.5938 6.59375,13.2969 11.2031,13.2969 C14.5938,13.2969 18.2969,12.4063 21.9063,10.5 C28.5,7 32.5,1.09375 32.5,-4 C32.5,-5.40625 32.2031,-6.79688 31.5,-8.09375"/>
<path class="Note" transform="matrix(2.336,0,0,2.336,3911.91,1600)" d="M31.5,-8.09375 C29.7031,-11.4063 25.9063,-13.2031 21.2969,-13.2031 C17.9063,-13.2031 14.2031,-12.2031 10.5938,-10.2969 C4,-6.79688 0,-0.90625 0,4.20313 C0,5.59375 0.296875,7 1,8.29688 C2.79688,11.5938 6.59375,13.2969 11.2031,13.2969 C14.5938,13.2969 18.2969,12.4063 21.9063,10.5 C28.5,7 32.5,1.09375 32.5,-4 C32.5,-5.40625 32.2031,-6.79688 31.5,-8.09375"/>
<path class="Clef" transform="matrix(2.336,0,0,2.336,117.586,578.005)" d="M25.4063,-25.0938 C17.7969,-25.0938 11.7031,-20.7031 11.5938,-20.7031 C5.79688,-16.4063 3.5,-11.2969 2.59375,-7.79688 C2.09375,-6 1.90625,-4.20313 1.90625,-2.5 C1.90625,-0.09375 2.29688,2.09375 3.20313,4 C4.40625,6.70313 6.70313,8.59375 9.70313,9.59375 C10.9063,10 12.2031,10.2031 13.5,10.2031 C15.7031,10.2031 18,9.59375 19.9063,8.5 C23,6.79688 24.9063,3.20313 24.9063,-0.703125 C24.9063,-4.20313 23.0938,-7.40625 20.0938,-9.29688 C18,-10.7031 16,-11.0938 14.2969,-11.0938 C13.0938,-11.0938 12,-10.9063 11.0938,-10.5938 C10.0938,-10.2031 8.40625,-9.20313 7.59375,-8.5 C7.90625,-10.4063 9.09375,-13.2969 10.2031,-14.9063 C11.2969,-16.5 13.5,-18.5 15.2031,-19.4063 C17.7031,-20.7969 20.9063,-21.4063 24.4063,-21.4063 C34.6094,-21.4063 39.6094,-13.2031 39.6094,3.59375 C39.6094,12.9063 36.1094,21.7969 33.1094,27.7031 C29.7969,34.2969 25.4063,40.6094 21.5,44.1094 C11.0938,53.6094 1.29688,58.1094 1.20313,58.1094 C1.20313,58.1094 -0.296875,59 0.09375,60.5 C0.40625,61.5 1.29688,61.7031 1.90625,61.7031 C2,61.7031 2.29688,61.6094 2.40625,61.6094 C2.5,61.6094 13.9063,56.9063 23,49.7969 C28.1094,46.1094 32.7031,42.1094 36.7031,37.7969 C40.2969,33.9063 43.4063,29.7031 45.9063,25.5 C50.2969,18 52.7969,10.2031 52.7969,3.5 C52.7969,-4.79688 50.6094,-11.7031 46.5,-16.5938 C41.7969,-22.2031 34.7031,-25.0938 25.4063,-25.0938 M56.7969,-12.4063 C56.7969,-9.59375 59,-7.40625 61.6094,-7.40625 C64.2031,-7.40625 66.4063,-9.59375 66.4063,-12.4063 C66.4063,-15.2031 64.2031,-17.5 61.6094,-17.5 C59,-17.5 56.7969,-15.2031 56.7969,-12.4063 M56.7969,12.2969 C56.7969,15.0938 59,17.4063 61.6094,17.4063 C64.2031,17.4063 66.4063,15.0938 66.4063,12.2969 C66.4063,9.5 64.2031,7.20313 61.6094,7.20313 C59,7.20313 56.7969,9.5 56.7969,12.2969"/>
<path class="Clef" transform="matrix(2.336,0,0,2.336,117.586,1687.6)" d="M25.4063,-25.0938 C17.7969,-25.0938 11.7031,-20.7031 11.5938,-20.7031 C5.79688,-16.4063 3.5,-11.2969 2.59375,-7.79688 C2.09375,-6 1.90625,-4.20313 1.90625,-2.5 C1.90625,-0.09375 2.29688,2.09375 3.20313,4 C4.40625,6.70313 6.70313,8.59375 9.70313,9.59375 C10.9063,10 12.2031,10.2031 13.5,10.2031 C15.7031,10.2031 18,9.59375 19.9063,8.5 C23,6.79688 24.9063,3.20313 24.9063,-0.703125 C24.9063,-4.20313 23.0938,-7.40625 20.0938,-9.29688 C18,-10.7031 16,-11.0938 14.2969,-11.0938 C13.0938,-11.0938 12,-10.9063 11.0938,-10.5938 C10.0938,-10.2031 8.40625,-9.20313 7.59375,-8.5 C7.90625,-10.4063 9.09375,-13.2969 10.2031,-14.9063 C11.2969,-16.5 13.5,-18.5 15.2031,-19.4063 C17.7031,-20.7969 20.9063,-21.4063 24.4063,-21.4063 C34.6094,-21.4063 39.6094,-13.2031 39.6094,3.59375 C39.6094,12.9063 36.1094,21.7969 33.1094,27.7031 C29.7969,34.2969 25.4063,40.6094 21.5,44.1094 C11.0938,53.6094 1.29688,58.1094 1.20313,58.1094 C1.20313,58.1094 -0.296875,59 0.09375,60.5 C0.40625,61.5 1.29688,61.7031 1.90625,61.7031 C2,61.7031 2.29688,61.6094 2.40625,61.6094 C2.5,61.6094 13.9063,56.9063 23,49.7969 C28.1094,46.1094 32.7031,42.1094 36.7031,37.7969 C40.2969,33.9063 43.4063,29.7031 45.9063,25.5 C50.2969,18 52.7969,10.2031 52.7969,3.5 C52.7969,-4.79688 50.6094,-11.7031 46.5,-16.5938 C41.7969,-22.2031 34.7031,-25.0938 25.4063,-25.0938 M56.7969,-12.4063 C56.7969,-9.59375 59,-7.40625 61.6094,-7.40625 C64.2031,-7.40625 66.4063,-9.59375 66.4063,-12.4063 C66.4063,-15.2031 64.2031,-17.5 61.6094,-17.5 C59,-17.5 56.7969,-15.2031 56.7969,-12.4063 M56.7969,12.2969 C56.7969,15.0938 59,17.4063 61.6094,17.4063 C64.2031,17.4063 66.4063,15.0938 66.4063,12.2969 C66.4063,9.5 64.2031,7.20313 61.6094,7.20313 C59,7.20313 56.7969,9.5 56.7969,12.2969"/>
<path class="KeySig" transform="matrix(2.336,0,0,2.336,389.492,607.205)" d="M20.0938,-7.90625 C19.5,-11.7969 17.0938,-15.5 12,-15.5 C7,-15.5 4.09375,-12.4063 3.59375,-11.7969 L4,-43.9063 C4,-44.7031 3.40625,-45.2969 2.59375,-45.2969 L1.40625,-45.2969 C0.59375,-45.2969 0,-44.7031 0,-43.9063 L0.5,16.2031 C0.5,17 1.09375,17.5938 1.90625,17.5938 C2.09375,17.5938 2.5,17.5 2.70313,17.4063 C3.09375,17.2031 9.59375,14 15,7.90625 C18.7969,3.59375 20.2969,-1.29688 20.2969,-5.40625 C20.2969,-6.29688 20.2031,-7.09375 20.0938,-7.90625 M13.2031,-4 C13.2031,-2.5 12.7969,2.09375 10.2969,5.90625 C8.59375,8.5 5.20313,11.2031 3.29688,12.7031 L3.59375,-6.79688 C3.79688,-7.70313 5.29688,-10.5938 9.29688,-10.5938 C12.9063,-10.5938 13.2031,-7.20313 13.2031,-5.09375 L13.2031,-4 "/>
<path class="KeySig" transform="matrix(2.336,0,0,2.336,331.092,694.805)" d="M20.0938,-7.90625 C19.5,-11.7969 17.0938,-15.5 12,-15.5 C7,-15.5 4.09375,-12.4063 3.59375,-11.7969 L4,-43.9063 C4,-44.7031 3.40625,-45.2969 2.59375,-45.2969 L1.40625,-45.2969 C0.59375,-45.2969 0,-44.7031 0,-43.9063 L0.5,16.2031 C0.5,17 1.09375,17.5938 1.90625,17.5938 C2.09375,17.5938 2.5,17.5 2.70313,17.4063 C3.09375,17.2031 9.59375,14 15,7.90625 C18.7969,3.59375 20.2969,-1.29688 20.2969,-5.40625 C20.2969,-6.29688 20.2031,-7.09375 20.0938,-7.90625 M13.2031,-4 C13.2031,-2.5 12.7969,2.09375 10.2969,5.90625 C8.59375,8.5 5.20313,11.2031 3.29688,12.7031 L3.59375,-6.79688 C3.79688,-7.70313 5.29688,-10.5938 9.29688,-10.5938 C12.9063,-10.5938 13.2031,-7.20313 13.2031,-5.09375 L13.2031,-4 "/>
<path class="KeySig" transform="matrix(2.336,0,0,2.336,389.492,1716.8)" d="M20.0938,-7.90625 C19.5,-11.7969 17.0938,-15.5 12,-15.5 C7,-15.5 4.09375,-12.4063 3.59375,-11.7969 L4,-43.9063 C4,-44.7031 3.40625,-45.2969 2.59375,-45.2969 L1.40625,-45.2969 C0.59375,-45.2969 0,-44.7031 0,-43.9063 L0.5,16.2031 C0.5,17 1.09375,17.5938 1.90625,17.5938 C2.09375,17.5938 2.5,17.5 2.70313,17.4063 C3.09375,17.2031 9.59375,14 15,7.90625 C18.7969,3.59375 20.2969,-1.29688 20.2969,-5.40625 C20.2969,-6.29688 20.2031,-7.09375 20.0938,-7.90625 M13.2031,-4 C13.2031,-2.5 12.7969,2.09375 10.2969,5.90625 C8.59375,8.5 5.20313,11.2031 3.29688,12.7031 L3.59375,-6.79688 C3.79688,-7.70313 5.29688,-10.5938 9.29688,-10.5938 C12.9063,-10.5938 13.2031,-7.20313 13.2031,-5.09375 L13.2031,-4 "/>
<path class="KeySig" transform="matrix(2.336,0,0,2.336,331.092,1804.4)" d="M20.0938,-7.90625 C19.5,-11.7969 17.0938,-15.5 12,-15.5 C7,-15.5 4.09375,-12.4063 3.59375,-11.7969 L4,-43.9063 C4,-44.7031 3.40625,-45.2969 2.59375,-45.2969 L1.40625,-45.2969 C0.59375,-45.2969 0,-44.7031 0,-43.9063 L0.5,16.2031 C0.5,17 1.09375,17.5938 1.90625,17.5938 C2.09375,17.5938 2.5,17.5 2.70313,17.4063 C3.09375,17.2031 9.59375,14 15,7.90625 C18.7969,3.59375 20.2969,-1.29688 20.2969,-5.40625 C20.2969,-6.29688 20.2031,-7.09375 20.0938,-7.90625 M13.2031,-4 C13.2031,-2.5 12.7969,2.09375 10.2969,5.90625 C8.59375,8.5 5.20313,11.2031 3.29688,12.7031 L3.59375,-6.79688 C3.79688,-7.70313 5.29688,-10.5938 9.29688,-10.5938 C12.9063,-10.5938 13.2031,-7.20313 13.2031,-5.09375 L13.2031,-4 "/>
<path class="TimeSig" transform="matrix(2.336,0,0,2.336,499.795,579.173)" d="M34.2031,3.90625 C33.4063,6.09375 31.4063,13.2969 26.5,13.2969 C20,13.2969 18.5938,9.29688 13.2031,9.29688 C12.4063,9.29688 11.5938,9.40625 10.5938,9.59375 C10.5938,9.59375 13.0938,5.79688 23.7031,2.5 C34.2969,-0.796875 37,-6 37,-12 C37,-16.2031 35.1094,-24.5 20,-24.5 C4.90625,-24.5 2.09375,-15.4063 2.09375,-10.7969 C2.09375,-6.70313 5.5,-3.40625 9.59375,-3.40625 C13.7031,-3.40625 17,-6.70313 17,-10.7969 C17,-13.5938 15,-16.7031 12.4063,-17.7031 C12.0938,-17.7969 11.7031,-18.2969 11.7031,-18.7969 C11.7031,-19.4063 12.2031,-20.0938 14,-20.5938 C14.5,-20.7969 15.9063,-21.0938 17.4063,-21.0938 C18.7969,-21.0938 20.4063,-20.7969 21.5938,-20 C23.5,-18.7969 24.2031,-17 24.2031,-12.5 C24.2031,-0.796875 10.2969,1.70313 4.5,10.4063 C4.5,10.4063 1.5,14.5938 1.5,19.2969 C1.5,24 3.90625,24.2969 5.09375,24.2969 C6.70313,24.2969 8.40625,23 8.40625,21.2031 C8.40625,20.7969 8.29688,20.4063 8.09375,19.9063 C7.5,18.5 7.29688,17.4063 7.29688,16.5938 C7.29688,16.2969 7.29688,16 7.40625,15.7031 C7.5,15.0938 8.29688,14.0938 10.7031,14.0938 C13.5938,14.0938 14.7031,17.5 16.5,20.0938 C18.2969,22.7031 21.0938,24.2969 24.2969,24.2969 C27.5,24.2969 31.7969,22 33.6094,18.2969 C35.4063,14.5938 37.7031,7.09375 37.7031,4.40625 C37.7031,3.09375 36.9063,2.5 36,2.5 C35.2969,2.5 34.6094,2.90625 34.2031,3.90625"/>
<path class="TimeSig" transform="matrix(2.336,0,0,2.336,492.094,694.495)" d="M3.59375,12.625 L20.7656,12.625 L20.7656,20.0781 L12.5469,20.0781 C11.7656,20.0781 11.125,20.7031 11.125,21.4844 L11.125,23.3906 C11.125,24.1719 11.7656,24.7969 12.5469,24.7969 L42.7969,24.7969 C43.5781,24.7969 44.2031,24.1719 44.2031,23.3906 L44.2031,21.4844 C44.2031,20.7031 43.5781,20.0781 42.7969,20.0781 L33.8594,20.0781 L33.8594,12.625 L42.7969,12.625 C43.5781,12.625 44.2031,12 44.2031,11.2188 L44.2031,9.3125 C44.2031,8.53125 43.5781,7.90625 42.7969,7.90625 L33.8594,7.90625 L33.8594,-8.0625 C33.8594,-8.59375 33.5469,-9.07813 33.0781,-9.3125 L31.8594,-9.92188 C31.3281,-10.1719 30.7031,-10.0781 30.2656,-9.6875 L21.2188,-1.375 C20.9375,-1.09375 20.7656,-0.734375 20.7656,-0.328125 L20.7656,7.90625 L9.25,7.90625 C9.25,7.90625 20.375,-4.125 32.2188,-19.8906 C33.0781,-21.0469 32.5781,-22.0938 32.3906,-22.2813 L30.2188,-24.4844 C29.9531,-24.75 29.5938,-24.9063 29.2188,-24.9063 C28.625,-24.9063 15.0625,-24.875 14.3438,-24.9063 C13.625,-24.9219 13.0938,-24.2969 13.0156,-23.6875 C13.0156,-23.6875 12.4844,-16.3281 9.875,-8.1875 C7.28125,-0.078125 4.34375,4.90625 1.6875,8.53125 C1.6875,8.53125 1.14063,9.51563 1.5,10.2656 C1.84375,11.0156 2.48438,12.0938 2.48438,12.0938 C2.48438,12.0938 2.73438,12.625 3.59375,12.625"/>
<path class="Rest" transform="matrix(2.336,0,0,2.336,712.134,636.405)" d="M26.7344,-20.2656 C25.9844,-20.5469 25.3125,-20.2031 24.9844,-19.5938 C24.6563,-18.9844 21.4688,-13.0625 17.0469,-9.79688 C15.6563,-8.78125 14.0625,-8.14063 12.5,-7.8125 C13.625,-9.0625 14.2969,-10.7344 14.2969,-12.5469 C14.2969,-16.5 11.0938,-19.7031 7.15625,-19.7031 C3.20313,-19.7031 0,-16.5 0,-12.5469 C0,-9.54688 1.875,-6.95313 4.51563,-5.90625 C6.04688,-5.1875 7.95313,-4.73438 10,-4.73438 C12.8438,-4.73438 15.9531,-5.5625 18.6719,-7.5625 C19.9375,-8.48438 21.125,-9.6875 22.2031,-10.9375 L10.8125,24.6875 L13.4531,25.5469 L27.5313,-18.5469 C27.7656,-19.2813 27.4688,-19.9688 26.7344,-20.2656"/>
<path class="Rest" transform="matrix(2.336,0,0,2.336,1336.55,1746)" d="M26.7344,-20.2656 C25.9844,-20.5469 25.3125,-20.2031 24.9844,-19.5938 C24.6563,-18.9844 21.4688,-13.0625 17.0469,-9.79688 C15.6563,-8.78125 14.0625,-8.14063 12.5,-7.8125 C13.625,-9.0625 14.2969,-10.7344 14.2969,-12.5469 C14.2969,-16.5 11.0938,-19.7031 7.15625,-19.7031 C3.20313,-19.7031 0,-16.5 0,-12.5469 C0,-9.54688 1.875,-6.95313 4.51563,-5.90625 C6.04688,-5.1875 7.95313,-4.73438 10,-4.73438 C12.8438,-4.73438 15.9531,-5.5625 18.6719,-7.5625 C19.9375,-8.48438 21.125,-9.6875 22.2031,-10.9375 L10.8125,24.6875 L13.4531,25.5469 L27.5313,-18.5469 C27.7656,-19.2813 27.4688,-19.9688 26.7344,-20.2656"/>
<path class="Beam" fill-rule="evenodd" d="M2597.31,736.376 L2705.6,798.459 L2705.6,832.117 L2597.31,770.034 L2597.31,736.376 "/>
<path class="Beam" fill-rule="evenodd" d="M2618.35,1731.31 L2753.24,1715.98 L2753.24,1745.37 L2618.35,1760.7 L2618.35,1731.31 "/>
<path class="Beam" fill-rule="evenodd" d="M3017.19,1716.71 L3152.07,1732.04 L3152.07,1761.43 L3017.19,1746.1 L3017.19,1716.71 "/>
<path class="Beam" fill-rule="evenodd" d="M3272.32,1775.11 L3405.42,1790.45 L3405.42,1819.84 L3272.32,1804.5 L3272.32,1775.11 "/>
<path class="Beam" fill-rule="evenodd" d="M3803.89,1716.28 L3918.33,1747.22 L3918.33,1777.46 L3803.89,1746.53 L3803.89,1716.28 "/>
<path class="Hook" transform="matrix(2.336,0,0,2.336,1053.22,344.405)" d="M3.5,3.5 C3.40625,3.20313 2.5,-0.296875 2.5,-0.5 C2.40625,-0.90625 1.79688,-1.20313 1.29688,-1.20313 C0.59375,-1.20313 0,-0.59375 0,0.09375 L0,16.5 L0,22.7031 C0,23.2031 0.40625,23.5938 0.796875,23.7969 C5,25.0938 13.7031,30.6094 20.2031,41.7031 C22,44.7969 24.9063,49 24.9063,57.4063 C24.9063,64.6094 23.7969,72.2031 22,79.2031 C21.7031,80.3125 21.4063,81.3125 22.5,81.7031 C23.5938,82.1094 24,81.3125 24.4063,80.3125 C28,71.5 28.9063,62.2969 28.9063,56.1094 L28.9063,54.2031 C28.4063,41.2969 21,31.7969 21,31.7969 C21.2969,31.7969 11.7969,19.5 9.09375,15.2969 C5.40625,9.59375 3.59375,3.90625 3.5,3.5"/>
<path class="Hook" transform="matrix(2.336,0,0,2.336,1635.85,453.905)" d="M3.5,3.5 C3.40625,3.20313 2.5,-0.296875 2.5,-0.5 C2.40625,-0.90625 1.79688,-1.20313 1.29688,-1.20313 C0.59375,-1.20313 0,-0.59375 0,0.09375 L0,16.5 L0,22.7031 C0,23.2031 0.40625,23.5938 0.796875,23.7969 C5,25.0938 13.7031,30.6094 20.2031,41.7031 C22,44.7969 24.9063,49 24.9063,57.4063 C24.9063,64.6094 23.7969,72.2031 22,79.2031 C21.7031,80.3125 21.4063,81.3125 22.5,81.7031 C23.5938,82.1094 24,81.3125 24.4063,80.3125 C28,71.5 28.9063,62.2969 28.9063,56.1094 L28.9063,54.2031 C28.4063,41.2969 21,31.7969 21,31.7969 C21.2969,31.7969 11.7969,19.5 9.09375,15.2969 C5.40625,9.59375 3.59375,3.90625 3.5,3.5"/>
<path class="Hook" transform="matrix(2.336,0,0,2.336,2186.35,453.905)" d="M3.5,3.5 C3.40625,3.20313 2.5,-0.296875 2.5,-0.5 C2.40625,-0.90625 1.79688,-1.20313 1.29688,-1.20313 C0.59375,-1.20313 0,-0.59375 0,0.09375 L0,16.5 L0,22.7031 C0,23.2031 0.40625,23.5938 0.796875,23.7969 C5,25.0938 13.7031,30.6094 20.2031,41.7031 C22,44.7969 24.9063,49 24.9063,57.4063 C24.9063,64.6094 23.7969,72.2031 22,79.2031 C21.7031,80.3125 21.4063,81.3125 22.5,81.7031 C23.5938,82.1094 24,81.3125 24.4063,80.3125 C28,71.5 28.9063,62.2969 28.9063,56.1094 L28.9063,54.2031 C28.4063,41.2969 21,31.7969 21,31.7969 C21.2969,31.7969 11.7969,19.5 9.09375,15.2969 C5.40625,9.59375 3.59375,3.90625 3.5,3.5"/>
<path class="Hook" transform="matrix(2.336,0,0,2.336,3415.06,475.805)" d="M3.5,3.5 C3.40625,3.20313 2.5,-0.296875 2.5,-0.5 C2.40625,-0.90625 1.79688,-1.20313 1.29688,-1.20313 C0.59375,-1.20313 0,-0.59375 0,0.09375 L0,16.5 L0,22.7031 C0,23.2031 0.40625,23.5938 0.796875,23.7969 C5,25.0938 13.7031,30.6094 20.2031,41.7031 C22,44.7969 24.9063,49 24.9063,57.4063 C24.9063,64.6094 23.7969,72.2031 22,79.2031 C21.7031,80.3125 21.4063,81.3125 22.5,81.7031 C23.5938,82.1094 24,81.3125 24.4063,80.3125 C28,71.5 28.9063,62.2969 28.9063,56.1094 L28.9063,54.2031 C28.4063,41.2969 21,31.7969 21,31.7969 C21.2969,31.7969 11.7969,19.5 9.09375,15.2969 C5.40625,9.59375 3.59375,3.90625 3.5,3.5"/>
<path class="Hook" transform="matrix(2.336,0,0,2.336,3965.56,315.205)" d="M3.5,3.5 C3.40625,3.20313 2.5,-0.296875 2.5,-0.5 C2.40625,-0.90625 1.79688,-1.20313 1.29688,-1.20313 C0.59375,-1.20313 0,-0.59375 0,0.09375 L0,16.5 L0,22.7031 C0,23.2031 0.40625,23.5938 0.796875,23.7969 C5,25.0938 13.7031,30.6094 20.2031,41.7031 C22,44.7969 24.9063,49 24.9063,57.4063 C24.9063,64.6094 23.7969,72.2031 22,79.2031 C21.7031,80.3125 21.4063,81.3125 22.5,81.7031 C23.5938,82.1094 24,81.3125 24.4063,80.3125 C28,71.5 28.9063,62.2969 28.9063,56.1094 L28.9063,54.2031 C28.4063,41.2969 21,31.7969 21,31.7969 C21.2969,31.7969 11.7969,19.5 9.09375,15.2969 C5.40625,9.59375 3.59375,3.90625 3.5,3.5"/>
<path class="Hook" transform="matrix(2.336,0,0,2.336,652.383,1424.8)" d="M3.5,3.5 C3.40625,3.20313 2.5,-0.296875 2.5,-0.5 C2.40625,-0.90625 1.79688,-1.20313 1.29688,-1.20313 C0.59375,-1.20313 0,-0.59375 0,0.09375 L0,16.5 L0,22.7031 C0,23.2031 0.40625,23.5938 0.796875,23.7969 C5,25.0938 13.7031,30.6094 20.2031,41.7031 C22,44.7969 24.9063,49 24.9063,57.4063 C24.9063,64.6094 23.7969,72.2031 22,79.2031 C21.7031,80.3125 21.4063,81.3125 22.5,81.7031 C23.5938,82.1094 24,81.3125 24.4063,80.3125 C28,71.5 28.9063,62.2969 28.9063,56.1094 L28.9063,54.2031 C28.4063,41.2969 21,31.7969 21,31.7969 C21.2969,31.7969 11.7969,19.5 9.09375,15.2969 C5.40625,9.59375 3.59375,3.90625 3.5,3.5"/>
<path class="Hook" transform="matrix(2.336,0,0,2.336,951.406,1424.8)" d="M3.5,3.5 C3.40625,3.20313 2.5,-0.296875 2.5,-0.5 C2.40625,-0.90625 1.79688,-1.20313 1.29688,-1.20313 C0.59375,-1.20313 0,-0.59375 0,0.09375 L0,16.5 L0,22.7031 C0,23.2031 0.40625,23.5938 0.796875,23.7969 C5,25.0938 13.7031,30.6094 20.2031,41.7031 C22,44.7969 24.9063,49 24.9063,57.4063 C24.9063,64.6094 23.7969,72.2031 22,79.2031 C21.7031,80.3125 21.4063,81.3125 22.5,81.7031 C23.5938,82.1094 24,81.3125 24.4063,80.3125 C28,71.5 28.9063,62.2969 28.9063,56.1094 L28.9063,54.2031 C28.4063,41.2969 21,31.7969 21,31.7969 C21.2969,31.7969 11.7969,19.5 9.09375,15.2969 C5.40625,9.59375 3.59375,3.90625 3.5,3.5"/>
<path class="Hook" transform="matrix(2.336,0,0,2.336,1493.61,1454)" d="M3.5,3.5 C3.40625,3.20313 2.5,-0.296875 2.5,-0.5 C2.40625,-0.90625 1.79688,-1.20313 1.29688,-1.20313 C0.59375,-1.20313 0,-0.59375 0,0.09375 L0,16.5 L0,22.7031 C0,23.2031 0.40625,23.5938 0.796875,23.7969 C5,25.0938 13.7031,30.6094 20.2031,41.7031 C22,44.7969 24.9063,49 24.9063,57.4063 C24.9063,64.6094 23.7969,72.2031 22,79.2031 C21.7031,80.3125 21.4063,81.3125 22.5,81.7031 C23.5938,82.1094 24,81.3125 24.4063,80.3125 C28,71.5 28.9063,62.2969 28.9063,56.1094 L28.9063,54.2031 C28.4063,41.2969 21,31.7969 21,31.7969 C21.2969,31.7969 11.7969,19.5 9.09375,15.2969 C5.40625,9.59375 3.59375,3.90625 3.5,3.5"/>
<path class="Hook" transform="matrix(2.336,0,0,2.336,1811.05,1454)" d="M3.5,3.5 C3.40625,3.20313 2.5,-0.296875 2.5,-0.5 C2.40625,-0.90625 1.79688,-1.20313 1.29688,-1.20313 C0.59375,-1.20313 0,-0.59375 0,0.09375 L0,16.5 L0,22.7031 C0,23.2031 0.40625,23.5938 0.796875,23.7969 C5,25.0938 13.7031,30.6094 20.2031,41.7031 C22,44.7969 24.9063,49 24.9063,57.4063 C24.9063,64.6094 23.7969,72.2031 22,79.2031 C21.7031,80.3125 21.4063,81.3125 22.5,81.7031 C23.5938,82.1094 24,81.3125 24.4063,80.3125 C28,71.5 28.9063,62.2969 28.9063,56.1094 L28.9063,54.2031 C28.4063,41.2969 21,31.7969 21,31.7969 C21.2969,31.7969 11.7969,19.5 9.09375,15.2969 C5.40625,9.59375 3.59375,3.90625 3.5,3.5"/>
<path class="Hook" transform="matrix(2.336,0,0,2.336,2170.46,1395.6)" d="M3.5,3.5 C3.40625,3.20313 2.5,-0.296875 2.5,-0.5 C2.40625,-0.90625 1.79688,-1.20313 1.29688,-1.20313 C0.59375,-1.20313 0,-0.59375 0,0.09375 L0,16.5 L0,22.7031 C0,23.2031 0.40625,23.5938 0.796875,23.7969 C5,25.0938 13.7031,30.6094 20.2031,41.7031 C22,44.7969 24.9063,49 24.9063,57.4063 C24.9063,64.6094 23.7969,72.2031 22,79.2031 C21.7031,80.3125 21.4063,81.3125 22.5,81.7031 C23.5938,82.1094 24,81.3125 24.4063,80.3125 C28,71.5 28.9063,62.2969 28.9063,56.1094 L28.9063,54.2031 C28.4063,41.2969 21,31.7969 21,31.7969 C21.2969,31.7969 11.7969,19.5 9.09375,15.2969 C5.40625,9.59375 3.59375,3.90625 3.5,3.5"/>
<path class="Jump" d="M3957.2,1528.23 L4000.54,1528.23 C4012.03,1528.23 4020.81,1526.42 4027.64,1522.56 C4040.67,1515.2 4047.89,1500.5 4047.89,1481.16 C4047.89,1463.34 4041.43,1449.42 4029.58,1441.67 C4022.48,1437.16 4012.93,1435.09 3998.23,1435.09 L3957.2,1435.09 L3957.2,1441.16 L3959.65,1441.16 C3966.89,1441.3 3969.33,1441.67 3970.37,1442.97 C3971.14,1444.12 3971.14,1444.39 3971.14,1450.97 L3971.14,1512.37 C3971.14,1518.95 3971.14,1519.2 3970.37,1520.36 C3969.33,1521.66 3966.89,1522.05 3959.65,1522.17 L3957.2,1522.17 L3957.2,1528.23 M3992.93,1522.17 C3986.36,1522.17 3985.59,1521.39 3985.59,1515.08 L3985.59,1448.39 C3985.59,1442.06 3986.5,1441.16 3992.93,1441.16 L3999.65,1441.16 C4021.7,1441.16 4030.87,1453.16 4030.87,1481.67 C4030.87,1510.56 4022.61,1522.17 4001.72,1522.17 L3992.93,1522.17 M4071.5,1513.92 C4066.98,1513.92 4063.37,1517.53 4063.37,1521.91 C4063.37,1526.42 4066.98,1530.05 4071.37,1530.05 C4075.89,1530.05 4079.5,1526.42 4079.5,1521.91 C4079.5,1517.53 4075.89,1513.92 4071.5,1513.92 M4172.11,1434.19 L4167.22,1434.19 L4162.06,1441.81 C4152.64,1434.97 4147.86,1433.16 4138.97,1433.16 C4126.7,1433.16 4116.26,1438.33 4107.62,1448.64 C4099.36,1458.45 4095.5,1469.28 4095.5,1482.56 C4095.5,1510.44 4113.68,1530.17 4139.09,1530.17 C4159.73,1530.17 4172.89,1518.05 4175.86,1496.37 L4169.79,1495.34 C4166.31,1514.56 4156.51,1524.11 4140.64,1524.11 C4121.54,1524.11 4112.51,1510.95 4112.51,1483.08 C4112.51,1468.37 4114.45,1458.7 4118.84,1450.97 C4122.84,1443.73 4130.7,1439.22 4139.09,1439.22 C4148.12,1439.22 4156.12,1444 4161.01,1452.25 C4163.47,1456.52 4165.28,1461.28 4168.37,1471.47 L4174.04,1471.47 L4172.11,1434.19 M4199.84,1513.92 C4195.33,1513.92 4191.72,1517.53 4191.72,1521.91 C4191.72,1526.42 4195.33,1530.05 4199.72,1530.05 C4204.23,1530.05 4207.84,1526.42 4207.84,1521.91 C4207.84,1517.53 4204.23,1513.92 4199.84,1513.92"/>
<path class="Fingering" d="M855.191,71.0535 C837.128,71.0535 823.972,90.6629 823.972,117.741 C823.972,144.319 836.737,163.803 854.159,163.803 C872.206,163.803 884.862,144.96 884.862,118.132 C884.862,104.46 882.019,93.116 876.597,84.2097 C871.566,76.0847 863.316,71.0535 855.191,71.0535 M854.284,76.6004 C858.534,76.6004 862.675,79.4441 865.769,84.6004 C869.253,90.6629 870.409,98.0066 870.409,115.678 C870.409,133.866 869.503,142.382 866.925,148.069 C863.956,154.382 859.316,158.257 854.409,158.257 C850.019,158.257 846.019,155.413 842.925,150.257 C839.316,144.194 838.284,136.194 838.284,115.038 C838.284,99.9441 839.191,92.4597 841.769,86.7879 C844.737,80.3347 849.378,76.6004 854.284,76.6004"/>
<path class="Fingering" d="M1051.83,186.064 L1046.16,186.064 L1044.87,192.642 C1043.19,201.017 1042.16,201.798 1034.16,201.798 L1005.27,201.798 C1014.16,192.517 1017.13,189.798 1025.4,183.345 C1037.13,174.314 1042.16,169.798 1045.13,165.939 C1049.26,160.267 1051.32,154.579 1051.32,148.267 C1051.32,133.564 1039.19,123.11 1022.3,123.11 C1005.91,123.11 993.397,133.564 993.397,147.36 C993.397,155.485 997.522,161.032 1003.6,161.032 C1008.37,161.032 1011.58,157.814 1011.58,153.157 C1011.58,149.939 1009.79,146.97 1007.07,145.814 C1002.3,143.876 1002.04,143.626 1002.04,141.939 C1002.04,140.001 1003.33,137.048 1005.15,134.845 C1008.37,130.845 1013.65,128.657 1019.73,128.657 C1030.43,128.657 1036.74,135.235 1036.74,146.064 C1036.74,155.61 1032.23,164.251 1021.52,175.61 C1011.98,185.673 1006.04,192.001 1003.85,194.439 C999.21,199.86 996.882,202.829 991.21,210.314 L991.21,213.923 L1049.38,213.923 L1051.83,186.064 "/>
<path class="Fingering" d="M1337.79,194.025 C1333.41,199.306 1321.54,203.306 1309.68,203.572 L1309.68,209.119 L1321.02,209.119 C1328.5,209.244 1329.29,210.025 1329.02,217.244 L1329.02,268.978 C1329.02,275.556 1329.02,275.806 1328.24,276.962 C1327.21,278.259 1324.77,278.775 1317.54,278.775 L1309.16,278.775 L1309.16,284.837 L1360.24,284.837 L1360.24,278.775 L1353.15,278.775 C1345.93,278.775 1343.47,278.259 1342.44,276.962 C1341.54,275.806 1341.54,275.681 1341.54,268.978 L1341.54,215.697 C1341.54,208.478 1341.79,202.416 1342.44,194.025 L1337.79,194.025 M1433.11,256.978 L1427.44,256.978 L1426.15,263.556 C1424.47,271.931 1423.44,272.712 1415.44,272.712 L1386.55,272.712 C1395.44,263.431 1398.41,260.712 1406.68,254.259 C1418.41,245.228 1423.44,240.712 1426.41,236.853 C1430.54,231.181 1432.6,225.494 1432.6,219.181 C1432.6,204.478 1420.47,194.025 1403.58,194.025 C1387.19,194.025 1374.68,204.478 1374.68,218.275 C1374.68,226.4 1378.8,231.947 1384.88,231.947 C1389.65,231.947 1392.86,228.728 1392.86,224.072 C1392.86,220.853 1391.07,217.884 1388.35,216.728 C1383.58,214.791 1383.32,214.541 1383.32,212.853 C1383.32,210.916 1384.61,207.962 1386.43,205.759 C1389.65,201.759 1394.93,199.572 1401,199.572 C1411.71,199.572 1418.02,206.15 1418.02,216.978 C1418.02,226.525 1413.5,235.166 1402.8,246.525 C1393.25,256.587 1387.32,262.916 1385.13,265.353 C1380.49,270.775 1378.16,273.744 1372.49,281.228 L1372.49,284.837 L1430.66,284.837 L1433.11,256.978 "/>
<path class="Fingering" d="M1570.85,299.478 C1566.48,304.759 1554.6,308.759 1542.74,309.025 L1542.74,314.572 L1554.09,314.572 C1561.57,314.697 1562.35,315.478 1562.09,322.697 L1562.09,374.431 C1562.09,381.009 1562.09,381.259 1561.3,382.416 C1560.27,383.713 1557.84,384.228 1550.6,384.228 L1542.23,384.228 L1542.23,390.291 L1593.3,390.291 L1593.3,384.228 L1586.21,384.228 C1578.99,384.228 1576.54,383.713 1575.51,382.416 C1574.6,381.259 1574.6,381.134 1574.6,374.431 L1574.6,321.15 C1574.6,313.931 1574.85,307.869 1575.51,299.478 L1570.85,299.478 M1666.18,362.431 L1660.51,362.431 L1659.21,369.009 C1657.54,377.384 1656.51,378.166 1648.51,378.166 L1619.62,378.166 C1628.51,368.884 1631.48,366.166 1639.74,359.713 C1651.48,350.681 1656.51,346.166 1659.48,342.306 C1663.6,336.634 1665.66,330.947 1665.66,324.634 C1665.66,309.931 1653.54,299.478 1636.65,299.478 C1620.26,299.478 1607.74,309.931 1607.74,323.728 C1607.74,331.853 1611.87,337.4 1617.95,337.4 C1622.71,337.4 1625.93,334.181 1625.93,329.525 C1625.93,326.306 1624.13,323.338 1621.41,322.181 C1616.65,320.244 1616.38,319.994 1616.38,318.306 C1616.38,316.369 1617.68,313.416 1619.49,311.213 C1622.71,307.213 1627.99,305.025 1634.07,305.025 C1644.77,305.025 1651.09,311.603 1651.09,322.431 C1651.09,331.978 1646.57,340.619 1635.87,351.978 C1626.32,362.041 1620.38,368.369 1618.2,370.806 C1613.55,376.228 1611.23,379.197 1605.55,386.681 L1605.55,390.291 L1663.73,390.291 L1666.18,362.431 "/>
<path class="Fingering" d="M2121.36,299.478 C2116.98,304.759 2105.11,308.759 2093.25,309.025 L2093.25,314.572 L2104.59,314.572 C2112.08,314.697 2112.86,315.478 2112.59,322.697 L2112.59,374.431 C2112.59,381.009 2112.59,381.259 2111.81,382.416 C2110.78,383.713 2108.34,384.228 2101.11,384.228 L2092.73,384.228 L2092.73,390.291 L2143.81,390.291 L2143.81,384.228 L2136.72,384.228 C2129.5,384.228 2127.04,383.713 2126.01,382.416 C2125.11,381.259 2125.11,381.134 2125.11,374.431 L2125.11,321.15 C2125.11,313.931 2125.36,307.869 2126.01,299.478 L2121.36,299.478 M2216.69,362.431 L2211.01,362.431 L2209.72,369.009 C2208.04,377.384 2207.01,378.166 2199.01,378.166 L2170.12,378.166 C2179.01,368.884 2181.98,366.166 2190.25,359.713 C2201.98,350.681 2207.01,346.166 2209.98,342.306 C2214.11,336.634 2216.17,330.947 2216.17,324.634 C2216.17,309.931 2204.04,299.478 2187.15,299.478 C2170.76,299.478 2158.25,309.931 2158.25,323.728 C2158.25,331.853 2162.37,337.4 2168.45,337.4 C2173.22,337.4 2176.44,334.181 2176.44,329.525 C2176.44,326.306 2174.64,323.338 2171.92,322.181 C2167.15,320.244 2166.89,319.994 2166.89,318.306 C2166.89,316.369 2168.19,313.416 2170,311.213 C2173.22,307.213 2178.5,305.025 2184.58,305.025 C2195.28,305.025 2201.59,311.603 2201.59,322.431 C2201.59,331.978 2197.08,340.619 2186.37,351.978 C2176.83,362.041 2170.89,368.369 2168.7,370.806 C2164.06,376.228 2161.73,379.197 2156.06,386.681 L2156.06,390.291 L2214.23,390.291 L2216.69,362.431 "/>
<path class="Fingering" d="M2438.8,194.025 C2434.42,199.306 2422.55,203.306 2410.69,203.572 L2410.69,209.119 L2422.03,209.119 C2429.52,209.244 2430.3,210.025 2430.03,217.244 L2430.03,268.978 C2430.03,275.556 2430.03,275.806 2429.25,276.962 C2428.22,278.259 2425.78,278.775 2418.55,278.775 L2410.17,278.775 L2410.17,284.837 L2461.25,284.837 L2461.25,278.775 L2454.16,278.775 C2446.94,278.775 2444.48,278.259 2443.45,276.962 C2442.55,275.806 2442.55,275.681 2442.55,268.978 L2442.55,215.697 C2442.55,208.478 2442.8,202.416 2443.45,194.025 L2438.8,194.025 M2534.13,256.978 L2528.45,256.978 L2527.16,263.556 C2525.48,271.931 2524.45,272.712 2516.45,272.712 L2487.56,272.712 C2496.45,263.431 2499.42,260.712 2507.69,254.259 C2519.42,245.228 2524.45,240.712 2527.42,236.853 C2531.55,231.181 2533.61,225.494 2533.61,219.181 C2533.61,204.478 2521.48,194.025 2504.59,194.025 C2488.2,194.025 2475.69,204.478 2475.69,218.275 C2475.69,226.4 2479.81,231.947 2485.89,231.947 C2490.66,231.947 2493.88,228.728 2493.88,224.072 C2493.88,220.853 2492.08,217.884 2489.36,216.728 C2484.59,214.791 2484.33,214.541 2484.33,212.853 C2484.33,210.916 2485.63,207.962 2487.44,205.759 C2490.66,201.759 2495.94,199.572 2502.02,199.572 C2512.72,199.572 2519.03,206.15 2519.03,216.978 C2519.03,226.525 2514.52,235.166 2503.81,246.525 C2494.27,256.587 2488.33,262.916 2486.14,265.353 C2481.5,270.775 2479.17,273.744 2473.5,281.228 L2473.5,284.837 L2531.67,284.837 L2534.13,256.978 "/>
<path class="Fingering" d="M2601.79,194.025 C2597.41,199.306 2585.54,203.306 2573.68,203.572 L2573.68,209.119 L2585.02,209.119 C2592.51,209.244 2593.29,210.025 2593.02,217.244 L2593.02,268.978 C2593.02,275.556 2593.02,275.806 2592.24,276.962 C2591.21,278.259 2588.77,278.775 2581.54,278.775 L2573.16,278.775 L2573.16,284.837 L2624.24,284.837 L2624.24,278.775 L2617.15,278.775 C2609.93,278.775 2607.48,278.259 2606.44,276.962 C2605.54,275.806 2605.54,275.681 2605.54,268.978 L2605.54,215.697 C2605.54,208.478 2605.79,202.416 2606.44,194.025 L2601.79,194.025 M2697.12,256.978 L2691.44,256.978 L2690.15,263.556 C2688.48,271.931 2687.44,272.712 2679.44,272.712 L2650.55,272.712 C2659.44,263.431 2662.41,260.712 2670.68,254.259 C2682.41,245.228 2687.44,240.712 2690.41,236.853 C2694.54,231.181 2696.6,225.494 2696.6,219.181 C2696.6,204.478 2684.48,194.025 2667.58,194.025 C2651.19,194.025 2638.68,204.478 2638.68,218.275 C2638.68,226.4 2642.8,231.947 2648.88,231.947 C2653.65,231.947 2656.87,228.728 2656.87,224.072 C2656.87,220.853 2655.07,217.884 2652.35,216.728 C2647.58,214.791 2647.32,214.541 2647.32,212.853 C2647.32,210.916 2648.62,207.962 2650.43,205.759 C2653.65,201.759 2658.93,199.572 2665.01,199.572 C2675.71,199.572 2682.02,206.15 2682.02,216.978 C2682.02,226.525 2677.51,235.166 2666.8,246.525 C2657.26,256.587 2651.32,262.916 2649.13,265.353 C2644.49,270.775 2642.16,273.744 2636.49,281.228 L2636.49,284.837 L2694.66,284.837 L2697.12,256.978 "/>
<path class="Fingering" d="M2703.66,80.2749 C2699.28,85.5561 2687.41,89.5561 2675.55,89.8218 L2675.55,95.3686 L2686.89,95.3686 C2694.38,95.4936 2695.16,96.2749 2694.89,103.494 L2694.89,155.228 C2694.89,161.806 2694.89,162.056 2694.11,163.212 C2693.08,164.509 2690.64,165.025 2683.41,165.025 L2675.03,165.025 L2675.03,171.087 L2726.11,171.087 L2726.11,165.025 L2719.02,165.025 C2711.8,165.025 2709.34,164.509 2708.31,163.212 C2707.41,162.056 2707.41,161.931 2707.41,155.228 L2707.41,101.947 C2707.41,94.728 2707.66,88.6655 2708.31,80.2749 L2703.66,80.2749 M2798.98,143.228 L2793.31,143.228 L2792.02,149.806 C2790.34,158.181 2789.31,158.962 2781.31,158.962 L2752.42,158.962 C2761.31,149.681 2764.28,146.962 2772.55,140.509 C2784.28,131.478 2789.31,126.962 2792.28,123.103 C2796.41,117.431 2798.47,111.744 2798.47,105.431 C2798.47,90.728 2786.34,80.2749 2769.45,80.2749 C2753.06,80.2749 2740.55,90.728 2740.55,104.525 C2740.55,112.65 2744.67,118.197 2750.75,118.197 C2755.52,118.197 2758.73,114.978 2758.73,110.322 C2758.73,107.103 2756.94,104.134 2754.22,102.978 C2749.45,101.041 2749.19,100.791 2749.19,99.103 C2749.19,97.1655 2750.48,94.2124 2752.3,92.0093 C2755.52,88.0093 2760.8,85.8218 2766.88,85.8218 C2777.58,85.8218 2783.89,92.3999 2783.89,103.228 C2783.89,112.775 2779.38,121.416 2768.67,132.775 C2759.13,142.837 2753.19,149.166 2751,151.603 C2746.36,157.025 2744.03,159.994 2738.36,167.478 L2738.36,171.087 L2796.53,171.087 L2798.98,143.228 "/>
<path class="Fingering" d="M3117,299.478 C3112.62,304.759 3100.75,308.759 3088.89,309.025 L3088.89,314.572 L3100.23,314.572 C3107.71,314.697 3108.5,315.478 3108.23,322.697 L3108.23,374.431 C3108.23,381.009 3108.23,381.259 3107.45,382.416 C3106.42,383.713 3103.98,384.228 3096.75,384.228 L3088.37,384.228 L3088.37,390.291 L3139.45,390.291 L3139.45,384.228 L3132.36,384.228 C3125.14,384.228 3122.68,383.713 3121.65,382.416 C3120.75,381.259 3120.75,381.134 3120.75,374.431 L3120.75,321.15 C3120.75,313.931 3121,307.869 3121.65,299.478 L3117,299.478 M3212.32,362.431 L3206.65,362.431 L3205.36,369.009 C3203.68,377.384 3202.65,378.166 3194.65,378.166 L3165.76,378.166 C3174.65,368.884 3177.62,366.166 3185.89,359.713 C3197.62,350.681 3202.65,346.166 3205.62,342.306 C3209.75,336.634 3211.81,330.947 3211.81,324.634 C3211.81,309.931 3199.68,299.478 3182.79,299.478 C3166.4,299.478 3153.89,309.931 3153.89,323.728 C3153.89,331.853 3158.01,337.4 3164.09,337.4 C3168.86,337.4 3172.07,334.181 3172.07,329.525 C3172.07,326.306 3170.28,323.338 3167.56,322.181 C3162.79,320.244 3162.53,319.994 3162.53,318.306 C3162.53,316.369 3163.82,313.416 3165.64,311.213 C3168.86,307.213 3174.14,305.025 3180.21,305.025 C3190.92,305.025 3197.23,311.603 3197.23,322.431 C3197.23,331.978 3192.71,340.619 3182.01,351.978 C3172.46,362.041 3166.53,368.369 3164.34,370.806 C3159.7,376.228 3157.37,379.197 3151.7,386.681 L3151.7,390.291 L3209.87,390.291 L3212.32,362.431 "/>
<path class="Fingering" d="M3350.56,339.193 C3346.19,344.474 3334.31,348.474 3322.45,348.74 L3322.45,354.286 L3333.8,354.286 C3341.28,354.411 3342.06,355.193 3341.8,362.411 L3341.8,414.146 C3341.8,420.724 3341.8,420.974 3341.02,422.13 C3339.98,423.427 3337.55,423.943 3330.31,423.943 L3321.94,423.943 L3321.94,430.005 L3373.02,430.005 L3373.02,423.943 L3365.92,423.943 C3358.7,423.943 3356.25,423.427 3355.22,422.13 C3354.31,420.974 3354.31,420.849 3354.31,414.146 L3354.31,360.865 C3354.31,353.646 3354.56,347.583 3355.22,339.193 L3350.56,339.193 M3425.39,382.536 C3437.12,378.271 3442.55,371.693 3442.55,361.38 C3442.55,347.833 3432.22,339.193 3416.22,339.193 C3401.12,339.193 3389.66,348.099 3389.66,359.833 C3389.66,365.115 3393.14,368.865 3398.17,368.865 C3402.67,368.865 3405.78,365.771 3405.78,361.115 C3405.78,358.286 3404.75,356.599 3401.78,354.536 C3400.48,353.646 3400.09,353.13 3400.09,352.224 C3400.09,348.615 3407.58,344.74 3414.94,344.74 C3424.22,344.74 3429.12,350.536 3429.12,361.505 C3429.12,373.505 3424.22,379.818 3415.06,379.818 C3413.91,379.818 3411.7,379.693 3409.78,379.568 C3408.75,379.443 3407.7,379.443 3406.94,379.443 C3404.23,379.443 3402.81,380.599 3402.81,382.927 C3402.81,385.115 3404.09,386.146 3406.94,386.146 C3407.7,386.146 3408.75,386.146 3409.91,386.021 C3412.48,385.88 3414.55,385.88 3415.97,385.88 C3425.52,385.88 3430.67,392.724 3430.67,405.49 C3430.67,418.911 3424.22,426.396 3412.61,426.396 C3404.48,426.396 3395.72,422.005 3395.72,418.005 C3395.72,416.849 3395.97,416.583 3398.42,415.177 C3402.03,412.974 3403.45,410.786 3403.45,407.552 C3403.45,402.911 3399.97,399.427 3395.33,399.427 C3389.78,399.427 3386.17,403.943 3386.17,410.786 C3386.17,423.302 3397.66,431.943 3414.16,431.943 C3432.86,431.943 3444.98,421.615 3444.98,405.755 C3444.98,393.63 3438.8,386.271 3425.39,382.536"/>
<path class="Fingering" d="M3704.5,278.621 C3700.13,283.903 3688.25,287.903 3676.39,288.168 L3676.39,293.715 L3687.74,293.715 C3695.22,293.84 3696,294.621 3695.74,301.84 L3695.74,353.574 C3695.74,360.153 3695.74,360.403 3694.96,361.559 C3693.92,362.856 3691.49,363.371 3684.25,363.371 L3675.88,363.371 L3675.88,369.434 L3726.96,369.434 L3726.96,363.371 L3719.86,363.371 C3712.64,363.371 3710.19,362.856 3709.16,361.559 C3708.25,360.403 3708.25,360.278 3708.25,353.574 L3708.25,300.293 C3708.25,293.074 3708.5,287.012 3709.16,278.621 L3704.5,278.621 "/>
<path class="Fingering" d="M3934.68,71.0535 C3916.61,71.0535 3903.46,90.6629 3903.46,117.741 C3903.46,144.319 3916.22,163.803 3933.65,163.803 C3951.69,163.803 3964.35,144.96 3964.35,118.132 C3964.35,104.46 3961.51,93.116 3956.08,84.2097 C3951.05,76.0847 3942.8,71.0535 3934.68,71.0535 M3933.77,76.6004 C3938.02,76.6004 3942.16,79.4441 3945.26,84.6004 C3948.74,90.6629 3949.9,98.0066 3949.9,115.678 C3949.9,133.866 3948.99,142.382 3946.41,148.069 C3943.44,154.382 3938.8,158.257 3933.9,158.257 C3929.51,158.257 3925.51,155.413 3922.41,150.257 C3918.8,144.194 3917.77,136.194 3917.77,115.038 C3917.77,99.9441 3918.68,92.4597 3921.26,86.7879 C3924.22,80.3347 3928.86,76.6004 3933.77,76.6004"/>
<path class="Fingering" d="M779.476,1388.22 C775.101,1393.5 763.226,1397.5 751.367,1397.77 L751.367,1403.31 L762.71,1403.31 C770.195,1403.44 770.976,1404.22 770.71,1411.44 L770.71,1463.17 C770.71,1469.75 770.71,1470 769.929,1471.16 C768.898,1472.45 766.46,1472.97 759.226,1472.97 L750.851,1472.97 L750.851,1479.03 L801.929,1479.03 L801.929,1472.97 L794.835,1472.97 C787.617,1472.97 785.164,1472.45 784.132,1471.16 C783.226,1470 783.226,1469.88 783.226,1463.17 L783.226,1409.89 C783.226,1402.67 783.476,1396.61 784.132,1388.22 L779.476,1388.22 "/>
<path class="Fingering" d="M920.52,1180.65 C902.457,1180.65 889.301,1200.26 889.301,1227.34 C889.301,1253.92 902.067,1273.4 919.489,1273.4 C937.535,1273.4 950.192,1254.56 950.192,1227.73 C950.192,1214.06 947.348,1202.71 941.926,1193.81 C936.895,1185.68 928.645,1180.65 920.52,1180.65 M919.614,1186.2 C923.864,1186.2 928.004,1189.04 931.098,1194.2 C934.582,1200.26 935.739,1207.61 935.739,1225.28 C935.739,1243.46 934.832,1251.98 932.254,1257.67 C929.285,1263.98 924.645,1267.86 919.739,1267.86 C915.348,1267.86 911.348,1265.01 908.254,1259.86 C904.645,1253.79 903.614,1245.79 903.614,1224.64 C903.614,1209.54 904.52,1202.06 907.098,1196.39 C910.067,1189.93 914.707,1186.2 919.614,1186.2"/>
<path class="Fingering" d="M1203.85,1409.08 C1199.48,1414.36 1187.6,1418.36 1175.74,1418.62 L1175.74,1424.17 L1187.08,1424.17 C1194.57,1424.3 1195.35,1425.08 1195.08,1432.3 L1195.08,1484.03 C1195.08,1490.61 1195.08,1490.86 1194.3,1492.01 C1193.27,1493.31 1190.83,1493.83 1183.6,1493.83 L1175.23,1493.83 L1175.23,1499.89 L1226.3,1499.89 L1226.3,1493.83 L1219.21,1493.83 C1211.99,1493.83 1209.54,1493.31 1208.51,1492.01 C1207.6,1490.86 1207.6,1490.73 1207.6,1484.03 L1207.6,1430.75 C1207.6,1423.53 1207.85,1417.47 1208.51,1409.08 L1203.85,1409.08 M1299.18,1472.03 L1293.51,1472.03 L1292.21,1478.61 C1290.54,1486.98 1289.51,1487.76 1281.51,1487.76 L1252.62,1487.76 C1261.51,1478.48 1264.48,1475.76 1272.74,1469.31 C1284.48,1460.28 1289.51,1455.76 1292.48,1451.91 C1296.6,1446.23 1298.66,1440.55 1298.66,1434.23 C1298.66,1419.53 1286.54,1409.08 1269.65,1409.08 C1253.26,1409.08 1240.74,1419.53 1240.74,1433.33 C1240.74,1441.45 1244.87,1447 1250.94,1447 C1255.71,1447 1258.93,1443.78 1258.93,1439.12 C1258.93,1435.91 1257.13,1432.94 1254.41,1431.78 C1249.65,1429.84 1249.38,1429.59 1249.38,1427.91 C1249.38,1425.97 1250.68,1423.01 1252.49,1420.81 C1255.71,1416.81 1260.99,1414.62 1267.07,1414.62 C1277.77,1414.62 1284.08,1421.2 1284.08,1432.03 C1284.08,1441.58 1279.57,1450.22 1268.87,1461.58 C1259.32,1471.64 1253.38,1477.97 1251.19,1480.41 C1246.55,1485.83 1244.23,1488.8 1238.55,1496.28 L1238.55,1499.89 L1296.73,1499.89 L1299.18,1472.03 "/>
<path class="Fingering" d="M1492.23,1295.66 L1486.55,1295.66 L1485.26,1302.24 C1483.58,1310.62 1482.55,1311.4 1474.55,1311.4 L1445.66,1311.4 C1454.55,1302.12 1457.52,1299.4 1465.79,1292.94 C1477.52,1283.91 1482.55,1279.4 1485.52,1275.54 C1489.65,1269.87 1491.71,1264.18 1491.71,1257.87 C1491.71,1243.16 1479.58,1232.71 1462.69,1232.71 C1446.3,1232.71 1433.79,1243.16 1433.79,1256.96 C1433.79,1265.08 1437.91,1270.63 1443.99,1270.63 C1448.76,1270.63 1451.98,1267.41 1451.98,1262.76 C1451.98,1259.54 1450.18,1256.57 1447.46,1255.41 C1442.69,1253.47 1442.43,1253.22 1442.43,1251.54 C1442.43,1249.6 1443.73,1246.65 1445.54,1244.44 C1448.76,1240.44 1454.04,1238.26 1460.12,1238.26 C1470.82,1238.26 1477.13,1244.83 1477.13,1255.66 C1477.13,1265.21 1472.62,1273.85 1461.91,1285.21 C1452.37,1295.27 1446.43,1301.6 1444.24,1304.04 C1439.6,1309.46 1437.27,1312.43 1431.6,1319.91 L1431.6,1323.52 L1489.77,1323.52 L1492.23,1295.66 "/>
<path class="Fingering" d="M1949.27,1038.82 C1931.21,1038.82 1918.05,1058.43 1918.05,1085.51 C1918.05,1112.09 1930.82,1131.57 1948.24,1131.57 C1966.29,1131.57 1978.94,1112.73 1978.94,1085.9 C1978.94,1072.23 1976.1,1060.89 1970.68,1051.98 C1965.64,1043.86 1957.39,1038.82 1949.27,1038.82 M1948.36,1044.37 C1952.61,1044.37 1956.75,1047.21 1959.85,1052.37 C1963.33,1058.43 1964.49,1065.78 1964.49,1083.45 C1964.49,1101.64 1963.58,1110.15 1961,1115.84 C1958.04,1122.15 1953.39,1126.03 1948.49,1126.03 C1944.1,1126.03 1940.1,1123.18 1937,1118.03 C1933.39,1111.96 1932.36,1103.96 1932.36,1082.81 C1932.36,1067.71 1933.27,1060.23 1935.85,1054.56 C1938.82,1048.11 1943.46,1044.37 1948.36,1044.37"/>
<path class="Fingering" d="M2142.46,1111.74 C2138.09,1117.02 2126.21,1121.02 2114.35,1121.29 L2114.35,1126.83 L2125.7,1126.83 C2133.18,1126.96 2133.96,1127.74 2133.7,1134.96 L2133.7,1186.69 C2133.7,1193.27 2133.7,1193.52 2132.92,1194.68 C2131.89,1195.97 2129.45,1196.49 2122.21,1196.49 L2113.84,1196.49 L2113.84,1202.55 L2164.92,1202.55 L2164.92,1196.49 L2157.82,1196.49 C2150.6,1196.49 2148.15,1195.97 2147.12,1194.68 C2146.21,1193.52 2146.21,1193.39 2146.21,1186.69 L2146.21,1133.41 C2146.21,1126.19 2146.46,1120.13 2147.12,1111.74 L2142.46,1111.74 "/>
<path class="Fingering" d="M2477.45,1038.82 C2459.39,1038.82 2446.23,1058.43 2446.23,1085.51 C2446.23,1112.09 2459,1131.57 2476.42,1131.57 C2494.47,1131.57 2507.13,1112.73 2507.13,1085.9 C2507.13,1072.23 2504.28,1060.89 2498.86,1051.98 C2493.83,1043.86 2485.58,1038.82 2477.45,1038.82 M2476.55,1044.37 C2480.8,1044.37 2484.94,1047.21 2488.03,1052.37 C2491.52,1058.43 2492.67,1065.78 2492.67,1083.45 C2492.67,1101.64 2491.77,1110.15 2489.19,1115.84 C2486.22,1122.15 2481.58,1126.03 2476.67,1126.03 C2472.28,1126.03 2468.28,1123.18 2465.19,1118.03 C2461.58,1111.96 2460.55,1103.96 2460.55,1082.81 C2460.55,1067.71 2461.45,1060.23 2464.03,1054.56 C2467,1048.11 2471.64,1044.37 2476.55,1044.37"/>
<path class="Fingering" d="M2659.83,1111.74 C2655.46,1117.02 2643.58,1121.02 2631.72,1121.29 L2631.72,1126.83 L2643.07,1126.83 C2650.55,1126.96 2651.33,1127.74 2651.07,1134.96 L2651.07,1186.69 C2651.07,1193.27 2651.07,1193.52 2650.29,1194.68 C2649.26,1195.97 2646.82,1196.49 2639.58,1196.49 L2631.21,1196.49 L2631.21,1202.55 L2682.29,1202.55 L2682.29,1196.49 L2675.19,1196.49 C2667.97,1196.49 2665.52,1195.97 2664.49,1194.68 C2663.58,1193.52 2663.58,1193.39 2663.58,1186.69 L2663.58,1133.41 C2663.58,1126.19 2663.83,1120.13 2664.49,1111.74 L2659.83,1111.74 "/>
<path class="Fingering" d="M2785.4,1038.82 C2767.34,1038.82 2754.19,1058.43 2754.19,1085.51 C2754.19,1112.09 2766.95,1131.57 2784.37,1131.57 C2802.42,1131.57 2815.08,1112.73 2815.08,1085.9 C2815.08,1072.23 2812.23,1060.89 2806.81,1051.98 C2801.78,1043.86 2793.53,1038.82 2785.4,1038.82 M2784.5,1044.37 C2788.75,1044.37 2792.89,1047.21 2795.98,1052.37 C2799.47,1058.43 2800.62,1065.78 2800.62,1083.45 C2800.62,1101.64 2799.72,1110.15 2797.14,1115.84 C2794.17,1122.15 2789.53,1126.03 2784.62,1126.03 C2780.23,1126.03 2776.23,1123.18 2773.14,1118.03 C2769.53,1111.96 2768.5,1103.96 2768.5,1082.81 C2768.5,1067.71 2769.4,1060.23 2771.98,1054.56 C2774.95,1048.11 2779.59,1044.37 2784.5,1044.37"/>
<path class="Fingering" d="M3187.13,1111.74 C3182.75,1117.02 3170.88,1121.02 3159.02,1121.29 L3159.02,1126.83 L3170.36,1126.83 C3177.85,1126.96 3178.63,1127.74 3178.36,1134.96 L3178.36,1186.69 C3178.36,1193.27 3178.36,1193.52 3177.58,1194.68 C3176.55,1195.97 3174.11,1196.49 3166.88,1196.49 L3158.5,1196.49 L3158.5,1202.55 L3209.58,1202.55 L3209.58,1196.49 L3202.49,1196.49 C3195.27,1196.49 3192.82,1195.97 3191.79,1194.68 C3190.88,1193.52 3190.88,1193.39 3190.88,1186.69 L3190.88,1133.41 C3190.88,1126.19 3191.13,1120.13 3191.79,1111.74 L3187.13,1111.74 "/>
<path class="Fingering" d="M3310.91,1180.65 C3292.85,1180.65 3279.69,1200.26 3279.69,1227.34 C3279.69,1253.92 3292.46,1273.4 3309.88,1273.4 C3327.93,1273.4 3340.58,1254.56 3340.58,1227.73 C3340.58,1214.06 3337.74,1202.71 3332.32,1193.81 C3327.29,1185.68 3319.04,1180.65 3310.91,1180.65 M3310.01,1186.2 C3314.26,1186.2 3318.4,1189.04 3321.49,1194.2 C3324.97,1200.26 3326.13,1207.61 3326.13,1225.28 C3326.13,1243.46 3325.22,1251.98 3322.65,1257.67 C3319.68,1263.98 3315.04,1267.86 3310.13,1267.86 C3305.74,1267.86 3301.74,1265.01 3298.65,1259.86 C3295.04,1253.79 3294.01,1245.79 3294.01,1224.64 C3294.01,1209.54 3294.91,1202.06 3297.49,1196.39 C3300.46,1189.93 3305.1,1186.2 3310.01,1186.2"/>
<path class="Fingering" d="M3467.08,1295.66 L3461.41,1295.66 L3460.12,1302.24 C3458.44,1310.62 3457.41,1311.4 3449.41,1311.4 L3420.52,1311.4 C3429.41,1302.12 3432.38,1299.4 3440.65,1292.94 C3452.38,1283.91 3457.41,1279.4 3460.38,1275.54 C3464.51,1269.87 3466.57,1264.18 3466.57,1257.87 C3466.57,1243.16 3454.44,1232.71 3437.55,1232.71 C3421.16,1232.71 3408.65,1243.16 3408.65,1256.96 C3408.65,1265.08 3412.77,1270.63 3418.85,1270.63 C3423.62,1270.63 3426.83,1267.41 3426.83,1262.76 C3426.83,1259.54 3425.04,1256.57 3422.32,1255.41 C3417.55,1253.47 3417.29,1253.22 3417.29,1251.54 C3417.29,1249.6 3418.58,1246.65 3420.4,1244.44 C3423.62,1240.44 3428.9,1238.26 3434.97,1238.26 C3445.68,1238.26 3451.99,1244.83 3451.99,1255.66 C3451.99,1265.21 3447.47,1273.85 3436.77,1285.21 C3427.22,1295.27 3421.29,1301.6 3419.1,1304.04 C3414.46,1309.46 3412.13,1312.43 3406.46,1319.91 L3406.46,1323.52 L3464.63,1323.52 L3467.08,1295.66 "/>
<path class="Fingering" d="M3653.41,1303.62 C3649.03,1308.9 3637.16,1312.9 3625.3,1313.17 L3625.3,1318.72 L3636.64,1318.72 C3644.13,1318.84 3644.91,1319.62 3644.64,1326.84 L3644.64,1378.58 C3644.64,1385.15 3644.64,1385.4 3643.86,1386.56 C3642.83,1387.86 3640.39,1388.37 3633.16,1388.37 L3624.78,1388.37 L3624.78,1394.44 L3675.86,1394.44 L3675.86,1388.37 L3668.77,1388.37 C3661.55,1388.37 3659.1,1387.86 3658.06,1386.56 C3657.16,1385.4 3657.16,1385.28 3657.16,1378.58 L3657.16,1325.3 C3657.16,1318.08 3657.41,1312.01 3658.06,1303.62 L3653.41,1303.62 M3748.74,1366.58 L3743.06,1366.58 L3741.77,1373.15 C3740.1,1381.53 3739.06,1382.31 3731.06,1382.31 L3702.17,1382.31 C3711.06,1373.03 3714.03,1370.31 3722.3,1363.86 C3734.03,1354.83 3739.06,1350.31 3742.03,1346.45 C3746.16,1340.78 3748.22,1335.09 3748.22,1328.78 C3748.22,1314.08 3736.1,1303.62 3719.2,1303.62 C3702.81,1303.62 3690.3,1314.08 3690.3,1327.87 C3690.3,1336 3694.42,1341.55 3700.5,1341.55 C3705.27,1341.55 3708.49,1338.33 3708.49,1333.67 C3708.49,1330.45 3706.69,1327.48 3703.97,1326.33 C3699.2,1324.39 3698.94,1324.14 3698.94,1322.45 C3698.94,1320.51 3700.24,1317.56 3702.05,1315.36 C3705.27,1311.36 3710.55,1309.17 3716.63,1309.17 C3727.33,1309.17 3733.64,1315.75 3733.64,1326.58 C3733.64,1336.12 3729.13,1344.76 3718.42,1356.12 C3708.88,1366.19 3702.94,1372.51 3700.75,1374.95 C3696.11,1380.37 3693.78,1383.34 3688.11,1390.83 L3688.11,1394.44 L3746.28,1394.44 L3748.74,1366.58 "/>
<path class="Fingering" d="M3842.48,1038.82 C3824.42,1038.82 3811.26,1058.43 3811.26,1085.51 C3811.26,1112.09 3824.03,1131.57 3841.45,1131.57 C3859.49,1131.57 3872.15,1112.73 3872.15,1085.9 C3872.15,1072.23 3869.31,1060.89 3863.88,1051.98 C3858.85,1043.86 3850.6,1038.82 3842.48,1038.82 M3841.57,1044.37 C3845.82,1044.37 3849.96,1047.21 3853.06,1052.37 C3856.54,1058.43 3857.7,1065.78 3857.7,1083.45 C3857.7,1101.64 3856.79,1110.15 3854.21,1115.84 C3851.24,1122.15 3846.6,1126.03 3841.7,1126.03 C3837.31,1126.03 3833.31,1123.18 3830.21,1118.03 C3826.6,1111.96 3825.57,1103.96 3825.57,1082.81 C3825.57,1067.71 3826.48,1060.23 3829.06,1054.56 C3832.03,1048.11 3836.67,1044.37 3841.57,1044.37"/>
<path class="Fingering" d="M3950.5,1180.65 C3932.44,1180.65 3919.28,1200.26 3919.28,1227.34 C3919.28,1253.92 3932.05,1273.4 3949.47,1273.4 C3967.52,1273.4 3980.17,1254.56 3980.17,1227.73 C3980.17,1214.06 3977.33,1202.71 3971.91,1193.81 C3966.87,1185.68 3958.62,1180.65 3950.5,1180.65 M3949.59,1186.2 C3953.84,1186.2 3957.98,1189.04 3961.08,1194.2 C3964.56,1200.26 3965.72,1207.61 3965.72,1225.28 C3965.72,1243.46 3964.81,1251.98 3962.23,1257.67 C3959.27,1263.98 3954.62,1267.86 3949.72,1267.86 C3945.33,1267.86 3941.33,1265.01 3938.23,1259.86 C3934.62,1253.79 3933.59,1245.79 3933.59,1224.64 C3933.59,1209.54 3934.5,1202.06 3937.08,1196.39 C3940.05,1189.93 3944.69,1186.2 3949.59,1186.2"/>
<path class="RehearsalMark" fill="none" stroke="#000000" stroke-width="9.34" stroke-linecap="square" stroke-linejoin="miter" stroke-miterlimit="2" fill-rule="evenodd" d="M506.25,214.533 L677.994,214.533 L677.994,378.277 L506.25,378.277 L506.25,214.533 "/>
<path class="RehearsalMark" d="M588.403,249.327 L559.122,317.702 C553.184,331.64 548.403,336.671 540.794,337.437 L540.794,344.405 L578.075,344.405 L578.075,337.437 C568.919,336.921 565.309,334.468 565.309,328.546 C565.309,326.343 565.825,324.28 567.247,321.187 L569.309,316.28 L601.434,316.28 L606.325,328.921 C607.747,332.53 607.872,333.187 607.872,334.218 C607.872,336.53 606.075,337.312 600.403,337.312 L598.2,337.437 L598.2,344.405 L643.481,344.405 L643.481,337.437 C636.122,337.187 634.059,335.89 631.356,329.312 L598.2,249.327 L588.403,249.327 M585.684,276.812 L598.2,307.64 L572.669,307.64 L585.684,276.812 "/>
<path class="RehearsalMark" fill="none" stroke="#000000" stroke-width="9.34" stroke-linecap="square" stroke-linejoin="miter" stroke-miterlimit="2" fill-rule="evenodd" d="M2852.7,216.533 L3014.45,216.533 L3014.45,378.277 L2852.7,378.277 L2852.7,216.533 "/>
<path class="RehearsalMark" d="M2887.26,251.265 L2887.26,258.233 L2889.2,258.233 C2896.17,258.233 2898.62,258.749 2899.78,260.046 C2900.68,261.452 2900.68,261.843 2900.68,269.843 L2900.68,325.827 C2900.68,333.827 2900.68,334.218 2899.78,335.499 C2898.62,336.921 2896.04,337.437 2889.2,337.437 L2887.26,337.437 L2887.26,344.405 L2939.51,344.405 C2952.93,344.405 2959.76,343.374 2966.47,340.405 C2974.61,336.796 2980.01,328.671 2980.01,319.89 C2980.01,310.858 2974.86,303.765 2965.31,299.39 C2960.92,297.327 2957.18,296.296 2950.34,295.39 C2956.67,294.358 2960.28,293.452 2963.89,291.78 C2971.64,288.03 2975.76,281.843 2975.76,274.108 C2975.76,266.749 2971.89,259.905 2965.58,256.437 C2958.48,252.437 2952.28,251.265 2937.06,251.265 L2887.26,251.265 M2923.9,293.062 L2923.9,265.718 C2923.65,260.296 2925.45,258.499 2931.12,258.233 L2935,258.233 C2946.36,258.233 2952.42,263.905 2952.42,274.624 C2952.42,280.937 2950.22,285.968 2946.09,289.187 C2942.61,292.03 2938.22,293.062 2930.23,293.062 L2923.9,293.062 M2923.9,300.155 L2932.81,300.155 C2940.93,300.155 2944.67,300.937 2948.28,303.249 C2952.79,306.218 2955.37,311.905 2955.37,318.608 C2955.37,324.796 2953.06,330.468 2949.31,333.577 C2946.09,336.155 2941.84,337.437 2935.64,337.437 L2931.78,337.437 C2924.42,337.187 2923.65,336.405 2923.9,329.187 L2923.9,300.155 "/>
<path class="NoteDot" transform="matrix(2.336,0,0,2.336,1438.41,548.805)" d="M0,0 C0,2.76563 2.23438,5 5,5 C7.76563,5 10,2.76563 10,0 C10,-2.76563 7.76563,-5 5,-5 C2.23438,-5 0,-2.76563 0,0"/>
<path class="NoteDot" transform="matrix(2.336,0,0,2.336,1988.91,665.605)" d="M0,0 C0,2.76563 2.23438,5 5,5 C7.76563,5 10,2.76563 10,0 C10,-2.76563 7.76563,-5 5,-5 C2.23438,-5 0,-2.76563 0,0"/>
<path class="NoteDot" transform="matrix(2.336,0,0,2.336,3217.62,665.605)" d="M0,0 C0,2.76563 2.23438,5 5,5 C7.76563,5 10,2.76563 10,0 C10,-2.76563 7.76563,-5 5,-5 C2.23438,-5 0,-2.76563 0,0"/>
<path class="NoteDot" transform="matrix(2.336,0,0,2.336,3768.12,607.205)" d="M0,0 C0,2.76563 2.23438,5 5,5 C7.76563,5 10,2.76563 10,0 C10,-2.76563 7.76563,-5 5,-5 C2.23438,-5 0,-2.76563 0,0"/>
</svg>
