<?xml version="1.0" encoding="UTF-8" standalone="no"?>
<svg width="4208.47px" height="2409.45px" viewBox="0 0 4208.47 2409.45"
 xmlns="http://www.w3.org/2000/svg" xmlns:xlink="http://www.w3.org/1999/xlink" version="1.2" baseProfile="tiny">
<title>TUBA</title>
<desc>Generated by MuseScore 3.6.2</desc>
<polyline class="StaffLines" fill="none" stroke="#000000" stroke-width="6.85" stroke-linejoin="bevel" points="70.866,530.17 4137.61,530.17"/>
<polyline class="StaffLines" fill="none" stroke="#000000" stroke-width="6.85" stroke-linejoin="bevel" points="70.866,592.47 4137.61,592.47"/>
<polyline class="StaffLines" fill="none" stroke="#000000" stroke-width="6.85" stroke-linejoin="bevel" points="70.866,654.77 4137.61,654.77"/>
<polyline class="StaffLines" fill="none" stroke="#000000" stroke-width="6.85" stroke-linejoin="bevel" points="70.866,717.07 4137.61,717.07"/>
<polyline class="StaffLines" fill="none" stroke="#000000" stroke-width="6.85" stroke-linejoin="bevel" points="70.866,779.37 4137.61,779.37"/>
<polyline class="StaffLines" fill="none" stroke="#000000" stroke-width="6.85" stroke-linejoin="bevel" points="70.866,1713.87 4137.61,1713.87"/>
<polyline class="StaffLines" fill="none" stroke="#000000" stroke-width="6.85" stroke-linejoin="bevel" points="70.866,1776.17 4137.61,1776.17"/>
<polyline class="StaffLines" fill="none" stroke="#000000" stroke-width="6.85" stroke-linejoin="bevel" points="70.866,1838.47 4137.61,1838.47"/>
<polyline class="StaffLines" fill="none" stroke="#000000" stroke-width="6.85" stroke-linejoin="bevel" points="70.866,1900.77 4137.61,1900.77"/>
<polyline class="StaffLines" fill="none" stroke="#000000" stroke-width="6.85" stroke-linejoin="bevel" points="70.866,1963.07 4137.61,1963.07"/>
<path class="MeasureNumber" d="M98.7097,1550.55 C95.8035,1550.88 92.2254,1551.1 89.1472,1551.1 C87.616,1551.1 85.8504,1551.05 83.866,1550.94 C82.0535,1550.83 80.241,1550.72 78.366,1550.61 L76.991,1550.55 L71.6629,1562.16 L73.6941,1562.82 L75.0222,1560.61 C77.6004,1556.33 78.8035,1555.72 84.4129,1555.79 L93.7097,1555.79 L87.7254,1564.36 C80.6785,1574.25 80.6785,1574.25 77.991,1578.66 C75.5691,1582.57 74.5691,1584.97 74.5691,1586.96 C74.5691,1588.88 75.7879,1590.1 77.7097,1590.1 C79.741,1590.1 80.7879,1589.1 81.5066,1586.52 C84.2566,1576.18 85.8972,1572.61 93.5535,1560.24 L98.7097,1552.21 L98.7097,1550.55 "/>
<path class="TieSegment" stroke="#000000" stroke-width="4.36" stroke-linecap="round" stroke-linejoin="round" fill-rule="evenodd" d="M1609.67,919.545 C1676.9,961.918 1878.59,961.918 1945.83,919.545 C1878.59,979.362 1676.9,979.362 1609.67,919.545"/>
<path class="TieSegment" stroke="#000000" stroke-width="4.36" stroke-linecap="round" stroke-linejoin="round" fill-rule="evenodd" d="M3932.59,780.607 C3973.59,803.047 4096.6,803.047 4137.61,780.607 C4096.6,820.491 3973.59,820.491 3932.59,780.607"/>
<path class="TieSegment" stroke="#000000" stroke-width="4.36" stroke-linecap="round" stroke-linejoin="round" fill-rule="evenodd" d="M523.651,1968.99 C529.319,1985.19 546.322,1985.19 551.99,1968.99 C546.322,2002.63 529.319,2002.63 523.651,1968.99"/>
<path class="TieSegment" stroke="#000000" stroke-width="4.36" stroke-linecap="round" stroke-linejoin="round" fill-rule="evenodd" d="M1536.81,1978.64 C1599.68,2017.7 1788.29,2017.7 1851.16,1978.64 C1788.29,2035.15 1599.68,2035.15 1536.81,1978.64"/>
<path class="TieSegment" stroke="#000000" stroke-width="4.36" stroke-linecap="round" stroke-linejoin="round" fill-rule="evenodd" d="M2806.98,1897.75 C2855.44,1925.87 3000.84,1925.87 3049.31,1897.75 C3000.84,1943.31 2855.44,1943.31 2806.98,1897.75"/>
<polyline class="BarLine" stroke="#000000" stroke-width="11.21" stroke-linejoin="bevel" points="1220.34,526.744 1220.34,782.797"/>
<polyline class="BarLine" stroke="#000000" stroke-width="11.21" stroke-linejoin="bevel" points="1254.61,526.744 1254.61,782.797"/>
<polyline class="BarLine" stroke="#000000" stroke-width="11.21" stroke-linejoin="bevel" points="1809.08,526.744 1809.08,782.797"/>
<polyline class="BarLine" stroke="#000000" stroke-width="11.21" stroke-linejoin="bevel" points="2385.36,526.744 2385.36,782.797"/>
<path class="BarLine" transform="matrix(2.492,0,0,2.492,2896.13,623.62)" d="M10.4063,0 C10.4063,-2.90625 8.09375,-5.29688 5.20313,-5.29688 C2.29688,-5.29688 0,-2.90625 0,0 C0,2.90625 2.29688,5.29688 5.20313,5.29688 C8.09375,5.29688 10.4063,2.90625 10.4063,0"/>
<path class="BarLine" transform="matrix(2.492,0,0,2.492,2896.13,685.92)" d="M10.4063,0 C10.4063,-2.90625 8.09375,-5.29688 5.20313,-5.29688 C2.29688,-5.29688 0,-2.90625 0,0 C0,2.90625 2.29688,5.29688 5.20313,5.29688 C8.09375,5.29688 10.4063,2.90625 10.4063,0"/>
<polyline class="BarLine" stroke="#000000" stroke-width="11.21" stroke-linejoin="bevel" points="2952.7,526.744 2952.7,782.797"/>
<polyline class="BarLine" stroke="#000000" stroke-width="34.26" stroke-linejoin="bevel" points="2996.31,526.744 2996.31,782.797"/>
<polyline class="BarLine" stroke="#000000" stroke-width="34.26" stroke-linejoin="bevel" points="2988.55,526.744 2988.55,782.797"/>
<polyline class="BarLine" stroke="#000000" stroke-width="11.21" stroke-linejoin="bevel" points="3032.16,526.744 3032.16,782.797"/>
<path class="BarLine" transform="matrix(2.492,0,0,2.492,3062.8,623.62)" d="M10.4063,0 C10.4063,-2.90625 8.09375,-5.29688 5.20313,-5.29688 C2.29688,-5.29688 0,-2.90625 0,0 C0,2.90625 2.29688,5.29688 5.20313,5.29688 C8.09375,5.29688 10.4063,2.90625 10.4063,0"/>
<path class="BarLine" transform="matrix(2.492,0,0,2.492,3062.8,685.92)" d="M10.4063,0 C10.4063,-2.90625 8.09375,-5.29688 5.20313,-5.29688 C2.29688,-5.29688 0,-2.90625 0,0 C0,2.90625 2.29688,5.29688 5.20313,5.29688 C8.09375,5.29688 10.4063,2.90625 10.4063,0"/>
<polyline class="BarLine" stroke="#000000" stroke-width="11.21" stroke-linejoin="bevel" points="3555.72,526.744 3555.72,782.797"/>
<polyline class="BarLine" stroke="#000000" stroke-width="11.21" stroke-linejoin="bevel" points="4132,526.744 4132,782.797"/>
<polyline class="BarLine" stroke="#000000" stroke-width="11.21" stroke-linejoin="bevel" points="1115.34,1710.44 1115.34,1966.5"/>
<polyline class="BarLine" stroke="#000000" stroke-width="11.21" stroke-linejoin="bevel" points="1736.22,1710.44 1736.22,1966.5"/>
<polyline class="BarLine" stroke="#000000" stroke-width="11.21" stroke-linejoin="bevel" points="2414.52,1710.44 2414.52,1966.5"/>
<polyline class="BarLine" stroke="#000000" stroke-width="11.21" stroke-linejoin="bevel" points="2934.37,1710.44 2934.37,1966.5"/>
<polyline class="BarLine" stroke="#000000" stroke-width="11.21" stroke-linejoin="bevel" points="3557.01,1710.44 3557.01,1966.5"/>
<polyline class="BarLine" stroke="#000000" stroke-width="11.21" stroke-linejoin="bevel" points="4076.86,1710.44 4076.86,1966.5"/>
<polyline class="BarLine" stroke="#000000" stroke-width="34.26" stroke-linejoin="bevel" points="4120.47,1710.44 4120.47,1966.5"/>
<polyline class="LedgerLine" stroke="#000000" stroke-width="9.97" stroke-linejoin="bevel" points="1535.24,841.67 1659.82,841.67"/>
<polyline class="LedgerLine" stroke="#000000" stroke-width="9.97" stroke-linejoin="bevel" points="1895.68,841.67 2020.26,841.67"/>
<polyline class="LedgerLine" stroke="#000000" stroke-width="9.97" stroke-linejoin="bevel" points="2111.52,841.67 2236.1,841.67"/>
<polyline class="LedgerLine" stroke="#000000" stroke-width="9.97" stroke-linejoin="bevel" points="2699.91,841.67 2824.49,841.67"/>
<polyline class="LedgerLine" stroke="#000000" stroke-width="9.97" stroke-linejoin="bevel" points="3066.04,841.67 3190.62,841.67"/>
<polyline class="LedgerLine" stroke="#000000" stroke-width="9.97" stroke-linejoin="bevel" points="3281.87,903.97 3406.45,903.97"/>
<polyline class="LedgerLine" stroke="#000000" stroke-width="9.97" stroke-linejoin="bevel" points="3281.87,841.67 3406.45,841.67"/>
<polyline class="LedgerLine" stroke="#000000" stroke-width="9.97" stroke-linejoin="bevel" points="3642.32,841.67 3766.9,841.67"/>
<polyline class="LedgerLine" stroke="#000000" stroke-width="9.97" stroke-linejoin="bevel" points="667.291,2025.37 791.872,2025.37"/>
<polyline class="LedgerLine" stroke="#000000" stroke-width="9.97" stroke-linejoin="bevel" points="1201.94,2025.37 1326.52,2025.37"/>
<polyline class="Stem" stroke="#000000" stroke-width="6.85" stroke-linejoin="bevel" points="887.721,709.096 887.721,506.808"/>
<polyline class="Stem" stroke="#000000" stroke-width="6.85" stroke-linejoin="bevel" points="1045.85,740.246 1045.85,530.17"/>
<polyline class="Stem" stroke="#000000" stroke-width="6.85" stroke-linejoin="bevel" points="1418.75,771.396 1418.75,561.32"/>
<polyline class="Stem" stroke="#000000" stroke-width="6.85" stroke-linejoin="bevel" points="1634.58,864.846 1634.58,654.77"/>
<polyline class="Stem" stroke="#000000" stroke-width="6.85" stroke-linejoin="bevel" points="1995.03,864.846 1995.03,654.77"/>
<polyline class="Stem" stroke="#000000" stroke-width="6.85" stroke-linejoin="bevel" points="2210.86,864.846 2210.86,654.77"/>
<polyline class="Stem" stroke="#000000" stroke-width="6.85" stroke-linejoin="bevel" points="2549.5,771.396 2549.5,561.32"/>
<polyline class="Stem" stroke="#000000" stroke-width="6.85" stroke-linejoin="bevel" points="2703.2,771.396 2703.2,592.47"/>
<polyline class="Stem" stroke="#000000" stroke-width="6.85" stroke-linejoin="bevel" points="2799.26,864.846 2799.26,654.77"/>
<polyline class="Stem" stroke="#000000" stroke-width="6.85" stroke-linejoin="bevel" points="3165.39,864.846 3165.39,654.77"/>
<polyline class="Stem" stroke="#000000" stroke-width="6.85" stroke-linejoin="bevel" points="3381.22,895.996 3381.22,654.77"/>
<polyline class="Stem" stroke="#000000" stroke-width="6.85" stroke-linejoin="bevel" points="3741.67,833.696 3741.67,623.62"/>
<polyline class="Stem" stroke="#000000" stroke-width="6.85" stroke-linejoin="bevel" points="3957.5,709.096 3957.5,506.808"/>
<polyline class="Stem" stroke="#000000" stroke-width="6.85" stroke-linejoin="bevel" points="601.195,1892.8 601.195,1690.51"/>
<polyline class="Stem" stroke="#000000" stroke-width="6.85" stroke-linejoin="bevel" points="766.64,2017.4 766.64,1807.32"/>
<polyline class="Stem" stroke="#000000" stroke-width="6.85" stroke-linejoin="bevel" points="940.846,1892.8 940.846,1690.51"/>
<polyline class="Stem" stroke="#000000" stroke-width="6.85" stroke-linejoin="bevel" points="1301.29,2048.55 1301.29,1838.47"/>
<polyline class="Stem" stroke="#000000" stroke-width="6.85" stroke-linejoin="bevel" points="1561.73,1923.95 1561.73,1713.87"/>
<polyline class="Stem" stroke="#000000" stroke-width="6.85" stroke-linejoin="bevel" points="1900.37,1923.95 1900.37,1713.87"/>
<polyline class="Stem" stroke="#000000" stroke-width="6.85" stroke-linejoin="bevel" points="2065.81,1830.5 2065.81,1643.78"/>
<polyline class="Stem" stroke="#000000" stroke-width="6.85" stroke-linejoin="bevel" points="2240.02,1861.65 2240.02,1667.14"/>
<polyline class="Stem" stroke="#000000" stroke-width="6.85" stroke-linejoin="bevel" points="2578.66,1830.5 2578.66,1643.78"/>
<polyline class="Stem" stroke="#000000" stroke-width="6.85" stroke-linejoin="bevel" points="2734.49,1861.65 2734.49,1667.14"/>
<polyline class="Stem" stroke="#000000" stroke-width="6.85" stroke-linejoin="bevel" points="2831.89,1830.5 2831.89,1651.57"/>
<polyline class="Stem" stroke="#000000" stroke-width="6.85" stroke-linejoin="bevel" points="3098.51,1830.5 3098.51,1651.57"/>
<polyline class="Stem" stroke="#000000" stroke-width="6.85" stroke-linejoin="bevel" points="3217.18,1861.65 3217.18,1667.14"/>
<polyline class="Stem" stroke="#000000" stroke-width="6.85" stroke-linejoin="bevel" points="3335.85,1892.8 3335.85,1713.87"/>
<polyline class="Stem" stroke="#000000" stroke-width="6.85" stroke-linejoin="bevel" points="3454.52,1923.95 3454.52,1729.44"/>
<polyline class="Stem" stroke="#000000" stroke-width="6.85" stroke-linejoin="bevel" points="3721.15,1955.1 3721.15,1745.02"/>
<polyline class="Stem" stroke="#000000" stroke-width="6.85" stroke-linejoin="bevel" points="3876.98,1830.5 3876.98,1651.57"/>
<polyline class="Stem" stroke="#000000" stroke-width="6.85" stroke-linejoin="bevel" points="3974.38,1892.8 3974.38,1713.87"/>
<path class="Note" transform="matrix(2.492,0,0,2.492,810.177,717.07)" d="M31.5,-8.09375 C29.7031,-11.4063 25.9063,-13.2031 21.2969,-13.2031 C17.9063,-13.2031 14.2031,-12.2031 10.5938,-10.2969 C4,-6.79688 0,-0.90625 0,4.20313 C0,5.59375 0.296875,7 1,8.29688 C2.79688,11.5938 6.59375,13.2969 11.2031,13.2969 C14.5938,13.2969 18.2969,12.4063 21.9063,10.5 C28.5,7 32.5,1.09375 32.5,-4 C32.5,-5.40625 32.2031,-6.79688 31.5,-8.09375"/>
<path class="Note" transform="matrix(2.492,0,0,2.492,968.302,748.22)" d="M31.5,-8.09375 C29.7031,-11.4063 25.9063,-13.2031 21.2969,-13.2031 C17.9063,-13.2031 14.2031,-12.2031 10.5938,-10.2969 C4,-6.79688 0,-0.90625 0,4.20313 C0,5.59375 0.296875,7 1,8.29688 C2.79688,11.5938 6.59375,13.2969 11.2031,13.2969 C14.5938,13.2969 18.2969,12.4063 21.9063,10.5 C28.5,7 32.5,1.09375 32.5,-4 C32.5,-5.40625 32.2031,-6.79688 31.5,-8.09375"/>
<path class="Note" transform="matrix(2.492,0,0,2.492,1341.21,779.37)" d="M31.5,-8.09375 C29.7031,-11.4063 25.9063,-13.2031 21.2969,-13.2031 C17.9063,-13.2031 14.2031,-12.2031 10.5938,-10.2969 C4,-6.79688 0,-0.90625 0,4.20313 C0,5.59375 0.296875,7 1,8.29688 C2.79688,11.5938 6.59375,13.2969 11.2031,13.2969 C14.5938,13.2969 18.2969,12.4063 21.9063,10.5 C28.5,7 32.5,1.09375 32.5,-4 C32.5,-5.40625 32.2031,-6.79688 31.5,-8.09375"/>
<path class="Note" transform="matrix(2.492,0,0,2.492,1557.04,872.82)" d="M31.5,-8.09375 C29.7031,-11.4063 25.9063,-13.2031 21.2969,-13.2031 C17.9063,-13.2031 14.2031,-12.2031 10.5938,-10.2969 C4,-6.79688 0,-0.90625 0,4.20313 C0,5.59375 0.296875,7 1,8.29688 C2.79688,11.5938 6.59375,13.2969 11.2031,13.2969 C14.5938,13.2969 18.2969,12.4063 21.9063,10.5 C28.5,7 32.5,1.09375 32.5,-4 C32.5,-5.40625 32.2031,-6.79688 31.5,-8.09375"/>
<path class="Note" transform="matrix(2.492,0,0,2.492,1917.49,872.82)" d="M31.5,-8.09375 C29.7031,-11.4063 25.9063,-13.2031 21.2969,-13.2031 C17.9063,-13.2031 14.2031,-12.2031 10.5938,-10.2969 C4,-6.79688 0,-0.90625 0,4.20313 C0,5.59375 0.296875,7 1,8.29688 C2.79688,11.5938 6.59375,13.2969 11.2031,13.2969 C14.5938,13.2969 18.2969,12.4063 21.9063,10.5 C28.5,7 32.5,1.09375 32.5,-4 C32.5,-5.40625 32.2031,-6.79688 31.5,-8.09375"/>
<path class="Note" transform="matrix(2.492,0,0,2.492,2133.32,872.82)" d="M31.5,-8.09375 C29.7031,-11.4063 25.9063,-13.2031 21.2969,-13.2031 C17.9063,-13.2031 14.2031,-12.2031 10.5938,-10.2969 C4,-6.79688 0,-0.90625 0,4.20313 C0,5.59375 0.296875,7 1,8.29688 C2.79688,11.5938 6.59375,13.2969 11.2031,13.2969 C14.5938,13.2969 18.2969,12.4063 21.9063,10.5 C28.5,7 32.5,1.09375 32.5,-4 C32.5,-5.40625 32.2031,-6.79688 31.5,-8.09375"/>
<path class="Note" transform="matrix(2.492,0,0,2.492,2471.96,779.37)" d="M31.5,-8.09375 C29.7031,-11.4063 25.9063,-13.2031 21.2969,-13.2031 C17.9063,-13.2031 14.2031,-12.2031 10.5938,-10.2969 C4,-6.79688 0,-0.90625 0,4.20313 C0,5.59375 0.296875,7 1,8.29688 C2.79688,11.5938 6.59375,13.2969 11.2031,13.2969 C14.5938,13.2969 18.2969,12.4063 21.9063,10.5 C28.5,7 32.5,1.09375 32.5,-4 C32.5,-5.40625 32.2031,-6.79688 31.5,-8.09375"/>
<path class="Note" transform="matrix(2.492,0,0,2.492,2625.65,779.37)" d="M31.5,-8.09375 C29.7031,-11.4063 25.9063,-13.2031 21.2969,-13.2031 C17.9063,-13.2031 14.2031,-12.2031 10.5938,-10.2969 C4,-6.79688 0,-0.90625 0,4.20313 C0,5.59375 0.296875,7 1,8.29688 C2.79688,11.5938 6.59375,13.2969 11.2031,13.2969 C14.5938,13.2969 18.2969,12.4063 21.9063,10.5 C28.5,7 32.5,1.09375 32.5,-4 C32.5,-5.40625 32.2031,-6.79688 31.5,-8.09375"/>
<path class="Note" transform="matrix(2.492,0,0,2.492,2721.71,872.82)" d="M31.5,-8.09375 C29.7031,-11.4063 25.9063,-13.2031 21.2969,-13.2031 C17.9063,-13.2031 14.2031,-12.2031 10.5938,-10.2969 C4,-6.79688 0,-0.90625 0,4.20313 C0,5.59375 0.296875,7 1,8.29688 C2.79688,11.5938 6.59375,13.2969 11.2031,13.2969 C14.5938,13.2969 18.2969,12.4063 21.9063,10.5 C28.5,7 32.5,1.09375 32.5,-4 C32.5,-5.40625 32.2031,-6.79688 31.5,-8.09375"/>
<path class="Note" transform="matrix(2.492,0,0,2.492,3087.84,872.82)" d="M31.5,-8.09375 C29.7031,-11.4063 25.9063,-13.2031 21.2969,-13.2031 C17.9063,-13.2031 14.2031,-12.2031 10.5938,-10.2969 C4,-6.79688 0,-0.90625 0,4.20313 C0,5.59375 0.296875,7 1,8.29688 C2.79688,11.5938 6.59375,13.2969 11.2031,13.2969 C14.5938,13.2969 18.2969,12.4063 21.9063,10.5 C28.5,7 32.5,1.09375 32.5,-4 C32.5,-5.40625 32.2031,-6.79688 31.5,-8.09375"/>
<path class="Note" transform="matrix(2.492,0,0,2.492,3303.68,903.97)" d="M31.5,-8.09375 C29.7031,-11.4063 25.9063,-13.2031 21.2969,-13.2031 C17.9063,-13.2031 14.2031,-12.2031 10.5938,-10.2969 C4,-6.79688 0,-0.90625 0,4.20313 C0,5.59375 0.296875,7 1,8.29688 C2.79688,11.5938 6.59375,13.2969 11.2031,13.2969 C14.5938,13.2969 18.2969,12.4063 21.9063,10.5 C28.5,7 32.5,1.09375 32.5,-4 C32.5,-5.40625 32.2031,-6.79688 31.5,-8.09375"/>
<path class="Note" transform="matrix(2.492,0,0,2.492,3664.12,841.67)" d="M31.5,-8.09375 C29.7031,-11.4063 25.9063,-13.2031 21.2969,-13.2031 C17.9063,-13.2031 14.2031,-12.2031 10.5938,-10.2969 C4,-6.79688 0,-0.90625 0,4.20313 C0,5.59375 0.296875,7 1,8.29688 C2.79688,11.5938 6.59375,13.2969 11.2031,13.2969 C14.5938,13.2969 18.2969,12.4063 21.9063,10.5 C28.5,7 32.5,1.09375 32.5,-4 C32.5,-5.40625 32.2031,-6.79688 31.5,-8.09375"/>
<path class="Note" transform="matrix(2.492,0,0,2.492,3879.96,717.07)" d="M31.5,-8.09375 C29.7031,-11.4063 25.9063,-13.2031 21.2969,-13.2031 C17.9063,-13.2031 14.2031,-12.2031 10.5938,-10.2969 C4,-6.79688 0,-0.90625 0,4.20313 C0,5.59375 0.296875,7 1,8.29688 C2.79688,11.5938 6.59375,13.2969 11.2031,13.2969 C14.5938,13.2969 18.2969,12.4063 21.9063,10.5 C28.5,7 32.5,1.09375 32.5,-4 C32.5,-5.40625 32.2031,-6.79688 31.5,-8.09375"/>
<path class="Note" transform="matrix(2.492,0,0,2.492,523.651,1900.77)" d="M31.5,-8.09375 C29.7031,-11.4063 25.9063,-13.2031 21.2969,-13.2031 C17.9063,-13.2031 14.2031,-12.2031 10.5938,-10.2969 C4,-6.79688 0,-0.90625 0,4.20313 C0,5.59375 0.296875,7 1,8.29688 C2.79688,11.5938 6.59375,13.2969 11.2031,13.2969 C14.5938,13.2969 18.2969,12.4063 21.9063,10.5 C28.5,7 32.5,1.09375 32.5,-4 C32.5,-5.40625 32.2031,-6.79688 31.5,-8.09375"/>
<path class="Note" transform="matrix(2.492,0,0,2.492,689.096,2025.37)" d="M31.5,-8.09375 C29.7031,-11.4063 25.9063,-13.2031 21.2969,-13.2031 C17.9063,-13.2031 14.2031,-12.2031 10.5938,-10.2969 C4,-6.79688 0,-0.90625 0,4.20313 C0,5.59375 0.296875,7 1,8.29688 C2.79688,11.5938 6.59375,13.2969 11.2031,13.2969 C14.5938,13.2969 18.2969,12.4063 21.9063,10.5 C28.5,7 32.5,1.09375 32.5,-4 C32.5,-5.40625 32.2031,-6.79688 31.5,-8.09375"/>
<path class="Note" transform="matrix(2.492,0,0,2.492,863.302,1900.77)" d="M31.5,-8.09375 C29.7031,-11.4063 25.9063,-13.2031 21.2969,-13.2031 C17.9063,-13.2031 14.2031,-12.2031 10.5938,-10.2969 C4,-6.79688 0,-0.90625 0,4.20313 C0,5.59375 0.296875,7 1,8.29688 C2.79688,11.5938 6.59375,13.2969 11.2031,13.2969 C14.5938,13.2969 18.2969,12.4063 21.9063,10.5 C28.5,7 32.5,1.09375 32.5,-4 C32.5,-5.40625 32.2031,-6.79688 31.5,-8.09375"/>
<path class="Note" transform="matrix(2.492,0,0,2.492,1223.75,2056.52)" d="M31.5,-8.09375 C29.7031,-11.4063 25.9063,-13.2031 21.2969,-13.2031 C17.9063,-13.2031 14.2031,-12.2031 10.5938,-10.2969 C4,-6.79688 0,-0.90625 0,4.20313 C0,5.59375 0.296875,7 1,8.29688 C2.79688,11.5938 6.59375,13.2969 11.2031,13.2969 C14.5938,13.2969 18.2969,12.4063 21.9063,10.5 C28.5,7 32.5,1.09375 32.5,-4 C32.5,-5.40625 32.2031,-6.79688 31.5,-8.09375"/>
<path class="Note" transform="matrix(2.492,0,0,2.492,1484.18,1931.92)" d="M31.5,-8.09375 C29.7031,-11.4063 25.9063,-13.2031 21.2969,-13.2031 C17.9063,-13.2031 14.2031,-12.2031 10.5938,-10.2969 C4,-6.79688 0,-0.90625 0,4.20313 C0,5.59375 0.296875,7 1,8.29688 C2.79688,11.5938 6.59375,13.2969 11.2031,13.2969 C14.5938,13.2969 18.2969,12.4063 21.9063,10.5 C28.5,7 32.5,1.09375 32.5,-4 C32.5,-5.40625 32.2031,-6.79688 31.5,-8.09375"/>
<path class="Note" transform="matrix(2.492,0,0,2.492,1822.82,1931.92)" d="M31.5,-8.09375 C29.7031,-11.4063 25.9063,-13.2031 21.2969,-13.2031 C17.9063,-13.2031 14.2031,-12.2031 10.5938,-10.2969 C4,-6.79688 0,-0.90625 0,4.20313 C0,5.59375 0.296875,7 1,8.29688 C2.79688,11.5938 6.59375,13.2969 11.2031,13.2969 C14.5938,13.2969 18.2969,12.4063 21.9063,10.5 C28.5,7 32.5,1.09375 32.5,-4 C32.5,-5.40625 32.2031,-6.79688 31.5,-8.09375"/>
<path class="Note" transform="matrix(2.492,0,0,2.492,1988.27,1838.47)" d="M31.5,-8.09375 C29.7031,-11.4063 25.9063,-13.2031 21.2969,-13.2031 C17.9063,-13.2031 14.2031,-12.2031 10.5938,-10.2969 C4,-6.79688 0,-0.90625 0,4.20313 C0,5.59375 0.296875,7 1,8.29688 C2.79688,11.5938 6.59375,13.2969 11.2031,13.2969 C14.5938,13.2969 18.2969,12.4063 21.9063,10.5 C28.5,7 32.5,1.09375 32.5,-4 C32.5,-5.40625 32.2031,-6.79688 31.5,-8.09375"/>
<path class="Note" transform="matrix(2.492,0,0,2.492,2162.47,1869.62)" d="M31.5,-8.09375 C29.7031,-11.4063 25.9063,-13.2031 21.2969,-13.2031 C17.9063,-13.2031 14.2031,-12.2031 10.5938,-10.2969 C4,-6.79688 0,-0.90625 0,4.20313 C0,5.59375 0.296875,7 1,8.29688 C2.79688,11.5938 6.59375,13.2969 11.2031,13.2969 C14.5938,13.2969 18.2969,12.4063 21.9063,10.5 C28.5,7 32.5,1.09375 32.5,-4 C32.5,-5.40625 32.2031,-6.79688 31.5,-8.09375"/>
<path class="Note" transform="matrix(2.492,0,0,2.492,2501.11,1838.47)" d="M31.5,-8.09375 C29.7031,-11.4063 25.9063,-13.2031 21.2969,-13.2031 C17.9063,-13.2031 14.2031,-12.2031 10.5938,-10.2969 C4,-6.79688 0,-0.90625 0,4.20313 C0,5.59375 0.296875,7 1,8.29688 C2.79688,11.5938 6.59375,13.2969 11.2031,13.2969 C14.5938,13.2969 18.2969,12.4063 21.9063,10.5 C28.5,7 32.5,1.09375 32.5,-4 C32.5,-5.40625 32.2031,-6.79688 31.5,-8.09375"/>
<path class="Note" transform="matrix(2.492,0,0,2.492,2656.95,1869.62)" d="M31.5,-8.09375 C29.7031,-11.4063 25.9063,-13.2031 21.2969,-13.2031 C17.9063,-13.2031 14.2031,-12.2031 10.5938,-10.2969 C4,-6.79688 0,-0.90625 0,4.20313 C0,5.59375 0.296875,7 1,8.29688 C2.79688,11.5938 6.59375,13.2969 11.2031,13.2969 C14.5938,13.2969 18.2969,12.4063 21.9063,10.5 C28.5,7 32.5,1.09375 32.5,-4 C32.5,-5.40625 32.2031,-6.79688 31.5,-8.09375"/>
<path class="Note" transform="matrix(2.492,0,0,2.492,2754.35,1838.47)" d="M31.5,-8.09375 C29.7031,-11.4063 25.9063,-13.2031 21.2969,-13.2031 C17.9063,-13.2031 14.2031,-12.2031 10.5938,-10.2969 C4,-6.79688 0,-0.90625 0,4.20313 C0,5.59375 0.296875,7 1,8.29688 C2.79688,11.5938 6.59375,13.2969 11.2031,13.2969 C14.5938,13.2969 18.2969,12.4063 21.9063,10.5 C28.5,7 32.5,1.09375 32.5,-4 C32.5,-5.40625 32.2031,-6.79688 31.5,-8.09375"/>
<path class="Note" transform="matrix(2.492,0,0,2.492,3020.97,1838.47)" d="M31.5,-8.09375 C29.7031,-11.4063 25.9063,-13.2031 21.2969,-13.2031 C17.9063,-13.2031 14.2031,-12.2031 10.5938,-10.2969 C4,-6.79688 0,-0.90625 0,4.20313 C0,5.59375 0.296875,7 1,8.29688 C2.79688,11.5938 6.59375,13.2969 11.2031,13.2969 C14.5938,13.2969 18.2969,12.4063 21.9063,10.5 C28.5,7 32.5,1.09375 32.5,-4 C32.5,-5.40625 32.2031,-6.79688 31.5,-8.09375"/>
<path class="Note" transform="matrix(2.492,0,0,2.492,3139.64,1869.62)" d="M31.5,-8.09375 C29.7031,-11.4063 25.9063,-13.2031 21.2969,-13.2031 C17.9063,-13.2031 14.2031,-12.2031 10.5938,-10.2969 C4,-6.79688 0,-0.90625 0,4.20313 C0,5.59375 0.296875,7 1,8.29688 C2.79688,11.5938 6.59375,13.2969 11.2031,13.2969 C14.5938,13.2969 18.2969,12.4063 21.9063,10.5 C28.5,7 32.5,1.09375 32.5,-4 C32.5,-5.40625 32.2031,-6.79688 31.5,-8.09375"/>
<path class="Note" transform="matrix(2.492,0,0,2.492,3258.31,1900.77)" d="M31.5,-8.09375 C29.7031,-11.4063 25.9063,-13.2031 21.2969,-13.2031 C17.9063,-13.2031 14.2031,-12.2031 10.5938,-10.2969 C4,-6.79688 0,-0.90625 0,4.20313 C0,5.59375 0.296875,7 1,8.29688 C2.79688,11.5938 6.59375,13.2969 11.2031,13.2969 C14.5938,13.2969 18.2969,12.4063 21.9063,10.5 C28.5,7 32.5,1.09375 32.5,-4 C32.5,-5.40625 32.2031,-6.79688 31.5,-8.09375"/>
<path class="Note" transform="matrix(2.492,0,0,2.492,3376.98,1931.92)" d="M31.5,-8.09375 C29.7031,-11.4063 25.9063,-13.2031 21.2969,-13.2031 C17.9063,-13.2031 14.2031,-12.2031 10.5938,-10.2969 C4,-6.79688 0,-0.90625 0,4.20313 C0,5.59375 0.296875,7 1,8.29688 C2.79688,11.5938 6.59375,13.2969 11.2031,13.2969 C14.5938,13.2969 18.2969,12.4063 21.9063,10.5 C28.5,7 32.5,1.09375 32.5,-4 C32.5,-5.40625 32.2031,-6.79688 31.5,-8.09375"/>
<path class="Note" transform="matrix(2.492,0,0,2.492,3643.6,1963.07)" d="M31.5,-8.09375 C29.7031,-11.4063 25.9063,-13.2031 21.2969,-13.2031 C17.9063,-13.2031 14.2031,-12.2031 10.5938,-10.2969 C4,-6.79688 0,-0.90625 0,4.20313 C0,5.59375 0.296875,7 1,8.29688 C2.79688,11.5938 6.59375,13.2969 11.2031,13.2969 C14.5938,13.2969 18.2969,12.4063 21.9063,10.5 C28.5,7 32.5,1.09375 32.5,-4 C32.5,-5.40625 32.2031,-6.79688 31.5,-8.09375"/>
<path class="Note" transform="matrix(2.492,0,0,2.492,3799.44,1838.47)" d="M31.5,-8.09375 C29.7031,-11.4063 25.9063,-13.2031 21.2969,-13.2031 C17.9063,-13.2031 14.2031,-12.2031 10.5938,-10.2969 C4,-6.79688 0,-0.90625 0,4.20313 C0,5.59375 0.296875,7 1,8.29688 C2.79688,11.5938 6.59375,13.2969 11.2031,13.2969 C14.5938,13.2969 18.2969,12.4063 21.9063,10.5 C28.5,7 32.5,1.09375 32.5,-4 C32.5,-5.40625 32.2031,-6.79688 31.5,-8.09375"/>
<path class="Note" transform="matrix(2.492,0,0,2.492,3896.84,1900.77)" d="M31.5,-8.09375 C29.7031,-11.4063 25.9063,-13.2031 21.2969,-13.2031 C17.9063,-13.2031 14.2031,-12.2031 10.5938,-10.2969 C4,-6.79688 0,-0.90625 0,4.20313 C0,5.59375 0.296875,7 1,8.29688 C2.79688,11.5938 6.59375,13.2969 11.2031,13.2969 C14.5938,13.2969 18.2969,12.4063 21.9063,10.5 C28.5,7 32.5,1.09375 32.5,-4 C32.5,-5.40625 32.2031,-6.79688 31.5,-8.09375"/>
<path class="Clef" transform="matrix(2.492,0,0,2.492,120.706,592.47)" d="M25.4063,-25.0938 C17.7969,-25.0938 11.7031,-20.7031 11.5938,-20.7031 C5.79688,-16.4063 3.5,-11.2969 2.59375,-7.79688 C2.09375,-6 1.90625,-4.20313 1.90625,-2.5 C1.90625,-0.09375 2.29688,2.09375 3.20313,4 C4.40625,6.70313 6.70313,8.59375 9.70313,9.59375 C10.9063,10 12.2031,10.2031 13.5,10.2031 C15.7031,10.2031 18,9.59375 19.9063,8.5 C23,6.79688 24.9063,3.20313 24.9063,-0.703125 C24.9063,-4.20313 23.0938,-7.40625 20.0938,-9.29688 C18,-10.7031 16,-11.0938 14.2969,-11.0938 C13.0938,-11.0938 12,-10.9063 11.0938,-10.5938 C10.0938,-10.2031 8.40625,-9.20313 7.59375,-8.5 C7.90625,-10.4063 9.09375,-13.2969 10.2031,-14.9063 C11.2969,-16.5 13.5,-18.5 15.2031,-19.4063 C17.7031,-20.7969 20.9063,-21.4063 24.4063,-21.4063 C34.6094,-21.4063 39.6094,-13.2031 39.6094,3.59375 C39.6094,12.9063 36.1094,21.7969 33.1094,27.7031 C29.7969,34.2969 25.4063,40.6094 21.5,44.1094 C11.0938,53.6094 1.29688,58.1094 1.20313,58.1094 C1.20313,58.1094 -0.296875,59 0.09375,60.5 C0.40625,61.5 1.29688,61.7031 1.90625,61.7031 C2,61.7031 2.29688,61.6094 2.40625,61.6094 C2.5,61.6094 13.9063,56.9063 23,49.7969 C28.1094,46.1094 32.7031,42.1094 36.7031,37.7969 C40.2969,33.9063 43.4063,29.7031 45.9063,25.5 C50.2969,18 52.7969,10.2031 52.7969,3.5 C52.7969,-4.79688 50.6094,-11.7031 46.5,-16.5938 C41.7969,-22.2031 34.7031,-25.0938 25.4063,-25.0938 M56.7969,-12.4063 C56.7969,-9.59375 59,-7.40625 61.6094,-7.40625 C64.2031,-7.40625 66.4063,-9.59375 66.4063,-12.4063 C66.4063,-15.2031 64.2031,-17.5 61.6094,-17.5 C59,-17.5 56.7969,-15.2031 56.7969,-12.4063 M56.7969,12.2969 C56.7969,15.0938 59,17.4063 61.6094,17.4063 C64.2031,17.4063 66.4063,15.0938 66.4063,12.2969 C66.4063,9.5 64.2031,7.20313 61.6094,7.20313 C59,7.20313 56.7969,9.5 56.7969,12.2969"/>
<path class="Clef" transform="matrix(2.492,0,0,2.492,120.706,1776.17)" d="M25.4063,-25.0938 C17.7969,-25.0938 11.7031,-20.7031 11.5938,-20.7031 C5.79688,-16.4063 3.5,-11.2969 2.59375,-7.79688 C2.09375,-6 1.90625,-4.20313 1.90625,-2.5 C1.90625,-0.09375 2.29688,2.09375 3.20313,4 C4.40625,6.70313 6.70313,8.59375 9.70313,9.59375 C10.9063,10 12.2031,10.2031 13.5,10.2031 C15.7031,10.2031 18,9.59375 19.9063,8.5 C23,6.79688 24.9063,3.20313 24.9063,-0.703125 C24.9063,-4.20313 23.0938,-7.40625 20.0938,-9.29688 C18,-10.7031 16,-11.0938 14.2969,-11.0938 C13.0938,-11.0938 12,-10.9063 11.0938,-10.5938 C10.0938,-10.2031 8.40625,-9.20313 7.59375,-8.5 C7.90625,-10.4063 9.09375,-13.2969 10.2031,-14.9063 C11.2969,-16.5 13.5,-18.5 15.2031,-19.4063 C17.7031,-20.7969 20.9063,-21.4063 24.4063,-21.4063 C34.6094,-21.4063 39.6094,-13.2031 39.6094,3.59375 C39.6094,12.9063 36.1094,21.7969 33.1094,27.7031 C29.7969,34.2969 25.4063,40.6094 21.5,44.1094 C11.0938,53.6094 1.29688,58.1094 1.20313,58.1094 C1.20313,58.1094 -0.296875,59 0.09375,60.5 C0.40625,61.5 1.29688,61.7031 1.90625,61.7031 C2,61.7031 2.29688,61.6094 2.40625,61.6094 C2.5,61.6094 13.9063,56.9063 23,49.7969 C28.1094,46.1094 32.7031,42.1094 36.7031,37.7969 C40.2969,33.9063 43.4063,29.7031 45.9063,25.5 C50.2969,18 52.7969,10.2031 52.7969,3.5 C52.7969,-4.79688 50.6094,-11.7031 46.5,-16.5938 C41.7969,-22.2031 34.7031,-25.0938 25.4063,-25.0938 M56.7969,-12.4063 C56.7969,-9.59375 59,-7.40625 61.6094,-7.40625 C64.2031,-7.40625 66.4063,-9.59375 66.4063,-12.4063 C66.4063,-15.2031 64.2031,-17.5 61.6094,-17.5 C59,-17.5 56.7969,-15.2031 56.7969,-12.4063 M56.7969,12.2969 C56.7969,15.0938 59,17.4063 61.6094,17.4063 C64.2031,17.4063 66.4063,15.0938 66.4063,12.2969 C66.4063,9.5 64.2031,7.20313 61.6094,7.20313 C59,7.20313 56.7969,9.5 56.7969,12.2969"/>
<path class="KeySig" transform="matrix(2.492,0,0,2.492,410.771,623.62)" d="M20.0938,-7.90625 C19.5,-11.7969 17.0938,-15.5 12,-15.5 C7,-15.5 4.09375,-12.4063 3.59375,-11.7969 L4,-43.9063 C4,-44.7031 3.40625,-45.2969 2.59375,-45.2969 L1.40625,-45.2969 C0.59375,-45.2969 0,-44.7031 0,-43.9063 L0.5,16.2031 C0.5,17 1.09375,17.5938 1.90625,17.5938 C2.09375,17.5938 2.5,17.5 2.70313,17.4063 C3.09375,17.2031 9.59375,14 15,7.90625 C18.7969,3.59375 20.2969,-1.29688 20.2969,-5.40625 C20.2969,-6.29688 20.2031,-7.09375 20.0938,-7.90625 M13.2031,-4 C13.2031,-2.5 12.7969,2.09375 10.2969,5.90625 C8.59375,8.5 5.20313,11.2031 3.29688,12.7031 L3.59375,-6.79688 C3.79688,-7.70313 5.29688,-10.5938 9.29688,-10.5938 C12.9063,-10.5938 13.2031,-7.20313 13.2031,-5.09375 L13.2031,-4 "/>
<path class="KeySig" transform="matrix(2.492,0,0,2.492,348.471,717.07)" d="M20.0938,-7.90625 C19.5,-11.7969 17.0938,-15.5 12,-15.5 C7,-15.5 4.09375,-12.4063 3.59375,-11.7969 L4,-43.9063 C4,-44.7031 3.40625,-45.2969 2.59375,-45.2969 L1.40625,-45.2969 C0.59375,-45.2969 0,-44.7031 0,-43.9063 L0.5,16.2031 C0.5,17 1.09375,17.5938 1.90625,17.5938 C2.09375,17.5938 2.5,17.5 2.70313,17.4063 C3.09375,17.2031 9.59375,14 15,7.90625 C18.7969,3.59375 20.2969,-1.29688 20.2969,-5.40625 C20.2969,-6.29688 20.2031,-7.09375 20.0938,-7.90625 M13.2031,-4 C13.2031,-2.5 12.7969,2.09375 10.2969,5.90625 C8.59375,8.5 5.20313,11.2031 3.29688,12.7031 L3.59375,-6.79688 C3.79688,-7.70313 5.29688,-10.5938 9.29688,-10.5938 C12.9063,-10.5938 13.2031,-7.20313 13.2031,-5.09375 L13.2031,-4 "/>
<path class="KeySig" transform="matrix(2.492,0,0,2.492,410.771,1807.32)" d="M20.0938,-7.90625 C19.5,-11.7969 17.0938,-15.5 12,-15.5 C7,-15.5 4.09375,-12.4063 3.59375,-11.7969 L4,-43.9063 C4,-44.7031 3.40625,-45.2969 2.59375,-45.2969 L1.40625,-45.2969 C0.59375,-45.2969 0,-44.7031 0,-43.9063 L0.5,16.2031 C0.5,17 1.09375,17.5938 1.90625,17.5938 C2.09375,17.5938 2.5,17.5 2.70313,17.4063 C3.09375,17.2031 9.59375,14 15,7.90625 C18.7969,3.59375 20.2969,-1.29688 20.2969,-5.40625 C20.2969,-6.29688 20.2031,-7.09375 20.0938,-7.90625 M13.2031,-4 C13.2031,-2.5 12.7969,2.09375 10.2969,5.90625 C8.59375,8.5 5.20313,11.2031 3.29688,12.7031 L3.59375,-6.79688 C3.79688,-7.70313 5.29688,-10.5938 9.29688,-10.5938 C12.9063,-10.5938 13.2031,-7.20313 13.2031,-5.09375 L13.2031,-4 "/>
<path class="KeySig" transform="matrix(2.492,0,0,2.492,348.471,1900.77)" d="M20.0938,-7.90625 C19.5,-11.7969 17.0938,-15.5 12,-15.5 C7,-15.5 4.09375,-12.4063 3.59375,-11.7969 L4,-43.9063 C4,-44.7031 3.40625,-45.2969 2.59375,-45.2969 L1.40625,-45.2969 C0.59375,-45.2969 0,-44.7031 0,-43.9063 L0.5,16.2031 C0.5,17 1.09375,17.5938 1.90625,17.5938 C2.09375,17.5938 2.5,17.5 2.70313,17.4063 C3.09375,17.2031 9.59375,14 15,7.90625 C18.7969,3.59375 20.2969,-1.29688 20.2969,-5.40625 C20.2969,-6.29688 20.2031,-7.09375 20.0938,-7.90625 M13.2031,-4 C13.2031,-2.5 12.7969,2.09375 10.2969,5.90625 C8.59375,8.5 5.20313,11.2031 3.29688,12.7031 L3.59375,-6.79688 C3.79688,-7.70313 5.29688,-10.5938 9.29688,-10.5938 C12.9063,-10.5938 13.2031,-7.20313 13.2031,-5.09375 L13.2031,-4 "/>
<path class="TimeSig" transform="matrix(2.492,0,0,2.492,528.44,593.716)" d="M34.2031,3.90625 C33.4063,6.09375 31.4063,13.2969 26.5,13.2969 C20,13.2969 18.5938,9.29688 13.2031,9.29688 C12.4063,9.29688 11.5938,9.40625 10.5938,9.59375 C10.5938,9.59375 13.0938,5.79688 23.7031,2.5 C34.2969,-0.796875 37,-6 37,-12 C37,-16.2031 35.1094,-24.5 20,-24.5 C4.90625,-24.5 2.09375,-15.4063 2.09375,-10.7969 C2.09375,-6.70313 5.5,-3.40625 9.59375,-3.40625 C13.7031,-3.40625 17,-6.70313 17,-10.7969 C17,-13.5938 15,-16.7031 12.4063,-17.7031 C12.0938,-17.7969 11.7031,-18.2969 11.7031,-18.7969 C11.7031,-19.4063 12.2031,-20.0938 14,-20.5938 C14.5,-20.7969 15.9063,-21.0938 17.4063,-21.0938 C18.7969,-21.0938 20.4063,-20.7969 21.5938,-20 C23.5,-18.7969 24.2031,-17 24.2031,-12.5 C24.2031,-0.796875 10.2969,1.70313 4.5,10.4063 C4.5,10.4063 1.5,14.5938 1.5,19.2969 C1.5,24 3.90625,24.2969 5.09375,24.2969 C6.70313,24.2969 8.40625,23 8.40625,21.2031 C8.40625,20.7969 8.29688,20.4063 8.09375,19.9063 C7.5,18.5 7.29688,17.4063 7.29688,16.5938 C7.29688,16.2969 7.29688,16 7.40625,15.7031 C7.5,15.0938 8.29688,14.0938 10.7031,14.0938 C13.5938,14.0938 14.7031,17.5 16.5,20.0938 C18.2969,22.7031 21.0938,24.2969 24.2969,24.2969 C27.5,24.2969 31.7969,22 33.6094,18.2969 C35.4063,14.5938 37.7031,7.09375 37.7031,4.40625 C37.7031,3.09375 36.9063,2.5 36,2.5 C35.2969,2.5 34.6094,2.90625 34.2031,3.90625"/>
<path class="TimeSig" transform="matrix(2.492,0,0,2.492,520.224,716.739)" d="M3.59375,12.625 L20.7656,12.625 L20.7656,20.0781 L12.5469,20.0781 C11.7656,20.0781 11.125,20.7031 11.125,21.4844 L11.125,23.3906 C11.125,24.1719 11.7656,24.7969 12.5469,24.7969 L42.7969,24.7969 C43.5781,24.7969 44.2031,24.1719 44.2031,23.3906 L44.2031,21.4844 C44.2031,20.7031 43.5781,20.0781 42.7969,20.0781 L33.8594,20.0781 L33.8594,12.625 L42.7969,12.625 C43.5781,12.625 44.2031,12 44.2031,11.2188 L44.2031,9.3125 C44.2031,8.53125 43.5781,7.90625 42.7969,7.90625 L33.8594,7.90625 L33.8594,-8.0625 C33.8594,-8.59375 33.5469,-9.07813 33.0781,-9.3125 L31.8594,-9.92188 C31.3281,-10.1719 30.7031,-10.0781 30.2656,-9.6875 L21.2188,-1.375 C20.9375,-1.09375 20.7656,-0.734375 20.7656,-0.328125 L20.7656,7.90625 L9.25,7.90625 C9.25,7.90625 20.375,-4.125 32.2188,-19.8906 C33.0781,-21.0469 32.5781,-22.0938 32.3906,-22.2813 L30.2188,-24.4844 C29.9531,-24.75 29.5938,-24.9063 29.2188,-24.9063 C28.625,-24.9063 15.0625,-24.875 14.3438,-24.9063 C13.625,-24.9219 13.0938,-24.2969 13.0156,-23.6875 C13.0156,-23.6875 12.4844,-16.3281 9.875,-8.1875 C7.28125,-0.078125 4.34375,4.90625 1.6875,8.53125 C1.6875,8.53125 1.14063,9.51563 1.5,10.2656 C1.84375,11.0156 2.48438,12.0938 2.48438,12.0938 C2.48438,12.0938 2.73438,12.625 3.59375,12.625"/>
<path class="Rest" transform="matrix(2.492,0,0,2.492,711.349,654.77)" d="M26.7344,-20.2656 C25.9844,-20.5469 25.3125,-20.2031 24.9844,-19.5938 C24.6563,-18.9844 21.4688,-13.0625 17.0469,-9.79688 C15.6563,-8.78125 14.0625,-8.14063 12.5,-7.8125 C13.625,-9.0625 14.2969,-10.7344 14.2969,-12.5469 C14.2969,-16.5 11.0938,-19.7031 7.15625,-19.7031 C3.20313,-19.7031 0,-16.5 0,-12.5469 C0,-9.54688 1.875,-6.95313 4.51563,-5.90625 C6.04688,-5.1875 7.95313,-4.73438 10,-4.73438 C12.8438,-4.73438 15.9531,-5.5625 18.6719,-7.5625 C19.9375,-8.48438 21.125,-9.6875 22.2031,-10.9375 L10.8125,24.6875 L13.4531,25.5469 L27.5313,-18.5469 C27.7656,-19.2813 27.4688,-19.9688 26.7344,-20.2656"/>
<path class="Rest" transform="matrix(2.492,0,0,2.492,1384.01,1838.47)" d="M26.7344,-20.2656 C25.9844,-20.5469 25.3125,-20.2031 24.9844,-19.5938 C24.6563,-18.9844 21.4688,-13.0625 17.0469,-9.79688 C15.6563,-8.78125 14.0625,-8.14063 12.5,-7.8125 C13.625,-9.0625 14.2969,-10.7344 14.2969,-12.5469 C14.2969,-16.5 11.0938,-19.7031 7.15625,-19.7031 C3.20313,-19.7031 0,-16.5 0,-12.5469 C0,-9.54688 1.875,-6.95313 4.51563,-5.90625 C6.04688,-5.1875 7.95313,-4.73438 10,-4.73438 C12.8438,-4.73438 15.9531,-5.5625 18.6719,-7.5625 C19.9375,-8.48438 21.125,-9.6875 22.2031,-10.9375 L10.8125,24.6875 L13.4531,25.5469 L27.5313,-18.5469 C27.7656,-19.2813 27.4688,-19.9688 26.7344,-20.2656"/>
<path class="Beam" fill-rule="evenodd" d="M2699.77,569.462 L2802.68,636.206 L2802.68,673.334 L2699.77,606.589 L2699.77,569.462 "/>
<path class="Beam" fill-rule="evenodd" d="M2731.07,1652.47 L2835.32,1635.8 L2835.32,1667.34 L2731.07,1684.01 L2731.07,1652.47 "/>
<path class="Beam" fill-rule="evenodd" d="M3095.09,1634.96 L3220.61,1651.44 L3220.61,1682.85 L3095.09,1666.38 L3095.09,1634.96 "/>
<path class="Beam" fill-rule="evenodd" d="M3332.43,1697.26 L3457.95,1713.74 L3457.95,1745.15 L3332.43,1728.68 L3332.43,1697.26 "/>
<path class="Beam" fill-rule="evenodd" d="M3873.56,1628.7 L3977.81,1695.38 L3977.81,1732.36 L3873.56,1665.68 L3873.56,1628.7 "/>
<path class="Hook" transform="matrix(2.492,0,0,2.492,1042.42,530.17)" d="M3.5,3.5 C3.40625,3.20313 2.5,-0.296875 2.5,-0.5 C2.40625,-0.90625 1.79688,-1.20313 1.29688,-1.20313 C0.59375,-1.20313 0,-0.59375 0,0.09375 L0,16.5 L0,22.7031 C0,23.2031 0.40625,23.5938 0.796875,23.7969 C5,25.0938 13.7031,30.6094 20.2031,41.7031 C22,44.7969 24.9063,49 24.9063,57.4063 C24.9063,64.6094 23.7969,72.2031 22,79.2031 C21.7031,80.3125 21.4063,81.3125 22.5,81.7031 C23.5938,82.1094 24,81.3125 24.4063,80.3125 C28,71.5 28.9063,62.2969 28.9063,56.1094 L28.9063,54.2031 C28.4063,41.2969 21,31.7969 21,31.7969 C21.2969,31.7969 11.7969,19.5 9.09375,15.2969 C5.40625,9.59375 3.59375,3.90625 3.5,3.5"/>
<path class="Hook" transform="matrix(2.492,0,0,2.492,1631.16,654.77)" d="M3.5,3.5 C3.40625,3.20313 2.5,-0.296875 2.5,-0.5 C2.40625,-0.90625 1.79688,-1.20313 1.29688,-1.20313 C0.59375,-1.20313 0,-0.59375 0,0.09375 L0,16.5 L0,22.7031 C0,23.2031 0.40625,23.5938 0.796875,23.7969 C5,25.0938 13.7031,30.6094 20.2031,41.7031 C22,44.7969 24.9063,49 24.9063,57.4063 C24.9063,64.6094 23.7969,72.2031 22,79.2031 C21.7031,80.3125 21.4063,81.3125 22.5,81.7031 C23.5938,82.1094 24,81.3125 24.4063,80.3125 C28,71.5 28.9063,62.2969 28.9063,56.1094 L28.9063,54.2031 C28.4063,41.2969 21,31.7969 21,31.7969 C21.2969,31.7969 11.7969,19.5 9.09375,15.2969 C5.40625,9.59375 3.59375,3.90625 3.5,3.5"/>
<path class="Hook" transform="matrix(2.492,0,0,2.492,2207.44,654.77)" d="M3.5,3.5 C3.40625,3.20313 2.5,-0.296875 2.5,-0.5 C2.40625,-0.90625 1.79688,-1.20313 1.29688,-1.20313 C0.59375,-1.20313 0,-0.59375 0,0.09375 L0,16.5 L0,22.7031 C0,23.2031 0.40625,23.5938 0.796875,23.7969 C5,25.0938 13.7031,30.6094 20.2031,41.7031 C22,44.7969 24.9063,49 24.9063,57.4063 C24.9063,64.6094 23.7969,72.2031 22,79.2031 C21.7031,80.3125 21.4063,81.3125 22.5,81.7031 C23.5938,82.1094 24,81.3125 24.4063,80.3125 C28,71.5 28.9063,62.2969 28.9063,56.1094 L28.9063,54.2031 C28.4063,41.2969 21,31.7969 21,31.7969 C21.2969,31.7969 11.7969,19.5 9.09375,15.2969 C5.40625,9.59375 3.59375,3.90625 3.5,3.5"/>
<path class="Hook" transform="matrix(2.492,0,0,2.492,3377.79,654.77)" d="M3.5,3.5 C3.40625,3.20313 2.5,-0.296875 2.5,-0.5 C2.40625,-0.90625 1.79688,-1.20313 1.29688,-1.20313 C0.59375,-1.20313 0,-0.59375 0,0.09375 L0,16.5 L0,22.7031 C0,23.2031 0.40625,23.5938 0.796875,23.7969 C5,25.0938 13.7031,30.6094 20.2031,41.7031 C22,44.7969 24.9063,49 24.9063,57.4063 C24.9063,64.6094 23.7969,72.2031 22,79.2031 C21.7031,80.3125 21.4063,81.3125 22.5,81.7031 C23.5938,82.1094 24,81.3125 24.4063,80.3125 C28,71.5 28.9063,62.2969 28.9063,56.1094 L28.9063,54.2031 C28.4063,41.2969 21,31.7969 21,31.7969 C21.2969,31.7969 11.7969,19.5 9.09375,15.2969 C5.40625,9.59375 3.59375,3.90625 3.5,3.5"/>
<path class="Hook" transform="matrix(2.492,0,0,2.492,3954.07,506.808)" d="M3.5,3.5 C3.40625,3.20313 2.5,-0.296875 2.5,-0.5 C2.40625,-0.90625 1.79688,-1.20313 1.29688,-1.20313 C0.59375,-1.20313 0,-0.59375 0,0.09375 L0,16.5 L0,22.7031 C0,23.2031 0.40625,23.5938 0.796875,23.7969 C5,25.0938 13.7031,30.6094 20.2031,41.7031 C22,44.7969 24.9063,49 24.9063,57.4063 C24.9063,64.6094 23.7969,72.2031 22,79.2031 C21.7031,80.3125 21.4063,81.3125 22.5,81.7031 C23.5938,82.1094 24,81.3125 24.4063,80.3125 C28,71.5 28.9063,62.2969 28.9063,56.1094 L28.9063,54.2031 C28.4063,41.2969 21,31.7969 21,31.7969 C21.2969,31.7969 11.7969,19.5 9.09375,15.2969 C5.40625,9.59375 3.59375,3.90625 3.5,3.5"/>
<path class="Hook" transform="matrix(2.492,0,0,2.492,597.768,1690.51)" d="M3.5,3.5 C3.40625,3.20313 2.5,-0.296875 2.5,-0.5 C2.40625,-0.90625 1.79688,-1.20313 1.29688,-1.20313 C0.59375,-1.20313 0,-0.59375 0,0.09375 L0,16.5 L0,22.7031 C0,23.2031 0.40625,23.5938 0.796875,23.7969 C5,25.0938 13.7031,30.6094 20.2031,41.7031 C22,44.7969 24.9063,49 24.9063,57.4063 C24.9063,64.6094 23.7969,72.2031 22,79.2031 C21.7031,80.3125 21.4063,81.3125 22.5,81.7031 C23.5938,82.1094 24,81.3125 24.4063,80.3125 C28,71.5 28.9063,62.2969 28.9063,56.1094 L28.9063,54.2031 C28.4063,41.2969 21,31.7969 21,31.7969 C21.2969,31.7969 11.7969,19.5 9.09375,15.2969 C5.40625,9.59375 3.59375,3.90625 3.5,3.5"/>
<path class="Hook" transform="matrix(2.492,0,0,2.492,937.42,1690.51)" d="M3.5,3.5 C3.40625,3.20313 2.5,-0.296875 2.5,-0.5 C2.40625,-0.90625 1.79688,-1.20313 1.29688,-1.20313 C0.59375,-1.20313 0,-0.59375 0,0.09375 L0,16.5 L0,22.7031 C0,23.2031 0.40625,23.5938 0.796875,23.7969 C5,25.0938 13.7031,30.6094 20.2031,41.7031 C22,44.7969 24.9063,49 24.9063,57.4063 C24.9063,64.6094 23.7969,72.2031 22,79.2031 C21.7031,80.3125 21.4063,81.3125 22.5,81.7031 C23.5938,82.1094 24,81.3125 24.4063,80.3125 C28,71.5 28.9063,62.2969 28.9063,56.1094 L28.9063,54.2031 C28.4063,41.2969 21,31.7969 21,31.7969 C21.2969,31.7969 11.7969,19.5 9.09375,15.2969 C5.40625,9.59375 3.59375,3.90625 3.5,3.5"/>
<path class="Hook" transform="matrix(2.492,0,0,2.492,1558.3,1713.87)" d="M3.5,3.5 C3.40625,3.20313 2.5,-0.296875 2.5,-0.5 C2.40625,-0.90625 1.79688,-1.20313 1.29688,-1.20313 C0.59375,-1.20313 0,-0.59375 0,0.09375 L0,16.5 L0,22.7031 C0,23.2031 0.40625,23.5938 0.796875,23.7969 C5,25.0938 13.7031,30.6094 20.2031,41.7031 C22,44.7969 24.9063,49 24.9063,57.4063 C24.9063,64.6094 23.7969,72.2031 22,79.2031 C21.7031,80.3125 21.4063,81.3125 22.5,81.7031 C23.5938,82.1094 24,81.3125 24.4063,80.3125 C28,71.5 28.9063,62.2969 28.9063,56.1094 L28.9063,54.2031 C28.4063,41.2969 21,31.7969 21,31.7969 C21.2969,31.7969 11.7969,19.5 9.09375,15.2969 C5.40625,9.59375 3.59375,3.90625 3.5,3.5"/>
<path class="Hook" transform="matrix(2.492,0,0,2.492,1896.94,1713.87)" d="M3.5,3.5 C3.40625,3.20313 2.5,-0.296875 2.5,-0.5 C2.40625,-0.90625 1.79688,-1.20313 1.29688,-1.20313 C0.59375,-1.20313 0,-0.59375 0,0.09375 L0,16.5 L0,22.7031 C0,23.2031 0.40625,23.5938 0.796875,23.7969 C5,25.0938 13.7031,30.6094 20.2031,41.7031 C22,44.7969 24.9063,49 24.9063,57.4063 C24.9063,64.6094 23.7969,72.2031 22,79.2031 C21.7031,80.3125 21.4063,81.3125 22.5,81.7031 C23.5938,82.1094 24,81.3125 24.4063,80.3125 C28,71.5 28.9063,62.2969 28.9063,56.1094 L28.9063,54.2031 C28.4063,41.2969 21,31.7969 21,31.7969 C21.2969,31.7969 11.7969,19.5 9.09375,15.2969 C5.40625,9.59375 3.59375,3.90625 3.5,3.5"/>
<path class="Hook" transform="matrix(2.492,0,0,2.492,2236.59,1667.14)" d="M3.5,3.5 C3.40625,3.20313 2.5,-0.296875 2.5,-0.5 C2.40625,-0.90625 1.79688,-1.20313 1.29688,-1.20313 C0.59375,-1.20313 0,-0.59375 0,0.09375 L0,16.5 L0,22.7031 C0,23.2031 0.40625,23.5938 0.796875,23.7969 C5,25.0938 13.7031,30.6094 20.2031,41.7031 C22,44.7969 24.9063,49 24.9063,57.4063 C24.9063,64.6094 23.7969,72.2031 22,79.2031 C21.7031,80.3125 21.4063,81.3125 22.5,81.7031 C23.5938,82.1094 24,81.3125 24.4063,80.3125 C28,71.5 28.9063,62.2969 28.9063,56.1094 L28.9063,54.2031 C28.4063,41.2969 21,31.7969 21,31.7969 C21.2969,31.7969 11.7969,19.5 9.09375,15.2969 C5.40625,9.59375 3.59375,3.90625 3.5,3.5"/>
<path class="Jump" d="M3939.46,1620.77 L3985.84,1620.77 C3998.12,1620.77 4007.49,1618.83 4014.81,1614.69 C4028.74,1606.83 4036.48,1591.09 4036.48,1570.39 C4036.48,1551.34 4029.57,1536.45 4016.88,1528.17 C4009.29,1523.34 3999.09,1521.13 3983.35,1521.13 L3939.46,1521.13 L3939.46,1527.61 L3942.09,1527.61 C3949.82,1527.75 3952.43,1528.17 3953.54,1529.55 C3954.37,1530.8 3954.37,1531.06 3954.37,1538.11 L3954.37,1603.8 C3954.37,1610.83 3954.37,1611.11 3953.54,1612.34 C3952.43,1613.74 3949.82,1614.14 3942.09,1614.28 L3939.46,1614.28 L3939.46,1620.77 M3977.7,1614.28 C3970.65,1614.28 3969.82,1613.45 3969.82,1606.69 L3969.82,1535.34 C3969.82,1528.58 3970.79,1527.61 3977.7,1527.61 L3984.87,1527.61 C4008.46,1527.61 4018.26,1540.45 4018.26,1570.95 C4018.26,1601.86 4009.43,1614.28 3987.07,1614.28 L3977.7,1614.28 M4061.73,1605.45 C4056.9,1605.45 4053.04,1609.31 4053.04,1614 C4053.04,1618.83 4056.9,1622.7 4061.59,1622.7 C4066.42,1622.7 4070.29,1618.83 4070.29,1614 C4070.29,1609.31 4066.42,1605.45 4061.73,1605.45 M4169.37,1520.16 L4164.12,1520.16 L4158.6,1528.31 C4148.52,1520.99 4143.42,1519.06 4133.9,1519.06 C4120.79,1519.06 4109.6,1524.58 4100.37,1535.63 C4091.52,1546.11 4087.38,1557.7 4087.38,1571.91 C4087.38,1601.72 4106.85,1622.83 4134.04,1622.83 C4156.12,1622.83 4170.2,1609.86 4173.37,1586.67 L4166.88,1585.58 C4163.15,1606.14 4152.67,1616.34 4135.7,1616.34 C4115.27,1616.34 4105.6,1602.28 4105.6,1572.47 C4105.6,1556.74 4107.68,1546.39 4112.37,1538.11 C4116.65,1530.38 4125.07,1525.55 4134.04,1525.55 C4143.7,1525.55 4152.24,1530.66 4157.49,1539.49 C4160.12,1544.03 4162.06,1549.14 4165.37,1560.05 L4171.43,1560.05 L4169.37,1520.16 M4199.02,1605.45 C4194.2,1605.45 4190.34,1609.31 4190.34,1614 C4190.34,1618.83 4194.2,1622.7 4198.88,1622.7 C4203.71,1622.7 4207.59,1618.83 4207.59,1614 C4207.59,1609.31 4203.71,1605.45 4199.02,1605.45"/>
<path class="Fingering" d="M851.85,114.064 C832.537,114.064 818.459,135.048 818.459,164.017 C818.459,192.455 832.115,213.283 850.756,213.283 C870.068,213.283 883.6,193.142 883.6,164.439 C883.6,149.814 880.553,137.673 874.756,128.142 C869.381,119.455 860.553,114.064 851.85,114.064 M850.881,120.001 C855.443,120.001 859.865,123.033 863.178,128.564 C866.896,135.048 868.131,142.908 868.131,161.814 C868.131,181.267 867.178,190.376 864.412,196.455 C861.24,203.22 856.271,207.361 851.021,207.361 C846.334,207.361 842.053,204.314 838.74,198.798 C834.881,192.314 833.771,183.751 833.771,161.126 C833.771,144.986 834.74,136.97 837.506,130.908 C840.678,124.001 845.646,120.001 850.881,120.001"/>
<path class="Fingering" d="M1041.47,206.658 L1035.41,206.658 L1034.02,213.704 C1032.22,222.673 1031.13,223.501 1022.57,223.501 L991.662,223.501 C1001.18,213.564 1004.35,210.658 1013.19,203.767 C1025.74,194.111 1031.13,189.267 1034.3,185.126 C1038.72,179.064 1040.93,172.986 1040.93,166.22 C1040.93,150.501 1027.96,139.314 1009.88,139.314 C992.349,139.314 978.959,150.501 978.959,165.267 C978.959,173.954 983.381,179.892 989.865,179.892 C994.974,179.892 998.428,176.439 998.428,171.47 C998.428,168.017 996.49,164.845 993.584,163.611 C988.49,161.533 988.209,161.267 988.209,159.47 C988.209,157.392 989.584,154.22 991.521,151.876 C994.974,147.595 1000.63,145.251 1007.12,145.251 C1018.57,145.251 1025.33,152.283 1025.33,163.876 C1025.33,174.095 1020.51,183.345 1009.05,195.486 C998.834,206.251 992.49,213.017 990.146,215.626 C985.178,221.423 982.693,224.595 976.615,232.611 L976.615,236.47 L1038.85,236.47 L1041.47,206.658 "/>
<path class="Fingering" d="M1346.13,183.814 C1341.44,189.47 1328.74,193.752 1316.05,194.033 L1316.05,199.97 L1328.19,199.97 C1336.19,200.095 1337.02,200.923 1336.74,208.658 L1336.74,264.002 C1336.74,271.033 1336.74,271.314 1335.91,272.548 C1334.82,273.939 1332.19,274.486 1324.46,274.486 L1315.49,274.486 L1315.49,280.97 L1370.14,280.97 L1370.14,274.486 L1362.55,274.486 C1354.82,274.486 1352.21,273.939 1351.1,272.548 C1350.13,271.314 1350.13,271.173 1350.13,264.002 L1350.13,207.002 C1350.13,199.267 1350.41,192.783 1351.1,183.814 L1346.13,183.814 M1448.1,251.158 L1442.04,251.158 L1440.64,258.205 C1438.85,267.173 1437.75,268.002 1429.19,268.002 L1398.29,268.002 C1407.8,258.064 1410.97,255.158 1419.82,248.267 C1432.36,238.611 1437.75,233.767 1440.93,229.627 C1445.35,223.564 1447.55,217.486 1447.55,210.72 C1447.55,195.002 1434.58,183.814 1416.5,183.814 C1398.97,183.814 1385.58,195.002 1385.58,209.767 C1385.58,218.455 1390,224.392 1396.49,224.392 C1401.6,224.392 1405.05,220.939 1405.05,215.97 C1405.05,212.517 1403.11,209.345 1400.21,208.111 C1395.11,206.033 1394.83,205.767 1394.83,203.97 C1394.83,201.892 1396.21,198.72 1398.14,196.377 C1401.6,192.095 1407.25,189.752 1413.74,189.752 C1425.19,189.752 1431.96,196.783 1431.96,208.377 C1431.96,218.595 1427.13,227.845 1415.68,239.986 C1405.46,250.752 1399.11,257.517 1396.77,260.127 C1391.8,265.923 1389.32,269.095 1383.24,277.111 L1383.24,280.97 L1445.47,280.97 L1448.1,251.158 "/>
<path class="Fingering" d="M1561.96,295.064 C1557.28,300.72 1544.57,305.001 1531.89,305.282 L1531.89,311.22 L1544.03,311.22 C1552.03,311.345 1552.85,312.173 1552.57,319.907 L1552.57,375.251 C1552.57,382.282 1552.57,382.564 1551.74,383.798 C1550.65,385.189 1548.03,385.736 1540.29,385.736 L1531.32,385.736 L1531.32,392.22 L1585.98,392.22 L1585.98,385.736 L1578.39,385.736 C1570.65,385.736 1568.04,385.189 1566.93,383.798 C1565.96,382.564 1565.96,382.423 1565.96,375.251 L1565.96,318.251 C1565.96,310.517 1566.24,304.032 1566.93,295.064 L1561.96,295.064 M1663.93,362.407 L1657.87,362.407 L1656.48,369.454 C1654.68,378.423 1653.59,379.251 1645.03,379.251 L1614.12,379.251 C1623.64,369.314 1626.81,366.407 1635.65,359.517 C1648.2,349.861 1653.59,345.017 1656.76,340.876 C1661.18,334.814 1663.39,328.736 1663.39,321.97 C1663.39,306.251 1650.42,295.064 1632.34,295.064 C1614.81,295.064 1601.42,306.251 1601.42,321.017 C1601.42,329.704 1605.84,335.642 1612.32,335.642 C1617.43,335.642 1620.89,332.189 1620.89,327.22 C1620.89,323.767 1618.95,320.595 1616.04,319.361 C1610.95,317.282 1610.67,317.017 1610.67,315.22 C1610.67,313.142 1612.04,309.97 1613.98,307.626 C1617.43,303.345 1623.09,301.001 1629.57,301.001 C1641.03,301.001 1647.79,308.032 1647.79,319.626 C1647.79,329.845 1642.96,339.095 1631.51,351.236 C1621.29,362.001 1614.95,368.767 1612.6,371.376 C1607.64,377.173 1605.15,380.345 1599.07,388.361 L1599.07,392.22 L1661.31,392.22 L1663.93,362.407 "/>
<path class="Fingering" d="M2138.24,295.064 C2133.56,300.72 2120.85,305.001 2108.16,305.282 L2108.16,311.22 L2120.31,311.22 C2128.31,311.345 2129.13,312.173 2128.85,319.907 L2128.85,375.251 C2128.85,382.282 2128.85,382.564 2128.02,383.798 C2126.93,385.189 2124.31,385.736 2116.57,385.736 L2107.6,385.736 L2107.6,392.22 L2162.26,392.22 L2162.26,385.736 L2154.66,385.736 C2146.93,385.736 2144.32,385.189 2143.21,383.798 C2142.24,382.564 2142.24,382.423 2142.24,375.251 L2142.24,318.251 C2142.24,310.517 2142.52,304.032 2143.21,295.064 L2138.24,295.064 M2240.21,362.407 L2234.15,362.407 L2232.76,369.454 C2230.96,378.423 2229.87,379.251 2221.31,379.251 L2190.4,379.251 C2199.91,369.314 2203.09,366.407 2211.93,359.517 C2224.48,349.861 2229.87,345.017 2233.04,340.876 C2237.46,334.814 2239.66,328.736 2239.66,321.97 C2239.66,306.251 2226.7,295.064 2208.62,295.064 C2191.09,295.064 2177.7,306.251 2177.7,321.017 C2177.7,329.704 2182.12,335.642 2188.6,335.642 C2193.71,335.642 2197.16,332.189 2197.16,327.22 C2197.16,323.767 2195.23,320.595 2192.32,319.361 C2187.23,317.282 2186.95,317.017 2186.95,315.22 C2186.95,313.142 2188.32,309.97 2190.26,307.626 C2193.71,303.345 2199.37,301.001 2205.85,301.001 C2217.31,301.001 2224.07,308.032 2224.07,319.626 C2224.07,329.845 2219.24,339.095 2207.79,351.236 C2197.57,362.001 2191.23,368.767 2188.88,371.376 C2183.91,377.173 2181.43,380.345 2175.35,388.361 L2175.35,392.22 L2237.59,392.22 L2240.21,362.407 "/>
<path class="Fingering" d="M2476.88,183.814 C2472.19,189.47 2459.49,193.752 2446.8,194.033 L2446.8,199.97 L2458.94,199.97 C2466.94,200.095 2467.77,200.923 2467.49,208.658 L2467.49,264.002 C2467.49,271.033 2467.49,271.314 2466.66,272.548 C2465.57,273.939 2462.94,274.486 2455.21,274.486 L2446.24,274.486 L2446.24,280.97 L2500.9,280.97 L2500.9,274.486 L2493.3,274.486 C2485.57,274.486 2482.96,273.939 2481.85,272.548 C2480.88,271.314 2480.88,271.173 2480.88,264.002 L2480.88,207.002 C2480.88,199.267 2481.16,192.783 2481.85,183.814 L2476.88,183.814 M2578.85,251.158 L2572.79,251.158 L2571.4,258.205 C2569.6,267.173 2568.51,268.002 2559.94,268.002 L2529.04,268.002 C2538.55,258.064 2541.73,255.158 2550.57,248.267 C2563.12,238.611 2568.51,233.767 2571.68,229.627 C2576.1,223.564 2578.3,217.486 2578.3,210.72 C2578.3,195.002 2565.34,183.814 2547.26,183.814 C2529.73,183.814 2516.34,195.002 2516.34,209.767 C2516.34,218.455 2520.76,224.392 2527.24,224.392 C2532.35,224.392 2535.8,220.939 2535.8,215.97 C2535.8,212.517 2533.87,209.345 2530.96,208.111 C2525.87,206.033 2525.59,205.767 2525.59,203.97 C2525.59,201.892 2526.96,198.72 2528.9,196.377 C2532.35,192.095 2538.01,189.752 2544.49,189.752 C2555.94,189.752 2562.71,196.783 2562.71,208.377 C2562.71,218.595 2557.88,227.845 2546.43,239.986 C2536.21,250.752 2529.87,257.517 2527.52,260.127 C2522.55,265.923 2520.07,269.095 2513.99,277.111 L2513.99,280.97 L2576.23,280.97 L2578.85,251.158 "/>
<path class="Fingering" d="M2630.58,242.687 C2625.89,248.344 2613.18,252.625 2600.5,252.906 L2600.5,258.844 L2612.64,258.844 C2620.64,258.969 2621.47,259.797 2621.18,267.531 L2621.18,322.875 C2621.18,329.906 2621.18,330.187 2620.36,331.422 C2619.26,332.812 2616.64,333.359 2608.9,333.359 L2599.93,333.359 L2599.93,339.844 L2654.59,339.844 L2654.59,333.359 L2647,333.359 C2639.26,333.359 2636.65,332.812 2635.54,331.422 C2634.58,330.187 2634.58,330.047 2634.58,322.875 L2634.58,265.875 C2634.58,258.141 2634.86,251.656 2635.54,242.687 L2630.58,242.687 M2732.54,310.031 L2726.48,310.031 L2725.09,317.078 C2723.29,326.047 2722.2,326.875 2713.64,326.875 L2682.73,326.875 C2692.25,316.937 2695.42,314.031 2704.26,307.141 C2716.81,297.484 2722.2,292.641 2725.37,288.5 C2729.79,282.437 2732,276.359 2732,269.594 C2732,253.875 2719.03,242.687 2700.95,242.687 C2683.42,242.687 2670.03,253.875 2670.03,268.641 C2670.03,277.328 2674.45,283.266 2680.93,283.266 C2686.04,283.266 2689.5,279.812 2689.5,274.844 C2689.5,271.391 2687.56,268.219 2684.65,266.984 C2679.56,264.906 2679.28,264.641 2679.28,262.844 C2679.28,260.766 2680.65,257.594 2682.59,255.25 C2686.04,250.969 2691.7,248.625 2698.18,248.625 C2709.64,248.625 2716.4,255.656 2716.4,267.25 C2716.4,277.469 2711.58,286.719 2700.12,298.859 C2689.9,309.625 2683.56,316.391 2681.22,319 C2676.25,324.797 2673.76,327.969 2667.68,335.984 L2667.68,339.844 L2729.92,339.844 L2732.54,310.031 "/>
<path class="Fingering" d="M2726.63,120.187 C2721.95,125.844 2709.24,130.125 2696.56,130.406 L2696.56,136.344 L2708.7,136.344 C2716.7,136.469 2717.52,137.297 2717.24,145.031 L2717.24,200.375 C2717.24,207.406 2717.24,207.687 2716.42,208.922 C2715.32,210.312 2712.7,210.859 2704.96,210.859 L2695.99,210.859 L2695.99,217.344 L2750.65,217.344 L2750.65,210.859 L2743.06,210.859 C2735.32,210.859 2732.71,210.312 2731.6,208.922 C2730.63,207.687 2730.63,207.547 2730.63,200.375 L2730.63,143.375 C2730.63,135.641 2730.92,129.156 2731.6,120.187 L2726.63,120.187 M2828.6,187.531 L2822.54,187.531 L2821.15,194.578 C2819.35,203.547 2818.26,204.375 2809.7,204.375 L2778.79,204.375 C2788.31,194.437 2791.48,191.531 2800.32,184.641 C2812.87,174.984 2818.26,170.141 2821.43,166 C2825.85,159.937 2828.06,153.859 2828.06,147.094 C2828.06,131.375 2815.09,120.187 2797.01,120.187 C2779.48,120.187 2766.09,131.375 2766.09,146.141 C2766.09,154.828 2770.51,160.766 2776.99,160.766 C2782.1,160.766 2785.56,157.312 2785.56,152.344 C2785.56,148.891 2783.62,145.719 2780.71,144.484 C2775.62,142.406 2775.34,142.141 2775.34,140.344 C2775.34,138.266 2776.71,135.094 2778.65,132.75 C2782.1,128.469 2787.76,126.125 2794.24,126.125 C2805.7,126.125 2812.46,133.156 2812.46,144.75 C2812.46,154.969 2807.63,164.219 2796.18,176.359 C2785.96,187.125 2779.62,193.891 2777.27,196.5 C2772.31,202.297 2769.82,205.469 2763.74,213.484 L2763.74,217.344 L2825.98,217.344 L2828.6,187.531 "/>
<path class="Fingering" d="M3092.77,295.064 C3088.08,300.72 3075.37,305.001 3062.69,305.282 L3062.69,311.22 L3074.83,311.22 C3082.83,311.345 3083.66,312.173 3083.37,319.907 L3083.37,375.251 C3083.37,382.282 3083.37,382.564 3082.55,383.798 C3081.45,385.189 3078.83,385.736 3071.09,385.736 L3062.12,385.736 L3062.12,392.22 L3116.78,392.22 L3116.78,385.736 L3109.19,385.736 C3101.45,385.736 3098.84,385.189 3097.73,383.798 C3096.77,382.564 3096.77,382.423 3096.77,375.251 L3096.77,318.251 C3096.77,310.517 3097.05,304.032 3097.73,295.064 L3092.77,295.064 M3194.73,362.407 L3188.67,362.407 L3187.28,369.454 C3185.48,378.423 3184.39,379.251 3175.83,379.251 L3144.92,379.251 C3154.44,369.314 3157.61,366.407 3166.45,359.517 C3179,349.861 3184.39,345.017 3187.56,340.876 C3191.98,334.814 3194.19,328.736 3194.19,321.97 C3194.19,306.251 3181.22,295.064 3163.14,295.064 C3145.61,295.064 3132.22,306.251 3132.22,321.017 C3132.22,329.704 3136.64,335.642 3143.12,335.642 C3148.23,335.642 3151.69,332.189 3151.69,327.22 C3151.69,323.767 3149.75,320.595 3146.84,319.361 C3141.75,317.282 3141.47,317.017 3141.47,315.22 C3141.47,313.142 3142.84,309.97 3144.78,307.626 C3148.23,303.345 3153.89,301.001 3160.37,301.001 C3171.83,301.001 3178.59,308.032 3178.59,319.626 C3178.59,329.845 3173.77,339.095 3162.31,351.236 C3152.09,362.001 3145.75,368.767 3143.41,371.376 C3138.44,377.173 3135.95,380.345 3129.87,388.361 L3129.87,392.22 L3192.11,392.22 L3194.73,362.407 "/>
<path class="Fingering" d="M3309.1,336.564 C3304.41,342.22 3291.71,346.501 3279.02,346.783 L3279.02,352.72 L3291.16,352.72 C3299.16,352.845 3299.99,353.673 3299.71,361.408 L3299.71,416.751 C3299.71,423.783 3299.71,424.064 3298.88,425.298 C3297.79,426.689 3295.16,427.236 3287.43,427.236 L3278.46,427.236 L3278.46,433.72 L3333.12,433.72 L3333.12,427.236 L3325.52,427.236 C3317.79,427.236 3315.18,426.689 3314.07,425.298 C3313.1,424.064 3313.1,423.923 3313.1,416.751 L3313.1,359.751 C3313.1,352.017 3313.38,345.533 3314.07,336.564 L3309.1,336.564 M3389.13,382.939 C3401.69,378.376 3407.49,371.345 3407.49,360.298 C3407.49,345.814 3396.44,336.564 3379.33,336.564 C3363.18,336.564 3350.9,346.095 3350.9,358.642 C3350.9,364.298 3354.63,368.314 3360.01,368.314 C3364.83,368.314 3368.15,365.001 3368.15,360.033 C3368.15,356.986 3367.05,355.205 3363.88,352.986 C3362.49,352.017 3362.08,351.47 3362.08,350.501 C3362.08,346.642 3370.08,342.501 3377.94,342.501 C3387.88,342.501 3393.13,348.705 3393.13,360.439 C3393.13,373.283 3387.88,380.033 3378.08,380.033 C3376.85,380.033 3374.51,379.908 3372.43,379.767 C3371.33,379.626 3370.23,379.626 3369.4,379.626 C3366.49,379.626 3364.98,380.861 3364.98,383.345 C3364.98,385.689 3366.37,386.798 3369.4,386.798 C3370.23,386.798 3371.33,386.798 3372.57,386.658 C3375.33,386.517 3377.54,386.517 3379.05,386.517 C3389.27,386.517 3394.79,393.845 3394.79,407.501 C3394.79,421.845 3387.88,429.861 3375.48,429.861 C3366.77,429.861 3357.4,425.158 3357.4,420.892 C3357.4,419.642 3357.66,419.361 3360.29,417.845 C3364.15,415.501 3365.66,413.158 3365.66,409.705 C3365.66,404.736 3361.94,401.017 3356.98,401.017 C3351.04,401.017 3347.18,405.845 3347.18,413.158 C3347.18,426.548 3359.46,435.783 3377.12,435.783 C3397.13,435.783 3410.1,424.751 3410.1,407.783 C3410.1,394.798 3403.48,386.939 3389.13,382.939"/>
<path class="Fingering" d="M3708.04,272.814 C3703.36,278.47 3690.65,282.751 3677.97,283.033 L3677.97,288.97 L3690.11,288.97 C3698.11,289.095 3698.94,289.923 3698.65,297.658 L3698.65,353.001 C3698.65,360.033 3698.65,360.314 3697.83,361.548 C3696.73,362.939 3694.11,363.486 3686.37,363.486 L3677.4,363.486 L3677.4,369.97 L3732.06,369.97 L3732.06,363.486 L3724.47,363.486 C3716.73,363.486 3714.12,362.939 3713.01,361.548 C3712.04,360.314 3712.04,360.173 3712.04,353.001 L3712.04,296.001 C3712.04,288.267 3712.33,281.783 3713.01,272.814 L3708.04,272.814 "/>
<path class="Fingering" d="M3921.63,114.064 C3902.32,114.064 3888.24,135.048 3888.24,164.017 C3888.24,192.455 3901.9,213.283 3920.54,213.283 C3939.85,213.283 3953.38,193.142 3953.38,164.439 C3953.38,149.814 3950.33,137.673 3944.54,128.142 C3939.16,119.455 3930.33,114.064 3921.63,114.064 M3920.66,120.001 C3925.22,120.001 3929.65,123.033 3932.96,128.564 C3936.68,135.048 3937.91,142.908 3937.91,161.814 C3937.91,181.267 3936.96,190.376 3934.19,196.455 C3931.02,203.22 3926.05,207.361 3920.8,207.361 C3916.11,207.361 3911.83,204.314 3908.52,198.798 C3904.66,192.314 3903.55,183.751 3903.55,161.126 C3903.55,144.986 3904.52,136.97 3907.29,130.908 C3910.46,124.001 3915.43,120.001 3920.66,120.001"/>
<path class="Fingering" d="M733.019,1456.51 C728.331,1462.17 715.628,1466.45 702.941,1466.73 L702.941,1472.67 L715.081,1472.67 C723.081,1472.79 723.909,1473.62 723.628,1481.36 L723.628,1536.7 C723.628,1543.73 723.628,1544.01 722.8,1545.25 C721.706,1546.64 719.081,1547.19 711.347,1547.19 L702.378,1547.19 L702.378,1553.67 L757.034,1553.67 L757.034,1547.19 L749.441,1547.19 C741.706,1547.19 739.097,1546.64 737.988,1545.25 C737.019,1544.01 737.019,1543.87 737.019,1536.7 L737.019,1479.7 C737.019,1471.97 737.3,1465.48 737.988,1456.51 L733.019,1456.51 "/>
<path class="Fingering" d="M904.975,1297.76 C885.663,1297.76 871.584,1318.75 871.584,1347.72 C871.584,1376.15 885.241,1396.98 903.881,1396.98 C923.194,1396.98 936.725,1376.84 936.725,1348.14 C936.725,1333.51 933.678,1321.37 927.881,1311.84 C922.506,1303.15 913.678,1297.76 904.975,1297.76 M904.006,1303.7 C908.569,1303.7 912.991,1306.73 916.303,1312.26 C920.022,1318.75 921.256,1326.61 921.256,1345.51 C921.256,1364.97 920.303,1374.08 917.538,1380.15 C914.366,1386.92 909.397,1391.06 904.147,1391.06 C899.459,1391.06 895.178,1388.01 891.866,1382.5 C888.006,1376.01 886.897,1367.45 886.897,1344.83 C886.897,1328.69 887.866,1320.67 890.631,1314.61 C893.803,1307.7 898.772,1303.7 904.006,1303.7"/>
<path class="Fingering" d="M1228.67,1478.76 C1223.98,1484.42 1211.28,1488.7 1198.59,1488.98 L1198.59,1494.92 L1210.73,1494.92 C1218.73,1495.04 1219.56,1495.87 1219.28,1503.61 L1219.28,1558.95 C1219.28,1565.98 1219.28,1566.26 1218.45,1567.5 C1217.36,1568.89 1214.73,1569.44 1207,1569.44 L1198.03,1569.44 L1198.03,1575.92 L1252.68,1575.92 L1252.68,1569.44 L1245.09,1569.44 C1237.36,1569.44 1234.75,1568.89 1233.64,1567.5 C1232.67,1566.26 1232.67,1566.12 1232.67,1558.95 L1232.67,1501.95 C1232.67,1494.22 1232.95,1487.73 1233.64,1478.76 L1228.67,1478.76 M1330.64,1546.11 L1324.58,1546.11 L1323.18,1553.15 C1321.39,1562.12 1320.29,1562.95 1311.73,1562.95 L1280.83,1562.95 C1290.34,1553.01 1293.51,1550.11 1302.36,1543.22 C1314.9,1533.56 1320.29,1528.72 1323.47,1524.58 C1327.89,1518.51 1330.09,1512.44 1330.09,1505.67 C1330.09,1489.95 1317.12,1478.76 1299.04,1478.76 C1281.51,1478.76 1268.12,1489.95 1268.12,1504.72 C1268.12,1513.4 1272.54,1519.34 1279.03,1519.34 C1284.14,1519.34 1287.59,1515.89 1287.59,1510.92 C1287.59,1507.47 1285.65,1504.29 1282.75,1503.06 C1277.65,1500.98 1277.37,1500.72 1277.37,1498.92 C1277.37,1496.84 1278.75,1493.67 1280.68,1491.33 C1284.14,1487.04 1289.79,1484.7 1296.28,1484.7 C1307.73,1484.7 1314.5,1491.73 1314.5,1503.33 C1314.5,1513.54 1309.67,1522.79 1298.22,1534.94 C1288,1545.7 1281.65,1552.47 1279.31,1555.08 C1274.34,1560.87 1271.86,1564.04 1265.78,1572.06 L1265.78,1575.92 L1328.01,1575.92 L1330.64,1546.11 "/>
<path class="Fingering" d="M1557.35,1390.36 L1551.29,1390.36 L1549.9,1397.4 C1548.1,1406.37 1547.01,1407.2 1538.45,1407.2 L1507.54,1407.2 C1517.06,1397.26 1520.23,1394.36 1529.07,1387.47 C1541.62,1377.81 1547.01,1372.97 1550.18,1368.83 C1554.6,1362.76 1556.81,1356.69 1556.81,1349.92 C1556.81,1334.2 1543.84,1323.01 1525.76,1323.01 C1508.23,1323.01 1494.84,1334.2 1494.84,1348.97 C1494.84,1357.65 1499.26,1363.59 1505.75,1363.59 C1510.85,1363.59 1514.31,1360.14 1514.31,1355.17 C1514.31,1351.72 1512.37,1348.54 1509.46,1347.31 C1504.37,1345.23 1504.09,1344.97 1504.09,1343.17 C1504.09,1341.09 1505.46,1337.92 1507.4,1335.58 C1510.85,1331.29 1516.51,1328.95 1523,1328.95 C1534.45,1328.95 1541.21,1335.98 1541.21,1347.58 C1541.21,1357.79 1536.39,1367.04 1524.93,1379.19 C1514.71,1389.95 1508.37,1396.72 1506.03,1399.33 C1501.06,1405.12 1498.57,1408.29 1492.5,1416.31 L1492.5,1420.17 L1554.73,1420.17 L1557.35,1390.36 "/>
<path class="Fingering" d="M2029.94,1208.76 C2010.63,1208.76 1996.55,1229.75 1996.55,1258.72 C1996.55,1287.15 2010.2,1307.98 2028.85,1307.98 C2048.16,1307.98 2061.69,1287.84 2061.69,1259.14 C2061.69,1244.51 2058.64,1232.37 2052.85,1222.84 C2047.47,1214.15 2038.64,1208.76 2029.94,1208.76 M2028.97,1214.7 C2033.53,1214.7 2037.95,1217.73 2041.27,1223.26 C2044.99,1229.75 2046.22,1237.61 2046.22,1256.51 C2046.22,1275.97 2045.27,1285.08 2042.5,1291.15 C2039.33,1297.92 2034.36,1302.06 2029.11,1302.06 C2024.42,1302.06 2020.14,1299.01 2016.83,1293.5 C2012.97,1287.01 2011.86,1278.45 2011.86,1255.83 C2011.86,1239.69 2012.83,1231.67 2015.6,1225.61 C2018.77,1218.7 2023.74,1214.7 2028.97,1214.7"/>
<path class="Fingering" d="M2206.4,1256.26 C2201.71,1261.92 2189,1266.2 2176.32,1266.48 L2176.32,1272.42 L2188.46,1272.42 C2196.46,1272.55 2197.29,1273.37 2197,1281.11 L2197,1336.45 C2197,1343.48 2197,1343.76 2196.18,1345 C2195.08,1346.39 2192.46,1346.94 2184.72,1346.94 L2175.75,1346.94 L2175.75,1353.42 L2230.41,1353.42 L2230.41,1346.94 L2222.82,1346.94 C2215.08,1346.94 2212.47,1346.39 2211.36,1345 C2210.4,1343.76 2210.4,1343.62 2210.4,1336.45 L2210.4,1279.45 C2210.4,1271.72 2210.68,1265.23 2211.36,1256.26 L2206.4,1256.26 "/>
<path class="Fingering" d="M2542.78,1208.76 C2523.47,1208.76 2509.39,1229.75 2509.39,1258.72 C2509.39,1287.15 2523.05,1307.98 2541.69,1307.98 C2561,1307.98 2574.53,1287.84 2574.53,1259.14 C2574.53,1244.51 2571.49,1232.37 2565.69,1222.84 C2560.32,1214.15 2551.49,1208.76 2542.78,1208.76 M2541.82,1214.7 C2546.38,1214.7 2550.8,1217.73 2554.11,1223.26 C2557.83,1229.75 2559.07,1237.61 2559.07,1256.51 C2559.07,1275.97 2558.11,1285.08 2555.35,1291.15 C2552.18,1297.92 2547.21,1302.06 2541.96,1302.06 C2537.27,1302.06 2532.99,1299.01 2529.68,1293.5 C2525.82,1287.01 2524.71,1278.45 2524.71,1255.83 C2524.71,1239.69 2525.68,1231.67 2528.44,1225.61 C2531.61,1218.7 2536.58,1214.7 2541.82,1214.7"/>
<path class="Fingering" d="M2700.87,1206.11 C2696.18,1211.77 2683.48,1216.05 2670.79,1216.33 L2670.79,1222.27 L2682.93,1222.27 C2690.93,1222.39 2691.76,1223.22 2691.48,1230.96 L2691.48,1286.3 C2691.48,1293.33 2691.48,1293.61 2690.65,1294.85 C2689.56,1296.24 2686.93,1296.78 2679.2,1296.78 L2670.23,1296.78 L2670.23,1303.27 L2724.89,1303.27 L2724.89,1296.78 L2717.29,1296.78 C2709.56,1296.78 2706.95,1296.24 2705.84,1294.85 C2704.87,1293.61 2704.87,1293.47 2704.87,1286.3 L2704.87,1229.3 C2704.87,1221.57 2705.15,1215.08 2705.84,1206.11 L2700.87,1206.11 "/>
<path class="Fingering" d="M2796.02,1143.04 C2776.71,1143.04 2762.63,1164.02 2762.63,1192.99 C2762.63,1221.43 2776.28,1242.26 2794.92,1242.26 C2814.24,1242.26 2827.77,1222.12 2827.77,1193.41 C2827.77,1178.79 2824.72,1166.65 2818.92,1157.12 C2813.55,1148.43 2804.72,1143.04 2796.02,1143.04 M2795.05,1148.97 C2799.61,1148.97 2804.03,1152.01 2807.35,1157.54 C2811.07,1164.02 2812.3,1171.88 2812.3,1190.79 C2812.3,1210.24 2811.35,1219.35 2808.58,1225.43 C2805.41,1232.19 2800.44,1236.33 2795.19,1236.33 C2790.5,1236.33 2786.22,1233.29 2782.91,1227.77 C2779.05,1221.29 2777.94,1212.72 2777.94,1190.1 C2777.94,1173.96 2778.91,1165.94 2781.67,1159.88 C2784.85,1152.97 2789.82,1148.97 2795.05,1148.97"/>
<path class="Fingering" d="M3183.56,1206.11 C3178.87,1211.77 3166.17,1216.05 3153.48,1216.33 L3153.48,1222.27 L3165.62,1222.27 C3173.62,1222.39 3174.45,1223.22 3174.17,1230.96 L3174.17,1286.3 C3174.17,1293.33 3174.17,1293.61 3173.34,1294.85 C3172.25,1296.24 3169.62,1296.78 3161.89,1296.78 L3152.92,1296.78 L3152.92,1303.27 L3207.58,1303.27 L3207.58,1296.78 L3199.98,1296.78 C3192.25,1296.78 3189.64,1296.24 3188.53,1294.85 C3187.56,1293.61 3187.56,1293.47 3187.56,1286.3 L3187.56,1229.3 C3187.56,1221.57 3187.84,1215.08 3188.53,1206.11 L3183.56,1206.11 "/>
<path class="Fingering" d="M3299.98,1294.34 C3280.67,1294.34 3266.59,1315.32 3266.59,1344.29 C3266.59,1372.73 3280.25,1393.56 3298.89,1393.56 C3318.2,1393.56 3331.73,1373.42 3331.73,1344.71 C3331.73,1330.09 3328.68,1317.95 3322.89,1308.42 C3317.51,1299.73 3308.68,1294.34 3299.98,1294.34 M3299.01,1300.27 C3303.58,1300.27 3308,1303.31 3311.31,1308.84 C3315.03,1315.32 3316.26,1323.18 3316.26,1342.09 C3316.26,1361.54 3315.31,1370.65 3312.54,1376.73 C3309.37,1383.49 3304.4,1387.63 3299.15,1387.63 C3294.47,1387.63 3290.18,1384.59 3286.87,1379.07 C3283.01,1372.59 3281.9,1364.02 3281.9,1341.4 C3281.9,1325.26 3282.87,1317.24 3285.64,1311.18 C3288.81,1304.27 3293.78,1300.27 3299.01,1300.27"/>
<path class="Fingering" d="M3450.15,1402.51 L3444.09,1402.51 L3442.7,1409.55 C3440.9,1418.52 3439.81,1419.35 3431.24,1419.35 L3400.34,1419.35 C3409.85,1409.41 3413.03,1406.51 3421.87,1399.62 C3434.42,1389.96 3439.81,1385.12 3442.98,1380.97 C3447.4,1374.91 3449.6,1368.83 3449.6,1362.07 C3449.6,1346.35 3436.63,1335.16 3418.56,1335.16 C3401.03,1335.16 3387.63,1346.35 3387.63,1361.12 C3387.63,1369.8 3392.06,1375.74 3398.54,1375.74 C3403.65,1375.74 3407.1,1372.29 3407.1,1367.32 C3407.1,1363.87 3405.17,1360.69 3402.26,1359.46 C3397.17,1357.38 3396.88,1357.12 3396.88,1355.32 C3396.88,1353.24 3398.26,1350.07 3400.2,1347.72 C3403.65,1343.44 3409.31,1341.1 3415.79,1341.1 C3427.24,1341.1 3434.01,1348.13 3434.01,1359.72 C3434.01,1369.94 3429.18,1379.19 3417.73,1391.33 C3407.51,1402.1 3401.17,1408.87 3398.82,1411.47 C3393.85,1417.27 3391.37,1420.44 3385.29,1428.46 L3385.29,1432.32 L3447.53,1432.32 L3450.15,1402.51 "/>
<path class="Fingering" d="M3648.53,1367.51 C3643.84,1373.17 3631.13,1377.45 3618.45,1377.73 L3618.45,1383.67 L3630.59,1383.67 C3638.59,1383.79 3639.42,1384.62 3639.13,1392.36 L3639.13,1447.7 C3639.13,1454.73 3639.13,1455.01 3638.31,1456.25 C3637.21,1457.64 3634.59,1458.19 3626.85,1458.19 L3617.88,1458.19 L3617.88,1464.67 L3672.54,1464.67 L3672.54,1458.19 L3664.95,1458.19 C3657.21,1458.19 3654.6,1457.64 3653.49,1456.25 C3652.53,1455.01 3652.53,1454.87 3652.53,1447.7 L3652.53,1390.7 C3652.53,1382.97 3652.81,1376.48 3653.49,1367.51 L3648.53,1367.51 M3750.49,1434.86 L3744.43,1434.86 L3743.04,1441.9 C3741.24,1450.87 3740.15,1451.7 3731.59,1451.7 L3700.68,1451.7 C3710.2,1441.76 3713.37,1438.86 3722.21,1431.97 C3734.76,1422.31 3740.15,1417.47 3743.32,1413.33 C3747.74,1407.26 3749.95,1401.19 3749.95,1394.42 C3749.95,1378.7 3736.98,1367.51 3718.9,1367.51 C3701.37,1367.51 3687.98,1378.7 3687.98,1393.47 C3687.98,1402.15 3692.4,1408.09 3698.88,1408.09 C3703.99,1408.09 3707.45,1404.64 3707.45,1399.67 C3707.45,1396.22 3705.51,1393.04 3702.6,1391.81 C3697.51,1389.73 3697.23,1389.47 3697.23,1387.67 C3697.23,1385.59 3698.6,1382.42 3700.54,1380.08 C3703.99,1375.79 3709.65,1373.45 3716.13,1373.45 C3727.59,1373.45 3734.35,1380.48 3734.35,1392.08 C3734.35,1402.29 3729.53,1411.54 3718.07,1423.69 C3707.85,1434.45 3701.51,1441.22 3699.17,1443.83 C3694.2,1449.62 3691.71,1452.79 3685.63,1460.81 L3685.63,1464.67 L3747.87,1464.67 L3750.49,1434.86 "/>
<path class="Fingering" d="M3841.11,1143.04 C3821.8,1143.04 3807.72,1164.02 3807.72,1192.99 C3807.72,1221.43 3821.38,1242.26 3840.02,1242.26 C3859.33,1242.26 3872.86,1222.12 3872.86,1193.41 C3872.86,1178.79 3869.81,1166.65 3864.02,1157.12 C3858.64,1148.43 3849.81,1143.04 3841.11,1143.04 M3840.14,1148.97 C3844.7,1148.97 3849.13,1152.01 3852.44,1157.54 C3856.16,1164.02 3857.39,1171.88 3857.39,1190.79 C3857.39,1210.24 3856.44,1219.35 3853.67,1225.43 C3850.5,1232.19 3845.53,1236.33 3840.28,1236.33 C3835.6,1236.33 3831.31,1233.29 3828,1227.77 C3824.14,1221.29 3823.03,1212.72 3823.03,1190.1 C3823.03,1173.96 3824,1165.94 3826.77,1159.88 C3829.94,1152.97 3834.91,1148.97 3840.14,1148.97"/>
<path class="Fingering" d="M3938.51,1294.34 C3919.2,1294.34 3905.12,1315.32 3905.12,1344.29 C3905.12,1372.73 3918.77,1393.56 3937.42,1393.56 C3956.73,1393.56 3970.26,1373.42 3970.26,1344.71 C3970.26,1330.09 3967.21,1317.95 3961.42,1308.42 C3956.04,1299.73 3947.21,1294.34 3938.51,1294.34 M3937.54,1300.27 C3942.1,1300.27 3946.52,1303.31 3949.84,1308.84 C3953.56,1315.32 3954.79,1323.18 3954.79,1342.09 C3954.79,1361.54 3953.84,1370.65 3951.07,1376.73 C3947.9,1383.49 3942.93,1387.63 3937.68,1387.63 C3932.99,1387.63 3928.71,1384.59 3925.4,1379.07 C3921.54,1372.59 3920.43,1364.02 3920.43,1341.4 C3920.43,1325.26 3921.4,1317.24 3924.17,1311.18 C3927.34,1304.27 3932.31,1300.27 3937.54,1300.27"/>
<path class="RehearsalMark" fill="none" stroke="#000000" stroke-width="9.97" stroke-linecap="square" stroke-linejoin="miter" stroke-miterlimit="2" fill-rule="evenodd" d="M535.298,205.136 L718.566,205.136 L718.566,379.404 L535.298,379.404 L535.298,205.136 "/>
<path class="RehearsalMark" d="M622.87,241.567 L591.542,314.708 C585.198,329.614 580.089,334.989 571.948,335.817 L571.948,343.27 L611.823,343.27 L611.823,335.817 C602.026,335.27 598.167,332.645 598.167,326.301 C598.167,323.958 598.714,321.739 600.245,318.426 L602.448,313.192 L636.807,313.192 L642.057,326.708 C643.573,330.567 643.714,331.27 643.714,332.364 C643.714,334.848 641.776,335.676 635.698,335.676 L633.354,335.817 L633.354,343.27 L681.792,343.27 L681.792,335.817 C673.932,335.536 671.729,334.161 668.823,327.13 L633.354,241.567 L622.87,241.567 M619.979,270.958 L633.354,303.942 L606.042,303.942 L619.979,270.958 "/>
<path class="RehearsalMark" fill="none" stroke="#000000" stroke-width="9.97" stroke-linecap="square" stroke-linejoin="miter" stroke-miterlimit="2" fill-rule="evenodd" d="M2885.28,80.834 L3057.55,80.834 L3057.55,253.102 L2885.28,253.102 L2885.28,80.834 "/>
<path class="RehearsalMark" d="M2921.76,117.327 L2921.76,124.78 L2923.84,124.78 C2931.29,124.78 2933.9,125.343 2935.15,126.718 C2936.12,128.234 2936.12,128.64 2936.12,137.202 L2936.12,197.093 C2936.12,205.655 2936.12,206.062 2935.15,207.452 C2933.9,208.968 2931.15,209.515 2923.84,209.515 L2921.76,209.515 L2921.76,216.968 L2977.65,216.968 C2992.01,216.968 2999.32,215.859 3006.5,212.687 C3015.18,208.827 3020.98,200.124 3020.98,190.749 C3020.98,181.093 3015.47,173.499 3005.26,168.812 C3000.56,166.593 2996.56,165.499 2989.25,164.53 C2996.01,163.421 2999.87,162.452 3003.73,160.671 C3012.01,156.655 3016.43,150.03 3016.43,141.765 C3016.43,133.89 3012.29,126.577 3005.53,122.859 C2997.93,118.577 2991.31,117.327 2975.03,117.327 L2921.76,117.327 M2960.95,162.046 L2960.95,132.78 C2960.68,126.999 2962.61,125.062 2968.68,124.78 L2972.82,124.78 C2984.97,124.78 2991.45,130.859 2991.45,142.312 C2991.45,149.077 2989.11,154.452 2984.7,157.905 C2980.97,160.937 2976.28,162.046 2967.72,162.046 L2960.95,162.046 M2960.95,169.64 L2970.48,169.64 C2979.17,169.64 2983.17,170.468 2987.04,172.952 C2991.87,176.124 2994.62,182.187 2994.62,189.374 C2994.62,195.999 2992.14,202.062 2988.14,205.374 C2984.7,208.14 2980.14,209.515 2973.51,209.515 L2969.37,209.515 C2961.51,209.234 2960.68,208.405 2960.95,200.687 L2960.95,169.64 "/>
<path class="NoteDot" transform="matrix(2.492,0,0,2.492,1453.33,748.22)" d="M0,0 C0,2.76563 2.23438,5 5,5 C7.76563,5 10,2.76563 10,0 C10,-2.76563 7.76563,-5 5,-5 C2.23438,-5 0,-2.76563 0,0"/>
<path class="NoteDot" transform="matrix(2.492,0,0,2.492,2029.61,872.82)" d="M0,0 C0,2.76563 2.23438,5 5,5 C7.76563,5 10,2.76563 10,0 C10,-2.76563 7.76563,-5 5,-5 C2.23438,-5 0,-2.76563 0,0"/>
<path class="NoteDot" transform="matrix(2.492,0,0,2.492,3199.96,872.82)" d="M0,0 C0,2.76563 2.23438,5 5,5 C7.76563,5 10,2.76563 10,0 C10,-2.76563 7.76563,-5 5,-5 C2.23438,-5 0,-2.76563 0,0"/>
<path class="NoteDot" transform="matrix(2.492,0,0,2.492,3776.24,810.52)" d="M0,0 C0,2.76563 2.23438,5 5,5 C7.76563,5 10,2.76563 10,0 C10,-2.76563 7.76563,-5 5,-5 C2.23438,-5 0,-2.76563 0,0"/>
</svg>
