<?xml version="1.0" encoding="UTF-8" standalone="no"?>
<svg width="4208.47px" height="2409.45px" viewBox="0 0 4208.47 2409.45"
 xmlns="http://www.w3.org/2000/svg" xmlns:xlink="http://www.w3.org/1999/xlink" version="1.2" baseProfile="tiny">
<title>BONE_PIRATA (1)</title>
<desc>Generated by MuseScore 3.6.2</desc>
<polyline class="StaffLines" fill="none" stroke="#000000" stroke-width="5.02" stroke-linejoin="bevel" points="70.866,1115.77 4137.61,1115.77"/>
<polyline class="StaffLines" fill="none" stroke="#000000" stroke-width="5.02" stroke-linejoin="bevel" points="70.866,1161.37 4137.61,1161.37"/>
<polyline class="StaffLines" fill="none" stroke="#000000" stroke-width="5.02" stroke-linejoin="bevel" points="70.866,1206.97 4137.61,1206.97"/>
<polyline class="StaffLines" fill="none" stroke="#000000" stroke-width="5.02" stroke-linejoin="bevel" points="70.866,1252.57 4137.61,1252.57"/>
<polyline class="StaffLines" fill="none" stroke="#000000" stroke-width="5.02" stroke-linejoin="bevel" points="70.866,1298.17 4137.61,1298.17"/>
<path class="TieSegment" stroke="#000000" stroke-width="3.19" stroke-linecap="round" stroke-linejoin="round" fill-rule="evenodd" d="M2392.47,1058.77 C2403.42,1034.14 2436.25,1034.14 2447.19,1058.77 C2436.25,1046.91 2403.42,1046.91 2392.47,1058.77"/>
<path class="TieSegment" stroke="#000000" stroke-width="3.19" stroke-linecap="round" stroke-linejoin="round" fill-rule="evenodd" d="M3426.19,1058.77 C3442.3,1034.14 3490.61,1034.14 3506.72,1058.77 C3490.61,1046.91 3442.3,1046.91 3426.19,1058.77"/>
<polyline class="BarLine" stroke="#000000" stroke-width="8.21" stroke-linejoin="bevel" points="780.542,1113.26 780.542,1300.67"/>
<polyline class="BarLine" stroke="#000000" stroke-width="8.21" stroke-linejoin="bevel" points="1106.97,1113.26 1106.97,1300.67"/>
<polyline class="BarLine" stroke="#000000" stroke-width="8.21" stroke-linejoin="bevel" points="1375.05,1113.26 1375.05,1300.67"/>
<polyline class="BarLine" stroke="#000000" stroke-width="8.21" stroke-linejoin="bevel" points="1685.51,1113.26 1685.51,1300.67"/>
<polyline class="BarLine" stroke="#000000" stroke-width="25.08" stroke-linejoin="bevel" points="2065.97,1113.26 2065.97,1300.67"/>
<polyline class="BarLine" stroke="#000000" stroke-width="8.21" stroke-linejoin="bevel" points="2097.89,1113.26 2097.89,1300.67"/>
<path class="BarLine" transform="matrix(1.824,0,0,1.824,2120.32,1184.17)" d="M10.4063,0 C10.4063,-2.90625 8.09375,-5.29688 5.20313,-5.29688 C2.29688,-5.29688 0,-2.90625 0,0 C0,2.90625 2.29688,5.29688 5.20313,5.29688 C8.09375,5.29688 10.4063,2.90625 10.4063,0"/>
<path class="BarLine" transform="matrix(1.824,0,0,1.824,2120.32,1229.77)" d="M10.4063,0 C10.4063,-2.90625 8.09375,-5.29688 5.20313,-5.29688 C2.29688,-5.29688 0,-2.90625 0,0 C0,2.90625 2.29688,5.29688 5.20313,5.29688 C8.09375,5.29688 10.4063,2.90625 10.4063,0"/>
<polyline class="BarLine" stroke="#000000" stroke-width="8.21" stroke-linejoin="bevel" points="2863.9,1113.26 2863.9,1300.67"/>
<polyline class="BarLine" stroke="#000000" stroke-width="8.21" stroke-linejoin="bevel" points="4133.5,1113.26 4133.5,1300.67"/>
<polyline class="LedgerLine" stroke="#000000" stroke-width="7.30" stroke-linejoin="bevel" points="632.813,1070.17 723.999,1070.17"/>
<polyline class="LedgerLine" stroke="#000000" stroke-width="7.30" stroke-linejoin="bevel" points="632.813,1024.57 723.999,1024.57"/>
<polyline class="LedgerLine" stroke="#000000" stroke-width="7.30" stroke-linejoin="bevel" points="843.926,1070.17 935.112,1070.17"/>
<polyline class="LedgerLine" stroke="#000000" stroke-width="7.30" stroke-linejoin="bevel" points="843.926,1024.57 935.112,1024.57"/>
<polyline class="LedgerLine" stroke="#000000" stroke-width="7.30" stroke-linejoin="bevel" points="1170.35,1070.17 1261.54,1070.17"/>
<polyline class="LedgerLine" stroke="#000000" stroke-width="7.30" stroke-linejoin="bevel" points="1170.35,1024.57 1261.54,1024.57"/>
<polyline class="LedgerLine" stroke="#000000" stroke-width="7.30" stroke-linejoin="bevel" points="1537.78,1070.17 1628.97,1070.17"/>
<polyline class="LedgerLine" stroke="#000000" stroke-width="7.30" stroke-linejoin="bevel" points="1537.78,1024.57 1628.97,1024.57"/>
<polyline class="LedgerLine" stroke="#000000" stroke-width="7.30" stroke-linejoin="bevel" points="1748.9,1070.17 1840.08,1070.17"/>
<polyline class="LedgerLine" stroke="#000000" stroke-width="7.30" stroke-linejoin="bevel" points="1748.9,1024.57 1840.08,1024.57"/>
<polyline class="LedgerLine" stroke="#000000" stroke-width="7.30" stroke-linejoin="bevel" points="2223.93,1070.17 2315.12,1070.17"/>
<polyline class="LedgerLine" stroke="#000000" stroke-width="7.30" stroke-linejoin="bevel" points="2223.93,1024.57 2315.12,1024.57"/>
<polyline class="LedgerLine" stroke="#000000" stroke-width="7.30" stroke-linejoin="bevel" points="3236.54,1070.17 3327.73,1070.17"/>
<polyline class="LedgerLine" stroke="#000000" stroke-width="7.30" stroke-linejoin="bevel" points="3568.32,1070.17 3659.51,1070.17"/>
<polyline class="Stem" stroke="#000000" stroke-width="5.02" stroke-linejoin="bevel" points="651.281,1030.7 651.281,1206.97"/>
<polyline class="Stem" stroke="#000000" stroke-width="5.02" stroke-linejoin="bevel" points="862.394,1030.7 862.394,1206.97"/>
<polyline class="Stem" stroke="#000000" stroke-width="5.02" stroke-linejoin="bevel" points="1188.82,1030.7 1188.82,1206.97"/>
<polyline class="Stem" stroke="#000000" stroke-width="5.02" stroke-linejoin="bevel" points="1556.25,1030.7 1556.25,1206.97"/>
<polyline class="Stem" stroke="#000000" stroke-width="5.02" stroke-linejoin="bevel" points="1767.37,1030.7 1767.37,1206.97"/>
<polyline class="Stem" stroke="#000000" stroke-width="5.02" stroke-linejoin="bevel" points="2242.4,1030.7 2242.4,1241.17"/>
<polyline class="Stem" stroke="#000000" stroke-width="5.02" stroke-linejoin="bevel" points="2356.46,1099.1 2356.46,1241.17"/>
<polyline class="Stem" stroke="#000000" stroke-width="5.02" stroke-linejoin="bevel" points="2428.96,1099.1 2428.96,1241.17"/>
<polyline class="Stem" stroke="#000000" stroke-width="5.02" stroke-linejoin="bevel" points="2500.25,1144.7 2500.25,1298.17"/>
<polyline class="Stem" stroke="#000000" stroke-width="5.02" stroke-linejoin="bevel" points="2614.31,1121.9 2614.31,1286.77"/>
<polyline class="Stem" stroke="#000000" stroke-width="5.02" stroke-linejoin="bevel" points="3255.01,1076.3 3255.01,1241.17"/>
<polyline class="Stem" stroke="#000000" stroke-width="5.02" stroke-linejoin="bevel" points="3390.18,1099.1 3390.18,1241.17"/>
<polyline class="Stem" stroke="#000000" stroke-width="5.02" stroke-linejoin="bevel" points="3488.49,1099.1 3488.49,1241.17"/>
<polyline class="Stem" stroke="#000000" stroke-width="5.02" stroke-linejoin="bevel" points="3586.79,1076.3 3586.79,1332.37"/>
<polyline class="Stem" stroke="#000000" stroke-width="5.02" stroke-linejoin="bevel" points="3685.1,1099.1 3685.1,1344.42"/>
<polyline class="Stem" stroke="#000000" stroke-width="5.02" stroke-linejoin="bevel" points="3753.48,1121.9 3753.48,1352.81"/>
<polyline class="Stem" stroke="#000000" stroke-width="5.02" stroke-linejoin="bevel" points="3821.87,1144.7 3821.87,1361.19"/>
<polyline class="Stem" stroke="#000000" stroke-width="5.02" stroke-linejoin="bevel" points="3890.25,1167.5 3890.25,1369.58"/>
<polyline class="Stem" stroke="#000000" stroke-width="5.02" stroke-linejoin="bevel" points="3958.64,1190.3 3958.64,1377.97"/>
<path class="Note" transform="matrix(1.824,0,0,1.824,648.773,1024.57)" d="M31.5,-8.09375 C29.7031,-11.4063 25.9063,-13.2031 21.2969,-13.2031 C17.9063,-13.2031 14.2031,-12.2031 10.5938,-10.2969 C4,-6.79688 0,-0.90625 0,4.20313 C0,5.59375 0.296875,7 1,8.29688 C2.79688,11.5938 6.59375,13.2969 11.2031,13.2969 C14.5938,13.2969 18.2969,12.4063 21.9063,10.5 C28.5,7 32.5,1.09375 32.5,-4 C32.5,-5.40625 32.2031,-6.79688 31.5,-8.09375"/>
<path class="Note" transform="matrix(1.824,0,0,1.824,859.886,1024.57)" d="M31.5,-8.09375 C29.7031,-11.4063 25.9063,-13.2031 21.2969,-13.2031 C17.9063,-13.2031 14.2031,-12.2031 10.5938,-10.2969 C4,-6.79688 0,-0.90625 0,4.20313 C0,5.59375 0.296875,7 1,8.29688 C2.79688,11.5938 6.59375,13.2969 11.2031,13.2969 C14.5938,13.2969 18.2969,12.4063 21.9063,10.5 C28.5,7 32.5,1.09375 32.5,-4 C32.5,-5.40625 32.2031,-6.79688 31.5,-8.09375"/>
<path class="Note" transform="matrix(1.824,0,0,1.824,1186.31,1024.57)" d="M31.5,-8.14063 C29.7031,-11.4375 25.9063,-13.2344 21.2969,-13.2344 C17.9063,-13.2344 14.2031,-12.2344 10.5938,-10.3438 C4,-6.84375 0,-0.9375 0,4.15625 C0,5.5625 0.296875,6.96875 1,8.26563 C2.79688,11.5781 6.59375,13.2813 11.2031,13.2813 C14.5938,13.2813 18.2969,12.375 21.9063,10.4844 C28.5,6.96875 32.5,1.0625 32.5,-4.04688 C32.5,-5.4375 32.2031,-6.84375 31.5,-8.14063 M27.2031,-1.34375 C25.5,0.359375 22.0938,2.45313 18.5,4.46875 C14.9063,6.46875 11.2969,7.96875 8.90625,8.46875 C8.40625,8.57813 7.90625,8.67188 7.40625,8.67188 C5.79688,8.67188 4.59375,8.07813 3.90625,6.76563 C3.59375,6.26563 3.40625,5.67188 3.40625,5.0625 C3.40625,3.96875 4.09375,2.65625 5.20313,1.5625 C6.90625,-0.140625 10.2031,-2.23438 13.7969,-4.23438 C17.4063,-6.23438 21,-7.73438 23.4063,-8.23438 C23.9063,-8.34375 24.4063,-8.4375 24.9063,-8.4375 C26.5,-8.4375 27.7969,-7.84375 28.5,-6.54688 C28.7969,-6.04688 28.9063,-5.4375 28.9063,-4.84375 C28.9063,-3.73438 28.2969,-2.54688 27.2031,-1.34375"/>
<path class="Note" transform="matrix(1.824,0,0,1.824,1553.74,1024.57)" d="M31.5,-8.09375 C29.7031,-11.4063 25.9063,-13.2031 21.2969,-13.2031 C17.9063,-13.2031 14.2031,-12.2031 10.5938,-10.2969 C4,-6.79688 0,-0.90625 0,4.20313 C0,5.59375 0.296875,7 1,8.29688 C2.79688,11.5938 6.59375,13.2969 11.2031,13.2969 C14.5938,13.2969 18.2969,12.4063 21.9063,10.5 C28.5,7 32.5,1.09375 32.5,-4 C32.5,-5.40625 32.2031,-6.79688 31.5,-8.09375"/>
<path class="Note" transform="matrix(1.824,0,0,1.824,1764.86,1024.57)" d="M31.5,-8.09375 C29.7031,-11.4063 25.9063,-13.2031 21.2969,-13.2031 C17.9063,-13.2031 14.2031,-12.2031 10.5938,-10.2969 C4,-6.79688 0,-0.90625 0,4.20313 C0,5.59375 0.296875,7 1,8.29688 C2.79688,11.5938 6.59375,13.2969 11.2031,13.2969 C14.5938,13.2969 18.2969,12.4063 21.9063,10.5 C28.5,7 32.5,1.09375 32.5,-4 C32.5,-5.40625 32.2031,-6.79688 31.5,-8.09375"/>
<path class="Note" transform="matrix(1.824,0,0,1.824,2239.89,1024.57)" d="M31.5,-8.09375 C29.7031,-11.4063 25.9063,-13.2031 21.2969,-13.2031 C17.9063,-13.2031 14.2031,-12.2031 10.5938,-10.2969 C4,-6.79688 0,-0.90625 0,4.20313 C0,5.59375 0.296875,7 1,8.29688 C2.79688,11.5938 6.59375,13.2969 11.2031,13.2969 C14.5938,13.2969 18.2969,12.4063 21.9063,10.5 C28.5,7 32.5,1.09375 32.5,-4 C32.5,-5.40625 32.2031,-6.79688 31.5,-8.09375"/>
<path class="Note" transform="matrix(1.824,0,0,1.824,2353.95,1092.97)" d="M31.5,-8.09375 C29.7031,-11.4063 25.9063,-13.2031 21.2969,-13.2031 C17.9063,-13.2031 14.2031,-12.2031 10.5938,-10.2969 C4,-6.79688 0,-0.90625 0,4.20313 C0,5.59375 0.296875,7 1,8.29688 C2.79688,11.5938 6.59375,13.2969 11.2031,13.2969 C14.5938,13.2969 18.2969,12.4063 21.9063,10.5 C28.5,7 32.5,1.09375 32.5,-4 C32.5,-5.40625 32.2031,-6.79688 31.5,-8.09375"/>
<path class="Note" transform="matrix(1.824,0,0,1.824,2426.45,1092.97)" d="M31.5,-8.09375 C29.7031,-11.4063 25.9063,-13.2031 21.2969,-13.2031 C17.9063,-13.2031 14.2031,-12.2031 10.5938,-10.2969 C4,-6.79688 0,-0.90625 0,4.20313 C0,5.59375 0.296875,7 1,8.29688 C2.79688,11.5938 6.59375,13.2969 11.2031,13.2969 C14.5938,13.2969 18.2969,12.4063 21.9063,10.5 C28.5,7 32.5,1.09375 32.5,-4 C32.5,-5.40625 32.2031,-6.79688 31.5,-8.09375"/>
<path class="Note" transform="matrix(1.824,0,0,1.824,2497.74,1138.57)" d="M31.5,-8.09375 C29.7031,-11.4063 25.9063,-13.2031 21.2969,-13.2031 C17.9063,-13.2031 14.2031,-12.2031 10.5938,-10.2969 C4,-6.79688 0,-0.90625 0,4.20313 C0,5.59375 0.296875,7 1,8.29688 C2.79688,11.5938 6.59375,13.2969 11.2031,13.2969 C14.5938,13.2969 18.2969,12.4063 21.9063,10.5 C28.5,7 32.5,1.09375 32.5,-4 C32.5,-5.40625 32.2031,-6.79688 31.5,-8.09375"/>
<path class="Note" transform="matrix(1.824,0,0,1.824,2611.8,1115.77)" d="M31.5,-8.09375 C29.7031,-11.4063 25.9063,-13.2031 21.2969,-13.2031 C17.9063,-13.2031 14.2031,-12.2031 10.5938,-10.2969 C4,-6.79688 0,-0.90625 0,4.20313 C0,5.59375 0.296875,7 1,8.29688 C2.79688,11.5938 6.59375,13.2969 11.2031,13.2969 C14.5938,13.2969 18.2969,12.4063 21.9063,10.5 C28.5,7 32.5,1.09375 32.5,-4 C32.5,-5.40625 32.2031,-6.79688 31.5,-8.09375"/>
<path class="Note" transform="matrix(1.824,0,0,1.824,3252.5,1070.17)" d="M31.5,-8.09375 C29.7031,-11.4063 25.9063,-13.2031 21.2969,-13.2031 C17.9063,-13.2031 14.2031,-12.2031 10.5938,-10.2969 C4,-6.79688 0,-0.90625 0,4.20313 C0,5.59375 0.296875,7 1,8.29688 C2.79688,11.5938 6.59375,13.2969 11.2031,13.2969 C14.5938,13.2969 18.2969,12.4063 21.9063,10.5 C28.5,7 32.5,1.09375 32.5,-4 C32.5,-5.40625 32.2031,-6.79688 31.5,-8.09375"/>
<path class="Note" transform="matrix(1.824,0,0,1.824,3387.67,1092.97)" d="M31.5,-8.09375 C29.7031,-11.4063 25.9063,-13.2031 21.2969,-13.2031 C17.9063,-13.2031 14.2031,-12.2031 10.5938,-10.2969 C4,-6.79688 0,-0.90625 0,4.20313 C0,5.59375 0.296875,7 1,8.29688 C2.79688,11.5938 6.59375,13.2969 11.2031,13.2969 C14.5938,13.2969 18.2969,12.4063 21.9063,10.5 C28.5,7 32.5,1.09375 32.5,-4 C32.5,-5.40625 32.2031,-6.79688 31.5,-8.09375"/>
<path class="Note" transform="matrix(1.824,0,0,1.824,3485.98,1092.97)" d="M31.5,-8.09375 C29.7031,-11.4063 25.9063,-13.2031 21.2969,-13.2031 C17.9063,-13.2031 14.2031,-12.2031 10.5938,-10.2969 C4,-6.79688 0,-0.90625 0,4.20313 C0,5.59375 0.296875,7 1,8.29688 C2.79688,11.5938 6.59375,13.2969 11.2031,13.2969 C14.5938,13.2969 18.2969,12.4063 21.9063,10.5 C28.5,7 32.5,1.09375 32.5,-4 C32.5,-5.40625 32.2031,-6.79688 31.5,-8.09375"/>
<path class="Note" transform="matrix(1.824,0,0,1.824,3584.28,1070.17)" d="M31.5,-8.09375 C29.7031,-11.4063 25.9063,-13.2031 21.2969,-13.2031 C17.9063,-13.2031 14.2031,-12.2031 10.5938,-10.2969 C4,-6.79688 0,-0.90625 0,4.20313 C0,5.59375 0.296875,7 1,8.29688 C2.79688,11.5938 6.59375,13.2969 11.2031,13.2969 C14.5938,13.2969 18.2969,12.4063 21.9063,10.5 C28.5,7 32.5,1.09375 32.5,-4 C32.5,-5.40625 32.2031,-6.79688 31.5,-8.09375"/>
<path class="Note" transform="matrix(1.824,0,0,1.824,3682.59,1092.97)" d="M31.5,-8.09375 C29.7031,-11.4063 25.9063,-13.2031 21.2969,-13.2031 C17.9063,-13.2031 14.2031,-12.2031 10.5938,-10.2969 C4,-6.79688 0,-0.90625 0,4.20313 C0,5.59375 0.296875,7 1,8.29688 C2.79688,11.5938 6.59375,13.2969 11.2031,13.2969 C14.5938,13.2969 18.2969,12.4063 21.9063,10.5 C28.5,7 32.5,1.09375 32.5,-4 C32.5,-5.40625 32.2031,-6.79688 31.5,-8.09375"/>
<path class="Note" transform="matrix(1.824,0,0,1.824,3750.98,1115.77)" d="M31.5,-8.09375 C29.7031,-11.4063 25.9063,-13.2031 21.2969,-13.2031 C17.9063,-13.2031 14.2031,-12.2031 10.5938,-10.2969 C4,-6.79688 0,-0.90625 0,4.20313 C0,5.59375 0.296875,7 1,8.29688 C2.79688,11.5938 6.59375,13.2969 11.2031,13.2969 C14.5938,13.2969 18.2969,12.4063 21.9063,10.5 C28.5,7 32.5,1.09375 32.5,-4 C32.5,-5.40625 32.2031,-6.79688 31.5,-8.09375"/>
<path class="Note" transform="matrix(1.824,0,0,1.824,3819.36,1138.57)" d="M31.5,-8.09375 C29.7031,-11.4063 25.9063,-13.2031 21.2969,-13.2031 C17.9063,-13.2031 14.2031,-12.2031 10.5938,-10.2969 C4,-6.79688 0,-0.90625 0,4.20313 C0,5.59375 0.296875,7 1,8.29688 C2.79688,11.5938 6.59375,13.2969 11.2031,13.2969 C14.5938,13.2969 18.2969,12.4063 21.9063,10.5 C28.5,7 32.5,1.09375 32.5,-4 C32.5,-5.40625 32.2031,-6.79688 31.5,-8.09375"/>
<path class="Note" transform="matrix(1.824,0,0,1.824,3887.75,1161.37)" d="M31.5,-8.09375 C29.7031,-11.4063 25.9063,-13.2031 21.2969,-13.2031 C17.9063,-13.2031 14.2031,-12.2031 10.5938,-10.2969 C4,-6.79688 0,-0.90625 0,4.20313 C0,5.59375 0.296875,7 1,8.29688 C2.79688,11.5938 6.59375,13.2969 11.2031,13.2969 C14.5938,13.2969 18.2969,12.4063 21.9063,10.5 C28.5,7 32.5,1.09375 32.5,-4 C32.5,-5.40625 32.2031,-6.79688 31.5,-8.09375"/>
<path class="Note" transform="matrix(1.824,0,0,1.824,3956.13,1184.17)" d="M31.5,-8.09375 C29.7031,-11.4063 25.9063,-13.2031 21.2969,-13.2031 C17.9063,-13.2031 14.2031,-12.2031 10.5938,-10.2969 C4,-6.79688 0,-0.90625 0,4.20313 C0,5.59375 0.296875,7 1,8.29688 C2.79688,11.5938 6.59375,13.2969 11.2031,13.2969 C14.5938,13.2969 18.2969,12.4063 21.9063,10.5 C28.5,7 32.5,1.09375 32.5,-4 C32.5,-5.40625 32.2031,-6.79688 31.5,-8.09375"/>
<path class="Clef" transform="matrix(1.824,0,0,1.824,107.346,1161.37)" d="M25.4063,-25.0938 C17.7969,-25.0938 11.7031,-20.7031 11.5938,-20.7031 C5.79688,-16.4063 3.5,-11.2969 2.59375,-7.79688 C2.09375,-6 1.90625,-4.20313 1.90625,-2.5 C1.90625,-0.09375 2.29688,2.09375 3.20313,4 C4.40625,6.70313 6.70313,8.59375 9.70313,9.59375 C10.9063,10 12.2031,10.2031 13.5,10.2031 C15.7031,10.2031 18,9.59375 19.9063,8.5 C23,6.79688 24.9063,3.20313 24.9063,-0.703125 C24.9063,-4.20313 23.0938,-7.40625 20.0938,-9.29688 C18,-10.7031 16,-11.0938 14.2969,-11.0938 C13.0938,-11.0938 12,-10.9063 11.0938,-10.5938 C10.0938,-10.2031 8.40625,-9.20313 7.59375,-8.5 C7.90625,-10.4063 9.09375,-13.2969 10.2031,-14.9063 C11.2969,-16.5 13.5,-18.5 15.2031,-19.4063 C17.7031,-20.7969 20.9063,-21.4063 24.4063,-21.4063 C34.6094,-21.4063 39.6094,-13.2031 39.6094,3.59375 C39.6094,12.9063 36.1094,21.7969 33.1094,27.7031 C29.7969,34.2969 25.4063,40.6094 21.5,44.1094 C11.0938,53.6094 1.29688,58.1094 1.20313,58.1094 C1.20313,58.1094 -0.296875,59 0.09375,60.5 C0.40625,61.5 1.29688,61.7031 1.90625,61.7031 C2,61.7031 2.29688,61.6094 2.40625,61.6094 C2.5,61.6094 13.9063,56.9063 23,49.7969 C28.1094,46.1094 32.7031,42.1094 36.7031,37.7969 C40.2969,33.9063 43.4063,29.7031 45.9063,25.5 C50.2969,18 52.7969,10.2031 52.7969,3.5 C52.7969,-4.79688 50.6094,-11.7031 46.5,-16.5938 C41.7969,-22.2031 34.7031,-25.0938 25.4063,-25.0938 M56.7969,-12.4063 C56.7969,-9.59375 59,-7.40625 61.6094,-7.40625 C64.2031,-7.40625 66.4063,-9.59375 66.4063,-12.4063 C66.4063,-15.2031 64.2031,-17.5 61.6094,-17.5 C59,-17.5 56.7969,-15.2031 56.7969,-12.4063 M56.7969,12.2969 C56.7969,15.0938 59,17.4063 61.6094,17.4063 C64.2031,17.4063 66.4063,15.0938 66.4063,12.2969 C66.4063,9.5 64.2031,7.20313 61.6094,7.20313 C59,7.20313 56.7969,9.5 56.7969,12.2969"/>
<path class="Clef" transform="matrix(1.824,0,0,1.824,2950.09,1161.37)" d="M25.4063,-25.0938 C17.7969,-25.0938 11.7031,-20.7031 11.5938,-20.7031 C5.79688,-16.4063 3.5,-11.2969 2.59375,-7.79688 C2.09375,-6 1.90625,-4.20313 1.90625,-2.5 C1.90625,-0.09375 2.29688,2.09375 3.20313,4 C4.40625,6.70313 6.70313,8.59375 9.70313,9.59375 C10.9063,10 12.2031,10.2031 13.5,10.2031 C15.7031,10.2031 18,9.59375 19.9063,8.5 C23,6.79688 24.9063,3.20313 24.9063,-0.703125 C24.9063,-4.20313 23.0938,-7.40625 20.0938,-9.29688 C18,-10.7031 16,-11.0938 14.2969,-11.0938 C13.0938,-11.0938 12,-10.9063 11.0938,-10.5938 C10.0938,-10.2031 8.40625,-9.20313 7.59375,-8.5 C7.90625,-10.4063 9.09375,-13.2969 10.2031,-14.9063 C11.2969,-16.5 13.5,-18.5 15.2031,-19.4063 C17.7031,-20.7969 20.9063,-21.4063 24.4063,-21.4063 C34.6094,-21.4063 39.6094,-13.2031 39.6094,3.59375 C39.6094,12.9063 36.1094,21.7969 33.1094,27.7031 C29.7969,34.2969 25.4063,40.6094 21.5,44.1094 C11.0938,53.6094 1.29688,58.1094 1.20313,58.1094 C1.20313,58.1094 -0.296875,59 0.09375,60.5 C0.40625,61.5 1.29688,61.7031 1.90625,61.7031 C2,61.7031 2.29688,61.6094 2.40625,61.6094 C2.5,61.6094 13.9063,56.9063 23,49.7969 C28.1094,46.1094 32.7031,42.1094 36.7031,37.7969 C40.2969,33.9063 43.4063,29.7031 45.9063,25.5 C50.2969,18 52.7969,10.2031 52.7969,3.5 C52.7969,-4.79688 50.6094,-11.7031 46.5,-16.5938 C41.7969,-22.2031 34.7031,-25.0938 25.4063,-25.0938 M56.7969,-12.4063 C56.7969,-9.59375 59,-7.40625 61.6094,-7.40625 C64.2031,-7.40625 66.4063,-9.59375 66.4063,-12.4063 C66.4063,-15.2031 64.2031,-17.5 61.6094,-17.5 C59,-17.5 56.7969,-15.2031 56.7969,-12.4063 M56.7969,12.2969 C56.7969,15.0938 59,17.4063 61.6094,17.4063 C64.2031,17.4063 66.4063,15.0938 66.4063,12.2969 C66.4063,9.5 64.2031,7.20313 61.6094,7.20313 C59,7.20313 56.7969,9.5 56.7969,12.2969"/>
<path class="KeySig" transform="matrix(1.824,0,0,1.824,274.057,1161.37)" d="M23.2969,-10.5938 C23.9063,-10.7031 24.4063,-11.4063 24.4063,-12 L24.4063,-17.9063 C24.4063,-18.7031 23.7969,-19.2969 23,-19.2969 L22.7969,-19.2969 L19.5,-18.5938 L19.5,-33.5 L16.7031,-33.5 L16.7031,-18 L7.79688,-16.2031 L7.79688,-30.2969 L5,-30.2969 L5,-15.5938 L1.09375,-14.7969 C0.5,-14.7031 0,-14 0,-13.4063 L0,-13.2031 L0,-7.40625 L0,-7.59375 C0,-6.79688 0.59375,-6.20313 1.40625,-6.20313 L1.70313,-6.20313 L5,-6.90625 L5,9.59375 L1.09375,10.4063 C0.5,10.5 0,11.2031 0,11.7969 L0,17.5938 C0,18.4063 0.59375,19 1.40625,19 L1.70313,19 L5,18.2969 L5,33.2031 L7.79688,33.2031 L7.79688,17.7031 L16.7031,15.9063 L16.7031,30 L19.5,30 L19.5,15.2969 L23.2969,14.5938 C23.9063,14.5 24.4063,13.7969 24.4063,13.2031 L24.4063,7.29688 C24.4063,6.5 23.7969,5.90625 23,5.90625 L22.7969,5.90625 L19.5,6.59375 L19.5,-9.90625 L23.2969,-10.5938 M7.79688,9.09375 L7.79688,-7.5 L16.7031,-9.29688 L16.7031,7.20313 L7.79688,9.09375 "/>
<path class="KeySig" transform="matrix(1.824,0,0,1.824,3162.4,1161.37)" d="M23.2969,-10.5938 C23.9063,-10.7031 24.4063,-11.4063 24.4063,-12 L24.4063,-17.9063 C24.4063,-18.7031 23.7969,-19.2969 23,-19.2969 L22.7969,-19.2969 L19.5,-18.5938 L19.5,-33.5 L16.7031,-33.5 L16.7031,-18 L7.79688,-16.2031 L7.79688,-30.2969 L5,-30.2969 L5,-15.5938 L1.09375,-14.7969 C0.5,-14.7031 0,-14 0,-13.4063 L0,-13.2031 L0,-7.40625 L0,-7.59375 C0,-6.79688 0.59375,-6.20313 1.40625,-6.20313 L1.70313,-6.20313 L5,-6.90625 L5,9.59375 L1.09375,10.4063 C0.5,10.5 0,11.2031 0,11.7969 L0,17.5938 C0,18.4063 0.59375,19 1.40625,19 L1.70313,19 L5,18.2969 L5,33.2031 L7.79688,33.2031 L7.79688,17.7031 L16.7031,15.9063 L16.7031,30 L19.5,30 L19.5,15.2969 L23.2969,14.5938 C23.9063,14.5 24.4063,13.7969 24.4063,13.2031 L24.4063,7.29688 C24.4063,6.5 23.7969,5.90625 23,5.90625 L22.7969,5.90625 L19.5,6.59375 L19.5,-9.90625 L23.2969,-10.5938 M7.79688,9.09375 L7.79688,-7.5 L16.7031,-9.29688 L16.7031,7.20313 L7.79688,9.09375 "/>
<path class="TimeSig" transform="matrix(1.824,0,0,1.824,367.665,1162.28)" d="M34.2031,3.90625 C33.4063,6.09375 31.4063,13.2969 26.5,13.2969 C20,13.2969 18.5938,9.29688 13.2031,9.29688 C12.4063,9.29688 11.5938,9.40625 10.5938,9.59375 C10.5938,9.59375 13.0938,5.79688 23.7031,2.5 C34.2969,-0.796875 37,-6 37,-12 C37,-16.2031 35.1094,-24.5 20,-24.5 C4.90625,-24.5 2.09375,-15.4063 2.09375,-10.7969 C2.09375,-6.70313 5.5,-3.40625 9.59375,-3.40625 C13.7031,-3.40625 17,-6.70313 17,-10.7969 C17,-13.5938 15,-16.7031 12.4063,-17.7031 C12.0938,-17.7969 11.7031,-18.2969 11.7031,-18.7969 C11.7031,-19.4063 12.2031,-20.0938 14,-20.5938 C14.5,-20.7969 15.9063,-21.0938 17.4063,-21.0938 C18.7969,-21.0938 20.4063,-20.7969 21.5938,-20 C23.5,-18.7969 24.2031,-17 24.2031,-12.5 C24.2031,-0.796875 10.2969,1.70313 4.5,10.4063 C4.5,10.4063 1.5,14.5938 1.5,19.2969 C1.5,24 3.90625,24.2969 5.09375,24.2969 C6.70313,24.2969 8.40625,23 8.40625,21.2031 C8.40625,20.7969 8.29688,20.4063 8.09375,19.9063 C7.5,18.5 7.29688,17.4063 7.29688,16.5938 C7.29688,16.2969 7.29688,16 7.40625,15.7031 C7.5,15.0938 8.29688,14.0938 10.7031,14.0938 C13.5938,14.0938 14.7031,17.5 16.5,20.0938 C18.2969,22.7031 21.0938,24.2969 24.2969,24.2969 C27.5,24.2969 31.7969,22 33.6094,18.2969 C35.4063,14.5938 37.7031,7.09375 37.7031,4.40625 C37.7031,3.09375 36.9063,2.5 36,2.5 C35.2969,2.5 34.6094,2.90625 34.2031,3.90625"/>
<path class="TimeSig" transform="matrix(1.824,0,0,1.824,361.651,1252.32)" d="M3.59375,12.625 L20.7656,12.625 L20.7656,20.0781 L12.5469,20.0781 C11.7656,20.0781 11.125,20.7031 11.125,21.4844 L11.125,23.3906 C11.125,24.1719 11.7656,24.7969 12.5469,24.7969 L42.7969,24.7969 C43.5781,24.7969 44.2031,24.1719 44.2031,23.3906 L44.2031,21.4844 C44.2031,20.7031 43.5781,20.0781 42.7969,20.0781 L33.8594,20.0781 L33.8594,12.625 L42.7969,12.625 C43.5781,12.625 44.2031,12 44.2031,11.2188 L44.2031,9.3125 C44.2031,8.53125 43.5781,7.90625 42.7969,7.90625 L33.8594,7.90625 L33.8594,-8.0625 C33.8594,-8.59375 33.5469,-9.07813 33.0781,-9.3125 L31.8594,-9.92188 C31.3281,-10.1719 30.7031,-10.0781 30.2656,-9.6875 L21.2188,-1.375 C20.9375,-1.09375 20.7656,-0.734375 20.7656,-0.328125 L20.7656,7.90625 L9.25,7.90625 C9.25,7.90625 20.375,-4.125 32.2188,-19.8906 C33.0781,-21.0469 32.5781,-22.0938 32.3906,-22.2813 L30.2188,-24.4844 C29.9531,-24.75 29.5938,-24.9063 29.2188,-24.9063 C28.625,-24.9063 15.0625,-24.875 14.3438,-24.9063 C13.625,-24.9219 13.0938,-24.2969 13.0156,-23.6875 C13.0156,-23.6875 12.4844,-16.3281 9.875,-8.1875 C7.28125,-0.078125 4.34375,4.90625 1.6875,8.53125 C1.6875,8.53125 1.14063,9.51563 1.5,10.2656 C1.84375,11.0156 2.48438,12.0938 2.48438,12.0938 C2.48438,12.0938 2.73438,12.625 3.59375,12.625"/>
<path class="Rest" transform="matrix(1.824,0,0,1.824,533.463,1206.97)" d="M23.2031,16.9063 L23,16.5938 C22.9063,16.5 22.7031,16.2969 22.4063,15.9063 L10.9063,1.70313 C10.5938,1.40625 10.7031,0.59375 10.9063,0.203125 L21.0938,-15.2031 C21.2031,-15.4063 21.2969,-15.7031 21.2969,-15.9063 L21.2969,-16.7969 C21.2969,-17.0938 21.2031,-17.4063 21,-17.5938 L4.79688,-39.5 C4.79688,-39.5 4,-40.7031 3,-39.7969 C2,-39 2.79688,-37.7031 2.79688,-37.7031 L10.4063,-27.2969 C10.7969,-26.7031 10.7969,-25.5 10.4063,-24.9063 L0.296875,-9.5 C0.203125,-9.29688 0.09375,-8.90625 0.09375,-8.70313 L0.09375,-7.79688 C0.09375,-7.5 0.203125,-7.20313 0.40625,-7 L11.5938,6.90625 C11.2031,6.79688 10.2969,6.59375 9.09375,6.59375 C7.40625,6.59375 5.20313,7 3.40625,8.59375 C1.20313,10.5938 0,13.4063 0,15.9063 C0,17.2969 0.296875,18.7031 1.09375,19.7969 C3.20313,23 10.7031,32.5 10.7031,32.5 C10.7031,32.5 11.5938,33.6094 12.5,32.9063 C13.4063,32.2031 13.2031,31.2969 12.9063,30.7969 C12.5938,30.2969 9.40625,24.5 9.40625,24.5 C9.40625,24.5 8.70313,23.0938 8.70313,21.2969 C8.70313,20 9.09375,18.4063 10.4063,17.0938 C11.5938,15.9063 13,15.5 14.2969,15.5 C15.5938,15.5 16.7031,15.9063 17.5,16.4063 L21.4063,18.9063 C21.4063,18.9063 22.5938,19.5 23.2031,18.5938 C23.7031,17.7969 23.5,17.4063 23.2031,16.9063"/>
<path class="Rest" transform="matrix(1.824,0,0,1.824,975.196,1206.97)" d="M23.2031,16.9063 L23,16.5938 C22.9063,16.5 22.7031,16.2969 22.4063,15.9063 L10.9063,1.70313 C10.5938,1.40625 10.7031,0.59375 10.9063,0.203125 L21.0938,-15.2031 C21.2031,-15.4063 21.2969,-15.7031 21.2969,-15.9063 L21.2969,-16.7969 C21.2969,-17.0938 21.2031,-17.4063 21,-17.5938 L4.79688,-39.5 C4.79688,-39.5 4,-40.7031 3,-39.7969 C2,-39 2.79688,-37.7031 2.79688,-37.7031 L10.4063,-27.2969 C10.7969,-26.7031 10.7969,-25.5 10.4063,-24.9063 L0.296875,-9.5 C0.203125,-9.29688 0.09375,-8.90625 0.09375,-8.70313 L0.09375,-7.79688 C0.09375,-7.5 0.203125,-7.20313 0.40625,-7 L11.5938,6.90625 C11.2031,6.79688 10.2969,6.59375 9.09375,6.59375 C7.40625,6.59375 5.20313,7 3.40625,8.59375 C1.20313,10.5938 0,13.4063 0,15.9063 C0,17.2969 0.296875,18.7031 1.09375,19.7969 C3.20313,23 10.7031,32.5 10.7031,32.5 C10.7031,32.5 11.5938,33.6094 12.5,32.9063 C13.4063,32.2031 13.2031,31.2969 12.9063,30.7969 C12.5938,30.2969 9.40625,24.5 9.40625,24.5 C9.40625,24.5 8.70313,23.0938 8.70313,21.2969 C8.70313,20 9.09375,18.4063 10.4063,17.0938 C11.5938,15.9063 13,15.5 14.2969,15.5 C15.5938,15.5 16.7031,15.9063 17.5,16.4063 L21.4063,18.9063 C21.4063,18.9063 22.5938,19.5 23.2031,18.5938 C23.7031,17.7969 23.5,17.4063 23.2031,16.9063"/>
<path class="Rest" transform="matrix(1.824,0,0,1.824,1438.43,1206.97)" d="M23.2031,16.9063 L23,16.5938 C22.9063,16.5 22.7031,16.2969 22.4063,15.9063 L10.9063,1.70313 C10.5938,1.40625 10.7031,0.59375 10.9063,0.203125 L21.0938,-15.2031 C21.2031,-15.4063 21.2969,-15.7031 21.2969,-15.9063 L21.2969,-16.7969 C21.2969,-17.0938 21.2031,-17.4063 21,-17.5938 L4.79688,-39.5 C4.79688,-39.5 4,-40.7031 3,-39.7969 C2,-39 2.79688,-37.7031 2.79688,-37.7031 L10.4063,-27.2969 C10.7969,-26.7031 10.7969,-25.5 10.4063,-24.9063 L0.296875,-9.5 C0.203125,-9.29688 0.09375,-8.90625 0.09375,-8.70313 L0.09375,-7.79688 C0.09375,-7.5 0.203125,-7.20313 0.40625,-7 L11.5938,6.90625 C11.2031,6.79688 10.2969,6.59375 9.09375,6.59375 C7.40625,6.59375 5.20313,7 3.40625,8.59375 C1.20313,10.5938 0,13.4063 0,15.9063 C0,17.2969 0.296875,18.7031 1.09375,19.7969 C3.20313,23 10.7031,32.5 10.7031,32.5 C10.7031,32.5 11.5938,33.6094 12.5,32.9063 C13.4063,32.2031 13.2031,31.2969 12.9063,30.7969 C12.5938,30.2969 9.40625,24.5 9.40625,24.5 C9.40625,24.5 8.70313,23.0938 8.70313,21.2969 C8.70313,20 9.09375,18.4063 10.4063,17.0938 C11.5938,15.9063 13,15.5 14.2969,15.5 C15.5938,15.5 16.7031,15.9063 17.5,16.4063 L21.4063,18.9063 C21.4063,18.9063 22.5938,19.5 23.2031,18.5938 C23.7031,17.7969 23.5,17.4063 23.2031,16.9063"/>
<path class="Rest" transform="matrix(1.824,0,0,1.824,1880.17,1206.97)" d="M23.2031,16.9063 L23,16.5938 C22.9063,16.5 22.7031,16.2969 22.4063,15.9063 L10.9063,1.70313 C10.5938,1.40625 10.7031,0.59375 10.9063,0.203125 L21.0938,-15.2031 C21.2031,-15.4063 21.2969,-15.7031 21.2969,-15.9063 L21.2969,-16.7969 C21.2969,-17.0938 21.2031,-17.4063 21,-17.5938 L4.79688,-39.5 C4.79688,-39.5 4,-40.7031 3,-39.7969 C2,-39 2.79688,-37.7031 2.79688,-37.7031 L10.4063,-27.2969 C10.7969,-26.7031 10.7969,-25.5 10.4063,-24.9063 L0.296875,-9.5 C0.203125,-9.29688 0.09375,-8.90625 0.09375,-8.70313 L0.09375,-7.79688 C0.09375,-7.5 0.203125,-7.20313 0.40625,-7 L11.5938,6.90625 C11.2031,6.79688 10.2969,6.59375 9.09375,6.59375 C7.40625,6.59375 5.20313,7 3.40625,8.59375 C1.20313,10.5938 0,13.4063 0,15.9063 C0,17.2969 0.296875,18.7031 1.09375,19.7969 C3.20313,23 10.7031,32.5 10.7031,32.5 C10.7031,32.5 11.5938,33.6094 12.5,32.9063 C13.4063,32.2031 13.2031,31.2969 12.9063,30.7969 C12.5938,30.2969 9.40625,24.5 9.40625,24.5 C9.40625,24.5 8.70313,23.0938 8.70313,21.2969 C8.70313,20 9.09375,18.4063 10.4063,17.0938 C11.5938,15.9063 13,15.5 14.2969,15.5 C15.5938,15.5 16.7031,15.9063 17.5,16.4063 L21.4063,18.9063 C21.4063,18.9063 22.5938,19.5 23.2031,18.5938 C23.7031,17.7969 23.5,17.4063 23.2031,16.9063"/>
<path class="Rest" transform="matrix(1.824,0,0,1.824,2683.08,1206.97)" d="M33.4688,-20.2656 C32.7188,-20.5313 32.0469,-20.1719 31.7344,-19.5469 C31.4375,-18.9375 28.6094,-13.5 24.2969,-10.0938 C22.9531,-9.03125 21.3906,-8.34375 19.8281,-7.95313 C20.9063,-9.26563 21.5313,-10.9375 21.4688,-12.75 C21.3281,-16.6875 18.0313,-19.7656 14.0938,-19.625 C10.1563,-19.4844 7.0625,-16.1875 7.20313,-12.25 C7.3125,-9.23438 9.26563,-6.73438 11.9375,-5.78125 C13.5,-5.09375 15.4063,-4.73438 17.4531,-4.79688 C20.2969,-4.90625 23.375,-5.84375 26.0156,-7.92188 C27.25,-8.89063 28.4063,-10.125 29.4375,-11.4219 L29.4375,-11.4063 L24.9375,4.5 C24.9375,4.5 24.9375,4.51563 24.9219,4.51563 L24.9219,4.53125 C24.4531,5.48438 21.2031,11.6563 17.1875,14.8281 C15.8438,15.9063 14.2813,16.5938 12.7188,16.9688 C13.7969,15.6719 14.4219,14 14.3594,12.1875 C14.2188,8.23438 10.9219,5.15625 6.98438,5.29688 C3.04688,5.4375 -0.046875,8.73438 0.09375,12.6875 C0.203125,15.6875 2.15625,18.1875 4.82813,19.1563 C6.39063,19.8281 8.29688,20.2031 10.3438,20.125 C13.1875,20.0313 16.2656,19.0938 18.9063,17.0156 C20.125,16.0469 21.2813,14.8281 22.3125,13.5156 L12.1094,49.9844 L14.7813,50.7344 L33.4531,-15.4688 L34.3281,-18.5938 C34.5313,-19.3281 34.2188,-20.0156 33.4688,-20.2656"/>
<path class="Beam" fill-rule="evenodd" d="M2239.89,1229.77 L2431.47,1229.77 L2431.47,1252.57 L2239.89,1252.57 L2239.89,1229.77 "/>
<path class="Beam" fill-rule="evenodd" d="M2353.95,1195.57 L2431.47,1195.57 L2431.47,1218.37 L2353.95,1218.37 L2353.95,1195.57 "/>
<path class="Beam" fill-rule="evenodd" d="M2497.74,1286.71 L2616.81,1274.81 L2616.81,1297.72 L2497.74,1309.62 L2497.74,1286.71 "/>
<path class="Beam" fill-rule="evenodd" d="M2616.81,1240.61 L2557.53,1246.53 L2557.53,1269.45 L2616.81,1263.52 L2616.81,1240.61 "/>
<path class="Beam" fill-rule="evenodd" d="M3252.5,1229.77 L3490.99,1229.77 L3490.99,1252.57 L3252.5,1252.57 L3252.5,1229.77 "/>
<path class="Beam" fill-rule="evenodd" d="M3387.67,1195.57 L3490.99,1195.57 L3490.99,1218.37 L3387.67,1218.37 L3387.67,1195.57 "/>
<path class="Beam" fill-rule="evenodd" d="M3584.28,1320.88 L3961.15,1367.1 L3961.15,1390.07 L3584.28,1343.85 L3584.28,1320.88 "/>
<path class="Beam" fill-rule="evenodd" d="M3584.28,1286.68 L3755.99,1307.74 L3755.99,1330.71 L3584.28,1309.65 L3584.28,1286.68 "/>
<path class="Beam" fill-rule="evenodd" d="M3819.36,1315.51 L3961.15,1332.9 L3961.15,1355.87 L3819.36,1338.48 L3819.36,1315.51 "/>
<path class="Beam" fill-rule="evenodd" d="M3682.59,1264.54 L3755.99,1273.54 L3755.99,1296.51 L3682.59,1287.51 L3682.59,1264.54 "/>
<path class="Beam" fill-rule="evenodd" d="M3819.36,1281.31 L3892.76,1290.31 L3892.76,1313.28 L3819.36,1304.28 L3819.36,1281.31 "/>
<path class="Marker" d="M2006.74,1024.19 C2011.01,1033.88 2030.02,1045.52 2031.01,1045.85 C2031.51,1046.18 2031.84,1046.5 2031.84,1046.99 C2031.84,1047.49 2031.51,1048.14 2031.01,1049.13 C2030.02,1050.93 2011.16,1084.88 2011.16,1084.88 C2011.01,1085.38 2010.84,1086.03 2010.84,1086.52 C2010.84,1087.83 2011.49,1089.14 2012.65,1089.8 C2013.3,1090.28 2013.79,1090.46 2014.44,1090.46 C2015.76,1090.46 2017.07,1089.63 2017.73,1088.49 C2017.73,1088.49 2038.07,1051.75 2038.55,1050.93 C2038.55,1051.1 2039.54,1050.27 2040.04,1050.27 C2042.01,1050.6 2068.24,1058.32 2068.24,1070.77 C2068.24,1076.02 2065.13,1079.3 2060.87,1079.96 C2060.69,1079.96 2060.21,1080.13 2060.04,1080.13 C2057.59,1080.13 2055.29,1078.32 2055.29,1074.22 L2055.29,1072.74 C2055.29,1067.82 2052.01,1064.22 2048.4,1064.22 C2047.74,1064.22 2047.24,1064.22 2046.76,1064.38 C2041.84,1065.53 2037.41,1067.66 2037.41,1072.91 C2037.41,1073.39 2037.41,1074.05 2037.57,1074.71 C2038.55,1080.28 2044.46,1087.83 2053.32,1087.83 C2065.79,1087.83 2076.27,1076.35 2076.27,1064.05 C2076.27,1062.91 2076.12,1061.6 2075.94,1060.28 C2073.98,1045.85 2053.32,1034.03 2051.68,1033.38 C2050.19,1032.39 2049.54,1031.91 2049.54,1031.25 C2049.54,1030.93 2049.71,1030.75 2049.71,1030.43 C2050.37,1029.44 2070.69,992.706 2070.69,992.706 C2071.19,992.05 2071.35,991.566 2071.35,990.909 C2071.35,989.597 2070.54,988.284 2069.38,987.628 C2068.73,987.456 2068.07,987.3 2067.59,987.3 C2066.27,987.3 2064.96,987.956 2064.3,989.097 C2064.3,989.097 2043.48,1026.82 2042.66,1027.97 C2042.34,1028.63 2042.01,1028.96 2041.51,1028.96 C2041.18,1028.96 2040.69,1028.78 2040.19,1028.63 C2039.05,1028.13 2019.21,1020.6 2015.76,1014.69 C2014.94,1013.21 2013.96,1010.43 2013.96,1007.8 C2013.96,1004.19 2015.6,1000.58 2021.01,999.597 L2021.84,999.597 C2022.65,999.597 2023.48,999.925 2023.96,1001.24 L2024.13,1002.22 C2025.12,1005.83 2027.07,1013.53 2033.8,1013.53 C2039.21,1013.53 2042.82,1010.43 2042.82,1004.68 C2042.82,993.691 2034.13,990.253 2024.13,990.253 C2014.94,990.253 2004.6,1001.57 2004.6,1014.52 C2004.6,1017.64 2005.26,1020.93 2006.74,1024.19 M2066.12,1033.22 C2070.21,1033.22 2073.49,1029.77 2073.49,1025.68 C2073.49,1021.58 2070.21,1018.3 2066.12,1018.3 C2062.01,1018.3 2058.57,1021.58 2058.57,1025.68 C2058.57,1029.77 2062.01,1033.22 2066.12,1033.22 M2014.94,1059.63 C2019.21,1059.63 2022.49,1056.35 2022.49,1052.24 C2022.49,1048.14 2019.21,1044.71 2014.94,1044.71 C2011.01,1044.71 2007.55,1048.14 2007.55,1052.24 C2007.55,1056.35 2011.01,1059.63 2014.94,1059.63"/>
<path class="Fingering" d="M712.64,679.522 L706.203,679.522 L704.749,686.96 C702.859,696.46 701.687,697.335 692.64,697.335 L659.937,697.335 C669.999,686.819 673.359,683.757 682.703,676.46 C695.984,666.226 701.687,661.116 705.046,656.741 C709.718,650.319 712.046,643.897 712.046,636.741 C712.046,620.101 698.328,608.272 679.203,608.272 C660.656,608.272 646.499,620.101 646.499,635.726 C646.499,644.913 651.171,651.194 658.031,651.194 C663.437,651.194 667.078,647.538 667.078,642.288 C667.078,638.632 665.046,635.288 661.968,633.96 C656.578,631.772 656.281,631.491 656.281,629.585 C656.281,627.397 657.734,624.038 659.781,621.554 C663.437,617.038 669.421,614.554 676.281,614.554 C688.406,614.554 695.546,621.991 695.546,634.257 C695.546,645.069 690.437,654.851 678.328,667.694 C667.515,679.085 660.812,686.241 658.328,689.007 C653.062,695.147 650.437,698.491 644.015,706.96 L644.015,711.054 L709.859,711.054 L712.64,679.522 "/>
<path class="Fingering" d="M1250.18,679.095 L1243.74,679.095 L1242.29,686.532 C1240.4,696.032 1239.22,696.907 1230.18,696.907 L1197.47,696.907 C1207.54,686.392 1210.9,683.329 1220.24,676.032 C1233.52,665.798 1239.22,660.689 1242.58,656.314 C1247.25,649.892 1249.58,643.47 1249.58,636.314 C1249.58,619.673 1235.86,607.845 1216.74,607.845 C1198.19,607.845 1184.04,619.673 1184.04,635.298 C1184.04,644.486 1188.71,650.767 1195.57,650.767 C1200.97,650.767 1204.61,647.111 1204.61,641.861 C1204.61,638.204 1202.58,634.861 1199.5,633.532 C1194.11,631.345 1193.82,631.064 1193.82,629.157 C1193.82,626.97 1195.27,623.611 1197.32,621.126 C1200.97,616.611 1206.96,614.126 1213.82,614.126 C1225.94,614.126 1233.08,621.564 1233.08,633.829 C1233.08,644.642 1227.97,654.423 1215.86,667.267 C1205.05,678.657 1198.35,685.814 1195.86,688.579 C1190.6,694.72 1187.97,698.064 1181.55,706.532 L1181.55,710.626 L1247.4,710.626 L1250.18,679.095 "/>
<path class="Fingering" d="M1617.61,679.522 L1611.17,679.522 L1609.72,686.96 C1607.83,696.46 1606.66,697.335 1597.61,697.335 L1564.91,697.335 C1574.97,686.819 1578.33,683.757 1587.67,676.46 C1600.96,666.226 1606.66,661.116 1610.02,656.741 C1614.69,650.319 1617.02,643.897 1617.02,636.741 C1617.02,620.101 1603.3,608.272 1584.17,608.272 C1565.63,608.272 1551.47,620.101 1551.47,635.726 C1551.47,644.913 1556.14,651.194 1563,651.194 C1568.41,651.194 1572.05,647.538 1572.05,642.288 C1572.05,638.632 1570.02,635.288 1566.94,633.96 C1561.55,631.772 1561.25,631.491 1561.25,629.585 C1561.25,627.397 1562.71,624.038 1564.75,621.554 C1568.41,617.038 1574.39,614.554 1581.25,614.554 C1593.38,614.554 1600.52,621.991 1600.52,634.257 C1600.52,645.069 1595.41,654.851 1583.3,667.694 C1572.49,679.085 1565.78,686.241 1563.3,689.007 C1558.03,695.147 1555.41,698.491 1548.99,706.96 L1548.99,711.054 L1614.83,711.054 L1617.61,679.522 "/>
<path class="Fingering" d="M2303.76,679.522 L2297.32,679.522 L2295.87,686.96 C2293.98,696.46 2292.81,697.335 2283.76,697.335 L2251.06,697.335 C2261.12,686.819 2264.48,683.757 2273.82,676.46 C2287.1,666.226 2292.81,661.116 2296.17,656.741 C2300.84,650.319 2303.17,643.897 2303.17,636.741 C2303.17,620.101 2289.45,608.272 2270.32,608.272 C2251.77,608.272 2237.62,620.101 2237.62,635.726 C2237.62,644.913 2242.29,651.194 2249.15,651.194 C2254.56,651.194 2258.2,647.538 2258.2,642.288 C2258.2,638.632 2256.17,635.288 2253.09,633.96 C2247.7,631.772 2247.4,631.491 2247.4,629.585 C2247.4,627.397 2248.85,624.038 2250.9,621.554 C2254.56,617.038 2260.54,614.554 2267.4,614.554 C2279.52,614.554 2286.67,621.991 2286.67,634.257 C2286.67,645.069 2281.56,654.851 2269.45,667.694 C2258.63,679.085 2251.93,686.241 2249.45,689.007 C2244.18,695.147 2241.56,698.491 2235.13,706.96 L2235.13,711.054 L2300.98,711.054 L2303.76,679.522 "/>
<path class="Fingering" d="M2346.1,762.25 C2341.13,768.235 2327.69,772.766 2314.27,773.047 L2314.27,779.328 L2327.12,779.328 C2335.58,779.485 2336.46,780.36 2336.16,788.531 L2336.16,847.078 C2336.16,854.516 2336.16,854.813 2335.29,856.125 C2334.13,857.578 2331.35,858.172 2323.18,858.172 L2313.68,858.172 L2313.68,865.031 L2371.51,865.031 L2371.51,858.172 L2363.47,858.172 C2355.29,858.172 2352.52,857.578 2351.35,856.125 C2350.33,854.813 2350.33,854.672 2350.33,847.078 L2350.33,786.781 C2350.33,778.594 2350.62,771.735 2351.35,762.25 L2346.1,762.25 M2453.99,833.5 L2447.55,833.5 L2446.1,840.938 C2444.21,850.438 2443.04,851.313 2433.99,851.313 L2401.29,851.313 C2411.35,840.797 2414.71,837.735 2424.05,830.438 C2437.33,820.203 2443.04,815.094 2446.4,810.719 C2451.07,804.297 2453.4,797.875 2453.4,790.719 C2453.4,774.078 2439.68,762.25 2420.55,762.25 C2402.01,762.25 2387.85,774.078 2387.85,789.703 C2387.85,798.891 2392.52,805.172 2399.38,805.172 C2404.79,805.172 2408.43,801.516 2408.43,796.266 C2408.43,792.61 2406.4,789.266 2403.32,787.938 C2397.93,785.75 2397.63,785.469 2397.63,783.563 C2397.63,781.375 2399.08,778.016 2401.13,775.531 C2404.79,771.016 2410.77,768.531 2417.63,768.531 C2429.76,768.531 2436.9,775.969 2436.9,788.235 C2436.9,799.047 2431.79,808.828 2419.68,821.672 C2408.87,833.063 2402.16,840.219 2399.68,842.985 C2394.41,849.125 2391.79,852.469 2385.37,860.938 L2385.37,865.031 L2451.21,865.031 L2453.99,833.5 "/>
<path class="Fingering" d="M2489.89,876.312 C2484.92,882.296 2471.48,886.827 2458.06,887.109 L2458.06,893.39 L2470.9,893.39 C2479.37,893.546 2480.25,894.421 2479.95,902.593 L2479.95,961.14 C2479.95,968.577 2479.95,968.874 2479.07,970.187 C2477.92,971.64 2475.14,972.234 2466.96,972.234 L2457.46,972.234 L2457.46,979.093 L2515.29,979.093 L2515.29,972.234 L2507.26,972.234 C2499.07,972.234 2496.31,971.64 2495.14,970.187 C2494.12,968.874 2494.12,968.734 2494.12,961.14 L2494.12,900.843 C2494.12,892.655 2494.4,885.796 2495.14,876.312 L2489.89,876.312 M2597.78,947.562 L2591.34,947.562 L2589.89,954.999 C2588,964.499 2586.82,965.374 2577.78,965.374 L2545.07,965.374 C2555.14,954.859 2558.5,951.796 2567.84,944.499 C2581.12,934.265 2586.82,929.155 2590.18,924.78 C2594.86,918.359 2597.18,911.937 2597.18,904.78 C2597.18,888.14 2583.46,876.312 2564.34,876.312 C2545.79,876.312 2531.64,888.14 2531.64,903.765 C2531.64,912.952 2536.31,919.234 2543.17,919.234 C2548.57,919.234 2552.21,915.577 2552.21,910.327 C2552.21,906.671 2550.18,903.327 2547.11,901.999 C2541.71,899.812 2541.42,899.53 2541.42,897.624 C2541.42,895.437 2542.87,892.077 2544.92,889.593 C2548.57,885.077 2554.56,882.593 2561.42,882.593 C2573.54,882.593 2580.68,890.03 2580.68,902.296 C2580.68,913.109 2575.57,922.89 2563.46,935.734 C2552.65,947.124 2545.95,954.28 2543.46,957.046 C2538.2,963.187 2535.57,966.53 2529.15,974.999 L2529.15,979.093 L2595,979.093 L2597.78,947.562 "/>
<path class="Fingering" d="M2675.66,890.531 L2669.23,890.531 L2667.77,897.969 C2665.88,907.469 2664.71,908.344 2655.66,908.344 L2622.96,908.344 C2633.02,897.828 2636.38,894.766 2645.73,887.469 C2659.01,877.234 2664.71,872.125 2668.07,867.75 C2672.74,861.328 2675.07,854.906 2675.07,847.75 C2675.07,831.109 2661.35,819.281 2642.23,819.281 C2623.68,819.281 2609.52,831.109 2609.52,846.734 C2609.52,855.922 2614.2,862.203 2621.06,862.203 C2626.46,862.203 2630.1,858.547 2630.1,853.297 C2630.1,849.641 2628.07,846.297 2624.99,844.969 C2619.6,842.781 2619.31,842.5 2619.31,840.594 C2619.31,838.406 2620.76,835.047 2622.81,832.562 C2626.46,828.047 2632.45,825.562 2639.31,825.562 C2651.43,825.562 2658.57,833 2658.57,845.266 C2658.57,856.078 2653.46,865.859 2641.35,878.703 C2630.54,890.094 2623.84,897.25 2621.35,900.016 C2616.09,906.156 2613.46,909.5 2607.04,917.969 L2607.04,922.062 L2672.88,922.062 L2675.66,890.531 "/>
<path class="Fingering" d="M3285.65,722.335 C3280.68,728.319 3267.24,732.85 3253.82,733.132 L3253.82,739.413 L3266.66,739.413 C3275.13,739.569 3276.01,740.444 3275.71,748.616 L3275.71,807.163 C3275.71,814.6 3275.71,814.897 3274.84,816.21 C3273.68,817.663 3270.9,818.257 3262.73,818.257 L3253.23,818.257 L3253.23,825.116 L3311.05,825.116 L3311.05,818.257 L3303.02,818.257 C3294.84,818.257 3292.07,817.663 3290.9,816.21 C3289.88,814.897 3289.88,814.757 3289.88,807.163 L3289.88,746.866 C3289.88,738.678 3290.16,731.819 3290.9,722.335 L3285.65,722.335 "/>
<path class="Fingering" d="M3379.82,762.25 C3374.85,768.235 3361.41,772.766 3347.99,773.047 L3347.99,779.328 L3360.84,779.328 C3369.3,779.485 3370.18,780.36 3369.88,788.531 L3369.88,847.078 C3369.88,854.516 3369.88,854.813 3369.01,856.125 C3367.85,857.578 3365.07,858.172 3356.9,858.172 L3347.4,858.172 L3347.4,865.031 L3405.23,865.031 L3405.23,858.172 L3397.19,858.172 C3389.01,858.172 3386.24,857.578 3385.07,856.125 C3384.05,854.813 3384.05,854.672 3384.05,847.078 L3384.05,786.781 C3384.05,778.594 3384.34,771.735 3385.07,762.25 L3379.82,762.25 M3487.71,833.5 L3481.27,833.5 L3479.82,840.938 C3477.93,850.438 3476.76,851.313 3467.71,851.313 L3435.01,851.313 C3445.07,840.797 3448.43,837.735 3457.77,830.438 C3471.05,820.203 3476.76,815.094 3480.12,810.719 C3484.79,804.297 3487.12,797.875 3487.12,790.719 C3487.12,774.078 3473.4,762.25 3454.27,762.25 C3435.73,762.25 3421.57,774.078 3421.57,789.703 C3421.57,798.891 3426.24,805.172 3433.1,805.172 C3438.51,805.172 3442.15,801.516 3442.15,796.266 C3442.15,792.61 3440.12,789.266 3437.04,787.938 C3431.65,785.75 3431.35,785.469 3431.35,783.563 C3431.35,781.375 3432.8,778.016 3434.85,775.531 C3438.51,771.016 3444.49,768.531 3451.35,768.531 C3463.48,768.531 3470.62,775.969 3470.62,788.235 C3470.62,799.047 3465.51,808.828 3453.4,821.672 C3442.59,833.063 3435.88,840.219 3433.4,842.985 C3428.13,849.125 3425.51,852.469 3419.09,860.938 L3419.09,865.031 L3484.93,865.031 L3487.71,833.5 "/>
<path class="Fingering" d="M3617.43,722.335 C3612.46,728.319 3599.03,732.85 3585.6,733.132 L3585.6,739.413 L3598.45,739.413 C3606.92,739.569 3607.79,740.444 3607.49,748.616 L3607.49,807.163 C3607.49,814.6 3607.49,814.897 3606.62,816.21 C3605.46,817.663 3602.68,818.257 3594.51,818.257 L3585.01,818.257 L3585.01,825.116 L3642.84,825.116 L3642.84,818.257 L3634.81,818.257 C3626.62,818.257 3623.85,817.663 3622.68,816.21 C3621.67,814.897 3621.67,814.757 3621.67,807.163 L3621.67,746.866 C3621.67,738.678 3621.95,731.819 3622.68,722.335 L3617.43,722.335 "/>
<path class="Fingering" d="M3674.74,593.585 C3669.77,599.569 3656.33,604.1 3642.91,604.382 L3642.91,610.663 L3655.75,610.663 C3664.22,610.819 3665.1,611.694 3664.8,619.866 L3664.8,678.413 C3664.8,685.85 3664.8,686.147 3663.93,687.46 C3662.77,688.913 3659.99,689.507 3651.82,689.507 L3642.32,689.507 L3642.32,696.366 L3700.14,696.366 L3700.14,689.507 L3692.11,689.507 C3683.93,689.507 3681.16,688.913 3679.99,687.46 C3678.97,686.147 3678.97,686.007 3678.97,678.413 L3678.97,618.116 C3678.97,609.928 3679.25,603.069 3679.99,593.585 L3674.74,593.585 M3782.63,664.835 L3776.19,664.835 L3774.74,672.272 C3772.85,681.772 3771.68,682.647 3762.63,682.647 L3729.93,682.647 C3739.99,672.132 3743.35,669.069 3752.69,661.772 C3765.97,651.538 3771.68,646.428 3775.04,642.053 C3779.71,635.632 3782.04,629.21 3782.04,622.053 C3782.04,605.413 3768.32,593.585 3749.19,593.585 C3730.64,593.585 3716.49,605.413 3716.49,621.038 C3716.49,630.225 3721.16,636.507 3728.02,636.507 C3733.43,636.507 3737.07,632.85 3737.07,627.6 C3737.07,623.944 3735.04,620.6 3731.96,619.272 C3726.57,617.085 3726.27,616.803 3726.27,614.897 C3726.27,612.71 3727.72,609.35 3729.77,606.866 C3733.43,602.35 3739.41,599.866 3746.27,599.866 C3758.39,599.866 3765.54,607.303 3765.54,619.569 C3765.54,630.382 3760.43,640.163 3748.32,653.007 C3737.5,664.397 3730.8,671.553 3728.32,674.319 C3723.05,680.46 3720.43,683.803 3714,692.272 L3714,696.366 L3779.85,696.366 L3782.63,664.835 "/>
<path class="Fingering" d="M3814.84,536.085 L3808.41,536.085 L3806.95,543.522 C3805.06,553.022 3803.89,553.897 3794.84,553.897 L3762.14,553.897 C3772.2,543.382 3775.56,540.319 3784.91,533.022 C3798.19,522.788 3803.89,517.678 3807.25,513.303 C3811.92,506.882 3814.25,500.46 3814.25,493.303 C3814.25,476.663 3800.53,464.835 3781.41,464.835 C3762.86,464.835 3748.7,476.663 3748.7,492.288 C3748.7,501.475 3753.37,507.757 3760.23,507.757 C3765.64,507.757 3769.28,504.1 3769.28,498.85 C3769.28,495.194 3767.25,491.85 3764.17,490.522 C3758.78,488.335 3758.48,488.053 3758.48,486.147 C3758.48,483.96 3759.94,480.6 3761.98,478.116 C3765.64,473.6 3771.62,471.116 3778.48,471.116 C3790.61,471.116 3797.75,478.553 3797.75,490.819 C3797.75,501.632 3792.64,511.413 3780.53,524.257 C3769.72,535.647 3763.01,542.803 3760.53,545.569 C3755.26,551.71 3752.64,555.053 3746.22,563.522 L3746.22,567.616 L3812.06,567.616 L3814.84,536.085 "/>
<path class="Fingering" d="M3811.51,336.085 C3806.54,342.069 3793.1,346.6 3779.68,346.882 L3779.68,353.163 L3792.53,353.163 C3800.99,353.319 3801.87,354.194 3801.57,362.366 L3801.57,420.913 C3801.57,428.35 3801.57,428.647 3800.7,429.96 C3799.54,431.413 3796.76,432.007 3788.59,432.007 L3779.09,432.007 L3779.09,438.866 L3836.92,438.866 L3836.92,432.007 L3828.88,432.007 C3820.7,432.007 3817.93,431.413 3816.76,429.96 C3815.74,428.647 3815.74,428.507 3815.74,420.913 L3815.74,360.616 C3815.74,352.429 3816.03,345.569 3816.76,336.085 L3811.51,336.085 M3919.4,407.335 L3912.96,407.335 L3911.51,414.772 C3909.62,424.272 3908.45,425.147 3899.4,425.147 L3866.7,425.147 C3876.76,414.632 3880.12,411.569 3889.46,404.272 C3902.74,394.038 3908.45,388.929 3911.81,384.554 C3916.48,378.132 3918.81,371.71 3918.81,364.554 C3918.81,347.913 3905.09,336.085 3885.96,336.085 C3867.42,336.085 3853.26,347.913 3853.26,363.538 C3853.26,372.725 3857.93,379.007 3864.79,379.007 C3870.2,379.007 3873.84,375.35 3873.84,370.1 C3873.84,366.444 3871.81,363.1 3868.73,361.772 C3863.34,359.585 3863.04,359.304 3863.04,357.397 C3863.04,355.21 3864.49,351.85 3866.54,349.366 C3870.2,344.85 3876.18,342.366 3883.04,342.366 C3895.17,342.366 3902.31,349.804 3902.31,362.069 C3902.31,372.882 3897.2,382.663 3885.09,395.507 C3874.28,406.897 3867.57,414.054 3865.09,416.819 C3859.82,422.96 3857.2,426.304 3850.78,434.772 L3850.78,438.866 L3916.62,438.866 L3919.4,407.335 "/>
<path class="Fingering" d="M3911.61,274.835 L3905.18,274.835 L3903.72,282.272 C3901.83,291.772 3900.66,292.647 3891.61,292.647 L3858.91,292.647 C3868.97,282.132 3872.33,279.069 3881.68,271.772 C3894.96,261.538 3900.66,256.429 3904.02,252.054 C3908.69,245.632 3911.02,239.21 3911.02,232.054 C3911.02,215.413 3897.3,203.585 3878.18,203.585 C3859.63,203.585 3845.47,215.413 3845.47,231.038 C3845.47,240.225 3850.15,246.507 3857,246.507 C3862.41,246.507 3866.05,242.85 3866.05,237.6 C3866.05,233.944 3864.02,230.6 3860.94,229.272 C3855.55,227.085 3855.25,226.804 3855.25,224.897 C3855.25,222.71 3856.71,219.35 3858.75,216.866 C3862.41,212.35 3868.4,209.866 3875.25,209.866 C3887.38,209.866 3894.52,217.304 3894.52,229.569 C3894.52,240.382 3889.41,250.163 3877.3,263.007 C3866.49,274.397 3859.79,281.554 3857.3,284.319 C3852.04,290.46 3849.41,293.804 3842.99,302.272 L3842.99,306.366 L3908.83,306.366 L3911.61,274.835 M3969.57,252.632 C3982.85,247.819 3988.99,240.382 3988.99,228.694 C3988.99,213.366 3977.3,203.585 3959.21,203.585 C3942.11,203.585 3929.13,213.663 3929.13,226.944 C3929.13,232.929 3933.07,237.163 3938.75,237.163 C3943.86,237.163 3947.38,233.663 3947.38,228.397 C3947.38,225.194 3946.21,223.288 3942.85,220.96 C3941.4,219.929 3940.96,219.35 3940.96,218.335 C3940.96,214.241 3949.43,209.866 3957.74,209.866 C3968.25,209.866 3973.8,216.429 3973.8,228.835 C3973.8,242.413 3968.25,249.569 3957.88,249.569 C3956.57,249.569 3954.1,249.429 3951.9,249.288 C3950.74,249.132 3949.57,249.132 3948.69,249.132 C3945.63,249.132 3944.02,250.444 3944.02,253.085 C3944.02,255.554 3945.47,256.725 3948.69,256.725 C3949.57,256.725 3950.74,256.725 3952.05,256.585 C3954.97,256.429 3957.3,256.429 3958.91,256.429 C3969.71,256.429 3975.55,264.179 3975.55,278.632 C3975.55,293.804 3968.25,302.272 3955.11,302.272 C3945.91,302.272 3935.99,297.319 3935.99,292.788 C3935.99,291.475 3936.29,291.179 3939.05,289.569 C3943.15,287.1 3944.75,284.616 3944.75,280.96 C3944.75,275.71 3940.8,271.772 3935.55,271.772 C3929.27,271.772 3925.18,276.882 3925.18,284.616 C3925.18,298.772 3938.18,308.554 3956.86,308.554 C3978.04,308.554 3991.75,296.882 3991.75,278.913 C3991.75,265.194 3984.75,256.866 3969.57,252.632"/>
<path class="Fingering" d="M3980,142.335 L3973.56,142.335 L3972.11,149.772 C3970.22,159.272 3969.05,160.147 3960,160.147 L3927.3,160.147 C3937.36,149.632 3940.72,146.569 3950.06,139.272 C3963.34,129.038 3969.05,123.928 3972.41,119.553 C3977.08,113.132 3979.41,106.71 3979.41,99.5535 C3979.41,82.9129 3965.69,71.0847 3946.56,71.0847 C3928.02,71.0847 3913.86,82.9129 3913.86,98.5379 C3913.86,107.725 3918.53,114.007 3925.39,114.007 C3930.8,114.007 3934.44,110.35 3934.44,105.1 C3934.44,101.444 3932.41,98.1004 3929.33,96.7722 C3923.94,94.5847 3923.64,94.3035 3923.64,92.3972 C3923.64,90.2097 3925.09,86.8504 3927.14,84.366 C3930.8,79.8504 3936.78,77.366 3943.64,77.366 C3955.77,77.366 3962.91,84.8035 3962.91,97.0691 C3962.91,107.882 3957.8,117.663 3945.69,130.507 C3934.87,141.897 3928.17,149.053 3925.69,151.819 C3920.42,157.96 3917.8,161.303 3911.37,169.772 L3911.37,173.866 L3977.22,173.866 L3980,142.335 M4037.95,120.132 C4051.23,115.319 4057.37,107.882 4057.37,96.1941 C4057.37,80.866 4045.69,71.0847 4027.59,71.0847 C4010.5,71.0847 3997.52,81.1629 3997.52,94.4441 C3997.52,100.428 4001.45,104.663 4007.14,104.663 C4012.25,104.663 4015.77,101.163 4015.77,95.8972 C4015.77,92.6941 4014.59,90.7879 4011.23,88.4597 C4009.78,87.4285 4009.34,86.8504 4009.34,85.8347 C4009.34,81.741 4017.81,77.366 4026.12,77.366 C4036.64,77.366 4042.19,83.9285 4042.19,96.3347 C4042.19,109.913 4036.64,117.069 4026.27,117.069 C4024.95,117.069 4022.48,116.928 4020.28,116.788 C4019.12,116.632 4017.95,116.632 4017.08,116.632 C4014.02,116.632 4012.41,117.944 4012.41,120.585 C4012.41,123.053 4013.86,124.225 4017.08,124.225 C4017.95,124.225 4019.12,124.225 4020.44,124.085 C4023.36,123.928 4025.69,123.928 4027.3,123.928 C4038.09,123.928 4043.94,131.678 4043.94,146.132 C4043.94,161.303 4036.64,169.772 4023.5,169.772 C4014.3,169.772 4004.37,164.819 4004.37,160.288 C4004.37,158.975 4004.67,158.678 4007.44,157.069 C4011.53,154.6 4013.14,152.116 4013.14,148.46 C4013.14,143.21 4009.19,139.272 4003.94,139.272 C3997.66,139.272 3993.56,144.382 3993.56,152.116 C3993.56,166.272 4006.56,176.053 4025.25,176.053 C4046.42,176.053 4060.14,164.382 4060.14,146.413 C4060.14,132.694 4053.14,124.366 4037.95,120.132"/>
<path class="RehearsalMark" fill="none" stroke="#000000" stroke-width="7.30" stroke-linecap="square" stroke-linejoin="miter" stroke-miterlimit="2" fill-rule="evenodd" d="M2034.5,821.198 L2190.39,821.198 L2190.39,969.094 L2034.5,969.094 L2034.5,821.198 "/>
<path class="RehearsalMark" d="M2108.88,848.302 L2079.82,916.146 C2073.93,929.974 2069.19,934.959 2061.65,935.74 L2061.65,942.646 L2098.63,942.646 L2098.63,935.74 C2089.54,935.224 2085.96,932.787 2085.96,926.896 C2085.96,924.724 2086.48,922.677 2087.88,919.599 L2089.93,914.74 L2121.8,914.74 L2126.66,927.287 C2128.07,930.865 2128.21,931.506 2128.21,932.537 C2128.21,934.834 2126.41,935.599 2120.77,935.599 L2118.6,935.74 L2118.6,942.646 L2163.54,942.646 L2163.54,935.74 C2156.24,935.474 2154.19,934.193 2151.51,927.662 L2118.6,848.302 L2108.88,848.302 M2106.18,875.568 L2118.6,906.162 L2093.26,906.162 L2106.18,875.568 "/>
<path class="TrillSegment" transform="matrix(1.824,0,0,1.824,648.773,584.826)" d="M32.2031,-27.5 C28.2969,-27.5 26.1094,-24.9063 26.1094,-24.9063 L25.2969,-25.7031 C24.7969,-26.2031 24,-26.2031 24,-26.2031 L13.7031,-26.2031 L17.0938,-36.7031 C17.2969,-37.4063 16.5,-38.2969 15.7031,-38.2969 L14.7969,-38.2969 C14.5,-38.2969 14,-38 13.7969,-37.7969 C13.5938,-37.6094 9,-33.7969 8.59375,-33.5 C8.20313,-33.2031 8.09375,-32.7031 8.09375,-32.7031 C8.09375,-32.7031 7.09375,-29.9063 5.79688,-26.2031 L0.203125,-26.2031 C-1,-26.2031 -1.20313,-25 -1.20313,-25 L-1.20313,-23.7031 C-1.20313,-22.5938 0.203125,-22.5 0.203125,-22.5 L4.59375,-22.5 C2.40625,-15.9063 0,-8.09375 0,-5.90625 C0,-1.09375 3.29688,0 6.40625,0 C9.5,0 12.9063,-2.40625 12.9063,-2.40625 C12.9063,-2.40625 13.2031,-1.70313 13.5,-0.90625 C13.7969,-0.09375 14.7031,0 14.7031,0 L19.2031,0 C20.5,0 20.7031,-1.09375 20.7031,-1.09375 L20.7031,-3 C20.7031,-5.20313 22.2969,-10.2031 22.2969,-10.2031 L26.5,-19.7031 C26.5,-19.7031 27.5,-21.5938 28.6094,-22.5938 C29.7031,-23.5 30.9063,-23.9063 31.4063,-23.5938 C30,-22.7031 29.7031,-21.2031 29.7031,-20 C29.7031,-18.7969 31,-16.2031 33.7031,-16.2031 C37.1094,-16.2031 38.2969,-18.2969 38.2969,-21.4063 C38.2969,-24.5 36.1094,-27.5 32.2031,-27.5 M15.4063,-9.90625 C14.5938,-7.20313 11.9063,-5.40625 10.2031,-5.40625 C9.90625,-5.40625 9.70313,-5.40625 9.5,-5.5 C8.70313,-5.90625 8.40625,-6.90625 8.40625,-8 C8.40625,-10.2969 9.5,-13.2031 9.5,-13.2031 L12.5,-22.5 L19.0938,-22.5 C19.4063,-22.5 19.4063,-22.2031 19.4063,-22.2031 C19.4063,-22.2031 16.2969,-13 15.4063,-9.90625"/>
<path class="TrillSegment" transform="matrix(1.824,0,0,1.824,727.746,584.826)" d="M23.2969,-20.2031 C23.2969,-20.2031 22.7031,-20.9063 21.9063,-21.5938 C21.5938,-21.9063 21.2031,-22 20.9063,-22 C20.5938,-22 20.4063,-21.9063 20.2031,-21.7031 L19.0938,-20.5938 C18.9063,-20.4063 18.7031,-20.2969 18.5,-20.2969 C18.0938,-20.2969 17.9063,-20.5938 17.9063,-20.5938 C17.9063,-20.5938 11.5,-26.1094 10.5,-27 C9.40625,-27.7969 8.29688,-28.1094 7.29688,-28.1094 C5.20313,-28.1094 3.29688,-26.9063 2.5,-26 L-2.29688,-21.2031 C-2.59375,-20.9063 -2.70313,-20.7031 -2.70313,-20.4063 C-2.70313,-19.9063 -2.29688,-19.5 -2.29688,-19.5 C-2.29688,-19.5 -1.70313,-18.7969 -0.90625,-18.0938 C-0.59375,-17.7969 -0.296875,-17.7031 0,-17.7031 C0.296875,-17.7031 0.5,-17.7969 0.703125,-18 L1.79688,-19.0938 C2,-19.2969 2.20313,-19.4063 2.40625,-19.4063 C2.79688,-19.4063 3.09375,-19.0938 3.09375,-19.0938 C3.09375,-19.0938 9.5,-13.7031 10.5,-12.7969 C11.5938,-12 12.7031,-11.7031 13.7031,-11.7031 C15.7969,-11.7031 17.7031,-12.9063 18.5,-13.7969 L23.2969,-18.5938 C23.5938,-18.9063 23.7031,-19.2031 23.7031,-19.4063 C23.7031,-19.9063 23.2969,-20.2031 23.2969,-20.2031"/>
<path class="TrillSegment" transform="matrix(1.824,0,0,1.824,767.874,584.826)" d="M23.2969,-20.2031 C23.2969,-20.2031 22.7031,-20.9063 21.9063,-21.5938 C21.5938,-21.9063 21.2031,-22 20.9063,-22 C20.5938,-22 20.4063,-21.9063 20.2031,-21.7031 L19.0938,-20.5938 C18.9063,-20.4063 18.7031,-20.2969 18.5,-20.2969 C18.0938,-20.2969 17.9063,-20.5938 17.9063,-20.5938 C17.9063,-20.5938 11.5,-26.1094 10.5,-27 C9.40625,-27.7969 8.29688,-28.1094 7.29688,-28.1094 C5.20313,-28.1094 3.29688,-26.9063 2.5,-26 L-2.29688,-21.2031 C-2.59375,-20.9063 -2.70313,-20.7031 -2.70313,-20.4063 C-2.70313,-19.9063 -2.29688,-19.5 -2.29688,-19.5 C-2.29688,-19.5 -1.70313,-18.7969 -0.90625,-18.0938 C-0.59375,-17.7969 -0.296875,-17.7031 0,-17.7031 C0.296875,-17.7031 0.5,-17.7969 0.703125,-18 L1.79688,-19.0938 C2,-19.2969 2.20313,-19.4063 2.40625,-19.4063 C2.79688,-19.4063 3.09375,-19.0938 3.09375,-19.0938 C3.09375,-19.0938 9.5,-13.7031 10.5,-12.7969 C11.5938,-12 12.7031,-11.7031 13.7031,-11.7031 C15.7969,-11.7031 17.7031,-12.9063 18.5,-13.7969 L23.2969,-18.5938 C23.5938,-18.9063 23.7031,-19.2031 23.7031,-19.4063 C23.7031,-19.9063 23.2969,-20.2031 23.2969,-20.2031"/>
<path class="TrillSegment" transform="matrix(1.824,0,0,1.824,808.002,584.826)" d="M23.2969,-20.2031 C23.2969,-20.2031 22.7031,-20.9063 21.9063,-21.5938 C21.5938,-21.9063 21.2031,-22 20.9063,-22 C20.5938,-22 20.4063,-21.9063 20.2031,-21.7031 L19.0938,-20.5938 C18.9063,-20.4063 18.7031,-20.2969 18.5,-20.2969 C18.0938,-20.2969 17.9063,-20.5938 17.9063,-20.5938 C17.9063,-20.5938 11.5,-26.1094 10.5,-27 C9.40625,-27.7969 8.29688,-28.1094 7.29688,-28.1094 C5.20313,-28.1094 3.29688,-26.9063 2.5,-26 L-2.29688,-21.2031 C-2.59375,-20.9063 -2.70313,-20.7031 -2.70313,-20.4063 C-2.70313,-19.9063 -2.29688,-19.5 -2.29688,-19.5 C-2.29688,-19.5 -1.70313,-18.7969 -0.90625,-18.0938 C-0.59375,-17.7969 -0.296875,-17.7031 0,-17.7031 C0.296875,-17.7031 0.5,-17.7969 0.703125,-18 L1.79688,-19.0938 C2,-19.2969 2.20313,-19.4063 2.40625,-19.4063 C2.79688,-19.4063 3.09375,-19.0938 3.09375,-19.0938 C3.09375,-19.0938 9.5,-13.7031 10.5,-12.7969 C11.5938,-12 12.7031,-11.7031 13.7031,-11.7031 C15.7969,-11.7031 17.7031,-12.9063 18.5,-13.7969 L23.2969,-18.5938 C23.5938,-18.9063 23.7031,-19.2031 23.7031,-19.4063 C23.7031,-19.9063 23.2969,-20.2031 23.2969,-20.2031"/>
<path class="TrillSegment" transform="matrix(1.824,0,0,1.824,848.13,584.826)" d="M23.2969,-20.2031 C23.2969,-20.2031 22.7031,-20.9063 21.9063,-21.5938 C21.5938,-21.9063 21.2031,-22 20.9063,-22 C20.5938,-22 20.4063,-21.9063 20.2031,-21.7031 L19.0938,-20.5938 C18.9063,-20.4063 18.7031,-20.2969 18.5,-20.2969 C18.0938,-20.2969 17.9063,-20.5938 17.9063,-20.5938 C17.9063,-20.5938 11.5,-26.1094 10.5,-27 C9.40625,-27.7969 8.29688,-28.1094 7.29688,-28.1094 C5.20313,-28.1094 3.29688,-26.9063 2.5,-26 L-2.29688,-21.2031 C-2.59375,-20.9063 -2.70313,-20.7031 -2.70313,-20.4063 C-2.70313,-19.9063 -2.29688,-19.5 -2.29688,-19.5 C-2.29688,-19.5 -1.70313,-18.7969 -0.90625,-18.0938 C-0.59375,-17.7969 -0.296875,-17.7031 0,-17.7031 C0.296875,-17.7031 0.5,-17.7969 0.703125,-18 L1.79688,-19.0938 C2,-19.2969 2.20313,-19.4063 2.40625,-19.4063 C2.79688,-19.4063 3.09375,-19.0938 3.09375,-19.0938 C3.09375,-19.0938 9.5,-13.7031 10.5,-12.7969 C11.5938,-12 12.7031,-11.7031 13.7031,-11.7031 C15.7969,-11.7031 17.7031,-12.9063 18.5,-13.7969 L23.2969,-18.5938 C23.5938,-18.9063 23.7031,-19.2031 23.7031,-19.4063 C23.7031,-19.9063 23.2969,-20.2031 23.2969,-20.2031"/>
<path class="TrillSegment" transform="matrix(1.824,0,0,1.824,888.258,584.826)" d="M23.2969,-20.2031 C23.2969,-20.2031 22.7031,-20.9063 21.9063,-21.5938 C21.5938,-21.9063 21.2031,-22 20.9063,-22 C20.5938,-22 20.4063,-21.9063 20.2031,-21.7031 L19.0938,-20.5938 C18.9063,-20.4063 18.7031,-20.2969 18.5,-20.2969 C18.0938,-20.2969 17.9063,-20.5938 17.9063,-20.5938 C17.9063,-20.5938 11.5,-26.1094 10.5,-27 C9.40625,-27.7969 8.29688,-28.1094 7.29688,-28.1094 C5.20313,-28.1094 3.29688,-26.9063 2.5,-26 L-2.29688,-21.2031 C-2.59375,-20.9063 -2.70313,-20.7031 -2.70313,-20.4063 C-2.70313,-19.9063 -2.29688,-19.5 -2.29688,-19.5 C-2.29688,-19.5 -1.70313,-18.7969 -0.90625,-18.0938 C-0.59375,-17.7969 -0.296875,-17.7031 0,-17.7031 C0.296875,-17.7031 0.5,-17.7969 0.703125,-18 L1.79688,-19.0938 C2,-19.2969 2.20313,-19.4063 2.40625,-19.4063 C2.79688,-19.4063 3.09375,-19.0938 3.09375,-19.0938 C3.09375,-19.0938 9.5,-13.7031 10.5,-12.7969 C11.5938,-12 12.7031,-11.7031 13.7031,-11.7031 C15.7969,-11.7031 17.7031,-12.9063 18.5,-13.7969 L23.2969,-18.5938 C23.5938,-18.9063 23.7031,-19.2031 23.7031,-19.4063 C23.7031,-19.9063 23.2969,-20.2031 23.2969,-20.2031"/>
<path class="TrillSegment" transform="matrix(1.824,0,0,1.824,928.386,584.826)" d="M23.2969,-20.2031 C23.2969,-20.2031 22.7031,-20.9063 21.9063,-21.5938 C21.5938,-21.9063 21.2031,-22 20.9063,-22 C20.5938,-22 20.4063,-21.9063 20.2031,-21.7031 L19.0938,-20.5938 C18.9063,-20.4063 18.7031,-20.2969 18.5,-20.2969 C18.0938,-20.2969 17.9063,-20.5938 17.9063,-20.5938 C17.9063,-20.5938 11.5,-26.1094 10.5,-27 C9.40625,-27.7969 8.29688,-28.1094 7.29688,-28.1094 C5.20313,-28.1094 3.29688,-26.9063 2.5,-26 L-2.29688,-21.2031 C-2.59375,-20.9063 -2.70313,-20.7031 -2.70313,-20.4063 C-2.70313,-19.9063 -2.29688,-19.5 -2.29688,-19.5 C-2.29688,-19.5 -1.70313,-18.7969 -0.90625,-18.0938 C-0.59375,-17.7969 -0.296875,-17.7031 0,-17.7031 C0.296875,-17.7031 0.5,-17.7969 0.703125,-18 L1.79688,-19.0938 C2,-19.2969 2.20313,-19.4063 2.40625,-19.4063 C2.79688,-19.4063 3.09375,-19.0938 3.09375,-19.0938 C3.09375,-19.0938 9.5,-13.7031 10.5,-12.7969 C11.5938,-12 12.7031,-11.7031 13.7031,-11.7031 C15.7969,-11.7031 17.7031,-12.9063 18.5,-13.7969 L23.2969,-18.5938 C23.5938,-18.9063 23.7031,-19.2031 23.7031,-19.4063 C23.7031,-19.9063 23.2969,-20.2031 23.2969,-20.2031"/>
<path class="TrillSegment" transform="matrix(1.824,0,0,1.824,968.514,584.826)" d="M23.2969,-20.2031 C23.2969,-20.2031 22.7031,-20.9063 21.9063,-21.5938 C21.5938,-21.9063 21.2031,-22 20.9063,-22 C20.5938,-22 20.4063,-21.9063 20.2031,-21.7031 L19.0938,-20.5938 C18.9063,-20.4063 18.7031,-20.2969 18.5,-20.2969 C18.0938,-20.2969 17.9063,-20.5938 17.9063,-20.5938 C17.9063,-20.5938 11.5,-26.1094 10.5,-27 C9.40625,-27.7969 8.29688,-28.1094 7.29688,-28.1094 C5.20313,-28.1094 3.29688,-26.9063 2.5,-26 L-2.29688,-21.2031 C-2.59375,-20.9063 -2.70313,-20.7031 -2.70313,-20.4063 C-2.70313,-19.9063 -2.29688,-19.5 -2.29688,-19.5 C-2.29688,-19.5 -1.70313,-18.7969 -0.90625,-18.0938 C-0.59375,-17.7969 -0.296875,-17.7031 0,-17.7031 C0.296875,-17.7031 0.5,-17.7969 0.703125,-18 L1.79688,-19.0938 C2,-19.2969 2.20313,-19.4063 2.40625,-19.4063 C2.79688,-19.4063 3.09375,-19.0938 3.09375,-19.0938 C3.09375,-19.0938 9.5,-13.7031 10.5,-12.7969 C11.5938,-12 12.7031,-11.7031 13.7031,-11.7031 C15.7969,-11.7031 17.7031,-12.9063 18.5,-13.7969 L23.2969,-18.5938 C23.5938,-18.9063 23.7031,-19.2031 23.7031,-19.4063 C23.7031,-19.9063 23.2969,-20.2031 23.2969,-20.2031"/>
<path class="TrillSegment" transform="matrix(1.824,0,0,1.824,1008.64,584.826)" d="M23.2969,-20.2031 C23.2969,-20.2031 22.7031,-20.9063 21.9063,-21.5938 C21.5938,-21.9063 21.2031,-22 20.9063,-22 C20.5938,-22 20.4063,-21.9063 20.2031,-21.7031 L19.0938,-20.5938 C18.9063,-20.4063 18.7031,-20.2969 18.5,-20.2969 C18.0938,-20.2969 17.9063,-20.5938 17.9063,-20.5938 C17.9063,-20.5938 11.5,-26.1094 10.5,-27 C9.40625,-27.7969 8.29688,-28.1094 7.29688,-28.1094 C5.20313,-28.1094 3.29688,-26.9063 2.5,-26 L-2.29688,-21.2031 C-2.59375,-20.9063 -2.70313,-20.7031 -2.70313,-20.4063 C-2.70313,-19.9063 -2.29688,-19.5 -2.29688,-19.5 C-2.29688,-19.5 -1.70313,-18.7969 -0.90625,-18.0938 C-0.59375,-17.7969 -0.296875,-17.7031 0,-17.7031 C0.296875,-17.7031 0.5,-17.7969 0.703125,-18 L1.79688,-19.0938 C2,-19.2969 2.20313,-19.4063 2.40625,-19.4063 C2.79688,-19.4063 3.09375,-19.0938 3.09375,-19.0938 C3.09375,-19.0938 9.5,-13.7031 10.5,-12.7969 C11.5938,-12 12.7031,-11.7031 13.7031,-11.7031 C15.7969,-11.7031 17.7031,-12.9063 18.5,-13.7969 L23.2969,-18.5938 C23.5938,-18.9063 23.7031,-19.2031 23.7031,-19.4063 C23.7031,-19.9063 23.2969,-20.2031 23.2969,-20.2031"/>
<path class="TrillSegment" transform="matrix(1.824,0,0,1.824,1048.77,584.826)" d="M23.2969,-20.2031 C23.2969,-20.2031 22.7031,-20.9063 21.9063,-21.5938 C21.5938,-21.9063 21.2031,-22 20.9063,-22 C20.5938,-22 20.4063,-21.9063 20.2031,-21.7031 L19.0938,-20.5938 C18.9063,-20.4063 18.7031,-20.2969 18.5,-20.2969 C18.0938,-20.2969 17.9063,-20.5938 17.9063,-20.5938 C17.9063,-20.5938 11.5,-26.1094 10.5,-27 C9.40625,-27.7969 8.29688,-28.1094 7.29688,-28.1094 C5.20313,-28.1094 3.29688,-26.9063 2.5,-26 L-2.29688,-21.2031 C-2.59375,-20.9063 -2.70313,-20.7031 -2.70313,-20.4063 C-2.70313,-19.9063 -2.29688,-19.5 -2.29688,-19.5 C-2.29688,-19.5 -1.70313,-18.7969 -0.90625,-18.0938 C-0.59375,-17.7969 -0.296875,-17.7031 0,-17.7031 C0.296875,-17.7031 0.5,-17.7969 0.703125,-18 L1.79688,-19.0938 C2,-19.2969 2.20313,-19.4063 2.40625,-19.4063 C2.79688,-19.4063 3.09375,-19.0938 3.09375,-19.0938 C3.09375,-19.0938 9.5,-13.7031 10.5,-12.7969 C11.5938,-12 12.7031,-11.7031 13.7031,-11.7031 C15.7969,-11.7031 17.7031,-12.9063 18.5,-13.7969 L23.2969,-18.5938 C23.5938,-18.9063 23.7031,-19.2031 23.7031,-19.4063 C23.7031,-19.9063 23.2969,-20.2031 23.2969,-20.2031"/>
<path class="TrillSegment" transform="matrix(1.824,0,0,1.824,1088.9,584.826)" d="M23.2969,-20.2031 C23.2969,-20.2031 22.7031,-20.9063 21.9063,-21.5938 C21.5938,-21.9063 21.2031,-22 20.9063,-22 C20.5938,-22 20.4063,-21.9063 20.2031,-21.7031 L19.0938,-20.5938 C18.9063,-20.4063 18.7031,-20.2969 18.5,-20.2969 C18.0938,-20.2969 17.9063,-20.5938 17.9063,-20.5938 C17.9063,-20.5938 11.5,-26.1094 10.5,-27 C9.40625,-27.7969 8.29688,-28.1094 7.29688,-28.1094 C5.20313,-28.1094 3.29688,-26.9063 2.5,-26 L-2.29688,-21.2031 C-2.59375,-20.9063 -2.70313,-20.7031 -2.70313,-20.4063 C-2.70313,-19.9063 -2.29688,-19.5 -2.29688,-19.5 C-2.29688,-19.5 -1.70313,-18.7969 -0.90625,-18.0938 C-0.59375,-17.7969 -0.296875,-17.7031 0,-17.7031 C0.296875,-17.7031 0.5,-17.7969 0.703125,-18 L1.79688,-19.0938 C2,-19.2969 2.20313,-19.4063 2.40625,-19.4063 C2.79688,-19.4063 3.09375,-19.0938 3.09375,-19.0938 C3.09375,-19.0938 9.5,-13.7031 10.5,-12.7969 C11.5938,-12 12.7031,-11.7031 13.7031,-11.7031 C15.7969,-11.7031 17.7031,-12.9063 18.5,-13.7969 L23.2969,-18.5938 C23.5938,-18.9063 23.7031,-19.2031 23.7031,-19.4063 C23.7031,-19.9063 23.2969,-20.2031 23.2969,-20.2031"/>
<path class="TrillSegment" transform="matrix(1.824,0,0,1.824,1129.03,584.826)" d="M23.2969,-20.2031 C23.2969,-20.2031 22.7031,-20.9063 21.9063,-21.5938 C21.5938,-21.9063 21.2031,-22 20.9063,-22 C20.5938,-22 20.4063,-21.9063 20.2031,-21.7031 L19.0938,-20.5938 C18.9063,-20.4063 18.7031,-20.2969 18.5,-20.2969 C18.0938,-20.2969 17.9063,-20.5938 17.9063,-20.5938 C17.9063,-20.5938 11.5,-26.1094 10.5,-27 C9.40625,-27.7969 8.29688,-28.1094 7.29688,-28.1094 C5.20313,-28.1094 3.29688,-26.9063 2.5,-26 L-2.29688,-21.2031 C-2.59375,-20.9063 -2.70313,-20.7031 -2.70313,-20.4063 C-2.70313,-19.9063 -2.29688,-19.5 -2.29688,-19.5 C-2.29688,-19.5 -1.70313,-18.7969 -0.90625,-18.0938 C-0.59375,-17.7969 -0.296875,-17.7031 0,-17.7031 C0.296875,-17.7031 0.5,-17.7969 0.703125,-18 L1.79688,-19.0938 C2,-19.2969 2.20313,-19.4063 2.40625,-19.4063 C2.79688,-19.4063 3.09375,-19.0938 3.09375,-19.0938 C3.09375,-19.0938 9.5,-13.7031 10.5,-12.7969 C11.5938,-12 12.7031,-11.7031 13.7031,-11.7031 C15.7969,-11.7031 17.7031,-12.9063 18.5,-13.7969 L23.2969,-18.5938 C23.5938,-18.9063 23.7031,-19.2031 23.7031,-19.4063 C23.7031,-19.9063 23.2969,-20.2031 23.2969,-20.2031"/>
<path class="TrillSegment" transform="matrix(1.824,0,0,1.824,1169.15,584.826)" d="M23.2969,-20.2031 C23.2969,-20.2031 22.7031,-20.9063 21.9063,-21.5938 C21.5938,-21.9063 21.2031,-22 20.9063,-22 C20.5938,-22 20.4063,-21.9063 20.2031,-21.7031 L19.0938,-20.5938 C18.9063,-20.4063 18.7031,-20.2969 18.5,-20.2969 C18.0938,-20.2969 17.9063,-20.5938 17.9063,-20.5938 C17.9063,-20.5938 11.5,-26.1094 10.5,-27 C9.40625,-27.7969 8.29688,-28.1094 7.29688,-28.1094 C5.20313,-28.1094 3.29688,-26.9063 2.5,-26 L-2.29688,-21.2031 C-2.59375,-20.9063 -2.70313,-20.7031 -2.70313,-20.4063 C-2.70313,-19.9063 -2.29688,-19.5 -2.29688,-19.5 C-2.29688,-19.5 -1.70313,-18.7969 -0.90625,-18.0938 C-0.59375,-17.7969 -0.296875,-17.7031 0,-17.7031 C0.296875,-17.7031 0.5,-17.7969 0.703125,-18 L1.79688,-19.0938 C2,-19.2969 2.20313,-19.4063 2.40625,-19.4063 C2.79688,-19.4063 3.09375,-19.0938 3.09375,-19.0938 C3.09375,-19.0938 9.5,-13.7031 10.5,-12.7969 C11.5938,-12 12.7031,-11.7031 13.7031,-11.7031 C15.7969,-11.7031 17.7031,-12.9063 18.5,-13.7969 L23.2969,-18.5938 C23.5938,-18.9063 23.7031,-19.2031 23.7031,-19.4063 C23.7031,-19.9063 23.2969,-20.2031 23.2969,-20.2031"/>
<path class="TrillSegment" transform="matrix(1.824,0,0,1.824,1209.28,584.826)" d="M23.2969,-20.2031 C23.2969,-20.2031 22.7031,-20.9063 21.9063,-21.5938 C21.5938,-21.9063 21.2031,-22 20.9063,-22 C20.5938,-22 20.4063,-21.9063 20.2031,-21.7031 L19.0938,-20.5938 C18.9063,-20.4063 18.7031,-20.2969 18.5,-20.2969 C18.0938,-20.2969 17.9063,-20.5938 17.9063,-20.5938 C17.9063,-20.5938 11.5,-26.1094 10.5,-27 C9.40625,-27.7969 8.29688,-28.1094 7.29688,-28.1094 C5.20313,-28.1094 3.29688,-26.9063 2.5,-26 L-2.29688,-21.2031 C-2.59375,-20.9063 -2.70313,-20.7031 -2.70313,-20.4063 C-2.70313,-19.9063 -2.29688,-19.5 -2.29688,-19.5 C-2.29688,-19.5 -1.70313,-18.7969 -0.90625,-18.0938 C-0.59375,-17.7969 -0.296875,-17.7031 0,-17.7031 C0.296875,-17.7031 0.5,-17.7969 0.703125,-18 L1.79688,-19.0938 C2,-19.2969 2.20313,-19.4063 2.40625,-19.4063 C2.79688,-19.4063 3.09375,-19.0938 3.09375,-19.0938 C3.09375,-19.0938 9.5,-13.7031 10.5,-12.7969 C11.5938,-12 12.7031,-11.7031 13.7031,-11.7031 C15.7969,-11.7031 17.7031,-12.9063 18.5,-13.7969 L23.2969,-18.5938 C23.5938,-18.9063 23.7031,-19.2031 23.7031,-19.4063 C23.7031,-19.9063 23.2969,-20.2031 23.2969,-20.2031"/>
<path class="TrillSegment" transform="matrix(1.824,0,0,1.824,1249.41,584.826)" d="M23.2969,-20.2031 C23.2969,-20.2031 22.7031,-20.9063 21.9063,-21.5938 C21.5938,-21.9063 21.2031,-22 20.9063,-22 C20.5938,-22 20.4063,-21.9063 20.2031,-21.7031 L19.0938,-20.5938 C18.9063,-20.4063 18.7031,-20.2969 18.5,-20.2969 C18.0938,-20.2969 17.9063,-20.5938 17.9063,-20.5938 C17.9063,-20.5938 11.5,-26.1094 10.5,-27 C9.40625,-27.7969 8.29688,-28.1094 7.29688,-28.1094 C5.20313,-28.1094 3.29688,-26.9063 2.5,-26 L-2.29688,-21.2031 C-2.59375,-20.9063 -2.70313,-20.7031 -2.70313,-20.4063 C-2.70313,-19.9063 -2.29688,-19.5 -2.29688,-19.5 C-2.29688,-19.5 -1.70313,-18.7969 -0.90625,-18.0938 C-0.59375,-17.7969 -0.296875,-17.7031 0,-17.7031 C0.296875,-17.7031 0.5,-17.7969 0.703125,-18 L1.79688,-19.0938 C2,-19.2969 2.20313,-19.4063 2.40625,-19.4063 C2.79688,-19.4063 3.09375,-19.0938 3.09375,-19.0938 C3.09375,-19.0938 9.5,-13.7031 10.5,-12.7969 C11.5938,-12 12.7031,-11.7031 13.7031,-11.7031 C15.7969,-11.7031 17.7031,-12.9063 18.5,-13.7969 L23.2969,-18.5938 C23.5938,-18.9063 23.7031,-19.2031 23.7031,-19.4063 C23.7031,-19.9063 23.2969,-20.2031 23.2969,-20.2031"/>
<path class="TrillSegment" transform="matrix(1.824,0,0,1.824,1289.54,584.826)" d="M23.2969,-20.2031 C23.2969,-20.2031 22.7031,-20.9063 21.9063,-21.5938 C21.5938,-21.9063 21.2031,-22 20.9063,-22 C20.5938,-22 20.4063,-21.9063 20.2031,-21.7031 L19.0938,-20.5938 C18.9063,-20.4063 18.7031,-20.2969 18.5,-20.2969 C18.0938,-20.2969 17.9063,-20.5938 17.9063,-20.5938 C17.9063,-20.5938 11.5,-26.1094 10.5,-27 C9.40625,-27.7969 8.29688,-28.1094 7.29688,-28.1094 C5.20313,-28.1094 3.29688,-26.9063 2.5,-26 L-2.29688,-21.2031 C-2.59375,-20.9063 -2.70313,-20.7031 -2.70313,-20.4063 C-2.70313,-19.9063 -2.29688,-19.5 -2.29688,-19.5 C-2.29688,-19.5 -1.70313,-18.7969 -0.90625,-18.0938 C-0.59375,-17.7969 -0.296875,-17.7031 0,-17.7031 C0.296875,-17.7031 0.5,-17.7969 0.703125,-18 L1.79688,-19.0938 C2,-19.2969 2.20313,-19.4063 2.40625,-19.4063 C2.79688,-19.4063 3.09375,-19.0938 3.09375,-19.0938 C3.09375,-19.0938 9.5,-13.7031 10.5,-12.7969 C11.5938,-12 12.7031,-11.7031 13.7031,-11.7031 C15.7969,-11.7031 17.7031,-12.9063 18.5,-13.7969 L23.2969,-18.5938 C23.5938,-18.9063 23.7031,-19.2031 23.7031,-19.4063 C23.7031,-19.9063 23.2969,-20.2031 23.2969,-20.2031"/>
<path class="TrillSegment" transform="matrix(1.824,0,0,1.824,1764.86,978.055)" d="M32.2031,-27.5 C28.2969,-27.5 26.1094,-24.9063 26.1094,-24.9063 L25.2969,-25.7031 C24.7969,-26.2031 24,-26.2031 24,-26.2031 L13.7031,-26.2031 L17.0938,-36.7031 C17.2969,-37.4063 16.5,-38.2969 15.7031,-38.2969 L14.7969,-38.2969 C14.5,-38.2969 14,-38 13.7969,-37.7969 C13.5938,-37.6094 9,-33.7969 8.59375,-33.5 C8.20313,-33.2031 8.09375,-32.7031 8.09375,-32.7031 C8.09375,-32.7031 7.09375,-29.9063 5.79688,-26.2031 L0.203125,-26.2031 C-1,-26.2031 -1.20313,-25 -1.20313,-25 L-1.20313,-23.7031 C-1.20313,-22.5938 0.203125,-22.5 0.203125,-22.5 L4.59375,-22.5 C2.40625,-15.9063 0,-8.09375 0,-5.90625 C0,-1.09375 3.29688,0 6.40625,0 C9.5,0 12.9063,-2.40625 12.9063,-2.40625 C12.9063,-2.40625 13.2031,-1.70313 13.5,-0.90625 C13.7969,-0.09375 14.7031,0 14.7031,0 L19.2031,0 C20.5,0 20.7031,-1.09375 20.7031,-1.09375 L20.7031,-3 C20.7031,-5.20313 22.2969,-10.2031 22.2969,-10.2031 L26.5,-19.7031 C26.5,-19.7031 27.5,-21.5938 28.6094,-22.5938 C29.7031,-23.5 30.9063,-23.9063 31.4063,-23.5938 C30,-22.7031 29.7031,-21.2031 29.7031,-20 C29.7031,-18.7969 31,-16.2031 33.7031,-16.2031 C37.1094,-16.2031 38.2969,-18.2969 38.2969,-21.4063 C38.2969,-24.5 36.1094,-27.5 32.2031,-27.5 M15.4063,-9.90625 C14.5938,-7.20313 11.9063,-5.40625 10.2031,-5.40625 C9.90625,-5.40625 9.70313,-5.40625 9.5,-5.5 C8.70313,-5.90625 8.40625,-6.90625 8.40625,-8 C8.40625,-10.2969 9.5,-13.2031 9.5,-13.2031 L12.5,-22.5 L19.0938,-22.5 C19.4063,-22.5 19.4063,-22.2031 19.4063,-22.2031 C19.4063,-22.2031 16.2969,-13 15.4063,-9.90625"/>
<path class="TrillSegment" transform="matrix(1.824,0,0,1.824,1843.83,978.055)" d="M23.2969,-20.2031 C23.2969,-20.2031 22.7031,-20.9063 21.9063,-21.5938 C21.5938,-21.9063 21.2031,-22 20.9063,-22 C20.5938,-22 20.4063,-21.9063 20.2031,-21.7031 L19.0938,-20.5938 C18.9063,-20.4063 18.7031,-20.2969 18.5,-20.2969 C18.0938,-20.2969 17.9063,-20.5938 17.9063,-20.5938 C17.9063,-20.5938 11.5,-26.1094 10.5,-27 C9.40625,-27.7969 8.29688,-28.1094 7.29688,-28.1094 C5.20313,-28.1094 3.29688,-26.9063 2.5,-26 L-2.29688,-21.2031 C-2.59375,-20.9063 -2.70313,-20.7031 -2.70313,-20.4063 C-2.70313,-19.9063 -2.29688,-19.5 -2.29688,-19.5 C-2.29688,-19.5 -1.70313,-18.7969 -0.90625,-18.0938 C-0.59375,-17.7969 -0.296875,-17.7031 0,-17.7031 C0.296875,-17.7031 0.5,-17.7969 0.703125,-18 L1.79688,-19.0938 C2,-19.2969 2.20313,-19.4063 2.40625,-19.4063 C2.79688,-19.4063 3.09375,-19.0938 3.09375,-19.0938 C3.09375,-19.0938 9.5,-13.7031 10.5,-12.7969 C11.5938,-12 12.7031,-11.7031 13.7031,-11.7031 C15.7969,-11.7031 17.7031,-12.9063 18.5,-13.7969 L23.2969,-18.5938 C23.5938,-18.9063 23.7031,-19.2031 23.7031,-19.4063 C23.7031,-19.9063 23.2969,-20.2031 23.2969,-20.2031"/>
<path class="TrillSegment" transform="matrix(1.824,0,0,1.824,1883.96,978.055)" d="M23.2969,-20.2031 C23.2969,-20.2031 22.7031,-20.9063 21.9063,-21.5938 C21.5938,-21.9063 21.2031,-22 20.9063,-22 C20.5938,-22 20.4063,-21.9063 20.2031,-21.7031 L19.0938,-20.5938 C18.9063,-20.4063 18.7031,-20.2969 18.5,-20.2969 C18.0938,-20.2969 17.9063,-20.5938 17.9063,-20.5938 C17.9063,-20.5938 11.5,-26.1094 10.5,-27 C9.40625,-27.7969 8.29688,-28.1094 7.29688,-28.1094 C5.20313,-28.1094 3.29688,-26.9063 2.5,-26 L-2.29688,-21.2031 C-2.59375,-20.9063 -2.70313,-20.7031 -2.70313,-20.4063 C-2.70313,-19.9063 -2.29688,-19.5 -2.29688,-19.5 C-2.29688,-19.5 -1.70313,-18.7969 -0.90625,-18.0938 C-0.59375,-17.7969 -0.296875,-17.7031 0,-17.7031 C0.296875,-17.7031 0.5,-17.7969 0.703125,-18 L1.79688,-19.0938 C2,-19.2969 2.20313,-19.4063 2.40625,-19.4063 C2.79688,-19.4063 3.09375,-19.0938 3.09375,-19.0938 C3.09375,-19.0938 9.5,-13.7031 10.5,-12.7969 C11.5938,-12 12.7031,-11.7031 13.7031,-11.7031 C15.7969,-11.7031 17.7031,-12.9063 18.5,-13.7969 L23.2969,-18.5938 C23.5938,-18.9063 23.7031,-19.2031 23.7031,-19.4063 C23.7031,-19.9063 23.2969,-20.2031 23.2969,-20.2031"/>
<path class="TrillSegment" transform="matrix(1.824,0,0,1.824,1924.09,978.055)" d="M23.2969,-20.2031 C23.2969,-20.2031 22.7031,-20.9063 21.9063,-21.5938 C21.5938,-21.9063 21.2031,-22 20.9063,-22 C20.5938,-22 20.4063,-21.9063 20.2031,-21.7031 L19.0938,-20.5938 C18.9063,-20.4063 18.7031,-20.2969 18.5,-20.2969 C18.0938,-20.2969 17.9063,-20.5938 17.9063,-20.5938 C17.9063,-20.5938 11.5,-26.1094 10.5,-27 C9.40625,-27.7969 8.29688,-28.1094 7.29688,-28.1094 C5.20313,-28.1094 3.29688,-26.9063 2.5,-26 L-2.29688,-21.2031 C-2.59375,-20.9063 -2.70313,-20.7031 -2.70313,-20.4063 C-2.70313,-19.9063 -2.29688,-19.5 -2.29688,-19.5 C-2.29688,-19.5 -1.70313,-18.7969 -0.90625,-18.0938 C-0.59375,-17.7969 -0.296875,-17.7031 0,-17.7031 C0.296875,-17.7031 0.5,-17.7969 0.703125,-18 L1.79688,-19.0938 C2,-19.2969 2.20313,-19.4063 2.40625,-19.4063 C2.79688,-19.4063 3.09375,-19.0938 3.09375,-19.0938 C3.09375,-19.0938 9.5,-13.7031 10.5,-12.7969 C11.5938,-12 12.7031,-11.7031 13.7031,-11.7031 C15.7969,-11.7031 17.7031,-12.9063 18.5,-13.7969 L23.2969,-18.5938 C23.5938,-18.9063 23.7031,-19.2031 23.7031,-19.4063 C23.7031,-19.9063 23.2969,-20.2031 23.2969,-20.2031"/>
</svg>
