<?xml version="1.0" encoding="UTF-8" standalone="no"?>
<svg width="4208.47px" height="2409.45px" viewBox="0 0 4208.47 2409.45"
 xmlns="http://www.w3.org/2000/svg" xmlns:xlink="http://www.w3.org/1999/xlink" version="1.2" baseProfile="tiny">
<title>BONE PIRATA (2)</title>
<desc>Generated by MuseScore 3.6.2</desc>
<polyline class="StaffLines" fill="none" stroke="#000000" stroke-width="6.78" stroke-linejoin="bevel" points="70.866,644.173 4137.61,644.173"/>
<polyline class="StaffLines" fill="none" stroke="#000000" stroke-width="6.78" stroke-linejoin="bevel" points="70.866,705.827 4137.61,705.827"/>
<polyline class="StaffLines" fill="none" stroke="#000000" stroke-width="6.78" stroke-linejoin="bevel" points="70.866,767.48 4137.61,767.48"/>
<polyline class="StaffLines" fill="none" stroke="#000000" stroke-width="6.78" stroke-linejoin="bevel" points="70.866,829.134 4137.61,829.134"/>
<polyline class="StaffLines" fill="none" stroke="#000000" stroke-width="6.78" stroke-linejoin="bevel" points="70.866,890.787 4137.61,890.787"/>
<path class="MeasureNumber" d="M87.2254,492.554 L86.0691,492.554 C83.866,494.194 79.6316,495.585 76.741,495.585 L76.2722,497.351 L79.0222,497.351 C81.4597,497.351 81.741,497.429 81.741,498.147 C81.741,498.507 81.741,498.507 81.3504,499.944 L77.0691,515.944 C76.5379,517.944 76.5066,518.069 76.1472,518.429 C75.741,518.819 74.8972,518.944 72.7879,518.991 L71.0691,518.991 L70.866,520.866 L85.6629,520.866 L85.8972,518.991 L83.741,518.991 C81.1472,518.991 80.5847,518.788 80.5847,517.913 C80.5847,517.632 80.741,516.71 80.9441,515.944 L87.2254,492.554 M111.585,492.554 L109.413,492.554 L90.7879,511.835 L90.7879,513.507 L102.053,513.507 L101.413,515.944 C100.897,517.944 100.866,518.069 100.491,518.429 C100.1,518.819 99.2566,518.991 97.1316,518.991 L96.4129,518.991 L96.1785,520.866 L108.616,520.866 L108.819,518.991 L108.1,518.991 C105.46,518.991 104.897,518.788 104.897,517.913 C104.897,517.585 104.975,517.194 105.303,515.944 L105.975,513.507 L110.538,513.507 L111.132,511.351 L106.538,511.351 L111.585,492.554 M102.663,511.351 L93.6941,511.351 L106.053,498.632 L102.663,511.351 "/>
<polyline class="BarLine" fill="none" stroke="#000000" stroke-width="11.10" stroke-linejoin="bevel" points="1595.76,640.782 1595.76,894.178"/>
<polyline class="BarLine" fill="none" stroke="#000000" stroke-width="11.10" stroke-linejoin="bevel" points="2860.62,640.782 2860.62,894.178"/>
<polyline class="BarLine" fill="none" stroke="#000000" stroke-width="11.10" stroke-linejoin="bevel" points="4077.49,640.782 4077.49,894.178"/>
<polyline class="BarLine" fill="none" stroke="#000000" stroke-width="33.91" stroke-linejoin="bevel" points="4120.65,640.782 4120.65,894.178"/>
<path class="Accidental" transform="matrix(2.46614,0,0,2.46614,438.071,736.654)" d="M20.0938,-7.90625 C19.5,-11.7969 17.0938,-15.5 12,-15.5 C7,-15.5 4.09375,-12.4063 3.59375,-11.7969 L4,-43.9063 C4,-44.7031 3.40625,-45.2969 2.59375,-45.2969 L1.40625,-45.2969 C0.59375,-45.2969 0,-44.7031 0,-43.9063 L0.5,16.2031 C0.5,17 1.09375,17.5938 1.90625,17.5938 C2.09375,17.5938 2.5,17.5 2.70313,17.4063 C3.09375,17.2031 9.59375,14 15,7.90625 C18.7969,3.59375 20.2969,-1.29688 20.2969,-5.40625 C20.2969,-6.29688 20.2031,-7.09375 20.0938,-7.90625 M13.2031,-4 C13.2031,-2.5 12.7969,2.09375 10.2969,5.90625 C8.59375,8.5 5.20313,11.2031 3.29688,12.7031 L3.59375,-6.79688 C3.79688,-7.70313 5.29688,-10.5938 9.29688,-10.5938 C12.9063,-10.5938 13.2031,-7.20313 13.2031,-5.09375 L13.2031,-4 "/>
<path class="Accidental" transform="matrix(2.46614,0,0,2.46614,2202.79,829.134)" d="M20.0938,-7.90625 C19.5,-11.7969 17.0938,-15.5 12,-15.5 C7,-15.5 4.09375,-12.4063 3.59375,-11.7969 L4,-43.9063 C4,-44.7031 3.40625,-45.2969 2.59375,-45.2969 L1.40625,-45.2969 C0.59375,-45.2969 0,-44.7031 0,-43.9063 L0.5,16.2031 C0.5,17 1.09375,17.5938 1.90625,17.5938 C2.09375,17.5938 2.5,17.5 2.70313,17.4063 C3.09375,17.2031 9.59375,14 15,7.90625 C18.7969,3.59375 20.2969,-1.29688 20.2969,-5.40625 C20.2969,-6.29688 20.2031,-7.09375 20.0938,-7.90625 M13.2031,-4 C13.2031,-2.5 12.7969,2.09375 10.2969,5.90625 C8.59375,8.5 5.20313,11.2031 3.29688,12.7031 L3.59375,-6.79688 C3.79688,-7.70313 5.29688,-10.5938 9.29688,-10.5938 C12.9063,-10.5938 13.2031,-7.20313 13.2031,-5.09375 L13.2031,-4 "/>
<path class="Accidental" transform="matrix(2.46614,0,0,2.46614,2919.8,736.654)" d="M20.0938,-7.90625 C19.5,-11.7969 17.0938,-15.5 12,-15.5 C7,-15.5 4.09375,-12.4063 3.59375,-11.7969 L4,-43.9063 C4,-44.7031 3.40625,-45.2969 2.59375,-45.2969 L1.40625,-45.2969 C0.59375,-45.2969 0,-44.7031 0,-43.9063 L0.5,16.2031 C0.5,17 1.09375,17.5938 1.90625,17.5938 C2.09375,17.5938 2.5,17.5 2.70313,17.4063 C3.09375,17.2031 9.59375,14 15,7.90625 C18.7969,3.59375 20.2969,-1.29688 20.2969,-5.40625 C20.2969,-6.29688 20.2031,-7.09375 20.0938,-7.90625 M13.2031,-4 C13.2031,-2.5 12.7969,2.09375 10.2969,5.90625 C8.59375,8.5 5.20313,11.2031 3.29688,12.7031 L3.59375,-6.79688 C3.79688,-7.70313 5.29688,-10.5938 9.29688,-10.5938 C12.9063,-10.5938 13.2031,-7.20313 13.2031,-5.09375 L13.2031,-4 "/>
<polyline class="Stem" fill="none" stroke="#000000" stroke-width="6.78" stroke-linejoin="bevel" points="580.278,728.762 580.278,551.693"/>
<polyline class="Stem" fill="none" stroke="#000000" stroke-width="6.78" stroke-linejoin="bevel" points="1684.85,714.113 1684.85,913.907"/>
<polyline class="Stem" fill="none" stroke="#000000" stroke-width="6.78" stroke-linejoin="bevel" points="2345,821.242 2345,621.053"/>
<polyline class="Stem" fill="none" stroke="#000000" stroke-width="6.78" stroke-linejoin="bevel" points="3062.01,728.762 3062.01,551.693"/>
<path class="Note" transform="matrix(2.46614,0,0,2.46614,503.539,736.654)" d="M31.5,-8.09375 C29.7031,-11.4063 25.9063,-13.2031 21.2969,-13.2031 C17.9063,-13.2031 14.2031,-12.2031 10.5938,-10.2969 C4,-6.79688 0,-0.90625 0,4.20313 C0,5.59375 0.296875,7 1,8.29688 C2.79688,11.5938 6.59375,13.2969 11.2031,13.2969 C14.5938,13.2969 18.2969,12.4063 21.9063,10.5 C28.5,7 32.5,1.09375 32.5,-4 C32.5,-5.40625 32.2031,-6.79688 31.5,-8.09375"/>
<path class="Note" transform="matrix(2.46614,0,0,2.46614,1681.46,705.827)" d="M31.5,-8.09375 C29.7031,-11.4063 25.9063,-13.2031 21.2969,-13.2031 C17.9063,-13.2031 14.2031,-12.2031 10.5938,-10.2969 C4,-6.79688 0,-0.90625 0,4.20313 C0,5.59375 0.296875,7 1,8.29688 C2.79688,11.5938 6.59375,13.2969 11.2031,13.2969 C14.5938,13.2969 18.2969,12.4063 21.9063,10.5 C28.5,7 32.5,1.09375 32.5,-4 C32.5,-5.40625 32.2031,-6.79688 31.5,-8.09375"/>
<path class="Note" transform="matrix(2.46614,0,0,2.46614,2268.26,829.134)" d="M31.5,-8.09375 C29.7031,-11.4063 25.9063,-13.2031 21.2969,-13.2031 C17.9063,-13.2031 14.2031,-12.2031 10.5938,-10.2969 C4,-6.79688 0,-0.90625 0,4.20313 C0,5.59375 0.296875,7 1,8.29688 C2.79688,11.5938 6.59375,13.2969 11.2031,13.2969 C14.5938,13.2969 18.2969,12.4063 21.9063,10.5 C28.5,7 32.5,1.09375 32.5,-4 C32.5,-5.40625 32.2031,-6.79688 31.5,-8.09375"/>
<path class="Note" transform="matrix(2.46614,0,0,2.46614,2985.27,736.654)" d="M31.5,-8.09375 C29.7031,-11.4063 25.9063,-13.2031 21.2969,-13.2031 C17.9063,-13.2031 14.2031,-12.2031 10.5938,-10.2969 C4,-6.79688 0,-0.90625 0,4.20313 C0,5.59375 0.296875,7 1,8.29688 C2.79688,11.5938 6.59375,13.2969 11.2031,13.2969 C14.5938,13.2969 18.2969,12.4063 21.9063,10.5 C28.5,7 32.5,1.09375 32.5,-4 C32.5,-5.40625 32.2031,-6.79688 31.5,-8.09375"/>
<path class="Clef" transform="matrix(2.46614,0,0,2.46614,120.189,705.827)" d="M25.4063,-25.0938 C17.7969,-25.0938 11.7031,-20.7031 11.5938,-20.7031 C5.79688,-16.4063 3.5,-11.2969 2.59375,-7.79688 C2.09375,-6 1.90625,-4.20313 1.90625,-2.5 C1.90625,-0.09375 2.29688,2.09375 3.20313,4 C4.40625,6.70313 6.70313,8.59375 9.70313,9.59375 C10.9063,10 12.2031,10.2031 13.5,10.2031 C15.7031,10.2031 18,9.59375 19.9063,8.5 C23,6.79688 24.9063,3.20313 24.9063,-0.703125 C24.9063,-4.20313 23.0938,-7.40625 20.0938,-9.29688 C18,-10.7031 16,-11.0938 14.2969,-11.0938 C13.0938,-11.0938 12,-10.9063 11.0938,-10.5938 C10.0938,-10.2031 8.40625,-9.20313 7.59375,-8.5 C7.90625,-10.4063 9.09375,-13.2969 10.2031,-14.9063 C11.2969,-16.5 13.5,-18.5 15.2031,-19.4063 C17.7031,-20.7969 20.9063,-21.4063 24.4063,-21.4063 C34.6094,-21.4063 39.6094,-13.2031 39.6094,3.59375 C39.6094,12.9063 36.1094,21.7969 33.1094,27.7031 C29.7969,34.2969 25.4063,40.6094 21.5,44.1094 C11.0938,53.6094 1.29688,58.1094 1.20313,58.1094 C1.20313,58.1094 -0.296875,59 0.09375,60.5 C0.40625,61.5 1.29688,61.7031 1.90625,61.7031 C2,61.7031 2.29688,61.6094 2.40625,61.6094 C2.5,61.6094 13.9063,56.9063 23,49.7969 C28.1094,46.1094 32.7031,42.1094 36.7031,37.7969 C40.2969,33.9063 43.4063,29.7031 45.9063,25.5 C50.2969,18 52.7969,10.2031 52.7969,3.5 C52.7969,-4.79688 50.6094,-11.7031 46.5,-16.5938 C41.7969,-22.2031 34.7031,-25.0938 25.4063,-25.0938 M56.7969,-12.4063 C56.7969,-9.59375 59,-7.40625 61.6094,-7.40625 C64.2031,-7.40625 66.4063,-9.59375 66.4063,-12.4063 C66.4063,-15.2031 64.2031,-17.5 61.6094,-17.5 C59,-17.5 56.7969,-15.2031 56.7969,-12.4063 M56.7969,12.2969 C56.7969,15.0938 59,17.4063 61.6094,17.4063 C64.2031,17.4063 66.4063,15.0938 66.4063,12.2969 C66.4063,9.5 64.2031,7.20313 61.6094,7.20313 C59,7.20313 56.7969,9.5 56.7969,12.2969"/>
<path class="Rest" transform="matrix(2.46614,0,0,2.46614,1046.88,767.48)" d="M23.2031,16.9063 L23,16.5938 C22.9063,16.5 22.7031,16.2969 22.4063,15.9063 L10.9063,1.70313 C10.5938,1.40625 10.7031,0.59375 10.9063,0.203125 L21.0938,-15.2031 C21.2031,-15.4063 21.2969,-15.7031 21.2969,-15.9063 L21.2969,-16.7969 C21.2969,-17.0938 21.2031,-17.4063 21,-17.5938 L4.79688,-39.5 C4.79688,-39.5 4,-40.7031 3,-39.7969 C2,-39 2.79688,-37.7031 2.79688,-37.7031 L10.4063,-27.2969 C10.7969,-26.7031 10.7969,-25.5 10.4063,-24.9063 L0.296875,-9.5 C0.203125,-9.29688 0.09375,-8.90625 0.09375,-8.70313 L0.09375,-7.79688 C0.09375,-7.5 0.203125,-7.20313 0.40625,-7 L11.5938,6.90625 C11.2031,6.79688 10.2969,6.59375 9.09375,6.59375 C7.40625,6.59375 5.20313,7 3.40625,8.59375 C1.20313,10.5938 0,13.4063 0,15.9063 C0,17.2969 0.296875,18.7031 1.09375,19.7969 C3.20313,23 10.7031,32.5 10.7031,32.5 C10.7031,32.5 11.5938,33.6094 12.5,32.9063 C13.4063,32.2031 13.2031,31.2969 12.9063,30.7969 C12.5938,30.2969 9.40625,24.5 9.40625,24.5 C9.40625,24.5 8.70313,23.0938 8.70313,21.2969 C8.70313,20 9.09375,18.4063 10.4063,17.0938 C11.5938,15.9063 13,15.5 14.2969,15.5 C15.5938,15.5 16.7031,15.9063 17.5,16.4063 L21.4063,18.9063 C21.4063,18.9063 22.5938,19.5 23.2031,18.5938 C23.7031,17.7969 23.5,17.4063 23.2031,16.9063"/>
<path class="Rest" transform="matrix(2.46614,0,0,2.46614,3528.61,767.48)" d="M23.2031,16.9063 L23,16.5938 C22.9063,16.5 22.7031,16.2969 22.4063,15.9063 L10.9063,1.70313 C10.5938,1.40625 10.7031,0.59375 10.9063,0.203125 L21.0938,-15.2031 C21.2031,-15.4063 21.2969,-15.7031 21.2969,-15.9063 L21.2969,-16.7969 C21.2969,-17.0938 21.2031,-17.4063 21,-17.5938 L4.79688,-39.5 C4.79688,-39.5 4,-40.7031 3,-39.7969 C2,-39 2.79688,-37.7031 2.79688,-37.7031 L10.4063,-27.2969 C10.7969,-26.7031 10.7969,-25.5 10.4063,-24.9063 L0.296875,-9.5 C0.203125,-9.29688 0.09375,-8.90625 0.09375,-8.70313 L0.09375,-7.79688 C0.09375,-7.5 0.203125,-7.20313 0.40625,-7 L11.5938,6.90625 C11.2031,6.79688 10.2969,6.59375 9.09375,6.59375 C7.40625,6.59375 5.20313,7 3.40625,8.59375 C1.20313,10.5938 0,13.4063 0,15.9063 C0,17.2969 0.296875,18.7031 1.09375,19.7969 C3.20313,23 10.7031,32.5 10.7031,32.5 C10.7031,32.5 11.5938,33.6094 12.5,32.9063 C13.4063,32.2031 13.2031,31.2969 12.9063,30.7969 C12.5938,30.2969 9.40625,24.5 9.40625,24.5 C9.40625,24.5 8.70313,23.0938 8.70313,21.2969 C8.70313,20 9.09375,18.4063 10.4063,17.0938 C11.5938,15.9063 13,15.5 14.2969,15.5 C15.5938,15.5 16.7031,15.9063 17.5,16.4063 L21.4063,18.9063 C21.4063,18.9063 22.5938,19.5 23.2031,18.5938 C23.7031,17.7969 23.5,17.4063 23.2031,16.9063"/>
<path class="StaffText" d="M541.102,427.159 C552.289,423.096 557.461,416.831 557.461,406.987 C557.461,394.065 547.617,385.831 532.367,385.831 C517.977,385.831 507.023,394.315 507.023,405.518 C507.023,410.549 510.352,414.127 515.148,414.127 C519.445,414.127 522.398,411.174 522.398,406.737 C522.398,404.034 521.414,402.44 518.586,400.471 C517.352,399.612 516.992,399.112 516.992,398.252 C516.992,394.815 524.117,391.127 531.133,391.127 C539.992,391.127 544.664,396.659 544.664,407.112 C544.664,418.549 539.992,424.581 531.258,424.581 C530.148,424.581 528.055,424.456 526.211,424.331 C525.227,424.206 524.242,424.206 523.508,424.206 C520.93,424.206 519.57,425.315 519.57,427.534 C519.57,429.627 520.805,430.596 523.508,430.596 C524.242,430.596 525.227,430.596 526.336,430.487 C528.805,430.362 530.758,430.362 532.117,430.362 C541.227,430.362 546.133,436.877 546.133,449.049 C546.133,461.846 539.992,468.987 528.914,468.987 C521.164,468.987 512.805,464.799 512.805,460.987 C512.805,459.877 513.055,459.627 515.383,458.284 C518.836,456.19 520.18,454.096 520.18,451.018 C520.18,446.596 516.867,443.268 512.445,443.268 C507.148,443.268 503.711,447.581 503.711,454.096 C503.711,466.034 514.648,474.268 530.398,474.268 C548.227,474.268 559.789,464.424 559.789,449.299 C559.789,437.737 553.883,430.721 541.102,427.159"/>
<path class="StaffText" d="M1709.07,341.792 C1704.88,346.839 1693.57,350.651 1682.26,350.901 L1682.26,356.183 L1693.07,356.183 C1700.21,356.308 1700.94,357.042 1700.71,363.933 L1700.71,413.261 C1700.71,419.526 1700.71,419.776 1699.96,420.886 C1698.97,422.12 1696.65,422.605 1689.76,422.605 L1681.76,422.605 L1681.76,428.386 L1730.47,428.386 L1730.47,422.605 L1723.71,422.605 C1716.82,422.605 1714.47,422.12 1713.49,420.886 C1712.63,419.776 1712.63,419.651 1712.63,413.261 L1712.63,362.464 C1712.63,355.573 1712.88,349.792 1713.49,341.792 L1709.07,341.792 "/>
<path class="StaffText" d="M2295.87,495.926 C2291.69,500.973 2280.37,504.785 2269.06,505.035 L2269.06,510.317 L2279.87,510.317 C2287.01,510.442 2287.75,511.176 2287.51,518.067 L2287.51,567.395 C2287.51,573.66 2287.51,573.91 2286.76,575.02 C2285.78,576.254 2283.45,576.738 2276.56,576.738 L2268.56,576.738 L2268.56,582.52 L2317.28,582.52 L2317.28,576.738 L2310.51,576.738 C2303.62,576.738 2301.28,576.254 2300.29,575.02 C2299.44,573.91 2299.44,573.785 2299.44,567.395 L2299.44,516.598 C2299.44,509.707 2299.69,503.926 2300.29,495.926 L2295.87,495.926 "/>
<path class="StaffText" d="M3022.83,427.159 C3034.02,423.096 3039.19,416.831 3039.19,406.987 C3039.19,394.065 3029.35,385.831 3014.1,385.831 C2999.71,385.831 2988.76,394.315 2988.76,405.518 C2988.76,410.549 2992.08,414.127 2996.88,414.127 C3001.18,414.127 3004.13,411.174 3004.13,406.737 C3004.13,404.034 3003.15,402.44 3000.32,400.471 C2999.08,399.612 2998.73,399.112 2998.73,398.252 C2998.73,394.815 3005.85,391.127 3012.87,391.127 C3021.73,391.127 3026.4,396.659 3026.4,407.112 C3026.4,418.549 3021.73,424.581 3012.99,424.581 C3011.88,424.581 3009.79,424.456 3007.94,424.331 C3006.96,424.206 3005.98,424.206 3005.24,424.206 C3002.66,424.206 3001.3,425.315 3001.3,427.534 C3001.3,429.627 3002.54,430.596 3005.24,430.596 C3005.98,430.596 3006.96,430.596 3008.07,430.487 C3010.54,430.362 3012.49,430.362 3013.85,430.362 C3022.96,430.362 3027.87,436.877 3027.87,449.049 C3027.87,461.846 3021.73,468.987 3010.65,468.987 C3002.9,468.987 2994.54,464.799 2994.54,460.987 C2994.54,459.877 2994.79,459.627 2997.12,458.284 C3000.57,456.19 3001.91,454.096 3001.91,451.018 C3001.91,446.596 2998.6,443.268 2994.18,443.268 C2988.88,443.268 2985.44,447.581 2985.44,454.096 C2985.44,466.034 2996.38,474.268 3012.13,474.268 C3029.96,474.268 3041.52,464.424 3041.52,449.299 C3041.52,437.737 3035.62,430.721 3022.83,427.159"/>
<path class="Page" d="M96.0938,237.973 L95.4844,240.723 C94.9844,242.927 94.6563,243.63 94.2188,243.911 C93.6719,244.302 93.5625,244.302 90.0938,244.348 L79.4844,244.348 C81.4063,242.692 82.8438,241.661 84.9844,240.223 C92.7344,235.223 94.3281,234.005 95.9219,231.973 C97.7969,229.505 98.8906,226.583 98.8906,224.005 C98.8906,218.114 93.125,213.661 85.375,213.661 C77.8906,213.661 72.1094,218.505 72.1094,224.77 C72.1094,228.614 74.2656,231.098 77.5625,231.098 C80.4219,231.098 82.2344,229.286 82.2344,226.427 C82.2344,224.052 81.1875,222.677 78.6563,221.473 C78.0469,221.192 77.7813,220.864 77.7813,220.427 C77.7813,218.661 80.75,216.802 83.5,216.802 C87.3438,216.802 89.5469,219.161 89.5469,223.239 C89.5469,227.802 87.7813,231.036 81.9531,237.255 C75.7969,243.802 73.6563,246.27 70.9063,250.239 L70.9063,252.817 C72.3281,252.661 72.9375,252.598 73.7656,252.598 L94.4375,252.598 C95.4844,252.598 96.1406,252.661 97.7969,252.817 L99.0625,237.973 L96.0938,237.973 "/>
</svg>
