<?xml version="1.0" encoding="UTF-8" standalone="no"?>
<svg width="4208.47px" height="2409.45px" viewBox="0 0 4208.47 2409.45"
 xmlns="http://www.w3.org/2000/svg" xmlns:xlink="http://www.w3.org/1999/xlink" version="1.2" baseProfile="tiny">
<title>SAX ALTO</title>
<desc>Generated by MuseScore 3.6.2</desc>
<polyline class="StaffLines" fill="none" stroke="#000000" stroke-width="4.91" stroke-linejoin="bevel" points="70.866,383.386 4137.61,383.386"/>
<polyline class="StaffLines" fill="none" stroke="#000000" stroke-width="4.91" stroke-linejoin="bevel" points="70.866,428.031 4137.61,428.031"/>
<polyline class="StaffLines" fill="none" stroke="#000000" stroke-width="4.91" stroke-linejoin="bevel" points="70.866,472.677 4137.61,472.677"/>
<polyline class="StaffLines" fill="none" stroke="#000000" stroke-width="4.91" stroke-linejoin="bevel" points="70.866,517.323 4137.61,517.323"/>
<polyline class="StaffLines" fill="none" stroke="#000000" stroke-width="4.91" stroke-linejoin="bevel" points="70.866,561.968 4137.61,561.968"/>
<polyline class="StaffLines" fill="none" stroke="#000000" stroke-width="4.91" stroke-linejoin="bevel" points="70.866,974.489 4137.61,974.489"/>
<polyline class="StaffLines" fill="none" stroke="#000000" stroke-width="4.91" stroke-linejoin="bevel" points="70.866,1019.14 4137.61,1019.14"/>
<polyline class="StaffLines" fill="none" stroke="#000000" stroke-width="4.91" stroke-linejoin="bevel" points="70.866,1063.78 4137.61,1063.78"/>
<polyline class="StaffLines" fill="none" stroke="#000000" stroke-width="4.91" stroke-linejoin="bevel" points="70.866,1108.43 4137.61,1108.43"/>
<polyline class="StaffLines" fill="none" stroke="#000000" stroke-width="4.91" stroke-linejoin="bevel" points="70.866,1153.07 4137.61,1153.07"/>
<polyline class="StaffLines" fill="none" stroke="#000000" stroke-width="4.91" stroke-linejoin="bevel" points="70.866,1565.59 4137.61,1565.59"/>
<polyline class="StaffLines" fill="none" stroke="#000000" stroke-width="4.91" stroke-linejoin="bevel" points="70.866,1610.24 4137.61,1610.24"/>
<polyline class="StaffLines" fill="none" stroke="#000000" stroke-width="4.91" stroke-linejoin="bevel" points="70.866,1654.88 4137.61,1654.88"/>
<polyline class="StaffLines" fill="none" stroke="#000000" stroke-width="4.91" stroke-linejoin="bevel" points="70.866,1699.53 4137.61,1699.53"/>
<polyline class="StaffLines" fill="none" stroke="#000000" stroke-width="4.91" stroke-linejoin="bevel" points="70.866,1744.18 4137.61,1744.18"/>
<polyline class="StaffLines" fill="none" stroke="#000000" stroke-width="4.91" stroke-linejoin="bevel" points="70.866,2156.7 4137.61,2156.7"/>
<polyline class="StaffLines" fill="none" stroke="#000000" stroke-width="4.91" stroke-linejoin="bevel" points="70.866,2201.34 4137.61,2201.34"/>
<polyline class="StaffLines" fill="none" stroke="#000000" stroke-width="4.91" stroke-linejoin="bevel" points="70.866,2245.99 4137.61,2245.99"/>
<polyline class="StaffLines" fill="none" stroke="#000000" stroke-width="4.91" stroke-linejoin="bevel" points="70.866,2290.63 4137.61,2290.63"/>
<polyline class="StaffLines" fill="none" stroke="#000000" stroke-width="4.91" stroke-linejoin="bevel" points="70.866,2335.28 4137.61,2335.28"/>
<path class="MeasureNumber" d="M91.3035,857.042 C89.1785,857.276 86.5847,857.448 84.3504,857.448 C83.2254,857.448 81.9441,857.401 80.5066,857.323 C79.1785,857.245 77.866,857.167 76.5066,857.089 L75.5066,857.042 L71.6316,865.479 L73.1004,865.964 L74.0691,864.354 C75.9441,861.245 76.8191,860.808 80.8972,860.839 L87.6629,860.839 L83.3035,867.089 C78.1785,874.276 78.1785,874.276 76.2254,877.479 C74.4597,880.323 73.741,882.073 73.741,883.511 C73.741,884.917 74.6316,885.792 76.0222,885.792 C77.5066,885.792 78.2566,885.073 78.7879,883.198 C80.7879,875.683 81.991,873.073 87.5379,864.089 L91.3035,858.245 L91.3035,857.042 "/>
<path class="MeasureNumber" d="M87.2254,1447.99 L86.0691,1447.99 C83.866,1449.63 79.6316,1451.02 76.741,1451.02 L76.2722,1452.79 L79.0222,1452.79 C81.4597,1452.79 81.741,1452.86 81.741,1453.58 C81.741,1453.94 81.741,1453.94 81.3504,1455.38 L77.0691,1471.38 C76.5379,1473.38 76.5066,1473.51 76.1472,1473.86 C75.741,1474.26 74.8972,1474.38 72.7879,1474.43 L71.0691,1474.43 L70.866,1476.3 L85.6629,1476.3 L85.8972,1474.43 L83.741,1474.43 C81.1472,1474.43 80.5847,1474.22 80.5847,1473.35 C80.5847,1473.07 80.741,1472.15 80.9441,1471.38 L87.2254,1447.99 M104.694,1461.74 C106.585,1461.15 107.335,1460.82 108.303,1460.18 C110.178,1458.94 111.335,1456.74 111.335,1454.51 C111.335,1450.71 108.303,1448.15 103.819,1448.15 C99.4597,1448.15 95.7722,1450.86 95.7722,1454.15 C95.7722,1455.79 96.7722,1456.91 98.3035,1456.91 C99.616,1456.91 100.585,1455.94 100.585,1454.63 C100.585,1453.94 100.382,1453.46 99.741,1452.83 C99.3347,1452.46 99.1785,1452.19 99.1785,1451.91 C99.1785,1450.94 101.178,1449.94 103.053,1449.94 C105.741,1449.94 107.335,1451.43 107.335,1453.91 C107.335,1457.46 104.819,1460.82 102.132,1460.82 C102.022,1460.82 101.663,1460.79 101.225,1460.74 C100.053,1460.66 100.053,1460.66 99.8191,1460.66 C98.9441,1460.66 98.4597,1461.07 98.4597,1461.79 C98.4597,1462.43 98.8972,1462.82 99.616,1462.82 C99.8191,1462.82 100.1,1462.79 100.413,1462.74 C100.975,1462.63 101.585,1462.58 101.944,1462.58 C103.819,1462.58 105.1,1464.27 105.1,1466.74 C105.1,1468.66 104.663,1470.51 103.772,1472.02 C102.585,1474.18 100.741,1475.22 98.1316,1475.22 C95.8972,1475.22 93.9754,1474.1 93.9754,1472.82 C93.9754,1472.38 94.1472,1472.22 94.7722,1471.94 C95.9441,1471.43 96.4129,1470.71 96.4129,1469.63 C96.4129,1468.22 95.3035,1467.15 93.866,1467.15 C92.1472,1467.15 91.0222,1468.51 91.0222,1470.58 C91.0222,1474.46 93.9754,1476.9 98.7722,1476.9 C104.819,1476.9 109.413,1472.86 109.413,1467.51 C109.413,1466.07 108.975,1464.82 108.132,1463.82 C107.257,1462.79 106.46,1462.3 104.694,1461.74"/>
<path class="MeasureNumber" d="M90.2566,2059.12 L89.2254,2060.97 C87.616,2063.73 87.3035,2063.97 85.2566,2064 L75.991,2064 C76.9441,2062.73 78.7097,2061.25 81.8972,2059 C87.1785,2055.37 87.5379,2055.12 88.6629,2054.25 C91.866,2051.77 93.1785,2049.41 93.1785,2046.25 C93.1785,2042.05 90.0691,2039.25 85.4597,2039.25 C80.3504,2039.25 75.9129,2043.02 75.9129,2047.37 C75.9129,2049.61 77.1004,2051.05 79.0222,2051.05 C80.4597,2051.05 81.5847,2049.97 81.5847,2048.48 C81.5847,2047.45 81.0691,2046.77 79.741,2046.05 C78.7879,2045.56 78.6316,2045.37 78.6316,2044.89 C78.6316,2043.17 81.5847,2041.25 84.3035,2041.25 C87.1004,2041.25 88.991,2043.12 88.991,2045.94 C88.991,2048.92 87.6629,2051.12 84.0691,2054.25 C73.4285,2063.48 71.8191,2065.17 71.4597,2067.41 L88.616,2067.41 L91.7097,2059.69 L90.2566,2059.12 M109.132,2039.25 C106.491,2039.25 104.022,2040.45 101.819,2042.77 C98.5066,2046.37 96.2566,2052.53 96.2566,2058.12 C96.2566,2063.92 99.1472,2068 103.225,2068 C110.053,2068 116.178,2059.12 116.178,2049.2 C116.178,2043.25 113.335,2039.25 109.132,2039.25 M109.1,2040.84 C111.178,2040.84 112.303,2042.69 112.303,2046.12 C112.303,2050.05 111.303,2055.12 109.663,2059.25 C107.741,2064.25 105.819,2066.41 103.413,2066.41 C101.257,2066.41 100.053,2064.48 100.053,2061.09 C100.053,2055.89 101.897,2048.92 104.46,2044.3 C105.694,2042.05 107.303,2040.84 109.1,2040.84"/>
<polyline class="BarLine" fill="none" stroke="#000000" stroke-width="8.04" stroke-linejoin="bevel" points="1173.24,380.93 1173.24,564.424"/>
<polyline class="BarLine" fill="none" stroke="#000000" stroke-width="8.04" stroke-linejoin="bevel" points="1526.78,380.93 1526.78,564.424"/>
<polyline class="BarLine" fill="none" stroke="#000000" stroke-width="8.04" stroke-linejoin="bevel" points="2249.93,380.93 2249.93,564.424"/>
<polyline class="BarLine" fill="none" stroke="#000000" stroke-width="8.04" stroke-linejoin="bevel" points="2603.46,380.93 2603.46,564.424"/>
<polyline class="BarLine" fill="none" stroke="#000000" stroke-width="8.04" stroke-linejoin="bevel" points="3441.23,380.93 3441.23,564.424"/>
<polyline class="BarLine" fill="none" stroke="#000000" stroke-width="8.04" stroke-linejoin="bevel" points="4133.59,380.93 4133.59,564.424"/>
<polyline class="BarLine" fill="none" stroke="#000000" stroke-width="8.04" stroke-linejoin="bevel" points="1301.3,972.034 1301.3,1155.53"/>
<path class="BarLine" transform="matrix(1.78583,0,0,1.78583,1720.28,1041.46)" d="M10.4063,0 C10.4063,-2.90625 8.09375,-5.29688 5.20313,-5.29688 C2.29688,-5.29688 0,-2.90625 0,0 C0,2.90625 2.29688,5.29688 5.20313,5.29688 C8.09375,5.29688 10.4063,2.90625 10.4063,0"/>
<path class="BarLine" transform="matrix(1.78583,0,0,1.78583,1720.28,1086.1)" d="M10.4063,0 C10.4063,-2.90625 8.09375,-5.29688 5.20313,-5.29688 C2.29688,-5.29688 0,-2.90625 0,0 C0,2.90625 2.29688,5.29688 5.20313,5.29688 C8.09375,5.29688 10.4063,2.90625 10.4063,0"/>
<polyline class="BarLine" fill="none" stroke="#000000" stroke-width="8.04" stroke-linejoin="bevel" points="1760.82,972.034 1760.82,1155.53"/>
<polyline class="BarLine" fill="none" stroke="#000000" stroke-width="24.56" stroke-linejoin="bevel" points="1792.07,972.034 1792.07,1155.53"/>
<polyline class="BarLine" fill="none" stroke="#000000" stroke-width="8.04" stroke-linejoin="bevel" points="2203.62,972.034 2203.62,1155.53"/>
<polyline class="BarLine" fill="none" stroke="#000000" stroke-width="8.04" stroke-linejoin="bevel" points="2571.73,972.034 2571.73,1155.53"/>
<polyline class="BarLine" fill="none" stroke="#000000" stroke-width="8.04" stroke-linejoin="bevel" points="3131.33,972.034 3131.33,1155.53"/>
<polyline class="BarLine" fill="none" stroke="#000000" stroke-width="8.04" stroke-linejoin="bevel" points="4133.59,972.034 4133.59,1155.53"/>
<polyline class="BarLine" fill="none" stroke="#000000" stroke-width="8.04" stroke-linejoin="bevel" points="1180,1563.14 1180,1746.63"/>
<polyline class="BarLine" fill="none" stroke="#000000" stroke-width="8.04" stroke-linejoin="bevel" points="1463.83,1563.14 1463.83,1746.63"/>
<polyline class="BarLine" fill="none" stroke="#000000" stroke-width="8.04" stroke-linejoin="bevel" points="1899.88,1563.14 1899.88,1746.63"/>
<polyline class="BarLine" fill="none" stroke="#000000" stroke-width="8.04" stroke-linejoin="bevel" points="2673.2,1563.14 2673.2,1746.63"/>
<polyline class="BarLine" fill="none" stroke="#000000" stroke-width="8.04" stroke-linejoin="bevel" points="3413.71,1563.14 3413.71,1746.63"/>
<polyline class="BarLine" fill="none" stroke="#000000" stroke-width="8.04" stroke-linejoin="bevel" points="3697.53,1563.14 3697.53,1746.63"/>
<polyline class="BarLine" fill="none" stroke="#000000" stroke-width="8.04" stroke-linejoin="bevel" points="4133.59,1563.14 4133.59,1746.63"/>
<polyline class="BarLine" fill="none" stroke="#000000" stroke-width="8.04" stroke-linejoin="bevel" points="1152.42,2154.24 1152.42,2337.74"/>
<polyline class="BarLine" fill="none" stroke="#000000" stroke-width="8.04" stroke-linejoin="bevel" points="2041.75,2154.24 2041.75,2337.74"/>
<polyline class="BarLine" fill="none" stroke="#000000" stroke-width="8.04" stroke-linejoin="bevel" points="2401.82,2154.24 2401.82,2337.74"/>
<polyline class="BarLine" fill="none" stroke="#000000" stroke-width="8.04" stroke-linejoin="bevel" points="2915.69,2154.24 2915.69,2337.74"/>
<polyline class="BarLine" fill="none" stroke="#000000" stroke-width="8.04" stroke-linejoin="bevel" points="3749.63,2154.24 3749.63,2337.74"/>
<polyline class="BarLine" fill="none" stroke="#000000" stroke-width="8.04" stroke-linejoin="bevel" points="4094.08,2154.24 4094.08,2337.74"/>
<polyline class="BarLine" fill="none" stroke="#000000" stroke-width="24.56" stroke-linejoin="bevel" points="4125.33,2154.24 4125.33,2337.74"/>
<path class="Accidental" transform="matrix(1.78583,0,0,1.78583,3193.11,316.417)" d="M16.5938,-18.2969 C16.4063,-18.5 16.0938,-18.5938 15.7969,-18.5938 C15.7031,-18.5938 15.5,-18.5 15.4063,-18.5 L2.79688,-15 L2.79688,-32.5 L0,-32.5 L0,17 C0,17.7969 0.59375,18.2969 1.40625,18.2969 L1.79688,18.2969 L14.4063,14.7969 L14.4063,32.2969 L17.0938,32.2969 L17.0938,-17.2031 C17.0938,-17.5938 16.9063,-18.0938 16.5938,-18.2969 M14.4063,6.5 L2.79688,9.70313 L2.79688,-6.70313 L14.4063,-10 L14.4063,6.5 "/>
<path class="Accidental" transform="matrix(1.78583,0,0,1.78583,3862.56,974.489)" d="M23.2969,-10.5938 C23.9063,-10.7031 24.4063,-11.4063 24.4063,-12 L24.4063,-17.9063 C24.4063,-18.7031 23.7969,-19.2969 23,-19.2969 L22.7969,-19.2969 L19.5,-18.5938 L19.5,-33.5 L16.7031,-33.5 L16.7031,-18 L7.79688,-16.2031 L7.79688,-30.2969 L5,-30.2969 L5,-15.5938 L1.09375,-14.7969 C0.5,-14.7031 0,-14 0,-13.4063 L0,-13.2031 L0,-7.40625 L0,-7.59375 C0,-6.79688 0.59375,-6.20313 1.40625,-6.20313 L1.70313,-6.20313 L5,-6.90625 L5,9.59375 L1.09375,10.4063 C0.5,10.5 0,11.2031 0,11.7969 L0,17.5938 C0,18.4063 0.59375,19 1.40625,19 L1.70313,19 L5,18.2969 L5,33.2031 L7.79688,33.2031 L7.79688,17.7031 L16.7031,15.9063 L16.7031,30 L19.5,30 L19.5,15.2969 L23.2969,14.5938 C23.9063,14.5 24.4063,13.7969 24.4063,13.2031 L24.4063,7.29688 C24.4063,6.5 23.7969,5.90625 23,5.90625 L22.7969,5.90625 L19.5,6.59375 L19.5,-9.90625 L23.2969,-10.5938 M7.79688,9.09375 L7.79688,-7.5 L16.7031,-9.29688 L16.7031,7.20313 L7.79688,9.09375 "/>
<path class="Accidental" transform="matrix(1.78583,0,0,1.78583,958.499,1565.59)" d="M23.2969,-10.5938 C23.9063,-10.7031 24.4063,-11.4063 24.4063,-12 L24.4063,-17.9063 C24.4063,-18.7031 23.7969,-19.2969 23,-19.2969 L22.7969,-19.2969 L19.5,-18.5938 L19.5,-33.5 L16.7031,-33.5 L16.7031,-18 L7.79688,-16.2031 L7.79688,-30.2969 L5,-30.2969 L5,-15.5938 L1.09375,-14.7969 C0.5,-14.7031 0,-14 0,-13.4063 L0,-13.2031 L0,-7.40625 L0,-7.59375 C0,-6.79688 0.59375,-6.20313 1.40625,-6.20313 L1.70313,-6.20313 L5,-6.90625 L5,9.59375 L1.09375,10.4063 C0.5,10.5 0,11.2031 0,11.7969 L0,17.5938 C0,18.4063 0.59375,19 1.40625,19 L1.70313,19 L5,18.2969 L5,33.2031 L7.79688,33.2031 L7.79688,17.7031 L16.7031,15.9063 L16.7031,30 L19.5,30 L19.5,15.2969 L23.2969,14.5938 C23.9063,14.5 24.4063,13.7969 24.4063,13.2031 L24.4063,7.29688 C24.4063,6.5 23.7969,5.90625 23,5.90625 L22.7969,5.90625 L19.5,6.59375 L19.5,-9.90625 L23.2969,-10.5938 M7.79688,9.09375 L7.79688,-7.5 L16.7031,-9.29688 L16.7031,7.20313 L7.79688,9.09375 "/>
<path class="Accidental" transform="matrix(1.78583,0,0,1.78583,1434.12,2156.7)" d="M23.2969,-10.5938 C23.9063,-10.7031 24.4063,-11.4063 24.4063,-12 L24.4063,-17.9063 C24.4063,-18.7031 23.7969,-19.2969 23,-19.2969 L22.7969,-19.2969 L19.5,-18.5938 L19.5,-33.5 L16.7031,-33.5 L16.7031,-18 L7.79688,-16.2031 L7.79688,-30.2969 L5,-30.2969 L5,-15.5938 L1.09375,-14.7969 C0.5,-14.7031 0,-14 0,-13.4063 L0,-13.2031 L0,-7.40625 L0,-7.59375 C0,-6.79688 0.59375,-6.20313 1.40625,-6.20313 L1.70313,-6.20313 L5,-6.90625 L5,9.59375 L1.09375,10.4063 C0.5,10.5 0,11.2031 0,11.7969 L0,17.5938 C0,18.4063 0.59375,19 1.40625,19 L1.70313,19 L5,18.2969 L5,33.2031 L7.79688,33.2031 L7.79688,17.7031 L16.7031,15.9063 L16.7031,30 L19.5,30 L19.5,15.2969 L23.2969,14.5938 C23.9063,14.5 24.4063,13.7969 24.4063,13.2031 L24.4063,7.29688 C24.4063,6.5 23.7969,5.90625 23,5.90625 L22.7969,5.90625 L19.5,6.59375 L19.5,-9.90625 L23.2969,-10.5938 M7.79688,9.09375 L7.79688,-7.5 L16.7031,-9.29688 L16.7031,7.20313 L7.79688,9.09375 "/>
<polyline class="LedgerLine" fill="none" stroke="#000000" stroke-width="7.14" stroke-linejoin="bevel" points="1306.73,338.74 1396.01,338.74"/>
<polyline class="LedgerLine" fill="none" stroke="#000000" stroke-width="7.14" stroke-linejoin="bevel" points="2383.42,338.74 2472.7,338.74"/>
<polyline class="LedgerLine" fill="none" stroke="#000000" stroke-width="7.14" stroke-linejoin="bevel" points="2836.68,338.74 2925.96,338.74"/>
<polyline class="LedgerLine" fill="none" stroke="#000000" stroke-width="7.14" stroke-linejoin="bevel" points="3023.47,338.74 3112.74,338.74"/>
<polyline class="LedgerLine" fill="none" stroke="#000000" stroke-width="7.14" stroke-linejoin="bevel" points="3234.79,338.74 3324.07,338.74"/>
<polyline class="LedgerLine" fill="none" stroke="#000000" stroke-width="7.14" stroke-linejoin="bevel" points="3574.72,338.74 3663.99,338.74"/>
<polyline class="LedgerLine" fill="none" stroke="#000000" stroke-width="7.14" stroke-linejoin="bevel" points="3574.72,294.094 3663.99,294.094"/>
<polyline class="LedgerLine" fill="none" stroke="#000000" stroke-width="7.14" stroke-linejoin="bevel" points="3965.78,338.74 4055.06,338.74"/>
<polyline class="LedgerLine" fill="none" stroke="#000000" stroke-width="7.14" stroke-linejoin="bevel" points="469.161,929.844 558.439,929.844"/>
<polyline class="LedgerLine" fill="none" stroke="#000000" stroke-width="7.14" stroke-linejoin="bevel" points="672.284,929.844 761.561,929.844"/>
<polyline class="LedgerLine" fill="none" stroke="#000000" stroke-width="7.14" stroke-linejoin="bevel" points="875.407,929.844 964.684,929.844"/>
<polyline class="LedgerLine" fill="none" stroke="#000000" stroke-width="7.14" stroke-linejoin="bevel" points="1434.79,929.844 1524.06,929.844"/>
<polyline class="LedgerLine" fill="none" stroke="#000000" stroke-width="7.14" stroke-linejoin="bevel" points="2900.64,929.844 2989.91,929.844"/>
<polyline class="LedgerLine" fill="none" stroke="#000000" stroke-width="7.14" stroke-linejoin="bevel" points="2900.64,885.198 2989.91,885.198"/>
<polyline class="LedgerLine" fill="none" stroke="#000000" stroke-width="7.14" stroke-linejoin="bevel" points="3264.82,929.844 3354.1,929.844"/>
<polyline class="LedgerLine" fill="none" stroke="#000000" stroke-width="7.14" stroke-linejoin="bevel" points="3477.1,929.844 3566.38,929.844"/>
<polyline class="LedgerLine" fill="none" stroke="#000000" stroke-width="7.14" stroke-linejoin="bevel" points="469.161,1520.95 558.439,1520.95"/>
<polyline class="LedgerLine" fill="none" stroke="#000000" stroke-width="7.14" stroke-linejoin="bevel" points="1730.97,1520.95 1820.24,1520.95"/>
<polyline class="LedgerLine" fill="none" stroke="#000000" stroke-width="7.14" stroke-linejoin="bevel" points="2033.37,1520.95 2122.65,1520.95"/>
<polyline class="LedgerLine" fill="none" stroke="#000000" stroke-width="7.14" stroke-linejoin="bevel" points="3964.67,1520.95 4053.95,1520.95"/>
<polyline class="LedgerLine" fill="none" stroke="#000000" stroke-width="7.14" stroke-linejoin="bevel" points="1839.15,2112.05 1928.42,2112.05"/>
<polyline class="LedgerLine" fill="none" stroke="#000000" stroke-width="7.14" stroke-linejoin="bevel" points="2175.24,2112.05 2264.52,2112.05"/>
<polyline class="LedgerLine" fill="none" stroke="#000000" stroke-width="7.14" stroke-linejoin="bevel" points="2707.87,2112.05 2797.14,2112.05"/>
<polyline class="LedgerLine" fill="none" stroke="#000000" stroke-width="7.14" stroke-linejoin="bevel" points="3049.18,2112.05 3138.45,2112.05"/>
<polyline class="Stem" fill="none" stroke="#000000" stroke-width="4.91" stroke-linejoin="bevel" points="678.871,456.355 678.871,606.614"/>
<polyline class="Stem" fill="none" stroke="#000000" stroke-width="4.91" stroke-linejoin="bevel" points="843.141,434.032 843.141,561.968"/>
<polyline class="Stem" fill="none" stroke="#000000" stroke-width="4.91" stroke-linejoin="bevel" points="1007.41,456.355 1007.41,573.13"/>
<polyline class="Stem" fill="none" stroke="#000000" stroke-width="4.91" stroke-linejoin="bevel" points="1324.81,344.74 1324.81,495"/>
<polyline class="Stem" fill="none" stroke="#000000" stroke-width="4.91" stroke-linejoin="bevel" points="1755.56,456.355 1755.56,606.614"/>
<polyline class="Stem" fill="none" stroke="#000000" stroke-width="4.91" stroke-linejoin="bevel" points="1919.83,434.032 1919.83,561.968"/>
<polyline class="Stem" fill="none" stroke="#000000" stroke-width="4.91" stroke-linejoin="bevel" points="2084.1,456.355 2084.1,573.13"/>
<polyline class="Stem" fill="none" stroke="#000000" stroke-width="4.91" stroke-linejoin="bevel" points="2401.5,322.418 2401.5,472.677"/>
<polyline class="Stem" fill="none" stroke="#000000" stroke-width="4.91" stroke-linejoin="bevel" points="2854.76,344.74 2854.76,495"/>
<polyline class="Stem" fill="none" stroke="#000000" stroke-width="4.91" stroke-linejoin="bevel" points="3041.55,322.418 3041.55,461.516"/>
<polyline class="Stem" fill="none" stroke="#000000" stroke-width="4.91" stroke-linejoin="bevel" points="3252.88,322.418 3252.88,461.516"/>
<polyline class="Stem" fill="none" stroke="#000000" stroke-width="4.91" stroke-linejoin="bevel" points="3592.8,300.095 3592.8,472.677"/>
<polyline class="Stem" fill="none" stroke="#000000" stroke-width="4.91" stroke-linejoin="bevel" points="3829.85,367.063 3829.85,483.838"/>
<polyline class="Stem" fill="none" stroke="#000000" stroke-width="4.91" stroke-linejoin="bevel" points="3983.87,344.74 3983.87,472.677"/>
<polyline class="Stem" fill="none" stroke="#000000" stroke-width="4.91" stroke-linejoin="bevel" points="487.243,913.521 487.243,1052.62"/>
<polyline class="Stem" fill="none" stroke="#000000" stroke-width="4.91" stroke-linejoin="bevel" points="690.365,913.521 690.365,1052.62"/>
<polyline class="Stem" fill="none" stroke="#000000" stroke-width="4.91" stroke-linejoin="bevel" points="893.488,935.844 893.488,1063.78"/>
<polyline class="Stem" fill="none" stroke="#000000" stroke-width="4.91" stroke-linejoin="bevel" points="1096.61,958.167 1096.61,1074.94"/>
<polyline class="Stem" fill="none" stroke="#000000" stroke-width="4.91" stroke-linejoin="bevel" points="1452.87,935.844 1452.87,1086.1"/>
<polyline class="Stem" fill="none" stroke="#000000" stroke-width="4.91" stroke-linejoin="bevel" points="1932.19,980.49 1932.19,1130.75"/>
<polyline class="Stem" fill="none" stroke="#000000" stroke-width="4.91" stroke-linejoin="bevel" points="2707.67,1047.46 2707.67,1186.56"/>
<polyline class="Stem" fill="none" stroke="#000000" stroke-width="4.91" stroke-linejoin="bevel" points="2918.72,891.199 2918.72,1063.78"/>
<polyline class="Stem" fill="none" stroke="#000000" stroke-width="4.91" stroke-linejoin="bevel" points="3282.9,913.521 3282.9,1052.62"/>
<polyline class="Stem" fill="none" stroke="#000000" stroke-width="4.91" stroke-linejoin="bevel" points="3495.18,935.844 3495.18,1063.78"/>
<polyline class="Stem" fill="none" stroke="#000000" stroke-width="4.91" stroke-linejoin="bevel" points="3707.46,958.167 3707.46,1097.27"/>
<polyline class="Stem" fill="none" stroke="#000000" stroke-width="4.91" stroke-linejoin="bevel" points="3919.74,980.49 3919.74,1108.43"/>
<polyline class="Stem" fill="none" stroke="#000000" stroke-width="4.91" stroke-linejoin="bevel" points="487.243,1526.95 487.243,1654.88"/>
<polyline class="Stem" fill="none" stroke="#000000" stroke-width="4.91" stroke-linejoin="bevel" points="649.994,1549.27 649.994,1666.05"/>
<polyline class="Stem" fill="none" stroke="#000000" stroke-width="4.91" stroke-linejoin="bevel" points="812.745,1549.27 812.745,1688.37"/>
<polyline class="Stem" fill="none" stroke="#000000" stroke-width="4.91" stroke-linejoin="bevel" points="1015.69,1571.59 1015.69,1699.53"/>
<polyline class="Stem" fill="none" stroke="#000000" stroke-width="4.91" stroke-linejoin="bevel" points="1315.95,1549.27 1315.95,1699.53"/>
<polyline class="Stem" fill="none" stroke="#000000" stroke-width="4.91" stroke-linejoin="bevel" points="1599.77,1638.56 1599.77,1777.66"/>
<polyline class="Stem" fill="none" stroke="#000000" stroke-width="4.91" stroke-linejoin="bevel" points="1749.05,1504.63 1749.05,1654.88"/>
<polyline class="Stem" fill="none" stroke="#000000" stroke-width="4.91" stroke-linejoin="bevel" points="2051.45,1526.95 2051.45,1654.88"/>
<polyline class="Stem" fill="none" stroke="#000000" stroke-width="4.91" stroke-linejoin="bevel" points="2206.5,1549.27 2206.5,1666.05"/>
<polyline class="Stem" fill="none" stroke="#000000" stroke-width="4.91" stroke-linejoin="bevel" points="2361.55,1571.59 2361.55,1699.53"/>
<polyline class="Stem" fill="none" stroke="#000000" stroke-width="4.91" stroke-linejoin="bevel" points="2516.59,1593.92 2516.59,1710.69"/>
<polyline class="Stem" fill="none" stroke="#000000" stroke-width="4.91" stroke-linejoin="bevel" points="2809.15,1549.27 2809.15,1688.37"/>
<polyline class="Stem" fill="none" stroke="#000000" stroke-width="4.91" stroke-linejoin="bevel" points="2959.9,1571.59 2959.9,1699.53"/>
<polyline class="Stem" fill="none" stroke="#000000" stroke-width="4.91" stroke-linejoin="bevel" points="3110.65,1571.59 3110.65,1699.53"/>
<polyline class="Stem" fill="none" stroke="#000000" stroke-width="4.91" stroke-linejoin="bevel" points="3261.4,1593.92 3261.4,1710.69"/>
<polyline class="Stem" fill="none" stroke="#000000" stroke-width="4.91" stroke-linejoin="bevel" points="3549.65,1571.59 3549.65,1721.85"/>
<polyline class="Stem" fill="none" stroke="#000000" stroke-width="4.91" stroke-linejoin="bevel" points="3833.48,1571.59 3833.48,1721.85"/>
<polyline class="Stem" fill="none" stroke="#000000" stroke-width="4.91" stroke-linejoin="bevel" points="3982.75,1526.95 3982.75,1677.21"/>
<polyline class="Stem" fill="none" stroke="#000000" stroke-width="4.91" stroke-linejoin="bevel" points="487.243,2140.37 487.243,2279.47"/>
<polyline class="Stem" fill="none" stroke="#000000" stroke-width="4.91" stroke-linejoin="bevel" points="653.147,2162.7 653.147,2290.63"/>
<polyline class="Stem" fill="none" stroke="#000000" stroke-width="4.91" stroke-linejoin="bevel" points="819.052,2185.02 819.052,2324.12"/>
<polyline class="Stem" fill="none" stroke="#000000" stroke-width="4.91" stroke-linejoin="bevel" points="984.957,2207.34 984.957,2335.28"/>
<polyline class="Stem" fill="none" stroke="#000000" stroke-width="4.91" stroke-linejoin="bevel" points="1288.37,2140.37 1288.37,2279.47"/>
<polyline class="Stem" fill="none" stroke="#000000" stroke-width="4.91" stroke-linejoin="bevel" points="1491.31,2162.7 1491.31,2290.63"/>
<polyline class="Stem" fill="none" stroke="#000000" stroke-width="4.91" stroke-linejoin="bevel" points="1674.27,2140.37 1674.27,2257.15"/>
<polyline class="Stem" fill="none" stroke="#000000" stroke-width="4.91" stroke-linejoin="bevel" points="1857.23,2118.05 1857.23,2245.99"/>
<polyline class="Stem" fill="none" stroke="#000000" stroke-width="4.91" stroke-linejoin="bevel" points="2193.32,2095.73 2193.32,2245.99"/>
<polyline class="Stem" fill="none" stroke="#000000" stroke-width="4.91" stroke-linejoin="bevel" points="2537.77,2140.37 2537.77,2290.63"/>
<polyline class="Stem" fill="none" stroke="#000000" stroke-width="4.91" stroke-linejoin="bevel" points="2725.95,2095.73 2725.95,2245.99"/>
<polyline class="Stem" fill="none" stroke="#000000" stroke-width="4.91" stroke-linejoin="bevel" points="3067.26,2118.05 3067.26,2245.99"/>
<polyline class="Stem" fill="none" stroke="#000000" stroke-width="4.91" stroke-linejoin="bevel" points="3237.46,2140.37 3237.46,2257.15"/>
<polyline class="Stem" fill="none" stroke="#000000" stroke-width="4.91" stroke-linejoin="bevel" points="3407.66,2162.7 3407.66,2290.63"/>
<polyline class="Stem" fill="none" stroke="#000000" stroke-width="4.91" stroke-linejoin="bevel" points="3577.86,2185.02 3577.86,2301.8"/>
<polyline class="Stem" fill="none" stroke="#000000" stroke-width="4.91" stroke-linejoin="bevel" points="3885.57,2162.7 3885.57,2312.96"/>
<path class="Note" transform="matrix(1.78583,0,0,1.78583,676.416,450.354)" d="M31.5,-8.09375 C29.7031,-11.4063 25.9063,-13.2031 21.2969,-13.2031 C17.9063,-13.2031 14.2031,-12.2031 10.5938,-10.2969 C4,-6.79688 0,-0.90625 0,4.20313 C0,5.59375 0.296875,7 1,8.29688 C2.79688,11.5938 6.59375,13.2969 11.2031,13.2969 C14.5938,13.2969 18.2969,12.4063 21.9063,10.5 C28.5,7 32.5,1.09375 32.5,-4 C32.5,-5.40625 32.2031,-6.79688 31.5,-8.09375"/>
<path class="Note" transform="matrix(1.78583,0,0,1.78583,840.685,428.031)" d="M31.5,-8.09375 C29.7031,-11.4063 25.9063,-13.2031 21.2969,-13.2031 C17.9063,-13.2031 14.2031,-12.2031 10.5938,-10.2969 C4,-6.79688 0,-0.90625 0,4.20313 C0,5.59375 0.296875,7 1,8.29688 C2.79688,11.5938 6.59375,13.2969 11.2031,13.2969 C14.5938,13.2969 18.2969,12.4063 21.9063,10.5 C28.5,7 32.5,1.09375 32.5,-4 C32.5,-5.40625 32.2031,-6.79688 31.5,-8.09375"/>
<path class="Note" transform="matrix(1.78583,0,0,1.78583,1004.95,450.354)" d="M31.5,-8.09375 C29.7031,-11.4063 25.9063,-13.2031 21.2969,-13.2031 C17.9063,-13.2031 14.2031,-12.2031 10.5938,-10.2969 C4,-6.79688 0,-0.90625 0,4.20313 C0,5.59375 0.296875,7 1,8.29688 C2.79688,11.5938 6.59375,13.2969 11.2031,13.2969 C14.5938,13.2969 18.2969,12.4063 21.9063,10.5 C28.5,7 32.5,1.09375 32.5,-4 C32.5,-5.40625 32.2031,-6.79688 31.5,-8.09375"/>
<path class="Note" transform="matrix(1.78583,0,0,1.78583,1322.36,338.74)" d="M31.5,-8.14063 C29.7031,-11.4375 25.9063,-13.2344 21.2969,-13.2344 C17.9063,-13.2344 14.2031,-12.2344 10.5938,-10.3438 C4,-6.84375 0,-0.9375 0,4.15625 C0,5.5625 0.296875,6.96875 1,8.26563 C2.79688,11.5781 6.59375,13.2813 11.2031,13.2813 C14.5938,13.2813 18.2969,12.375 21.9063,10.4844 C28.5,6.96875 32.5,1.0625 32.5,-4.04688 C32.5,-5.4375 32.2031,-6.84375 31.5,-8.14063 M27.2031,-1.34375 C25.5,0.359375 22.0938,2.45313 18.5,4.46875 C14.9063,6.46875 11.2969,7.96875 8.90625,8.46875 C8.40625,8.57813 7.90625,8.67188 7.40625,8.67188 C5.79688,8.67188 4.59375,8.07813 3.90625,6.76563 C3.59375,6.26563 3.40625,5.67188 3.40625,5.0625 C3.40625,3.96875 4.09375,2.65625 5.20313,1.5625 C6.90625,-0.140625 10.2031,-2.23438 13.7969,-4.23438 C17.4063,-6.23438 21,-7.73438 23.4063,-8.23438 C23.9063,-8.34375 24.4063,-8.4375 24.9063,-8.4375 C26.5,-8.4375 27.7969,-7.84375 28.5,-6.54688 C28.7969,-6.04688 28.9063,-5.4375 28.9063,-4.84375 C28.9063,-3.73438 28.2969,-2.54688 27.2031,-1.34375"/>
<path class="Note" transform="matrix(1.78583,0,0,1.78583,1753.1,450.354)" d="M31.5,-8.09375 C29.7031,-11.4063 25.9063,-13.2031 21.2969,-13.2031 C17.9063,-13.2031 14.2031,-12.2031 10.5938,-10.2969 C4,-6.79688 0,-0.90625 0,4.20313 C0,5.59375 0.296875,7 1,8.29688 C2.79688,11.5938 6.59375,13.2969 11.2031,13.2969 C14.5938,13.2969 18.2969,12.4063 21.9063,10.5 C28.5,7 32.5,1.09375 32.5,-4 C32.5,-5.40625 32.2031,-6.79688 31.5,-8.09375"/>
<path class="Note" transform="matrix(1.78583,0,0,1.78583,1917.37,428.031)" d="M31.5,-8.09375 C29.7031,-11.4063 25.9063,-13.2031 21.2969,-13.2031 C17.9063,-13.2031 14.2031,-12.2031 10.5938,-10.2969 C4,-6.79688 0,-0.90625 0,4.20313 C0,5.59375 0.296875,7 1,8.29688 C2.79688,11.5938 6.59375,13.2969 11.2031,13.2969 C14.5938,13.2969 18.2969,12.4063 21.9063,10.5 C28.5,7 32.5,1.09375 32.5,-4 C32.5,-5.40625 32.2031,-6.79688 31.5,-8.09375"/>
<path class="Note" transform="matrix(1.78583,0,0,1.78583,2081.64,450.354)" d="M31.5,-8.09375 C29.7031,-11.4063 25.9063,-13.2031 21.2969,-13.2031 C17.9063,-13.2031 14.2031,-12.2031 10.5938,-10.2969 C4,-6.79688 0,-0.90625 0,4.20313 C0,5.59375 0.296875,7 1,8.29688 C2.79688,11.5938 6.59375,13.2969 11.2031,13.2969 C14.5938,13.2969 18.2969,12.4063 21.9063,10.5 C28.5,7 32.5,1.09375 32.5,-4 C32.5,-5.40625 32.2031,-6.79688 31.5,-8.09375"/>
<path class="Note" transform="matrix(1.78583,0,0,1.78583,2399.04,316.417)" d="M31.5,-8.14063 C29.7031,-11.4375 25.9063,-13.2344 21.2969,-13.2344 C17.9063,-13.2344 14.2031,-12.2344 10.5938,-10.3438 C4,-6.84375 0,-0.9375 0,4.15625 C0,5.5625 0.296875,6.96875 1,8.26563 C2.79688,11.5781 6.59375,13.2813 11.2031,13.2813 C14.5938,13.2813 18.2969,12.375 21.9063,10.4844 C28.5,6.96875 32.5,1.0625 32.5,-4.04688 C32.5,-5.4375 32.2031,-6.84375 31.5,-8.14063 M27.2031,-1.34375 C25.5,0.359375 22.0938,2.45313 18.5,4.46875 C14.9063,6.46875 11.2969,7.96875 8.90625,8.46875 C8.40625,8.57813 7.90625,8.67188 7.40625,8.67188 C5.79688,8.67188 4.59375,8.07813 3.90625,6.76563 C3.59375,6.26563 3.40625,5.67188 3.40625,5.0625 C3.40625,3.96875 4.09375,2.65625 5.20313,1.5625 C6.90625,-0.140625 10.2031,-2.23438 13.7969,-4.23438 C17.4063,-6.23438 21,-7.73438 23.4063,-8.23438 C23.9063,-8.34375 24.4063,-8.4375 24.9063,-8.4375 C26.5,-8.4375 27.7969,-7.84375 28.5,-6.54688 C28.7969,-6.04688 28.9063,-5.4375 28.9063,-4.84375 C28.9063,-3.73438 28.2969,-2.54688 27.2031,-1.34375"/>
<path class="Note" transform="matrix(1.78583,0,0,1.78583,2852.31,338.74)" d="M31.5,-8.09375 C29.7031,-11.4063 25.9063,-13.2031 21.2969,-13.2031 C17.9063,-13.2031 14.2031,-12.2031 10.5938,-10.2969 C4,-6.79688 0,-0.90625 0,4.20313 C0,5.59375 0.296875,7 1,8.29688 C2.79688,11.5938 6.59375,13.2969 11.2031,13.2969 C14.5938,13.2969 18.2969,12.4063 21.9063,10.5 C28.5,7 32.5,1.09375 32.5,-4 C32.5,-5.40625 32.2031,-6.79688 31.5,-8.09375"/>
<path class="Note" transform="matrix(1.78583,0,0,1.78583,3039.09,316.417)" d="M31.5,-8.09375 C29.7031,-11.4063 25.9063,-13.2031 21.2969,-13.2031 C17.9063,-13.2031 14.2031,-12.2031 10.5938,-10.2969 C4,-6.79688 0,-0.90625 0,4.20313 C0,5.59375 0.296875,7 1,8.29688 C2.79688,11.5938 6.59375,13.2969 11.2031,13.2969 C14.5938,13.2969 18.2969,12.4063 21.9063,10.5 C28.5,7 32.5,1.09375 32.5,-4 C32.5,-5.40625 32.2031,-6.79688 31.5,-8.09375"/>
<path class="Note" transform="matrix(1.78583,0,0,1.78583,3250.42,316.417)" d="M31.5,-8.09375 C29.7031,-11.4063 25.9063,-13.2031 21.2969,-13.2031 C17.9063,-13.2031 14.2031,-12.2031 10.5938,-10.2969 C4,-6.79688 0,-0.90625 0,4.20313 C0,5.59375 0.296875,7 1,8.29688 C2.79688,11.5938 6.59375,13.2969 11.2031,13.2969 C14.5938,13.2969 18.2969,12.4063 21.9063,10.5 C28.5,7 32.5,1.09375 32.5,-4 C32.5,-5.40625 32.2031,-6.79688 31.5,-8.09375"/>
<path class="Note" transform="matrix(1.78583,0,0,1.78583,3590.34,294.094)" d="M31.5,-8.09375 C29.7031,-11.4063 25.9063,-13.2031 21.2969,-13.2031 C17.9063,-13.2031 14.2031,-12.2031 10.5938,-10.2969 C4,-6.79688 0,-0.90625 0,4.20313 C0,5.59375 0.296875,7 1,8.29688 C2.79688,11.5938 6.59375,13.2969 11.2031,13.2969 C14.5938,13.2969 18.2969,12.4063 21.9063,10.5 C28.5,7 32.5,1.09375 32.5,-4 C32.5,-5.40625 32.2031,-6.79688 31.5,-8.09375"/>
<path class="Note" transform="matrix(1.78583,0,0,1.78583,3827.4,361.063)" d="M31.5,-8.09375 C29.7031,-11.4063 25.9063,-13.2031 21.2969,-13.2031 C17.9063,-13.2031 14.2031,-12.2031 10.5938,-10.2969 C4,-6.79688 0,-0.90625 0,4.20313 C0,5.59375 0.296875,7 1,8.29688 C2.79688,11.5938 6.59375,13.2969 11.2031,13.2969 C14.5938,13.2969 18.2969,12.4063 21.9063,10.5 C28.5,7 32.5,1.09375 32.5,-4 C32.5,-5.40625 32.2031,-6.79688 31.5,-8.09375"/>
<path class="Note" transform="matrix(1.78583,0,0,1.78583,3981.41,338.74)" d="M31.5,-8.09375 C29.7031,-11.4063 25.9063,-13.2031 21.2969,-13.2031 C17.9063,-13.2031 14.2031,-12.2031 10.5938,-10.2969 C4,-6.79688 0,-0.90625 0,4.20313 C0,5.59375 0.296875,7 1,8.29688 C2.79688,11.5938 6.59375,13.2969 11.2031,13.2969 C14.5938,13.2969 18.2969,12.4063 21.9063,10.5 C28.5,7 32.5,1.09375 32.5,-4 C32.5,-5.40625 32.2031,-6.79688 31.5,-8.09375"/>
<path class="Note" transform="matrix(1.78583,0,0,1.78583,484.787,907.521)" d="M31.5,-8.09375 C29.7031,-11.4063 25.9063,-13.2031 21.2969,-13.2031 C17.9063,-13.2031 14.2031,-12.2031 10.5938,-10.2969 C4,-6.79688 0,-0.90625 0,4.20313 C0,5.59375 0.296875,7 1,8.29688 C2.79688,11.5938 6.59375,13.2969 11.2031,13.2969 C14.5938,13.2969 18.2969,12.4063 21.9063,10.5 C28.5,7 32.5,1.09375 32.5,-4 C32.5,-5.40625 32.2031,-6.79688 31.5,-8.09375"/>
<path class="Note" transform="matrix(1.78583,0,0,1.78583,687.91,907.521)" d="M31.5,-8.09375 C29.7031,-11.4063 25.9063,-13.2031 21.2969,-13.2031 C17.9063,-13.2031 14.2031,-12.2031 10.5938,-10.2969 C4,-6.79688 0,-0.90625 0,4.20313 C0,5.59375 0.296875,7 1,8.29688 C2.79688,11.5938 6.59375,13.2969 11.2031,13.2969 C14.5938,13.2969 18.2969,12.4063 21.9063,10.5 C28.5,7 32.5,1.09375 32.5,-4 C32.5,-5.40625 32.2031,-6.79688 31.5,-8.09375"/>
<path class="Note" transform="matrix(1.78583,0,0,1.78583,891.033,929.844)" d="M31.5,-8.09375 C29.7031,-11.4063 25.9063,-13.2031 21.2969,-13.2031 C17.9063,-13.2031 14.2031,-12.2031 10.5938,-10.2969 C4,-6.79688 0,-0.90625 0,4.20313 C0,5.59375 0.296875,7 1,8.29688 C2.79688,11.5938 6.59375,13.2969 11.2031,13.2969 C14.5938,13.2969 18.2969,12.4063 21.9063,10.5 C28.5,7 32.5,1.09375 32.5,-4 C32.5,-5.40625 32.2031,-6.79688 31.5,-8.09375"/>
<path class="Note" transform="matrix(1.78583,0,0,1.78583,1094.16,952.167)" d="M31.5,-8.09375 C29.7031,-11.4063 25.9063,-13.2031 21.2969,-13.2031 C17.9063,-13.2031 14.2031,-12.2031 10.5938,-10.2969 C4,-6.79688 0,-0.90625 0,4.20313 C0,5.59375 0.296875,7 1,8.29688 C2.79688,11.5938 6.59375,13.2969 11.2031,13.2969 C14.5938,13.2969 18.2969,12.4063 21.9063,10.5 C28.5,7 32.5,1.09375 32.5,-4 C32.5,-5.40625 32.2031,-6.79688 31.5,-8.09375"/>
<path class="Note" transform="matrix(1.78583,0,0,1.78583,1450.41,929.844)" d="M31.5,-8.14063 C29.7031,-11.4375 25.9063,-13.2344 21.2969,-13.2344 C17.9063,-13.2344 14.2031,-12.2344 10.5938,-10.3438 C4,-6.84375 0,-0.9375 0,4.15625 C0,5.5625 0.296875,6.96875 1,8.26563 C2.79688,11.5781 6.59375,13.2813 11.2031,13.2813 C14.5938,13.2813 18.2969,12.375 21.9063,10.4844 C28.5,6.96875 32.5,1.0625 32.5,-4.04688 C32.5,-5.4375 32.2031,-6.84375 31.5,-8.14063 M27.2031,-1.34375 C25.5,0.359375 22.0938,2.45313 18.5,4.46875 C14.9063,6.46875 11.2969,7.96875 8.90625,8.46875 C8.40625,8.57813 7.90625,8.67188 7.40625,8.67188 C5.79688,8.67188 4.59375,8.07813 3.90625,6.76563 C3.59375,6.26563 3.40625,5.67188 3.40625,5.0625 C3.40625,3.96875 4.09375,2.65625 5.20313,1.5625 C6.90625,-0.140625 10.2031,-2.23438 13.7969,-4.23438 C17.4063,-6.23438 21,-7.73438 23.4063,-8.23438 C23.9063,-8.34375 24.4063,-8.4375 24.9063,-8.4375 C26.5,-8.4375 27.7969,-7.84375 28.5,-6.54688 C28.7969,-6.04688 28.9063,-5.4375 28.9063,-4.84375 C28.9063,-3.73438 28.2969,-2.54688 27.2031,-1.34375"/>
<path class="Note" transform="matrix(1.78583,0,0,1.78583,1929.73,974.489)" d="M31.5,-8.14063 C29.7031,-11.4375 25.9063,-13.2344 21.2969,-13.2344 C17.9063,-13.2344 14.2031,-12.2344 10.5938,-10.3438 C4,-6.84375 0,-0.9375 0,4.15625 C0,5.5625 0.296875,6.96875 1,8.26563 C2.79688,11.5781 6.59375,13.2813 11.2031,13.2813 C14.5938,13.2813 18.2969,12.375 21.9063,10.4844 C28.5,6.96875 32.5,1.0625 32.5,-4.04688 C32.5,-5.4375 32.2031,-6.84375 31.5,-8.14063 M27.2031,-1.34375 C25.5,0.359375 22.0938,2.45313 18.5,4.46875 C14.9063,6.46875 11.2969,7.96875 8.90625,8.46875 C8.40625,8.57813 7.90625,8.67188 7.40625,8.67188 C5.79688,8.67188 4.59375,8.07813 3.90625,6.76563 C3.59375,6.26563 3.40625,5.67188 3.40625,5.0625 C3.40625,3.96875 4.09375,2.65625 5.20313,1.5625 C6.90625,-0.140625 10.2031,-2.23438 13.7969,-4.23438 C17.4063,-6.23438 21,-7.73438 23.4063,-8.23438 C23.9063,-8.34375 24.4063,-8.4375 24.9063,-8.4375 C26.5,-8.4375 27.7969,-7.84375 28.5,-6.54688 C28.7969,-6.04688 28.9063,-5.4375 28.9063,-4.84375 C28.9063,-3.73438 28.2969,-2.54688 27.2031,-1.34375"/>
<path class="Note" transform="matrix(1.78583,0,0,1.78583,2705.22,1041.46)" d="M31.5,-8.09375 C29.7031,-11.4063 25.9063,-13.2031 21.2969,-13.2031 C17.9063,-13.2031 14.2031,-12.2031 10.5938,-10.2969 C4,-6.79688 0,-0.90625 0,4.20313 C0,5.59375 0.296875,7 1,8.29688 C2.79688,11.5938 6.59375,13.2969 11.2031,13.2969 C14.5938,13.2969 18.2969,12.4063 21.9063,10.5 C28.5,7 32.5,1.09375 32.5,-4 C32.5,-5.40625 32.2031,-6.79688 31.5,-8.09375"/>
<path class="Note" transform="matrix(1.78583,0,0,1.78583,2916.26,885.198)" d="M31.5,-8.09375 C29.7031,-11.4063 25.9063,-13.2031 21.2969,-13.2031 C17.9063,-13.2031 14.2031,-12.2031 10.5938,-10.2969 C4,-6.79688 0,-0.90625 0,4.20313 C0,5.59375 0.296875,7 1,8.29688 C2.79688,11.5938 6.59375,13.2969 11.2031,13.2969 C14.5938,13.2969 18.2969,12.4063 21.9063,10.5 C28.5,7 32.5,1.09375 32.5,-4 C32.5,-5.40625 32.2031,-6.79688 31.5,-8.09375"/>
<path class="Note" transform="matrix(1.78583,0,0,1.78583,3280.45,907.521)" d="M31.5,-8.09375 C29.7031,-11.4063 25.9063,-13.2031 21.2969,-13.2031 C17.9063,-13.2031 14.2031,-12.2031 10.5938,-10.2969 C4,-6.79688 0,-0.90625 0,4.20313 C0,5.59375 0.296875,7 1,8.29688 C2.79688,11.5938 6.59375,13.2969 11.2031,13.2969 C14.5938,13.2969 18.2969,12.4063 21.9063,10.5 C28.5,7 32.5,1.09375 32.5,-4 C32.5,-5.40625 32.2031,-6.79688 31.5,-8.09375"/>
<path class="Note" transform="matrix(1.78583,0,0,1.78583,3492.73,929.844)" d="M31.5,-8.09375 C29.7031,-11.4063 25.9063,-13.2031 21.2969,-13.2031 C17.9063,-13.2031 14.2031,-12.2031 10.5938,-10.2969 C4,-6.79688 0,-0.90625 0,4.20313 C0,5.59375 0.296875,7 1,8.29688 C2.79688,11.5938 6.59375,13.2969 11.2031,13.2969 C14.5938,13.2969 18.2969,12.4063 21.9063,10.5 C28.5,7 32.5,1.09375 32.5,-4 C32.5,-5.40625 32.2031,-6.79688 31.5,-8.09375"/>
<path class="Note" transform="matrix(1.78583,0,0,1.78583,3705.01,952.167)" d="M31.5,-8.09375 C29.7031,-11.4063 25.9063,-13.2031 21.2969,-13.2031 C17.9063,-13.2031 14.2031,-12.2031 10.5938,-10.2969 C4,-6.79688 0,-0.90625 0,4.20313 C0,5.59375 0.296875,7 1,8.29688 C2.79688,11.5938 6.59375,13.2969 11.2031,13.2969 C14.5938,13.2969 18.2969,12.4063 21.9063,10.5 C28.5,7 32.5,1.09375 32.5,-4 C32.5,-5.40625 32.2031,-6.79688 31.5,-8.09375"/>
<path class="Note" transform="matrix(1.78583,0,0,1.78583,3917.29,974.489)" d="M31.5,-8.09375 C29.7031,-11.4063 25.9063,-13.2031 21.2969,-13.2031 C17.9063,-13.2031 14.2031,-12.2031 10.5938,-10.2969 C4,-6.79688 0,-0.90625 0,4.20313 C0,5.59375 0.296875,7 1,8.29688 C2.79688,11.5938 6.59375,13.2969 11.2031,13.2969 C14.5938,13.2969 18.2969,12.4063 21.9063,10.5 C28.5,7 32.5,1.09375 32.5,-4 C32.5,-5.40625 32.2031,-6.79688 31.5,-8.09375"/>
<path class="Note" transform="matrix(1.78583,0,0,1.78583,484.787,1520.95)" d="M31.5,-8.09375 C29.7031,-11.4063 25.9063,-13.2031 21.2969,-13.2031 C17.9063,-13.2031 14.2031,-12.2031 10.5938,-10.2969 C4,-6.79688 0,-0.90625 0,4.20313 C0,5.59375 0.296875,7 1,8.29688 C2.79688,11.5938 6.59375,13.2969 11.2031,13.2969 C14.5938,13.2969 18.2969,12.4063 21.9063,10.5 C28.5,7 32.5,1.09375 32.5,-4 C32.5,-5.40625 32.2031,-6.79688 31.5,-8.09375"/>
<path class="Note" transform="matrix(1.78583,0,0,1.78583,647.538,1543.27)" d="M31.5,-8.09375 C29.7031,-11.4063 25.9063,-13.2031 21.2969,-13.2031 C17.9063,-13.2031 14.2031,-12.2031 10.5938,-10.2969 C4,-6.79688 0,-0.90625 0,4.20313 C0,5.59375 0.296875,7 1,8.29688 C2.79688,11.5938 6.59375,13.2969 11.2031,13.2969 C14.5938,13.2969 18.2969,12.4063 21.9063,10.5 C28.5,7 32.5,1.09375 32.5,-4 C32.5,-5.40625 32.2031,-6.79688 31.5,-8.09375"/>
<path class="Note" transform="matrix(1.78583,0,0,1.78583,810.29,1543.27)" d="M31.5,-8.09375 C29.7031,-11.4063 25.9063,-13.2031 21.2969,-13.2031 C17.9063,-13.2031 14.2031,-12.2031 10.5938,-10.2969 C4,-6.79688 0,-0.90625 0,4.20313 C0,5.59375 0.296875,7 1,8.29688 C2.79688,11.5938 6.59375,13.2969 11.2031,13.2969 C14.5938,13.2969 18.2969,12.4063 21.9063,10.5 C28.5,7 32.5,1.09375 32.5,-4 C32.5,-5.40625 32.2031,-6.79688 31.5,-8.09375"/>
<path class="Note" transform="matrix(1.78583,0,0,1.78583,1013.23,1565.59)" d="M31.5,-8.09375 C29.7031,-11.4063 25.9063,-13.2031 21.2969,-13.2031 C17.9063,-13.2031 14.2031,-12.2031 10.5938,-10.2969 C4,-6.79688 0,-0.90625 0,4.20313 C0,5.59375 0.296875,7 1,8.29688 C2.79688,11.5938 6.59375,13.2969 11.2031,13.2969 C14.5938,13.2969 18.2969,12.4063 21.9063,10.5 C28.5,7 32.5,1.09375 32.5,-4 C32.5,-5.40625 32.2031,-6.79688 31.5,-8.09375"/>
<path class="Note" transform="matrix(1.78583,0,0,1.78583,1313.49,1543.27)" d="M31.5,-8.14063 C29.7031,-11.4375 25.9063,-13.2344 21.2969,-13.2344 C17.9063,-13.2344 14.2031,-12.2344 10.5938,-10.3438 C4,-6.84375 0,-0.9375 0,4.15625 C0,5.5625 0.296875,6.96875 1,8.26563 C2.79688,11.5781 6.59375,13.2813 11.2031,13.2813 C14.5938,13.2813 18.2969,12.375 21.9063,10.4844 C28.5,6.96875 32.5,1.0625 32.5,-4.04688 C32.5,-5.4375 32.2031,-6.84375 31.5,-8.14063 M27.2031,-1.34375 C25.5,0.359375 22.0938,2.45313 18.5,4.46875 C14.9063,6.46875 11.2969,7.96875 8.90625,8.46875 C8.40625,8.57813 7.90625,8.67188 7.40625,8.67188 C5.79688,8.67188 4.59375,8.07813 3.90625,6.76563 C3.59375,6.26563 3.40625,5.67188 3.40625,5.0625 C3.40625,3.96875 4.09375,2.65625 5.20313,1.5625 C6.90625,-0.140625 10.2031,-2.23438 13.7969,-4.23438 C17.4063,-6.23438 21,-7.73438 23.4063,-8.23438 C23.9063,-8.34375 24.4063,-8.4375 24.9063,-8.4375 C26.5,-8.4375 27.7969,-7.84375 28.5,-6.54688 C28.7969,-6.04688 28.9063,-5.4375 28.9063,-4.84375 C28.9063,-3.73438 28.2969,-2.54688 27.2031,-1.34375"/>
<path class="Note" transform="matrix(1.78583,0,0,1.78583,1597.32,1632.56)" d="M31.5,-8.09375 C29.7031,-11.4063 25.9063,-13.2031 21.2969,-13.2031 C17.9063,-13.2031 14.2031,-12.2031 10.5938,-10.2969 C4,-6.79688 0,-0.90625 0,4.20313 C0,5.59375 0.296875,7 1,8.29688 C2.79688,11.5938 6.59375,13.2969 11.2031,13.2969 C14.5938,13.2969 18.2969,12.4063 21.9063,10.5 C28.5,7 32.5,1.09375 32.5,-4 C32.5,-5.40625 32.2031,-6.79688 31.5,-8.09375"/>
<path class="Note" transform="matrix(1.78583,0,0,1.78583,1746.59,1498.62)" d="M31.5,-8.09375 C29.7031,-11.4063 25.9063,-13.2031 21.2969,-13.2031 C17.9063,-13.2031 14.2031,-12.2031 10.5938,-10.2969 C4,-6.79688 0,-0.90625 0,4.20313 C0,5.59375 0.296875,7 1,8.29688 C2.79688,11.5938 6.59375,13.2969 11.2031,13.2969 C14.5938,13.2969 18.2969,12.4063 21.9063,10.5 C28.5,7 32.5,1.09375 32.5,-4 C32.5,-5.40625 32.2031,-6.79688 31.5,-8.09375"/>
<path class="Note" transform="matrix(1.78583,0,0,1.78583,2049,1520.95)" d="M31.5,-8.09375 C29.7031,-11.4063 25.9063,-13.2031 21.2969,-13.2031 C17.9063,-13.2031 14.2031,-12.2031 10.5938,-10.2969 C4,-6.79688 0,-0.90625 0,4.20313 C0,5.59375 0.296875,7 1,8.29688 C2.79688,11.5938 6.59375,13.2969 11.2031,13.2969 C14.5938,13.2969 18.2969,12.4063 21.9063,10.5 C28.5,7 32.5,1.09375 32.5,-4 C32.5,-5.40625 32.2031,-6.79688 31.5,-8.09375"/>
<path class="Note" transform="matrix(1.78583,0,0,1.78583,2204.04,1543.27)" d="M31.5,-8.09375 C29.7031,-11.4063 25.9063,-13.2031 21.2969,-13.2031 C17.9063,-13.2031 14.2031,-12.2031 10.5938,-10.2969 C4,-6.79688 0,-0.90625 0,4.20313 C0,5.59375 0.296875,7 1,8.29688 C2.79688,11.5938 6.59375,13.2969 11.2031,13.2969 C14.5938,13.2969 18.2969,12.4063 21.9063,10.5 C28.5,7 32.5,1.09375 32.5,-4 C32.5,-5.40625 32.2031,-6.79688 31.5,-8.09375"/>
<path class="Note" transform="matrix(1.78583,0,0,1.78583,2359.09,1565.59)" d="M31.5,-8.09375 C29.7031,-11.4063 25.9063,-13.2031 21.2969,-13.2031 C17.9063,-13.2031 14.2031,-12.2031 10.5938,-10.2969 C4,-6.79688 0,-0.90625 0,4.20313 C0,5.59375 0.296875,7 1,8.29688 C2.79688,11.5938 6.59375,13.2969 11.2031,13.2969 C14.5938,13.2969 18.2969,12.4063 21.9063,10.5 C28.5,7 32.5,1.09375 32.5,-4 C32.5,-5.40625 32.2031,-6.79688 31.5,-8.09375"/>
<path class="Note" transform="matrix(1.78583,0,0,1.78583,2514.14,1587.92)" d="M31.5,-8.09375 C29.7031,-11.4063 25.9063,-13.2031 21.2969,-13.2031 C17.9063,-13.2031 14.2031,-12.2031 10.5938,-10.2969 C4,-6.79688 0,-0.90625 0,4.20313 C0,5.59375 0.296875,7 1,8.29688 C2.79688,11.5938 6.59375,13.2969 11.2031,13.2969 C14.5938,13.2969 18.2969,12.4063 21.9063,10.5 C28.5,7 32.5,1.09375 32.5,-4 C32.5,-5.40625 32.2031,-6.79688 31.5,-8.09375"/>
<path class="Note" transform="matrix(1.78583,0,0,1.78583,2806.69,1543.27)" d="M31.5,-8.09375 C29.7031,-11.4063 25.9063,-13.2031 21.2969,-13.2031 C17.9063,-13.2031 14.2031,-12.2031 10.5938,-10.2969 C4,-6.79688 0,-0.90625 0,4.20313 C0,5.59375 0.296875,7 1,8.29688 C2.79688,11.5938 6.59375,13.2969 11.2031,13.2969 C14.5938,13.2969 18.2969,12.4063 21.9063,10.5 C28.5,7 32.5,1.09375 32.5,-4 C32.5,-5.40625 32.2031,-6.79688 31.5,-8.09375"/>
<path class="Note" transform="matrix(1.78583,0,0,1.78583,2957.44,1565.59)" d="M31.5,-8.09375 C29.7031,-11.4063 25.9063,-13.2031 21.2969,-13.2031 C17.9063,-13.2031 14.2031,-12.2031 10.5938,-10.2969 C4,-6.79688 0,-0.90625 0,4.20313 C0,5.59375 0.296875,7 1,8.29688 C2.79688,11.5938 6.59375,13.2969 11.2031,13.2969 C14.5938,13.2969 18.2969,12.4063 21.9063,10.5 C28.5,7 32.5,1.09375 32.5,-4 C32.5,-5.40625 32.2031,-6.79688 31.5,-8.09375"/>
<path class="Note" transform="matrix(1.78583,0,0,1.78583,3108.19,1565.59)" d="M31.5,-8.09375 C29.7031,-11.4063 25.9063,-13.2031 21.2969,-13.2031 C17.9063,-13.2031 14.2031,-12.2031 10.5938,-10.2969 C4,-6.79688 0,-0.90625 0,4.20313 C0,5.59375 0.296875,7 1,8.29688 C2.79688,11.5938 6.59375,13.2969 11.2031,13.2969 C14.5938,13.2969 18.2969,12.4063 21.9063,10.5 C28.5,7 32.5,1.09375 32.5,-4 C32.5,-5.40625 32.2031,-6.79688 31.5,-8.09375"/>
<path class="Note" transform="matrix(1.78583,0,0,1.78583,3258.94,1587.92)" d="M31.5,-8.09375 C29.7031,-11.4063 25.9063,-13.2031 21.2969,-13.2031 C17.9063,-13.2031 14.2031,-12.2031 10.5938,-10.2969 C4,-6.79688 0,-0.90625 0,4.20313 C0,5.59375 0.296875,7 1,8.29688 C2.79688,11.5938 6.59375,13.2969 11.2031,13.2969 C14.5938,13.2969 18.2969,12.4063 21.9063,10.5 C28.5,7 32.5,1.09375 32.5,-4 C32.5,-5.40625 32.2031,-6.79688 31.5,-8.09375"/>
<path class="Note" transform="matrix(1.78583,0,0,1.78583,3547.2,1565.59)" d="M31.5,-8.14063 C29.7031,-11.4375 25.9063,-13.2344 21.2969,-13.2344 C17.9063,-13.2344 14.2031,-12.2344 10.5938,-10.3438 C4,-6.84375 0,-0.9375 0,4.15625 C0,5.5625 0.296875,6.96875 1,8.26563 C2.79688,11.5781 6.59375,13.2813 11.2031,13.2813 C14.5938,13.2813 18.2969,12.375 21.9063,10.4844 C28.5,6.96875 32.5,1.0625 32.5,-4.04688 C32.5,-5.4375 32.2031,-6.84375 31.5,-8.14063 M27.2031,-1.34375 C25.5,0.359375 22.0938,2.45313 18.5,4.46875 C14.9063,6.46875 11.2969,7.96875 8.90625,8.46875 C8.40625,8.57813 7.90625,8.67188 7.40625,8.67188 C5.79688,8.67188 4.59375,8.07813 3.90625,6.76563 C3.59375,6.26563 3.40625,5.67188 3.40625,5.0625 C3.40625,3.96875 4.09375,2.65625 5.20313,1.5625 C6.90625,-0.140625 10.2031,-2.23438 13.7969,-4.23438 C17.4063,-6.23438 21,-7.73438 23.4063,-8.23438 C23.9063,-8.34375 24.4063,-8.4375 24.9063,-8.4375 C26.5,-8.4375 27.7969,-7.84375 28.5,-6.54688 C28.7969,-6.04688 28.9063,-5.4375 28.9063,-4.84375 C28.9063,-3.73438 28.2969,-2.54688 27.2031,-1.34375"/>
<path class="Note" transform="matrix(1.78583,0,0,1.78583,3831.03,1565.59)" d="M31.5,-8.09375 C29.7031,-11.4063 25.9063,-13.2031 21.2969,-13.2031 C17.9063,-13.2031 14.2031,-12.2031 10.5938,-10.2969 C4,-6.79688 0,-0.90625 0,4.20313 C0,5.59375 0.296875,7 1,8.29688 C2.79688,11.5938 6.59375,13.2969 11.2031,13.2969 C14.5938,13.2969 18.2969,12.4063 21.9063,10.5 C28.5,7 32.5,1.09375 32.5,-4 C32.5,-5.40625 32.2031,-6.79688 31.5,-8.09375"/>
<path class="Note" transform="matrix(1.78583,0,0,1.78583,3980.3,1520.95)" d="M31.5,-8.09375 C29.7031,-11.4063 25.9063,-13.2031 21.2969,-13.2031 C17.9063,-13.2031 14.2031,-12.2031 10.5938,-10.2969 C4,-6.79688 0,-0.90625 0,4.20313 C0,5.59375 0.296875,7 1,8.29688 C2.79688,11.5938 6.59375,13.2969 11.2031,13.2969 C14.5938,13.2969 18.2969,12.4063 21.9063,10.5 C28.5,7 32.5,1.09375 32.5,-4 C32.5,-5.40625 32.2031,-6.79688 31.5,-8.09375"/>
<path class="Note" transform="matrix(1.78583,0,0,1.78583,484.787,2134.37)" d="M31.5,-8.09375 C29.7031,-11.4063 25.9063,-13.2031 21.2969,-13.2031 C17.9063,-13.2031 14.2031,-12.2031 10.5938,-10.2969 C4,-6.79688 0,-0.90625 0,4.20313 C0,5.59375 0.296875,7 1,8.29688 C2.79688,11.5938 6.59375,13.2969 11.2031,13.2969 C14.5938,13.2969 18.2969,12.4063 21.9063,10.5 C28.5,7 32.5,1.09375 32.5,-4 C32.5,-5.40625 32.2031,-6.79688 31.5,-8.09375"/>
<path class="Note" transform="matrix(1.78583,0,0,1.78583,650.692,2156.7)" d="M31.5,-8.09375 C29.7031,-11.4063 25.9063,-13.2031 21.2969,-13.2031 C17.9063,-13.2031 14.2031,-12.2031 10.5938,-10.2969 C4,-6.79688 0,-0.90625 0,4.20313 C0,5.59375 0.296875,7 1,8.29688 C2.79688,11.5938 6.59375,13.2969 11.2031,13.2969 C14.5938,13.2969 18.2969,12.4063 21.9063,10.5 C28.5,7 32.5,1.09375 32.5,-4 C32.5,-5.40625 32.2031,-6.79688 31.5,-8.09375"/>
<path class="Note" transform="matrix(1.78583,0,0,1.78583,816.596,2179.02)" d="M31.5,-8.09375 C29.7031,-11.4063 25.9063,-13.2031 21.2969,-13.2031 C17.9063,-13.2031 14.2031,-12.2031 10.5938,-10.2969 C4,-6.79688 0,-0.90625 0,4.20313 C0,5.59375 0.296875,7 1,8.29688 C2.79688,11.5938 6.59375,13.2969 11.2031,13.2969 C14.5938,13.2969 18.2969,12.4063 21.9063,10.5 C28.5,7 32.5,1.09375 32.5,-4 C32.5,-5.40625 32.2031,-6.79688 31.5,-8.09375"/>
<path class="Note" transform="matrix(1.78583,0,0,1.78583,982.501,2201.34)" d="M31.5,-8.09375 C29.7031,-11.4063 25.9063,-13.2031 21.2969,-13.2031 C17.9063,-13.2031 14.2031,-12.2031 10.5938,-10.2969 C4,-6.79688 0,-0.90625 0,4.20313 C0,5.59375 0.296875,7 1,8.29688 C2.79688,11.5938 6.59375,13.2969 11.2031,13.2969 C14.5938,13.2969 18.2969,12.4063 21.9063,10.5 C28.5,7 32.5,1.09375 32.5,-4 C32.5,-5.40625 32.2031,-6.79688 31.5,-8.09375"/>
<path class="Note" transform="matrix(1.78583,0,0,1.78583,1285.91,2134.37)" d="M31.5,-8.09375 C29.7031,-11.4063 25.9063,-13.2031 21.2969,-13.2031 C17.9063,-13.2031 14.2031,-12.2031 10.5938,-10.2969 C4,-6.79688 0,-0.90625 0,4.20313 C0,5.59375 0.296875,7 1,8.29688 C2.79688,11.5938 6.59375,13.2969 11.2031,13.2969 C14.5938,13.2969 18.2969,12.4063 21.9063,10.5 C28.5,7 32.5,1.09375 32.5,-4 C32.5,-5.40625 32.2031,-6.79688 31.5,-8.09375"/>
<path class="Note" transform="matrix(1.78583,0,0,1.78583,1488.86,2156.7)" d="M31.5,-8.09375 C29.7031,-11.4063 25.9063,-13.2031 21.2969,-13.2031 C17.9063,-13.2031 14.2031,-12.2031 10.5938,-10.2969 C4,-6.79688 0,-0.90625 0,4.20313 C0,5.59375 0.296875,7 1,8.29688 C2.79688,11.5938 6.59375,13.2969 11.2031,13.2969 C14.5938,13.2969 18.2969,12.4063 21.9063,10.5 C28.5,7 32.5,1.09375 32.5,-4 C32.5,-5.40625 32.2031,-6.79688 31.5,-8.09375"/>
<path class="Note" transform="matrix(1.78583,0,0,1.78583,1671.82,2134.37)" d="M31.5,-8.09375 C29.7031,-11.4063 25.9063,-13.2031 21.2969,-13.2031 C17.9063,-13.2031 14.2031,-12.2031 10.5938,-10.2969 C4,-6.79688 0,-0.90625 0,4.20313 C0,5.59375 0.296875,7 1,8.29688 C2.79688,11.5938 6.59375,13.2969 11.2031,13.2969 C14.5938,13.2969 18.2969,12.4063 21.9063,10.5 C28.5,7 32.5,1.09375 32.5,-4 C32.5,-5.40625 32.2031,-6.79688 31.5,-8.09375"/>
<path class="Note" transform="matrix(1.78583,0,0,1.78583,1854.77,2112.05)" d="M31.5,-8.09375 C29.7031,-11.4063 25.9063,-13.2031 21.2969,-13.2031 C17.9063,-13.2031 14.2031,-12.2031 10.5938,-10.2969 C4,-6.79688 0,-0.90625 0,4.20313 C0,5.59375 0.296875,7 1,8.29688 C2.79688,11.5938 6.59375,13.2969 11.2031,13.2969 C14.5938,13.2969 18.2969,12.4063 21.9063,10.5 C28.5,7 32.5,1.09375 32.5,-4 C32.5,-5.40625 32.2031,-6.79688 31.5,-8.09375"/>
<path class="Note" transform="matrix(1.78583,0,0,1.78583,2190.87,2089.73)" d="M31.5,-8.14063 C29.7031,-11.4375 25.9063,-13.2344 21.2969,-13.2344 C17.9063,-13.2344 14.2031,-12.2344 10.5938,-10.3438 C4,-6.84375 0,-0.9375 0,4.15625 C0,5.5625 0.296875,6.96875 1,8.26563 C2.79688,11.5781 6.59375,13.2813 11.2031,13.2813 C14.5938,13.2813 18.2969,12.375 21.9063,10.4844 C28.5,6.96875 32.5,1.0625 32.5,-4.04688 C32.5,-5.4375 32.2031,-6.84375 31.5,-8.14063 M27.2031,-1.34375 C25.5,0.359375 22.0938,2.45313 18.5,4.46875 C14.9063,6.46875 11.2969,7.96875 8.90625,8.46875 C8.40625,8.57813 7.90625,8.67188 7.40625,8.67188 C5.79688,8.67188 4.59375,8.07813 3.90625,6.76563 C3.59375,6.26563 3.40625,5.67188 3.40625,5.0625 C3.40625,3.96875 4.09375,2.65625 5.20313,1.5625 C6.90625,-0.140625 10.2031,-2.23438 13.7969,-4.23438 C17.4063,-6.23438 21,-7.73438 23.4063,-8.23438 C23.9063,-8.34375 24.4063,-8.4375 24.9063,-8.4375 C26.5,-8.4375 27.7969,-7.84375 28.5,-6.54688 C28.7969,-6.04688 28.9063,-5.4375 28.9063,-4.84375 C28.9063,-3.73438 28.2969,-2.54688 27.2031,-1.34375"/>
<path class="Note" transform="matrix(1.78583,0,0,1.78583,2535.31,2134.37)" d="M31.5,-8.09375 C29.7031,-11.4063 25.9063,-13.2031 21.2969,-13.2031 C17.9063,-13.2031 14.2031,-12.2031 10.5938,-10.2969 C4,-6.79688 0,-0.90625 0,4.20313 C0,5.59375 0.296875,7 1,8.29688 C2.79688,11.5938 6.59375,13.2969 11.2031,13.2969 C14.5938,13.2969 18.2969,12.4063 21.9063,10.5 C28.5,7 32.5,1.09375 32.5,-4 C32.5,-5.40625 32.2031,-6.79688 31.5,-8.09375"/>
<path class="Note" transform="matrix(1.78583,0,0,1.78583,2723.49,2089.73)" d="M31.5,-8.09375 C29.7031,-11.4063 25.9063,-13.2031 21.2969,-13.2031 C17.9063,-13.2031 14.2031,-12.2031 10.5938,-10.2969 C4,-6.79688 0,-0.90625 0,4.20313 C0,5.59375 0.296875,7 1,8.29688 C2.79688,11.5938 6.59375,13.2969 11.2031,13.2969 C14.5938,13.2969 18.2969,12.4063 21.9063,10.5 C28.5,7 32.5,1.09375 32.5,-4 C32.5,-5.40625 32.2031,-6.79688 31.5,-8.09375"/>
<path class="Note" transform="matrix(1.78583,0,0,1.78583,3064.8,2112.05)" d="M31.5,-8.09375 C29.7031,-11.4063 25.9063,-13.2031 21.2969,-13.2031 C17.9063,-13.2031 14.2031,-12.2031 10.5938,-10.2969 C4,-6.79688 0,-0.90625 0,4.20313 C0,5.59375 0.296875,7 1,8.29688 C2.79688,11.5938 6.59375,13.2969 11.2031,13.2969 C14.5938,13.2969 18.2969,12.4063 21.9063,10.5 C28.5,7 32.5,1.09375 32.5,-4 C32.5,-5.40625 32.2031,-6.79688 31.5,-8.09375"/>
<path class="Note" transform="matrix(1.78583,0,0,1.78583,3235.01,2134.37)" d="M31.5,-8.09375 C29.7031,-11.4063 25.9063,-13.2031 21.2969,-13.2031 C17.9063,-13.2031 14.2031,-12.2031 10.5938,-10.2969 C4,-6.79688 0,-0.90625 0,4.20313 C0,5.59375 0.296875,7 1,8.29688 C2.79688,11.5938 6.59375,13.2969 11.2031,13.2969 C14.5938,13.2969 18.2969,12.4063 21.9063,10.5 C28.5,7 32.5,1.09375 32.5,-4 C32.5,-5.40625 32.2031,-6.79688 31.5,-8.09375"/>
<path class="Note" transform="matrix(1.78583,0,0,1.78583,3405.21,2156.7)" d="M31.5,-8.09375 C29.7031,-11.4063 25.9063,-13.2031 21.2969,-13.2031 C17.9063,-13.2031 14.2031,-12.2031 10.5938,-10.2969 C4,-6.79688 0,-0.90625 0,4.20313 C0,5.59375 0.296875,7 1,8.29688 C2.79688,11.5938 6.59375,13.2969 11.2031,13.2969 C14.5938,13.2969 18.2969,12.4063 21.9063,10.5 C28.5,7 32.5,1.09375 32.5,-4 C32.5,-5.40625 32.2031,-6.79688 31.5,-8.09375"/>
<path class="Note" transform="matrix(1.78583,0,0,1.78583,3575.41,2179.02)" d="M31.5,-8.09375 C29.7031,-11.4063 25.9063,-13.2031 21.2969,-13.2031 C17.9063,-13.2031 14.2031,-12.2031 10.5938,-10.2969 C4,-6.79688 0,-0.90625 0,4.20313 C0,5.59375 0.296875,7 1,8.29688 C2.79688,11.5938 6.59375,13.2969 11.2031,13.2969 C14.5938,13.2969 18.2969,12.4063 21.9063,10.5 C28.5,7 32.5,1.09375 32.5,-4 C32.5,-5.40625 32.2031,-6.79688 31.5,-8.09375"/>
<path class="Note" transform="matrix(1.78583,0,0,1.78583,3883.12,2156.7)" d="M31.5,-8.14063 C29.7031,-11.4375 25.9063,-13.2344 21.2969,-13.2344 C17.9063,-13.2344 14.2031,-12.2344 10.5938,-10.3438 C4,-6.84375 0,-0.9375 0,4.15625 C0,5.5625 0.296875,6.96875 1,8.26563 C2.79688,11.5781 6.59375,13.2813 11.2031,13.2813 C14.5938,13.2813 18.2969,12.375 21.9063,10.4844 C28.5,6.96875 32.5,1.0625 32.5,-4.04688 C32.5,-5.4375 32.2031,-6.84375 31.5,-8.14063 M27.2031,-1.34375 C25.5,0.359375 22.0938,2.45313 18.5,4.46875 C14.9063,6.46875 11.2969,7.96875 8.90625,8.46875 C8.40625,8.57813 7.90625,8.67188 7.40625,8.67188 C5.79688,8.67188 4.59375,8.07813 3.90625,6.76563 C3.59375,6.26563 3.40625,5.67188 3.40625,5.0625 C3.40625,3.96875 4.09375,2.65625 5.20313,1.5625 C6.90625,-0.140625 10.2031,-2.23438 13.7969,-4.23438 C17.4063,-6.23438 21,-7.73438 23.4063,-8.23438 C23.9063,-8.34375 24.4063,-8.4375 24.9063,-8.4375 C26.5,-8.4375 27.7969,-7.84375 28.5,-6.54688 C28.7969,-6.04688 28.9063,-5.4375 28.9063,-4.84375 C28.9063,-3.73438 28.2969,-2.54688 27.2031,-1.34375"/>
<path class="Clef" transform="matrix(1.78583,0,0,1.78583,106.583,517.323)" d="M63.3594,-5.92188 C62.125,-11.3438 59.4844,-15.1719 58.7031,-16.2031 C55.5156,-20.4844 51.5,-23.3281 46.8125,-24.6875 C43.7031,-25.5625 40.7031,-25.6875 38.2813,-25.5 C37.2344,-31.5156 36.2344,-37.3906 35.3281,-42.8438 C40.7813,-49.0156 44.4063,-54.8125 46.6875,-59.1094 C50.1563,-65.6875 51.2969,-70.2656 51.3594,-70.4688 C53.0781,-75.6875 53.4375,-83.3906 52.3281,-91.5938 C51.3281,-99.1406 49.2344,-105.859 46.875,-109.109 C45.8594,-110.531 44.7969,-111.266 43.7656,-111.266 C42.5469,-111.266 40.0313,-110.031 37.1406,-107.25 C34.8438,-105.063 31.5781,-101.172 29.0156,-95.1563 C26.0156,-88.0938 25.7969,-78.6094 26.1563,-71.8906 C26.5313,-64.6094 27.6406,-58.9219 27.6563,-58.875 C27.6719,-58.7813 27.9375,-57.2813 28.375,-54.7188 C28.1563,-54.4844 27.9063,-54.2656 27.6563,-54.0156 C26.625,-53.0156 25.4375,-51.8906 24.0469,-50.5 C23.1875,-49.6406 22.2344,-48.7344 21.2344,-47.7656 C12.7969,-39.625 0,-27.2969 0,-8.14063 C0,-3.4375 0.90625,0.984375 2.6875,5 C4.26563,8.59375 6.5625,11.875 9.5,14.75 C17.2344,22.3125 27.8281,25.5156 34.875,25.3594 C37.8281,25.2813 40.4688,25.0469 42.8594,24.5938 C44.6875,34.2031 45.8281,41.2344 45.8594,46.5781 C45.9063,53.0938 44.25,57.0781 40.3594,59.8438 C37.9219,61.5781 35.1094,62.5313 32.0156,62.6719 C29.4219,62.7969 27.1563,62.3281 25.7344,61.9219 L25.7188,61.9219 C25.7188,61.9219 25.4375,61.8281 25.4219,61.6406 C25.4063,61.4531 25.7656,61.4063 25.7656,61.4063 L25.7969,61.4063 C27.7188,60.9688 31.2813,59.7344 33.6406,56.4375 C35.4375,53.9063 36.3125,49.2813 34.4688,45.3438 C33.3594,42.9531 30.8594,40 25.2344,39.5469 C22.7344,39.3438 20.4688,39.8594 18.4688,41.0625 C16.6563,42.1406 15.1563,43.7813 14.1094,45.7813 C11.6563,50.4844 12.1094,56.2188 15.2344,60.0625 C18.2031,63.6875 22.8125,66 28.25,66.5781 C29.1094,66.6719 29.9531,66.7031 30.7969,66.7031 C35.2344,66.7031 39.625,65.5 43.2031,63.2969 C46.8594,60.7188 48.9844,56.7344 49.6563,51.1094 C50.2188,46.4688 49.8281,40.5469 48.4375,32.4688 C48.0781,30.375 47.5313,27.3438 46.875,23.5938 C52.625,21.6719 56.7813,18.0938 60.5469,12.2344 C63.8438,6.5 64.7813,0.390625 63.3594,-5.92188 M29.1406,20.2969 C24.5,19.0781 20.0625,16.5781 16.3125,13.0625 C15,11.8438 13.125,9.67188 11.6563,6.28125 C10.2969,3.10938 9.625,-0.328125 9.6875,-3.90625 C9.75,-8.60938 11.0625,-13.4375 13.5625,-18.2188 C16.4844,-23.7969 21.0469,-29.3281 27.1094,-34.6563 C28.5625,-35.9375 29.9375,-37.2188 31.2188,-38.5 C31.9844,-34.2344 32.8125,-29.5469 33.6875,-24.6719 C29.8438,-23.4063 25.0938,-20.25 21.9844,-14.5938 C18.4375,-8.03125 18.5781,-2.5 19.3125,0.984375 C20.25,5.4375 22.7813,9.20313 26.2344,11.2969 C27.1719,11.8594 31.2969,13.9844 33.1406,13.4063 C33.5156,13.2969 33.7813,13.0625 33.9219,12.7344 C34.4375,11.5625 33.4063,10.9219 31.8594,9.96875 C31.25,9.59375 30.5781,9.17188 29.8594,8.64063 C26.5313,6.15625 25.0781,1.70313 26.1563,-2.6875 C26.7344,-5.07813 28.0156,-7.25 29.8594,-8.95313 C31.5156,-10.5 33.5625,-11.5938 35.9375,-12.2344 C37.9844,-0.984375 40.0469,10.1719 41.6875,18.5313 C41.8125,19.2188 41.9531,19.8906 42.0781,20.5625 C37.7031,21.5 33.3594,21.4063 29.1406,20.2969 M40.4688,-12.9063 C50.8125,-13.375 55.0781,-5.9375 55.9688,-1.10938 C56.4375,1.4375 56.4375,5.875 54.8906,10.0938 C53.7188,13.2656 51.2656,17.3438 46.125,19.4063 C46.0625,18.9844 45.9844,18.5469 45.9063,18.125 C44.3594,9.34375 42.4219,-1.65625 40.4688,-12.9063 M33.1406,-83.8594 C34.9219,-89.5938 37.6563,-92.8438 39.6563,-94.5781 C41.4063,-96.0938 43.0469,-96.8125 43.9688,-96.8125 C44.1094,-96.8125 44.2344,-96.7813 44.3281,-96.75 C44.7969,-96.6094 45.3281,-96.0469 45.7969,-95.1719 C48.1094,-90.8906 47.3594,-84.1719 46.0156,-79.7344 C44.3906,-74.3281 41.4688,-68.7188 32.6719,-59.1094 C32.5,-60.2188 32.3438,-61.2656 32.1875,-62.25 C30.9375,-70.5313 31.2656,-77.8125 33.1406,-83.8594"/>
<path class="Clef" transform="matrix(1.78583,0,0,1.78583,106.583,1108.43)" d="M63.3594,-5.92188 C62.125,-11.3438 59.4844,-15.1719 58.7031,-16.2031 C55.5156,-20.4844 51.5,-23.3281 46.8125,-24.6875 C43.7031,-25.5625 40.7031,-25.6875 38.2813,-25.5 C37.2344,-31.5156 36.2344,-37.3906 35.3281,-42.8438 C40.7813,-49.0156 44.4063,-54.8125 46.6875,-59.1094 C50.1563,-65.6875 51.2969,-70.2656 51.3594,-70.4688 C53.0781,-75.6875 53.4375,-83.3906 52.3281,-91.5938 C51.3281,-99.1406 49.2344,-105.859 46.875,-109.109 C45.8594,-110.531 44.7969,-111.266 43.7656,-111.266 C42.5469,-111.266 40.0313,-110.031 37.1406,-107.25 C34.8438,-105.063 31.5781,-101.172 29.0156,-95.1563 C26.0156,-88.0938 25.7969,-78.6094 26.1563,-71.8906 C26.5313,-64.6094 27.6406,-58.9219 27.6563,-58.875 C27.6719,-58.7813 27.9375,-57.2813 28.375,-54.7188 C28.1563,-54.4844 27.9063,-54.2656 27.6563,-54.0156 C26.625,-53.0156 25.4375,-51.8906 24.0469,-50.5 C23.1875,-49.6406 22.2344,-48.7344 21.2344,-47.7656 C12.7969,-39.625 0,-27.2969 0,-8.14063 C0,-3.4375 0.90625,0.984375 2.6875,5 C4.26563,8.59375 6.5625,11.875 9.5,14.75 C17.2344,22.3125 27.8281,25.5156 34.875,25.3594 C37.8281,25.2813 40.4688,25.0469 42.8594,24.5938 C44.6875,34.2031 45.8281,41.2344 45.8594,46.5781 C45.9063,53.0938 44.25,57.0781 40.3594,59.8438 C37.9219,61.5781 35.1094,62.5313 32.0156,62.6719 C29.4219,62.7969 27.1563,62.3281 25.7344,61.9219 L25.7188,61.9219 C25.7188,61.9219 25.4375,61.8281 25.4219,61.6406 C25.4063,61.4531 25.7656,61.4063 25.7656,61.4063 L25.7969,61.4063 C27.7188,60.9688 31.2813,59.7344 33.6406,56.4375 C35.4375,53.9063 36.3125,49.2813 34.4688,45.3438 C33.3594,42.9531 30.8594,40 25.2344,39.5469 C22.7344,39.3438 20.4688,39.8594 18.4688,41.0625 C16.6563,42.1406 15.1563,43.7813 14.1094,45.7813 C11.6563,50.4844 12.1094,56.2188 15.2344,60.0625 C18.2031,63.6875 22.8125,66 28.25,66.5781 C29.1094,66.6719 29.9531,66.7031 30.7969,66.7031 C35.2344,66.7031 39.625,65.5 43.2031,63.2969 C46.8594,60.7188 48.9844,56.7344 49.6563,51.1094 C50.2188,46.4688 49.8281,40.5469 48.4375,32.4688 C48.0781,30.375 47.5313,27.3438 46.875,23.5938 C52.625,21.6719 56.7813,18.0938 60.5469,12.2344 C63.8438,6.5 64.7813,0.390625 63.3594,-5.92188 M29.1406,20.2969 C24.5,19.0781 20.0625,16.5781 16.3125,13.0625 C15,11.8438 13.125,9.67188 11.6563,6.28125 C10.2969,3.10938 9.625,-0.328125 9.6875,-3.90625 C9.75,-8.60938 11.0625,-13.4375 13.5625,-18.2188 C16.4844,-23.7969 21.0469,-29.3281 27.1094,-34.6563 C28.5625,-35.9375 29.9375,-37.2188 31.2188,-38.5 C31.9844,-34.2344 32.8125,-29.5469 33.6875,-24.6719 C29.8438,-23.4063 25.0938,-20.25 21.9844,-14.5938 C18.4375,-8.03125 18.5781,-2.5 19.3125,0.984375 C20.25,5.4375 22.7813,9.20313 26.2344,11.2969 C27.1719,11.8594 31.2969,13.9844 33.1406,13.4063 C33.5156,13.2969 33.7813,13.0625 33.9219,12.7344 C34.4375,11.5625 33.4063,10.9219 31.8594,9.96875 C31.25,9.59375 30.5781,9.17188 29.8594,8.64063 C26.5313,6.15625 25.0781,1.70313 26.1563,-2.6875 C26.7344,-5.07813 28.0156,-7.25 29.8594,-8.95313 C31.5156,-10.5 33.5625,-11.5938 35.9375,-12.2344 C37.9844,-0.984375 40.0469,10.1719 41.6875,18.5313 C41.8125,19.2188 41.9531,19.8906 42.0781,20.5625 C37.7031,21.5 33.3594,21.4063 29.1406,20.2969 M40.4688,-12.9063 C50.8125,-13.375 55.0781,-5.9375 55.9688,-1.10938 C56.4375,1.4375 56.4375,5.875 54.8906,10.0938 C53.7188,13.2656 51.2656,17.3438 46.125,19.4063 C46.0625,18.9844 45.9844,18.5469 45.9063,18.125 C44.3594,9.34375 42.4219,-1.65625 40.4688,-12.9063 M33.1406,-83.8594 C34.9219,-89.5938 37.6563,-92.8438 39.6563,-94.5781 C41.4063,-96.0938 43.0469,-96.8125 43.9688,-96.8125 C44.1094,-96.8125 44.2344,-96.7813 44.3281,-96.75 C44.7969,-96.6094 45.3281,-96.0469 45.7969,-95.1719 C48.1094,-90.8906 47.3594,-84.1719 46.0156,-79.7344 C44.3906,-74.3281 41.4688,-68.7188 32.6719,-59.1094 C32.5,-60.2188 32.3438,-61.2656 32.1875,-62.25 C30.9375,-70.5313 31.2656,-77.8125 33.1406,-83.8594"/>
<path class="Clef" transform="matrix(1.78583,0,0,1.78583,106.583,1699.53)" d="M63.3594,-5.92188 C62.125,-11.3438 59.4844,-15.1719 58.7031,-16.2031 C55.5156,-20.4844 51.5,-23.3281 46.8125,-24.6875 C43.7031,-25.5625 40.7031,-25.6875 38.2813,-25.5 C37.2344,-31.5156 36.2344,-37.3906 35.3281,-42.8438 C40.7813,-49.0156 44.4063,-54.8125 46.6875,-59.1094 C50.1563,-65.6875 51.2969,-70.2656 51.3594,-70.4688 C53.0781,-75.6875 53.4375,-83.3906 52.3281,-91.5938 C51.3281,-99.1406 49.2344,-105.859 46.875,-109.109 C45.8594,-110.531 44.7969,-111.266 43.7656,-111.266 C42.5469,-111.266 40.0313,-110.031 37.1406,-107.25 C34.8438,-105.063 31.5781,-101.172 29.0156,-95.1563 C26.0156,-88.0938 25.7969,-78.6094 26.1563,-71.8906 C26.5313,-64.6094 27.6406,-58.9219 27.6563,-58.875 C27.6719,-58.7813 27.9375,-57.2813 28.375,-54.7188 C28.1563,-54.4844 27.9063,-54.2656 27.6563,-54.0156 C26.625,-53.0156 25.4375,-51.8906 24.0469,-50.5 C23.1875,-49.6406 22.2344,-48.7344 21.2344,-47.7656 C12.7969,-39.625 0,-27.2969 0,-8.14063 C0,-3.4375 0.90625,0.984375 2.6875,5 C4.26563,8.59375 6.5625,11.875 9.5,14.75 C17.2344,22.3125 27.8281,25.5156 34.875,25.3594 C37.8281,25.2813 40.4688,25.0469 42.8594,24.5938 C44.6875,34.2031 45.8281,41.2344 45.8594,46.5781 C45.9063,53.0938 44.25,57.0781 40.3594,59.8438 C37.9219,61.5781 35.1094,62.5313 32.0156,62.6719 C29.4219,62.7969 27.1563,62.3281 25.7344,61.9219 L25.7188,61.9219 C25.7188,61.9219 25.4375,61.8281 25.4219,61.6406 C25.4063,61.4531 25.7656,61.4063 25.7656,61.4063 L25.7969,61.4063 C27.7188,60.9688 31.2813,59.7344 33.6406,56.4375 C35.4375,53.9063 36.3125,49.2813 34.4688,45.3438 C33.3594,42.9531 30.8594,40 25.2344,39.5469 C22.7344,39.3438 20.4688,39.8594 18.4688,41.0625 C16.6563,42.1406 15.1563,43.7813 14.1094,45.7813 C11.6563,50.4844 12.1094,56.2188 15.2344,60.0625 C18.2031,63.6875 22.8125,66 28.25,66.5781 C29.1094,66.6719 29.9531,66.7031 30.7969,66.7031 C35.2344,66.7031 39.625,65.5 43.2031,63.2969 C46.8594,60.7188 48.9844,56.7344 49.6563,51.1094 C50.2188,46.4688 49.8281,40.5469 48.4375,32.4688 C48.0781,30.375 47.5313,27.3438 46.875,23.5938 C52.625,21.6719 56.7813,18.0938 60.5469,12.2344 C63.8438,6.5 64.7813,0.390625 63.3594,-5.92188 M29.1406,20.2969 C24.5,19.0781 20.0625,16.5781 16.3125,13.0625 C15,11.8438 13.125,9.67188 11.6563,6.28125 C10.2969,3.10938 9.625,-0.328125 9.6875,-3.90625 C9.75,-8.60938 11.0625,-13.4375 13.5625,-18.2188 C16.4844,-23.7969 21.0469,-29.3281 27.1094,-34.6563 C28.5625,-35.9375 29.9375,-37.2188 31.2188,-38.5 C31.9844,-34.2344 32.8125,-29.5469 33.6875,-24.6719 C29.8438,-23.4063 25.0938,-20.25 21.9844,-14.5938 C18.4375,-8.03125 18.5781,-2.5 19.3125,0.984375 C20.25,5.4375 22.7813,9.20313 26.2344,11.2969 C27.1719,11.8594 31.2969,13.9844 33.1406,13.4063 C33.5156,13.2969 33.7813,13.0625 33.9219,12.7344 C34.4375,11.5625 33.4063,10.9219 31.8594,9.96875 C31.25,9.59375 30.5781,9.17188 29.8594,8.64063 C26.5313,6.15625 25.0781,1.70313 26.1563,-2.6875 C26.7344,-5.07813 28.0156,-7.25 29.8594,-8.95313 C31.5156,-10.5 33.5625,-11.5938 35.9375,-12.2344 C37.9844,-0.984375 40.0469,10.1719 41.6875,18.5313 C41.8125,19.2188 41.9531,19.8906 42.0781,20.5625 C37.7031,21.5 33.3594,21.4063 29.1406,20.2969 M40.4688,-12.9063 C50.8125,-13.375 55.0781,-5.9375 55.9688,-1.10938 C56.4375,1.4375 56.4375,5.875 54.8906,10.0938 C53.7188,13.2656 51.2656,17.3438 46.125,19.4063 C46.0625,18.9844 45.9844,18.5469 45.9063,18.125 C44.3594,9.34375 42.4219,-1.65625 40.4688,-12.9063 M33.1406,-83.8594 C34.9219,-89.5938 37.6563,-92.8438 39.6563,-94.5781 C41.4063,-96.0938 43.0469,-96.8125 43.9688,-96.8125 C44.1094,-96.8125 44.2344,-96.7813 44.3281,-96.75 C44.7969,-96.6094 45.3281,-96.0469 45.7969,-95.1719 C48.1094,-90.8906 47.3594,-84.1719 46.0156,-79.7344 C44.3906,-74.3281 41.4688,-68.7188 32.6719,-59.1094 C32.5,-60.2188 32.3438,-61.2656 32.1875,-62.25 C30.9375,-70.5313 31.2656,-77.8125 33.1406,-83.8594"/>
<path class="Clef" transform="matrix(1.78583,0,0,1.78583,106.583,2290.63)" d="M63.3594,-5.92188 C62.125,-11.3438 59.4844,-15.1719 58.7031,-16.2031 C55.5156,-20.4844 51.5,-23.3281 46.8125,-24.6875 C43.7031,-25.5625 40.7031,-25.6875 38.2813,-25.5 C37.2344,-31.5156 36.2344,-37.3906 35.3281,-42.8438 C40.7813,-49.0156 44.4063,-54.8125 46.6875,-59.1094 C50.1563,-65.6875 51.2969,-70.2656 51.3594,-70.4688 C53.0781,-75.6875 53.4375,-83.3906 52.3281,-91.5938 C51.3281,-99.1406 49.2344,-105.859 46.875,-109.109 C45.8594,-110.531 44.7969,-111.266 43.7656,-111.266 C42.5469,-111.266 40.0313,-110.031 37.1406,-107.25 C34.8438,-105.063 31.5781,-101.172 29.0156,-95.1563 C26.0156,-88.0938 25.7969,-78.6094 26.1563,-71.8906 C26.5313,-64.6094 27.6406,-58.9219 27.6563,-58.875 C27.6719,-58.7813 27.9375,-57.2813 28.375,-54.7188 C28.1563,-54.4844 27.9063,-54.2656 27.6563,-54.0156 C26.625,-53.0156 25.4375,-51.8906 24.0469,-50.5 C23.1875,-49.6406 22.2344,-48.7344 21.2344,-47.7656 C12.7969,-39.625 0,-27.2969 0,-8.14063 C0,-3.4375 0.90625,0.984375 2.6875,5 C4.26563,8.59375 6.5625,11.875 9.5,14.75 C17.2344,22.3125 27.8281,25.5156 34.875,25.3594 C37.8281,25.2813 40.4688,25.0469 42.8594,24.5938 C44.6875,34.2031 45.8281,41.2344 45.8594,46.5781 C45.9063,53.0938 44.25,57.0781 40.3594,59.8438 C37.9219,61.5781 35.1094,62.5313 32.0156,62.6719 C29.4219,62.7969 27.1563,62.3281 25.7344,61.9219 L25.7188,61.9219 C25.7188,61.9219 25.4375,61.8281 25.4219,61.6406 C25.4063,61.4531 25.7656,61.4063 25.7656,61.4063 L25.7969,61.4063 C27.7188,60.9688 31.2813,59.7344 33.6406,56.4375 C35.4375,53.9063 36.3125,49.2813 34.4688,45.3438 C33.3594,42.9531 30.8594,40 25.2344,39.5469 C22.7344,39.3438 20.4688,39.8594 18.4688,41.0625 C16.6563,42.1406 15.1563,43.7813 14.1094,45.7813 C11.6563,50.4844 12.1094,56.2188 15.2344,60.0625 C18.2031,63.6875 22.8125,66 28.25,66.5781 C29.1094,66.6719 29.9531,66.7031 30.7969,66.7031 C35.2344,66.7031 39.625,65.5 43.2031,63.2969 C46.8594,60.7188 48.9844,56.7344 49.6563,51.1094 C50.2188,46.4688 49.8281,40.5469 48.4375,32.4688 C48.0781,30.375 47.5313,27.3438 46.875,23.5938 C52.625,21.6719 56.7813,18.0938 60.5469,12.2344 C63.8438,6.5 64.7813,0.390625 63.3594,-5.92188 M29.1406,20.2969 C24.5,19.0781 20.0625,16.5781 16.3125,13.0625 C15,11.8438 13.125,9.67188 11.6563,6.28125 C10.2969,3.10938 9.625,-0.328125 9.6875,-3.90625 C9.75,-8.60938 11.0625,-13.4375 13.5625,-18.2188 C16.4844,-23.7969 21.0469,-29.3281 27.1094,-34.6563 C28.5625,-35.9375 29.9375,-37.2188 31.2188,-38.5 C31.9844,-34.2344 32.8125,-29.5469 33.6875,-24.6719 C29.8438,-23.4063 25.0938,-20.25 21.9844,-14.5938 C18.4375,-8.03125 18.5781,-2.5 19.3125,0.984375 C20.25,5.4375 22.7813,9.20313 26.2344,11.2969 C27.1719,11.8594 31.2969,13.9844 33.1406,13.4063 C33.5156,13.2969 33.7813,13.0625 33.9219,12.7344 C34.4375,11.5625 33.4063,10.9219 31.8594,9.96875 C31.25,9.59375 30.5781,9.17188 29.8594,8.64063 C26.5313,6.15625 25.0781,1.70313 26.1563,-2.6875 C26.7344,-5.07813 28.0156,-7.25 29.8594,-8.95313 C31.5156,-10.5 33.5625,-11.5938 35.9375,-12.2344 C37.9844,-0.984375 40.0469,10.1719 41.6875,18.5313 C41.8125,19.2188 41.9531,19.8906 42.0781,20.5625 C37.7031,21.5 33.3594,21.4063 29.1406,20.2969 M40.4688,-12.9063 C50.8125,-13.375 55.0781,-5.9375 55.9688,-1.10938 C56.4375,1.4375 56.4375,5.875 54.8906,10.0938 C53.7188,13.2656 51.2656,17.3438 46.125,19.4063 C46.0625,18.9844 45.9844,18.5469 45.9063,18.125 C44.3594,9.34375 42.4219,-1.65625 40.4688,-12.9063 M33.1406,-83.8594 C34.9219,-89.5938 37.6563,-92.8438 39.6563,-94.5781 C41.4063,-96.0938 43.0469,-96.8125 43.9688,-96.8125 C44.1094,-96.8125 44.2344,-96.7813 44.3281,-96.75 C44.7969,-96.6094 45.3281,-96.0469 45.7969,-95.1719 C48.1094,-90.8906 47.3594,-84.1719 46.0156,-79.7344 C44.3906,-74.3281 41.4688,-68.7188 32.6719,-59.1094 C32.5,-60.2188 32.3438,-61.2656 32.1875,-62.25 C30.9375,-70.5313 31.2656,-77.8125 33.1406,-83.8594"/>
<path class="KeySig" transform="matrix(1.78583,0,0,1.78583,265.493,472.677)" d="M20.0938,-7.90625 C19.5,-11.7969 17.0938,-15.5 12,-15.5 C7,-15.5 4.09375,-12.4063 3.59375,-11.7969 L4,-43.9063 C4,-44.7031 3.40625,-45.2969 2.59375,-45.2969 L1.40625,-45.2969 C0.59375,-45.2969 0,-44.7031 0,-43.9063 L0.5,16.2031 C0.5,17 1.09375,17.5938 1.90625,17.5938 C2.09375,17.5938 2.5,17.5 2.70313,17.4063 C3.09375,17.2031 9.59375,14 15,7.90625 C18.7969,3.59375 20.2969,-1.29688 20.2969,-5.40625 C20.2969,-6.29688 20.2031,-7.09375 20.0938,-7.90625 M13.2031,-4 C13.2031,-2.5 12.7969,2.09375 10.2969,5.90625 C8.59375,8.5 5.20313,11.2031 3.29688,12.7031 L3.59375,-6.79688 C3.79688,-7.70313 5.29688,-10.5938 9.29688,-10.5938 C12.9063,-10.5938 13.2031,-7.20313 13.2031,-5.09375 L13.2031,-4 "/>
<path class="KeySig" transform="matrix(1.78583,0,0,1.78583,265.493,1063.78)" d="M20.0938,-7.90625 C19.5,-11.7969 17.0938,-15.5 12,-15.5 C7,-15.5 4.09375,-12.4063 3.59375,-11.7969 L4,-43.9063 C4,-44.7031 3.40625,-45.2969 2.59375,-45.2969 L1.40625,-45.2969 C0.59375,-45.2969 0,-44.7031 0,-43.9063 L0.5,16.2031 C0.5,17 1.09375,17.5938 1.90625,17.5938 C2.09375,17.5938 2.5,17.5 2.70313,17.4063 C3.09375,17.2031 9.59375,14 15,7.90625 C18.7969,3.59375 20.2969,-1.29688 20.2969,-5.40625 C20.2969,-6.29688 20.2031,-7.09375 20.0938,-7.90625 M13.2031,-4 C13.2031,-2.5 12.7969,2.09375 10.2969,5.90625 C8.59375,8.5 5.20313,11.2031 3.29688,12.7031 L3.59375,-6.79688 C3.79688,-7.70313 5.29688,-10.5938 9.29688,-10.5938 C12.9063,-10.5938 13.2031,-7.20313 13.2031,-5.09375 L13.2031,-4 "/>
<path class="KeySig" transform="matrix(1.78583,0,0,1.78583,265.493,1654.88)" d="M20.0938,-7.90625 C19.5,-11.7969 17.0938,-15.5 12,-15.5 C7,-15.5 4.09375,-12.4063 3.59375,-11.7969 L4,-43.9063 C4,-44.7031 3.40625,-45.2969 2.59375,-45.2969 L1.40625,-45.2969 C0.59375,-45.2969 0,-44.7031 0,-43.9063 L0.5,16.2031 C0.5,17 1.09375,17.5938 1.90625,17.5938 C2.09375,17.5938 2.5,17.5 2.70313,17.4063 C3.09375,17.2031 9.59375,14 15,7.90625 C18.7969,3.59375 20.2969,-1.29688 20.2969,-5.40625 C20.2969,-6.29688 20.2031,-7.09375 20.0938,-7.90625 M13.2031,-4 C13.2031,-2.5 12.7969,2.09375 10.2969,5.90625 C8.59375,8.5 5.20313,11.2031 3.29688,12.7031 L3.59375,-6.79688 C3.79688,-7.70313 5.29688,-10.5938 9.29688,-10.5938 C12.9063,-10.5938 13.2031,-7.20313 13.2031,-5.09375 L13.2031,-4 "/>
<path class="KeySig" transform="matrix(1.78583,0,0,1.78583,265.493,2245.99)" d="M20.0938,-7.90625 C19.5,-11.7969 17.0938,-15.5 12,-15.5 C7,-15.5 4.09375,-12.4063 3.59375,-11.7969 L4,-43.9063 C4,-44.7031 3.40625,-45.2969 2.59375,-45.2969 L1.40625,-45.2969 C0.59375,-45.2969 0,-44.7031 0,-43.9063 L0.5,16.2031 C0.5,17 1.09375,17.5938 1.90625,17.5938 C2.09375,17.5938 2.5,17.5 2.70313,17.4063 C3.09375,17.2031 9.59375,14 15,7.90625 C18.7969,3.59375 20.2969,-1.29688 20.2969,-5.40625 C20.2969,-6.29688 20.2031,-7.09375 20.0938,-7.90625 M13.2031,-4 C13.2031,-2.5 12.7969,2.09375 10.2969,5.90625 C8.59375,8.5 5.20313,11.2031 3.29688,12.7031 L3.59375,-6.79688 C3.79688,-7.70313 5.29688,-10.5938 9.29688,-10.5938 C12.9063,-10.5938 13.2031,-7.20313 13.2031,-5.09375 L13.2031,-4 "/>
<path class="TimeSig" transform="matrix(1.78583,0,0,1.78583,349.818,428.924)" d="M34.2031,3.90625 C33.4063,6.09375 31.4063,13.2969 26.5,13.2969 C20,13.2969 18.5938,9.29688 13.2031,9.29688 C12.4063,9.29688 11.5938,9.40625 10.5938,9.59375 C10.5938,9.59375 13.0938,5.79688 23.7031,2.5 C34.2969,-0.796875 37,-6 37,-12 C37,-16.2031 35.1094,-24.5 20,-24.5 C4.90625,-24.5 2.09375,-15.4063 2.09375,-10.7969 C2.09375,-6.70313 5.5,-3.40625 9.59375,-3.40625 C13.7031,-3.40625 17,-6.70313 17,-10.7969 C17,-13.5938 15,-16.7031 12.4063,-17.7031 C12.0938,-17.7969 11.7031,-18.2969 11.7031,-18.7969 C11.7031,-19.4063 12.2031,-20.0938 14,-20.5938 C14.5,-20.7969 15.9063,-21.0938 17.4063,-21.0938 C18.7969,-21.0938 20.4063,-20.7969 21.5938,-20 C23.5,-18.7969 24.2031,-17 24.2031,-12.5 C24.2031,-0.796875 10.2969,1.70313 4.5,10.4063 C4.5,10.4063 1.5,14.5938 1.5,19.2969 C1.5,24 3.90625,24.2969 5.09375,24.2969 C6.70313,24.2969 8.40625,23 8.40625,21.2031 C8.40625,20.7969 8.29688,20.4063 8.09375,19.9063 C7.5,18.5 7.29688,17.4063 7.29688,16.5938 C7.29688,16.2969 7.29688,16 7.40625,15.7031 C7.5,15.0938 8.29688,14.0938 10.7031,14.0938 C13.5938,14.0938 14.7031,17.5 16.5,20.0938 C18.2969,22.7031 21.0938,24.2969 24.2969,24.2969 C27.5,24.2969 31.7969,22 33.6094,18.2969 C35.4063,14.5938 37.7031,7.09375 37.7031,4.40625 C37.7031,3.09375 36.9063,2.5 36,2.5 C35.2969,2.5 34.6094,2.90625 34.2031,3.90625"/>
<path class="TimeSig" transform="matrix(1.78583,0,0,1.78583,343.93,517.086)" d="M3.59375,12.625 L20.7656,12.625 L20.7656,20.0781 L12.5469,20.0781 C11.7656,20.0781 11.125,20.7031 11.125,21.4844 L11.125,23.3906 C11.125,24.1719 11.7656,24.7969 12.5469,24.7969 L42.7969,24.7969 C43.5781,24.7969 44.2031,24.1719 44.2031,23.3906 L44.2031,21.4844 C44.2031,20.7031 43.5781,20.0781 42.7969,20.0781 L33.8594,20.0781 L33.8594,12.625 L42.7969,12.625 C43.5781,12.625 44.2031,12 44.2031,11.2188 L44.2031,9.3125 C44.2031,8.53125 43.5781,7.90625 42.7969,7.90625 L33.8594,7.90625 L33.8594,-8.0625 C33.8594,-8.59375 33.5469,-9.07813 33.0781,-9.3125 L31.8594,-9.92188 C31.3281,-10.1719 30.7031,-10.0781 30.2656,-9.6875 L21.2188,-1.375 C20.9375,-1.09375 20.7656,-0.734375 20.7656,-0.328125 L20.7656,7.90625 L9.25,7.90625 C9.25,7.90625 20.375,-4.125 32.2188,-19.8906 C33.0781,-21.0469 32.5781,-22.0938 32.3906,-22.2813 L30.2188,-24.4844 C29.9531,-24.75 29.5938,-24.9063 29.2188,-24.9063 C28.625,-24.9063 15.0625,-24.875 14.3438,-24.9063 C13.625,-24.9219 13.0938,-24.2969 13.0156,-23.6875 C13.0156,-23.6875 12.4844,-16.3281 9.875,-8.1875 C7.28125,-0.078125 4.34375,4.90625 1.6875,8.53125 C1.6875,8.53125 1.14063,9.51563 1.5,10.2656 C1.84375,11.0156 2.48438,12.0938 2.48438,12.0938 C2.48438,12.0938 2.73438,12.625 3.59375,12.625"/>
<path class="Rest" transform="matrix(1.78583,0,0,1.78583,512.147,472.677)" d="M26.7344,-20.2656 C25.9844,-20.5469 25.3125,-20.2031 24.9844,-19.5938 C24.6563,-18.9844 21.4688,-13.0625 17.0469,-9.79688 C15.6563,-8.78125 14.0625,-8.14063 12.5,-7.8125 C13.625,-9.0625 14.2969,-10.7344 14.2969,-12.5469 C14.2969,-16.5 11.0938,-19.7031 7.15625,-19.7031 C3.20313,-19.7031 0,-16.5 0,-12.5469 C0,-9.54688 1.875,-6.95313 4.51563,-5.90625 C6.04688,-5.1875 7.95313,-4.73438 10,-4.73438 C12.8438,-4.73438 15.9531,-5.5625 18.6719,-7.5625 C19.9375,-8.48438 21.125,-9.6875 22.2031,-10.9375 L10.8125,24.6875 L13.4531,25.5469 L27.5313,-18.5469 C27.7656,-19.2813 27.4688,-19.9688 26.7344,-20.2656"/>
<path class="Rest" transform="matrix(1.78583,0,0,1.78583,1588.83,472.677)" d="M26.7344,-20.2656 C25.9844,-20.5469 25.3125,-20.2031 24.9844,-19.5938 C24.6563,-18.9844 21.4688,-13.0625 17.0469,-9.79688 C15.6563,-8.78125 14.0625,-8.14063 12.5,-7.8125 C13.625,-9.0625 14.2969,-10.7344 14.2969,-12.5469 C14.2969,-16.5 11.0938,-19.7031 7.15625,-19.7031 C3.20313,-19.7031 0,-16.5 0,-12.5469 C0,-9.54688 1.875,-6.95313 4.51563,-5.90625 C6.04688,-5.1875 7.95313,-4.73438 10,-4.73438 C12.8438,-4.73438 15.9531,-5.5625 18.6719,-7.5625 C19.9375,-8.48438 21.125,-9.6875 22.2031,-10.9375 L10.8125,24.6875 L13.4531,25.5469 L27.5313,-18.5469 C27.7656,-19.2813 27.4688,-19.9688 26.7344,-20.2656"/>
<path class="Rest" transform="matrix(1.78583,0,0,1.78583,2665.52,472.677)" d="M26.7344,-20.2656 C25.9844,-20.5469 25.3125,-20.2031 24.9844,-19.5938 C24.6563,-18.9844 21.4688,-13.0625 17.0469,-9.79688 C15.6563,-8.78125 14.0625,-8.14063 12.5,-7.8125 C13.625,-9.0625 14.2969,-10.7344 14.2969,-12.5469 C14.2969,-16.5 11.0938,-19.7031 7.15625,-19.7031 C3.20313,-19.7031 0,-16.5 0,-12.5469 C0,-9.54688 1.875,-6.95313 4.51563,-5.90625 C6.04688,-5.1875 7.95313,-4.73438 10,-4.73438 C12.8438,-4.73438 15.9531,-5.5625 18.6719,-7.5625 C19.9375,-8.48438 21.125,-9.6875 22.2031,-10.9375 L10.8125,24.6875 L13.4531,25.5469 L27.5313,-18.5469 C27.7656,-19.2813 27.4688,-19.9688 26.7344,-20.2656"/>
<path class="Rest" transform="matrix(1.78583,0,0,1.78583,2265.68,1063.78)" d="M0,-11.7969 L0,-1 C0,0.40625 0,0.40625 1.40625,0.40625 L31.1094,0.40625 C32.5,0.40625 32.5,0.40625 32.5,-1 L32.5,-11.7969 C32.5,-13.2031 32.5,-13.2031 31.1094,-13.2031 L1.40625,-13.2031 C0,-13.2031 0,-13.2031 0,-11.7969"/>
<path class="Beam" fill-rule="evenodd" d="M840.685,550.781 L1009.87,562.276 L1009.87,584.651 L840.685,573.156 L840.685,550.781 "/>
<path class="Beam" fill-rule="evenodd" d="M1917.37,550.781 L2086.55,562.276 L2086.55,584.651 L1917.37,573.156 L1917.37,550.781 "/>
<path class="Beam" fill-rule="evenodd" d="M3039.09,450.354 L3255.33,450.354 L3255.33,472.677 L3039.09,472.677 L3039.09,450.354 "/>
<path class="Beam" fill-rule="evenodd" d="M3827.4,472.648 L3986.32,461.13 L3986.32,483.512 L3827.4,495.029 L3827.4,472.648 "/>
<path class="Beam" fill-rule="evenodd" d="M484.787,1041.46 L692.821,1041.46 L692.821,1063.78 L484.787,1063.78 L484.787,1041.46 "/>
<path class="Beam" fill-rule="evenodd" d="M891.033,1052.6 L1099.07,1064.03 L1099.07,1086.39 L891.033,1074.96 L891.033,1052.6 "/>
<path class="Beam" fill-rule="evenodd" d="M3280.45,1041.44 L3497.64,1052.86 L3497.64,1075.22 L3280.45,1063.8 L3280.45,1041.44 "/>
<path class="Beam" fill-rule="evenodd" d="M3705.01,1086.09 L3922.2,1097.51 L3922.2,1119.86 L3705.01,1108.44 L3705.01,1086.09 "/>
<path class="Beam" fill-rule="evenodd" d="M484.787,1643.7 L652.449,1655.2 L652.449,1677.57 L484.787,1666.07 L484.787,1643.7 "/>
<path class="Beam" fill-rule="evenodd" d="M810.29,1677.19 L1018.14,1688.62 L1018.14,1710.98 L810.29,1699.55 L810.29,1677.19 "/>
<path class="Beam" fill-rule="evenodd" d="M2049,1643.69 L2208.96,1655.21 L2208.96,1677.59 L2049,1666.07 L2049,1643.69 "/>
<path class="Beam" fill-rule="evenodd" d="M2359.09,1688.34 L2519.05,1699.85 L2519.05,1722.24 L2359.09,1710.72 L2359.09,1688.34 "/>
<path class="Beam" fill-rule="evenodd" d="M2806.69,1677.18 L2962.35,1688.7 L2962.35,1711.09 L2806.69,1699.56 L2806.69,1677.18 "/>
<path class="Beam" fill-rule="evenodd" d="M3108.19,1688.34 L3263.85,1699.86 L3263.85,1722.25 L3108.19,1710.72 L3108.19,1688.34 "/>
<path class="Beam" fill-rule="evenodd" d="M484.787,2268.29 L655.603,2279.78 L655.603,2302.15 L484.787,2290.66 L484.787,2268.29 "/>
<path class="Beam" fill-rule="evenodd" d="M816.596,2312.93 L987.412,2324.42 L987.412,2346.8 L816.596,2335.3 L816.596,2312.93 "/>
<path class="Beam" fill-rule="evenodd" d="M1285.91,2268.29 L1493.77,2279.73 L1493.77,2302.08 L1285.91,2290.65 L1285.91,2268.29 "/>
<path class="Beam" fill-rule="evenodd" d="M1671.82,2245.97 L1859.68,2234.51 L1859.68,2256.87 L1671.82,2268.33 L1671.82,2245.97 "/>
<path class="Beam" fill-rule="evenodd" d="M3064.8,2234.8 L3239.92,2246.29 L3239.92,2268.66 L3064.8,2257.17 L3064.8,2234.8 "/>
<path class="Beam" fill-rule="evenodd" d="M3405.21,2279.45 L3580.32,2290.93 L3580.32,2313.3 L3405.21,2301.82 L3405.21,2279.45 "/>
<path class="Hook" transform="matrix(1.78583,0,0,1.78583,676.416,606.614)" d="M2.5,0.40625 C2.5,0.203125 3.40625,-3.20313 3.5,-3.5 C3.59375,-3.90625 5.40625,-9.59375 9.09375,-15.2969 C11.7969,-19.5 21.2969,-31.7969 21,-31.7969 C21,-31.7969 28.4063,-41.2969 28.9063,-54.2031 L28.9063,-56.5 C28.9063,-62.6094 28.1094,-71.2031 24.5938,-79.9063 C24.2031,-80.9063 23.7969,-81.9063 22.7031,-81.5 C21.5938,-81.1094 21.9063,-79.9063 22.2031,-78.8125 C24,-71.7969 25,-64.6094 25,-57.4063 C25,-49 22,-44.7969 20.2031,-41.7031 C13.5938,-30.6094 5,-25.2031 0.796875,-23.7969 C0.296875,-23.5938 0,-23.2031 0,-22.7031 L0,-16.5 L0,-0.09375 C0,0.59375 0.59375,1.20313 1.29688,1.20313 C1.79688,1.20313 2.40625,0.796875 2.5,0.40625"/>
<path class="Hook" transform="matrix(1.78583,0,0,1.78583,1753.1,606.614)" d="M2.5,0.40625 C2.5,0.203125 3.40625,-3.20313 3.5,-3.5 C3.59375,-3.90625 5.40625,-9.59375 9.09375,-15.2969 C11.7969,-19.5 21.2969,-31.7969 21,-31.7969 C21,-31.7969 28.4063,-41.2969 28.9063,-54.2031 L28.9063,-56.5 C28.9063,-62.6094 28.1094,-71.2031 24.5938,-79.9063 C24.2031,-80.9063 23.7969,-81.9063 22.7031,-81.5 C21.5938,-81.1094 21.9063,-79.9063 22.2031,-78.8125 C24,-71.7969 25,-64.6094 25,-57.4063 C25,-49 22,-44.7969 20.2031,-41.7031 C13.5938,-30.6094 5,-25.2031 0.796875,-23.7969 C0.296875,-23.5938 0,-23.2031 0,-22.7031 L0,-16.5 L0,-0.09375 C0,0.59375 0.59375,1.20313 1.29688,1.20313 C1.79688,1.20313 2.40625,0.796875 2.5,0.40625"/>
<path class="Hook" transform="matrix(1.78583,0,0,1.78583,2852.31,495)" d="M2.5,0.40625 C2.5,0.203125 3.40625,-3.20313 3.5,-3.5 C3.59375,-3.90625 5.40625,-9.59375 9.09375,-15.2969 C11.7969,-19.5 21.2969,-31.7969 21,-31.7969 C21,-31.7969 28.4063,-41.2969 28.9063,-54.2031 L28.9063,-56.5 C28.9063,-62.6094 28.1094,-71.2031 24.5938,-79.9063 C24.2031,-80.9063 23.7969,-81.9063 22.7031,-81.5 C21.5938,-81.1094 21.9063,-79.9063 22.2031,-78.8125 C24,-71.7969 25,-64.6094 25,-57.4063 C25,-49 22,-44.7969 20.2031,-41.7031 C13.5938,-30.6094 5,-25.2031 0.796875,-23.7969 C0.296875,-23.5938 0,-23.2031 0,-22.7031 L0,-16.5 L0,-0.09375 C0,0.59375 0.59375,1.20313 1.29688,1.20313 C1.79688,1.20313 2.40625,0.796875 2.5,0.40625"/>
<path class="RehearsalMark" fill="none" stroke="#000000" stroke-width="7.14" stroke-linecap="square" stroke-linejoin="miter" stroke-miterlimit="2" fill-rule="evenodd" d="M344.005,130.554 L496.794,130.554 L496.794,275.343 L344.005,275.343 L344.005,130.554 "/>
<path class="RehearsalMark" d="M416.775,157.324 L388.4,223.574 C382.65,237.074 378.025,241.949 370.65,242.699 L370.65,249.449 L406.775,249.449 L406.775,242.699 C397.9,242.199 394.4,239.824 394.4,234.074 C394.4,231.949 394.9,229.949 396.275,226.949 L398.275,222.199 L429.4,222.199 L434.15,234.449 C435.525,237.949 435.65,238.574 435.65,239.574 C435.65,241.824 433.9,242.574 428.4,242.574 L426.275,242.699 L426.275,249.449 L470.15,249.449 L470.15,242.699 C463.025,242.449 461.025,241.199 458.4,234.824 L426.275,157.324 L416.775,157.324 M414.15,183.949 L426.275,213.824 L401.525,213.824 L414.15,183.949 "/>
<path class="RehearsalMark" fill="none" stroke="#000000" stroke-width="7.14" stroke-linecap="square" stroke-linejoin="miter" stroke-miterlimit="2" fill-rule="evenodd" d="M2254.52,740.231 L2397.31,740.231 L2397.31,883.02 L2254.52,883.02 L2254.52,740.231 "/>
<path class="RehearsalMark" d="M2281.04,766.876 L2281.04,773.626 L2282.92,773.626 C2289.67,773.626 2292.04,774.126 2293.17,775.376 C2294.04,776.751 2294.04,777.126 2294.04,784.876 L2294.04,839.126 C2294.04,846.876 2294.04,847.251 2293.17,848.501 C2292.04,849.876 2289.54,850.376 2282.92,850.376 L2281.04,850.376 L2281.04,857.126 L2331.67,857.126 C2344.67,857.126 2351.29,856.126 2357.79,853.251 C2365.67,849.751 2370.92,841.876 2370.92,833.376 C2370.92,824.626 2365.92,817.751 2356.67,813.501 C2352.42,811.501 2348.79,810.501 2342.17,809.626 C2348.29,808.626 2351.79,807.751 2355.29,806.126 C2362.79,802.501 2366.79,796.501 2366.79,789.001 C2366.79,781.876 2363.04,775.251 2356.92,771.876 C2350.04,768.001 2344.04,766.876 2329.29,766.876 L2281.04,766.876 M2316.54,807.376 L2316.54,780.876 C2316.29,775.626 2318.04,773.876 2323.54,773.626 L2327.29,773.626 C2338.29,773.626 2344.17,779.126 2344.17,789.501 C2344.17,795.626 2342.04,800.501 2338.04,803.626 C2334.67,806.376 2330.42,807.376 2322.67,807.376 L2316.54,807.376 M2316.54,814.251 L2325.17,814.251 C2333.04,814.251 2336.67,815.001 2340.17,817.251 C2344.54,820.126 2347.04,825.626 2347.04,832.126 C2347.04,838.126 2344.79,843.626 2341.17,846.626 C2338.04,849.126 2333.92,850.376 2327.92,850.376 L2324.17,850.376 C2317.04,850.126 2316.29,849.376 2316.54,842.376 L2316.54,814.251 "/>
<path class="VoltaSegment" d="M1360.46,855.542 L1357.04,855.542 C1350.85,860.152 1343.9,862.105 1332.24,862.308 L1332.24,867.792 L1336.35,867.792 C1345.07,867.792 1345.18,867.995 1345.07,876.027 L1345.07,910.823 C1345.07,916.902 1345.07,917.183 1344.38,918.167 C1343.51,919.245 1341.54,919.636 1336.26,919.636 L1333.12,919.636 L1333.12,924.933 L1372.23,924.933 L1372.23,919.636 L1369.09,919.636 C1363.9,919.636 1362.02,919.245 1361.15,918.167 C1360.46,917.183 1360.46,916.792 1360.46,910.823 L1360.46,855.542 M1393.98,907.98 C1388.88,907.98 1384.76,912.089 1384.76,917.183 C1384.76,922.183 1388.88,926.402 1393.88,926.402 C1399.07,926.402 1403.18,922.292 1403.18,917.183 C1403.18,912.089 1399.07,907.98 1393.98,907.98"/>
<polyline class="VoltaSegment" fill="none" stroke="#000000" stroke-width="4.91" stroke-linecap="square" stroke-linejoin="bevel" points="1305.31,924.933 1305.31,826.712"/>
<polyline class="VoltaSegment" fill="none" stroke="#000000" stroke-width="4.91" stroke-linecap="square" stroke-linejoin="bevel" points="1305.31,826.712 1774.12,826.712"/>
<polyline class="VoltaSegment" fill="none" stroke="#000000" stroke-width="4.91" stroke-linecap="square" stroke-linejoin="bevel" points="1774.12,826.712 1774.12,924.933"/>
<path class="VoltaSegment" d="M1872.8,898.87 L1871.72,903.761 C1870.85,907.683 1870.25,908.964 1869.47,909.448 C1868.49,910.136 1868.28,910.136 1862.11,910.23 L1843.21,910.23 C1846.63,907.292 1849.17,905.433 1853,902.886 C1866.82,893.964 1869.66,891.808 1872.5,888.183 C1875.83,883.777 1877.8,878.573 1877.8,873.964 C1877.8,863.48 1867.5,855.542 1853.69,855.542 C1840.36,855.542 1830.07,864.167 1830.07,875.339 C1830.07,882.198 1833.89,886.605 1839.77,886.605 C1844.86,886.605 1848.1,883.37 1848.1,878.277 C1848.1,874.073 1846.24,871.62 1841.74,869.464 C1840.66,868.964 1840.16,868.386 1840.16,867.605 C1840.16,864.464 1845.46,861.136 1850.36,861.136 C1857.22,861.136 1861.14,865.339 1861.14,872.605 C1861.14,880.73 1858,886.511 1847.61,897.589 C1836.63,909.245 1832.82,913.667 1827.91,920.714 L1827.91,925.323 C1830.46,925.027 1831.53,924.933 1833,924.933 L1869.86,924.933 C1871.72,924.933 1872.89,925.027 1875.83,925.323 L1878.1,898.87 L1872.8,898.87 M1895.92,907.98 C1890.83,907.98 1886.71,912.089 1886.71,917.183 C1886.71,922.183 1890.83,926.402 1895.83,926.402 C1901.02,926.402 1905.13,922.292 1905.13,917.183 C1905.13,912.089 1901.02,907.98 1895.92,907.98"/>
<polyline class="VoltaSegment" fill="none" stroke="#000000" stroke-width="4.91" stroke-linecap="square" stroke-linejoin="bevel" points="1800.26,924.933 1800.26,826.712"/>
<polyline class="VoltaSegment" fill="none" stroke="#000000" stroke-width="4.91" stroke-linecap="square" stroke-linejoin="bevel" points="1800.26,826.712 2203.62,826.712"/>
</svg>
