<?xml version="1.0" encoding="UTF-8" standalone="no"?>
<svg width="4208.47px" height="2409.45px" viewBox="0 0 4208.47 2409.45"
 xmlns="http://www.w3.org/2000/svg" xmlns:xlink="http://www.w3.org/1999/xlink" version="1.2" baseProfile="tiny">
<title>PETE</title>
<desc>Generated by MuseScore 3.6.2</desc>
<polyline class="StaffLines" fill="none" stroke="#000000" stroke-width="5.85" stroke-linejoin="bevel" points="70.866,501.686 4137.61,501.686"/>
<polyline class="StaffLines" fill="none" stroke="#000000" stroke-width="5.85" stroke-linejoin="bevel" points="70.866,554.835 4137.61,554.835"/>
<polyline class="StaffLines" fill="none" stroke="#000000" stroke-width="5.85" stroke-linejoin="bevel" points="70.866,607.985 4137.61,607.985"/>
<polyline class="StaffLines" fill="none" stroke="#000000" stroke-width="5.85" stroke-linejoin="bevel" points="70.866,661.134 4137.61,661.134"/>
<polyline class="StaffLines" fill="none" stroke="#000000" stroke-width="5.85" stroke-linejoin="bevel" points="70.866,714.284 4137.61,714.284"/>
<polyline class="StaffLines" fill="none" stroke="#000000" stroke-width="5.85" stroke-linejoin="bevel" points="70.866,1294.66 4137.61,1294.66"/>
<polyline class="StaffLines" fill="none" stroke="#000000" stroke-width="5.85" stroke-linejoin="bevel" points="70.866,1347.81 4137.61,1347.81"/>
<polyline class="StaffLines" fill="none" stroke="#000000" stroke-width="5.85" stroke-linejoin="bevel" points="70.866,1400.96 4137.61,1400.96"/>
<polyline class="StaffLines" fill="none" stroke="#000000" stroke-width="5.85" stroke-linejoin="bevel" points="70.866,1454.1 4137.61,1454.1"/>
<polyline class="StaffLines" fill="none" stroke="#000000" stroke-width="5.85" stroke-linejoin="bevel" points="70.866,1507.25 4137.61,1507.25"/>
<polyline class="StaffLines" fill="none" stroke="#000000" stroke-width="5.85" stroke-linejoin="bevel" points="70.866,2087.63 4137.61,2087.63"/>
<polyline class="StaffLines" fill="none" stroke="#000000" stroke-width="5.85" stroke-linejoin="bevel" points="70.866,2140.78 4137.61,2140.78"/>
<polyline class="StaffLines" fill="none" stroke="#000000" stroke-width="5.85" stroke-linejoin="bevel" points="70.866,2193.93 4137.61,2193.93"/>
<polyline class="StaffLines" fill="none" stroke="#000000" stroke-width="5.85" stroke-linejoin="bevel" points="70.866,2247.08 4137.61,2247.08"/>
<polyline class="StaffLines" fill="none" stroke="#000000" stroke-width="5.85" stroke-linejoin="bevel" points="70.866,2300.22 4137.61,2300.22"/>
<path class="MeasureNumber" d="M84.5441,1173.8 C86.4241,1173.2 87.1841,1172.88 88.1441,1172.24 C90.0241,1171 91.1841,1168.8 91.1841,1166.56 C91.1841,1162.76 88.1441,1160.2 83.6641,1160.2 C79.3041,1160.2 75.6241,1162.92 75.6241,1166.2 C75.6241,1167.84 76.6241,1168.96 78.1441,1168.96 C79.4641,1168.96 80.4241,1168 80.4241,1166.68 C80.4241,1166 80.2241,1165.52 79.5841,1164.88 C79.1841,1164.52 79.0241,1164.24 79.0241,1163.96 C79.0241,1163 81.0241,1162 82.9041,1162 C85.5841,1162 87.1841,1163.48 87.1841,1165.96 C87.1841,1169.52 84.6641,1172.88 81.9841,1172.88 C81.8641,1172.88 81.5041,1172.84 81.0641,1172.8 C79.9041,1172.72 79.9041,1172.72 79.6641,1172.72 C78.7841,1172.72 78.3041,1173.12 78.3041,1173.84 C78.3041,1174.48 78.7441,1174.88 79.4641,1174.88 C79.6641,1174.88 79.9441,1174.84 80.2641,1174.8 C80.8241,1174.68 81.4241,1174.64 81.7841,1174.64 C83.6641,1174.64 84.9441,1176.32 84.9441,1178.8 C84.9441,1180.72 84.5041,1182.56 83.6241,1184.08 C82.4241,1186.24 80.5841,1187.28 77.9841,1187.28 C75.7441,1187.28 73.8241,1186.16 73.8241,1184.88 C73.8241,1184.44 73.9841,1184.28 74.6241,1184 C75.7841,1183.48 76.2641,1182.76 76.2641,1181.68 C76.2641,1180.28 75.1441,1179.2 73.7041,1179.2 C71.9841,1179.2 70.8641,1180.56 70.8641,1182.64 C70.8641,1186.52 73.8241,1188.96 78.6241,1188.96 C84.6641,1188.96 89.2641,1184.92 89.2641,1179.56 C89.2641,1178.12 88.8241,1176.88 87.9841,1175.88 C87.1041,1174.84 86.3041,1174.36 84.5441,1173.8"/>
<path class="MeasureNumber" d="M75.1898,1966.01 C73.9497,1966.77 73.5897,1967.25 73.5897,1968.05 C73.5897,1968.81 74.2297,1969.37 75.0298,1969.37 C76.0697,1969.37 76.6697,1968.61 76.7897,1967.13 C78.0298,1966.13 79.3498,1965.69 80.9497,1965.69 C83.9098,1965.69 85.5498,1967.53 85.5498,1970.85 C85.5498,1976.05 82.1898,1980.29 78.0697,1980.29 C75.7097,1980.29 73.7897,1979.17 73.7897,1977.85 C73.7897,1977.61 73.8298,1977.53 74.0298,1977.41 C75.0697,1976.93 75.0697,1976.93 75.3498,1976.73 C75.9898,1976.25 76.3498,1975.53 76.3498,1974.69 C76.3498,1973.41 75.3498,1972.45 73.9497,1972.45 C72.1898,1972.45 70.8697,1973.93 70.8697,1975.85 C70.8697,1979.37 73.9098,1981.93 78.1898,1981.93 C84.6697,1981.93 89.9098,1976.77 89.9098,1970.37 C89.9098,1966.33 86.8298,1963.49 82.4698,1963.49 C80.7498,1963.49 79.3498,1963.85 77.4297,1964.81 L79.6697,1957.25 C81.7897,1957.69 83.4698,1957.89 84.9098,1957.89 C87.5498,1957.89 89.9098,1957.05 91.2297,1955.65 C91.9098,1954.85 92.3098,1954.17 92.3098,1953.65 C92.3098,1953.41 92.1898,1953.17 92.0298,1953.17 C91.9098,1953.17 91.8298,1953.21 91.5897,1953.33 C90.2698,1953.97 88.5897,1954.33 87.0298,1954.33 C84.6298,1954.33 81.7897,1953.93 78.8298,1953.17 L75.1898,1966.01 "/>
<path class="TieSegment" stroke="#000000" stroke-width="3.72" stroke-linecap="round" stroke-linejoin="round" fill-rule="evenodd" d="M4024.14,1334.52 C4046.83,1305.82 4114.91,1305.82 4137.61,1334.52 C4114.91,1320.7 4046.83,1320.7 4024.14,1334.52"/>
<path class="TieSegment" stroke="#000000" stroke-width="3.72" stroke-linecap="round" stroke-linejoin="round" fill-rule="evenodd" d="M460.735,2127.49 C504.901,2086.48 637.4,2086.48 681.566,2127.49 C637.4,2101.36 504.901,2101.36 460.735,2127.49"/>
<polyline class="BarLine" stroke="#000000" stroke-width="29.23" stroke-linejoin="bevel" points="2001.27,498.762 2001.27,717.207"/>
<polyline class="BarLine" stroke="#000000" stroke-width="9.57" stroke-linejoin="bevel" points="2038.47,498.762 2038.47,717.207"/>
<path class="BarLine" transform="matrix(2.12598,0,0,2.12598,2064.61,581.41)" d="M10.4,0 C10.4,-2.9 8.1,-5.3 5.2,-5.3 C2.3,-5.3 0,-2.9 0,0 C0,2.9 2.3,5.3 5.2,5.3 C8.1,5.3 10.4,2.9 10.4,0"/>
<path class="BarLine" transform="matrix(2.12598,0,0,2.12598,2064.61,634.56)" d="M10.4,0 C10.4,-2.9 8.1,-5.3 5.2,-5.3 C2.3,-5.3 0,-2.9 0,0 C0,2.9 2.3,5.3 5.2,5.3 C8.1,5.3 10.4,2.9 10.4,0"/>
<polyline class="BarLine" stroke="#000000" stroke-width="9.57" stroke-linejoin="bevel" points="4132.82,498.762 4132.82,717.207"/>
<polyline class="BarLine" stroke="#000000" stroke-width="9.57" stroke-linejoin="bevel" points="2399.06,1291.73 2399.06,1510.18"/>
<polyline class="BarLine" stroke="#000000" stroke-width="9.57" stroke-linejoin="bevel" points="4132.82,1291.73 4132.82,1510.18"/>
<path class="BarLine" transform="matrix(2.12598,0,0,2.12598,2583.02,2167.35)" d="M10.4,0 C10.4,-2.9 8.1,-5.3 5.2,-5.3 C2.3,-5.3 0,-2.9 0,0 C0,2.9 2.3,5.3 5.2,5.3 C8.1,5.3 10.4,2.9 10.4,0"/>
<path class="BarLine" transform="matrix(2.12598,0,0,2.12598,2583.02,2220.5)" d="M10.4,0 C10.4,-2.9 8.1,-5.3 5.2,-5.3 C2.3,-5.3 0,-2.9 0,0 C0,2.9 2.3,5.3 5.2,5.3 C8.1,5.3 10.4,2.9 10.4,0"/>
<polyline class="BarLine" stroke="#000000" stroke-width="9.57" stroke-linejoin="bevel" points="2631.28,2084.7 2631.28,2303.15"/>
<polyline class="BarLine" stroke="#000000" stroke-width="29.23" stroke-linejoin="bevel" points="2668.48,2084.7 2668.48,2303.15"/>
<polyline class="BarLine" stroke="#000000" stroke-width="9.57" stroke-linejoin="bevel" points="4085.79,2084.7 4085.79,2303.15"/>
<polyline class="BarLine" stroke="#000000" stroke-width="29.23" stroke-linejoin="bevel" points="4122.99,2084.7 4122.99,2303.15"/>
<polyline class="Stem" stroke="#000000" stroke-width="5.85" stroke-linejoin="bevel" points="1346.71,641.703 1346.71,820.583"/>
<polyline class="Stem" stroke="#000000" stroke-width="5.85" stroke-linejoin="bevel" points="1561,615.128 1561,767.434"/>
<polyline class="Stem" stroke="#000000" stroke-width="5.85" stroke-linejoin="bevel" points="1775.29,588.553 1775.29,754.146"/>
<polyline class="Stem" stroke="#000000" stroke-width="5.85" stroke-linejoin="bevel" points="2269.82,561.978 2269.82,740.859"/>
<polyline class="Stem" stroke="#000000" stroke-width="5.85" stroke-linejoin="bevel" points="2679.03,561.978 2679.03,740.859"/>
<polyline class="Stem" stroke="#000000" stroke-width="5.85" stroke-linejoin="bevel" points="3088.23,615.128 3088.23,794.008"/>
<polyline class="Stem" stroke="#000000" stroke-width="5.85" stroke-linejoin="bevel" points="3505.32,615.128 3505.32,794.008"/>
<polyline class="Stem" stroke="#000000" stroke-width="5.85" stroke-linejoin="bevel" points="3922.42,588.553 3922.42,767.434"/>
<polyline class="Stem" stroke="#000000" stroke-width="5.85" stroke-linejoin="bevel" points="775.11,1434.67 775.11,1613.55"/>
<polyline class="Stem" stroke="#000000" stroke-width="5.85" stroke-linejoin="bevel" points="1006.84,1408.1 1006.84,1560.4"/>
<polyline class="Stem" stroke="#000000" stroke-width="5.85" stroke-linejoin="bevel" points="1238.56,1434.67 1238.56,1573.69"/>
<polyline class="Stem" stroke="#000000" stroke-width="5.85" stroke-linejoin="bevel" points="1470.29,1408.1 1470.29,1600.27"/>
<polyline class="Stem" stroke="#000000" stroke-width="5.85" stroke-linejoin="bevel" points="1702.02,1434.67 1702.02,1600.27"/>
<polyline class="Stem" stroke="#000000" stroke-width="5.85" stroke-linejoin="bevel" points="1933.75,1408.1 1933.75,1600.27"/>
<polyline class="Stem" stroke="#000000" stroke-width="5.85" stroke-linejoin="bevel" points="2165.47,1381.52 2165.47,1600.27"/>
<polyline class="Stem" stroke="#000000" stroke-width="5.85" stroke-linejoin="bevel" points="2592.79,1354.95 2592.79,1533.83"/>
<polyline class="Stem" stroke="#000000" stroke-width="5.85" stroke-linejoin="bevel" points="2942.14,1354.95 2942.14,1533.83"/>
<polyline class="Stem" stroke="#000000" stroke-width="5.85" stroke-linejoin="bevel" points="3291.5,1408.1 3291.5,1586.98"/>
<polyline class="Stem" stroke="#000000" stroke-width="5.85" stroke-linejoin="bevel" points="3636.83,1408.1 3636.83,1586.98"/>
<polyline class="Stem" stroke="#000000" stroke-width="5.85" stroke-linejoin="bevel" points="3982.16,1381.52 3982.16,1560.4"/>
<polyline class="Stem" stroke="#000000" stroke-width="5.85" stroke-linejoin="bevel" points="660.312,2174.49 660.312,2353.37"/>
<polyline class="Stem" stroke="#000000" stroke-width="5.85" stroke-linejoin="bevel" points="1825.82,2227.64 1825.82,2406.52"/>
<polyline class="Stem" stroke="#000000" stroke-width="5.85" stroke-linejoin="bevel" points="2079.2,2201.07 2079.2,2353.37"/>
<polyline class="Stem" stroke="#000000" stroke-width="5.85" stroke-linejoin="bevel" points="2332.57,2174.49 2332.57,2340.09"/>
<polyline class="Stem" stroke="#000000" stroke-width="5.85" stroke-linejoin="bevel" points="2866.19,2174.49 2866.19,2353.37"/>
<path class="Note" transform="matrix(2.12598,0,0,2.12598,1343.79,634.56)" d="M31.5,-8.1 C29.7,-11.4 25.9,-13.2 21.3,-13.2 C17.9,-13.2 14.2,-12.2 10.6,-10.3 C4,-6.8 0,-0.9 0,4.2 C0,5.6 0.3,7 1,8.3 C2.8,11.6 6.6,13.3 11.2,13.3 C14.6,13.3 18.3,12.4 21.9,10.5 C28.5,7 32.5,1.1 32.5,-4 C32.5,-5.4 32.2,-6.8 31.5,-8.1"/>
<path class="Note" transform="matrix(2.12598,0,0,2.12598,1558.08,607.985)" d="M31.5,-8.1 C29.7,-11.4 25.9,-13.2 21.3,-13.2 C17.9,-13.2 14.2,-12.2 10.6,-10.3 C4,-6.8 0,-0.9 0,4.2 C0,5.6 0.3,7 1,8.3 C2.8,11.6 6.6,13.3 11.2,13.3 C14.6,13.3 18.3,12.4 21.9,10.5 C28.5,7 32.5,1.1 32.5,-4 C32.5,-5.4 32.2,-6.8 31.5,-8.1"/>
<path class="Note" transform="matrix(2.12598,0,0,2.12598,1772.36,581.41)" d="M31.5,-8.1 C29.7,-11.4 25.9,-13.2 21.3,-13.2 C17.9,-13.2 14.2,-12.2 10.6,-10.3 C4,-6.8 0,-0.9 0,4.2 C0,5.6 0.3,7 1,8.3 C2.8,11.6 6.6,13.3 11.2,13.3 C14.6,13.3 18.3,12.4 21.9,10.5 C28.5,7 32.5,1.1 32.5,-4 C32.5,-5.4 32.2,-6.8 31.5,-8.1"/>
<path class="Note" transform="matrix(2.12598,0,0,2.12598,2266.9,554.835)" d="M31.5,-8.1 C29.7,-11.4 25.9,-13.2 21.3,-13.2 C17.9,-13.2 14.2,-12.2 10.6,-10.3 C4,-6.8 0,-0.9 0,4.2 C0,5.6 0.3,7 1,8.3 C2.8,11.6 6.6,13.3 11.2,13.3 C14.6,13.3 18.3,12.4 21.9,10.5 C28.5,7 32.5,1.1 32.5,-4 C32.5,-5.4 32.2,-6.8 31.5,-8.1"/>
<path class="Note" transform="matrix(2.12598,0,0,2.12598,2676.1,554.835)" d="M31.5,-8.1 C29.7,-11.4 25.9,-13.2 21.3,-13.2 C17.9,-13.2 14.2,-12.2 10.6,-10.3 C4,-6.8 0,-0.9 0,4.2 C0,5.6 0.3,7 1,8.3 C2.8,11.6 6.6,13.3 11.2,13.3 C14.6,13.3 18.3,12.4 21.9,10.5 C28.5,7 32.5,1.1 32.5,-4 C32.5,-5.4 32.2,-6.8 31.5,-8.1"/>
<path class="Note" transform="matrix(2.12598,0,0,2.12598,3085.31,607.985)" d="M31.5,-8.1 C29.7,-11.4 25.9,-13.2 21.3,-13.2 C17.9,-13.2 14.2,-12.2 10.6,-10.3 C4,-6.8 0,-0.9 0,4.2 C0,5.6 0.3,7 1,8.3 C2.8,11.6 6.6,13.3 11.2,13.3 C14.6,13.3 18.3,12.4 21.9,10.5 C28.5,7 32.5,1.1 32.5,-4 C32.5,-5.4 32.2,-6.8 31.5,-8.1"/>
<path class="Note" transform="matrix(2.12598,0,0,2.12598,3502.4,607.985)" d="M31.5,-8.1 C29.7,-11.4 25.9,-13.2 21.3,-13.2 C17.9,-13.2 14.2,-12.2 10.6,-10.3 C4,-6.8 0,-0.9 0,4.2 C0,5.6 0.3,7 1,8.3 C2.8,11.6 6.6,13.3 11.2,13.3 C14.6,13.3 18.3,12.4 21.9,10.5 C28.5,7 32.5,1.1 32.5,-4 C32.5,-5.4 32.2,-6.8 31.5,-8.1"/>
<path class="Note" transform="matrix(2.12598,0,0,2.12598,3919.49,581.41)" d="M31.5,-8.1 C29.7,-11.4 25.9,-13.2 21.3,-13.2 C17.9,-13.2 14.2,-12.2 10.6,-10.3 C4,-6.8 0,-0.9 0,4.2 C0,5.6 0.3,7 1,8.3 C2.8,11.6 6.6,13.3 11.2,13.3 C14.6,13.3 18.3,12.4 21.9,10.5 C28.5,7 32.5,1.1 32.5,-4 C32.5,-5.4 32.2,-6.8 31.5,-8.1"/>
<path class="Note" transform="matrix(2.12598,0,0,2.12598,772.187,1427.53)" d="M31.5,-8.1 C29.7,-11.4 25.9,-13.2 21.3,-13.2 C17.9,-13.2 14.2,-12.2 10.6,-10.3 C4,-6.8 0,-0.9 0,4.2 C0,5.6 0.3,7 1,8.3 C2.8,11.6 6.6,13.3 11.2,13.3 C14.6,13.3 18.3,12.4 21.9,10.5 C28.5,7 32.5,1.1 32.5,-4 C32.5,-5.4 32.2,-6.8 31.5,-8.1"/>
<path class="Note" transform="matrix(2.12598,0,0,2.12598,1003.91,1400.96)" d="M31.5,-8.1 C29.7,-11.4 25.9,-13.2 21.3,-13.2 C17.9,-13.2 14.2,-12.2 10.6,-10.3 C4,-6.8 0,-0.9 0,4.2 C0,5.6 0.3,7 1,8.3 C2.8,11.6 6.6,13.3 11.2,13.3 C14.6,13.3 18.3,12.4 21.9,10.5 C28.5,7 32.5,1.1 32.5,-4 C32.5,-5.4 32.2,-6.8 31.5,-8.1"/>
<path class="Note" transform="matrix(2.12598,0,0,2.12598,1235.64,1427.53)" d="M31.5,-8.1 C29.7,-11.4 25.9,-13.2 21.3,-13.2 C17.9,-13.2 14.2,-12.2 10.6,-10.3 C4,-6.8 0,-0.9 0,4.2 C0,5.6 0.3,7 1,8.3 C2.8,11.6 6.6,13.3 11.2,13.3 C14.6,13.3 18.3,12.4 21.9,10.5 C28.5,7 32.5,1.1 32.5,-4 C32.5,-5.4 32.2,-6.8 31.5,-8.1"/>
<path class="Note" transform="matrix(2.12598,0,0,2.12598,1467.37,1400.96)" d="M31.5,-8.1 C29.7,-11.4 25.9,-13.2 21.3,-13.2 C17.9,-13.2 14.2,-12.2 10.6,-10.3 C4,-6.8 0,-0.9 0,4.2 C0,5.6 0.3,7 1,8.3 C2.8,11.6 6.6,13.3 11.2,13.3 C14.6,13.3 18.3,12.4 21.9,10.5 C28.5,7 32.5,1.1 32.5,-4 C32.5,-5.4 32.2,-6.8 31.5,-8.1"/>
<path class="Note" transform="matrix(2.12598,0,0,2.12598,1699.1,1427.53)" d="M31.5,-8.1 C29.7,-11.4 25.9,-13.2 21.3,-13.2 C17.9,-13.2 14.2,-12.2 10.6,-10.3 C4,-6.8 0,-0.9 0,4.2 C0,5.6 0.3,7 1,8.3 C2.8,11.6 6.6,13.3 11.2,13.3 C14.6,13.3 18.3,12.4 21.9,10.5 C28.5,7 32.5,1.1 32.5,-4 C32.5,-5.4 32.2,-6.8 31.5,-8.1"/>
<path class="Note" transform="matrix(2.12598,0,0,2.12598,1930.82,1400.96)" d="M31.5,-8.1 C29.7,-11.4 25.9,-13.2 21.3,-13.2 C17.9,-13.2 14.2,-12.2 10.6,-10.3 C4,-6.8 0,-0.9 0,4.2 C0,5.6 0.3,7 1,8.3 C2.8,11.6 6.6,13.3 11.2,13.3 C14.6,13.3 18.3,12.4 21.9,10.5 C28.5,7 32.5,1.1 32.5,-4 C32.5,-5.4 32.2,-6.8 31.5,-8.1"/>
<path class="Note" transform="matrix(2.12598,0,0,2.12598,2162.55,1374.38)" d="M31.5,-8.1 C29.7,-11.4 25.9,-13.2 21.3,-13.2 C17.9,-13.2 14.2,-12.2 10.6,-10.3 C4,-6.8 0,-0.9 0,4.2 C0,5.6 0.3,7 1,8.3 C2.8,11.6 6.6,13.3 11.2,13.3 C14.6,13.3 18.3,12.4 21.9,10.5 C28.5,7 32.5,1.1 32.5,-4 C32.5,-5.4 32.2,-6.8 31.5,-8.1"/>
<path class="Note" transform="matrix(2.12598,0,0,2.12598,2589.87,1347.81)" d="M31.5,-8.1 C29.7,-11.4 25.9,-13.2 21.3,-13.2 C17.9,-13.2 14.2,-12.2 10.6,-10.3 C4,-6.8 0,-0.9 0,4.2 C0,5.6 0.3,7 1,8.3 C2.8,11.6 6.6,13.3 11.2,13.3 C14.6,13.3 18.3,12.4 21.9,10.5 C28.5,7 32.5,1.1 32.5,-4 C32.5,-5.4 32.2,-6.8 31.5,-8.1"/>
<path class="Note" transform="matrix(2.12598,0,0,2.12598,2939.22,1347.81)" d="M31.5,-8.1 C29.7,-11.4 25.9,-13.2 21.3,-13.2 C17.9,-13.2 14.2,-12.2 10.6,-10.3 C4,-6.8 0,-0.9 0,4.2 C0,5.6 0.3,7 1,8.3 C2.8,11.6 6.6,13.3 11.2,13.3 C14.6,13.3 18.3,12.4 21.9,10.5 C28.5,7 32.5,1.1 32.5,-4 C32.5,-5.4 32.2,-6.8 31.5,-8.1"/>
<path class="Note" transform="matrix(2.12598,0,0,2.12598,3288.57,1400.96)" d="M31.5,-8.1 C29.7,-11.4 25.9,-13.2 21.3,-13.2 C17.9,-13.2 14.2,-12.2 10.6,-10.3 C4,-6.8 0,-0.9 0,4.2 C0,5.6 0.3,7 1,8.3 C2.8,11.6 6.6,13.3 11.2,13.3 C14.6,13.3 18.3,12.4 21.9,10.5 C28.5,7 32.5,1.1 32.5,-4 C32.5,-5.4 32.2,-6.8 31.5,-8.1"/>
<path class="Note" transform="matrix(2.12598,0,0,2.12598,3633.9,1400.96)" d="M31.5,-8.1 C29.7,-11.4 25.9,-13.2 21.3,-13.2 C17.9,-13.2 14.2,-12.2 10.6,-10.3 C4,-6.8 0,-0.9 0,4.2 C0,5.6 0.3,7 1,8.3 C2.8,11.6 6.6,13.3 11.2,13.3 C14.6,13.3 18.3,12.4 21.9,10.5 C28.5,7 32.5,1.1 32.5,-4 C32.5,-5.4 32.2,-6.8 31.5,-8.1"/>
<path class="Note" transform="matrix(2.12598,0,0,2.12598,3979.24,1374.38)" d="M31.5,-8.1 C29.7,-11.4 25.9,-13.2 21.3,-13.2 C17.9,-13.2 14.2,-12.2 10.6,-10.3 C4,-6.8 0,-0.9 0,4.2 C0,5.6 0.3,7 1,8.3 C2.8,11.6 6.6,13.3 11.2,13.3 C14.6,13.3 18.3,12.4 21.9,10.5 C28.5,7 32.5,1.1 32.5,-4 C32.5,-5.4 32.2,-6.8 31.5,-8.1"/>
<path class="Note" transform="matrix(2.12598,0,0,2.12598,657.389,2167.35)" d="M31.5,-8.1 C29.7,-11.4 25.9,-13.2 21.3,-13.2 C17.9,-13.2 14.2,-12.2 10.6,-10.3 C4,-6.8 0,-0.9 0,4.2 C0,5.6 0.3,7 1,8.3 C2.8,11.6 6.6,13.3 11.2,13.3 C14.6,13.3 18.3,12.4 21.9,10.5 C28.5,7 32.5,1.1 32.5,-4 C32.5,-5.4 32.2,-6.8 31.5,-8.1"/>
<path class="Note" transform="matrix(2.12598,0,0,2.12598,1822.9,2220.5)" d="M31.5,-8.1 C29.7,-11.4 25.9,-13.2 21.3,-13.2 C17.9,-13.2 14.2,-12.2 10.6,-10.3 C4,-6.8 0,-0.9 0,4.2 C0,5.6 0.3,7 1,8.3 C2.8,11.6 6.6,13.3 11.2,13.3 C14.6,13.3 18.3,12.4 21.9,10.5 C28.5,7 32.5,1.1 32.5,-4 C32.5,-5.4 32.2,-6.8 31.5,-8.1"/>
<path class="Note" transform="matrix(2.12598,0,0,2.12598,2076.27,2193.93)" d="M31.5,-8.1 C29.7,-11.4 25.9,-13.2 21.3,-13.2 C17.9,-13.2 14.2,-12.2 10.6,-10.3 C4,-6.8 0,-0.9 0,4.2 C0,5.6 0.3,7 1,8.3 C2.8,11.6 6.6,13.3 11.2,13.3 C14.6,13.3 18.3,12.4 21.9,10.5 C28.5,7 32.5,1.1 32.5,-4 C32.5,-5.4 32.2,-6.8 31.5,-8.1"/>
<path class="Note" transform="matrix(2.12598,0,0,2.12598,2329.65,2167.35)" d="M31.5,-8.1 C29.7,-11.4 25.9,-13.2 21.3,-13.2 C17.9,-13.2 14.2,-12.2 10.6,-10.3 C4,-6.8 0,-0.9 0,4.2 C0,5.6 0.3,7 1,8.3 C2.8,11.6 6.6,13.3 11.2,13.3 C14.6,13.3 18.3,12.4 21.9,10.5 C28.5,7 32.5,1.1 32.5,-4 C32.5,-5.4 32.2,-6.8 31.5,-8.1"/>
<path class="Note" transform="matrix(2.12598,0,0,2.12598,2863.27,2167.35)" d="M31.5,-8.1 C29.7,-11.4 25.9,-13.2 21.3,-13.2 C17.9,-13.2 14.2,-12.2 10.6,-10.3 C4,-6.8 0,-0.9 0,4.2 C0,5.6 0.3,7 1,8.3 C2.8,11.6 6.6,13.3 11.2,13.3 C14.6,13.3 18.3,12.4 21.9,10.5 C28.5,7 32.5,1.1 32.5,-4 C32.5,-5.4 32.2,-6.8 31.5,-8.1"/>
<path class="Clef" transform="matrix(2.12598,0,0,2.12598,113.386,661.134)" d="M63.35,-5.86992 C62.12,-11.3 59.48,-15.1199 58.7,-16.16 C55.51,-20.43 51.5,-23.28 46.81,-24.63 C43.7,-25.5199 40.7,-25.63 38.28,-25.45 C37.24,-31.46 36.24,-37.3399 35.33,-42.7899 C40.78,-48.96 44.4,-54.76 46.68,-59.06 C50.15,-65.6399 51.3,-70.2199 51.35,-70.4199 C53.07,-75.63 53.43,-83.33 52.33,-91.5399 C51.32,-99.0899 49.23,-105.8 46.88,-109.05 C45.85,-110.48 44.8,-111.21 43.76,-111.21 C42.54,-111.21 40.03,-109.97 37.14,-107.2 C34.84,-105 31.57,-101.11 29.01,-95.1 C26.01,-88.0399 25.8,-78.55 26.15,-71.83 C26.53,-64.56 27.64,-58.8699 27.65,-58.8199 C27.67,-58.73 27.93,-57.23 28.38,-54.66 C28.15,-54.43 27.91,-54.21 27.66,-53.9699 C26.62,-52.9699 25.43,-51.83 24.05,-50.45 C23.19,-49.5899 22.24,-48.68 21.24,-47.71 C12.79,-39.5699 0,-27.25 0,-8.1 C0,-3.4 0.9,1.02002 2.67998,5.03008 C4.27002,8.63008 6.57002,11.9101 9.5,14.7801 C17.23,22.3301 27.82,25.54 34.88,25.3801 C37.83,25.3101 40.46,25.07 42.85,24.62 C44.68,34.22 45.82,41.25 45.86,46.59 C45.9,53.1 44.25,57.07 40.35,59.84 C37.92,61.57 35.11,62.52 32.01,62.67 C29.42,62.79 27.16,62.32 25.73,61.9101 L25.72,61.9101 C25.72,61.9101 25.43,61.8301 25.42,61.6301 C25.41,61.45 25.76,61.4 25.77,61.4 L25.79,61.4 C27.71,60.9601 31.28,59.7301 33.64,56.4301 C35.44,53.9101 36.31,49.29 34.47,45.35 C33.36,42.9601 30.85,40.0101 25.23,39.5601 C22.74,39.3601 20.47,39.87 18.47,41.07 C16.66,42.15 15.16,43.79 14.11,45.79 C11.65,50.49 12.11,56.22 15.24,60.0601 C18.2,63.6801 22.82,65.99 28.25,66.57 C29.1,66.6601 29.95,66.7 30.8,66.7 C35.23,66.7 39.63,65.5 43.2,63.29 C46.86,60.72 48.98,56.74 49.66,51.1101 C50.22,46.47 49.83,40.5601 48.43,32.49 C48.07,30.4 47.53,27.37 46.87,23.6101 C52.62,21.69 56.78,18.12 60.55,12.27 C63.84,6.53008 64.78,0.430078 63.35,-5.86992 M29.14,20.32 C24.5,19.1 20.07,16.6 16.31,13.1 C15,11.87 13.13,9.7 11.66,6.31006 C10.29,3.15 9.62998,-0.27998 9.67998,-3.86992 C9.75,-8.55996 11.06,-13.38 13.57,-18.1699 C16.49,-23.75 21.05,-29.28 27.11,-34.61 C28.56,-35.8899 29.93,-37.1699 31.22,-38.45 C31.98,-34.1899 32.81,-29.5 33.69,-24.6199 C29.84,-23.35 25.09,-20.2 21.98,-14.55 C18.44,-7.97998 18.58,-2.45996 19.31,1.02002 C20.25,5.48008 22.78,9.24004 26.24,11.3301 C27.17,11.89 31.3,14.02 33.14,13.44 C33.51,13.32 33.78,13.1 33.92,12.77 C34.43,11.6 33.41,10.9601 31.85,10 C31.25,9.63008 30.58,9.21006 29.85,8.68008 C26.53,6.19004 25.08,1.74004 26.15,-2.63994 C26.73,-5.03994 28.01,-7.2 29.85,-8.9 C31.52,-10.45 33.56,-11.55 35.94,-12.1899 C37.98,-0.95 40.04,10.2 41.68,18.5601 C41.81,19.25 41.95,19.92 42.08,20.59 C37.7,21.52 33.35,21.4301 29.14,20.32 M40.46,-12.86 C50.81,-13.33 55.08,-5.88994 55.97,-1.05996 C56.44,1.47002 56.43,5.91006 54.89,10.12 C53.72,13.3 51.26,17.37 46.13,19.4301 C46.06,19.0101 45.98,18.5801 45.9,18.15 C44.36,9.38008 42.42,-1.60996 40.46,-12.86 M33.14,-83.8 C34.92,-89.5399 37.66,-92.7899 39.65,-94.5199 C41.4,-96.0399 43.05,-96.75 43.97,-96.75 C44.11,-96.75 44.23,-96.73 44.33,-96.7 C44.79,-96.56 45.32,-95.9899 45.79,-95.1199 C48.1,-90.83 47.36,-84.1199 46.02,-79.68 C44.39,-74.28 41.47,-68.66 32.67,-59.05 C32.5,-60.16 32.34,-61.21 32.19,-62.1899 C30.94,-70.48 31.26,-77.75 33.14,-83.8"/>
<path class="Clef" transform="matrix(2.12598,0,0,2.12598,113.386,1454.1)" d="M63.35,-5.86992 C62.12,-11.3 59.48,-15.1199 58.7,-16.16 C55.51,-20.43 51.5,-23.28 46.81,-24.63 C43.7,-25.5199 40.7,-25.63 38.28,-25.45 C37.24,-31.46 36.24,-37.3399 35.33,-42.7899 C40.78,-48.96 44.4,-54.76 46.68,-59.06 C50.15,-65.6399 51.3,-70.2199 51.35,-70.4199 C53.07,-75.63 53.43,-83.33 52.33,-91.5399 C51.32,-99.0899 49.23,-105.8 46.88,-109.05 C45.85,-110.48 44.8,-111.21 43.76,-111.21 C42.54,-111.21 40.03,-109.97 37.14,-107.2 C34.84,-105 31.57,-101.11 29.01,-95.1 C26.01,-88.0399 25.8,-78.55 26.15,-71.83 C26.53,-64.56 27.64,-58.8699 27.65,-58.8199 C27.67,-58.73 27.93,-57.23 28.38,-54.66 C28.15,-54.43 27.91,-54.21 27.66,-53.9699 C26.62,-52.9699 25.43,-51.83 24.05,-50.45 C23.19,-49.5899 22.24,-48.68 21.24,-47.71 C12.79,-39.5699 0,-27.25 0,-8.1 C0,-3.4 0.9,1.02002 2.67998,5.03008 C4.27002,8.63008 6.57002,11.9101 9.5,14.7801 C17.23,22.3301 27.82,25.54 34.88,25.3801 C37.83,25.3101 40.46,25.07 42.85,24.62 C44.68,34.22 45.82,41.25 45.86,46.59 C45.9,53.1 44.25,57.07 40.35,59.84 C37.92,61.57 35.11,62.52 32.01,62.67 C29.42,62.79 27.16,62.32 25.73,61.9101 L25.72,61.9101 C25.72,61.9101 25.43,61.8301 25.42,61.6301 C25.41,61.45 25.76,61.4 25.77,61.4 L25.79,61.4 C27.71,60.9601 31.28,59.7301 33.64,56.4301 C35.44,53.9101 36.31,49.29 34.47,45.35 C33.36,42.9601 30.85,40.0101 25.23,39.5601 C22.74,39.3601 20.47,39.87 18.47,41.07 C16.66,42.15 15.16,43.79 14.11,45.79 C11.65,50.49 12.11,56.22 15.24,60.0601 C18.2,63.6801 22.82,65.99 28.25,66.57 C29.1,66.6601 29.95,66.7 30.8,66.7 C35.23,66.7 39.63,65.5 43.2,63.29 C46.86,60.72 48.98,56.74 49.66,51.1101 C50.22,46.47 49.83,40.5601 48.43,32.49 C48.07,30.4 47.53,27.37 46.87,23.6101 C52.62,21.69 56.78,18.12 60.55,12.27 C63.84,6.53008 64.78,0.430078 63.35,-5.86992 M29.14,20.32 C24.5,19.1 20.07,16.6 16.31,13.1 C15,11.87 13.13,9.7 11.66,6.31006 C10.29,3.15 9.62998,-0.27998 9.67998,-3.86992 C9.75,-8.55996 11.06,-13.38 13.57,-18.1699 C16.49,-23.75 21.05,-29.28 27.11,-34.61 C28.56,-35.8899 29.93,-37.1699 31.22,-38.45 C31.98,-34.1899 32.81,-29.5 33.69,-24.6199 C29.84,-23.35 25.09,-20.2 21.98,-14.55 C18.44,-7.97998 18.58,-2.45996 19.31,1.02002 C20.25,5.48008 22.78,9.24004 26.24,11.3301 C27.17,11.89 31.3,14.02 33.14,13.44 C33.51,13.32 33.78,13.1 33.92,12.77 C34.43,11.6 33.41,10.9601 31.85,10 C31.25,9.63008 30.58,9.21006 29.85,8.68008 C26.53,6.19004 25.08,1.74004 26.15,-2.63994 C26.73,-5.03994 28.01,-7.2 29.85,-8.9 C31.52,-10.45 33.56,-11.55 35.94,-12.1899 C37.98,-0.95 40.04,10.2 41.68,18.5601 C41.81,19.25 41.95,19.92 42.08,20.59 C37.7,21.52 33.35,21.4301 29.14,20.32 M40.46,-12.86 C50.81,-13.33 55.08,-5.88994 55.97,-1.05996 C56.44,1.47002 56.43,5.91006 54.89,10.12 C53.72,13.3 51.26,17.37 46.13,19.4301 C46.06,19.0101 45.98,18.5801 45.9,18.15 C44.36,9.38008 42.42,-1.60996 40.46,-12.86 M33.14,-83.8 C34.92,-89.5399 37.66,-92.7899 39.65,-94.5199 C41.4,-96.0399 43.05,-96.75 43.97,-96.75 C44.11,-96.75 44.23,-96.73 44.33,-96.7 C44.79,-96.56 45.32,-95.9899 45.79,-95.1199 C48.1,-90.83 47.36,-84.1199 46.02,-79.68 C44.39,-74.28 41.47,-68.66 32.67,-59.05 C32.5,-60.16 32.34,-61.21 32.19,-62.1899 C30.94,-70.48 31.26,-77.75 33.14,-83.8"/>
<path class="Clef" transform="matrix(2.12598,0,0,2.12598,113.386,2247.08)" d="M63.35,-5.86992 C62.12,-11.3 59.48,-15.1199 58.7,-16.16 C55.51,-20.43 51.5,-23.28 46.81,-24.63 C43.7,-25.5199 40.7,-25.63 38.28,-25.45 C37.24,-31.46 36.24,-37.3399 35.33,-42.7899 C40.78,-48.96 44.4,-54.76 46.68,-59.06 C50.15,-65.6399 51.3,-70.2199 51.35,-70.4199 C53.07,-75.63 53.43,-83.33 52.33,-91.5399 C51.32,-99.0899 49.23,-105.8 46.88,-109.05 C45.85,-110.48 44.8,-111.21 43.76,-111.21 C42.54,-111.21 40.03,-109.97 37.14,-107.2 C34.84,-105 31.57,-101.11 29.01,-95.1 C26.01,-88.0399 25.8,-78.55 26.15,-71.83 C26.53,-64.56 27.64,-58.8699 27.65,-58.8199 C27.67,-58.73 27.93,-57.23 28.38,-54.66 C28.15,-54.43 27.91,-54.21 27.66,-53.9699 C26.62,-52.9699 25.43,-51.83 24.05,-50.45 C23.19,-49.5899 22.24,-48.68 21.24,-47.71 C12.79,-39.5699 0,-27.25 0,-8.1 C0,-3.4 0.9,1.02002 2.67998,5.03008 C4.27002,8.63008 6.57002,11.9101 9.5,14.7801 C17.23,22.3301 27.82,25.54 34.88,25.3801 C37.83,25.3101 40.46,25.07 42.85,24.62 C44.68,34.22 45.82,41.25 45.86,46.59 C45.9,53.1 44.25,57.07 40.35,59.84 C37.92,61.57 35.11,62.52 32.01,62.67 C29.42,62.79 27.16,62.32 25.73,61.9101 L25.72,61.9101 C25.72,61.9101 25.43,61.8301 25.42,61.6301 C25.41,61.45 25.76,61.4 25.77,61.4 L25.79,61.4 C27.71,60.9601 31.28,59.7301 33.64,56.4301 C35.44,53.9101 36.31,49.29 34.47,45.35 C33.36,42.9601 30.85,40.0101 25.23,39.5601 C22.74,39.3601 20.47,39.87 18.47,41.07 C16.66,42.15 15.16,43.79 14.11,45.79 C11.65,50.49 12.11,56.22 15.24,60.0601 C18.2,63.6801 22.82,65.99 28.25,66.57 C29.1,66.6601 29.95,66.7 30.8,66.7 C35.23,66.7 39.63,65.5 43.2,63.29 C46.86,60.72 48.98,56.74 49.66,51.1101 C50.22,46.47 49.83,40.5601 48.43,32.49 C48.07,30.4 47.53,27.37 46.87,23.6101 C52.62,21.69 56.78,18.12 60.55,12.27 C63.84,6.53008 64.78,0.430078 63.35,-5.86992 M29.14,20.32 C24.5,19.1 20.07,16.6 16.31,13.1 C15,11.87 13.13,9.7 11.66,6.31006 C10.29,3.15 9.62998,-0.27998 9.67998,-3.86992 C9.75,-8.55996 11.06,-13.38 13.57,-18.1699 C16.49,-23.75 21.05,-29.28 27.11,-34.61 C28.56,-35.8899 29.93,-37.1699 31.22,-38.45 C31.98,-34.1899 32.81,-29.5 33.69,-24.6199 C29.84,-23.35 25.09,-20.2 21.98,-14.55 C18.44,-7.97998 18.58,-2.45996 19.31,1.02002 C20.25,5.48008 22.78,9.24004 26.24,11.3301 C27.17,11.89 31.3,14.02 33.14,13.44 C33.51,13.32 33.78,13.1 33.92,12.77 C34.43,11.6 33.41,10.9601 31.85,10 C31.25,9.63008 30.58,9.21006 29.85,8.68008 C26.53,6.19004 25.08,1.74004 26.15,-2.63994 C26.73,-5.03994 28.01,-7.2 29.85,-8.9 C31.52,-10.45 33.56,-11.55 35.94,-12.1899 C37.98,-0.95 40.04,10.2 41.68,18.5601 C41.81,19.25 41.95,19.92 42.08,20.59 C37.7,21.52 33.35,21.4301 29.14,20.32 M40.46,-12.86 C50.81,-13.33 55.08,-5.88994 55.97,-1.05996 C56.44,1.47002 56.43,5.91006 54.89,10.12 C53.72,13.3 51.26,17.37 46.13,19.4301 C46.06,19.0101 45.98,18.5801 45.9,18.15 C44.36,9.38008 42.42,-1.60996 40.46,-12.86 M33.14,-83.8 C34.92,-89.5399 37.66,-92.7899 39.65,-94.5199 C41.4,-96.0399 43.05,-96.75 43.97,-96.75 C44.11,-96.75 44.23,-96.73 44.33,-96.7 C44.79,-96.56 45.32,-95.9899 45.79,-95.1199 C48.1,-90.83 47.36,-84.1199 46.02,-79.68 C44.39,-74.28 41.47,-68.66 32.67,-59.05 C32.5,-60.16 32.34,-61.21 32.19,-62.1899 C30.94,-70.48 31.26,-77.75 33.14,-83.8"/>
<path class="KeySig" transform="matrix(2.12598,0,0,2.12598,355.715,581.41)" d="M23.3,-10.6 C23.9,-10.7 24.4,-11.4 24.4,-12 L24.4,-17.9 C24.4,-18.7 23.8,-19.3 23,-19.3 L22.8,-19.3 L19.5,-18.6 L19.5,-33.5 L16.7,-33.5 L16.7,-18 L7.8,-16.2 L7.8,-30.3 L5,-30.3 L5,-15.6 L1.1,-14.8 C0.5,-14.7 0,-14 0,-13.4 L0,-13.2 L0,-7.4 L0,-7.6 C0,-6.8 0.6,-6.2 1.4,-6.2 L1.7,-6.2 L5,-6.9 L5,9.6 L1.1,10.4 C0.5,10.5 0,11.2 0,11.8 L0,17.6 C0,18.4 0.6,19 1.4,19 L1.7,19 L5,18.3 L5,33.2 L7.8,33.2 L7.8,17.7 L16.7,15.9 L16.7,30 L19.5,30 L19.5,15.3 L23.3,14.6 C23.9,14.5 24.4,13.8 24.4,13.2 L24.4,7.3 C24.4,6.5 23.8,5.9 23,5.9 L22.8,5.9 L19.5,6.6 L19.5,-9.9 L23.3,-10.6 M7.8,9.1 L7.8,-7.5 L16.7,-9.3 L16.7,7.2 L7.8,9.1 "/>
<path class="KeySig" transform="matrix(2.12598,0,0,2.12598,302.565,501.686)" d="M23.3,-10.6 C23.9,-10.7 24.4,-11.4 24.4,-12 L24.4,-17.9 C24.4,-18.7 23.8,-19.3 23,-19.3 L22.8,-19.3 L19.5,-18.6 L19.5,-33.5 L16.7,-33.5 L16.7,-18 L7.8,-16.2 L7.8,-30.3 L5,-30.3 L5,-15.6 L1.1,-14.8 C0.5,-14.7 0,-14 0,-13.4 L0,-13.2 L0,-7.4 L0,-7.6 C0,-6.8 0.6,-6.2 1.4,-6.2 L1.7,-6.2 L5,-6.9 L5,9.6 L1.1,10.4 C0.5,10.5 0,11.2 0,11.8 L0,17.6 C0,18.4 0.6,19 1.4,19 L1.7,19 L5,18.3 L5,33.2 L7.8,33.2 L7.8,17.7 L16.7,15.9 L16.7,30 L19.5,30 L19.5,15.3 L23.3,14.6 C23.9,14.5 24.4,13.8 24.4,13.2 L24.4,7.3 C24.4,6.5 23.8,5.9 23,5.9 L22.8,5.9 L19.5,6.6 L19.5,-9.9 L23.3,-10.6 M7.8,9.1 L7.8,-7.5 L16.7,-9.3 L16.7,7.2 L7.8,9.1 "/>
<path class="KeySig" transform="matrix(2.12598,0,0,2.12598,355.715,1374.38)" d="M23.3,-10.6 C23.9,-10.7 24.4,-11.4 24.4,-12 L24.4,-17.9 C24.4,-18.7 23.8,-19.3 23,-19.3 L22.8,-19.3 L19.5,-18.6 L19.5,-33.5 L16.7,-33.5 L16.7,-18 L7.8,-16.2 L7.8,-30.3 L5,-30.3 L5,-15.6 L1.1,-14.8 C0.5,-14.7 0,-14 0,-13.4 L0,-13.2 L0,-7.4 L0,-7.6 C0,-6.8 0.6,-6.2 1.4,-6.2 L1.7,-6.2 L5,-6.9 L5,9.6 L1.1,10.4 C0.5,10.5 0,11.2 0,11.8 L0,17.6 C0,18.4 0.6,19 1.4,19 L1.7,19 L5,18.3 L5,33.2 L7.8,33.2 L7.8,17.7 L16.7,15.9 L16.7,30 L19.5,30 L19.5,15.3 L23.3,14.6 C23.9,14.5 24.4,13.8 24.4,13.2 L24.4,7.3 C24.4,6.5 23.8,5.9 23,5.9 L22.8,5.9 L19.5,6.6 L19.5,-9.9 L23.3,-10.6 M7.8,9.1 L7.8,-7.5 L16.7,-9.3 L16.7,7.2 L7.8,9.1 "/>
<path class="KeySig" transform="matrix(2.12598,0,0,2.12598,302.565,1294.66)" d="M23.3,-10.6 C23.9,-10.7 24.4,-11.4 24.4,-12 L24.4,-17.9 C24.4,-18.7 23.8,-19.3 23,-19.3 L22.8,-19.3 L19.5,-18.6 L19.5,-33.5 L16.7,-33.5 L16.7,-18 L7.8,-16.2 L7.8,-30.3 L5,-30.3 L5,-15.6 L1.1,-14.8 C0.5,-14.7 0,-14 0,-13.4 L0,-13.2 L0,-7.4 L0,-7.6 C0,-6.8 0.6,-6.2 1.4,-6.2 L1.7,-6.2 L5,-6.9 L5,9.6 L1.1,10.4 C0.5,10.5 0,11.2 0,11.8 L0,17.6 C0,18.4 0.6,19 1.4,19 L1.7,19 L5,18.3 L5,33.2 L7.8,33.2 L7.8,17.7 L16.7,15.9 L16.7,30 L19.5,30 L19.5,15.3 L23.3,14.6 C23.9,14.5 24.4,13.8 24.4,13.2 L24.4,7.3 C24.4,6.5 23.8,5.9 23,5.9 L22.8,5.9 L19.5,6.6 L19.5,-9.9 L23.3,-10.6 M7.8,9.1 L7.8,-7.5 L16.7,-9.3 L16.7,7.2 L7.8,9.1 "/>
<path class="KeySig" transform="matrix(2.12598,0,0,2.12598,355.715,2167.35)" d="M23.3,-10.6 C23.9,-10.7 24.4,-11.4 24.4,-12 L24.4,-17.9 C24.4,-18.7 23.8,-19.3 23,-19.3 L22.8,-19.3 L19.5,-18.6 L19.5,-33.5 L16.7,-33.5 L16.7,-18 L7.8,-16.2 L7.8,-30.3 L5,-30.3 L5,-15.6 L1.1,-14.8 C0.5,-14.7 0,-14 0,-13.4 L0,-13.2 L0,-7.4 L0,-7.6 C0,-6.8 0.6,-6.2 1.4,-6.2 L1.7,-6.2 L5,-6.9 L5,9.6 L1.1,10.4 C0.5,10.5 0,11.2 0,11.8 L0,17.6 C0,18.4 0.6,19 1.4,19 L1.7,19 L5,18.3 L5,33.2 L7.8,33.2 L7.8,17.7 L16.7,15.9 L16.7,30 L19.5,30 L19.5,15.3 L23.3,14.6 C23.9,14.5 24.4,13.8 24.4,13.2 L24.4,7.3 C24.4,6.5 23.8,5.9 23,5.9 L22.8,5.9 L19.5,6.6 L19.5,-9.9 L23.3,-10.6 M7.8,9.1 L7.8,-7.5 L16.7,-9.3 L16.7,7.2 L7.8,9.1 "/>
<path class="KeySig" transform="matrix(2.12598,0,0,2.12598,302.565,2087.63)" d="M23.3,-10.6 C23.9,-10.7 24.4,-11.4 24.4,-12 L24.4,-17.9 C24.4,-18.7 23.8,-19.3 23,-19.3 L22.8,-19.3 L19.5,-18.6 L19.5,-33.5 L16.7,-33.5 L16.7,-18 L7.8,-16.2 L7.8,-30.3 L5,-30.3 L5,-15.6 L1.1,-14.8 C0.5,-14.7 0,-14 0,-13.4 L0,-13.2 L0,-7.4 L0,-7.6 C0,-6.8 0.6,-6.2 1.4,-6.2 L1.7,-6.2 L5,-6.9 L5,9.6 L1.1,10.4 C0.5,10.5 0,11.2 0,11.8 L0,17.6 C0,18.4 0.6,19 1.4,19 L1.7,19 L5,18.3 L5,33.2 L7.8,33.2 L7.8,17.7 L16.7,15.9 L16.7,30 L19.5,30 L19.5,15.3 L23.3,14.6 C23.9,14.5 24.4,13.8 24.4,13.2 L24.4,7.3 C24.4,6.5 23.8,5.9 23,5.9 L22.8,5.9 L19.5,6.6 L19.5,-9.9 L23.3,-10.6 M7.8,9.1 L7.8,-7.5 L16.7,-9.3 L16.7,7.2 L7.8,9.1 "/>
<path class="TimeSig" transform="matrix(2.12598,0,0,2.12598,457.812,555.117)" d="M3.59004,12.65 L20.77,12.65 L20.77,20.07 L12.54,20.07 C11.7601,20.07 11.1301,20.7 11.1301,21.48 L11.1301,23.39 C11.1301,24.17 11.7601,24.8 12.54,24.8 L42.79,24.8 C43.57,24.8 44.2,24.17 44.2,23.39 L44.2,21.48 C44.2,20.7 43.57,20.07 42.79,20.07 L33.85,20.07 L33.85,12.65 L42.79,12.65 C43.57,12.65 44.2,12.02 44.2,11.24 L44.2,9.32998 C44.2,8.55 43.57,7.92002 42.79,7.92002 L33.85,7.92002 L33.85,-8.04004 C33.85,-8.57998 33.55,-9.05996 33.07,-9.3 L31.8601,-9.9 C31.3301,-10.16 30.7,-10.07 30.27,-9.67002 L21.22,-1.35 C20.9301,-1.07998 20.7601,-0.709961 20.7601,-0.309961 L20.7601,7.92002 L9.25,7.92002 C9.25,7.92002 20.37,-4.10996 32.2101,-19.88 C33.0801,-21.03 32.5801,-22.08 32.39,-22.27 L30.22,-24.48 C29.95,-24.74 29.59,-24.89 29.22,-24.89 C28.62,-24.89 15.07,-24.87 14.35,-24.89 C13.6301,-24.91 13.09,-24.29 13.02,-23.67 C13.02,-23.67 12.4801,-16.31 9.88008,-8.17998 C7.28008,-0.0599609 4.34004,4.92002 1.68008,8.55 C1.68008,8.55 1.14004,9.54004 1.5,10.28 C1.85,11.03 2.48008,12.12 2.48008,12.12 C2.48008,12.12 2.74004,12.65 3.59004,12.65"/>
<path class="TimeSig" transform="matrix(2.12598,0,0,2.12598,457.812,660.852)" d="M3.59004,12.65 L20.77,12.65 L20.77,20.07 L12.54,20.07 C11.7601,20.07 11.1301,20.7 11.1301,21.48 L11.1301,23.39 C11.1301,24.17 11.7601,24.8 12.54,24.8 L42.79,24.8 C43.57,24.8 44.2,24.17 44.2,23.39 L44.2,21.48 C44.2,20.7 43.57,20.07 42.79,20.07 L33.85,20.07 L33.85,12.65 L42.79,12.65 C43.57,12.65 44.2,12.02 44.2,11.24 L44.2,9.32998 C44.2,8.55 43.57,7.92002 42.79,7.92002 L33.85,7.92002 L33.85,-8.04004 C33.85,-8.57998 33.55,-9.05996 33.07,-9.3 L31.8601,-9.9 C31.3301,-10.16 30.7,-10.07 30.27,-9.67002 L21.22,-1.35 C20.9301,-1.07998 20.7601,-0.709961 20.7601,-0.309961 L20.7601,7.92002 L9.25,7.92002 C9.25,7.92002 20.37,-4.10996 32.2101,-19.88 C33.0801,-21.03 32.5801,-22.08 32.39,-22.27 L30.22,-24.48 C29.95,-24.74 29.59,-24.89 29.22,-24.89 C28.62,-24.89 15.07,-24.87 14.35,-24.89 C13.6301,-24.91 13.09,-24.29 13.02,-23.67 C13.02,-23.67 12.4801,-16.31 9.88008,-8.17998 C7.28008,-0.0599609 4.34004,4.92002 1.68008,8.55 C1.68008,8.55 1.14004,9.54004 1.5,10.28 C1.85,11.03 2.48008,12.12 2.48008,12.12 C2.48008,12.12 2.74004,12.65 3.59004,12.65"/>
<path class="Rest" transform="matrix(2.12598,0,0,2.12598,658.069,607.985)" d="M0,-11.8 L0,-1 C0,0.4 0,0.4 1.4,0.4 L31.1,0.4 C32.5,0.4 32.5,0.4 32.5,-1 L32.5,-11.8 C32.5,-13.2 32.5,-13.2 31.1,-13.2 L1.4,-13.2 C0,-13.2 0,-13.2 0,-11.8"/>
<path class="Rest" transform="matrix(2.12598,0,0,2.12598,1129.5,607.985)" d="M26.73,-20.26 C25.9899,-20.5399 25.31,-20.21 24.98,-19.6 C24.65,-18.9899 21.4699,-13.06 17.0399,-9.8 C15.65,-8.77998 14.0699,-8.13994 12.5,-7.80996 C13.6199,-9.06992 14.3,-10.73 14.3,-12.55 C14.3,-16.5 11.1,-19.7 7.15,-19.7 C3.2,-19.7 0,-16.5 0,-12.55 C0,-9.53994 1.86992,-6.95996 4.50996,-5.90996 C6.03994,-5.17998 7.95,-4.73994 10,-4.73994 C12.85,-4.73994 15.96,-5.56992 18.6699,-7.55996 C19.93,-8.48994 21.13,-9.67998 22.21,-10.9399 L10.8199,24.69 L13.46,25.54 L27.53,-18.55 C27.76,-19.28 27.4699,-19.9699 26.73,-20.26"/>
<path class="Rest" transform="matrix(2.12598,0,0,2.12598,2475.45,607.985)" d="M33.47,-20.295 C32.72,-20.555 32.05,-20.195 31.74,-19.575 C31.4301,-18.955 28.6101,-13.525 24.3,-10.125 C22.95,-9.05498 21.39,-8.36504 19.8301,-7.98496 C20.9,-9.28496 21.5301,-10.955 21.47,-12.775 C21.3301,-16.715 18.0301,-19.795 14.09,-19.655 C10.15,-19.515 7.07002,-16.215 7.21006,-12.275 C7.32002,-9.26504 9.27002,-6.76504 11.94,-5.80498 C13.5,-5.125 15.4101,-4.75498 17.4601,-4.825 C20.3,-4.925 23.3801,-5.86504 26.02,-7.94502 C27.25,-8.91504 28.4,-10.145 29.44,-11.445 L29.4301,-11.425 L24.94,4.48496 C24.94,4.49502 24.9301,4.50498 24.92,4.51504 L24.92,4.525 C24.4601,5.48496 21.2101,11.655 17.19,14.825 C15.84,15.895 14.2801,16.585 12.72,16.965 C13.79,15.665 14.42,13.995 14.3601,12.175 C14.22,8.23496 10.92,5.15498 6.98008,5.29502 C3.04004,5.43496 -0.0399414,8.73496 0.1,12.675 C0.210059,15.685 2.16006,18.185 4.83008,19.145 C6.39004,19.825 8.3,20.195 10.35,20.125 C13.19,20.025 16.27,19.085 18.9101,17.005 C20.1301,16.045 21.2801,14.815 22.32,13.515 L12.1101,49.975 L14.7801,50.725 L33.45,-15.495 L34.3301,-18.615 C34.5301,-19.355 34.22,-20.035 33.47,-20.295"/>
<path class="Rest" transform="matrix(2.12598,0,0,2.12598,2884.65,607.985)" d="M33.47,-20.295 C32.72,-20.555 32.05,-20.195 31.74,-19.575 C31.4301,-18.955 28.6101,-13.525 24.3,-10.125 C22.95,-9.05498 21.39,-8.36504 19.8301,-7.98496 C20.9,-9.28496 21.5301,-10.955 21.47,-12.775 C21.3301,-16.715 18.0301,-19.795 14.09,-19.655 C10.15,-19.515 7.07002,-16.215 7.21006,-12.275 C7.32002,-9.26504 9.27002,-6.76504 11.94,-5.80498 C13.5,-5.125 15.4101,-4.75498 17.4601,-4.825 C20.3,-4.925 23.3801,-5.86504 26.02,-7.94502 C27.25,-8.91504 28.4,-10.145 29.44,-11.445 L29.4301,-11.425 L24.94,4.48496 C24.94,4.49502 24.9301,4.50498 24.92,4.51504 L24.92,4.525 C24.4601,5.48496 21.2101,11.655 17.19,14.825 C15.84,15.895 14.2801,16.585 12.72,16.965 C13.79,15.665 14.42,13.995 14.3601,12.175 C14.22,8.23496 10.92,5.15498 6.98008,5.29502 C3.04004,5.43496 -0.0399414,8.73496 0.1,12.675 C0.210059,15.685 2.16006,18.185 4.83008,19.145 C6.39004,19.825 8.3,20.195 10.35,20.125 C13.19,20.025 16.27,19.085 18.9101,17.005 C20.1301,16.045 21.2801,14.815 22.32,13.515 L12.1101,49.975 L14.7801,50.725 L33.45,-15.495 L34.3301,-18.615 C34.5301,-19.355 34.22,-20.035 33.47,-20.295"/>
<path class="Rest" transform="matrix(2.12598,0,0,2.12598,3293.85,607.985)" d="M26.73,-20.26 C25.9899,-20.5399 25.31,-20.21 24.98,-19.6 C24.65,-18.9899 21.4699,-13.06 17.0399,-9.8 C15.65,-8.77998 14.0699,-8.13994 12.5,-7.80996 C13.6199,-9.06992 14.3,-10.73 14.3,-12.55 C14.3,-16.5 11.1,-19.7 7.15,-19.7 C3.2,-19.7 0,-16.5 0,-12.55 C0,-9.53994 1.86992,-6.95996 4.50996,-5.90996 C6.03994,-5.17998 7.95,-4.73994 10,-4.73994 C12.85,-4.73994 15.96,-5.56992 18.6699,-7.55996 C19.93,-8.48994 21.13,-9.67998 22.21,-10.9399 L10.8199,24.69 L13.46,25.54 L27.53,-18.55 C27.76,-19.28 27.4699,-19.9699 26.73,-20.26"/>
<path class="Rest" transform="matrix(2.12598,0,0,2.12598,3710.95,607.985)" d="M26.73,-20.26 C25.9899,-20.5399 25.31,-20.21 24.98,-19.6 C24.65,-18.9899 21.4699,-13.06 17.0399,-9.8 C15.65,-8.77998 14.0699,-8.13994 12.5,-7.80996 C13.6199,-9.06992 14.3,-10.73 14.3,-12.55 C14.3,-16.5 11.1,-19.7 7.15,-19.7 C3.2,-19.7 0,-16.5 0,-12.55 C0,-9.53994 1.86992,-6.95996 4.50996,-5.90996 C6.03994,-5.17998 7.95,-4.73994 10,-4.73994 C12.85,-4.73994 15.96,-5.56992 18.6699,-7.55996 C19.93,-8.48994 21.13,-9.67998 22.21,-10.9399 L10.8199,24.69 L13.46,25.54 L27.53,-18.55 C27.76,-19.28 27.4699,-19.9699 26.73,-20.26"/>
<path class="Rest" transform="matrix(2.12598,0,0,2.12598,540.459,1400.96)" d="M26.73,-20.26 C25.9899,-20.5399 25.31,-20.21 24.98,-19.6 C24.65,-18.9899 21.4699,-13.06 17.0399,-9.8 C15.65,-8.77998 14.0699,-8.13994 12.5,-7.80996 C13.6199,-9.06992 14.3,-10.73 14.3,-12.55 C14.3,-16.5 11.1,-19.7 7.15,-19.7 C3.2,-19.7 0,-16.5 0,-12.55 C0,-9.53994 1.86992,-6.95996 4.50996,-5.90996 C6.03994,-5.17998 7.95,-4.73994 10,-4.73994 C12.85,-4.73994 15.96,-5.56992 18.6699,-7.55996 C19.93,-8.48994 21.13,-9.67998 22.21,-10.9399 L10.8199,24.69 L13.46,25.54 L27.53,-18.55 C27.76,-19.28 27.4699,-19.9699 26.73,-20.26"/>
<path class="Rest" transform="matrix(2.12598,0,0,2.12598,2738.56,1400.96)" d="M33.47,-20.295 C32.72,-20.555 32.05,-20.195 31.74,-19.575 C31.4301,-18.955 28.6101,-13.525 24.3,-10.125 C22.95,-9.05498 21.39,-8.36504 19.8301,-7.98496 C20.9,-9.28496 21.5301,-10.955 21.47,-12.775 C21.3301,-16.715 18.0301,-19.795 14.09,-19.655 C10.15,-19.515 7.07002,-16.215 7.21006,-12.275 C7.32002,-9.26504 9.27002,-6.76504 11.94,-5.80498 C13.5,-5.125 15.4101,-4.75498 17.4601,-4.825 C20.3,-4.925 23.3801,-5.86504 26.02,-7.94502 C27.25,-8.91504 28.4,-10.145 29.44,-11.445 L29.4301,-11.425 L24.94,4.48496 C24.94,4.49502 24.9301,4.50498 24.92,4.51504 L24.92,4.525 C24.4601,5.48496 21.2101,11.655 17.19,14.825 C15.84,15.895 14.2801,16.585 12.72,16.965 C13.79,15.665 14.42,13.995 14.3601,12.175 C14.22,8.23496 10.92,5.15498 6.98008,5.29502 C3.04004,5.43496 -0.0399414,8.73496 0.1,12.675 C0.210059,15.685 2.16006,18.185 4.83008,19.145 C6.39004,19.825 8.3,20.195 10.35,20.125 C13.19,20.025 16.27,19.085 18.9101,17.005 C20.1301,16.045 21.2801,14.815 22.32,13.515 L12.1101,49.975 L14.7801,50.725 L33.45,-15.495 L34.3301,-18.615 C34.5301,-19.355 34.22,-20.035 33.47,-20.295"/>
<path class="Rest" transform="matrix(2.12598,0,0,2.12598,3087.92,1400.96)" d="M33.47,-20.295 C32.72,-20.555 32.05,-20.195 31.74,-19.575 C31.4301,-18.955 28.6101,-13.525 24.3,-10.125 C22.95,-9.05498 21.39,-8.36504 19.8301,-7.98496 C20.9,-9.28496 21.5301,-10.955 21.47,-12.775 C21.3301,-16.715 18.0301,-19.795 14.09,-19.655 C10.15,-19.515 7.07002,-16.215 7.21006,-12.275 C7.32002,-9.26504 9.27002,-6.76504 11.94,-5.80498 C13.5,-5.125 15.4101,-4.75498 17.4601,-4.825 C20.3,-4.925 23.3801,-5.86504 26.02,-7.94502 C27.25,-8.91504 28.4,-10.145 29.44,-11.445 L29.4301,-11.425 L24.94,4.48496 C24.94,4.49502 24.9301,4.50498 24.92,4.51504 L24.92,4.525 C24.4601,5.48496 21.2101,11.655 17.19,14.825 C15.84,15.895 14.2801,16.585 12.72,16.965 C13.79,15.665 14.42,13.995 14.3601,12.175 C14.22,8.23496 10.92,5.15498 6.98008,5.29502 C3.04004,5.43496 -0.0399414,8.73496 0.1,12.675 C0.210059,15.685 2.16006,18.185 4.83008,19.145 C6.39004,19.825 8.3,20.195 10.35,20.125 C13.19,20.025 16.27,19.085 18.9101,17.005 C20.1301,16.045 21.2801,14.815 22.32,13.515 L12.1101,49.975 L14.7801,50.725 L33.45,-15.495 L34.3301,-18.615 C34.5301,-19.355 34.22,-20.035 33.47,-20.295"/>
<path class="Rest" transform="matrix(2.12598,0,0,2.12598,3437.27,1400.96)" d="M26.73,-20.26 C25.9899,-20.5399 25.31,-20.21 24.98,-19.6 C24.65,-18.9899 21.4699,-13.06 17.0399,-9.8 C15.65,-8.77998 14.0699,-8.13994 12.5,-7.80996 C13.6199,-9.06992 14.3,-10.73 14.3,-12.55 C14.3,-16.5 11.1,-19.7 7.15,-19.7 C3.2,-19.7 0,-16.5 0,-12.55 C0,-9.53994 1.86992,-6.95996 4.50996,-5.90996 C6.03994,-5.17998 7.95,-4.73994 10,-4.73994 C12.85,-4.73994 15.96,-5.56992 18.6699,-7.55996 C19.93,-8.48994 21.13,-9.67998 22.21,-10.9399 L10.8199,24.69 L13.46,25.54 L27.53,-18.55 C27.76,-19.28 27.4699,-19.9699 26.73,-20.26"/>
<path class="Rest" transform="matrix(2.12598,0,0,2.12598,3782.6,1400.96)" d="M26.73,-20.26 C25.9899,-20.5399 25.31,-20.21 24.98,-19.6 C24.65,-18.9899 21.4699,-13.06 17.0399,-9.8 C15.65,-8.77998 14.0699,-8.13994 12.5,-7.80996 C13.6199,-9.06992 14.3,-10.73 14.3,-12.55 C14.3,-16.5 11.1,-19.7 7.15,-19.7 C3.2,-19.7 0,-16.5 0,-12.55 C0,-9.53994 1.86992,-6.95996 4.50996,-5.90996 C6.03994,-5.17998 7.95,-4.73994 10,-4.73994 C12.85,-4.73994 15.96,-5.56992 18.6699,-7.55996 C19.93,-8.48994 21.13,-9.67998 22.21,-10.9399 L10.8199,24.69 L13.46,25.54 L27.53,-18.55 C27.76,-19.28 27.4699,-19.9699 26.73,-20.26"/>
<path class="Rest" transform="matrix(2.12598,0,0,2.12598,910.761,2193.93)" d="M26.73,-20.26 C25.9899,-20.5399 25.31,-20.21 24.98,-19.6 C24.65,-18.9899 21.4699,-13.06 17.0399,-9.8 C15.65,-8.77998 14.0699,-8.13994 12.5,-7.80996 C13.6199,-9.06992 14.3,-10.73 14.3,-12.55 C14.3,-16.5 11.1,-19.7 7.15,-19.7 C3.2,-19.7 0,-16.5 0,-12.55 C0,-9.53994 1.86992,-6.95996 4.50996,-5.90996 C6.03994,-5.17998 7.95,-4.73994 10,-4.73994 C12.85,-4.73994 15.96,-5.56992 18.6699,-7.55996 C19.93,-8.48994 21.13,-9.67998 22.21,-10.9399 L10.8199,24.69 L13.46,25.54 L27.53,-18.55 C27.76,-19.28 27.4699,-19.9699 26.73,-20.26"/>
<path class="Rest" transform="matrix(2.12598,0,0,2.12598,1164.13,2193.93)" d="M23.2,16.9 L23,16.6 C22.9,16.5 22.7,16.3 22.4,15.9 L10.9,1.7 C10.6,1.4 10.7,0.6 10.9,0.2 L21.1,-15.2 C21.2,-15.4 21.3,-15.7 21.3,-15.9 L21.3,-16.8 C21.3,-17.1 21.2,-17.4 21,-17.6 L4.8,-39.5 C4.8,-39.5 4,-40.7 3,-39.8 C2,-39 2.8,-37.7 2.8,-37.7 L10.4,-27.3 C10.8,-26.7 10.8,-25.5 10.4,-24.9 L0.3,-9.5 C0.2,-9.3 0.1,-8.9 0.1,-8.7 L0.1,-7.8 C0.1,-7.5 0.2,-7.2 0.4,-7 L11.6,6.9 C11.2,6.8 10.3,6.6 9.1,6.6 C7.4,6.6 5.2,7 3.4,8.6 C1.2,10.6 0,13.4 0,15.9 C0,17.3 0.3,18.7 1.1,19.8 C3.2,23 10.7,32.5 10.7,32.5 C10.7,32.5 11.6,33.6 12.5,32.9 C13.4,32.2 13.2,31.3 12.9,30.8 C12.6,30.3 9.4,24.5 9.4,24.5 C9.4,24.5 8.7,23.1 8.7,21.3 C8.7,20 9.1,18.4 10.4,17.1 C11.6,15.9 13,15.5 14.3,15.5 C15.6,15.5 16.7,15.9 17.5,16.4 L21.4,18.9 C21.4,18.9 22.6,19.5 23.2,18.6 C23.7,17.8 23.5,17.4 23.2,16.9"/>
<path class="Rest" transform="matrix(2.12598,0,0,2.12598,1569.53,2193.93)" d="M26.73,-20.26 C25.9899,-20.5399 25.31,-20.21 24.98,-19.6 C24.65,-18.9899 21.4699,-13.06 17.0399,-9.8 C15.65,-8.77998 14.0699,-8.13994 12.5,-7.80996 C13.6199,-9.06992 14.3,-10.73 14.3,-12.55 C14.3,-16.5 11.1,-19.7 7.15,-19.7 C3.2,-19.7 0,-16.5 0,-12.55 C0,-9.53994 1.86992,-6.95996 4.50996,-5.90996 C6.03994,-5.17998 7.95,-4.73994 10,-4.73994 C12.85,-4.73994 15.96,-5.56992 18.6699,-7.55996 C19.93,-8.48994 21.13,-9.67998 22.21,-10.9399 L10.8199,24.69 L13.46,25.54 L27.53,-18.55 C27.76,-19.28 27.4699,-19.9699 26.73,-20.26"/>
<path class="Rest" transform="matrix(2.12598,0,0,2.12598,3073.22,2193.93)" d="M26.73,-20.26 C25.9899,-20.5399 25.31,-20.21 24.98,-19.6 C24.65,-18.9899 21.4699,-13.06 17.0399,-9.8 C15.65,-8.77998 14.0699,-8.13994 12.5,-7.80996 C13.6199,-9.06992 14.3,-10.73 14.3,-12.55 C14.3,-16.5 11.1,-19.7 7.15,-19.7 C3.2,-19.7 0,-16.5 0,-12.55 C0,-9.53994 1.86992,-6.95996 4.50996,-5.90996 C6.03994,-5.17998 7.95,-4.73994 10,-4.73994 C12.85,-4.73994 15.96,-5.56992 18.6699,-7.55996 C19.93,-8.48994 21.13,-9.67998 22.21,-10.9399 L10.8199,24.69 L13.46,25.54 L27.53,-18.55 C27.76,-19.28 27.4699,-19.9699 26.73,-20.26"/>
<path class="Rest" transform="matrix(2.12598,0,0,2.12598,3283.17,2193.93)" d="M23.2,16.9 L23,16.6 C22.9,16.5 22.7,16.3 22.4,15.9 L10.9,1.7 C10.6,1.4 10.7,0.6 10.9,0.2 L21.1,-15.2 C21.2,-15.4 21.3,-15.7 21.3,-15.9 L21.3,-16.8 C21.3,-17.1 21.2,-17.4 21,-17.6 L4.8,-39.5 C4.8,-39.5 4,-40.7 3,-39.8 C2,-39 2.8,-37.7 2.8,-37.7 L10.4,-27.3 C10.8,-26.7 10.8,-25.5 10.4,-24.9 L0.3,-9.5 C0.2,-9.3 0.1,-8.9 0.1,-8.7 L0.1,-7.8 C0.1,-7.5 0.2,-7.2 0.4,-7 L11.6,6.9 C11.2,6.8 10.3,6.6 9.1,6.6 C7.4,6.6 5.2,7 3.4,8.6 C1.2,10.6 0,13.4 0,15.9 C0,17.3 0.3,18.7 1.1,19.8 C3.2,23 10.7,32.5 10.7,32.5 C10.7,32.5 11.6,33.6 12.5,32.9 C13.4,32.2 13.2,31.3 12.9,30.8 C12.6,30.3 9.4,24.5 9.4,24.5 C9.4,24.5 8.7,23.1 8.7,21.3 C8.7,20 9.1,18.4 10.4,17.1 C11.6,15.9 13,15.5 14.3,15.5 C15.6,15.5 16.7,15.9 17.5,16.4 L21.4,18.9 C21.4,18.9 22.6,19.5 23.2,18.6 C23.7,17.8 23.5,17.4 23.2,16.9"/>
<path class="Rest" transform="matrix(2.12598,0,0,2.12598,3619.1,2193.93)" d="M0,-11.8 L0,-1 C0,0.4 0,0.4 1.4,0.4 L31.1,0.4 C32.5,0.4 32.5,0.4 32.5,-1 L32.5,-11.8 C32.5,-13.2 32.5,-13.2 31.1,-13.2 L1.4,-13.2 C0,-13.2 0,-13.2 0,-11.8"/>
<path class="Beam" fill-rule="evenodd" d="M1558.08,754.121 L1778.21,740.471 L1778.21,767.097 L1558.08,780.746 L1558.08,754.121 "/>
<path class="Beam" fill-rule="evenodd" d="M1003.91,1547.09 L1241.49,1560.72 L1241.49,1587.34 L1003.91,1573.71 L1003.91,1547.09 "/>
<path class="Beam" fill-rule="evenodd" d="M1467.37,1586.98 L2168.4,1586.98 L2168.4,1613.55 L1467.37,1613.55 L1467.37,1586.98 "/>
<path class="Beam" fill-rule="evenodd" d="M2076.27,2340.07 L2335.49,2326.47 L2335.49,2353.09 L2076.27,2366.68 L2076.27,2340.07 "/>
<path class="Hook" transform="matrix(2.12598,0,0,2.12598,1343.79,820.583)" d="M2.5,0.4 C2.5,0.2 3.4,-3.2 3.5,-3.5 C3.6,-3.9 5.4,-9.6 9.1,-15.3 C11.8,-19.5 21.3,-31.8 21,-31.8 C21,-31.8 28.4,-41.3 28.9,-54.2 L28.9,-56.5 C28.9,-62.6 28.1,-71.2 24.6,-79.9 C24.2,-80.9 23.8,-81.9 22.7,-81.5 C21.6,-81.1 21.9,-79.9 22.2,-78.8 C24,-71.8 25,-64.6 25,-57.4 C25,-49 22,-44.8 20.2,-41.7 C13.6,-30.6 5,-25.2 0.8,-23.8 C0.3,-23.6 0,-23.2 0,-22.7 L0,-16.5 L0,-0.1 C0,0.6 0.6,1.2 1.3,1.2 C1.8,1.2 2.4,0.8 2.5,0.4"/>
<path class="Hook" transform="matrix(2.12598,0,0,2.12598,2266.9,740.859)" d="M2.5,0.4 C2.5,0.2 3.4,-3.2 3.5,-3.5 C3.6,-3.9 5.4,-9.6 9.1,-15.3 C11.8,-19.5 21.3,-31.8 21,-31.8 C21,-31.8 28.4,-41.3 28.9,-54.2 L28.9,-56.5 C28.9,-62.6 28.1,-71.2 24.6,-79.9 C24.2,-80.9 23.8,-81.9 22.7,-81.5 C21.6,-81.1 21.9,-79.9 22.2,-78.8 C24,-71.8 25,-64.6 25,-57.4 C25,-49 22,-44.8 20.2,-41.7 C13.6,-30.6 5,-25.2 0.8,-23.8 C0.3,-23.6 0,-23.2 0,-22.7 L0,-16.5 L0,-0.1 C0,0.6 0.6,1.2 1.3,1.2 C1.8,1.2 2.4,0.8 2.5,0.4"/>
<path class="Hook" transform="matrix(2.12598,0,0,2.12598,2676.1,740.859)" d="M2.5,0.4 C2.5,0.2 3.4,-3.2 3.5,-3.5 C3.6,-3.9 5.4,-9.6 9.1,-15.3 C11.8,-19.5 21.3,-31.8 21,-31.8 C21,-31.8 28.4,-41.3 28.9,-54.2 L28.9,-56.5 C28.9,-62.6 28.1,-71.2 24.6,-79.9 C24.2,-80.9 23.8,-81.9 22.7,-81.5 C21.6,-81.1 21.9,-79.9 22.2,-78.8 C24,-71.8 25,-64.6 25,-57.4 C25,-49 22,-44.8 20.2,-41.7 C13.6,-30.6 5,-25.2 0.8,-23.8 C0.3,-23.6 0,-23.2 0,-22.7 L0,-16.5 L0,-0.1 C0,0.6 0.6,1.2 1.3,1.2 C1.8,1.2 2.4,0.8 2.5,0.4"/>
<path class="Hook" transform="matrix(2.12598,0,0,2.12598,3085.31,794.008)" d="M2.5,0.4 C2.5,0.2 3.4,-3.2 3.5,-3.5 C3.6,-3.9 5.4,-9.6 9.1,-15.3 C11.8,-19.5 21.3,-31.8 21,-31.8 C21,-31.8 28.4,-41.3 28.9,-54.2 L28.9,-56.5 C28.9,-62.6 28.1,-71.2 24.6,-79.9 C24.2,-80.9 23.8,-81.9 22.7,-81.5 C21.6,-81.1 21.9,-79.9 22.2,-78.8 C24,-71.8 25,-64.6 25,-57.4 C25,-49 22,-44.8 20.2,-41.7 C13.6,-30.6 5,-25.2 0.8,-23.8 C0.3,-23.6 0,-23.2 0,-22.7 L0,-16.5 L0,-0.1 C0,0.6 0.6,1.2 1.3,1.2 C1.8,1.2 2.4,0.8 2.5,0.4"/>
<path class="Hook" transform="matrix(2.12598,0,0,2.12598,3502.4,794.008)" d="M2.5,0.4 C2.5,0.2 3.4,-3.2 3.5,-3.5 C3.6,-3.9 5.4,-9.6 9.1,-15.3 C11.8,-19.5 21.3,-31.8 21,-31.8 C21,-31.8 28.4,-41.3 28.9,-54.2 L28.9,-56.5 C28.9,-62.6 28.1,-71.2 24.6,-79.9 C24.2,-80.9 23.8,-81.9 22.7,-81.5 C21.6,-81.1 21.9,-79.9 22.2,-78.8 C24,-71.8 25,-64.6 25,-57.4 C25,-49 22,-44.8 20.2,-41.7 C13.6,-30.6 5,-25.2 0.8,-23.8 C0.3,-23.6 0,-23.2 0,-22.7 L0,-16.5 L0,-0.1 C0,0.6 0.6,1.2 1.3,1.2 C1.8,1.2 2.4,0.8 2.5,0.4"/>
<path class="Hook" transform="matrix(2.12598,0,0,2.12598,3919.49,767.434)" d="M2.5,0.4 C2.5,0.2 3.4,-3.2 3.5,-3.5 C3.6,-3.9 5.4,-9.6 9.1,-15.3 C11.8,-19.5 21.3,-31.8 21,-31.8 C21,-31.8 28.4,-41.3 28.9,-54.2 L28.9,-56.5 C28.9,-62.6 28.1,-71.2 24.6,-79.9 C24.2,-80.9 23.8,-81.9 22.7,-81.5 C21.6,-81.1 21.9,-79.9 22.2,-78.8 C24,-71.8 25,-64.6 25,-57.4 C25,-49 22,-44.8 20.2,-41.7 C13.6,-30.6 5,-25.2 0.8,-23.8 C0.3,-23.6 0,-23.2 0,-22.7 L0,-16.5 L0,-0.1 C0,0.6 0.6,1.2 1.3,1.2 C1.8,1.2 2.4,0.8 2.5,0.4"/>
<path class="Hook" transform="matrix(2.12598,0,0,2.12598,772.187,1613.55)" d="M2.5,0.4 C2.5,0.2 3.4,-3.2 3.5,-3.5 C3.6,-3.9 5.4,-9.6 9.1,-15.3 C11.8,-19.5 21.3,-31.8 21,-31.8 C21,-31.8 28.4,-41.3 28.9,-54.2 L28.9,-56.5 C28.9,-62.6 28.1,-71.2 24.6,-79.9 C24.2,-80.9 23.8,-81.9 22.7,-81.5 C21.6,-81.1 21.9,-79.9 22.2,-78.8 C24,-71.8 25,-64.6 25,-57.4 C25,-49 22,-44.8 20.2,-41.7 C13.6,-30.6 5,-25.2 0.8,-23.8 C0.3,-23.6 0,-23.2 0,-22.7 L0,-16.5 L0,-0.1 C0,0.6 0.6,1.2 1.3,1.2 C1.8,1.2 2.4,0.8 2.5,0.4"/>
<path class="Hook" transform="matrix(2.12598,0,0,2.12598,2589.87,1533.83)" d="M2.5,0.4 C2.5,0.2 3.4,-3.2 3.5,-3.5 C3.6,-3.9 5.4,-9.6 9.1,-15.3 C11.8,-19.5 21.3,-31.8 21,-31.8 C21,-31.8 28.4,-41.3 28.9,-54.2 L28.9,-56.5 C28.9,-62.6 28.1,-71.2 24.6,-79.9 C24.2,-80.9 23.8,-81.9 22.7,-81.5 C21.6,-81.1 21.9,-79.9 22.2,-78.8 C24,-71.8 25,-64.6 25,-57.4 C25,-49 22,-44.8 20.2,-41.7 C13.6,-30.6 5,-25.2 0.8,-23.8 C0.3,-23.6 0,-23.2 0,-22.7 L0,-16.5 L0,-0.1 C0,0.6 0.6,1.2 1.3,1.2 C1.8,1.2 2.4,0.8 2.5,0.4"/>
<path class="Hook" transform="matrix(2.12598,0,0,2.12598,2939.22,1533.83)" d="M2.5,0.4 C2.5,0.2 3.4,-3.2 3.5,-3.5 C3.6,-3.9 5.4,-9.6 9.1,-15.3 C11.8,-19.5 21.3,-31.8 21,-31.8 C21,-31.8 28.4,-41.3 28.9,-54.2 L28.9,-56.5 C28.9,-62.6 28.1,-71.2 24.6,-79.9 C24.2,-80.9 23.8,-81.9 22.7,-81.5 C21.6,-81.1 21.9,-79.9 22.2,-78.8 C24,-71.8 25,-64.6 25,-57.4 C25,-49 22,-44.8 20.2,-41.7 C13.6,-30.6 5,-25.2 0.8,-23.8 C0.3,-23.6 0,-23.2 0,-22.7 L0,-16.5 L0,-0.1 C0,0.6 0.6,1.2 1.3,1.2 C1.8,1.2 2.4,0.8 2.5,0.4"/>
<path class="Hook" transform="matrix(2.12598,0,0,2.12598,3288.57,1586.98)" d="M2.5,0.4 C2.5,0.2 3.4,-3.2 3.5,-3.5 C3.6,-3.9 5.4,-9.6 9.1,-15.3 C11.8,-19.5 21.3,-31.8 21,-31.8 C21,-31.8 28.4,-41.3 28.9,-54.2 L28.9,-56.5 C28.9,-62.6 28.1,-71.2 24.6,-79.9 C24.2,-80.9 23.8,-81.9 22.7,-81.5 C21.6,-81.1 21.9,-79.9 22.2,-78.8 C24,-71.8 25,-64.6 25,-57.4 C25,-49 22,-44.8 20.2,-41.7 C13.6,-30.6 5,-25.2 0.8,-23.8 C0.3,-23.6 0,-23.2 0,-22.7 L0,-16.5 L0,-0.1 C0,0.6 0.6,1.2 1.3,1.2 C1.8,1.2 2.4,0.8 2.5,0.4"/>
<path class="Hook" transform="matrix(2.12598,0,0,2.12598,3633.9,1586.98)" d="M2.5,0.4 C2.5,0.2 3.4,-3.2 3.5,-3.5 C3.6,-3.9 5.4,-9.6 9.1,-15.3 C11.8,-19.5 21.3,-31.8 21,-31.8 C21,-31.8 28.4,-41.3 28.9,-54.2 L28.9,-56.5 C28.9,-62.6 28.1,-71.2 24.6,-79.9 C24.2,-80.9 23.8,-81.9 22.7,-81.5 C21.6,-81.1 21.9,-79.9 22.2,-78.8 C24,-71.8 25,-64.6 25,-57.4 C25,-49 22,-44.8 20.2,-41.7 C13.6,-30.6 5,-25.2 0.8,-23.8 C0.3,-23.6 0,-23.2 0,-22.7 L0,-16.5 L0,-0.1 C0,0.6 0.6,1.2 1.3,1.2 C1.8,1.2 2.4,0.8 2.5,0.4"/>
<path class="Hook" transform="matrix(2.12598,0,0,2.12598,3979.24,1560.4)" d="M2.5,0.4 C2.5,0.2 3.4,-3.2 3.5,-3.5 C3.6,-3.9 5.4,-9.6 9.1,-15.3 C11.8,-19.5 21.3,-31.8 21,-31.8 C21,-31.8 28.4,-41.3 28.9,-54.2 L28.9,-56.5 C28.9,-62.6 28.1,-71.2 24.6,-79.9 C24.2,-80.9 23.8,-81.9 22.7,-81.5 C21.6,-81.1 21.9,-79.9 22.2,-78.8 C24,-71.8 25,-64.6 25,-57.4 C25,-49 22,-44.8 20.2,-41.7 C13.6,-30.6 5,-25.2 0.8,-23.8 C0.3,-23.6 0,-23.2 0,-22.7 L0,-16.5 L0,-0.1 C0,0.6 0.6,1.2 1.3,1.2 C1.8,1.2 2.4,0.8 2.5,0.4"/>
<path class="Hook" transform="matrix(2.12598,0,0,2.12598,657.389,2353.37)" d="M2.5,0.4 C2.5,0.2 3.4,-3.2 3.5,-3.5 C3.6,-3.9 5.4,-9.6 9.1,-15.3 C11.8,-19.5 21.3,-31.8 21,-31.8 C21,-31.8 28.4,-41.3 28.9,-54.2 L28.9,-56.5 C28.9,-62.6 28.1,-71.2 24.6,-79.9 C24.2,-80.9 23.8,-81.9 22.7,-81.5 C21.6,-81.1 21.9,-79.9 22.2,-78.8 C24,-71.8 25,-64.6 25,-57.4 C25,-49 22,-44.8 20.2,-41.7 C13.6,-30.6 5,-25.2 0.8,-23.8 C0.3,-23.6 0,-23.2 0,-22.7 L0,-16.5 L0,-0.1 C0,0.6 0.6,1.2 1.3,1.2 C1.8,1.2 2.4,0.8 2.5,0.4"/>
<path class="Hook" transform="matrix(2.12598,0,0,2.12598,1822.9,2406.52)" d="M2.5,0.4 C2.5,0.2 3.4,-3.2 3.5,-3.5 C3.6,-3.9 5.4,-9.6 9.1,-15.3 C11.8,-19.5 21.3,-31.8 21,-31.8 C21,-31.8 28.4,-41.3 28.9,-54.2 L28.9,-56.5 C28.9,-62.6 28.1,-71.2 24.6,-79.9 C24.2,-80.9 23.8,-81.9 22.7,-81.5 C21.6,-81.1 21.9,-79.9 22.2,-78.8 C24,-71.8 25,-64.6 25,-57.4 C25,-49 22,-44.8 20.2,-41.7 C13.6,-30.6 5,-25.2 0.8,-23.8 C0.3,-23.6 0,-23.2 0,-22.7 L0,-16.5 L0,-0.1 C0,0.6 0.6,1.2 1.3,1.2 C1.8,1.2 2.4,0.8 2.5,0.4"/>
<path class="Hook" transform="matrix(2.12598,0,0,2.12598,2863.27,2353.37)" d="M2.5,0.4 C2.5,0.2 3.4,-3.2 3.5,-3.5 C3.6,-3.9 5.4,-9.6 9.1,-15.3 C11.8,-19.5 21.3,-31.8 21,-31.8 C21,-31.8 28.4,-41.3 28.9,-54.2 L28.9,-56.5 C28.9,-62.6 28.1,-71.2 24.6,-79.9 C24.2,-80.9 23.8,-81.9 22.7,-81.5 C21.6,-81.1 21.9,-79.9 22.2,-78.8 C24,-71.8 25,-64.6 25,-57.4 C25,-49 22,-44.8 20.2,-41.7 C13.6,-30.6 5,-25.2 0.8,-23.8 C0.3,-23.6 0,-23.2 0,-22.7 L0,-16.5 L0,-0.1 C0,0.6 0.6,1.2 1.3,1.2 C1.8,1.2 2.4,0.8 2.5,0.4"/>
<path class="Tempo" d="M513.124,271.969 L506.097,271.969 L506.097,367.93 C503.678,366.497 500.734,365.575 497.354,365.229 C496.42,365.127 495.46,365.089 494.5,365.089 C488.689,365.089 482.43,366.753 476.593,369.914 C469.783,373.588 464.343,378.836 461.284,384.698 C458.212,390.573 457.892,396.359 460.388,400.993 C463.345,406.471 469.758,409.313 477.348,409.313 C482.98,409.313 489.265,407.738 495.268,404.513 C506.25,398.586 513.086,388.794 513.124,380.257 L513.124,271.969 "/>
<path class="Tempo" d="M560.605,383.61 L625.117,383.61 L625.117,368.89 L560.605,368.89 L560.605,383.61 M560.605,357.242 L625.117,357.242 L625.117,342.522 L560.605,342.522 L560.605,357.242 M715.862,304.762 L711.382,304.762 C703.318,310.778 694.23,313.338 678.998,313.594 L678.998,320.762 L684.374,320.762 C695.766,320.762 695.894,321.018 695.766,331.514 L695.766,376.954 C695.766,384.89 695.766,385.274 694.87,386.554 C693.718,387.962 691.158,388.474 684.246,388.474 L680.15,388.474 L680.15,395.386 L731.222,395.386 L731.222,388.474 L727.126,388.474 C720.342,388.474 717.91,387.962 716.758,386.554 C715.862,385.274 715.862,384.762 715.862,376.954 L715.862,304.762 M802.899,361.338 L801.491,367.738 C800.339,372.858 799.571,374.522 798.547,375.162 C797.267,376.058 797.011,376.058 788.947,376.186 L764.243,376.186 C768.723,372.346 772.051,369.914 777.043,366.586 C795.091,354.938 798.803,352.122 802.515,347.386 C806.867,341.626 809.427,334.842 809.427,328.826 C809.427,315.13 795.987,304.762 777.939,304.762 C760.531,304.762 747.091,316.026 747.091,330.618 C747.091,339.578 752.083,345.338 759.763,345.338 C766.419,345.338 770.643,341.114 770.643,334.458 C770.643,328.954 768.211,325.754 762.323,322.938 C760.915,322.298 760.275,321.53 760.275,320.506 C760.275,316.41 767.187,312.058 773.587,312.058 C782.547,312.058 787.667,317.562 787.667,327.034 C787.667,337.658 783.571,345.21 770.003,359.674 C755.667,374.906 750.675,380.666 744.275,389.882 L744.275,395.898 C747.603,395.514 749.011,395.386 750.931,395.386 L799.059,395.386 C801.491,395.386 803.027,395.514 806.867,395.898 L809.811,361.338 L802.899,361.338 M852.048,304.762 C832.848,304.762 818.768,324.346 818.768,350.97 C818.768,377.594 832.848,397.178 852.048,397.178 C870.864,397.178 885.2,377.594 885.2,351.61 C885.2,336.506 881.744,325.37 874.192,315.898 C868.176,308.602 860.624,304.762 852.048,304.762 M851.92,311.418 C855.76,311.418 858.832,313.722 860.24,317.818 C861.904,322.042 862.928,335.482 862.928,351.354 C862.928,364.538 861.904,378.362 860.752,382.714 C859.344,387.834 856.272,390.522 851.92,390.522 C847.952,390.522 845.008,388.346 843.472,384.122 C841.808,379.898 840.784,366.33 840.784,350.97 C840.784,337.53 841.808,323.578 842.96,319.226 C844.368,314.106 847.44,311.418 851.92,311.418"/>
<path class="StaffText" d="M1379.1,336.6 C1373.69,343.119 1359.06,348.048 1344.43,348.366 L1344.43,355.203 L1358.43,355.203 C1367.65,355.362 1368.6,356.316 1368.28,365.22 L1368.28,428.979 C1368.28,437.088 1368.28,437.406 1367.33,438.837 C1366.06,440.427 1363.04,441.063 1354.13,441.063 L1343.8,441.063 L1343.8,448.536 L1406.76,448.536 L1406.76,441.063 L1398.02,441.063 C1389.11,441.063 1386.09,440.427 1384.82,438.837 C1383.71,437.406 1383.71,437.247 1383.71,428.979 L1383.71,363.312 C1383.71,354.408 1384.03,346.935 1384.82,336.6 L1379.1,336.6 M1496.58,414.192 L1489.59,414.192 L1488,422.301 C1485.93,432.636 1484.66,433.59 1474.8,433.59 L1439.18,433.59 C1450.16,422.142 1453.81,418.803 1463.99,410.853 C1478.46,399.723 1484.66,394.158 1488.32,389.388 C1493.4,382.392 1495.95,375.396 1495.95,367.605 C1495.95,349.479 1481,336.6 1460.17,336.6 C1439.98,336.6 1424.56,349.479 1424.56,366.492 C1424.56,376.509 1429.64,383.346 1437.12,383.346 C1443,383.346 1446.98,379.371 1446.98,373.647 C1446.98,369.672 1444.75,366.015 1441.41,364.584 C1435.53,362.199 1435.21,361.881 1435.21,359.814 C1435.21,357.429 1436.8,353.772 1439.03,351.069 C1443,346.14 1449.52,343.437 1456.99,343.437 C1470.19,343.437 1477.98,351.546 1477.98,364.902 C1477.98,376.668 1472.42,387.321 1459.22,401.313 C1447.45,413.715 1440.14,421.506 1437.44,424.527 C1431.71,431.205 1428.85,434.862 1421.85,444.084 L1421.85,448.536 L1493.56,448.536 L1496.58,414.192 "/>
<path class="StaffText" d="M1632.81,307.893 L1625.81,307.893 L1624.22,316.002 C1622.16,326.337 1620.88,327.291 1611.03,327.291 L1575.41,327.291 C1586.38,315.843 1590.04,312.504 1600.21,304.554 C1614.68,293.424 1620.88,287.859 1624.54,283.089 C1629.63,276.093 1632.17,269.097 1632.17,261.306 C1632.17,243.18 1617.23,230.301 1596.4,230.301 C1576.2,230.301 1560.78,243.18 1560.78,260.193 C1560.78,270.21 1565.87,277.047 1573.34,277.047 C1579.23,277.047 1583.2,273.072 1583.2,267.348 C1583.2,263.373 1580.97,259.716 1577.64,258.285 C1571.75,255.9 1571.43,255.582 1571.43,253.515 C1571.43,251.13 1573.02,247.473 1575.25,244.77 C1579.23,239.841 1585.74,237.138 1593.22,237.138 C1606.41,237.138 1614.21,245.247 1614.21,258.603 C1614.21,270.369 1608.64,281.022 1595.44,295.014 C1583.68,307.416 1576.36,315.207 1573.66,318.228 C1567.94,324.906 1565.07,328.563 1558.08,337.785 L1558.08,342.237 L1629.79,342.237 L1632.81,307.893 "/>
<path class="StaffText" d="M1807.67,124.001 C1802.26,130.52 1787.64,135.449 1773.01,135.767 L1773.01,142.604 L1787,142.604 C1796.22,142.763 1797.18,143.717 1796.86,152.621 L1796.86,216.38 C1796.86,224.489 1796.86,224.807 1795.9,226.238 C1794.63,227.828 1791.61,228.464 1782.71,228.464 L1772.37,228.464 L1772.37,235.937 L1835.34,235.937 L1835.34,228.464 L1826.59,228.464 C1817.69,228.464 1814.67,227.828 1813.39,226.238 C1812.28,224.807 1812.28,224.648 1812.28,216.38 L1812.28,150.713 C1812.28,141.809 1812.6,134.336 1813.39,124.001 L1807.67,124.001 M1925.16,201.593 L1918.16,201.593 L1916.57,209.702 C1914.51,220.037 1913.23,220.991 1903.38,220.991 L1867.76,220.991 C1878.73,209.543 1882.39,206.204 1892.56,198.254 C1907.03,187.124 1913.23,181.559 1916.89,176.789 C1921.98,169.793 1924.52,162.797 1924.52,155.006 C1924.52,136.88 1909.58,124.001 1888.75,124.001 C1868.55,124.001 1853.13,136.88 1853.13,153.893 C1853.13,163.91 1858.22,170.747 1865.69,170.747 C1871.58,170.747 1875.55,166.772 1875.55,161.048 C1875.55,157.073 1873.32,153.416 1869.99,151.985 C1864.1,149.6 1863.78,149.282 1863.78,147.215 C1863.78,144.83 1865.37,141.173 1867.6,138.47 C1871.58,133.541 1878.09,130.838 1885.57,130.838 C1898.76,130.838 1906.56,138.947 1906.56,152.303 C1906.56,164.069 1900.99,174.722 1887.79,188.714 C1876.03,201.116 1868.71,208.907 1866.01,211.928 C1860.29,218.606 1857.42,222.263 1850.43,231.485 L1850.43,235.937 L1922.14,235.937 L1925.16,201.593 "/>
<path class="StaffText" d="M2302.21,70.8519 C2296.8,77.3709 2282.17,82.2999 2267.54,82.6179 L2267.54,89.4549 L2281.54,89.4549 C2290.76,89.6139 2291.71,90.5679 2291.39,99.4719 L2291.39,163.231 C2291.39,171.34 2291.39,171.658 2290.44,173.089 C2289.17,174.679 2286.15,175.315 2277.24,175.315 L2266.91,175.315 L2266.91,182.788 L2329.87,182.788 L2329.87,175.315 L2321.13,175.315 C2312.22,175.315 2309.2,174.679 2307.93,173.089 C2306.82,171.658 2306.82,171.499 2306.82,163.231 L2306.82,97.5639 C2306.82,88.6599 2307.14,81.1869 2307.93,70.8519 L2302.21,70.8519 "/>
<path class="StaffText" d="M2711.41,70.8519 C2706,77.3709 2691.38,82.2999 2676.75,82.6179 L2676.75,89.4549 L2690.74,89.4549 C2699.96,89.6139 2700.92,90.5679 2700.6,99.4719 L2700.6,163.231 C2700.6,171.34 2700.6,171.658 2699.64,173.089 C2698.37,174.679 2695.35,175.315 2686.45,175.315 L2676.11,175.315 L2676.11,182.788 L2739.08,182.788 L2739.08,175.315 L2730.33,175.315 C2721.43,175.315 2718.41,174.679 2717.13,173.089 C2716.02,171.658 2716.02,171.499 2716.02,163.231 L2716.02,97.5639 C2716.02,88.6599 2716.34,81.1869 2717.13,70.8519 L2711.41,70.8519 "/>
<path class="StaffText" d="M3160.04,307.893 L3153.04,307.893 L3151.45,316.002 C3149.38,326.337 3148.11,327.291 3138.25,327.291 L3102.64,327.291 C3113.61,315.843 3117.27,312.504 3127.44,304.554 C3141.91,293.424 3148.11,287.859 3151.77,283.089 C3156.86,276.093 3159.4,269.097 3159.4,261.306 C3159.4,243.18 3144.46,230.301 3123.63,230.301 C3103.43,230.301 3088.01,243.18 3088.01,260.193 C3088.01,270.21 3093.1,277.047 3100.57,277.047 C3106.45,277.047 3110.43,273.072 3110.43,267.348 C3110.43,263.373 3108.2,259.716 3104.86,258.285 C3098.98,255.9 3098.66,255.582 3098.66,253.515 C3098.66,251.13 3100.25,247.473 3102.48,244.77 C3106.45,239.841 3112.97,237.138 3120.45,237.138 C3133.64,237.138 3141.43,245.247 3141.43,258.603 C3141.43,270.369 3135.87,281.022 3122.67,295.014 C3110.91,307.416 3103.59,315.207 3100.89,318.228 C3095.17,324.906 3092.3,328.563 3085.31,337.785 L3085.31,342.237 L3157.02,342.237 L3160.04,307.893 "/>
<path class="StaffText" d="M3577.13,307.893 L3570.14,307.893 L3568.55,316.002 C3566.48,326.337 3565.21,327.291 3555.35,327.291 L3519.73,327.291 C3530.7,315.843 3534.36,312.504 3544.54,304.554 C3559.01,293.424 3565.21,287.859 3568.86,283.089 C3573.95,276.093 3576.5,269.097 3576.5,261.306 C3576.5,243.18 3561.55,230.301 3540.72,230.301 C3520.53,230.301 3505.1,243.18 3505.1,260.193 C3505.1,270.21 3510.19,277.047 3517.67,277.047 C3523.55,277.047 3527.52,273.072 3527.52,267.348 C3527.52,263.373 3525.3,259.716 3521.96,258.285 C3516.08,255.9 3515.76,255.582 3515.76,253.515 C3515.76,251.13 3517.35,247.473 3519.57,244.77 C3523.55,239.841 3530.07,237.138 3537.54,237.138 C3550.74,237.138 3558.53,245.247 3558.53,258.603 C3558.53,270.369 3552.96,281.022 3539.77,295.014 C3528,307.416 3520.69,315.207 3517.98,318.228 C3512.26,324.906 3509.4,328.563 3502.4,337.785 L3502.4,342.237 L3574.11,342.237 L3577.13,307.893 "/>
<path class="StaffText" d="M3954.8,124.001 C3949.39,130.52 3934.77,135.449 3920.14,135.767 L3920.14,142.604 L3934.13,142.604 C3943.35,142.763 3944.31,143.717 3943.99,152.621 L3943.99,216.38 C3943.99,224.489 3943.99,224.807 3943.03,226.238 C3941.76,227.828 3938.74,228.464 3929.84,228.464 L3919.5,228.464 L3919.5,235.937 L3982.47,235.937 L3982.47,228.464 L3973.72,228.464 C3964.82,228.464 3961.8,227.828 3960.52,226.238 C3959.41,224.807 3959.41,224.648 3959.41,216.38 L3959.41,150.713 C3959.41,141.809 3959.73,134.336 3960.52,124.001 L3954.8,124.001 M4072.29,201.593 L4065.29,201.593 L4063.7,209.702 C4061.63,220.037 4060.36,220.991 4050.5,220.991 L4014.89,220.991 C4025.86,209.543 4029.52,206.204 4039.69,198.254 C4054.16,187.124 4060.36,181.559 4064.02,176.789 C4069.11,169.793 4071.65,162.797 4071.65,155.006 C4071.65,136.88 4056.71,124.001 4035.88,124.001 C4015.68,124.001 4000.26,136.88 4000.26,153.893 C4000.26,163.91 4005.35,170.747 4012.82,170.747 C4018.7,170.747 4022.68,166.772 4022.68,161.048 C4022.68,157.073 4020.45,153.416 4017.11,151.985 C4011.23,149.6 4010.91,149.282 4010.91,147.215 C4010.91,144.83 4012.5,141.173 4014.73,138.47 C4018.7,133.541 4025.22,130.838 4032.7,130.838 C4045.89,130.838 4053.68,138.947 4053.68,152.303 C4053.68,164.069 4048.12,174.722 4034.92,188.714 C4023.16,201.116 4015.84,208.907 4013.14,211.928 C4007.42,218.606 4004.55,222.263 3997.56,231.485 L3997.56,235.937 L4069.27,235.937 L4072.29,201.593 "/>
<path class="StaffText" d="M807.494,1129.57 C802.088,1136.09 787.46,1141.02 772.832,1141.34 L772.832,1148.17 L786.824,1148.17 C796.046,1148.33 797,1149.29 796.682,1158.19 L796.682,1221.95 C796.682,1230.06 796.682,1230.38 795.728,1231.81 C794.456,1233.4 791.435,1234.03 782.531,1234.03 L772.196,1234.03 L772.196,1241.51 L835.16,1241.51 L835.16,1234.03 L826.415,1234.03 C817.511,1234.03 814.49,1233.4 813.218,1231.81 C812.105,1230.38 812.105,1230.22 812.105,1221.95 L812.105,1156.28 C812.105,1147.38 812.423,1139.91 813.218,1129.57 L807.494,1129.57 M924.982,1207.16 L917.986,1207.16 L916.396,1215.27 C914.329,1225.61 913.057,1226.56 903.199,1226.56 L867.583,1226.56 C878.554,1215.11 882.211,1211.77 892.387,1203.82 C906.856,1192.69 913.057,1187.13 916.714,1182.36 C921.802,1175.36 924.346,1168.37 924.346,1160.58 C924.346,1142.45 909.4,1129.57 888.571,1129.57 C868.378,1129.57 852.955,1142.45 852.955,1159.46 C852.955,1169.48 858.043,1176.32 865.516,1176.32 C871.399,1176.32 875.374,1172.34 875.374,1166.62 C875.374,1162.64 873.148,1158.99 869.809,1157.55 C863.926,1155.17 863.608,1154.85 863.608,1152.78 C863.608,1150.4 865.198,1146.74 867.424,1144.04 C871.399,1139.11 877.918,1136.41 885.391,1136.41 C898.588,1136.41 906.379,1144.52 906.379,1157.87 C906.379,1169.64 900.814,1180.29 887.617,1194.28 C875.851,1206.69 868.537,1214.48 865.834,1217.5 C860.11,1224.18 857.248,1227.83 850.252,1237.05 L850.252,1241.51 L921.961,1241.51 L924.982,1207.16 "/>
<path class="StaffText" d="M1078.65,1100.86 L1071.65,1100.86 L1070.06,1108.97 C1067.99,1119.31 1066.72,1120.26 1056.86,1120.26 L1021.25,1120.26 C1032.22,1108.81 1035.88,1105.47 1046.05,1097.52 C1060.52,1086.39 1066.72,1080.83 1070.38,1076.06 C1075.47,1069.06 1078.01,1062.07 1078.01,1054.28 C1078.01,1036.15 1063.06,1023.27 1042.24,1023.27 C1022.04,1023.27 1006.62,1036.15 1006.62,1053.16 C1006.62,1063.18 1011.71,1070.02 1019.18,1070.02 C1025.06,1070.02 1029.04,1066.04 1029.04,1060.32 C1029.04,1056.34 1026.81,1052.69 1023.47,1051.26 C1017.59,1048.87 1017.27,1048.55 1017.27,1046.49 C1017.27,1044.1 1018.86,1040.44 1021.09,1037.74 C1025.06,1032.81 1031.58,1030.11 1039.06,1030.11 C1052.25,1030.11 1060.04,1038.22 1060.04,1051.57 C1060.04,1063.34 1054.48,1073.99 1041.28,1087.98 C1029.52,1100.39 1022.2,1108.18 1019.5,1111.2 C1013.77,1117.88 1010.91,1121.53 1003.92,1130.76 L1003.92,1135.21 L1075.63,1135.21 L1078.65,1100.86 "/>
<path class="StaffText" d="M1270.95,1129.57 C1265.54,1136.09 1250.91,1141.02 1236.29,1141.34 L1236.29,1148.17 L1250.28,1148.17 C1259.5,1148.33 1260.45,1149.29 1260.14,1158.19 L1260.14,1221.95 C1260.14,1230.06 1260.14,1230.38 1259.18,1231.81 C1257.91,1233.4 1254.89,1234.03 1245.99,1234.03 L1235.65,1234.03 L1235.65,1241.51 L1298.61,1241.51 L1298.61,1234.03 L1289.87,1234.03 C1280.97,1234.03 1277.94,1233.4 1276.67,1231.81 C1275.56,1230.38 1275.56,1230.22 1275.56,1221.95 L1275.56,1156.28 C1275.56,1147.38 1275.88,1139.91 1276.67,1129.57 L1270.95,1129.57 M1388.44,1207.16 L1381.44,1207.16 L1379.85,1215.27 C1377.78,1225.61 1376.51,1226.56 1366.65,1226.56 L1331.04,1226.56 C1342.01,1215.11 1345.67,1211.77 1355.84,1203.82 C1370.31,1192.69 1376.51,1187.13 1380.17,1182.36 C1385.26,1175.36 1387.8,1168.37 1387.8,1160.58 C1387.8,1142.45 1372.85,1129.57 1352.03,1129.57 C1331.83,1129.57 1316.41,1142.45 1316.41,1159.46 C1316.41,1169.48 1321.5,1176.32 1328.97,1176.32 C1334.85,1176.32 1338.83,1172.34 1338.83,1166.62 C1338.83,1162.64 1336.6,1158.99 1333.26,1157.55 C1327.38,1155.17 1327.06,1154.85 1327.06,1152.78 C1327.06,1150.4 1328.65,1146.74 1330.88,1144.04 C1334.85,1139.11 1341.37,1136.41 1348.85,1136.41 C1362.04,1136.41 1369.83,1144.52 1369.83,1157.87 C1369.83,1169.64 1364.27,1180.29 1351.07,1194.28 C1339.31,1206.69 1331.99,1214.48 1329.29,1217.5 C1323.56,1224.18 1320.7,1227.83 1313.71,1237.05 L1313.71,1241.51 L1385.42,1241.51 L1388.44,1207.16 "/>
<path class="StaffText" d="M1542.1,1100.86 L1535.11,1100.86 L1533.52,1108.97 C1531.45,1119.31 1530.18,1120.26 1520.32,1120.26 L1484.7,1120.26 C1495.67,1108.81 1499.33,1105.47 1509.51,1097.52 C1523.98,1086.39 1530.18,1080.83 1533.83,1076.06 C1538.92,1069.06 1541.47,1062.07 1541.47,1054.28 C1541.47,1036.15 1526.52,1023.27 1505.69,1023.27 C1485.5,1023.27 1470.07,1036.15 1470.07,1053.16 C1470.07,1063.18 1475.16,1070.02 1482.64,1070.02 C1488.52,1070.02 1492.49,1066.04 1492.49,1060.32 C1492.49,1056.34 1490.27,1052.69 1486.93,1051.26 C1481.05,1048.87 1480.73,1048.55 1480.73,1046.49 C1480.73,1044.1 1482.32,1040.44 1484.54,1037.74 C1488.52,1032.81 1495.04,1030.11 1502.51,1030.11 C1515.71,1030.11 1523.5,1038.22 1523.5,1051.57 C1523.5,1063.34 1517.93,1073.99 1504.74,1087.98 C1492.97,1100.39 1485.66,1108.18 1482.95,1111.2 C1477.23,1117.88 1474.37,1121.53 1467.37,1130.76 L1467.37,1135.21 L1539.08,1135.21 L1542.1,1100.86 "/>
<path class="StaffText" d="M1734.4,1129.57 C1729,1136.09 1714.37,1141.02 1699.74,1141.34 L1699.74,1148.17 L1713.73,1148.17 C1722.96,1148.33 1723.91,1149.29 1723.59,1158.19 L1723.59,1221.95 C1723.59,1230.06 1723.59,1230.38 1722.64,1231.81 C1721.37,1233.4 1718.34,1234.03 1709.44,1234.03 L1699.11,1234.03 L1699.11,1241.51 L1762.07,1241.51 L1762.07,1234.03 L1753.32,1234.03 C1744.42,1234.03 1741.4,1233.4 1740.13,1231.81 C1739.01,1230.38 1739.01,1230.22 1739.01,1221.95 L1739.01,1156.28 C1739.01,1147.38 1739.33,1139.91 1740.13,1129.57 L1734.4,1129.57 M1851.89,1207.16 L1844.9,1207.16 L1843.31,1215.27 C1841.24,1225.61 1839.97,1226.56 1830.11,1226.56 L1794.49,1226.56 C1805.46,1215.11 1809.12,1211.77 1819.3,1203.82 C1833.77,1192.69 1839.97,1187.13 1843.62,1182.36 C1848.71,1175.36 1851.26,1168.37 1851.26,1160.58 C1851.26,1142.45 1836.31,1129.57 1815.48,1129.57 C1795.29,1129.57 1779.86,1142.45 1779.86,1159.46 C1779.86,1169.48 1784.95,1176.32 1792.43,1176.32 C1798.31,1176.32 1802.28,1172.34 1802.28,1166.62 C1802.28,1162.64 1800.06,1158.99 1796.72,1157.55 C1790.84,1155.17 1790.52,1154.85 1790.52,1152.78 C1790.52,1150.4 1792.11,1146.74 1794.33,1144.04 C1798.31,1139.11 1804.83,1136.41 1812.3,1136.41 C1825.5,1136.41 1833.29,1144.52 1833.29,1157.87 C1833.29,1169.64 1827.72,1180.29 1814.53,1194.28 C1802.76,1206.69 1795.45,1214.48 1792.74,1217.5 C1787.02,1224.18 1784.16,1227.83 1777.16,1237.05 L1777.16,1241.51 L1848.87,1241.51 L1851.89,1207.16 "/>
<path class="StaffText" d="M2005.56,1100.86 L1998.56,1100.86 L1996.97,1108.97 C1994.9,1119.31 1993.63,1120.26 1983.77,1120.26 L1948.16,1120.26 C1959.13,1108.81 1962.79,1105.47 1972.96,1097.52 C1987.43,1086.39 1993.63,1080.83 1997.29,1076.06 C2002.38,1069.06 2004.92,1062.07 2004.92,1054.28 C2004.92,1036.15 1989.97,1023.27 1969.15,1023.27 C1948.95,1023.27 1933.53,1036.15 1933.53,1053.16 C1933.53,1063.18 1938.62,1070.02 1946.09,1070.02 C1951.97,1070.02 1955.95,1066.04 1955.95,1060.32 C1955.95,1056.34 1953.72,1052.69 1950.38,1051.26 C1944.5,1048.87 1944.18,1048.55 1944.18,1046.49 C1944.18,1044.1 1945.77,1040.44 1948,1037.74 C1951.97,1032.81 1958.49,1030.11 1965.97,1030.11 C1979.16,1030.11 1986.95,1038.22 1986.95,1051.57 C1986.95,1063.34 1981.39,1073.99 1968.19,1087.98 C1956.43,1100.39 1949.11,1108.18 1946.41,1111.2 C1940.68,1117.88 1937.82,1121.53 1930.83,1130.76 L1930.83,1135.21 L2002.54,1135.21 L2005.56,1100.86 "/>
<path class="StaffText" d="M2197.86,916.972 C2192.45,923.491 2177.82,928.42 2163.2,928.738 L2163.2,935.575 L2177.19,935.575 C2186.41,935.734 2187.36,936.688 2187.05,945.592 L2187.05,1009.35 C2187.05,1017.46 2187.05,1017.78 2186.09,1019.21 C2184.82,1020.8 2181.8,1021.43 2172.9,1021.43 L2162.56,1021.43 L2162.56,1028.91 L2225.52,1028.91 L2225.52,1021.43 L2216.78,1021.43 C2207.88,1021.43 2204.85,1020.8 2203.58,1019.21 C2202.47,1017.78 2202.47,1017.62 2202.47,1009.35 L2202.47,943.684 C2202.47,934.78 2202.79,927.307 2203.58,916.972 L2197.86,916.972 M2315.35,994.564 L2308.35,994.564 L2306.76,1002.67 C2304.69,1013.01 2303.42,1013.96 2293.56,1013.96 L2257.95,1013.96 C2268.92,1002.51 2272.58,999.175 2282.75,991.225 C2297.22,980.095 2303.42,974.53 2307.08,969.76 C2312.17,962.764 2314.71,955.768 2314.71,947.977 C2314.71,929.851 2299.76,916.972 2278.94,916.972 C2258.74,916.972 2243.32,929.851 2243.32,946.864 C2243.32,956.881 2248.41,963.718 2255.88,963.718 C2261.76,963.718 2265.74,959.743 2265.74,954.019 C2265.74,950.044 2263.51,946.387 2260.17,944.956 C2254.29,942.571 2253.97,942.253 2253.97,940.186 C2253.97,937.801 2255.56,934.144 2257.79,931.441 C2261.76,926.512 2268.28,923.809 2275.76,923.809 C2288.95,923.809 2296.74,931.918 2296.74,945.274 C2296.74,957.04 2291.18,967.693 2277.98,981.685 C2266.22,994.087 2258.9,1001.88 2256.2,1004.9 C2250.47,1011.58 2247.61,1015.23 2240.62,1024.46 L2240.62,1028.91 L2312.33,1028.91 L2315.35,994.564 "/>
<path class="StaffText" d="M2625.18,863.822 C2619.77,870.341 2605.14,875.27 2590.51,875.588 L2590.51,882.425 L2604.51,882.425 C2613.73,882.584 2614.68,883.538 2614.36,892.442 L2614.36,956.201 C2614.36,964.31 2614.36,964.628 2613.41,966.059 C2612.14,967.649 2609.12,968.285 2600.21,968.285 L2589.88,968.285 L2589.88,975.758 L2652.84,975.758 L2652.84,968.285 L2644.1,968.285 C2635.19,968.285 2632.17,967.649 2630.9,966.059 C2629.79,964.628 2629.79,964.469 2629.79,956.201 L2629.79,890.534 C2629.79,881.63 2630.11,874.157 2630.9,863.822 L2625.18,863.822 "/>
<path class="StaffText" d="M2974.53,863.822 C2969.12,870.341 2954.49,875.27 2939.87,875.588 L2939.87,882.425 L2953.86,882.425 C2963.08,882.584 2964.03,883.538 2963.72,892.442 L2963.72,956.201 C2963.72,964.31 2963.72,964.628 2962.76,966.059 C2961.49,967.649 2958.47,968.285 2949.56,968.285 L2939.23,968.285 L2939.23,975.758 L3002.19,975.758 L3002.19,968.285 L2993.45,968.285 C2984.54,968.285 2981.52,967.649 2980.25,966.059 C2979.14,964.628 2979.14,964.469 2979.14,956.201 L2979.14,890.534 C2979.14,881.63 2979.46,874.157 2980.25,863.822 L2974.53,863.822 "/>
<path class="StaffText" d="M3363.3,1100.86 L3356.31,1100.86 L3354.72,1108.97 C3352.65,1119.31 3351.38,1120.26 3341.52,1120.26 L3305.91,1120.26 C3316.88,1108.81 3320.53,1105.47 3330.71,1097.52 C3345.18,1086.39 3351.38,1080.83 3355.04,1076.06 C3360.12,1069.06 3362.67,1062.07 3362.67,1054.28 C3362.67,1036.15 3347.72,1023.27 3326.89,1023.27 C3306.7,1023.27 3291.28,1036.15 3291.28,1053.16 C3291.28,1063.18 3296.37,1070.02 3303.84,1070.02 C3309.72,1070.02 3313.7,1066.04 3313.7,1060.32 C3313.7,1056.34 3311.47,1052.69 3308.13,1051.26 C3302.25,1048.87 3301.93,1048.55 3301.93,1046.49 C3301.93,1044.1 3303.52,1040.44 3305.75,1037.74 C3309.72,1032.81 3316.24,1030.11 3323.71,1030.11 C3336.91,1030.11 3344.7,1038.22 3344.7,1051.57 C3344.7,1063.34 3339.14,1073.99 3325.94,1087.98 C3314.17,1100.39 3306.86,1108.18 3304.16,1111.2 C3298.43,1117.88 3295.57,1121.53 3288.57,1130.76 L3288.57,1135.21 L3360.28,1135.21 L3363.3,1100.86 "/>
<path class="StaffText" d="M3708.64,1100.86 L3701.64,1100.86 L3700.05,1108.97 C3697.98,1119.31 3696.71,1120.26 3686.85,1120.26 L3651.24,1120.26 C3662.21,1108.81 3665.87,1105.47 3676.04,1097.52 C3690.51,1086.39 3696.71,1080.83 3700.37,1076.06 C3705.46,1069.06 3708,1062.07 3708,1054.28 C3708,1036.15 3693.06,1023.27 3672.23,1023.27 C3652.03,1023.27 3636.61,1036.15 3636.61,1053.16 C3636.61,1063.18 3641.7,1070.02 3649.17,1070.02 C3655.05,1070.02 3659.03,1066.04 3659.03,1060.32 C3659.03,1056.34 3656.8,1052.69 3653.46,1051.26 C3647.58,1048.87 3647.26,1048.55 3647.26,1046.49 C3647.26,1044.1 3648.85,1040.44 3651.08,1037.74 C3655.05,1032.81 3661.57,1030.11 3669.05,1030.11 C3682.24,1030.11 3690.03,1038.22 3690.03,1051.57 C3690.03,1063.34 3684.47,1073.99 3671.27,1087.98 C3659.51,1100.39 3652.19,1108.18 3649.49,1111.2 C3643.77,1117.88 3640.9,1121.53 3633.91,1130.76 L3633.91,1135.21 L3705.62,1135.21 L3708.64,1100.86 "/>
<path class="StaffText" d="M4014.54,916.972 C4009.14,923.491 3994.51,928.42 3979.88,928.738 L3979.88,935.575 L3993.87,935.575 C4003.1,935.734 4004.05,936.688 4003.73,945.592 L4003.73,1009.35 C4003.73,1017.46 4003.73,1017.78 4002.78,1019.21 C4001.51,1020.8 3998.49,1021.43 3989.58,1021.43 L3979.25,1021.43 L3979.25,1028.91 L4042.21,1028.91 L4042.21,1021.43 L4033.47,1021.43 C4024.56,1021.43 4021.54,1020.8 4020.27,1019.21 C4019.16,1017.78 4019.16,1017.62 4019.16,1009.35 L4019.16,943.684 C4019.16,934.78 4019.47,927.307 4020.27,916.972 L4014.54,916.972 M4132.03,994.564 L4125.04,994.564 L4123.45,1002.67 C4121.38,1013.01 4120.11,1013.96 4110.25,1013.96 L4074.63,1013.96 C4085.6,1002.51 4089.26,999.175 4099.44,991.225 C4113.91,980.095 4120.11,974.53 4123.76,969.76 C4128.85,962.764 4131.4,955.768 4131.4,947.977 C4131.4,929.851 4116.45,916.972 4095.62,916.972 C4075.43,916.972 4060,929.851 4060,946.864 C4060,956.881 4065.09,963.718 4072.57,963.718 C4078.45,963.718 4082.42,959.743 4082.42,954.019 C4082.42,950.044 4080.2,946.387 4076.86,944.956 C4070.98,942.571 4070.66,942.253 4070.66,940.186 C4070.66,937.801 4072.25,934.144 4074.47,931.441 C4078.45,926.512 4084.97,923.809 4092.44,923.809 C4105.64,923.809 4113.43,931.918 4113.43,945.274 C4113.43,957.04 4107.86,967.693 4094.67,981.685 C4082.9,994.087 4075.59,1001.88 4072.88,1004.9 C4067.16,1011.58 4064.3,1015.23 4057.3,1024.46 L4057.3,1028.91 L4129.01,1028.91 L4132.03,994.564 "/>
<path class="StaffText" d="M1858.21,1808.78 C1852.8,1815.29 1838.17,1820.22 1823.55,1820.54 L1823.55,1827.38 L1837.54,1827.38 C1846.76,1827.54 1847.71,1828.49 1847.4,1837.4 L1847.4,1901.15 C1847.4,1909.26 1847.4,1909.58 1846.44,1911.01 C1845.17,1912.6 1842.15,1913.24 1833.25,1913.24 L1822.91,1913.24 L1822.91,1920.71 L1885.87,1920.71 L1885.87,1913.24 L1877.13,1913.24 C1868.23,1913.24 1865.2,1912.6 1863.93,1911.01 C1862.82,1909.58 1862.82,1909.42 1862.82,1901.15 L1862.82,1835.49 C1862.82,1826.58 1863.14,1819.11 1863.93,1808.78 L1858.21,1808.78 M1975.7,1886.37 L1968.7,1886.37 L1967.11,1894.48 C1965.04,1904.81 1963.77,1905.77 1953.91,1905.77 L1918.3,1905.77 C1929.27,1894.32 1932.92,1890.98 1943.1,1883.03 C1957.57,1871.9 1963.77,1866.33 1967.43,1861.56 C1972.52,1854.57 1975.06,1847.57 1975.06,1839.78 C1975.06,1821.65 1960.11,1808.78 1939.28,1808.78 C1919.09,1808.78 1903.67,1821.65 1903.67,1838.67 C1903.67,1848.68 1908.76,1855.52 1916.23,1855.52 C1922.11,1855.52 1926.09,1851.55 1926.09,1845.82 C1926.09,1841.85 1923.86,1838.19 1920.52,1836.76 C1914.64,1834.37 1914.32,1834.06 1914.32,1831.99 C1914.32,1829.6 1915.91,1825.95 1918.14,1823.24 C1922.11,1818.32 1928.63,1815.61 1936.1,1815.61 C1949.3,1815.61 1957.09,1823.72 1957.09,1837.08 C1957.09,1848.84 1951.53,1859.5 1938.33,1873.49 C1926.56,1885.89 1919.25,1893.68 1916.55,1896.7 C1910.82,1903.38 1907.96,1907.04 1900.97,1916.26 L1900.97,1920.71 L1972.67,1920.71 L1975.7,1886.37 "/>
<path class="StaffText" d="M2151.01,1780.07 L2144.01,1780.07 L2142.42,1788.18 C2140.35,1798.51 2139.08,1799.47 2129.22,1799.47 L2093.61,1799.47 C2104.58,1788.02 2108.23,1784.68 2118.41,1776.73 C2132.88,1765.6 2139.08,1760.03 2142.74,1755.26 C2147.83,1748.27 2150.37,1741.27 2150.37,1733.48 C2150.37,1715.36 2135.42,1702.48 2114.59,1702.48 C2094.4,1702.48 2078.98,1715.36 2078.98,1732.37 C2078.98,1742.39 2084.07,1749.22 2091.54,1749.22 C2097.42,1749.22 2101.4,1745.25 2101.4,1739.52 C2101.4,1735.55 2099.17,1731.89 2095.83,1730.46 C2089.95,1728.08 2089.63,1727.76 2089.63,1725.69 C2089.63,1723.31 2091.22,1719.65 2093.45,1716.95 C2097.42,1712.02 2103.94,1709.31 2111.41,1709.31 C2124.61,1709.31 2132.4,1717.42 2132.4,1730.78 C2132.4,1742.54 2126.84,1753.2 2113.64,1767.19 C2101.87,1779.59 2094.56,1787.38 2091.86,1790.4 C2086.13,1797.08 2083.27,1800.74 2076.28,1809.96 L2076.28,1814.41 L2147.98,1814.41 L2151.01,1780.07 "/>
<path class="StaffText" d="M2364.95,1596.18 C2359.55,1602.7 2344.92,1607.63 2330.29,1607.94 L2330.29,1614.78 L2344.28,1614.78 C2353.5,1614.94 2354.46,1615.89 2354.14,1624.8 L2354.14,1688.56 C2354.14,1696.67 2354.14,1696.98 2353.19,1698.41 C2351.91,1700 2348.89,1700.64 2339.99,1700.64 L2329.65,1700.64 L2329.65,1708.11 L2392.62,1708.11 L2392.62,1700.64 L2383.87,1700.64 C2374.97,1700.64 2371.95,1700 2370.68,1698.41 C2369.56,1696.98 2369.56,1696.82 2369.56,1688.56 L2369.56,1622.89 C2369.56,1613.99 2369.88,1606.51 2370.68,1596.18 L2364.95,1596.18 M2482.44,1673.77 L2475.44,1673.77 L2473.85,1681.88 C2471.79,1692.21 2470.52,1693.17 2460.66,1693.17 L2425.04,1693.17 C2436.01,1681.72 2439.67,1678.38 2449.85,1670.43 C2464.31,1659.3 2470.52,1653.74 2474.17,1648.97 C2479.26,1641.97 2481.8,1634.97 2481.8,1627.18 C2481.8,1609.06 2466.86,1596.18 2446.03,1596.18 C2425.84,1596.18 2410.41,1609.06 2410.41,1626.07 C2410.41,1636.09 2415.5,1642.92 2422.97,1642.92 C2428.86,1642.92 2432.83,1638.95 2432.83,1633.22 C2432.83,1629.25 2430.61,1625.59 2427.27,1624.16 C2421.38,1621.78 2421.07,1621.46 2421.07,1619.39 C2421.07,1617.01 2422.66,1613.35 2424.88,1610.65 C2428.86,1605.72 2435.38,1603.01 2442.85,1603.01 C2456.05,1603.01 2463.84,1611.12 2463.84,1624.48 C2463.84,1636.25 2458.27,1646.9 2445.08,1660.89 C2433.31,1673.29 2426,1681.08 2423.29,1684.1 C2417.57,1690.78 2414.71,1694.44 2407.71,1703.66 L2407.71,1708.11 L2479.42,1708.11 L2482.44,1673.77 "/>
<path class="StaffText" d="M2898.57,1596.18 C2893.17,1602.7 2878.54,1607.63 2863.91,1607.94 L2863.91,1614.78 L2877.9,1614.78 C2887.13,1614.94 2888.08,1615.89 2887.76,1624.8 L2887.76,1688.56 C2887.76,1696.67 2887.76,1696.98 2886.81,1698.41 C2885.54,1700 2882.51,1700.64 2873.61,1700.64 L2863.28,1700.64 L2863.28,1708.11 L2926.24,1708.11 L2926.24,1700.64 L2917.49,1700.64 C2908.59,1700.64 2905.57,1700 2904.3,1698.41 C2903.18,1696.98 2903.18,1696.82 2903.18,1688.56 L2903.18,1622.89 C2903.18,1613.99 2903.5,1606.51 2904.3,1596.18 L2898.57,1596.18 M3016.06,1673.77 L3009.06,1673.77 L3007.47,1681.88 C3005.41,1692.21 3004.14,1693.17 2994.28,1693.17 L2958.66,1693.17 C2969.63,1681.72 2973.29,1678.38 2983.47,1670.43 C2997.93,1659.3 3004.14,1653.74 3007.79,1648.97 C3012.88,1641.97 3015.42,1634.97 3015.42,1627.18 C3015.42,1609.06 3000.48,1596.18 2979.65,1596.18 C2959.46,1596.18 2944.03,1609.06 2944.03,1626.07 C2944.03,1636.09 2949.12,1642.92 2956.59,1642.92 C2962.48,1642.92 2966.45,1638.95 2966.45,1633.22 C2966.45,1629.25 2964.23,1625.59 2960.89,1624.16 C2955,1621.78 2954.69,1621.46 2954.69,1619.39 C2954.69,1617.01 2956.28,1613.35 2958.5,1610.65 C2962.48,1605.72 2969,1603.01 2976.47,1603.01 C2989.67,1603.01 2997.46,1611.12 2997.46,1624.48 C2997.46,1636.25 2991.89,1646.9 2978.7,1660.89 C2966.93,1673.29 2959.62,1681.08 2956.91,1684.1 C2951.19,1690.78 2948.33,1694.44 2941.33,1703.66 L2941.33,1708.11 L3013.04,1708.11 L3016.06,1673.77 "/>
<path class="VoltaSegment" d="M473.179,1962.2 L469.084,1962.2 C461.713,1967.7 453.406,1970.04 439.483,1970.28 L439.483,1976.83 L444.397,1976.83 C454.81,1976.83 454.927,1977.06 454.81,1986.66 L454.81,2028.19 C454.81,2035.45 454.81,2035.8 453.991,2036.97 C452.938,2038.25 450.598,2038.72 444.28,2038.72 L440.536,2038.72 L440.536,2045.04 L487.219,2045.04 L487.219,2038.72 L483.475,2038.72 C477.274,2038.72 475.051,2038.25 473.998,2036.97 C473.179,2035.8 473.179,2035.33 473.179,2028.19 L473.179,1962.2 M513.191,2024.8 C507.107,2024.8 502.193,2029.71 502.193,2035.8 C502.193,2041.76 507.107,2046.79 513.074,2046.79 C519.275,2046.79 524.189,2041.88 524.189,2035.8 C524.189,2029.71 519.275,2024.8 513.191,2024.8"/>
<polyline class="VoltaSegment" fill="none" stroke="#000000" stroke-width="5.85" stroke-linecap="square" stroke-linejoin="bevel" points="407.585,2045.04 407.585,1928.11"/>
<polyline class="VoltaSegment" fill="none" stroke="#000000" stroke-width="5.85" stroke-linecap="square" stroke-linejoin="bevel" points="407.585,1928.11 2647.11,1928.11"/>
<polyline class="VoltaSegment" fill="none" stroke="#000000" stroke-width="5.85" stroke-linecap="square" stroke-linejoin="bevel" points="2647.11,1928.11 2647.11,2045.04"/>
<path class="VoltaSegment" d="M2762.72,2013.92 L2761.44,2019.77 C2760.38,2024.45 2759.68,2025.97 2758.74,2026.55 C2757.57,2027.37 2757.34,2027.37 2749.97,2027.49 L2727.39,2027.49 C2731.48,2023.98 2734.53,2021.76 2739.09,2018.71 C2755.59,2008.07 2758.98,2005.49 2762.37,2001.16 C2766.35,1995.9 2768.69,1989.7 2768.69,1984.2 C2768.69,1971.68 2756.4,1962.2 2739.91,1962.2 C2724,1962.2 2711.71,1972.5 2711.71,1985.84 C2711.71,1994.03 2716.27,1999.29 2723.29,1999.29 C2729.38,1999.29 2733.24,1995.43 2733.24,1989.35 C2733.24,1984.32 2731.02,1981.39 2725.63,1978.82 C2724.35,1978.23 2723.76,1977.53 2723.76,1976.59 C2723.76,1972.85 2730.08,1968.87 2735.93,1968.87 C2744.12,1968.87 2748.8,1973.9 2748.8,1982.56 C2748.8,1992.27 2745.06,1999.18 2732.65,2012.4 C2719.55,2026.32 2714.99,2031.58 2709.14,2040.01 L2709.14,2045.51 C2712.18,2045.16 2713.47,2045.04 2715.22,2045.04 L2759.21,2045.04 C2761.44,2045.04 2762.84,2045.16 2766.35,2045.51 L2769.04,2013.92 L2762.72,2013.92 M2790.33,2024.8 C2784.25,2024.8 2779.33,2029.71 2779.33,2035.8 C2779.33,2041.76 2784.25,2046.79 2790.22,2046.79 C2796.42,2046.79 2801.33,2041.88 2801.33,2035.8 C2801.33,2029.71 2796.42,2024.8 2790.33,2024.8"/>
<polyline class="VoltaSegment" fill="none" stroke="#000000" stroke-width="5.85" stroke-linecap="square" stroke-linejoin="bevel" points="2677.24,2045.04 2677.24,1928.11"/>
<polyline class="VoltaSegment" fill="none" stroke="#000000" stroke-width="5.85" stroke-linecap="square" stroke-linejoin="bevel" points="2677.24,1928.11 4085.79,1928.11"/>
</svg>
