<?xml version="1.0" encoding="UTF-8" standalone="no"?>
<svg width="4208.47px" height="2409.45px" viewBox="0 0 4208.47 2409.45"
 xmlns="http://www.w3.org/2000/svg" xmlns:xlink="http://www.w3.org/1999/xlink" version="1.2" baseProfile="tiny">
<title>BONE PIRATA</title>
<desc>Generated by MuseScore 3.6.2</desc>
<polyline class="StaffLines" fill="none" stroke="#000000" stroke-width="7.59" stroke-linejoin="bevel" points="70.866,588.713 4137.61,588.713"/>
<polyline class="StaffLines" fill="none" stroke="#000000" stroke-width="7.59" stroke-linejoin="bevel" points="70.866,657.713 4137.61,657.713"/>
<polyline class="StaffLines" fill="none" stroke="#000000" stroke-width="7.59" stroke-linejoin="bevel" points="70.866,726.713 4137.61,726.713"/>
<polyline class="StaffLines" fill="none" stroke="#000000" stroke-width="7.59" stroke-linejoin="bevel" points="70.866,795.713 4137.61,795.713"/>
<polyline class="StaffLines" fill="none" stroke="#000000" stroke-width="7.59" stroke-linejoin="bevel" points="70.866,864.713 4137.61,864.713"/>
<polyline class="StaffLines" fill="none" stroke="#000000" stroke-width="7.59" stroke-linejoin="bevel" points="70.866,1788.45 4137.61,1788.45"/>
<polyline class="StaffLines" fill="none" stroke="#000000" stroke-width="7.59" stroke-linejoin="bevel" points="70.866,1857.45 4137.61,1857.45"/>
<polyline class="StaffLines" fill="none" stroke="#000000" stroke-width="7.59" stroke-linejoin="bevel" points="70.866,1926.45 4137.61,1926.45"/>
<polyline class="StaffLines" fill="none" stroke="#000000" stroke-width="7.59" stroke-linejoin="bevel" points="70.866,1995.45 4137.61,1995.45"/>
<polyline class="StaffLines" fill="none" stroke="#000000" stroke-width="7.59" stroke-linejoin="bevel" points="70.866,2064.45 4137.61,2064.45"/>
<path class="MeasureNumber" d="M92.3504,1622.13 L90.1785,1622.13 L71.5535,1641.42 L71.5535,1643.09 L82.8191,1643.09 L82.1785,1645.53 C81.6629,1647.53 81.6316,1647.65 81.2566,1648.01 C80.866,1648.4 80.0222,1648.57 77.8972,1648.57 L77.1785,1648.57 L76.9441,1650.45 L89.3816,1650.45 L89.5847,1648.57 L88.866,1648.57 C86.2254,1648.57 85.6629,1648.37 85.6629,1647.49 C85.6629,1647.17 85.741,1646.78 86.0691,1645.53 L86.741,1643.09 L91.3035,1643.09 L91.8972,1640.93 L87.3035,1640.93 L92.3504,1622.13 M83.4285,1640.93 L74.4597,1640.93 L86.8191,1628.21 L83.4285,1640.93 "/>
<path class="TieSegment" stroke="#000000" stroke-width="4.83" stroke-linecap="round" stroke-linejoin="round" fill-rule="evenodd" d="M2954.96,536.963 C3043.14,460.287 3307.68,460.287 3395.86,536.963 C3307.68,479.607 3043.14,479.607 2954.96,536.963"/>
<polyline class="BarLine" stroke="#000000" stroke-width="37.95" stroke-linejoin="bevel" points="1562.96,584.918 1562.96,868.508"/>
<polyline class="BarLine" stroke="#000000" stroke-width="12.42" stroke-linejoin="bevel" points="1611.26,584.918 1611.26,868.508"/>
<path class="BarLine" transform="matrix(2.76,0,0,2.76,1645.2,692.213)" d="M10.4063,0 C10.4063,-2.90625 8.09375,-5.29688 5.20313,-5.29688 C2.29688,-5.29688 0,-2.90625 0,0 C0,2.90625 2.29688,5.29688 5.20313,5.29688 C8.09375,5.29688 10.4063,2.90625 10.4063,0"/>
<path class="BarLine" transform="matrix(2.76,0,0,2.76,1645.2,761.213)" d="M10.4063,0 C10.4063,-2.90625 8.09375,-5.29688 5.20313,-5.29688 C2.29688,-5.29688 0,-2.90625 0,0 C0,2.90625 2.29688,5.29688 5.20313,5.29688 C8.09375,5.29688 10.4063,2.90625 10.4063,0"/>
<polyline class="BarLine" stroke="#000000" stroke-width="12.42" stroke-linejoin="bevel" points="3182.31,584.918 3182.31,868.508"/>
<path class="BarLine" transform="matrix(2.76,0,0,2.76,4016.83,692.213)" d="M10.4063,0 C10.4063,-2.90625 8.09375,-5.29688 5.20313,-5.29688 C2.29688,-5.29688 0,-2.90625 0,0 C0,2.90625 2.29688,5.29688 5.20313,5.29688 C8.09375,5.29688 10.4063,2.90625 10.4063,0"/>
<path class="BarLine" transform="matrix(2.76,0,0,2.76,4016.83,761.213)" d="M10.4063,0 C10.4063,-2.90625 8.09375,-5.29688 5.20313,-5.29688 C2.29688,-5.29688 0,-2.90625 0,0 C0,2.90625 2.29688,5.29688 5.20313,5.29688 C8.09375,5.29688 10.4063,2.90625 10.4063,0"/>
<polyline class="BarLine" stroke="#000000" stroke-width="12.42" stroke-linejoin="bevel" points="4079.48,584.918 4079.48,868.508"/>
<polyline class="BarLine" stroke="#000000" stroke-width="37.95" stroke-linejoin="bevel" points="4127.78,584.918 4127.78,868.508"/>
<polyline class="BarLine" stroke="#000000" stroke-width="12.42" stroke-linejoin="bevel" points="1218.29,1784.65 1218.29,2068.24"/>
<polyline class="BarLine" stroke="#000000" stroke-width="12.42" stroke-linejoin="bevel" points="1792.53,1784.65 1792.53,2068.24"/>
<polyline class="BarLine" stroke="#000000" stroke-width="12.42" stroke-linejoin="bevel" points="2366.76,1784.65 2366.76,2068.24"/>
<polyline class="BarLine" stroke="#000000" stroke-width="12.42" stroke-linejoin="bevel" points="2940.99,1784.65 2940.99,2068.24"/>
<polyline class="BarLine" stroke="#000000" stroke-width="12.42" stroke-linejoin="bevel" points="3505.66,1784.65 3505.66,2068.24"/>
<polyline class="BarLine" stroke="#000000" stroke-width="12.42" stroke-linejoin="bevel" points="4070.33,1784.65 4070.33,2068.24"/>
<polyline class="BarLine" stroke="#000000" stroke-width="37.95" stroke-linejoin="bevel" points="4118.63,1784.65 4118.63,2068.24"/>
<polyline class="LedgerLine" stroke="#000000" stroke-width="11.04" stroke-linejoin="bevel" points="2105.31,519.713 2243.28,519.713"/>
<polyline class="LedgerLine" stroke="#000000" stroke-width="11.04" stroke-linejoin="bevel" points="1400.45,1719.45 1551.69,1719.45"/>
<polyline class="LedgerLine" stroke="#000000" stroke-width="11.04" stroke-linejoin="bevel" points="1974.69,1719.45 2125.93,1719.45"/>
<polyline class="LedgerLine" stroke="#000000" stroke-width="11.04" stroke-linejoin="bevel" points="1974.69,1650.45 2125.93,1650.45"/>
<polyline class="LedgerLine" stroke="#000000" stroke-width="11.04" stroke-linejoin="bevel" points="2548.92,1719.45 2700.16,1719.45"/>
<polyline class="LedgerLine" stroke="#000000" stroke-width="11.04" stroke-linejoin="bevel" points="2548.92,1650.45 2700.16,1650.45"/>
<polyline class="LedgerLine" stroke="#000000" stroke-width="11.04" stroke-linejoin="bevel" points="2548.92,1581.45 2700.16,1581.45"/>
<polyline class="Stem" stroke="#000000" stroke-width="7.59" stroke-linejoin="bevel" points="2133.25,494.487 2133.25,726.713"/>
<polyline class="Stem" stroke="#000000" stroke-width="7.59" stroke-linejoin="bevel" points="2421.99,632.487 2421.99,864.713"/>
<polyline class="Stem" stroke="#000000" stroke-width="7.59" stroke-linejoin="bevel" points="2611.72,632.487 2611.72,864.713"/>
<polyline class="Stem" stroke="#000000" stroke-width="7.59" stroke-linejoin="bevel" points="2900.46,597.987 2900.46,830.213"/>
<polyline class="Stem" stroke="#000000" stroke-width="7.59" stroke-linejoin="bevel" points="3368.26,597.987 3368.26,830.213"/>
<path class="Note" transform="matrix(2.76,0,0,2.76,2129.46,485.213)" d="M31.5,-8.09375 C29.7031,-11.4063 25.9063,-13.2031 21.2969,-13.2031 C17.9063,-13.2031 14.2031,-12.2031 10.5938,-10.2969 C4,-6.79688 0,-0.90625 0,4.20313 C0,5.59375 0.296875,7 1,8.29688 C2.79688,11.5938 6.59375,13.2969 11.2031,13.2969 C14.5938,13.2969 18.2969,12.4063 21.9063,10.5 C28.5,7 32.5,1.09375 32.5,-4 C32.5,-5.40625 32.2031,-6.79688 31.5,-8.09375"/>
<path class="Note" transform="matrix(2.76,0,0,2.76,2418.2,623.213)" d="M31.5,-8.09375 C29.7031,-11.4063 25.9063,-13.2031 21.2969,-13.2031 C17.9063,-13.2031 14.2031,-12.2031 10.5938,-10.2969 C4,-6.79688 0,-0.90625 0,4.20313 C0,5.59375 0.296875,7 1,8.29688 C2.79688,11.5938 6.59375,13.2969 11.2031,13.2969 C14.5938,13.2969 18.2969,12.4063 21.9063,10.5 C28.5,7 32.5,1.09375 32.5,-4 C32.5,-5.40625 32.2031,-6.79688 31.5,-8.09375"/>
<path class="Note" transform="matrix(2.76,0,0,2.76,2607.93,623.213)" d="M31.5,-8.09375 C29.7031,-11.4063 25.9063,-13.2031 21.2969,-13.2031 C17.9063,-13.2031 14.2031,-12.2031 10.5938,-10.2969 C4,-6.79688 0,-0.90625 0,4.20313 C0,5.59375 0.296875,7 1,8.29688 C2.79688,11.5938 6.59375,13.2969 11.2031,13.2969 C14.5938,13.2969 18.2969,12.4063 21.9063,10.5 C28.5,7 32.5,1.09375 32.5,-4 C32.5,-5.40625 32.2031,-6.79688 31.5,-8.09375"/>
<path class="Note" transform="matrix(2.76,0,0,2.76,2896.67,588.713)" d="M31.5,-8.09375 C29.7031,-11.4063 25.9063,-13.2031 21.2969,-13.2031 C17.9063,-13.2031 14.2031,-12.2031 10.5938,-10.2969 C4,-6.79688 0,-0.90625 0,4.20313 C0,5.59375 0.296875,7 1,8.29688 C2.79688,11.5938 6.59375,13.2969 11.2031,13.2969 C14.5938,13.2969 18.2969,12.4063 21.9063,10.5 C28.5,7 32.5,1.09375 32.5,-4 C32.5,-5.40625 32.2031,-6.79688 31.5,-8.09375"/>
<path class="Note" transform="matrix(2.76,0,0,2.76,3364.47,588.713)" d="M31.5,-8.14063 C29.7031,-11.4375 25.9063,-13.2344 21.2969,-13.2344 C17.9063,-13.2344 14.2031,-12.2344 10.5938,-10.3438 C4,-6.84375 0,-0.9375 0,4.15625 C0,5.5625 0.296875,6.96875 1,8.26563 C2.79688,11.5781 6.59375,13.2813 11.2031,13.2813 C14.5938,13.2813 18.2969,12.375 21.9063,10.4844 C28.5,6.96875 32.5,1.0625 32.5,-4.04688 C32.5,-5.4375 32.2031,-6.84375 31.5,-8.14063 M27.2031,-1.34375 C25.5,0.359375 22.0938,2.45313 18.5,4.46875 C14.9063,6.46875 11.2969,7.96875 8.90625,8.46875 C8.40625,8.57813 7.90625,8.67188 7.40625,8.67188 C5.79688,8.67188 4.59375,8.07813 3.90625,6.76563 C3.59375,6.26563 3.40625,5.67188 3.40625,5.0625 C3.40625,3.96875 4.09375,2.65625 5.20313,1.5625 C6.90625,-0.140625 10.2031,-2.23438 13.7969,-4.23438 C17.4063,-6.23438 21,-7.73438 23.4063,-8.23438 C23.9063,-8.34375 24.4063,-8.4375 24.9063,-8.4375 C26.5,-8.4375 27.7969,-7.84375 28.5,-6.54688 C28.7969,-6.04688 28.9063,-5.4375 28.9063,-4.84375 C28.9063,-3.73438 28.2969,-2.54688 27.2031,-1.34375"/>
<path class="Note" transform="matrix(2.76,0,0,2.76,842.415,1788.45)" d="M18.7031,-13.5938 C4.90625,-13.5938 0,-6.59375 0,-0.09375 C0,6.40625 4.90625,13.4063 18.7031,13.4063 C32.5,13.4063 37.2969,6.40625 37.2969,-0.09375 C37.2969,-6.59375 32.5,-13.5938 18.7031,-13.5938 M10.4063,-4.5 C10.2969,-4.90625 10.2969,-5.29688 10.2969,-5.70313 C10.2969,-6.5 10.5,-7.29688 10.9063,-8 C11.5938,-9 12.7969,-9.70313 14.2969,-10 C15.5938,-10.2969 16.2969,-10.5 18.9063,-10.5 L19,-10.5 C23,-10.5 24.2969,-6.79688 25.4063,-3 L25.7031,-2 C26.5,0.59375 26.9063,2.79688 26.9063,4.5 C26.9063,5.70313 26.7031,6.79688 26.2969,7.59375 C25.7031,8.70313 24.7031,9.40625 23,9.79688 C22.0938,10 20.5938,10.0938 20.5938,10.0938 C20.0938,10.0938 19.7031,10.2031 19.2969,10.2031 C16.0938,10.2031 14.0938,9 12.7031,4.70313 C11.5,1 11.2969,-0.09375 10.4063,-4.5"/>
<path class="Note" transform="matrix(2.76,0,0,2.76,1424.6,1719.45)" d="M18.7031,-13.5938 C4.90625,-13.5938 0,-6.59375 0,-0.09375 C0,6.40625 4.90625,13.4063 18.7031,13.4063 C32.5,13.4063 37.2969,6.40625 37.2969,-0.09375 C37.2969,-6.59375 32.5,-13.5938 18.7031,-13.5938 M10.4063,-4.5 C10.2969,-4.90625 10.2969,-5.29688 10.2969,-5.70313 C10.2969,-6.5 10.5,-7.29688 10.9063,-8 C11.5938,-9 12.7969,-9.70313 14.2969,-10 C15.5938,-10.2969 16.2969,-10.5 18.9063,-10.5 L19,-10.5 C23,-10.5 24.2969,-6.79688 25.4063,-3 L25.7031,-2 C26.5,0.59375 26.9063,2.79688 26.9063,4.5 C26.9063,5.70313 26.7031,6.79688 26.2969,7.59375 C25.7031,8.70313 24.7031,9.40625 23,9.79688 C22.0938,10 20.5938,10.0938 20.5938,10.0938 C20.0938,10.0938 19.7031,10.2031 19.2969,10.2031 C16.0938,10.2031 14.0938,9 12.7031,4.70313 C11.5,1 11.2969,-0.09375 10.4063,-4.5"/>
<path class="Note" transform="matrix(2.76,0,0,2.76,1998.84,1650.45)" d="M18.7031,-13.5938 C4.90625,-13.5938 0,-6.59375 0,-0.09375 C0,6.40625 4.90625,13.4063 18.7031,13.4063 C32.5,13.4063 37.2969,6.40625 37.2969,-0.09375 C37.2969,-6.59375 32.5,-13.5938 18.7031,-13.5938 M10.4063,-4.5 C10.2969,-4.90625 10.2969,-5.29688 10.2969,-5.70313 C10.2969,-6.5 10.5,-7.29688 10.9063,-8 C11.5938,-9 12.7969,-9.70313 14.2969,-10 C15.5938,-10.2969 16.2969,-10.5 18.9063,-10.5 L19,-10.5 C23,-10.5 24.2969,-6.79688 25.4063,-3 L25.7031,-2 C26.5,0.59375 26.9063,2.79688 26.9063,4.5 C26.9063,5.70313 26.7031,6.79688 26.2969,7.59375 C25.7031,8.70313 24.7031,9.40625 23,9.79688 C22.0938,10 20.5938,10.0938 20.5938,10.0938 C20.0938,10.0938 19.7031,10.2031 19.2969,10.2031 C16.0938,10.2031 14.0938,9 12.7031,4.70313 C11.5,1 11.2969,-0.09375 10.4063,-4.5"/>
<path class="Note" transform="matrix(2.76,0,0,2.76,2573.07,1581.45)" d="M18.7031,-13.5938 C4.90625,-13.5938 0,-6.59375 0,-0.09375 C0,6.40625 4.90625,13.4063 18.7031,13.4063 C32.5,13.4063 37.2969,6.40625 37.2969,-0.09375 C37.2969,-6.59375 32.5,-13.5938 18.7031,-13.5938 M10.4063,-4.5 C10.2969,-4.90625 10.2969,-5.29688 10.2969,-5.70313 C10.2969,-6.5 10.5,-7.29688 10.9063,-8 C11.5938,-9 12.7969,-9.70313 14.2969,-10 C15.5938,-10.2969 16.2969,-10.5 18.9063,-10.5 L19,-10.5 C23,-10.5 24.2969,-6.79688 25.4063,-3 L25.7031,-2 C26.5,0.59375 26.9063,2.79688 26.9063,4.5 C26.9063,5.70313 26.7031,6.79688 26.2969,7.59375 C25.7031,8.70313 24.7031,9.40625 23,9.79688 C22.0938,10 20.5938,10.0938 20.5938,10.0938 C20.0938,10.0938 19.7031,10.2031 19.2969,10.2031 C16.0938,10.2031 14.0938,9 12.7031,4.70313 C11.5,1 11.2969,-0.09375 10.4063,-4.5"/>
<path class="Note" transform="matrix(2.76,0,0,2.76,3129.78,1788.45)" d="M18.7031,-13.5938 C4.90625,-13.5938 0,-6.59375 0,-0.09375 C0,6.40625 4.90625,13.4063 18.7031,13.4063 C32.5,13.4063 37.2969,6.40625 37.2969,-0.09375 C37.2969,-6.59375 32.5,-13.5938 18.7031,-13.5938 M10.4063,-4.5 C10.2969,-4.90625 10.2969,-5.29688 10.2969,-5.70313 C10.2969,-6.5 10.5,-7.29688 10.9063,-8 C11.5938,-9 12.7969,-9.70313 14.2969,-10 C15.5938,-10.2969 16.2969,-10.5 18.9063,-10.5 L19,-10.5 C23,-10.5 24.2969,-6.79688 25.4063,-3 L25.7031,-2 C26.5,0.59375 26.9063,2.79688 26.9063,4.5 C26.9063,5.70313 26.7031,6.79688 26.2969,7.59375 C25.7031,8.70313 24.7031,9.40625 23,9.79688 C22.0938,10 20.5938,10.0938 20.5938,10.0938 C20.0938,10.0938 19.7031,10.2031 19.2969,10.2031 C16.0938,10.2031 14.0938,9 12.7031,4.70313 C11.5,1 11.2969,-0.09375 10.4063,-4.5"/>
<path class="Note" transform="matrix(2.76,0,0,2.76,3694.45,1788.45)" d="M18.7031,-13.5938 C4.90625,-13.5938 0,-6.59375 0,-0.09375 C0,6.40625 4.90625,13.4063 18.7031,13.4063 C32.5,13.4063 37.2969,6.40625 37.2969,-0.09375 C37.2969,-6.59375 32.5,-13.5938 18.7031,-13.5938 M10.4063,-4.5 C10.2969,-4.90625 10.2969,-5.29688 10.2969,-5.70313 C10.2969,-6.5 10.5,-7.29688 10.9063,-8 C11.5938,-9 12.7969,-9.70313 14.2969,-10 C15.5938,-10.2969 16.2969,-10.5 18.9063,-10.5 L19,-10.5 C23,-10.5 24.2969,-6.79688 25.4063,-3 L25.7031,-2 C26.5,0.59375 26.9063,2.79688 26.9063,4.5 C26.9063,5.70313 26.7031,6.79688 26.2969,7.59375 C25.7031,8.70313 24.7031,9.40625 23,9.79688 C22.0938,10 20.5938,10.0938 20.5938,10.0938 C20.0938,10.0938 19.7031,10.2031 19.2969,10.2031 C16.0938,10.2031 14.0938,9 12.7031,4.70313 C11.5,1 11.2969,-0.09375 10.4063,-4.5"/>
<path class="Clef" transform="matrix(2.76,0,0,2.76,212.316,657.713)" d="M25.4063,-25.0938 C17.7969,-25.0938 11.7031,-20.7031 11.5938,-20.7031 C5.79688,-16.4063 3.5,-11.2969 2.59375,-7.79688 C2.09375,-6 1.90625,-4.20313 1.90625,-2.5 C1.90625,-0.09375 2.29688,2.09375 3.20313,4 C4.40625,6.70313 6.70313,8.59375 9.70313,9.59375 C10.9063,10 12.2031,10.2031 13.5,10.2031 C15.7031,10.2031 18,9.59375 19.9063,8.5 C23,6.79688 24.9063,3.20313 24.9063,-0.703125 C24.9063,-4.20313 23.0938,-7.40625 20.0938,-9.29688 C18,-10.7031 16,-11.0938 14.2969,-11.0938 C13.0938,-11.0938 12,-10.9063 11.0938,-10.5938 C10.0938,-10.2031 8.40625,-9.20313 7.59375,-8.5 C7.90625,-10.4063 9.09375,-13.2969 10.2031,-14.9063 C11.2969,-16.5 13.5,-18.5 15.2031,-19.4063 C17.7031,-20.7969 20.9063,-21.4063 24.4063,-21.4063 C34.6094,-21.4063 39.6094,-13.2031 39.6094,3.59375 C39.6094,12.9063 36.1094,21.7969 33.1094,27.7031 C29.7969,34.2969 25.4063,40.6094 21.5,44.1094 C11.0938,53.6094 1.29688,58.1094 1.20313,58.1094 C1.20313,58.1094 -0.296875,59 0.09375,60.5 C0.40625,61.5 1.29688,61.7031 1.90625,61.7031 C2,61.7031 2.29688,61.6094 2.40625,61.6094 C2.5,61.6094 13.9063,56.9063 23,49.7969 C28.1094,46.1094 32.7031,42.1094 36.7031,37.7969 C40.2969,33.9063 43.4063,29.7031 45.9063,25.5 C50.2969,18 52.7969,10.2031 52.7969,3.5 C52.7969,-4.79688 50.6094,-11.7031 46.5,-16.5938 C41.7969,-22.2031 34.7031,-25.0938 25.4063,-25.0938 M56.7969,-12.4063 C56.7969,-9.59375 59,-7.40625 61.6094,-7.40625 C64.2031,-7.40625 66.4063,-9.59375 66.4063,-12.4063 C66.4063,-15.2031 64.2031,-17.5 61.6094,-17.5 C59,-17.5 56.7969,-15.2031 56.7969,-12.4063 M56.7969,12.2969 C56.7969,15.0938 59,17.4063 61.6094,17.4063 C64.2031,17.4063 66.4063,15.0938 66.4063,12.2969 C66.4063,9.5 64.2031,7.20313 61.6094,7.20313 C59,7.20313 56.7969,9.5 56.7969,12.2969"/>
<path class="Clef" transform="matrix(2.76,0,0,2.76,212.316,1857.45)" d="M25.4063,-25.0938 C17.7969,-25.0938 11.7031,-20.7031 11.5938,-20.7031 C5.79688,-16.4063 3.5,-11.2969 2.59375,-7.79688 C2.09375,-6 1.90625,-4.20313 1.90625,-2.5 C1.90625,-0.09375 2.29688,2.09375 3.20313,4 C4.40625,6.70313 6.70313,8.59375 9.70313,9.59375 C10.9063,10 12.2031,10.2031 13.5,10.2031 C15.7031,10.2031 18,9.59375 19.9063,8.5 C23,6.79688 24.9063,3.20313 24.9063,-0.703125 C24.9063,-4.20313 23.0938,-7.40625 20.0938,-9.29688 C18,-10.7031 16,-11.0938 14.2969,-11.0938 C13.0938,-11.0938 12,-10.9063 11.0938,-10.5938 C10.0938,-10.2031 8.40625,-9.20313 7.59375,-8.5 C7.90625,-10.4063 9.09375,-13.2969 10.2031,-14.9063 C11.2969,-16.5 13.5,-18.5 15.2031,-19.4063 C17.7031,-20.7969 20.9063,-21.4063 24.4063,-21.4063 C34.6094,-21.4063 39.6094,-13.2031 39.6094,3.59375 C39.6094,12.9063 36.1094,21.7969 33.1094,27.7031 C29.7969,34.2969 25.4063,40.6094 21.5,44.1094 C11.0938,53.6094 1.29688,58.1094 1.20313,58.1094 C1.20313,58.1094 -0.296875,59 0.09375,60.5 C0.40625,61.5 1.29688,61.7031 1.90625,61.7031 C2,61.7031 2.29688,61.6094 2.40625,61.6094 C2.5,61.6094 13.9063,56.9063 23,49.7969 C28.1094,46.1094 32.7031,42.1094 36.7031,37.7969 C40.2969,33.9063 43.4063,29.7031 45.9063,25.5 C50.2969,18 52.7969,10.2031 52.7969,3.5 C52.7969,-4.79688 50.6094,-11.7031 46.5,-16.5938 C41.7969,-22.2031 34.7031,-25.0938 25.4063,-25.0938 M56.7969,-12.4063 C56.7969,-9.59375 59,-7.40625 61.6094,-7.40625 C64.2031,-7.40625 66.4063,-9.59375 66.4063,-12.4063 C66.4063,-15.2031 64.2031,-17.5 61.6094,-17.5 C59,-17.5 56.7969,-15.2031 56.7969,-12.4063 M56.7969,12.2969 C56.7969,15.0938 59,17.4063 61.6094,17.4063 C64.2031,17.4063 66.4063,15.0938 66.4063,12.2969 C66.4063,9.5 64.2031,7.20313 61.6094,7.20313 C59,7.20313 56.7969,9.5 56.7969,12.2969"/>
<path class="KeySig" transform="matrix(2.76,0,0,2.76,619.825,761.213)" d="M23.2969,-10.5938 C23.9063,-10.7031 24.4063,-11.4063 24.4063,-12 L24.4063,-17.9063 C24.4063,-18.7031 23.7969,-19.2969 23,-19.2969 L22.7969,-19.2969 L19.5,-18.5938 L19.5,-33.5 L16.7031,-33.5 L16.7031,-18 L7.79688,-16.2031 L7.79688,-30.2969 L5,-30.2969 L5,-15.5938 L1.09375,-14.7969 C0.5,-14.7031 0,-14 0,-13.4063 L0,-13.2031 L0,-7.40625 L0,-7.59375 C0,-6.79688 0.59375,-6.20313 1.40625,-6.20313 L1.70313,-6.20313 L5,-6.90625 L5,9.59375 L1.09375,10.4063 C0.5,10.5 0,11.2031 0,11.7969 L0,17.5938 C0,18.4063 0.59375,19 1.40625,19 L1.70313,19 L5,18.2969 L5,33.2031 L7.79688,33.2031 L7.79688,17.7031 L16.7031,15.9063 L16.7031,30 L19.5,30 L19.5,15.2969 L23.2969,14.5938 C23.9063,14.5 24.4063,13.7969 24.4063,13.2031 L24.4063,7.29688 C24.4063,6.5 23.7969,5.90625 23,5.90625 L22.7969,5.90625 L19.5,6.59375 L19.5,-9.90625 L23.2969,-10.5938 M7.79688,9.09375 L7.79688,-7.5 L16.7031,-9.29688 L16.7031,7.20313 L7.79688,9.09375 "/>
<path class="KeySig" transform="matrix(2.76,0,0,2.76,550.825,657.713)" d="M23.2969,-10.5938 C23.9063,-10.7031 24.4063,-11.4063 24.4063,-12 L24.4063,-17.9063 C24.4063,-18.7031 23.7969,-19.2969 23,-19.2969 L22.7969,-19.2969 L19.5,-18.5938 L19.5,-33.5 L16.7031,-33.5 L16.7031,-18 L7.79688,-16.2031 L7.79688,-30.2969 L5,-30.2969 L5,-15.5938 L1.09375,-14.7969 C0.5,-14.7031 0,-14 0,-13.4063 L0,-13.2031 L0,-7.40625 L0,-7.59375 C0,-6.79688 0.59375,-6.20313 1.40625,-6.20313 L1.70313,-6.20313 L5,-6.90625 L5,9.59375 L1.09375,10.4063 C0.5,10.5 0,11.2031 0,11.7969 L0,17.5938 C0,18.4063 0.59375,19 1.40625,19 L1.70313,19 L5,18.2969 L5,33.2031 L7.79688,33.2031 L7.79688,17.7031 L16.7031,15.9063 L16.7031,30 L19.5,30 L19.5,15.2969 L23.2969,14.5938 C23.9063,14.5 24.4063,13.7969 24.4063,13.2031 L24.4063,7.29688 C24.4063,6.5 23.7969,5.90625 23,5.90625 L22.7969,5.90625 L19.5,6.59375 L19.5,-9.90625 L23.2969,-10.5938 M7.79688,9.09375 L7.79688,-7.5 L16.7031,-9.29688 L16.7031,7.20313 L7.79688,9.09375 "/>
<path class="KeySig" transform="matrix(2.76,0,0,2.76,619.825,1960.95)" d="M23.2969,-10.5938 C23.9063,-10.7031 24.4063,-11.4063 24.4063,-12 L24.4063,-17.9063 C24.4063,-18.7031 23.7969,-19.2969 23,-19.2969 L22.7969,-19.2969 L19.5,-18.5938 L19.5,-33.5 L16.7031,-33.5 L16.7031,-18 L7.79688,-16.2031 L7.79688,-30.2969 L5,-30.2969 L5,-15.5938 L1.09375,-14.7969 C0.5,-14.7031 0,-14 0,-13.4063 L0,-13.2031 L0,-7.40625 L0,-7.59375 C0,-6.79688 0.59375,-6.20313 1.40625,-6.20313 L1.70313,-6.20313 L5,-6.90625 L5,9.59375 L1.09375,10.4063 C0.5,10.5 0,11.2031 0,11.7969 L0,17.5938 C0,18.4063 0.59375,19 1.40625,19 L1.70313,19 L5,18.2969 L5,33.2031 L7.79688,33.2031 L7.79688,17.7031 L16.7031,15.9063 L16.7031,30 L19.5,30 L19.5,15.2969 L23.2969,14.5938 C23.9063,14.5 24.4063,13.7969 24.4063,13.2031 L24.4063,7.29688 C24.4063,6.5 23.7969,5.90625 23,5.90625 L22.7969,5.90625 L19.5,6.59375 L19.5,-9.90625 L23.2969,-10.5938 M7.79688,9.09375 L7.79688,-7.5 L16.7031,-9.29688 L16.7031,7.20313 L7.79688,9.09375 "/>
<path class="KeySig" transform="matrix(2.76,0,0,2.76,550.825,1857.45)" d="M23.2969,-10.5938 C23.9063,-10.7031 24.4063,-11.4063 24.4063,-12 L24.4063,-17.9063 C24.4063,-18.7031 23.7969,-19.2969 23,-19.2969 L22.7969,-19.2969 L19.5,-18.5938 L19.5,-33.5 L16.7031,-33.5 L16.7031,-18 L7.79688,-16.2031 L7.79688,-30.2969 L5,-30.2969 L5,-15.5938 L1.09375,-14.7969 C0.5,-14.7031 0,-14 0,-13.4063 L0,-13.2031 L0,-7.40625 L0,-7.59375 C0,-6.79688 0.59375,-6.20313 1.40625,-6.20313 L1.70313,-6.20313 L5,-6.90625 L5,9.59375 L1.09375,10.4063 C0.5,10.5 0,11.2031 0,11.7969 L0,17.5938 C0,18.4063 0.59375,19 1.40625,19 L1.70313,19 L5,18.2969 L5,33.2031 L7.79688,33.2031 L7.79688,17.7031 L16.7031,15.9063 L16.7031,30 L19.5,30 L19.5,15.2969 L23.2969,14.5938 C23.9063,14.5 24.4063,13.7969 24.4063,13.2031 L24.4063,7.29688 C24.4063,6.5 23.7969,5.90625 23,5.90625 L22.7969,5.90625 L19.5,6.59375 L19.5,-9.90625 L23.2969,-10.5938 M7.79688,9.09375 L7.79688,-7.5 L16.7031,-9.29688 L16.7031,7.20313 L7.79688,9.09375 "/>
<path class="TimeSig" transform="matrix(2.76,0,0,2.76,838.62,658.079)" d="M3.59375,12.625 L20.7656,12.625 L20.7656,20.0781 L12.5469,20.0781 C11.7656,20.0781 11.125,20.7031 11.125,21.4844 L11.125,23.3906 C11.125,24.1719 11.7656,24.7969 12.5469,24.7969 L42.7969,24.7969 C43.5781,24.7969 44.2031,24.1719 44.2031,23.3906 L44.2031,21.4844 C44.2031,20.7031 43.5781,20.0781 42.7969,20.0781 L33.8594,20.0781 L33.8594,12.625 L42.7969,12.625 C43.5781,12.625 44.2031,12 44.2031,11.2188 L44.2031,9.3125 C44.2031,8.53125 43.5781,7.90625 42.7969,7.90625 L33.8594,7.90625 L33.8594,-8.0625 C33.8594,-8.59375 33.5469,-9.07813 33.0781,-9.3125 L31.8594,-9.92188 C31.3281,-10.1719 30.7031,-10.0781 30.2656,-9.6875 L21.2188,-1.375 C20.9375,-1.09375 20.7656,-0.734375 20.7656,-0.328125 L20.7656,7.90625 L9.25,7.90625 C9.25,7.90625 20.375,-4.125 32.2188,-19.8906 C33.0781,-21.0469 32.5781,-22.0938 32.3906,-22.2813 L30.2188,-24.4844 C29.9531,-24.75 29.5938,-24.9063 29.2188,-24.9063 C28.625,-24.9063 15.0625,-24.875 14.3438,-24.9063 C13.625,-24.9219 13.0938,-24.2969 13.0156,-23.6875 C13.0156,-23.6875 12.4844,-16.3281 9.875,-8.1875 C7.28125,-0.078125 4.34375,4.90625 1.6875,8.53125 C1.6875,8.53125 1.14063,9.51563 1.5,10.2656 C1.84375,11.0156 2.48438,12.0938 2.48438,12.0938 C2.48438,12.0938 2.73438,12.625 3.59375,12.625"/>
<path class="TimeSig" transform="matrix(2.76,0,0,2.76,838.62,795.346)" d="M3.59375,12.625 L20.7656,12.625 L20.7656,20.0781 L12.5469,20.0781 C11.7656,20.0781 11.125,20.7031 11.125,21.4844 L11.125,23.3906 C11.125,24.1719 11.7656,24.7969 12.5469,24.7969 L42.7969,24.7969 C43.5781,24.7969 44.2031,24.1719 44.2031,23.3906 L44.2031,21.4844 C44.2031,20.7031 43.5781,20.0781 42.7969,20.0781 L33.8594,20.0781 L33.8594,12.625 L42.7969,12.625 C43.5781,12.625 44.2031,12 44.2031,11.2188 L44.2031,9.3125 C44.2031,8.53125 43.5781,7.90625 42.7969,7.90625 L33.8594,7.90625 L33.8594,-8.0625 C33.8594,-8.59375 33.5469,-9.07813 33.0781,-9.3125 L31.8594,-9.92188 C31.3281,-10.1719 30.7031,-10.0781 30.2656,-9.6875 L21.2188,-1.375 C20.9375,-1.09375 20.7656,-0.734375 20.7656,-0.328125 L20.7656,7.90625 L9.25,7.90625 C9.25,7.90625 20.375,-4.125 32.2188,-19.8906 C33.0781,-21.0469 32.5781,-22.0938 32.3906,-22.2813 L30.2188,-24.4844 C29.9531,-24.75 29.5938,-24.9063 29.2188,-24.9063 C28.625,-24.9063 15.0625,-24.875 14.3438,-24.9063 C13.625,-24.9219 13.0938,-24.2969 13.0156,-23.6875 C13.0156,-23.6875 12.4844,-16.3281 9.875,-8.1875 C7.28125,-0.078125 4.34375,4.90625 1.6875,8.53125 C1.6875,8.53125 1.14063,9.51563 1.5,10.2656 C1.84375,11.0156 2.48438,12.0938 2.48438,12.0938 C2.48438,12.0938 2.73438,12.625 3.59375,12.625"/>
<path class="Rest" transform="matrix(2.76,0,0,2.76,1164.33,657.713)" d="M31.1094,-0.5 L1.40625,-0.5 C0.59375,-0.5 0,0.09375 0,0.90625 L0,11.7031 C0,12.5 0.59375,13.0938 1.40625,13.0938 L31.1094,13.0938 C31.9063,13.0938 32.5,12.5 32.5,11.7031 L32.5,0.90625 C32.5,0.09375 31.9063,-0.5 31.1094,-0.5"/>
<path class="Rest" transform="matrix(2.76,0,0,2.76,1840.71,726.713)" d="M23.2031,16.9063 L23,16.5938 C22.9063,16.5 22.7031,16.2969 22.4063,15.9063 L10.9063,1.70313 C10.5938,1.40625 10.7031,0.59375 10.9063,0.203125 L21.0938,-15.2031 C21.2031,-15.4063 21.2969,-15.7031 21.2969,-15.9063 L21.2969,-16.7969 C21.2969,-17.0938 21.2031,-17.4063 21,-17.5938 L4.79688,-39.5 C4.79688,-39.5 4,-40.7031 3,-39.7969 C2,-39 2.79688,-37.7031 2.79688,-37.7031 L10.4063,-27.2969 C10.7969,-26.7031 10.7969,-25.5 10.4063,-24.9063 L0.296875,-9.5 C0.203125,-9.29688 0.09375,-8.90625 0.09375,-8.70313 L0.09375,-7.79688 C0.09375,-7.5 0.203125,-7.20313 0.40625,-7 L11.5938,6.90625 C11.2031,6.79688 10.2969,6.59375 9.09375,6.59375 C7.40625,6.59375 5.20313,7 3.40625,8.59375 C1.20313,10.5938 0,13.4063 0,15.9063 C0,17.2969 0.296875,18.7031 1.09375,19.7969 C3.20313,23 10.7031,32.5 10.7031,32.5 C10.7031,32.5 11.5938,33.6094 12.5,32.9063 C13.4063,32.2031 13.2031,31.2969 12.9063,30.7969 C12.5938,30.2969 9.40625,24.5 9.40625,24.5 C9.40625,24.5 8.70313,23.0938 8.70313,21.2969 C8.70313,20 9.09375,18.4063 10.4063,17.0938 C11.5938,15.9063 13,15.5 14.2969,15.5 C15.5938,15.5 16.7031,15.9063 17.5,16.4063 L21.4063,18.9063 C21.4063,18.9063 22.5938,19.5 23.2031,18.5938 C23.7031,17.7969 23.5,17.4063 23.2031,16.9063"/>
<path class="Rest" transform="matrix(2.76,0,0,2.76,3690.65,726.713)" d="M0,-11.7969 L0,-1 C0,0.40625 0,0.40625 1.40625,0.40625 L31.1094,0.40625 C32.5,0.40625 32.5,0.40625 32.5,-1 L32.5,-11.7969 C32.5,-13.2031 32.5,-13.2031 31.1094,-13.2031 L1.40625,-13.2031 C0,-13.2031 0,-13.2031 0,-11.7969"/>
<path class="Hook" transform="matrix(2.76,0,0,2.76,2418.2,864.713)" d="M2.5,0.40625 C2.5,0.203125 3.40625,-3.20313 3.5,-3.5 C3.59375,-3.90625 5.40625,-9.59375 9.09375,-15.2969 C11.7969,-19.5 21.2969,-31.7969 21,-31.7969 C21,-31.7969 28.4063,-41.2969 28.9063,-54.2031 L28.9063,-56.5 C28.9063,-62.6094 28.1094,-71.2031 24.5938,-79.9063 C24.2031,-80.9063 23.7969,-81.9063 22.7031,-81.5 C21.5938,-81.1094 21.9063,-79.9063 22.2031,-78.8125 C24,-71.7969 25,-64.6094 25,-57.4063 C25,-49 22,-44.7969 20.2031,-41.7031 C13.5938,-30.6094 5,-25.2031 0.796875,-23.7969 C0.296875,-23.5938 0,-23.2031 0,-22.7031 L0,-16.5 L0,-0.09375 C0,0.59375 0.59375,1.20313 1.29688,1.20313 C1.79688,1.20313 2.40625,0.796875 2.5,0.40625"/>
<path class="Hook" transform="matrix(2.76,0,0,2.76,2896.67,830.213)" d="M2.5,0.40625 C2.5,0.203125 3.40625,-3.20313 3.5,-3.5 C3.59375,-3.90625 5.40625,-9.59375 9.09375,-15.2969 C11.7969,-19.5 21.2969,-31.7969 21,-31.7969 C21,-31.7969 28.4063,-41.2969 28.9063,-54.2031 L28.9063,-56.5 C28.9063,-62.6094 28.1094,-71.2031 24.5938,-79.9063 C24.2031,-80.9063 23.7969,-81.9063 22.7031,-81.5 C21.5938,-81.1094 21.9063,-79.9063 22.2031,-78.8125 C24,-71.7969 25,-64.6094 25,-57.4063 C25,-49 22,-44.7969 20.2031,-41.7031 C13.5938,-30.6094 5,-25.2031 0.796875,-23.7969 C0.296875,-23.5938 0,-23.2031 0,-22.7031 L0,-16.5 L0,-0.09375 C0,0.59375 0.59375,1.20313 1.29688,1.20313 C1.79688,1.20313 2.40625,0.796875 2.5,0.40625"/>
<path class="Fingering" d="M2179.45,71.1316 C2172.4,79.6316 2153.37,86.0379 2134.33,86.4598 L2134.33,95.3504 L2152.54,95.3504 C2164.54,95.5691 2165.79,96.8035 2165.37,108.397 L2165.37,191.397 C2165.37,201.96 2165.37,202.382 2164.14,204.241 C2162.48,206.304 2158.54,207.132 2146.95,207.132 L2133.5,207.132 L2133.5,216.866 L2215.47,216.866 L2215.47,207.132 L2204.08,207.132 C2192.48,207.132 2188.56,206.304 2186.9,204.241 C2185.45,202.382 2185.45,202.163 2185.45,191.397 L2185.45,105.913 C2185.45,94.3191 2185.87,84.5848 2186.9,71.1316 L2179.45,71.1316 "/>
<path class="Fingering" d="M2448.85,229.675 L2378.48,327.597 L2378.48,339.191 L2436.65,339.191 L2436.65,349.941 C2436.65,360.503 2436.65,360.925 2435.4,362.784 C2433.74,365.066 2429.81,365.675 2418.01,365.675 L2415.74,365.675 L2415.74,375.409 L2476.18,375.409 L2476.18,365.675 L2475.35,365.675 C2463.56,365.675 2459.62,365.066 2457.96,362.784 C2456.73,360.925 2456.73,360.706 2456.73,349.941 L2456.73,339.191 L2481.78,339.191 L2481.78,327.597 L2456.73,327.597 L2456.73,271.081 C2456.73,245.206 2456.73,244.581 2457.76,229.675 L2448.85,229.675 M2436.65,327.597 L2391.1,327.597 L2436.65,264.878 L2436.65,327.597 "/>
<path class="Fingering" d="M2638.58,229.675 L2568.21,327.597 L2568.21,339.191 L2626.38,339.191 L2626.38,349.941 C2626.38,360.503 2626.38,360.925 2625.13,362.784 C2623.47,365.066 2619.54,365.675 2607.74,365.675 L2605.47,365.675 L2605.47,375.409 L2665.91,375.409 L2665.91,365.675 L2665.08,365.675 C2653.29,365.675 2649.35,365.066 2647.69,362.784 C2646.46,360.925 2646.46,360.706 2646.46,349.941 L2646.46,339.191 L2671.5,339.191 L2671.5,327.597 L2646.46,327.597 L2646.46,271.081 C2646.46,245.206 2646.46,244.581 2647.49,229.675 L2638.58,229.675 M2626.38,327.597 L2580.83,327.597 L2626.38,264.878 L2626.38,327.597 "/>
<path class="Fingering" d="M2957.18,238.691 L2948.08,238.691 L2946.01,249.253 C2943.33,262.706 2941.67,263.956 2928.83,263.956 L2882.47,263.956 C2896.75,249.05 2901.51,244.706 2914.75,234.347 C2933.59,219.863 2941.67,212.613 2946.42,206.41 C2953.04,197.3 2956.36,188.191 2956.36,178.05 C2956.36,154.441 2936.9,137.675 2909.78,137.675 C2883.5,137.675 2863.42,154.441 2863.42,176.597 C2863.42,189.644 2870.04,198.535 2879.76,198.535 C2887.43,198.535 2892.61,193.363 2892.61,185.91 C2892.61,180.738 2889.7,175.972 2885.36,174.113 C2877.7,171.003 2877.29,170.597 2877.29,167.91 C2877.29,164.8 2879.36,160.035 2882.25,156.519 C2887.43,150.097 2895.92,146.581 2905.65,146.581 C2922.83,146.581 2932.97,157.144 2932.97,174.535 C2932.97,189.847 2925.73,203.722 2908.54,221.925 C2893.23,238.081 2883.7,248.222 2880.18,252.16 C2872.73,260.847 2869.01,265.613 2859.9,277.613 L2859.9,283.41 L2953.26,283.41 L2957.18,238.691 "/>
<path class="Fingering" d="M942.416,1545.21 L933.306,1545.21 L931.244,1555.77 C928.556,1569.23 926.9,1570.48 914.056,1570.48 L867.697,1570.48 C881.978,1555.57 886.744,1551.23 899.978,1540.87 C918.822,1526.38 926.9,1519.13 931.65,1512.93 C938.275,1503.82 941.588,1494.71 941.588,1484.57 C941.588,1460.96 922.134,1444.19 895.009,1444.19 C868.728,1444.19 848.65,1460.96 848.65,1483.12 C848.65,1496.16 855.275,1505.05 864.994,1505.05 C872.666,1505.05 877.838,1499.88 877.838,1492.43 C877.838,1487.26 874.931,1482.49 870.588,1480.63 C862.931,1477.52 862.525,1477.12 862.525,1474.43 C862.525,1471.32 864.588,1466.55 867.478,1463.04 C872.666,1456.62 881.15,1453.1 890.884,1453.1 C908.056,1453.1 918.197,1463.66 918.197,1481.05 C918.197,1496.37 910.963,1510.24 893.775,1528.44 C878.463,1544.6 868.931,1554.74 865.416,1558.68 C857.963,1567.37 854.244,1572.13 845.134,1584.13 L845.134,1589.93 L938.494,1589.93 L942.416,1545.21 "/>
<path class="Fingering" d="M1511.46,1436.78 L1502.35,1436.78 L1500.29,1447.34 C1497.6,1460.79 1495.95,1462.04 1483.1,1462.04 L1436.74,1462.04 C1451.03,1447.14 1455.79,1442.79 1469.03,1432.43 C1487.87,1417.95 1495.95,1410.7 1500.7,1404.5 C1507.32,1395.39 1510.63,1386.28 1510.63,1376.14 C1510.63,1352.53 1491.18,1335.76 1464.06,1335.76 C1437.78,1335.76 1417.7,1352.53 1417.7,1374.68 C1417.7,1387.73 1424.32,1396.62 1434.04,1396.62 C1441.71,1396.62 1446.88,1391.45 1446.88,1384 C1446.88,1378.83 1443.98,1374.06 1439.63,1372.2 C1431.98,1369.09 1431.57,1368.68 1431.57,1366 C1431.57,1362.89 1433.63,1358.12 1436.53,1354.61 C1441.71,1348.18 1450.2,1344.67 1459.93,1344.67 C1477.1,1344.67 1487.24,1355.23 1487.24,1372.62 C1487.24,1387.93 1480.01,1401.81 1462.82,1420.01 C1447.51,1436.17 1437.98,1446.31 1434.46,1450.25 C1427.01,1458.93 1423.29,1463.7 1414.18,1475.7 L1414.18,1481.5 L1507.54,1481.5 L1511.46,1436.78 "/>
<path class="Fingering" d="M2072.55,1334.1 L2063.44,1334.1 L2061.38,1344.66 C2058.69,1358.11 2057.04,1359.36 2044.19,1359.36 L1997.83,1359.36 C2012.12,1344.46 2016.88,1340.11 2030.12,1329.75 C2048.96,1315.27 2057.04,1308.02 2061.79,1301.82 C2068.41,1292.71 2071.72,1283.6 2071.72,1273.46 C2071.72,1249.85 2052.27,1233.08 2025.15,1233.08 C1998.87,1233.08 1978.79,1249.85 1978.79,1272 C1978.79,1285.05 1985.41,1293.94 1995.13,1293.94 C2002.8,1293.94 2007.97,1288.77 2007.97,1281.32 C2007.97,1276.14 2005.07,1271.38 2000.72,1269.52 C1993.07,1266.41 1992.66,1266 1992.66,1263.32 C1992.66,1260.21 1994.72,1255.44 1997.62,1251.93 C2002.8,1245.5 2011.29,1241.99 2021.02,1241.99 C2038.19,1241.99 2048.33,1252.55 2048.33,1269.94 C2048.33,1285.25 2041.1,1299.13 2023.91,1317.33 C2008.6,1333.49 1999.07,1343.63 1995.55,1347.57 C1988.1,1356.25 1984.38,1361.02 1975.27,1373.02 L1975.27,1378.82 L2068.63,1378.82 L2072.55,1334.1 "/>
<path class="Fingering" d="M2646.79,1178.85 L2637.68,1178.85 L2635.61,1189.41 C2632.93,1202.86 2631.27,1204.11 2618.43,1204.11 L2572.07,1204.11 C2586.35,1189.21 2591.11,1184.86 2604.35,1174.5 C2623.19,1160.02 2631.27,1152.77 2636.02,1146.57 C2642.64,1137.46 2645.96,1128.35 2645.96,1118.21 C2645.96,1094.6 2626.5,1077.83 2599.38,1077.83 C2573.1,1077.83 2553.02,1094.6 2553.02,1116.75 C2553.02,1129.8 2559.64,1138.69 2569.36,1138.69 C2577.04,1138.69 2582.21,1133.52 2582.21,1126.07 C2582.21,1120.89 2579.3,1116.13 2574.96,1114.27 C2567.3,1111.16 2566.89,1110.75 2566.89,1108.07 C2566.89,1104.96 2568.96,1100.19 2571.85,1096.68 C2577.04,1090.25 2585.52,1086.74 2595.25,1086.74 C2612.43,1086.74 2622.57,1097.3 2622.57,1114.69 C2622.57,1130 2615.33,1143.88 2598.14,1162.08 C2582.83,1178.24 2573.3,1188.38 2569.79,1192.32 C2562.33,1201 2558.61,1205.77 2549.5,1217.77 L2549.5,1223.57 L2642.86,1223.57 L2646.79,1178.85 "/>
<path class="Fingering" d="M3229.78,1545.21 L3220.67,1545.21 L3218.61,1555.77 C3215.92,1569.23 3214.27,1570.48 3201.42,1570.48 L3155.06,1570.48 C3169.35,1555.57 3174.11,1551.23 3187.35,1540.87 C3206.19,1526.38 3214.27,1519.13 3219.02,1512.93 C3225.64,1503.82 3228.95,1494.71 3228.95,1484.57 C3228.95,1460.96 3209.5,1444.19 3182.38,1444.19 C3156.1,1444.19 3136.02,1460.96 3136.02,1483.12 C3136.02,1496.16 3142.64,1505.05 3152.36,1505.05 C3160.03,1505.05 3165.2,1499.88 3165.2,1492.43 C3165.2,1487.26 3162.3,1482.49 3157.95,1480.63 C3150.3,1477.52 3149.89,1477.12 3149.89,1474.43 C3149.89,1471.32 3151.95,1466.55 3154.85,1463.04 C3160.03,1456.62 3168.52,1453.1 3178.25,1453.1 C3195.42,1453.1 3205.56,1463.66 3205.56,1481.05 C3205.56,1496.37 3198.33,1510.24 3181.14,1528.44 C3165.83,1544.6 3156.3,1554.74 3152.78,1558.68 C3145.33,1567.37 3141.61,1572.13 3132.5,1584.13 L3132.5,1589.93 L3225.86,1589.93 L3229.78,1545.21 "/>
<path class="Fingering" d="M3794.45,1545.21 L3785.34,1545.21 L3783.28,1555.77 C3780.59,1569.23 3778.94,1570.48 3766.09,1570.48 L3719.73,1570.48 C3734.02,1555.57 3738.78,1551.23 3752.02,1540.87 C3770.86,1526.38 3778.94,1519.13 3783.69,1512.93 C3790.31,1503.82 3793.62,1494.71 3793.62,1484.57 C3793.62,1460.96 3774.17,1444.19 3747.05,1444.19 C3720.77,1444.19 3700.69,1460.96 3700.69,1483.12 C3700.69,1496.16 3707.31,1505.05 3717.03,1505.05 C3724.7,1505.05 3729.87,1499.88 3729.87,1492.43 C3729.87,1487.26 3726.97,1482.49 3722.62,1480.63 C3714.97,1477.52 3714.56,1477.12 3714.56,1474.43 C3714.56,1471.32 3716.62,1466.55 3719.52,1463.04 C3724.7,1456.62 3733.19,1453.1 3742.92,1453.1 C3760.09,1453.1 3770.23,1463.66 3770.23,1481.05 C3770.23,1496.37 3763,1510.24 3745.81,1528.44 C3730.5,1544.6 3720.97,1554.74 3717.45,1558.68 C3710,1567.37 3706.28,1572.13 3697.17,1584.13 L3697.17,1589.93 L3790.53,1589.93 L3794.45,1545.21 "/>
<path class="RehearsalMark" fill="none" stroke="#000000" stroke-width="11.04" stroke-linecap="square" stroke-linejoin="miter" stroke-miterlimit="2" fill-rule="evenodd" d="M839.284,198.693 L1074.32,198.693 L1074.32,421.733 L839.284,421.733 L839.284,198.693 "/>
<path class="RehearsalMark" d="M951.038,239.479 L907.241,341.76 C898.351,362.604 891.21,370.135 879.835,371.291 L879.835,381.713 L935.601,381.713 L935.601,371.291 C921.898,370.526 916.491,366.854 916.491,357.979 C916.491,354.697 917.273,351.604 919.398,346.979 L922.476,339.635 L970.538,339.635 L977.866,358.557 C979.991,363.963 980.179,364.916 980.179,366.463 C980.179,369.947 977.491,371.104 968.991,371.104 L965.71,371.291 L965.71,381.713 L1033.46,381.713 L1033.46,371.291 C1022.44,370.901 1019.37,368.979 1015.3,359.135 L965.71,239.479 L951.038,239.479 M946.991,280.588 L965.71,326.713 L927.507,326.713 L946.991,280.588 "/>
<path class="RehearsalMark" fill="none" stroke="#000000" stroke-width="11.04" stroke-linecap="square" stroke-linejoin="miter" stroke-miterlimit="2" fill-rule="evenodd" d="M508.148,1270 L728.188,1270 L728.188,1490.04 L508.148,1490.04 L508.148,1270 "/>
<path class="RehearsalMark" d="M548.449,1310.68 L548.449,1321.1 L551.34,1321.1 C561.762,1321.1 565.434,1321.88 567.168,1323.81 C568.527,1325.93 568.527,1326.51 568.527,1338.48 L568.527,1422.23 C568.527,1434.2 568.527,1434.77 567.168,1436.71 C565.434,1438.84 561.574,1439.6 551.34,1439.6 L548.449,1439.6 L548.449,1450.02 L626.606,1450.02 C646.684,1450.02 656.918,1448.48 666.949,1444.04 C679.106,1438.63 687.215,1426.48 687.215,1413.35 C687.215,1399.85 679.496,1389.23 665.215,1382.67 C658.652,1379.59 653.059,1378.04 642.824,1376.68 C652.277,1375.15 657.684,1373.79 663.09,1371.29 C674.668,1365.68 680.84,1356.42 680.84,1344.84 C680.84,1333.84 675.059,1323.62 665.59,1318.4 C654.981,1312.42 645.715,1310.68 622.949,1310.68 L548.449,1310.68 M603.262,1373.21 L603.262,1332.31 C602.871,1324.2 605.574,1321.49 614.074,1321.1 L619.856,1321.1 C636.84,1321.1 645.918,1329.6 645.918,1345.62 C645.918,1355.07 642.637,1362.6 636.449,1367.43 C631.246,1371.67 624.684,1373.21 612.715,1373.21 L603.262,1373.21 M603.262,1383.82 L616.574,1383.82 C628.731,1383.82 634.324,1384.99 639.731,1388.46 C646.496,1392.9 650.356,1401.38 650.356,1411.43 C650.356,1420.7 646.871,1429.18 641.277,1433.81 C636.449,1437.67 630.09,1439.6 620.824,1439.6 L615.027,1439.6 C604.027,1439.21 602.871,1438.06 603.262,1427.26 L603.262,1383.82 "/>
</svg>
