<?xml version="1.0" encoding="UTF-8" standalone="no"?>
<svg width="4208.47px" height="2409.45px" viewBox="0 0 4208.47 2409.45"
 xmlns="http://www.w3.org/2000/svg" xmlns:xlink="http://www.w3.org/1999/xlink" version="1.2" baseProfile="tiny">
<title>TUBA PIRATA</title>
<desc>Generated by MuseScore 3.6.2</desc>
<polyline class="StaffLines" fill="none" stroke="#000000" stroke-width="5.85" stroke-linejoin="bevel" points="70.866,442.913 4137.61,442.913"/>
<polyline class="StaffLines" fill="none" stroke="#000000" stroke-width="5.85" stroke-linejoin="bevel" points="70.866,496.063 4137.61,496.063"/>
<polyline class="StaffLines" fill="none" stroke="#000000" stroke-width="5.85" stroke-linejoin="bevel" points="70.866,549.212 4137.61,549.212"/>
<polyline class="StaffLines" fill="none" stroke="#000000" stroke-width="5.85" stroke-linejoin="bevel" points="70.866,602.362 4137.61,602.362"/>
<polyline class="StaffLines" fill="none" stroke="#000000" stroke-width="5.85" stroke-linejoin="bevel" points="70.866,655.512 4137.61,655.512"/>
<polyline class="StaffLines" fill="none" stroke="#000000" stroke-width="5.85" stroke-linejoin="bevel" points="70.866,1213.58 4137.61,1213.58"/>
<polyline class="StaffLines" fill="none" stroke="#000000" stroke-width="5.85" stroke-linejoin="bevel" points="70.866,1266.73 4137.61,1266.73"/>
<polyline class="StaffLines" fill="none" stroke="#000000" stroke-width="5.85" stroke-linejoin="bevel" points="70.866,1319.88 4137.61,1319.88"/>
<polyline class="StaffLines" fill="none" stroke="#000000" stroke-width="5.85" stroke-linejoin="bevel" points="70.866,1373.03 4137.61,1373.03"/>
<polyline class="StaffLines" fill="none" stroke="#000000" stroke-width="5.85" stroke-linejoin="bevel" points="70.866,1426.18 4137.61,1426.18"/>
<polyline class="StaffLines" fill="none" stroke="#000000" stroke-width="5.85" stroke-linejoin="bevel" points="70.866,1984.25 4137.61,1984.25"/>
<polyline class="StaffLines" fill="none" stroke="#000000" stroke-width="5.85" stroke-linejoin="bevel" points="70.866,2037.4 4137.61,2037.4"/>
<polyline class="StaffLines" fill="none" stroke="#000000" stroke-width="5.85" stroke-linejoin="bevel" points="70.866,2090.55 4137.61,2090.55"/>
<polyline class="StaffLines" fill="none" stroke="#000000" stroke-width="5.85" stroke-linejoin="bevel" points="70.866,2143.7 4137.61,2143.7"/>
<polyline class="StaffLines" fill="none" stroke="#000000" stroke-width="5.85" stroke-linejoin="bevel" points="70.866,2196.85 4137.61,2196.85"/>
<path class="MeasureNumber" d="M80.7279,1079.12 C78.6079,1079.36 76.0079,1079.52 73.7679,1079.52 C72.6479,1079.52 71.3679,1079.48 69.9279,1079.4 C68.6079,1079.32 67.2879,1079.24 65.9279,1079.16 L64.9279,1079.12 L61.0479,1087.56 L62.5279,1088.04 L63.4879,1086.44 C65.3679,1083.32 66.2479,1082.88 70.3279,1082.92 L77.0879,1082.92 L72.7279,1089.16 C67.6079,1096.36 67.6079,1096.36 65.6479,1099.56 C63.8879,1102.4 63.1679,1104.16 63.1679,1105.6 C63.1679,1107 64.0479,1107.88 65.4479,1107.88 C66.9279,1107.88 67.6879,1107.16 68.2079,1105.28 C70.2079,1097.76 71.4079,1095.16 76.9679,1086.16 L80.7279,1080.32 L80.7279,1079.12 "/>
<path class="MeasureNumber" d="M67.9291,1849.63 L66.7691,1849.63 C64.5691,1851.27 60.3291,1852.67 57.4491,1852.67 L56.9691,1854.43 L59.7291,1854.43 C62.1691,1854.43 62.4491,1854.51 62.4491,1855.23 C62.4491,1855.59 62.4491,1855.59 62.0491,1857.03 L57.7691,1873.03 C57.2491,1875.03 57.2091,1875.15 56.8491,1875.51 C56.4491,1875.91 55.6091,1876.03 53.4891,1876.07 L51.7691,1876.07 L51.5691,1877.95 L66.3691,1877.95 L66.6091,1876.07 L64.4491,1876.07 C61.8491,1876.07 61.2891,1875.87 61.2891,1874.99 C61.2891,1874.71 61.4491,1873.79 61.6491,1873.03 L67.9291,1849.63 M90.1635,1849.63 L89.0035,1849.63 C86.8035,1851.27 82.5635,1852.67 79.6835,1852.67 L79.2035,1854.43 L81.9635,1854.43 C84.4035,1854.43 84.6835,1854.51 84.6835,1855.23 C84.6835,1855.59 84.6835,1855.59 84.2835,1857.03 L80.0035,1873.03 C79.4835,1875.03 79.4435,1875.15 79.0835,1875.51 C78.6835,1875.91 77.8435,1876.03 75.7235,1876.07 L74.0035,1876.07 L73.8035,1877.95 L88.6035,1877.95 L88.8435,1876.07 L86.6835,1876.07 C84.0835,1876.07 83.5235,1875.87 83.5235,1874.99 C83.5235,1874.71 83.6835,1873.79 83.8835,1873.03 L90.1635,1849.63 "/>
<path class="TieSegment" stroke="#000000" stroke-width="3.72" stroke-linecap="round" stroke-linejoin="round" fill-rule="evenodd" d="M2609.11,1519.19 C2672.2,1559.7 2861.47,1559.7 2924.56,1519.19 C2861.47,1574.58 2672.2,1574.58 2609.11,1519.19"/>
<path class="TieSegment" stroke="#000000" stroke-width="3.72" stroke-linecap="round" stroke-linejoin="round" fill-rule="evenodd" d="M1979.96,2210.14 C2047.12,2253.74 2248.62,2253.74 2315.78,2210.14 C2248.62,2268.62 2047.12,2268.62 1979.96,2210.14"/>
<polyline class="BarLine" stroke="#000000" stroke-width="9.57" stroke-linejoin="bevel" points="2184.21,439.99 2184.21,658.435"/>
<path class="BarLine" transform="matrix(2.12598,0,0,2.12598,2506.95,522.638)" d="M10.4,0 C10.4,-2.9 8.1,-5.3 5.2,-5.3 C2.3,-5.3 0,-2.9 0,0 C0,2.9 2.3,5.3 5.2,5.3 C8.1,5.3 10.4,2.9 10.4,0"/>
<path class="BarLine" transform="matrix(2.12598,0,0,2.12598,2506.95,575.787)" d="M10.4,0 C10.4,-2.9 8.1,-5.3 5.2,-5.3 C2.3,-5.3 0,-2.9 0,0 C0,2.9 2.3,5.3 5.2,5.3 C8.1,5.3 10.4,2.9 10.4,0"/>
<polyline class="BarLine" stroke="#000000" stroke-width="9.57" stroke-linejoin="bevel" points="2555.21,439.99 2555.21,658.435"/>
<polyline class="BarLine" stroke="#000000" stroke-width="29.23" stroke-linejoin="bevel" points="2592.41,439.99 2592.41,658.435"/>
<polyline class="BarLine" stroke="#000000" stroke-width="29.23" stroke-linejoin="bevel" points="2586.56,439.99 2586.56,658.435"/>
<polyline class="BarLine" stroke="#000000" stroke-width="9.57" stroke-linejoin="bevel" points="2623.76,439.99 2623.76,658.435"/>
<path class="BarLine" transform="matrix(2.12598,0,0,2.12598,2649.91,522.638)" d="M10.4,0 C10.4,-2.9 8.1,-5.3 5.2,-5.3 C2.3,-5.3 0,-2.9 0,0 C0,2.9 2.3,5.3 5.2,5.3 C8.1,5.3 10.4,2.9 10.4,0"/>
<path class="BarLine" transform="matrix(2.12598,0,0,2.12598,2649.91,575.787)" d="M10.4,0 C10.4,-2.9 8.1,-5.3 5.2,-5.3 C2.3,-5.3 0,-2.9 0,0 C0,2.9 2.3,5.3 5.2,5.3 C8.1,5.3 10.4,2.9 10.4,0"/>
<polyline class="BarLine" stroke="#000000" stroke-width="9.57" stroke-linejoin="bevel" points="2988.91,439.99 2988.91,658.435"/>
<path class="BarLine" transform="matrix(2.12598,0,0,2.12598,3311.65,522.638)" d="M10.4,0 C10.4,-2.9 8.1,-5.3 5.2,-5.3 C2.3,-5.3 0,-2.9 0,0 C0,2.9 2.3,5.3 5.2,5.3 C8.1,5.3 10.4,2.9 10.4,0"/>
<path class="BarLine" transform="matrix(2.12598,0,0,2.12598,3311.65,575.787)" d="M10.4,0 C10.4,-2.9 8.1,-5.3 5.2,-5.3 C2.3,-5.3 0,-2.9 0,0 C0,2.9 2.3,5.3 5.2,5.3 C8.1,5.3 10.4,2.9 10.4,0"/>
<polyline class="BarLine" stroke="#000000" stroke-width="9.57" stroke-linejoin="bevel" points="3359.91,439.99 3359.91,658.435"/>
<polyline class="BarLine" stroke="#000000" stroke-width="29.23" stroke-linejoin="bevel" points="3397.11,439.99 3397.11,658.435"/>
<polyline class="BarLine" stroke="#000000" stroke-width="29.23" stroke-linejoin="bevel" points="3391.26,439.99 3391.26,658.435"/>
<polyline class="BarLine" stroke="#000000" stroke-width="9.57" stroke-linejoin="bevel" points="3428.46,439.99 3428.46,658.435"/>
<path class="BarLine" transform="matrix(2.12598,0,0,2.12598,3454.6,522.638)" d="M10.4,0 C10.4,-2.9 8.1,-5.3 5.2,-5.3 C2.3,-5.3 0,-2.9 0,0 C0,2.9 2.3,5.3 5.2,5.3 C8.1,5.3 10.4,2.9 10.4,0"/>
<path class="BarLine" transform="matrix(2.12598,0,0,2.12598,3454.6,575.787)" d="M10.4,0 C10.4,-2.9 8.1,-5.3 5.2,-5.3 C2.3,-5.3 0,-2.9 0,0 C0,2.9 2.3,5.3 5.2,5.3 C8.1,5.3 10.4,2.9 10.4,0"/>
<polyline class="BarLine" stroke="#000000" stroke-width="9.57" stroke-linejoin="bevel" points="3793.61,439.99 3793.61,658.435"/>
<polyline class="BarLine" stroke="#000000" stroke-width="9.57" stroke-linejoin="bevel" points="4132.82,439.99 4132.82,658.435"/>
<polyline class="BarLine" stroke="#000000" stroke-width="9.57" stroke-linejoin="bevel" points="842.239,1210.66 842.239,1429.1"/>
<path class="BarLine" transform="matrix(2.12598,0,0,2.12598,1219.89,1293.31)" d="M10.4,0 C10.4,-2.9 8.1,-5.3 5.2,-5.3 C2.3,-5.3 0,-2.9 0,0 C0,2.9 2.3,5.3 5.2,5.3 C8.1,5.3 10.4,2.9 10.4,0"/>
<path class="BarLine" transform="matrix(2.12598,0,0,2.12598,1219.89,1346.46)" d="M10.4,0 C10.4,-2.9 8.1,-5.3 5.2,-5.3 C2.3,-5.3 0,-2.9 0,0 C0,2.9 2.3,5.3 5.2,5.3 C8.1,5.3 10.4,2.9 10.4,0"/>
<polyline class="BarLine" stroke="#000000" stroke-width="9.57" stroke-linejoin="bevel" points="1268.15,1210.66 1268.15,1429.1"/>
<polyline class="BarLine" stroke="#000000" stroke-width="29.23" stroke-linejoin="bevel" points="1305.35,1210.66 1305.35,1429.1"/>
<polyline class="BarLine" stroke="#000000" stroke-width="9.57" stroke-linejoin="bevel" points="2738.81,1210.66 2738.81,1429.1"/>
<polyline class="BarLine" stroke="#000000" stroke-width="9.57" stroke-linejoin="bevel" points="4132.82,1210.66 4132.82,1429.1"/>
<polyline class="BarLine" stroke="#000000" stroke-width="9.57" stroke-linejoin="bevel" points="2148.64,1981.33 2148.64,2199.77"/>
<polyline class="BarLine" stroke="#000000" stroke-width="9.57" stroke-linejoin="bevel" points="3559.03,1981.33 3559.03,2199.77"/>
<polyline class="BarLine" stroke="#000000" stroke-width="9.57" stroke-linejoin="bevel" points="4085.79,1981.33 4085.79,2199.77"/>
<polyline class="BarLine" stroke="#000000" stroke-width="29.23" stroke-linejoin="bevel" points="4122.99,1981.33 4122.99,2199.77"/>
<path class="Accidental" transform="matrix(2.12598,0,0,2.12598,1386.3,628.937)" d="M20.1,-7.9 C19.5,-11.8 17.1,-15.5 12,-15.5 C7,-15.5 4.1,-12.4 3.6,-11.8 L4,-43.9 C4,-44.7 3.4,-45.3 2.6,-45.3 L1.4,-45.3 C0.6,-45.3 0,-44.7 0,-43.9 L0.5,16.2 C0.5,17 1.1,17.6 1.9,17.6 C2.1,17.6 2.5,17.5 2.7,17.4 C3.1,17.2 9.6,14 15,7.9 C18.8,3.6 20.3,-1.3 20.3,-5.4 C20.3,-6.3 20.2,-7.1 20.1,-7.9 M13.2,-4 C13.2,-2.5 12.8,2.1 10.3,5.9 C8.6,8.5 5.2,11.2 3.3,12.7 L3.6,-6.8 C3.8,-7.7 5.3,-10.6 9.3,-10.6 C12.9,-10.6 13.2,-7.2 13.2,-5.1 L13.2,-4 "/>
<path class="Accidental" transform="matrix(2.12598,0,0,2.12598,2333.99,1452.76)" d="M20.1,-7.9 C19.5,-11.8 17.1,-15.5 12,-15.5 C7,-15.5 4.1,-12.4 3.6,-11.8 L4,-43.9 C4,-44.7 3.4,-45.3 2.6,-45.3 L1.4,-45.3 C0.6,-45.3 0,-44.7 0,-43.9 L0.5,16.2 C0.5,17 1.1,17.6 1.9,17.6 C2.1,17.6 2.5,17.5 2.7,17.4 C3.1,17.2 9.6,14 15,7.9 C18.8,3.6 20.3,-1.3 20.3,-5.4 C20.3,-6.3 20.2,-7.1 20.1,-7.9 M13.2,-4 C13.2,-2.5 12.8,2.1 10.3,5.9 C8.6,8.5 5.2,11.2 3.3,12.7 L3.6,-6.8 C3.8,-7.7 5.3,-10.6 9.3,-10.6 C12.9,-10.6 13.2,-7.2 13.2,-5.1 L13.2,-4 "/>
<path class="Accidental" transform="matrix(2.12598,0,0,2.12598,3874.63,1479.33)" d="M16.6,-18.3 C16.4,-18.5 16.1,-18.6 15.8,-18.6 C15.7,-18.6 15.5,-18.5 15.4,-18.5 L2.8,-15 L2.8,-32.5 L0,-32.5 L0,17 C0,17.8 0.6,18.3 1.4,18.3 L1.8,18.3 L14.4,14.8 L14.4,32.3 L17.1,32.3 L17.1,-17.2 C17.1,-17.6 16.9,-18.1 16.6,-18.3 M14.4,6.5 L2.8,9.7 L2.8,-6.7 L14.4,-10 L14.4,6.5 "/>
<path class="Accidental" transform="matrix(2.12598,0,0,2.12598,1439.39,2223.42)" d="M23.3,-10.6 C23.9,-10.7 24.4,-11.4 24.4,-12 L24.4,-17.9 C24.4,-18.7 23.8,-19.3 23,-19.3 L22.8,-19.3 L19.5,-18.6 L19.5,-33.5 L16.7,-33.5 L16.7,-18 L7.8,-16.2 L7.8,-30.3 L5,-30.3 L5,-15.6 L1.1,-14.8 C0.5,-14.7 0,-14 0,-13.4 L0,-13.2 L0,-7.4 L0,-7.6 C0,-6.8 0.6,-6.2 1.4,-6.2 L1.7,-6.2 L5,-6.9 L5,9.6 L1.1,10.4 C0.5,10.5 0,11.2 0,11.8 L0,17.6 C0,18.4 0.6,19 1.4,19 L1.7,19 L5,18.3 L5,33.2 L7.8,33.2 L7.8,17.7 L16.7,15.9 L16.7,30 L19.5,30 L19.5,15.3 L23.3,14.6 C23.9,14.5 24.4,13.8 24.4,13.2 L24.4,7.3 C24.4,6.5 23.8,5.9 23,5.9 L22.8,5.9 L19.5,6.6 L19.5,-9.9 L23.3,-10.6 M7.8,9.1 L7.8,-7.5 L16.7,-9.3 L16.7,7.2 L7.8,9.1 "/>
<path class="Accidental" transform="matrix(2.12598,0,0,2.12598,1880.21,2170.27)" d="M20.1,-7.9 C19.5,-11.8 17.1,-15.5 12,-15.5 C7,-15.5 4.1,-12.4 3.6,-11.8 L4,-43.9 C4,-44.7 3.4,-45.3 2.6,-45.3 L1.4,-45.3 C0.6,-45.3 0,-44.7 0,-43.9 L0.5,16.2 C0.5,17 1.1,17.6 1.9,17.6 C2.1,17.6 2.5,17.5 2.7,17.4 C3.1,17.2 9.6,14 15,7.9 C18.8,3.6 20.3,-1.3 20.3,-5.4 C20.3,-6.3 20.2,-7.1 20.1,-7.9 M13.2,-4 C13.2,-2.5 12.8,2.1 10.3,5.9 C8.6,8.5 5.2,11.2 3.3,12.7 L3.6,-6.8 C3.8,-7.7 5.3,-10.6 9.3,-10.6 C12.9,-10.6 13.2,-7.2 13.2,-5.1 L13.2,-4 "/>
<path class="Accidental" transform="matrix(2.12598,0,0,2.12598,2684.8,2170.27)" d="M20.1,-7.9 C19.5,-11.8 17.1,-15.5 12,-15.5 C7,-15.5 4.1,-12.4 3.6,-11.8 L4,-43.9 C4,-44.7 3.4,-45.3 2.6,-45.3 L1.4,-45.3 C0.6,-45.3 0,-44.7 0,-43.9 L0.5,16.2 C0.5,17 1.1,17.6 1.9,17.6 C2.1,17.6 2.5,17.5 2.7,17.4 C3.1,17.2 9.6,14 15,7.9 C18.8,3.6 20.3,-1.3 20.3,-5.4 C20.3,-6.3 20.2,-7.1 20.1,-7.9 M13.2,-4 C13.2,-2.5 12.8,2.1 10.3,5.9 C8.6,8.5 5.2,11.2 3.3,12.7 L3.6,-6.8 C3.8,-7.7 5.3,-10.6 9.3,-10.6 C12.9,-10.6 13.2,-7.2 13.2,-5.1 L13.2,-4 "/>
<polyline class="LedgerLine" stroke="#000000" stroke-width="8.50" stroke-linejoin="bevel" points="720.387,761.811 826.67,761.811"/>
<polyline class="LedgerLine" stroke="#000000" stroke-width="8.50" stroke-linejoin="bevel" points="720.387,708.661 826.67,708.661"/>
<polyline class="LedgerLine" stroke="#000000" stroke-width="8.50" stroke-linejoin="bevel" points="2545.61,1479.33 2651.89,1479.33"/>
<polyline class="LedgerLine" stroke="#000000" stroke-width="8.50" stroke-linejoin="bevel" points="2881.78,1479.33 2988.07,1479.33"/>
<polyline class="LedgerLine" stroke="#000000" stroke-width="8.50" stroke-linejoin="bevel" points="3292.69,1479.33 3398.97,1479.33"/>
<polyline class="LedgerLine" stroke="#000000" stroke-width="8.50" stroke-linejoin="bevel" points="3486.67,1532.48 3592.95,1532.48"/>
<polyline class="LedgerLine" stroke="#000000" stroke-width="8.50" stroke-linejoin="bevel" points="3486.67,1479.33 3592.95,1479.33"/>
<polyline class="LedgerLine" stroke="#000000" stroke-width="8.50" stroke-linejoin="bevel" points="3680.65,1479.33 3786.93,1479.33"/>
<polyline class="LedgerLine" stroke="#000000" stroke-width="8.50" stroke-linejoin="bevel" points="3922.66,1479.33 4028.94,1479.33"/>
<polyline class="Stem" stroke="#000000" stroke-width="5.85" stroke-linejoin="bevel" points="805.144,781.583 805.144,549.212"/>
<polyline class="Stem" stroke="#000000" stroke-width="5.85" stroke-linejoin="bevel" points="1058.93,595.559 1058.93,442.913"/>
<polyline class="Stem" stroke="#000000" stroke-width="5.85" stroke-linejoin="bevel" points="1283.99,675.283 1283.99,496.063"/>
<polyline class="Stem" stroke="#000000" stroke-width="5.85" stroke-linejoin="bevel" points="1507.3,622.134 1507.3,456.201"/>
<polyline class="Stem" stroke="#000000" stroke-width="5.85" stroke-linejoin="bevel" points="1691.87,622.134 1691.87,456.201"/>
<polyline class="Stem" stroke="#000000" stroke-width="5.85" stroke-linejoin="bevel" points="1876.44,648.709 1876.44,496.063"/>
<polyline class="Stem" stroke="#000000" stroke-width="5.85" stroke-linejoin="bevel" points="2061.01,675.283 2061.01,509.35"/>
<polyline class="Stem" stroke="#000000" stroke-width="5.85" stroke-linejoin="bevel" points="1518.46,1445.95 1518.46,1266.73"/>
<polyline class="Stem" stroke="#000000" stroke-width="5.85" stroke-linejoin="bevel" points="1790.16,1445.95 1790.16,1266.73"/>
<polyline class="Stem" stroke="#000000" stroke-width="5.85" stroke-linejoin="bevel" points="2061.87,1445.95 2061.87,1280.02"/>
<polyline class="Stem" stroke="#000000" stroke-width="5.85" stroke-linejoin="bevel" points="2231.68,1445.95 2231.68,1280.02"/>
<polyline class="Stem" stroke="#000000" stroke-width="5.85" stroke-linejoin="bevel" points="2454.99,1445.95 2454.99,1306.59"/>
<polyline class="Stem" stroke="#000000" stroke-width="5.85" stroke-linejoin="bevel" points="2630.37,1472.53 2630.37,1319.88"/>
<polyline class="Stem" stroke="#000000" stroke-width="5.85" stroke-linejoin="bevel" points="2966.54,1472.53 2966.54,1293.31"/>
<polyline class="Stem" stroke="#000000" stroke-width="5.85" stroke-linejoin="bevel" points="3377.45,1472.53 3377.45,1306.59"/>
<polyline class="Stem" stroke="#000000" stroke-width="5.85" stroke-linejoin="bevel" points="3571.43,1552.25 3571.43,1333.17"/>
<polyline class="Stem" stroke="#000000" stroke-width="5.85" stroke-linejoin="bevel" points="3765.41,1472.53 3765.41,1319.88"/>
<polyline class="Stem" stroke="#000000" stroke-width="5.85" stroke-linejoin="bevel" points="4007.42,1472.53 4007.42,1319.88"/>
<polyline class="Stem" stroke="#000000" stroke-width="5.85" stroke-linejoin="bevel" points="668.932,2216.62 668.932,2037.4"/>
<polyline class="Stem" stroke="#000000" stroke-width="5.85" stroke-linejoin="bevel" points="1003,2216.62 1003,2037.4"/>
<polyline class="Stem" stroke="#000000" stroke-width="5.85" stroke-linejoin="bevel" points="1337.07,2216.62 1337.07,2050.69"/>
<polyline class="Stem" stroke="#000000" stroke-width="5.85" stroke-linejoin="bevel" points="1569.11,2216.62 1569.11,2050.69"/>
<polyline class="Stem" stroke="#000000" stroke-width="5.85" stroke-linejoin="bevel" points="1777.9,2190.05 1777.9,2037.4"/>
<polyline class="Stem" stroke="#000000" stroke-width="5.85" stroke-linejoin="bevel" points="2001.21,2163.47 2001.21,2024.11"/>
<polyline class="Stem" stroke="#000000" stroke-width="5.85" stroke-linejoin="bevel" points="2357.76,2163.47 2357.76,1984.25"/>
<polyline class="Stem" stroke="#000000" stroke-width="5.85" stroke-linejoin="bevel" points="2805.79,2163.47 2805.79,1997.54"/>
<polyline class="Stem" stroke="#000000" stroke-width="5.85" stroke-linejoin="bevel" points="3009.45,2163.47 3009.45,1997.54"/>
<polyline class="Stem" stroke="#000000" stroke-width="5.85" stroke-linejoin="bevel" points="3213.1,2190.05 3213.1,2037.4"/>
<polyline class="Stem" stroke="#000000" stroke-width="5.85" stroke-linejoin="bevel" points="3416.75,2216.62 3416.75,2050.69"/>
<path class="Note" transform="matrix(2.12598,0,0,2.12598,738.99,788.386)" d="M31.5,-8.1 C29.7,-11.4 25.9,-13.2 21.3,-13.2 C17.9,-13.2 14.2,-12.2 10.6,-10.3 C4,-6.8 0,-0.9 0,4.2 C0,5.6 0.3,7 1,8.3 C2.8,11.6 6.6,13.3 11.2,13.3 C14.6,13.3 18.3,12.4 21.9,10.5 C28.5,7 32.5,1.1 32.5,-4 C32.5,-5.4 32.2,-6.8 31.5,-8.1"/>
<path class="Note" transform="matrix(2.12598,0,0,2.12598,992.774,602.362)" d="M31.5,-8.1 C29.7,-11.4 25.9,-13.2 21.3,-13.2 C17.9,-13.2 14.2,-12.2 10.6,-10.3 C4,-6.8 0,-0.9 0,4.2 C0,5.6 0.3,7 1,8.3 C2.8,11.6 6.6,13.3 11.2,13.3 C14.6,13.3 18.3,12.4 21.9,10.5 C28.5,7 32.5,1.1 32.5,-4 C32.5,-5.4 32.2,-6.8 31.5,-8.1"/>
<path class="Note" transform="matrix(2.12598,0,0,2.12598,1217.83,682.086)" d="M31.5,-8.1 C29.7,-11.4 25.9,-13.2 21.3,-13.2 C17.9,-13.2 14.2,-12.2 10.6,-10.3 C4,-6.8 0,-0.9 0,4.2 C0,5.6 0.3,7 1,8.3 C2.8,11.6 6.6,13.3 11.2,13.3 C14.6,13.3 18.3,12.4 21.9,10.5 C28.5,7 32.5,1.1 32.5,-4 C32.5,-5.4 32.2,-6.8 31.5,-8.1"/>
<path class="Note" transform="matrix(2.12598,0,0,2.12598,1441.14,628.937)" d="M31.5,-8.1 C29.7,-11.4 25.9,-13.2 21.3,-13.2 C17.9,-13.2 14.2,-12.2 10.6,-10.3 C4,-6.8 0,-0.9 0,4.2 C0,5.6 0.3,7 1,8.3 C2.8,11.6 6.6,13.3 11.2,13.3 C14.6,13.3 18.3,12.4 21.9,10.5 C28.5,7 32.5,1.1 32.5,-4 C32.5,-5.4 32.2,-6.8 31.5,-8.1"/>
<path class="Note" transform="matrix(2.12598,0,0,2.12598,1625.71,628.937)" d="M31.5,-8.1 C29.7,-11.4 25.9,-13.2 21.3,-13.2 C17.9,-13.2 14.2,-12.2 10.6,-10.3 C4,-6.8 0,-0.9 0,4.2 C0,5.6 0.3,7 1,8.3 C2.8,11.6 6.6,13.3 11.2,13.3 C14.6,13.3 18.3,12.4 21.9,10.5 C28.5,7 32.5,1.1 32.5,-4 C32.5,-5.4 32.2,-6.8 31.5,-8.1"/>
<path class="Note" transform="matrix(2.12598,0,0,2.12598,1810.29,655.512)" d="M31.5,-8.1 C29.7,-11.4 25.9,-13.2 21.3,-13.2 C17.9,-13.2 14.2,-12.2 10.6,-10.3 C4,-6.8 0,-0.9 0,4.2 C0,5.6 0.3,7 1,8.3 C2.8,11.6 6.6,13.3 11.2,13.3 C14.6,13.3 18.3,12.4 21.9,10.5 C28.5,7 32.5,1.1 32.5,-4 C32.5,-5.4 32.2,-6.8 31.5,-8.1"/>
<path class="Note" transform="matrix(2.12598,0,0,2.12598,1994.86,682.086)" d="M31.5,-8.1 C29.7,-11.4 25.9,-13.2 21.3,-13.2 C17.9,-13.2 14.2,-12.2 10.6,-10.3 C4,-6.8 0,-0.9 0,4.2 C0,5.6 0.3,7 1,8.3 C2.8,11.6 6.6,13.3 11.2,13.3 C14.6,13.3 18.3,12.4 21.9,10.5 C28.5,7 32.5,1.1 32.5,-4 C32.5,-5.4 32.2,-6.8 31.5,-8.1"/>
<path class="Note" transform="matrix(2.12598,0,0,2.12598,1452.3,1452.76)" d="M31.5,-8.1 C29.7,-11.4 25.9,-13.2 21.3,-13.2 C17.9,-13.2 14.2,-12.2 10.6,-10.3 C4,-6.8 0,-0.9 0,4.2 C0,5.6 0.3,7 1,8.3 C2.8,11.6 6.6,13.3 11.2,13.3 C14.6,13.3 18.3,12.4 21.9,10.5 C28.5,7 32.5,1.1 32.5,-4 C32.5,-5.4 32.2,-6.8 31.5,-8.1"/>
<path class="Note" transform="matrix(2.12598,0,0,2.12598,1724.01,1452.76)" d="M31.5,-8.1 C29.7,-11.4 25.9,-13.2 21.3,-13.2 C17.9,-13.2 14.2,-12.2 10.6,-10.3 C4,-6.8 0,-0.9 0,4.2 C0,5.6 0.3,7 1,8.3 C2.8,11.6 6.6,13.3 11.2,13.3 C14.6,13.3 18.3,12.4 21.9,10.5 C28.5,7 32.5,1.1 32.5,-4 C32.5,-5.4 32.2,-6.8 31.5,-8.1"/>
<path class="Note" transform="matrix(2.12598,0,0,2.12598,1995.71,1452.76)" d="M31.5,-8.1 C29.7,-11.4 25.9,-13.2 21.3,-13.2 C17.9,-13.2 14.2,-12.2 10.6,-10.3 C4,-6.8 0,-0.9 0,4.2 C0,5.6 0.3,7 1,8.3 C2.8,11.6 6.6,13.3 11.2,13.3 C14.6,13.3 18.3,12.4 21.9,10.5 C28.5,7 32.5,1.1 32.5,-4 C32.5,-5.4 32.2,-6.8 31.5,-8.1"/>
<path class="Note" transform="matrix(2.12598,0,0,2.12598,2165.53,1452.76)" d="M31.5,-8.1 C29.7,-11.4 25.9,-13.2 21.3,-13.2 C17.9,-13.2 14.2,-12.2 10.6,-10.3 C4,-6.8 0,-0.9 0,4.2 C0,5.6 0.3,7 1,8.3 C2.8,11.6 6.6,13.3 11.2,13.3 C14.6,13.3 18.3,12.4 21.9,10.5 C28.5,7 32.5,1.1 32.5,-4 C32.5,-5.4 32.2,-6.8 31.5,-8.1"/>
<path class="Note" transform="matrix(2.12598,0,0,2.12598,2388.84,1452.76)" d="M31.5,-8.1 C29.7,-11.4 25.9,-13.2 21.3,-13.2 C17.9,-13.2 14.2,-12.2 10.6,-10.3 C4,-6.8 0,-0.9 0,4.2 C0,5.6 0.3,7 1,8.3 C2.8,11.6 6.6,13.3 11.2,13.3 C14.6,13.3 18.3,12.4 21.9,10.5 C28.5,7 32.5,1.1 32.5,-4 C32.5,-5.4 32.2,-6.8 31.5,-8.1"/>
<path class="Note" transform="matrix(2.12598,0,0,2.12598,2564.21,1479.33)" d="M31.5,-8.1 C29.7,-11.4 25.9,-13.2 21.3,-13.2 C17.9,-13.2 14.2,-12.2 10.6,-10.3 C4,-6.8 0,-0.9 0,4.2 C0,5.6 0.3,7 1,8.3 C2.8,11.6 6.6,13.3 11.2,13.3 C14.6,13.3 18.3,12.4 21.9,10.5 C28.5,7 32.5,1.1 32.5,-4 C32.5,-5.4 32.2,-6.8 31.5,-8.1"/>
<path class="Note" transform="matrix(2.12598,0,0,2.12598,2900.39,1479.33)" d="M31.5,-8.1 C29.7,-11.4 25.9,-13.2 21.3,-13.2 C17.9,-13.2 14.2,-12.2 10.6,-10.3 C4,-6.8 0,-0.9 0,4.2 C0,5.6 0.3,7 1,8.3 C2.8,11.6 6.6,13.3 11.2,13.3 C14.6,13.3 18.3,12.4 21.9,10.5 C28.5,7 32.5,1.1 32.5,-4 C32.5,-5.4 32.2,-6.8 31.5,-8.1 M27.2,-1.3 C25.5,0.4 22.1,2.5 18.5,4.5 C14.9,6.5 11.3,8 8.9,8.5 C8.4,8.6 7.9,8.7 7.4,8.7 C5.8,8.7 4.6,8.1 3.9,6.8 C3.6,6.3 3.4,5.7 3.4,5.1 C3.4,4 4.1,2.7 5.2,1.6 C6.9,-0.1 10.2,-2.2 13.8,-4.2 C17.4,-6.2 21,-7.7 23.4,-8.2 C23.9,-8.3 24.4,-8.4 24.9,-8.4 C26.5,-8.4 27.8,-7.8 28.5,-6.5 C28.8,-6 28.9,-5.4 28.9,-4.8 C28.9,-3.7 28.3,-2.5 27.2,-1.3"/>
<path class="Note" transform="matrix(2.12598,0,0,2.12598,3311.29,1479.33)" d="M31.5,-8.1 C29.7,-11.4 25.9,-13.2 21.3,-13.2 C17.9,-13.2 14.2,-12.2 10.6,-10.3 C4,-6.8 0,-0.9 0,4.2 C0,5.6 0.3,7 1,8.3 C2.8,11.6 6.6,13.3 11.2,13.3 C14.6,13.3 18.3,12.4 21.9,10.5 C28.5,7 32.5,1.1 32.5,-4 C32.5,-5.4 32.2,-6.8 31.5,-8.1"/>
<path class="Note" transform="matrix(2.12598,0,0,2.12598,3505.27,1559.05)" d="M31.5,-8.1 C29.7,-11.4 25.9,-13.2 21.3,-13.2 C17.9,-13.2 14.2,-12.2 10.6,-10.3 C4,-6.8 0,-0.9 0,4.2 C0,5.6 0.3,7 1,8.3 C2.8,11.6 6.6,13.3 11.2,13.3 C14.6,13.3 18.3,12.4 21.9,10.5 C28.5,7 32.5,1.1 32.5,-4 C32.5,-5.4 32.2,-6.8 31.5,-8.1"/>
<path class="Note" transform="matrix(2.12598,0,0,2.12598,3699.25,1479.33)" d="M31.5,-8.1 C29.7,-11.4 25.9,-13.2 21.3,-13.2 C17.9,-13.2 14.2,-12.2 10.6,-10.3 C4,-6.8 0,-0.9 0,4.2 C0,5.6 0.3,7 1,8.3 C2.8,11.6 6.6,13.3 11.2,13.3 C14.6,13.3 18.3,12.4 21.9,10.5 C28.5,7 32.5,1.1 32.5,-4 C32.5,-5.4 32.2,-6.8 31.5,-8.1"/>
<path class="Note" transform="matrix(2.12598,0,0,2.12598,3941.26,1479.33)" d="M31.5,-8.1 C29.7,-11.4 25.9,-13.2 21.3,-13.2 C17.9,-13.2 14.2,-12.2 10.6,-10.3 C4,-6.8 0,-0.9 0,4.2 C0,5.6 0.3,7 1,8.3 C2.8,11.6 6.6,13.3 11.2,13.3 C14.6,13.3 18.3,12.4 21.9,10.5 C28.5,7 32.5,1.1 32.5,-4 C32.5,-5.4 32.2,-6.8 31.5,-8.1"/>
<path class="Note" transform="matrix(2.12598,0,0,2.12598,602.777,2223.42)" d="M31.5,-8.1 C29.7,-11.4 25.9,-13.2 21.3,-13.2 C17.9,-13.2 14.2,-12.2 10.6,-10.3 C4,-6.8 0,-0.9 0,4.2 C0,5.6 0.3,7 1,8.3 C2.8,11.6 6.6,13.3 11.2,13.3 C14.6,13.3 18.3,12.4 21.9,10.5 C28.5,7 32.5,1.1 32.5,-4 C32.5,-5.4 32.2,-6.8 31.5,-8.1"/>
<path class="Note" transform="matrix(2.12598,0,0,2.12598,936.849,2223.42)" d="M31.5,-8.1 C29.7,-11.4 25.9,-13.2 21.3,-13.2 C17.9,-13.2 14.2,-12.2 10.6,-10.3 C4,-6.8 0,-0.9 0,4.2 C0,5.6 0.3,7 1,8.3 C2.8,11.6 6.6,13.3 11.2,13.3 C14.6,13.3 18.3,12.4 21.9,10.5 C28.5,7 32.5,1.1 32.5,-4 C32.5,-5.4 32.2,-6.8 31.5,-8.1"/>
<path class="Note" transform="matrix(2.12598,0,0,2.12598,1270.92,2223.42)" d="M31.5,-8.1 C29.7,-11.4 25.9,-13.2 21.3,-13.2 C17.9,-13.2 14.2,-12.2 10.6,-10.3 C4,-6.8 0,-0.9 0,4.2 C0,5.6 0.3,7 1,8.3 C2.8,11.6 6.6,13.3 11.2,13.3 C14.6,13.3 18.3,12.4 21.9,10.5 C28.5,7 32.5,1.1 32.5,-4 C32.5,-5.4 32.2,-6.8 31.5,-8.1"/>
<path class="Note" transform="matrix(2.12598,0,0,2.12598,1502.95,2223.42)" d="M31.5,-8.1 C29.7,-11.4 25.9,-13.2 21.3,-13.2 C17.9,-13.2 14.2,-12.2 10.6,-10.3 C4,-6.8 0,-0.9 0,4.2 C0,5.6 0.3,7 1,8.3 C2.8,11.6 6.6,13.3 11.2,13.3 C14.6,13.3 18.3,12.4 21.9,10.5 C28.5,7 32.5,1.1 32.5,-4 C32.5,-5.4 32.2,-6.8 31.5,-8.1"/>
<path class="Note" transform="matrix(2.12598,0,0,2.12598,1711.75,2196.85)" d="M31.5,-8.1 C29.7,-11.4 25.9,-13.2 21.3,-13.2 C17.9,-13.2 14.2,-12.2 10.6,-10.3 C4,-6.8 0,-0.9 0,4.2 C0,5.6 0.3,7 1,8.3 C2.8,11.6 6.6,13.3 11.2,13.3 C14.6,13.3 18.3,12.4 21.9,10.5 C28.5,7 32.5,1.1 32.5,-4 C32.5,-5.4 32.2,-6.8 31.5,-8.1"/>
<path class="Note" transform="matrix(2.12598,0,0,2.12598,1935.06,2170.27)" d="M31.5,-8.1 C29.7,-11.4 25.9,-13.2 21.3,-13.2 C17.9,-13.2 14.2,-12.2 10.6,-10.3 C4,-6.8 0,-0.9 0,4.2 C0,5.6 0.3,7 1,8.3 C2.8,11.6 6.6,13.3 11.2,13.3 C14.6,13.3 18.3,12.4 21.9,10.5 C28.5,7 32.5,1.1 32.5,-4 C32.5,-5.4 32.2,-6.8 31.5,-8.1"/>
<path class="Note" transform="matrix(2.12598,0,0,2.12598,2291.61,2170.27)" d="M31.5,-8.1 C29.7,-11.4 25.9,-13.2 21.3,-13.2 C17.9,-13.2 14.2,-12.2 10.6,-10.3 C4,-6.8 0,-0.9 0,4.2 C0,5.6 0.3,7 1,8.3 C2.8,11.6 6.6,13.3 11.2,13.3 C14.6,13.3 18.3,12.4 21.9,10.5 C28.5,7 32.5,1.1 32.5,-4 C32.5,-5.4 32.2,-6.8 31.5,-8.1 M27.2,-1.3 C25.5,0.4 22.1,2.5 18.5,4.5 C14.9,6.5 11.3,8 8.9,8.5 C8.4,8.6 7.9,8.7 7.4,8.7 C5.8,8.7 4.6,8.1 3.9,6.8 C3.6,6.3 3.4,5.7 3.4,5.1 C3.4,4 4.1,2.7 5.2,1.6 C6.9,-0.1 10.2,-2.2 13.8,-4.2 C17.4,-6.2 21,-7.7 23.4,-8.2 C23.9,-8.3 24.4,-8.4 24.9,-8.4 C26.5,-8.4 27.8,-7.8 28.5,-6.5 C28.8,-6 28.9,-5.4 28.9,-4.8 C28.9,-3.7 28.3,-2.5 27.2,-1.3"/>
<path class="Note" transform="matrix(2.12598,0,0,2.12598,2739.64,2170.27)" d="M31.5,-8.1 C29.7,-11.4 25.9,-13.2 21.3,-13.2 C17.9,-13.2 14.2,-12.2 10.6,-10.3 C4,-6.8 0,-0.9 0,4.2 C0,5.6 0.3,7 1,8.3 C2.8,11.6 6.6,13.3 11.2,13.3 C14.6,13.3 18.3,12.4 21.9,10.5 C28.5,7 32.5,1.1 32.5,-4 C32.5,-5.4 32.2,-6.8 31.5,-8.1"/>
<path class="Note" transform="matrix(2.12598,0,0,2.12598,2943.29,2170.27)" d="M31.5,-8.1 C29.7,-11.4 25.9,-13.2 21.3,-13.2 C17.9,-13.2 14.2,-12.2 10.6,-10.3 C4,-6.8 0,-0.9 0,4.2 C0,5.6 0.3,7 1,8.3 C2.8,11.6 6.6,13.3 11.2,13.3 C14.6,13.3 18.3,12.4 21.9,10.5 C28.5,7 32.5,1.1 32.5,-4 C32.5,-5.4 32.2,-6.8 31.5,-8.1"/>
<path class="Note" transform="matrix(2.12598,0,0,2.12598,3146.94,2196.85)" d="M31.5,-8.1 C29.7,-11.4 25.9,-13.2 21.3,-13.2 C17.9,-13.2 14.2,-12.2 10.6,-10.3 C4,-6.8 0,-0.9 0,4.2 C0,5.6 0.3,7 1,8.3 C2.8,11.6 6.6,13.3 11.2,13.3 C14.6,13.3 18.3,12.4 21.9,10.5 C28.5,7 32.5,1.1 32.5,-4 C32.5,-5.4 32.2,-6.8 31.5,-8.1"/>
<path class="Note" transform="matrix(2.12598,0,0,2.12598,3350.59,2223.42)" d="M31.5,-8.1 C29.7,-11.4 25.9,-13.2 21.3,-13.2 C17.9,-13.2 14.2,-12.2 10.6,-10.3 C4,-6.8 0,-0.9 0,4.2 C0,5.6 0.3,7 1,8.3 C2.8,11.6 6.6,13.3 11.2,13.3 C14.6,13.3 18.3,12.4 21.9,10.5 C28.5,7 32.5,1.1 32.5,-4 C32.5,-5.4 32.2,-6.8 31.5,-8.1"/>
<path class="Clef" transform="matrix(2.12598,0,0,2.12598,104.882,496.063)" d="M25.4,-25.1 C17.8,-25.1 11.7,-20.7 11.6,-20.7 C5.8,-16.4 3.5,-11.3 2.6,-7.8 C2.1,-6 1.9,-4.2 1.9,-2.5 C1.9,-0.1 2.3,2.1 3.2,4 C4.4,6.7 6.7,8.6 9.7,9.6 C10.9,10 12.2,10.2 13.5,10.2 C15.7,10.2 18,9.6 19.9,8.5 C23,6.8 24.9,3.2 24.9,-0.7 C24.9,-4.2 23.1,-7.4 20.1,-9.3 C18,-10.7 16,-11.1 14.3,-11.1 C13.1,-11.1 12,-10.9 11.1,-10.6 C10.1,-10.2 8.4,-9.2 7.6,-8.5 C7.9,-10.4 9.1,-13.3 10.2,-14.9 C11.3,-16.5 13.5,-18.5 15.2,-19.4 C17.7,-20.8 20.9,-21.4 24.4,-21.4 C34.6,-21.4 39.6,-13.2 39.6,3.6 C39.6,12.9 36.1,21.8 33.1,27.7 C29.8,34.3 25.4,40.6 21.5,44.1 C11.1,53.6 1.3,58.1 1.2,58.1 C1.2,58.1 -0.3,59 0.1,60.5 C0.4,61.5 1.3,61.7 1.9,61.7 C2,61.7 2.3,61.6 2.4,61.6 C2.5,61.6 13.9,56.9 23,49.8 C28.1,46.1 32.7,42.1 36.7,37.8 C40.3,33.9 43.4,29.7 45.9,25.5 C50.3,18 52.8,10.2 52.8,3.5 C52.8,-4.8 50.6,-11.7 46.5,-16.6 C41.8,-22.2 34.7,-25.1 25.4,-25.1 M56.8,-12.4 C56.8,-9.6 59,-7.4 61.6,-7.4 C64.2,-7.4 66.4,-9.6 66.4,-12.4 C66.4,-15.2 64.2,-17.5 61.6,-17.5 C59,-17.5 56.8,-15.2 56.8,-12.4 M56.8,12.3 C56.8,15.1 59,17.4 61.6,17.4 C64.2,17.4 66.4,15.1 66.4,12.3 C66.4,9.5 64.2,7.2 61.6,7.2 C59,7.2 56.8,9.5 56.8,12.3"/>
<path class="Clef" transform="matrix(2.12598,0,0,2.12598,104.882,1266.73)" d="M25.4,-25.1 C17.8,-25.1 11.7,-20.7 11.6,-20.7 C5.8,-16.4 3.5,-11.3 2.6,-7.8 C2.1,-6 1.9,-4.2 1.9,-2.5 C1.9,-0.1 2.3,2.1 3.2,4 C4.4,6.7 6.7,8.6 9.7,9.6 C10.9,10 12.2,10.2 13.5,10.2 C15.7,10.2 18,9.6 19.9,8.5 C23,6.8 24.9,3.2 24.9,-0.7 C24.9,-4.2 23.1,-7.4 20.1,-9.3 C18,-10.7 16,-11.1 14.3,-11.1 C13.1,-11.1 12,-10.9 11.1,-10.6 C10.1,-10.2 8.4,-9.2 7.6,-8.5 C7.9,-10.4 9.1,-13.3 10.2,-14.9 C11.3,-16.5 13.5,-18.5 15.2,-19.4 C17.7,-20.8 20.9,-21.4 24.4,-21.4 C34.6,-21.4 39.6,-13.2 39.6,3.6 C39.6,12.9 36.1,21.8 33.1,27.7 C29.8,34.3 25.4,40.6 21.5,44.1 C11.1,53.6 1.3,58.1 1.2,58.1 C1.2,58.1 -0.3,59 0.1,60.5 C0.4,61.5 1.3,61.7 1.9,61.7 C2,61.7 2.3,61.6 2.4,61.6 C2.5,61.6 13.9,56.9 23,49.8 C28.1,46.1 32.7,42.1 36.7,37.8 C40.3,33.9 43.4,29.7 45.9,25.5 C50.3,18 52.8,10.2 52.8,3.5 C52.8,-4.8 50.6,-11.7 46.5,-16.6 C41.8,-22.2 34.7,-25.1 25.4,-25.1 M56.8,-12.4 C56.8,-9.6 59,-7.4 61.6,-7.4 C64.2,-7.4 66.4,-9.6 66.4,-12.4 C66.4,-15.2 64.2,-17.5 61.6,-17.5 C59,-17.5 56.8,-15.2 56.8,-12.4 M56.8,12.3 C56.8,15.1 59,17.4 61.6,17.4 C64.2,17.4 66.4,15.1 66.4,12.3 C66.4,9.5 64.2,7.2 61.6,7.2 C59,7.2 56.8,9.5 56.8,12.3"/>
<path class="Clef" transform="matrix(2.12598,0,0,2.12598,104.882,2037.4)" d="M25.4,-25.1 C17.8,-25.1 11.7,-20.7 11.6,-20.7 C5.8,-16.4 3.5,-11.3 2.6,-7.8 C2.1,-6 1.9,-4.2 1.9,-2.5 C1.9,-0.1 2.3,2.1 3.2,4 C4.4,6.7 6.7,8.6 9.7,9.6 C10.9,10 12.2,10.2 13.5,10.2 C15.7,10.2 18,9.6 19.9,8.5 C23,6.8 24.9,3.2 24.9,-0.7 C24.9,-4.2 23.1,-7.4 20.1,-9.3 C18,-10.7 16,-11.1 14.3,-11.1 C13.1,-11.1 12,-10.9 11.1,-10.6 C10.1,-10.2 8.4,-9.2 7.6,-8.5 C7.9,-10.4 9.1,-13.3 10.2,-14.9 C11.3,-16.5 13.5,-18.5 15.2,-19.4 C17.7,-20.8 20.9,-21.4 24.4,-21.4 C34.6,-21.4 39.6,-13.2 39.6,3.6 C39.6,12.9 36.1,21.8 33.1,27.7 C29.8,34.3 25.4,40.6 21.5,44.1 C11.1,53.6 1.3,58.1 1.2,58.1 C1.2,58.1 -0.3,59 0.1,60.5 C0.4,61.5 1.3,61.7 1.9,61.7 C2,61.7 2.3,61.6 2.4,61.6 C2.5,61.6 13.9,56.9 23,49.8 C28.1,46.1 32.7,42.1 36.7,37.8 C40.3,33.9 43.4,29.7 45.9,25.5 C50.3,18 52.8,10.2 52.8,3.5 C52.8,-4.8 50.6,-11.7 46.5,-16.6 C41.8,-22.2 34.7,-25.1 25.4,-25.1 M56.8,-12.4 C56.8,-9.6 59,-7.4 61.6,-7.4 C64.2,-7.4 66.4,-9.6 66.4,-12.4 C66.4,-15.2 64.2,-17.5 61.6,-17.5 C59,-17.5 56.8,-15.2 56.8,-12.4 M56.8,12.3 C56.8,15.1 59,17.4 61.6,17.4 C64.2,17.4 66.4,15.1 66.4,12.3 C66.4,9.5 64.2,7.2 61.6,7.2 C59,7.2 56.8,9.5 56.8,12.3"/>
<path class="KeySig" transform="matrix(2.12598,0,0,2.12598,352.343,522.638)" d="M20.1,-7.9 C19.5,-11.8 17.1,-15.5 12,-15.5 C7,-15.5 4.1,-12.4 3.6,-11.8 L4,-43.9 C4,-44.7 3.4,-45.3 2.6,-45.3 L1.4,-45.3 C0.6,-45.3 0,-44.7 0,-43.9 L0.5,16.2 C0.5,17 1.1,17.6 1.9,17.6 C2.1,17.6 2.5,17.5 2.7,17.4 C3.1,17.2 9.6,14 15,7.9 C18.8,3.6 20.3,-1.3 20.3,-5.4 C20.3,-6.3 20.2,-7.1 20.1,-7.9 M13.2,-4 C13.2,-2.5 12.8,2.1 10.3,5.9 C8.6,8.5 5.2,11.2 3.3,12.7 L3.6,-6.8 C3.8,-7.7 5.3,-10.6 9.3,-10.6 C12.9,-10.6 13.2,-7.2 13.2,-5.1 L13.2,-4 "/>
<path class="KeySig" transform="matrix(2.12598,0,0,2.12598,299.193,602.362)" d="M20.1,-7.9 C19.5,-11.8 17.1,-15.5 12,-15.5 C7,-15.5 4.1,-12.4 3.6,-11.8 L4,-43.9 C4,-44.7 3.4,-45.3 2.6,-45.3 L1.4,-45.3 C0.6,-45.3 0,-44.7 0,-43.9 L0.5,16.2 C0.5,17 1.1,17.6 1.9,17.6 C2.1,17.6 2.5,17.5 2.7,17.4 C3.1,17.2 9.6,14 15,7.9 C18.8,3.6 20.3,-1.3 20.3,-5.4 C20.3,-6.3 20.2,-7.1 20.1,-7.9 M13.2,-4 C13.2,-2.5 12.8,2.1 10.3,5.9 C8.6,8.5 5.2,11.2 3.3,12.7 L3.6,-6.8 C3.8,-7.7 5.3,-10.6 9.3,-10.6 C12.9,-10.6 13.2,-7.2 13.2,-5.1 L13.2,-4 "/>
<path class="KeySig" transform="matrix(2.12598,0,0,2.12598,352.343,1293.31)" d="M20.1,-7.9 C19.5,-11.8 17.1,-15.5 12,-15.5 C7,-15.5 4.1,-12.4 3.6,-11.8 L4,-43.9 C4,-44.7 3.4,-45.3 2.6,-45.3 L1.4,-45.3 C0.6,-45.3 0,-44.7 0,-43.9 L0.5,16.2 C0.5,17 1.1,17.6 1.9,17.6 C2.1,17.6 2.5,17.5 2.7,17.4 C3.1,17.2 9.6,14 15,7.9 C18.8,3.6 20.3,-1.3 20.3,-5.4 C20.3,-6.3 20.2,-7.1 20.1,-7.9 M13.2,-4 C13.2,-2.5 12.8,2.1 10.3,5.9 C8.6,8.5 5.2,11.2 3.3,12.7 L3.6,-6.8 C3.8,-7.7 5.3,-10.6 9.3,-10.6 C12.9,-10.6 13.2,-7.2 13.2,-5.1 L13.2,-4 "/>
<path class="KeySig" transform="matrix(2.12598,0,0,2.12598,299.193,1373.03)" d="M20.1,-7.9 C19.5,-11.8 17.1,-15.5 12,-15.5 C7,-15.5 4.1,-12.4 3.6,-11.8 L4,-43.9 C4,-44.7 3.4,-45.3 2.6,-45.3 L1.4,-45.3 C0.6,-45.3 0,-44.7 0,-43.9 L0.5,16.2 C0.5,17 1.1,17.6 1.9,17.6 C2.1,17.6 2.5,17.5 2.7,17.4 C3.1,17.2 9.6,14 15,7.9 C18.8,3.6 20.3,-1.3 20.3,-5.4 C20.3,-6.3 20.2,-7.1 20.1,-7.9 M13.2,-4 C13.2,-2.5 12.8,2.1 10.3,5.9 C8.6,8.5 5.2,11.2 3.3,12.7 L3.6,-6.8 C3.8,-7.7 5.3,-10.6 9.3,-10.6 C12.9,-10.6 13.2,-7.2 13.2,-5.1 L13.2,-4 "/>
<path class="KeySig" transform="matrix(2.12598,0,0,2.12598,352.343,2063.98)" d="M20.1,-7.9 C19.5,-11.8 17.1,-15.5 12,-15.5 C7,-15.5 4.1,-12.4 3.6,-11.8 L4,-43.9 C4,-44.7 3.4,-45.3 2.6,-45.3 L1.4,-45.3 C0.6,-45.3 0,-44.7 0,-43.9 L0.5,16.2 C0.5,17 1.1,17.6 1.9,17.6 C2.1,17.6 2.5,17.5 2.7,17.4 C3.1,17.2 9.6,14 15,7.9 C18.8,3.6 20.3,-1.3 20.3,-5.4 C20.3,-6.3 20.2,-7.1 20.1,-7.9 M13.2,-4 C13.2,-2.5 12.8,2.1 10.3,5.9 C8.6,8.5 5.2,11.2 3.3,12.7 L3.6,-6.8 C3.8,-7.7 5.3,-10.6 9.3,-10.6 C12.9,-10.6 13.2,-7.2 13.2,-5.1 L13.2,-4 "/>
<path class="KeySig" transform="matrix(2.12598,0,0,2.12598,299.193,2143.7)" d="M20.1,-7.9 C19.5,-11.8 17.1,-15.5 12,-15.5 C7,-15.5 4.1,-12.4 3.6,-11.8 L4,-43.9 C4,-44.7 3.4,-45.3 2.6,-45.3 L1.4,-45.3 C0.6,-45.3 0,-44.7 0,-43.9 L0.5,16.2 C0.5,17 1.1,17.6 1.9,17.6 C2.1,17.6 2.5,17.5 2.7,17.4 C3.1,17.2 9.6,14 15,7.9 C18.8,3.6 20.3,-1.3 20.3,-5.4 C20.3,-6.3 20.2,-7.1 20.1,-7.9 M13.2,-4 C13.2,-2.5 12.8,2.1 10.3,5.9 C8.6,8.5 5.2,11.2 3.3,12.7 L3.6,-6.8 C3.8,-7.7 5.3,-10.6 9.3,-10.6 C12.9,-10.6 13.2,-7.2 13.2,-5.1 L13.2,-4 "/>
<path class="TimeSig" transform="matrix(2.12598,0,0,2.12598,445.72,496.345)" d="M3.59004,12.65 L20.77,12.65 L20.77,20.07 L12.54,20.07 C11.7601,20.07 11.1301,20.7 11.1301,21.48 L11.1301,23.39 C11.1301,24.17 11.7601,24.8 12.54,24.8 L42.79,24.8 C43.57,24.8 44.2,24.17 44.2,23.39 L44.2,21.48 C44.2,20.7 43.57,20.07 42.79,20.07 L33.85,20.07 L33.85,12.65 L42.79,12.65 C43.57,12.65 44.2,12.02 44.2,11.24 L44.2,9.32998 C44.2,8.55 43.57,7.92002 42.79,7.92002 L33.85,7.92002 L33.85,-8.04004 C33.85,-8.57998 33.55,-9.05996 33.07,-9.3 L31.8601,-9.9 C31.3301,-10.16 30.7,-10.07 30.27,-9.67002 L21.22,-1.35 C20.9301,-1.07998 20.7601,-0.709961 20.7601,-0.309961 L20.7601,7.92002 L9.25,7.92002 C9.25,7.92002 20.37,-4.10996 32.2101,-19.88 C33.0801,-21.03 32.5801,-22.08 32.39,-22.27 L30.22,-24.48 C29.95,-24.74 29.59,-24.89 29.22,-24.89 C28.62,-24.89 15.07,-24.87 14.35,-24.89 C13.6301,-24.91 13.09,-24.29 13.02,-23.67 C13.02,-23.67 12.4801,-16.31 9.88008,-8.17998 C7.28008,-0.0599609 4.34004,4.92002 1.68008,8.55 C1.68008,8.55 1.14004,9.54004 1.5,10.28 C1.85,11.03 2.48008,12.12 2.48008,12.12 C2.48008,12.12 2.74004,12.65 3.59004,12.65"/>
<path class="TimeSig" transform="matrix(2.12598,0,0,2.12598,445.72,602.08)" d="M3.59004,12.65 L20.77,12.65 L20.77,20.07 L12.54,20.07 C11.7601,20.07 11.1301,20.7 11.1301,21.48 L11.1301,23.39 C11.1301,24.17 11.7601,24.8 12.54,24.8 L42.79,24.8 C43.57,24.8 44.2,24.17 44.2,23.39 L44.2,21.48 C44.2,20.7 43.57,20.07 42.79,20.07 L33.85,20.07 L33.85,12.65 L42.79,12.65 C43.57,12.65 44.2,12.02 44.2,11.24 L44.2,9.32998 C44.2,8.55 43.57,7.92002 42.79,7.92002 L33.85,7.92002 L33.85,-8.04004 C33.85,-8.57998 33.55,-9.05996 33.07,-9.3 L31.8601,-9.9 C31.3301,-10.16 30.7,-10.07 30.27,-9.67002 L21.22,-1.35 C20.9301,-1.07998 20.7601,-0.709961 20.7601,-0.309961 L20.7601,7.92002 L9.25,7.92002 C9.25,7.92002 20.37,-4.10996 32.2101,-19.88 C33.0801,-21.03 32.5801,-22.08 32.39,-22.27 L30.22,-24.48 C29.95,-24.74 29.59,-24.89 29.22,-24.89 C28.62,-24.89 15.07,-24.87 14.35,-24.89 C13.6301,-24.91 13.09,-24.29 13.02,-23.67 C13.02,-23.67 12.4801,-16.31 9.88008,-8.17998 C7.28008,-0.0599609 4.34004,4.92002 1.68008,8.55 C1.68008,8.55 1.14004,9.54004 1.5,10.28 C1.85,11.03 2.48008,12.12 2.48008,12.12 C2.48008,12.12 2.74004,12.65 3.59004,12.65"/>
<path class="Rest" transform="matrix(2.12598,0,0,2.12598,3787.87,2037.4)" d="M31.1,-0.5 L1.4,-0.5 C0.6,-0.5 0,0.1 0,0.9 L0,11.7 C0,12.5 0.6,13.1 1.4,13.1 L31.1,13.1 C31.9,13.1 32.5,12.5 32.5,11.7 L32.5,0.9 C32.5,0.1 31.9,-0.5 31.1,-0.5"/>
<path class="RepeatMeasure" fill-rule="evenodd" d="M2385.18,496.063 L2411.75,496.063 L2310.77,602.362 L2284.19,602.362 L2385.18,496.063 M2326.71,522.638 C2326.71,528.508 2321.95,533.268 2316.08,533.268 C2310.21,533.268 2305.45,528.508 2305.45,522.638 C2305.45,516.767 2310.21,512.008 2316.08,512.008 C2321.95,512.008 2326.71,516.767 2326.71,522.638 M2390.49,575.787 C2390.49,581.658 2385.73,586.417 2379.86,586.417 C2373.99,586.417 2369.23,581.658 2369.23,575.787 C2369.23,569.917 2373.99,565.157 2379.86,565.157 C2385.73,565.157 2390.49,569.917 2390.49,575.787"/>
<path class="RepeatMeasure" fill-rule="evenodd" d="M2862.35,496.063 L2888.93,496.063 L2787.94,602.362 L2761.37,602.362 L2862.35,496.063 M2803.89,522.638 C2803.89,528.508 2799.13,533.268 2793.26,533.268 C2787.39,533.268 2782.63,528.508 2782.63,522.638 C2782.63,516.767 2787.39,512.008 2793.26,512.008 C2799.13,512.008 2803.89,516.767 2803.89,522.638 M2867.67,575.787 C2867.67,581.658 2862.91,586.417 2857.04,586.417 C2851.17,586.417 2846.41,581.658 2846.41,575.787 C2846.41,569.917 2851.17,565.157 2857.04,565.157 C2862.91,565.157 2867.67,569.917 2867.67,575.787"/>
<path class="RepeatMeasure" fill-rule="evenodd" d="M3189.87,496.063 L3216.45,496.063 L3115.47,602.362 L3088.89,602.362 L3189.87,496.063 M3131.41,522.638 C3131.41,528.508 3126.65,533.268 3120.78,533.268 C3114.91,533.268 3110.15,528.508 3110.15,522.638 C3110.15,516.767 3114.91,512.008 3120.78,512.008 C3126.65,512.008 3131.41,516.767 3131.41,522.638 M3195.19,575.787 C3195.19,581.658 3190.43,586.417 3184.56,586.417 C3178.69,586.417 3173.93,581.658 3173.93,575.787 C3173.93,569.917 3178.69,565.157 3184.56,565.157 C3190.43,565.157 3195.19,569.917 3195.19,575.787"/>
<path class="RepeatMeasure" fill-rule="evenodd" d="M3667.05,496.063 L3693.62,496.063 L3592.64,602.362 L3566.06,602.362 L3667.05,496.063 M3608.58,522.638 C3608.58,528.508 3603.82,533.268 3597.95,533.268 C3592.08,533.268 3587.32,528.508 3587.32,522.638 C3587.32,516.767 3592.08,512.008 3597.95,512.008 C3603.82,512.008 3608.58,516.767 3608.58,522.638 M3672.36,575.787 C3672.36,581.658 3667.6,586.417 3661.73,586.417 C3655.86,586.417 3651.1,581.658 3651.1,575.787 C3651.1,569.917 3655.86,565.157 3661.73,565.157 C3667.6,565.157 3672.36,569.917 3672.36,575.787"/>
<path class="RepeatMeasure" fill-rule="evenodd" d="M4000.42,496.063 L4026.99,496.063 L3926.01,602.362 L3899.43,602.362 L4000.42,496.063 M3941.95,522.638 C3941.95,528.508 3937.2,533.268 3931.32,533.268 C3925.45,533.268 3920.69,528.508 3920.69,522.638 C3920.69,516.767 3925.45,512.008 3931.32,512.008 C3937.2,512.008 3941.95,516.767 3941.95,522.638 M4005.73,575.787 C4005.73,581.658 4000.97,586.417 3995.1,586.417 C3989.23,586.417 3984.47,581.658 3984.47,575.787 C3984.47,569.917 3989.23,565.157 3995.1,565.157 C4000.97,565.157 4005.73,569.917 4005.73,575.787"/>
<path class="RepeatMeasure" fill-rule="evenodd" d="M653.679,1266.73 L680.254,1266.73 L579.27,1373.03 L552.695,1373.03 L653.679,1266.73 M595.215,1293.31 C595.215,1299.18 590.456,1303.94 584.585,1303.94 C578.714,1303.94 573.955,1299.18 573.955,1293.31 C573.955,1287.44 578.714,1282.68 584.585,1282.68 C590.456,1282.68 595.215,1287.44 595.215,1293.31 M658.994,1346.46 C658.994,1352.33 654.235,1357.09 648.364,1357.09 C642.494,1357.09 637.734,1352.33 637.734,1346.46 C637.734,1340.59 642.494,1335.83 648.364,1335.83 C654.235,1335.83 658.994,1340.59 658.994,1346.46"/>
<path class="RepeatMeasure" fill-rule="evenodd" d="M1070.66,1266.73 L1097.24,1266.73 L996.251,1373.03 L969.676,1373.03 L1070.66,1266.73 M1012.2,1293.31 C1012.2,1299.18 1007.44,1303.94 1001.57,1303.94 C995.695,1303.94 990.936,1299.18 990.936,1293.31 C990.936,1287.44 995.695,1282.68 1001.57,1282.68 C1007.44,1282.68 1012.2,1287.44 1012.2,1293.31 M1075.98,1346.46 C1075.98,1352.33 1071.22,1357.09 1065.35,1357.09 C1059.47,1357.09 1054.72,1352.33 1054.72,1346.46 C1054.72,1340.59 1059.47,1335.83 1065.35,1335.83 C1071.22,1335.83 1075.98,1340.59 1075.98,1346.46"/>
<path class="Beam" fill-rule="evenodd" d="M1056.01,427.88 L1286.91,482.41 L1286.91,509.716 L1056.01,455.185 L1056.01,427.88 "/>
<path class="Beam" fill-rule="evenodd" d="M1286.91,522.272 L1216.75,505.704 L1216.75,533.01 L1286.91,549.578 L1286.91,522.272 "/>
<path class="Beam" fill-rule="evenodd" d="M1504.38,442.913 L1694.79,442.913 L1694.79,469.488 L1504.38,469.488 L1504.38,442.913 "/>
<path class="Beam" fill-rule="evenodd" d="M1873.52,482.32 L2063.93,496.028 L2063.93,522.672 L1873.52,508.964 L1873.52,482.32 "/>
<path class="Beam" fill-rule="evenodd" d="M2058.94,1266.73 L2234.6,1266.73 L2234.6,1293.31 L2058.94,1293.31 L2058.94,1266.73 "/>
<path class="Beam" fill-rule="evenodd" d="M2452.07,1292.83 L2633.29,1306.56 L2633.29,1333.21 L2452.07,1319.48 L2452.07,1292.83 "/>
<path class="Beam" fill-rule="evenodd" d="M3374.52,1292.38 L3574.35,1319.76 L3574.35,1346.58 L3374.52,1319.2 L3374.52,1292.38 "/>
<path class="Beam" fill-rule="evenodd" d="M3762.48,1306.59 L4010.34,1306.59 L4010.34,1333.17 L3762.48,1333.17 L3762.48,1306.59 "/>
<path class="Beam" fill-rule="evenodd" d="M1334.15,2037.4 L1572.03,2037.4 L1572.03,2063.98 L1334.15,2063.98 L1334.15,2037.4 "/>
<path class="Beam" fill-rule="evenodd" d="M1774.98,2024.44 L2004.13,2010.8 L2004.13,2037.42 L1774.98,2051.06 L1774.98,2024.44 "/>
<path class="Beam" fill-rule="evenodd" d="M2802.87,1984.25 L3012.37,1984.25 L3012.37,2010.83 L2802.87,2010.83 L2802.87,1984.25 "/>
<path class="Beam" fill-rule="evenodd" d="M3210.17,2023.7 L3419.67,2037.37 L3419.67,2064 L3210.17,2050.33 L3210.17,2023.7 "/>
<path class="StaffText" d="M775.056,306.285 C754.196,306.285 738.998,328.933 738.998,360.223 C738.998,390.917 753.749,413.416 773.864,413.416 C794.724,413.416 809.326,391.662 809.326,360.67 C809.326,344.876 806.048,331.764 799.79,321.483 C793.979,312.096 784.443,306.285 775.056,306.285 M774.013,312.692 C778.93,312.692 783.698,315.97 787.274,321.93 C791.297,328.933 792.638,337.426 792.638,357.839 C792.638,378.848 791.595,388.682 788.615,395.238 C785.188,402.539 779.824,407.009 774.162,407.009 C769.096,407.009 764.477,403.731 760.901,397.771 C756.729,390.768 755.537,381.53 755.537,357.094 C755.537,339.661 756.58,331.019 759.56,324.463 C762.987,317.013 768.351,312.692 774.013,312.692"/>
<path class="StaffText" d="M1028.84,124.01 C1007.98,124.01 992.782,146.658 992.782,177.948 C992.782,208.642 1007.53,231.141 1027.65,231.141 C1048.51,231.141 1063.11,209.387 1063.11,178.395 C1063.11,162.601 1059.83,149.489 1053.57,139.208 C1047.76,129.821 1038.23,124.01 1028.84,124.01 M1027.8,130.417 C1032.71,130.417 1037.48,133.695 1041.06,139.655 C1045.08,146.658 1046.42,155.151 1046.42,175.564 C1046.42,196.573 1045.38,206.407 1042.4,212.963 C1038.97,220.264 1033.61,224.734 1027.95,224.734 C1022.88,224.734 1018.26,221.456 1014.69,215.496 C1010.51,208.493 1009.32,199.255 1009.32,174.819 C1009.32,157.386 1010.36,148.744 1013.34,142.188 C1016.77,134.738 1022.14,130.417 1027.8,130.417"/>
<path class="StaffText" d="M1253.9,234.738 C1233.04,234.738 1217.84,257.386 1217.84,288.676 C1217.84,319.37 1232.59,341.869 1252.71,341.869 C1273.57,341.869 1288.17,320.115 1288.17,289.123 C1288.17,273.329 1284.89,260.217 1278.63,249.936 C1272.82,240.549 1263.29,234.738 1253.9,234.738 M1252.86,241.145 C1257.77,241.145 1262.54,244.423 1266.12,250.383 C1270.14,257.386 1271.48,265.879 1271.48,286.292 C1271.48,307.301 1270.44,317.135 1267.46,323.691 C1264.03,330.992 1258.67,335.462 1253,335.462 C1247.94,335.462 1243.32,332.184 1239.74,326.224 C1235.57,319.221 1234.38,309.983 1234.38,285.547 C1234.38,268.114 1235.42,259.472 1238.4,252.916 C1241.83,245.466 1247.19,241.145 1252.86,241.145"/>
<path class="StaffText" d="M1474.23,168.301 C1469.17,174.41 1455.46,179.029 1441.75,179.327 L1441.75,185.734 L1454.86,185.734 C1463.5,185.883 1464.4,186.777 1464.1,195.121 L1464.1,254.87 C1464.1,262.469 1464.1,262.767 1463.21,264.108 C1462.01,265.598 1459.18,266.194 1450.84,266.194 L1441.15,266.194 L1441.15,273.197 L1500.16,273.197 L1500.16,266.194 L1491.96,266.194 C1483.62,266.194 1480.79,265.598 1479.6,264.108 C1478.55,262.767 1478.55,262.618 1478.55,254.87 L1478.55,193.333 C1478.55,184.989 1478.85,177.986 1479.6,168.301 L1474.23,168.301 "/>
<path class="StaffText" d="M1658.8,168.301 C1653.74,174.41 1640.03,179.029 1626.32,179.327 L1626.32,185.734 L1639.43,185.734 C1648.07,185.883 1648.97,186.777 1648.67,195.121 L1648.67,254.87 C1648.67,262.469 1648.67,262.767 1647.78,264.108 C1646.58,265.598 1643.75,266.194 1635.41,266.194 L1625.72,266.194 L1625.72,273.197 L1684.73,273.197 L1684.73,266.194 L1676.53,266.194 C1668.19,266.194 1665.36,265.598 1664.17,264.108 C1663.12,262.767 1663.12,262.618 1663.12,254.87 L1663.12,193.333 C1663.12,184.989 1663.42,177.986 1664.17,168.301 L1658.8,168.301 "/>
<path class="StaffText" d="M1843.37,190.447 C1838.31,196.556 1824.6,201.175 1810.89,201.473 L1810.89,207.88 L1824,207.88 C1832.64,208.029 1833.54,208.923 1833.24,217.267 L1833.24,277.016 C1833.24,284.615 1833.24,284.913 1832.35,286.254 C1831.15,287.744 1828.32,288.34 1819.98,288.34 L1810.29,288.34 L1810.29,295.343 L1869.3,295.343 L1869.3,288.34 L1861.1,288.34 C1852.76,288.34 1849.93,287.744 1848.74,286.254 C1847.69,284.913 1847.69,284.764 1847.69,277.016 L1847.69,215.479 C1847.69,207.135 1847.99,200.132 1848.74,190.447 L1843.37,190.447 M1953.48,263.159 L1946.93,263.159 L1945.44,270.758 C1943.5,280.443 1942.31,281.337 1933.07,281.337 L1899.69,281.337 C1909.98,270.609 1913.4,267.48 1922.94,260.03 C1936.5,249.6 1942.31,244.385 1945.74,239.915 C1950.5,233.359 1952.89,226.803 1952.89,219.502 C1952.89,202.516 1938.88,190.447 1919.36,190.447 C1900.44,190.447 1885.99,202.516 1885.99,218.459 C1885.99,227.846 1890.75,234.253 1897.76,234.253 C1903.27,234.253 1907,230.528 1907,225.164 C1907,221.439 1904.91,218.012 1901.78,216.671 C1896.27,214.436 1895.97,214.138 1895.97,212.201 C1895.97,209.966 1897.46,206.539 1899.55,204.006 C1903.27,199.387 1909.38,196.854 1916.38,196.854 C1928.75,196.854 1936.05,204.453 1936.05,216.969 C1936.05,227.995 1930.84,237.978 1918.47,251.09 C1907.44,262.712 1900.59,270.013 1898.06,272.844 C1892.69,279.102 1890.01,282.529 1883.45,291.171 L1883.45,295.343 L1950.65,295.343 L1953.48,263.159 "/>
<path class="StaffText" d="M2030.92,234.738 C2010.06,234.738 1994.86,257.386 1994.86,288.676 C1994.86,319.37 2009.61,341.869 2029.73,341.869 C2050.59,341.869 2065.19,320.115 2065.19,289.123 C2065.19,273.329 2061.91,260.217 2055.66,249.936 C2049.84,240.549 2040.31,234.738 2030.92,234.738 M2029.88,241.145 C2034.8,241.145 2039.56,244.423 2043.14,250.383 C2047.16,257.386 2048.5,265.879 2048.5,286.292 C2048.5,307.301 2047.46,317.135 2044.48,323.691 C2041.05,330.992 2035.69,335.462 2030.03,335.462 C2024.96,335.462 2020.34,332.184 2016.77,326.224 C2012.59,319.221 2011.4,309.983 2011.4,285.547 C2011.4,268.114 2012.45,259.472 2015.43,252.916 C2018.85,245.466 2024.22,241.145 2029.88,241.145"/>
<path class="StaffText" d="M1488.37,1005.41 C1467.51,1005.41 1452.31,1028.06 1452.31,1059.35 C1452.31,1090.04 1467.06,1112.54 1487.18,1112.54 C1508.04,1112.54 1522.64,1090.78 1522.64,1059.79 C1522.64,1044 1519.36,1030.89 1513.1,1020.61 C1507.29,1011.22 1497.76,1005.41 1488.37,1005.41 M1487.33,1011.81 C1492.24,1011.81 1497.01,1015.09 1500.59,1021.05 C1504.61,1028.06 1505.95,1036.55 1505.95,1056.96 C1505.95,1077.97 1504.91,1087.8 1501.93,1094.36 C1498.5,1101.66 1493.14,1106.13 1487.48,1106.13 C1482.41,1106.13 1477.79,1102.85 1474.21,1096.89 C1470.04,1089.89 1468.85,1080.65 1468.85,1056.22 C1468.85,1038.78 1469.89,1030.14 1472.87,1023.59 C1476.3,1016.14 1481.66,1011.81 1487.33,1011.81"/>
<path class="StaffText" d="M1760.07,1005.41 C1739.21,1005.41 1724.01,1028.06 1724.01,1059.35 C1724.01,1090.04 1738.77,1112.54 1758.88,1112.54 C1779.74,1112.54 1794.34,1090.78 1794.34,1059.79 C1794.34,1044 1791.06,1030.89 1784.81,1020.61 C1779,1011.22 1769.46,1005.41 1760.07,1005.41 M1759.03,1011.81 C1763.95,1011.81 1768.71,1015.09 1772.29,1021.05 C1776.31,1028.06 1777.65,1036.55 1777.65,1056.96 C1777.65,1077.97 1776.61,1087.8 1773.63,1094.36 C1770.2,1101.66 1764.84,1106.13 1759.18,1106.13 C1754.11,1106.13 1749.49,1102.85 1745.92,1096.89 C1741.75,1089.89 1740.55,1080.65 1740.55,1056.22 C1740.55,1038.78 1741.6,1030.14 1744.58,1023.59 C1748,1016.14 1753.37,1011.81 1759.03,1011.81"/>
<path class="StaffText" d="M2031.78,1005.41 C2010.92,1005.41 1995.72,1028.06 1995.72,1059.35 C1995.72,1090.04 2010.47,1112.54 2030.58,1112.54 C2051.44,1112.54 2066.05,1090.78 2066.05,1059.79 C2066.05,1044 2062.77,1030.89 2056.51,1020.61 C2050.7,1011.22 2041.16,1005.41 2031.78,1005.41 M2030.73,1011.81 C2035.65,1011.81 2040.42,1015.09 2043.99,1021.05 C2048.02,1028.06 2049.36,1036.55 2049.36,1056.96 C2049.36,1077.97 2048.32,1087.8 2045.34,1094.36 C2041.91,1101.66 2036.54,1106.13 2030.88,1106.13 C2025.82,1106.13 2021.2,1102.85 2017.62,1096.89 C2013.45,1089.89 2012.26,1080.65 2012.26,1056.22 C2012.26,1038.78 2013.3,1030.14 2016.28,1023.59 C2019.71,1016.14 2025.07,1011.81 2030.73,1011.81"/>
<path class="StaffText" d="M2201.59,1005.41 C2180.73,1005.41 2165.53,1028.06 2165.53,1059.35 C2165.53,1090.04 2180.28,1112.54 2200.4,1112.54 C2221.26,1112.54 2235.86,1090.78 2235.86,1059.79 C2235.86,1044 2232.58,1030.89 2226.33,1020.61 C2220.51,1011.22 2210.98,1005.41 2201.59,1005.41 M2200.55,1011.81 C2205.47,1011.81 2210.23,1015.09 2213.81,1021.05 C2217.83,1028.06 2219.17,1036.55 2219.17,1056.96 C2219.17,1077.97 2218.13,1087.8 2215.15,1094.36 C2211.72,1101.66 2206.36,1106.13 2200.7,1106.13 C2195.63,1106.13 2191.01,1102.85 2187.44,1096.89 C2183.26,1089.89 2182.07,1080.65 2182.07,1056.22 C2182.07,1038.78 2183.12,1030.14 2186.1,1023.59 C2189.52,1016.14 2194.89,1011.81 2200.55,1011.81"/>
<path class="StaffText" d="M2458.88,1100.26 L2452.32,1100.26 L2450.83,1107.86 C2448.9,1117.55 2447.7,1118.44 2438.47,1118.44 L2405.09,1118.44 C2415.37,1107.71 2418.8,1104.59 2428.33,1097.14 C2441.89,1086.71 2447.7,1081.49 2451.13,1077.02 C2455.9,1070.46 2458.28,1063.91 2458.28,1056.61 C2458.28,1039.62 2444.28,1027.55 2424.76,1027.55 C2405.83,1027.55 2391.38,1039.62 2391.38,1055.56 C2391.38,1064.95 2396.15,1071.36 2403.15,1071.36 C2408.67,1071.36 2412.39,1067.63 2412.39,1062.27 C2412.39,1058.54 2410.3,1055.12 2407.18,1053.78 C2401.66,1051.54 2401.36,1051.24 2401.36,1049.31 C2401.36,1047.07 2402.85,1043.64 2404.94,1041.11 C2408.67,1036.49 2414.77,1033.96 2421.78,1033.96 C2434.14,1033.96 2441.45,1041.56 2441.45,1054.07 C2441.45,1065.1 2436.23,1075.08 2423.86,1088.2 C2412.84,1099.82 2405.98,1107.12 2403.45,1109.95 C2398.09,1116.21 2395.4,1119.63 2388.85,1128.28 L2388.85,1132.45 L2456.05,1132.45 L2458.88,1100.26 "/>
<path class="StaffText" d="M2597.3,1049.7 C2592.24,1055.81 2578.53,1060.43 2564.82,1060.72 L2564.82,1067.13 L2577.93,1067.13 C2586.57,1067.28 2587.47,1068.17 2587.17,1076.52 L2587.17,1136.27 C2587.17,1143.87 2587.17,1144.16 2586.28,1145.51 C2585.08,1147 2582.25,1147.59 2573.91,1147.59 L2564.22,1147.59 L2564.22,1154.59 L2623.23,1154.59 L2623.23,1147.59 L2615.03,1147.59 C2606.69,1147.59 2603.86,1147 2602.67,1145.51 C2601.62,1144.16 2601.62,1144.02 2601.62,1136.27 L2601.62,1074.73 C2601.62,1066.39 2601.92,1059.38 2602.67,1049.7 L2597.3,1049.7 "/>
<path class="StaffText" d="M3344.38,1049.7 C3339.31,1055.81 3325.61,1060.43 3311.9,1060.72 L3311.9,1067.13 L3325.01,1067.13 C3333.65,1067.28 3334.55,1068.17 3334.25,1076.52 L3334.25,1136.27 C3334.25,1143.87 3334.25,1144.16 3333.35,1145.51 C3332.16,1147 3329.33,1147.59 3320.99,1147.59 L3311.3,1147.59 L3311.3,1154.59 L3370.31,1154.59 L3370.31,1147.59 L3362.11,1147.59 C3353.77,1147.59 3350.94,1147 3349.74,1145.51 C3348.7,1144.16 3348.7,1144.02 3348.7,1136.27 L3348.7,1074.73 C3348.7,1066.39 3349,1059.38 3349.74,1049.7 L3344.38,1049.7 "/>
<path class="StaffText" d="M3541.34,1076.95 C3520.48,1076.95 3505.28,1099.6 3505.28,1130.89 C3505.28,1161.59 3520.03,1184.08 3540.15,1184.08 C3561.01,1184.08 3575.61,1162.33 3575.61,1131.34 C3575.61,1115.54 3572.33,1102.43 3566.07,1092.15 C3560.26,1082.76 3550.72,1076.95 3541.34,1076.95 M3540.29,1083.36 C3545.21,1083.36 3549.98,1086.64 3553.56,1092.6 C3557.58,1099.6 3558.92,1108.09 3558.92,1128.51 C3558.92,1149.52 3557.88,1159.35 3554.9,1165.91 C3551.47,1173.21 3546.11,1177.68 3540.44,1177.68 C3535.38,1177.68 3530.76,1174.4 3527.18,1168.44 C3523.01,1161.44 3521.82,1152.2 3521.82,1127.76 C3521.82,1110.33 3522.86,1101.69 3525.84,1095.13 C3529.27,1087.68 3534.63,1083.36 3540.29,1083.36"/>
<path class="StaffText" d="M3732.34,1049.7 C3727.27,1055.81 3713.56,1060.43 3699.86,1060.72 L3699.86,1067.13 L3712.97,1067.13 C3721.61,1067.28 3722.5,1068.17 3722.21,1076.52 L3722.21,1136.27 C3722.21,1143.87 3722.21,1144.16 3721.31,1145.51 C3720.12,1147 3717.29,1147.59 3708.95,1147.59 L3699.26,1147.59 L3699.26,1154.59 L3758.26,1154.59 L3758.26,1147.59 L3750.07,1147.59 C3741.73,1147.59 3738.89,1147 3737.7,1145.51 C3736.66,1144.16 3736.66,1144.02 3736.66,1136.27 L3736.66,1074.73 C3736.66,1066.39 3736.96,1059.38 3737.7,1049.7 L3732.34,1049.7 "/>
<path class="StaffText" d="M4011.31,1100.26 L4004.75,1100.26 L4003.26,1107.86 C4001.32,1117.55 4000.13,1118.44 3990.89,1118.44 L3957.52,1118.44 C3967.8,1107.71 3971.22,1104.59 3980.76,1097.14 C3994.32,1086.71 4000.13,1081.49 4003.56,1077.02 C4008.33,1070.46 4010.71,1063.91 4010.71,1056.61 C4010.71,1039.62 3996.7,1027.55 3977.18,1027.55 C3958.26,1027.55 3943.81,1039.62 3943.81,1055.56 C3943.81,1064.95 3948.58,1071.36 3955.58,1071.36 C3961.09,1071.36 3964.82,1067.63 3964.82,1062.27 C3964.82,1058.54 3962.73,1055.12 3959.6,1053.78 C3954.09,1051.54 3953.79,1051.24 3953.79,1049.31 C3953.79,1047.07 3955.28,1043.64 3957.37,1041.11 C3961.09,1036.49 3967.2,1033.96 3974.2,1033.96 C3986.57,1033.96 3993.87,1041.56 3993.87,1054.07 C3993.87,1065.1 3988.66,1075.08 3976.29,1088.2 C3965.26,1099.82 3958.41,1107.12 3955.88,1109.95 C3950.51,1116.21 3947.83,1119.63 3941.28,1128.28 L3941.28,1132.45 L4008.47,1132.45 L4011.31,1100.26 "/>
<path class="StaffText" d="M638.843,1776.08 C617.983,1776.08 602.785,1798.72 602.785,1830.01 C602.785,1860.71 617.536,1883.21 637.651,1883.21 C658.511,1883.21 673.113,1861.45 673.113,1830.46 C673.113,1814.67 669.835,1801.55 663.577,1791.27 C657.766,1781.89 648.23,1776.08 638.843,1776.08 M637.8,1782.48 C642.717,1782.48 647.485,1785.76 651.061,1791.72 C655.084,1798.72 656.425,1807.22 656.425,1827.63 C656.425,1848.64 655.382,1858.47 652.402,1865.03 C648.975,1872.33 643.611,1876.8 637.949,1876.8 C632.883,1876.8 628.264,1873.52 624.688,1867.56 C620.516,1860.56 619.324,1851.32 619.324,1826.88 C619.324,1809.45 620.367,1800.81 623.347,1794.25 C626.774,1786.8 632.138,1782.48 637.8,1782.48"/>
<path class="StaffText" d="M972.915,1776.08 C952.055,1776.08 936.857,1798.72 936.857,1830.01 C936.857,1860.71 951.608,1883.21 971.723,1883.21 C992.583,1883.21 1007.18,1861.45 1007.18,1830.46 C1007.18,1814.67 1003.91,1801.55 997.649,1791.27 C991.838,1781.89 982.302,1776.08 972.915,1776.08 M971.872,1782.48 C976.789,1782.48 981.557,1785.76 985.133,1791.72 C989.156,1798.72 990.497,1807.22 990.497,1827.63 C990.497,1848.64 989.454,1858.47 986.474,1865.03 C983.047,1872.33 977.683,1876.8 972.021,1876.8 C966.955,1876.8 962.336,1873.52 958.76,1867.56 C954.588,1860.56 953.396,1851.32 953.396,1826.88 C953.396,1809.45 954.439,1800.81 957.419,1794.25 C960.846,1786.8 966.21,1782.48 971.872,1782.48"/>
<path class="StaffText" d="M1306.99,1776.08 C1286.13,1776.08 1270.93,1798.72 1270.93,1830.01 C1270.93,1860.71 1285.68,1883.21 1305.79,1883.21 C1326.65,1883.21 1341.26,1861.45 1341.26,1830.46 C1341.26,1814.67 1337.98,1801.55 1331.72,1791.27 C1325.91,1781.89 1316.37,1776.08 1306.99,1776.08 M1305.94,1782.48 C1310.86,1782.48 1315.63,1785.76 1319.2,1791.72 C1323.23,1798.72 1324.57,1807.22 1324.57,1827.63 C1324.57,1848.64 1323.52,1858.47 1320.54,1865.03 C1317.12,1872.33 1311.75,1876.8 1306.09,1876.8 C1301.03,1876.8 1296.41,1873.52 1292.83,1867.56 C1288.66,1860.56 1287.47,1851.32 1287.47,1826.88 C1287.47,1809.45 1288.51,1800.81 1291.49,1794.25 C1294.92,1786.8 1300.28,1782.48 1305.94,1782.48"/>
<path class="StaffText" d="M1572.99,1826.64 L1566.44,1826.64 L1564.95,1834.24 C1563.01,1843.93 1561.82,1844.82 1552.58,1844.82 L1519.2,1844.82 C1529.48,1834.09 1532.91,1830.96 1542.45,1823.51 C1556.01,1813.08 1561.82,1807.87 1565.24,1803.4 C1570.01,1796.84 1572.4,1790.29 1572.4,1782.99 C1572.4,1766 1558.39,1753.93 1538.87,1753.93 C1519.95,1753.93 1505.5,1766 1505.5,1781.94 C1505.5,1791.33 1510.26,1797.74 1517.27,1797.74 C1522.78,1797.74 1526.5,1794.01 1526.5,1788.65 C1526.5,1784.92 1524.42,1781.5 1521.29,1780.15 C1515.78,1777.92 1515.48,1777.62 1515.48,1775.68 C1515.48,1773.45 1516.97,1770.02 1519.05,1767.49 C1522.78,1762.87 1528.89,1760.34 1535.89,1760.34 C1548.26,1760.34 1555.56,1767.94 1555.56,1780.45 C1555.56,1791.48 1550.34,1801.46 1537.98,1814.57 C1526.95,1826.2 1520.1,1833.5 1517.56,1836.33 C1512.2,1842.59 1509.52,1846.01 1502.96,1854.65 L1502.96,1858.83 L1570.16,1858.83 L1572.99,1826.64 M1632.15,1803.99 C1645.7,1799.08 1651.96,1791.48 1651.96,1779.56 C1651.96,1763.91 1640.04,1753.93 1621.57,1753.93 C1604.13,1753.93 1590.87,1764.21 1590.87,1777.77 C1590.87,1783.88 1594.9,1788.2 1600.71,1788.2 C1605.92,1788.2 1609.5,1784.62 1609.5,1779.26 C1609.5,1775.98 1608.31,1774.05 1604.88,1771.66 C1603.39,1770.62 1602.94,1770.02 1602.94,1768.98 C1602.94,1764.81 1611.58,1760.34 1620.08,1760.34 C1630.8,1760.34 1636.47,1767.04 1636.47,1779.71 C1636.47,1793.56 1630.8,1800.87 1620.23,1800.87 C1618.88,1800.87 1616.35,1800.72 1614.12,1800.57 C1612.92,1800.42 1611.73,1800.42 1610.84,1800.42 C1607.71,1800.42 1606.07,1801.76 1606.07,1804.44 C1606.07,1806.97 1607.56,1808.17 1610.84,1808.17 C1611.73,1808.17 1612.92,1808.17 1614.27,1808.02 C1617.25,1807.87 1619.63,1807.87 1621.27,1807.87 C1632.29,1807.87 1638.25,1815.77 1638.25,1830.52 C1638.25,1846.01 1630.8,1854.65 1617.39,1854.65 C1608.01,1854.65 1597.88,1849.59 1597.88,1844.97 C1597.88,1843.63 1598.17,1843.33 1601,1841.69 C1605.18,1839.16 1606.82,1836.63 1606.82,1832.9 C1606.82,1827.54 1602.79,1823.51 1597.43,1823.51 C1591.02,1823.51 1586.85,1828.73 1586.85,1836.63 C1586.85,1851.08 1600.11,1861.06 1619.18,1861.06 C1640.79,1861.06 1654.79,1849.14 1654.79,1830.81 C1654.79,1816.81 1647.64,1808.32 1632.15,1803.99"/>
<path class="StaffText" d="M1744.83,1731.78 C1739.77,1737.89 1726.06,1742.51 1712.35,1742.81 L1712.35,1749.22 L1725.46,1749.22 C1734.11,1749.37 1735,1750.26 1734.7,1758.6 L1734.7,1818.35 C1734.7,1825.95 1734.7,1826.25 1733.81,1827.59 C1732.62,1829.08 1729.78,1829.68 1721.44,1829.68 L1711.76,1829.68 L1711.76,1836.68 L1770.76,1836.68 L1770.76,1829.68 L1762.56,1829.68 C1754.22,1829.68 1751.39,1829.08 1750.2,1827.59 C1749.15,1826.25 1749.15,1826.1 1749.15,1818.35 L1749.15,1756.82 C1749.15,1748.47 1749.45,1741.47 1750.2,1731.78 L1744.83,1731.78 M1854.94,1804.5 L1848.39,1804.5 L1846.9,1812.1 C1844.96,1821.78 1843.77,1822.67 1834.53,1822.67 L1801.15,1822.67 C1811.44,1811.95 1814.86,1808.82 1824.4,1801.37 C1837.96,1790.94 1843.77,1785.72 1847.2,1781.25 C1851.96,1774.7 1854.35,1768.14 1854.35,1760.84 C1854.35,1743.85 1840.34,1731.78 1820.82,1731.78 C1801.9,1731.78 1787.45,1743.85 1787.45,1759.8 C1787.45,1769.18 1792.21,1775.59 1799.22,1775.59 C1804.73,1775.59 1808.46,1771.87 1808.46,1766.5 C1808.46,1762.78 1806.37,1759.35 1803.24,1758.01 C1797.73,1755.77 1797.43,1755.48 1797.43,1753.54 C1797.43,1751.3 1798.92,1747.88 1801.01,1745.34 C1804.73,1740.72 1810.84,1738.19 1817.84,1738.19 C1830.21,1738.19 1837.51,1745.79 1837.51,1758.31 C1837.51,1769.33 1832.3,1779.32 1819.93,1792.43 C1808.9,1804.05 1802.05,1811.35 1799.52,1814.18 C1794.15,1820.44 1791.47,1823.87 1784.91,1832.51 L1784.91,1836.68 L1852.11,1836.68 L1854.94,1804.5 "/>
<path class="StaffText" d="M1968.14,1709.64 C1963.08,1715.75 1949.37,1720.37 1935.66,1720.66 L1935.66,1727.07 L1948.77,1727.07 C1957.42,1727.22 1958.31,1728.11 1958.01,1736.46 L1958.01,1796.21 C1958.01,1803.81 1958.01,1804.1 1957.12,1805.45 C1955.93,1806.94 1953.1,1807.53 1944.75,1807.53 L1935.07,1807.53 L1935.07,1814.53 L1994.07,1814.53 L1994.07,1807.53 L1985.88,1807.53 C1977.53,1807.53 1974.7,1806.94 1973.51,1805.45 C1972.47,1804.1 1972.47,1803.96 1972.47,1796.21 L1972.47,1734.67 C1972.47,1726.33 1972.76,1719.32 1973.51,1709.64 L1968.14,1709.64 "/>
<path class="StaffText" d="M2772.73,1709.64 C2767.66,1715.75 2753.95,1720.37 2740.25,1720.66 L2740.25,1727.07 L2753.36,1727.07 C2762,1727.22 2762.89,1728.11 2762.6,1736.46 L2762.6,1796.21 C2762.6,1803.81 2762.6,1804.1 2761.7,1805.45 C2760.51,1806.94 2757.68,1807.53 2749.33,1807.53 L2739.65,1807.53 L2739.65,1814.53 L2798.65,1814.53 L2798.65,1807.53 L2790.46,1807.53 C2782.11,1807.53 2779.28,1806.94 2778.09,1805.45 C2777.05,1804.1 2777.05,1803.96 2777.05,1796.21 L2777.05,1734.67 C2777.05,1726.33 2777.35,1719.32 2778.09,1709.64 L2772.73,1709.64 "/>
<path class="StaffText" d="M2976.38,1709.64 C2971.31,1715.75 2957.6,1720.37 2943.9,1720.66 L2943.9,1727.07 L2957.01,1727.07 C2965.65,1727.22 2966.54,1728.11 2966.25,1736.46 L2966.25,1796.21 C2966.25,1803.81 2966.25,1804.1 2965.35,1805.45 C2964.16,1806.94 2961.33,1807.53 2952.99,1807.53 L2943.3,1807.53 L2943.3,1814.53 L3002.3,1814.53 L3002.3,1807.53 L2994.11,1807.53 C2985.77,1807.53 2982.93,1806.94 2981.74,1805.45 C2980.7,1804.1 2980.7,1803.96 2980.7,1796.21 L2980.7,1734.67 C2980.7,1726.33 2981,1719.32 2981.74,1709.64 L2976.38,1709.64 "/>
<path class="StaffText" d="M3180.03,1731.78 C3174.96,1737.89 3161.26,1742.51 3147.55,1742.81 L3147.55,1749.22 L3160.66,1749.22 C3169.3,1749.37 3170.2,1750.26 3169.9,1758.6 L3169.9,1818.35 C3169.9,1825.95 3169.9,1826.25 3169,1827.59 C3167.81,1829.08 3164.98,1829.68 3156.64,1829.68 L3146.95,1829.68 L3146.95,1836.68 L3205.96,1836.68 L3205.96,1829.68 L3197.76,1829.68 C3189.42,1829.68 3186.59,1829.08 3185.39,1827.59 C3184.35,1826.25 3184.35,1826.1 3184.35,1818.35 L3184.35,1756.82 C3184.35,1748.47 3184.65,1741.47 3185.39,1731.78 L3180.03,1731.78 M3290.14,1804.5 L3283.58,1804.5 L3282.09,1812.1 C3280.16,1821.78 3278.97,1822.67 3269.73,1822.67 L3236.35,1822.67 C3246.63,1811.95 3250.06,1808.82 3259.6,1801.37 C3273.15,1790.94 3278.97,1785.72 3282.39,1781.25 C3287.16,1774.7 3289.54,1768.14 3289.54,1760.84 C3289.54,1743.85 3275.54,1731.78 3256.02,1731.78 C3237.1,1731.78 3222.64,1743.85 3222.64,1759.8 C3222.64,1769.18 3227.41,1775.59 3234.41,1775.59 C3239.93,1775.59 3243.65,1771.87 3243.65,1766.5 C3243.65,1762.78 3241.57,1759.35 3238.44,1758.01 C3232.92,1755.77 3232.63,1755.48 3232.63,1753.54 C3232.63,1751.3 3234.12,1747.88 3236.2,1745.34 C3239.93,1740.72 3246.04,1738.19 3253.04,1738.19 C3265.41,1738.19 3272.71,1745.79 3272.71,1758.31 C3272.71,1769.33 3267.49,1779.32 3255.13,1792.43 C3244.1,1804.05 3237.25,1811.35 3234.71,1814.18 C3229.35,1820.44 3226.67,1823.87 3220.11,1832.51 L3220.11,1836.68 L3287.31,1836.68 L3290.14,1804.5 "/>
<path class="StaffText" d="M3386.66,1776.08 C3365.8,1776.08 3350.6,1798.72 3350.6,1830.01 C3350.6,1860.71 3365.35,1883.21 3385.47,1883.21 C3406.33,1883.21 3420.93,1861.45 3420.93,1830.46 C3420.93,1814.67 3417.65,1801.55 3411.39,1791.27 C3405.58,1781.89 3396.05,1776.08 3386.66,1776.08 M3385.62,1782.48 C3390.53,1782.48 3395.3,1785.76 3398.88,1791.72 C3402.9,1798.72 3404.24,1807.22 3404.24,1827.63 C3404.24,1848.64 3403.2,1858.47 3400.22,1865.03 C3396.79,1872.33 3391.43,1876.8 3385.77,1876.8 C3380.7,1876.8 3376.08,1873.52 3372.5,1867.56 C3368.33,1860.56 3367.14,1851.32 3367.14,1826.88 C3367.14,1809.45 3368.18,1800.81 3371.16,1794.25 C3374.59,1786.8 3379.95,1782.48 3385.62,1782.48"/>
<path class="SystemText" d="M3570.7,261.99 L3534.66,312.128 L3534.66,318.064 L3564.45,318.064 L3564.45,323.576 C3564.45,328.982 3564.45,329.194 3563.81,330.148 C3562.96,331.314 3560.95,331.632 3554.91,331.632 L3553.74,331.632 L3553.74,336.614 L3584.69,336.614 L3584.69,331.632 L3584.27,331.632 C3578.23,331.632 3576.21,331.314 3575.36,330.148 C3574.73,329.194 3574.73,329.088 3574.73,323.576 L3574.73,318.064 L3587.55,318.064 L3587.55,312.128 L3574.73,312.128 L3574.73,283.19 C3574.73,269.94 3574.73,269.622 3575.26,261.99 L3570.7,261.99 M3564.45,312.128 L3541.13,312.128 L3564.45,280.01 L3564.45,312.128 M3631.85,294.214 L3645.95,275.028 C3651.46,267.396 3654.53,265.276 3660.47,265.064 L3662.16,265.064 L3662.16,260.082 L3633.01,260.082 L3633.01,265.064 L3634.5,265.064 C3639.59,265.064 3641.81,266.336 3641.81,269.198 C3641.81,270.364 3641.49,271.106 3640.33,272.802 L3628.88,289.444 L3614.78,269.092 C3614.04,268.032 3613.62,266.972 3613.62,266.442 C3613.62,265.382 3614.57,265.064 3618.7,265.064 L3622.73,265.064 L3622.73,260.082 L3589.98,260.082 L3589.98,265.064 L3591.78,265.064 C3597.5,265.17 3598.35,265.594 3600.68,269.092 L3621.57,299.302 L3604.39,323.152 C3599.73,329.406 3596.13,331.526 3590.51,331.632 L3590.08,331.632 L3590.08,336.614 L3620.19,336.614 L3620.19,331.632 L3617.54,331.632 C3613.3,331.632 3610.65,329.724 3610.65,326.544 C3610.65,325.166 3611.28,323.47 3612.34,321.88 L3624.64,304.072 L3640.43,326.438 C3641.39,327.71 3641.81,328.876 3641.81,329.724 C3641.81,331.42 3641.39,331.526 3634.71,331.632 L3631.74,331.632 L3631.74,336.614 L3666.51,336.614 L3666.51,331.632 L3665.24,331.632 C3658.14,331.526 3657.5,331.208 3654.11,326.12 L3631.85,294.214 "/>
<path class="RehearsalMark" fill="none" stroke="#000000" stroke-width="8.50" stroke-linecap="square" stroke-linejoin="miter" stroke-miterlimit="2" fill-rule="evenodd" d="M3286.52,142.825 L3466.76,142.825 L3466.76,314.291 L3286.52,314.291 L3286.52,142.825 "/>
<path class="RehearsalMark" d="M3372.31,173.651 L3338.49,252.621 C3331.64,268.713 3326.12,274.524 3317.33,275.418 L3317.33,283.464 L3360.39,283.464 L3360.39,275.418 C3349.82,274.822 3345.64,271.991 3345.64,265.137 C3345.64,262.604 3346.24,260.22 3347.88,256.644 L3350.26,250.982 L3387.36,250.982 L3393.03,265.584 C3394.66,269.756 3394.81,270.501 3394.81,271.693 C3394.81,274.375 3392.73,275.269 3386.17,275.269 L3383.64,275.418 L3383.64,283.464 L3435.94,283.464 L3435.94,275.418 C3427.44,275.12 3425.06,273.63 3421.93,266.031 L3383.64,173.651 L3372.31,173.651 M3369.19,205.388 L3383.64,240.999 L3354.14,240.999 L3369.19,205.388 "/>
<path class="RehearsalMark" fill="none" stroke="#000000" stroke-width="8.50" stroke-linecap="square" stroke-linejoin="miter" stroke-miterlimit="2" fill-rule="evenodd" d="M1229.51,915.744 L1398.72,915.744 L1398.72,1084.96 L1229.51,1084.96 L1229.51,915.744 "/>
<path class="RehearsalMark" d="M1260.55,946.555 L1260.55,954.601 L1262.79,954.601 C1270.83,954.601 1273.67,955.197 1275.01,956.687 C1276.05,958.326 1276.05,958.773 1276.05,968.011 L1276.05,1032.68 C1276.05,1041.92 1276.05,1042.36 1275.01,1043.85 C1273.67,1045.49 1270.69,1046.09 1262.79,1046.09 L1260.55,1046.09 L1260.55,1054.13 L1320.9,1054.13 C1336.39,1054.13 1344.29,1052.94 1352.04,1049.51 C1361.43,1045.34 1367.68,1035.96 1367.68,1025.82 C1367.68,1015.39 1361.72,1007.2 1350.7,1002.13 C1345.63,999.748 1341.31,998.556 1333.41,997.513 C1340.72,996.321 1344.89,995.278 1349.06,993.341 C1358,989.02 1362.77,981.868 1362.77,972.928 C1362.77,964.435 1358.3,956.538 1351,952.515 C1342.8,947.896 1335.65,946.555 1318.07,946.555 L1260.55,946.555 M1302.87,994.831 L1302.87,963.243 C1302.57,956.985 1304.66,954.899 1311.21,954.601 L1315.68,954.601 C1328.8,954.601 1335.8,961.157 1335.8,973.524 C1335.8,980.825 1333.27,986.636 1328.5,990.361 C1324.47,993.639 1319.41,994.831 1310.17,994.831 L1302.87,994.831 M1302.87,1003.03 L1313.15,1003.03 C1322.54,1003.03 1326.86,1003.92 1331.03,1006.6 C1336.25,1010.03 1339.23,1016.59 1339.23,1024.33 C1339.23,1031.49 1336.54,1038.04 1332.22,1041.62 C1328.5,1044.6 1323.58,1046.09 1316.43,1046.09 L1311.96,1046.09 C1303.47,1045.79 1302.57,1044.9 1302.87,1036.55 L1302.87,1003.03 "/>
<path class="NoteDot" transform="matrix(2.12598,0,0,2.12598,1080.45,628.937)" d="M0,-0.00166016 C0,2.75977 2.23857,4.99834 5,4.99834 C7.76143,4.99834 10,2.75977 10,-0.00166016 C10,-2.76309 7.76143,-5.00166 5,-5.00166 C2.23857,-5.00166 0,-2.76309 0,-0.00166016"/>
</svg>
