<?xml version="1.0" encoding="UTF-8" standalone="no"?>
<svg width="2977.23px" height="2098.77px" viewBox="0 0 2977.23 2098.77"
 xmlns="http://www.w3.org/2000/svg" xmlns:xlink="http://www.w3.org/1999/xlink" version="1.2" baseProfile="tiny">
<title>Tuba</title>
<desc>Generated by MuseScore 3.6.2</desc>
<polyline class="StaffLines" fill="none" stroke="#000000" stroke-width="2.73" stroke-linejoin="bevel" points="336.614,386.303 2763.78,386.303"/>
<polyline class="StaffLines" fill="none" stroke="#000000" stroke-width="2.73" stroke-linejoin="bevel" points="336.614,411.106 2763.78,411.106"/>
<polyline class="StaffLines" fill="none" stroke="#000000" stroke-width="2.73" stroke-linejoin="bevel" points="336.614,435.909 2763.78,435.909"/>
<polyline class="StaffLines" fill="none" stroke="#000000" stroke-width="2.73" stroke-linejoin="bevel" points="336.614,460.713 2763.78,460.713"/>
<polyline class="StaffLines" fill="none" stroke="#000000" stroke-width="2.73" stroke-linejoin="bevel" points="336.614,485.516 2763.78,485.516"/>
<polyline class="BarLine" fill="none" stroke="#000000" stroke-width="4.46" stroke-linejoin="bevel" points="811.633,384.939 811.633,486.88"/>
<path class="BarLine" transform="matrix(0.992126,0,0,0.992126,985.748,423.508)" d="M10.4063,0 C10.4063,-2.90625 8.09375,-5.29688 5.20313,-5.29688 C2.29688,-5.29688 0,-2.90625 0,0 C0,2.90625 2.29688,5.29688 5.20313,5.29688 C8.09375,5.29688 10.4063,2.90625 10.4063,0"/>
<path class="BarLine" transform="matrix(0.992126,0,0,0.992126,985.748,448.311)" d="M10.4063,0 C10.4063,-2.90625 8.09375,-5.29688 5.20313,-5.29688 C2.29688,-5.29688 0,-2.90625 0,0 C0,2.90625 2.29688,5.29688 5.20313,5.29688 C8.09375,5.29688 10.4063,2.90625 10.4063,0"/>
<polyline class="BarLine" fill="none" stroke="#000000" stroke-width="4.46" stroke-linejoin="bevel" points="1008.27,384.939 1008.27,486.88"/>
<polyline class="BarLine" fill="none" stroke="#000000" stroke-width="13.64" stroke-linejoin="bevel" points="1025.63,384.939 1025.63,486.88"/>
<polyline class="BarLine" fill="none" stroke="#000000" stroke-width="13.64" stroke-linejoin="bevel" points="1233.53,384.939 1233.53,486.88"/>
<polyline class="BarLine" fill="none" stroke="#000000" stroke-width="4.46" stroke-linejoin="bevel" points="1250.89,384.939 1250.89,486.88"/>
<path class="BarLine" transform="matrix(0.992126,0,0,0.992126,1263.09,423.508)" d="M10.4063,0 C10.4063,-2.90625 8.09375,-5.29688 5.20313,-5.29688 C2.29688,-5.29688 0,-2.90625 0,0 C0,2.90625 2.29688,5.29688 5.20313,5.29688 C8.09375,5.29688 10.4063,2.90625 10.4063,0"/>
<path class="BarLine" transform="matrix(0.992126,0,0,0.992126,1263.09,448.311)" d="M10.4063,0 C10.4063,-2.90625 8.09375,-5.29688 5.20313,-5.29688 C2.29688,-5.29688 0,-2.90625 0,0 C0,2.90625 2.29688,5.29688 5.20313,5.29688 C8.09375,5.29688 10.4063,2.90625 10.4063,0"/>
<polyline class="BarLine" fill="none" stroke="#000000" stroke-width="4.46" stroke-linejoin="bevel" points="1533.16,384.939 1533.16,486.88"/>
<path class="BarLine" transform="matrix(0.992126,0,0,0.992126,1707.28,423.508)" d="M10.4063,0 C10.4063,-2.90625 8.09375,-5.29688 5.20313,-5.29688 C2.29688,-5.29688 0,-2.90625 0,0 C0,2.90625 2.29688,5.29688 5.20313,5.29688 C8.09375,5.29688 10.4063,2.90625 10.4063,0"/>
<path class="BarLine" transform="matrix(0.992126,0,0,0.992126,1707.28,448.311)" d="M10.4063,0 C10.4063,-2.90625 8.09375,-5.29688 5.20313,-5.29688 C2.29688,-5.29688 0,-2.90625 0,0 C0,2.90625 2.29688,5.29688 5.20313,5.29688 C8.09375,5.29688 10.4063,2.90625 10.4063,0"/>
<polyline class="BarLine" fill="none" stroke="#000000" stroke-width="4.46" stroke-linejoin="bevel" points="1729.8,384.939 1729.8,486.88"/>
<polyline class="BarLine" fill="none" stroke="#000000" stroke-width="13.64" stroke-linejoin="bevel" points="1747.16,384.939 1747.16,486.88"/>
<polyline class="BarLine" fill="none" stroke="#000000" stroke-width="4.46" stroke-linejoin="bevel" points="1932.36,384.939 1932.36,486.88"/>
<polyline class="BarLine" fill="none" stroke="#000000" stroke-width="4.46" stroke-linejoin="bevel" points="1946,384.939 1946,486.88"/>
<polyline class="BarLine" fill="none" stroke="#000000" stroke-width="13.64" stroke-linejoin="bevel" points="2149.27,384.939 2149.27,486.88"/>
<polyline class="BarLine" fill="none" stroke="#000000" stroke-width="4.46" stroke-linejoin="bevel" points="2166.63,384.939 2166.63,486.88"/>
<path class="BarLine" transform="matrix(0.992126,0,0,0.992126,2178.83,423.508)" d="M10.4063,0 C10.4063,-2.90625 8.09375,-5.29688 5.20313,-5.29688 C2.29688,-5.29688 0,-2.90625 0,0 C0,2.90625 2.29688,5.29688 5.20313,5.29688 C8.09375,5.29688 10.4063,2.90625 10.4063,0"/>
<path class="BarLine" transform="matrix(0.992126,0,0,0.992126,2178.83,448.311)" d="M10.4063,0 C10.4063,-2.90625 8.09375,-5.29688 5.20313,-5.29688 C2.29688,-5.29688 0,-2.90625 0,0 C0,2.90625 2.29688,5.29688 5.20313,5.29688 C8.09375,5.29688 10.4063,2.90625 10.4063,0"/>
<path class="BarLine" transform="matrix(0.992126,0,0,0.992126,2444.06,423.508)" d="M10.4063,0 C10.4063,-2.90625 8.09375,-5.29688 5.20313,-5.29688 C2.29688,-5.29688 0,-2.90625 0,0 C0,2.90625 2.29688,5.29688 5.20313,5.29688 C8.09375,5.29688 10.4063,2.90625 10.4063,0"/>
<path class="BarLine" transform="matrix(0.992126,0,0,0.992126,2444.06,448.311)" d="M10.4063,0 C10.4063,-2.90625 8.09375,-5.29688 5.20313,-5.29688 C2.29688,-5.29688 0,-2.90625 0,0 C0,2.90625 2.29688,5.29688 5.20313,5.29688 C8.09375,5.29688 10.4063,2.90625 10.4063,0"/>
<polyline class="BarLine" fill="none" stroke="#000000" stroke-width="4.46" stroke-linejoin="bevel" points="2466.58,384.939 2466.58,486.88"/>
<polyline class="BarLine" fill="none" stroke="#000000" stroke-width="13.64" stroke-linejoin="bevel" points="2483.94,384.939 2483.94,486.88"/>
<polyline class="BarLine" fill="none" stroke="#000000" stroke-width="4.46" stroke-linejoin="bevel" points="2747.91,384.939 2747.91,486.88"/>
<polyline class="BarLine" fill="none" stroke="#000000" stroke-width="4.46" stroke-linejoin="bevel" points="2761.55,384.939 2761.55,486.88"/>
<path class="Clef" transform="matrix(0.992126,0,0,0.992126,356.457,411.106)" d="M25.4063,-25.0938 C17.7969,-25.0938 11.7031,-20.7031 11.5938,-20.7031 C5.79688,-16.4063 3.5,-11.2969 2.59375,-7.79688 C2.09375,-6 1.90625,-4.20313 1.90625,-2.5 C1.90625,-0.09375 2.29688,2.09375 3.20313,4 C4.40625,6.70313 6.70313,8.59375 9.70313,9.59375 C10.9063,10 12.2031,10.2031 13.5,10.2031 C15.7031,10.2031 18,9.59375 19.9063,8.5 C23,6.79688 24.9063,3.20313 24.9063,-0.703125 C24.9063,-4.20313 23.0938,-7.40625 20.0938,-9.29688 C18,-10.7031 16,-11.0938 14.2969,-11.0938 C13.0938,-11.0938 12,-10.9063 11.0938,-10.5938 C10.0938,-10.2031 8.40625,-9.20313 7.59375,-8.5 C7.90625,-10.4063 9.09375,-13.2969 10.2031,-14.9063 C11.2969,-16.5 13.5,-18.5 15.2031,-19.4063 C17.7031,-20.7969 20.9063,-21.4063 24.4063,-21.4063 C34.6094,-21.4063 39.6094,-13.2031 39.6094,3.59375 C39.6094,12.9063 36.1094,21.7969 33.1094,27.7031 C29.7969,34.2969 25.4063,40.6094 21.5,44.1094 C11.0938,53.6094 1.29688,58.1094 1.20313,58.1094 C1.20313,58.1094 -0.296875,59 0.09375,60.5 C0.40625,61.5 1.29688,61.7031 1.90625,61.7031 C2,61.7031 2.29688,61.6094 2.40625,61.6094 C2.5,61.6094 13.9063,56.9063 23,49.7969 C28.1094,46.1094 32.7031,42.1094 36.7031,37.7969 C40.2969,33.9063 43.4063,29.7031 45.9063,25.5 C50.2969,18 52.7969,10.2031 52.7969,3.5 C52.7969,-4.79688 50.6094,-11.7031 46.5,-16.5938 C41.7969,-22.2031 34.7031,-25.0938 25.4063,-25.0938 M56.7969,-12.4063 C56.7969,-9.59375 59,-7.40625 61.6094,-7.40625 C64.2031,-7.40625 66.4063,-9.59375 66.4063,-12.4063 C66.4063,-15.2031 64.2031,-17.5 61.6094,-17.5 C59,-17.5 56.7969,-15.2031 56.7969,-12.4063 M56.7969,12.2969 C56.7969,15.0938 59,17.4063 61.6094,17.4063 C64.2031,17.4063 66.4063,15.0938 66.4063,12.2969 C66.4063,9.5 64.2031,7.20313 61.6094,7.20313 C59,7.20313 56.7969,9.5 56.7969,12.2969"/>
<path class="KeySig" transform="matrix(0.992126,0,0,0.992126,447.135,460.713)" d="M20.0938,-7.90625 C19.5,-11.7969 17.0938,-15.5 12,-15.5 C7,-15.5 4.09375,-12.4063 3.59375,-11.7969 L4,-43.9063 C4,-44.7031 3.40625,-45.2969 2.59375,-45.2969 L1.40625,-45.2969 C0.59375,-45.2969 0,-44.7031 0,-43.9063 L0.5,16.2031 C0.5,17 1.09375,17.5938 1.90625,17.5938 C2.09375,17.5938 2.5,17.5 2.70313,17.4063 C3.09375,17.2031 9.59375,14 15,7.90625 C18.7969,3.59375 20.2969,-1.29688 20.2969,-5.40625 C20.2969,-6.29688 20.2031,-7.09375 20.0938,-7.90625 M13.2031,-4 C13.2031,-2.5 12.7969,2.09375 10.2969,5.90625 C8.59375,8.5 5.20313,11.2031 3.29688,12.7031 L3.59375,-6.79688 C3.79688,-7.70313 5.29688,-10.5938 9.29688,-10.5938 C12.9063,-10.5938 13.2031,-7.20313 13.2031,-5.09375 L13.2031,-4 "/>
<path class="TimeSig" transform="matrix(0.992126,0,0,0.992126,490.711,411.238)" d="M3.59375,12.625 L20.7656,12.625 L20.7656,20.0781 L12.5469,20.0781 C11.7656,20.0781 11.125,20.7031 11.125,21.4844 L11.125,23.3906 C11.125,24.1719 11.7656,24.7969 12.5469,24.7969 L42.7969,24.7969 C43.5781,24.7969 44.2031,24.1719 44.2031,23.3906 L44.2031,21.4844 C44.2031,20.7031 43.5781,20.0781 42.7969,20.0781 L33.8594,20.0781 L33.8594,12.625 L42.7969,12.625 C43.5781,12.625 44.2031,12 44.2031,11.2188 L44.2031,9.3125 C44.2031,8.53125 43.5781,7.90625 42.7969,7.90625 L33.8594,7.90625 L33.8594,-8.0625 C33.8594,-8.59375 33.5469,-9.07813 33.0781,-9.3125 L31.8594,-9.92188 C31.3281,-10.1719 30.7031,-10.0781 30.2656,-9.6875 L21.2188,-1.375 C20.9375,-1.09375 20.7656,-0.734375 20.7656,-0.328125 L20.7656,7.90625 L9.25,7.90625 C9.25,7.90625 20.375,-4.125 32.2188,-19.8906 C33.0781,-21.0469 32.5781,-22.0938 32.3906,-22.2813 L30.2188,-24.4844 C29.9531,-24.75 29.5938,-24.9063 29.2188,-24.9063 C28.625,-24.9063 15.0625,-24.875 14.3438,-24.9063 C13.625,-24.9219 13.0938,-24.2969 13.0156,-23.6875 C13.0156,-23.6875 12.4844,-16.3281 9.875,-8.1875 C7.28125,-0.078125 4.34375,4.90625 1.6875,8.53125 C1.6875,8.53125 1.14063,9.51563 1.5,10.2656 C1.84375,11.0156 2.48438,12.0938 2.48438,12.0938 C2.48438,12.0938 2.73438,12.625 3.59375,12.625"/>
<path class="TimeSig" transform="matrix(0.992126,0,0,0.992126,490.711,460.581)" d="M3.59375,12.625 L20.7656,12.625 L20.7656,20.0781 L12.5469,20.0781 C11.7656,20.0781 11.125,20.7031 11.125,21.4844 L11.125,23.3906 C11.125,24.1719 11.7656,24.7969 12.5469,24.7969 L42.7969,24.7969 C43.5781,24.7969 44.2031,24.1719 44.2031,23.3906 L44.2031,21.4844 C44.2031,20.7031 43.5781,20.0781 42.7969,20.0781 L33.8594,20.0781 L33.8594,12.625 L42.7969,12.625 C43.5781,12.625 44.2031,12 44.2031,11.2188 L44.2031,9.3125 C44.2031,8.53125 43.5781,7.90625 42.7969,7.90625 L33.8594,7.90625 L33.8594,-8.0625 C33.8594,-8.59375 33.5469,-9.07813 33.0781,-9.3125 L31.8594,-9.92188 C31.3281,-10.1719 30.7031,-10.0781 30.2656,-9.6875 L21.2188,-1.375 C20.9375,-1.09375 20.7656,-0.734375 20.7656,-0.328125 L20.7656,7.90625 L9.25,7.90625 C9.25,7.90625 20.375,-4.125 32.2188,-19.8906 C33.0781,-21.0469 32.5781,-22.0938 32.3906,-22.2813 L30.2188,-24.4844 C29.9531,-24.75 29.5938,-24.9063 29.2188,-24.9063 C28.625,-24.9063 15.0625,-24.875 14.3438,-24.9063 C13.625,-24.9219 13.0938,-24.2969 13.0156,-23.6875 C13.0156,-23.6875 12.4844,-16.3281 9.875,-8.1875 C7.28125,-0.078125 4.34375,4.90625 1.6875,8.53125 C1.6875,8.53125 1.14063,9.51563 1.5,10.2656 C1.84375,11.0156 2.48438,12.0938 2.48438,12.0938 C2.48438,12.0938 2.73438,12.625 3.59375,12.625"/>
<path class="Rest" transform="matrix(0.992126,0,0,0.992126,654.653,349.098)" d="M27.0156,-1.59375 L27.2188,-1.59375 C35.2188,-4.70313 35.7188,-9.90625 35.7188,-11.7031 L35.7188,-12.2031 C35.7188,-13.0938 35.4219,-24.4063 18.2188,-24.4063 C1.01563,-24.4063 1.51563,-12.2031 1.51563,-12.2031 L1.625,-12.2031 L1.51563,-12 C1.51563,-8.40625 4.42188,-5.59375 8.01563,-5.59375 C11.625,-5.59375 14.4219,-8.40625 14.4219,-12 C14.4219,-14.9063 12.2188,-17.7031 9.42188,-18.2969 L9.71875,-18.5938 C11.125,-19.5938 13.0156,-20.0938 14.9219,-20.0938 C19.125,-20.0938 23.625,-17.5938 23.625,-12.2031 C23.625,-5.90625 18.9219,-5 17.7188,-4.79688 C16.5156,-4.59375 10.9219,-4.20313 9.71875,-4.20313 C8.51563,-4.20313 8.42188,-2.79688 8.42188,-2.79688 L8.42188,-0.796875 C8.42188,-0.796875 8.625,0.296875 9.71875,0.40625 C11.4219,0.5 13.7188,0.5 16.9219,1 C21.3125,1.59375 23.625,4.59375 23.625,11.5938 C23.625,18.2969 19.125,20.0938 14.9219,20.0938 C12.125,20.0938 9.51563,19.2969 8.42188,18.5 C11.7188,18.2969 14.4219,15.4063 14.4219,12.0938 C14.4219,8.5 11.625,5.59375 8.01563,5.59375 C4.42188,5.59375 1.51563,8.5 1.51563,12.0938 C1.51563,12.0938 1.01563,16.5938 5.42188,20.7031 C9.3125,24.2969 14.2188,24.4063 16.4219,24.4063 C26.0156,24.4063 36.4219,21.0938 36.4219,10.2031 C36.4219,2.90625 31.4219,-0.203125 27.0156,-1.59375"/>
<polyline class="Rest" fill="none" stroke="#000000" stroke-width="17.36" stroke-linecap="square" stroke-linejoin="bevel" points="573.004,435.909 770.955,435.909"/>
<polyline class="Rest" fill="none" stroke="#000000" stroke-width="4.96" stroke-linecap="square" stroke-linejoin="bevel" points="564.323,411.106 564.323,460.713"/>
<polyline class="Rest" fill="none" stroke="#000000" stroke-width="4.96" stroke-linecap="square" stroke-linejoin="bevel" points="779.637,411.106 779.637,460.713"/>
<path class="Rest" transform="matrix(0.992126,0,0,0.992126,883.688,411.106)" d="M31.1094,-0.5 L1.40625,-0.5 C0.59375,-0.5 0,0.09375 0,0.90625 L0,11.7031 C0,12.5 0.59375,13.0938 1.40625,13.0938 L31.1094,13.0938 C31.9063,13.0938 32.5,12.5 32.5,11.7031 L32.5,0.90625 C32.5,0.09375 31.9063,-0.5 31.1094,-0.5"/>
<path class="Rest" transform="matrix(0.992126,0,0,0.992126,1113.48,411.106)" d="M31.1094,-0.5 L1.40625,-0.5 C0.59375,-0.5 0,0.09375 0,0.90625 L0,11.7031 C0,12.5 0.59375,13.0938 1.40625,13.0938 L31.1094,13.0938 C31.9063,13.0938 32.5,12.5 32.5,11.7031 L32.5,0.90625 C32.5,0.09375 31.9063,-0.5 31.1094,-0.5"/>
<path class="Rest" transform="matrix(0.992126,0,0,0.992126,1384.86,349.098)" d="M27.0156,-1.59375 L27.2188,-1.59375 C35.2188,-4.70313 35.7188,-9.90625 35.7188,-11.7031 L35.7188,-12.2031 C35.7188,-13.0938 35.4219,-24.4063 18.2188,-24.4063 C1.01563,-24.4063 1.51563,-12.2031 1.51563,-12.2031 L1.625,-12.2031 L1.51563,-12 C1.51563,-8.40625 4.42188,-5.59375 8.01563,-5.59375 C11.625,-5.59375 14.4219,-8.40625 14.4219,-12 C14.4219,-14.9063 12.2188,-17.7031 9.42188,-18.2969 L9.71875,-18.5938 C11.125,-19.5938 13.0156,-20.0938 14.9219,-20.0938 C19.125,-20.0938 23.625,-17.5938 23.625,-12.2031 C23.625,-5.90625 18.9219,-5 17.7188,-4.79688 C16.5156,-4.59375 10.9219,-4.20313 9.71875,-4.20313 C8.51563,-4.20313 8.42188,-2.79688 8.42188,-2.79688 L8.42188,-0.796875 C8.42188,-0.796875 8.625,0.296875 9.71875,0.40625 C11.4219,0.5 13.7188,0.5 16.9219,1 C21.3125,1.59375 23.625,4.59375 23.625,11.5938 C23.625,18.2969 19.125,20.0938 14.9219,20.0938 C12.125,20.0938 9.51563,19.2969 8.42188,18.5 C11.7188,18.2969 14.4219,15.4063 14.4219,12.0938 C14.4219,8.5 11.625,5.59375 8.01563,5.59375 C4.42188,5.59375 1.51563,8.5 1.51563,12.0938 C1.51563,12.0938 1.01563,16.5938 5.42188,20.7031 C9.3125,24.2969 14.2188,24.4063 16.4219,24.4063 C26.0156,24.4063 36.4219,21.0938 36.4219,10.2031 C36.4219,2.90625 31.4219,-0.203125 27.0156,-1.59375"/>
<polyline class="Rest" fill="none" stroke="#000000" stroke-width="17.36" stroke-linecap="square" stroke-linejoin="bevel" points="1311.9,435.909 1492.49,435.909"/>
<polyline class="Rest" fill="none" stroke="#000000" stroke-width="4.96" stroke-linecap="square" stroke-linejoin="bevel" points="1303.21,411.106 1303.21,460.713"/>
<polyline class="Rest" fill="none" stroke="#000000" stroke-width="4.96" stroke-linecap="square" stroke-linejoin="bevel" points="1501.17,411.106 1501.17,460.713"/>
<path class="Rest" transform="matrix(0.992126,0,0,0.992126,1605.22,411.106)" d="M31.1094,-0.5 L1.40625,-0.5 C0.59375,-0.5 0,0.09375 0,0.90625 L0,11.7031 C0,12.5 0.59375,13.0938 1.40625,13.0938 L31.1094,13.0938 C31.9063,13.0938 32.5,12.5 32.5,11.7031 L32.5,0.90625 C32.5,0.09375 31.9063,-0.5 31.1094,-0.5"/>
<path class="Rest" transform="matrix(0.992126,0,0,0.992126,1825.96,411.106)" d="M31.1094,-0.5 L1.40625,-0.5 C0.59375,-0.5 0,0.09375 0,0.90625 L0,11.7031 C0,12.5 0.59375,13.0938 1.40625,13.0938 L31.1094,13.0938 C31.9063,13.0938 32.5,12.5 32.5,11.7031 L32.5,0.90625 C32.5,0.09375 31.9063,-0.5 31.1094,-0.5"/>
<path class="Rest" transform="matrix(0.992126,0,0,0.992126,2029.23,411.106)" d="M31.1094,-0.5 L1.40625,-0.5 C0.59375,-0.5 0,0.09375 0,0.90625 L0,11.7031 C0,12.5 0.59375,13.0938 1.40625,13.0938 L31.1094,13.0938 C31.9063,13.0938 32.5,12.5 32.5,11.7031 L32.5,0.90625 C32.5,0.09375 31.9063,-0.5 31.1094,-0.5"/>
<path class="Rest" transform="matrix(0.992126,0,0,0.992126,2298.65,349.098)" d="M34.2031,3.90625 C33.4063,6.09375 31.4063,13.2969 26.5,13.2969 C20,13.2969 18.5938,9.29688 13.2031,9.29688 C12.4063,9.29688 11.5938,9.40625 10.5938,9.59375 C10.5938,9.59375 13.0938,5.79688 23.7031,2.5 C34.2969,-0.796875 37,-6 37,-12 C37,-16.2031 35.1094,-24.5 20,-24.5 C4.90625,-24.5 2.09375,-15.4063 2.09375,-10.7969 C2.09375,-6.70313 5.5,-3.40625 9.59375,-3.40625 C13.7031,-3.40625 17,-6.70313 17,-10.7969 C17,-13.5938 15,-16.7031 12.4063,-17.7031 C12.0938,-17.7969 11.7031,-18.2969 11.7031,-18.7969 C11.7031,-19.4063 12.2031,-20.0938 14,-20.5938 C14.5,-20.7969 15.9063,-21.0938 17.4063,-21.0938 C18.7969,-21.0938 20.4063,-20.7969 21.5938,-20 C23.5,-18.7969 24.2031,-17 24.2031,-12.5 C24.2031,-0.796875 10.2969,1.70313 4.5,10.4063 C4.5,10.4063 1.5,14.5938 1.5,19.2969 C1.5,24 3.90625,24.2969 5.09375,24.2969 C6.70313,24.2969 8.40625,23 8.40625,21.2031 C8.40625,20.7969 8.29688,20.4063 8.09375,19.9063 C7.5,18.5 7.29688,17.4063 7.29688,16.5938 C7.29688,16.2969 7.29688,16 7.40625,15.7031 C7.5,15.0938 8.29688,14.0938 10.7031,14.0938 C13.5938,14.0938 14.7031,17.5 16.5,20.0938 C18.2969,22.7031 21.0938,24.2969 24.2969,24.2969 C27.5,24.2969 31.7969,22 33.6094,18.2969 C35.4063,14.5938 37.7031,7.09375 37.7031,4.40625 C37.7031,3.09375 36.9063,2.5 36,2.5 C35.2969,2.5 34.6094,2.90625 34.2031,3.90625"/>
<polyline class="Rest" fill="none" stroke="#000000" stroke-width="17.36" stroke-linecap="square" stroke-linejoin="bevel" points="2227.64,435.909 2405.62,435.909"/>
<polyline class="Rest" fill="none" stroke="#000000" stroke-width="4.96" stroke-linecap="square" stroke-linejoin="bevel" points="2218.96,411.106 2218.96,460.713"/>
<polyline class="Rest" fill="none" stroke="#000000" stroke-width="4.96" stroke-linecap="square" stroke-linejoin="bevel" points="2414.3,411.106 2414.3,460.713"/>
<path class="Rest" transform="matrix(0.992126,0,0,0.992126,2600.27,349.098)" d="M34.2031,3.90625 C33.4063,6.09375 31.4063,13.2969 26.5,13.2969 C20,13.2969 18.5938,9.29688 13.2031,9.29688 C12.4063,9.29688 11.5938,9.40625 10.5938,9.59375 C10.5938,9.59375 13.0938,5.79688 23.7031,2.5 C34.2969,-0.796875 37,-6 37,-12 C37,-16.2031 35.1094,-24.5 20,-24.5 C4.90625,-24.5 2.09375,-15.4063 2.09375,-10.7969 C2.09375,-6.70313 5.5,-3.40625 9.59375,-3.40625 C13.7031,-3.40625 17,-6.70313 17,-10.7969 C17,-13.5938 15,-16.7031 12.4063,-17.7031 C12.0938,-17.7969 11.7031,-18.2969 11.7031,-18.7969 C11.7031,-19.4063 12.2031,-20.0938 14,-20.5938 C14.5,-20.7969 15.9063,-21.0938 17.4063,-21.0938 C18.7969,-21.0938 20.4063,-20.7969 21.5938,-20 C23.5,-18.7969 24.2031,-17 24.2031,-12.5 C24.2031,-0.796875 10.2969,1.70313 4.5,10.4063 C4.5,10.4063 1.5,14.5938 1.5,19.2969 C1.5,24 3.90625,24.2969 5.09375,24.2969 C6.70313,24.2969 8.40625,23 8.40625,21.2031 C8.40625,20.7969 8.29688,20.4063 8.09375,19.9063 C7.5,18.5 7.29688,17.4063 7.29688,16.5938 C7.29688,16.2969 7.29688,16 7.40625,15.7031 C7.5,15.0938 8.29688,14.0938 10.7031,14.0938 C13.5938,14.0938 14.7031,17.5 16.5,20.0938 C18.2969,22.7031 21.0938,24.2969 24.2969,24.2969 C27.5,24.2969 31.7969,22 33.6094,18.2969 C35.4063,14.5938 37.7031,7.09375 37.7031,4.40625 C37.7031,3.09375 36.9063,2.5 36,2.5 C35.2969,2.5 34.6094,2.90625 34.2031,3.90625"/>
<polyline class="Rest" fill="none" stroke="#000000" stroke-width="17.36" stroke-linecap="square" stroke-linejoin="bevel" points="2529.25,435.909 2707.23,435.909"/>
<polyline class="Rest" fill="none" stroke="#000000" stroke-width="4.96" stroke-linecap="square" stroke-linejoin="bevel" points="2520.57,411.106 2520.57,460.713"/>
<polyline class="Rest" fill="none" stroke="#000000" stroke-width="4.96" stroke-linecap="square" stroke-linejoin="bevel" points="2715.91,411.106 2715.91,460.713"/>
<path class="Marker" d="M1244.54,331.336 C1244.54,332.32 1244.81,333.039 1245.79,333.039 L1255.21,333.039 C1256.03,346.382 1265.9,357.242 1277.38,358.132 L1277.38,368.101 C1277.38,369.086 1278.18,369.351 1279.17,369.351 C1280.06,369.351 1280.85,369.086 1280.85,368.101 L1280.85,358.132 C1292.34,357.242 1302.31,346.382 1303.01,333.039 L1311.56,333.039 C1312.54,333.039 1312.81,332.32 1312.81,331.336 C1312.81,330.445 1312.54,329.648 1311.56,329.648 L1303.01,329.648 C1302.31,316.304 1292.34,305.523 1280.85,304.554 L1280.85,295.382 C1280.85,294.492 1280.06,294.226 1279.17,294.226 C1278.18,294.226 1277.38,294.492 1277.38,295.382 L1277.38,304.554 C1265.9,305.523 1256.03,316.211 1255.21,329.648 L1245.79,329.648 C1244.81,329.648 1244.54,330.445 1244.54,331.336 M1291.26,329.648 L1280.85,329.648 L1280.85,308.554 C1290.82,309.445 1291.26,318.086 1291.26,329.648 M1280.85,333.039 L1291.26,333.039 C1291.09,343.976 1289.76,353.679 1280.85,354.757 L1280.85,333.039 M1267.32,329.648 C1267.32,318.086 1267.32,309.445 1277.38,308.554 L1277.38,329.648 L1267.32,329.648 M1277.38,333.039 L1277.38,354.757 C1268.21,353.679 1267.42,344.07 1267.32,333.039 L1277.38,333.039 "/>
<path class="Marker" d="M906.358,526.829 L873.64,526.829 L873.64,529.407 L874.624,529.407 C877.765,529.47 878.811,529.626 879.249,530.189 C879.577,530.673 879.577,530.782 879.577,533.595 L879.577,559.767 C879.577,562.579 879.577,562.689 879.249,563.173 C878.811,563.735 877.765,563.954 874.624,563.954 L873.64,563.954 L873.64,566.532 L892.499,566.532 L892.499,563.954 L890.686,563.954 C887.561,563.954 886.515,563.735 886.061,563.173 C885.733,562.689 885.733,562.517 885.733,559.767 L885.733,547.282 L886.843,547.282 C892.499,547.064 894.53,549.095 894.765,555.204 L897.343,555.204 L897.343,537.173 L894.765,537.173 C894.421,542.548 892.28,544.642 887.061,544.704 L885.733,544.704 L885.733,532.157 C885.686,529.845 886.233,529.47 889.202,529.407 L891.733,529.407 C900.749,529.36 902.999,531.392 904.718,540.845 L907.124,540.845 L906.358,526.829 M920.874,540.907 L910.53,541.517 L910.53,543.876 L913.343,543.876 C915.436,543.923 915.702,544.267 915.702,546.626 L915.702,559.767 L915.702,562.36 C915.655,563.173 915.593,563.501 915.374,563.782 C914.983,564.282 913.952,564.501 911.577,564.548 L911.202,564.548 L911.202,566.532 L925.436,566.532 L925.436,564.548 L925.061,564.548 C921.374,564.439 920.874,564.173 920.874,562.189 L920.874,559.767 L920.874,540.907 M918.296,527.22 C916.53,527.22 915.093,528.642 915.093,530.407 C915.093,532.157 916.53,533.595 918.233,533.595 C920.046,533.595 921.483,532.157 921.483,530.407 C921.483,528.642 920.046,527.22 918.296,527.22 M937.858,540.907 L928.343,541.517 L928.343,543.876 L930.327,543.876 C932.405,543.923 932.686,544.267 932.686,546.626 L932.686,559.767 L932.686,561.095 L932.686,562.36 C932.64,563.173 932.577,563.501 932.358,563.782 C931.968,564.282 930.921,564.501 928.561,564.548 L928.343,564.548 L928.343,566.532 L942.249,566.532 L942.249,564.548 L942.03,564.548 C938.358,564.439 937.858,564.173 937.858,562.189 L937.858,559.767 L937.858,554.048 C937.858,551.36 938.249,548.876 938.843,547.61 C939.999,545.142 942.483,543.439 944.843,543.439 C946.265,543.439 947.921,544.204 948.749,545.36 C949.577,546.564 949.952,548.22 949.952,550.86 L949.952,559.767 L949.952,562.36 C949.905,563.173 949.843,563.501 949.624,563.782 C949.233,564.282 948.14,564.501 945.78,564.548 L945.561,564.548 L945.561,566.532 L959.468,566.532 L959.468,564.548 L959.249,564.548 C955.624,564.439 955.124,564.173 955.124,562.189 L955.124,559.767 L955.124,551.142 C955.124,547.173 954.952,546.189 953.968,544.314 C952.593,541.673 949.843,540.079 946.546,540.079 C942.968,540.079 940.28,541.735 937.858,545.36 L937.858,540.907 M986.03,554.157 C986.077,545.907 981.405,540.079 974.702,540.079 C967.655,540.079 962.374,546.189 962.374,554.439 C962.374,562.189 967.374,567.36 974.811,567.36 C980.077,567.36 983.765,564.767 986.03,559.548 L984.093,558.501 C981.843,562.735 979.53,564.392 975.843,564.392 C973.046,564.392 971.015,563.235 969.577,560.751 C968.593,559.11 968.155,557.189 968.202,554.157 L986.03,554.157 M968.265,551.798 C968.265,550.095 968.483,548.876 969.03,547.345 C970.186,544.048 971.952,542.439 974.64,542.439 C977.936,542.439 980.14,545.36 980.14,549.814 C980.14,551.36 979.64,551.798 977.89,551.798 L968.265,551.798 "/>
<path class="Marker" d="M2108.68,309.9 C2108.68,310.884 2108.95,311.603 2109.93,311.603 L2119.36,311.603 C2120.17,324.947 2130.04,335.806 2141.53,336.697 L2141.53,346.666 C2141.53,347.65 2142.33,347.916 2143.31,347.916 C2144.2,347.916 2145,347.65 2145,346.666 L2145,336.697 C2156.48,335.806 2166.45,324.947 2167.15,311.603 L2175.7,311.603 C2176.68,311.603 2176.95,310.884 2176.95,309.9 C2176.95,309.009 2176.68,308.212 2175.7,308.212 L2167.15,308.212 C2166.45,294.869 2156.48,284.087 2145,283.119 L2145,273.947 C2145,273.056 2144.2,272.791 2143.31,272.791 C2142.33,272.791 2141.53,273.056 2141.53,273.947 L2141.53,283.119 C2130.04,284.087 2120.17,294.775 2119.36,308.212 L2109.93,308.212 C2108.95,308.212 2108.68,309.009 2108.68,309.9 M2155.4,308.212 L2145,308.212 L2145,287.119 C2154.97,288.009 2155.4,296.65 2155.4,308.212 M2145,311.603 L2155.4,311.603 C2155.23,322.541 2153.9,332.244 2145,333.322 L2145,311.603 M2131.47,308.212 C2131.47,296.65 2131.47,288.009 2141.53,287.119 L2141.53,308.212 L2131.47,308.212 M2141.53,311.603 L2141.53,333.322 C2132.36,332.244 2131.56,322.634 2131.47,311.603 L2141.53,311.603 "/>
<path class="Jump" d="M1628.84,336.697 L1647.32,336.697 C1652.21,336.697 1655.94,335.931 1658.87,334.275 C1664.41,331.15 1667.49,324.869 1667.49,316.619 C1667.49,309.041 1664.74,303.103 1659.69,299.791 C1656.66,297.869 1652.6,296.994 1646.32,296.994 L1628.84,296.994 L1628.84,299.572 L1629.88,299.572 C1632.96,299.634 1634.01,299.791 1634.44,300.353 C1634.77,300.837 1634.77,300.947 1634.77,303.759 L1634.77,329.931 C1634.77,332.744 1634.77,332.853 1634.44,333.337 C1634.01,333.9 1632.96,334.056 1629.88,334.119 L1628.84,334.119 L1628.84,336.697 M1644.07,334.119 C1641.26,334.119 1640.93,333.775 1640.93,331.087 L1640.93,302.65 C1640.93,299.962 1641.32,299.572 1644.07,299.572 L1646.93,299.572 C1656.34,299.572 1660.24,304.697 1660.24,316.837 C1660.24,329.166 1656.71,334.119 1647.8,334.119 L1644.07,334.119 M1677.55,330.587 C1675.63,330.587 1674.09,332.134 1674.09,334.009 C1674.09,335.931 1675.63,337.462 1677.51,337.462 C1679.43,337.462 1680.96,335.931 1680.96,334.009 C1680.96,332.134 1679.43,330.587 1677.55,330.587 M1720.44,296.603 L1718.35,296.603 L1716.15,299.853 C1712.15,296.931 1710.1,296.166 1706.3,296.166 C1701.09,296.166 1696.63,298.369 1692.94,302.759 C1689.43,306.947 1687.77,311.572 1687.77,317.228 C1687.77,329.103 1695.54,337.525 1706.37,337.525 C1715.16,337.525 1720.77,332.353 1722.04,323.119 L1719.46,322.681 C1717.98,330.869 1713.79,334.931 1707.02,334.931 C1698.88,334.931 1695.04,329.322 1695.04,317.447 C1695.04,311.181 1695.87,307.056 1697.73,303.759 C1699.44,300.681 1702.79,298.759 1706.37,298.759 C1710.21,298.759 1713.63,300.791 1715.71,304.306 C1716.76,306.119 1717.52,308.15 1718.85,312.494 L1721.27,312.494 L1720.44,296.603 M1732.26,330.587 C1730.34,330.587 1728.79,332.134 1728.79,334.009 C1728.79,335.931 1730.34,337.462 1732.21,337.462 C1734.13,337.462 1735.66,335.931 1735.66,334.009 C1735.66,332.134 1734.13,330.587 1732.26,330.587 M1780.15,318.994 C1780.15,315.525 1779.54,313.759 1777.94,312.447 C1776.13,310.962 1773.43,310.244 1769.91,310.244 C1763.69,310.244 1759.19,313.166 1759.19,317.181 C1759.19,319.212 1760.46,320.525 1762.38,320.525 C1764.15,320.525 1765.35,319.369 1765.35,317.728 C1765.35,317.009 1765.07,316.244 1764.52,315.462 C1764.19,315.087 1764.15,314.978 1764.15,314.697 C1764.15,313.603 1766.34,312.603 1768.98,312.603 C1770.74,312.603 1772.66,313.166 1773.54,313.978 C1774.59,314.869 1774.98,316.181 1774.98,318.666 L1774.98,320.806 C1769.26,321.791 1767.44,322.228 1764.74,323.275 C1759.96,325.041 1757.71,327.572 1757.71,331.087 C1757.71,335.041 1760.79,337.525 1765.68,337.525 C1769.48,337.525 1772.88,335.978 1775.26,333.181 C1776.13,335.978 1777.51,337.087 1780.09,337.087 C1782.57,337.087 1785.15,335.494 1785.15,333.9 C1785.15,333.509 1784.93,333.228 1784.6,333.228 C1784.38,333.228 1784.16,333.291 1783.77,333.447 C1783.01,333.775 1782.68,333.837 1782.24,333.837 C1780.69,333.837 1780.15,332.853 1780.15,330.041 L1780.15,318.994 M1774.98,325.697 C1774.98,328.994 1774.8,329.775 1773.88,331.197 C1772.51,333.228 1770.02,334.603 1767.6,334.603 C1765.07,334.603 1763.26,332.791 1763.26,330.322 C1763.26,328.009 1764.41,326.353 1766.84,325.197 C1768.54,324.431 1770.68,323.884 1774.98,323.166 L1774.98,325.697 M1797.09,296.166 L1786.91,296.775 L1786.91,299.134 L1789.6,299.134 C1791.65,299.197 1791.91,299.525 1791.91,301.884 L1791.91,329.931 L1791.91,332.525 C1791.87,333.337 1791.8,333.666 1791.59,333.947 C1791.19,334.447 1790.16,334.666 1787.79,334.712 L1787.41,334.712 L1787.41,336.697 L1801.65,336.697 L1801.65,334.712 L1801.26,334.712 C1797.59,334.603 1797.09,334.337 1797.09,332.353 L1797.09,329.931 L1797.09,296.166 M1853.6,296.603 L1851.51,296.603 L1849.3,299.853 C1845.3,296.931 1843.26,296.166 1839.46,296.166 C1834.24,296.166 1829.79,298.369 1826.1,302.759 C1822.59,306.947 1820.93,311.572 1820.93,317.228 C1820.93,329.103 1828.69,337.525 1839.52,337.525 C1848.32,337.525 1853.93,332.353 1855.19,323.119 L1852.62,322.681 C1851.13,330.869 1846.94,334.931 1840.18,334.931 C1832.04,334.931 1828.19,329.322 1828.19,317.447 C1828.19,311.181 1829.02,307.056 1830.88,303.759 C1832.6,300.681 1835.94,298.759 1839.52,298.759 C1843.37,298.759 1846.79,300.791 1848.87,304.306 C1849.91,306.119 1850.68,308.15 1852.01,312.494 L1854.43,312.494 L1853.6,296.603 M1871.8,310.244 C1865.04,310.244 1859.82,316.244 1859.82,323.931 C1859.82,331.478 1865.1,337.525 1871.69,337.525 C1878.29,337.525 1883.57,331.478 1883.57,323.884 C1883.57,316.353 1878.29,310.244 1871.8,310.244 M1871.8,312.603 C1875.65,312.603 1877.8,316.619 1877.8,323.884 C1877.8,331.197 1875.65,335.15 1871.69,335.15 C1867.73,335.15 1865.59,331.197 1865.59,323.931 C1865.59,316.462 1867.68,312.603 1871.8,312.603 M1906.34,337.087 L1915.91,336.697 L1915.91,334.337 L1914.91,334.337 C1911.79,334.166 1911.51,333.837 1911.51,330.322 L1911.51,296.166 L1900.73,296.775 L1900.73,299.134 L1903.98,299.134 C1906.07,299.197 1906.34,299.525 1906.34,301.884 L1906.34,314.322 C1904.3,311.509 1901.94,310.244 1898.76,310.244 C1892.54,310.244 1887.8,316.244 1887.8,324.166 C1887.8,331.962 1892.37,337.525 1898.76,337.525 C1902.21,337.525 1904.59,336.041 1906.34,332.744 L1906.34,337.087 M1899.85,313.212 C1902.1,313.212 1904.26,314.869 1905.24,317.4 C1905.96,319.041 1906.29,321.306 1906.29,323.994 C1906.29,330.431 1903.76,334.556 1899.8,334.556 C1895.9,334.556 1893.59,330.916 1893.59,324.822 C1893.59,321.525 1893.91,319.041 1894.63,317.228 C1895.57,314.759 1897.6,313.212 1899.85,313.212 M1941.65,318.994 C1941.65,315.525 1941.04,313.759 1939.44,312.447 C1937.63,310.962 1934.93,310.244 1931.41,310.244 C1925.19,310.244 1920.69,313.166 1920.69,317.181 C1920.69,319.212 1921.96,320.525 1923.88,320.525 C1925.65,320.525 1926.85,319.369 1926.85,317.728 C1926.85,317.009 1926.57,316.244 1926.02,315.462 C1925.69,315.087 1925.65,314.978 1925.65,314.697 C1925.65,313.603 1927.84,312.603 1930.48,312.603 C1932.24,312.603 1934.16,313.166 1935.04,313.978 C1936.09,314.869 1936.48,316.181 1936.48,318.666 L1936.48,320.806 C1930.76,321.791 1928.94,322.228 1926.24,323.275 C1921.46,325.041 1919.21,327.572 1919.21,331.087 C1919.21,335.041 1922.29,337.525 1927.18,337.525 C1930.98,337.525 1934.38,335.978 1936.76,333.181 C1937.63,335.978 1939.01,337.087 1941.59,337.087 C1944.07,337.087 1946.65,335.494 1946.65,333.9 C1946.65,333.509 1946.43,333.228 1946.1,333.228 C1945.88,333.228 1945.66,333.291 1945.27,333.447 C1944.51,333.775 1944.18,333.837 1943.74,333.837 C1942.19,333.837 1941.65,332.853 1941.65,330.041 L1941.65,318.994 M1936.48,325.697 C1936.48,328.994 1936.3,329.775 1935.38,331.197 C1934.01,333.228 1931.52,334.603 1929.1,334.603 C1926.57,334.603 1924.76,332.791 1924.76,330.322 C1924.76,328.009 1925.91,326.353 1928.34,325.197 C1930.04,324.431 1932.18,323.884 1936.48,323.166 L1936.48,325.697 "/>
<path class="Jump" d="M2460.38,311.39 L2478.87,311.39 C2483.76,311.39 2487.49,310.624 2490.42,308.968 C2495.96,305.843 2499.04,299.562 2499.04,291.312 C2499.04,283.734 2496.29,277.796 2491.24,274.484 C2488.21,272.562 2484.15,271.687 2477.87,271.687 L2460.38,271.687 L2460.38,274.265 L2461.43,274.265 C2464.51,274.327 2465.56,274.484 2465.99,275.046 C2466.32,275.53 2466.32,275.64 2466.32,278.452 L2466.32,304.624 C2466.32,307.437 2466.32,307.546 2465.99,308.03 C2465.56,308.593 2464.51,308.749 2461.43,308.812 L2460.38,308.812 L2460.38,311.39 M2475.62,308.812 C2472.81,308.812 2472.48,308.468 2472.48,305.78 L2472.48,277.343 C2472.48,274.655 2472.87,274.265 2475.62,274.265 L2478.48,274.265 C2487.88,274.265 2491.79,279.39 2491.79,291.53 C2491.79,303.859 2488.26,308.812 2479.35,308.812 L2475.62,308.812 M2509.1,305.28 C2507.18,305.28 2505.63,306.827 2505.63,308.702 C2505.63,310.624 2507.18,312.155 2509.06,312.155 C2510.98,312.155 2512.51,310.624 2512.51,308.702 C2512.51,306.827 2510.98,305.28 2509.1,305.28 M2551.99,271.296 L2549.9,271.296 L2547.7,274.546 C2543.7,271.624 2541.65,270.859 2537.85,270.859 C2532.63,270.859 2528.18,273.062 2524.49,277.452 C2520.98,281.64 2519.32,286.265 2519.32,291.921 C2519.32,303.796 2527.09,312.218 2537.92,312.218 C2546.71,312.218 2552.32,307.046 2553.59,297.812 L2551.01,297.374 C2549.52,305.562 2545.34,309.624 2538.57,309.624 C2530.43,309.624 2526.59,304.015 2526.59,292.14 C2526.59,285.874 2527.42,281.749 2529.27,278.452 C2530.99,275.374 2534.34,273.452 2537.92,273.452 C2541.76,273.452 2545.18,275.484 2547.26,278.999 C2548.31,280.812 2549.07,282.843 2550.4,287.187 L2552.82,287.187 L2551.99,271.296 M2563.81,305.28 C2561.88,305.28 2560.34,306.827 2560.34,308.702 C2560.34,310.624 2561.88,312.155 2563.76,312.155 C2565.68,312.155 2567.21,310.624 2567.21,308.702 C2567.21,306.827 2565.68,305.28 2563.81,305.28 M2611.7,293.687 C2611.7,290.218 2611.09,288.452 2609.49,287.14 C2607.68,285.655 2604.98,284.937 2601.46,284.937 C2595.24,284.937 2590.74,287.859 2590.74,291.874 C2590.74,293.905 2592.01,295.218 2593.93,295.218 C2595.7,295.218 2596.9,294.062 2596.9,292.421 C2596.9,291.702 2596.62,290.937 2596.07,290.155 C2595.74,289.78 2595.7,289.671 2595.7,289.39 C2595.7,288.296 2597.88,287.296 2600.52,287.296 C2602.29,287.296 2604.21,287.859 2605.09,288.671 C2606.13,289.562 2606.52,290.874 2606.52,293.359 L2606.52,295.499 C2600.81,296.484 2598.99,296.921 2596.29,297.968 C2591.51,299.734 2589.26,302.265 2589.26,305.78 C2589.26,309.734 2592.34,312.218 2597.23,312.218 C2601.02,312.218 2604.43,310.671 2606.81,307.874 C2607.68,310.671 2609.06,311.78 2611.63,311.78 C2614.12,311.78 2616.7,310.187 2616.7,308.593 C2616.7,308.202 2616.48,307.921 2616.15,307.921 C2615.93,307.921 2615.71,307.984 2615.32,308.14 C2614.56,308.468 2614.23,308.53 2613.79,308.53 C2612.24,308.53 2611.7,307.546 2611.7,304.734 L2611.7,293.687 M2606.52,300.39 C2606.52,303.687 2606.35,304.468 2605.43,305.89 C2604.06,307.921 2601.57,309.296 2599.15,309.296 C2596.62,309.296 2594.81,307.484 2594.81,305.015 C2594.81,302.702 2595.96,301.046 2598.38,299.89 C2600.09,299.124 2602.23,298.577 2606.52,297.859 L2606.52,300.39 M2628.63,270.859 L2618.46,271.468 L2618.46,273.827 L2621.15,273.827 C2623.2,273.89 2623.46,274.218 2623.46,276.577 L2623.46,304.624 L2623.46,307.218 C2623.42,308.03 2623.35,308.359 2623.13,308.64 C2622.74,309.14 2621.71,309.359 2619.34,309.405 L2618.96,309.405 L2618.96,311.39 L2633.2,311.39 L2633.2,309.405 L2632.81,309.405 C2629.13,309.296 2628.63,309.03 2628.63,307.046 L2628.63,304.624 L2628.63,270.859 M2684.32,271.687 L2651.6,271.687 L2651.6,274.265 L2652.59,274.265 C2655.73,274.327 2656.77,274.484 2657.21,275.046 C2657.54,275.53 2657.54,275.64 2657.54,278.452 L2657.54,304.624 C2657.54,307.437 2657.54,307.546 2657.21,308.03 C2656.77,308.593 2655.73,308.812 2652.59,308.812 L2651.6,308.812 L2651.6,311.39 L2670.46,311.39 L2670.46,308.812 L2668.65,308.812 C2665.52,308.812 2664.48,308.593 2664.02,308.03 C2663.7,307.546 2663.7,307.374 2663.7,304.624 L2663.7,292.14 L2664.81,292.14 C2670.46,291.921 2672.49,293.952 2672.73,300.062 L2675.31,300.062 L2675.31,282.03 L2672.73,282.03 C2672.38,287.405 2670.24,289.499 2665.02,289.562 L2663.7,289.562 L2663.7,277.015 C2663.65,274.702 2664.2,274.327 2667.17,274.265 L2669.7,274.265 C2678.71,274.218 2680.96,276.249 2682.68,285.702 L2685.09,285.702 L2684.32,271.687 M2698.84,285.765 L2688.49,286.374 L2688.49,288.734 L2691.31,288.734 C2693.4,288.78 2693.67,289.124 2693.67,291.484 L2693.67,304.624 L2693.67,307.218 C2693.62,308.03 2693.56,308.359 2693.34,308.64 C2692.95,309.14 2691.92,309.359 2689.54,309.405 L2689.17,309.405 L2689.17,311.39 L2703.4,311.39 L2703.4,309.405 L2703.02,309.405 C2699.34,309.296 2698.84,309.03 2698.84,307.046 L2698.84,304.624 L2698.84,285.765 M2696.26,272.077 C2694.49,272.077 2693.06,273.499 2693.06,275.265 C2693.06,277.015 2694.49,278.452 2696.2,278.452 C2698.01,278.452 2699.45,277.015 2699.45,275.265 C2699.45,273.499 2698.01,272.077 2696.26,272.077 M2715.82,285.765 L2706.31,286.374 L2706.31,288.734 L2708.29,288.734 C2710.37,288.78 2710.65,289.124 2710.65,291.484 L2710.65,304.624 L2710.65,305.952 L2710.65,307.218 C2710.6,308.03 2710.54,308.359 2710.32,308.64 C2709.93,309.14 2708.88,309.359 2706.52,309.405 L2706.31,309.405 L2706.31,311.39 L2720.21,311.39 L2720.21,309.405 L2719.99,309.405 C2716.32,309.296 2715.82,309.03 2715.82,307.046 L2715.82,304.624 L2715.82,298.905 C2715.82,296.218 2716.21,293.734 2716.81,292.468 C2717.96,289.999 2720.45,288.296 2722.81,288.296 C2724.23,288.296 2725.88,289.062 2726.71,290.218 C2727.54,291.421 2727.92,293.077 2727.92,295.718 L2727.92,304.624 L2727.92,307.218 C2727.87,308.03 2727.81,308.359 2727.59,308.64 C2727.2,309.14 2726.1,309.359 2723.74,309.405 L2723.52,309.405 L2723.52,311.39 L2737.43,311.39 L2737.43,309.405 L2737.21,309.405 C2733.59,309.296 2733.09,309.03 2733.09,307.046 L2733.09,304.624 L2733.09,295.999 C2733.09,292.03 2732.92,291.046 2731.93,289.171 C2730.56,286.53 2727.81,284.937 2724.51,284.937 C2720.93,284.937 2718.24,286.593 2715.82,290.218 L2715.82,285.765 M2763.99,299.015 C2764.04,290.765 2759.37,284.937 2752.67,284.937 C2745.62,284.937 2740.34,291.046 2740.34,299.296 C2740.34,307.046 2745.34,312.218 2752.77,312.218 C2758.04,312.218 2761.73,309.624 2763.99,304.405 L2762.06,303.359 C2759.81,307.593 2757.49,309.249 2753.81,309.249 C2751.01,309.249 2748.98,308.093 2747.54,305.609 C2746.56,303.968 2746.12,302.046 2746.17,299.015 L2763.99,299.015 M2746.23,296.655 C2746.23,294.952 2746.45,293.734 2746.99,292.202 C2748.15,288.905 2749.92,287.296 2752.6,287.296 C2755.9,287.296 2758.1,290.218 2758.1,294.671 C2758.1,296.218 2757.6,296.655 2755.85,296.655 L2746.23,296.655 "/>
<path class="Tempo" d="M517.196,247.546 L513.899,247.546 L513.899,292.515 C512.758,291.843 511.383,291.421 509.805,291.249 C509.368,291.202 508.915,291.187 508.461,291.187 C505.743,291.187 502.805,291.968 500.071,293.452 C496.883,295.171 494.321,297.64 492.899,300.374 C491.446,303.14 491.305,305.843 492.477,308.015 C493.852,310.593 496.868,311.921 500.415,311.921 C503.055,311.921 506.008,311.187 508.821,309.671 C513.961,306.89 517.18,302.296 517.196,298.296 L517.196,247.546 "/>
<path class="Tempo" d="M539.446,299.874 L569.68,299.874 L569.68,292.968 L539.446,292.968 L539.446,299.874 M539.446,287.515 L569.68,287.515 L569.68,280.609 L539.446,280.609 L539.446,287.515 M612.227,262.905 L610.118,262.905 C606.336,265.734 602.086,266.937 594.946,267.046 L594.946,270.405 L597.461,270.405 C602.805,270.405 602.868,270.53 602.805,275.452 L602.805,296.749 C602.805,300.468 602.805,300.655 602.383,301.249 C601.836,301.905 600.633,302.155 597.399,302.155 L595.477,302.155 L595.477,305.39 L619.415,305.39 L619.415,302.155 L617.493,302.155 C614.321,302.155 613.18,301.905 612.633,301.249 C612.227,300.655 612.227,300.405 612.227,296.749 L612.227,262.905 M641.618,262.905 C632.618,262.905 626.024,272.093 626.024,284.577 C626.024,297.046 632.618,306.234 641.618,306.234 C650.43,306.234 657.165,297.046 657.165,284.874 C657.165,277.796 655.54,272.577 651.993,268.124 C649.18,264.718 645.633,262.905 641.618,262.905 M641.555,266.03 C643.352,266.03 644.805,267.109 645.461,269.03 C646.243,271.015 646.711,277.312 646.711,284.749 C646.711,290.937 646.243,297.405 645.696,299.452 C645.04,301.843 643.602,303.109 641.555,303.109 C639.696,303.109 638.321,302.093 637.602,300.109 C636.821,298.124 636.336,291.765 636.336,284.577 C636.336,278.265 636.821,271.734 637.352,269.687 C638.024,267.296 639.461,266.03 641.555,266.03 M676.055,262.905 C667.055,262.905 660.461,272.093 660.461,284.577 C660.461,297.046 667.055,306.234 676.055,306.234 C684.868,306.234 691.602,297.046 691.602,284.874 C691.602,277.796 689.977,272.577 686.43,268.124 C683.618,264.718 680.071,262.905 676.055,262.905 M675.993,266.03 C677.79,266.03 679.243,267.109 679.899,269.03 C680.68,271.015 681.149,277.312 681.149,284.749 C681.149,290.937 680.68,297.405 680.133,299.452 C679.477,301.843 678.04,303.109 675.993,303.109 C674.133,303.109 672.758,302.093 672.04,300.109 C671.258,298.124 670.774,291.765 670.774,284.577 C670.774,278.265 671.258,271.734 671.79,269.687 C672.461,267.296 673.899,266.03 675.993,266.03"/>
<path class="VoltaSegment" d="M845.153,319.834 L843.231,319.834 C839.762,322.428 835.856,323.522 829.309,323.631 L829.309,326.709 L831.622,326.709 C836.512,326.709 836.575,326.819 836.512,331.334 L836.512,350.85 C836.512,354.256 836.512,354.428 836.137,354.975 C835.637,355.584 834.528,355.803 831.559,355.803 L829.809,355.803 L829.809,358.772 L851.747,358.772 L851.747,355.803 L849.981,355.803 C847.075,355.803 846.028,355.584 845.528,354.975 C845.153,354.428 845.153,354.209 845.153,350.85 L845.153,319.834 M863.95,349.256 C861.091,349.256 858.778,351.569 858.778,354.428 C858.778,357.225 861.091,359.6 863.903,359.6 C866.809,359.6 869.122,357.287 869.122,354.428 C869.122,351.569 866.809,349.256 863.95,349.256"/>
<polyline class="VoltaSegment" fill="none" stroke="#000000" stroke-width="2.73" stroke-linecap="square" stroke-linejoin="bevel" points="813.865,358.772 813.865,304.205"/>
<polyline class="VoltaSegment" fill="none" stroke="#000000" stroke-width="2.73" stroke-linecap="square" stroke-linejoin="bevel" points="813.865,304.205 1015.66,304.205"/>
<polyline class="VoltaSegment" fill="none" stroke="#000000" stroke-width="2.73" stroke-linecap="square" stroke-linejoin="bevel" points="1015.66,304.205 1015.66,358.772"/>
<path class="VoltaSegment" d="M1566.68,229.592 L1564.76,229.592 C1561.29,232.186 1557.39,233.28 1550.84,233.389 L1550.84,236.467 L1553.15,236.467 C1558.04,236.467 1558.1,236.576 1558.04,241.092 L1558.04,260.608 C1558.04,264.014 1558.04,264.186 1557.67,264.733 C1557.17,265.342 1556.06,265.561 1553.09,265.561 L1551.34,265.561 L1551.34,268.53 L1573.28,268.53 L1573.28,265.561 L1571.51,265.561 C1568.6,265.561 1567.56,265.342 1567.06,264.733 C1566.68,264.186 1566.68,263.967 1566.68,260.608 L1566.68,229.592 M1585.48,259.014 C1582.62,259.014 1580.31,261.326 1580.31,264.186 C1580.31,266.983 1582.62,269.358 1585.43,269.358 C1588.34,269.358 1590.65,267.045 1590.65,264.186 C1590.65,261.326 1588.34,259.014 1585.48,259.014"/>
<polyline class="VoltaSegment" fill="none" stroke="#000000" stroke-width="2.73" stroke-linecap="square" stroke-linejoin="bevel" points="1535.39,268.53 1535.39,213.963"/>
<polyline class="VoltaSegment" fill="none" stroke="#000000" stroke-width="2.73" stroke-linecap="square" stroke-linejoin="bevel" points="1535.39,213.963 1737.19,213.963"/>
<polyline class="VoltaSegment" fill="none" stroke="#000000" stroke-width="2.73" stroke-linecap="square" stroke-linejoin="bevel" points="1737.19,213.963 1737.19,268.53"/>
</svg>
