<?xml version="1.0" encoding="UTF-8" standalone="no"?>
<svg width="4208.47px" height="2409.45px" viewBox="0 0 4208.47 2409.45"
 xmlns="http://www.w3.org/2000/svg" xmlns:xlink="http://www.w3.org/1999/xlink" version="1.2" baseProfile="tiny">
<title>FLAUTA</title>
<desc>Generated by MuseScore 3.6.2</desc>
<polyline class="StaffLines" fill="none" stroke="#000000" stroke-width="5.22" stroke-linejoin="bevel" points="70.866,403.228 4137.61,403.228"/>
<polyline class="StaffLines" fill="none" stroke="#000000" stroke-width="5.22" stroke-linejoin="bevel" points="70.866,450.709 4137.61,450.709"/>
<polyline class="StaffLines" fill="none" stroke="#000000" stroke-width="5.22" stroke-linejoin="bevel" points="70.866,498.189 4137.61,498.189"/>
<polyline class="StaffLines" fill="none" stroke="#000000" stroke-width="5.22" stroke-linejoin="bevel" points="70.866,545.669 4137.61,545.669"/>
<polyline class="StaffLines" fill="none" stroke="#000000" stroke-width="5.22" stroke-linejoin="bevel" points="70.866,593.149 4137.61,593.149"/>
<polyline class="StaffLines" fill="none" stroke="#000000" stroke-width="5.22" stroke-linejoin="bevel" points="70.866,1271.94 4137.61,1271.94"/>
<polyline class="StaffLines" fill="none" stroke="#000000" stroke-width="5.22" stroke-linejoin="bevel" points="70.866,1319.42 4137.61,1319.42"/>
<polyline class="StaffLines" fill="none" stroke="#000000" stroke-width="5.22" stroke-linejoin="bevel" points="70.866,1366.9 4137.61,1366.9"/>
<polyline class="StaffLines" fill="none" stroke="#000000" stroke-width="5.22" stroke-linejoin="bevel" points="70.866,1414.38 4137.61,1414.38"/>
<polyline class="StaffLines" fill="none" stroke="#000000" stroke-width="5.22" stroke-linejoin="bevel" points="70.866,1461.86 4137.61,1461.86"/>
<polyline class="StaffLines" fill="none" stroke="#000000" stroke-width="5.22" stroke-linejoin="bevel" points="70.866,2140.65 4137.61,2140.65"/>
<polyline class="StaffLines" fill="none" stroke="#000000" stroke-width="5.22" stroke-linejoin="bevel" points="70.866,2188.13 4137.61,2188.13"/>
<polyline class="StaffLines" fill="none" stroke="#000000" stroke-width="5.22" stroke-linejoin="bevel" points="70.866,2235.61 4137.61,2235.61"/>
<polyline class="StaffLines" fill="none" stroke="#000000" stroke-width="5.22" stroke-linejoin="bevel" points="70.866,2283.09 4137.61,2283.09"/>
<polyline class="StaffLines" fill="none" stroke="#000000" stroke-width="5.22" stroke-linejoin="bevel" points="70.866,2330.57 4137.61,2330.57"/>
<path class="MeasureNumber" d="M97.9398,1138.26 C95.0247,1138.59 91.4497,1138.81 88.3697,1138.81 C86.8298,1138.81 85.0697,1138.75 83.0897,1138.64 C81.2747,1138.53 79.4597,1138.42 77.5897,1138.31 L76.2147,1138.26 L70.8798,1149.86 L72.9147,1150.52 L74.2348,1148.32 C76.8197,1144.03 78.0298,1143.43 83.6397,1143.48 L92.9348,1143.48 L86.9398,1152.06 C79.8997,1161.96 79.8997,1161.96 77.2048,1166.36 C74.7848,1170.27 73.7947,1172.69 73.7947,1174.67 C73.7947,1176.59 75.0048,1177.8 76.9297,1177.8 C78.9647,1177.8 80.0097,1176.81 80.7248,1174.23 C83.4748,1163.89 85.1248,1160.31 92.7698,1147.94 L97.9398,1139.91 L97.9398,1138.26 "/>
<path class="MeasureNumber" d="M93.361,2006.75 L91.766,2006.75 C88.741,2009 82.911,2010.93 78.951,2010.93 L78.291,2013.35 L82.086,2013.35 C85.441,2013.35 85.826,2013.46 85.826,2014.45 C85.826,2014.94 85.826,2014.94 85.276,2016.92 L79.391,2038.92 C78.676,2041.67 78.621,2041.84 78.126,2042.33 C77.576,2042.88 76.421,2043.05 73.506,2043.1 L71.141,2043.1 L70.866,2045.69 L91.216,2045.69 L91.546,2043.1 L88.576,2043.1 C85.001,2043.1 84.231,2042.83 84.231,2041.62 C84.231,2041.23 84.451,2039.97 84.726,2038.92 L93.361,2006.75 M126.854,2006.75 L123.884,2006.75 L98.2541,2033.26 L98.2541,2035.57 L113.764,2035.57 L112.884,2038.92 C112.169,2041.67 112.114,2041.84 111.619,2042.33 C111.069,2042.88 109.914,2043.1 106.999,2043.1 L106.009,2043.1 L105.679,2045.69 L122.784,2045.69 L123.059,2043.1 L122.069,2043.1 C118.439,2043.1 117.669,2042.83 117.669,2041.62 C117.669,2041.18 117.779,2040.63 118.219,2038.92 L119.154,2035.57 L125.424,2035.57 L126.249,2032.6 L119.924,2032.6 L126.854,2006.75 M114.589,2032.6 L102.269,2032.6 L119.264,2015.11 L114.589,2032.6 "/>
<path class="TieSegment" stroke="#000000" stroke-width="3.32" stroke-linecap="round" stroke-linejoin="round" fill-rule="evenodd" d="M753.134,557.539 C765.479,569.884 802.514,569.884 814.859,557.539 C802.514,583.179 765.479,583.179 753.134,557.539"/>
<path class="TieSegment" stroke="#000000" stroke-width="3.32" stroke-linecap="round" stroke-linejoin="round" fill-rule="evenodd" d="M953.169,550.18 C967.626,562.525 1010.99,562.525 1025.45,550.18 C1010.99,575.819 967.626,575.819 953.169,550.18"/>
<path class="TieSegment" stroke="#000000" stroke-width="3.32" stroke-linecap="round" stroke-linejoin="round" fill-rule="evenodd" d="M1503.71,557.539 C1516.05,569.884 1553.09,569.884 1565.43,557.539 C1553.09,583.179 1516.05,583.179 1503.71,557.539"/>
<path class="TieSegment" stroke="#000000" stroke-width="3.32" stroke-linecap="round" stroke-linejoin="round" fill-rule="evenodd" d="M1703.74,550.18 C1718.2,562.525 1761.57,562.525 1776.03,550.18 C1761.57,575.819 1718.2,575.819 1703.74,550.18"/>
<path class="TieSegment" stroke="#000000" stroke-width="3.32" stroke-linecap="round" stroke-linejoin="round" fill-rule="evenodd" d="M3639.69,557.539 C3652.04,569.884 3689.07,569.884 3701.42,557.539 C3689.07,583.179 3652.04,583.179 3639.69,557.539"/>
<path class="TieSegment" stroke="#000000" stroke-width="3.32" stroke-linecap="round" stroke-linejoin="round" fill-rule="evenodd" d="M3839.73,550.18 C3854.18,562.525 3897.55,562.525 3912.01,550.18 C3897.55,575.819 3854.18,575.819 3839.73,550.18"/>
<path class="TieSegment" stroke="#000000" stroke-width="3.32" stroke-linecap="round" stroke-linejoin="round" fill-rule="evenodd" d="M668.111,1426.25 C680.456,1438.59 717.491,1438.59 729.836,1426.25 C717.491,1451.89 680.456,1451.89 668.111,1426.25"/>
<path class="TieSegment" stroke="#000000" stroke-width="3.32" stroke-linecap="round" stroke-linejoin="round" fill-rule="evenodd" d="M857.326,1418.89 C869.671,1431.24 906.706,1431.24 919.051,1418.89 C906.706,1444.53 869.671,1444.53 857.326,1418.89"/>
<polyline class="BarLine" stroke="#000000" stroke-width="8.55" stroke-linejoin="bevel" points="1246.78,400.617 1246.78,595.761"/>
<polyline class="BarLine" stroke="#000000" stroke-width="8.55" stroke-linejoin="bevel" points="1997.35,400.617 1997.35,595.761"/>
<polyline class="BarLine" stroke="#000000" stroke-width="8.55" stroke-linejoin="bevel" points="2742.72,400.617 2742.72,595.761"/>
<polyline class="BarLine" stroke="#000000" stroke-width="8.55" stroke-linejoin="bevel" points="3063.65,400.617 3063.65,595.761"/>
<polyline class="BarLine" stroke="#000000" stroke-width="8.55" stroke-linejoin="bevel" points="3382.76,400.617 3382.76,595.761"/>
<polyline class="BarLine" stroke="#000000" stroke-width="8.55" stroke-linejoin="bevel" points="4133.33,400.617 4133.33,595.761"/>
<polyline class="BarLine" stroke="#000000" stroke-width="8.55" stroke-linejoin="bevel" points="1121.44,1269.33 1121.44,1464.47"/>
<polyline class="BarLine" stroke="#000000" stroke-width="8.55" stroke-linejoin="bevel" points="1813.31,1269.33 1813.31,1464.47"/>
<polyline class="BarLine" stroke="#000000" stroke-width="8.55" stroke-linejoin="bevel" points="2079.81,1269.33 2079.81,1464.47"/>
<polyline class="BarLine" stroke="#000000" stroke-width="8.55" stroke-linejoin="bevel" points="2345.41,1269.33 2345.41,1464.47"/>
<polyline class="BarLine" stroke="#000000" stroke-width="8.55" stroke-linejoin="bevel" points="2941.39,1269.33 2941.39,1464.47"/>
<polyline class="BarLine" stroke="#000000" stroke-width="8.55" stroke-linejoin="bevel" points="3537.36,1269.33 3537.36,1464.47"/>
<polyline class="BarLine" stroke="#000000" stroke-width="8.55" stroke-linejoin="bevel" points="4133.33,1269.33 4133.33,1464.47"/>
<polyline class="BarLine" stroke="#000000" stroke-width="8.55" stroke-linejoin="bevel" points="753.009,2138.04 753.009,2333.18"/>
<polyline class="BarLine" stroke="#000000" stroke-width="8.55" stroke-linejoin="bevel" points="1020.87,2138.04 1020.87,2333.18"/>
<polyline class="BarLine" stroke="#000000" stroke-width="8.55" stroke-linejoin="bevel" points="1287.81,2138.04 1287.81,2333.18"/>
<polyline class="BarLine" stroke="#000000" stroke-width="8.55" stroke-linejoin="bevel" points="1976.28,2138.04 1976.28,2333.18"/>
<polyline class="BarLine" stroke="#000000" stroke-width="8.55" stroke-linejoin="bevel" points="2573.6,2138.04 2573.6,2333.18"/>
<polyline class="BarLine" stroke="#000000" stroke-width="8.55" stroke-linejoin="bevel" points="3262.07,2138.04 3262.07,2333.18"/>
<polyline class="BarLine" stroke="#000000" stroke-width="8.55" stroke-linejoin="bevel" points="3590.71,2138.04 3590.71,2333.18"/>
<polyline class="BarLine" stroke="#000000" stroke-width="8.55" stroke-linejoin="bevel" points="3858.57,2138.04 3858.57,2333.18"/>
<polyline class="BarLine" stroke="#000000" stroke-width="8.55" stroke-linejoin="bevel" points="4091.31,2138.04 4091.31,2333.18"/>
<polyline class="BarLine" stroke="#000000" stroke-width="26.11" stroke-linejoin="bevel" points="4124.55,2138.04 4124.55,2333.18"/>
<polyline class="Stem" stroke="#000000" stroke-width="5.22" stroke-linejoin="bevel" points="626.044,563.332 626.044,403.228"/>
<polyline class="Stem" stroke="#000000" stroke-width="5.22" stroke-linejoin="bevel" points="772.121,515.852 772.121,367.618"/>
<polyline class="Stem" stroke="#000000" stroke-width="5.22" stroke-linejoin="bevel" points="852.359,515.852 852.359,367.618"/>
<polyline class="Stem" stroke="#000000" stroke-width="5.22" stroke-linejoin="bevel" points="972.156,492.111 972.156,355.748"/>
<polyline class="Stem" stroke="#000000" stroke-width="5.22" stroke-linejoin="bevel" points="1035.47,504.57 1035.47,646.565"/>
<polyline class="Stem" stroke="#000000" stroke-width="5.22" stroke-linejoin="bevel" points="1376.62,563.332 1376.62,403.228"/>
<polyline class="Stem" stroke="#000000" stroke-width="5.22" stroke-linejoin="bevel" points="1522.7,515.852 1522.7,367.618"/>
<polyline class="Stem" stroke="#000000" stroke-width="5.22" stroke-linejoin="bevel" points="1602.93,515.852 1602.93,367.618"/>
<polyline class="Stem" stroke="#000000" stroke-width="5.22" stroke-linejoin="bevel" points="1722.73,492.111 1722.73,355.748"/>
<polyline class="Stem" stroke="#000000" stroke-width="5.22" stroke-linejoin="bevel" points="1786.04,504.57 1786.04,646.565"/>
<polyline class="Stem" stroke="#000000" stroke-width="5.22" stroke-linejoin="bevel" points="2070.71,457.09 2070.71,593.149"/>
<polyline class="Stem" stroke="#000000" stroke-width="5.22" stroke-linejoin="bevel" points="2163.81,457.09 2163.81,608.976"/>
<polyline class="Stem" stroke="#000000" stroke-width="5.22" stroke-linejoin="bevel" points="2256.92,480.83 2256.92,624.803"/>
<polyline class="Stem" stroke="#000000" stroke-width="5.22" stroke-linejoin="bevel" points="2350.02,504.57 2350.02,640.63"/>
<polyline class="Stem" stroke="#000000" stroke-width="5.22" stroke-linejoin="bevel" points="2499.61,515.852 2499.61,367.618"/>
<polyline class="Stem" stroke="#000000" stroke-width="5.22" stroke-linejoin="bevel" points="2592.09,504.57 2592.09,646.565"/>
<polyline class="Stem" stroke="#000000" stroke-width="5.22" stroke-linejoin="bevel" points="3512.6,563.332 3512.6,403.228"/>
<polyline class="Stem" stroke="#000000" stroke-width="5.22" stroke-linejoin="bevel" points="3658.68,515.852 3658.68,367.618"/>
<polyline class="Stem" stroke="#000000" stroke-width="5.22" stroke-linejoin="bevel" points="3738.92,515.852 3738.92,367.618"/>
<polyline class="Stem" stroke="#000000" stroke-width="5.22" stroke-linejoin="bevel" points="3858.71,492.111 3858.71,355.748"/>
<polyline class="Stem" stroke="#000000" stroke-width="5.22" stroke-linejoin="bevel" points="3922.02,504.57 3922.02,646.565"/>
<polyline class="Stem" stroke="#000000" stroke-width="5.22" stroke-linejoin="bevel" points="554.216,1432.04 554.216,1271.94"/>
<polyline class="Stem" stroke="#000000" stroke-width="5.22" stroke-linejoin="bevel" points="687.098,1384.56 687.098,1236.33"/>
<polyline class="Stem" stroke="#000000" stroke-width="5.22" stroke-linejoin="bevel" points="767.336,1384.56 767.336,1236.33"/>
<polyline class="Stem" stroke="#000000" stroke-width="5.22" stroke-linejoin="bevel" points="876.313,1360.82 876.313,1224.46"/>
<polyline class="Stem" stroke="#000000" stroke-width="5.22" stroke-linejoin="bevel" points="929.067,1373.28 929.067,1515.28"/>
<polyline class="Stem" stroke="#000000" stroke-width="5.22" stroke-linejoin="bevel" points="1194.8,1325.8 1194.8,1485.6"/>
<polyline class="Stem" stroke="#000000" stroke-width="5.22" stroke-linejoin="bevel" points="1280.47,1325.8 1280.47,1489.56"/>
<polyline class="Stem" stroke="#000000" stroke-width="5.22" stroke-linejoin="bevel" points="1366.14,1349.54 1366.14,1493.51"/>
<polyline class="Stem" stroke="#000000" stroke-width="5.22" stroke-linejoin="bevel" points="1451.82,1349.54 1451.82,1497.47"/>
<polyline class="Stem" stroke="#000000" stroke-width="5.22" stroke-linejoin="bevel" points="1537.49,1373.28 1537.49,1515.28"/>
<polyline class="Stem" stroke="#000000" stroke-width="5.22" stroke-linejoin="bevel" points="1674.57,1349.54 1674.57,1497.47"/>
<polyline class="Stem" stroke="#000000" stroke-width="5.22" stroke-linejoin="bevel" points="2498.81,1325.8 2498.81,1485.6"/>
<polyline class="Stem" stroke="#000000" stroke-width="5.22" stroke-linejoin="bevel" points="2583.6,1349.54 2583.6,1497.47"/>
<polyline class="Stem" stroke="#000000" stroke-width="5.22" stroke-linejoin="bevel" points="2668.39,1373.28 2668.39,1509.34"/>
<polyline class="Stem" stroke="#000000" stroke-width="5.22" stroke-linejoin="bevel" points="2809.67,1384.56 2809.67,1236.33"/>
<polyline class="Stem" stroke="#000000" stroke-width="5.22" stroke-linejoin="bevel" points="3094.79,1325.8 3094.79,1485.6"/>
<polyline class="Stem" stroke="#000000" stroke-width="5.22" stroke-linejoin="bevel" points="3179.58,1349.54 3179.58,1497.47"/>
<polyline class="Stem" stroke="#000000" stroke-width="5.22" stroke-linejoin="bevel" points="3264.37,1373.28 3264.37,1509.34"/>
<polyline class="Stem" stroke="#000000" stroke-width="5.22" stroke-linejoin="bevel" points="3405.64,1384.56 3405.64,1236.33"/>
<polyline class="Stem" stroke="#000000" stroke-width="5.22" stroke-linejoin="bevel" points="3690.76,1325.8 3690.76,1485.6"/>
<polyline class="Stem" stroke="#000000" stroke-width="5.22" stroke-linejoin="bevel" points="3775.55,1349.54 3775.55,1497.47"/>
<polyline class="Stem" stroke="#000000" stroke-width="5.22" stroke-linejoin="bevel" points="3860.34,1373.28 3860.34,1509.34"/>
<polyline class="Stem" stroke="#000000" stroke-width="5.22" stroke-linejoin="bevel" points="4001.62,1384.56 4001.62,1236.33"/>
<polyline class="Stem" stroke="#000000" stroke-width="5.22" stroke-linejoin="bevel" points="497.729,2194.51 497.729,2348.38"/>
<polyline class="Stem" stroke="#000000" stroke-width="5.22" stroke-linejoin="bevel" points="618.418,2170.77 618.418,2330.57"/>
<polyline class="Stem" stroke="#000000" stroke-width="5.22" stroke-linejoin="bevel" points="1442.28,2194.51 1442.28,2354.31"/>
<polyline class="Stem" stroke="#000000" stroke-width="5.22" stroke-linejoin="bevel" points="1528.14,2218.25 1528.14,2366.18"/>
<polyline class="Stem" stroke="#000000" stroke-width="5.22" stroke-linejoin="bevel" points="1614,2241.99 1614,2378.05"/>
<polyline class="Stem" stroke="#000000" stroke-width="5.22" stroke-linejoin="bevel" points="1756.35,2253.27 1756.35,2105.04"/>
<polyline class="Stem" stroke="#000000" stroke-width="5.22" stroke-linejoin="bevel" points="1893.73,2300.75 1893.73,2140.65"/>
<polyline class="Stem" stroke="#000000" stroke-width="5.22" stroke-linejoin="bevel" points="2129.9,2194.51 2129.9,2354.31"/>
<polyline class="Stem" stroke="#000000" stroke-width="5.22" stroke-linejoin="bevel" points="2214.91,2218.25 2214.91,2366.18"/>
<polyline class="Stem" stroke="#000000" stroke-width="5.22" stroke-linejoin="bevel" points="2299.92,2241.99 2299.92,2378.05"/>
<polyline class="Stem" stroke="#000000" stroke-width="5.22" stroke-linejoin="bevel" points="2441.41,2253.27 2441.41,2105.04"/>
<polyline class="Stem" stroke="#000000" stroke-width="5.22" stroke-linejoin="bevel" points="2728.07,2194.51 2728.07,2354.31"/>
<polyline class="Stem" stroke="#000000" stroke-width="5.22" stroke-linejoin="bevel" points="2813.93,2218.25 2813.93,2366.18"/>
<polyline class="Stem" stroke="#000000" stroke-width="5.22" stroke-linejoin="bevel" points="2899.79,2241.99 2899.79,2378.05"/>
<polyline class="Stem" stroke="#000000" stroke-width="5.22" stroke-linejoin="bevel" points="3042.14,2253.27 3042.14,2105.04"/>
<polyline class="Stem" stroke="#000000" stroke-width="5.22" stroke-linejoin="bevel" points="3179.52,2300.75 3179.52,2140.65"/>
<polyline class="Stem" stroke="#000000" stroke-width="5.22" stroke-linejoin="bevel" points="3335.43,2194.51 3335.43,2348.38"/>
<polyline class="Stem" stroke="#000000" stroke-width="5.22" stroke-linejoin="bevel" points="3456.12,2170.77 3456.12,2330.57"/>
<path class="Note" transform="matrix(1.89921,0,0,1.89921,566.946,569.409)" d="M31.5,-8.1 C29.7,-11.4 25.9,-13.2 21.3,-13.2 C17.9,-13.2 14.2,-12.2 10.6,-10.3 C4,-6.8 0,-0.9 0,4.2 C0,5.6 0.3,7 1,8.3 C2.8,11.6 6.6,13.3 11.2,13.3 C14.6,13.3 18.3,12.4 21.9,10.5 C28.5,7 32.5,1.1 32.5,-4 C32.5,-5.4 32.2,-6.8 31.5,-8.1"/>
<path class="Note" transform="matrix(1.89921,0,0,1.89921,713.023,521.929)" d="M31.5,-8.1 C29.7,-11.4 25.9,-13.2 21.3,-13.2 C17.9,-13.2 14.2,-12.2 10.6,-10.3 C4,-6.8 0,-0.9 0,4.2 C0,5.6 0.3,7 1,8.3 C2.8,11.6 6.6,13.3 11.2,13.3 C14.6,13.3 18.3,12.4 21.9,10.5 C28.5,7 32.5,1.1 32.5,-4 C32.5,-5.4 32.2,-6.8 31.5,-8.1"/>
<path class="Note" transform="matrix(1.89921,0,0,1.89921,793.26,521.929)" d="M31.5,-8.1 C29.7,-11.4 25.9,-13.2 21.3,-13.2 C17.9,-13.2 14.2,-12.2 10.6,-10.3 C4,-6.8 0,-0.9 0,4.2 C0,5.6 0.3,7 1,8.3 C2.8,11.6 6.6,13.3 11.2,13.3 C14.6,13.3 18.3,12.4 21.9,10.5 C28.5,7 32.5,1.1 32.5,-4 C32.5,-5.4 32.2,-6.8 31.5,-8.1"/>
<path class="Note" transform="matrix(1.89921,0,0,1.89921,913.058,498.189)" d="M31.5,-8.1 C29.7,-11.4 25.9,-13.2 21.3,-13.2 C17.9,-13.2 14.2,-12.2 10.6,-10.3 C4,-6.8 0,-0.9 0,4.2 C0,5.6 0.3,7 1,8.3 C2.8,11.6 6.6,13.3 11.2,13.3 C14.6,13.3 18.3,12.4 21.9,10.5 C28.5,7 32.5,1.1 32.5,-4 C32.5,-5.4 32.2,-6.8 31.5,-8.1"/>
<path class="Note" transform="matrix(1.89921,0,0,1.89921,1032.86,498.189)" d="M31.5,-8.1 C29.7,-11.4 25.9,-13.2 21.3,-13.2 C17.9,-13.2 14.2,-12.2 10.6,-10.3 C4,-6.8 0,-0.9 0,4.2 C0,5.6 0.3,7 1,8.3 C2.8,11.6 6.6,13.3 11.2,13.3 C14.6,13.3 18.3,12.4 21.9,10.5 C28.5,7 32.5,1.1 32.5,-4 C32.5,-5.4 32.2,-6.8 31.5,-8.1 M27.2,-1.3 C25.5,0.4 22.1,2.5 18.5,4.5 C14.9,6.5 11.3,8 8.9,8.5 C8.4,8.6 7.9,8.7 7.4,8.7 C5.8,8.7 4.6,8.1 3.9,6.8 C3.6,6.3 3.4,5.7 3.4,5.1 C3.4,4 4.1,2.7 5.2,1.6 C6.9,-0.1 10.2,-2.2 13.8,-4.2 C17.4,-6.2 21,-7.7 23.4,-8.2 C23.9,-8.3 24.4,-8.4 24.9,-8.4 C26.5,-8.4 27.8,-7.8 28.5,-6.5 C28.8,-6 28.9,-5.4 28.9,-4.8 C28.9,-3.7 28.3,-2.5 27.2,-1.3"/>
<path class="Note" transform="matrix(1.89921,0,0,1.89921,1317.52,569.409)" d="M31.5,-8.1 C29.7,-11.4 25.9,-13.2 21.3,-13.2 C17.9,-13.2 14.2,-12.2 10.6,-10.3 C4,-6.8 0,-0.9 0,4.2 C0,5.6 0.3,7 1,8.3 C2.8,11.6 6.6,13.3 11.2,13.3 C14.6,13.3 18.3,12.4 21.9,10.5 C28.5,7 32.5,1.1 32.5,-4 C32.5,-5.4 32.2,-6.8 31.5,-8.1"/>
<path class="Note" transform="matrix(1.89921,0,0,1.89921,1463.6,521.929)" d="M31.5,-8.1 C29.7,-11.4 25.9,-13.2 21.3,-13.2 C17.9,-13.2 14.2,-12.2 10.6,-10.3 C4,-6.8 0,-0.9 0,4.2 C0,5.6 0.3,7 1,8.3 C2.8,11.6 6.6,13.3 11.2,13.3 C14.6,13.3 18.3,12.4 21.9,10.5 C28.5,7 32.5,1.1 32.5,-4 C32.5,-5.4 32.2,-6.8 31.5,-8.1"/>
<path class="Note" transform="matrix(1.89921,0,0,1.89921,1543.84,521.929)" d="M31.5,-8.1 C29.7,-11.4 25.9,-13.2 21.3,-13.2 C17.9,-13.2 14.2,-12.2 10.6,-10.3 C4,-6.8 0,-0.9 0,4.2 C0,5.6 0.3,7 1,8.3 C2.8,11.6 6.6,13.3 11.2,13.3 C14.6,13.3 18.3,12.4 21.9,10.5 C28.5,7 32.5,1.1 32.5,-4 C32.5,-5.4 32.2,-6.8 31.5,-8.1"/>
<path class="Note" transform="matrix(1.89921,0,0,1.89921,1663.63,498.189)" d="M31.5,-8.1 C29.7,-11.4 25.9,-13.2 21.3,-13.2 C17.9,-13.2 14.2,-12.2 10.6,-10.3 C4,-6.8 0,-0.9 0,4.2 C0,5.6 0.3,7 1,8.3 C2.8,11.6 6.6,13.3 11.2,13.3 C14.6,13.3 18.3,12.4 21.9,10.5 C28.5,7 32.5,1.1 32.5,-4 C32.5,-5.4 32.2,-6.8 31.5,-8.1"/>
<path class="Note" transform="matrix(1.89921,0,0,1.89921,1783.43,498.189)" d="M31.5,-8.1 C29.7,-11.4 25.9,-13.2 21.3,-13.2 C17.9,-13.2 14.2,-12.2 10.6,-10.3 C4,-6.8 0,-0.9 0,4.2 C0,5.6 0.3,7 1,8.3 C2.8,11.6 6.6,13.3 11.2,13.3 C14.6,13.3 18.3,12.4 21.9,10.5 C28.5,7 32.5,1.1 32.5,-4 C32.5,-5.4 32.2,-6.8 31.5,-8.1 M27.2,-1.3 C25.5,0.4 22.1,2.5 18.5,4.5 C14.9,6.5 11.3,8 8.9,8.5 C8.4,8.6 7.9,8.7 7.4,8.7 C5.8,8.7 4.6,8.1 3.9,6.8 C3.6,6.3 3.4,5.7 3.4,5.1 C3.4,4 4.1,2.7 5.2,1.6 C6.9,-0.1 10.2,-2.2 13.8,-4.2 C17.4,-6.2 21,-7.7 23.4,-8.2 C23.9,-8.3 24.4,-8.4 24.9,-8.4 C26.5,-8.4 27.8,-7.8 28.5,-6.5 C28.8,-6 28.9,-5.4 28.9,-4.8 C28.9,-3.7 28.3,-2.5 27.2,-1.3"/>
<path class="Note" transform="matrix(1.89921,0,0,1.89921,2068.1,450.709)" d="M31.5,-8.1 C29.7,-11.4 25.9,-13.2 21.3,-13.2 C17.9,-13.2 14.2,-12.2 10.6,-10.3 C4,-6.8 0,-0.9 0,4.2 C0,5.6 0.3,7 1,8.3 C2.8,11.6 6.6,13.3 11.2,13.3 C14.6,13.3 18.3,12.4 21.9,10.5 C28.5,7 32.5,1.1 32.5,-4 C32.5,-5.4 32.2,-6.8 31.5,-8.1"/>
<path class="Note" transform="matrix(1.89921,0,0,1.89921,2161.2,450.709)" d="M31.5,-8.1 C29.7,-11.4 25.9,-13.2 21.3,-13.2 C17.9,-13.2 14.2,-12.2 10.6,-10.3 C4,-6.8 0,-0.9 0,4.2 C0,5.6 0.3,7 1,8.3 C2.8,11.6 6.6,13.3 11.2,13.3 C14.6,13.3 18.3,12.4 21.9,10.5 C28.5,7 32.5,1.1 32.5,-4 C32.5,-5.4 32.2,-6.8 31.5,-8.1"/>
<path class="Note" transform="matrix(1.89921,0,0,1.89921,2254.31,474.449)" d="M31.5,-8.1 C29.7,-11.4 25.9,-13.2 21.3,-13.2 C17.9,-13.2 14.2,-12.2 10.6,-10.3 C4,-6.8 0,-0.9 0,4.2 C0,5.6 0.3,7 1,8.3 C2.8,11.6 6.6,13.3 11.2,13.3 C14.6,13.3 18.3,12.4 21.9,10.5 C28.5,7 32.5,1.1 32.5,-4 C32.5,-5.4 32.2,-6.8 31.5,-8.1"/>
<path class="Note" transform="matrix(1.89921,0,0,1.89921,2347.41,498.189)" d="M31.5,-8.1 C29.7,-11.4 25.9,-13.2 21.3,-13.2 C17.9,-13.2 14.2,-12.2 10.6,-10.3 C4,-6.8 0,-0.9 0,4.2 C0,5.6 0.3,7 1,8.3 C2.8,11.6 6.6,13.3 11.2,13.3 C14.6,13.3 18.3,12.4 21.9,10.5 C28.5,7 32.5,1.1 32.5,-4 C32.5,-5.4 32.2,-6.8 31.5,-8.1"/>
<path class="Note" transform="matrix(1.89921,0,0,1.89921,2440.52,521.929)" d="M31.5,-8.1 C29.7,-11.4 25.9,-13.2 21.3,-13.2 C17.9,-13.2 14.2,-12.2 10.6,-10.3 C4,-6.8 0,-0.9 0,4.2 C0,5.6 0.3,7 1,8.3 C2.8,11.6 6.6,13.3 11.2,13.3 C14.6,13.3 18.3,12.4 21.9,10.5 C28.5,7 32.5,1.1 32.5,-4 C32.5,-5.4 32.2,-6.8 31.5,-8.1"/>
<path class="Note" transform="matrix(1.89921,0,0,1.89921,2589.48,498.189)" d="M31.5,-8.1 C29.7,-11.4 25.9,-13.2 21.3,-13.2 C17.9,-13.2 14.2,-12.2 10.6,-10.3 C4,-6.8 0,-0.9 0,4.2 C0,5.6 0.3,7 1,8.3 C2.8,11.6 6.6,13.3 11.2,13.3 C14.6,13.3 18.3,12.4 21.9,10.5 C28.5,7 32.5,1.1 32.5,-4 C32.5,-5.4 32.2,-6.8 31.5,-8.1"/>
<path class="Note" transform="matrix(1.89921,0,0,1.89921,2813.47,521.929)" d="M18.7,-13.6 C4.9,-13.6 0,-6.6 0,-0.1 C0,6.4 4.9,13.4 18.7,13.4 C32.5,13.4 37.3,6.4 37.3,-0.1 C37.3,-6.6 32.5,-13.6 18.7,-13.6 M10.4,-4.5 C10.3,-4.9 10.3,-5.3 10.3,-5.7 C10.3,-6.5 10.5,-7.3 10.9,-8 C11.6,-9 12.8,-9.7 14.3,-10 C15.6,-10.3 16.3,-10.5 18.9,-10.5 L19,-10.5 C23,-10.5 24.3,-6.8 25.4,-3 L25.7,-2 C26.5,0.6 26.9,2.8 26.9,4.5 C26.9,5.7 26.7,6.8 26.3,7.6 C25.7,8.7 24.7,9.4 23,9.8 C22.1,10 20.6,10.1 20.6,10.1 C20.1,10.1 19.7,10.2 19.3,10.2 C16.1,10.2 14.1,9 12.7,4.7 C11.5,1 11.3,-0.1 10.4,-4.5"/>
<path class="Note" transform="matrix(1.89921,0,0,1.89921,3453.5,569.409)" d="M31.5,-8.1 C29.7,-11.4 25.9,-13.2 21.3,-13.2 C17.9,-13.2 14.2,-12.2 10.6,-10.3 C4,-6.8 0,-0.9 0,4.2 C0,5.6 0.3,7 1,8.3 C2.8,11.6 6.6,13.3 11.2,13.3 C14.6,13.3 18.3,12.4 21.9,10.5 C28.5,7 32.5,1.1 32.5,-4 C32.5,-5.4 32.2,-6.8 31.5,-8.1"/>
<path class="Note" transform="matrix(1.89921,0,0,1.89921,3599.58,521.929)" d="M31.5,-8.1 C29.7,-11.4 25.9,-13.2 21.3,-13.2 C17.9,-13.2 14.2,-12.2 10.6,-10.3 C4,-6.8 0,-0.9 0,4.2 C0,5.6 0.3,7 1,8.3 C2.8,11.6 6.6,13.3 11.2,13.3 C14.6,13.3 18.3,12.4 21.9,10.5 C28.5,7 32.5,1.1 32.5,-4 C32.5,-5.4 32.2,-6.8 31.5,-8.1"/>
<path class="Note" transform="matrix(1.89921,0,0,1.89921,3679.82,521.929)" d="M31.5,-8.1 C29.7,-11.4 25.9,-13.2 21.3,-13.2 C17.9,-13.2 14.2,-12.2 10.6,-10.3 C4,-6.8 0,-0.9 0,4.2 C0,5.6 0.3,7 1,8.3 C2.8,11.6 6.6,13.3 11.2,13.3 C14.6,13.3 18.3,12.4 21.9,10.5 C28.5,7 32.5,1.1 32.5,-4 C32.5,-5.4 32.2,-6.8 31.5,-8.1"/>
<path class="Note" transform="matrix(1.89921,0,0,1.89921,3799.62,498.189)" d="M31.5,-8.1 C29.7,-11.4 25.9,-13.2 21.3,-13.2 C17.9,-13.2 14.2,-12.2 10.6,-10.3 C4,-6.8 0,-0.9 0,4.2 C0,5.6 0.3,7 1,8.3 C2.8,11.6 6.6,13.3 11.2,13.3 C14.6,13.3 18.3,12.4 21.9,10.5 C28.5,7 32.5,1.1 32.5,-4 C32.5,-5.4 32.2,-6.8 31.5,-8.1"/>
<path class="Note" transform="matrix(1.89921,0,0,1.89921,3919.41,498.189)" d="M31.5,-8.1 C29.7,-11.4 25.9,-13.2 21.3,-13.2 C17.9,-13.2 14.2,-12.2 10.6,-10.3 C4,-6.8 0,-0.9 0,4.2 C0,5.6 0.3,7 1,8.3 C2.8,11.6 6.6,13.3 11.2,13.3 C14.6,13.3 18.3,12.4 21.9,10.5 C28.5,7 32.5,1.1 32.5,-4 C32.5,-5.4 32.2,-6.8 31.5,-8.1 M27.2,-1.3 C25.5,0.4 22.1,2.5 18.5,4.5 C14.9,6.5 11.3,8 8.9,8.5 C8.4,8.6 7.9,8.7 7.4,8.7 C5.8,8.7 4.6,8.1 3.9,6.8 C3.6,6.3 3.4,5.7 3.4,5.1 C3.4,4 4.1,2.7 5.2,1.6 C6.9,-0.1 10.2,-2.2 13.8,-4.2 C17.4,-6.2 21,-7.7 23.4,-8.2 C23.9,-8.3 24.4,-8.4 24.9,-8.4 C26.5,-8.4 27.8,-7.8 28.5,-6.5 C28.8,-6 28.9,-5.4 28.9,-4.8 C28.9,-3.7 28.3,-2.5 27.2,-1.3"/>
<path class="Note" transform="matrix(1.89921,0,0,1.89921,495.117,1438.12)" d="M31.5,-8.1 C29.7,-11.4 25.9,-13.2 21.3,-13.2 C17.9,-13.2 14.2,-12.2 10.6,-10.3 C4,-6.8 0,-0.9 0,4.2 C0,5.6 0.3,7 1,8.3 C2.8,11.6 6.6,13.3 11.2,13.3 C14.6,13.3 18.3,12.4 21.9,10.5 C28.5,7 32.5,1.1 32.5,-4 C32.5,-5.4 32.2,-6.8 31.5,-8.1"/>
<path class="Note" transform="matrix(1.89921,0,0,1.89921,628,1390.64)" d="M31.5,-8.1 C29.7,-11.4 25.9,-13.2 21.3,-13.2 C17.9,-13.2 14.2,-12.2 10.6,-10.3 C4,-6.8 0,-0.9 0,4.2 C0,5.6 0.3,7 1,8.3 C2.8,11.6 6.6,13.3 11.2,13.3 C14.6,13.3 18.3,12.4 21.9,10.5 C28.5,7 32.5,1.1 32.5,-4 C32.5,-5.4 32.2,-6.8 31.5,-8.1"/>
<path class="Note" transform="matrix(1.89921,0,0,1.89921,708.238,1390.64)" d="M31.5,-8.1 C29.7,-11.4 25.9,-13.2 21.3,-13.2 C17.9,-13.2 14.2,-12.2 10.6,-10.3 C4,-6.8 0,-0.9 0,4.2 C0,5.6 0.3,7 1,8.3 C2.8,11.6 6.6,13.3 11.2,13.3 C14.6,13.3 18.3,12.4 21.9,10.5 C28.5,7 32.5,1.1 32.5,-4 C32.5,-5.4 32.2,-6.8 31.5,-8.1"/>
<path class="Note" transform="matrix(1.89921,0,0,1.89921,817.215,1366.9)" d="M31.5,-8.1 C29.7,-11.4 25.9,-13.2 21.3,-13.2 C17.9,-13.2 14.2,-12.2 10.6,-10.3 C4,-6.8 0,-0.9 0,4.2 C0,5.6 0.3,7 1,8.3 C2.8,11.6 6.6,13.3 11.2,13.3 C14.6,13.3 18.3,12.4 21.9,10.5 C28.5,7 32.5,1.1 32.5,-4 C32.5,-5.4 32.2,-6.8 31.5,-8.1"/>
<path class="Note" transform="matrix(1.89921,0,0,1.89921,926.456,1366.9)" d="M31.5,-8.1 C29.7,-11.4 25.9,-13.2 21.3,-13.2 C17.9,-13.2 14.2,-12.2 10.6,-10.3 C4,-6.8 0,-0.9 0,4.2 C0,5.6 0.3,7 1,8.3 C2.8,11.6 6.6,13.3 11.2,13.3 C14.6,13.3 18.3,12.4 21.9,10.5 C28.5,7 32.5,1.1 32.5,-4 C32.5,-5.4 32.2,-6.8 31.5,-8.1 M27.2,-1.3 C25.5,0.4 22.1,2.5 18.5,4.5 C14.9,6.5 11.3,8 8.9,8.5 C8.4,8.6 7.9,8.7 7.4,8.7 C5.8,8.7 4.6,8.1 3.9,6.8 C3.6,6.3 3.4,5.7 3.4,5.1 C3.4,4 4.1,2.7 5.2,1.6 C6.9,-0.1 10.2,-2.2 13.8,-4.2 C17.4,-6.2 21,-7.7 23.4,-8.2 C23.9,-8.3 24.4,-8.4 24.9,-8.4 C26.5,-8.4 27.8,-7.8 28.5,-6.5 C28.8,-6 28.9,-5.4 28.9,-4.8 C28.9,-3.7 28.3,-2.5 27.2,-1.3"/>
<path class="Note" transform="matrix(1.89921,0,0,1.89921,1192.19,1319.42)" d="M31.5,-8.1 C29.7,-11.4 25.9,-13.2 21.3,-13.2 C17.9,-13.2 14.2,-12.2 10.6,-10.3 C4,-6.8 0,-0.9 0,4.2 C0,5.6 0.3,7 1,8.3 C2.8,11.6 6.6,13.3 11.2,13.3 C14.6,13.3 18.3,12.4 21.9,10.5 C28.5,7 32.5,1.1 32.5,-4 C32.5,-5.4 32.2,-6.8 31.5,-8.1"/>
<path class="Note" transform="matrix(1.89921,0,0,1.89921,1277.86,1319.42)" d="M31.5,-8.1 C29.7,-11.4 25.9,-13.2 21.3,-13.2 C17.9,-13.2 14.2,-12.2 10.6,-10.3 C4,-6.8 0,-0.9 0,4.2 C0,5.6 0.3,7 1,8.3 C2.8,11.6 6.6,13.3 11.2,13.3 C14.6,13.3 18.3,12.4 21.9,10.5 C28.5,7 32.5,1.1 32.5,-4 C32.5,-5.4 32.2,-6.8 31.5,-8.1"/>
<path class="Note" transform="matrix(1.89921,0,0,1.89921,1363.53,1343.16)" d="M31.5,-8.1 C29.7,-11.4 25.9,-13.2 21.3,-13.2 C17.9,-13.2 14.2,-12.2 10.6,-10.3 C4,-6.8 0,-0.9 0,4.2 C0,5.6 0.3,7 1,8.3 C2.8,11.6 6.6,13.3 11.2,13.3 C14.6,13.3 18.3,12.4 21.9,10.5 C28.5,7 32.5,1.1 32.5,-4 C32.5,-5.4 32.2,-6.8 31.5,-8.1"/>
<path class="Note" transform="matrix(1.89921,0,0,1.89921,1449.2,1343.16)" d="M31.5,-8.1 C29.7,-11.4 25.9,-13.2 21.3,-13.2 C17.9,-13.2 14.2,-12.2 10.6,-10.3 C4,-6.8 0,-0.9 0,4.2 C0,5.6 0.3,7 1,8.3 C2.8,11.6 6.6,13.3 11.2,13.3 C14.6,13.3 18.3,12.4 21.9,10.5 C28.5,7 32.5,1.1 32.5,-4 C32.5,-5.4 32.2,-6.8 31.5,-8.1"/>
<path class="Note" transform="matrix(1.89921,0,0,1.89921,1534.88,1366.9)" d="M31.5,-8.1 C29.7,-11.4 25.9,-13.2 21.3,-13.2 C17.9,-13.2 14.2,-12.2 10.6,-10.3 C4,-6.8 0,-0.9 0,4.2 C0,5.6 0.3,7 1,8.3 C2.8,11.6 6.6,13.3 11.2,13.3 C14.6,13.3 18.3,12.4 21.9,10.5 C28.5,7 32.5,1.1 32.5,-4 C32.5,-5.4 32.2,-6.8 31.5,-8.1"/>
<path class="Note" transform="matrix(1.89921,0,0,1.89921,1671.96,1343.16)" d="M31.5,-8.1 C29.7,-11.4 25.9,-13.2 21.3,-13.2 C17.9,-13.2 14.2,-12.2 10.6,-10.3 C4,-6.8 0,-0.9 0,4.2 C0,5.6 0.3,7 1,8.3 C2.8,11.6 6.6,13.3 11.2,13.3 C14.6,13.3 18.3,12.4 21.9,10.5 C28.5,7 32.5,1.1 32.5,-4 C32.5,-5.4 32.2,-6.8 31.5,-8.1"/>
<path class="Note" transform="matrix(1.89921,0,0,1.89921,1888.61,1366.9)" d="M18.7,-13.6 C4.9,-13.6 0,-6.6 0,-0.1 C0,6.4 4.9,13.4 18.7,13.4 C32.5,13.4 37.3,6.4 37.3,-0.1 C37.3,-6.6 32.5,-13.6 18.7,-13.6 M10.4,-4.5 C10.3,-4.9 10.3,-5.3 10.3,-5.7 C10.3,-6.5 10.5,-7.3 10.9,-8 C11.6,-9 12.8,-9.7 14.3,-10 C15.6,-10.3 16.3,-10.5 18.9,-10.5 L19,-10.5 C23,-10.5 24.3,-6.8 25.4,-3 L25.7,-2 C26.5,0.6 26.9,2.8 26.9,4.5 C26.9,5.7 26.7,6.8 26.3,7.6 C25.7,8.7 24.7,9.4 23,9.8 C22.1,10 20.6,10.1 20.6,10.1 C20.1,10.1 19.7,10.2 19.3,10.2 C16.1,10.2 14.1,9 12.7,4.7 C11.5,1 11.3,-0.1 10.4,-4.5"/>
<path class="Note" transform="matrix(1.89921,0,0,1.89921,2496.2,1319.42)" d="M31.5,-8.1 C29.7,-11.4 25.9,-13.2 21.3,-13.2 C17.9,-13.2 14.2,-12.2 10.6,-10.3 C4,-6.8 0,-0.9 0,4.2 C0,5.6 0.3,7 1,8.3 C2.8,11.6 6.6,13.3 11.2,13.3 C14.6,13.3 18.3,12.4 21.9,10.5 C28.5,7 32.5,1.1 32.5,-4 C32.5,-5.4 32.2,-6.8 31.5,-8.1"/>
<path class="Note" transform="matrix(1.89921,0,0,1.89921,2580.99,1343.16)" d="M31.5,-8.1 C29.7,-11.4 25.9,-13.2 21.3,-13.2 C17.9,-13.2 14.2,-12.2 10.6,-10.3 C4,-6.8 0,-0.9 0,4.2 C0,5.6 0.3,7 1,8.3 C2.8,11.6 6.6,13.3 11.2,13.3 C14.6,13.3 18.3,12.4 21.9,10.5 C28.5,7 32.5,1.1 32.5,-4 C32.5,-5.4 32.2,-6.8 31.5,-8.1"/>
<path class="Note" transform="matrix(1.89921,0,0,1.89921,2665.78,1366.9)" d="M31.5,-8.1 C29.7,-11.4 25.9,-13.2 21.3,-13.2 C17.9,-13.2 14.2,-12.2 10.6,-10.3 C4,-6.8 0,-0.9 0,4.2 C0,5.6 0.3,7 1,8.3 C2.8,11.6 6.6,13.3 11.2,13.3 C14.6,13.3 18.3,12.4 21.9,10.5 C28.5,7 32.5,1.1 32.5,-4 C32.5,-5.4 32.2,-6.8 31.5,-8.1"/>
<path class="Note" transform="matrix(1.89921,0,0,1.89921,2750.57,1390.64)" d="M31.5,-8.1 C29.7,-11.4 25.9,-13.2 21.3,-13.2 C17.9,-13.2 14.2,-12.2 10.6,-10.3 C4,-6.8 0,-0.9 0,4.2 C0,5.6 0.3,7 1,8.3 C2.8,11.6 6.6,13.3 11.2,13.3 C14.6,13.3 18.3,12.4 21.9,10.5 C28.5,7 32.5,1.1 32.5,-4 C32.5,-5.4 32.2,-6.8 31.5,-8.1 M27.2,-1.3 C25.5,0.4 22.1,2.5 18.5,4.5 C14.9,6.5 11.3,8 8.9,8.5 C8.4,8.6 7.9,8.7 7.4,8.7 C5.8,8.7 4.6,8.1 3.9,6.8 C3.6,6.3 3.4,5.7 3.4,5.1 C3.4,4 4.1,2.7 5.2,1.6 C6.9,-0.1 10.2,-2.2 13.8,-4.2 C17.4,-6.2 21,-7.7 23.4,-8.2 C23.9,-8.3 24.4,-8.4 24.9,-8.4 C26.5,-8.4 27.8,-7.8 28.5,-6.5 C28.8,-6 28.9,-5.4 28.9,-4.8 C28.9,-3.7 28.3,-2.5 27.2,-1.3"/>
<path class="Note" transform="matrix(1.89921,0,0,1.89921,3092.17,1319.42)" d="M31.5,-8.1 C29.7,-11.4 25.9,-13.2 21.3,-13.2 C17.9,-13.2 14.2,-12.2 10.6,-10.3 C4,-6.8 0,-0.9 0,4.2 C0,5.6 0.3,7 1,8.3 C2.8,11.6 6.6,13.3 11.2,13.3 C14.6,13.3 18.3,12.4 21.9,10.5 C28.5,7 32.5,1.1 32.5,-4 C32.5,-5.4 32.2,-6.8 31.5,-8.1"/>
<path class="Note" transform="matrix(1.89921,0,0,1.89921,3176.96,1343.16)" d="M31.5,-8.1 C29.7,-11.4 25.9,-13.2 21.3,-13.2 C17.9,-13.2 14.2,-12.2 10.6,-10.3 C4,-6.8 0,-0.9 0,4.2 C0,5.6 0.3,7 1,8.3 C2.8,11.6 6.6,13.3 11.2,13.3 C14.6,13.3 18.3,12.4 21.9,10.5 C28.5,7 32.5,1.1 32.5,-4 C32.5,-5.4 32.2,-6.8 31.5,-8.1"/>
<path class="Note" transform="matrix(1.89921,0,0,1.89921,3261.76,1366.9)" d="M31.5,-8.1 C29.7,-11.4 25.9,-13.2 21.3,-13.2 C17.9,-13.2 14.2,-12.2 10.6,-10.3 C4,-6.8 0,-0.9 0,4.2 C0,5.6 0.3,7 1,8.3 C2.8,11.6 6.6,13.3 11.2,13.3 C14.6,13.3 18.3,12.4 21.9,10.5 C28.5,7 32.5,1.1 32.5,-4 C32.5,-5.4 32.2,-6.8 31.5,-8.1"/>
<path class="Note" transform="matrix(1.89921,0,0,1.89921,3346.55,1390.64)" d="M31.5,-8.1 C29.7,-11.4 25.9,-13.2 21.3,-13.2 C17.9,-13.2 14.2,-12.2 10.6,-10.3 C4,-6.8 0,-0.9 0,4.2 C0,5.6 0.3,7 1,8.3 C2.8,11.6 6.6,13.3 11.2,13.3 C14.6,13.3 18.3,12.4 21.9,10.5 C28.5,7 32.5,1.1 32.5,-4 C32.5,-5.4 32.2,-6.8 31.5,-8.1 M27.2,-1.3 C25.5,0.4 22.1,2.5 18.5,4.5 C14.9,6.5 11.3,8 8.9,8.5 C8.4,8.6 7.9,8.7 7.4,8.7 C5.8,8.7 4.6,8.1 3.9,6.8 C3.6,6.3 3.4,5.7 3.4,5.1 C3.4,4 4.1,2.7 5.2,1.6 C6.9,-0.1 10.2,-2.2 13.8,-4.2 C17.4,-6.2 21,-7.7 23.4,-8.2 C23.9,-8.3 24.4,-8.4 24.9,-8.4 C26.5,-8.4 27.8,-7.8 28.5,-6.5 C28.8,-6 28.9,-5.4 28.9,-4.8 C28.9,-3.7 28.3,-2.5 27.2,-1.3"/>
<path class="Note" transform="matrix(1.89921,0,0,1.89921,3688.15,1319.42)" d="M31.5,-8.1 C29.7,-11.4 25.9,-13.2 21.3,-13.2 C17.9,-13.2 14.2,-12.2 10.6,-10.3 C4,-6.8 0,-0.9 0,4.2 C0,5.6 0.3,7 1,8.3 C2.8,11.6 6.6,13.3 11.2,13.3 C14.6,13.3 18.3,12.4 21.9,10.5 C28.5,7 32.5,1.1 32.5,-4 C32.5,-5.4 32.2,-6.8 31.5,-8.1"/>
<path class="Note" transform="matrix(1.89921,0,0,1.89921,3772.94,1343.16)" d="M31.5,-8.1 C29.7,-11.4 25.9,-13.2 21.3,-13.2 C17.9,-13.2 14.2,-12.2 10.6,-10.3 C4,-6.8 0,-0.9 0,4.2 C0,5.6 0.3,7 1,8.3 C2.8,11.6 6.6,13.3 11.2,13.3 C14.6,13.3 18.3,12.4 21.9,10.5 C28.5,7 32.5,1.1 32.5,-4 C32.5,-5.4 32.2,-6.8 31.5,-8.1"/>
<path class="Note" transform="matrix(1.89921,0,0,1.89921,3857.73,1366.9)" d="M31.5,-8.1 C29.7,-11.4 25.9,-13.2 21.3,-13.2 C17.9,-13.2 14.2,-12.2 10.6,-10.3 C4,-6.8 0,-0.9 0,4.2 C0,5.6 0.3,7 1,8.3 C2.8,11.6 6.6,13.3 11.2,13.3 C14.6,13.3 18.3,12.4 21.9,10.5 C28.5,7 32.5,1.1 32.5,-4 C32.5,-5.4 32.2,-6.8 31.5,-8.1"/>
<path class="Note" transform="matrix(1.89921,0,0,1.89921,3942.52,1390.64)" d="M31.5,-8.1 C29.7,-11.4 25.9,-13.2 21.3,-13.2 C17.9,-13.2 14.2,-12.2 10.6,-10.3 C4,-6.8 0,-0.9 0,4.2 C0,5.6 0.3,7 1,8.3 C2.8,11.6 6.6,13.3 11.2,13.3 C14.6,13.3 18.3,12.4 21.9,10.5 C28.5,7 32.5,1.1 32.5,-4 C32.5,-5.4 32.2,-6.8 31.5,-8.1 M27.2,-1.3 C25.5,0.4 22.1,2.5 18.5,4.5 C14.9,6.5 11.3,8 8.9,8.5 C8.4,8.6 7.9,8.7 7.4,8.7 C5.8,8.7 4.6,8.1 3.9,6.8 C3.6,6.3 3.4,5.7 3.4,5.1 C3.4,4 4.1,2.7 5.2,1.6 C6.9,-0.1 10.2,-2.2 13.8,-4.2 C17.4,-6.2 21,-7.7 23.4,-8.2 C23.9,-8.3 24.4,-8.4 24.9,-8.4 C26.5,-8.4 27.8,-7.8 28.5,-6.5 C28.8,-6 28.9,-5.4 28.9,-4.8 C28.9,-3.7 28.3,-2.5 27.2,-1.3"/>
<path class="Note" transform="matrix(1.89921,0,0,1.89921,495.117,2188.13)" d="M31.5,-8.1 C29.7,-11.4 25.9,-13.2 21.3,-13.2 C17.9,-13.2 14.2,-12.2 10.6,-10.3 C4,-6.8 0,-0.9 0,4.2 C0,5.6 0.3,7 1,8.3 C2.8,11.6 6.6,13.3 11.2,13.3 C14.6,13.3 18.3,12.4 21.9,10.5 C28.5,7 32.5,1.1 32.5,-4 C32.5,-5.4 32.2,-6.8 31.5,-8.1 M27.2,-1.3 C25.5,0.4 22.1,2.5 18.5,4.5 C14.9,6.5 11.3,8 8.9,8.5 C8.4,8.6 7.9,8.7 7.4,8.7 C5.8,8.7 4.6,8.1 3.9,6.8 C3.6,6.3 3.4,5.7 3.4,5.1 C3.4,4 4.1,2.7 5.2,1.6 C6.9,-0.1 10.2,-2.2 13.8,-4.2 C17.4,-6.2 21,-7.7 23.4,-8.2 C23.9,-8.3 24.4,-8.4 24.9,-8.4 C26.5,-8.4 27.8,-7.8 28.5,-6.5 C28.8,-6 28.9,-5.4 28.9,-4.8 C28.9,-3.7 28.3,-2.5 27.2,-1.3"/>
<path class="Note" transform="matrix(1.89921,0,0,1.89921,615.806,2164.39)" d="M31.5,-8.1 C29.7,-11.4 25.9,-13.2 21.3,-13.2 C17.9,-13.2 14.2,-12.2 10.6,-10.3 C4,-6.8 0,-0.9 0,4.2 C0,5.6 0.3,7 1,8.3 C2.8,11.6 6.6,13.3 11.2,13.3 C14.6,13.3 18.3,12.4 21.9,10.5 C28.5,7 32.5,1.1 32.5,-4 C32.5,-5.4 32.2,-6.8 31.5,-8.1 M27.2,-1.3 C25.5,0.4 22.1,2.5 18.5,4.5 C14.9,6.5 11.3,8 8.9,8.5 C8.4,8.6 7.9,8.7 7.4,8.7 C5.8,8.7 4.6,8.1 3.9,6.8 C3.6,6.3 3.4,5.7 3.4,5.1 C3.4,4 4.1,2.7 5.2,1.6 C6.9,-0.1 10.2,-2.2 13.8,-4.2 C17.4,-6.2 21,-7.7 23.4,-8.2 C23.9,-8.3 24.4,-8.4 24.9,-8.4 C26.5,-8.4 27.8,-7.8 28.5,-6.5 C28.8,-6 28.9,-5.4 28.9,-4.8 C28.9,-3.7 28.3,-2.5 27.2,-1.3"/>
<path class="Note" transform="matrix(1.89921,0,0,1.89921,828.318,2188.13)" d="M18.7,-13.6 C4.9,-13.6 0,-6.6 0,-0.1 C0,6.4 4.9,13.4 18.7,13.4 C32.5,13.4 37.3,6.4 37.3,-0.1 C37.3,-6.6 32.5,-13.6 18.7,-13.6 M10.4,-4.5 C10.3,-4.9 10.3,-5.3 10.3,-5.7 C10.3,-6.5 10.5,-7.3 10.9,-8 C11.6,-9 12.8,-9.7 14.3,-10 C15.6,-10.3 16.3,-10.5 18.9,-10.5 L19,-10.5 C23,-10.5 24.3,-6.8 25.4,-3 L25.7,-2 C26.5,0.6 26.9,2.8 26.9,4.5 C26.9,5.7 26.7,6.8 26.3,7.6 C25.7,8.7 24.7,9.4 23,9.8 C22.1,10 20.6,10.1 20.6,10.1 C20.1,10.1 19.7,10.2 19.3,10.2 C16.1,10.2 14.1,9 12.7,4.7 C11.5,1 11.3,-0.1 10.4,-4.5"/>
<path class="Note" transform="matrix(1.89921,0,0,1.89921,1439.67,2188.13)" d="M31.5,-8.1 C29.7,-11.4 25.9,-13.2 21.3,-13.2 C17.9,-13.2 14.2,-12.2 10.6,-10.3 C4,-6.8 0,-0.9 0,4.2 C0,5.6 0.3,7 1,8.3 C2.8,11.6 6.6,13.3 11.2,13.3 C14.6,13.3 18.3,12.4 21.9,10.5 C28.5,7 32.5,1.1 32.5,-4 C32.5,-5.4 32.2,-6.8 31.5,-8.1"/>
<path class="Note" transform="matrix(1.89921,0,0,1.89921,1525.53,2211.87)" d="M31.5,-8.1 C29.7,-11.4 25.9,-13.2 21.3,-13.2 C17.9,-13.2 14.2,-12.2 10.6,-10.3 C4,-6.8 0,-0.9 0,4.2 C0,5.6 0.3,7 1,8.3 C2.8,11.6 6.6,13.3 11.2,13.3 C14.6,13.3 18.3,12.4 21.9,10.5 C28.5,7 32.5,1.1 32.5,-4 C32.5,-5.4 32.2,-6.8 31.5,-8.1"/>
<path class="Note" transform="matrix(1.89921,0,0,1.89921,1611.39,2235.61)" d="M31.5,-8.1 C29.7,-11.4 25.9,-13.2 21.3,-13.2 C17.9,-13.2 14.2,-12.2 10.6,-10.3 C4,-6.8 0,-0.9 0,4.2 C0,5.6 0.3,7 1,8.3 C2.8,11.6 6.6,13.3 11.2,13.3 C14.6,13.3 18.3,12.4 21.9,10.5 C28.5,7 32.5,1.1 32.5,-4 C32.5,-5.4 32.2,-6.8 31.5,-8.1"/>
<path class="Note" transform="matrix(1.89921,0,0,1.89921,1697.25,2259.35)" d="M31.5,-8.1 C29.7,-11.4 25.9,-13.2 21.3,-13.2 C17.9,-13.2 14.2,-12.2 10.6,-10.3 C4,-6.8 0,-0.9 0,4.2 C0,5.6 0.3,7 1,8.3 C2.8,11.6 6.6,13.3 11.2,13.3 C14.6,13.3 18.3,12.4 21.9,10.5 C28.5,7 32.5,1.1 32.5,-4 C32.5,-5.4 32.2,-6.8 31.5,-8.1"/>
<path class="Note" transform="matrix(1.89921,0,0,1.89921,1834.63,2306.83)" d="M31.5,-8.1 C29.7,-11.4 25.9,-13.2 21.3,-13.2 C17.9,-13.2 14.2,-12.2 10.6,-10.3 C4,-6.8 0,-0.9 0,4.2 C0,5.6 0.3,7 1,8.3 C2.8,11.6 6.6,13.3 11.2,13.3 C14.6,13.3 18.3,12.4 21.9,10.5 C28.5,7 32.5,1.1 32.5,-4 C32.5,-5.4 32.2,-6.8 31.5,-8.1"/>
<path class="Note" transform="matrix(1.89921,0,0,1.89921,2127.29,2188.13)" d="M31.5,-8.1 C29.7,-11.4 25.9,-13.2 21.3,-13.2 C17.9,-13.2 14.2,-12.2 10.6,-10.3 C4,-6.8 0,-0.9 0,4.2 C0,5.6 0.3,7 1,8.3 C2.8,11.6 6.6,13.3 11.2,13.3 C14.6,13.3 18.3,12.4 21.9,10.5 C28.5,7 32.5,1.1 32.5,-4 C32.5,-5.4 32.2,-6.8 31.5,-8.1"/>
<path class="Note" transform="matrix(1.89921,0,0,1.89921,2212.3,2211.87)" d="M31.5,-8.1 C29.7,-11.4 25.9,-13.2 21.3,-13.2 C17.9,-13.2 14.2,-12.2 10.6,-10.3 C4,-6.8 0,-0.9 0,4.2 C0,5.6 0.3,7 1,8.3 C2.8,11.6 6.6,13.3 11.2,13.3 C14.6,13.3 18.3,12.4 21.9,10.5 C28.5,7 32.5,1.1 32.5,-4 C32.5,-5.4 32.2,-6.8 31.5,-8.1"/>
<path class="Note" transform="matrix(1.89921,0,0,1.89921,2297.3,2235.61)" d="M31.5,-8.1 C29.7,-11.4 25.9,-13.2 21.3,-13.2 C17.9,-13.2 14.2,-12.2 10.6,-10.3 C4,-6.8 0,-0.9 0,4.2 C0,5.6 0.3,7 1,8.3 C2.8,11.6 6.6,13.3 11.2,13.3 C14.6,13.3 18.3,12.4 21.9,10.5 C28.5,7 32.5,1.1 32.5,-4 C32.5,-5.4 32.2,-6.8 31.5,-8.1"/>
<path class="Note" transform="matrix(1.89921,0,0,1.89921,2382.31,2259.35)" d="M31.5,-8.1 C29.7,-11.4 25.9,-13.2 21.3,-13.2 C17.9,-13.2 14.2,-12.2 10.6,-10.3 C4,-6.8 0,-0.9 0,4.2 C0,5.6 0.3,7 1,8.3 C2.8,11.6 6.6,13.3 11.2,13.3 C14.6,13.3 18.3,12.4 21.9,10.5 C28.5,7 32.5,1.1 32.5,-4 C32.5,-5.4 32.2,-6.8 31.5,-8.1 M27.2,-1.3 C25.5,0.4 22.1,2.5 18.5,4.5 C14.9,6.5 11.3,8 8.9,8.5 C8.4,8.6 7.9,8.7 7.4,8.7 C5.8,8.7 4.6,8.1 3.9,6.8 C3.6,6.3 3.4,5.7 3.4,5.1 C3.4,4 4.1,2.7 5.2,1.6 C6.9,-0.1 10.2,-2.2 13.8,-4.2 C17.4,-6.2 21,-7.7 23.4,-8.2 C23.9,-8.3 24.4,-8.4 24.9,-8.4 C26.5,-8.4 27.8,-7.8 28.5,-6.5 C28.8,-6 28.9,-5.4 28.9,-4.8 C28.9,-3.7 28.3,-2.5 27.2,-1.3"/>
<path class="Note" transform="matrix(1.89921,0,0,1.89921,2725.46,2188.13)" d="M31.5,-8.1 C29.7,-11.4 25.9,-13.2 21.3,-13.2 C17.9,-13.2 14.2,-12.2 10.6,-10.3 C4,-6.8 0,-0.9 0,4.2 C0,5.6 0.3,7 1,8.3 C2.8,11.6 6.6,13.3 11.2,13.3 C14.6,13.3 18.3,12.4 21.9,10.5 C28.5,7 32.5,1.1 32.5,-4 C32.5,-5.4 32.2,-6.8 31.5,-8.1"/>
<path class="Note" transform="matrix(1.89921,0,0,1.89921,2811.32,2211.87)" d="M31.5,-8.1 C29.7,-11.4 25.9,-13.2 21.3,-13.2 C17.9,-13.2 14.2,-12.2 10.6,-10.3 C4,-6.8 0,-0.9 0,4.2 C0,5.6 0.3,7 1,8.3 C2.8,11.6 6.6,13.3 11.2,13.3 C14.6,13.3 18.3,12.4 21.9,10.5 C28.5,7 32.5,1.1 32.5,-4 C32.5,-5.4 32.2,-6.8 31.5,-8.1"/>
<path class="Note" transform="matrix(1.89921,0,0,1.89921,2897.18,2235.61)" d="M31.5,-8.1 C29.7,-11.4 25.9,-13.2 21.3,-13.2 C17.9,-13.2 14.2,-12.2 10.6,-10.3 C4,-6.8 0,-0.9 0,4.2 C0,5.6 0.3,7 1,8.3 C2.8,11.6 6.6,13.3 11.2,13.3 C14.6,13.3 18.3,12.4 21.9,10.5 C28.5,7 32.5,1.1 32.5,-4 C32.5,-5.4 32.2,-6.8 31.5,-8.1"/>
<path class="Note" transform="matrix(1.89921,0,0,1.89921,2983.04,2259.35)" d="M31.5,-8.1 C29.7,-11.4 25.9,-13.2 21.3,-13.2 C17.9,-13.2 14.2,-12.2 10.6,-10.3 C4,-6.8 0,-0.9 0,4.2 C0,5.6 0.3,7 1,8.3 C2.8,11.6 6.6,13.3 11.2,13.3 C14.6,13.3 18.3,12.4 21.9,10.5 C28.5,7 32.5,1.1 32.5,-4 C32.5,-5.4 32.2,-6.8 31.5,-8.1"/>
<path class="Note" transform="matrix(1.89921,0,0,1.89921,3120.42,2306.83)" d="M31.5,-8.1 C29.7,-11.4 25.9,-13.2 21.3,-13.2 C17.9,-13.2 14.2,-12.2 10.6,-10.3 C4,-6.8 0,-0.9 0,4.2 C0,5.6 0.3,7 1,8.3 C2.8,11.6 6.6,13.3 11.2,13.3 C14.6,13.3 18.3,12.4 21.9,10.5 C28.5,7 32.5,1.1 32.5,-4 C32.5,-5.4 32.2,-6.8 31.5,-8.1"/>
<path class="Note" transform="matrix(1.89921,0,0,1.89921,3332.82,2188.13)" d="M31.5,-8.1 C29.7,-11.4 25.9,-13.2 21.3,-13.2 C17.9,-13.2 14.2,-12.2 10.6,-10.3 C4,-6.8 0,-0.9 0,4.2 C0,5.6 0.3,7 1,8.3 C2.8,11.6 6.6,13.3 11.2,13.3 C14.6,13.3 18.3,12.4 21.9,10.5 C28.5,7 32.5,1.1 32.5,-4 C32.5,-5.4 32.2,-6.8 31.5,-8.1 M27.2,-1.3 C25.5,0.4 22.1,2.5 18.5,4.5 C14.9,6.5 11.3,8 8.9,8.5 C8.4,8.6 7.9,8.7 7.4,8.7 C5.8,8.7 4.6,8.1 3.9,6.8 C3.6,6.3 3.4,5.7 3.4,5.1 C3.4,4 4.1,2.7 5.2,1.6 C6.9,-0.1 10.2,-2.2 13.8,-4.2 C17.4,-6.2 21,-7.7 23.4,-8.2 C23.9,-8.3 24.4,-8.4 24.9,-8.4 C26.5,-8.4 27.8,-7.8 28.5,-6.5 C28.8,-6 28.9,-5.4 28.9,-4.8 C28.9,-3.7 28.3,-2.5 27.2,-1.3"/>
<path class="Note" transform="matrix(1.89921,0,0,1.89921,3453.51,2164.39)" d="M31.5,-8.1 C29.7,-11.4 25.9,-13.2 21.3,-13.2 C17.9,-13.2 14.2,-12.2 10.6,-10.3 C4,-6.8 0,-0.9 0,4.2 C0,5.6 0.3,7 1,8.3 C2.8,11.6 6.6,13.3 11.2,13.3 C14.6,13.3 18.3,12.4 21.9,10.5 C28.5,7 32.5,1.1 32.5,-4 C32.5,-5.4 32.2,-6.8 31.5,-8.1 M27.2,-1.3 C25.5,0.4 22.1,2.5 18.5,4.5 C14.9,6.5 11.3,8 8.9,8.5 C8.4,8.6 7.9,8.7 7.4,8.7 C5.8,8.7 4.6,8.1 3.9,6.8 C3.6,6.3 3.4,5.7 3.4,5.1 C3.4,4 4.1,2.7 5.2,1.6 C6.9,-0.1 10.2,-2.2 13.8,-4.2 C17.4,-6.2 21,-7.7 23.4,-8.2 C23.9,-8.3 24.4,-8.4 24.9,-8.4 C26.5,-8.4 27.8,-7.8 28.5,-6.5 C28.8,-6 28.9,-5.4 28.9,-4.8 C28.9,-3.7 28.3,-2.5 27.2,-1.3"/>
<path class="Note" transform="matrix(1.89921,0,0,1.89921,3666.02,2188.13)" d="M18.7,-13.6 C4.9,-13.6 0,-6.6 0,-0.1 C0,6.4 4.9,13.4 18.7,13.4 C32.5,13.4 37.3,6.4 37.3,-0.1 C37.3,-6.6 32.5,-13.6 18.7,-13.6 M10.4,-4.5 C10.3,-4.9 10.3,-5.3 10.3,-5.7 C10.3,-6.5 10.5,-7.3 10.9,-8 C11.6,-9 12.8,-9.7 14.3,-10 C15.6,-10.3 16.3,-10.5 18.9,-10.5 L19,-10.5 C23,-10.5 24.3,-6.8 25.4,-3 L25.7,-2 C26.5,0.6 26.9,2.8 26.9,4.5 C26.9,5.7 26.7,6.8 26.3,7.6 C25.7,8.7 24.7,9.4 23,9.8 C22.1,10 20.6,10.1 20.6,10.1 C20.1,10.1 19.7,10.2 19.3,10.2 C16.1,10.2 14.1,9 12.7,4.7 C11.5,1 11.3,-0.1 10.4,-4.5"/>
<path class="Clef" transform="matrix(1.89921,0,0,1.89921,108.85,545.669)" d="M63.35,-5.86992 C62.12,-11.3 59.48,-15.1199 58.7,-16.16 C55.51,-20.43 51.5,-23.28 46.81,-24.63 C43.7,-25.5199 40.7,-25.63 38.28,-25.45 C37.24,-31.46 36.24,-37.3399 35.33,-42.7899 C40.78,-48.96 44.4,-54.76 46.68,-59.06 C50.15,-65.6399 51.3,-70.2199 51.35,-70.4199 C53.07,-75.63 53.43,-83.33 52.33,-91.5399 C51.32,-99.0899 49.23,-105.8 46.88,-109.05 C45.85,-110.48 44.8,-111.21 43.76,-111.21 C42.54,-111.21 40.03,-109.97 37.14,-107.2 C34.84,-105 31.57,-101.11 29.01,-95.1 C26.01,-88.0399 25.8,-78.55 26.15,-71.83 C26.53,-64.56 27.64,-58.8699 27.65,-58.8199 C27.67,-58.73 27.93,-57.23 28.38,-54.66 C28.15,-54.43 27.91,-54.21 27.66,-53.9699 C26.62,-52.9699 25.43,-51.83 24.05,-50.45 C23.19,-49.5899 22.24,-48.68 21.24,-47.71 C12.79,-39.5699 0,-27.25 0,-8.1 C0,-3.4 0.9,1.02002 2.67998,5.03008 C4.27002,8.63008 6.57002,11.9101 9.5,14.7801 C17.23,22.3301 27.82,25.54 34.88,25.3801 C37.83,25.3101 40.46,25.07 42.85,24.62 C44.68,34.22 45.82,41.25 45.86,46.59 C45.9,53.1 44.25,57.07 40.35,59.84 C37.92,61.57 35.11,62.52 32.01,62.67 C29.42,62.79 27.16,62.32 25.73,61.9101 L25.72,61.9101 C25.72,61.9101 25.43,61.8301 25.42,61.6301 C25.41,61.45 25.76,61.4 25.77,61.4 L25.79,61.4 C27.71,60.9601 31.28,59.7301 33.64,56.4301 C35.44,53.9101 36.31,49.29 34.47,45.35 C33.36,42.9601 30.85,40.0101 25.23,39.5601 C22.74,39.3601 20.47,39.87 18.47,41.07 C16.66,42.15 15.16,43.79 14.11,45.79 C11.65,50.49 12.11,56.22 15.24,60.0601 C18.2,63.6801 22.82,65.99 28.25,66.57 C29.1,66.6601 29.95,66.7 30.8,66.7 C35.23,66.7 39.63,65.5 43.2,63.29 C46.86,60.72 48.98,56.74 49.66,51.1101 C50.22,46.47 49.83,40.5601 48.43,32.49 C48.07,30.4 47.53,27.37 46.87,23.6101 C52.62,21.69 56.78,18.12 60.55,12.27 C63.84,6.53008 64.78,0.430078 63.35,-5.86992 M29.14,20.32 C24.5,19.1 20.07,16.6 16.31,13.1 C15,11.87 13.13,9.7 11.66,6.31006 C10.29,3.15 9.62998,-0.27998 9.67998,-3.86992 C9.75,-8.55996 11.06,-13.38 13.57,-18.1699 C16.49,-23.75 21.05,-29.28 27.11,-34.61 C28.56,-35.8899 29.93,-37.1699 31.22,-38.45 C31.98,-34.1899 32.81,-29.5 33.69,-24.6199 C29.84,-23.35 25.09,-20.2 21.98,-14.55 C18.44,-7.97998 18.58,-2.45996 19.31,1.02002 C20.25,5.48008 22.78,9.24004 26.24,11.3301 C27.17,11.89 31.3,14.02 33.14,13.44 C33.51,13.32 33.78,13.1 33.92,12.77 C34.43,11.6 33.41,10.9601 31.85,10 C31.25,9.63008 30.58,9.21006 29.85,8.68008 C26.53,6.19004 25.08,1.74004 26.15,-2.63994 C26.73,-5.03994 28.01,-7.2 29.85,-8.9 C31.52,-10.45 33.56,-11.55 35.94,-12.1899 C37.98,-0.95 40.04,10.2 41.68,18.5601 C41.81,19.25 41.95,19.92 42.08,20.59 C37.7,21.52 33.35,21.4301 29.14,20.32 M40.46,-12.86 C50.81,-13.33 55.08,-5.88994 55.97,-1.05996 C56.44,1.47002 56.43,5.91006 54.89,10.12 C53.72,13.3 51.26,17.37 46.13,19.4301 C46.06,19.0101 45.98,18.5801 45.9,18.15 C44.36,9.38008 42.42,-1.60996 40.46,-12.86 M33.14,-83.8 C34.92,-89.5399 37.66,-92.7899 39.65,-94.5199 C41.4,-96.0399 43.05,-96.75 43.97,-96.75 C44.11,-96.75 44.23,-96.73 44.33,-96.7 C44.79,-96.56 45.32,-95.9899 45.79,-95.1199 C48.1,-90.83 47.36,-84.1199 46.02,-79.68 C44.39,-74.28 41.47,-68.66 32.67,-59.05 C32.5,-60.16 32.34,-61.21 32.19,-62.1899 C30.94,-70.48 31.26,-77.75 33.14,-83.8"/>
<path class="Clef" transform="matrix(1.89921,0,0,1.89921,108.85,1414.38)" d="M63.35,-5.86992 C62.12,-11.3 59.48,-15.1199 58.7,-16.16 C55.51,-20.43 51.5,-23.28 46.81,-24.63 C43.7,-25.5199 40.7,-25.63 38.28,-25.45 C37.24,-31.46 36.24,-37.3399 35.33,-42.7899 C40.78,-48.96 44.4,-54.76 46.68,-59.06 C50.15,-65.6399 51.3,-70.2199 51.35,-70.4199 C53.07,-75.63 53.43,-83.33 52.33,-91.5399 C51.32,-99.0899 49.23,-105.8 46.88,-109.05 C45.85,-110.48 44.8,-111.21 43.76,-111.21 C42.54,-111.21 40.03,-109.97 37.14,-107.2 C34.84,-105 31.57,-101.11 29.01,-95.1 C26.01,-88.0399 25.8,-78.55 26.15,-71.83 C26.53,-64.56 27.64,-58.8699 27.65,-58.8199 C27.67,-58.73 27.93,-57.23 28.38,-54.66 C28.15,-54.43 27.91,-54.21 27.66,-53.9699 C26.62,-52.9699 25.43,-51.83 24.05,-50.45 C23.19,-49.5899 22.24,-48.68 21.24,-47.71 C12.79,-39.5699 0,-27.25 0,-8.1 C0,-3.4 0.9,1.02002 2.67998,5.03008 C4.27002,8.63008 6.57002,11.9101 9.5,14.7801 C17.23,22.3301 27.82,25.54 34.88,25.3801 C37.83,25.3101 40.46,25.07 42.85,24.62 C44.68,34.22 45.82,41.25 45.86,46.59 C45.9,53.1 44.25,57.07 40.35,59.84 C37.92,61.57 35.11,62.52 32.01,62.67 C29.42,62.79 27.16,62.32 25.73,61.9101 L25.72,61.9101 C25.72,61.9101 25.43,61.8301 25.42,61.6301 C25.41,61.45 25.76,61.4 25.77,61.4 L25.79,61.4 C27.71,60.9601 31.28,59.7301 33.64,56.4301 C35.44,53.9101 36.31,49.29 34.47,45.35 C33.36,42.9601 30.85,40.0101 25.23,39.5601 C22.74,39.3601 20.47,39.87 18.47,41.07 C16.66,42.15 15.16,43.79 14.11,45.79 C11.65,50.49 12.11,56.22 15.24,60.0601 C18.2,63.6801 22.82,65.99 28.25,66.57 C29.1,66.6601 29.95,66.7 30.8,66.7 C35.23,66.7 39.63,65.5 43.2,63.29 C46.86,60.72 48.98,56.74 49.66,51.1101 C50.22,46.47 49.83,40.5601 48.43,32.49 C48.07,30.4 47.53,27.37 46.87,23.6101 C52.62,21.69 56.78,18.12 60.55,12.27 C63.84,6.53008 64.78,0.430078 63.35,-5.86992 M29.14,20.32 C24.5,19.1 20.07,16.6 16.31,13.1 C15,11.87 13.13,9.7 11.66,6.31006 C10.29,3.15 9.62998,-0.27998 9.67998,-3.86992 C9.75,-8.55996 11.06,-13.38 13.57,-18.1699 C16.49,-23.75 21.05,-29.28 27.11,-34.61 C28.56,-35.8899 29.93,-37.1699 31.22,-38.45 C31.98,-34.1899 32.81,-29.5 33.69,-24.6199 C29.84,-23.35 25.09,-20.2 21.98,-14.55 C18.44,-7.97998 18.58,-2.45996 19.31,1.02002 C20.25,5.48008 22.78,9.24004 26.24,11.3301 C27.17,11.89 31.3,14.02 33.14,13.44 C33.51,13.32 33.78,13.1 33.92,12.77 C34.43,11.6 33.41,10.9601 31.85,10 C31.25,9.63008 30.58,9.21006 29.85,8.68008 C26.53,6.19004 25.08,1.74004 26.15,-2.63994 C26.73,-5.03994 28.01,-7.2 29.85,-8.9 C31.52,-10.45 33.56,-11.55 35.94,-12.1899 C37.98,-0.95 40.04,10.2 41.68,18.5601 C41.81,19.25 41.95,19.92 42.08,20.59 C37.7,21.52 33.35,21.4301 29.14,20.32 M40.46,-12.86 C50.81,-13.33 55.08,-5.88994 55.97,-1.05996 C56.44,1.47002 56.43,5.91006 54.89,10.12 C53.72,13.3 51.26,17.37 46.13,19.4301 C46.06,19.0101 45.98,18.5801 45.9,18.15 C44.36,9.38008 42.42,-1.60996 40.46,-12.86 M33.14,-83.8 C34.92,-89.5399 37.66,-92.7899 39.65,-94.5199 C41.4,-96.0399 43.05,-96.75 43.97,-96.75 C44.11,-96.75 44.23,-96.73 44.33,-96.7 C44.79,-96.56 45.32,-95.9899 45.79,-95.1199 C48.1,-90.83 47.36,-84.1199 46.02,-79.68 C44.39,-74.28 41.47,-68.66 32.67,-59.05 C32.5,-60.16 32.34,-61.21 32.19,-62.1899 C30.94,-70.48 31.26,-77.75 33.14,-83.8"/>
<path class="Clef" transform="matrix(1.89921,0,0,1.89921,108.85,2283.09)" d="M63.35,-5.86992 C62.12,-11.3 59.48,-15.1199 58.7,-16.16 C55.51,-20.43 51.5,-23.28 46.81,-24.63 C43.7,-25.5199 40.7,-25.63 38.28,-25.45 C37.24,-31.46 36.24,-37.3399 35.33,-42.7899 C40.78,-48.96 44.4,-54.76 46.68,-59.06 C50.15,-65.6399 51.3,-70.2199 51.35,-70.4199 C53.07,-75.63 53.43,-83.33 52.33,-91.5399 C51.32,-99.0899 49.23,-105.8 46.88,-109.05 C45.85,-110.48 44.8,-111.21 43.76,-111.21 C42.54,-111.21 40.03,-109.97 37.14,-107.2 C34.84,-105 31.57,-101.11 29.01,-95.1 C26.01,-88.0399 25.8,-78.55 26.15,-71.83 C26.53,-64.56 27.64,-58.8699 27.65,-58.8199 C27.67,-58.73 27.93,-57.23 28.38,-54.66 C28.15,-54.43 27.91,-54.21 27.66,-53.9699 C26.62,-52.9699 25.43,-51.83 24.05,-50.45 C23.19,-49.5899 22.24,-48.68 21.24,-47.71 C12.79,-39.5699 0,-27.25 0,-8.1 C0,-3.4 0.9,1.02002 2.67998,5.03008 C4.27002,8.63008 6.57002,11.9101 9.5,14.7801 C17.23,22.3301 27.82,25.54 34.88,25.3801 C37.83,25.3101 40.46,25.07 42.85,24.62 C44.68,34.22 45.82,41.25 45.86,46.59 C45.9,53.1 44.25,57.07 40.35,59.84 C37.92,61.57 35.11,62.52 32.01,62.67 C29.42,62.79 27.16,62.32 25.73,61.9101 L25.72,61.9101 C25.72,61.9101 25.43,61.8301 25.42,61.6301 C25.41,61.45 25.76,61.4 25.77,61.4 L25.79,61.4 C27.71,60.9601 31.28,59.7301 33.64,56.4301 C35.44,53.9101 36.31,49.29 34.47,45.35 C33.36,42.9601 30.85,40.0101 25.23,39.5601 C22.74,39.3601 20.47,39.87 18.47,41.07 C16.66,42.15 15.16,43.79 14.11,45.79 C11.65,50.49 12.11,56.22 15.24,60.0601 C18.2,63.6801 22.82,65.99 28.25,66.57 C29.1,66.6601 29.95,66.7 30.8,66.7 C35.23,66.7 39.63,65.5 43.2,63.29 C46.86,60.72 48.98,56.74 49.66,51.1101 C50.22,46.47 49.83,40.5601 48.43,32.49 C48.07,30.4 47.53,27.37 46.87,23.6101 C52.62,21.69 56.78,18.12 60.55,12.27 C63.84,6.53008 64.78,0.430078 63.35,-5.86992 M29.14,20.32 C24.5,19.1 20.07,16.6 16.31,13.1 C15,11.87 13.13,9.7 11.66,6.31006 C10.29,3.15 9.62998,-0.27998 9.67998,-3.86992 C9.75,-8.55996 11.06,-13.38 13.57,-18.1699 C16.49,-23.75 21.05,-29.28 27.11,-34.61 C28.56,-35.8899 29.93,-37.1699 31.22,-38.45 C31.98,-34.1899 32.81,-29.5 33.69,-24.6199 C29.84,-23.35 25.09,-20.2 21.98,-14.55 C18.44,-7.97998 18.58,-2.45996 19.31,1.02002 C20.25,5.48008 22.78,9.24004 26.24,11.3301 C27.17,11.89 31.3,14.02 33.14,13.44 C33.51,13.32 33.78,13.1 33.92,12.77 C34.43,11.6 33.41,10.9601 31.85,10 C31.25,9.63008 30.58,9.21006 29.85,8.68008 C26.53,6.19004 25.08,1.74004 26.15,-2.63994 C26.73,-5.03994 28.01,-7.2 29.85,-8.9 C31.52,-10.45 33.56,-11.55 35.94,-12.1899 C37.98,-0.95 40.04,10.2 41.68,18.5601 C41.81,19.25 41.95,19.92 42.08,20.59 C37.7,21.52 33.35,21.4301 29.14,20.32 M40.46,-12.86 C50.81,-13.33 55.08,-5.88994 55.97,-1.05996 C56.44,1.47002 56.43,5.91006 54.89,10.12 C53.72,13.3 51.26,17.37 46.13,19.4301 C46.06,19.0101 45.98,18.5801 45.9,18.15 C44.36,9.38008 42.42,-1.60996 40.46,-12.86 M33.14,-83.8 C34.92,-89.5399 37.66,-92.7899 39.65,-94.5199 C41.4,-96.0399 43.05,-96.75 43.97,-96.75 C44.11,-96.75 44.23,-96.73 44.33,-96.7 C44.79,-96.56 45.32,-95.9899 45.79,-95.1199 C48.1,-90.83 47.36,-84.1199 46.02,-79.68 C44.39,-74.28 41.47,-68.66 32.67,-59.05 C32.5,-60.16 32.34,-61.21 32.19,-62.1899 C30.94,-70.48 31.26,-77.75 33.14,-83.8"/>
<path class="KeySig" transform="matrix(1.89921,0,0,1.89921,325.331,474.449)" d="M23.3,-10.6 C23.9,-10.7 24.4,-11.4 24.4,-12 L24.4,-17.9 C24.4,-18.7 23.8,-19.3 23,-19.3 L22.8,-19.3 L19.5,-18.6 L19.5,-33.5 L16.7,-33.5 L16.7,-18 L7.8,-16.2 L7.8,-30.3 L5,-30.3 L5,-15.6 L1.1,-14.8 C0.5,-14.7 0,-14 0,-13.4 L0,-13.2 L0,-7.4 L0,-7.6 C0,-6.8 0.6,-6.2 1.4,-6.2 L1.7,-6.2 L5,-6.9 L5,9.6 L1.1,10.4 C0.5,10.5 0,11.2 0,11.8 L0,17.6 C0,18.4 0.6,19 1.4,19 L1.7,19 L5,18.3 L5,33.2 L7.8,33.2 L7.8,17.7 L16.7,15.9 L16.7,30 L19.5,30 L19.5,15.3 L23.3,14.6 C23.9,14.5 24.4,13.8 24.4,13.2 L24.4,7.3 C24.4,6.5 23.8,5.9 23,5.9 L22.8,5.9 L19.5,6.6 L19.5,-9.9 L23.3,-10.6 M7.8,9.1 L7.8,-7.5 L16.7,-9.3 L16.7,7.2 L7.8,9.1 "/>
<path class="KeySig" transform="matrix(1.89921,0,0,1.89921,277.85,403.228)" d="M23.3,-10.6 C23.9,-10.7 24.4,-11.4 24.4,-12 L24.4,-17.9 C24.4,-18.7 23.8,-19.3 23,-19.3 L22.8,-19.3 L19.5,-18.6 L19.5,-33.5 L16.7,-33.5 L16.7,-18 L7.8,-16.2 L7.8,-30.3 L5,-30.3 L5,-15.6 L1.1,-14.8 C0.5,-14.7 0,-14 0,-13.4 L0,-13.2 L0,-7.4 L0,-7.6 C0,-6.8 0.6,-6.2 1.4,-6.2 L1.7,-6.2 L5,-6.9 L5,9.6 L1.1,10.4 C0.5,10.5 0,11.2 0,11.8 L0,17.6 C0,18.4 0.6,19 1.4,19 L1.7,19 L5,18.3 L5,33.2 L7.8,33.2 L7.8,17.7 L16.7,15.9 L16.7,30 L19.5,30 L19.5,15.3 L23.3,14.6 C23.9,14.5 24.4,13.8 24.4,13.2 L24.4,7.3 C24.4,6.5 23.8,5.9 23,5.9 L22.8,5.9 L19.5,6.6 L19.5,-9.9 L23.3,-10.6 M7.8,9.1 L7.8,-7.5 L16.7,-9.3 L16.7,7.2 L7.8,9.1 "/>
<path class="KeySig" transform="matrix(1.89921,0,0,1.89921,325.331,1343.16)" d="M23.3,-10.6 C23.9,-10.7 24.4,-11.4 24.4,-12 L24.4,-17.9 C24.4,-18.7 23.8,-19.3 23,-19.3 L22.8,-19.3 L19.5,-18.6 L19.5,-33.5 L16.7,-33.5 L16.7,-18 L7.8,-16.2 L7.8,-30.3 L5,-30.3 L5,-15.6 L1.1,-14.8 C0.5,-14.7 0,-14 0,-13.4 L0,-13.2 L0,-7.4 L0,-7.6 C0,-6.8 0.6,-6.2 1.4,-6.2 L1.7,-6.2 L5,-6.9 L5,9.6 L1.1,10.4 C0.5,10.5 0,11.2 0,11.8 L0,17.6 C0,18.4 0.6,19 1.4,19 L1.7,19 L5,18.3 L5,33.2 L7.8,33.2 L7.8,17.7 L16.7,15.9 L16.7,30 L19.5,30 L19.5,15.3 L23.3,14.6 C23.9,14.5 24.4,13.8 24.4,13.2 L24.4,7.3 C24.4,6.5 23.8,5.9 23,5.9 L22.8,5.9 L19.5,6.6 L19.5,-9.9 L23.3,-10.6 M7.8,9.1 L7.8,-7.5 L16.7,-9.3 L16.7,7.2 L7.8,9.1 "/>
<path class="KeySig" transform="matrix(1.89921,0,0,1.89921,277.85,1271.94)" d="M23.3,-10.6 C23.9,-10.7 24.4,-11.4 24.4,-12 L24.4,-17.9 C24.4,-18.7 23.8,-19.3 23,-19.3 L22.8,-19.3 L19.5,-18.6 L19.5,-33.5 L16.7,-33.5 L16.7,-18 L7.8,-16.2 L7.8,-30.3 L5,-30.3 L5,-15.6 L1.1,-14.8 C0.5,-14.7 0,-14 0,-13.4 L0,-13.2 L0,-7.4 L0,-7.6 C0,-6.8 0.6,-6.2 1.4,-6.2 L1.7,-6.2 L5,-6.9 L5,9.6 L1.1,10.4 C0.5,10.5 0,11.2 0,11.8 L0,17.6 C0,18.4 0.6,19 1.4,19 L1.7,19 L5,18.3 L5,33.2 L7.8,33.2 L7.8,17.7 L16.7,15.9 L16.7,30 L19.5,30 L19.5,15.3 L23.3,14.6 C23.9,14.5 24.4,13.8 24.4,13.2 L24.4,7.3 C24.4,6.5 23.8,5.9 23,5.9 L22.8,5.9 L19.5,6.6 L19.5,-9.9 L23.3,-10.6 M7.8,9.1 L7.8,-7.5 L16.7,-9.3 L16.7,7.2 L7.8,9.1 "/>
<path class="KeySig" transform="matrix(1.89921,0,0,1.89921,325.331,2211.87)" d="M23.3,-10.6 C23.9,-10.7 24.4,-11.4 24.4,-12 L24.4,-17.9 C24.4,-18.7 23.8,-19.3 23,-19.3 L22.8,-19.3 L19.5,-18.6 L19.5,-33.5 L16.7,-33.5 L16.7,-18 L7.8,-16.2 L7.8,-30.3 L5,-30.3 L5,-15.6 L1.1,-14.8 C0.5,-14.7 0,-14 0,-13.4 L0,-13.2 L0,-7.4 L0,-7.6 C0,-6.8 0.6,-6.2 1.4,-6.2 L1.7,-6.2 L5,-6.9 L5,9.6 L1.1,10.4 C0.5,10.5 0,11.2 0,11.8 L0,17.6 C0,18.4 0.6,19 1.4,19 L1.7,19 L5,18.3 L5,33.2 L7.8,33.2 L7.8,17.7 L16.7,15.9 L16.7,30 L19.5,30 L19.5,15.3 L23.3,14.6 C23.9,14.5 24.4,13.8 24.4,13.2 L24.4,7.3 C24.4,6.5 23.8,5.9 23,5.9 L22.8,5.9 L19.5,6.6 L19.5,-9.9 L23.3,-10.6 M7.8,9.1 L7.8,-7.5 L16.7,-9.3 L16.7,7.2 L7.8,9.1 "/>
<path class="KeySig" transform="matrix(1.89921,0,0,1.89921,277.85,2140.65)" d="M23.3,-10.6 C23.9,-10.7 24.4,-11.4 24.4,-12 L24.4,-17.9 C24.4,-18.7 23.8,-19.3 23,-19.3 L22.8,-19.3 L19.5,-18.6 L19.5,-33.5 L16.7,-33.5 L16.7,-18 L7.8,-16.2 L7.8,-30.3 L5,-30.3 L5,-15.6 L1.1,-14.8 C0.5,-14.7 0,-14 0,-13.4 L0,-13.2 L0,-7.4 L0,-7.6 C0,-6.8 0.6,-6.2 1.4,-6.2 L1.7,-6.2 L5,-6.9 L5,9.6 L1.1,10.4 C0.5,10.5 0,11.2 0,11.8 L0,17.6 C0,18.4 0.6,19 1.4,19 L1.7,19 L5,18.3 L5,33.2 L7.8,33.2 L7.8,17.7 L16.7,15.9 L16.7,30 L19.5,30 L19.5,15.3 L23.3,14.6 C23.9,14.5 24.4,13.8 24.4,13.2 L24.4,7.3 C24.4,6.5 23.8,5.9 23,5.9 L22.8,5.9 L19.5,6.6 L19.5,-9.9 L23.3,-10.6 M7.8,9.1 L7.8,-7.5 L16.7,-9.3 L16.7,7.2 L7.8,9.1 "/>
<path class="TimeSig" transform="matrix(1.89921,0,0,1.89921,416.538,450.961)" d="M3.59004,12.65 L20.77,12.65 L20.77,20.07 L12.54,20.07 C11.7601,20.07 11.1301,20.7 11.1301,21.48 L11.1301,23.39 C11.1301,24.17 11.7601,24.8 12.54,24.8 L42.79,24.8 C43.57,24.8 44.2,24.17 44.2,23.39 L44.2,21.48 C44.2,20.7 43.57,20.07 42.79,20.07 L33.85,20.07 L33.85,12.65 L42.79,12.65 C43.57,12.65 44.2,12.02 44.2,11.24 L44.2,9.32998 C44.2,8.55 43.57,7.92002 42.79,7.92002 L33.85,7.92002 L33.85,-8.04004 C33.85,-8.57998 33.55,-9.05996 33.07,-9.3 L31.8601,-9.9 C31.3301,-10.16 30.7,-10.07 30.27,-9.67002 L21.22,-1.35 C20.9301,-1.07998 20.7601,-0.709961 20.7601,-0.309961 L20.7601,7.92002 L9.25,7.92002 C9.25,7.92002 20.37,-4.10996 32.2101,-19.88 C33.0801,-21.03 32.5801,-22.08 32.39,-22.27 L30.22,-24.48 C29.95,-24.74 29.59,-24.89 29.22,-24.89 C28.62,-24.89 15.07,-24.87 14.35,-24.89 C13.6301,-24.91 13.09,-24.29 13.02,-23.67 C13.02,-23.67 12.4801,-16.31 9.88008,-8.17998 C7.28008,-0.0599609 4.34004,4.92002 1.68008,8.55 C1.68008,8.55 1.14004,9.54004 1.5,10.28 C1.85,11.03 2.48008,12.12 2.48008,12.12 C2.48008,12.12 2.74004,12.65 3.59004,12.65"/>
<path class="TimeSig" transform="matrix(1.89921,0,0,1.89921,416.538,545.417)" d="M3.59004,12.65 L20.77,12.65 L20.77,20.07 L12.54,20.07 C11.7601,20.07 11.1301,20.7 11.1301,21.48 L11.1301,23.39 C11.1301,24.17 11.7601,24.8 12.54,24.8 L42.79,24.8 C43.57,24.8 44.2,24.17 44.2,23.39 L44.2,21.48 C44.2,20.7 43.57,20.07 42.79,20.07 L33.85,20.07 L33.85,12.65 L42.79,12.65 C43.57,12.65 44.2,12.02 44.2,11.24 L44.2,9.32998 C44.2,8.55 43.57,7.92002 42.79,7.92002 L33.85,7.92002 L33.85,-8.04004 C33.85,-8.57998 33.55,-9.05996 33.07,-9.3 L31.8601,-9.9 C31.3301,-10.16 30.7,-10.07 30.27,-9.67002 L21.22,-1.35 C20.9301,-1.07998 20.7601,-0.709961 20.7601,-0.309961 L20.7601,7.92002 L9.25,7.92002 C9.25,7.92002 20.37,-4.10996 32.2101,-19.88 C33.0801,-21.03 32.5801,-22.08 32.39,-22.27 L30.22,-24.48 C29.95,-24.74 29.59,-24.89 29.22,-24.89 C28.62,-24.89 15.07,-24.87 14.35,-24.89 C13.6301,-24.91 13.09,-24.29 13.02,-23.67 C13.02,-23.67 12.4801,-16.31 9.88008,-8.17998 C7.28008,-0.0599609 4.34004,4.92002 1.68008,8.55 C1.68008,8.55 1.14004,9.54004 1.5,10.28 C1.85,11.03 2.48008,12.12 2.48008,12.12 C2.48008,12.12 2.74004,12.65 3.59004,12.65"/>
<path class="Rest" transform="matrix(1.89921,0,0,1.89921,3129.65,450.709)" d="M31.1,-0.5 L1.4,-0.5 C0.6,-0.5 0,0.1 0,0.9 L0,11.7 C0,12.5 0.6,13.1 1.4,13.1 L31.1,13.1 C31.9,13.1 32.5,12.5 32.5,11.7 L32.5,0.9 C32.5,0.1 31.9,-0.5 31.1,-0.5"/>
<path class="Rest" transform="matrix(1.89921,0,0,1.89921,2145.81,1319.42)" d="M31.1,-0.5 L1.4,-0.5 C0.6,-0.5 0,0.1 0,0.9 L0,11.7 C0,12.5 0.6,13.1 1.4,13.1 L31.1,13.1 C31.9,13.1 32.5,12.5 32.5,11.7 L32.5,0.9 C32.5,0.1 31.9,-0.5 31.1,-0.5"/>
<path class="Rest" transform="matrix(1.89921,0,0,1.89921,2411.41,1366.9)" d="M26.73,-20.26 C25.9899,-20.5399 25.31,-20.21 24.98,-19.6 C24.65,-18.9899 21.4699,-13.06 17.0399,-9.8 C15.65,-8.77998 14.0699,-8.13994 12.5,-7.80996 C13.6199,-9.06992 14.3,-10.73 14.3,-12.55 C14.3,-16.5 11.1,-19.7 7.15,-19.7 C3.2,-19.7 0,-16.5 0,-12.55 C0,-9.53994 1.86992,-6.95996 4.50996,-5.90996 C6.03994,-5.17998 7.95,-4.73994 10,-4.73994 C12.85,-4.73994 15.96,-5.56992 18.6699,-7.55996 C19.93,-8.48994 21.13,-9.67998 22.21,-10.9399 L10.8199,24.69 L13.46,25.54 L27.53,-18.55 C27.76,-19.28 27.4699,-19.9699 26.73,-20.26"/>
<path class="Rest" transform="matrix(1.89921,0,0,1.89921,3007.38,1366.9)" d="M26.73,-20.26 C25.9899,-20.5399 25.31,-20.21 24.98,-19.6 C24.65,-18.9899 21.4699,-13.06 17.0399,-9.8 C15.65,-8.77998 14.0699,-8.13994 12.5,-7.80996 C13.6199,-9.06992 14.3,-10.73 14.3,-12.55 C14.3,-16.5 11.1,-19.7 7.15,-19.7 C3.2,-19.7 0,-16.5 0,-12.55 C0,-9.53994 1.86992,-6.95996 4.50996,-5.90996 C6.03994,-5.17998 7.95,-4.73994 10,-4.73994 C12.85,-4.73994 15.96,-5.56992 18.6699,-7.55996 C19.93,-8.48994 21.13,-9.67998 22.21,-10.9399 L10.8199,24.69 L13.46,25.54 L27.53,-18.55 C27.76,-19.28 27.4699,-19.9699 26.73,-20.26"/>
<path class="Rest" transform="matrix(1.89921,0,0,1.89921,3603.36,1366.9)" d="M26.73,-20.26 C25.9899,-20.5399 25.31,-20.21 24.98,-19.6 C24.65,-18.9899 21.4699,-13.06 17.0399,-9.8 C15.65,-8.77998 14.0699,-8.13994 12.5,-7.80996 C13.6199,-9.06992 14.3,-10.73 14.3,-12.55 C14.3,-16.5 11.1,-19.7 7.15,-19.7 C3.2,-19.7 0,-16.5 0,-12.55 C0,-9.53994 1.86992,-6.95996 4.50996,-5.90996 C6.03994,-5.17998 7.95,-4.73994 10,-4.73994 C12.85,-4.73994 15.96,-5.56992 18.6699,-7.55996 C19.93,-8.48994 21.13,-9.67998 22.21,-10.9399 L10.8199,24.69 L13.46,25.54 L27.53,-18.55 C27.76,-19.28 27.4699,-19.9699 26.73,-20.26"/>
<path class="Rest" transform="matrix(1.89921,0,0,1.89921,1086.87,2188.13)" d="M31.1,-0.5 L1.4,-0.5 C0.6,-0.5 0,0.1 0,0.9 L0,11.7 C0,12.5 0.6,13.1 1.4,13.1 L31.1,13.1 C31.9,13.1 32.5,12.5 32.5,11.7 L32.5,0.9 C32.5,0.1 31.9,-0.5 31.1,-0.5"/>
<path class="Rest" transform="matrix(1.89921,0,0,1.89921,1353.81,2235.61)" d="M26.73,-20.26 C25.9899,-20.5399 25.31,-20.21 24.98,-19.6 C24.65,-18.9899 21.4699,-13.06 17.0399,-9.8 C15.65,-8.77998 14.0699,-8.13994 12.5,-7.80996 C13.6199,-9.06992 14.3,-10.73 14.3,-12.55 C14.3,-16.5 11.1,-19.7 7.15,-19.7 C3.2,-19.7 0,-16.5 0,-12.55 C0,-9.53994 1.86992,-6.95996 4.50996,-5.90996 C6.03994,-5.17998 7.95,-4.73994 10,-4.73994 C12.85,-4.73994 15.96,-5.56992 18.6699,-7.55996 C19.93,-8.48994 21.13,-9.67998 22.21,-10.9399 L10.8199,24.69 L13.46,25.54 L27.53,-18.55 C27.76,-19.28 27.4699,-19.9699 26.73,-20.26"/>
<path class="Rest" transform="matrix(1.89921,0,0,1.89921,2042.28,2235.61)" d="M26.73,-20.26 C25.9899,-20.5399 25.31,-20.21 24.98,-19.6 C24.65,-18.9899 21.4699,-13.06 17.0399,-9.8 C15.65,-8.77998 14.0699,-8.13994 12.5,-7.80996 C13.6199,-9.06992 14.3,-10.73 14.3,-12.55 C14.3,-16.5 11.1,-19.7 7.15,-19.7 C3.2,-19.7 0,-16.5 0,-12.55 C0,-9.53994 1.86992,-6.95996 4.50996,-5.90996 C6.03994,-5.17998 7.95,-4.73994 10,-4.73994 C12.85,-4.73994 15.96,-5.56992 18.6699,-7.55996 C19.93,-8.48994 21.13,-9.67998 22.21,-10.9399 L10.8199,24.69 L13.46,25.54 L27.53,-18.55 C27.76,-19.28 27.4699,-19.9699 26.73,-20.26"/>
<path class="Rest" transform="matrix(1.89921,0,0,1.89921,2639.6,2235.61)" d="M26.73,-20.26 C25.9899,-20.5399 25.31,-20.21 24.98,-19.6 C24.65,-18.9899 21.4699,-13.06 17.0399,-9.8 C15.65,-8.77998 14.0699,-8.13994 12.5,-7.80996 C13.6199,-9.06992 14.3,-10.73 14.3,-12.55 C14.3,-16.5 11.1,-19.7 7.15,-19.7 C3.2,-19.7 0,-16.5 0,-12.55 C0,-9.53994 1.86992,-6.95996 4.50996,-5.90996 C6.03994,-5.17998 7.95,-4.73994 10,-4.73994 C12.85,-4.73994 15.96,-5.56992 18.6699,-7.55996 C19.93,-8.48994 21.13,-9.67998 22.21,-10.9399 L10.8199,24.69 L13.46,25.54 L27.53,-18.55 C27.76,-19.28 27.4699,-19.9699 26.73,-20.26"/>
<path class="Rest" transform="matrix(1.89921,0,0,1.89921,3924.57,2188.13)" d="M31.1,-0.5 L1.4,-0.5 C0.6,-0.5 0,0.1 0,0.9 L0,11.7 C0,12.5 0.6,13.1 1.4,13.1 L31.1,13.1 C31.9,13.1 32.5,12.5 32.5,11.7 L32.5,0.9 C32.5,0.1 31.9,-0.5 31.1,-0.5"/>
<path class="Beam" fill-rule="evenodd" d="M623.433,392.284 L774.733,355.4 L774.733,379.836 L623.433,416.719 L623.433,392.284 "/>
<path class="Beam" fill-rule="evenodd" d="M774.733,391.011 L713.008,406.058 L713.008,430.493 L774.733,415.446 L774.733,391.011 "/>
<path class="Beam" fill-rule="evenodd" d="M849.747,356.207 L974.768,343.82 L974.768,367.676 L849.747,380.064 L849.747,356.207 "/>
<path class="Beam" fill-rule="evenodd" d="M1374.01,392.284 L1525.31,355.4 L1525.31,379.836 L1374.01,416.719 L1374.01,392.284 "/>
<path class="Beam" fill-rule="evenodd" d="M1525.31,391.011 L1463.58,406.058 L1463.58,430.493 L1525.31,415.446 L1525.31,391.011 "/>
<path class="Beam" fill-rule="evenodd" d="M1600.32,356.207 L1725.34,343.82 L1725.34,367.676 L1600.32,380.064 L1600.32,356.207 "/>
<path class="Beam" fill-rule="evenodd" d="M2068.1,581.109 L2352.63,629.477 L2352.63,653.558 L2068.1,605.19 L2068.1,581.109 "/>
<path class="Beam" fill-rule="evenodd" d="M3509.99,392.284 L3661.29,355.4 L3661.29,379.836 L3509.99,416.719 L3509.99,392.284 "/>
<path class="Beam" fill-rule="evenodd" d="M3661.29,391.011 L3599.57,406.058 L3599.57,430.493 L3661.29,415.446 L3661.29,391.011 "/>
<path class="Beam" fill-rule="evenodd" d="M3736.3,356.207 L3861.32,343.82 L3861.32,367.676 L3736.3,380.064 L3736.3,356.207 "/>
<path class="Beam" fill-rule="evenodd" d="M551.604,1261.05 L689.71,1224.04 L689.71,1248.62 L551.604,1285.63 L551.604,1261.05 "/>
<path class="Beam" fill-rule="evenodd" d="M689.71,1259.65 L627.985,1276.19 L627.985,1300.77 L689.71,1284.23 L689.71,1259.65 "/>
<path class="Beam" fill-rule="evenodd" d="M764.724,1224.96 L878.924,1212.52 L878.924,1236.4 L764.724,1248.84 L764.724,1224.96 "/>
<path class="Beam" fill-rule="evenodd" d="M1192.19,1473.72 L1454.43,1485.83 L1454.43,1509.59 L1192.19,1497.48 L1192.19,1473.72 "/>
<path class="Beam" fill-rule="evenodd" d="M2580.99,1485.48 L2671,1498.09 L2671,1522.06 L2580.99,1509.46 L2580.99,1485.48 "/>
<path class="Beam" fill-rule="evenodd" d="M3176.96,1485.48 L3266.98,1498.09 L3266.98,1522.06 L3176.96,1509.46 L3176.96,1485.48 "/>
<path class="Beam" fill-rule="evenodd" d="M3772.94,1485.48 L3862.95,1498.09 L3862.95,1522.06 L3772.94,1509.46 L3772.94,1485.48 "/>
<path class="Beam" fill-rule="evenodd" d="M1525.53,2354.2 L1616.62,2366.79 L1616.62,2390.76 L1525.53,2378.16 L1525.53,2354.2 "/>
<path class="Beam" fill-rule="evenodd" d="M2212.3,2354.2 L2302.53,2366.8 L2302.53,2390.77 L2212.3,2378.17 L2212.3,2354.2 "/>
<path class="Beam" fill-rule="evenodd" d="M2811.32,2354.2 L2902.41,2366.79 L2902.41,2390.76 L2811.32,2378.16 L2811.32,2354.2 "/>
<path class="Hook" transform="matrix(1.89921,0,0,1.89921,2496.2,1485.6)" d="M2.5,0.4 C2.5,0.2 3.4,-3.2 3.5,-3.5 C3.6,-3.9 5.4,-9.6 9.1,-15.3 C11.8,-19.5 21.3,-31.8 21,-31.8 C21,-31.8 28.4,-41.3 28.9,-54.2 L28.9,-56.5 C28.9,-62.6 28.1,-71.2 24.6,-79.9 C24.2,-80.9 23.8,-81.9 22.7,-81.5 C21.6,-81.1 21.9,-79.9 22.2,-78.8 C24,-71.8 25,-64.6 25,-57.4 C25,-49 22,-44.8 20.2,-41.7 C13.6,-30.6 5,-25.2 0.8,-23.8 C0.3,-23.6 0,-23.2 0,-22.7 L0,-16.5 L0,-0.1 C0,0.6 0.6,1.2 1.3,1.2 C1.8,1.2 2.4,0.8 2.5,0.4"/>
<path class="Hook" transform="matrix(1.89921,0,0,1.89921,3092.17,1485.6)" d="M2.5,0.4 C2.5,0.2 3.4,-3.2 3.5,-3.5 C3.6,-3.9 5.4,-9.6 9.1,-15.3 C11.8,-19.5 21.3,-31.8 21,-31.8 C21,-31.8 28.4,-41.3 28.9,-54.2 L28.9,-56.5 C28.9,-62.6 28.1,-71.2 24.6,-79.9 C24.2,-80.9 23.8,-81.9 22.7,-81.5 C21.6,-81.1 21.9,-79.9 22.2,-78.8 C24,-71.8 25,-64.6 25,-57.4 C25,-49 22,-44.8 20.2,-41.7 C13.6,-30.6 5,-25.2 0.8,-23.8 C0.3,-23.6 0,-23.2 0,-22.7 L0,-16.5 L0,-0.1 C0,0.6 0.6,1.2 1.3,1.2 C1.8,1.2 2.4,0.8 2.5,0.4"/>
<path class="Hook" transform="matrix(1.89921,0,0,1.89921,3688.15,1485.6)" d="M2.5,0.4 C2.5,0.2 3.4,-3.2 3.5,-3.5 C3.6,-3.9 5.4,-9.6 9.1,-15.3 C11.8,-19.5 21.3,-31.8 21,-31.8 C21,-31.8 28.4,-41.3 28.9,-54.2 L28.9,-56.5 C28.9,-62.6 28.1,-71.2 24.6,-79.9 C24.2,-80.9 23.8,-81.9 22.7,-81.5 C21.6,-81.1 21.9,-79.9 22.2,-78.8 C24,-71.8 25,-64.6 25,-57.4 C25,-49 22,-44.8 20.2,-41.7 C13.6,-30.6 5,-25.2 0.8,-23.8 C0.3,-23.6 0,-23.2 0,-22.7 L0,-16.5 L0,-0.1 C0,0.6 0.6,1.2 1.3,1.2 C1.8,1.2 2.4,0.8 2.5,0.4"/>
<path class="Hook" transform="matrix(1.89921,0,0,1.89921,1439.67,2354.31)" d="M2.5,0.4 C2.5,0.2 3.4,-3.2 3.5,-3.5 C3.6,-3.9 5.4,-9.6 9.1,-15.3 C11.8,-19.5 21.3,-31.8 21,-31.8 C21,-31.8 28.4,-41.3 28.9,-54.2 L28.9,-56.5 C28.9,-62.6 28.1,-71.2 24.6,-79.9 C24.2,-80.9 23.8,-81.9 22.7,-81.5 C21.6,-81.1 21.9,-79.9 22.2,-78.8 C24,-71.8 25,-64.6 25,-57.4 C25,-49 22,-44.8 20.2,-41.7 C13.6,-30.6 5,-25.2 0.8,-23.8 C0.3,-23.6 0,-23.2 0,-22.7 L0,-16.5 L0,-0.1 C0,0.6 0.6,1.2 1.3,1.2 C1.8,1.2 2.4,0.8 2.5,0.4"/>
<path class="Hook" transform="matrix(1.89921,0,0,1.89921,2127.29,2354.31)" d="M2.5,0.4 C2.5,0.2 3.4,-3.2 3.5,-3.5 C3.6,-3.9 5.4,-9.6 9.1,-15.3 C11.8,-19.5 21.3,-31.8 21,-31.8 C21,-31.8 28.4,-41.3 28.9,-54.2 L28.9,-56.5 C28.9,-62.6 28.1,-71.2 24.6,-79.9 C24.2,-80.9 23.8,-81.9 22.7,-81.5 C21.6,-81.1 21.9,-79.9 22.2,-78.8 C24,-71.8 25,-64.6 25,-57.4 C25,-49 22,-44.8 20.2,-41.7 C13.6,-30.6 5,-25.2 0.8,-23.8 C0.3,-23.6 0,-23.2 0,-22.7 L0,-16.5 L0,-0.1 C0,0.6 0.6,1.2 1.3,1.2 C1.8,1.2 2.4,0.8 2.5,0.4"/>
<path class="Hook" transform="matrix(1.89921,0,0,1.89921,2725.46,2354.31)" d="M2.5,0.4 C2.5,0.2 3.4,-3.2 3.5,-3.5 C3.6,-3.9 5.4,-9.6 9.1,-15.3 C11.8,-19.5 21.3,-31.8 21,-31.8 C21,-31.8 28.4,-41.3 28.9,-54.2 L28.9,-56.5 C28.9,-62.6 28.1,-71.2 24.6,-79.9 C24.2,-80.9 23.8,-81.9 22.7,-81.5 C21.6,-81.1 21.9,-79.9 22.2,-78.8 C24,-71.8 25,-64.6 25,-57.4 C25,-49 22,-44.8 20.2,-41.7 C13.6,-30.6 5,-25.2 0.8,-23.8 C0.3,-23.6 0,-23.2 0,-22.7 L0,-16.5 L0,-0.1 C0,0.6 0.6,1.2 1.3,1.2 C1.8,1.2 2.4,0.8 2.5,0.4"/>
<path class="Jump" d="M3933.07,2045.69 L3968.35,2045.69 C3977.7,2045.69 3984.84,2044.22 3990.4,2041.07 C4001.01,2035.08 4006.89,2023.11 4006.89,2007.36 C4006.89,1992.87 4001.64,1981.53 3991.98,1975.23 C3986.2,1971.56 3978.43,1969.88 3966.46,1969.88 L3933.07,1969.88 L3933.07,1974.81 L3935.07,1974.81 C3940.95,1974.92 3942.94,1975.23 3943.78,1976.28 C3944.41,1977.23 3944.41,1977.44 3944.41,1982.79 L3944.41,2032.77 C3944.41,2038.13 3944.41,2038.34 3943.78,2039.28 C3942.94,2040.33 3940.95,2040.65 3935.07,2040.75 L3933.07,2040.75 L3933.07,2045.69 M3962.16,2040.75 C3956.8,2040.75 3956.17,2040.12 3956.17,2034.98 L3956.17,1980.69 C3956.17,1975.55 3956.91,1974.81 3962.16,1974.81 L3967.62,1974.81 C3985.57,1974.81 3993.03,1984.58 3993.03,2007.78 C3993.03,2031.3 3986.31,2040.75 3969.3,2040.75 L3962.16,2040.75 M4026.1,2034.03 C4022.43,2034.03 4019.49,2036.97 4019.49,2040.54 C4019.49,2044.22 4022.43,2047.16 4026,2047.16 C4029.67,2047.16 4032.61,2044.22 4032.61,2040.54 C4032.61,2036.97 4029.67,2034.03 4026.1,2034.03 M4108,1969.14 L4104.01,1969.14 L4099.81,1975.34 C4092.14,1969.77 4088.26,1968.3 4081.01,1968.3 C4071.04,1968.3 4062.53,1972.5 4055.5,1980.9 C4048.78,1988.88 4045.63,1997.7 4045.63,2008.52 C4045.63,2031.2 4060.43,2047.26 4081.12,2047.26 C4097.92,2047.26 4108.63,2037.39 4111.04,2019.75 L4106.11,2018.91 C4103.27,2034.56 4095.29,2042.33 4082.38,2042.33 C4066.84,2042.33 4059.49,2031.62 4059.49,2008.94 C4059.49,1996.97 4061.06,1989.09 4064.63,1982.79 C4067.89,1976.91 4074.29,1973.24 4081.12,1973.24 C4088.47,1973.24 4094.98,1977.12 4098.97,1983.84 C4100.96,1987.31 4102.43,1991.19 4104.95,1999.49 L4109.57,1999.49 L4108,1969.14 M4130.55,2034.03 C4126.88,2034.03 4123.94,2036.97 4123.94,2040.54 C4123.94,2044.22 4126.88,2047.16 4130.45,2047.16 C4134.12,2047.16 4137.06,2044.22 4137.06,2040.54 C4137.06,2036.97 4134.12,2034.03 4130.55,2034.03"/>
<path class="RehearsalMark" fill="none" stroke="#000000" stroke-width="7.60" stroke-linecap="square" stroke-linejoin="miter" stroke-miterlimit="2" fill-rule="evenodd" d="M418.989,115.729 L614.16,115.729 L614.16,300.509 L418.989,300.509 L418.989,115.729 "/>
<path class="RehearsalMark" d="M511.46,143.259 L471.508,236.539 C463.412,255.547 456.9,262.411 446.516,263.467 L446.516,272.971 L497.38,272.971 L497.38,263.467 C484.884,262.763 479.956,259.419 479.956,251.323 C479.956,248.331 480.66,245.515 482.596,241.291 L485.412,234.603 L529.236,234.603 L535.924,251.851 C537.86,256.779 538.036,257.659 538.036,259.067 C538.036,262.235 535.572,263.291 527.828,263.291 L524.836,263.467 L524.836,272.971 L586.612,272.971 L586.612,263.467 C576.58,263.115 573.764,261.355 570.068,252.379 L524.836,143.259 L511.46,143.259 M507.764,180.747 L524.836,222.811 L489.988,222.811 L507.764,180.747 "/>
<path class="RehearsalMark" fill="none" stroke="#000000" stroke-width="7.60" stroke-linecap="square" stroke-linejoin="miter" stroke-miterlimit="2" fill-rule="evenodd" d="M2264.85,1010.66 L2446.99,1010.66 L2446.99,1192.8 L2264.85,1192.8 L2264.85,1010.66 "/>
<path class="RehearsalMark" d="M2292.66,1038.19 L2292.66,1047.7 L2295.3,1047.7 C2304.81,1047.7 2308.15,1048.4 2309.74,1050.16 C2310.97,1052.1 2310.97,1052.63 2310.97,1063.54 L2310.97,1139.92 C2310.97,1150.83 2310.97,1151.36 2309.74,1153.12 C2308.15,1155.06 2304.63,1155.76 2295.3,1155.76 L2292.66,1155.76 L2292.66,1165.27 L2363.94,1165.27 C2382.25,1165.27 2391.58,1163.86 2400.73,1159.81 C2411.82,1154.88 2419.21,1143.79 2419.21,1131.83 C2419.21,1119.51 2412.17,1109.83 2399.14,1103.84 C2393.16,1101.03 2388.06,1099.62 2378.73,1098.39 C2387.35,1096.98 2392.28,1095.75 2397.21,1093.46 C2407.77,1088.35 2413.4,1079.91 2413.4,1069.35 C2413.4,1059.31 2408.12,1049.99 2399.5,1045.23 C2389.82,1039.78 2381.37,1038.19 2360.6,1038.19 L2292.66,1038.19 M2342.65,1095.22 L2342.65,1057.91 C2342.3,1050.51 2344.76,1048.05 2352.5,1047.7 L2357.78,1047.7 C2373.27,1047.7 2381.54,1055.44 2381.54,1070.05 C2381.54,1078.67 2378.55,1085.54 2372.92,1089.94 C2368.17,1093.81 2362.18,1095.22 2351.27,1095.22 L2342.65,1095.22 M2342.65,1104.9 L2354.79,1104.9 C2365.88,1104.9 2370.98,1105.95 2375.91,1109.12 C2382.07,1113.17 2385.59,1120.91 2385.59,1130.07 C2385.59,1138.51 2382.42,1146.26 2377.32,1150.48 C2372.92,1154 2367.11,1155.76 2358.66,1155.76 L2353.38,1155.76 C2343.35,1155.41 2342.3,1154.35 2342.65,1144.5 L2342.65,1104.9 "/>
<path class="NoteDot" transform="matrix(1.89921,0,0,1.89921,652.396,569.409)" d="M0,-0.00166016 C0,2.75977 2.23857,4.99834 5,4.99834 C7.76143,4.99834 10,2.75977 10,-0.00166016 C10,-2.76309 7.76143,-5.00166 5,-5.00166 C2.23857,-5.00166 0,-2.76309 0,-0.00166016"/>
<path class="NoteDot" transform="matrix(1.89921,0,0,1.89921,1402.97,569.409)" d="M0,-0.00166016 C0,2.75977 2.23857,4.99834 5,4.99834 C7.76143,4.99834 10,2.75977 10,-0.00166016 C10,-2.76309 7.76143,-5.00166 5,-5.00166 C2.23857,-5.00166 0,-2.76309 0,-0.00166016"/>
<path class="NoteDot" transform="matrix(1.89921,0,0,1.89921,3538.95,569.409)" d="M0,-0.00166016 C0,2.75977 2.23857,4.99834 5,4.99834 C7.76143,4.99834 10,2.75977 10,-0.00166016 C10,-2.76309 7.76143,-5.00166 5,-5.00166 C2.23857,-5.00166 0,-2.76309 0,-0.00166016"/>
<path class="NoteDot" transform="matrix(1.89921,0,0,1.89921,580.567,1438.12)" d="M0,-0.00166016 C0,2.75977 2.23857,4.99834 5,4.99834 C7.76143,4.99834 10,2.75977 10,-0.00166016 C10,-2.76309 7.76143,-5.00166 5,-5.00166 C2.23857,-5.00166 0,-2.76309 0,-0.00166016"/>
</svg>
