<?xml version="1.0" encoding="UTF-8" standalone="no"?>
<svg width="4208.47px" height="2409.45px" viewBox="0 0 4208.47 2409.45"
 xmlns="http://www.w3.org/2000/svg" xmlns:xlink="http://www.w3.org/1999/xlink" version="1.2" baseProfile="tiny">
<title>BONE PIRATA</title>
<desc>Generated by MuseScore 3.6.2</desc>
<polyline class="StaffLines" fill="none" stroke="#000000" stroke-width="5.94" stroke-linejoin="bevel" points="70.866,707.452 4137.61,707.452"/>
<polyline class="StaffLines" fill="none" stroke="#000000" stroke-width="5.94" stroke-linejoin="bevel" points="70.866,761.452 4137.61,761.452"/>
<polyline class="StaffLines" fill="none" stroke="#000000" stroke-width="5.94" stroke-linejoin="bevel" points="70.866,815.452 4137.61,815.452"/>
<polyline class="StaffLines" fill="none" stroke="#000000" stroke-width="5.94" stroke-linejoin="bevel" points="70.866,869.452 4137.61,869.452"/>
<polyline class="StaffLines" fill="none" stroke="#000000" stroke-width="5.94" stroke-linejoin="bevel" points="70.866,923.452 4137.61,923.452"/>
<polyline class="StaffLines" fill="none" stroke="#000000" stroke-width="5.94" stroke-linejoin="bevel" points="70.866,1828.39 4137.61,1828.39"/>
<polyline class="StaffLines" fill="none" stroke="#000000" stroke-width="5.94" stroke-linejoin="bevel" points="70.866,1882.39 4137.61,1882.39"/>
<polyline class="StaffLines" fill="none" stroke="#000000" stroke-width="5.94" stroke-linejoin="bevel" points="70.866,1936.39 4137.61,1936.39"/>
<polyline class="StaffLines" fill="none" stroke="#000000" stroke-width="5.94" stroke-linejoin="bevel" points="70.866,1990.39 4137.61,1990.39"/>
<polyline class="StaffLines" fill="none" stroke="#000000" stroke-width="5.94" stroke-linejoin="bevel" points="70.866,2044.39 4137.61,2044.39"/>
<path class="MeasureNumber" d="M87.2254,1692.07 L86.0691,1692.07 C83.866,1693.72 79.6316,1695.11 76.741,1695.11 L76.2722,1696.87 L79.0222,1696.87 C81.4597,1696.87 81.741,1696.95 81.741,1697.67 C81.741,1698.03 81.741,1698.03 81.3504,1699.47 L77.0691,1715.47 C76.5379,1717.47 76.5066,1717.59 76.1472,1717.95 C75.741,1718.34 74.8972,1718.47 72.7879,1718.51 L71.0691,1718.51 L70.866,1720.39 L85.6629,1720.39 L85.8972,1718.51 L83.741,1718.51 C81.1472,1718.51 80.5847,1718.31 80.5847,1717.43 C80.5847,1717.15 80.741,1716.23 80.9441,1715.47 L87.2254,1692.07 M97.4129,1707 C98.1004,1703.47 98.8972,1701.28 100.413,1698.59 C102.225,1695.43 104.382,1693.82 106.772,1693.82 C108.022,1693.82 108.772,1694.31 108.772,1695.07 C108.772,1695.36 108.694,1695.51 108.413,1696.03 C108.053,1696.72 107.897,1697.18 107.897,1697.79 C107.897,1699.07 108.85,1699.95 110.21,1699.95 C111.85,1699.95 112.975,1698.75 112.975,1696.95 C112.975,1694.23 110.413,1692.23 106.85,1692.23 C103.1,1692.23 99.741,1694.23 97.0222,1698.07 C94.2254,1702.03 92.5379,1707.11 92.5379,1711.54 C92.5379,1717.43 95.4597,1720.98 100.335,1720.98 C103.335,1720.98 106.022,1719.79 107.944,1717.67 C109.694,1715.67 110.772,1712.79 110.772,1710.15 C110.772,1706.07 108.022,1703.23 104.022,1703.23 C101.225,1703.23 99.0535,1704.43 97.4129,1707 M102.741,1705.54 C105.225,1705.54 106.585,1707.26 106.585,1710.39 C106.585,1715.47 103.897,1719.34 100.335,1719.34 C97.7722,1719.34 96.2566,1717.47 96.2566,1714.26 C96.2566,1709.26 99.0222,1705.54 102.741,1705.54"/>
<path class="TieSegment" stroke="#000000" stroke-width="3.78" stroke-linecap="round" stroke-linejoin="round" fill-rule="evenodd" d="M1151.76,558.952 C1210.11,507.048 1385.15,507.048 1443.5,558.952 C1385.15,522.168 1210.11,522.168 1151.76,558.952"/>
<path class="TieSegment" stroke="#000000" stroke-width="3.78" stroke-linecap="round" stroke-linejoin="round" fill-rule="evenodd" d="M2258.64,639.952 C2302.81,598.823 2435.32,598.823 2479.49,639.952 C2435.32,613.943 2302.81,613.943 2258.64,639.952"/>
<path class="TieSegment" stroke="#000000" stroke-width="3.78" stroke-linecap="round" stroke-linejoin="round" fill-rule="evenodd" d="M1047.17,1868.89 C1091.6,1827.56 1224.87,1827.56 1269.29,1868.89 C1224.87,1842.68 1091.6,1842.68 1047.17,1868.89"/>
<path class="TieSegment" stroke="#000000" stroke-width="3.78" stroke-linecap="round" stroke-linejoin="round" fill-rule="evenodd" d="M3497.8,1833.55 C3544.28,1790.67 3683.73,1790.67 3730.22,1833.55 C3683.73,1805.79 3544.28,1805.79 3497.8,1833.55"/>
<polyline class="BarLine" stroke="#000000" stroke-width="9.72" stroke-linejoin="bevel" points="798.211,704.482 798.211,926.422"/>
<polyline class="BarLine" stroke="#000000" stroke-width="9.72" stroke-linejoin="bevel" points="1319.57,704.482 1319.57,926.422"/>
<polyline class="BarLine" stroke="#000000" stroke-width="9.72" stroke-linejoin="bevel" points="1772.13,704.482 1772.13,926.422"/>
<polyline class="BarLine" stroke="#000000" stroke-width="9.72" stroke-linejoin="bevel" points="2374.47,704.482 2374.47,926.422"/>
<polyline class="BarLine" stroke="#000000" stroke-width="29.70" stroke-linejoin="bevel" points="2869.93,704.482 2869.93,926.422"/>
<polyline class="BarLine" stroke="#000000" stroke-width="9.72" stroke-linejoin="bevel" points="2907.73,704.482 2907.73,926.422"/>
<path class="BarLine" transform="matrix(2.16,0,0,2.16,2934.29,788.452)" d="M10.4063,0 C10.4063,-2.90625 8.09375,-5.29688 5.20313,-5.29688 C2.29688,-5.29688 0,-2.90625 0,0 C0,2.90625 2.29688,5.29688 5.20313,5.29688 C8.09375,5.29688 10.4063,2.90625 10.4063,0"/>
<path class="BarLine" transform="matrix(2.16,0,0,2.16,2934.29,842.452)" d="M10.4063,0 C10.4063,-2.90625 8.09375,-5.29688 5.20313,-5.29688 C2.29688,-5.29688 0,-2.90625 0,0 C0,2.90625 2.29688,5.29688 5.20313,5.29688 C8.09375,5.29688 10.4063,2.90625 10.4063,0"/>
<polyline class="BarLine" stroke="#000000" stroke-width="9.72" stroke-linejoin="bevel" points="3409.09,704.482 3409.09,926.422"/>
<polyline class="BarLine" stroke="#000000" stroke-width="9.72" stroke-linejoin="bevel" points="3797.39,704.482 3797.39,926.422"/>
<polyline class="BarLine" stroke="#000000" stroke-width="9.72" stroke-linejoin="bevel" points="4132.75,704.482 4132.75,926.422"/>
<polyline class="BarLine" stroke="#000000" stroke-width="9.72" stroke-linejoin="bevel" points="886.972,1825.42 886.972,2047.36"/>
<polyline class="BarLine" stroke="#000000" stroke-width="9.72" stroke-linejoin="bevel" points="1697.25,1825.42 1697.25,2047.36"/>
<polyline class="BarLine" stroke="#000000" stroke-width="9.72" stroke-linejoin="bevel" points="2118.87,1825.42 2118.87,2047.36"/>
<polyline class="BarLine" stroke="#000000" stroke-width="9.72" stroke-linejoin="bevel" points="2781.94,1825.42 2781.94,2047.36"/>
<polyline class="BarLine" stroke="#000000" stroke-width="9.72" stroke-linejoin="bevel" points="3203.57,1825.42 3203.57,2047.36"/>
<polyline class="BarLine" stroke="#000000" stroke-width="9.72" stroke-linejoin="bevel" points="3625.19,1825.42 3625.19,2047.36"/>
<path class="BarLine" transform="matrix(2.16,0,0,2.16,4041.96,1909.39)" d="M10.4063,0 C10.4063,-2.90625 8.09375,-5.29688 5.20313,-5.29688 C2.29688,-5.29688 0,-2.90625 0,0 C0,2.90625 2.29688,5.29688 5.20313,5.29688 C8.09375,5.29688 10.4063,2.90625 10.4063,0"/>
<path class="BarLine" transform="matrix(2.16,0,0,2.16,4041.96,1963.39)" d="M10.4063,0 C10.4063,-2.90625 8.09375,-5.29688 5.20313,-5.29688 C2.29688,-5.29688 0,-2.90625 0,0 C0,2.90625 2.29688,5.29688 5.20313,5.29688 C8.09375,5.29688 10.4063,2.90625 10.4063,0"/>
<polyline class="BarLine" stroke="#000000" stroke-width="9.72" stroke-linejoin="bevel" points="4090.99,1825.42 4090.99,2047.36"/>
<polyline class="BarLine" stroke="#000000" stroke-width="29.70" stroke-linejoin="bevel" points="4128.79,1825.42 4128.79,2047.36"/>
<path class="Accidental" transform="matrix(2.16,0,0,2.16,1029.9,599.452)" d="M20.0938,-7.90625 C19.5,-11.7969 17.0938,-15.5 12,-15.5 C7,-15.5 4.09375,-12.4063 3.59375,-11.7969 L4,-43.9063 C4,-44.7031 3.40625,-45.2969 2.59375,-45.2969 L1.40625,-45.2969 C0.59375,-45.2969 0,-44.7031 0,-43.9063 L0.5,16.2031 C0.5,17 1.09375,17.5938 1.90625,17.5938 C2.09375,17.5938 2.5,17.5 2.70313,17.4063 C3.09375,17.2031 9.59375,14 15,7.90625 C18.7969,3.59375 20.2969,-1.29688 20.2969,-5.40625 C20.2969,-6.29688 20.2031,-7.09375 20.0938,-7.90625 M13.2031,-4 C13.2031,-2.5 12.7969,2.09375 10.2969,5.90625 C8.59375,8.5 5.20313,11.2031 3.29688,12.7031 L3.59375,-6.79688 C3.79688,-7.70313 5.29688,-10.5938 9.29688,-10.5938 C12.9063,-10.5938 13.2031,-7.20313 13.2031,-5.09375 L13.2031,-4 "/>
<path class="Accidental" transform="matrix(2.16,0,0,2.16,2024.32,680.452)" d="M20.0938,-7.90625 C19.5,-11.7969 17.0938,-15.5 12,-15.5 C7,-15.5 4.09375,-12.4063 3.59375,-11.7969 L4,-43.9063 C4,-44.7031 3.40625,-45.2969 2.59375,-45.2969 L1.40625,-45.2969 C0.59375,-45.2969 0,-44.7031 0,-43.9063 L0.5,16.2031 C0.5,17 1.09375,17.5938 1.90625,17.5938 C2.09375,17.5938 2.5,17.5 2.70313,17.4063 C3.09375,17.2031 9.59375,14 15,7.90625 C18.7969,3.59375 20.2969,-1.29688 20.2969,-5.40625 C20.2969,-6.29688 20.2031,-7.09375 20.0938,-7.90625 M13.2031,-4 C13.2031,-2.5 12.7969,2.09375 10.2969,5.90625 C8.59375,8.5 5.20313,11.2031 3.29688,12.7031 L3.59375,-6.79688 C3.79688,-7.70313 5.29688,-10.5938 9.29688,-10.5938 C12.9063,-10.5938 13.2031,-7.20313 13.2031,-5.09375 L13.2031,-4 "/>
<path class="Accidental" transform="matrix(2.16,0,0,2.16,3859.82,788.452)" d="M20.0938,-7.90625 C19.5,-11.7969 17.0938,-15.5 12,-15.5 C7,-15.5 4.09375,-12.4063 3.59375,-11.7969 L4,-43.9063 C4,-44.7031 3.40625,-45.2969 2.59375,-45.2969 L1.40625,-45.2969 C0.59375,-45.2969 0,-44.7031 0,-43.9063 L0.5,16.2031 C0.5,17 1.09375,17.5938 1.90625,17.5938 C2.09375,17.5938 2.5,17.5 2.70313,17.4063 C3.09375,17.2031 9.59375,14 15,7.90625 C18.7969,3.59375 20.2969,-1.29688 20.2969,-5.40625 C20.2969,-6.29688 20.2031,-7.09375 20.0938,-7.90625 M13.2031,-4 C13.2031,-2.5 12.7969,2.09375 10.2969,5.90625 C8.59375,8.5 5.20313,11.2031 3.29688,12.7031 L3.59375,-6.79688 C3.79688,-7.70313 5.29688,-10.5938 9.29688,-10.5938 C12.9063,-10.5938 13.2031,-7.20313 13.2031,-5.09375 L13.2031,-4 "/>
<path class="Accidental" transform="matrix(2.16,0,0,2.16,944.212,1909.39)" d="M20.0938,-7.90625 C19.5,-11.7969 17.0938,-15.5 12,-15.5 C7,-15.5 4.09375,-12.4063 3.59375,-11.7969 L4,-43.9063 C4,-44.7031 3.40625,-45.2969 2.59375,-45.2969 L1.40625,-45.2969 C0.59375,-45.2969 0,-44.7031 0,-43.9063 L0.5,16.2031 C0.5,17 1.09375,17.5938 1.90625,17.5938 C2.09375,17.5938 2.5,17.5 2.70313,17.4063 C3.09375,17.2031 9.59375,14 15,7.90625 C18.7969,3.59375 20.2969,-1.29688 20.2969,-5.40625 C20.2969,-6.29688 20.2031,-7.09375 20.0938,-7.90625 M13.2031,-4 C13.2031,-2.5 12.7969,2.09375 10.2969,5.90625 C8.59375,8.5 5.20313,11.2031 3.29688,12.7031 L3.59375,-6.79688 C3.79688,-7.70313 5.29688,-10.5938 9.29688,-10.5938 C12.9063,-10.5938 13.2031,-7.20313 13.2031,-5.09375 L13.2031,-4 "/>
<path class="Accidental" transform="matrix(2.16,0,0,2.16,1478.46,1855.39)" d="M20.0938,-7.90625 C19.5,-11.7969 17.0938,-15.5 12,-15.5 C7,-15.5 4.09375,-12.4063 3.59375,-11.7969 L4,-43.9063 C4,-44.7031 3.40625,-45.2969 2.59375,-45.2969 L1.40625,-45.2969 C0.59375,-45.2969 0,-44.7031 0,-43.9063 L0.5,16.2031 C0.5,17 1.09375,17.5938 1.90625,17.5938 C2.09375,17.5938 2.5,17.5 2.70313,17.4063 C3.09375,17.2031 9.59375,14 15,7.90625 C18.7969,3.59375 20.2969,-1.29688 20.2969,-5.40625 C20.2969,-6.29688 20.2031,-7.09375 20.0938,-7.90625 M13.2031,-4 C13.2031,-2.5 12.7969,2.09375 10.2969,5.90625 C8.59375,8.5 5.20313,11.2031 3.29688,12.7031 L3.59375,-6.79688 C3.79688,-7.70313 5.29688,-10.5938 9.29688,-10.5938 C12.9063,-10.5938 13.2031,-7.20313 13.2031,-5.09375 L13.2031,-4 "/>
<path class="Accidental" transform="matrix(2.16,0,0,2.16,2176.11,1801.39)" d="M20.0938,-7.90625 C19.5,-11.7969 17.0938,-15.5 12,-15.5 C7,-15.5 4.09375,-12.4063 3.59375,-11.7969 L4,-43.9063 C4,-44.7031 3.40625,-45.2969 2.59375,-45.2969 L1.40625,-45.2969 C0.59375,-45.2969 0,-44.7031 0,-43.9063 L0.5,16.2031 C0.5,17 1.09375,17.5938 1.90625,17.5938 C2.09375,17.5938 2.5,17.5 2.70313,17.4063 C3.09375,17.2031 9.59375,14 15,7.90625 C18.7969,3.59375 20.2969,-1.29688 20.2969,-5.40625 C20.2969,-6.29688 20.2031,-7.09375 20.0938,-7.90625 M13.2031,-4 C13.2031,-2.5 12.7969,2.09375 10.2969,5.90625 C8.59375,8.5 5.20313,11.2031 3.29688,12.7031 L3.59375,-6.79688 C3.79688,-7.70313 5.29688,-10.5938 9.29688,-10.5938 C12.9063,-10.5938 13.2031,-7.20313 13.2031,-5.09375 L13.2031,-4 "/>
<polyline class="LedgerLine" stroke="#000000" stroke-width="8.64" stroke-linejoin="bevel" points="617.868,653.452 725.851,653.452"/>
<polyline class="LedgerLine" stroke="#000000" stroke-width="8.64" stroke-linejoin="bevel" points="617.868,599.452 725.851,599.452"/>
<polyline class="LedgerLine" stroke="#000000" stroke-width="8.64" stroke-linejoin="bevel" points="878.671,653.452 986.654,653.452"/>
<polyline class="LedgerLine" stroke="#000000" stroke-width="8.64" stroke-linejoin="bevel" points="878.671,599.452 986.654,599.452"/>
<polyline class="LedgerLine" stroke="#000000" stroke-width="8.64" stroke-linejoin="bevel" points="1087.24,653.452 1195.23,653.452"/>
<polyline class="LedgerLine" stroke="#000000" stroke-width="8.64" stroke-linejoin="bevel" points="1087.24,599.452 1195.23,599.452"/>
<polyline class="LedgerLine" stroke="#000000" stroke-width="8.64" stroke-linejoin="bevel" points="1400.03,653.452 1508.02,653.452"/>
<polyline class="LedgerLine" stroke="#000000" stroke-width="8.64" stroke-linejoin="bevel" points="1400.03,599.452 1508.02,599.452"/>
<polyline class="LedgerLine" stroke="#000000" stroke-width="8.64" stroke-linejoin="bevel" points="1574.2,653.452 1682.18,653.452"/>
<polyline class="LedgerLine" stroke="#000000" stroke-width="8.64" stroke-linejoin="bevel" points="1852.59,653.452 1960.57,653.452"/>
<polyline class="Stem" stroke="#000000" stroke-width="5.94" stroke-linejoin="bevel" points="639.738,579.71 639.738,815.452"/>
<polyline class="Stem" stroke="#000000" stroke-width="5.94" stroke-linejoin="bevel" points="900.541,606.71 900.541,815.452"/>
<polyline class="Stem" stroke="#000000" stroke-width="5.94" stroke-linejoin="bevel" points="1109.11,606.71 1109.11,815.452"/>
<polyline class="Stem" stroke="#000000" stroke-width="5.94" stroke-linejoin="bevel" points="1421.9,606.71 1421.9,815.452"/>
<polyline class="Stem" stroke="#000000" stroke-width="5.94" stroke-linejoin="bevel" points="1596.07,633.71 1596.07,815.452"/>
<polyline class="Stem" stroke="#000000" stroke-width="5.94" stroke-linejoin="bevel" points="1874.46,660.71 1874.46,842.452"/>
<polyline class="Stem" stroke="#000000" stroke-width="5.94" stroke-linejoin="bevel" points="2084.63,687.71 2084.63,869.452"/>
<polyline class="Stem" stroke="#000000" stroke-width="5.94" stroke-linejoin="bevel" points="2216,687.71 2216,869.452"/>
<polyline class="Stem" stroke="#000000" stroke-width="5.94" stroke-linejoin="bevel" points="2457.9,687.71 2457.9,869.452"/>
<polyline class="Stem" stroke="#000000" stroke-width="5.94" stroke-linejoin="bevel" points="3492.52,768.71 3492.52,943.702"/>
<polyline class="Stem" stroke="#000000" stroke-width="5.94" stroke-linejoin="bevel" points="3638.91,795.71 3638.91,963.952"/>
<polyline class="Stem" stroke="#000000" stroke-width="5.94" stroke-linejoin="bevel" points="341.457,1862.64 341.457,2044.39"/>
<polyline class="Stem" stroke="#000000" stroke-width="5.94" stroke-linejoin="bevel" points="599.484,1889.64 599.484,2064.64"/>
<polyline class="Stem" stroke="#000000" stroke-width="5.94" stroke-linejoin="bevel" points="1004.52,1916.64 1004.52,2084.89"/>
<polyline class="Stem" stroke="#000000" stroke-width="5.94" stroke-linejoin="bevel" points="1247.7,1916.64 1247.7,2084.89"/>
<polyline class="Stem" stroke="#000000" stroke-width="5.94" stroke-linejoin="bevel" points="1383.17,1862.64 1383.17,2066.04"/>
<polyline class="Stem" stroke="#000000" stroke-width="5.94" stroke-linejoin="bevel" points="1538.78,1862.64 1538.78,2044.39"/>
<polyline class="Stem" stroke="#000000" stroke-width="5.94" stroke-linejoin="bevel" points="1780.68,1862.64 1780.68,2044.39"/>
<polyline class="Stem" stroke="#000000" stroke-width="5.94" stroke-linejoin="bevel" points="1948.83,1835.64 1948.83,2017.39"/>
<polyline class="Stem" stroke="#000000" stroke-width="5.94" stroke-linejoin="bevel" points="2236.43,1808.64 2236.43,1990.39"/>
<polyline class="Stem" stroke="#000000" stroke-width="5.94" stroke-linejoin="bevel" points="2365.44,1835.64 2365.44,2017.39"/>
<polyline class="Stem" stroke="#000000" stroke-width="5.94" stroke-linejoin="bevel" points="2494.45,1862.64 2494.45,2044.39"/>
<polyline class="Stem" stroke="#000000" stroke-width="5.94" stroke-linejoin="bevel" points="2623.47,1889.64 2623.47,2064.64"/>
<polyline class="Stem" stroke="#000000" stroke-width="5.94" stroke-linejoin="bevel" points="2865.37,1862.64 2865.37,2044.39"/>
<polyline class="Stem" stroke="#000000" stroke-width="5.94" stroke-linejoin="bevel" points="3033.52,1835.64 3033.52,2017.39"/>
<polyline class="Stem" stroke="#000000" stroke-width="5.94" stroke-linejoin="bevel" points="3287,1862.64 3287,2044.39"/>
<polyline class="Stem" stroke="#000000" stroke-width="5.94" stroke-linejoin="bevel" points="3455.15,1889.64 3455.15,2064.64"/>
<polyline class="Stem" stroke="#000000" stroke-width="5.94" stroke-linejoin="bevel" points="3708.62,1889.64 3708.62,2064.64"/>
<path class="Note" transform="matrix(2.16,0,0,2.16,636.768,572.452)" d="M31.5,-8.14063 C29.7031,-11.4375 25.9063,-13.2344 21.2969,-13.2344 C17.9063,-13.2344 14.2031,-12.2344 10.5938,-10.3438 C4,-6.84375 0,-0.9375 0,4.15625 C0,5.5625 0.296875,6.96875 1,8.26563 C2.79688,11.5781 6.59375,13.2813 11.2031,13.2813 C14.5938,13.2813 18.2969,12.375 21.9063,10.4844 C28.5,6.96875 32.5,1.0625 32.5,-4.04688 C32.5,-5.4375 32.2031,-6.84375 31.5,-8.14063 M27.2031,-1.34375 C25.5,0.359375 22.0938,2.45313 18.5,4.46875 C14.9063,6.46875 11.2969,7.96875 8.90625,8.46875 C8.40625,8.57813 7.90625,8.67188 7.40625,8.67188 C5.79688,8.67188 4.59375,8.07813 3.90625,6.76563 C3.59375,6.26563 3.40625,5.67188 3.40625,5.0625 C3.40625,3.96875 4.09375,2.65625 5.20313,1.5625 C6.90625,-0.140625 10.2031,-2.23438 13.7969,-4.23438 C17.4063,-6.23438 21,-7.73438 23.4063,-8.23438 C23.9063,-8.34375 24.4063,-8.4375 24.9063,-8.4375 C26.5,-8.4375 27.7969,-7.84375 28.5,-6.54688 C28.7969,-6.04688 28.9063,-5.4375 28.9063,-4.84375 C28.9063,-3.73438 28.2969,-2.54688 27.2031,-1.34375"/>
<path class="Note" transform="matrix(2.16,0,0,2.16,897.571,599.452)" d="M31.5,-8.14063 C29.7031,-11.4375 25.9063,-13.2344 21.2969,-13.2344 C17.9063,-13.2344 14.2031,-12.2344 10.5938,-10.3438 C4,-6.84375 0,-0.9375 0,4.15625 C0,5.5625 0.296875,6.96875 1,8.26563 C2.79688,11.5781 6.59375,13.2813 11.2031,13.2813 C14.5938,13.2813 18.2969,12.375 21.9063,10.4844 C28.5,6.96875 32.5,1.0625 32.5,-4.04688 C32.5,-5.4375 32.2031,-6.84375 31.5,-8.14063 M27.2031,-1.34375 C25.5,0.359375 22.0938,2.45313 18.5,4.46875 C14.9063,6.46875 11.2969,7.96875 8.90625,8.46875 C8.40625,8.57813 7.90625,8.67188 7.40625,8.67188 C5.79688,8.67188 4.59375,8.07813 3.90625,6.76563 C3.59375,6.26563 3.40625,5.67188 3.40625,5.0625 C3.40625,3.96875 4.09375,2.65625 5.20313,1.5625 C6.90625,-0.140625 10.2031,-2.23438 13.7969,-4.23438 C17.4063,-6.23438 21,-7.73438 23.4063,-8.23438 C23.9063,-8.34375 24.4063,-8.4375 24.9063,-8.4375 C26.5,-8.4375 27.7969,-7.84375 28.5,-6.54688 C28.7969,-6.04688 28.9063,-5.4375 28.9063,-4.84375 C28.9063,-3.73438 28.2969,-2.54688 27.2031,-1.34375"/>
<path class="Note" transform="matrix(2.16,0,0,2.16,1106.14,599.452)" d="M31.5,-8.14063 C29.7031,-11.4375 25.9063,-13.2344 21.2969,-13.2344 C17.9063,-13.2344 14.2031,-12.2344 10.5938,-10.3438 C4,-6.84375 0,-0.9375 0,4.15625 C0,5.5625 0.296875,6.96875 1,8.26563 C2.79688,11.5781 6.59375,13.2813 11.2031,13.2813 C14.5938,13.2813 18.2969,12.375 21.9063,10.4844 C28.5,6.96875 32.5,1.0625 32.5,-4.04688 C32.5,-5.4375 32.2031,-6.84375 31.5,-8.14063 M27.2031,-1.34375 C25.5,0.359375 22.0938,2.45313 18.5,4.46875 C14.9063,6.46875 11.2969,7.96875 8.90625,8.46875 C8.40625,8.57813 7.90625,8.67188 7.40625,8.67188 C5.79688,8.67188 4.59375,8.07813 3.90625,6.76563 C3.59375,6.26563 3.40625,5.67188 3.40625,5.0625 C3.40625,3.96875 4.09375,2.65625 5.20313,1.5625 C6.90625,-0.140625 10.2031,-2.23438 13.7969,-4.23438 C17.4063,-6.23438 21,-7.73438 23.4063,-8.23438 C23.9063,-8.34375 24.4063,-8.4375 24.9063,-8.4375 C26.5,-8.4375 27.7969,-7.84375 28.5,-6.54688 C28.7969,-6.04688 28.9063,-5.4375 28.9063,-4.84375 C28.9063,-3.73438 28.2969,-2.54688 27.2031,-1.34375"/>
<path class="Note" transform="matrix(2.16,0,0,2.16,1418.93,599.452)" d="M31.5,-8.14063 C29.7031,-11.4375 25.9063,-13.2344 21.2969,-13.2344 C17.9063,-13.2344 14.2031,-12.2344 10.5938,-10.3438 C4,-6.84375 0,-0.9375 0,4.15625 C0,5.5625 0.296875,6.96875 1,8.26563 C2.79688,11.5781 6.59375,13.2813 11.2031,13.2813 C14.5938,13.2813 18.2969,12.375 21.9063,10.4844 C28.5,6.96875 32.5,1.0625 32.5,-4.04688 C32.5,-5.4375 32.2031,-6.84375 31.5,-8.14063 M27.2031,-1.34375 C25.5,0.359375 22.0938,2.45313 18.5,4.46875 C14.9063,6.46875 11.2969,7.96875 8.90625,8.46875 C8.40625,8.57813 7.90625,8.67188 7.40625,8.67188 C5.79688,8.67188 4.59375,8.07813 3.90625,6.76563 C3.59375,6.26563 3.40625,5.67188 3.40625,5.0625 C3.40625,3.96875 4.09375,2.65625 5.20313,1.5625 C6.90625,-0.140625 10.2031,-2.23438 13.7969,-4.23438 C17.4063,-6.23438 21,-7.73438 23.4063,-8.23438 C23.9063,-8.34375 24.4063,-8.4375 24.9063,-8.4375 C26.5,-8.4375 27.7969,-7.84375 28.5,-6.54688 C28.7969,-6.04688 28.9063,-5.4375 28.9063,-4.84375 C28.9063,-3.73438 28.2969,-2.54688 27.2031,-1.34375"/>
<path class="Note" transform="matrix(2.16,0,0,2.16,1593.1,626.452)" d="M31.5,-8.14063 C29.7031,-11.4375 25.9063,-13.2344 21.2969,-13.2344 C17.9063,-13.2344 14.2031,-12.2344 10.5938,-10.3438 C4,-6.84375 0,-0.9375 0,4.15625 C0,5.5625 0.296875,6.96875 1,8.26563 C2.79688,11.5781 6.59375,13.2813 11.2031,13.2813 C14.5938,13.2813 18.2969,12.375 21.9063,10.4844 C28.5,6.96875 32.5,1.0625 32.5,-4.04688 C32.5,-5.4375 32.2031,-6.84375 31.5,-8.14063 M27.2031,-1.34375 C25.5,0.359375 22.0938,2.45313 18.5,4.46875 C14.9063,6.46875 11.2969,7.96875 8.90625,8.46875 C8.40625,8.57813 7.90625,8.67188 7.40625,8.67188 C5.79688,8.67188 4.59375,8.07813 3.90625,6.76563 C3.59375,6.26563 3.40625,5.67188 3.40625,5.0625 C3.40625,3.96875 4.09375,2.65625 5.20313,1.5625 C6.90625,-0.140625 10.2031,-2.23438 13.7969,-4.23438 C17.4063,-6.23438 21,-7.73438 23.4063,-8.23438 C23.9063,-8.34375 24.4063,-8.4375 24.9063,-8.4375 C26.5,-8.4375 27.7969,-7.84375 28.5,-6.54688 C28.7969,-6.04688 28.9063,-5.4375 28.9063,-4.84375 C28.9063,-3.73438 28.2969,-2.54688 27.2031,-1.34375"/>
<path class="Note" transform="matrix(2.16,0,0,2.16,1871.49,653.452)" d="M31.5,-8.14063 C29.7031,-11.4375 25.9063,-13.2344 21.2969,-13.2344 C17.9063,-13.2344 14.2031,-12.2344 10.5938,-10.3438 C4,-6.84375 0,-0.9375 0,4.15625 C0,5.5625 0.296875,6.96875 1,8.26563 C2.79688,11.5781 6.59375,13.2813 11.2031,13.2813 C14.5938,13.2813 18.2969,12.375 21.9063,10.4844 C28.5,6.96875 32.5,1.0625 32.5,-4.04688 C32.5,-5.4375 32.2031,-6.84375 31.5,-8.14063 M27.2031,-1.34375 C25.5,0.359375 22.0938,2.45313 18.5,4.46875 C14.9063,6.46875 11.2969,7.96875 8.90625,8.46875 C8.40625,8.57813 7.90625,8.67188 7.40625,8.67188 C5.79688,8.67188 4.59375,8.07813 3.90625,6.76563 C3.59375,6.26563 3.40625,5.67188 3.40625,5.0625 C3.40625,3.96875 4.09375,2.65625 5.20313,1.5625 C6.90625,-0.140625 10.2031,-2.23438 13.7969,-4.23438 C17.4063,-6.23438 21,-7.73438 23.4063,-8.23438 C23.9063,-8.34375 24.4063,-8.4375 24.9063,-8.4375 C26.5,-8.4375 27.7969,-7.84375 28.5,-6.54688 C28.7969,-6.04688 28.9063,-5.4375 28.9063,-4.84375 C28.9063,-3.73438 28.2969,-2.54688 27.2031,-1.34375"/>
<path class="Note" transform="matrix(2.16,0,0,2.16,2081.66,680.452)" d="M31.5,-8.09375 C29.7031,-11.4063 25.9063,-13.2031 21.2969,-13.2031 C17.9063,-13.2031 14.2031,-12.2031 10.5938,-10.2969 C4,-6.79688 0,-0.90625 0,4.20313 C0,5.59375 0.296875,7 1,8.29688 C2.79688,11.5938 6.59375,13.2969 11.2031,13.2969 C14.5938,13.2969 18.2969,12.4063 21.9063,10.5 C28.5,7 32.5,1.09375 32.5,-4 C32.5,-5.40625 32.2031,-6.79688 31.5,-8.09375"/>
<path class="Note" transform="matrix(2.16,0,0,2.16,2213.03,680.452)" d="M31.5,-8.09375 C29.7031,-11.4063 25.9063,-13.2031 21.2969,-13.2031 C17.9063,-13.2031 14.2031,-12.2031 10.5938,-10.2969 C4,-6.79688 0,-0.90625 0,4.20313 C0,5.59375 0.296875,7 1,8.29688 C2.79688,11.5938 6.59375,13.2969 11.2031,13.2969 C14.5938,13.2969 18.2969,12.4063 21.9063,10.5 C28.5,7 32.5,1.09375 32.5,-4 C32.5,-5.40625 32.2031,-6.79688 31.5,-8.09375"/>
<path class="Note" transform="matrix(2.16,0,0,2.16,2454.93,680.452)" d="M31.5,-8.09375 C29.7031,-11.4063 25.9063,-13.2031 21.2969,-13.2031 C17.9063,-13.2031 14.2031,-12.2031 10.5938,-10.2969 C4,-6.79688 0,-0.90625 0,4.20313 C0,5.59375 0.296875,7 1,8.29688 C2.79688,11.5938 6.59375,13.2969 11.2031,13.2969 C14.5938,13.2969 18.2969,12.4063 21.9063,10.5 C28.5,7 32.5,1.09375 32.5,-4 C32.5,-5.40625 32.2031,-6.79688 31.5,-8.09375"/>
<path class="Note" transform="matrix(2.16,0,0,2.16,3489.55,761.452)" d="M31.5,-8.14063 C29.7031,-11.4375 25.9063,-13.2344 21.2969,-13.2344 C17.9063,-13.2344 14.2031,-12.2344 10.5938,-10.3438 C4,-6.84375 0,-0.9375 0,4.15625 C0,5.5625 0.296875,6.96875 1,8.26563 C2.79688,11.5781 6.59375,13.2813 11.2031,13.2813 C14.5938,13.2813 18.2969,12.375 21.9063,10.4844 C28.5,6.96875 32.5,1.0625 32.5,-4.04688 C32.5,-5.4375 32.2031,-6.84375 31.5,-8.14063 M27.2031,-1.34375 C25.5,0.359375 22.0938,2.45313 18.5,4.46875 C14.9063,6.46875 11.2969,7.96875 8.90625,8.46875 C8.40625,8.57813 7.90625,8.67188 7.40625,8.67188 C5.79688,8.67188 4.59375,8.07813 3.90625,6.76563 C3.59375,6.26563 3.40625,5.67188 3.40625,5.0625 C3.40625,3.96875 4.09375,2.65625 5.20313,1.5625 C6.90625,-0.140625 10.2031,-2.23438 13.7969,-4.23438 C17.4063,-6.23438 21,-7.73438 23.4063,-8.23438 C23.9063,-8.34375 24.4063,-8.4375 24.9063,-8.4375 C26.5,-8.4375 27.7969,-7.84375 28.5,-6.54688 C28.7969,-6.04688 28.9063,-5.4375 28.9063,-4.84375 C28.9063,-3.73438 28.2969,-2.54688 27.2031,-1.34375"/>
<path class="Note" transform="matrix(2.16,0,0,2.16,3635.94,788.452)" d="M31.5,-8.14063 C29.7031,-11.4375 25.9063,-13.2344 21.2969,-13.2344 C17.9063,-13.2344 14.2031,-12.2344 10.5938,-10.3438 C4,-6.84375 0,-0.9375 0,4.15625 C0,5.5625 0.296875,6.96875 1,8.26563 C2.79688,11.5781 6.59375,13.2813 11.2031,13.2813 C14.5938,13.2813 18.2969,12.375 21.9063,10.4844 C28.5,6.96875 32.5,1.0625 32.5,-4.04688 C32.5,-5.4375 32.2031,-6.84375 31.5,-8.14063 M27.2031,-1.34375 C25.5,0.359375 22.0938,2.45313 18.5,4.46875 C14.9063,6.46875 11.2969,7.96875 8.90625,8.46875 C8.40625,8.57813 7.90625,8.67188 7.40625,8.67188 C5.79688,8.67188 4.59375,8.07813 3.90625,6.76563 C3.59375,6.26563 3.40625,5.67188 3.40625,5.0625 C3.40625,3.96875 4.09375,2.65625 5.20313,1.5625 C6.90625,-0.140625 10.2031,-2.23438 13.7969,-4.23438 C17.4063,-6.23438 21,-7.73438 23.4063,-8.23438 C23.9063,-8.34375 24.4063,-8.4375 24.9063,-8.4375 C26.5,-8.4375 27.7969,-7.84375 28.5,-6.54688 C28.7969,-6.04688 28.9063,-5.4375 28.9063,-4.84375 C28.9063,-3.73438 28.2969,-2.54688 27.2031,-1.34375"/>
<path class="Note" transform="matrix(2.16,0,0,2.16,3917.16,788.452)" d="M18.7031,-13.5938 C4.90625,-13.5938 0,-6.59375 0,-0.09375 C0,6.40625 4.90625,13.4063 18.7031,13.4063 C32.5,13.4063 37.2969,6.40625 37.2969,-0.09375 C37.2969,-6.59375 32.5,-13.5938 18.7031,-13.5938 M10.4063,-4.5 C10.2969,-4.90625 10.2969,-5.29688 10.2969,-5.70313 C10.2969,-6.5 10.5,-7.29688 10.9063,-8 C11.5938,-9 12.7969,-9.70313 14.2969,-10 C15.5938,-10.2969 16.2969,-10.5 18.9063,-10.5 L19,-10.5 C23,-10.5 24.2969,-6.79688 25.4063,-3 L25.7031,-2 C26.5,0.59375 26.9063,2.79688 26.9063,4.5 C26.9063,5.70313 26.7031,6.79688 26.2969,7.59375 C25.7031,8.70313 24.7031,9.40625 23,9.79688 C22.0938,10 20.5938,10.0938 20.5938,10.0938 C20.0938,10.0938 19.7031,10.2031 19.2969,10.2031 C16.0938,10.2031 14.0938,9 12.7031,4.70313 C11.5,1 11.2969,-0.09375 10.4063,-4.5"/>
<path class="Note" transform="matrix(2.16,0,0,2.16,338.487,1855.39)" d="M31.5,-8.09375 C29.7031,-11.4063 25.9063,-13.2031 21.2969,-13.2031 C17.9063,-13.2031 14.2031,-12.2031 10.5938,-10.2969 C4,-6.79688 0,-0.90625 0,4.20313 C0,5.59375 0.296875,7 1,8.29688 C2.79688,11.5938 6.59375,13.2969 11.2031,13.2969 C14.5938,13.2969 18.2969,12.4063 21.9063,10.5 C28.5,7 32.5,1.09375 32.5,-4 C32.5,-5.40625 32.2031,-6.79688 31.5,-8.09375"/>
<path class="Note" transform="matrix(2.16,0,0,2.16,596.514,1882.39)" d="M31.5,-8.09375 C29.7031,-11.4063 25.9063,-13.2031 21.2969,-13.2031 C17.9063,-13.2031 14.2031,-12.2031 10.5938,-10.2969 C4,-6.79688 0,-0.90625 0,4.20313 C0,5.59375 0.296875,7 1,8.29688 C2.79688,11.5938 6.59375,13.2969 11.2031,13.2969 C14.5938,13.2969 18.2969,12.4063 21.9063,10.5 C28.5,7 32.5,1.09375 32.5,-4 C32.5,-5.40625 32.2031,-6.79688 31.5,-8.09375"/>
<path class="Note" transform="matrix(2.16,0,0,2.16,1001.55,1909.39)" d="M31.5,-8.14063 C29.7031,-11.4375 25.9063,-13.2344 21.2969,-13.2344 C17.9063,-13.2344 14.2031,-12.2344 10.5938,-10.3438 C4,-6.84375 0,-0.9375 0,4.15625 C0,5.5625 0.296875,6.96875 1,8.26563 C2.79688,11.5781 6.59375,13.2813 11.2031,13.2813 C14.5938,13.2813 18.2969,12.375 21.9063,10.4844 C28.5,6.96875 32.5,1.0625 32.5,-4.04688 C32.5,-5.4375 32.2031,-6.84375 31.5,-8.14063 M27.2031,-1.34375 C25.5,0.359375 22.0938,2.45313 18.5,4.46875 C14.9063,6.46875 11.2969,7.96875 8.90625,8.46875 C8.40625,8.57813 7.90625,8.67188 7.40625,8.67188 C5.79688,8.67188 4.59375,8.07813 3.90625,6.76563 C3.59375,6.26563 3.40625,5.67188 3.40625,5.0625 C3.40625,3.96875 4.09375,2.65625 5.20313,1.5625 C6.90625,-0.140625 10.2031,-2.23438 13.7969,-4.23438 C17.4063,-6.23438 21,-7.73438 23.4063,-8.23438 C23.9063,-8.34375 24.4063,-8.4375 24.9063,-8.4375 C26.5,-8.4375 27.7969,-7.84375 28.5,-6.54688 C28.7969,-6.04688 28.9063,-5.4375 28.9063,-4.84375 C28.9063,-3.73438 28.2969,-2.54688 27.2031,-1.34375"/>
<path class="Note" transform="matrix(2.16,0,0,2.16,1244.73,1909.39)" d="M31.5,-8.09375 C29.7031,-11.4063 25.9063,-13.2031 21.2969,-13.2031 C17.9063,-13.2031 14.2031,-12.2031 10.5938,-10.2969 C4,-6.79688 0,-0.90625 0,4.20313 C0,5.59375 0.296875,7 1,8.29688 C2.79688,11.5938 6.59375,13.2969 11.2031,13.2969 C14.5938,13.2969 18.2969,12.4063 21.9063,10.5 C28.5,7 32.5,1.09375 32.5,-4 C32.5,-5.40625 32.2031,-6.79688 31.5,-8.09375"/>
<path class="Note" transform="matrix(2.16,0,0,2.16,1380.2,1855.39)" d="M31.5,-8.09375 C29.7031,-11.4063 25.9063,-13.2031 21.2969,-13.2031 C17.9063,-13.2031 14.2031,-12.2031 10.5938,-10.2969 C4,-6.79688 0,-0.90625 0,4.20313 C0,5.59375 0.296875,7 1,8.29688 C2.79688,11.5938 6.59375,13.2969 11.2031,13.2969 C14.5938,13.2969 18.2969,12.4063 21.9063,10.5 C28.5,7 32.5,1.09375 32.5,-4 C32.5,-5.40625 32.2031,-6.79688 31.5,-8.09375"/>
<path class="Note" transform="matrix(2.16,0,0,2.16,1535.81,1855.39)" d="M31.5,-8.09375 C29.7031,-11.4063 25.9063,-13.2031 21.2969,-13.2031 C17.9063,-13.2031 14.2031,-12.2031 10.5938,-10.2969 C4,-6.79688 0,-0.90625 0,4.20313 C0,5.59375 0.296875,7 1,8.29688 C2.79688,11.5938 6.59375,13.2969 11.2031,13.2969 C14.5938,13.2969 18.2969,12.4063 21.9063,10.5 C28.5,7 32.5,1.09375 32.5,-4 C32.5,-5.40625 32.2031,-6.79688 31.5,-8.09375"/>
<path class="Note" transform="matrix(2.16,0,0,2.16,1777.71,1855.39)" d="M31.5,-8.14063 C29.7031,-11.4375 25.9063,-13.2344 21.2969,-13.2344 C17.9063,-13.2344 14.2031,-12.2344 10.5938,-10.3438 C4,-6.84375 0,-0.9375 0,4.15625 C0,5.5625 0.296875,6.96875 1,8.26563 C2.79688,11.5781 6.59375,13.2813 11.2031,13.2813 C14.5938,13.2813 18.2969,12.375 21.9063,10.4844 C28.5,6.96875 32.5,1.0625 32.5,-4.04688 C32.5,-5.4375 32.2031,-6.84375 31.5,-8.14063 M27.2031,-1.34375 C25.5,0.359375 22.0938,2.45313 18.5,4.46875 C14.9063,6.46875 11.2969,7.96875 8.90625,8.46875 C8.40625,8.57813 7.90625,8.67188 7.40625,8.67188 C5.79688,8.67188 4.59375,8.07813 3.90625,6.76563 C3.59375,6.26563 3.40625,5.67188 3.40625,5.0625 C3.40625,3.96875 4.09375,2.65625 5.20313,1.5625 C6.90625,-0.140625 10.2031,-2.23438 13.7969,-4.23438 C17.4063,-6.23438 21,-7.73438 23.4063,-8.23438 C23.9063,-8.34375 24.4063,-8.4375 24.9063,-8.4375 C26.5,-8.4375 27.7969,-7.84375 28.5,-6.54688 C28.7969,-6.04688 28.9063,-5.4375 28.9063,-4.84375 C28.9063,-3.73438 28.2969,-2.54688 27.2031,-1.34375"/>
<path class="Note" transform="matrix(2.16,0,0,2.16,1945.86,1828.39)" d="M31.5,-8.14063 C29.7031,-11.4375 25.9063,-13.2344 21.2969,-13.2344 C17.9063,-13.2344 14.2031,-12.2344 10.5938,-10.3438 C4,-6.84375 0,-0.9375 0,4.15625 C0,5.5625 0.296875,6.96875 1,8.26563 C2.79688,11.5781 6.59375,13.2813 11.2031,13.2813 C14.5938,13.2813 18.2969,12.375 21.9063,10.4844 C28.5,6.96875 32.5,1.0625 32.5,-4.04688 C32.5,-5.4375 32.2031,-6.84375 31.5,-8.14063 M27.2031,-1.34375 C25.5,0.359375 22.0938,2.45313 18.5,4.46875 C14.9063,6.46875 11.2969,7.96875 8.90625,8.46875 C8.40625,8.57813 7.90625,8.67188 7.40625,8.67188 C5.79688,8.67188 4.59375,8.07813 3.90625,6.76563 C3.59375,6.26563 3.40625,5.67188 3.40625,5.0625 C3.40625,3.96875 4.09375,2.65625 5.20313,1.5625 C6.90625,-0.140625 10.2031,-2.23438 13.7969,-4.23438 C17.4063,-6.23438 21,-7.73438 23.4063,-8.23438 C23.9063,-8.34375 24.4063,-8.4375 24.9063,-8.4375 C26.5,-8.4375 27.7969,-7.84375 28.5,-6.54688 C28.7969,-6.04688 28.9063,-5.4375 28.9063,-4.84375 C28.9063,-3.73438 28.2969,-2.54688 27.2031,-1.34375"/>
<path class="Note" transform="matrix(2.16,0,0,2.16,2233.46,1801.39)" d="M31.5,-8.09375 C29.7031,-11.4063 25.9063,-13.2031 21.2969,-13.2031 C17.9063,-13.2031 14.2031,-12.2031 10.5938,-10.2969 C4,-6.79688 0,-0.90625 0,4.20313 C0,5.59375 0.296875,7 1,8.29688 C2.79688,11.5938 6.59375,13.2969 11.2031,13.2969 C14.5938,13.2969 18.2969,12.4063 21.9063,10.5 C28.5,7 32.5,1.09375 32.5,-4 C32.5,-5.40625 32.2031,-6.79688 31.5,-8.09375"/>
<path class="Note" transform="matrix(2.16,0,0,2.16,2362.47,1828.39)" d="M31.5,-8.09375 C29.7031,-11.4063 25.9063,-13.2031 21.2969,-13.2031 C17.9063,-13.2031 14.2031,-12.2031 10.5938,-10.2969 C4,-6.79688 0,-0.90625 0,4.20313 C0,5.59375 0.296875,7 1,8.29688 C2.79688,11.5938 6.59375,13.2969 11.2031,13.2969 C14.5938,13.2969 18.2969,12.4063 21.9063,10.5 C28.5,7 32.5,1.09375 32.5,-4 C32.5,-5.40625 32.2031,-6.79688 31.5,-8.09375"/>
<path class="Note" transform="matrix(2.16,0,0,2.16,2491.48,1855.39)" d="M31.5,-8.09375 C29.7031,-11.4063 25.9063,-13.2031 21.2969,-13.2031 C17.9063,-13.2031 14.2031,-12.2031 10.5938,-10.2969 C4,-6.79688 0,-0.90625 0,4.20313 C0,5.59375 0.296875,7 1,8.29688 C2.79688,11.5938 6.59375,13.2969 11.2031,13.2969 C14.5938,13.2969 18.2969,12.4063 21.9063,10.5 C28.5,7 32.5,1.09375 32.5,-4 C32.5,-5.40625 32.2031,-6.79688 31.5,-8.09375"/>
<path class="Note" transform="matrix(2.16,0,0,2.16,2620.5,1882.39)" d="M31.5,-8.09375 C29.7031,-11.4063 25.9063,-13.2031 21.2969,-13.2031 C17.9063,-13.2031 14.2031,-12.2031 10.5938,-10.2969 C4,-6.79688 0,-0.90625 0,4.20313 C0,5.59375 0.296875,7 1,8.29688 C2.79688,11.5938 6.59375,13.2969 11.2031,13.2969 C14.5938,13.2969 18.2969,12.4063 21.9063,10.5 C28.5,7 32.5,1.09375 32.5,-4 C32.5,-5.40625 32.2031,-6.79688 31.5,-8.09375"/>
<path class="Note" transform="matrix(2.16,0,0,2.16,2862.4,1855.39)" d="M31.5,-8.14063 C29.7031,-11.4375 25.9063,-13.2344 21.2969,-13.2344 C17.9063,-13.2344 14.2031,-12.2344 10.5938,-10.3438 C4,-6.84375 0,-0.9375 0,4.15625 C0,5.5625 0.296875,6.96875 1,8.26563 C2.79688,11.5781 6.59375,13.2813 11.2031,13.2813 C14.5938,13.2813 18.2969,12.375 21.9063,10.4844 C28.5,6.96875 32.5,1.0625 32.5,-4.04688 C32.5,-5.4375 32.2031,-6.84375 31.5,-8.14063 M27.2031,-1.34375 C25.5,0.359375 22.0938,2.45313 18.5,4.46875 C14.9063,6.46875 11.2969,7.96875 8.90625,8.46875 C8.40625,8.57813 7.90625,8.67188 7.40625,8.67188 C5.79688,8.67188 4.59375,8.07813 3.90625,6.76563 C3.59375,6.26563 3.40625,5.67188 3.40625,5.0625 C3.40625,3.96875 4.09375,2.65625 5.20313,1.5625 C6.90625,-0.140625 10.2031,-2.23438 13.7969,-4.23438 C17.4063,-6.23438 21,-7.73438 23.4063,-8.23438 C23.9063,-8.34375 24.4063,-8.4375 24.9063,-8.4375 C26.5,-8.4375 27.7969,-7.84375 28.5,-6.54688 C28.7969,-6.04688 28.9063,-5.4375 28.9063,-4.84375 C28.9063,-3.73438 28.2969,-2.54688 27.2031,-1.34375"/>
<path class="Note" transform="matrix(2.16,0,0,2.16,3030.55,1828.39)" d="M31.5,-8.14063 C29.7031,-11.4375 25.9063,-13.2344 21.2969,-13.2344 C17.9063,-13.2344 14.2031,-12.2344 10.5938,-10.3438 C4,-6.84375 0,-0.9375 0,4.15625 C0,5.5625 0.296875,6.96875 1,8.26563 C2.79688,11.5781 6.59375,13.2813 11.2031,13.2813 C14.5938,13.2813 18.2969,12.375 21.9063,10.4844 C28.5,6.96875 32.5,1.0625 32.5,-4.04688 C32.5,-5.4375 32.2031,-6.84375 31.5,-8.14063 M27.2031,-1.34375 C25.5,0.359375 22.0938,2.45313 18.5,4.46875 C14.9063,6.46875 11.2969,7.96875 8.90625,8.46875 C8.40625,8.57813 7.90625,8.67188 7.40625,8.67188 C5.79688,8.67188 4.59375,8.07813 3.90625,6.76563 C3.59375,6.26563 3.40625,5.67188 3.40625,5.0625 C3.40625,3.96875 4.09375,2.65625 5.20313,1.5625 C6.90625,-0.140625 10.2031,-2.23438 13.7969,-4.23438 C17.4063,-6.23438 21,-7.73438 23.4063,-8.23438 C23.9063,-8.34375 24.4063,-8.4375 24.9063,-8.4375 C26.5,-8.4375 27.7969,-7.84375 28.5,-6.54688 C28.7969,-6.04688 28.9063,-5.4375 28.9063,-4.84375 C28.9063,-3.73438 28.2969,-2.54688 27.2031,-1.34375"/>
<path class="Note" transform="matrix(2.16,0,0,2.16,3284.03,1855.39)" d="M31.5,-8.14063 C29.7031,-11.4375 25.9063,-13.2344 21.2969,-13.2344 C17.9063,-13.2344 14.2031,-12.2344 10.5938,-10.3438 C4,-6.84375 0,-0.9375 0,4.15625 C0,5.5625 0.296875,6.96875 1,8.26563 C2.79688,11.5781 6.59375,13.2813 11.2031,13.2813 C14.5938,13.2813 18.2969,12.375 21.9063,10.4844 C28.5,6.96875 32.5,1.0625 32.5,-4.04688 C32.5,-5.4375 32.2031,-6.84375 31.5,-8.14063 M27.2031,-1.34375 C25.5,0.359375 22.0938,2.45313 18.5,4.46875 C14.9063,6.46875 11.2969,7.96875 8.90625,8.46875 C8.40625,8.57813 7.90625,8.67188 7.40625,8.67188 C5.79688,8.67188 4.59375,8.07813 3.90625,6.76563 C3.59375,6.26563 3.40625,5.67188 3.40625,5.0625 C3.40625,3.96875 4.09375,2.65625 5.20313,1.5625 C6.90625,-0.140625 10.2031,-2.23438 13.7969,-4.23438 C17.4063,-6.23438 21,-7.73438 23.4063,-8.23438 C23.9063,-8.34375 24.4063,-8.4375 24.9063,-8.4375 C26.5,-8.4375 27.7969,-7.84375 28.5,-6.54688 C28.7969,-6.04688 28.9063,-5.4375 28.9063,-4.84375 C28.9063,-3.73438 28.2969,-2.54688 27.2031,-1.34375"/>
<path class="Note" transform="matrix(2.16,0,0,2.16,3452.18,1882.39)" d="M31.5,-8.14063 C29.7031,-11.4375 25.9063,-13.2344 21.2969,-13.2344 C17.9063,-13.2344 14.2031,-12.2344 10.5938,-10.3438 C4,-6.84375 0,-0.9375 0,4.15625 C0,5.5625 0.296875,6.96875 1,8.26563 C2.79688,11.5781 6.59375,13.2813 11.2031,13.2813 C14.5938,13.2813 18.2969,12.375 21.9063,10.4844 C28.5,6.96875 32.5,1.0625 32.5,-4.04688 C32.5,-5.4375 32.2031,-6.84375 31.5,-8.14063 M27.2031,-1.34375 C25.5,0.359375 22.0938,2.45313 18.5,4.46875 C14.9063,6.46875 11.2969,7.96875 8.90625,8.46875 C8.40625,8.57813 7.90625,8.67188 7.40625,8.67188 C5.79688,8.67188 4.59375,8.07813 3.90625,6.76563 C3.59375,6.26563 3.40625,5.67188 3.40625,5.0625 C3.40625,3.96875 4.09375,2.65625 5.20313,1.5625 C6.90625,-0.140625 10.2031,-2.23438 13.7969,-4.23438 C17.4063,-6.23438 21,-7.73438 23.4063,-8.23438 C23.9063,-8.34375 24.4063,-8.4375 24.9063,-8.4375 C26.5,-8.4375 27.7969,-7.84375 28.5,-6.54688 C28.7969,-6.04688 28.9063,-5.4375 28.9063,-4.84375 C28.9063,-3.73438 28.2969,-2.54688 27.2031,-1.34375"/>
<path class="Note" transform="matrix(2.16,0,0,2.16,3705.65,1882.39)" d="M31.5,-8.14063 C29.7031,-11.4375 25.9063,-13.2344 21.2969,-13.2344 C17.9063,-13.2344 14.2031,-12.2344 10.5938,-10.3438 C4,-6.84375 0,-0.9375 0,4.15625 C0,5.5625 0.296875,6.96875 1,8.26563 C2.79688,11.5781 6.59375,13.2813 11.2031,13.2813 C14.5938,13.2813 18.2969,12.375 21.9063,10.4844 C28.5,6.96875 32.5,1.0625 32.5,-4.04688 C32.5,-5.4375 32.2031,-6.84375 31.5,-8.14063 M27.2031,-1.34375 C25.5,0.359375 22.0938,2.45313 18.5,4.46875 C14.9063,6.46875 11.2969,7.96875 8.90625,8.46875 C8.40625,8.57813 7.90625,8.67188 7.40625,8.67188 C5.79688,8.67188 4.59375,8.07813 3.90625,6.76563 C3.59375,6.26563 3.40625,5.67188 3.40625,5.0625 C3.40625,3.96875 4.09375,2.65625 5.20313,1.5625 C6.90625,-0.140625 10.2031,-2.23438 13.7969,-4.23438 C17.4063,-6.23438 21,-7.73438 23.4063,-8.23438 C23.9063,-8.34375 24.4063,-8.4375 24.9063,-8.4375 C26.5,-8.4375 27.7969,-7.84375 28.5,-6.54688 C28.7969,-6.04688 28.9063,-5.4375 28.9063,-4.84375 C28.9063,-3.73438 28.2969,-2.54688 27.2031,-1.34375"/>
<path class="Clef" transform="matrix(2.16,0,0,2.16,119.466,761.452)" d="M25.4063,-25.0938 C17.7969,-25.0938 11.7031,-20.7031 11.5938,-20.7031 C5.79688,-16.4063 3.5,-11.2969 2.59375,-7.79688 C2.09375,-6 1.90625,-4.20313 1.90625,-2.5 C1.90625,-0.09375 2.29688,2.09375 3.20313,4 C4.40625,6.70313 6.70313,8.59375 9.70313,9.59375 C10.9063,10 12.2031,10.2031 13.5,10.2031 C15.7031,10.2031 18,9.59375 19.9063,8.5 C23,6.79688 24.9063,3.20313 24.9063,-0.703125 C24.9063,-4.20313 23.0938,-7.40625 20.0938,-9.29688 C18,-10.7031 16,-11.0938 14.2969,-11.0938 C13.0938,-11.0938 12,-10.9063 11.0938,-10.5938 C10.0938,-10.2031 8.40625,-9.20313 7.59375,-8.5 C7.90625,-10.4063 9.09375,-13.2969 10.2031,-14.9063 C11.2969,-16.5 13.5,-18.5 15.2031,-19.4063 C17.7031,-20.7969 20.9063,-21.4063 24.4063,-21.4063 C34.6094,-21.4063 39.6094,-13.2031 39.6094,3.59375 C39.6094,12.9063 36.1094,21.7969 33.1094,27.7031 C29.7969,34.2969 25.4063,40.6094 21.5,44.1094 C11.0938,53.6094 1.29688,58.1094 1.20313,58.1094 C1.20313,58.1094 -0.296875,59 0.09375,60.5 C0.40625,61.5 1.29688,61.7031 1.90625,61.7031 C2,61.7031 2.29688,61.6094 2.40625,61.6094 C2.5,61.6094 13.9063,56.9063 23,49.7969 C28.1094,46.1094 32.7031,42.1094 36.7031,37.7969 C40.2969,33.9063 43.4063,29.7031 45.9063,25.5 C50.2969,18 52.7969,10.2031 52.7969,3.5 C52.7969,-4.79688 50.6094,-11.7031 46.5,-16.5938 C41.7969,-22.2031 34.7031,-25.0938 25.4063,-25.0938 M56.7969,-12.4063 C56.7969,-9.59375 59,-7.40625 61.6094,-7.40625 C64.2031,-7.40625 66.4063,-9.59375 66.4063,-12.4063 C66.4063,-15.2031 64.2031,-17.5 61.6094,-17.5 C59,-17.5 56.7969,-15.2031 56.7969,-12.4063 M56.7969,12.2969 C56.7969,15.0938 59,17.4063 61.6094,17.4063 C64.2031,17.4063 66.4063,15.0938 66.4063,12.2969 C66.4063,9.5 64.2031,7.20313 61.6094,7.20313 C59,7.20313 56.7969,9.5 56.7969,12.2969"/>
<path class="Clef" transform="matrix(2.16,0,0,2.16,119.466,1882.39)" d="M25.4063,-25.0938 C17.7969,-25.0938 11.7031,-20.7031 11.5938,-20.7031 C5.79688,-16.4063 3.5,-11.2969 2.59375,-7.79688 C2.09375,-6 1.90625,-4.20313 1.90625,-2.5 C1.90625,-0.09375 2.29688,2.09375 3.20313,4 C4.40625,6.70313 6.70313,8.59375 9.70313,9.59375 C10.9063,10 12.2031,10.2031 13.5,10.2031 C15.7031,10.2031 18,9.59375 19.9063,8.5 C23,6.79688 24.9063,3.20313 24.9063,-0.703125 C24.9063,-4.20313 23.0938,-7.40625 20.0938,-9.29688 C18,-10.7031 16,-11.0938 14.2969,-11.0938 C13.0938,-11.0938 12,-10.9063 11.0938,-10.5938 C10.0938,-10.2031 8.40625,-9.20313 7.59375,-8.5 C7.90625,-10.4063 9.09375,-13.2969 10.2031,-14.9063 C11.2969,-16.5 13.5,-18.5 15.2031,-19.4063 C17.7031,-20.7969 20.9063,-21.4063 24.4063,-21.4063 C34.6094,-21.4063 39.6094,-13.2031 39.6094,3.59375 C39.6094,12.9063 36.1094,21.7969 33.1094,27.7031 C29.7969,34.2969 25.4063,40.6094 21.5,44.1094 C11.0938,53.6094 1.29688,58.1094 1.20313,58.1094 C1.20313,58.1094 -0.296875,59 0.09375,60.5 C0.40625,61.5 1.29688,61.7031 1.90625,61.7031 C2,61.7031 2.29688,61.6094 2.40625,61.6094 C2.5,61.6094 13.9063,56.9063 23,49.7969 C28.1094,46.1094 32.7031,42.1094 36.7031,37.7969 C40.2969,33.9063 43.4063,29.7031 45.9063,25.5 C50.2969,18 52.7969,10.2031 52.7969,3.5 C52.7969,-4.79688 50.6094,-11.7031 46.5,-16.5938 C41.7969,-22.2031 34.7031,-25.0938 25.4063,-25.0938 M56.7969,-12.4063 C56.7969,-9.59375 59,-7.40625 61.6094,-7.40625 C64.2031,-7.40625 66.4063,-9.59375 66.4063,-12.4063 C66.4063,-15.2031 64.2031,-17.5 61.6094,-17.5 C59,-17.5 56.7969,-15.2031 56.7969,-12.4063 M56.7969,12.2969 C56.7969,15.0938 59,17.4063 61.6094,17.4063 C64.2031,17.4063 66.4063,15.0938 66.4063,12.2969 C66.4063,9.5 64.2031,7.20313 61.6094,7.20313 C59,7.20313 56.7969,9.5 56.7969,12.2969"/>
<path class="TimeSig" transform="matrix(2.16,0,0,2.16,319.317,761.739)" d="M3.59375,12.625 L20.7656,12.625 L20.7656,20.0781 L12.5469,20.0781 C11.7656,20.0781 11.125,20.7031 11.125,21.4844 L11.125,23.3906 C11.125,24.1719 11.7656,24.7969 12.5469,24.7969 L42.7969,24.7969 C43.5781,24.7969 44.2031,24.1719 44.2031,23.3906 L44.2031,21.4844 C44.2031,20.7031 43.5781,20.0781 42.7969,20.0781 L33.8594,20.0781 L33.8594,12.625 L42.7969,12.625 C43.5781,12.625 44.2031,12 44.2031,11.2188 L44.2031,9.3125 C44.2031,8.53125 43.5781,7.90625 42.7969,7.90625 L33.8594,7.90625 L33.8594,-8.0625 C33.8594,-8.59375 33.5469,-9.07813 33.0781,-9.3125 L31.8594,-9.92188 C31.3281,-10.1719 30.7031,-10.0781 30.2656,-9.6875 L21.2188,-1.375 C20.9375,-1.09375 20.7656,-0.734375 20.7656,-0.328125 L20.7656,7.90625 L9.25,7.90625 C9.25,7.90625 20.375,-4.125 32.2188,-19.8906 C33.0781,-21.0469 32.5781,-22.0938 32.3906,-22.2813 L30.2188,-24.4844 C29.9531,-24.75 29.5938,-24.9063 29.2188,-24.9063 C28.625,-24.9063 15.0625,-24.875 14.3438,-24.9063 C13.625,-24.9219 13.0938,-24.2969 13.0156,-23.6875 C13.0156,-23.6875 12.4844,-16.3281 9.875,-8.1875 C7.28125,-0.078125 4.34375,4.90625 1.6875,8.53125 C1.6875,8.53125 1.14063,9.51563 1.5,10.2656 C1.84375,11.0156 2.48438,12.0938 2.48438,12.0938 C2.48438,12.0938 2.73438,12.625 3.59375,12.625"/>
<path class="TimeSig" transform="matrix(2.16,0,0,2.16,319.317,869.165)" d="M3.59375,12.625 L20.7656,12.625 L20.7656,20.0781 L12.5469,20.0781 C11.7656,20.0781 11.125,20.7031 11.125,21.4844 L11.125,23.3906 C11.125,24.1719 11.7656,24.7969 12.5469,24.7969 L42.7969,24.7969 C43.5781,24.7969 44.2031,24.1719 44.2031,23.3906 L44.2031,21.4844 C44.2031,20.7031 43.5781,20.0781 42.7969,20.0781 L33.8594,20.0781 L33.8594,12.625 L42.7969,12.625 C43.5781,12.625 44.2031,12 44.2031,11.2188 L44.2031,9.3125 C44.2031,8.53125 43.5781,7.90625 42.7969,7.90625 L33.8594,7.90625 L33.8594,-8.0625 C33.8594,-8.59375 33.5469,-9.07813 33.0781,-9.3125 L31.8594,-9.92188 C31.3281,-10.1719 30.7031,-10.0781 30.2656,-9.6875 L21.2188,-1.375 C20.9375,-1.09375 20.7656,-0.734375 20.7656,-0.328125 L20.7656,7.90625 L9.25,7.90625 C9.25,7.90625 20.375,-4.125 32.2188,-19.8906 C33.0781,-21.0469 32.5781,-22.0938 32.3906,-22.2813 L30.2188,-24.4844 C29.9531,-24.75 29.5938,-24.9063 29.2188,-24.9063 C28.625,-24.9063 15.0625,-24.875 14.3438,-24.9063 C13.625,-24.9219 13.0938,-24.2969 13.0156,-23.6875 C13.0156,-23.6875 12.4844,-16.3281 9.875,-8.1875 C7.28125,-0.078125 4.34375,4.90625 1.6875,8.53125 C1.6875,8.53125 1.14063,9.51563 1.5,10.2656 C1.84375,11.0156 2.48438,12.0938 2.48438,12.0938 C2.48438,12.0938 2.73438,12.625 3.59375,12.625"/>
<path class="Rest" transform="matrix(2.16,0,0,2.16,490.379,815.452)" d="M0,-11.7969 L0,-1 C0,0.40625 0,0.40625 1.40625,0.40625 L31.1094,0.40625 C32.5,0.40625 32.5,0.40625 32.5,-1 L32.5,-11.7969 C32.5,-13.2031 32.5,-13.2031 31.1094,-13.2031 L1.40625,-13.2031 C0,-13.2031 0,-13.2031 0,-11.7969"/>
<path class="Rest" transform="matrix(2.16,0,0,2.16,2566.08,815.452)" d="M23.2031,16.9063 L23,16.5938 C22.9063,16.5 22.7031,16.2969 22.4063,15.9063 L10.9063,1.70313 C10.5938,1.40625 10.7031,0.59375 10.9063,0.203125 L21.0938,-15.2031 C21.2031,-15.4063 21.2969,-15.7031 21.2969,-15.9063 L21.2969,-16.7969 C21.2969,-17.0938 21.2031,-17.4063 21,-17.5938 L4.79688,-39.5 C4.79688,-39.5 4,-40.7031 3,-39.7969 C2,-39 2.79688,-37.7031 2.79688,-37.7031 L10.4063,-27.2969 C10.7969,-26.7031 10.7969,-25.5 10.4063,-24.9063 L0.296875,-9.5 C0.203125,-9.29688 0.09375,-8.90625 0.09375,-8.70313 L0.09375,-7.79688 C0.09375,-7.5 0.203125,-7.20313 0.40625,-7 L11.5938,6.90625 C11.2031,6.79688 10.2969,6.59375 9.09375,6.59375 C7.40625,6.59375 5.20313,7 3.40625,8.59375 C1.20313,10.5938 0,13.4063 0,15.9063 C0,17.2969 0.296875,18.7031 1.09375,19.7969 C3.20313,23 10.7031,32.5 10.7031,32.5 C10.7031,32.5 11.5938,33.6094 12.5,32.9063 C13.4063,32.2031 13.2031,31.2969 12.9063,30.7969 C12.5938,30.2969 9.40625,24.5 9.40625,24.5 C9.40625,24.5 8.70313,23.0938 8.70313,21.2969 C8.70313,20 9.09375,18.4063 10.4063,17.0938 C11.5938,15.9063 13,15.5 14.2969,15.5 C15.5938,15.5 16.7031,15.9063 17.5,16.4063 L21.4063,18.9063 C21.4063,18.9063 22.5938,19.5 23.2031,18.5938 C23.7031,17.7969 23.5,17.4063 23.2031,16.9063"/>
<path class="Rest" transform="matrix(2.16,0,0,2.16,2677.24,815.452)" d="M0,-11.7969 L0,-1 C0,0.40625 0,0.40625 1.40625,0.40625 L31.1094,0.40625 C32.5,0.40625 32.5,0.40625 32.5,-1 L32.5,-11.7969 C32.5,-13.2031 32.5,-13.2031 31.1094,-13.2031 L1.40625,-13.2031 C0,-13.2031 0,-13.2031 0,-11.7969"/>
<path class="Rest" transform="matrix(2.16,0,0,2.16,3136.63,626.452)" d="M32.375,-1.79688 C35.7188,-4.29688 38.0156,-7.48438 38.0156,-11.5 C38.0156,-18.7344 30.125,-24.5938 20.4063,-24.5938 C10.6719,-24.5938 2.78125,-18.7344 2.78125,-11.5 C2.78125,-7.48438 3.78125,-3.89063 8.51563,-0.9375 C3.95313,1.73438 1.5,5.40625 1.5,10.1719 C1.5,18.25 9.95313,24.7969 20.4063,24.7969 C30.8438,24.7969 39.2969,18.25 39.2969,10.1719 C39.2969,5.40625 37.5625,0.84375 32.375,-1.79688 M20.3906,19.1875 C14.0313,19.1875 8.5,15.7031 8.5,10.125 C8.5,3.42188 13.6719,1.8125 13.6719,1.8125 C20.4688,4.07813 30.2188,7.51563 30.2188,12.9688 C30.2188,15.7031 26.75,19.1875 20.3906,19.1875 M26.7813,-4.54688 C19.9688,-6.65625 12.4844,-9.95313 12.4844,-14.5 C12.4844,-18.4375 16.0938,-19.9844 20.3906,-19.9844 C26.5469,-19.9844 30.7969,-17.0938 30.7969,-12.5 C30.7969,-7.70313 28.5781,-5.42188 26.7813,-4.54688"/>
<polyline class="Rest" stroke="#000000" stroke-width="37.80" stroke-linecap="square" stroke-linejoin="bevel" points="3034.43,815.452 3320.53,815.452"/>
<polyline class="Rest" stroke="#000000" stroke-width="10.80" stroke-linecap="square" stroke-linejoin="bevel" points="3015.53,761.452 3015.53,869.452"/>
<polyline class="Rest" stroke="#000000" stroke-width="10.80" stroke-linecap="square" stroke-linejoin="bevel" points="3339.43,761.452 3339.43,869.452"/>
<path class="Rest" transform="matrix(2.16,0,0,2.16,467.501,1936.39)" d="M23.2031,16.9063 L23,16.5938 C22.9063,16.5 22.7031,16.2969 22.4063,15.9063 L10.9063,1.70313 C10.5938,1.40625 10.7031,0.59375 10.9063,0.203125 L21.0938,-15.2031 C21.2031,-15.4063 21.2969,-15.7031 21.2969,-15.9063 L21.2969,-16.7969 C21.2969,-17.0938 21.2031,-17.4063 21,-17.5938 L4.79688,-39.5 C4.79688,-39.5 4,-40.7031 3,-39.7969 C2,-39 2.79688,-37.7031 2.79688,-37.7031 L10.4063,-27.2969 C10.7969,-26.7031 10.7969,-25.5 10.4063,-24.9063 L0.296875,-9.5 C0.203125,-9.29688 0.09375,-8.90625 0.09375,-8.70313 L0.09375,-7.79688 C0.09375,-7.5 0.203125,-7.20313 0.40625,-7 L11.5938,6.90625 C11.2031,6.79688 10.2969,6.59375 9.09375,6.59375 C7.40625,6.59375 5.20313,7 3.40625,8.59375 C1.20313,10.5938 0,13.4063 0,15.9063 C0,17.2969 0.296875,18.7031 1.09375,19.7969 C3.20313,23 10.7031,32.5 10.7031,32.5 C10.7031,32.5 11.5938,33.6094 12.5,32.9063 C13.4063,32.2031 13.2031,31.2969 12.9063,30.7969 C12.5938,30.2969 9.40625,24.5 9.40625,24.5 C9.40625,24.5 8.70313,23.0938 8.70313,21.2969 C8.70313,20 9.09375,18.4063 10.4063,17.0938 C11.5938,15.9063 13,15.5 14.2969,15.5 C15.5938,15.5 16.7031,15.9063 17.5,16.4063 L21.4063,18.9063 C21.4063,18.9063 22.5938,19.5 23.2031,18.5938 C23.7031,17.7969 23.5,17.4063 23.2031,16.9063"/>
<path class="Rest" transform="matrix(2.16,0,0,2.16,725.528,1936.39)" d="M23.2031,16.9063 L23,16.5938 C22.9063,16.5 22.7031,16.2969 22.4063,15.9063 L10.9063,1.70313 C10.5938,1.40625 10.7031,0.59375 10.9063,0.203125 L21.0938,-15.2031 C21.2031,-15.4063 21.2969,-15.7031 21.2969,-15.9063 L21.2969,-16.7969 C21.2969,-17.0938 21.2031,-17.4063 21,-17.5938 L4.79688,-39.5 C4.79688,-39.5 4,-40.7031 3,-39.7969 C2,-39 2.79688,-37.7031 2.79688,-37.7031 L10.4063,-27.2969 C10.7969,-26.7031 10.7969,-25.5 10.4063,-24.9063 L0.296875,-9.5 C0.203125,-9.29688 0.09375,-8.90625 0.09375,-8.70313 L0.09375,-7.79688 C0.09375,-7.5 0.203125,-7.20313 0.40625,-7 L11.5938,6.90625 C11.2031,6.79688 10.2969,6.59375 9.09375,6.59375 C7.40625,6.59375 5.20313,7 3.40625,8.59375 C1.20313,10.5938 0,13.4063 0,15.9063 C0,17.2969 0.296875,18.7031 1.09375,19.7969 C3.20313,23 10.7031,32.5 10.7031,32.5 C10.7031,32.5 11.5938,33.6094 12.5,32.9063 C13.4063,32.2031 13.2031,31.2969 12.9063,30.7969 C12.5938,30.2969 9.40625,24.5 9.40625,24.5 C9.40625,24.5 8.70313,23.0938 8.70313,21.2969 C8.70313,20 9.09375,18.4063 10.4063,17.0938 C11.5938,15.9063 13,15.5 14.2969,15.5 C15.5938,15.5 16.7031,15.9063 17.5,16.4063 L21.4063,18.9063 C21.4063,18.9063 22.5938,19.5 23.2031,18.5938 C23.7031,17.7969 23.5,17.4063 23.2031,16.9063"/>
<path class="Rest" transform="matrix(2.16,0,0,2.16,3873.8,1936.39)" d="M0,-11.7969 L0,-1 C0,0.40625 0,0.40625 1.40625,0.40625 L31.1094,0.40625 C32.5,0.40625 32.5,0.40625 32.5,-1 L32.5,-11.7969 C32.5,-13.2031 32.5,-13.2031 31.1094,-13.2031 L1.40625,-13.2031 C0,-13.2031 0,-13.2031 0,-11.7969"/>
<path class="Articulation" transform="matrix(2.16,0,0,2.16,2518.17,1809.81)" d="M1.14063,-1.14063 C2.67188,0.390625 5.14063,0.390625 6.65625,-1.14063 C8.1875,-2.65625 8.1875,-5.125 6.65625,-6.65625 C5.14063,-8.17188 2.67188,-8.17188 1.14063,-6.65625 C-0.375,-5.125 -0.375,-2.65625 1.14063,-1.14063"/>
<path class="Articulation" transform="matrix(2.16,0,0,2.16,2647.19,1809.81)" d="M1.14063,-1.14063 C2.67188,0.390625 5.14063,0.390625 6.65625,-1.14063 C8.1875,-2.65625 8.1875,-5.125 6.65625,-6.65625 C5.14063,-8.17188 2.67188,-8.17188 1.14063,-6.65625 C-0.375,-5.125 -0.375,-2.65625 1.14063,-1.14063"/>
<path class="Beam" fill-rule="evenodd" d="M1244.73,2071.26 L1541.75,2029.93 L1541.75,2057.19 L1244.73,2098.52 L1244.73,2071.26 "/>
<path class="Beam" fill-rule="evenodd" d="M1541.75,1989.43 L1471.55,1999.2 L1471.55,2026.46 L1541.75,2016.69 L1541.75,1989.43 "/>
<path class="Fingering" d="M676.063,71.0691 C670.188,78.1629 654.266,83.5222 638.36,83.866 L638.36,91.3191 L653.578,91.3191 C663.61,91.491 664.657,92.5222 664.297,102.21 L664.297,171.585 C664.297,180.413 664.297,180.757 663.266,182.319 C661.875,184.038 658.594,184.741 648.907,184.741 L637.657,184.741 L637.657,192.866 L706.172,192.866 L706.172,184.741 L696.657,184.741 C686.969,184.741 683.672,184.038 682.297,182.319 C681.078,180.757 681.078,180.585 681.078,171.585 L681.078,100.132 C681.078,90.4441 681.438,82.3191 682.297,71.0691 L676.063,71.0691 "/>
<path class="Fingering" d="M973.022,201.777 L965.413,201.777 L963.694,210.605 C961.444,221.855 960.053,222.886 949.335,222.886 L910.569,222.886 C922.507,210.433 926.491,206.792 937.569,198.152 C953.303,186.042 960.053,179.98 964.038,174.792 C969.569,167.183 972.335,159.573 972.335,151.089 C972.335,131.37 956.069,117.355 933.413,117.355 C911.444,117.355 894.663,131.37 894.663,149.886 C894.663,160.777 900.194,168.214 908.319,168.214 C914.725,168.214 919.053,163.902 919.053,157.667 C919.053,153.339 916.632,149.355 912.991,147.808 C906.6,145.214 906.257,144.87 906.257,142.62 C906.257,140.027 907.975,136.042 910.397,133.105 C914.725,127.73 921.819,124.792 929.96,124.792 C944.303,124.792 952.788,133.62 952.788,148.152 C952.788,160.948 946.741,172.542 932.382,187.777 C919.569,201.261 911.616,209.745 908.678,213.027 C902.444,220.292 899.335,224.277 891.725,234.308 L891.725,239.152 L969.741,239.152 L973.022,201.777 "/>
<path class="Fingering" d="M1154.09,191.766 C1169.84,186.063 1177.11,177.235 1177.11,163.406 C1177.11,145.235 1163.27,133.641 1141.81,133.641 C1121.56,133.641 1106.17,145.578 1106.17,161.328 C1106.17,168.422 1110.84,173.438 1117.59,173.438 C1123.64,173.438 1127.8,169.281 1127.8,163.047 C1127.8,159.25 1126.41,157 1122.44,154.235 C1120.7,153.016 1120.19,152.328 1120.19,151.11 C1120.19,146.266 1130.22,141.078 1140.08,141.078 C1152.53,141.078 1159.11,148.86 1159.11,163.578 C1159.11,179.656 1152.53,188.141 1140.25,188.141 C1138.7,188.141 1135.75,187.969 1133.16,187.797 C1131.78,187.625 1130.39,187.625 1129.36,187.625 C1125.72,187.625 1123.81,189.172 1123.81,192.297 C1123.81,195.235 1125.55,196.61 1129.36,196.61 C1130.39,196.61 1131.78,196.61 1133.33,196.438 C1136.8,196.266 1139.56,196.266 1141.47,196.266 C1154.27,196.266 1161.19,205.438 1161.19,222.563 C1161.19,240.563 1152.53,250.594 1136.97,250.594 C1126.06,250.594 1114.3,244.719 1114.3,239.344 C1114.3,237.797 1114.66,237.438 1117.94,235.547 C1122.78,232.594 1124.69,229.656 1124.69,225.328 C1124.69,219.11 1120.02,214.438 1113.78,214.438 C1106.34,214.438 1101.5,220.485 1101.5,229.656 C1101.5,246.438 1116.89,258.031 1139.05,258.031 C1164.12,258.031 1180.39,244.188 1180.39,222.906 C1180.39,206.656 1172.09,196.797 1154.09,191.766"/>
<path class="Fingering" d="M1632.39,182.926 C1626.52,190.02 1610.6,195.379 1594.69,195.723 L1594.69,203.176 L1609.91,203.176 C1619.94,203.348 1620.99,204.379 1620.63,214.067 L1620.63,283.442 C1620.63,292.27 1620.63,292.614 1619.6,294.176 C1618.21,295.895 1614.93,296.598 1605.24,296.598 L1593.99,296.598 L1593.99,304.723 L1662.5,304.723 L1662.5,296.598 L1652.99,296.598 C1643.3,296.598 1640,295.895 1638.63,294.176 C1637.41,292.614 1637.41,292.442 1637.41,283.442 L1637.41,211.989 C1637.41,202.301 1637.77,194.176 1638.63,182.926 L1632.39,182.926 "/>
<path class="Fingering" d="M1919.44,303.622 C1935.19,297.919 1942.45,289.091 1942.45,275.263 C1942.45,257.091 1928.61,245.497 1907.16,245.497 C1886.91,245.497 1871.52,257.435 1871.52,273.185 C1871.52,280.279 1876.19,285.294 1882.94,285.294 C1888.98,285.294 1893.14,281.138 1893.14,274.904 C1893.14,271.107 1891.75,268.857 1887.78,266.091 C1886.05,264.872 1885.53,264.185 1885.53,262.966 C1885.53,258.122 1895.56,252.935 1905.42,252.935 C1917.87,252.935 1924.45,260.716 1924.45,275.435 C1924.45,291.513 1917.87,299.997 1905.59,299.997 C1904.05,299.997 1901.09,299.826 1898.5,299.654 C1897.12,299.482 1895.73,299.482 1894.7,299.482 C1891.06,299.482 1889.16,301.029 1889.16,304.154 C1889.16,307.091 1890.89,308.466 1894.7,308.466 C1895.73,308.466 1897.12,308.466 1898.67,308.294 C1902.14,308.122 1904.91,308.122 1906.81,308.122 C1919.61,308.122 1926.53,317.294 1926.53,334.419 C1926.53,352.419 1917.87,362.451 1902.31,362.451 C1891.41,362.451 1879.64,356.576 1879.64,351.201 C1879.64,349.654 1880,349.294 1883.28,347.404 C1888.12,344.451 1890.03,341.513 1890.03,337.185 C1890.03,330.966 1885.36,326.294 1879.12,326.294 C1871.69,326.294 1866.84,332.341 1866.84,341.513 C1866.84,358.294 1882.23,369.888 1904.39,369.888 C1929.47,369.888 1945.73,356.044 1945.73,334.763 C1945.73,318.513 1937.44,308.654 1919.44,303.622"/>
<path class="Fingering" d="M2120.96,314.575 C2115.08,321.669 2099.16,327.029 2083.26,327.372 L2083.26,334.825 L2098.47,334.825 C2108.51,334.997 2109.55,336.029 2109.19,345.716 L2109.19,415.091 C2109.19,423.919 2109.19,424.263 2108.16,425.825 C2106.77,427.544 2103.49,428.247 2093.8,428.247 L2082.55,428.247 L2082.55,436.372 L2151.07,436.372 L2151.07,428.247 L2141.55,428.247 C2131.87,428.247 2128.57,427.544 2127.19,425.825 C2125.97,424.263 2125.97,424.091 2125.97,415.091 L2125.97,343.638 C2125.97,333.95 2126.33,325.825 2127.19,314.575 L2120.96,314.575 "/>
<path class="Fingering" d="M2252.32,314.575 C2246.44,321.669 2230.52,327.029 2214.62,327.372 L2214.62,334.825 L2229.84,334.825 C2239.87,334.997 2240.91,336.029 2240.55,345.716 L2240.55,415.091 C2240.55,423.919 2240.55,424.263 2239.52,425.825 C2238.13,427.544 2234.85,428.247 2225.16,428.247 L2213.91,428.247 L2213.91,436.372 L2282.43,436.372 L2282.43,428.247 L2272.91,428.247 C2263.23,428.247 2259.93,427.544 2258.55,425.825 C2257.34,424.263 2257.34,424.091 2257.34,415.091 L2257.34,343.638 C2257.34,333.95 2257.69,325.825 2258.55,314.575 L2252.32,314.575 "/>
<path class="Fingering" d="M3528.85,466.084 C3522.97,473.177 3507.05,478.537 3491.15,478.881 L3491.15,486.334 L3506.36,486.334 C3516.4,486.506 3517.44,487.537 3517.08,497.224 L3517.08,566.599 C3517.08,575.427 3517.08,575.771 3516.05,577.334 C3514.66,579.052 3511.38,579.756 3501.69,579.756 L3490.44,579.756 L3490.44,587.881 L3558.96,587.881 L3558.96,579.756 L3549.44,579.756 C3539.75,579.756 3536.46,579.052 3535.08,577.334 C3533.86,575.771 3533.86,575.599 3533.86,566.599 L3533.86,495.146 C3533.86,485.459 3534.22,477.334 3535.08,466.084 L3528.85,466.084 "/>
<path class="Fingering" d="M3711.39,569.792 L3703.79,569.792 L3702.07,578.62 C3699.82,589.87 3698.43,590.901 3687.71,590.901 L3648.94,590.901 C3660.88,578.448 3664.86,574.807 3675.94,566.167 C3691.68,554.057 3698.43,547.995 3702.41,542.807 C3707.94,535.198 3710.71,527.589 3710.71,519.104 C3710.71,499.385 3694.44,485.37 3671.79,485.37 C3649.82,485.37 3633.04,499.385 3633.04,517.901 C3633.04,528.792 3638.57,536.229 3646.69,536.229 C3653.1,536.229 3657.43,531.917 3657.43,525.682 C3657.43,521.354 3655,517.37 3651.36,515.823 C3644.97,513.229 3644.63,512.885 3644.63,510.635 C3644.63,508.042 3646.35,504.057 3648.77,501.12 C3653.1,495.745 3660.19,492.807 3668.33,492.807 C3682.68,492.807 3691.16,501.635 3691.16,516.167 C3691.16,528.964 3685.11,540.557 3670.75,555.792 C3657.94,569.276 3649.99,577.76 3647.05,581.042 C3640.82,588.307 3637.71,592.292 3630.1,602.323 L3630.1,607.167 L3708.11,607.167 L3711.39,569.792 "/>
<path class="Fingering" d="M3970.3,559.78 C3986.05,554.077 3993.31,545.249 3993.31,531.421 C3993.31,513.249 3979.47,501.655 3958.02,501.655 C3937.77,501.655 3922.38,513.593 3922.38,529.343 C3922.38,536.437 3927.05,541.452 3933.8,541.452 C3939.84,541.452 3944,537.296 3944,531.062 C3944,527.265 3942.61,525.015 3938.64,522.249 C3936.91,521.03 3936.39,520.343 3936.39,519.124 C3936.39,514.28 3946.42,509.093 3956.28,509.093 C3968.73,509.093 3975.31,516.874 3975.31,531.593 C3975.31,547.671 3968.73,556.155 3956.45,556.155 C3954.91,556.155 3951.95,555.984 3949.36,555.812 C3947.98,555.64 3946.59,555.64 3945.56,555.64 C3941.92,555.64 3940.02,557.187 3940.02,560.312 C3940.02,563.249 3941.75,564.624 3945.56,564.624 C3946.59,564.624 3947.98,564.624 3949.53,564.452 C3953,564.28 3955.77,564.28 3957.67,564.28 C3970.47,564.28 3977.39,573.452 3977.39,590.577 C3977.39,608.577 3968.73,618.609 3953.17,618.609 C3942.27,618.609 3930.5,612.734 3930.5,607.359 C3930.5,605.812 3930.86,605.452 3934.14,603.562 C3938.98,600.609 3940.89,597.671 3940.89,593.343 C3940.89,587.124 3936.22,582.452 3929.98,582.452 C3922.55,582.452 3917.7,588.499 3917.7,597.671 C3917.7,614.452 3933.09,626.046 3955.25,626.046 C3980.33,626.046 3996.59,612.202 3996.59,590.921 C3996.59,574.671 3988.3,564.812 3970.3,559.78"/>
<path class="Fingering" d="M389.25,1547.37 L330.422,1629.2 L330.422,1638.88 L379.031,1638.88 L379.031,1647.88 C379.031,1656.71 379.031,1657.05 378,1658.62 C376.609,1660.51 373.328,1661.04 363.469,1661.04 L361.563,1661.04 L361.563,1669.16 L412.078,1669.16 L412.078,1661.04 L411.391,1661.04 C401.531,1661.04 398.234,1660.51 396.859,1658.62 C395.813,1657.05 395.813,1656.88 395.813,1647.88 L395.813,1638.88 L416.75,1638.88 L416.75,1629.2 L395.813,1629.2 L395.813,1581.98 C395.813,1560.35 395.813,1559.82 396.688,1547.37 L389.25,1547.37 M379.031,1629.2 L340.969,1629.2 L379.031,1576.77 L379.031,1629.2 "/>
<path class="Fingering" d="M635.809,1587.02 C629.934,1594.11 614.012,1599.47 598.106,1599.82 L598.106,1607.27 L613.325,1607.27 C623.356,1607.44 624.403,1608.47 624.044,1618.16 L624.044,1687.53 C624.044,1696.36 624.044,1696.71 623.012,1698.27 C621.622,1699.99 618.34,1700.69 608.653,1700.69 L597.403,1700.69 L597.403,1708.82 L665.919,1708.82 L665.919,1700.69 L656.403,1700.69 C646.715,1700.69 643.419,1699.99 642.044,1698.27 C640.825,1696.71 640.825,1696.53 640.825,1687.53 L640.825,1616.08 C640.825,1606.39 641.184,1598.27 642.044,1587.02 L635.809,1587.02 "/>
<path class="Fingering" d="M1049.5,1680.72 C1065.25,1675.01 1072.52,1666.18 1072.52,1652.36 C1072.52,1634.18 1058.68,1622.59 1037.22,1622.59 C1016.97,1622.59 1001.58,1634.53 1001.58,1650.28 C1001.58,1657.37 1006.25,1662.39 1013,1662.39 C1019.05,1662.39 1023.21,1658.23 1023.21,1652 C1023.21,1648.2 1021.82,1645.95 1017.85,1643.18 C1016.11,1641.97 1015.6,1641.28 1015.6,1640.06 C1015.6,1635.22 1025.63,1630.03 1035.49,1630.03 C1047.94,1630.03 1054.52,1637.81 1054.52,1652.53 C1054.52,1668.61 1047.94,1677.09 1035.66,1677.09 C1034.11,1677.09 1031.16,1676.92 1028.57,1676.75 C1027.19,1676.57 1025.8,1676.57 1024.77,1676.57 C1021.13,1676.57 1019.22,1678.12 1019.22,1681.25 C1019.22,1684.18 1020.96,1685.56 1024.77,1685.56 C1025.8,1685.56 1027.19,1685.56 1028.74,1685.39 C1032.21,1685.22 1034.97,1685.22 1036.88,1685.22 C1049.68,1685.22 1056.6,1694.39 1056.6,1711.51 C1056.6,1729.51 1047.94,1739.54 1032.38,1739.54 C1021.47,1739.54 1009.71,1733.67 1009.71,1728.29 C1009.71,1726.75 1010.07,1726.39 1013.35,1724.5 C1018.19,1721.54 1020.1,1718.61 1020.1,1714.28 C1020.1,1708.06 1015.43,1703.39 1009.19,1703.39 C1001.75,1703.39 996.91,1709.43 996.91,1718.61 C996.91,1735.39 1012.3,1746.98 1034.46,1746.98 C1059.53,1746.98 1075.8,1733.14 1075.8,1711.86 C1075.8,1695.61 1067.5,1685.75 1049.5,1680.72"/>
<path class="Fingering" d="M1430.97,1547.37 L1372.14,1629.2 L1372.14,1638.88 L1420.75,1638.88 L1420.75,1647.88 C1420.75,1656.71 1420.75,1657.05 1419.72,1658.62 C1418.32,1660.51 1415.04,1661.04 1405.18,1661.04 L1403.28,1661.04 L1403.28,1669.16 L1453.79,1669.16 L1453.79,1661.04 L1453.11,1661.04 C1443.25,1661.04 1439.95,1660.51 1438.57,1658.62 C1437.53,1657.05 1437.53,1656.88 1437.53,1647.88 L1437.53,1638.88 L1458.47,1638.88 L1458.47,1629.2 L1437.53,1629.2 L1437.53,1581.98 C1437.53,1560.35 1437.53,1559.82 1438.4,1547.37 L1430.97,1547.37 M1420.75,1629.2 L1382.68,1629.2 L1420.75,1576.77 L1420.75,1629.2 "/>
<path class="Fingering" d="M1552.27,1583.2 C1561.62,1585.45 1566.29,1586.15 1573.21,1586.15 C1587.91,1586.15 1598.63,1581.12 1604.35,1571.43 C1606.24,1568.32 1606.94,1566.59 1606.94,1565.22 C1606.94,1564.17 1606.6,1563.65 1605.55,1563.65 C1605.04,1563.65 1604.35,1563.82 1603.3,1564.34 C1594.84,1567.98 1590.34,1568.84 1580.3,1568.84 C1569.23,1568.84 1562.3,1567.81 1544.66,1563.65 C1543.96,1578.18 1542.41,1596.7 1539.99,1618.15 C1536.35,1621.95 1535.15,1624.2 1535.15,1626.98 C1535.15,1630.61 1537.4,1632.86 1540.68,1632.86 C1545.18,1632.86 1547.77,1629.23 1548.46,1622.31 C1554.52,1617.98 1560.23,1616.07 1567.15,1616.07 C1582.73,1616.07 1591.88,1627.84 1591.88,1647.73 C1591.88,1659.32 1588.94,1669.18 1583.76,1674.54 C1580.3,1678.18 1573.21,1680.61 1566.12,1680.61 C1555.73,1680.61 1545.01,1675.25 1545.01,1669.87 C1545.01,1668.67 1546.04,1667.28 1548.12,1666.07 C1553.48,1662.79 1555.04,1660.54 1555.04,1655.87 C1555.04,1649.81 1550.37,1645.14 1544.13,1645.14 C1537.23,1645.14 1531.68,1651.54 1531.68,1659.67 C1531.68,1668.32 1536.69,1676.97 1544.49,1682.34 C1550.37,1686.14 1557.29,1688.04 1566.46,1688.04 C1593.62,1688.04 1610.74,1672.12 1610.74,1646.7 C1610.74,1623.17 1595.18,1607.42 1571.65,1607.42 C1564.21,1607.42 1558.85,1608.64 1549.34,1612.62 L1552.27,1583.2 "/>
<path class="Fingering" d="M1828.47,1546.86 L1769.64,1628.69 L1769.64,1638.38 L1818.25,1638.38 L1818.25,1647.38 C1818.25,1656.2 1818.25,1656.55 1817.22,1658.11 C1815.83,1660 1812.55,1660.53 1802.69,1660.53 L1800.79,1660.53 L1800.79,1668.66 L1851.3,1668.66 L1851.3,1660.53 L1850.61,1660.53 C1840.75,1660.53 1837.46,1660 1836.08,1658.11 C1835.04,1656.55 1835.04,1656.38 1835.04,1647.38 L1835.04,1638.38 L1855.97,1638.38 L1855.97,1628.69 L1835.04,1628.69 L1835.04,1581.47 C1835.04,1559.85 1835.04,1559.31 1835.91,1546.86 L1828.47,1546.86 M1818.25,1628.69 L1780.19,1628.69 L1818.25,1576.27 L1818.25,1628.69 "/>
<path class="Fingering" d="M2021.31,1565.71 L2013.7,1565.71 L2011.98,1574.54 C2009.73,1585.79 2008.34,1586.82 1997.63,1586.82 L1958.86,1586.82 C1970.8,1574.37 1974.78,1570.73 1985.86,1562.09 C2001.59,1549.98 2008.34,1543.91 2012.33,1538.73 C2017.86,1531.12 2020.63,1523.51 2020.63,1515.02 C2020.63,1495.31 2004.36,1481.29 1981.7,1481.29 C1959.73,1481.29 1942.95,1495.31 1942.95,1513.82 C1942.95,1524.71 1948.48,1532.15 1956.61,1532.15 C1963.02,1532.15 1967.34,1527.84 1967.34,1521.6 C1967.34,1517.27 1964.92,1513.29 1961.28,1511.74 C1954.89,1509.15 1954.55,1508.81 1954.55,1506.56 C1954.55,1503.96 1956.27,1499.98 1958.69,1497.04 C1963.02,1491.66 1970.11,1488.73 1978.25,1488.73 C1992.59,1488.73 2001.08,1497.56 2001.08,1512.09 C2001.08,1524.88 1995.03,1536.48 1980.67,1551.71 C1967.86,1565.2 1959.91,1573.68 1956.97,1576.96 C1950.73,1584.23 1947.63,1588.21 1940.02,1598.24 L1940.02,1603.09 L2018.03,1603.09 L2021.31,1565.71 "/>
<path class="Fingering" d="M2272.75,1435.51 C2266.88,1442.6 2250.95,1447.96 2235.05,1448.31 L2235.05,1455.76 L2250.27,1455.76 C2260.3,1455.93 2261.34,1456.96 2260.98,1466.65 L2260.98,1536.03 C2260.98,1544.85 2260.98,1545.2 2259.95,1546.76 C2258.56,1548.48 2255.28,1549.18 2245.59,1549.18 L2234.34,1549.18 L2234.34,1557.31 L2302.86,1557.31 L2302.86,1549.18 L2293.34,1549.18 C2283.66,1549.18 2280.36,1548.48 2278.98,1546.76 C2277.77,1545.2 2277.77,1545.03 2277.77,1536.03 L2277.77,1464.57 C2277.77,1454.89 2278.13,1446.76 2278.98,1435.51 L2272.75,1435.51 "/>
<path class="Fingering" d="M2437.92,1566.22 L2430.31,1566.22 L2428.59,1575.05 C2426.34,1586.3 2424.95,1587.33 2414.23,1587.33 L2375.47,1587.33 C2387.4,1574.87 2391.39,1571.23 2402.47,1562.59 C2418.2,1550.48 2424.95,1544.42 2428.94,1539.23 C2434.47,1531.62 2437.23,1524.01 2437.23,1515.53 C2437.23,1495.81 2420.97,1481.8 2398.31,1481.8 C2376.34,1481.8 2359.56,1495.81 2359.56,1514.33 C2359.56,1525.22 2365.09,1532.66 2373.22,1532.66 C2379.62,1532.66 2383.95,1528.34 2383.95,1522.11 C2383.95,1517.78 2381.53,1513.8 2377.89,1512.25 C2371.5,1509.66 2371.15,1509.31 2371.15,1507.06 C2371.15,1504.47 2372.87,1500.48 2375.3,1497.55 C2379.62,1492.17 2386.72,1489.23 2394.86,1489.23 C2409.2,1489.23 2417.69,1498.06 2417.69,1512.59 C2417.69,1525.39 2411.64,1536.98 2397.28,1552.22 C2384.47,1565.7 2376.51,1574.19 2373.58,1577.47 C2367.34,1584.73 2364.23,1588.72 2356.62,1598.75 L2356.62,1603.59 L2434.64,1603.59 L2437.92,1566.22 "/>
<path class="Fingering" d="M2542.25,1547.37 L2483.42,1629.2 L2483.42,1638.88 L2532.03,1638.88 L2532.03,1647.88 C2532.03,1656.71 2532.03,1657.05 2531,1658.62 C2529.61,1660.51 2526.33,1661.04 2516.47,1661.04 L2514.56,1661.04 L2514.56,1669.16 L2565.08,1669.16 L2565.08,1661.04 L2564.39,1661.04 C2554.53,1661.04 2551.23,1660.51 2549.86,1658.62 C2548.81,1657.05 2548.81,1656.88 2548.81,1647.88 L2548.81,1638.88 L2569.75,1638.88 L2569.75,1629.2 L2548.81,1629.2 L2548.81,1581.98 C2548.81,1560.35 2548.81,1559.82 2549.68,1547.37 L2542.25,1547.37 M2532.03,1629.2 L2493.97,1629.2 L2532.03,1576.77 L2532.03,1629.2 "/>
<path class="Fingering" d="M2659.79,1587.02 C2653.92,1594.11 2638,1599.47 2622.09,1599.82 L2622.09,1607.27 L2637.31,1607.27 C2647.34,1607.44 2648.39,1608.47 2648.03,1618.16 L2648.03,1687.53 C2648.03,1696.36 2648.03,1696.71 2647,1698.27 C2645.6,1699.99 2642.32,1700.69 2632.64,1700.69 L2621.39,1700.69 L2621.39,1708.82 L2689.9,1708.82 L2689.9,1700.69 L2680.39,1700.69 C2670.7,1700.69 2667.4,1699.99 2666.03,1698.27 C2664.81,1696.71 2664.81,1696.53 2664.81,1687.53 L2664.81,1616.08 C2664.81,1606.39 2665.17,1598.27 2666.03,1587.02 L2659.79,1587.02 "/>
<path class="Fingering" d="M2913.16,1546.86 L2854.34,1628.69 L2854.34,1638.38 L2902.95,1638.38 L2902.95,1647.38 C2902.95,1656.2 2902.95,1656.55 2901.91,1658.11 C2900.52,1660 2897.24,1660.53 2887.38,1660.53 L2885.48,1660.53 L2885.48,1668.66 L2935.99,1668.66 L2935.99,1660.53 L2935.3,1660.53 C2925.45,1660.53 2922.15,1660 2920.77,1658.11 C2919.73,1656.55 2919.73,1656.38 2919.73,1647.38 L2919.73,1638.38 L2940.66,1638.38 L2940.66,1628.69 L2919.73,1628.69 L2919.73,1581.47 C2919.73,1559.85 2919.73,1559.31 2920.6,1546.86 L2913.16,1546.86 M2902.95,1628.69 L2864.88,1628.69 L2902.95,1576.27 L2902.95,1628.69 "/>
<path class="Fingering" d="M3106,1565.71 L3098.39,1565.71 L3096.68,1574.54 C3094.43,1585.79 3093.04,1586.82 3082.32,1586.82 L3043.55,1586.82 C3055.49,1574.37 3059.47,1570.73 3070.55,1562.09 C3086.29,1549.98 3093.04,1543.91 3097.02,1538.73 C3102.55,1531.12 3105.32,1523.51 3105.32,1515.02 C3105.32,1495.31 3089.05,1481.29 3066.39,1481.29 C3044.43,1481.29 3027.64,1495.31 3027.64,1513.82 C3027.64,1524.71 3033.18,1532.15 3041.3,1532.15 C3047.71,1532.15 3052.04,1527.84 3052.04,1521.6 C3052.04,1517.27 3049.61,1513.29 3045.97,1511.74 C3039.58,1509.15 3039.24,1508.81 3039.24,1506.56 C3039.24,1503.96 3040.96,1499.98 3043.38,1497.04 C3047.71,1491.66 3054.8,1488.73 3062.94,1488.73 C3077.29,1488.73 3085.77,1497.56 3085.77,1512.09 C3085.77,1524.88 3079.72,1536.48 3065.36,1551.71 C3052.55,1565.2 3044.6,1573.68 3041.66,1576.96 C3035.43,1584.23 3032.32,1588.21 3024.71,1598.24 L3024.71,1603.09 L3102.72,1603.09 L3106,1565.71 "/>
<path class="Fingering" d="M3334.79,1546.86 L3275.96,1628.69 L3275.96,1638.38 L3324.57,1638.38 L3324.57,1647.38 C3324.57,1656.2 3324.57,1656.55 3323.54,1658.11 C3322.15,1660 3318.87,1660.53 3309.01,1660.53 L3307.1,1660.53 L3307.1,1668.66 L3357.62,1668.66 L3357.62,1660.53 L3356.93,1660.53 C3347.07,1660.53 3343.77,1660 3342.4,1658.11 C3341.35,1656.55 3341.35,1656.38 3341.35,1647.38 L3341.35,1638.38 L3362.29,1638.38 L3362.29,1628.69 L3341.35,1628.69 L3341.35,1581.47 C3341.35,1559.85 3341.35,1559.31 3342.23,1546.86 L3334.79,1546.86 M3324.57,1628.69 L3286.51,1628.69 L3324.57,1576.27 L3324.57,1628.69 "/>
<path class="Fingering" d="M3491.47,1587.02 C3485.6,1594.11 3469.68,1599.47 3453.77,1599.82 L3453.77,1607.27 L3468.99,1607.27 C3479.02,1607.44 3480.07,1608.47 3479.71,1618.16 L3479.71,1687.53 C3479.71,1696.36 3479.71,1696.71 3478.68,1698.27 C3477.29,1699.99 3474,1700.69 3464.32,1700.69 L3453.07,1700.69 L3453.07,1708.82 L3521.58,1708.82 L3521.58,1700.69 L3512.07,1700.69 C3502.38,1700.69 3499.08,1699.99 3497.71,1698.27 C3496.49,1696.71 3496.49,1696.53 3496.49,1687.53 L3496.49,1616.08 C3496.49,1606.39 3496.85,1598.27 3497.71,1587.02 L3491.47,1587.02 "/>
<path class="Tuplet" d="M1466.49,2156.13 C1471.04,2154.68 1472.88,2153.92 1475.21,2152.35 C1479.77,2149.35 1482.58,2144.01 1482.58,2138.59 C1482.58,2129.37 1475.21,2123.17 1464.35,2123.17 C1453.77,2123.17 1444.85,2129.76 1444.85,2137.71 C1444.85,2141.68 1447.29,2144.4 1450.96,2144.4 C1454.16,2144.4 1456.49,2142.07 1456.49,2138.87 C1456.49,2137.23 1456,2136.06 1454.46,2134.51 C1453.49,2133.63 1453.1,2132.96 1453.1,2132.28 C1453.1,2129.95 1457.94,2127.53 1462.5,2127.53 C1469,2127.53 1472.88,2131.12 1472.88,2137.13 C1472.88,2145.76 1466.77,2153.92 1460.27,2153.92 C1459.99,2153.92 1459.11,2153.81 1458.05,2153.71 C1455.24,2153.53 1455.24,2153.53 1454.64,2153.53 C1452.52,2153.53 1451.35,2154.49 1451.35,2156.23 C1451.35,2157.79 1452.43,2158.76 1454.16,2158.76 C1454.64,2158.76 1455.33,2158.67 1456.1,2158.56 C1457.46,2158.28 1458.91,2158.18 1459.79,2158.18 C1464.35,2158.18 1467.46,2162.24 1467.46,2168.26 C1467.46,2172.92 1466.39,2177.38 1464.25,2181.07 C1461.35,2186.31 1456.88,2188.82 1450.58,2188.82 C1445.14,2188.82 1440.49,2186.12 1440.49,2183.01 C1440.49,2181.95 1440.88,2181.56 1442.43,2180.87 C1445.24,2179.62 1446.41,2177.87 1446.41,2175.24 C1446.41,2171.85 1443.69,2169.23 1440.19,2169.23 C1436.02,2169.23 1433.32,2172.53 1433.32,2177.57 C1433.32,2186.98 1440.49,2192.9 1452.13,2192.9 C1466.77,2192.9 1477.93,2183.1 1477.93,2170.1 C1477.93,2166.62 1476.86,2163.6 1474.83,2161.18 C1472.69,2158.67 1470.75,2157.49 1466.49,2156.13"/>
<path class="RehearsalMark" fill="none" stroke="#000000" stroke-width="8.64" stroke-linecap="square" stroke-linejoin="miter" stroke-miterlimit="2" fill-rule="evenodd" d="M28.0675,365.149 L475.707,365.149 L475.707,542.789 L28.0675,542.789 L28.0675,365.149 "/>
<path class="RehearsalMark" d="M95.1062,437.047 L59.6219,438.11 L59.6219,445.797 L61.7312,445.797 C70.9344,445.954 71.3875,446.563 71.3875,460.001 L71.3875,486.719 L71.3875,493.672 L71.3875,494.876 C71.2469,497.001 71.0906,497.907 70.4812,498.797 C69.575,500.157 66.5594,500.766 60.2156,500.766 L59.6219,500.766 L59.6219,508.469 L106.872,508.469 L106.872,500.766 L105.966,500.766 C96.4656,500.61 95.1062,499.704 95.1062,494.282 L95.1062,486.719 L95.1062,437.047 M82.8719,397.188 C75.4656,397.188 69.4344,403.219 69.4344,410.469 C69.4344,417.876 75.4656,423.907 82.575,423.907 C90.2625,423.907 96.1531,418.016 96.1531,410.469 C96.1531,403.219 90.1219,397.188 82.8719,397.188 M148.841,437.047 L114.262,438.11 L114.262,445.797 L116.528,445.797 C125.887,445.954 126.341,446.563 126.2,460.454 L126.2,486.719 L126.2,493.672 L126.2,494.876 C126.044,497.001 125.887,497.907 125.294,498.797 C124.231,500.157 121.356,500.766 114.872,500.766 L114.262,500.766 L114.262,508.469 L160.325,508.469 L160.325,500.766 C151.716,500.766 149.747,499.563 149.903,494.282 L149.903,486.719 L149.903,472.079 C149.903,465.282 150.512,461.36 152.325,457.735 C154.731,452.297 160.012,448.829 165.45,448.829 C172.559,448.829 176.481,453.954 176.481,463.626 L176.481,486.719 L176.481,490.954 L176.481,494.876 C176.325,497.001 176.184,497.907 175.575,498.797 C174.059,500.313 171.2,500.922 166.059,500.766 L166.059,508.469 L212.122,508.469 L212.122,500.766 L211.512,500.766 C201.387,500.61 200.184,499.86 200.184,494.282 L200.184,486.719 L200.184,461.501 C200.184,452.141 198.528,446.407 194.45,442.032 C190.372,437.344 183.731,434.782 175.731,434.782 C163.794,434.782 156.247,439.157 148.841,450.329 L148.841,437.047 M272.2,437.047 L252.575,437.047 L252.575,407.141 L243.059,407.141 C240.637,426.469 232.481,436.594 218.137,438.251 L218.137,446.11 L228.856,446.11 L228.856,482.188 C228.856,494.579 229.466,498.204 232.028,502.422 C235.2,507.719 241.7,510.735 250.309,510.735 C258.919,510.735 265.7,507.86 269.778,502.579 C273.559,497.594 275.825,490.501 275.825,483.86 C275.825,483.094 275.825,481.891 275.669,480.376 L267.669,480.376 C267.825,491.704 264.341,497.907 258.153,497.907 C253.778,497.907 252.575,495.188 252.575,484.907 L252.575,446.11 L272.2,446.11 L272.2,437.047 M315.372,437.047 L281.7,438.11 L281.7,445.797 L283.966,445.797 C293.325,445.954 293.778,446.563 293.622,460.454 L293.622,486.719 L293.622,494.876 C293.481,497.001 293.325,497.907 292.716,498.797 C291.669,500.157 288.794,500.766 282.309,500.766 L281.7,500.766 L281.7,508.469 L332.137,508.469 L332.137,500.766 L328.809,500.766 C318.7,500.61 317.481,499.86 317.481,494.282 L317.481,486.719 L317.481,483.704 C318.091,461.36 324.434,447.61 335.309,444.751 C333.341,447.469 332.731,449.126 332.731,451.844 C332.731,458.344 337.575,463.016 344.059,463.016 C351.466,463.016 357.044,457.438 357.044,450.032 C357.044,441.266 350.106,434.782 340.434,434.782 C328.809,434.782 320.653,441.422 315.372,455.313 L315.372,437.047 M403.856,434.782 C379.841,434.782 362.028,451.094 362.028,472.985 C362.028,494.876 379.387,510.735 403.247,510.735 C427.106,510.735 444.762,494.735 444.762,473.141 C444.762,451.688 426.794,434.782 403.856,434.782 M403.544,442.626 C408.825,442.626 413.669,446.251 415.622,451.547 C417.434,456.532 418.653,464.985 418.653,472.985 C418.653,492.157 413.216,502.876 403.403,502.876 C393.278,502.876 388.137,492.766 388.137,472.829 C388.137,452.751 393.278,442.626 403.544,442.626"/>
<path class="RehearsalMark" fill="none" stroke="#000000" stroke-width="8.64" stroke-linecap="square" stroke-linejoin="miter" stroke-miterlimit="2" fill-rule="evenodd" d="M2763.26,402.132 L2946.9,402.132 L2946.9,576.772 L2763.26,576.772 L2763.26,402.132 "/>
<path class="RehearsalMark" d="M2850.58,434.171 L2816.3,514.202 C2809.36,530.499 2803.77,536.39 2794.86,537.296 L2794.86,545.452 L2838.5,545.452 L2838.5,537.296 C2827.78,536.687 2823.55,533.827 2823.55,526.874 C2823.55,524.312 2824.16,521.89 2825.82,518.265 L2828.24,512.53 L2865.83,512.53 L2871.57,527.327 C2873.24,531.562 2873.38,532.312 2873.38,533.53 C2873.38,536.234 2871.27,537.14 2864.63,537.14 L2862.07,537.296 L2862.07,545.452 L2915.07,545.452 L2915.07,537.296 C2906.46,536.999 2904.03,535.484 2900.86,527.78 L2862.07,434.171 L2850.58,434.171 M2847.41,466.327 L2862.07,502.421 L2832.16,502.421 L2847.41,466.327 "/>
<path class="RehearsalMark" fill="none" stroke="#000000" stroke-width="8.64" stroke-linecap="square" stroke-linejoin="miter" stroke-miterlimit="2" fill-rule="evenodd" d="M3327.63,257.601 L3500.27,257.601 L3500.27,430.241 L3327.63,430.241 L3327.63,257.601 "/>
<path class="RehearsalMark" d="M3359.52,289.905 L3359.52,298.046 L3361.78,298.046 C3369.94,298.046 3372.81,298.655 3374.17,300.171 C3375.22,301.827 3375.22,302.28 3375.22,311.639 L3375.22,377.171 C3375.22,386.546 3375.22,386.999 3374.17,388.499 C3372.81,390.155 3369.78,390.764 3361.78,390.764 L3359.52,390.764 L3359.52,398.921 L3420.67,398.921 C3436.38,398.921 3444.38,397.717 3452.24,394.233 C3461.75,390.014 3468.09,380.499 3468.09,370.233 C3468.09,359.655 3462.05,351.358 3450.88,346.217 C3445.74,343.811 3441.36,342.592 3433.36,341.546 C3440.77,340.327 3444.99,339.28 3449.22,337.311 C3458.28,332.936 3463.11,325.686 3463.11,316.624 C3463.11,308.014 3458.58,300.014 3451.17,295.936 C3442.88,291.264 3435.63,289.905 3417.81,289.905 L3359.52,289.905 M3402.41,338.827 L3402.41,306.811 C3402.11,300.467 3404.22,298.358 3410.86,298.046 L3415.39,298.046 C3428.67,298.046 3435.78,304.702 3435.78,317.233 C3435.78,324.624 3433.2,330.514 3428.38,334.296 C3424.3,337.608 3419.17,338.827 3409.8,338.827 L3402.41,338.827 M3402.41,347.124 L3412.83,347.124 C3422.34,347.124 3426.72,348.03 3430.94,350.749 C3436.24,354.217 3439.25,360.874 3439.25,368.717 C3439.25,375.967 3436.53,382.608 3432.16,386.233 C3428.38,389.249 3423.39,390.764 3416.14,390.764 L3411.61,390.764 C3403.02,390.467 3402.11,389.561 3402.41,381.108 L3402.41,347.124 "/>
<path class="NoteDot" transform="matrix(2.16,0,0,2.16,1098.74,1909.39)" d="M0,0 C0,2.76563 2.23438,5 5,5 C7.76563,5 10,2.76563 10,0 C10,-2.76563 7.76563,-5 5,-5 C2.23438,-5 0,-2.76563 0,0"/>
</svg>
