<?xml version="1.0" encoding="UTF-8" standalone="no"?>
<svg width="4208.47px" height="2409.45px" viewBox="0 0 4208.47 2409.45"
 xmlns="http://www.w3.org/2000/svg" xmlns:xlink="http://www.w3.org/1999/xlink" version="1.2" baseProfile="tiny">
<title>FLAUTA</title>
<desc>Generated by MuseScore 3.6.2</desc>
<polyline class="StaffLines" fill="none" stroke="#000000" stroke-width="4.91" stroke-linejoin="bevel" points="70.866,383.386 4137.61,383.386"/>
<polyline class="StaffLines" fill="none" stroke="#000000" stroke-width="4.91" stroke-linejoin="bevel" points="70.866,428.031 4137.61,428.031"/>
<polyline class="StaffLines" fill="none" stroke="#000000" stroke-width="4.91" stroke-linejoin="bevel" points="70.866,472.677 4137.61,472.677"/>
<polyline class="StaffLines" fill="none" stroke="#000000" stroke-width="4.91" stroke-linejoin="bevel" points="70.866,517.323 4137.61,517.323"/>
<polyline class="StaffLines" fill="none" stroke="#000000" stroke-width="4.91" stroke-linejoin="bevel" points="70.866,561.968 4137.61,561.968"/>
<polyline class="StaffLines" fill="none" stroke="#000000" stroke-width="4.91" stroke-linejoin="bevel" points="70.866,1120.66 4137.61,1120.66"/>
<polyline class="StaffLines" fill="none" stroke="#000000" stroke-width="4.91" stroke-linejoin="bevel" points="70.866,1165.31 4137.61,1165.31"/>
<polyline class="StaffLines" fill="none" stroke="#000000" stroke-width="4.91" stroke-linejoin="bevel" points="70.866,1209.95 4137.61,1209.95"/>
<polyline class="StaffLines" fill="none" stroke="#000000" stroke-width="4.91" stroke-linejoin="bevel" points="70.866,1254.6 4137.61,1254.6"/>
<polyline class="StaffLines" fill="none" stroke="#000000" stroke-width="4.91" stroke-linejoin="bevel" points="70.866,1299.24 4137.61,1299.24"/>
<polyline class="StaffLines" fill="none" stroke="#000000" stroke-width="4.91" stroke-linejoin="bevel" points="70.866,1857.94 4137.61,1857.94"/>
<polyline class="StaffLines" fill="none" stroke="#000000" stroke-width="4.91" stroke-linejoin="bevel" points="70.866,1902.58 4137.61,1902.58"/>
<polyline class="StaffLines" fill="none" stroke="#000000" stroke-width="4.91" stroke-linejoin="bevel" points="70.866,1947.23 4137.61,1947.23"/>
<polyline class="StaffLines" fill="none" stroke="#000000" stroke-width="4.91" stroke-linejoin="bevel" points="70.866,1991.87 4137.61,1991.87"/>
<polyline class="StaffLines" fill="none" stroke="#000000" stroke-width="4.91" stroke-linejoin="bevel" points="70.866,2036.52 4137.61,2036.52"/>
<path class="MeasureNumber" d="M87.2254,1003.06 L86.0691,1003.06 C83.866,1004.7 79.6316,1006.09 76.741,1006.09 L76.2722,1007.85 L79.0222,1007.85 C81.4597,1007.85 81.741,1007.93 81.741,1008.65 C81.741,1009.01 81.741,1009.01 81.3504,1010.45 L77.0691,1026.45 C76.5379,1028.45 76.5066,1028.57 76.1472,1028.93 C75.741,1029.32 74.8972,1029.45 72.7879,1029.49 L71.0691,1029.49 L70.866,1031.37 L85.6629,1031.37 L85.8972,1029.49 L83.741,1029.49 C81.1472,1029.49 80.5847,1029.29 80.5847,1028.42 C80.5847,1028.14 80.741,1027.21 80.9441,1026.45 L87.2254,1003.06 M109.46,1003.06 L108.303,1003.06 C106.1,1004.7 101.866,1006.09 98.9754,1006.09 L98.5066,1007.85 L101.257,1007.85 C103.694,1007.85 103.975,1007.93 103.975,1008.65 C103.975,1009.01 103.975,1009.01 103.585,1010.45 L99.3035,1026.45 C98.7722,1028.45 98.741,1028.57 98.3816,1028.93 C97.9754,1029.32 97.1316,1029.45 95.0222,1029.49 L93.3035,1029.49 L93.1004,1031.37 L107.897,1031.37 L108.132,1029.49 L105.975,1029.49 C103.382,1029.49 102.819,1029.29 102.819,1028.42 C102.819,1028.14 102.975,1027.21 103.178,1026.45 L109.46,1003.06 "/>
<path class="MeasureNumber" d="M90.2566,1760.36 L89.2254,1762.21 C87.616,1764.97 87.3035,1765.21 85.2566,1765.24 L75.991,1765.24 C76.9441,1763.97 78.7097,1762.49 81.8972,1760.24 C87.1785,1756.61 87.5379,1756.36 88.6629,1755.49 C91.866,1753 93.1785,1750.65 93.1785,1747.49 C93.1785,1743.29 90.0691,1740.49 85.4597,1740.49 C80.3504,1740.49 75.9129,1744.25 75.9129,1748.61 C75.9129,1750.85 77.1004,1752.29 79.0222,1752.29 C80.4597,1752.29 81.5847,1751.21 81.5847,1749.72 C81.5847,1748.69 81.0691,1748 79.741,1747.29 C78.7879,1746.8 78.6316,1746.61 78.6316,1746.13 C78.6316,1744.41 81.5847,1742.49 84.3035,1742.49 C87.1004,1742.49 88.991,1744.36 88.991,1747.18 C88.991,1750.16 87.6629,1752.36 84.0691,1755.49 C73.4285,1764.72 71.8191,1766.41 71.4597,1768.65 L88.616,1768.65 L91.7097,1760.93 L90.2566,1760.36 M110.819,1754.97 C110.132,1758.13 109.413,1760.05 108.257,1762.29 C106.303,1765.93 104.225,1767.57 101.413,1767.57 C100.257,1767.57 99.5066,1767.08 99.5066,1766.36 C99.5066,1766.08 99.5847,1765.97 99.8972,1765.49 C100.303,1764.97 100.507,1764.49 100.507,1763.93 C100.507,1762.61 99.4597,1761.61 98.1004,1761.61 C96.5066,1761.61 95.3816,1762.8 95.3816,1764.57 C95.3816,1767.29 97.9441,1769.24 101.507,1769.24 C104.694,1769.24 107.663,1767.85 110.1,1765.05 C113.585,1761.16 115.85,1755.36 115.85,1750.44 C115.85,1744.21 112.85,1740.49 107.897,1740.49 C104.944,1740.49 102.178,1741.82 100.335,1744.08 C98.5379,1746.29 97.5066,1749.08 97.5066,1751.69 C97.5066,1755.49 100.413,1758.36 104.303,1758.36 C106.944,1758.36 108.975,1757.29 110.819,1754.97 M107.866,1742.18 C110.413,1742.18 112.053,1744.21 112.053,1747.41 C112.053,1752.36 109.335,1756 105.663,1756 C103.132,1756 101.741,1754.29 101.741,1751.29 C101.741,1748.93 102.303,1746.8 103.382,1745 C104.585,1743.08 106.022,1742.18 107.866,1742.18"/>
<path class="TieSegment" stroke="#000000" stroke-width="3.13" stroke-linecap="round" stroke-linejoin="round" fill-rule="evenodd" d="M1369.08,385.548 C1403.81,352.901 1508.01,352.901 1542.74,385.548 C1508.01,365.402 1403.81,365.402 1369.08,385.548"/>
<polyline class="BarLine" stroke="#000000" stroke-width="24.56" stroke-linejoin="bevel" points="746.58,380.93 746.58,564.424"/>
<polyline class="BarLine" stroke="#000000" stroke-width="8.04" stroke-linejoin="bevel" points="777.832,380.93 777.832,564.424"/>
<path class="BarLine" transform="matrix(1.78583,0,0,1.78583,799.792,450.354)" d="M10.4063,0 C10.4063,-2.90625 8.09375,-5.29688 5.20313,-5.29688 C2.29688,-5.29688 0,-2.90625 0,0 C0,2.90625 2.29688,5.29688 5.20313,5.29688 C8.09375,5.29688 10.4063,2.90625 10.4063,0"/>
<path class="BarLine" transform="matrix(1.78583,0,0,1.78583,799.792,495)" d="M10.4063,0 C10.4063,-2.90625 8.09375,-5.29688 5.20313,-5.29688 C2.29688,-5.29688 0,-2.90625 0,0 C0,2.90625 2.29688,5.29688 5.20313,5.29688 C8.09375,5.29688 10.4063,2.90625 10.4063,0"/>
<polyline class="BarLine" stroke="#000000" stroke-width="8.04" stroke-linejoin="bevel" points="1098.5,380.93 1098.5,564.424"/>
<polyline class="BarLine" stroke="#000000" stroke-width="8.04" stroke-linejoin="bevel" points="1460.38,380.93 1460.38,564.424"/>
<polyline class="BarLine" stroke="#000000" stroke-width="8.04" stroke-linejoin="bevel" points="1822.26,380.93 1822.26,564.424"/>
<polyline class="BarLine" stroke="#000000" stroke-width="8.04" stroke-linejoin="bevel" points="2136.99,380.93 2136.99,564.424"/>
<polyline class="BarLine" stroke="#000000" stroke-width="8.04" stroke-linejoin="bevel" points="2572.53,380.93 2572.53,564.424"/>
<polyline class="BarLine" stroke="#000000" stroke-width="8.04" stroke-linejoin="bevel" points="3008.06,380.93 3008.06,564.424"/>
<polyline class="BarLine" stroke="#000000" stroke-width="8.04" stroke-linejoin="bevel" points="3296.29,380.93 3296.29,564.424"/>
<polyline class="BarLine" stroke="#000000" stroke-width="8.04" stroke-linejoin="bevel" points="3714.94,380.93 3714.94,564.424"/>
<polyline class="BarLine" stroke="#000000" stroke-width="8.04" stroke-linejoin="bevel" points="4133.59,380.93 4133.59,564.424"/>
<polyline class="BarLine" stroke="#000000" stroke-width="8.04" stroke-linejoin="bevel" points="776.628,1118.21 776.628,1301.7"/>
<polyline class="BarLine" stroke="#000000" stroke-width="8.04" stroke-linejoin="bevel" points="1054.66,1118.21 1054.66,1301.7"/>
<polyline class="BarLine" stroke="#000000" stroke-width="8.04" stroke-linejoin="bevel" points="1406.34,1118.21 1406.34,1301.7"/>
<polyline class="BarLine" stroke="#000000" stroke-width="8.04" stroke-linejoin="bevel" points="1684.37,1118.21 1684.37,1301.7"/>
<polyline class="BarLine" stroke="#000000" stroke-width="8.04" stroke-linejoin="bevel" points="1962.4,1118.21 1962.4,1301.7"/>
<polyline class="BarLine" stroke="#000000" stroke-width="8.04" stroke-linejoin="bevel" points="2240.43,1118.21 2240.43,1301.7"/>
<path class="BarLine" transform="matrix(1.78583,0,0,1.78583,2514.45,1187.63)" d="M10.4063,0 C10.4063,-2.90625 8.09375,-5.29688 5.20313,-5.29688 C2.29688,-5.29688 0,-2.90625 0,0 C0,2.90625 2.29688,5.29688 5.20313,5.29688 C8.09375,5.29688 10.4063,2.90625 10.4063,0"/>
<path class="BarLine" transform="matrix(1.78583,0,0,1.78583,2514.45,1232.28)" d="M10.4063,0 C10.4063,-2.90625 8.09375,-5.29688 5.20313,-5.29688 C2.29688,-5.29688 0,-2.90625 0,0 C0,2.90625 2.29688,5.29688 5.20313,5.29688 C8.09375,5.29688 10.4063,2.90625 10.4063,0"/>
<polyline class="BarLine" stroke="#000000" stroke-width="8.04" stroke-linejoin="bevel" points="2554.98,1118.21 2554.98,1301.7"/>
<polyline class="BarLine" stroke="#000000" stroke-width="24.56" stroke-linejoin="bevel" points="2586.23,1118.21 2586.23,1301.7"/>
<polyline class="BarLine" stroke="#000000" stroke-width="24.56" stroke-linejoin="bevel" points="2941.21,1118.21 2941.21,1301.7"/>
<polyline class="BarLine" stroke="#000000" stroke-width="8.04" stroke-linejoin="bevel" points="2972.46,1118.21 2972.46,1301.7"/>
<path class="BarLine" transform="matrix(1.78583,0,0,1.78583,2994.42,1187.63)" d="M10.4063,0 C10.4063,-2.90625 8.09375,-5.29688 5.20313,-5.29688 C2.29688,-5.29688 0,-2.90625 0,0 C0,2.90625 2.29688,5.29688 5.20313,5.29688 C8.09375,5.29688 10.4063,2.90625 10.4063,0"/>
<path class="BarLine" transform="matrix(1.78583,0,0,1.78583,2994.42,1232.28)" d="M10.4063,0 C10.4063,-2.90625 8.09375,-5.29688 5.20313,-5.29688 C2.29688,-5.29688 0,-2.90625 0,0 C0,2.90625 2.29688,5.29688 5.20313,5.29688 C8.09375,5.29688 10.4063,2.90625 10.4063,0"/>
<polyline class="BarLine" stroke="#000000" stroke-width="8.04" stroke-linejoin="bevel" points="3430.23,1118.21 3430.23,1301.7"/>
<polyline class="BarLine" stroke="#000000" stroke-width="8.04" stroke-linejoin="bevel" points="3708.26,1118.21 3708.26,1301.7"/>
<polyline class="BarLine" stroke="#000000" stroke-width="8.04" stroke-linejoin="bevel" points="4133.59,1118.21 4133.59,1301.7"/>
<polyline class="BarLine" stroke="#000000" stroke-width="8.04" stroke-linejoin="bevel" points="1046.12,1855.48 1046.12,2038.98"/>
<polyline class="BarLine" stroke="#000000" stroke-width="8.04" stroke-linejoin="bevel" points="1888.24,1855.48 1888.24,2038.98"/>
<polyline class="BarLine" stroke="#000000" stroke-width="8.04" stroke-linejoin="bevel" points="2656.72,1855.48 2656.72,2038.98"/>
<polyline class="BarLine" stroke="#000000" stroke-width="8.04" stroke-linejoin="bevel" points="3310.05,1855.48 3310.05,2038.98"/>
<path class="BarLine" transform="matrix(1.78583,0,0,1.78583,4057.63,1924.91)" d="M10.4063,0 C10.4063,-2.90625 8.09375,-5.29688 5.20313,-5.29688 C2.29688,-5.29688 0,-2.90625 0,0 C0,2.90625 2.29688,5.29688 5.20313,5.29688 C8.09375,5.29688 10.4063,2.90625 10.4063,0"/>
<path class="BarLine" transform="matrix(1.78583,0,0,1.78583,4057.63,1969.55)" d="M10.4063,0 C10.4063,-2.90625 8.09375,-5.29688 5.20313,-5.29688 C2.29688,-5.29688 0,-2.90625 0,0 C0,2.90625 2.29688,5.29688 5.20313,5.29688 C8.09375,5.29688 10.4063,2.90625 10.4063,0"/>
<polyline class="BarLine" stroke="#000000" stroke-width="8.04" stroke-linejoin="bevel" points="4098.16,1855.48 4098.16,2038.98"/>
<polyline class="BarLine" stroke="#000000" stroke-width="24.56" stroke-linejoin="bevel" points="4129.41,1855.48 4129.41,2038.98"/>
<polyline class="LedgerLine" stroke="#000000" stroke-width="7.14" stroke-linejoin="bevel" points="593.682,606.614 682.96,606.614"/>
<polyline class="LedgerLine" stroke="#000000" stroke-width="7.14" stroke-linejoin="bevel" points="3518.69,606.614 3607.97,606.614"/>
<polyline class="LedgerLine" stroke="#000000" stroke-width="7.14" stroke-linejoin="bevel" points="2373.83,1343.89 2463.1,1343.89"/>
<polyline class="LedgerLine" stroke="#000000" stroke-width="7.14" stroke-linejoin="bevel" points="3563.62,1343.89 3652.9,1343.89"/>
<polyline class="LedgerLine" stroke="#000000" stroke-width="7.14" stroke-linejoin="bevel" points="3809.7,2081.17 3898.98,2081.17"/>
<polyline class="Stem" stroke="#000000" stroke-width="4.91" stroke-linejoin="bevel" points="664.878,600.899 664.878,450.354"/>
<polyline class="Stem" stroke="#000000" stroke-width="4.91" stroke-linejoin="bevel" points="927.892,533.931 927.892,383.386"/>
<polyline class="Stem" stroke="#000000" stroke-width="4.91" stroke-linejoin="bevel" points="1025.05,489.285 1025.05,349.901"/>
<polyline class="Stem" stroke="#000000" stroke-width="4.91" stroke-linejoin="bevel" points="1163.01,456.355 1163.01,595.453"/>
<polyline class="Stem" stroke="#000000" stroke-width="4.91" stroke-linejoin="bevel" points="1266.87,478.677 1266.87,606.614"/>
<polyline class="Stem" stroke="#000000" stroke-width="4.91" stroke-linejoin="bevel" points="1333.82,434.032 1333.82,561.968"/>
<polyline class="Stem" stroke="#000000" stroke-width="4.91" stroke-linejoin="bevel" points="1524.89,434.032 1524.89,561.968"/>
<polyline class="Stem" stroke="#000000" stroke-width="4.91" stroke-linejoin="bevel" points="1607.06,478.677 1607.06,606.614"/>
<polyline class="Stem" stroke="#000000" stroke-width="4.91" stroke-linejoin="bevel" points="2010.44,478.677 2010.44,628.937"/>
<polyline class="Stem" stroke="#000000" stroke-width="4.91" stroke-linejoin="bevel" points="2201.51,478.677 2201.51,628.937"/>
<polyline class="Stem" stroke="#000000" stroke-width="4.91" stroke-linejoin="bevel" points="2445.97,478.677 2445.97,628.937"/>
<polyline class="Stem" stroke="#000000" stroke-width="4.91" stroke-linejoin="bevel" points="2637.04,478.677 2637.04,606.614"/>
<polyline class="Stem" stroke="#000000" stroke-width="4.91" stroke-linejoin="bevel" points="2718.53,456.355 2718.53,595.453"/>
<polyline class="Stem" stroke="#000000" stroke-width="4.91" stroke-linejoin="bevel" points="2853.13,466.962 2853.13,338.74"/>
<polyline class="Stem" stroke="#000000" stroke-width="4.91" stroke-linejoin="bevel" points="2934.62,489.285 2934.62,349.901"/>
<polyline class="Stem" stroke="#000000" stroke-width="4.91" stroke-linejoin="bevel" points="3072.57,456.355 3072.57,595.453"/>
<polyline class="Stem" stroke="#000000" stroke-width="4.91" stroke-linejoin="bevel" points="3222.85,489.285 3222.85,349.901"/>
<polyline class="Stem" stroke="#000000" stroke-width="4.91" stroke-linejoin="bevel" points="3589.89,600.899 3589.89,450.354"/>
<polyline class="Stem" stroke="#000000" stroke-width="4.91" stroke-linejoin="bevel" points="3832.57,533.931 3832.57,383.386"/>
<polyline class="Stem" stroke="#000000" stroke-width="4.91" stroke-linejoin="bevel" points="4008.54,489.285 4008.54,349.901"/>
<polyline class="Stem" stroke="#000000" stroke-width="4.91" stroke-linejoin="bevel" points="415.81,1193.63 415.81,1310.41"/>
<polyline class="Stem" stroke="#000000" stroke-width="4.91" stroke-linejoin="bevel" points="493.897,1193.63 493.897,1310.41"/>
<polyline class="Stem" stroke="#000000" stroke-width="4.91" stroke-linejoin="bevel" points="571.984,1215.95 571.984,1343.89"/>
<polyline class="Stem" stroke="#000000" stroke-width="4.91" stroke-linejoin="bevel" points="650.071,1193.63 650.071,1332.73"/>
<polyline class="Stem" stroke="#000000" stroke-width="4.91" stroke-linejoin="bevel" points="841.141,1171.31 841.141,1315.99"/>
<polyline class="Stem" stroke="#000000" stroke-width="4.91" stroke-linejoin="bevel" points="1212.83,1148.98 1212.83,1288.08"/>
<polyline class="Stem" stroke="#000000" stroke-width="4.91" stroke-linejoin="bevel" points="1279.78,1171.31 1279.78,1299.24"/>
<polyline class="Stem" stroke="#000000" stroke-width="4.91" stroke-linejoin="bevel" points="1470.85,1193.63 1470.85,1332.73"/>
<polyline class="Stem" stroke="#000000" stroke-width="4.91" stroke-linejoin="bevel" points="1610.93,1226.56 1610.93,1087.18"/>
<polyline class="Stem" stroke="#000000" stroke-width="4.91" stroke-linejoin="bevel" points="1748.88,1215.95 1748.88,1349.47"/>
<polyline class="Stem" stroke="#000000" stroke-width="4.91" stroke-linejoin="bevel" points="1888.96,1248.88 1888.96,1103.92"/>
<polyline class="Stem" stroke="#000000" stroke-width="4.91" stroke-linejoin="bevel" points="2080.03,1271.21 2080.03,1120.66"/>
<polyline class="Stem" stroke="#000000" stroke-width="4.91" stroke-linejoin="bevel" points="2445.02,1338.17 2445.02,1187.63"/>
<polyline class="Stem" stroke="#000000" stroke-width="4.91" stroke-linejoin="bevel" points="3122.52,1271.21 3122.52,1131.82"/>
<polyline class="Stem" stroke="#000000" stroke-width="4.91" stroke-linejoin="bevel" points="3200.61,1271.21 3200.61,1131.82"/>
<polyline class="Stem" stroke="#000000" stroke-width="4.91" stroke-linejoin="bevel" points="3278.7,1271.21 3278.7,1131.82"/>
<polyline class="Stem" stroke="#000000" stroke-width="4.91" stroke-linejoin="bevel" points="3356.78,1271.21 3356.78,1131.82"/>
<polyline class="Stem" stroke="#000000" stroke-width="4.91" stroke-linejoin="bevel" points="3547.85,1271.21 3547.85,1120.66"/>
<polyline class="Stem" stroke="#000000" stroke-width="4.91" stroke-linejoin="bevel" points="3634.81,1338.17 3634.81,1187.63"/>
<polyline class="Stem" stroke="#000000" stroke-width="4.91" stroke-linejoin="bevel" points="3825.88,1226.56 3825.88,1109.5"/>
<polyline class="Stem" stroke="#000000" stroke-width="4.91" stroke-linejoin="bevel" points="3903.97,1226.56 3903.97,1109.5"/>
<polyline class="Stem" stroke="#000000" stroke-width="4.91" stroke-linejoin="bevel" points="3982.06,1226.56 3982.06,1109.5"/>
<polyline class="Stem" stroke="#000000" stroke-width="4.91" stroke-linejoin="bevel" points="4060.15,1226.56 4060.15,1109.5"/>
<polyline class="Stem" stroke="#000000" stroke-width="4.91" stroke-linejoin="bevel" points="468.924,1963.84 468.924,1824.45"/>
<polyline class="Stem" stroke="#000000" stroke-width="4.91" stroke-linejoin="bevel" points="783.298,2008.48 783.298,1857.94"/>
<polyline class="Stem" stroke="#000000" stroke-width="4.91" stroke-linejoin="bevel" points="1110.63,1930.91 1110.63,2047.68"/>
<polyline class="Stem" stroke="#000000" stroke-width="4.91" stroke-linejoin="bevel" points="1304.65,1930.91 1304.65,2047.68"/>
<polyline class="Stem" stroke="#000000" stroke-width="4.91" stroke-linejoin="bevel" points="1498.66,1930.91 1498.66,2047.68"/>
<polyline class="Stem" stroke="#000000" stroke-width="4.91" stroke-linejoin="bevel" points="1692.67,1930.91 1692.67,2047.68"/>
<polyline class="Stem" stroke="#000000" stroke-width="4.91" stroke-linejoin="bevel" points="1952.76,1930.91 1952.76,2070"/>
<polyline class="Stem" stroke="#000000" stroke-width="4.91" stroke-linejoin="bevel" points="2240,1963.84 2240,1824.45"/>
<polyline class="Stem" stroke="#000000" stroke-width="4.91" stroke-linejoin="bevel" points="2421.02,1930.91 2421.02,2070"/>
<polyline class="Stem" stroke="#000000" stroke-width="4.91" stroke-linejoin="bevel" points="2721.23,1863.94 2721.23,2014.2"/>
<polyline class="Stem" stroke="#000000" stroke-width="4.91" stroke-linejoin="bevel" points="3880.89,2075.45 3880.89,1924.91"/>
<path class="Note" transform="matrix(1.78583,0,0,1.78583,609.308,606.614)" d="M31.5,-8.09375 C29.7031,-11.4063 25.9063,-13.2031 21.2969,-13.2031 C17.9063,-13.2031 14.2031,-12.2031 10.5938,-10.2969 C4,-6.79688 0,-0.90625 0,4.20313 C0,5.59375 0.296875,7 1,8.29688 C2.79688,11.5938 6.59375,13.2969 11.2031,13.2969 C14.5938,13.2969 18.2969,12.4063 21.9063,10.5 C28.5,7 32.5,1.09375 32.5,-4 C32.5,-5.40625 32.2031,-6.79688 31.5,-8.09375"/>
<path class="Note" transform="matrix(1.78583,0,0,1.78583,872.322,539.646)" d="M31.5,-8.09375 C29.7031,-11.4063 25.9063,-13.2031 21.2969,-13.2031 C17.9063,-13.2031 14.2031,-12.2031 10.5938,-10.2969 C4,-6.79688 0,-0.90625 0,4.20313 C0,5.59375 0.296875,7 1,8.29688 C2.79688,11.5938 6.59375,13.2969 11.2031,13.2969 C14.5938,13.2969 18.2969,12.4063 21.9063,10.5 C28.5,7 32.5,1.09375 32.5,-4 C32.5,-5.40625 32.2031,-6.79688 31.5,-8.09375"/>
<path class="Note" transform="matrix(1.78583,0,0,1.78583,969.484,495)" d="M31.5,-8.09375 C29.7031,-11.4063 25.9063,-13.2031 21.2969,-13.2031 C17.9063,-13.2031 14.2031,-12.2031 10.5938,-10.2969 C4,-6.79688 0,-0.90625 0,4.20313 C0,5.59375 0.296875,7 1,8.29688 C2.79688,11.5938 6.59375,13.2969 11.2031,13.2969 C14.5938,13.2969 18.2969,12.4063 21.9063,10.5 C28.5,7 32.5,1.09375 32.5,-4 C32.5,-5.40625 32.2031,-6.79688 31.5,-8.09375"/>
<path class="Note" transform="matrix(1.78583,0,0,1.78583,1160.55,450.354)" d="M31.5,-8.09375 C29.7031,-11.4063 25.9063,-13.2031 21.2969,-13.2031 C17.9063,-13.2031 14.2031,-12.2031 10.5938,-10.2969 C4,-6.79688 0,-0.90625 0,4.20313 C0,5.59375 0.296875,7 1,8.29688 C2.79688,11.5938 6.59375,13.2969 11.2031,13.2969 C14.5938,13.2969 18.2969,12.4063 21.9063,10.5 C28.5,7 32.5,1.09375 32.5,-4 C32.5,-5.40625 32.2031,-6.79688 31.5,-8.09375"/>
<path class="Note" transform="matrix(1.78583,0,0,1.78583,1264.41,472.677)" d="M31.5,-8.09375 C29.7031,-11.4063 25.9063,-13.2031 21.2969,-13.2031 C17.9063,-13.2031 14.2031,-12.2031 10.5938,-10.2969 C4,-6.79688 0,-0.90625 0,4.20313 C0,5.59375 0.296875,7 1,8.29688 C2.79688,11.5938 6.59375,13.2969 11.2031,13.2969 C14.5938,13.2969 18.2969,12.4063 21.9063,10.5 C28.5,7 32.5,1.09375 32.5,-4 C32.5,-5.40625 32.2031,-6.79688 31.5,-8.09375"/>
<path class="Note" transform="matrix(1.78583,0,0,1.78583,1331.37,428.031)" d="M31.5,-8.09375 C29.7031,-11.4063 25.9063,-13.2031 21.2969,-13.2031 C17.9063,-13.2031 14.2031,-12.2031 10.5938,-10.2969 C4,-6.79688 0,-0.90625 0,4.20313 C0,5.59375 0.296875,7 1,8.29688 C2.79688,11.5938 6.59375,13.2969 11.2031,13.2969 C14.5938,13.2969 18.2969,12.4063 21.9063,10.5 C28.5,7 32.5,1.09375 32.5,-4 C32.5,-5.40625 32.2031,-6.79688 31.5,-8.09375"/>
<path class="Note" transform="matrix(1.78583,0,0,1.78583,1522.44,428.031)" d="M31.5,-8.09375 C29.7031,-11.4063 25.9063,-13.2031 21.2969,-13.2031 C17.9063,-13.2031 14.2031,-12.2031 10.5938,-10.2969 C4,-6.79688 0,-0.90625 0,4.20313 C0,5.59375 0.296875,7 1,8.29688 C2.79688,11.5938 6.59375,13.2969 11.2031,13.2969 C14.5938,13.2969 18.2969,12.4063 21.9063,10.5 C28.5,7 32.5,1.09375 32.5,-4 C32.5,-5.40625 32.2031,-6.79688 31.5,-8.09375"/>
<path class="Note" transform="matrix(1.78583,0,0,1.78583,1604.6,472.677)" d="M31.5,-8.09375 C29.7031,-11.4063 25.9063,-13.2031 21.2969,-13.2031 C17.9063,-13.2031 14.2031,-12.2031 10.5938,-10.2969 C4,-6.79688 0,-0.90625 0,4.20313 C0,5.59375 0.296875,7 1,8.29688 C2.79688,11.5938 6.59375,13.2969 11.2031,13.2969 C14.5938,13.2969 18.2969,12.4063 21.9063,10.5 C28.5,7 32.5,1.09375 32.5,-4 C32.5,-5.40625 32.2031,-6.79688 31.5,-8.09375"/>
<path class="Note" transform="matrix(1.78583,0,0,1.78583,2007.98,472.677)" d="M31.5,-8.09375 C29.7031,-11.4063 25.9063,-13.2031 21.2969,-13.2031 C17.9063,-13.2031 14.2031,-12.2031 10.5938,-10.2969 C4,-6.79688 0,-0.90625 0,4.20313 C0,5.59375 0.296875,7 1,8.29688 C2.79688,11.5938 6.59375,13.2969 11.2031,13.2969 C14.5938,13.2969 18.2969,12.4063 21.9063,10.5 C28.5,7 32.5,1.09375 32.5,-4 C32.5,-5.40625 32.2031,-6.79688 31.5,-8.09375"/>
<path class="Note" transform="matrix(1.78583,0,0,1.78583,2199.05,472.677)" d="M31.5,-8.09375 C29.7031,-11.4063 25.9063,-13.2031 21.2969,-13.2031 C17.9063,-13.2031 14.2031,-12.2031 10.5938,-10.2969 C4,-6.79688 0,-0.90625 0,4.20313 C0,5.59375 0.296875,7 1,8.29688 C2.79688,11.5938 6.59375,13.2969 11.2031,13.2969 C14.5938,13.2969 18.2969,12.4063 21.9063,10.5 C28.5,7 32.5,1.09375 32.5,-4 C32.5,-5.40625 32.2031,-6.79688 31.5,-8.09375"/>
<path class="Note" transform="matrix(1.78583,0,0,1.78583,2443.51,472.677)" d="M31.5,-8.09375 C29.7031,-11.4063 25.9063,-13.2031 21.2969,-13.2031 C17.9063,-13.2031 14.2031,-12.2031 10.5938,-10.2969 C4,-6.79688 0,-0.90625 0,4.20313 C0,5.59375 0.296875,7 1,8.29688 C2.79688,11.5938 6.59375,13.2969 11.2031,13.2969 C14.5938,13.2969 18.2969,12.4063 21.9063,10.5 C28.5,7 32.5,1.09375 32.5,-4 C32.5,-5.40625 32.2031,-6.79688 31.5,-8.09375"/>
<path class="Note" transform="matrix(1.78583,0,0,1.78583,2634.58,472.677)" d="M31.5,-8.09375 C29.7031,-11.4063 25.9063,-13.2031 21.2969,-13.2031 C17.9063,-13.2031 14.2031,-12.2031 10.5938,-10.2969 C4,-6.79688 0,-0.90625 0,4.20313 C0,5.59375 0.296875,7 1,8.29688 C2.79688,11.5938 6.59375,13.2969 11.2031,13.2969 C14.5938,13.2969 18.2969,12.4063 21.9063,10.5 C28.5,7 32.5,1.09375 32.5,-4 C32.5,-5.40625 32.2031,-6.79688 31.5,-8.09375"/>
<path class="Note" transform="matrix(1.78583,0,0,1.78583,2716.07,450.354)" d="M31.5,-8.09375 C29.7031,-11.4063 25.9063,-13.2031 21.2969,-13.2031 C17.9063,-13.2031 14.2031,-12.2031 10.5938,-10.2969 C4,-6.79688 0,-0.90625 0,4.20313 C0,5.59375 0.296875,7 1,8.29688 C2.79688,11.5938 6.59375,13.2969 11.2031,13.2969 C14.5938,13.2969 18.2969,12.4063 21.9063,10.5 C28.5,7 32.5,1.09375 32.5,-4 C32.5,-5.40625 32.2031,-6.79688 31.5,-8.09375"/>
<path class="Note" transform="matrix(1.78583,0,0,1.78583,2797.56,472.677)" d="M31.5,-8.09375 C29.7031,-11.4063 25.9063,-13.2031 21.2969,-13.2031 C17.9063,-13.2031 14.2031,-12.2031 10.5938,-10.2969 C4,-6.79688 0,-0.90625 0,4.20313 C0,5.59375 0.296875,7 1,8.29688 C2.79688,11.5938 6.59375,13.2969 11.2031,13.2969 C14.5938,13.2969 18.2969,12.4063 21.9063,10.5 C28.5,7 32.5,1.09375 32.5,-4 C32.5,-5.40625 32.2031,-6.79688 31.5,-8.09375"/>
<path class="Note" transform="matrix(1.78583,0,0,1.78583,2879.05,495)" d="M31.5,-8.09375 C29.7031,-11.4063 25.9063,-13.2031 21.2969,-13.2031 C17.9063,-13.2031 14.2031,-12.2031 10.5938,-10.2969 C4,-6.79688 0,-0.90625 0,4.20313 C0,5.59375 0.296875,7 1,8.29688 C2.79688,11.5938 6.59375,13.2969 11.2031,13.2969 C14.5938,13.2969 18.2969,12.4063 21.9063,10.5 C28.5,7 32.5,1.09375 32.5,-4 C32.5,-5.40625 32.2031,-6.79688 31.5,-8.09375"/>
<path class="Note" transform="matrix(1.78583,0,0,1.78583,3070.11,450.354)" d="M31.5,-8.09375 C29.7031,-11.4063 25.9063,-13.2031 21.2969,-13.2031 C17.9063,-13.2031 14.2031,-12.2031 10.5938,-10.2969 C4,-6.79688 0,-0.90625 0,4.20313 C0,5.59375 0.296875,7 1,8.29688 C2.79688,11.5938 6.59375,13.2969 11.2031,13.2969 C14.5938,13.2969 18.2969,12.4063 21.9063,10.5 C28.5,7 32.5,1.09375 32.5,-4 C32.5,-5.40625 32.2031,-6.79688 31.5,-8.09375"/>
<path class="Note" transform="matrix(1.78583,0,0,1.78583,3167.28,495)" d="M31.5,-8.09375 C29.7031,-11.4063 25.9063,-13.2031 21.2969,-13.2031 C17.9063,-13.2031 14.2031,-12.2031 10.5938,-10.2969 C4,-6.79688 0,-0.90625 0,4.20313 C0,5.59375 0.296875,7 1,8.29688 C2.79688,11.5938 6.59375,13.2969 11.2031,13.2969 C14.5938,13.2969 18.2969,12.4063 21.9063,10.5 C28.5,7 32.5,1.09375 32.5,-4 C32.5,-5.40625 32.2031,-6.79688 31.5,-8.09375"/>
<path class="Note" transform="matrix(1.78583,0,0,1.78583,3534.32,606.614)" d="M31.5,-8.09375 C29.7031,-11.4063 25.9063,-13.2031 21.2969,-13.2031 C17.9063,-13.2031 14.2031,-12.2031 10.5938,-10.2969 C4,-6.79688 0,-0.90625 0,4.20313 C0,5.59375 0.296875,7 1,8.29688 C2.79688,11.5938 6.59375,13.2969 11.2031,13.2969 C14.5938,13.2969 18.2969,12.4063 21.9063,10.5 C28.5,7 32.5,1.09375 32.5,-4 C32.5,-5.40625 32.2031,-6.79688 31.5,-8.09375"/>
<path class="Note" transform="matrix(1.78583,0,0,1.78583,3777,539.646)" d="M31.5,-8.09375 C29.7031,-11.4063 25.9063,-13.2031 21.2969,-13.2031 C17.9063,-13.2031 14.2031,-12.2031 10.5938,-10.2969 C4,-6.79688 0,-0.90625 0,4.20313 C0,5.59375 0.296875,7 1,8.29688 C2.79688,11.5938 6.59375,13.2969 11.2031,13.2969 C14.5938,13.2969 18.2969,12.4063 21.9063,10.5 C28.5,7 32.5,1.09375 32.5,-4 C32.5,-5.40625 32.2031,-6.79688 31.5,-8.09375"/>
<path class="Note" transform="matrix(1.78583,0,0,1.78583,3952.97,495)" d="M31.5,-8.09375 C29.7031,-11.4063 25.9063,-13.2031 21.2969,-13.2031 C17.9063,-13.2031 14.2031,-12.2031 10.5938,-10.2969 C4,-6.79688 0,-0.90625 0,4.20313 C0,5.59375 0.296875,7 1,8.29688 C2.79688,11.5938 6.59375,13.2969 11.2031,13.2969 C14.5938,13.2969 18.2969,12.4063 21.9063,10.5 C28.5,7 32.5,1.09375 32.5,-4 C32.5,-5.40625 32.2031,-6.79688 31.5,-8.09375"/>
<path class="Note" transform="matrix(1.78583,0,0,1.78583,413.354,1187.63)" d="M31.5,-8.09375 C29.7031,-11.4063 25.9063,-13.2031 21.2969,-13.2031 C17.9063,-13.2031 14.2031,-12.2031 10.5938,-10.2969 C4,-6.79688 0,-0.90625 0,4.20313 C0,5.59375 0.296875,7 1,8.29688 C2.79688,11.5938 6.59375,13.2969 11.2031,13.2969 C14.5938,13.2969 18.2969,12.4063 21.9063,10.5 C28.5,7 32.5,1.09375 32.5,-4 C32.5,-5.40625 32.2031,-6.79688 31.5,-8.09375"/>
<path class="Note" transform="matrix(1.78583,0,0,1.78583,491.441,1187.63)" d="M31.5,-8.09375 C29.7031,-11.4063 25.9063,-13.2031 21.2969,-13.2031 C17.9063,-13.2031 14.2031,-12.2031 10.5938,-10.2969 C4,-6.79688 0,-0.90625 0,4.20313 C0,5.59375 0.296875,7 1,8.29688 C2.79688,11.5938 6.59375,13.2969 11.2031,13.2969 C14.5938,13.2969 18.2969,12.4063 21.9063,10.5 C28.5,7 32.5,1.09375 32.5,-4 C32.5,-5.40625 32.2031,-6.79688 31.5,-8.09375"/>
<path class="Note" transform="matrix(1.78583,0,0,1.78583,569.528,1209.95)" d="M31.5,-8.09375 C29.7031,-11.4063 25.9063,-13.2031 21.2969,-13.2031 C17.9063,-13.2031 14.2031,-12.2031 10.5938,-10.2969 C4,-6.79688 0,-0.90625 0,4.20313 C0,5.59375 0.296875,7 1,8.29688 C2.79688,11.5938 6.59375,13.2969 11.2031,13.2969 C14.5938,13.2969 18.2969,12.4063 21.9063,10.5 C28.5,7 32.5,1.09375 32.5,-4 C32.5,-5.40625 32.2031,-6.79688 31.5,-8.09375"/>
<path class="Note" transform="matrix(1.78583,0,0,1.78583,647.616,1187.63)" d="M31.5,-8.09375 C29.7031,-11.4063 25.9063,-13.2031 21.2969,-13.2031 C17.9063,-13.2031 14.2031,-12.2031 10.5938,-10.2969 C4,-6.79688 0,-0.90625 0,4.20313 C0,5.59375 0.296875,7 1,8.29688 C2.79688,11.5938 6.59375,13.2969 11.2031,13.2969 C14.5938,13.2969 18.2969,12.4063 21.9063,10.5 C28.5,7 32.5,1.09375 32.5,-4 C32.5,-5.40625 32.2031,-6.79688 31.5,-8.09375"/>
<path class="Note" transform="matrix(1.78583,0,0,1.78583,838.685,1165.31)" d="M31.5,-8.09375 C29.7031,-11.4063 25.9063,-13.2031 21.2969,-13.2031 C17.9063,-13.2031 14.2031,-12.2031 10.5938,-10.2969 C4,-6.79688 0,-0.90625 0,4.20313 C0,5.59375 0.296875,7 1,8.29688 C2.79688,11.5938 6.59375,13.2969 11.2031,13.2969 C14.5938,13.2969 18.2969,12.4063 21.9063,10.5 C28.5,7 32.5,1.09375 32.5,-4 C32.5,-5.40625 32.2031,-6.79688 31.5,-8.09375"/>
<path class="Note" transform="matrix(1.78583,0,0,1.78583,1210.37,1142.98)" d="M31.5,-8.09375 C29.7031,-11.4063 25.9063,-13.2031 21.2969,-13.2031 C17.9063,-13.2031 14.2031,-12.2031 10.5938,-10.2969 C4,-6.79688 0,-0.90625 0,4.20313 C0,5.59375 0.296875,7 1,8.29688 C2.79688,11.5938 6.59375,13.2969 11.2031,13.2969 C14.5938,13.2969 18.2969,12.4063 21.9063,10.5 C28.5,7 32.5,1.09375 32.5,-4 C32.5,-5.40625 32.2031,-6.79688 31.5,-8.09375"/>
<path class="Note" transform="matrix(1.78583,0,0,1.78583,1277.33,1165.31)" d="M31.5,-8.09375 C29.7031,-11.4063 25.9063,-13.2031 21.2969,-13.2031 C17.9063,-13.2031 14.2031,-12.2031 10.5938,-10.2969 C4,-6.79688 0,-0.90625 0,4.20313 C0,5.59375 0.296875,7 1,8.29688 C2.79688,11.5938 6.59375,13.2969 11.2031,13.2969 C14.5938,13.2969 18.2969,12.4063 21.9063,10.5 C28.5,7 32.5,1.09375 32.5,-4 C32.5,-5.40625 32.2031,-6.79688 31.5,-8.09375"/>
<path class="Note" transform="matrix(1.78583,0,0,1.78583,1468.4,1187.63)" d="M31.5,-8.09375 C29.7031,-11.4063 25.9063,-13.2031 21.2969,-13.2031 C17.9063,-13.2031 14.2031,-12.2031 10.5938,-10.2969 C4,-6.79688 0,-0.90625 0,4.20313 C0,5.59375 0.296875,7 1,8.29688 C2.79688,11.5938 6.59375,13.2969 11.2031,13.2969 C14.5938,13.2969 18.2969,12.4063 21.9063,10.5 C28.5,7 32.5,1.09375 32.5,-4 C32.5,-5.40625 32.2031,-6.79688 31.5,-8.09375"/>
<path class="Note" transform="matrix(1.78583,0,0,1.78583,1555.36,1232.28)" d="M31.5,-8.09375 C29.7031,-11.4063 25.9063,-13.2031 21.2969,-13.2031 C17.9063,-13.2031 14.2031,-12.2031 10.5938,-10.2969 C4,-6.79688 0,-0.90625 0,4.20313 C0,5.59375 0.296875,7 1,8.29688 C2.79688,11.5938 6.59375,13.2969 11.2031,13.2969 C14.5938,13.2969 18.2969,12.4063 21.9063,10.5 C28.5,7 32.5,1.09375 32.5,-4 C32.5,-5.40625 32.2031,-6.79688 31.5,-8.09375"/>
<path class="Note" transform="matrix(1.78583,0,0,1.78583,1746.43,1209.95)" d="M31.5,-8.09375 C29.7031,-11.4063 25.9063,-13.2031 21.2969,-13.2031 C17.9063,-13.2031 14.2031,-12.2031 10.5938,-10.2969 C4,-6.79688 0,-0.90625 0,4.20313 C0,5.59375 0.296875,7 1,8.29688 C2.79688,11.5938 6.59375,13.2969 11.2031,13.2969 C14.5938,13.2969 18.2969,12.4063 21.9063,10.5 C28.5,7 32.5,1.09375 32.5,-4 C32.5,-5.40625 32.2031,-6.79688 31.5,-8.09375"/>
<path class="Note" transform="matrix(1.78583,0,0,1.78583,1833.39,1254.6)" d="M31.5,-8.09375 C29.7031,-11.4063 25.9063,-13.2031 21.2969,-13.2031 C17.9063,-13.2031 14.2031,-12.2031 10.5938,-10.2969 C4,-6.79688 0,-0.90625 0,4.20313 C0,5.59375 0.296875,7 1,8.29688 C2.79688,11.5938 6.59375,13.2969 11.2031,13.2969 C14.5938,13.2969 18.2969,12.4063 21.9063,10.5 C28.5,7 32.5,1.09375 32.5,-4 C32.5,-5.40625 32.2031,-6.79688 31.5,-8.09375"/>
<path class="Note" transform="matrix(1.78583,0,0,1.78583,2024.46,1276.92)" d="M31.5,-8.09375 C29.7031,-11.4063 25.9063,-13.2031 21.2969,-13.2031 C17.9063,-13.2031 14.2031,-12.2031 10.5938,-10.2969 C4,-6.79688 0,-0.90625 0,4.20313 C0,5.59375 0.296875,7 1,8.29688 C2.79688,11.5938 6.59375,13.2969 11.2031,13.2969 C14.5938,13.2969 18.2969,12.4063 21.9063,10.5 C28.5,7 32.5,1.09375 32.5,-4 C32.5,-5.40625 32.2031,-6.79688 31.5,-8.09375"/>
<path class="Note" transform="matrix(1.78583,0,0,1.78583,2389.45,1343.89)" d="M31.5,-8.09375 C29.7031,-11.4063 25.9063,-13.2031 21.2969,-13.2031 C17.9063,-13.2031 14.2031,-12.2031 10.5938,-10.2969 C4,-6.79688 0,-0.90625 0,4.20313 C0,5.59375 0.296875,7 1,8.29688 C2.79688,11.5938 6.59375,13.2969 11.2031,13.2969 C14.5938,13.2969 18.2969,12.4063 21.9063,10.5 C28.5,7 32.5,1.09375 32.5,-4 C32.5,-5.40625 32.2031,-6.79688 31.5,-8.09375"/>
<path class="Note" transform="matrix(1.78583,0,0,1.78583,3066.95,1276.92)" d="M31.5,-8.09375 C29.7031,-11.4063 25.9063,-13.2031 21.2969,-13.2031 C17.9063,-13.2031 14.2031,-12.2031 10.5938,-10.2969 C4,-6.79688 0,-0.90625 0,4.20313 C0,5.59375 0.296875,7 1,8.29688 C2.79688,11.5938 6.59375,13.2969 11.2031,13.2969 C14.5938,13.2969 18.2969,12.4063 21.9063,10.5 C28.5,7 32.5,1.09375 32.5,-4 C32.5,-5.40625 32.2031,-6.79688 31.5,-8.09375"/>
<path class="Note" transform="matrix(1.78583,0,0,1.78583,3145.04,1276.92)" d="M31.5,-8.09375 C29.7031,-11.4063 25.9063,-13.2031 21.2969,-13.2031 C17.9063,-13.2031 14.2031,-12.2031 10.5938,-10.2969 C4,-6.79688 0,-0.90625 0,4.20313 C0,5.59375 0.296875,7 1,8.29688 C2.79688,11.5938 6.59375,13.2969 11.2031,13.2969 C14.5938,13.2969 18.2969,12.4063 21.9063,10.5 C28.5,7 32.5,1.09375 32.5,-4 C32.5,-5.40625 32.2031,-6.79688 31.5,-8.09375"/>
<path class="Note" transform="matrix(1.78583,0,0,1.78583,3223.13,1276.92)" d="M31.5,-8.09375 C29.7031,-11.4063 25.9063,-13.2031 21.2969,-13.2031 C17.9063,-13.2031 14.2031,-12.2031 10.5938,-10.2969 C4,-6.79688 0,-0.90625 0,4.20313 C0,5.59375 0.296875,7 1,8.29688 C2.79688,11.5938 6.59375,13.2969 11.2031,13.2969 C14.5938,13.2969 18.2969,12.4063 21.9063,10.5 C28.5,7 32.5,1.09375 32.5,-4 C32.5,-5.40625 32.2031,-6.79688 31.5,-8.09375"/>
<path class="Note" transform="matrix(1.78583,0,0,1.78583,3301.21,1276.92)" d="M31.5,-8.09375 C29.7031,-11.4063 25.9063,-13.2031 21.2969,-13.2031 C17.9063,-13.2031 14.2031,-12.2031 10.5938,-10.2969 C4,-6.79688 0,-0.90625 0,4.20313 C0,5.59375 0.296875,7 1,8.29688 C2.79688,11.5938 6.59375,13.2969 11.2031,13.2969 C14.5938,13.2969 18.2969,12.4063 21.9063,10.5 C28.5,7 32.5,1.09375 32.5,-4 C32.5,-5.40625 32.2031,-6.79688 31.5,-8.09375"/>
<path class="Note" transform="matrix(1.78583,0,0,1.78583,3492.28,1276.92)" d="M31.5,-8.09375 C29.7031,-11.4063 25.9063,-13.2031 21.2969,-13.2031 C17.9063,-13.2031 14.2031,-12.2031 10.5938,-10.2969 C4,-6.79688 0,-0.90625 0,4.20313 C0,5.59375 0.296875,7 1,8.29688 C2.79688,11.5938 6.59375,13.2969 11.2031,13.2969 C14.5938,13.2969 18.2969,12.4063 21.9063,10.5 C28.5,7 32.5,1.09375 32.5,-4 C32.5,-5.40625 32.2031,-6.79688 31.5,-8.09375"/>
<path class="Note" transform="matrix(1.78583,0,0,1.78583,3579.24,1343.89)" d="M31.5,-8.09375 C29.7031,-11.4063 25.9063,-13.2031 21.2969,-13.2031 C17.9063,-13.2031 14.2031,-12.2031 10.5938,-10.2969 C4,-6.79688 0,-0.90625 0,4.20313 C0,5.59375 0.296875,7 1,8.29688 C2.79688,11.5938 6.59375,13.2969 11.2031,13.2969 C14.5938,13.2969 18.2969,12.4063 21.9063,10.5 C28.5,7 32.5,1.09375 32.5,-4 C32.5,-5.40625 32.2031,-6.79688 31.5,-8.09375"/>
<path class="Note" transform="matrix(1.78583,0,0,1.78583,3770.31,1232.28)" d="M31.5,-8.09375 C29.7031,-11.4063 25.9063,-13.2031 21.2969,-13.2031 C17.9063,-13.2031 14.2031,-12.2031 10.5938,-10.2969 C4,-6.79688 0,-0.90625 0,4.20313 C0,5.59375 0.296875,7 1,8.29688 C2.79688,11.5938 6.59375,13.2969 11.2031,13.2969 C14.5938,13.2969 18.2969,12.4063 21.9063,10.5 C28.5,7 32.5,1.09375 32.5,-4 C32.5,-5.40625 32.2031,-6.79688 31.5,-8.09375"/>
<path class="Note" transform="matrix(1.78583,0,0,1.78583,3848.4,1232.28)" d="M31.5,-8.09375 C29.7031,-11.4063 25.9063,-13.2031 21.2969,-13.2031 C17.9063,-13.2031 14.2031,-12.2031 10.5938,-10.2969 C4,-6.79688 0,-0.90625 0,4.20313 C0,5.59375 0.296875,7 1,8.29688 C2.79688,11.5938 6.59375,13.2969 11.2031,13.2969 C14.5938,13.2969 18.2969,12.4063 21.9063,10.5 C28.5,7 32.5,1.09375 32.5,-4 C32.5,-5.40625 32.2031,-6.79688 31.5,-8.09375"/>
<path class="Note" transform="matrix(1.78583,0,0,1.78583,3926.49,1232.28)" d="M31.5,-8.09375 C29.7031,-11.4063 25.9063,-13.2031 21.2969,-13.2031 C17.9063,-13.2031 14.2031,-12.2031 10.5938,-10.2969 C4,-6.79688 0,-0.90625 0,4.20313 C0,5.59375 0.296875,7 1,8.29688 C2.79688,11.5938 6.59375,13.2969 11.2031,13.2969 C14.5938,13.2969 18.2969,12.4063 21.9063,10.5 C28.5,7 32.5,1.09375 32.5,-4 C32.5,-5.40625 32.2031,-6.79688 31.5,-8.09375"/>
<path class="Note" transform="matrix(1.78583,0,0,1.78583,4004.58,1232.28)" d="M31.5,-8.09375 C29.7031,-11.4063 25.9063,-13.2031 21.2969,-13.2031 C17.9063,-13.2031 14.2031,-12.2031 10.5938,-10.2969 C4,-6.79688 0,-0.90625 0,4.20313 C0,5.59375 0.296875,7 1,8.29688 C2.79688,11.5938 6.59375,13.2969 11.2031,13.2969 C14.5938,13.2969 18.2969,12.4063 21.9063,10.5 C28.5,7 32.5,1.09375 32.5,-4 C32.5,-5.40625 32.2031,-6.79688 31.5,-8.09375"/>
<path class="Note" transform="matrix(1.78583,0,0,1.78583,413.354,1969.55)" d="M31.5,-8.09375 C29.7031,-11.4063 25.9063,-13.2031 21.2969,-13.2031 C17.9063,-13.2031 14.2031,-12.2031 10.5938,-10.2969 C4,-6.79688 0,-0.90625 0,4.20313 C0,5.59375 0.296875,7 1,8.29688 C2.79688,11.5938 6.59375,13.2969 11.2031,13.2969 C14.5938,13.2969 18.2969,12.4063 21.9063,10.5 C28.5,7 32.5,1.09375 32.5,-4 C32.5,-5.40625 32.2031,-6.79688 31.5,-8.09375"/>
<path class="Note" transform="matrix(1.78583,0,0,1.78583,727.728,2014.2)" d="M31.5,-8.09375 C29.7031,-11.4063 25.9063,-13.2031 21.2969,-13.2031 C17.9063,-13.2031 14.2031,-12.2031 10.5938,-10.2969 C4,-6.79688 0,-0.90625 0,4.20313 C0,5.59375 0.296875,7 1,8.29688 C2.79688,11.5938 6.59375,13.2969 11.2031,13.2969 C14.5938,13.2969 18.2969,12.4063 21.9063,10.5 C28.5,7 32.5,1.09375 32.5,-4 C32.5,-5.40625 32.2031,-6.79688 31.5,-8.09375"/>
<path class="Note" transform="matrix(1.78583,0,0,1.78583,1108.18,1924.91)" d="M31.5,-8.09375 C29.7031,-11.4063 25.9063,-13.2031 21.2969,-13.2031 C17.9063,-13.2031 14.2031,-12.2031 10.5938,-10.2969 C4,-6.79688 0,-0.90625 0,4.20313 C0,5.59375 0.296875,7 1,8.29688 C2.79688,11.5938 6.59375,13.2969 11.2031,13.2969 C14.5938,13.2969 18.2969,12.4063 21.9063,10.5 C28.5,7 32.5,1.09375 32.5,-4 C32.5,-5.40625 32.2031,-6.79688 31.5,-8.09375"/>
<path class="Note" transform="matrix(1.78583,0,0,1.78583,1302.19,1924.91)" d="M31.5,-8.09375 C29.7031,-11.4063 25.9063,-13.2031 21.2969,-13.2031 C17.9063,-13.2031 14.2031,-12.2031 10.5938,-10.2969 C4,-6.79688 0,-0.90625 0,4.20313 C0,5.59375 0.296875,7 1,8.29688 C2.79688,11.5938 6.59375,13.2969 11.2031,13.2969 C14.5938,13.2969 18.2969,12.4063 21.9063,10.5 C28.5,7 32.5,1.09375 32.5,-4 C32.5,-5.40625 32.2031,-6.79688 31.5,-8.09375"/>
<path class="Note" transform="matrix(1.78583,0,0,1.78583,1496.2,1924.91)" d="M31.5,-8.09375 C29.7031,-11.4063 25.9063,-13.2031 21.2969,-13.2031 C17.9063,-13.2031 14.2031,-12.2031 10.5938,-10.2969 C4,-6.79688 0,-0.90625 0,4.20313 C0,5.59375 0.296875,7 1,8.29688 C2.79688,11.5938 6.59375,13.2969 11.2031,13.2969 C14.5938,13.2969 18.2969,12.4063 21.9063,10.5 C28.5,7 32.5,1.09375 32.5,-4 C32.5,-5.40625 32.2031,-6.79688 31.5,-8.09375"/>
<path class="Note" transform="matrix(1.78583,0,0,1.78583,1690.21,1924.91)" d="M31.5,-8.09375 C29.7031,-11.4063 25.9063,-13.2031 21.2969,-13.2031 C17.9063,-13.2031 14.2031,-12.2031 10.5938,-10.2969 C4,-6.79688 0,-0.90625 0,4.20313 C0,5.59375 0.296875,7 1,8.29688 C2.79688,11.5938 6.59375,13.2969 11.2031,13.2969 C14.5938,13.2969 18.2969,12.4063 21.9063,10.5 C28.5,7 32.5,1.09375 32.5,-4 C32.5,-5.40625 32.2031,-6.79688 31.5,-8.09375"/>
<path class="Note" transform="matrix(1.78583,0,0,1.78583,1950.3,1924.91)" d="M31.5,-8.09375 C29.7031,-11.4063 25.9063,-13.2031 21.2969,-13.2031 C17.9063,-13.2031 14.2031,-12.2031 10.5938,-10.2969 C4,-6.79688 0,-0.90625 0,4.20313 C0,5.59375 0.296875,7 1,8.29688 C2.79688,11.5938 6.59375,13.2969 11.2031,13.2969 C14.5938,13.2969 18.2969,12.4063 21.9063,10.5 C28.5,7 32.5,1.09375 32.5,-4 C32.5,-5.40625 32.2031,-6.79688 31.5,-8.09375"/>
<path class="Note" transform="matrix(1.78583,0,0,1.78583,2184.43,1969.55)" d="M31.5,-8.09375 C29.7031,-11.4063 25.9063,-13.2031 21.2969,-13.2031 C17.9063,-13.2031 14.2031,-12.2031 10.5938,-10.2969 C4,-6.79688 0,-0.90625 0,4.20313 C0,5.59375 0.296875,7 1,8.29688 C2.79688,11.5938 6.59375,13.2969 11.2031,13.2969 C14.5938,13.2969 18.2969,12.4063 21.9063,10.5 C28.5,7 32.5,1.09375 32.5,-4 C32.5,-5.40625 32.2031,-6.79688 31.5,-8.09375"/>
<path class="Note" transform="matrix(1.78583,0,0,1.78583,2418.57,1924.91)" d="M31.5,-8.09375 C29.7031,-11.4063 25.9063,-13.2031 21.2969,-13.2031 C17.9063,-13.2031 14.2031,-12.2031 10.5938,-10.2969 C4,-6.79688 0,-0.90625 0,4.20313 C0,5.59375 0.296875,7 1,8.29688 C2.79688,11.5938 6.59375,13.2969 11.2031,13.2969 C14.5938,13.2969 18.2969,12.4063 21.9063,10.5 C28.5,7 32.5,1.09375 32.5,-4 C32.5,-5.40625 32.2031,-6.79688 31.5,-8.09375"/>
<path class="Note" transform="matrix(1.78583,0,0,1.78583,2718.78,1857.94)" d="M31.5,-8.14063 C29.7031,-11.4375 25.9063,-13.2344 21.2969,-13.2344 C17.9063,-13.2344 14.2031,-12.2344 10.5938,-10.3438 C4,-6.84375 0,-0.9375 0,4.15625 C0,5.5625 0.296875,6.96875 1,8.26563 C2.79688,11.5781 6.59375,13.2813 11.2031,13.2813 C14.5938,13.2813 18.2969,12.375 21.9063,10.4844 C28.5,6.96875 32.5,1.0625 32.5,-4.04688 C32.5,-5.4375 32.2031,-6.84375 31.5,-8.14063 M27.2031,-1.34375 C25.5,0.359375 22.0938,2.45313 18.5,4.46875 C14.9063,6.46875 11.2969,7.96875 8.90625,8.46875 C8.40625,8.57813 7.90625,8.67188 7.40625,8.67188 C5.79688,8.67188 4.59375,8.07813 3.90625,6.76563 C3.59375,6.26563 3.40625,5.67188 3.40625,5.0625 C3.40625,3.96875 4.09375,2.65625 5.20313,1.5625 C6.90625,-0.140625 10.2031,-2.23438 13.7969,-4.23438 C17.4063,-6.23438 21,-7.73438 23.4063,-8.23438 C23.9063,-8.34375 24.4063,-8.4375 24.9063,-8.4375 C26.5,-8.4375 27.7969,-7.84375 28.5,-6.54688 C28.7969,-6.04688 28.9063,-5.4375 28.9063,-4.84375 C28.9063,-3.73438 28.2969,-2.54688 27.2031,-1.34375"/>
<path class="Note" transform="matrix(1.78583,0,0,1.78583,3825.32,2081.17)" d="M31.5,-8.09375 C29.7031,-11.4063 25.9063,-13.2031 21.2969,-13.2031 C17.9063,-13.2031 14.2031,-12.2031 10.5938,-10.2969 C4,-6.79688 0,-0.90625 0,4.20313 C0,5.59375 0.296875,7 1,8.29688 C2.79688,11.5938 6.59375,13.2969 11.2031,13.2969 C14.5938,13.2969 18.2969,12.4063 21.9063,10.5 C28.5,7 32.5,1.09375 32.5,-4 C32.5,-5.40625 32.2031,-6.79688 31.5,-8.09375"/>
<path class="Clef" transform="matrix(1.78583,0,0,1.78583,106.583,517.323)" d="M63.3594,-5.92188 C62.125,-11.3438 59.4844,-15.1719 58.7031,-16.2031 C55.5156,-20.4844 51.5,-23.3281 46.8125,-24.6875 C43.7031,-25.5625 40.7031,-25.6875 38.2813,-25.5 C37.2344,-31.5156 36.2344,-37.3906 35.3281,-42.8438 C40.7813,-49.0156 44.4063,-54.8125 46.6875,-59.1094 C50.1563,-65.6875 51.2969,-70.2656 51.3594,-70.4688 C53.0781,-75.6875 53.4375,-83.3906 52.3281,-91.5938 C51.3281,-99.1406 49.2344,-105.859 46.875,-109.109 C45.8594,-110.531 44.7969,-111.266 43.7656,-111.266 C42.5469,-111.266 40.0313,-110.031 37.1406,-107.25 C34.8438,-105.063 31.5781,-101.172 29.0156,-95.1563 C26.0156,-88.0938 25.7969,-78.6094 26.1563,-71.8906 C26.5313,-64.6094 27.6406,-58.9219 27.6563,-58.875 C27.6719,-58.7813 27.9375,-57.2813 28.375,-54.7188 C28.1563,-54.4844 27.9063,-54.2656 27.6563,-54.0156 C26.625,-53.0156 25.4375,-51.8906 24.0469,-50.5 C23.1875,-49.6406 22.2344,-48.7344 21.2344,-47.7656 C12.7969,-39.625 0,-27.2969 0,-8.14063 C0,-3.4375 0.90625,0.984375 2.6875,5 C4.26563,8.59375 6.5625,11.875 9.5,14.75 C17.2344,22.3125 27.8281,25.5156 34.875,25.3594 C37.8281,25.2813 40.4688,25.0469 42.8594,24.5938 C44.6875,34.2031 45.8281,41.2344 45.8594,46.5781 C45.9063,53.0938 44.25,57.0781 40.3594,59.8438 C37.9219,61.5781 35.1094,62.5313 32.0156,62.6719 C29.4219,62.7969 27.1563,62.3281 25.7344,61.9219 L25.7188,61.9219 C25.7188,61.9219 25.4375,61.8281 25.4219,61.6406 C25.4063,61.4531 25.7656,61.4063 25.7656,61.4063 L25.7969,61.4063 C27.7188,60.9688 31.2813,59.7344 33.6406,56.4375 C35.4375,53.9063 36.3125,49.2813 34.4688,45.3438 C33.3594,42.9531 30.8594,40 25.2344,39.5469 C22.7344,39.3438 20.4688,39.8594 18.4688,41.0625 C16.6563,42.1406 15.1563,43.7813 14.1094,45.7813 C11.6563,50.4844 12.1094,56.2188 15.2344,60.0625 C18.2031,63.6875 22.8125,66 28.25,66.5781 C29.1094,66.6719 29.9531,66.7031 30.7969,66.7031 C35.2344,66.7031 39.625,65.5 43.2031,63.2969 C46.8594,60.7188 48.9844,56.7344 49.6563,51.1094 C50.2188,46.4688 49.8281,40.5469 48.4375,32.4688 C48.0781,30.375 47.5313,27.3438 46.875,23.5938 C52.625,21.6719 56.7813,18.0938 60.5469,12.2344 C63.8438,6.5 64.7813,0.390625 63.3594,-5.92188 M29.1406,20.2969 C24.5,19.0781 20.0625,16.5781 16.3125,13.0625 C15,11.8438 13.125,9.67188 11.6563,6.28125 C10.2969,3.10938 9.625,-0.328125 9.6875,-3.90625 C9.75,-8.60938 11.0625,-13.4375 13.5625,-18.2188 C16.4844,-23.7969 21.0469,-29.3281 27.1094,-34.6563 C28.5625,-35.9375 29.9375,-37.2188 31.2188,-38.5 C31.9844,-34.2344 32.8125,-29.5469 33.6875,-24.6719 C29.8438,-23.4063 25.0938,-20.25 21.9844,-14.5938 C18.4375,-8.03125 18.5781,-2.5 19.3125,0.984375 C20.25,5.4375 22.7813,9.20313 26.2344,11.2969 C27.1719,11.8594 31.2969,13.9844 33.1406,13.4063 C33.5156,13.2969 33.7813,13.0625 33.9219,12.7344 C34.4375,11.5625 33.4063,10.9219 31.8594,9.96875 C31.25,9.59375 30.5781,9.17188 29.8594,8.64063 C26.5313,6.15625 25.0781,1.70313 26.1563,-2.6875 C26.7344,-5.07813 28.0156,-7.25 29.8594,-8.95313 C31.5156,-10.5 33.5625,-11.5938 35.9375,-12.2344 C37.9844,-0.984375 40.0469,10.1719 41.6875,18.5313 C41.8125,19.2188 41.9531,19.8906 42.0781,20.5625 C37.7031,21.5 33.3594,21.4063 29.1406,20.2969 M40.4688,-12.9063 C50.8125,-13.375 55.0781,-5.9375 55.9688,-1.10938 C56.4375,1.4375 56.4375,5.875 54.8906,10.0938 C53.7188,13.2656 51.2656,17.3438 46.125,19.4063 C46.0625,18.9844 45.9844,18.5469 45.9063,18.125 C44.3594,9.34375 42.4219,-1.65625 40.4688,-12.9063 M33.1406,-83.8594 C34.9219,-89.5938 37.6563,-92.8438 39.6563,-94.5781 C41.4063,-96.0938 43.0469,-96.8125 43.9688,-96.8125 C44.1094,-96.8125 44.2344,-96.7813 44.3281,-96.75 C44.7969,-96.6094 45.3281,-96.0469 45.7969,-95.1719 C48.1094,-90.8906 47.3594,-84.1719 46.0156,-79.7344 C44.3906,-74.3281 41.4688,-68.7188 32.6719,-59.1094 C32.5,-60.2188 32.3438,-61.2656 32.1875,-62.25 C30.9375,-70.5313 31.2656,-77.8125 33.1406,-83.8594"/>
<path class="Clef" transform="matrix(1.78583,0,0,1.78583,106.583,1254.6)" d="M63.3594,-5.92188 C62.125,-11.3438 59.4844,-15.1719 58.7031,-16.2031 C55.5156,-20.4844 51.5,-23.3281 46.8125,-24.6875 C43.7031,-25.5625 40.7031,-25.6875 38.2813,-25.5 C37.2344,-31.5156 36.2344,-37.3906 35.3281,-42.8438 C40.7813,-49.0156 44.4063,-54.8125 46.6875,-59.1094 C50.1563,-65.6875 51.2969,-70.2656 51.3594,-70.4688 C53.0781,-75.6875 53.4375,-83.3906 52.3281,-91.5938 C51.3281,-99.1406 49.2344,-105.859 46.875,-109.109 C45.8594,-110.531 44.7969,-111.266 43.7656,-111.266 C42.5469,-111.266 40.0313,-110.031 37.1406,-107.25 C34.8438,-105.063 31.5781,-101.172 29.0156,-95.1563 C26.0156,-88.0938 25.7969,-78.6094 26.1563,-71.8906 C26.5313,-64.6094 27.6406,-58.9219 27.6563,-58.875 C27.6719,-58.7813 27.9375,-57.2813 28.375,-54.7188 C28.1563,-54.4844 27.9063,-54.2656 27.6563,-54.0156 C26.625,-53.0156 25.4375,-51.8906 24.0469,-50.5 C23.1875,-49.6406 22.2344,-48.7344 21.2344,-47.7656 C12.7969,-39.625 0,-27.2969 0,-8.14063 C0,-3.4375 0.90625,0.984375 2.6875,5 C4.26563,8.59375 6.5625,11.875 9.5,14.75 C17.2344,22.3125 27.8281,25.5156 34.875,25.3594 C37.8281,25.2813 40.4688,25.0469 42.8594,24.5938 C44.6875,34.2031 45.8281,41.2344 45.8594,46.5781 C45.9063,53.0938 44.25,57.0781 40.3594,59.8438 C37.9219,61.5781 35.1094,62.5313 32.0156,62.6719 C29.4219,62.7969 27.1563,62.3281 25.7344,61.9219 L25.7188,61.9219 C25.7188,61.9219 25.4375,61.8281 25.4219,61.6406 C25.4063,61.4531 25.7656,61.4063 25.7656,61.4063 L25.7969,61.4063 C27.7188,60.9688 31.2813,59.7344 33.6406,56.4375 C35.4375,53.9063 36.3125,49.2813 34.4688,45.3438 C33.3594,42.9531 30.8594,40 25.2344,39.5469 C22.7344,39.3438 20.4688,39.8594 18.4688,41.0625 C16.6563,42.1406 15.1563,43.7813 14.1094,45.7813 C11.6563,50.4844 12.1094,56.2188 15.2344,60.0625 C18.2031,63.6875 22.8125,66 28.25,66.5781 C29.1094,66.6719 29.9531,66.7031 30.7969,66.7031 C35.2344,66.7031 39.625,65.5 43.2031,63.2969 C46.8594,60.7188 48.9844,56.7344 49.6563,51.1094 C50.2188,46.4688 49.8281,40.5469 48.4375,32.4688 C48.0781,30.375 47.5313,27.3438 46.875,23.5938 C52.625,21.6719 56.7813,18.0938 60.5469,12.2344 C63.8438,6.5 64.7813,0.390625 63.3594,-5.92188 M29.1406,20.2969 C24.5,19.0781 20.0625,16.5781 16.3125,13.0625 C15,11.8438 13.125,9.67188 11.6563,6.28125 C10.2969,3.10938 9.625,-0.328125 9.6875,-3.90625 C9.75,-8.60938 11.0625,-13.4375 13.5625,-18.2188 C16.4844,-23.7969 21.0469,-29.3281 27.1094,-34.6563 C28.5625,-35.9375 29.9375,-37.2188 31.2188,-38.5 C31.9844,-34.2344 32.8125,-29.5469 33.6875,-24.6719 C29.8438,-23.4063 25.0938,-20.25 21.9844,-14.5938 C18.4375,-8.03125 18.5781,-2.5 19.3125,0.984375 C20.25,5.4375 22.7813,9.20313 26.2344,11.2969 C27.1719,11.8594 31.2969,13.9844 33.1406,13.4063 C33.5156,13.2969 33.7813,13.0625 33.9219,12.7344 C34.4375,11.5625 33.4063,10.9219 31.8594,9.96875 C31.25,9.59375 30.5781,9.17188 29.8594,8.64063 C26.5313,6.15625 25.0781,1.70313 26.1563,-2.6875 C26.7344,-5.07813 28.0156,-7.25 29.8594,-8.95313 C31.5156,-10.5 33.5625,-11.5938 35.9375,-12.2344 C37.9844,-0.984375 40.0469,10.1719 41.6875,18.5313 C41.8125,19.2188 41.9531,19.8906 42.0781,20.5625 C37.7031,21.5 33.3594,21.4063 29.1406,20.2969 M40.4688,-12.9063 C50.8125,-13.375 55.0781,-5.9375 55.9688,-1.10938 C56.4375,1.4375 56.4375,5.875 54.8906,10.0938 C53.7188,13.2656 51.2656,17.3438 46.125,19.4063 C46.0625,18.9844 45.9844,18.5469 45.9063,18.125 C44.3594,9.34375 42.4219,-1.65625 40.4688,-12.9063 M33.1406,-83.8594 C34.9219,-89.5938 37.6563,-92.8438 39.6563,-94.5781 C41.4063,-96.0938 43.0469,-96.8125 43.9688,-96.8125 C44.1094,-96.8125 44.2344,-96.7813 44.3281,-96.75 C44.7969,-96.6094 45.3281,-96.0469 45.7969,-95.1719 C48.1094,-90.8906 47.3594,-84.1719 46.0156,-79.7344 C44.3906,-74.3281 41.4688,-68.7188 32.6719,-59.1094 C32.5,-60.2188 32.3438,-61.2656 32.1875,-62.25 C30.9375,-70.5313 31.2656,-77.8125 33.1406,-83.8594"/>
<path class="Clef" transform="matrix(1.78583,0,0,1.78583,106.583,1991.87)" d="M63.3594,-5.92188 C62.125,-11.3438 59.4844,-15.1719 58.7031,-16.2031 C55.5156,-20.4844 51.5,-23.3281 46.8125,-24.6875 C43.7031,-25.5625 40.7031,-25.6875 38.2813,-25.5 C37.2344,-31.5156 36.2344,-37.3906 35.3281,-42.8438 C40.7813,-49.0156 44.4063,-54.8125 46.6875,-59.1094 C50.1563,-65.6875 51.2969,-70.2656 51.3594,-70.4688 C53.0781,-75.6875 53.4375,-83.3906 52.3281,-91.5938 C51.3281,-99.1406 49.2344,-105.859 46.875,-109.109 C45.8594,-110.531 44.7969,-111.266 43.7656,-111.266 C42.5469,-111.266 40.0313,-110.031 37.1406,-107.25 C34.8438,-105.063 31.5781,-101.172 29.0156,-95.1563 C26.0156,-88.0938 25.7969,-78.6094 26.1563,-71.8906 C26.5313,-64.6094 27.6406,-58.9219 27.6563,-58.875 C27.6719,-58.7813 27.9375,-57.2813 28.375,-54.7188 C28.1563,-54.4844 27.9063,-54.2656 27.6563,-54.0156 C26.625,-53.0156 25.4375,-51.8906 24.0469,-50.5 C23.1875,-49.6406 22.2344,-48.7344 21.2344,-47.7656 C12.7969,-39.625 0,-27.2969 0,-8.14063 C0,-3.4375 0.90625,0.984375 2.6875,5 C4.26563,8.59375 6.5625,11.875 9.5,14.75 C17.2344,22.3125 27.8281,25.5156 34.875,25.3594 C37.8281,25.2813 40.4688,25.0469 42.8594,24.5938 C44.6875,34.2031 45.8281,41.2344 45.8594,46.5781 C45.9063,53.0938 44.25,57.0781 40.3594,59.8438 C37.9219,61.5781 35.1094,62.5313 32.0156,62.6719 C29.4219,62.7969 27.1563,62.3281 25.7344,61.9219 L25.7188,61.9219 C25.7188,61.9219 25.4375,61.8281 25.4219,61.6406 C25.4063,61.4531 25.7656,61.4063 25.7656,61.4063 L25.7969,61.4063 C27.7188,60.9688 31.2813,59.7344 33.6406,56.4375 C35.4375,53.9063 36.3125,49.2813 34.4688,45.3438 C33.3594,42.9531 30.8594,40 25.2344,39.5469 C22.7344,39.3438 20.4688,39.8594 18.4688,41.0625 C16.6563,42.1406 15.1563,43.7813 14.1094,45.7813 C11.6563,50.4844 12.1094,56.2188 15.2344,60.0625 C18.2031,63.6875 22.8125,66 28.25,66.5781 C29.1094,66.6719 29.9531,66.7031 30.7969,66.7031 C35.2344,66.7031 39.625,65.5 43.2031,63.2969 C46.8594,60.7188 48.9844,56.7344 49.6563,51.1094 C50.2188,46.4688 49.8281,40.5469 48.4375,32.4688 C48.0781,30.375 47.5313,27.3438 46.875,23.5938 C52.625,21.6719 56.7813,18.0938 60.5469,12.2344 C63.8438,6.5 64.7813,0.390625 63.3594,-5.92188 M29.1406,20.2969 C24.5,19.0781 20.0625,16.5781 16.3125,13.0625 C15,11.8438 13.125,9.67188 11.6563,6.28125 C10.2969,3.10938 9.625,-0.328125 9.6875,-3.90625 C9.75,-8.60938 11.0625,-13.4375 13.5625,-18.2188 C16.4844,-23.7969 21.0469,-29.3281 27.1094,-34.6563 C28.5625,-35.9375 29.9375,-37.2188 31.2188,-38.5 C31.9844,-34.2344 32.8125,-29.5469 33.6875,-24.6719 C29.8438,-23.4063 25.0938,-20.25 21.9844,-14.5938 C18.4375,-8.03125 18.5781,-2.5 19.3125,0.984375 C20.25,5.4375 22.7813,9.20313 26.2344,11.2969 C27.1719,11.8594 31.2969,13.9844 33.1406,13.4063 C33.5156,13.2969 33.7813,13.0625 33.9219,12.7344 C34.4375,11.5625 33.4063,10.9219 31.8594,9.96875 C31.25,9.59375 30.5781,9.17188 29.8594,8.64063 C26.5313,6.15625 25.0781,1.70313 26.1563,-2.6875 C26.7344,-5.07813 28.0156,-7.25 29.8594,-8.95313 C31.5156,-10.5 33.5625,-11.5938 35.9375,-12.2344 C37.9844,-0.984375 40.0469,10.1719 41.6875,18.5313 C41.8125,19.2188 41.9531,19.8906 42.0781,20.5625 C37.7031,21.5 33.3594,21.4063 29.1406,20.2969 M40.4688,-12.9063 C50.8125,-13.375 55.0781,-5.9375 55.9688,-1.10938 C56.4375,1.4375 56.4375,5.875 54.8906,10.0938 C53.7188,13.2656 51.2656,17.3438 46.125,19.4063 C46.0625,18.9844 45.9844,18.5469 45.9063,18.125 C44.3594,9.34375 42.4219,-1.65625 40.4688,-12.9063 M33.1406,-83.8594 C34.9219,-89.5938 37.6563,-92.8438 39.6563,-94.5781 C41.4063,-96.0938 43.0469,-96.8125 43.9688,-96.8125 C44.1094,-96.8125 44.2344,-96.7813 44.3281,-96.75 C44.7969,-96.6094 45.3281,-96.0469 45.7969,-95.1719 C48.1094,-90.8906 47.3594,-84.1719 46.0156,-79.7344 C44.3906,-74.3281 41.4688,-68.7188 32.6719,-59.1094 C32.5,-60.2188 32.3438,-61.2656 32.1875,-62.25 C30.9375,-70.5313 31.2656,-77.8125 33.1406,-83.8594"/>
<path class="KeySig" transform="matrix(1.78583,0,0,1.78583,265.493,472.677)" d="M20.0938,-7.90625 C19.5,-11.7969 17.0938,-15.5 12,-15.5 C7,-15.5 4.09375,-12.4063 3.59375,-11.7969 L4,-43.9063 C4,-44.7031 3.40625,-45.2969 2.59375,-45.2969 L1.40625,-45.2969 C0.59375,-45.2969 0,-44.7031 0,-43.9063 L0.5,16.2031 C0.5,17 1.09375,17.5938 1.90625,17.5938 C2.09375,17.5938 2.5,17.5 2.70313,17.4063 C3.09375,17.2031 9.59375,14 15,7.90625 C18.7969,3.59375 20.2969,-1.29688 20.2969,-5.40625 C20.2969,-6.29688 20.2031,-7.09375 20.0938,-7.90625 M13.2031,-4 C13.2031,-2.5 12.7969,2.09375 10.2969,5.90625 C8.59375,8.5 5.20313,11.2031 3.29688,12.7031 L3.59375,-6.79688 C3.79688,-7.70313 5.29688,-10.5938 9.29688,-10.5938 C12.9063,-10.5938 13.2031,-7.20313 13.2031,-5.09375 L13.2031,-4 "/>
<path class="KeySig" transform="matrix(1.78583,0,0,1.78583,265.493,1209.95)" d="M20.0938,-7.90625 C19.5,-11.7969 17.0938,-15.5 12,-15.5 C7,-15.5 4.09375,-12.4063 3.59375,-11.7969 L4,-43.9063 C4,-44.7031 3.40625,-45.2969 2.59375,-45.2969 L1.40625,-45.2969 C0.59375,-45.2969 0,-44.7031 0,-43.9063 L0.5,16.2031 C0.5,17 1.09375,17.5938 1.90625,17.5938 C2.09375,17.5938 2.5,17.5 2.70313,17.4063 C3.09375,17.2031 9.59375,14 15,7.90625 C18.7969,3.59375 20.2969,-1.29688 20.2969,-5.40625 C20.2969,-6.29688 20.2031,-7.09375 20.0938,-7.90625 M13.2031,-4 C13.2031,-2.5 12.7969,2.09375 10.2969,5.90625 C8.59375,8.5 5.20313,11.2031 3.29688,12.7031 L3.59375,-6.79688 C3.79688,-7.70313 5.29688,-10.5938 9.29688,-10.5938 C12.9063,-10.5938 13.2031,-7.20313 13.2031,-5.09375 L13.2031,-4 "/>
<path class="KeySig" transform="matrix(1.78583,0,0,1.78583,265.493,1947.23)" d="M20.0938,-7.90625 C19.5,-11.7969 17.0938,-15.5 12,-15.5 C7,-15.5 4.09375,-12.4063 3.59375,-11.7969 L4,-43.9063 C4,-44.7031 3.40625,-45.2969 2.59375,-45.2969 L1.40625,-45.2969 C0.59375,-45.2969 0,-44.7031 0,-43.9063 L0.5,16.2031 C0.5,17 1.09375,17.5938 1.90625,17.5938 C2.09375,17.5938 2.5,17.5 2.70313,17.4063 C3.09375,17.2031 9.59375,14 15,7.90625 C18.7969,3.59375 20.2969,-1.29688 20.2969,-5.40625 C20.2969,-6.29688 20.2031,-7.09375 20.0938,-7.90625 M13.2031,-4 C13.2031,-2.5 12.7969,2.09375 10.2969,5.90625 C8.59375,8.5 5.20313,11.2031 3.29688,12.7031 L3.59375,-6.79688 C3.79688,-7.70313 5.29688,-10.5938 9.29688,-10.5938 C12.9063,-10.5938 13.2031,-7.20313 13.2031,-5.09375 L13.2031,-4 "/>
<path class="TimeSig" transform="matrix(1.78583,0,0,1.78583,349.818,428.924)" d="M34.2031,3.90625 C33.4063,6.09375 31.4063,13.2969 26.5,13.2969 C20,13.2969 18.5938,9.29688 13.2031,9.29688 C12.4063,9.29688 11.5938,9.40625 10.5938,9.59375 C10.5938,9.59375 13.0938,5.79688 23.7031,2.5 C34.2969,-0.796875 37,-6 37,-12 C37,-16.2031 35.1094,-24.5 20,-24.5 C4.90625,-24.5 2.09375,-15.4063 2.09375,-10.7969 C2.09375,-6.70313 5.5,-3.40625 9.59375,-3.40625 C13.7031,-3.40625 17,-6.70313 17,-10.7969 C17,-13.5938 15,-16.7031 12.4063,-17.7031 C12.0938,-17.7969 11.7031,-18.2969 11.7031,-18.7969 C11.7031,-19.4063 12.2031,-20.0938 14,-20.5938 C14.5,-20.7969 15.9063,-21.0938 17.4063,-21.0938 C18.7969,-21.0938 20.4063,-20.7969 21.5938,-20 C23.5,-18.7969 24.2031,-17 24.2031,-12.5 C24.2031,-0.796875 10.2969,1.70313 4.5,10.4063 C4.5,10.4063 1.5,14.5938 1.5,19.2969 C1.5,24 3.90625,24.2969 5.09375,24.2969 C6.70313,24.2969 8.40625,23 8.40625,21.2031 C8.40625,20.7969 8.29688,20.4063 8.09375,19.9063 C7.5,18.5 7.29688,17.4063 7.29688,16.5938 C7.29688,16.2969 7.29688,16 7.40625,15.7031 C7.5,15.0938 8.29688,14.0938 10.7031,14.0938 C13.5938,14.0938 14.7031,17.5 16.5,20.0938 C18.2969,22.7031 21.0938,24.2969 24.2969,24.2969 C27.5,24.2969 31.7969,22 33.6094,18.2969 C35.4063,14.5938 37.7031,7.09375 37.7031,4.40625 C37.7031,3.09375 36.9063,2.5 36,2.5 C35.2969,2.5 34.6094,2.90625 34.2031,3.90625"/>
<path class="TimeSig" transform="matrix(1.78583,0,0,1.78583,343.93,517.086)" d="M3.59375,12.625 L20.7656,12.625 L20.7656,20.0781 L12.5469,20.0781 C11.7656,20.0781 11.125,20.7031 11.125,21.4844 L11.125,23.3906 C11.125,24.1719 11.7656,24.7969 12.5469,24.7969 L42.7969,24.7969 C43.5781,24.7969 44.2031,24.1719 44.2031,23.3906 L44.2031,21.4844 C44.2031,20.7031 43.5781,20.0781 42.7969,20.0781 L33.8594,20.0781 L33.8594,12.625 L42.7969,12.625 C43.5781,12.625 44.2031,12 44.2031,11.2188 L44.2031,9.3125 C44.2031,8.53125 43.5781,7.90625 42.7969,7.90625 L33.8594,7.90625 L33.8594,-8.0625 C33.8594,-8.59375 33.5469,-9.07813 33.0781,-9.3125 L31.8594,-9.92188 C31.3281,-10.1719 30.7031,-10.0781 30.2656,-9.6875 L21.2188,-1.375 C20.9375,-1.09375 20.7656,-0.734375 20.7656,-0.328125 L20.7656,7.90625 L9.25,7.90625 C9.25,7.90625 20.375,-4.125 32.2188,-19.8906 C33.0781,-21.0469 32.5781,-22.0938 32.3906,-22.2813 L30.2188,-24.4844 C29.9531,-24.75 29.5938,-24.9063 29.2188,-24.9063 C28.625,-24.9063 15.0625,-24.875 14.3438,-24.9063 C13.625,-24.9219 13.0938,-24.2969 13.0156,-23.6875 C13.0156,-23.6875 12.4844,-16.3281 9.875,-8.1875 C7.28125,-0.078125 4.34375,4.90625 1.6875,8.53125 C1.6875,8.53125 1.14063,9.51563 1.5,10.2656 C1.84375,11.0156 2.48438,12.0938 2.48438,12.0938 C2.48438,12.0938 2.73438,12.625 3.59375,12.625"/>
<path class="Rest" transform="matrix(1.78583,0,0,1.78583,512.147,472.677)" d="M23.2031,16.9063 L23,16.5938 C22.9063,16.5 22.7031,16.2969 22.4063,15.9063 L10.9063,1.70313 C10.5938,1.40625 10.7031,0.59375 10.9063,0.203125 L21.0938,-15.2031 C21.2031,-15.4063 21.2969,-15.7031 21.2969,-15.9063 L21.2969,-16.7969 C21.2969,-17.0938 21.2031,-17.4063 21,-17.5938 L4.79688,-39.5 C4.79688,-39.5 4,-40.7031 3,-39.7969 C2,-39 2.79688,-37.7031 2.79688,-37.7031 L10.4063,-27.2969 C10.7969,-26.7031 10.7969,-25.5 10.4063,-24.9063 L0.296875,-9.5 C0.203125,-9.29688 0.09375,-8.90625 0.09375,-8.70313 L0.09375,-7.79688 C0.09375,-7.5 0.203125,-7.20313 0.40625,-7 L11.5938,6.90625 C11.2031,6.79688 10.2969,6.59375 9.09375,6.59375 C7.40625,6.59375 5.20313,7 3.40625,8.59375 C1.20313,10.5938 0,13.4063 0,15.9063 C0,17.2969 0.296875,18.7031 1.09375,19.7969 C3.20313,23 10.7031,32.5 10.7031,32.5 C10.7031,32.5 11.5938,33.6094 12.5,32.9063 C13.4063,32.2031 13.2031,31.2969 12.9063,30.7969 C12.5938,30.2969 9.40625,24.5 9.40625,24.5 C9.40625,24.5 8.70313,23.0938 8.70313,21.2969 C8.70313,20 9.09375,18.4063 10.4063,17.0938 C11.5938,15.9063 13,15.5 14.2969,15.5 C15.5938,15.5 16.7031,15.9063 17.5,16.4063 L21.4063,18.9063 C21.4063,18.9063 22.5938,19.5 23.2031,18.5938 C23.7031,17.7969 23.5,17.4063 23.2031,16.9063"/>
<path class="Rest" transform="matrix(1.78583,0,0,1.78583,1686.77,472.677)" d="M23.2031,16.9063 L23,16.5938 C22.9063,16.5 22.7031,16.2969 22.4063,15.9063 L10.9063,1.70313 C10.5938,1.40625 10.7031,0.59375 10.9063,0.203125 L21.0938,-15.2031 C21.2031,-15.4063 21.2969,-15.7031 21.2969,-15.9063 L21.2969,-16.7969 C21.2969,-17.0938 21.2031,-17.4063 21,-17.5938 L4.79688,-39.5 C4.79688,-39.5 4,-40.7031 3,-39.7969 C2,-39 2.79688,-37.7031 2.79688,-37.7031 L10.4063,-27.2969 C10.7969,-26.7031 10.7969,-25.5 10.4063,-24.9063 L0.296875,-9.5 C0.203125,-9.29688 0.09375,-8.90625 0.09375,-8.70313 L0.09375,-7.79688 C0.09375,-7.5 0.203125,-7.20313 0.40625,-7 L11.5938,6.90625 C11.2031,6.79688 10.2969,6.59375 9.09375,6.59375 C7.40625,6.59375 5.20313,7 3.40625,8.59375 C1.20313,10.5938 0,13.4063 0,15.9063 C0,17.2969 0.296875,18.7031 1.09375,19.7969 C3.20313,23 10.7031,32.5 10.7031,32.5 C10.7031,32.5 11.5938,33.6094 12.5,32.9063 C13.4063,32.2031 13.2031,31.2969 12.9063,30.7969 C12.5938,30.2969 9.40625,24.5 9.40625,24.5 C9.40625,24.5 8.70313,23.0938 8.70313,21.2969 C8.70313,20 9.09375,18.4063 10.4063,17.0938 C11.5938,15.9063 13,15.5 14.2969,15.5 C15.5938,15.5 16.7031,15.9063 17.5,16.4063 L21.4063,18.9063 C21.4063,18.9063 22.5938,19.5 23.2031,18.5938 C23.7031,17.7969 23.5,17.4063 23.2031,16.9063"/>
<path class="Rest" transform="matrix(1.78583,0,0,1.78583,1884.32,472.677)" d="M23.2031,16.9063 L23,16.5938 C22.9063,16.5 22.7031,16.2969 22.4063,15.9063 L10.9063,1.70313 C10.5938,1.40625 10.7031,0.59375 10.9063,0.203125 L21.0938,-15.2031 C21.2031,-15.4063 21.2969,-15.7031 21.2969,-15.9063 L21.2969,-16.7969 C21.2969,-17.0938 21.2031,-17.4063 21,-17.5938 L4.79688,-39.5 C4.79688,-39.5 4,-40.7031 3,-39.7969 C2,-39 2.79688,-37.7031 2.79688,-37.7031 L10.4063,-27.2969 C10.7969,-26.7031 10.7969,-25.5 10.4063,-24.9063 L0.296875,-9.5 C0.203125,-9.29688 0.09375,-8.90625 0.09375,-8.70313 L0.09375,-7.79688 C0.09375,-7.5 0.203125,-7.20313 0.40625,-7 L11.5938,6.90625 C11.2031,6.79688 10.2969,6.59375 9.09375,6.59375 C7.40625,6.59375 5.20313,7 3.40625,8.59375 C1.20313,10.5938 0,13.4063 0,15.9063 C0,17.2969 0.296875,18.7031 1.09375,19.7969 C3.20313,23 10.7031,32.5 10.7031,32.5 C10.7031,32.5 11.5938,33.6094 12.5,32.9063 C13.4063,32.2031 13.2031,31.2969 12.9063,30.7969 C12.5938,30.2969 9.40625,24.5 9.40625,24.5 C9.40625,24.5 8.70313,23.0938 8.70313,21.2969 C8.70313,20 9.09375,18.4063 10.4063,17.0938 C11.5938,15.9063 13,15.5 14.2969,15.5 C15.5938,15.5 16.7031,15.9063 17.5,16.4063 L21.4063,18.9063 C21.4063,18.9063 22.5938,19.5 23.2031,18.5938 C23.7031,17.7969 23.5,17.4063 23.2031,16.9063"/>
<path class="Rest" transform="matrix(1.78583,0,0,1.78583,2280.54,472.677)" d="M26.7344,-20.2656 C25.9844,-20.5469 25.3125,-20.2031 24.9844,-19.5938 C24.6563,-18.9844 21.4688,-13.0625 17.0469,-9.79688 C15.6563,-8.78125 14.0625,-8.14063 12.5,-7.8125 C13.625,-9.0625 14.2969,-10.7344 14.2969,-12.5469 C14.2969,-16.5 11.0938,-19.7031 7.15625,-19.7031 C3.20313,-19.7031 0,-16.5 0,-12.5469 C0,-9.54688 1.875,-6.95313 4.51563,-5.90625 C6.04688,-5.1875 7.95313,-4.73438 10,-4.73438 C12.8438,-4.73438 15.9531,-5.5625 18.6719,-7.5625 C19.9375,-8.48438 21.125,-9.6875 22.2031,-10.9375 L10.8125,24.6875 L13.4531,25.5469 L27.5313,-18.5469 C27.7656,-19.2813 27.4688,-19.9688 26.7344,-20.2656"/>
<path class="Rest" transform="matrix(1.78583,0,0,1.78583,2362.03,472.677)" d="M26.7344,-20.2656 C25.9844,-20.5469 25.3125,-20.2031 24.9844,-19.5938 C24.6563,-18.9844 21.4688,-13.0625 17.0469,-9.79688 C15.6563,-8.78125 14.0625,-8.14063 12.5,-7.8125 C13.625,-9.0625 14.2969,-10.7344 14.2969,-12.5469 C14.2969,-16.5 11.0938,-19.7031 7.15625,-19.7031 C3.20313,-19.7031 0,-16.5 0,-12.5469 C0,-9.54688 1.875,-6.95313 4.51563,-5.90625 C6.04688,-5.1875 7.95313,-4.73438 10,-4.73438 C12.8438,-4.73438 15.9531,-5.5625 18.6719,-7.5625 C19.9375,-8.48438 21.125,-9.6875 22.2031,-10.9375 L10.8125,24.6875 L13.4531,25.5469 L27.5313,-18.5469 C27.7656,-19.2813 27.4688,-19.9688 26.7344,-20.2656"/>
<path class="Rest" transform="matrix(1.78583,0,0,1.78583,3358.35,472.677)" d="M23.2031,16.9063 L23,16.5938 C22.9063,16.5 22.7031,16.2969 22.4063,15.9063 L10.9063,1.70313 C10.5938,1.40625 10.7031,0.59375 10.9063,0.203125 L21.0938,-15.2031 C21.2031,-15.4063 21.2969,-15.7031 21.2969,-15.9063 L21.2969,-16.7969 C21.2969,-17.0938 21.2031,-17.4063 21,-17.5938 L4.79688,-39.5 C4.79688,-39.5 4,-40.7031 3,-39.7969 C2,-39 2.79688,-37.7031 2.79688,-37.7031 L10.4063,-27.2969 C10.7969,-26.7031 10.7969,-25.5 10.4063,-24.9063 L0.296875,-9.5 C0.203125,-9.29688 0.09375,-8.90625 0.09375,-8.70313 L0.09375,-7.79688 C0.09375,-7.5 0.203125,-7.20313 0.40625,-7 L11.5938,6.90625 C11.2031,6.79688 10.2969,6.59375 9.09375,6.59375 C7.40625,6.59375 5.20313,7 3.40625,8.59375 C1.20313,10.5938 0,13.4063 0,15.9063 C0,17.2969 0.296875,18.7031 1.09375,19.7969 C3.20313,23 10.7031,32.5 10.7031,32.5 C10.7031,32.5 11.5938,33.6094 12.5,32.9063 C13.4063,32.2031 13.2031,31.2969 12.9063,30.7969 C12.5938,30.2969 9.40625,24.5 9.40625,24.5 C9.40625,24.5 8.70313,23.0938 8.70313,21.2969 C8.70313,20 9.09375,18.4063 10.4063,17.0938 C11.5938,15.9063 13,15.5 14.2969,15.5 C15.5938,15.5 16.7031,15.9063 17.5,16.4063 L21.4063,18.9063 C21.4063,18.9063 22.5938,19.5 23.2031,18.5938 C23.7031,17.7969 23.5,17.4063 23.2031,16.9063"/>
<path class="Rest" transform="matrix(1.78583,0,0,1.78583,3466.64,472.677)" d="M26.7344,-20.2656 C25.9844,-20.5469 25.3125,-20.2031 24.9844,-19.5938 C24.6563,-18.9844 21.4688,-13.0625 17.0469,-9.79688 C15.6563,-8.78125 14.0625,-8.14063 12.5,-7.8125 C13.625,-9.0625 14.2969,-10.7344 14.2969,-12.5469 C14.2969,-16.5 11.0938,-19.7031 7.15625,-19.7031 C3.20313,-19.7031 0,-16.5 0,-12.5469 C0,-9.54688 1.875,-6.95313 4.51563,-5.90625 C6.04688,-5.1875 7.95313,-4.73438 10,-4.73438 C12.8438,-4.73438 15.9531,-5.5625 18.6719,-7.5625 C19.9375,-8.48438 21.125,-9.6875 22.2031,-10.9375 L10.8125,24.6875 L13.4531,25.5469 L27.5313,-18.5469 C27.7656,-19.2813 27.4688,-19.9688 26.7344,-20.2656"/>
<path class="Rest" transform="matrix(1.78583,0,0,1.78583,3885.29,472.677)" d="M26.7344,-20.2656 C25.9844,-20.5469 25.3125,-20.2031 24.9844,-19.5938 C24.6563,-18.9844 21.4688,-13.0625 17.0469,-9.79688 C15.6563,-8.78125 14.0625,-8.14063 12.5,-7.8125 C13.625,-9.0625 14.2969,-10.7344 14.2969,-12.5469 C14.2969,-16.5 11.0938,-19.7031 7.15625,-19.7031 C3.20313,-19.7031 0,-16.5 0,-12.5469 C0,-9.54688 1.875,-6.95313 4.51563,-5.90625 C6.04688,-5.1875 7.95313,-4.73438 10,-4.73438 C12.8438,-4.73438 15.9531,-5.5625 18.6719,-7.5625 C19.9375,-8.48438 21.125,-9.6875 22.2031,-10.9375 L10.8125,24.6875 L13.4531,25.5469 L27.5313,-18.5469 C27.7656,-19.2813 27.4688,-19.9688 26.7344,-20.2656"/>
<path class="Rest" transform="matrix(1.78583,0,0,1.78583,925.646,1209.95)" d="M23.2031,16.9063 L23,16.5938 C22.9063,16.5 22.7031,16.2969 22.4063,15.9063 L10.9063,1.70313 C10.5938,1.40625 10.7031,0.59375 10.9063,0.203125 L21.0938,-15.2031 C21.2031,-15.4063 21.2969,-15.7031 21.2969,-15.9063 L21.2969,-16.7969 C21.2969,-17.0938 21.2031,-17.4063 21,-17.5938 L4.79688,-39.5 C4.79688,-39.5 4,-40.7031 3,-39.7969 C2,-39 2.79688,-37.7031 2.79688,-37.7031 L10.4063,-27.2969 C10.7969,-26.7031 10.7969,-25.5 10.4063,-24.9063 L0.296875,-9.5 C0.203125,-9.29688 0.09375,-8.90625 0.09375,-8.70313 L0.09375,-7.79688 C0.09375,-7.5 0.203125,-7.20313 0.40625,-7 L11.5938,6.90625 C11.2031,6.79688 10.2969,6.59375 9.09375,6.59375 C7.40625,6.59375 5.20313,7 3.40625,8.59375 C1.20313,10.5938 0,13.4063 0,15.9063 C0,17.2969 0.296875,18.7031 1.09375,19.7969 C3.20313,23 10.7031,32.5 10.7031,32.5 C10.7031,32.5 11.5938,33.6094 12.5,32.9063 C13.4063,32.2031 13.2031,31.2969 12.9063,30.7969 C12.5938,30.2969 9.40625,24.5 9.40625,24.5 C9.40625,24.5 8.70313,23.0938 8.70313,21.2969 C8.70313,20 9.09375,18.4063 10.4063,17.0938 C11.5938,15.9063 13,15.5 14.2969,15.5 C15.5938,15.5 16.7031,15.9063 17.5,16.4063 L21.4063,18.9063 C21.4063,18.9063 22.5938,19.5 23.2031,18.5938 C23.7031,17.7969 23.5,17.4063 23.2031,16.9063"/>
<path class="Rest" transform="matrix(1.78583,0,0,1.78583,1116.72,1209.95)" d="M23.2031,16.9063 L23,16.5938 C22.9063,16.5 22.7031,16.2969 22.4063,15.9063 L10.9063,1.70313 C10.5938,1.40625 10.7031,0.59375 10.9063,0.203125 L21.0938,-15.2031 C21.2031,-15.4063 21.2969,-15.7031 21.2969,-15.9063 L21.2969,-16.7969 C21.2969,-17.0938 21.2031,-17.4063 21,-17.5938 L4.79688,-39.5 C4.79688,-39.5 4,-40.7031 3,-39.7969 C2,-39 2.79688,-37.7031 2.79688,-37.7031 L10.4063,-27.2969 C10.7969,-26.7031 10.7969,-25.5 10.4063,-24.9063 L0.296875,-9.5 C0.203125,-9.29688 0.09375,-8.90625 0.09375,-8.70313 L0.09375,-7.79688 C0.09375,-7.5 0.203125,-7.20313 0.40625,-7 L11.5938,6.90625 C11.2031,6.79688 10.2969,6.59375 9.09375,6.59375 C7.40625,6.59375 5.20313,7 3.40625,8.59375 C1.20313,10.5938 0,13.4063 0,15.9063 C0,17.2969 0.296875,18.7031 1.09375,19.7969 C3.20313,23 10.7031,32.5 10.7031,32.5 C10.7031,32.5 11.5938,33.6094 12.5,32.9063 C13.4063,32.2031 13.2031,31.2969 12.9063,30.7969 C12.5938,30.2969 9.40625,24.5 9.40625,24.5 C9.40625,24.5 8.70313,23.0938 8.70313,21.2969 C8.70313,20 9.09375,18.4063 10.4063,17.0938 C11.5938,15.9063 13,15.5 14.2969,15.5 C15.5938,15.5 16.7031,15.9063 17.5,16.4063 L21.4063,18.9063 C21.4063,18.9063 22.5938,19.5 23.2031,18.5938 C23.7031,17.7969 23.5,17.4063 23.2031,16.9063"/>
<path class="Rest" transform="matrix(1.78583,0,0,1.78583,2111.42,1209.95)" d="M23.2031,16.9063 L23,16.5938 C22.9063,16.5 22.7031,16.2969 22.4063,15.9063 L10.9063,1.70313 C10.5938,1.40625 10.7031,0.59375 10.9063,0.203125 L21.0938,-15.2031 C21.2031,-15.4063 21.2969,-15.7031 21.2969,-15.9063 L21.2969,-16.7969 C21.2969,-17.0938 21.2031,-17.4063 21,-17.5938 L4.79688,-39.5 C4.79688,-39.5 4,-40.7031 3,-39.7969 C2,-39 2.79688,-37.7031 2.79688,-37.7031 L10.4063,-27.2969 C10.7969,-26.7031 10.7969,-25.5 10.4063,-24.9063 L0.296875,-9.5 C0.203125,-9.29688 0.09375,-8.90625 0.09375,-8.70313 L0.09375,-7.79688 C0.09375,-7.5 0.203125,-7.20313 0.40625,-7 L11.5938,6.90625 C11.2031,6.79688 10.2969,6.59375 9.09375,6.59375 C7.40625,6.59375 5.20313,7 3.40625,8.59375 C1.20313,10.5938 0,13.4063 0,15.9063 C0,17.2969 0.296875,18.7031 1.09375,19.7969 C3.20313,23 10.7031,32.5 10.7031,32.5 C10.7031,32.5 11.5938,33.6094 12.5,32.9063 C13.4063,32.2031 13.2031,31.2969 12.9063,30.7969 C12.5938,30.2969 9.40625,24.5 9.40625,24.5 C9.40625,24.5 8.70313,23.0938 8.70313,21.2969 C8.70313,20 9.09375,18.4063 10.4063,17.0938 C11.5938,15.9063 13,15.5 14.2969,15.5 C15.5938,15.5 16.7031,15.9063 17.5,16.4063 L21.4063,18.9063 C21.4063,18.9063 22.5938,19.5 23.2031,18.5938 C23.7031,17.7969 23.5,17.4063 23.2031,16.9063"/>
<path class="Rest" transform="matrix(1.78583,0,0,1.78583,2302.49,1209.95)" d="M23.2031,16.9063 L23,16.5938 C22.9063,16.5 22.7031,16.2969 22.4063,15.9063 L10.9063,1.70313 C10.5938,1.40625 10.7031,0.59375 10.9063,0.203125 L21.0938,-15.2031 C21.2031,-15.4063 21.2969,-15.7031 21.2969,-15.9063 L21.2969,-16.7969 C21.2969,-17.0938 21.2031,-17.4063 21,-17.5938 L4.79688,-39.5 C4.79688,-39.5 4,-40.7031 3,-39.7969 C2,-39 2.79688,-37.7031 2.79688,-37.7031 L10.4063,-27.2969 C10.7969,-26.7031 10.7969,-25.5 10.4063,-24.9063 L0.296875,-9.5 C0.203125,-9.29688 0.09375,-8.90625 0.09375,-8.70313 L0.09375,-7.79688 C0.09375,-7.5 0.203125,-7.20313 0.40625,-7 L11.5938,6.90625 C11.2031,6.79688 10.2969,6.59375 9.09375,6.59375 C7.40625,6.59375 5.20313,7 3.40625,8.59375 C1.20313,10.5938 0,13.4063 0,15.9063 C0,17.2969 0.296875,18.7031 1.09375,19.7969 C3.20313,23 10.7031,32.5 10.7031,32.5 C10.7031,32.5 11.5938,33.6094 12.5,32.9063 C13.4063,32.2031 13.2031,31.2969 12.9063,30.7969 C12.5938,30.2969 9.40625,24.5 9.40625,24.5 C9.40625,24.5 8.70313,23.0938 8.70313,21.2969 C8.70313,20 9.09375,18.4063 10.4063,17.0938 C11.5938,15.9063 13,15.5 14.2969,15.5 C15.5938,15.5 16.7031,15.9063 17.5,16.4063 L21.4063,18.9063 C21.4063,18.9063 22.5938,19.5 23.2031,18.5938 C23.7031,17.7969 23.5,17.4063 23.2031,16.9063"/>
<path class="Rest" transform="matrix(1.78583,0,0,1.78583,2727.92,1053.69)" d="M32.375,-1.79688 C35.7188,-4.29688 38.0156,-7.48438 38.0156,-11.5 C38.0156,-18.7344 30.125,-24.5938 20.4063,-24.5938 C10.6719,-24.5938 2.78125,-18.7344 2.78125,-11.5 C2.78125,-7.48438 3.78125,-3.89063 8.51563,-0.9375 C3.95313,1.73438 1.5,5.40625 1.5,10.1719 C1.5,18.25 9.95313,24.7969 20.4063,24.7969 C30.8438,24.7969 39.2969,18.25 39.2969,10.1719 C39.2969,5.40625 37.5625,0.84375 32.375,-1.79688 M20.3906,19.1875 C14.0313,19.1875 8.5,15.7031 8.5,10.125 C8.5,3.42188 13.6719,1.8125 13.6719,1.8125 C20.4688,4.07813 30.2188,7.51563 30.2188,12.9688 C30.2188,15.7031 26.75,19.1875 20.3906,19.1875 M26.7813,-4.54688 C19.9688,-6.65625 12.4844,-9.95313 12.4844,-14.5 C12.4844,-18.4375 16.0938,-19.9844 20.3906,-19.9844 C26.5469,-19.9844 30.7969,-17.0938 30.7969,-12.5 C30.7969,-7.70313 28.5781,-5.42188 26.7813,-4.54688"/>
<polyline class="Rest" stroke="#000000" stroke-width="31.25" stroke-linecap="square" stroke-linejoin="bevel" points="2663.63,1209.95 2859.73,1209.95"/>
<polyline class="Rest" stroke="#000000" stroke-width="8.93" stroke-linecap="square" stroke-linejoin="bevel" points="2648,1165.31 2648,1254.6"/>
<polyline class="Rest" stroke="#000000" stroke-width="8.93" stroke-linecap="square" stroke-linejoin="bevel" points="2875.36,1165.31 2875.36,1254.6"/>
<path class="Rest" transform="matrix(1.78583,0,0,1.78583,3372.11,1947.23)" d="M23.2031,16.9063 L23,16.5938 C22.9063,16.5 22.7031,16.2969 22.4063,15.9063 L10.9063,1.70313 C10.5938,1.40625 10.7031,0.59375 10.9063,0.203125 L21.0938,-15.2031 C21.2031,-15.4063 21.2969,-15.7031 21.2969,-15.9063 L21.2969,-16.7969 C21.2969,-17.0938 21.2031,-17.4063 21,-17.5938 L4.79688,-39.5 C4.79688,-39.5 4,-40.7031 3,-39.7969 C2,-39 2.79688,-37.7031 2.79688,-37.7031 L10.4063,-27.2969 C10.7969,-26.7031 10.7969,-25.5 10.4063,-24.9063 L0.296875,-9.5 C0.203125,-9.29688 0.09375,-8.90625 0.09375,-8.70313 L0.09375,-7.79688 C0.09375,-7.5 0.203125,-7.20313 0.40625,-7 L11.5938,6.90625 C11.2031,6.79688 10.2969,6.59375 9.09375,6.59375 C7.40625,6.59375 5.20313,7 3.40625,8.59375 C1.20313,10.5938 0,13.4063 0,15.9063 C0,17.2969 0.296875,18.7031 1.09375,19.7969 C3.20313,23 10.7031,32.5 10.7031,32.5 C10.7031,32.5 11.5938,33.6094 12.5,32.9063 C13.4063,32.2031 13.2031,31.2969 12.9063,30.7969 C12.5938,30.2969 9.40625,24.5 9.40625,24.5 C9.40625,24.5 8.70313,23.0938 8.70313,21.2969 C8.70313,20 9.09375,18.4063 10.4063,17.0938 C11.5938,15.9063 13,15.5 14.2969,15.5 C15.5938,15.5 16.7031,15.9063 17.5,16.4063 L21.4063,18.9063 C21.4063,18.9063 22.5938,19.5 23.2031,18.5938 C23.7031,17.7969 23.5,17.4063 23.2031,16.9063"/>
<path class="Beam" fill-rule="evenodd" d="M1264.41,593.199 L1336.28,545.278 L1336.28,572.109 L1264.41,620.029 L1264.41,593.199 "/>
<path class="Beam" fill-rule="evenodd" d="M1522.44,549.266 L1609.51,596.58 L1609.51,621.985 L1522.44,574.671 L1522.44,549.266 "/>
<path class="Beam" fill-rule="evenodd" d="M2634.58,595.348 L2720.98,583.514 L2720.98,606.046 L2634.58,617.88 L2634.58,595.348 "/>
<path class="Beam" fill-rule="evenodd" d="M2850.67,326.802 L2937.07,338.636 L2937.07,361.167 L2850.67,349.333 L2850.67,326.802 "/>
<path class="Beam" fill-rule="evenodd" d="M413.354,1299.24 L496.352,1299.24 L496.352,1321.57 L413.354,1321.57 L413.354,1299.24 "/>
<path class="Beam" fill-rule="evenodd" d="M569.528,1332.61 L652.527,1320.75 L652.527,1343.3 L569.528,1355.16 L569.528,1332.61 "/>
<path class="Beam" fill-rule="evenodd" d="M1210.37,1276.77 L1282.24,1288.75 L1282.24,1311.38 L1210.37,1299.4 L1210.37,1276.77 "/>
<path class="Beam" fill-rule="evenodd" d="M3120.07,1120.66 L3203.07,1120.66 L3203.07,1142.98 L3120.07,1142.98 L3120.07,1120.66 "/>
<path class="Beam" fill-rule="evenodd" d="M3276.24,1120.66 L3359.24,1120.66 L3359.24,1142.98 L3276.24,1142.98 L3276.24,1120.66 "/>
<path class="Beam" fill-rule="evenodd" d="M3823.43,1098.34 L3906.43,1098.34 L3906.43,1120.66 L3823.43,1120.66 L3823.43,1098.34 "/>
<path class="Beam" fill-rule="evenodd" d="M3979.6,1098.34 L4062.6,1098.34 L4062.6,1120.66 L3979.6,1120.66 L3979.6,1098.34 "/>
<path class="Beam" fill-rule="evenodd" d="M1108.18,2036.52 L1307.1,2036.52 L1307.1,2058.84 L1108.18,2058.84 L1108.18,2036.52 "/>
<path class="Beam" fill-rule="evenodd" d="M1496.2,2036.52 L1695.13,2036.52 L1695.13,2058.84 L1496.2,2058.84 L1496.2,2036.52 "/>
<path class="Hook" transform="matrix(1.78583,0,0,1.78583,2007.98,628.937)" d="M2.5,0.40625 C2.5,0.203125 3.40625,-3.20313 3.5,-3.5 C3.59375,-3.90625 5.40625,-9.59375 9.09375,-15.2969 C11.7969,-19.5 21.2969,-31.7969 21,-31.7969 C21,-31.7969 28.4063,-41.2969 28.9063,-54.2031 L28.9063,-56.5 C28.9063,-62.6094 28.1094,-71.2031 24.5938,-79.9063 C24.2031,-80.9063 23.7969,-81.9063 22.7031,-81.5 C21.5938,-81.1094 21.9063,-79.9063 22.2031,-78.8125 C24,-71.7969 25,-64.6094 25,-57.4063 C25,-49 22,-44.7969 20.2031,-41.7031 C13.5938,-30.6094 5,-25.2031 0.796875,-23.7969 C0.296875,-23.5938 0,-23.2031 0,-22.7031 L0,-16.5 L0,-0.09375 C0,0.59375 0.59375,1.20313 1.29688,1.20313 C1.79688,1.20313 2.40625,0.796875 2.5,0.40625"/>
<path class="Hook" transform="matrix(1.78583,0,0,1.78583,2199.05,628.937)" d="M2.5,0.40625 C2.5,0.203125 3.40625,-3.20313 3.5,-3.5 C3.59375,-3.90625 5.40625,-9.59375 9.09375,-15.2969 C11.7969,-19.5 21.2969,-31.7969 21,-31.7969 C21,-31.7969 28.4063,-41.2969 28.9063,-54.2031 L28.9063,-56.5 C28.9063,-62.6094 28.1094,-71.2031 24.5938,-79.9063 C24.2031,-80.9063 23.7969,-81.9063 22.7031,-81.5 C21.5938,-81.1094 21.9063,-79.9063 22.2031,-78.8125 C24,-71.7969 25,-64.6094 25,-57.4063 C25,-49 22,-44.7969 20.2031,-41.7031 C13.5938,-30.6094 5,-25.2031 0.796875,-23.7969 C0.296875,-23.5938 0,-23.2031 0,-22.7031 L0,-16.5 L0,-0.09375 C0,0.59375 0.59375,1.20313 1.29688,1.20313 C1.79688,1.20313 2.40625,0.796875 2.5,0.40625"/>
<path class="Hook" transform="matrix(1.78583,0,0,1.78583,2443.51,628.937)" d="M2.5,0.40625 C2.5,0.203125 3.40625,-3.20313 3.5,-3.5 C3.59375,-3.90625 5.40625,-9.59375 9.09375,-15.2969 C11.7969,-19.5 21.2969,-31.7969 21,-31.7969 C21,-31.7969 28.4063,-41.2969 28.9063,-54.2031 L28.9063,-56.5 C28.9063,-62.6094 28.1094,-71.2031 24.5938,-79.9063 C24.2031,-80.9063 23.7969,-81.9063 22.7031,-81.5 C21.5938,-81.1094 21.9063,-79.9063 22.2031,-78.8125 C24,-71.7969 25,-64.6094 25,-57.4063 C25,-49 22,-44.7969 20.2031,-41.7031 C13.5938,-30.6094 5,-25.2031 0.796875,-23.7969 C0.296875,-23.5938 0,-23.2031 0,-22.7031 L0,-16.5 L0,-0.09375 C0,0.59375 0.59375,1.20313 1.29688,1.20313 C1.79688,1.20313 2.40625,0.796875 2.5,0.40625"/>
<path class="Hook" transform="matrix(1.78583,0,0,1.78583,3587.43,450.354)" d="M3.5,3.5 C3.40625,3.20313 2.5,-0.296875 2.5,-0.5 C2.40625,-0.90625 1.79688,-1.20313 1.29688,-1.20313 C0.59375,-1.20313 0,-0.59375 0,0.09375 L0,16.5 L0,22.7031 C0,23.2031 0.40625,23.5938 0.796875,23.7969 C5,25.0938 13.7031,30.6094 20.2031,41.7031 C22,44.7969 24.9063,49 24.9063,57.4063 C24.9063,64.6094 23.7969,72.2031 22,79.2031 C21.7031,80.3125 21.4063,81.3125 22.5,81.7031 C23.5938,82.1094 24,81.3125 24.4063,80.3125 C28,71.5 28.9063,62.2969 28.9063,56.1094 L28.9063,54.2031 C28.4063,41.2969 21,31.7969 21,31.7969 C21.2969,31.7969 11.7969,19.5 9.09375,15.2969 C5.40625,9.59375 3.59375,3.90625 3.5,3.5"/>
<path class="Hook" transform="matrix(1.78583,0,0,1.78583,4006.08,349.901)" d="M3.5,3.5 C3.40625,3.20313 2.5,-0.296875 2.5,-0.5 C2.40625,-0.90625 1.79688,-1.20313 1.29688,-1.20313 C0.59375,-1.20313 0,-0.59375 0,0.09375 L0,16.5 L0,22.7031 C0,23.2031 0.40625,23.5938 0.796875,23.7969 C5,25.0938 13.7031,30.6094 20.2031,41.7031 C22,44.7969 24.9063,49 24.9063,57.4063 C24.9063,64.6094 23.7969,72.2031 22,79.2031 C21.7031,80.3125 21.4063,81.3125 22.5,81.7031 C23.5938,82.1094 24,81.3125 24.4063,80.3125 C28,71.5 28.9063,62.2969 28.9063,56.1094 L28.9063,54.2031 C28.4063,41.2969 21,31.7969 21,31.7969 C21.2969,31.7969 11.7969,19.5 9.09375,15.2969 C5.40625,9.59375 3.59375,3.90625 3.5,3.5"/>
<path class="Hook" transform="matrix(1.78583,0,0,1.78583,3878.44,1924.91)" d="M3.5,3.5 C3.40625,3.20313 2.5,-0.296875 2.5,-0.5 C2.40625,-0.90625 1.79688,-1.20313 1.29688,-1.20313 C0.59375,-1.20313 0,-0.59375 0,0.09375 L0,16.5 L0,22.7031 C0,23.2031 0.40625,23.5938 0.796875,23.7969 C5,25.0938 13.7031,30.6094 20.2031,41.7031 C22,44.7969 24.9063,49 24.9063,57.4063 C24.9063,64.6094 23.7969,72.2031 22,79.2031 C21.7031,80.3125 21.4063,81.3125 22.5,81.7031 C23.5938,82.1094 24,81.3125 24.4063,80.3125 C28,71.5 28.9063,62.2969 28.9063,56.1094 L28.9063,54.2031 C28.4063,41.2969 21,31.7969 21,31.7969 C21.2969,31.7969 11.7969,19.5 9.09375,15.2969 C5.40625,9.59375 3.59375,3.90625 3.5,3.5"/>
<path class="Tuplet" d="M2220.65,2128.87 C2224.4,2127.67 2225.93,2127.05 2227.85,2125.76 C2231.6,2123.28 2233.93,2118.87 2233.93,2114.4 C2233.93,2106.8 2227.85,2101.67 2218.88,2101.67 C2210.17,2101.67 2202.81,2107.12 2202.81,2113.67 C2202.81,2116.95 2204.81,2119.2 2207.85,2119.2 C2210.49,2119.2 2212.4,2117.28 2212.4,2114.64 C2212.4,2113.28 2212.01,2112.31 2210.73,2111.03 C2209.93,2110.31 2209.6,2109.76 2209.6,2109.2 C2209.6,2107.28 2213.6,2105.28 2217.37,2105.28 C2222.73,2105.28 2225.93,2108.23 2225.93,2113.2 C2225.93,2120.31 2220.88,2127.05 2215.53,2127.05 C2215.29,2127.05 2214.57,2126.95 2213.68,2126.87 C2211.37,2126.72 2211.37,2126.72 2210.88,2126.72 C2209.13,2126.72 2208.17,2127.51 2208.17,2128.95 C2208.17,2130.23 2209.04,2131.05 2210.49,2131.05 C2210.88,2131.05 2211.45,2130.95 2212.09,2130.87 C2213.21,2130.64 2214.4,2130.56 2215.13,2130.56 C2218.88,2130.56 2221.45,2133.92 2221.45,2138.87 C2221.45,2142.72 2220.57,2146.4 2218.81,2149.44 C2216.4,2153.76 2212.73,2155.84 2207.53,2155.84 C2203.04,2155.84 2199.21,2153.59 2199.21,2151.05 C2199.21,2150.15 2199.53,2149.84 2200.81,2149.28 C2203.13,2148.23 2204.09,2146.8 2204.09,2144.64 C2204.09,2141.84 2201.85,2139.67 2198.96,2139.67 C2195.53,2139.67 2193.29,2142.4 2193.29,2146.56 C2193.29,2154.31 2199.21,2159.2 2208.81,2159.2 C2220.88,2159.2 2230.09,2151.12 2230.09,2140.4 C2230.09,2137.51 2229.21,2135.05 2227.53,2133.05 C2225.78,2130.95 2224.17,2130 2220.65,2128.87"/>
<polyline class="Tuplet" fill="none" stroke="#000000" stroke-width="4.46" stroke-linecap="square" stroke-linejoin="bevel" points="1950.3,2097.01 1950.3,2130.5 2170.12,2130.5"/>
<polyline class="Tuplet" fill="none" stroke="#000000" stroke-width="4.46" stroke-linecap="square" stroke-linejoin="bevel" points="2256.77,2130.5 2476.59,2130.5 2476.59,2097.01"/>
<path class="StaffText" d="M2600.42,814.856 L2557.89,814.856 L2556.83,834.59 L2559.89,834.59 C2560.39,831.043 2560.95,828.356 2561.8,826.075 C2563.66,820.825 2567.06,818.2 2571.89,818.2 C2574.23,818.2 2575.22,818.981 2575.22,820.747 L2575.22,857.387 C2575.22,861.012 2575.22,861.153 2574.8,861.793 C2574.23,862.497 2572.87,862.778 2568.83,862.778 L2566.98,862.778 L2566.98,866.122 L2591.34,866.122 L2591.34,862.778 L2589.5,862.778 C2585.52,862.778 2584.17,862.497 2583.59,861.793 C2583.17,861.153 2583.17,861.012 2583.17,857.387 L2583.17,820.747 C2583.17,818.981 2584.17,818.2 2586.52,818.2 C2590.84,818.2 2594.33,820.606 2596.09,824.872 C2597.16,827.497 2597.87,830.543 2598.44,834.59 L2601.48,834.59 L2600.42,814.856 M2621.44,841.278 L2625.55,841.278 C2632.72,841.559 2635.56,844.465 2636.34,852.278 L2636.7,855.903 C2637.55,863.918 2640.17,867.184 2645.78,867.184 C2651.61,867.184 2654.37,863.278 2654.59,854.762 L2651.61,854.762 C2651.33,859.668 2650.47,861.793 2648.56,861.793 C2646.92,861.793 2646.22,860.59 2645,855.684 L2643.87,851.215 C2642.31,844.684 2639.55,841.7 2634,840.278 C2644.22,838.856 2649.12,834.747 2649.12,827.575 C2649.12,819.481 2642.31,814.856 2630.37,814.856 L2605.81,814.856 L2605.81,818.2 L2607.09,818.2 C2611.14,818.262 2612.48,818.481 2613.06,819.184 C2613.48,819.825 2613.48,819.965 2613.48,823.59 L2613.48,857.465 C2613.48,861.012 2613.48,861.153 2613.06,861.856 C2612.48,862.575 2611.14,862.778 2607.09,862.778 L2605.81,862.778 L2605.81,866.122 L2629.11,866.122 L2629.11,862.778 L2627.83,862.778 C2623.78,862.778 2622.42,862.575 2621.86,861.856 C2621.44,861.153 2621.44,861.012 2621.44,857.465 L2621.44,841.278 M2621.44,837.934 L2621.44,822.309 C2621.3,818.403 2621.64,818.122 2626.33,818.2 L2630.17,818.2 C2637.2,818.2 2640.39,821.184 2640.39,827.637 C2640.39,831.262 2639.47,834.028 2637.62,835.528 C2635.84,837.012 2632.66,837.934 2629.25,837.934 L2621.44,837.934 M2684.55,813.872 L2681.56,813.872 L2665.23,855.262 C2663.31,860.793 2661.47,862.497 2657.42,862.778 L2657.14,862.778 L2657.14,866.122 L2675.95,866.122 L2675.95,862.778 L2674.53,862.778 C2670.7,862.778 2668.78,861.434 2668.78,858.731 C2668.78,857.809 2668.98,856.965 2669.42,855.762 L2671.77,849.512 L2690.58,849.512 L2694.41,859.028 C2694.83,860.153 2694.98,860.59 2694.98,860.934 C2694.98,862.075 2693.2,862.778 2690.58,862.778 L2687.59,862.778 L2687.59,866.122 L2709.61,866.122 L2709.61,862.778 L2708.61,862.778 C2704.92,862.715 2704.28,862.293 2702.64,858.247 L2684.55,813.872 M2681.06,825.512 L2689.08,845.668 L2673.19,845.668 L2681.06,825.512 M2749.28,814.434 L2746.66,814.434 L2743.81,818.7 C2740.41,815.497 2735.94,813.793 2730.89,813.793 C2721.52,813.793 2715.34,819.684 2715.34,828.637 C2715.34,836.372 2719.17,840.2 2729.61,842.903 L2736.36,844.606 C2741.61,845.965 2742.11,846.106 2743.59,847.231 C2745.73,848.872 2746.87,851.215 2746.87,853.981 C2746.87,856.825 2745.8,859.168 2743.67,861.153 C2741.33,863.137 2738.98,863.918 2735.08,863.918 C2729.83,863.918 2726.06,862.293 2722.73,858.59 C2719.75,855.325 2718.25,851.918 2717.19,846.45 L2714.14,846.45 L2714.42,866.684 L2717.19,866.684 L2720.39,861.856 C2725.14,865.762 2729.05,867.184 2735.3,867.184 C2745.73,867.184 2752.41,861.075 2752.41,851.559 C2752.41,847.09 2750.98,843.403 2748.14,840.7 C2746.23,838.856 2743.45,837.653 2737.78,836.231 L2730.19,834.309 C2723.86,832.684 2720.87,829.918 2720.87,825.575 C2720.87,820.606 2724.92,817.2 2730.97,817.2 C2735.94,817.2 2739.98,819.34 2742.81,823.387 C2744.87,826.293 2746.23,829.278 2747.08,832.887 L2750.14,832.887 L2749.28,814.434 M2821.12,814.356 L2818.42,814.356 L2815.66,818.622 C2811.03,814.997 2807.91,813.793 2802.73,813.793 C2797.12,813.793 2792.72,815.356 2788.25,818.981 C2781.22,824.653 2777.95,831.825 2777.95,841.418 C2777.95,848.653 2780.02,854.684 2784.2,859.309 C2788.59,864.278 2795.12,867.184 2801.95,867.184 C2807.91,867.184 2812.09,865.34 2816.72,860.731 L2819.34,867.122 L2822.33,867.122 L2822.33,851.497 C2822.33,847.872 2822.33,847.731 2822.75,847.09 C2823.39,846.309 2824.67,846.106 2828.72,846.106 L2829.78,846.106 L2829.78,842.762 L2807.2,842.762 L2807.2,846.106 L2808.55,846.106 C2814.52,846.106 2815.02,846.45 2815.02,850.434 C2815.02,853.481 2814.52,856.247 2813.59,857.95 C2811.81,861.434 2807.27,863.856 2802.66,863.856 C2798.05,863.856 2793.5,861.512 2791.08,857.95 C2788.45,853.981 2787.33,849.012 2787.33,841.418 C2787.33,825.575 2792.58,817.137 2802.45,817.137 C2810.55,817.137 2816.14,822.95 2819.06,834.309 L2822.11,834.309 L2821.12,814.356 M2858.11,813.793 C2851.78,813.793 2846.39,815.778 2842.06,819.762 C2836.59,824.793 2833.39,832.465 2833.39,840.559 C2833.39,848.512 2836.66,856.247 2842.06,861.215 C2846.31,865.122 2851.72,867.184 2857.83,867.184 C2871.73,867.184 2882.25,855.684 2882.25,840.497 C2882.25,825.434 2871.73,813.793 2858.11,813.793 M2858.03,817.137 C2862.8,817.137 2866.77,819.34 2869.33,823.231 C2871.95,827.434 2872.87,831.762 2872.87,840.497 C2872.87,849.153 2871.95,853.481 2869.33,857.747 C2866.77,861.715 2862.86,863.856 2857.83,863.856 C2852.78,863.856 2848.87,861.793 2846.31,857.747 C2843.62,853.481 2842.77,849.153 2842.77,840.356 C2842.77,831.762 2843.69,827.497 2846.31,823.231 C2848.95,819.122 2852.7,817.137 2858.03,817.137 M2902.91,841.278 L2907.02,841.278 C2914.19,841.559 2917.03,844.465 2917.81,852.278 L2918.17,855.903 C2919.02,863.918 2921.64,867.184 2927.25,867.184 C2933.08,867.184 2935.84,863.278 2936.06,854.762 L2933.08,854.762 C2932.8,859.668 2931.94,861.793 2930.03,861.793 C2928.39,861.793 2927.69,860.59 2926.47,855.684 L2925.34,851.215 C2923.78,844.684 2921.02,841.7 2915.47,840.278 C2925.69,838.856 2930.59,834.747 2930.59,827.575 C2930.59,819.481 2923.78,814.856 2911.84,814.856 L2887.28,814.856 L2887.28,818.2 L2888.56,818.2 C2892.61,818.262 2893.95,818.481 2894.53,819.184 C2894.95,819.825 2894.95,819.965 2894.95,823.59 L2894.95,857.465 C2894.95,861.012 2894.95,861.153 2894.53,861.856 C2893.95,862.575 2892.61,862.778 2888.56,862.778 L2887.28,862.778 L2887.28,866.122 L2910.58,866.122 L2910.58,862.778 L2909.3,862.778 C2905.25,862.778 2903.89,862.575 2903.33,861.856 C2902.91,861.153 2902.91,861.012 2902.91,857.465 L2902.91,841.278 M2902.91,837.934 L2902.91,822.309 C2902.77,818.403 2903.11,818.122 2907.8,818.2 L2911.64,818.2 C2918.67,818.2 2921.86,821.184 2921.86,827.637 C2921.86,831.262 2920.94,834.028 2919.09,835.528 C2917.31,837.012 2914.12,837.934 2910.72,837.934 L2902.91,837.934 M2964.17,813.793 C2957.84,813.793 2952.45,815.778 2948.12,819.762 C2942.66,824.793 2939.45,832.465 2939.45,840.559 C2939.45,848.512 2942.72,856.247 2948.12,861.215 C2952.37,865.122 2957.78,867.184 2963.89,867.184 C2977.8,867.184 2988.31,855.684 2988.31,840.497 C2988.31,825.434 2977.8,813.793 2964.17,813.793 M2964.09,817.137 C2968.86,817.137 2972.83,819.34 2975.39,823.231 C2978.02,827.434 2978.94,831.762 2978.94,840.497 C2978.94,849.153 2978.02,853.481 2975.39,857.747 C2972.83,861.715 2968.92,863.856 2963.89,863.856 C2958.84,863.856 2954.94,861.793 2952.37,857.747 C2949.69,853.481 2948.83,849.153 2948.83,840.356 C2948.83,831.762 2949.75,827.497 2952.37,823.231 C2955.02,819.122 2958.77,817.137 2964.09,817.137"/>
<path class="StaffText" d="M2573.09,928.325 L2581.11,928.325 C2587.5,928.325 2590.84,927.84 2593.75,926.481 C2598.72,924.075 2601.56,919.528 2601.56,913.918 C2601.56,908.528 2599.08,904.403 2594.39,902.059 C2591.62,900.637 2587.22,899.856 2582.33,899.856 L2557.47,899.856 L2557.47,903.2 L2558.75,903.2 C2562.8,903.262 2564.14,903.481 2564.72,904.184 C2565.14,904.825 2565.14,904.965 2565.14,908.59 L2565.14,942.387 C2565.14,946.012 2565.14,946.153 2564.72,946.793 C2564.14,947.497 2562.8,947.778 2558.75,947.778 L2557.47,947.778 L2557.47,951.122 L2581.33,951.122 L2581.33,947.778 L2579.48,947.778 C2575.44,947.778 2574.09,947.497 2573.52,946.793 C2573.09,946.153 2573.09,946.012 2573.09,942.387 L2573.09,928.325 M2573.09,924.997 L2573.09,906.825 C2573.09,903.559 2573.45,903.2 2577.42,903.2 L2581.97,903.2 C2589.34,903.2 2592.83,906.668 2592.83,914.2 C2592.83,921.512 2589.2,924.997 2581.69,924.997 L2573.09,924.997 M2619.73,926.278 L2623.84,926.278 C2631.02,926.559 2633.86,929.465 2634.64,937.278 L2635,940.903 C2635.84,948.918 2638.47,952.184 2644.08,952.184 C2649.91,952.184 2652.67,948.278 2652.89,939.762 L2649.91,939.762 C2649.62,944.668 2648.77,946.793 2646.86,946.793 C2645.22,946.793 2644.52,945.59 2643.3,940.684 L2642.17,936.215 C2640.61,929.684 2637.84,926.7 2632.3,925.278 C2642.52,923.856 2647.42,919.747 2647.42,912.575 C2647.42,904.481 2640.61,899.856 2628.67,899.856 L2604.11,899.856 L2604.11,903.2 L2605.39,903.2 C2609.44,903.262 2610.78,903.481 2611.36,904.184 C2611.78,904.825 2611.78,904.965 2611.78,908.59 L2611.78,942.465 C2611.78,946.012 2611.78,946.153 2611.36,946.856 C2610.78,947.575 2609.44,947.778 2605.39,947.778 L2604.11,947.778 L2604.11,951.122 L2627.41,951.122 L2627.41,947.778 L2626.12,947.778 C2622.08,947.778 2620.72,947.575 2620.16,946.856 C2619.73,946.153 2619.73,946.012 2619.73,942.465 L2619.73,926.278 M2619.73,922.934 L2619.73,907.309 C2619.59,903.403 2619.94,903.122 2624.62,903.2 L2628.47,903.2 C2635.5,903.2 2638.69,906.184 2638.69,912.637 C2638.69,916.262 2637.77,919.028 2635.92,920.528 C2634.14,922.012 2630.95,922.934 2627.55,922.934 L2619.73,922.934 M2682.84,898.872 L2679.86,898.872 L2663.53,940.262 C2661.61,945.793 2659.77,947.497 2655.72,947.778 L2655.44,947.778 L2655.44,951.122 L2674.25,951.122 L2674.25,947.778 L2672.83,947.778 C2669,947.778 2667.08,946.434 2667.08,943.731 C2667.08,942.809 2667.28,941.965 2667.72,940.762 L2670.06,934.512 L2688.87,934.512 L2692.7,944.028 C2693.12,945.153 2693.28,945.59 2693.28,945.934 C2693.28,947.075 2691.5,947.778 2688.87,947.778 L2685.89,947.778 L2685.89,951.122 L2707.91,951.122 L2707.91,947.778 L2706.91,947.778 C2703.22,947.715 2702.58,947.293 2700.94,943.247 L2682.84,898.872 M2679.36,910.512 L2687.37,930.668 L2671.48,930.668 L2679.36,910.512 M2773.14,899.356 L2770.44,899.356 L2767.67,903.622 C2763.05,899.997 2759.92,898.793 2754.75,898.793 C2749.14,898.793 2744.73,900.356 2740.27,903.981 C2733.23,909.653 2729.97,916.825 2729.97,926.418 C2729.97,933.653 2732.03,939.684 2736.22,944.309 C2740.61,949.278 2747.14,952.184 2753.97,952.184 C2759.92,952.184 2764.11,950.34 2768.73,945.731 L2771.36,952.122 L2774.34,952.122 L2774.34,936.497 C2774.34,932.872 2774.34,932.731 2774.77,932.09 C2775.41,931.309 2776.69,931.106 2780.73,931.106 L2781.8,931.106 L2781.8,927.762 L2759.22,927.762 L2759.22,931.106 L2760.56,931.106 C2766.53,931.106 2767.03,931.45 2767.03,935.434 C2767.03,938.481 2766.53,941.247 2765.61,942.95 C2763.83,946.434 2759.28,948.856 2754.67,948.856 C2750.06,948.856 2745.52,946.512 2743.09,942.95 C2740.47,938.981 2739.34,934.012 2739.34,926.418 C2739.34,910.575 2744.59,902.137 2754.47,902.137 C2762.56,902.137 2768.16,907.95 2771.08,919.309 L2774.12,919.309 L2773.14,899.356 M2826.95,899.856 L2784.28,899.856 L2784.28,903.2 L2785.56,903.2 C2789.61,903.262 2790.95,903.481 2791.52,904.184 C2791.95,904.825 2791.95,904.965 2791.95,908.59 L2791.95,942.387 C2791.95,946.012 2791.95,946.153 2791.52,946.793 C2790.95,947.497 2789.61,947.778 2785.56,947.778 L2784.28,947.778 L2784.28,951.122 L2827.87,951.122 L2829.3,932.168 L2826.17,932.168 C2823.47,944.809 2820.56,947.497 2809.7,947.778 L2805.02,947.778 C2800.75,947.637 2799.69,946.934 2799.89,944.372 L2799.89,926.278 L2801.31,926.278 C2808.62,925.981 2811.25,928.622 2811.55,936.497 L2814.87,936.497 L2814.87,913.215 L2811.55,913.215 C2811.11,920.168 2808.34,922.934 2801.59,922.934 L2799.89,922.934 L2799.89,906.747 C2799.83,903.762 2800.53,903.262 2804.37,903.2 L2808.06,903.2 C2819.7,903.122 2822.62,905.684 2824.89,917.965 L2827.94,917.965 L2826.95,899.856 M2849.44,899.856 L2834.81,899.856 L2834.81,903.2 L2836.59,903.2 C2840.64,903.34 2841.98,903.84 2843.12,905.543 L2843.12,935.715 C2843.12,945.372 2841.78,947.434 2834.89,947.778 L2834.89,951.122 L2855.12,951.122 L2855.12,947.778 C2848.31,947.434 2846.95,945.372 2846.95,935.715 L2846.95,909.372 L2878.62,952.122 L2881.61,952.122 L2881.61,915.262 C2881.61,905.606 2882.95,903.559 2889.84,903.2 L2889.84,899.856 L2869.61,899.856 L2869.61,903.2 C2876.42,903.559 2877.77,905.543 2877.77,915.262 L2877.77,937.559 L2849.44,899.856 M2937.55,899.856 L2895.02,899.856 L2893.95,919.59 L2897.02,919.59 C2897.52,916.043 2898.08,913.356 2898.92,911.075 C2900.78,905.825 2904.19,903.2 2909.02,903.2 C2911.36,903.2 2912.34,903.981 2912.34,905.747 L2912.34,942.387 C2912.34,946.012 2912.34,946.153 2911.92,946.793 C2911.36,947.497 2910,947.778 2905.95,947.778 L2904.11,947.778 L2904.11,951.122 L2928.47,951.122 L2928.47,947.778 L2926.62,947.778 C2922.64,947.778 2921.3,947.497 2920.72,946.793 C2920.3,946.153 2920.3,946.012 2920.3,942.387 L2920.3,905.747 C2920.3,903.981 2921.3,903.2 2923.64,903.2 C2927.97,903.2 2931.45,905.606 2933.22,909.872 C2934.28,912.497 2935,915.543 2935.56,919.59 L2938.61,919.59 L2937.55,899.856 M2985.69,899.856 L2943.02,899.856 L2943.02,903.2 L2944.3,903.2 C2948.34,903.262 2949.69,903.481 2950.25,904.184 C2950.69,904.825 2950.69,904.965 2950.69,908.59 L2950.69,942.387 C2950.69,946.012 2950.69,946.153 2950.25,946.793 C2949.69,947.497 2948.34,947.778 2944.3,947.778 L2943.02,947.778 L2943.02,951.122 L2986.61,951.122 L2988.03,932.168 L2984.91,932.168 C2982.2,944.809 2979.3,947.497 2968.44,947.778 L2963.75,947.778 C2959.48,947.637 2958.42,946.934 2958.62,944.372 L2958.62,926.278 L2960.05,926.278 C2967.36,925.981 2969.98,928.622 2970.28,936.497 L2973.61,936.497 L2973.61,913.215 L2970.28,913.215 C2969.84,920.168 2967.08,922.934 2960.33,922.934 L2958.62,922.934 L2958.62,906.747 C2958.56,903.762 2959.27,903.262 2963.11,903.2 L2966.8,903.2 C2978.44,903.122 2981.36,905.684 2983.62,917.965 L2986.67,917.965 L2985.69,899.856 "/>
<path class="NoteDot" transform="matrix(1.78583,0,0,1.78583,1948.59,450.354)" d="M0,0 C0,2.76563 2.23438,5 5,5 C7.76563,5 10,2.76563 10,0 C10,-2.76563 7.76563,-5 5,-5 C2.23438,-5 0,-2.76563 0,0"/>
<path class="NoteDot" transform="matrix(1.78583,0,0,1.78583,3436.38,1924.91)" d="M0,0 C0,2.76563 2.23438,5 5,5 C7.76563,5 10,2.76563 10,0 C10,-2.76563 7.76563,-5 5,-5 C2.23438,-5 0,-2.76563 0,0"/>
</svg>
