<?xml version="1.0" encoding="UTF-8" standalone="no"?>
<svg width="4208.47px" height="2409.45px" viewBox="0 0 4208.47 2409.45"
 xmlns="http://www.w3.org/2000/svg" xmlns:xlink="http://www.w3.org/1999/xlink" version="1.2" baseProfile="tiny">
<title>PETE PIRATA (2)</title>
<desc>Generated by MuseScore 3.6.2</desc>
<polyline class="StaffLines" fill="none" stroke="#000000" stroke-width="3.85" stroke-linejoin="bevel" points="70.866,342.777 4137.61,342.777"/>
<polyline class="StaffLines" fill="none" stroke="#000000" stroke-width="3.85" stroke-linejoin="bevel" points="70.866,377.777 4137.61,377.777"/>
<polyline class="StaffLines" fill="none" stroke="#000000" stroke-width="3.85" stroke-linejoin="bevel" points="70.866,412.777 4137.61,412.777"/>
<polyline class="StaffLines" fill="none" stroke="#000000" stroke-width="3.85" stroke-linejoin="bevel" points="70.866,447.777 4137.61,447.777"/>
<polyline class="StaffLines" fill="none" stroke="#000000" stroke-width="3.85" stroke-linejoin="bevel" points="70.866,482.777 4137.61,482.777"/>
<path class="MeasureNumber" d="M90.2566,264.496 L89.2254,266.34 C87.616,269.105 87.3035,269.34 85.2566,269.371 L75.991,269.371 C76.9441,268.105 78.7097,266.621 81.8972,264.371 C87.1785,260.746 87.5379,260.496 88.6629,259.621 C91.866,257.137 93.1785,254.777 93.1785,251.621 C93.1785,247.418 90.0691,244.621 85.4597,244.621 C80.3504,244.621 75.9129,248.387 75.9129,252.746 C75.9129,254.98 77.1004,256.418 79.0222,256.418 C80.4597,256.418 81.5847,255.34 81.5847,253.855 C81.5847,252.824 81.0691,252.137 79.741,251.418 C78.7879,250.934 78.6316,250.746 78.6316,250.262 C78.6316,248.543 81.5847,246.621 84.3035,246.621 C87.1004,246.621 88.991,248.496 88.991,251.309 C88.991,254.293 87.6629,256.496 84.0691,259.621 C73.4285,268.855 71.8191,270.543 71.4597,272.777 L88.616,272.777 L91.7097,265.059 L90.2566,264.496 M109.132,244.621 C106.491,244.621 104.022,245.824 101.819,248.137 C98.5066,251.746 96.2566,257.902 96.2566,263.496 C96.2566,269.293 99.1472,273.371 103.225,273.371 C110.053,273.371 116.178,264.496 116.178,254.574 C116.178,248.621 113.335,244.621 109.132,244.621 M109.1,246.215 C111.178,246.215 112.303,248.059 112.303,251.496 C112.303,255.418 111.303,260.496 109.663,264.621 C107.741,269.621 105.819,271.777 103.413,271.777 C101.257,271.777 100.053,269.855 100.053,266.465 C100.053,261.262 101.897,254.293 104.46,249.668 C105.694,247.418 107.303,246.215 109.1,246.215"/>
<path class="TieSegment" stroke="#000000" stroke-width="2.45" stroke-linecap="round" stroke-linejoin="round" fill-rule="evenodd" d="M957.411,369.027 C998.919,332.582 1123.44,332.582 1164.95,369.027 C1123.44,342.382 998.919,342.382 957.411,369.027"/>
<path class="TieSegment" stroke="#000000" stroke-width="2.45" stroke-linecap="round" stroke-linejoin="round" fill-rule="evenodd" d="M1609.82,404.027 C1649.35,369.085 1767.94,369.085 1807.47,404.027 C1767.94,378.885 1649.35,378.885 1609.82,404.027"/>
<polyline class="BarLine" stroke="#000000" stroke-width="6.30" stroke-linejoin="bevel" points="1084.63,340.852 1084.63,484.702"/>
<polyline class="BarLine" stroke="#000000" stroke-width="6.30" stroke-linejoin="bevel" points="1727.15,340.852 1727.15,484.702"/>
<path class="BarLine" transform="matrix(1.4,0,0,1.4,2216.39,395.277)" d="M10.4063,0 C10.4063,-2.90625 8.09375,-5.29688 5.20313,-5.29688 C2.29688,-5.29688 0,-2.90625 0,0 C0,2.90625 2.29688,5.29688 5.20313,5.29688 C8.09375,5.29688 10.4063,2.90625 10.4063,0"/>
<path class="BarLine" transform="matrix(1.4,0,0,1.4,2216.39,430.277)" d="M10.4063,0 C10.4063,-2.90625 8.09375,-5.29688 5.20313,-5.29688 C2.29688,-5.29688 0,-2.90625 0,0 C0,2.90625 2.29688,5.29688 5.20313,5.29688 C8.09375,5.29688 10.4063,2.90625 10.4063,0"/>
<polyline class="BarLine" stroke="#000000" stroke-width="6.30" stroke-linejoin="bevel" points="2248.17,340.852 2248.17,484.702"/>
<polyline class="BarLine" stroke="#000000" stroke-width="19.25" stroke-linejoin="bevel" points="2272.67,340.852 2272.67,484.702"/>
<polyline class="BarLine" stroke="#000000" stroke-width="6.30" stroke-linejoin="bevel" points="2769.46,340.852 2769.46,484.702"/>
<polyline class="BarLine" stroke="#000000" stroke-width="6.30" stroke-linejoin="bevel" points="3199.04,340.852 3199.04,484.702"/>
<path class="BarLine" transform="matrix(1.4,0,0,1.4,3613.23,395.277)" d="M10.4063,0 C10.4063,-2.90625 8.09375,-5.29688 5.20313,-5.29688 C2.29688,-5.29688 0,-2.90625 0,0 C0,2.90625 2.29688,5.29688 5.20313,5.29688 C8.09375,5.29688 10.4063,2.90625 10.4063,0"/>
<path class="BarLine" transform="matrix(1.4,0,0,1.4,3613.23,430.277)" d="M10.4063,0 C10.4063,-2.90625 8.09375,-5.29688 5.20313,-5.29688 C2.29688,-5.29688 0,-2.90625 0,0 C0,2.90625 2.29688,5.29688 5.20313,5.29688 C8.09375,5.29688 10.4063,2.90625 10.4063,0"/>
<polyline class="BarLine" stroke="#000000" stroke-width="6.30" stroke-linejoin="bevel" points="3645,340.852 3645,484.702"/>
<polyline class="BarLine" stroke="#000000" stroke-width="19.25" stroke-linejoin="bevel" points="3669.5,340.852 3669.5,484.702"/>
<polyline class="BarLine" stroke="#000000" stroke-width="6.30" stroke-linejoin="bevel" points="4103.48,340.852 4103.48,484.702"/>
<polyline class="BarLine" stroke="#000000" stroke-width="19.25" stroke-linejoin="bevel" points="4127.98,340.852 4127.98,484.702"/>
<path class="Accidental" transform="matrix(1.4,0,0,1.4,395.851,465.277)" d="M16.5938,-18.2969 C16.4063,-18.5 16.0938,-18.5938 15.7969,-18.5938 C15.7031,-18.5938 15.5,-18.5 15.4063,-18.5 L2.79688,-15 L2.79688,-32.5 L0,-32.5 L0,17 C0,17.7969 0.59375,18.2969 1.40625,18.2969 L1.79688,18.2969 L14.4063,14.7969 L14.4063,32.2969 L17.0938,32.2969 L17.0938,-17.2031 C17.0938,-17.5938 16.9063,-18.0938 16.5938,-18.2969 M14.4063,6.5 L2.79688,9.70313 L2.79688,-6.70313 L14.4063,-10 L14.4063,6.5 "/>
<polyline class="LedgerLine" stroke="#000000" stroke-width="5.60" stroke-linejoin="bevel" points="2833.86,517.777 2903.85,517.777"/>
<polyline class="LedgerLine" stroke="#000000" stroke-width="5.60" stroke-linejoin="bevel" points="3738.3,517.777 3808.29,517.777"/>
<polyline class="Stem" stroke="#000000" stroke-width="3.85" stroke-linejoin="bevel" points="430.458,469.981 430.458,587.777"/>
<polyline class="Stem" stroke="#000000" stroke-width="3.85" stroke-linejoin="bevel" points="622.5,434.981 622.5,552.777"/>
<polyline class="Stem" stroke="#000000" stroke-width="3.85" stroke-linejoin="bevel" points="776.134,382.481 776.134,482.777"/>
<polyline class="Stem" stroke="#000000" stroke-width="3.85" stroke-linejoin="bevel" points="929.768,399.981 929.768,491.527"/>
<polyline class="Stem" stroke="#000000" stroke-width="3.85" stroke-linejoin="bevel" points="1150.95,399.981 1150.95,561.527"/>
<polyline class="Stem" stroke="#000000" stroke-width="3.85" stroke-linejoin="bevel" points="1294.69,417.481 1294.69,561.527"/>
<polyline class="Stem" stroke="#000000" stroke-width="3.85" stroke-linejoin="bevel" points="1438.44,469.981 1438.44,561.527"/>
<polyline class="Stem" stroke="#000000" stroke-width="3.85" stroke-linejoin="bevel" points="1582.18,434.981 1582.18,561.527"/>
<polyline class="Stem" stroke="#000000" stroke-width="3.85" stroke-linejoin="bevel" points="1793.47,434.981 1793.47,535.277"/>
<polyline class="Stem" stroke="#000000" stroke-width="3.85" stroke-linejoin="bevel" points="2343.39,469.981 2343.39,561.527"/>
<polyline class="Stem" stroke="#000000" stroke-width="3.85" stroke-linejoin="bevel" points="2555.81,469.981 2555.81,561.527"/>
<polyline class="Stem" stroke="#000000" stroke-width="3.85" stroke-linejoin="bevel" points="2848.04,539.981 2848.04,614.027"/>
<polyline class="Stem" stroke="#000000" stroke-width="3.85" stroke-linejoin="bevel" points="3752.47,539.981 3752.47,614.027"/>
<path class="Note" transform="matrix(1.4,0,0,1.4,428.533,465.277)" d="M31.5,-8.09375 C29.7031,-11.4063 25.9063,-13.2031 21.2969,-13.2031 C17.9063,-13.2031 14.2031,-12.2031 10.5938,-10.2969 C4,-6.79688 0,-0.90625 0,4.20313 C0,5.59375 0.296875,7 1,8.29688 C2.79688,11.5938 6.59375,13.2969 11.2031,13.2969 C14.5938,13.2969 18.2969,12.4063 21.9063,10.5 C28.5,7 32.5,1.09375 32.5,-4 C32.5,-5.40625 32.2031,-6.79688 31.5,-8.09375"/>
<path class="Note" transform="matrix(1.4,0,0,1.4,620.575,430.277)" d="M31.5,-8.09375 C29.7031,-11.4063 25.9063,-13.2031 21.2969,-13.2031 C17.9063,-13.2031 14.2031,-12.2031 10.5938,-10.2969 C4,-6.79688 0,-0.90625 0,4.20313 C0,5.59375 0.296875,7 1,8.29688 C2.79688,11.5938 6.59375,13.2969 11.2031,13.2969 C14.5938,13.2969 18.2969,12.4063 21.9063,10.5 C28.5,7 32.5,1.09375 32.5,-4 C32.5,-5.40625 32.2031,-6.79688 31.5,-8.09375"/>
<path class="Note" transform="matrix(1.4,0,0,1.4,774.209,377.777)" d="M31.5,-8.09375 C29.7031,-11.4063 25.9063,-13.2031 21.2969,-13.2031 C17.9063,-13.2031 14.2031,-12.2031 10.5938,-10.2969 C4,-6.79688 0,-0.90625 0,4.20313 C0,5.59375 0.296875,7 1,8.29688 C2.79688,11.5938 6.59375,13.2969 11.2031,13.2969 C14.5938,13.2969 18.2969,12.4063 21.9063,10.5 C28.5,7 32.5,1.09375 32.5,-4 C32.5,-5.40625 32.2031,-6.79688 31.5,-8.09375"/>
<path class="Note" transform="matrix(1.4,0,0,1.4,927.843,395.277)" d="M31.5,-8.09375 C29.7031,-11.4063 25.9063,-13.2031 21.2969,-13.2031 C17.9063,-13.2031 14.2031,-12.2031 10.5938,-10.2969 C4,-6.79688 0,-0.90625 0,4.20313 C0,5.59375 0.296875,7 1,8.29688 C2.79688,11.5938 6.59375,13.2969 11.2031,13.2969 C14.5938,13.2969 18.2969,12.4063 21.9063,10.5 C28.5,7 32.5,1.09375 32.5,-4 C32.5,-5.40625 32.2031,-6.79688 31.5,-8.09375"/>
<path class="Note" transform="matrix(1.4,0,0,1.4,1149.03,395.277)" d="M31.5,-8.09375 C29.7031,-11.4063 25.9063,-13.2031 21.2969,-13.2031 C17.9063,-13.2031 14.2031,-12.2031 10.5938,-10.2969 C4,-6.79688 0,-0.90625 0,4.20313 C0,5.59375 0.296875,7 1,8.29688 C2.79688,11.5938 6.59375,13.2969 11.2031,13.2969 C14.5938,13.2969 18.2969,12.4063 21.9063,10.5 C28.5,7 32.5,1.09375 32.5,-4 C32.5,-5.40625 32.2031,-6.79688 31.5,-8.09375"/>
<path class="Note" transform="matrix(1.4,0,0,1.4,1292.77,412.777)" d="M31.5,-8.09375 C29.7031,-11.4063 25.9063,-13.2031 21.2969,-13.2031 C17.9063,-13.2031 14.2031,-12.2031 10.5938,-10.2969 C4,-6.79688 0,-0.90625 0,4.20313 C0,5.59375 0.296875,7 1,8.29688 C2.79688,11.5938 6.59375,13.2969 11.2031,13.2969 C14.5938,13.2969 18.2969,12.4063 21.9063,10.5 C28.5,7 32.5,1.09375 32.5,-4 C32.5,-5.40625 32.2031,-6.79688 31.5,-8.09375"/>
<path class="Note" transform="matrix(1.4,0,0,1.4,1436.51,465.277)" d="M31.5,-8.09375 C29.7031,-11.4063 25.9063,-13.2031 21.2969,-13.2031 C17.9063,-13.2031 14.2031,-12.2031 10.5938,-10.2969 C4,-6.79688 0,-0.90625 0,4.20313 C0,5.59375 0.296875,7 1,8.29688 C2.79688,11.5938 6.59375,13.2969 11.2031,13.2969 C14.5938,13.2969 18.2969,12.4063 21.9063,10.5 C28.5,7 32.5,1.09375 32.5,-4 C32.5,-5.40625 32.2031,-6.79688 31.5,-8.09375"/>
<path class="Note" transform="matrix(1.4,0,0,1.4,1580.26,430.277)" d="M31.5,-8.09375 C29.7031,-11.4063 25.9063,-13.2031 21.2969,-13.2031 C17.9063,-13.2031 14.2031,-12.2031 10.5938,-10.2969 C4,-6.79688 0,-0.90625 0,4.20313 C0,5.59375 0.296875,7 1,8.29688 C2.79688,11.5938 6.59375,13.2969 11.2031,13.2969 C14.5938,13.2969 18.2969,12.4063 21.9063,10.5 C28.5,7 32.5,1.09375 32.5,-4 C32.5,-5.40625 32.2031,-6.79688 31.5,-8.09375"/>
<path class="Note" transform="matrix(1.4,0,0,1.4,1791.55,430.277)" d="M31.5,-8.09375 C29.7031,-11.4063 25.9063,-13.2031 21.2969,-13.2031 C17.9063,-13.2031 14.2031,-12.2031 10.5938,-10.2969 C4,-6.79688 0,-0.90625 0,4.20313 C0,5.59375 0.296875,7 1,8.29688 C2.79688,11.5938 6.59375,13.2969 11.2031,13.2969 C14.5938,13.2969 18.2969,12.4063 21.9063,10.5 C28.5,7 32.5,1.09375 32.5,-4 C32.5,-5.40625 32.2031,-6.79688 31.5,-8.09375"/>
<path class="Note" transform="matrix(1.4,0,0,1.4,2341.47,465.277)" d="M31.5,-8.09375 C29.7031,-11.4063 25.9063,-13.2031 21.2969,-13.2031 C17.9063,-13.2031 14.2031,-12.2031 10.5938,-10.2969 C4,-6.79688 0,-0.90625 0,4.20313 C0,5.59375 0.296875,7 1,8.29688 C2.79688,11.5938 6.59375,13.2969 11.2031,13.2969 C14.5938,13.2969 18.2969,12.4063 21.9063,10.5 C28.5,7 32.5,1.09375 32.5,-4 C32.5,-5.40625 32.2031,-6.79688 31.5,-8.09375"/>
<path class="Note" transform="matrix(1.4,0,0,1.4,2553.89,465.277)" d="M31.5,-8.09375 C29.7031,-11.4063 25.9063,-13.2031 21.2969,-13.2031 C17.9063,-13.2031 14.2031,-12.2031 10.5938,-10.2969 C4,-6.79688 0,-0.90625 0,4.20313 C0,5.59375 0.296875,7 1,8.29688 C2.79688,11.5938 6.59375,13.2969 11.2031,13.2969 C14.5938,13.2969 18.2969,12.4063 21.9063,10.5 C28.5,7 32.5,1.09375 32.5,-4 C32.5,-5.40625 32.2031,-6.79688 31.5,-8.09375"/>
<path class="Note" transform="matrix(1.4,0,0,1.4,2846.11,535.277)" d="M31.5,-8.14063 C29.7031,-11.4375 25.9063,-13.2344 21.2969,-13.2344 C17.9063,-13.2344 14.2031,-12.2344 10.5938,-10.3438 C4,-6.84375 0,-0.9375 0,4.15625 C0,5.5625 0.296875,6.96875 1,8.26563 C2.79688,11.5781 6.59375,13.2813 11.2031,13.2813 C14.5938,13.2813 18.2969,12.375 21.9063,10.4844 C28.5,6.96875 32.5,1.0625 32.5,-4.04688 C32.5,-5.4375 32.2031,-6.84375 31.5,-8.14063 M27.2031,-1.34375 C25.5,0.359375 22.0938,2.45313 18.5,4.46875 C14.9063,6.46875 11.2969,7.96875 8.90625,8.46875 C8.40625,8.57813 7.90625,8.67188 7.40625,8.67188 C5.79688,8.67188 4.59375,8.07813 3.90625,6.76563 C3.59375,6.26563 3.40625,5.67188 3.40625,5.0625 C3.40625,3.96875 4.09375,2.65625 5.20313,1.5625 C6.90625,-0.140625 10.2031,-2.23438 13.7969,-4.23438 C17.4063,-6.23438 21,-7.73438 23.4063,-8.23438 C23.9063,-8.34375 24.4063,-8.4375 24.9063,-8.4375 C26.5,-8.4375 27.7969,-7.84375 28.5,-6.54688 C28.7969,-6.04688 28.9063,-5.4375 28.9063,-4.84375 C28.9063,-3.73438 28.2969,-2.54688 27.2031,-1.34375"/>
<path class="Note" transform="matrix(1.4,0,0,1.4,3750.55,535.277)" d="M31.5,-8.14063 C29.7031,-11.4375 25.9063,-13.2344 21.2969,-13.2344 C17.9063,-13.2344 14.2031,-12.2344 10.5938,-10.3438 C4,-6.84375 0,-0.9375 0,4.15625 C0,5.5625 0.296875,6.96875 1,8.26563 C2.79688,11.5781 6.59375,13.2813 11.2031,13.2813 C14.5938,13.2813 18.2969,12.375 21.9063,10.4844 C28.5,6.96875 32.5,1.0625 32.5,-4.04688 C32.5,-5.4375 32.2031,-6.84375 31.5,-8.14063 M27.2031,-1.34375 C25.5,0.359375 22.0938,2.45313 18.5,4.46875 C14.9063,6.46875 11.2969,7.96875 8.90625,8.46875 C8.40625,8.57813 7.90625,8.67188 7.40625,8.67188 C5.79688,8.67188 4.59375,8.07813 3.90625,6.76563 C3.59375,6.26563 3.40625,5.67188 3.40625,5.0625 C3.40625,3.96875 4.09375,2.65625 5.20313,1.5625 C6.90625,-0.140625 10.2031,-2.23438 13.7969,-4.23438 C17.4063,-6.23438 21,-7.73438 23.4063,-8.23438 C23.9063,-8.34375 24.4063,-8.4375 24.9063,-8.4375 C26.5,-8.4375 27.7969,-7.84375 28.5,-6.54688 C28.7969,-6.04688 28.9063,-5.4375 28.9063,-4.84375 C28.9063,-3.73438 28.2969,-2.54688 27.2031,-1.34375"/>
<path class="Clef" transform="matrix(1.4,0,0,1.4,98.8659,447.777)" d="M63.3594,-5.92188 C62.125,-11.3438 59.4844,-15.1719 58.7031,-16.2031 C55.5156,-20.4844 51.5,-23.3281 46.8125,-24.6875 C43.7031,-25.5625 40.7031,-25.6875 38.2813,-25.5 C37.2344,-31.5156 36.2344,-37.3906 35.3281,-42.8438 C40.7813,-49.0156 44.4063,-54.8125 46.6875,-59.1094 C50.1563,-65.6875 51.2969,-70.2656 51.3594,-70.4688 C53.0781,-75.6875 53.4375,-83.3906 52.3281,-91.5938 C51.3281,-99.1406 49.2344,-105.859 46.875,-109.109 C45.8594,-110.531 44.7969,-111.266 43.7656,-111.266 C42.5469,-111.266 40.0313,-110.031 37.1406,-107.25 C34.8438,-105.063 31.5781,-101.172 29.0156,-95.1563 C26.0156,-88.0938 25.7969,-78.6094 26.1563,-71.8906 C26.5313,-64.6094 27.6406,-58.9219 27.6563,-58.875 C27.6719,-58.7813 27.9375,-57.2813 28.375,-54.7188 C28.1563,-54.4844 27.9063,-54.2656 27.6563,-54.0156 C26.625,-53.0156 25.4375,-51.8906 24.0469,-50.5 C23.1875,-49.6406 22.2344,-48.7344 21.2344,-47.7656 C12.7969,-39.625 0,-27.2969 0,-8.14063 C0,-3.4375 0.90625,0.984375 2.6875,5 C4.26563,8.59375 6.5625,11.875 9.5,14.75 C17.2344,22.3125 27.8281,25.5156 34.875,25.3594 C37.8281,25.2813 40.4688,25.0469 42.8594,24.5938 C44.6875,34.2031 45.8281,41.2344 45.8594,46.5781 C45.9063,53.0938 44.25,57.0781 40.3594,59.8438 C37.9219,61.5781 35.1094,62.5313 32.0156,62.6719 C29.4219,62.7969 27.1563,62.3281 25.7344,61.9219 L25.7188,61.9219 C25.7188,61.9219 25.4375,61.8281 25.4219,61.6406 C25.4063,61.4531 25.7656,61.4063 25.7656,61.4063 L25.7969,61.4063 C27.7188,60.9688 31.2813,59.7344 33.6406,56.4375 C35.4375,53.9063 36.3125,49.2813 34.4688,45.3438 C33.3594,42.9531 30.8594,40 25.2344,39.5469 C22.7344,39.3438 20.4688,39.8594 18.4688,41.0625 C16.6563,42.1406 15.1563,43.7813 14.1094,45.7813 C11.6563,50.4844 12.1094,56.2188 15.2344,60.0625 C18.2031,63.6875 22.8125,66 28.25,66.5781 C29.1094,66.6719 29.9531,66.7031 30.7969,66.7031 C35.2344,66.7031 39.625,65.5 43.2031,63.2969 C46.8594,60.7188 48.9844,56.7344 49.6563,51.1094 C50.2188,46.4688 49.8281,40.5469 48.4375,32.4688 C48.0781,30.375 47.5313,27.3438 46.875,23.5938 C52.625,21.6719 56.7813,18.0938 60.5469,12.2344 C63.8438,6.5 64.7813,0.390625 63.3594,-5.92188 M29.1406,20.2969 C24.5,19.0781 20.0625,16.5781 16.3125,13.0625 C15,11.8438 13.125,9.67188 11.6563,6.28125 C10.2969,3.10938 9.625,-0.328125 9.6875,-3.90625 C9.75,-8.60938 11.0625,-13.4375 13.5625,-18.2188 C16.4844,-23.7969 21.0469,-29.3281 27.1094,-34.6563 C28.5625,-35.9375 29.9375,-37.2188 31.2188,-38.5 C31.9844,-34.2344 32.8125,-29.5469 33.6875,-24.6719 C29.8438,-23.4063 25.0938,-20.25 21.9844,-14.5938 C18.4375,-8.03125 18.5781,-2.5 19.3125,0.984375 C20.25,5.4375 22.7813,9.20313 26.2344,11.2969 C27.1719,11.8594 31.2969,13.9844 33.1406,13.4063 C33.5156,13.2969 33.7813,13.0625 33.9219,12.7344 C34.4375,11.5625 33.4063,10.9219 31.8594,9.96875 C31.25,9.59375 30.5781,9.17188 29.8594,8.64063 C26.5313,6.15625 25.0781,1.70313 26.1563,-2.6875 C26.7344,-5.07813 28.0156,-7.25 29.8594,-8.95313 C31.5156,-10.5 33.5625,-11.5938 35.9375,-12.2344 C37.9844,-0.984375 40.0469,10.1719 41.6875,18.5313 C41.8125,19.2188 41.9531,19.8906 42.0781,20.5625 C37.7031,21.5 33.3594,21.4063 29.1406,20.2969 M40.4688,-12.9063 C50.8125,-13.375 55.0781,-5.9375 55.9688,-1.10938 C56.4375,1.4375 56.4375,5.875 54.8906,10.0938 C53.7188,13.2656 51.2656,17.3438 46.125,19.4063 C46.0625,18.9844 45.9844,18.5469 45.9063,18.125 C44.3594,9.34375 42.4219,-1.65625 40.4688,-12.9063 M33.1406,-83.8594 C34.9219,-89.5938 37.6563,-92.8438 39.6563,-94.5781 C41.4063,-96.0938 43.0469,-96.8125 43.9688,-96.8125 C44.1094,-96.8125 44.2344,-96.7813 44.3281,-96.75 C44.7969,-96.6094 45.3281,-96.0469 45.7969,-95.1719 C48.1094,-90.8906 47.3594,-84.1719 46.0156,-79.7344 C44.3906,-74.3281 41.4688,-68.7188 32.6719,-59.1094 C32.5,-60.2188 32.3438,-61.2656 32.1875,-62.25 C30.9375,-70.5313 31.2656,-77.8125 33.1406,-83.8594"/>
<path class="KeySig" transform="matrix(1.4,0,0,1.4,258.444,395.277)" d="M23.2969,-10.5938 C23.9063,-10.7031 24.4063,-11.4063 24.4063,-12 L24.4063,-17.9063 C24.4063,-18.7031 23.7969,-19.2969 23,-19.2969 L22.7969,-19.2969 L19.5,-18.5938 L19.5,-33.5 L16.7031,-33.5 L16.7031,-18 L7.79688,-16.2031 L7.79688,-30.2969 L5,-30.2969 L5,-15.5938 L1.09375,-14.7969 C0.5,-14.7031 0,-14 0,-13.4063 L0,-13.2031 L0,-7.40625 L0,-7.59375 C0,-6.79688 0.59375,-6.20313 1.40625,-6.20313 L1.70313,-6.20313 L5,-6.90625 L5,9.59375 L1.09375,10.4063 C0.5,10.5 0,11.2031 0,11.7969 L0,17.5938 C0,18.4063 0.59375,19 1.40625,19 L1.70313,19 L5,18.2969 L5,33.2031 L7.79688,33.2031 L7.79688,17.7031 L16.7031,15.9063 L16.7031,30 L19.5,30 L19.5,15.2969 L23.2969,14.5938 C23.9063,14.5 24.4063,13.7969 24.4063,13.2031 L24.4063,7.29688 C24.4063,6.5 23.7969,5.90625 23,5.90625 L22.7969,5.90625 L19.5,6.59375 L19.5,-9.90625 L23.2969,-10.5938 M7.79688,9.09375 L7.79688,-7.5 L16.7031,-9.29688 L16.7031,7.20313 L7.79688,9.09375 "/>
<path class="KeySig" transform="matrix(1.4,0,0,1.4,223.444,342.777)" d="M23.2969,-10.5938 C23.9063,-10.7031 24.4063,-11.4063 24.4063,-12 L24.4063,-17.9063 C24.4063,-18.7031 23.7969,-19.2969 23,-19.2969 L22.7969,-19.2969 L19.5,-18.5938 L19.5,-33.5 L16.7031,-33.5 L16.7031,-18 L7.79688,-16.2031 L7.79688,-30.2969 L5,-30.2969 L5,-15.5938 L1.09375,-14.7969 C0.5,-14.7031 0,-14 0,-13.4063 L0,-13.2031 L0,-7.40625 L0,-7.59375 C0,-6.79688 0.59375,-6.20313 1.40625,-6.20313 L1.70313,-6.20313 L5,-6.90625 L5,9.59375 L1.09375,10.4063 C0.5,10.5 0,11.2031 0,11.7969 L0,17.5938 C0,18.4063 0.59375,19 1.40625,19 L1.70313,19 L5,18.2969 L5,33.2031 L7.79688,33.2031 L7.79688,17.7031 L16.7031,15.9063 L16.7031,30 L19.5,30 L19.5,15.2969 L23.2969,14.5938 C23.9063,14.5 24.4063,13.7969 24.4063,13.2031 L24.4063,7.29688 C24.4063,6.5 23.7969,5.90625 23,5.90625 L22.7969,5.90625 L19.5,6.59375 L19.5,-9.90625 L23.2969,-10.5938 M7.79688,9.09375 L7.79688,-7.5 L16.7031,-9.29688 L16.7031,7.20313 L7.79688,9.09375 "/>
<path class="Rest" transform="matrix(1.4,0,0,1.4,524.554,412.777)" d="M33.4688,-20.2656 C32.7188,-20.5313 32.0469,-20.1719 31.7344,-19.5469 C31.4375,-18.9375 28.6094,-13.5 24.2969,-10.0938 C22.9531,-9.03125 21.3906,-8.34375 19.8281,-7.95313 C20.9063,-9.26563 21.5313,-10.9375 21.4688,-12.75 C21.3281,-16.6875 18.0313,-19.7656 14.0938,-19.625 C10.1563,-19.4844 7.0625,-16.1875 7.20313,-12.25 C7.3125,-9.23438 9.26563,-6.73438 11.9375,-5.78125 C13.5,-5.09375 15.4063,-4.73438 17.4531,-4.79688 C20.2969,-4.90625 23.375,-5.84375 26.0156,-7.92188 C27.25,-8.89063 28.4063,-10.125 29.4375,-11.4219 L29.4375,-11.4063 L24.9375,4.5 C24.9375,4.5 24.9375,4.51563 24.9219,4.51563 L24.9219,4.53125 C24.4531,5.48438 21.2031,11.6563 17.1875,14.8281 C15.8438,15.9063 14.2813,16.5938 12.7188,16.9688 C13.7969,15.6719 14.4219,14 14.3594,12.1875 C14.2188,8.23438 10.9219,5.15625 6.98438,5.29688 C3.04688,5.4375 -0.046875,8.73438 0.09375,12.6875 C0.203125,15.6875 2.15625,18.1875 4.82813,19.1563 C6.39063,19.8281 8.29688,20.2031 10.3438,20.125 C13.1875,20.0313 16.2656,19.0938 18.9063,17.0156 C20.125,16.0469 21.2813,14.8281 22.3125,13.5156 L12.1094,49.9844 L14.7813,50.7344 L33.4531,-15.4688 L34.3281,-18.5938 C34.5313,-19.3281 34.2188,-20.0156 33.4688,-20.2656"/>
<path class="Rest" transform="matrix(1.4,0,0,1.4,2003.97,412.777)" d="M23.2031,16.9063 L23,16.5938 C22.9063,16.5 22.7031,16.2969 22.4063,15.9063 L10.9063,1.70313 C10.5938,1.40625 10.7031,0.59375 10.9063,0.203125 L21.0938,-15.2031 C21.2031,-15.4063 21.2969,-15.7031 21.2969,-15.9063 L21.2969,-16.7969 C21.2969,-17.0938 21.2031,-17.4063 21,-17.5938 L4.79688,-39.5 C4.79688,-39.5 4,-40.7031 3,-39.7969 C2,-39 2.79688,-37.7031 2.79688,-37.7031 L10.4063,-27.2969 C10.7969,-26.7031 10.7969,-25.5 10.4063,-24.9063 L0.296875,-9.5 C0.203125,-9.29688 0.09375,-8.90625 0.09375,-8.70313 L0.09375,-7.79688 C0.09375,-7.5 0.203125,-7.20313 0.40625,-7 L11.5938,6.90625 C11.2031,6.79688 10.2969,6.59375 9.09375,6.59375 C7.40625,6.59375 5.20313,7 3.40625,8.59375 C1.20313,10.5938 0,13.4063 0,15.9063 C0,17.2969 0.296875,18.7031 1.09375,19.7969 C3.20313,23 10.7031,32.5 10.7031,32.5 C10.7031,32.5 11.5938,33.6094 12.5,32.9063 C13.4063,32.2031 13.2031,31.2969 12.9063,30.7969 C12.5938,30.2969 9.40625,24.5 9.40625,24.5 C9.40625,24.5 8.70313,23.0938 8.70313,21.2969 C8.70313,20 9.09375,18.4063 10.4063,17.0938 C11.5938,15.9063 13,15.5 14.2969,15.5 C15.5938,15.5 16.7031,15.9063 17.5,16.4063 L21.4063,18.9063 C21.4063,18.9063 22.5938,19.5 23.2031,18.5938 C23.7031,17.7969 23.5,17.4063 23.2031,16.9063"/>
<path class="Rest" transform="matrix(1.4,0,0,1.4,3384.96,377.777)" d="M31.1094,-0.5 L1.40625,-0.5 C0.59375,-0.5 0,0.09375 0,0.90625 L0,11.7031 C0,12.5 0.59375,13.0938 1.40625,13.0938 L31.1094,13.0938 C31.9063,13.0938 32.5,12.5 32.5,11.7031 L32.5,0.90625 C32.5,0.09375 31.9063,-0.5 31.1094,-0.5"/>
<path class="Beam" fill-rule="evenodd" d="M774.209,474.013 L931.693,482.982 L931.693,500.51 L774.209,491.541 L774.209,474.013 "/>
<path class="Beam" fill-rule="evenodd" d="M1149.03,552.777 L1584.11,552.777 L1584.11,570.277 L1149.03,570.277 L1149.03,552.777 "/>
<path class="Hook" transform="matrix(1.4,0,0,1.4,428.533,587.777)" d="M-0.046875,0.765625 C-0.046875,1.45313 0.265625,2.01563 1.42188,2.01563 C2.57813,2.01563 2.79688,1.5 2.90625,0.765625 C2.90625,0.765625 4.46875,-9.85938 8.28125,-15.4063 C12.1094,-20.9531 18.3125,-24.0938 23.1406,-30.2656 C26.6563,-34.7344 27.9063,-40.0938 28,-45.3125 C28.0938,-50.2813 27.125,-55.0938 26.0469,-58.9219 C26.3906,-61.0313 26.5781,-63.4688 26.5781,-66.3125 C26.5781,-71.9844 24,-77.3906 22.1563,-80.25 C21.6875,-81 21.1719,-82.0625 20.125,-81.5156 C19.0781,-80.9688 19.5469,-79.75 19.875,-78.8125 C21.3438,-74.7813 22.0156,-69.7188 22.0938,-67.2188 C22.2344,-63.2344 21.9219,-59.3438 17.9219,-53.3594 C11.9375,-44.4219 4.01563,-39.4531 1.42188,-38.5 C0.75,-38.2656 -0.046875,-37.7813 -0.046875,-37.5469 L-0.046875,0.765625 M23.4531,-50.7031 C23.7969,-45.8906 23.8594,-41.0781 18.2188,-34.2188 C14.4219,-29.625 8.3125,-25.0781 3.82813,-24.7188 L3.71875,-24.2969 C3.78125,-24.6406 3.84375,-24.9375 3.90625,-25.1719 C4.5625,-27.7188 6.40625,-31.2031 10.3125,-35.1406 C15.2344,-40.0781 18.2031,-43.2344 20.9063,-46.75 C21.7031,-47.7813 22.8438,-49.5469 23.4531,-50.7031"/>
<path class="Hook" transform="matrix(1.4,0,0,1.4,620.575,552.777)" d="M2.5,0.40625 C2.5,0.203125 3.40625,-3.20313 3.5,-3.5 C3.59375,-3.90625 5.40625,-9.59375 9.09375,-15.2969 C11.7969,-19.5 21.2969,-31.7969 21,-31.7969 C21,-31.7969 28.4063,-41.2969 28.9063,-54.2031 L28.9063,-56.5 C28.9063,-62.6094 28.1094,-71.2031 24.5938,-79.9063 C24.2031,-80.9063 23.7969,-81.9063 22.7031,-81.5 C21.5938,-81.1094 21.9063,-79.9063 22.2031,-78.8125 C24,-71.7969 25,-64.6094 25,-57.4063 C25,-49 22,-44.7969 20.2031,-41.7031 C13.5938,-30.6094 5,-25.2031 0.796875,-23.7969 C0.296875,-23.5938 0,-23.2031 0,-22.7031 L0,-16.5 L0,-0.09375 C0,0.59375 0.59375,1.20313 1.29688,1.20313 C1.79688,1.20313 2.40625,0.796875 2.5,0.40625"/>
<path class="Fingering" d="M453.074,164.45 C449.98,168.184 441.621,170.997 433.246,171.184 L433.246,175.091 L441.246,175.091 C446.527,175.184 447.074,175.731 446.886,180.825 L446.886,217.325 C446.886,221.966 446.886,222.138 446.34,222.966 C445.621,223.872 443.886,224.231 438.793,224.231 L432.871,224.231 L432.871,228.513 L468.918,228.513 L468.918,224.231 L463.902,224.231 C458.808,224.231 457.09,223.872 456.355,222.966 C455.715,222.138 455.715,222.044 455.715,217.325 L455.715,179.731 C455.715,174.638 455.902,170.356 456.355,164.45 L453.074,164.45 "/>
<path class="Fingering" d="M619.617,123.274 C616.523,127.008 608.163,129.821 599.788,130.008 L599.788,133.914 L607.788,133.914 C613.07,134.008 613.617,134.555 613.429,139.649 L613.429,176.149 C613.429,180.789 613.429,180.961 612.882,181.789 C612.163,182.696 610.429,183.055 605.335,183.055 L599.413,183.055 L599.413,187.336 L635.46,187.336 L635.46,183.055 L630.445,183.055 C625.351,183.055 623.632,182.696 622.898,181.789 C622.257,180.961 622.257,180.867 622.257,176.149 L622.257,138.555 C622.257,133.461 622.445,129.18 622.898,123.274 L619.617,123.274 M686.867,167.68 L682.867,167.68 L681.96,172.321 C680.773,178.242 680.038,178.789 674.398,178.789 L654.023,178.789 C660.304,172.227 662.398,170.321 668.21,165.774 C676.492,159.399 680.038,156.211 682.132,153.477 C685.054,149.477 686.507,145.477 686.507,141.008 C686.507,130.649 677.945,123.274 666.023,123.274 C654.476,123.274 645.648,130.649 645.648,140.383 C645.648,146.117 648.554,150.024 652.835,150.024 C656.195,150.024 658.476,147.742 658.476,144.477 C658.476,142.196 657.21,140.102 655.288,139.289 C651.929,137.914 651.742,137.742 651.742,136.555 C651.742,135.196 652.648,133.102 653.929,131.555 C656.195,128.727 659.929,127.18 664.21,127.18 C671.757,127.18 676.226,131.821 676.226,139.461 C676.226,146.196 673.038,152.305 665.492,160.305 C658.757,167.399 654.57,171.867 653.023,173.602 C649.742,177.414 648.101,179.508 644.101,184.789 L644.101,187.336 L685.148,187.336 L686.867,167.68 "/>
<path class="Fingering" d="M798.751,71.8035 C795.657,75.5379 787.297,78.3504 778.922,78.5379 L778.922,82.4441 L786.922,82.4441 C792.204,82.5379 792.751,83.0847 792.563,88.1785 L792.563,124.678 C792.563,129.319 792.563,129.491 792.016,130.319 C791.297,131.225 789.563,131.585 784.469,131.585 L778.547,131.585 L778.547,135.866 L814.594,135.866 L814.594,131.585 L809.579,131.585 C804.485,131.585 802.766,131.225 802.032,130.319 C801.391,129.491 801.391,129.397 801.391,124.678 L801.391,87.0847 C801.391,81.991 801.579,77.7097 802.032,71.8035 L798.751,71.8035 "/>
<path class="Fingering" d="M926.885,82.0973 C923.791,85.8317 915.432,88.6442 907.057,88.8317 L907.057,92.738 L915.057,92.738 C920.338,92.8317 920.885,93.3786 920.697,98.4723 L920.697,134.972 C920.697,139.613 920.697,139.785 920.15,140.613 C919.432,141.519 917.697,141.879 912.603,141.879 L906.682,141.879 L906.682,146.16 L942.728,146.16 L942.728,141.879 L937.713,141.879 C932.619,141.879 930.9,141.519 930.166,140.613 C929.525,139.785 929.525,139.691 929.525,134.972 L929.525,97.3786 C929.525,92.2848 929.713,88.0036 930.166,82.0973 L926.885,82.0973 M994.135,126.504 L990.135,126.504 L989.228,131.144 C988.041,137.066 987.307,137.613 981.666,137.613 L961.291,137.613 C967.572,131.05 969.666,129.144 975.478,124.597 C983.76,118.222 987.307,115.035 989.4,112.3 C992.322,108.3 993.775,104.3 993.775,99.8317 C993.775,89.4723 985.213,82.0973 973.291,82.0973 C961.744,82.0973 952.916,89.4723 952.916,99.2067 C952.916,104.941 955.822,108.847 960.103,108.847 C963.463,108.847 965.744,106.566 965.744,103.3 C965.744,101.019 964.478,98.9255 962.557,98.113 C959.197,96.738 959.01,96.5661 959.01,95.3786 C959.01,94.0192 959.916,91.9255 961.197,90.3786 C963.463,87.5505 967.197,86.0036 971.478,86.0036 C979.025,86.0036 983.494,90.6442 983.494,98.2848 C983.494,105.019 980.307,111.129 972.76,119.129 C966.025,126.222 961.838,130.691 960.291,132.425 C957.01,136.238 955.369,138.332 951.369,143.613 L951.369,146.16 L992.416,146.16 L994.135,126.504 "/>
<path class="Fingering" d="M1336.97,147.092 L1332.97,147.092 L1332.06,151.733 C1330.87,157.654 1330.14,158.201 1324.5,158.201 L1304.12,158.201 C1310.41,151.639 1312.5,149.733 1318.31,145.186 C1326.59,138.811 1330.14,135.623 1332.23,132.889 C1335.16,128.889 1336.61,124.889 1336.61,120.42 C1336.61,110.061 1328.05,102.686 1316.12,102.686 C1304.58,102.686 1295.75,110.061 1295.75,119.795 C1295.75,125.529 1298.66,129.436 1302.94,129.436 C1306.3,129.436 1308.58,127.154 1308.58,123.889 C1308.58,121.608 1307.31,119.514 1305.39,118.701 C1302.03,117.326 1301.84,117.154 1301.84,115.967 C1301.84,114.608 1302.75,112.514 1304.03,110.967 C1306.3,108.139 1310.03,106.592 1314.31,106.592 C1321.86,106.592 1326.33,111.233 1326.33,118.873 C1326.33,125.608 1323.14,131.717 1315.59,139.717 C1308.86,146.811 1304.67,151.279 1303.12,153.014 C1299.84,156.826 1298.2,158.92 1294.2,164.201 L1294.2,166.748 L1335.25,166.748 L1336.97,147.092 "/>
<path class="Fingering" d="M1480.71,198.563 L1476.71,198.563 L1475.8,203.203 C1474.62,209.125 1473.88,209.672 1468.24,209.672 L1447.87,209.672 C1454.15,203.109 1456.24,201.203 1462.05,196.656 C1470.34,190.281 1473.88,187.094 1475.98,184.359 C1478.9,180.359 1480.35,176.359 1480.35,171.891 C1480.35,161.531 1471.79,154.156 1459.87,154.156 C1448.32,154.156 1439.49,161.531 1439.49,171.266 C1439.49,177 1442.4,180.906 1446.68,180.906 C1450.04,180.906 1452.32,178.625 1452.32,175.359 C1452.32,173.078 1451.05,170.984 1449.13,170.172 C1445.77,168.797 1445.59,168.625 1445.59,167.438 C1445.59,166.078 1446.49,163.984 1447.77,162.438 C1450.04,159.609 1453.77,158.063 1458.05,158.063 C1465.6,158.063 1470.07,162.703 1470.07,170.344 C1470.07,177.078 1466.88,183.188 1459.34,191.188 C1452.6,198.281 1448.41,202.75 1446.87,204.484 C1443.59,208.297 1441.94,210.391 1437.94,215.672 L1437.94,218.219 L1478.99,218.219 L1480.71,198.563 "/>
<path class="Fingering" d="M1579.3,123.274 C1576.2,127.008 1567.84,129.821 1559.47,130.008 L1559.47,133.914 L1567.47,133.914 C1572.75,134.008 1573.3,134.555 1573.11,139.649 L1573.11,176.149 C1573.11,180.789 1573.11,180.961 1572.56,181.789 C1571.84,182.696 1570.11,183.055 1565.02,183.055 L1559.09,183.055 L1559.09,187.336 L1595.14,187.336 L1595.14,183.055 L1590.12,183.055 C1585.03,183.055 1583.31,182.696 1582.58,181.789 C1581.94,180.961 1581.94,180.867 1581.94,176.149 L1581.94,138.555 C1581.94,133.461 1582.12,129.18 1582.58,123.274 L1579.3,123.274 M1646.55,167.68 L1642.55,167.68 L1641.64,172.321 C1640.45,178.242 1639.72,178.789 1634.08,178.789 L1613.7,178.789 C1619.98,172.227 1622.08,170.321 1627.89,165.774 C1636.17,159.399 1639.72,156.211 1641.81,153.477 C1644.73,149.477 1646.19,145.477 1646.19,141.008 C1646.19,130.649 1637.62,123.274 1625.7,123.274 C1614.16,123.274 1605.33,130.649 1605.33,140.383 C1605.33,146.117 1608.23,150.024 1612.52,150.024 C1615.87,150.024 1618.16,147.742 1618.16,144.477 C1618.16,142.196 1616.89,140.102 1614.97,139.289 C1611.61,137.914 1611.42,137.742 1611.42,136.555 C1611.42,135.196 1612.33,133.102 1613.61,131.555 C1615.87,128.727 1619.61,127.18 1623.89,127.18 C1631.44,127.18 1635.91,131.821 1635.91,139.461 C1635.91,146.196 1632.72,152.305 1625.17,160.305 C1618.44,167.399 1614.25,171.867 1612.7,173.602 C1609.42,177.414 1607.78,179.508 1603.78,184.789 L1603.78,187.336 L1644.83,187.336 L1646.55,167.68 "/>
<path class="Fingering" d="M2385.66,198.563 L2381.66,198.563 L2380.76,203.203 C2379.57,209.125 2378.84,209.672 2373.2,209.672 L2352.82,209.672 C2359.1,203.109 2361.2,201.203 2367.01,196.656 C2375.29,190.281 2378.84,187.094 2380.93,184.359 C2383.85,180.359 2385.3,176.359 2385.3,171.891 C2385.3,161.531 2376.74,154.156 2364.82,154.156 C2353.27,154.156 2344.45,161.531 2344.45,171.266 C2344.45,177 2347.35,180.906 2351.63,180.906 C2354.99,180.906 2357.27,178.625 2357.27,175.359 C2357.27,173.078 2356.01,170.984 2354.09,170.172 C2350.73,168.797 2350.54,168.625 2350.54,167.438 C2350.54,166.078 2351.45,163.984 2352.73,162.438 C2354.99,159.609 2358.73,158.063 2363.01,158.063 C2370.55,158.063 2375.02,162.703 2375.02,170.344 C2375.02,177.078 2371.84,183.188 2364.29,191.188 C2357.55,198.281 2353.37,202.75 2351.82,204.484 C2348.54,208.297 2346.9,210.391 2342.9,215.672 L2342.9,218.219 L2383.95,218.219 L2385.66,198.563 "/>
<path class="Fingering" d="M2598.09,198.563 L2594.09,198.563 L2593.18,203.203 C2591.99,209.125 2591.26,209.672 2585.62,209.672 L2565.24,209.672 C2571.52,203.109 2573.62,201.203 2579.43,196.656 C2587.71,190.281 2591.26,187.094 2593.35,184.359 C2596.27,180.359 2597.73,176.359 2597.73,171.891 C2597.73,161.531 2589.16,154.156 2577.24,154.156 C2565.7,154.156 2556.87,161.531 2556.87,171.266 C2556.87,177 2559.77,180.906 2564.06,180.906 C2567.41,180.906 2569.7,178.625 2569.7,175.359 C2569.7,173.078 2568.43,170.984 2566.51,170.172 C2563.15,168.797 2562.96,168.625 2562.96,167.438 C2562.96,166.078 2563.87,163.984 2565.15,162.438 C2567.41,159.609 2571.15,158.063 2575.43,158.063 C2582.98,158.063 2587.45,162.703 2587.45,170.344 C2587.45,177.078 2584.26,183.188 2576.71,191.188 C2569.98,198.281 2565.79,202.75 2564.24,204.484 C2560.96,208.297 2559.32,210.391 2555.32,215.672 L2555.32,218.219 L2596.37,218.219 L2598.09,198.563 "/>
<path class="Fingering" d="M2890.31,270.621 L2886.31,270.621 L2885.4,275.262 C2884.22,281.184 2883.48,281.73 2877.84,281.73 L2857.47,281.73 C2863.75,275.168 2865.84,273.262 2871.65,268.715 C2879.93,262.34 2883.48,259.152 2885.57,256.418 C2888.5,252.418 2889.95,248.418 2889.95,243.949 C2889.95,233.59 2881.39,226.215 2869.47,226.215 C2857.92,226.215 2849.09,233.59 2849.09,243.324 C2849.09,249.059 2852,252.965 2856.28,252.965 C2859.64,252.965 2861.92,250.684 2861.92,247.418 C2861.92,245.137 2860.65,243.043 2858.73,242.23 C2855.37,240.855 2855.18,240.684 2855.18,239.496 C2855.18,238.137 2856.09,236.043 2857.37,234.496 C2859.64,231.668 2863.37,230.121 2867.65,230.121 C2875.2,230.121 2879.67,234.762 2879.67,242.402 C2879.67,249.137 2876.48,255.246 2868.93,263.246 C2862.2,270.34 2858.01,274.809 2856.47,276.543 C2853.18,280.355 2851.54,282.449 2847.54,287.73 L2847.54,290.277 L2888.59,290.277 L2890.31,270.621 "/>
<path class="Fingering" d="M3794.75,270.621 L3790.75,270.621 L3789.84,275.262 C3788.65,281.184 3787.92,281.73 3782.28,281.73 L3761.9,281.73 C3768.18,275.168 3770.28,273.262 3776.09,268.715 C3784.37,262.34 3787.92,259.152 3790.01,256.418 C3792.93,252.418 3794.39,248.418 3794.39,243.949 C3794.39,233.59 3785.82,226.215 3773.9,226.215 C3762.36,226.215 3753.53,233.59 3753.53,243.324 C3753.53,249.059 3756.43,252.965 3760.72,252.965 C3764.07,252.965 3766.36,250.684 3766.36,247.418 C3766.36,245.137 3765.09,243.043 3763.17,242.23 C3759.81,240.855 3759.62,240.684 3759.62,239.496 C3759.62,238.137 3760.53,236.043 3761.81,234.496 C3764.07,231.668 3767.81,230.121 3772.09,230.121 C3779.64,230.121 3784.11,234.762 3784.11,242.402 C3784.11,249.137 3780.92,255.246 3773.37,263.246 C3766.64,270.34 3762.45,274.809 3760.9,276.543 C3757.62,280.355 3755.98,282.449 3751.98,287.73 L3751.98,290.277 L3793.03,290.277 L3794.75,270.621 "/>
<path class="Page" d="M96.0938,96.241 L95.4844,98.991 C94.9844,101.194 94.6563,101.897 94.2188,102.178 C93.6719,102.569 93.5625,102.569 90.0938,102.616 L79.4844,102.616 C81.4063,100.96 82.8438,99.9285 84.9844,98.491 C92.7344,93.491 94.3281,92.2722 95.9219,90.241 C97.7969,87.7722 98.8906,84.8504 98.8906,82.2722 C98.8906,76.3816 93.125,71.9285 85.375,71.9285 C77.8906,71.9285 72.1094,76.7722 72.1094,83.0379 C72.1094,86.8816 74.2656,89.366 77.5625,89.366 C80.4219,89.366 82.2344,87.5535 82.2344,84.6941 C82.2344,82.3191 81.1875,80.9441 78.6563,79.741 C78.0469,79.4597 77.7813,79.1316 77.7813,78.6941 C77.7813,76.9285 80.75,75.0691 83.5,75.0691 C87.3438,75.0691 89.5469,77.4285 89.5469,81.5066 C89.5469,86.0691 87.7813,89.3035 81.9531,95.5222 C75.7969,102.069 73.6563,104.538 70.9063,108.507 L70.9063,111.085 C72.3281,110.928 72.9375,110.866 73.7656,110.866 L94.4375,110.866 C95.4844,110.866 96.1406,110.928 97.7969,111.085 L99.0625,96.241 L96.0938,96.241 "/>
</svg>
