<?xml version="1.0" encoding="UTF-8" standalone="no"?>
<svg width="4208.47px" height="2409.45px" viewBox="0 0 4208.47 2409.45"
 xmlns="http://www.w3.org/2000/svg" xmlns:xlink="http://www.w3.org/1999/xlink" version="1.2" baseProfile="tiny">
<title>FLAUTA</title>
<desc>Generated by MuseScore 3.6.2</desc>
<polyline class="StaffLines" fill="none" stroke="#000000" stroke-width="5.85" stroke-linejoin="bevel" points="70.866,442.913 4137.61,442.913"/>
<polyline class="StaffLines" fill="none" stroke="#000000" stroke-width="5.85" stroke-linejoin="bevel" points="70.866,496.063 4137.61,496.063"/>
<polyline class="StaffLines" fill="none" stroke="#000000" stroke-width="5.85" stroke-linejoin="bevel" points="70.866,549.212 4137.61,549.212"/>
<polyline class="StaffLines" fill="none" stroke="#000000" stroke-width="5.85" stroke-linejoin="bevel" points="70.866,602.362 4137.61,602.362"/>
<polyline class="StaffLines" fill="none" stroke="#000000" stroke-width="5.85" stroke-linejoin="bevel" points="70.866,655.512 4137.61,655.512"/>
<polyline class="StaffLines" fill="none" stroke="#000000" stroke-width="5.85" stroke-linejoin="bevel" points="70.866,1240.16 4137.61,1240.16"/>
<polyline class="StaffLines" fill="none" stroke="#000000" stroke-width="5.85" stroke-linejoin="bevel" points="70.866,1293.31 4137.61,1293.31"/>
<polyline class="StaffLines" fill="none" stroke="#000000" stroke-width="5.85" stroke-linejoin="bevel" points="70.866,1346.46 4137.61,1346.46"/>
<polyline class="StaffLines" fill="none" stroke="#000000" stroke-width="5.85" stroke-linejoin="bevel" points="70.866,1399.61 4137.61,1399.61"/>
<polyline class="StaffLines" fill="none" stroke="#000000" stroke-width="5.85" stroke-linejoin="bevel" points="70.866,1452.76 4137.61,1452.76"/>
<polyline class="StaffLines" fill="none" stroke="#000000" stroke-width="5.85" stroke-linejoin="bevel" points="70.866,2037.4 4137.61,2037.4"/>
<polyline class="StaffLines" fill="none" stroke="#000000" stroke-width="5.85" stroke-linejoin="bevel" points="70.866,2090.55 4137.61,2090.55"/>
<polyline class="StaffLines" fill="none" stroke="#000000" stroke-width="5.85" stroke-linejoin="bevel" points="70.866,2143.7 4137.61,2143.7"/>
<polyline class="StaffLines" fill="none" stroke="#000000" stroke-width="5.85" stroke-linejoin="bevel" points="70.866,2196.85 4137.61,2196.85"/>
<polyline class="StaffLines" fill="none" stroke="#000000" stroke-width="5.85" stroke-linejoin="bevel" points="70.866,2250 4137.61,2250"/>
<path class="MeasureNumber" d="M86.5847,1120.19 C85.8972,1123.34 85.1785,1125.26 84.0222,1127.5 C82.0691,1131.14 79.991,1132.78 77.1785,1132.78 C76.0222,1132.78 75.2722,1132.3 75.2722,1131.58 C75.2722,1131.3 75.3504,1131.19 75.6629,1130.7 C76.0691,1130.19 76.2722,1129.7 76.2722,1129.14 C76.2722,1127.83 75.2254,1126.83 73.866,1126.83 C72.2722,1126.83 71.1472,1128.01 71.1472,1129.78 C71.1472,1132.5 73.7097,1134.45 77.2722,1134.45 C80.4597,1134.45 83.4285,1133.06 85.866,1130.26 C89.3504,1126.37 91.616,1120.58 91.616,1115.65 C91.616,1109.42 88.616,1105.7 83.6629,1105.7 C80.7097,1105.7 77.9441,1107.03 76.1004,1109.3 C74.3035,1111.5 73.2722,1114.3 73.2722,1116.9 C73.2722,1120.7 76.1785,1123.58 80.0691,1123.58 C82.7097,1123.58 84.741,1122.5 86.5847,1120.19 M83.6316,1107.39 C86.1785,1107.39 87.8191,1109.42 87.8191,1112.62 C87.8191,1117.58 85.1004,1121.22 81.4285,1121.22 C78.8972,1121.22 77.5066,1119.5 77.5066,1116.5 C77.5066,1114.14 78.0691,1112.01 79.1472,1110.22 C80.3504,1108.3 81.7879,1107.39 83.6316,1107.39"/>
<path class="MeasureNumber" d="M87.2254,1902.79 L86.0691,1902.79 C83.866,1904.43 79.6316,1905.82 76.741,1905.82 L76.2722,1907.59 L79.0222,1907.59 C81.4597,1907.59 81.741,1907.66 81.741,1908.38 C81.741,1908.74 81.741,1908.74 81.3504,1910.18 L77.0691,1926.18 C76.5379,1928.18 76.5066,1928.3 76.1472,1928.66 C75.741,1929.05 74.8972,1929.18 72.7879,1929.23 L71.0691,1929.23 L70.866,1931.1 L85.6629,1931.1 L85.8972,1929.23 L83.741,1929.23 C81.1472,1929.23 80.5847,1929.02 80.5847,1928.15 C80.5847,1927.87 80.741,1926.94 80.9441,1926.18 L87.2254,1902.79 M106.819,1917.43 C106.132,1920.59 105.413,1922.51 104.257,1924.74 C102.303,1928.38 100.225,1930.02 97.4129,1930.02 C96.2566,1930.02 95.5066,1929.54 95.5066,1928.82 C95.5066,1928.54 95.5847,1928.43 95.8972,1927.94 C96.3035,1927.43 96.5066,1926.94 96.5066,1926.38 C96.5066,1925.07 95.4597,1924.07 94.1004,1924.07 C92.5066,1924.07 91.3816,1925.26 91.3816,1927.02 C91.3816,1929.74 93.9441,1931.69 97.5066,1931.69 C100.694,1931.69 103.663,1930.3 106.1,1927.51 C109.585,1923.62 111.85,1917.82 111.85,1912.9 C111.85,1906.66 108.85,1902.94 103.897,1902.94 C100.944,1902.94 98.1785,1904.27 96.3347,1906.54 C94.5379,1908.74 93.5066,1911.54 93.5066,1914.15 C93.5066,1917.94 96.4129,1920.82 100.303,1920.82 C102.944,1920.82 104.975,1919.74 106.819,1917.43 M103.866,1904.63 C106.413,1904.63 108.053,1906.66 108.053,1909.87 C108.053,1914.82 105.335,1918.46 101.663,1918.46 C99.1316,1918.46 97.741,1916.74 97.741,1913.74 C97.741,1911.38 98.3035,1909.26 99.3816,1907.46 C100.585,1905.54 102.022,1904.63 103.866,1904.63"/>
<path class="TieSegment" stroke="#000000" stroke-width="3.72" stroke-linecap="round" stroke-linejoin="round" fill-rule="evenodd" d="M1463.65,1067.42 C1510.9,1024.07 1652.67,1024.07 1699.92,1067.42 C1652.67,1038.95 1510.9,1038.95 1463.65,1067.42"/>
<polyline class="BarLine" stroke="#000000" stroke-width="29.23" stroke-linejoin="bevel" points="531.092,439.99 531.092,658.435"/>
<polyline class="BarLine" stroke="#000000" stroke-width="9.57" stroke-linejoin="bevel" points="568.296,439.99 568.296,658.435"/>
<path class="BarLine" transform="matrix(2.12598,0,0,2.12598,594.439,522.638)" d="M10.4063,0 C10.4063,-2.90625 8.09375,-5.29688 5.20313,-5.29688 C2.29688,-5.29688 0,-2.90625 0,0 C0,2.90625 2.29688,5.29688 5.20313,5.29688 C8.09375,5.29688 10.4063,2.90625 10.4063,0"/>
<path class="BarLine" transform="matrix(2.12598,0,0,2.12598,594.439,575.787)" d="M10.4063,0 C10.4063,-2.90625 8.09375,-5.29688 5.20313,-5.29688 C2.29688,-5.29688 0,-2.90625 0,0 C0,2.90625 2.29688,5.29688 5.20313,5.29688 C8.09375,5.29688 10.4063,2.90625 10.4063,0"/>
<polyline class="BarLine" stroke="#000000" stroke-width="9.57" stroke-linejoin="bevel" points="1011.79,439.99 1011.79,658.435"/>
<polyline class="BarLine" stroke="#000000" stroke-width="9.57" stroke-linejoin="bevel" points="1463.1,439.99 1463.1,658.435"/>
<polyline class="BarLine" stroke="#000000" stroke-width="9.57" stroke-linejoin="bevel" points="1823.79,439.99 1823.79,658.435"/>
<polyline class="BarLine" stroke="#000000" stroke-width="9.57" stroke-linejoin="bevel" points="2406.62,439.99 2406.62,658.435"/>
<polyline class="BarLine" stroke="#000000" stroke-width="9.57" stroke-linejoin="bevel" points="2767.32,439.99 2767.32,658.435"/>
<polyline class="BarLine" stroke="#000000" stroke-width="9.57" stroke-linejoin="bevel" points="3350.15,439.99 3350.15,658.435"/>
<polyline class="BarLine" stroke="#000000" stroke-width="9.57" stroke-linejoin="bevel" points="3710.85,439.99 3710.85,658.435"/>
<path class="BarLine" transform="matrix(2.12598,0,0,2.12598,4043.38,522.638)" d="M10.4063,0 C10.4063,-2.90625 8.09375,-5.29688 5.20313,-5.29688 C2.29688,-5.29688 0,-2.90625 0,0 C0,2.90625 2.29688,5.29688 5.20313,5.29688 C8.09375,5.29688 10.4063,2.90625 10.4063,0"/>
<path class="BarLine" transform="matrix(2.12598,0,0,2.12598,4043.38,575.787)" d="M10.4063,0 C10.4063,-2.90625 8.09375,-5.29688 5.20313,-5.29688 C2.29688,-5.29688 0,-2.90625 0,0 C0,2.90625 2.29688,5.29688 5.20313,5.29688 C8.09375,5.29688 10.4063,2.90625 10.4063,0"/>
<polyline class="BarLine" stroke="#000000" stroke-width="9.57" stroke-linejoin="bevel" points="4091.64,439.99 4091.64,658.435"/>
<polyline class="BarLine" stroke="#000000" stroke-width="29.23" stroke-linejoin="bevel" points="4128.84,439.99 4128.84,658.435"/>
<polyline class="BarLine" stroke="#000000" stroke-width="9.57" stroke-linejoin="bevel" points="643.108,1237.23 643.108,1455.68"/>
<polyline class="BarLine" stroke="#000000" stroke-width="9.57" stroke-linejoin="bevel" points="967.588,1237.23 967.588,1455.68"/>
<polyline class="BarLine" stroke="#000000" stroke-width="29.23" stroke-linejoin="bevel" points="1285.99,1237.23 1285.99,1455.68"/>
<polyline class="BarLine" stroke="#000000" stroke-width="9.57" stroke-linejoin="bevel" points="1323.19,1237.23 1323.19,1455.68"/>
<path class="BarLine" transform="matrix(2.12598,0,0,2.12598,1349.34,1319.88)" d="M10.4063,0 C10.4063,-2.90625 8.09375,-5.29688 5.20313,-5.29688 C2.29688,-5.29688 0,-2.90625 0,0 C0,2.90625 2.29688,5.29688 5.20313,5.29688 C8.09375,5.29688 10.4063,2.90625 10.4063,0"/>
<path class="BarLine" transform="matrix(2.12598,0,0,2.12598,1349.34,1373.03)" d="M10.4063,0 C10.4063,-2.90625 8.09375,-5.29688 5.20313,-5.29688 C2.29688,-5.29688 0,-2.90625 0,0 C0,2.90625 2.29688,5.29688 5.20313,5.29688 C8.09375,5.29688 10.4063,2.90625 10.4063,0"/>
<polyline class="BarLine" stroke="#000000" stroke-width="9.57" stroke-linejoin="bevel" points="1599.21,1237.23 1599.21,1455.68"/>
<polyline class="BarLine" stroke="#000000" stroke-width="9.57" stroke-linejoin="bevel" points="1891.83,1237.23 1891.83,1455.68"/>
<polyline class="BarLine" stroke="#000000" stroke-width="9.57" stroke-linejoin="bevel" points="2327.38,1237.23 2327.38,1455.68"/>
<polyline class="BarLine" stroke="#000000" stroke-width="9.57" stroke-linejoin="bevel" points="2695.44,1237.23 2695.44,1455.68"/>
<polyline class="BarLine" stroke="#000000" stroke-width="9.57" stroke-linejoin="bevel" points="3174.57,1237.23 3174.57,1455.68"/>
<polyline class="BarLine" stroke="#000000" stroke-width="9.57" stroke-linejoin="bevel" points="3542.63,1237.23 3542.63,1455.68"/>
<polyline class="BarLine" stroke="#000000" stroke-width="9.57" stroke-linejoin="bevel" points="4132.82,1237.23 4132.82,1455.68"/>
<polyline class="BarLine" stroke="#000000" stroke-width="9.57" stroke-linejoin="bevel" points="1038.11,2034.48 1038.11,2252.92"/>
<polyline class="BarLine" stroke="#000000" stroke-width="9.57" stroke-linejoin="bevel" points="1649.19,2034.48 1649.19,2252.92"/>
<polyline class="BarLine" stroke="#000000" stroke-width="9.57" stroke-linejoin="bevel" points="2241.66,2034.48 2241.66,2252.92"/>
<polyline class="BarLine" stroke="#000000" stroke-width="9.57" stroke-linejoin="bevel" points="2867.72,2034.48 2867.72,2252.92"/>
<path class="BarLine" transform="matrix(2.12598,0,0,2.12598,3455.41,2117.12)" d="M10.4063,0 C10.4063,-2.90625 8.09375,-5.29688 5.20313,-5.29688 C2.29688,-5.29688 0,-2.90625 0,0 C0,2.90625 2.29688,5.29688 5.20313,5.29688 C8.09375,5.29688 10.4063,2.90625 10.4063,0"/>
<path class="BarLine" transform="matrix(2.12598,0,0,2.12598,3455.41,2170.27)" d="M10.4063,0 C10.4063,-2.90625 8.09375,-5.29688 5.20313,-5.29688 C2.29688,-5.29688 0,-2.90625 0,0 C0,2.90625 2.29688,5.29688 5.20313,5.29688 C8.09375,5.29688 10.4063,2.90625 10.4063,0"/>
<polyline class="BarLine" stroke="#000000" stroke-width="9.57" stroke-linejoin="bevel" points="3503.67,2034.48 3503.67,2252.92"/>
<polyline class="BarLine" stroke="#000000" stroke-width="29.23" stroke-linejoin="bevel" points="3540.87,2034.48 3540.87,2252.92"/>
<polyline class="BarLine" stroke="#000000" stroke-width="9.57" stroke-linejoin="bevel" points="4085.79,2034.48 4085.79,2252.92"/>
<polyline class="BarLine" stroke="#000000" stroke-width="29.23" stroke-linejoin="bevel" points="4122.99,2034.48 4122.99,2252.92"/>
<path class="Accidental" transform="matrix(2.12598,0,0,2.12598,2276.74,2063.98)" d="M20.0938,-7.90625 C19.5,-11.7969 17.0938,-15.5 12,-15.5 C7,-15.5 4.09375,-12.4063 3.59375,-11.7969 L4,-43.9063 C4,-44.7031 3.40625,-45.2969 2.59375,-45.2969 L1.40625,-45.2969 C0.59375,-45.2969 0,-44.7031 0,-43.9063 L0.5,16.2031 C0.5,17 1.09375,17.5938 1.90625,17.5938 C2.09375,17.5938 2.5,17.5 2.70313,17.4063 C3.09375,17.2031 9.59375,14 15,7.90625 C18.7969,3.59375 20.2969,-1.29688 20.2969,-5.40625 C20.2969,-6.29688 20.2031,-7.09375 20.0938,-7.90625 M13.2031,-4 C13.2031,-2.5 12.7969,2.09375 10.2969,5.90625 C8.59375,8.5 5.20313,11.2031 3.29688,12.7031 L3.59375,-6.79688 C3.79688,-7.70313 5.29688,-10.5938 9.29688,-10.5938 C12.9063,-10.5938 13.2031,-7.20313 13.2031,-5.09375 L13.2031,-4 "/>
<polyline class="LedgerLine" stroke="#000000" stroke-width="8.50" stroke-linejoin="bevel" points="709.027,389.764 815.31,389.764"/>
<polyline class="LedgerLine" stroke="#000000" stroke-width="8.50" stroke-linejoin="bevel" points="709.027,336.614 815.31,336.614"/>
<polyline class="LedgerLine" stroke="#000000" stroke-width="8.50" stroke-linejoin="bevel" points="839.606,389.764 945.888,389.764"/>
<polyline class="LedgerLine" stroke="#000000" stroke-width="8.50" stroke-linejoin="bevel" points="1069.73,389.764 1176.01,389.764"/>
<polyline class="LedgerLine" stroke="#000000" stroke-width="8.50" stroke-linejoin="bevel" points="1205.84,389.764 1312.12,389.764"/>
<polyline class="LedgerLine" stroke="#000000" stroke-width="8.50" stroke-linejoin="bevel" points="1521.03,389.764 1627.31,389.764"/>
<polyline class="LedgerLine" stroke="#000000" stroke-width="8.50" stroke-linejoin="bevel" points="1651.61,389.764 1757.89,389.764"/>
<polyline class="LedgerLine" stroke="#000000" stroke-width="8.50" stroke-linejoin="bevel" points="1651.61,336.614 1757.89,336.614"/>
<polyline class="LedgerLine" stroke="#000000" stroke-width="8.50" stroke-linejoin="bevel" points="1881.73,389.764 1988.01,389.764"/>
<polyline class="LedgerLine" stroke="#000000" stroke-width="8.50" stroke-linejoin="bevel" points="1999.3,389.764 2105.58,389.764"/>
<polyline class="LedgerLine" stroke="#000000" stroke-width="8.50" stroke-linejoin="bevel" points="2116.87,389.764 2223.15,389.764"/>
<polyline class="LedgerLine" stroke="#000000" stroke-width="8.50" stroke-linejoin="bevel" points="2234.44,389.764 2340.72,389.764"/>
<polyline class="LedgerLine" stroke="#000000" stroke-width="8.50" stroke-linejoin="bevel" points="2464.56,389.764 2570.84,389.764"/>
<polyline class="LedgerLine" stroke="#000000" stroke-width="8.50" stroke-linejoin="bevel" points="2595.13,389.764 2701.42,389.764"/>
<polyline class="LedgerLine" stroke="#000000" stroke-width="8.50" stroke-linejoin="bevel" points="2595.13,336.614 2701.42,336.614"/>
<polyline class="LedgerLine" stroke="#000000" stroke-width="8.50" stroke-linejoin="bevel" points="2825.26,389.764 2931.54,389.764"/>
<polyline class="LedgerLine" stroke="#000000" stroke-width="8.50" stroke-linejoin="bevel" points="2942.82,389.764 3049.11,389.764"/>
<polyline class="LedgerLine" stroke="#000000" stroke-width="8.50" stroke-linejoin="bevel" points="3060.39,389.764 3166.68,389.764"/>
<polyline class="LedgerLine" stroke="#000000" stroke-width="8.50" stroke-linejoin="bevel" points="3177.96,389.764 3284.25,389.764"/>
<polyline class="LedgerLine" stroke="#000000" stroke-width="8.50" stroke-linejoin="bevel" points="3408.08,389.764 3514.37,389.764"/>
<polyline class="LedgerLine" stroke="#000000" stroke-width="8.50" stroke-linejoin="bevel" points="3538.66,389.764 3644.95,389.764"/>
<polyline class="LedgerLine" stroke="#000000" stroke-width="8.50" stroke-linejoin="bevel" points="3538.66,336.614 3644.95,336.614"/>
<polyline class="LedgerLine" stroke="#000000" stroke-width="8.50" stroke-linejoin="bevel" points="3768.78,389.764 3875.07,389.764"/>
<polyline class="LedgerLine" stroke="#000000" stroke-width="8.50" stroke-linejoin="bevel" points="444.043,1187.01 550.325,1187.01"/>
<polyline class="LedgerLine" stroke="#000000" stroke-width="8.50" stroke-linejoin="bevel" points="1400.14,1187.01 1506.43,1187.01"/>
<polyline class="LedgerLine" stroke="#000000" stroke-width="8.50" stroke-linejoin="bevel" points="1400.14,1133.86 1506.43,1133.86"/>
<polyline class="LedgerLine" stroke="#000000" stroke-width="8.50" stroke-linejoin="bevel" points="1657.14,1187.01 1763.43,1187.01"/>
<polyline class="LedgerLine" stroke="#000000" stroke-width="8.50" stroke-linejoin="bevel" points="1657.14,1133.86 1763.43,1133.86"/>
<polyline class="LedgerLine" stroke="#000000" stroke-width="8.50" stroke-linejoin="bevel" points="2054.22,1187.01 2160.51,1187.01"/>
<polyline class="LedgerLine" stroke="#000000" stroke-width="8.50" stroke-linejoin="bevel" points="2054.22,1133.86 2160.51,1133.86"/>
<polyline class="LedgerLine" stroke="#000000" stroke-width="8.50" stroke-linejoin="bevel" points="2155.19,1187.01 2261.47,1187.01"/>
<polyline class="LedgerLine" stroke="#000000" stroke-width="8.50" stroke-linejoin="bevel" points="2155.19,1133.86 2261.47,1133.86"/>
<polyline class="LedgerLine" stroke="#000000" stroke-width="8.50" stroke-linejoin="bevel" points="2385.31,1187.01 2491.59,1187.01"/>
<polyline class="LedgerLine" stroke="#000000" stroke-width="8.50" stroke-linejoin="bevel" points="2385.31,1133.86 2491.59,1133.86"/>
<polyline class="LedgerLine" stroke="#000000" stroke-width="8.50" stroke-linejoin="bevel" points="2523.25,1187.01 2629.54,1187.01"/>
<polyline class="LedgerLine" stroke="#000000" stroke-width="8.50" stroke-linejoin="bevel" points="2523.25,1133.86 2629.54,1133.86"/>
<polyline class="LedgerLine" stroke="#000000" stroke-width="8.50" stroke-linejoin="bevel" points="2523.25,1080.71 2629.54,1080.71"/>
<polyline class="LedgerLine" stroke="#000000" stroke-width="8.50" stroke-linejoin="bevel" points="2753.37,1187.01 2859.66,1187.01"/>
<polyline class="LedgerLine" stroke="#000000" stroke-width="8.50" stroke-linejoin="bevel" points="2753.37,1133.86 2859.66,1133.86"/>
<polyline class="LedgerLine" stroke="#000000" stroke-width="8.50" stroke-linejoin="bevel" points="2901.41,1187.01 3007.7,1187.01"/>
<polyline class="LedgerLine" stroke="#000000" stroke-width="8.50" stroke-linejoin="bevel" points="2901.41,1133.86 3007.7,1133.86"/>
<polyline class="LedgerLine" stroke="#000000" stroke-width="8.50" stroke-linejoin="bevel" points="3002.38,1187.01 3108.66,1187.01"/>
<polyline class="LedgerLine" stroke="#000000" stroke-width="8.50" stroke-linejoin="bevel" points="3232.5,1187.01 3338.78,1187.01"/>
<polyline class="LedgerLine" stroke="#000000" stroke-width="8.50" stroke-linejoin="bevel" points="3232.5,1133.86 3338.78,1133.86"/>
<polyline class="LedgerLine" stroke="#000000" stroke-width="8.50" stroke-linejoin="bevel" points="3370.44,1187.01 3476.73,1187.01"/>
<polyline class="LedgerLine" stroke="#000000" stroke-width="8.50" stroke-linejoin="bevel" points="3370.44,1133.86 3476.73,1133.86"/>
<polyline class="LedgerLine" stroke="#000000" stroke-width="8.50" stroke-linejoin="bevel" points="3600.56,1187.01 3706.85,1187.01"/>
<polyline class="LedgerLine" stroke="#000000" stroke-width="8.50" stroke-linejoin="bevel" points="3720.59,1187.01 3826.87,1187.01"/>
<polyline class="LedgerLine" stroke="#000000" stroke-width="8.50" stroke-linejoin="bevel" points="3840.61,1187.01 3946.89,1187.01"/>
<polyline class="LedgerLine" stroke="#000000" stroke-width="8.50" stroke-linejoin="bevel" points="3960.63,1187.01 4066.92,1187.01"/>
<polyline class="LedgerLine" stroke="#000000" stroke-width="8.50" stroke-linejoin="bevel" points="444.043,1984.25 550.325,1984.25"/>
<polyline class="LedgerLine" stroke="#000000" stroke-width="8.50" stroke-linejoin="bevel" points="729.384,1984.25 835.666,1984.25"/>
<polyline class="LedgerLine" stroke="#000000" stroke-width="8.50" stroke-linejoin="bevel" points="729.384,1931.1 835.666,1931.1"/>
<polyline class="LedgerLine" stroke="#000000" stroke-width="8.50" stroke-linejoin="bevel" points="1096.04,1984.25 1202.33,1984.25"/>
<polyline class="LedgerLine" stroke="#000000" stroke-width="8.50" stroke-linejoin="bevel" points="3602.78,1984.25 3709.06,1984.25"/>
<polyline class="Stem" stroke="#000000" stroke-width="5.85" stroke-linejoin="bevel" points="730.553,343.757 730.553,549.212"/>
<polyline class="Stem" stroke="#000000" stroke-width="5.85" stroke-linejoin="bevel" points="861.131,370.332 861.131,549.212"/>
<polyline class="Stem" stroke="#000000" stroke-width="5.85" stroke-linejoin="bevel" points="1091.25,396.907 1091.25,575.787"/>
<polyline class="Stem" stroke="#000000" stroke-width="5.85" stroke-linejoin="bevel" points="1227.36,396.907 1227.36,549.212"/>
<polyline class="Stem" stroke="#000000" stroke-width="5.85" stroke-linejoin="bevel" points="1312.43,423.482 1312.43,562.5"/>
<polyline class="Stem" stroke="#000000" stroke-width="5.85" stroke-linejoin="bevel" points="1542.55,396.907 1542.55,575.787"/>
<polyline class="Stem" stroke="#000000" stroke-width="5.85" stroke-linejoin="bevel" points="1673.13,343.757 1673.13,549.212"/>
<polyline class="Stem" stroke="#000000" stroke-width="5.85" stroke-linejoin="bevel" points="1903.25,370.332 1903.25,535.925"/>
<polyline class="Stem" stroke="#000000" stroke-width="5.85" stroke-linejoin="bevel" points="2020.82,370.332 2020.82,535.925"/>
<polyline class="Stem" stroke="#000000" stroke-width="5.85" stroke-linejoin="bevel" points="2138.39,370.332 2138.39,535.925"/>
<polyline class="Stem" stroke="#000000" stroke-width="5.85" stroke-linejoin="bevel" points="2255.96,396.907 2255.96,549.212"/>
<polyline class="Stem" stroke="#000000" stroke-width="5.85" stroke-linejoin="bevel" points="2486.08,370.332 2486.08,549.212"/>
<polyline class="Stem" stroke="#000000" stroke-width="5.85" stroke-linejoin="bevel" points="2616.66,343.757 2616.66,549.212"/>
<polyline class="Stem" stroke="#000000" stroke-width="5.85" stroke-linejoin="bevel" points="2846.78,370.332 2846.78,535.925"/>
<polyline class="Stem" stroke="#000000" stroke-width="5.85" stroke-linejoin="bevel" points="2964.35,370.332 2964.35,535.925"/>
<polyline class="Stem" stroke="#000000" stroke-width="5.85" stroke-linejoin="bevel" points="3081.92,370.332 3081.92,535.925"/>
<polyline class="Stem" stroke="#000000" stroke-width="5.85" stroke-linejoin="bevel" points="3199.49,396.907 3199.49,549.212"/>
<polyline class="Stem" stroke="#000000" stroke-width="5.85" stroke-linejoin="bevel" points="3429.61,370.332 3429.61,549.212"/>
<polyline class="Stem" stroke="#000000" stroke-width="5.85" stroke-linejoin="bevel" points="3560.19,343.757 3560.19,549.212"/>
<polyline class="Stem" stroke="#000000" stroke-width="5.85" stroke-linejoin="bevel" points="3790.31,396.907 3790.31,575.787"/>
<polyline class="Stem" stroke="#000000" stroke-width="5.85" stroke-linejoin="bevel" points="465.568,1194.15 465.568,1373.03"/>
<polyline class="Stem" stroke="#000000" stroke-width="5.85" stroke-linejoin="bevel" points="880.157,1233.35 880.157,1100.64"/>
<polyline class="Stem" stroke="#000000" stroke-width="5.85" stroke-linejoin="bevel" points="1028.44,1220.73 1028.44,1399.61"/>
<polyline class="Stem" stroke="#000000" stroke-width="5.85" stroke-linejoin="bevel" points="1188.72,1233.35 1188.72,1100.64"/>
<polyline class="Stem" stroke="#000000" stroke-width="5.85" stroke-linejoin="bevel" points="1421.67,1114.43 1421.67,1346.46"/>
<polyline class="Stem" stroke="#000000" stroke-width="5.85" stroke-linejoin="bevel" points="1678.67,1114.43 1678.67,1346.46"/>
<polyline class="Stem" stroke="#000000" stroke-width="5.85" stroke-linejoin="bevel" points="2075.75,1114.43 2075.75,1319.88"/>
<polyline class="Stem" stroke="#000000" stroke-width="5.85" stroke-linejoin="bevel" points="2176.72,1141 2176.72,1346.46"/>
<polyline class="Stem" stroke="#000000" stroke-width="5.85" stroke-linejoin="bevel" points="2406.84,1114.43 2406.84,1346.46"/>
<polyline class="Stem" stroke="#000000" stroke-width="5.85" stroke-linejoin="bevel" points="2544.78,1087.85 2544.78,1346.46"/>
<polyline class="Stem" stroke="#000000" stroke-width="5.85" stroke-linejoin="bevel" points="2774.9,1141 2774.9,1346.46"/>
<polyline class="Stem" stroke="#000000" stroke-width="5.85" stroke-linejoin="bevel" points="2922.94,1141 2922.94,1333.17"/>
<polyline class="Stem" stroke="#000000" stroke-width="5.85" stroke-linejoin="bevel" points="3023.91,1167.58 3023.91,1346.46"/>
<polyline class="Stem" stroke="#000000" stroke-width="5.85" stroke-linejoin="bevel" points="3254.03,1141 3254.03,1346.46"/>
<polyline class="Stem" stroke="#000000" stroke-width="5.85" stroke-linejoin="bevel" points="3391.97,1114.43 3391.97,1346.46"/>
<polyline class="Stem" stroke="#000000" stroke-width="5.85" stroke-linejoin="bevel" points="3622.09,1167.58 3622.09,1333.17"/>
<polyline class="Stem" stroke="#000000" stroke-width="5.85" stroke-linejoin="bevel" points="3742.11,1167.58 3742.11,1333.17"/>
<polyline class="Stem" stroke="#000000" stroke-width="5.85" stroke-linejoin="bevel" points="3862.14,1167.58 3862.14,1333.17"/>
<polyline class="Stem" stroke="#000000" stroke-width="5.85" stroke-linejoin="bevel" points="3982.16,1194.15 3982.16,1346.46"/>
<polyline class="Stem" stroke="#000000" stroke-width="5.85" stroke-linejoin="bevel" points="465.568,1964.82 465.568,2143.7"/>
<polyline class="Stem" stroke="#000000" stroke-width="5.85" stroke-linejoin="bevel" points="750.909,1938.24 750.909,2143.7"/>
<polyline class="Stem" stroke="#000000" stroke-width="5.85" stroke-linejoin="bevel" points="1117.57,1991.39 1117.57,2170.27"/>
<polyline class="Stem" stroke="#000000" stroke-width="5.85" stroke-linejoin="bevel" points="1445.68,2030.6 1445.68,1897.88"/>
<polyline class="Stem" stroke="#000000" stroke-width="5.85" stroke-linejoin="bevel" points="1773.27,2030.6 1773.27,1897.88"/>
<polyline class="Stem" stroke="#000000" stroke-width="5.85" stroke-linejoin="bevel" points="2038.15,2057.17 2038.15,1917.81"/>
<polyline class="Stem" stroke="#000000" stroke-width="5.85" stroke-linejoin="bevel" points="2399.33,2057.17 2399.33,1917.81"/>
<polyline class="Stem" stroke="#000000" stroke-width="5.85" stroke-linejoin="bevel" points="2664.21,2030.6 2664.21,1897.88"/>
<polyline class="Stem" stroke="#000000" stroke-width="5.85" stroke-linejoin="bevel" points="2928.57,2017.97 2928.57,2196.85"/>
<polyline class="Stem" stroke="#000000" stroke-width="5.85" stroke-linejoin="bevel" points="3256.68,2030.6 3256.68,1897.88"/>
<polyline class="Stem" stroke="#000000" stroke-width="5.85" stroke-linejoin="bevel" points="3624.31,1991.39 3624.31,2170.27"/>
<path class="Note" transform="matrix(2.12598,0,0,2.12598,727.63,336.614)" d="M31.5,-8.09375 C29.7031,-11.4063 25.9063,-13.2031 21.2969,-13.2031 C17.9063,-13.2031 14.2031,-12.2031 10.5938,-10.2969 C4,-6.79688 0,-0.90625 0,4.20313 C0,5.59375 0.296875,7 1,8.29688 C2.79688,11.5938 6.59375,13.2969 11.2031,13.2969 C14.5938,13.2969 18.2969,12.4063 21.9063,10.5 C28.5,7 32.5,1.09375 32.5,-4 C32.5,-5.40625 32.2031,-6.79688 31.5,-8.09375"/>
<path class="Note" transform="matrix(2.12598,0,0,2.12598,858.208,363.189)" d="M31.5,-8.09375 C29.7031,-11.4063 25.9063,-13.2031 21.2969,-13.2031 C17.9063,-13.2031 14.2031,-12.2031 10.5938,-10.2969 C4,-6.79688 0,-0.90625 0,4.20313 C0,5.59375 0.296875,7 1,8.29688 C2.79688,11.5938 6.59375,13.2969 11.2031,13.2969 C14.5938,13.2969 18.2969,12.4063 21.9063,10.5 C28.5,7 32.5,1.09375 32.5,-4 C32.5,-5.40625 32.2031,-6.79688 31.5,-8.09375"/>
<path class="Note" transform="matrix(2.12598,0,0,2.12598,1088.33,389.764)" d="M31.5,-8.09375 C29.7031,-11.4063 25.9063,-13.2031 21.2969,-13.2031 C17.9063,-13.2031 14.2031,-12.2031 10.5938,-10.2969 C4,-6.79688 0,-0.90625 0,4.20313 C0,5.59375 0.296875,7 1,8.29688 C2.79688,11.5938 6.59375,13.2969 11.2031,13.2969 C14.5938,13.2969 18.2969,12.4063 21.9063,10.5 C28.5,7 32.5,1.09375 32.5,-4 C32.5,-5.40625 32.2031,-6.79688 31.5,-8.09375"/>
<path class="Note" transform="matrix(2.12598,0,0,2.12598,1224.44,389.764)" d="M31.5,-8.09375 C29.7031,-11.4063 25.9063,-13.2031 21.2969,-13.2031 C17.9063,-13.2031 14.2031,-12.2031 10.5938,-10.2969 C4,-6.79688 0,-0.90625 0,4.20313 C0,5.59375 0.296875,7 1,8.29688 C2.79688,11.5938 6.59375,13.2969 11.2031,13.2969 C14.5938,13.2969 18.2969,12.4063 21.9063,10.5 C28.5,7 32.5,1.09375 32.5,-4 C32.5,-5.40625 32.2031,-6.79688 31.5,-8.09375"/>
<path class="Note" transform="matrix(2.12598,0,0,2.12598,1309.51,416.338)" d="M31.5,-8.09375 C29.7031,-11.4063 25.9063,-13.2031 21.2969,-13.2031 C17.9063,-13.2031 14.2031,-12.2031 10.5938,-10.2969 C4,-6.79688 0,-0.90625 0,4.20313 C0,5.59375 0.296875,7 1,8.29688 C2.79688,11.5938 6.59375,13.2969 11.2031,13.2969 C14.5938,13.2969 18.2969,12.4063 21.9063,10.5 C28.5,7 32.5,1.09375 32.5,-4 C32.5,-5.40625 32.2031,-6.79688 31.5,-8.09375"/>
<path class="Note" transform="matrix(2.12598,0,0,2.12598,1539.63,389.764)" d="M31.5,-8.09375 C29.7031,-11.4063 25.9063,-13.2031 21.2969,-13.2031 C17.9063,-13.2031 14.2031,-12.2031 10.5938,-10.2969 C4,-6.79688 0,-0.90625 0,4.20313 C0,5.59375 0.296875,7 1,8.29688 C2.79688,11.5938 6.59375,13.2969 11.2031,13.2969 C14.5938,13.2969 18.2969,12.4063 21.9063,10.5 C28.5,7 32.5,1.09375 32.5,-4 C32.5,-5.40625 32.2031,-6.79688 31.5,-8.09375"/>
<path class="Note" transform="matrix(2.12598,0,0,2.12598,1670.21,336.614)" d="M31.5,-8.09375 C29.7031,-11.4063 25.9063,-13.2031 21.2969,-13.2031 C17.9063,-13.2031 14.2031,-12.2031 10.5938,-10.2969 C4,-6.79688 0,-0.90625 0,4.20313 C0,5.59375 0.296875,7 1,8.29688 C2.79688,11.5938 6.59375,13.2969 11.2031,13.2969 C14.5938,13.2969 18.2969,12.4063 21.9063,10.5 C28.5,7 32.5,1.09375 32.5,-4 C32.5,-5.40625 32.2031,-6.79688 31.5,-8.09375"/>
<path class="Note" transform="matrix(2.12598,0,0,2.12598,1900.33,363.189)" d="M31.5,-8.09375 C29.7031,-11.4063 25.9063,-13.2031 21.2969,-13.2031 C17.9063,-13.2031 14.2031,-12.2031 10.5938,-10.2969 C4,-6.79688 0,-0.90625 0,4.20313 C0,5.59375 0.296875,7 1,8.29688 C2.79688,11.5938 6.59375,13.2969 11.2031,13.2969 C14.5938,13.2969 18.2969,12.4063 21.9063,10.5 C28.5,7 32.5,1.09375 32.5,-4 C32.5,-5.40625 32.2031,-6.79688 31.5,-8.09375"/>
<path class="Note" transform="matrix(2.12598,0,0,2.12598,2017.9,363.189)" d="M31.5,-8.09375 C29.7031,-11.4063 25.9063,-13.2031 21.2969,-13.2031 C17.9063,-13.2031 14.2031,-12.2031 10.5938,-10.2969 C4,-6.79688 0,-0.90625 0,4.20313 C0,5.59375 0.296875,7 1,8.29688 C2.79688,11.5938 6.59375,13.2969 11.2031,13.2969 C14.5938,13.2969 18.2969,12.4063 21.9063,10.5 C28.5,7 32.5,1.09375 32.5,-4 C32.5,-5.40625 32.2031,-6.79688 31.5,-8.09375"/>
<path class="Note" transform="matrix(2.12598,0,0,2.12598,2135.47,363.189)" d="M31.5,-8.09375 C29.7031,-11.4063 25.9063,-13.2031 21.2969,-13.2031 C17.9063,-13.2031 14.2031,-12.2031 10.5938,-10.2969 C4,-6.79688 0,-0.90625 0,4.20313 C0,5.59375 0.296875,7 1,8.29688 C2.79688,11.5938 6.59375,13.2969 11.2031,13.2969 C14.5938,13.2969 18.2969,12.4063 21.9063,10.5 C28.5,7 32.5,1.09375 32.5,-4 C32.5,-5.40625 32.2031,-6.79688 31.5,-8.09375"/>
<path class="Note" transform="matrix(2.12598,0,0,2.12598,2253.04,389.764)" d="M31.5,-8.09375 C29.7031,-11.4063 25.9063,-13.2031 21.2969,-13.2031 C17.9063,-13.2031 14.2031,-12.2031 10.5938,-10.2969 C4,-6.79688 0,-0.90625 0,4.20313 C0,5.59375 0.296875,7 1,8.29688 C2.79688,11.5938 6.59375,13.2969 11.2031,13.2969 C14.5938,13.2969 18.2969,12.4063 21.9063,10.5 C28.5,7 32.5,1.09375 32.5,-4 C32.5,-5.40625 32.2031,-6.79688 31.5,-8.09375"/>
<path class="Note" transform="matrix(2.12598,0,0,2.12598,2483.16,363.189)" d="M31.5,-8.09375 C29.7031,-11.4063 25.9063,-13.2031 21.2969,-13.2031 C17.9063,-13.2031 14.2031,-12.2031 10.5938,-10.2969 C4,-6.79688 0,-0.90625 0,4.20313 C0,5.59375 0.296875,7 1,8.29688 C2.79688,11.5938 6.59375,13.2969 11.2031,13.2969 C14.5938,13.2969 18.2969,12.4063 21.9063,10.5 C28.5,7 32.5,1.09375 32.5,-4 C32.5,-5.40625 32.2031,-6.79688 31.5,-8.09375"/>
<path class="Note" transform="matrix(2.12598,0,0,2.12598,2613.74,336.614)" d="M31.5,-8.09375 C29.7031,-11.4063 25.9063,-13.2031 21.2969,-13.2031 C17.9063,-13.2031 14.2031,-12.2031 10.5938,-10.2969 C4,-6.79688 0,-0.90625 0,4.20313 C0,5.59375 0.296875,7 1,8.29688 C2.79688,11.5938 6.59375,13.2969 11.2031,13.2969 C14.5938,13.2969 18.2969,12.4063 21.9063,10.5 C28.5,7 32.5,1.09375 32.5,-4 C32.5,-5.40625 32.2031,-6.79688 31.5,-8.09375"/>
<path class="Note" transform="matrix(2.12598,0,0,2.12598,2843.86,363.189)" d="M31.5,-8.09375 C29.7031,-11.4063 25.9063,-13.2031 21.2969,-13.2031 C17.9063,-13.2031 14.2031,-12.2031 10.5938,-10.2969 C4,-6.79688 0,-0.90625 0,4.20313 C0,5.59375 0.296875,7 1,8.29688 C2.79688,11.5938 6.59375,13.2969 11.2031,13.2969 C14.5938,13.2969 18.2969,12.4063 21.9063,10.5 C28.5,7 32.5,1.09375 32.5,-4 C32.5,-5.40625 32.2031,-6.79688 31.5,-8.09375"/>
<path class="Note" transform="matrix(2.12598,0,0,2.12598,2961.43,363.189)" d="M31.5,-8.09375 C29.7031,-11.4063 25.9063,-13.2031 21.2969,-13.2031 C17.9063,-13.2031 14.2031,-12.2031 10.5938,-10.2969 C4,-6.79688 0,-0.90625 0,4.20313 C0,5.59375 0.296875,7 1,8.29688 C2.79688,11.5938 6.59375,13.2969 11.2031,13.2969 C14.5938,13.2969 18.2969,12.4063 21.9063,10.5 C28.5,7 32.5,1.09375 32.5,-4 C32.5,-5.40625 32.2031,-6.79688 31.5,-8.09375"/>
<path class="Note" transform="matrix(2.12598,0,0,2.12598,3079,363.189)" d="M31.5,-8.09375 C29.7031,-11.4063 25.9063,-13.2031 21.2969,-13.2031 C17.9063,-13.2031 14.2031,-12.2031 10.5938,-10.2969 C4,-6.79688 0,-0.90625 0,4.20313 C0,5.59375 0.296875,7 1,8.29688 C2.79688,11.5938 6.59375,13.2969 11.2031,13.2969 C14.5938,13.2969 18.2969,12.4063 21.9063,10.5 C28.5,7 32.5,1.09375 32.5,-4 C32.5,-5.40625 32.2031,-6.79688 31.5,-8.09375"/>
<path class="Note" transform="matrix(2.12598,0,0,2.12598,3196.57,389.764)" d="M31.5,-8.09375 C29.7031,-11.4063 25.9063,-13.2031 21.2969,-13.2031 C17.9063,-13.2031 14.2031,-12.2031 10.5938,-10.2969 C4,-6.79688 0,-0.90625 0,4.20313 C0,5.59375 0.296875,7 1,8.29688 C2.79688,11.5938 6.59375,13.2969 11.2031,13.2969 C14.5938,13.2969 18.2969,12.4063 21.9063,10.5 C28.5,7 32.5,1.09375 32.5,-4 C32.5,-5.40625 32.2031,-6.79688 31.5,-8.09375"/>
<path class="Note" transform="matrix(2.12598,0,0,2.12598,3426.69,363.189)" d="M31.5,-8.09375 C29.7031,-11.4063 25.9063,-13.2031 21.2969,-13.2031 C17.9063,-13.2031 14.2031,-12.2031 10.5938,-10.2969 C4,-6.79688 0,-0.90625 0,4.20313 C0,5.59375 0.296875,7 1,8.29688 C2.79688,11.5938 6.59375,13.2969 11.2031,13.2969 C14.5938,13.2969 18.2969,12.4063 21.9063,10.5 C28.5,7 32.5,1.09375 32.5,-4 C32.5,-5.40625 32.2031,-6.79688 31.5,-8.09375"/>
<path class="Note" transform="matrix(2.12598,0,0,2.12598,3557.27,336.614)" d="M31.5,-8.09375 C29.7031,-11.4063 25.9063,-13.2031 21.2969,-13.2031 C17.9063,-13.2031 14.2031,-12.2031 10.5938,-10.2969 C4,-6.79688 0,-0.90625 0,4.20313 C0,5.59375 0.296875,7 1,8.29688 C2.79688,11.5938 6.59375,13.2969 11.2031,13.2969 C14.5938,13.2969 18.2969,12.4063 21.9063,10.5 C28.5,7 32.5,1.09375 32.5,-4 C32.5,-5.40625 32.2031,-6.79688 31.5,-8.09375"/>
<path class="Note" transform="matrix(2.12598,0,0,2.12598,3787.39,389.764)" d="M31.5,-8.09375 C29.7031,-11.4063 25.9063,-13.2031 21.2969,-13.2031 C17.9063,-13.2031 14.2031,-12.2031 10.5938,-10.2969 C4,-6.79688 0,-0.90625 0,4.20313 C0,5.59375 0.296875,7 1,8.29688 C2.79688,11.5938 6.59375,13.2969 11.2031,13.2969 C14.5938,13.2969 18.2969,12.4063 21.9063,10.5 C28.5,7 32.5,1.09375 32.5,-4 C32.5,-5.40625 32.2031,-6.79688 31.5,-8.09375"/>
<path class="Note" transform="matrix(2.12598,0,0,2.12598,462.645,1187.01)" d="M31.5,-8.14063 C29.7031,-11.4375 25.9063,-13.2344 21.2969,-13.2344 C17.9063,-13.2344 14.2031,-12.2344 10.5938,-10.3438 C4,-6.84375 0,-0.9375 0,4.15625 C0,5.5625 0.296875,6.96875 1,8.26563 C2.79688,11.5781 6.59375,13.2813 11.2031,13.2813 C14.5938,13.2813 18.2969,12.375 21.9063,10.4844 C28.5,6.96875 32.5,1.0625 32.5,-4.04688 C32.5,-5.4375 32.2031,-6.84375 31.5,-8.14063 M27.2031,-1.34375 C25.5,0.359375 22.0938,2.45313 18.5,4.46875 C14.9063,6.46875 11.2969,7.96875 8.90625,8.46875 C8.40625,8.57813 7.90625,8.67188 7.40625,8.67188 C5.79688,8.67188 4.59375,8.07813 3.90625,6.76563 C3.59375,6.26563 3.40625,5.67188 3.40625,5.0625 C3.40625,3.96875 4.09375,2.65625 5.20313,1.5625 C6.90625,-0.140625 10.2031,-2.23438 13.7969,-4.23438 C17.4063,-6.23438 21,-7.73438 23.4063,-8.23438 C23.9063,-8.34375 24.4063,-8.4375 24.9063,-8.4375 C26.5,-8.4375 27.7969,-7.84375 28.5,-6.54688 C28.7969,-6.04688 28.9063,-5.4375 28.9063,-4.84375 C28.9063,-3.73438 28.2969,-2.54688 27.2031,-1.34375"/>
<path class="Note" transform="matrix(2.12598,0,0,2.12598,814.002,1240.16)" d="M31.5,-8.09375 C29.7031,-11.4063 25.9063,-13.2031 21.2969,-13.2031 C17.9063,-13.2031 14.2031,-12.2031 10.5938,-10.2969 C4,-6.79688 0,-0.90625 0,4.20313 C0,5.59375 0.296875,7 1,8.29688 C2.79688,11.5938 6.59375,13.2969 11.2031,13.2969 C14.5938,13.2969 18.2969,12.4063 21.9063,10.5 C28.5,7 32.5,1.09375 32.5,-4 C32.5,-5.40625 32.2031,-6.79688 31.5,-8.09375"/>
<path class="Note" transform="matrix(2.12598,0,0,2.12598,1025.52,1213.58)" d="M31.5,-8.09375 C29.7031,-11.4063 25.9063,-13.2031 21.2969,-13.2031 C17.9063,-13.2031 14.2031,-12.2031 10.5938,-10.2969 C4,-6.79688 0,-0.90625 0,4.20313 C0,5.59375 0.296875,7 1,8.29688 C2.79688,11.5938 6.59375,13.2969 11.2031,13.2969 C14.5938,13.2969 18.2969,12.4063 21.9063,10.5 C28.5,7 32.5,1.09375 32.5,-4 C32.5,-5.40625 32.2031,-6.79688 31.5,-8.09375"/>
<path class="Note" transform="matrix(2.12598,0,0,2.12598,1122.57,1240.16)" d="M31.5,-8.09375 C29.7031,-11.4063 25.9063,-13.2031 21.2969,-13.2031 C17.9063,-13.2031 14.2031,-12.2031 10.5938,-10.2969 C4,-6.79688 0,-0.90625 0,4.20313 C0,5.59375 0.296875,7 1,8.29688 C2.79688,11.5938 6.59375,13.2969 11.2031,13.2969 C14.5938,13.2969 18.2969,12.4063 21.9063,10.5 C28.5,7 32.5,1.09375 32.5,-4 C32.5,-5.40625 32.2031,-6.79688 31.5,-8.09375"/>
<path class="Note" transform="matrix(2.12598,0,0,2.12598,1418.75,1107.28)" d="M31.5,-8.14063 C29.7031,-11.4375 25.9063,-13.2344 21.2969,-13.2344 C17.9063,-13.2344 14.2031,-12.2344 10.5938,-10.3438 C4,-6.84375 0,-0.9375 0,4.15625 C0,5.5625 0.296875,6.96875 1,8.26563 C2.79688,11.5781 6.59375,13.2813 11.2031,13.2813 C14.5938,13.2813 18.2969,12.375 21.9063,10.4844 C28.5,6.96875 32.5,1.0625 32.5,-4.04688 C32.5,-5.4375 32.2031,-6.84375 31.5,-8.14063 M27.2031,-1.34375 C25.5,0.359375 22.0938,2.45313 18.5,4.46875 C14.9063,6.46875 11.2969,7.96875 8.90625,8.46875 C8.40625,8.57813 7.90625,8.67188 7.40625,8.67188 C5.79688,8.67188 4.59375,8.07813 3.90625,6.76563 C3.59375,6.26563 3.40625,5.67188 3.40625,5.0625 C3.40625,3.96875 4.09375,2.65625 5.20313,1.5625 C6.90625,-0.140625 10.2031,-2.23438 13.7969,-4.23438 C17.4063,-6.23438 21,-7.73438 23.4063,-8.23438 C23.9063,-8.34375 24.4063,-8.4375 24.9063,-8.4375 C26.5,-8.4375 27.7969,-7.84375 28.5,-6.54688 C28.7969,-6.04688 28.9063,-5.4375 28.9063,-4.84375 C28.9063,-3.73438 28.2969,-2.54688 27.2031,-1.34375"/>
<path class="Note" transform="matrix(2.12598,0,0,2.12598,1675.75,1107.28)" d="M31.5,-8.14063 C29.7031,-11.4375 25.9063,-13.2344 21.2969,-13.2344 C17.9063,-13.2344 14.2031,-12.2344 10.5938,-10.3438 C4,-6.84375 0,-0.9375 0,4.15625 C0,5.5625 0.296875,6.96875 1,8.26563 C2.79688,11.5781 6.59375,13.2813 11.2031,13.2813 C14.5938,13.2813 18.2969,12.375 21.9063,10.4844 C28.5,6.96875 32.5,1.0625 32.5,-4.04688 C32.5,-5.4375 32.2031,-6.84375 31.5,-8.14063 M27.2031,-1.34375 C25.5,0.359375 22.0938,2.45313 18.5,4.46875 C14.9063,6.46875 11.2969,7.96875 8.90625,8.46875 C8.40625,8.57813 7.90625,8.67188 7.40625,8.67188 C5.79688,8.67188 4.59375,8.07813 3.90625,6.76563 C3.59375,6.26563 3.40625,5.67188 3.40625,5.0625 C3.40625,3.96875 4.09375,2.65625 5.20313,1.5625 C6.90625,-0.140625 10.2031,-2.23438 13.7969,-4.23438 C17.4063,-6.23438 21,-7.73438 23.4063,-8.23438 C23.9063,-8.34375 24.4063,-8.4375 24.9063,-8.4375 C26.5,-8.4375 27.7969,-7.84375 28.5,-6.54688 C28.7969,-6.04688 28.9063,-5.4375 28.9063,-4.84375 C28.9063,-3.73438 28.2969,-2.54688 27.2031,-1.34375"/>
<path class="Note" transform="matrix(2.12598,0,0,2.12598,2072.83,1107.28)" d="M31.5,-8.09375 C29.7031,-11.4063 25.9063,-13.2031 21.2969,-13.2031 C17.9063,-13.2031 14.2031,-12.2031 10.5938,-10.2969 C4,-6.79688 0,-0.90625 0,4.20313 C0,5.59375 0.296875,7 1,8.29688 C2.79688,11.5938 6.59375,13.2969 11.2031,13.2969 C14.5938,13.2969 18.2969,12.4063 21.9063,10.5 C28.5,7 32.5,1.09375 32.5,-4 C32.5,-5.40625 32.2031,-6.79688 31.5,-8.09375"/>
<path class="Note" transform="matrix(2.12598,0,0,2.12598,2173.79,1133.86)" d="M31.5,-8.09375 C29.7031,-11.4063 25.9063,-13.2031 21.2969,-13.2031 C17.9063,-13.2031 14.2031,-12.2031 10.5938,-10.2969 C4,-6.79688 0,-0.90625 0,4.20313 C0,5.59375 0.296875,7 1,8.29688 C2.79688,11.5938 6.59375,13.2969 11.2031,13.2969 C14.5938,13.2969 18.2969,12.4063 21.9063,10.5 C28.5,7 32.5,1.09375 32.5,-4 C32.5,-5.40625 32.2031,-6.79688 31.5,-8.09375"/>
<path class="Note" transform="matrix(2.12598,0,0,2.12598,2403.91,1107.28)" d="M31.5,-8.09375 C29.7031,-11.4063 25.9063,-13.2031 21.2969,-13.2031 C17.9063,-13.2031 14.2031,-12.2031 10.5938,-10.2969 C4,-6.79688 0,-0.90625 0,4.20313 C0,5.59375 0.296875,7 1,8.29688 C2.79688,11.5938 6.59375,13.2969 11.2031,13.2969 C14.5938,13.2969 18.2969,12.4063 21.9063,10.5 C28.5,7 32.5,1.09375 32.5,-4 C32.5,-5.40625 32.2031,-6.79688 31.5,-8.09375"/>
<path class="Note" transform="matrix(2.12598,0,0,2.12598,2541.86,1080.71)" d="M31.5,-8.09375 C29.7031,-11.4063 25.9063,-13.2031 21.2969,-13.2031 C17.9063,-13.2031 14.2031,-12.2031 10.5938,-10.2969 C4,-6.79688 0,-0.90625 0,4.20313 C0,5.59375 0.296875,7 1,8.29688 C2.79688,11.5938 6.59375,13.2969 11.2031,13.2969 C14.5938,13.2969 18.2969,12.4063 21.9063,10.5 C28.5,7 32.5,1.09375 32.5,-4 C32.5,-5.40625 32.2031,-6.79688 31.5,-8.09375"/>
<path class="Note" transform="matrix(2.12598,0,0,2.12598,2771.98,1133.86)" d="M31.5,-8.09375 C29.7031,-11.4063 25.9063,-13.2031 21.2969,-13.2031 C17.9063,-13.2031 14.2031,-12.2031 10.5938,-10.2969 C4,-6.79688 0,-0.90625 0,4.20313 C0,5.59375 0.296875,7 1,8.29688 C2.79688,11.5938 6.59375,13.2969 11.2031,13.2969 C14.5938,13.2969 18.2969,12.4063 21.9063,10.5 C28.5,7 32.5,1.09375 32.5,-4 C32.5,-5.40625 32.2031,-6.79688 31.5,-8.09375"/>
<path class="Note" transform="matrix(2.12598,0,0,2.12598,2920.02,1133.86)" d="M31.5,-8.09375 C29.7031,-11.4063 25.9063,-13.2031 21.2969,-13.2031 C17.9063,-13.2031 14.2031,-12.2031 10.5938,-10.2969 C4,-6.79688 0,-0.90625 0,4.20313 C0,5.59375 0.296875,7 1,8.29688 C2.79688,11.5938 6.59375,13.2969 11.2031,13.2969 C14.5938,13.2969 18.2969,12.4063 21.9063,10.5 C28.5,7 32.5,1.09375 32.5,-4 C32.5,-5.40625 32.2031,-6.79688 31.5,-8.09375"/>
<path class="Note" transform="matrix(2.12598,0,0,2.12598,3020.98,1160.43)" d="M31.5,-8.09375 C29.7031,-11.4063 25.9063,-13.2031 21.2969,-13.2031 C17.9063,-13.2031 14.2031,-12.2031 10.5938,-10.2969 C4,-6.79688 0,-0.90625 0,4.20313 C0,5.59375 0.296875,7 1,8.29688 C2.79688,11.5938 6.59375,13.2969 11.2031,13.2969 C14.5938,13.2969 18.2969,12.4063 21.9063,10.5 C28.5,7 32.5,1.09375 32.5,-4 C32.5,-5.40625 32.2031,-6.79688 31.5,-8.09375"/>
<path class="Note" transform="matrix(2.12598,0,0,2.12598,3251.1,1133.86)" d="M31.5,-8.09375 C29.7031,-11.4063 25.9063,-13.2031 21.2969,-13.2031 C17.9063,-13.2031 14.2031,-12.2031 10.5938,-10.2969 C4,-6.79688 0,-0.90625 0,4.20313 C0,5.59375 0.296875,7 1,8.29688 C2.79688,11.5938 6.59375,13.2969 11.2031,13.2969 C14.5938,13.2969 18.2969,12.4063 21.9063,10.5 C28.5,7 32.5,1.09375 32.5,-4 C32.5,-5.40625 32.2031,-6.79688 31.5,-8.09375"/>
<path class="Note" transform="matrix(2.12598,0,0,2.12598,3389.05,1107.28)" d="M31.5,-8.09375 C29.7031,-11.4063 25.9063,-13.2031 21.2969,-13.2031 C17.9063,-13.2031 14.2031,-12.2031 10.5938,-10.2969 C4,-6.79688 0,-0.90625 0,4.20313 C0,5.59375 0.296875,7 1,8.29688 C2.79688,11.5938 6.59375,13.2969 11.2031,13.2969 C14.5938,13.2969 18.2969,12.4063 21.9063,10.5 C28.5,7 32.5,1.09375 32.5,-4 C32.5,-5.40625 32.2031,-6.79688 31.5,-8.09375"/>
<path class="Note" transform="matrix(2.12598,0,0,2.12598,3619.17,1160.43)" d="M31.5,-8.09375 C29.7031,-11.4063 25.9063,-13.2031 21.2969,-13.2031 C17.9063,-13.2031 14.2031,-12.2031 10.5938,-10.2969 C4,-6.79688 0,-0.90625 0,4.20313 C0,5.59375 0.296875,7 1,8.29688 C2.79688,11.5938 6.59375,13.2969 11.2031,13.2969 C14.5938,13.2969 18.2969,12.4063 21.9063,10.5 C28.5,7 32.5,1.09375 32.5,-4 C32.5,-5.40625 32.2031,-6.79688 31.5,-8.09375"/>
<path class="Note" transform="matrix(2.12598,0,0,2.12598,3739.19,1160.43)" d="M31.5,-8.09375 C29.7031,-11.4063 25.9063,-13.2031 21.2969,-13.2031 C17.9063,-13.2031 14.2031,-12.2031 10.5938,-10.2969 C4,-6.79688 0,-0.90625 0,4.20313 C0,5.59375 0.296875,7 1,8.29688 C2.79688,11.5938 6.59375,13.2969 11.2031,13.2969 C14.5938,13.2969 18.2969,12.4063 21.9063,10.5 C28.5,7 32.5,1.09375 32.5,-4 C32.5,-5.40625 32.2031,-6.79688 31.5,-8.09375"/>
<path class="Note" transform="matrix(2.12598,0,0,2.12598,3859.21,1160.43)" d="M31.5,-8.09375 C29.7031,-11.4063 25.9063,-13.2031 21.2969,-13.2031 C17.9063,-13.2031 14.2031,-12.2031 10.5938,-10.2969 C4,-6.79688 0,-0.90625 0,4.20313 C0,5.59375 0.296875,7 1,8.29688 C2.79688,11.5938 6.59375,13.2969 11.2031,13.2969 C14.5938,13.2969 18.2969,12.4063 21.9063,10.5 C28.5,7 32.5,1.09375 32.5,-4 C32.5,-5.40625 32.2031,-6.79688 31.5,-8.09375"/>
<path class="Note" transform="matrix(2.12598,0,0,2.12598,3979.24,1187.01)" d="M31.5,-8.09375 C29.7031,-11.4063 25.9063,-13.2031 21.2969,-13.2031 C17.9063,-13.2031 14.2031,-12.2031 10.5938,-10.2969 C4,-6.79688 0,-0.90625 0,4.20313 C0,5.59375 0.296875,7 1,8.29688 C2.79688,11.5938 6.59375,13.2969 11.2031,13.2969 C14.5938,13.2969 18.2969,12.4063 21.9063,10.5 C28.5,7 32.5,1.09375 32.5,-4 C32.5,-5.40625 32.2031,-6.79688 31.5,-8.09375"/>
<path class="Note" transform="matrix(2.12598,0,0,2.12598,462.645,1957.68)" d="M31.5,-8.09375 C29.7031,-11.4063 25.9063,-13.2031 21.2969,-13.2031 C17.9063,-13.2031 14.2031,-12.2031 10.5938,-10.2969 C4,-6.79688 0,-0.90625 0,4.20313 C0,5.59375 0.296875,7 1,8.29688 C2.79688,11.5938 6.59375,13.2969 11.2031,13.2969 C14.5938,13.2969 18.2969,12.4063 21.9063,10.5 C28.5,7 32.5,1.09375 32.5,-4 C32.5,-5.40625 32.2031,-6.79688 31.5,-8.09375"/>
<path class="Note" transform="matrix(2.12598,0,0,2.12598,747.986,1931.1)" d="M31.5,-8.09375 C29.7031,-11.4063 25.9063,-13.2031 21.2969,-13.2031 C17.9063,-13.2031 14.2031,-12.2031 10.5938,-10.2969 C4,-6.79688 0,-0.90625 0,4.20313 C0,5.59375 0.296875,7 1,8.29688 C2.79688,11.5938 6.59375,13.2969 11.2031,13.2969 C14.5938,13.2969 18.2969,12.4063 21.9063,10.5 C28.5,7 32.5,1.09375 32.5,-4 C32.5,-5.40625 32.2031,-6.79688 31.5,-8.09375"/>
<path class="Note" transform="matrix(2.12598,0,0,2.12598,1114.65,1984.25)" d="M31.5,-8.09375 C29.7031,-11.4063 25.9063,-13.2031 21.2969,-13.2031 C17.9063,-13.2031 14.2031,-12.2031 10.5938,-10.2969 C4,-6.79688 0,-0.90625 0,4.20313 C0,5.59375 0.296875,7 1,8.29688 C2.79688,11.5938 6.59375,13.2969 11.2031,13.2969 C14.5938,13.2969 18.2969,12.4063 21.9063,10.5 C28.5,7 32.5,1.09375 32.5,-4 C32.5,-5.40625 32.2031,-6.79688 31.5,-8.09375"/>
<path class="Note" transform="matrix(2.12598,0,0,2.12598,1379.52,2037.4)" d="M31.5,-8.09375 C29.7031,-11.4063 25.9063,-13.2031 21.2969,-13.2031 C17.9063,-13.2031 14.2031,-12.2031 10.5938,-10.2969 C4,-6.79688 0,-0.90625 0,4.20313 C0,5.59375 0.296875,7 1,8.29688 C2.79688,11.5938 6.59375,13.2969 11.2031,13.2969 C14.5938,13.2969 18.2969,12.4063 21.9063,10.5 C28.5,7 32.5,1.09375 32.5,-4 C32.5,-5.40625 32.2031,-6.79688 31.5,-8.09375"/>
<path class="Note" transform="matrix(2.12598,0,0,2.12598,1707.12,2037.4)" d="M31.5,-8.09375 C29.7031,-11.4063 25.9063,-13.2031 21.2969,-13.2031 C17.9063,-13.2031 14.2031,-12.2031 10.5938,-10.2969 C4,-6.79688 0,-0.90625 0,4.20313 C0,5.59375 0.296875,7 1,8.29688 C2.79688,11.5938 6.59375,13.2969 11.2031,13.2969 C14.5938,13.2969 18.2969,12.4063 21.9063,10.5 C28.5,7 32.5,1.09375 32.5,-4 C32.5,-5.40625 32.2031,-6.79688 31.5,-8.09375"/>
<path class="Note" transform="matrix(2.12598,0,0,2.12598,1972,2063.98)" d="M31.5,-8.09375 C29.7031,-11.4063 25.9063,-13.2031 21.2969,-13.2031 C17.9063,-13.2031 14.2031,-12.2031 10.5938,-10.2969 C4,-6.79688 0,-0.90625 0,4.20313 C0,5.59375 0.296875,7 1,8.29688 C2.79688,11.5938 6.59375,13.2969 11.2031,13.2969 C14.5938,13.2969 18.2969,12.4063 21.9063,10.5 C28.5,7 32.5,1.09375 32.5,-4 C32.5,-5.40625 32.2031,-6.79688 31.5,-8.09375"/>
<path class="Note" transform="matrix(2.12598,0,0,2.12598,2333.18,2063.98)" d="M31.5,-8.09375 C29.7031,-11.4063 25.9063,-13.2031 21.2969,-13.2031 C17.9063,-13.2031 14.2031,-12.2031 10.5938,-10.2969 C4,-6.79688 0,-0.90625 0,4.20313 C0,5.59375 0.296875,7 1,8.29688 C2.79688,11.5938 6.59375,13.2969 11.2031,13.2969 C14.5938,13.2969 18.2969,12.4063 21.9063,10.5 C28.5,7 32.5,1.09375 32.5,-4 C32.5,-5.40625 32.2031,-6.79688 31.5,-8.09375"/>
<path class="Note" transform="matrix(2.12598,0,0,2.12598,2598.06,2037.4)" d="M31.5,-8.09375 C29.7031,-11.4063 25.9063,-13.2031 21.2969,-13.2031 C17.9063,-13.2031 14.2031,-12.2031 10.5938,-10.2969 C4,-6.79688 0,-0.90625 0,4.20313 C0,5.59375 0.296875,7 1,8.29688 C2.79688,11.5938 6.59375,13.2969 11.2031,13.2969 C14.5938,13.2969 18.2969,12.4063 21.9063,10.5 C28.5,7 32.5,1.09375 32.5,-4 C32.5,-5.40625 32.2031,-6.79688 31.5,-8.09375"/>
<path class="Note" transform="matrix(2.12598,0,0,2.12598,2925.65,2010.83)" d="M31.5,-8.09375 C29.7031,-11.4063 25.9063,-13.2031 21.2969,-13.2031 C17.9063,-13.2031 14.2031,-12.2031 10.5938,-10.2969 C4,-6.79688 0,-0.90625 0,4.20313 C0,5.59375 0.296875,7 1,8.29688 C2.79688,11.5938 6.59375,13.2969 11.2031,13.2969 C14.5938,13.2969 18.2969,12.4063 21.9063,10.5 C28.5,7 32.5,1.09375 32.5,-4 C32.5,-5.40625 32.2031,-6.79688 31.5,-8.09375"/>
<path class="Note" transform="matrix(2.12598,0,0,2.12598,3190.53,2037.4)" d="M31.5,-8.09375 C29.7031,-11.4063 25.9063,-13.2031 21.2969,-13.2031 C17.9063,-13.2031 14.2031,-12.2031 10.5938,-10.2969 C4,-6.79688 0,-0.90625 0,4.20313 C0,5.59375 0.296875,7 1,8.29688 C2.79688,11.5938 6.59375,13.2969 11.2031,13.2969 C14.5938,13.2969 18.2969,12.4063 21.9063,10.5 C28.5,7 32.5,1.09375 32.5,-4 C32.5,-5.40625 32.2031,-6.79688 31.5,-8.09375"/>
<path class="Note" transform="matrix(2.12598,0,0,2.12598,3621.38,1984.25)" d="M31.5,-8.14063 C29.7031,-11.4375 25.9063,-13.2344 21.2969,-13.2344 C17.9063,-13.2344 14.2031,-12.2344 10.5938,-10.3438 C4,-6.84375 0,-0.9375 0,4.15625 C0,5.5625 0.296875,6.96875 1,8.26563 C2.79688,11.5781 6.59375,13.2813 11.2031,13.2813 C14.5938,13.2813 18.2969,12.375 21.9063,10.4844 C28.5,6.96875 32.5,1.0625 32.5,-4.04688 C32.5,-5.4375 32.2031,-6.84375 31.5,-8.14063 M27.2031,-1.34375 C25.5,0.359375 22.0938,2.45313 18.5,4.46875 C14.9063,6.46875 11.2969,7.96875 8.90625,8.46875 C8.40625,8.57813 7.90625,8.67188 7.40625,8.67188 C5.79688,8.67188 4.59375,8.07813 3.90625,6.76563 C3.59375,6.26563 3.40625,5.67188 3.40625,5.0625 C3.40625,3.96875 4.09375,2.65625 5.20313,1.5625 C6.90625,-0.140625 10.2031,-2.23438 13.7969,-4.23438 C17.4063,-6.23438 21,-7.73438 23.4063,-8.23438 C23.9063,-8.34375 24.4063,-8.4375 24.9063,-8.4375 C26.5,-8.4375 27.7969,-7.84375 28.5,-6.54688 C28.7969,-6.04688 28.9063,-5.4375 28.9063,-4.84375 C28.9063,-3.73438 28.2969,-2.54688 27.2031,-1.34375"/>
<path class="Clef" transform="matrix(2.12598,0,0,2.12598,113.386,602.362)" d="M63.3594,-5.92188 C62.125,-11.3438 59.4844,-15.1719 58.7031,-16.2031 C55.5156,-20.4844 51.5,-23.3281 46.8125,-24.6875 C43.7031,-25.5625 40.7031,-25.6875 38.2813,-25.5 C37.2344,-31.5156 36.2344,-37.3906 35.3281,-42.8438 C40.7813,-49.0156 44.4063,-54.8125 46.6875,-59.1094 C50.1563,-65.6875 51.2969,-70.2656 51.3594,-70.4688 C53.0781,-75.6875 53.4375,-83.3906 52.3281,-91.5938 C51.3281,-99.1406 49.2344,-105.859 46.875,-109.109 C45.8594,-110.531 44.7969,-111.266 43.7656,-111.266 C42.5469,-111.266 40.0313,-110.031 37.1406,-107.25 C34.8438,-105.063 31.5781,-101.172 29.0156,-95.1563 C26.0156,-88.0938 25.7969,-78.6094 26.1563,-71.8906 C26.5313,-64.6094 27.6406,-58.9219 27.6563,-58.875 C27.6719,-58.7813 27.9375,-57.2813 28.375,-54.7188 C28.1563,-54.4844 27.9063,-54.2656 27.6563,-54.0156 C26.625,-53.0156 25.4375,-51.8906 24.0469,-50.5 C23.1875,-49.6406 22.2344,-48.7344 21.2344,-47.7656 C12.7969,-39.625 0,-27.2969 0,-8.14063 C0,-3.4375 0.90625,0.984375 2.6875,5 C4.26563,8.59375 6.5625,11.875 9.5,14.75 C17.2344,22.3125 27.8281,25.5156 34.875,25.3594 C37.8281,25.2813 40.4688,25.0469 42.8594,24.5938 C44.6875,34.2031 45.8281,41.2344 45.8594,46.5781 C45.9063,53.0938 44.25,57.0781 40.3594,59.8438 C37.9219,61.5781 35.1094,62.5313 32.0156,62.6719 C29.4219,62.7969 27.1563,62.3281 25.7344,61.9219 L25.7188,61.9219 C25.7188,61.9219 25.4375,61.8281 25.4219,61.6406 C25.4063,61.4531 25.7656,61.4063 25.7656,61.4063 L25.7969,61.4063 C27.7188,60.9688 31.2813,59.7344 33.6406,56.4375 C35.4375,53.9063 36.3125,49.2813 34.4688,45.3438 C33.3594,42.9531 30.8594,40 25.2344,39.5469 C22.7344,39.3438 20.4688,39.8594 18.4688,41.0625 C16.6563,42.1406 15.1563,43.7813 14.1094,45.7813 C11.6563,50.4844 12.1094,56.2188 15.2344,60.0625 C18.2031,63.6875 22.8125,66 28.25,66.5781 C29.1094,66.6719 29.9531,66.7031 30.7969,66.7031 C35.2344,66.7031 39.625,65.5 43.2031,63.2969 C46.8594,60.7188 48.9844,56.7344 49.6563,51.1094 C50.2188,46.4688 49.8281,40.5469 48.4375,32.4688 C48.0781,30.375 47.5313,27.3438 46.875,23.5938 C52.625,21.6719 56.7813,18.0938 60.5469,12.2344 C63.8438,6.5 64.7813,0.390625 63.3594,-5.92188 M29.1406,20.2969 C24.5,19.0781 20.0625,16.5781 16.3125,13.0625 C15,11.8438 13.125,9.67188 11.6563,6.28125 C10.2969,3.10938 9.625,-0.328125 9.6875,-3.90625 C9.75,-8.60938 11.0625,-13.4375 13.5625,-18.2188 C16.4844,-23.7969 21.0469,-29.3281 27.1094,-34.6563 C28.5625,-35.9375 29.9375,-37.2188 31.2188,-38.5 C31.9844,-34.2344 32.8125,-29.5469 33.6875,-24.6719 C29.8438,-23.4063 25.0938,-20.25 21.9844,-14.5938 C18.4375,-8.03125 18.5781,-2.5 19.3125,0.984375 C20.25,5.4375 22.7813,9.20313 26.2344,11.2969 C27.1719,11.8594 31.2969,13.9844 33.1406,13.4063 C33.5156,13.2969 33.7813,13.0625 33.9219,12.7344 C34.4375,11.5625 33.4063,10.9219 31.8594,9.96875 C31.25,9.59375 30.5781,9.17188 29.8594,8.64063 C26.5313,6.15625 25.0781,1.70313 26.1563,-2.6875 C26.7344,-5.07813 28.0156,-7.25 29.8594,-8.95313 C31.5156,-10.5 33.5625,-11.5938 35.9375,-12.2344 C37.9844,-0.984375 40.0469,10.1719 41.6875,18.5313 C41.8125,19.2188 41.9531,19.8906 42.0781,20.5625 C37.7031,21.5 33.3594,21.4063 29.1406,20.2969 M40.4688,-12.9063 C50.8125,-13.375 55.0781,-5.9375 55.9688,-1.10938 C56.4375,1.4375 56.4375,5.875 54.8906,10.0938 C53.7188,13.2656 51.2656,17.3438 46.125,19.4063 C46.0625,18.9844 45.9844,18.5469 45.9063,18.125 C44.3594,9.34375 42.4219,-1.65625 40.4688,-12.9063 M33.1406,-83.8594 C34.9219,-89.5938 37.6563,-92.8438 39.6563,-94.5781 C41.4063,-96.0938 43.0469,-96.8125 43.9688,-96.8125 C44.1094,-96.8125 44.2344,-96.7813 44.3281,-96.75 C44.7969,-96.6094 45.3281,-96.0469 45.7969,-95.1719 C48.1094,-90.8906 47.3594,-84.1719 46.0156,-79.7344 C44.3906,-74.3281 41.4688,-68.7188 32.6719,-59.1094 C32.5,-60.2188 32.3438,-61.2656 32.1875,-62.25 C30.9375,-70.5313 31.2656,-77.8125 33.1406,-83.8594"/>
<path class="Clef" transform="matrix(2.12598,0,0,2.12598,113.386,1399.61)" d="M63.3594,-5.92188 C62.125,-11.3438 59.4844,-15.1719 58.7031,-16.2031 C55.5156,-20.4844 51.5,-23.3281 46.8125,-24.6875 C43.7031,-25.5625 40.7031,-25.6875 38.2813,-25.5 C37.2344,-31.5156 36.2344,-37.3906 35.3281,-42.8438 C40.7813,-49.0156 44.4063,-54.8125 46.6875,-59.1094 C50.1563,-65.6875 51.2969,-70.2656 51.3594,-70.4688 C53.0781,-75.6875 53.4375,-83.3906 52.3281,-91.5938 C51.3281,-99.1406 49.2344,-105.859 46.875,-109.109 C45.8594,-110.531 44.7969,-111.266 43.7656,-111.266 C42.5469,-111.266 40.0313,-110.031 37.1406,-107.25 C34.8438,-105.063 31.5781,-101.172 29.0156,-95.1563 C26.0156,-88.0938 25.7969,-78.6094 26.1563,-71.8906 C26.5313,-64.6094 27.6406,-58.9219 27.6563,-58.875 C27.6719,-58.7813 27.9375,-57.2813 28.375,-54.7188 C28.1563,-54.4844 27.9063,-54.2656 27.6563,-54.0156 C26.625,-53.0156 25.4375,-51.8906 24.0469,-50.5 C23.1875,-49.6406 22.2344,-48.7344 21.2344,-47.7656 C12.7969,-39.625 0,-27.2969 0,-8.14063 C0,-3.4375 0.90625,0.984375 2.6875,5 C4.26563,8.59375 6.5625,11.875 9.5,14.75 C17.2344,22.3125 27.8281,25.5156 34.875,25.3594 C37.8281,25.2813 40.4688,25.0469 42.8594,24.5938 C44.6875,34.2031 45.8281,41.2344 45.8594,46.5781 C45.9063,53.0938 44.25,57.0781 40.3594,59.8438 C37.9219,61.5781 35.1094,62.5313 32.0156,62.6719 C29.4219,62.7969 27.1563,62.3281 25.7344,61.9219 L25.7188,61.9219 C25.7188,61.9219 25.4375,61.8281 25.4219,61.6406 C25.4063,61.4531 25.7656,61.4063 25.7656,61.4063 L25.7969,61.4063 C27.7188,60.9688 31.2813,59.7344 33.6406,56.4375 C35.4375,53.9063 36.3125,49.2813 34.4688,45.3438 C33.3594,42.9531 30.8594,40 25.2344,39.5469 C22.7344,39.3438 20.4688,39.8594 18.4688,41.0625 C16.6563,42.1406 15.1563,43.7813 14.1094,45.7813 C11.6563,50.4844 12.1094,56.2188 15.2344,60.0625 C18.2031,63.6875 22.8125,66 28.25,66.5781 C29.1094,66.6719 29.9531,66.7031 30.7969,66.7031 C35.2344,66.7031 39.625,65.5 43.2031,63.2969 C46.8594,60.7188 48.9844,56.7344 49.6563,51.1094 C50.2188,46.4688 49.8281,40.5469 48.4375,32.4688 C48.0781,30.375 47.5313,27.3438 46.875,23.5938 C52.625,21.6719 56.7813,18.0938 60.5469,12.2344 C63.8438,6.5 64.7813,0.390625 63.3594,-5.92188 M29.1406,20.2969 C24.5,19.0781 20.0625,16.5781 16.3125,13.0625 C15,11.8438 13.125,9.67188 11.6563,6.28125 C10.2969,3.10938 9.625,-0.328125 9.6875,-3.90625 C9.75,-8.60938 11.0625,-13.4375 13.5625,-18.2188 C16.4844,-23.7969 21.0469,-29.3281 27.1094,-34.6563 C28.5625,-35.9375 29.9375,-37.2188 31.2188,-38.5 C31.9844,-34.2344 32.8125,-29.5469 33.6875,-24.6719 C29.8438,-23.4063 25.0938,-20.25 21.9844,-14.5938 C18.4375,-8.03125 18.5781,-2.5 19.3125,0.984375 C20.25,5.4375 22.7813,9.20313 26.2344,11.2969 C27.1719,11.8594 31.2969,13.9844 33.1406,13.4063 C33.5156,13.2969 33.7813,13.0625 33.9219,12.7344 C34.4375,11.5625 33.4063,10.9219 31.8594,9.96875 C31.25,9.59375 30.5781,9.17188 29.8594,8.64063 C26.5313,6.15625 25.0781,1.70313 26.1563,-2.6875 C26.7344,-5.07813 28.0156,-7.25 29.8594,-8.95313 C31.5156,-10.5 33.5625,-11.5938 35.9375,-12.2344 C37.9844,-0.984375 40.0469,10.1719 41.6875,18.5313 C41.8125,19.2188 41.9531,19.8906 42.0781,20.5625 C37.7031,21.5 33.3594,21.4063 29.1406,20.2969 M40.4688,-12.9063 C50.8125,-13.375 55.0781,-5.9375 55.9688,-1.10938 C56.4375,1.4375 56.4375,5.875 54.8906,10.0938 C53.7188,13.2656 51.2656,17.3438 46.125,19.4063 C46.0625,18.9844 45.9844,18.5469 45.9063,18.125 C44.3594,9.34375 42.4219,-1.65625 40.4688,-12.9063 M33.1406,-83.8594 C34.9219,-89.5938 37.6563,-92.8438 39.6563,-94.5781 C41.4063,-96.0938 43.0469,-96.8125 43.9688,-96.8125 C44.1094,-96.8125 44.2344,-96.7813 44.3281,-96.75 C44.7969,-96.6094 45.3281,-96.0469 45.7969,-95.1719 C48.1094,-90.8906 47.3594,-84.1719 46.0156,-79.7344 C44.3906,-74.3281 41.4688,-68.7188 32.6719,-59.1094 C32.5,-60.2188 32.3438,-61.2656 32.1875,-62.25 C30.9375,-70.5313 31.2656,-77.8125 33.1406,-83.8594"/>
<path class="Clef" transform="matrix(2.12598,0,0,2.12598,113.386,2196.85)" d="M63.3594,-5.92188 C62.125,-11.3438 59.4844,-15.1719 58.7031,-16.2031 C55.5156,-20.4844 51.5,-23.3281 46.8125,-24.6875 C43.7031,-25.5625 40.7031,-25.6875 38.2813,-25.5 C37.2344,-31.5156 36.2344,-37.3906 35.3281,-42.8438 C40.7813,-49.0156 44.4063,-54.8125 46.6875,-59.1094 C50.1563,-65.6875 51.2969,-70.2656 51.3594,-70.4688 C53.0781,-75.6875 53.4375,-83.3906 52.3281,-91.5938 C51.3281,-99.1406 49.2344,-105.859 46.875,-109.109 C45.8594,-110.531 44.7969,-111.266 43.7656,-111.266 C42.5469,-111.266 40.0313,-110.031 37.1406,-107.25 C34.8438,-105.063 31.5781,-101.172 29.0156,-95.1563 C26.0156,-88.0938 25.7969,-78.6094 26.1563,-71.8906 C26.5313,-64.6094 27.6406,-58.9219 27.6563,-58.875 C27.6719,-58.7813 27.9375,-57.2813 28.375,-54.7188 C28.1563,-54.4844 27.9063,-54.2656 27.6563,-54.0156 C26.625,-53.0156 25.4375,-51.8906 24.0469,-50.5 C23.1875,-49.6406 22.2344,-48.7344 21.2344,-47.7656 C12.7969,-39.625 0,-27.2969 0,-8.14063 C0,-3.4375 0.90625,0.984375 2.6875,5 C4.26563,8.59375 6.5625,11.875 9.5,14.75 C17.2344,22.3125 27.8281,25.5156 34.875,25.3594 C37.8281,25.2813 40.4688,25.0469 42.8594,24.5938 C44.6875,34.2031 45.8281,41.2344 45.8594,46.5781 C45.9063,53.0938 44.25,57.0781 40.3594,59.8438 C37.9219,61.5781 35.1094,62.5313 32.0156,62.6719 C29.4219,62.7969 27.1563,62.3281 25.7344,61.9219 L25.7188,61.9219 C25.7188,61.9219 25.4375,61.8281 25.4219,61.6406 C25.4063,61.4531 25.7656,61.4063 25.7656,61.4063 L25.7969,61.4063 C27.7188,60.9688 31.2813,59.7344 33.6406,56.4375 C35.4375,53.9063 36.3125,49.2813 34.4688,45.3438 C33.3594,42.9531 30.8594,40 25.2344,39.5469 C22.7344,39.3438 20.4688,39.8594 18.4688,41.0625 C16.6563,42.1406 15.1563,43.7813 14.1094,45.7813 C11.6563,50.4844 12.1094,56.2188 15.2344,60.0625 C18.2031,63.6875 22.8125,66 28.25,66.5781 C29.1094,66.6719 29.9531,66.7031 30.7969,66.7031 C35.2344,66.7031 39.625,65.5 43.2031,63.2969 C46.8594,60.7188 48.9844,56.7344 49.6563,51.1094 C50.2188,46.4688 49.8281,40.5469 48.4375,32.4688 C48.0781,30.375 47.5313,27.3438 46.875,23.5938 C52.625,21.6719 56.7813,18.0938 60.5469,12.2344 C63.8438,6.5 64.7813,0.390625 63.3594,-5.92188 M29.1406,20.2969 C24.5,19.0781 20.0625,16.5781 16.3125,13.0625 C15,11.8438 13.125,9.67188 11.6563,6.28125 C10.2969,3.10938 9.625,-0.328125 9.6875,-3.90625 C9.75,-8.60938 11.0625,-13.4375 13.5625,-18.2188 C16.4844,-23.7969 21.0469,-29.3281 27.1094,-34.6563 C28.5625,-35.9375 29.9375,-37.2188 31.2188,-38.5 C31.9844,-34.2344 32.8125,-29.5469 33.6875,-24.6719 C29.8438,-23.4063 25.0938,-20.25 21.9844,-14.5938 C18.4375,-8.03125 18.5781,-2.5 19.3125,0.984375 C20.25,5.4375 22.7813,9.20313 26.2344,11.2969 C27.1719,11.8594 31.2969,13.9844 33.1406,13.4063 C33.5156,13.2969 33.7813,13.0625 33.9219,12.7344 C34.4375,11.5625 33.4063,10.9219 31.8594,9.96875 C31.25,9.59375 30.5781,9.17188 29.8594,8.64063 C26.5313,6.15625 25.0781,1.70313 26.1563,-2.6875 C26.7344,-5.07813 28.0156,-7.25 29.8594,-8.95313 C31.5156,-10.5 33.5625,-11.5938 35.9375,-12.2344 C37.9844,-0.984375 40.0469,10.1719 41.6875,18.5313 C41.8125,19.2188 41.9531,19.8906 42.0781,20.5625 C37.7031,21.5 33.3594,21.4063 29.1406,20.2969 M40.4688,-12.9063 C50.8125,-13.375 55.0781,-5.9375 55.9688,-1.10938 C56.4375,1.4375 56.4375,5.875 54.8906,10.0938 C53.7188,13.2656 51.2656,17.3438 46.125,19.4063 C46.0625,18.9844 45.9844,18.5469 45.9063,18.125 C44.3594,9.34375 42.4219,-1.65625 40.4688,-12.9063 M33.1406,-83.8594 C34.9219,-89.5938 37.6563,-92.8438 39.6563,-94.5781 C41.4063,-96.0938 43.0469,-96.8125 43.9688,-96.8125 C44.1094,-96.8125 44.2344,-96.7813 44.3281,-96.75 C44.7969,-96.6094 45.3281,-96.0469 45.7969,-95.1719 C48.1094,-90.8906 47.3594,-84.1719 46.0156,-79.7344 C44.3906,-74.3281 41.4688,-68.7188 32.6719,-59.1094 C32.5,-60.2188 32.3438,-61.2656 32.1875,-62.25 C30.9375,-70.5313 31.2656,-77.8125 33.1406,-83.8594"/>
<path class="KeySig" transform="matrix(2.12598,0,0,2.12598,302.565,549.212)" d="M20.0938,-7.90625 C19.5,-11.7969 17.0938,-15.5 12,-15.5 C7,-15.5 4.09375,-12.4063 3.59375,-11.7969 L4,-43.9063 C4,-44.7031 3.40625,-45.2969 2.59375,-45.2969 L1.40625,-45.2969 C0.59375,-45.2969 0,-44.7031 0,-43.9063 L0.5,16.2031 C0.5,17 1.09375,17.5938 1.90625,17.5938 C2.09375,17.5938 2.5,17.5 2.70313,17.4063 C3.09375,17.2031 9.59375,14 15,7.90625 C18.7969,3.59375 20.2969,-1.29688 20.2969,-5.40625 C20.2969,-6.29688 20.2031,-7.09375 20.0938,-7.90625 M13.2031,-4 C13.2031,-2.5 12.7969,2.09375 10.2969,5.90625 C8.59375,8.5 5.20313,11.2031 3.29688,12.7031 L3.59375,-6.79688 C3.79688,-7.70313 5.29688,-10.5938 9.29688,-10.5938 C12.9063,-10.5938 13.2031,-7.20313 13.2031,-5.09375 L13.2031,-4 "/>
<path class="KeySig" transform="matrix(2.12598,0,0,2.12598,302.565,1346.46)" d="M20.0938,-7.90625 C19.5,-11.7969 17.0938,-15.5 12,-15.5 C7,-15.5 4.09375,-12.4063 3.59375,-11.7969 L4,-43.9063 C4,-44.7031 3.40625,-45.2969 2.59375,-45.2969 L1.40625,-45.2969 C0.59375,-45.2969 0,-44.7031 0,-43.9063 L0.5,16.2031 C0.5,17 1.09375,17.5938 1.90625,17.5938 C2.09375,17.5938 2.5,17.5 2.70313,17.4063 C3.09375,17.2031 9.59375,14 15,7.90625 C18.7969,3.59375 20.2969,-1.29688 20.2969,-5.40625 C20.2969,-6.29688 20.2031,-7.09375 20.0938,-7.90625 M13.2031,-4 C13.2031,-2.5 12.7969,2.09375 10.2969,5.90625 C8.59375,8.5 5.20313,11.2031 3.29688,12.7031 L3.59375,-6.79688 C3.79688,-7.70313 5.29688,-10.5938 9.29688,-10.5938 C12.9063,-10.5938 13.2031,-7.20313 13.2031,-5.09375 L13.2031,-4 "/>
<path class="KeySig" transform="matrix(2.12598,0,0,2.12598,302.565,2143.7)" d="M20.0938,-7.90625 C19.5,-11.7969 17.0938,-15.5 12,-15.5 C7,-15.5 4.09375,-12.4063 3.59375,-11.7969 L4,-43.9063 C4,-44.7031 3.40625,-45.2969 2.59375,-45.2969 L1.40625,-45.2969 C0.59375,-45.2969 0,-44.7031 0,-43.9063 L0.5,16.2031 C0.5,17 1.09375,17.5938 1.90625,17.5938 C2.09375,17.5938 2.5,17.5 2.70313,17.4063 C3.09375,17.2031 9.59375,14 15,7.90625 C18.7969,3.59375 20.2969,-1.29688 20.2969,-5.40625 C20.2969,-6.29688 20.2031,-7.09375 20.0938,-7.90625 M13.2031,-4 C13.2031,-2.5 12.7969,2.09375 10.2969,5.90625 C8.59375,8.5 5.20313,11.2031 3.29688,12.7031 L3.59375,-6.79688 C3.79688,-7.70313 5.29688,-10.5938 9.29688,-10.5938 C12.9063,-10.5938 13.2031,-7.20313 13.2031,-5.09375 L13.2031,-4 "/>
<path class="TimeSig" transform="matrix(2.12598,0,0,2.12598,402.951,497.126)" d="M34.2031,3.90625 C33.4063,6.09375 31.4063,13.2969 26.5,13.2969 C20,13.2969 18.5938,9.29688 13.2031,9.29688 C12.4063,9.29688 11.5938,9.40625 10.5938,9.59375 C10.5938,9.59375 13.0938,5.79688 23.7031,2.5 C34.2969,-0.796875 37,-6 37,-12 C37,-16.2031 35.1094,-24.5 20,-24.5 C4.90625,-24.5 2.09375,-15.4063 2.09375,-10.7969 C2.09375,-6.70313 5.5,-3.40625 9.59375,-3.40625 C13.7031,-3.40625 17,-6.70313 17,-10.7969 C17,-13.5938 15,-16.7031 12.4063,-17.7031 C12.0938,-17.7969 11.7031,-18.2969 11.7031,-18.7969 C11.7031,-19.4063 12.2031,-20.0938 14,-20.5938 C14.5,-20.7969 15.9063,-21.0938 17.4063,-21.0938 C18.7969,-21.0938 20.4063,-20.7969 21.5938,-20 C23.5,-18.7969 24.2031,-17 24.2031,-12.5 C24.2031,-0.796875 10.2969,1.70313 4.5,10.4063 C4.5,10.4063 1.5,14.5938 1.5,19.2969 C1.5,24 3.90625,24.2969 5.09375,24.2969 C6.70313,24.2969 8.40625,23 8.40625,21.2031 C8.40625,20.7969 8.29688,20.4063 8.09375,19.9063 C7.5,18.5 7.29688,17.4063 7.29688,16.5938 C7.29688,16.2969 7.29688,16 7.40625,15.7031 C7.5,15.0938 8.29688,14.0938 10.7031,14.0938 C13.5938,14.0938 14.7031,17.5 16.5,20.0938 C18.2969,22.7031 21.0938,24.2969 24.2969,24.2969 C27.5,24.2969 31.7969,22 33.6094,18.2969 C35.4063,14.5938 37.7031,7.09375 37.7031,4.40625 C37.7031,3.09375 36.9063,2.5 36,2.5 C35.2969,2.5 34.6094,2.90625 34.2031,3.90625"/>
<path class="TimeSig" transform="matrix(2.12598,0,0,2.12598,395.942,602.08)" d="M3.59375,12.625 L20.7656,12.625 L20.7656,20.0781 L12.5469,20.0781 C11.7656,20.0781 11.125,20.7031 11.125,21.4844 L11.125,23.3906 C11.125,24.1719 11.7656,24.7969 12.5469,24.7969 L42.7969,24.7969 C43.5781,24.7969 44.2031,24.1719 44.2031,23.3906 L44.2031,21.4844 C44.2031,20.7031 43.5781,20.0781 42.7969,20.0781 L33.8594,20.0781 L33.8594,12.625 L42.7969,12.625 C43.5781,12.625 44.2031,12 44.2031,11.2188 L44.2031,9.3125 C44.2031,8.53125 43.5781,7.90625 42.7969,7.90625 L33.8594,7.90625 L33.8594,-8.0625 C33.8594,-8.59375 33.5469,-9.07813 33.0781,-9.3125 L31.8594,-9.92188 C31.3281,-10.1719 30.7031,-10.0781 30.2656,-9.6875 L21.2188,-1.375 C20.9375,-1.09375 20.7656,-0.734375 20.7656,-0.328125 L20.7656,7.90625 L9.25,7.90625 C9.25,7.90625 20.375,-4.125 32.2188,-19.8906 C33.0781,-21.0469 32.5781,-22.0938 32.3906,-22.2813 L30.2188,-24.4844 C29.9531,-24.75 29.5938,-24.9063 29.2188,-24.9063 C28.625,-24.9063 15.0625,-24.875 14.3438,-24.9063 C13.625,-24.9219 13.0938,-24.2969 13.0156,-23.6875 C13.0156,-23.6875 12.4844,-16.3281 9.875,-8.1875 C7.28125,-0.078125 4.34375,4.90625 1.6875,8.53125 C1.6875,8.53125 1.14063,9.51563 1.5,10.2656 C1.84375,11.0156 2.48438,12.0938 2.48438,12.0938 C2.48438,12.0938 2.73438,12.625 3.59375,12.625"/>
<path class="Rest" transform="matrix(2.12598,0,0,2.12598,3894.58,549.212)" d="M23.2031,16.9063 L23,16.5938 C22.9063,16.5 22.7031,16.2969 22.4063,15.9063 L10.9063,1.70313 C10.5938,1.40625 10.7031,0.59375 10.9063,0.203125 L21.0938,-15.2031 C21.2031,-15.4063 21.2969,-15.7031 21.2969,-15.9063 L21.2969,-16.7969 C21.2969,-17.0938 21.2031,-17.4063 21,-17.5938 L4.79688,-39.5 C4.79688,-39.5 4,-40.7031 3,-39.7969 C2,-39 2.79688,-37.7031 2.79688,-37.7031 L10.4063,-27.2969 C10.7969,-26.7031 10.7969,-25.5 10.4063,-24.9063 L0.296875,-9.5 C0.203125,-9.29688 0.09375,-8.90625 0.09375,-8.70313 L0.09375,-7.79688 C0.09375,-7.5 0.203125,-7.20313 0.40625,-7 L11.5938,6.90625 C11.2031,6.79688 10.2969,6.59375 9.09375,6.59375 C7.40625,6.59375 5.20313,7 3.40625,8.59375 C1.20313,10.5938 0,13.4063 0,15.9063 C0,17.2969 0.296875,18.7031 1.09375,19.7969 C3.20313,23 10.7031,32.5 10.7031,32.5 C10.7031,32.5 11.5938,33.6094 12.5,32.9063 C13.4063,32.2031 13.2031,31.2969 12.9063,30.7969 C12.5938,30.2969 9.40625,24.5 9.40625,24.5 C9.40625,24.5 8.70313,23.0938 8.70313,21.2969 C8.70313,20 9.09375,18.4063 10.4063,17.0938 C11.5938,15.9063 13,15.5 14.2969,15.5 C15.5938,15.5 16.7031,15.9063 17.5,16.4063 L21.4063,18.9063 C21.4063,18.9063 22.5938,19.5 23.2031,18.5938 C23.7031,17.7969 23.5,17.4063 23.2031,16.9063"/>
<path class="Rest" transform="matrix(2.12598,0,0,2.12598,716.986,1346.46)" d="M23.2031,16.9063 L23,16.5938 C22.9063,16.5 22.7031,16.2969 22.4063,15.9063 L10.9063,1.70313 C10.5938,1.40625 10.7031,0.59375 10.9063,0.203125 L21.0938,-15.2031 C21.2031,-15.4063 21.2969,-15.7031 21.2969,-15.9063 L21.2969,-16.7969 C21.2969,-17.0938 21.2031,-17.4063 21,-17.5938 L4.79688,-39.5 C4.79688,-39.5 4,-40.7031 3,-39.7969 C2,-39 2.79688,-37.7031 2.79688,-37.7031 L10.4063,-27.2969 C10.7969,-26.7031 10.7969,-25.5 10.4063,-24.9063 L0.296875,-9.5 C0.203125,-9.29688 0.09375,-8.90625 0.09375,-8.70313 L0.09375,-7.79688 C0.09375,-7.5 0.203125,-7.20313 0.40625,-7 L11.5938,6.90625 C11.2031,6.79688 10.2969,6.59375 9.09375,6.59375 C7.40625,6.59375 5.20313,7 3.40625,8.59375 C1.20313,10.5938 0,13.4063 0,15.9063 C0,17.2969 0.296875,18.7031 1.09375,19.7969 C3.20313,23 10.7031,32.5 10.7031,32.5 C10.7031,32.5 11.5938,33.6094 12.5,32.9063 C13.4063,32.2031 13.2031,31.2969 12.9063,30.7969 C12.5938,30.2969 9.40625,24.5 9.40625,24.5 C9.40625,24.5 8.70313,23.0938 8.70313,21.2969 C8.70313,20 9.09375,18.4063 10.4063,17.0938 C11.5938,15.9063 13,15.5 14.2969,15.5 C15.5938,15.5 16.7031,15.9063 17.5,16.4063 L21.4063,18.9063 C21.4063,18.9063 22.5938,19.5 23.2031,18.5938 C23.7031,17.7969 23.5,17.4063 23.2031,16.9063"/>
<path class="Rest" transform="matrix(2.12598,0,0,2.12598,1965.71,1346.46)" d="M23.2031,16.9063 L23,16.5938 C22.9063,16.5 22.7031,16.2969 22.4063,15.9063 L10.9063,1.70313 C10.5938,1.40625 10.7031,0.59375 10.9063,0.203125 L21.0938,-15.2031 C21.2031,-15.4063 21.2969,-15.7031 21.2969,-15.9063 L21.2969,-16.7969 C21.2969,-17.0938 21.2031,-17.4063 21,-17.5938 L4.79688,-39.5 C4.79688,-39.5 4,-40.7031 3,-39.7969 C2,-39 2.79688,-37.7031 2.79688,-37.7031 L10.4063,-27.2969 C10.7969,-26.7031 10.7969,-25.5 10.4063,-24.9063 L0.296875,-9.5 C0.203125,-9.29688 0.09375,-8.90625 0.09375,-8.70313 L0.09375,-7.79688 C0.09375,-7.5 0.203125,-7.20313 0.40625,-7 L11.5938,6.90625 C11.2031,6.79688 10.2969,6.59375 9.09375,6.59375 C7.40625,6.59375 5.20313,7 3.40625,8.59375 C1.20313,10.5938 0,13.4063 0,15.9063 C0,17.2969 0.296875,18.7031 1.09375,19.7969 C3.20313,23 10.7031,32.5 10.7031,32.5 C10.7031,32.5 11.5938,33.6094 12.5,32.9063 C13.4063,32.2031 13.2031,31.2969 12.9063,30.7969 C12.5938,30.2969 9.40625,24.5 9.40625,24.5 C9.40625,24.5 8.70313,23.0938 8.70313,21.2969 C8.70313,20 9.09375,18.4063 10.4063,17.0938 C11.5938,15.9063 13,15.5 14.2969,15.5 C15.5938,15.5 16.7031,15.9063 17.5,16.4063 L21.4063,18.9063 C21.4063,18.9063 22.5938,19.5 23.2031,18.5938 C23.7031,17.7969 23.5,17.4063 23.2031,16.9063"/>
<path class="Beam" fill-rule="evenodd" d="M1224.44,535.764 L1315.36,549.965 L1315.36,576.862 L1224.44,562.661 L1224.44,535.764 "/>
<path class="Beam" fill-rule="evenodd" d="M1900.33,522.638 L2023.75,522.638 L2023.75,549.212 L1900.33,549.212 L1900.33,522.638 "/>
<path class="Beam" fill-rule="evenodd" d="M2135.47,522.553 L2258.88,536.501 L2258.88,563.245 L2135.47,549.297 L2135.47,522.553 "/>
<path class="Beam" fill-rule="evenodd" d="M2843.86,522.638 L2967.27,522.638 L2967.27,549.212 L2843.86,549.212 L2843.86,522.638 "/>
<path class="Beam" fill-rule="evenodd" d="M3079,522.553 L3202.41,536.501 L3202.41,563.245 L3079,549.297 L3079,522.553 "/>
<path class="Beam" fill-rule="evenodd" d="M2072.83,1306.14 L2179.64,1334.25 L2179.64,1361.73 L2072.83,1333.62 L2072.83,1306.14 "/>
<path class="Beam" fill-rule="evenodd" d="M2920.02,1319.77 L3026.83,1333.82 L3026.83,1360.63 L2920.02,1346.57 L2920.02,1319.77 "/>
<path class="Beam" fill-rule="evenodd" d="M3619.17,1319.88 L3745.04,1319.88 L3745.04,1346.46 L3619.17,1346.46 L3619.17,1319.88 "/>
<path class="Beam" fill-rule="evenodd" d="M3859.21,1319.8 L3985.08,1333.73 L3985.08,1360.47 L3859.21,1346.54 L3859.21,1319.8 "/>
<path class="Jump" d="M3848.23,1747.18 L3887.54,1747.18 C3897.97,1747.18 3905.92,1745.54 3912.12,1742.04 C3923.94,1735.37 3930.48,1722.02 3930.48,1704.47 C3930.48,1688.32 3924.64,1675.69 3913.87,1668.66 C3907.44,1664.57 3898.78,1662.69 3885.44,1662.69 L3848.23,1662.69 L3848.23,1668.19 L3850.45,1668.19 C3857.01,1668.32 3859.23,1668.66 3860.17,1669.83 C3860.87,1670.9 3860.87,1671.13 3860.87,1677.1 L3860.87,1732.79 C3860.87,1738.76 3860.87,1738.99 3860.17,1740.04 C3859.23,1741.21 3857.01,1741.57 3850.45,1741.68 L3848.23,1741.68 L3848.23,1747.18 M3880.64,1741.68 C3874.69,1741.68 3873.98,1740.97 3873.98,1735.24 L3873.98,1674.76 C3873.98,1669.02 3874.79,1668.19 3880.64,1668.19 L3886.73,1668.19 C3906.73,1668.19 3915.04,1679.08 3915.04,1704.94 C3915.04,1731.15 3907.56,1741.68 3888.61,1741.68 L3880.64,1741.68 M3951.89,1734.19 C3947.79,1734.19 3944.51,1737.46 3944.51,1741.44 C3944.51,1745.54 3947.79,1748.82 3951.76,1748.82 C3955.86,1748.82 3959.14,1745.54 3959.14,1741.44 C3959.14,1737.46 3955.86,1734.19 3951.89,1734.19 M4043.14,1661.88 L4038.69,1661.88 L4034.01,1668.79 C4025.47,1662.58 4021.14,1660.94 4013.08,1660.94 C4001.95,1660.94 3992.48,1665.63 3984.64,1674.99 C3977.15,1683.88 3973.64,1693.71 3973.64,1705.76 C3973.64,1731.04 3990.14,1748.93 4013.19,1748.93 C4031.9,1748.93 4043.84,1737.93 4046.53,1718.27 L4041.03,1717.33 C4037.87,1734.77 4028.98,1743.43 4014.59,1743.43 C3997.28,1743.43 3989.08,1731.51 3989.08,1706.22 C3989.08,1692.88 3990.84,1684.12 3994.81,1677.1 C3998.44,1670.54 4005.58,1666.44 4013.19,1666.44 C4021.37,1666.44 4028.62,1670.77 4033.08,1678.26 C4035.29,1682.13 4036.94,1686.46 4039.75,1695.69 L4044.89,1695.69 L4043.14,1661.88 M4068.29,1734.19 C4064.2,1734.19 4060.92,1737.46 4060.92,1741.44 C4060.92,1745.54 4064.2,1748.82 4068.17,1748.82 C4072.26,1748.82 4075.54,1745.54 4075.54,1741.44 C4075.54,1737.46 4072.26,1734.19 4068.29,1734.19"/>
<path class="RehearsalMark" fill="none" stroke="#000000" stroke-width="8.50" stroke-linecap="square" stroke-linejoin="miter" stroke-miterlimit="2" fill-rule="evenodd" d="M351.961,172.82 L508.614,172.82 L508.614,321.473 L351.961,321.473 L351.961,172.82 "/>
<path class="RehearsalMark" d="M426.85,204.412 L400.303,266.428 C394.913,279.068 390.585,283.631 383.678,284.334 L383.678,290.647 L417.491,290.647 L417.491,284.334 C409.194,283.865 405.913,281.631 405.913,276.256 C405.913,274.272 406.381,272.397 407.663,269.584 L409.538,265.147 L438.678,265.147 L443.116,276.6 C444.413,279.881 444.522,280.475 444.522,281.397 C444.522,283.506 442.881,284.209 437.741,284.209 L435.741,284.334 L435.741,290.647 L476.819,290.647 L476.819,284.334 C470.147,284.1 468.272,282.928 465.819,276.959 L435.741,204.412 L426.85,204.412 M424.397,229.334 L435.741,257.303 L412.585,257.303 L424.397,229.334 "/>
<path class="RehearsalMark" fill="none" stroke="#000000" stroke-width="8.50" stroke-linecap="square" stroke-linejoin="miter" stroke-miterlimit="2" fill-rule="evenodd" d="M682.717,894.437 L830.37,894.437 L830.37,1041.09 L682.717,1041.09 L682.717,894.437 "/>
<path class="RehearsalMark" d="M714.528,925.779 L714.528,932.107 L716.293,932.107 C722.606,932.107 724.825,932.576 725.887,933.748 C726.7,935.029 726.7,935.373 726.7,942.638 L726.7,993.42 C726.7,1000.67 726.7,1001.01 725.887,1002.19 C724.825,1003.48 722.497,1003.95 716.293,1003.95 L714.528,1003.95 L714.528,1010.26 L761.918,1010.26 C774.09,1010.26 780.293,1009.33 786.372,1006.64 C793.747,1003.36 798.653,995.982 798.653,988.029 C798.653,979.842 793.981,973.404 785.325,969.435 C781.34,967.56 777.95,966.623 771.747,965.795 C777.481,964.873 780.762,964.045 784.028,962.529 C791.059,959.138 794.793,953.513 794.793,946.498 C794.793,939.826 791.293,933.623 785.559,930.467 C779.122,926.842 773.497,925.779 759.7,925.779 L714.528,925.779 M747.762,963.701 L747.762,938.888 C747.528,933.982 749.168,932.342 754.309,932.107 L757.825,932.107 C768.122,932.107 773.622,937.248 773.622,946.967 C773.622,952.701 771.637,957.263 767.887,960.185 C764.731,962.763 760.747,963.701 753.497,963.701 L747.762,963.701 M747.762,970.138 L755.84,970.138 C763.2,970.138 766.606,970.826 769.872,972.935 C773.965,975.623 776.309,980.779 776.309,986.857 C776.309,992.482 774.2,997.623 770.809,1000.44 C767.887,1002.78 764.028,1003.95 758.403,1003.95 L754.903,1003.95 C748.231,1003.72 747.528,1003.01 747.762,996.451 L747.762,970.138 "/>
<path class="VoltaSegment" d="M3781.93,224.132 L3777.84,224.132 C3770.46,229.632 3762.16,231.976 3748.24,232.211 L3748.24,238.757 L3753.15,238.757 C3763.56,238.757 3763.68,238.992 3763.56,248.586 L3763.56,290.132 C3763.56,297.382 3763.56,297.726 3762.74,298.898 C3761.7,300.195 3759.35,300.664 3753.04,300.664 L3749.29,300.664 L3749.29,306.976 L3795.98,306.976 L3795.98,300.664 L3792.23,300.664 C3786.02,300.664 3783.81,300.195 3782.76,298.898 C3781.93,297.726 3781.93,297.257 3781.93,290.132 L3781.93,224.132 M3821.95,286.742 C3815.85,286.742 3810.95,291.648 3810.95,297.726 C3810.95,303.695 3815.85,308.726 3821.82,308.726 C3828.02,308.726 3832.95,303.82 3832.95,297.726 C3832.95,291.648 3828.02,286.742 3821.95,286.742"/>
<polyline class="VoltaSegment" fill="none" stroke="#000000" stroke-width="5.85" stroke-linecap="square" stroke-linejoin="bevel" points="3715.63,306.976 3715.63,190.047"/>
<polyline class="VoltaSegment" fill="none" stroke="#000000" stroke-width="5.85" stroke-linecap="square" stroke-linejoin="bevel" points="3715.63,190.047 4107.48,190.047"/>
<polyline class="VoltaSegment" fill="none" stroke="#000000" stroke-width="5.85" stroke-linecap="square" stroke-linejoin="bevel" points="4107.48,190.047 4107.48,306.976"/>
<path class="VoltaSegment" d="M431.418,1072.6 L430.137,1078.46 C429.074,1083.13 428.371,1084.64 427.434,1085.24 C426.262,1086.05 426.028,1086.05 418.668,1086.17 L396.074,1086.17 C400.184,1082.66 403.215,1080.44 407.778,1077.39 C424.278,1066.75 427.668,1064.17 431.059,1059.85 C435.043,1054.58 437.387,1048.38 437.387,1042.88 C437.387,1030.36 425.106,1020.88 408.606,1020.88 C392.684,1020.88 380.403,1031.17 380.403,1044.52 C380.403,1052.71 384.965,1057.97 391.981,1057.97 C398.074,1057.97 401.934,1054.11 401.934,1048.03 C401.934,1043 399.715,1040.07 394.324,1037.5 C393.043,1036.91 392.449,1036.21 392.449,1035.27 C392.449,1031.53 398.778,1027.55 404.621,1027.55 C412.809,1027.55 417.496,1032.58 417.496,1041.24 C417.496,1050.96 413.746,1057.86 401.34,1071.08 C388.246,1085 383.684,1090.27 377.824,1098.69 L377.824,1104.19 C380.871,1103.83 382.153,1103.72 383.918,1103.72 L427.903,1103.72 C430.137,1103.72 431.528,1103.83 435.043,1104.19 L437.731,1072.6 L431.418,1072.6 M459.028,1083.49 C452.934,1083.49 448.028,1088.39 448.028,1094.47 C448.028,1100.44 452.934,1105.47 458.903,1105.47 C465.106,1105.47 470.028,1100.57 470.028,1094.47 C470.028,1088.39 465.106,1083.49 459.028,1083.49"/>
<polyline class="VoltaSegment" fill="none" stroke="#000000" stroke-width="5.85" stroke-linecap="square" stroke-linejoin="bevel" points="345.716,1103.72 345.716,986.792"/>
<polyline class="VoltaSegment" fill="none" stroke="#000000" stroke-width="5.85" stroke-linecap="square" stroke-linejoin="bevel" points="345.716,986.792 643.108,986.792"/>
<polyline class="VoltaSegment" fill="none" stroke="#000000" stroke-width="5.85" stroke-linecap="square" stroke-linejoin="bevel" points="643.108,986.792 643.108,1103.72"/>
<path class="VoltaSegment" d="M1114.51,1845.19 L1110.41,1845.19 C1103.04,1850.69 1094.74,1853.04 1080.82,1853.27 L1080.82,1859.82 L1085.72,1859.82 C1096.13,1859.82 1096.26,1860.05 1096.13,1869.65 L1096.13,1911.19 C1096.13,1918.44 1096.13,1918.79 1095.32,1919.96 C1094.27,1921.26 1091.93,1921.73 1085.61,1921.73 L1081.86,1921.73 L1081.86,1928.04 L1128.55,1928.04 L1128.55,1921.73 L1124.8,1921.73 C1118.6,1921.73 1116.38,1921.26 1115.33,1919.96 C1114.51,1918.79 1114.51,1918.32 1114.51,1911.19 L1114.51,1845.19 M1154.52,1907.8 C1148.43,1907.8 1143.52,1912.71 1143.52,1918.79 C1143.52,1924.76 1148.43,1929.79 1154.4,1929.79 C1160.6,1929.79 1165.52,1924.88 1165.52,1918.79 C1165.52,1912.71 1160.6,1907.8 1154.52,1907.8"/>
<polyline class="VoltaSegment" fill="none" stroke="#000000" stroke-width="5.85" stroke-linecap="square" stroke-linejoin="bevel" points="1048.21,1928.04 1048.21,1811.11"/>
<polyline class="VoltaSegment" fill="none" stroke="#000000" stroke-width="5.85" stroke-linecap="square" stroke-linejoin="bevel" points="1048.21,1811.11 3524.82,1811.11"/>
<polyline class="VoltaSegment" fill="none" stroke="#000000" stroke-width="5.85" stroke-linecap="square" stroke-linejoin="bevel" points="3524.82,1811.11 3524.82,1928.04"/>
<path class="VoltaSegment" d="M3635.33,1899.78 L3634.05,1905.64 C3632.99,1910.31 3632.29,1911.82 3631.35,1912.42 C3630.18,1913.23 3629.94,1913.23 3622.58,1913.36 L3599.99,1913.36 C3604.1,1909.84 3607.13,1907.62 3611.69,1904.57 C3628.19,1893.93 3631.58,1891.36 3634.97,1887.03 C3638.96,1881.76 3641.3,1875.56 3641.3,1870.06 C3641.3,1857.54 3629.02,1848.06 3612.52,1848.06 C3596.6,1848.06 3584.32,1858.36 3584.32,1871.7 C3584.32,1879.89 3588.88,1885.15 3595.9,1885.15 C3601.99,1885.15 3605.85,1881.29 3605.85,1875.21 C3605.85,1870.18 3603.63,1867.25 3598.24,1864.68 C3596.96,1864.09 3596.37,1863.39 3596.37,1862.45 C3596.37,1858.71 3602.69,1854.73 3608.54,1854.73 C3616.72,1854.73 3621.41,1859.76 3621.41,1868.42 C3621.41,1878.14 3617.66,1885.04 3605.26,1898.26 C3592.16,1912.18 3587.6,1917.45 3581.74,1925.87 L3581.74,1931.37 C3584.79,1931.01 3586.07,1930.9 3587.83,1930.9 L3631.82,1930.9 C3634.05,1930.9 3635.44,1931.01 3638.96,1931.37 L3641.65,1899.78 L3635.33,1899.78 M3662.94,1910.67 C3656.85,1910.67 3651.94,1915.57 3651.94,1921.65 C3651.94,1927.62 3656.85,1932.65 3662.82,1932.65 C3669.02,1932.65 3673.94,1927.75 3673.94,1921.65 C3673.94,1915.57 3669.02,1910.67 3662.94,1910.67"/>
<polyline class="VoltaSegment" fill="none" stroke="#000000" stroke-width="5.85" stroke-linecap="square" stroke-linejoin="bevel" points="3549.63,1930.9 3549.63,1813.97"/>
<polyline class="VoltaSegment" fill="none" stroke="#000000" stroke-width="5.85" stroke-linecap="square" stroke-linejoin="bevel" points="3549.63,1813.97 4085.79,1813.97"/>
<polyline class="VoltaSegment" fill="none" stroke="#000000" stroke-width="5.85" stroke-linecap="square" stroke-linejoin="bevel" points="4085.79,1813.97 4085.79,1930.9"/>
</svg>
