<?xml version="1.0" encoding="UTF-8" standalone="no"?>
<svg width="4208.47px" height="2409.45px" viewBox="0 0 4208.47 2409.45"
 xmlns="http://www.w3.org/2000/svg" xmlns:xlink="http://www.w3.org/1999/xlink" version="1.2" baseProfile="tiny">
<title>SAX ALTO</title>
<desc>Generated by MuseScore 3.6.2</desc>
<polyline class="StaffLines" fill="none" stroke="#000000" stroke-width="5.53" stroke-linejoin="bevel" points="70.866,423.071 4137.61,423.071"/>
<polyline class="StaffLines" fill="none" stroke="#000000" stroke-width="5.53" stroke-linejoin="bevel" points="70.866,473.386 4137.61,473.386"/>
<polyline class="StaffLines" fill="none" stroke="#000000" stroke-width="5.53" stroke-linejoin="bevel" points="70.866,523.701 4137.61,523.701"/>
<polyline class="StaffLines" fill="none" stroke="#000000" stroke-width="5.53" stroke-linejoin="bevel" points="70.866,574.016 4137.61,574.016"/>
<polyline class="StaffLines" fill="none" stroke="#000000" stroke-width="5.53" stroke-linejoin="bevel" points="70.866,624.331 4137.61,624.331"/>
<polyline class="StaffLines" fill="none" stroke="#000000" stroke-width="5.53" stroke-linejoin="bevel" points="70.866,1240.16 4137.61,1240.16"/>
<polyline class="StaffLines" fill="none" stroke="#000000" stroke-width="5.53" stroke-linejoin="bevel" points="70.866,1290.47 4137.61,1290.47"/>
<polyline class="StaffLines" fill="none" stroke="#000000" stroke-width="5.53" stroke-linejoin="bevel" points="70.866,1340.79 4137.61,1340.79"/>
<polyline class="StaffLines" fill="none" stroke="#000000" stroke-width="5.53" stroke-linejoin="bevel" points="70.866,1391.1 4137.61,1391.1"/>
<polyline class="StaffLines" fill="none" stroke="#000000" stroke-width="5.53" stroke-linejoin="bevel" points="70.866,1441.42 4137.61,1441.42"/>
<polyline class="StaffLines" fill="none" stroke="#000000" stroke-width="5.53" stroke-linejoin="bevel" points="70.866,2057.24 4137.61,2057.24"/>
<polyline class="StaffLines" fill="none" stroke="#000000" stroke-width="5.53" stroke-linejoin="bevel" points="70.866,2107.56 4137.61,2107.56"/>
<polyline class="StaffLines" fill="none" stroke="#000000" stroke-width="5.53" stroke-linejoin="bevel" points="70.866,2157.87 4137.61,2157.87"/>
<polyline class="StaffLines" fill="none" stroke="#000000" stroke-width="5.53" stroke-linejoin="bevel" points="70.866,2208.19 4137.61,2208.19"/>
<polyline class="StaffLines" fill="none" stroke="#000000" stroke-width="5.53" stroke-linejoin="bevel" points="70.866,2258.5 4137.61,2258.5"/>
<path class="MeasureNumber" d="M86.5847,1125.86 C85.8972,1129.01 85.1785,1130.93 84.0222,1133.17 C82.0691,1136.81 79.991,1138.45 77.1785,1138.45 C76.0222,1138.45 75.2722,1137.96 75.2722,1137.25 C75.2722,1136.96 75.3504,1136.86 75.6629,1136.37 C76.0691,1135.86 76.2722,1135.37 76.2722,1134.81 C76.2722,1133.5 75.2254,1132.5 73.866,1132.5 C72.2722,1132.5 71.1472,1133.68 71.1472,1135.45 C71.1472,1138.17 73.7097,1140.12 77.2722,1140.12 C80.4597,1140.12 83.4285,1138.73 85.866,1135.93 C89.3504,1132.04 91.616,1126.25 91.616,1121.32 C91.616,1115.09 88.616,1111.37 83.6629,1111.37 C80.7097,1111.37 77.9441,1112.7 76.1004,1114.96 C74.3035,1117.17 73.2722,1119.96 73.2722,1122.57 C73.2722,1126.37 76.1785,1129.25 80.0691,1129.25 C82.7097,1129.25 84.741,1128.17 86.5847,1125.86 M83.6316,1113.06 C86.1785,1113.06 87.8191,1115.09 87.8191,1118.29 C87.8191,1123.25 85.1004,1126.89 81.4285,1126.89 C78.8972,1126.89 77.5066,1125.17 77.5066,1122.17 C77.5066,1119.81 78.0691,1117.68 79.1472,1115.89 C80.3504,1113.96 81.7879,1113.06 83.6316,1113.06"/>
<path class="MeasureNumber" d="M87.2254,1928.3 L86.0691,1928.3 C83.866,1929.94 79.6316,1931.33 76.741,1931.33 L76.2722,1933.1 L79.0222,1933.1 C81.4597,1933.1 81.741,1933.18 81.741,1933.89 C81.741,1934.25 81.741,1934.25 81.3504,1935.69 L77.0691,1951.69 C76.5379,1953.69 76.5066,1953.82 76.1472,1954.18 C75.741,1954.57 74.8972,1954.69 72.7879,1954.74 L71.0691,1954.74 L70.866,1956.61 L85.6629,1956.61 L85.8972,1954.74 L83.741,1954.74 C81.1472,1954.74 80.5847,1954.53 80.5847,1953.66 C80.5847,1953.38 80.741,1952.46 80.9441,1951.69 L87.2254,1928.3 M113.538,1928.46 C111.413,1928.69 108.819,1928.86 106.585,1928.86 C105.46,1928.86 104.178,1928.82 102.741,1928.74 C101.413,1928.66 100.1,1928.58 98.741,1928.5 L97.741,1928.46 L93.866,1936.89 L95.3347,1937.38 L96.3035,1935.77 C98.1785,1932.66 99.0535,1932.22 103.132,1932.25 L109.897,1932.25 L105.538,1938.5 C100.413,1945.69 100.413,1945.69 98.4597,1948.89 C96.6941,1951.74 95.9754,1953.49 95.9754,1954.93 C95.9754,1956.33 96.866,1957.21 98.2566,1957.21 C99.741,1957.21 100.491,1956.49 101.022,1954.61 C103.022,1947.1 104.225,1944.49 109.772,1935.5 L113.538,1929.66 L113.538,1928.46 "/>
<polyline class="BarLine" fill="none" stroke="#000000" stroke-width="9.06" stroke-linejoin="bevel" points="972.721,420.303 972.721,627.098"/>
<polyline class="BarLine" fill="none" stroke="#000000" stroke-width="9.06" stroke-linejoin="bevel" points="1388.63,420.303 1388.63,627.098"/>
<polyline class="BarLine" fill="none" stroke="#000000" stroke-width="9.06" stroke-linejoin="bevel" points="1887.54,420.303 1887.54,627.098"/>
<polyline class="BarLine" fill="none" stroke="#000000" stroke-width="9.06" stroke-linejoin="bevel" points="2303.44,420.303 2303.44,627.098"/>
<polyline class="BarLine" fill="none" stroke="#000000" stroke-width="9.06" stroke-linejoin="bevel" points="2802.35,420.303 2802.35,627.098"/>
<polyline class="BarLine" fill="none" stroke="#000000" stroke-width="9.06" stroke-linejoin="bevel" points="3218.26,420.303 3218.26,627.098"/>
<polyline class="BarLine" fill="none" stroke="#000000" stroke-width="9.06" stroke-linejoin="bevel" points="3717.17,420.303 3717.17,627.098"/>
<polyline class="BarLine" fill="none" stroke="#000000" stroke-width="9.06" stroke-linejoin="bevel" points="4133.08,420.303 4133.08,627.098"/>
<polyline class="BarLine" fill="none" stroke="#000000" stroke-width="9.06" stroke-linejoin="bevel" points="958.303,1237.39 958.303,1444.18"/>
<polyline class="BarLine" fill="none" stroke="#000000" stroke-width="9.06" stroke-linejoin="bevel" points="1388.13,1237.39 1388.13,1444.18"/>
<polyline class="BarLine" fill="none" stroke="#000000" stroke-width="9.06" stroke-linejoin="bevel" points="1900.95,1237.39 1900.95,1444.18"/>
<polyline class="BarLine" fill="none" stroke="#000000" stroke-width="9.06" stroke-linejoin="bevel" points="2247.78,1237.39 2247.78,1444.18"/>
<polyline class="BarLine" fill="none" stroke="#000000" stroke-width="9.06" stroke-linejoin="bevel" points="2760.6,1237.39 2760.6,1444.18"/>
<polyline class="BarLine" fill="none" stroke="#000000" stroke-width="9.06" stroke-linejoin="bevel" points="3273.43,1237.39 3273.43,1444.18"/>
<polyline class="BarLine" fill="none" stroke="#000000" stroke-width="9.06" stroke-linejoin="bevel" points="3786.26,1237.39 3786.26,1444.18"/>
<polyline class="BarLine" fill="none" stroke="#000000" stroke-width="9.06" stroke-linejoin="bevel" points="4133.08,1237.39 4133.08,1444.18"/>
<polyline class="BarLine" fill="none" stroke="#000000" stroke-width="9.06" stroke-linejoin="bevel" points="1059.09,2054.48 1059.09,2261.27"/>
<polyline class="BarLine" fill="none" stroke="#000000" stroke-width="9.06" stroke-linejoin="bevel" points="1473.47,2054.48 1473.47,2261.27"/>
<polyline class="BarLine" fill="none" stroke="#000000" stroke-width="9.06" stroke-linejoin="bevel" points="2087.08,2054.48 2087.08,2261.27"/>
<polyline class="BarLine" fill="none" stroke="#000000" stroke-width="9.06" stroke-linejoin="bevel" points="2418.46,2054.48 2418.46,2261.27"/>
<polyline class="BarLine" fill="none" stroke="#000000" stroke-width="9.06" stroke-linejoin="bevel" points="2898.23,2054.48 2898.23,2261.27"/>
<polyline class="BarLine" fill="none" stroke="#000000" stroke-width="9.06" stroke-linejoin="bevel" points="3378.01,2054.48 3378.01,2261.27"/>
<polyline class="BarLine" fill="none" stroke="#000000" stroke-width="9.06" stroke-linejoin="bevel" points="3857.78,2054.48 3857.78,2261.27"/>
<polyline class="BarLine" fill="none" stroke="#000000" stroke-width="9.06" stroke-linejoin="bevel" points="4088.55,2054.48 4088.55,2261.27"/>
<polyline class="BarLine" fill="none" stroke="#000000" stroke-width="27.67" stroke-linejoin="bevel" points="4123.77,2054.48 4123.77,2261.27"/>
<polyline class="LedgerLine" fill="none" stroke="#000000" stroke-width="8.05" stroke-linejoin="bevel" points="515.414,2006.93 616.029,2006.93"/>
<polyline class="LedgerLine" fill="none" stroke="#000000" stroke-width="8.05" stroke-linejoin="bevel" points="642.304,2006.93 742.918,2006.93"/>
<polyline class="LedgerLine" fill="none" stroke="#000000" stroke-width="8.05" stroke-linejoin="bevel" points="769.194,2006.93 869.808,2006.93"/>
<polyline class="LedgerLine" fill="none" stroke="#000000" stroke-width="8.05" stroke-linejoin="bevel" points="896.083,2006.93 996.698,2006.93"/>
<polyline class="LedgerLine" fill="none" stroke="#000000" stroke-width="8.05" stroke-linejoin="bevel" points="1129.03,2006.93 1229.64,2006.93"/>
<polyline class="LedgerLine" fill="none" stroke="#000000" stroke-width="8.05" stroke-linejoin="bevel" points="1543.41,2006.93 1644.02,2006.93"/>
<polyline class="LedgerLine" fill="none" stroke="#000000" stroke-width="8.05" stroke-linejoin="bevel" points="1670.3,2006.93 1770.91,2006.93"/>
<polyline class="LedgerLine" fill="none" stroke="#000000" stroke-width="8.05" stroke-linejoin="bevel" points="1797.19,2006.93 1897.8,2006.93"/>
<polyline class="LedgerLine" fill="none" stroke="#000000" stroke-width="8.05" stroke-linejoin="bevel" points="1924.08,2006.93 2024.69,2006.93"/>
<polyline class="LedgerLine" fill="none" stroke="#000000" stroke-width="8.05" stroke-linejoin="bevel" points="2157.02,2006.93 2257.63,2006.93"/>
<polyline class="Stem" fill="none" stroke="#000000" stroke-width="5.53" stroke-linejoin="bevel" points="629.519,480.148 629.519,643.199"/>
<polyline class="Stem" fill="none" stroke="#000000" stroke-width="5.53" stroke-linejoin="bevel" points="752.95,480.148 752.95,624.331"/>
<polyline class="Stem" fill="none" stroke="#000000" stroke-width="5.53" stroke-linejoin="bevel" points="830.094,454.991 830.094,611.752"/>
<polyline class="Stem" fill="none" stroke="#000000" stroke-width="5.53" stroke-linejoin="bevel" points="1045.43,429.833 1045.43,599.173"/>
<polyline class="Stem" fill="none" stroke="#000000" stroke-width="5.53" stroke-linejoin="bevel" points="1168.86,429.833 1168.86,574.016"/>
<polyline class="Stem" fill="none" stroke="#000000" stroke-width="5.53" stroke-linejoin="bevel" points="1246,429.833 1246,574.016"/>
<polyline class="Stem" fill="none" stroke="#000000" stroke-width="5.53" stroke-linejoin="bevel" points="1461.33,454.991 1461.33,611.752"/>
<polyline class="Stem" fill="none" stroke="#000000" stroke-width="5.53" stroke-linejoin="bevel" points="1555.86,480.148 1555.86,624.331"/>
<polyline class="Stem" fill="none" stroke="#000000" stroke-width="5.53" stroke-linejoin="bevel" points="1650.38,454.991 1650.38,586.594"/>
<polyline class="Stem" fill="none" stroke="#000000" stroke-width="5.53" stroke-linejoin="bevel" points="1744.91,429.833 1744.91,574.016"/>
<polyline class="Stem" fill="none" stroke="#000000" stroke-width="5.53" stroke-linejoin="bevel" points="1960.24,480.148 1960.24,643.199"/>
<polyline class="Stem" fill="none" stroke="#000000" stroke-width="5.53" stroke-linejoin="bevel" points="2083.67,555.62 2083.67,724.96"/>
<polyline class="Stem" fill="none" stroke="#000000" stroke-width="5.53" stroke-linejoin="bevel" points="2376.15,480.148 2376.15,624.331"/>
<polyline class="Stem" fill="none" stroke="#000000" stroke-width="5.53" stroke-linejoin="bevel" points="2470.68,480.148 2470.68,624.331"/>
<polyline class="Stem" fill="none" stroke="#000000" stroke-width="5.53" stroke-linejoin="bevel" points="2565.2,480.148 2565.2,624.331"/>
<polyline class="Stem" fill="none" stroke="#000000" stroke-width="5.53" stroke-linejoin="bevel" points="2659.73,454.991 2659.73,611.752"/>
<polyline class="Stem" fill="none" stroke="#000000" stroke-width="5.53" stroke-linejoin="bevel" points="2875.06,429.833 2875.06,599.173"/>
<polyline class="Stem" fill="none" stroke="#000000" stroke-width="5.53" stroke-linejoin="bevel" points="2998.49,429.833 2998.49,574.016"/>
<polyline class="Stem" fill="none" stroke="#000000" stroke-width="5.53" stroke-linejoin="bevel" points="3075.63,429.833 3075.63,574.016"/>
<polyline class="Stem" fill="none" stroke="#000000" stroke-width="5.53" stroke-linejoin="bevel" points="3290.97,454.991 3290.97,611.752"/>
<polyline class="Stem" fill="none" stroke="#000000" stroke-width="5.53" stroke-linejoin="bevel" points="3385.49,480.148 3385.49,624.331"/>
<polyline class="Stem" fill="none" stroke="#000000" stroke-width="5.53" stroke-linejoin="bevel" points="3480.02,454.991 3480.02,586.594"/>
<polyline class="Stem" fill="none" stroke="#000000" stroke-width="5.53" stroke-linejoin="bevel" points="3574.54,429.833 3574.54,574.016"/>
<polyline class="Stem" fill="none" stroke="#000000" stroke-width="5.53" stroke-linejoin="bevel" points="3789.88,480.148 3789.88,643.199"/>
<polyline class="Stem" fill="none" stroke="#000000" stroke-width="5.53" stroke-linejoin="bevel" points="3990.45,555.62 3990.45,724.96"/>
<polyline class="Stem" fill="none" stroke="#000000" stroke-width="5.53" stroke-linejoin="bevel" points="518.182,1297.23 518.182,1441.42"/>
<polyline class="Stem" fill="none" stroke="#000000" stroke-width="5.53" stroke-linejoin="bevel" points="617.346,1297.23 617.346,1441.42"/>
<polyline class="Stem" fill="none" stroke="#000000" stroke-width="5.53" stroke-linejoin="bevel" points="716.511,1297.23 716.511,1441.42"/>
<polyline class="Stem" fill="none" stroke="#000000" stroke-width="5.53" stroke-linejoin="bevel" points="815.676,1272.08 815.676,1428.84"/>
<polyline class="Stem" fill="none" stroke="#000000" stroke-width="5.53" stroke-linejoin="bevel" points="1031.01,1246.92 1031.01,1416.26"/>
<polyline class="Stem" fill="none" stroke="#000000" stroke-width="5.53" stroke-linejoin="bevel" points="1163,1246.92 1163,1391.1"/>
<polyline class="Stem" fill="none" stroke="#000000" stroke-width="5.53" stroke-linejoin="bevel" points="1245.5,1246.92 1245.5,1391.1"/>
<polyline class="Stem" fill="none" stroke="#000000" stroke-width="5.53" stroke-linejoin="bevel" points="1460.83,1272.08 1460.83,1428.84"/>
<polyline class="Stem" fill="none" stroke="#000000" stroke-width="5.53" stroke-linejoin="bevel" points="1560,1297.23 1560,1441.42"/>
<polyline class="Stem" fill="none" stroke="#000000" stroke-width="5.53" stroke-linejoin="bevel" points="1659.16,1272.08 1659.16,1403.68"/>
<polyline class="Stem" fill="none" stroke="#000000" stroke-width="5.53" stroke-linejoin="bevel" points="1758.33,1246.92 1758.33,1391.1"/>
<polyline class="Stem" fill="none" stroke="#000000" stroke-width="5.53" stroke-linejoin="bevel" points="1973.66,1297.23 1973.66,1460.28"/>
<polyline class="Stem" fill="none" stroke="#000000" stroke-width="5.53" stroke-linejoin="bevel" points="2105.15,1372.71 2105.15,1516.89"/>
<polyline class="Stem" fill="none" stroke="#000000" stroke-width="5.53" stroke-linejoin="bevel" points="2320.48,1297.23 2320.48,1441.42"/>
<polyline class="Stem" fill="none" stroke="#000000" stroke-width="5.53" stroke-linejoin="bevel" points="2419.65,1297.23 2419.65,1441.42"/>
<polyline class="Stem" fill="none" stroke="#000000" stroke-width="5.53" stroke-linejoin="bevel" points="2518.81,1297.23 2518.81,1441.42"/>
<polyline class="Stem" fill="none" stroke="#000000" stroke-width="5.53" stroke-linejoin="bevel" points="2617.98,1272.08 2617.98,1428.84"/>
<polyline class="Stem" fill="none" stroke="#000000" stroke-width="5.53" stroke-linejoin="bevel" points="2833.31,1246.92 2833.31,1391.1"/>
<polyline class="Stem" fill="none" stroke="#000000" stroke-width="5.53" stroke-linejoin="bevel" points="2932.47,1246.92 2932.47,1391.1"/>
<polyline class="Stem" fill="none" stroke="#000000" stroke-width="5.53" stroke-linejoin="bevel" points="3031.64,1246.92 3031.64,1391.1"/>
<polyline class="Stem" fill="none" stroke="#000000" stroke-width="5.53" stroke-linejoin="bevel" points="3130.8,1246.92 3130.8,1391.1"/>
<polyline class="Stem" fill="none" stroke="#000000" stroke-width="5.53" stroke-linejoin="bevel" points="3346.13,1272.08 3346.13,1428.84"/>
<polyline class="Stem" fill="none" stroke="#000000" stroke-width="5.53" stroke-linejoin="bevel" points="3445.3,1297.23 3445.3,1441.42"/>
<polyline class="Stem" fill="none" stroke="#000000" stroke-width="5.53" stroke-linejoin="bevel" points="3544.46,1246.92 3544.46,1391.1"/>
<polyline class="Stem" fill="none" stroke="#000000" stroke-width="5.53" stroke-linejoin="bevel" points="3643.63,1272.08 3643.63,1403.68"/>
<polyline class="Stem" fill="none" stroke="#000000" stroke-width="5.53" stroke-linejoin="bevel" points="3858.96,1297.23 3858.96,1460.28"/>
<polyline class="Stem" fill="none" stroke="#000000" stroke-width="5.53" stroke-linejoin="bevel" points="535.792,1988.53 535.792,2145.29"/>
<polyline class="Stem" fill="none" stroke="#000000" stroke-width="5.53" stroke-linejoin="bevel" points="662.682,1988.53 662.682,2145.29"/>
<polyline class="Stem" fill="none" stroke="#000000" stroke-width="5.53" stroke-linejoin="bevel" points="789.571,1988.53 789.571,2145.29"/>
<polyline class="Stem" fill="none" stroke="#000000" stroke-width="5.53" stroke-linejoin="bevel" points="916.461,1988.53 916.461,2145.29"/>
<polyline class="Stem" fill="none" stroke="#000000" stroke-width="5.53" stroke-linejoin="bevel" points="1149.4,2013.69 1149.4,2183.03"/>
<polyline class="Stem" fill="none" stroke="#000000" stroke-width="5.53" stroke-linejoin="bevel" points="1255.39,2114.32 1255.39,2258.5"/>
<polyline class="Stem" fill="none" stroke="#000000" stroke-width="5.53" stroke-linejoin="bevel" points="1330.84,2114.32 1330.84,2258.5"/>
<polyline class="Stem" fill="none" stroke="#000000" stroke-width="5.53" stroke-linejoin="bevel" points="1563.79,1988.53 1563.79,2145.29"/>
<polyline class="Stem" fill="none" stroke="#000000" stroke-width="5.53" stroke-linejoin="bevel" points="1690.67,1988.53 1690.67,2145.29"/>
<polyline class="Stem" fill="none" stroke="#000000" stroke-width="5.53" stroke-linejoin="bevel" points="1817.56,1988.53 1817.56,2145.29"/>
<polyline class="Stem" fill="none" stroke="#000000" stroke-width="5.53" stroke-linejoin="bevel" points="1944.45,1988.53 1944.45,2145.29"/>
<polyline class="Stem" fill="none" stroke="#000000" stroke-width="5.53" stroke-linejoin="bevel" points="2177.4,2013.69 2177.4,2183.03"/>
<polyline class="Stem" fill="none" stroke="#000000" stroke-width="5.53" stroke-linejoin="bevel" points="2275.83,2114.32 2275.83,2277.37"/>
<polyline class="Stem" fill="none" stroke="#000000" stroke-width="5.53" stroke-linejoin="bevel" points="2491.17,2114.32 2491.17,2258.5"/>
<polyline class="Stem" fill="none" stroke="#000000" stroke-width="5.53" stroke-linejoin="bevel" points="2579.31,2114.32 2579.31,2258.5"/>
<polyline class="Stem" fill="none" stroke="#000000" stroke-width="5.53" stroke-linejoin="bevel" points="2667.46,2114.32 2667.46,2258.5"/>
<polyline class="Stem" fill="none" stroke="#000000" stroke-width="5.53" stroke-linejoin="bevel" points="2755.61,2089.16 2755.61,2245.92"/>
<polyline class="Stem" fill="none" stroke="#000000" stroke-width="5.53" stroke-linejoin="bevel" points="2970.94,2064.01 2970.94,2208.19"/>
<polyline class="Stem" fill="none" stroke="#000000" stroke-width="5.53" stroke-linejoin="bevel" points="3059.09,2064.01 3059.09,2208.19"/>
<polyline class="Stem" fill="none" stroke="#000000" stroke-width="5.53" stroke-linejoin="bevel" points="3147.23,2064.01 3147.23,2208.19"/>
<polyline class="Stem" fill="none" stroke="#000000" stroke-width="5.53" stroke-linejoin="bevel" points="3235.38,2064.01 3235.38,2208.19"/>
<polyline class="Stem" fill="none" stroke="#000000" stroke-width="5.53" stroke-linejoin="bevel" points="3450.71,2089.16 3450.71,2245.92"/>
<polyline class="Stem" fill="none" stroke="#000000" stroke-width="5.53" stroke-linejoin="bevel" points="3538.86,2114.32 3538.86,2258.5"/>
<polyline class="Stem" fill="none" stroke="#000000" stroke-width="5.53" stroke-linejoin="bevel" points="3627.01,2064.01 3627.01,2208.19"/>
<polyline class="Stem" fill="none" stroke="#000000" stroke-width="5.53" stroke-linejoin="bevel" points="3715.16,2089.16 3715.16,2220.77"/>
<polyline class="Stem" fill="none" stroke="#000000" stroke-width="5.53" stroke-linejoin="bevel" points="3930.49,2114.32 3930.49,2277.37"/>
<path class="Note" transform="matrix(2.0126,0,0,2.0126,626.752,473.386)" d="M31.5,-8.09375 C29.7031,-11.4063 25.9063,-13.2031 21.2969,-13.2031 C17.9063,-13.2031 14.2031,-12.2031 10.5938,-10.2969 C4,-6.79688 0,-0.90625 0,4.20313 C0,5.59375 0.296875,7 1,8.29688 C2.79688,11.5938 6.59375,13.2969 11.2031,13.2969 C14.5938,13.2969 18.2969,12.4063 21.9063,10.5 C28.5,7 32.5,1.09375 32.5,-4 C32.5,-5.40625 32.2031,-6.79688 31.5,-8.09375"/>
<path class="Note" transform="matrix(2.0126,0,0,2.0126,750.183,473.386)" d="M31.5,-8.09375 C29.7031,-11.4063 25.9063,-13.2031 21.2969,-13.2031 C17.9063,-13.2031 14.2031,-12.2031 10.5938,-10.2969 C4,-6.79688 0,-0.90625 0,4.20313 C0,5.59375 0.296875,7 1,8.29688 C2.79688,11.5938 6.59375,13.2969 11.2031,13.2969 C14.5938,13.2969 18.2969,12.4063 21.9063,10.5 C28.5,7 32.5,1.09375 32.5,-4 C32.5,-5.40625 32.2031,-6.79688 31.5,-8.09375"/>
<path class="Note" transform="matrix(2.0126,0,0,2.0126,827.327,448.228)" d="M31.5,-8.09375 C29.7031,-11.4063 25.9063,-13.2031 21.2969,-13.2031 C17.9063,-13.2031 14.2031,-12.2031 10.5938,-10.2969 C4,-6.79688 0,-0.90625 0,4.20313 C0,5.59375 0.296875,7 1,8.29688 C2.79688,11.5938 6.59375,13.2969 11.2031,13.2969 C14.5938,13.2969 18.2969,12.4063 21.9063,10.5 C28.5,7 32.5,1.09375 32.5,-4 C32.5,-5.40625 32.2031,-6.79688 31.5,-8.09375"/>
<path class="Note" transform="matrix(2.0126,0,0,2.0126,1042.66,423.071)" d="M31.5,-8.09375 C29.7031,-11.4063 25.9063,-13.2031 21.2969,-13.2031 C17.9063,-13.2031 14.2031,-12.2031 10.5938,-10.2969 C4,-6.79688 0,-0.90625 0,4.20313 C0,5.59375 0.296875,7 1,8.29688 C2.79688,11.5938 6.59375,13.2969 11.2031,13.2969 C14.5938,13.2969 18.2969,12.4063 21.9063,10.5 C28.5,7 32.5,1.09375 32.5,-4 C32.5,-5.40625 32.2031,-6.79688 31.5,-8.09375"/>
<path class="Note" transform="matrix(2.0126,0,0,2.0126,1166.09,423.071)" d="M31.5,-8.09375 C29.7031,-11.4063 25.9063,-13.2031 21.2969,-13.2031 C17.9063,-13.2031 14.2031,-12.2031 10.5938,-10.2969 C4,-6.79688 0,-0.90625 0,4.20313 C0,5.59375 0.296875,7 1,8.29688 C2.79688,11.5938 6.59375,13.2969 11.2031,13.2969 C14.5938,13.2969 18.2969,12.4063 21.9063,10.5 C28.5,7 32.5,1.09375 32.5,-4 C32.5,-5.40625 32.2031,-6.79688 31.5,-8.09375"/>
<path class="Note" transform="matrix(2.0126,0,0,2.0126,1243.23,423.071)" d="M31.5,-8.09375 C29.7031,-11.4063 25.9063,-13.2031 21.2969,-13.2031 C17.9063,-13.2031 14.2031,-12.2031 10.5938,-10.2969 C4,-6.79688 0,-0.90625 0,4.20313 C0,5.59375 0.296875,7 1,8.29688 C2.79688,11.5938 6.59375,13.2969 11.2031,13.2969 C14.5938,13.2969 18.2969,12.4063 21.9063,10.5 C28.5,7 32.5,1.09375 32.5,-4 C32.5,-5.40625 32.2031,-6.79688 31.5,-8.09375"/>
<path class="Note" transform="matrix(2.0126,0,0,2.0126,1458.57,448.228)" d="M31.5,-8.09375 C29.7031,-11.4063 25.9063,-13.2031 21.2969,-13.2031 C17.9063,-13.2031 14.2031,-12.2031 10.5938,-10.2969 C4,-6.79688 0,-0.90625 0,4.20313 C0,5.59375 0.296875,7 1,8.29688 C2.79688,11.5938 6.59375,13.2969 11.2031,13.2969 C14.5938,13.2969 18.2969,12.4063 21.9063,10.5 C28.5,7 32.5,1.09375 32.5,-4 C32.5,-5.40625 32.2031,-6.79688 31.5,-8.09375"/>
<path class="Note" transform="matrix(2.0126,0,0,2.0126,1553.09,473.386)" d="M31.5,-8.09375 C29.7031,-11.4063 25.9063,-13.2031 21.2969,-13.2031 C17.9063,-13.2031 14.2031,-12.2031 10.5938,-10.2969 C4,-6.79688 0,-0.90625 0,4.20313 C0,5.59375 0.296875,7 1,8.29688 C2.79688,11.5938 6.59375,13.2969 11.2031,13.2969 C14.5938,13.2969 18.2969,12.4063 21.9063,10.5 C28.5,7 32.5,1.09375 32.5,-4 C32.5,-5.40625 32.2031,-6.79688 31.5,-8.09375"/>
<path class="Note" transform="matrix(2.0126,0,0,2.0126,1647.62,448.228)" d="M31.5,-8.09375 C29.7031,-11.4063 25.9063,-13.2031 21.2969,-13.2031 C17.9063,-13.2031 14.2031,-12.2031 10.5938,-10.2969 C4,-6.79688 0,-0.90625 0,4.20313 C0,5.59375 0.296875,7 1,8.29688 C2.79688,11.5938 6.59375,13.2969 11.2031,13.2969 C14.5938,13.2969 18.2969,12.4063 21.9063,10.5 C28.5,7 32.5,1.09375 32.5,-4 C32.5,-5.40625 32.2031,-6.79688 31.5,-8.09375"/>
<path class="Note" transform="matrix(2.0126,0,0,2.0126,1742.14,423.071)" d="M31.5,-8.09375 C29.7031,-11.4063 25.9063,-13.2031 21.2969,-13.2031 C17.9063,-13.2031 14.2031,-12.2031 10.5938,-10.2969 C4,-6.79688 0,-0.90625 0,4.20313 C0,5.59375 0.296875,7 1,8.29688 C2.79688,11.5938 6.59375,13.2969 11.2031,13.2969 C14.5938,13.2969 18.2969,12.4063 21.9063,10.5 C28.5,7 32.5,1.09375 32.5,-4 C32.5,-5.40625 32.2031,-6.79688 31.5,-8.09375"/>
<path class="Note" transform="matrix(2.0126,0,0,2.0126,1957.48,473.386)" d="M31.5,-8.09375 C29.7031,-11.4063 25.9063,-13.2031 21.2969,-13.2031 C17.9063,-13.2031 14.2031,-12.2031 10.5938,-10.2969 C4,-6.79688 0,-0.90625 0,4.20313 C0,5.59375 0.296875,7 1,8.29688 C2.79688,11.5938 6.59375,13.2969 11.2031,13.2969 C14.5938,13.2969 18.2969,12.4063 21.9063,10.5 C28.5,7 32.5,1.09375 32.5,-4 C32.5,-5.40625 32.2031,-6.79688 31.5,-8.09375"/>
<path class="Note" transform="matrix(2.0126,0,0,2.0126,2080.91,548.858)" d="M31.5,-8.09375 C29.7031,-11.4063 25.9063,-13.2031 21.2969,-13.2031 C17.9063,-13.2031 14.2031,-12.2031 10.5938,-10.2969 C4,-6.79688 0,-0.90625 0,4.20313 C0,5.59375 0.296875,7 1,8.29688 C2.79688,11.5938 6.59375,13.2969 11.2031,13.2969 C14.5938,13.2969 18.2969,12.4063 21.9063,10.5 C28.5,7 32.5,1.09375 32.5,-4 C32.5,-5.40625 32.2031,-6.79688 31.5,-8.09375"/>
<path class="Note" transform="matrix(2.0126,0,0,2.0126,2373.38,473.386)" d="M31.5,-8.09375 C29.7031,-11.4063 25.9063,-13.2031 21.2969,-13.2031 C17.9063,-13.2031 14.2031,-12.2031 10.5938,-10.2969 C4,-6.79688 0,-0.90625 0,4.20313 C0,5.59375 0.296875,7 1,8.29688 C2.79688,11.5938 6.59375,13.2969 11.2031,13.2969 C14.5938,13.2969 18.2969,12.4063 21.9063,10.5 C28.5,7 32.5,1.09375 32.5,-4 C32.5,-5.40625 32.2031,-6.79688 31.5,-8.09375"/>
<path class="Note" transform="matrix(2.0126,0,0,2.0126,2467.91,473.386)" d="M31.5,-8.09375 C29.7031,-11.4063 25.9063,-13.2031 21.2969,-13.2031 C17.9063,-13.2031 14.2031,-12.2031 10.5938,-10.2969 C4,-6.79688 0,-0.90625 0,4.20313 C0,5.59375 0.296875,7 1,8.29688 C2.79688,11.5938 6.59375,13.2969 11.2031,13.2969 C14.5938,13.2969 18.2969,12.4063 21.9063,10.5 C28.5,7 32.5,1.09375 32.5,-4 C32.5,-5.40625 32.2031,-6.79688 31.5,-8.09375"/>
<path class="Note" transform="matrix(2.0126,0,0,2.0126,2562.43,473.386)" d="M31.5,-8.09375 C29.7031,-11.4063 25.9063,-13.2031 21.2969,-13.2031 C17.9063,-13.2031 14.2031,-12.2031 10.5938,-10.2969 C4,-6.79688 0,-0.90625 0,4.20313 C0,5.59375 0.296875,7 1,8.29688 C2.79688,11.5938 6.59375,13.2969 11.2031,13.2969 C14.5938,13.2969 18.2969,12.4063 21.9063,10.5 C28.5,7 32.5,1.09375 32.5,-4 C32.5,-5.40625 32.2031,-6.79688 31.5,-8.09375"/>
<path class="Note" transform="matrix(2.0126,0,0,2.0126,2656.96,448.228)" d="M31.5,-8.09375 C29.7031,-11.4063 25.9063,-13.2031 21.2969,-13.2031 C17.9063,-13.2031 14.2031,-12.2031 10.5938,-10.2969 C4,-6.79688 0,-0.90625 0,4.20313 C0,5.59375 0.296875,7 1,8.29688 C2.79688,11.5938 6.59375,13.2969 11.2031,13.2969 C14.5938,13.2969 18.2969,12.4063 21.9063,10.5 C28.5,7 32.5,1.09375 32.5,-4 C32.5,-5.40625 32.2031,-6.79688 31.5,-8.09375"/>
<path class="Note" transform="matrix(2.0126,0,0,2.0126,2872.29,423.071)" d="M31.5,-8.09375 C29.7031,-11.4063 25.9063,-13.2031 21.2969,-13.2031 C17.9063,-13.2031 14.2031,-12.2031 10.5938,-10.2969 C4,-6.79688 0,-0.90625 0,4.20313 C0,5.59375 0.296875,7 1,8.29688 C2.79688,11.5938 6.59375,13.2969 11.2031,13.2969 C14.5938,13.2969 18.2969,12.4063 21.9063,10.5 C28.5,7 32.5,1.09375 32.5,-4 C32.5,-5.40625 32.2031,-6.79688 31.5,-8.09375"/>
<path class="Note" transform="matrix(2.0126,0,0,2.0126,2995.72,423.071)" d="M31.5,-8.09375 C29.7031,-11.4063 25.9063,-13.2031 21.2969,-13.2031 C17.9063,-13.2031 14.2031,-12.2031 10.5938,-10.2969 C4,-6.79688 0,-0.90625 0,4.20313 C0,5.59375 0.296875,7 1,8.29688 C2.79688,11.5938 6.59375,13.2969 11.2031,13.2969 C14.5938,13.2969 18.2969,12.4063 21.9063,10.5 C28.5,7 32.5,1.09375 32.5,-4 C32.5,-5.40625 32.2031,-6.79688 31.5,-8.09375"/>
<path class="Note" transform="matrix(2.0126,0,0,2.0126,3072.87,423.071)" d="M31.5,-8.09375 C29.7031,-11.4063 25.9063,-13.2031 21.2969,-13.2031 C17.9063,-13.2031 14.2031,-12.2031 10.5938,-10.2969 C4,-6.79688 0,-0.90625 0,4.20313 C0,5.59375 0.296875,7 1,8.29688 C2.79688,11.5938 6.59375,13.2969 11.2031,13.2969 C14.5938,13.2969 18.2969,12.4063 21.9063,10.5 C28.5,7 32.5,1.09375 32.5,-4 C32.5,-5.40625 32.2031,-6.79688 31.5,-8.09375"/>
<path class="Note" transform="matrix(2.0126,0,0,2.0126,3288.2,448.228)" d="M31.5,-8.09375 C29.7031,-11.4063 25.9063,-13.2031 21.2969,-13.2031 C17.9063,-13.2031 14.2031,-12.2031 10.5938,-10.2969 C4,-6.79688 0,-0.90625 0,4.20313 C0,5.59375 0.296875,7 1,8.29688 C2.79688,11.5938 6.59375,13.2969 11.2031,13.2969 C14.5938,13.2969 18.2969,12.4063 21.9063,10.5 C28.5,7 32.5,1.09375 32.5,-4 C32.5,-5.40625 32.2031,-6.79688 31.5,-8.09375"/>
<path class="Note" transform="matrix(2.0126,0,0,2.0126,3382.72,473.386)" d="M31.5,-8.09375 C29.7031,-11.4063 25.9063,-13.2031 21.2969,-13.2031 C17.9063,-13.2031 14.2031,-12.2031 10.5938,-10.2969 C4,-6.79688 0,-0.90625 0,4.20313 C0,5.59375 0.296875,7 1,8.29688 C2.79688,11.5938 6.59375,13.2969 11.2031,13.2969 C14.5938,13.2969 18.2969,12.4063 21.9063,10.5 C28.5,7 32.5,1.09375 32.5,-4 C32.5,-5.40625 32.2031,-6.79688 31.5,-8.09375"/>
<path class="Note" transform="matrix(2.0126,0,0,2.0126,3477.25,448.228)" d="M31.5,-8.09375 C29.7031,-11.4063 25.9063,-13.2031 21.2969,-13.2031 C17.9063,-13.2031 14.2031,-12.2031 10.5938,-10.2969 C4,-6.79688 0,-0.90625 0,4.20313 C0,5.59375 0.296875,7 1,8.29688 C2.79688,11.5938 6.59375,13.2969 11.2031,13.2969 C14.5938,13.2969 18.2969,12.4063 21.9063,10.5 C28.5,7 32.5,1.09375 32.5,-4 C32.5,-5.40625 32.2031,-6.79688 31.5,-8.09375"/>
<path class="Note" transform="matrix(2.0126,0,0,2.0126,3571.78,423.071)" d="M31.5,-8.09375 C29.7031,-11.4063 25.9063,-13.2031 21.2969,-13.2031 C17.9063,-13.2031 14.2031,-12.2031 10.5938,-10.2969 C4,-6.79688 0,-0.90625 0,4.20313 C0,5.59375 0.296875,7 1,8.29688 C2.79688,11.5938 6.59375,13.2969 11.2031,13.2969 C14.5938,13.2969 18.2969,12.4063 21.9063,10.5 C28.5,7 32.5,1.09375 32.5,-4 C32.5,-5.40625 32.2031,-6.79688 31.5,-8.09375"/>
<path class="Note" transform="matrix(2.0126,0,0,2.0126,3787.11,473.386)" d="M31.5,-8.09375 C29.7031,-11.4063 25.9063,-13.2031 21.2969,-13.2031 C17.9063,-13.2031 14.2031,-12.2031 10.5938,-10.2969 C4,-6.79688 0,-0.90625 0,4.20313 C0,5.59375 0.296875,7 1,8.29688 C2.79688,11.5938 6.59375,13.2969 11.2031,13.2969 C14.5938,13.2969 18.2969,12.4063 21.9063,10.5 C28.5,7 32.5,1.09375 32.5,-4 C32.5,-5.40625 32.2031,-6.79688 31.5,-8.09375"/>
<path class="Note" transform="matrix(2.0126,0,0,2.0126,3987.68,548.858)" d="M31.5,-8.09375 C29.7031,-11.4063 25.9063,-13.2031 21.2969,-13.2031 C17.9063,-13.2031 14.2031,-12.2031 10.5938,-10.2969 C4,-6.79688 0,-0.90625 0,4.20313 C0,5.59375 0.296875,7 1,8.29688 C2.79688,11.5938 6.59375,13.2969 11.2031,13.2969 C14.5938,13.2969 18.2969,12.4063 21.9063,10.5 C28.5,7 32.5,1.09375 32.5,-4 C32.5,-5.40625 32.2031,-6.79688 31.5,-8.09375"/>
<path class="Note" transform="matrix(2.0126,0,0,2.0126,515.414,1290.47)" d="M31.5,-8.09375 C29.7031,-11.4063 25.9063,-13.2031 21.2969,-13.2031 C17.9063,-13.2031 14.2031,-12.2031 10.5938,-10.2969 C4,-6.79688 0,-0.90625 0,4.20313 C0,5.59375 0.296875,7 1,8.29688 C2.79688,11.5938 6.59375,13.2969 11.2031,13.2969 C14.5938,13.2969 18.2969,12.4063 21.9063,10.5 C28.5,7 32.5,1.09375 32.5,-4 C32.5,-5.40625 32.2031,-6.79688 31.5,-8.09375"/>
<path class="Note" transform="matrix(2.0126,0,0,2.0126,614.579,1290.47)" d="M31.5,-8.09375 C29.7031,-11.4063 25.9063,-13.2031 21.2969,-13.2031 C17.9063,-13.2031 14.2031,-12.2031 10.5938,-10.2969 C4,-6.79688 0,-0.90625 0,4.20313 C0,5.59375 0.296875,7 1,8.29688 C2.79688,11.5938 6.59375,13.2969 11.2031,13.2969 C14.5938,13.2969 18.2969,12.4063 21.9063,10.5 C28.5,7 32.5,1.09375 32.5,-4 C32.5,-5.40625 32.2031,-6.79688 31.5,-8.09375"/>
<path class="Note" transform="matrix(2.0126,0,0,2.0126,713.744,1290.47)" d="M31.5,-8.09375 C29.7031,-11.4063 25.9063,-13.2031 21.2969,-13.2031 C17.9063,-13.2031 14.2031,-12.2031 10.5938,-10.2969 C4,-6.79688 0,-0.90625 0,4.20313 C0,5.59375 0.296875,7 1,8.29688 C2.79688,11.5938 6.59375,13.2969 11.2031,13.2969 C14.5938,13.2969 18.2969,12.4063 21.9063,10.5 C28.5,7 32.5,1.09375 32.5,-4 C32.5,-5.40625 32.2031,-6.79688 31.5,-8.09375"/>
<path class="Note" transform="matrix(2.0126,0,0,2.0126,812.909,1265.31)" d="M31.5,-8.09375 C29.7031,-11.4063 25.9063,-13.2031 21.2969,-13.2031 C17.9063,-13.2031 14.2031,-12.2031 10.5938,-10.2969 C4,-6.79688 0,-0.90625 0,4.20313 C0,5.59375 0.296875,7 1,8.29688 C2.79688,11.5938 6.59375,13.2969 11.2031,13.2969 C14.5938,13.2969 18.2969,12.4063 21.9063,10.5 C28.5,7 32.5,1.09375 32.5,-4 C32.5,-5.40625 32.2031,-6.79688 31.5,-8.09375"/>
<path class="Note" transform="matrix(2.0126,0,0,2.0126,1028.24,1240.16)" d="M31.5,-8.09375 C29.7031,-11.4063 25.9063,-13.2031 21.2969,-13.2031 C17.9063,-13.2031 14.2031,-12.2031 10.5938,-10.2969 C4,-6.79688 0,-0.90625 0,4.20313 C0,5.59375 0.296875,7 1,8.29688 C2.79688,11.5938 6.59375,13.2969 11.2031,13.2969 C14.5938,13.2969 18.2969,12.4063 21.9063,10.5 C28.5,7 32.5,1.09375 32.5,-4 C32.5,-5.40625 32.2031,-6.79688 31.5,-8.09375"/>
<path class="Note" transform="matrix(2.0126,0,0,2.0126,1160.24,1240.16)" d="M31.5,-8.09375 C29.7031,-11.4063 25.9063,-13.2031 21.2969,-13.2031 C17.9063,-13.2031 14.2031,-12.2031 10.5938,-10.2969 C4,-6.79688 0,-0.90625 0,4.20313 C0,5.59375 0.296875,7 1,8.29688 C2.79688,11.5938 6.59375,13.2969 11.2031,13.2969 C14.5938,13.2969 18.2969,12.4063 21.9063,10.5 C28.5,7 32.5,1.09375 32.5,-4 C32.5,-5.40625 32.2031,-6.79688 31.5,-8.09375"/>
<path class="Note" transform="matrix(2.0126,0,0,2.0126,1242.73,1240.16)" d="M31.5,-8.09375 C29.7031,-11.4063 25.9063,-13.2031 21.2969,-13.2031 C17.9063,-13.2031 14.2031,-12.2031 10.5938,-10.2969 C4,-6.79688 0,-0.90625 0,4.20313 C0,5.59375 0.296875,7 1,8.29688 C2.79688,11.5938 6.59375,13.2969 11.2031,13.2969 C14.5938,13.2969 18.2969,12.4063 21.9063,10.5 C28.5,7 32.5,1.09375 32.5,-4 C32.5,-5.40625 32.2031,-6.79688 31.5,-8.09375"/>
<path class="Note" transform="matrix(2.0126,0,0,2.0126,1458.07,1265.31)" d="M31.5,-8.09375 C29.7031,-11.4063 25.9063,-13.2031 21.2969,-13.2031 C17.9063,-13.2031 14.2031,-12.2031 10.5938,-10.2969 C4,-6.79688 0,-0.90625 0,4.20313 C0,5.59375 0.296875,7 1,8.29688 C2.79688,11.5938 6.59375,13.2969 11.2031,13.2969 C14.5938,13.2969 18.2969,12.4063 21.9063,10.5 C28.5,7 32.5,1.09375 32.5,-4 C32.5,-5.40625 32.2031,-6.79688 31.5,-8.09375"/>
<path class="Note" transform="matrix(2.0126,0,0,2.0126,1557.23,1290.47)" d="M31.5,-8.09375 C29.7031,-11.4063 25.9063,-13.2031 21.2969,-13.2031 C17.9063,-13.2031 14.2031,-12.2031 10.5938,-10.2969 C4,-6.79688 0,-0.90625 0,4.20313 C0,5.59375 0.296875,7 1,8.29688 C2.79688,11.5938 6.59375,13.2969 11.2031,13.2969 C14.5938,13.2969 18.2969,12.4063 21.9063,10.5 C28.5,7 32.5,1.09375 32.5,-4 C32.5,-5.40625 32.2031,-6.79688 31.5,-8.09375"/>
<path class="Note" transform="matrix(2.0126,0,0,2.0126,1656.39,1265.31)" d="M31.5,-8.09375 C29.7031,-11.4063 25.9063,-13.2031 21.2969,-13.2031 C17.9063,-13.2031 14.2031,-12.2031 10.5938,-10.2969 C4,-6.79688 0,-0.90625 0,4.20313 C0,5.59375 0.296875,7 1,8.29688 C2.79688,11.5938 6.59375,13.2969 11.2031,13.2969 C14.5938,13.2969 18.2969,12.4063 21.9063,10.5 C28.5,7 32.5,1.09375 32.5,-4 C32.5,-5.40625 32.2031,-6.79688 31.5,-8.09375"/>
<path class="Note" transform="matrix(2.0126,0,0,2.0126,1755.56,1240.16)" d="M31.5,-8.09375 C29.7031,-11.4063 25.9063,-13.2031 21.2969,-13.2031 C17.9063,-13.2031 14.2031,-12.2031 10.5938,-10.2969 C4,-6.79688 0,-0.90625 0,4.20313 C0,5.59375 0.296875,7 1,8.29688 C2.79688,11.5938 6.59375,13.2969 11.2031,13.2969 C14.5938,13.2969 18.2969,12.4063 21.9063,10.5 C28.5,7 32.5,1.09375 32.5,-4 C32.5,-5.40625 32.2031,-6.79688 31.5,-8.09375"/>
<path class="Note" transform="matrix(2.0126,0,0,2.0126,1970.89,1290.47)" d="M31.5,-8.09375 C29.7031,-11.4063 25.9063,-13.2031 21.2969,-13.2031 C17.9063,-13.2031 14.2031,-12.2031 10.5938,-10.2969 C4,-6.79688 0,-0.90625 0,4.20313 C0,5.59375 0.296875,7 1,8.29688 C2.79688,11.5938 6.59375,13.2969 11.2031,13.2969 C14.5938,13.2969 18.2969,12.4063 21.9063,10.5 C28.5,7 32.5,1.09375 32.5,-4 C32.5,-5.40625 32.2031,-6.79688 31.5,-8.09375"/>
<path class="Note" transform="matrix(2.0126,0,0,2.0126,2102.38,1365.94)" d="M31.5,-8.09375 C29.7031,-11.4063 25.9063,-13.2031 21.2969,-13.2031 C17.9063,-13.2031 14.2031,-12.2031 10.5938,-10.2969 C4,-6.79688 0,-0.90625 0,4.20313 C0,5.59375 0.296875,7 1,8.29688 C2.79688,11.5938 6.59375,13.2969 11.2031,13.2969 C14.5938,13.2969 18.2969,12.4063 21.9063,10.5 C28.5,7 32.5,1.09375 32.5,-4 C32.5,-5.40625 32.2031,-6.79688 31.5,-8.09375"/>
<path class="Note" transform="matrix(2.0126,0,0,2.0126,2317.71,1290.47)" d="M31.5,-8.09375 C29.7031,-11.4063 25.9063,-13.2031 21.2969,-13.2031 C17.9063,-13.2031 14.2031,-12.2031 10.5938,-10.2969 C4,-6.79688 0,-0.90625 0,4.20313 C0,5.59375 0.296875,7 1,8.29688 C2.79688,11.5938 6.59375,13.2969 11.2031,13.2969 C14.5938,13.2969 18.2969,12.4063 21.9063,10.5 C28.5,7 32.5,1.09375 32.5,-4 C32.5,-5.40625 32.2031,-6.79688 31.5,-8.09375"/>
<path class="Note" transform="matrix(2.0126,0,0,2.0126,2416.88,1290.47)" d="M31.5,-8.09375 C29.7031,-11.4063 25.9063,-13.2031 21.2969,-13.2031 C17.9063,-13.2031 14.2031,-12.2031 10.5938,-10.2969 C4,-6.79688 0,-0.90625 0,4.20313 C0,5.59375 0.296875,7 1,8.29688 C2.79688,11.5938 6.59375,13.2969 11.2031,13.2969 C14.5938,13.2969 18.2969,12.4063 21.9063,10.5 C28.5,7 32.5,1.09375 32.5,-4 C32.5,-5.40625 32.2031,-6.79688 31.5,-8.09375"/>
<path class="Note" transform="matrix(2.0126,0,0,2.0126,2516.04,1290.47)" d="M31.5,-8.09375 C29.7031,-11.4063 25.9063,-13.2031 21.2969,-13.2031 C17.9063,-13.2031 14.2031,-12.2031 10.5938,-10.2969 C4,-6.79688 0,-0.90625 0,4.20313 C0,5.59375 0.296875,7 1,8.29688 C2.79688,11.5938 6.59375,13.2969 11.2031,13.2969 C14.5938,13.2969 18.2969,12.4063 21.9063,10.5 C28.5,7 32.5,1.09375 32.5,-4 C32.5,-5.40625 32.2031,-6.79688 31.5,-8.09375"/>
<path class="Note" transform="matrix(2.0126,0,0,2.0126,2615.21,1265.31)" d="M31.5,-8.09375 C29.7031,-11.4063 25.9063,-13.2031 21.2969,-13.2031 C17.9063,-13.2031 14.2031,-12.2031 10.5938,-10.2969 C4,-6.79688 0,-0.90625 0,4.20313 C0,5.59375 0.296875,7 1,8.29688 C2.79688,11.5938 6.59375,13.2969 11.2031,13.2969 C14.5938,13.2969 18.2969,12.4063 21.9063,10.5 C28.5,7 32.5,1.09375 32.5,-4 C32.5,-5.40625 32.2031,-6.79688 31.5,-8.09375"/>
<path class="Note" transform="matrix(2.0126,0,0,2.0126,2830.54,1240.16)" d="M31.5,-8.09375 C29.7031,-11.4063 25.9063,-13.2031 21.2969,-13.2031 C17.9063,-13.2031 14.2031,-12.2031 10.5938,-10.2969 C4,-6.79688 0,-0.90625 0,4.20313 C0,5.59375 0.296875,7 1,8.29688 C2.79688,11.5938 6.59375,13.2969 11.2031,13.2969 C14.5938,13.2969 18.2969,12.4063 21.9063,10.5 C28.5,7 32.5,1.09375 32.5,-4 C32.5,-5.40625 32.2031,-6.79688 31.5,-8.09375"/>
<path class="Note" transform="matrix(2.0126,0,0,2.0126,2929.71,1240.16)" d="M31.5,-8.09375 C29.7031,-11.4063 25.9063,-13.2031 21.2969,-13.2031 C17.9063,-13.2031 14.2031,-12.2031 10.5938,-10.2969 C4,-6.79688 0,-0.90625 0,4.20313 C0,5.59375 0.296875,7 1,8.29688 C2.79688,11.5938 6.59375,13.2969 11.2031,13.2969 C14.5938,13.2969 18.2969,12.4063 21.9063,10.5 C28.5,7 32.5,1.09375 32.5,-4 C32.5,-5.40625 32.2031,-6.79688 31.5,-8.09375"/>
<path class="Note" transform="matrix(2.0126,0,0,2.0126,3028.87,1240.16)" d="M31.5,-8.09375 C29.7031,-11.4063 25.9063,-13.2031 21.2969,-13.2031 C17.9063,-13.2031 14.2031,-12.2031 10.5938,-10.2969 C4,-6.79688 0,-0.90625 0,4.20313 C0,5.59375 0.296875,7 1,8.29688 C2.79688,11.5938 6.59375,13.2969 11.2031,13.2969 C14.5938,13.2969 18.2969,12.4063 21.9063,10.5 C28.5,7 32.5,1.09375 32.5,-4 C32.5,-5.40625 32.2031,-6.79688 31.5,-8.09375"/>
<path class="Note" transform="matrix(2.0126,0,0,2.0126,3128.03,1240.16)" d="M31.5,-8.09375 C29.7031,-11.4063 25.9063,-13.2031 21.2969,-13.2031 C17.9063,-13.2031 14.2031,-12.2031 10.5938,-10.2969 C4,-6.79688 0,-0.90625 0,4.20313 C0,5.59375 0.296875,7 1,8.29688 C2.79688,11.5938 6.59375,13.2969 11.2031,13.2969 C14.5938,13.2969 18.2969,12.4063 21.9063,10.5 C28.5,7 32.5,1.09375 32.5,-4 C32.5,-5.40625 32.2031,-6.79688 31.5,-8.09375"/>
<path class="Note" transform="matrix(2.0126,0,0,2.0126,3343.37,1265.31)" d="M31.5,-8.09375 C29.7031,-11.4063 25.9063,-13.2031 21.2969,-13.2031 C17.9063,-13.2031 14.2031,-12.2031 10.5938,-10.2969 C4,-6.79688 0,-0.90625 0,4.20313 C0,5.59375 0.296875,7 1,8.29688 C2.79688,11.5938 6.59375,13.2969 11.2031,13.2969 C14.5938,13.2969 18.2969,12.4063 21.9063,10.5 C28.5,7 32.5,1.09375 32.5,-4 C32.5,-5.40625 32.2031,-6.79688 31.5,-8.09375"/>
<path class="Note" transform="matrix(2.0126,0,0,2.0126,3442.53,1290.47)" d="M31.5,-8.09375 C29.7031,-11.4063 25.9063,-13.2031 21.2969,-13.2031 C17.9063,-13.2031 14.2031,-12.2031 10.5938,-10.2969 C4,-6.79688 0,-0.90625 0,4.20313 C0,5.59375 0.296875,7 1,8.29688 C2.79688,11.5938 6.59375,13.2969 11.2031,13.2969 C14.5938,13.2969 18.2969,12.4063 21.9063,10.5 C28.5,7 32.5,1.09375 32.5,-4 C32.5,-5.40625 32.2031,-6.79688 31.5,-8.09375"/>
<path class="Note" transform="matrix(2.0126,0,0,2.0126,3541.7,1240.16)" d="M31.5,-8.09375 C29.7031,-11.4063 25.9063,-13.2031 21.2969,-13.2031 C17.9063,-13.2031 14.2031,-12.2031 10.5938,-10.2969 C4,-6.79688 0,-0.90625 0,4.20313 C0,5.59375 0.296875,7 1,8.29688 C2.79688,11.5938 6.59375,13.2969 11.2031,13.2969 C14.5938,13.2969 18.2969,12.4063 21.9063,10.5 C28.5,7 32.5,1.09375 32.5,-4 C32.5,-5.40625 32.2031,-6.79688 31.5,-8.09375"/>
<path class="Note" transform="matrix(2.0126,0,0,2.0126,3640.86,1265.31)" d="M31.5,-8.09375 C29.7031,-11.4063 25.9063,-13.2031 21.2969,-13.2031 C17.9063,-13.2031 14.2031,-12.2031 10.5938,-10.2969 C4,-6.79688 0,-0.90625 0,4.20313 C0,5.59375 0.296875,7 1,8.29688 C2.79688,11.5938 6.59375,13.2969 11.2031,13.2969 C14.5938,13.2969 18.2969,12.4063 21.9063,10.5 C28.5,7 32.5,1.09375 32.5,-4 C32.5,-5.40625 32.2031,-6.79688 31.5,-8.09375"/>
<path class="Note" transform="matrix(2.0126,0,0,2.0126,3856.19,1290.47)" d="M31.5,-8.09375 C29.7031,-11.4063 25.9063,-13.2031 21.2969,-13.2031 C17.9063,-13.2031 14.2031,-12.2031 10.5938,-10.2969 C4,-6.79688 0,-0.90625 0,4.20313 C0,5.59375 0.296875,7 1,8.29688 C2.79688,11.5938 6.59375,13.2969 11.2031,13.2969 C14.5938,13.2969 18.2969,12.4063 21.9063,10.5 C28.5,7 32.5,1.09375 32.5,-4 C32.5,-5.40625 32.2031,-6.79688 31.5,-8.09375"/>
<path class="Note" transform="matrix(2.0126,0,0,2.0126,533.025,1981.77)" d="M31.5,-8.09375 C29.7031,-11.4063 25.9063,-13.2031 21.2969,-13.2031 C17.9063,-13.2031 14.2031,-12.2031 10.5938,-10.2969 C4,-6.79688 0,-0.90625 0,4.20313 C0,5.59375 0.296875,7 1,8.29688 C2.79688,11.5938 6.59375,13.2969 11.2031,13.2969 C14.5938,13.2969 18.2969,12.4063 21.9063,10.5 C28.5,7 32.5,1.09375 32.5,-4 C32.5,-5.40625 32.2031,-6.79688 31.5,-8.09375"/>
<path class="Note" transform="matrix(2.0126,0,0,2.0126,659.914,1981.77)" d="M31.5,-8.09375 C29.7031,-11.4063 25.9063,-13.2031 21.2969,-13.2031 C17.9063,-13.2031 14.2031,-12.2031 10.5938,-10.2969 C4,-6.79688 0,-0.90625 0,4.20313 C0,5.59375 0.296875,7 1,8.29688 C2.79688,11.5938 6.59375,13.2969 11.2031,13.2969 C14.5938,13.2969 18.2969,12.4063 21.9063,10.5 C28.5,7 32.5,1.09375 32.5,-4 C32.5,-5.40625 32.2031,-6.79688 31.5,-8.09375"/>
<path class="Note" transform="matrix(2.0126,0,0,2.0126,786.804,1981.77)" d="M31.5,-8.09375 C29.7031,-11.4063 25.9063,-13.2031 21.2969,-13.2031 C17.9063,-13.2031 14.2031,-12.2031 10.5938,-10.2969 C4,-6.79688 0,-0.90625 0,4.20313 C0,5.59375 0.296875,7 1,8.29688 C2.79688,11.5938 6.59375,13.2969 11.2031,13.2969 C14.5938,13.2969 18.2969,12.4063 21.9063,10.5 C28.5,7 32.5,1.09375 32.5,-4 C32.5,-5.40625 32.2031,-6.79688 31.5,-8.09375"/>
<path class="Note" transform="matrix(2.0126,0,0,2.0126,913.694,1981.77)" d="M31.5,-8.09375 C29.7031,-11.4063 25.9063,-13.2031 21.2969,-13.2031 C17.9063,-13.2031 14.2031,-12.2031 10.5938,-10.2969 C4,-6.79688 0,-0.90625 0,4.20313 C0,5.59375 0.296875,7 1,8.29688 C2.79688,11.5938 6.59375,13.2969 11.2031,13.2969 C14.5938,13.2969 18.2969,12.4063 21.9063,10.5 C28.5,7 32.5,1.09375 32.5,-4 C32.5,-5.40625 32.2031,-6.79688 31.5,-8.09375"/>
<path class="Note" transform="matrix(2.0126,0,0,2.0126,1146.64,2006.93)" d="M31.5,-8.09375 C29.7031,-11.4063 25.9063,-13.2031 21.2969,-13.2031 C17.9063,-13.2031 14.2031,-12.2031 10.5938,-10.2969 C4,-6.79688 0,-0.90625 0,4.20313 C0,5.59375 0.296875,7 1,8.29688 C2.79688,11.5938 6.59375,13.2969 11.2031,13.2969 C14.5938,13.2969 18.2969,12.4063 21.9063,10.5 C28.5,7 32.5,1.09375 32.5,-4 C32.5,-5.40625 32.2031,-6.79688 31.5,-8.09375"/>
<path class="Note" transform="matrix(2.0126,0,0,2.0126,1252.62,2107.56)" d="M31.5,-8.09375 C29.7031,-11.4063 25.9063,-13.2031 21.2969,-13.2031 C17.9063,-13.2031 14.2031,-12.2031 10.5938,-10.2969 C4,-6.79688 0,-0.90625 0,4.20313 C0,5.59375 0.296875,7 1,8.29688 C2.79688,11.5938 6.59375,13.2969 11.2031,13.2969 C14.5938,13.2969 18.2969,12.4063 21.9063,10.5 C28.5,7 32.5,1.09375 32.5,-4 C32.5,-5.40625 32.2031,-6.79688 31.5,-8.09375"/>
<path class="Note" transform="matrix(2.0126,0,0,2.0126,1328.08,2107.56)" d="M31.5,-8.09375 C29.7031,-11.4063 25.9063,-13.2031 21.2969,-13.2031 C17.9063,-13.2031 14.2031,-12.2031 10.5938,-10.2969 C4,-6.79688 0,-0.90625 0,4.20313 C0,5.59375 0.296875,7 1,8.29688 C2.79688,11.5938 6.59375,13.2969 11.2031,13.2969 C14.5938,13.2969 18.2969,12.4063 21.9063,10.5 C28.5,7 32.5,1.09375 32.5,-4 C32.5,-5.40625 32.2031,-6.79688 31.5,-8.09375"/>
<path class="Note" transform="matrix(2.0126,0,0,2.0126,1561.02,1981.77)" d="M31.5,-8.09375 C29.7031,-11.4063 25.9063,-13.2031 21.2969,-13.2031 C17.9063,-13.2031 14.2031,-12.2031 10.5938,-10.2969 C4,-6.79688 0,-0.90625 0,4.20313 C0,5.59375 0.296875,7 1,8.29688 C2.79688,11.5938 6.59375,13.2969 11.2031,13.2969 C14.5938,13.2969 18.2969,12.4063 21.9063,10.5 C28.5,7 32.5,1.09375 32.5,-4 C32.5,-5.40625 32.2031,-6.79688 31.5,-8.09375"/>
<path class="Note" transform="matrix(2.0126,0,0,2.0126,1687.91,1981.77)" d="M31.5,-8.09375 C29.7031,-11.4063 25.9063,-13.2031 21.2969,-13.2031 C17.9063,-13.2031 14.2031,-12.2031 10.5938,-10.2969 C4,-6.79688 0,-0.90625 0,4.20313 C0,5.59375 0.296875,7 1,8.29688 C2.79688,11.5938 6.59375,13.2969 11.2031,13.2969 C14.5938,13.2969 18.2969,12.4063 21.9063,10.5 C28.5,7 32.5,1.09375 32.5,-4 C32.5,-5.40625 32.2031,-6.79688 31.5,-8.09375"/>
<path class="Note" transform="matrix(2.0126,0,0,2.0126,1814.8,1981.77)" d="M31.5,-8.09375 C29.7031,-11.4063 25.9063,-13.2031 21.2969,-13.2031 C17.9063,-13.2031 14.2031,-12.2031 10.5938,-10.2969 C4,-6.79688 0,-0.90625 0,4.20313 C0,5.59375 0.296875,7 1,8.29688 C2.79688,11.5938 6.59375,13.2969 11.2031,13.2969 C14.5938,13.2969 18.2969,12.4063 21.9063,10.5 C28.5,7 32.5,1.09375 32.5,-4 C32.5,-5.40625 32.2031,-6.79688 31.5,-8.09375"/>
<path class="Note" transform="matrix(2.0126,0,0,2.0126,1941.69,1981.77)" d="M31.5,-8.09375 C29.7031,-11.4063 25.9063,-13.2031 21.2969,-13.2031 C17.9063,-13.2031 14.2031,-12.2031 10.5938,-10.2969 C4,-6.79688 0,-0.90625 0,4.20313 C0,5.59375 0.296875,7 1,8.29688 C2.79688,11.5938 6.59375,13.2969 11.2031,13.2969 C14.5938,13.2969 18.2969,12.4063 21.9063,10.5 C28.5,7 32.5,1.09375 32.5,-4 C32.5,-5.40625 32.2031,-6.79688 31.5,-8.09375"/>
<path class="Note" transform="matrix(2.0126,0,0,2.0126,2174.63,2006.93)" d="M31.5,-8.09375 C29.7031,-11.4063 25.9063,-13.2031 21.2969,-13.2031 C17.9063,-13.2031 14.2031,-12.2031 10.5938,-10.2969 C4,-6.79688 0,-0.90625 0,4.20313 C0,5.59375 0.296875,7 1,8.29688 C2.79688,11.5938 6.59375,13.2969 11.2031,13.2969 C14.5938,13.2969 18.2969,12.4063 21.9063,10.5 C28.5,7 32.5,1.09375 32.5,-4 C32.5,-5.40625 32.2031,-6.79688 31.5,-8.09375"/>
<path class="Note" transform="matrix(2.0126,0,0,2.0126,2273.07,2107.56)" d="M31.5,-8.09375 C29.7031,-11.4063 25.9063,-13.2031 21.2969,-13.2031 C17.9063,-13.2031 14.2031,-12.2031 10.5938,-10.2969 C4,-6.79688 0,-0.90625 0,4.20313 C0,5.59375 0.296875,7 1,8.29688 C2.79688,11.5938 6.59375,13.2969 11.2031,13.2969 C14.5938,13.2969 18.2969,12.4063 21.9063,10.5 C28.5,7 32.5,1.09375 32.5,-4 C32.5,-5.40625 32.2031,-6.79688 31.5,-8.09375"/>
<path class="Note" transform="matrix(2.0126,0,0,2.0126,2488.4,2107.56)" d="M31.5,-8.09375 C29.7031,-11.4063 25.9063,-13.2031 21.2969,-13.2031 C17.9063,-13.2031 14.2031,-12.2031 10.5938,-10.2969 C4,-6.79688 0,-0.90625 0,4.20313 C0,5.59375 0.296875,7 1,8.29688 C2.79688,11.5938 6.59375,13.2969 11.2031,13.2969 C14.5938,13.2969 18.2969,12.4063 21.9063,10.5 C28.5,7 32.5,1.09375 32.5,-4 C32.5,-5.40625 32.2031,-6.79688 31.5,-8.09375"/>
<path class="Note" transform="matrix(2.0126,0,0,2.0126,2576.55,2107.56)" d="M31.5,-8.09375 C29.7031,-11.4063 25.9063,-13.2031 21.2969,-13.2031 C17.9063,-13.2031 14.2031,-12.2031 10.5938,-10.2969 C4,-6.79688 0,-0.90625 0,4.20313 C0,5.59375 0.296875,7 1,8.29688 C2.79688,11.5938 6.59375,13.2969 11.2031,13.2969 C14.5938,13.2969 18.2969,12.4063 21.9063,10.5 C28.5,7 32.5,1.09375 32.5,-4 C32.5,-5.40625 32.2031,-6.79688 31.5,-8.09375"/>
<path class="Note" transform="matrix(2.0126,0,0,2.0126,2664.69,2107.56)" d="M31.5,-8.09375 C29.7031,-11.4063 25.9063,-13.2031 21.2969,-13.2031 C17.9063,-13.2031 14.2031,-12.2031 10.5938,-10.2969 C4,-6.79688 0,-0.90625 0,4.20313 C0,5.59375 0.296875,7 1,8.29688 C2.79688,11.5938 6.59375,13.2969 11.2031,13.2969 C14.5938,13.2969 18.2969,12.4063 21.9063,10.5 C28.5,7 32.5,1.09375 32.5,-4 C32.5,-5.40625 32.2031,-6.79688 31.5,-8.09375"/>
<path class="Note" transform="matrix(2.0126,0,0,2.0126,2752.84,2082.4)" d="M31.5,-8.09375 C29.7031,-11.4063 25.9063,-13.2031 21.2969,-13.2031 C17.9063,-13.2031 14.2031,-12.2031 10.5938,-10.2969 C4,-6.79688 0,-0.90625 0,4.20313 C0,5.59375 0.296875,7 1,8.29688 C2.79688,11.5938 6.59375,13.2969 11.2031,13.2969 C14.5938,13.2969 18.2969,12.4063 21.9063,10.5 C28.5,7 32.5,1.09375 32.5,-4 C32.5,-5.40625 32.2031,-6.79688 31.5,-8.09375"/>
<path class="Note" transform="matrix(2.0126,0,0,2.0126,2968.17,2057.24)" d="M31.5,-8.09375 C29.7031,-11.4063 25.9063,-13.2031 21.2969,-13.2031 C17.9063,-13.2031 14.2031,-12.2031 10.5938,-10.2969 C4,-6.79688 0,-0.90625 0,4.20313 C0,5.59375 0.296875,7 1,8.29688 C2.79688,11.5938 6.59375,13.2969 11.2031,13.2969 C14.5938,13.2969 18.2969,12.4063 21.9063,10.5 C28.5,7 32.5,1.09375 32.5,-4 C32.5,-5.40625 32.2031,-6.79688 31.5,-8.09375"/>
<path class="Note" transform="matrix(2.0126,0,0,2.0126,3056.32,2057.24)" d="M31.5,-8.09375 C29.7031,-11.4063 25.9063,-13.2031 21.2969,-13.2031 C17.9063,-13.2031 14.2031,-12.2031 10.5938,-10.2969 C4,-6.79688 0,-0.90625 0,4.20313 C0,5.59375 0.296875,7 1,8.29688 C2.79688,11.5938 6.59375,13.2969 11.2031,13.2969 C14.5938,13.2969 18.2969,12.4063 21.9063,10.5 C28.5,7 32.5,1.09375 32.5,-4 C32.5,-5.40625 32.2031,-6.79688 31.5,-8.09375"/>
<path class="Note" transform="matrix(2.0126,0,0,2.0126,3144.47,2057.24)" d="M31.5,-8.09375 C29.7031,-11.4063 25.9063,-13.2031 21.2969,-13.2031 C17.9063,-13.2031 14.2031,-12.2031 10.5938,-10.2969 C4,-6.79688 0,-0.90625 0,4.20313 C0,5.59375 0.296875,7 1,8.29688 C2.79688,11.5938 6.59375,13.2969 11.2031,13.2969 C14.5938,13.2969 18.2969,12.4063 21.9063,10.5 C28.5,7 32.5,1.09375 32.5,-4 C32.5,-5.40625 32.2031,-6.79688 31.5,-8.09375"/>
<path class="Note" transform="matrix(2.0126,0,0,2.0126,3232.61,2057.24)" d="M31.5,-8.09375 C29.7031,-11.4063 25.9063,-13.2031 21.2969,-13.2031 C17.9063,-13.2031 14.2031,-12.2031 10.5938,-10.2969 C4,-6.79688 0,-0.90625 0,4.20313 C0,5.59375 0.296875,7 1,8.29688 C2.79688,11.5938 6.59375,13.2969 11.2031,13.2969 C14.5938,13.2969 18.2969,12.4063 21.9063,10.5 C28.5,7 32.5,1.09375 32.5,-4 C32.5,-5.40625 32.2031,-6.79688 31.5,-8.09375"/>
<path class="Note" transform="matrix(2.0126,0,0,2.0126,3447.95,2082.4)" d="M31.5,-8.09375 C29.7031,-11.4063 25.9063,-13.2031 21.2969,-13.2031 C17.9063,-13.2031 14.2031,-12.2031 10.5938,-10.2969 C4,-6.79688 0,-0.90625 0,4.20313 C0,5.59375 0.296875,7 1,8.29688 C2.79688,11.5938 6.59375,13.2969 11.2031,13.2969 C14.5938,13.2969 18.2969,12.4063 21.9063,10.5 C28.5,7 32.5,1.09375 32.5,-4 C32.5,-5.40625 32.2031,-6.79688 31.5,-8.09375"/>
<path class="Note" transform="matrix(2.0126,0,0,2.0126,3536.09,2107.56)" d="M31.5,-8.09375 C29.7031,-11.4063 25.9063,-13.2031 21.2969,-13.2031 C17.9063,-13.2031 14.2031,-12.2031 10.5938,-10.2969 C4,-6.79688 0,-0.90625 0,4.20313 C0,5.59375 0.296875,7 1,8.29688 C2.79688,11.5938 6.59375,13.2969 11.2031,13.2969 C14.5938,13.2969 18.2969,12.4063 21.9063,10.5 C28.5,7 32.5,1.09375 32.5,-4 C32.5,-5.40625 32.2031,-6.79688 31.5,-8.09375"/>
<path class="Note" transform="matrix(2.0126,0,0,2.0126,3624.24,2057.24)" d="M31.5,-8.09375 C29.7031,-11.4063 25.9063,-13.2031 21.2969,-13.2031 C17.9063,-13.2031 14.2031,-12.2031 10.5938,-10.2969 C4,-6.79688 0,-0.90625 0,4.20313 C0,5.59375 0.296875,7 1,8.29688 C2.79688,11.5938 6.59375,13.2969 11.2031,13.2969 C14.5938,13.2969 18.2969,12.4063 21.9063,10.5 C28.5,7 32.5,1.09375 32.5,-4 C32.5,-5.40625 32.2031,-6.79688 31.5,-8.09375"/>
<path class="Note" transform="matrix(2.0126,0,0,2.0126,3712.39,2082.4)" d="M31.5,-8.09375 C29.7031,-11.4063 25.9063,-13.2031 21.2969,-13.2031 C17.9063,-13.2031 14.2031,-12.2031 10.5938,-10.2969 C4,-6.79688 0,-0.90625 0,4.20313 C0,5.59375 0.296875,7 1,8.29688 C2.79688,11.5938 6.59375,13.2969 11.2031,13.2969 C14.5938,13.2969 18.2969,12.4063 21.9063,10.5 C28.5,7 32.5,1.09375 32.5,-4 C32.5,-5.40625 32.2031,-6.79688 31.5,-8.09375"/>
<path class="Note" transform="matrix(2.0126,0,0,2.0126,3927.72,2107.56)" d="M31.5,-8.14063 C29.7031,-11.4375 25.9063,-13.2344 21.2969,-13.2344 C17.9063,-13.2344 14.2031,-12.2344 10.5938,-10.3438 C4,-6.84375 0,-0.9375 0,4.15625 C0,5.5625 0.296875,6.96875 1,8.26563 C2.79688,11.5781 6.59375,13.2813 11.2031,13.2813 C14.5938,13.2813 18.2969,12.375 21.9063,10.4844 C28.5,6.96875 32.5,1.0625 32.5,-4.04688 C32.5,-5.4375 32.2031,-6.84375 31.5,-8.14063 M27.2031,-1.34375 C25.5,0.359375 22.0938,2.45313 18.5,4.46875 C14.9063,6.46875 11.2969,7.96875 8.90625,8.46875 C8.40625,8.57813 7.90625,8.67188 7.40625,8.67188 C5.79688,8.67188 4.59375,8.07813 3.90625,6.76563 C3.59375,6.26563 3.40625,5.67188 3.40625,5.0625 C3.40625,3.96875 4.09375,2.65625 5.20313,1.5625 C6.90625,-0.140625 10.2031,-2.23438 13.7969,-4.23438 C17.4063,-6.23438 21,-7.73438 23.4063,-8.23438 C23.9063,-8.34375 24.4063,-8.4375 24.9063,-8.4375 C26.5,-8.4375 27.7969,-7.84375 28.5,-6.54688 C28.7969,-6.04688 28.9063,-5.4375 28.9063,-4.84375 C28.9063,-3.73438 28.2969,-2.54688 27.2031,-1.34375"/>
<path class="Clef" transform="matrix(2.0126,0,0,2.0126,111.118,574.016)" d="M63.3594,-5.92188 C62.125,-11.3438 59.4844,-15.1719 58.7031,-16.2031 C55.5156,-20.4844 51.5,-23.3281 46.8125,-24.6875 C43.7031,-25.5625 40.7031,-25.6875 38.2813,-25.5 C37.2344,-31.5156 36.2344,-37.3906 35.3281,-42.8438 C40.7813,-49.0156 44.4063,-54.8125 46.6875,-59.1094 C50.1563,-65.6875 51.2969,-70.2656 51.3594,-70.4688 C53.0781,-75.6875 53.4375,-83.3906 52.3281,-91.5938 C51.3281,-99.1406 49.2344,-105.859 46.875,-109.109 C45.8594,-110.531 44.7969,-111.266 43.7656,-111.266 C42.5469,-111.266 40.0313,-110.031 37.1406,-107.25 C34.8438,-105.063 31.5781,-101.172 29.0156,-95.1563 C26.0156,-88.0938 25.7969,-78.6094 26.1563,-71.8906 C26.5313,-64.6094 27.6406,-58.9219 27.6563,-58.875 C27.6719,-58.7813 27.9375,-57.2813 28.375,-54.7188 C28.1563,-54.4844 27.9063,-54.2656 27.6563,-54.0156 C26.625,-53.0156 25.4375,-51.8906 24.0469,-50.5 C23.1875,-49.6406 22.2344,-48.7344 21.2344,-47.7656 C12.7969,-39.625 0,-27.2969 0,-8.14063 C0,-3.4375 0.90625,0.984375 2.6875,5 C4.26563,8.59375 6.5625,11.875 9.5,14.75 C17.2344,22.3125 27.8281,25.5156 34.875,25.3594 C37.8281,25.2813 40.4688,25.0469 42.8594,24.5938 C44.6875,34.2031 45.8281,41.2344 45.8594,46.5781 C45.9063,53.0938 44.25,57.0781 40.3594,59.8438 C37.9219,61.5781 35.1094,62.5313 32.0156,62.6719 C29.4219,62.7969 27.1563,62.3281 25.7344,61.9219 L25.7188,61.9219 C25.7188,61.9219 25.4375,61.8281 25.4219,61.6406 C25.4063,61.4531 25.7656,61.4063 25.7656,61.4063 L25.7969,61.4063 C27.7188,60.9688 31.2813,59.7344 33.6406,56.4375 C35.4375,53.9063 36.3125,49.2813 34.4688,45.3438 C33.3594,42.9531 30.8594,40 25.2344,39.5469 C22.7344,39.3438 20.4688,39.8594 18.4688,41.0625 C16.6563,42.1406 15.1563,43.7813 14.1094,45.7813 C11.6563,50.4844 12.1094,56.2188 15.2344,60.0625 C18.2031,63.6875 22.8125,66 28.25,66.5781 C29.1094,66.6719 29.9531,66.7031 30.7969,66.7031 C35.2344,66.7031 39.625,65.5 43.2031,63.2969 C46.8594,60.7188 48.9844,56.7344 49.6563,51.1094 C50.2188,46.4688 49.8281,40.5469 48.4375,32.4688 C48.0781,30.375 47.5313,27.3438 46.875,23.5938 C52.625,21.6719 56.7813,18.0938 60.5469,12.2344 C63.8438,6.5 64.7813,0.390625 63.3594,-5.92188 M29.1406,20.2969 C24.5,19.0781 20.0625,16.5781 16.3125,13.0625 C15,11.8438 13.125,9.67188 11.6563,6.28125 C10.2969,3.10938 9.625,-0.328125 9.6875,-3.90625 C9.75,-8.60938 11.0625,-13.4375 13.5625,-18.2188 C16.4844,-23.7969 21.0469,-29.3281 27.1094,-34.6563 C28.5625,-35.9375 29.9375,-37.2188 31.2188,-38.5 C31.9844,-34.2344 32.8125,-29.5469 33.6875,-24.6719 C29.8438,-23.4063 25.0938,-20.25 21.9844,-14.5938 C18.4375,-8.03125 18.5781,-2.5 19.3125,0.984375 C20.25,5.4375 22.7813,9.20313 26.2344,11.2969 C27.1719,11.8594 31.2969,13.9844 33.1406,13.4063 C33.5156,13.2969 33.7813,13.0625 33.9219,12.7344 C34.4375,11.5625 33.4063,10.9219 31.8594,9.96875 C31.25,9.59375 30.5781,9.17188 29.8594,8.64063 C26.5313,6.15625 25.0781,1.70313 26.1563,-2.6875 C26.7344,-5.07813 28.0156,-7.25 29.8594,-8.95313 C31.5156,-10.5 33.5625,-11.5938 35.9375,-12.2344 C37.9844,-0.984375 40.0469,10.1719 41.6875,18.5313 C41.8125,19.2188 41.9531,19.8906 42.0781,20.5625 C37.7031,21.5 33.3594,21.4063 29.1406,20.2969 M40.4688,-12.9063 C50.8125,-13.375 55.0781,-5.9375 55.9688,-1.10938 C56.4375,1.4375 56.4375,5.875 54.8906,10.0938 C53.7188,13.2656 51.2656,17.3438 46.125,19.4063 C46.0625,18.9844 45.9844,18.5469 45.9063,18.125 C44.3594,9.34375 42.4219,-1.65625 40.4688,-12.9063 M33.1406,-83.8594 C34.9219,-89.5938 37.6563,-92.8438 39.6563,-94.5781 C41.4063,-96.0938 43.0469,-96.8125 43.9688,-96.8125 C44.1094,-96.8125 44.2344,-96.7813 44.3281,-96.75 C44.7969,-96.6094 45.3281,-96.0469 45.7969,-95.1719 C48.1094,-90.8906 47.3594,-84.1719 46.0156,-79.7344 C44.3906,-74.3281 41.4688,-68.7188 32.6719,-59.1094 C32.5,-60.2188 32.3438,-61.2656 32.1875,-62.25 C30.9375,-70.5313 31.2656,-77.8125 33.1406,-83.8594"/>
<path class="Clef" transform="matrix(2.0126,0,0,2.0126,111.118,1391.1)" d="M63.3594,-5.92188 C62.125,-11.3438 59.4844,-15.1719 58.7031,-16.2031 C55.5156,-20.4844 51.5,-23.3281 46.8125,-24.6875 C43.7031,-25.5625 40.7031,-25.6875 38.2813,-25.5 C37.2344,-31.5156 36.2344,-37.3906 35.3281,-42.8438 C40.7813,-49.0156 44.4063,-54.8125 46.6875,-59.1094 C50.1563,-65.6875 51.2969,-70.2656 51.3594,-70.4688 C53.0781,-75.6875 53.4375,-83.3906 52.3281,-91.5938 C51.3281,-99.1406 49.2344,-105.859 46.875,-109.109 C45.8594,-110.531 44.7969,-111.266 43.7656,-111.266 C42.5469,-111.266 40.0313,-110.031 37.1406,-107.25 C34.8438,-105.063 31.5781,-101.172 29.0156,-95.1563 C26.0156,-88.0938 25.7969,-78.6094 26.1563,-71.8906 C26.5313,-64.6094 27.6406,-58.9219 27.6563,-58.875 C27.6719,-58.7813 27.9375,-57.2813 28.375,-54.7188 C28.1563,-54.4844 27.9063,-54.2656 27.6563,-54.0156 C26.625,-53.0156 25.4375,-51.8906 24.0469,-50.5 C23.1875,-49.6406 22.2344,-48.7344 21.2344,-47.7656 C12.7969,-39.625 0,-27.2969 0,-8.14063 C0,-3.4375 0.90625,0.984375 2.6875,5 C4.26563,8.59375 6.5625,11.875 9.5,14.75 C17.2344,22.3125 27.8281,25.5156 34.875,25.3594 C37.8281,25.2813 40.4688,25.0469 42.8594,24.5938 C44.6875,34.2031 45.8281,41.2344 45.8594,46.5781 C45.9063,53.0938 44.25,57.0781 40.3594,59.8438 C37.9219,61.5781 35.1094,62.5313 32.0156,62.6719 C29.4219,62.7969 27.1563,62.3281 25.7344,61.9219 L25.7188,61.9219 C25.7188,61.9219 25.4375,61.8281 25.4219,61.6406 C25.4063,61.4531 25.7656,61.4063 25.7656,61.4063 L25.7969,61.4063 C27.7188,60.9688 31.2813,59.7344 33.6406,56.4375 C35.4375,53.9063 36.3125,49.2813 34.4688,45.3438 C33.3594,42.9531 30.8594,40 25.2344,39.5469 C22.7344,39.3438 20.4688,39.8594 18.4688,41.0625 C16.6563,42.1406 15.1563,43.7813 14.1094,45.7813 C11.6563,50.4844 12.1094,56.2188 15.2344,60.0625 C18.2031,63.6875 22.8125,66 28.25,66.5781 C29.1094,66.6719 29.9531,66.7031 30.7969,66.7031 C35.2344,66.7031 39.625,65.5 43.2031,63.2969 C46.8594,60.7188 48.9844,56.7344 49.6563,51.1094 C50.2188,46.4688 49.8281,40.5469 48.4375,32.4688 C48.0781,30.375 47.5313,27.3438 46.875,23.5938 C52.625,21.6719 56.7813,18.0938 60.5469,12.2344 C63.8438,6.5 64.7813,0.390625 63.3594,-5.92188 M29.1406,20.2969 C24.5,19.0781 20.0625,16.5781 16.3125,13.0625 C15,11.8438 13.125,9.67188 11.6563,6.28125 C10.2969,3.10938 9.625,-0.328125 9.6875,-3.90625 C9.75,-8.60938 11.0625,-13.4375 13.5625,-18.2188 C16.4844,-23.7969 21.0469,-29.3281 27.1094,-34.6563 C28.5625,-35.9375 29.9375,-37.2188 31.2188,-38.5 C31.9844,-34.2344 32.8125,-29.5469 33.6875,-24.6719 C29.8438,-23.4063 25.0938,-20.25 21.9844,-14.5938 C18.4375,-8.03125 18.5781,-2.5 19.3125,0.984375 C20.25,5.4375 22.7813,9.20313 26.2344,11.2969 C27.1719,11.8594 31.2969,13.9844 33.1406,13.4063 C33.5156,13.2969 33.7813,13.0625 33.9219,12.7344 C34.4375,11.5625 33.4063,10.9219 31.8594,9.96875 C31.25,9.59375 30.5781,9.17188 29.8594,8.64063 C26.5313,6.15625 25.0781,1.70313 26.1563,-2.6875 C26.7344,-5.07813 28.0156,-7.25 29.8594,-8.95313 C31.5156,-10.5 33.5625,-11.5938 35.9375,-12.2344 C37.9844,-0.984375 40.0469,10.1719 41.6875,18.5313 C41.8125,19.2188 41.9531,19.8906 42.0781,20.5625 C37.7031,21.5 33.3594,21.4063 29.1406,20.2969 M40.4688,-12.9063 C50.8125,-13.375 55.0781,-5.9375 55.9688,-1.10938 C56.4375,1.4375 56.4375,5.875 54.8906,10.0938 C53.7188,13.2656 51.2656,17.3438 46.125,19.4063 C46.0625,18.9844 45.9844,18.5469 45.9063,18.125 C44.3594,9.34375 42.4219,-1.65625 40.4688,-12.9063 M33.1406,-83.8594 C34.9219,-89.5938 37.6563,-92.8438 39.6563,-94.5781 C41.4063,-96.0938 43.0469,-96.8125 43.9688,-96.8125 C44.1094,-96.8125 44.2344,-96.7813 44.3281,-96.75 C44.7969,-96.6094 45.3281,-96.0469 45.7969,-95.1719 C48.1094,-90.8906 47.3594,-84.1719 46.0156,-79.7344 C44.3906,-74.3281 41.4688,-68.7188 32.6719,-59.1094 C32.5,-60.2188 32.3438,-61.2656 32.1875,-62.25 C30.9375,-70.5313 31.2656,-77.8125 33.1406,-83.8594"/>
<path class="Clef" transform="matrix(2.0126,0,0,2.0126,111.118,2208.19)" d="M63.3594,-5.92188 C62.125,-11.3438 59.4844,-15.1719 58.7031,-16.2031 C55.5156,-20.4844 51.5,-23.3281 46.8125,-24.6875 C43.7031,-25.5625 40.7031,-25.6875 38.2813,-25.5 C37.2344,-31.5156 36.2344,-37.3906 35.3281,-42.8438 C40.7813,-49.0156 44.4063,-54.8125 46.6875,-59.1094 C50.1563,-65.6875 51.2969,-70.2656 51.3594,-70.4688 C53.0781,-75.6875 53.4375,-83.3906 52.3281,-91.5938 C51.3281,-99.1406 49.2344,-105.859 46.875,-109.109 C45.8594,-110.531 44.7969,-111.266 43.7656,-111.266 C42.5469,-111.266 40.0313,-110.031 37.1406,-107.25 C34.8438,-105.063 31.5781,-101.172 29.0156,-95.1563 C26.0156,-88.0938 25.7969,-78.6094 26.1563,-71.8906 C26.5313,-64.6094 27.6406,-58.9219 27.6563,-58.875 C27.6719,-58.7813 27.9375,-57.2813 28.375,-54.7188 C28.1563,-54.4844 27.9063,-54.2656 27.6563,-54.0156 C26.625,-53.0156 25.4375,-51.8906 24.0469,-50.5 C23.1875,-49.6406 22.2344,-48.7344 21.2344,-47.7656 C12.7969,-39.625 0,-27.2969 0,-8.14063 C0,-3.4375 0.90625,0.984375 2.6875,5 C4.26563,8.59375 6.5625,11.875 9.5,14.75 C17.2344,22.3125 27.8281,25.5156 34.875,25.3594 C37.8281,25.2813 40.4688,25.0469 42.8594,24.5938 C44.6875,34.2031 45.8281,41.2344 45.8594,46.5781 C45.9063,53.0938 44.25,57.0781 40.3594,59.8438 C37.9219,61.5781 35.1094,62.5313 32.0156,62.6719 C29.4219,62.7969 27.1563,62.3281 25.7344,61.9219 L25.7188,61.9219 C25.7188,61.9219 25.4375,61.8281 25.4219,61.6406 C25.4063,61.4531 25.7656,61.4063 25.7656,61.4063 L25.7969,61.4063 C27.7188,60.9688 31.2813,59.7344 33.6406,56.4375 C35.4375,53.9063 36.3125,49.2813 34.4688,45.3438 C33.3594,42.9531 30.8594,40 25.2344,39.5469 C22.7344,39.3438 20.4688,39.8594 18.4688,41.0625 C16.6563,42.1406 15.1563,43.7813 14.1094,45.7813 C11.6563,50.4844 12.1094,56.2188 15.2344,60.0625 C18.2031,63.6875 22.8125,66 28.25,66.5781 C29.1094,66.6719 29.9531,66.7031 30.7969,66.7031 C35.2344,66.7031 39.625,65.5 43.2031,63.2969 C46.8594,60.7188 48.9844,56.7344 49.6563,51.1094 C50.2188,46.4688 49.8281,40.5469 48.4375,32.4688 C48.0781,30.375 47.5313,27.3438 46.875,23.5938 C52.625,21.6719 56.7813,18.0938 60.5469,12.2344 C63.8438,6.5 64.7813,0.390625 63.3594,-5.92188 M29.1406,20.2969 C24.5,19.0781 20.0625,16.5781 16.3125,13.0625 C15,11.8438 13.125,9.67188 11.6563,6.28125 C10.2969,3.10938 9.625,-0.328125 9.6875,-3.90625 C9.75,-8.60938 11.0625,-13.4375 13.5625,-18.2188 C16.4844,-23.7969 21.0469,-29.3281 27.1094,-34.6563 C28.5625,-35.9375 29.9375,-37.2188 31.2188,-38.5 C31.9844,-34.2344 32.8125,-29.5469 33.6875,-24.6719 C29.8438,-23.4063 25.0938,-20.25 21.9844,-14.5938 C18.4375,-8.03125 18.5781,-2.5 19.3125,0.984375 C20.25,5.4375 22.7813,9.20313 26.2344,11.2969 C27.1719,11.8594 31.2969,13.9844 33.1406,13.4063 C33.5156,13.2969 33.7813,13.0625 33.9219,12.7344 C34.4375,11.5625 33.4063,10.9219 31.8594,9.96875 C31.25,9.59375 30.5781,9.17188 29.8594,8.64063 C26.5313,6.15625 25.0781,1.70313 26.1563,-2.6875 C26.7344,-5.07813 28.0156,-7.25 29.8594,-8.95313 C31.5156,-10.5 33.5625,-11.5938 35.9375,-12.2344 C37.9844,-0.984375 40.0469,10.1719 41.6875,18.5313 C41.8125,19.2188 41.9531,19.8906 42.0781,20.5625 C37.7031,21.5 33.3594,21.4063 29.1406,20.2969 M40.4688,-12.9063 C50.8125,-13.375 55.0781,-5.9375 55.9688,-1.10938 C56.4375,1.4375 56.4375,5.875 54.8906,10.0938 C53.7188,13.2656 51.2656,17.3438 46.125,19.4063 C46.0625,18.9844 45.9844,18.5469 45.9063,18.125 C44.3594,9.34375 42.4219,-1.65625 40.4688,-12.9063 M33.1406,-83.8594 C34.9219,-89.5938 37.6563,-92.8438 39.6563,-94.5781 C41.4063,-96.0938 43.0469,-96.8125 43.9688,-96.8125 C44.1094,-96.8125 44.2344,-96.7813 44.3281,-96.75 C44.7969,-96.6094 45.3281,-96.0469 45.7969,-95.1719 C48.1094,-90.8906 47.3594,-84.1719 46.0156,-79.7344 C44.3906,-74.3281 41.4688,-68.7188 32.6719,-59.1094 C32.5,-60.2188 32.3438,-61.2656 32.1875,-62.25 C30.9375,-70.5313 31.2656,-77.8125 33.1406,-83.8594"/>
<path class="KeySig" transform="matrix(2.0126,0,0,2.0126,340.523,498.543)" d="M23.2969,-10.5938 C23.9063,-10.7031 24.4063,-11.4063 24.4063,-12 L24.4063,-17.9063 C24.4063,-18.7031 23.7969,-19.2969 23,-19.2969 L22.7969,-19.2969 L19.5,-18.5938 L19.5,-33.5 L16.7031,-33.5 L16.7031,-18 L7.79688,-16.2031 L7.79688,-30.2969 L5,-30.2969 L5,-15.5938 L1.09375,-14.7969 C0.5,-14.7031 0,-14 0,-13.4063 L0,-13.2031 L0,-7.40625 L0,-7.59375 C0,-6.79688 0.59375,-6.20313 1.40625,-6.20313 L1.70313,-6.20313 L5,-6.90625 L5,9.59375 L1.09375,10.4063 C0.5,10.5 0,11.2031 0,11.7969 L0,17.5938 C0,18.4063 0.59375,19 1.40625,19 L1.70313,19 L5,18.2969 L5,33.2031 L7.79688,33.2031 L7.79688,17.7031 L16.7031,15.9063 L16.7031,30 L19.5,30 L19.5,15.2969 L23.2969,14.5938 C23.9063,14.5 24.4063,13.7969 24.4063,13.2031 L24.4063,7.29688 C24.4063,6.5 23.7969,5.90625 23,5.90625 L22.7969,5.90625 L19.5,6.59375 L19.5,-9.90625 L23.2969,-10.5938 M7.79688,9.09375 L7.79688,-7.5 L16.7031,-9.29688 L16.7031,7.20313 L7.79688,9.09375 "/>
<path class="KeySig" transform="matrix(2.0126,0,0,2.0126,290.208,423.071)" d="M23.2969,-10.5938 C23.9063,-10.7031 24.4063,-11.4063 24.4063,-12 L24.4063,-17.9063 C24.4063,-18.7031 23.7969,-19.2969 23,-19.2969 L22.7969,-19.2969 L19.5,-18.5938 L19.5,-33.5 L16.7031,-33.5 L16.7031,-18 L7.79688,-16.2031 L7.79688,-30.2969 L5,-30.2969 L5,-15.5938 L1.09375,-14.7969 C0.5,-14.7031 0,-14 0,-13.4063 L0,-13.2031 L0,-7.40625 L0,-7.59375 C0,-6.79688 0.59375,-6.20313 1.40625,-6.20313 L1.70313,-6.20313 L5,-6.90625 L5,9.59375 L1.09375,10.4063 C0.5,10.5 0,11.2031 0,11.7969 L0,17.5938 C0,18.4063 0.59375,19 1.40625,19 L1.70313,19 L5,18.2969 L5,33.2031 L7.79688,33.2031 L7.79688,17.7031 L16.7031,15.9063 L16.7031,30 L19.5,30 L19.5,15.2969 L23.2969,14.5938 C23.9063,14.5 24.4063,13.7969 24.4063,13.2031 L24.4063,7.29688 C24.4063,6.5 23.7969,5.90625 23,5.90625 L22.7969,5.90625 L19.5,6.59375 L19.5,-9.90625 L23.2969,-10.5938 M7.79688,9.09375 L7.79688,-7.5 L16.7031,-9.29688 L16.7031,7.20313 L7.79688,9.09375 "/>
<path class="KeySig" transform="matrix(2.0126,0,0,2.0126,340.523,1315.63)" d="M23.2969,-10.5938 C23.9063,-10.7031 24.4063,-11.4063 24.4063,-12 L24.4063,-17.9063 C24.4063,-18.7031 23.7969,-19.2969 23,-19.2969 L22.7969,-19.2969 L19.5,-18.5938 L19.5,-33.5 L16.7031,-33.5 L16.7031,-18 L7.79688,-16.2031 L7.79688,-30.2969 L5,-30.2969 L5,-15.5938 L1.09375,-14.7969 C0.5,-14.7031 0,-14 0,-13.4063 L0,-13.2031 L0,-7.40625 L0,-7.59375 C0,-6.79688 0.59375,-6.20313 1.40625,-6.20313 L1.70313,-6.20313 L5,-6.90625 L5,9.59375 L1.09375,10.4063 C0.5,10.5 0,11.2031 0,11.7969 L0,17.5938 C0,18.4063 0.59375,19 1.40625,19 L1.70313,19 L5,18.2969 L5,33.2031 L7.79688,33.2031 L7.79688,17.7031 L16.7031,15.9063 L16.7031,30 L19.5,30 L19.5,15.2969 L23.2969,14.5938 C23.9063,14.5 24.4063,13.7969 24.4063,13.2031 L24.4063,7.29688 C24.4063,6.5 23.7969,5.90625 23,5.90625 L22.7969,5.90625 L19.5,6.59375 L19.5,-9.90625 L23.2969,-10.5938 M7.79688,9.09375 L7.79688,-7.5 L16.7031,-9.29688 L16.7031,7.20313 L7.79688,9.09375 "/>
<path class="KeySig" transform="matrix(2.0126,0,0,2.0126,290.208,1240.16)" d="M23.2969,-10.5938 C23.9063,-10.7031 24.4063,-11.4063 24.4063,-12 L24.4063,-17.9063 C24.4063,-18.7031 23.7969,-19.2969 23,-19.2969 L22.7969,-19.2969 L19.5,-18.5938 L19.5,-33.5 L16.7031,-33.5 L16.7031,-18 L7.79688,-16.2031 L7.79688,-30.2969 L5,-30.2969 L5,-15.5938 L1.09375,-14.7969 C0.5,-14.7031 0,-14 0,-13.4063 L0,-13.2031 L0,-7.40625 L0,-7.59375 C0,-6.79688 0.59375,-6.20313 1.40625,-6.20313 L1.70313,-6.20313 L5,-6.90625 L5,9.59375 L1.09375,10.4063 C0.5,10.5 0,11.2031 0,11.7969 L0,17.5938 C0,18.4063 0.59375,19 1.40625,19 L1.70313,19 L5,18.2969 L5,33.2031 L7.79688,33.2031 L7.79688,17.7031 L16.7031,15.9063 L16.7031,30 L19.5,30 L19.5,15.2969 L23.2969,14.5938 C23.9063,14.5 24.4063,13.7969 24.4063,13.2031 L24.4063,7.29688 C24.4063,6.5 23.7969,5.90625 23,5.90625 L22.7969,5.90625 L19.5,6.59375 L19.5,-9.90625 L23.2969,-10.5938 M7.79688,9.09375 L7.79688,-7.5 L16.7031,-9.29688 L16.7031,7.20313 L7.79688,9.09375 "/>
<path class="KeySig" transform="matrix(2.0126,0,0,2.0126,340.523,2132.72)" d="M23.2969,-10.5938 C23.9063,-10.7031 24.4063,-11.4063 24.4063,-12 L24.4063,-17.9063 C24.4063,-18.7031 23.7969,-19.2969 23,-19.2969 L22.7969,-19.2969 L19.5,-18.5938 L19.5,-33.5 L16.7031,-33.5 L16.7031,-18 L7.79688,-16.2031 L7.79688,-30.2969 L5,-30.2969 L5,-15.5938 L1.09375,-14.7969 C0.5,-14.7031 0,-14 0,-13.4063 L0,-13.2031 L0,-7.40625 L0,-7.59375 C0,-6.79688 0.59375,-6.20313 1.40625,-6.20313 L1.70313,-6.20313 L5,-6.90625 L5,9.59375 L1.09375,10.4063 C0.5,10.5 0,11.2031 0,11.7969 L0,17.5938 C0,18.4063 0.59375,19 1.40625,19 L1.70313,19 L5,18.2969 L5,33.2031 L7.79688,33.2031 L7.79688,17.7031 L16.7031,15.9063 L16.7031,30 L19.5,30 L19.5,15.2969 L23.2969,14.5938 C23.9063,14.5 24.4063,13.7969 24.4063,13.2031 L24.4063,7.29688 C24.4063,6.5 23.7969,5.90625 23,5.90625 L22.7969,5.90625 L19.5,6.59375 L19.5,-9.90625 L23.2969,-10.5938 M7.79688,9.09375 L7.79688,-7.5 L16.7031,-9.29688 L16.7031,7.20313 L7.79688,9.09375 "/>
<path class="KeySig" transform="matrix(2.0126,0,0,2.0126,290.208,2057.24)" d="M23.2969,-10.5938 C23.9063,-10.7031 24.4063,-11.4063 24.4063,-12 L24.4063,-17.9063 C24.4063,-18.7031 23.7969,-19.2969 23,-19.2969 L22.7969,-19.2969 L19.5,-18.5938 L19.5,-33.5 L16.7031,-33.5 L16.7031,-18 L7.79688,-16.2031 L7.79688,-30.2969 L5,-30.2969 L5,-15.5938 L1.09375,-14.7969 C0.5,-14.7031 0,-14 0,-13.4063 L0,-13.2031 L0,-7.40625 L0,-7.59375 C0,-6.79688 0.59375,-6.20313 1.40625,-6.20313 L1.70313,-6.20313 L5,-6.90625 L5,9.59375 L1.09375,10.4063 C0.5,10.5 0,11.2031 0,11.7969 L0,17.5938 C0,18.4063 0.59375,19 1.40625,19 L1.70313,19 L5,18.2969 L5,33.2031 L7.79688,33.2031 L7.79688,17.7031 L16.7031,15.9063 L16.7031,30 L19.5,30 L19.5,15.2969 L23.2969,14.5938 C23.9063,14.5 24.4063,13.7969 24.4063,13.2031 L24.4063,7.29688 C24.4063,6.5 23.7969,5.90625 23,5.90625 L22.7969,5.90625 L19.5,6.59375 L19.5,-9.90625 L23.2969,-10.5938 M7.79688,9.09375 L7.79688,-7.5 L16.7031,-9.29688 L16.7031,7.20313 L7.79688,9.09375 "/>
<path class="TimeSig" transform="matrix(2.0126,0,0,2.0126,443.81,474.392)" d="M34.2031,3.90625 C33.4063,6.09375 31.4063,13.2969 26.5,13.2969 C20,13.2969 18.5938,9.29688 13.2031,9.29688 C12.4063,9.29688 11.5938,9.40625 10.5938,9.59375 C10.5938,9.59375 13.0938,5.79688 23.7031,2.5 C34.2969,-0.796875 37,-6 37,-12 C37,-16.2031 35.1094,-24.5 20,-24.5 C4.90625,-24.5 2.09375,-15.4063 2.09375,-10.7969 C2.09375,-6.70313 5.5,-3.40625 9.59375,-3.40625 C13.7031,-3.40625 17,-6.70313 17,-10.7969 C17,-13.5938 15,-16.7031 12.4063,-17.7031 C12.0938,-17.7969 11.7031,-18.2969 11.7031,-18.7969 C11.7031,-19.4063 12.2031,-20.0938 14,-20.5938 C14.5,-20.7969 15.9063,-21.0938 17.4063,-21.0938 C18.7969,-21.0938 20.4063,-20.7969 21.5938,-20 C23.5,-18.7969 24.2031,-17 24.2031,-12.5 C24.2031,-0.796875 10.2969,1.70313 4.5,10.4063 C4.5,10.4063 1.5,14.5938 1.5,19.2969 C1.5,24 3.90625,24.2969 5.09375,24.2969 C6.70313,24.2969 8.40625,23 8.40625,21.2031 C8.40625,20.7969 8.29688,20.4063 8.09375,19.9063 C7.5,18.5 7.29688,17.4063 7.29688,16.5938 C7.29688,16.2969 7.29688,16 7.40625,15.7031 C7.5,15.0938 8.29688,14.0938 10.7031,14.0938 C13.5938,14.0938 14.7031,17.5 16.5,20.0938 C18.2969,22.7031 21.0938,24.2969 24.2969,24.2969 C27.5,24.2969 31.7969,22 33.6094,18.2969 C35.4063,14.5938 37.7031,7.09375 37.7031,4.40625 C37.7031,3.09375 36.9063,2.5 36,2.5 C35.2969,2.5 34.6094,2.90625 34.2031,3.90625"/>
<path class="TimeSig" transform="matrix(2.0126,0,0,2.0126,437.175,573.748)" d="M3.59375,12.625 L20.7656,12.625 L20.7656,20.0781 L12.5469,20.0781 C11.7656,20.0781 11.125,20.7031 11.125,21.4844 L11.125,23.3906 C11.125,24.1719 11.7656,24.7969 12.5469,24.7969 L42.7969,24.7969 C43.5781,24.7969 44.2031,24.1719 44.2031,23.3906 L44.2031,21.4844 C44.2031,20.7031 43.5781,20.0781 42.7969,20.0781 L33.8594,20.0781 L33.8594,12.625 L42.7969,12.625 C43.5781,12.625 44.2031,12 44.2031,11.2188 L44.2031,9.3125 C44.2031,8.53125 43.5781,7.90625 42.7969,7.90625 L33.8594,7.90625 L33.8594,-8.0625 C33.8594,-8.59375 33.5469,-9.07813 33.0781,-9.3125 L31.8594,-9.92188 C31.3281,-10.1719 30.7031,-10.0781 30.2656,-9.6875 L21.2188,-1.375 C20.9375,-1.09375 20.7656,-0.734375 20.7656,-0.328125 L20.7656,7.90625 L9.25,7.90625 C9.25,7.90625 20.375,-4.125 32.2188,-19.8906 C33.0781,-21.0469 32.5781,-22.0938 32.3906,-22.2813 L30.2188,-24.4844 C29.9531,-24.75 29.5938,-24.9063 29.2188,-24.9063 C28.625,-24.9063 15.0625,-24.875 14.3438,-24.9063 C13.625,-24.9219 13.0938,-24.2969 13.0156,-23.6875 C13.0156,-23.6875 12.4844,-16.3281 9.875,-8.1875 C7.28125,-0.078125 4.34375,4.90625 1.6875,8.53125 C1.6875,8.53125 1.14063,9.51563 1.5,10.2656 C1.84375,11.0156 2.48438,12.0938 2.48438,12.0938 C2.48438,12.0938 2.73438,12.625 3.59375,12.625"/>
<path class="Rest" transform="matrix(2.0126,0,0,2.0126,2158.05,523.701)" d="M26.7344,-20.2656 C25.9844,-20.5469 25.3125,-20.2031 24.9844,-19.5938 C24.6563,-18.9844 21.4688,-13.0625 17.0469,-9.79688 C15.6563,-8.78125 14.0625,-8.14063 12.5,-7.8125 C13.625,-9.0625 14.2969,-10.7344 14.2969,-12.5469 C14.2969,-16.5 11.0938,-19.7031 7.15625,-19.7031 C3.20313,-19.7031 0,-16.5 0,-12.5469 C0,-9.54688 1.875,-6.95313 4.51563,-5.90625 C6.04688,-5.1875 7.95313,-4.73438 10,-4.73438 C12.8438,-4.73438 15.9531,-5.5625 18.6719,-7.5625 C19.9375,-8.48438 21.125,-9.6875 22.2031,-10.9375 L10.8125,24.6875 L13.4531,25.5469 L27.5313,-18.5469 C27.7656,-19.2813 27.4688,-19.9688 26.7344,-20.2656"/>
<path class="Rest" transform="matrix(2.0126,0,0,2.0126,3910.54,523.701)" d="M26.7344,-20.2656 C25.9844,-20.5469 25.3125,-20.2031 24.9844,-19.5938 C24.6563,-18.9844 21.4688,-13.0625 17.0469,-9.79688 C15.6563,-8.78125 14.0625,-8.14063 12.5,-7.8125 C13.625,-9.0625 14.2969,-10.7344 14.2969,-12.5469 C14.2969,-16.5 11.0938,-19.7031 7.15625,-19.7031 C3.20313,-19.7031 0,-16.5 0,-12.5469 C0,-9.54688 1.875,-6.95313 4.51563,-5.90625 C6.04688,-5.1875 7.95313,-4.73438 10,-4.73438 C12.8438,-4.73438 15.9531,-5.5625 18.6719,-7.5625 C19.9375,-8.48438 21.125,-9.6875 22.2031,-10.9375 L10.8125,24.6875 L13.4531,25.5469 L27.5313,-18.5469 C27.7656,-19.2813 27.4688,-19.9688 26.7344,-20.2656"/>
<path class="Rest" transform="matrix(2.0126,0,0,2.0126,3987.68,1340.79)" d="M23.2031,16.9063 L23,16.5938 C22.9063,16.5 22.7031,16.2969 22.4063,15.9063 L10.9063,1.70313 C10.5938,1.40625 10.7031,0.59375 10.9063,0.203125 L21.0938,-15.2031 C21.2031,-15.4063 21.2969,-15.7031 21.2969,-15.9063 L21.2969,-16.7969 C21.2969,-17.0938 21.2031,-17.4063 21,-17.5938 L4.79688,-39.5 C4.79688,-39.5 4,-40.7031 3,-39.7969 C2,-39 2.79688,-37.7031 2.79688,-37.7031 L10.4063,-27.2969 C10.7969,-26.7031 10.7969,-25.5 10.4063,-24.9063 L0.296875,-9.5 C0.203125,-9.29688 0.09375,-8.90625 0.09375,-8.70313 L0.09375,-7.79688 C0.09375,-7.5 0.203125,-7.20313 0.40625,-7 L11.5938,6.90625 C11.2031,6.79688 10.2969,6.59375 9.09375,6.59375 C7.40625,6.59375 5.20313,7 3.40625,8.59375 C1.20313,10.5938 0,13.4063 0,15.9063 C0,17.2969 0.296875,18.7031 1.09375,19.7969 C3.20313,23 10.7031,32.5 10.7031,32.5 C10.7031,32.5 11.5938,33.6094 12.5,32.9063 C13.4063,32.2031 13.2031,31.2969 12.9063,30.7969 C12.5938,30.2969 9.40625,24.5 9.40625,24.5 C9.40625,24.5 8.70313,23.0938 8.70313,21.2969 C8.70313,20 9.09375,18.4063 10.4063,17.0938 C11.5938,15.9063 13,15.5 14.2969,15.5 C15.5938,15.5 16.7031,15.9063 17.5,16.4063 L21.4063,18.9063 C21.4063,18.9063 22.5938,19.5 23.2031,18.5938 C23.7031,17.7969 23.5,17.4063 23.2031,16.9063"/>
<path class="Beam" fill-rule="evenodd" d="M750.183,611.586 L832.861,598.105 L832.861,623.594 L750.183,637.075 L750.183,611.586 "/>
<path class="Beam" fill-rule="evenodd" d="M1166.09,561.437 L1248.77,561.437 L1248.77,586.594 L1166.09,586.594 L1166.09,561.437 "/>
<path class="Beam" fill-rule="evenodd" d="M1458.57,599.062 L1558.63,612.377 L1558.63,637.757 L1458.57,624.441 L1458.57,599.062 "/>
<path class="Beam" fill-rule="evenodd" d="M1647.62,573.905 L1747.68,560.589 L1747.68,585.969 L1647.62,599.284 L1647.62,573.905 "/>
<path class="Beam" fill-rule="evenodd" d="M2373.38,611.752 L2473.44,611.752 L2473.44,636.909 L2373.38,636.909 L2373.38,611.752 "/>
<path class="Beam" fill-rule="evenodd" d="M2562.43,611.641 L2662.49,598.326 L2662.49,623.705 L2562.43,637.02 L2562.43,611.641 "/>
<path class="Beam" fill-rule="evenodd" d="M2995.72,561.437 L3078.4,561.437 L3078.4,586.594 L2995.72,586.594 L2995.72,561.437 "/>
<path class="Beam" fill-rule="evenodd" d="M3288.2,599.062 L3388.26,612.377 L3388.26,637.757 L3288.2,624.441 L3288.2,599.062 "/>
<path class="Beam" fill-rule="evenodd" d="M3477.25,573.905 L3577.31,560.589 L3577.31,585.969 L3477.25,599.284 L3477.25,573.905 "/>
<path class="Beam" fill-rule="evenodd" d="M515.414,1428.84 L620.114,1428.84 L620.114,1454 L515.414,1454 L515.414,1428.84 "/>
<path class="Beam" fill-rule="evenodd" d="M713.744,1428.74 L818.443,1415.46 L818.443,1440.82 L713.744,1454.1 L713.744,1428.74 "/>
<path class="Beam" fill-rule="evenodd" d="M1160.24,1378.52 L1248.27,1378.52 L1248.27,1403.68 L1160.24,1403.68 L1160.24,1378.52 "/>
<path class="Beam" fill-rule="evenodd" d="M1458.07,1416.16 L1562.76,1429.44 L1562.76,1454.8 L1458.07,1441.52 L1458.07,1416.16 "/>
<path class="Beam" fill-rule="evenodd" d="M1656.39,1391 L1761.09,1377.72 L1761.09,1403.08 L1656.39,1416.36 L1656.39,1391 "/>
<path class="Beam" fill-rule="evenodd" d="M2317.71,1428.84 L2422.41,1428.84 L2422.41,1454 L2317.71,1454 L2317.71,1428.84 "/>
<path class="Beam" fill-rule="evenodd" d="M2516.04,1428.74 L2620.74,1415.46 L2620.74,1440.82 L2516.04,1454.1 L2516.04,1428.74 "/>
<path class="Beam" fill-rule="evenodd" d="M2830.54,1378.52 L2935.24,1378.52 L2935.24,1403.68 L2830.54,1403.68 L2830.54,1378.52 "/>
<path class="Beam" fill-rule="evenodd" d="M3028.87,1378.52 L3133.57,1378.52 L3133.57,1403.68 L3028.87,1403.68 L3028.87,1378.52 "/>
<path class="Beam" fill-rule="evenodd" d="M3343.37,1416.16 L3448.07,1429.44 L3448.07,1454.8 L3343.37,1441.52 L3343.37,1416.16 "/>
<path class="Beam" fill-rule="evenodd" d="M3541.7,1378.42 L3646.4,1391.7 L3646.4,1417.06 L3541.7,1403.78 L3541.7,1378.42 "/>
<path class="Beam" fill-rule="evenodd" d="M533.025,2132.72 L665.449,2132.72 L665.449,2157.87 L533.025,2157.87 L533.025,2132.72 "/>
<path class="Beam" fill-rule="evenodd" d="M786.804,2132.72 L919.228,2132.72 L919.228,2157.87 L786.804,2157.87 L786.804,2132.72 "/>
<path class="Beam" fill-rule="evenodd" d="M1252.62,2245.92 L1333.61,2245.92 L1333.61,2271.08 L1252.62,2271.08 L1252.62,2245.92 "/>
<path class="Beam" fill-rule="evenodd" d="M1561.02,2132.72 L1693.44,2132.72 L1693.44,2157.87 L1561.02,2157.87 L1561.02,2132.72 "/>
<path class="Beam" fill-rule="evenodd" d="M1814.8,2132.72 L1947.22,2132.72 L1947.22,2157.87 L1814.8,2157.87 L1814.8,2132.72 "/>
<path class="Beam" fill-rule="evenodd" d="M2488.4,2245.92 L2582.08,2245.92 L2582.08,2271.08 L2488.4,2271.08 L2488.4,2245.92 "/>
<path class="Beam" fill-rule="evenodd" d="M2664.69,2245.8 L2758.37,2232.43 L2758.37,2257.84 L2664.69,2271.21 L2664.69,2245.8 "/>
<path class="Beam" fill-rule="evenodd" d="M2968.17,2195.61 L3061.85,2195.61 L3061.85,2220.77 L2968.17,2220.77 L2968.17,2195.61 "/>
<path class="Beam" fill-rule="evenodd" d="M3144.47,2195.61 L3238.15,2195.61 L3238.15,2220.77 L3144.47,2220.77 L3144.47,2195.61 "/>
<path class="Beam" fill-rule="evenodd" d="M3447.95,2233.22 L3541.63,2246.59 L3541.63,2272 L3447.95,2258.63 L3447.95,2233.22 "/>
<path class="Beam" fill-rule="evenodd" d="M3624.24,2195.48 L3717.92,2208.85 L3717.92,2234.26 L3624.24,2220.89 L3624.24,2195.48 "/>
<path class="Hook" transform="matrix(2.0126,0,0,2.0126,2080.91,724.96)" d="M2.5,0.40625 C2.5,0.203125 3.40625,-3.20313 3.5,-3.5 C3.59375,-3.90625 5.40625,-9.59375 9.09375,-15.2969 C11.7969,-19.5 21.2969,-31.7969 21,-31.7969 C21,-31.7969 28.4063,-41.2969 28.9063,-54.2031 L28.9063,-56.5 C28.9063,-62.6094 28.1094,-71.2031 24.5938,-79.9063 C24.2031,-80.9063 23.7969,-81.9063 22.7031,-81.5 C21.5938,-81.1094 21.9063,-79.9063 22.2031,-78.8125 C24,-71.7969 25,-64.6094 25,-57.4063 C25,-49 22,-44.7969 20.2031,-41.7031 C13.5938,-30.6094 5,-25.2031 0.796875,-23.7969 C0.296875,-23.5938 0,-23.2031 0,-22.7031 L0,-16.5 L0,-0.09375 C0,0.59375 0.59375,1.20313 1.29688,1.20313 C1.79688,1.20313 2.40625,0.796875 2.5,0.40625"/>
<path class="Hook" transform="matrix(2.0126,0,0,2.0126,3987.68,724.96)" d="M2.5,0.40625 C2.5,0.203125 3.40625,-3.20313 3.5,-3.5 C3.59375,-3.90625 5.40625,-9.59375 9.09375,-15.2969 C11.7969,-19.5 21.2969,-31.7969 21,-31.7969 C21,-31.7969 28.4063,-41.2969 28.9063,-54.2031 L28.9063,-56.5 C28.9063,-62.6094 28.1094,-71.2031 24.5938,-79.9063 C24.2031,-80.9063 23.7969,-81.9063 22.7031,-81.5 C21.5938,-81.1094 21.9063,-79.9063 22.2031,-78.8125 C24,-71.7969 25,-64.6094 25,-57.4063 C25,-49 22,-44.7969 20.2031,-41.7031 C13.5938,-30.6094 5,-25.2031 0.796875,-23.7969 C0.296875,-23.5938 0,-23.2031 0,-22.7031 L0,-16.5 L0,-0.09375 C0,0.59375 0.59375,1.20313 1.29688,1.20313 C1.79688,1.20313 2.40625,0.796875 2.5,0.40625"/>
<path class="RehearsalMark" fill="none" stroke="#000000" stroke-width="8.05" stroke-linecap="square" stroke-linejoin="miter" stroke-miterlimit="2" fill-rule="evenodd" d="M437.672,138.943 L609.037,138.943 L609.037,301.309 L437.672,301.309 L437.672,138.943 "/>
<path class="RehearsalMark" d="M519.355,168.204 L487.339,242.938 C480.855,258.173 475.636,263.673 467.323,264.516 L467.323,272.126 L508.073,272.126 L508.073,264.516 C498.058,263.954 494.105,261.266 494.105,254.782 C494.105,252.391 494.667,250.126 496.23,246.751 L498.48,241.391 L533.589,241.391 L538.948,255.204 C540.495,259.157 540.636,259.86 540.636,260.985 C540.636,263.532 538.667,264.376 532.464,264.376 L530.058,264.516 L530.058,272.126 L579.558,272.126 L579.558,264.516 C571.527,264.235 569.261,262.813 566.308,255.626 L530.058,168.204 L519.355,168.204 M516.386,198.235 L530.058,231.938 L502.152,231.938 L516.386,198.235 "/>
<path class="RehearsalMark" fill="none" stroke="#000000" stroke-width="8.05" stroke-linecap="square" stroke-linejoin="miter" stroke-miterlimit="2" fill-rule="evenodd" d="M309.444,1775.12 L469.81,1775.12 L469.81,1935.48 L309.444,1935.48 L309.444,1775.12 "/>
<path class="RehearsalMark" d="M339.018,1804.49 L339.018,1812.11 L341.143,1812.11 C348.752,1812.11 351.439,1812.67 352.705,1814.08 C353.689,1815.63 353.689,1816.05 353.689,1824.8 L353.689,1885.99 C353.689,1894.74 353.689,1895.16 352.705,1896.56 C351.439,1898.13 348.611,1898.69 341.143,1898.69 L339.018,1898.69 L339.018,1906.3 L396.127,1906.3 C410.799,1906.3 418.268,1905.17 425.596,1901.92 C434.486,1897.99 440.408,1889.09 440.408,1879.5 C440.408,1869.64 434.768,1861.88 424.33,1857.08 C419.533,1854.83 415.455,1853.7 407.971,1852.72 C414.893,1851.59 418.83,1850.59 422.783,1848.77 C431.236,1844.67 435.752,1837.91 435.752,1829.45 C435.752,1821.41 431.518,1813.94 424.611,1810.13 C416.861,1805.77 410.096,1804.49 393.455,1804.49 L339.018,1804.49 M379.064,1850.17 L379.064,1820.28 C378.783,1814.36 380.768,1812.39 386.971,1812.11 L391.189,1812.11 C403.611,1812.11 410.236,1818.31 410.236,1830.02 C410.236,1836.92 407.83,1842.42 403.33,1845.95 C399.518,1849.05 394.721,1850.17 385.986,1850.17 L379.064,1850.17 M379.064,1857.94 L388.799,1857.94 C397.689,1857.94 401.768,1858.78 405.721,1861.31 C410.658,1864.56 413.471,1870.77 413.471,1878.09 C413.471,1884.86 410.939,1891.06 406.846,1894.45 C403.33,1897.27 398.674,1898.69 391.908,1898.69 L387.674,1898.69 C379.627,1898.41 378.783,1897.55 379.064,1889.66 L379.064,1857.94 "/>
</svg>
