<?xml version="1.0" encoding="UTF-8" standalone="no"?>
<svg width="4208.47px" height="2409.45px" viewBox="0 0 4208.47 2409.45"
 xmlns="http://www.w3.org/2000/svg" xmlns:xlink="http://www.w3.org/1999/xlink" version="1.2" baseProfile="tiny">
<title>FLAUTA</title>
<desc>Generated by MuseScore 3.6.2</desc>
<polyline class="StaffLines" fill="none" stroke="#000000" stroke-width="5.53" stroke-linejoin="bevel" points="70.866,423.071 4137.61,423.071"/>
<polyline class="StaffLines" fill="none" stroke="#000000" stroke-width="5.53" stroke-linejoin="bevel" points="70.866,473.386 4137.61,473.386"/>
<polyline class="StaffLines" fill="none" stroke="#000000" stroke-width="5.53" stroke-linejoin="bevel" points="70.866,523.701 4137.61,523.701"/>
<polyline class="StaffLines" fill="none" stroke="#000000" stroke-width="5.53" stroke-linejoin="bevel" points="70.866,574.016 4137.61,574.016"/>
<polyline class="StaffLines" fill="none" stroke="#000000" stroke-width="5.53" stroke-linejoin="bevel" points="70.866,624.331 4137.61,624.331"/>
<polyline class="StaffLines" fill="none" stroke="#000000" stroke-width="5.53" stroke-linejoin="bevel" points="70.866,1240.16 4137.61,1240.16"/>
<polyline class="StaffLines" fill="none" stroke="#000000" stroke-width="5.53" stroke-linejoin="bevel" points="70.866,1290.47 4137.61,1290.47"/>
<polyline class="StaffLines" fill="none" stroke="#000000" stroke-width="5.53" stroke-linejoin="bevel" points="70.866,1340.79 4137.61,1340.79"/>
<polyline class="StaffLines" fill="none" stroke="#000000" stroke-width="5.53" stroke-linejoin="bevel" points="70.866,1391.1 4137.61,1391.1"/>
<polyline class="StaffLines" fill="none" stroke="#000000" stroke-width="5.53" stroke-linejoin="bevel" points="70.866,1441.42 4137.61,1441.42"/>
<polyline class="StaffLines" fill="none" stroke="#000000" stroke-width="5.53" stroke-linejoin="bevel" points="70.866,2057.24 4137.61,2057.24"/>
<polyline class="StaffLines" fill="none" stroke="#000000" stroke-width="5.53" stroke-linejoin="bevel" points="70.866,2107.56 4137.61,2107.56"/>
<polyline class="StaffLines" fill="none" stroke="#000000" stroke-width="5.53" stroke-linejoin="bevel" points="70.866,2157.87 4137.61,2157.87"/>
<polyline class="StaffLines" fill="none" stroke="#000000" stroke-width="5.53" stroke-linejoin="bevel" points="70.866,2208.19 4137.61,2208.19"/>
<polyline class="StaffLines" fill="none" stroke="#000000" stroke-width="5.53" stroke-linejoin="bevel" points="70.866,2258.5 4137.61,2258.5"/>
<path class="MeasureNumber" d="M86.5847,1125.86 C85.8972,1129.01 85.1785,1130.93 84.0222,1133.17 C82.0691,1136.81 79.991,1138.45 77.1785,1138.45 C76.0222,1138.45 75.2722,1137.96 75.2722,1137.25 C75.2722,1136.96 75.3504,1136.86 75.6629,1136.37 C76.0691,1135.86 76.2722,1135.37 76.2722,1134.81 C76.2722,1133.5 75.2254,1132.5 73.866,1132.5 C72.2722,1132.5 71.1472,1133.68 71.1472,1135.45 C71.1472,1138.17 73.7097,1140.12 77.2722,1140.12 C80.4597,1140.12 83.4285,1138.73 85.866,1135.93 C89.3504,1132.04 91.616,1126.25 91.616,1121.32 C91.616,1115.09 88.616,1111.37 83.6629,1111.37 C80.7097,1111.37 77.9441,1112.7 76.1004,1114.96 C74.3035,1117.17 73.2722,1119.96 73.2722,1122.57 C73.2722,1126.37 76.1785,1129.25 80.0691,1129.25 C82.7097,1129.25 84.741,1128.17 86.5847,1125.86 M83.6316,1113.06 C86.1785,1113.06 87.8191,1115.09 87.8191,1118.29 C87.8191,1123.25 85.1004,1126.89 81.4285,1126.89 C78.8972,1126.89 77.5066,1125.17 77.5066,1122.17 C77.5066,1119.81 78.0691,1117.68 79.1472,1115.89 C80.3504,1113.96 81.7879,1113.06 83.6316,1113.06"/>
<path class="MeasureNumber" d="M87.2254,1928.3 L86.0691,1928.3 C83.866,1929.94 79.6316,1931.33 76.741,1931.33 L76.2722,1933.1 L79.0222,1933.1 C81.4597,1933.1 81.741,1933.18 81.741,1933.89 C81.741,1934.25 81.741,1934.25 81.3504,1935.69 L77.0691,1951.69 C76.5379,1953.69 76.5066,1953.82 76.1472,1954.18 C75.741,1954.57 74.8972,1954.69 72.7879,1954.74 L71.0691,1954.74 L70.866,1956.61 L85.6629,1956.61 L85.8972,1954.74 L83.741,1954.74 C81.1472,1954.74 80.5847,1954.53 80.5847,1953.66 C80.5847,1953.38 80.741,1952.46 80.9441,1951.69 L87.2254,1928.3 M113.538,1928.46 C111.413,1928.69 108.819,1928.86 106.585,1928.86 C105.46,1928.86 104.178,1928.82 102.741,1928.74 C101.413,1928.66 100.1,1928.58 98.741,1928.5 L97.741,1928.46 L93.866,1936.89 L95.3347,1937.38 L96.3035,1935.77 C98.1785,1932.66 99.0535,1932.22 103.132,1932.25 L109.897,1932.25 L105.538,1938.5 C100.413,1945.69 100.413,1945.69 98.4597,1948.89 C96.6941,1951.74 95.9754,1953.49 95.9754,1954.93 C95.9754,1956.33 96.866,1957.21 98.2566,1957.21 C99.741,1957.21 100.491,1956.49 101.022,1954.61 C103.022,1947.1 104.225,1944.49 109.772,1935.5 L113.538,1929.66 L113.538,1928.46 "/>
<polyline class="BarLine" fill="none" stroke="#000000" stroke-width="9.06" stroke-linejoin="bevel" points="894.24,420.303 894.24,627.098"/>
<polyline class="BarLine" fill="none" stroke="#000000" stroke-width="9.06" stroke-linejoin="bevel" points="1385.33,420.303 1385.33,627.098"/>
<polyline class="BarLine" fill="none" stroke="#000000" stroke-width="9.06" stroke-linejoin="bevel" points="1872.63,420.303 1872.63,627.098"/>
<polyline class="BarLine" fill="none" stroke="#000000" stroke-width="9.06" stroke-linejoin="bevel" points="2279.69,420.303 2279.69,627.098"/>
<polyline class="BarLine" fill="none" stroke="#000000" stroke-width="9.06" stroke-linejoin="bevel" points="2747.62,420.303 2747.62,627.098"/>
<polyline class="BarLine" fill="none" stroke="#000000" stroke-width="9.06" stroke-linejoin="bevel" points="3238.71,420.303 3238.71,627.098"/>
<polyline class="BarLine" fill="none" stroke="#000000" stroke-width="9.06" stroke-linejoin="bevel" points="3726.01,420.303 3726.01,627.098"/>
<polyline class="BarLine" fill="none" stroke="#000000" stroke-width="9.06" stroke-linejoin="bevel" points="4133.08,420.303 4133.08,627.098"/>
<polyline class="BarLine" fill="none" stroke="#000000" stroke-width="9.06" stroke-linejoin="bevel" points="865.293,1237.39 865.293,1444.18"/>
<polyline class="BarLine" fill="none" stroke="#000000" stroke-width="9.06" stroke-linejoin="bevel" points="1366.84,1237.39 1366.84,1444.18"/>
<polyline class="BarLine" fill="none" stroke="#000000" stroke-width="9.06" stroke-linejoin="bevel" points="1864.6,1237.39 1864.6,1444.18"/>
<polyline class="BarLine" fill="none" stroke="#000000" stroke-width="9.06" stroke-linejoin="bevel" points="2199.12,1237.39 2199.12,1444.18"/>
<polyline class="BarLine" fill="none" stroke="#000000" stroke-width="9.06" stroke-linejoin="bevel" points="2677.51,1237.39 2677.51,1444.18"/>
<polyline class="BarLine" fill="none" stroke="#000000" stroke-width="9.06" stroke-linejoin="bevel" points="3289.73,1237.39 3289.73,1444.18"/>
<polyline class="BarLine" fill="none" stroke="#000000" stroke-width="9.06" stroke-linejoin="bevel" points="3787.49,1237.39 3787.49,1444.18"/>
<polyline class="BarLine" fill="none" stroke="#000000" stroke-width="9.06" stroke-linejoin="bevel" points="4133.08,1237.39 4133.08,1444.18"/>
<polyline class="BarLine" fill="none" stroke="#000000" stroke-width="9.06" stroke-linejoin="bevel" points="964.756,2054.48 964.756,2261.27"/>
<polyline class="BarLine" fill="none" stroke="#000000" stroke-width="9.06" stroke-linejoin="bevel" points="1372.05,2054.48 1372.05,2261.27"/>
<polyline class="BarLine" fill="none" stroke="#000000" stroke-width="9.06" stroke-linejoin="bevel" points="1967.51,2054.48 1967.51,2261.27"/>
<polyline class="BarLine" fill="none" stroke="#000000" stroke-width="9.06" stroke-linejoin="bevel" points="2302.88,2054.48 2302.88,2261.27"/>
<polyline class="BarLine" fill="none" stroke="#000000" stroke-width="9.06" stroke-linejoin="bevel" points="2764.5,2054.48 2764.5,2261.27"/>
<polyline class="BarLine" fill="none" stroke="#000000" stroke-width="9.06" stroke-linejoin="bevel" points="3359.96,2054.48 3359.96,2261.27"/>
<polyline class="BarLine" fill="none" stroke="#000000" stroke-width="9.06" stroke-linejoin="bevel" points="3840.95,2054.48 3840.95,2261.27"/>
<polyline class="BarLine" fill="none" stroke="#000000" stroke-width="9.06" stroke-linejoin="bevel" points="4088.55,2054.48 4088.55,2261.27"/>
<polyline class="BarLine" fill="none" stroke="#000000" stroke-width="27.67" stroke-linejoin="bevel" points="4123.77,2054.48 4123.77,2261.27"/>
<polyline class="LedgerLine" fill="none" stroke="#000000" stroke-width="8.05" stroke-linejoin="bevel" points="954.115,372.756 1054.73,372.756"/>
<polyline class="LedgerLine" fill="none" stroke="#000000" stroke-width="8.05" stroke-linejoin="bevel" points="1119.17,372.756 1219.78,372.756"/>
<polyline class="LedgerLine" fill="none" stroke="#000000" stroke-width="8.05" stroke-linejoin="bevel" points="1222.33,372.756 1322.94,372.756"/>
<polyline class="LedgerLine" fill="none" stroke="#000000" stroke-width="8.05" stroke-linejoin="bevel" points="1709.63,372.756 1810.24,372.756"/>
<polyline class="LedgerLine" fill="none" stroke="#000000" stroke-width="8.05" stroke-linejoin="bevel" points="2807.5,372.756 2908.11,372.756"/>
<polyline class="LedgerLine" fill="none" stroke="#000000" stroke-width="8.05" stroke-linejoin="bevel" points="2972.55,372.756 3073.16,372.756"/>
<polyline class="LedgerLine" fill="none" stroke="#000000" stroke-width="8.05" stroke-linejoin="bevel" points="3075.71,372.756 3176.32,372.756"/>
<polyline class="LedgerLine" fill="none" stroke="#000000" stroke-width="8.05" stroke-linejoin="bevel" points="3563.01,372.756 3663.62,372.756"/>
<polyline class="LedgerLine" fill="none" stroke="#000000" stroke-width="8.05" stroke-linejoin="bevel" points="925.168,1189.84 1025.78,1189.84"/>
<polyline class="LedgerLine" fill="none" stroke="#000000" stroke-width="8.05" stroke-linejoin="bevel" points="1096.66,1189.84 1197.27,1189.84"/>
<polyline class="LedgerLine" fill="none" stroke="#000000" stroke-width="8.05" stroke-linejoin="bevel" points="1203.84,1189.84 1304.45,1189.84"/>
<polyline class="LedgerLine" fill="none" stroke="#000000" stroke-width="8.05" stroke-linejoin="bevel" points="1701.59,1189.84 1802.21,1189.84"/>
<polyline class="LedgerLine" fill="none" stroke="#000000" stroke-width="8.05" stroke-linejoin="bevel" points="2737.38,1189.84 2838,1189.84"/>
<polyline class="LedgerLine" fill="none" stroke="#000000" stroke-width="8.05" stroke-linejoin="bevel" points="2867.16,1189.84 2967.78,1189.84"/>
<polyline class="LedgerLine" fill="none" stroke="#000000" stroke-width="8.05" stroke-linejoin="bevel" points="2996.94,1189.84 3097.56,1189.84"/>
<polyline class="LedgerLine" fill="none" stroke="#000000" stroke-width="8.05" stroke-linejoin="bevel" points="3126.73,1189.84 3227.34,1189.84"/>
<polyline class="LedgerLine" fill="none" stroke="#000000" stroke-width="8.05" stroke-linejoin="bevel" points="3526.99,1189.84 3627.6,1189.84"/>
<polyline class="LedgerLine" fill="none" stroke="#000000" stroke-width="8.05" stroke-linejoin="bevel" points="429.171,2006.93 529.786,2006.93"/>
<polyline class="LedgerLine" fill="none" stroke="#000000" stroke-width="8.05" stroke-linejoin="bevel" points="429.171,1956.61 529.786,1956.61"/>
<polyline class="LedgerLine" fill="none" stroke="#000000" stroke-width="8.05" stroke-linejoin="bevel" points="553.365,2006.93 653.979,2006.93"/>
<polyline class="LedgerLine" fill="none" stroke="#000000" stroke-width="8.05" stroke-linejoin="bevel" points="553.365,1956.61 653.979,1956.61"/>
<polyline class="LedgerLine" fill="none" stroke="#000000" stroke-width="8.05" stroke-linejoin="bevel" points="677.558,2006.93 778.172,2006.93"/>
<polyline class="LedgerLine" fill="none" stroke="#000000" stroke-width="8.05" stroke-linejoin="bevel" points="677.558,1956.61 778.172,1956.61"/>
<polyline class="LedgerLine" fill="none" stroke="#000000" stroke-width="8.05" stroke-linejoin="bevel" points="801.751,2006.93 902.365,2006.93"/>
<polyline class="LedgerLine" fill="none" stroke="#000000" stroke-width="8.05" stroke-linejoin="bevel" points="801.751,1956.61 902.365,1956.61"/>
<polyline class="LedgerLine" fill="none" stroke="#000000" stroke-width="8.05" stroke-linejoin="bevel" points="1024.63,2006.93 1125.24,2006.93"/>
<polyline class="LedgerLine" fill="none" stroke="#000000" stroke-width="8.05" stroke-linejoin="bevel" points="1024.63,1956.61 1125.24,1956.61"/>
<polyline class="LedgerLine" fill="none" stroke="#000000" stroke-width="8.05" stroke-linejoin="bevel" points="1431.93,2006.93 1532.54,2006.93"/>
<polyline class="LedgerLine" fill="none" stroke="#000000" stroke-width="8.05" stroke-linejoin="bevel" points="1431.93,1956.61 1532.54,1956.61"/>
<polyline class="LedgerLine" fill="none" stroke="#000000" stroke-width="8.05" stroke-linejoin="bevel" points="1556.12,2006.93 1656.74,2006.93"/>
<polyline class="LedgerLine" fill="none" stroke="#000000" stroke-width="8.05" stroke-linejoin="bevel" points="1556.12,1956.61 1656.74,1956.61"/>
<polyline class="LedgerLine" fill="none" stroke="#000000" stroke-width="8.05" stroke-linejoin="bevel" points="1680.31,2006.93 1780.93,2006.93"/>
<polyline class="LedgerLine" fill="none" stroke="#000000" stroke-width="8.05" stroke-linejoin="bevel" points="1680.31,1956.61 1780.93,1956.61"/>
<polyline class="LedgerLine" fill="none" stroke="#000000" stroke-width="8.05" stroke-linejoin="bevel" points="1804.51,2006.93 1905.12,2006.93"/>
<polyline class="LedgerLine" fill="none" stroke="#000000" stroke-width="8.05" stroke-linejoin="bevel" points="1804.51,1956.61 1905.12,1956.61"/>
<polyline class="LedgerLine" fill="none" stroke="#000000" stroke-width="8.05" stroke-linejoin="bevel" points="2027.39,2006.93 2128,2006.93"/>
<polyline class="LedgerLine" fill="none" stroke="#000000" stroke-width="8.05" stroke-linejoin="bevel" points="2027.39,1956.61 2128,1956.61"/>
<polyline class="LedgerLine" fill="none" stroke="#000000" stroke-width="8.05" stroke-linejoin="bevel" points="2824.37,2006.93 2924.99,2006.93"/>
<polyline class="LedgerLine" fill="none" stroke="#000000" stroke-width="8.05" stroke-linejoin="bevel" points="2948.57,2006.93 3049.18,2006.93"/>
<polyline class="LedgerLine" fill="none" stroke="#000000" stroke-width="8.05" stroke-linejoin="bevel" points="3072.76,2006.93 3173.37,2006.93"/>
<polyline class="LedgerLine" fill="none" stroke="#000000" stroke-width="8.05" stroke-linejoin="bevel" points="3196.95,2006.93 3297.57,2006.93"/>
<polyline class="LedgerLine" fill="none" stroke="#000000" stroke-width="8.05" stroke-linejoin="bevel" points="3586.04,2006.93 3686.65,2006.93"/>
<polyline class="Stem" fill="none" stroke="#000000" stroke-width="5.53" stroke-linejoin="bevel" points="560.887,429.833 560.887,599.173"/>
<polyline class="Stem" fill="none" stroke="#000000" stroke-width="5.53" stroke-linejoin="bevel" points="678.256,429.833 678.256,574.016"/>
<polyline class="Stem" fill="none" stroke="#000000" stroke-width="5.53" stroke-linejoin="bevel" points="751.613,404.676 751.613,561.437"/>
<polyline class="Stem" fill="none" stroke="#000000" stroke-width="5.53" stroke-linejoin="bevel" points="974.492,379.518 974.492,548.858"/>
<polyline class="Stem" fill="none" stroke="#000000" stroke-width="5.53" stroke-linejoin="bevel" points="1139.54,379.518 1139.54,523.701"/>
<polyline class="Stem" fill="none" stroke="#000000" stroke-width="5.53" stroke-linejoin="bevel" points="1242.7,379.518 1242.7,523.701"/>
<polyline class="Stem" fill="none" stroke="#000000" stroke-width="5.53" stroke-linejoin="bevel" points="1447.97,404.676 1447.97,561.437"/>
<polyline class="Stem" fill="none" stroke="#000000" stroke-width="5.53" stroke-linejoin="bevel" points="1541.98,429.833 1541.98,574.016"/>
<polyline class="Stem" fill="none" stroke="#000000" stroke-width="5.53" stroke-linejoin="bevel" points="1635.99,404.676 1635.99,536.279"/>
<polyline class="Stem" fill="none" stroke="#000000" stroke-width="5.53" stroke-linejoin="bevel" points="1730,379.518 1730,523.701"/>
<polyline class="Stem" fill="none" stroke="#000000" stroke-width="5.53" stroke-linejoin="bevel" points="1935.27,429.833 1935.27,599.173"/>
<polyline class="Stem" fill="none" stroke="#000000" stroke-width="5.53" stroke-linejoin="bevel" points="2059.45,505.305 2059.45,674.646"/>
<polyline class="Stem" fill="none" stroke="#000000" stroke-width="5.53" stroke-linejoin="bevel" points="2342.34,429.833 2342.34,574.016"/>
<polyline class="Stem" fill="none" stroke="#000000" stroke-width="5.53" stroke-linejoin="bevel" points="2429.89,429.833 2429.89,574.016"/>
<polyline class="Stem" fill="none" stroke="#000000" stroke-width="5.53" stroke-linejoin="bevel" points="2517.44,429.833 2517.44,574.016"/>
<polyline class="Stem" fill="none" stroke="#000000" stroke-width="5.53" stroke-linejoin="bevel" points="2605,404.676 2605,561.437"/>
<polyline class="Stem" fill="none" stroke="#000000" stroke-width="5.53" stroke-linejoin="bevel" points="2827.88,379.518 2827.88,548.858"/>
<polyline class="Stem" fill="none" stroke="#000000" stroke-width="5.53" stroke-linejoin="bevel" points="2992.93,379.518 2992.93,523.701"/>
<polyline class="Stem" fill="none" stroke="#000000" stroke-width="5.53" stroke-linejoin="bevel" points="3096.09,379.518 3096.09,523.701"/>
<polyline class="Stem" fill="none" stroke="#000000" stroke-width="5.53" stroke-linejoin="bevel" points="3301.36,404.676 3301.36,561.437"/>
<polyline class="Stem" fill="none" stroke="#000000" stroke-width="5.53" stroke-linejoin="bevel" points="3395.37,429.833 3395.37,574.016"/>
<polyline class="Stem" fill="none" stroke="#000000" stroke-width="5.53" stroke-linejoin="bevel" points="3489.38,404.676 3489.38,536.279"/>
<polyline class="Stem" fill="none" stroke="#000000" stroke-width="5.53" stroke-linejoin="bevel" points="3583.39,379.518 3583.39,523.701"/>
<polyline class="Stem" fill="none" stroke="#000000" stroke-width="5.53" stroke-linejoin="bevel" points="3788.66,429.833 3788.66,599.173"/>
<polyline class="Stem" fill="none" stroke="#000000" stroke-width="5.53" stroke-linejoin="bevel" points="3990.45,505.305 3990.45,674.646"/>
<polyline class="Stem" fill="none" stroke="#000000" stroke-width="5.53" stroke-linejoin="bevel" points="449.549,1246.92 449.549,1391.1"/>
<polyline class="Stem" fill="none" stroke="#000000" stroke-width="5.53" stroke-linejoin="bevel" points="540.588,1246.92 540.588,1391.1"/>
<polyline class="Stem" fill="none" stroke="#000000" stroke-width="5.53" stroke-linejoin="bevel" points="631.627,1246.92 631.627,1391.1"/>
<polyline class="Stem" fill="none" stroke="#000000" stroke-width="5.53" stroke-linejoin="bevel" points="722.666,1221.76 722.666,1378.52"/>
<polyline class="Stem" fill="none" stroke="#000000" stroke-width="5.53" stroke-linejoin="bevel" points="945.546,1196.6 945.546,1365.94"/>
<polyline class="Stem" fill="none" stroke="#000000" stroke-width="5.53" stroke-linejoin="bevel" points="1117.03,1196.6 1117.03,1340.79"/>
<polyline class="Stem" fill="none" stroke="#000000" stroke-width="5.53" stroke-linejoin="bevel" points="1224.21,1196.6 1224.21,1340.79"/>
<polyline class="Stem" fill="none" stroke="#000000" stroke-width="5.53" stroke-linejoin="bevel" points="1429.48,1221.76 1429.48,1378.52"/>
<polyline class="Stem" fill="none" stroke="#000000" stroke-width="5.53" stroke-linejoin="bevel" points="1526.98,1246.92 1526.98,1391.1"/>
<polyline class="Stem" fill="none" stroke="#000000" stroke-width="5.53" stroke-linejoin="bevel" points="1624.48,1221.76 1624.48,1353.37"/>
<polyline class="Stem" fill="none" stroke="#000000" stroke-width="5.53" stroke-linejoin="bevel" points="1721.97,1196.6 1721.97,1340.79"/>
<polyline class="Stem" fill="none" stroke="#000000" stroke-width="5.53" stroke-linejoin="bevel" points="1927.24,1246.92 1927.24,1416.26"/>
<polyline class="Stem" fill="none" stroke="#000000" stroke-width="5.53" stroke-linejoin="bevel" points="2056.49,1322.39 2056.49,1479.15"/>
<polyline class="Stem" fill="none" stroke="#000000" stroke-width="5.53" stroke-linejoin="bevel" points="2261.76,1246.92 2261.76,1391.1"/>
<polyline class="Stem" fill="none" stroke="#000000" stroke-width="5.53" stroke-linejoin="bevel" points="2352.8,1246.92 2352.8,1391.1"/>
<polyline class="Stem" fill="none" stroke="#000000" stroke-width="5.53" stroke-linejoin="bevel" points="2443.84,1246.92 2443.84,1391.1"/>
<polyline class="Stem" fill="none" stroke="#000000" stroke-width="5.53" stroke-linejoin="bevel" points="2534.88,1221.76 2534.88,1378.52"/>
<polyline class="Stem" fill="none" stroke="#000000" stroke-width="5.53" stroke-linejoin="bevel" points="2757.76,1196.6 2757.76,1340.79"/>
<polyline class="Stem" fill="none" stroke="#000000" stroke-width="5.53" stroke-linejoin="bevel" points="2887.54,1196.6 2887.54,1340.79"/>
<polyline class="Stem" fill="none" stroke="#000000" stroke-width="5.53" stroke-linejoin="bevel" points="3017.32,1196.6 3017.32,1340.79"/>
<polyline class="Stem" fill="none" stroke="#000000" stroke-width="5.53" stroke-linejoin="bevel" points="3147.1,1196.6 3147.1,1340.79"/>
<polyline class="Stem" fill="none" stroke="#000000" stroke-width="5.53" stroke-linejoin="bevel" points="3352.37,1221.76 3352.37,1378.52"/>
<polyline class="Stem" fill="none" stroke="#000000" stroke-width="5.53" stroke-linejoin="bevel" points="3449.87,1246.92 3449.87,1391.1"/>
<polyline class="Stem" fill="none" stroke="#000000" stroke-width="5.53" stroke-linejoin="bevel" points="3547.36,1196.6 3547.36,1340.79"/>
<polyline class="Stem" fill="none" stroke="#000000" stroke-width="5.53" stroke-linejoin="bevel" points="3644.86,1221.76 3644.86,1353.37"/>
<polyline class="Stem" fill="none" stroke="#000000" stroke-width="5.53" stroke-linejoin="bevel" points="3850.13,1246.92 3850.13,1416.26"/>
<polyline class="Stem" fill="none" stroke="#000000" stroke-width="5.53" stroke-linejoin="bevel" points="449.549,1938.22 449.549,2145.29"/>
<polyline class="Stem" fill="none" stroke="#000000" stroke-width="5.53" stroke-linejoin="bevel" points="573.742,1938.22 573.742,2145.29"/>
<polyline class="Stem" fill="none" stroke="#000000" stroke-width="5.53" stroke-linejoin="bevel" points="697.935,1938.22 697.935,2145.29"/>
<polyline class="Stem" fill="none" stroke="#000000" stroke-width="5.53" stroke-linejoin="bevel" points="822.128,1938.22 822.128,2145.29"/>
<polyline class="Stem" fill="none" stroke="#000000" stroke-width="5.53" stroke-linejoin="bevel" points="1045.01,1963.38 1045.01,2157.87"/>
<polyline class="Stem" fill="none" stroke="#000000" stroke-width="5.53" stroke-linejoin="bevel" points="1158.5,2064.01 1158.5,2208.19"/>
<polyline class="Stem" fill="none" stroke="#000000" stroke-width="5.53" stroke-linejoin="bevel" points="1229.43,2064.01 1229.43,2208.19"/>
<polyline class="Stem" fill="none" stroke="#000000" stroke-width="5.53" stroke-linejoin="bevel" points="1452.31,1938.22 1452.31,2145.29"/>
<polyline class="Stem" fill="none" stroke="#000000" stroke-width="5.53" stroke-linejoin="bevel" points="1576.5,1938.22 1576.5,2145.29"/>
<polyline class="Stem" fill="none" stroke="#000000" stroke-width="5.53" stroke-linejoin="bevel" points="1700.69,1938.22 1700.69,2145.29"/>
<polyline class="Stem" fill="none" stroke="#000000" stroke-width="5.53" stroke-linejoin="bevel" points="1824.89,1938.22 1824.89,2145.29"/>
<polyline class="Stem" fill="none" stroke="#000000" stroke-width="5.53" stroke-linejoin="bevel" points="2047.77,1963.38 2047.77,2157.87"/>
<polyline class="Stem" fill="none" stroke="#000000" stroke-width="5.53" stroke-linejoin="bevel" points="2160.25,2064.01 2160.25,2233.35"/>
<polyline class="Stem" fill="none" stroke="#000000" stroke-width="5.53" stroke-linejoin="bevel" points="2365.52,2064.01 2365.52,2208.19"/>
<polyline class="Stem" fill="none" stroke="#000000" stroke-width="5.53" stroke-linejoin="bevel" points="2450.97,2064.01 2450.97,2208.19"/>
<polyline class="Stem" fill="none" stroke="#000000" stroke-width="5.53" stroke-linejoin="bevel" points="2536.42,2064.01 2536.42,2208.19"/>
<polyline class="Stem" fill="none" stroke="#000000" stroke-width="5.53" stroke-linejoin="bevel" points="2621.87,2038.85 2621.87,2195.61"/>
<polyline class="Stem" fill="none" stroke="#000000" stroke-width="5.53" stroke-linejoin="bevel" points="2844.75,2013.69 2844.75,2157.87"/>
<polyline class="Stem" fill="none" stroke="#000000" stroke-width="5.53" stroke-linejoin="bevel" points="2968.94,2013.69 2968.94,2157.87"/>
<polyline class="Stem" fill="none" stroke="#000000" stroke-width="5.53" stroke-linejoin="bevel" points="3093.14,2013.69 3093.14,2157.87"/>
<polyline class="Stem" fill="none" stroke="#000000" stroke-width="5.53" stroke-linejoin="bevel" points="3217.33,2013.69 3217.33,2157.87"/>
<polyline class="Stem" fill="none" stroke="#000000" stroke-width="5.53" stroke-linejoin="bevel" points="3422.6,2038.85 3422.6,2195.61"/>
<polyline class="Stem" fill="none" stroke="#000000" stroke-width="5.53" stroke-linejoin="bevel" points="3514.51,2064.01 3514.51,2208.19"/>
<polyline class="Stem" fill="none" stroke="#000000" stroke-width="5.53" stroke-linejoin="bevel" points="3606.42,2013.69 3606.42,2157.87"/>
<polyline class="Stem" fill="none" stroke="#000000" stroke-width="5.53" stroke-linejoin="bevel" points="3698.32,2038.85 3698.32,2170.45"/>
<polyline class="Stem" fill="none" stroke="#000000" stroke-width="5.53" stroke-linejoin="bevel" points="3903.59,2064.01 3903.59,2233.35"/>
<path class="Note" transform="matrix(2.0126,0,0,2.0126,558.119,423.071)" d="M31.5,-8.09375 C29.7031,-11.4063 25.9063,-13.2031 21.2969,-13.2031 C17.9063,-13.2031 14.2031,-12.2031 10.5938,-10.2969 C4,-6.79688 0,-0.90625 0,4.20313 C0,5.59375 0.296875,7 1,8.29688 C2.79688,11.5938 6.59375,13.2969 11.2031,13.2969 C14.5938,13.2969 18.2969,12.4063 21.9063,10.5 C28.5,7 32.5,1.09375 32.5,-4 C32.5,-5.40625 32.2031,-6.79688 31.5,-8.09375"/>
<path class="Note" transform="matrix(2.0126,0,0,2.0126,675.489,423.071)" d="M31.5,-8.09375 C29.7031,-11.4063 25.9063,-13.2031 21.2969,-13.2031 C17.9063,-13.2031 14.2031,-12.2031 10.5938,-10.2969 C4,-6.79688 0,-0.90625 0,4.20313 C0,5.59375 0.296875,7 1,8.29688 C2.79688,11.5938 6.59375,13.2969 11.2031,13.2969 C14.5938,13.2969 18.2969,12.4063 21.9063,10.5 C28.5,7 32.5,1.09375 32.5,-4 C32.5,-5.40625 32.2031,-6.79688 31.5,-8.09375"/>
<path class="Note" transform="matrix(2.0126,0,0,2.0126,748.845,397.913)" d="M31.5,-8.09375 C29.7031,-11.4063 25.9063,-13.2031 21.2969,-13.2031 C17.9063,-13.2031 14.2031,-12.2031 10.5938,-10.2969 C4,-6.79688 0,-0.90625 0,4.20313 C0,5.59375 0.296875,7 1,8.29688 C2.79688,11.5938 6.59375,13.2969 11.2031,13.2969 C14.5938,13.2969 18.2969,12.4063 21.9063,10.5 C28.5,7 32.5,1.09375 32.5,-4 C32.5,-5.40625 32.2031,-6.79688 31.5,-8.09375"/>
<path class="Note" transform="matrix(2.0126,0,0,2.0126,971.725,372.756)" d="M31.5,-8.09375 C29.7031,-11.4063 25.9063,-13.2031 21.2969,-13.2031 C17.9063,-13.2031 14.2031,-12.2031 10.5938,-10.2969 C4,-6.79688 0,-0.90625 0,4.20313 C0,5.59375 0.296875,7 1,8.29688 C2.79688,11.5938 6.59375,13.2969 11.2031,13.2969 C14.5938,13.2969 18.2969,12.4063 21.9063,10.5 C28.5,7 32.5,1.09375 32.5,-4 C32.5,-5.40625 32.2031,-6.79688 31.5,-8.09375"/>
<path class="Note" transform="matrix(2.0126,0,0,2.0126,1136.78,372.756)" d="M31.5,-8.09375 C29.7031,-11.4063 25.9063,-13.2031 21.2969,-13.2031 C17.9063,-13.2031 14.2031,-12.2031 10.5938,-10.2969 C4,-6.79688 0,-0.90625 0,4.20313 C0,5.59375 0.296875,7 1,8.29688 C2.79688,11.5938 6.59375,13.2969 11.2031,13.2969 C14.5938,13.2969 18.2969,12.4063 21.9063,10.5 C28.5,7 32.5,1.09375 32.5,-4 C32.5,-5.40625 32.2031,-6.79688 31.5,-8.09375"/>
<path class="Note" transform="matrix(2.0126,0,0,2.0126,1239.94,372.756)" d="M31.5,-8.09375 C29.7031,-11.4063 25.9063,-13.2031 21.2969,-13.2031 C17.9063,-13.2031 14.2031,-12.2031 10.5938,-10.2969 C4,-6.79688 0,-0.90625 0,4.20313 C0,5.59375 0.296875,7 1,8.29688 C2.79688,11.5938 6.59375,13.2969 11.2031,13.2969 C14.5938,13.2969 18.2969,12.4063 21.9063,10.5 C28.5,7 32.5,1.09375 32.5,-4 C32.5,-5.40625 32.2031,-6.79688 31.5,-8.09375"/>
<path class="Note" transform="matrix(2.0126,0,0,2.0126,1445.21,397.913)" d="M31.5,-8.09375 C29.7031,-11.4063 25.9063,-13.2031 21.2969,-13.2031 C17.9063,-13.2031 14.2031,-12.2031 10.5938,-10.2969 C4,-6.79688 0,-0.90625 0,4.20313 C0,5.59375 0.296875,7 1,8.29688 C2.79688,11.5938 6.59375,13.2969 11.2031,13.2969 C14.5938,13.2969 18.2969,12.4063 21.9063,10.5 C28.5,7 32.5,1.09375 32.5,-4 C32.5,-5.40625 32.2031,-6.79688 31.5,-8.09375"/>
<path class="Note" transform="matrix(2.0126,0,0,2.0126,1539.22,423.071)" d="M31.5,-8.09375 C29.7031,-11.4063 25.9063,-13.2031 21.2969,-13.2031 C17.9063,-13.2031 14.2031,-12.2031 10.5938,-10.2969 C4,-6.79688 0,-0.90625 0,4.20313 C0,5.59375 0.296875,7 1,8.29688 C2.79688,11.5938 6.59375,13.2969 11.2031,13.2969 C14.5938,13.2969 18.2969,12.4063 21.9063,10.5 C28.5,7 32.5,1.09375 32.5,-4 C32.5,-5.40625 32.2031,-6.79688 31.5,-8.09375"/>
<path class="Note" transform="matrix(2.0126,0,0,2.0126,1633.23,397.913)" d="M31.5,-8.09375 C29.7031,-11.4063 25.9063,-13.2031 21.2969,-13.2031 C17.9063,-13.2031 14.2031,-12.2031 10.5938,-10.2969 C4,-6.79688 0,-0.90625 0,4.20313 C0,5.59375 0.296875,7 1,8.29688 C2.79688,11.5938 6.59375,13.2969 11.2031,13.2969 C14.5938,13.2969 18.2969,12.4063 21.9063,10.5 C28.5,7 32.5,1.09375 32.5,-4 C32.5,-5.40625 32.2031,-6.79688 31.5,-8.09375"/>
<path class="Note" transform="matrix(2.0126,0,0,2.0126,1727.24,372.756)" d="M31.5,-8.09375 C29.7031,-11.4063 25.9063,-13.2031 21.2969,-13.2031 C17.9063,-13.2031 14.2031,-12.2031 10.5938,-10.2969 C4,-6.79688 0,-0.90625 0,4.20313 C0,5.59375 0.296875,7 1,8.29688 C2.79688,11.5938 6.59375,13.2969 11.2031,13.2969 C14.5938,13.2969 18.2969,12.4063 21.9063,10.5 C28.5,7 32.5,1.09375 32.5,-4 C32.5,-5.40625 32.2031,-6.79688 31.5,-8.09375"/>
<path class="Note" transform="matrix(2.0126,0,0,2.0126,1932.5,423.071)" d="M31.5,-8.09375 C29.7031,-11.4063 25.9063,-13.2031 21.2969,-13.2031 C17.9063,-13.2031 14.2031,-12.2031 10.5938,-10.2969 C4,-6.79688 0,-0.90625 0,4.20313 C0,5.59375 0.296875,7 1,8.29688 C2.79688,11.5938 6.59375,13.2969 11.2031,13.2969 C14.5938,13.2969 18.2969,12.4063 21.9063,10.5 C28.5,7 32.5,1.09375 32.5,-4 C32.5,-5.40625 32.2031,-6.79688 31.5,-8.09375"/>
<path class="Note" transform="matrix(2.0126,0,0,2.0126,2056.69,498.543)" d="M31.5,-8.09375 C29.7031,-11.4063 25.9063,-13.2031 21.2969,-13.2031 C17.9063,-13.2031 14.2031,-12.2031 10.5938,-10.2969 C4,-6.79688 0,-0.90625 0,4.20313 C0,5.59375 0.296875,7 1,8.29688 C2.79688,11.5938 6.59375,13.2969 11.2031,13.2969 C14.5938,13.2969 18.2969,12.4063 21.9063,10.5 C28.5,7 32.5,1.09375 32.5,-4 C32.5,-5.40625 32.2031,-6.79688 31.5,-8.09375"/>
<path class="Note" transform="matrix(2.0126,0,0,2.0126,2339.57,423.071)" d="M31.5,-8.09375 C29.7031,-11.4063 25.9063,-13.2031 21.2969,-13.2031 C17.9063,-13.2031 14.2031,-12.2031 10.5938,-10.2969 C4,-6.79688 0,-0.90625 0,4.20313 C0,5.59375 0.296875,7 1,8.29688 C2.79688,11.5938 6.59375,13.2969 11.2031,13.2969 C14.5938,13.2969 18.2969,12.4063 21.9063,10.5 C28.5,7 32.5,1.09375 32.5,-4 C32.5,-5.40625 32.2031,-6.79688 31.5,-8.09375"/>
<path class="Note" transform="matrix(2.0126,0,0,2.0126,2427.12,423.071)" d="M31.5,-8.09375 C29.7031,-11.4063 25.9063,-13.2031 21.2969,-13.2031 C17.9063,-13.2031 14.2031,-12.2031 10.5938,-10.2969 C4,-6.79688 0,-0.90625 0,4.20313 C0,5.59375 0.296875,7 1,8.29688 C2.79688,11.5938 6.59375,13.2969 11.2031,13.2969 C14.5938,13.2969 18.2969,12.4063 21.9063,10.5 C28.5,7 32.5,1.09375 32.5,-4 C32.5,-5.40625 32.2031,-6.79688 31.5,-8.09375"/>
<path class="Note" transform="matrix(2.0126,0,0,2.0126,2514.68,423.071)" d="M31.5,-8.09375 C29.7031,-11.4063 25.9063,-13.2031 21.2969,-13.2031 C17.9063,-13.2031 14.2031,-12.2031 10.5938,-10.2969 C4,-6.79688 0,-0.90625 0,4.20313 C0,5.59375 0.296875,7 1,8.29688 C2.79688,11.5938 6.59375,13.2969 11.2031,13.2969 C14.5938,13.2969 18.2969,12.4063 21.9063,10.5 C28.5,7 32.5,1.09375 32.5,-4 C32.5,-5.40625 32.2031,-6.79688 31.5,-8.09375"/>
<path class="Note" transform="matrix(2.0126,0,0,2.0126,2602.23,397.913)" d="M31.5,-8.09375 C29.7031,-11.4063 25.9063,-13.2031 21.2969,-13.2031 C17.9063,-13.2031 14.2031,-12.2031 10.5938,-10.2969 C4,-6.79688 0,-0.90625 0,4.20313 C0,5.59375 0.296875,7 1,8.29688 C2.79688,11.5938 6.59375,13.2969 11.2031,13.2969 C14.5938,13.2969 18.2969,12.4063 21.9063,10.5 C28.5,7 32.5,1.09375 32.5,-4 C32.5,-5.40625 32.2031,-6.79688 31.5,-8.09375"/>
<path class="Note" transform="matrix(2.0126,0,0,2.0126,2825.11,372.756)" d="M31.5,-8.09375 C29.7031,-11.4063 25.9063,-13.2031 21.2969,-13.2031 C17.9063,-13.2031 14.2031,-12.2031 10.5938,-10.2969 C4,-6.79688 0,-0.90625 0,4.20313 C0,5.59375 0.296875,7 1,8.29688 C2.79688,11.5938 6.59375,13.2969 11.2031,13.2969 C14.5938,13.2969 18.2969,12.4063 21.9063,10.5 C28.5,7 32.5,1.09375 32.5,-4 C32.5,-5.40625 32.2031,-6.79688 31.5,-8.09375"/>
<path class="Note" transform="matrix(2.0126,0,0,2.0126,2990.16,372.756)" d="M31.5,-8.09375 C29.7031,-11.4063 25.9063,-13.2031 21.2969,-13.2031 C17.9063,-13.2031 14.2031,-12.2031 10.5938,-10.2969 C4,-6.79688 0,-0.90625 0,4.20313 C0,5.59375 0.296875,7 1,8.29688 C2.79688,11.5938 6.59375,13.2969 11.2031,13.2969 C14.5938,13.2969 18.2969,12.4063 21.9063,10.5 C28.5,7 32.5,1.09375 32.5,-4 C32.5,-5.40625 32.2031,-6.79688 31.5,-8.09375"/>
<path class="Note" transform="matrix(2.0126,0,0,2.0126,3093.32,372.756)" d="M31.5,-8.09375 C29.7031,-11.4063 25.9063,-13.2031 21.2969,-13.2031 C17.9063,-13.2031 14.2031,-12.2031 10.5938,-10.2969 C4,-6.79688 0,-0.90625 0,4.20313 C0,5.59375 0.296875,7 1,8.29688 C2.79688,11.5938 6.59375,13.2969 11.2031,13.2969 C14.5938,13.2969 18.2969,12.4063 21.9063,10.5 C28.5,7 32.5,1.09375 32.5,-4 C32.5,-5.40625 32.2031,-6.79688 31.5,-8.09375"/>
<path class="Note" transform="matrix(2.0126,0,0,2.0126,3298.59,397.913)" d="M31.5,-8.09375 C29.7031,-11.4063 25.9063,-13.2031 21.2969,-13.2031 C17.9063,-13.2031 14.2031,-12.2031 10.5938,-10.2969 C4,-6.79688 0,-0.90625 0,4.20313 C0,5.59375 0.296875,7 1,8.29688 C2.79688,11.5938 6.59375,13.2969 11.2031,13.2969 C14.5938,13.2969 18.2969,12.4063 21.9063,10.5 C28.5,7 32.5,1.09375 32.5,-4 C32.5,-5.40625 32.2031,-6.79688 31.5,-8.09375"/>
<path class="Note" transform="matrix(2.0126,0,0,2.0126,3392.6,423.071)" d="M31.5,-8.09375 C29.7031,-11.4063 25.9063,-13.2031 21.2969,-13.2031 C17.9063,-13.2031 14.2031,-12.2031 10.5938,-10.2969 C4,-6.79688 0,-0.90625 0,4.20313 C0,5.59375 0.296875,7 1,8.29688 C2.79688,11.5938 6.59375,13.2969 11.2031,13.2969 C14.5938,13.2969 18.2969,12.4063 21.9063,10.5 C28.5,7 32.5,1.09375 32.5,-4 C32.5,-5.40625 32.2031,-6.79688 31.5,-8.09375"/>
<path class="Note" transform="matrix(2.0126,0,0,2.0126,3486.61,397.913)" d="M31.5,-8.09375 C29.7031,-11.4063 25.9063,-13.2031 21.2969,-13.2031 C17.9063,-13.2031 14.2031,-12.2031 10.5938,-10.2969 C4,-6.79688 0,-0.90625 0,4.20313 C0,5.59375 0.296875,7 1,8.29688 C2.79688,11.5938 6.59375,13.2969 11.2031,13.2969 C14.5938,13.2969 18.2969,12.4063 21.9063,10.5 C28.5,7 32.5,1.09375 32.5,-4 C32.5,-5.40625 32.2031,-6.79688 31.5,-8.09375"/>
<path class="Note" transform="matrix(2.0126,0,0,2.0126,3580.62,372.756)" d="M31.5,-8.09375 C29.7031,-11.4063 25.9063,-13.2031 21.2969,-13.2031 C17.9063,-13.2031 14.2031,-12.2031 10.5938,-10.2969 C4,-6.79688 0,-0.90625 0,4.20313 C0,5.59375 0.296875,7 1,8.29688 C2.79688,11.5938 6.59375,13.2969 11.2031,13.2969 C14.5938,13.2969 18.2969,12.4063 21.9063,10.5 C28.5,7 32.5,1.09375 32.5,-4 C32.5,-5.40625 32.2031,-6.79688 31.5,-8.09375"/>
<path class="Note" transform="matrix(2.0126,0,0,2.0126,3785.89,423.071)" d="M31.5,-8.09375 C29.7031,-11.4063 25.9063,-13.2031 21.2969,-13.2031 C17.9063,-13.2031 14.2031,-12.2031 10.5938,-10.2969 C4,-6.79688 0,-0.90625 0,4.20313 C0,5.59375 0.296875,7 1,8.29688 C2.79688,11.5938 6.59375,13.2969 11.2031,13.2969 C14.5938,13.2969 18.2969,12.4063 21.9063,10.5 C28.5,7 32.5,1.09375 32.5,-4 C32.5,-5.40625 32.2031,-6.79688 31.5,-8.09375"/>
<path class="Note" transform="matrix(2.0126,0,0,2.0126,3987.68,498.543)" d="M31.5,-8.09375 C29.7031,-11.4063 25.9063,-13.2031 21.2969,-13.2031 C17.9063,-13.2031 14.2031,-12.2031 10.5938,-10.2969 C4,-6.79688 0,-0.90625 0,4.20313 C0,5.59375 0.296875,7 1,8.29688 C2.79688,11.5938 6.59375,13.2969 11.2031,13.2969 C14.5938,13.2969 18.2969,12.4063 21.9063,10.5 C28.5,7 32.5,1.09375 32.5,-4 C32.5,-5.40625 32.2031,-6.79688 31.5,-8.09375"/>
<path class="Note" transform="matrix(2.0126,0,0,2.0126,446.782,1240.16)" d="M31.5,-8.09375 C29.7031,-11.4063 25.9063,-13.2031 21.2969,-13.2031 C17.9063,-13.2031 14.2031,-12.2031 10.5938,-10.2969 C4,-6.79688 0,-0.90625 0,4.20313 C0,5.59375 0.296875,7 1,8.29688 C2.79688,11.5938 6.59375,13.2969 11.2031,13.2969 C14.5938,13.2969 18.2969,12.4063 21.9063,10.5 C28.5,7 32.5,1.09375 32.5,-4 C32.5,-5.40625 32.2031,-6.79688 31.5,-8.09375"/>
<path class="Note" transform="matrix(2.0126,0,0,2.0126,537.821,1240.16)" d="M31.5,-8.09375 C29.7031,-11.4063 25.9063,-13.2031 21.2969,-13.2031 C17.9063,-13.2031 14.2031,-12.2031 10.5938,-10.2969 C4,-6.79688 0,-0.90625 0,4.20313 C0,5.59375 0.296875,7 1,8.29688 C2.79688,11.5938 6.59375,13.2969 11.2031,13.2969 C14.5938,13.2969 18.2969,12.4063 21.9063,10.5 C28.5,7 32.5,1.09375 32.5,-4 C32.5,-5.40625 32.2031,-6.79688 31.5,-8.09375"/>
<path class="Note" transform="matrix(2.0126,0,0,2.0126,628.86,1240.16)" d="M31.5,-8.09375 C29.7031,-11.4063 25.9063,-13.2031 21.2969,-13.2031 C17.9063,-13.2031 14.2031,-12.2031 10.5938,-10.2969 C4,-6.79688 0,-0.90625 0,4.20313 C0,5.59375 0.296875,7 1,8.29688 C2.79688,11.5938 6.59375,13.2969 11.2031,13.2969 C14.5938,13.2969 18.2969,12.4063 21.9063,10.5 C28.5,7 32.5,1.09375 32.5,-4 C32.5,-5.40625 32.2031,-6.79688 31.5,-8.09375"/>
<path class="Note" transform="matrix(2.0126,0,0,2.0126,719.899,1215)" d="M31.5,-8.09375 C29.7031,-11.4063 25.9063,-13.2031 21.2969,-13.2031 C17.9063,-13.2031 14.2031,-12.2031 10.5938,-10.2969 C4,-6.79688 0,-0.90625 0,4.20313 C0,5.59375 0.296875,7 1,8.29688 C2.79688,11.5938 6.59375,13.2969 11.2031,13.2969 C14.5938,13.2969 18.2969,12.4063 21.9063,10.5 C28.5,7 32.5,1.09375 32.5,-4 C32.5,-5.40625 32.2031,-6.79688 31.5,-8.09375"/>
<path class="Note" transform="matrix(2.0126,0,0,2.0126,942.778,1189.84)" d="M31.5,-8.09375 C29.7031,-11.4063 25.9063,-13.2031 21.2969,-13.2031 C17.9063,-13.2031 14.2031,-12.2031 10.5938,-10.2969 C4,-6.79688 0,-0.90625 0,4.20313 C0,5.59375 0.296875,7 1,8.29688 C2.79688,11.5938 6.59375,13.2969 11.2031,13.2969 C14.5938,13.2969 18.2969,12.4063 21.9063,10.5 C28.5,7 32.5,1.09375 32.5,-4 C32.5,-5.40625 32.2031,-6.79688 31.5,-8.09375"/>
<path class="Note" transform="matrix(2.0126,0,0,2.0126,1114.27,1189.84)" d="M31.5,-8.09375 C29.7031,-11.4063 25.9063,-13.2031 21.2969,-13.2031 C17.9063,-13.2031 14.2031,-12.2031 10.5938,-10.2969 C4,-6.79688 0,-0.90625 0,4.20313 C0,5.59375 0.296875,7 1,8.29688 C2.79688,11.5938 6.59375,13.2969 11.2031,13.2969 C14.5938,13.2969 18.2969,12.4063 21.9063,10.5 C28.5,7 32.5,1.09375 32.5,-4 C32.5,-5.40625 32.2031,-6.79688 31.5,-8.09375"/>
<path class="Note" transform="matrix(2.0126,0,0,2.0126,1221.45,1189.84)" d="M31.5,-8.09375 C29.7031,-11.4063 25.9063,-13.2031 21.2969,-13.2031 C17.9063,-13.2031 14.2031,-12.2031 10.5938,-10.2969 C4,-6.79688 0,-0.90625 0,4.20313 C0,5.59375 0.296875,7 1,8.29688 C2.79688,11.5938 6.59375,13.2969 11.2031,13.2969 C14.5938,13.2969 18.2969,12.4063 21.9063,10.5 C28.5,7 32.5,1.09375 32.5,-4 C32.5,-5.40625 32.2031,-6.79688 31.5,-8.09375"/>
<path class="Note" transform="matrix(2.0126,0,0,2.0126,1426.72,1215)" d="M31.5,-8.09375 C29.7031,-11.4063 25.9063,-13.2031 21.2969,-13.2031 C17.9063,-13.2031 14.2031,-12.2031 10.5938,-10.2969 C4,-6.79688 0,-0.90625 0,4.20313 C0,5.59375 0.296875,7 1,8.29688 C2.79688,11.5938 6.59375,13.2969 11.2031,13.2969 C14.5938,13.2969 18.2969,12.4063 21.9063,10.5 C28.5,7 32.5,1.09375 32.5,-4 C32.5,-5.40625 32.2031,-6.79688 31.5,-8.09375"/>
<path class="Note" transform="matrix(2.0126,0,0,2.0126,1524.21,1240.16)" d="M31.5,-8.09375 C29.7031,-11.4063 25.9063,-13.2031 21.2969,-13.2031 C17.9063,-13.2031 14.2031,-12.2031 10.5938,-10.2969 C4,-6.79688 0,-0.90625 0,4.20313 C0,5.59375 0.296875,7 1,8.29688 C2.79688,11.5938 6.59375,13.2969 11.2031,13.2969 C14.5938,13.2969 18.2969,12.4063 21.9063,10.5 C28.5,7 32.5,1.09375 32.5,-4 C32.5,-5.40625 32.2031,-6.79688 31.5,-8.09375"/>
<path class="Note" transform="matrix(2.0126,0,0,2.0126,1621.71,1215)" d="M31.5,-8.09375 C29.7031,-11.4063 25.9063,-13.2031 21.2969,-13.2031 C17.9063,-13.2031 14.2031,-12.2031 10.5938,-10.2969 C4,-6.79688 0,-0.90625 0,4.20313 C0,5.59375 0.296875,7 1,8.29688 C2.79688,11.5938 6.59375,13.2969 11.2031,13.2969 C14.5938,13.2969 18.2969,12.4063 21.9063,10.5 C28.5,7 32.5,1.09375 32.5,-4 C32.5,-5.40625 32.2031,-6.79688 31.5,-8.09375"/>
<path class="Note" transform="matrix(2.0126,0,0,2.0126,1719.21,1189.84)" d="M31.5,-8.09375 C29.7031,-11.4063 25.9063,-13.2031 21.2969,-13.2031 C17.9063,-13.2031 14.2031,-12.2031 10.5938,-10.2969 C4,-6.79688 0,-0.90625 0,4.20313 C0,5.59375 0.296875,7 1,8.29688 C2.79688,11.5938 6.59375,13.2969 11.2031,13.2969 C14.5938,13.2969 18.2969,12.4063 21.9063,10.5 C28.5,7 32.5,1.09375 32.5,-4 C32.5,-5.40625 32.2031,-6.79688 31.5,-8.09375"/>
<path class="Note" transform="matrix(2.0126,0,0,2.0126,1924.47,1240.16)" d="M31.5,-8.09375 C29.7031,-11.4063 25.9063,-13.2031 21.2969,-13.2031 C17.9063,-13.2031 14.2031,-12.2031 10.5938,-10.2969 C4,-6.79688 0,-0.90625 0,4.20313 C0,5.59375 0.296875,7 1,8.29688 C2.79688,11.5938 6.59375,13.2969 11.2031,13.2969 C14.5938,13.2969 18.2969,12.4063 21.9063,10.5 C28.5,7 32.5,1.09375 32.5,-4 C32.5,-5.40625 32.2031,-6.79688 31.5,-8.09375"/>
<path class="Note" transform="matrix(2.0126,0,0,2.0126,2053.73,1315.63)" d="M31.5,-8.09375 C29.7031,-11.4063 25.9063,-13.2031 21.2969,-13.2031 C17.9063,-13.2031 14.2031,-12.2031 10.5938,-10.2969 C4,-6.79688 0,-0.90625 0,4.20313 C0,5.59375 0.296875,7 1,8.29688 C2.79688,11.5938 6.59375,13.2969 11.2031,13.2969 C14.5938,13.2969 18.2969,12.4063 21.9063,10.5 C28.5,7 32.5,1.09375 32.5,-4 C32.5,-5.40625 32.2031,-6.79688 31.5,-8.09375"/>
<path class="Note" transform="matrix(2.0126,0,0,2.0126,2258.99,1240.16)" d="M31.5,-8.09375 C29.7031,-11.4063 25.9063,-13.2031 21.2969,-13.2031 C17.9063,-13.2031 14.2031,-12.2031 10.5938,-10.2969 C4,-6.79688 0,-0.90625 0,4.20313 C0,5.59375 0.296875,7 1,8.29688 C2.79688,11.5938 6.59375,13.2969 11.2031,13.2969 C14.5938,13.2969 18.2969,12.4063 21.9063,10.5 C28.5,7 32.5,1.09375 32.5,-4 C32.5,-5.40625 32.2031,-6.79688 31.5,-8.09375"/>
<path class="Note" transform="matrix(2.0126,0,0,2.0126,2350.03,1240.16)" d="M31.5,-8.09375 C29.7031,-11.4063 25.9063,-13.2031 21.2969,-13.2031 C17.9063,-13.2031 14.2031,-12.2031 10.5938,-10.2969 C4,-6.79688 0,-0.90625 0,4.20313 C0,5.59375 0.296875,7 1,8.29688 C2.79688,11.5938 6.59375,13.2969 11.2031,13.2969 C14.5938,13.2969 18.2969,12.4063 21.9063,10.5 C28.5,7 32.5,1.09375 32.5,-4 C32.5,-5.40625 32.2031,-6.79688 31.5,-8.09375"/>
<path class="Note" transform="matrix(2.0126,0,0,2.0126,2441.07,1240.16)" d="M31.5,-8.09375 C29.7031,-11.4063 25.9063,-13.2031 21.2969,-13.2031 C17.9063,-13.2031 14.2031,-12.2031 10.5938,-10.2969 C4,-6.79688 0,-0.90625 0,4.20313 C0,5.59375 0.296875,7 1,8.29688 C2.79688,11.5938 6.59375,13.2969 11.2031,13.2969 C14.5938,13.2969 18.2969,12.4063 21.9063,10.5 C28.5,7 32.5,1.09375 32.5,-4 C32.5,-5.40625 32.2031,-6.79688 31.5,-8.09375"/>
<path class="Note" transform="matrix(2.0126,0,0,2.0126,2532.11,1215)" d="M31.5,-8.09375 C29.7031,-11.4063 25.9063,-13.2031 21.2969,-13.2031 C17.9063,-13.2031 14.2031,-12.2031 10.5938,-10.2969 C4,-6.79688 0,-0.90625 0,4.20313 C0,5.59375 0.296875,7 1,8.29688 C2.79688,11.5938 6.59375,13.2969 11.2031,13.2969 C14.5938,13.2969 18.2969,12.4063 21.9063,10.5 C28.5,7 32.5,1.09375 32.5,-4 C32.5,-5.40625 32.2031,-6.79688 31.5,-8.09375"/>
<path class="Note" transform="matrix(2.0126,0,0,2.0126,2754.99,1189.84)" d="M31.5,-8.09375 C29.7031,-11.4063 25.9063,-13.2031 21.2969,-13.2031 C17.9063,-13.2031 14.2031,-12.2031 10.5938,-10.2969 C4,-6.79688 0,-0.90625 0,4.20313 C0,5.59375 0.296875,7 1,8.29688 C2.79688,11.5938 6.59375,13.2969 11.2031,13.2969 C14.5938,13.2969 18.2969,12.4063 21.9063,10.5 C28.5,7 32.5,1.09375 32.5,-4 C32.5,-5.40625 32.2031,-6.79688 31.5,-8.09375"/>
<path class="Note" transform="matrix(2.0126,0,0,2.0126,2884.77,1189.84)" d="M31.5,-8.09375 C29.7031,-11.4063 25.9063,-13.2031 21.2969,-13.2031 C17.9063,-13.2031 14.2031,-12.2031 10.5938,-10.2969 C4,-6.79688 0,-0.90625 0,4.20313 C0,5.59375 0.296875,7 1,8.29688 C2.79688,11.5938 6.59375,13.2969 11.2031,13.2969 C14.5938,13.2969 18.2969,12.4063 21.9063,10.5 C28.5,7 32.5,1.09375 32.5,-4 C32.5,-5.40625 32.2031,-6.79688 31.5,-8.09375"/>
<path class="Note" transform="matrix(2.0126,0,0,2.0126,3014.55,1189.84)" d="M31.5,-8.09375 C29.7031,-11.4063 25.9063,-13.2031 21.2969,-13.2031 C17.9063,-13.2031 14.2031,-12.2031 10.5938,-10.2969 C4,-6.79688 0,-0.90625 0,4.20313 C0,5.59375 0.296875,7 1,8.29688 C2.79688,11.5938 6.59375,13.2969 11.2031,13.2969 C14.5938,13.2969 18.2969,12.4063 21.9063,10.5 C28.5,7 32.5,1.09375 32.5,-4 C32.5,-5.40625 32.2031,-6.79688 31.5,-8.09375"/>
<path class="Note" transform="matrix(2.0126,0,0,2.0126,3144.34,1189.84)" d="M31.5,-8.09375 C29.7031,-11.4063 25.9063,-13.2031 21.2969,-13.2031 C17.9063,-13.2031 14.2031,-12.2031 10.5938,-10.2969 C4,-6.79688 0,-0.90625 0,4.20313 C0,5.59375 0.296875,7 1,8.29688 C2.79688,11.5938 6.59375,13.2969 11.2031,13.2969 C14.5938,13.2969 18.2969,12.4063 21.9063,10.5 C28.5,7 32.5,1.09375 32.5,-4 C32.5,-5.40625 32.2031,-6.79688 31.5,-8.09375"/>
<path class="Note" transform="matrix(2.0126,0,0,2.0126,3349.61,1215)" d="M31.5,-8.09375 C29.7031,-11.4063 25.9063,-13.2031 21.2969,-13.2031 C17.9063,-13.2031 14.2031,-12.2031 10.5938,-10.2969 C4,-6.79688 0,-0.90625 0,4.20313 C0,5.59375 0.296875,7 1,8.29688 C2.79688,11.5938 6.59375,13.2969 11.2031,13.2969 C14.5938,13.2969 18.2969,12.4063 21.9063,10.5 C28.5,7 32.5,1.09375 32.5,-4 C32.5,-5.40625 32.2031,-6.79688 31.5,-8.09375"/>
<path class="Note" transform="matrix(2.0126,0,0,2.0126,3447.1,1240.16)" d="M31.5,-8.09375 C29.7031,-11.4063 25.9063,-13.2031 21.2969,-13.2031 C17.9063,-13.2031 14.2031,-12.2031 10.5938,-10.2969 C4,-6.79688 0,-0.90625 0,4.20313 C0,5.59375 0.296875,7 1,8.29688 C2.79688,11.5938 6.59375,13.2969 11.2031,13.2969 C14.5938,13.2969 18.2969,12.4063 21.9063,10.5 C28.5,7 32.5,1.09375 32.5,-4 C32.5,-5.40625 32.2031,-6.79688 31.5,-8.09375"/>
<path class="Note" transform="matrix(2.0126,0,0,2.0126,3544.6,1189.84)" d="M31.5,-8.09375 C29.7031,-11.4063 25.9063,-13.2031 21.2969,-13.2031 C17.9063,-13.2031 14.2031,-12.2031 10.5938,-10.2969 C4,-6.79688 0,-0.90625 0,4.20313 C0,5.59375 0.296875,7 1,8.29688 C2.79688,11.5938 6.59375,13.2969 11.2031,13.2969 C14.5938,13.2969 18.2969,12.4063 21.9063,10.5 C28.5,7 32.5,1.09375 32.5,-4 C32.5,-5.40625 32.2031,-6.79688 31.5,-8.09375"/>
<path class="Note" transform="matrix(2.0126,0,0,2.0126,3642.09,1215)" d="M31.5,-8.09375 C29.7031,-11.4063 25.9063,-13.2031 21.2969,-13.2031 C17.9063,-13.2031 14.2031,-12.2031 10.5938,-10.2969 C4,-6.79688 0,-0.90625 0,4.20313 C0,5.59375 0.296875,7 1,8.29688 C2.79688,11.5938 6.59375,13.2969 11.2031,13.2969 C14.5938,13.2969 18.2969,12.4063 21.9063,10.5 C28.5,7 32.5,1.09375 32.5,-4 C32.5,-5.40625 32.2031,-6.79688 31.5,-8.09375"/>
<path class="Note" transform="matrix(2.0126,0,0,2.0126,3847.36,1240.16)" d="M31.5,-8.09375 C29.7031,-11.4063 25.9063,-13.2031 21.2969,-13.2031 C17.9063,-13.2031 14.2031,-12.2031 10.5938,-10.2969 C4,-6.79688 0,-0.90625 0,4.20313 C0,5.59375 0.296875,7 1,8.29688 C2.79688,11.5938 6.59375,13.2969 11.2031,13.2969 C14.5938,13.2969 18.2969,12.4063 21.9063,10.5 C28.5,7 32.5,1.09375 32.5,-4 C32.5,-5.40625 32.2031,-6.79688 31.5,-8.09375"/>
<path class="Note" transform="matrix(2.0126,0,0,2.0126,446.782,1931.46)" d="M31.5,-8.09375 C29.7031,-11.4063 25.9063,-13.2031 21.2969,-13.2031 C17.9063,-13.2031 14.2031,-12.2031 10.5938,-10.2969 C4,-6.79688 0,-0.90625 0,4.20313 C0,5.59375 0.296875,7 1,8.29688 C2.79688,11.5938 6.59375,13.2969 11.2031,13.2969 C14.5938,13.2969 18.2969,12.4063 21.9063,10.5 C28.5,7 32.5,1.09375 32.5,-4 C32.5,-5.40625 32.2031,-6.79688 31.5,-8.09375"/>
<path class="Note" transform="matrix(2.0126,0,0,2.0126,570.975,1931.46)" d="M31.5,-8.09375 C29.7031,-11.4063 25.9063,-13.2031 21.2969,-13.2031 C17.9063,-13.2031 14.2031,-12.2031 10.5938,-10.2969 C4,-6.79688 0,-0.90625 0,4.20313 C0,5.59375 0.296875,7 1,8.29688 C2.79688,11.5938 6.59375,13.2969 11.2031,13.2969 C14.5938,13.2969 18.2969,12.4063 21.9063,10.5 C28.5,7 32.5,1.09375 32.5,-4 C32.5,-5.40625 32.2031,-6.79688 31.5,-8.09375"/>
<path class="Note" transform="matrix(2.0126,0,0,2.0126,695.168,1931.46)" d="M31.5,-8.09375 C29.7031,-11.4063 25.9063,-13.2031 21.2969,-13.2031 C17.9063,-13.2031 14.2031,-12.2031 10.5938,-10.2969 C4,-6.79688 0,-0.90625 0,4.20313 C0,5.59375 0.296875,7 1,8.29688 C2.79688,11.5938 6.59375,13.2969 11.2031,13.2969 C14.5938,13.2969 18.2969,12.4063 21.9063,10.5 C28.5,7 32.5,1.09375 32.5,-4 C32.5,-5.40625 32.2031,-6.79688 31.5,-8.09375"/>
<path class="Note" transform="matrix(2.0126,0,0,2.0126,819.361,1931.46)" d="M31.5,-8.09375 C29.7031,-11.4063 25.9063,-13.2031 21.2969,-13.2031 C17.9063,-13.2031 14.2031,-12.2031 10.5938,-10.2969 C4,-6.79688 0,-0.90625 0,4.20313 C0,5.59375 0.296875,7 1,8.29688 C2.79688,11.5938 6.59375,13.2969 11.2031,13.2969 C14.5938,13.2969 18.2969,12.4063 21.9063,10.5 C28.5,7 32.5,1.09375 32.5,-4 C32.5,-5.40625 32.2031,-6.79688 31.5,-8.09375"/>
<path class="Note" transform="matrix(2.0126,0,0,2.0126,1042.24,1956.61)" d="M31.5,-8.09375 C29.7031,-11.4063 25.9063,-13.2031 21.2969,-13.2031 C17.9063,-13.2031 14.2031,-12.2031 10.5938,-10.2969 C4,-6.79688 0,-0.90625 0,4.20313 C0,5.59375 0.296875,7 1,8.29688 C2.79688,11.5938 6.59375,13.2969 11.2031,13.2969 C14.5938,13.2969 18.2969,12.4063 21.9063,10.5 C28.5,7 32.5,1.09375 32.5,-4 C32.5,-5.40625 32.2031,-6.79688 31.5,-8.09375"/>
<path class="Note" transform="matrix(2.0126,0,0,2.0126,1155.73,2057.24)" d="M31.5,-8.09375 C29.7031,-11.4063 25.9063,-13.2031 21.2969,-13.2031 C17.9063,-13.2031 14.2031,-12.2031 10.5938,-10.2969 C4,-6.79688 0,-0.90625 0,4.20313 C0,5.59375 0.296875,7 1,8.29688 C2.79688,11.5938 6.59375,13.2969 11.2031,13.2969 C14.5938,13.2969 18.2969,12.4063 21.9063,10.5 C28.5,7 32.5,1.09375 32.5,-4 C32.5,-5.40625 32.2031,-6.79688 31.5,-8.09375"/>
<path class="Note" transform="matrix(2.0126,0,0,2.0126,1226.66,2057.24)" d="M31.5,-8.09375 C29.7031,-11.4063 25.9063,-13.2031 21.2969,-13.2031 C17.9063,-13.2031 14.2031,-12.2031 10.5938,-10.2969 C4,-6.79688 0,-0.90625 0,4.20313 C0,5.59375 0.296875,7 1,8.29688 C2.79688,11.5938 6.59375,13.2969 11.2031,13.2969 C14.5938,13.2969 18.2969,12.4063 21.9063,10.5 C28.5,7 32.5,1.09375 32.5,-4 C32.5,-5.40625 32.2031,-6.79688 31.5,-8.09375"/>
<path class="Note" transform="matrix(2.0126,0,0,2.0126,1449.54,1931.46)" d="M31.5,-8.09375 C29.7031,-11.4063 25.9063,-13.2031 21.2969,-13.2031 C17.9063,-13.2031 14.2031,-12.2031 10.5938,-10.2969 C4,-6.79688 0,-0.90625 0,4.20313 C0,5.59375 0.296875,7 1,8.29688 C2.79688,11.5938 6.59375,13.2969 11.2031,13.2969 C14.5938,13.2969 18.2969,12.4063 21.9063,10.5 C28.5,7 32.5,1.09375 32.5,-4 C32.5,-5.40625 32.2031,-6.79688 31.5,-8.09375"/>
<path class="Note" transform="matrix(2.0126,0,0,2.0126,1573.73,1931.46)" d="M31.5,-8.09375 C29.7031,-11.4063 25.9063,-13.2031 21.2969,-13.2031 C17.9063,-13.2031 14.2031,-12.2031 10.5938,-10.2969 C4,-6.79688 0,-0.90625 0,4.20313 C0,5.59375 0.296875,7 1,8.29688 C2.79688,11.5938 6.59375,13.2969 11.2031,13.2969 C14.5938,13.2969 18.2969,12.4063 21.9063,10.5 C28.5,7 32.5,1.09375 32.5,-4 C32.5,-5.40625 32.2031,-6.79688 31.5,-8.09375"/>
<path class="Note" transform="matrix(2.0126,0,0,2.0126,1697.93,1931.46)" d="M31.5,-8.09375 C29.7031,-11.4063 25.9063,-13.2031 21.2969,-13.2031 C17.9063,-13.2031 14.2031,-12.2031 10.5938,-10.2969 C4,-6.79688 0,-0.90625 0,4.20313 C0,5.59375 0.296875,7 1,8.29688 C2.79688,11.5938 6.59375,13.2969 11.2031,13.2969 C14.5938,13.2969 18.2969,12.4063 21.9063,10.5 C28.5,7 32.5,1.09375 32.5,-4 C32.5,-5.40625 32.2031,-6.79688 31.5,-8.09375"/>
<path class="Note" transform="matrix(2.0126,0,0,2.0126,1822.12,1931.46)" d="M31.5,-8.09375 C29.7031,-11.4063 25.9063,-13.2031 21.2969,-13.2031 C17.9063,-13.2031 14.2031,-12.2031 10.5938,-10.2969 C4,-6.79688 0,-0.90625 0,4.20313 C0,5.59375 0.296875,7 1,8.29688 C2.79688,11.5938 6.59375,13.2969 11.2031,13.2969 C14.5938,13.2969 18.2969,12.4063 21.9063,10.5 C28.5,7 32.5,1.09375 32.5,-4 C32.5,-5.40625 32.2031,-6.79688 31.5,-8.09375"/>
<path class="Note" transform="matrix(2.0126,0,0,2.0126,2045,1956.61)" d="M31.5,-8.09375 C29.7031,-11.4063 25.9063,-13.2031 21.2969,-13.2031 C17.9063,-13.2031 14.2031,-12.2031 10.5938,-10.2969 C4,-6.79688 0,-0.90625 0,4.20313 C0,5.59375 0.296875,7 1,8.29688 C2.79688,11.5938 6.59375,13.2969 11.2031,13.2969 C14.5938,13.2969 18.2969,12.4063 21.9063,10.5 C28.5,7 32.5,1.09375 32.5,-4 C32.5,-5.40625 32.2031,-6.79688 31.5,-8.09375"/>
<path class="Note" transform="matrix(2.0126,0,0,2.0126,2157.48,2057.24)" d="M31.5,-8.09375 C29.7031,-11.4063 25.9063,-13.2031 21.2969,-13.2031 C17.9063,-13.2031 14.2031,-12.2031 10.5938,-10.2969 C4,-6.79688 0,-0.90625 0,4.20313 C0,5.59375 0.296875,7 1,8.29688 C2.79688,11.5938 6.59375,13.2969 11.2031,13.2969 C14.5938,13.2969 18.2969,12.4063 21.9063,10.5 C28.5,7 32.5,1.09375 32.5,-4 C32.5,-5.40625 32.2031,-6.79688 31.5,-8.09375"/>
<path class="Note" transform="matrix(2.0126,0,0,2.0126,2362.75,2057.24)" d="M31.5,-8.09375 C29.7031,-11.4063 25.9063,-13.2031 21.2969,-13.2031 C17.9063,-13.2031 14.2031,-12.2031 10.5938,-10.2969 C4,-6.79688 0,-0.90625 0,4.20313 C0,5.59375 0.296875,7 1,8.29688 C2.79688,11.5938 6.59375,13.2969 11.2031,13.2969 C14.5938,13.2969 18.2969,12.4063 21.9063,10.5 C28.5,7 32.5,1.09375 32.5,-4 C32.5,-5.40625 32.2031,-6.79688 31.5,-8.09375"/>
<path class="Note" transform="matrix(2.0126,0,0,2.0126,2448.2,2057.24)" d="M31.5,-8.09375 C29.7031,-11.4063 25.9063,-13.2031 21.2969,-13.2031 C17.9063,-13.2031 14.2031,-12.2031 10.5938,-10.2969 C4,-6.79688 0,-0.90625 0,4.20313 C0,5.59375 0.296875,7 1,8.29688 C2.79688,11.5938 6.59375,13.2969 11.2031,13.2969 C14.5938,13.2969 18.2969,12.4063 21.9063,10.5 C28.5,7 32.5,1.09375 32.5,-4 C32.5,-5.40625 32.2031,-6.79688 31.5,-8.09375"/>
<path class="Note" transform="matrix(2.0126,0,0,2.0126,2533.65,2057.24)" d="M31.5,-8.09375 C29.7031,-11.4063 25.9063,-13.2031 21.2969,-13.2031 C17.9063,-13.2031 14.2031,-12.2031 10.5938,-10.2969 C4,-6.79688 0,-0.90625 0,4.20313 C0,5.59375 0.296875,7 1,8.29688 C2.79688,11.5938 6.59375,13.2969 11.2031,13.2969 C14.5938,13.2969 18.2969,12.4063 21.9063,10.5 C28.5,7 32.5,1.09375 32.5,-4 C32.5,-5.40625 32.2031,-6.79688 31.5,-8.09375"/>
<path class="Note" transform="matrix(2.0126,0,0,2.0126,2619.1,2032.09)" d="M31.5,-8.09375 C29.7031,-11.4063 25.9063,-13.2031 21.2969,-13.2031 C17.9063,-13.2031 14.2031,-12.2031 10.5938,-10.2969 C4,-6.79688 0,-0.90625 0,4.20313 C0,5.59375 0.296875,7 1,8.29688 C2.79688,11.5938 6.59375,13.2969 11.2031,13.2969 C14.5938,13.2969 18.2969,12.4063 21.9063,10.5 C28.5,7 32.5,1.09375 32.5,-4 C32.5,-5.40625 32.2031,-6.79688 31.5,-8.09375"/>
<path class="Note" transform="matrix(2.0126,0,0,2.0126,2841.98,2006.93)" d="M31.5,-8.09375 C29.7031,-11.4063 25.9063,-13.2031 21.2969,-13.2031 C17.9063,-13.2031 14.2031,-12.2031 10.5938,-10.2969 C4,-6.79688 0,-0.90625 0,4.20313 C0,5.59375 0.296875,7 1,8.29688 C2.79688,11.5938 6.59375,13.2969 11.2031,13.2969 C14.5938,13.2969 18.2969,12.4063 21.9063,10.5 C28.5,7 32.5,1.09375 32.5,-4 C32.5,-5.40625 32.2031,-6.79688 31.5,-8.09375"/>
<path class="Note" transform="matrix(2.0126,0,0,2.0126,2966.18,2006.93)" d="M31.5,-8.09375 C29.7031,-11.4063 25.9063,-13.2031 21.2969,-13.2031 C17.9063,-13.2031 14.2031,-12.2031 10.5938,-10.2969 C4,-6.79688 0,-0.90625 0,4.20313 C0,5.59375 0.296875,7 1,8.29688 C2.79688,11.5938 6.59375,13.2969 11.2031,13.2969 C14.5938,13.2969 18.2969,12.4063 21.9063,10.5 C28.5,7 32.5,1.09375 32.5,-4 C32.5,-5.40625 32.2031,-6.79688 31.5,-8.09375"/>
<path class="Note" transform="matrix(2.0126,0,0,2.0126,3090.37,2006.93)" d="M31.5,-8.09375 C29.7031,-11.4063 25.9063,-13.2031 21.2969,-13.2031 C17.9063,-13.2031 14.2031,-12.2031 10.5938,-10.2969 C4,-6.79688 0,-0.90625 0,4.20313 C0,5.59375 0.296875,7 1,8.29688 C2.79688,11.5938 6.59375,13.2969 11.2031,13.2969 C14.5938,13.2969 18.2969,12.4063 21.9063,10.5 C28.5,7 32.5,1.09375 32.5,-4 C32.5,-5.40625 32.2031,-6.79688 31.5,-8.09375"/>
<path class="Note" transform="matrix(2.0126,0,0,2.0126,3214.56,2006.93)" d="M31.5,-8.09375 C29.7031,-11.4063 25.9063,-13.2031 21.2969,-13.2031 C17.9063,-13.2031 14.2031,-12.2031 10.5938,-10.2969 C4,-6.79688 0,-0.90625 0,4.20313 C0,5.59375 0.296875,7 1,8.29688 C2.79688,11.5938 6.59375,13.2969 11.2031,13.2969 C14.5938,13.2969 18.2969,12.4063 21.9063,10.5 C28.5,7 32.5,1.09375 32.5,-4 C32.5,-5.40625 32.2031,-6.79688 31.5,-8.09375"/>
<path class="Note" transform="matrix(2.0126,0,0,2.0126,3419.83,2032.09)" d="M31.5,-8.09375 C29.7031,-11.4063 25.9063,-13.2031 21.2969,-13.2031 C17.9063,-13.2031 14.2031,-12.2031 10.5938,-10.2969 C4,-6.79688 0,-0.90625 0,4.20313 C0,5.59375 0.296875,7 1,8.29688 C2.79688,11.5938 6.59375,13.2969 11.2031,13.2969 C14.5938,13.2969 18.2969,12.4063 21.9063,10.5 C28.5,7 32.5,1.09375 32.5,-4 C32.5,-5.40625 32.2031,-6.79688 31.5,-8.09375"/>
<path class="Note" transform="matrix(2.0126,0,0,2.0126,3511.74,2057.24)" d="M31.5,-8.09375 C29.7031,-11.4063 25.9063,-13.2031 21.2969,-13.2031 C17.9063,-13.2031 14.2031,-12.2031 10.5938,-10.2969 C4,-6.79688 0,-0.90625 0,4.20313 C0,5.59375 0.296875,7 1,8.29688 C2.79688,11.5938 6.59375,13.2969 11.2031,13.2969 C14.5938,13.2969 18.2969,12.4063 21.9063,10.5 C28.5,7 32.5,1.09375 32.5,-4 C32.5,-5.40625 32.2031,-6.79688 31.5,-8.09375"/>
<path class="Note" transform="matrix(2.0126,0,0,2.0126,3603.65,2006.93)" d="M31.5,-8.09375 C29.7031,-11.4063 25.9063,-13.2031 21.2969,-13.2031 C17.9063,-13.2031 14.2031,-12.2031 10.5938,-10.2969 C4,-6.79688 0,-0.90625 0,4.20313 C0,5.59375 0.296875,7 1,8.29688 C2.79688,11.5938 6.59375,13.2969 11.2031,13.2969 C14.5938,13.2969 18.2969,12.4063 21.9063,10.5 C28.5,7 32.5,1.09375 32.5,-4 C32.5,-5.40625 32.2031,-6.79688 31.5,-8.09375"/>
<path class="Note" transform="matrix(2.0126,0,0,2.0126,3695.56,2032.09)" d="M31.5,-8.09375 C29.7031,-11.4063 25.9063,-13.2031 21.2969,-13.2031 C17.9063,-13.2031 14.2031,-12.2031 10.5938,-10.2969 C4,-6.79688 0,-0.90625 0,4.20313 C0,5.59375 0.296875,7 1,8.29688 C2.79688,11.5938 6.59375,13.2969 11.2031,13.2969 C14.5938,13.2969 18.2969,12.4063 21.9063,10.5 C28.5,7 32.5,1.09375 32.5,-4 C32.5,-5.40625 32.2031,-6.79688 31.5,-8.09375"/>
<path class="Note" transform="matrix(2.0126,0,0,2.0126,3900.83,2057.24)" d="M31.5,-8.14063 C29.7031,-11.4375 25.9063,-13.2344 21.2969,-13.2344 C17.9063,-13.2344 14.2031,-12.2344 10.5938,-10.3438 C4,-6.84375 0,-0.9375 0,4.15625 C0,5.5625 0.296875,6.96875 1,8.26563 C2.79688,11.5781 6.59375,13.2813 11.2031,13.2813 C14.5938,13.2813 18.2969,12.375 21.9063,10.4844 C28.5,6.96875 32.5,1.0625 32.5,-4.04688 C32.5,-5.4375 32.2031,-6.84375 31.5,-8.14063 M27.2031,-1.34375 C25.5,0.359375 22.0938,2.45313 18.5,4.46875 C14.9063,6.46875 11.2969,7.96875 8.90625,8.46875 C8.40625,8.57813 7.90625,8.67188 7.40625,8.67188 C5.79688,8.67188 4.59375,8.07813 3.90625,6.76563 C3.59375,6.26563 3.40625,5.67188 3.40625,5.0625 C3.40625,3.96875 4.09375,2.65625 5.20313,1.5625 C6.90625,-0.140625 10.2031,-2.23438 13.7969,-4.23438 C17.4063,-6.23438 21,-7.73438 23.4063,-8.23438 C23.9063,-8.34375 24.4063,-8.4375 24.9063,-8.4375 C26.5,-8.4375 27.7969,-7.84375 28.5,-6.54688 C28.7969,-6.04688 28.9063,-5.4375 28.9063,-4.84375 C28.9063,-3.73438 28.2969,-2.54688 27.2031,-1.34375"/>
<path class="Clef" transform="matrix(2.0126,0,0,2.0126,111.118,574.016)" d="M63.3594,-5.92188 C62.125,-11.3438 59.4844,-15.1719 58.7031,-16.2031 C55.5156,-20.4844 51.5,-23.3281 46.8125,-24.6875 C43.7031,-25.5625 40.7031,-25.6875 38.2813,-25.5 C37.2344,-31.5156 36.2344,-37.3906 35.3281,-42.8438 C40.7813,-49.0156 44.4063,-54.8125 46.6875,-59.1094 C50.1563,-65.6875 51.2969,-70.2656 51.3594,-70.4688 C53.0781,-75.6875 53.4375,-83.3906 52.3281,-91.5938 C51.3281,-99.1406 49.2344,-105.859 46.875,-109.109 C45.8594,-110.531 44.7969,-111.266 43.7656,-111.266 C42.5469,-111.266 40.0313,-110.031 37.1406,-107.25 C34.8438,-105.063 31.5781,-101.172 29.0156,-95.1563 C26.0156,-88.0938 25.7969,-78.6094 26.1563,-71.8906 C26.5313,-64.6094 27.6406,-58.9219 27.6563,-58.875 C27.6719,-58.7813 27.9375,-57.2813 28.375,-54.7188 C28.1563,-54.4844 27.9063,-54.2656 27.6563,-54.0156 C26.625,-53.0156 25.4375,-51.8906 24.0469,-50.5 C23.1875,-49.6406 22.2344,-48.7344 21.2344,-47.7656 C12.7969,-39.625 0,-27.2969 0,-8.14063 C0,-3.4375 0.90625,0.984375 2.6875,5 C4.26563,8.59375 6.5625,11.875 9.5,14.75 C17.2344,22.3125 27.8281,25.5156 34.875,25.3594 C37.8281,25.2813 40.4688,25.0469 42.8594,24.5938 C44.6875,34.2031 45.8281,41.2344 45.8594,46.5781 C45.9063,53.0938 44.25,57.0781 40.3594,59.8438 C37.9219,61.5781 35.1094,62.5313 32.0156,62.6719 C29.4219,62.7969 27.1563,62.3281 25.7344,61.9219 L25.7188,61.9219 C25.7188,61.9219 25.4375,61.8281 25.4219,61.6406 C25.4063,61.4531 25.7656,61.4063 25.7656,61.4063 L25.7969,61.4063 C27.7188,60.9688 31.2813,59.7344 33.6406,56.4375 C35.4375,53.9063 36.3125,49.2813 34.4688,45.3438 C33.3594,42.9531 30.8594,40 25.2344,39.5469 C22.7344,39.3438 20.4688,39.8594 18.4688,41.0625 C16.6563,42.1406 15.1563,43.7813 14.1094,45.7813 C11.6563,50.4844 12.1094,56.2188 15.2344,60.0625 C18.2031,63.6875 22.8125,66 28.25,66.5781 C29.1094,66.6719 29.9531,66.7031 30.7969,66.7031 C35.2344,66.7031 39.625,65.5 43.2031,63.2969 C46.8594,60.7188 48.9844,56.7344 49.6563,51.1094 C50.2188,46.4688 49.8281,40.5469 48.4375,32.4688 C48.0781,30.375 47.5313,27.3438 46.875,23.5938 C52.625,21.6719 56.7813,18.0938 60.5469,12.2344 C63.8438,6.5 64.7813,0.390625 63.3594,-5.92188 M29.1406,20.2969 C24.5,19.0781 20.0625,16.5781 16.3125,13.0625 C15,11.8438 13.125,9.67188 11.6563,6.28125 C10.2969,3.10938 9.625,-0.328125 9.6875,-3.90625 C9.75,-8.60938 11.0625,-13.4375 13.5625,-18.2188 C16.4844,-23.7969 21.0469,-29.3281 27.1094,-34.6563 C28.5625,-35.9375 29.9375,-37.2188 31.2188,-38.5 C31.9844,-34.2344 32.8125,-29.5469 33.6875,-24.6719 C29.8438,-23.4063 25.0938,-20.25 21.9844,-14.5938 C18.4375,-8.03125 18.5781,-2.5 19.3125,0.984375 C20.25,5.4375 22.7813,9.20313 26.2344,11.2969 C27.1719,11.8594 31.2969,13.9844 33.1406,13.4063 C33.5156,13.2969 33.7813,13.0625 33.9219,12.7344 C34.4375,11.5625 33.4063,10.9219 31.8594,9.96875 C31.25,9.59375 30.5781,9.17188 29.8594,8.64063 C26.5313,6.15625 25.0781,1.70313 26.1563,-2.6875 C26.7344,-5.07813 28.0156,-7.25 29.8594,-8.95313 C31.5156,-10.5 33.5625,-11.5938 35.9375,-12.2344 C37.9844,-0.984375 40.0469,10.1719 41.6875,18.5313 C41.8125,19.2188 41.9531,19.8906 42.0781,20.5625 C37.7031,21.5 33.3594,21.4063 29.1406,20.2969 M40.4688,-12.9063 C50.8125,-13.375 55.0781,-5.9375 55.9688,-1.10938 C56.4375,1.4375 56.4375,5.875 54.8906,10.0938 C53.7188,13.2656 51.2656,17.3438 46.125,19.4063 C46.0625,18.9844 45.9844,18.5469 45.9063,18.125 C44.3594,9.34375 42.4219,-1.65625 40.4688,-12.9063 M33.1406,-83.8594 C34.9219,-89.5938 37.6563,-92.8438 39.6563,-94.5781 C41.4063,-96.0938 43.0469,-96.8125 43.9688,-96.8125 C44.1094,-96.8125 44.2344,-96.7813 44.3281,-96.75 C44.7969,-96.6094 45.3281,-96.0469 45.7969,-95.1719 C48.1094,-90.8906 47.3594,-84.1719 46.0156,-79.7344 C44.3906,-74.3281 41.4688,-68.7188 32.6719,-59.1094 C32.5,-60.2188 32.3438,-61.2656 32.1875,-62.25 C30.9375,-70.5313 31.2656,-77.8125 33.1406,-83.8594"/>
<path class="Clef" transform="matrix(2.0126,0,0,2.0126,111.118,1391.1)" d="M63.3594,-5.92188 C62.125,-11.3438 59.4844,-15.1719 58.7031,-16.2031 C55.5156,-20.4844 51.5,-23.3281 46.8125,-24.6875 C43.7031,-25.5625 40.7031,-25.6875 38.2813,-25.5 C37.2344,-31.5156 36.2344,-37.3906 35.3281,-42.8438 C40.7813,-49.0156 44.4063,-54.8125 46.6875,-59.1094 C50.1563,-65.6875 51.2969,-70.2656 51.3594,-70.4688 C53.0781,-75.6875 53.4375,-83.3906 52.3281,-91.5938 C51.3281,-99.1406 49.2344,-105.859 46.875,-109.109 C45.8594,-110.531 44.7969,-111.266 43.7656,-111.266 C42.5469,-111.266 40.0313,-110.031 37.1406,-107.25 C34.8438,-105.063 31.5781,-101.172 29.0156,-95.1563 C26.0156,-88.0938 25.7969,-78.6094 26.1563,-71.8906 C26.5313,-64.6094 27.6406,-58.9219 27.6563,-58.875 C27.6719,-58.7813 27.9375,-57.2813 28.375,-54.7188 C28.1563,-54.4844 27.9063,-54.2656 27.6563,-54.0156 C26.625,-53.0156 25.4375,-51.8906 24.0469,-50.5 C23.1875,-49.6406 22.2344,-48.7344 21.2344,-47.7656 C12.7969,-39.625 0,-27.2969 0,-8.14063 C0,-3.4375 0.90625,0.984375 2.6875,5 C4.26563,8.59375 6.5625,11.875 9.5,14.75 C17.2344,22.3125 27.8281,25.5156 34.875,25.3594 C37.8281,25.2813 40.4688,25.0469 42.8594,24.5938 C44.6875,34.2031 45.8281,41.2344 45.8594,46.5781 C45.9063,53.0938 44.25,57.0781 40.3594,59.8438 C37.9219,61.5781 35.1094,62.5313 32.0156,62.6719 C29.4219,62.7969 27.1563,62.3281 25.7344,61.9219 L25.7188,61.9219 C25.7188,61.9219 25.4375,61.8281 25.4219,61.6406 C25.4063,61.4531 25.7656,61.4063 25.7656,61.4063 L25.7969,61.4063 C27.7188,60.9688 31.2813,59.7344 33.6406,56.4375 C35.4375,53.9063 36.3125,49.2813 34.4688,45.3438 C33.3594,42.9531 30.8594,40 25.2344,39.5469 C22.7344,39.3438 20.4688,39.8594 18.4688,41.0625 C16.6563,42.1406 15.1563,43.7813 14.1094,45.7813 C11.6563,50.4844 12.1094,56.2188 15.2344,60.0625 C18.2031,63.6875 22.8125,66 28.25,66.5781 C29.1094,66.6719 29.9531,66.7031 30.7969,66.7031 C35.2344,66.7031 39.625,65.5 43.2031,63.2969 C46.8594,60.7188 48.9844,56.7344 49.6563,51.1094 C50.2188,46.4688 49.8281,40.5469 48.4375,32.4688 C48.0781,30.375 47.5313,27.3438 46.875,23.5938 C52.625,21.6719 56.7813,18.0938 60.5469,12.2344 C63.8438,6.5 64.7813,0.390625 63.3594,-5.92188 M29.1406,20.2969 C24.5,19.0781 20.0625,16.5781 16.3125,13.0625 C15,11.8438 13.125,9.67188 11.6563,6.28125 C10.2969,3.10938 9.625,-0.328125 9.6875,-3.90625 C9.75,-8.60938 11.0625,-13.4375 13.5625,-18.2188 C16.4844,-23.7969 21.0469,-29.3281 27.1094,-34.6563 C28.5625,-35.9375 29.9375,-37.2188 31.2188,-38.5 C31.9844,-34.2344 32.8125,-29.5469 33.6875,-24.6719 C29.8438,-23.4063 25.0938,-20.25 21.9844,-14.5938 C18.4375,-8.03125 18.5781,-2.5 19.3125,0.984375 C20.25,5.4375 22.7813,9.20313 26.2344,11.2969 C27.1719,11.8594 31.2969,13.9844 33.1406,13.4063 C33.5156,13.2969 33.7813,13.0625 33.9219,12.7344 C34.4375,11.5625 33.4063,10.9219 31.8594,9.96875 C31.25,9.59375 30.5781,9.17188 29.8594,8.64063 C26.5313,6.15625 25.0781,1.70313 26.1563,-2.6875 C26.7344,-5.07813 28.0156,-7.25 29.8594,-8.95313 C31.5156,-10.5 33.5625,-11.5938 35.9375,-12.2344 C37.9844,-0.984375 40.0469,10.1719 41.6875,18.5313 C41.8125,19.2188 41.9531,19.8906 42.0781,20.5625 C37.7031,21.5 33.3594,21.4063 29.1406,20.2969 M40.4688,-12.9063 C50.8125,-13.375 55.0781,-5.9375 55.9688,-1.10938 C56.4375,1.4375 56.4375,5.875 54.8906,10.0938 C53.7188,13.2656 51.2656,17.3438 46.125,19.4063 C46.0625,18.9844 45.9844,18.5469 45.9063,18.125 C44.3594,9.34375 42.4219,-1.65625 40.4688,-12.9063 M33.1406,-83.8594 C34.9219,-89.5938 37.6563,-92.8438 39.6563,-94.5781 C41.4063,-96.0938 43.0469,-96.8125 43.9688,-96.8125 C44.1094,-96.8125 44.2344,-96.7813 44.3281,-96.75 C44.7969,-96.6094 45.3281,-96.0469 45.7969,-95.1719 C48.1094,-90.8906 47.3594,-84.1719 46.0156,-79.7344 C44.3906,-74.3281 41.4688,-68.7188 32.6719,-59.1094 C32.5,-60.2188 32.3438,-61.2656 32.1875,-62.25 C30.9375,-70.5313 31.2656,-77.8125 33.1406,-83.8594"/>
<path class="Clef" transform="matrix(2.0126,0,0,2.0126,111.118,2208.19)" d="M63.3594,-5.92188 C62.125,-11.3438 59.4844,-15.1719 58.7031,-16.2031 C55.5156,-20.4844 51.5,-23.3281 46.8125,-24.6875 C43.7031,-25.5625 40.7031,-25.6875 38.2813,-25.5 C37.2344,-31.5156 36.2344,-37.3906 35.3281,-42.8438 C40.7813,-49.0156 44.4063,-54.8125 46.6875,-59.1094 C50.1563,-65.6875 51.2969,-70.2656 51.3594,-70.4688 C53.0781,-75.6875 53.4375,-83.3906 52.3281,-91.5938 C51.3281,-99.1406 49.2344,-105.859 46.875,-109.109 C45.8594,-110.531 44.7969,-111.266 43.7656,-111.266 C42.5469,-111.266 40.0313,-110.031 37.1406,-107.25 C34.8438,-105.063 31.5781,-101.172 29.0156,-95.1563 C26.0156,-88.0938 25.7969,-78.6094 26.1563,-71.8906 C26.5313,-64.6094 27.6406,-58.9219 27.6563,-58.875 C27.6719,-58.7813 27.9375,-57.2813 28.375,-54.7188 C28.1563,-54.4844 27.9063,-54.2656 27.6563,-54.0156 C26.625,-53.0156 25.4375,-51.8906 24.0469,-50.5 C23.1875,-49.6406 22.2344,-48.7344 21.2344,-47.7656 C12.7969,-39.625 0,-27.2969 0,-8.14063 C0,-3.4375 0.90625,0.984375 2.6875,5 C4.26563,8.59375 6.5625,11.875 9.5,14.75 C17.2344,22.3125 27.8281,25.5156 34.875,25.3594 C37.8281,25.2813 40.4688,25.0469 42.8594,24.5938 C44.6875,34.2031 45.8281,41.2344 45.8594,46.5781 C45.9063,53.0938 44.25,57.0781 40.3594,59.8438 C37.9219,61.5781 35.1094,62.5313 32.0156,62.6719 C29.4219,62.7969 27.1563,62.3281 25.7344,61.9219 L25.7188,61.9219 C25.7188,61.9219 25.4375,61.8281 25.4219,61.6406 C25.4063,61.4531 25.7656,61.4063 25.7656,61.4063 L25.7969,61.4063 C27.7188,60.9688 31.2813,59.7344 33.6406,56.4375 C35.4375,53.9063 36.3125,49.2813 34.4688,45.3438 C33.3594,42.9531 30.8594,40 25.2344,39.5469 C22.7344,39.3438 20.4688,39.8594 18.4688,41.0625 C16.6563,42.1406 15.1563,43.7813 14.1094,45.7813 C11.6563,50.4844 12.1094,56.2188 15.2344,60.0625 C18.2031,63.6875 22.8125,66 28.25,66.5781 C29.1094,66.6719 29.9531,66.7031 30.7969,66.7031 C35.2344,66.7031 39.625,65.5 43.2031,63.2969 C46.8594,60.7188 48.9844,56.7344 49.6563,51.1094 C50.2188,46.4688 49.8281,40.5469 48.4375,32.4688 C48.0781,30.375 47.5313,27.3438 46.875,23.5938 C52.625,21.6719 56.7813,18.0938 60.5469,12.2344 C63.8438,6.5 64.7813,0.390625 63.3594,-5.92188 M29.1406,20.2969 C24.5,19.0781 20.0625,16.5781 16.3125,13.0625 C15,11.8438 13.125,9.67188 11.6563,6.28125 C10.2969,3.10938 9.625,-0.328125 9.6875,-3.90625 C9.75,-8.60938 11.0625,-13.4375 13.5625,-18.2188 C16.4844,-23.7969 21.0469,-29.3281 27.1094,-34.6563 C28.5625,-35.9375 29.9375,-37.2188 31.2188,-38.5 C31.9844,-34.2344 32.8125,-29.5469 33.6875,-24.6719 C29.8438,-23.4063 25.0938,-20.25 21.9844,-14.5938 C18.4375,-8.03125 18.5781,-2.5 19.3125,0.984375 C20.25,5.4375 22.7813,9.20313 26.2344,11.2969 C27.1719,11.8594 31.2969,13.9844 33.1406,13.4063 C33.5156,13.2969 33.7813,13.0625 33.9219,12.7344 C34.4375,11.5625 33.4063,10.9219 31.8594,9.96875 C31.25,9.59375 30.5781,9.17188 29.8594,8.64063 C26.5313,6.15625 25.0781,1.70313 26.1563,-2.6875 C26.7344,-5.07813 28.0156,-7.25 29.8594,-8.95313 C31.5156,-10.5 33.5625,-11.5938 35.9375,-12.2344 C37.9844,-0.984375 40.0469,10.1719 41.6875,18.5313 C41.8125,19.2188 41.9531,19.8906 42.0781,20.5625 C37.7031,21.5 33.3594,21.4063 29.1406,20.2969 M40.4688,-12.9063 C50.8125,-13.375 55.0781,-5.9375 55.9688,-1.10938 C56.4375,1.4375 56.4375,5.875 54.8906,10.0938 C53.7188,13.2656 51.2656,17.3438 46.125,19.4063 C46.0625,18.9844 45.9844,18.5469 45.9063,18.125 C44.3594,9.34375 42.4219,-1.65625 40.4688,-12.9063 M33.1406,-83.8594 C34.9219,-89.5938 37.6563,-92.8438 39.6563,-94.5781 C41.4063,-96.0938 43.0469,-96.8125 43.9688,-96.8125 C44.1094,-96.8125 44.2344,-96.7813 44.3281,-96.75 C44.7969,-96.6094 45.3281,-96.0469 45.7969,-95.1719 C48.1094,-90.8906 47.3594,-84.1719 46.0156,-79.7344 C44.3906,-74.3281 41.4688,-68.7188 32.6719,-59.1094 C32.5,-60.2188 32.3438,-61.2656 32.1875,-62.25 C30.9375,-70.5313 31.2656,-77.8125 33.1406,-83.8594"/>
<path class="KeySig" transform="matrix(2.0126,0,0,2.0126,290.208,523.701)" d="M20.0938,-7.90625 C19.5,-11.7969 17.0938,-15.5 12,-15.5 C7,-15.5 4.09375,-12.4063 3.59375,-11.7969 L4,-43.9063 C4,-44.7031 3.40625,-45.2969 2.59375,-45.2969 L1.40625,-45.2969 C0.59375,-45.2969 0,-44.7031 0,-43.9063 L0.5,16.2031 C0.5,17 1.09375,17.5938 1.90625,17.5938 C2.09375,17.5938 2.5,17.5 2.70313,17.4063 C3.09375,17.2031 9.59375,14 15,7.90625 C18.7969,3.59375 20.2969,-1.29688 20.2969,-5.40625 C20.2969,-6.29688 20.2031,-7.09375 20.0938,-7.90625 M13.2031,-4 C13.2031,-2.5 12.7969,2.09375 10.2969,5.90625 C8.59375,8.5 5.20313,11.2031 3.29688,12.7031 L3.59375,-6.79688 C3.79688,-7.70313 5.29688,-10.5938 9.29688,-10.5938 C12.9063,-10.5938 13.2031,-7.20313 13.2031,-5.09375 L13.2031,-4 "/>
<path class="KeySig" transform="matrix(2.0126,0,0,2.0126,290.208,1340.79)" d="M20.0938,-7.90625 C19.5,-11.7969 17.0938,-15.5 12,-15.5 C7,-15.5 4.09375,-12.4063 3.59375,-11.7969 L4,-43.9063 C4,-44.7031 3.40625,-45.2969 2.59375,-45.2969 L1.40625,-45.2969 C0.59375,-45.2969 0,-44.7031 0,-43.9063 L0.5,16.2031 C0.5,17 1.09375,17.5938 1.90625,17.5938 C2.09375,17.5938 2.5,17.5 2.70313,17.4063 C3.09375,17.2031 9.59375,14 15,7.90625 C18.7969,3.59375 20.2969,-1.29688 20.2969,-5.40625 C20.2969,-6.29688 20.2031,-7.09375 20.0938,-7.90625 M13.2031,-4 C13.2031,-2.5 12.7969,2.09375 10.2969,5.90625 C8.59375,8.5 5.20313,11.2031 3.29688,12.7031 L3.59375,-6.79688 C3.79688,-7.70313 5.29688,-10.5938 9.29688,-10.5938 C12.9063,-10.5938 13.2031,-7.20313 13.2031,-5.09375 L13.2031,-4 "/>
<path class="KeySig" transform="matrix(2.0126,0,0,2.0126,290.208,2157.87)" d="M20.0938,-7.90625 C19.5,-11.7969 17.0938,-15.5 12,-15.5 C7,-15.5 4.09375,-12.4063 3.59375,-11.7969 L4,-43.9063 C4,-44.7031 3.40625,-45.2969 2.59375,-45.2969 L1.40625,-45.2969 C0.59375,-45.2969 0,-44.7031 0,-43.9063 L0.5,16.2031 C0.5,17 1.09375,17.5938 1.90625,17.5938 C2.09375,17.5938 2.5,17.5 2.70313,17.4063 C3.09375,17.2031 9.59375,14 15,7.90625 C18.7969,3.59375 20.2969,-1.29688 20.2969,-5.40625 C20.2969,-6.29688 20.2031,-7.09375 20.0938,-7.90625 M13.2031,-4 C13.2031,-2.5 12.7969,2.09375 10.2969,5.90625 C8.59375,8.5 5.20313,11.2031 3.29688,12.7031 L3.59375,-6.79688 C3.79688,-7.70313 5.29688,-10.5938 9.29688,-10.5938 C12.9063,-10.5938 13.2031,-7.20313 13.2031,-5.09375 L13.2031,-4 "/>
<path class="TimeSig" transform="matrix(2.0126,0,0,2.0126,385.24,474.392)" d="M34.2031,3.90625 C33.4063,6.09375 31.4063,13.2969 26.5,13.2969 C20,13.2969 18.5938,9.29688 13.2031,9.29688 C12.4063,9.29688 11.5938,9.40625 10.5938,9.59375 C10.5938,9.59375 13.0938,5.79688 23.7031,2.5 C34.2969,-0.796875 37,-6 37,-12 C37,-16.2031 35.1094,-24.5 20,-24.5 C4.90625,-24.5 2.09375,-15.4063 2.09375,-10.7969 C2.09375,-6.70313 5.5,-3.40625 9.59375,-3.40625 C13.7031,-3.40625 17,-6.70313 17,-10.7969 C17,-13.5938 15,-16.7031 12.4063,-17.7031 C12.0938,-17.7969 11.7031,-18.2969 11.7031,-18.7969 C11.7031,-19.4063 12.2031,-20.0938 14,-20.5938 C14.5,-20.7969 15.9063,-21.0938 17.4063,-21.0938 C18.7969,-21.0938 20.4063,-20.7969 21.5938,-20 C23.5,-18.7969 24.2031,-17 24.2031,-12.5 C24.2031,-0.796875 10.2969,1.70313 4.5,10.4063 C4.5,10.4063 1.5,14.5938 1.5,19.2969 C1.5,24 3.90625,24.2969 5.09375,24.2969 C6.70313,24.2969 8.40625,23 8.40625,21.2031 C8.40625,20.7969 8.29688,20.4063 8.09375,19.9063 C7.5,18.5 7.29688,17.4063 7.29688,16.5938 C7.29688,16.2969 7.29688,16 7.40625,15.7031 C7.5,15.0938 8.29688,14.0938 10.7031,14.0938 C13.5938,14.0938 14.7031,17.5 16.5,20.0938 C18.2969,22.7031 21.0938,24.2969 24.2969,24.2969 C27.5,24.2969 31.7969,22 33.6094,18.2969 C35.4063,14.5938 37.7031,7.09375 37.7031,4.40625 C37.7031,3.09375 36.9063,2.5 36,2.5 C35.2969,2.5 34.6094,2.90625 34.2031,3.90625"/>
<path class="TimeSig" transform="matrix(2.0126,0,0,2.0126,378.605,573.748)" d="M3.59375,12.625 L20.7656,12.625 L20.7656,20.0781 L12.5469,20.0781 C11.7656,20.0781 11.125,20.7031 11.125,21.4844 L11.125,23.3906 C11.125,24.1719 11.7656,24.7969 12.5469,24.7969 L42.7969,24.7969 C43.5781,24.7969 44.2031,24.1719 44.2031,23.3906 L44.2031,21.4844 C44.2031,20.7031 43.5781,20.0781 42.7969,20.0781 L33.8594,20.0781 L33.8594,12.625 L42.7969,12.625 C43.5781,12.625 44.2031,12 44.2031,11.2188 L44.2031,9.3125 C44.2031,8.53125 43.5781,7.90625 42.7969,7.90625 L33.8594,7.90625 L33.8594,-8.0625 C33.8594,-8.59375 33.5469,-9.07813 33.0781,-9.3125 L31.8594,-9.92188 C31.3281,-10.1719 30.7031,-10.0781 30.2656,-9.6875 L21.2188,-1.375 C20.9375,-1.09375 20.7656,-0.734375 20.7656,-0.328125 L20.7656,7.90625 L9.25,7.90625 C9.25,7.90625 20.375,-4.125 32.2188,-19.8906 C33.0781,-21.0469 32.5781,-22.0938 32.3906,-22.2813 L30.2188,-24.4844 C29.9531,-24.75 29.5938,-24.9063 29.2188,-24.9063 C28.625,-24.9063 15.0625,-24.875 14.3438,-24.9063 C13.625,-24.9219 13.0938,-24.2969 13.0156,-23.6875 C13.0156,-23.6875 12.4844,-16.3281 9.875,-8.1875 C7.28125,-0.078125 4.34375,4.90625 1.6875,8.53125 C1.6875,8.53125 1.14063,9.51563 1.5,10.2656 C1.84375,11.0156 2.48438,12.0938 2.48438,12.0938 C2.48438,12.0938 2.73438,12.625 3.59375,12.625"/>
<path class="Rest" transform="matrix(2.0126,0,0,2.0126,2134.3,523.701)" d="M26.7344,-20.2656 C25.9844,-20.5469 25.3125,-20.2031 24.9844,-19.5938 C24.6563,-18.9844 21.4688,-13.0625 17.0469,-9.79688 C15.6563,-8.78125 14.0625,-8.14063 12.5,-7.8125 C13.625,-9.0625 14.2969,-10.7344 14.2969,-12.5469 C14.2969,-16.5 11.0938,-19.7031 7.15625,-19.7031 C3.20313,-19.7031 0,-16.5 0,-12.5469 C0,-9.54688 1.875,-6.95313 4.51563,-5.90625 C6.04688,-5.1875 7.95313,-4.73438 10,-4.73438 C12.8438,-4.73438 15.9531,-5.5625 18.6719,-7.5625 C19.9375,-8.48438 21.125,-9.6875 22.2031,-10.9375 L10.8125,24.6875 L13.4531,25.5469 L27.5313,-18.5469 C27.7656,-19.2813 27.4688,-19.9688 26.7344,-20.2656"/>
<path class="Rest" transform="matrix(2.0126,0,0,2.0126,3910.07,523.701)" d="M26.7344,-20.2656 C25.9844,-20.5469 25.3125,-20.2031 24.9844,-19.5938 C24.6563,-18.9844 21.4688,-13.0625 17.0469,-9.79688 C15.6563,-8.78125 14.0625,-8.14063 12.5,-7.8125 C13.625,-9.0625 14.2969,-10.7344 14.2969,-12.5469 C14.2969,-16.5 11.0938,-19.7031 7.15625,-19.7031 C3.20313,-19.7031 0,-16.5 0,-12.5469 C0,-9.54688 1.875,-6.95313 4.51563,-5.90625 C6.04688,-5.1875 7.95313,-4.73438 10,-4.73438 C12.8438,-4.73438 15.9531,-5.5625 18.6719,-7.5625 C19.9375,-8.48438 21.125,-9.6875 22.2031,-10.9375 L10.8125,24.6875 L13.4531,25.5469 L27.5313,-18.5469 C27.7656,-19.2813 27.4688,-19.9688 26.7344,-20.2656"/>
<path class="Rest" transform="matrix(2.0126,0,0,2.0126,3987.68,1340.79)" d="M23.2031,16.9063 L23,16.5938 C22.9063,16.5 22.7031,16.2969 22.4063,15.9063 L10.9063,1.70313 C10.5938,1.40625 10.7031,0.59375 10.9063,0.203125 L21.0938,-15.2031 C21.2031,-15.4063 21.2969,-15.7031 21.2969,-15.9063 L21.2969,-16.7969 C21.2969,-17.0938 21.2031,-17.4063 21,-17.5938 L4.79688,-39.5 C4.79688,-39.5 4,-40.7031 3,-39.7969 C2,-39 2.79688,-37.7031 2.79688,-37.7031 L10.4063,-27.2969 C10.7969,-26.7031 10.7969,-25.5 10.4063,-24.9063 L0.296875,-9.5 C0.203125,-9.29688 0.09375,-8.90625 0.09375,-8.70313 L0.09375,-7.79688 C0.09375,-7.5 0.203125,-7.20313 0.40625,-7 L11.5938,6.90625 C11.2031,6.79688 10.2969,6.59375 9.09375,6.59375 C7.40625,6.59375 5.20313,7 3.40625,8.59375 C1.20313,10.5938 0,13.4063 0,15.9063 C0,17.2969 0.296875,18.7031 1.09375,19.7969 C3.20313,23 10.7031,32.5 10.7031,32.5 C10.7031,32.5 11.5938,33.6094 12.5,32.9063 C13.4063,32.2031 13.2031,31.2969 12.9063,30.7969 C12.5938,30.2969 9.40625,24.5 9.40625,24.5 C9.40625,24.5 8.70313,23.0938 8.70313,21.2969 C8.70313,20 9.09375,18.4063 10.4063,17.0938 C11.5938,15.9063 13,15.5 14.2969,15.5 C15.5938,15.5 16.7031,15.9063 17.5,16.4063 L21.4063,18.9063 C21.4063,18.9063 22.5938,19.5 23.2031,18.5938 C23.7031,17.7969 23.5,17.4063 23.2031,16.9063"/>
<path class="Beam" fill-rule="evenodd" d="M675.489,561.253 L754.38,547.725 L754.38,573.25 L675.489,586.778 L675.489,561.253 "/>
<path class="Beam" fill-rule="evenodd" d="M1136.78,511.122 L1245.47,511.122 L1245.47,536.279 L1136.78,536.279 L1136.78,511.122 "/>
<path class="Beam" fill-rule="evenodd" d="M1445.21,548.746 L1544.75,562.065 L1544.75,587.447 L1445.21,574.128 L1445.21,548.746 "/>
<path class="Beam" fill-rule="evenodd" d="M1633.23,523.589 L1732.77,510.269 L1732.77,535.651 L1633.23,548.97 L1633.23,523.589 "/>
<path class="Beam" fill-rule="evenodd" d="M2339.57,561.437 L2432.66,561.437 L2432.66,586.594 L2339.57,586.594 L2339.57,561.437 "/>
<path class="Beam" fill-rule="evenodd" d="M2514.68,561.308 L2607.76,547.934 L2607.76,573.35 L2514.68,586.724 L2514.68,561.308 "/>
<path class="Beam" fill-rule="evenodd" d="M2990.16,511.122 L3098.85,511.122 L3098.85,536.279 L2990.16,536.279 L2990.16,511.122 "/>
<path class="Beam" fill-rule="evenodd" d="M3298.59,548.746 L3398.13,562.065 L3398.13,587.447 L3298.59,574.128 L3298.59,548.746 "/>
<path class="Beam" fill-rule="evenodd" d="M3486.61,523.589 L3586.15,510.269 L3586.15,535.651 L3486.61,548.97 L3486.61,523.589 "/>
<path class="Beam" fill-rule="evenodd" d="M446.782,1378.52 L543.355,1378.52 L543.355,1403.68 L446.782,1403.68 L446.782,1378.52 "/>
<path class="Beam" fill-rule="evenodd" d="M628.86,1378.4 L725.433,1365.06 L725.433,1390.46 L628.86,1403.8 L628.86,1378.4 "/>
<path class="Beam" fill-rule="evenodd" d="M1114.27,1328.21 L1226.98,1328.21 L1226.98,1353.37 L1114.27,1353.37 L1114.27,1328.21 "/>
<path class="Beam" fill-rule="evenodd" d="M1426.72,1365.84 L1529.75,1379.13 L1529.75,1404.5 L1426.72,1391.21 L1426.72,1365.84 "/>
<path class="Beam" fill-rule="evenodd" d="M1621.71,1340.68 L1724.74,1327.39 L1724.74,1352.76 L1621.71,1366.05 L1621.71,1340.68 "/>
<path class="Beam" fill-rule="evenodd" d="M2258.99,1378.52 L2355.57,1378.52 L2355.57,1403.68 L2258.99,1403.68 L2258.99,1378.52 "/>
<path class="Beam" fill-rule="evenodd" d="M2441.07,1378.4 L2537.65,1365.06 L2537.65,1390.46 L2441.07,1403.8 L2441.07,1378.4 "/>
<path class="Beam" fill-rule="evenodd" d="M2754.99,1328.21 L2890.31,1328.21 L2890.31,1353.37 L2754.99,1353.37 L2754.99,1328.21 "/>
<path class="Beam" fill-rule="evenodd" d="M3014.55,1328.21 L3149.87,1328.21 L3149.87,1353.37 L3014.55,1353.37 L3014.55,1328.21 "/>
<path class="Beam" fill-rule="evenodd" d="M3349.61,1365.84 L3452.64,1379.13 L3452.64,1404.5 L3349.61,1391.21 L3349.61,1365.84 "/>
<path class="Beam" fill-rule="evenodd" d="M3544.6,1328.1 L3647.63,1341.4 L3647.63,1366.76 L3544.6,1353.47 L3544.6,1328.1 "/>
<path class="Beam" fill-rule="evenodd" d="M446.782,2132.72 L576.509,2132.72 L576.509,2157.87 L446.782,2157.87 L446.782,2132.72 "/>
<path class="Beam" fill-rule="evenodd" d="M695.168,2132.72 L824.896,2132.72 L824.896,2157.87 L695.168,2157.87 L695.168,2132.72 "/>
<path class="Beam" fill-rule="evenodd" d="M1155.73,2195.61 L1232.19,2195.61 L1232.19,2220.77 L1155.73,2220.77 L1155.73,2195.61 "/>
<path class="Beam" fill-rule="evenodd" d="M1449.54,2132.72 L1579.27,2132.72 L1579.27,2157.87 L1449.54,2157.87 L1449.54,2132.72 "/>
<path class="Beam" fill-rule="evenodd" d="M1697.93,2132.72 L1827.65,2132.72 L1827.65,2157.87 L1697.93,2157.87 L1697.93,2132.72 "/>
<path class="Beam" fill-rule="evenodd" d="M2362.75,2195.61 L2453.74,2195.61 L2453.74,2220.77 L2362.75,2220.77 L2362.75,2195.61 "/>
<path class="Beam" fill-rule="evenodd" d="M2533.65,2195.47 L2624.64,2182.08 L2624.64,2207.51 L2533.65,2220.9 L2533.65,2195.47 "/>
<path class="Beam" fill-rule="evenodd" d="M2841.98,2145.29 L2971.71,2145.29 L2971.71,2170.45 L2841.98,2170.45 L2841.98,2145.29 "/>
<path class="Beam" fill-rule="evenodd" d="M3090.37,2145.29 L3220.1,2145.29 L3220.1,2170.45 L3090.37,2170.45 L3090.37,2145.29 "/>
<path class="Beam" fill-rule="evenodd" d="M3419.83,2182.91 L3517.28,2196.25 L3517.28,2221.64 L3419.83,2208.31 L3419.83,2182.91 "/>
<path class="Beam" fill-rule="evenodd" d="M3603.65,2145.18 L3701.09,2158.51 L3701.09,2183.91 L3603.65,2170.57 L3603.65,2145.18 "/>
<path class="Hook" transform="matrix(2.0126,0,0,2.0126,2056.69,674.646)" d="M2.5,0.40625 C2.5,0.203125 3.40625,-3.20313 3.5,-3.5 C3.59375,-3.90625 5.40625,-9.59375 9.09375,-15.2969 C11.7969,-19.5 21.2969,-31.7969 21,-31.7969 C21,-31.7969 28.4063,-41.2969 28.9063,-54.2031 L28.9063,-56.5 C28.9063,-62.6094 28.1094,-71.2031 24.5938,-79.9063 C24.2031,-80.9063 23.7969,-81.9063 22.7031,-81.5 C21.5938,-81.1094 21.9063,-79.9063 22.2031,-78.8125 C24,-71.7969 25,-64.6094 25,-57.4063 C25,-49 22,-44.7969 20.2031,-41.7031 C13.5938,-30.6094 5,-25.2031 0.796875,-23.7969 C0.296875,-23.5938 0,-23.2031 0,-22.7031 L0,-16.5 L0,-0.09375 C0,0.59375 0.59375,1.20313 1.29688,1.20313 C1.79688,1.20313 2.40625,0.796875 2.5,0.40625"/>
<path class="Hook" transform="matrix(2.0126,0,0,2.0126,3987.68,674.646)" d="M2.5,0.40625 C2.5,0.203125 3.40625,-3.20313 3.5,-3.5 C3.59375,-3.90625 5.40625,-9.59375 9.09375,-15.2969 C11.7969,-19.5 21.2969,-31.7969 21,-31.7969 C21,-31.7969 28.4063,-41.2969 28.9063,-54.2031 L28.9063,-56.5 C28.9063,-62.6094 28.1094,-71.2031 24.5938,-79.9063 C24.2031,-80.9063 23.7969,-81.9063 22.7031,-81.5 C21.5938,-81.1094 21.9063,-79.9063 22.2031,-78.8125 C24,-71.7969 25,-64.6094 25,-57.4063 C25,-49 22,-44.7969 20.2031,-41.7031 C13.5938,-30.6094 5,-25.2031 0.796875,-23.7969 C0.296875,-23.5938 0,-23.2031 0,-22.7031 L0,-16.5 L0,-0.09375 C0,0.59375 0.59375,1.20313 1.29688,1.20313 C1.79688,1.20313 2.40625,0.796875 2.5,0.40625"/>
<path class="RehearsalMark" fill="none" stroke="#000000" stroke-width="8.05" stroke-linecap="square" stroke-linejoin="miter" stroke-miterlimit="2" fill-rule="evenodd" d="M379.102,138.943 L550.468,138.943 L550.468,301.309 L379.102,301.309 L379.102,138.943 "/>
<path class="RehearsalMark" d="M460.785,168.204 L428.769,242.938 C422.285,258.173 417.066,263.673 408.754,264.516 L408.754,272.126 L449.504,272.126 L449.504,264.516 C439.488,263.954 435.535,261.266 435.535,254.782 C435.535,252.391 436.097,250.126 437.66,246.751 L439.91,241.391 L475.019,241.391 L480.379,255.204 C481.926,259.157 482.066,259.86 482.066,260.985 C482.066,263.532 480.097,264.376 473.894,264.376 L471.488,264.516 L471.488,272.126 L520.988,272.126 L520.988,264.516 C512.957,264.235 510.691,262.813 507.738,255.626 L471.488,168.204 L460.785,168.204 M457.816,198.235 L471.488,231.938 L443.582,231.938 L457.816,198.235 "/>
<path class="RehearsalMark" fill="none" stroke="#000000" stroke-width="8.05" stroke-linecap="square" stroke-linejoin="miter" stroke-miterlimit="2" fill-rule="evenodd" d="M250.875,1775.12 L411.24,1775.12 L411.24,1935.48 L250.875,1935.48 L250.875,1775.12 "/>
<path class="RehearsalMark" d="M280.448,1804.49 L280.448,1812.11 L282.573,1812.11 C290.182,1812.11 292.87,1812.67 294.135,1814.08 C295.12,1815.63 295.12,1816.05 295.12,1824.8 L295.12,1885.99 C295.12,1894.74 295.12,1895.16 294.135,1896.56 C292.87,1898.13 290.042,1898.69 282.573,1898.69 L280.448,1898.69 L280.448,1906.3 L337.557,1906.3 C352.229,1906.3 359.698,1905.17 367.026,1901.92 C375.917,1897.99 381.838,1889.09 381.838,1879.5 C381.838,1869.64 376.198,1861.88 365.76,1857.08 C360.963,1854.83 356.885,1853.7 349.401,1852.72 C356.323,1851.59 360.26,1850.59 364.213,1848.77 C372.667,1844.67 377.182,1837.91 377.182,1829.45 C377.182,1821.41 372.948,1813.94 366.042,1810.13 C358.292,1805.77 351.526,1804.49 334.885,1804.49 L280.448,1804.49 M320.495,1850.17 L320.495,1820.28 C320.213,1814.36 322.198,1812.39 328.401,1812.11 L332.62,1812.11 C345.042,1812.11 351.667,1818.31 351.667,1830.02 C351.667,1836.92 349.26,1842.42 344.76,1845.95 C340.948,1849.05 336.151,1850.17 327.417,1850.17 L320.495,1850.17 M320.495,1857.94 L330.229,1857.94 C339.12,1857.94 343.198,1858.78 347.151,1861.31 C352.088,1864.56 354.901,1870.77 354.901,1878.09 C354.901,1884.86 352.37,1891.06 348.276,1894.45 C344.76,1897.27 340.104,1898.69 333.338,1898.69 L329.104,1898.69 C321.057,1898.41 320.213,1897.55 320.495,1889.66 L320.495,1857.94 "/>
</svg>
