<?xml version="1.0" encoding="UTF-8" standalone="no"?>
<svg width="4208.47px" height="2409.45px" viewBox="0 0 4208.47 2409.45"
 xmlns="http://www.w3.org/2000/svg" xmlns:xlink="http://www.w3.org/1999/xlink" version="1.2" baseProfile="tiny">
<title>FLAUTA</title>
<desc>Generated by MuseScore 3.6.2</desc>
<polyline class="StaffLines" fill="none" stroke="#000000" stroke-width="5.53" stroke-linejoin="bevel" points="70.866,423.071 4137.61,423.071"/>
<polyline class="StaffLines" fill="none" stroke="#000000" stroke-width="5.53" stroke-linejoin="bevel" points="70.866,473.386 4137.61,473.386"/>
<polyline class="StaffLines" fill="none" stroke="#000000" stroke-width="5.53" stroke-linejoin="bevel" points="70.866,523.701 4137.61,523.701"/>
<polyline class="StaffLines" fill="none" stroke="#000000" stroke-width="5.53" stroke-linejoin="bevel" points="70.866,574.016 4137.61,574.016"/>
<polyline class="StaffLines" fill="none" stroke="#000000" stroke-width="5.53" stroke-linejoin="bevel" points="70.866,624.331 4137.61,624.331"/>
<polyline class="StaffLines" fill="none" stroke="#000000" stroke-width="5.53" stroke-linejoin="bevel" points="70.866,1173.21 4137.61,1173.21"/>
<polyline class="StaffLines" fill="none" stroke="#000000" stroke-width="5.53" stroke-linejoin="bevel" points="70.866,1223.52 4137.61,1223.52"/>
<polyline class="StaffLines" fill="none" stroke="#000000" stroke-width="5.53" stroke-linejoin="bevel" points="70.866,1273.84 4137.61,1273.84"/>
<polyline class="StaffLines" fill="none" stroke="#000000" stroke-width="5.53" stroke-linejoin="bevel" points="70.866,1324.15 4137.61,1324.15"/>
<polyline class="StaffLines" fill="none" stroke="#000000" stroke-width="5.53" stroke-linejoin="bevel" points="70.866,1374.47 4137.61,1374.47"/>
<polyline class="StaffLines" fill="none" stroke="#000000" stroke-width="5.53" stroke-linejoin="bevel" points="70.866,1923.34 4137.61,1923.34"/>
<polyline class="StaffLines" fill="none" stroke="#000000" stroke-width="5.53" stroke-linejoin="bevel" points="70.866,1973.66 4137.61,1973.66"/>
<polyline class="StaffLines" fill="none" stroke="#000000" stroke-width="5.53" stroke-linejoin="bevel" points="70.866,2023.97 4137.61,2023.97"/>
<polyline class="StaffLines" fill="none" stroke="#000000" stroke-width="5.53" stroke-linejoin="bevel" points="70.866,2074.29 4137.61,2074.29"/>
<polyline class="StaffLines" fill="none" stroke="#000000" stroke-width="5.53" stroke-linejoin="bevel" points="70.866,2124.6 4137.61,2124.6"/>
<path class="MeasureNumber" d="M75.7485,1059.18 C76.4285,1055.66 77.2285,1053.46 78.7485,1050.78 C80.5485,1047.62 82.7085,1046.02 85.1085,1046.02 C86.3485,1046.02 87.1085,1046.5 87.1085,1047.26 C87.1085,1047.54 87.0285,1047.7 86.7485,1048.22 C86.3885,1048.9 86.2285,1049.38 86.2285,1049.98 C86.2285,1051.26 87.1885,1052.14 88.5485,1052.14 C90.1885,1052.14 91.3085,1050.94 91.3085,1049.14 C91.3085,1046.42 88.7485,1044.42 85.1885,1044.42 C81.4285,1044.42 78.0685,1046.42 75.3485,1050.26 C72.5485,1054.22 70.8685,1059.3 70.8685,1063.74 C70.8685,1069.62 73.7885,1073.18 78.6685,1073.18 C81.6685,1073.18 84.3485,1071.98 86.2685,1069.86 C88.0285,1067.86 89.1085,1064.98 89.1085,1062.34 C89.1085,1058.26 86.3485,1055.42 82.3485,1055.42 C79.5485,1055.42 77.3885,1056.62 75.7485,1059.18 M81.0685,1057.74 C83.5485,1057.74 84.9085,1059.46 84.9085,1062.58 C84.9085,1067.66 82.2285,1071.54 78.6685,1071.54 C76.1085,1071.54 74.5885,1069.66 74.5885,1066.46 C74.5885,1061.46 77.3485,1057.74 81.0685,1057.74"/>
<path class="MeasureNumber" d="M87.226,1794.39 L86.066,1794.39 C83.866,1796.03 79.626,1797.43 76.746,1797.43 L76.266,1799.19 L79.026,1799.19 C81.466,1799.19 81.746,1799.27 81.746,1799.99 C81.746,1800.35 81.746,1800.35 81.346,1801.79 L77.066,1817.79 C76.546,1819.79 76.506,1819.91 76.146,1820.27 C75.746,1820.67 74.906,1820.79 72.786,1820.83 L71.066,1820.83 L70.866,1822.71 L85.666,1822.71 L85.906,1820.83 L83.746,1820.83 C81.146,1820.83 80.586,1820.63 80.586,1819.75 C80.586,1819.47 80.746,1818.55 80.946,1817.79 L87.226,1794.39 M105.14,1794.55 C102.5,1794.55 100.02,1795.75 97.8204,1798.07 C94.5004,1801.67 92.2604,1807.83 92.2604,1813.43 C92.2604,1819.23 95.1404,1823.31 99.2204,1823.31 C106.06,1823.31 112.18,1814.43 112.18,1804.51 C112.18,1798.55 109.34,1794.55 105.14,1794.55 M105.1,1796.15 C107.18,1796.15 108.3,1797.99 108.3,1801.43 C108.3,1805.35 107.3,1810.43 105.66,1814.55 C103.74,1819.55 101.82,1821.71 99.4204,1821.71 C97.2604,1821.71 96.0604,1819.79 96.0604,1816.39 C96.0604,1811.19 97.9004,1804.23 100.46,1799.59 C101.7,1797.35 103.3,1796.15 105.1,1796.15"/>
<path class="TieSegment" stroke="#000000" stroke-width="3.52" stroke-linecap="round" stroke-linejoin="round" fill-rule="evenodd" d="M3146.19,586.594 C3185.33,609.299 3302.76,609.299 3341.9,586.594 C3302.76,623.387 3185.33,623.387 3146.19,586.594"/>
<path class="TieSegment" stroke="#000000" stroke-width="3.52" stroke-linecap="round" stroke-linejoin="round" fill-rule="evenodd" d="M3160.37,1925.78 C3199.51,1888.99 3316.94,1888.99 3356.09,1925.78 C3316.94,1903.07 3199.51,1903.07 3160.37,1925.78"/>
<polyline class="BarLine" stroke="#000000" stroke-width="27.67" stroke-linejoin="bevel" points="1038.87,420.303 1038.87,627.098"/>
<polyline class="BarLine" stroke="#000000" stroke-width="9.06" stroke-linejoin="bevel" points="1074.09,420.303 1074.09,627.098"/>
<path class="BarLine" transform="matrix(2.0126,0,0,2.0126,1098.84,498.543)" d="M10.4,0 C10.4,-2.9 8.1,-5.3 5.2,-5.3 C2.3,-5.3 0,-2.9 0,0 C0,2.9 2.3,5.3 5.2,5.3 C8.1,5.3 10.4,2.9 10.4,0"/>
<path class="BarLine" transform="matrix(2.0126,0,0,2.0126,1098.84,548.858)" d="M10.4,0 C10.4,-2.9 8.1,-5.3 5.2,-5.3 C2.3,-5.3 0,-2.9 0,0 C0,2.9 2.3,5.3 5.2,5.3 C8.1,5.3 10.4,2.9 10.4,0"/>
<polyline class="BarLine" stroke="#000000" stroke-width="9.06" stroke-linejoin="bevel" points="1913.56,420.303 1913.56,627.098"/>
<polyline class="BarLine" stroke="#000000" stroke-width="9.06" stroke-linejoin="bevel" points="2626.59,420.303 2626.59,627.098"/>
<polyline class="BarLine" stroke="#000000" stroke-width="9.06" stroke-linejoin="bevel" points="3249.08,420.303 3249.08,627.098"/>
<path class="BarLine" transform="matrix(2.0126,0,0,2.0126,4048.13,498.543)" d="M10.4,0 C10.4,-2.9 8.1,-5.3 5.2,-5.3 C2.3,-5.3 0,-2.9 0,0 C0,2.9 2.3,5.3 5.2,5.3 C8.1,5.3 10.4,2.9 10.4,0"/>
<path class="BarLine" transform="matrix(2.0126,0,0,2.0126,4048.13,548.858)" d="M10.4,0 C10.4,-2.9 8.1,-5.3 5.2,-5.3 C2.3,-5.3 0,-2.9 0,0 C0,2.9 2.3,5.3 5.2,5.3 C8.1,5.3 10.4,2.9 10.4,0"/>
<polyline class="BarLine" stroke="#000000" stroke-width="9.06" stroke-linejoin="bevel" points="4093.81,420.303 4093.81,627.098"/>
<polyline class="BarLine" stroke="#000000" stroke-width="27.67" stroke-linejoin="bevel" points="4129.03,420.303 4129.03,627.098"/>
<polyline class="BarLine" stroke="#000000" stroke-width="27.67" stroke-linejoin="bevel" points="1125.91,1170.44 1125.91,1377.23"/>
<polyline class="BarLine" stroke="#000000" stroke-width="9.06" stroke-linejoin="bevel" points="1161.13,1170.44 1161.13,1377.23"/>
<path class="BarLine" transform="matrix(2.0126,0,0,2.0126,1185.87,1248.68)" d="M10.4,0 C10.4,-2.9 8.1,-5.3 5.2,-5.3 C2.3,-5.3 0,-2.9 0,0 C0,2.9 2.3,5.3 5.2,5.3 C8.1,5.3 10.4,2.9 10.4,0"/>
<path class="BarLine" transform="matrix(2.0126,0,0,2.0126,1185.87,1298.99)" d="M10.4,0 C10.4,-2.9 8.1,-5.3 5.2,-5.3 C2.3,-5.3 0,-2.9 0,0 C0,2.9 2.3,5.3 5.2,5.3 C8.1,5.3 10.4,2.9 10.4,0"/>
<polyline class="BarLine" stroke="#000000" stroke-width="9.06" stroke-linejoin="bevel" points="2129.18,1170.44 2129.18,1377.23"/>
<polyline class="BarLine" stroke="#000000" stroke-width="9.06" stroke-linejoin="bevel" points="3131.13,1170.44 3131.13,1377.23"/>
<polyline class="BarLine" stroke="#000000" stroke-width="9.06" stroke-linejoin="bevel" points="4133.08,1170.44 4133.08,1377.23"/>
<path class="BarLine" transform="matrix(2.0126,0,0,2.0126,1276.84,1998.81)" d="M10.4,0 C10.4,-2.9 8.1,-5.3 5.2,-5.3 C2.3,-5.3 0,-2.9 0,0 C0,2.9 2.3,5.3 5.2,5.3 C8.1,5.3 10.4,2.9 10.4,0"/>
<path class="BarLine" transform="matrix(2.0126,0,0,2.0126,1276.84,2049.13)" d="M10.4,0 C10.4,-2.9 8.1,-5.3 5.2,-5.3 C2.3,-5.3 0,-2.9 0,0 C0,2.9 2.3,5.3 5.2,5.3 C8.1,5.3 10.4,2.9 10.4,0"/>
<polyline class="BarLine" stroke="#000000" stroke-width="9.06" stroke-linejoin="bevel" points="1322.53,1920.57 1322.53,2127.37"/>
<polyline class="BarLine" stroke="#000000" stroke-width="27.67" stroke-linejoin="bevel" points="1357.75,1920.57 1357.75,2127.37"/>
<polyline class="BarLine" stroke="#000000" stroke-width="9.06" stroke-linejoin="bevel" points="2347.42,1920.57 2347.42,2127.37"/>
<polyline class="BarLine" stroke="#000000" stroke-width="9.06" stroke-linejoin="bevel" points="3263.26,1920.57 3263.26,2127.37"/>
<polyline class="BarLine" stroke="#000000" stroke-width="9.06" stroke-linejoin="bevel" points="4088.55,1920.57 4088.55,2127.37"/>
<polyline class="BarLine" stroke="#000000" stroke-width="27.67" stroke-linejoin="bevel" points="4123.77,1920.57 4123.77,2127.37"/>
<polyline class="LedgerLine" stroke="#000000" stroke-width="8.05" stroke-linejoin="bevel" points="953.593,1424.78 1054.21,1424.78"/>
<polyline class="Stem" stroke="#000000" stroke-width="5.53" stroke-linejoin="bevel" points="730.34,505.305 730.34,674.646"/>
<polyline class="Stem" stroke="#000000" stroke-width="5.53" stroke-linejoin="bevel" points="808.638,505.305 808.638,662.067"/>
<polyline class="Stem" stroke="#000000" stroke-width="5.53" stroke-linejoin="bevel" points="886.936,530.463 886.936,674.646"/>
<polyline class="Stem" stroke="#000000" stroke-width="5.53" stroke-linejoin="bevel" points="1182.69,480.148 1182.69,649.488"/>
<polyline class="Stem" stroke="#000000" stroke-width="5.53" stroke-linejoin="bevel" points="1414.42,480.148 1414.42,649.488"/>
<polyline class="Stem" stroke="#000000" stroke-width="5.53" stroke-linejoin="bevel" points="1592.68,530.463 1592.68,699.803"/>
<polyline class="Stem" stroke="#000000" stroke-width="5.53" stroke-linejoin="bevel" points="1681.81,530.463 1681.81,712.382"/>
<polyline class="Stem" stroke="#000000" stroke-width="5.53" stroke-linejoin="bevel" points="1770.94,555.62 1770.94,712.382"/>
<polyline class="Stem" stroke="#000000" stroke-width="5.53" stroke-linejoin="bevel" points="1986.27,505.305 1986.27,712.382"/>
<polyline class="Stem" stroke="#000000" stroke-width="5.53" stroke-linejoin="bevel" points="2163.65,505.305 2163.65,636.909"/>
<polyline class="Stem" stroke="#000000" stroke-width="5.53" stroke-linejoin="bevel" points="2252.34,505.305 2252.34,636.909"/>
<polyline class="Stem" stroke="#000000" stroke-width="5.53" stroke-linejoin="bevel" points="2542.79,542.418 2542.79,385.335"/>
<polyline class="Stem" stroke="#000000" stroke-width="5.53" stroke-linejoin="bevel" points="2699.3,530.463 2699.3,680.935"/>
<polyline class="Stem" stroke="#000000" stroke-width="5.53" stroke-linejoin="bevel" points="2869.72,542.418 2869.72,385.335"/>
<polyline class="Stem" stroke="#000000" stroke-width="5.53" stroke-linejoin="bevel" points="2980.29,567.575 2980.29,404.203"/>
<polyline class="Stem" stroke="#000000" stroke-width="5.53" stroke-linejoin="bevel" points="3090.85,592.733 3090.85,435.649"/>
<polyline class="Stem" stroke="#000000" stroke-width="5.53" stroke-linejoin="bevel" points="3166.31,542.418 3166.31,410.492"/>
<polyline class="Stem" stroke="#000000" stroke-width="5.53" stroke-linejoin="bevel" points="3381.64,542.418 3381.64,410.492"/>
<polyline class="Stem" stroke="#000000" stroke-width="5.53" stroke-linejoin="bevel" points="3470.77,567.575 3470.77,423.071"/>
<polyline class="Stem" stroke="#000000" stroke-width="5.53" stroke-linejoin="bevel" points="3731.77,505.305 3731.77,674.646"/>
<polyline class="Stem" stroke="#000000" stroke-width="5.53" stroke-linejoin="bevel" points="3820.9,505.305 3820.9,662.067"/>
<polyline class="Stem" stroke="#000000" stroke-width="5.53" stroke-linejoin="bevel" points="3910.03,530.463 3910.03,674.646"/>
<polyline class="Stem" stroke="#000000" stroke-width="5.53" stroke-linejoin="bevel" points="368.448,1280.6 368.448,1449.94"/>
<polyline class="Stem" stroke="#000000" stroke-width="5.53" stroke-linejoin="bevel" points="519.058,1292.55 519.058,1135.47"/>
<polyline class="Stem" stroke="#000000" stroke-width="5.53" stroke-linejoin="bevel" points="664.259,1317.71 664.259,1154.34"/>
<polyline class="Stem" stroke="#000000" stroke-width="5.53" stroke-linejoin="bevel" points="797.877,1342.87 797.877,1173.21"/>
<polyline class="Stem" stroke="#000000" stroke-width="5.53" stroke-linejoin="bevel" points="943.078,1317.71 943.078,1173.21"/>
<polyline class="Stem" stroke="#000000" stroke-width="5.53" stroke-linejoin="bevel" points="1033.83,1418.34 1033.83,1223.52"/>
<polyline class="Stem" stroke="#000000" stroke-width="5.53" stroke-linejoin="bevel" points="1372.13,1255.44 1372.13,1424.78"/>
<polyline class="Stem" stroke="#000000" stroke-width="5.53" stroke-linejoin="bevel" points="1474.53,1255.44 1474.53,1387.04"/>
<polyline class="Stem" stroke="#000000" stroke-width="5.53" stroke-linejoin="bevel" points="1576.93,1255.44 1576.93,1387.04"/>
<polyline class="Stem" stroke="#000000" stroke-width="5.53" stroke-linejoin="bevel" points="1679.34,1230.28 1679.34,1424.78"/>
<polyline class="Stem" stroke="#000000" stroke-width="5.53" stroke-linejoin="bevel" points="1781.74,1255.44 1781.74,1424.78"/>
<polyline class="Stem" stroke="#000000" stroke-width="5.53" stroke-linejoin="bevel" points="1884.14,1280.6 1884.14,1424.78"/>
<polyline class="Stem" stroke="#000000" stroke-width="5.53" stroke-linejoin="bevel" points="1986.55,1230.28 1986.55,1424.78"/>
<polyline class="Stem" stroke="#000000" stroke-width="5.53" stroke-linejoin="bevel" points="2370.57,1267.4 2370.57,1116.6"/>
<polyline class="Stem" stroke="#000000" stroke-width="5.53" stroke-linejoin="bevel" points="2504.19,1267.4 2504.19,1122.89"/>
<polyline class="Stem" stroke="#000000" stroke-width="5.53" stroke-linejoin="bevel" points="2613.02,1267.4 2613.02,1122.89"/>
<polyline class="Stem" stroke="#000000" stroke-width="5.53" stroke-linejoin="bevel" points="2721.86,1242.24 2721.86,1110.31"/>
<polyline class="Stem" stroke="#000000" stroke-width="5.53" stroke-linejoin="bevel" points="2830.69,1267.4 2830.69,1110.31"/>
<polyline class="Stem" stroke="#000000" stroke-width="5.53" stroke-linejoin="bevel" points="2939.52,1292.55 2939.52,1110.31"/>
<polyline class="Stem" stroke="#000000" stroke-width="5.53" stroke-linejoin="bevel" points="3048.36,1242.24 3048.36,1110.31"/>
<polyline class="Stem" stroke="#000000" stroke-width="5.53" stroke-linejoin="bevel" points="3372.52,1292.55 3372.52,1135.47"/>
<polyline class="Stem" stroke="#000000" stroke-width="5.53" stroke-linejoin="bevel" points="3506.14,1292.55 3506.14,1160.63"/>
<polyline class="Stem" stroke="#000000" stroke-width="5.53" stroke-linejoin="bevel" points="3614.98,1292.55 3614.98,1160.63"/>
<polyline class="Stem" stroke="#000000" stroke-width="5.53" stroke-linejoin="bevel" points="3723.81,1267.4 3723.81,1122.89"/>
<polyline class="Stem" stroke="#000000" stroke-width="5.53" stroke-linejoin="bevel" points="3832.64,1292.55 3832.64,1122.89"/>
<polyline class="Stem" stroke="#000000" stroke-width="5.53" stroke-linejoin="bevel" points="3941.48,1317.71 3941.48,1122.89"/>
<polyline class="Stem" stroke="#000000" stroke-width="5.53" stroke-linejoin="bevel" points="4050.31,1267.4 4050.31,1122.89"/>
<polyline class="Stem" stroke="#000000" stroke-width="5.53" stroke-linejoin="bevel" points="534.42,2067.85 534.42,1904.47"/>
<polyline class="Stem" stroke="#000000" stroke-width="5.53" stroke-linejoin="bevel" points="668.038,2067.85 668.038,1923.34"/>
<polyline class="Stem" stroke="#000000" stroke-width="5.53" stroke-linejoin="bevel" points="774.151,2067.85 774.151,1923.34"/>
<polyline class="Stem" stroke="#000000" stroke-width="5.53" stroke-linejoin="bevel" points="880.264,2042.69 880.264,1910.76"/>
<polyline class="Stem" stroke="#000000" stroke-width="5.53" stroke-linejoin="bevel" points="986.378,2067.85 986.378,1914.96"/>
<polyline class="Stem" stroke="#000000" stroke-width="5.53" stroke-linejoin="bevel" points="1092.49,2093 1092.49,1919.15"/>
<polyline class="Stem" stroke="#000000" stroke-width="5.53" stroke-linejoin="bevel" points="1198.6,2067.85 1198.6,1923.34"/>
<polyline class="Stem" stroke="#000000" stroke-width="5.53" stroke-linejoin="bevel" points="1600.47,2042.69 1600.47,1885.61"/>
<polyline class="Stem" stroke="#000000" stroke-width="5.53" stroke-linejoin="bevel" points="1734.09,2042.69 1734.09,1910.76"/>
<polyline class="Stem" stroke="#000000" stroke-width="5.53" stroke-linejoin="bevel" points="1840.2,2042.69 1840.2,1910.76"/>
<polyline class="Stem" stroke="#000000" stroke-width="5.53" stroke-linejoin="bevel" points="1946.31,2017.53 1946.31,1873.03"/>
<polyline class="Stem" stroke="#000000" stroke-width="5.53" stroke-linejoin="bevel" points="2052.43,2042.69 2052.43,1873.03"/>
<polyline class="Stem" stroke="#000000" stroke-width="5.53" stroke-linejoin="bevel" points="2158.54,2067.85 2158.54,1873.03"/>
<polyline class="Stem" stroke="#000000" stroke-width="5.53" stroke-linejoin="bevel" points="2264.65,2017.53 2264.65,1873.03"/>
<polyline class="Stem" stroke="#000000" stroke-width="5.53" stroke-linejoin="bevel" points="2520.2,2005.58 2520.2,2174.92"/>
<polyline class="Stem" stroke="#000000" stroke-width="5.53" stroke-linejoin="bevel" points="2620.27,2005.58 2620.27,2137.18"/>
<polyline class="Stem" stroke="#000000" stroke-width="5.53" stroke-linejoin="bevel" points="2720.34,2005.58 2720.34,2137.18"/>
<polyline class="Stem" stroke="#000000" stroke-width="5.53" stroke-linejoin="bevel" points="2820.42,1980.42 2820.42,2174.92"/>
<polyline class="Stem" stroke="#000000" stroke-width="5.53" stroke-linejoin="bevel" points="2920.49,2005.58 2920.49,2174.92"/>
<polyline class="Stem" stroke="#000000" stroke-width="5.53" stroke-linejoin="bevel" points="3020.56,2030.73 3020.56,2174.92"/>
<polyline class="Stem" stroke="#000000" stroke-width="5.53" stroke-linejoin="bevel" points="3120.63,1980.42 3120.63,2174.92"/>
<polyline class="Stem" stroke="#000000" stroke-width="5.53" stroke-linejoin="bevel" points="3335.97,1980.42 3335.97,2149.76"/>
<polyline class="Stem" stroke="#000000" stroke-width="5.53" stroke-linejoin="bevel" points="3428.38,2005.58 3428.38,2162.34"/>
<polyline class="Stem" stroke="#000000" stroke-width="5.53" stroke-linejoin="bevel" points="3761.09,2005.58 3761.09,2174.92"/>
<polyline class="Stem" stroke="#000000" stroke-width="5.53" stroke-linejoin="bevel" points="3853.5,2005.58 3853.5,2162.34"/>
<polyline class="Stem" stroke="#000000" stroke-width="5.53" stroke-linejoin="bevel" points="3945.92,2030.73 3945.92,2174.92"/>
<path class="Note" transform="matrix(2.0126,0,0,2.0126,727.572,498.543)" d="M31.5,-8.1 C29.7,-11.4 25.9,-13.2 21.3,-13.2 C17.9,-13.2 14.2,-12.2 10.6,-10.3 C4,-6.8 0,-0.9 0,4.2 C0,5.6 0.3,7 1,8.3 C2.8,11.6 6.6,13.3 11.2,13.3 C14.6,13.3 18.3,12.4 21.9,10.5 C28.5,7 32.5,1.1 32.5,-4 C32.5,-5.4 32.2,-6.8 31.5,-8.1"/>
<path class="Note" transform="matrix(2.0126,0,0,2.0126,805.871,498.543)" d="M31.5,-8.1 C29.7,-11.4 25.9,-13.2 21.3,-13.2 C17.9,-13.2 14.2,-12.2 10.6,-10.3 C4,-6.8 0,-0.9 0,4.2 C0,5.6 0.3,7 1,8.3 C2.8,11.6 6.6,13.3 11.2,13.3 C14.6,13.3 18.3,12.4 21.9,10.5 C28.5,7 32.5,1.1 32.5,-4 C32.5,-5.4 32.2,-6.8 31.5,-8.1"/>
<path class="Note" transform="matrix(2.0126,0,0,2.0126,884.169,523.701)" d="M31.5,-8.1 C29.7,-11.4 25.9,-13.2 21.3,-13.2 C17.9,-13.2 14.2,-12.2 10.6,-10.3 C4,-6.8 0,-0.9 0,4.2 C0,5.6 0.3,7 1,8.3 C2.8,11.6 6.6,13.3 11.2,13.3 C14.6,13.3 18.3,12.4 21.9,10.5 C28.5,7 32.5,1.1 32.5,-4 C32.5,-5.4 32.2,-6.8 31.5,-8.1"/>
<path class="Note" transform="matrix(2.0126,0,0,2.0126,1179.92,473.386)" d="M31.5,-8.1 C29.7,-11.4 25.9,-13.2 21.3,-13.2 C17.9,-13.2 14.2,-12.2 10.6,-10.3 C4,-6.8 0,-0.9 0,4.2 C0,5.6 0.3,7 1,8.3 C2.8,11.6 6.6,13.3 11.2,13.3 C14.6,13.3 18.3,12.4 21.9,10.5 C28.5,7 32.5,1.1 32.5,-4 C32.5,-5.4 32.2,-6.8 31.5,-8.1"/>
<path class="Note" transform="matrix(2.0126,0,0,2.0126,1411.66,473.386)" d="M31.5,-8.1 C29.7,-11.4 25.9,-13.2 21.3,-13.2 C17.9,-13.2 14.2,-12.2 10.6,-10.3 C4,-6.8 0,-0.9 0,4.2 C0,5.6 0.3,7 1,8.3 C2.8,11.6 6.6,13.3 11.2,13.3 C14.6,13.3 18.3,12.4 21.9,10.5 C28.5,7 32.5,1.1 32.5,-4 C32.5,-5.4 32.2,-6.8 31.5,-8.1"/>
<path class="Note" transform="matrix(2.0126,0,0,2.0126,1589.91,523.701)" d="M31.5,-8.1 C29.7,-11.4 25.9,-13.2 21.3,-13.2 C17.9,-13.2 14.2,-12.2 10.6,-10.3 C4,-6.8 0,-0.9 0,4.2 C0,5.6 0.3,7 1,8.3 C2.8,11.6 6.6,13.3 11.2,13.3 C14.6,13.3 18.3,12.4 21.9,10.5 C28.5,7 32.5,1.1 32.5,-4 C32.5,-5.4 32.2,-6.8 31.5,-8.1"/>
<path class="Note" transform="matrix(2.0126,0,0,2.0126,1679.04,523.701)" d="M31.5,-8.1 C29.7,-11.4 25.9,-13.2 21.3,-13.2 C17.9,-13.2 14.2,-12.2 10.6,-10.3 C4,-6.8 0,-0.9 0,4.2 C0,5.6 0.3,7 1,8.3 C2.8,11.6 6.6,13.3 11.2,13.3 C14.6,13.3 18.3,12.4 21.9,10.5 C28.5,7 32.5,1.1 32.5,-4 C32.5,-5.4 32.2,-6.8 31.5,-8.1"/>
<path class="Note" transform="matrix(2.0126,0,0,2.0126,1768.17,548.858)" d="M31.5,-8.1 C29.7,-11.4 25.9,-13.2 21.3,-13.2 C17.9,-13.2 14.2,-12.2 10.6,-10.3 C4,-6.8 0,-0.9 0,4.2 C0,5.6 0.3,7 1,8.3 C2.8,11.6 6.6,13.3 11.2,13.3 C14.6,13.3 18.3,12.4 21.9,10.5 C28.5,7 32.5,1.1 32.5,-4 C32.5,-5.4 32.2,-6.8 31.5,-8.1"/>
<path class="Note" transform="matrix(2.0126,0,0,2.0126,1983.5,498.543)" d="M31.5,-8.1 C29.7,-11.4 25.9,-13.2 21.3,-13.2 C17.9,-13.2 14.2,-12.2 10.6,-10.3 C4,-6.8 0,-0.9 0,4.2 C0,5.6 0.3,7 1,8.3 C2.8,11.6 6.6,13.3 11.2,13.3 C14.6,13.3 18.3,12.4 21.9,10.5 C28.5,7 32.5,1.1 32.5,-4 C32.5,-5.4 32.2,-6.8 31.5,-8.1"/>
<path class="Note" transform="matrix(2.0126,0,0,2.0126,2160.88,498.543)" d="M31.5,-8.1 C29.7,-11.4 25.9,-13.2 21.3,-13.2 C17.9,-13.2 14.2,-12.2 10.6,-10.3 C4,-6.8 0,-0.9 0,4.2 C0,5.6 0.3,7 1,8.3 C2.8,11.6 6.6,13.3 11.2,13.3 C14.6,13.3 18.3,12.4 21.9,10.5 C28.5,7 32.5,1.1 32.5,-4 C32.5,-5.4 32.2,-6.8 31.5,-8.1"/>
<path class="Note" transform="matrix(2.0126,0,0,2.0126,2249.57,498.543)" d="M31.5,-8.1 C29.7,-11.4 25.9,-13.2 21.3,-13.2 C17.9,-13.2 14.2,-12.2 10.6,-10.3 C4,-6.8 0,-0.9 0,4.2 C0,5.6 0.3,7 1,8.3 C2.8,11.6 6.6,13.3 11.2,13.3 C14.6,13.3 18.3,12.4 21.9,10.5 C28.5,7 32.5,1.1 32.5,-4 C32.5,-5.4 32.2,-6.8 31.5,-8.1"/>
<path class="Note" transform="matrix(2.0126,0,0,2.0126,2480.16,548.858)" d="M31.5,-8.1 C29.7,-11.4 25.9,-13.2 21.3,-13.2 C17.9,-13.2 14.2,-12.2 10.6,-10.3 C4,-6.8 0,-0.9 0,4.2 C0,5.6 0.3,7 1,8.3 C2.8,11.6 6.6,13.3 11.2,13.3 C14.6,13.3 18.3,12.4 21.9,10.5 C28.5,7 32.5,1.1 32.5,-4 C32.5,-5.4 32.2,-6.8 31.5,-8.1"/>
<path class="Note" transform="matrix(2.0126,0,0,2.0126,2696.53,523.701)" d="M31.5,-8.1 C29.7,-11.4 25.9,-13.2 21.3,-13.2 C17.9,-13.2 14.2,-12.2 10.6,-10.3 C4,-6.8 0,-0.9 0,4.2 C0,5.6 0.3,7 1,8.3 C2.8,11.6 6.6,13.3 11.2,13.3 C14.6,13.3 18.3,12.4 21.9,10.5 C28.5,7 32.5,1.1 32.5,-4 C32.5,-5.4 32.2,-6.8 31.5,-8.1"/>
<path class="Note" transform="matrix(2.0126,0,0,2.0126,2807.1,548.858)" d="M31.5,-8.1 C29.7,-11.4 25.9,-13.2 21.3,-13.2 C17.9,-13.2 14.2,-12.2 10.6,-10.3 C4,-6.8 0,-0.9 0,4.2 C0,5.6 0.3,7 1,8.3 C2.8,11.6 6.6,13.3 11.2,13.3 C14.6,13.3 18.3,12.4 21.9,10.5 C28.5,7 32.5,1.1 32.5,-4 C32.5,-5.4 32.2,-6.8 31.5,-8.1"/>
<path class="Note" transform="matrix(2.0126,0,0,2.0126,2917.66,574.016)" d="M31.5,-8.1 C29.7,-11.4 25.9,-13.2 21.3,-13.2 C17.9,-13.2 14.2,-12.2 10.6,-10.3 C4,-6.8 0,-0.9 0,4.2 C0,5.6 0.3,7 1,8.3 C2.8,11.6 6.6,13.3 11.2,13.3 C14.6,13.3 18.3,12.4 21.9,10.5 C28.5,7 32.5,1.1 32.5,-4 C32.5,-5.4 32.2,-6.8 31.5,-8.1"/>
<path class="Note" transform="matrix(2.0126,0,0,2.0126,3028.23,599.173)" d="M31.5,-8.1 C29.7,-11.4 25.9,-13.2 21.3,-13.2 C17.9,-13.2 14.2,-12.2 10.6,-10.3 C4,-6.8 0,-0.9 0,4.2 C0,5.6 0.3,7 1,8.3 C2.8,11.6 6.6,13.3 11.2,13.3 C14.6,13.3 18.3,12.4 21.9,10.5 C28.5,7 32.5,1.1 32.5,-4 C32.5,-5.4 32.2,-6.8 31.5,-8.1"/>
<path class="Note" transform="matrix(2.0126,0,0,2.0126,3103.68,548.858)" d="M31.5,-8.1 C29.7,-11.4 25.9,-13.2 21.3,-13.2 C17.9,-13.2 14.2,-12.2 10.6,-10.3 C4,-6.8 0,-0.9 0,4.2 C0,5.6 0.3,7 1,8.3 C2.8,11.6 6.6,13.3 11.2,13.3 C14.6,13.3 18.3,12.4 21.9,10.5 C28.5,7 32.5,1.1 32.5,-4 C32.5,-5.4 32.2,-6.8 31.5,-8.1"/>
<path class="Note" transform="matrix(2.0126,0,0,2.0126,3319.02,548.858)" d="M31.5,-8.1 C29.7,-11.4 25.9,-13.2 21.3,-13.2 C17.9,-13.2 14.2,-12.2 10.6,-10.3 C4,-6.8 0,-0.9 0,4.2 C0,5.6 0.3,7 1,8.3 C2.8,11.6 6.6,13.3 11.2,13.3 C14.6,13.3 18.3,12.4 21.9,10.5 C28.5,7 32.5,1.1 32.5,-4 C32.5,-5.4 32.2,-6.8 31.5,-8.1"/>
<path class="Note" transform="matrix(2.0126,0,0,2.0126,3408.14,574.016)" d="M31.5,-8.1 C29.7,-11.4 25.9,-13.2 21.3,-13.2 C17.9,-13.2 14.2,-12.2 10.6,-10.3 C4,-6.8 0,-0.9 0,4.2 C0,5.6 0.3,7 1,8.3 C2.8,11.6 6.6,13.3 11.2,13.3 C14.6,13.3 18.3,12.4 21.9,10.5 C28.5,7 32.5,1.1 32.5,-4 C32.5,-5.4 32.2,-6.8 31.5,-8.1"/>
<path class="Note" transform="matrix(2.0126,0,0,2.0126,3729.01,498.543)" d="M31.5,-8.1 C29.7,-11.4 25.9,-13.2 21.3,-13.2 C17.9,-13.2 14.2,-12.2 10.6,-10.3 C4,-6.8 0,-0.9 0,4.2 C0,5.6 0.3,7 1,8.3 C2.8,11.6 6.6,13.3 11.2,13.3 C14.6,13.3 18.3,12.4 21.9,10.5 C28.5,7 32.5,1.1 32.5,-4 C32.5,-5.4 32.2,-6.8 31.5,-8.1"/>
<path class="Note" transform="matrix(2.0126,0,0,2.0126,3818.13,498.543)" d="M31.5,-8.1 C29.7,-11.4 25.9,-13.2 21.3,-13.2 C17.9,-13.2 14.2,-12.2 10.6,-10.3 C4,-6.8 0,-0.9 0,4.2 C0,5.6 0.3,7 1,8.3 C2.8,11.6 6.6,13.3 11.2,13.3 C14.6,13.3 18.3,12.4 21.9,10.5 C28.5,7 32.5,1.1 32.5,-4 C32.5,-5.4 32.2,-6.8 31.5,-8.1"/>
<path class="Note" transform="matrix(2.0126,0,0,2.0126,3907.26,523.701)" d="M31.5,-8.1 C29.7,-11.4 25.9,-13.2 21.3,-13.2 C17.9,-13.2 14.2,-12.2 10.6,-10.3 C4,-6.8 0,-0.9 0,4.2 C0,5.6 0.3,7 1,8.3 C2.8,11.6 6.6,13.3 11.2,13.3 C14.6,13.3 18.3,12.4 21.9,10.5 C28.5,7 32.5,1.1 32.5,-4 C32.5,-5.4 32.2,-6.8 31.5,-8.1"/>
<path class="Note" transform="matrix(2.0126,0,0,2.0126,365.68,1273.84)" d="M31.5,-8.1 C29.7,-11.4 25.9,-13.2 21.3,-13.2 C17.9,-13.2 14.2,-12.2 10.6,-10.3 C4,-6.8 0,-0.9 0,4.2 C0,5.6 0.3,7 1,8.3 C2.8,11.6 6.6,13.3 11.2,13.3 C14.6,13.3 18.3,12.4 21.9,10.5 C28.5,7 32.5,1.1 32.5,-4 C32.5,-5.4 32.2,-6.8 31.5,-8.1"/>
<path class="Note" transform="matrix(2.0126,0,0,2.0126,456.431,1298.99)" d="M31.5,-8.1 C29.7,-11.4 25.9,-13.2 21.3,-13.2 C17.9,-13.2 14.2,-12.2 10.6,-10.3 C4,-6.8 0,-0.9 0,4.2 C0,5.6 0.3,7 1,8.3 C2.8,11.6 6.6,13.3 11.2,13.3 C14.6,13.3 18.3,12.4 21.9,10.5 C28.5,7 32.5,1.1 32.5,-4 C32.5,-5.4 32.2,-6.8 31.5,-8.1"/>
<path class="Note" transform="matrix(2.0126,0,0,2.0126,601.633,1324.15)" d="M31.5,-8.1 C29.7,-11.4 25.9,-13.2 21.3,-13.2 C17.9,-13.2 14.2,-12.2 10.6,-10.3 C4,-6.8 0,-0.9 0,4.2 C0,5.6 0.3,7 1,8.3 C2.8,11.6 6.6,13.3 11.2,13.3 C14.6,13.3 18.3,12.4 21.9,10.5 C28.5,7 32.5,1.1 32.5,-4 C32.5,-5.4 32.2,-6.8 31.5,-8.1"/>
<path class="Note" transform="matrix(2.0126,0,0,2.0126,735.25,1349.31)" d="M31.5,-8.1 C29.7,-11.4 25.9,-13.2 21.3,-13.2 C17.9,-13.2 14.2,-12.2 10.6,-10.3 C4,-6.8 0,-0.9 0,4.2 C0,5.6 0.3,7 1,8.3 C2.8,11.6 6.6,13.3 11.2,13.3 C14.6,13.3 18.3,12.4 21.9,10.5 C28.5,7 32.5,1.1 32.5,-4 C32.5,-5.4 32.2,-6.8 31.5,-8.1"/>
<path class="Note" transform="matrix(2.0126,0,0,2.0126,880.452,1324.15)" d="M31.5,-8.1 C29.7,-11.4 25.9,-13.2 21.3,-13.2 C17.9,-13.2 14.2,-12.2 10.6,-10.3 C4,-6.8 0,-0.9 0,4.2 C0,5.6 0.3,7 1,8.3 C2.8,11.6 6.6,13.3 11.2,13.3 C14.6,13.3 18.3,12.4 21.9,10.5 C28.5,7 32.5,1.1 32.5,-4 C32.5,-5.4 32.2,-6.8 31.5,-8.1"/>
<path class="Note" transform="matrix(2.0126,0,0,2.0126,971.203,1424.78)" d="M31.5,-8.1 C29.7,-11.4 25.9,-13.2 21.3,-13.2 C17.9,-13.2 14.2,-12.2 10.6,-10.3 C4,-6.8 0,-0.9 0,4.2 C0,5.6 0.3,7 1,8.3 C2.8,11.6 6.6,13.3 11.2,13.3 C14.6,13.3 18.3,12.4 21.9,10.5 C28.5,7 32.5,1.1 32.5,-4 C32.5,-5.4 32.2,-6.8 31.5,-8.1"/>
<path class="Note" transform="matrix(2.0126,0,0,2.0126,1369.36,1248.68)" d="M31.5,-8.1 C29.7,-11.4 25.9,-13.2 21.3,-13.2 C17.9,-13.2 14.2,-12.2 10.6,-10.3 C4,-6.8 0,-0.9 0,4.2 C0,5.6 0.3,7 1,8.3 C2.8,11.6 6.6,13.3 11.2,13.3 C14.6,13.3 18.3,12.4 21.9,10.5 C28.5,7 32.5,1.1 32.5,-4 C32.5,-5.4 32.2,-6.8 31.5,-8.1"/>
<path class="Note" transform="matrix(2.0126,0,0,2.0126,1471.76,1248.68)" d="M31.5,-8.1 C29.7,-11.4 25.9,-13.2 21.3,-13.2 C17.9,-13.2 14.2,-12.2 10.6,-10.3 C4,-6.8 0,-0.9 0,4.2 C0,5.6 0.3,7 1,8.3 C2.8,11.6 6.6,13.3 11.2,13.3 C14.6,13.3 18.3,12.4 21.9,10.5 C28.5,7 32.5,1.1 32.5,-4 C32.5,-5.4 32.2,-6.8 31.5,-8.1"/>
<path class="Note" transform="matrix(2.0126,0,0,2.0126,1574.17,1248.68)" d="M31.5,-8.1 C29.7,-11.4 25.9,-13.2 21.3,-13.2 C17.9,-13.2 14.2,-12.2 10.6,-10.3 C4,-6.8 0,-0.9 0,4.2 C0,5.6 0.3,7 1,8.3 C2.8,11.6 6.6,13.3 11.2,13.3 C14.6,13.3 18.3,12.4 21.9,10.5 C28.5,7 32.5,1.1 32.5,-4 C32.5,-5.4 32.2,-6.8 31.5,-8.1"/>
<path class="Note" transform="matrix(2.0126,0,0,2.0126,1676.57,1223.52)" d="M31.5,-8.1 C29.7,-11.4 25.9,-13.2 21.3,-13.2 C17.9,-13.2 14.2,-12.2 10.6,-10.3 C4,-6.8 0,-0.9 0,4.2 C0,5.6 0.3,7 1,8.3 C2.8,11.6 6.6,13.3 11.2,13.3 C14.6,13.3 18.3,12.4 21.9,10.5 C28.5,7 32.5,1.1 32.5,-4 C32.5,-5.4 32.2,-6.8 31.5,-8.1"/>
<path class="Note" transform="matrix(2.0126,0,0,2.0126,1778.97,1248.68)" d="M31.5,-8.1 C29.7,-11.4 25.9,-13.2 21.3,-13.2 C17.9,-13.2 14.2,-12.2 10.6,-10.3 C4,-6.8 0,-0.9 0,4.2 C0,5.6 0.3,7 1,8.3 C2.8,11.6 6.6,13.3 11.2,13.3 C14.6,13.3 18.3,12.4 21.9,10.5 C28.5,7 32.5,1.1 32.5,-4 C32.5,-5.4 32.2,-6.8 31.5,-8.1"/>
<path class="Note" transform="matrix(2.0126,0,0,2.0126,1881.38,1273.84)" d="M31.5,-8.1 C29.7,-11.4 25.9,-13.2 21.3,-13.2 C17.9,-13.2 14.2,-12.2 10.6,-10.3 C4,-6.8 0,-0.9 0,4.2 C0,5.6 0.3,7 1,8.3 C2.8,11.6 6.6,13.3 11.2,13.3 C14.6,13.3 18.3,12.4 21.9,10.5 C28.5,7 32.5,1.1 32.5,-4 C32.5,-5.4 32.2,-6.8 31.5,-8.1"/>
<path class="Note" transform="matrix(2.0126,0,0,2.0126,1983.78,1223.52)" d="M31.5,-8.1 C29.7,-11.4 25.9,-13.2 21.3,-13.2 C17.9,-13.2 14.2,-12.2 10.6,-10.3 C4,-6.8 0,-0.9 0,4.2 C0,5.6 0.3,7 1,8.3 C2.8,11.6 6.6,13.3 11.2,13.3 C14.6,13.3 18.3,12.4 21.9,10.5 C28.5,7 32.5,1.1 32.5,-4 C32.5,-5.4 32.2,-6.8 31.5,-8.1"/>
<path class="Note" transform="matrix(2.0126,0,0,2.0126,2307.95,1273.84)" d="M31.5,-8.1 C29.7,-11.4 25.9,-13.2 21.3,-13.2 C17.9,-13.2 14.2,-12.2 10.6,-10.3 C4,-6.8 0,-0.9 0,4.2 C0,5.6 0.3,7 1,8.3 C2.8,11.6 6.6,13.3 11.2,13.3 C14.6,13.3 18.3,12.4 21.9,10.5 C28.5,7 32.5,1.1 32.5,-4 C32.5,-5.4 32.2,-6.8 31.5,-8.1"/>
<path class="Note" transform="matrix(2.0126,0,0,2.0126,2441.56,1273.84)" d="M31.5,-8.1 C29.7,-11.4 25.9,-13.2 21.3,-13.2 C17.9,-13.2 14.2,-12.2 10.6,-10.3 C4,-6.8 0,-0.9 0,4.2 C0,5.6 0.3,7 1,8.3 C2.8,11.6 6.6,13.3 11.2,13.3 C14.6,13.3 18.3,12.4 21.9,10.5 C28.5,7 32.5,1.1 32.5,-4 C32.5,-5.4 32.2,-6.8 31.5,-8.1"/>
<path class="Note" transform="matrix(2.0126,0,0,2.0126,2550.4,1273.84)" d="M31.5,-8.1 C29.7,-11.4 25.9,-13.2 21.3,-13.2 C17.9,-13.2 14.2,-12.2 10.6,-10.3 C4,-6.8 0,-0.9 0,4.2 C0,5.6 0.3,7 1,8.3 C2.8,11.6 6.6,13.3 11.2,13.3 C14.6,13.3 18.3,12.4 21.9,10.5 C28.5,7 32.5,1.1 32.5,-4 C32.5,-5.4 32.2,-6.8 31.5,-8.1"/>
<path class="Note" transform="matrix(2.0126,0,0,2.0126,2659.23,1248.68)" d="M31.5,-8.1 C29.7,-11.4 25.9,-13.2 21.3,-13.2 C17.9,-13.2 14.2,-12.2 10.6,-10.3 C4,-6.8 0,-0.9 0,4.2 C0,5.6 0.3,7 1,8.3 C2.8,11.6 6.6,13.3 11.2,13.3 C14.6,13.3 18.3,12.4 21.9,10.5 C28.5,7 32.5,1.1 32.5,-4 C32.5,-5.4 32.2,-6.8 31.5,-8.1"/>
<path class="Note" transform="matrix(2.0126,0,0,2.0126,2768.06,1273.84)" d="M31.5,-8.1 C29.7,-11.4 25.9,-13.2 21.3,-13.2 C17.9,-13.2 14.2,-12.2 10.6,-10.3 C4,-6.8 0,-0.9 0,4.2 C0,5.6 0.3,7 1,8.3 C2.8,11.6 6.6,13.3 11.2,13.3 C14.6,13.3 18.3,12.4 21.9,10.5 C28.5,7 32.5,1.1 32.5,-4 C32.5,-5.4 32.2,-6.8 31.5,-8.1"/>
<path class="Note" transform="matrix(2.0126,0,0,2.0126,2876.9,1298.99)" d="M31.5,-8.1 C29.7,-11.4 25.9,-13.2 21.3,-13.2 C17.9,-13.2 14.2,-12.2 10.6,-10.3 C4,-6.8 0,-0.9 0,4.2 C0,5.6 0.3,7 1,8.3 C2.8,11.6 6.6,13.3 11.2,13.3 C14.6,13.3 18.3,12.4 21.9,10.5 C28.5,7 32.5,1.1 32.5,-4 C32.5,-5.4 32.2,-6.8 31.5,-8.1"/>
<path class="Note" transform="matrix(2.0126,0,0,2.0126,2985.73,1248.68)" d="M31.5,-8.1 C29.7,-11.4 25.9,-13.2 21.3,-13.2 C17.9,-13.2 14.2,-12.2 10.6,-10.3 C4,-6.8 0,-0.9 0,4.2 C0,5.6 0.3,7 1,8.3 C2.8,11.6 6.6,13.3 11.2,13.3 C14.6,13.3 18.3,12.4 21.9,10.5 C28.5,7 32.5,1.1 32.5,-4 C32.5,-5.4 32.2,-6.8 31.5,-8.1"/>
<path class="Note" transform="matrix(2.0126,0,0,2.0126,3309.9,1298.99)" d="M31.5,-8.1 C29.7,-11.4 25.9,-13.2 21.3,-13.2 C17.9,-13.2 14.2,-12.2 10.6,-10.3 C4,-6.8 0,-0.9 0,4.2 C0,5.6 0.3,7 1,8.3 C2.8,11.6 6.6,13.3 11.2,13.3 C14.6,13.3 18.3,12.4 21.9,10.5 C28.5,7 32.5,1.1 32.5,-4 C32.5,-5.4 32.2,-6.8 31.5,-8.1"/>
<path class="Note" transform="matrix(2.0126,0,0,2.0126,3443.52,1298.99)" d="M31.5,-8.1 C29.7,-11.4 25.9,-13.2 21.3,-13.2 C17.9,-13.2 14.2,-12.2 10.6,-10.3 C4,-6.8 0,-0.9 0,4.2 C0,5.6 0.3,7 1,8.3 C2.8,11.6 6.6,13.3 11.2,13.3 C14.6,13.3 18.3,12.4 21.9,10.5 C28.5,7 32.5,1.1 32.5,-4 C32.5,-5.4 32.2,-6.8 31.5,-8.1"/>
<path class="Note" transform="matrix(2.0126,0,0,2.0126,3552.35,1298.99)" d="M31.5,-8.1 C29.7,-11.4 25.9,-13.2 21.3,-13.2 C17.9,-13.2 14.2,-12.2 10.6,-10.3 C4,-6.8 0,-0.9 0,4.2 C0,5.6 0.3,7 1,8.3 C2.8,11.6 6.6,13.3 11.2,13.3 C14.6,13.3 18.3,12.4 21.9,10.5 C28.5,7 32.5,1.1 32.5,-4 C32.5,-5.4 32.2,-6.8 31.5,-8.1"/>
<path class="Note" transform="matrix(2.0126,0,0,2.0126,3661.18,1273.84)" d="M31.5,-8.1 C29.7,-11.4 25.9,-13.2 21.3,-13.2 C17.9,-13.2 14.2,-12.2 10.6,-10.3 C4,-6.8 0,-0.9 0,4.2 C0,5.6 0.3,7 1,8.3 C2.8,11.6 6.6,13.3 11.2,13.3 C14.6,13.3 18.3,12.4 21.9,10.5 C28.5,7 32.5,1.1 32.5,-4 C32.5,-5.4 32.2,-6.8 31.5,-8.1"/>
<path class="Note" transform="matrix(2.0126,0,0,2.0126,3770.02,1298.99)" d="M31.5,-8.1 C29.7,-11.4 25.9,-13.2 21.3,-13.2 C17.9,-13.2 14.2,-12.2 10.6,-10.3 C4,-6.8 0,-0.9 0,4.2 C0,5.6 0.3,7 1,8.3 C2.8,11.6 6.6,13.3 11.2,13.3 C14.6,13.3 18.3,12.4 21.9,10.5 C28.5,7 32.5,1.1 32.5,-4 C32.5,-5.4 32.2,-6.8 31.5,-8.1"/>
<path class="Note" transform="matrix(2.0126,0,0,2.0126,3878.85,1324.15)" d="M31.5,-8.1 C29.7,-11.4 25.9,-13.2 21.3,-13.2 C17.9,-13.2 14.2,-12.2 10.6,-10.3 C4,-6.8 0,-0.9 0,4.2 C0,5.6 0.3,7 1,8.3 C2.8,11.6 6.6,13.3 11.2,13.3 C14.6,13.3 18.3,12.4 21.9,10.5 C28.5,7 32.5,1.1 32.5,-4 C32.5,-5.4 32.2,-6.8 31.5,-8.1"/>
<path class="Note" transform="matrix(2.0126,0,0,2.0126,3987.68,1273.84)" d="M31.5,-8.1 C29.7,-11.4 25.9,-13.2 21.3,-13.2 C17.9,-13.2 14.2,-12.2 10.6,-10.3 C4,-6.8 0,-0.9 0,4.2 C0,5.6 0.3,7 1,8.3 C2.8,11.6 6.6,13.3 11.2,13.3 C14.6,13.3 18.3,12.4 21.9,10.5 C28.5,7 32.5,1.1 32.5,-4 C32.5,-5.4 32.2,-6.8 31.5,-8.1"/>
<path class="Note" transform="matrix(2.0126,0,0,2.0126,471.794,2074.29)" d="M31.5,-8.1 C29.7,-11.4 25.9,-13.2 21.3,-13.2 C17.9,-13.2 14.2,-12.2 10.6,-10.3 C4,-6.8 0,-0.9 0,4.2 C0,5.6 0.3,7 1,8.3 C2.8,11.6 6.6,13.3 11.2,13.3 C14.6,13.3 18.3,12.4 21.9,10.5 C28.5,7 32.5,1.1 32.5,-4 C32.5,-5.4 32.2,-6.8 31.5,-8.1"/>
<path class="Note" transform="matrix(2.0126,0,0,2.0126,605.411,2074.29)" d="M31.5,-8.1 C29.7,-11.4 25.9,-13.2 21.3,-13.2 C17.9,-13.2 14.2,-12.2 10.6,-10.3 C4,-6.8 0,-0.9 0,4.2 C0,5.6 0.3,7 1,8.3 C2.8,11.6 6.6,13.3 11.2,13.3 C14.6,13.3 18.3,12.4 21.9,10.5 C28.5,7 32.5,1.1 32.5,-4 C32.5,-5.4 32.2,-6.8 31.5,-8.1"/>
<path class="Note" transform="matrix(2.0126,0,0,2.0126,711.525,2074.29)" d="M31.5,-8.1 C29.7,-11.4 25.9,-13.2 21.3,-13.2 C17.9,-13.2 14.2,-12.2 10.6,-10.3 C4,-6.8 0,-0.9 0,4.2 C0,5.6 0.3,7 1,8.3 C2.8,11.6 6.6,13.3 11.2,13.3 C14.6,13.3 18.3,12.4 21.9,10.5 C28.5,7 32.5,1.1 32.5,-4 C32.5,-5.4 32.2,-6.8 31.5,-8.1"/>
<path class="Note" transform="matrix(2.0126,0,0,2.0126,817.638,2049.13)" d="M31.5,-8.1 C29.7,-11.4 25.9,-13.2 21.3,-13.2 C17.9,-13.2 14.2,-12.2 10.6,-10.3 C4,-6.8 0,-0.9 0,4.2 C0,5.6 0.3,7 1,8.3 C2.8,11.6 6.6,13.3 11.2,13.3 C14.6,13.3 18.3,12.4 21.9,10.5 C28.5,7 32.5,1.1 32.5,-4 C32.5,-5.4 32.2,-6.8 31.5,-8.1"/>
<path class="Note" transform="matrix(2.0126,0,0,2.0126,923.751,2074.29)" d="M31.5,-8.1 C29.7,-11.4 25.9,-13.2 21.3,-13.2 C17.9,-13.2 14.2,-12.2 10.6,-10.3 C4,-6.8 0,-0.9 0,4.2 C0,5.6 0.3,7 1,8.3 C2.8,11.6 6.6,13.3 11.2,13.3 C14.6,13.3 18.3,12.4 21.9,10.5 C28.5,7 32.5,1.1 32.5,-4 C32.5,-5.4 32.2,-6.8 31.5,-8.1"/>
<path class="Note" transform="matrix(2.0126,0,0,2.0126,1029.86,2099.44)" d="M31.5,-8.1 C29.7,-11.4 25.9,-13.2 21.3,-13.2 C17.9,-13.2 14.2,-12.2 10.6,-10.3 C4,-6.8 0,-0.9 0,4.2 C0,5.6 0.3,7 1,8.3 C2.8,11.6 6.6,13.3 11.2,13.3 C14.6,13.3 18.3,12.4 21.9,10.5 C28.5,7 32.5,1.1 32.5,-4 C32.5,-5.4 32.2,-6.8 31.5,-8.1"/>
<path class="Note" transform="matrix(2.0126,0,0,2.0126,1135.98,2074.29)" d="M31.5,-8.1 C29.7,-11.4 25.9,-13.2 21.3,-13.2 C17.9,-13.2 14.2,-12.2 10.6,-10.3 C4,-6.8 0,-0.9 0,4.2 C0,5.6 0.3,7 1,8.3 C2.8,11.6 6.6,13.3 11.2,13.3 C14.6,13.3 18.3,12.4 21.9,10.5 C28.5,7 32.5,1.1 32.5,-4 C32.5,-5.4 32.2,-6.8 31.5,-8.1"/>
<path class="Note" transform="matrix(2.0126,0,0,2.0126,1537.84,2049.13)" d="M31.5,-8.1 C29.7,-11.4 25.9,-13.2 21.3,-13.2 C17.9,-13.2 14.2,-12.2 10.6,-10.3 C4,-6.8 0,-0.9 0,4.2 C0,5.6 0.3,7 1,8.3 C2.8,11.6 6.6,13.3 11.2,13.3 C14.6,13.3 18.3,12.4 21.9,10.5 C28.5,7 32.5,1.1 32.5,-4 C32.5,-5.4 32.2,-6.8 31.5,-8.1"/>
<path class="Note" transform="matrix(2.0126,0,0,2.0126,1671.46,2049.13)" d="M31.5,-8.1 C29.7,-11.4 25.9,-13.2 21.3,-13.2 C17.9,-13.2 14.2,-12.2 10.6,-10.3 C4,-6.8 0,-0.9 0,4.2 C0,5.6 0.3,7 1,8.3 C2.8,11.6 6.6,13.3 11.2,13.3 C14.6,13.3 18.3,12.4 21.9,10.5 C28.5,7 32.5,1.1 32.5,-4 C32.5,-5.4 32.2,-6.8 31.5,-8.1"/>
<path class="Note" transform="matrix(2.0126,0,0,2.0126,1777.57,2049.13)" d="M31.5,-8.1 C29.7,-11.4 25.9,-13.2 21.3,-13.2 C17.9,-13.2 14.2,-12.2 10.6,-10.3 C4,-6.8 0,-0.9 0,4.2 C0,5.6 0.3,7 1,8.3 C2.8,11.6 6.6,13.3 11.2,13.3 C14.6,13.3 18.3,12.4 21.9,10.5 C28.5,7 32.5,1.1 32.5,-4 C32.5,-5.4 32.2,-6.8 31.5,-8.1"/>
<path class="Note" transform="matrix(2.0126,0,0,2.0126,1883.69,2023.97)" d="M31.5,-8.1 C29.7,-11.4 25.9,-13.2 21.3,-13.2 C17.9,-13.2 14.2,-12.2 10.6,-10.3 C4,-6.8 0,-0.9 0,4.2 C0,5.6 0.3,7 1,8.3 C2.8,11.6 6.6,13.3 11.2,13.3 C14.6,13.3 18.3,12.4 21.9,10.5 C28.5,7 32.5,1.1 32.5,-4 C32.5,-5.4 32.2,-6.8 31.5,-8.1"/>
<path class="Note" transform="matrix(2.0126,0,0,2.0126,1989.8,2049.13)" d="M31.5,-8.1 C29.7,-11.4 25.9,-13.2 21.3,-13.2 C17.9,-13.2 14.2,-12.2 10.6,-10.3 C4,-6.8 0,-0.9 0,4.2 C0,5.6 0.3,7 1,8.3 C2.8,11.6 6.6,13.3 11.2,13.3 C14.6,13.3 18.3,12.4 21.9,10.5 C28.5,7 32.5,1.1 32.5,-4 C32.5,-5.4 32.2,-6.8 31.5,-8.1"/>
<path class="Note" transform="matrix(2.0126,0,0,2.0126,2095.92,2074.29)" d="M31.5,-8.1 C29.7,-11.4 25.9,-13.2 21.3,-13.2 C17.9,-13.2 14.2,-12.2 10.6,-10.3 C4,-6.8 0,-0.9 0,4.2 C0,5.6 0.3,7 1,8.3 C2.8,11.6 6.6,13.3 11.2,13.3 C14.6,13.3 18.3,12.4 21.9,10.5 C28.5,7 32.5,1.1 32.5,-4 C32.5,-5.4 32.2,-6.8 31.5,-8.1"/>
<path class="Note" transform="matrix(2.0126,0,0,2.0126,2202.03,2023.97)" d="M31.5,-8.1 C29.7,-11.4 25.9,-13.2 21.3,-13.2 C17.9,-13.2 14.2,-12.2 10.6,-10.3 C4,-6.8 0,-0.9 0,4.2 C0,5.6 0.3,7 1,8.3 C2.8,11.6 6.6,13.3 11.2,13.3 C14.6,13.3 18.3,12.4 21.9,10.5 C28.5,7 32.5,1.1 32.5,-4 C32.5,-5.4 32.2,-6.8 31.5,-8.1"/>
<path class="Note" transform="matrix(2.0126,0,0,2.0126,2517.43,1998.81)" d="M31.5,-8.1 C29.7,-11.4 25.9,-13.2 21.3,-13.2 C17.9,-13.2 14.2,-12.2 10.6,-10.3 C4,-6.8 0,-0.9 0,4.2 C0,5.6 0.3,7 1,8.3 C2.8,11.6 6.6,13.3 11.2,13.3 C14.6,13.3 18.3,12.4 21.9,10.5 C28.5,7 32.5,1.1 32.5,-4 C32.5,-5.4 32.2,-6.8 31.5,-8.1"/>
<path class="Note" transform="matrix(2.0126,0,0,2.0126,2617.5,1998.81)" d="M31.5,-8.1 C29.7,-11.4 25.9,-13.2 21.3,-13.2 C17.9,-13.2 14.2,-12.2 10.6,-10.3 C4,-6.8 0,-0.9 0,4.2 C0,5.6 0.3,7 1,8.3 C2.8,11.6 6.6,13.3 11.2,13.3 C14.6,13.3 18.3,12.4 21.9,10.5 C28.5,7 32.5,1.1 32.5,-4 C32.5,-5.4 32.2,-6.8 31.5,-8.1"/>
<path class="Note" transform="matrix(2.0126,0,0,2.0126,2717.58,1998.81)" d="M31.5,-8.1 C29.7,-11.4 25.9,-13.2 21.3,-13.2 C17.9,-13.2 14.2,-12.2 10.6,-10.3 C4,-6.8 0,-0.9 0,4.2 C0,5.6 0.3,7 1,8.3 C2.8,11.6 6.6,13.3 11.2,13.3 C14.6,13.3 18.3,12.4 21.9,10.5 C28.5,7 32.5,1.1 32.5,-4 C32.5,-5.4 32.2,-6.8 31.5,-8.1"/>
<path class="Note" transform="matrix(2.0126,0,0,2.0126,2817.65,1973.66)" d="M31.5,-8.1 C29.7,-11.4 25.9,-13.2 21.3,-13.2 C17.9,-13.2 14.2,-12.2 10.6,-10.3 C4,-6.8 0,-0.9 0,4.2 C0,5.6 0.3,7 1,8.3 C2.8,11.6 6.6,13.3 11.2,13.3 C14.6,13.3 18.3,12.4 21.9,10.5 C28.5,7 32.5,1.1 32.5,-4 C32.5,-5.4 32.2,-6.8 31.5,-8.1"/>
<path class="Note" transform="matrix(2.0126,0,0,2.0126,2917.72,1998.81)" d="M31.5,-8.1 C29.7,-11.4 25.9,-13.2 21.3,-13.2 C17.9,-13.2 14.2,-12.2 10.6,-10.3 C4,-6.8 0,-0.9 0,4.2 C0,5.6 0.3,7 1,8.3 C2.8,11.6 6.6,13.3 11.2,13.3 C14.6,13.3 18.3,12.4 21.9,10.5 C28.5,7 32.5,1.1 32.5,-4 C32.5,-5.4 32.2,-6.8 31.5,-8.1"/>
<path class="Note" transform="matrix(2.0126,0,0,2.0126,3017.79,2023.97)" d="M31.5,-8.1 C29.7,-11.4 25.9,-13.2 21.3,-13.2 C17.9,-13.2 14.2,-12.2 10.6,-10.3 C4,-6.8 0,-0.9 0,4.2 C0,5.6 0.3,7 1,8.3 C2.8,11.6 6.6,13.3 11.2,13.3 C14.6,13.3 18.3,12.4 21.9,10.5 C28.5,7 32.5,1.1 32.5,-4 C32.5,-5.4 32.2,-6.8 31.5,-8.1"/>
<path class="Note" transform="matrix(2.0126,0,0,2.0126,3117.87,1973.66)" d="M31.5,-8.1 C29.7,-11.4 25.9,-13.2 21.3,-13.2 C17.9,-13.2 14.2,-12.2 10.6,-10.3 C4,-6.8 0,-0.9 0,4.2 C0,5.6 0.3,7 1,8.3 C2.8,11.6 6.6,13.3 11.2,13.3 C14.6,13.3 18.3,12.4 21.9,10.5 C28.5,7 32.5,1.1 32.5,-4 C32.5,-5.4 32.2,-6.8 31.5,-8.1"/>
<path class="Note" transform="matrix(2.0126,0,0,2.0126,3333.2,1973.66)" d="M31.5,-8.1 C29.7,-11.4 25.9,-13.2 21.3,-13.2 C17.9,-13.2 14.2,-12.2 10.6,-10.3 C4,-6.8 0,-0.9 0,4.2 C0,5.6 0.3,7 1,8.3 C2.8,11.6 6.6,13.3 11.2,13.3 C14.6,13.3 18.3,12.4 21.9,10.5 C28.5,7 32.5,1.1 32.5,-4 C32.5,-5.4 32.2,-6.8 31.5,-8.1"/>
<path class="Note" transform="matrix(2.0126,0,0,2.0126,3425.62,1998.81)" d="M31.5,-8.1 C29.7,-11.4 25.9,-13.2 21.3,-13.2 C17.9,-13.2 14.2,-12.2 10.6,-10.3 C4,-6.8 0,-0.9 0,4.2 C0,5.6 0.3,7 1,8.3 C2.8,11.6 6.6,13.3 11.2,13.3 C14.6,13.3 18.3,12.4 21.9,10.5 C28.5,7 32.5,1.1 32.5,-4 C32.5,-5.4 32.2,-6.8 31.5,-8.1"/>
<path class="Note" transform="matrix(2.0126,0,0,2.0126,3758.32,1998.81)" d="M31.5,-8.1 C29.7,-11.4 25.9,-13.2 21.3,-13.2 C17.9,-13.2 14.2,-12.2 10.6,-10.3 C4,-6.8 0,-0.9 0,4.2 C0,5.6 0.3,7 1,8.3 C2.8,11.6 6.6,13.3 11.2,13.3 C14.6,13.3 18.3,12.4 21.9,10.5 C28.5,7 32.5,1.1 32.5,-4 C32.5,-5.4 32.2,-6.8 31.5,-8.1"/>
<path class="Note" transform="matrix(2.0126,0,0,2.0126,3850.74,1998.81)" d="M31.5,-8.1 C29.7,-11.4 25.9,-13.2 21.3,-13.2 C17.9,-13.2 14.2,-12.2 10.6,-10.3 C4,-6.8 0,-0.9 0,4.2 C0,5.6 0.3,7 1,8.3 C2.8,11.6 6.6,13.3 11.2,13.3 C14.6,13.3 18.3,12.4 21.9,10.5 C28.5,7 32.5,1.1 32.5,-4 C32.5,-5.4 32.2,-6.8 31.5,-8.1"/>
<path class="Note" transform="matrix(2.0126,0,0,2.0126,3943.15,2023.97)" d="M31.5,-8.1 C29.7,-11.4 25.9,-13.2 21.3,-13.2 C17.9,-13.2 14.2,-12.2 10.6,-10.3 C4,-6.8 0,-0.9 0,4.2 C0,5.6 0.3,7 1,8.3 C2.8,11.6 6.6,13.3 11.2,13.3 C14.6,13.3 18.3,12.4 21.9,10.5 C28.5,7 32.5,1.1 32.5,-4 C32.5,-5.4 32.2,-6.8 31.5,-8.1"/>
<path class="Clef" transform="matrix(2.0126,0,0,2.0126,111.118,574.016)" d="M63.35,-5.86992 C62.12,-11.3 59.48,-15.1199 58.7,-16.16 C55.51,-20.43 51.5,-23.28 46.81,-24.63 C43.7,-25.5199 40.7,-25.63 38.28,-25.45 C37.24,-31.46 36.24,-37.3399 35.33,-42.7899 C40.78,-48.96 44.4,-54.76 46.68,-59.06 C50.15,-65.6399 51.3,-70.2199 51.35,-70.4199 C53.07,-75.63 53.43,-83.33 52.33,-91.5399 C51.32,-99.0899 49.23,-105.8 46.88,-109.05 C45.85,-110.48 44.8,-111.21 43.76,-111.21 C42.54,-111.21 40.03,-109.97 37.14,-107.2 C34.84,-105 31.57,-101.11 29.01,-95.1 C26.01,-88.0399 25.8,-78.55 26.15,-71.83 C26.53,-64.56 27.64,-58.8699 27.65,-58.8199 C27.67,-58.73 27.93,-57.23 28.38,-54.66 C28.15,-54.43 27.91,-54.21 27.66,-53.9699 C26.62,-52.9699 25.43,-51.83 24.05,-50.45 C23.19,-49.5899 22.24,-48.68 21.24,-47.71 C12.79,-39.5699 0,-27.25 0,-8.1 C0,-3.4 0.9,1.02002 2.67998,5.03008 C4.27002,8.63008 6.57002,11.9101 9.5,14.7801 C17.23,22.3301 27.82,25.54 34.88,25.3801 C37.83,25.3101 40.46,25.07 42.85,24.62 C44.68,34.22 45.82,41.25 45.86,46.59 C45.9,53.1 44.25,57.07 40.35,59.84 C37.92,61.57 35.11,62.52 32.01,62.67 C29.42,62.79 27.16,62.32 25.73,61.9101 L25.72,61.9101 C25.72,61.9101 25.43,61.8301 25.42,61.6301 C25.41,61.45 25.76,61.4 25.77,61.4 L25.79,61.4 C27.71,60.9601 31.28,59.7301 33.64,56.4301 C35.44,53.9101 36.31,49.29 34.47,45.35 C33.36,42.9601 30.85,40.0101 25.23,39.5601 C22.74,39.3601 20.47,39.87 18.47,41.07 C16.66,42.15 15.16,43.79 14.11,45.79 C11.65,50.49 12.11,56.22 15.24,60.0601 C18.2,63.6801 22.82,65.99 28.25,66.57 C29.1,66.6601 29.95,66.7 30.8,66.7 C35.23,66.7 39.63,65.5 43.2,63.29 C46.86,60.72 48.98,56.74 49.66,51.1101 C50.22,46.47 49.83,40.5601 48.43,32.49 C48.07,30.4 47.53,27.37 46.87,23.6101 C52.62,21.69 56.78,18.12 60.55,12.27 C63.84,6.53008 64.78,0.430078 63.35,-5.86992 M29.14,20.32 C24.5,19.1 20.07,16.6 16.31,13.1 C15,11.87 13.13,9.7 11.66,6.31006 C10.29,3.15 9.62998,-0.27998 9.67998,-3.86992 C9.75,-8.55996 11.06,-13.38 13.57,-18.1699 C16.49,-23.75 21.05,-29.28 27.11,-34.61 C28.56,-35.8899 29.93,-37.1699 31.22,-38.45 C31.98,-34.1899 32.81,-29.5 33.69,-24.6199 C29.84,-23.35 25.09,-20.2 21.98,-14.55 C18.44,-7.97998 18.58,-2.45996 19.31,1.02002 C20.25,5.48008 22.78,9.24004 26.24,11.3301 C27.17,11.89 31.3,14.02 33.14,13.44 C33.51,13.32 33.78,13.1 33.92,12.77 C34.43,11.6 33.41,10.9601 31.85,10 C31.25,9.63008 30.58,9.21006 29.85,8.68008 C26.53,6.19004 25.08,1.74004 26.15,-2.63994 C26.73,-5.03994 28.01,-7.2 29.85,-8.9 C31.52,-10.45 33.56,-11.55 35.94,-12.1899 C37.98,-0.95 40.04,10.2 41.68,18.5601 C41.81,19.25 41.95,19.92 42.08,20.59 C37.7,21.52 33.35,21.4301 29.14,20.32 M40.46,-12.86 C50.81,-13.33 55.08,-5.88994 55.97,-1.05996 C56.44,1.47002 56.43,5.91006 54.89,10.12 C53.72,13.3 51.26,17.37 46.13,19.4301 C46.06,19.0101 45.98,18.5801 45.9,18.15 C44.36,9.38008 42.42,-1.60996 40.46,-12.86 M33.14,-83.8 C34.92,-89.5399 37.66,-92.7899 39.65,-94.5199 C41.4,-96.0399 43.05,-96.75 43.97,-96.75 C44.11,-96.75 44.23,-96.73 44.33,-96.7 C44.79,-96.56 45.32,-95.9899 45.79,-95.1199 C48.1,-90.83 47.36,-84.1199 46.02,-79.68 C44.39,-74.28 41.47,-68.66 32.67,-59.05 C32.5,-60.16 32.34,-61.21 32.19,-62.1899 C30.94,-70.48 31.26,-77.75 33.14,-83.8"/>
<path class="Clef" transform="matrix(2.0126,0,0,2.0126,111.118,1324.15)" d="M63.35,-5.86992 C62.12,-11.3 59.48,-15.1199 58.7,-16.16 C55.51,-20.43 51.5,-23.28 46.81,-24.63 C43.7,-25.5199 40.7,-25.63 38.28,-25.45 C37.24,-31.46 36.24,-37.3399 35.33,-42.7899 C40.78,-48.96 44.4,-54.76 46.68,-59.06 C50.15,-65.6399 51.3,-70.2199 51.35,-70.4199 C53.07,-75.63 53.43,-83.33 52.33,-91.5399 C51.32,-99.0899 49.23,-105.8 46.88,-109.05 C45.85,-110.48 44.8,-111.21 43.76,-111.21 C42.54,-111.21 40.03,-109.97 37.14,-107.2 C34.84,-105 31.57,-101.11 29.01,-95.1 C26.01,-88.0399 25.8,-78.55 26.15,-71.83 C26.53,-64.56 27.64,-58.8699 27.65,-58.8199 C27.67,-58.73 27.93,-57.23 28.38,-54.66 C28.15,-54.43 27.91,-54.21 27.66,-53.9699 C26.62,-52.9699 25.43,-51.83 24.05,-50.45 C23.19,-49.5899 22.24,-48.68 21.24,-47.71 C12.79,-39.5699 0,-27.25 0,-8.1 C0,-3.4 0.9,1.02002 2.67998,5.03008 C4.27002,8.63008 6.57002,11.9101 9.5,14.7801 C17.23,22.3301 27.82,25.54 34.88,25.3801 C37.83,25.3101 40.46,25.07 42.85,24.62 C44.68,34.22 45.82,41.25 45.86,46.59 C45.9,53.1 44.25,57.07 40.35,59.84 C37.92,61.57 35.11,62.52 32.01,62.67 C29.42,62.79 27.16,62.32 25.73,61.9101 L25.72,61.9101 C25.72,61.9101 25.43,61.8301 25.42,61.6301 C25.41,61.45 25.76,61.4 25.77,61.4 L25.79,61.4 C27.71,60.9601 31.28,59.7301 33.64,56.4301 C35.44,53.9101 36.31,49.29 34.47,45.35 C33.36,42.9601 30.85,40.0101 25.23,39.5601 C22.74,39.3601 20.47,39.87 18.47,41.07 C16.66,42.15 15.16,43.79 14.11,45.79 C11.65,50.49 12.11,56.22 15.24,60.0601 C18.2,63.6801 22.82,65.99 28.25,66.57 C29.1,66.6601 29.95,66.7 30.8,66.7 C35.23,66.7 39.63,65.5 43.2,63.29 C46.86,60.72 48.98,56.74 49.66,51.1101 C50.22,46.47 49.83,40.5601 48.43,32.49 C48.07,30.4 47.53,27.37 46.87,23.6101 C52.62,21.69 56.78,18.12 60.55,12.27 C63.84,6.53008 64.78,0.430078 63.35,-5.86992 M29.14,20.32 C24.5,19.1 20.07,16.6 16.31,13.1 C15,11.87 13.13,9.7 11.66,6.31006 C10.29,3.15 9.62998,-0.27998 9.67998,-3.86992 C9.75,-8.55996 11.06,-13.38 13.57,-18.1699 C16.49,-23.75 21.05,-29.28 27.11,-34.61 C28.56,-35.8899 29.93,-37.1699 31.22,-38.45 C31.98,-34.1899 32.81,-29.5 33.69,-24.6199 C29.84,-23.35 25.09,-20.2 21.98,-14.55 C18.44,-7.97998 18.58,-2.45996 19.31,1.02002 C20.25,5.48008 22.78,9.24004 26.24,11.3301 C27.17,11.89 31.3,14.02 33.14,13.44 C33.51,13.32 33.78,13.1 33.92,12.77 C34.43,11.6 33.41,10.9601 31.85,10 C31.25,9.63008 30.58,9.21006 29.85,8.68008 C26.53,6.19004 25.08,1.74004 26.15,-2.63994 C26.73,-5.03994 28.01,-7.2 29.85,-8.9 C31.52,-10.45 33.56,-11.55 35.94,-12.1899 C37.98,-0.95 40.04,10.2 41.68,18.5601 C41.81,19.25 41.95,19.92 42.08,20.59 C37.7,21.52 33.35,21.4301 29.14,20.32 M40.46,-12.86 C50.81,-13.33 55.08,-5.88994 55.97,-1.05996 C56.44,1.47002 56.43,5.91006 54.89,10.12 C53.72,13.3 51.26,17.37 46.13,19.4301 C46.06,19.0101 45.98,18.5801 45.9,18.15 C44.36,9.38008 42.42,-1.60996 40.46,-12.86 M33.14,-83.8 C34.92,-89.5399 37.66,-92.7899 39.65,-94.5199 C41.4,-96.0399 43.05,-96.75 43.97,-96.75 C44.11,-96.75 44.23,-96.73 44.33,-96.7 C44.79,-96.56 45.32,-95.9899 45.79,-95.1199 C48.1,-90.83 47.36,-84.1199 46.02,-79.68 C44.39,-74.28 41.47,-68.66 32.67,-59.05 C32.5,-60.16 32.34,-61.21 32.19,-62.1899 C30.94,-70.48 31.26,-77.75 33.14,-83.8"/>
<path class="Clef" transform="matrix(2.0126,0,0,2.0126,111.118,2074.29)" d="M63.35,-5.86992 C62.12,-11.3 59.48,-15.1199 58.7,-16.16 C55.51,-20.43 51.5,-23.28 46.81,-24.63 C43.7,-25.5199 40.7,-25.63 38.28,-25.45 C37.24,-31.46 36.24,-37.3399 35.33,-42.7899 C40.78,-48.96 44.4,-54.76 46.68,-59.06 C50.15,-65.6399 51.3,-70.2199 51.35,-70.4199 C53.07,-75.63 53.43,-83.33 52.33,-91.5399 C51.32,-99.0899 49.23,-105.8 46.88,-109.05 C45.85,-110.48 44.8,-111.21 43.76,-111.21 C42.54,-111.21 40.03,-109.97 37.14,-107.2 C34.84,-105 31.57,-101.11 29.01,-95.1 C26.01,-88.0399 25.8,-78.55 26.15,-71.83 C26.53,-64.56 27.64,-58.8699 27.65,-58.8199 C27.67,-58.73 27.93,-57.23 28.38,-54.66 C28.15,-54.43 27.91,-54.21 27.66,-53.9699 C26.62,-52.9699 25.43,-51.83 24.05,-50.45 C23.19,-49.5899 22.24,-48.68 21.24,-47.71 C12.79,-39.5699 0,-27.25 0,-8.1 C0,-3.4 0.9,1.02002 2.67998,5.03008 C4.27002,8.63008 6.57002,11.9101 9.5,14.7801 C17.23,22.3301 27.82,25.54 34.88,25.3801 C37.83,25.3101 40.46,25.07 42.85,24.62 C44.68,34.22 45.82,41.25 45.86,46.59 C45.9,53.1 44.25,57.07 40.35,59.84 C37.92,61.57 35.11,62.52 32.01,62.67 C29.42,62.79 27.16,62.32 25.73,61.9101 L25.72,61.9101 C25.72,61.9101 25.43,61.8301 25.42,61.6301 C25.41,61.45 25.76,61.4 25.77,61.4 L25.79,61.4 C27.71,60.9601 31.28,59.7301 33.64,56.4301 C35.44,53.9101 36.31,49.29 34.47,45.35 C33.36,42.9601 30.85,40.0101 25.23,39.5601 C22.74,39.3601 20.47,39.87 18.47,41.07 C16.66,42.15 15.16,43.79 14.11,45.79 C11.65,50.49 12.11,56.22 15.24,60.0601 C18.2,63.6801 22.82,65.99 28.25,66.57 C29.1,66.6601 29.95,66.7 30.8,66.7 C35.23,66.7 39.63,65.5 43.2,63.29 C46.86,60.72 48.98,56.74 49.66,51.1101 C50.22,46.47 49.83,40.5601 48.43,32.49 C48.07,30.4 47.53,27.37 46.87,23.6101 C52.62,21.69 56.78,18.12 60.55,12.27 C63.84,6.53008 64.78,0.430078 63.35,-5.86992 M29.14,20.32 C24.5,19.1 20.07,16.6 16.31,13.1 C15,11.87 13.13,9.7 11.66,6.31006 C10.29,3.15 9.62998,-0.27998 9.67998,-3.86992 C9.75,-8.55996 11.06,-13.38 13.57,-18.1699 C16.49,-23.75 21.05,-29.28 27.11,-34.61 C28.56,-35.8899 29.93,-37.1699 31.22,-38.45 C31.98,-34.1899 32.81,-29.5 33.69,-24.6199 C29.84,-23.35 25.09,-20.2 21.98,-14.55 C18.44,-7.97998 18.58,-2.45996 19.31,1.02002 C20.25,5.48008 22.78,9.24004 26.24,11.3301 C27.17,11.89 31.3,14.02 33.14,13.44 C33.51,13.32 33.78,13.1 33.92,12.77 C34.43,11.6 33.41,10.9601 31.85,10 C31.25,9.63008 30.58,9.21006 29.85,8.68008 C26.53,6.19004 25.08,1.74004 26.15,-2.63994 C26.73,-5.03994 28.01,-7.2 29.85,-8.9 C31.52,-10.45 33.56,-11.55 35.94,-12.1899 C37.98,-0.95 40.04,10.2 41.68,18.5601 C41.81,19.25 41.95,19.92 42.08,20.59 C37.7,21.52 33.35,21.4301 29.14,20.32 M40.46,-12.86 C50.81,-13.33 55.08,-5.88994 55.97,-1.05996 C56.44,1.47002 56.43,5.91006 54.89,10.12 C53.72,13.3 51.26,17.37 46.13,19.4301 C46.06,19.0101 45.98,18.5801 45.9,18.15 C44.36,9.38008 42.42,-1.60996 40.46,-12.86 M33.14,-83.8 C34.92,-89.5399 37.66,-92.7899 39.65,-94.5199 C41.4,-96.0399 43.05,-96.75 43.97,-96.75 C44.11,-96.75 44.23,-96.73 44.33,-96.7 C44.79,-96.56 45.32,-95.9899 45.79,-95.1199 C48.1,-90.83 47.36,-84.1199 46.02,-79.68 C44.39,-74.28 41.47,-68.66 32.67,-59.05 C32.5,-60.16 32.34,-61.21 32.19,-62.1899 C30.94,-70.48 31.26,-77.75 33.14,-83.8"/>
<path class="TimeSig" transform="matrix(2.0126,0,0,2.0126,287.44,473.653)" d="M3.59004,12.65 L20.77,12.65 L20.77,20.07 L12.54,20.07 C11.7601,20.07 11.1301,20.7 11.1301,21.48 L11.1301,23.39 C11.1301,24.17 11.7601,24.8 12.54,24.8 L42.79,24.8 C43.57,24.8 44.2,24.17 44.2,23.39 L44.2,21.48 C44.2,20.7 43.57,20.07 42.79,20.07 L33.85,20.07 L33.85,12.65 L42.79,12.65 C43.57,12.65 44.2,12.02 44.2,11.24 L44.2,9.32998 C44.2,8.55 43.57,7.92002 42.79,7.92002 L33.85,7.92002 L33.85,-8.04004 C33.85,-8.57998 33.55,-9.05996 33.07,-9.3 L31.8601,-9.9 C31.3301,-10.16 30.7,-10.07 30.27,-9.67002 L21.22,-1.35 C20.9301,-1.07998 20.7601,-0.709961 20.7601,-0.309961 L20.7601,7.92002 L9.25,7.92002 C9.25,7.92002 20.37,-4.10996 32.2101,-19.88 C33.0801,-21.03 32.5801,-22.08 32.39,-22.27 L30.22,-24.48 C29.95,-24.74 29.59,-24.89 29.22,-24.89 C28.62,-24.89 15.07,-24.87 14.35,-24.89 C13.6301,-24.91 13.09,-24.29 13.02,-23.67 C13.02,-23.67 12.4801,-16.31 9.88008,-8.17998 C7.28008,-0.0599609 4.34004,4.92002 1.68008,8.55 C1.68008,8.55 1.14004,9.54004 1.5,10.28 C1.85,11.03 2.48008,12.12 2.48008,12.12 C2.48008,12.12 2.74004,12.65 3.59004,12.65"/>
<path class="TimeSig" transform="matrix(2.0126,0,0,2.0126,287.44,573.748)" d="M3.59004,12.65 L20.77,12.65 L20.77,20.07 L12.54,20.07 C11.7601,20.07 11.1301,20.7 11.1301,21.48 L11.1301,23.39 C11.1301,24.17 11.7601,24.8 12.54,24.8 L42.79,24.8 C43.57,24.8 44.2,24.17 44.2,23.39 L44.2,21.48 C44.2,20.7 43.57,20.07 42.79,20.07 L33.85,20.07 L33.85,12.65 L42.79,12.65 C43.57,12.65 44.2,12.02 44.2,11.24 L44.2,9.32998 C44.2,8.55 43.57,7.92002 42.79,7.92002 L33.85,7.92002 L33.85,-8.04004 C33.85,-8.57998 33.55,-9.05996 33.07,-9.3 L31.8601,-9.9 C31.3301,-10.16 30.7,-10.07 30.27,-9.67002 L21.22,-1.35 C20.9301,-1.07998 20.7601,-0.709961 20.7601,-0.309961 L20.7601,7.92002 L9.25,7.92002 C9.25,7.92002 20.37,-4.10996 32.2101,-19.88 C33.0801,-21.03 32.5801,-22.08 32.39,-22.27 L30.22,-24.48 C29.95,-24.74 29.59,-24.89 29.22,-24.89 C28.62,-24.89 15.07,-24.87 14.35,-24.89 C13.6301,-24.91 13.09,-24.29 13.02,-23.67 C13.02,-23.67 12.4801,-16.31 9.88008,-8.17998 C7.28008,-0.0599609 4.34004,4.92002 1.68008,8.55 C1.68008,8.55 1.14004,9.54004 1.5,10.28 C1.85,11.03 2.48008,12.12 2.48008,12.12 C2.48008,12.12 2.74004,12.65 3.59004,12.65"/>
<path class="Rest" transform="matrix(2.0126,0,0,2.0126,477.018,523.701)" d="M0,-11.8 L0,-1 C0,0.4 0,0.4 1.4,0.4 L31.1,0.4 C32.5,0.4 32.5,0.4 32.5,-1 L32.5,-11.8 C32.5,-13.2 32.5,-13.2 31.1,-13.2 L1.4,-13.2 C0,-13.2 0,-13.2 0,-11.8"/>
<path class="Rest" transform="matrix(2.0126,0,0,2.0126,649.274,523.701)" d="M26.73,-20.26 C25.9899,-20.5399 25.31,-20.21 24.98,-19.6 C24.65,-18.9899 21.4699,-13.06 17.0399,-9.8 C15.65,-8.77998 14.0699,-8.13994 12.5,-7.80996 C13.6199,-9.06992 14.3,-10.73 14.3,-12.55 C14.3,-16.5 11.1,-19.7 7.15,-19.7 C3.2,-19.7 0,-16.5 0,-12.55 C0,-9.53994 1.86992,-6.95996 4.50996,-5.90996 C6.03994,-5.17998 7.95,-4.73994 10,-4.73994 C12.85,-4.73994 15.96,-5.56992 18.6699,-7.55996 C19.93,-8.48994 21.13,-9.67998 22.21,-10.9399 L10.8199,24.69 L13.46,25.54 L27.53,-18.55 C27.76,-19.28 27.4699,-19.9699 26.73,-20.26"/>
<path class="Rest" transform="matrix(2.0126,0,0,2.0126,1269.05,523.701)" d="M23.2,16.9 L23,16.6 C22.9,16.5 22.7,16.3 22.4,15.9 L10.9,1.7 C10.6,1.4 10.7,0.6 10.9,0.2 L21.1,-15.2 C21.2,-15.4 21.3,-15.7 21.3,-15.9 L21.3,-16.8 C21.3,-17.1 21.2,-17.4 21,-17.6 L4.8,-39.5 C4.8,-39.5 4,-40.7 3,-39.8 C2,-39 2.8,-37.7 2.8,-37.7 L10.4,-27.3 C10.8,-26.7 10.8,-25.5 10.4,-24.9 L0.3,-9.5 C0.2,-9.3 0.1,-8.9 0.1,-8.7 L0.1,-7.8 C0.1,-7.5 0.2,-7.2 0.4,-7 L11.6,6.9 C11.2,6.8 10.3,6.6 9.1,6.6 C7.4,6.6 5.2,7 3.4,8.6 C1.2,10.6 0,13.4 0,15.9 C0,17.3 0.3,18.7 1.1,19.8 C3.2,23 10.7,32.5 10.7,32.5 C10.7,32.5 11.6,33.6 12.5,32.9 C13.4,32.2 13.2,31.3 12.9,30.8 C12.6,30.3 9.4,24.5 9.4,24.5 C9.4,24.5 8.7,23.1 8.7,21.3 C8.7,20 9.1,18.4 10.4,17.1 C11.6,15.9 13,15.5 14.3,15.5 C15.6,15.5 16.7,15.9 17.5,16.4 L21.4,18.9 C21.4,18.9 22.6,19.5 23.2,18.6 C23.7,17.8 23.5,17.4 23.2,16.9"/>
<path class="Rest" transform="matrix(2.0126,0,0,2.0126,1500.78,523.701)" d="M26.73,-20.26 C25.9899,-20.5399 25.31,-20.21 24.98,-19.6 C24.65,-18.9899 21.4699,-13.06 17.0399,-9.8 C15.65,-8.77998 14.0699,-8.13994 12.5,-7.80996 C13.6199,-9.06992 14.3,-10.73 14.3,-12.55 C14.3,-16.5 11.1,-19.7 7.15,-19.7 C3.2,-19.7 0,-16.5 0,-12.55 C0,-9.53994 1.86992,-6.95996 4.50996,-5.90996 C6.03994,-5.17998 7.95,-4.73994 10,-4.73994 C12.85,-4.73994 15.96,-5.56992 18.6699,-7.55996 C19.93,-8.48994 21.13,-9.67998 22.21,-10.9399 L10.8199,24.69 L13.46,25.54 L27.53,-18.55 C27.76,-19.28 27.4699,-19.9699 26.73,-20.26"/>
<path class="Rest" transform="matrix(2.0126,0,0,2.0126,2072.19,523.701)" d="M26.73,-20.26 C25.9899,-20.5399 25.31,-20.21 24.98,-19.6 C24.65,-18.9899 21.4699,-13.06 17.0399,-9.8 C15.65,-8.77998 14.0699,-8.13994 12.5,-7.80996 C13.6199,-9.06992 14.3,-10.73 14.3,-12.55 C14.3,-16.5 11.1,-19.7 7.15,-19.7 C3.2,-19.7 0,-16.5 0,-12.55 C0,-9.53994 1.86992,-6.95996 4.50996,-5.90996 C6.03994,-5.17998 7.95,-4.73994 10,-4.73994 C12.85,-4.73994 15.96,-5.56992 18.6699,-7.55996 C19.93,-8.48994 21.13,-9.67998 22.21,-10.9399 L10.8199,24.69 L13.46,25.54 L27.53,-18.55 C27.76,-19.28 27.4699,-19.9699 26.73,-20.26"/>
<path class="Rest" transform="matrix(2.0126,0,0,2.0126,2338.26,523.701)" d="M23.2,16.9 L23,16.6 C22.9,16.5 22.7,16.3 22.4,15.9 L10.9,1.7 C10.6,1.4 10.7,0.6 10.9,0.2 L21.1,-15.2 C21.2,-15.4 21.3,-15.7 21.3,-15.9 L21.3,-16.8 C21.3,-17.1 21.2,-17.4 21,-17.6 L4.8,-39.5 C4.8,-39.5 4,-40.7 3,-39.8 C2,-39 2.8,-37.7 2.8,-37.7 L10.4,-27.3 C10.8,-26.7 10.8,-25.5 10.4,-24.9 L0.3,-9.5 C0.2,-9.3 0.1,-8.9 0.1,-8.7 L0.1,-7.8 C0.1,-7.5 0.2,-7.2 0.4,-7 L11.6,6.9 C11.2,6.8 10.3,6.6 9.1,6.6 C7.4,6.6 5.2,7 3.4,8.6 C1.2,10.6 0,13.4 0,15.9 C0,17.3 0.3,18.7 1.1,19.8 C3.2,23 10.7,32.5 10.7,32.5 C10.7,32.5 11.6,33.6 12.5,32.9 C13.4,32.2 13.2,31.3 12.9,30.8 C12.6,30.3 9.4,24.5 9.4,24.5 C9.4,24.5 8.7,23.1 8.7,21.3 C8.7,20 9.1,18.4 10.4,17.1 C11.6,15.9 13,15.5 14.3,15.5 C15.6,15.5 16.7,15.9 17.5,16.4 L21.4,18.9 C21.4,18.9 22.6,19.5 23.2,18.6 C23.7,17.8 23.5,17.4 23.2,16.9"/>
<path class="Rest" transform="matrix(2.0126,0,0,2.0126,3497.27,523.701)" d="M23.2,16.9 L23,16.6 C22.9,16.5 22.7,16.3 22.4,15.9 L10.9,1.7 C10.6,1.4 10.7,0.6 10.9,0.2 L21.1,-15.2 C21.2,-15.4 21.3,-15.7 21.3,-15.9 L21.3,-16.8 C21.3,-17.1 21.2,-17.4 21,-17.6 L4.8,-39.5 C4.8,-39.5 4,-40.7 3,-39.8 C2,-39 2.8,-37.7 2.8,-37.7 L10.4,-27.3 C10.8,-26.7 10.8,-25.5 10.4,-24.9 L0.3,-9.5 C0.2,-9.3 0.1,-8.9 0.1,-8.7 L0.1,-7.8 C0.1,-7.5 0.2,-7.2 0.4,-7 L11.6,6.9 C11.2,6.8 10.3,6.6 9.1,6.6 C7.4,6.6 5.2,7 3.4,8.6 C1.2,10.6 0,13.4 0,15.9 C0,17.3 0.3,18.7 1.1,19.8 C3.2,23 10.7,32.5 10.7,32.5 C10.7,32.5 11.6,33.6 12.5,32.9 C13.4,32.2 13.2,31.3 12.9,30.8 C12.6,30.3 9.4,24.5 9.4,24.5 C9.4,24.5 8.7,23.1 8.7,21.3 C8.7,20 9.1,18.4 10.4,17.1 C11.6,15.9 13,15.5 14.3,15.5 C15.6,15.5 16.7,15.9 17.5,16.4 L21.4,18.9 C21.4,18.9 22.6,19.5 23.2,18.6 C23.7,17.8 23.5,17.4 23.2,16.9"/>
<path class="Rest" transform="matrix(2.0126,0,0,2.0126,3639.88,523.701)" d="M26.73,-20.26 C25.9899,-20.5399 25.31,-20.21 24.98,-19.6 C24.65,-18.9899 21.4699,-13.06 17.0399,-9.8 C15.65,-8.77998 14.0699,-8.13994 12.5,-7.80996 C13.6199,-9.06992 14.3,-10.73 14.3,-12.55 C14.3,-16.5 11.1,-19.7 7.15,-19.7 C3.2,-19.7 0,-16.5 0,-12.55 C0,-9.53994 1.86992,-6.95996 4.50996,-5.90996 C6.03994,-5.17998 7.95,-4.73994 10,-4.73994 C12.85,-4.73994 15.96,-5.56992 18.6699,-7.55996 C19.93,-8.48994 21.13,-9.67998 22.21,-10.9399 L10.8199,24.69 L13.46,25.54 L27.53,-18.55 C27.76,-19.28 27.4699,-19.9699 26.73,-20.26"/>
<path class="Rest" transform="matrix(2.0126,0,0,2.0126,1266.96,1273.84)" d="M26.73,-20.26 C25.9899,-20.5399 25.31,-20.21 24.98,-19.6 C24.65,-18.9899 21.4699,-13.06 17.0399,-9.8 C15.65,-8.77998 14.0699,-8.13994 12.5,-7.80996 C13.6199,-9.06992 14.3,-10.73 14.3,-12.55 C14.3,-16.5 11.1,-19.7 7.15,-19.7 C3.2,-19.7 0,-16.5 0,-12.55 C0,-9.53994 1.86992,-6.95996 4.50996,-5.90996 C6.03994,-5.17998 7.95,-4.73994 10,-4.73994 C12.85,-4.73994 15.96,-5.56992 18.6699,-7.55996 C19.93,-8.48994 21.13,-9.67998 22.21,-10.9399 L10.8199,24.69 L13.46,25.54 L27.53,-18.55 C27.76,-19.28 27.4699,-19.9699 26.73,-20.26"/>
<path class="Rest" transform="matrix(2.0126,0,0,2.0126,2199.11,1273.84)" d="M26.73,-20.26 C25.9899,-20.5399 25.31,-20.21 24.98,-19.6 C24.65,-18.9899 21.4699,-13.06 17.0399,-9.8 C15.65,-8.77998 14.0699,-8.13994 12.5,-7.80996 C13.6199,-9.06992 14.3,-10.73 14.3,-12.55 C14.3,-16.5 11.1,-19.7 7.15,-19.7 C3.2,-19.7 0,-16.5 0,-12.55 C0,-9.53994 1.86992,-6.95996 4.50996,-5.90996 C6.03994,-5.17998 7.95,-4.73994 10,-4.73994 C12.85,-4.73994 15.96,-5.56992 18.6699,-7.55996 C19.93,-8.48994 21.13,-9.67998 22.21,-10.9399 L10.8199,24.69 L13.46,25.54 L27.53,-18.55 C27.76,-19.28 27.4699,-19.9699 26.73,-20.26"/>
<path class="Rest" transform="matrix(2.0126,0,0,2.0126,3201.06,1273.84)" d="M26.73,-20.26 C25.9899,-20.5399 25.31,-20.21 24.98,-19.6 C24.65,-18.9899 21.4699,-13.06 17.0399,-9.8 C15.65,-8.77998 14.0699,-8.13994 12.5,-7.80996 C13.6199,-9.06992 14.3,-10.73 14.3,-12.55 C14.3,-16.5 11.1,-19.7 7.15,-19.7 C3.2,-19.7 0,-16.5 0,-12.55 C0,-9.53994 1.86992,-6.95996 4.50996,-5.90996 C6.03994,-5.17998 7.95,-4.73994 10,-4.73994 C12.85,-4.73994 15.96,-5.56992 18.6699,-7.55996 C19.93,-8.48994 21.13,-9.67998 22.21,-10.9399 L10.8199,24.69 L13.46,25.54 L27.53,-18.55 C27.76,-19.28 27.4699,-19.9699 26.73,-20.26"/>
<path class="Rest" transform="matrix(2.0126,0,0,2.0126,365.68,2023.97)" d="M26.73,-20.26 C25.9899,-20.5399 25.31,-20.21 24.98,-19.6 C24.65,-18.9899 21.4699,-13.06 17.0399,-9.8 C15.65,-8.77998 14.0699,-8.13994 12.5,-7.80996 C13.6199,-9.06992 14.3,-10.73 14.3,-12.55 C14.3,-16.5 11.1,-19.7 7.15,-19.7 C3.2,-19.7 0,-16.5 0,-12.55 C0,-9.53994 1.86992,-6.95996 4.50996,-5.90996 C6.03994,-5.17998 7.95,-4.73994 10,-4.73994 C12.85,-4.73994 15.96,-5.56992 18.6699,-7.55996 C19.93,-8.48994 21.13,-9.67998 22.21,-10.9399 L10.8199,24.69 L13.46,25.54 L27.53,-18.55 C27.76,-19.28 27.4699,-19.9699 26.73,-20.26"/>
<path class="Rest" transform="matrix(2.0126,0,0,2.0126,1431.73,2023.97)" d="M26.73,-20.26 C25.9899,-20.5399 25.31,-20.21 24.98,-19.6 C24.65,-18.9899 21.4699,-13.06 17.0399,-9.8 C15.65,-8.77998 14.0699,-8.13994 12.5,-7.80996 C13.6199,-9.06992 14.3,-10.73 14.3,-12.55 C14.3,-16.5 11.1,-19.7 7.15,-19.7 C3.2,-19.7 0,-16.5 0,-12.55 C0,-9.53994 1.86992,-6.95996 4.50996,-5.90996 C6.03994,-5.17998 7.95,-4.73994 10,-4.73994 C12.85,-4.73994 15.96,-5.56992 18.6699,-7.55996 C19.93,-8.48994 21.13,-9.67998 22.21,-10.9399 L10.8199,24.69 L13.46,25.54 L27.53,-18.55 C27.76,-19.28 27.4699,-19.9699 26.73,-20.26"/>
<path class="Rest" transform="matrix(2.0126,0,0,2.0126,2417.36,2023.97)" d="M26.73,-20.26 C25.9899,-20.5399 25.31,-20.21 24.98,-19.6 C24.65,-18.9899 21.4699,-13.06 17.0399,-9.8 C15.65,-8.77998 14.0699,-8.13994 12.5,-7.80996 C13.6199,-9.06992 14.3,-10.73 14.3,-12.55 C14.3,-16.5 11.1,-19.7 7.15,-19.7 C3.2,-19.7 0,-16.5 0,-12.55 C0,-9.53994 1.86992,-6.95996 4.50996,-5.90996 C6.03994,-5.17998 7.95,-4.73994 10,-4.73994 C12.85,-4.73994 15.96,-5.56992 18.6699,-7.55996 C19.93,-8.48994 21.13,-9.67998 22.21,-10.9399 L10.8199,24.69 L13.46,25.54 L27.53,-18.55 C27.76,-19.28 27.4699,-19.9699 26.73,-20.26"/>
<path class="Rest" transform="matrix(2.0126,0,0,2.0126,3573.48,2023.97)" d="M26.73,-20.26 C25.9899,-20.5399 25.31,-20.21 24.98,-19.6 C24.65,-18.9899 21.4699,-13.06 17.0399,-9.8 C15.65,-8.77998 14.0699,-8.13994 12.5,-7.80996 C13.6199,-9.06992 14.3,-10.73 14.3,-12.55 C14.3,-16.5 11.1,-19.7 7.15,-19.7 C3.2,-19.7 0,-16.5 0,-12.55 C0,-9.53994 1.86992,-6.95996 4.50996,-5.90996 C6.03994,-5.17998 7.95,-4.73994 10,-4.73994 C12.85,-4.73994 15.96,-5.56992 18.6699,-7.55996 C19.93,-8.48994 21.13,-9.67998 22.21,-10.9399 L10.8199,24.69 L13.46,25.54 L27.53,-18.55 C27.76,-19.28 27.4699,-19.9699 26.73,-20.26"/>
<path class="Rest" transform="matrix(2.0126,0,0,2.0126,3665.9,2023.97)" d="M26.73,-20.26 C25.9899,-20.5399 25.31,-20.21 24.98,-19.6 C24.65,-18.9899 21.4699,-13.06 17.0399,-9.8 C15.65,-8.77998 14.0699,-8.13994 12.5,-7.80996 C13.6199,-9.06992 14.3,-10.73 14.3,-12.55 C14.3,-16.5 11.1,-19.7 7.15,-19.7 C3.2,-19.7 0,-16.5 0,-12.55 C0,-9.53994 1.86992,-6.95996 4.50996,-5.90996 C6.03994,-5.17998 7.95,-4.73994 10,-4.73994 C12.85,-4.73994 15.96,-5.56992 18.6699,-7.55996 C19.93,-8.48994 21.13,-9.67998 22.21,-10.9399 L10.8199,24.69 L13.46,25.54 L27.53,-18.55 C27.76,-19.28 27.4699,-19.9699 26.73,-20.26"/>
<path class="Beam" fill-rule="evenodd" d="M805.871,649.327 L889.704,662.795 L889.704,688.275 L805.871,674.807 L805.871,649.327 "/>
<path class="Beam" fill-rule="evenodd" d="M1679.04,699.803 L1989.04,699.803 L1989.04,724.96 L1679.04,724.96 L1679.04,699.803 "/>
<path class="Beam" fill-rule="evenodd" d="M2160.88,624.331 L2255.1,624.331 L2255.1,649.488 L2160.88,649.488 L2160.88,624.331 "/>
<path class="Beam" fill-rule="evenodd" d="M3088.09,424.235 L3169.08,397.233 L3169.08,423.751 L3088.09,450.754 L3088.09,424.235 "/>
<path class="Beam" fill-rule="evenodd" d="M3378.87,397.007 L3473.54,410.367 L3473.54,435.774 L3378.87,422.414 L3378.87,397.007 "/>
<path class="Beam" fill-rule="evenodd" d="M3818.13,649.363 L3912.8,662.723 L3912.8,688.13 L3818.13,674.77 L3818.13,649.363 "/>
<path class="Beam" fill-rule="evenodd" d="M940.311,1155.75 L1036.6,1209.14 L1036.6,1237.9 L940.311,1184.52 L940.311,1155.75 "/>
<path class="Beam" fill-rule="evenodd" d="M1471.76,1374.47 L1579.7,1374.47 L1579.7,1399.62 L1471.76,1399.62 L1471.76,1374.47 "/>
<path class="Beam" fill-rule="evenodd" d="M1676.57,1412.2 L1989.32,1412.2 L1989.32,1437.36 L1676.57,1437.36 L1676.57,1412.2 "/>
<path class="Beam" fill-rule="evenodd" d="M2501.42,1110.31 L2615.79,1110.31 L2615.79,1135.47 L2501.42,1135.47 L2501.42,1110.31 "/>
<path class="Beam" fill-rule="evenodd" d="M2719.09,1097.73 L3051.13,1097.73 L3051.13,1122.89 L2719.09,1122.89 L2719.09,1097.73 "/>
<path class="Beam" fill-rule="evenodd" d="M3503.37,1148.05 L3617.74,1148.05 L3617.74,1173.21 L3503.37,1173.21 L3503.37,1148.05 "/>
<path class="Beam" fill-rule="evenodd" d="M3721.04,1110.31 L4053.08,1110.31 L4053.08,1135.47 L3721.04,1135.47 L3721.04,1110.31 "/>
<path class="Beam" fill-rule="evenodd" d="M665.27,1910.76 L776.918,1910.76 L776.918,1935.92 L665.27,1935.92 L665.27,1910.76 "/>
<path class="Beam" fill-rule="evenodd" d="M877.497,1897.96 L1201.37,1910.75 L1201.37,1935.93 L877.497,1923.13 L877.497,1897.96 "/>
<path class="Beam" fill-rule="evenodd" d="M1731.32,1898.18 L1842.97,1898.18 L1842.97,1923.34 L1731.32,1923.34 L1731.32,1898.18 "/>
<path class="Beam" fill-rule="evenodd" d="M1943.55,1860.45 L2267.42,1860.45 L2267.42,1885.61 L1943.55,1885.61 L1943.55,1860.45 "/>
<path class="Beam" fill-rule="evenodd" d="M2617.5,2124.6 L2723.11,2124.6 L2723.11,2149.76 L2617.5,2149.76 L2617.5,2124.6 "/>
<path class="Beam" fill-rule="evenodd" d="M2817.65,2162.34 L3123.4,2162.34 L3123.4,2187.49 L2817.65,2187.49 L2817.65,2162.34 "/>
<path class="Beam" fill-rule="evenodd" d="M3850.74,2149.64 L3948.69,2162.97 L3948.69,2188.36 L3850.74,2175.03 L3850.74,2149.64 "/>
<path class="Hook" transform="matrix(2.0126,0,0,2.0126,727.572,674.646)" d="M2.5,0.4 C2.5,0.2 3.4,-3.2 3.5,-3.5 C3.6,-3.9 5.4,-9.6 9.1,-15.3 C11.8,-19.5 21.3,-31.8 21,-31.8 C21,-31.8 28.4,-41.3 28.9,-54.2 L28.9,-56.5 C28.9,-62.6 28.1,-71.2 24.6,-79.9 C24.2,-80.9 23.8,-81.9 22.7,-81.5 C21.6,-81.1 21.9,-79.9 22.2,-78.8 C24,-71.8 25,-64.6 25,-57.4 C25,-49 22,-44.8 20.2,-41.7 C13.6,-30.6 5,-25.2 0.8,-23.8 C0.3,-23.6 0,-23.2 0,-22.7 L0,-16.5 L0,-0.1 C0,0.6 0.6,1.2 1.3,1.2 C1.8,1.2 2.4,0.8 2.5,0.4"/>
<path class="Hook" transform="matrix(2.0126,0,0,2.0126,1179.92,649.488)" d="M2.5,0.4 C2.5,0.2 3.4,-3.2 3.5,-3.5 C3.6,-3.9 5.4,-9.6 9.1,-15.3 C11.8,-19.5 21.3,-31.8 21,-31.8 C21,-31.8 28.4,-41.3 28.9,-54.2 L28.9,-56.5 C28.9,-62.6 28.1,-71.2 24.6,-79.9 C24.2,-80.9 23.8,-81.9 22.7,-81.5 C21.6,-81.1 21.9,-79.9 22.2,-78.8 C24,-71.8 25,-64.6 25,-57.4 C25,-49 22,-44.8 20.2,-41.7 C13.6,-30.6 5,-25.2 0.8,-23.8 C0.3,-23.6 0,-23.2 0,-22.7 L0,-16.5 L0,-0.1 C0,0.6 0.6,1.2 1.3,1.2 C1.8,1.2 2.4,0.8 2.5,0.4"/>
<path class="Hook" transform="matrix(2.0126,0,0,2.0126,1411.66,649.488)" d="M2.5,0.4 C2.5,0.2 3.4,-3.2 3.5,-3.5 C3.6,-3.9 5.4,-9.6 9.1,-15.3 C11.8,-19.5 21.3,-31.8 21,-31.8 C21,-31.8 28.4,-41.3 28.9,-54.2 L28.9,-56.5 C28.9,-62.6 28.1,-71.2 24.6,-79.9 C24.2,-80.9 23.8,-81.9 22.7,-81.5 C21.6,-81.1 21.9,-79.9 22.2,-78.8 C24,-71.8 25,-64.6 25,-57.4 C25,-49 22,-44.8 20.2,-41.7 C13.6,-30.6 5,-25.2 0.8,-23.8 C0.3,-23.6 0,-23.2 0,-22.7 L0,-16.5 L0,-0.1 C0,0.6 0.6,1.2 1.3,1.2 C1.8,1.2 2.4,0.8 2.5,0.4"/>
<path class="Hook" transform="matrix(2.0126,0,0,2.0126,1589.91,699.803)" d="M2.5,0.4 C2.5,0.2 3.4,-3.2 3.5,-3.5 C3.6,-3.9 5.4,-9.6 9.1,-15.3 C11.8,-19.5 21.3,-31.8 21,-31.8 C21,-31.8 28.4,-41.3 28.9,-54.2 L28.9,-56.5 C28.9,-62.6 28.1,-71.2 24.6,-79.9 C24.2,-80.9 23.8,-81.9 22.7,-81.5 C21.6,-81.1 21.9,-79.9 22.2,-78.8 C24,-71.8 25,-64.6 25,-57.4 C25,-49 22,-44.8 20.2,-41.7 C13.6,-30.6 5,-25.2 0.8,-23.8 C0.3,-23.6 0,-23.2 0,-22.7 L0,-16.5 L0,-0.1 C0,0.6 0.6,1.2 1.3,1.2 C1.8,1.2 2.4,0.8 2.5,0.4"/>
<path class="Hook" transform="matrix(2.0126,0,0,2.0126,3729.01,674.646)" d="M2.5,0.4 C2.5,0.2 3.4,-3.2 3.5,-3.5 C3.6,-3.9 5.4,-9.6 9.1,-15.3 C11.8,-19.5 21.3,-31.8 21,-31.8 C21,-31.8 28.4,-41.3 28.9,-54.2 L28.9,-56.5 C28.9,-62.6 28.1,-71.2 24.6,-79.9 C24.2,-80.9 23.8,-81.9 22.7,-81.5 C21.6,-81.1 21.9,-79.9 22.2,-78.8 C24,-71.8 25,-64.6 25,-57.4 C25,-49 22,-44.8 20.2,-41.7 C13.6,-30.6 5,-25.2 0.8,-23.8 C0.3,-23.6 0,-23.2 0,-22.7 L0,-16.5 L0,-0.1 C0,0.6 0.6,1.2 1.3,1.2 C1.8,1.2 2.4,0.8 2.5,0.4"/>
<path class="Hook" transform="matrix(2.0126,0,0,2.0126,365.68,1449.94)" d="M2.5,0.4 C2.5,0.2 3.4,-3.2 3.5,-3.5 C3.6,-3.9 5.4,-9.6 9.1,-15.3 C11.8,-19.5 21.3,-31.8 21,-31.8 C21,-31.8 28.4,-41.3 28.9,-54.2 L28.9,-56.5 C28.9,-62.6 28.1,-71.2 24.6,-79.9 C24.2,-80.9 23.8,-81.9 22.7,-81.5 C21.6,-81.1 21.9,-79.9 22.2,-78.8 C24,-71.8 25,-64.6 25,-57.4 C25,-49 22,-44.8 20.2,-41.7 C13.6,-30.6 5,-25.2 0.8,-23.8 C0.3,-23.6 0,-23.2 0,-22.7 L0,-16.5 L0,-0.1 C0,0.6 0.6,1.2 1.3,1.2 C1.8,1.2 2.4,0.8 2.5,0.4"/>
<path class="Hook" transform="matrix(2.0126,0,0,2.0126,661.492,1154.34)" d="M3.5,3.5 C3.4,3.2 2.5,-0.3 2.5,-0.5 C2.4,-0.9 1.8,-1.2 1.3,-1.2 C0.6,-1.2 0,-0.6 0,0.1 L0,16.5 L0,22.7 C0,23.2 0.4,23.6 0.8,23.8 C5,25.1 13.7,30.6 20.2,41.7 C22,44.8 24.9,49 24.9,57.4 C24.9,64.6 23.8,72.2 22,79.2 C21.7,80.3 21.4,81.3 22.5,81.7 C23.6,82.1 24,81.3 24.4,80.3 C28,71.5 28.9,62.3 28.9,56.1 L28.9,54.2 C28.4,41.3 21,31.8 21,31.8 C21.3,31.8 11.8,19.5 9.1,15.3 C5.4,9.6 3.6,3.9 3.5,3.5"/>
<path class="Hook" transform="matrix(2.0126,0,0,2.0126,1369.36,1424.78)" d="M2.5,0.4 C2.5,0.2 3.4,-3.2 3.5,-3.5 C3.6,-3.9 5.4,-9.6 9.1,-15.3 C11.8,-19.5 21.3,-31.8 21,-31.8 C21,-31.8 28.4,-41.3 28.9,-54.2 L28.9,-56.5 C28.9,-62.6 28.1,-71.2 24.6,-79.9 C24.2,-80.9 23.8,-81.9 22.7,-81.5 C21.6,-81.1 21.9,-79.9 22.2,-78.8 C24,-71.8 25,-64.6 25,-57.4 C25,-49 22,-44.8 20.2,-41.7 C13.6,-30.6 5,-25.2 0.8,-23.8 C0.3,-23.6 0,-23.2 0,-22.7 L0,-16.5 L0,-0.1 C0,0.6 0.6,1.2 1.3,1.2 C1.8,1.2 2.4,0.8 2.5,0.4"/>
<path class="Hook" transform="matrix(2.0126,0,0,2.0126,2367.81,1116.6)" d="M3.5,3.5 C3.4,3.2 2.5,-0.3 2.5,-0.5 C2.4,-0.9 1.8,-1.2 1.3,-1.2 C0.6,-1.2 0,-0.6 0,0.1 L0,16.5 L0,22.7 C0,23.2 0.4,23.6 0.8,23.8 C5,25.1 13.7,30.6 20.2,41.7 C22,44.8 24.9,49 24.9,57.4 C24.9,64.6 23.8,72.2 22,79.2 C21.7,80.3 21.4,81.3 22.5,81.7 C23.6,82.1 24,81.3 24.4,80.3 C28,71.5 28.9,62.3 28.9,56.1 L28.9,54.2 C28.4,41.3 21,31.8 21,31.8 C21.3,31.8 11.8,19.5 9.1,15.3 C5.4,9.6 3.6,3.9 3.5,3.5"/>
<path class="Hook" transform="matrix(2.0126,0,0,2.0126,3369.76,1135.47)" d="M3.5,3.5 C3.4,3.2 2.5,-0.3 2.5,-0.5 C2.4,-0.9 1.8,-1.2 1.3,-1.2 C0.6,-1.2 0,-0.6 0,0.1 L0,16.5 L0,22.7 C0,23.2 0.4,23.6 0.8,23.8 C5,25.1 13.7,30.6 20.2,41.7 C22,44.8 24.9,49 24.9,57.4 C24.9,64.6 23.8,72.2 22,79.2 C21.7,80.3 21.4,81.3 22.5,81.7 C23.6,82.1 24,81.3 24.4,80.3 C28,71.5 28.9,62.3 28.9,56.1 L28.9,54.2 C28.4,41.3 21,31.8 21,31.8 C21.3,31.8 11.8,19.5 9.1,15.3 C5.4,9.6 3.6,3.9 3.5,3.5"/>
<path class="Hook" transform="matrix(2.0126,0,0,2.0126,531.653,1904.47)" d="M3.5,3.5 C3.4,3.2 2.5,-0.3 2.5,-0.5 C2.4,-0.9 1.8,-1.2 1.3,-1.2 C0.6,-1.2 0,-0.6 0,0.1 L0,16.5 L0,22.7 C0,23.2 0.4,23.6 0.8,23.8 C5,25.1 13.7,30.6 20.2,41.7 C22,44.8 24.9,49 24.9,57.4 C24.9,64.6 23.8,72.2 22,79.2 C21.7,80.3 21.4,81.3 22.5,81.7 C23.6,82.1 24,81.3 24.4,80.3 C28,71.5 28.9,62.3 28.9,56.1 L28.9,54.2 C28.4,41.3 21,31.8 21,31.8 C21.3,31.8 11.8,19.5 9.1,15.3 C5.4,9.6 3.6,3.9 3.5,3.5"/>
<path class="Hook" transform="matrix(2.0126,0,0,2.0126,1597.7,1885.61)" d="M3.5,3.5 C3.4,3.2 2.5,-0.3 2.5,-0.5 C2.4,-0.9 1.8,-1.2 1.3,-1.2 C0.6,-1.2 0,-0.6 0,0.1 L0,16.5 L0,22.7 C0,23.2 0.4,23.6 0.8,23.8 C5,25.1 13.7,30.6 20.2,41.7 C22,44.8 24.9,49 24.9,57.4 C24.9,64.6 23.8,72.2 22,79.2 C21.7,80.3 21.4,81.3 22.5,81.7 C23.6,82.1 24,81.3 24.4,80.3 C28,71.5 28.9,62.3 28.9,56.1 L28.9,54.2 C28.4,41.3 21,31.8 21,31.8 C21.3,31.8 11.8,19.5 9.1,15.3 C5.4,9.6 3.6,3.9 3.5,3.5"/>
<path class="Hook" transform="matrix(2.0126,0,0,2.0126,2517.43,2174.92)" d="M2.5,0.4 C2.5,0.2 3.4,-3.2 3.5,-3.5 C3.6,-3.9 5.4,-9.6 9.1,-15.3 C11.8,-19.5 21.3,-31.8 21,-31.8 C21,-31.8 28.4,-41.3 28.9,-54.2 L28.9,-56.5 C28.9,-62.6 28.1,-71.2 24.6,-79.9 C24.2,-80.9 23.8,-81.9 22.7,-81.5 C21.6,-81.1 21.9,-79.9 22.2,-78.8 C24,-71.8 25,-64.6 25,-57.4 C25,-49 22,-44.8 20.2,-41.7 C13.6,-30.6 5,-25.2 0.8,-23.8 C0.3,-23.6 0,-23.2 0,-22.7 L0,-16.5 L0,-0.1 C0,0.6 0.6,1.2 1.3,1.2 C1.8,1.2 2.4,0.8 2.5,0.4"/>
<path class="Hook" transform="matrix(2.0126,0,0,2.0126,3333.2,2149.76)" d="M2.5,0.4 C2.5,0.2 3.4,-3.2 3.5,-3.5 C3.6,-3.9 5.4,-9.6 9.1,-15.3 C11.8,-19.5 21.3,-31.8 21,-31.8 C21,-31.8 28.4,-41.3 28.9,-54.2 L28.9,-56.5 C28.9,-62.6 28.1,-71.2 24.6,-79.9 C24.2,-80.9 23.8,-81.9 22.7,-81.5 C21.6,-81.1 21.9,-79.9 22.2,-78.8 C24,-71.8 25,-64.6 25,-57.4 C25,-49 22,-44.8 20.2,-41.7 C13.6,-30.6 5,-25.2 0.8,-23.8 C0.3,-23.6 0,-23.2 0,-22.7 L0,-16.5 L0,-0.1 C0,0.6 0.6,1.2 1.3,1.2 C1.8,1.2 2.4,0.8 2.5,0.4"/>
<path class="Hook" transform="matrix(2.0126,0,0,2.0126,3758.32,2174.92)" d="M2.5,0.4 C2.5,0.2 3.4,-3.2 3.5,-3.5 C3.6,-3.9 5.4,-9.6 9.1,-15.3 C11.8,-19.5 21.3,-31.8 21,-31.8 C21,-31.8 28.4,-41.3 28.9,-54.2 L28.9,-56.5 C28.9,-62.6 28.1,-71.2 24.6,-79.9 C24.2,-80.9 23.8,-81.9 22.7,-81.5 C21.6,-81.1 21.9,-79.9 22.2,-78.8 C24,-71.8 25,-64.6 25,-57.4 C25,-49 22,-44.8 20.2,-41.7 C13.6,-30.6 5,-25.2 0.8,-23.8 C0.3,-23.6 0,-23.2 0,-22.7 L0,-16.5 L0,-0.1 C0,0.6 0.6,1.2 1.3,1.2 C1.8,1.2 2.4,0.8 2.5,0.4"/>
<path class="Marker" d="M1089.43,258.378 C1094.13,269.057 1115.13,281.908 1116.21,282.27 C1116.76,282.632 1117.12,282.994 1117.12,283.537 C1117.12,284.08 1116.76,284.804 1116.21,285.89 C1115.13,287.881 1094.31,325.348 1094.31,325.348 C1094.13,325.891 1093.95,326.615 1093.95,327.158 C1093.95,328.606 1094.68,330.054 1095.94,330.778 C1096.67,331.321 1097.21,331.502 1097.93,331.502 C1099.38,331.502 1100.83,330.597 1101.55,329.33 C1101.55,329.33 1124,288.786 1124.54,287.881 C1124.54,288.062 1125.63,287.157 1126.17,287.157 C1128.34,287.519 1157.3,296.026 1157.3,309.782 C1157.3,315.574 1153.86,319.194 1149.16,319.918 C1148.98,319.918 1148.43,320.099 1148.25,320.099 C1145.54,320.099 1143,318.108 1143,313.583 L1143,311.954 C1143,306.524 1139.38,302.542 1135.4,302.542 C1134.68,302.542 1134.13,302.542 1133.59,302.723 C1128.16,303.99 1123.27,306.343 1123.27,312.135 C1123.27,312.678 1123.27,313.402 1123.45,314.126 C1124.54,320.28 1131.06,328.606 1140.83,328.606 C1154.59,328.606 1166.17,315.936 1166.17,302.361 C1166.17,301.094 1165.99,299.646 1165.81,298.198 C1163.64,282.27 1140.83,269.238 1139.02,268.514 C1137.39,267.428 1136.67,266.885 1136.67,266.161 C1136.67,265.799 1136.85,265.618 1136.85,265.256 C1137.57,264.17 1160.02,223.626 1160.02,223.626 C1160.56,222.902 1160.74,222.359 1160.74,221.635 C1160.74,220.187 1159.84,218.739 1158.57,218.015 C1157.84,217.834 1157.12,217.653 1156.58,217.653 C1155.13,217.653 1153.68,218.377 1152.96,219.644 C1152.96,219.644 1129.97,261.274 1129.07,262.541 C1128.7,263.265 1128.34,263.627 1127.8,263.627 C1127.44,263.627 1126.89,263.446 1126.35,263.265 C1125.08,262.722 1103.18,254.396 1099.38,247.88 C1098.48,246.251 1097.39,243.174 1097.39,240.278 C1097.39,236.296 1099.2,232.314 1105.17,231.228 L1106.08,231.228 C1106.98,231.228 1107.89,231.59 1108.43,233.038 L1108.61,234.124 C1109.7,238.106 1111.87,246.613 1119.29,246.613 C1125.26,246.613 1129.25,243.174 1129.25,236.839 C1129.25,224.712 1119.65,220.911 1108.61,220.911 C1098.48,220.911 1087.07,233.4 1087.07,247.699 C1087.07,251.138 1087.8,254.758 1089.43,258.378 M1154.95,268.333 C1159.47,268.333 1163.09,264.532 1163.09,260.007 C1163.09,255.482 1159.47,251.862 1154.95,251.862 C1150.42,251.862 1146.62,255.482 1146.62,260.007 C1146.62,264.532 1150.42,268.333 1154.95,268.333 M1098.48,297.474 C1103.18,297.474 1106.8,293.854 1106.8,289.329 C1106.8,284.804 1103.18,281.003 1098.48,281.003 C1094.13,281.003 1090.33,284.804 1090.33,289.329 C1090.33,293.854 1094.13,297.474 1098.48,297.474"/>
<path class="Jump" d="M3931.65,1822.71 L3968.94,1822.71 C3978.82,1822.71 3986.37,1821.16 3992.25,1817.83 C4003.46,1811.5 4009.68,1798.85 4009.68,1782.2 C4009.68,1766.88 4004.13,1754.89 3993.92,1748.23 C3987.81,1744.35 3979.6,1742.57 3966.95,1742.57 L3931.65,1742.57 L3931.65,1747.79 L3933.76,1747.79 C3939.97,1747.9 3942.08,1748.23 3942.97,1749.34 C3943.64,1750.34 3943.64,1750.56 3943.64,1756.22 L3943.64,1809.06 C3943.64,1814.72 3943.64,1814.94 3942.97,1815.94 C3942.08,1817.05 3939.97,1817.38 3933.76,1817.49 L3931.65,1817.49 L3931.65,1822.71 M3962.39,1817.49 C3956.73,1817.49 3956.07,1816.83 3956.07,1811.39 L3956.07,1754 C3956.07,1748.56 3956.84,1747.79 3962.39,1747.79 L3968.17,1747.79 C3987.15,1747.79 3995.03,1758.11 3995.03,1782.64 C3995.03,1807.5 3987.92,1817.49 3969.94,1817.49 L3962.39,1817.49 M4029.98,1810.39 C4026.09,1810.39 4022.99,1813.5 4022.99,1817.27 C4022.99,1821.16 4026.09,1824.27 4029.87,1824.27 C4033.75,1824.27 4036.86,1821.16 4036.86,1817.27 C4036.86,1813.5 4033.75,1810.39 4029.98,1810.39 M4106.22,1741.9 L4102.12,1741.9 L4097.68,1748.56 C4092.35,1743.57 4085.35,1740.9 4077.47,1740.9 C4062.82,1740.9 4053.16,1750.12 4053.16,1764.1 C4053.16,1776.2 4059.16,1782.2 4075.48,1786.41 L4086.02,1789.08 C4094.23,1791.19 4095.01,1791.41 4097.34,1793.19 C4100.67,1795.74 4102.45,1799.4 4102.45,1803.73 C4102.45,1808.17 4100.78,1811.83 4097.45,1814.94 C4093.79,1818.05 4090.13,1819.27 4084.02,1819.27 C4075.81,1819.27 4069.93,1816.72 4064.71,1810.95 C4060.05,1805.84 4057.72,1800.51 4056.05,1791.96 L4051.28,1791.96 L4051.72,1823.6 L4056.05,1823.6 L4061.05,1816.05 C4068.48,1822.16 4074.59,1824.38 4084.36,1824.38 C4100.67,1824.38 4111.11,1814.83 4111.11,1799.96 C4111.11,1792.96 4108.89,1787.19 4104.45,1782.97 C4101.45,1780.09 4097.12,1778.2 4088.24,1775.98 L4076.36,1772.98 C4066.48,1770.43 4061.82,1766.1 4061.82,1759.33 C4061.82,1751.56 4068.15,1746.23 4077.58,1746.23 C4085.35,1746.23 4091.68,1749.56 4096.12,1755.89 C4099.34,1760.44 4101.45,1765.1 4102.78,1770.76 L4107.55,1770.76 L4106.22,1741.9 M4130.75,1810.39 C4126.86,1810.39 4123.75,1813.5 4123.75,1817.27 C4123.75,1821.16 4126.86,1824.27 4130.63,1824.27 C4134.52,1824.27 4137.63,1821.16 4137.63,1817.27 C4137.63,1813.5 4134.52,1810.39 4130.75,1810.39"/>
<path class="Tempo" d="M339.719,205.773 L333.076,205.773 L333.076,296.486 C330.789,295.131 328.006,294.26 324.811,293.933 C323.928,293.836 323.021,293.8 322.113,293.8 C316.62,293.8 310.703,295.373 305.185,298.362 C298.748,301.835 293.606,306.796 290.714,312.337 C287.81,317.891 287.507,323.36 289.867,327.741 C292.662,332.919 298.724,335.606 305.899,335.606 C311.223,335.606 317.164,334.117 322.839,331.068 C333.221,325.466 339.682,316.209 339.719,308.139 L339.719,205.773 "/>
<path class="Tempo" d="M384.596,311.309 L445.58,311.309 L445.58,297.394 L384.596,297.394 L384.596,311.309 M384.596,286.383 L445.58,286.383 L445.58,272.468 L384.596,272.468 L384.596,286.383 M531.347,236.773 L527.112,236.773 C519.489,242.46 510.898,244.88 496.499,245.122 L496.499,251.898 L501.581,251.898 C512.35,251.898 512.471,252.14 512.35,262.062 L512.35,305.017 C512.35,312.519 512.35,312.882 511.503,314.092 C510.414,315.423 507.994,315.907 501.46,315.907 L497.588,315.907 L497.588,322.441 L545.867,322.441 L545.867,315.907 L541.995,315.907 C535.582,315.907 533.283,315.423 532.194,314.092 C531.347,312.882 531.347,312.398 531.347,305.017 L531.347,236.773 M565.952,276.461 C563.169,279.365 562.806,279.97 562.806,281.906 C562.806,284.447 564.742,286.383 567.283,286.383 C569.945,286.383 572.244,284.205 572.244,281.543 C572.244,281.059 572.123,280.333 572.002,279.607 C575.753,276.582 580.351,275.009 585.433,275.009 C594.508,275.009 599.106,281.664 599.106,294.732 C599.106,309.494 593.903,317.238 584.223,317.238 C578.778,317.238 573.575,314.697 573.575,312.156 C573.575,311.43 573.938,311.067 575.027,310.462 C579.867,308.163 581.561,305.864 581.561,301.75 C581.561,295.7 577.447,291.828 571.276,291.828 C564.258,291.828 559.66,296.668 559.66,304.17 C559.66,316.27 570.55,324.135 587.248,324.135 C607.092,324.135 620.644,312.035 620.644,294.127 C620.644,278.397 607.939,266.781 590.515,266.781 C584.828,266.781 581.198,267.749 573.091,271.379 L574.906,255.77 C580.714,256.98 585.433,257.585 590.152,257.585 C600.195,257.585 608.544,254.197 613.021,248.268 C615.32,245.243 617.135,240.766 617.135,238.104 C617.135,237.257 616.772,236.773 616.167,236.773 C615.683,236.773 614.957,236.894 614.231,237.136 C609.875,238.225 602.01,238.83 592.33,238.83 C582.166,238.83 576.116,238.346 568.735,236.773 C568.13,246.937 568.13,247.905 566.678,267.749 L565.952,276.461 M660.089,236.773 C641.939,236.773 628.629,255.286 628.629,280.454 C628.629,305.622 641.939,324.135 660.089,324.135 C677.876,324.135 691.428,305.622 691.428,281.059 C691.428,266.781 688.161,256.254 681.022,247.3 C675.335,240.403 668.196,236.773 660.089,236.773 M659.968,243.065 C663.598,243.065 666.502,245.243 667.833,249.115 C669.406,253.108 670.374,265.813 670.374,280.817 C670.374,293.28 669.406,306.348 668.317,310.462 C666.986,315.302 664.082,317.843 659.968,317.843 C656.217,317.843 653.434,315.786 651.982,311.793 C650.409,307.8 649.441,294.974 649.441,280.454 C649.441,267.749 650.409,254.56 651.498,250.446 C652.829,245.606 655.733,243.065 659.968,243.065"/>
<path class="RehearsalMark" fill="none" stroke="#000000" stroke-width="8.05" stroke-linecap="square" stroke-linejoin="miter" stroke-miterlimit="2" fill-rule="evenodd" d="M861.359,204.371 L1016.04,204.371 L1016.04,351.908 L861.359,351.908 L861.359,204.371 "/>
<path class="RehearsalMark" d="M935.184,233.549 L907.717,297.679 C902.151,310.747 897.674,315.466 890.535,316.192 L890.535,322.726 L925.504,322.726 L925.504,316.192 C916.913,315.708 913.525,313.409 913.525,307.843 C913.525,305.786 914.009,303.85 915.34,300.946 L917.276,296.348 L947.405,296.348 L952.003,308.206 C953.334,311.594 953.455,312.199 953.455,313.167 C953.455,315.345 951.761,316.071 946.437,316.071 L944.38,316.192 L944.38,322.726 L986.851,322.726 L986.851,316.192 C979.954,315.95 978.018,314.74 975.477,308.569 L944.38,233.549 L935.184,233.549 M932.643,259.322 L944.38,288.241 L920.422,288.241 L932.643,259.322 "/>
<path class="RehearsalMark" fill="none" stroke="#000000" stroke-width="8.05" stroke-linecap="square" stroke-linejoin="miter" stroke-miterlimit="2" fill-rule="evenodd" d="M1251.25,950.965 L1396.98,950.965 L1396.98,1096.69 L1251.25,1096.69 L1251.25,950.965 "/>
<path class="RehearsalMark" d="M1280.64,980.145 L1280.64,986.679 L1282.45,986.679 C1288.99,986.679 1291.29,987.163 1292.38,988.373 C1293.22,989.704 1293.22,990.067 1293.22,997.569 L1293.22,1050.08 C1293.22,1057.58 1293.22,1057.95 1292.38,1059.16 C1291.29,1060.49 1288.87,1060.97 1282.45,1060.97 L1280.64,1060.97 L1280.64,1067.51 L1329.64,1067.51 C1342.23,1067.51 1348.64,1066.54 1354.93,1063.76 C1362.56,1060.37 1367.64,1052.74 1367.64,1044.52 C1367.64,1036.05 1362.8,1029.39 1353.84,1025.28 C1349.73,1023.34 1346.22,1022.37 1339.81,1021.53 C1345.74,1020.56 1349.12,1019.71 1352.51,1018.14 C1359.77,1014.63 1363.64,1008.82 1363.64,1001.56 C1363.64,994.665 1360.01,988.252 1354.09,984.985 C1347.43,981.234 1341.62,980.145 1327.34,980.145 L1280.64,980.145 M1315,1019.35 L1315,993.697 C1314.76,988.615 1316.45,986.921 1321.78,986.679 L1325.41,986.679 C1336.06,986.679 1341.74,992.003 1341.74,1002.05 C1341.74,1007.97 1339.69,1012.69 1335.81,1015.72 C1332.55,1018.38 1328.43,1019.35 1320.93,1019.35 L1315,1019.35 M1315,1026 L1323.35,1026 C1330.97,1026 1334.48,1026.73 1337.87,1028.91 C1342.11,1031.69 1344.53,1037.01 1344.53,1043.31 C1344.53,1049.11 1342.35,1054.44 1338.84,1057.34 C1335.81,1059.76 1331.82,1060.97 1326.01,1060.97 L1322.38,1060.97 C1315.49,1060.73 1314.76,1060 1315,1053.23 L1315,1026 "/>
<path class="VoltaSegment" d="M2693.29,288.633 L2689.4,288.633 C2682.41,293.85 2674.53,296.07 2661.32,296.292 L2661.32,302.508 L2665.98,302.508 C2675.86,302.508 2675.97,302.73 2675.86,311.832 L2675.86,351.237 C2675.86,358.119 2675.86,358.452 2675.09,359.562 C2674.09,360.783 2671.87,361.227 2665.87,361.227 L2662.32,361.227 L2662.32,367.221 L2706.61,367.221 L2706.61,361.227 L2703.06,361.227 C2697.17,361.227 2695.07,360.783 2694.07,359.562 C2693.29,358.452 2693.29,358.008 2693.29,351.237 L2693.29,288.633 M2731.24,348.018 C2725.47,348.018 2720.81,352.68 2720.81,358.452 C2720.81,364.113 2725.47,368.886 2731.13,368.886 C2737.01,368.886 2741.67,364.224 2741.67,358.452 C2741.67,352.68 2737.01,348.018 2731.24,348.018"/>
<polyline class="VoltaSegment" fill="none" stroke="#000000" stroke-width="5.53" stroke-linecap="square" stroke-linejoin="bevel" points="2631.12,367.221 2631.12,256.528"/>
<polyline class="VoltaSegment" fill="none" stroke="#000000" stroke-width="5.53" stroke-linecap="square" stroke-linejoin="bevel" points="2631.12,256.528 4108.81,256.528"/>
<polyline class="VoltaSegment" fill="none" stroke="#000000" stroke-width="5.53" stroke-linecap="square" stroke-linejoin="bevel" points="4108.81,256.528 4108.81,367.221"/>
<path class="VoltaSegment" d="M320.935,1088.94 L319.714,1094.49 C318.715,1098.93 318.049,1100.37 317.161,1100.93 C316.051,1101.71 315.829,1101.71 308.836,1101.82 L287.413,1101.82 C291.298,1098.49 294.184,1096.38 298.513,1093.49 C314.164,1083.39 317.383,1080.95 320.602,1076.84 C324.376,1071.85 326.596,1065.96 326.596,1060.75 C326.596,1048.87 314.941,1039.88 299.29,1039.88 C284.194,1039.88 272.539,1049.65 272.539,1062.3 C272.539,1070.07 276.868,1075.07 283.528,1075.07 C289.3,1075.07 292.963,1071.4 292.963,1065.63 C292.963,1060.86 290.854,1058.08 285.748,1055.64 C284.527,1055.09 283.972,1054.42 283.972,1053.53 C283.972,1049.98 289.966,1046.21 295.516,1046.21 C303.286,1046.21 307.726,1050.98 307.726,1059.19 C307.726,1068.41 304.174,1074.96 292.408,1087.5 C279.976,1100.71 275.647,1105.7 270.097,1113.69 L270.097,1118.91 C272.983,1118.58 274.204,1118.47 275.869,1118.47 L317.605,1118.47 C319.714,1118.47 321.046,1118.58 324.376,1118.91 L326.929,1088.94 L320.935,1088.94 M347.12,1099.26 C341.348,1099.26 336.686,1103.93 336.686,1109.7 C336.686,1115.36 341.348,1120.13 347.009,1120.13 C352.892,1120.13 357.554,1115.47 357.554,1109.7 C357.554,1103.93 352.892,1099.26 347.12,1099.26"/>
<polyline class="VoltaSegment" fill="none" stroke="#000000" stroke-width="5.53" stroke-linecap="square" stroke-linejoin="bevel" points="239.893,1118.47 239.893,1007.77"/>
<polyline class="VoltaSegment" fill="none" stroke="#000000" stroke-width="5.53" stroke-linecap="square" stroke-linejoin="bevel" points="239.893,1007.77 1125.91,1007.77"/>
<path class="VoltaSegment" d="M3197.82,1039.88 L3193.94,1039.88 C3186.94,1045.1 3179.06,1047.32 3165.85,1047.54 L3165.85,1053.75 L3170.52,1053.75 C3180.39,1053.75 3180.51,1053.98 3180.39,1063.08 L3180.39,1102.48 C3180.39,1109.37 3180.39,1109.7 3179.62,1110.81 C3178.62,1112.03 3176.4,1112.47 3170.4,1112.47 L3166.85,1112.47 L3166.85,1118.47 L3211.14,1118.47 L3211.14,1112.47 L3207.59,1112.47 C3201.71,1112.47 3199.6,1112.03 3198.6,1110.81 C3197.82,1109.7 3197.82,1109.25 3197.82,1102.48 L3197.82,1039.88 M3235.77,1099.26 C3230,1099.26 3225.34,1103.93 3225.34,1109.7 C3225.34,1115.36 3230,1120.13 3235.66,1120.13 C3241.54,1120.13 3246.21,1115.47 3246.21,1109.7 C3246.21,1103.93 3241.54,1099.26 3235.77,1099.26"/>
<polyline class="VoltaSegment" fill="none" stroke="#000000" stroke-width="5.53" stroke-linecap="square" stroke-linejoin="bevel" points="3135.65,1118.47 3135.65,1007.77"/>
<polyline class="VoltaSegment" fill="none" stroke="#000000" stroke-width="5.53" stroke-linecap="square" stroke-linejoin="bevel" points="3135.65,1007.77 4137.61,1007.77"/>
<polyline class="VoltaSegment" fill="none" stroke="#000000" stroke-width="5.53" stroke-linecap="square" stroke-linejoin="bevel" points="290.208,1756.8 1337.52,1756.8"/>
<polyline class="VoltaSegment" fill="none" stroke="#000000" stroke-width="5.53" stroke-linecap="square" stroke-linejoin="bevel" points="1337.52,1756.8 1337.52,1867.49"/>
<path class="VoltaSegment" d="M1447.36,1837.97 L1446.14,1843.52 C1445.14,1847.96 1444.48,1849.4 1443.59,1849.95 C1442.48,1850.73 1442.26,1850.73 1435.26,1850.84 L1413.84,1850.84 C1417.73,1847.51 1420.61,1845.4 1424.94,1842.52 C1440.59,1832.42 1443.81,1829.97 1447.03,1825.87 C1450.8,1820.87 1453.02,1814.99 1453.02,1809.77 C1453.02,1797.89 1441.37,1788.9 1425.72,1788.9 C1410.62,1788.9 1398.97,1798.67 1398.97,1811.33 C1398.97,1819.1 1403.3,1824.09 1409.96,1824.09 C1415.73,1824.09 1419.39,1820.43 1419.39,1814.66 C1419.39,1809.88 1417.28,1807.11 1412.18,1804.67 C1410.96,1804.11 1410.4,1803.44 1410.4,1802.56 C1410.4,1799 1416.39,1795.23 1421.94,1795.23 C1429.71,1795.23 1434.15,1800 1434.15,1808.22 C1434.15,1817.43 1430.6,1823.98 1418.84,1836.52 C1406.4,1849.73 1402.08,1854.73 1396.53,1862.72 L1396.53,1867.94 C1399.41,1867.6 1400.63,1867.49 1402.3,1867.49 L1444.03,1867.49 C1446.14,1867.49 1447.47,1867.6 1450.8,1867.94 L1453.36,1837.97 L1447.36,1837.97 M1473.55,1848.29 C1467.78,1848.29 1463.11,1852.95 1463.11,1858.72 C1463.11,1864.38 1467.78,1869.16 1473.44,1869.16 C1479.32,1869.16 1483.98,1864.49 1483.98,1858.72 C1483.98,1852.95 1479.32,1848.29 1473.55,1848.29"/>
<polyline class="VoltaSegment" fill="none" stroke="#000000" stroke-width="5.53" stroke-linecap="square" stroke-linejoin="bevel" points="1366.32,1867.49 1366.32,1756.8"/>
<polyline class="VoltaSegment" fill="none" stroke="#000000" stroke-width="5.53" stroke-linecap="square" stroke-linejoin="bevel" points="1366.32,1756.8 2347.42,1756.8"/>
</svg>
