<?xml version="1.0" encoding="UTF-8" standalone="no"?>
<svg width="4208.47px" height="2409.45px" viewBox="0 0 4208.47 2409.45"
 xmlns="http://www.w3.org/2000/svg" xmlns:xlink="http://www.w3.org/1999/xlink" version="1.2" baseProfile="tiny">
<title>BONE PIRATA (2)</title>
<desc>Generated by MuseScore 3.6.2</desc>
<polyline class="StaffLines" fill="none" stroke="#000000" stroke-width="3.20" stroke-linejoin="bevel" points="70.866,390.866 4137.61,390.866"/>
<polyline class="StaffLines" fill="none" stroke="#000000" stroke-width="3.20" stroke-linejoin="bevel" points="70.866,422.866 4137.61,422.866"/>
<polyline class="StaffLines" fill="none" stroke="#000000" stroke-width="3.20" stroke-linejoin="bevel" points="70.866,454.866 4137.61,454.866"/>
<polyline class="StaffLines" fill="none" stroke="#000000" stroke-width="3.20" stroke-linejoin="bevel" points="70.866,486.866 4137.61,486.866"/>
<polyline class="StaffLines" fill="none" stroke="#000000" stroke-width="3.20" stroke-linejoin="bevel" points="70.866,518.866 4137.61,518.866"/>
<path class="MeasureNumber" d="M58.3504,299.476 C58.1941,299.898 57.6941,300.913 56.7254,302.585 C56.6629,302.694 56.2566,303.257 55.5535,304.319 C55.1941,304.882 54.7254,305.351 54.2722,305.757 C53.3035,306.569 52.3347,307.179 51.2566,307.538 C50.241,307.898 49.6785,308.819 49.5847,310.241 L49.5847,310.757 C49.5847,312.023 49.9441,312.632 50.6941,312.632 C50.8035,312.632 50.9597,312.632 51.116,312.585 C51.366,312.538 52.2879,312.179 53.7566,311.46 C54.116,311.319 54.6785,311.054 55.4441,310.757 C56.0066,310.491 56.5222,310.398 56.866,310.398 C57.0691,310.398 57.2254,310.398 57.3347,310.444 C58.3035,310.851 58.866,311.116 58.9597,311.163 C59.4285,311.413 59.8347,311.976 60.0847,312.788 C60.2879,313.351 60.3972,313.866 60.3972,314.429 C60.3347,315.898 59.6316,317.069 58.1472,318.038 C57.3347,318.554 56.866,318.866 56.7254,318.913 C56.1629,319.273 55.6941,319.523 55.2879,319.679 C54.8816,319.835 54.5222,320.085 54.0691,320.444 C53.616,320.804 53.2566,321.21 52.9441,321.616 C52.6472,322.023 52.3347,322.585 52.0847,323.304 C51.8191,324.007 51.616,324.773 51.5222,325.648 C51.4597,326.304 51.5222,326.554 51.616,326.46 C51.7254,326.351 51.9754,326.46 52.4285,326.757 C52.8504,327.023 53.2566,327.179 53.616,327.179 L53.6629,327.179 C54.0691,327.179 54.6785,327.023 55.3972,326.71 C56.1004,326.413 56.616,326.21 56.9754,326.054 C61.8191,323.851 64.4754,321.866 65.0379,319.976 C65.491,318.194 66.0066,316.21 66.5066,314.023 C66.5535,313.804 66.616,313.257 66.616,312.335 C66.5535,312.023 66.4597,311.054 66.2097,309.476 C65.9441,307.491 65.3816,306.319 64.5222,305.851 C63.7566,305.444 62.9441,305.085 61.9754,304.788 C61.866,304.741 61.8191,304.679 61.8191,304.585 C61.8191,304.273 62.2254,303.663 63.0379,302.804 C63.241,302.585 63.5066,301.929 63.7566,300.804 C63.8035,300.601 64.0066,300.101 64.3191,299.335 C64.4129,298.976 64.7722,298.413 65.3347,297.648 C65.741,297.085 66.1004,296.476 66.5066,295.96 C66.9129,295.46 67.3191,294.944 67.6316,294.429 C67.9441,293.929 68.0847,293.413 68.0847,292.851 L68.0847,292.804 C68.0379,292.194 68.0379,291.835 68.0379,291.726 C67.9441,291.226 67.7879,290.866 67.5379,290.71 C67.2254,290.257 66.7097,289.991 66.0066,289.944 L65.8035,289.944 C65.1316,289.944 64.5222,290.054 63.866,290.257 C63.1004,290.507 62.3347,290.71 61.5066,290.96 C60.8504,291.163 60.2879,291.273 59.9285,291.273 L59.6785,291.273 C59.116,291.116 58.6629,290.96 58.3035,290.819 C57.741,290.554 57.1785,290.351 56.6629,290.148 C56.1629,289.944 55.6472,289.694 55.1316,289.538 C54.7879,289.382 54.366,289.335 54.0222,289.335 L53.616,289.335 C53.1004,289.382 52.6472,289.585 52.2879,289.944 C52.0847,290.194 51.8816,290.46 51.6785,290.819 C51.4597,291.163 51.3191,291.476 51.2097,291.679 C51.116,291.882 50.9597,292.241 50.8035,292.804 C50.4441,293.773 50.1941,294.429 49.991,294.694 C49.7879,294.944 49.7879,295.351 49.991,295.913 C50.1941,296.476 50.6004,296.976 51.3191,297.444 C52.0222,297.898 52.5847,298.257 53.0535,298.507 C53.5066,298.773 54.0691,298.929 54.7879,299.069 C55.491,299.226 56.1004,299.273 56.616,299.335 C57.1316,299.382 57.6941,299.429 58.3504,299.476 M71.3504,292.085 L71.491,292.085 C70.2722,292.851 69.6629,293.819 69.6629,294.991 C69.7097,295.148 70.116,295.866 70.8816,297.132 C71.6472,298.304 72.2566,298.866 72.7722,298.866 C73.8972,298.054 75.116,297.288 76.3972,296.569 C77.6629,295.866 78.9441,295.46 80.1629,295.46 C81.1785,295.46 82.0066,296.007 82.5691,297.085 C82.9754,297.804 83.2722,298.616 83.4285,299.538 C83.4754,299.835 83.4754,300.194 83.4754,300.648 L83.4754,300.96 C83.4754,301.773 83.3816,302.741 83.116,303.866 C83.0222,304.116 82.3504,305.241 81.1316,307.179 L79.9597,308.913 L79.0379,310.085 L77.7722,311.819 C77.0066,312.694 76.241,313.554 75.4285,314.523 C73.6941,316.569 72.6629,317.632 72.4129,317.741 C72.3191,317.788 71.8035,318.554 70.8816,320.132 C70.2254,321.304 69.866,322.069 69.866,322.538 C69.9129,323.851 70.4754,324.882 71.6004,325.538 C72.7254,326.21 74.7566,326.554 77.7722,326.554 L78.991,326.554 L80.2722,326.554 C80.7254,326.554 81.241,326.616 81.741,326.71 C82.1004,326.757 82.7097,326.866 83.6785,326.913 C84.4441,326.976 85.2566,327.023 86.0847,327.023 C87.7566,327.023 89.0847,326.757 90.116,326.304 C91.1316,325.851 91.6316,324.413 91.6316,322.023 C91.6316,319.882 90.7254,318.804 88.9285,318.804 C86.741,319.273 85.116,319.523 84.0847,319.679 C81.6004,320.038 80.2722,320.241 80.0691,320.241 C79.6004,320.288 78.6316,320.288 77.2097,320.288 C77.3035,319.976 77.866,319.523 78.8347,318.866 C80.3191,317.788 81.241,316.976 81.5379,316.46 C82.7097,315.038 83.6316,313.913 84.2879,313.054 C85.4754,311.007 86.8504,308.663 88.3191,305.96 C89.6004,303.663 90.2566,300.913 90.2566,297.694 C90.2566,296.773 89.7566,295.351 88.7254,293.366 C88.2722,292.491 87.4129,291.632 86.0847,290.757 C84.8035,289.898 83.741,289.429 82.9129,289.288 C81.741,289.085 80.7254,288.976 79.8035,288.976 C78.2722,288.976 76.8504,289.288 75.5222,289.851 C74.1941,290.398 72.8191,291.163 71.3504,292.085"/>
<polyline class="BarLine" fill="none" stroke="#000000" stroke-width="9.60" stroke-linejoin="bevel" points="4104.01,389.266 4104.01,520.466"/>
<polyline class="BarLine" fill="none" stroke="#000000" stroke-width="19.20" stroke-linejoin="bevel" points="4128.01,389.266 4128.01,520.466"/>
<polyline class="Stem" fill="none" stroke="#000000" stroke-width="6.40" stroke-linejoin="bevel" points="363.656,396.703 363.656,502.866"/>
<path class="Note" transform="matrix(1.28,0,0,1.28,360.456,390.866)" d="M10.5938,13.5 C15.0938,13.5 19.7969,11.7031 24.7969,8 C30.2031,3.90625 32.9063,0 32.9063,-4.29688 C32.9063,-10.2969 28.9063,-13.5 20.7031,-13.5 C16.4063,-13.5 11.9063,-11.4063 7.09375,-7 C2.29688,-2.59375 0,1.5 0,5.70313 C0,8.70313 1.20313,10.7031 3.5,11.9063 C5.29688,13 7.59375,13.5 10.5938,13.5"/>
<path class="Clef" transform="matrix(1.28,0,0,1.28,91.346,422.866)" d="M86.1094,4.90625 C81.7031,5.29688 79,5.59375 78.1094,6.09375 C77.4063,6.5 76.5,8.09375 75.6094,11.0938 C74.6094,14.2969 74.1094,16.5938 74.1094,18 L74.1094,18.5938 C74.4063,20.4063 75.5,21.2031 77.4063,21.2031 C80.4063,21.2031 83.4063,20.9063 86.4063,20.0938 C87.6094,19.7969 88.6094,18.4063 89.4063,16 C90.1094,13.7031 90.5,11.4063 90.5,8.90625 C90.5,7.20313 90.3125,6.09375 90,5.70313 C89.7031,5.20313 89.1094,4.90625 88.3125,4.79688 C88.1094,4.79688 87.4063,4.79688 86.1094,4.90625 M86.2031,-21.5 C85.8125,-21.5 85,-21.4063 83.8125,-21.2969 C80.4063,-20.9063 78.4063,-20.5 77.9063,-20.2031 C77.2031,-19.7969 76.4063,-17.9063 75.4063,-14.5938 C74.5,-11.7969 74.1094,-9.70313 74.1094,-8.40625 L74.1094,-7.79688 C74.2969,-6.59375 74.9063,-5.79688 75.9063,-5.40625 C76.5,-5.20313 77.5,-5.20313 78.9063,-5.29688 C83.8125,-5.79688 86.7031,-6.20313 87.4063,-6.70313 C88.2031,-7.29688 88.9063,-8.70313 89.6094,-11 C90.3125,-13.2969 90.6094,-15.5 90.6094,-17.7031 C90.6094,-19.4063 90.3125,-20.5938 89.7031,-21.0938 C89.3125,-21.4063 88.6094,-21.5938 87.7031,-21.5938 C87.3125,-21.5938 86.7031,-21.5938 86.2031,-21.5 M28,-29.7031 C18.5,-28.5 11.0938,-22.7969 5.70313,-12.4063 C1.90625,-5.09375 0,3 0,12 C0,16 0.703125,19.4063 2.09375,22.2969 C2.90625,23.9063 4,25.2969 5.29688,26.7031 C6.59375,28.1094 7.70313,28.7969 8.5,28.7969 C9.40625,28.7969 10.0938,28 10.5,26.6094 C11,25.0938 11.0938,23.4063 11.0938,21.2969 L11.0938,19.5 C11,16.7969 9.90625,14.2031 7.90625,11.9063 C6.79688,10.5938 6.09375,9.79688 5.90625,9.29688 C5.59375,8.79688 5.5,8.09375 5.5,7.5 C5.5,6.29688 6,4.90625 6.79688,3.20313 C8.09375,0.703125 10.2969,-1.79688 13.7031,-4.29688 C17.0938,-6.79688 20.4063,-8.59375 23.9063,-9.70313 C25.0938,-10.0938 26.9063,-10.2031 29.4063,-10.2031 C31.9063,-10.2031 34,-10 35.6094,-9.70313 C44.9063,-7.79688 51.4063,-2.29688 55,6.5 C56.6094,10.5 57.4063,14.5938 57.4063,18.5938 C57.4063,20.0938 57.2969,21.5 57.1094,22.9063 C55.7031,32.1094 51.1094,41.4063 43,50.7969 C36.5,58.2969 29,64.1094 20.5938,68.2969 C19.2969,69 18.7031,69.2969 18.7031,69.4063 C18.7031,69.5 18.5,70.1094 18.2969,71.2969 C17.7031,74.2969 17.2969,77.5 17.2031,81.1094 L17.0938,84.3125 L18,84.7031 C18.4063,84.9063 18.9063,84.9063 19.4063,84.9063 C22,84.9063 26,82.9063 31.5,78.6094 C37.2031,74.2031 41.4063,70.4063 44.1094,67.2031 C48,62.6094 51.1094,58.5 53.2969,54.7969 C58.5,46.1094 61.7031,35.7031 62.7969,23.5938 C63.1094,20.4063 63.2031,17.2031 63.2031,14.2031 C63.2031,3.5 61.2969,-5.59375 57.4063,-13.2031 C55.7031,-16.5938 53.5,-19.5938 51,-22.0938 C47.2031,-25.9063 42.7031,-28.4063 37.6094,-29.4063 L31.7969,-29.9063 C30.5,-29.9063 29.2969,-29.9063 28,-29.7031"/>
<path class="KeySig" transform="matrix(1.28,0,0,1.28,239.306,486.866)" d="M17.5938,-23 C12.7969,-23 8.90625,-20.2969 6.79688,-17 C6.5,-16.2969 5.79688,-15.5938 5.70313,-15.5938 C5.59375,-15.5938 5.70313,-16.7969 5.70313,-18.9063 C5.70313,-23.7031 5.79688,-34.4063 6.09375,-50.7031 L6.09375,-55.9063 C3.29688,-55.7969 2.20313,-54.9063 0.796875,-53.4063 L0.59375,-25.6094 C0.59375,-7 0.296875,6.5 0.203125,15 C0.09375,24.0938 0,27.7969 0,29 C0,29.2031 0.09375,29.6094 0.203125,29.6094 C0.40625,29.6094 1.5,28.2031 3.70313,25.7031 C5.90625,23.2031 8,20.5 9.5,18.7969 C17.5938,8.29688 22,-1 23.2031,-10 C23.4063,-11.2031 23.4063,-12.5 23.4063,-13.5 C23.4063,-18.7031 22,-23 17.5938,-23 M15,-7.70313 C15,-7.20313 14.9063,-6.79688 14.7969,-6.09375 C14.0938,-1.79688 12.2031,2.70313 8.29688,7.29688 C7.40625,8.29688 6.5,9.79688 5.59375,10.5938 C5.29688,10.9063 5.09375,10.7969 5,10.7969 C4.90625,10.7969 5,10.7969 5,10.2031 L5,-1 C5.09375,-1.79688 5.79688,-3 6.79688,-4.70313 C8.09375,-7 10.2969,-10.9063 12.7969,-10.9063 C14.2969,-10.9063 15,-9.40625 15,-7.70313"/>
<path class="Rest" transform="matrix(1.28,0,0,1.28,1399,454.866)" d="M10.2969,40.2031 C13.2031,40.2031 18.2969,35.9063 18.2969,32.7031 C18.2969,31.4063 17.7031,29.9063 16.5,28 C14.5938,25.0938 13.7031,23.2031 13.7031,22.4063 L13.7031,22.2031 C14.2031,21.2969 16.7031,18 21.2031,12.5 C23.9063,9.20313 26.1094,6.59375 27.5,4.79688 L29.7031,2.09375 C25.7969,0.09375 17.9063,-0.203125 17.9063,-0.59375 C17.9063,-0.59375 19.5,-2.70313 22.9063,-6.59375 C28.2031,-12.7969 30.9063,-16.4063 30.9063,-17.2031 C30.9063,-17.7969 29,-18.2969 26.1094,-18.5 C21.9063,-18.7969 18.2969,-19.7031 15.2969,-21.2031 C10.4063,-23.7031 8,-27 8,-32.9063 C8,-34.9063 8.40625,-36.9063 9,-39 L8.90625,-39.1094 C8.70313,-39.1094 8.09375,-38.6094 7,-37.7969 C2.29688,-33.7031 0,-29.1094 0,-23.7969 C0,-17.2031 3,-11.7969 9,-8 C9.70313,-7.5 10.9063,-7 12.4063,-6.20313 L14.5938,-5 L12.7969,-2.90625 C10.0938,0.09375 7.79688,2.59375 6.29688,4.90625 C4.90625,7 4.20313,8.59375 4.20313,9.70313 L4.20313,10.4063 L8.29688,10.7969 C11,11 12.9063,11.2031 13.7969,11.4063 C15.9063,11.9063 17,12.2031 17,12.4063 C12.5,19.5 7.90625,27.7031 6.79688,31.1094 C6.5,32 6.40625,33.1094 6.40625,34.2969 C6.40625,37.7031 7.29688,40.2031 10.2969,40.2031"/>
<path class="Rest" transform="matrix(1.28,0,0,1.28,2437.54,454.866)" d="M9.79688,-13.9063 C4.79688,-13.9063 2.29688,-13.7031 2.20313,-13.5 C0.703125,-8.70313 0,-4.29688 0,-0.5 L0,0 L18.7031,0 L37.5,0 L37.7031,-0.703125 C38.7031,-4.40625 39.2969,-7.79688 39.4063,-11 L39.5,-14.0938 L28.2969,-14 C20.7969,-14 14.7031,-13.9063 9.79688,-13.9063"/>
<path class="Fingering" d="M411.652,211.776 L406.027,211.776 L404.746,218.307 C403.074,226.635 402.058,227.401 394.121,227.401 L365.449,227.401 C374.277,218.182 377.214,215.495 385.418,209.088 C397.058,200.135 402.058,195.651 404.996,191.807 C409.089,186.182 411.136,180.557 411.136,174.276 C411.136,159.682 399.105,149.323 382.339,149.323 C366.089,149.323 353.668,159.682 353.668,173.385 C353.668,181.448 357.761,186.948 363.777,186.948 C368.511,186.948 371.714,183.745 371.714,179.135 C371.714,175.948 369.918,172.995 367.23,171.838 C362.496,169.932 362.246,169.667 362.246,168.01 C362.246,166.088 363.527,163.135 365.324,160.963 C368.511,156.995 373.761,154.823 379.777,154.823 C390.402,154.823 396.683,161.354 396.683,172.104 C396.683,181.573 392.199,190.151 381.574,201.417 C372.105,211.401 366.214,217.667 364.043,220.104 C359.433,225.479 357.121,228.417 351.496,235.854 L351.496,239.432 L409.214,239.432 L411.652,211.776 "/>
<path class="Page" d="M73.0625,2453.03 L73.1719,2453.03 C72.2188,2453.64 71.7344,2454.39 71.7344,2455.31 C71.7813,2455.44 72.0938,2456 72.7031,2457 C73.2969,2457.92 73.7813,2458.36 74.1719,2458.36 C75.0625,2457.72 76.0156,2457.11 77.0156,2456.56 C78.0156,2456 79.0156,2455.67 79.9844,2455.67 C80.7813,2455.67 81.4219,2456.11 81.8594,2456.95 C82.1719,2457.52 82.4219,2458.16 82.5313,2458.88 C82.5781,2459.11 82.5781,2459.39 82.5781,2459.75 L82.5781,2460 C82.5781,2460.64 82.5,2461.39 82.2969,2462.28 C82.2188,2462.47 81.7031,2463.36 80.7344,2464.88 L79.8125,2466.24 L79.0938,2467.16 L78.0938,2468.52 C77.5,2469.19 76.8906,2469.88 76.2656,2470.64 C74.9063,2472.24 74.0938,2473.08 73.9063,2473.16 C73.8125,2473.19 73.4219,2473.8 72.7031,2475.03 C72.1719,2475.95 71.9063,2476.55 71.9063,2476.91 C71.9375,2477.95 72.375,2478.75 73.2656,2479.27 C74.1406,2479.8 75.7344,2480.08 78.0938,2480.08 L79.0625,2480.08 L80.0625,2480.08 C80.4219,2480.08 80.8125,2480.11 81.2188,2480.19 C81.5,2480.24 81.9844,2480.31 82.7344,2480.36 C83.3438,2480.39 83.9844,2480.44 84.6094,2480.44 C85.9375,2480.44 86.9844,2480.24 87.7813,2479.88 C88.5781,2479.52 88.9688,2478.39 88.9688,2476.52 C88.9688,2474.83 88.25,2474 86.8594,2474 C85.1406,2474.36 83.8594,2474.55 83.0625,2474.67 C81.0938,2474.95 80.0625,2475.11 79.8906,2475.11 C79.5313,2475.16 78.7813,2475.16 77.6563,2475.16 C77.7344,2474.91 78.1719,2474.55 78.9375,2474.03 C80.0938,2473.19 80.8125,2472.55 81.0625,2472.16 C81.9844,2471.03 82.7031,2470.16 83.2188,2469.47 C84.1406,2467.88 85.2188,2466.03 86.375,2463.92 C87.375,2462.11 87.8906,2459.95 87.8906,2457.44 C87.8906,2456.72 87.5,2455.59 86.7031,2454.03 C86.3438,2453.36 85.6563,2452.67 84.6094,2452 C83.625,2451.31 82.7813,2450.95 82.1406,2450.84 C81.2188,2450.67 80.4219,2450.59 79.7031,2450.59 C78.5,2450.59 77.375,2450.84 76.3438,2451.28 C75.2969,2451.72 74.2188,2452.31 73.0625,2453.03"/>
</svg>
