<?xml version="1.0" encoding="UTF-8" standalone="no"?>
<svg width="4208.47px" height="2409.45px" viewBox="0 0 4208.47 2409.45"
 xmlns="http://www.w3.org/2000/svg" xmlns:xlink="http://www.w3.org/1999/xlink" version="1.2" baseProfile="tiny">
<title>FLAUTA</title>
<desc>Generated by MuseScore 3.6.2</desc>
<polyline class="StaffLines" fill="none" stroke="#000000" stroke-width="6.16" stroke-linejoin="bevel" points="70.866,462.756 4137.61,462.756"/>
<polyline class="StaffLines" fill="none" stroke="#000000" stroke-width="6.16" stroke-linejoin="bevel" points="70.866,518.74 4137.61,518.74"/>
<polyline class="StaffLines" fill="none" stroke="#000000" stroke-width="6.16" stroke-linejoin="bevel" points="70.866,574.724 4137.61,574.724"/>
<polyline class="StaffLines" fill="none" stroke="#000000" stroke-width="6.16" stroke-linejoin="bevel" points="70.866,630.709 4137.61,630.709"/>
<polyline class="StaffLines" fill="none" stroke="#000000" stroke-width="6.16" stroke-linejoin="bevel" points="70.866,686.693 4137.61,686.693"/>
<polyline class="StaffLines" fill="none" stroke="#000000" stroke-width="6.16" stroke-linejoin="bevel" points="70.866,1165.66 4137.61,1165.66"/>
<polyline class="StaffLines" fill="none" stroke="#000000" stroke-width="6.16" stroke-linejoin="bevel" points="70.866,1221.65 4137.61,1221.65"/>
<polyline class="StaffLines" fill="none" stroke="#000000" stroke-width="6.16" stroke-linejoin="bevel" points="70.866,1277.63 4137.61,1277.63"/>
<polyline class="StaffLines" fill="none" stroke="#000000" stroke-width="6.16" stroke-linejoin="bevel" points="70.866,1333.62 4137.61,1333.62"/>
<polyline class="StaffLines" fill="none" stroke="#000000" stroke-width="6.16" stroke-linejoin="bevel" points="70.866,1389.6 4137.61,1389.6"/>
<polyline class="StaffLines" fill="none" stroke="#000000" stroke-width="6.16" stroke-linejoin="bevel" points="70.866,1868.57 4137.61,1868.57"/>
<polyline class="StaffLines" fill="none" stroke="#000000" stroke-width="6.16" stroke-linejoin="bevel" points="70.866,1924.55 4137.61,1924.55"/>
<polyline class="StaffLines" fill="none" stroke="#000000" stroke-width="6.16" stroke-linejoin="bevel" points="70.866,1980.54 4137.61,1980.54"/>
<polyline class="StaffLines" fill="none" stroke="#000000" stroke-width="6.16" stroke-linejoin="bevel" points="70.866,2036.52 4137.61,2036.52"/>
<polyline class="StaffLines" fill="none" stroke="#000000" stroke-width="6.16" stroke-linejoin="bevel" points="70.866,2092.51 4137.61,2092.51"/>
<path class="MeasureNumber" d="M85.5935,1038.89 C87.4335,1038.01 88.2735,1037.53 88.9935,1036.97 C90.7135,1035.65 91.6335,1033.81 91.6335,1031.77 C91.6335,1028.13 88.5535,1025.53 84.2735,1025.53 C79.1135,1025.53 75.1135,1029.25 75.1135,1034.09 C75.1135,1036.53 75.9535,1038.09 78.1135,1039.65 C73.3935,1041.45 70.8735,1044.37 70.8735,1048.01 C70.8735,1051.89 74.0735,1054.29 79.1935,1054.29 C85.3535,1054.29 89.7535,1050.53 89.7535,1045.33 C89.7535,1043.85 89.2735,1042.41 88.3935,1041.25 C87.7935,1040.45 87.0735,1039.85 85.5935,1038.89 M83.8735,1037.93 C79.7935,1036.01 78.3135,1034.45 78.3135,1032.17 C78.3135,1029.41 80.7935,1027.25 83.9535,1027.25 C86.7135,1027.25 88.6335,1029.01 88.6335,1031.53 C88.6335,1033.17 87.8735,1034.97 86.5535,1036.25 C85.7935,1037.01 85.1935,1037.41 83.8735,1037.93 M79.6335,1040.73 C81.5535,1041.61 82.1935,1041.93 83.1935,1042.53 C85.1935,1043.73 86.2735,1045.33 86.2735,1047.13 C86.2735,1050.21 83.3935,1052.53 79.6335,1052.53 C76.2335,1052.53 74.1135,1050.61 74.1135,1047.53 C74.1135,1044.53 76.0335,1042.17 79.6335,1040.73"/>
<path class="MeasureNumber" d="M87.226,1728.28 L86.066,1728.28 C83.866,1729.92 79.626,1731.32 76.746,1731.32 L76.266,1733.08 L79.026,1733.08 C81.466,1733.08 81.746,1733.16 81.746,1733.88 C81.746,1734.24 81.746,1734.24 81.346,1735.68 L77.066,1751.68 C76.546,1753.68 76.506,1753.8 76.146,1754.16 C75.746,1754.56 74.906,1754.68 72.786,1754.72 L71.066,1754.72 L70.866,1756.6 L85.666,1756.6 L85.906,1754.72 L83.746,1754.72 C81.146,1754.72 80.586,1754.52 80.586,1753.64 C80.586,1753.36 80.746,1752.44 80.946,1751.68 L87.226,1728.28 M95.5804,1741.28 C94.3404,1742.04 93.9804,1742.52 93.9804,1743.32 C93.9804,1744.08 94.6204,1744.64 95.4204,1744.64 C96.4604,1744.64 97.0604,1743.88 97.1804,1742.4 C98.4204,1741.4 99.7404,1740.96 101.34,1740.96 C104.3,1740.96 105.94,1742.8 105.94,1746.12 C105.94,1751.32 102.58,1755.56 98.4604,1755.56 C96.1004,1755.56 94.1804,1754.44 94.1804,1753.12 C94.1804,1752.88 94.2204,1752.8 94.4204,1752.68 C95.4604,1752.2 95.4604,1752.2 95.7404,1752 C96.3804,1751.52 96.7404,1750.8 96.7404,1749.96 C96.7404,1748.68 95.7404,1747.72 94.3404,1747.72 C92.5804,1747.72 91.2604,1749.2 91.2604,1751.12 C91.2604,1754.64 94.3004,1757.2 98.5804,1757.2 C105.06,1757.2 110.3,1752.04 110.3,1745.64 C110.3,1741.6 107.22,1738.76 102.86,1738.76 C101.14,1738.76 99.7404,1739.12 97.8204,1740.08 L100.06,1732.52 C102.18,1732.96 103.86,1733.16 105.3,1733.16 C107.94,1733.16 110.3,1732.32 111.62,1730.92 C112.3,1730.12 112.7,1729.44 112.7,1728.92 C112.7,1728.68 112.58,1728.44 112.42,1728.44 C112.3,1728.44 112.22,1728.48 111.98,1728.6 C110.66,1729.24 108.98,1729.6 107.42,1729.6 C105.02,1729.6 102.18,1729.2 99.2204,1728.44 L95.5804,1741.28 "/>
<path class="TieSegment" stroke="#000000" stroke-width="3.92" stroke-linecap="round" stroke-linejoin="round" fill-rule="evenodd" d="M1930.91,392.775 C1974.46,351.837 2105.12,351.837 2148.67,392.775 C2105.12,367.513 1974.46,367.513 1930.91,392.775"/>
<path class="TieSegment" stroke="#000000" stroke-width="3.92" stroke-linecap="round" stroke-linejoin="round" fill-rule="evenodd" d="M2992.97,448.76 C3036.53,407.821 3167.18,407.821 3210.74,448.76 C3167.18,423.497 3036.53,423.497 2992.97,448.76"/>
<path class="TieSegment" stroke="#000000" stroke-width="3.92" stroke-linecap="round" stroke-linejoin="round" fill-rule="evenodd" d="M2260.5,1151.67 C2304.05,1110.73 2434.71,1110.73 2478.27,1151.67 C2434.71,1126.4 2304.05,1126.4 2260.5,1151.67"/>
<path class="TieSegment" stroke="#000000" stroke-width="3.92" stroke-linecap="round" stroke-linejoin="round" fill-rule="evenodd" d="M3366.17,1039.7 C3413.64,995.781 3556.06,995.781 3603.53,1039.7 C3556.06,1011.46 3413.64,1011.46 3366.17,1039.7"/>
<polyline class="BarLine" stroke="#000000" stroke-width="30.79" stroke-linejoin="bevel" points="1005.24,459.677 1005.24,689.772"/>
<polyline class="BarLine" stroke="#000000" stroke-width="10.08" stroke-linejoin="bevel" points="1044.43,459.677 1044.43,689.772"/>
<path class="BarLine" transform="matrix(2.23937,0,0,2.23937,1071.97,546.732)" d="M10.4,0 C10.4,-2.9 8.1,-5.3 5.2,-5.3 C2.3,-5.3 0,-2.9 0,0 C0,2.9 2.3,5.3 5.2,5.3 C8.1,5.3 10.4,2.9 10.4,0"/>
<path class="BarLine" transform="matrix(2.23937,0,0,2.23937,1071.97,602.716)" d="M10.4,0 C10.4,-2.9 8.1,-5.3 5.2,-5.3 C2.3,-5.3 0,-2.9 0,0 C0,2.9 2.3,5.3 5.2,5.3 C8.1,5.3 10.4,2.9 10.4,0"/>
<polyline class="BarLine" stroke="#000000" stroke-width="10.08" stroke-linejoin="bevel" points="1519.39,459.677 1519.39,689.772"/>
<polyline class="BarLine" stroke="#000000" stroke-width="10.08" stroke-linejoin="bevel" points="2045.39,459.677 2045.39,689.772"/>
<polyline class="BarLine" stroke="#000000" stroke-width="10.08" stroke-linejoin="bevel" points="2622.6,459.677 2622.6,689.772"/>
<polyline class="BarLine" stroke="#000000" stroke-width="10.08" stroke-linejoin="bevel" points="3107.45,459.677 3107.45,689.772"/>
<polyline class="BarLine" stroke="#000000" stroke-width="10.08" stroke-linejoin="bevel" points="3684.66,459.677 3684.66,689.772"/>
<polyline class="BarLine" stroke="#000000" stroke-width="10.08" stroke-linejoin="bevel" points="4132.57,459.677 4132.57,689.772"/>
<polyline class="BarLine" stroke="#000000" stroke-width="10.08" stroke-linejoin="bevel" points="1065.76,1162.58 1065.76,1392.68"/>
<polyline class="BarLine" stroke="#000000" stroke-width="10.08" stroke-linejoin="bevel" points="1375.12,1162.58 1375.12,1392.68"/>
<polyline class="BarLine" stroke="#000000" stroke-width="10.08" stroke-linejoin="bevel" points="1921.23,1162.58 1921.23,1392.68"/>
<polyline class="BarLine" stroke="#000000" stroke-width="10.08" stroke-linejoin="bevel" points="2374.98,1162.58 2374.98,1392.68"/>
<polyline class="BarLine" stroke="#000000" stroke-width="10.08" stroke-linejoin="bevel" points="2921.09,1162.58 2921.09,1392.68"/>
<polyline class="BarLine" stroke="#000000" stroke-width="10.08" stroke-linejoin="bevel" points="3480.65,1162.58 3480.65,1392.68"/>
<polyline class="BarLine" stroke="#000000" stroke-width="10.08" stroke-linejoin="bevel" points="4132.57,1162.58 4132.57,1392.68"/>
<polyline class="BarLine" stroke="#000000" stroke-width="10.08" stroke-linejoin="bevel" points="1344.38,1865.49 1344.38,2095.59"/>
<polyline class="BarLine" stroke="#000000" stroke-width="10.08" stroke-linejoin="bevel" points="2483.17,1865.49 2483.17,2095.59"/>
<path class="BarLine" transform="matrix(2.23937,0,0,2.23937,3290.56,1952.55)" d="M10.4,0 C10.4,-2.9 8.1,-5.3 5.2,-5.3 C2.3,-5.3 0,-2.9 0,0 C0,2.9 2.3,5.3 5.2,5.3 C8.1,5.3 10.4,2.9 10.4,0"/>
<path class="BarLine" transform="matrix(2.23937,0,0,2.23937,3290.56,2008.53)" d="M10.4,0 C10.4,-2.9 8.1,-5.3 5.2,-5.3 C2.3,-5.3 0,-2.9 0,0 C0,2.9 2.3,5.3 5.2,5.3 C8.1,5.3 10.4,2.9 10.4,0"/>
<polyline class="BarLine" stroke="#000000" stroke-width="10.08" stroke-linejoin="bevel" points="3341.39,1865.49 3341.39,2095.59"/>
<polyline class="BarLine" stroke="#000000" stroke-width="30.79" stroke-linejoin="bevel" points="3380.58,1865.49 3380.58,2095.59"/>
<polyline class="BarLine" stroke="#000000" stroke-width="10.08" stroke-linejoin="bevel" points="4083.02,1865.49 4083.02,2095.59"/>
<polyline class="BarLine" stroke="#000000" stroke-width="30.79" stroke-linejoin="bevel" points="4122.21,1865.49 4122.21,2095.59"/>
<path class="Accidental" transform="matrix(2.23937,0,0,2.23937,2159.6,1840.58)" d="M20.1,-7.9 C19.5,-11.8 17.1,-15.5 12,-15.5 C7,-15.5 4.1,-12.4 3.6,-11.8 L4,-43.9 C4,-44.7 3.4,-45.3 2.6,-45.3 L1.4,-45.3 C0.6,-45.3 0,-44.7 0,-43.9 L0.5,16.2 C0.5,17 1.1,17.6 1.9,17.6 C2.1,17.6 2.5,17.5 2.7,17.4 C3.1,17.2 9.6,14 15,7.9 C18.8,3.6 20.3,-1.3 20.3,-5.4 C20.3,-6.3 20.2,-7.1 20.1,-7.9 M13.2,-4 C13.2,-2.5 12.8,2.1 10.3,5.9 C8.6,8.5 5.2,11.2 3.3,12.7 L3.6,-6.8 C3.8,-7.7 5.3,-10.6 9.3,-10.6 C12.9,-10.6 13.2,-7.2 13.2,-5.1 L13.2,-4 "/>
<polyline class="LedgerLine" stroke="#000000" stroke-width="8.96" stroke-linejoin="bevel" points="813.512,406.772 925.463,406.772"/>
<polyline class="LedgerLine" stroke="#000000" stroke-width="8.96" stroke-linejoin="bevel" points="1142,406.772 1253.95,406.772"/>
<polyline class="LedgerLine" stroke="#000000" stroke-width="8.96" stroke-linejoin="bevel" points="1318.38,406.772 1430.33,406.772"/>
<polyline class="LedgerLine" stroke="#000000" stroke-width="8.96" stroke-linejoin="bevel" points="1597.2,406.772 1709.16,406.772"/>
<polyline class="LedgerLine" stroke="#000000" stroke-width="8.96" stroke-linejoin="bevel" points="556.319,1109.68 668.27,1109.68"/>
<polyline class="LedgerLine" stroke="#000000" stroke-width="8.96" stroke-linejoin="bevel" points="2998.91,1109.68 3110.86,1109.68"/>
<polyline class="LedgerLine" stroke="#000000" stroke-width="8.96" stroke-linejoin="bevel" points="2998.91,1053.69 3110.86,1053.69"/>
<polyline class="LedgerLine" stroke="#000000" stroke-width="8.96" stroke-linejoin="bevel" points="3176.13,1109.68 3288.08,1109.68"/>
<polyline class="LedgerLine" stroke="#000000" stroke-width="8.96" stroke-linejoin="bevel" points="3299.28,1109.68 3411.23,1109.68"/>
<polyline class="LedgerLine" stroke="#000000" stroke-width="8.96" stroke-linejoin="bevel" points="3558.47,1109.68 3670.42,1109.68"/>
<polyline class="LedgerLine" stroke="#000000" stroke-width="8.96" stroke-linejoin="bevel" points="3820.29,1109.68 3932.24,1109.68"/>
<polyline class="LedgerLine" stroke="#000000" stroke-width="8.96" stroke-linejoin="bevel" points="3951.2,1109.68 4063.15,1109.68"/>
<polyline class="LedgerLine" stroke="#000000" stroke-width="8.96" stroke-linejoin="bevel" points="556.319,1812.58 668.27,1812.58"/>
<polyline class="LedgerLine" stroke="#000000" stroke-width="8.96" stroke-linejoin="bevel" points="556.319,1756.6 668.27,1756.6"/>
<polyline class="LedgerLine" stroke="#000000" stroke-width="8.96" stroke-linejoin="bevel" points="1061.04,1812.58 1173,1812.58"/>
<polyline class="LedgerLine" stroke="#000000" stroke-width="8.96" stroke-linejoin="bevel" points="1061.04,1756.6 1173,1756.6"/>
<polyline class="LedgerLine" stroke="#000000" stroke-width="8.96" stroke-linejoin="bevel" points="1422.2,1812.58 1534.15,1812.58"/>
<polyline class="LedgerLine" stroke="#000000" stroke-width="8.96" stroke-linejoin="bevel" points="1681.28,1812.58 1793.23,1812.58"/>
<polyline class="LedgerLine" stroke="#000000" stroke-width="8.96" stroke-linejoin="bevel" points="2906.18,1812.58 3018.13,1812.58"/>
<polyline class="Stem" stroke="#000000" stroke-width="6.16" stroke-linejoin="bevel" points="836.186,386.304 836.186,574.724"/>
<polyline class="Stem" stroke="#000000" stroke-width="6.16" stroke-linejoin="bevel" points="1164.68,386.304 1164.68,574.724"/>
<polyline class="Stem" stroke="#000000" stroke-width="6.16" stroke-linejoin="bevel" points="1341.05,414.296 1341.05,602.716"/>
<polyline class="Stem" stroke="#000000" stroke-width="6.16" stroke-linejoin="bevel" points="1619.88,414.296 1619.88,602.716"/>
<polyline class="Stem" stroke="#000000" stroke-width="6.16" stroke-linejoin="bevel" points="1784.07,442.288 1784.07,616.712"/>
<polyline class="Stem" stroke="#000000" stroke-width="6.16" stroke-linejoin="bevel" points="1886.69,442.288 1886.69,616.712"/>
<polyline class="Stem" stroke="#000000" stroke-width="6.16" stroke-linejoin="bevel" points="2126.29,442.288 2126.29,630.709"/>
<polyline class="Stem" stroke="#000000" stroke-width="6.16" stroke-linejoin="bevel" points="2238.83,526.264 2238.83,686.693"/>
<polyline class="Stem" stroke="#000000" stroke-width="6.16" stroke-linejoin="bevel" points="2351.36,442.288 2351.36,616.712"/>
<polyline class="Stem" stroke="#000000" stroke-width="6.16" stroke-linejoin="bevel" points="2463.9,470.28 2463.9,630.709"/>
<polyline class="Stem" stroke="#000000" stroke-width="6.16" stroke-linejoin="bevel" points="2703.5,470.28 2703.5,658.701"/>
<polyline class="Stem" stroke="#000000" stroke-width="6.16" stroke-linejoin="bevel" points="2854.43,498.272 2854.43,672.697"/>
<polyline class="Stem" stroke="#000000" stroke-width="6.16" stroke-linejoin="bevel" points="2948.76,498.272 2948.76,672.697"/>
<polyline class="Stem" stroke="#000000" stroke-width="6.16" stroke-linejoin="bevel" points="3188.35,498.272 3188.35,672.697"/>
<polyline class="Stem" stroke="#000000" stroke-width="6.16" stroke-linejoin="bevel" points="3300.89,554.256 3300.89,700.689"/>
<polyline class="Stem" stroke="#000000" stroke-width="6.16" stroke-linejoin="bevel" points="3413.43,526.264 3413.43,686.693"/>
<polyline class="Stem" stroke="#000000" stroke-width="6.16" stroke-linejoin="bevel" points="3525.96,498.272 3525.96,672.697"/>
<polyline class="Stem" stroke="#000000" stroke-width="6.16" stroke-linejoin="bevel" points="3765.56,470.28 3765.56,658.701"/>
<polyline class="Stem" stroke="#000000" stroke-width="6.16" stroke-linejoin="bevel" points="3973.87,442.288 3973.87,630.709"/>
<polyline class="Stem" stroke="#000000" stroke-width="6.16" stroke-linejoin="bevel" points="578.993,1117.2 578.993,1277.63"/>
<polyline class="Stem" stroke="#000000" stroke-width="6.16" stroke-linejoin="bevel" points="688.348,1145.19 688.348,1291.63"/>
<polyline class="Stem" stroke="#000000" stroke-width="6.16" stroke-linejoin="bevel" points="797.703,1173.19 797.703,1333.62"/>
<polyline class="Stem" stroke="#000000" stroke-width="6.16" stroke-linejoin="bevel" points="907.058,1201.18 907.058,1347.61"/>
<polyline class="Stem" stroke="#000000" stroke-width="6.16" stroke-linejoin="bevel" points="1146.65,1229.17 1146.65,1410.59"/>
<polyline class="Stem" stroke="#000000" stroke-width="6.16" stroke-linejoin="bevel" points="1558.19,1285.16 1558.19,1473.58"/>
<polyline class="Stem" stroke="#000000" stroke-width="6.16" stroke-linejoin="bevel" points="1660.36,1257.16 1660.36,1403.6"/>
<polyline class="Stem" stroke="#000000" stroke-width="6.16" stroke-linejoin="bevel" points="1762.53,1229.17 1762.53,1389.6"/>
<polyline class="Stem" stroke="#000000" stroke-width="6.16" stroke-linejoin="bevel" points="2002.13,1173.19 2002.13,1361.61"/>
<polyline class="Stem" stroke="#000000" stroke-width="6.16" stroke-linejoin="bevel" points="2132.33,1201.18 2132.33,1375.6"/>
<polyline class="Stem" stroke="#000000" stroke-width="6.16" stroke-linejoin="bevel" points="2216.28,1201.18 2216.28,1375.6"/>
<polyline class="Stem" stroke="#000000" stroke-width="6.16" stroke-linejoin="bevel" points="2455.88,1201.18 2455.88,1375.6"/>
<polyline class="Stem" stroke="#000000" stroke-width="6.16" stroke-linejoin="bevel" points="2558.05,1201.18 2558.05,1375.6"/>
<polyline class="Stem" stroke="#000000" stroke-width="6.16" stroke-linejoin="bevel" points="2660.22,1173.19 2660.22,1333.62"/>
<polyline class="Stem" stroke="#000000" stroke-width="6.16" stroke-linejoin="bevel" points="2762.39,1145.19 2762.39,1319.62"/>
<polyline class="Stem" stroke="#000000" stroke-width="6.16" stroke-linejoin="bevel" points="3021.58,1061.22 3021.58,1277.63"/>
<polyline class="Stem" stroke="#000000" stroke-width="6.16" stroke-linejoin="bevel" points="3198.81,1089.21 3198.81,1263.63"/>
<polyline class="Stem" stroke="#000000" stroke-width="6.16" stroke-linejoin="bevel" points="3321.95,1089.21 3321.95,1263.63"/>
<polyline class="Stem" stroke="#000000" stroke-width="6.16" stroke-linejoin="bevel" points="3581.14,1089.21 3581.14,1263.63"/>
<polyline class="Stem" stroke="#000000" stroke-width="6.16" stroke-linejoin="bevel" points="3712.05,1145.19 3712.05,1291.63"/>
<polyline class="Stem" stroke="#000000" stroke-width="6.16" stroke-linejoin="bevel" points="3842.96,1117.2 3842.96,1277.63"/>
<polyline class="Stem" stroke="#000000" stroke-width="6.16" stroke-linejoin="bevel" points="3973.87,1089.21 3973.87,1263.63"/>
<polyline class="Stem" stroke="#000000" stroke-width="6.16" stroke-linejoin="bevel" points="578.993,1736.13 578.993,1980.54"/>
<polyline class="Stem" stroke="#000000" stroke-width="6.16" stroke-linejoin="bevel" points="1083.72,1764.12 1083.72,1980.54"/>
<polyline class="Stem" stroke="#000000" stroke-width="6.16" stroke-linejoin="bevel" points="1444.87,1792.12 1444.87,1966.54"/>
<polyline class="Stem" stroke="#000000" stroke-width="6.16" stroke-linejoin="bevel" points="1703.96,1820.11 1703.96,1980.54"/>
<polyline class="Stem" stroke="#000000" stroke-width="6.16" stroke-linejoin="bevel" points="1963.04,1848.1 1963.04,2022.53"/>
<polyline class="Stem" stroke="#000000" stroke-width="6.16" stroke-linejoin="bevel" points="2222.12,1848.1 2222.12,2022.53"/>
<polyline class="Stem" stroke="#000000" stroke-width="6.16" stroke-linejoin="bevel" points="2564.06,1848.1 2564.06,2036.52"/>
<polyline class="Stem" stroke="#000000" stroke-width="6.16" stroke-linejoin="bevel" points="2928.85,1792.12 2928.85,1980.54"/>
<polyline class="Stem" stroke="#000000" stroke-width="6.16" stroke-linejoin="bevel" points="3465.39,1848.1 3465.39,2036.52"/>
<path class="Note" transform="matrix(2.23937,0,0,2.23937,833.107,378.779)" d="M31.5,-8.1 C29.7,-11.4 25.9,-13.2 21.3,-13.2 C17.9,-13.2 14.2,-12.2 10.6,-10.3 C4,-6.8 0,-0.9 0,4.2 C0,5.6 0.3,7 1,8.3 C2.8,11.6 6.6,13.3 11.2,13.3 C14.6,13.3 18.3,12.4 21.9,10.5 C28.5,7 32.5,1.1 32.5,-4 C32.5,-5.4 32.2,-6.8 31.5,-8.1"/>
<path class="Note" transform="matrix(2.23937,0,0,2.23937,1161.6,378.779)" d="M31.5,-8.1 C29.7,-11.4 25.9,-13.2 21.3,-13.2 C17.9,-13.2 14.2,-12.2 10.6,-10.3 C4,-6.8 0,-0.9 0,4.2 C0,5.6 0.3,7 1,8.3 C2.8,11.6 6.6,13.3 11.2,13.3 C14.6,13.3 18.3,12.4 21.9,10.5 C28.5,7 32.5,1.1 32.5,-4 C32.5,-5.4 32.2,-6.8 31.5,-8.1"/>
<path class="Note" transform="matrix(2.23937,0,0,2.23937,1337.97,406.772)" d="M31.5,-8.1 C29.7,-11.4 25.9,-13.2 21.3,-13.2 C17.9,-13.2 14.2,-12.2 10.6,-10.3 C4,-6.8 0,-0.9 0,4.2 C0,5.6 0.3,7 1,8.3 C2.8,11.6 6.6,13.3 11.2,13.3 C14.6,13.3 18.3,12.4 21.9,10.5 C28.5,7 32.5,1.1 32.5,-4 C32.5,-5.4 32.2,-6.8 31.5,-8.1"/>
<path class="Note" transform="matrix(2.23937,0,0,2.23937,1616.8,406.772)" d="M31.5,-8.1 C29.7,-11.4 25.9,-13.2 21.3,-13.2 C17.9,-13.2 14.2,-12.2 10.6,-10.3 C4,-6.8 0,-0.9 0,4.2 C0,5.6 0.3,7 1,8.3 C2.8,11.6 6.6,13.3 11.2,13.3 C14.6,13.3 18.3,12.4 21.9,10.5 C28.5,7 32.5,1.1 32.5,-4 C32.5,-5.4 32.2,-6.8 31.5,-8.1"/>
<path class="Note" transform="matrix(2.23937,0,0,2.23937,1780.99,434.764)" d="M31.5,-8.1 C29.7,-11.4 25.9,-13.2 21.3,-13.2 C17.9,-13.2 14.2,-12.2 10.6,-10.3 C4,-6.8 0,-0.9 0,4.2 C0,5.6 0.3,7 1,8.3 C2.8,11.6 6.6,13.3 11.2,13.3 C14.6,13.3 18.3,12.4 21.9,10.5 C28.5,7 32.5,1.1 32.5,-4 C32.5,-5.4 32.2,-6.8 31.5,-8.1"/>
<path class="Note" transform="matrix(2.23937,0,0,2.23937,1883.61,434.764)" d="M31.5,-8.1 C29.7,-11.4 25.9,-13.2 21.3,-13.2 C17.9,-13.2 14.2,-12.2 10.6,-10.3 C4,-6.8 0,-0.9 0,4.2 C0,5.6 0.3,7 1,8.3 C2.8,11.6 6.6,13.3 11.2,13.3 C14.6,13.3 18.3,12.4 21.9,10.5 C28.5,7 32.5,1.1 32.5,-4 C32.5,-5.4 32.2,-6.8 31.5,-8.1"/>
<path class="Note" transform="matrix(2.23937,0,0,2.23937,2123.21,434.764)" d="M31.5,-8.1 C29.7,-11.4 25.9,-13.2 21.3,-13.2 C17.9,-13.2 14.2,-12.2 10.6,-10.3 C4,-6.8 0,-0.9 0,4.2 C0,5.6 0.3,7 1,8.3 C2.8,11.6 6.6,13.3 11.2,13.3 C14.6,13.3 18.3,12.4 21.9,10.5 C28.5,7 32.5,1.1 32.5,-4 C32.5,-5.4 32.2,-6.8 31.5,-8.1"/>
<path class="Note" transform="matrix(2.23937,0,0,2.23937,2235.75,518.74)" d="M31.5,-8.1 C29.7,-11.4 25.9,-13.2 21.3,-13.2 C17.9,-13.2 14.2,-12.2 10.6,-10.3 C4,-6.8 0,-0.9 0,4.2 C0,5.6 0.3,7 1,8.3 C2.8,11.6 6.6,13.3 11.2,13.3 C14.6,13.3 18.3,12.4 21.9,10.5 C28.5,7 32.5,1.1 32.5,-4 C32.5,-5.4 32.2,-6.8 31.5,-8.1"/>
<path class="Note" transform="matrix(2.23937,0,0,2.23937,2348.28,434.764)" d="M31.5,-8.1 C29.7,-11.4 25.9,-13.2 21.3,-13.2 C17.9,-13.2 14.2,-12.2 10.6,-10.3 C4,-6.8 0,-0.9 0,4.2 C0,5.6 0.3,7 1,8.3 C2.8,11.6 6.6,13.3 11.2,13.3 C14.6,13.3 18.3,12.4 21.9,10.5 C28.5,7 32.5,1.1 32.5,-4 C32.5,-5.4 32.2,-6.8 31.5,-8.1"/>
<path class="Note" transform="matrix(2.23937,0,0,2.23937,2460.82,462.756)" d="M31.5,-8.1 C29.7,-11.4 25.9,-13.2 21.3,-13.2 C17.9,-13.2 14.2,-12.2 10.6,-10.3 C4,-6.8 0,-0.9 0,4.2 C0,5.6 0.3,7 1,8.3 C2.8,11.6 6.6,13.3 11.2,13.3 C14.6,13.3 18.3,12.4 21.9,10.5 C28.5,7 32.5,1.1 32.5,-4 C32.5,-5.4 32.2,-6.8 31.5,-8.1"/>
<path class="Note" transform="matrix(2.23937,0,0,2.23937,2700.42,462.756)" d="M31.5,-8.1 C29.7,-11.4 25.9,-13.2 21.3,-13.2 C17.9,-13.2 14.2,-12.2 10.6,-10.3 C4,-6.8 0,-0.9 0,4.2 C0,5.6 0.3,7 1,8.3 C2.8,11.6 6.6,13.3 11.2,13.3 C14.6,13.3 18.3,12.4 21.9,10.5 C28.5,7 32.5,1.1 32.5,-4 C32.5,-5.4 32.2,-6.8 31.5,-8.1"/>
<path class="Note" transform="matrix(2.23937,0,0,2.23937,2851.35,490.748)" d="M31.5,-8.1 C29.7,-11.4 25.9,-13.2 21.3,-13.2 C17.9,-13.2 14.2,-12.2 10.6,-10.3 C4,-6.8 0,-0.9 0,4.2 C0,5.6 0.3,7 1,8.3 C2.8,11.6 6.6,13.3 11.2,13.3 C14.6,13.3 18.3,12.4 21.9,10.5 C28.5,7 32.5,1.1 32.5,-4 C32.5,-5.4 32.2,-6.8 31.5,-8.1"/>
<path class="Note" transform="matrix(2.23937,0,0,2.23937,2945.68,490.748)" d="M31.5,-8.1 C29.7,-11.4 25.9,-13.2 21.3,-13.2 C17.9,-13.2 14.2,-12.2 10.6,-10.3 C4,-6.8 0,-0.9 0,4.2 C0,5.6 0.3,7 1,8.3 C2.8,11.6 6.6,13.3 11.2,13.3 C14.6,13.3 18.3,12.4 21.9,10.5 C28.5,7 32.5,1.1 32.5,-4 C32.5,-5.4 32.2,-6.8 31.5,-8.1"/>
<path class="Note" transform="matrix(2.23937,0,0,2.23937,3185.27,490.748)" d="M31.5,-8.1 C29.7,-11.4 25.9,-13.2 21.3,-13.2 C17.9,-13.2 14.2,-12.2 10.6,-10.3 C4,-6.8 0,-0.9 0,4.2 C0,5.6 0.3,7 1,8.3 C2.8,11.6 6.6,13.3 11.2,13.3 C14.6,13.3 18.3,12.4 21.9,10.5 C28.5,7 32.5,1.1 32.5,-4 C32.5,-5.4 32.2,-6.8 31.5,-8.1"/>
<path class="Note" transform="matrix(2.23937,0,0,2.23937,3297.81,546.732)" d="M31.5,-8.1 C29.7,-11.4 25.9,-13.2 21.3,-13.2 C17.9,-13.2 14.2,-12.2 10.6,-10.3 C4,-6.8 0,-0.9 0,4.2 C0,5.6 0.3,7 1,8.3 C2.8,11.6 6.6,13.3 11.2,13.3 C14.6,13.3 18.3,12.4 21.9,10.5 C28.5,7 32.5,1.1 32.5,-4 C32.5,-5.4 32.2,-6.8 31.5,-8.1"/>
<path class="Note" transform="matrix(2.23937,0,0,2.23937,3410.35,518.74)" d="M31.5,-8.1 C29.7,-11.4 25.9,-13.2 21.3,-13.2 C17.9,-13.2 14.2,-12.2 10.6,-10.3 C4,-6.8 0,-0.9 0,4.2 C0,5.6 0.3,7 1,8.3 C2.8,11.6 6.6,13.3 11.2,13.3 C14.6,13.3 18.3,12.4 21.9,10.5 C28.5,7 32.5,1.1 32.5,-4 C32.5,-5.4 32.2,-6.8 31.5,-8.1"/>
<path class="Note" transform="matrix(2.23937,0,0,2.23937,3522.89,490.748)" d="M31.5,-8.1 C29.7,-11.4 25.9,-13.2 21.3,-13.2 C17.9,-13.2 14.2,-12.2 10.6,-10.3 C4,-6.8 0,-0.9 0,4.2 C0,5.6 0.3,7 1,8.3 C2.8,11.6 6.6,13.3 11.2,13.3 C14.6,13.3 18.3,12.4 21.9,10.5 C28.5,7 32.5,1.1 32.5,-4 C32.5,-5.4 32.2,-6.8 31.5,-8.1"/>
<path class="Note" transform="matrix(2.23937,0,0,2.23937,3762.48,462.756)" d="M31.5,-8.1 C29.7,-11.4 25.9,-13.2 21.3,-13.2 C17.9,-13.2 14.2,-12.2 10.6,-10.3 C4,-6.8 0,-0.9 0,4.2 C0,5.6 0.3,7 1,8.3 C2.8,11.6 6.6,13.3 11.2,13.3 C14.6,13.3 18.3,12.4 21.9,10.5 C28.5,7 32.5,1.1 32.5,-4 C32.5,-5.4 32.2,-6.8 31.5,-8.1"/>
<path class="Note" transform="matrix(2.23937,0,0,2.23937,3970.79,434.764)" d="M31.5,-8.1 C29.7,-11.4 25.9,-13.2 21.3,-13.2 C17.9,-13.2 14.2,-12.2 10.6,-10.3 C4,-6.8 0,-0.9 0,4.2 C0,5.6 0.3,7 1,8.3 C2.8,11.6 6.6,13.3 11.2,13.3 C14.6,13.3 18.3,12.4 21.9,10.5 C28.5,7 32.5,1.1 32.5,-4 C32.5,-5.4 32.2,-6.8 31.5,-8.1"/>
<path class="Note" transform="matrix(2.23937,0,0,2.23937,575.914,1109.68)" d="M31.5,-8.1 C29.7,-11.4 25.9,-13.2 21.3,-13.2 C17.9,-13.2 14.2,-12.2 10.6,-10.3 C4,-6.8 0,-0.9 0,4.2 C0,5.6 0.3,7 1,8.3 C2.8,11.6 6.6,13.3 11.2,13.3 C14.6,13.3 18.3,12.4 21.9,10.5 C28.5,7 32.5,1.1 32.5,-4 C32.5,-5.4 32.2,-6.8 31.5,-8.1"/>
<path class="Note" transform="matrix(2.23937,0,0,2.23937,685.269,1137.67)" d="M31.5,-8.1 C29.7,-11.4 25.9,-13.2 21.3,-13.2 C17.9,-13.2 14.2,-12.2 10.6,-10.3 C4,-6.8 0,-0.9 0,4.2 C0,5.6 0.3,7 1,8.3 C2.8,11.6 6.6,13.3 11.2,13.3 C14.6,13.3 18.3,12.4 21.9,10.5 C28.5,7 32.5,1.1 32.5,-4 C32.5,-5.4 32.2,-6.8 31.5,-8.1"/>
<path class="Note" transform="matrix(2.23937,0,0,2.23937,794.624,1165.66)" d="M31.5,-8.1 C29.7,-11.4 25.9,-13.2 21.3,-13.2 C17.9,-13.2 14.2,-12.2 10.6,-10.3 C4,-6.8 0,-0.9 0,4.2 C0,5.6 0.3,7 1,8.3 C2.8,11.6 6.6,13.3 11.2,13.3 C14.6,13.3 18.3,12.4 21.9,10.5 C28.5,7 32.5,1.1 32.5,-4 C32.5,-5.4 32.2,-6.8 31.5,-8.1"/>
<path class="Note" transform="matrix(2.23937,0,0,2.23937,903.979,1193.65)" d="M31.5,-8.1 C29.7,-11.4 25.9,-13.2 21.3,-13.2 C17.9,-13.2 14.2,-12.2 10.6,-10.3 C4,-6.8 0,-0.9 0,4.2 C0,5.6 0.3,7 1,8.3 C2.8,11.6 6.6,13.3 11.2,13.3 C14.6,13.3 18.3,12.4 21.9,10.5 C28.5,7 32.5,1.1 32.5,-4 C32.5,-5.4 32.2,-6.8 31.5,-8.1"/>
<path class="Note" transform="matrix(2.23937,0,0,2.23937,1143.57,1221.65)" d="M31.5,-8.1 C29.7,-11.4 25.9,-13.2 21.3,-13.2 C17.9,-13.2 14.2,-12.2 10.6,-10.3 C4,-6.8 0,-0.9 0,4.2 C0,5.6 0.3,7 1,8.3 C2.8,11.6 6.6,13.3 11.2,13.3 C14.6,13.3 18.3,12.4 21.9,10.5 C28.5,7 32.5,1.1 32.5,-4 C32.5,-5.4 32.2,-6.8 31.5,-8.1 M27.2,-1.3 C25.5,0.4 22.1,2.5 18.5,4.5 C14.9,6.5 11.3,8 8.9,8.5 C8.4,8.6 7.9,8.7 7.4,8.7 C5.8,8.7 4.6,8.1 3.9,6.8 C3.6,6.3 3.4,5.7 3.4,5.1 C3.4,4 4.1,2.7 5.2,1.6 C6.9,-0.1 10.2,-2.2 13.8,-4.2 C17.4,-6.2 21,-7.7 23.4,-8.2 C23.9,-8.3 24.4,-8.4 24.9,-8.4 C26.5,-8.4 27.8,-7.8 28.5,-6.5 C28.8,-6 28.9,-5.4 28.9,-4.8 C28.9,-3.7 28.3,-2.5 27.2,-1.3"/>
<path class="Note" transform="matrix(2.23937,0,0,2.23937,1555.11,1277.63)" d="M31.5,-8.1 C29.7,-11.4 25.9,-13.2 21.3,-13.2 C17.9,-13.2 14.2,-12.2 10.6,-10.3 C4,-6.8 0,-0.9 0,4.2 C0,5.6 0.3,7 1,8.3 C2.8,11.6 6.6,13.3 11.2,13.3 C14.6,13.3 18.3,12.4 21.9,10.5 C28.5,7 32.5,1.1 32.5,-4 C32.5,-5.4 32.2,-6.8 31.5,-8.1"/>
<path class="Note" transform="matrix(2.23937,0,0,2.23937,1657.28,1249.64)" d="M31.5,-8.1 C29.7,-11.4 25.9,-13.2 21.3,-13.2 C17.9,-13.2 14.2,-12.2 10.6,-10.3 C4,-6.8 0,-0.9 0,4.2 C0,5.6 0.3,7 1,8.3 C2.8,11.6 6.6,13.3 11.2,13.3 C14.6,13.3 18.3,12.4 21.9,10.5 C28.5,7 32.5,1.1 32.5,-4 C32.5,-5.4 32.2,-6.8 31.5,-8.1"/>
<path class="Note" transform="matrix(2.23937,0,0,2.23937,1759.45,1221.65)" d="M31.5,-8.1 C29.7,-11.4 25.9,-13.2 21.3,-13.2 C17.9,-13.2 14.2,-12.2 10.6,-10.3 C4,-6.8 0,-0.9 0,4.2 C0,5.6 0.3,7 1,8.3 C2.8,11.6 6.6,13.3 11.2,13.3 C14.6,13.3 18.3,12.4 21.9,10.5 C28.5,7 32.5,1.1 32.5,-4 C32.5,-5.4 32.2,-6.8 31.5,-8.1"/>
<path class="Note" transform="matrix(2.23937,0,0,2.23937,1999.05,1165.66)" d="M31.5,-8.1 C29.7,-11.4 25.9,-13.2 21.3,-13.2 C17.9,-13.2 14.2,-12.2 10.6,-10.3 C4,-6.8 0,-0.9 0,4.2 C0,5.6 0.3,7 1,8.3 C2.8,11.6 6.6,13.3 11.2,13.3 C14.6,13.3 18.3,12.4 21.9,10.5 C28.5,7 32.5,1.1 32.5,-4 C32.5,-5.4 32.2,-6.8 31.5,-8.1"/>
<path class="Note" transform="matrix(2.23937,0,0,2.23937,2129.25,1193.65)" d="M31.5,-8.1 C29.7,-11.4 25.9,-13.2 21.3,-13.2 C17.9,-13.2 14.2,-12.2 10.6,-10.3 C4,-6.8 0,-0.9 0,4.2 C0,5.6 0.3,7 1,8.3 C2.8,11.6 6.6,13.3 11.2,13.3 C14.6,13.3 18.3,12.4 21.9,10.5 C28.5,7 32.5,1.1 32.5,-4 C32.5,-5.4 32.2,-6.8 31.5,-8.1"/>
<path class="Note" transform="matrix(2.23937,0,0,2.23937,2213.21,1193.65)" d="M31.5,-8.1 C29.7,-11.4 25.9,-13.2 21.3,-13.2 C17.9,-13.2 14.2,-12.2 10.6,-10.3 C4,-6.8 0,-0.9 0,4.2 C0,5.6 0.3,7 1,8.3 C2.8,11.6 6.6,13.3 11.2,13.3 C14.6,13.3 18.3,12.4 21.9,10.5 C28.5,7 32.5,1.1 32.5,-4 C32.5,-5.4 32.2,-6.8 31.5,-8.1"/>
<path class="Note" transform="matrix(2.23937,0,0,2.23937,2452.8,1193.65)" d="M31.5,-8.1 C29.7,-11.4 25.9,-13.2 21.3,-13.2 C17.9,-13.2 14.2,-12.2 10.6,-10.3 C4,-6.8 0,-0.9 0,4.2 C0,5.6 0.3,7 1,8.3 C2.8,11.6 6.6,13.3 11.2,13.3 C14.6,13.3 18.3,12.4 21.9,10.5 C28.5,7 32.5,1.1 32.5,-4 C32.5,-5.4 32.2,-6.8 31.5,-8.1"/>
<path class="Note" transform="matrix(2.23937,0,0,2.23937,2554.97,1193.65)" d="M31.5,-8.1 C29.7,-11.4 25.9,-13.2 21.3,-13.2 C17.9,-13.2 14.2,-12.2 10.6,-10.3 C4,-6.8 0,-0.9 0,4.2 C0,5.6 0.3,7 1,8.3 C2.8,11.6 6.6,13.3 11.2,13.3 C14.6,13.3 18.3,12.4 21.9,10.5 C28.5,7 32.5,1.1 32.5,-4 C32.5,-5.4 32.2,-6.8 31.5,-8.1"/>
<path class="Note" transform="matrix(2.23937,0,0,2.23937,2657.14,1165.66)" d="M31.5,-8.1 C29.7,-11.4 25.9,-13.2 21.3,-13.2 C17.9,-13.2 14.2,-12.2 10.6,-10.3 C4,-6.8 0,-0.9 0,4.2 C0,5.6 0.3,7 1,8.3 C2.8,11.6 6.6,13.3 11.2,13.3 C14.6,13.3 18.3,12.4 21.9,10.5 C28.5,7 32.5,1.1 32.5,-4 C32.5,-5.4 32.2,-6.8 31.5,-8.1"/>
<path class="Note" transform="matrix(2.23937,0,0,2.23937,2759.31,1137.67)" d="M31.5,-8.1 C29.7,-11.4 25.9,-13.2 21.3,-13.2 C17.9,-13.2 14.2,-12.2 10.6,-10.3 C4,-6.8 0,-0.9 0,4.2 C0,5.6 0.3,7 1,8.3 C2.8,11.6 6.6,13.3 11.2,13.3 C14.6,13.3 18.3,12.4 21.9,10.5 C28.5,7 32.5,1.1 32.5,-4 C32.5,-5.4 32.2,-6.8 31.5,-8.1"/>
<path class="Note" transform="matrix(2.23937,0,0,2.23937,3018.5,1053.69)" d="M31.5,-8.1 C29.7,-11.4 25.9,-13.2 21.3,-13.2 C17.9,-13.2 14.2,-12.2 10.6,-10.3 C4,-6.8 0,-0.9 0,4.2 C0,5.6 0.3,7 1,8.3 C2.8,11.6 6.6,13.3 11.2,13.3 C14.6,13.3 18.3,12.4 21.9,10.5 C28.5,7 32.5,1.1 32.5,-4 C32.5,-5.4 32.2,-6.8 31.5,-8.1"/>
<path class="Note" transform="matrix(2.23937,0,0,2.23937,3195.73,1081.69)" d="M31.5,-8.1 C29.7,-11.4 25.9,-13.2 21.3,-13.2 C17.9,-13.2 14.2,-12.2 10.6,-10.3 C4,-6.8 0,-0.9 0,4.2 C0,5.6 0.3,7 1,8.3 C2.8,11.6 6.6,13.3 11.2,13.3 C14.6,13.3 18.3,12.4 21.9,10.5 C28.5,7 32.5,1.1 32.5,-4 C32.5,-5.4 32.2,-6.8 31.5,-8.1"/>
<path class="Note" transform="matrix(2.23937,0,0,2.23937,3318.87,1081.69)" d="M31.5,-8.1 C29.7,-11.4 25.9,-13.2 21.3,-13.2 C17.9,-13.2 14.2,-12.2 10.6,-10.3 C4,-6.8 0,-0.9 0,4.2 C0,5.6 0.3,7 1,8.3 C2.8,11.6 6.6,13.3 11.2,13.3 C14.6,13.3 18.3,12.4 21.9,10.5 C28.5,7 32.5,1.1 32.5,-4 C32.5,-5.4 32.2,-6.8 31.5,-8.1"/>
<path class="Note" transform="matrix(2.23937,0,0,2.23937,3578.06,1081.69)" d="M31.5,-8.1 C29.7,-11.4 25.9,-13.2 21.3,-13.2 C17.9,-13.2 14.2,-12.2 10.6,-10.3 C4,-6.8 0,-0.9 0,4.2 C0,5.6 0.3,7 1,8.3 C2.8,11.6 6.6,13.3 11.2,13.3 C14.6,13.3 18.3,12.4 21.9,10.5 C28.5,7 32.5,1.1 32.5,-4 C32.5,-5.4 32.2,-6.8 31.5,-8.1"/>
<path class="Note" transform="matrix(2.23937,0,0,2.23937,3708.97,1137.67)" d="M31.5,-8.1 C29.7,-11.4 25.9,-13.2 21.3,-13.2 C17.9,-13.2 14.2,-12.2 10.6,-10.3 C4,-6.8 0,-0.9 0,4.2 C0,5.6 0.3,7 1,8.3 C2.8,11.6 6.6,13.3 11.2,13.3 C14.6,13.3 18.3,12.4 21.9,10.5 C28.5,7 32.5,1.1 32.5,-4 C32.5,-5.4 32.2,-6.8 31.5,-8.1"/>
<path class="Note" transform="matrix(2.23937,0,0,2.23937,3839.88,1109.68)" d="M31.5,-8.1 C29.7,-11.4 25.9,-13.2 21.3,-13.2 C17.9,-13.2 14.2,-12.2 10.6,-10.3 C4,-6.8 0,-0.9 0,4.2 C0,5.6 0.3,7 1,8.3 C2.8,11.6 6.6,13.3 11.2,13.3 C14.6,13.3 18.3,12.4 21.9,10.5 C28.5,7 32.5,1.1 32.5,-4 C32.5,-5.4 32.2,-6.8 31.5,-8.1"/>
<path class="Note" transform="matrix(2.23937,0,0,2.23937,3970.79,1081.69)" d="M31.5,-8.1 C29.7,-11.4 25.9,-13.2 21.3,-13.2 C17.9,-13.2 14.2,-12.2 10.6,-10.3 C4,-6.8 0,-0.9 0,4.2 C0,5.6 0.3,7 1,8.3 C2.8,11.6 6.6,13.3 11.2,13.3 C14.6,13.3 18.3,12.4 21.9,10.5 C28.5,7 32.5,1.1 32.5,-4 C32.5,-5.4 32.2,-6.8 31.5,-8.1"/>
<path class="Note" transform="matrix(2.23937,0,0,2.23937,575.914,1728.61)" d="M31.5,-8.1 C29.7,-11.4 25.9,-13.2 21.3,-13.2 C17.9,-13.2 14.2,-12.2 10.6,-10.3 C4,-6.8 0,-0.9 0,4.2 C0,5.6 0.3,7 1,8.3 C2.8,11.6 6.6,13.3 11.2,13.3 C14.6,13.3 18.3,12.4 21.9,10.5 C28.5,7 32.5,1.1 32.5,-4 C32.5,-5.4 32.2,-6.8 31.5,-8.1"/>
<path class="Note" transform="matrix(2.23937,0,0,2.23937,1080.64,1756.6)" d="M31.5,-8.1 C29.7,-11.4 25.9,-13.2 21.3,-13.2 C17.9,-13.2 14.2,-12.2 10.6,-10.3 C4,-6.8 0,-0.9 0,4.2 C0,5.6 0.3,7 1,8.3 C2.8,11.6 6.6,13.3 11.2,13.3 C14.6,13.3 18.3,12.4 21.9,10.5 C28.5,7 32.5,1.1 32.5,-4 C32.5,-5.4 32.2,-6.8 31.5,-8.1"/>
<path class="Note" transform="matrix(2.23937,0,0,2.23937,1441.79,1784.59)" d="M31.5,-8.1 C29.7,-11.4 25.9,-13.2 21.3,-13.2 C17.9,-13.2 14.2,-12.2 10.6,-10.3 C4,-6.8 0,-0.9 0,4.2 C0,5.6 0.3,7 1,8.3 C2.8,11.6 6.6,13.3 11.2,13.3 C14.6,13.3 18.3,12.4 21.9,10.5 C28.5,7 32.5,1.1 32.5,-4 C32.5,-5.4 32.2,-6.8 31.5,-8.1"/>
<path class="Note" transform="matrix(2.23937,0,0,2.23937,1700.88,1812.58)" d="M31.5,-8.1 C29.7,-11.4 25.9,-13.2 21.3,-13.2 C17.9,-13.2 14.2,-12.2 10.6,-10.3 C4,-6.8 0,-0.9 0,4.2 C0,5.6 0.3,7 1,8.3 C2.8,11.6 6.6,13.3 11.2,13.3 C14.6,13.3 18.3,12.4 21.9,10.5 C28.5,7 32.5,1.1 32.5,-4 C32.5,-5.4 32.2,-6.8 31.5,-8.1"/>
<path class="Note" transform="matrix(2.23937,0,0,2.23937,1959.96,1840.58)" d="M31.5,-8.1 C29.7,-11.4 25.9,-13.2 21.3,-13.2 C17.9,-13.2 14.2,-12.2 10.6,-10.3 C4,-6.8 0,-0.9 0,4.2 C0,5.6 0.3,7 1,8.3 C2.8,11.6 6.6,13.3 11.2,13.3 C14.6,13.3 18.3,12.4 21.9,10.5 C28.5,7 32.5,1.1 32.5,-4 C32.5,-5.4 32.2,-6.8 31.5,-8.1"/>
<path class="Note" transform="matrix(2.23937,0,0,2.23937,2219.04,1840.58)" d="M31.5,-8.1 C29.7,-11.4 25.9,-13.2 21.3,-13.2 C17.9,-13.2 14.2,-12.2 10.6,-10.3 C4,-6.8 0,-0.9 0,4.2 C0,5.6 0.3,7 1,8.3 C2.8,11.6 6.6,13.3 11.2,13.3 C14.6,13.3 18.3,12.4 21.9,10.5 C28.5,7 32.5,1.1 32.5,-4 C32.5,-5.4 32.2,-6.8 31.5,-8.1"/>
<path class="Note" transform="matrix(2.23937,0,0,2.23937,2560.99,1840.58)" d="M31.5,-8.1 C29.7,-11.4 25.9,-13.2 21.3,-13.2 C17.9,-13.2 14.2,-12.2 10.6,-10.3 C4,-6.8 0,-0.9 0,4.2 C0,5.6 0.3,7 1,8.3 C2.8,11.6 6.6,13.3 11.2,13.3 C14.6,13.3 18.3,12.4 21.9,10.5 C28.5,7 32.5,1.1 32.5,-4 C32.5,-5.4 32.2,-6.8 31.5,-8.1"/>
<path class="Note" transform="matrix(2.23937,0,0,2.23937,2925.77,1784.59)" d="M31.5,-8.1 C29.7,-11.4 25.9,-13.2 21.3,-13.2 C17.9,-13.2 14.2,-12.2 10.6,-10.3 C4,-6.8 0,-0.9 0,4.2 C0,5.6 0.3,7 1,8.3 C2.8,11.6 6.6,13.3 11.2,13.3 C14.6,13.3 18.3,12.4 21.9,10.5 C28.5,7 32.5,1.1 32.5,-4 C32.5,-5.4 32.2,-6.8 31.5,-8.1"/>
<path class="Note" transform="matrix(2.23937,0,0,2.23937,3462.31,1840.58)" d="M31.5,-8.1 C29.7,-11.4 25.9,-13.2 21.3,-13.2 C17.9,-13.2 14.2,-12.2 10.6,-10.3 C4,-6.8 0,-0.9 0,4.2 C0,5.6 0.3,7 1,8.3 C2.8,11.6 6.6,13.3 11.2,13.3 C14.6,13.3 18.3,12.4 21.9,10.5 C28.5,7 32.5,1.1 32.5,-4 C32.5,-5.4 32.2,-6.8 31.5,-8.1 M27.2,-1.3 C25.5,0.4 22.1,2.5 18.5,4.5 C14.9,6.5 11.3,8 8.9,8.5 C8.4,8.6 7.9,8.7 7.4,8.7 C5.8,8.7 4.6,8.1 3.9,6.8 C3.6,6.3 3.4,5.7 3.4,5.1 C3.4,4 4.1,2.7 5.2,1.6 C6.9,-0.1 10.2,-2.2 13.8,-4.2 C17.4,-6.2 21,-7.7 23.4,-8.2 C23.9,-8.3 24.4,-8.4 24.9,-8.4 C26.5,-8.4 27.8,-7.8 28.5,-6.5 C28.8,-6 28.9,-5.4 28.9,-4.8 C28.9,-3.7 28.3,-2.5 27.2,-1.3"/>
<path class="Clef" transform="matrix(2.23937,0,0,2.23937,115.653,630.709)" d="M63.35,-5.86992 C62.12,-11.3 59.48,-15.1199 58.7,-16.16 C55.51,-20.43 51.5,-23.28 46.81,-24.63 C43.7,-25.5199 40.7,-25.63 38.28,-25.45 C37.24,-31.46 36.24,-37.3399 35.33,-42.7899 C40.78,-48.96 44.4,-54.76 46.68,-59.06 C50.15,-65.6399 51.3,-70.2199 51.35,-70.4199 C53.07,-75.63 53.43,-83.33 52.33,-91.5399 C51.32,-99.0899 49.23,-105.8 46.88,-109.05 C45.85,-110.48 44.8,-111.21 43.76,-111.21 C42.54,-111.21 40.03,-109.97 37.14,-107.2 C34.84,-105 31.57,-101.11 29.01,-95.1 C26.01,-88.0399 25.8,-78.55 26.15,-71.83 C26.53,-64.56 27.64,-58.8699 27.65,-58.8199 C27.67,-58.73 27.93,-57.23 28.38,-54.66 C28.15,-54.43 27.91,-54.21 27.66,-53.9699 C26.62,-52.9699 25.43,-51.83 24.05,-50.45 C23.19,-49.5899 22.24,-48.68 21.24,-47.71 C12.79,-39.5699 0,-27.25 0,-8.1 C0,-3.4 0.9,1.02002 2.67998,5.03008 C4.27002,8.63008 6.57002,11.9101 9.5,14.7801 C17.23,22.3301 27.82,25.54 34.88,25.3801 C37.83,25.3101 40.46,25.07 42.85,24.62 C44.68,34.22 45.82,41.25 45.86,46.59 C45.9,53.1 44.25,57.07 40.35,59.84 C37.92,61.57 35.11,62.52 32.01,62.67 C29.42,62.79 27.16,62.32 25.73,61.9101 L25.72,61.9101 C25.72,61.9101 25.43,61.8301 25.42,61.6301 C25.41,61.45 25.76,61.4 25.77,61.4 L25.79,61.4 C27.71,60.9601 31.28,59.7301 33.64,56.4301 C35.44,53.9101 36.31,49.29 34.47,45.35 C33.36,42.9601 30.85,40.0101 25.23,39.5601 C22.74,39.3601 20.47,39.87 18.47,41.07 C16.66,42.15 15.16,43.79 14.11,45.79 C11.65,50.49 12.11,56.22 15.24,60.0601 C18.2,63.6801 22.82,65.99 28.25,66.57 C29.1,66.6601 29.95,66.7 30.8,66.7 C35.23,66.7 39.63,65.5 43.2,63.29 C46.86,60.72 48.98,56.74 49.66,51.1101 C50.22,46.47 49.83,40.5601 48.43,32.49 C48.07,30.4 47.53,27.37 46.87,23.6101 C52.62,21.69 56.78,18.12 60.55,12.27 C63.84,6.53008 64.78,0.430078 63.35,-5.86992 M29.14,20.32 C24.5,19.1 20.07,16.6 16.31,13.1 C15,11.87 13.13,9.7 11.66,6.31006 C10.29,3.15 9.62998,-0.27998 9.67998,-3.86992 C9.75,-8.55996 11.06,-13.38 13.57,-18.1699 C16.49,-23.75 21.05,-29.28 27.11,-34.61 C28.56,-35.8899 29.93,-37.1699 31.22,-38.45 C31.98,-34.1899 32.81,-29.5 33.69,-24.6199 C29.84,-23.35 25.09,-20.2 21.98,-14.55 C18.44,-7.97998 18.58,-2.45996 19.31,1.02002 C20.25,5.48008 22.78,9.24004 26.24,11.3301 C27.17,11.89 31.3,14.02 33.14,13.44 C33.51,13.32 33.78,13.1 33.92,12.77 C34.43,11.6 33.41,10.9601 31.85,10 C31.25,9.63008 30.58,9.21006 29.85,8.68008 C26.53,6.19004 25.08,1.74004 26.15,-2.63994 C26.73,-5.03994 28.01,-7.2 29.85,-8.9 C31.52,-10.45 33.56,-11.55 35.94,-12.1899 C37.98,-0.95 40.04,10.2 41.68,18.5601 C41.81,19.25 41.95,19.92 42.08,20.59 C37.7,21.52 33.35,21.4301 29.14,20.32 M40.46,-12.86 C50.81,-13.33 55.08,-5.88994 55.97,-1.05996 C56.44,1.47002 56.43,5.91006 54.89,10.12 C53.72,13.3 51.26,17.37 46.13,19.4301 C46.06,19.0101 45.98,18.5801 45.9,18.15 C44.36,9.38008 42.42,-1.60996 40.46,-12.86 M33.14,-83.8 C34.92,-89.5399 37.66,-92.7899 39.65,-94.5199 C41.4,-96.0399 43.05,-96.75 43.97,-96.75 C44.11,-96.75 44.23,-96.73 44.33,-96.7 C44.79,-96.56 45.32,-95.9899 45.79,-95.1199 C48.1,-90.83 47.36,-84.1199 46.02,-79.68 C44.39,-74.28 41.47,-68.66 32.67,-59.05 C32.5,-60.16 32.34,-61.21 32.19,-62.1899 C30.94,-70.48 31.26,-77.75 33.14,-83.8"/>
<path class="Clef" transform="matrix(2.23937,0,0,2.23937,115.653,1333.62)" d="M63.35,-5.86992 C62.12,-11.3 59.48,-15.1199 58.7,-16.16 C55.51,-20.43 51.5,-23.28 46.81,-24.63 C43.7,-25.5199 40.7,-25.63 38.28,-25.45 C37.24,-31.46 36.24,-37.3399 35.33,-42.7899 C40.78,-48.96 44.4,-54.76 46.68,-59.06 C50.15,-65.6399 51.3,-70.2199 51.35,-70.4199 C53.07,-75.63 53.43,-83.33 52.33,-91.5399 C51.32,-99.0899 49.23,-105.8 46.88,-109.05 C45.85,-110.48 44.8,-111.21 43.76,-111.21 C42.54,-111.21 40.03,-109.97 37.14,-107.2 C34.84,-105 31.57,-101.11 29.01,-95.1 C26.01,-88.0399 25.8,-78.55 26.15,-71.83 C26.53,-64.56 27.64,-58.8699 27.65,-58.8199 C27.67,-58.73 27.93,-57.23 28.38,-54.66 C28.15,-54.43 27.91,-54.21 27.66,-53.9699 C26.62,-52.9699 25.43,-51.83 24.05,-50.45 C23.19,-49.5899 22.24,-48.68 21.24,-47.71 C12.79,-39.5699 0,-27.25 0,-8.1 C0,-3.4 0.9,1.02002 2.67998,5.03008 C4.27002,8.63008 6.57002,11.9101 9.5,14.7801 C17.23,22.3301 27.82,25.54 34.88,25.3801 C37.83,25.3101 40.46,25.07 42.85,24.62 C44.68,34.22 45.82,41.25 45.86,46.59 C45.9,53.1 44.25,57.07 40.35,59.84 C37.92,61.57 35.11,62.52 32.01,62.67 C29.42,62.79 27.16,62.32 25.73,61.9101 L25.72,61.9101 C25.72,61.9101 25.43,61.8301 25.42,61.6301 C25.41,61.45 25.76,61.4 25.77,61.4 L25.79,61.4 C27.71,60.9601 31.28,59.7301 33.64,56.4301 C35.44,53.9101 36.31,49.29 34.47,45.35 C33.36,42.9601 30.85,40.0101 25.23,39.5601 C22.74,39.3601 20.47,39.87 18.47,41.07 C16.66,42.15 15.16,43.79 14.11,45.79 C11.65,50.49 12.11,56.22 15.24,60.0601 C18.2,63.6801 22.82,65.99 28.25,66.57 C29.1,66.6601 29.95,66.7 30.8,66.7 C35.23,66.7 39.63,65.5 43.2,63.29 C46.86,60.72 48.98,56.74 49.66,51.1101 C50.22,46.47 49.83,40.5601 48.43,32.49 C48.07,30.4 47.53,27.37 46.87,23.6101 C52.62,21.69 56.78,18.12 60.55,12.27 C63.84,6.53008 64.78,0.430078 63.35,-5.86992 M29.14,20.32 C24.5,19.1 20.07,16.6 16.31,13.1 C15,11.87 13.13,9.7 11.66,6.31006 C10.29,3.15 9.62998,-0.27998 9.67998,-3.86992 C9.75,-8.55996 11.06,-13.38 13.57,-18.1699 C16.49,-23.75 21.05,-29.28 27.11,-34.61 C28.56,-35.8899 29.93,-37.1699 31.22,-38.45 C31.98,-34.1899 32.81,-29.5 33.69,-24.6199 C29.84,-23.35 25.09,-20.2 21.98,-14.55 C18.44,-7.97998 18.58,-2.45996 19.31,1.02002 C20.25,5.48008 22.78,9.24004 26.24,11.3301 C27.17,11.89 31.3,14.02 33.14,13.44 C33.51,13.32 33.78,13.1 33.92,12.77 C34.43,11.6 33.41,10.9601 31.85,10 C31.25,9.63008 30.58,9.21006 29.85,8.68008 C26.53,6.19004 25.08,1.74004 26.15,-2.63994 C26.73,-5.03994 28.01,-7.2 29.85,-8.9 C31.52,-10.45 33.56,-11.55 35.94,-12.1899 C37.98,-0.95 40.04,10.2 41.68,18.5601 C41.81,19.25 41.95,19.92 42.08,20.59 C37.7,21.52 33.35,21.4301 29.14,20.32 M40.46,-12.86 C50.81,-13.33 55.08,-5.88994 55.97,-1.05996 C56.44,1.47002 56.43,5.91006 54.89,10.12 C53.72,13.3 51.26,17.37 46.13,19.4301 C46.06,19.0101 45.98,18.5801 45.9,18.15 C44.36,9.38008 42.42,-1.60996 40.46,-12.86 M33.14,-83.8 C34.92,-89.5399 37.66,-92.7899 39.65,-94.5199 C41.4,-96.0399 43.05,-96.75 43.97,-96.75 C44.11,-96.75 44.23,-96.73 44.33,-96.7 C44.79,-96.56 45.32,-95.9899 45.79,-95.1199 C48.1,-90.83 47.36,-84.1199 46.02,-79.68 C44.39,-74.28 41.47,-68.66 32.67,-59.05 C32.5,-60.16 32.34,-61.21 32.19,-62.1899 C30.94,-70.48 31.26,-77.75 33.14,-83.8"/>
<path class="Clef" transform="matrix(2.23937,0,0,2.23937,115.653,2036.52)" d="M63.35,-5.86992 C62.12,-11.3 59.48,-15.1199 58.7,-16.16 C55.51,-20.43 51.5,-23.28 46.81,-24.63 C43.7,-25.5199 40.7,-25.63 38.28,-25.45 C37.24,-31.46 36.24,-37.3399 35.33,-42.7899 C40.78,-48.96 44.4,-54.76 46.68,-59.06 C50.15,-65.6399 51.3,-70.2199 51.35,-70.4199 C53.07,-75.63 53.43,-83.33 52.33,-91.5399 C51.32,-99.0899 49.23,-105.8 46.88,-109.05 C45.85,-110.48 44.8,-111.21 43.76,-111.21 C42.54,-111.21 40.03,-109.97 37.14,-107.2 C34.84,-105 31.57,-101.11 29.01,-95.1 C26.01,-88.0399 25.8,-78.55 26.15,-71.83 C26.53,-64.56 27.64,-58.8699 27.65,-58.8199 C27.67,-58.73 27.93,-57.23 28.38,-54.66 C28.15,-54.43 27.91,-54.21 27.66,-53.9699 C26.62,-52.9699 25.43,-51.83 24.05,-50.45 C23.19,-49.5899 22.24,-48.68 21.24,-47.71 C12.79,-39.5699 0,-27.25 0,-8.1 C0,-3.4 0.9,1.02002 2.67998,5.03008 C4.27002,8.63008 6.57002,11.9101 9.5,14.7801 C17.23,22.3301 27.82,25.54 34.88,25.3801 C37.83,25.3101 40.46,25.07 42.85,24.62 C44.68,34.22 45.82,41.25 45.86,46.59 C45.9,53.1 44.25,57.07 40.35,59.84 C37.92,61.57 35.11,62.52 32.01,62.67 C29.42,62.79 27.16,62.32 25.73,61.9101 L25.72,61.9101 C25.72,61.9101 25.43,61.8301 25.42,61.6301 C25.41,61.45 25.76,61.4 25.77,61.4 L25.79,61.4 C27.71,60.9601 31.28,59.7301 33.64,56.4301 C35.44,53.9101 36.31,49.29 34.47,45.35 C33.36,42.9601 30.85,40.0101 25.23,39.5601 C22.74,39.3601 20.47,39.87 18.47,41.07 C16.66,42.15 15.16,43.79 14.11,45.79 C11.65,50.49 12.11,56.22 15.24,60.0601 C18.2,63.6801 22.82,65.99 28.25,66.57 C29.1,66.6601 29.95,66.7 30.8,66.7 C35.23,66.7 39.63,65.5 43.2,63.29 C46.86,60.72 48.98,56.74 49.66,51.1101 C50.22,46.47 49.83,40.5601 48.43,32.49 C48.07,30.4 47.53,27.37 46.87,23.6101 C52.62,21.69 56.78,18.12 60.55,12.27 C63.84,6.53008 64.78,0.430078 63.35,-5.86992 M29.14,20.32 C24.5,19.1 20.07,16.6 16.31,13.1 C15,11.87 13.13,9.7 11.66,6.31006 C10.29,3.15 9.62998,-0.27998 9.67998,-3.86992 C9.75,-8.55996 11.06,-13.38 13.57,-18.1699 C16.49,-23.75 21.05,-29.28 27.11,-34.61 C28.56,-35.8899 29.93,-37.1699 31.22,-38.45 C31.98,-34.1899 32.81,-29.5 33.69,-24.6199 C29.84,-23.35 25.09,-20.2 21.98,-14.55 C18.44,-7.97998 18.58,-2.45996 19.31,1.02002 C20.25,5.48008 22.78,9.24004 26.24,11.3301 C27.17,11.89 31.3,14.02 33.14,13.44 C33.51,13.32 33.78,13.1 33.92,12.77 C34.43,11.6 33.41,10.9601 31.85,10 C31.25,9.63008 30.58,9.21006 29.85,8.68008 C26.53,6.19004 25.08,1.74004 26.15,-2.63994 C26.73,-5.03994 28.01,-7.2 29.85,-8.9 C31.52,-10.45 33.56,-11.55 35.94,-12.1899 C37.98,-0.95 40.04,10.2 41.68,18.5601 C41.81,19.25 41.95,19.92 42.08,20.59 C37.7,21.52 33.35,21.4301 29.14,20.32 M40.46,-12.86 C50.81,-13.33 55.08,-5.88994 55.97,-1.05996 C56.44,1.47002 56.43,5.91006 54.89,10.12 C53.72,13.3 51.26,17.37 46.13,19.4301 C46.06,19.0101 45.98,18.5801 45.9,18.15 C44.36,9.38008 42.42,-1.60996 40.46,-12.86 M33.14,-83.8 C34.92,-89.5399 37.66,-92.7899 39.65,-94.5199 C41.4,-96.0399 43.05,-96.75 43.97,-96.75 C44.11,-96.75 44.23,-96.73 44.33,-96.7 C44.79,-96.56 45.32,-95.9899 45.79,-95.1199 C48.1,-90.83 47.36,-84.1199 46.02,-79.68 C44.39,-74.28 41.47,-68.66 32.67,-59.05 C32.5,-60.16 32.34,-61.21 32.19,-62.1899 C30.94,-70.48 31.26,-77.75 33.14,-83.8"/>
<path class="KeySig" transform="matrix(2.23937,0,0,2.23937,370.907,490.748)" d="M20.1,-7.9 C19.5,-11.8 17.1,-15.5 12,-15.5 C7,-15.5 4.1,-12.4 3.6,-11.8 L4,-43.9 C4,-44.7 3.4,-45.3 2.6,-45.3 L1.4,-45.3 C0.6,-45.3 0,-44.7 0,-43.9 L0.5,16.2 C0.5,17 1.1,17.6 1.9,17.6 C2.1,17.6 2.5,17.5 2.7,17.4 C3.1,17.2 9.6,14 15,7.9 C18.8,3.6 20.3,-1.3 20.3,-5.4 C20.3,-6.3 20.2,-7.1 20.1,-7.9 M13.2,-4 C13.2,-2.5 12.8,2.1 10.3,5.9 C8.6,8.5 5.2,11.2 3.3,12.7 L3.6,-6.8 C3.8,-7.7 5.3,-10.6 9.3,-10.6 C12.9,-10.6 13.2,-7.2 13.2,-5.1 L13.2,-4 "/>
<path class="KeySig" transform="matrix(2.23937,0,0,2.23937,314.922,574.724)" d="M20.1,-7.9 C19.5,-11.8 17.1,-15.5 12,-15.5 C7,-15.5 4.1,-12.4 3.6,-11.8 L4,-43.9 C4,-44.7 3.4,-45.3 2.6,-45.3 L1.4,-45.3 C0.6,-45.3 0,-44.7 0,-43.9 L0.5,16.2 C0.5,17 1.1,17.6 1.9,17.6 C2.1,17.6 2.5,17.5 2.7,17.4 C3.1,17.2 9.6,14 15,7.9 C18.8,3.6 20.3,-1.3 20.3,-5.4 C20.3,-6.3 20.2,-7.1 20.1,-7.9 M13.2,-4 C13.2,-2.5 12.8,2.1 10.3,5.9 C8.6,8.5 5.2,11.2 3.3,12.7 L3.6,-6.8 C3.8,-7.7 5.3,-10.6 9.3,-10.6 C12.9,-10.6 13.2,-7.2 13.2,-5.1 L13.2,-4 "/>
<path class="KeySig" transform="matrix(2.23937,0,0,2.23937,370.907,1193.65)" d="M20.1,-7.9 C19.5,-11.8 17.1,-15.5 12,-15.5 C7,-15.5 4.1,-12.4 3.6,-11.8 L4,-43.9 C4,-44.7 3.4,-45.3 2.6,-45.3 L1.4,-45.3 C0.6,-45.3 0,-44.7 0,-43.9 L0.5,16.2 C0.5,17 1.1,17.6 1.9,17.6 C2.1,17.6 2.5,17.5 2.7,17.4 C3.1,17.2 9.6,14 15,7.9 C18.8,3.6 20.3,-1.3 20.3,-5.4 C20.3,-6.3 20.2,-7.1 20.1,-7.9 M13.2,-4 C13.2,-2.5 12.8,2.1 10.3,5.9 C8.6,8.5 5.2,11.2 3.3,12.7 L3.6,-6.8 C3.8,-7.7 5.3,-10.6 9.3,-10.6 C12.9,-10.6 13.2,-7.2 13.2,-5.1 L13.2,-4 "/>
<path class="KeySig" transform="matrix(2.23937,0,0,2.23937,314.922,1277.63)" d="M20.1,-7.9 C19.5,-11.8 17.1,-15.5 12,-15.5 C7,-15.5 4.1,-12.4 3.6,-11.8 L4,-43.9 C4,-44.7 3.4,-45.3 2.6,-45.3 L1.4,-45.3 C0.6,-45.3 0,-44.7 0,-43.9 L0.5,16.2 C0.5,17 1.1,17.6 1.9,17.6 C2.1,17.6 2.5,17.5 2.7,17.4 C3.1,17.2 9.6,14 15,7.9 C18.8,3.6 20.3,-1.3 20.3,-5.4 C20.3,-6.3 20.2,-7.1 20.1,-7.9 M13.2,-4 C13.2,-2.5 12.8,2.1 10.3,5.9 C8.6,8.5 5.2,11.2 3.3,12.7 L3.6,-6.8 C3.8,-7.7 5.3,-10.6 9.3,-10.6 C12.9,-10.6 13.2,-7.2 13.2,-5.1 L13.2,-4 "/>
<path class="KeySig" transform="matrix(2.23937,0,0,2.23937,370.907,1896.56)" d="M20.1,-7.9 C19.5,-11.8 17.1,-15.5 12,-15.5 C7,-15.5 4.1,-12.4 3.6,-11.8 L4,-43.9 C4,-44.7 3.4,-45.3 2.6,-45.3 L1.4,-45.3 C0.6,-45.3 0,-44.7 0,-43.9 L0.5,16.2 C0.5,17 1.1,17.6 1.9,17.6 C2.1,17.6 2.5,17.5 2.7,17.4 C3.1,17.2 9.6,14 15,7.9 C18.8,3.6 20.3,-1.3 20.3,-5.4 C20.3,-6.3 20.2,-7.1 20.1,-7.9 M13.2,-4 C13.2,-2.5 12.8,2.1 10.3,5.9 C8.6,8.5 5.2,11.2 3.3,12.7 L3.6,-6.8 C3.8,-7.7 5.3,-10.6 9.3,-10.6 C12.9,-10.6 13.2,-7.2 13.2,-5.1 L13.2,-4 "/>
<path class="KeySig" transform="matrix(2.23937,0,0,2.23937,314.922,1980.54)" d="M20.1,-7.9 C19.5,-11.8 17.1,-15.5 12,-15.5 C7,-15.5 4.1,-12.4 3.6,-11.8 L4,-43.9 C4,-44.7 3.4,-45.3 2.6,-45.3 L1.4,-45.3 C0.6,-45.3 0,-44.7 0,-43.9 L0.5,16.2 C0.5,17 1.1,17.6 1.9,17.6 C2.1,17.6 2.5,17.5 2.7,17.4 C3.1,17.2 9.6,14 15,7.9 C18.8,3.6 20.3,-1.3 20.3,-5.4 C20.3,-6.3 20.2,-7.1 20.1,-7.9 M13.2,-4 C13.2,-2.5 12.8,2.1 10.3,5.9 C8.6,8.5 5.2,11.2 3.3,12.7 L3.6,-6.8 C3.8,-7.7 5.3,-10.6 9.3,-10.6 C12.9,-10.6 13.2,-7.2 13.2,-5.1 L13.2,-4 "/>
<path class="TimeSig" transform="matrix(2.23937,0,0,2.23937,476.647,519.86)" d="M34.2,3.9 C33.4,6.1 31.4,13.3 26.5,13.3 C20,13.3 18.6,9.3 13.2,9.3 C12.4,9.3 11.6,9.4 10.6,9.6 C10.6,9.6 13.1,5.8 23.7,2.5 C34.3,-0.8 37,-6 37,-12 C37,-16.2 35.1,-24.5 20,-24.5 C4.9,-24.5 2.1,-15.4 2.1,-10.8 C2.1,-6.7 5.5,-3.4 9.6,-3.4 C13.7,-3.4 17,-6.7 17,-10.8 C17,-13.6 15,-16.7 12.4,-17.7 C12.1,-17.8 11.7,-18.3 11.7,-18.8 C11.7,-19.4 12.2,-20.1 14,-20.6 C14.5,-20.8 15.9,-21.1 17.4,-21.1 C18.8,-21.1 20.4,-20.8 21.6,-20 C23.5,-18.8 24.2,-17 24.2,-12.5 C24.2,-0.8 10.3,1.7 4.5,10.4 C4.5,10.4 1.5,14.6 1.5,19.3 C1.5,24 3.9,24.3 5.1,24.3 C6.7,24.3 8.4,23 8.4,21.2 C8.4,20.8 8.3,20.4 8.1,19.9 C7.5,18.5 7.3,17.4 7.3,16.6 C7.3,16.3 7.3,16 7.4,15.7 C7.5,15.1 8.3,14.1 10.7,14.1 C13.6,14.1 14.7,17.5 16.5,20.1 C18.3,22.7 21.1,24.3 24.3,24.3 C27.5,24.3 31.8,22 33.6,18.3 C35.4,14.6 37.7,7.1 37.7,4.4 C37.7,3.1 36.9,2.5 36,2.5 C35.3,2.5 34.6,2.9 34.2,3.9"/>
<path class="TimeSig" transform="matrix(2.23937,0,0,2.23937,469.264,630.411)" d="M3.59004,12.65 L20.77,12.65 L20.77,20.07 L12.54,20.07 C11.7601,20.07 11.1301,20.7 11.1301,21.48 L11.1301,23.39 C11.1301,24.17 11.7601,24.8 12.54,24.8 L42.79,24.8 C43.57,24.8 44.2,24.17 44.2,23.39 L44.2,21.48 C44.2,20.7 43.57,20.07 42.79,20.07 L33.85,20.07 L33.85,12.65 L42.79,12.65 C43.57,12.65 44.2,12.02 44.2,11.24 L44.2,9.32998 C44.2,8.55 43.57,7.92002 42.79,7.92002 L33.85,7.92002 L33.85,-8.04004 C33.85,-8.57998 33.55,-9.05996 33.07,-9.3 L31.8601,-9.9 C31.3301,-10.16 30.7,-10.07 30.27,-9.67002 L21.22,-1.35 C20.9301,-1.07998 20.7601,-0.709961 20.7601,-0.309961 L20.7601,7.92002 L9.25,7.92002 C9.25,7.92002 20.37,-4.10996 32.2101,-19.88 C33.0801,-21.03 32.5801,-22.08 32.39,-22.27 L30.22,-24.48 C29.95,-24.74 29.59,-24.89 29.22,-24.89 C28.62,-24.89 15.07,-24.87 14.35,-24.89 C13.6301,-24.91 13.09,-24.29 13.02,-23.67 C13.02,-23.67 12.4801,-16.31 9.88008,-8.17998 C7.28008,-0.0599609 4.34004,4.92002 1.68008,8.55 C1.68008,8.55 1.14004,9.54004 1.5,10.28 C1.85,11.03 2.48008,12.12 2.48008,12.12 C2.48008,12.12 2.74004,12.65 3.59004,12.65"/>
<path class="Rest" transform="matrix(2.23937,0,0,2.23937,680.202,574.724)" d="M23.2,16.9 L23,16.6 C22.9,16.5 22.7,16.3 22.4,15.9 L10.9,1.7 C10.6,1.4 10.7,0.6 10.9,0.2 L21.1,-15.2 C21.2,-15.4 21.3,-15.7 21.3,-15.9 L21.3,-16.8 C21.3,-17.1 21.2,-17.4 21,-17.6 L4.8,-39.5 C4.8,-39.5 4,-40.7 3,-39.8 C2,-39 2.8,-37.7 2.8,-37.7 L10.4,-27.3 C10.8,-26.7 10.8,-25.5 10.4,-24.9 L0.3,-9.5 C0.2,-9.3 0.1,-8.9 0.1,-8.7 L0.1,-7.8 C0.1,-7.5 0.2,-7.2 0.4,-7 L11.6,6.9 C11.2,6.8 10.3,6.6 9.1,6.6 C7.4,6.6 5.2,7 3.4,8.6 C1.2,10.6 0,13.4 0,15.9 C0,17.3 0.3,18.7 1.1,19.8 C3.2,23 10.7,32.5 10.7,32.5 C10.7,32.5 11.6,33.6 12.5,32.9 C13.4,32.2 13.2,31.3 12.9,30.8 C12.6,30.3 9.4,24.5 9.4,24.5 C9.4,24.5 8.7,23.1 8.7,21.3 C8.7,20 9.1,18.4 10.4,17.1 C11.6,15.9 13,15.5 14.3,15.5 C15.6,15.5 16.7,15.9 17.5,16.4 L21.4,18.9 C21.4,18.9 22.6,19.5 23.2,18.6 C23.7,17.8 23.5,17.4 23.2,16.9"/>
<path class="Rest" transform="matrix(2.23937,0,0,2.23937,1452.94,1277.63)" d="M26.73,-20.26 C25.9899,-20.5399 25.31,-20.21 24.98,-19.6 C24.65,-18.9899 21.4699,-13.06 17.0399,-9.8 C15.65,-8.77998 14.0699,-8.13994 12.5,-7.80996 C13.6199,-9.06992 14.3,-10.73 14.3,-12.55 C14.3,-16.5 11.1,-19.7 7.15,-19.7 C3.2,-19.7 0,-16.5 0,-12.55 C0,-9.53994 1.86992,-6.95996 4.50996,-5.90996 C6.03994,-5.17998 7.95,-4.73994 10,-4.73994 C12.85,-4.73994 15.96,-5.56992 18.6699,-7.55996 C19.93,-8.48994 21.13,-9.67998 22.21,-10.9399 L10.8199,24.69 L13.46,25.54 L27.53,-18.55 C27.76,-19.28 27.4699,-19.9699 26.73,-20.26"/>
<path class="Beam" fill-rule="evenodd" d="M1780.99,602.716 L1889.77,602.716 L1889.77,630.709 L1780.99,630.709 L1780.99,602.716 "/>
<path class="Beam" fill-rule="evenodd" d="M2123.21,615.076 L2241.9,674.124 L2241.9,705.389 L2123.21,646.341 L2123.21,615.076 "/>
<path class="Beam" fill-rule="evenodd" d="M2348.28,602.609 L2466.98,617.371 L2466.98,645.578 L2348.28,630.816 L2348.28,602.609 "/>
<path class="Beam" fill-rule="evenodd" d="M2851.35,658.701 L2951.83,658.701 L2951.83,686.693 L2851.35,686.693 L2851.35,658.701 "/>
<path class="Beam" fill-rule="evenodd" d="M3185.27,658.274 L3303.97,687.798 L3303.97,716.643 L3185.27,687.119 L3185.27,658.274 "/>
<path class="Beam" fill-rule="evenodd" d="M3410.35,672.589 L3529.04,657.827 L3529.04,686.035 L3410.35,700.797 L3410.35,672.589 "/>
<path class="Beam" fill-rule="evenodd" d="M575.914,1263.52 L691.427,1278.3 L691.427,1306.53 L575.914,1291.74 L575.914,1263.52 "/>
<path class="Beam" fill-rule="evenodd" d="M794.624,1319.5 L910.137,1334.29 L910.137,1362.51 L794.624,1347.73 L794.624,1319.5 "/>
<path class="Beam" fill-rule="evenodd" d="M1657.28,1389.47 L1765.61,1374.63 L1765.61,1402.88 L1657.28,1417.72 L1657.28,1389.47 "/>
<path class="Beam" fill-rule="evenodd" d="M2129.25,1361.61 L2219.36,1361.61 L2219.36,1389.6 L2129.25,1389.6 L2129.25,1361.61 "/>
<path class="Beam" fill-rule="evenodd" d="M2452.8,1361.61 L2561.13,1361.61 L2561.13,1389.6 L2452.8,1389.6 L2452.8,1361.61 "/>
<path class="Beam" fill-rule="evenodd" d="M2657.14,1319.49 L2765.47,1304.65 L2765.47,1332.9 L2657.14,1347.74 L2657.14,1319.49 "/>
<path class="Beam" fill-rule="evenodd" d="M3195.73,1249.64 L3325.03,1249.64 L3325.03,1277.63 L3195.73,1277.63 L3195.73,1249.64 "/>
<path class="Beam" fill-rule="evenodd" d="M3578.06,1249.32 L3715.13,1278.63 L3715.13,1307.26 L3578.06,1277.95 L3578.06,1249.32 "/>
<path class="Beam" fill-rule="evenodd" d="M3839.88,1263.56 L3976.95,1248.9 L3976.95,1277.05 L3839.88,1291.71 L3839.88,1263.56 "/>
<path class="Beam" fill-rule="evenodd" d="M1441.79,1952.52 L1707.04,1966.85 L1707.04,1994.89 L1441.79,1980.56 L1441.79,1952.52 "/>
<path class="Beam" fill-rule="evenodd" d="M1959.96,2008.53 L2225.2,2008.53 L2225.2,2036.52 L1959.96,2036.52 L1959.96,2008.53 "/>
<path class="Hook" transform="matrix(2.23937,0,0,2.23937,3970.79,630.709)" d="M2.5,0.4 C2.5,0.2 3.4,-3.2 3.5,-3.5 C3.6,-3.9 5.4,-9.6 9.1,-15.3 C11.8,-19.5 21.3,-31.8 21,-31.8 C21,-31.8 28.4,-41.3 28.9,-54.2 L28.9,-56.5 C28.9,-62.6 28.1,-71.2 24.6,-79.9 C24.2,-80.9 23.8,-81.9 22.7,-81.5 C21.6,-81.1 21.9,-79.9 22.2,-78.8 C24,-71.8 25,-64.6 25,-57.4 C25,-49 22,-44.8 20.2,-41.7 C13.6,-30.6 5,-25.2 0.8,-23.8 C0.3,-23.6 0,-23.2 0,-22.7 L0,-16.5 L0,-0.1 C0,0.6 0.6,1.2 1.3,1.2 C1.8,1.2 2.4,0.8 2.5,0.4"/>
<path class="Hook" transform="matrix(2.23937,0,0,2.23937,1555.11,1473.58)" d="M2.5,0.4 C2.5,0.2 3.4,-3.2 3.5,-3.5 C3.6,-3.9 5.4,-9.6 9.1,-15.3 C11.8,-19.5 21.3,-31.8 21,-31.8 C21,-31.8 28.4,-41.3 28.9,-54.2 L28.9,-56.5 C28.9,-62.6 28.1,-71.2 24.6,-79.9 C24.2,-80.9 23.8,-81.9 22.7,-81.5 C21.6,-81.1 21.9,-79.9 22.2,-78.8 C24,-71.8 25,-64.6 25,-57.4 C25,-49 22,-44.8 20.2,-41.7 C13.6,-30.6 5,-25.2 0.8,-23.8 C0.3,-23.6 0,-23.2 0,-22.7 L0,-16.5 L0,-0.1 C0,0.6 0.6,1.2 1.3,1.2 C1.8,1.2 2.4,0.8 2.5,0.4"/>
<path class="Hook" transform="matrix(2.23937,0,0,2.23937,1080.64,1980.54)" d="M2.5,0.4 C2.5,0.2 3.4,-3.2 3.5,-3.5 C3.6,-3.9 5.4,-9.6 9.1,-15.3 C11.8,-19.5 21.3,-31.8 21,-31.8 C21,-31.8 28.4,-41.3 28.9,-54.2 L28.9,-56.5 C28.9,-62.6 28.1,-71.2 24.6,-79.9 C24.2,-80.9 23.8,-81.9 22.7,-81.5 C21.6,-81.1 21.9,-79.9 22.2,-78.8 C24,-71.8 25,-64.6 25,-57.4 C25,-49 22,-44.8 20.2,-41.7 C13.6,-30.6 5,-25.2 0.8,-23.8 C0.3,-23.6 0,-23.2 0,-22.7 L0,-16.5 L0,-0.1 C0,0.6 0.6,1.2 1.3,1.2 C1.8,1.2 2.4,0.8 2.5,0.4"/>
<path class="VoltaSegment" d="M2557.23,1666.03 L2552.92,1666.03 C2545.17,1671.81 2536.44,1674.27 2521.8,1674.52 L2521.8,1681.4 L2526.97,1681.4 C2537.92,1681.4 2538.04,1681.65 2537.92,1691.74 L2537.92,1735.4 C2537.92,1743.03 2537.92,1743.4 2537.05,1744.63 C2535.95,1745.98 2533.49,1746.47 2526.85,1746.47 L2522.91,1746.47 L2522.91,1753.11 L2571.99,1753.11 L2571.99,1746.47 L2568.05,1746.47 C2561.53,1746.47 2559.19,1745.98 2558.09,1744.63 C2557.23,1743.4 2557.23,1742.9 2557.23,1735.4 L2557.23,1666.03 M2599.28,1731.83 C2592.89,1731.83 2587.72,1737 2587.72,1743.4 C2587.72,1749.67 2592.89,1754.96 2599.16,1754.96 C2605.68,1754.96 2610.85,1749.79 2610.85,1743.4 C2610.85,1737 2605.68,1731.83 2599.28,1731.83"/>
<polyline class="VoltaSegment" fill="none" stroke="#000000" stroke-width="6.16" stroke-linecap="square" stroke-linejoin="bevel" points="2488.21,1753.11 2488.21,1629.95"/>
<polyline class="VoltaSegment" fill="none" stroke="#000000" stroke-width="6.16" stroke-linecap="square" stroke-linejoin="bevel" points="2488.21,1629.95 3358.08,1629.95"/>
<polyline class="VoltaSegment" fill="none" stroke="#000000" stroke-width="6.16" stroke-linecap="square" stroke-linejoin="bevel" points="3358.08,1629.95 3358.08,1753.11"/>
<path class="VoltaSegment" d="M3479.47,1720.39 L3478.12,1726.54 C3477.01,1731.46 3476.27,1733.06 3475.29,1733.68 C3474.06,1734.54 3473.81,1734.54 3466.06,1734.66 L3442.32,1734.66 C3446.63,1730.97 3449.83,1728.64 3454.62,1725.44 C3471.97,1714.24 3475.53,1711.54 3479.1,1706.99 C3483.28,1701.45 3485.74,1694.93 3485.74,1689.15 C3485.74,1675.99 3472.83,1666.03 3455.48,1666.03 C3438.76,1666.03 3425.84,1676.85 3425.84,1690.87 C3425.84,1699.48 3430.64,1705.02 3438.02,1705.02 C3444.41,1705.02 3448.47,1700.96 3448.47,1694.56 C3448.47,1689.28 3446.14,1686.2 3440.48,1683.49 C3439.12,1682.88 3438.51,1682.14 3438.51,1681.16 C3438.51,1677.22 3445.15,1673.04 3451.3,1673.04 C3459.91,1673.04 3464.83,1678.33 3464.83,1687.43 C3464.83,1697.64 3460.9,1704.9 3447.86,1718.8 C3434.08,1733.43 3429.28,1738.97 3423.13,1747.82 L3423.13,1753.6 C3426.33,1753.24 3427.69,1753.11 3429.53,1753.11 L3475.78,1753.11 C3478.12,1753.11 3479.59,1753.24 3483.28,1753.6 L3486.11,1720.39 L3479.47,1720.39 M3508.49,1731.83 C3502.09,1731.83 3496.93,1737 3496.93,1743.4 C3496.93,1749.67 3502.09,1754.96 3508.37,1754.96 C3514.88,1754.96 3520.05,1749.79 3520.05,1743.4 C3520.05,1737 3514.88,1731.83 3508.49,1731.83"/>
<polyline class="VoltaSegment" fill="none" stroke="#000000" stroke-width="6.16" stroke-linecap="square" stroke-linejoin="bevel" points="3389.54,1753.11 3389.54,1629.95"/>
<polyline class="VoltaSegment" fill="none" stroke="#000000" stroke-width="6.16" stroke-linecap="square" stroke-linejoin="bevel" points="3389.54,1629.95 4083.02,1629.95"/>
<polyline class="VoltaSegment" fill="none" stroke="#000000" stroke-width="6.16" stroke-linecap="square" stroke-linejoin="bevel" points="4083.02,1629.95 4083.02,1753.11"/>
<path class="NoteDot" transform="matrix(2.23937,0,0,2.23937,3863.23,434.764)" d="M0,-0.00166016 C0,2.75977 2.23857,4.99834 5,4.99834 C7.76143,4.99834 10,2.75977 10,-0.00166016 C10,-2.76309 7.76143,-5.00166 5,-5.00166 C2.23857,-5.00166 0,-2.76309 0,-0.00166016"/>
<path class="NoteDot" transform="matrix(2.23937,0,0,2.23937,676.668,1728.61)" d="M0,-0.00166016 C0,2.75977 2.23857,4.99834 5,4.99834 C7.76143,4.99834 10,2.75977 10,-0.00166016 C10,-2.76309 7.76143,-5.00166 5,-5.00166 C2.23857,-5.00166 0,-2.76309 0,-0.00166016"/>
</svg>
