<?xml version="1.0" encoding="UTF-8" standalone="no"?>
<svg width="4208.47px" height="2409.45px" viewBox="0 0 4208.47 2409.45"
 xmlns="http://www.w3.org/2000/svg" xmlns:xlink="http://www.w3.org/1999/xlink" version="1.2" baseProfile="tiny">
<title>PETE PIRATA (2)</title>
<desc>Generated by MuseScore 3.6.2</desc>
<polyline class="StaffLines" fill="none" stroke="#000000" stroke-width="2.64" stroke-linejoin="bevel" points="70.866,279.866 4137.61,279.866"/>
<polyline class="StaffLines" fill="none" stroke="#000000" stroke-width="2.64" stroke-linejoin="bevel" points="70.866,303.866 4137.61,303.866"/>
<polyline class="StaffLines" fill="none" stroke="#000000" stroke-width="2.64" stroke-linejoin="bevel" points="70.866,327.866 4137.61,327.866"/>
<polyline class="StaffLines" fill="none" stroke="#000000" stroke-width="2.64" stroke-linejoin="bevel" points="70.866,351.866 4137.61,351.866"/>
<polyline class="StaffLines" fill="none" stroke="#000000" stroke-width="2.64" stroke-linejoin="bevel" points="70.866,375.866 4137.61,375.866"/>
<path class="MeasureNumber" d="M87.2254,203.553 L86.0691,203.553 C83.866,205.194 79.6316,206.585 76.741,206.585 L76.2722,208.35 L79.0222,208.35 C81.4597,208.35 81.741,208.428 81.741,209.147 C81.741,209.506 81.741,209.506 81.3504,210.944 L77.0691,226.944 C76.5379,228.944 76.5066,229.069 76.1472,229.428 C75.741,229.819 74.8972,229.944 72.7879,229.991 L71.0691,229.991 L70.866,231.866 L85.6629,231.866 L85.8972,229.991 L83.741,229.991 C81.1472,229.991 80.5847,229.788 80.5847,228.913 C80.5847,228.631 80.741,227.71 80.9441,226.944 L87.2254,203.553 M106.819,218.194 C106.132,221.35 105.413,223.272 104.257,225.506 C102.303,229.147 100.225,230.788 97.4129,230.788 C96.2566,230.788 95.5066,230.303 95.5066,229.585 C95.5066,229.303 95.5847,229.194 95.8972,228.71 C96.3035,228.194 96.5066,227.71 96.5066,227.147 C96.5066,225.835 95.4597,224.835 94.1004,224.835 C92.5066,224.835 91.3816,226.022 91.3816,227.788 C91.3816,230.506 93.9441,232.46 97.5066,232.46 C100.694,232.46 103.663,231.069 106.1,228.272 C109.585,224.381 111.85,218.585 111.85,213.663 C111.85,207.428 108.85,203.71 103.897,203.71 C100.944,203.71 98.1785,205.038 96.3347,207.303 C94.5379,209.506 93.5066,212.303 93.5066,214.913 C93.5066,218.71 96.4129,221.585 100.303,221.585 C102.944,221.585 104.975,220.506 106.819,218.194 M103.866,205.397 C106.413,205.397 108.053,207.428 108.053,210.631 C108.053,215.585 105.335,219.225 101.663,219.225 C99.1316,219.225 97.741,217.506 97.741,214.506 C97.741,212.147 98.3035,210.022 99.3816,208.225 C100.585,206.303 102.022,205.397 103.866,205.397"/>
<path class="TieSegment" stroke="#000000" stroke-width="1.68" stroke-linecap="round" stroke-linejoin="round" fill-rule="evenodd" d="M1896.07,297.866 C1945.64,263.306 2094.35,263.306 2143.92,297.866 C2094.35,270.026 1945.64,270.026 1896.07,297.866"/>
<polyline class="BarLine" stroke="#000000" stroke-width="4.32" stroke-linejoin="bevel" points="2084.05,278.546 2084.05,377.186"/>
<polyline class="BarLine" stroke="#000000" stroke-width="4.32" stroke-linejoin="bevel" points="4114.21,278.546 4114.21,377.186"/>
<polyline class="BarLine" stroke="#000000" stroke-width="13.20" stroke-linejoin="bevel" points="4131.01,278.546 4131.01,377.186"/>
<path class="Accidental" transform="matrix(0.959998,0,0,0.959998,532.562,351.866)" d="M23.2969,-10.5938 C23.9063,-10.7031 24.4063,-11.4063 24.4063,-12 L24.4063,-17.9063 C24.4063,-18.7031 23.7969,-19.2969 23,-19.2969 L22.7969,-19.2969 L19.5,-18.5938 L19.5,-33.5 L16.7031,-33.5 L16.7031,-18 L7.79688,-16.2031 L7.79688,-30.2969 L5,-30.2969 L5,-15.5938 L1.09375,-14.7969 C0.5,-14.7031 0,-14 0,-13.4063 L0,-13.2031 L0,-7.40625 L0,-7.59375 C0,-6.79688 0.59375,-6.20313 1.40625,-6.20313 L1.70313,-6.20313 L5,-6.90625 L5,9.59375 L1.09375,10.4063 C0.5,10.5 0,11.2031 0,11.7969 L0,17.5938 C0,18.4063 0.59375,19 1.40625,19 L1.70313,19 L5,18.2969 L5,33.2031 L7.79688,33.2031 L7.79688,17.7031 L16.7031,15.9063 L16.7031,30 L19.5,30 L19.5,15.2969 L23.2969,14.5938 C23.9063,14.5 24.4063,13.7969 24.4063,13.2031 L24.4063,7.29688 C24.4063,6.5 23.7969,5.90625 23,5.90625 L22.7969,5.90625 L19.5,6.59375 L19.5,-9.90625 L23.2969,-10.5938 M7.79688,9.09375 L7.79688,-7.5 L16.7031,-9.29688 L16.7031,7.20313 L7.79688,9.09375 "/>
<path class="Accidental" transform="matrix(0.959998,0,0,0.959998,1047.78,303.866)" d="M23.2969,-10.5938 C23.9063,-10.7031 24.4063,-11.4063 24.4063,-12 L24.4063,-17.9063 C24.4063,-18.7031 23.7969,-19.2969 23,-19.2969 L22.7969,-19.2969 L19.5,-18.5938 L19.5,-33.5 L16.7031,-33.5 L16.7031,-18 L7.79688,-16.2031 L7.79688,-30.2969 L5,-30.2969 L5,-15.5938 L1.09375,-14.7969 C0.5,-14.7031 0,-14 0,-13.4063 L0,-13.2031 L0,-7.40625 L0,-7.59375 C0,-6.79688 0.59375,-6.20313 1.40625,-6.20313 L1.70313,-6.20313 L5,-6.90625 L5,9.59375 L1.09375,10.4063 C0.5,10.5 0,11.2031 0,11.7969 L0,17.5938 C0,18.4063 0.59375,19 1.40625,19 L1.70313,19 L5,18.2969 L5,33.2031 L7.79688,33.2031 L7.79688,17.7031 L16.7031,15.9063 L16.7031,30 L19.5,30 L19.5,15.2969 L23.2969,14.5938 C23.9063,14.5 24.4063,13.7969 24.4063,13.2031 L24.4063,7.29688 C24.4063,6.5 23.7969,5.90625 23,5.90625 L22.7969,5.90625 L19.5,6.59375 L19.5,-9.90625 L23.2969,-10.5938 M7.79688,9.09375 L7.79688,-7.5 L16.7031,-9.29688 L16.7031,7.20313 L7.79688,9.09375 "/>
<path class="Accidental" transform="matrix(0.959998,0,0,0.959998,1382.68,315.866)" d="M23.2969,-10.5938 C23.9063,-10.7031 24.4063,-11.4063 24.4063,-12 L24.4063,-17.9063 C24.4063,-18.7031 23.7969,-19.2969 23,-19.2969 L22.7969,-19.2969 L19.5,-18.5938 L19.5,-33.5 L16.7031,-33.5 L16.7031,-18 L7.79688,-16.2031 L7.79688,-30.2969 L5,-30.2969 L5,-15.5938 L1.09375,-14.7969 C0.5,-14.7031 0,-14 0,-13.4063 L0,-13.2031 L0,-7.40625 L0,-7.59375 C0,-6.79688 0.59375,-6.20313 1.40625,-6.20313 L1.70313,-6.20313 L5,-6.90625 L5,9.59375 L1.09375,10.4063 C0.5,10.5 0,11.2031 0,11.7969 L0,17.5938 C0,18.4063 0.59375,19 1.40625,19 L1.70313,19 L5,18.2969 L5,33.2031 L7.79688,33.2031 L7.79688,17.7031 L16.7031,15.9063 L16.7031,30 L19.5,30 L19.5,15.2969 L23.2969,14.5938 C23.9063,14.5 24.4063,13.7969 24.4063,13.2031 L24.4063,7.29688 C24.4063,6.5 23.7969,5.90625 23,5.90625 L22.7969,5.90625 L19.5,6.59375 L19.5,-9.90625 L23.2969,-10.5938 M7.79688,9.09375 L7.79688,-7.5 L16.7031,-9.29688 L16.7031,7.20313 L7.79688,9.09375 "/>
<path class="Accidental" transform="matrix(0.959998,0,0,0.959998,2531.48,363.866)" d="M23.2969,-10.5938 C23.9063,-10.7031 24.4063,-11.4063 24.4063,-12 L24.4063,-17.9063 C24.4063,-18.7031 23.7969,-19.2969 23,-19.2969 L22.7969,-19.2969 L19.5,-18.5938 L19.5,-33.5 L16.7031,-33.5 L16.7031,-18 L7.79688,-16.2031 L7.79688,-30.2969 L5,-30.2969 L5,-15.5938 L1.09375,-14.7969 C0.5,-14.7031 0,-14 0,-13.4063 L0,-13.2031 L0,-7.40625 L0,-7.59375 C0,-6.79688 0.59375,-6.20313 1.40625,-6.20313 L1.70313,-6.20313 L5,-6.90625 L5,9.59375 L1.09375,10.4063 C0.5,10.5 0,11.2031 0,11.7969 L0,17.5938 C0,18.4063 0.59375,19 1.40625,19 L1.70313,19 L5,18.2969 L5,33.2031 L7.79688,33.2031 L7.79688,17.7031 L16.7031,15.9063 L16.7031,30 L19.5,30 L19.5,15.2969 L23.2969,14.5938 C23.9063,14.5 24.4063,13.7969 24.4063,13.2031 L24.4063,7.29688 C24.4063,6.5 23.7969,5.90625 23,5.90625 L22.7969,5.90625 L19.5,6.59375 L19.5,-9.90625 L23.2969,-10.5938 M7.79688,9.09375 L7.79688,-7.5 L16.7031,-9.29688 L16.7031,7.20313 L7.79688,9.09375 "/>
<path class="Accidental" transform="matrix(0.959998,0,0,0.959998,2798.92,351.866)" d="M23.2969,-10.5938 C23.9063,-10.7031 24.4063,-11.4063 24.4063,-12 L24.4063,-17.9063 C24.4063,-18.7031 23.7969,-19.2969 23,-19.2969 L22.7969,-19.2969 L19.5,-18.5938 L19.5,-33.5 L16.7031,-33.5 L16.7031,-18 L7.79688,-16.2031 L7.79688,-30.2969 L5,-30.2969 L5,-15.5938 L1.09375,-14.7969 C0.5,-14.7031 0,-14 0,-13.4063 L0,-13.2031 L0,-7.40625 L0,-7.59375 C0,-6.79688 0.59375,-6.20313 1.40625,-6.20313 L1.70313,-6.20313 L5,-6.90625 L5,9.59375 L1.09375,10.4063 C0.5,10.5 0,11.2031 0,11.7969 L0,17.5938 C0,18.4063 0.59375,19 1.40625,19 L1.70313,19 L5,18.2969 L5,33.2031 L7.79688,33.2031 L7.79688,17.7031 L16.7031,15.9063 L16.7031,30 L19.5,30 L19.5,15.2969 L23.2969,14.5938 C23.9063,14.5 24.4063,13.7969 24.4063,13.2031 L24.4063,7.29688 C24.4063,6.5 23.7969,5.90625 23,5.90625 L22.7969,5.90625 L19.5,6.59375 L19.5,-9.90625 L23.2969,-10.5938 M7.79688,9.09375 L7.79688,-7.5 L16.7031,-9.29688 L16.7031,7.20313 L7.79688,9.09375 "/>
<path class="Accidental" transform="matrix(0.959998,0,0,0.959998,2936.58,327.866)" d="M20.0938,-7.90625 C19.5,-11.7969 17.0938,-15.5 12,-15.5 C7,-15.5 4.09375,-12.4063 3.59375,-11.7969 L4,-43.9063 C4,-44.7031 3.40625,-45.2969 2.59375,-45.2969 L1.40625,-45.2969 C0.59375,-45.2969 0,-44.7031 0,-43.9063 L0.5,16.2031 C0.5,17 1.09375,17.5938 1.90625,17.5938 C2.09375,17.5938 2.5,17.5 2.70313,17.4063 C3.09375,17.2031 9.59375,14 15,7.90625 C18.7969,3.59375 20.2969,-1.29688 20.2969,-5.40625 C20.2969,-6.29688 20.2031,-7.09375 20.0938,-7.90625 M13.2031,-4 C13.2031,-2.5 12.7969,2.09375 10.2969,5.90625 C8.59375,8.5 5.20313,11.2031 3.29688,12.7031 L3.59375,-6.79688 C3.79688,-7.70313 5.29688,-10.5938 9.29688,-10.5938 C12.9063,-10.5938 13.2031,-7.20313 13.2031,-5.09375 L13.2031,-4 "/>
<path class="Accidental" transform="matrix(0.959998,0,0,0.959998,3073.37,327.866)" d="M16.5938,-18.2969 C16.4063,-18.5 16.0938,-18.5938 15.7969,-18.5938 C15.7031,-18.5938 15.5,-18.5 15.4063,-18.5 L2.79688,-15 L2.79688,-32.5 L0,-32.5 L0,17 C0,17.7969 0.59375,18.2969 1.40625,18.2969 L1.79688,18.2969 L14.4063,14.7969 L14.4063,32.2969 L17.0938,32.2969 L17.0938,-17.2031 C17.0938,-17.5938 16.9063,-18.0938 16.5938,-18.2969 M14.4063,6.5 L2.79688,9.70313 L2.79688,-6.70313 L14.4063,-10 L14.4063,6.5 "/>
<path class="Accidental" transform="matrix(0.959998,0,0,0.959998,3734.95,315.866)" d="M23.2969,-10.5938 C23.9063,-10.7031 24.4063,-11.4063 24.4063,-12 L24.4063,-17.9063 C24.4063,-18.7031 23.7969,-19.2969 23,-19.2969 L22.7969,-19.2969 L19.5,-18.5938 L19.5,-33.5 L16.7031,-33.5 L16.7031,-18 L7.79688,-16.2031 L7.79688,-30.2969 L5,-30.2969 L5,-15.5938 L1.09375,-14.7969 C0.5,-14.7031 0,-14 0,-13.4063 L0,-13.2031 L0,-7.40625 L0,-7.59375 C0,-6.79688 0.59375,-6.20313 1.40625,-6.20313 L1.70313,-6.20313 L5,-6.90625 L5,9.59375 L1.09375,10.4063 C0.5,10.5 0,11.2031 0,11.7969 L0,17.5938 C0,18.4063 0.59375,19 1.40625,19 L1.70313,19 L5,18.2969 L5,33.2031 L7.79688,33.2031 L7.79688,17.7031 L16.7031,15.9063 L16.7031,30 L19.5,30 L19.5,15.2969 L23.2969,14.5938 C23.9063,14.5 24.4063,13.7969 24.4063,13.2031 L24.4063,7.29688 C24.4063,6.5 23.7969,5.90625 23,5.90625 L22.7969,5.90625 L19.5,6.59375 L19.5,-9.90625 L23.2969,-10.5938 M7.79688,9.09375 L7.79688,-7.5 L16.7031,-9.29688 L16.7031,7.20313 L7.79688,9.09375 "/>
<polyline class="Stem" stroke="#000000" stroke-width="2.64" stroke-linejoin="bevel" points="563.304,355.091 563.304,435.865"/>
<polyline class="Stem" stroke="#000000" stroke-width="2.64" stroke-linejoin="bevel" points="692.11,355.091 692.11,423.865"/>
<polyline class="Stem" stroke="#000000" stroke-width="2.64" stroke-linejoin="bevel" points="820.915,355.091 820.915,423.865"/>
<polyline class="Stem" stroke="#000000" stroke-width="2.64" stroke-linejoin="bevel" points="949.72,355.091 949.72,423.865"/>
<polyline class="Stem" stroke="#000000" stroke-width="2.64" stroke-linejoin="bevel" points="1078.53,307.091 1078.53,423.865"/>
<polyline class="Stem" stroke="#000000" stroke-width="2.64" stroke-linejoin="bevel" points="1207.33,307.091 1207.33,399.865"/>
<polyline class="Stem" stroke="#000000" stroke-width="2.64" stroke-linejoin="bevel" points="1413.42,319.091 1413.42,399.865"/>
<polyline class="Stem" stroke="#000000" stroke-width="2.64" stroke-linejoin="bevel" points="1542.22,319.091 1542.22,399.865"/>
<polyline class="Stem" stroke="#000000" stroke-width="2.64" stroke-linejoin="bevel" points="1748.31,331.091 1748.31,399.865"/>
<polyline class="Stem" stroke="#000000" stroke-width="2.64" stroke-linejoin="bevel" points="1877.12,319.091 1877.12,399.865"/>
<polyline class="Stem" stroke="#000000" stroke-width="2.64" stroke-linejoin="bevel" points="2134.33,319.091 2134.33,399.865"/>
<polyline class="Stem" stroke="#000000" stroke-width="2.64" stroke-linejoin="bevel" points="2562.23,367.091 2562.23,441.865"/>
<polyline class="Stem" stroke="#000000" stroke-width="2.64" stroke-linejoin="bevel" points="2695.95,367.091 2695.95,433.865"/>
<polyline class="Stem" stroke="#000000" stroke-width="2.64" stroke-linejoin="bevel" points="2829.66,355.091 2829.66,425.865"/>
<polyline class="Stem" stroke="#000000" stroke-width="2.64" stroke-linejoin="bevel" points="2963.38,331.091 2963.38,417.865"/>
<polyline class="Stem" stroke="#000000" stroke-width="2.64" stroke-linejoin="bevel" points="3097.1,331.091 3097.1,423.865"/>
<polyline class="Stem" stroke="#000000" stroke-width="2.64" stroke-linejoin="bevel" points="3230.82,355.091 3230.82,423.865"/>
<polyline class="Stem" stroke="#000000" stroke-width="2.64" stroke-linejoin="bevel" points="3364.54,331.091 3364.54,423.865"/>
<polyline class="Stem" stroke="#000000" stroke-width="2.64" stroke-linejoin="bevel" points="3498.26,355.091 3498.26,423.865"/>
<polyline class="Stem" stroke="#000000" stroke-width="2.64" stroke-linejoin="bevel" points="3631.98,331.091 3631.98,399.865"/>
<polyline class="Stem" stroke="#000000" stroke-width="2.64" stroke-linejoin="bevel" points="3765.7,319.091 3765.7,399.865"/>
<polyline class="Stem" stroke="#000000" stroke-width="2.64" stroke-linejoin="bevel" points="3899.42,331.091 3899.42,399.865"/>
<path class="Note" transform="matrix(0.959998,0,0,0.959998,561.984,351.866)" d="M31.5,-8.09375 C29.7031,-11.4063 25.9063,-13.2031 21.2969,-13.2031 C17.9063,-13.2031 14.2031,-12.2031 10.5938,-10.2969 C4,-6.79688 0,-0.90625 0,4.20313 C0,5.59375 0.296875,7 1,8.29688 C2.79688,11.5938 6.59375,13.2969 11.2031,13.2969 C14.5938,13.2969 18.2969,12.4063 21.9063,10.5 C28.5,7 32.5,1.09375 32.5,-4 C32.5,-5.40625 32.2031,-6.79688 31.5,-8.09375"/>
<path class="Note" transform="matrix(0.959998,0,0,0.959998,690.79,351.866)" d="M31.5,-8.09375 C29.7031,-11.4063 25.9063,-13.2031 21.2969,-13.2031 C17.9063,-13.2031 14.2031,-12.2031 10.5938,-10.2969 C4,-6.79688 0,-0.90625 0,4.20313 C0,5.59375 0.296875,7 1,8.29688 C2.79688,11.5938 6.59375,13.2969 11.2031,13.2969 C14.5938,13.2969 18.2969,12.4063 21.9063,10.5 C28.5,7 32.5,1.09375 32.5,-4 C32.5,-5.40625 32.2031,-6.79688 31.5,-8.09375"/>
<path class="Note" transform="matrix(0.959998,0,0,0.959998,819.595,351.866)" d="M31.5,-8.09375 C29.7031,-11.4063 25.9063,-13.2031 21.2969,-13.2031 C17.9063,-13.2031 14.2031,-12.2031 10.5938,-10.2969 C4,-6.79688 0,-0.90625 0,4.20313 C0,5.59375 0.296875,7 1,8.29688 C2.79688,11.5938 6.59375,13.2969 11.2031,13.2969 C14.5938,13.2969 18.2969,12.4063 21.9063,10.5 C28.5,7 32.5,1.09375 32.5,-4 C32.5,-5.40625 32.2031,-6.79688 31.5,-8.09375"/>
<path class="Note" transform="matrix(0.959998,0,0,0.959998,948.4,351.866)" d="M31.5,-8.09375 C29.7031,-11.4063 25.9063,-13.2031 21.2969,-13.2031 C17.9063,-13.2031 14.2031,-12.2031 10.5938,-10.2969 C4,-6.79688 0,-0.90625 0,4.20313 C0,5.59375 0.296875,7 1,8.29688 C2.79688,11.5938 6.59375,13.2969 11.2031,13.2969 C14.5938,13.2969 18.2969,12.4063 21.9063,10.5 C28.5,7 32.5,1.09375 32.5,-4 C32.5,-5.40625 32.2031,-6.79688 31.5,-8.09375"/>
<path class="Note" transform="matrix(0.959998,0,0,0.959998,1077.21,303.866)" d="M31.5,-8.09375 C29.7031,-11.4063 25.9063,-13.2031 21.2969,-13.2031 C17.9063,-13.2031 14.2031,-12.2031 10.5938,-10.2969 C4,-6.79688 0,-0.90625 0,4.20313 C0,5.59375 0.296875,7 1,8.29688 C2.79688,11.5938 6.59375,13.2969 11.2031,13.2969 C14.5938,13.2969 18.2969,12.4063 21.9063,10.5 C28.5,7 32.5,1.09375 32.5,-4 C32.5,-5.40625 32.2031,-6.79688 31.5,-8.09375"/>
<path class="Note" transform="matrix(0.959998,0,0,0.959998,1206.01,303.866)" d="M31.5,-8.09375 C29.7031,-11.4063 25.9063,-13.2031 21.2969,-13.2031 C17.9063,-13.2031 14.2031,-12.2031 10.5938,-10.2969 C4,-6.79688 0,-0.90625 0,4.20313 C0,5.59375 0.296875,7 1,8.29688 C2.79688,11.5938 6.59375,13.2969 11.2031,13.2969 C14.5938,13.2969 18.2969,12.4063 21.9063,10.5 C28.5,7 32.5,1.09375 32.5,-4 C32.5,-5.40625 32.2031,-6.79688 31.5,-8.09375"/>
<path class="Note" transform="matrix(0.959998,0,0,0.959998,1412.1,315.866)" d="M31.5,-8.09375 C29.7031,-11.4063 25.9063,-13.2031 21.2969,-13.2031 C17.9063,-13.2031 14.2031,-12.2031 10.5938,-10.2969 C4,-6.79688 0,-0.90625 0,4.20313 C0,5.59375 0.296875,7 1,8.29688 C2.79688,11.5938 6.59375,13.2969 11.2031,13.2969 C14.5938,13.2969 18.2969,12.4063 21.9063,10.5 C28.5,7 32.5,1.09375 32.5,-4 C32.5,-5.40625 32.2031,-6.79688 31.5,-8.09375"/>
<path class="Note" transform="matrix(0.959998,0,0,0.959998,1540.9,315.866)" d="M31.5,-8.09375 C29.7031,-11.4063 25.9063,-13.2031 21.2969,-13.2031 C17.9063,-13.2031 14.2031,-12.2031 10.5938,-10.2969 C4,-6.79688 0,-0.90625 0,4.20313 C0,5.59375 0.296875,7 1,8.29688 C2.79688,11.5938 6.59375,13.2969 11.2031,13.2969 C14.5938,13.2969 18.2969,12.4063 21.9063,10.5 C28.5,7 32.5,1.09375 32.5,-4 C32.5,-5.40625 32.2031,-6.79688 31.5,-8.09375"/>
<path class="Note" transform="matrix(0.959998,0,0,0.959998,1746.99,327.866)" d="M31.5,-8.09375 C29.7031,-11.4063 25.9063,-13.2031 21.2969,-13.2031 C17.9063,-13.2031 14.2031,-12.2031 10.5938,-10.2969 C4,-6.79688 0,-0.90625 0,4.20313 C0,5.59375 0.296875,7 1,8.29688 C2.79688,11.5938 6.59375,13.2969 11.2031,13.2969 C14.5938,13.2969 18.2969,12.4063 21.9063,10.5 C28.5,7 32.5,1.09375 32.5,-4 C32.5,-5.40625 32.2031,-6.79688 31.5,-8.09375"/>
<path class="Note" transform="matrix(0.959998,0,0,0.959998,1875.8,315.866)" d="M31.5,-8.09375 C29.7031,-11.4063 25.9063,-13.2031 21.2969,-13.2031 C17.9063,-13.2031 14.2031,-12.2031 10.5938,-10.2969 C4,-6.79688 0,-0.90625 0,4.20313 C0,5.59375 0.296875,7 1,8.29688 C2.79688,11.5938 6.59375,13.2969 11.2031,13.2969 C14.5938,13.2969 18.2969,12.4063 21.9063,10.5 C28.5,7 32.5,1.09375 32.5,-4 C32.5,-5.40625 32.2031,-6.79688 31.5,-8.09375"/>
<path class="Note" transform="matrix(0.959998,0,0,0.959998,2133.01,315.866)" d="M31.5,-8.09375 C29.7031,-11.4063 25.9063,-13.2031 21.2969,-13.2031 C17.9063,-13.2031 14.2031,-12.2031 10.5938,-10.2969 C4,-6.79688 0,-0.90625 0,4.20313 C0,5.59375 0.296875,7 1,8.29688 C2.79688,11.5938 6.59375,13.2969 11.2031,13.2969 C14.5938,13.2969 18.2969,12.4063 21.9063,10.5 C28.5,7 32.5,1.09375 32.5,-4 C32.5,-5.40625 32.2031,-6.79688 31.5,-8.09375"/>
<path class="Note" transform="matrix(0.959998,0,0,0.959998,2560.91,363.866)" d="M31.5,-8.09375 C29.7031,-11.4063 25.9063,-13.2031 21.2969,-13.2031 C17.9063,-13.2031 14.2031,-12.2031 10.5938,-10.2969 C4,-6.79688 0,-0.90625 0,4.20313 C0,5.59375 0.296875,7 1,8.29688 C2.79688,11.5938 6.59375,13.2969 11.2031,13.2969 C14.5938,13.2969 18.2969,12.4063 21.9063,10.5 C28.5,7 32.5,1.09375 32.5,-4 C32.5,-5.40625 32.2031,-6.79688 31.5,-8.09375"/>
<path class="Note" transform="matrix(0.959998,0,0,0.959998,2694.63,363.866)" d="M31.5,-8.09375 C29.7031,-11.4063 25.9063,-13.2031 21.2969,-13.2031 C17.9063,-13.2031 14.2031,-12.2031 10.5938,-10.2969 C4,-6.79688 0,-0.90625 0,4.20313 C0,5.59375 0.296875,7 1,8.29688 C2.79688,11.5938 6.59375,13.2969 11.2031,13.2969 C14.5938,13.2969 18.2969,12.4063 21.9063,10.5 C28.5,7 32.5,1.09375 32.5,-4 C32.5,-5.40625 32.2031,-6.79688 31.5,-8.09375"/>
<path class="Note" transform="matrix(0.959998,0,0,0.959998,2828.34,351.866)" d="M31.5,-8.09375 C29.7031,-11.4063 25.9063,-13.2031 21.2969,-13.2031 C17.9063,-13.2031 14.2031,-12.2031 10.5938,-10.2969 C4,-6.79688 0,-0.90625 0,4.20313 C0,5.59375 0.296875,7 1,8.29688 C2.79688,11.5938 6.59375,13.2969 11.2031,13.2969 C14.5938,13.2969 18.2969,12.4063 21.9063,10.5 C28.5,7 32.5,1.09375 32.5,-4 C32.5,-5.40625 32.2031,-6.79688 31.5,-8.09375"/>
<path class="Note" transform="matrix(0.959998,0,0,0.959998,2962.06,327.866)" d="M31.5,-8.09375 C29.7031,-11.4063 25.9063,-13.2031 21.2969,-13.2031 C17.9063,-13.2031 14.2031,-12.2031 10.5938,-10.2969 C4,-6.79688 0,-0.90625 0,4.20313 C0,5.59375 0.296875,7 1,8.29688 C2.79688,11.5938 6.59375,13.2969 11.2031,13.2969 C14.5938,13.2969 18.2969,12.4063 21.9063,10.5 C28.5,7 32.5,1.09375 32.5,-4 C32.5,-5.40625 32.2031,-6.79688 31.5,-8.09375"/>
<path class="Note" transform="matrix(0.959998,0,0,0.959998,3095.78,327.866)" d="M31.5,-8.09375 C29.7031,-11.4063 25.9063,-13.2031 21.2969,-13.2031 C17.9063,-13.2031 14.2031,-12.2031 10.5938,-10.2969 C4,-6.79688 0,-0.90625 0,4.20313 C0,5.59375 0.296875,7 1,8.29688 C2.79688,11.5938 6.59375,13.2969 11.2031,13.2969 C14.5938,13.2969 18.2969,12.4063 21.9063,10.5 C28.5,7 32.5,1.09375 32.5,-4 C32.5,-5.40625 32.2031,-6.79688 31.5,-8.09375"/>
<path class="Note" transform="matrix(0.959998,0,0,0.959998,3229.5,351.866)" d="M31.5,-8.09375 C29.7031,-11.4063 25.9063,-13.2031 21.2969,-13.2031 C17.9063,-13.2031 14.2031,-12.2031 10.5938,-10.2969 C4,-6.79688 0,-0.90625 0,4.20313 C0,5.59375 0.296875,7 1,8.29688 C2.79688,11.5938 6.59375,13.2969 11.2031,13.2969 C14.5938,13.2969 18.2969,12.4063 21.9063,10.5 C28.5,7 32.5,1.09375 32.5,-4 C32.5,-5.40625 32.2031,-6.79688 31.5,-8.09375"/>
<path class="Note" transform="matrix(0.959998,0,0,0.959998,3363.22,327.866)" d="M31.5,-8.09375 C29.7031,-11.4063 25.9063,-13.2031 21.2969,-13.2031 C17.9063,-13.2031 14.2031,-12.2031 10.5938,-10.2969 C4,-6.79688 0,-0.90625 0,4.20313 C0,5.59375 0.296875,7 1,8.29688 C2.79688,11.5938 6.59375,13.2969 11.2031,13.2969 C14.5938,13.2969 18.2969,12.4063 21.9063,10.5 C28.5,7 32.5,1.09375 32.5,-4 C32.5,-5.40625 32.2031,-6.79688 31.5,-8.09375"/>
<path class="Note" transform="matrix(0.959998,0,0,0.959998,3496.94,351.866)" d="M31.5,-8.09375 C29.7031,-11.4063 25.9063,-13.2031 21.2969,-13.2031 C17.9063,-13.2031 14.2031,-12.2031 10.5938,-10.2969 C4,-6.79688 0,-0.90625 0,4.20313 C0,5.59375 0.296875,7 1,8.29688 C2.79688,11.5938 6.59375,13.2969 11.2031,13.2969 C14.5938,13.2969 18.2969,12.4063 21.9063,10.5 C28.5,7 32.5,1.09375 32.5,-4 C32.5,-5.40625 32.2031,-6.79688 31.5,-8.09375"/>
<path class="Note" transform="matrix(0.959998,0,0,0.959998,3630.66,327.866)" d="M31.5,-8.09375 C29.7031,-11.4063 25.9063,-13.2031 21.2969,-13.2031 C17.9063,-13.2031 14.2031,-12.2031 10.5938,-10.2969 C4,-6.79688 0,-0.90625 0,4.20313 C0,5.59375 0.296875,7 1,8.29688 C2.79688,11.5938 6.59375,13.2969 11.2031,13.2969 C14.5938,13.2969 18.2969,12.4063 21.9063,10.5 C28.5,7 32.5,1.09375 32.5,-4 C32.5,-5.40625 32.2031,-6.79688 31.5,-8.09375"/>
<path class="Note" transform="matrix(0.959998,0,0,0.959998,3764.38,315.866)" d="M31.5,-8.09375 C29.7031,-11.4063 25.9063,-13.2031 21.2969,-13.2031 C17.9063,-13.2031 14.2031,-12.2031 10.5938,-10.2969 C4,-6.79688 0,-0.90625 0,4.20313 C0,5.59375 0.296875,7 1,8.29688 C2.79688,11.5938 6.59375,13.2969 11.2031,13.2969 C14.5938,13.2969 18.2969,12.4063 21.9063,10.5 C28.5,7 32.5,1.09375 32.5,-4 C32.5,-5.40625 32.2031,-6.79688 31.5,-8.09375"/>
<path class="Note" transform="matrix(0.959998,0,0,0.959998,3898.1,327.866)" d="M31.5,-8.09375 C29.7031,-11.4063 25.9063,-13.2031 21.2969,-13.2031 C17.9063,-13.2031 14.2031,-12.2031 10.5938,-10.2969 C4,-6.79688 0,-0.90625 0,4.20313 C0,5.59375 0.296875,7 1,8.29688 C2.79688,11.5938 6.59375,13.2969 11.2031,13.2969 C14.5938,13.2969 18.2969,12.4063 21.9063,10.5 C28.5,7 32.5,1.09375 32.5,-4 C32.5,-5.40625 32.2031,-6.79688 31.5,-8.09375"/>
<path class="Clef" transform="matrix(0.959998,0,0,0.959998,90.066,351.866)" d="M63.3594,-5.92188 C62.125,-11.3438 59.4844,-15.1719 58.7031,-16.2031 C55.5156,-20.4844 51.5,-23.3281 46.8125,-24.6875 C43.7031,-25.5625 40.7031,-25.6875 38.2813,-25.5 C37.2344,-31.5156 36.2344,-37.3906 35.3281,-42.8438 C40.7813,-49.0156 44.4063,-54.8125 46.6875,-59.1094 C50.1563,-65.6875 51.2969,-70.2656 51.3594,-70.4688 C53.0781,-75.6875 53.4375,-83.3906 52.3281,-91.5938 C51.3281,-99.1406 49.2344,-105.859 46.875,-109.109 C45.8594,-110.531 44.7969,-111.266 43.7656,-111.266 C42.5469,-111.266 40.0313,-110.031 37.1406,-107.25 C34.8438,-105.063 31.5781,-101.172 29.0156,-95.1563 C26.0156,-88.0938 25.7969,-78.6094 26.1563,-71.8906 C26.5313,-64.6094 27.6406,-58.9219 27.6563,-58.875 C27.6719,-58.7813 27.9375,-57.2813 28.375,-54.7188 C28.1563,-54.4844 27.9063,-54.2656 27.6563,-54.0156 C26.625,-53.0156 25.4375,-51.8906 24.0469,-50.5 C23.1875,-49.6406 22.2344,-48.7344 21.2344,-47.7656 C12.7969,-39.625 0,-27.2969 0,-8.14063 C0,-3.4375 0.90625,0.984375 2.6875,5 C4.26563,8.59375 6.5625,11.875 9.5,14.75 C17.2344,22.3125 27.8281,25.5156 34.875,25.3594 C37.8281,25.2813 40.4688,25.0469 42.8594,24.5938 C44.6875,34.2031 45.8281,41.2344 45.8594,46.5781 C45.9063,53.0938 44.25,57.0781 40.3594,59.8438 C37.9219,61.5781 35.1094,62.5313 32.0156,62.6719 C29.4219,62.7969 27.1563,62.3281 25.7344,61.9219 L25.7188,61.9219 C25.7188,61.9219 25.4375,61.8281 25.4219,61.6406 C25.4063,61.4531 25.7656,61.4063 25.7656,61.4063 L25.7969,61.4063 C27.7188,60.9688 31.2813,59.7344 33.6406,56.4375 C35.4375,53.9063 36.3125,49.2813 34.4688,45.3438 C33.3594,42.9531 30.8594,40 25.2344,39.5469 C22.7344,39.3438 20.4688,39.8594 18.4688,41.0625 C16.6563,42.1406 15.1563,43.7813 14.1094,45.7813 C11.6563,50.4844 12.1094,56.2188 15.2344,60.0625 C18.2031,63.6875 22.8125,66 28.25,66.5781 C29.1094,66.6719 29.9531,66.7031 30.7969,66.7031 C35.2344,66.7031 39.625,65.5 43.2031,63.2969 C46.8594,60.7188 48.9844,56.7344 49.6563,51.1094 C50.2188,46.4688 49.8281,40.5469 48.4375,32.4688 C48.0781,30.375 47.5313,27.3438 46.875,23.5938 C52.625,21.6719 56.7813,18.0938 60.5469,12.2344 C63.8438,6.5 64.7813,0.390625 63.3594,-5.92188 M29.1406,20.2969 C24.5,19.0781 20.0625,16.5781 16.3125,13.0625 C15,11.8438 13.125,9.67188 11.6563,6.28125 C10.2969,3.10938 9.625,-0.328125 9.6875,-3.90625 C9.75,-8.60938 11.0625,-13.4375 13.5625,-18.2188 C16.4844,-23.7969 21.0469,-29.3281 27.1094,-34.6563 C28.5625,-35.9375 29.9375,-37.2188 31.2188,-38.5 C31.9844,-34.2344 32.8125,-29.5469 33.6875,-24.6719 C29.8438,-23.4063 25.0938,-20.25 21.9844,-14.5938 C18.4375,-8.03125 18.5781,-2.5 19.3125,0.984375 C20.25,5.4375 22.7813,9.20313 26.2344,11.2969 C27.1719,11.8594 31.2969,13.9844 33.1406,13.4063 C33.5156,13.2969 33.7813,13.0625 33.9219,12.7344 C34.4375,11.5625 33.4063,10.9219 31.8594,9.96875 C31.25,9.59375 30.5781,9.17188 29.8594,8.64063 C26.5313,6.15625 25.0781,1.70313 26.1563,-2.6875 C26.7344,-5.07813 28.0156,-7.25 29.8594,-8.95313 C31.5156,-10.5 33.5625,-11.5938 35.9375,-12.2344 C37.9844,-0.984375 40.0469,10.1719 41.6875,18.5313 C41.8125,19.2188 41.9531,19.8906 42.0781,20.5625 C37.7031,21.5 33.3594,21.4063 29.1406,20.2969 M40.4688,-12.9063 C50.8125,-13.375 55.0781,-5.9375 55.9688,-1.10938 C56.4375,1.4375 56.4375,5.875 54.8906,10.0938 C53.7188,13.2656 51.2656,17.3438 46.125,19.4063 C46.0625,18.9844 45.9844,18.5469 45.9063,18.125 C44.3594,9.34375 42.4219,-1.65625 40.4688,-12.9063 M33.1406,-83.8594 C34.9219,-89.5938 37.6563,-92.8438 39.6563,-94.5781 C41.4063,-96.0938 43.0469,-96.8125 43.9688,-96.8125 C44.1094,-96.8125 44.2344,-96.7813 44.3281,-96.75 C44.7969,-96.6094 45.3281,-96.0469 45.7969,-95.1719 C48.1094,-90.8906 47.3594,-84.1719 46.0156,-79.7344 C44.3906,-74.3281 41.4688,-68.7188 32.6719,-59.1094 C32.5,-60.2188 32.3438,-61.2656 32.1875,-62.25 C30.9375,-70.5313 31.2656,-77.8125 33.1406,-83.8594"/>
<path class="Rest" transform="matrix(0.959998,0,0,0.959998,227.091,327.866)" d="M26.7344,-20.2656 C25.9844,-20.5469 25.3125,-20.2031 24.9844,-19.5938 C24.6563,-18.9844 21.4688,-13.0625 17.0469,-9.79688 C15.6563,-8.78125 14.0625,-8.14063 12.5,-7.8125 C13.625,-9.0625 14.2969,-10.7344 14.2969,-12.5469 C14.2969,-16.5 11.0938,-19.7031 7.15625,-19.7031 C3.20313,-19.7031 0,-16.5 0,-12.5469 C0,-9.54688 1.875,-6.95313 4.51563,-5.90625 C6.04688,-5.1875 7.95313,-4.73438 10,-4.73438 C12.8438,-4.73438 15.9531,-5.5625 18.6719,-7.5625 C19.9375,-8.48438 21.125,-9.6875 22.2031,-10.9375 L10.8125,24.6875 L13.4531,25.5469 L27.5313,-18.5469 C27.7656,-19.2813 27.4688,-19.9688 26.7344,-20.2656"/>
<path class="Rest" transform="matrix(0.959998,0,0,0.959998,433.179,327.866)" d="M33.4688,-20.2656 C32.7188,-20.5313 32.0469,-20.1719 31.7344,-19.5469 C31.4375,-18.9375 28.6094,-13.5 24.2969,-10.0938 C22.9531,-9.03125 21.3906,-8.34375 19.8281,-7.95313 C20.9063,-9.26563 21.5313,-10.9375 21.4688,-12.75 C21.3281,-16.6875 18.0313,-19.7656 14.0938,-19.625 C10.1563,-19.4844 7.0625,-16.1875 7.20313,-12.25 C7.3125,-9.23438 9.26563,-6.73438 11.9375,-5.78125 C13.5,-5.09375 15.4063,-4.73438 17.4531,-4.79688 C20.2969,-4.90625 23.375,-5.84375 26.0156,-7.92188 C27.25,-8.89063 28.4063,-10.125 29.4375,-11.4219 L29.4375,-11.4063 L24.9375,4.5 C24.9375,4.5 24.9375,4.51563 24.9219,4.51563 L24.9219,4.53125 C24.4531,5.48438 21.2031,11.6563 17.1875,14.8281 C15.8438,15.9063 14.2813,16.5938 12.7188,16.9688 C13.7969,15.6719 14.4219,14 14.3594,12.1875 C14.2188,8.23438 10.9219,5.15625 6.98438,5.29688 C3.04688,5.4375 -0.046875,8.73438 0.09375,12.6875 C0.203125,15.6875 2.15625,18.1875 4.82813,19.1563 C6.39063,19.8281 8.29688,20.2031 10.3438,20.125 C13.1875,20.0313 16.2656,19.0938 18.9063,17.0156 C20.125,16.0469 21.2813,14.8281 22.3125,13.5156 L12.1094,49.9844 L14.7813,50.7344 L33.4531,-15.4688 L34.3281,-18.5938 C34.5313,-19.3281 34.2188,-20.0156 33.4688,-20.2656"/>
<path class="Rest" transform="matrix(0.959998,0,0,0.959998,2346.96,327.866)" d="M26.7344,-20.2656 C25.9844,-20.5469 25.3125,-20.2031 24.9844,-19.5938 C24.6563,-18.9844 21.4688,-13.0625 17.0469,-9.79688 C15.6563,-8.78125 14.0625,-8.14063 12.5,-7.8125 C13.625,-9.0625 14.2969,-10.7344 14.2969,-12.5469 C14.2969,-16.5 11.0938,-19.7031 7.15625,-19.7031 C3.20313,-19.7031 0,-16.5 0,-12.5469 C0,-9.54688 1.875,-6.95313 4.51563,-5.90625 C6.04688,-5.1875 7.95313,-4.73438 10,-4.73438 C12.8438,-4.73438 15.9531,-5.5625 18.6719,-7.5625 C19.9375,-8.48438 21.125,-9.6875 22.2031,-10.9375 L10.8125,24.6875 L13.4531,25.5469 L27.5313,-18.5469 C27.7656,-19.2813 27.4688,-19.9688 26.7344,-20.2656"/>
<path class="Beam" fill-rule="evenodd" d="M690.79,417.865 L1079.85,417.865 L1079.85,429.865 L690.79,429.865 L690.79,417.865 "/>
<path class="Beam" fill-rule="evenodd" d="M690.79,399.865 L1079.85,399.865 L1079.85,411.865 L690.79,411.865 L690.79,399.865 "/>
<path class="Beam" fill-rule="evenodd" d="M1206.01,393.865 L1878.44,393.865 L1878.44,405.865 L1206.01,405.865 L1206.01,393.865 "/>
<path class="Beam" fill-rule="evenodd" d="M1412.1,375.866 L1443.3,375.866 L1443.3,387.865 L1412.1,387.865 L1412.1,375.866 "/>
<path class="Beam" fill-rule="evenodd" d="M1749.63,375.866 L1718.43,375.866 L1718.43,387.865 L1749.63,387.865 L1749.63,375.866 "/>
<path class="Beam" fill-rule="evenodd" d="M2560.91,435.855 L2964.7,411.697 L2964.7,423.718 L2560.91,447.876 L2560.91,435.855 "/>
<path class="Beam" fill-rule="evenodd" d="M2560.91,417.855 L2964.7,393.697 L2964.7,405.718 L2560.91,429.876 L2560.91,417.855 "/>
<path class="Beam" fill-rule="evenodd" d="M3095.78,417.865 L3499.58,417.865 L3499.58,429.865 L3095.78,429.865 L3095.78,417.865 "/>
<path class="Beam" fill-rule="evenodd" d="M3095.78,399.865 L3499.58,399.865 L3499.58,411.865 L3095.78,411.865 L3095.78,399.865 "/>
<path class="Beam" fill-rule="evenodd" d="M3630.66,393.865 L3900.74,393.865 L3900.74,405.865 L3630.66,405.865 L3630.66,393.865 "/>
<path class="Beam" fill-rule="evenodd" d="M3630.66,375.866 L3767.02,375.866 L3767.02,387.865 L3630.66,387.865 L3630.66,375.866 "/>
<path class="Hook" transform="matrix(0.959998,0,0,0.959998,561.984,435.865)" d="M-0.046875,0.765625 C-0.046875,1.45313 0.265625,2.01563 1.42188,2.01563 C2.57813,2.01563 2.79688,1.5 2.90625,0.765625 C2.90625,0.765625 4.46875,-9.85938 8.28125,-15.4063 C12.1094,-20.9531 18.3125,-24.0938 23.1406,-30.2656 C26.6563,-34.7344 27.9063,-40.0938 28,-45.3125 C28.0938,-50.2813 27.125,-55.0938 26.0469,-58.9219 C26.3906,-61.0313 26.5781,-63.4688 26.5781,-66.3125 C26.5781,-71.9844 24,-77.3906 22.1563,-80.25 C21.6875,-81 21.1719,-82.0625 20.125,-81.5156 C19.0781,-80.9688 19.5469,-79.75 19.875,-78.8125 C21.3438,-74.7813 22.0156,-69.7188 22.0938,-67.2188 C22.2344,-63.2344 21.9219,-59.3438 17.9219,-53.3594 C11.9375,-44.4219 4.01563,-39.4531 1.42188,-38.5 C0.75,-38.2656 -0.046875,-37.7813 -0.046875,-37.5469 L-0.046875,0.765625 M23.4531,-50.7031 C23.7969,-45.8906 23.8594,-41.0781 18.2188,-34.2188 C14.4219,-29.625 8.3125,-25.0781 3.82813,-24.7188 L3.71875,-24.2969 C3.78125,-24.6406 3.84375,-24.9375 3.90625,-25.1719 C4.5625,-27.7188 6.40625,-31.2031 10.3125,-35.1406 C15.2344,-40.0781 18.2031,-43.2344 20.9063,-46.75 C21.7031,-47.7813 22.8438,-49.5469 23.4531,-50.7031"/>
<path class="Hook" transform="matrix(0.959998,0,0,0.959998,2133.01,399.865)" d="M2.5,0.40625 C2.5,0.203125 3.40625,-3.20313 3.5,-3.5 C3.59375,-3.90625 5.40625,-9.59375 9.09375,-15.2969 C11.7969,-19.5 21.2969,-31.7969 21,-31.7969 C21,-31.7969 28.4063,-41.2969 28.9063,-54.2031 L28.9063,-56.5 C28.9063,-62.6094 28.1094,-71.2031 24.5938,-79.9063 C24.2031,-80.9063 23.7969,-81.9063 22.7031,-81.5 C21.5938,-81.1094 21.9063,-79.9063 22.2031,-78.8125 C24,-71.7969 25,-64.6094 25,-57.4063 C25,-49 22,-44.7969 20.2031,-41.7031 C13.5938,-30.6094 5,-25.2031 0.796875,-23.7969 C0.296875,-23.5938 0,-23.2031 0,-22.7031 L0,-16.5 L0,-0.09375 C0,0.59375 0.59375,1.20313 1.29688,1.20313 C1.79688,1.20313 2.40625,0.796875 2.5,0.40625"/>
<path class="Jump" d="M4039.13,231.866 L4056.94,231.866 C4061.66,231.866 4065.25,231.131 4068.07,229.538 C4073.42,226.506 4076.39,220.475 4076.39,212.522 C4076.39,205.21 4073.74,199.491 4068.86,196.303 C4065.96,194.46 4062.03,193.6 4055.99,193.6 L4039.13,193.6 L4039.13,196.1 L4040.14,196.1 C4043.11,196.147 4044.11,196.303 4044.53,196.835 C4044.86,197.319 4044.86,197.413 4044.86,200.116 L4044.86,225.35 C4044.86,228.053 4044.86,228.163 4044.53,228.631 C4044.11,229.163 4043.11,229.319 4040.14,229.381 L4039.13,229.381 L4039.13,231.866 M4053.82,229.381 C4051.11,229.381 4050.8,229.053 4050.8,226.46 L4050.8,199.069 C4050.8,196.46 4051.16,196.1 4053.82,196.1 L4056.57,196.1 C4065.63,196.1 4069.39,201.022 4069.39,212.741 C4069.39,224.6 4066,229.381 4057.41,229.381 L4053.82,229.381 M4086.08,225.991 C4084.22,225.991 4082.74,227.46 4082.74,229.272 C4082.74,231.131 4084.22,232.6 4086.02,232.6 C4087.88,232.6 4089.36,231.131 4089.36,229.272 C4089.36,227.46 4087.88,225.991 4086.08,225.991 M4122.47,193.288 L4120.5,193.288 L4118.39,196.46 C4115.85,194.085 4112.5,192.803 4108.74,192.803 C4101.75,192.803 4097.14,197.21 4097.14,203.881 C4097.14,209.663 4100,212.522 4107.78,214.538 L4112.83,215.803 C4116.75,216.819 4117.11,216.928 4118.22,217.772 C4119.82,218.991 4120.67,220.741 4120.67,222.803 C4120.67,224.928 4119.88,226.678 4118.28,228.163 C4116.53,229.647 4114.78,230.225 4111.86,230.225 C4107.96,230.225 4105.14,229.006 4102.64,226.241 C4100.42,223.803 4099.32,221.272 4098.52,217.194 L4096.24,217.194 L4096.46,232.288 L4098.52,232.288 L4100.89,228.694 C4104.46,231.6 4107.36,232.663 4112.03,232.663 C4119.82,232.663 4124.8,228.1 4124.8,221.006 C4124.8,217.663 4123.74,214.913 4121.63,212.897 C4120.19,211.522 4118.13,210.616 4113.88,209.553 L4108.21,208.131 C4103.5,206.913 4101.27,204.835 4101.27,201.6 C4101.27,197.897 4104.28,195.35 4108.8,195.35 C4112.5,195.35 4115.53,196.944 4117.64,199.96 C4119.19,202.131 4120.19,204.366 4120.83,207.069 L4123.11,207.069 L4122.47,193.288 M4134.17,225.991 C4132.32,225.991 4130.83,227.46 4130.83,229.272 C4130.83,231.131 4132.32,232.6 4134.11,232.6 C4135.97,232.6 4137.46,231.131 4137.46,229.272 C4137.46,227.46 4135.97,225.991 4134.17,225.991"/>
<path class="Fingering" d="M558.768,133.178 C556.315,136.132 549.69,138.35 543.065,138.507 L543.065,141.6 L549.409,141.6 C553.581,141.663 554.018,142.1 553.877,146.132 L553.877,175.007 C553.877,178.678 553.877,178.819 553.44,179.475 C552.862,180.194 551.487,180.475 547.456,180.475 L542.784,180.475 L542.784,183.866 L571.299,183.866 L571.299,180.475 L567.331,180.475 C563.299,180.475 561.94,180.194 561.362,179.475 C560.862,178.819 560.862,178.757 560.862,175.007 L560.862,145.272 C560.862,141.241 561.002,137.85 561.362,133.178 L558.768,133.178 M611.971,168.319 L608.799,168.319 L608.081,171.991 C607.143,176.663 606.581,177.1 602.112,177.1 L585.987,177.1 C590.956,171.913 592.612,170.397 597.221,166.803 C603.768,161.757 606.581,159.241 608.237,157.085 C610.534,153.913 611.69,150.741 611.69,147.21 C611.69,139.007 604.924,133.178 595.487,133.178 C586.346,133.178 579.362,139.007 579.362,146.71 C579.362,151.241 581.659,154.35 585.049,154.35 C587.706,154.35 589.502,152.538 589.502,149.944 C589.502,148.147 588.502,146.491 586.987,145.85 C584.331,144.772 584.174,144.616 584.174,143.694 C584.174,142.6 584.893,140.944 585.909,139.725 C587.706,137.491 590.659,136.272 594.049,136.272 C600.018,136.272 603.549,139.944 603.549,145.991 C603.549,151.319 601.034,156.147 595.049,162.475 C589.721,168.1 586.409,171.632 585.19,172.991 C582.596,176.022 581.299,177.678 578.127,181.85 L578.127,183.866 L610.612,183.866 L611.971,168.319 "/>
<path class="Fingering" d="M687.573,133.178 C685.12,136.132 678.495,138.35 671.87,138.507 L671.87,141.6 L678.214,141.6 C682.386,141.663 682.823,142.1 682.683,146.132 L682.683,175.007 C682.683,178.678 682.683,178.819 682.245,179.475 C681.667,180.194 680.292,180.475 676.261,180.475 L671.589,180.475 L671.589,183.866 L700.104,183.866 L700.104,180.475 L696.136,180.475 C692.104,180.475 690.745,180.194 690.167,179.475 C689.667,178.819 689.667,178.757 689.667,175.007 L689.667,145.272 C689.667,141.241 689.808,137.85 690.167,133.178 L687.573,133.178 M740.776,168.319 L737.604,168.319 L736.886,171.991 C735.948,176.663 735.386,177.1 730.917,177.1 L714.792,177.1 C719.761,171.913 721.417,170.397 726.026,166.803 C732.573,161.757 735.386,159.241 737.042,157.085 C739.339,153.913 740.495,150.741 740.495,147.21 C740.495,139.007 733.729,133.178 724.292,133.178 C715.151,133.178 708.167,139.007 708.167,146.71 C708.167,151.241 710.464,154.35 713.854,154.35 C716.511,154.35 718.308,152.538 718.308,149.944 C718.308,148.147 717.308,146.491 715.792,145.85 C713.136,144.772 712.979,144.616 712.979,143.694 C712.979,142.6 713.698,140.944 714.714,139.725 C716.511,137.491 719.464,136.272 722.854,136.272 C728.823,136.272 732.354,139.944 732.354,145.991 C732.354,151.319 729.839,156.147 723.854,162.475 C718.526,168.1 715.214,171.632 713.995,172.991 C711.401,176.022 710.104,177.678 706.933,181.85 L706.933,183.866 L739.417,183.866 L740.776,168.319 "/>
<path class="Fingering" d="M816.378,133.178 C813.925,136.132 807.3,138.35 800.675,138.507 L800.675,141.6 L807.019,141.6 C811.191,141.663 811.628,142.1 811.488,146.132 L811.488,175.007 C811.488,178.678 811.488,178.819 811.05,179.475 C810.472,180.194 809.097,180.475 805.066,180.475 L800.394,180.475 L800.394,183.866 L828.91,183.866 L828.91,180.475 L824.941,180.475 C820.91,180.475 819.55,180.194 818.972,179.475 C818.472,178.819 818.472,178.757 818.472,175.007 L818.472,145.272 C818.472,141.241 818.613,137.85 818.972,133.178 L816.378,133.178 M869.582,168.319 L866.41,168.319 L865.691,171.991 C864.753,176.663 864.191,177.1 859.722,177.1 L843.597,177.1 C848.566,171.913 850.222,170.397 854.832,166.803 C861.378,161.757 864.191,159.241 865.847,157.085 C868.144,153.913 869.3,150.741 869.3,147.21 C869.3,139.007 862.535,133.178 853.097,133.178 C843.957,133.178 836.972,139.007 836.972,146.71 C836.972,151.241 839.269,154.35 842.66,154.35 C845.316,154.35 847.113,152.538 847.113,149.944 C847.113,148.147 846.113,146.491 844.597,145.85 C841.941,144.772 841.785,144.616 841.785,143.694 C841.785,142.6 842.503,140.944 843.519,139.725 C845.316,137.491 848.269,136.272 851.66,136.272 C857.628,136.272 861.16,139.944 861.16,145.991 C861.16,151.319 858.644,156.147 852.66,162.475 C847.332,168.1 844.019,171.632 842.8,172.991 C840.207,176.022 838.91,177.678 835.738,181.85 L835.738,183.866 L868.222,183.866 L869.582,168.319 "/>
<path class="Fingering" d="M945.184,133.178 C942.731,136.132 936.106,138.35 929.481,138.507 L929.481,141.6 L935.824,141.6 C939.996,141.663 940.434,142.1 940.293,146.132 L940.293,175.007 C940.293,178.678 940.293,178.819 939.856,179.475 C939.277,180.194 937.902,180.475 933.871,180.475 L929.199,180.475 L929.199,183.866 L957.715,183.866 L957.715,180.475 L953.746,180.475 C949.715,180.475 948.356,180.194 947.777,179.475 C947.277,178.819 947.277,178.757 947.277,175.007 L947.277,145.272 C947.277,141.241 947.418,137.85 947.777,133.178 L945.184,133.178 M998.387,168.319 L995.215,168.319 L994.496,171.991 C993.559,176.663 992.996,177.1 988.527,177.1 L972.402,177.1 C977.371,171.913 979.027,170.397 983.637,166.803 C990.184,161.757 992.996,159.241 994.652,157.085 C996.949,153.913 998.106,150.741 998.106,147.21 C998.106,139.007 991.34,133.178 981.902,133.178 C972.762,133.178 965.777,139.007 965.777,146.71 C965.777,151.241 968.074,154.35 971.465,154.35 C974.121,154.35 975.918,152.538 975.918,149.944 C975.918,148.147 974.918,146.491 973.402,145.85 C970.746,144.772 970.59,144.616 970.59,143.694 C970.59,142.6 971.309,140.944 972.324,139.725 C974.121,137.491 977.074,136.272 980.465,136.272 C986.434,136.272 989.965,139.944 989.965,145.991 C989.965,151.319 987.449,156.147 981.465,162.475 C976.137,168.1 972.824,171.632 971.606,172.991 C969.012,176.022 967.715,177.678 964.543,181.85 L964.543,183.866 L997.027,183.866 L998.387,168.319 "/>
<path class="Fingering" d="M1090.16,106.319 L1086.99,106.319 L1086.27,109.991 C1085.33,114.663 1084.77,115.1 1080.3,115.1 L1064.18,115.1 C1069.15,109.913 1070.8,108.397 1075.41,104.803 C1081.96,99.7566 1084.77,97.241 1086.43,95.0847 C1088.72,91.9129 1089.88,88.741 1089.88,85.2097 C1089.88,77.0066 1083.11,71.1785 1073.68,71.1785 C1064.54,71.1785 1057.55,77.0066 1057.55,84.7097 C1057.55,89.241 1059.85,92.3504 1063.24,92.3504 C1065.9,92.3504 1067.69,90.5379 1067.69,87.9441 C1067.69,86.1472 1066.69,84.491 1065.18,83.8504 C1062.52,82.7722 1062.36,82.616 1062.36,81.6941 C1062.36,80.6004 1063.08,78.9441 1064.1,77.7254 C1065.9,75.491 1068.85,74.2722 1072.24,74.2722 C1078.21,74.2722 1081.74,77.9441 1081.74,83.991 C1081.74,89.3191 1079.22,94.1472 1073.24,100.475 C1067.91,106.1 1064.6,109.632 1063.38,110.991 C1060.79,114.022 1059.49,115.678 1056.32,119.85 L1056.32,121.866 L1088.8,121.866 L1090.16,106.319 M1118.75,95.366 C1125.3,92.991 1128.32,89.3191 1128.32,83.5535 C1128.32,75.991 1122.57,71.1785 1113.63,71.1785 C1105.21,71.1785 1098.8,76.1472 1098.8,82.6941 C1098.8,85.6472 1100.74,87.741 1103.55,87.741 C1106.07,87.741 1107.8,86.0066 1107.8,83.4129 C1107.8,81.8347 1107.22,80.8972 1105.57,79.741 C1104.85,79.241 1104.63,78.9441 1104.63,78.4441 C1104.63,76.4285 1108.82,74.2722 1112.91,74.2722 C1118.1,74.2722 1120.83,77.5066 1120.83,83.6316 C1120.83,90.3347 1118.1,93.8504 1112.99,93.8504 C1112.33,93.8504 1111.11,93.7879 1110.04,93.7097 C1109.46,93.6472 1108.88,93.6472 1108.46,93.6472 C1106.94,93.6472 1106.15,94.2879 1106.15,95.5847 C1106.15,96.8035 1106.86,97.3816 1108.46,97.3816 C1108.88,97.3816 1109.46,97.3816 1110.1,97.3191 C1111.55,97.241 1112.69,97.241 1113.49,97.241 C1118.82,97.241 1121.69,101.053 1121.69,108.178 C1121.69,115.678 1118.1,119.85 1111.61,119.85 C1107.08,119.85 1102.19,117.397 1102.19,115.163 C1102.19,114.522 1102.33,114.382 1103.69,113.585 C1105.71,112.366 1106.5,111.132 1106.5,109.335 C1106.5,106.741 1104.57,104.803 1101.97,104.803 C1098.88,104.803 1096.86,107.319 1096.86,111.132 C1096.86,118.116 1103.27,122.944 1112.49,122.944 C1122.93,122.944 1129.69,117.178 1129.69,108.335 C1129.69,101.553 1126.24,97.4597 1118.75,95.366"/>
<path class="Fingering" d="M1218.97,106.319 L1215.79,106.319 L1215.08,109.991 C1214.14,114.663 1213.58,115.1 1209.11,115.1 L1192.98,115.1 C1197.95,109.913 1199.61,108.397 1204.22,104.803 C1210.76,99.7566 1213.58,97.241 1215.23,95.0847 C1217.53,91.9129 1218.68,88.741 1218.68,85.2097 C1218.68,77.0066 1211.92,71.1785 1202.48,71.1785 C1193.34,71.1785 1186.36,77.0066 1186.36,84.7097 C1186.36,89.241 1188.65,92.3504 1192.04,92.3504 C1194.7,92.3504 1196.5,90.5379 1196.5,87.9441 C1196.5,86.1472 1195.5,84.491 1193.98,83.8504 C1191.33,82.7722 1191.17,82.616 1191.17,81.6941 C1191.17,80.6004 1191.89,78.9441 1192.9,77.7254 C1194.7,75.491 1197.65,74.2722 1201.04,74.2722 C1207.01,74.2722 1210.54,77.9441 1210.54,83.991 C1210.54,89.3191 1208.03,94.1472 1202.04,100.475 C1196.72,106.1 1193.4,109.632 1192.18,110.991 C1189.59,114.022 1188.29,115.678 1185.12,119.85 L1185.12,121.866 L1217.61,121.866 L1218.97,106.319 M1247.56,95.366 C1254.11,92.991 1257.12,89.3191 1257.12,83.5535 C1257.12,75.991 1251.37,71.1785 1242.43,71.1785 C1234.01,71.1785 1227.61,76.1472 1227.61,82.6941 C1227.61,85.6472 1229.54,87.741 1232.36,87.741 C1234.87,87.741 1236.61,86.0066 1236.61,83.4129 C1236.61,81.8347 1236.03,80.8972 1234.37,79.741 C1233.65,79.241 1233.43,78.9441 1233.43,78.4441 C1233.43,76.4285 1237.62,74.2722 1241.72,74.2722 C1246.9,74.2722 1249.64,77.5066 1249.64,83.6316 C1249.64,90.3347 1246.9,93.8504 1241.79,93.8504 C1241.14,93.8504 1239.92,93.7879 1238.84,93.7097 C1238.26,93.6472 1237.68,93.6472 1237.26,93.6472 C1235.75,93.6472 1234.95,94.2879 1234.95,95.5847 C1234.95,96.8035 1235.67,97.3816 1237.26,97.3816 C1237.68,97.3816 1238.26,97.3816 1238.9,97.3191 C1240.36,97.241 1241.5,97.241 1242.29,97.241 C1247.62,97.241 1250.5,101.053 1250.5,108.178 C1250.5,115.678 1246.9,119.85 1240.42,119.85 C1235.89,119.85 1231,117.397 1231,115.163 C1231,114.522 1231.14,114.382 1232.5,113.585 C1234.51,112.366 1235.31,111.132 1235.31,109.335 C1235.31,106.741 1233.37,104.803 1230.78,104.803 C1227.68,104.803 1225.67,107.319 1225.67,111.132 C1225.67,118.116 1232.08,122.944 1241.29,122.944 C1251.73,122.944 1258.5,117.178 1258.5,108.335 C1258.5,101.553 1255.04,97.4597 1247.56,95.366"/>
<path class="Fingering" d="M1444.55,125.462 L1441.38,125.462 L1440.66,129.134 C1439.73,133.806 1439.16,134.243 1434.7,134.243 L1418.57,134.243 C1423.54,129.056 1425.2,127.54 1429.8,123.946 C1436.35,118.9 1439.16,116.384 1440.82,114.228 C1443.12,111.056 1444.27,107.884 1444.27,104.353 C1444.27,96.1496 1437.51,90.3214 1428.07,90.3214 C1418.93,90.3214 1411.95,96.1496 1411.95,103.853 C1411.95,108.384 1414.24,111.493 1417.63,111.493 C1420.29,111.493 1422.09,109.681 1422.09,107.087 C1422.09,105.29 1421.09,103.634 1419.57,102.993 C1416.91,101.915 1416.76,101.759 1416.76,100.837 C1416.76,99.7433 1417.48,98.0871 1418.49,96.8683 C1420.29,94.6339 1423.24,93.4152 1426.63,93.4152 C1432.6,93.4152 1436.13,97.0871 1436.13,103.134 C1436.13,108.462 1433.62,113.29 1427.63,119.618 C1422.3,125.243 1418.99,128.775 1417.77,130.134 C1415.18,133.165 1413.88,134.821 1410.71,138.993 L1410.71,141.009 L1443.2,141.009 L1444.55,125.462 "/>
<path class="Fingering" d="M1573.36,125.462 L1570.19,125.462 L1569.47,129.134 C1568.53,133.806 1567.97,134.243 1563.5,134.243 L1547.38,134.243 C1552.34,129.056 1554,127.54 1558.61,123.946 C1565.16,118.9 1567.97,116.384 1569.63,114.228 C1571.92,111.056 1573.08,107.884 1573.08,104.353 C1573.08,96.1496 1566.31,90.3214 1556.88,90.3214 C1547.73,90.3214 1540.75,96.1496 1540.75,103.853 C1540.75,108.384 1543.05,111.493 1546.44,111.493 C1549.09,111.493 1550.89,109.681 1550.89,107.087 C1550.89,105.29 1549.89,103.634 1548.38,102.993 C1545.72,101.915 1545.56,101.759 1545.56,100.837 C1545.56,99.7433 1546.28,98.0871 1547.3,96.8683 C1549.09,94.6339 1552.05,93.4152 1555.44,93.4152 C1561.41,93.4152 1564.94,97.0871 1564.94,103.134 C1564.94,108.462 1562.42,113.29 1556.44,119.618 C1551.11,125.243 1547.8,128.775 1546.58,130.134 C1543.98,133.165 1542.69,134.821 1539.52,138.993 L1539.52,141.009 L1572,141.009 L1573.36,125.462 "/>
<path class="Fingering" d="M1762.54,105.464 C1752.46,105.464 1745.12,116.402 1745.12,131.527 C1745.12,146.355 1752.24,157.23 1761.96,157.23 C1772.04,157.23 1779.1,146.714 1779.1,131.745 C1779.1,124.105 1777.51,117.777 1774.49,112.808 C1771.68,108.261 1767.07,105.464 1762.54,105.464 M1762.04,108.558 C1764.42,108.558 1766.71,110.136 1768.45,113.027 C1770.39,116.402 1771.04,120.511 1771.04,130.37 C1771.04,140.527 1770.53,145.277 1769.09,148.448 C1767.43,151.98 1764.84,154.136 1762.1,154.136 C1759.65,154.136 1757.43,152.558 1755.7,149.667 C1753.68,146.292 1753.1,141.823 1753.1,130.011 C1753.1,121.589 1753.6,117.417 1755.06,114.245 C1756.71,110.636 1759.29,108.558 1762.04,108.558"/>
<path class="Fingering" d="M1908.25,125.462 L1905.08,125.462 L1904.36,129.134 C1903.43,133.806 1902.86,134.243 1898.39,134.243 L1882.27,134.243 C1887.24,129.056 1888.89,127.54 1893.5,123.946 C1900.05,118.9 1902.86,116.384 1904.52,114.228 C1906.82,111.056 1907.97,107.884 1907.97,104.353 C1907.97,96.1496 1901.21,90.3214 1891.77,90.3214 C1882.63,90.3214 1875.64,96.1496 1875.64,103.853 C1875.64,108.384 1877.94,111.493 1881.33,111.493 C1883.99,111.493 1885.78,109.681 1885.78,107.087 C1885.78,105.29 1884.78,103.634 1883.27,102.993 C1880.61,101.915 1880.46,101.759 1880.46,100.837 C1880.46,99.7433 1881.18,98.0871 1882.19,96.8683 C1883.99,94.6339 1886.94,93.4152 1890.33,93.4152 C1896.3,93.4152 1899.83,97.0871 1899.83,103.134 C1899.83,108.462 1897.32,113.29 1891.33,119.618 C1886,125.243 1882.69,128.775 1881.47,130.134 C1878.88,133.165 1877.58,134.821 1874.41,138.993 L1874.41,141.009 L1906.89,141.009 L1908.25,125.462 "/>
<path class="Fingering" d="M2593.36,185.462 L2590.19,185.462 L2589.47,189.134 C2588.53,193.806 2587.97,194.243 2583.5,194.243 L2567.38,194.243 C2572.35,189.056 2574,187.54 2578.61,183.946 C2585.16,178.899 2587.97,176.384 2589.63,174.228 C2591.92,171.056 2593.08,167.884 2593.08,164.353 C2593.08,156.149 2586.32,150.321 2576.88,150.321 C2567.74,150.321 2560.75,156.149 2560.75,163.853 C2560.75,168.384 2563.05,171.493 2566.44,171.493 C2569.1,171.493 2570.89,169.681 2570.89,167.087 C2570.89,165.29 2569.89,163.634 2568.38,162.993 C2565.72,161.915 2565.57,161.759 2565.57,160.837 C2565.57,159.743 2566.28,158.087 2567.3,156.868 C2569.1,154.634 2572.05,153.415 2575.44,153.415 C2581.41,153.415 2584.94,157.087 2584.94,163.134 C2584.94,168.462 2582.42,173.29 2576.44,179.618 C2571.11,185.243 2567.8,188.774 2566.58,190.134 C2563.99,193.165 2562.69,194.821 2559.52,198.993 L2559.52,201.009 L2592,201.009 L2593.36,185.462 "/>
<path class="Fingering" d="M2727.08,185.462 L2723.91,185.462 L2723.19,189.134 C2722.25,193.806 2721.69,194.243 2717.22,194.243 L2701.1,194.243 C2706.07,189.056 2707.72,187.54 2712.33,183.946 C2718.88,178.899 2721.69,176.384 2723.35,174.228 C2725.64,171.056 2726.8,167.884 2726.8,164.353 C2726.8,156.149 2720.03,150.321 2710.6,150.321 C2701.46,150.321 2694.47,156.149 2694.47,163.853 C2694.47,168.384 2696.77,171.493 2700.16,171.493 C2702.82,171.493 2704.61,169.681 2704.61,167.087 C2704.61,165.29 2703.61,163.634 2702.1,162.993 C2699.44,161.915 2699.28,161.759 2699.28,160.837 C2699.28,159.743 2700,158.087 2701.02,156.868 C2702.82,154.634 2705.77,153.415 2709.16,153.415 C2715.13,153.415 2718.66,157.087 2718.66,163.134 C2718.66,168.462 2716.14,173.29 2710.16,179.618 C2704.83,185.243 2701.52,188.774 2700.3,190.134 C2697.71,193.165 2696.41,194.821 2693.24,198.993 L2693.24,201.009 L2725.72,201.009 L2727.08,185.462 "/>
<path class="Fingering" d="M2825.13,133.178 C2822.67,136.132 2816.05,138.35 2809.42,138.507 L2809.42,141.6 L2815.77,141.6 C2819.94,141.663 2820.38,142.1 2820.24,146.132 L2820.24,175.007 C2820.24,178.678 2820.24,178.819 2819.8,179.475 C2819.22,180.194 2817.85,180.475 2813.82,180.475 L2809.14,180.475 L2809.14,183.866 L2837.66,183.866 L2837.66,180.475 L2833.69,180.475 C2829.66,180.475 2828.3,180.194 2827.72,179.475 C2827.22,178.819 2827.22,178.757 2827.22,175.007 L2827.22,145.272 C2827.22,141.241 2827.36,137.85 2827.72,133.178 L2825.13,133.178 M2878.33,168.319 L2875.16,168.319 L2874.44,171.991 C2873.5,176.663 2872.94,177.1 2868.47,177.1 L2852.35,177.1 C2857.32,171.913 2858.97,170.397 2863.58,166.803 C2870.13,161.757 2872.94,159.241 2874.6,157.085 C2876.89,153.913 2878.05,150.741 2878.05,147.21 C2878.05,139.007 2871.28,133.178 2861.85,133.178 C2852.71,133.178 2845.72,139.007 2845.72,146.71 C2845.72,151.241 2848.02,154.35 2851.41,154.35 C2854.07,154.35 2855.86,152.538 2855.86,149.944 C2855.86,148.147 2854.86,146.491 2853.35,145.85 C2850.69,144.772 2850.53,144.616 2850.53,143.694 C2850.53,142.6 2851.25,140.944 2852.27,139.725 C2854.07,137.491 2857.02,136.272 2860.41,136.272 C2866.38,136.272 2869.91,139.944 2869.91,145.991 C2869.91,151.319 2867.39,156.147 2861.41,162.475 C2856.08,168.1 2852.77,171.632 2851.55,172.991 C2848.96,176.022 2847.66,177.678 2844.49,181.85 L2844.49,183.866 L2876.97,183.866 L2878.33,168.319 "/>
<path class="Fingering" d="M2994.52,151.176 L2991.35,151.176 L2990.63,154.848 C2989.69,159.52 2989.13,159.957 2984.66,159.957 L2968.53,159.957 C2973.5,154.77 2975.16,153.254 2979.77,149.66 C2986.32,144.614 2989.13,142.098 2990.78,139.942 C2993.08,136.77 2994.24,133.598 2994.24,130.067 C2994.24,121.864 2987.47,116.035 2978.03,116.035 C2968.89,116.035 2961.91,121.864 2961.91,129.567 C2961.91,134.098 2964.21,137.207 2967.6,137.207 C2970.25,137.207 2972.05,135.395 2972.05,132.801 C2972.05,131.004 2971.05,129.348 2969.53,128.707 C2966.88,127.629 2966.72,127.473 2966.72,126.551 C2966.72,125.457 2967.44,123.801 2968.46,122.582 C2970.25,120.348 2973.21,119.129 2976.6,119.129 C2982.57,119.129 2986.1,122.801 2986.1,128.848 C2986.1,134.176 2983.58,139.004 2977.6,145.332 C2972.27,150.957 2968.96,154.489 2967.74,155.848 C2965.14,158.879 2963.85,160.535 2960.68,164.707 L2960.68,166.723 L2993.16,166.723 L2994.52,151.176 "/>
<path class="Fingering" d="M3111.33,105.464 C3101.25,105.464 3093.91,116.402 3093.91,131.527 C3093.91,146.355 3101.03,157.23 3110.75,157.23 C3120.83,157.23 3127.89,146.714 3127.89,131.745 C3127.89,124.105 3126.3,117.777 3123.28,112.808 C3120.47,108.261 3115.86,105.464 3111.33,105.464 M3110.83,108.558 C3113.21,108.558 3115.5,110.136 3117.24,113.027 C3119.18,116.402 3119.83,120.511 3119.83,130.37 C3119.83,140.527 3119.32,145.277 3117.88,148.448 C3116.22,151.98 3113.63,154.136 3110.89,154.136 C3108.44,154.136 3106.22,152.558 3104.49,149.667 C3102.47,146.292 3101.89,141.823 3101.89,130.011 C3101.89,121.589 3102.39,117.417 3103.85,114.245 C3105.5,110.636 3108.08,108.558 3110.83,108.558"/>
<path class="Fingering" d="M3226.28,133.178 C3223.83,136.132 3217.21,138.35 3210.58,138.507 L3210.58,141.6 L3216.93,141.6 C3221.1,141.663 3221.53,142.1 3221.39,146.132 L3221.39,175.007 C3221.39,178.678 3221.39,178.819 3220.96,179.475 C3220.38,180.194 3219,180.475 3214.97,180.475 L3210.3,180.475 L3210.3,183.866 L3238.82,183.866 L3238.82,180.475 L3234.85,180.475 C3230.82,180.475 3229.46,180.194 3228.88,179.475 C3228.38,178.819 3228.38,178.757 3228.38,175.007 L3228.38,145.272 C3228.38,141.241 3228.52,137.85 3228.88,133.178 L3226.28,133.178 M3279.49,168.319 L3276.32,168.319 L3275.6,171.991 C3274.66,176.663 3274.1,177.1 3269.63,177.1 L3253.5,177.1 C3258.47,171.913 3260.13,170.397 3264.74,166.803 C3271.28,161.757 3274.1,159.241 3275.75,157.085 C3278.05,153.913 3279.21,150.741 3279.21,147.21 C3279.21,139.007 3272.44,133.178 3263,133.178 C3253.86,133.178 3246.88,139.007 3246.88,146.71 C3246.88,151.241 3249.18,154.35 3252.57,154.35 C3255.22,154.35 3257.02,152.538 3257.02,149.944 C3257.02,148.147 3256.02,146.491 3254.5,145.85 C3251.85,144.772 3251.69,144.616 3251.69,143.694 C3251.69,142.6 3252.41,140.944 3253.43,139.725 C3255.22,137.491 3258.18,136.272 3261.57,136.272 C3267.53,136.272 3271.07,139.944 3271.07,145.991 C3271.07,151.319 3268.55,156.147 3262.57,162.475 C3257.24,168.1 3253.93,171.632 3252.71,172.991 C3250.11,176.022 3248.82,177.678 3245.64,181.85 L3245.64,183.866 L3278.13,183.866 L3279.49,168.319 "/>
<path class="Fingering" d="M3378.77,105.464 C3368.69,105.464 3361.35,116.402 3361.35,131.527 C3361.35,146.355 3368.47,157.23 3378.19,157.23 C3388.27,157.23 3395.33,146.714 3395.33,131.745 C3395.33,124.105 3393.74,117.777 3390.72,112.808 C3387.91,108.261 3383.3,105.464 3378.77,105.464 M3378.27,108.558 C3380.64,108.558 3382.94,110.136 3384.68,113.027 C3386.61,116.402 3387.27,120.511 3387.27,130.37 C3387.27,140.527 3386.75,145.277 3385.32,148.448 C3383.66,151.98 3381.07,154.136 3378.33,154.136 C3375.88,154.136 3373.66,152.558 3371.93,149.667 C3369.91,146.292 3369.33,141.823 3369.33,130.011 C3369.33,121.589 3369.83,117.417 3371.29,114.245 C3372.94,110.636 3375.52,108.558 3378.27,108.558"/>
<path class="Fingering" d="M3493.72,133.178 C3491.27,136.132 3484.64,138.35 3478.02,138.507 L3478.02,141.6 L3484.36,141.6 C3488.54,141.663 3488.97,142.1 3488.83,146.132 L3488.83,175.007 C3488.83,178.678 3488.83,178.819 3488.39,179.475 C3487.82,180.194 3486.44,180.475 3482.41,180.475 L3477.74,180.475 L3477.74,183.866 L3506.25,183.866 L3506.25,180.475 L3502.29,180.475 C3498.25,180.475 3496.89,180.194 3496.32,179.475 C3495.82,178.819 3495.82,178.757 3495.82,175.007 L3495.82,145.272 C3495.82,141.241 3495.96,137.85 3496.32,133.178 L3493.72,133.178 M3546.93,168.319 L3543.75,168.319 L3543.04,171.991 C3542.1,176.663 3541.54,177.1 3537.07,177.1 L3520.94,177.1 C3525.91,171.913 3527.57,170.397 3532.18,166.803 C3538.72,161.757 3541.54,159.241 3543.19,157.085 C3545.49,153.913 3546.64,150.741 3546.64,147.21 C3546.64,139.007 3539.88,133.178 3530.44,133.178 C3521.3,133.178 3514.32,139.007 3514.32,146.71 C3514.32,151.241 3516.61,154.35 3520,154.35 C3522.66,154.35 3524.46,152.538 3524.46,149.944 C3524.46,148.147 3523.46,146.491 3521.94,145.85 C3519.29,144.772 3519.13,144.616 3519.13,143.694 C3519.13,142.6 3519.85,140.944 3520.86,139.725 C3522.66,137.491 3525.61,136.272 3529,136.272 C3534.97,136.272 3538.5,139.944 3538.5,145.991 C3538.5,151.319 3535.99,156.147 3530,162.475 C3524.68,168.1 3521.36,171.632 3520.14,172.991 C3517.55,176.022 3516.25,177.678 3513.08,181.85 L3513.08,183.866 L3545.57,183.866 L3546.93,168.319 "/>
<path class="Fingering" d="M3646.21,105.464 C3636.13,105.464 3628.79,116.402 3628.79,131.527 C3628.79,146.355 3635.91,157.23 3645.63,157.23 C3655.71,157.23 3662.77,146.714 3662.77,131.745 C3662.77,124.105 3661.18,117.777 3658.16,112.808 C3655.35,108.261 3650.74,105.464 3646.21,105.464 M3645.71,108.558 C3648.08,108.558 3650.38,110.136 3652.11,113.027 C3654.05,116.402 3654.71,120.511 3654.71,130.37 C3654.71,140.527 3654.19,145.277 3652.75,148.448 C3651.1,151.98 3648.5,154.136 3645.77,154.136 C3643.32,154.136 3641.1,152.558 3639.36,149.667 C3637.35,146.292 3636.77,141.823 3636.77,130.011 C3636.77,121.589 3637.27,117.417 3638.72,114.245 C3640.38,110.636 3642.96,108.558 3645.71,108.558"/>
<path class="Fingering" d="M3796.83,125.462 L3793.66,125.462 L3792.94,129.134 C3792,133.806 3791.44,134.243 3786.97,134.243 L3770.85,134.243 C3775.82,129.056 3777.47,127.54 3782.08,123.946 C3788.63,118.9 3791.44,116.384 3793.1,114.228 C3795.39,111.056 3796.55,107.884 3796.55,104.353 C3796.55,96.1496 3789.79,90.3214 3780.35,90.3214 C3771.21,90.3214 3764.22,96.1496 3764.22,103.853 C3764.22,108.384 3766.52,111.493 3769.91,111.493 C3772.57,111.493 3774.36,109.681 3774.36,107.087 C3774.36,105.29 3773.36,103.634 3771.85,102.993 C3769.19,101.915 3769.04,101.759 3769.04,100.837 C3769.04,99.7433 3769.75,98.0871 3770.77,96.8683 C3772.57,94.6339 3775.52,93.4152 3778.91,93.4152 C3784.88,93.4152 3788.41,97.0871 3788.41,103.134 C3788.41,108.462 3785.89,113.29 3779.91,119.618 C3774.58,125.243 3771.27,128.775 3770.05,130.134 C3767.46,133.165 3766.16,134.821 3762.99,138.993 L3762.99,141.009 L3795.47,141.009 L3796.83,125.462 "/>
<path class="Fingering" d="M3913.65,105.464 C3903.57,105.464 3896.22,116.402 3896.22,131.527 C3896.22,146.355 3903.35,157.23 3913.07,157.23 C3923.15,157.23 3930.21,146.714 3930.21,131.745 C3930.21,124.105 3928.61,117.777 3925.6,112.808 C3922.79,108.261 3918.18,105.464 3913.65,105.464 M3913.15,108.558 C3915.52,108.558 3917.82,110.136 3919.55,113.027 C3921.49,116.402 3922.15,120.511 3922.15,130.37 C3922.15,140.527 3921.63,145.277 3920.19,148.448 C3918.54,151.98 3915.94,154.136 3913.21,154.136 C3910.75,154.136 3908.54,152.558 3906.8,149.667 C3904.79,146.292 3904.21,141.823 3904.21,130.011 C3904.21,121.589 3904.71,117.417 3906.16,114.245 C3907.82,110.636 3910.4,108.558 3913.15,108.558"/>
<path class="Page" d="M96.0938,96.241 L95.4844,98.991 C94.9844,101.194 94.6563,101.897 94.2188,102.178 C93.6719,102.569 93.5625,102.569 90.0938,102.616 L79.4844,102.616 C81.4063,100.96 82.8438,99.9285 84.9844,98.491 C92.7344,93.491 94.3281,92.2722 95.9219,90.241 C97.7969,87.7722 98.8906,84.8504 98.8906,82.2722 C98.8906,76.3816 93.125,71.9285 85.375,71.9285 C77.8906,71.9285 72.1094,76.7722 72.1094,83.0379 C72.1094,86.8816 74.2656,89.366 77.5625,89.366 C80.4219,89.366 82.2344,87.5535 82.2344,84.6941 C82.2344,82.3191 81.1875,80.9441 78.6563,79.741 C78.0469,79.4597 77.7813,79.1316 77.7813,78.6941 C77.7813,76.9285 80.75,75.0691 83.5,75.0691 C87.3438,75.0691 89.5469,77.4285 89.5469,81.5066 C89.5469,86.0691 87.7813,89.3035 81.9531,95.5222 C75.7969,102.069 73.6563,104.538 70.9063,108.507 L70.9063,111.085 C72.3281,110.928 72.9375,110.866 73.7656,110.866 L94.4375,110.866 C95.4844,110.866 96.1406,110.928 97.7969,111.085 L99.0625,96.241 L96.0938,96.241 "/>
</svg>
