<?xml version="1.0" encoding="UTF-8" standalone="no"?>
<svg width="4208.47px" height="2409.45px" viewBox="0 0 4208.47 2409.45"
 xmlns="http://www.w3.org/2000/svg" xmlns:xlink="http://www.w3.org/1999/xlink" version="1.2" baseProfile="tiny">
<title>SAX ALTO</title>
<desc>Generated by MuseScore 3.6.2</desc>
<polyline class="StaffLines" fill="none" stroke="#000000" stroke-width="5.85" stroke-linejoin="bevel" points="70.866,442.913 4137.61,442.913"/>
<polyline class="StaffLines" fill="none" stroke="#000000" stroke-width="5.85" stroke-linejoin="bevel" points="70.866,496.063 4137.61,496.063"/>
<polyline class="StaffLines" fill="none" stroke="#000000" stroke-width="5.85" stroke-linejoin="bevel" points="70.866,549.212 4137.61,549.212"/>
<polyline class="StaffLines" fill="none" stroke="#000000" stroke-width="5.85" stroke-linejoin="bevel" points="70.866,602.362 4137.61,602.362"/>
<polyline class="StaffLines" fill="none" stroke="#000000" stroke-width="5.85" stroke-linejoin="bevel" points="70.866,655.512 4137.61,655.512"/>
<polyline class="StaffLines" fill="none" stroke="#000000" stroke-width="5.85" stroke-linejoin="bevel" points="70.866,1134 4137.61,1134"/>
<polyline class="StaffLines" fill="none" stroke="#000000" stroke-width="5.85" stroke-linejoin="bevel" points="70.866,1187.15 4137.61,1187.15"/>
<polyline class="StaffLines" fill="none" stroke="#000000" stroke-width="5.85" stroke-linejoin="bevel" points="70.866,1240.3 4137.61,1240.3"/>
<polyline class="StaffLines" fill="none" stroke="#000000" stroke-width="5.85" stroke-linejoin="bevel" points="70.866,1293.45 4137.61,1293.45"/>
<polyline class="StaffLines" fill="none" stroke="#000000" stroke-width="5.85" stroke-linejoin="bevel" points="70.866,1346.6 4137.61,1346.6"/>
<polyline class="StaffLines" fill="none" stroke="#000000" stroke-width="5.85" stroke-linejoin="bevel" points="70.866,1825.09 4137.61,1825.09"/>
<polyline class="StaffLines" fill="none" stroke="#000000" stroke-width="5.85" stroke-linejoin="bevel" points="70.866,1878.24 4137.61,1878.24"/>
<polyline class="StaffLines" fill="none" stroke="#000000" stroke-width="5.85" stroke-linejoin="bevel" points="70.866,1931.39 4137.61,1931.39"/>
<polyline class="StaffLines" fill="none" stroke="#000000" stroke-width="5.85" stroke-linejoin="bevel" points="70.866,1984.54 4137.61,1984.54"/>
<polyline class="StaffLines" fill="none" stroke="#000000" stroke-width="5.85" stroke-linejoin="bevel" points="70.866,2037.69 4137.61,2037.69"/>
<path class="MeasureNumber" d="M90.556,999.542 C88.436,999.782 85.836,999.942 83.596,999.942 C82.476,999.942 81.196,999.902 79.756,999.822 C78.436,999.742 77.116,999.662 75.756,999.582 L74.756,999.542 L70.876,1007.98 L72.356,1008.46 L73.316,1006.86 C75.196,1003.74 76.076,1003.3 80.156,1003.34 L86.916,1003.34 L82.556,1009.58 C77.436,1016.78 77.436,1016.78 75.476,1019.98 C73.716,1022.82 72.996,1024.58 72.996,1026.02 C72.996,1027.42 73.876,1028.3 75.276,1028.3 C76.756,1028.3 77.516,1027.58 78.036,1025.7 C80.036,1018.18 81.236,1015.58 86.796,1006.58 L90.556,1000.74 L90.556,999.542 "/>
<path class="MeasureNumber" d="M87.226,1690.47 L86.066,1690.47 C83.866,1692.11 79.626,1693.51 76.746,1693.51 L76.266,1695.27 L79.026,1695.27 C81.466,1695.27 81.746,1695.35 81.746,1696.07 C81.746,1696.43 81.746,1696.43 81.346,1697.87 L77.066,1713.87 C76.546,1715.87 76.506,1715.99 76.146,1716.35 C75.746,1716.75 74.906,1716.87 72.786,1716.91 L71.066,1716.91 L70.866,1718.79 L85.666,1718.79 L85.906,1716.91 L83.746,1716.91 C81.146,1716.91 80.586,1716.71 80.586,1715.83 C80.586,1715.55 80.746,1714.63 80.946,1713.87 L87.226,1690.47 M104.7,1704.23 C106.58,1703.63 107.34,1703.31 108.3,1702.67 C110.18,1701.43 111.34,1699.23 111.34,1696.99 C111.34,1693.19 108.3,1690.63 103.82,1690.63 C99.4604,1690.63 95.7804,1693.35 95.7804,1696.63 C95.7804,1698.27 96.7804,1699.39 98.3004,1699.39 C99.6204,1699.39 100.58,1698.43 100.58,1697.11 C100.58,1696.43 100.38,1695.95 99.7404,1695.31 C99.3404,1694.95 99.1804,1694.67 99.1804,1694.39 C99.1804,1693.43 101.18,1692.43 103.06,1692.43 C105.74,1692.43 107.34,1693.91 107.34,1696.39 C107.34,1699.95 104.82,1703.31 102.14,1703.31 C102.02,1703.31 101.66,1703.27 101.22,1703.23 C100.06,1703.15 100.06,1703.15 99.8204,1703.15 C98.9404,1703.15 98.4604,1703.55 98.4604,1704.27 C98.4604,1704.91 98.9004,1705.31 99.6204,1705.31 C99.8204,1705.31 100.1,1705.27 100.42,1705.23 C100.98,1705.11 101.58,1705.07 101.94,1705.07 C103.82,1705.07 105.1,1706.75 105.1,1709.23 C105.1,1711.15 104.66,1712.99 103.78,1714.51 C102.58,1716.67 100.74,1717.71 98.1404,1717.71 C95.9004,1717.71 93.9804,1716.59 93.9804,1715.31 C93.9804,1714.87 94.1404,1714.71 94.7804,1714.43 C95.9404,1713.91 96.4204,1713.19 96.4204,1712.11 C96.4204,1710.71 95.3004,1709.63 93.8604,1709.63 C92.1404,1709.63 91.0204,1710.99 91.0204,1713.07 C91.0204,1716.95 93.9804,1719.39 98.7804,1719.39 C104.82,1719.39 109.42,1715.35 109.42,1709.99 C109.42,1708.55 108.98,1707.31 108.14,1706.31 C107.26,1705.27 106.46,1704.79 104.7,1704.23"/>
<path class="TieSegment" stroke="#000000" stroke-width="3.72" stroke-linecap="round" stroke-linejoin="round" fill-rule="evenodd" d="M2218.74,323.327 C2274.67,273.375 2442.48,273.375 2498.41,323.327 C2442.48,288.257 2274.67,288.257 2218.74,323.327"/>
<polyline class="BarLine" stroke="#000000" stroke-width="29.23" stroke-linejoin="bevel" points="1050.55,439.99 1050.55,658.435"/>
<polyline class="BarLine" stroke="#000000" stroke-width="9.57" stroke-linejoin="bevel" points="1087.76,439.99 1087.76,658.435"/>
<path class="BarLine" transform="matrix(2.12598,0,0,2.12598,1113.9,522.638)" d="M10.4,0 C10.4,-2.9 8.1,-5.3 5.2,-5.3 C2.3,-5.3 0,-2.9 0,0 C0,2.9 2.3,5.3 5.2,5.3 C8.1,5.3 10.4,2.9 10.4,0"/>
<path class="BarLine" transform="matrix(2.12598,0,0,2.12598,1113.9,575.787)" d="M10.4,0 C10.4,-2.9 8.1,-5.3 5.2,-5.3 C2.3,-5.3 0,-2.9 0,0 C0,2.9 2.3,5.3 5.2,5.3 C8.1,5.3 10.4,2.9 10.4,0"/>
<polyline class="BarLine" stroke="#000000" stroke-width="9.57" stroke-linejoin="bevel" points="1629.74,439.99 1629.74,658.435"/>
<polyline class="BarLine" stroke="#000000" stroke-width="9.57" stroke-linejoin="bevel" points="2333.92,439.99 2333.92,658.435"/>
<polyline class="BarLine" stroke="#000000" stroke-width="9.57" stroke-linejoin="bevel" points="2965.03,439.99 2965.03,658.435"/>
<polyline class="BarLine" stroke="#000000" stroke-width="9.57" stroke-linejoin="bevel" points="3453.1,439.99 3453.1,658.435"/>
<polyline class="BarLine" stroke="#000000" stroke-width="9.57" stroke-linejoin="bevel" points="4132.82,439.99 4132.82,658.435"/>
<polyline class="BarLine" stroke="#000000" stroke-width="9.57" stroke-linejoin="bevel" points="1252.1,1131.08 1252.1,1349.52"/>
<polyline class="BarLine" stroke="#000000" stroke-width="9.57" stroke-linejoin="bevel" points="1734.7,1131.08 1734.7,1349.52"/>
<polyline class="BarLine" stroke="#000000" stroke-width="9.57" stroke-linejoin="bevel" points="2306.12,1131.08 2306.12,1349.52"/>
<polyline class="BarLine" stroke="#000000" stroke-width="9.57" stroke-linejoin="bevel" points="2857.8,1131.08 2857.8,1349.52"/>
<polyline class="BarLine" stroke="#000000" stroke-width="9.57" stroke-linejoin="bevel" points="3702.84,1131.08 3702.84,1349.52"/>
<polyline class="BarLine" stroke="#000000" stroke-width="9.57" stroke-linejoin="bevel" points="4132.82,1131.08 4132.82,1349.52"/>
<polyline class="BarLine" stroke="#000000" stroke-width="9.57" stroke-linejoin="bevel" points="1179.03,1822.17 1179.03,2040.61"/>
<polyline class="BarLine" stroke="#000000" stroke-width="9.57" stroke-linejoin="bevel" points="1776.69,1822.17 1776.69,2040.61"/>
<polyline class="BarLine" stroke="#000000" stroke-width="9.57" stroke-linejoin="bevel" points="2355.76,1822.17 2355.76,2040.61"/>
<polyline class="BarLine" stroke="#000000" stroke-width="9.57" stroke-linejoin="bevel" points="2882.2,1822.17 2882.2,2040.61"/>
<path class="BarLine" transform="matrix(2.12598,0,0,2.12598,3408.64,1904.81)" d="M10.4,0 C10.4,-2.9 8.1,-5.3 5.2,-5.3 C2.3,-5.3 0,-2.9 0,0 C0,2.9 2.3,5.3 5.2,5.3 C8.1,5.3 10.4,2.9 10.4,0"/>
<path class="BarLine" transform="matrix(2.12598,0,0,2.12598,3408.64,1957.96)" d="M10.4,0 C10.4,-2.9 8.1,-5.3 5.2,-5.3 C2.3,-5.3 0,-2.9 0,0 C0,2.9 2.3,5.3 5.2,5.3 C8.1,5.3 10.4,2.9 10.4,0"/>
<polyline class="BarLine" stroke="#000000" stroke-width="9.57" stroke-linejoin="bevel" points="3456.9,1822.17 3456.9,2040.61"/>
<polyline class="BarLine" stroke="#000000" stroke-width="29.23" stroke-linejoin="bevel" points="3494.11,1822.17 3494.11,2040.61"/>
<polyline class="BarLine" stroke="#000000" stroke-width="9.57" stroke-linejoin="bevel" points="4085.79,1822.17 4085.79,2040.61"/>
<polyline class="BarLine" stroke="#000000" stroke-width="29.23" stroke-linejoin="bevel" points="4122.99,1822.17 4122.99,2040.61"/>
<polyline class="LedgerLine" stroke="#000000" stroke-width="8.50" stroke-linejoin="bevel" points="1751.45,389.764 1857.73,389.764"/>
<polyline class="LedgerLine" stroke="#000000" stroke-width="8.50" stroke-linejoin="bevel" points="2155.23,389.764 2261.52,389.764"/>
<polyline class="LedgerLine" stroke="#000000" stroke-width="8.50" stroke-linejoin="bevel" points="2455.63,389.764 2561.92,389.764"/>
<polyline class="LedgerLine" stroke="#000000" stroke-width="8.50" stroke-linejoin="bevel" points="734.447,1080.85 840.729,1080.85"/>
<polyline class="LedgerLine" stroke="#000000" stroke-width="8.50" stroke-linejoin="bevel" points="1373.81,1080.85 1480.09,1080.85"/>
<polyline class="LedgerLine" stroke="#000000" stroke-width="8.50" stroke-linejoin="bevel" points="2979.51,1080.85 3085.79,1080.85"/>
<polyline class="LedgerLine" stroke="#000000" stroke-width="8.50" stroke-linejoin="bevel" points="3154.5,1080.85 3260.78,1080.85"/>
<polyline class="LedgerLine" stroke="#000000" stroke-width="8.50" stroke-linejoin="bevel" points="3504.47,1080.85 3610.75,1080.85"/>
<polyline class="LedgerLine" stroke="#000000" stroke-width="8.50" stroke-linejoin="bevel" points="3824.55,1080.85 3930.84,1080.85"/>
<polyline class="LedgerLine" stroke="#000000" stroke-width="8.50" stroke-linejoin="bevel" points="803.54,1771.94 909.823,1771.94"/>
<polyline class="LedgerLine" stroke="#000000" stroke-width="8.50" stroke-linejoin="bevel" points="803.54,1718.79 909.823,1718.79"/>
<polyline class="LedgerLine" stroke="#000000" stroke-width="8.50" stroke-linejoin="bevel" points="979.592,1771.94 1085.88,1771.94"/>
<polyline class="LedgerLine" stroke="#000000" stroke-width="8.50" stroke-linejoin="bevel" points="1300.74,1771.94 1407.03,1771.94"/>
<polyline class="Stem" stroke="#000000" stroke-width="5.85" stroke-linejoin="bevel" points="913.157,568.984 913.157,403.051"/>
<polyline class="Stem" stroke="#000000" stroke-width="5.85" stroke-linejoin="bevel" points="1250.01,503.206 1250.01,675.443"/>
<polyline class="Stem" stroke="#000000" stroke-width="5.85" stroke-linejoin="bevel" points="1438.94,450.057 1438.94,628.937"/>
<polyline class="Stem" stroke="#000000" stroke-width="5.85" stroke-linejoin="bevel" points="1772.97,396.907 1772.97,575.787"/>
<polyline class="Stem" stroke="#000000" stroke-width="5.85" stroke-linejoin="bevel" points="2021.46,423.482 2021.46,562.5"/>
<polyline class="Stem" stroke="#000000" stroke-width="5.85" stroke-linejoin="bevel" points="2176.76,370.332 2176.76,535.925"/>
<polyline class="Stem" stroke="#000000" stroke-width="5.85" stroke-linejoin="bevel" points="2477.16,370.332 2477.16,535.925"/>
<polyline class="Stem" stroke="#000000" stroke-width="5.85" stroke-linejoin="bevel" points="2623.3,423.482 2623.3,562.5"/>
<polyline class="Stem" stroke="#000000" stroke-width="5.85" stroke-linejoin="bevel" points="3302.44,423.482 3302.44,602.362"/>
<polyline class="Stem" stroke="#000000" stroke-width="5.85" stroke-linejoin="bevel" points="3577.74,423.482 3577.74,602.362"/>
<polyline class="Stem" stroke="#000000" stroke-width="5.85" stroke-linejoin="bevel" points="3982.16,423.482 3982.16,602.362"/>
<polyline class="Stem" stroke="#000000" stroke-width="5.85" stroke-linejoin="bevel" points="591.217,1114.57 591.217,1253.59"/>
<polyline class="Stem" stroke="#000000" stroke-width="5.85" stroke-linejoin="bevel" points="755.972,1088 755.972,1240.3"/>
<polyline class="Stem" stroke="#000000" stroke-width="5.85" stroke-linejoin="bevel" points="920.727,1114.57 920.727,1280.16"/>
<polyline class="Stem" stroke="#000000" stroke-width="5.85" stroke-linejoin="bevel" points="1085.48,1141.14 1085.48,1293.45"/>
<polyline class="Stem" stroke="#000000" stroke-width="5.85" stroke-linejoin="bevel" points="1395.34,1088 1395.34,1266.88"/>
<polyline class="Stem" stroke="#000000" stroke-width="5.85" stroke-linejoin="bevel" points="1564.09,1141.14 1564.09,1320.03"/>
<polyline class="Stem" stroke="#000000" stroke-width="5.85" stroke-linejoin="bevel" points="2157.25,1260.07 2157.25,1094.14"/>
<polyline class="Stem" stroke="#000000" stroke-width="5.85" stroke-linejoin="bevel" points="2430.76,1194.29 2430.76,1366.53"/>
<polyline class="Stem" stroke="#000000" stroke-width="5.85" stroke-linejoin="bevel" points="2707.13,1141.14 2707.13,1320.03"/>
<polyline class="Stem" stroke="#000000" stroke-width="5.85" stroke-linejoin="bevel" points="3001.04,1088 3001.04,1240.3"/>
<polyline class="Stem" stroke="#000000" stroke-width="5.85" stroke-linejoin="bevel" points="3176.02,1088 3176.02,1240.3"/>
<polyline class="Stem" stroke="#000000" stroke-width="5.85" stroke-linejoin="bevel" points="3351.01,1114.57 3351.01,1253.59"/>
<polyline class="Stem" stroke="#000000" stroke-width="5.85" stroke-linejoin="bevel" points="3525.99,1088 3525.99,1240.3"/>
<polyline class="Stem" stroke="#000000" stroke-width="5.85" stroke-linejoin="bevel" points="3846.08,1061.42 3846.08,1240.3"/>
<polyline class="Stem" stroke="#000000" stroke-width="5.85" stroke-linejoin="bevel" points="825.066,1725.93 825.066,1918.1"/>
<polyline class="Stem" stroke="#000000" stroke-width="5.85" stroke-linejoin="bevel" points="1001.12,1752.51 1001.12,1931.39"/>
<polyline class="Stem" stroke="#000000" stroke-width="5.85" stroke-linejoin="bevel" points="1322.27,1779.08 1322.27,1957.96"/>
<polyline class="Stem" stroke="#000000" stroke-width="5.85" stroke-linejoin="bevel" points="1548.55,1832.23 1548.55,2011.11"/>
<polyline class="Stem" stroke="#000000" stroke-width="5.85" stroke-linejoin="bevel" points="1901.33,1805.66 1901.33,1984.54"/>
<polyline class="Stem" stroke="#000000" stroke-width="5.85" stroke-linejoin="bevel" points="2127.61,1858.81 2127.61,2037.69"/>
<polyline class="Stem" stroke="#000000" stroke-width="5.85" stroke-linejoin="bevel" points="2480.39,1885.38 2480.39,2057.62"/>
<polyline class="Stem" stroke="#000000" stroke-width="5.85" stroke-linejoin="bevel" points="3248.51,1951.16 3248.51,1785.23"/>
<path class="Note" transform="matrix(2.12598,0,0,2.12598,847.002,575.787)" d="M31.5,-8.1 C29.7,-11.4 25.9,-13.2 21.3,-13.2 C17.9,-13.2 14.2,-12.2 10.6,-10.3 C4,-6.8 0,-0.9 0,4.2 C0,5.6 0.3,7 1,8.3 C2.8,11.6 6.6,13.3 11.2,13.3 C14.6,13.3 18.3,12.4 21.9,10.5 C28.5,7 32.5,1.1 32.5,-4 C32.5,-5.4 32.2,-6.8 31.5,-8.1"/>
<path class="Note" transform="matrix(2.12598,0,0,2.12598,1247.09,496.063)" d="M31.5,-8.1 C29.7,-11.4 25.9,-13.2 21.3,-13.2 C17.9,-13.2 14.2,-12.2 10.6,-10.3 C4,-6.8 0,-0.9 0,4.2 C0,5.6 0.3,7 1,8.3 C2.8,11.6 6.6,13.3 11.2,13.3 C14.6,13.3 18.3,12.4 21.9,10.5 C28.5,7 32.5,1.1 32.5,-4 C32.5,-5.4 32.2,-6.8 31.5,-8.1"/>
<path class="Note" transform="matrix(2.12598,0,0,2.12598,1436.02,442.913)" d="M31.5,-8.1 C29.7,-11.4 25.9,-13.2 21.3,-13.2 C17.9,-13.2 14.2,-12.2 10.6,-10.3 C4,-6.8 0,-0.9 0,4.2 C0,5.6 0.3,7 1,8.3 C2.8,11.6 6.6,13.3 11.2,13.3 C14.6,13.3 18.3,12.4 21.9,10.5 C28.5,7 32.5,1.1 32.5,-4 C32.5,-5.4 32.2,-6.8 31.5,-8.1"/>
<path class="Note" transform="matrix(2.12598,0,0,2.12598,1770.05,389.764)" d="M31.5,-8.1 C29.7,-11.4 25.9,-13.2 21.3,-13.2 C17.9,-13.2 14.2,-12.2 10.6,-10.3 C4,-6.8 0,-0.9 0,4.2 C0,5.6 0.3,7 1,8.3 C2.8,11.6 6.6,13.3 11.2,13.3 C14.6,13.3 18.3,12.4 21.9,10.5 C28.5,7 32.5,1.1 32.5,-4 C32.5,-5.4 32.2,-6.8 31.5,-8.1"/>
<path class="Note" transform="matrix(2.12598,0,0,2.12598,2018.53,416.338)" d="M31.5,-8.1 C29.7,-11.4 25.9,-13.2 21.3,-13.2 C17.9,-13.2 14.2,-12.2 10.6,-10.3 C4,-6.8 0,-0.9 0,4.2 C0,5.6 0.3,7 1,8.3 C2.8,11.6 6.6,13.3 11.2,13.3 C14.6,13.3 18.3,12.4 21.9,10.5 C28.5,7 32.5,1.1 32.5,-4 C32.5,-5.4 32.2,-6.8 31.5,-8.1"/>
<path class="Note" transform="matrix(2.12598,0,0,2.12598,2173.84,363.189)" d="M31.5,-8.1 C29.7,-11.4 25.9,-13.2 21.3,-13.2 C17.9,-13.2 14.2,-12.2 10.6,-10.3 C4,-6.8 0,-0.9 0,4.2 C0,5.6 0.3,7 1,8.3 C2.8,11.6 6.6,13.3 11.2,13.3 C14.6,13.3 18.3,12.4 21.9,10.5 C28.5,7 32.5,1.1 32.5,-4 C32.5,-5.4 32.2,-6.8 31.5,-8.1"/>
<path class="Note" transform="matrix(2.12598,0,0,2.12598,2474.24,363.189)" d="M31.5,-8.1 C29.7,-11.4 25.9,-13.2 21.3,-13.2 C17.9,-13.2 14.2,-12.2 10.6,-10.3 C4,-6.8 0,-0.9 0,4.2 C0,5.6 0.3,7 1,8.3 C2.8,11.6 6.6,13.3 11.2,13.3 C14.6,13.3 18.3,12.4 21.9,10.5 C28.5,7 32.5,1.1 32.5,-4 C32.5,-5.4 32.2,-6.8 31.5,-8.1"/>
<path class="Note" transform="matrix(2.12598,0,0,2.12598,2620.38,416.338)" d="M31.5,-8.1 C29.7,-11.4 25.9,-13.2 21.3,-13.2 C17.9,-13.2 14.2,-12.2 10.6,-10.3 C4,-6.8 0,-0.9 0,4.2 C0,5.6 0.3,7 1,8.3 C2.8,11.6 6.6,13.3 11.2,13.3 C14.6,13.3 18.3,12.4 21.9,10.5 C28.5,7 32.5,1.1 32.5,-4 C32.5,-5.4 32.2,-6.8 31.5,-8.1"/>
<path class="Note" transform="matrix(2.12598,0,0,2.12598,3299.52,416.338)" d="M31.5,-8.1 C29.7,-11.4 25.9,-13.2 21.3,-13.2 C17.9,-13.2 14.2,-12.2 10.6,-10.3 C4,-6.8 0,-0.9 0,4.2 C0,5.6 0.3,7 1,8.3 C2.8,11.6 6.6,13.3 11.2,13.3 C14.6,13.3 18.3,12.4 21.9,10.5 C28.5,7 32.5,1.1 32.5,-4 C32.5,-5.4 32.2,-6.8 31.5,-8.1"/>
<path class="Note" transform="matrix(2.12598,0,0,2.12598,3574.82,416.338)" d="M31.5,-8.1 C29.7,-11.4 25.9,-13.2 21.3,-13.2 C17.9,-13.2 14.2,-12.2 10.6,-10.3 C4,-6.8 0,-0.9 0,4.2 C0,5.6 0.3,7 1,8.3 C2.8,11.6 6.6,13.3 11.2,13.3 C14.6,13.3 18.3,12.4 21.9,10.5 C28.5,7 32.5,1.1 32.5,-4 C32.5,-5.4 32.2,-6.8 31.5,-8.1"/>
<path class="Note" transform="matrix(2.12598,0,0,2.12598,3979.24,416.338)" d="M31.5,-8.1 C29.7,-11.4 25.9,-13.2 21.3,-13.2 C17.9,-13.2 14.2,-12.2 10.6,-10.3 C4,-6.8 0,-0.9 0,4.2 C0,5.6 0.3,7 1,8.3 C2.8,11.6 6.6,13.3 11.2,13.3 C14.6,13.3 18.3,12.4 21.9,10.5 C28.5,7 32.5,1.1 32.5,-4 C32.5,-5.4 32.2,-6.8 31.5,-8.1"/>
<path class="Note" transform="matrix(2.12598,0,0,2.12598,588.294,1107.43)" d="M31.5,-8.1 C29.7,-11.4 25.9,-13.2 21.3,-13.2 C17.9,-13.2 14.2,-12.2 10.6,-10.3 C4,-6.8 0,-0.9 0,4.2 C0,5.6 0.3,7 1,8.3 C2.8,11.6 6.6,13.3 11.2,13.3 C14.6,13.3 18.3,12.4 21.9,10.5 C28.5,7 32.5,1.1 32.5,-4 C32.5,-5.4 32.2,-6.8 31.5,-8.1"/>
<path class="Note" transform="matrix(2.12598,0,0,2.12598,753.049,1080.85)" d="M31.5,-8.1 C29.7,-11.4 25.9,-13.2 21.3,-13.2 C17.9,-13.2 14.2,-12.2 10.6,-10.3 C4,-6.8 0,-0.9 0,4.2 C0,5.6 0.3,7 1,8.3 C2.8,11.6 6.6,13.3 11.2,13.3 C14.6,13.3 18.3,12.4 21.9,10.5 C28.5,7 32.5,1.1 32.5,-4 C32.5,-5.4 32.2,-6.8 31.5,-8.1"/>
<path class="Note" transform="matrix(2.12598,0,0,2.12598,917.804,1107.43)" d="M31.5,-8.1 C29.7,-11.4 25.9,-13.2 21.3,-13.2 C17.9,-13.2 14.2,-12.2 10.6,-10.3 C4,-6.8 0,-0.9 0,4.2 C0,5.6 0.3,7 1,8.3 C2.8,11.6 6.6,13.3 11.2,13.3 C14.6,13.3 18.3,12.4 21.9,10.5 C28.5,7 32.5,1.1 32.5,-4 C32.5,-5.4 32.2,-6.8 31.5,-8.1"/>
<path class="Note" transform="matrix(2.12598,0,0,2.12598,1082.56,1134)" d="M31.5,-8.1 C29.7,-11.4 25.9,-13.2 21.3,-13.2 C17.9,-13.2 14.2,-12.2 10.6,-10.3 C4,-6.8 0,-0.9 0,4.2 C0,5.6 0.3,7 1,8.3 C2.8,11.6 6.6,13.3 11.2,13.3 C14.6,13.3 18.3,12.4 21.9,10.5 C28.5,7 32.5,1.1 32.5,-4 C32.5,-5.4 32.2,-6.8 31.5,-8.1"/>
<path class="Note" transform="matrix(2.12598,0,0,2.12598,1392.41,1080.85)" d="M31.5,-8.1 C29.7,-11.4 25.9,-13.2 21.3,-13.2 C17.9,-13.2 14.2,-12.2 10.6,-10.3 C4,-6.8 0,-0.9 0,4.2 C0,5.6 0.3,7 1,8.3 C2.8,11.6 6.6,13.3 11.2,13.3 C14.6,13.3 18.3,12.4 21.9,10.5 C28.5,7 32.5,1.1 32.5,-4 C32.5,-5.4 32.2,-6.8 31.5,-8.1"/>
<path class="Note" transform="matrix(2.12598,0,0,2.12598,1561.16,1134)" d="M31.5,-8.1 C29.7,-11.4 25.9,-13.2 21.3,-13.2 C17.9,-13.2 14.2,-12.2 10.6,-10.3 C4,-6.8 0,-0.9 0,4.2 C0,5.6 0.3,7 1,8.3 C2.8,11.6 6.6,13.3 11.2,13.3 C14.6,13.3 18.3,12.4 21.9,10.5 C28.5,7 32.5,1.1 32.5,-4 C32.5,-5.4 32.2,-6.8 31.5,-8.1"/>
<path class="Note" transform="matrix(2.12598,0,0,2.12598,2091.1,1266.88)" d="M31.5,-8.1 C29.7,-11.4 25.9,-13.2 21.3,-13.2 C17.9,-13.2 14.2,-12.2 10.6,-10.3 C4,-6.8 0,-0.9 0,4.2 C0,5.6 0.3,7 1,8.3 C2.8,11.6 6.6,13.3 11.2,13.3 C14.6,13.3 18.3,12.4 21.9,10.5 C28.5,7 32.5,1.1 32.5,-4 C32.5,-5.4 32.2,-6.8 31.5,-8.1"/>
<path class="Note" transform="matrix(2.12598,0,0,2.12598,2427.83,1187.15)" d="M31.5,-8.1 C29.7,-11.4 25.9,-13.2 21.3,-13.2 C17.9,-13.2 14.2,-12.2 10.6,-10.3 C4,-6.8 0,-0.9 0,4.2 C0,5.6 0.3,7 1,8.3 C2.8,11.6 6.6,13.3 11.2,13.3 C14.6,13.3 18.3,12.4 21.9,10.5 C28.5,7 32.5,1.1 32.5,-4 C32.5,-5.4 32.2,-6.8 31.5,-8.1"/>
<path class="Note" transform="matrix(2.12598,0,0,2.12598,2704.21,1134)" d="M31.5,-8.1 C29.7,-11.4 25.9,-13.2 21.3,-13.2 C17.9,-13.2 14.2,-12.2 10.6,-10.3 C4,-6.8 0,-0.9 0,4.2 C0,5.6 0.3,7 1,8.3 C2.8,11.6 6.6,13.3 11.2,13.3 C14.6,13.3 18.3,12.4 21.9,10.5 C28.5,7 32.5,1.1 32.5,-4 C32.5,-5.4 32.2,-6.8 31.5,-8.1"/>
<path class="Note" transform="matrix(2.12598,0,0,2.12598,2998.11,1080.85)" d="M31.5,-8.1 C29.7,-11.4 25.9,-13.2 21.3,-13.2 C17.9,-13.2 14.2,-12.2 10.6,-10.3 C4,-6.8 0,-0.9 0,4.2 C0,5.6 0.3,7 1,8.3 C2.8,11.6 6.6,13.3 11.2,13.3 C14.6,13.3 18.3,12.4 21.9,10.5 C28.5,7 32.5,1.1 32.5,-4 C32.5,-5.4 32.2,-6.8 31.5,-8.1"/>
<path class="Note" transform="matrix(2.12598,0,0,2.12598,3173.1,1080.85)" d="M31.5,-8.1 C29.7,-11.4 25.9,-13.2 21.3,-13.2 C17.9,-13.2 14.2,-12.2 10.6,-10.3 C4,-6.8 0,-0.9 0,4.2 C0,5.6 0.3,7 1,8.3 C2.8,11.6 6.6,13.3 11.2,13.3 C14.6,13.3 18.3,12.4 21.9,10.5 C28.5,7 32.5,1.1 32.5,-4 C32.5,-5.4 32.2,-6.8 31.5,-8.1"/>
<path class="Note" transform="matrix(2.12598,0,0,2.12598,3348.08,1107.43)" d="M31.5,-8.1 C29.7,-11.4 25.9,-13.2 21.3,-13.2 C17.9,-13.2 14.2,-12.2 10.6,-10.3 C4,-6.8 0,-0.9 0,4.2 C0,5.6 0.3,7 1,8.3 C2.8,11.6 6.6,13.3 11.2,13.3 C14.6,13.3 18.3,12.4 21.9,10.5 C28.5,7 32.5,1.1 32.5,-4 C32.5,-5.4 32.2,-6.8 31.5,-8.1"/>
<path class="Note" transform="matrix(2.12598,0,0,2.12598,3523.07,1080.85)" d="M31.5,-8.1 C29.7,-11.4 25.9,-13.2 21.3,-13.2 C17.9,-13.2 14.2,-12.2 10.6,-10.3 C4,-6.8 0,-0.9 0,4.2 C0,5.6 0.3,7 1,8.3 C2.8,11.6 6.6,13.3 11.2,13.3 C14.6,13.3 18.3,12.4 21.9,10.5 C28.5,7 32.5,1.1 32.5,-4 C32.5,-5.4 32.2,-6.8 31.5,-8.1"/>
<path class="Note" transform="matrix(2.12598,0,0,2.12598,3843.16,1054.28)" d="M31.5,-8.1 C29.7,-11.4 25.9,-13.2 21.3,-13.2 C17.9,-13.2 14.2,-12.2 10.6,-10.3 C4,-6.8 0,-0.9 0,4.2 C0,5.6 0.3,7 1,8.3 C2.8,11.6 6.6,13.3 11.2,13.3 C14.6,13.3 18.3,12.4 21.9,10.5 C28.5,7 32.5,1.1 32.5,-4 C32.5,-5.4 32.2,-6.8 31.5,-8.1"/>
<path class="Note" transform="matrix(2.12598,0,0,2.12598,822.143,1718.79)" d="M31.5,-8.1 C29.7,-11.4 25.9,-13.2 21.3,-13.2 C17.9,-13.2 14.2,-12.2 10.6,-10.3 C4,-6.8 0,-0.9 0,4.2 C0,5.6 0.3,7 1,8.3 C2.8,11.6 6.6,13.3 11.2,13.3 C14.6,13.3 18.3,12.4 21.9,10.5 C28.5,7 32.5,1.1 32.5,-4 C32.5,-5.4 32.2,-6.8 31.5,-8.1"/>
<path class="Note" transform="matrix(2.12598,0,0,2.12598,998.195,1745.37)" d="M31.5,-8.1 C29.7,-11.4 25.9,-13.2 21.3,-13.2 C17.9,-13.2 14.2,-12.2 10.6,-10.3 C4,-6.8 0,-0.9 0,4.2 C0,5.6 0.3,7 1,8.3 C2.8,11.6 6.6,13.3 11.2,13.3 C14.6,13.3 18.3,12.4 21.9,10.5 C28.5,7 32.5,1.1 32.5,-4 C32.5,-5.4 32.2,-6.8 31.5,-8.1"/>
<path class="Note" transform="matrix(2.12598,0,0,2.12598,1319.35,1771.94)" d="M31.5,-8.1 C29.7,-11.4 25.9,-13.2 21.3,-13.2 C17.9,-13.2 14.2,-12.2 10.6,-10.3 C4,-6.8 0,-0.9 0,4.2 C0,5.6 0.3,7 1,8.3 C2.8,11.6 6.6,13.3 11.2,13.3 C14.6,13.3 18.3,12.4 21.9,10.5 C28.5,7 32.5,1.1 32.5,-4 C32.5,-5.4 32.2,-6.8 31.5,-8.1"/>
<path class="Note" transform="matrix(2.12598,0,0,2.12598,1545.63,1825.09)" d="M31.5,-8.1 C29.7,-11.4 25.9,-13.2 21.3,-13.2 C17.9,-13.2 14.2,-12.2 10.6,-10.3 C4,-6.8 0,-0.9 0,4.2 C0,5.6 0.3,7 1,8.3 C2.8,11.6 6.6,13.3 11.2,13.3 C14.6,13.3 18.3,12.4 21.9,10.5 C28.5,7 32.5,1.1 32.5,-4 C32.5,-5.4 32.2,-6.8 31.5,-8.1"/>
<path class="Note" transform="matrix(2.12598,0,0,2.12598,1898.41,1798.51)" d="M31.5,-8.1 C29.7,-11.4 25.9,-13.2 21.3,-13.2 C17.9,-13.2 14.2,-12.2 10.6,-10.3 C4,-6.8 0,-0.9 0,4.2 C0,5.6 0.3,7 1,8.3 C2.8,11.6 6.6,13.3 11.2,13.3 C14.6,13.3 18.3,12.4 21.9,10.5 C28.5,7 32.5,1.1 32.5,-4 C32.5,-5.4 32.2,-6.8 31.5,-8.1"/>
<path class="Note" transform="matrix(2.12598,0,0,2.12598,2124.69,1851.66)" d="M31.5,-8.1 C29.7,-11.4 25.9,-13.2 21.3,-13.2 C17.9,-13.2 14.2,-12.2 10.6,-10.3 C4,-6.8 0,-0.9 0,4.2 C0,5.6 0.3,7 1,8.3 C2.8,11.6 6.6,13.3 11.2,13.3 C14.6,13.3 18.3,12.4 21.9,10.5 C28.5,7 32.5,1.1 32.5,-4 C32.5,-5.4 32.2,-6.8 31.5,-8.1"/>
<path class="Note" transform="matrix(2.12598,0,0,2.12598,2477.47,1878.24)" d="M31.5,-8.1 C29.7,-11.4 25.9,-13.2 21.3,-13.2 C17.9,-13.2 14.2,-12.2 10.6,-10.3 C4,-6.8 0,-0.9 0,4.2 C0,5.6 0.3,7 1,8.3 C2.8,11.6 6.6,13.3 11.2,13.3 C14.6,13.3 18.3,12.4 21.9,10.5 C28.5,7 32.5,1.1 32.5,-4 C32.5,-5.4 32.2,-6.8 31.5,-8.1"/>
<path class="Note" transform="matrix(2.12598,0,0,2.12598,3182.36,1957.96)" d="M31.5,-8.1 C29.7,-11.4 25.9,-13.2 21.3,-13.2 C17.9,-13.2 14.2,-12.2 10.6,-10.3 C4,-6.8 0,-0.9 0,4.2 C0,5.6 0.3,7 1,8.3 C2.8,11.6 6.6,13.3 11.2,13.3 C14.6,13.3 18.3,12.4 21.9,10.5 C28.5,7 32.5,1.1 32.5,-4 C32.5,-5.4 32.2,-6.8 31.5,-8.1"/>
<path class="Clef" transform="matrix(2.12598,0,0,2.12598,113.386,602.362)" d="M63.35,-5.86992 C62.12,-11.3 59.48,-15.1199 58.7,-16.16 C55.51,-20.43 51.5,-23.28 46.81,-24.63 C43.7,-25.5199 40.7,-25.63 38.28,-25.45 C37.24,-31.46 36.24,-37.3399 35.33,-42.7899 C40.78,-48.96 44.4,-54.76 46.68,-59.06 C50.15,-65.6399 51.3,-70.2199 51.35,-70.4199 C53.07,-75.63 53.43,-83.33 52.33,-91.5399 C51.32,-99.0899 49.23,-105.8 46.88,-109.05 C45.85,-110.48 44.8,-111.21 43.76,-111.21 C42.54,-111.21 40.03,-109.97 37.14,-107.2 C34.84,-105 31.57,-101.11 29.01,-95.1 C26.01,-88.0399 25.8,-78.55 26.15,-71.83 C26.53,-64.56 27.64,-58.8699 27.65,-58.8199 C27.67,-58.73 27.93,-57.23 28.38,-54.66 C28.15,-54.43 27.91,-54.21 27.66,-53.9699 C26.62,-52.9699 25.43,-51.83 24.05,-50.45 C23.19,-49.5899 22.24,-48.68 21.24,-47.71 C12.79,-39.5699 0,-27.25 0,-8.1 C0,-3.4 0.9,1.02002 2.67998,5.03008 C4.27002,8.63008 6.57002,11.9101 9.5,14.7801 C17.23,22.3301 27.82,25.54 34.88,25.3801 C37.83,25.3101 40.46,25.07 42.85,24.62 C44.68,34.22 45.82,41.25 45.86,46.59 C45.9,53.1 44.25,57.07 40.35,59.84 C37.92,61.57 35.11,62.52 32.01,62.67 C29.42,62.79 27.16,62.32 25.73,61.9101 L25.72,61.9101 C25.72,61.9101 25.43,61.8301 25.42,61.6301 C25.41,61.45 25.76,61.4 25.77,61.4 L25.79,61.4 C27.71,60.9601 31.28,59.7301 33.64,56.4301 C35.44,53.9101 36.31,49.29 34.47,45.35 C33.36,42.9601 30.85,40.0101 25.23,39.5601 C22.74,39.3601 20.47,39.87 18.47,41.07 C16.66,42.15 15.16,43.79 14.11,45.79 C11.65,50.49 12.11,56.22 15.24,60.0601 C18.2,63.6801 22.82,65.99 28.25,66.57 C29.1,66.6601 29.95,66.7 30.8,66.7 C35.23,66.7 39.63,65.5 43.2,63.29 C46.86,60.72 48.98,56.74 49.66,51.1101 C50.22,46.47 49.83,40.5601 48.43,32.49 C48.07,30.4 47.53,27.37 46.87,23.6101 C52.62,21.69 56.78,18.12 60.55,12.27 C63.84,6.53008 64.78,0.430078 63.35,-5.86992 M29.14,20.32 C24.5,19.1 20.07,16.6 16.31,13.1 C15,11.87 13.13,9.7 11.66,6.31006 C10.29,3.15 9.62998,-0.27998 9.67998,-3.86992 C9.75,-8.55996 11.06,-13.38 13.57,-18.1699 C16.49,-23.75 21.05,-29.28 27.11,-34.61 C28.56,-35.8899 29.93,-37.1699 31.22,-38.45 C31.98,-34.1899 32.81,-29.5 33.69,-24.6199 C29.84,-23.35 25.09,-20.2 21.98,-14.55 C18.44,-7.97998 18.58,-2.45996 19.31,1.02002 C20.25,5.48008 22.78,9.24004 26.24,11.3301 C27.17,11.89 31.3,14.02 33.14,13.44 C33.51,13.32 33.78,13.1 33.92,12.77 C34.43,11.6 33.41,10.9601 31.85,10 C31.25,9.63008 30.58,9.21006 29.85,8.68008 C26.53,6.19004 25.08,1.74004 26.15,-2.63994 C26.73,-5.03994 28.01,-7.2 29.85,-8.9 C31.52,-10.45 33.56,-11.55 35.94,-12.1899 C37.98,-0.95 40.04,10.2 41.68,18.5601 C41.81,19.25 41.95,19.92 42.08,20.59 C37.7,21.52 33.35,21.4301 29.14,20.32 M40.46,-12.86 C50.81,-13.33 55.08,-5.88994 55.97,-1.05996 C56.44,1.47002 56.43,5.91006 54.89,10.12 C53.72,13.3 51.26,17.37 46.13,19.4301 C46.06,19.0101 45.98,18.5801 45.9,18.15 C44.36,9.38008 42.42,-1.60996 40.46,-12.86 M33.14,-83.8 C34.92,-89.5399 37.66,-92.7899 39.65,-94.5199 C41.4,-96.0399 43.05,-96.75 43.97,-96.75 C44.11,-96.75 44.23,-96.73 44.33,-96.7 C44.79,-96.56 45.32,-95.9899 45.79,-95.1199 C48.1,-90.83 47.36,-84.1199 46.02,-79.68 C44.39,-74.28 41.47,-68.66 32.67,-59.05 C32.5,-60.16 32.34,-61.21 32.19,-62.1899 C30.94,-70.48 31.26,-77.75 33.14,-83.8"/>
<path class="Clef" transform="matrix(2.12598,0,0,2.12598,113.386,1293.45)" d="M63.35,-5.86992 C62.12,-11.3 59.48,-15.1199 58.7,-16.16 C55.51,-20.43 51.5,-23.28 46.81,-24.63 C43.7,-25.5199 40.7,-25.63 38.28,-25.45 C37.24,-31.46 36.24,-37.3399 35.33,-42.7899 C40.78,-48.96 44.4,-54.76 46.68,-59.06 C50.15,-65.6399 51.3,-70.2199 51.35,-70.4199 C53.07,-75.63 53.43,-83.33 52.33,-91.5399 C51.32,-99.0899 49.23,-105.8 46.88,-109.05 C45.85,-110.48 44.8,-111.21 43.76,-111.21 C42.54,-111.21 40.03,-109.97 37.14,-107.2 C34.84,-105 31.57,-101.11 29.01,-95.1 C26.01,-88.0399 25.8,-78.55 26.15,-71.83 C26.53,-64.56 27.64,-58.8699 27.65,-58.8199 C27.67,-58.73 27.93,-57.23 28.38,-54.66 C28.15,-54.43 27.91,-54.21 27.66,-53.9699 C26.62,-52.9699 25.43,-51.83 24.05,-50.45 C23.19,-49.5899 22.24,-48.68 21.24,-47.71 C12.79,-39.5699 0,-27.25 0,-8.1 C0,-3.4 0.9,1.02002 2.67998,5.03008 C4.27002,8.63008 6.57002,11.9101 9.5,14.7801 C17.23,22.3301 27.82,25.54 34.88,25.3801 C37.83,25.3101 40.46,25.07 42.85,24.62 C44.68,34.22 45.82,41.25 45.86,46.59 C45.9,53.1 44.25,57.07 40.35,59.84 C37.92,61.57 35.11,62.52 32.01,62.67 C29.42,62.79 27.16,62.32 25.73,61.9101 L25.72,61.9101 C25.72,61.9101 25.43,61.8301 25.42,61.6301 C25.41,61.45 25.76,61.4 25.77,61.4 L25.79,61.4 C27.71,60.9601 31.28,59.7301 33.64,56.4301 C35.44,53.9101 36.31,49.29 34.47,45.35 C33.36,42.9601 30.85,40.0101 25.23,39.5601 C22.74,39.3601 20.47,39.87 18.47,41.07 C16.66,42.15 15.16,43.79 14.11,45.79 C11.65,50.49 12.11,56.22 15.24,60.0601 C18.2,63.6801 22.82,65.99 28.25,66.57 C29.1,66.6601 29.95,66.7 30.8,66.7 C35.23,66.7 39.63,65.5 43.2,63.29 C46.86,60.72 48.98,56.74 49.66,51.1101 C50.22,46.47 49.83,40.5601 48.43,32.49 C48.07,30.4 47.53,27.37 46.87,23.6101 C52.62,21.69 56.78,18.12 60.55,12.27 C63.84,6.53008 64.78,0.430078 63.35,-5.86992 M29.14,20.32 C24.5,19.1 20.07,16.6 16.31,13.1 C15,11.87 13.13,9.7 11.66,6.31006 C10.29,3.15 9.62998,-0.27998 9.67998,-3.86992 C9.75,-8.55996 11.06,-13.38 13.57,-18.1699 C16.49,-23.75 21.05,-29.28 27.11,-34.61 C28.56,-35.8899 29.93,-37.1699 31.22,-38.45 C31.98,-34.1899 32.81,-29.5 33.69,-24.6199 C29.84,-23.35 25.09,-20.2 21.98,-14.55 C18.44,-7.97998 18.58,-2.45996 19.31,1.02002 C20.25,5.48008 22.78,9.24004 26.24,11.3301 C27.17,11.89 31.3,14.02 33.14,13.44 C33.51,13.32 33.78,13.1 33.92,12.77 C34.43,11.6 33.41,10.9601 31.85,10 C31.25,9.63008 30.58,9.21006 29.85,8.68008 C26.53,6.19004 25.08,1.74004 26.15,-2.63994 C26.73,-5.03994 28.01,-7.2 29.85,-8.9 C31.52,-10.45 33.56,-11.55 35.94,-12.1899 C37.98,-0.95 40.04,10.2 41.68,18.5601 C41.81,19.25 41.95,19.92 42.08,20.59 C37.7,21.52 33.35,21.4301 29.14,20.32 M40.46,-12.86 C50.81,-13.33 55.08,-5.88994 55.97,-1.05996 C56.44,1.47002 56.43,5.91006 54.89,10.12 C53.72,13.3 51.26,17.37 46.13,19.4301 C46.06,19.0101 45.98,18.5801 45.9,18.15 C44.36,9.38008 42.42,-1.60996 40.46,-12.86 M33.14,-83.8 C34.92,-89.5399 37.66,-92.7899 39.65,-94.5199 C41.4,-96.0399 43.05,-96.75 43.97,-96.75 C44.11,-96.75 44.23,-96.73 44.33,-96.7 C44.79,-96.56 45.32,-95.9899 45.79,-95.1199 C48.1,-90.83 47.36,-84.1199 46.02,-79.68 C44.39,-74.28 41.47,-68.66 32.67,-59.05 C32.5,-60.16 32.34,-61.21 32.19,-62.1899 C30.94,-70.48 31.26,-77.75 33.14,-83.8"/>
<path class="Clef" transform="matrix(2.12598,0,0,2.12598,113.386,1984.54)" d="M63.35,-5.86992 C62.12,-11.3 59.48,-15.1199 58.7,-16.16 C55.51,-20.43 51.5,-23.28 46.81,-24.63 C43.7,-25.5199 40.7,-25.63 38.28,-25.45 C37.24,-31.46 36.24,-37.3399 35.33,-42.7899 C40.78,-48.96 44.4,-54.76 46.68,-59.06 C50.15,-65.6399 51.3,-70.2199 51.35,-70.4199 C53.07,-75.63 53.43,-83.33 52.33,-91.5399 C51.32,-99.0899 49.23,-105.8 46.88,-109.05 C45.85,-110.48 44.8,-111.21 43.76,-111.21 C42.54,-111.21 40.03,-109.97 37.14,-107.2 C34.84,-105 31.57,-101.11 29.01,-95.1 C26.01,-88.0399 25.8,-78.55 26.15,-71.83 C26.53,-64.56 27.64,-58.8699 27.65,-58.8199 C27.67,-58.73 27.93,-57.23 28.38,-54.66 C28.15,-54.43 27.91,-54.21 27.66,-53.9699 C26.62,-52.9699 25.43,-51.83 24.05,-50.45 C23.19,-49.5899 22.24,-48.68 21.24,-47.71 C12.79,-39.5699 0,-27.25 0,-8.1 C0,-3.4 0.9,1.02002 2.67998,5.03008 C4.27002,8.63008 6.57002,11.9101 9.5,14.7801 C17.23,22.3301 27.82,25.54 34.88,25.3801 C37.83,25.3101 40.46,25.07 42.85,24.62 C44.68,34.22 45.82,41.25 45.86,46.59 C45.9,53.1 44.25,57.07 40.35,59.84 C37.92,61.57 35.11,62.52 32.01,62.67 C29.42,62.79 27.16,62.32 25.73,61.9101 L25.72,61.9101 C25.72,61.9101 25.43,61.8301 25.42,61.6301 C25.41,61.45 25.76,61.4 25.77,61.4 L25.79,61.4 C27.71,60.9601 31.28,59.7301 33.64,56.4301 C35.44,53.9101 36.31,49.29 34.47,45.35 C33.36,42.9601 30.85,40.0101 25.23,39.5601 C22.74,39.3601 20.47,39.87 18.47,41.07 C16.66,42.15 15.16,43.79 14.11,45.79 C11.65,50.49 12.11,56.22 15.24,60.0601 C18.2,63.6801 22.82,65.99 28.25,66.57 C29.1,66.6601 29.95,66.7 30.8,66.7 C35.23,66.7 39.63,65.5 43.2,63.29 C46.86,60.72 48.98,56.74 49.66,51.1101 C50.22,46.47 49.83,40.5601 48.43,32.49 C48.07,30.4 47.53,27.37 46.87,23.6101 C52.62,21.69 56.78,18.12 60.55,12.27 C63.84,6.53008 64.78,0.430078 63.35,-5.86992 M29.14,20.32 C24.5,19.1 20.07,16.6 16.31,13.1 C15,11.87 13.13,9.7 11.66,6.31006 C10.29,3.15 9.62998,-0.27998 9.67998,-3.86992 C9.75,-8.55996 11.06,-13.38 13.57,-18.1699 C16.49,-23.75 21.05,-29.28 27.11,-34.61 C28.56,-35.8899 29.93,-37.1699 31.22,-38.45 C31.98,-34.1899 32.81,-29.5 33.69,-24.6199 C29.84,-23.35 25.09,-20.2 21.98,-14.55 C18.44,-7.97998 18.58,-2.45996 19.31,1.02002 C20.25,5.48008 22.78,9.24004 26.24,11.3301 C27.17,11.89 31.3,14.02 33.14,13.44 C33.51,13.32 33.78,13.1 33.92,12.77 C34.43,11.6 33.41,10.9601 31.85,10 C31.25,9.63008 30.58,9.21006 29.85,8.68008 C26.53,6.19004 25.08,1.74004 26.15,-2.63994 C26.73,-5.03994 28.01,-7.2 29.85,-8.9 C31.52,-10.45 33.56,-11.55 35.94,-12.1899 C37.98,-0.95 40.04,10.2 41.68,18.5601 C41.81,19.25 41.95,19.92 42.08,20.59 C37.7,21.52 33.35,21.4301 29.14,20.32 M40.46,-12.86 C50.81,-13.33 55.08,-5.88994 55.97,-1.05996 C56.44,1.47002 56.43,5.91006 54.89,10.12 C53.72,13.3 51.26,17.37 46.13,19.4301 C46.06,19.0101 45.98,18.5801 45.9,18.15 C44.36,9.38008 42.42,-1.60996 40.46,-12.86 M33.14,-83.8 C34.92,-89.5399 37.66,-92.7899 39.65,-94.5199 C41.4,-96.0399 43.05,-96.75 43.97,-96.75 C44.11,-96.75 44.23,-96.73 44.33,-96.7 C44.79,-96.56 45.32,-95.9899 45.79,-95.1199 C48.1,-90.83 47.36,-84.1199 46.02,-79.68 C44.39,-74.28 41.47,-68.66 32.67,-59.05 C32.5,-60.16 32.34,-61.21 32.19,-62.1899 C30.94,-70.48 31.26,-77.75 33.14,-83.8"/>
<path class="KeySig" transform="matrix(2.12598,0,0,2.12598,355.715,522.638)" d="M23.3,-10.6 C23.9,-10.7 24.4,-11.4 24.4,-12 L24.4,-17.9 C24.4,-18.7 23.8,-19.3 23,-19.3 L22.8,-19.3 L19.5,-18.6 L19.5,-33.5 L16.7,-33.5 L16.7,-18 L7.8,-16.2 L7.8,-30.3 L5,-30.3 L5,-15.6 L1.1,-14.8 C0.5,-14.7 0,-14 0,-13.4 L0,-13.2 L0,-7.4 L0,-7.6 C0,-6.8 0.6,-6.2 1.4,-6.2 L1.7,-6.2 L5,-6.9 L5,9.6 L1.1,10.4 C0.5,10.5 0,11.2 0,11.8 L0,17.6 C0,18.4 0.6,19 1.4,19 L1.7,19 L5,18.3 L5,33.2 L7.8,33.2 L7.8,17.7 L16.7,15.9 L16.7,30 L19.5,30 L19.5,15.3 L23.3,14.6 C23.9,14.5 24.4,13.8 24.4,13.2 L24.4,7.3 C24.4,6.5 23.8,5.9 23,5.9 L22.8,5.9 L19.5,6.6 L19.5,-9.9 L23.3,-10.6 M7.8,9.1 L7.8,-7.5 L16.7,-9.3 L16.7,7.2 L7.8,9.1 "/>
<path class="KeySig" transform="matrix(2.12598,0,0,2.12598,302.565,442.913)" d="M23.3,-10.6 C23.9,-10.7 24.4,-11.4 24.4,-12 L24.4,-17.9 C24.4,-18.7 23.8,-19.3 23,-19.3 L22.8,-19.3 L19.5,-18.6 L19.5,-33.5 L16.7,-33.5 L16.7,-18 L7.8,-16.2 L7.8,-30.3 L5,-30.3 L5,-15.6 L1.1,-14.8 C0.5,-14.7 0,-14 0,-13.4 L0,-13.2 L0,-7.4 L0,-7.6 C0,-6.8 0.6,-6.2 1.4,-6.2 L1.7,-6.2 L5,-6.9 L5,9.6 L1.1,10.4 C0.5,10.5 0,11.2 0,11.8 L0,17.6 C0,18.4 0.6,19 1.4,19 L1.7,19 L5,18.3 L5,33.2 L7.8,33.2 L7.8,17.7 L16.7,15.9 L16.7,30 L19.5,30 L19.5,15.3 L23.3,14.6 C23.9,14.5 24.4,13.8 24.4,13.2 L24.4,7.3 C24.4,6.5 23.8,5.9 23,5.9 L22.8,5.9 L19.5,6.6 L19.5,-9.9 L23.3,-10.6 M7.8,9.1 L7.8,-7.5 L16.7,-9.3 L16.7,7.2 L7.8,9.1 "/>
<path class="KeySig" transform="matrix(2.12598,0,0,2.12598,355.715,1213.73)" d="M23.3,-10.6 C23.9,-10.7 24.4,-11.4 24.4,-12 L24.4,-17.9 C24.4,-18.7 23.8,-19.3 23,-19.3 L22.8,-19.3 L19.5,-18.6 L19.5,-33.5 L16.7,-33.5 L16.7,-18 L7.8,-16.2 L7.8,-30.3 L5,-30.3 L5,-15.6 L1.1,-14.8 C0.5,-14.7 0,-14 0,-13.4 L0,-13.2 L0,-7.4 L0,-7.6 C0,-6.8 0.6,-6.2 1.4,-6.2 L1.7,-6.2 L5,-6.9 L5,9.6 L1.1,10.4 C0.5,10.5 0,11.2 0,11.8 L0,17.6 C0,18.4 0.6,19 1.4,19 L1.7,19 L5,18.3 L5,33.2 L7.8,33.2 L7.8,17.7 L16.7,15.9 L16.7,30 L19.5,30 L19.5,15.3 L23.3,14.6 C23.9,14.5 24.4,13.8 24.4,13.2 L24.4,7.3 C24.4,6.5 23.8,5.9 23,5.9 L22.8,5.9 L19.5,6.6 L19.5,-9.9 L23.3,-10.6 M7.8,9.1 L7.8,-7.5 L16.7,-9.3 L16.7,7.2 L7.8,9.1 "/>
<path class="KeySig" transform="matrix(2.12598,0,0,2.12598,302.565,1134)" d="M23.3,-10.6 C23.9,-10.7 24.4,-11.4 24.4,-12 L24.4,-17.9 C24.4,-18.7 23.8,-19.3 23,-19.3 L22.8,-19.3 L19.5,-18.6 L19.5,-33.5 L16.7,-33.5 L16.7,-18 L7.8,-16.2 L7.8,-30.3 L5,-30.3 L5,-15.6 L1.1,-14.8 C0.5,-14.7 0,-14 0,-13.4 L0,-13.2 L0,-7.4 L0,-7.6 C0,-6.8 0.6,-6.2 1.4,-6.2 L1.7,-6.2 L5,-6.9 L5,9.6 L1.1,10.4 C0.5,10.5 0,11.2 0,11.8 L0,17.6 C0,18.4 0.6,19 1.4,19 L1.7,19 L5,18.3 L5,33.2 L7.8,33.2 L7.8,17.7 L16.7,15.9 L16.7,30 L19.5,30 L19.5,15.3 L23.3,14.6 C23.9,14.5 24.4,13.8 24.4,13.2 L24.4,7.3 C24.4,6.5 23.8,5.9 23,5.9 L22.8,5.9 L19.5,6.6 L19.5,-9.9 L23.3,-10.6 M7.8,9.1 L7.8,-7.5 L16.7,-9.3 L16.7,7.2 L7.8,9.1 "/>
<path class="KeySig" transform="matrix(2.12598,0,0,2.12598,355.715,1904.81)" d="M23.3,-10.6 C23.9,-10.7 24.4,-11.4 24.4,-12 L24.4,-17.9 C24.4,-18.7 23.8,-19.3 23,-19.3 L22.8,-19.3 L19.5,-18.6 L19.5,-33.5 L16.7,-33.5 L16.7,-18 L7.8,-16.2 L7.8,-30.3 L5,-30.3 L5,-15.6 L1.1,-14.8 C0.5,-14.7 0,-14 0,-13.4 L0,-13.2 L0,-7.4 L0,-7.6 C0,-6.8 0.6,-6.2 1.4,-6.2 L1.7,-6.2 L5,-6.9 L5,9.6 L1.1,10.4 C0.5,10.5 0,11.2 0,11.8 L0,17.6 C0,18.4 0.6,19 1.4,19 L1.7,19 L5,18.3 L5,33.2 L7.8,33.2 L7.8,17.7 L16.7,15.9 L16.7,30 L19.5,30 L19.5,15.3 L23.3,14.6 C23.9,14.5 24.4,13.8 24.4,13.2 L24.4,7.3 C24.4,6.5 23.8,5.9 23,5.9 L22.8,5.9 L19.5,6.6 L19.5,-9.9 L23.3,-10.6 M7.8,9.1 L7.8,-7.5 L16.7,-9.3 L16.7,7.2 L7.8,9.1 "/>
<path class="KeySig" transform="matrix(2.12598,0,0,2.12598,302.565,1825.09)" d="M23.3,-10.6 C23.9,-10.7 24.4,-11.4 24.4,-12 L24.4,-17.9 C24.4,-18.7 23.8,-19.3 23,-19.3 L22.8,-19.3 L19.5,-18.6 L19.5,-33.5 L16.7,-33.5 L16.7,-18 L7.8,-16.2 L7.8,-30.3 L5,-30.3 L5,-15.6 L1.1,-14.8 C0.5,-14.7 0,-14 0,-13.4 L0,-13.2 L0,-7.4 L0,-7.6 C0,-6.8 0.6,-6.2 1.4,-6.2 L1.7,-6.2 L5,-6.9 L5,9.6 L1.1,10.4 C0.5,10.5 0,11.2 0,11.8 L0,17.6 C0,18.4 0.6,19 1.4,19 L1.7,19 L5,18.3 L5,33.2 L7.8,33.2 L7.8,17.7 L16.7,15.9 L16.7,30 L19.5,30 L19.5,15.3 L23.3,14.6 C23.9,14.5 24.4,13.8 24.4,13.2 L24.4,7.3 C24.4,6.5 23.8,5.9 23,5.9 L22.8,5.9 L19.5,6.6 L19.5,-9.9 L23.3,-10.6 M7.8,9.1 L7.8,-7.5 L16.7,-9.3 L16.7,7.2 L7.8,9.1 "/>
<path class="TimeSig" transform="matrix(2.12598,0,0,2.12598,464.821,497.126)" d="M34.2,3.9 C33.4,6.1 31.4,13.3 26.5,13.3 C20,13.3 18.6,9.3 13.2,9.3 C12.4,9.3 11.6,9.4 10.6,9.6 C10.6,9.6 13.1,5.8 23.7,2.5 C34.3,-0.8 37,-6 37,-12 C37,-16.2 35.1,-24.5 20,-24.5 C4.9,-24.5 2.1,-15.4 2.1,-10.8 C2.1,-6.7 5.5,-3.4 9.6,-3.4 C13.7,-3.4 17,-6.7 17,-10.8 C17,-13.6 15,-16.7 12.4,-17.7 C12.1,-17.8 11.7,-18.3 11.7,-18.8 C11.7,-19.4 12.2,-20.1 14,-20.6 C14.5,-20.8 15.9,-21.1 17.4,-21.1 C18.8,-21.1 20.4,-20.8 21.6,-20 C23.5,-18.8 24.2,-17 24.2,-12.5 C24.2,-0.8 10.3,1.7 4.5,10.4 C4.5,10.4 1.5,14.6 1.5,19.3 C1.5,24 3.9,24.3 5.1,24.3 C6.7,24.3 8.4,23 8.4,21.2 C8.4,20.8 8.3,20.4 8.1,19.9 C7.5,18.5 7.3,17.4 7.3,16.6 C7.3,16.3 7.3,16 7.4,15.7 C7.5,15.1 8.3,14.1 10.7,14.1 C13.6,14.1 14.7,17.5 16.5,20.1 C18.3,22.7 21.1,24.3 24.3,24.3 C27.5,24.3 31.8,22 33.6,18.3 C35.4,14.6 37.7,7.1 37.7,4.4 C37.7,3.1 36.9,2.5 36,2.5 C35.3,2.5 34.6,2.9 34.2,3.9"/>
<path class="TimeSig" transform="matrix(2.12598,0,0,2.12598,457.812,602.08)" d="M3.59004,12.65 L20.77,12.65 L20.77,20.07 L12.54,20.07 C11.7601,20.07 11.1301,20.7 11.1301,21.48 L11.1301,23.39 C11.1301,24.17 11.7601,24.8 12.54,24.8 L42.79,24.8 C43.57,24.8 44.2,24.17 44.2,23.39 L44.2,21.48 C44.2,20.7 43.57,20.07 42.79,20.07 L33.85,20.07 L33.85,12.65 L42.79,12.65 C43.57,12.65 44.2,12.02 44.2,11.24 L44.2,9.32998 C44.2,8.55 43.57,7.92002 42.79,7.92002 L33.85,7.92002 L33.85,-8.04004 C33.85,-8.57998 33.55,-9.05996 33.07,-9.3 L31.8601,-9.9 C31.3301,-10.16 30.7,-10.07 30.27,-9.67002 L21.22,-1.35 C20.9301,-1.07998 20.7601,-0.709961 20.7601,-0.309961 L20.7601,7.92002 L9.25,7.92002 C9.25,7.92002 20.37,-4.10996 32.2101,-19.88 C33.0801,-21.03 32.5801,-22.08 32.39,-22.27 L30.22,-24.48 C29.95,-24.74 29.59,-24.89 29.22,-24.89 C28.62,-24.89 15.07,-24.87 14.35,-24.89 C13.6301,-24.91 13.09,-24.29 13.02,-23.67 C13.02,-23.67 12.4801,-16.31 9.88008,-8.17998 C7.28008,-0.0599609 4.34004,4.92002 1.68008,8.55 C1.68008,8.55 1.14004,9.54004 1.5,10.28 C1.85,11.03 2.48008,12.12 2.48008,12.12 C2.48008,12.12 2.74004,12.65 3.59004,12.65"/>
<path class="Rest" transform="matrix(2.12598,0,0,2.12598,658.069,549.212)" d="M23.2,16.9 L23,16.6 C22.9,16.5 22.7,16.3 22.4,15.9 L10.9,1.7 C10.6,1.4 10.7,0.6 10.9,0.2 L21.1,-15.2 C21.2,-15.4 21.3,-15.7 21.3,-15.9 L21.3,-16.8 C21.3,-17.1 21.2,-17.4 21,-17.6 L4.8,-39.5 C4.8,-39.5 4,-40.7 3,-39.8 C2,-39 2.8,-37.7 2.8,-37.7 L10.4,-27.3 C10.8,-26.7 10.8,-25.5 10.4,-24.9 L0.3,-9.5 C0.2,-9.3 0.1,-8.9 0.1,-8.7 L0.1,-7.8 C0.1,-7.5 0.2,-7.2 0.4,-7 L11.6,6.9 C11.2,6.8 10.3,6.6 9.1,6.6 C7.4,6.6 5.2,7 3.4,8.6 C1.2,10.6 0,13.4 0,15.9 C0,17.3 0.3,18.7 1.1,19.8 C3.2,23 10.7,32.5 10.7,32.5 C10.7,32.5 11.6,33.6 12.5,32.9 C13.4,32.2 13.2,31.3 12.9,30.8 C12.6,30.3 9.4,24.5 9.4,24.5 C9.4,24.5 8.7,23.1 8.7,21.3 C8.7,20 9.1,18.4 10.4,17.1 C11.6,15.9 13,15.5 14.3,15.5 C15.6,15.5 16.7,15.9 17.5,16.4 L21.4,18.9 C21.4,18.9 22.6,19.5 23.2,18.6 C23.7,17.8 23.5,17.4 23.2,16.9"/>
<path class="Rest" transform="matrix(2.12598,0,0,2.12598,2751.1,549.212)" d="M23.2,16.9 L23,16.6 C22.9,16.5 22.7,16.3 22.4,15.9 L10.9,1.7 C10.6,1.4 10.7,0.6 10.9,0.2 L21.1,-15.2 C21.2,-15.4 21.3,-15.7 21.3,-15.9 L21.3,-16.8 C21.3,-17.1 21.2,-17.4 21,-17.6 L4.8,-39.5 C4.8,-39.5 4,-40.7 3,-39.8 C2,-39 2.8,-37.7 2.8,-37.7 L10.4,-27.3 C10.8,-26.7 10.8,-25.5 10.4,-24.9 L0.3,-9.5 C0.2,-9.3 0.1,-8.9 0.1,-8.7 L0.1,-7.8 C0.1,-7.5 0.2,-7.2 0.4,-7 L11.6,6.9 C11.2,6.8 10.3,6.6 9.1,6.6 C7.4,6.6 5.2,7 3.4,8.6 C1.2,10.6 0,13.4 0,15.9 C0,17.3 0.3,18.7 1.1,19.8 C3.2,23 10.7,32.5 10.7,32.5 C10.7,32.5 11.6,33.6 12.5,32.9 C13.4,32.2 13.2,31.3 12.9,30.8 C12.6,30.3 9.4,24.5 9.4,24.5 C9.4,24.5 8.7,23.1 8.7,21.3 C8.7,20 9.1,18.4 10.4,17.1 C11.6,15.9 13,15.5 14.3,15.5 C15.6,15.5 16.7,15.9 17.5,16.4 L21.4,18.9 C21.4,18.9 22.6,19.5 23.2,18.6 C23.7,17.8 23.5,17.4 23.2,16.9"/>
<path class="Rest" transform="matrix(2.12598,0,0,2.12598,3038.9,549.212)" d="M23.2,16.9 L23,16.6 C22.9,16.5 22.7,16.3 22.4,15.9 L10.9,1.7 C10.6,1.4 10.7,0.6 10.9,0.2 L21.1,-15.2 C21.2,-15.4 21.3,-15.7 21.3,-15.9 L21.3,-16.8 C21.3,-17.1 21.2,-17.4 21,-17.6 L4.8,-39.5 C4.8,-39.5 4,-40.7 3,-39.8 C2,-39 2.8,-37.7 2.8,-37.7 L10.4,-27.3 C10.8,-26.7 10.8,-25.5 10.4,-24.9 L0.3,-9.5 C0.2,-9.3 0.1,-8.9 0.1,-8.7 L0.1,-7.8 C0.1,-7.5 0.2,-7.2 0.4,-7 L11.6,6.9 C11.2,6.8 10.3,6.6 9.1,6.6 C7.4,6.6 5.2,7 3.4,8.6 C1.2,10.6 0,13.4 0,15.9 C0,17.3 0.3,18.7 1.1,19.8 C3.2,23 10.7,32.5 10.7,32.5 C10.7,32.5 11.6,33.6 12.5,32.9 C13.4,32.2 13.2,31.3 12.9,30.8 C12.6,30.3 9.4,24.5 9.4,24.5 C9.4,24.5 8.7,23.1 8.7,21.3 C8.7,20 9.1,18.4 10.4,17.1 C11.6,15.9 13,15.5 14.3,15.5 C15.6,15.5 16.7,15.9 17.5,16.4 L21.4,18.9 C21.4,18.9 22.6,19.5 23.2,18.6 C23.7,17.8 23.5,17.4 23.2,16.9"/>
<path class="Rest" transform="matrix(2.12598,0,0,2.12598,3709.62,549.212)" d="M26.73,-20.26 C25.9899,-20.5399 25.31,-20.21 24.98,-19.6 C24.65,-18.9899 21.4699,-13.06 17.0399,-9.8 C15.65,-8.77998 14.0699,-8.13994 12.5,-7.80996 C13.6199,-9.06992 14.3,-10.73 14.3,-12.55 C14.3,-16.5 11.1,-19.7 7.15,-19.7 C3.2,-19.7 0,-16.5 0,-12.55 C0,-9.53994 1.86992,-6.95996 4.50996,-5.90996 C6.03994,-5.17998 7.95,-4.73994 10,-4.73994 C12.85,-4.73994 15.96,-5.56992 18.6699,-7.55996 C19.93,-8.48994 21.13,-9.67998 22.21,-10.9399 L10.8199,24.69 L13.46,25.54 L27.53,-18.55 C27.76,-19.28 27.4699,-19.9699 26.73,-20.26"/>
<path class="Rest" transform="matrix(2.12598,0,0,2.12598,3844.43,549.212)" d="M26.73,-20.26 C25.9899,-20.5399 25.31,-20.21 24.98,-19.6 C24.65,-18.9899 21.4699,-13.06 17.0399,-9.8 C15.65,-8.77998 14.0699,-8.13994 12.5,-7.80996 C13.6199,-9.06992 14.3,-10.73 14.3,-12.55 C14.3,-16.5 11.1,-19.7 7.15,-19.7 C3.2,-19.7 0,-16.5 0,-12.55 C0,-9.53994 1.86992,-6.95996 4.50996,-5.90996 C6.03994,-5.17998 7.95,-4.73994 10,-4.73994 C12.85,-4.73994 15.96,-5.56992 18.6699,-7.55996 C19.93,-8.48994 21.13,-9.67998 22.21,-10.9399 L10.8199,24.69 L13.46,25.54 L27.53,-18.55 C27.76,-19.28 27.4699,-19.9699 26.73,-20.26"/>
<path class="Rest" transform="matrix(2.12598,0,0,2.12598,1808.58,1240.3)" d="M23.2,16.9 L23,16.6 C22.9,16.5 22.7,16.3 22.4,15.9 L10.9,1.7 C10.6,1.4 10.7,0.6 10.9,0.2 L21.1,-15.2 C21.2,-15.4 21.3,-15.7 21.3,-15.9 L21.3,-16.8 C21.3,-17.1 21.2,-17.4 21,-17.6 L4.8,-39.5 C4.8,-39.5 4,-40.7 3,-39.8 C2,-39 2.8,-37.7 2.8,-37.7 L10.4,-27.3 C10.8,-26.7 10.8,-25.5 10.4,-24.9 L0.3,-9.5 C0.2,-9.3 0.1,-8.9 0.1,-8.7 L0.1,-7.8 C0.1,-7.5 0.2,-7.2 0.4,-7 L11.6,6.9 C11.2,6.8 10.3,6.6 9.1,6.6 C7.4,6.6 5.2,7 3.4,8.6 C1.2,10.6 0,13.4 0,15.9 C0,17.3 0.3,18.7 1.1,19.8 C3.2,23 10.7,32.5 10.7,32.5 C10.7,32.5 11.6,33.6 12.5,32.9 C13.4,32.2 13.2,31.3 12.9,30.8 C12.6,30.3 9.4,24.5 9.4,24.5 C9.4,24.5 8.7,23.1 8.7,21.3 C8.7,20 9.1,18.4 10.4,17.1 C11.6,15.9 13,15.5 14.3,15.5 C15.6,15.5 16.7,15.9 17.5,16.4 L21.4,18.9 C21.4,18.9 22.6,19.5 23.2,18.6 C23.7,17.8 23.5,17.4 23.2,16.9"/>
<path class="Rest" transform="matrix(2.12598,0,0,2.12598,1963.55,1240.3)" d="M26.73,-20.26 C25.9899,-20.5399 25.31,-20.21 24.98,-19.6 C24.65,-18.9899 21.4699,-13.06 17.0399,-9.8 C15.65,-8.77998 14.0699,-8.13994 12.5,-7.80996 C13.6199,-9.06992 14.3,-10.73 14.3,-12.55 C14.3,-16.5 11.1,-19.7 7.15,-19.7 C3.2,-19.7 0,-16.5 0,-12.55 C0,-9.53994 1.86992,-6.95996 4.50996,-5.90996 C6.03994,-5.17998 7.95,-4.73994 10,-4.73994 C12.85,-4.73994 15.96,-5.56992 18.6699,-7.55996 C19.93,-8.48994 21.13,-9.67998 22.21,-10.9399 L10.8199,24.69 L13.46,25.54 L27.53,-18.55 C27.76,-19.28 27.4699,-19.9699 26.73,-20.26"/>
<path class="Rest" transform="matrix(2.12598,0,0,2.12598,2576.67,1240.3)" d="M26.73,-20.26 C25.9899,-20.5399 25.31,-20.21 24.98,-19.6 C24.65,-18.9899 21.4699,-13.06 17.0399,-9.8 C15.65,-8.77998 14.0699,-8.13994 12.5,-7.80996 C13.6199,-9.06992 14.3,-10.73 14.3,-12.55 C14.3,-16.5 11.1,-19.7 7.15,-19.7 C3.2,-19.7 0,-16.5 0,-12.55 C0,-9.53994 1.86992,-6.95996 4.50996,-5.90996 C6.03994,-5.17998 7.95,-4.73994 10,-4.73994 C12.85,-4.73994 15.96,-5.56992 18.6699,-7.55996 C19.93,-8.48994 21.13,-9.67998 22.21,-10.9399 L10.8199,24.69 L13.46,25.54 L27.53,-18.55 C27.76,-19.28 27.4699,-19.9699 26.73,-20.26"/>
<path class="Rest" transform="matrix(2.12598,0,0,2.12598,3979.24,1240.3)" d="M23.2,16.9 L23,16.6 C22.9,16.5 22.7,16.3 22.4,15.9 L10.9,1.7 C10.6,1.4 10.7,0.6 10.9,0.2 L21.1,-15.2 C21.2,-15.4 21.3,-15.7 21.3,-15.9 L21.3,-16.8 C21.3,-17.1 21.2,-17.4 21,-17.6 L4.8,-39.5 C4.8,-39.5 4,-40.7 3,-39.8 C2,-39 2.8,-37.7 2.8,-37.7 L10.4,-27.3 C10.8,-26.7 10.8,-25.5 10.4,-24.9 L0.3,-9.5 C0.2,-9.3 0.1,-8.9 0.1,-8.7 L0.1,-7.8 C0.1,-7.5 0.2,-7.2 0.4,-7 L11.6,6.9 C11.2,6.8 10.3,6.6 9.1,6.6 C7.4,6.6 5.2,7 3.4,8.6 C1.2,10.6 0,13.4 0,15.9 C0,17.3 0.3,18.7 1.1,19.8 C3.2,23 10.7,32.5 10.7,32.5 C10.7,32.5 11.6,33.6 12.5,32.9 C13.4,32.2 13.2,31.3 12.9,30.8 C12.6,30.3 9.4,24.5 9.4,24.5 C9.4,24.5 8.7,23.1 8.7,21.3 C8.7,20 9.1,18.4 10.4,17.1 C11.6,15.9 13,15.5 14.3,15.5 C15.6,15.5 16.7,15.9 17.5,16.4 L21.4,18.9 C21.4,18.9 22.6,19.5 23.2,18.6 C23.7,17.8 23.5,17.4 23.2,16.9"/>
<path class="Rest" transform="matrix(2.12598,0,0,2.12598,540.459,1931.39)" d="M23.2,16.9 L23,16.6 C22.9,16.5 22.7,16.3 22.4,15.9 L10.9,1.7 C10.6,1.4 10.7,0.6 10.9,0.2 L21.1,-15.2 C21.2,-15.4 21.3,-15.7 21.3,-15.9 L21.3,-16.8 C21.3,-17.1 21.2,-17.4 21,-17.6 L4.8,-39.5 C4.8,-39.5 4,-40.7 3,-39.8 C2,-39 2.8,-37.7 2.8,-37.7 L10.4,-27.3 C10.8,-26.7 10.8,-25.5 10.4,-24.9 L0.3,-9.5 C0.2,-9.3 0.1,-8.9 0.1,-8.7 L0.1,-7.8 C0.1,-7.5 0.2,-7.2 0.4,-7 L11.6,6.9 C11.2,6.8 10.3,6.6 9.1,6.6 C7.4,6.6 5.2,7 3.4,8.6 C1.2,10.6 0,13.4 0,15.9 C0,17.3 0.3,18.7 1.1,19.8 C3.2,23 10.7,32.5 10.7,32.5 C10.7,32.5 11.6,33.6 12.5,32.9 C13.4,32.2 13.2,31.3 12.9,30.8 C12.6,30.3 9.4,24.5 9.4,24.5 C9.4,24.5 8.7,23.1 8.7,21.3 C8.7,20 9.1,18.4 10.4,17.1 C11.6,15.9 13,15.5 14.3,15.5 C15.6,15.5 16.7,15.9 17.5,16.4 L21.4,18.9 C21.4,18.9 22.6,19.5 23.2,18.6 C23.7,17.8 23.5,17.4 23.2,16.9"/>
<path class="Rest" transform="matrix(2.12598,0,0,2.12598,2677.44,1931.39)" d="M23.2,16.9 L23,16.6 C22.9,16.5 22.7,16.3 22.4,15.9 L10.9,1.7 C10.6,1.4 10.7,0.6 10.9,0.2 L21.1,-15.2 C21.2,-15.4 21.3,-15.7 21.3,-15.9 L21.3,-16.8 C21.3,-17.1 21.2,-17.4 21,-17.6 L4.8,-39.5 C4.8,-39.5 4,-40.7 3,-39.8 C2,-39 2.8,-37.7 2.8,-37.7 L10.4,-27.3 C10.8,-26.7 10.8,-25.5 10.4,-24.9 L0.3,-9.5 C0.2,-9.3 0.1,-8.9 0.1,-8.7 L0.1,-7.8 C0.1,-7.5 0.2,-7.2 0.4,-7 L11.6,6.9 C11.2,6.8 10.3,6.6 9.1,6.6 C7.4,6.6 5.2,7 3.4,8.6 C1.2,10.6 0,13.4 0,15.9 C0,17.3 0.3,18.7 1.1,19.8 C3.2,23 10.7,32.5 10.7,32.5 C10.7,32.5 11.6,33.6 12.5,32.9 C13.4,32.2 13.2,31.3 12.9,30.8 C12.6,30.3 9.4,24.5 9.4,24.5 C9.4,24.5 8.7,23.1 8.7,21.3 C8.7,20 9.1,18.4 10.4,17.1 C11.6,15.9 13,15.5 14.3,15.5 C15.6,15.5 16.7,15.9 17.5,16.4 L21.4,18.9 C21.4,18.9 22.6,19.5 23.2,18.6 C23.7,17.8 23.5,17.4 23.2,16.9"/>
<path class="Rest" transform="matrix(2.12598,0,0,2.12598,2956.08,1931.39)" d="M23.2,16.9 L23,16.6 C22.9,16.5 22.7,16.3 22.4,15.9 L10.9,1.7 C10.6,1.4 10.7,0.6 10.9,0.2 L21.1,-15.2 C21.2,-15.4 21.3,-15.7 21.3,-15.9 L21.3,-16.8 C21.3,-17.1 21.2,-17.4 21,-17.6 L4.8,-39.5 C4.8,-39.5 4,-40.7 3,-39.8 C2,-39 2.8,-37.7 2.8,-37.7 L10.4,-27.3 C10.8,-26.7 10.8,-25.5 10.4,-24.9 L0.3,-9.5 C0.2,-9.3 0.1,-8.9 0.1,-8.7 L0.1,-7.8 C0.1,-7.5 0.2,-7.2 0.4,-7 L11.6,6.9 C11.2,6.8 10.3,6.6 9.1,6.6 C7.4,6.6 5.2,7 3.4,8.6 C1.2,10.6 0,13.4 0,15.9 C0,17.3 0.3,18.7 1.1,19.8 C3.2,23 10.7,32.5 10.7,32.5 C10.7,32.5 11.6,33.6 12.5,32.9 C13.4,32.2 13.2,31.3 12.9,30.8 C12.6,30.3 9.4,24.5 9.4,24.5 C9.4,24.5 8.7,23.1 8.7,21.3 C8.7,20 9.1,18.4 10.4,17.1 C11.6,15.9 13,15.5 14.3,15.5 C15.6,15.5 16.7,15.9 17.5,16.4 L21.4,18.9 C21.4,18.9 22.6,19.5 23.2,18.6 C23.7,17.8 23.5,17.4 23.2,16.9"/>
<path class="Rest" transform="matrix(2.12598,0,0,2.12598,3751.74,1745.37)" d="M32.3801,-1.79004 C35.7101,-4.3 38.02,-7.49004 38.02,-11.5 C38.02,-18.74 30.1301,-24.6 20.4,-24.6 C10.67,-24.6 2.78008,-18.73 2.78008,-11.5 C2.78008,-7.49004 3.78008,-3.89004 8.51006,-0.92998 C3.95,1.74004 1.5,5.4 1.5,10.17 C1.5,18.25 9.96006,24.8 20.4,24.8 C30.84,24.8 39.3,18.25 39.3,10.17 C39.29,5.4 37.5601,0.85 32.3801,-1.79004 M20.39,19.18 C14.0301,19.18 8.5,15.7 8.5,10.12 C8.5,3.42002 13.67,1.80996 13.67,1.80996 C20.47,4.07998 30.2101,7.50996 30.2101,12.97 C30.2101,15.7 26.75,19.18 20.39,19.18 M26.7801,-4.54004 C19.97,-6.65 12.49,-9.95996 12.49,-14.5 C12.49,-18.43 16.09,-19.99 20.39,-19.99 C26.55,-19.99 30.8,-17.1 30.8,-12.5 C30.8,-7.7 28.5801,-5.42002 26.7801,-4.54004"/>
<polyline class="Rest" stroke="#000000" stroke-width="37.20" stroke-linecap="square" stroke-linejoin="bevel" points="3585.25,1931.39 3998.62,1931.39"/>
<polyline class="Rest" stroke="#000000" stroke-width="10.63" stroke-linecap="square" stroke-linejoin="bevel" points="3566.65,1878.24 3566.65,1984.54"/>
<polyline class="Rest" stroke="#000000" stroke-width="10.63" stroke-linecap="square" stroke-linejoin="bevel" points="4017.22,1878.24 4017.22,1984.54"/>
<path class="Beam" fill-rule="evenodd" d="M2018.53,549.019 L2179.68,521.444 L2179.68,548.405 L2018.53,575.98 L2018.53,549.019 "/>
<path class="Beam" fill-rule="evenodd" d="M2474.24,522.42 L2626.23,550.058 L2626.23,577.068 L2474.24,549.43 L2474.24,522.42 "/>
<path class="Beam" fill-rule="evenodd" d="M588.294,1240.26 L758.896,1226.5 L758.896,1253.16 L588.294,1266.92 L588.294,1240.26 "/>
<path class="Beam" fill-rule="evenodd" d="M917.804,1266.83 L1088.41,1280.59 L1088.41,1307.25 L917.804,1293.49 L917.804,1266.83 "/>
<path class="Beam" fill-rule="evenodd" d="M2998.11,1227.01 L3178.94,1227.01 L3178.94,1253.59 L2998.11,1253.59 L2998.11,1227.01 "/>
<path class="Beam" fill-rule="evenodd" d="M3348.08,1240.26 L3528.92,1226.53 L3528.92,1253.18 L3348.08,1266.91 L3348.08,1240.26 "/>
<path class="Beam" fill-rule="evenodd" d="M822.143,1904.78 L1004.04,1918.51 L1004.04,1945.16 L822.143,1931.43 L822.143,1904.78 "/>
<path class="Hook" transform="matrix(2.12598,0,0,2.12598,3299.52,602.362)" d="M2.5,0.4 C2.5,0.2 3.4,-3.2 3.5,-3.5 C3.6,-3.9 5.4,-9.6 9.1,-15.3 C11.8,-19.5 21.3,-31.8 21,-31.8 C21,-31.8 28.4,-41.3 28.9,-54.2 L28.9,-56.5 C28.9,-62.6 28.1,-71.2 24.6,-79.9 C24.2,-80.9 23.8,-81.9 22.7,-81.5 C21.6,-81.1 21.9,-79.9 22.2,-78.8 C24,-71.8 25,-64.6 25,-57.4 C25,-49 22,-44.8 20.2,-41.7 C13.6,-30.6 5,-25.2 0.8,-23.8 C0.3,-23.6 0,-23.2 0,-22.7 L0,-16.5 L0,-0.1 C0,0.6 0.6,1.2 1.3,1.2 C1.8,1.2 2.4,0.8 2.5,0.4"/>
<path class="Hook" transform="matrix(2.12598,0,0,2.12598,3574.82,602.362)" d="M2.5,0.4 C2.5,0.2 3.4,-3.2 3.5,-3.5 C3.6,-3.9 5.4,-9.6 9.1,-15.3 C11.8,-19.5 21.3,-31.8 21,-31.8 C21,-31.8 28.4,-41.3 28.9,-54.2 L28.9,-56.5 C28.9,-62.6 28.1,-71.2 24.6,-79.9 C24.2,-80.9 23.8,-81.9 22.7,-81.5 C21.6,-81.1 21.9,-79.9 22.2,-78.8 C24,-71.8 25,-64.6 25,-57.4 C25,-49 22,-44.8 20.2,-41.7 C13.6,-30.6 5,-25.2 0.8,-23.8 C0.3,-23.6 0,-23.2 0,-22.7 L0,-16.5 L0,-0.1 C0,0.6 0.6,1.2 1.3,1.2 C1.8,1.2 2.4,0.8 2.5,0.4"/>
<path class="Hook" transform="matrix(2.12598,0,0,2.12598,3979.24,602.362)" d="M2.5,0.4 C2.5,0.2 3.4,-3.2 3.5,-3.5 C3.6,-3.9 5.4,-9.6 9.1,-15.3 C11.8,-19.5 21.3,-31.8 21,-31.8 C21,-31.8 28.4,-41.3 28.9,-54.2 L28.9,-56.5 C28.9,-62.6 28.1,-71.2 24.6,-79.9 C24.2,-80.9 23.8,-81.9 22.7,-81.5 C21.6,-81.1 21.9,-79.9 22.2,-78.8 C24,-71.8 25,-64.6 25,-57.4 C25,-49 22,-44.8 20.2,-41.7 C13.6,-30.6 5,-25.2 0.8,-23.8 C0.3,-23.6 0,-23.2 0,-22.7 L0,-16.5 L0,-0.1 C0,0.6 0.6,1.2 1.3,1.2 C1.8,1.2 2.4,0.8 2.5,0.4"/>
<path class="Hook" transform="matrix(2.12598,0,0,2.12598,2154.33,1094.14)" d="M3.5,3.5 C3.4,3.2 2.5,-0.3 2.5,-0.5 C2.4,-0.9 1.8,-1.2 1.3,-1.2 C0.6,-1.2 0,-0.6 0,0.1 L0,16.5 L0,22.7 C0,23.2 0.4,23.6 0.8,23.8 C5,25.1 13.7,30.6 20.2,41.7 C22,44.8 24.9,49 24.9,57.4 C24.9,64.6 23.8,72.2 22,79.2 C21.7,80.3 21.4,81.3 22.5,81.7 C23.6,82.1 24,81.3 24.4,80.3 C28,71.5 28.9,62.3 28.9,56.1 L28.9,54.2 C28.4,41.3 21,31.8 21,31.8 C21.3,31.8 11.8,19.5 9.1,15.3 C5.4,9.6 3.6,3.9 3.5,3.5"/>
<path class="Hook" transform="matrix(2.12598,0,0,2.12598,2704.21,1320.03)" d="M2.5,0.4 C2.5,0.2 3.4,-3.2 3.5,-3.5 C3.6,-3.9 5.4,-9.6 9.1,-15.3 C11.8,-19.5 21.3,-31.8 21,-31.8 C21,-31.8 28.4,-41.3 28.9,-54.2 L28.9,-56.5 C28.9,-62.6 28.1,-71.2 24.6,-79.9 C24.2,-80.9 23.8,-81.9 22.7,-81.5 C21.6,-81.1 21.9,-79.9 22.2,-78.8 C24,-71.8 25,-64.6 25,-57.4 C25,-49 22,-44.8 20.2,-41.7 C13.6,-30.6 5,-25.2 0.8,-23.8 C0.3,-23.6 0,-23.2 0,-22.7 L0,-16.5 L0,-0.1 C0,0.6 0.6,1.2 1.3,1.2 C1.8,1.2 2.4,0.8 2.5,0.4"/>
<path class="StaffText" d="M3494.66,1450.67 L3443.75,1450.67 L3442.47,1474.3 L3446.13,1474.3 C3446.72,1470.05 3447.4,1466.82 3448.42,1464.1 C3450.63,1457.81 3454.71,1454.67 3460.49,1454.67 C3463.3,1454.67 3464.49,1455.6 3464.49,1457.73 L3464.49,1501.59 C3464.49,1505.92 3464.49,1506.09 3463.98,1506.86 C3463.3,1507.71 3461.68,1508.05 3456.84,1508.05 L3454.63,1508.05 L3454.63,1512.04 L3483.78,1512.04 L3483.78,1508.05 L3481.57,1508.05 C3476.81,1508.05 3475.2,1507.71 3474.52,1506.86 C3474.01,1506.09 3474.01,1505.92 3474.01,1501.59 L3474.01,1457.73 C3474.01,1455.6 3475.2,1454.67 3478,1454.67 C3483.19,1454.67 3487.35,1457.56 3489.48,1462.66 C3490.75,1465.8 3491.6,1469.46 3492.28,1474.3 L3495.94,1474.3 L3494.66,1450.67 M3519.81,1482.29 L3524.74,1482.29 C3533.33,1482.63 3536.73,1486.12 3537.66,1495.47 L3538.09,1499.8 C3539.11,1509.41 3542.25,1513.32 3548.97,1513.32 C3555.94,1513.32 3559.25,1508.64 3559.51,1498.44 L3555.94,1498.44 C3555.6,1504.31 3554.58,1506.86 3552.28,1506.86 C3550.33,1506.86 3549.48,1505.41 3548.03,1499.55 L3546.67,1494.19 C3544.8,1486.37 3541.49,1482.8 3534.86,1481.1 C3547.1,1479.4 3552.96,1474.47 3552.96,1465.89 C3552.96,1456.2 3544.8,1450.67 3530.52,1450.67 L3501.11,1450.67 L3501.11,1454.67 L3502.64,1454.67 C3507.49,1454.75 3509.1,1455.01 3509.78,1455.86 C3510.29,1456.62 3510.29,1456.79 3510.29,1461.13 L3510.29,1501.67 C3510.29,1505.92 3510.29,1506.09 3509.78,1506.94 C3509.1,1507.79 3507.49,1508.05 3502.64,1508.05 L3501.11,1508.05 L3501.11,1512.04 L3528.99,1512.04 L3528.99,1508.05 L3527.46,1508.05 C3522.62,1508.05 3521,1507.79 3520.32,1506.94 C3519.81,1506.09 3519.81,1505.92 3519.81,1501.67 L3519.81,1482.29 M3519.81,1478.3 L3519.81,1459.6 C3519.64,1454.92 3520.07,1454.58 3525.68,1454.67 L3530.27,1454.67 C3538.68,1454.67 3542.51,1458.24 3542.51,1465.97 C3542.51,1470.31 3541.4,1473.62 3539.19,1475.41 C3537.07,1477.19 3533.24,1478.3 3529.16,1478.3 L3519.81,1478.3 M3595.36,1449.48 L3591.79,1449.48 L3572.24,1499.04 C3569.95,1505.67 3567.74,1507.71 3562.89,1508.05 L3562.55,1508.05 L3562.55,1512.04 L3585.08,1512.04 L3585.08,1508.05 L3583.38,1508.05 C3578.79,1508.05 3576.49,1506.43 3576.49,1503.2 C3576.49,1502.1 3576.75,1501.08 3577.26,1499.63 L3580.06,1492.15 L3602.59,1492.15 L3607.18,1503.54 C3607.69,1504.9 3607.86,1505.41 3607.86,1505.84 C3607.86,1507.2 3605.73,1508.05 3602.59,1508.05 L3599.02,1508.05 L3599.02,1512.04 L3625.37,1512.04 L3625.37,1508.05 L3624.18,1508.05 C3619.76,1507.96 3618.99,1507.45 3617.04,1502.61 L3595.36,1449.48 M3591.2,1463.42 L3600.8,1487.56 L3581.76,1487.56 L3591.2,1463.42 M3672.87,1450.16 L3669.73,1450.16 L3666.33,1455.26 C3662.25,1451.44 3656.89,1449.4 3650.86,1449.4 C3639.64,1449.4 3632.24,1456.45 3632.24,1467.16 C3632.24,1476.43 3636.83,1481.02 3649.33,1484.25 L3657.4,1486.29 C3663.69,1487.9 3664.29,1488.07 3666.07,1489.43 C3668.62,1491.39 3669.98,1494.19 3669.98,1497.51 C3669.98,1500.91 3668.71,1503.71 3666.16,1506.09 C3663.35,1508.47 3660.55,1509.41 3655.87,1509.41 C3649.58,1509.41 3645.08,1507.45 3641.08,1503.03 C3637.51,1499.12 3635.73,1495.04 3634.45,1488.5 L3630.8,1488.5 L3631.14,1512.72 L3634.45,1512.72 L3638.28,1506.94 C3643.97,1511.62 3648.65,1513.32 3656.13,1513.32 C3668.62,1513.32 3676.61,1506.01 3676.61,1494.62 C3676.61,1489.26 3674.91,1484.84 3671.51,1481.61 C3669.22,1479.4 3665.9,1477.96 3659.1,1476.26 L3650.01,1473.96 C3642.44,1472.01 3638.87,1468.69 3638.87,1463.51 C3638.87,1457.56 3643.72,1453.48 3650.94,1453.48 C3656.89,1453.48 3661.74,1456.03 3665.14,1460.87 C3667.6,1464.36 3669.22,1467.93 3670.24,1472.26 L3673.89,1472.26 L3672.87,1450.16 M3758.89,1450.08 L3755.66,1450.08 L3752.34,1455.18 C3746.82,1450.84 3743.08,1449.4 3736.87,1449.4 C3730.16,1449.4 3724.89,1451.27 3719.53,1455.6 C3711.12,1462.4 3707.21,1470.99 3707.21,1482.46 C3707.21,1491.13 3709.67,1498.36 3714.69,1503.88 C3719.96,1509.83 3727.78,1513.32 3735.94,1513.32 C3743.08,1513.32 3748.09,1511.11 3753.62,1505.58 L3756.76,1513.23 L3760.33,1513.23 L3760.33,1494.53 C3760.33,1490.2 3760.33,1490.03 3760.84,1489.26 C3761.61,1488.33 3763.14,1488.07 3767.98,1488.07 L3769.26,1488.07 L3769.26,1484.08 L3742.23,1484.08 L3742.23,1488.07 L3743.84,1488.07 C3750.98,1488.07 3751.58,1488.5 3751.58,1493.26 C3751.58,1496.91 3750.98,1500.23 3749.88,1502.27 C3747.75,1506.43 3742.31,1509.32 3736.79,1509.32 C3731.26,1509.32 3725.82,1506.52 3722.93,1502.27 C3719.79,1497.51 3718.43,1491.56 3718.43,1482.46 C3718.43,1463.51 3724.72,1453.39 3736.53,1453.39 C3746.22,1453.39 3752.94,1460.36 3756.42,1473.96 L3760.08,1473.96 L3758.89,1450.08 M3803.17,1449.4 C3795.6,1449.4 3789.14,1451.78 3783.96,1456.54 C3777.41,1462.57 3773.59,1471.75 3773.59,1481.44 C3773.59,1490.96 3777.5,1500.23 3783.96,1506.18 C3789.06,1510.85 3795.52,1513.32 3802.83,1513.32 C3819.49,1513.32 3832.07,1499.55 3832.07,1481.36 C3832.07,1463.34 3819.49,1449.4 3803.17,1449.4 M3803.08,1453.39 C3808.78,1453.39 3813.54,1456.03 3816.6,1460.7 C3819.74,1465.72 3820.85,1470.9 3820.85,1481.36 C3820.85,1491.73 3819.74,1496.91 3816.6,1502.01 C3813.54,1506.77 3808.86,1509.32 3802.83,1509.32 C3796.79,1509.32 3792.12,1506.86 3789.06,1502.01 C3785.83,1496.91 3784.81,1491.73 3784.81,1481.19 C3784.81,1470.9 3785.91,1465.8 3789.06,1460.7 C3792.2,1455.77 3796.71,1453.39 3803.08,1453.39 M3856.8,1482.29 L3861.73,1482.29 C3870.31,1482.63 3873.71,1486.12 3874.65,1495.47 L3875.07,1499.8 C3876.09,1509.41 3879.24,1513.32 3885.95,1513.32 C3892.92,1513.32 3896.24,1508.64 3896.49,1498.44 L3892.92,1498.44 C3892.58,1504.31 3891.56,1506.86 3889.27,1506.86 C3887.31,1506.86 3886.46,1505.41 3885.02,1499.55 L3883.66,1494.19 C3881.79,1486.37 3878.47,1482.8 3871.84,1481.1 C3884.08,1479.4 3889.95,1474.47 3889.95,1465.89 C3889.95,1456.2 3881.79,1450.67 3867.51,1450.67 L3838.1,1450.67 L3838.1,1454.67 L3839.63,1454.67 C3844.47,1454.75 3846.09,1455.01 3846.77,1455.86 C3847.28,1456.62 3847.28,1456.79 3847.28,1461.13 L3847.28,1501.67 C3847.28,1505.92 3847.28,1506.09 3846.77,1506.94 C3846.09,1507.79 3844.47,1508.05 3839.63,1508.05 L3838.1,1508.05 L3838.1,1512.04 L3865.98,1512.04 L3865.98,1508.05 L3864.45,1508.05 C3859.6,1508.05 3857.99,1507.79 3857.31,1506.94 C3856.8,1506.09 3856.8,1505.92 3856.8,1501.67 L3856.8,1482.29 M3856.8,1478.3 L3856.8,1459.6 C3856.63,1454.92 3857.05,1454.58 3862.66,1454.67 L3867.25,1454.67 C3875.67,1454.67 3879.49,1458.24 3879.49,1465.97 C3879.49,1470.31 3878.39,1473.62 3876.18,1475.41 C3874.05,1477.19 3870.23,1478.3 3866.15,1478.3 L3856.8,1478.3 M3930.14,1449.4 C3922.57,1449.4 3916.11,1451.78 3910.93,1456.54 C3904.38,1462.57 3900.56,1471.75 3900.56,1481.44 C3900.56,1490.96 3904.47,1500.23 3910.93,1506.18 C3916.03,1510.85 3922.49,1513.32 3929.8,1513.32 C3946.46,1513.32 3959.04,1499.55 3959.04,1481.36 C3959.04,1463.34 3946.46,1449.4 3930.14,1449.4 M3930.05,1453.39 C3935.75,1453.39 3940.51,1456.03 3943.57,1460.7 C3946.71,1465.72 3947.82,1470.9 3947.82,1481.36 C3947.82,1491.73 3946.71,1496.91 3943.57,1502.01 C3940.51,1506.77 3935.83,1509.32 3929.8,1509.32 C3923.76,1509.32 3919.09,1506.86 3916.03,1502.01 C3912.8,1496.91 3911.78,1491.73 3911.78,1481.19 C3911.78,1470.9 3912.88,1465.8 3916.03,1460.7 C3919.17,1455.77 3923.68,1453.39 3930.05,1453.39"/>
<path class="StaffText" d="M3461.17,1586.74 L3470.77,1586.74 C3478.42,1586.74 3482.42,1586.15 3485.9,1584.53 C3491.85,1581.64 3495.25,1576.2 3495.25,1569.49 C3495.25,1563.03 3492.28,1558.1 3486.67,1555.29 C3483.35,1553.59 3478.08,1552.66 3472.22,1552.66 L3442.47,1552.66 L3442.47,1556.65 L3444,1556.65 C3448.84,1556.74 3450.46,1556.99 3451.14,1557.84 C3451.65,1558.61 3451.65,1558.78 3451.65,1563.11 L3451.65,1603.57 C3451.65,1607.91 3451.65,1608.08 3451.14,1608.84 C3450.46,1609.69 3448.84,1610.03 3444,1610.03 L3442.47,1610.03 L3442.47,1614.03 L3471.03,1614.03 L3471.03,1610.03 L3468.82,1610.03 C3463.97,1610.03 3462.36,1609.69 3461.68,1608.84 C3461.17,1608.08 3461.17,1607.91 3461.17,1603.57 L3461.17,1586.74 M3461.17,1582.75 L3461.17,1560.99 C3461.17,1557.08 3461.59,1556.65 3466.35,1556.65 L3471.79,1556.65 C3480.63,1556.65 3484.8,1560.82 3484.8,1569.83 C3484.8,1578.58 3480.46,1582.75 3471.45,1582.75 L3461.17,1582.75 M3517,1584.28 L3521.93,1584.28 C3530.51,1584.62 3533.91,1588.1 3534.85,1597.45 L3535.27,1601.79 C3536.29,1611.39 3539.44,1615.3 3546.15,1615.3 C3553.12,1615.3 3556.44,1610.63 3556.69,1600.43 L3553.12,1600.43 C3552.78,1606.29 3551.76,1608.84 3549.47,1608.84 C3547.51,1608.84 3546.66,1607.4 3545.22,1601.53 L3543.86,1596.18 C3541.99,1588.36 3538.67,1584.79 3532.04,1583.09 C3544.28,1581.39 3550.15,1576.46 3550.15,1567.87 C3550.15,1558.18 3541.99,1552.66 3527.71,1552.66 L3498.3,1552.66 L3498.3,1556.65 L3499.83,1556.65 C3504.67,1556.74 3506.29,1556.99 3506.97,1557.84 C3507.48,1558.61 3507.48,1558.78 3507.48,1563.11 L3507.48,1603.66 C3507.48,1607.91 3507.48,1608.08 3506.97,1608.93 C3506.29,1609.78 3504.67,1610.03 3499.83,1610.03 L3498.3,1610.03 L3498.3,1614.03 L3526.18,1614.03 L3526.18,1610.03 L3524.65,1610.03 C3519.8,1610.03 3518.19,1609.78 3517.51,1608.93 C3517,1608.08 3517,1607.91 3517,1603.66 L3517,1584.28 M3517,1580.28 L3517,1561.58 C3516.83,1556.91 3517.25,1556.57 3522.86,1556.65 L3527.45,1556.65 C3535.87,1556.65 3539.69,1560.22 3539.69,1567.96 C3539.69,1572.29 3538.59,1575.61 3536.38,1577.39 C3534.25,1579.18 3530.43,1580.28 3526.35,1580.28 L3517,1580.28 M3592.55,1551.47 L3588.98,1551.47 L3569.43,1601.02 C3567.13,1607.65 3564.92,1609.69 3560.08,1610.03 L3559.74,1610.03 L3559.74,1614.03 L3582.26,1614.03 L3582.26,1610.03 L3580.56,1610.03 C3575.97,1610.03 3573.68,1608.42 3573.68,1605.19 C3573.68,1604.08 3573.93,1603.06 3574.44,1601.62 L3577.25,1594.14 L3599.77,1594.14 L3604.36,1605.53 C3604.87,1606.89 3605.04,1607.4 3605.04,1607.82 C3605.04,1609.18 3602.92,1610.03 3599.77,1610.03 L3596.2,1610.03 L3596.2,1614.03 L3622.55,1614.03 L3622.55,1610.03 L3621.36,1610.03 C3616.94,1609.95 3616.18,1609.44 3614.22,1604.59 L3592.55,1551.47 M3588.38,1565.41 L3597.99,1589.55 L3578.95,1589.55 L3588.38,1565.41 M3700.65,1552.06 L3697.42,1552.06 L3694.11,1557.16 C3688.58,1552.83 3684.84,1551.38 3678.64,1551.38 C3671.92,1551.38 3666.65,1553.25 3661.3,1557.59 C3652.88,1564.39 3648.97,1572.97 3648.97,1584.45 C3648.97,1593.12 3651.44,1600.34 3656.45,1605.87 C3661.72,1611.82 3669.54,1615.3 3677.7,1615.3 C3684.84,1615.3 3689.86,1613.09 3695.38,1607.57 L3698.53,1615.22 L3702.1,1615.22 L3702.1,1596.52 C3702.1,1592.18 3702.1,1592.01 3702.61,1591.25 C3703.37,1590.31 3704.9,1590.06 3709.75,1590.06 L3711.02,1590.06 L3711.02,1586.06 L3683.99,1586.06 L3683.99,1590.06 L3685.61,1590.06 C3692.75,1590.06 3693.34,1590.48 3693.34,1595.24 C3693.34,1598.9 3692.75,1602.21 3691.64,1604.25 C3689.52,1608.42 3684.08,1611.31 3678.55,1611.31 C3673.03,1611.31 3667.59,1608.5 3664.7,1604.25 C3661.55,1599.49 3660.19,1593.54 3660.19,1584.45 C3660.19,1565.49 3666.48,1555.38 3678.3,1555.38 C3687.99,1555.38 3694.7,1562.35 3698.19,1575.95 L3701.84,1575.95 L3700.65,1552.06 M3765.08,1552.66 L3713.99,1552.66 L3713.99,1556.65 L3715.52,1556.65 C3720.37,1556.74 3721.98,1556.99 3722.66,1557.84 C3723.17,1558.61 3723.17,1558.78 3723.17,1563.11 L3723.17,1603.57 C3723.17,1607.91 3723.17,1608.08 3722.66,1608.84 C3721.98,1609.69 3720.37,1610.03 3715.52,1610.03 L3713.99,1610.03 L3713.99,1614.03 L3766.18,1614.03 L3767.88,1591.33 L3764.14,1591.33 C3760.91,1606.46 3757.43,1609.69 3744.42,1610.03 L3738.81,1610.03 C3733.71,1609.86 3732.44,1609.01 3732.69,1605.95 L3732.69,1584.28 L3734.39,1584.28 C3743.15,1583.94 3746.29,1587.08 3746.63,1596.52 L3750.63,1596.52 L3750.63,1568.64 L3746.63,1568.64 C3746.12,1576.97 3742.81,1580.28 3734.73,1580.28 L3732.69,1580.28 L3732.69,1560.9 C3732.61,1557.33 3733.46,1556.74 3738.05,1556.65 L3742.47,1556.65 C3756.41,1556.57 3759.89,1559.63 3762.61,1574.33 L3766.27,1574.33 L3765.08,1552.66 M3792.01,1552.66 L3774.5,1552.66 L3774.5,1556.65 L3776.63,1556.65 C3781.47,1556.82 3783.09,1557.42 3784.45,1559.46 L3784.45,1595.58 C3784.45,1607.14 3782.83,1609.61 3774.59,1610.03 L3774.59,1614.03 L3798.81,1614.03 L3798.81,1610.03 C3790.65,1609.61 3789.04,1607.14 3789.04,1595.58 L3789.04,1564.05 L3826.95,1615.22 L3830.52,1615.22 L3830.52,1571.1 C3830.52,1559.54 3832.13,1557.08 3840.38,1556.65 L3840.38,1552.66 L3816.15,1552.66 L3816.15,1556.65 C3824.31,1557.08 3825.93,1559.46 3825.93,1571.1 L3825.93,1597.79 L3792.01,1552.66 M3897.49,1552.66 L3846.57,1552.66 L3845.3,1576.29 L3848.95,1576.29 C3849.55,1572.04 3850.23,1568.81 3851.25,1566.09 C3853.46,1559.8 3857.54,1556.65 3863.32,1556.65 C3866.12,1556.65 3867.31,1557.59 3867.31,1559.71 L3867.31,1603.57 C3867.31,1607.91 3867.31,1608.08 3866.8,1608.84 C3866.12,1609.69 3864.51,1610.03 3859.66,1610.03 L3857.45,1610.03 L3857.45,1614.03 L3886.61,1614.03 L3886.61,1610.03 L3884.4,1610.03 C3879.64,1610.03 3878.02,1609.69 3877.34,1608.84 C3876.83,1608.08 3876.83,1607.91 3876.83,1603.57 L3876.83,1559.71 C3876.83,1557.59 3878.02,1556.65 3880.83,1556.65 C3886.01,1556.65 3890.18,1559.54 3892.3,1564.64 C3893.58,1567.79 3894.43,1571.44 3895.11,1576.29 L3898.76,1576.29 L3897.49,1552.66 M3955.11,1552.66 L3904.02,1552.66 L3904.02,1556.65 L3905.55,1556.65 C3910.4,1556.74 3912.01,1556.99 3912.69,1557.84 C3913.2,1558.61 3913.2,1558.78 3913.2,1563.11 L3913.2,1603.57 C3913.2,1607.91 3913.2,1608.08 3912.69,1608.84 C3912.01,1609.69 3910.4,1610.03 3905.55,1610.03 L3904.02,1610.03 L3904.02,1614.03 L3956.21,1614.03 L3957.91,1591.33 L3954.17,1591.33 C3950.94,1606.46 3947.46,1609.69 3934.45,1610.03 L3928.84,1610.03 C3923.74,1609.86 3922.47,1609.01 3922.72,1605.95 L3922.72,1584.28 L3924.42,1584.28 C3933.18,1583.94 3936.32,1587.08 3936.66,1596.52 L3940.66,1596.52 L3940.66,1568.64 L3936.66,1568.64 C3936.15,1576.97 3932.84,1580.28 3924.76,1580.28 L3922.72,1580.28 L3922.72,1560.9 C3922.64,1557.33 3923.49,1556.74 3928.08,1556.65 L3932.5,1556.65 C3946.44,1556.57 3949.92,1559.63 3952.64,1574.33 L3956.3,1574.33 L3955.11,1552.66 "/>
<path class="NoteDot" transform="matrix(2.12598,0,0,2.12598,3115.42,522.638)" d="M0,-0.00166016 C0,2.75977 2.23857,4.99834 5,4.99834 C7.76143,4.99834 10,2.75977 10,-0.00166016 C10,-2.76309 7.76143,-5.00166 5,-5.00166 C2.23857,-5.00166 0,-2.76309 0,-0.00166016"/>
</svg>
