<?xml version="1.0" encoding="UTF-8" standalone="no"?>
<svg width="4208.47px" height="2409.45px" viewBox="0 0 4208.47 2409.45"
 xmlns="http://www.w3.org/2000/svg" xmlns:xlink="http://www.w3.org/1999/xlink" version="1.2" baseProfile="tiny">
<title>SAX TENOR</title>
<desc>Generated by MuseScore 3.6.2</desc>
<polyline class="StaffLines" fill="none" stroke="#000000" stroke-width="4.91" stroke-linejoin="bevel" points="70.866,383.386 4137.61,383.386"/>
<polyline class="StaffLines" fill="none" stroke="#000000" stroke-width="4.91" stroke-linejoin="bevel" points="70.866,428.031 4137.61,428.031"/>
<polyline class="StaffLines" fill="none" stroke="#000000" stroke-width="4.91" stroke-linejoin="bevel" points="70.866,472.677 4137.61,472.677"/>
<polyline class="StaffLines" fill="none" stroke="#000000" stroke-width="4.91" stroke-linejoin="bevel" points="70.866,517.323 4137.61,517.323"/>
<polyline class="StaffLines" fill="none" stroke="#000000" stroke-width="4.91" stroke-linejoin="bevel" points="70.866,561.968 4137.61,561.968"/>
<polyline class="StaffLines" fill="none" stroke="#000000" stroke-width="4.91" stroke-linejoin="bevel" points="70.866,1217.83 4137.61,1217.83"/>
<polyline class="StaffLines" fill="none" stroke="#000000" stroke-width="4.91" stroke-linejoin="bevel" points="70.866,1262.48 4137.61,1262.48"/>
<polyline class="StaffLines" fill="none" stroke="#000000" stroke-width="4.91" stroke-linejoin="bevel" points="70.866,1307.13 4137.61,1307.13"/>
<polyline class="StaffLines" fill="none" stroke="#000000" stroke-width="4.91" stroke-linejoin="bevel" points="70.866,1351.77 4137.61,1351.77"/>
<polyline class="StaffLines" fill="none" stroke="#000000" stroke-width="4.91" stroke-linejoin="bevel" points="70.866,1396.42 4137.61,1396.42"/>
<polyline class="StaffLines" fill="none" stroke="#000000" stroke-width="4.91" stroke-linejoin="bevel" points="70.866,2052.28 4137.61,2052.28"/>
<polyline class="StaffLines" fill="none" stroke="#000000" stroke-width="4.91" stroke-linejoin="bevel" points="70.866,2096.93 4137.61,2096.93"/>
<polyline class="StaffLines" fill="none" stroke="#000000" stroke-width="4.91" stroke-linejoin="bevel" points="70.866,2141.57 4137.61,2141.57"/>
<polyline class="StaffLines" fill="none" stroke="#000000" stroke-width="4.91" stroke-linejoin="bevel" points="70.866,2186.22 4137.61,2186.22"/>
<polyline class="StaffLines" fill="none" stroke="#000000" stroke-width="4.91" stroke-linejoin="bevel" points="70.866,2230.86 4137.61,2230.86"/>
<path class="MeasureNumber" d="M90.556,1100.38 C88.436,1100.62 85.836,1100.78 83.596,1100.78 C82.476,1100.78 81.196,1100.74 79.756,1100.66 C78.436,1100.58 77.116,1100.5 75.756,1100.42 L74.756,1100.38 L70.876,1108.82 L72.356,1109.3 L73.316,1107.7 C75.196,1104.58 76.076,1104.14 80.156,1104.18 L86.916,1104.18 L82.556,1110.42 C77.436,1117.62 77.436,1117.62 75.476,1120.82 C73.716,1123.66 72.996,1125.42 72.996,1126.86 C72.996,1128.26 73.876,1129.14 75.276,1129.14 C76.756,1129.14 77.516,1128.42 78.036,1126.54 C80.036,1119.02 81.236,1116.42 86.796,1107.42 L90.556,1101.58 L90.556,1100.38 "/>
<path class="MeasureNumber" d="M87.226,1934.67 L86.066,1934.67 C83.866,1936.31 79.626,1937.71 76.746,1937.71 L76.266,1939.47 L79.026,1939.47 C81.466,1939.47 81.746,1939.55 81.746,1940.27 C81.746,1940.63 81.746,1940.63 81.346,1942.07 L77.066,1958.07 C76.546,1960.07 76.506,1960.19 76.146,1960.55 C75.746,1960.95 74.906,1961.07 72.786,1961.11 L71.066,1961.11 L70.866,1962.99 L85.666,1962.99 L85.906,1961.11 L83.746,1961.11 C81.146,1961.11 80.586,1960.91 80.586,1960.03 C80.586,1959.75 80.746,1958.83 80.946,1958.07 L87.226,1934.67 M104.7,1948.43 C106.58,1947.83 107.34,1947.51 108.3,1946.87 C110.18,1945.63 111.34,1943.43 111.34,1941.19 C111.34,1937.39 108.3,1934.83 103.82,1934.83 C99.4604,1934.83 95.7804,1937.55 95.7804,1940.83 C95.7804,1942.47 96.7804,1943.59 98.3004,1943.59 C99.6204,1943.59 100.58,1942.63 100.58,1941.31 C100.58,1940.63 100.38,1940.15 99.7404,1939.51 C99.3404,1939.15 99.1804,1938.87 99.1804,1938.59 C99.1804,1937.63 101.18,1936.63 103.06,1936.63 C105.74,1936.63 107.34,1938.11 107.34,1940.59 C107.34,1944.15 104.82,1947.51 102.14,1947.51 C102.02,1947.51 101.66,1947.47 101.22,1947.43 C100.06,1947.35 100.06,1947.35 99.8204,1947.35 C98.9404,1947.35 98.4604,1947.75 98.4604,1948.47 C98.4604,1949.11 98.9004,1949.51 99.6204,1949.51 C99.8204,1949.51 100.1,1949.47 100.42,1949.43 C100.98,1949.31 101.58,1949.27 101.94,1949.27 C103.82,1949.27 105.1,1950.95 105.1,1953.43 C105.1,1955.35 104.66,1957.19 103.78,1958.71 C102.58,1960.87 100.74,1961.91 98.1404,1961.91 C95.9004,1961.91 93.9804,1960.79 93.9804,1959.51 C93.9804,1959.07 94.1404,1958.91 94.7804,1958.63 C95.9404,1958.11 96.4204,1957.39 96.4204,1956.31 C96.4204,1954.91 95.3004,1953.83 93.8604,1953.83 C92.1404,1953.83 91.0204,1955.19 91.0204,1957.27 C91.0204,1961.15 93.9804,1963.59 98.7804,1963.59 C104.82,1963.59 109.42,1959.55 109.42,1954.19 C109.42,1952.75 108.98,1951.51 108.14,1950.51 C107.26,1949.47 106.46,1948.99 104.7,1948.43"/>
<polyline class="BarLine" fill="none" stroke="#000000" stroke-width="8.04" stroke-linejoin="bevel" points="784.676,380.93 784.676,564.424"/>
<polyline class="BarLine" fill="none" stroke="#000000" stroke-width="8.04" stroke-linejoin="bevel" points="809.231,380.93 809.231,564.424"/>
<polyline class="BarLine" fill="none" stroke="#000000" stroke-width="8.04" stroke-linejoin="bevel" points="1540.81,380.93 1540.81,564.424"/>
<polyline class="BarLine" fill="none" stroke="#000000" stroke-width="8.04" stroke-linejoin="bevel" points="2201.38,380.93 2201.38,564.424"/>
<polyline class="BarLine" fill="none" stroke="#000000" stroke-width="8.04" stroke-linejoin="bevel" points="2932.96,380.93 2932.96,564.424"/>
<polyline class="BarLine" fill="none" stroke="#000000" stroke-width="8.04" stroke-linejoin="bevel" points="3402.01,380.93 3402.01,564.424"/>
<polyline class="BarLine" fill="none" stroke="#000000" stroke-width="8.04" stroke-linejoin="bevel" points="4133.59,380.93 4133.59,564.424"/>
<polyline class="BarLine" fill="none" stroke="#000000" stroke-width="8.04" stroke-linejoin="bevel" points="931.731,1215.38 931.731,1398.87"/>
<polyline class="BarLine" fill="none" stroke="#000000" stroke-width="8.04" stroke-linejoin="bevel" points="1664.07,1215.38 1664.07,1398.87"/>
<polyline class="BarLine" fill="none" stroke="#000000" stroke-width="24.56" stroke-linejoin="bevel" points="2404.66,1215.38 2404.66,1398.87"/>
<polyline class="BarLine" fill="none" stroke="#000000" stroke-width="8.04" stroke-linejoin="bevel" points="2435.92,1215.38 2435.92,1398.87"/>
<path class="BarLine" transform="matrix(1.78583,0,0,1.78583,2457.88,1284.8)" d="M10.4,0 C10.4,-2.9 8.1,-5.3 5.2,-5.3 C2.3,-5.3 0,-2.9 0,0 C0,2.9 2.3,5.3 5.2,5.3 C8.1,5.3 10.4,2.9 10.4,0"/>
<path class="BarLine" transform="matrix(1.78583,0,0,1.78583,2457.88,1329.45)" d="M10.4,0 C10.4,-2.9 8.1,-5.3 5.2,-5.3 C2.3,-5.3 0,-2.9 0,0 C0,2.9 2.3,5.3 5.2,5.3 C8.1,5.3 10.4,2.9 10.4,0"/>
<polyline class="BarLine" fill="none" stroke="#000000" stroke-width="8.04" stroke-linejoin="bevel" points="2997.09,1215.38 2997.09,1398.87"/>
<polyline class="BarLine" fill="none" stroke="#000000" stroke-width="8.04" stroke-linejoin="bevel" points="3604.84,1215.38 3604.84,1398.87"/>
<polyline class="BarLine" fill="none" stroke="#000000" stroke-width="8.04" stroke-linejoin="bevel" points="4133.59,1215.38 4133.59,1398.87"/>
<polyline class="BarLine" fill="none" stroke="#000000" stroke-width="8.04" stroke-linejoin="bevel" points="901.511,2049.83 901.511,2233.32"/>
<polyline class="BarLine" fill="none" stroke="#000000" stroke-width="8.04" stroke-linejoin="bevel" points="1489.14,2049.83 1489.14,2233.32"/>
<polyline class="BarLine" fill="none" stroke="#000000" stroke-width="8.04" stroke-linejoin="bevel" points="2191.26,2049.83 2191.26,2233.32"/>
<polyline class="BarLine" fill="none" stroke="#000000" stroke-width="8.04" stroke-linejoin="bevel" points="2215.82,2049.83 2215.82,2233.32"/>
<polyline class="BarLine" fill="none" stroke="#000000" stroke-width="8.04" stroke-linejoin="bevel" points="2767.92,2049.83 2767.92,2233.32"/>
<path class="BarLine" transform="matrix(1.78583,0,0,1.78583,3466.01,2119.25)" d="M10.4,0 C10.4,-2.9 8.1,-5.3 5.2,-5.3 C2.3,-5.3 0,-2.9 0,0 C0,2.9 2.3,5.3 5.2,5.3 C8.1,5.3 10.4,2.9 10.4,0"/>
<path class="BarLine" transform="matrix(1.78583,0,0,1.78583,3466.01,2163.9)" d="M10.4,0 C10.4,-2.9 8.1,-5.3 5.2,-5.3 C2.3,-5.3 0,-2.9 0,0 C0,2.9 2.3,5.3 5.2,5.3 C8.1,5.3 10.4,2.9 10.4,0"/>
<polyline class="BarLine" fill="none" stroke="#000000" stroke-width="8.04" stroke-linejoin="bevel" points="3506.55,2049.83 3506.55,2233.32"/>
<polyline class="BarLine" fill="none" stroke="#000000" stroke-width="24.56" stroke-linejoin="bevel" points="3537.8,2049.83 3537.8,2233.32"/>
<polyline class="BarLine" fill="none" stroke="#000000" stroke-width="8.04" stroke-linejoin="bevel" points="4094.08,2049.83 4094.08,2233.32"/>
<polyline class="BarLine" fill="none" stroke="#000000" stroke-width="24.56" stroke-linejoin="bevel" points="4125.33,2049.83 4125.33,2233.32"/>
<path class="Accidental" transform="matrix(1.78583,0,0,1.78583,1055.21,450.354)" d="M23.3,-10.6 C23.9,-10.7 24.4,-11.4 24.4,-12 L24.4,-17.9 C24.4,-18.7 23.8,-19.3 23,-19.3 L22.8,-19.3 L19.5,-18.6 L19.5,-33.5 L16.7,-33.5 L16.7,-18 L7.8,-16.2 L7.8,-30.3 L5,-30.3 L5,-15.6 L1.1,-14.8 C0.5,-14.7 0,-14 0,-13.4 L0,-13.2 L0,-7.4 L0,-7.6 C0,-6.8 0.6,-6.2 1.4,-6.2 L1.7,-6.2 L5,-6.9 L5,9.6 L1.1,10.4 C0.5,10.5 0,11.2 0,11.8 L0,17.6 C0,18.4 0.6,19 1.4,19 L1.7,19 L5,18.3 L5,33.2 L7.8,33.2 L7.8,17.7 L16.7,15.9 L16.7,30 L19.5,30 L19.5,15.3 L23.3,14.6 C23.9,14.5 24.4,13.8 24.4,13.2 L24.4,7.3 C24.4,6.5 23.8,5.9 23,5.9 L22.8,5.9 L19.5,6.6 L19.5,-9.9 L23.3,-10.6 M7.8,9.1 L7.8,-7.5 L16.7,-9.3 L16.7,7.2 L7.8,9.1 "/>
<path class="Accidental" transform="matrix(1.78583,0,0,1.78583,2731.92,450.354)" d="M23.3,-10.6 C23.9,-10.7 24.4,-11.4 24.4,-12 L24.4,-17.9 C24.4,-18.7 23.8,-19.3 23,-19.3 L22.8,-19.3 L19.5,-18.6 L19.5,-33.5 L16.7,-33.5 L16.7,-18 L7.8,-16.2 L7.8,-30.3 L5,-30.3 L5,-15.6 L1.1,-14.8 C0.5,-14.7 0,-14 0,-13.4 L0,-13.2 L0,-7.4 L0,-7.6 C0,-6.8 0.6,-6.2 1.4,-6.2 L1.7,-6.2 L5,-6.9 L5,9.6 L1.1,10.4 C0.5,10.5 0,11.2 0,11.8 L0,17.6 C0,18.4 0.6,19 1.4,19 L1.7,19 L5,18.3 L5,33.2 L7.8,33.2 L7.8,17.7 L16.7,15.9 L16.7,30 L19.5,30 L19.5,15.3 L23.3,14.6 C23.9,14.5 24.4,13.8 24.4,13.2 L24.4,7.3 C24.4,6.5 23.8,5.9 23,5.9 L22.8,5.9 L19.5,6.6 L19.5,-9.9 L23.3,-10.6 M7.8,9.1 L7.8,-7.5 L16.7,-9.3 L16.7,7.2 L7.8,9.1 "/>
<path class="Accidental" transform="matrix(1.78583,0,0,1.78583,3647.99,450.354)" d="M23.3,-10.6 C23.9,-10.7 24.4,-11.4 24.4,-12 L24.4,-17.9 C24.4,-18.7 23.8,-19.3 23,-19.3 L22.8,-19.3 L19.5,-18.6 L19.5,-33.5 L16.7,-33.5 L16.7,-18 L7.8,-16.2 L7.8,-30.3 L5,-30.3 L5,-15.6 L1.1,-14.8 C0.5,-14.7 0,-14 0,-13.4 L0,-13.2 L0,-7.4 L0,-7.6 C0,-6.8 0.6,-6.2 1.4,-6.2 L1.7,-6.2 L5,-6.9 L5,9.6 L1.1,10.4 C0.5,10.5 0,11.2 0,11.8 L0,17.6 C0,18.4 0.6,19 1.4,19 L1.7,19 L5,18.3 L5,33.2 L7.8,33.2 L7.8,17.7 L16.7,15.9 L16.7,30 L19.5,30 L19.5,15.3 L23.3,14.6 C23.9,14.5 24.4,13.8 24.4,13.2 L24.4,7.3 C24.4,6.5 23.8,5.9 23,5.9 L22.8,5.9 L19.5,6.6 L19.5,-9.9 L23.3,-10.6 M7.8,9.1 L7.8,-7.5 L16.7,-9.3 L16.7,7.2 L7.8,9.1 "/>
<path class="Accidental" transform="matrix(1.78583,0,0,1.78583,1462.78,1284.8)" d="M23.3,-10.6 C23.9,-10.7 24.4,-11.4 24.4,-12 L24.4,-17.9 C24.4,-18.7 23.8,-19.3 23,-19.3 L22.8,-19.3 L19.5,-18.6 L19.5,-33.5 L16.7,-33.5 L16.7,-18 L7.8,-16.2 L7.8,-30.3 L5,-30.3 L5,-15.6 L1.1,-14.8 C0.5,-14.7 0,-14 0,-13.4 L0,-13.2 L0,-7.4 L0,-7.6 C0,-6.8 0.6,-6.2 1.4,-6.2 L1.7,-6.2 L5,-6.9 L5,9.6 L1.1,10.4 C0.5,10.5 0,11.2 0,11.8 L0,17.6 C0,18.4 0.6,19 1.4,19 L1.7,19 L5,18.3 L5,33.2 L7.8,33.2 L7.8,17.7 L16.7,15.9 L16.7,30 L19.5,30 L19.5,15.3 L23.3,14.6 C23.9,14.5 24.4,13.8 24.4,13.2 L24.4,7.3 C24.4,6.5 23.8,5.9 23,5.9 L22.8,5.9 L19.5,6.6 L19.5,-9.9 L23.3,-10.6 M7.8,9.1 L7.8,-7.5 L16.7,-9.3 L16.7,7.2 L7.8,9.1 "/>
<path class="Accidental" transform="matrix(1.78583,0,0,1.78583,2195.12,1284.8)" d="M23.3,-10.6 C23.9,-10.7 24.4,-11.4 24.4,-12 L24.4,-17.9 C24.4,-18.7 23.8,-19.3 23,-19.3 L22.8,-19.3 L19.5,-18.6 L19.5,-33.5 L16.7,-33.5 L16.7,-18 L7.8,-16.2 L7.8,-30.3 L5,-30.3 L5,-15.6 L1.1,-14.8 C0.5,-14.7 0,-14 0,-13.4 L0,-13.2 L0,-7.4 L0,-7.6 C0,-6.8 0.6,-6.2 1.4,-6.2 L1.7,-6.2 L5,-6.9 L5,9.6 L1.1,10.4 C0.5,10.5 0,11.2 0,11.8 L0,17.6 C0,18.4 0.6,19 1.4,19 L1.7,19 L5,18.3 L5,33.2 L7.8,33.2 L7.8,17.7 L16.7,15.9 L16.7,30 L19.5,30 L19.5,15.3 L23.3,14.6 C23.9,14.5 24.4,13.8 24.4,13.2 L24.4,7.3 C24.4,6.5 23.8,5.9 23,5.9 L22.8,5.9 L19.5,6.6 L19.5,-9.9 L23.3,-10.6 M7.8,9.1 L7.8,-7.5 L16.7,-9.3 L16.7,7.2 L7.8,9.1 "/>
<path class="Accidental" transform="matrix(1.78583,0,0,1.78583,997.945,2119.25)" d="M23.3,-10.6 C23.9,-10.7 24.4,-11.4 24.4,-12 L24.4,-17.9 C24.4,-18.7 23.8,-19.3 23,-19.3 L22.8,-19.3 L19.5,-18.6 L19.5,-33.5 L16.7,-33.5 L16.7,-18 L7.8,-16.2 L7.8,-30.3 L5,-30.3 L5,-15.6 L1.1,-14.8 C0.5,-14.7 0,-14 0,-13.4 L0,-13.2 L0,-7.4 L0,-7.6 C0,-6.8 0.6,-6.2 1.4,-6.2 L1.7,-6.2 L5,-6.9 L5,9.6 L1.1,10.4 C0.5,10.5 0,11.2 0,11.8 L0,17.6 C0,18.4 0.6,19 1.4,19 L1.7,19 L5,18.3 L5,33.2 L7.8,33.2 L7.8,17.7 L16.7,15.9 L16.7,30 L19.5,30 L19.5,15.3 L23.3,14.6 C23.9,14.5 24.4,13.8 24.4,13.2 L24.4,7.3 C24.4,6.5 23.8,5.9 23,5.9 L22.8,5.9 L19.5,6.6 L19.5,-9.9 L23.3,-10.6 M7.8,9.1 L7.8,-7.5 L16.7,-9.3 L16.7,7.2 L7.8,9.1 "/>
<path class="Accidental" transform="matrix(1.78583,0,0,1.78583,1982.19,2119.25)" d="M23.3,-10.6 C23.9,-10.7 24.4,-11.4 24.4,-12 L24.4,-17.9 C24.4,-18.7 23.8,-19.3 23,-19.3 L22.8,-19.3 L19.5,-18.6 L19.5,-33.5 L16.7,-33.5 L16.7,-18 L7.8,-16.2 L7.8,-30.3 L5,-30.3 L5,-15.6 L1.1,-14.8 C0.5,-14.7 0,-14 0,-13.4 L0,-13.2 L0,-7.4 L0,-7.6 C0,-6.8 0.6,-6.2 1.4,-6.2 L1.7,-6.2 L5,-6.9 L5,9.6 L1.1,10.4 C0.5,10.5 0,11.2 0,11.8 L0,17.6 C0,18.4 0.6,19 1.4,19 L1.7,19 L5,18.3 L5,33.2 L7.8,33.2 L7.8,17.7 L16.7,15.9 L16.7,30 L19.5,30 L19.5,15.3 L23.3,14.6 C23.9,14.5 24.4,13.8 24.4,13.2 L24.4,7.3 C24.4,6.5 23.8,5.9 23,5.9 L22.8,5.9 L19.5,6.6 L19.5,-9.9 L23.3,-10.6 M7.8,9.1 L7.8,-7.5 L16.7,-9.3 L16.7,7.2 L7.8,9.1 "/>
<path class="Accidental" transform="matrix(1.78583,0,0,1.78583,3260.96,2119.25)" d="M23.3,-10.6 C23.9,-10.7 24.4,-11.4 24.4,-12 L24.4,-17.9 C24.4,-18.7 23.8,-19.3 23,-19.3 L22.8,-19.3 L19.5,-18.6 L19.5,-33.5 L16.7,-33.5 L16.7,-18 L7.8,-16.2 L7.8,-30.3 L5,-30.3 L5,-15.6 L1.1,-14.8 C0.5,-14.7 0,-14 0,-13.4 L0,-13.2 L0,-7.4 L0,-7.6 C0,-6.8 0.6,-6.2 1.4,-6.2 L1.7,-6.2 L5,-6.9 L5,9.6 L1.1,10.4 C0.5,10.5 0,11.2 0,11.8 L0,17.6 C0,18.4 0.6,19 1.4,19 L1.7,19 L5,18.3 L5,33.2 L7.8,33.2 L7.8,17.7 L16.7,15.9 L16.7,30 L19.5,30 L19.5,15.3 L23.3,14.6 C23.9,14.5 24.4,13.8 24.4,13.2 L24.4,7.3 C24.4,6.5 23.8,5.9 23,5.9 L22.8,5.9 L19.5,6.6 L19.5,-9.9 L23.3,-10.6 M7.8,9.1 L7.8,-7.5 L16.7,-9.3 L16.7,7.2 L7.8,9.1 "/>
<polyline class="Stem" fill="none" stroke="#000000" stroke-width="4.91" stroke-linejoin="bevel" points="658.119,501 658.119,651.26"/>
<polyline class="Stem" fill="none" stroke="#000000" stroke-width="4.91" stroke-linejoin="bevel" points="927.318,434.032 927.318,561.968"/>
<polyline class="Stem" fill="none" stroke="#000000" stroke-width="4.91" stroke-linejoin="bevel" points="1112.4,456.355 1112.4,573.13"/>
<polyline class="Stem" fill="none" stroke="#000000" stroke-width="4.91" stroke-linejoin="bevel" points="1254.68,478.677 1254.68,606.614"/>
<polyline class="Stem" fill="none" stroke="#000000" stroke-width="4.91" stroke-linejoin="bevel" points="1396.97,501 1396.97,617.775"/>
<polyline class="Stem" fill="none" stroke="#000000" stroke-width="4.91" stroke-linejoin="bevel" points="1658.9,478.677 1658.9,606.614"/>
<polyline class="Stem" fill="none" stroke="#000000" stroke-width="4.91" stroke-linejoin="bevel" points="1794.13,501 1794.13,617.775"/>
<polyline class="Stem" fill="none" stroke="#000000" stroke-width="4.91" stroke-linejoin="bevel" points="1929.36,501 1929.36,617.775"/>
<polyline class="Stem" fill="none" stroke="#000000" stroke-width="4.91" stroke-linejoin="bevel" points="2064.59,501 2064.59,617.775"/>
<polyline class="Stem" fill="none" stroke="#000000" stroke-width="4.91" stroke-linejoin="bevel" points="2319.47,478.677 2319.47,606.614"/>
<polyline class="Stem" fill="none" stroke="#000000" stroke-width="4.91" stroke-linejoin="bevel" points="2461.75,501 2461.75,617.775"/>
<polyline class="Stem" fill="none" stroke="#000000" stroke-width="4.91" stroke-linejoin="bevel" points="2604.03,478.677 2604.03,606.614"/>
<polyline class="Stem" fill="none" stroke="#000000" stroke-width="4.91" stroke-linejoin="bevel" points="2789.11,456.355 2789.11,595.453"/>
<polyline class="Stem" fill="none" stroke="#000000" stroke-width="4.91" stroke-linejoin="bevel" points="3051.04,434.032 3051.04,578.71"/>
<polyline class="Stem" fill="none" stroke="#000000" stroke-width="4.91" stroke-linejoin="bevel" points="3275.45,501 3275.45,651.26"/>
<polyline class="Stem" fill="none" stroke="#000000" stroke-width="4.91" stroke-linejoin="bevel" points="3520.1,434.032 3520.1,561.968"/>
<polyline class="Stem" fill="none" stroke="#000000" stroke-width="4.91" stroke-linejoin="bevel" points="3705.18,456.355 3705.18,573.13"/>
<polyline class="Stem" fill="none" stroke="#000000" stroke-width="4.91" stroke-linejoin="bevel" points="3847.46,478.677 3847.46,606.614"/>
<polyline class="Stem" fill="none" stroke="#000000" stroke-width="4.91" stroke-linejoin="bevel" points="3989.74,501 3989.74,617.775"/>
<polyline class="Stem" fill="none" stroke="#000000" stroke-width="4.91" stroke-linejoin="bevel" points="388.492,1313.13 388.492,1441.06"/>
<polyline class="Stem" fill="none" stroke="#000000" stroke-width="4.91" stroke-linejoin="bevel" points="523.911,1335.45 523.911,1452.22"/>
<polyline class="Stem" fill="none" stroke="#000000" stroke-width="4.91" stroke-linejoin="bevel" points="659.33,1335.45 659.33,1452.22"/>
<polyline class="Stem" fill="none" stroke="#000000" stroke-width="4.91" stroke-linejoin="bevel" points="794.749,1335.45 794.749,1452.22"/>
<polyline class="Stem" fill="none" stroke="#000000" stroke-width="4.91" stroke-linejoin="bevel" points="1049.82,1313.13 1049.82,1441.06"/>
<polyline class="Stem" fill="none" stroke="#000000" stroke-width="4.91" stroke-linejoin="bevel" points="1192.35,1335.45 1192.35,1452.22"/>
<polyline class="Stem" fill="none" stroke="#000000" stroke-width="4.91" stroke-linejoin="bevel" points="1334.89,1313.13 1334.89,1441.06"/>
<polyline class="Stem" fill="none" stroke="#000000" stroke-width="4.91" stroke-linejoin="bevel" points="1519.97,1290.8 1519.97,1429.9"/>
<polyline class="Stem" fill="none" stroke="#000000" stroke-width="4.91" stroke-linejoin="bevel" points="1782.15,1268.48 1782.15,1407.58"/>
<polyline class="Stem" fill="none" stroke="#000000" stroke-width="4.91" stroke-linejoin="bevel" points="1924.69,1335.45 1924.69,1452.22"/>
<polyline class="Stem" fill="none" stroke="#000000" stroke-width="4.91" stroke-linejoin="bevel" points="2067.22,1313.13 2067.22,1441.06"/>
<polyline class="Stem" fill="none" stroke="#000000" stroke-width="4.91" stroke-linejoin="bevel" points="2252.31,1290.8 2252.31,1429.9"/>
<polyline class="Stem" fill="none" stroke="#000000" stroke-width="4.91" stroke-linejoin="bevel" points="2586.44,1268.48 2586.44,1413.16"/>
<polyline class="Stem" fill="none" stroke="#000000" stroke-width="4.91" stroke-linejoin="bevel" points="2750.01,1268.48 2750.01,1396.42"/>
<polyline class="Stem" fill="none" stroke="#000000" stroke-width="4.91" stroke-linejoin="bevel" points="2870.54,1268.48 2870.54,1396.42"/>
<polyline class="Stem" fill="none" stroke="#000000" stroke-width="4.91" stroke-linejoin="bevel" points="3197.02,1335.45 3197.02,1485.71"/>
<polyline class="Stem" fill="none" stroke="#000000" stroke-width="4.91" stroke-linejoin="bevel" points="3332.44,1313.13 3332.44,1441.06"/>
<polyline class="Stem" fill="none" stroke="#000000" stroke-width="4.91" stroke-linejoin="bevel" points="3467.86,1335.45 3467.86,1452.22"/>
<polyline class="Stem" fill="none" stroke="#000000" stroke-width="4.91" stroke-linejoin="bevel" points="3722.93,1313.13 3722.93,1446.64"/>
<polyline class="Stem" fill="none" stroke="#000000" stroke-width="4.91" stroke-linejoin="bevel" points="3886.5,1313.13 3886.5,1441.06"/>
<polyline class="Stem" fill="none" stroke="#000000" stroke-width="4.91" stroke-linejoin="bevel" points="4007.03,1313.13 4007.03,1441.06"/>
<polyline class="Stem" fill="none" stroke="#000000" stroke-width="4.91" stroke-linejoin="bevel" points="476.175,2169.9 476.175,2320.16"/>
<polyline class="Stem" fill="none" stroke="#000000" stroke-width="4.91" stroke-linejoin="bevel" points="617.433,2080.61 617.433,2219.7"/>
<polyline class="Stem" fill="none" stroke="#000000" stroke-width="4.91" stroke-linejoin="bevel" points="758.69,2102.93 758.69,2230.86"/>
<polyline class="Stem" fill="none" stroke="#000000" stroke-width="4.91" stroke-linejoin="bevel" points="1055.13,2125.25 1055.13,2264.35"/>
<polyline class="Stem" fill="none" stroke="#000000" stroke-width="4.91" stroke-linejoin="bevel" points="1242.06,2125.25 1242.06,2242.03"/>
<polyline class="Stem" fill="none" stroke="#000000" stroke-width="4.91" stroke-linejoin="bevel" points="1362.59,2125.25 1362.59,2242.03"/>
<polyline class="Stem" fill="none" stroke="#000000" stroke-width="4.91" stroke-linejoin="bevel" points="1703.98,2169.9 1703.98,2320.16"/>
<polyline class="Stem" fill="none" stroke="#000000" stroke-width="4.91" stroke-linejoin="bevel" points="1854.3,2147.57 1854.3,2275.51"/>
<polyline class="Stem" fill="none" stroke="#000000" stroke-width="4.91" stroke-linejoin="bevel" points="2039.38,2125.25 2039.38,2264.35"/>
<polyline class="Stem" fill="none" stroke="#000000" stroke-width="4.91" stroke-linejoin="bevel" points="2333.9,2102.93 2333.9,2247.61"/>
<polyline class="Stem" fill="none" stroke="#000000" stroke-width="4.91" stroke-linejoin="bevel" points="2520.83,2102.93 2520.83,2230.86"/>
<polyline class="Stem" fill="none" stroke="#000000" stroke-width="4.91" stroke-linejoin="bevel" points="2641.36,2102.93 2641.36,2230.86"/>
<polyline class="Stem" fill="none" stroke="#000000" stroke-width="4.91" stroke-linejoin="bevel" points="2982.75,2169.9 2982.75,2320.16"/>
<polyline class="Stem" fill="none" stroke="#000000" stroke-width="4.91" stroke-linejoin="bevel" points="3133.07,2147.57 3133.07,2275.51"/>
<polyline class="Stem" fill="none" stroke="#000000" stroke-width="4.91" stroke-linejoin="bevel" points="3318.15,2125.25 3318.15,2264.35"/>
<polyline class="Stem" fill="none" stroke="#000000" stroke-width="4.91" stroke-linejoin="bevel" points="3660.07,2102.93 3660.07,2247.61"/>
<polyline class="Stem" fill="none" stroke="#000000" stroke-width="4.91" stroke-linejoin="bevel" points="3846.99,2102.93 3846.99,2230.86"/>
<polyline class="Stem" fill="none" stroke="#000000" stroke-width="4.91" stroke-linejoin="bevel" points="3967.52,2102.93 3967.52,2230.86"/>
<path class="Note" transform="matrix(1.78583,0,0,1.78583,655.663,495)" d="M31.5,-8.1 C29.7,-11.4 25.9,-13.2 21.3,-13.2 C17.9,-13.2 14.2,-12.2 10.6,-10.3 C4,-6.8 0,-0.9 0,4.2 C0,5.6 0.3,7 1,8.3 C2.8,11.6 6.6,13.3 11.2,13.3 C14.6,13.3 18.3,12.4 21.9,10.5 C28.5,7 32.5,1.1 32.5,-4 C32.5,-5.4 32.2,-6.8 31.5,-8.1"/>
<path class="Note" transform="matrix(1.78583,0,0,1.78583,924.863,428.031)" d="M31.5,-8.1 C29.7,-11.4 25.9,-13.2 21.3,-13.2 C17.9,-13.2 14.2,-12.2 10.6,-10.3 C4,-6.8 0,-0.9 0,4.2 C0,5.6 0.3,7 1,8.3 C2.8,11.6 6.6,13.3 11.2,13.3 C14.6,13.3 18.3,12.4 21.9,10.5 C28.5,7 32.5,1.1 32.5,-4 C32.5,-5.4 32.2,-6.8 31.5,-8.1"/>
<path class="Note" transform="matrix(1.78583,0,0,1.78583,1109.95,450.354)" d="M31.5,-8.1 C29.7,-11.4 25.9,-13.2 21.3,-13.2 C17.9,-13.2 14.2,-12.2 10.6,-10.3 C4,-6.8 0,-0.9 0,4.2 C0,5.6 0.3,7 1,8.3 C2.8,11.6 6.6,13.3 11.2,13.3 C14.6,13.3 18.3,12.4 21.9,10.5 C28.5,7 32.5,1.1 32.5,-4 C32.5,-5.4 32.2,-6.8 31.5,-8.1"/>
<path class="Note" transform="matrix(1.78583,0,0,1.78583,1252.23,472.677)" d="M31.5,-8.1 C29.7,-11.4 25.9,-13.2 21.3,-13.2 C17.9,-13.2 14.2,-12.2 10.6,-10.3 C4,-6.8 0,-0.9 0,4.2 C0,5.6 0.3,7 1,8.3 C2.8,11.6 6.6,13.3 11.2,13.3 C14.6,13.3 18.3,12.4 21.9,10.5 C28.5,7 32.5,1.1 32.5,-4 C32.5,-5.4 32.2,-6.8 31.5,-8.1"/>
<path class="Note" transform="matrix(1.78583,0,0,1.78583,1394.51,495)" d="M31.5,-8.1 C29.7,-11.4 25.9,-13.2 21.3,-13.2 C17.9,-13.2 14.2,-12.2 10.6,-10.3 C4,-6.8 0,-0.9 0,4.2 C0,5.6 0.3,7 1,8.3 C2.8,11.6 6.6,13.3 11.2,13.3 C14.6,13.3 18.3,12.4 21.9,10.5 C28.5,7 32.5,1.1 32.5,-4 C32.5,-5.4 32.2,-6.8 31.5,-8.1"/>
<path class="Note" transform="matrix(1.78583,0,0,1.78583,1656.44,472.677)" d="M31.5,-8.1 C29.7,-11.4 25.9,-13.2 21.3,-13.2 C17.9,-13.2 14.2,-12.2 10.6,-10.3 C4,-6.8 0,-0.9 0,4.2 C0,5.6 0.3,7 1,8.3 C2.8,11.6 6.6,13.3 11.2,13.3 C14.6,13.3 18.3,12.4 21.9,10.5 C28.5,7 32.5,1.1 32.5,-4 C32.5,-5.4 32.2,-6.8 31.5,-8.1"/>
<path class="Note" transform="matrix(1.78583,0,0,1.78583,1791.67,495)" d="M31.5,-8.1 C29.7,-11.4 25.9,-13.2 21.3,-13.2 C17.9,-13.2 14.2,-12.2 10.6,-10.3 C4,-6.8 0,-0.9 0,4.2 C0,5.6 0.3,7 1,8.3 C2.8,11.6 6.6,13.3 11.2,13.3 C14.6,13.3 18.3,12.4 21.9,10.5 C28.5,7 32.5,1.1 32.5,-4 C32.5,-5.4 32.2,-6.8 31.5,-8.1"/>
<path class="Note" transform="matrix(1.78583,0,0,1.78583,1926.9,495)" d="M31.5,-8.1 C29.7,-11.4 25.9,-13.2 21.3,-13.2 C17.9,-13.2 14.2,-12.2 10.6,-10.3 C4,-6.8 0,-0.9 0,4.2 C0,5.6 0.3,7 1,8.3 C2.8,11.6 6.6,13.3 11.2,13.3 C14.6,13.3 18.3,12.4 21.9,10.5 C28.5,7 32.5,1.1 32.5,-4 C32.5,-5.4 32.2,-6.8 31.5,-8.1"/>
<path class="Note" transform="matrix(1.78583,0,0,1.78583,2062.13,495)" d="M31.5,-8.1 C29.7,-11.4 25.9,-13.2 21.3,-13.2 C17.9,-13.2 14.2,-12.2 10.6,-10.3 C4,-6.8 0,-0.9 0,4.2 C0,5.6 0.3,7 1,8.3 C2.8,11.6 6.6,13.3 11.2,13.3 C14.6,13.3 18.3,12.4 21.9,10.5 C28.5,7 32.5,1.1 32.5,-4 C32.5,-5.4 32.2,-6.8 31.5,-8.1"/>
<path class="Note" transform="matrix(1.78583,0,0,1.78583,2317.01,472.677)" d="M31.5,-8.1 C29.7,-11.4 25.9,-13.2 21.3,-13.2 C17.9,-13.2 14.2,-12.2 10.6,-10.3 C4,-6.8 0,-0.9 0,4.2 C0,5.6 0.3,7 1,8.3 C2.8,11.6 6.6,13.3 11.2,13.3 C14.6,13.3 18.3,12.4 21.9,10.5 C28.5,7 32.5,1.1 32.5,-4 C32.5,-5.4 32.2,-6.8 31.5,-8.1"/>
<path class="Note" transform="matrix(1.78583,0,0,1.78583,2459.29,495)" d="M31.5,-8.1 C29.7,-11.4 25.9,-13.2 21.3,-13.2 C17.9,-13.2 14.2,-12.2 10.6,-10.3 C4,-6.8 0,-0.9 0,4.2 C0,5.6 0.3,7 1,8.3 C2.8,11.6 6.6,13.3 11.2,13.3 C14.6,13.3 18.3,12.4 21.9,10.5 C28.5,7 32.5,1.1 32.5,-4 C32.5,-5.4 32.2,-6.8 31.5,-8.1"/>
<path class="Note" transform="matrix(1.78583,0,0,1.78583,2601.57,472.677)" d="M31.5,-8.1 C29.7,-11.4 25.9,-13.2 21.3,-13.2 C17.9,-13.2 14.2,-12.2 10.6,-10.3 C4,-6.8 0,-0.9 0,4.2 C0,5.6 0.3,7 1,8.3 C2.8,11.6 6.6,13.3 11.2,13.3 C14.6,13.3 18.3,12.4 21.9,10.5 C28.5,7 32.5,1.1 32.5,-4 C32.5,-5.4 32.2,-6.8 31.5,-8.1"/>
<path class="Note" transform="matrix(1.78583,0,0,1.78583,2786.66,450.354)" d="M31.5,-8.1 C29.7,-11.4 25.9,-13.2 21.3,-13.2 C17.9,-13.2 14.2,-12.2 10.6,-10.3 C4,-6.8 0,-0.9 0,4.2 C0,5.6 0.3,7 1,8.3 C2.8,11.6 6.6,13.3 11.2,13.3 C14.6,13.3 18.3,12.4 21.9,10.5 C28.5,7 32.5,1.1 32.5,-4 C32.5,-5.4 32.2,-6.8 31.5,-8.1"/>
<path class="Note" transform="matrix(1.78583,0,0,1.78583,3048.59,428.031)" d="M31.5,-8.1 C29.7,-11.4 25.9,-13.2 21.3,-13.2 C17.9,-13.2 14.2,-12.2 10.6,-10.3 C4,-6.8 0,-0.9 0,4.2 C0,5.6 0.3,7 1,8.3 C2.8,11.6 6.6,13.3 11.2,13.3 C14.6,13.3 18.3,12.4 21.9,10.5 C28.5,7 32.5,1.1 32.5,-4 C32.5,-5.4 32.2,-6.8 31.5,-8.1"/>
<path class="Note" transform="matrix(1.78583,0,0,1.78583,3273,495)" d="M31.5,-8.1 C29.7,-11.4 25.9,-13.2 21.3,-13.2 C17.9,-13.2 14.2,-12.2 10.6,-10.3 C4,-6.8 0,-0.9 0,4.2 C0,5.6 0.3,7 1,8.3 C2.8,11.6 6.6,13.3 11.2,13.3 C14.6,13.3 18.3,12.4 21.9,10.5 C28.5,7 32.5,1.1 32.5,-4 C32.5,-5.4 32.2,-6.8 31.5,-8.1"/>
<path class="Note" transform="matrix(1.78583,0,0,1.78583,3517.64,428.031)" d="M31.5,-8.1 C29.7,-11.4 25.9,-13.2 21.3,-13.2 C17.9,-13.2 14.2,-12.2 10.6,-10.3 C4,-6.8 0,-0.9 0,4.2 C0,5.6 0.3,7 1,8.3 C2.8,11.6 6.6,13.3 11.2,13.3 C14.6,13.3 18.3,12.4 21.9,10.5 C28.5,7 32.5,1.1 32.5,-4 C32.5,-5.4 32.2,-6.8 31.5,-8.1"/>
<path class="Note" transform="matrix(1.78583,0,0,1.78583,3702.73,450.354)" d="M31.5,-8.1 C29.7,-11.4 25.9,-13.2 21.3,-13.2 C17.9,-13.2 14.2,-12.2 10.6,-10.3 C4,-6.8 0,-0.9 0,4.2 C0,5.6 0.3,7 1,8.3 C2.8,11.6 6.6,13.3 11.2,13.3 C14.6,13.3 18.3,12.4 21.9,10.5 C28.5,7 32.5,1.1 32.5,-4 C32.5,-5.4 32.2,-6.8 31.5,-8.1"/>
<path class="Note" transform="matrix(1.78583,0,0,1.78583,3845.01,472.677)" d="M31.5,-8.1 C29.7,-11.4 25.9,-13.2 21.3,-13.2 C17.9,-13.2 14.2,-12.2 10.6,-10.3 C4,-6.8 0,-0.9 0,4.2 C0,5.6 0.3,7 1,8.3 C2.8,11.6 6.6,13.3 11.2,13.3 C14.6,13.3 18.3,12.4 21.9,10.5 C28.5,7 32.5,1.1 32.5,-4 C32.5,-5.4 32.2,-6.8 31.5,-8.1"/>
<path class="Note" transform="matrix(1.78583,0,0,1.78583,3987.29,495)" d="M31.5,-8.1 C29.7,-11.4 25.9,-13.2 21.3,-13.2 C17.9,-13.2 14.2,-12.2 10.6,-10.3 C4,-6.8 0,-0.9 0,4.2 C0,5.6 0.3,7 1,8.3 C2.8,11.6 6.6,13.3 11.2,13.3 C14.6,13.3 18.3,12.4 21.9,10.5 C28.5,7 32.5,1.1 32.5,-4 C32.5,-5.4 32.2,-6.8 31.5,-8.1"/>
<path class="Note" transform="matrix(1.78583,0,0,1.78583,386.037,1307.13)" d="M31.5,-8.1 C29.7,-11.4 25.9,-13.2 21.3,-13.2 C17.9,-13.2 14.2,-12.2 10.6,-10.3 C4,-6.8 0,-0.9 0,4.2 C0,5.6 0.3,7 1,8.3 C2.8,11.6 6.6,13.3 11.2,13.3 C14.6,13.3 18.3,12.4 21.9,10.5 C28.5,7 32.5,1.1 32.5,-4 C32.5,-5.4 32.2,-6.8 31.5,-8.1"/>
<path class="Note" transform="matrix(1.78583,0,0,1.78583,521.456,1329.45)" d="M31.5,-8.1 C29.7,-11.4 25.9,-13.2 21.3,-13.2 C17.9,-13.2 14.2,-12.2 10.6,-10.3 C4,-6.8 0,-0.9 0,4.2 C0,5.6 0.3,7 1,8.3 C2.8,11.6 6.6,13.3 11.2,13.3 C14.6,13.3 18.3,12.4 21.9,10.5 C28.5,7 32.5,1.1 32.5,-4 C32.5,-5.4 32.2,-6.8 31.5,-8.1"/>
<path class="Note" transform="matrix(1.78583,0,0,1.78583,656.874,1329.45)" d="M31.5,-8.1 C29.7,-11.4 25.9,-13.2 21.3,-13.2 C17.9,-13.2 14.2,-12.2 10.6,-10.3 C4,-6.8 0,-0.9 0,4.2 C0,5.6 0.3,7 1,8.3 C2.8,11.6 6.6,13.3 11.2,13.3 C14.6,13.3 18.3,12.4 21.9,10.5 C28.5,7 32.5,1.1 32.5,-4 C32.5,-5.4 32.2,-6.8 31.5,-8.1"/>
<path class="Note" transform="matrix(1.78583,0,0,1.78583,792.293,1329.45)" d="M31.5,-8.1 C29.7,-11.4 25.9,-13.2 21.3,-13.2 C17.9,-13.2 14.2,-12.2 10.6,-10.3 C4,-6.8 0,-0.9 0,4.2 C0,5.6 0.3,7 1,8.3 C2.8,11.6 6.6,13.3 11.2,13.3 C14.6,13.3 18.3,12.4 21.9,10.5 C28.5,7 32.5,1.1 32.5,-4 C32.5,-5.4 32.2,-6.8 31.5,-8.1"/>
<path class="Note" transform="matrix(1.78583,0,0,1.78583,1047.36,1307.13)" d="M31.5,-8.1 C29.7,-11.4 25.9,-13.2 21.3,-13.2 C17.9,-13.2 14.2,-12.2 10.6,-10.3 C4,-6.8 0,-0.9 0,4.2 C0,5.6 0.3,7 1,8.3 C2.8,11.6 6.6,13.3 11.2,13.3 C14.6,13.3 18.3,12.4 21.9,10.5 C28.5,7 32.5,1.1 32.5,-4 C32.5,-5.4 32.2,-6.8 31.5,-8.1"/>
<path class="Note" transform="matrix(1.78583,0,0,1.78583,1189.9,1329.45)" d="M31.5,-8.1 C29.7,-11.4 25.9,-13.2 21.3,-13.2 C17.9,-13.2 14.2,-12.2 10.6,-10.3 C4,-6.8 0,-0.9 0,4.2 C0,5.6 0.3,7 1,8.3 C2.8,11.6 6.6,13.3 11.2,13.3 C14.6,13.3 18.3,12.4 21.9,10.5 C28.5,7 32.5,1.1 32.5,-4 C32.5,-5.4 32.2,-6.8 31.5,-8.1"/>
<path class="Note" transform="matrix(1.78583,0,0,1.78583,1332.43,1307.13)" d="M31.5,-8.1 C29.7,-11.4 25.9,-13.2 21.3,-13.2 C17.9,-13.2 14.2,-12.2 10.6,-10.3 C4,-6.8 0,-0.9 0,4.2 C0,5.6 0.3,7 1,8.3 C2.8,11.6 6.6,13.3 11.2,13.3 C14.6,13.3 18.3,12.4 21.9,10.5 C28.5,7 32.5,1.1 32.5,-4 C32.5,-5.4 32.2,-6.8 31.5,-8.1"/>
<path class="Note" transform="matrix(1.78583,0,0,1.78583,1517.52,1284.8)" d="M31.5,-8.1 C29.7,-11.4 25.9,-13.2 21.3,-13.2 C17.9,-13.2 14.2,-12.2 10.6,-10.3 C4,-6.8 0,-0.9 0,4.2 C0,5.6 0.3,7 1,8.3 C2.8,11.6 6.6,13.3 11.2,13.3 C14.6,13.3 18.3,12.4 21.9,10.5 C28.5,7 32.5,1.1 32.5,-4 C32.5,-5.4 32.2,-6.8 31.5,-8.1"/>
<path class="Note" transform="matrix(1.78583,0,0,1.78583,1779.7,1262.48)" d="M31.5,-8.1 C29.7,-11.4 25.9,-13.2 21.3,-13.2 C17.9,-13.2 14.2,-12.2 10.6,-10.3 C4,-6.8 0,-0.9 0,4.2 C0,5.6 0.3,7 1,8.3 C2.8,11.6 6.6,13.3 11.2,13.3 C14.6,13.3 18.3,12.4 21.9,10.5 C28.5,7 32.5,1.1 32.5,-4 C32.5,-5.4 32.2,-6.8 31.5,-8.1"/>
<path class="Note" transform="matrix(1.78583,0,0,1.78583,1922.23,1329.45)" d="M31.5,-8.1 C29.7,-11.4 25.9,-13.2 21.3,-13.2 C17.9,-13.2 14.2,-12.2 10.6,-10.3 C4,-6.8 0,-0.9 0,4.2 C0,5.6 0.3,7 1,8.3 C2.8,11.6 6.6,13.3 11.2,13.3 C14.6,13.3 18.3,12.4 21.9,10.5 C28.5,7 32.5,1.1 32.5,-4 C32.5,-5.4 32.2,-6.8 31.5,-8.1"/>
<path class="Note" transform="matrix(1.78583,0,0,1.78583,2064.77,1307.13)" d="M31.5,-8.1 C29.7,-11.4 25.9,-13.2 21.3,-13.2 C17.9,-13.2 14.2,-12.2 10.6,-10.3 C4,-6.8 0,-0.9 0,4.2 C0,5.6 0.3,7 1,8.3 C2.8,11.6 6.6,13.3 11.2,13.3 C14.6,13.3 18.3,12.4 21.9,10.5 C28.5,7 32.5,1.1 32.5,-4 C32.5,-5.4 32.2,-6.8 31.5,-8.1"/>
<path class="Note" transform="matrix(1.78583,0,0,1.78583,2249.85,1284.8)" d="M31.5,-8.1 C29.7,-11.4 25.9,-13.2 21.3,-13.2 C17.9,-13.2 14.2,-12.2 10.6,-10.3 C4,-6.8 0,-0.9 0,4.2 C0,5.6 0.3,7 1,8.3 C2.8,11.6 6.6,13.3 11.2,13.3 C14.6,13.3 18.3,12.4 21.9,10.5 C28.5,7 32.5,1.1 32.5,-4 C32.5,-5.4 32.2,-6.8 31.5,-8.1"/>
<path class="Note" transform="matrix(1.78583,0,0,1.78583,2583.98,1262.48)" d="M31.5,-8.1 C29.7,-11.4 25.9,-13.2 21.3,-13.2 C17.9,-13.2 14.2,-12.2 10.6,-10.3 C4,-6.8 0,-0.9 0,4.2 C0,5.6 0.3,7 1,8.3 C2.8,11.6 6.6,13.3 11.2,13.3 C14.6,13.3 18.3,12.4 21.9,10.5 C28.5,7 32.5,1.1 32.5,-4 C32.5,-5.4 32.2,-6.8 31.5,-8.1"/>
<path class="Note" transform="matrix(1.78583,0,0,1.78583,2747.55,1262.48)" d="M31.5,-8.1 C29.7,-11.4 25.9,-13.2 21.3,-13.2 C17.9,-13.2 14.2,-12.2 10.6,-10.3 C4,-6.8 0,-0.9 0,4.2 C0,5.6 0.3,7 1,8.3 C2.8,11.6 6.6,13.3 11.2,13.3 C14.6,13.3 18.3,12.4 21.9,10.5 C28.5,7 32.5,1.1 32.5,-4 C32.5,-5.4 32.2,-6.8 31.5,-8.1"/>
<path class="Note" transform="matrix(1.78583,0,0,1.78583,2868.08,1262.48)" d="M31.5,-8.1 C29.7,-11.4 25.9,-13.2 21.3,-13.2 C17.9,-13.2 14.2,-12.2 10.6,-10.3 C4,-6.8 0,-0.9 0,4.2 C0,5.6 0.3,7 1,8.3 C2.8,11.6 6.6,13.3 11.2,13.3 C14.6,13.3 18.3,12.4 21.9,10.5 C28.5,7 32.5,1.1 32.5,-4 C32.5,-5.4 32.2,-6.8 31.5,-8.1"/>
<path class="Note" transform="matrix(1.78583,0,0,1.78583,3194.57,1329.45)" d="M31.5,-8.1 C29.7,-11.4 25.9,-13.2 21.3,-13.2 C17.9,-13.2 14.2,-12.2 10.6,-10.3 C4,-6.8 0,-0.9 0,4.2 C0,5.6 0.3,7 1,8.3 C2.8,11.6 6.6,13.3 11.2,13.3 C14.6,13.3 18.3,12.4 21.9,10.5 C28.5,7 32.5,1.1 32.5,-4 C32.5,-5.4 32.2,-6.8 31.5,-8.1"/>
<path class="Note" transform="matrix(1.78583,0,0,1.78583,3329.99,1307.13)" d="M31.5,-8.1 C29.7,-11.4 25.9,-13.2 21.3,-13.2 C17.9,-13.2 14.2,-12.2 10.6,-10.3 C4,-6.8 0,-0.9 0,4.2 C0,5.6 0.3,7 1,8.3 C2.8,11.6 6.6,13.3 11.2,13.3 C14.6,13.3 18.3,12.4 21.9,10.5 C28.5,7 32.5,1.1 32.5,-4 C32.5,-5.4 32.2,-6.8 31.5,-8.1"/>
<path class="Note" transform="matrix(1.78583,0,0,1.78583,3465.41,1329.45)" d="M31.5,-8.1 C29.7,-11.4 25.9,-13.2 21.3,-13.2 C17.9,-13.2 14.2,-12.2 10.6,-10.3 C4,-6.8 0,-0.9 0,4.2 C0,5.6 0.3,7 1,8.3 C2.8,11.6 6.6,13.3 11.2,13.3 C14.6,13.3 18.3,12.4 21.9,10.5 C28.5,7 32.5,1.1 32.5,-4 C32.5,-5.4 32.2,-6.8 31.5,-8.1"/>
<path class="Note" transform="matrix(1.78583,0,0,1.78583,3720.48,1307.13)" d="M31.5,-8.1 C29.7,-11.4 25.9,-13.2 21.3,-13.2 C17.9,-13.2 14.2,-12.2 10.6,-10.3 C4,-6.8 0,-0.9 0,4.2 C0,5.6 0.3,7 1,8.3 C2.8,11.6 6.6,13.3 11.2,13.3 C14.6,13.3 18.3,12.4 21.9,10.5 C28.5,7 32.5,1.1 32.5,-4 C32.5,-5.4 32.2,-6.8 31.5,-8.1"/>
<path class="Note" transform="matrix(1.78583,0,0,1.78583,3884.05,1307.13)" d="M31.5,-8.1 C29.7,-11.4 25.9,-13.2 21.3,-13.2 C17.9,-13.2 14.2,-12.2 10.6,-10.3 C4,-6.8 0,-0.9 0,4.2 C0,5.6 0.3,7 1,8.3 C2.8,11.6 6.6,13.3 11.2,13.3 C14.6,13.3 18.3,12.4 21.9,10.5 C28.5,7 32.5,1.1 32.5,-4 C32.5,-5.4 32.2,-6.8 31.5,-8.1"/>
<path class="Note" transform="matrix(1.78583,0,0,1.78583,4004.58,1307.13)" d="M31.5,-8.1 C29.7,-11.4 25.9,-13.2 21.3,-13.2 C17.9,-13.2 14.2,-12.2 10.6,-10.3 C4,-6.8 0,-0.9 0,4.2 C0,5.6 0.3,7 1,8.3 C2.8,11.6 6.6,13.3 11.2,13.3 C14.6,13.3 18.3,12.4 21.9,10.5 C28.5,7 32.5,1.1 32.5,-4 C32.5,-5.4 32.2,-6.8 31.5,-8.1"/>
<path class="Note" transform="matrix(1.78583,0,0,1.78583,473.719,2163.9)" d="M31.5,-8.1 C29.7,-11.4 25.9,-13.2 21.3,-13.2 C17.9,-13.2 14.2,-12.2 10.6,-10.3 C4,-6.8 0,-0.9 0,4.2 C0,5.6 0.3,7 1,8.3 C2.8,11.6 6.6,13.3 11.2,13.3 C14.6,13.3 18.3,12.4 21.9,10.5 C28.5,7 32.5,1.1 32.5,-4 C32.5,-5.4 32.2,-6.8 31.5,-8.1"/>
<path class="Note" transform="matrix(1.78583,0,0,1.78583,614.977,2074.61)" d="M31.5,-8.1 C29.7,-11.4 25.9,-13.2 21.3,-13.2 C17.9,-13.2 14.2,-12.2 10.6,-10.3 C4,-6.8 0,-0.9 0,4.2 C0,5.6 0.3,7 1,8.3 C2.8,11.6 6.6,13.3 11.2,13.3 C14.6,13.3 18.3,12.4 21.9,10.5 C28.5,7 32.5,1.1 32.5,-4 C32.5,-5.4 32.2,-6.8 31.5,-8.1"/>
<path class="Note" transform="matrix(1.78583,0,0,1.78583,756.235,2096.93)" d="M31.5,-8.1 C29.7,-11.4 25.9,-13.2 21.3,-13.2 C17.9,-13.2 14.2,-12.2 10.6,-10.3 C4,-6.8 0,-0.9 0,4.2 C0,5.6 0.3,7 1,8.3 C2.8,11.6 6.6,13.3 11.2,13.3 C14.6,13.3 18.3,12.4 21.9,10.5 C28.5,7 32.5,1.1 32.5,-4 C32.5,-5.4 32.2,-6.8 31.5,-8.1"/>
<path class="Note" transform="matrix(1.78583,0,0,1.78583,1052.68,2119.25)" d="M31.5,-8.1 C29.7,-11.4 25.9,-13.2 21.3,-13.2 C17.9,-13.2 14.2,-12.2 10.6,-10.3 C4,-6.8 0,-0.9 0,4.2 C0,5.6 0.3,7 1,8.3 C2.8,11.6 6.6,13.3 11.2,13.3 C14.6,13.3 18.3,12.4 21.9,10.5 C28.5,7 32.5,1.1 32.5,-4 C32.5,-5.4 32.2,-6.8 31.5,-8.1"/>
<path class="Note" transform="matrix(1.78583,0,0,1.78583,1239.6,2119.25)" d="M31.5,-8.1 C29.7,-11.4 25.9,-13.2 21.3,-13.2 C17.9,-13.2 14.2,-12.2 10.6,-10.3 C4,-6.8 0,-0.9 0,4.2 C0,5.6 0.3,7 1,8.3 C2.8,11.6 6.6,13.3 11.2,13.3 C14.6,13.3 18.3,12.4 21.9,10.5 C28.5,7 32.5,1.1 32.5,-4 C32.5,-5.4 32.2,-6.8 31.5,-8.1"/>
<path class="Note" transform="matrix(1.78583,0,0,1.78583,1360.13,2119.25)" d="M31.5,-8.1 C29.7,-11.4 25.9,-13.2 21.3,-13.2 C17.9,-13.2 14.2,-12.2 10.6,-10.3 C4,-6.8 0,-0.9 0,4.2 C0,5.6 0.3,7 1,8.3 C2.8,11.6 6.6,13.3 11.2,13.3 C14.6,13.3 18.3,12.4 21.9,10.5 C28.5,7 32.5,1.1 32.5,-4 C32.5,-5.4 32.2,-6.8 31.5,-8.1"/>
<path class="Note" transform="matrix(1.78583,0,0,1.78583,1701.52,2163.9)" d="M31.5,-8.1 C29.7,-11.4 25.9,-13.2 21.3,-13.2 C17.9,-13.2 14.2,-12.2 10.6,-10.3 C4,-6.8 0,-0.9 0,4.2 C0,5.6 0.3,7 1,8.3 C2.8,11.6 6.6,13.3 11.2,13.3 C14.6,13.3 18.3,12.4 21.9,10.5 C28.5,7 32.5,1.1 32.5,-4 C32.5,-5.4 32.2,-6.8 31.5,-8.1"/>
<path class="Note" transform="matrix(1.78583,0,0,1.78583,1851.84,2141.57)" d="M31.5,-8.1 C29.7,-11.4 25.9,-13.2 21.3,-13.2 C17.9,-13.2 14.2,-12.2 10.6,-10.3 C4,-6.8 0,-0.9 0,4.2 C0,5.6 0.3,7 1,8.3 C2.8,11.6 6.6,13.3 11.2,13.3 C14.6,13.3 18.3,12.4 21.9,10.5 C28.5,7 32.5,1.1 32.5,-4 C32.5,-5.4 32.2,-6.8 31.5,-8.1"/>
<path class="Note" transform="matrix(1.78583,0,0,1.78583,2036.92,2119.25)" d="M31.5,-8.1 C29.7,-11.4 25.9,-13.2 21.3,-13.2 C17.9,-13.2 14.2,-12.2 10.6,-10.3 C4,-6.8 0,-0.9 0,4.2 C0,5.6 0.3,7 1,8.3 C2.8,11.6 6.6,13.3 11.2,13.3 C14.6,13.3 18.3,12.4 21.9,10.5 C28.5,7 32.5,1.1 32.5,-4 C32.5,-5.4 32.2,-6.8 31.5,-8.1"/>
<path class="Note" transform="matrix(1.78583,0,0,1.78583,2331.45,2096.93)" d="M31.5,-8.1 C29.7,-11.4 25.9,-13.2 21.3,-13.2 C17.9,-13.2 14.2,-12.2 10.6,-10.3 C4,-6.8 0,-0.9 0,4.2 C0,5.6 0.3,7 1,8.3 C2.8,11.6 6.6,13.3 11.2,13.3 C14.6,13.3 18.3,12.4 21.9,10.5 C28.5,7 32.5,1.1 32.5,-4 C32.5,-5.4 32.2,-6.8 31.5,-8.1"/>
<path class="Note" transform="matrix(1.78583,0,0,1.78583,2518.37,2096.93)" d="M31.5,-8.1 C29.7,-11.4 25.9,-13.2 21.3,-13.2 C17.9,-13.2 14.2,-12.2 10.6,-10.3 C4,-6.8 0,-0.9 0,4.2 C0,5.6 0.3,7 1,8.3 C2.8,11.6 6.6,13.3 11.2,13.3 C14.6,13.3 18.3,12.4 21.9,10.5 C28.5,7 32.5,1.1 32.5,-4 C32.5,-5.4 32.2,-6.8 31.5,-8.1"/>
<path class="Note" transform="matrix(1.78583,0,0,1.78583,2638.9,2096.93)" d="M31.5,-8.1 C29.7,-11.4 25.9,-13.2 21.3,-13.2 C17.9,-13.2 14.2,-12.2 10.6,-10.3 C4,-6.8 0,-0.9 0,4.2 C0,5.6 0.3,7 1,8.3 C2.8,11.6 6.6,13.3 11.2,13.3 C14.6,13.3 18.3,12.4 21.9,10.5 C28.5,7 32.5,1.1 32.5,-4 C32.5,-5.4 32.2,-6.8 31.5,-8.1"/>
<path class="Note" transform="matrix(1.78583,0,0,1.78583,2980.29,2163.9)" d="M31.5,-8.1 C29.7,-11.4 25.9,-13.2 21.3,-13.2 C17.9,-13.2 14.2,-12.2 10.6,-10.3 C4,-6.8 0,-0.9 0,4.2 C0,5.6 0.3,7 1,8.3 C2.8,11.6 6.6,13.3 11.2,13.3 C14.6,13.3 18.3,12.4 21.9,10.5 C28.5,7 32.5,1.1 32.5,-4 C32.5,-5.4 32.2,-6.8 31.5,-8.1"/>
<path class="Note" transform="matrix(1.78583,0,0,1.78583,3130.61,2141.57)" d="M31.5,-8.1 C29.7,-11.4 25.9,-13.2 21.3,-13.2 C17.9,-13.2 14.2,-12.2 10.6,-10.3 C4,-6.8 0,-0.9 0,4.2 C0,5.6 0.3,7 1,8.3 C2.8,11.6 6.6,13.3 11.2,13.3 C14.6,13.3 18.3,12.4 21.9,10.5 C28.5,7 32.5,1.1 32.5,-4 C32.5,-5.4 32.2,-6.8 31.5,-8.1"/>
<path class="Note" transform="matrix(1.78583,0,0,1.78583,3315.7,2119.25)" d="M31.5,-8.1 C29.7,-11.4 25.9,-13.2 21.3,-13.2 C17.9,-13.2 14.2,-12.2 10.6,-10.3 C4,-6.8 0,-0.9 0,4.2 C0,5.6 0.3,7 1,8.3 C2.8,11.6 6.6,13.3 11.2,13.3 C14.6,13.3 18.3,12.4 21.9,10.5 C28.5,7 32.5,1.1 32.5,-4 C32.5,-5.4 32.2,-6.8 31.5,-8.1"/>
<path class="Note" transform="matrix(1.78583,0,0,1.78583,3657.61,2096.93)" d="M31.5,-8.1 C29.7,-11.4 25.9,-13.2 21.3,-13.2 C17.9,-13.2 14.2,-12.2 10.6,-10.3 C4,-6.8 0,-0.9 0,4.2 C0,5.6 0.3,7 1,8.3 C2.8,11.6 6.6,13.3 11.2,13.3 C14.6,13.3 18.3,12.4 21.9,10.5 C28.5,7 32.5,1.1 32.5,-4 C32.5,-5.4 32.2,-6.8 31.5,-8.1"/>
<path class="Note" transform="matrix(1.78583,0,0,1.78583,3844.54,2096.93)" d="M31.5,-8.1 C29.7,-11.4 25.9,-13.2 21.3,-13.2 C17.9,-13.2 14.2,-12.2 10.6,-10.3 C4,-6.8 0,-0.9 0,4.2 C0,5.6 0.3,7 1,8.3 C2.8,11.6 6.6,13.3 11.2,13.3 C14.6,13.3 18.3,12.4 21.9,10.5 C28.5,7 32.5,1.1 32.5,-4 C32.5,-5.4 32.2,-6.8 31.5,-8.1"/>
<path class="Note" transform="matrix(1.78583,0,0,1.78583,3965.06,2096.93)" d="M31.5,-8.1 C29.7,-11.4 25.9,-13.2 21.3,-13.2 C17.9,-13.2 14.2,-12.2 10.6,-10.3 C4,-6.8 0,-0.9 0,4.2 C0,5.6 0.3,7 1,8.3 C2.8,11.6 6.6,13.3 11.2,13.3 C14.6,13.3 18.3,12.4 21.9,10.5 C28.5,7 32.5,1.1 32.5,-4 C32.5,-5.4 32.2,-6.8 31.5,-8.1"/>
<path class="Clef" transform="matrix(1.78583,0,0,1.78583,106.583,517.323)" d="M63.35,-5.86992 C62.12,-11.3 59.48,-15.1199 58.7,-16.16 C55.51,-20.43 51.5,-23.28 46.81,-24.63 C43.7,-25.5199 40.7,-25.63 38.28,-25.45 C37.24,-31.46 36.24,-37.3399 35.33,-42.7899 C40.78,-48.96 44.4,-54.76 46.68,-59.06 C50.15,-65.6399 51.3,-70.2199 51.35,-70.4199 C53.07,-75.63 53.43,-83.33 52.33,-91.5399 C51.32,-99.0899 49.23,-105.8 46.88,-109.05 C45.85,-110.48 44.8,-111.21 43.76,-111.21 C42.54,-111.21 40.03,-109.97 37.14,-107.2 C34.84,-105 31.57,-101.11 29.01,-95.1 C26.01,-88.0399 25.8,-78.55 26.15,-71.83 C26.53,-64.56 27.64,-58.8699 27.65,-58.8199 C27.67,-58.73 27.93,-57.23 28.38,-54.66 C28.15,-54.43 27.91,-54.21 27.66,-53.9699 C26.62,-52.9699 25.43,-51.83 24.05,-50.45 C23.19,-49.5899 22.24,-48.68 21.24,-47.71 C12.79,-39.5699 0,-27.25 0,-8.1 C0,-3.4 0.9,1.02002 2.67998,5.03008 C4.27002,8.63008 6.57002,11.9101 9.5,14.7801 C17.23,22.3301 27.82,25.54 34.88,25.3801 C37.83,25.3101 40.46,25.07 42.85,24.62 C44.68,34.22 45.82,41.25 45.86,46.59 C45.9,53.1 44.25,57.07 40.35,59.84 C37.92,61.57 35.11,62.52 32.01,62.67 C29.42,62.79 27.16,62.32 25.73,61.9101 L25.72,61.9101 C25.72,61.9101 25.43,61.8301 25.42,61.6301 C25.41,61.45 25.76,61.4 25.77,61.4 L25.79,61.4 C27.71,60.9601 31.28,59.7301 33.64,56.4301 C35.44,53.9101 36.31,49.29 34.47,45.35 C33.36,42.9601 30.85,40.0101 25.23,39.5601 C22.74,39.3601 20.47,39.87 18.47,41.07 C16.66,42.15 15.16,43.79 14.11,45.79 C11.65,50.49 12.11,56.22 15.24,60.0601 C18.2,63.6801 22.82,65.99 28.25,66.57 C29.1,66.6601 29.95,66.7 30.8,66.7 C35.23,66.7 39.63,65.5 43.2,63.29 C46.86,60.72 48.98,56.74 49.66,51.1101 C50.22,46.47 49.83,40.5601 48.43,32.49 C48.07,30.4 47.53,27.37 46.87,23.6101 C52.62,21.69 56.78,18.12 60.55,12.27 C63.84,6.53008 64.78,0.430078 63.35,-5.86992 M29.14,20.32 C24.5,19.1 20.07,16.6 16.31,13.1 C15,11.87 13.13,9.7 11.66,6.31006 C10.29,3.15 9.62998,-0.27998 9.67998,-3.86992 C9.75,-8.55996 11.06,-13.38 13.57,-18.1699 C16.49,-23.75 21.05,-29.28 27.11,-34.61 C28.56,-35.8899 29.93,-37.1699 31.22,-38.45 C31.98,-34.1899 32.81,-29.5 33.69,-24.6199 C29.84,-23.35 25.09,-20.2 21.98,-14.55 C18.44,-7.97998 18.58,-2.45996 19.31,1.02002 C20.25,5.48008 22.78,9.24004 26.24,11.3301 C27.17,11.89 31.3,14.02 33.14,13.44 C33.51,13.32 33.78,13.1 33.92,12.77 C34.43,11.6 33.41,10.9601 31.85,10 C31.25,9.63008 30.58,9.21006 29.85,8.68008 C26.53,6.19004 25.08,1.74004 26.15,-2.63994 C26.73,-5.03994 28.01,-7.2 29.85,-8.9 C31.52,-10.45 33.56,-11.55 35.94,-12.1899 C37.98,-0.95 40.04,10.2 41.68,18.5601 C41.81,19.25 41.95,19.92 42.08,20.59 C37.7,21.52 33.35,21.4301 29.14,20.32 M40.46,-12.86 C50.81,-13.33 55.08,-5.88994 55.97,-1.05996 C56.44,1.47002 56.43,5.91006 54.89,10.12 C53.72,13.3 51.26,17.37 46.13,19.4301 C46.06,19.0101 45.98,18.5801 45.9,18.15 C44.36,9.38008 42.42,-1.60996 40.46,-12.86 M33.14,-83.8 C34.92,-89.5399 37.66,-92.7899 39.65,-94.5199 C41.4,-96.0399 43.05,-96.75 43.97,-96.75 C44.11,-96.75 44.23,-96.73 44.33,-96.7 C44.79,-96.56 45.32,-95.9899 45.79,-95.1199 C48.1,-90.83 47.36,-84.1199 46.02,-79.68 C44.39,-74.28 41.47,-68.66 32.67,-59.05 C32.5,-60.16 32.34,-61.21 32.19,-62.1899 C30.94,-70.48 31.26,-77.75 33.14,-83.8"/>
<path class="Clef" transform="matrix(1.78583,0,0,1.78583,106.583,1351.77)" d="M63.35,-5.86992 C62.12,-11.3 59.48,-15.1199 58.7,-16.16 C55.51,-20.43 51.5,-23.28 46.81,-24.63 C43.7,-25.5199 40.7,-25.63 38.28,-25.45 C37.24,-31.46 36.24,-37.3399 35.33,-42.7899 C40.78,-48.96 44.4,-54.76 46.68,-59.06 C50.15,-65.6399 51.3,-70.2199 51.35,-70.4199 C53.07,-75.63 53.43,-83.33 52.33,-91.5399 C51.32,-99.0899 49.23,-105.8 46.88,-109.05 C45.85,-110.48 44.8,-111.21 43.76,-111.21 C42.54,-111.21 40.03,-109.97 37.14,-107.2 C34.84,-105 31.57,-101.11 29.01,-95.1 C26.01,-88.0399 25.8,-78.55 26.15,-71.83 C26.53,-64.56 27.64,-58.8699 27.65,-58.8199 C27.67,-58.73 27.93,-57.23 28.38,-54.66 C28.15,-54.43 27.91,-54.21 27.66,-53.9699 C26.62,-52.9699 25.43,-51.83 24.05,-50.45 C23.19,-49.5899 22.24,-48.68 21.24,-47.71 C12.79,-39.5699 0,-27.25 0,-8.1 C0,-3.4 0.9,1.02002 2.67998,5.03008 C4.27002,8.63008 6.57002,11.9101 9.5,14.7801 C17.23,22.3301 27.82,25.54 34.88,25.3801 C37.83,25.3101 40.46,25.07 42.85,24.62 C44.68,34.22 45.82,41.25 45.86,46.59 C45.9,53.1 44.25,57.07 40.35,59.84 C37.92,61.57 35.11,62.52 32.01,62.67 C29.42,62.79 27.16,62.32 25.73,61.9101 L25.72,61.9101 C25.72,61.9101 25.43,61.8301 25.42,61.6301 C25.41,61.45 25.76,61.4 25.77,61.4 L25.79,61.4 C27.71,60.9601 31.28,59.7301 33.64,56.4301 C35.44,53.9101 36.31,49.29 34.47,45.35 C33.36,42.9601 30.85,40.0101 25.23,39.5601 C22.74,39.3601 20.47,39.87 18.47,41.07 C16.66,42.15 15.16,43.79 14.11,45.79 C11.65,50.49 12.11,56.22 15.24,60.0601 C18.2,63.6801 22.82,65.99 28.25,66.57 C29.1,66.6601 29.95,66.7 30.8,66.7 C35.23,66.7 39.63,65.5 43.2,63.29 C46.86,60.72 48.98,56.74 49.66,51.1101 C50.22,46.47 49.83,40.5601 48.43,32.49 C48.07,30.4 47.53,27.37 46.87,23.6101 C52.62,21.69 56.78,18.12 60.55,12.27 C63.84,6.53008 64.78,0.430078 63.35,-5.86992 M29.14,20.32 C24.5,19.1 20.07,16.6 16.31,13.1 C15,11.87 13.13,9.7 11.66,6.31006 C10.29,3.15 9.62998,-0.27998 9.67998,-3.86992 C9.75,-8.55996 11.06,-13.38 13.57,-18.1699 C16.49,-23.75 21.05,-29.28 27.11,-34.61 C28.56,-35.8899 29.93,-37.1699 31.22,-38.45 C31.98,-34.1899 32.81,-29.5 33.69,-24.6199 C29.84,-23.35 25.09,-20.2 21.98,-14.55 C18.44,-7.97998 18.58,-2.45996 19.31,1.02002 C20.25,5.48008 22.78,9.24004 26.24,11.3301 C27.17,11.89 31.3,14.02 33.14,13.44 C33.51,13.32 33.78,13.1 33.92,12.77 C34.43,11.6 33.41,10.9601 31.85,10 C31.25,9.63008 30.58,9.21006 29.85,8.68008 C26.53,6.19004 25.08,1.74004 26.15,-2.63994 C26.73,-5.03994 28.01,-7.2 29.85,-8.9 C31.52,-10.45 33.56,-11.55 35.94,-12.1899 C37.98,-0.95 40.04,10.2 41.68,18.5601 C41.81,19.25 41.95,19.92 42.08,20.59 C37.7,21.52 33.35,21.4301 29.14,20.32 M40.46,-12.86 C50.81,-13.33 55.08,-5.88994 55.97,-1.05996 C56.44,1.47002 56.43,5.91006 54.89,10.12 C53.72,13.3 51.26,17.37 46.13,19.4301 C46.06,19.0101 45.98,18.5801 45.9,18.15 C44.36,9.38008 42.42,-1.60996 40.46,-12.86 M33.14,-83.8 C34.92,-89.5399 37.66,-92.7899 39.65,-94.5199 C41.4,-96.0399 43.05,-96.75 43.97,-96.75 C44.11,-96.75 44.23,-96.73 44.33,-96.7 C44.79,-96.56 45.32,-95.9899 45.79,-95.1199 C48.1,-90.83 47.36,-84.1199 46.02,-79.68 C44.39,-74.28 41.47,-68.66 32.67,-59.05 C32.5,-60.16 32.34,-61.21 32.19,-62.1899 C30.94,-70.48 31.26,-77.75 33.14,-83.8"/>
<path class="Clef" transform="matrix(1.78583,0,0,1.78583,106.583,2186.22)" d="M63.35,-5.86992 C62.12,-11.3 59.48,-15.1199 58.7,-16.16 C55.51,-20.43 51.5,-23.28 46.81,-24.63 C43.7,-25.5199 40.7,-25.63 38.28,-25.45 C37.24,-31.46 36.24,-37.3399 35.33,-42.7899 C40.78,-48.96 44.4,-54.76 46.68,-59.06 C50.15,-65.6399 51.3,-70.2199 51.35,-70.4199 C53.07,-75.63 53.43,-83.33 52.33,-91.5399 C51.32,-99.0899 49.23,-105.8 46.88,-109.05 C45.85,-110.48 44.8,-111.21 43.76,-111.21 C42.54,-111.21 40.03,-109.97 37.14,-107.2 C34.84,-105 31.57,-101.11 29.01,-95.1 C26.01,-88.0399 25.8,-78.55 26.15,-71.83 C26.53,-64.56 27.64,-58.8699 27.65,-58.8199 C27.67,-58.73 27.93,-57.23 28.38,-54.66 C28.15,-54.43 27.91,-54.21 27.66,-53.9699 C26.62,-52.9699 25.43,-51.83 24.05,-50.45 C23.19,-49.5899 22.24,-48.68 21.24,-47.71 C12.79,-39.5699 0,-27.25 0,-8.1 C0,-3.4 0.9,1.02002 2.67998,5.03008 C4.27002,8.63008 6.57002,11.9101 9.5,14.7801 C17.23,22.3301 27.82,25.54 34.88,25.3801 C37.83,25.3101 40.46,25.07 42.85,24.62 C44.68,34.22 45.82,41.25 45.86,46.59 C45.9,53.1 44.25,57.07 40.35,59.84 C37.92,61.57 35.11,62.52 32.01,62.67 C29.42,62.79 27.16,62.32 25.73,61.9101 L25.72,61.9101 C25.72,61.9101 25.43,61.8301 25.42,61.6301 C25.41,61.45 25.76,61.4 25.77,61.4 L25.79,61.4 C27.71,60.9601 31.28,59.7301 33.64,56.4301 C35.44,53.9101 36.31,49.29 34.47,45.35 C33.36,42.9601 30.85,40.0101 25.23,39.5601 C22.74,39.3601 20.47,39.87 18.47,41.07 C16.66,42.15 15.16,43.79 14.11,45.79 C11.65,50.49 12.11,56.22 15.24,60.0601 C18.2,63.6801 22.82,65.99 28.25,66.57 C29.1,66.6601 29.95,66.7 30.8,66.7 C35.23,66.7 39.63,65.5 43.2,63.29 C46.86,60.72 48.98,56.74 49.66,51.1101 C50.22,46.47 49.83,40.5601 48.43,32.49 C48.07,30.4 47.53,27.37 46.87,23.6101 C52.62,21.69 56.78,18.12 60.55,12.27 C63.84,6.53008 64.78,0.430078 63.35,-5.86992 M29.14,20.32 C24.5,19.1 20.07,16.6 16.31,13.1 C15,11.87 13.13,9.7 11.66,6.31006 C10.29,3.15 9.62998,-0.27998 9.67998,-3.86992 C9.75,-8.55996 11.06,-13.38 13.57,-18.1699 C16.49,-23.75 21.05,-29.28 27.11,-34.61 C28.56,-35.8899 29.93,-37.1699 31.22,-38.45 C31.98,-34.1899 32.81,-29.5 33.69,-24.6199 C29.84,-23.35 25.09,-20.2 21.98,-14.55 C18.44,-7.97998 18.58,-2.45996 19.31,1.02002 C20.25,5.48008 22.78,9.24004 26.24,11.3301 C27.17,11.89 31.3,14.02 33.14,13.44 C33.51,13.32 33.78,13.1 33.92,12.77 C34.43,11.6 33.41,10.9601 31.85,10 C31.25,9.63008 30.58,9.21006 29.85,8.68008 C26.53,6.19004 25.08,1.74004 26.15,-2.63994 C26.73,-5.03994 28.01,-7.2 29.85,-8.9 C31.52,-10.45 33.56,-11.55 35.94,-12.1899 C37.98,-0.95 40.04,10.2 41.68,18.5601 C41.81,19.25 41.95,19.92 42.08,20.59 C37.7,21.52 33.35,21.4301 29.14,20.32 M40.46,-12.86 C50.81,-13.33 55.08,-5.88994 55.97,-1.05996 C56.44,1.47002 56.43,5.91006 54.89,10.12 C53.72,13.3 51.26,17.37 46.13,19.4301 C46.06,19.0101 45.98,18.5801 45.9,18.15 C44.36,9.38008 42.42,-1.60996 40.46,-12.86 M33.14,-83.8 C34.92,-89.5399 37.66,-92.7899 39.65,-94.5199 C41.4,-96.0399 43.05,-96.75 43.97,-96.75 C44.11,-96.75 44.23,-96.73 44.33,-96.7 C44.79,-96.56 45.32,-95.9899 45.79,-95.1199 C48.1,-90.83 47.36,-84.1199 46.02,-79.68 C44.39,-74.28 41.47,-68.66 32.67,-59.05 C32.5,-60.16 32.34,-61.21 32.19,-62.1899 C30.94,-70.48 31.26,-77.75 33.14,-83.8"/>
<path class="TimeSig" transform="matrix(1.78583,0,0,1.78583,268.925,428.924)" d="M34.2,3.9 C33.4,6.1 31.4,13.3 26.5,13.3 C20,13.3 18.6,9.3 13.2,9.3 C12.4,9.3 11.6,9.4 10.6,9.6 C10.6,9.6 13.1,5.8 23.7,2.5 C34.3,-0.8 37,-6 37,-12 C37,-16.2 35.1,-24.5 20,-24.5 C4.9,-24.5 2.1,-15.4 2.1,-10.8 C2.1,-6.7 5.5,-3.4 9.6,-3.4 C13.7,-3.4 17,-6.7 17,-10.8 C17,-13.6 15,-16.7 12.4,-17.7 C12.1,-17.8 11.7,-18.3 11.7,-18.8 C11.7,-19.4 12.2,-20.1 14,-20.6 C14.5,-20.8 15.9,-21.1 17.4,-21.1 C18.8,-21.1 20.4,-20.8 21.6,-20 C23.5,-18.8 24.2,-17 24.2,-12.5 C24.2,-0.8 10.3,1.7 4.5,10.4 C4.5,10.4 1.5,14.6 1.5,19.3 C1.5,24 3.9,24.3 5.1,24.3 C6.7,24.3 8.4,23 8.4,21.2 C8.4,20.8 8.3,20.4 8.1,19.9 C7.5,18.5 7.3,17.4 7.3,16.6 C7.3,16.3 7.3,16 7.4,15.7 C7.5,15.1 8.3,14.1 10.7,14.1 C13.6,14.1 14.7,17.5 16.5,20.1 C18.3,22.7 21.1,24.3 24.3,24.3 C27.5,24.3 31.8,22 33.6,18.3 C35.4,14.6 37.7,7.1 37.7,4.4 C37.7,3.1 36.9,2.5 36,2.5 C35.3,2.5 34.6,2.9 34.2,3.9"/>
<path class="TimeSig" transform="matrix(1.78583,0,0,1.78583,263.038,517.086)" d="M3.59004,12.65 L20.77,12.65 L20.77,20.07 L12.54,20.07 C11.7601,20.07 11.1301,20.7 11.1301,21.48 L11.1301,23.39 C11.1301,24.17 11.7601,24.8 12.54,24.8 L42.79,24.8 C43.57,24.8 44.2,24.17 44.2,23.39 L44.2,21.48 C44.2,20.7 43.57,20.07 42.79,20.07 L33.85,20.07 L33.85,12.65 L42.79,12.65 C43.57,12.65 44.2,12.02 44.2,11.24 L44.2,9.32998 C44.2,8.55 43.57,7.92002 42.79,7.92002 L33.85,7.92002 L33.85,-8.04004 C33.85,-8.57998 33.55,-9.05996 33.07,-9.3 L31.8601,-9.9 C31.3301,-10.16 30.7,-10.07 30.27,-9.67002 L21.22,-1.35 C20.9301,-1.07998 20.7601,-0.709961 20.7601,-0.309961 L20.7601,7.92002 L9.25,7.92002 C9.25,7.92002 20.37,-4.10996 32.2101,-19.88 C33.0801,-21.03 32.5801,-22.08 32.39,-22.27 L30.22,-24.48 C29.95,-24.74 29.59,-24.89 29.22,-24.89 C28.62,-24.89 15.07,-24.87 14.35,-24.89 C13.6301,-24.91 13.09,-24.29 13.02,-23.67 C13.02,-23.67 12.4801,-16.31 9.88008,-8.17998 C7.28008,-0.0599609 4.34004,4.92002 1.68008,8.55 C1.68008,8.55 1.14004,9.54004 1.5,10.28 C1.85,11.03 2.48008,12.12 2.48008,12.12 C2.48008,12.12 2.74004,12.65 3.59004,12.65"/>
<path class="Rest" transform="matrix(1.78583,0,0,1.78583,431.254,472.677)" d="M23.2,16.9 L23,16.6 C22.9,16.5 22.7,16.3 22.4,15.9 L10.9,1.7 C10.6,1.4 10.7,0.6 10.9,0.2 L21.1,-15.2 C21.2,-15.4 21.3,-15.7 21.3,-15.9 L21.3,-16.8 C21.3,-17.1 21.2,-17.4 21,-17.6 L4.8,-39.5 C4.8,-39.5 4,-40.7 3,-39.8 C2,-39 2.8,-37.7 2.8,-37.7 L10.4,-27.3 C10.8,-26.7 10.8,-25.5 10.4,-24.9 L0.3,-9.5 C0.2,-9.3 0.1,-8.9 0.1,-8.7 L0.1,-7.8 C0.1,-7.5 0.2,-7.2 0.4,-7 L11.6,6.9 C11.2,6.8 10.3,6.6 9.1,6.6 C7.4,6.6 5.2,7 3.4,8.6 C1.2,10.6 0,13.4 0,15.9 C0,17.3 0.3,18.7 1.1,19.8 C3.2,23 10.7,32.5 10.7,32.5 C10.7,32.5 11.6,33.6 12.5,32.9 C13.4,32.2 13.2,31.3 12.9,30.8 C12.6,30.3 9.4,24.5 9.4,24.5 C9.4,24.5 8.7,23.1 8.7,21.3 C8.7,20 9.1,18.4 10.4,17.1 C11.6,15.9 13,15.5 14.3,15.5 C15.6,15.5 16.7,15.9 17.5,16.4 L21.4,18.9 C21.4,18.9 22.6,19.5 23.2,18.6 C23.7,17.8 23.5,17.4 23.2,16.9"/>
<path class="Rest" transform="matrix(1.78583,0,0,1.78583,535.134,472.677)" d="M26.73,-20.26 C25.9899,-20.5399 25.31,-20.21 24.98,-19.6 C24.65,-18.9899 21.4699,-13.06 17.0399,-9.8 C15.65,-8.77998 14.0699,-8.13994 12.5,-7.80996 C13.6199,-9.06992 14.3,-10.73 14.3,-12.55 C14.3,-16.5 11.1,-19.7 7.15,-19.7 C3.2,-19.7 0,-16.5 0,-12.55 C0,-9.53994 1.86992,-6.95996 4.50996,-5.90996 C6.03994,-5.17998 7.95,-4.73994 10,-4.73994 C12.85,-4.73994 15.96,-5.56992 18.6699,-7.55996 C19.93,-8.48994 21.13,-9.67998 22.21,-10.9399 L10.8199,24.69 L13.46,25.54 L27.53,-18.55 C27.76,-19.28 27.4699,-19.9699 26.73,-20.26"/>
<path class="Rest" transform="matrix(1.78583,0,0,1.78583,3152.47,472.677)" d="M26.73,-20.26 C25.9899,-20.5399 25.31,-20.21 24.98,-19.6 C24.65,-18.9899 21.4699,-13.06 17.0399,-9.8 C15.65,-8.77998 14.0699,-8.13994 12.5,-7.80996 C13.6199,-9.06992 14.3,-10.73 14.3,-12.55 C14.3,-16.5 11.1,-19.7 7.15,-19.7 C3.2,-19.7 0,-16.5 0,-12.55 C0,-9.53994 1.86992,-6.95996 4.50996,-5.90996 C6.03994,-5.17998 7.95,-4.73994 10,-4.73994 C12.85,-4.73994 15.96,-5.56992 18.6699,-7.55996 C19.93,-8.48994 21.13,-9.67998 22.21,-10.9399 L10.8199,24.69 L13.46,25.54 L27.53,-18.55 C27.76,-19.28 27.4699,-19.9699 26.73,-20.26"/>
<path class="Rest" transform="matrix(1.78583,0,0,1.78583,3059.15,1307.13)" d="M26.73,-20.26 C25.9899,-20.5399 25.31,-20.21 24.98,-19.6 C24.65,-18.9899 21.4699,-13.06 17.0399,-9.8 C15.65,-8.77998 14.0699,-8.13994 12.5,-7.80996 C13.6199,-9.06992 14.3,-10.73 14.3,-12.55 C14.3,-16.5 11.1,-19.7 7.15,-19.7 C3.2,-19.7 0,-16.5 0,-12.55 C0,-9.53994 1.86992,-6.95996 4.50996,-5.90996 C6.03994,-5.17998 7.95,-4.73994 10,-4.73994 C12.85,-4.73994 15.96,-5.56992 18.6699,-7.55996 C19.93,-8.48994 21.13,-9.67998 22.21,-10.9399 L10.8199,24.69 L13.46,25.54 L27.53,-18.55 C27.76,-19.28 27.4699,-19.9699 26.73,-20.26"/>
<path class="Rest" transform="matrix(1.78583,0,0,1.78583,332.462,2141.57)" d="M26.73,-20.26 C25.9899,-20.5399 25.31,-20.21 24.98,-19.6 C24.65,-18.9899 21.4699,-13.06 17.0399,-9.8 C15.65,-8.77998 14.0699,-8.13994 12.5,-7.80996 C13.6199,-9.06992 14.3,-10.73 14.3,-12.55 C14.3,-16.5 11.1,-19.7 7.15,-19.7 C3.2,-19.7 0,-16.5 0,-12.55 C0,-9.53994 1.86992,-6.95996 4.50996,-5.90996 C6.03994,-5.17998 7.95,-4.73994 10,-4.73994 C12.85,-4.73994 15.96,-5.56992 18.6699,-7.55996 C19.93,-8.48994 21.13,-9.67998 22.21,-10.9399 L10.8199,24.69 L13.46,25.54 L27.53,-18.55 C27.76,-19.28 27.4699,-19.9699 26.73,-20.26"/>
<path class="Rest" transform="matrix(1.78583,0,0,1.78583,1551.2,2141.57)" d="M26.73,-20.26 C25.9899,-20.5399 25.31,-20.21 24.98,-19.6 C24.65,-18.9899 21.4699,-13.06 17.0399,-9.8 C15.65,-8.77998 14.0699,-8.13994 12.5,-7.80996 C13.6199,-9.06992 14.3,-10.73 14.3,-12.55 C14.3,-16.5 11.1,-19.7 7.15,-19.7 C3.2,-19.7 0,-16.5 0,-12.55 C0,-9.53994 1.86992,-6.95996 4.50996,-5.90996 C6.03994,-5.17998 7.95,-4.73994 10,-4.73994 C12.85,-4.73994 15.96,-5.56992 18.6699,-7.55996 C19.93,-8.48994 21.13,-9.67998 22.21,-10.9399 L10.8199,24.69 L13.46,25.54 L27.53,-18.55 C27.76,-19.28 27.4699,-19.9699 26.73,-20.26"/>
<path class="Rest" transform="matrix(1.78583,0,0,1.78583,2829.97,2141.57)" d="M26.73,-20.26 C25.9899,-20.5399 25.31,-20.21 24.98,-19.6 C24.65,-18.9899 21.4699,-13.06 17.0399,-9.8 C15.65,-8.77998 14.0699,-8.13994 12.5,-7.80996 C13.6199,-9.06992 14.3,-10.73 14.3,-12.55 C14.3,-16.5 11.1,-19.7 7.15,-19.7 C3.2,-19.7 0,-16.5 0,-12.55 C0,-9.53994 1.86992,-6.95996 4.50996,-5.90996 C6.03994,-5.17998 7.95,-4.73994 10,-4.73994 C12.85,-4.73994 15.96,-5.56992 18.6699,-7.55996 C19.93,-8.48994 21.13,-9.67998 22.21,-10.9399 L10.8199,24.69 L13.46,25.54 L27.53,-18.55 C27.76,-19.28 27.4699,-19.9699 26.73,-20.26"/>
<path class="Beam" fill-rule="evenodd" d="M924.863,550.787 L1114.86,562.244 L1114.86,584.608 L924.863,573.15 L924.863,550.787 "/>
<path class="Beam" fill-rule="evenodd" d="M1252.23,595.418 L1399.42,606.965 L1399.42,629.356 L1252.23,617.81 L1252.23,595.418 "/>
<path class="Beam" fill-rule="evenodd" d="M1656.44,595.415 L1796.58,606.981 L1796.58,629.38 L1656.44,617.813 L1656.44,595.415 "/>
<path class="Beam" fill-rule="evenodd" d="M1926.9,606.614 L2067.04,606.614 L2067.04,628.937 L1926.9,628.937 L1926.9,606.614 "/>
<path class="Beam" fill-rule="evenodd" d="M2317.01,595.418 L2464.2,606.965 L2464.2,629.356 L2317.01,617.81 L2317.01,595.418 "/>
<path class="Beam" fill-rule="evenodd" d="M2601.57,595.432 L2791.57,583.975 L2791.57,606.338 L2601.57,617.796 L2601.57,595.432 "/>
<path class="Beam" fill-rule="evenodd" d="M3517.64,550.787 L3707.64,562.244 L3707.64,584.608 L3517.64,573.15 L3517.64,550.787 "/>
<path class="Beam" fill-rule="evenodd" d="M3845.01,595.418 L3992.2,606.965 L3992.2,629.356 L3845.01,617.81 L3845.01,595.418 "/>
<path class="Beam" fill-rule="evenodd" d="M386.037,1429.86 L526.367,1441.43 L526.367,1463.83 L386.037,1452.26 L386.037,1429.86 "/>
<path class="Beam" fill-rule="evenodd" d="M656.874,1441.06 L797.204,1441.06 L797.204,1463.39 L656.874,1463.39 L656.874,1441.06 "/>
<path class="Beam" fill-rule="evenodd" d="M1047.36,1429.87 L1194.81,1441.41 L1194.81,1463.8 L1047.36,1452.26 L1047.36,1429.87 "/>
<path class="Beam" fill-rule="evenodd" d="M1332.43,1429.88 L1522.43,1418.42 L1522.43,1440.79 L1332.43,1452.24 L1332.43,1429.88 "/>
<path class="Beam" fill-rule="evenodd" d="M1779.7,1395.88 L1927.14,1442.07 L1927.14,1465.46 L1779.7,1419.27 L1779.7,1395.88 "/>
<path class="Beam" fill-rule="evenodd" d="M2064.77,1429.88 L2254.76,1418.42 L2254.76,1440.79 L2064.77,1452.24 L2064.77,1429.88 "/>
<path class="Beam" fill-rule="evenodd" d="M2747.55,1385.26 L2872.99,1385.26 L2872.99,1407.58 L2747.55,1407.58 L2747.55,1385.26 "/>
<path class="Beam" fill-rule="evenodd" d="M3329.99,1429.86 L3470.32,1441.43 L3470.32,1463.83 L3329.99,1452.26 L3329.99,1429.86 "/>
<path class="Beam" fill-rule="evenodd" d="M3884.05,1429.9 L4009.49,1429.9 L4009.49,1452.22 L3884.05,1452.22 L3884.05,1429.9 "/>
<path class="Beam" fill-rule="evenodd" d="M614.977,2208.51 L761.146,2220.06 L761.146,2242.45 L614.977,2230.9 L614.977,2208.51 "/>
<path class="Beam" fill-rule="evenodd" d="M1239.6,2230.86 L1365.04,2230.86 L1365.04,2253.19 L1239.6,2253.19 L1239.6,2230.86 "/>
<path class="Beam" fill-rule="evenodd" d="M1851.84,2264.33 L2041.84,2252.87 L2041.84,2275.23 L1851.84,2286.69 L1851.84,2264.33 "/>
<path class="Beam" fill-rule="evenodd" d="M2518.37,2219.7 L2643.82,2219.7 L2643.82,2242.03 L2518.37,2242.03 L2518.37,2219.7 "/>
<path class="Beam" fill-rule="evenodd" d="M3130.61,2264.33 L3320.61,2252.87 L3320.61,2275.23 L3130.61,2286.69 L3130.61,2264.33 "/>
<path class="Beam" fill-rule="evenodd" d="M3844.54,2219.7 L3969.98,2219.7 L3969.98,2242.03 L3844.54,2242.03 L3844.54,2219.7 "/>
<path class="Hook" transform="matrix(1.78583,0,0,1.78583,655.663,651.26)" d="M2.5,0.4 C2.5,0.2 3.4,-3.2 3.5,-3.5 C3.6,-3.9 5.4,-9.6 9.1,-15.3 C11.8,-19.5 21.3,-31.8 21,-31.8 C21,-31.8 28.4,-41.3 28.9,-54.2 L28.9,-56.5 C28.9,-62.6 28.1,-71.2 24.6,-79.9 C24.2,-80.9 23.8,-81.9 22.7,-81.5 C21.6,-81.1 21.9,-79.9 22.2,-78.8 C24,-71.8 25,-64.6 25,-57.4 C25,-49 22,-44.8 20.2,-41.7 C13.6,-30.6 5,-25.2 0.8,-23.8 C0.3,-23.6 0,-23.2 0,-22.7 L0,-16.5 L0,-0.1 C0,0.6 0.6,1.2 1.3,1.2 C1.8,1.2 2.4,0.8 2.5,0.4"/>
<path class="Hook" transform="matrix(1.78583,0,0,1.78583,3273,651.26)" d="M2.5,0.4 C2.5,0.2 3.4,-3.2 3.5,-3.5 C3.6,-3.9 5.4,-9.6 9.1,-15.3 C11.8,-19.5 21.3,-31.8 21,-31.8 C21,-31.8 28.4,-41.3 28.9,-54.2 L28.9,-56.5 C28.9,-62.6 28.1,-71.2 24.6,-79.9 C24.2,-80.9 23.8,-81.9 22.7,-81.5 C21.6,-81.1 21.9,-79.9 22.2,-78.8 C24,-71.8 25,-64.6 25,-57.4 C25,-49 22,-44.8 20.2,-41.7 C13.6,-30.6 5,-25.2 0.8,-23.8 C0.3,-23.6 0,-23.2 0,-22.7 L0,-16.5 L0,-0.1 C0,0.6 0.6,1.2 1.3,1.2 C1.8,1.2 2.4,0.8 2.5,0.4"/>
<path class="Hook" transform="matrix(1.78583,0,0,1.78583,3194.57,1485.71)" d="M2.5,0.4 C2.5,0.2 3.4,-3.2 3.5,-3.5 C3.6,-3.9 5.4,-9.6 9.1,-15.3 C11.8,-19.5 21.3,-31.8 21,-31.8 C21,-31.8 28.4,-41.3 28.9,-54.2 L28.9,-56.5 C28.9,-62.6 28.1,-71.2 24.6,-79.9 C24.2,-80.9 23.8,-81.9 22.7,-81.5 C21.6,-81.1 21.9,-79.9 22.2,-78.8 C24,-71.8 25,-64.6 25,-57.4 C25,-49 22,-44.8 20.2,-41.7 C13.6,-30.6 5,-25.2 0.8,-23.8 C0.3,-23.6 0,-23.2 0,-22.7 L0,-16.5 L0,-0.1 C0,0.6 0.6,1.2 1.3,1.2 C1.8,1.2 2.4,0.8 2.5,0.4"/>
<path class="Hook" transform="matrix(1.78583,0,0,1.78583,473.719,2320.16)" d="M2.5,0.4 C2.5,0.2 3.4,-3.2 3.5,-3.5 C3.6,-3.9 5.4,-9.6 9.1,-15.3 C11.8,-19.5 21.3,-31.8 21,-31.8 C21,-31.8 28.4,-41.3 28.9,-54.2 L28.9,-56.5 C28.9,-62.6 28.1,-71.2 24.6,-79.9 C24.2,-80.9 23.8,-81.9 22.7,-81.5 C21.6,-81.1 21.9,-79.9 22.2,-78.8 C24,-71.8 25,-64.6 25,-57.4 C25,-49 22,-44.8 20.2,-41.7 C13.6,-30.6 5,-25.2 0.8,-23.8 C0.3,-23.6 0,-23.2 0,-22.7 L0,-16.5 L0,-0.1 C0,0.6 0.6,1.2 1.3,1.2 C1.8,1.2 2.4,0.8 2.5,0.4"/>
<path class="Hook" transform="matrix(1.78583,0,0,1.78583,1701.52,2320.16)" d="M2.5,0.4 C2.5,0.2 3.4,-3.2 3.5,-3.5 C3.6,-3.9 5.4,-9.6 9.1,-15.3 C11.8,-19.5 21.3,-31.8 21,-31.8 C21,-31.8 28.4,-41.3 28.9,-54.2 L28.9,-56.5 C28.9,-62.6 28.1,-71.2 24.6,-79.9 C24.2,-80.9 23.8,-81.9 22.7,-81.5 C21.6,-81.1 21.9,-79.9 22.2,-78.8 C24,-71.8 25,-64.6 25,-57.4 C25,-49 22,-44.8 20.2,-41.7 C13.6,-30.6 5,-25.2 0.8,-23.8 C0.3,-23.6 0,-23.2 0,-22.7 L0,-16.5 L0,-0.1 C0,0.6 0.6,1.2 1.3,1.2 C1.8,1.2 2.4,0.8 2.5,0.4"/>
<path class="Hook" transform="matrix(1.78583,0,0,1.78583,2980.29,2320.16)" d="M2.5,0.4 C2.5,0.2 3.4,-3.2 3.5,-3.5 C3.6,-3.9 5.4,-9.6 9.1,-15.3 C11.8,-19.5 21.3,-31.8 21,-31.8 C21,-31.8 28.4,-41.3 28.9,-54.2 L28.9,-56.5 C28.9,-62.6 28.1,-71.2 24.6,-79.9 C24.2,-80.9 23.8,-81.9 22.7,-81.5 C21.6,-81.1 21.9,-79.9 22.2,-78.8 C24,-71.8 25,-64.6 25,-57.4 C25,-49 22,-44.8 20.2,-41.7 C13.6,-30.6 5,-25.2 0.8,-23.8 C0.3,-23.6 0,-23.2 0,-22.7 L0,-16.5 L0,-0.1 C0,0.6 0.6,1.2 1.3,1.2 C1.8,1.2 2.4,0.8 2.5,0.4"/>
<path class="Jump" d="M3946.73,1962.99 L3979.66,1962.99 C3988.38,1962.99 3995.04,1961.62 4000.24,1958.68 C4010.13,1953.09 4015.62,1941.92 4015.62,1927.22 C4015.62,1913.7 4010.72,1903.11 4001.71,1897.23 C3996.32,1893.8 3989.06,1892.23 3977.89,1892.23 L3946.73,1892.23 L3946.73,1896.84 L3948.59,1896.84 C3954.08,1896.94 3955.94,1897.23 3956.72,1898.21 C3957.31,1899.09 3957.31,1899.29 3957.31,1904.29 L3957.31,1950.94 C3957.31,1955.93 3957.31,1956.13 3956.72,1957.01 C3955.94,1957.99 3954.08,1958.29 3948.59,1958.38 L3946.73,1958.38 L3946.73,1962.99 M3973.87,1958.38 C3968.88,1958.38 3968.29,1957.8 3968.29,1952.99 L3968.29,1902.33 C3968.29,1897.53 3968.97,1896.84 3973.87,1896.84 L3978.97,1896.84 C3995.73,1896.84 4002.69,1905.95 4002.69,1927.61 C4002.69,1949.56 3996.41,1958.38 3980.54,1958.38 L3973.87,1958.38 M4033.55,1952.11 C4030.12,1952.11 4027.37,1954.86 4027.37,1958.19 C4027.37,1961.62 4030.12,1964.36 4033.45,1964.36 C4036.88,1964.36 4039.62,1961.62 4039.62,1958.19 C4039.62,1954.86 4036.88,1952.11 4033.55,1952.11 M4109.98,1891.55 L4106.25,1891.55 L4102.33,1897.33 C4095.18,1892.14 4091.55,1890.76 4084.79,1890.76 C4075.48,1890.76 4067.54,1894.68 4060.98,1902.52 C4054.7,1909.97 4051.76,1918.2 4051.76,1928.3 C4051.76,1949.47 4065.58,1964.46 4084.89,1964.46 C4100.57,1964.46 4110.56,1955.25 4112.82,1938.78 L4108.21,1938 C4105.57,1952.6 4098.12,1959.85 4086.06,1959.85 C4071.56,1959.85 4064.7,1949.86 4064.7,1928.69 C4064.7,1917.52 4066.17,1910.17 4069.5,1904.29 C4072.54,1898.8 4078.52,1895.37 4084.89,1895.37 C4091.75,1895.37 4097.82,1899 4101.55,1905.27 C4103.41,1908.5 4104.78,1912.13 4107.13,1919.87 L4111.45,1919.87 L4109.98,1891.55 M4131.05,1952.11 C4127.62,1952.11 4124.87,1954.86 4124.87,1958.19 C4124.87,1961.62 4127.62,1964.36 4130.95,1964.36 C4134.38,1964.36 4137.12,1961.62 4137.12,1958.19 C4137.12,1954.86 4134.38,1952.11 4131.05,1952.11"/>
<path class="VoltaSegment" d="M2274.86,1872.51 L2271.43,1872.51 C2265.25,1877.11 2258.29,1879.07 2246.63,1879.27 L2246.63,1884.76 L2250.75,1884.76 C2259.47,1884.76 2259.57,1884.95 2259.47,1892.99 L2259.47,1927.78 C2259.47,1933.86 2259.47,1934.15 2258.78,1935.13 C2257.9,1936.21 2255.94,1936.6 2250.65,1936.6 L2247.51,1936.6 L2247.51,1941.89 L2286.62,1941.89 L2286.62,1936.6 L2283.48,1936.6 C2278.29,1936.6 2276.42,1936.21 2275.54,1935.13 C2274.86,1934.15 2274.86,1933.76 2274.86,1927.78 L2274.86,1872.51 M2308.37,1924.94 C2303.27,1924.94 2299.16,1929.05 2299.16,1934.15 C2299.16,1939.15 2303.27,1943.36 2308.27,1943.36 C2313.47,1943.36 2317.58,1939.25 2317.58,1934.15 C2317.58,1929.05 2313.47,1924.94 2308.37,1924.94"/>
<polyline class="VoltaSegment" fill="none" stroke="#000000" stroke-width="4.91" stroke-linecap="square" stroke-linejoin="bevel" points="2219.84,1941.89 2219.84,1843.67"/>
<polyline class="VoltaSegment" fill="none" stroke="#000000" stroke-width="4.91" stroke-linecap="square" stroke-linejoin="bevel" points="2219.84,1843.67 3519.85,1843.67"/>
<polyline class="VoltaSegment" fill="none" stroke="#000000" stroke-width="4.91" stroke-linecap="square" stroke-linejoin="bevel" points="3519.85,1843.67 3519.85,1941.89"/>
<path class="VoltaSegment" d="M3617.67,1915.82 L3616.59,1920.72 C3615.71,1924.64 3615.12,1925.92 3614.34,1926.41 C3613.36,1927.09 3613.16,1927.09 3606.99,1927.19 L3588.07,1927.19 C3591.5,1924.25 3594.05,1922.39 3597.87,1919.84 C3611.69,1910.92 3614.53,1908.77 3617.38,1905.14 C3620.71,1900.73 3622.67,1895.54 3622.67,1890.93 C3622.67,1880.45 3612.38,1872.51 3598.56,1872.51 C3585.23,1872.51 3574.94,1881.13 3574.94,1892.3 C3574.94,1899.16 3578.76,1903.57 3584.64,1903.57 C3589.74,1903.57 3592.97,1900.34 3592.97,1895.24 C3592.97,1891.03 3591.11,1888.58 3586.6,1886.42 C3585.53,1885.93 3585.04,1885.35 3585.04,1884.56 C3585.04,1881.43 3590.33,1878.09 3595.23,1878.09 C3602.09,1878.09 3606.01,1882.31 3606.01,1889.56 C3606.01,1897.69 3602.87,1903.48 3592.48,1914.55 C3581.51,1926.21 3577.69,1930.62 3572.79,1937.68 L3572.79,1942.28 C3575.33,1941.99 3576.41,1941.89 3577.88,1941.89 L3614.73,1941.89 C3616.59,1941.89 3617.77,1941.99 3620.71,1942.28 L3622.96,1915.82 L3617.67,1915.82 M3640.8,1924.94 C3635.7,1924.94 3631.58,1929.05 3631.58,1934.15 C3631.58,1939.15 3635.7,1943.36 3640.7,1943.36 C3645.89,1943.36 3650.01,1939.25 3650.01,1934.15 C3650.01,1929.05 3645.89,1924.94 3640.8,1924.94"/>
<polyline class="VoltaSegment" fill="none" stroke="#000000" stroke-width="4.91" stroke-linecap="square" stroke-linejoin="bevel" points="3546,1941.89 3546,1843.67"/>
<polyline class="VoltaSegment" fill="none" stroke="#000000" stroke-width="4.91" stroke-linecap="square" stroke-linejoin="bevel" points="3546,1843.67 4094.08,1843.67"/>
</svg>
