<?xml version="1.0" encoding="UTF-8" standalone="no"?>
<svg width="4208.47px" height="2977.23px" viewBox="0 0 4208.47 2977.23"
 xmlns="http://www.w3.org/2000/svg" xmlns:xlink="http://www.w3.org/1999/xlink" version="1.2" baseProfile="tiny">
<title>Saxofone Alto</title>
<desc>Generated by MuseScore 3.6.2</desc>
<polyline class="StaffLines" fill="none" stroke="#000000" stroke-width="4.03" stroke-linejoin="bevel" points="212.598,827.817 3995.01,827.817"/>
<polyline class="StaffLines" fill="none" stroke="#000000" stroke-width="4.03" stroke-linejoin="bevel" points="212.598,878.132 3995.01,878.132"/>
<polyline class="StaffLines" fill="none" stroke="#000000" stroke-width="4.03" stroke-linejoin="bevel" points="212.598,928.447 3995.01,928.447"/>
<polyline class="StaffLines" fill="none" stroke="#000000" stroke-width="4.03" stroke-linejoin="bevel" points="212.598,978.762 3995.01,978.762"/>
<polyline class="StaffLines" fill="none" stroke="#000000" stroke-width="4.03" stroke-linejoin="bevel" points="212.598,1029.08 3995.01,1029.08"/>
<polyline class="StaffLines" fill="none" stroke="#000000" stroke-width="4.03" stroke-linejoin="bevel" points="212.598,1519.49 3995.01,1519.49"/>
<polyline class="StaffLines" fill="none" stroke="#000000" stroke-width="4.03" stroke-linejoin="bevel" points="212.598,1569.81 3995.01,1569.81"/>
<polyline class="StaffLines" fill="none" stroke="#000000" stroke-width="4.03" stroke-linejoin="bevel" points="212.598,1620.12 3995.01,1620.12"/>
<polyline class="StaffLines" fill="none" stroke="#000000" stroke-width="4.03" stroke-linejoin="bevel" points="212.598,1670.44 3995.01,1670.44"/>
<polyline class="StaffLines" fill="none" stroke="#000000" stroke-width="4.03" stroke-linejoin="bevel" points="212.598,1720.75 3995.01,1720.75"/>
<polyline class="StaffLines" fill="none" stroke="#000000" stroke-width="4.03" stroke-linejoin="bevel" points="212.598,2211.17 3995.01,2211.17"/>
<polyline class="StaffLines" fill="none" stroke="#000000" stroke-width="4.03" stroke-linejoin="bevel" points="212.598,2261.48 3995.01,2261.48"/>
<polyline class="StaffLines" fill="none" stroke="#000000" stroke-width="4.03" stroke-linejoin="bevel" points="212.598,2311.8 3995.01,2311.8"/>
<polyline class="StaffLines" fill="none" stroke="#000000" stroke-width="4.03" stroke-linejoin="bevel" points="212.598,2362.11 3995.01,2362.11"/>
<polyline class="StaffLines" fill="none" stroke="#000000" stroke-width="4.03" stroke-linejoin="bevel" points="212.598,2412.43 3995.01,2412.43"/>
<path class="Text" d="M1870.63,212.596 L1870.63,214.876 C1867.67,215.036 1865.57,215.756 1864.33,217.036 C1863.09,218.316 1861.51,221.316 1859.59,226.036 L1832.95,293.356 L1831.15,293.356 L1801.63,227.476 C1799.31,222.196 1797.37,218.816 1795.81,217.336 C1794.25,215.856 1791.95,215.036 1788.91,214.876 L1788.91,212.596 L1820.83,212.596 L1820.83,214.876 C1818.59,215.036 1817.43,215.116 1817.35,215.116 C1813.67,215.356 1811.83,216.596 1811.83,218.836 C1811.83,220.436 1813.47,224.876 1816.75,232.156 L1834.87,272.716 L1852.51,228.676 C1854.03,224.836 1854.79,221.916 1854.79,219.916 C1854.79,218.236 1854.15,217.016 1852.87,216.256 C1851.59,215.496 1849.31,215.036 1846.03,214.876 L1846.03,212.596 L1870.63,212.596 M1883.46,258.796 C1883.62,263.836 1884.3,268.176 1885.5,271.816 C1886.7,275.456 1888.26,278.176 1890.18,279.976 C1892.1,281.776 1894.04,283.056 1896,283.816 C1897.96,284.576 1900.02,284.956 1902.18,284.956 C1906.02,284.956 1909.36,283.996 1912.2,282.076 C1915.04,280.156 1917.9,276.916 1920.78,272.356 L1922.7,273.196 C1920.22,279.676 1916.78,284.636 1912.38,288.076 C1907.98,291.516 1902.94,293.236 1897.26,293.236 C1890.38,293.236 1884.92,290.816 1880.88,285.976 C1876.84,281.136 1874.82,274.596 1874.82,266.356 C1874.82,257.476 1877.16,250.336 1881.84,244.936 C1886.52,239.536 1892.54,236.836 1899.9,236.836 C1905.98,236.836 1910.7,238.656 1914.06,242.296 C1917.42,245.936 1919.54,251.436 1920.42,258.796 L1883.46,258.796 M1883.7,254.956 L1908.18,254.956 C1907.38,249.756 1906.14,246.156 1904.46,244.156 C1902.78,242.156 1900.1,241.156 1896.42,241.156 C1889.22,241.156 1884.98,245.756 1883.7,254.956 M1926.64,244.276 L1926.64,242.236 C1932.4,240.636 1938,238.836 1943.44,236.836 L1944.28,237.076 L1944.28,246.076 C1949.24,242.316 1952.92,239.836 1955.32,238.636 C1957.72,237.436 1960.24,236.836 1962.88,236.836 C1969.2,236.836 1973.44,240.196 1975.6,246.916 C1981.84,240.196 1988.36,236.836 1995.16,236.836 C2004.44,236.836 2009.08,243.956 2009.08,258.196 L2009.08,282.916 C2009.08,287.396 2010.8,289.756 2014.24,289.996 L2017.36,290.236 L2017.36,292.036 L1991.08,292.036 L1991.08,290.236 C1994.6,289.836 1996.8,289.156 1997.68,288.196 C1998.56,287.236 1999,285.036 1999,281.596 L1999,256.276 C1999,251.316 1998.36,247.876 1997.08,245.956 C1995.8,244.036 1993.44,243.076 1990,243.076 C1984.72,243.076 1980.36,245.516 1976.92,250.396 L1976.92,280.636 C1976.92,284.396 1977.5,286.916 1978.66,288.196 C1979.82,289.476 1982.12,290.156 1985.56,290.236 L1985.56,292.036 L1958.68,292.036 L1958.68,290.236 C1962.12,289.996 1964.34,289.356 1965.34,288.316 C1966.34,287.276 1966.84,285.076 1966.84,281.716 L1966.84,255.676 C1966.84,247.276 1964.2,243.076 1958.92,243.076 C1956.68,243.076 1954.18,243.636 1951.42,244.756 C1948.66,245.876 1946.44,247.676 1944.76,250.156 L1944.76,283.996 C1944.76,286.316 1945.32,287.896 1946.44,288.736 C1947.56,289.576 1949.72,290.076 1952.92,290.236 L1952.92,292.036 L1926.28,292.036 L1926.28,290.236 C1929.64,290.156 1931.88,289.556 1933,288.436 C1934.12,287.316 1934.68,285.116 1934.68,281.836 L1934.68,251.476 C1934.68,248.596 1934.38,246.596 1933.78,245.476 C1933.18,244.356 1932.08,243.796 1930.48,243.796 C1929.28,243.796 1928,243.956 1926.64,244.276 M2129.79,223.276 L2099.07,292.036 L2097.39,292.036 L2067.27,226.036 L2067.27,274.396 C2067.27,280.476 2067.99,284.496 2069.43,286.456 C2070.87,288.416 2073.91,289.516 2078.55,289.756 L2078.55,292.036 L2050.35,292.036 L2050.35,289.756 C2055.31,289.436 2058.49,288.336 2059.89,286.456 C2061.29,284.576 2061.99,280.556 2061.99,274.396 L2061.99,225.676 C2061.99,221.276 2061.33,218.456 2060.01,217.216 C2058.69,215.976 2055.55,215.196 2050.59,214.876 L2050.59,212.596 L2074.35,212.596 L2102.07,273.196 L2128.59,212.596 L2152.47,212.596 L2152.47,214.876 C2147.99,215.276 2145.13,216.116 2143.89,217.396 C2142.65,218.676 2142.03,221.436 2142.03,225.676 L2142.03,278.956 C2142.03,283.196 2142.67,285.976 2143.95,287.296 C2145.23,288.616 2148.07,289.436 2152.47,289.756 L2152.47,292.036 L2118.87,292.036 L2118.87,289.756 C2123.59,289.436 2126.59,288.576 2127.87,287.176 C2129.15,285.776 2129.79,282.596 2129.79,277.636 L2129.79,223.276 M2183.79,236.836 C2191.47,236.836 2197.79,239.396 2202.75,244.516 C2207.71,249.636 2210.19,256.116 2210.19,263.956 C2210.19,272.276 2207.63,279.236 2202.51,284.836 C2197.39,290.436 2191.07,293.236 2183.55,293.236 C2176.03,293.236 2169.77,290.536 2164.77,285.136 C2159.77,279.736 2157.27,272.996 2157.27,264.916 C2157.27,256.676 2159.73,249.936 2164.65,244.696 C2169.57,239.456 2175.95,236.836 2183.79,236.836 M2168.07,259.036 C2168.07,267.596 2169.63,274.876 2172.75,280.876 C2175.87,286.876 2179.95,289.876 2184.99,289.876 C2189.47,289.876 2192.99,287.956 2195.55,284.116 C2198.11,280.276 2199.39,274.956 2199.39,268.156 C2199.39,259.916 2197.79,253.196 2194.59,247.996 C2191.39,242.796 2187.27,240.196 2182.23,240.196 C2177.99,240.196 2174.57,241.916 2171.97,245.356 C2169.37,248.796 2168.07,253.356 2168.07,259.036 M2249.3,248.596 C2248.1,248.596 2246.62,247.896 2244.86,246.496 C2243.1,245.096 2241.94,244.396 2241.38,244.396 C2239.78,244.396 2237.98,245.556 2235.98,247.876 C2233.98,250.196 2232.98,252.316 2232.98,254.236 L2232.98,281.236 C2232.98,284.676 2233.66,286.996 2235.02,288.196 C2236.38,289.396 2239.1,290.076 2243.18,290.236 L2243.18,292.036 L2214.38,292.036 L2214.38,290.236 C2218.22,289.516 2220.6,288.716 2221.52,287.836 C2222.44,286.956 2222.9,284.996 2222.9,281.956 L2222.9,251.956 C2222.9,249.316 2222.6,247.456 2222,246.376 C2221.4,245.296 2220.34,244.756 2218.82,244.756 C2217.54,244.756 2216.14,244.916 2214.62,245.236 L2214.62,243.316 C2221.02,241.236 2226.94,239.076 2232.38,236.836 L2232.98,237.076 L2232.98,248.116 C2235.94,243.876 2238.46,240.936 2240.54,239.296 C2242.62,237.656 2244.9,236.836 2247.38,236.836 C2249.46,236.836 2251.08,237.396 2252.24,238.516 C2253.4,239.636 2253.98,241.196 2253.98,243.196 C2253.98,244.876 2253.56,246.196 2252.72,247.156 C2251.88,248.116 2250.74,248.596 2249.3,248.596 M2266.21,258.796 C2266.37,263.836 2267.05,268.176 2268.25,271.816 C2269.45,275.456 2271.01,278.176 2272.93,279.976 C2274.85,281.776 2276.79,283.056 2278.75,283.816 C2280.71,284.576 2282.77,284.956 2284.93,284.956 C2288.77,284.956 2292.11,283.996 2294.95,282.076 C2297.79,280.156 2300.65,276.916 2303.53,272.356 L2305.45,273.196 C2302.97,279.676 2299.53,284.636 2295.13,288.076 C2290.73,291.516 2285.69,293.236 2280.01,293.236 C2273.13,293.236 2267.67,290.816 2263.63,285.976 C2259.59,281.136 2257.57,274.596 2257.57,266.356 C2257.57,257.476 2259.91,250.336 2264.59,244.936 C2269.27,239.536 2275.29,236.836 2282.65,236.836 C2288.73,236.836 2293.45,238.656 2296.81,242.296 C2300.17,245.936 2302.29,251.436 2303.17,258.796 L2266.21,258.796 M2266.45,254.956 L2290.93,254.956 C2290.13,249.756 2288.89,246.156 2287.21,244.156 C2285.53,242.156 2282.85,241.156 2279.17,241.156 C2271.97,241.156 2267.73,245.756 2266.45,254.956 M2309.03,244.276 L2309.03,242.236 C2314.95,240.476 2320.47,238.676 2325.59,236.836 L2326.43,237.076 L2326.43,246.556 C2330.51,242.716 2333.73,240.136 2336.09,238.816 C2338.45,237.496 2341.03,236.836 2343.83,236.836 C2348.23,236.836 2351.69,238.416 2354.21,241.576 C2356.73,244.736 2357.99,249.156 2357.99,254.836 L2357.99,282.316 C2357.99,285.276 2358.47,287.256 2359.43,288.256 C2360.39,289.256 2362.35,289.916 2365.31,290.236 L2365.31,292.036 L2340.35,292.036 L2340.35,290.236 C2343.39,289.996 2345.41,289.196 2346.41,287.836 C2347.41,286.476 2347.91,283.916 2347.91,280.156 L2347.91,255.076 C2347.91,247.316 2344.99,243.436 2339.15,243.436 C2337.15,243.436 2335.31,243.896 2333.63,244.816 C2331.95,245.736 2329.67,247.556 2326.79,250.276 L2326.79,283.996 C2326.79,286.156 2327.35,287.676 2328.47,288.556 C2329.59,289.436 2331.67,289.996 2334.71,290.236 L2334.71,292.036 L2309.27,292.036 L2309.27,290.236 C2312.31,289.996 2314.31,289.296 2315.27,288.136 C2316.23,286.976 2316.71,284.676 2316.71,281.236 L2316.71,251.476 C2316.71,248.516 2316.39,246.496 2315.75,245.416 C2315.11,244.336 2313.95,243.796 2312.27,243.796 C2310.75,243.796 2309.67,243.956 2309.03,244.276 M2369.5,280.396 C2369.5,278.956 2369.66,277.616 2369.98,276.376 C2370.3,275.136 2370.86,273.976 2371.66,272.896 C2372.46,271.816 2373.22,270.836 2373.94,269.956 C2374.66,269.076 2375.74,268.176 2377.18,267.256 C2378.62,266.336 2379.82,265.576 2380.78,264.976 C2381.74,264.376 2383.2,263.656 2385.16,262.816 C2387.12,261.976 2388.62,261.336 2389.66,260.896 C2390.7,260.456 2392.34,259.796 2394.58,258.916 C2396.82,258.036 2398.46,257.396 2399.5,256.996 L2399.5,249.676 C2399.5,243.036 2396.46,239.716 2390.38,239.716 C2387.98,239.716 2385.94,240.296 2384.26,241.456 C2382.58,242.616 2381.74,243.996 2381.74,245.596 C2381.74,246.236 2381.84,247.116 2382.04,248.236 C2382.24,249.356 2382.34,250.076 2382.34,250.396 C2382.34,251.756 2381.8,252.936 2380.72,253.936 C2379.64,254.936 2378.38,255.436 2376.94,255.436 C2375.58,255.436 2374.38,254.916 2373.34,253.876 C2372.3,252.836 2371.78,251.636 2371.78,250.276 C2371.78,246.516 2373.72,243.336 2377.6,240.736 C2381.48,238.136 2386.26,236.836 2391.94,236.836 C2398.5,236.836 2403.02,238.416 2405.5,241.576 C2407.98,244.736 2409.22,249.556 2409.22,256.036 L2409.22,279.436 C2409.22,282.076 2409.48,283.896 2410,284.896 C2410.52,285.896 2411.46,286.396 2412.82,286.396 C2414.5,286.396 2416.26,285.636 2418.1,284.116 L2418.1,287.236 C2416.02,289.556 2414.2,291.136 2412.64,291.976 C2411.08,292.816 2409.3,293.236 2407.3,293.236 C2404.82,293.236 2403,292.556 2401.84,291.196 C2400.68,289.836 2399.94,287.596 2399.62,284.476 C2392.74,290.316 2386.9,293.236 2382.1,293.236 C2378.42,293.236 2375.4,292.036 2373.04,289.636 C2370.68,287.236 2369.5,284.156 2369.5,280.396 M2399.5,277.276 L2399.5,259.876 C2392.3,262.516 2387.26,265.076 2384.38,267.556 C2381.5,270.036 2380.06,273.036 2380.06,276.556 C2380.06,279.836 2380.86,282.276 2382.46,283.876 C2384.06,285.476 2385.78,286.276 2387.62,286.276 C2390.34,286.276 2393.26,285.356 2396.38,283.516 C2397.66,282.796 2398.5,282.036 2398.9,281.236 C2399.3,280.436 2399.5,279.116 2399.5,277.276"/>
<path class="MeasureNumber" d="M229.999,1365.24 L229.999,1366.54 L212.827,1419.51 L207.562,1419.51 L223.6,1371.23 L206.023,1371.23 C203.809,1371.23 202.121,1371.64 200.96,1372.45 C199.799,1373.26 198.355,1375.04 196.627,1377.79 L195.25,1377.15 L200.029,1365.24 L229.999,1365.24 "/>
<path class="MeasureNumber" d="M183.453,2062.5 C182.481,2062.5 180.537,2063.1 177.621,2064.28 L177.621,2063.15 L192.201,2055.78 L192.849,2055.94 L192.849,2104.54 C192.849,2106.49 193.335,2107.75 194.307,2108.35 C195.279,2108.94 197.358,2109.27 200.544,2109.32 L200.544,2110.54 L178.188,2110.54 L178.188,2109.32 C181.212,2109.21 183.25,2108.77 184.303,2107.98 C185.356,2107.2 185.883,2105.54 185.883,2103 L185.883,2066.31 C185.883,2063.77 185.073,2062.5 183.453,2062.5 M211.641,2071.9 C211.911,2070.66 212.181,2069.58 212.451,2068.66 C212.721,2067.74 213.301,2066.4 214.192,2064.65 C215.083,2062.89 216.082,2061.44 217.189,2060.28 C218.296,2059.11 219.835,2058.07 221.806,2057.16 C223.777,2056.24 226.005,2055.78 228.489,2055.78 C232.701,2055.78 236.251,2057.16 239.14,2059.91 C242.029,2062.66 243.474,2066.07 243.474,2070.12 C243.474,2076.22 240.018,2082.89 233.106,2090.12 L219.498,2104.38 L238.857,2104.38 C240.693,2104.38 242.056,2104.07 242.947,2103.45 C243.838,2102.83 245.04,2101.36 246.552,2099.03 L247.605,2099.44 L243.15,2110.54 L211.56,2110.54 L211.56,2109.56 L225.978,2094.25 C232.998,2086.8 236.508,2079.78 236.508,2073.19 C236.508,2069.79 235.455,2067.04 233.349,2064.93 C231.243,2062.83 228.489,2061.77 225.087,2061.77 C222.279,2061.77 220.024,2062.54 218.323,2064.08 C216.622,2065.62 214.962,2068.36 213.342,2072.3 L211.641,2071.9 "/>
<path class="TieSegment" stroke="#000000" stroke-width="3.52" stroke-linecap="round" stroke-linejoin="round" fill-rule="evenodd" d="M2035.04,2374.69 C2236.41,2436.07 2840.55,2436.07 3041.93,2374.69 C2840.55,2444.12 2236.41,2444.12 2035.04,2374.69"/>
<polyline class="BarLine" stroke="#000000" stroke-width="25.16" stroke-linejoin="bevel" points="960.21,825.805 960.21,1031.09"/>
<polyline class="BarLine" stroke="#000000" stroke-width="8.05" stroke-linejoin="bevel" points="996.94,825.805 996.94,1031.09"/>
<path class="BarLine" transform="matrix(2.0126,0,0,2.0126,1017.22,928.447)" d="M1.66016,-8.49609 C0.553385,-9.60286 0,-10.9375 0,-12.5 C0,-14.0625 0.553385,-15.3971 1.66016,-16.5039 C2.76693,-17.6107 4.10156,-18.1641 5.66406,-18.1641 C7.22656,-18.1641 8.5612,-17.6107 9.66797,-16.5039 C10.7747,-15.3971 11.3281,-14.0625 11.3281,-12.5 C11.3281,-10.9375 10.7747,-9.60286 9.66797,-8.49609 C8.5612,-7.38932 7.22656,-6.83594 5.66406,-6.83594 C4.10156,-6.83594 2.76693,-7.38932 1.66016,-8.49609"/>
<path class="BarLine" transform="matrix(2.0126,0,0,2.0126,1017.22,978.762)" d="M1.66016,-8.49609 C0.553385,-9.60286 0,-10.9375 0,-12.5 C0,-14.0625 0.553385,-15.3971 1.66016,-16.5039 C2.76693,-17.6107 4.10156,-18.1641 5.66406,-18.1641 C7.22656,-18.1641 8.5612,-17.6107 9.66797,-16.5039 C10.7747,-15.3971 11.3281,-14.0625 11.3281,-12.5 C11.3281,-10.9375 10.7747,-9.60286 9.66797,-8.49609 C8.5612,-7.38932 7.22656,-6.83594 5.66406,-6.83594 C4.10156,-6.83594 2.76693,-7.38932 1.66016,-8.49609"/>
<polyline class="BarLine" stroke="#000000" stroke-width="8.05" stroke-linejoin="bevel" points="1539.53,825.805 1539.53,1031.09"/>
<polyline class="BarLine" stroke="#000000" stroke-width="8.05" stroke-linejoin="bevel" points="2048.78,825.805 2048.78,1031.09"/>
<polyline class="BarLine" stroke="#000000" stroke-width="8.05" stroke-linejoin="bevel" points="2558.02,825.805 2558.02,1031.09"/>
<path class="BarLine" transform="matrix(2.0126,0,0,2.0126,2976.54,928.447)" d="M1.66016,-8.49609 C0.553385,-9.60286 0,-10.9375 0,-12.5 C0,-14.0625 0.553385,-15.3971 1.66016,-16.5039 C2.76693,-17.6107 4.10156,-18.1641 5.66406,-18.1641 C7.22656,-18.1641 8.5612,-17.6107 9.66797,-16.5039 C10.7747,-15.3971 11.3281,-14.0625 11.3281,-12.5 C11.3281,-10.9375 10.7747,-9.60286 9.66797,-8.49609 C8.5612,-7.38932 7.22656,-6.83594 5.66406,-6.83594 C4.10156,-6.83594 2.76693,-7.38932 1.66016,-8.49609"/>
<path class="BarLine" transform="matrix(2.0126,0,0,2.0126,2976.54,978.762)" d="M1.66016,-8.49609 C0.553385,-9.60286 0,-10.9375 0,-12.5 C0,-14.0625 0.553385,-15.3971 1.66016,-16.5039 C2.76693,-17.6107 4.10156,-18.1641 5.66406,-18.1641 C7.22656,-18.1641 8.5612,-17.6107 9.66797,-16.5039 C10.7747,-15.3971 11.3281,-14.0625 11.3281,-12.5 C11.3281,-10.9375 10.7747,-9.60286 9.66797,-8.49609 C8.5612,-7.38932 7.22656,-6.83594 5.66406,-6.83594 C4.10156,-6.83594 2.76693,-7.38932 1.66016,-8.49609"/>
<polyline class="BarLine" stroke="#000000" stroke-width="8.05" stroke-linejoin="bevel" points="3019.64,825.805 3019.64,1031.09"/>
<polyline class="BarLine" stroke="#000000" stroke-width="25.16" stroke-linejoin="bevel" points="3056.37,825.805 3056.37,1031.09"/>
<polyline class="BarLine" stroke="#000000" stroke-width="8.05" stroke-linejoin="bevel" points="3481.74,825.805 3481.74,1031.09"/>
<polyline class="BarLine" stroke="#000000" stroke-width="8.05" stroke-linejoin="bevel" points="3990.99,825.805 3990.99,1031.09"/>
<polyline class="BarLine" stroke="#000000" stroke-width="8.05" stroke-linejoin="bevel" points="1429.68,1517.48 1429.68,1722.76"/>
<polyline class="BarLine" stroke="#000000" stroke-width="8.05" stroke-linejoin="bevel" points="2135.03,1517.48 2135.03,1722.76"/>
<polyline class="BarLine" stroke="#000000" stroke-width="8.05" stroke-linejoin="bevel" points="2580.28,1517.48 2580.28,1722.76"/>
<polyline class="BarLine" stroke="#000000" stroke-width="8.05" stroke-linejoin="bevel" points="3112.22,1517.48 3112.22,1722.76"/>
<polyline class="BarLine" stroke="#000000" stroke-width="8.05" stroke-linejoin="bevel" points="3990.99,1517.48 3990.99,1722.76"/>
<polyline class="BarLine" stroke="#000000" stroke-width="8.05" stroke-linejoin="bevel" points="1935.28,2209.15 1935.28,2414.44"/>
<polyline class="BarLine" stroke="#000000" stroke-width="8.05" stroke-linejoin="bevel" points="2963.13,2209.15 2963.13,2414.44"/>
<polyline class="BarLine" stroke="#000000" stroke-width="8.05" stroke-linejoin="bevel" points="3945.7,2209.15 3945.7,2414.44"/>
<polyline class="BarLine" stroke="#000000" stroke-width="25.16" stroke-linejoin="bevel" points="3982.43,2209.15 3982.43,2414.44"/>
<polyline class="Stem" stroke="#000000" stroke-width="6.54" stroke-linejoin="bevel" points="714.474,812.11 714.474,966.184"/>
<polyline class="Stem" stroke="#000000" stroke-width="6.54" stroke-linejoin="bevel" points="832.688,862.425 832.688,991.341"/>
<polyline class="Stem" stroke="#000000" stroke-width="6.54" stroke-linejoin="bevel" points="1087.89,837.267 1087.89,978.762"/>
<polyline class="Stem" stroke="#000000" stroke-width="6.54" stroke-linejoin="bevel" points="1199.33,887.582 1199.33,1029.08"/>
<polyline class="Stem" stroke="#000000" stroke-width="6.54" stroke-linejoin="bevel" points="1370.47,918.998 1370.47,777.503"/>
<polyline class="Stem" stroke="#000000" stroke-width="6.54" stroke-linejoin="bevel" points="1481.92,944.155 1481.92,790.081"/>
<polyline class="Stem" stroke="#000000" stroke-width="6.54" stroke-linejoin="bevel" points="1597.14,912.74 1597.14,1066.81"/>
<polyline class="Stem" stroke="#000000" stroke-width="6.54" stroke-linejoin="bevel" points="1708.58,963.055 1708.58,1091.97"/>
<polyline class="Stem" stroke="#000000" stroke-width="6.54" stroke-linejoin="bevel" points="1820.02,812.11 1820.02,966.184"/>
<polyline class="Stem" stroke="#000000" stroke-width="6.54" stroke-linejoin="bevel" points="1931.46,862.425 1931.46,991.341"/>
<polyline class="Stem" stroke="#000000" stroke-width="6.54" stroke-linejoin="bevel" points="2106.39,837.267 2106.39,978.762"/>
<polyline class="Stem" stroke="#000000" stroke-width="6.54" stroke-linejoin="bevel" points="2217.83,887.582 2217.83,1029.08"/>
<polyline class="Stem" stroke="#000000" stroke-width="6.54" stroke-linejoin="bevel" points="2388.97,918.998 2388.97,777.503"/>
<polyline class="Stem" stroke="#000000" stroke-width="6.54" stroke-linejoin="bevel" points="2500.41,944.155 2500.41,790.081"/>
<polyline class="Stem" stroke="#000000" stroke-width="6.54" stroke-linejoin="bevel" points="2675.34,944.155 2675.34,790.081"/>
<polyline class="Stem" stroke="#000000" stroke-width="6.54" stroke-linejoin="bevel" points="2768.02,812.11 2768.02,966.184"/>
<polyline class="Stem" stroke="#000000" stroke-width="6.54" stroke-linejoin="bevel" points="2863.26,862.425 2863.26,991.341"/>
<polyline class="Stem" stroke="#000000" stroke-width="6.54" stroke-linejoin="bevel" points="3176.5,944.155 3176.5,790.081"/>
<polyline class="Stem" stroke="#000000" stroke-width="6.54" stroke-linejoin="bevel" points="3328.89,994.47 3328.89,840.396"/>
<polyline class="Stem" stroke="#000000" stroke-width="6.54" stroke-linejoin="bevel" points="3424.13,944.155 3424.13,815.239"/>
<polyline class="Stem" stroke="#000000" stroke-width="6.54" stroke-linejoin="bevel" points="3539.35,912.74 3539.35,1041.66"/>
<polyline class="Stem" stroke="#000000" stroke-width="6.54" stroke-linejoin="bevel" points="3650.79,912.74 3650.79,1041.66"/>
<polyline class="Stem" stroke="#000000" stroke-width="6.54" stroke-linejoin="bevel" points="3821.93,918.998 3821.93,777.503"/>
<polyline class="Stem" stroke="#000000" stroke-width="6.54" stroke-linejoin="bevel" points="3933.37,944.155 3933.37,790.081"/>
<polyline class="Stem" stroke="#000000" stroke-width="6.54" stroke-linejoin="bevel" points="668.232,1585.51 668.232,1418.86"/>
<polyline class="Stem" stroke="#000000" stroke-width="6.54" stroke-linejoin="bevel" points="768.78,1635.83 768.78,1439.83"/>
<polyline class="Stem" stroke="#000000" stroke-width="6.54" stroke-linejoin="bevel" points="869.328,1686.14 869.328,1460.79"/>
<polyline class="Stem" stroke="#000000" stroke-width="6.54" stroke-linejoin="bevel" points="969.877,1686.14 969.877,1481.76"/>
<polyline class="Stem" stroke="#000000" stroke-width="6.54" stroke-linejoin="bevel" points="1070.43,1635.83 1070.43,1481.76"/>
<polyline class="Stem" stroke="#000000" stroke-width="6.54" stroke-linejoin="bevel" points="1170.97,1635.83 1170.97,1481.76"/>
<polyline class="Stem" stroke="#000000" stroke-width="6.54" stroke-linejoin="bevel" points="1271.52,1635.83 1271.52,1481.76"/>
<polyline class="Stem" stroke="#000000" stroke-width="6.54" stroke-linejoin="bevel" points="1372.07,1635.83 1372.07,1481.76"/>
<polyline class="Stem" stroke="#000000" stroke-width="6.54" stroke-linejoin="bevel" points="1487.29,1604.41 1487.29,1758.49"/>
<polyline class="Stem" stroke="#000000" stroke-width="6.54" stroke-linejoin="bevel" points="1577.15,1604.41 1577.15,1758.49"/>
<polyline class="Stem" stroke="#000000" stroke-width="6.54" stroke-linejoin="bevel" points="1667.01,1604.41 1667.01,1758.49"/>
<polyline class="Stem" stroke="#000000" stroke-width="6.54" stroke-linejoin="bevel" points="1756.87,1604.41 1756.87,1758.49"/>
<polyline class="Stem" stroke="#000000" stroke-width="6.54" stroke-linejoin="bevel" points="1906.43,1610.67 1906.43,1469.18"/>
<polyline class="Stem" stroke="#000000" stroke-width="6.54" stroke-linejoin="bevel" points="2050.21,1635.83 2050.21,1481.76"/>
<polyline class="Stem" stroke="#000000" stroke-width="6.54" stroke-linejoin="bevel" points="2252.35,1635.83 2252.35,1481.76"/>
<polyline class="Stem" stroke="#000000" stroke-width="6.54" stroke-linejoin="bevel" points="2418.7,1686.14 2418.7,1532.07"/>
<polyline class="Stem" stroke="#000000" stroke-width="6.54" stroke-linejoin="bevel" points="2522.67,1635.83 2522.67,1506.91"/>
<polyline class="Stem" stroke="#000000" stroke-width="6.54" stroke-linejoin="bevel" points="2637.89,1604.41 2637.89,1733.33"/>
<polyline class="Stem" stroke="#000000" stroke-width="6.54" stroke-linejoin="bevel" points="2756.28,1604.41 2756.28,1733.33"/>
<polyline class="Stem" stroke="#000000" stroke-width="6.54" stroke-linejoin="bevel" points="2934.38,1610.67 2934.38,1469.18"/>
<polyline class="Stem" stroke="#000000" stroke-width="6.54" stroke-linejoin="bevel" points="3052.78,1635.83 3052.78,1481.76"/>
<polyline class="Stem" stroke="#000000" stroke-width="6.54" stroke-linejoin="bevel" points="3229.54,1585.51 3229.54,1418.86"/>
<polyline class="Stem" stroke="#000000" stroke-width="6.54" stroke-linejoin="bevel" points="3330.08,1635.83 3330.08,1439.83"/>
<polyline class="Stem" stroke="#000000" stroke-width="6.54" stroke-linejoin="bevel" points="3430.63,1686.14 3430.63,1460.79"/>
<polyline class="Stem" stroke="#000000" stroke-width="6.54" stroke-linejoin="bevel" points="3531.18,1686.14 3531.18,1481.76"/>
<polyline class="Stem" stroke="#000000" stroke-width="6.54" stroke-linejoin="bevel" points="3631.73,1635.83 3631.73,1481.76"/>
<polyline class="Stem" stroke="#000000" stroke-width="6.54" stroke-linejoin="bevel" points="3732.28,1635.83 3732.28,1481.76"/>
<polyline class="Stem" stroke="#000000" stroke-width="6.54" stroke-linejoin="bevel" points="3832.83,1635.83 3832.83,1481.76"/>
<polyline class="Stem" stroke="#000000" stroke-width="6.54" stroke-linejoin="bevel" points="3933.37,1635.83 3933.37,1481.76"/>
<polyline class="Stem" stroke="#000000" stroke-width="6.54" stroke-linejoin="bevel" points="608.53,2296.09 608.53,2450.16"/>
<polyline class="Stem" stroke="#000000" stroke-width="6.54" stroke-linejoin="bevel" points="792.696,2296.09 792.696,2450.16"/>
<polyline class="Stem" stroke="#000000" stroke-width="6.54" stroke-linejoin="bevel" points="976.861,2296.09 976.861,2450.16"/>
<polyline class="Stem" stroke="#000000" stroke-width="6.54" stroke-linejoin="bevel" points="1161.03,2296.09 1161.03,2450.16"/>
<polyline class="Stem" stroke="#000000" stroke-width="6.54" stroke-linejoin="bevel" points="1404.89,2302.35 1404.89,2160.85"/>
<polyline class="Stem" stroke="#000000" stroke-width="6.54" stroke-linejoin="bevel" points="1699.56,2327.5 1699.56,2173.43"/>
<polyline class="Stem" stroke="#000000" stroke-width="6.54" stroke-linejoin="bevel" points="2056.22,2329.22 2056.22,2173.43"/>
<polyline class="Stem" stroke="#000000" stroke-width="6.54" stroke-linejoin="bevel" points="3084.08,2329.22 3084.08,2173.43"/>
<path class="Note" transform="matrix(2.0126,0,0,2.0126,711.204,802.66)" d="M21.9727,-13.7695 C25.0977,-13.7695 27.7018,-12.9883 29.7852,-11.4258 C31.8685,-9.86328 32.9102,-7.61719 32.9102,-4.6875 C32.9102,-0.195313 30.5827,4.00391 25.9277,7.91016 C21.2728,11.8164 16.276,13.7695 10.9375,13.7695 C7.8125,13.7695 5.17578,12.9557 3.02734,11.3281 C1.00911,9.57031 0,7.35677 0,4.6875 C0,0.325521 2.3112,-3.84115 6.93359,-7.8125 C11.556,-11.7839 16.569,-13.7695 21.9727,-13.7695"/>
<path class="Note" transform="matrix(2.0126,0,0,2.0126,829.418,852.975)" d="M21.9727,-13.7695 C25.0977,-13.7695 27.7018,-12.9883 29.7852,-11.4258 C31.8685,-9.86328 32.9102,-7.61719 32.9102,-4.6875 C32.9102,-0.195313 30.5827,4.00391 25.9277,7.91016 C21.2728,11.8164 16.276,13.7695 10.9375,13.7695 C7.8125,13.7695 5.17578,12.9557 3.02734,11.3281 C1.00911,9.57031 0,7.35677 0,4.6875 C0,0.325521 2.3112,-3.84115 6.93359,-7.8125 C11.556,-11.7839 16.569,-13.7695 21.9727,-13.7695"/>
<path class="Note" transform="matrix(2.0126,0,0,2.0126,1084.62,827.817)" d="M21.9727,-13.7695 C25.0977,-13.7695 27.7018,-12.9883 29.7852,-11.4258 C31.8685,-9.86328 32.9102,-7.61719 32.9102,-4.6875 C32.9102,-0.195313 30.5827,4.00391 25.9277,7.91016 C21.2728,11.8164 16.276,13.7695 10.9375,13.7695 C7.8125,13.7695 5.17578,12.9557 3.02734,11.3281 C1.00911,9.57031 0,7.35677 0,4.6875 C0,0.325521 2.3112,-3.84115 6.93359,-7.8125 C11.556,-11.7839 16.569,-13.7695 21.9727,-13.7695"/>
<path class="Note" transform="matrix(2.0126,0,0,2.0126,1196.06,878.132)" d="M21.9727,-13.7695 C25.0977,-13.7695 27.7018,-12.9883 29.7852,-11.4258 C31.8685,-9.86328 32.9102,-7.61719 32.9102,-4.6875 C32.9102,-0.195313 30.5827,4.00391 25.9277,7.91016 C21.2728,11.8164 16.276,13.7695 10.9375,13.7695 C7.8125,13.7695 5.17578,12.9557 3.02734,11.3281 C1.00911,9.57031 0,7.35677 0,4.6875 C0,0.325521 2.3112,-3.84115 6.93359,-7.8125 C11.556,-11.7839 16.569,-13.7695 21.9727,-13.7695"/>
<path class="Note" transform="matrix(2.0126,0,0,2.0126,1307.5,928.447)" d="M21.9727,-13.7695 C25.0977,-13.7695 27.7018,-12.9883 29.7852,-11.4258 C31.8685,-9.86328 32.9102,-7.61719 32.9102,-4.6875 C32.9102,-0.195313 30.5827,4.00391 25.9277,7.91016 C21.2728,11.8164 16.276,13.7695 10.9375,13.7695 C7.8125,13.7695 5.17578,12.9557 3.02734,11.3281 C1.00911,9.57031 0,7.35677 0,4.6875 C0,0.325521 2.3112,-3.84115 6.93359,-7.8125 C11.556,-11.7839 16.569,-13.7695 21.9727,-13.7695"/>
<path class="Note" transform="matrix(2.0126,0,0,2.0126,1418.94,953.605)" d="M21.9727,-13.7695 C25.0977,-13.7695 27.7018,-12.9883 29.7852,-11.4258 C31.8685,-9.86328 32.9102,-7.61719 32.9102,-4.6875 C32.9102,-0.195313 30.5827,4.00391 25.9277,7.91016 C21.2728,11.8164 16.276,13.7695 10.9375,13.7695 C7.8125,13.7695 5.17578,12.9557 3.02734,11.3281 C1.00911,9.57031 0,7.35677 0,4.6875 C0,0.325521 2.3112,-3.84115 6.93359,-7.8125 C11.556,-11.7839 16.569,-13.7695 21.9727,-13.7695"/>
<path class="Note" transform="matrix(2.0126,0,0,2.0126,1593.87,903.29)" d="M21.9727,-13.7695 C25.0977,-13.7695 27.7018,-12.9883 29.7852,-11.4258 C31.8685,-9.86328 32.9102,-7.61719 32.9102,-4.6875 C32.9102,-0.195313 30.5827,4.00391 25.9277,7.91016 C21.2728,11.8164 16.276,13.7695 10.9375,13.7695 C7.8125,13.7695 5.17578,12.9557 3.02734,11.3281 C1.00911,9.57031 0,7.35677 0,4.6875 C0,0.325521 2.3112,-3.84115 6.93359,-7.8125 C11.556,-11.7839 16.569,-13.7695 21.9727,-13.7695"/>
<path class="Note" transform="matrix(2.0126,0,0,2.0126,1705.31,953.605)" d="M21.9727,-13.7695 C25.0977,-13.7695 27.7018,-12.9883 29.7852,-11.4258 C31.8685,-9.86328 32.9102,-7.61719 32.9102,-4.6875 C32.9102,-0.195313 30.5827,4.00391 25.9277,7.91016 C21.2728,11.8164 16.276,13.7695 10.9375,13.7695 C7.8125,13.7695 5.17578,12.9557 3.02734,11.3281 C1.00911,9.57031 0,7.35677 0,4.6875 C0,0.325521 2.3112,-3.84115 6.93359,-7.8125 C11.556,-11.7839 16.569,-13.7695 21.9727,-13.7695"/>
<path class="Note" transform="matrix(2.0126,0,0,2.0126,1816.75,802.66)" d="M21.9727,-13.7695 C25.0977,-13.7695 27.7018,-12.9883 29.7852,-11.4258 C31.8685,-9.86328 32.9102,-7.61719 32.9102,-4.6875 C32.9102,-0.195313 30.5827,4.00391 25.9277,7.91016 C21.2728,11.8164 16.276,13.7695 10.9375,13.7695 C7.8125,13.7695 5.17578,12.9557 3.02734,11.3281 C1.00911,9.57031 0,7.35677 0,4.6875 C0,0.325521 2.3112,-3.84115 6.93359,-7.8125 C11.556,-11.7839 16.569,-13.7695 21.9727,-13.7695"/>
<path class="Note" transform="matrix(2.0126,0,0,2.0126,1928.19,852.975)" d="M21.9727,-13.7695 C25.0977,-13.7695 27.7018,-12.9883 29.7852,-11.4258 C31.8685,-9.86328 32.9102,-7.61719 32.9102,-4.6875 C32.9102,-0.195313 30.5827,4.00391 25.9277,7.91016 C21.2728,11.8164 16.276,13.7695 10.9375,13.7695 C7.8125,13.7695 5.17578,12.9557 3.02734,11.3281 C1.00911,9.57031 0,7.35677 0,4.6875 C0,0.325521 2.3112,-3.84115 6.93359,-7.8125 C11.556,-11.7839 16.569,-13.7695 21.9727,-13.7695"/>
<path class="Note" transform="matrix(2.0126,0,0,2.0126,2103.12,827.817)" d="M21.9727,-13.7695 C25.0977,-13.7695 27.7018,-12.9883 29.7852,-11.4258 C31.8685,-9.86328 32.9102,-7.61719 32.9102,-4.6875 C32.9102,-0.195313 30.5827,4.00391 25.9277,7.91016 C21.2728,11.8164 16.276,13.7695 10.9375,13.7695 C7.8125,13.7695 5.17578,12.9557 3.02734,11.3281 C1.00911,9.57031 0,7.35677 0,4.6875 C0,0.325521 2.3112,-3.84115 6.93359,-7.8125 C11.556,-11.7839 16.569,-13.7695 21.9727,-13.7695"/>
<path class="Note" transform="matrix(2.0126,0,0,2.0126,2214.56,878.132)" d="M21.9727,-13.7695 C25.0977,-13.7695 27.7018,-12.9883 29.7852,-11.4258 C31.8685,-9.86328 32.9102,-7.61719 32.9102,-4.6875 C32.9102,-0.195313 30.5827,4.00391 25.9277,7.91016 C21.2728,11.8164 16.276,13.7695 10.9375,13.7695 C7.8125,13.7695 5.17578,12.9557 3.02734,11.3281 C1.00911,9.57031 0,7.35677 0,4.6875 C0,0.325521 2.3112,-3.84115 6.93359,-7.8125 C11.556,-11.7839 16.569,-13.7695 21.9727,-13.7695"/>
<path class="Note" transform="matrix(2.0126,0,0,2.0126,2326,928.447)" d="M21.9727,-13.7695 C25.0977,-13.7695 27.7018,-12.9883 29.7852,-11.4258 C31.8685,-9.86328 32.9102,-7.61719 32.9102,-4.6875 C32.9102,-0.195313 30.5827,4.00391 25.9277,7.91016 C21.2728,11.8164 16.276,13.7695 10.9375,13.7695 C7.8125,13.7695 5.17578,12.9557 3.02734,11.3281 C1.00911,9.57031 0,7.35677 0,4.6875 C0,0.325521 2.3112,-3.84115 6.93359,-7.8125 C11.556,-11.7839 16.569,-13.7695 21.9727,-13.7695"/>
<path class="Note" transform="matrix(2.0126,0,0,2.0126,2437.44,953.605)" d="M21.9727,-13.7695 C25.0977,-13.7695 27.7018,-12.9883 29.7852,-11.4258 C31.8685,-9.86328 32.9102,-7.61719 32.9102,-4.6875 C32.9102,-0.195313 30.5827,4.00391 25.9277,7.91016 C21.2728,11.8164 16.276,13.7695 10.9375,13.7695 C7.8125,13.7695 5.17578,12.9557 3.02734,11.3281 C1.00911,9.57031 0,7.35677 0,4.6875 C0,0.325521 2.3112,-3.84115 6.93359,-7.8125 C11.556,-11.7839 16.569,-13.7695 21.9727,-13.7695"/>
<path class="Note" transform="matrix(2.0126,0,0,2.0126,2612.36,953.605)" d="M21.9727,-13.7695 C25.0977,-13.7695 27.7018,-12.9883 29.7852,-11.4258 C31.8685,-9.86328 32.9102,-7.61719 32.9102,-4.6875 C32.9102,-0.195313 30.5827,4.00391 25.9277,7.91016 C21.2728,11.8164 16.276,13.7695 10.9375,13.7695 C7.8125,13.7695 5.17578,12.9557 3.02734,11.3281 C1.00911,9.57031 0,7.35677 0,4.6875 C0,0.325521 2.3112,-3.84115 6.93359,-7.8125 C11.556,-11.7839 16.569,-13.7695 21.9727,-13.7695"/>
<path class="Note" transform="matrix(2.0126,0,0,2.0126,2764.75,802.66)" d="M21.9727,-13.7695 C25.0977,-13.7695 27.7018,-12.9883 29.7852,-11.4258 C31.8685,-9.86328 32.9102,-7.61719 32.9102,-4.6875 C32.9102,-0.195313 30.5827,4.00391 25.9277,7.91016 C21.2728,11.8164 16.276,13.7695 10.9375,13.7695 C7.8125,13.7695 5.17578,12.9557 3.02734,11.3281 C1.00911,9.57031 0,7.35677 0,4.6875 C0,0.325521 2.3112,-3.84115 6.93359,-7.8125 C11.556,-11.7839 16.569,-13.7695 21.9727,-13.7695"/>
<path class="Note" transform="matrix(2.0126,0,0,2.0126,2859.99,852.975)" d="M21.9727,-13.7695 C25.0977,-13.7695 27.7018,-12.9883 29.7852,-11.4258 C31.8685,-9.86328 32.9102,-7.61719 32.9102,-4.6875 C32.9102,-0.195313 30.5827,4.00391 25.9277,7.91016 C21.2728,11.8164 16.276,13.7695 10.9375,13.7695 C7.8125,13.7695 5.17578,12.9557 3.02734,11.3281 C1.00911,9.57031 0,7.35677 0,4.6875 C0,0.325521 2.3112,-3.84115 6.93359,-7.8125 C11.556,-11.7839 16.569,-13.7695 21.9727,-13.7695"/>
<path class="Note" transform="matrix(2.0126,0,0,2.0126,3113.53,953.605)" d="M21.9727,-13.7695 C25.0977,-13.7695 27.7018,-12.9883 29.7852,-11.4258 C31.8685,-9.86328 32.9102,-7.61719 32.9102,-4.6875 C32.9102,-0.195313 30.5827,4.00391 25.9277,7.91016 C21.2728,11.8164 16.276,13.7695 10.9375,13.7695 C7.8125,13.7695 5.17578,12.9557 3.02734,11.3281 C1.00911,9.57031 0,7.35677 0,4.6875 C0,0.325521 2.3112,-3.84115 6.93359,-7.8125 C11.556,-11.7839 16.569,-13.7695 21.9727,-13.7695"/>
<path class="Note" transform="matrix(2.0126,0,0,2.0126,3265.91,1003.92)" d="M21.9727,-13.7695 C25.0977,-13.7695 27.7018,-12.9883 29.7852,-11.4258 C31.8685,-9.86328 32.9102,-7.61719 32.9102,-4.6875 C32.9102,-0.195313 30.5827,4.00391 25.9277,7.91016 C21.2728,11.8164 16.276,13.7695 10.9375,13.7695 C7.8125,13.7695 5.17578,12.9557 3.02734,11.3281 C1.00911,9.57031 0,7.35677 0,4.6875 C0,0.325521 2.3112,-3.84115 6.93359,-7.8125 C11.556,-11.7839 16.569,-13.7695 21.9727,-13.7695"/>
<path class="Note" transform="matrix(2.0126,0,0,2.0126,3361.15,953.605)" d="M21.9727,-13.7695 C25.0977,-13.7695 27.7018,-12.9883 29.7852,-11.4258 C31.8685,-9.86328 32.9102,-7.61719 32.9102,-4.6875 C32.9102,-0.195313 30.5827,4.00391 25.9277,7.91016 C21.2728,11.8164 16.276,13.7695 10.9375,13.7695 C7.8125,13.7695 5.17578,12.9557 3.02734,11.3281 C1.00911,9.57031 0,7.35677 0,4.6875 C0,0.325521 2.3112,-3.84115 6.93359,-7.8125 C11.556,-11.7839 16.569,-13.7695 21.9727,-13.7695"/>
<path class="Note" transform="matrix(2.0126,0,0,2.0126,3536.08,903.29)" d="M21.9727,-13.7695 C25.0977,-13.7695 27.7018,-12.9883 29.7852,-11.4258 C31.8685,-9.86328 32.9102,-7.61719 32.9102,-4.6875 C32.9102,-0.195313 30.5827,4.00391 25.9277,7.91016 C21.2728,11.8164 16.276,13.7695 10.9375,13.7695 C7.8125,13.7695 5.17578,12.9557 3.02734,11.3281 C1.00911,9.57031 0,7.35677 0,4.6875 C0,0.325521 2.3112,-3.84115 6.93359,-7.8125 C11.556,-11.7839 16.569,-13.7695 21.9727,-13.7695"/>
<path class="Note" transform="matrix(2.0126,0,0,2.0126,3647.52,903.29)" d="M21.9727,-13.7695 C25.0977,-13.7695 27.7018,-12.9883 29.7852,-11.4258 C31.8685,-9.86328 32.9102,-7.61719 32.9102,-4.6875 C32.9102,-0.195313 30.5827,4.00391 25.9277,7.91016 C21.2728,11.8164 16.276,13.7695 10.9375,13.7695 C7.8125,13.7695 5.17578,12.9557 3.02734,11.3281 C1.00911,9.57031 0,7.35677 0,4.6875 C0,0.325521 2.3112,-3.84115 6.93359,-7.8125 C11.556,-11.7839 16.569,-13.7695 21.9727,-13.7695"/>
<path class="Note" transform="matrix(2.0126,0,0,2.0126,3758.96,928.447)" d="M21.9727,-13.7695 C25.0977,-13.7695 27.7018,-12.9883 29.7852,-11.4258 C31.8685,-9.86328 32.9102,-7.61719 32.9102,-4.6875 C32.9102,-0.195313 30.5827,4.00391 25.9277,7.91016 C21.2728,11.8164 16.276,13.7695 10.9375,13.7695 C7.8125,13.7695 5.17578,12.9557 3.02734,11.3281 C1.00911,9.57031 0,7.35677 0,4.6875 C0,0.325521 2.3112,-3.84115 6.93359,-7.8125 C11.556,-11.7839 16.569,-13.7695 21.9727,-13.7695"/>
<path class="Note" transform="matrix(2.0126,0,0,2.0126,3870.4,953.605)" d="M21.9727,-13.7695 C25.0977,-13.7695 27.7018,-12.9883 29.7852,-11.4258 C31.8685,-9.86328 32.9102,-7.61719 32.9102,-4.6875 C32.9102,-0.195313 30.5827,4.00391 25.9277,7.91016 C21.2728,11.8164 16.276,13.7695 10.9375,13.7695 C7.8125,13.7695 5.17578,12.9557 3.02734,11.3281 C1.00911,9.57031 0,7.35677 0,4.6875 C0,0.325521 2.3112,-3.84115 6.93359,-7.8125 C11.556,-11.7839 16.569,-13.7695 21.9727,-13.7695"/>
<path class="Note" transform="matrix(2.0126,0,0,2.0126,605.259,1594.96)" d="M21.9727,-13.7695 C25.0977,-13.7695 27.7018,-12.9883 29.7852,-11.4258 C31.8685,-9.86328 32.9102,-7.61719 32.9102,-4.6875 C32.9102,-0.195313 30.5827,4.00391 25.9277,7.91016 C21.2728,11.8164 16.276,13.7695 10.9375,13.7695 C7.8125,13.7695 5.17578,12.9557 3.02734,11.3281 C1.00911,9.57031 0,7.35677 0,4.6875 C0,0.325521 2.3112,-3.84115 6.93359,-7.8125 C11.556,-11.7839 16.569,-13.7695 21.9727,-13.7695"/>
<path class="Note" transform="matrix(2.0126,0,0,2.0126,705.808,1645.28)" d="M21.9727,-13.7695 C25.0977,-13.7695 27.7018,-12.9883 29.7852,-11.4258 C31.8685,-9.86328 32.9102,-7.61719 32.9102,-4.6875 C32.9102,-0.195313 30.5827,4.00391 25.9277,7.91016 C21.2728,11.8164 16.276,13.7695 10.9375,13.7695 C7.8125,13.7695 5.17578,12.9557 3.02734,11.3281 C1.00911,9.57031 0,7.35677 0,4.6875 C0,0.325521 2.3112,-3.84115 6.93359,-7.8125 C11.556,-11.7839 16.569,-13.7695 21.9727,-13.7695"/>
<path class="Note" transform="matrix(2.0126,0,0,2.0126,806.356,1695.59)" d="M21.9727,-13.7695 C25.0977,-13.7695 27.7018,-12.9883 29.7852,-11.4258 C31.8685,-9.86328 32.9102,-7.61719 32.9102,-4.6875 C32.9102,-0.195313 30.5827,4.00391 25.9277,7.91016 C21.2728,11.8164 16.276,13.7695 10.9375,13.7695 C7.8125,13.7695 5.17578,12.9557 3.02734,11.3281 C1.00911,9.57031 0,7.35677 0,4.6875 C0,0.325521 2.3112,-3.84115 6.93359,-7.8125 C11.556,-11.7839 16.569,-13.7695 21.9727,-13.7695"/>
<path class="Note" transform="matrix(2.0126,0,0,2.0126,906.904,1695.59)" d="M21.9727,-13.7695 C25.0977,-13.7695 27.7018,-12.9883 29.7852,-11.4258 C31.8685,-9.86328 32.9102,-7.61719 32.9102,-4.6875 C32.9102,-0.195313 30.5827,4.00391 25.9277,7.91016 C21.2728,11.8164 16.276,13.7695 10.9375,13.7695 C7.8125,13.7695 5.17578,12.9557 3.02734,11.3281 C1.00911,9.57031 0,7.35677 0,4.6875 C0,0.325521 2.3112,-3.84115 6.93359,-7.8125 C11.556,-11.7839 16.569,-13.7695 21.9727,-13.7695"/>
<path class="Note" transform="matrix(2.0126,0,0,2.0126,1007.45,1645.28)" d="M21.9727,-13.7695 C25.0977,-13.7695 27.7018,-12.9883 29.7852,-11.4258 C31.8685,-9.86328 32.9102,-7.61719 32.9102,-4.6875 C32.9102,-0.195313 30.5827,4.00391 25.9277,7.91016 C21.2728,11.8164 16.276,13.7695 10.9375,13.7695 C7.8125,13.7695 5.17578,12.9557 3.02734,11.3281 C1.00911,9.57031 0,7.35677 0,4.6875 C0,0.325521 2.3112,-3.84115 6.93359,-7.8125 C11.556,-11.7839 16.569,-13.7695 21.9727,-13.7695"/>
<path class="Note" transform="matrix(2.0126,0,0,2.0126,1108,1645.28)" d="M21.9727,-13.7695 C25.0977,-13.7695 27.7018,-12.9883 29.7852,-11.4258 C31.8685,-9.86328 32.9102,-7.61719 32.9102,-4.6875 C32.9102,-0.195313 30.5827,4.00391 25.9277,7.91016 C21.2728,11.8164 16.276,13.7695 10.9375,13.7695 C7.8125,13.7695 5.17578,12.9557 3.02734,11.3281 C1.00911,9.57031 0,7.35677 0,4.6875 C0,0.325521 2.3112,-3.84115 6.93359,-7.8125 C11.556,-11.7839 16.569,-13.7695 21.9727,-13.7695"/>
<path class="Note" transform="matrix(2.0126,0,0,2.0126,1208.55,1645.28)" d="M21.9727,-13.7695 C25.0977,-13.7695 27.7018,-12.9883 29.7852,-11.4258 C31.8685,-9.86328 32.9102,-7.61719 32.9102,-4.6875 C32.9102,-0.195313 30.5827,4.00391 25.9277,7.91016 C21.2728,11.8164 16.276,13.7695 10.9375,13.7695 C7.8125,13.7695 5.17578,12.9557 3.02734,11.3281 C1.00911,9.57031 0,7.35677 0,4.6875 C0,0.325521 2.3112,-3.84115 6.93359,-7.8125 C11.556,-11.7839 16.569,-13.7695 21.9727,-13.7695"/>
<path class="Note" transform="matrix(2.0126,0,0,2.0126,1309.1,1645.28)" d="M21.9727,-13.7695 C25.0977,-13.7695 27.7018,-12.9883 29.7852,-11.4258 C31.8685,-9.86328 32.9102,-7.61719 32.9102,-4.6875 C32.9102,-0.195313 30.5827,4.00391 25.9277,7.91016 C21.2728,11.8164 16.276,13.7695 10.9375,13.7695 C7.8125,13.7695 5.17578,12.9557 3.02734,11.3281 C1.00911,9.57031 0,7.35677 0,4.6875 C0,0.325521 2.3112,-3.84115 6.93359,-7.8125 C11.556,-11.7839 16.569,-13.7695 21.9727,-13.7695"/>
<path class="Note" transform="matrix(2.0126,0,0,2.0126,1484.02,1594.96)" d="M21.9727,-13.7695 C25.0977,-13.7695 27.7018,-12.9883 29.7852,-11.4258 C31.8685,-9.86328 32.9102,-7.61719 32.9102,-4.6875 C32.9102,-0.195313 30.5827,4.00391 25.9277,7.91016 C21.2728,11.8164 16.276,13.7695 10.9375,13.7695 C7.8125,13.7695 5.17578,12.9557 3.02734,11.3281 C1.00911,9.57031 0,7.35677 0,4.6875 C0,0.325521 2.3112,-3.84115 6.93359,-7.8125 C11.556,-11.7839 16.569,-13.7695 21.9727,-13.7695"/>
<path class="Note" transform="matrix(2.0126,0,0,2.0126,1573.88,1594.96)" d="M21.9727,-13.7695 C25.0977,-13.7695 27.7018,-12.9883 29.7852,-11.4258 C31.8685,-9.86328 32.9102,-7.61719 32.9102,-4.6875 C32.9102,-0.195313 30.5827,4.00391 25.9277,7.91016 C21.2728,11.8164 16.276,13.7695 10.9375,13.7695 C7.8125,13.7695 5.17578,12.9557 3.02734,11.3281 C1.00911,9.57031 0,7.35677 0,4.6875 C0,0.325521 2.3112,-3.84115 6.93359,-7.8125 C11.556,-11.7839 16.569,-13.7695 21.9727,-13.7695"/>
<path class="Note" transform="matrix(2.0126,0,0,2.0126,1663.74,1594.96)" d="M21.9727,-13.7695 C25.0977,-13.7695 27.7018,-12.9883 29.7852,-11.4258 C31.8685,-9.86328 32.9102,-7.61719 32.9102,-4.6875 C32.9102,-0.195313 30.5827,4.00391 25.9277,7.91016 C21.2728,11.8164 16.276,13.7695 10.9375,13.7695 C7.8125,13.7695 5.17578,12.9557 3.02734,11.3281 C1.00911,9.57031 0,7.35677 0,4.6875 C0,0.325521 2.3112,-3.84115 6.93359,-7.8125 C11.556,-11.7839 16.569,-13.7695 21.9727,-13.7695"/>
<path class="Note" transform="matrix(2.0126,0,0,2.0126,1753.6,1594.96)" d="M21.9727,-13.7695 C25.0977,-13.7695 27.7018,-12.9883 29.7852,-11.4258 C31.8685,-9.86328 32.9102,-7.61719 32.9102,-4.6875 C32.9102,-0.195313 30.5827,4.00391 25.9277,7.91016 C21.2728,11.8164 16.276,13.7695 10.9375,13.7695 C7.8125,13.7695 5.17578,12.9557 3.02734,11.3281 C1.00911,9.57031 0,7.35677 0,4.6875 C0,0.325521 2.3112,-3.84115 6.93359,-7.8125 C11.556,-11.7839 16.569,-13.7695 21.9727,-13.7695"/>
<path class="Note" transform="matrix(2.0126,0,0,2.0126,1843.46,1620.12)" d="M21.9727,-13.7695 C25.0977,-13.7695 27.7018,-12.9883 29.7852,-11.4258 C31.8685,-9.86328 32.9102,-7.61719 32.9102,-4.6875 C32.9102,-0.195313 30.5827,4.00391 25.9277,7.91016 C21.2728,11.8164 16.276,13.7695 10.9375,13.7695 C7.8125,13.7695 5.17578,12.9557 3.02734,11.3281 C1.00911,9.57031 0,7.35677 0,4.6875 C0,0.325521 2.3112,-3.84115 6.93359,-7.8125 C11.556,-11.7839 16.569,-13.7695 21.9727,-13.7695"/>
<path class="Note" transform="matrix(2.0126,0,0,2.0126,1987.23,1645.28)" d="M21.9727,-13.7695 C25.0977,-13.7695 27.7018,-12.9883 29.7852,-11.4258 C31.8685,-9.86328 32.9102,-7.61719 32.9102,-4.6875 C32.9102,-0.195313 30.5827,4.00391 25.9277,7.91016 C21.2728,11.8164 16.276,13.7695 10.9375,13.7695 C7.8125,13.7695 5.17578,12.9557 3.02734,11.3281 C1.00911,9.57031 0,7.35677 0,4.6875 C0,0.325521 2.3112,-3.84115 6.93359,-7.8125 C11.556,-11.7839 16.569,-13.7695 21.9727,-13.7695"/>
<path class="Note" transform="matrix(2.0126,0,0,2.0126,2189.37,1645.28)" d="M21.9727,-13.7695 C25.0977,-13.7695 27.7018,-12.9883 29.7852,-11.4258 C31.8685,-9.86328 32.9102,-7.61719 32.9102,-4.6875 C32.9102,-0.195313 30.5827,4.00391 25.9277,7.91016 C21.2728,11.8164 16.276,13.7695 10.9375,13.7695 C7.8125,13.7695 5.17578,12.9557 3.02734,11.3281 C1.00911,9.57031 0,7.35677 0,4.6875 C0,0.325521 2.3112,-3.84115 6.93359,-7.8125 C11.556,-11.7839 16.569,-13.7695 21.9727,-13.7695"/>
<path class="Note" transform="matrix(2.0126,0,0,2.0126,2355.73,1695.59)" d="M21.9727,-13.7695 C25.0977,-13.7695 27.7018,-12.9883 29.7852,-11.4258 C31.8685,-9.86328 32.9102,-7.61719 32.9102,-4.6875 C32.9102,-0.195313 30.5827,4.00391 25.9277,7.91016 C21.2728,11.8164 16.276,13.7695 10.9375,13.7695 C7.8125,13.7695 5.17578,12.9557 3.02734,11.3281 C1.00911,9.57031 0,7.35677 0,4.6875 C0,0.325521 2.3112,-3.84115 6.93359,-7.8125 C11.556,-11.7839 16.569,-13.7695 21.9727,-13.7695"/>
<path class="Note" transform="matrix(2.0126,0,0,2.0126,2459.69,1645.28)" d="M21.9727,-13.7695 C25.0977,-13.7695 27.7018,-12.9883 29.7852,-11.4258 C31.8685,-9.86328 32.9102,-7.61719 32.9102,-4.6875 C32.9102,-0.195313 30.5827,4.00391 25.9277,7.91016 C21.2728,11.8164 16.276,13.7695 10.9375,13.7695 C7.8125,13.7695 5.17578,12.9557 3.02734,11.3281 C1.00911,9.57031 0,7.35677 0,4.6875 C0,0.325521 2.3112,-3.84115 6.93359,-7.8125 C11.556,-11.7839 16.569,-13.7695 21.9727,-13.7695"/>
<path class="Note" transform="matrix(2.0126,0,0,2.0126,2634.62,1594.96)" d="M21.9727,-13.7695 C25.0977,-13.7695 27.7018,-12.9883 29.7852,-11.4258 C31.8685,-9.86328 32.9102,-7.61719 32.9102,-4.6875 C32.9102,-0.195313 30.5827,4.00391 25.9277,7.91016 C21.2728,11.8164 16.276,13.7695 10.9375,13.7695 C7.8125,13.7695 5.17578,12.9557 3.02734,11.3281 C1.00911,9.57031 0,7.35677 0,4.6875 C0,0.325521 2.3112,-3.84115 6.93359,-7.8125 C11.556,-11.7839 16.569,-13.7695 21.9727,-13.7695"/>
<path class="Note" transform="matrix(2.0126,0,0,2.0126,2753.01,1594.96)" d="M21.9727,-13.7695 C25.0977,-13.7695 27.7018,-12.9883 29.7852,-11.4258 C31.8685,-9.86328 32.9102,-7.61719 32.9102,-4.6875 C32.9102,-0.195313 30.5827,4.00391 25.9277,7.91016 C21.2728,11.8164 16.276,13.7695 10.9375,13.7695 C7.8125,13.7695 5.17578,12.9557 3.02734,11.3281 C1.00911,9.57031 0,7.35677 0,4.6875 C0,0.325521 2.3112,-3.84115 6.93359,-7.8125 C11.556,-11.7839 16.569,-13.7695 21.9727,-13.7695"/>
<path class="Note" transform="matrix(2.0126,0,0,2.0126,2871.41,1620.12)" d="M21.9727,-13.7695 C25.0977,-13.7695 27.7018,-12.9883 29.7852,-11.4258 C31.8685,-9.86328 32.9102,-7.61719 32.9102,-4.6875 C32.9102,-0.195313 30.5827,4.00391 25.9277,7.91016 C21.2728,11.8164 16.276,13.7695 10.9375,13.7695 C7.8125,13.7695 5.17578,12.9557 3.02734,11.3281 C1.00911,9.57031 0,7.35677 0,4.6875 C0,0.325521 2.3112,-3.84115 6.93359,-7.8125 C11.556,-11.7839 16.569,-13.7695 21.9727,-13.7695"/>
<path class="Note" transform="matrix(2.0126,0,0,2.0126,2989.8,1645.28)" d="M21.9727,-13.7695 C25.0977,-13.7695 27.7018,-12.9883 29.7852,-11.4258 C31.8685,-9.86328 32.9102,-7.61719 32.9102,-4.6875 C32.9102,-0.195313 30.5827,4.00391 25.9277,7.91016 C21.2728,11.8164 16.276,13.7695 10.9375,13.7695 C7.8125,13.7695 5.17578,12.9557 3.02734,11.3281 C1.00911,9.57031 0,7.35677 0,4.6875 C0,0.325521 2.3112,-3.84115 6.93359,-7.8125 C11.556,-11.7839 16.569,-13.7695 21.9727,-13.7695"/>
<path class="Note" transform="matrix(2.0126,0,0,2.0126,3166.56,1594.96)" d="M21.9727,-13.7695 C25.0977,-13.7695 27.7018,-12.9883 29.7852,-11.4258 C31.8685,-9.86328 32.9102,-7.61719 32.9102,-4.6875 C32.9102,-0.195313 30.5827,4.00391 25.9277,7.91016 C21.2728,11.8164 16.276,13.7695 10.9375,13.7695 C7.8125,13.7695 5.17578,12.9557 3.02734,11.3281 C1.00911,9.57031 0,7.35677 0,4.6875 C0,0.325521 2.3112,-3.84115 6.93359,-7.8125 C11.556,-11.7839 16.569,-13.7695 21.9727,-13.7695"/>
<path class="Note" transform="matrix(2.0126,0,0,2.0126,3267.11,1645.28)" d="M21.9727,-13.7695 C25.0977,-13.7695 27.7018,-12.9883 29.7852,-11.4258 C31.8685,-9.86328 32.9102,-7.61719 32.9102,-4.6875 C32.9102,-0.195313 30.5827,4.00391 25.9277,7.91016 C21.2728,11.8164 16.276,13.7695 10.9375,13.7695 C7.8125,13.7695 5.17578,12.9557 3.02734,11.3281 C1.00911,9.57031 0,7.35677 0,4.6875 C0,0.325521 2.3112,-3.84115 6.93359,-7.8125 C11.556,-11.7839 16.569,-13.7695 21.9727,-13.7695"/>
<path class="Note" transform="matrix(2.0126,0,0,2.0126,3367.66,1695.59)" d="M21.9727,-13.7695 C25.0977,-13.7695 27.7018,-12.9883 29.7852,-11.4258 C31.8685,-9.86328 32.9102,-7.61719 32.9102,-4.6875 C32.9102,-0.195313 30.5827,4.00391 25.9277,7.91016 C21.2728,11.8164 16.276,13.7695 10.9375,13.7695 C7.8125,13.7695 5.17578,12.9557 3.02734,11.3281 C1.00911,9.57031 0,7.35677 0,4.6875 C0,0.325521 2.3112,-3.84115 6.93359,-7.8125 C11.556,-11.7839 16.569,-13.7695 21.9727,-13.7695"/>
<path class="Note" transform="matrix(2.0126,0,0,2.0126,3468.21,1695.59)" d="M21.9727,-13.7695 C25.0977,-13.7695 27.7018,-12.9883 29.7852,-11.4258 C31.8685,-9.86328 32.9102,-7.61719 32.9102,-4.6875 C32.9102,-0.195313 30.5827,4.00391 25.9277,7.91016 C21.2728,11.8164 16.276,13.7695 10.9375,13.7695 C7.8125,13.7695 5.17578,12.9557 3.02734,11.3281 C1.00911,9.57031 0,7.35677 0,4.6875 C0,0.325521 2.3112,-3.84115 6.93359,-7.8125 C11.556,-11.7839 16.569,-13.7695 21.9727,-13.7695"/>
<path class="Note" transform="matrix(2.0126,0,0,2.0126,3568.76,1645.28)" d="M21.9727,-13.7695 C25.0977,-13.7695 27.7018,-12.9883 29.7852,-11.4258 C31.8685,-9.86328 32.9102,-7.61719 32.9102,-4.6875 C32.9102,-0.195313 30.5827,4.00391 25.9277,7.91016 C21.2728,11.8164 16.276,13.7695 10.9375,13.7695 C7.8125,13.7695 5.17578,12.9557 3.02734,11.3281 C1.00911,9.57031 0,7.35677 0,4.6875 C0,0.325521 2.3112,-3.84115 6.93359,-7.8125 C11.556,-11.7839 16.569,-13.7695 21.9727,-13.7695"/>
<path class="Note" transform="matrix(2.0126,0,0,2.0126,3669.31,1645.28)" d="M21.9727,-13.7695 C25.0977,-13.7695 27.7018,-12.9883 29.7852,-11.4258 C31.8685,-9.86328 32.9102,-7.61719 32.9102,-4.6875 C32.9102,-0.195313 30.5827,4.00391 25.9277,7.91016 C21.2728,11.8164 16.276,13.7695 10.9375,13.7695 C7.8125,13.7695 5.17578,12.9557 3.02734,11.3281 C1.00911,9.57031 0,7.35677 0,4.6875 C0,0.325521 2.3112,-3.84115 6.93359,-7.8125 C11.556,-11.7839 16.569,-13.7695 21.9727,-13.7695"/>
<path class="Note" transform="matrix(2.0126,0,0,2.0126,3769.85,1645.28)" d="M21.9727,-13.7695 C25.0977,-13.7695 27.7018,-12.9883 29.7852,-11.4258 C31.8685,-9.86328 32.9102,-7.61719 32.9102,-4.6875 C32.9102,-0.195313 30.5827,4.00391 25.9277,7.91016 C21.2728,11.8164 16.276,13.7695 10.9375,13.7695 C7.8125,13.7695 5.17578,12.9557 3.02734,11.3281 C1.00911,9.57031 0,7.35677 0,4.6875 C0,0.325521 2.3112,-3.84115 6.93359,-7.8125 C11.556,-11.7839 16.569,-13.7695 21.9727,-13.7695"/>
<path class="Note" transform="matrix(2.0126,0,0,2.0126,3870.4,1645.28)" d="M21.9727,-13.7695 C25.0977,-13.7695 27.7018,-12.9883 29.7852,-11.4258 C31.8685,-9.86328 32.9102,-7.61719 32.9102,-4.6875 C32.9102,-0.195313 30.5827,4.00391 25.9277,7.91016 C21.2728,11.8164 16.276,13.7695 10.9375,13.7695 C7.8125,13.7695 5.17578,12.9557 3.02734,11.3281 C1.00911,9.57031 0,7.35677 0,4.6875 C0,0.325521 2.3112,-3.84115 6.93359,-7.8125 C11.556,-11.7839 16.569,-13.7695 21.9727,-13.7695"/>
<path class="Note" transform="matrix(2.0126,0,0,2.0126,605.259,2286.64)" d="M21.9727,-13.7695 C25.0977,-13.7695 27.7018,-12.9883 29.7852,-11.4258 C31.8685,-9.86328 32.9102,-7.61719 32.9102,-4.6875 C32.9102,-0.195313 30.5827,4.00391 25.9277,7.91016 C21.2728,11.8164 16.276,13.7695 10.9375,13.7695 C7.8125,13.7695 5.17578,12.9557 3.02734,11.3281 C1.00911,9.57031 0,7.35677 0,4.6875 C0,0.325521 2.3112,-3.84115 6.93359,-7.8125 C11.556,-11.7839 16.569,-13.7695 21.9727,-13.7695"/>
<path class="Note" transform="matrix(2.0126,0,0,2.0126,789.425,2286.64)" d="M21.9727,-13.7695 C25.0977,-13.7695 27.7018,-12.9883 29.7852,-11.4258 C31.8685,-9.86328 32.9102,-7.61719 32.9102,-4.6875 C32.9102,-0.195313 30.5827,4.00391 25.9277,7.91016 C21.2728,11.8164 16.276,13.7695 10.9375,13.7695 C7.8125,13.7695 5.17578,12.9557 3.02734,11.3281 C1.00911,9.57031 0,7.35677 0,4.6875 C0,0.325521 2.3112,-3.84115 6.93359,-7.8125 C11.556,-11.7839 16.569,-13.7695 21.9727,-13.7695"/>
<path class="Note" transform="matrix(2.0126,0,0,2.0126,973.591,2286.64)" d="M21.9727,-13.7695 C25.0977,-13.7695 27.7018,-12.9883 29.7852,-11.4258 C31.8685,-9.86328 32.9102,-7.61719 32.9102,-4.6875 C32.9102,-0.195313 30.5827,4.00391 25.9277,7.91016 C21.2728,11.8164 16.276,13.7695 10.9375,13.7695 C7.8125,13.7695 5.17578,12.9557 3.02734,11.3281 C1.00911,9.57031 0,7.35677 0,4.6875 C0,0.325521 2.3112,-3.84115 6.93359,-7.8125 C11.556,-11.7839 16.569,-13.7695 21.9727,-13.7695"/>
<path class="Note" transform="matrix(2.0126,0,0,2.0126,1157.76,2286.64)" d="M21.9727,-13.7695 C25.0977,-13.7695 27.7018,-12.9883 29.7852,-11.4258 C31.8685,-9.86328 32.9102,-7.61719 32.9102,-4.6875 C32.9102,-0.195313 30.5827,4.00391 25.9277,7.91016 C21.2728,11.8164 16.276,13.7695 10.9375,13.7695 C7.8125,13.7695 5.17578,12.9557 3.02734,11.3281 C1.00911,9.57031 0,7.35677 0,4.6875 C0,0.325521 2.3112,-3.84115 6.93359,-7.8125 C11.556,-11.7839 16.569,-13.7695 21.9727,-13.7695"/>
<path class="Note" transform="matrix(2.0126,0,0,2.0126,1341.92,2311.8)" d="M21.9727,-13.7695 C25.0977,-13.7695 27.7018,-12.9883 29.7852,-11.4258 C31.8685,-9.86328 32.9102,-7.61719 32.9102,-4.6875 C32.9102,-0.195313 30.5827,4.00391 25.9277,7.91016 C21.2728,11.8164 16.276,13.7695 10.9375,13.7695 C7.8125,13.7695 5.17578,12.9557 3.02734,11.3281 C1.00911,9.57031 0,7.35677 0,4.6875 C0,0.325521 2.3112,-3.84115 6.93359,-7.8125 C11.556,-11.7839 16.569,-13.7695 21.9727,-13.7695"/>
<path class="Note" transform="matrix(2.0126,0,0,2.0126,1636.59,2336.95)" d="M21.9727,-13.7695 C25.0977,-13.7695 27.7018,-12.9883 29.7852,-11.4258 C31.8685,-9.86328 32.9102,-7.61719 32.9102,-4.6875 C32.9102,-0.195313 30.5827,4.00391 25.9277,7.91016 C21.2728,11.8164 16.276,13.7695 10.9375,13.7695 C7.8125,13.7695 5.17578,12.9557 3.02734,11.3281 C1.00911,9.57031 0,7.35677 0,4.6875 C0,0.325521 2.3112,-3.84115 6.93359,-7.8125 C11.556,-11.7839 16.569,-13.7695 21.9727,-13.7695"/>
<path class="Note" transform="matrix(2.0126,0,0,2.0126,1989.62,2336.95)" d="M7.42188,10.6445 C9.3099,10.6445 13.265,8.69141 19.2871,4.78516 C25.3092,0.878906 28.8574,-1.74154 29.9316,-3.07617 C31.0059,-4.41081 31.543,-5.59896 31.543,-6.64063 C31.543,-7.68229 31.1198,-8.61003 30.2734,-9.42383 C29.4271,-10.2376 28.4505,-10.6445 27.3438,-10.6445 C25.3906,-10.6445 21.403,-8.67513 15.3809,-4.73633 C9.35872,-0.797526 5.82682,1.82292 4.78516,3.125 C3.74349,4.42708 3.22266,5.59896 3.22266,6.64063 C3.22266,7.68229 3.62956,8.61003 4.44336,9.42383 C5.25716,10.2376 6.25,10.6445 7.42188,10.6445 M26.3672,-13.7695 C31.9661,-13.7695 34.7656,-11.3607 34.7656,-6.54297 C34.7656,-4.19922 34.082,-1.48112 32.7148,1.61133 C31.3477,4.70378 29.5247,7.0638 27.2461,8.69141 C22.2331,12.0768 15.9505,13.7695 8.39844,13.7695 C2.79948,13.7695 0,11.3607 0,6.54297 C0,4.39453 0.667318,1.72526 2.00195,-1.46484 C3.33659,-4.65495 5.17578,-7.0638 7.51953,-8.69141 C12.5326,-12.0768 18.8151,-13.7695 26.3672,-13.7695"/>
<path class="Note" transform="matrix(2.0126,0,0,2.0126,3017.47,2336.95)" d="M7.42188,10.6445 C9.3099,10.6445 13.265,8.69141 19.2871,4.78516 C25.3092,0.878906 28.8574,-1.74154 29.9316,-3.07617 C31.0059,-4.41081 31.543,-5.59896 31.543,-6.64063 C31.543,-7.68229 31.1198,-8.61003 30.2734,-9.42383 C29.4271,-10.2376 28.4505,-10.6445 27.3438,-10.6445 C25.3906,-10.6445 21.403,-8.67513 15.3809,-4.73633 C9.35872,-0.797526 5.82682,1.82292 4.78516,3.125 C3.74349,4.42708 3.22266,5.59896 3.22266,6.64063 C3.22266,7.68229 3.62956,8.61003 4.44336,9.42383 C5.25716,10.2376 6.25,10.6445 7.42188,10.6445 M26.3672,-13.7695 C31.9661,-13.7695 34.7656,-11.3607 34.7656,-6.54297 C34.7656,-4.19922 34.082,-1.48112 32.7148,1.61133 C31.3477,4.70378 29.5247,7.0638 27.2461,8.69141 C22.2331,12.0768 15.9505,13.7695 8.39844,13.7695 C2.79948,13.7695 0,11.3607 0,6.54297 C0,4.39453 0.667318,1.72526 2.00195,-1.46484 C3.33659,-4.65495 5.17578,-7.0638 7.51953,-8.69141 C12.5326,-12.0768 18.8151,-13.7695 26.3672,-13.7695"/>
<path class="Clef" transform="matrix(2.0126,0,0,2.0126,252.85,978.762)" d="M41.8945,32.1289 L41.8945,29.9805 C41.8294,28.8737 41.6667,27.1484 41.4063,24.8047 C38.151,25.3255 35.2539,25.5859 32.7148,25.5859 C23.6003,25.5859 15.8691,21.9889 9.52148,14.7949 C3.17383,7.60091 0,-0.976563 0,-10.9375 C0,-13.6068 0.520833,-16.8132 1.5625,-20.5566 C2.60417,-24.3001 3.56445,-26.8066 4.44336,-28.0762 C5.32227,-29.3457 6.64063,-31.5755 8.39844,-34.7656 C8.91927,-35.7422 10.612,-37.8906 13.4766,-41.2109 C13.9974,-41.9271 14.4531,-42.513 14.8438,-42.9688 C15.2344,-43.4245 15.8691,-44.2383 16.748,-45.4102 C17.627,-46.582 18.571,-47.6725 19.5801,-48.6816 C20.5892,-49.6908 21.4844,-50.6673 22.2656,-51.6113 C23.0469,-52.5553 23.763,-53.3529 24.4141,-54.0039 C22.0703,-61.7513 20.638,-67.7083 20.1172,-71.875 C19.5964,-76.0417 19.3359,-81.1523 19.3359,-87.207 C19.3359,-93.2617 20.638,-98.763 23.2422,-103.711 C25.7813,-108.854 29.3294,-113.053 33.8867,-116.309 C34.1471,-116.504 34.4889,-116.602 34.9121,-116.602 C35.3353,-116.602 35.6445,-116.504 35.8398,-116.309 C39.3555,-112.077 42.3991,-106.576 44.9707,-99.8047 C47.5423,-93.0339 48.8281,-86.7025 48.8281,-80.8105 C48.8281,-74.9186 47.3307,-69.2383 44.3359,-63.7695 C40.9505,-57.9753 36.5885,-51.9857 31.25,-45.8008 C32.6172,-41.5039 34.4401,-34.7656 36.7188,-25.5859 L37.3047,-25.5859 C37.5651,-25.651 37.793,-25.6836 37.9883,-25.6836 C45.3451,-25.6836 51.3509,-23.0957 56.0059,-17.9199 C60.6608,-12.7441 62.9883,-6.77083 62.9883,0 C62.9883,8.39844 59.5052,15.1693 52.5391,20.3125 C50.5208,21.8099 48.1445,22.9818 45.4102,23.8281 C45.7357,28.0599 45.8984,30.8757 45.8984,32.2754 C45.8984,33.6751 45.8333,36.1654 45.7031,39.7461 C45.638,45.8659 43.5547,51.1068 39.4531,55.4688 C35.3516,59.8307 30.6641,62.0117 25.3906,62.0117 C20.1172,62.0117 15.625,60.14 11.9141,56.3965 C8.20313,52.653 6.34766,48.112 6.34766,42.7734 C6.34766,39.974 7.42188,37.5977 9.57031,35.6445 C11.7839,33.6914 14.2741,32.7148 17.041,32.7148 C19.8079,32.7148 22.0703,33.724 23.8281,35.7422 C25.651,37.6302 26.5625,39.9089 26.5625,42.5781 C26.5625,45.2474 25.651,47.4935 23.8281,49.3164 C22.0052,51.1393 19.8242,52.0508 17.2852,52.0508 C16.2435,52.0508 15.2344,51.8555 14.2578,51.4648 C17.1224,55.6966 20.8008,57.8125 25.293,57.8125 C29.7852,57.8125 33.6263,55.957 36.8164,52.2461 C40.0065,48.5352 41.6016,44.1732 41.6016,39.1602 L41.8945,32.1289 M45.0195,19.8242 C48.4049,18.5872 51.0905,16.39 53.0762,13.2324 C55.0618,10.0749 56.0547,6.93359 56.0547,3.80859 C56.0547,-0.813802 54.4596,-4.94792 51.2695,-8.59375 C48.0794,-12.2396 44.043,-14.2904 39.1602,-14.7461 C41.9596,-1.00911 43.9128,10.5143 45.0195,19.8242 M7.22656,-2.73438 C7.22656,3.71094 9.79818,9.34245 14.9414,14.1602 C20.0846,18.9779 26.1068,21.3867 33.0078,21.3867 C35.7422,21.3867 38.4115,21.1914 41.0156,20.8008 C39.974,10.9049 37.9232,-0.94401 34.8633,-14.7461 C31.0221,-14.3555 28.0436,-13.0371 25.9277,-10.791 C23.8118,-8.54492 22.7539,-5.98958 22.7539,-3.125 C22.7539,1.82292 25.3906,5.82682 30.6641,8.88672 C31.1198,9.14714 31.3477,9.58659 31.3477,10.2051 C31.3477,10.8236 31.1361,11.3607 30.7129,11.8164 C30.2897,12.2721 29.9154,12.5 29.5898,12.5 C29.2643,12.5 28.8411,12.4349 28.3203,12.3047 C20.7031,8.13802 16.8945,1.85547 16.8945,-6.54297 C16.8945,-10.5143 18.2943,-14.3229 21.0938,-17.9688 C24.0234,-21.6146 27.832,-23.9583 32.5195,-25 C30.6966,-32.2917 29.1992,-37.9883 28.0273,-42.0898 C19.1081,-32.0638 13.5742,-24.6419 11.4258,-19.8242 C8.6263,-13.5742 7.22656,-7.8776 7.22656,-2.73438 M39.8438,-102.051 C34.9609,-99.6419 31.1035,-96.1589 28.2715,-91.6016 C25.4395,-87.0443 24.0234,-82.2591 24.0234,-77.2461 C24.0234,-72.2331 25.1953,-65.7552 27.5391,-57.8125 C32.2266,-63.4766 35.7747,-68.7826 38.1836,-73.7305 C40.5924,-78.6784 41.7969,-83.5775 41.7969,-88.4277 C41.7969,-93.278 41.1458,-97.819 39.8438,-102.051"/>
<path class="Clef" transform="matrix(2.0126,0,0,2.0126,252.85,1670.44)" d="M41.8945,32.1289 L41.8945,29.9805 C41.8294,28.8737 41.6667,27.1484 41.4063,24.8047 C38.151,25.3255 35.2539,25.5859 32.7148,25.5859 C23.6003,25.5859 15.8691,21.9889 9.52148,14.7949 C3.17383,7.60091 0,-0.976563 0,-10.9375 C0,-13.6068 0.520833,-16.8132 1.5625,-20.5566 C2.60417,-24.3001 3.56445,-26.8066 4.44336,-28.0762 C5.32227,-29.3457 6.64063,-31.5755 8.39844,-34.7656 C8.91927,-35.7422 10.612,-37.8906 13.4766,-41.2109 C13.9974,-41.9271 14.4531,-42.513 14.8438,-42.9688 C15.2344,-43.4245 15.8691,-44.2383 16.748,-45.4102 C17.627,-46.582 18.571,-47.6725 19.5801,-48.6816 C20.5892,-49.6908 21.4844,-50.6673 22.2656,-51.6113 C23.0469,-52.5553 23.763,-53.3529 24.4141,-54.0039 C22.0703,-61.7513 20.638,-67.7083 20.1172,-71.875 C19.5964,-76.0417 19.3359,-81.1523 19.3359,-87.207 C19.3359,-93.2617 20.638,-98.763 23.2422,-103.711 C25.7813,-108.854 29.3294,-113.053 33.8867,-116.309 C34.1471,-116.504 34.4889,-116.602 34.9121,-116.602 C35.3353,-116.602 35.6445,-116.504 35.8398,-116.309 C39.3555,-112.077 42.3991,-106.576 44.9707,-99.8047 C47.5423,-93.0339 48.8281,-86.7025 48.8281,-80.8105 C48.8281,-74.9186 47.3307,-69.2383 44.3359,-63.7695 C40.9505,-57.9753 36.5885,-51.9857 31.25,-45.8008 C32.6172,-41.5039 34.4401,-34.7656 36.7188,-25.5859 L37.3047,-25.5859 C37.5651,-25.651 37.793,-25.6836 37.9883,-25.6836 C45.3451,-25.6836 51.3509,-23.0957 56.0059,-17.9199 C60.6608,-12.7441 62.9883,-6.77083 62.9883,0 C62.9883,8.39844 59.5052,15.1693 52.5391,20.3125 C50.5208,21.8099 48.1445,22.9818 45.4102,23.8281 C45.7357,28.0599 45.8984,30.8757 45.8984,32.2754 C45.8984,33.6751 45.8333,36.1654 45.7031,39.7461 C45.638,45.8659 43.5547,51.1068 39.4531,55.4688 C35.3516,59.8307 30.6641,62.0117 25.3906,62.0117 C20.1172,62.0117 15.625,60.14 11.9141,56.3965 C8.20313,52.653 6.34766,48.112 6.34766,42.7734 C6.34766,39.974 7.42188,37.5977 9.57031,35.6445 C11.7839,33.6914 14.2741,32.7148 17.041,32.7148 C19.8079,32.7148 22.0703,33.724 23.8281,35.7422 C25.651,37.6302 26.5625,39.9089 26.5625,42.5781 C26.5625,45.2474 25.651,47.4935 23.8281,49.3164 C22.0052,51.1393 19.8242,52.0508 17.2852,52.0508 C16.2435,52.0508 15.2344,51.8555 14.2578,51.4648 C17.1224,55.6966 20.8008,57.8125 25.293,57.8125 C29.7852,57.8125 33.6263,55.957 36.8164,52.2461 C40.0065,48.5352 41.6016,44.1732 41.6016,39.1602 L41.8945,32.1289 M45.0195,19.8242 C48.4049,18.5872 51.0905,16.39 53.0762,13.2324 C55.0618,10.0749 56.0547,6.93359 56.0547,3.80859 C56.0547,-0.813802 54.4596,-4.94792 51.2695,-8.59375 C48.0794,-12.2396 44.043,-14.2904 39.1602,-14.7461 C41.9596,-1.00911 43.9128,10.5143 45.0195,19.8242 M7.22656,-2.73438 C7.22656,3.71094 9.79818,9.34245 14.9414,14.1602 C20.0846,18.9779 26.1068,21.3867 33.0078,21.3867 C35.7422,21.3867 38.4115,21.1914 41.0156,20.8008 C39.974,10.9049 37.9232,-0.94401 34.8633,-14.7461 C31.0221,-14.3555 28.0436,-13.0371 25.9277,-10.791 C23.8118,-8.54492 22.7539,-5.98958 22.7539,-3.125 C22.7539,1.82292 25.3906,5.82682 30.6641,8.88672 C31.1198,9.14714 31.3477,9.58659 31.3477,10.2051 C31.3477,10.8236 31.1361,11.3607 30.7129,11.8164 C30.2897,12.2721 29.9154,12.5 29.5898,12.5 C29.2643,12.5 28.8411,12.4349 28.3203,12.3047 C20.7031,8.13802 16.8945,1.85547 16.8945,-6.54297 C16.8945,-10.5143 18.2943,-14.3229 21.0938,-17.9688 C24.0234,-21.6146 27.832,-23.9583 32.5195,-25 C30.6966,-32.2917 29.1992,-37.9883 28.0273,-42.0898 C19.1081,-32.0638 13.5742,-24.6419 11.4258,-19.8242 C8.6263,-13.5742 7.22656,-7.8776 7.22656,-2.73438 M39.8438,-102.051 C34.9609,-99.6419 31.1035,-96.1589 28.2715,-91.6016 C25.4395,-87.0443 24.0234,-82.2591 24.0234,-77.2461 C24.0234,-72.2331 25.1953,-65.7552 27.5391,-57.8125 C32.2266,-63.4766 35.7747,-68.7826 38.1836,-73.7305 C40.5924,-78.6784 41.7969,-83.5775 41.7969,-88.4277 C41.7969,-93.278 41.1458,-97.819 39.8438,-102.051"/>
<path class="Clef" transform="matrix(2.0126,0,0,2.0126,252.85,2362.11)" d="M41.8945,32.1289 L41.8945,29.9805 C41.8294,28.8737 41.6667,27.1484 41.4063,24.8047 C38.151,25.3255 35.2539,25.5859 32.7148,25.5859 C23.6003,25.5859 15.8691,21.9889 9.52148,14.7949 C3.17383,7.60091 0,-0.976563 0,-10.9375 C0,-13.6068 0.520833,-16.8132 1.5625,-20.5566 C2.60417,-24.3001 3.56445,-26.8066 4.44336,-28.0762 C5.32227,-29.3457 6.64063,-31.5755 8.39844,-34.7656 C8.91927,-35.7422 10.612,-37.8906 13.4766,-41.2109 C13.9974,-41.9271 14.4531,-42.513 14.8438,-42.9688 C15.2344,-43.4245 15.8691,-44.2383 16.748,-45.4102 C17.627,-46.582 18.571,-47.6725 19.5801,-48.6816 C20.5892,-49.6908 21.4844,-50.6673 22.2656,-51.6113 C23.0469,-52.5553 23.763,-53.3529 24.4141,-54.0039 C22.0703,-61.7513 20.638,-67.7083 20.1172,-71.875 C19.5964,-76.0417 19.3359,-81.1523 19.3359,-87.207 C19.3359,-93.2617 20.638,-98.763 23.2422,-103.711 C25.7813,-108.854 29.3294,-113.053 33.8867,-116.309 C34.1471,-116.504 34.4889,-116.602 34.9121,-116.602 C35.3353,-116.602 35.6445,-116.504 35.8398,-116.309 C39.3555,-112.077 42.3991,-106.576 44.9707,-99.8047 C47.5423,-93.0339 48.8281,-86.7025 48.8281,-80.8105 C48.8281,-74.9186 47.3307,-69.2383 44.3359,-63.7695 C40.9505,-57.9753 36.5885,-51.9857 31.25,-45.8008 C32.6172,-41.5039 34.4401,-34.7656 36.7188,-25.5859 L37.3047,-25.5859 C37.5651,-25.651 37.793,-25.6836 37.9883,-25.6836 C45.3451,-25.6836 51.3509,-23.0957 56.0059,-17.9199 C60.6608,-12.7441 62.9883,-6.77083 62.9883,0 C62.9883,8.39844 59.5052,15.1693 52.5391,20.3125 C50.5208,21.8099 48.1445,22.9818 45.4102,23.8281 C45.7357,28.0599 45.8984,30.8757 45.8984,32.2754 C45.8984,33.6751 45.8333,36.1654 45.7031,39.7461 C45.638,45.8659 43.5547,51.1068 39.4531,55.4688 C35.3516,59.8307 30.6641,62.0117 25.3906,62.0117 C20.1172,62.0117 15.625,60.14 11.9141,56.3965 C8.20313,52.653 6.34766,48.112 6.34766,42.7734 C6.34766,39.974 7.42188,37.5977 9.57031,35.6445 C11.7839,33.6914 14.2741,32.7148 17.041,32.7148 C19.8079,32.7148 22.0703,33.724 23.8281,35.7422 C25.651,37.6302 26.5625,39.9089 26.5625,42.5781 C26.5625,45.2474 25.651,47.4935 23.8281,49.3164 C22.0052,51.1393 19.8242,52.0508 17.2852,52.0508 C16.2435,52.0508 15.2344,51.8555 14.2578,51.4648 C17.1224,55.6966 20.8008,57.8125 25.293,57.8125 C29.7852,57.8125 33.6263,55.957 36.8164,52.2461 C40.0065,48.5352 41.6016,44.1732 41.6016,39.1602 L41.8945,32.1289 M45.0195,19.8242 C48.4049,18.5872 51.0905,16.39 53.0762,13.2324 C55.0618,10.0749 56.0547,6.93359 56.0547,3.80859 C56.0547,-0.813802 54.4596,-4.94792 51.2695,-8.59375 C48.0794,-12.2396 44.043,-14.2904 39.1602,-14.7461 C41.9596,-1.00911 43.9128,10.5143 45.0195,19.8242 M7.22656,-2.73438 C7.22656,3.71094 9.79818,9.34245 14.9414,14.1602 C20.0846,18.9779 26.1068,21.3867 33.0078,21.3867 C35.7422,21.3867 38.4115,21.1914 41.0156,20.8008 C39.974,10.9049 37.9232,-0.94401 34.8633,-14.7461 C31.0221,-14.3555 28.0436,-13.0371 25.9277,-10.791 C23.8118,-8.54492 22.7539,-5.98958 22.7539,-3.125 C22.7539,1.82292 25.3906,5.82682 30.6641,8.88672 C31.1198,9.14714 31.3477,9.58659 31.3477,10.2051 C31.3477,10.8236 31.1361,11.3607 30.7129,11.8164 C30.2897,12.2721 29.9154,12.5 29.5898,12.5 C29.2643,12.5 28.8411,12.4349 28.3203,12.3047 C20.7031,8.13802 16.8945,1.85547 16.8945,-6.54297 C16.8945,-10.5143 18.2943,-14.3229 21.0938,-17.9688 C24.0234,-21.6146 27.832,-23.9583 32.5195,-25 C30.6966,-32.2917 29.1992,-37.9883 28.0273,-42.0898 C19.1081,-32.0638 13.5742,-24.6419 11.4258,-19.8242 C8.6263,-13.5742 7.22656,-7.8776 7.22656,-2.73438 M39.8438,-102.051 C34.9609,-99.6419 31.1035,-96.1589 28.2715,-91.6016 C25.4395,-87.0443 24.0234,-82.2591 24.0234,-77.2461 C24.0234,-72.2331 25.1953,-65.7552 27.5391,-57.8125 C32.2266,-63.4766 35.7747,-68.7826 38.1836,-73.7305 C40.5924,-78.6784 41.7969,-83.5775 41.7969,-88.4277 C41.7969,-93.278 41.1458,-97.819 39.8438,-102.051"/>
<path class="KeySig" transform="matrix(2.0126,0,0,2.0126,430.006,827.817)" d="M22.6563,-21.9727 C24.0885,-22.3633 24.8047,-22.0052 24.8047,-20.8984 L24.8047,-13.0859 C24.8047,-12.3047 24.1862,-11.6862 22.9492,-11.2305 L19.7266,-9.96094 L19.7266,4.19922 L22.6563,3.02734 C24.0885,2.63672 24.8047,2.99479 24.8047,4.10156 L24.8047,11.9141 C24.8047,12.6953 24.1862,13.3138 22.9492,13.7695 L19.7266,15.0391 L19.7266,31.25 C19.7266,32.487 19.2383,33.1055 18.2617,33.1055 C17.2852,33.1055 16.7969,32.487 16.7969,31.25 L16.7969,16.2109 L7.51953,19.9219 L7.51953,36.0352 C7.51953,37.2721 7.03125,37.8906 6.05469,37.8906 C5.07813,37.8906 4.58984,37.2721 4.58984,36.0352 L4.58984,21.0938 L2.05078,22.168 C0.683594,22.7539 0,22.3633 0,20.9961 L0,13.2813 C0,12.6302 0.585938,12.0443 1.75781,11.5234 L4.58984,10.3516 L4.58984,-3.90625 L2.05078,-2.83203 C0.683594,-2.24609 0,-2.63672 0,-4.00391 L0,-11.7188 C0,-12.3698 0.585938,-12.9557 1.75781,-13.4766 L4.58984,-14.6484 L4.58984,-30.7617 C4.58984,-31.9987 5.07813,-32.6172 6.05469,-32.6172 C7.03125,-32.6172 7.51953,-31.9987 7.51953,-30.7617 L7.51953,-15.8203 L16.7969,-19.6289 L16.7969,-35.5469 C16.7969,-36.7839 17.2852,-37.4023 18.2617,-37.4023 C19.2383,-37.4023 19.7266,-36.7839 19.7266,-35.5469 L19.7266,-20.8008 L22.6563,-21.9727 M7.51953,-5.07813 L7.51953,9.17969 L16.7969,5.37109 L16.7969,-8.78906 L7.51953,-5.07813 "/>
<path class="KeySig" transform="matrix(2.0126,0,0,2.0126,430.006,1519.49)" d="M22.6563,-21.9727 C24.0885,-22.3633 24.8047,-22.0052 24.8047,-20.8984 L24.8047,-13.0859 C24.8047,-12.3047 24.1862,-11.6862 22.9492,-11.2305 L19.7266,-9.96094 L19.7266,4.19922 L22.6563,3.02734 C24.0885,2.63672 24.8047,2.99479 24.8047,4.10156 L24.8047,11.9141 C24.8047,12.6953 24.1862,13.3138 22.9492,13.7695 L19.7266,15.0391 L19.7266,31.25 C19.7266,32.487 19.2383,33.1055 18.2617,33.1055 C17.2852,33.1055 16.7969,32.487 16.7969,31.25 L16.7969,16.2109 L7.51953,19.9219 L7.51953,36.0352 C7.51953,37.2721 7.03125,37.8906 6.05469,37.8906 C5.07813,37.8906 4.58984,37.2721 4.58984,36.0352 L4.58984,21.0938 L2.05078,22.168 C0.683594,22.7539 0,22.3633 0,20.9961 L0,13.2813 C0,12.6302 0.585938,12.0443 1.75781,11.5234 L4.58984,10.3516 L4.58984,-3.90625 L2.05078,-2.83203 C0.683594,-2.24609 0,-2.63672 0,-4.00391 L0,-11.7188 C0,-12.3698 0.585938,-12.9557 1.75781,-13.4766 L4.58984,-14.6484 L4.58984,-30.7617 C4.58984,-31.9987 5.07813,-32.6172 6.05469,-32.6172 C7.03125,-32.6172 7.51953,-31.9987 7.51953,-30.7617 L7.51953,-15.8203 L16.7969,-19.6289 L16.7969,-35.5469 C16.7969,-36.7839 17.2852,-37.4023 18.2617,-37.4023 C19.2383,-37.4023 19.7266,-36.7839 19.7266,-35.5469 L19.7266,-20.8008 L22.6563,-21.9727 M7.51953,-5.07813 L7.51953,9.17969 L16.7969,5.37109 L16.7969,-8.78906 L7.51953,-5.07813 "/>
<path class="KeySig" transform="matrix(2.0126,0,0,2.0126,430.006,2211.17)" d="M22.6563,-21.9727 C24.0885,-22.3633 24.8047,-22.0052 24.8047,-20.8984 L24.8047,-13.0859 C24.8047,-12.3047 24.1862,-11.6862 22.9492,-11.2305 L19.7266,-9.96094 L19.7266,4.19922 L22.6563,3.02734 C24.0885,2.63672 24.8047,2.99479 24.8047,4.10156 L24.8047,11.9141 C24.8047,12.6953 24.1862,13.3138 22.9492,13.7695 L19.7266,15.0391 L19.7266,31.25 C19.7266,32.487 19.2383,33.1055 18.2617,33.1055 C17.2852,33.1055 16.7969,32.487 16.7969,31.25 L16.7969,16.2109 L7.51953,19.9219 L7.51953,36.0352 C7.51953,37.2721 7.03125,37.8906 6.05469,37.8906 C5.07813,37.8906 4.58984,37.2721 4.58984,36.0352 L4.58984,21.0938 L2.05078,22.168 C0.683594,22.7539 0,22.3633 0,20.9961 L0,13.2813 C0,12.6302 0.585938,12.0443 1.75781,11.5234 L4.58984,10.3516 L4.58984,-3.90625 L2.05078,-2.83203 C0.683594,-2.24609 0,-2.63672 0,-4.00391 L0,-11.7188 C0,-12.3698 0.585938,-12.9557 1.75781,-13.4766 L4.58984,-14.6484 L4.58984,-30.7617 C4.58984,-31.9987 5.07813,-32.6172 6.05469,-32.6172 C7.03125,-32.6172 7.51953,-31.9987 7.51953,-30.7617 L7.51953,-15.8203 L16.7969,-19.6289 L16.7969,-35.5469 C16.7969,-36.7839 17.2852,-37.4023 18.2617,-37.4023 C19.2383,-37.4023 19.7266,-36.7839 19.7266,-35.5469 L19.7266,-20.8008 L22.6563,-21.9727 M7.51953,-5.07813 L7.51953,9.17969 L16.7969,5.37109 L16.7969,-8.78906 L7.51953,-5.07813 "/>
<path class="TimeSig" transform="matrix(2.0126,0,0,2.0126,533.592,878.132)" d="M22.8516,25 C20.8984,25 19.1406,24.6419 17.5781,23.9258 C16.0156,23.2096 14.8438,22.3958 14.0625,21.4844 C12.3047,19.401 10.5143,18.3594 8.69141,18.3594 C6.86849,18.3594 5.38737,18.8639 4.24805,19.873 C3.10872,20.8822 2.47396,22.2331 2.34375,23.9258 C2.21354,24.6419 1.79036,25 1.07422,25 C0.358073,25 0,24.6419 0,23.9258 C0,19.4336 2.01823,15.4297 6.05469,11.9141 C8.00781,10.2214 9.73307,8.82161 11.2305,7.71484 C12.7279,6.60807 14.5508,5.14323 16.6992,3.32031 C21.2565,-0.585938 23.5352,-5.20833 23.5352,-10.5469 C23.5352,-13.8672 22.9818,-16.7318 21.875,-19.1406 C20.7031,-21.4844 18.9128,-22.6563 16.5039,-22.6563 C15.0065,-22.6563 13.7858,-22.3307 12.8418,-21.6797 C11.8978,-21.0286 11.4258,-20.1986 11.4258,-19.1895 C11.4258,-18.1803 12.0117,-16.9922 13.1836,-15.625 C14.3555,-14.2578 14.9414,-13.1185 14.9414,-12.207 C14.9414,-10.2539 14.2741,-8.61003 12.9395,-7.27539 C11.6048,-5.94076 9.97721,-5.27344 8.05664,-5.27344 C6.13607,-5.27344 4.49219,-5.95703 3.125,-7.32422 C1.82292,-8.75651 1.17188,-10.3841 1.17188,-12.207 C1.17188,-15.918 2.66927,-18.9779 5.66406,-21.3867 C8.65885,-23.7956 12.4674,-25 17.0898,-25 C21.7122,-25 25.8789,-23.6654 29.5898,-20.9961 C33.3008,-18.3268 35.1563,-14.8438 35.1563,-10.5469 C35.1563,-4.6224 33.1706,-0.390625 29.1992,2.14844 C25.7487,4.36198 22.1029,6.23372 18.2617,7.76367 C14.4206,9.29362 11.7513,10.5469 10.2539,11.5234 C11.1003,11.3281 11.9792,11.2305 12.8906,11.2305 C15.8203,11.2305 18.9453,12.207 22.2656,14.1602 C25.5859,16.1133 28.2227,17.0898 30.1758,17.0898 C32.1289,17.0898 33.3659,16.4551 33.8867,15.1855 C34.4076,13.916 34.9609,13.2813 35.5469,13.2813 C36.3281,13.2813 36.7188,13.6719 36.7188,14.4531 C36.7188,16.276 35.4329,18.4896 32.8613,21.0938 C30.2897,23.6979 26.9531,25 22.8516,25"/>
<path class="TimeSig" transform="matrix(2.0126,0,0,2.0126,530.07,978.935)" d="M23.1445,-23.7305 C24.6419,-23.7305 26.0742,-23.9583 27.4414,-24.4141 C28.8086,-24.8698 29.7852,-25.0977 30.3711,-25.0977 C30.957,-25.0977 31.3477,-24.7396 31.543,-24.0234 C31.543,-23.9583 31.4779,-23.763 31.3477,-23.4375 L2.92969,9.57031 L19.6289,9.57031 L19.6289,-3.51563 C19.6289,-5.14323 20.5729,-6.3151 22.4609,-7.03125 C24.4141,-7.7474 26.6276,-10.6445 29.1016,-15.7227 C29.2969,-16.1133 29.5898,-16.3086 29.9805,-16.3086 C30.7617,-16.3086 31.2174,-15.8529 31.3477,-14.9414 L31.3477,9.57031 L38.4766,9.57031 C39.388,9.57031 39.8763,10.0586 39.9414,11.0352 C40.0065,12.0117 39.5182,12.5 38.4766,12.5 L31.3477,12.5 L31.3477,13.2813 C31.3477,15.8854 31.9987,18.099 33.3008,19.9219 C34.7982,21.7448 36.556,22.6563 38.5742,22.6563 C39.3555,22.6563 39.7461,23.0469 39.7461,23.8281 C39.7461,24.6094 39.209,25 38.1348,25 C37.0605,25 35.0586,24.7884 32.1289,24.3652 C29.1992,23.9421 26.9368,23.7305 25.3418,23.7305 C23.7467,23.7305 21.5332,23.9421 18.7012,24.3652 C15.8691,24.7884 13.737,25 12.3047,25 C11.5234,25 11.1328,24.6094 11.1328,23.8281 C11.1328,23.0469 11.5234,22.6563 12.3047,22.6563 C14.3229,22.6563 16.0807,21.7448 17.5781,19.9219 C18.9453,18.0339 19.6289,15.8203 19.6289,13.2813 L19.6289,12.5 L2.92969,12.5 C2.08333,12.5 1.35091,12.2721 0.732422,11.8164 C0.113932,11.3607 -0.195313,10.9375 -0.195313,10.5469 C-0.195313,10.1563 0.61849,8.98438 2.24609,7.03125 C3.8737,5.07813 6.20117,1.31836 9.22852,-4.24805 C12.2559,-9.81445 13.7695,-16.2109 13.7695,-23.4375 C13.7695,-24.4792 14.2253,-25 15.1367,-25 C15.332,-25 15.6413,-24.9349 16.0645,-24.8047 C16.4876,-24.6745 17.3991,-24.4629 18.7988,-24.1699 C20.1986,-23.877 21.6471,-23.7305 23.1445,-23.7305"/>
<path class="Beam" fill-rule="evenodd" d="M711.204,953.323 L835.959,979.873 L835.959,1005.59 L711.204,979.044 L711.204,953.323 "/>
<path class="Beam" fill-rule="evenodd" d="M1084.62,964.961 L1202.6,1018.23 L1202.6,1045.83 L1084.62,992.564 L1084.62,964.961 "/>
<path class="Beam" fill-rule="evenodd" d="M1367.2,764.106 L1485.19,777.423 L1485.19,802.74 L1367.2,789.423 L1367.2,764.106 "/>
<path class="Beam" fill-rule="evenodd" d="M1593.87,1053.92 L1711.85,1080.55 L1711.85,1106.34 L1593.87,1079.71 L1593.87,1053.92 "/>
<path class="Beam" fill-rule="evenodd" d="M1816.75,953.288 L1934.73,979.922 L1934.73,1005.71 L1816.75,979.079 L1816.75,953.288 "/>
<path class="Beam" fill-rule="evenodd" d="M2103.12,964.961 L2221.1,1018.23 L2221.1,1045.83 L2103.12,992.564 L2103.12,964.961 "/>
<path class="Beam" fill-rule="evenodd" d="M2385.7,764.106 L2503.68,777.423 L2503.68,802.74 L2385.7,789.423 L2385.7,764.106 "/>
<path class="Beam" fill-rule="evenodd" d="M2764.75,953.173 L2866.53,980.059 L2866.53,1006.08 L2764.75,979.194 L2764.75,953.173 "/>
<path class="Beam" fill-rule="evenodd" d="M3325.62,829.114 L3427.4,802.229 L3427.4,828.249 L3325.62,855.134 L3325.62,829.114 "/>
<path class="Beam" fill-rule="evenodd" d="M3536.08,1029.08 L3654.06,1029.08 L3654.06,1054.23 L3536.08,1054.23 L3536.08,1029.08 "/>
<path class="Beam" fill-rule="evenodd" d="M3818.66,764.106 L3936.65,777.423 L3936.65,802.74 L3818.66,789.423 L3818.66,764.106 "/>
<path class="Beam" fill-rule="evenodd" d="M664.961,1404.65 L973.147,1468.91 L973.147,1494.6 L664.961,1430.35 L664.961,1404.65 "/>
<path class="Beam" fill-rule="evenodd" d="M664.961,1442.38 L973.147,1506.64 L973.147,1532.34 L664.961,1468.08 L664.961,1442.38 "/>
<path class="Beam" fill-rule="evenodd" d="M1067.15,1469.18 L1375.34,1469.18 L1375.34,1494.33 L1067.15,1494.33 L1067.15,1469.18 "/>
<path class="Beam" fill-rule="evenodd" d="M1067.15,1506.91 L1375.34,1506.91 L1375.34,1532.07 L1067.15,1532.07 L1067.15,1506.91 "/>
<path class="Beam" fill-rule="evenodd" d="M1484.02,1745.91 L1760.14,1745.91 L1760.14,1771.07 L1484.02,1771.07 L1484.02,1745.91 "/>
<path class="Beam" fill-rule="evenodd" d="M1484.02,1708.17 L1760.14,1708.17 L1760.14,1733.33 L1484.02,1733.33 L1484.02,1708.17 "/>
<path class="Beam" fill-rule="evenodd" d="M1903.16,1455.98 L2053.48,1469.13 L2053.48,1494.38 L1903.16,1481.23 L1903.16,1455.98 "/>
<path class="Beam" fill-rule="evenodd" d="M2415.43,1520.71 L2525.94,1493.97 L2525.94,1519.85 L2415.43,1546.59 L2415.43,1520.71 "/>
<path class="Beam" fill-rule="evenodd" d="M2634.62,1720.75 L2759.55,1720.75 L2759.55,1745.91 L2634.62,1745.91 L2634.62,1720.75 "/>
<path class="Beam" fill-rule="evenodd" d="M2931.11,1455.83 L3056.05,1469.11 L3056.05,1494.4 L2931.11,1481.13 L2931.11,1455.83 "/>
<path class="Beam" fill-rule="evenodd" d="M3226.27,1404.65 L3534.45,1468.91 L3534.45,1494.6 L3226.27,1430.35 L3226.27,1404.65 "/>
<path class="Beam" fill-rule="evenodd" d="M3226.27,1442.38 L3534.45,1506.64 L3534.45,1532.34 L3226.27,1468.08 L3226.27,1442.38 "/>
<path class="Beam" fill-rule="evenodd" d="M3628.46,1469.18 L3936.65,1469.18 L3936.65,1494.33 L3628.46,1494.33 L3628.46,1469.18 "/>
<path class="Beam" fill-rule="evenodd" d="M3628.46,1506.91 L3936.65,1506.91 L3936.65,1532.07 L3628.46,1532.07 L3628.46,1506.91 "/>
<path class="Beam" fill-rule="evenodd" d="M605.259,2437.58 L1164.3,2437.58 L1164.3,2462.74 L605.259,2462.74 L605.259,2437.58 "/>
<path class="Beam" fill-rule="evenodd" d="M605.259,2399.85 L1164.3,2399.85 L1164.3,2425 L605.259,2425 L605.259,2399.85 "/>
<path class="Beam" fill-rule="evenodd" d="M1401.62,2147.98 L1702.83,2160.84 L1702.83,2186.02 L1401.62,2173.16 L1401.62,2147.98 "/>
<path class="VoltaSegment" d="M2596.65,708.313 C2595.77,708.313 2594.71,708.498 2593.49,708.868 C2592.27,709.238 2590.97,709.682 2589.61,710.2 C2588.24,710.718 2587.44,711.014 2587.22,711.088 L2587.22,708.202 L2615.19,696.103 L2617.08,696.103 L2617.08,759.373 C2617.08,763.665 2617.82,766.459 2619.3,767.754 C2620.78,769.049 2624.03,769.733 2629.07,769.807 L2629.07,772.471 L2587.44,772.471 L2587.44,769.807 C2592.92,769.733 2596.49,769.012 2598.15,767.643 C2599.82,766.274 2600.65,763.295 2600.65,758.707 L2600.65,715.972 C2600.65,710.866 2599.32,708.313 2596.65,708.313 M2649.38,755.155 C2651.97,755.155 2654.19,756.099 2656.04,757.986 C2657.89,759.873 2658.81,762.111 2658.81,764.701 C2658.81,767.291 2657.89,769.474 2656.04,771.25 C2654.19,773.026 2651.93,773.914 2649.27,773.914 C2646.68,773.914 2644.5,773.008 2642.72,771.195 C2640.94,769.382 2640.06,767.143 2640.06,764.479 C2640.06,761.963 2640.98,759.78 2642.83,757.93 C2644.68,756.08 2646.86,755.155 2649.38,755.155"/>
<polyline class="VoltaSegment" fill="none" stroke="#000000" stroke-width="5.03" stroke-linecap="square" stroke-linejoin="bevel" points="2562.05,772.471 2562.05,676.873"/>
<polyline class="VoltaSegment" fill="none" stroke="#000000" stroke-width="5.03" stroke-linecap="square" stroke-linejoin="bevel" points="2562.05,676.873 3040.1,676.873"/>
<polyline class="VoltaSegment" fill="none" stroke="#000000" stroke-width="5.03" stroke-linecap="square" stroke-linejoin="bevel" points="3040.1,676.873 3040.1,772.471"/>
<path class="VoltaSegment" d="M3089.94,718.747 C3095.56,703.651 3103.7,696.103 3114.36,696.103 C3120.35,696.103 3125.27,698.009 3129.12,701.82 C3132.97,705.631 3134.89,710.496 3134.89,716.416 C3134.89,724.556 3130.68,732.622 3122.24,740.614 L3104.26,757.708 L3121.02,757.708 C3126.72,757.708 3130.38,757.264 3132.01,756.376 C3133.64,755.488 3135.26,753.046 3136.89,749.05 L3139.56,749.05 L3134.56,772.471 L3088.39,772.471 L3088.39,769.918 C3101.04,756.45 3109.44,746.516 3113.58,740.115 C3117.73,733.714 3119.8,727.96 3119.8,722.854 C3119.8,719.08 3118.58,715.787 3116.14,712.975 C3113.69,710.163 3110.51,708.757 3106.59,708.757 C3100.89,708.757 3096.38,712.087 3093.05,718.747 L3089.94,718.747 M3155.87,755.155 C3158.46,755.155 3160.68,756.099 3162.53,757.986 C3164.38,759.873 3165.31,762.111 3165.31,764.701 C3165.31,767.291 3164.38,769.474 3162.53,771.25 C3160.68,773.026 3158.43,773.914 3155.76,773.914 C3153.17,773.914 3150.99,773.008 3149.21,771.195 C3147.44,769.382 3146.55,767.143 3146.55,764.479 C3146.55,761.963 3147.47,759.78 3149.32,757.93 C3151.17,756.08 3153.36,755.155 3155.87,755.155"/>
<polyline class="VoltaSegment" fill="none" stroke="#000000" stroke-width="5.03" stroke-linecap="square" stroke-linejoin="bevel" points="3063.22,772.471 3063.22,676.873"/>
<polyline class="VoltaSegment" fill="none" stroke="#000000" stroke-width="5.03" stroke-linecap="square" stroke-linejoin="bevel" points="3063.22,676.873 3481.74,676.873"/>
<polyline class="VoltaSegment" fill="none" stroke="#000000" stroke-width="5.03" stroke-linecap="square" stroke-linejoin="bevel" points="3481.74,676.873 3481.74,772.471"/>
</svg>
