<?xml version="1.0" encoding="UTF-8" standalone="no"?>
<svg width="4208.47px" height="2409.45px" viewBox="0 0 4208.47 2409.45"
 xmlns="http://www.w3.org/2000/svg" xmlns:xlink="http://www.w3.org/1999/xlink" version="1.2" baseProfile="tiny">
<title>PETE PIRATA</title>
<desc>Generated by MuseScore 3.6.2</desc>
<polyline class="StaffLines" fill="none" stroke="#000000" stroke-width="6.47" stroke-linejoin="bevel" points="70.866,547.779 4137.61,547.779"/>
<polyline class="StaffLines" fill="none" stroke="#000000" stroke-width="6.47" stroke-linejoin="bevel" points="70.866,606.598 4137.61,606.598"/>
<polyline class="StaffLines" fill="none" stroke="#000000" stroke-width="6.47" stroke-linejoin="bevel" points="70.866,665.417 4137.61,665.417"/>
<polyline class="StaffLines" fill="none" stroke="#000000" stroke-width="6.47" stroke-linejoin="bevel" points="70.866,724.236 4137.61,724.236"/>
<polyline class="StaffLines" fill="none" stroke="#000000" stroke-width="6.47" stroke-linejoin="bevel" points="70.866,783.055 4137.61,783.055"/>
<polyline class="StaffLines" fill="none" stroke="#000000" stroke-width="6.47" stroke-linejoin="bevel" points="70.866,1900 4137.61,1900"/>
<polyline class="StaffLines" fill="none" stroke="#000000" stroke-width="6.47" stroke-linejoin="bevel" points="70.866,1958.82 4137.61,1958.82"/>
<polyline class="StaffLines" fill="none" stroke="#000000" stroke-width="6.47" stroke-linejoin="bevel" points="70.866,2017.64 4137.61,2017.64"/>
<polyline class="StaffLines" fill="none" stroke="#000000" stroke-width="6.47" stroke-linejoin="bevel" points="70.866,2076.46 4137.61,2076.46"/>
<polyline class="StaffLines" fill="none" stroke="#000000" stroke-width="6.47" stroke-linejoin="bevel" points="70.866,2135.28 4137.61,2135.28"/>
<path class="MeasureNumber" d="M75.3504,1767.05 C74.1004,1767.8 73.741,1768.29 73.741,1769.08 C73.741,1769.85 74.3816,1770.41 75.1785,1770.41 C76.2254,1770.41 76.8191,1769.65 76.9441,1768.16 C78.1785,1767.16 79.5066,1766.72 81.1004,1766.72 C84.0691,1766.72 85.7097,1768.57 85.7097,1771.88 C85.7097,1777.08 82.3504,1781.32 78.2254,1781.32 C75.866,1781.32 73.9441,1780.21 73.9441,1778.88 C73.9441,1778.65 73.991,1778.57 74.1785,1778.44 C75.2254,1777.96 75.2254,1777.96 75.5066,1777.77 C76.1472,1777.29 76.5066,1776.57 76.5066,1775.72 C76.5066,1774.44 75.5066,1773.49 74.1004,1773.49 C72.3504,1773.49 71.0222,1774.96 71.0222,1776.88 C71.0222,1780.41 74.0691,1782.96 78.3504,1782.96 C84.8191,1782.96 90.0691,1777.8 90.0691,1771.41 C90.0691,1767.36 86.991,1764.52 82.6316,1764.52 C80.8972,1764.52 79.5066,1764.88 77.5847,1765.85 L79.8191,1758.29 C81.9441,1758.72 83.6316,1758.93 85.0691,1758.93 C87.7097,1758.93 90.0691,1758.08 91.3816,1756.69 C92.0691,1755.9 92.4597,1755.21 92.4597,1754.69 C92.4597,1754.44 92.3347,1754.21 92.1785,1754.21 C92.0691,1754.21 91.9754,1754.25 91.741,1754.36 C90.4285,1755 88.741,1755.36 87.1785,1755.36 C84.7879,1755.36 81.9441,1754.97 78.991,1754.21 L75.3504,1767.05 "/>
<polyline class="BarLine" fill="none" stroke="#000000" stroke-width="10.59" stroke-linejoin="bevel" points="1367.62,544.544 1367.62,786.29"/>
<polyline class="BarLine" fill="none" stroke="#000000" stroke-width="10.59" stroke-linejoin="bevel" points="2463.26,544.544 2463.26,786.29"/>
<polyline class="BarLine" fill="none" stroke="#000000" stroke-width="10.59" stroke-linejoin="bevel" points="3191.93,544.544 3191.93,786.29"/>
<polyline class="BarLine" fill="none" stroke="#000000" stroke-width="10.59" stroke-linejoin="bevel" points="4132.31,544.544 4132.31,786.29"/>
<polyline class="BarLine" fill="none" stroke="#000000" stroke-width="10.59" stroke-linejoin="bevel" points="1256.99,1896.77 1256.99,2138.51"/>
<polyline class="BarLine" fill="none" stroke="#000000" stroke-width="10.59" stroke-linejoin="bevel" points="2372.15,1896.77 2372.15,2138.51"/>
<polyline class="BarLine" fill="none" stroke="#000000" stroke-width="10.59" stroke-linejoin="bevel" points="3120.35,1896.77 3120.35,2138.51"/>
<polyline class="BarLine" fill="none" stroke="#000000" stroke-width="10.59" stroke-linejoin="bevel" points="4080.26,1896.77 4080.26,2138.51"/>
<polyline class="BarLine" fill="none" stroke="#000000" stroke-width="32.35" stroke-linejoin="bevel" points="4121.43,1896.77 4121.43,2138.51"/>
<polyline class="LedgerLine" fill="none" stroke="#000000" stroke-width="9.41" stroke-linejoin="bevel" points="1940.25,488.96 2057.87,488.96"/>
<polyline class="LedgerLine" fill="none" stroke="#000000" stroke-width="9.41" stroke-linejoin="bevel" points="2144.84,488.96 2262.46,488.96"/>
<polyline class="LedgerLine" fill="none" stroke="#000000" stroke-width="9.41" stroke-linejoin="bevel" points="1841.46,1841.18 1959.08,1841.18"/>
<polyline class="LedgerLine" fill="none" stroke="#000000" stroke-width="9.41" stroke-linejoin="bevel" points="2050.78,1841.18 2168.4,1841.18"/>
<polyline class="Stem" fill="none" stroke="#000000" stroke-width="6.47" stroke-linejoin="bevel" points="723.94,614.504 723.94,805.112"/>
<polyline class="Stem" fill="none" stroke="#000000" stroke-width="6.47" stroke-linejoin="bevel" points="882.922,702.732 882.922,871.283"/>
<polyline class="Stem" fill="none" stroke="#000000" stroke-width="6.47" stroke-linejoin="bevel" points="1041.9,614.504 1041.9,805.112"/>
<polyline class="Stem" fill="none" stroke="#000000" stroke-width="6.47" stroke-linejoin="bevel" points="1452.61,614.504 1452.61,797.76"/>
<polyline class="Stem" fill="none" stroke="#000000" stroke-width="6.47" stroke-linejoin="bevel" points="1580.48,702.732 1580.48,856.579"/>
<polyline class="Stem" fill="none" stroke="#000000" stroke-width="6.47" stroke-linejoin="bevel" points="1708.35,614.504 1708.35,783.055"/>
<polyline class="Stem" fill="none" stroke="#000000" stroke-width="6.47" stroke-linejoin="bevel" points="1836.21,555.685 1836.21,724.236"/>
<polyline class="Stem" fill="none" stroke="#000000" stroke-width="6.47" stroke-linejoin="bevel" points="1964.08,496.866 1964.08,694.827"/>
<polyline class="Stem" fill="none" stroke="#000000" stroke-width="6.47" stroke-linejoin="bevel" points="2168.66,496.866 2168.66,694.827"/>
<polyline class="Stem" fill="none" stroke="#000000" stroke-width="6.47" stroke-linejoin="bevel" points="2548.25,614.504 2548.25,805.112"/>
<polyline class="Stem" fill="none" stroke="#000000" stroke-width="6.47" stroke-linejoin="bevel" points="2707.24,702.732 2707.24,871.283"/>
<polyline class="Stem" fill="none" stroke="#000000" stroke-width="6.47" stroke-linejoin="bevel" points="2866.22,614.504 2866.22,805.112"/>
<polyline class="Stem" fill="none" stroke="#000000" stroke-width="6.47" stroke-linejoin="bevel" points="3276.93,585.094 3276.93,768.35"/>
<polyline class="Stem" fill="none" stroke="#000000" stroke-width="6.47" stroke-linejoin="bevel" points="3395.44,614.504 3395.44,783.055"/>
<polyline class="Stem" fill="none" stroke="#000000" stroke-width="6.47" stroke-linejoin="bevel" points="3513.96,585.094 3513.96,738.941"/>
<polyline class="Stem" fill="none" stroke="#000000" stroke-width="6.47" stroke-linejoin="bevel" points="3632.48,555.685 3632.48,724.236"/>
<polyline class="Stem" fill="none" stroke="#000000" stroke-width="6.47" stroke-linejoin="bevel" points="3751,585.094 3751,783.055"/>
<polyline class="Stem" fill="none" stroke="#000000" stroke-width="6.47" stroke-linejoin="bevel" points="593.784,1966.73 593.784,2157.33"/>
<polyline class="Stem" fill="none" stroke="#000000" stroke-width="6.47" stroke-linejoin="bevel" points="759.071,2054.95 759.071,2223.51"/>
<polyline class="Stem" fill="none" stroke="#000000" stroke-width="6.47" stroke-linejoin="bevel" points="924.358,1966.73 924.358,2157.33"/>
<polyline class="Stem" fill="none" stroke="#000000" stroke-width="6.47" stroke-linejoin="bevel" points="1089.65,2054.95 1089.65,2223.51"/>
<polyline class="Stem" fill="none" stroke="#000000" stroke-width="6.47" stroke-linejoin="bevel" points="1341.98,1966.73 1341.98,2149.98"/>
<polyline class="Stem" fill="none" stroke="#000000" stroke-width="6.47" stroke-linejoin="bevel" points="1472.81,2054.95 1472.81,2208.8"/>
<polyline class="Stem" fill="none" stroke="#000000" stroke-width="6.47" stroke-linejoin="bevel" points="1603.63,1966.73 1603.63,2135.28"/>
<polyline class="Stem" fill="none" stroke="#000000" stroke-width="6.47" stroke-linejoin="bevel" points="1734.46,1907.91 1734.46,2076.46"/>
<polyline class="Stem" fill="none" stroke="#000000" stroke-width="6.47" stroke-linejoin="bevel" points="1865.28,1849.09 1865.28,2047.05"/>
<polyline class="Stem" fill="none" stroke="#000000" stroke-width="6.47" stroke-linejoin="bevel" points="2074.6,1849.09 2074.6,2047.05"/>
<polyline class="Stem" fill="none" stroke="#000000" stroke-width="6.47" stroke-linejoin="bevel" points="2457.15,1966.73 2457.15,2157.33"/>
<polyline class="Stem" fill="none" stroke="#000000" stroke-width="6.47" stroke-linejoin="bevel" points="2622.43,2054.95 2622.43,2223.51"/>
<polyline class="Stem" fill="none" stroke="#000000" stroke-width="6.47" stroke-linejoin="bevel" points="2787.72,1966.73 2787.72,2157.33"/>
<polyline class="Stem" fill="none" stroke="#000000" stroke-width="6.47" stroke-linejoin="bevel" points="2953.01,1907.91 2953.01,2105.87"/>
<polyline class="Stem" fill="none" stroke="#000000" stroke-width="6.47" stroke-linejoin="bevel" points="3205.35,1937.32 3205.35,2135.28"/>
<polyline class="Stem" fill="none" stroke="#000000" stroke-width="6.47" stroke-linejoin="bevel" points="3326.58,1966.73 3326.58,2135.28"/>
<polyline class="Stem" fill="none" stroke="#000000" stroke-width="6.47" stroke-linejoin="bevel" points="3447.81,1937.32 3447.81,2120.57"/>
<polyline class="Stem" fill="none" stroke="#000000" stroke-width="6.47" stroke-linejoin="bevel" points="3569.04,1907.91 3569.04,2105.87"/>
<polyline class="Stem" fill="none" stroke="#000000" stroke-width="6.47" stroke-linejoin="bevel" points="3690.26,1966.73 3690.26,2157.33"/>
<path class="Note" transform="matrix(2.35276,0,0,2.35276,720.705,606.598)" d="M31.5,-8.09375 C29.7031,-11.4063 25.9063,-13.2031 21.2969,-13.2031 C17.9063,-13.2031 14.2031,-12.2031 10.5938,-10.2969 C4,-6.79688 0,-0.90625 0,4.20313 C0,5.59375 0.296875,7 1,8.29688 C2.79688,11.5938 6.59375,13.2969 11.2031,13.2969 C14.5938,13.2969 18.2969,12.4063 21.9063,10.5 C28.5,7 32.5,1.09375 32.5,-4 C32.5,-5.40625 32.2031,-6.79688 31.5,-8.09375"/>
<path class="Note" transform="matrix(2.35276,0,0,2.35276,879.687,694.827)" d="M31.5,-8.09375 C29.7031,-11.4063 25.9063,-13.2031 21.2969,-13.2031 C17.9063,-13.2031 14.2031,-12.2031 10.5938,-10.2969 C4,-6.79688 0,-0.90625 0,4.20313 C0,5.59375 0.296875,7 1,8.29688 C2.79688,11.5938 6.59375,13.2969 11.2031,13.2969 C14.5938,13.2969 18.2969,12.4063 21.9063,10.5 C28.5,7 32.5,1.09375 32.5,-4 C32.5,-5.40625 32.2031,-6.79688 31.5,-8.09375"/>
<path class="Note" transform="matrix(2.35276,0,0,2.35276,1038.67,606.598)" d="M31.5,-8.09375 C29.7031,-11.4063 25.9063,-13.2031 21.2969,-13.2031 C17.9063,-13.2031 14.2031,-12.2031 10.5938,-10.2969 C4,-6.79688 0,-0.90625 0,4.20313 C0,5.59375 0.296875,7 1,8.29688 C2.79688,11.5938 6.59375,13.2969 11.2031,13.2969 C14.5938,13.2969 18.2969,12.4063 21.9063,10.5 C28.5,7 32.5,1.09375 32.5,-4 C32.5,-5.40625 32.2031,-6.79688 31.5,-8.09375"/>
<path class="Note" transform="matrix(2.35276,0,0,2.35276,1449.38,606.598)" d="M31.5,-8.09375 C29.7031,-11.4063 25.9063,-13.2031 21.2969,-13.2031 C17.9063,-13.2031 14.2031,-12.2031 10.5938,-10.2969 C4,-6.79688 0,-0.90625 0,4.20313 C0,5.59375 0.296875,7 1,8.29688 C2.79688,11.5938 6.59375,13.2969 11.2031,13.2969 C14.5938,13.2969 18.2969,12.4063 21.9063,10.5 C28.5,7 32.5,1.09375 32.5,-4 C32.5,-5.40625 32.2031,-6.79688 31.5,-8.09375"/>
<path class="Note" transform="matrix(2.35276,0,0,2.35276,1577.24,694.827)" d="M31.5,-8.09375 C29.7031,-11.4063 25.9063,-13.2031 21.2969,-13.2031 C17.9063,-13.2031 14.2031,-12.2031 10.5938,-10.2969 C4,-6.79688 0,-0.90625 0,4.20313 C0,5.59375 0.296875,7 1,8.29688 C2.79688,11.5938 6.59375,13.2969 11.2031,13.2969 C14.5938,13.2969 18.2969,12.4063 21.9063,10.5 C28.5,7 32.5,1.09375 32.5,-4 C32.5,-5.40625 32.2031,-6.79688 31.5,-8.09375"/>
<path class="Note" transform="matrix(2.35276,0,0,2.35276,1705.11,606.598)" d="M31.5,-8.09375 C29.7031,-11.4063 25.9063,-13.2031 21.2969,-13.2031 C17.9063,-13.2031 14.2031,-12.2031 10.5938,-10.2969 C4,-6.79688 0,-0.90625 0,4.20313 C0,5.59375 0.296875,7 1,8.29688 C2.79688,11.5938 6.59375,13.2969 11.2031,13.2969 C14.5938,13.2969 18.2969,12.4063 21.9063,10.5 C28.5,7 32.5,1.09375 32.5,-4 C32.5,-5.40625 32.2031,-6.79688 31.5,-8.09375"/>
<path class="Note" transform="matrix(2.35276,0,0,2.35276,1832.98,547.779)" d="M31.5,-8.09375 C29.7031,-11.4063 25.9063,-13.2031 21.2969,-13.2031 C17.9063,-13.2031 14.2031,-12.2031 10.5938,-10.2969 C4,-6.79688 0,-0.90625 0,4.20313 C0,5.59375 0.296875,7 1,8.29688 C2.79688,11.5938 6.59375,13.2969 11.2031,13.2969 C14.5938,13.2969 18.2969,12.4063 21.9063,10.5 C28.5,7 32.5,1.09375 32.5,-4 C32.5,-5.40625 32.2031,-6.79688 31.5,-8.09375"/>
<path class="Note" transform="matrix(2.35276,0,0,2.35276,1960.84,488.96)" d="M31.5,-8.09375 C29.7031,-11.4063 25.9063,-13.2031 21.2969,-13.2031 C17.9063,-13.2031 14.2031,-12.2031 10.5938,-10.2969 C4,-6.79688 0,-0.90625 0,4.20313 C0,5.59375 0.296875,7 1,8.29688 C2.79688,11.5938 6.59375,13.2969 11.2031,13.2969 C14.5938,13.2969 18.2969,12.4063 21.9063,10.5 C28.5,7 32.5,1.09375 32.5,-4 C32.5,-5.40625 32.2031,-6.79688 31.5,-8.09375"/>
<path class="Note" transform="matrix(2.35276,0,0,2.35276,2165.43,488.96)" d="M31.5,-8.09375 C29.7031,-11.4063 25.9063,-13.2031 21.2969,-13.2031 C17.9063,-13.2031 14.2031,-12.2031 10.5938,-10.2969 C4,-6.79688 0,-0.90625 0,4.20313 C0,5.59375 0.296875,7 1,8.29688 C2.79688,11.5938 6.59375,13.2969 11.2031,13.2969 C14.5938,13.2969 18.2969,12.4063 21.9063,10.5 C28.5,7 32.5,1.09375 32.5,-4 C32.5,-5.40625 32.2031,-6.79688 31.5,-8.09375"/>
<path class="Note" transform="matrix(2.35276,0,0,2.35276,2545.02,606.598)" d="M31.5,-8.09375 C29.7031,-11.4063 25.9063,-13.2031 21.2969,-13.2031 C17.9063,-13.2031 14.2031,-12.2031 10.5938,-10.2969 C4,-6.79688 0,-0.90625 0,4.20313 C0,5.59375 0.296875,7 1,8.29688 C2.79688,11.5938 6.59375,13.2969 11.2031,13.2969 C14.5938,13.2969 18.2969,12.4063 21.9063,10.5 C28.5,7 32.5,1.09375 32.5,-4 C32.5,-5.40625 32.2031,-6.79688 31.5,-8.09375"/>
<path class="Note" transform="matrix(2.35276,0,0,2.35276,2704,694.827)" d="M31.5,-8.09375 C29.7031,-11.4063 25.9063,-13.2031 21.2969,-13.2031 C17.9063,-13.2031 14.2031,-12.2031 10.5938,-10.2969 C4,-6.79688 0,-0.90625 0,4.20313 C0,5.59375 0.296875,7 1,8.29688 C2.79688,11.5938 6.59375,13.2969 11.2031,13.2969 C14.5938,13.2969 18.2969,12.4063 21.9063,10.5 C28.5,7 32.5,1.09375 32.5,-4 C32.5,-5.40625 32.2031,-6.79688 31.5,-8.09375"/>
<path class="Note" transform="matrix(2.35276,0,0,2.35276,2862.98,606.598)" d="M31.5,-8.09375 C29.7031,-11.4063 25.9063,-13.2031 21.2969,-13.2031 C17.9063,-13.2031 14.2031,-12.2031 10.5938,-10.2969 C4,-6.79688 0,-0.90625 0,4.20313 C0,5.59375 0.296875,7 1,8.29688 C2.79688,11.5938 6.59375,13.2969 11.2031,13.2969 C14.5938,13.2969 18.2969,12.4063 21.9063,10.5 C28.5,7 32.5,1.09375 32.5,-4 C32.5,-5.40625 32.2031,-6.79688 31.5,-8.09375"/>
<path class="Note" transform="matrix(2.35276,0,0,2.35276,3273.69,577.189)" d="M31.5,-8.09375 C29.7031,-11.4063 25.9063,-13.2031 21.2969,-13.2031 C17.9063,-13.2031 14.2031,-12.2031 10.5938,-10.2969 C4,-6.79688 0,-0.90625 0,4.20313 C0,5.59375 0.296875,7 1,8.29688 C2.79688,11.5938 6.59375,13.2969 11.2031,13.2969 C14.5938,13.2969 18.2969,12.4063 21.9063,10.5 C28.5,7 32.5,1.09375 32.5,-4 C32.5,-5.40625 32.2031,-6.79688 31.5,-8.09375"/>
<path class="Note" transform="matrix(2.35276,0,0,2.35276,3392.21,606.598)" d="M31.5,-8.09375 C29.7031,-11.4063 25.9063,-13.2031 21.2969,-13.2031 C17.9063,-13.2031 14.2031,-12.2031 10.5938,-10.2969 C4,-6.79688 0,-0.90625 0,4.20313 C0,5.59375 0.296875,7 1,8.29688 C2.79688,11.5938 6.59375,13.2969 11.2031,13.2969 C14.5938,13.2969 18.2969,12.4063 21.9063,10.5 C28.5,7 32.5,1.09375 32.5,-4 C32.5,-5.40625 32.2031,-6.79688 31.5,-8.09375"/>
<path class="Note" transform="matrix(2.35276,0,0,2.35276,3510.73,577.189)" d="M31.5,-8.09375 C29.7031,-11.4063 25.9063,-13.2031 21.2969,-13.2031 C17.9063,-13.2031 14.2031,-12.2031 10.5938,-10.2969 C4,-6.79688 0,-0.90625 0,4.20313 C0,5.59375 0.296875,7 1,8.29688 C2.79688,11.5938 6.59375,13.2969 11.2031,13.2969 C14.5938,13.2969 18.2969,12.4063 21.9063,10.5 C28.5,7 32.5,1.09375 32.5,-4 C32.5,-5.40625 32.2031,-6.79688 31.5,-8.09375"/>
<path class="Note" transform="matrix(2.35276,0,0,2.35276,3629.24,547.779)" d="M31.5,-8.09375 C29.7031,-11.4063 25.9063,-13.2031 21.2969,-13.2031 C17.9063,-13.2031 14.2031,-12.2031 10.5938,-10.2969 C4,-6.79688 0,-0.90625 0,4.20313 C0,5.59375 0.296875,7 1,8.29688 C2.79688,11.5938 6.59375,13.2969 11.2031,13.2969 C14.5938,13.2969 18.2969,12.4063 21.9063,10.5 C28.5,7 32.5,1.09375 32.5,-4 C32.5,-5.40625 32.2031,-6.79688 31.5,-8.09375"/>
<path class="Note" transform="matrix(2.35276,0,0,2.35276,3747.76,577.189)" d="M31.5,-8.09375 C29.7031,-11.4063 25.9063,-13.2031 21.2969,-13.2031 C17.9063,-13.2031 14.2031,-12.2031 10.5938,-10.2969 C4,-6.79688 0,-0.90625 0,4.20313 C0,5.59375 0.296875,7 1,8.29688 C2.79688,11.5938 6.59375,13.2969 11.2031,13.2969 C14.5938,13.2969 18.2969,12.4063 21.9063,10.5 C28.5,7 32.5,1.09375 32.5,-4 C32.5,-5.40625 32.2031,-6.79688 31.5,-8.09375"/>
<path class="Note" transform="matrix(2.35276,0,0,2.35276,590.549,1958.82)" d="M31.5,-8.09375 C29.7031,-11.4063 25.9063,-13.2031 21.2969,-13.2031 C17.9063,-13.2031 14.2031,-12.2031 10.5938,-10.2969 C4,-6.79688 0,-0.90625 0,4.20313 C0,5.59375 0.296875,7 1,8.29688 C2.79688,11.5938 6.59375,13.2969 11.2031,13.2969 C14.5938,13.2969 18.2969,12.4063 21.9063,10.5 C28.5,7 32.5,1.09375 32.5,-4 C32.5,-5.40625 32.2031,-6.79688 31.5,-8.09375"/>
<path class="Note" transform="matrix(2.35276,0,0,2.35276,755.836,2047.05)" d="M31.5,-8.09375 C29.7031,-11.4063 25.9063,-13.2031 21.2969,-13.2031 C17.9063,-13.2031 14.2031,-12.2031 10.5938,-10.2969 C4,-6.79688 0,-0.90625 0,4.20313 C0,5.59375 0.296875,7 1,8.29688 C2.79688,11.5938 6.59375,13.2969 11.2031,13.2969 C14.5938,13.2969 18.2969,12.4063 21.9063,10.5 C28.5,7 32.5,1.09375 32.5,-4 C32.5,-5.40625 32.2031,-6.79688 31.5,-8.09375"/>
<path class="Note" transform="matrix(2.35276,0,0,2.35276,921.123,1958.82)" d="M31.5,-8.09375 C29.7031,-11.4063 25.9063,-13.2031 21.2969,-13.2031 C17.9063,-13.2031 14.2031,-12.2031 10.5938,-10.2969 C4,-6.79688 0,-0.90625 0,4.20313 C0,5.59375 0.296875,7 1,8.29688 C2.79688,11.5938 6.59375,13.2969 11.2031,13.2969 C14.5938,13.2969 18.2969,12.4063 21.9063,10.5 C28.5,7 32.5,1.09375 32.5,-4 C32.5,-5.40625 32.2031,-6.79688 31.5,-8.09375"/>
<path class="Note" transform="matrix(2.35276,0,0,2.35276,1086.41,2047.05)" d="M31.5,-8.09375 C29.7031,-11.4063 25.9063,-13.2031 21.2969,-13.2031 C17.9063,-13.2031 14.2031,-12.2031 10.5938,-10.2969 C4,-6.79688 0,-0.90625 0,4.20313 C0,5.59375 0.296875,7 1,8.29688 C2.79688,11.5938 6.59375,13.2969 11.2031,13.2969 C14.5938,13.2969 18.2969,12.4063 21.9063,10.5 C28.5,7 32.5,1.09375 32.5,-4 C32.5,-5.40625 32.2031,-6.79688 31.5,-8.09375"/>
<path class="Note" transform="matrix(2.35276,0,0,2.35276,1338.75,1958.82)" d="M31.5,-8.09375 C29.7031,-11.4063 25.9063,-13.2031 21.2969,-13.2031 C17.9063,-13.2031 14.2031,-12.2031 10.5938,-10.2969 C4,-6.79688 0,-0.90625 0,4.20313 C0,5.59375 0.296875,7 1,8.29688 C2.79688,11.5938 6.59375,13.2969 11.2031,13.2969 C14.5938,13.2969 18.2969,12.4063 21.9063,10.5 C28.5,7 32.5,1.09375 32.5,-4 C32.5,-5.40625 32.2031,-6.79688 31.5,-8.09375"/>
<path class="Note" transform="matrix(2.35276,0,0,2.35276,1469.57,2047.05)" d="M31.5,-8.09375 C29.7031,-11.4063 25.9063,-13.2031 21.2969,-13.2031 C17.9063,-13.2031 14.2031,-12.2031 10.5938,-10.2969 C4,-6.79688 0,-0.90625 0,4.20313 C0,5.59375 0.296875,7 1,8.29688 C2.79688,11.5938 6.59375,13.2969 11.2031,13.2969 C14.5938,13.2969 18.2969,12.4063 21.9063,10.5 C28.5,7 32.5,1.09375 32.5,-4 C32.5,-5.40625 32.2031,-6.79688 31.5,-8.09375"/>
<path class="Note" transform="matrix(2.35276,0,0,2.35276,1600.4,1958.82)" d="M31.5,-8.09375 C29.7031,-11.4063 25.9063,-13.2031 21.2969,-13.2031 C17.9063,-13.2031 14.2031,-12.2031 10.5938,-10.2969 C4,-6.79688 0,-0.90625 0,4.20313 C0,5.59375 0.296875,7 1,8.29688 C2.79688,11.5938 6.59375,13.2969 11.2031,13.2969 C14.5938,13.2969 18.2969,12.4063 21.9063,10.5 C28.5,7 32.5,1.09375 32.5,-4 C32.5,-5.40625 32.2031,-6.79688 31.5,-8.09375"/>
<path class="Note" transform="matrix(2.35276,0,0,2.35276,1731.22,1900)" d="M31.5,-8.09375 C29.7031,-11.4063 25.9063,-13.2031 21.2969,-13.2031 C17.9063,-13.2031 14.2031,-12.2031 10.5938,-10.2969 C4,-6.79688 0,-0.90625 0,4.20313 C0,5.59375 0.296875,7 1,8.29688 C2.79688,11.5938 6.59375,13.2969 11.2031,13.2969 C14.5938,13.2969 18.2969,12.4063 21.9063,10.5 C28.5,7 32.5,1.09375 32.5,-4 C32.5,-5.40625 32.2031,-6.79688 31.5,-8.09375"/>
<path class="Note" transform="matrix(2.35276,0,0,2.35276,1862.04,1841.18)" d="M31.5,-8.09375 C29.7031,-11.4063 25.9063,-13.2031 21.2969,-13.2031 C17.9063,-13.2031 14.2031,-12.2031 10.5938,-10.2969 C4,-6.79688 0,-0.90625 0,4.20313 C0,5.59375 0.296875,7 1,8.29688 C2.79688,11.5938 6.59375,13.2969 11.2031,13.2969 C14.5938,13.2969 18.2969,12.4063 21.9063,10.5 C28.5,7 32.5,1.09375 32.5,-4 C32.5,-5.40625 32.2031,-6.79688 31.5,-8.09375"/>
<path class="Note" transform="matrix(2.35276,0,0,2.35276,2071.36,1841.18)" d="M31.5,-8.09375 C29.7031,-11.4063 25.9063,-13.2031 21.2969,-13.2031 C17.9063,-13.2031 14.2031,-12.2031 10.5938,-10.2969 C4,-6.79688 0,-0.90625 0,4.20313 C0,5.59375 0.296875,7 1,8.29688 C2.79688,11.5938 6.59375,13.2969 11.2031,13.2969 C14.5938,13.2969 18.2969,12.4063 21.9063,10.5 C28.5,7 32.5,1.09375 32.5,-4 C32.5,-5.40625 32.2031,-6.79688 31.5,-8.09375"/>
<path class="Note" transform="matrix(2.35276,0,0,2.35276,2453.91,1958.82)" d="M31.5,-8.09375 C29.7031,-11.4063 25.9063,-13.2031 21.2969,-13.2031 C17.9063,-13.2031 14.2031,-12.2031 10.5938,-10.2969 C4,-6.79688 0,-0.90625 0,4.20313 C0,5.59375 0.296875,7 1,8.29688 C2.79688,11.5938 6.59375,13.2969 11.2031,13.2969 C14.5938,13.2969 18.2969,12.4063 21.9063,10.5 C28.5,7 32.5,1.09375 32.5,-4 C32.5,-5.40625 32.2031,-6.79688 31.5,-8.09375"/>
<path class="Note" transform="matrix(2.35276,0,0,2.35276,2619.2,2047.05)" d="M31.5,-8.09375 C29.7031,-11.4063 25.9063,-13.2031 21.2969,-13.2031 C17.9063,-13.2031 14.2031,-12.2031 10.5938,-10.2969 C4,-6.79688 0,-0.90625 0,4.20313 C0,5.59375 0.296875,7 1,8.29688 C2.79688,11.5938 6.59375,13.2969 11.2031,13.2969 C14.5938,13.2969 18.2969,12.4063 21.9063,10.5 C28.5,7 32.5,1.09375 32.5,-4 C32.5,-5.40625 32.2031,-6.79688 31.5,-8.09375"/>
<path class="Note" transform="matrix(2.35276,0,0,2.35276,2784.49,1958.82)" d="M31.5,-8.09375 C29.7031,-11.4063 25.9063,-13.2031 21.2969,-13.2031 C17.9063,-13.2031 14.2031,-12.2031 10.5938,-10.2969 C4,-6.79688 0,-0.90625 0,4.20313 C0,5.59375 0.296875,7 1,8.29688 C2.79688,11.5938 6.59375,13.2969 11.2031,13.2969 C14.5938,13.2969 18.2969,12.4063 21.9063,10.5 C28.5,7 32.5,1.09375 32.5,-4 C32.5,-5.40625 32.2031,-6.79688 31.5,-8.09375"/>
<path class="Note" transform="matrix(2.35276,0,0,2.35276,2949.77,1900)" d="M31.5,-8.09375 C29.7031,-11.4063 25.9063,-13.2031 21.2969,-13.2031 C17.9063,-13.2031 14.2031,-12.2031 10.5938,-10.2969 C4,-6.79688 0,-0.90625 0,4.20313 C0,5.59375 0.296875,7 1,8.29688 C2.79688,11.5938 6.59375,13.2969 11.2031,13.2969 C14.5938,13.2969 18.2969,12.4063 21.9063,10.5 C28.5,7 32.5,1.09375 32.5,-4 C32.5,-5.40625 32.2031,-6.79688 31.5,-8.09375"/>
<path class="Note" transform="matrix(2.35276,0,0,2.35276,3202.11,1929.41)" d="M31.5,-8.09375 C29.7031,-11.4063 25.9063,-13.2031 21.2969,-13.2031 C17.9063,-13.2031 14.2031,-12.2031 10.5938,-10.2969 C4,-6.79688 0,-0.90625 0,4.20313 C0,5.59375 0.296875,7 1,8.29688 C2.79688,11.5938 6.59375,13.2969 11.2031,13.2969 C14.5938,13.2969 18.2969,12.4063 21.9063,10.5 C28.5,7 32.5,1.09375 32.5,-4 C32.5,-5.40625 32.2031,-6.79688 31.5,-8.09375"/>
<path class="Note" transform="matrix(2.35276,0,0,2.35276,3323.34,1958.82)" d="M31.5,-8.09375 C29.7031,-11.4063 25.9063,-13.2031 21.2969,-13.2031 C17.9063,-13.2031 14.2031,-12.2031 10.5938,-10.2969 C4,-6.79688 0,-0.90625 0,4.20313 C0,5.59375 0.296875,7 1,8.29688 C2.79688,11.5938 6.59375,13.2969 11.2031,13.2969 C14.5938,13.2969 18.2969,12.4063 21.9063,10.5 C28.5,7 32.5,1.09375 32.5,-4 C32.5,-5.40625 32.2031,-6.79688 31.5,-8.09375"/>
<path class="Note" transform="matrix(2.35276,0,0,2.35276,3444.57,1929.41)" d="M31.5,-8.09375 C29.7031,-11.4063 25.9063,-13.2031 21.2969,-13.2031 C17.9063,-13.2031 14.2031,-12.2031 10.5938,-10.2969 C4,-6.79688 0,-0.90625 0,4.20313 C0,5.59375 0.296875,7 1,8.29688 C2.79688,11.5938 6.59375,13.2969 11.2031,13.2969 C14.5938,13.2969 18.2969,12.4063 21.9063,10.5 C28.5,7 32.5,1.09375 32.5,-4 C32.5,-5.40625 32.2031,-6.79688 31.5,-8.09375"/>
<path class="Note" transform="matrix(2.35276,0,0,2.35276,3565.8,1900)" d="M31.5,-8.09375 C29.7031,-11.4063 25.9063,-13.2031 21.2969,-13.2031 C17.9063,-13.2031 14.2031,-12.2031 10.5938,-10.2969 C4,-6.79688 0,-0.90625 0,4.20313 C0,5.59375 0.296875,7 1,8.29688 C2.79688,11.5938 6.59375,13.2969 11.2031,13.2969 C14.5938,13.2969 18.2969,12.4063 21.9063,10.5 C28.5,7 32.5,1.09375 32.5,-4 C32.5,-5.40625 32.2031,-6.79688 31.5,-8.09375"/>
<path class="Note" transform="matrix(2.35276,0,0,2.35276,3687.03,1958.82)" d="M31.5,-8.09375 C29.7031,-11.4063 25.9063,-13.2031 21.2969,-13.2031 C17.9063,-13.2031 14.2031,-12.2031 10.5938,-10.2969 C4,-6.79688 0,-0.90625 0,4.20313 C0,5.59375 0.296875,7 1,8.29688 C2.79688,11.5938 6.59375,13.2969 11.2031,13.2969 C14.5938,13.2969 18.2969,12.4063 21.9063,10.5 C28.5,7 32.5,1.09375 32.5,-4 C32.5,-5.40625 32.2031,-6.79688 31.5,-8.09375"/>
<path class="Clef" transform="matrix(2.35276,0,0,2.35276,117.921,724.236)" d="M63.3594,-5.92188 C62.125,-11.3438 59.4844,-15.1719 58.7031,-16.2031 C55.5156,-20.4844 51.5,-23.3281 46.8125,-24.6875 C43.7031,-25.5625 40.7031,-25.6875 38.2813,-25.5 C37.2344,-31.5156 36.2344,-37.3906 35.3281,-42.8438 C40.7813,-49.0156 44.4063,-54.8125 46.6875,-59.1094 C50.1563,-65.6875 51.2969,-70.2656 51.3594,-70.4688 C53.0781,-75.6875 53.4375,-83.3906 52.3281,-91.5938 C51.3281,-99.1406 49.2344,-105.859 46.875,-109.109 C45.8594,-110.531 44.7969,-111.266 43.7656,-111.266 C42.5469,-111.266 40.0313,-110.031 37.1406,-107.25 C34.8438,-105.063 31.5781,-101.172 29.0156,-95.1563 C26.0156,-88.0938 25.7969,-78.6094 26.1563,-71.8906 C26.5313,-64.6094 27.6406,-58.9219 27.6563,-58.875 C27.6719,-58.7813 27.9375,-57.2813 28.375,-54.7188 C28.1563,-54.4844 27.9063,-54.2656 27.6563,-54.0156 C26.625,-53.0156 25.4375,-51.8906 24.0469,-50.5 C23.1875,-49.6406 22.2344,-48.7344 21.2344,-47.7656 C12.7969,-39.625 0,-27.2969 0,-8.14063 C0,-3.4375 0.90625,0.984375 2.6875,5 C4.26563,8.59375 6.5625,11.875 9.5,14.75 C17.2344,22.3125 27.8281,25.5156 34.875,25.3594 C37.8281,25.2813 40.4688,25.0469 42.8594,24.5938 C44.6875,34.2031 45.8281,41.2344 45.8594,46.5781 C45.9063,53.0938 44.25,57.0781 40.3594,59.8438 C37.9219,61.5781 35.1094,62.5313 32.0156,62.6719 C29.4219,62.7969 27.1563,62.3281 25.7344,61.9219 L25.7188,61.9219 C25.7188,61.9219 25.4375,61.8281 25.4219,61.6406 C25.4063,61.4531 25.7656,61.4063 25.7656,61.4063 L25.7969,61.4063 C27.7188,60.9688 31.2813,59.7344 33.6406,56.4375 C35.4375,53.9063 36.3125,49.2813 34.4688,45.3438 C33.3594,42.9531 30.8594,40 25.2344,39.5469 C22.7344,39.3438 20.4688,39.8594 18.4688,41.0625 C16.6563,42.1406 15.1563,43.7813 14.1094,45.7813 C11.6563,50.4844 12.1094,56.2188 15.2344,60.0625 C18.2031,63.6875 22.8125,66 28.25,66.5781 C29.1094,66.6719 29.9531,66.7031 30.7969,66.7031 C35.2344,66.7031 39.625,65.5 43.2031,63.2969 C46.8594,60.7188 48.9844,56.7344 49.6563,51.1094 C50.2188,46.4688 49.8281,40.5469 48.4375,32.4688 C48.0781,30.375 47.5313,27.3438 46.875,23.5938 C52.625,21.6719 56.7813,18.0938 60.5469,12.2344 C63.8438,6.5 64.7813,0.390625 63.3594,-5.92188 M29.1406,20.2969 C24.5,19.0781 20.0625,16.5781 16.3125,13.0625 C15,11.8438 13.125,9.67188 11.6563,6.28125 C10.2969,3.10938 9.625,-0.328125 9.6875,-3.90625 C9.75,-8.60938 11.0625,-13.4375 13.5625,-18.2188 C16.4844,-23.7969 21.0469,-29.3281 27.1094,-34.6563 C28.5625,-35.9375 29.9375,-37.2188 31.2188,-38.5 C31.9844,-34.2344 32.8125,-29.5469 33.6875,-24.6719 C29.8438,-23.4063 25.0938,-20.25 21.9844,-14.5938 C18.4375,-8.03125 18.5781,-2.5 19.3125,0.984375 C20.25,5.4375 22.7813,9.20313 26.2344,11.2969 C27.1719,11.8594 31.2969,13.9844 33.1406,13.4063 C33.5156,13.2969 33.7813,13.0625 33.9219,12.7344 C34.4375,11.5625 33.4063,10.9219 31.8594,9.96875 C31.25,9.59375 30.5781,9.17188 29.8594,8.64063 C26.5313,6.15625 25.0781,1.70313 26.1563,-2.6875 C26.7344,-5.07813 28.0156,-7.25 29.8594,-8.95313 C31.5156,-10.5 33.5625,-11.5938 35.9375,-12.2344 C37.9844,-0.984375 40.0469,10.1719 41.6875,18.5313 C41.8125,19.2188 41.9531,19.8906 42.0781,20.5625 C37.7031,21.5 33.3594,21.4063 29.1406,20.2969 M40.4688,-12.9063 C50.8125,-13.375 55.0781,-5.9375 55.9688,-1.10938 C56.4375,1.4375 56.4375,5.875 54.8906,10.0938 C53.7188,13.2656 51.2656,17.3438 46.125,19.4063 C46.0625,18.9844 45.9844,18.5469 45.9063,18.125 C44.3594,9.34375 42.4219,-1.65625 40.4688,-12.9063 M33.1406,-83.8594 C34.9219,-89.5938 37.6563,-92.8438 39.6563,-94.5781 C41.4063,-96.0938 43.0469,-96.8125 43.9688,-96.8125 C44.1094,-96.8125 44.2344,-96.7813 44.3281,-96.75 C44.7969,-96.6094 45.3281,-96.0469 45.7969,-95.1719 C48.1094,-90.8906 47.3594,-84.1719 46.0156,-79.7344 C44.3906,-74.3281 41.4688,-68.7188 32.6719,-59.1094 C32.5,-60.2188 32.3438,-61.2656 32.1875,-62.25 C30.9375,-70.5313 31.2656,-77.8125 33.1406,-83.8594"/>
<path class="Clef" transform="matrix(2.35276,0,0,2.35276,117.921,2076.46)" d="M63.3594,-5.92188 C62.125,-11.3438 59.4844,-15.1719 58.7031,-16.2031 C55.5156,-20.4844 51.5,-23.3281 46.8125,-24.6875 C43.7031,-25.5625 40.7031,-25.6875 38.2813,-25.5 C37.2344,-31.5156 36.2344,-37.3906 35.3281,-42.8438 C40.7813,-49.0156 44.4063,-54.8125 46.6875,-59.1094 C50.1563,-65.6875 51.2969,-70.2656 51.3594,-70.4688 C53.0781,-75.6875 53.4375,-83.3906 52.3281,-91.5938 C51.3281,-99.1406 49.2344,-105.859 46.875,-109.109 C45.8594,-110.531 44.7969,-111.266 43.7656,-111.266 C42.5469,-111.266 40.0313,-110.031 37.1406,-107.25 C34.8438,-105.063 31.5781,-101.172 29.0156,-95.1563 C26.0156,-88.0938 25.7969,-78.6094 26.1563,-71.8906 C26.5313,-64.6094 27.6406,-58.9219 27.6563,-58.875 C27.6719,-58.7813 27.9375,-57.2813 28.375,-54.7188 C28.1563,-54.4844 27.9063,-54.2656 27.6563,-54.0156 C26.625,-53.0156 25.4375,-51.8906 24.0469,-50.5 C23.1875,-49.6406 22.2344,-48.7344 21.2344,-47.7656 C12.7969,-39.625 0,-27.2969 0,-8.14063 C0,-3.4375 0.90625,0.984375 2.6875,5 C4.26563,8.59375 6.5625,11.875 9.5,14.75 C17.2344,22.3125 27.8281,25.5156 34.875,25.3594 C37.8281,25.2813 40.4688,25.0469 42.8594,24.5938 C44.6875,34.2031 45.8281,41.2344 45.8594,46.5781 C45.9063,53.0938 44.25,57.0781 40.3594,59.8438 C37.9219,61.5781 35.1094,62.5313 32.0156,62.6719 C29.4219,62.7969 27.1563,62.3281 25.7344,61.9219 L25.7188,61.9219 C25.7188,61.9219 25.4375,61.8281 25.4219,61.6406 C25.4063,61.4531 25.7656,61.4063 25.7656,61.4063 L25.7969,61.4063 C27.7188,60.9688 31.2813,59.7344 33.6406,56.4375 C35.4375,53.9063 36.3125,49.2813 34.4688,45.3438 C33.3594,42.9531 30.8594,40 25.2344,39.5469 C22.7344,39.3438 20.4688,39.8594 18.4688,41.0625 C16.6563,42.1406 15.1563,43.7813 14.1094,45.7813 C11.6563,50.4844 12.1094,56.2188 15.2344,60.0625 C18.2031,63.6875 22.8125,66 28.25,66.5781 C29.1094,66.6719 29.9531,66.7031 30.7969,66.7031 C35.2344,66.7031 39.625,65.5 43.2031,63.2969 C46.8594,60.7188 48.9844,56.7344 49.6563,51.1094 C50.2188,46.4688 49.8281,40.5469 48.4375,32.4688 C48.0781,30.375 47.5313,27.3438 46.875,23.5938 C52.625,21.6719 56.7813,18.0938 60.5469,12.2344 C63.8438,6.5 64.7813,0.390625 63.3594,-5.92188 M29.1406,20.2969 C24.5,19.0781 20.0625,16.5781 16.3125,13.0625 C15,11.8438 13.125,9.67188 11.6563,6.28125 C10.2969,3.10938 9.625,-0.328125 9.6875,-3.90625 C9.75,-8.60938 11.0625,-13.4375 13.5625,-18.2188 C16.4844,-23.7969 21.0469,-29.3281 27.1094,-34.6563 C28.5625,-35.9375 29.9375,-37.2188 31.2188,-38.5 C31.9844,-34.2344 32.8125,-29.5469 33.6875,-24.6719 C29.8438,-23.4063 25.0938,-20.25 21.9844,-14.5938 C18.4375,-8.03125 18.5781,-2.5 19.3125,0.984375 C20.25,5.4375 22.7813,9.20313 26.2344,11.2969 C27.1719,11.8594 31.2969,13.9844 33.1406,13.4063 C33.5156,13.2969 33.7813,13.0625 33.9219,12.7344 C34.4375,11.5625 33.4063,10.9219 31.8594,9.96875 C31.25,9.59375 30.5781,9.17188 29.8594,8.64063 C26.5313,6.15625 25.0781,1.70313 26.1563,-2.6875 C26.7344,-5.07813 28.0156,-7.25 29.8594,-8.95313 C31.5156,-10.5 33.5625,-11.5938 35.9375,-12.2344 C37.9844,-0.984375 40.0469,10.1719 41.6875,18.5313 C41.8125,19.2188 41.9531,19.8906 42.0781,20.5625 C37.7031,21.5 33.3594,21.4063 29.1406,20.2969 M40.4688,-12.9063 C50.8125,-13.375 55.0781,-5.9375 55.9688,-1.10938 C56.4375,1.4375 56.4375,5.875 54.8906,10.0938 C53.7188,13.2656 51.2656,17.3438 46.125,19.4063 C46.0625,18.9844 45.9844,18.5469 45.9063,18.125 C44.3594,9.34375 42.4219,-1.65625 40.4688,-12.9063 M33.1406,-83.8594 C34.9219,-89.5938 37.6563,-92.8438 39.6563,-94.5781 C41.4063,-96.0938 43.0469,-96.8125 43.9688,-96.8125 C44.1094,-96.8125 44.2344,-96.7813 44.3281,-96.75 C44.7969,-96.6094 45.3281,-96.0469 45.7969,-95.1719 C48.1094,-90.8906 47.3594,-84.1719 46.0156,-79.7344 C44.3906,-74.3281 41.4688,-68.7188 32.6719,-59.1094 C32.5,-60.2188 32.3438,-61.2656 32.1875,-62.25 C30.9375,-70.5313 31.2656,-77.8125 33.1406,-83.8594"/>
<path class="KeySig" transform="matrix(2.35276,0,0,2.35276,386.099,636.008)" d="M23.2969,-10.5938 C23.9063,-10.7031 24.4063,-11.4063 24.4063,-12 L24.4063,-17.9063 C24.4063,-18.7031 23.7969,-19.2969 23,-19.2969 L22.7969,-19.2969 L19.5,-18.5938 L19.5,-33.5 L16.7031,-33.5 L16.7031,-18 L7.79688,-16.2031 L7.79688,-30.2969 L5,-30.2969 L5,-15.5938 L1.09375,-14.7969 C0.5,-14.7031 0,-14 0,-13.4063 L0,-13.2031 L0,-7.40625 L0,-7.59375 C0,-6.79688 0.59375,-6.20313 1.40625,-6.20313 L1.70313,-6.20313 L5,-6.90625 L5,9.59375 L1.09375,10.4063 C0.5,10.5 0,11.2031 0,11.7969 L0,17.5938 C0,18.4063 0.59375,19 1.40625,19 L1.70313,19 L5,18.2969 L5,33.2031 L7.79688,33.2031 L7.79688,17.7031 L16.7031,15.9063 L16.7031,30 L19.5,30 L19.5,15.2969 L23.2969,14.5938 C23.9063,14.5 24.4063,13.7969 24.4063,13.2031 L24.4063,7.29688 C24.4063,6.5 23.7969,5.90625 23,5.90625 L22.7969,5.90625 L19.5,6.59375 L19.5,-9.90625 L23.2969,-10.5938 M7.79688,9.09375 L7.79688,-7.5 L16.7031,-9.29688 L16.7031,7.20313 L7.79688,9.09375 "/>
<path class="KeySig" transform="matrix(2.35276,0,0,2.35276,327.28,547.779)" d="M23.2969,-10.5938 C23.9063,-10.7031 24.4063,-11.4063 24.4063,-12 L24.4063,-17.9063 C24.4063,-18.7031 23.7969,-19.2969 23,-19.2969 L22.7969,-19.2969 L19.5,-18.5938 L19.5,-33.5 L16.7031,-33.5 L16.7031,-18 L7.79688,-16.2031 L7.79688,-30.2969 L5,-30.2969 L5,-15.5938 L1.09375,-14.7969 C0.5,-14.7031 0,-14 0,-13.4063 L0,-13.2031 L0,-7.40625 L0,-7.59375 C0,-6.79688 0.59375,-6.20313 1.40625,-6.20313 L1.70313,-6.20313 L5,-6.90625 L5,9.59375 L1.09375,10.4063 C0.5,10.5 0,11.2031 0,11.7969 L0,17.5938 C0,18.4063 0.59375,19 1.40625,19 L1.70313,19 L5,18.2969 L5,33.2031 L7.79688,33.2031 L7.79688,17.7031 L16.7031,15.9063 L16.7031,30 L19.5,30 L19.5,15.2969 L23.2969,14.5938 C23.9063,14.5 24.4063,13.7969 24.4063,13.2031 L24.4063,7.29688 C24.4063,6.5 23.7969,5.90625 23,5.90625 L22.7969,5.90625 L19.5,6.59375 L19.5,-9.90625 L23.2969,-10.5938 M7.79688,9.09375 L7.79688,-7.5 L16.7031,-9.29688 L16.7031,7.20313 L7.79688,9.09375 "/>
<path class="KeySig" transform="matrix(2.35276,0,0,2.35276,386.099,1988.23)" d="M23.2969,-10.5938 C23.9063,-10.7031 24.4063,-11.4063 24.4063,-12 L24.4063,-17.9063 C24.4063,-18.7031 23.7969,-19.2969 23,-19.2969 L22.7969,-19.2969 L19.5,-18.5938 L19.5,-33.5 L16.7031,-33.5 L16.7031,-18 L7.79688,-16.2031 L7.79688,-30.2969 L5,-30.2969 L5,-15.5938 L1.09375,-14.7969 C0.5,-14.7031 0,-14 0,-13.4063 L0,-13.2031 L0,-7.40625 L0,-7.59375 C0,-6.79688 0.59375,-6.20313 1.40625,-6.20313 L1.70313,-6.20313 L5,-6.90625 L5,9.59375 L1.09375,10.4063 C0.5,10.5 0,11.2031 0,11.7969 L0,17.5938 C0,18.4063 0.59375,19 1.40625,19 L1.70313,19 L5,18.2969 L5,33.2031 L7.79688,33.2031 L7.79688,17.7031 L16.7031,15.9063 L16.7031,30 L19.5,30 L19.5,15.2969 L23.2969,14.5938 C23.9063,14.5 24.4063,13.7969 24.4063,13.2031 L24.4063,7.29688 C24.4063,6.5 23.7969,5.90625 23,5.90625 L22.7969,5.90625 L19.5,6.59375 L19.5,-9.90625 L23.2969,-10.5938 M7.79688,9.09375 L7.79688,-7.5 L16.7031,-9.29688 L16.7031,7.20313 L7.79688,9.09375 "/>
<path class="KeySig" transform="matrix(2.35276,0,0,2.35276,327.28,1900)" d="M23.2969,-10.5938 C23.9063,-10.7031 24.4063,-11.4063 24.4063,-12 L24.4063,-17.9063 C24.4063,-18.7031 23.7969,-19.2969 23,-19.2969 L22.7969,-19.2969 L19.5,-18.5938 L19.5,-33.5 L16.7031,-33.5 L16.7031,-18 L7.79688,-16.2031 L7.79688,-30.2969 L5,-30.2969 L5,-15.5938 L1.09375,-14.7969 C0.5,-14.7031 0,-14 0,-13.4063 L0,-13.2031 L0,-7.40625 L0,-7.59375 C0,-6.79688 0.59375,-6.20313 1.40625,-6.20313 L1.70313,-6.20313 L5,-6.90625 L5,9.59375 L1.09375,10.4063 C0.5,10.5 0,11.2031 0,11.7969 L0,17.5938 C0,18.4063 0.59375,19 1.40625,19 L1.70313,19 L5,18.2969 L5,33.2031 L7.79688,33.2031 L7.79688,17.7031 L16.7031,15.9063 L16.7031,30 L19.5,30 L19.5,15.2969 L23.2969,14.5938 C23.9063,14.5 24.4063,13.7969 24.4063,13.2031 L24.4063,7.29688 C24.4063,6.5 23.7969,5.90625 23,5.90625 L22.7969,5.90625 L19.5,6.59375 L19.5,-9.90625 L23.2969,-10.5938 M7.79688,9.09375 L7.79688,-7.5 L16.7031,-9.29688 L16.7031,7.20313 L7.79688,9.09375 "/>
<path class="TimeSig" transform="matrix(2.35276,0,0,2.35276,499.086,606.911)" d="M3.59375,12.625 L20.7656,12.625 L20.7656,20.0781 L12.5469,20.0781 C11.7656,20.0781 11.125,20.7031 11.125,21.4844 L11.125,23.3906 C11.125,24.1719 11.7656,24.7969 12.5469,24.7969 L42.7969,24.7969 C43.5781,24.7969 44.2031,24.1719 44.2031,23.3906 L44.2031,21.4844 C44.2031,20.7031 43.5781,20.0781 42.7969,20.0781 L33.8594,20.0781 L33.8594,12.625 L42.7969,12.625 C43.5781,12.625 44.2031,12 44.2031,11.2188 L44.2031,9.3125 C44.2031,8.53125 43.5781,7.90625 42.7969,7.90625 L33.8594,7.90625 L33.8594,-8.0625 C33.8594,-8.59375 33.5469,-9.07813 33.0781,-9.3125 L31.8594,-9.92188 C31.3281,-10.1719 30.7031,-10.0781 30.2656,-9.6875 L21.2188,-1.375 C20.9375,-1.09375 20.7656,-0.734375 20.7656,-0.328125 L20.7656,7.90625 L9.25,7.90625 C9.25,7.90625 20.375,-4.125 32.2188,-19.8906 C33.0781,-21.0469 32.5781,-22.0938 32.3906,-22.2813 L30.2188,-24.4844 C29.9531,-24.75 29.5938,-24.9063 29.2188,-24.9063 C28.625,-24.9063 15.0625,-24.875 14.3438,-24.9063 C13.625,-24.9219 13.0938,-24.2969 13.0156,-23.6875 C13.0156,-23.6875 12.4844,-16.3281 9.875,-8.1875 C7.28125,-0.078125 4.34375,4.90625 1.6875,8.53125 C1.6875,8.53125 1.14063,9.51563 1.5,10.2656 C1.84375,11.0156 2.48438,12.0938 2.48438,12.0938 C2.48438,12.0938 2.73438,12.625 3.59375,12.625"/>
<path class="TimeSig" transform="matrix(2.35276,0,0,2.35276,499.086,723.924)" d="M3.59375,12.625 L20.7656,12.625 L20.7656,20.0781 L12.5469,20.0781 C11.7656,20.0781 11.125,20.7031 11.125,21.4844 L11.125,23.3906 C11.125,24.1719 11.7656,24.7969 12.5469,24.7969 L42.7969,24.7969 C43.5781,24.7969 44.2031,24.1719 44.2031,23.3906 L44.2031,21.4844 C44.2031,20.7031 43.5781,20.0781 42.7969,20.0781 L33.8594,20.0781 L33.8594,12.625 L42.7969,12.625 C43.5781,12.625 44.2031,12 44.2031,11.2188 L44.2031,9.3125 C44.2031,8.53125 43.5781,7.90625 42.7969,7.90625 L33.8594,7.90625 L33.8594,-8.0625 C33.8594,-8.59375 33.5469,-9.07813 33.0781,-9.3125 L31.8594,-9.92188 C31.3281,-10.1719 30.7031,-10.0781 30.2656,-9.6875 L21.2188,-1.375 C20.9375,-1.09375 20.7656,-0.734375 20.7656,-0.328125 L20.7656,7.90625 L9.25,7.90625 C9.25,7.90625 20.375,-4.125 32.2188,-19.8906 C33.0781,-21.0469 32.5781,-22.0938 32.3906,-22.2813 L30.2188,-24.4844 C29.9531,-24.75 29.5938,-24.9063 29.2188,-24.9063 C28.625,-24.9063 15.0625,-24.875 14.3438,-24.9063 C13.625,-24.9219 13.0938,-24.2969 13.0156,-23.6875 C13.0156,-23.6875 12.4844,-16.3281 9.875,-8.1875 C7.28125,-0.078125 4.34375,4.90625 1.6875,8.53125 C1.6875,8.53125 1.14063,9.51563 1.5,10.2656 C1.84375,11.0156 2.48438,12.0938 2.48438,12.0938 C2.48438,12.0938 2.73438,12.625 3.59375,12.625"/>
<path class="Rest" transform="matrix(2.35276,0,0,2.35276,1197.65,665.417)" d="M23.2031,16.9063 L23,16.5938 C22.9063,16.5 22.7031,16.2969 22.4063,15.9063 L10.9063,1.70313 C10.5938,1.40625 10.7031,0.59375 10.9063,0.203125 L21.0938,-15.2031 C21.2031,-15.4063 21.2969,-15.7031 21.2969,-15.9063 L21.2969,-16.7969 C21.2969,-17.0938 21.2031,-17.4063 21,-17.5938 L4.79688,-39.5 C4.79688,-39.5 4,-40.7031 3,-39.7969 C2,-39 2.79688,-37.7031 2.79688,-37.7031 L10.4063,-27.2969 C10.7969,-26.7031 10.7969,-25.5 10.4063,-24.9063 L0.296875,-9.5 C0.203125,-9.29688 0.09375,-8.90625 0.09375,-8.70313 L0.09375,-7.79688 C0.09375,-7.5 0.203125,-7.20313 0.40625,-7 L11.5938,6.90625 C11.2031,6.79688 10.2969,6.59375 9.09375,6.59375 C7.40625,6.59375 5.20313,7 3.40625,8.59375 C1.20313,10.5938 0,13.4063 0,15.9063 C0,17.2969 0.296875,18.7031 1.09375,19.7969 C3.20313,23 10.7031,32.5 10.7031,32.5 C10.7031,32.5 11.5938,33.6094 12.5,32.9063 C13.4063,32.2031 13.2031,31.2969 12.9063,30.7969 C12.5938,30.2969 9.40625,24.5 9.40625,24.5 C9.40625,24.5 8.70313,23.0938 8.70313,21.2969 C8.70313,20 9.09375,18.4063 10.4063,17.0938 C11.5938,15.9063 13,15.5 14.2969,15.5 C15.5938,15.5 16.7031,15.9063 17.5,16.4063 L21.4063,18.9063 C21.4063,18.9063 22.5938,19.5 23.2031,18.5938 C23.7031,17.7969 23.5,17.4063 23.2031,16.9063"/>
<path class="Rest" transform="matrix(2.35276,0,0,2.35276,2293.29,665.417)" d="M26.7344,-20.2656 C25.9844,-20.5469 25.3125,-20.2031 24.9844,-19.5938 C24.6563,-18.9844 21.4688,-13.0625 17.0469,-9.79688 C15.6563,-8.78125 14.0625,-8.14063 12.5,-7.8125 C13.625,-9.0625 14.2969,-10.7344 14.2969,-12.5469 C14.2969,-16.5 11.0938,-19.7031 7.15625,-19.7031 C3.20313,-19.7031 0,-16.5 0,-12.5469 C0,-9.54688 1.875,-6.95313 4.51563,-5.90625 C6.04688,-5.1875 7.95313,-4.73438 10,-4.73438 C12.8438,-4.73438 15.9531,-5.5625 18.6719,-7.5625 C19.9375,-8.48438 21.125,-9.6875 22.2031,-10.9375 L10.8125,24.6875 L13.4531,25.5469 L27.5313,-18.5469 C27.7656,-19.2813 27.4688,-19.9688 26.7344,-20.2656"/>
<path class="Rest" transform="matrix(2.35276,0,0,2.35276,3021.97,665.417)" d="M23.2031,16.9063 L23,16.5938 C22.9063,16.5 22.7031,16.2969 22.4063,15.9063 L10.9063,1.70313 C10.5938,1.40625 10.7031,0.59375 10.9063,0.203125 L21.0938,-15.2031 C21.2031,-15.4063 21.2969,-15.7031 21.2969,-15.9063 L21.2969,-16.7969 C21.2969,-17.0938 21.2031,-17.4063 21,-17.5938 L4.79688,-39.5 C4.79688,-39.5 4,-40.7031 3,-39.7969 C2,-39 2.79688,-37.7031 2.79688,-37.7031 L10.4063,-27.2969 C10.7969,-26.7031 10.7969,-25.5 10.4063,-24.9063 L0.296875,-9.5 C0.203125,-9.29688 0.09375,-8.90625 0.09375,-8.70313 L0.09375,-7.79688 C0.09375,-7.5 0.203125,-7.20313 0.40625,-7 L11.5938,6.90625 C11.2031,6.79688 10.2969,6.59375 9.09375,6.59375 C7.40625,6.59375 5.20313,7 3.40625,8.59375 C1.20313,10.5938 0,13.4063 0,15.9063 C0,17.2969 0.296875,18.7031 1.09375,19.7969 C3.20313,23 10.7031,32.5 10.7031,32.5 C10.7031,32.5 11.5938,33.6094 12.5,32.9063 C13.4063,32.2031 13.2031,31.2969 12.9063,30.7969 C12.5938,30.2969 9.40625,24.5 9.40625,24.5 C9.40625,24.5 8.70313,23.0938 8.70313,21.2969 C8.70313,20 9.09375,18.4063 10.4063,17.0938 C11.5938,15.9063 13,15.5 14.2969,15.5 C15.5938,15.5 16.7031,15.9063 17.5,16.4063 L21.4063,18.9063 C21.4063,18.9063 22.5938,19.5 23.2031,18.5938 C23.7031,17.7969 23.5,17.4063 23.2031,16.9063"/>
<path class="Rest" transform="matrix(2.35276,0,0,2.35276,3937.39,665.417)" d="M23.2031,16.9063 L23,16.5938 C22.9063,16.5 22.7031,16.2969 22.4063,15.9063 L10.9063,1.70313 C10.5938,1.40625 10.7031,0.59375 10.9063,0.203125 L21.0938,-15.2031 C21.2031,-15.4063 21.2969,-15.7031 21.2969,-15.9063 L21.2969,-16.7969 C21.2969,-17.0938 21.2031,-17.4063 21,-17.5938 L4.79688,-39.5 C4.79688,-39.5 4,-40.7031 3,-39.7969 C2,-39 2.79688,-37.7031 2.79688,-37.7031 L10.4063,-27.2969 C10.7969,-26.7031 10.7969,-25.5 10.4063,-24.9063 L0.296875,-9.5 C0.203125,-9.29688 0.09375,-8.90625 0.09375,-8.70313 L0.09375,-7.79688 C0.09375,-7.5 0.203125,-7.20313 0.40625,-7 L11.5938,6.90625 C11.2031,6.79688 10.2969,6.59375 9.09375,6.59375 C7.40625,6.59375 5.20313,7 3.40625,8.59375 C1.20313,10.5938 0,13.4063 0,15.9063 C0,17.2969 0.296875,18.7031 1.09375,19.7969 C3.20313,23 10.7031,32.5 10.7031,32.5 C10.7031,32.5 11.5938,33.6094 12.5,32.9063 C13.4063,32.2031 13.2031,31.2969 12.9063,30.7969 C12.5938,30.2969 9.40625,24.5 9.40625,24.5 C9.40625,24.5 8.70313,23.0938 8.70313,21.2969 C8.70313,20 9.09375,18.4063 10.4063,17.0938 C11.5938,15.9063 13,15.5 14.2969,15.5 C15.5938,15.5 16.7031,15.9063 17.5,16.4063 L21.4063,18.9063 C21.4063,18.9063 22.5938,19.5 23.2031,18.5938 C23.7031,17.7969 23.5,17.4063 23.2031,16.9063"/>
<path class="Rest" transform="matrix(2.35276,0,0,2.35276,2202.19,2017.64)" d="M26.7344,-20.2656 C25.9844,-20.5469 25.3125,-20.2031 24.9844,-19.5938 C24.6563,-18.9844 21.4688,-13.0625 17.0469,-9.79688 C15.6563,-8.78125 14.0625,-8.14063 12.5,-7.8125 C13.625,-9.0625 14.2969,-10.7344 14.2969,-12.5469 C14.2969,-16.5 11.0938,-19.7031 7.15625,-19.7031 C3.20313,-19.7031 0,-16.5 0,-12.5469 C0,-9.54688 1.875,-6.95313 4.51563,-5.90625 C6.04688,-5.1875 7.95313,-4.73438 10,-4.73438 C12.8438,-4.73438 15.9531,-5.5625 18.6719,-7.5625 C19.9375,-8.48438 21.125,-9.6875 22.2031,-10.9375 L10.8125,24.6875 L13.4531,25.5469 L27.5313,-18.5469 C27.7656,-19.2813 27.4688,-19.9688 26.7344,-20.2656"/>
<path class="Rest" transform="matrix(2.35276,0,0,2.35276,3881,2017.64)" d="M23.2031,16.9063 L23,16.5938 C22.9063,16.5 22.7031,16.2969 22.4063,15.9063 L10.9063,1.70313 C10.5938,1.40625 10.7031,0.59375 10.9063,0.203125 L21.0938,-15.2031 C21.2031,-15.4063 21.2969,-15.7031 21.2969,-15.9063 L21.2969,-16.7969 C21.2969,-17.0938 21.2031,-17.4063 21,-17.5938 L4.79688,-39.5 C4.79688,-39.5 4,-40.7031 3,-39.7969 C2,-39 2.79688,-37.7031 2.79688,-37.7031 L10.4063,-27.2969 C10.7969,-26.7031 10.7969,-25.5 10.4063,-24.9063 L0.296875,-9.5 C0.203125,-9.29688 0.09375,-8.90625 0.09375,-8.70313 L0.09375,-7.79688 C0.09375,-7.5 0.203125,-7.20313 0.40625,-7 L11.5938,6.90625 C11.2031,6.79688 10.2969,6.59375 9.09375,6.59375 C7.40625,6.59375 5.20313,7 3.40625,8.59375 C1.20313,10.5938 0,13.4063 0,15.9063 C0,17.2969 0.296875,18.7031 1.09375,19.7969 C3.20313,23 10.7031,32.5 10.7031,32.5 C10.7031,32.5 11.5938,33.6094 12.5,32.9063 C13.4063,32.2031 13.2031,31.2969 12.9063,30.7969 C12.5938,30.2969 9.40625,24.5 9.40625,24.5 C9.40625,24.5 8.70313,23.0938 8.70313,21.2969 C8.70313,20 9.09375,18.4063 10.4063,17.0938 C11.5938,15.9063 13,15.5 14.2969,15.5 C15.5938,15.5 16.7031,15.9063 17.5,16.4063 L21.4063,18.9063 C21.4063,18.9063 22.5938,19.5 23.2031,18.5938 C23.7031,17.7969 23.5,17.4063 23.2031,16.9063"/>
<path class="Beam" fill-rule="evenodd" d="M1449.38,781.574 L1583.71,843.369 L1583.71,875.741 L1449.38,813.946 L1449.38,781.574 "/>
<path class="Beam" fill-rule="evenodd" d="M1705.11,766.869 L1839.45,705.074 L1839.45,737.446 L1705.11,799.241 L1705.11,766.869 "/>
<path class="Beam" fill-rule="evenodd" d="M3273.69,753.533 L3398.68,769.04 L3398.68,798.675 L3273.69,783.168 L3273.69,753.533 "/>
<path class="Beam" fill-rule="evenodd" d="M3510.73,724.123 L3635.71,708.616 L3635.71,738.251 L3510.73,753.758 L3510.73,724.123 "/>
<path class="Beam" fill-rule="evenodd" d="M1338.75,2133.86 L1476.04,2195.59 L1476.04,2227.83 L1338.75,2166.1 L1338.75,2133.86 "/>
<path class="Beam" fill-rule="evenodd" d="M1600.4,2119.15 L1737.69,2057.43 L1737.69,2089.67 L1600.4,2151.4 L1600.4,2119.15 "/>
<path class="Beam" fill-rule="evenodd" d="M3323.34,2120.46 L3451.04,2104.98 L3451.04,2134.6 L3323.34,2150.09 L3323.34,2120.46 "/>
<path class="Hook" transform="matrix(2.35276,0,0,2.35276,2165.43,694.827)" d="M2.5,0.40625 C2.5,0.203125 3.40625,-3.20313 3.5,-3.5 C3.59375,-3.90625 5.40625,-9.59375 9.09375,-15.2969 C11.7969,-19.5 21.2969,-31.7969 21,-31.7969 C21,-31.7969 28.4063,-41.2969 28.9063,-54.2031 L28.9063,-56.5 C28.9063,-62.6094 28.1094,-71.2031 24.5938,-79.9063 C24.2031,-80.9063 23.7969,-81.9063 22.7031,-81.5 C21.5938,-81.1094 21.9063,-79.9063 22.2031,-78.8125 C24,-71.7969 25,-64.6094 25,-57.4063 C25,-49 22,-44.7969 20.2031,-41.7031 C13.5938,-30.6094 5,-25.2031 0.796875,-23.7969 C0.296875,-23.5938 0,-23.2031 0,-22.7031 L0,-16.5 L0,-0.09375 C0,0.59375 0.59375,1.20313 1.29688,1.20313 C1.79688,1.20313 2.40625,0.796875 2.5,0.40625"/>
<path class="Hook" transform="matrix(2.35276,0,0,2.35276,2071.36,2047.05)" d="M2.5,0.40625 C2.5,0.203125 3.40625,-3.20313 3.5,-3.5 C3.59375,-3.90625 5.40625,-9.59375 9.09375,-15.2969 C11.7969,-19.5 21.2969,-31.7969 21,-31.7969 C21,-31.7969 28.4063,-41.2969 28.9063,-54.2031 L28.9063,-56.5 C28.9063,-62.6094 28.1094,-71.2031 24.5938,-79.9063 C24.2031,-80.9063 23.7969,-81.9063 22.7031,-81.5 C21.5938,-81.1094 21.9063,-79.9063 22.2031,-78.8125 C24,-71.7969 25,-64.6094 25,-57.4063 C25,-49 22,-44.7969 20.2031,-41.7031 C13.5938,-30.6094 5,-25.2031 0.796875,-23.7969 C0.296875,-23.5938 0,-23.2031 0,-22.7031 L0,-16.5 L0,-0.09375 C0,0.59375 0.59375,1.20313 1.29688,1.20313 C1.79688,1.20313 2.40625,0.796875 2.5,0.40625"/>
<path class="Hook" transform="matrix(2.35276,0,0,2.35276,3202.11,2135.28)" d="M2.5,0.40625 C2.5,0.203125 3.40625,-3.20313 3.5,-3.5 C3.59375,-3.90625 5.40625,-9.59375 9.09375,-15.2969 C11.7969,-19.5 21.2969,-31.7969 21,-31.7969 C21,-31.7969 28.4063,-41.2969 28.9063,-54.2031 L28.9063,-56.5 C28.9063,-62.6094 28.1094,-71.2031 24.5938,-79.9063 C24.2031,-80.9063 23.7969,-81.9063 22.7031,-81.5 C21.5938,-81.1094 21.9063,-79.9063 22.2031,-78.8125 C24,-71.7969 25,-64.6094 25,-57.4063 C25,-49 22,-44.7969 20.2031,-41.7031 C13.5938,-30.6094 5,-25.2031 0.796875,-23.7969 C0.296875,-23.5938 0,-23.2031 0,-22.7031 L0,-16.5 L0,-0.09375 C0,0.59375 0.59375,1.20313 1.29688,1.20313 C1.79688,1.20313 2.40625,0.796875 2.5,0.40625"/>
<path class="Hook" transform="matrix(2.35276,0,0,2.35276,3565.8,2105.87)" d="M2.5,0.40625 C2.5,0.203125 3.40625,-3.20313 3.5,-3.5 C3.59375,-3.90625 5.40625,-9.59375 9.09375,-15.2969 C11.7969,-19.5 21.2969,-31.7969 21,-31.7969 C21,-31.7969 28.4063,-41.2969 28.9063,-54.2031 L28.9063,-56.5 C28.9063,-62.6094 28.1094,-71.2031 24.5938,-79.9063 C24.2031,-80.9063 23.7969,-81.9063 22.7031,-81.5 C21.5938,-81.1094 21.9063,-79.9063 22.2031,-78.8125 C24,-71.7969 25,-64.6094 25,-57.4063 C25,-49 22,-44.7969 20.2031,-41.7031 C13.5938,-30.6094 5,-25.2031 0.796875,-23.7969 C0.296875,-23.5938 0,-23.2031 0,-22.7031 L0,-16.5 L0,-0.09375 C0,0.59375 0.59375,1.20313 1.29688,1.20313 C1.79688,1.20313 2.40625,0.796875 2.5,0.40625"/>
<path class="Jump" d="M3930.68,1782.36 L3966.29,1782.36 C3975.73,1782.36 3982.93,1780.88 3988.55,1777.69 C3999.26,1771.66 4005.19,1759.57 4005.19,1743.68 C4005.19,1729.05 3999.9,1717.6 3990.15,1711.24 C3984.32,1707.52 3976.48,1705.83 3964.38,1705.83 L3930.68,1705.83 L3930.68,1710.82 L3932.69,1710.82 C3938.63,1710.91 3940.63,1711.24 3941.49,1712.3 C3942.12,1713.25 3942.12,1713.46 3942.12,1718.86 L3942.12,1769.33 C3942.12,1774.74 3942.12,1774.94 3941.49,1775.9 C3940.63,1776.96 3938.63,1777.27 3932.69,1777.38 L3930.68,1777.38 L3930.68,1782.36 M3960.04,1777.38 C3954.63,1777.38 3953.99,1776.74 3953.99,1771.55 L3953.99,1716.75 C3953.99,1711.55 3954.74,1710.82 3960.04,1710.82 L3965.55,1710.82 C3983.68,1710.82 3991.21,1720.68 3991.21,1744.1 C3991.21,1767.85 3984.41,1777.38 3967.24,1777.38 L3960.04,1777.38 M4024.57,1770.6 C4020.87,1770.6 4017.9,1773.57 4017.9,1777.18 C4017.9,1780.88 4020.87,1783.85 4024.48,1783.85 C4028.18,1783.85 4031.15,1780.88 4031.15,1777.18 C4031.15,1773.57 4028.18,1770.6 4024.57,1770.6 M4107.24,1705.08 L4103.21,1705.08 L4098.98,1711.35 C4091.24,1705.72 4087.32,1704.24 4080.01,1704.24 C4069.93,1704.24 4061.35,1708.47 4054.24,1716.96 C4047.46,1725.02 4044.27,1733.93 4044.27,1744.83 C4044.27,1767.74 4059.23,1783.96 4080.1,1783.96 C4097.07,1783.96 4107.88,1773.99 4110.32,1756.18 L4105.34,1755.33 C4102.48,1771.13 4094.41,1778.97 4081.38,1778.97 C4065.69,1778.97 4058.27,1768.16 4058.27,1745.27 C4058.27,1733.18 4059.87,1725.22 4063.46,1718.86 C4066.76,1712.93 4073.21,1709.22 4080.1,1709.22 C4087.52,1709.22 4094.1,1713.15 4098.13,1719.93 C4100.15,1723.43 4101.63,1727.35 4104.16,1735.72 L4108.84,1735.72 L4107.24,1705.08 M4130.02,1770.6 C4126.32,1770.6 4123.35,1773.57 4123.35,1777.18 C4123.35,1780.88 4126.32,1783.85 4129.93,1783.85 C4133.63,1783.85 4136.6,1780.88 4136.6,1777.18 C4136.6,1773.57 4133.63,1770.6 4130.02,1770.6"/>
<path class="StaffText" d="M760.376,242.515 C754.392,249.734 738.205,255.187 722.001,255.546 L722.001,263.109 L737.501,263.109 C747.705,263.281 748.767,264.343 748.408,274.203 L748.408,344.781 C748.408,353.749 748.408,354.109 747.345,355.687 C745.939,357.453 742.595,358.156 732.751,358.156 L721.298,358.156 L721.298,366.421 L791.001,366.421 L791.001,358.156 L781.314,358.156 C771.47,358.156 768.126,357.453 766.705,355.687 C765.486,354.109 765.486,353.921 765.486,344.781 L765.486,272.093 C765.486,262.234 765.83,253.968 766.705,242.515 L760.376,242.515 "/>
<path class="StaffText" d="M919.359,365.054 C913.375,372.273 897.187,377.726 880.984,378.085 L880.984,385.648 L896.484,385.648 C906.687,385.82 907.75,386.882 907.39,396.742 L907.39,467.32 C907.39,476.289 907.39,476.648 906.328,478.226 C904.922,479.992 901.578,480.695 891.734,480.695 L880.281,480.695 L880.281,488.96 L949.984,488.96 L949.984,480.695 L940.297,480.695 C930.453,480.695 927.109,479.992 925.687,478.226 C924.468,476.648 924.468,476.46 924.468,467.32 L924.468,394.632 C924.468,384.773 924.812,376.507 925.687,365.054 L919.359,365.054 M1049.41,450.945 L1041.67,450.945 L1039.91,459.914 C1037.61,471.367 1036.2,472.414 1025.3,472.414 L985.875,472.414 C998.015,459.742 1002.06,456.054 1013.33,447.257 C1029.34,434.929 1036.2,428.773 1040.25,423.492 C1045.89,415.742 1048.7,408.007 1048.7,399.382 C1048.7,379.32 1032.16,365.054 1009.11,365.054 C986.75,365.054 969.687,379.32 969.687,398.148 C969.687,409.242 975.312,416.804 983.593,416.804 C990.093,416.804 994.5,412.398 994.5,406.07 C994.5,401.664 992.031,397.617 988.343,396.039 C981.828,393.398 981.468,393.039 981.468,390.757 C981.468,388.117 983.234,384.07 985.703,381.07 C990.093,375.617 997.312,372.632 1005.59,372.632 C1020.19,372.632 1028.81,381.601 1028.81,396.382 C1028.81,409.414 1022.66,421.195 1008.05,436.695 C995.031,450.414 986.937,459.039 983.937,462.382 C977.609,469.773 974.437,473.82 966.687,484.039 L966.687,488.96 L1046.06,488.96 L1049.41,450.945 "/>
<path class="StaffText" d="M1137.16,242.515 C1131.18,249.734 1114.99,255.187 1098.79,255.546 L1098.79,263.109 L1114.29,263.109 C1124.49,263.281 1125.55,264.343 1125.19,274.203 L1125.19,344.781 C1125.19,353.749 1125.19,354.109 1124.13,355.687 C1122.72,357.453 1119.38,358.156 1109.54,358.156 L1098.08,358.156 L1098.08,366.421 L1167.79,366.421 L1167.79,358.156 L1158.1,358.156 C1148.25,358.156 1144.91,357.453 1143.49,355.687 C1142.27,354.109 1142.27,353.921 1142.27,344.781 L1142.27,272.093 C1142.27,262.234 1142.61,253.968 1143.49,242.515 L1137.16,242.515 "/>
<path class="StaffText" d="M1430.23,242.515 C1424.25,249.734 1408.06,255.187 1391.86,255.546 L1391.86,263.109 L1407.36,263.109 C1417.56,263.281 1418.62,264.343 1418.26,274.203 L1418.26,344.781 C1418.26,353.749 1418.26,354.109 1417.2,355.687 C1415.79,357.453 1412.45,358.156 1402.61,358.156 L1391.15,358.156 L1391.15,366.421 L1460.86,366.421 L1460.86,358.156 L1451.17,358.156 C1441.33,358.156 1437.98,357.453 1436.56,355.687 C1435.34,354.109 1435.34,353.921 1435.34,344.781 L1435.34,272.093 C1435.34,262.234 1435.69,253.968 1436.56,242.515 L1430.23,242.515 "/>
<path class="StaffText" d="M1534.57,365.054 C1528.59,372.273 1512.4,377.726 1496.19,378.085 L1496.19,385.648 L1511.69,385.648 C1521.9,385.82 1522.96,386.882 1522.6,396.742 L1522.6,467.32 C1522.6,476.289 1522.6,476.648 1521.54,478.226 C1520.13,479.992 1516.79,480.695 1506.94,480.695 L1495.49,480.695 L1495.49,488.96 L1565.19,488.96 L1565.19,480.695 L1555.51,480.695 C1545.66,480.695 1542.32,479.992 1540.9,478.226 C1539.68,476.648 1539.68,476.46 1539.68,467.32 L1539.68,394.632 C1539.68,384.773 1540.02,376.507 1540.9,365.054 L1534.57,365.054 M1664.62,450.945 L1656.88,450.945 L1655.12,459.914 C1652.82,471.367 1651.41,472.414 1640.51,472.414 L1601.09,472.414 C1613.23,459.742 1617.27,456.054 1628.54,447.257 C1644.55,434.929 1651.41,428.773 1655.46,423.492 C1661.1,415.742 1663.91,408.007 1663.91,399.382 C1663.91,379.32 1647.37,365.054 1624.32,365.054 C1601.96,365.054 1584.9,379.32 1584.9,398.148 C1584.9,409.242 1590.52,416.804 1598.8,416.804 C1605.3,416.804 1609.71,412.398 1609.71,406.07 C1609.71,401.664 1607.24,397.617 1603.55,396.039 C1597.04,393.398 1596.68,393.039 1596.68,390.757 C1596.68,388.117 1598.44,384.07 1600.91,381.07 C1605.3,375.617 1612.52,372.632 1620.8,372.632 C1635.4,372.632 1644.02,381.601 1644.02,396.382 C1644.02,409.414 1637.87,421.195 1623.26,436.695 C1610.24,450.414 1602.15,459.039 1599.15,462.382 C1592.82,469.773 1589.65,473.82 1581.9,484.039 L1581.9,488.96 L1661.27,488.96 L1664.62,450.945 "/>
<path class="StaffText" d="M1744.78,242.515 C1738.8,249.734 1722.61,255.187 1706.41,255.546 L1706.41,263.109 L1721.91,263.109 C1732.11,263.281 1733.17,264.343 1732.81,274.203 L1732.81,344.781 C1732.81,353.749 1732.81,354.109 1731.75,355.687 C1730.34,357.453 1727,358.156 1717.16,358.156 L1705.7,358.156 L1705.7,366.421 L1775.41,366.421 L1775.41,358.156 L1765.72,358.156 C1755.88,358.156 1752.53,357.453 1751.11,355.687 C1749.89,354.109 1749.89,353.921 1749.89,344.781 L1749.89,272.093 C1749.89,262.234 1750.23,253.968 1751.11,242.515 L1744.78,242.515 "/>
<path class="StaffText" d="M1915.85,230.374 L1908.12,230.374 L1906.35,239.343 C1904.05,250.796 1902.65,251.843 1891.74,251.843 L1852.32,251.843 C1864.46,239.171 1868.51,235.483 1879.77,226.686 C1895.79,214.358 1902.65,208.202 1906.69,202.921 C1912.33,195.171 1915.15,187.436 1915.15,178.811 C1915.15,158.749 1898.6,144.483 1875.55,144.483 C1853.19,144.483 1836.13,158.749 1836.13,177.577 C1836.13,188.671 1841.76,196.233 1850.04,196.233 C1856.54,196.233 1860.94,191.827 1860.94,185.499 C1860.94,181.093 1858.48,177.046 1854.79,175.468 C1848.27,172.827 1847.91,172.468 1847.91,170.186 C1847.91,167.546 1849.68,163.499 1852.15,160.499 C1856.54,155.046 1863.76,152.061 1872.04,152.061 C1886.63,152.061 1895.26,161.03 1895.26,175.811 C1895.26,188.843 1889.1,200.624 1874.49,216.124 C1861.48,229.843 1853.38,238.468 1850.38,241.811 C1844.05,249.202 1840.88,253.249 1833.13,263.468 L1833.13,268.39 L1912.51,268.39 L1915.85,230.374 "/>
<path class="StaffText" d="M2000.51,70.9598 C1994.53,78.1785 1978.34,83.6316 1962.14,83.991 L1962.14,91.5535 L1977.64,91.5535 C1987.84,91.7254 1988.9,92.7879 1988.54,102.647 L1988.54,173.225 C1988.54,182.194 1988.54,182.554 1987.48,184.132 C1986.08,185.897 1982.73,186.6 1972.89,186.6 L1961.43,186.6 L1961.43,194.866 L2031.14,194.866 L2031.14,186.6 L2021.45,186.6 C2011.61,186.6 2008.26,185.897 2006.84,184.132 C2005.62,182.554 2005.62,182.366 2005.62,173.225 L2005.62,100.538 C2005.62,90.6785 2005.97,82.4129 2006.84,70.9598 L2000.51,70.9598 M2130.56,156.85 L2122.83,156.85 L2121.06,165.819 C2118.76,177.272 2117.36,178.319 2106.45,178.319 L2067.03,178.319 C2079.17,165.647 2083.22,161.96 2094.48,153.163 C2110.5,140.835 2117.36,134.679 2121.4,129.397 C2127.04,121.647 2129.86,113.913 2129.86,105.288 C2129.86,85.2254 2113.31,70.9598 2090.26,70.9598 C2067.9,70.9598 2050.84,85.2254 2050.84,104.054 C2050.84,115.147 2056.47,122.71 2064.75,122.71 C2071.25,122.71 2075.65,118.304 2075.65,111.975 C2075.65,107.569 2073.18,103.522 2069.5,101.944 C2062.98,99.3035 2062.62,98.9441 2062.62,96.6629 C2062.62,94.0223 2064.39,89.9754 2066.86,86.9754 C2071.25,81.5223 2078.47,78.5379 2086.75,78.5379 C2101.34,78.5379 2109.97,87.5066 2109.97,102.288 C2109.97,115.319 2103.81,127.1 2089.2,142.6 C2076.18,156.319 2068.09,164.944 2065.09,168.288 C2058.76,175.679 2055.59,179.725 2047.84,189.944 L2047.84,194.866 L2127.22,194.866 L2130.56,156.85 "/>
<path class="StaffText" d="M2205.1,70.9598 C2199.11,78.1785 2182.93,83.6316 2166.72,83.991 L2166.72,91.5535 L2182.22,91.5535 C2192.43,91.7254 2193.49,92.7879 2193.13,102.647 L2193.13,173.225 C2193.13,182.194 2193.13,182.554 2192.07,184.132 C2190.66,185.897 2187.32,186.6 2177.47,186.6 L2166.02,186.6 L2166.02,194.866 L2235.72,194.866 L2235.72,186.6 L2226.03,186.6 C2216.19,186.6 2212.85,185.897 2211.43,184.132 C2210.21,182.554 2210.21,182.366 2210.21,173.225 L2210.21,100.538 C2210.21,90.6785 2210.55,82.4129 2211.43,70.9598 L2205.1,70.9598 M2335.14,156.85 L2327.41,156.85 L2325.64,165.819 C2323.35,177.272 2321.94,178.319 2311.03,178.319 L2271.61,178.319 C2283.75,165.647 2287.8,161.96 2299.07,153.163 C2315.08,140.835 2321.94,134.679 2325.99,129.397 C2331.63,121.647 2334.44,113.913 2334.44,105.288 C2334.44,85.2254 2317.89,70.9598 2294.85,70.9598 C2272.49,70.9598 2255.43,85.2254 2255.43,104.054 C2255.43,115.147 2261.05,122.71 2269.33,122.71 C2275.83,122.71 2280.24,118.304 2280.24,111.975 C2280.24,107.569 2277.77,103.522 2274.08,101.944 C2267.57,99.3035 2267.21,98.9441 2267.21,96.6629 C2267.21,94.0223 2268.97,89.9754 2271.44,86.9754 C2275.83,81.5223 2283.05,78.5379 2291.33,78.5379 C2305.93,78.5379 2314.55,87.5066 2314.55,102.288 C2314.55,115.319 2308.39,127.1 2293.78,142.6 C2280.77,156.319 2272.68,164.944 2269.68,168.288 C2263.35,175.679 2260.18,179.725 2252.43,189.944 L2252.43,194.866 L2331.8,194.866 L2335.14,156.85 "/>
<path class="StaffText" d="M2584.69,242.515 C2578.7,249.734 2562.52,255.187 2546.31,255.546 L2546.31,263.109 L2561.81,263.109 C2572.02,263.281 2573.08,264.343 2572.72,274.203 L2572.72,344.781 C2572.72,353.749 2572.72,354.109 2571.66,355.687 C2570.25,357.453 2566.91,358.156 2557.06,358.156 L2545.61,358.156 L2545.61,366.421 L2615.31,366.421 L2615.31,358.156 L2605.63,358.156 C2595.78,358.156 2592.44,357.453 2591.02,355.687 C2589.8,354.109 2589.8,353.921 2589.8,344.781 L2589.8,272.093 C2589.8,262.234 2590.14,253.968 2591.02,242.515 L2584.69,242.515 "/>
<path class="StaffText" d="M2743.67,365.054 C2737.69,372.273 2721.5,377.726 2705.3,378.085 L2705.3,385.648 L2720.8,385.648 C2731,385.82 2732.06,386.882 2731.7,396.742 L2731.7,467.32 C2731.7,476.289 2731.7,476.648 2730.64,478.226 C2729.23,479.992 2725.89,480.695 2716.05,480.695 L2704.59,480.695 L2704.59,488.96 L2774.3,488.96 L2774.3,480.695 L2764.61,480.695 C2754.77,480.695 2751.42,479.992 2750,478.226 C2748.78,476.648 2748.78,476.46 2748.78,467.32 L2748.78,394.632 C2748.78,384.773 2749.13,376.507 2750,365.054 L2743.67,365.054 M2873.72,450.945 L2865.98,450.945 L2864.22,459.914 C2861.92,471.367 2860.52,472.414 2849.61,472.414 L2810.19,472.414 C2822.33,459.742 2826.38,456.054 2837.64,447.257 C2853.66,434.929 2860.52,428.773 2864.56,423.492 C2870.2,415.742 2873.02,408.007 2873.02,399.382 C2873.02,379.32 2856.47,365.054 2833.42,365.054 C2811.06,365.054 2794,379.32 2794,398.148 C2794,409.242 2799.63,416.804 2807.91,416.804 C2814.41,416.804 2818.81,412.398 2818.81,406.07 C2818.81,401.664 2816.34,397.617 2812.66,396.039 C2806.14,393.398 2805.78,393.039 2805.78,390.757 C2805.78,388.117 2807.55,384.07 2810.02,381.07 C2814.41,375.617 2821.63,372.632 2829.91,372.632 C2844.5,372.632 2853.13,381.601 2853.13,396.382 C2853.13,409.414 2846.97,421.195 2832.36,436.695 C2819.34,450.414 2811.25,459.039 2808.25,462.382 C2801.92,469.773 2798.75,473.82 2791,484.039 L2791,488.96 L2870.38,488.96 L2873.72,450.945 "/>
<path class="StaffText" d="M2961.47,242.515 C2955.49,249.734 2939.3,255.187 2923.1,255.546 L2923.1,263.109 L2938.6,263.109 C2948.8,263.281 2949.86,264.343 2949.5,274.203 L2949.5,344.781 C2949.5,353.749 2949.5,354.109 2948.44,355.687 C2947.04,357.453 2943.69,358.156 2933.85,358.156 L2922.4,358.156 L2922.4,366.421 L2992.1,366.421 L2992.1,358.156 L2982.41,358.156 C2972.57,358.156 2969.22,357.453 2967.8,355.687 C2966.58,354.109 2966.58,353.921 2966.58,344.781 L2966.58,272.093 C2966.58,262.234 2966.93,253.968 2967.8,242.515 L2961.47,242.515 "/>
<path class="StaffText" d="M3299.03,193.499 C3274.39,193.499 3256.44,220.249 3256.44,257.218 C3256.44,293.468 3273.86,320.046 3297.62,320.046 C3322.27,320.046 3339.52,294.343 3339.52,257.749 C3339.52,239.093 3335.64,223.593 3328.25,211.452 C3321.37,200.374 3310.11,193.499 3299.03,193.499 M3297.8,201.077 C3303.61,201.077 3309.23,204.952 3313.47,211.983 C3318.22,220.249 3319.8,230.28 3319.8,254.405 C3319.8,279.218 3318.56,290.827 3315.05,298.577 C3311,307.202 3304.66,312.483 3297.97,312.483 C3291.98,312.483 3286.53,308.608 3282.31,301.561 C3277.37,293.296 3275.97,282.39 3275.97,253.515 C3275.97,232.921 3277.2,222.718 3280.72,214.983 C3284.78,206.171 3291.11,201.077 3297.8,201.077"/>
<path class="StaffText" d="M3431.88,242.515 C3425.9,249.734 3409.71,255.187 3393.51,255.546 L3393.51,263.109 L3409.01,263.109 C3419.21,263.281 3420.27,264.343 3419.91,274.203 L3419.91,344.781 C3419.91,353.749 3419.91,354.109 3418.85,355.687 C3417.44,357.453 3414.1,358.156 3404.26,358.156 L3392.8,358.156 L3392.8,366.421 L3462.51,366.421 L3462.51,358.156 L3452.82,358.156 C3442.98,358.156 3439.63,357.453 3438.21,355.687 C3436.99,354.109 3436.99,353.921 3436.99,344.781 L3436.99,272.093 C3436.99,262.234 3437.33,253.968 3438.21,242.515 L3431.88,242.515 "/>
<path class="StaffText" d="M3553.71,193.499 C3529.07,193.499 3511.12,220.249 3511.12,257.218 C3511.12,293.468 3528.54,320.046 3552.31,320.046 C3576.95,320.046 3594.2,294.343 3594.2,257.749 C3594.2,239.093 3590.32,223.593 3582.93,211.452 C3576.06,200.374 3564.79,193.499 3553.71,193.499 M3552.48,201.077 C3558.29,201.077 3563.91,204.952 3568.15,211.983 C3572.9,220.249 3574.48,230.28 3574.48,254.405 C3574.48,279.218 3573.24,290.827 3569.73,298.577 C3565.68,307.202 3559.34,312.483 3552.65,312.483 C3546.66,312.483 3541.21,308.608 3536.99,301.561 C3532.06,293.296 3530.65,282.39 3530.65,253.515 C3530.65,232.921 3531.88,222.718 3535.4,214.983 C3539.46,206.171 3545.79,201.077 3552.48,201.077"/>
<path class="StaffText" d="M3729.77,230.374 L3722.03,230.374 L3720.27,239.343 C3717.97,250.796 3716.56,251.843 3705.66,251.843 L3666.23,251.843 C3678.37,239.171 3682.42,235.483 3693.69,226.686 C3709.7,214.358 3716.56,208.202 3720.61,202.921 C3726.25,195.171 3729.06,187.436 3729.06,178.811 C3729.06,158.749 3712.52,144.483 3689.47,144.483 C3667.11,144.483 3650.05,158.749 3650.05,177.577 C3650.05,188.671 3655.67,196.233 3663.95,196.233 C3670.45,196.233 3674.86,191.827 3674.86,185.499 C3674.86,181.093 3672.39,177.046 3668.7,175.468 C3662.19,172.827 3661.83,172.468 3661.83,170.186 C3661.83,167.546 3663.59,163.499 3666.06,160.499 C3670.45,155.046 3677.67,152.061 3685.95,152.061 C3700.55,152.061 3709.17,161.03 3709.17,175.811 C3709.17,188.843 3703.02,200.624 3688.41,216.124 C3675.39,229.843 3667.3,238.468 3664.3,241.811 C3657.97,249.202 3654.8,253.249 3647.05,263.468 L3647.05,268.39 L3726.42,268.39 L3729.77,230.374 "/>
<path class="StaffText" d="M3814.27,193.499 C3789.63,193.499 3771.68,220.249 3771.68,257.218 C3771.68,293.468 3789.1,320.046 3812.87,320.046 C3837.51,320.046 3854.76,294.343 3854.76,257.749 C3854.76,239.093 3850.88,223.593 3843.49,211.452 C3836.62,200.374 3825.35,193.499 3814.27,193.499 M3813.04,201.077 C3818.85,201.077 3824.48,204.952 3828.71,211.983 C3833.46,220.249 3835.04,230.28 3835.04,254.405 C3835.04,279.218 3833.81,290.827 3830.29,298.577 C3826.24,307.202 3819.9,312.483 3813.21,312.483 C3807.23,312.483 3801.77,308.608 3797.56,301.561 C3792.62,293.296 3791.21,282.39 3791.21,253.515 C3791.21,232.921 3792.45,222.718 3795.96,214.983 C3800.02,206.171 3806.35,201.077 3813.04,201.077"/>
<path class="StaffText" d="M630.221,1594.74 C624.237,1601.96 608.049,1607.41 591.846,1607.77 L591.846,1615.33 L607.346,1615.33 C617.549,1615.5 618.612,1616.57 618.252,1626.42 L618.252,1697 C618.252,1705.97 618.252,1706.33 617.19,1707.91 C615.784,1709.67 612.44,1710.38 602.596,1710.38 L591.143,1710.38 L591.143,1718.64 L660.846,1718.64 L660.846,1710.38 L651.159,1710.38 C641.315,1710.38 637.971,1709.67 636.549,1707.91 C635.331,1706.33 635.331,1706.14 635.331,1697 L635.331,1624.32 C635.331,1614.46 635.674,1606.19 636.549,1594.74 L630.221,1594.74 "/>
<path class="StaffText" d="M766.099,1717.28 C760.114,1724.5 743.927,1729.95 727.724,1730.31 L727.724,1737.87 L743.224,1737.87 C753.427,1738.04 754.489,1739.1 754.13,1748.96 L754.13,1819.54 C754.13,1828.51 754.13,1828.87 753.067,1830.45 C751.661,1832.21 748.317,1832.92 738.474,1832.92 L727.021,1832.92 L727.021,1841.18 L796.724,1841.18 L796.724,1832.92 L787.036,1832.92 C777.192,1832.92 773.849,1832.21 772.427,1830.45 C771.208,1828.87 771.208,1828.68 771.208,1819.54 L771.208,1746.85 C771.208,1737 771.552,1728.73 772.427,1717.28 L766.099,1717.28 M896.146,1803.17 L888.411,1803.17 L886.646,1812.14 C884.349,1823.59 882.942,1824.64 872.036,1824.64 L832.614,1824.64 C844.755,1811.96 848.802,1808.28 860.067,1799.48 C876.083,1787.15 882.942,1781 886.989,1775.71 C892.63,1767.96 895.442,1760.23 895.442,1751.6 C895.442,1731.54 878.896,1717.28 855.849,1717.28 C833.489,1717.28 816.427,1731.54 816.427,1750.37 C816.427,1761.46 822.052,1769.03 830.333,1769.03 C836.833,1769.03 841.239,1764.62 841.239,1758.29 C841.239,1753.89 838.771,1749.84 835.083,1748.26 C828.567,1745.62 828.208,1745.26 828.208,1742.98 C828.208,1740.34 829.974,1736.29 832.442,1733.29 C836.833,1727.84 844.052,1724.85 852.333,1724.85 C866.927,1724.85 875.552,1733.82 875.552,1748.6 C875.552,1761.64 869.396,1773.42 854.786,1788.92 C841.771,1802.64 833.677,1811.26 830.677,1814.6 C824.349,1822 821.177,1826.04 813.427,1836.26 L813.427,1841.18 L892.802,1841.18 L896.146,1803.17 "/>
<path class="StaffText" d="M984.323,1594.74 C978.338,1601.96 962.151,1607.41 945.948,1607.77 L945.948,1615.33 L961.448,1615.33 C971.651,1615.5 972.713,1616.57 972.354,1626.42 L972.354,1697 C972.354,1705.97 972.354,1706.33 971.291,1707.91 C969.885,1709.67 966.541,1710.38 956.698,1710.38 L945.245,1710.38 L945.245,1718.64 L1014.95,1718.64 L1014.95,1710.38 L1005.26,1710.38 C995.416,1710.38 992.073,1709.67 990.651,1707.91 C989.432,1706.33 989.432,1706.14 989.432,1697 L989.432,1624.32 C989.432,1614.46 989.776,1606.19 990.651,1594.74 L984.323,1594.74 "/>
<path class="StaffText" d="M1126.08,1717.28 C1120.1,1724.5 1103.91,1729.95 1087.71,1730.31 L1087.71,1737.87 L1103.21,1737.87 C1113.41,1738.04 1114.47,1739.1 1114.11,1748.96 L1114.11,1819.54 C1114.11,1828.51 1114.11,1828.87 1113.05,1830.45 C1111.64,1832.21 1108.3,1832.92 1098.46,1832.92 L1087,1832.92 L1087,1841.18 L1156.71,1841.18 L1156.71,1832.92 L1147.02,1832.92 C1137.18,1832.92 1133.83,1832.21 1132.41,1830.45 C1131.19,1828.87 1131.19,1828.68 1131.19,1819.54 L1131.19,1746.85 C1131.19,1737 1131.54,1728.73 1132.41,1717.28 L1126.08,1717.28 M1256.13,1803.17 L1248.39,1803.17 L1246.63,1812.14 C1244.33,1823.59 1242.93,1824.64 1232.02,1824.64 L1192.6,1824.64 C1204.74,1811.96 1208.79,1808.28 1220.05,1799.48 C1236.07,1787.15 1242.93,1781 1246.97,1775.71 C1252.61,1767.96 1255.43,1760.23 1255.43,1751.6 C1255.43,1731.54 1238.88,1717.28 1215.83,1717.28 C1193.47,1717.28 1176.41,1731.54 1176.41,1750.37 C1176.41,1761.46 1182.04,1769.03 1190.32,1769.03 C1196.82,1769.03 1201.22,1764.62 1201.22,1758.29 C1201.22,1753.89 1198.75,1749.84 1195.07,1748.26 C1188.55,1745.62 1188.19,1745.26 1188.19,1742.98 C1188.19,1740.34 1189.96,1736.29 1192.43,1733.29 C1196.82,1727.84 1204.04,1724.85 1212.32,1724.85 C1226.91,1724.85 1235.54,1733.82 1235.54,1748.6 C1235.54,1761.64 1229.38,1773.42 1214.77,1788.92 C1201.75,1802.64 1193.66,1811.26 1190.66,1814.6 C1184.33,1822 1181.16,1826.04 1173.41,1836.26 L1173.41,1841.18 L1252.79,1841.18 L1256.13,1803.17 "/>
<path class="StaffText" d="M1378.42,1594.74 C1372.44,1601.96 1356.25,1607.41 1340.05,1607.77 L1340.05,1615.33 L1355.55,1615.33 C1365.75,1615.5 1366.81,1616.57 1366.45,1626.42 L1366.45,1697 C1366.45,1705.97 1366.45,1706.33 1365.39,1707.91 C1363.98,1709.67 1360.64,1710.38 1350.8,1710.38 L1339.34,1710.38 L1339.34,1718.64 L1409.05,1718.64 L1409.05,1710.38 L1399.36,1710.38 C1389.51,1710.38 1386.17,1709.67 1384.75,1707.91 C1383.53,1706.33 1383.53,1706.14 1383.53,1697 L1383.53,1624.32 C1383.53,1614.46 1383.87,1606.19 1384.75,1594.74 L1378.42,1594.74 "/>
<path class="StaffText" d="M1468.07,1717.28 C1462.09,1724.5 1445.9,1729.95 1429.7,1730.31 L1429.7,1737.87 L1445.2,1737.87 C1455.4,1738.04 1456.46,1739.1 1456.1,1748.96 L1456.1,1819.54 C1456.1,1828.51 1456.1,1828.87 1455.04,1830.45 C1453.63,1832.21 1450.29,1832.92 1440.45,1832.92 L1428.99,1832.92 L1428.99,1841.18 L1498.7,1841.18 L1498.7,1832.92 L1489.01,1832.92 C1479.17,1832.92 1475.82,1832.21 1474.4,1830.45 C1473.18,1828.87 1473.18,1828.68 1473.18,1819.54 L1473.18,1746.85 C1473.18,1737 1473.52,1728.73 1474.4,1717.28 L1468.07,1717.28 M1598.12,1803.17 L1590.38,1803.17 L1588.62,1812.14 C1586.32,1823.59 1584.92,1824.64 1574.01,1824.64 L1534.59,1824.64 C1546.73,1811.96 1550.77,1808.28 1562.04,1799.48 C1578.06,1787.15 1584.92,1781 1588.96,1775.71 C1594.6,1767.96 1597.42,1760.23 1597.42,1751.6 C1597.42,1731.54 1580.87,1717.28 1557.82,1717.28 C1535.46,1717.28 1518.4,1731.54 1518.4,1750.37 C1518.4,1761.46 1524.02,1769.03 1532.31,1769.03 C1538.81,1769.03 1543.21,1764.62 1543.21,1758.29 C1543.21,1753.89 1540.74,1749.84 1537.06,1748.26 C1530.54,1745.62 1530.18,1745.26 1530.18,1742.98 C1530.18,1740.34 1531.95,1736.29 1534.42,1733.29 C1538.81,1727.84 1546.02,1724.85 1554.31,1724.85 C1568.9,1724.85 1577.52,1733.82 1577.52,1748.6 C1577.52,1761.64 1571.37,1773.42 1556.76,1788.92 C1543.74,1802.64 1535.65,1811.26 1532.65,1814.6 C1526.32,1822 1523.15,1826.04 1515.4,1836.26 L1515.4,1841.18 L1594.77,1841.18 L1598.12,1803.17 "/>
<path class="StaffText" d="M1669.48,1594.74 C1663.49,1601.96 1647.31,1607.41 1631.1,1607.77 L1631.1,1615.33 L1646.6,1615.33 C1656.81,1615.5 1657.87,1616.57 1657.51,1626.42 L1657.51,1697 C1657.51,1705.97 1657.51,1706.33 1656.45,1707.91 C1655.04,1709.67 1651.7,1710.38 1641.85,1710.38 L1630.4,1710.38 L1630.4,1718.64 L1700.1,1718.64 L1700.1,1710.38 L1690.42,1710.38 C1680.57,1710.38 1677.23,1709.67 1675.81,1707.91 C1674.59,1706.33 1674.59,1706.14 1674.59,1697 L1674.59,1624.32 C1674.59,1614.46 1674.93,1606.19 1675.81,1594.74 L1669.48,1594.74 "/>
<path class="StaffText" d="M1814.1,1582.6 L1806.36,1582.6 L1804.6,1591.57 C1802.3,1603.02 1800.89,1604.07 1789.99,1604.07 L1750.56,1604.07 C1762.7,1591.39 1766.75,1587.71 1778.02,1578.91 C1794.03,1566.58 1800.89,1560.42 1804.94,1555.14 C1810.58,1547.39 1813.39,1539.66 1813.39,1531.03 C1813.39,1510.97 1796.85,1496.71 1773.8,1496.71 C1751.44,1496.71 1734.38,1510.97 1734.38,1529.8 C1734.38,1540.89 1740,1548.46 1748.28,1548.46 C1754.78,1548.46 1759.19,1544.05 1759.19,1537.72 C1759.19,1533.32 1756.72,1529.27 1753.03,1527.69 C1746.52,1525.05 1746.16,1524.69 1746.16,1522.41 C1746.16,1519.77 1747.92,1515.72 1750.39,1512.72 C1754.78,1507.27 1762,1504.28 1770.28,1504.28 C1784.88,1504.28 1793.5,1513.25 1793.5,1528.03 C1793.5,1541.07 1787.35,1552.85 1772.74,1568.35 C1759.72,1582.07 1751.63,1590.69 1748.63,1594.03 C1742.3,1601.42 1739.13,1605.47 1731.38,1615.69 L1731.38,1620.61 L1810.75,1620.61 L1814.1,1582.6 "/>
<path class="StaffText" d="M1901.72,1423.18 C1895.73,1430.4 1879.54,1435.85 1863.34,1436.21 L1863.34,1443.78 L1878.84,1443.78 C1889.04,1443.95 1890.11,1445.01 1889.75,1454.87 L1889.75,1525.45 C1889.75,1534.42 1889.75,1534.78 1888.68,1536.35 C1887.28,1538.12 1883.93,1538.82 1874.09,1538.82 L1862.64,1538.82 L1862.64,1547.09 L1932.34,1547.09 L1932.34,1538.82 L1922.65,1538.82 C1912.81,1538.82 1909.47,1538.12 1908.04,1536.35 C1906.83,1534.78 1906.83,1534.59 1906.83,1525.45 L1906.83,1452.76 C1906.83,1442.9 1907.17,1434.64 1908.04,1423.18 L1901.72,1423.18 M2031.76,1509.07 L2024.03,1509.07 L2022.26,1518.04 C2019.97,1529.49 2018.56,1530.54 2007.65,1530.54 L1968.23,1530.54 C1980.37,1517.87 1984.42,1514.18 1995.68,1505.39 C2011.7,1493.06 2018.56,1486.9 2022.61,1481.62 C2028.25,1473.87 2031.06,1466.14 2031.06,1457.51 C2031.06,1437.45 2014.51,1423.18 1991.47,1423.18 C1969.11,1423.18 1952.04,1437.45 1952.04,1456.28 C1952.04,1467.37 1957.67,1474.93 1965.95,1474.93 C1972.45,1474.93 1976.86,1470.53 1976.86,1464.2 C1976.86,1459.79 1974.39,1455.74 1970.7,1454.17 C1964.18,1451.53 1963.83,1451.17 1963.83,1448.89 C1963.83,1446.24 1965.59,1442.2 1968.06,1439.2 C1972.45,1433.74 1979.67,1430.76 1987.95,1430.76 C2002.54,1430.76 2011.17,1439.73 2011.17,1454.51 C2011.17,1467.54 2005.01,1479.32 1990.4,1494.82 C1977.39,1508.54 1969.29,1517.17 1966.29,1520.51 C1959.97,1527.9 1956.79,1531.95 1949.04,1542.17 L1949.04,1547.09 L2028.42,1547.09 L2031.76,1509.07 "/>
<path class="StaffText" d="M2111.03,1423.18 C2105.05,1430.4 2088.86,1435.85 2072.66,1436.21 L2072.66,1443.78 L2088.16,1443.78 C2098.36,1443.95 2099.42,1445.01 2099.07,1454.87 L2099.07,1525.45 C2099.07,1534.42 2099.07,1534.78 2098,1536.35 C2096.6,1538.12 2093.25,1538.82 2083.41,1538.82 L2071.96,1538.82 L2071.96,1547.09 L2141.66,1547.09 L2141.66,1538.82 L2131.97,1538.82 C2122.13,1538.82 2118.78,1538.12 2117.36,1536.35 C2116.14,1534.78 2116.14,1534.59 2116.14,1525.45 L2116.14,1452.76 C2116.14,1442.9 2116.49,1434.64 2117.36,1423.18 L2111.03,1423.18 M2241.08,1509.07 L2233.35,1509.07 L2231.58,1518.04 C2229.28,1529.49 2227.88,1530.54 2216.97,1530.54 L2177.55,1530.54 C2189.69,1517.87 2193.74,1514.18 2205,1505.39 C2221.02,1493.06 2227.88,1486.9 2231.92,1481.62 C2237.57,1473.87 2240.38,1466.14 2240.38,1457.51 C2240.38,1437.45 2223.83,1423.18 2200.78,1423.18 C2178.42,1423.18 2161.36,1437.45 2161.36,1456.28 C2161.36,1467.37 2166.99,1474.93 2175.27,1474.93 C2181.77,1474.93 2186.17,1470.53 2186.17,1464.2 C2186.17,1459.79 2183.71,1455.74 2180.02,1454.17 C2173.5,1451.53 2173.14,1451.17 2173.14,1448.89 C2173.14,1446.24 2174.91,1442.2 2177.38,1439.2 C2181.77,1433.74 2188.99,1430.76 2197.27,1430.76 C2211.86,1430.76 2220.49,1439.73 2220.49,1454.51 C2220.49,1467.54 2214.33,1479.32 2199.72,1494.82 C2186.71,1508.54 2178.61,1517.17 2175.61,1520.51 C2169.28,1527.9 2166.11,1531.95 2158.36,1542.17 L2158.36,1547.09 L2237.74,1547.09 L2241.08,1509.07 "/>
<path class="StaffText" d="M2493.58,1594.74 C2487.6,1601.96 2471.41,1607.41 2455.21,1607.77 L2455.21,1615.33 L2470.71,1615.33 C2480.91,1615.5 2481.98,1616.57 2481.62,1626.42 L2481.62,1697 C2481.62,1705.97 2481.62,1706.33 2480.55,1707.91 C2479.15,1709.67 2475.8,1710.38 2465.96,1710.38 L2454.51,1710.38 L2454.51,1718.64 L2524.21,1718.64 L2524.21,1710.38 L2514.52,1710.38 C2504.68,1710.38 2501.33,1709.67 2499.91,1707.91 C2498.69,1706.33 2498.69,1706.14 2498.69,1697 L2498.69,1624.32 C2498.69,1614.46 2499.04,1606.19 2499.91,1594.74 L2493.58,1594.74 "/>
<path class="StaffText" d="M2594.17,1717.28 C2588.19,1724.5 2572,1729.95 2555.8,1730.31 L2555.8,1737.87 L2571.3,1737.87 C2581.5,1738.04 2582.56,1739.1 2582.2,1748.96 L2582.2,1819.54 C2582.2,1828.51 2582.2,1828.87 2581.14,1830.45 C2579.73,1832.21 2576.39,1832.92 2566.55,1832.92 L2555.09,1832.92 L2555.09,1841.18 L2624.8,1841.18 L2624.8,1832.92 L2615.11,1832.92 C2605.26,1832.92 2601.92,1832.21 2600.5,1830.45 C2599.28,1828.87 2599.28,1828.68 2599.28,1819.54 L2599.28,1746.85 C2599.28,1737 2599.62,1728.73 2600.5,1717.28 L2594.17,1717.28 M2724.22,1803.17 L2716.48,1803.17 L2714.72,1812.14 C2712.42,1823.59 2711.01,1824.64 2700.11,1824.64 L2660.69,1824.64 C2672.83,1811.96 2676.87,1808.28 2688.14,1799.48 C2704.15,1787.15 2711.01,1781 2715.06,1775.71 C2720.7,1767.96 2723.51,1760.23 2723.51,1751.6 C2723.51,1731.54 2706.97,1717.28 2683.92,1717.28 C2661.56,1717.28 2644.5,1731.54 2644.5,1750.37 C2644.5,1761.46 2650.12,1769.03 2658.4,1769.03 C2664.9,1769.03 2669.31,1764.62 2669.31,1758.29 C2669.31,1753.89 2666.84,1749.84 2663.15,1748.26 C2656.64,1745.62 2656.28,1745.26 2656.28,1742.98 C2656.28,1740.34 2658.05,1736.29 2660.51,1733.29 C2664.9,1727.84 2672.12,1724.85 2680.4,1724.85 C2695,1724.85 2703.62,1733.82 2703.62,1748.6 C2703.62,1761.64 2697.47,1773.42 2682.86,1788.92 C2669.84,1802.64 2661.75,1811.26 2658.75,1814.6 C2652.42,1822 2649.25,1826.04 2641.5,1836.26 L2641.5,1841.18 L2720.87,1841.18 L2724.22,1803.17 "/>
<path class="StaffText" d="M2824.16,1594.74 C2818.17,1601.96 2801.99,1607.41 2785.78,1607.77 L2785.78,1615.33 L2801.28,1615.33 C2811.49,1615.5 2812.55,1616.57 2812.19,1626.42 L2812.19,1697 C2812.19,1705.97 2812.19,1706.33 2811.13,1707.91 C2809.72,1709.67 2806.38,1710.38 2796.53,1710.38 L2785.08,1710.38 L2785.08,1718.64 L2854.78,1718.64 L2854.78,1710.38 L2845.1,1710.38 C2835.25,1710.38 2831.91,1709.67 2830.49,1707.91 C2829.27,1706.33 2829.27,1706.14 2829.27,1697 L2829.27,1624.32 C2829.27,1614.46 2829.61,1606.19 2830.49,1594.74 L2824.16,1594.74 "/>
<path class="StaffText" d="M3032.65,1582.6 L3024.91,1582.6 L3023.15,1591.57 C3020.85,1603.02 3019.45,1604.07 3008.54,1604.07 L2969.12,1604.07 C2981.26,1591.39 2985.3,1587.71 2996.57,1578.91 C3012.59,1566.58 3019.45,1560.42 3023.49,1555.14 C3029.13,1547.39 3031.95,1539.66 3031.95,1531.03 C3031.95,1510.97 3015.4,1496.71 2992.35,1496.71 C2969.99,1496.71 2952.93,1510.97 2952.93,1529.8 C2952.93,1540.89 2958.55,1548.46 2966.84,1548.46 C2973.34,1548.46 2977.74,1544.05 2977.74,1537.72 C2977.74,1533.32 2975.27,1529.27 2971.59,1527.69 C2965.07,1525.05 2964.71,1524.69 2964.71,1522.41 C2964.71,1519.77 2966.48,1515.72 2968.95,1512.72 C2973.34,1507.27 2980.55,1504.28 2988.84,1504.28 C3003.43,1504.28 3012.05,1513.25 3012.05,1528.03 C3012.05,1541.07 3005.9,1552.85 2991.29,1568.35 C2978.27,1582.07 2970.18,1590.69 2967.18,1594.03 C2960.85,1601.42 2957.68,1605.47 2949.93,1615.69 L2949.93,1620.61 L3029.3,1620.61 L3032.65,1582.6 "/>
<path class="StaffText" d="M3221.57,1545.72 C3196.93,1545.72 3178.98,1572.47 3178.98,1609.44 C3178.98,1645.69 3196.4,1672.27 3220.16,1672.27 C3244.8,1672.27 3262.05,1646.57 3262.05,1609.97 C3262.05,1591.32 3258.18,1575.82 3250.79,1563.67 C3243.91,1552.6 3232.65,1545.72 3221.57,1545.72 M3220.33,1553.3 C3226.15,1553.3 3231.77,1557.17 3236.01,1564.21 C3240.76,1572.47 3242.33,1582.5 3242.33,1606.63 C3242.33,1631.44 3241.1,1643.05 3237.58,1650.8 C3233.54,1659.42 3227.19,1664.71 3220.51,1664.71 C3214.52,1664.71 3209.07,1660.83 3204.85,1653.78 C3199.91,1645.52 3198.51,1634.61 3198.51,1605.74 C3198.51,1585.14 3199.74,1574.94 3203.26,1567.21 C3207.32,1558.39 3213.65,1553.3 3220.33,1553.3"/>
<path class="StaffText" d="M3363.01,1594.74 C3357.03,1601.96 3340.84,1607.41 3324.64,1607.77 L3324.64,1615.33 L3340.14,1615.33 C3350.34,1615.5 3351.4,1616.57 3351.04,1626.42 L3351.04,1697 C3351.04,1705.97 3351.04,1706.33 3349.98,1707.91 C3348.58,1709.67 3345.23,1710.38 3335.39,1710.38 L3323.94,1710.38 L3323.94,1718.64 L3393.64,1718.64 L3393.64,1710.38 L3383.95,1710.38 C3374.11,1710.38 3370.76,1709.67 3369.34,1707.91 C3368.12,1706.33 3368.12,1706.14 3368.12,1697 L3368.12,1624.32 C3368.12,1614.46 3368.47,1606.19 3369.34,1594.74 L3363.01,1594.74 "/>
<path class="StaffText" d="M3475.79,1545.72 C3451.15,1545.72 3433.2,1572.47 3433.2,1609.44 C3433.2,1645.69 3450.62,1672.27 3474.39,1672.27 C3499.03,1672.27 3516.28,1646.57 3516.28,1609.97 C3516.28,1591.32 3512.4,1575.82 3505.01,1563.67 C3498.14,1552.6 3486.87,1545.72 3475.79,1545.72 M3474.56,1553.3 C3480.37,1553.3 3485.99,1557.17 3490.23,1564.21 C3494.98,1572.47 3496.56,1582.5 3496.56,1606.63 C3496.56,1631.44 3495.32,1643.05 3491.81,1650.8 C3487.76,1659.42 3481.42,1664.71 3474.73,1664.71 C3468.74,1664.71 3463.29,1660.83 3459.07,1653.78 C3454.14,1645.52 3452.73,1634.61 3452.73,1605.74 C3452.73,1585.14 3453.96,1574.94 3457.48,1567.21 C3461.54,1558.39 3467.87,1553.3 3474.56,1553.3"/>
<path class="StaffText" d="M3648.68,1582.6 L3640.94,1582.6 L3639.18,1591.57 C3636.88,1603.02 3635.47,1604.07 3624.57,1604.07 L3585.14,1604.07 C3597.28,1591.39 3601.33,1587.71 3612.6,1578.91 C3628.61,1566.58 3635.47,1560.42 3639.52,1555.14 C3645.16,1547.39 3647.97,1539.66 3647.97,1531.03 C3647.97,1510.97 3631.43,1496.71 3608.38,1496.71 C3586.02,1496.71 3568.96,1510.97 3568.96,1529.8 C3568.96,1540.89 3574.58,1548.46 3582.86,1548.46 C3589.36,1548.46 3593.77,1544.05 3593.77,1537.72 C3593.77,1533.32 3591.3,1529.27 3587.61,1527.69 C3581.1,1525.05 3580.74,1524.69 3580.74,1522.41 C3580.74,1519.77 3582.5,1515.72 3584.97,1512.72 C3589.36,1507.27 3596.58,1504.28 3604.86,1504.28 C3619.46,1504.28 3628.08,1513.25 3628.08,1528.03 C3628.08,1541.07 3621.93,1552.85 3607.32,1568.35 C3594.3,1582.07 3586.21,1590.69 3583.21,1594.03 C3576.88,1601.42 3573.71,1605.47 3565.96,1615.69 L3565.96,1620.61 L3645.33,1620.61 L3648.68,1582.6 "/>
<path class="StaffText" d="M3744.35,1594.74 C3738.36,1601.96 3722.18,1607.41 3705.97,1607.77 L3705.97,1615.33 L3721.47,1615.33 C3731.68,1615.5 3732.74,1616.57 3732.38,1626.42 L3732.38,1697 C3732.38,1705.97 3732.38,1706.33 3731.32,1707.91 C3729.91,1709.67 3726.57,1710.38 3716.72,1710.38 L3705.27,1710.38 L3705.27,1718.64 L3774.97,1718.64 L3774.97,1710.38 L3765.28,1710.38 C3755.44,1710.38 3752.1,1709.67 3750.68,1707.91 C3749.46,1706.33 3749.46,1706.14 3749.46,1697 L3749.46,1624.32 C3749.46,1614.46 3749.8,1606.19 3750.68,1594.74 L3744.35,1594.74 "/>
</svg>
