<?xml version="1.0" encoding="UTF-8" standalone="no"?>
<svg width="4208.47px" height="2409.45px" viewBox="0 0 4208.47 2409.45"
 xmlns="http://www.w3.org/2000/svg" xmlns:xlink="http://www.w3.org/1999/xlink" version="1.2" baseProfile="tiny">
<title>PETE PIRATA (2)</title>
<desc>Generated by MuseScore 3.6.2</desc>
<polyline class="StaffLines" fill="none" stroke="#000000" stroke-width="2.81" stroke-linejoin="bevel" points="70.866,298.947 4137.61,298.947"/>
<polyline class="StaffLines" fill="none" stroke="#000000" stroke-width="2.81" stroke-linejoin="bevel" points="70.866,324.447 4137.61,324.447"/>
<polyline class="StaffLines" fill="none" stroke="#000000" stroke-width="2.81" stroke-linejoin="bevel" points="70.866,349.947 4137.61,349.947"/>
<polyline class="StaffLines" fill="none" stroke="#000000" stroke-width="2.81" stroke-linejoin="bevel" points="70.866,375.447 4137.61,375.447"/>
<polyline class="StaffLines" fill="none" stroke="#000000" stroke-width="2.81" stroke-linejoin="bevel" points="70.866,400.948 4137.61,400.948"/>
<path class="MeasureNumber" d="M75.3504,232.635 C74.1004,233.385 73.741,233.869 73.741,234.666 C73.741,235.432 74.3816,235.994 75.1785,235.994 C76.2254,235.994 76.8191,235.228 76.9441,233.744 C78.1785,232.744 79.5066,232.307 81.1004,232.307 C84.0691,232.307 85.7097,234.15 85.7097,237.463 C85.7097,242.666 82.3504,246.9 78.2254,246.9 C75.866,246.9 73.9441,245.791 73.9441,244.463 C73.9441,244.228 73.991,244.15 74.1785,244.025 C75.2254,243.541 75.2254,243.541 75.5066,243.353 C76.1472,242.869 76.5066,242.15 76.5066,241.307 C76.5066,240.025 75.5066,239.072 74.1004,239.072 C72.3504,239.072 71.0222,240.541 71.0222,242.463 C71.0222,245.994 74.0691,248.541 78.3504,248.541 C84.8191,248.541 90.0691,243.385 90.0691,236.994 C90.0691,232.947 86.991,230.103 82.6316,230.103 C80.8972,230.103 79.5066,230.463 77.5847,231.432 L79.8191,223.869 C81.9441,224.307 83.6316,224.51 85.0691,224.51 C87.7097,224.51 90.0691,223.666 91.3816,222.275 C92.0691,221.478 92.4597,220.791 92.4597,220.275 C92.4597,220.025 92.3347,219.791 92.1785,219.791 C92.0691,219.791 91.9754,219.838 91.741,219.947 C90.4285,220.588 88.741,220.947 87.1785,220.947 C84.7879,220.947 81.9441,220.557 78.991,219.791 L75.3504,232.635 M110.491,239.666 L109.46,241.51 C107.85,244.275 107.538,244.51 105.491,244.541 L96.2254,244.541 C97.1785,243.275 98.9441,241.791 102.132,239.541 C107.413,235.916 107.772,235.666 108.897,234.791 C112.1,232.307 113.413,229.947 113.413,226.791 C113.413,222.588 110.303,219.791 105.694,219.791 C100.585,219.791 96.1472,223.557 96.1472,227.916 C96.1472,230.15 97.3347,231.588 99.2566,231.588 C100.694,231.588 101.819,230.51 101.819,229.025 C101.819,227.994 101.303,227.307 99.9754,226.588 C99.0222,226.103 98.866,225.916 98.866,225.432 C98.866,223.713 101.819,221.791 104.538,221.791 C107.335,221.791 109.225,223.666 109.225,226.478 C109.225,229.463 107.897,231.666 104.303,234.791 C93.6629,244.025 92.0535,245.713 91.6941,247.947 L108.85,247.947 L111.944,240.228 L110.491,239.666 "/>
<polyline class="BarLine" fill="none" stroke="#000000" stroke-width="4.59" stroke-linejoin="bevel" points="842.783,297.545 842.783,402.35"/>
<polyline class="BarLine" fill="none" stroke="#000000" stroke-width="14.03" stroke-linejoin="bevel" points="1069.04,297.545 1069.04,402.35"/>
<polyline class="BarLine" fill="none" stroke="#000000" stroke-width="4.59" stroke-linejoin="bevel" points="1086.89,297.545 1086.89,402.35"/>
<path class="BarLine" transform="matrix(1.02,0,0,1.02,1099.44,337.197)" d="M10.4063,0 C10.4063,-2.90625 8.09375,-5.29688 5.20313,-5.29688 C2.29688,-5.29688 0,-2.90625 0,0 C0,2.90625 2.29688,5.29688 5.20313,5.29688 C8.09375,5.29688 10.4063,2.90625 10.4063,0"/>
<path class="BarLine" transform="matrix(1.02,0,0,1.02,1099.44,362.697)" d="M10.4063,0 C10.4063,-2.90625 8.09375,-5.29688 5.20313,-5.29688 C2.29688,-5.29688 0,-2.90625 0,0 C0,2.90625 2.29688,5.29688 5.20313,5.29688 C8.09375,5.29688 10.4063,2.90625 10.4063,0"/>
<path class="BarLine" transform="matrix(1.02,0,0,1.02,1396.25,337.197)" d="M10.4063,0 C10.4063,-2.90625 8.09375,-5.29688 5.20313,-5.29688 C2.29688,-5.29688 0,-2.90625 0,0 C0,2.90625 2.29688,5.29688 5.20313,5.29688 C8.09375,5.29688 10.4063,2.90625 10.4063,0"/>
<path class="BarLine" transform="matrix(1.02,0,0,1.02,1396.25,362.697)" d="M10.4063,0 C10.4063,-2.90625 8.09375,-5.29688 5.20313,-5.29688 C2.29688,-5.29688 0,-2.90625 0,0 C0,2.90625 2.29688,5.29688 5.20313,5.29688 C8.09375,5.29688 10.4063,2.90625 10.4063,0"/>
<polyline class="BarLine" fill="none" stroke="#000000" stroke-width="4.59" stroke-linejoin="bevel" points="1419.4,297.545 1419.4,402.35"/>
<polyline class="BarLine" fill="none" stroke="#000000" stroke-width="14.03" stroke-linejoin="bevel" points="1437.25,297.545 1437.25,402.35"/>
<polyline class="BarLine" fill="none" stroke="#000000" stroke-width="4.59" stroke-linejoin="bevel" points="1686.34,297.545 1686.34,402.35"/>
<polyline class="BarLine" fill="none" stroke="#000000" stroke-width="4.59" stroke-linejoin="bevel" points="1951.11,297.545 1951.11,402.35"/>
<polyline class="BarLine" fill="none" stroke="#000000" stroke-width="4.59" stroke-linejoin="bevel" points="2239.83,297.545 2239.83,402.35"/>
<polyline class="BarLine" fill="none" stroke="#000000" stroke-width="4.59" stroke-linejoin="bevel" points="2854.5,297.545 2854.5,402.35"/>
<polyline class="BarLine" fill="none" stroke="#000000" stroke-width="4.59" stroke-linejoin="bevel" points="3098.98,297.545 3098.98,402.35"/>
<polyline class="BarLine" fill="none" stroke="#000000" stroke-width="4.59" stroke-linejoin="bevel" points="3407.99,297.545 3407.99,402.35"/>
<polyline class="BarLine" fill="none" stroke="#000000" stroke-width="4.59" stroke-linejoin="bevel" points="3696.72,297.545 3696.72,402.35"/>
<polyline class="BarLine" fill="none" stroke="#000000" stroke-width="4.59" stroke-linejoin="bevel" points="3914.16,297.545 3914.16,402.35"/>
<polyline class="BarLine" fill="none" stroke="#000000" stroke-width="4.59" stroke-linejoin="bevel" points="4112.74,297.545 4112.74,402.35"/>
<polyline class="BarLine" fill="none" stroke="#000000" stroke-width="14.03" stroke-linejoin="bevel" points="4130.59,297.545 4130.59,402.35"/>
<path class="Accidental" transform="matrix(1.02,0,0,1.02,425.956,362.697)" d="M23.2969,-10.5938 C23.9063,-10.7031 24.4063,-11.4063 24.4063,-12 L24.4063,-17.9063 C24.4063,-18.7031 23.7969,-19.2969 23,-19.2969 L22.7969,-19.2969 L19.5,-18.5938 L19.5,-33.5 L16.7031,-33.5 L16.7031,-18 L7.79688,-16.2031 L7.79688,-30.2969 L5,-30.2969 L5,-15.5938 L1.09375,-14.7969 C0.5,-14.7031 0,-14 0,-13.4063 L0,-13.2031 L0,-7.40625 L0,-7.59375 C0,-6.79688 0.59375,-6.20313 1.40625,-6.20313 L1.70313,-6.20313 L5,-6.90625 L5,9.59375 L1.09375,10.4063 C0.5,10.5 0,11.2031 0,11.7969 L0,17.5938 C0,18.4063 0.59375,19 1.40625,19 L1.70313,19 L5,18.2969 L5,33.2031 L7.79688,33.2031 L7.79688,17.7031 L16.7031,15.9063 L16.7031,30 L19.5,30 L19.5,15.2969 L23.2969,14.5938 C23.9063,14.5 24.4063,13.7969 24.4063,13.2031 L24.4063,7.29688 C24.4063,6.5 23.7969,5.90625 23,5.90625 L22.7969,5.90625 L19.5,6.59375 L19.5,-9.90625 L23.2969,-10.5938 M7.79688,9.09375 L7.79688,-7.5 L16.7031,-9.29688 L16.7031,7.20313 L7.79688,9.09375 "/>
<path class="Accidental" transform="matrix(1.02,0,0,1.02,510.061,362.697)" d="M16.5938,-18.2969 C16.4063,-18.5 16.0938,-18.5938 15.7969,-18.5938 C15.7031,-18.5938 15.5,-18.5 15.4063,-18.5 L2.79688,-15 L2.79688,-32.5 L0,-32.5 L0,17 C0,17.7969 0.59375,18.2969 1.40625,18.2969 L1.79688,18.2969 L14.4063,14.7969 L14.4063,32.2969 L17.0938,32.2969 L17.0938,-17.2031 C17.0938,-17.5938 16.9063,-18.0938 16.5938,-18.2969 M14.4063,6.5 L2.79688,9.70313 L2.79688,-6.70313 L14.4063,-10 L14.4063,6.5 "/>
<path class="Accidental" transform="matrix(1.02,0,0,1.02,655.918,400.948)" d="M23.2969,-10.5938 C23.9063,-10.7031 24.4063,-11.4063 24.4063,-12 L24.4063,-17.9063 C24.4063,-18.7031 23.7969,-19.2969 23,-19.2969 L22.7969,-19.2969 L19.5,-18.5938 L19.5,-33.5 L16.7031,-33.5 L16.7031,-18 L7.79688,-16.2031 L7.79688,-30.2969 L5,-30.2969 L5,-15.5938 L1.09375,-14.7969 C0.5,-14.7031 0,-14 0,-13.4063 L0,-13.2031 L0,-7.40625 L0,-7.59375 C0,-6.79688 0.59375,-6.20313 1.40625,-6.20313 L1.70313,-6.20313 L5,-6.90625 L5,9.59375 L1.09375,10.4063 C0.5,10.5 0,11.2031 0,11.7969 L0,17.5938 C0,18.4063 0.59375,19 1.40625,19 L1.70313,19 L5,18.2969 L5,33.2031 L7.79688,33.2031 L7.79688,17.7031 L16.7031,15.9063 L16.7031,30 L19.5,30 L19.5,15.2969 L23.2969,14.5938 C23.9063,14.5 24.4063,13.7969 24.4063,13.2031 L24.4063,7.29688 C24.4063,6.5 23.7969,5.90625 23,5.90625 L22.7969,5.90625 L19.5,6.59375 L19.5,-9.90625 L23.2969,-10.5938 M7.79688,9.09375 L7.79688,-7.5 L16.7031,-9.29688 L16.7031,7.20313 L7.79688,9.09375 "/>
<path class="Accidental" transform="matrix(1.02,0,0,1.02,740.023,400.948)" d="M16.5938,-18.2969 C16.4063,-18.5 16.0938,-18.5938 15.7969,-18.5938 C15.7031,-18.5938 15.5,-18.5 15.4063,-18.5 L2.79688,-15 L2.79688,-32.5 L0,-32.5 L0,17 C0,17.7969 0.59375,18.2969 1.40625,18.2969 L1.79688,18.2969 L14.4063,14.7969 L14.4063,32.2969 L17.0938,32.2969 L17.0938,-17.2031 C17.0938,-17.5938 16.9063,-18.0938 16.5938,-18.2969 M14.4063,6.5 L2.79688,9.70313 L2.79688,-6.70313 L14.4063,-10 L14.4063,6.5 "/>
<path class="Accidental" transform="matrix(1.02,0,0,1.02,1710.82,400.948)" d="M23.2969,-10.5938 C23.9063,-10.7031 24.4063,-11.4063 24.4063,-12 L24.4063,-17.9063 C24.4063,-18.7031 23.7969,-19.2969 23,-19.2969 L22.7969,-19.2969 L19.5,-18.5938 L19.5,-33.5 L16.7031,-33.5 L16.7031,-18 L7.79688,-16.2031 L7.79688,-30.2969 L5,-30.2969 L5,-15.5938 L1.09375,-14.7969 C0.5,-14.7031 0,-14 0,-13.4063 L0,-13.2031 L0,-7.40625 L0,-7.59375 C0,-6.79688 0.59375,-6.20313 1.40625,-6.20313 L1.70313,-6.20313 L5,-6.90625 L5,9.59375 L1.09375,10.4063 C0.5,10.5 0,11.2031 0,11.7969 L0,17.5938 C0,18.4063 0.59375,19 1.40625,19 L1.70313,19 L5,18.2969 L5,33.2031 L7.79688,33.2031 L7.79688,17.7031 L16.7031,15.9063 L16.7031,30 L19.5,30 L19.5,15.2969 L23.2969,14.5938 C23.9063,14.5 24.4063,13.7969 24.4063,13.2031 L24.4063,7.29688 C24.4063,6.5 23.7969,5.90625 23,5.90625 L22.7969,5.90625 L19.5,6.59375 L19.5,-9.90625 L23.2969,-10.5938 M7.79688,9.09375 L7.79688,-7.5 L16.7031,-9.29688 L16.7031,7.20313 L7.79688,9.09375 "/>
<path class="Accidental" transform="matrix(1.02,0,0,1.02,2080.78,362.697)" d="M23.2969,-10.5938 C23.9063,-10.7031 24.4063,-11.4063 24.4063,-12 L24.4063,-17.9063 C24.4063,-18.7031 23.7969,-19.2969 23,-19.2969 L22.7969,-19.2969 L19.5,-18.5938 L19.5,-33.5 L16.7031,-33.5 L16.7031,-18 L7.79688,-16.2031 L7.79688,-30.2969 L5,-30.2969 L5,-15.5938 L1.09375,-14.7969 C0.5,-14.7031 0,-14 0,-13.4063 L0,-13.2031 L0,-7.40625 L0,-7.59375 C0,-6.79688 0.59375,-6.20313 1.40625,-6.20313 L1.70313,-6.20313 L5,-6.90625 L5,9.59375 L1.09375,10.4063 C0.5,10.5 0,11.2031 0,11.7969 L0,17.5938 C0,18.4063 0.59375,19 1.40625,19 L1.70313,19 L5,18.2969 L5,33.2031 L7.79688,33.2031 L7.79688,17.7031 L16.7031,15.9063 L16.7031,30 L19.5,30 L19.5,15.2969 L23.2969,14.5938 C23.9063,14.5 24.4063,13.7969 24.4063,13.2031 L24.4063,7.29688 C24.4063,6.5 23.7969,5.90625 23,5.90625 L22.7969,5.90625 L19.5,6.59375 L19.5,-9.90625 L23.2969,-10.5938 M7.79688,9.09375 L7.79688,-7.5 L16.7031,-9.29688 L16.7031,7.20313 L7.79688,9.09375 "/>
<path class="Accidental" transform="matrix(1.02,0,0,1.02,2405.95,362.697)" d="M23.2969,-10.5938 C23.9063,-10.7031 24.4063,-11.4063 24.4063,-12 L24.4063,-17.9063 C24.4063,-18.7031 23.7969,-19.2969 23,-19.2969 L22.7969,-19.2969 L19.5,-18.5938 L19.5,-33.5 L16.7031,-33.5 L16.7031,-18 L7.79688,-16.2031 L7.79688,-30.2969 L5,-30.2969 L5,-15.5938 L1.09375,-14.7969 C0.5,-14.7031 0,-14 0,-13.4063 L0,-13.2031 L0,-7.40625 L0,-7.59375 C0,-6.79688 0.59375,-6.20313 1.40625,-6.20313 L1.70313,-6.20313 L5,-6.90625 L5,9.59375 L1.09375,10.4063 C0.5,10.5 0,11.2031 0,11.7969 L0,17.5938 C0,18.4063 0.59375,19 1.40625,19 L1.70313,19 L5,18.2969 L5,33.2031 L7.79688,33.2031 L7.79688,17.7031 L16.7031,15.9063 L16.7031,30 L19.5,30 L19.5,15.2969 L23.2969,14.5938 C23.9063,14.5 24.4063,13.7969 24.4063,13.2031 L24.4063,7.29688 C24.4063,6.5 23.7969,5.90625 23,5.90625 L22.7969,5.90625 L19.5,6.59375 L19.5,-9.90625 L23.2969,-10.5938 M7.79688,9.09375 L7.79688,-7.5 L16.7031,-9.29688 L16.7031,7.20313 L7.79688,9.09375 "/>
<path class="Accidental" transform="matrix(1.02,0,0,1.02,2496.4,362.697)" d="M16.5938,-18.2969 C16.4063,-18.5 16.0938,-18.5938 15.7969,-18.5938 C15.7031,-18.5938 15.5,-18.5 15.4063,-18.5 L2.79688,-15 L2.79688,-32.5 L0,-32.5 L0,17 C0,17.7969 0.59375,18.2969 1.40625,18.2969 L1.79688,18.2969 L14.4063,14.7969 L14.4063,32.2969 L17.0938,32.2969 L17.0938,-17.2031 C17.0938,-17.5938 16.9063,-18.0938 16.5938,-18.2969 M14.4063,6.5 L2.79688,9.70313 L2.79688,-6.70313 L14.4063,-10 L14.4063,6.5 "/>
<path class="Accidental" transform="matrix(1.02,0,0,1.02,2654.94,400.948)" d="M23.2969,-10.5938 C23.9063,-10.7031 24.4063,-11.4063 24.4063,-12 L24.4063,-17.9063 C24.4063,-18.7031 23.7969,-19.2969 23,-19.2969 L22.7969,-19.2969 L19.5,-18.5938 L19.5,-33.5 L16.7031,-33.5 L16.7031,-18 L7.79688,-16.2031 L7.79688,-30.2969 L5,-30.2969 L5,-15.5938 L1.09375,-14.7969 C0.5,-14.7031 0,-14 0,-13.4063 L0,-13.2031 L0,-7.40625 L0,-7.59375 C0,-6.79688 0.59375,-6.20313 1.40625,-6.20313 L1.70313,-6.20313 L5,-6.90625 L5,9.59375 L1.09375,10.4063 C0.5,10.5 0,11.2031 0,11.7969 L0,17.5938 C0,18.4063 0.59375,19 1.40625,19 L1.70313,19 L5,18.2969 L5,33.2031 L7.79688,33.2031 L7.79688,17.7031 L16.7031,15.9063 L16.7031,30 L19.5,30 L19.5,15.2969 L23.2969,14.5938 C23.9063,14.5 24.4063,13.7969 24.4063,13.2031 L24.4063,7.29688 C24.4063,6.5 23.7969,5.90625 23,5.90625 L22.7969,5.90625 L19.5,6.59375 L19.5,-9.90625 L23.2969,-10.5938 M7.79688,9.09375 L7.79688,-7.5 L16.7031,-9.29688 L16.7031,7.20313 L7.79688,9.09375 "/>
<path class="Accidental" transform="matrix(1.02,0,0,1.02,2745.39,400.948)" d="M16.5938,-18.2969 C16.4063,-18.5 16.0938,-18.5938 15.7969,-18.5938 C15.7031,-18.5938 15.5,-18.5 15.4063,-18.5 L2.79688,-15 L2.79688,-32.5 L0,-32.5 L0,17 C0,17.7969 0.59375,18.2969 1.40625,18.2969 L1.79688,18.2969 L14.4063,14.7969 L14.4063,32.2969 L17.0938,32.2969 L17.0938,-17.2031 C17.0938,-17.5938 16.9063,-18.0938 16.5938,-18.2969 M14.4063,6.5 L2.79688,9.70313 L2.79688,-6.70313 L14.4063,-10 L14.4063,6.5 "/>
<path class="Accidental" transform="matrix(1.02,0,0,1.02,3123.46,362.697)" d="M23.2969,-10.5938 C23.9063,-10.7031 24.4063,-11.4063 24.4063,-12 L24.4063,-17.9063 C24.4063,-18.7031 23.7969,-19.2969 23,-19.2969 L22.7969,-19.2969 L19.5,-18.5938 L19.5,-33.5 L16.7031,-33.5 L16.7031,-18 L7.79688,-16.2031 L7.79688,-30.2969 L5,-30.2969 L5,-15.5938 L1.09375,-14.7969 C0.5,-14.7031 0,-14 0,-13.4063 L0,-13.2031 L0,-7.40625 L0,-7.59375 C0,-6.79688 0.59375,-6.20313 1.40625,-6.20313 L1.70313,-6.20313 L5,-6.90625 L5,9.59375 L1.09375,10.4063 C0.5,10.5 0,11.2031 0,11.7969 L0,17.5938 C0,18.4063 0.59375,19 1.40625,19 L1.70313,19 L5,18.2969 L5,33.2031 L7.79688,33.2031 L7.79688,17.7031 L16.7031,15.9063 L16.7031,30 L19.5,30 L19.5,15.2969 L23.2969,14.5938 C23.9063,14.5 24.4063,13.7969 24.4063,13.2031 L24.4063,7.29688 C24.4063,6.5 23.7969,5.90625 23,5.90625 L22.7969,5.90625 L19.5,6.59375 L19.5,-9.90625 L23.2969,-10.5938 M7.79688,9.09375 L7.79688,-7.5 L16.7031,-9.29688 L16.7031,7.20313 L7.79688,9.09375 "/>
<path class="Accidental" transform="matrix(1.02,0,0,1.02,3248.95,349.947)" d="M23.2969,-10.5938 C23.9063,-10.7031 24.4063,-11.4063 24.4063,-12 L24.4063,-17.9063 C24.4063,-18.7031 23.7969,-19.2969 23,-19.2969 L22.7969,-19.2969 L19.5,-18.5938 L19.5,-33.5 L16.7031,-33.5 L16.7031,-18 L7.79688,-16.2031 L7.79688,-30.2969 L5,-30.2969 L5,-15.5938 L1.09375,-14.7969 C0.5,-14.7031 0,-14 0,-13.4063 L0,-13.2031 L0,-7.40625 L0,-7.59375 C0,-6.79688 0.59375,-6.20313 1.40625,-6.20313 L1.70313,-6.20313 L5,-6.90625 L5,9.59375 L1.09375,10.4063 C0.5,10.5 0,11.2031 0,11.7969 L0,17.5938 C0,18.4063 0.59375,19 1.40625,19 L1.70313,19 L5,18.2969 L5,33.2031 L7.79688,33.2031 L7.79688,17.7031 L16.7031,15.9063 L16.7031,30 L19.5,30 L19.5,15.2969 L23.2969,14.5938 C23.9063,14.5 24.4063,13.7969 24.4063,13.2031 L24.4063,7.29688 C24.4063,6.5 23.7969,5.90625 23,5.90625 L22.7969,5.90625 L19.5,6.59375 L19.5,-9.90625 L23.2969,-10.5938 M7.79688,9.09375 L7.79688,-7.5 L16.7031,-9.29688 L16.7031,7.20313 L7.79688,9.09375 "/>
<path class="Accidental" transform="matrix(1.02,0,0,1.02,3537.67,311.697)" d="M23.2969,-10.5938 C23.9063,-10.7031 24.4063,-11.4063 24.4063,-12 L24.4063,-17.9063 C24.4063,-18.7031 23.7969,-19.2969 23,-19.2969 L22.7969,-19.2969 L19.5,-18.5938 L19.5,-33.5 L16.7031,-33.5 L16.7031,-18 L7.79688,-16.2031 L7.79688,-30.2969 L5,-30.2969 L5,-15.5938 L1.09375,-14.7969 C0.5,-14.7031 0,-14 0,-13.4063 L0,-13.2031 L0,-7.40625 L0,-7.59375 C0,-6.79688 0.59375,-6.20313 1.40625,-6.20313 L1.70313,-6.20313 L5,-6.90625 L5,9.59375 L1.09375,10.4063 C0.5,10.5 0,11.2031 0,11.7969 L0,17.5938 C0,18.4063 0.59375,19 1.40625,19 L1.70313,19 L5,18.2969 L5,33.2031 L7.79688,33.2031 L7.79688,17.7031 L16.7031,15.9063 L16.7031,30 L19.5,30 L19.5,15.2969 L23.2969,14.5938 C23.9063,14.5 24.4063,13.7969 24.4063,13.2031 L24.4063,7.29688 C24.4063,6.5 23.7969,5.90625 23,5.90625 L22.7969,5.90625 L19.5,6.59375 L19.5,-9.90625 L23.2969,-10.5938 M7.79688,9.09375 L7.79688,-7.5 L16.7031,-9.29688 L16.7031,7.20313 L7.79688,9.09375 "/>
<polyline class="Stem" fill="none" stroke="#000000" stroke-width="2.81" stroke-linejoin="bevel" points="259.319,366.125 259.319,439.198"/>
<polyline class="Stem" fill="none" stroke="#000000" stroke-width="2.81" stroke-linejoin="bevel" points="458.62,366.125 458.62,451.948"/>
<polyline class="Stem" fill="none" stroke="#000000" stroke-width="2.81" stroke-linejoin="bevel" points="535.274,366.125 535.274,451.948"/>
<polyline class="Stem" fill="none" stroke="#000000" stroke-width="2.81" stroke-linejoin="bevel" points="611.928,378.875 611.928,460.448"/>
<polyline class="Stem" fill="none" stroke="#000000" stroke-width="2.81" stroke-linejoin="bevel" points="688.582,404.375 688.582,468.948"/>
<polyline class="Stem" fill="none" stroke="#000000" stroke-width="2.81" stroke-linejoin="bevel" points="765.236,404.375 765.236,477.448"/>
<polyline class="Stem" fill="none" stroke="#000000" stroke-width="2.81" stroke-linejoin="bevel" points="1478.71,417.125 1478.71,477.448"/>
<polyline class="Stem" fill="none" stroke="#000000" stroke-width="2.81" stroke-linejoin="bevel" points="1582.08,404.375 1582.08,467.885"/>
<polyline class="Stem" fill="none" stroke="#000000" stroke-width="2.81" stroke-linejoin="bevel" points="1743.48,404.375 1743.48,467.885"/>
<polyline class="Stem" fill="none" stroke="#000000" stroke-width="2.81" stroke-linejoin="bevel" points="1846.85,378.875 1846.85,448.76"/>
<polyline class="Stem" fill="none" stroke="#000000" stroke-width="2.81" stroke-linejoin="bevel" points="1987.96,366.125 1987.96,439.198"/>
<polyline class="Stem" fill="none" stroke="#000000" stroke-width="2.81" stroke-linejoin="bevel" points="2113.45,366.125 2113.45,439.198"/>
<polyline class="Stem" fill="none" stroke="#000000" stroke-width="2.81" stroke-linejoin="bevel" points="2276.68,366.125 2276.68,439.198"/>
<polyline class="Stem" fill="none" stroke="#000000" stroke-width="2.81" stroke-linejoin="bevel" points="2438.61,366.125 2438.61,451.948"/>
<polyline class="Stem" fill="none" stroke="#000000" stroke-width="2.81" stroke-linejoin="bevel" points="2521.61,366.125 2521.61,451.948"/>
<polyline class="Stem" fill="none" stroke="#000000" stroke-width="2.81" stroke-linejoin="bevel" points="2604.61,378.875 2604.61,460.448"/>
<polyline class="Stem" fill="none" stroke="#000000" stroke-width="2.81" stroke-linejoin="bevel" points="2687.61,404.375 2687.61,468.948"/>
<polyline class="Stem" fill="none" stroke="#000000" stroke-width="2.81" stroke-linejoin="bevel" points="2770.61,404.375 2770.61,477.448"/>
<polyline class="Stem" fill="none" stroke="#000000" stroke-width="2.81" stroke-linejoin="bevel" points="2891.35,378.875 2891.35,448.76"/>
<polyline class="Stem" fill="none" stroke="#000000" stroke-width="2.81" stroke-linejoin="bevel" points="2994.72,366.125 2994.72,439.198"/>
<polyline class="Stem" fill="none" stroke="#000000" stroke-width="2.81" stroke-linejoin="bevel" points="3156.12,366.125 3156.12,439.198"/>
<polyline class="Stem" fill="none" stroke="#000000" stroke-width="2.81" stroke-linejoin="bevel" points="3281.61,353.375 3281.61,429.635"/>
<polyline class="Stem" fill="none" stroke="#000000" stroke-width="2.81" stroke-linejoin="bevel" points="3444.84,327.875 3444.84,410.51"/>
<polyline class="Stem" fill="none" stroke="#000000" stroke-width="2.81" stroke-linejoin="bevel" points="3570.33,315.125 3570.33,400.948"/>
<path class="Note" transform="matrix(1.02,0,0,1.02,257.917,362.697)" d="M31.5,-8.09375 C29.7031,-11.4063 25.9063,-13.2031 21.2969,-13.2031 C17.9063,-13.2031 14.2031,-12.2031 10.5938,-10.2969 C4,-6.79688 0,-0.90625 0,4.20313 C0,5.59375 0.296875,7 1,8.29688 C2.79688,11.5938 6.59375,13.2969 11.2031,13.2969 C14.5938,13.2969 18.2969,12.4063 21.9063,10.5 C28.5,7 32.5,1.09375 32.5,-4 C32.5,-5.40625 32.2031,-6.79688 31.5,-8.09375"/>
<path class="Note" transform="matrix(1.02,0,0,1.02,457.217,362.697)" d="M31.5,-8.09375 C29.7031,-11.4063 25.9063,-13.2031 21.2969,-13.2031 C17.9063,-13.2031 14.2031,-12.2031 10.5938,-10.2969 C4,-6.79688 0,-0.90625 0,4.20313 C0,5.59375 0.296875,7 1,8.29688 C2.79688,11.5938 6.59375,13.2969 11.2031,13.2969 C14.5938,13.2969 18.2969,12.4063 21.9063,10.5 C28.5,7 32.5,1.09375 32.5,-4 C32.5,-5.40625 32.2031,-6.79688 31.5,-8.09375"/>
<path class="Note" transform="matrix(1.02,0,0,1.02,533.872,362.697)" d="M31.5,-8.09375 C29.7031,-11.4063 25.9063,-13.2031 21.2969,-13.2031 C17.9063,-13.2031 14.2031,-12.2031 10.5938,-10.2969 C4,-6.79688 0,-0.90625 0,4.20313 C0,5.59375 0.296875,7 1,8.29688 C2.79688,11.5938 6.59375,13.2969 11.2031,13.2969 C14.5938,13.2969 18.2969,12.4063 21.9063,10.5 C28.5,7 32.5,1.09375 32.5,-4 C32.5,-5.40625 32.2031,-6.79688 31.5,-8.09375"/>
<path class="Note" transform="matrix(1.02,0,0,1.02,610.526,375.447)" d="M31.5,-8.09375 C29.7031,-11.4063 25.9063,-13.2031 21.2969,-13.2031 C17.9063,-13.2031 14.2031,-12.2031 10.5938,-10.2969 C4,-6.79688 0,-0.90625 0,4.20313 C0,5.59375 0.296875,7 1,8.29688 C2.79688,11.5938 6.59375,13.2969 11.2031,13.2969 C14.5938,13.2969 18.2969,12.4063 21.9063,10.5 C28.5,7 32.5,1.09375 32.5,-4 C32.5,-5.40625 32.2031,-6.79688 31.5,-8.09375"/>
<path class="Note" transform="matrix(1.02,0,0,1.02,687.18,400.948)" d="M31.5,-8.09375 C29.7031,-11.4063 25.9063,-13.2031 21.2969,-13.2031 C17.9063,-13.2031 14.2031,-12.2031 10.5938,-10.2969 C4,-6.79688 0,-0.90625 0,4.20313 C0,5.59375 0.296875,7 1,8.29688 C2.79688,11.5938 6.59375,13.2969 11.2031,13.2969 C14.5938,13.2969 18.2969,12.4063 21.9063,10.5 C28.5,7 32.5,1.09375 32.5,-4 C32.5,-5.40625 32.2031,-6.79688 31.5,-8.09375"/>
<path class="Note" transform="matrix(1.02,0,0,1.02,763.834,400.948)" d="M31.5,-8.09375 C29.7031,-11.4063 25.9063,-13.2031 21.2969,-13.2031 C17.9063,-13.2031 14.2031,-12.2031 10.5938,-10.2969 C4,-6.79688 0,-0.90625 0,4.20313 C0,5.59375 0.296875,7 1,8.29688 C2.79688,11.5938 6.59375,13.2969 11.2031,13.2969 C14.5938,13.2969 18.2969,12.4063 21.9063,10.5 C28.5,7 32.5,1.09375 32.5,-4 C32.5,-5.40625 32.2031,-6.79688 31.5,-8.09375"/>
<path class="Note" transform="matrix(1.02,0,0,1.02,1477.31,413.698)" d="M31.5,-8.14063 C29.7031,-11.4375 25.9063,-13.2344 21.2969,-13.2344 C17.9063,-13.2344 14.2031,-12.2344 10.5938,-10.3438 C4,-6.84375 0,-0.9375 0,4.15625 C0,5.5625 0.296875,6.96875 1,8.26563 C2.79688,11.5781 6.59375,13.2813 11.2031,13.2813 C14.5938,13.2813 18.2969,12.375 21.9063,10.4844 C28.5,6.96875 32.5,1.0625 32.5,-4.04688 C32.5,-5.4375 32.2031,-6.84375 31.5,-8.14063 M27.2031,-1.34375 C25.5,0.359375 22.0938,2.45313 18.5,4.46875 C14.9063,6.46875 11.2969,7.96875 8.90625,8.46875 C8.40625,8.57813 7.90625,8.67188 7.40625,8.67188 C5.79688,8.67188 4.59375,8.07813 3.90625,6.76563 C3.59375,6.26563 3.40625,5.67188 3.40625,5.0625 C3.40625,3.96875 4.09375,2.65625 5.20313,1.5625 C6.90625,-0.140625 10.2031,-2.23438 13.7969,-4.23438 C17.4063,-6.23438 21,-7.73438 23.4063,-8.23438 C23.9063,-8.34375 24.4063,-8.4375 24.9063,-8.4375 C26.5,-8.4375 27.7969,-7.84375 28.5,-6.54688 C28.7969,-6.04688 28.9063,-5.4375 28.9063,-4.84375 C28.9063,-3.73438 28.2969,-2.54688 27.2031,-1.34375"/>
<path class="Note" transform="matrix(1.02,0,0,1.02,1580.67,400.948)" d="M31.5,-8.14063 C29.7031,-11.4375 25.9063,-13.2344 21.2969,-13.2344 C17.9063,-13.2344 14.2031,-12.2344 10.5938,-10.3438 C4,-6.84375 0,-0.9375 0,4.15625 C0,5.5625 0.296875,6.96875 1,8.26563 C2.79688,11.5781 6.59375,13.2813 11.2031,13.2813 C14.5938,13.2813 18.2969,12.375 21.9063,10.4844 C28.5,6.96875 32.5,1.0625 32.5,-4.04688 C32.5,-5.4375 32.2031,-6.84375 31.5,-8.14063 M27.2031,-1.34375 C25.5,0.359375 22.0938,2.45313 18.5,4.46875 C14.9063,6.46875 11.2969,7.96875 8.90625,8.46875 C8.40625,8.57813 7.90625,8.67188 7.40625,8.67188 C5.79688,8.67188 4.59375,8.07813 3.90625,6.76563 C3.59375,6.26563 3.40625,5.67188 3.40625,5.0625 C3.40625,3.96875 4.09375,2.65625 5.20313,1.5625 C6.90625,-0.140625 10.2031,-2.23438 13.7969,-4.23438 C17.4063,-6.23438 21,-7.73438 23.4063,-8.23438 C23.9063,-8.34375 24.4063,-8.4375 24.9063,-8.4375 C26.5,-8.4375 27.7969,-7.84375 28.5,-6.54688 C28.7969,-6.04688 28.9063,-5.4375 28.9063,-4.84375 C28.9063,-3.73438 28.2969,-2.54688 27.2031,-1.34375"/>
<path class="Note" transform="matrix(1.02,0,0,1.02,1742.08,400.948)" d="M31.5,-8.14063 C29.7031,-11.4375 25.9063,-13.2344 21.2969,-13.2344 C17.9063,-13.2344 14.2031,-12.2344 10.5938,-10.3438 C4,-6.84375 0,-0.9375 0,4.15625 C0,5.5625 0.296875,6.96875 1,8.26563 C2.79688,11.5781 6.59375,13.2813 11.2031,13.2813 C14.5938,13.2813 18.2969,12.375 21.9063,10.4844 C28.5,6.96875 32.5,1.0625 32.5,-4.04688 C32.5,-5.4375 32.2031,-6.84375 31.5,-8.14063 M27.2031,-1.34375 C25.5,0.359375 22.0938,2.45313 18.5,4.46875 C14.9063,6.46875 11.2969,7.96875 8.90625,8.46875 C8.40625,8.57813 7.90625,8.67188 7.40625,8.67188 C5.79688,8.67188 4.59375,8.07813 3.90625,6.76563 C3.59375,6.26563 3.40625,5.67188 3.40625,5.0625 C3.40625,3.96875 4.09375,2.65625 5.20313,1.5625 C6.90625,-0.140625 10.2031,-2.23438 13.7969,-4.23438 C17.4063,-6.23438 21,-7.73438 23.4063,-8.23438 C23.9063,-8.34375 24.4063,-8.4375 24.9063,-8.4375 C26.5,-8.4375 27.7969,-7.84375 28.5,-6.54688 C28.7969,-6.04688 28.9063,-5.4375 28.9063,-4.84375 C28.9063,-3.73438 28.2969,-2.54688 27.2031,-1.34375"/>
<path class="Note" transform="matrix(1.02,0,0,1.02,1845.45,375.447)" d="M31.5,-8.14063 C29.7031,-11.4375 25.9063,-13.2344 21.2969,-13.2344 C17.9063,-13.2344 14.2031,-12.2344 10.5938,-10.3438 C4,-6.84375 0,-0.9375 0,4.15625 C0,5.5625 0.296875,6.96875 1,8.26563 C2.79688,11.5781 6.59375,13.2813 11.2031,13.2813 C14.5938,13.2813 18.2969,12.375 21.9063,10.4844 C28.5,6.96875 32.5,1.0625 32.5,-4.04688 C32.5,-5.4375 32.2031,-6.84375 31.5,-8.14063 M27.2031,-1.34375 C25.5,0.359375 22.0938,2.45313 18.5,4.46875 C14.9063,6.46875 11.2969,7.96875 8.90625,8.46875 C8.40625,8.57813 7.90625,8.67188 7.40625,8.67188 C5.79688,8.67188 4.59375,8.07813 3.90625,6.76563 C3.59375,6.26563 3.40625,5.67188 3.40625,5.0625 C3.40625,3.96875 4.09375,2.65625 5.20313,1.5625 C6.90625,-0.140625 10.2031,-2.23438 13.7969,-4.23438 C17.4063,-6.23438 21,-7.73438 23.4063,-8.23438 C23.9063,-8.34375 24.4063,-8.4375 24.9063,-8.4375 C26.5,-8.4375 27.7969,-7.84375 28.5,-6.54688 C28.7969,-6.04688 28.9063,-5.4375 28.9063,-4.84375 C28.9063,-3.73438 28.2969,-2.54688 27.2031,-1.34375"/>
<path class="Note" transform="matrix(1.02,0,0,1.02,1986.55,362.697)" d="M31.5,-8.14063 C29.7031,-11.4375 25.9063,-13.2344 21.2969,-13.2344 C17.9063,-13.2344 14.2031,-12.2344 10.5938,-10.3438 C4,-6.84375 0,-0.9375 0,4.15625 C0,5.5625 0.296875,6.96875 1,8.26563 C2.79688,11.5781 6.59375,13.2813 11.2031,13.2813 C14.5938,13.2813 18.2969,12.375 21.9063,10.4844 C28.5,6.96875 32.5,1.0625 32.5,-4.04688 C32.5,-5.4375 32.2031,-6.84375 31.5,-8.14063 M27.2031,-1.34375 C25.5,0.359375 22.0938,2.45313 18.5,4.46875 C14.9063,6.46875 11.2969,7.96875 8.90625,8.46875 C8.40625,8.57813 7.90625,8.67188 7.40625,8.67188 C5.79688,8.67188 4.59375,8.07813 3.90625,6.76563 C3.59375,6.26563 3.40625,5.67188 3.40625,5.0625 C3.40625,3.96875 4.09375,2.65625 5.20313,1.5625 C6.90625,-0.140625 10.2031,-2.23438 13.7969,-4.23438 C17.4063,-6.23438 21,-7.73438 23.4063,-8.23438 C23.9063,-8.34375 24.4063,-8.4375 24.9063,-8.4375 C26.5,-8.4375 27.7969,-7.84375 28.5,-6.54688 C28.7969,-6.04688 28.9063,-5.4375 28.9063,-4.84375 C28.9063,-3.73438 28.2969,-2.54688 27.2031,-1.34375"/>
<path class="Note" transform="matrix(1.02,0,0,1.02,2112.05,362.697)" d="M31.5,-8.14063 C29.7031,-11.4375 25.9063,-13.2344 21.2969,-13.2344 C17.9063,-13.2344 14.2031,-12.2344 10.5938,-10.3438 C4,-6.84375 0,-0.9375 0,4.15625 C0,5.5625 0.296875,6.96875 1,8.26563 C2.79688,11.5781 6.59375,13.2813 11.2031,13.2813 C14.5938,13.2813 18.2969,12.375 21.9063,10.4844 C28.5,6.96875 32.5,1.0625 32.5,-4.04688 C32.5,-5.4375 32.2031,-6.84375 31.5,-8.14063 M27.2031,-1.34375 C25.5,0.359375 22.0938,2.45313 18.5,4.46875 C14.9063,6.46875 11.2969,7.96875 8.90625,8.46875 C8.40625,8.57813 7.90625,8.67188 7.40625,8.67188 C5.79688,8.67188 4.59375,8.07813 3.90625,6.76563 C3.59375,6.26563 3.40625,5.67188 3.40625,5.0625 C3.40625,3.96875 4.09375,2.65625 5.20313,1.5625 C6.90625,-0.140625 10.2031,-2.23438 13.7969,-4.23438 C17.4063,-6.23438 21,-7.73438 23.4063,-8.23438 C23.9063,-8.34375 24.4063,-8.4375 24.9063,-8.4375 C26.5,-8.4375 27.7969,-7.84375 28.5,-6.54688 C28.7969,-6.04688 28.9063,-5.4375 28.9063,-4.84375 C28.9063,-3.73438 28.2969,-2.54688 27.2031,-1.34375"/>
<path class="Note" transform="matrix(1.02,0,0,1.02,2275.28,362.697)" d="M31.5,-8.09375 C29.7031,-11.4063 25.9063,-13.2031 21.2969,-13.2031 C17.9063,-13.2031 14.2031,-12.2031 10.5938,-10.2969 C4,-6.79688 0,-0.90625 0,4.20313 C0,5.59375 0.296875,7 1,8.29688 C2.79688,11.5938 6.59375,13.2969 11.2031,13.2969 C14.5938,13.2969 18.2969,12.4063 21.9063,10.5 C28.5,7 32.5,1.09375 32.5,-4 C32.5,-5.40625 32.2031,-6.79688 31.5,-8.09375"/>
<path class="Note" transform="matrix(1.02,0,0,1.02,2437.21,362.697)" d="M31.5,-8.09375 C29.7031,-11.4063 25.9063,-13.2031 21.2969,-13.2031 C17.9063,-13.2031 14.2031,-12.2031 10.5938,-10.2969 C4,-6.79688 0,-0.90625 0,4.20313 C0,5.59375 0.296875,7 1,8.29688 C2.79688,11.5938 6.59375,13.2969 11.2031,13.2969 C14.5938,13.2969 18.2969,12.4063 21.9063,10.5 C28.5,7 32.5,1.09375 32.5,-4 C32.5,-5.40625 32.2031,-6.79688 31.5,-8.09375"/>
<path class="Note" transform="matrix(1.02,0,0,1.02,2520.21,362.697)" d="M31.5,-8.09375 C29.7031,-11.4063 25.9063,-13.2031 21.2969,-13.2031 C17.9063,-13.2031 14.2031,-12.2031 10.5938,-10.2969 C4,-6.79688 0,-0.90625 0,4.20313 C0,5.59375 0.296875,7 1,8.29688 C2.79688,11.5938 6.59375,13.2969 11.2031,13.2969 C14.5938,13.2969 18.2969,12.4063 21.9063,10.5 C28.5,7 32.5,1.09375 32.5,-4 C32.5,-5.40625 32.2031,-6.79688 31.5,-8.09375"/>
<path class="Note" transform="matrix(1.02,0,0,1.02,2603.21,375.447)" d="M31.5,-8.09375 C29.7031,-11.4063 25.9063,-13.2031 21.2969,-13.2031 C17.9063,-13.2031 14.2031,-12.2031 10.5938,-10.2969 C4,-6.79688 0,-0.90625 0,4.20313 C0,5.59375 0.296875,7 1,8.29688 C2.79688,11.5938 6.59375,13.2969 11.2031,13.2969 C14.5938,13.2969 18.2969,12.4063 21.9063,10.5 C28.5,7 32.5,1.09375 32.5,-4 C32.5,-5.40625 32.2031,-6.79688 31.5,-8.09375"/>
<path class="Note" transform="matrix(1.02,0,0,1.02,2686.21,400.948)" d="M31.5,-8.09375 C29.7031,-11.4063 25.9063,-13.2031 21.2969,-13.2031 C17.9063,-13.2031 14.2031,-12.2031 10.5938,-10.2969 C4,-6.79688 0,-0.90625 0,4.20313 C0,5.59375 0.296875,7 1,8.29688 C2.79688,11.5938 6.59375,13.2969 11.2031,13.2969 C14.5938,13.2969 18.2969,12.4063 21.9063,10.5 C28.5,7 32.5,1.09375 32.5,-4 C32.5,-5.40625 32.2031,-6.79688 31.5,-8.09375"/>
<path class="Note" transform="matrix(1.02,0,0,1.02,2769.21,400.948)" d="M31.5,-8.09375 C29.7031,-11.4063 25.9063,-13.2031 21.2969,-13.2031 C17.9063,-13.2031 14.2031,-12.2031 10.5938,-10.2969 C4,-6.79688 0,-0.90625 0,4.20313 C0,5.59375 0.296875,7 1,8.29688 C2.79688,11.5938 6.59375,13.2969 11.2031,13.2969 C14.5938,13.2969 18.2969,12.4063 21.9063,10.5 C28.5,7 32.5,1.09375 32.5,-4 C32.5,-5.40625 32.2031,-6.79688 31.5,-8.09375"/>
<path class="Note" transform="matrix(1.02,0,0,1.02,2889.95,375.447)" d="M31.5,-8.14063 C29.7031,-11.4375 25.9063,-13.2344 21.2969,-13.2344 C17.9063,-13.2344 14.2031,-12.2344 10.5938,-10.3438 C4,-6.84375 0,-0.9375 0,4.15625 C0,5.5625 0.296875,6.96875 1,8.26563 C2.79688,11.5781 6.59375,13.2813 11.2031,13.2813 C14.5938,13.2813 18.2969,12.375 21.9063,10.4844 C28.5,6.96875 32.5,1.0625 32.5,-4.04688 C32.5,-5.4375 32.2031,-6.84375 31.5,-8.14063 M27.2031,-1.34375 C25.5,0.359375 22.0938,2.45313 18.5,4.46875 C14.9063,6.46875 11.2969,7.96875 8.90625,8.46875 C8.40625,8.57813 7.90625,8.67188 7.40625,8.67188 C5.79688,8.67188 4.59375,8.07813 3.90625,6.76563 C3.59375,6.26563 3.40625,5.67188 3.40625,5.0625 C3.40625,3.96875 4.09375,2.65625 5.20313,1.5625 C6.90625,-0.140625 10.2031,-2.23438 13.7969,-4.23438 C17.4063,-6.23438 21,-7.73438 23.4063,-8.23438 C23.9063,-8.34375 24.4063,-8.4375 24.9063,-8.4375 C26.5,-8.4375 27.7969,-7.84375 28.5,-6.54688 C28.7969,-6.04688 28.9063,-5.4375 28.9063,-4.84375 C28.9063,-3.73438 28.2969,-2.54688 27.2031,-1.34375"/>
<path class="Note" transform="matrix(1.02,0,0,1.02,2993.31,362.697)" d="M31.5,-8.14063 C29.7031,-11.4375 25.9063,-13.2344 21.2969,-13.2344 C17.9063,-13.2344 14.2031,-12.2344 10.5938,-10.3438 C4,-6.84375 0,-0.9375 0,4.15625 C0,5.5625 0.296875,6.96875 1,8.26563 C2.79688,11.5781 6.59375,13.2813 11.2031,13.2813 C14.5938,13.2813 18.2969,12.375 21.9063,10.4844 C28.5,6.96875 32.5,1.0625 32.5,-4.04688 C32.5,-5.4375 32.2031,-6.84375 31.5,-8.14063 M27.2031,-1.34375 C25.5,0.359375 22.0938,2.45313 18.5,4.46875 C14.9063,6.46875 11.2969,7.96875 8.90625,8.46875 C8.40625,8.57813 7.90625,8.67188 7.40625,8.67188 C5.79688,8.67188 4.59375,8.07813 3.90625,6.76563 C3.59375,6.26563 3.40625,5.67188 3.40625,5.0625 C3.40625,3.96875 4.09375,2.65625 5.20313,1.5625 C6.90625,-0.140625 10.2031,-2.23438 13.7969,-4.23438 C17.4063,-6.23438 21,-7.73438 23.4063,-8.23438 C23.9063,-8.34375 24.4063,-8.4375 24.9063,-8.4375 C26.5,-8.4375 27.7969,-7.84375 28.5,-6.54688 C28.7969,-6.04688 28.9063,-5.4375 28.9063,-4.84375 C28.9063,-3.73438 28.2969,-2.54688 27.2031,-1.34375"/>
<path class="Note" transform="matrix(1.02,0,0,1.02,3154.72,362.697)" d="M31.5,-8.14063 C29.7031,-11.4375 25.9063,-13.2344 21.2969,-13.2344 C17.9063,-13.2344 14.2031,-12.2344 10.5938,-10.3438 C4,-6.84375 0,-0.9375 0,4.15625 C0,5.5625 0.296875,6.96875 1,8.26563 C2.79688,11.5781 6.59375,13.2813 11.2031,13.2813 C14.5938,13.2813 18.2969,12.375 21.9063,10.4844 C28.5,6.96875 32.5,1.0625 32.5,-4.04688 C32.5,-5.4375 32.2031,-6.84375 31.5,-8.14063 M27.2031,-1.34375 C25.5,0.359375 22.0938,2.45313 18.5,4.46875 C14.9063,6.46875 11.2969,7.96875 8.90625,8.46875 C8.40625,8.57813 7.90625,8.67188 7.40625,8.67188 C5.79688,8.67188 4.59375,8.07813 3.90625,6.76563 C3.59375,6.26563 3.40625,5.67188 3.40625,5.0625 C3.40625,3.96875 4.09375,2.65625 5.20313,1.5625 C6.90625,-0.140625 10.2031,-2.23438 13.7969,-4.23438 C17.4063,-6.23438 21,-7.73438 23.4063,-8.23438 C23.9063,-8.34375 24.4063,-8.4375 24.9063,-8.4375 C26.5,-8.4375 27.7969,-7.84375 28.5,-6.54688 C28.7969,-6.04688 28.9063,-5.4375 28.9063,-4.84375 C28.9063,-3.73438 28.2969,-2.54688 27.2031,-1.34375"/>
<path class="Note" transform="matrix(1.02,0,0,1.02,3280.21,349.947)" d="M31.5,-8.14063 C29.7031,-11.4375 25.9063,-13.2344 21.2969,-13.2344 C17.9063,-13.2344 14.2031,-12.2344 10.5938,-10.3438 C4,-6.84375 0,-0.9375 0,4.15625 C0,5.5625 0.296875,6.96875 1,8.26563 C2.79688,11.5781 6.59375,13.2813 11.2031,13.2813 C14.5938,13.2813 18.2969,12.375 21.9063,10.4844 C28.5,6.96875 32.5,1.0625 32.5,-4.04688 C32.5,-5.4375 32.2031,-6.84375 31.5,-8.14063 M27.2031,-1.34375 C25.5,0.359375 22.0938,2.45313 18.5,4.46875 C14.9063,6.46875 11.2969,7.96875 8.90625,8.46875 C8.40625,8.57813 7.90625,8.67188 7.40625,8.67188 C5.79688,8.67188 4.59375,8.07813 3.90625,6.76563 C3.59375,6.26563 3.40625,5.67188 3.40625,5.0625 C3.40625,3.96875 4.09375,2.65625 5.20313,1.5625 C6.90625,-0.140625 10.2031,-2.23438 13.7969,-4.23438 C17.4063,-6.23438 21,-7.73438 23.4063,-8.23438 C23.9063,-8.34375 24.4063,-8.4375 24.9063,-8.4375 C26.5,-8.4375 27.7969,-7.84375 28.5,-6.54688 C28.7969,-6.04688 28.9063,-5.4375 28.9063,-4.84375 C28.9063,-3.73438 28.2969,-2.54688 27.2031,-1.34375"/>
<path class="Note" transform="matrix(1.02,0,0,1.02,3443.44,324.447)" d="M31.5,-8.14063 C29.7031,-11.4375 25.9063,-13.2344 21.2969,-13.2344 C17.9063,-13.2344 14.2031,-12.2344 10.5938,-10.3438 C4,-6.84375 0,-0.9375 0,4.15625 C0,5.5625 0.296875,6.96875 1,8.26563 C2.79688,11.5781 6.59375,13.2813 11.2031,13.2813 C14.5938,13.2813 18.2969,12.375 21.9063,10.4844 C28.5,6.96875 32.5,1.0625 32.5,-4.04688 C32.5,-5.4375 32.2031,-6.84375 31.5,-8.14063 M27.2031,-1.34375 C25.5,0.359375 22.0938,2.45313 18.5,4.46875 C14.9063,6.46875 11.2969,7.96875 8.90625,8.46875 C8.40625,8.57813 7.90625,8.67188 7.40625,8.67188 C5.79688,8.67188 4.59375,8.07813 3.90625,6.76563 C3.59375,6.26563 3.40625,5.67188 3.40625,5.0625 C3.40625,3.96875 4.09375,2.65625 5.20313,1.5625 C6.90625,-0.140625 10.2031,-2.23438 13.7969,-4.23438 C17.4063,-6.23438 21,-7.73438 23.4063,-8.23438 C23.9063,-8.34375 24.4063,-8.4375 24.9063,-8.4375 C26.5,-8.4375 27.7969,-7.84375 28.5,-6.54688 C28.7969,-6.04688 28.9063,-5.4375 28.9063,-4.84375 C28.9063,-3.73438 28.2969,-2.54688 27.2031,-1.34375"/>
<path class="Note" transform="matrix(1.02,0,0,1.02,3568.93,311.697)" d="M31.5,-8.14063 C29.7031,-11.4375 25.9063,-13.2344 21.2969,-13.2344 C17.9063,-13.2344 14.2031,-12.2344 10.5938,-10.3438 C4,-6.84375 0,-0.9375 0,4.15625 C0,5.5625 0.296875,6.96875 1,8.26563 C2.79688,11.5781 6.59375,13.2813 11.2031,13.2813 C14.5938,13.2813 18.2969,12.375 21.9063,10.4844 C28.5,6.96875 32.5,1.0625 32.5,-4.04688 C32.5,-5.4375 32.2031,-6.84375 31.5,-8.14063 M27.2031,-1.34375 C25.5,0.359375 22.0938,2.45313 18.5,4.46875 C14.9063,6.46875 11.2969,7.96875 8.90625,8.46875 C8.40625,8.57813 7.90625,8.67188 7.40625,8.67188 C5.79688,8.67188 4.59375,8.07813 3.90625,6.76563 C3.59375,6.26563 3.40625,5.67188 3.40625,5.0625 C3.40625,3.96875 4.09375,2.65625 5.20313,1.5625 C6.90625,-0.140625 10.2031,-2.23438 13.7969,-4.23438 C17.4063,-6.23438 21,-7.73438 23.4063,-8.23438 C23.9063,-8.34375 24.4063,-8.4375 24.9063,-8.4375 C26.5,-8.4375 27.7969,-7.84375 28.5,-6.54688 C28.7969,-6.04688 28.9063,-5.4375 28.9063,-4.84375 C28.9063,-3.73438 28.2969,-2.54688 27.2031,-1.34375"/>
<path class="Note" transform="matrix(1.02,0,0,1.02,3734.61,286.197)" d="M18.7031,-13.5938 C4.90625,-13.5938 0,-6.59375 0,-0.09375 C0,6.40625 4.90625,13.4063 18.7031,13.4063 C32.5,13.4063 37.2969,6.40625 37.2969,-0.09375 C37.2969,-6.59375 32.5,-13.5938 18.7031,-13.5938 M10.4063,-4.5 C10.2969,-4.90625 10.2969,-5.29688 10.2969,-5.70313 C10.2969,-6.5 10.5,-7.29688 10.9063,-8 C11.5938,-9 12.7969,-9.70313 14.2969,-10 C15.5938,-10.2969 16.2969,-10.5 18.9063,-10.5 L19,-10.5 C23,-10.5 24.2969,-6.79688 25.4063,-3 L25.7031,-2 C26.5,0.59375 26.9063,2.79688 26.9063,4.5 C26.9063,5.70313 26.7031,6.79688 26.2969,7.59375 C25.7031,8.70313 24.7031,9.40625 23,9.79688 C22.0938,10 20.5938,10.0938 20.5938,10.0938 C20.0938,10.0938 19.7031,10.2031 19.2969,10.2031 C16.0938,10.2031 14.0938,9 12.7031,4.70313 C11.5,1 11.2969,-0.09375 10.4063,-4.5"/>
<path class="Clef" transform="matrix(1.02,0,0,1.02,91.266,375.447)" d="M63.3594,-5.92188 C62.125,-11.3438 59.4844,-15.1719 58.7031,-16.2031 C55.5156,-20.4844 51.5,-23.3281 46.8125,-24.6875 C43.7031,-25.5625 40.7031,-25.6875 38.2813,-25.5 C37.2344,-31.5156 36.2344,-37.3906 35.3281,-42.8438 C40.7813,-49.0156 44.4063,-54.8125 46.6875,-59.1094 C50.1563,-65.6875 51.2969,-70.2656 51.3594,-70.4688 C53.0781,-75.6875 53.4375,-83.3906 52.3281,-91.5938 C51.3281,-99.1406 49.2344,-105.859 46.875,-109.109 C45.8594,-110.531 44.7969,-111.266 43.7656,-111.266 C42.5469,-111.266 40.0313,-110.031 37.1406,-107.25 C34.8438,-105.063 31.5781,-101.172 29.0156,-95.1563 C26.0156,-88.0938 25.7969,-78.6094 26.1563,-71.8906 C26.5313,-64.6094 27.6406,-58.9219 27.6563,-58.875 C27.6719,-58.7813 27.9375,-57.2813 28.375,-54.7188 C28.1563,-54.4844 27.9063,-54.2656 27.6563,-54.0156 C26.625,-53.0156 25.4375,-51.8906 24.0469,-50.5 C23.1875,-49.6406 22.2344,-48.7344 21.2344,-47.7656 C12.7969,-39.625 0,-27.2969 0,-8.14063 C0,-3.4375 0.90625,0.984375 2.6875,5 C4.26563,8.59375 6.5625,11.875 9.5,14.75 C17.2344,22.3125 27.8281,25.5156 34.875,25.3594 C37.8281,25.2813 40.4688,25.0469 42.8594,24.5938 C44.6875,34.2031 45.8281,41.2344 45.8594,46.5781 C45.9063,53.0938 44.25,57.0781 40.3594,59.8438 C37.9219,61.5781 35.1094,62.5313 32.0156,62.6719 C29.4219,62.7969 27.1563,62.3281 25.7344,61.9219 L25.7188,61.9219 C25.7188,61.9219 25.4375,61.8281 25.4219,61.6406 C25.4063,61.4531 25.7656,61.4063 25.7656,61.4063 L25.7969,61.4063 C27.7188,60.9688 31.2813,59.7344 33.6406,56.4375 C35.4375,53.9063 36.3125,49.2813 34.4688,45.3438 C33.3594,42.9531 30.8594,40 25.2344,39.5469 C22.7344,39.3438 20.4688,39.8594 18.4688,41.0625 C16.6563,42.1406 15.1563,43.7813 14.1094,45.7813 C11.6563,50.4844 12.1094,56.2188 15.2344,60.0625 C18.2031,63.6875 22.8125,66 28.25,66.5781 C29.1094,66.6719 29.9531,66.7031 30.7969,66.7031 C35.2344,66.7031 39.625,65.5 43.2031,63.2969 C46.8594,60.7188 48.9844,56.7344 49.6563,51.1094 C50.2188,46.4688 49.8281,40.5469 48.4375,32.4688 C48.0781,30.375 47.5313,27.3438 46.875,23.5938 C52.625,21.6719 56.7813,18.0938 60.5469,12.2344 C63.8438,6.5 64.7813,0.390625 63.3594,-5.92188 M29.1406,20.2969 C24.5,19.0781 20.0625,16.5781 16.3125,13.0625 C15,11.8438 13.125,9.67188 11.6563,6.28125 C10.2969,3.10938 9.625,-0.328125 9.6875,-3.90625 C9.75,-8.60938 11.0625,-13.4375 13.5625,-18.2188 C16.4844,-23.7969 21.0469,-29.3281 27.1094,-34.6563 C28.5625,-35.9375 29.9375,-37.2188 31.2188,-38.5 C31.9844,-34.2344 32.8125,-29.5469 33.6875,-24.6719 C29.8438,-23.4063 25.0938,-20.25 21.9844,-14.5938 C18.4375,-8.03125 18.5781,-2.5 19.3125,0.984375 C20.25,5.4375 22.7813,9.20313 26.2344,11.2969 C27.1719,11.8594 31.2969,13.9844 33.1406,13.4063 C33.5156,13.2969 33.7813,13.0625 33.9219,12.7344 C34.4375,11.5625 33.4063,10.9219 31.8594,9.96875 C31.25,9.59375 30.5781,9.17188 29.8594,8.64063 C26.5313,6.15625 25.0781,1.70313 26.1563,-2.6875 C26.7344,-5.07813 28.0156,-7.25 29.8594,-8.95313 C31.5156,-10.5 33.5625,-11.5938 35.9375,-12.2344 C37.9844,-0.984375 40.0469,10.1719 41.6875,18.5313 C41.8125,19.2188 41.9531,19.8906 42.0781,20.5625 C37.7031,21.5 33.3594,21.4063 29.1406,20.2969 M40.4688,-12.9063 C50.8125,-13.375 55.0781,-5.9375 55.9688,-1.10938 C56.4375,1.4375 56.4375,5.875 54.8906,10.0938 C53.7188,13.2656 51.2656,17.3438 46.125,19.4063 C46.0625,18.9844 45.9844,18.5469 45.9063,18.125 C44.3594,9.34375 42.4219,-1.65625 40.4688,-12.9063 M33.1406,-83.8594 C34.9219,-89.5938 37.6563,-92.8438 39.6563,-94.5781 C41.4063,-96.0938 43.0469,-96.8125 43.9688,-96.8125 C44.1094,-96.8125 44.2344,-96.7813 44.3281,-96.75 C44.7969,-96.6094 45.3281,-96.0469 45.7969,-95.1719 C48.1094,-90.8906 47.3594,-84.1719 46.0156,-79.7344 C44.3906,-74.3281 41.4688,-68.7188 32.6719,-59.1094 C32.5,-60.2188 32.3438,-61.2656 32.1875,-62.25 C30.9375,-70.5313 31.2656,-77.8125 33.1406,-83.8594"/>
<path class="KeySig" transform="matrix(1.02,0,0,1.02,207.53,337.197)" d="M23.2969,-10.5938 C23.9063,-10.7031 24.4063,-11.4063 24.4063,-12 L24.4063,-17.9063 C24.4063,-18.7031 23.7969,-19.2969 23,-19.2969 L22.7969,-19.2969 L19.5,-18.5938 L19.5,-33.5 L16.7031,-33.5 L16.7031,-18 L7.79688,-16.2031 L7.79688,-30.2969 L5,-30.2969 L5,-15.5938 L1.09375,-14.7969 C0.5,-14.7031 0,-14 0,-13.4063 L0,-13.2031 L0,-7.40625 L0,-7.59375 C0,-6.79688 0.59375,-6.20313 1.40625,-6.20313 L1.70313,-6.20313 L5,-6.90625 L5,9.59375 L1.09375,10.4063 C0.5,10.5 0,11.2031 0,11.7969 L0,17.5938 C0,18.4063 0.59375,19 1.40625,19 L1.70313,19 L5,18.2969 L5,33.2031 L7.79688,33.2031 L7.79688,17.7031 L16.7031,15.9063 L16.7031,30 L19.5,30 L19.5,15.2969 L23.2969,14.5938 C23.9063,14.5 24.4063,13.7969 24.4063,13.2031 L24.4063,7.29688 C24.4063,6.5 23.7969,5.90625 23,5.90625 L22.7969,5.90625 L19.5,6.59375 L19.5,-9.90625 L23.2969,-10.5938 M7.79688,9.09375 L7.79688,-7.5 L16.7031,-9.29688 L16.7031,7.20313 L7.79688,9.09375 "/>
<path class="KeySig" transform="matrix(1.02,0,0,1.02,182.03,298.947)" d="M23.2969,-10.5938 C23.9063,-10.7031 24.4063,-11.4063 24.4063,-12 L24.4063,-17.9063 C24.4063,-18.7031 23.7969,-19.2969 23,-19.2969 L22.7969,-19.2969 L19.5,-18.5938 L19.5,-33.5 L16.7031,-33.5 L16.7031,-18 L7.79688,-16.2031 L7.79688,-30.2969 L5,-30.2969 L5,-15.5938 L1.09375,-14.7969 C0.5,-14.7031 0,-14 0,-13.4063 L0,-13.2031 L0,-7.40625 L0,-7.59375 C0,-6.79688 0.59375,-6.20313 1.40625,-6.20313 L1.70313,-6.20313 L5,-6.90625 L5,9.59375 L1.09375,10.4063 C0.5,10.5 0,11.2031 0,11.7969 L0,17.5938 C0,18.4063 0.59375,19 1.40625,19 L1.70313,19 L5,18.2969 L5,33.2031 L7.79688,33.2031 L7.79688,17.7031 L16.7031,15.9063 L16.7031,30 L19.5,30 L19.5,15.2969 L23.2969,14.5938 C23.9063,14.5 24.4063,13.7969 24.4063,13.2031 L24.4063,7.29688 C24.4063,6.5 23.7969,5.90625 23,5.90625 L22.7969,5.90625 L19.5,6.59375 L19.5,-9.90625 L23.2969,-10.5938 M7.79688,9.09375 L7.79688,-7.5 L16.7031,-9.29688 L16.7031,7.20313 L7.79688,9.09375 "/>
<path class="Rest" transform="matrix(1.02,0,0,1.02,380.563,349.947)" d="M26.7344,-20.2656 C25.9844,-20.5469 25.3125,-20.2031 24.9844,-19.5938 C24.6563,-18.9844 21.4688,-13.0625 17.0469,-9.79688 C15.6563,-8.78125 14.0625,-8.14063 12.5,-7.8125 C13.625,-9.0625 14.2969,-10.7344 14.2969,-12.5469 C14.2969,-16.5 11.0938,-19.7031 7.15625,-19.7031 C3.20313,-19.7031 0,-16.5 0,-12.5469 C0,-9.54688 1.875,-6.95313 4.51563,-5.90625 C6.04688,-5.1875 7.95313,-4.73438 10,-4.73438 C12.8438,-4.73438 15.9531,-5.5625 18.6719,-7.5625 C19.9375,-8.48438 21.125,-9.6875 22.2031,-10.9375 L10.8125,24.6875 L13.4531,25.5469 L27.5313,-18.5469 C27.7656,-19.2813 27.4688,-19.9688 26.7344,-20.2656"/>
<path class="Rest" transform="matrix(1.02,0,0,1.02,936.984,324.447)" d="M31.1094,-0.5 L1.40625,-0.5 C0.59375,-0.5 0,0.09375 0,0.90625 L0,11.7031 C0,12.5 0.59375,13.0938 1.40625,13.0938 L31.1094,13.0938 C31.9063,13.0938 32.5,12.5 32.5,11.7031 L32.5,0.90625 C32.5,0.09375 31.9063,-0.5 31.1094,-0.5"/>
<path class="Rest" transform="matrix(1.02,0,0,1.02,1231.24,260.697)" d="M3.59375,12.625 L20.7656,12.625 L20.7656,20.0781 L12.5469,20.0781 C11.7656,20.0781 11.125,20.7031 11.125,21.4844 L11.125,23.3906 C11.125,24.1719 11.7656,24.7969 12.5469,24.7969 L42.7969,24.7969 C43.5781,24.7969 44.2031,24.1719 44.2031,23.3906 L44.2031,21.4844 C44.2031,20.7031 43.5781,20.0781 42.7969,20.0781 L33.8594,20.0781 L33.8594,12.625 L42.7969,12.625 C43.5781,12.625 44.2031,12 44.2031,11.2188 L44.2031,9.3125 C44.2031,8.53125 43.5781,7.90625 42.7969,7.90625 L33.8594,7.90625 L33.8594,-8.0625 C33.8594,-8.59375 33.5469,-9.07813 33.0781,-9.3125 L31.8594,-9.92188 C31.3281,-10.1719 30.7031,-10.0781 30.2656,-9.6875 L21.2188,-1.375 C20.9375,-1.09375 20.7656,-0.734375 20.7656,-0.328125 L20.7656,7.90625 L9.25,7.90625 C9.25,7.90625 20.375,-4.125 32.2188,-19.8906 C33.0781,-21.0469 32.5781,-22.0938 32.3906,-22.2813 L30.2188,-24.4844 C29.9531,-24.75 29.5938,-24.9063 29.2188,-24.9063 C28.625,-24.9063 15.0625,-24.875 14.3438,-24.9063 C13.625,-24.9219 13.0938,-24.2969 13.0156,-23.6875 C13.0156,-23.6875 12.4844,-16.3281 9.875,-8.1875 C7.28125,-0.078125 4.34375,4.90625 1.6875,8.53125 C1.6875,8.53125 1.14063,9.51563 1.5,10.2656 C1.84375,11.0156 2.48438,12.0938 2.48438,12.0938 C2.48438,12.0938 2.73438,12.625 3.59375,12.625"/>
<polyline class="Rest" fill="none" stroke="#000000" stroke-width="17.85" stroke-linecap="square" stroke-linejoin="bevel" points="1149.47,349.947 1356.72,349.947"/>
<polyline class="Rest" fill="none" stroke="#000000" stroke-width="5.10" stroke-linecap="square" stroke-linejoin="bevel" points="1140.54,324.447 1140.54,375.447"/>
<polyline class="Rest" fill="none" stroke="#000000" stroke-width="5.10" stroke-linecap="square" stroke-linejoin="bevel" points="1365.64,324.447 1365.64,375.447"/>
<path class="Rest" transform="matrix(1.02,0,0,1.02,3996.88,324.447)" d="M31.1094,-0.5 L1.40625,-0.5 C0.59375,-0.5 0,0.09375 0,0.90625 L0,11.7031 C0,12.5 0.59375,13.0938 1.40625,13.0938 L31.1094,13.0938 C31.9063,13.0938 32.5,12.5 32.5,11.7031 L32.5,0.90625 C32.5,0.09375 31.9063,-0.5 31.1094,-0.5"/>
<path class="Beam" fill-rule="evenodd" d="M533.872,445.534 L766.639,471.345 L766.639,484.173 L533.872,458.362 L533.872,445.534 "/>
<path class="Beam" fill-rule="evenodd" d="M2520.21,445.539 L2772.01,471.327 L2772.01,484.143 L2520.21,458.356 L2520.21,445.539 "/>
<path class="Hook" transform="matrix(1.02,0,0,1.02,457.217,451.948)" d="M2.5,0.40625 C2.5,0.203125 3.40625,-3.20313 3.5,-3.5 C3.59375,-3.90625 5.40625,-9.59375 9.09375,-15.2969 C11.7969,-19.5 21.2969,-31.7969 21,-31.7969 C21,-31.7969 28.4063,-41.2969 28.9063,-54.2031 L28.9063,-56.5 C28.9063,-62.6094 28.1094,-71.2031 24.5938,-79.9063 C24.2031,-80.9063 23.7969,-81.9063 22.7031,-81.5 C21.5938,-81.1094 21.9063,-79.9063 22.2031,-78.8125 C24,-71.7969 25,-64.6094 25,-57.4063 C25,-49 22,-44.7969 20.2031,-41.7031 C13.5938,-30.6094 5,-25.2031 0.796875,-23.7969 C0.296875,-23.5938 0,-23.2031 0,-22.7031 L0,-16.5 L0,-0.09375 C0,0.59375 0.59375,1.20313 1.29688,1.20313 C1.79688,1.20313 2.40625,0.796875 2.5,0.40625"/>
<path class="Hook" transform="matrix(1.02,0,0,1.02,2437.21,451.948)" d="M2.5,0.40625 C2.5,0.203125 3.40625,-3.20313 3.5,-3.5 C3.59375,-3.90625 5.40625,-9.59375 9.09375,-15.2969 C11.7969,-19.5 21.2969,-31.7969 21,-31.7969 C21,-31.7969 28.4063,-41.2969 28.9063,-54.2031 L28.9063,-56.5 C28.9063,-62.6094 28.1094,-71.2031 24.5938,-79.9063 C24.2031,-80.9063 23.7969,-81.9063 22.7031,-81.5 C21.5938,-81.1094 21.9063,-79.9063 22.2031,-78.8125 C24,-71.7969 25,-64.6094 25,-57.4063 C25,-49 22,-44.7969 20.2031,-41.7031 C13.5938,-30.6094 5,-25.2031 0.796875,-23.7969 C0.296875,-23.5938 0,-23.2031 0,-22.7031 L0,-16.5 L0,-0.09375 C0,0.59375 0.59375,1.20313 1.29688,1.20313 C1.79688,1.20313 2.40625,0.796875 2.5,0.40625"/>
<path class="Fingering" d="M257.238,166.036 C254.988,168.739 248.925,170.786 242.847,170.911 L242.847,173.755 L248.66,173.755 C252.488,173.817 252.878,174.208 252.753,177.911 L252.753,204.364 C252.753,207.739 252.753,207.864 252.347,208.458 C251.832,209.13 250.566,209.38 246.878,209.38 L242.582,209.38 L242.582,212.489 L268.722,212.489 L268.722,209.38 L265.097,209.38 C261.394,209.38 260.144,209.13 259.613,208.458 C259.144,207.864 259.144,207.802 259.144,204.364 L259.144,177.114 C259.144,173.427 259.285,170.317 259.613,166.036 L257.238,166.036 M306.003,198.239 L303.097,198.239 L302.441,201.599 C301.582,205.895 301.05,206.286 296.957,206.286 L282.175,206.286 C286.738,201.536 288.253,200.145 292.472,196.849 C298.472,192.224 301.05,189.927 302.566,187.942 C304.675,185.036 305.738,182.13 305.738,178.895 C305.738,171.38 299.535,166.036 290.894,166.036 C282.503,166.036 276.113,171.38 276.113,178.442 C276.113,182.599 278.222,185.427 281.316,185.427 C283.769,185.427 285.41,183.786 285.41,181.411 C285.41,179.755 284.488,178.239 283.097,177.645 C280.66,176.661 280.535,176.52 280.535,175.661 C280.535,174.677 281.191,173.161 282.113,172.036 C283.769,169.989 286.472,168.864 289.566,168.864 C295.05,168.864 298.285,172.239 298.285,177.77 C298.285,182.661 295.972,187.083 290.488,192.895 C285.613,198.036 282.582,201.27 281.457,202.52 C279.082,205.302 277.894,206.817 274.988,210.645 L274.988,212.489 L304.753,212.489 L306.003,198.239 "/>
<path class="Fingering" d="M475.539,159.335 C473.289,162.039 467.226,164.085 461.148,164.21 L461.148,167.054 L466.96,167.054 C470.789,167.117 471.179,167.507 471.054,171.21 L471.054,197.664 C471.054,201.039 471.054,201.164 470.648,201.757 C470.132,202.429 468.867,202.679 465.179,202.679 L460.882,202.679 L460.882,205.789 L487.023,205.789 L487.023,202.679 L483.398,202.679 C479.695,202.679 478.445,202.429 477.914,201.757 C477.445,201.164 477.445,201.101 477.445,197.664 L477.445,170.414 C477.445,166.726 477.585,163.617 477.914,159.335 L475.539,159.335 "/>
<path class="Fingering" d="M533.193,166.036 C530.943,168.739 524.88,170.786 518.802,170.911 L518.802,173.755 L524.615,173.755 C528.443,173.817 528.833,174.208 528.708,177.911 L528.708,204.364 C528.708,207.739 528.708,207.864 528.302,208.458 C527.786,209.13 526.521,209.38 522.833,209.38 L518.536,209.38 L518.536,212.489 L544.677,212.489 L544.677,209.38 L541.052,209.38 C537.349,209.38 536.099,209.13 535.568,208.458 C535.099,207.864 535.099,207.802 535.099,204.364 L535.099,177.114 C535.099,173.427 535.24,170.317 535.568,166.036 L533.193,166.036 M581.958,198.239 L579.052,198.239 L578.396,201.599 C577.536,205.895 577.005,206.286 572.911,206.286 L558.13,206.286 C562.693,201.536 564.208,200.145 568.427,196.849 C574.427,192.224 577.005,189.927 578.521,187.942 C580.63,185.036 581.693,182.13 581.693,178.895 C581.693,171.38 575.49,166.036 566.849,166.036 C558.458,166.036 552.068,171.38 552.068,178.442 C552.068,182.599 554.177,185.427 557.271,185.427 C559.724,185.427 561.365,183.786 561.365,181.411 C561.365,179.755 560.443,178.239 559.052,177.645 C556.615,176.661 556.49,176.52 556.49,175.661 C556.49,174.677 557.146,173.161 558.068,172.036 C559.724,169.989 562.427,168.864 565.521,168.864 C571.005,168.864 574.24,172.239 574.24,177.77 C574.24,182.661 571.927,187.083 566.443,192.895 C561.568,198.036 558.536,201.27 557.411,202.52 C555.036,205.302 553.849,206.817 550.943,210.645 L550.943,212.489 L580.708,212.489 L581.958,198.239 "/>
<path class="Fingering" d="M627.847,178.438 C618.597,178.438 611.862,188.469 611.862,202.328 C611.862,215.922 618.409,225.875 627.315,225.875 C636.55,225.875 643.019,216.25 643.019,202.516 C643.019,195.516 641.565,189.719 638.8,185.156 C636.222,181 632.003,178.438 627.847,178.438 M627.378,181.266 C629.55,181.266 631.659,182.719 633.253,185.359 C635.034,188.469 635.628,192.219 635.628,201.266 C635.628,210.563 635.159,214.922 633.847,217.828 C632.331,221.063 629.956,223.047 627.44,223.047 C625.206,223.047 623.159,221.594 621.565,218.953 C619.722,215.844 619.19,211.75 619.19,200.938 C619.19,193.219 619.659,189.391 620.972,186.484 C622.487,183.188 624.862,181.266 627.378,181.266"/>
<path class="Fingering" d="M705.501,192.839 C703.251,195.542 697.188,197.589 691.11,197.714 L691.11,200.558 L696.923,200.558 C700.751,200.62 701.141,201.011 701.016,204.714 L701.016,231.167 C701.016,234.542 701.016,234.667 700.61,235.261 C700.095,235.933 698.829,236.183 695.141,236.183 L690.845,236.183 L690.845,239.292 L716.985,239.292 L716.985,236.183 L713.36,236.183 C709.657,236.183 708.407,235.933 707.876,235.261 C707.407,234.667 707.407,234.605 707.407,231.167 L707.407,203.917 C707.407,200.23 707.548,197.12 707.876,192.839 L705.501,192.839 "/>
<path class="Fingering" d="M763.155,199.54 C760.905,202.243 754.842,204.29 748.764,204.415 L748.764,207.259 L754.577,207.259 C758.405,207.321 758.796,207.712 758.671,211.415 L758.671,237.868 C758.671,241.243 758.671,241.368 758.264,241.962 C757.749,242.634 756.483,242.884 752.796,242.884 L748.499,242.884 L748.499,245.993 L774.639,245.993 L774.639,242.884 L771.014,242.884 C767.311,242.884 766.061,242.634 765.53,241.962 C765.061,241.368 765.061,241.305 765.061,237.868 L765.061,210.618 C765.061,206.93 765.202,203.821 765.53,199.54 L763.155,199.54 M811.921,231.743 L809.014,231.743 L808.358,235.102 C807.499,239.399 806.967,239.79 802.874,239.79 L788.092,239.79 C792.655,235.04 794.171,233.649 798.389,230.352 C804.389,225.727 806.967,223.43 808.483,221.446 C810.592,218.54 811.655,215.634 811.655,212.399 C811.655,204.884 805.452,199.54 796.811,199.54 C788.421,199.54 782.03,204.884 782.03,211.946 C782.03,216.102 784.139,218.93 787.233,218.93 C789.686,218.93 791.327,217.29 791.327,214.915 C791.327,213.259 790.405,211.743 789.014,211.149 C786.577,210.165 786.452,210.024 786.452,209.165 C786.452,208.18 787.108,206.665 788.03,205.54 C789.686,203.493 792.389,202.368 795.483,202.368 C800.967,202.368 804.202,205.743 804.202,211.274 C804.202,216.165 801.889,220.587 796.405,226.399 C791.53,231.54 788.499,234.774 787.374,236.024 C784.999,238.805 783.811,240.321 780.905,244.149 L780.905,245.993 L810.671,245.993 L811.921,231.743 "/>
<path class="Fingering" d="M1477.13,211.941 C1474.88,214.644 1468.82,216.691 1462.74,216.816 L1462.74,219.66 L1468.55,219.66 C1472.38,219.723 1472.77,220.113 1472.64,223.816 L1472.64,250.269 C1472.64,253.644 1472.64,253.769 1472.24,254.363 C1471.72,255.035 1470.46,255.285 1466.77,255.285 L1462.47,255.285 L1462.47,258.394 L1488.61,258.394 L1488.61,255.285 L1484.99,255.285 C1481.28,255.285 1480.03,255.035 1479.5,254.363 C1479.03,253.769 1479.03,253.707 1479.03,250.269 L1479.03,223.019 C1479.03,219.332 1479.17,216.223 1479.5,211.941 L1477.13,211.941 M1515.39,234.113 C1521.41,231.926 1524.17,228.566 1524.17,223.285 C1524.17,216.363 1518.89,211.941 1510.71,211.941 C1502.99,211.941 1497.11,216.488 1497.11,222.488 C1497.11,225.207 1498.89,227.113 1501.47,227.113 C1503.78,227.113 1505.36,225.535 1505.36,223.16 C1505.36,221.707 1504.85,220.848 1503.32,219.785 C1502.66,219.332 1502.47,219.066 1502.47,218.598 C1502.47,216.754 1506.3,214.769 1510.05,214.769 C1514.8,214.769 1517.32,217.738 1517.32,223.348 C1517.32,229.488 1514.8,232.723 1510.11,232.723 C1509.52,232.723 1508.41,232.66 1507.41,232.598 C1506.89,232.519 1506.36,232.519 1505.96,232.519 C1504.58,232.519 1503.85,233.113 1503.85,234.301 C1503.85,235.426 1504.5,235.957 1505.96,235.957 C1506.36,235.957 1506.89,235.957 1507.49,235.894 C1508.8,235.832 1509.86,235.832 1510.58,235.832 C1515.47,235.832 1518.11,239.316 1518.11,245.863 C1518.11,252.723 1514.8,256.551 1508.86,256.551 C1504.71,256.551 1500.22,254.301 1500.22,252.254 C1500.22,251.66 1500.35,251.535 1501.61,250.801 C1503.46,249.676 1504.17,248.566 1504.17,246.91 C1504.17,244.535 1502.39,242.754 1500.02,242.754 C1497.19,242.754 1495.33,245.066 1495.33,248.566 C1495.33,254.957 1501.21,259.379 1509.66,259.379 C1519.22,259.379 1525.42,254.098 1525.42,245.988 C1525.42,239.785 1522.27,236.019 1515.39,234.113"/>
<path class="Fingering" d="M1580,199.54 C1577.75,202.243 1571.68,204.29 1565.61,204.415 L1565.61,207.259 L1571.42,207.259 C1575.25,207.321 1575.64,207.712 1575.51,211.415 L1575.51,237.868 C1575.51,241.243 1575.51,241.368 1575.11,241.962 C1574.59,242.634 1573.32,242.884 1569.64,242.884 L1565.34,242.884 L1565.34,245.993 L1591.48,245.993 L1591.48,242.884 L1587.86,242.884 C1584.15,242.884 1582.9,242.634 1582.37,241.962 C1581.9,241.368 1581.9,241.305 1581.9,237.868 L1581.9,210.618 C1581.9,206.93 1582.04,203.821 1582.37,199.54 L1580,199.54 M1628.76,231.743 L1625.86,231.743 L1625.2,235.102 C1624.34,239.399 1623.81,239.79 1619.71,239.79 L1604.93,239.79 C1609.5,235.04 1611.01,233.649 1615.23,230.352 C1621.23,225.727 1623.81,223.43 1625.32,221.446 C1627.43,218.54 1628.5,215.634 1628.5,212.399 C1628.5,204.884 1622.29,199.54 1613.65,199.54 C1605.26,199.54 1598.87,204.884 1598.87,211.946 C1598.87,216.102 1600.98,218.93 1604.07,218.93 C1606.53,218.93 1608.17,217.29 1608.17,214.915 C1608.17,213.259 1607.25,211.743 1605.86,211.149 C1603.42,210.165 1603.29,210.024 1603.29,209.165 C1603.29,208.18 1603.95,206.665 1604.87,205.54 C1606.53,203.493 1609.23,202.368 1612.32,202.368 C1617.81,202.368 1621.04,205.743 1621.04,211.274 C1621.04,216.165 1618.73,220.587 1613.25,226.399 C1608.37,231.54 1605.34,234.774 1604.21,236.024 C1601.84,238.805 1600.65,240.321 1597.75,244.149 L1597.75,245.993 L1627.51,245.993 L1628.76,231.743 "/>
<path class="Fingering" d="M1760.4,192.839 C1758.15,195.542 1752.09,197.589 1746.01,197.714 L1746.01,200.558 L1751.82,200.558 C1755.65,200.62 1756.04,201.011 1755.92,204.714 L1755.92,231.167 C1755.92,234.542 1755.92,234.667 1755.51,235.261 C1754.99,235.933 1753.73,236.183 1750.04,236.183 L1745.74,236.183 L1745.74,239.292 L1771.88,239.292 L1771.88,236.183 L1768.26,236.183 C1764.56,236.183 1763.31,235.933 1762.78,235.261 C1762.31,234.667 1762.31,234.605 1762.31,231.167 L1762.31,203.917 C1762.31,200.23 1762.45,197.12 1762.78,192.839 L1760.4,192.839 "/>
<path class="Fingering" d="M1862.77,178.438 C1853.52,178.438 1846.78,188.469 1846.78,202.328 C1846.78,215.922 1853.33,225.875 1862.24,225.875 C1871.47,225.875 1877.94,216.25 1877.94,202.516 C1877.94,195.516 1876.49,189.719 1873.72,185.156 C1871.14,181 1866.92,178.438 1862.77,178.438 M1862.3,181.266 C1864.47,181.266 1866.58,182.719 1868.17,185.359 C1869.96,188.469 1870.55,192.219 1870.55,201.266 C1870.55,210.563 1870.08,214.922 1868.77,217.828 C1867.25,221.063 1864.88,223.047 1862.36,223.047 C1860.13,223.047 1858.08,221.594 1856.49,218.953 C1854.64,215.844 1854.11,211.75 1854.11,200.938 C1854.11,193.219 1854.58,189.391 1855.89,186.484 C1857.41,183.188 1859.78,181.266 1862.3,181.266"/>
<path class="Fingering" d="M1985.88,166.036 C1983.63,168.739 1977.56,170.786 1971.49,170.911 L1971.49,173.755 L1977.3,173.755 C1981.13,173.817 1981.52,174.208 1981.39,177.911 L1981.39,204.364 C1981.39,207.739 1981.39,207.864 1980.99,208.458 C1980.47,209.13 1979.2,209.38 1975.52,209.38 L1971.22,209.38 L1971.22,212.489 L1997.36,212.489 L1997.36,209.38 L1993.74,209.38 C1990.03,209.38 1988.78,209.13 1988.25,208.458 C1987.78,207.864 1987.78,207.802 1987.78,204.364 L1987.78,177.114 C1987.78,173.427 1987.92,170.317 1988.25,166.036 L1985.88,166.036 M2034.64,198.239 L2031.74,198.239 L2031.08,201.599 C2030.22,205.895 2029.69,206.286 2025.59,206.286 L2010.81,206.286 C2015.38,201.536 2016.89,200.145 2021.11,196.849 C2027.11,192.224 2029.69,189.927 2031.2,187.942 C2033.31,185.036 2034.38,182.13 2034.38,178.895 C2034.38,171.38 2028.17,166.036 2019.53,166.036 C2011.14,166.036 2004.75,171.38 2004.75,178.442 C2004.75,182.599 2006.86,185.427 2009.95,185.427 C2012.41,185.427 2014.05,183.786 2014.05,181.411 C2014.05,179.755 2013.13,178.239 2011.74,177.645 C2009.3,176.661 2009.17,176.52 2009.17,175.661 C2009.17,174.677 2009.83,173.161 2010.75,172.036 C2012.41,169.989 2015.11,168.864 2018.2,168.864 C2023.69,168.864 2026.92,172.239 2026.92,177.77 C2026.92,182.661 2024.61,187.083 2019.13,192.895 C2014.25,198.036 2011.22,201.27 2010.09,202.52 C2007.72,205.302 2006.53,206.817 2003.63,210.645 L2003.63,212.489 L2033.39,212.489 L2034.64,198.239 "/>
<path class="Fingering" d="M2130.37,159.335 C2128.12,162.039 2122.05,164.085 2115.98,164.21 L2115.98,167.054 L2121.79,167.054 C2125.62,167.117 2126.01,167.507 2125.88,171.21 L2125.88,197.664 C2125.88,201.039 2125.88,201.164 2125.48,201.757 C2124.96,202.429 2123.69,202.679 2120.01,202.679 L2115.71,202.679 L2115.71,205.789 L2141.85,205.789 L2141.85,202.679 L2138.23,202.679 C2134.52,202.679 2133.27,202.429 2132.74,201.757 C2132.27,201.164 2132.27,201.101 2132.27,197.664 L2132.27,170.414 C2132.27,166.726 2132.41,163.617 2132.74,159.335 L2130.37,159.335 "/>
<path class="Fingering" d="M2274.6,166.036 C2272.35,168.739 2266.28,170.786 2260.21,170.911 L2260.21,173.755 L2266.02,173.755 C2269.85,173.817 2270.24,174.208 2270.11,177.911 L2270.11,204.364 C2270.11,207.739 2270.11,207.864 2269.71,208.458 C2269.19,209.13 2267.93,209.38 2264.24,209.38 L2259.94,209.38 L2259.94,212.489 L2286.08,212.489 L2286.08,209.38 L2282.46,209.38 C2278.75,209.38 2277.5,209.13 2276.97,208.458 C2276.5,207.864 2276.5,207.802 2276.5,204.364 L2276.5,177.114 C2276.5,173.427 2276.64,170.317 2276.97,166.036 L2274.6,166.036 M2323.36,198.239 L2320.46,198.239 L2319.8,201.599 C2318.94,205.895 2318.41,206.286 2314.32,206.286 L2299.53,206.286 C2304.1,201.536 2305.61,200.145 2309.83,196.849 C2315.83,192.224 2318.41,189.927 2319.93,187.942 C2322.03,185.036 2323.1,182.13 2323.1,178.895 C2323.1,171.38 2316.89,166.036 2308.25,166.036 C2299.86,166.036 2293.47,171.38 2293.47,178.442 C2293.47,182.599 2295.58,185.427 2298.68,185.427 C2301.13,185.427 2302.77,183.786 2302.77,181.411 C2302.77,179.755 2301.85,178.239 2300.46,177.645 C2298.02,176.661 2297.89,176.52 2297.89,175.661 C2297.89,174.677 2298.55,173.161 2299.47,172.036 C2301.13,169.989 2303.83,168.864 2306.93,168.864 C2312.41,168.864 2315.64,172.239 2315.64,177.77 C2315.64,182.661 2313.33,187.083 2307.85,192.895 C2302.97,198.036 2299.94,201.27 2298.82,202.52 C2296.44,205.302 2295.25,206.817 2292.35,210.645 L2292.35,212.489 L2322.11,212.489 L2323.36,198.239 "/>
<path class="Fingering" d="M2455.53,159.335 C2453.28,162.039 2447.22,164.085 2441.14,164.21 L2441.14,167.054 L2446.95,167.054 C2450.78,167.117 2451.17,167.507 2451.04,171.21 L2451.04,197.664 C2451.04,201.039 2451.04,201.164 2450.64,201.757 C2450.12,202.429 2448.86,202.679 2445.17,202.679 L2440.87,202.679 L2440.87,205.789 L2467.01,205.789 L2467.01,202.679 L2463.39,202.679 C2459.68,202.679 2458.43,202.429 2457.9,201.757 C2457.43,201.164 2457.43,201.101 2457.43,197.664 L2457.43,170.414 C2457.43,166.726 2457.57,163.617 2457.9,159.335 L2455.53,159.335 "/>
<path class="Fingering" d="M2519.53,166.036 C2517.28,168.739 2511.21,170.786 2505.14,170.911 L2505.14,173.755 L2510.95,173.755 C2514.78,173.817 2515.17,174.208 2515.04,177.911 L2515.04,204.364 C2515.04,207.739 2515.04,207.864 2514.64,208.458 C2514.12,209.13 2512.86,209.38 2509.17,209.38 L2504.87,209.38 L2504.87,212.489 L2531.01,212.489 L2531.01,209.38 L2527.39,209.38 C2523.68,209.38 2522.43,209.13 2521.9,208.458 C2521.43,207.864 2521.43,207.802 2521.43,204.364 L2521.43,177.114 C2521.43,173.427 2521.57,170.317 2521.9,166.036 L2519.53,166.036 M2568.29,198.239 L2565.39,198.239 L2564.73,201.599 C2563.87,205.895 2563.34,206.286 2559.25,206.286 L2544.46,206.286 C2549.03,201.536 2550.54,200.145 2554.76,196.849 C2560.76,192.224 2563.34,189.927 2564.86,187.942 C2566.96,185.036 2568.03,182.13 2568.03,178.895 C2568.03,171.38 2561.82,166.036 2553.18,166.036 C2544.79,166.036 2538.4,171.38 2538.4,178.442 C2538.4,182.599 2540.51,185.427 2543.61,185.427 C2546.06,185.427 2547.7,183.786 2547.7,181.411 C2547.7,179.755 2546.78,178.239 2545.39,177.645 C2542.95,176.661 2542.82,176.52 2542.82,175.661 C2542.82,174.677 2543.48,173.161 2544.4,172.036 C2546.06,169.989 2548.76,168.864 2551.86,168.864 C2557.34,168.864 2560.57,172.239 2560.57,177.77 C2560.57,182.661 2558.26,187.083 2552.78,192.895 C2547.9,198.036 2544.87,201.27 2543.75,202.52 C2541.37,205.302 2540.18,206.817 2537.28,210.645 L2537.28,212.489 L2567.04,212.489 L2568.29,198.239 "/>
<path class="Fingering" d="M2620.53,178.438 C2611.28,178.438 2604.54,188.469 2604.54,202.328 C2604.54,215.922 2611.09,225.875 2620,225.875 C2629.23,225.875 2635.7,216.25 2635.7,202.516 C2635.7,195.516 2634.25,189.719 2631.48,185.156 C2628.9,181 2624.68,178.438 2620.53,178.438 M2620.06,181.266 C2622.23,181.266 2624.34,182.719 2625.93,185.359 C2627.71,188.469 2628.31,192.219 2628.31,201.266 C2628.31,210.563 2627.84,214.922 2626.53,217.828 C2625.01,221.063 2622.64,223.047 2620.12,223.047 C2617.89,223.047 2615.84,221.594 2614.25,218.953 C2612.4,215.844 2611.87,211.75 2611.87,200.938 C2611.87,193.219 2612.34,189.391 2613.65,186.484 C2615.17,183.188 2617.54,181.266 2620.06,181.266"/>
<path class="Fingering" d="M2704.53,192.839 C2702.28,195.542 2696.21,197.589 2690.14,197.714 L2690.14,200.558 L2695.95,200.558 C2699.78,200.62 2700.17,201.011 2700.04,204.714 L2700.04,231.167 C2700.04,234.542 2700.04,234.667 2699.64,235.261 C2699.12,235.933 2697.85,236.183 2694.17,236.183 L2689.87,236.183 L2689.87,239.292 L2716.01,239.292 L2716.01,236.183 L2712.39,236.183 C2708.68,236.183 2707.43,235.933 2706.9,235.261 C2706.43,234.667 2706.43,234.605 2706.43,231.167 L2706.43,203.917 C2706.43,200.23 2706.57,197.12 2706.9,192.839 L2704.53,192.839 "/>
<path class="Fingering" d="M2768.53,199.54 C2766.28,202.243 2760.21,204.29 2754.14,204.415 L2754.14,207.259 L2759.95,207.259 C2763.78,207.321 2764.17,207.712 2764.04,211.415 L2764.04,237.868 C2764.04,241.243 2764.04,241.368 2763.64,241.962 C2763.12,242.634 2761.85,242.884 2758.17,242.884 L2753.87,242.884 L2753.87,245.993 L2780.01,245.993 L2780.01,242.884 L2776.39,242.884 C2772.68,242.884 2771.43,242.634 2770.9,241.962 C2770.43,241.368 2770.43,241.305 2770.43,237.868 L2770.43,210.618 C2770.43,206.93 2770.57,203.821 2770.9,199.54 L2768.53,199.54 M2817.29,231.743 L2814.39,231.743 L2813.73,235.102 C2812.87,239.399 2812.34,239.79 2808.25,239.79 L2793.46,239.79 C2798.03,235.04 2799.54,233.649 2803.76,230.352 C2809.76,225.727 2812.34,223.43 2813.85,221.446 C2815.96,218.54 2817.03,215.634 2817.03,212.399 C2817.03,204.884 2810.82,199.54 2802.18,199.54 C2793.79,199.54 2787.4,204.884 2787.4,211.946 C2787.4,216.102 2789.51,218.93 2792.6,218.93 C2795.06,218.93 2796.7,217.29 2796.7,214.915 C2796.7,213.259 2795.78,211.743 2794.39,211.149 C2791.95,210.165 2791.82,210.024 2791.82,209.165 C2791.82,208.18 2792.48,206.665 2793.4,205.54 C2795.06,203.493 2797.76,202.368 2800.85,202.368 C2806.34,202.368 2809.57,205.743 2809.57,211.274 C2809.57,216.165 2807.26,220.587 2801.78,226.399 C2796.9,231.54 2793.87,234.774 2792.75,236.024 C2790.37,238.805 2789.18,240.321 2786.28,244.149 L2786.28,245.993 L2816.04,245.993 L2817.29,231.743 "/>
<path class="Fingering" d="M2907.27,178.438 C2898.02,178.438 2891.28,188.469 2891.28,202.328 C2891.28,215.922 2897.83,225.875 2906.74,225.875 C2915.97,225.875 2922.44,216.25 2922.44,202.516 C2922.44,195.516 2920.99,189.719 2918.22,185.156 C2915.64,181 2911.42,178.438 2907.27,178.438 M2906.8,181.266 C2908.97,181.266 2911.08,182.719 2912.67,185.359 C2914.45,188.469 2915.05,192.219 2915.05,201.266 C2915.05,210.563 2914.58,214.922 2913.27,217.828 C2911.75,221.063 2909.38,223.047 2906.86,223.047 C2904.63,223.047 2902.58,221.594 2900.99,218.953 C2899.14,215.844 2898.61,211.75 2898.61,200.938 C2898.61,193.219 2899.08,189.391 2900.39,186.484 C2901.91,183.188 2904.28,181.266 2906.8,181.266"/>
<path class="Fingering" d="M2992.63,166.036 C2990.38,168.739 2984.32,170.786 2978.24,170.911 L2978.24,173.755 L2984.06,173.755 C2987.88,173.817 2988.27,174.208 2988.15,177.911 L2988.15,204.364 C2988.15,207.739 2988.15,207.864 2987.74,208.458 C2987.23,209.13 2985.96,209.38 2982.27,209.38 L2977.98,209.38 L2977.98,212.489 L3004.12,212.489 L3004.12,209.38 L3000.49,209.38 C2996.79,209.38 2995.54,209.13 2995.01,208.458 C2994.54,207.864 2994.54,207.802 2994.54,204.364 L2994.54,177.114 C2994.54,173.427 2994.68,170.317 2995.01,166.036 L2992.63,166.036 M3041.4,198.239 L3038.49,198.239 L3037.84,201.599 C3036.98,205.895 3036.45,206.286 3032.35,206.286 L3017.57,206.286 C3022.13,201.536 3023.65,200.145 3027.87,196.849 C3033.87,192.224 3036.45,189.927 3037.96,187.942 C3040.07,185.036 3041.13,182.13 3041.13,178.895 C3041.13,171.38 3034.93,166.036 3026.29,166.036 C3017.9,166.036 3011.51,171.38 3011.51,178.442 C3011.51,182.599 3013.62,185.427 3016.71,185.427 C3019.17,185.427 3020.81,183.786 3020.81,181.411 C3020.81,179.755 3019.88,178.239 3018.49,177.645 C3016.06,176.661 3015.93,176.52 3015.93,175.661 C3015.93,174.677 3016.59,173.161 3017.51,172.036 C3019.17,169.989 3021.87,168.864 3024.96,168.864 C3030.45,168.864 3033.68,172.239 3033.68,177.77 C3033.68,182.661 3031.37,187.083 3025.88,192.895 C3021.01,198.036 3017.98,201.27 3016.85,202.52 C3014.48,205.302 3013.29,206.817 3010.38,210.645 L3010.38,212.489 L3040.15,212.489 L3041.4,198.239 "/>
<path class="Fingering" d="M3173.04,159.335 C3170.79,162.039 3164.73,164.085 3158.65,164.21 L3158.65,167.054 L3164.46,167.054 C3168.29,167.117 3168.68,167.507 3168.55,171.21 L3168.55,197.664 C3168.55,201.039 3168.55,201.164 3168.15,201.757 C3167.63,202.429 3166.37,202.679 3162.68,202.679 L3158.38,202.679 L3158.38,205.789 L3184.52,205.789 L3184.52,202.679 L3180.9,202.679 C3177.19,202.679 3175.94,202.429 3175.41,201.757 C3174.94,201.164 3174.94,201.101 3174.94,197.664 L3174.94,170.414 C3174.94,166.726 3175.09,163.617 3175.41,159.335 L3173.04,159.335 "/>
<path class="Fingering" d="M3297.53,144.934 C3288.28,144.934 3281.54,154.965 3281.54,168.824 C3281.54,182.418 3288.09,192.371 3297,192.371 C3306.23,192.371 3312.7,182.746 3312.7,169.012 C3312.7,162.012 3311.25,156.215 3308.48,151.653 C3305.9,147.496 3301.69,144.934 3297.53,144.934 M3297.06,147.762 C3299.23,147.762 3301.34,149.215 3302.94,151.856 C3304.72,154.965 3305.31,158.715 3305.31,167.762 C3305.31,177.059 3304.84,181.418 3303.53,184.324 C3302.01,187.559 3299.64,189.543 3297.12,189.543 C3294.89,189.543 3292.84,188.09 3291.25,185.449 C3289.4,182.34 3288.87,178.246 3288.87,167.434 C3288.87,159.715 3289.34,155.887 3290.65,152.981 C3292.17,149.684 3294.54,147.762 3297.06,147.762"/>
<path class="Fingering" d="M3461.76,132.532 C3459.51,135.235 3453.45,137.282 3447.37,137.407 L3447.37,140.251 L3453.18,140.251 C3457.01,140.314 3457.4,140.704 3457.28,144.407 L3457.28,170.86 C3457.28,174.235 3457.28,174.36 3456.87,174.954 C3456.35,175.626 3455.09,175.876 3451.4,175.876 L3447.1,175.876 L3447.1,178.985 L3473.24,178.985 L3473.24,175.876 L3469.62,175.876 C3465.92,175.876 3464.67,175.626 3464.13,174.954 C3463.67,174.36 3463.67,174.298 3463.67,170.86 L3463.67,143.61 C3463.67,139.923 3463.81,136.814 3464.13,132.532 L3461.76,132.532 "/>
<path class="Fingering" d="M3587.25,111.681 C3585,114.384 3578.94,116.431 3572.86,116.556 L3572.86,119.4 L3578.67,119.4 C3582.5,119.462 3582.89,119.853 3582.77,123.556 L3582.77,150.009 C3582.77,153.384 3582.77,153.509 3582.36,154.103 C3581.84,154.775 3580.58,155.025 3576.89,155.025 L3572.59,155.025 L3572.59,158.134 L3598.73,158.134 L3598.73,155.025 L3595.11,155.025 C3591.41,155.025 3590.16,154.775 3589.63,154.103 C3589.16,153.509 3589.16,153.447 3589.16,150.009 L3589.16,122.759 C3589.16,119.072 3589.3,115.962 3589.63,111.681 L3587.25,111.681 "/>
<path class="Fingering" d="M3754.38,71.4129 C3745.13,71.4129 3738.4,81.4441 3738.4,95.3035 C3738.4,108.897 3744.94,118.85 3753.85,118.85 C3763.09,118.85 3769.55,109.225 3769.55,95.491 C3769.55,88.491 3768.1,82.6941 3765.34,78.1316 C3762.76,73.9754 3758.54,71.4129 3754.38,71.4129 M3753.91,74.241 C3756.09,74.241 3758.19,75.6941 3759.79,78.3348 C3761.57,81.4441 3762.16,85.1941 3762.16,94.241 C3762.16,103.538 3761.69,107.897 3760.38,110.804 C3758.87,114.038 3756.49,116.022 3753.98,116.022 C3751.74,116.022 3749.69,114.569 3748.1,111.929 C3746.26,108.819 3745.73,104.725 3745.73,93.9129 C3745.73,86.1941 3746.19,82.366 3747.51,79.4598 C3749.02,76.1629 3751.4,74.241 3753.91,74.241"/>
<path class="NoteDot" transform="matrix(1.02,0,0,1.02,2321.17,362.697)" d="M0,0 C0,2.76563 2.23438,5 5,5 C7.76563,5 10,2.76563 10,0 C10,-2.76563 7.76563,-5 5,-5 C2.23438,-5 0,-2.76563 0,0"/>
<path class="Page" d="M96.0938,96.241 L95.4844,98.991 C94.9844,101.194 94.6563,101.897 94.2188,102.178 C93.6719,102.569 93.5625,102.569 90.0938,102.616 L79.4844,102.616 C81.4063,100.96 82.8438,99.9285 84.9844,98.491 C92.7344,93.491 94.3281,92.2722 95.9219,90.241 C97.7969,87.7722 98.8906,84.8504 98.8906,82.2722 C98.8906,76.3816 93.125,71.9285 85.375,71.9285 C77.8906,71.9285 72.1094,76.7722 72.1094,83.0379 C72.1094,86.8816 74.2656,89.366 77.5625,89.366 C80.4219,89.366 82.2344,87.5535 82.2344,84.6941 C82.2344,82.3191 81.1875,80.9441 78.6563,79.741 C78.0469,79.4597 77.7813,79.1316 77.7813,78.6941 C77.7813,76.9285 80.75,75.0691 83.5,75.0691 C87.3438,75.0691 89.5469,77.4285 89.5469,81.5066 C89.5469,86.0691 87.7813,89.3035 81.9531,95.5222 C75.7969,102.069 73.6563,104.538 70.9063,108.507 L70.9063,111.085 C72.3281,110.928 72.9375,110.866 73.7656,110.866 L94.4375,110.866 C95.4844,110.866 96.1406,110.928 97.7969,111.085 L99.0625,96.241 L96.0938,96.241 "/>
</svg>
