<?xml version="1.0" encoding="UTF-8" standalone="no"?>
<svg width="4208.47px" height="2409.45px" viewBox="0 0 4208.47 2409.45"
 xmlns="http://www.w3.org/2000/svg" xmlns:xlink="http://www.w3.org/1999/xlink" version="1.2" baseProfile="tiny">
<title>PETE</title>
<desc>Generated by MuseScore 3.6.2</desc>
<polyline class="StaffLines" fill="none" stroke="#000000" stroke-width="5.55" stroke-linejoin="bevel" points="70.866,471.529 4137.61,471.529"/>
<polyline class="StaffLines" fill="none" stroke="#000000" stroke-width="5.55" stroke-linejoin="bevel" points="70.866,521.944 4137.61,521.944"/>
<polyline class="StaffLines" fill="none" stroke="#000000" stroke-width="5.55" stroke-linejoin="bevel" points="70.866,572.359 4137.61,572.359"/>
<polyline class="StaffLines" fill="none" stroke="#000000" stroke-width="5.55" stroke-linejoin="bevel" points="70.866,622.774 4137.61,622.774"/>
<polyline class="StaffLines" fill="none" stroke="#000000" stroke-width="5.55" stroke-linejoin="bevel" points="70.866,673.189 4137.61,673.189"/>
<polyline class="StaffLines" fill="none" stroke="#000000" stroke-width="5.55" stroke-linejoin="bevel" points="70.866,1238.83 4137.61,1238.83"/>
<polyline class="StaffLines" fill="none" stroke="#000000" stroke-width="5.55" stroke-linejoin="bevel" points="70.866,1289.24 4137.61,1289.24"/>
<polyline class="StaffLines" fill="none" stroke="#000000" stroke-width="5.55" stroke-linejoin="bevel" points="70.866,1339.66 4137.61,1339.66"/>
<polyline class="StaffLines" fill="none" stroke="#000000" stroke-width="5.55" stroke-linejoin="bevel" points="70.866,1390.07 4137.61,1390.07"/>
<polyline class="StaffLines" fill="none" stroke="#000000" stroke-width="5.55" stroke-linejoin="bevel" points="70.866,1440.49 4137.61,1440.49"/>
<polyline class="StaffLines" fill="none" stroke="#000000" stroke-width="5.55" stroke-linejoin="bevel" points="70.866,2006.13 4137.61,2006.13"/>
<polyline class="StaffLines" fill="none" stroke="#000000" stroke-width="5.55" stroke-linejoin="bevel" points="70.866,2056.54 4137.61,2056.54"/>
<polyline class="StaffLines" fill="none" stroke="#000000" stroke-width="5.55" stroke-linejoin="bevel" points="70.866,2106.96 4137.61,2106.96"/>
<polyline class="StaffLines" fill="none" stroke="#000000" stroke-width="5.55" stroke-linejoin="bevel" points="70.866,2157.37 4137.61,2157.37"/>
<polyline class="StaffLines" fill="none" stroke="#000000" stroke-width="5.55" stroke-linejoin="bevel" points="70.866,2207.79 4137.61,2207.79"/>
<path class="MeasureNumber" d="M77.0222,1116.94 C75.3191,1117.98 74.8191,1118.64 74.8191,1119.75 C74.8191,1120.78 75.7097,1121.56 76.8035,1121.56 C78.241,1121.56 79.0535,1120.51 79.2254,1118.48 C80.9285,1117.11 82.741,1116.5 84.9441,1116.5 C89.0066,1116.5 91.2722,1119.03 91.2722,1123.59 C91.2722,1130.73 86.6472,1136.56 80.991,1136.56 C77.741,1136.56 75.1004,1135.03 75.1004,1133.22 C75.1004,1132.89 75.1629,1132.78 75.4285,1132.61 C76.866,1131.95 76.866,1131.95 77.241,1131.67 C78.1316,1131.01 78.616,1130.03 78.616,1128.87 C78.616,1127.11 77.241,1125.79 75.3191,1125.79 C72.8972,1125.79 71.0847,1127.83 71.0847,1130.47 C71.0847,1135.31 75.2722,1138.83 81.1472,1138.83 C90.0535,1138.83 97.2566,1131.73 97.2566,1122.94 C97.2566,1117.37 93.0222,1113.47 87.0379,1113.47 C84.6629,1113.47 82.741,1113.97 80.1004,1115.28 L83.1785,1104.89 C86.1004,1105.5 88.4129,1105.78 90.3816,1105.78 C94.0222,1105.78 97.2566,1104.62 99.0847,1102.69 C100.007,1101.59 100.569,1100.65 100.569,1099.94 C100.569,1099.61 100.397,1099.28 100.178,1099.28 C100.007,1099.28 99.8972,1099.34 99.5691,1099.5 C97.7566,1100.39 95.4441,1100.87 93.3035,1100.87 C90.0066,1100.87 86.1004,1100.33 82.0222,1099.28 L77.0222,1116.94 "/>
<path class="MeasureNumber" d="M92.4754,1886.48 C91.5379,1890.83 90.5535,1893.47 88.9597,1896.55 C86.2566,1901.56 83.3972,1903.81 79.5535,1903.81 C77.9597,1903.81 76.9129,1903.16 76.9129,1902.16 C76.9129,1901.78 77.0222,1901.61 77.4597,1900.95 C78.0222,1900.23 78.2879,1899.58 78.2879,1898.81 C78.2879,1897 76.866,1895.63 74.991,1895.63 C72.7879,1895.63 71.2566,1897.27 71.2566,1899.69 C71.2566,1903.42 74.7722,1906.13 79.6629,1906.13 C84.0691,1906.13 88.1316,1904.2 91.491,1900.34 C96.2722,1895.02 99.4129,1887.05 99.4129,1880.28 C99.4129,1871.7 95.2879,1866.58 88.4597,1866.58 C84.3972,1866.58 80.6004,1868.39 78.0691,1871.53 C75.6004,1874.56 74.1629,1878.41 74.1629,1881.98 C74.1629,1887.2 78.1785,1891.16 83.5066,1891.16 C87.1472,1891.16 89.9441,1889.67 92.4754,1886.48 M88.4129,1868.89 C91.9285,1868.89 94.1785,1871.7 94.1785,1876.09 C94.1785,1882.92 90.4441,1887.92 85.3816,1887.92 C81.9129,1887.92 79.991,1885.55 79.991,1881.44 C79.991,1878.19 80.7722,1875.27 82.2566,1872.8 C83.8972,1870.16 85.8816,1868.89 88.4129,1868.89"/>
<path class="TieSegment" stroke="#000000" stroke-width="3.53" stroke-linecap="round" stroke-linejoin="round" fill-rule="evenodd" d="M2280.01,509.34 C2360.57,441.056 2602.25,441.056 2682.81,509.34 C2602.25,455.172 2360.57,455.172 2280.01,509.34"/>
<path class="TieSegment" stroke="#000000" stroke-width="3.53" stroke-linecap="round" stroke-linejoin="round" fill-rule="evenodd" d="M2373.45,1402.68 C2459.5,1461.02 2717.67,1461.02 2803.73,1402.68 C2717.67,1475.14 2459.5,1475.14 2373.45,1402.68"/>
<path class="TieSegment" stroke="#000000" stroke-width="3.53" stroke-linecap="round" stroke-linejoin="round" fill-rule="evenodd" d="M2276.3,1993.52 C2356.86,1925.24 2598.55,1925.24 2679.11,1993.52 C2598.55,1939.36 2356.86,1939.36 2276.3,1993.52"/>
<polyline class="BarLine" stroke="#000000" stroke-width="9.07" stroke-linejoin="bevel" points="1617.37,468.756 1617.37,675.962"/>
<polyline class="BarLine" stroke="#000000" stroke-width="9.07" stroke-linejoin="bevel" points="1645.1,468.756 1645.1,675.962"/>
<polyline class="BarLine" stroke="#000000" stroke-width="9.07" stroke-linejoin="bevel" points="2486.45,468.756 2486.45,675.962"/>
<polyline class="BarLine" stroke="#000000" stroke-width="9.07" stroke-linejoin="bevel" points="3604.85,468.756 3604.85,675.962"/>
<path class="BarLine" transform="matrix(2.0166,0,0,2.0166,4047.96,547.151)" d="M10.4063,0 C10.4063,-2.90625 8.09375,-5.29688 5.20313,-5.29688 C2.29688,-5.29688 0,-2.90625 0,0 C0,2.90625 2.29688,5.29688 5.20313,5.29688 C8.09375,5.29688 10.4063,2.90625 10.4063,0"/>
<path class="BarLine" transform="matrix(2.0166,0,0,2.0166,4047.96,597.566)" d="M10.4063,0 C10.4063,-2.90625 8.09375,-5.29688 5.20313,-5.29688 C2.29688,-5.29688 0,-2.90625 0,0 C0,2.90625 2.29688,5.29688 5.20313,5.29688 C8.09375,5.29688 10.4063,2.90625 10.4063,0"/>
<polyline class="BarLine" stroke="#000000" stroke-width="9.07" stroke-linejoin="bevel" points="4093.74,468.756 4093.74,675.962"/>
<polyline class="BarLine" stroke="#000000" stroke-width="27.73" stroke-linejoin="bevel" points="4129.03,468.756 4129.03,675.962"/>
<polyline class="BarLine" stroke="#000000" stroke-width="27.73" stroke-linejoin="bevel" points="486.002,1236.06 486.002,1443.26"/>
<polyline class="BarLine" stroke="#000000" stroke-width="9.07" stroke-linejoin="bevel" points="521.293,1236.06 521.293,1443.26"/>
<path class="BarLine" transform="matrix(2.0166,0,0,2.0166,546.091,1314.45)" d="M10.4063,0 C10.4063,-2.90625 8.09375,-5.29688 5.20313,-5.29688 C2.29688,-5.29688 0,-2.90625 0,0 C0,2.90625 2.29688,5.29688 5.20313,5.29688 C8.09375,5.29688 10.4063,2.90625 10.4063,0"/>
<path class="BarLine" transform="matrix(2.0166,0,0,2.0166,546.091,1364.87)" d="M10.4063,0 C10.4063,-2.90625 8.09375,-5.29688 5.20313,-5.29688 C2.29688,-5.29688 0,-2.90625 0,0 C0,2.90625 2.29688,5.29688 5.20313,5.29688 C8.09375,5.29688 10.4063,2.90625 10.4063,0"/>
<polyline class="BarLine" stroke="#000000" stroke-width="9.07" stroke-linejoin="bevel" points="1664.08,1236.06 1664.08,1443.26"/>
<polyline class="BarLine" stroke="#000000" stroke-width="9.07" stroke-linejoin="bevel" points="2638.17,1236.06 2638.17,1443.26"/>
<polyline class="BarLine" stroke="#000000" stroke-width="9.07" stroke-linejoin="bevel" points="3680.9,1236.06 3680.9,1443.26"/>
<polyline class="BarLine" stroke="#000000" stroke-width="9.07" stroke-linejoin="bevel" points="4133.07,1236.06 4133.07,1443.26"/>
<polyline class="BarLine" stroke="#000000" stroke-width="9.07" stroke-linejoin="bevel" points="1581.47,2003.35 1581.47,2210.56"/>
<polyline class="BarLine" stroke="#000000" stroke-width="9.07" stroke-linejoin="bevel" points="2482.75,2003.35 2482.75,2210.56"/>
<polyline class="BarLine" stroke="#000000" stroke-width="9.07" stroke-linejoin="bevel" points="3580.88,2003.35 3580.88,2210.56"/>
<polyline class="BarLine" stroke="#000000" stroke-width="9.07" stroke-linejoin="bevel" points="4088.45,2003.35 4088.45,2210.56"/>
<polyline class="BarLine" stroke="#000000" stroke-width="27.73" stroke-linejoin="bevel" points="4123.74,2003.35 4123.74,2210.56"/>
<path class="Accidental" transform="matrix(2.0166,0,0,2.0166,3294.01,622.774)" d="M23.2969,-10.5938 C23.9063,-10.7031 24.4063,-11.4063 24.4063,-12 L24.4063,-17.9063 C24.4063,-18.7031 23.7969,-19.2969 23,-19.2969 L22.7969,-19.2969 L19.5,-18.5938 L19.5,-33.5 L16.7031,-33.5 L16.7031,-18 L7.79688,-16.2031 L7.79688,-30.2969 L5,-30.2969 L5,-15.5938 L1.09375,-14.7969 C0.5,-14.7031 0,-14 0,-13.4063 L0,-13.2031 L0,-7.40625 L0,-7.59375 C0,-6.79688 0.59375,-6.20313 1.40625,-6.20313 L1.70313,-6.20313 L5,-6.90625 L5,9.59375 L1.09375,10.4063 C0.5,10.5 0,11.2031 0,11.7969 L0,17.5938 C0,18.4063 0.59375,19 1.40625,19 L1.70313,19 L5,18.2969 L5,33.2031 L7.79688,33.2031 L7.79688,17.7031 L16.7031,15.9063 L16.7031,30 L19.5,30 L19.5,15.2969 L23.2969,14.5938 C23.9063,14.5 24.4063,13.7969 24.4063,13.2031 L24.4063,7.29688 C24.4063,6.5 23.7969,5.90625 23,5.90625 L22.7969,5.90625 L19.5,6.59375 L19.5,-9.90625 L23.2969,-10.5938 M7.79688,9.09375 L7.79688,-7.5 L16.7031,-9.29688 L16.7031,7.20313 L7.79688,9.09375 "/>
<path class="Accidental" transform="matrix(2.0166,0,0,2.0166,1012.24,2157.37)" d="M23.2969,-10.5938 C23.9063,-10.7031 24.4063,-11.4063 24.4063,-12 L24.4063,-17.9063 C24.4063,-18.7031 23.7969,-19.2969 23,-19.2969 L22.7969,-19.2969 L19.5,-18.5938 L19.5,-33.5 L16.7031,-33.5 L16.7031,-18 L7.79688,-16.2031 L7.79688,-30.2969 L5,-30.2969 L5,-15.5938 L1.09375,-14.7969 C0.5,-14.7031 0,-14 0,-13.4063 L0,-13.2031 L0,-7.40625 L0,-7.59375 C0,-6.79688 0.59375,-6.20313 1.40625,-6.20313 L1.70313,-6.20313 L5,-6.90625 L5,9.59375 L1.09375,10.4063 C0.5,10.5 0,11.2031 0,11.7969 L0,17.5938 C0,18.4063 0.59375,19 1.40625,19 L1.70313,19 L5,18.2969 L5,33.2031 L7.79688,33.2031 L7.79688,17.7031 L16.7031,15.9063 L16.7031,30 L19.5,30 L19.5,15.2969 L23.2969,14.5938 C23.9063,14.5 24.4063,13.7969 24.4063,13.2031 L24.4063,7.29688 C24.4063,6.5 23.7969,5.90625 23,5.90625 L22.7969,5.90625 L19.5,6.59375 L19.5,-9.90625 L23.2969,-10.5938 M7.79688,9.09375 L7.79688,-7.5 L16.7031,-9.29688 L16.7031,7.20313 L7.79688,9.09375 "/>
<polyline class="Stem" stroke="#000000" stroke-width="5.55" stroke-linejoin="bevel" points="960.609,553.927 960.609,723.604"/>
<polyline class="Stem" stroke="#000000" stroke-width="5.55" stroke-linejoin="bevel" points="1165.86,553.927 1165.86,711"/>
<polyline class="Stem" stroke="#000000" stroke-width="5.55" stroke-linejoin="bevel" points="1371.11,579.135 1371.11,723.604"/>
<polyline class="Stem" stroke="#000000" stroke-width="5.55" stroke-linejoin="bevel" points="1821.3,579.135 1821.3,748.811"/>
<polyline class="Stem" stroke="#000000" stroke-width="5.55" stroke-linejoin="bevel" points="2060.23,591.113 2060.23,433.717"/>
<polyline class="Stem" stroke="#000000" stroke-width="5.55" stroke-linejoin="bevel" points="2240.19,553.927 2240.19,723.604"/>
<polyline class="Stem" stroke="#000000" stroke-width="5.55" stroke-linejoin="bevel" points="2662.65,553.927 2662.65,711"/>
<polyline class="Stem" stroke="#000000" stroke-width="5.55" stroke-linejoin="bevel" points="2884.69,579.135 2884.69,723.604"/>
<polyline class="Stem" stroke="#000000" stroke-width="5.55" stroke-linejoin="bevel" points="3166.71,591.113 3166.71,458.925"/>
<polyline class="Stem" stroke="#000000" stroke-width="5.55" stroke-linejoin="bevel" points="3418.57,616.321 3418.57,471.529"/>
<polyline class="Stem" stroke="#000000" stroke-width="5.55" stroke-linejoin="bevel" points="3841.03,591.113 3841.03,433.717"/>
<polyline class="Stem" stroke="#000000" stroke-width="5.55" stroke-linejoin="bevel" points="1016.99,1358.41 1016.99,1201.02"/>
<polyline class="Stem" stroke="#000000" stroke-width="5.55" stroke-linejoin="bevel" points="1254.23,1358.41 1254.23,1226.22"/>
<polyline class="Stem" stroke="#000000" stroke-width="5.55" stroke-linejoin="bevel" points="1477.8,1383.62 1477.8,1238.83"/>
<polyline class="Stem" stroke="#000000" stroke-width="5.55" stroke-linejoin="bevel" points="1900.26,1383.62 1900.26,1219.92"/>
<polyline class="Stem" stroke="#000000" stroke-width="5.55" stroke-linejoin="bevel" points="2137.49,1408.83 2137.49,1238.83"/>
<polyline class="Stem" stroke="#000000" stroke-width="5.55" stroke-linejoin="bevel" points="2393.61,1358.41 2393.61,1201.02"/>
<polyline class="Stem" stroke="#000000" stroke-width="5.55" stroke-linejoin="bevel" points="2814.37,1371.64 2814.37,1503.51"/>
<polyline class="Stem" stroke="#000000" stroke-width="5.55" stroke-linejoin="bevel" points="3021.12,1371.64 3021.12,1503.51"/>
<polyline class="Stem" stroke="#000000" stroke-width="5.55" stroke-linejoin="bevel" points="3287.86,1383.62 3287.86,1238.83"/>
<polyline class="Stem" stroke="#000000" stroke-width="5.55" stroke-linejoin="bevel" points="3494.61,1408.83 3494.61,1251.43"/>
<polyline class="Stem" stroke="#000000" stroke-width="5.55" stroke-linejoin="bevel" points="3917.08,1434.04 3917.08,1264.04"/>
<polyline class="Stem" stroke="#000000" stroke-width="5.55" stroke-linejoin="bevel" points="826.664,2201.33 826.664,2031.33"/>
<polyline class="Stem" stroke="#000000" stroke-width="5.55" stroke-linejoin="bevel" points="1136.79,2150.92 1136.79,2006.13"/>
<polyline class="Stem" stroke="#000000" stroke-width="5.55" stroke-linejoin="bevel" points="1388.24,2100.5 1388.24,1955.71"/>
<polyline class="Stem" stroke="#000000" stroke-width="5.55" stroke-linejoin="bevel" points="1757.67,2038.11 1757.67,2207.79"/>
<polyline class="Stem" stroke="#000000" stroke-width="5.55" stroke-linejoin="bevel" points="2052.32,2113.73 2052.32,2258.2"/>
<polyline class="Stem" stroke="#000000" stroke-width="5.55" stroke-linejoin="bevel" points="2236.48,2038.11 2236.48,2207.79"/>
<polyline class="Stem" stroke="#000000" stroke-width="5.55" stroke-linejoin="bevel" points="2658.95,2038.11 2658.95,2195.18"/>
<polyline class="Stem" stroke="#000000" stroke-width="5.55" stroke-linejoin="bevel" points="2884.17,2063.32 2884.17,2207.79"/>
<polyline class="Stem" stroke="#000000" stroke-width="5.55" stroke-linejoin="bevel" points="3109.39,2088.53 3109.39,2245.6"/>
<polyline class="Stem" stroke="#000000" stroke-width="5.55" stroke-linejoin="bevel" points="3334.62,2113.73 3334.62,2258.2"/>
<polyline class="Stem" stroke="#000000" stroke-width="5.55" stroke-linejoin="bevel" points="3817.06,2125.71 3817.06,1968.32"/>
<path class="Note" transform="matrix(2.0166,0,0,2.0166,957.836,547.151)" d="M31.5,-8.09375 C29.7031,-11.4063 25.9063,-13.2031 21.2969,-13.2031 C17.9063,-13.2031 14.2031,-12.2031 10.5938,-10.2969 C4,-6.79688 0,-0.90625 0,4.20313 C0,5.59375 0.296875,7 1,8.29688 C2.79688,11.5938 6.59375,13.2969 11.2031,13.2969 C14.5938,13.2969 18.2969,12.4063 21.9063,10.5 C28.5,7 32.5,1.09375 32.5,-4 C32.5,-5.40625 32.2031,-6.79688 31.5,-8.09375"/>
<path class="Note" transform="matrix(2.0166,0,0,2.0166,1163.09,547.151)" d="M31.5,-8.09375 C29.7031,-11.4063 25.9063,-13.2031 21.2969,-13.2031 C17.9063,-13.2031 14.2031,-12.2031 10.5938,-10.2969 C4,-6.79688 0,-0.90625 0,4.20313 C0,5.59375 0.296875,7 1,8.29688 C2.79688,11.5938 6.59375,13.2969 11.2031,13.2969 C14.5938,13.2969 18.2969,12.4063 21.9063,10.5 C28.5,7 32.5,1.09375 32.5,-4 C32.5,-5.40625 32.2031,-6.79688 31.5,-8.09375"/>
<path class="Note" transform="matrix(2.0166,0,0,2.0166,1368.33,572.359)" d="M31.5,-8.09375 C29.7031,-11.4063 25.9063,-13.2031 21.2969,-13.2031 C17.9063,-13.2031 14.2031,-12.2031 10.5938,-10.2969 C4,-6.79688 0,-0.90625 0,4.20313 C0,5.59375 0.296875,7 1,8.29688 C2.79688,11.5938 6.59375,13.2969 11.2031,13.2969 C14.5938,13.2969 18.2969,12.4063 21.9063,10.5 C28.5,7 32.5,1.09375 32.5,-4 C32.5,-5.40625 32.2031,-6.79688 31.5,-8.09375"/>
<path class="Note" transform="matrix(2.0166,0,0,2.0166,1818.53,572.359)" d="M31.5,-8.09375 C29.7031,-11.4063 25.9063,-13.2031 21.2969,-13.2031 C17.9063,-13.2031 14.2031,-12.2031 10.5938,-10.2969 C4,-6.79688 0,-0.90625 0,4.20313 C0,5.59375 0.296875,7 1,8.29688 C2.79688,11.5938 6.59375,13.2969 11.2031,13.2969 C14.5938,13.2969 18.2969,12.4063 21.9063,10.5 C28.5,7 32.5,1.09375 32.5,-4 C32.5,-5.40625 32.2031,-6.79688 31.5,-8.09375"/>
<path class="Note" transform="matrix(2.0166,0,0,2.0166,1997.48,597.566)" d="M31.5,-8.09375 C29.7031,-11.4063 25.9063,-13.2031 21.2969,-13.2031 C17.9063,-13.2031 14.2031,-12.2031 10.5938,-10.2969 C4,-6.79688 0,-0.90625 0,4.20313 C0,5.59375 0.296875,7 1,8.29688 C2.79688,11.5938 6.59375,13.2969 11.2031,13.2969 C14.5938,13.2969 18.2969,12.4063 21.9063,10.5 C28.5,7 32.5,1.09375 32.5,-4 C32.5,-5.40625 32.2031,-6.79688 31.5,-8.09375"/>
<path class="Note" transform="matrix(2.0166,0,0,2.0166,2237.42,547.151)" d="M31.5,-8.09375 C29.7031,-11.4063 25.9063,-13.2031 21.2969,-13.2031 C17.9063,-13.2031 14.2031,-12.2031 10.5938,-10.2969 C4,-6.79688 0,-0.90625 0,4.20313 C0,5.59375 0.296875,7 1,8.29688 C2.79688,11.5938 6.59375,13.2969 11.2031,13.2969 C14.5938,13.2969 18.2969,12.4063 21.9063,10.5 C28.5,7 32.5,1.09375 32.5,-4 C32.5,-5.40625 32.2031,-6.79688 31.5,-8.09375"/>
<path class="Note" transform="matrix(2.0166,0,0,2.0166,2659.88,547.151)" d="M31.5,-8.09375 C29.7031,-11.4063 25.9063,-13.2031 21.2969,-13.2031 C17.9063,-13.2031 14.2031,-12.2031 10.5938,-10.2969 C4,-6.79688 0,-0.90625 0,4.20313 C0,5.59375 0.296875,7 1,8.29688 C2.79688,11.5938 6.59375,13.2969 11.2031,13.2969 C14.5938,13.2969 18.2969,12.4063 21.9063,10.5 C28.5,7 32.5,1.09375 32.5,-4 C32.5,-5.40625 32.2031,-6.79688 31.5,-8.09375"/>
<path class="Note" transform="matrix(2.0166,0,0,2.0166,2881.92,572.359)" d="M31.5,-8.09375 C29.7031,-11.4063 25.9063,-13.2031 21.2969,-13.2031 C17.9063,-13.2031 14.2031,-12.2031 10.5938,-10.2969 C4,-6.79688 0,-0.90625 0,4.20313 C0,5.59375 0.296875,7 1,8.29688 C2.79688,11.5938 6.59375,13.2969 11.2031,13.2969 C14.5938,13.2969 18.2969,12.4063 21.9063,10.5 C28.5,7 32.5,1.09375 32.5,-4 C32.5,-5.40625 32.2031,-6.79688 31.5,-8.09375"/>
<path class="Note" transform="matrix(2.0166,0,0,2.0166,3103.96,597.566)" d="M31.5,-8.09375 C29.7031,-11.4063 25.9063,-13.2031 21.2969,-13.2031 C17.9063,-13.2031 14.2031,-12.2031 10.5938,-10.2969 C4,-6.79688 0,-0.90625 0,4.20313 C0,5.59375 0.296875,7 1,8.29688 C2.79688,11.5938 6.59375,13.2969 11.2031,13.2969 C14.5938,13.2969 18.2969,12.4063 21.9063,10.5 C28.5,7 32.5,1.09375 32.5,-4 C32.5,-5.40625 32.2031,-6.79688 31.5,-8.09375"/>
<path class="Note" transform="matrix(2.0166,0,0,2.0166,3355.82,622.774)" d="M31.5,-8.09375 C29.7031,-11.4063 25.9063,-13.2031 21.2969,-13.2031 C17.9063,-13.2031 14.2031,-12.2031 10.5938,-10.2969 C4,-6.79688 0,-0.90625 0,4.20313 C0,5.59375 0.296875,7 1,8.29688 C2.79688,11.5938 6.59375,13.2969 11.2031,13.2969 C14.5938,13.2969 18.2969,12.4063 21.9063,10.5 C28.5,7 32.5,1.09375 32.5,-4 C32.5,-5.40625 32.2031,-6.79688 31.5,-8.09375"/>
<path class="Note" transform="matrix(2.0166,0,0,2.0166,3778.28,597.566)" d="M31.5,-8.14063 C29.7031,-11.4375 25.9063,-13.2344 21.2969,-13.2344 C17.9063,-13.2344 14.2031,-12.2344 10.5938,-10.3438 C4,-6.84375 0,-0.9375 0,4.15625 C0,5.5625 0.296875,6.96875 1,8.26563 C2.79688,11.5781 6.59375,13.2813 11.2031,13.2813 C14.5938,13.2813 18.2969,12.375 21.9063,10.4844 C28.5,6.96875 32.5,1.0625 32.5,-4.04688 C32.5,-5.4375 32.2031,-6.84375 31.5,-8.14063 M27.2031,-1.34375 C25.5,0.359375 22.0938,2.45313 18.5,4.46875 C14.9063,6.46875 11.2969,7.96875 8.90625,8.46875 C8.40625,8.57813 7.90625,8.67188 7.40625,8.67188 C5.79688,8.67188 4.59375,8.07813 3.90625,6.76563 C3.59375,6.26563 3.40625,5.67188 3.40625,5.0625 C3.40625,3.96875 4.09375,2.65625 5.20313,1.5625 C6.90625,-0.140625 10.2031,-2.23438 13.7969,-4.23438 C17.4063,-6.23438 21,-7.73438 23.4063,-8.23438 C23.9063,-8.34375 24.4063,-8.4375 24.9063,-8.4375 C26.5,-8.4375 27.7969,-7.84375 28.5,-6.54688 C28.7969,-6.04688 28.9063,-5.4375 28.9063,-4.84375 C28.9063,-3.73438 28.2969,-2.54688 27.2031,-1.34375"/>
<path class="Note" transform="matrix(2.0166,0,0,2.0166,954.242,1364.87)" d="M31.5,-8.09375 C29.7031,-11.4063 25.9063,-13.2031 21.2969,-13.2031 C17.9063,-13.2031 14.2031,-12.2031 10.5938,-10.2969 C4,-6.79688 0,-0.90625 0,4.20313 C0,5.59375 0.296875,7 1,8.29688 C2.79688,11.5938 6.59375,13.2969 11.2031,13.2969 C14.5938,13.2969 18.2969,12.4063 21.9063,10.5 C28.5,7 32.5,1.09375 32.5,-4 C32.5,-5.40625 32.2031,-6.79688 31.5,-8.09375"/>
<path class="Note" transform="matrix(2.0166,0,0,2.0166,1191.48,1364.87)" d="M31.5,-8.09375 C29.7031,-11.4063 25.9063,-13.2031 21.2969,-13.2031 C17.9063,-13.2031 14.2031,-12.2031 10.5938,-10.2969 C4,-6.79688 0,-0.90625 0,4.20313 C0,5.59375 0.296875,7 1,8.29688 C2.79688,11.5938 6.59375,13.2969 11.2031,13.2969 C14.5938,13.2969 18.2969,12.4063 21.9063,10.5 C28.5,7 32.5,1.09375 32.5,-4 C32.5,-5.40625 32.2031,-6.79688 31.5,-8.09375"/>
<path class="Note" transform="matrix(2.0166,0,0,2.0166,1415.05,1390.07)" d="M31.5,-8.09375 C29.7031,-11.4063 25.9063,-13.2031 21.2969,-13.2031 C17.9063,-13.2031 14.2031,-12.2031 10.5938,-10.2969 C4,-6.79688 0,-0.90625 0,4.20313 C0,5.59375 0.296875,7 1,8.29688 C2.79688,11.5938 6.59375,13.2969 11.2031,13.2969 C14.5938,13.2969 18.2969,12.4063 21.9063,10.5 C28.5,7 32.5,1.09375 32.5,-4 C32.5,-5.40625 32.2031,-6.79688 31.5,-8.09375"/>
<path class="Note" transform="matrix(2.0166,0,0,2.0166,1837.51,1390.07)" d="M31.5,-8.09375 C29.7031,-11.4063 25.9063,-13.2031 21.2969,-13.2031 C17.9063,-13.2031 14.2031,-12.2031 10.5938,-10.2969 C4,-6.79688 0,-0.90625 0,4.20313 C0,5.59375 0.296875,7 1,8.29688 C2.79688,11.5938 6.59375,13.2969 11.2031,13.2969 C14.5938,13.2969 18.2969,12.4063 21.9063,10.5 C28.5,7 32.5,1.09375 32.5,-4 C32.5,-5.40625 32.2031,-6.79688 31.5,-8.09375"/>
<path class="Note" transform="matrix(2.0166,0,0,2.0166,2074.74,1415.28)" d="M31.5,-8.09375 C29.7031,-11.4063 25.9063,-13.2031 21.2969,-13.2031 C17.9063,-13.2031 14.2031,-12.2031 10.5938,-10.2969 C4,-6.79688 0,-0.90625 0,4.20313 C0,5.59375 0.296875,7 1,8.29688 C2.79688,11.5938 6.59375,13.2969 11.2031,13.2969 C14.5938,13.2969 18.2969,12.4063 21.9063,10.5 C28.5,7 32.5,1.09375 32.5,-4 C32.5,-5.40625 32.2031,-6.79688 31.5,-8.09375"/>
<path class="Note" transform="matrix(2.0166,0,0,2.0166,2330.86,1364.87)" d="M31.5,-8.09375 C29.7031,-11.4063 25.9063,-13.2031 21.2969,-13.2031 C17.9063,-13.2031 14.2031,-12.2031 10.5938,-10.2969 C4,-6.79688 0,-0.90625 0,4.20313 C0,5.59375 0.296875,7 1,8.29688 C2.79688,11.5938 6.59375,13.2969 11.2031,13.2969 C14.5938,13.2969 18.2969,12.4063 21.9063,10.5 C28.5,7 32.5,1.09375 32.5,-4 C32.5,-5.40625 32.2031,-6.79688 31.5,-8.09375"/>
<path class="Note" transform="matrix(2.0166,0,0,2.0166,2811.59,1364.87)" d="M31.5,-8.09375 C29.7031,-11.4063 25.9063,-13.2031 21.2969,-13.2031 C17.9063,-13.2031 14.2031,-12.2031 10.5938,-10.2969 C4,-6.79688 0,-0.90625 0,4.20313 C0,5.59375 0.296875,7 1,8.29688 C2.79688,11.5938 6.59375,13.2969 11.2031,13.2969 C14.5938,13.2969 18.2969,12.4063 21.9063,10.5 C28.5,7 32.5,1.09375 32.5,-4 C32.5,-5.40625 32.2031,-6.79688 31.5,-8.09375"/>
<path class="Note" transform="matrix(2.0166,0,0,2.0166,3018.35,1364.87)" d="M31.5,-8.09375 C29.7031,-11.4063 25.9063,-13.2031 21.2969,-13.2031 C17.9063,-13.2031 14.2031,-12.2031 10.5938,-10.2969 C4,-6.79688 0,-0.90625 0,4.20313 C0,5.59375 0.296875,7 1,8.29688 C2.79688,11.5938 6.59375,13.2969 11.2031,13.2969 C14.5938,13.2969 18.2969,12.4063 21.9063,10.5 C28.5,7 32.5,1.09375 32.5,-4 C32.5,-5.40625 32.2031,-6.79688 31.5,-8.09375"/>
<path class="Note" transform="matrix(2.0166,0,0,2.0166,3225.11,1390.07)" d="M31.5,-8.09375 C29.7031,-11.4063 25.9063,-13.2031 21.2969,-13.2031 C17.9063,-13.2031 14.2031,-12.2031 10.5938,-10.2969 C4,-6.79688 0,-0.90625 0,4.20313 C0,5.59375 0.296875,7 1,8.29688 C2.79688,11.5938 6.59375,13.2969 11.2031,13.2969 C14.5938,13.2969 18.2969,12.4063 21.9063,10.5 C28.5,7 32.5,1.09375 32.5,-4 C32.5,-5.40625 32.2031,-6.79688 31.5,-8.09375"/>
<path class="Note" transform="matrix(2.0166,0,0,2.0166,3431.86,1415.28)" d="M31.5,-8.09375 C29.7031,-11.4063 25.9063,-13.2031 21.2969,-13.2031 C17.9063,-13.2031 14.2031,-12.2031 10.5938,-10.2969 C4,-6.79688 0,-0.90625 0,4.20313 C0,5.59375 0.296875,7 1,8.29688 C2.79688,11.5938 6.59375,13.2969 11.2031,13.2969 C14.5938,13.2969 18.2969,12.4063 21.9063,10.5 C28.5,7 32.5,1.09375 32.5,-4 C32.5,-5.40625 32.2031,-6.79688 31.5,-8.09375"/>
<path class="Note" transform="matrix(2.0166,0,0,2.0166,3854.33,1440.49)" d="M31.5,-8.14063 C29.7031,-11.4375 25.9063,-13.2344 21.2969,-13.2344 C17.9063,-13.2344 14.2031,-12.2344 10.5938,-10.3438 C4,-6.84375 0,-0.9375 0,4.15625 C0,5.5625 0.296875,6.96875 1,8.26563 C2.79688,11.5781 6.59375,13.2813 11.2031,13.2813 C14.5938,13.2813 18.2969,12.375 21.9063,10.4844 C28.5,6.96875 32.5,1.0625 32.5,-4.04688 C32.5,-5.4375 32.2031,-6.84375 31.5,-8.14063 M27.2031,-1.34375 C25.5,0.359375 22.0938,2.45313 18.5,4.46875 C14.9063,6.46875 11.2969,7.96875 8.90625,8.46875 C8.40625,8.57813 7.90625,8.67188 7.40625,8.67188 C5.79688,8.67188 4.59375,8.07813 3.90625,6.76563 C3.59375,6.26563 3.40625,5.67188 3.40625,5.0625 C3.40625,3.96875 4.09375,2.65625 5.20313,1.5625 C6.90625,-0.140625 10.2031,-2.23438 13.7969,-4.23438 C17.4063,-6.23438 21,-7.73438 23.4063,-8.23438 C23.9063,-8.34375 24.4063,-8.4375 24.9063,-8.4375 C26.5,-8.4375 27.7969,-7.84375 28.5,-6.54688 C28.7969,-6.04688 28.9063,-5.4375 28.9063,-4.84375 C28.9063,-3.73438 28.2969,-2.54688 27.2031,-1.34375"/>
<path class="Note" transform="matrix(2.0166,0,0,2.0166,763.913,2207.79)" d="M31.5,-8.09375 C29.7031,-11.4063 25.9063,-13.2031 21.2969,-13.2031 C17.9063,-13.2031 14.2031,-12.2031 10.5938,-10.2969 C4,-6.79688 0,-0.90625 0,4.20313 C0,5.59375 0.296875,7 1,8.29688 C2.79688,11.5938 6.59375,13.2969 11.2031,13.2969 C14.5938,13.2969 18.2969,12.4063 21.9063,10.5 C28.5,7 32.5,1.09375 32.5,-4 C32.5,-5.40625 32.2031,-6.79688 31.5,-8.09375"/>
<path class="Note" transform="matrix(2.0166,0,0,2.0166,1074.04,2157.37)" d="M31.5,-8.09375 C29.7031,-11.4063 25.9063,-13.2031 21.2969,-13.2031 C17.9063,-13.2031 14.2031,-12.2031 10.5938,-10.2969 C4,-6.79688 0,-0.90625 0,4.20313 C0,5.59375 0.296875,7 1,8.29688 C2.79688,11.5938 6.59375,13.2969 11.2031,13.2969 C14.5938,13.2969 18.2969,12.4063 21.9063,10.5 C28.5,7 32.5,1.09375 32.5,-4 C32.5,-5.40625 32.2031,-6.79688 31.5,-8.09375"/>
<path class="Note" transform="matrix(2.0166,0,0,2.0166,1325.49,2106.96)" d="M31.5,-8.09375 C29.7031,-11.4063 25.9063,-13.2031 21.2969,-13.2031 C17.9063,-13.2031 14.2031,-12.2031 10.5938,-10.2969 C4,-6.79688 0,-0.90625 0,4.20313 C0,5.59375 0.296875,7 1,8.29688 C2.79688,11.5938 6.59375,13.2969 11.2031,13.2969 C14.5938,13.2969 18.2969,12.4063 21.9063,10.5 C28.5,7 32.5,1.09375 32.5,-4 C32.5,-5.40625 32.2031,-6.79688 31.5,-8.09375"/>
<path class="Note" transform="matrix(2.0166,0,0,2.0166,1754.89,2031.33)" d="M31.5,-8.09375 C29.7031,-11.4063 25.9063,-13.2031 21.2969,-13.2031 C17.9063,-13.2031 14.2031,-12.2031 10.5938,-10.2969 C4,-6.79688 0,-0.90625 0,4.20313 C0,5.59375 0.296875,7 1,8.29688 C2.79688,11.5938 6.59375,13.2969 11.2031,13.2969 C14.5938,13.2969 18.2969,12.4063 21.9063,10.5 C28.5,7 32.5,1.09375 32.5,-4 C32.5,-5.40625 32.2031,-6.79688 31.5,-8.09375"/>
<path class="Note" transform="matrix(2.0166,0,0,2.0166,2049.55,2106.96)" d="M31.5,-8.09375 C29.7031,-11.4063 25.9063,-13.2031 21.2969,-13.2031 C17.9063,-13.2031 14.2031,-12.2031 10.5938,-10.2969 C4,-6.79688 0,-0.90625 0,4.20313 C0,5.59375 0.296875,7 1,8.29688 C2.79688,11.5938 6.59375,13.2969 11.2031,13.2969 C14.5938,13.2969 18.2969,12.4063 21.9063,10.5 C28.5,7 32.5,1.09375 32.5,-4 C32.5,-5.40625 32.2031,-6.79688 31.5,-8.09375"/>
<path class="Note" transform="matrix(2.0166,0,0,2.0166,2233.71,2031.33)" d="M31.5,-8.09375 C29.7031,-11.4063 25.9063,-13.2031 21.2969,-13.2031 C17.9063,-13.2031 14.2031,-12.2031 10.5938,-10.2969 C4,-6.79688 0,-0.90625 0,4.20313 C0,5.59375 0.296875,7 1,8.29688 C2.79688,11.5938 6.59375,13.2969 11.2031,13.2969 C14.5938,13.2969 18.2969,12.4063 21.9063,10.5 C28.5,7 32.5,1.09375 32.5,-4 C32.5,-5.40625 32.2031,-6.79688 31.5,-8.09375"/>
<path class="Note" transform="matrix(2.0166,0,0,2.0166,2656.17,2031.33)" d="M31.5,-8.09375 C29.7031,-11.4063 25.9063,-13.2031 21.2969,-13.2031 C17.9063,-13.2031 14.2031,-12.2031 10.5938,-10.2969 C4,-6.79688 0,-0.90625 0,4.20313 C0,5.59375 0.296875,7 1,8.29688 C2.79688,11.5938 6.59375,13.2969 11.2031,13.2969 C14.5938,13.2969 18.2969,12.4063 21.9063,10.5 C28.5,7 32.5,1.09375 32.5,-4 C32.5,-5.40625 32.2031,-6.79688 31.5,-8.09375"/>
<path class="Note" transform="matrix(2.0166,0,0,2.0166,2881.4,2056.54)" d="M31.5,-8.09375 C29.7031,-11.4063 25.9063,-13.2031 21.2969,-13.2031 C17.9063,-13.2031 14.2031,-12.2031 10.5938,-10.2969 C4,-6.79688 0,-0.90625 0,4.20313 C0,5.59375 0.296875,7 1,8.29688 C2.79688,11.5938 6.59375,13.2969 11.2031,13.2969 C14.5938,13.2969 18.2969,12.4063 21.9063,10.5 C28.5,7 32.5,1.09375 32.5,-4 C32.5,-5.40625 32.2031,-6.79688 31.5,-8.09375"/>
<path class="Note" transform="matrix(2.0166,0,0,2.0166,3106.62,2081.75)" d="M31.5,-8.09375 C29.7031,-11.4063 25.9063,-13.2031 21.2969,-13.2031 C17.9063,-13.2031 14.2031,-12.2031 10.5938,-10.2969 C4,-6.79688 0,-0.90625 0,4.20313 C0,5.59375 0.296875,7 1,8.29688 C2.79688,11.5938 6.59375,13.2969 11.2031,13.2969 C14.5938,13.2969 18.2969,12.4063 21.9063,10.5 C28.5,7 32.5,1.09375 32.5,-4 C32.5,-5.40625 32.2031,-6.79688 31.5,-8.09375"/>
<path class="Note" transform="matrix(2.0166,0,0,2.0166,3331.84,2106.96)" d="M31.5,-8.09375 C29.7031,-11.4063 25.9063,-13.2031 21.2969,-13.2031 C17.9063,-13.2031 14.2031,-12.2031 10.5938,-10.2969 C4,-6.79688 0,-0.90625 0,4.20313 C0,5.59375 0.296875,7 1,8.29688 C2.79688,11.5938 6.59375,13.2969 11.2031,13.2969 C14.5938,13.2969 18.2969,12.4063 21.9063,10.5 C28.5,7 32.5,1.09375 32.5,-4 C32.5,-5.40625 32.2031,-6.79688 31.5,-8.09375"/>
<path class="Note" transform="matrix(2.0166,0,0,2.0166,3754.31,2132.16)" d="M31.5,-8.14063 C29.7031,-11.4375 25.9063,-13.2344 21.2969,-13.2344 C17.9063,-13.2344 14.2031,-12.2344 10.5938,-10.3438 C4,-6.84375 0,-0.9375 0,4.15625 C0,5.5625 0.296875,6.96875 1,8.26563 C2.79688,11.5781 6.59375,13.2813 11.2031,13.2813 C14.5938,13.2813 18.2969,12.375 21.9063,10.4844 C28.5,6.96875 32.5,1.0625 32.5,-4.04688 C32.5,-5.4375 32.2031,-6.84375 31.5,-8.14063 M27.2031,-1.34375 C25.5,0.359375 22.0938,2.45313 18.5,4.46875 C14.9063,6.46875 11.2969,7.96875 8.90625,8.46875 C8.40625,8.57813 7.90625,8.67188 7.40625,8.67188 C5.79688,8.67188 4.59375,8.07813 3.90625,6.76563 C3.59375,6.26563 3.40625,5.67188 3.40625,5.0625 C3.40625,3.96875 4.09375,2.65625 5.20313,1.5625 C6.90625,-0.140625 10.2031,-2.23438 13.7969,-4.23438 C17.4063,-6.23438 21,-7.73438 23.4063,-8.23438 C23.9063,-8.34375 24.4063,-8.4375 24.9063,-8.4375 C26.5,-8.4375 27.7969,-7.84375 28.5,-6.54688 C28.7969,-6.04688 28.9063,-5.4375 28.9063,-4.84375 C28.9063,-3.73438 28.2969,-2.54688 27.2031,-1.34375"/>
<path class="Clef" transform="matrix(2.0166,0,0,2.0166,214.549,622.774)" d="M63.3594,-5.92188 C62.125,-11.3438 59.4844,-15.1719 58.7031,-16.2031 C55.5156,-20.4844 51.5,-23.3281 46.8125,-24.6875 C43.7031,-25.5625 40.7031,-25.6875 38.2813,-25.5 C37.2344,-31.5156 36.2344,-37.3906 35.3281,-42.8438 C40.7813,-49.0156 44.4063,-54.8125 46.6875,-59.1094 C50.1563,-65.6875 51.2969,-70.2656 51.3594,-70.4688 C53.0781,-75.6875 53.4375,-83.3906 52.3281,-91.5938 C51.3281,-99.1406 49.2344,-105.859 46.875,-109.109 C45.8594,-110.531 44.7969,-111.266 43.7656,-111.266 C42.5469,-111.266 40.0313,-110.031 37.1406,-107.25 C34.8438,-105.063 31.5781,-101.172 29.0156,-95.1563 C26.0156,-88.0938 25.7969,-78.6094 26.1563,-71.8906 C26.5313,-64.6094 27.6406,-58.9219 27.6563,-58.875 C27.6719,-58.7813 27.9375,-57.2813 28.375,-54.7188 C28.1563,-54.4844 27.9063,-54.2656 27.6563,-54.0156 C26.625,-53.0156 25.4375,-51.8906 24.0469,-50.5 C23.1875,-49.6406 22.2344,-48.7344 21.2344,-47.7656 C12.7969,-39.625 0,-27.2969 0,-8.14063 C0,-3.4375 0.90625,0.984375 2.6875,5 C4.26563,8.59375 6.5625,11.875 9.5,14.75 C17.2344,22.3125 27.8281,25.5156 34.875,25.3594 C37.8281,25.2813 40.4688,25.0469 42.8594,24.5938 C44.6875,34.2031 45.8281,41.2344 45.8594,46.5781 C45.9063,53.0938 44.25,57.0781 40.3594,59.8438 C37.9219,61.5781 35.1094,62.5313 32.0156,62.6719 C29.4219,62.7969 27.1563,62.3281 25.7344,61.9219 L25.7188,61.9219 C25.7188,61.9219 25.4375,61.8281 25.4219,61.6406 C25.4063,61.4531 25.7656,61.4063 25.7656,61.4063 L25.7969,61.4063 C27.7188,60.9688 31.2813,59.7344 33.6406,56.4375 C35.4375,53.9063 36.3125,49.2813 34.4688,45.3438 C33.3594,42.9531 30.8594,40 25.2344,39.5469 C22.7344,39.3438 20.4688,39.8594 18.4688,41.0625 C16.6563,42.1406 15.1563,43.7813 14.1094,45.7813 C11.6563,50.4844 12.1094,56.2188 15.2344,60.0625 C18.2031,63.6875 22.8125,66 28.25,66.5781 C29.1094,66.6719 29.9531,66.7031 30.7969,66.7031 C35.2344,66.7031 39.625,65.5 43.2031,63.2969 C46.8594,60.7188 48.9844,56.7344 49.6563,51.1094 C50.2188,46.4688 49.8281,40.5469 48.4375,32.4688 C48.0781,30.375 47.5313,27.3438 46.875,23.5938 C52.625,21.6719 56.7813,18.0938 60.5469,12.2344 C63.8438,6.5 64.7813,0.390625 63.3594,-5.92188 M29.1406,20.2969 C24.5,19.0781 20.0625,16.5781 16.3125,13.0625 C15,11.8438 13.125,9.67188 11.6563,6.28125 C10.2969,3.10938 9.625,-0.328125 9.6875,-3.90625 C9.75,-8.60938 11.0625,-13.4375 13.5625,-18.2188 C16.4844,-23.7969 21.0469,-29.3281 27.1094,-34.6563 C28.5625,-35.9375 29.9375,-37.2188 31.2188,-38.5 C31.9844,-34.2344 32.8125,-29.5469 33.6875,-24.6719 C29.8438,-23.4063 25.0938,-20.25 21.9844,-14.5938 C18.4375,-8.03125 18.5781,-2.5 19.3125,0.984375 C20.25,5.4375 22.7813,9.20313 26.2344,11.2969 C27.1719,11.8594 31.2969,13.9844 33.1406,13.4063 C33.5156,13.2969 33.7813,13.0625 33.9219,12.7344 C34.4375,11.5625 33.4063,10.9219 31.8594,9.96875 C31.25,9.59375 30.5781,9.17188 29.8594,8.64063 C26.5313,6.15625 25.0781,1.70313 26.1563,-2.6875 C26.7344,-5.07813 28.0156,-7.25 29.8594,-8.95313 C31.5156,-10.5 33.5625,-11.5938 35.9375,-12.2344 C37.9844,-0.984375 40.0469,10.1719 41.6875,18.5313 C41.8125,19.2188 41.9531,19.8906 42.0781,20.5625 C37.7031,21.5 33.3594,21.4063 29.1406,20.2969 M40.4688,-12.9063 C50.8125,-13.375 55.0781,-5.9375 55.9688,-1.10938 C56.4375,1.4375 56.4375,5.875 54.8906,10.0938 C53.7188,13.2656 51.2656,17.3438 46.125,19.4063 C46.0625,18.9844 45.9844,18.5469 45.9063,18.125 C44.3594,9.34375 42.4219,-1.65625 40.4688,-12.9063 M33.1406,-83.8594 C34.9219,-89.5938 37.6563,-92.8438 39.6563,-94.5781 C41.4063,-96.0938 43.0469,-96.8125 43.9688,-96.8125 C44.1094,-96.8125 44.2344,-96.7813 44.3281,-96.75 C44.7969,-96.6094 45.3281,-96.0469 45.7969,-95.1719 C48.1094,-90.8906 47.3594,-84.1719 46.0156,-79.7344 C44.3906,-74.3281 41.4688,-68.7188 32.6719,-59.1094 C32.5,-60.2188 32.3438,-61.2656 32.1875,-62.25 C30.9375,-70.5313 31.2656,-77.8125 33.1406,-83.8594"/>
<path class="Clef" transform="matrix(2.0166,0,0,2.0166,214.549,1390.07)" d="M63.3594,-5.92188 C62.125,-11.3438 59.4844,-15.1719 58.7031,-16.2031 C55.5156,-20.4844 51.5,-23.3281 46.8125,-24.6875 C43.7031,-25.5625 40.7031,-25.6875 38.2813,-25.5 C37.2344,-31.5156 36.2344,-37.3906 35.3281,-42.8438 C40.7813,-49.0156 44.4063,-54.8125 46.6875,-59.1094 C50.1563,-65.6875 51.2969,-70.2656 51.3594,-70.4688 C53.0781,-75.6875 53.4375,-83.3906 52.3281,-91.5938 C51.3281,-99.1406 49.2344,-105.859 46.875,-109.109 C45.8594,-110.531 44.7969,-111.266 43.7656,-111.266 C42.5469,-111.266 40.0313,-110.031 37.1406,-107.25 C34.8438,-105.063 31.5781,-101.172 29.0156,-95.1563 C26.0156,-88.0938 25.7969,-78.6094 26.1563,-71.8906 C26.5313,-64.6094 27.6406,-58.9219 27.6563,-58.875 C27.6719,-58.7813 27.9375,-57.2813 28.375,-54.7188 C28.1563,-54.4844 27.9063,-54.2656 27.6563,-54.0156 C26.625,-53.0156 25.4375,-51.8906 24.0469,-50.5 C23.1875,-49.6406 22.2344,-48.7344 21.2344,-47.7656 C12.7969,-39.625 0,-27.2969 0,-8.14063 C0,-3.4375 0.90625,0.984375 2.6875,5 C4.26563,8.59375 6.5625,11.875 9.5,14.75 C17.2344,22.3125 27.8281,25.5156 34.875,25.3594 C37.8281,25.2813 40.4688,25.0469 42.8594,24.5938 C44.6875,34.2031 45.8281,41.2344 45.8594,46.5781 C45.9063,53.0938 44.25,57.0781 40.3594,59.8438 C37.9219,61.5781 35.1094,62.5313 32.0156,62.6719 C29.4219,62.7969 27.1563,62.3281 25.7344,61.9219 L25.7188,61.9219 C25.7188,61.9219 25.4375,61.8281 25.4219,61.6406 C25.4063,61.4531 25.7656,61.4063 25.7656,61.4063 L25.7969,61.4063 C27.7188,60.9688 31.2813,59.7344 33.6406,56.4375 C35.4375,53.9063 36.3125,49.2813 34.4688,45.3438 C33.3594,42.9531 30.8594,40 25.2344,39.5469 C22.7344,39.3438 20.4688,39.8594 18.4688,41.0625 C16.6563,42.1406 15.1563,43.7813 14.1094,45.7813 C11.6563,50.4844 12.1094,56.2188 15.2344,60.0625 C18.2031,63.6875 22.8125,66 28.25,66.5781 C29.1094,66.6719 29.9531,66.7031 30.7969,66.7031 C35.2344,66.7031 39.625,65.5 43.2031,63.2969 C46.8594,60.7188 48.9844,56.7344 49.6563,51.1094 C50.2188,46.4688 49.8281,40.5469 48.4375,32.4688 C48.0781,30.375 47.5313,27.3438 46.875,23.5938 C52.625,21.6719 56.7813,18.0938 60.5469,12.2344 C63.8438,6.5 64.7813,0.390625 63.3594,-5.92188 M29.1406,20.2969 C24.5,19.0781 20.0625,16.5781 16.3125,13.0625 C15,11.8438 13.125,9.67188 11.6563,6.28125 C10.2969,3.10938 9.625,-0.328125 9.6875,-3.90625 C9.75,-8.60938 11.0625,-13.4375 13.5625,-18.2188 C16.4844,-23.7969 21.0469,-29.3281 27.1094,-34.6563 C28.5625,-35.9375 29.9375,-37.2188 31.2188,-38.5 C31.9844,-34.2344 32.8125,-29.5469 33.6875,-24.6719 C29.8438,-23.4063 25.0938,-20.25 21.9844,-14.5938 C18.4375,-8.03125 18.5781,-2.5 19.3125,0.984375 C20.25,5.4375 22.7813,9.20313 26.2344,11.2969 C27.1719,11.8594 31.2969,13.9844 33.1406,13.4063 C33.5156,13.2969 33.7813,13.0625 33.9219,12.7344 C34.4375,11.5625 33.4063,10.9219 31.8594,9.96875 C31.25,9.59375 30.5781,9.17188 29.8594,8.64063 C26.5313,6.15625 25.0781,1.70313 26.1563,-2.6875 C26.7344,-5.07813 28.0156,-7.25 29.8594,-8.95313 C31.5156,-10.5 33.5625,-11.5938 35.9375,-12.2344 C37.9844,-0.984375 40.0469,10.1719 41.6875,18.5313 C41.8125,19.2188 41.9531,19.8906 42.0781,20.5625 C37.7031,21.5 33.3594,21.4063 29.1406,20.2969 M40.4688,-12.9063 C50.8125,-13.375 55.0781,-5.9375 55.9688,-1.10938 C56.4375,1.4375 56.4375,5.875 54.8906,10.0938 C53.7188,13.2656 51.2656,17.3438 46.125,19.4063 C46.0625,18.9844 45.9844,18.5469 45.9063,18.125 C44.3594,9.34375 42.4219,-1.65625 40.4688,-12.9063 M33.1406,-83.8594 C34.9219,-89.5938 37.6563,-92.8438 39.6563,-94.5781 C41.4063,-96.0938 43.0469,-96.8125 43.9688,-96.8125 C44.1094,-96.8125 44.2344,-96.7813 44.3281,-96.75 C44.7969,-96.6094 45.3281,-96.0469 45.7969,-95.1719 C48.1094,-90.8906 47.3594,-84.1719 46.0156,-79.7344 C44.3906,-74.3281 41.4688,-68.7188 32.6719,-59.1094 C32.5,-60.2188 32.3438,-61.2656 32.1875,-62.25 C30.9375,-70.5313 31.2656,-77.8125 33.1406,-83.8594"/>
<path class="Clef" transform="matrix(2.0166,0,0,2.0166,214.549,2157.37)" d="M63.3594,-5.92188 C62.125,-11.3438 59.4844,-15.1719 58.7031,-16.2031 C55.5156,-20.4844 51.5,-23.3281 46.8125,-24.6875 C43.7031,-25.5625 40.7031,-25.6875 38.2813,-25.5 C37.2344,-31.5156 36.2344,-37.3906 35.3281,-42.8438 C40.7813,-49.0156 44.4063,-54.8125 46.6875,-59.1094 C50.1563,-65.6875 51.2969,-70.2656 51.3594,-70.4688 C53.0781,-75.6875 53.4375,-83.3906 52.3281,-91.5938 C51.3281,-99.1406 49.2344,-105.859 46.875,-109.109 C45.8594,-110.531 44.7969,-111.266 43.7656,-111.266 C42.5469,-111.266 40.0313,-110.031 37.1406,-107.25 C34.8438,-105.063 31.5781,-101.172 29.0156,-95.1563 C26.0156,-88.0938 25.7969,-78.6094 26.1563,-71.8906 C26.5313,-64.6094 27.6406,-58.9219 27.6563,-58.875 C27.6719,-58.7813 27.9375,-57.2813 28.375,-54.7188 C28.1563,-54.4844 27.9063,-54.2656 27.6563,-54.0156 C26.625,-53.0156 25.4375,-51.8906 24.0469,-50.5 C23.1875,-49.6406 22.2344,-48.7344 21.2344,-47.7656 C12.7969,-39.625 0,-27.2969 0,-8.14063 C0,-3.4375 0.90625,0.984375 2.6875,5 C4.26563,8.59375 6.5625,11.875 9.5,14.75 C17.2344,22.3125 27.8281,25.5156 34.875,25.3594 C37.8281,25.2813 40.4688,25.0469 42.8594,24.5938 C44.6875,34.2031 45.8281,41.2344 45.8594,46.5781 C45.9063,53.0938 44.25,57.0781 40.3594,59.8438 C37.9219,61.5781 35.1094,62.5313 32.0156,62.6719 C29.4219,62.7969 27.1563,62.3281 25.7344,61.9219 L25.7188,61.9219 C25.7188,61.9219 25.4375,61.8281 25.4219,61.6406 C25.4063,61.4531 25.7656,61.4063 25.7656,61.4063 L25.7969,61.4063 C27.7188,60.9688 31.2813,59.7344 33.6406,56.4375 C35.4375,53.9063 36.3125,49.2813 34.4688,45.3438 C33.3594,42.9531 30.8594,40 25.2344,39.5469 C22.7344,39.3438 20.4688,39.8594 18.4688,41.0625 C16.6563,42.1406 15.1563,43.7813 14.1094,45.7813 C11.6563,50.4844 12.1094,56.2188 15.2344,60.0625 C18.2031,63.6875 22.8125,66 28.25,66.5781 C29.1094,66.6719 29.9531,66.7031 30.7969,66.7031 C35.2344,66.7031 39.625,65.5 43.2031,63.2969 C46.8594,60.7188 48.9844,56.7344 49.6563,51.1094 C50.2188,46.4688 49.8281,40.5469 48.4375,32.4688 C48.0781,30.375 47.5313,27.3438 46.875,23.5938 C52.625,21.6719 56.7813,18.0938 60.5469,12.2344 C63.8438,6.5 64.7813,0.390625 63.3594,-5.92188 M29.1406,20.2969 C24.5,19.0781 20.0625,16.5781 16.3125,13.0625 C15,11.8438 13.125,9.67188 11.6563,6.28125 C10.2969,3.10938 9.625,-0.328125 9.6875,-3.90625 C9.75,-8.60938 11.0625,-13.4375 13.5625,-18.2188 C16.4844,-23.7969 21.0469,-29.3281 27.1094,-34.6563 C28.5625,-35.9375 29.9375,-37.2188 31.2188,-38.5 C31.9844,-34.2344 32.8125,-29.5469 33.6875,-24.6719 C29.8438,-23.4063 25.0938,-20.25 21.9844,-14.5938 C18.4375,-8.03125 18.5781,-2.5 19.3125,0.984375 C20.25,5.4375 22.7813,9.20313 26.2344,11.2969 C27.1719,11.8594 31.2969,13.9844 33.1406,13.4063 C33.5156,13.2969 33.7813,13.0625 33.9219,12.7344 C34.4375,11.5625 33.4063,10.9219 31.8594,9.96875 C31.25,9.59375 30.5781,9.17188 29.8594,8.64063 C26.5313,6.15625 25.0781,1.70313 26.1563,-2.6875 C26.7344,-5.07813 28.0156,-7.25 29.8594,-8.95313 C31.5156,-10.5 33.5625,-11.5938 35.9375,-12.2344 C37.9844,-0.984375 40.0469,10.1719 41.6875,18.5313 C41.8125,19.2188 41.9531,19.8906 42.0781,20.5625 C37.7031,21.5 33.3594,21.4063 29.1406,20.2969 M40.4688,-12.9063 C50.8125,-13.375 55.0781,-5.9375 55.9688,-1.10938 C56.4375,1.4375 56.4375,5.875 54.8906,10.0938 C53.7188,13.2656 51.2656,17.3438 46.125,19.4063 C46.0625,18.9844 45.9844,18.5469 45.9063,18.125 C44.3594,9.34375 42.4219,-1.65625 40.4688,-12.9063 M33.1406,-83.8594 C34.9219,-89.5938 37.6563,-92.8438 39.6563,-94.5781 C41.4063,-96.0938 43.0469,-96.8125 43.9688,-96.8125 C44.1094,-96.8125 44.2344,-96.7813 44.3281,-96.75 C44.7969,-96.6094 45.3281,-96.0469 45.7969,-95.1719 C48.1094,-90.8906 47.3594,-84.1719 46.0156,-79.7344 C44.3906,-74.3281 41.4688,-68.7188 32.6719,-59.1094 C32.5,-60.2188 32.3438,-61.2656 32.1875,-62.25 C30.9375,-70.5313 31.2656,-77.8125 33.1406,-83.8594"/>
<path class="TimeSig" transform="matrix(2.0166,0,0,2.0166,501.221,522.952)" d="M34.2031,3.90625 C33.4063,6.09375 31.4063,13.2969 26.5,13.2969 C20,13.2969 18.5938,9.29688 13.2031,9.29688 C12.4063,9.29688 11.5938,9.40625 10.5938,9.59375 C10.5938,9.59375 13.0938,5.79688 23.7031,2.5 C34.2969,-0.796875 37,-6 37,-12 C37,-16.2031 35.1094,-24.5 20,-24.5 C4.90625,-24.5 2.09375,-15.4063 2.09375,-10.7969 C2.09375,-6.70313 5.5,-3.40625 9.59375,-3.40625 C13.7031,-3.40625 17,-6.70313 17,-10.7969 C17,-13.5938 15,-16.7031 12.4063,-17.7031 C12.0938,-17.7969 11.7031,-18.2969 11.7031,-18.7969 C11.7031,-19.4063 12.2031,-20.0938 14,-20.5938 C14.5,-20.7969 15.9063,-21.0938 17.4063,-21.0938 C18.7969,-21.0938 20.4063,-20.7969 21.5938,-20 C23.5,-18.7969 24.2031,-17 24.2031,-12.5 C24.2031,-0.796875 10.2969,1.70313 4.5,10.4063 C4.5,10.4063 1.5,14.5938 1.5,19.2969 C1.5,24 3.90625,24.2969 5.09375,24.2969 C6.70313,24.2969 8.40625,23 8.40625,21.2031 C8.40625,20.7969 8.29688,20.4063 8.09375,19.9063 C7.5,18.5 7.29688,17.4063 7.29688,16.5938 C7.29688,16.2969 7.29688,16 7.40625,15.7031 C7.5,15.0938 8.29688,14.0938 10.7031,14.0938 C13.5938,14.0938 14.7031,17.5 16.5,20.0938 C18.2969,22.7031 21.0938,24.2969 24.2969,24.2969 C27.5,24.2969 31.7969,22 33.6094,18.2969 C35.4063,14.5938 37.7031,7.09375 37.7031,4.40625 C37.7031,3.09375 36.9063,2.5 36,2.5 C35.2969,2.5 34.6094,2.90625 34.2031,3.90625"/>
<path class="TimeSig" transform="matrix(2.0166,0,0,2.0166,494.573,622.506)" d="M3.59375,12.625 L20.7656,12.625 L20.7656,20.0781 L12.5469,20.0781 C11.7656,20.0781 11.125,20.7031 11.125,21.4844 L11.125,23.3906 C11.125,24.1719 11.7656,24.7969 12.5469,24.7969 L42.7969,24.7969 C43.5781,24.7969 44.2031,24.1719 44.2031,23.3906 L44.2031,21.4844 C44.2031,20.7031 43.5781,20.0781 42.7969,20.0781 L33.8594,20.0781 L33.8594,12.625 L42.7969,12.625 C43.5781,12.625 44.2031,12 44.2031,11.2188 L44.2031,9.3125 C44.2031,8.53125 43.5781,7.90625 42.7969,7.90625 L33.8594,7.90625 L33.8594,-8.0625 C33.8594,-8.59375 33.5469,-9.07813 33.0781,-9.3125 L31.8594,-9.92188 C31.3281,-10.1719 30.7031,-10.0781 30.2656,-9.6875 L21.2188,-1.375 C20.9375,-1.09375 20.7656,-0.734375 20.7656,-0.328125 L20.7656,7.90625 L9.25,7.90625 C9.25,7.90625 20.375,-4.125 32.2188,-19.8906 C33.0781,-21.0469 32.5781,-22.0938 32.3906,-22.2813 L30.2188,-24.4844 C29.9531,-24.75 29.5938,-24.9063 29.2188,-24.9063 C28.625,-24.9063 15.0625,-24.875 14.3438,-24.9063 C13.625,-24.9219 13.0938,-24.2969 13.0156,-23.6875 C13.0156,-23.6875 12.4844,-16.3281 9.875,-8.1875 C7.28125,-0.078125 4.34375,4.90625 1.6875,8.53125 C1.6875,8.53125 1.14063,9.51563 1.5,10.2656 C1.84375,11.0156 2.48438,12.0938 2.48438,12.0938 C2.48438,12.0938 2.73438,12.625 3.59375,12.625"/>
<path class="Rest" transform="matrix(2.0166,0,0,2.0166,752.587,572.359)" d="M26.7344,-20.2656 C25.9844,-20.5469 25.3125,-20.2031 24.9844,-19.5938 C24.6563,-18.9844 21.4688,-13.0625 17.0469,-9.79688 C15.6563,-8.78125 14.0625,-8.14063 12.5,-7.8125 C13.625,-9.0625 14.2969,-10.7344 14.2969,-12.5469 C14.2969,-16.5 11.0938,-19.7031 7.15625,-19.7031 C3.20313,-19.7031 0,-16.5 0,-12.5469 C0,-9.54688 1.875,-6.95313 4.51563,-5.90625 C6.04688,-5.1875 7.95313,-4.73438 10,-4.73438 C12.8438,-4.73438 15.9531,-5.5625 18.6719,-7.5625 C19.9375,-8.48438 21.125,-9.6875 22.2031,-10.9375 L10.8125,24.6875 L13.4531,25.5469 L27.5313,-18.5469 C27.7656,-19.2813 27.4688,-19.9688 26.7344,-20.2656"/>
<path class="Rest" transform="matrix(2.0166,0,0,2.0166,730.673,1339.66)" d="M26.7344,-20.2656 C25.9844,-20.5469 25.3125,-20.2031 24.9844,-19.5938 C24.6563,-18.9844 21.4688,-13.0625 17.0469,-9.79688 C15.6563,-8.78125 14.0625,-8.14063 12.5,-7.8125 C13.625,-9.0625 14.2969,-10.7344 14.2969,-12.5469 C14.2969,-16.5 11.0938,-19.7031 7.15625,-19.7031 C3.20313,-19.7031 0,-16.5 0,-12.5469 C0,-9.54688 1.875,-6.95313 4.51563,-5.90625 C6.04688,-5.1875 7.95313,-4.73438 10,-4.73438 C12.8438,-4.73438 15.9531,-5.5625 18.6719,-7.5625 C19.9375,-8.48438 21.125,-9.6875 22.2031,-10.9375 L10.8125,24.6875 L13.4531,25.5469 L27.5313,-18.5469 C27.7656,-19.2813 27.4688,-19.9688 26.7344,-20.2656"/>
<path class="Rest" transform="matrix(2.0166,0,0,2.0166,512.47,2106.96)" d="M26.7344,-20.2656 C25.9844,-20.5469 25.3125,-20.2031 24.9844,-19.5938 C24.6563,-18.9844 21.4688,-13.0625 17.0469,-9.79688 C15.6563,-8.78125 14.0625,-8.14063 12.5,-7.8125 C13.625,-9.0625 14.2969,-10.7344 14.2969,-12.5469 C14.2969,-16.5 11.0938,-19.7031 7.15625,-19.7031 C3.20313,-19.7031 0,-16.5 0,-12.5469 C0,-9.54688 1.875,-6.95313 4.51563,-5.90625 C6.04688,-5.1875 7.95313,-4.73438 10,-4.73438 C12.8438,-4.73438 15.9531,-5.5625 18.6719,-7.5625 C19.9375,-8.48438 21.125,-9.6875 22.2031,-10.9375 L10.8125,24.6875 L13.4531,25.5469 L27.5313,-18.5469 C27.7656,-19.2813 27.4688,-19.9688 26.7344,-20.2656"/>
<path class="Beam" fill-rule="evenodd" d="M1163.09,698.373 L1373.88,711.317 L1373.88,736.572 L1163.09,723.628 L1163.09,698.373 "/>
<path class="Beam" fill-rule="evenodd" d="M2659.88,698.376 L2887.47,711.295 L2887.47,736.543 L2659.88,723.624 L2659.88,698.376 "/>
<path class="Beam" fill-rule="evenodd" d="M3163.94,446.028 L3421.34,458.909 L3421.34,484.148 L3163.94,471.267 L3163.94,446.028 "/>
<path class="Beam" fill-rule="evenodd" d="M1251.45,1213.29 L1480.57,1226.2 L1480.57,1251.45 L1251.45,1238.54 L1251.45,1213.29 "/>
<path class="Beam" fill-rule="evenodd" d="M2811.59,1490.9 L3023.9,1490.9 L3023.9,1516.11 L2811.59,1516.11 L2811.59,1490.9 "/>
<path class="Beam" fill-rule="evenodd" d="M3285.09,1225.86 L3497.39,1238.8 L3497.39,1264.06 L3285.09,1251.12 L3285.09,1225.86 "/>
<path class="Beam" fill-rule="evenodd" d="M1134.02,1994.38 L1391.01,1942.86 L1391.01,1968.57 L1134.02,2020.09 L1134.02,1994.38 "/>
<path class="Beam" fill-rule="evenodd" d="M2049.55,2245.14 L2239.26,2193.2 L2239.26,2219.34 L2049.55,2271.27 L2049.55,2245.14 "/>
<path class="Beam" fill-rule="evenodd" d="M2656.17,2182.56 L2886.94,2195.47 L2886.94,2220.72 L2656.17,2207.81 L2656.17,2182.56 "/>
<path class="Beam" fill-rule="evenodd" d="M3106.62,2232.98 L3337.39,2245.89 L3337.39,2271.14 L3106.62,2258.22 L3106.62,2232.98 "/>
<path class="Hook" transform="matrix(2.0166,0,0,2.0166,957.836,723.604)" d="M2.5,0.40625 C2.5,0.203125 3.40625,-3.20313 3.5,-3.5 C3.59375,-3.90625 5.40625,-9.59375 9.09375,-15.2969 C11.7969,-19.5 21.2969,-31.7969 21,-31.7969 C21,-31.7969 28.4063,-41.2969 28.9063,-54.2031 L28.9063,-56.5 C28.9063,-62.6094 28.1094,-71.2031 24.5938,-79.9063 C24.2031,-80.9063 23.7969,-81.9063 22.7031,-81.5 C21.5938,-81.1094 21.9063,-79.9063 22.2031,-78.8125 C24,-71.7969 25,-64.6094 25,-57.4063 C25,-49 22,-44.7969 20.2031,-41.7031 C13.5938,-30.6094 5,-25.2031 0.796875,-23.7969 C0.296875,-23.5938 0,-23.2031 0,-22.7031 L0,-16.5 L0,-0.09375 C0,0.59375 0.59375,1.20313 1.29688,1.20313 C1.79688,1.20313 2.40625,0.796875 2.5,0.40625"/>
<path class="Hook" transform="matrix(2.0166,0,0,2.0166,1818.53,748.811)" d="M2.5,0.40625 C2.5,0.203125 3.40625,-3.20313 3.5,-3.5 C3.59375,-3.90625 5.40625,-9.59375 9.09375,-15.2969 C11.7969,-19.5 21.2969,-31.7969 21,-31.7969 C21,-31.7969 28.4063,-41.2969 28.9063,-54.2031 L28.9063,-56.5 C28.9063,-62.6094 28.1094,-71.2031 24.5938,-79.9063 C24.2031,-80.9063 23.7969,-81.9063 22.7031,-81.5 C21.5938,-81.1094 21.9063,-79.9063 22.2031,-78.8125 C24,-71.7969 25,-64.6094 25,-57.4063 C25,-49 22,-44.7969 20.2031,-41.7031 C13.5938,-30.6094 5,-25.2031 0.796875,-23.7969 C0.296875,-23.5938 0,-23.2031 0,-22.7031 L0,-16.5 L0,-0.09375 C0,0.59375 0.59375,1.20313 1.29688,1.20313 C1.79688,1.20313 2.40625,0.796875 2.5,0.40625"/>
<path class="Hook" transform="matrix(2.0166,0,0,2.0166,2237.42,723.604)" d="M2.5,0.40625 C2.5,0.203125 3.40625,-3.20313 3.5,-3.5 C3.59375,-3.90625 5.40625,-9.59375 9.09375,-15.2969 C11.7969,-19.5 21.2969,-31.7969 21,-31.7969 C21,-31.7969 28.4063,-41.2969 28.9063,-54.2031 L28.9063,-56.5 C28.9063,-62.6094 28.1094,-71.2031 24.5938,-79.9063 C24.2031,-80.9063 23.7969,-81.9063 22.7031,-81.5 C21.5938,-81.1094 21.9063,-79.9063 22.2031,-78.8125 C24,-71.7969 25,-64.6094 25,-57.4063 C25,-49 22,-44.7969 20.2031,-41.7031 C13.5938,-30.6094 5,-25.2031 0.796875,-23.7969 C0.296875,-23.5938 0,-23.2031 0,-22.7031 L0,-16.5 L0,-0.09375 C0,0.59375 0.59375,1.20313 1.29688,1.20313 C1.79688,1.20313 2.40625,0.796875 2.5,0.40625"/>
<path class="Hook" transform="matrix(2.0166,0,0,2.0166,1014.22,1201.02)" d="M3.5,3.5 C3.40625,3.20313 2.5,-0.296875 2.5,-0.5 C2.40625,-0.90625 1.79688,-1.20313 1.29688,-1.20313 C0.59375,-1.20313 0,-0.59375 0,0.09375 L0,16.5 L0,22.7031 C0,23.2031 0.40625,23.5938 0.796875,23.7969 C5,25.0938 13.7031,30.6094 20.2031,41.7031 C22,44.7969 24.9063,49 24.9063,57.4063 C24.9063,64.6094 23.7969,72.2031 22,79.2031 C21.7031,80.3125 21.4063,81.3125 22.5,81.7031 C23.5938,82.1094 24,81.3125 24.4063,80.3125 C28,71.5 28.9063,62.2969 28.9063,56.1094 L28.9063,54.2031 C28.4063,41.2969 21,31.7969 21,31.7969 C21.2969,31.7969 11.7969,19.5 9.09375,15.2969 C5.40625,9.59375 3.59375,3.90625 3.5,3.5"/>
<path class="Hook" transform="matrix(2.0166,0,0,2.0166,1897.49,1219.92)" d="M3.5,3.5 C3.40625,3.20313 2.5,-0.296875 2.5,-0.5 C2.40625,-0.90625 1.79688,-1.20313 1.29688,-1.20313 C0.59375,-1.20313 0,-0.59375 0,0.09375 L0,16.5 L0,22.7031 C0,23.2031 0.40625,23.5938 0.796875,23.7969 C5,25.0938 13.7031,30.6094 20.2031,41.7031 C22,44.7969 24.9063,49 24.9063,57.4063 C24.9063,64.6094 23.7969,72.2031 22,79.2031 C21.7031,80.3125 21.4063,81.3125 22.5,81.7031 C23.5938,82.1094 24,81.3125 24.4063,80.3125 C28,71.5 28.9063,62.2969 28.9063,56.1094 L28.9063,54.2031 C28.4063,41.2969 21,31.7969 21,31.7969 C21.2969,31.7969 11.7969,19.5 9.09375,15.2969 C5.40625,9.59375 3.59375,3.90625 3.5,3.5"/>
<path class="Hook" transform="matrix(2.0166,0,0,2.0166,2390.83,1201.02)" d="M3.5,3.5 C3.40625,3.20313 2.5,-0.296875 2.5,-0.5 C2.40625,-0.90625 1.79688,-1.20313 1.29688,-1.20313 C0.59375,-1.20313 0,-0.59375 0,0.09375 L0,16.5 L0,22.7031 C0,23.2031 0.40625,23.5938 0.796875,23.7969 C5,25.0938 13.7031,30.6094 20.2031,41.7031 C22,44.7969 24.9063,49 24.9063,57.4063 C24.9063,64.6094 23.7969,72.2031 22,79.2031 C21.7031,80.3125 21.4063,81.3125 22.5,81.7031 C23.5938,82.1094 24,81.3125 24.4063,80.3125 C28,71.5 28.9063,62.2969 28.9063,56.1094 L28.9063,54.2031 C28.4063,41.2969 21,31.7969 21,31.7969 C21.2969,31.7969 11.7969,19.5 9.09375,15.2969 C5.40625,9.59375 3.59375,3.90625 3.5,3.5"/>
<path class="Hook" transform="matrix(2.0166,0,0,2.0166,823.891,2031.33)" d="M3.5,3.5 C3.40625,3.20313 2.5,-0.296875 2.5,-0.5 C2.40625,-0.90625 1.79688,-1.20313 1.29688,-1.20313 C0.59375,-1.20313 0,-0.59375 0,0.09375 L0,16.5 L0,22.7031 C0,23.2031 0.40625,23.5938 0.796875,23.7969 C5,25.0938 13.7031,30.6094 20.2031,41.7031 C22,44.7969 24.9063,49 24.9063,57.4063 C24.9063,64.6094 23.7969,72.2031 22,79.2031 C21.7031,80.3125 21.4063,81.3125 22.5,81.7031 C23.5938,82.1094 24,81.3125 24.4063,80.3125 C28,71.5 28.9063,62.2969 28.9063,56.1094 L28.9063,54.2031 C28.4063,41.2969 21,31.7969 21,31.7969 C21.2969,31.7969 11.7969,19.5 9.09375,15.2969 C5.40625,9.59375 3.59375,3.90625 3.5,3.5"/>
<path class="Jump" d="M3931.68,1947.67 L3969.3,1947.67 C3979.27,1947.67 3986.9,1946.11 3992.83,1942.75 C4004.15,1936.36 4010.41,1923.59 4010.41,1906.8 C4010.41,1891.34 4004.82,1879.23 3994.5,1872.52 C3988.35,1868.59 3980.05,1866.81 3967.29,1866.81 L3931.68,1866.81 L3931.68,1872.08 L3933.8,1872.08 C3940.07,1872.19 3942.21,1872.52 3943.1,1873.64 C3943.77,1874.64 3943.77,1874.87 3943.77,1880.58 L3943.77,1933.89 C3943.77,1939.61 3943.77,1939.83 3943.1,1940.84 C3942.21,1941.95 3940.07,1942.3 3933.8,1942.41 L3931.68,1942.41 L3931.68,1947.67 M3962.69,1942.41 C3956.99,1942.41 3956.32,1941.73 3956.32,1936.25 L3956.32,1878.34 C3956.32,1872.86 3957.1,1872.08 3962.69,1872.08 L3968.52,1872.08 C3987.68,1872.08 3995.63,1882.48 3995.63,1907.23 C3995.63,1932.33 3988.46,1942.41 3970.32,1942.41 L3962.69,1942.41 M4030.9,1935.23 C4026.97,1935.23 4023.83,1938.37 4023.83,1942.19 C4023.83,1946.11 4026.97,1949.23 4030.79,1949.23 C4034.71,1949.23 4037.83,1946.11 4037.83,1942.19 C4037.83,1938.37 4034.71,1935.23 4030.9,1935.23 M4118.24,1866.03 L4113.99,1866.03 L4109.5,1872.62 C4101.33,1866.7 4097.19,1865.12 4089.46,1865.12 C4078.82,1865.12 4069.75,1869.61 4062.24,1878.56 C4055.08,1887.08 4051.72,1896.48 4051.72,1908.03 C4051.72,1932.22 4067.5,1949.36 4089.57,1949.36 C4107.49,1949.36 4118.91,1938.83 4121.49,1920.02 L4116.22,1919.11 C4113.21,1935.8 4104.69,1944.09 4090.91,1944.09 C4074.33,1944.09 4066.5,1932.66 4066.5,1908.47 C4066.5,1895.7 4068.18,1887.3 4071.99,1880.58 C4075.46,1874.31 4082.29,1870.39 4089.57,1870.39 C4097.41,1870.39 4104.36,1874.53 4108.61,1881.7 C4110.74,1885.41 4112.3,1889.55 4114.99,1898.39 L4119.93,1898.39 L4118.24,1866.03 M4142.32,1935.23 C4138.4,1935.23 4135.25,1938.37 4135.25,1942.19 C4135.25,1946.11 4138.4,1949.23 4142.21,1949.23 C4146.13,1949.23 4149.25,1946.11 4149.25,1942.19 C4149.25,1938.37 4146.13,1935.23 4142.32,1935.23"/>
<path class="StaffText" d="M895.548,71.866 C874.267,71.866 858.767,94.9597 858.767,126.882 C858.767,158.194 873.814,181.147 894.329,181.147 C915.611,181.147 930.501,158.96 930.501,127.335 C930.501,111.225 927.157,97.8504 920.767,87.366 C914.845,77.7879 905.111,71.866 895.548,71.866 M894.486,78.3972 C899.501,78.3972 904.361,81.741 908.001,87.8191 C912.111,94.9597 913.47,103.632 913.47,124.46 C913.47,145.882 912.407,155.913 909.376,162.6 C905.876,170.053 900.407,174.616 894.626,174.616 C889.47,174.616 884.751,171.272 881.111,165.194 C876.845,158.038 875.626,148.616 875.626,123.694 C875.626,105.913 876.689,97.1004 879.736,90.4129 C883.236,82.8035 888.704,78.3972 894.486,78.3972"/>
<path class="StaffText" d="M1156.25,71.866 C1134.97,71.866 1119.47,94.9597 1119.47,126.882 C1119.47,158.194 1134.52,181.147 1155.04,181.147 C1176.32,181.147 1191.21,158.96 1191.21,127.335 C1191.21,111.225 1187.86,97.8504 1181.47,87.366 C1175.55,77.7879 1165.82,71.866 1156.25,71.866 M1155.19,78.3972 C1160.21,78.3972 1165.07,81.741 1168.71,87.8191 C1172.82,94.9597 1174.18,103.632 1174.18,124.46 C1174.18,145.882 1173.11,155.913 1170.08,162.6 C1166.58,170.053 1161.11,174.616 1155.33,174.616 C1150.18,174.616 1145.46,171.272 1141.82,165.194 C1137.55,158.038 1136.33,148.616 1136.33,123.694 C1136.33,105.913 1137.39,97.1004 1140.44,90.4129 C1143.94,82.8035 1149.41,78.3972 1155.19,78.3972"/>
<path class="StaffText" d="M1441.45,177.127 L1434.77,177.127 L1433.25,184.877 C1431.28,194.752 1430.06,195.674 1420.64,195.674 L1386.6,195.674 C1397.08,184.721 1400.58,181.534 1410.3,173.94 C1424.13,163.299 1430.06,157.971 1433.56,153.409 C1438.42,146.721 1440.85,140.034 1440.85,132.596 C1440.85,115.268 1426.56,102.955 1406.66,102.955 C1387.35,102.955 1372.61,115.268 1372.61,131.534 C1372.61,141.096 1377.47,147.643 1384.61,147.643 C1390.24,147.643 1394.03,143.846 1394.03,138.362 C1394.03,134.565 1391.91,131.065 1388.72,129.705 C1383.1,127.424 1382.8,127.112 1382.8,125.143 C1382.8,122.862 1384.31,119.362 1386.44,116.784 C1390.24,112.065 1396.47,109.487 1403.61,109.487 C1416.24,109.487 1423.67,117.237 1423.67,130.002 C1423.67,141.252 1418.36,151.44 1405.74,164.815 C1394.5,176.674 1387.5,184.112 1384.92,187.002 C1379.45,193.393 1376.7,196.877 1370.02,205.705 L1370.02,209.955 L1438.58,209.955 L1441.45,177.127 "/>
<path class="StaffText" d="M1846.27,177.127 L1839.58,177.127 L1838.07,184.877 C1836.1,194.752 1834.88,195.674 1825.46,195.674 L1791.41,195.674 C1801.9,184.721 1805.4,181.534 1815.12,173.94 C1828.94,163.299 1834.88,157.971 1838.38,153.409 C1843.24,146.721 1845.66,140.034 1845.66,132.596 C1845.66,115.268 1831.38,102.955 1811.47,102.955 C1792.16,102.955 1777.43,115.268 1777.43,131.534 C1777.43,141.096 1782.29,147.643 1789.43,147.643 C1795.05,147.643 1798.85,143.846 1798.85,138.362 C1798.85,134.565 1796.72,131.065 1793.54,129.705 C1787.91,127.424 1787.62,127.112 1787.62,125.143 C1787.62,122.862 1789.13,119.362 1791.26,116.784 C1795.05,112.065 1801.29,109.487 1808.43,109.487 C1821.05,109.487 1828.49,117.237 1828.49,130.002 C1828.49,141.252 1823.18,151.44 1810.55,164.815 C1799.32,176.674 1792.32,184.112 1789.74,187.002 C1784.27,193.393 1781.52,196.877 1774.83,205.705 L1774.83,209.955 L1843.4,209.955 L1846.27,177.127 "/>
<path class="StaffText" d="M2052.96,144.968 C2047.8,151.202 2033.82,155.905 2019.83,156.218 L2019.83,162.749 L2033.21,162.749 C2042.02,162.905 2042.92,163.812 2042.63,172.327 L2042.63,233.28 C2042.63,241.03 2042.63,241.327 2041.71,242.702 C2040.5,244.218 2037.61,244.827 2029.1,244.827 L2019.22,244.827 L2019.22,251.968 L2079.41,251.968 L2079.41,244.827 L2071.05,244.827 C2062.53,244.827 2059.64,244.218 2058.42,242.702 C2057.36,241.327 2057.36,241.171 2057.36,233.28 L2057.36,170.499 C2057.36,161.983 2057.67,154.843 2058.42,144.968 L2052.96,144.968 M2165.27,219.14 L2158.58,219.14 L2157.07,226.89 C2155.1,236.765 2153.88,237.687 2144.46,237.687 L2110.41,237.687 C2120.89,226.733 2124.39,223.546 2134.11,215.952 C2147.94,205.312 2153.88,199.983 2157.38,195.421 C2162.24,188.733 2164.66,182.046 2164.66,174.608 C2164.66,157.28 2150.38,144.968 2130.47,144.968 C2111.16,144.968 2096.42,157.28 2096.42,173.546 C2096.42,183.108 2101.28,189.655 2108.42,189.655 C2114.05,189.655 2117.85,185.858 2117.85,180.374 C2117.85,176.577 2115.72,173.077 2112.53,171.718 C2106.91,169.437 2106.61,169.124 2106.61,167.155 C2106.61,164.874 2108.13,161.374 2110.25,158.796 C2114.05,154.077 2120.28,151.499 2127.42,151.499 C2140.05,151.499 2147.49,159.249 2147.49,172.015 C2147.49,183.265 2142.17,193.452 2129.55,206.827 C2118.32,218.687 2111.32,226.124 2108.74,229.015 C2103.27,235.405 2100.52,238.89 2093.83,247.718 L2093.83,251.968 L2162.39,251.968 L2165.27,219.14 "/>
<path class="StaffText" d="M2381.83,81.949 C2360.55,81.949 2345.05,105.043 2345.05,136.965 C2345.05,168.277 2360.1,191.23 2380.61,191.23 C2401.89,191.23 2416.79,169.043 2416.79,137.418 C2416.79,121.308 2413.44,107.933 2407.05,97.449 C2401.13,87.8709 2391.39,81.949 2381.83,81.949 M2380.77,88.4803 C2385.79,88.4803 2390.64,91.824 2394.29,97.9021 C2398.39,105.043 2399.75,113.715 2399.75,134.543 C2399.75,155.965 2398.69,165.996 2395.66,172.683 C2392.16,180.137 2386.69,184.699 2380.91,184.699 C2375.75,184.699 2371.04,181.355 2367.39,175.277 C2363.13,168.121 2361.91,158.699 2361.91,133.777 C2361.91,115.996 2362.97,107.183 2366.02,100.496 C2369.52,92.8865 2374.99,88.4803 2380.77,88.4803"/>
<path class="StaffText" d="M2909.67,177.127 L2902.98,177.127 L2901.46,184.877 C2899.5,194.752 2898.28,195.674 2888.85,195.674 L2854.81,195.674 C2865.29,184.721 2868.79,181.534 2878.51,173.94 C2892.34,163.299 2898.28,157.971 2901.78,153.409 C2906.64,146.721 2909.06,140.034 2909.06,132.596 C2909.06,115.268 2894.78,102.955 2874.87,102.955 C2855.56,102.955 2840.82,115.268 2840.82,131.534 C2840.82,141.096 2845.68,147.643 2852.82,147.643 C2858.45,147.643 2862.25,143.846 2862.25,138.362 C2862.25,134.565 2860.12,131.065 2856.93,129.705 C2851.31,127.424 2851.01,127.112 2851.01,125.143 C2851.01,122.862 2852.53,119.362 2854.65,116.784 C2858.45,112.065 2864.68,109.487 2871.82,109.487 C2884.45,109.487 2891.89,117.237 2891.89,130.002 C2891.89,141.252 2886.57,151.44 2873.95,164.815 C2862.71,176.674 2855.71,184.112 2853.14,187.002 C2847.67,193.393 2844.92,196.877 2838.23,205.705 L2838.23,209.955 L2906.79,209.955 L2909.67,177.127 "/>
<path class="StaffText" d="M3109.02,144.968 C3103.86,151.202 3089.88,155.905 3075.89,156.218 L3075.89,162.749 L3089.27,162.749 C3098.08,162.905 3098.99,163.812 3098.69,172.327 L3098.69,233.28 C3098.69,241.03 3098.69,241.327 3097.77,242.702 C3096.57,244.218 3093.68,244.827 3085.16,244.827 L3075.28,244.827 L3075.28,251.968 L3135.47,251.968 L3135.47,244.827 L3127.11,244.827 C3118.6,244.827 3115.71,244.218 3114.49,242.702 C3113.43,241.327 3113.43,241.171 3113.43,233.28 L3113.43,170.499 C3113.43,161.983 3113.74,154.843 3114.49,144.968 L3109.02,144.968 M3221.33,219.14 L3214.64,219.14 L3213.13,226.89 C3211.16,236.765 3209.94,237.687 3200.52,237.687 L3166.47,237.687 C3176.96,226.733 3180.46,223.546 3190.18,215.952 C3204,205.312 3209.94,199.983 3213.44,195.421 C3218.3,188.733 3220.72,182.046 3220.72,174.608 C3220.72,157.28 3206.44,144.968 3186.53,144.968 C3167.22,144.968 3152.49,157.28 3152.49,173.546 C3152.49,183.108 3157.35,189.655 3164.49,189.655 C3170.11,189.655 3173.91,185.858 3173.91,180.374 C3173.91,176.577 3171.78,173.077 3168.6,171.718 C3162.97,169.437 3162.68,169.124 3162.68,167.155 C3162.68,164.874 3164.19,161.374 3166.32,158.796 C3170.11,154.077 3176.35,151.499 3183.49,151.499 C3196.11,151.499 3203.55,159.249 3203.55,172.015 C3203.55,183.265 3198.24,193.452 3185.61,206.827 C3174.38,218.687 3167.38,226.124 3164.8,229.015 C3159.33,235.405 3156.58,238.89 3149.89,247.718 L3149.89,251.968 L3218.46,251.968 L3221.33,219.14 "/>
<path class="StaffText" d="M3459.18,240.146 L3452.5,240.146 L3450.98,247.896 C3449.01,257.771 3447.79,258.693 3438.37,258.693 L3404.32,258.693 C3414.81,247.74 3418.31,244.552 3428.03,236.959 C3441.86,226.318 3447.79,220.99 3451.29,216.427 C3456.15,209.74 3458.57,203.052 3458.57,195.615 C3458.57,178.287 3444.29,165.974 3424.39,165.974 C3405.07,165.974 3390.34,178.287 3390.34,194.552 C3390.34,204.115 3395.2,210.662 3402.34,210.662 C3407.97,210.662 3411.76,206.865 3411.76,201.38 C3411.76,197.584 3409.64,194.084 3406.45,192.724 C3400.82,190.443 3400.53,190.13 3400.53,188.162 C3400.53,185.88 3402.04,182.38 3404.17,179.802 C3407.97,175.084 3414.2,172.505 3421.34,172.505 C3433.97,172.505 3441.4,180.255 3441.4,193.021 C3441.4,204.271 3436.09,214.459 3423.47,227.834 C3412.23,239.693 3405.23,247.13 3402.65,250.021 C3397.18,256.412 3394.43,259.896 3387.75,268.724 L3387.75,272.974 L3456.31,272.974 L3459.18,240.146 M3519.53,217.037 C3533.36,212.021 3539.73,204.271 3539.73,192.115 C3539.73,176.162 3527.57,165.974 3508.73,165.974 C3490.95,165.974 3477.42,176.459 3477.42,190.287 C3477.42,196.521 3481.53,200.927 3487.45,200.927 C3492.78,200.927 3496.42,197.287 3496.42,191.802 C3496.42,188.459 3495.2,186.49 3491.72,184.052 C3490.18,182.99 3489.73,182.38 3489.73,181.318 C3489.73,177.068 3498.54,172.505 3507.22,172.505 C3518.15,172.505 3523.93,179.349 3523.93,192.271 C3523.93,206.396 3518.15,213.849 3507.37,213.849 C3506,213.849 3503.42,213.693 3501.14,213.552 C3499.92,213.396 3498.7,213.396 3497.79,213.396 C3494.59,213.396 3492.92,214.755 3492.92,217.49 C3492.92,220.084 3494.45,221.302 3497.79,221.302 C3498.7,221.302 3499.92,221.302 3501.28,221.146 C3504.32,220.99 3506.76,220.99 3508.43,220.99 C3519.67,220.99 3525.76,229.052 3525.76,244.099 C3525.76,259.896 3518.15,268.724 3504.48,268.724 C3494.9,268.724 3484.56,263.552 3484.56,258.834 C3484.56,257.474 3484.87,257.162 3487.76,255.49 C3492.01,252.912 3493.68,250.334 3493.68,246.521 C3493.68,241.052 3489.57,236.959 3484.11,236.959 C3477.57,236.959 3473.32,242.271 3473.32,250.334 C3473.32,265.068 3486.84,275.255 3506.29,275.255 C3528.34,275.255 3542.62,263.099 3542.62,244.396 C3542.62,230.115 3535.32,221.443 3519.53,217.037"/>
<path class="StaffText" d="M3853.92,144.968 C3848.76,151.202 3834.78,155.905 3820.79,156.218 L3820.79,162.749 L3834.17,162.749 C3842.98,162.905 3843.89,163.812 3843.59,172.327 L3843.59,233.28 C3843.59,241.03 3843.59,241.327 3842.67,242.702 C3841.46,244.218 3838.57,244.827 3830.06,244.827 L3820.18,244.827 L3820.18,251.968 L3880.37,251.968 L3880.37,244.827 L3872.01,244.827 C3863.49,244.827 3860.6,244.218 3859.39,242.702 C3858.32,241.327 3858.32,241.171 3858.32,233.28 L3858.32,170.499 C3858.32,161.983 3858.64,154.843 3859.39,144.968 L3853.92,144.968 M3966.23,219.14 L3959.54,219.14 L3958.03,226.89 C3956.06,236.765 3954.84,237.687 3945.42,237.687 L3911.37,237.687 C3921.85,226.733 3925.35,223.546 3935.07,215.952 C3948.9,205.312 3954.84,199.983 3958.34,195.421 C3963.2,188.733 3965.62,182.046 3965.62,174.608 C3965.62,157.28 3951.34,144.968 3931.43,144.968 C3912.12,144.968 3897.39,157.28 3897.39,173.546 C3897.39,183.108 3902.24,189.655 3909.39,189.655 C3915.01,189.655 3918.81,185.858 3918.81,180.374 C3918.81,176.577 3916.68,173.077 3913.49,171.718 C3907.87,169.437 3907.57,169.124 3907.57,167.155 C3907.57,164.874 3909.09,161.374 3911.21,158.796 C3915.01,154.077 3921.24,151.499 3928.39,151.499 C3941.01,151.499 3948.45,159.249 3948.45,172.015 C3948.45,183.265 3943.14,193.452 3930.51,206.827 C3919.28,218.687 3912.28,226.124 3909.7,229.015 C3904.23,235.405 3901.48,238.89 3894.79,247.718 L3894.79,251.968 L3963.35,251.968 L3966.23,219.14 "/>
<path class="StaffText" d="M880.938,899.444 C875.782,905.678 861.798,910.382 847.813,910.694 L847.813,917.225 L861.188,917.225 C870.001,917.382 870.907,918.288 870.61,926.803 L870.61,987.757 C870.61,995.507 870.61,995.803 869.688,997.178 C868.485,998.694 865.595,999.303 857.079,999.303 L847.204,999.303 L847.204,1006.44 L907.392,1006.44 L907.392,999.303 L899.032,999.303 C890.517,999.303 887.626,998.694 886.407,997.178 C885.345,995.803 885.345,995.647 885.345,987.757 L885.345,924.975 C885.345,916.46 885.657,909.319 886.407,899.444 L880.938,899.444 M993.251,973.616 L986.563,973.616 L985.048,981.366 C983.079,991.241 981.86,992.163 972.438,992.163 L938.392,992.163 C948.876,981.21 952.376,978.022 962.095,970.428 C975.923,959.788 981.86,954.46 985.36,949.897 C990.22,943.21 992.642,936.522 992.642,929.085 C992.642,911.757 978.36,899.444 958.454,899.444 C939.142,899.444 924.407,911.757 924.407,928.022 C924.407,937.585 929.267,944.132 936.407,944.132 C942.032,944.132 945.829,940.335 945.829,934.85 C945.829,931.053 943.704,927.553 940.517,926.194 C934.892,923.913 934.595,923.6 934.595,921.632 C934.595,919.35 936.11,915.85 938.235,913.272 C942.032,908.553 948.267,905.975 955.407,905.975 C968.032,905.975 975.47,913.725 975.47,926.491 C975.47,937.741 970.157,947.928 957.532,961.303 C946.298,973.163 939.298,980.6 936.72,983.491 C931.251,989.882 928.501,993.366 921.813,1002.19 L921.813,1006.44 L990.376,1006.44 L993.251,973.616 "/>
<path class="StaffText" d="M1168.59,899.444 C1163.43,905.678 1149.45,910.382 1135.46,910.694 L1135.46,917.225 L1148.84,917.225 C1157.65,917.382 1158.56,918.288 1158.26,926.803 L1158.26,987.757 C1158.26,995.507 1158.26,995.803 1157.34,997.178 C1156.13,998.694 1153.24,999.303 1144.73,999.303 L1134.85,999.303 L1134.85,1006.44 L1195.04,1006.44 L1195.04,999.303 L1186.68,999.303 C1178.17,999.303 1175.28,998.694 1174.06,997.178 C1172.99,995.803 1172.99,995.647 1172.99,987.757 L1172.99,924.975 C1172.99,916.46 1173.31,909.319 1174.06,899.444 L1168.59,899.444 M1280.9,973.616 L1274.21,973.616 L1272.7,981.366 C1270.73,991.241 1269.51,992.163 1260.09,992.163 L1226.04,992.163 C1236.53,981.21 1240.03,978.022 1249.74,970.428 C1263.57,959.788 1269.51,954.46 1273.01,949.897 C1277.87,943.21 1280.29,936.522 1280.29,929.085 C1280.29,911.757 1266.01,899.444 1246.1,899.444 C1226.79,899.444 1212.06,911.757 1212.06,928.022 C1212.06,937.585 1216.92,944.132 1224.06,944.132 C1229.68,944.132 1233.48,940.335 1233.48,934.85 C1233.48,931.053 1231.35,927.553 1228.17,926.194 C1222.54,923.913 1222.24,923.6 1222.24,921.632 C1222.24,919.35 1223.76,915.85 1225.88,913.272 C1229.68,908.553 1235.92,905.975 1243.06,905.975 C1255.68,905.975 1263.12,913.725 1263.12,926.491 C1263.12,937.741 1257.81,947.928 1245.18,961.303 C1233.95,973.163 1226.95,980.6 1224.37,983.491 C1218.9,989.882 1216.15,993.366 1209.46,1002.19 L1209.46,1006.44 L1278.03,1006.44 L1280.9,973.616 "/>
<path class="StaffText" d="M1496.22,941.457 C1474.94,941.457 1459.44,964.551 1459.44,996.473 C1459.44,1027.79 1474.49,1050.74 1495,1050.74 C1516.28,1050.74 1531.17,1028.55 1531.17,996.926 C1531.17,980.816 1527.83,967.441 1521.44,956.957 C1515.52,947.379 1505.78,941.457 1496.22,941.457 M1495.16,947.988 C1500.17,947.988 1505.03,951.332 1508.67,957.41 C1512.78,964.551 1514.14,973.223 1514.14,994.051 C1514.14,1015.47 1513.08,1025.5 1510.05,1032.19 C1506.55,1039.64 1501.08,1044.21 1495.3,1044.21 C1490.14,1044.21 1485.42,1040.86 1481.78,1034.79 C1477.52,1027.63 1476.3,1018.21 1476.3,993.285 C1476.3,975.504 1477.36,966.691 1480.41,960.004 C1483.91,952.394 1489.38,947.988 1495.16,947.988"/>
<path class="StaffText" d="M1853.14,941.457 C1831.86,941.457 1816.36,964.551 1816.36,996.473 C1816.36,1027.79 1831.41,1050.74 1851.93,1050.74 C1873.21,1050.74 1888.1,1028.55 1888.1,996.926 C1888.1,980.816 1884.75,967.441 1878.36,956.957 C1872.44,947.379 1862.71,941.457 1853.14,941.457 M1852.08,947.988 C1857.1,947.988 1861.96,951.332 1865.6,957.41 C1869.71,964.551 1871.07,973.223 1871.07,994.051 C1871.07,1015.47 1870,1025.5 1866.97,1032.19 C1863.47,1039.64 1858,1044.21 1852.22,1044.21 C1847.07,1044.21 1842.35,1040.86 1838.71,1034.79 C1834.44,1027.63 1833.22,1018.21 1833.22,993.285 C1833.22,975.504 1834.28,966.691 1837.33,960.004 C1840.83,952.394 1846.3,947.988 1852.08,947.988"/>
<path class="StaffText" d="M2092.19,983.469 C2087.03,989.704 2073.04,994.407 2059.06,994.719 L2059.06,1001.25 L2072.44,1001.25 C2081.25,1001.41 2082.15,1002.31 2081.86,1010.83 L2081.86,1071.78 C2081.86,1079.53 2081.86,1079.83 2080.94,1081.2 C2079.73,1082.72 2076.84,1083.33 2068.33,1083.33 L2058.45,1083.33 L2058.45,1090.47 L2118.64,1090.47 L2118.64,1083.33 L2110.28,1083.33 C2101.76,1083.33 2098.87,1082.72 2097.65,1081.2 C2096.59,1079.83 2096.59,1079.67 2096.59,1071.78 L2096.59,1009 C2096.59,1000.48 2096.9,993.344 2097.65,983.469 L2092.19,983.469 "/>
<path class="StaffText" d="M2307.97,899.444 C2302.81,905.678 2288.83,910.382 2274.84,910.694 L2274.84,917.225 L2288.22,917.225 C2297.03,917.382 2297.94,918.288 2297.64,926.803 L2297.64,987.757 C2297.64,995.507 2297.64,995.803 2296.72,997.178 C2295.51,998.694 2292.62,999.303 2284.11,999.303 L2274.23,999.303 L2274.23,1006.44 L2334.42,1006.44 L2334.42,999.303 L2326.06,999.303 C2317.54,999.303 2314.65,998.694 2313.44,997.178 C2312.37,995.803 2312.37,995.647 2312.37,987.757 L2312.37,924.975 C2312.37,916.46 2312.69,909.319 2313.44,899.444 L2307.97,899.444 M2420.28,973.616 L2413.59,973.616 L2412.08,981.366 C2410.11,991.241 2408.89,992.163 2399.47,992.163 L2365.42,992.163 C2375.9,981.21 2379.4,978.022 2389.12,970.428 C2402.95,959.788 2408.89,954.46 2412.39,949.897 C2417.25,943.21 2419.67,936.522 2419.67,929.085 C2419.67,911.757 2405.39,899.444 2385.48,899.444 C2366.17,899.444 2351.44,911.757 2351.44,928.022 C2351.44,937.585 2356.29,944.132 2363.44,944.132 C2369.06,944.132 2372.86,940.335 2372.86,934.85 C2372.86,931.053 2370.73,927.553 2367.54,926.194 C2361.92,923.913 2361.62,923.6 2361.62,921.632 C2361.62,919.35 2363.14,915.85 2365.26,913.272 C2369.06,908.553 2375.29,905.975 2382.44,905.975 C2395.06,905.975 2402.5,913.725 2402.5,926.491 C2402.5,937.741 2397.19,947.928 2384.56,961.303 C2373.33,973.163 2366.33,980.6 2363.75,983.491 C2358.28,989.882 2355.53,993.366 2348.84,1002.19 L2348.84,1006.44 L2417.4,1006.44 L2420.28,973.616 "/>
<path class="StaffText" d="M3031.55,919.157 C3026.39,925.392 3012.41,930.095 2998.42,930.407 L2998.42,936.939 L3011.8,936.939 C3020.61,937.095 3021.52,938.001 3021.22,946.517 L3021.22,1007.47 C3021.22,1015.22 3021.22,1015.52 3020.3,1016.89 C3019.1,1018.41 3016.21,1019.02 3007.69,1019.02 L2997.81,1019.02 L2997.81,1026.16 L3058,1026.16 L3058,1019.02 L3049.64,1019.02 C3041.13,1019.02 3038.24,1018.41 3037.02,1016.89 C3035.96,1015.52 3035.96,1015.36 3035.96,1007.47 L3035.96,944.689 C3035.96,936.173 3036.27,929.032 3037.02,919.157 L3031.55,919.157 M3143.86,993.329 L3137.17,993.329 L3135.66,1001.08 C3133.69,1010.95 3132.47,1011.88 3123.05,1011.88 L3089,1011.88 C3099.49,1000.92 3102.99,997.735 3112.71,990.142 C3126.53,979.501 3132.47,974.173 3135.97,969.61 C3140.83,962.923 3143.25,956.235 3143.25,948.798 C3143.25,931.47 3128.97,919.157 3109.06,919.157 C3089.75,919.157 3075.02,931.47 3075.02,947.735 C3075.02,957.298 3079.88,963.845 3087.02,963.845 C3092.64,963.845 3096.44,960.048 3096.44,954.564 C3096.44,950.767 3094.31,947.267 3091.13,945.907 C3085.5,943.626 3085.21,943.314 3085.21,941.345 C3085.21,939.064 3086.72,935.564 3088.85,932.985 C3092.64,928.267 3098.88,925.689 3106.02,925.689 C3118.64,925.689 3126.08,933.439 3126.08,946.204 C3126.08,957.454 3120.77,967.642 3108.14,981.017 C3096.91,992.876 3089.91,1000.31 3087.33,1003.2 C3081.86,1009.59 3079.11,1013.08 3072.42,1021.91 L3072.42,1026.16 L3140.99,1026.16 L3143.86,993.329 "/>
<path class="StaffText" d="M3296.2,941.457 C3274.92,941.457 3259.42,964.551 3259.42,996.473 C3259.42,1027.79 3274.46,1050.74 3294.98,1050.74 C3316.26,1050.74 3331.15,1028.55 3331.15,996.926 C3331.15,980.816 3327.81,967.441 3321.42,956.957 C3315.5,947.379 3305.76,941.457 3296.2,941.457 M3295.14,947.988 C3300.15,947.988 3305.01,951.332 3308.65,957.41 C3312.76,964.551 3314.12,973.223 3314.12,994.051 C3314.12,1015.47 3313.06,1025.5 3310.03,1032.19 C3306.53,1039.64 3301.06,1044.21 3295.28,1044.21 C3290.12,1044.21 3285.4,1040.86 3281.76,1034.79 C3277.5,1027.63 3276.28,1018.21 3276.28,993.285 C3276.28,975.504 3277.34,966.691 3280.39,960.004 C3283.89,952.394 3289.36,947.988 3295.14,947.988"/>
<path class="StaffText" d="M3469.47,983.469 C3464.32,989.704 3450.33,994.407 3436.35,994.719 L3436.35,1001.25 L3449.72,1001.25 C3458.53,1001.41 3459.44,1002.31 3459.14,1010.83 L3459.14,1071.78 C3459.14,1079.53 3459.14,1079.83 3458.22,1081.2 C3457.02,1082.72 3454.13,1083.33 3445.61,1083.33 L3435.74,1083.33 L3435.74,1090.47 L3495.93,1090.47 L3495.93,1083.33 L3487.57,1083.33 C3479.05,1083.33 3476.16,1082.72 3474.94,1081.2 C3473.88,1079.83 3473.88,1079.67 3473.88,1071.78 L3473.88,1009 C3473.88,1000.48 3474.19,993.344 3474.94,983.469 L3469.47,983.469 "/>
<path class="StaffText" d="M3831.44,1004.48 C3826.28,1010.71 3812.3,1015.41 3798.31,1015.73 L3798.31,1022.26 L3811.69,1022.26 C3820.5,1022.41 3821.41,1023.32 3821.11,1031.84 L3821.11,1092.79 C3821.11,1100.54 3821.11,1100.84 3820.19,1102.21 C3818.98,1103.73 3816.09,1104.34 3807.58,1104.34 L3797.7,1104.34 L3797.7,1111.48 L3857.89,1111.48 L3857.89,1104.34 L3849.53,1104.34 C3841.01,1104.34 3838.12,1103.73 3836.91,1102.21 C3835.84,1100.84 3835.84,1100.68 3835.84,1092.79 L3835.84,1030.01 C3835.84,1021.49 3836.16,1014.35 3836.91,1004.48 L3831.44,1004.48 M3943.75,1078.65 L3937.06,1078.65 L3935.55,1086.4 C3933.58,1096.27 3932.36,1097.19 3922.94,1097.19 L3888.89,1097.19 C3899.37,1086.24 3902.87,1083.05 3912.59,1075.46 C3926.42,1064.82 3932.36,1059.49 3935.86,1054.93 C3940.72,1048.24 3943.14,1041.55 3943.14,1034.12 C3943.14,1016.79 3928.86,1004.48 3908.95,1004.48 C3889.64,1004.48 3874.91,1016.79 3874.91,1033.05 C3874.91,1042.62 3879.76,1049.16 3886.91,1049.16 C3892.53,1049.16 3896.33,1045.37 3896.33,1039.88 C3896.33,1036.09 3894.2,1032.59 3891.01,1031.23 C3885.39,1028.94 3885.09,1028.63 3885.09,1026.66 C3885.09,1024.38 3886.61,1020.88 3888.73,1018.3 C3892.53,1013.59 3898.76,1011.01 3905.91,1011.01 C3918.53,1011.01 3925.97,1018.76 3925.97,1031.52 C3925.97,1042.77 3920.66,1052.96 3908.03,1066.34 C3896.8,1078.19 3889.8,1085.63 3887.22,1088.52 C3881.75,1094.91 3879,1098.4 3872.31,1107.23 L3872.31,1111.48 L3940.87,1111.48 L3943.75,1078.65 "/>
<path class="StaffText" d="M730.941,1771.78 C725.785,1778.01 711.8,1782.71 697.816,1783.03 L697.816,1789.56 L711.191,1789.56 C720.003,1789.71 720.91,1790.62 720.613,1799.13 L720.613,1860.09 C720.613,1867.84 720.613,1868.13 719.691,1869.51 C718.488,1871.03 715.597,1871.63 707.081,1871.63 L697.206,1871.63 L697.206,1878.78 L757.394,1878.78 L757.394,1871.63 L749.035,1871.63 C740.519,1871.63 737.628,1871.03 736.41,1869.51 C735.347,1868.13 735.347,1867.98 735.347,1860.09 L735.347,1797.31 C735.347,1788.79 735.66,1781.65 736.41,1771.78 L730.941,1771.78 M843.253,1845.95 L836.566,1845.95 L835.05,1853.7 C833.081,1863.57 831.863,1864.49 822.441,1864.49 L788.394,1864.49 C798.878,1853.54 802.378,1850.35 812.097,1842.76 C825.925,1832.12 831.863,1826.79 835.363,1822.23 C840.222,1815.54 842.644,1808.85 842.644,1801.42 C842.644,1784.09 828.363,1771.78 808.456,1771.78 C789.144,1771.78 774.41,1784.09 774.41,1800.35 C774.41,1809.92 779.269,1816.46 786.41,1816.46 C792.035,1816.46 795.831,1812.67 795.831,1807.18 C795.831,1803.38 793.706,1799.88 790.519,1798.53 C784.894,1796.24 784.597,1795.93 784.597,1793.96 C784.597,1791.68 786.113,1788.18 788.238,1785.6 C792.035,1780.88 798.269,1778.31 805.41,1778.31 C818.035,1778.31 825.472,1786.06 825.472,1798.82 C825.472,1810.07 820.16,1820.26 807.535,1833.63 C796.3,1845.49 789.3,1852.93 786.722,1855.82 C781.253,1862.21 778.503,1865.7 771.816,1874.53 L771.816,1878.78 L840.378,1878.78 L843.253,1845.95 "/>
<path class="StaffText" d="M1063.76,1761.92 L1057.07,1761.92 L1055.56,1769.67 C1053.59,1779.55 1052.37,1780.47 1042.95,1780.47 L1008.9,1780.47 C1019.38,1769.52 1022.88,1766.33 1032.6,1758.73 C1046.43,1748.09 1052.37,1742.77 1055.87,1738.2 C1060.73,1731.52 1063.15,1724.83 1063.15,1717.39 C1063.15,1700.06 1048.87,1687.75 1028.96,1687.75 C1009.65,1687.75 994.916,1700.06 994.916,1716.33 C994.916,1725.89 999.776,1732.44 1006.92,1732.44 C1012.54,1732.44 1016.34,1728.64 1016.34,1723.16 C1016.34,1719.36 1014.21,1715.86 1011.03,1714.5 C1005.4,1712.22 1005.1,1711.91 1005.1,1709.94 C1005.1,1707.66 1006.62,1704.16 1008.74,1701.58 C1012.54,1696.86 1018.78,1694.28 1025.92,1694.28 C1038.54,1694.28 1045.98,1702.03 1045.98,1714.8 C1045.98,1726.05 1040.67,1736.23 1028.04,1749.61 C1016.81,1761.47 1009.81,1768.91 1007.23,1771.8 C1001.76,1778.19 999.01,1781.67 992.322,1790.5 L992.322,1794.75 L1060.88,1794.75 L1063.76,1761.92 M1124.1,1738.81 C1137.93,1733.8 1144.31,1726.05 1144.31,1713.89 C1144.31,1697.94 1132.15,1687.75 1113.31,1687.75 C1095.53,1687.75 1081.99,1698.23 1081.99,1712.06 C1081.99,1718.3 1086.1,1722.7 1092.03,1722.7 C1097.35,1722.7 1100.99,1719.06 1100.99,1713.58 C1100.99,1710.23 1099.78,1708.27 1096.29,1705.83 C1094.76,1704.77 1094.31,1704.16 1094.31,1703.09 C1094.31,1698.84 1103.12,1694.28 1111.79,1694.28 C1122.73,1694.28 1128.51,1701.12 1128.51,1714.05 C1128.51,1728.17 1122.73,1735.62 1111.95,1735.62 C1110.57,1735.62 1107.99,1735.47 1105.71,1735.33 C1104.49,1735.17 1103.28,1735.17 1102.37,1735.17 C1099.17,1735.17 1097.49,1736.53 1097.49,1739.27 C1097.49,1741.86 1099.03,1743.08 1102.37,1743.08 C1103.28,1743.08 1104.49,1743.08 1105.85,1742.92 C1108.9,1742.77 1111.34,1742.77 1113.01,1742.77 C1124.24,1742.77 1130.34,1750.83 1130.34,1765.87 C1130.34,1781.67 1122.73,1790.5 1109.06,1790.5 C1099.48,1790.5 1089.13,1785.33 1089.13,1780.61 C1089.13,1779.25 1089.45,1778.94 1092.34,1777.27 C1096.59,1774.69 1098.26,1772.11 1098.26,1768.3 C1098.26,1762.83 1094.15,1758.73 1088.68,1758.73 C1082.15,1758.73 1077.9,1764.05 1077.9,1772.11 C1077.9,1786.84 1091.42,1797.03 1110.87,1797.03 C1132.92,1797.03 1147.2,1784.87 1147.2,1766.17 C1147.2,1751.89 1139.9,1743.22 1124.1,1738.81"/>
<path class="StaffText" d="M1400.91,1698.9 L1394.22,1698.9 L1392.7,1706.65 C1390.74,1716.53 1389.52,1717.45 1380.1,1717.45 L1346.05,1717.45 C1356.53,1706.5 1360.03,1703.31 1369.75,1695.72 C1383.58,1685.07 1389.52,1679.75 1393.02,1675.18 C1397.88,1668.5 1400.3,1661.81 1400.3,1654.37 C1400.3,1637.04 1386.02,1624.73 1366.11,1624.73 C1346.8,1624.73 1332.06,1637.04 1332.06,1653.31 C1332.06,1662.87 1336.92,1669.42 1344.06,1669.42 C1349.69,1669.42 1353.49,1665.62 1353.49,1660.14 C1353.49,1656.34 1351.36,1652.84 1348.17,1651.48 C1342.55,1649.2 1342.25,1648.89 1342.25,1646.92 C1342.25,1644.64 1343.77,1641.14 1345.89,1638.56 C1349.69,1633.84 1355.92,1631.26 1363.06,1631.26 C1375.69,1631.26 1383.13,1639.01 1383.13,1651.78 C1383.13,1663.03 1377.81,1673.22 1365.19,1686.59 C1353.95,1698.45 1346.95,1705.89 1344.38,1708.78 C1338.91,1715.17 1336.16,1718.65 1329.47,1727.48 L1329.47,1731.73 L1398.03,1731.73 L1400.91,1698.9 "/>
<path class="StaffText" d="M1795.74,1519.7 C1774.46,1519.7 1758.96,1542.79 1758.96,1574.72 C1758.96,1606.03 1774,1628.98 1794.52,1628.98 C1815.8,1628.98 1830.69,1606.79 1830.69,1575.17 C1830.69,1559.06 1827.35,1545.68 1820.96,1535.2 C1815.03,1525.62 1805.3,1519.7 1795.74,1519.7 M1794.67,1526.23 C1799.69,1526.23 1804.55,1529.57 1808.19,1535.65 C1812.3,1542.79 1813.66,1551.47 1813.66,1572.29 C1813.66,1593.72 1812.6,1603.75 1809.57,1610.43 C1806.07,1617.89 1800.6,1622.45 1794.82,1622.45 C1789.66,1622.45 1784.94,1619.11 1781.3,1613.03 C1777.03,1605.87 1775.82,1596.45 1775.82,1571.53 C1775.82,1553.75 1776.88,1544.93 1779.92,1538.25 C1783.42,1530.64 1788.89,1526.23 1794.67,1526.23"/>
<path class="StaffText" d="M2084.64,1698.9 L2077.95,1698.9 L2076.44,1706.65 C2074.47,1716.53 2073.25,1717.45 2063.83,1717.45 L2029.78,1717.45 C2040.27,1706.5 2043.77,1703.31 2053.48,1695.72 C2067.31,1685.07 2073.25,1679.75 2076.75,1675.18 C2081.61,1668.5 2084.03,1661.81 2084.03,1654.37 C2084.03,1637.04 2069.75,1624.73 2049.84,1624.73 C2030.53,1624.73 2015.8,1637.04 2015.8,1653.31 C2015.8,1662.87 2020.66,1669.42 2027.8,1669.42 C2033.42,1669.42 2037.22,1665.62 2037.22,1660.14 C2037.22,1656.34 2035.09,1652.84 2031.91,1651.48 C2026.28,1649.2 2025.98,1648.89 2025.98,1646.92 C2025.98,1644.64 2027.5,1641.14 2029.62,1638.56 C2033.42,1633.84 2039.66,1631.26 2046.8,1631.26 C2059.42,1631.26 2066.86,1639.01 2066.86,1651.78 C2066.86,1663.03 2061.55,1673.22 2048.92,1686.59 C2037.69,1698.45 2030.69,1705.89 2028.11,1708.78 C2022.64,1715.17 2019.89,1718.65 2013.2,1727.48 L2013.2,1731.73 L2081.77,1731.73 L2084.64,1698.9 "/>
<path class="StaffText" d="M2274.55,1519.7 C2253.27,1519.7 2237.77,1542.79 2237.77,1574.72 C2237.77,1606.03 2252.82,1628.98 2273.34,1628.98 C2294.62,1628.98 2309.51,1606.79 2309.51,1575.17 C2309.51,1559.06 2306.16,1545.68 2299.77,1535.2 C2293.85,1525.62 2284.12,1519.7 2274.55,1519.7 M2273.49,1526.23 C2278.51,1526.23 2283.37,1529.57 2287.01,1535.65 C2291.12,1542.79 2292.48,1551.47 2292.48,1572.29 C2292.48,1593.72 2291.41,1603.75 2288.38,1610.43 C2284.88,1617.89 2279.41,1622.45 2273.63,1622.45 C2268.48,1622.45 2263.76,1619.11 2260.12,1613.03 C2255.85,1605.87 2254.63,1596.45 2254.63,1571.53 C2254.63,1553.75 2255.7,1544.93 2258.74,1538.25 C2262.24,1530.64 2267.71,1526.23 2273.49,1526.23"/>
<path class="StaffText" d="M2908.92,1561.71 C2903.77,1567.95 2889.78,1572.65 2875.8,1572.96 L2875.8,1579.49 L2889.17,1579.49 C2897.99,1579.65 2898.89,1580.56 2898.6,1589.07 L2898.6,1650.02 C2898.6,1657.77 2898.6,1658.07 2897.67,1659.45 C2896.47,1660.96 2893.58,1661.57 2885.06,1661.57 L2875.19,1661.57 L2875.19,1668.71 L2935.38,1668.71 L2935.38,1661.57 L2927.02,1661.57 C2918.5,1661.57 2915.61,1660.96 2914.39,1659.45 C2913.33,1658.07 2913.33,1657.92 2913.33,1650.02 L2913.33,1587.24 C2913.33,1578.73 2913.64,1571.59 2914.39,1561.71 L2908.92,1561.71 "/>
<path class="StaffText" d="M3132.34,1603.72 C3111.06,1603.72 3095.56,1626.82 3095.56,1658.74 C3095.56,1690.05 3110.61,1713.01 3131.12,1713.01 C3152.4,1713.01 3167.29,1690.82 3167.29,1659.19 C3167.29,1643.08 3163.95,1629.71 3157.56,1619.22 C3151.64,1609.65 3141.9,1603.72 3132.34,1603.72 M3131.28,1610.26 C3136.29,1610.26 3141.15,1613.6 3144.79,1619.68 C3148.9,1626.82 3150.26,1635.49 3150.26,1656.32 C3150.26,1677.74 3149.2,1687.77 3146.17,1694.46 C3142.67,1701.91 3137.2,1706.47 3131.42,1706.47 C3126.26,1706.47 3121.54,1703.13 3117.9,1697.05 C3113.64,1689.9 3112.42,1680.47 3112.42,1655.55 C3112.42,1637.77 3113.48,1628.96 3116.53,1622.27 C3120.03,1614.66 3125.5,1610.26 3131.28,1610.26"/>
<path class="StaffText" d="M3402.22,1714.03 L3395.54,1714.03 L3394.02,1721.78 C3392.05,1731.65 3390.83,1732.57 3381.41,1732.57 L3347.36,1732.57 C3357.85,1721.62 3361.35,1718.43 3371.07,1710.84 C3384.9,1700.2 3390.83,1694.87 3394.33,1690.31 C3399.19,1683.62 3401.61,1676.93 3401.61,1669.5 C3401.61,1652.17 3387.33,1639.86 3367.43,1639.86 C3348.11,1639.86 3333.38,1652.17 3333.38,1668.43 C3333.38,1678 3338.24,1684.54 3345.38,1684.54 C3351.01,1684.54 3354.8,1680.75 3354.8,1675.26 C3354.8,1671.46 3352.68,1667.96 3349.49,1666.61 C3343.86,1664.32 3343.57,1664.01 3343.57,1662.04 C3343.57,1659.76 3345.08,1656.26 3347.21,1653.68 C3351.01,1648.96 3357.24,1646.39 3364.38,1646.39 C3377.01,1646.39 3384.44,1654.14 3384.44,1666.9 C3384.44,1678.15 3379.13,1688.34 3366.51,1701.71 C3355.27,1713.57 3348.27,1721.01 3345.69,1723.9 C3340.22,1730.29 3337.47,1733.78 3330.79,1742.61 L3330.79,1746.86 L3399.35,1746.86 L3402.22,1714.03 "/>
<path class="StaffText" d="M3729.75,1718.66 C3724.92,1724.48 3711.86,1728.87 3698.79,1729.17 L3698.79,1735.26 L3711.29,1735.26 C3719.53,1735.41 3720.39,1736.26 3720.09,1744.22 L3720.09,1801.16 C3720.09,1808.41 3720.09,1808.69 3719.25,1809.97 C3718.11,1811.39 3715.4,1811.95 3707.47,1811.95 L3698.23,1811.95 L3698.23,1818.62 L3754.47,1818.62 L3754.47,1811.95 L3746.65,1811.95 C3738.7,1811.95 3736,1811.39 3734.86,1809.97 C3733.87,1808.69 3733.87,1808.55 3733.87,1801.16 L3733.87,1742.51 C3733.87,1734.56 3734.15,1727.89 3734.86,1718.66 L3729.75,1718.66 M3834.67,1787.95 L3828.43,1787.95 L3827.01,1795.19 C3825.15,1804.42 3824.03,1805.28 3815.22,1805.28 L3783.42,1805.28 C3793.22,1795.05 3796.48,1792.08 3805.56,1784.97 C3818.48,1775.03 3824.03,1770.06 3827.29,1765.8 C3831.84,1759.55 3834.11,1753.31 3834.11,1746.34 C3834.11,1730.16 3820.76,1718.66 3802.15,1718.66 C3784.12,1718.66 3770.36,1730.16 3770.36,1745.36 C3770.36,1754.3 3774.89,1760.41 3781.57,1760.41 C3786.82,1760.41 3790.37,1756.86 3790.37,1751.75 C3790.37,1748.19 3788.39,1744.92 3785.4,1743.66 C3780.15,1741.51 3779.86,1741.23 3779.86,1739.39 C3779.86,1737.26 3781.28,1734 3783.28,1731.58 C3786.82,1727.17 3792.64,1724.76 3799.32,1724.76 C3811.11,1724.76 3818.06,1732 3818.06,1743.94 C3818.06,1754.44 3813.09,1763.95 3801.31,1776.45 C3790.79,1787.53 3784.26,1794.48 3781.86,1797.19 C3776.75,1803.14 3774.18,1806.41 3767.93,1814.66 L3767.93,1818.62 L3831.98,1818.62 L3834.67,1787.95 "/>
<path class="RehearsalMark" fill="none" stroke="#000000" stroke-width="8.07" stroke-linecap="square" stroke-linejoin="miter" stroke-miterlimit="2" fill-rule="evenodd" d="M371.389,114.033 L535.87,114.033 L535.87,270.514 L371.389,270.514 L371.389,114.033 "/>
<path class="RehearsalMark" d="M449.957,143.992 L420.004,213.945 C413.926,228.211 409.036,233.351 401.254,234.148 L401.254,241.273 L439.395,241.273 L439.395,234.148 C430.036,233.617 426.332,231.101 426.332,225.039 C426.332,222.789 426.864,220.679 428.317,217.508 L430.426,212.492 L463.301,212.492 L468.317,225.429 C469.77,229.133 469.895,229.789 469.895,230.851 C469.895,233.226 468.051,234.008 462.239,234.008 L459.989,234.148 L459.989,241.273 L506.332,241.273 L506.332,234.148 C498.801,233.883 496.692,232.554 493.926,225.836 L459.989,143.992 L449.957,143.992 M447.192,172.101 L459.989,203.648 L433.864,203.648 L447.192,172.101 "/>
<path class="RehearsalMark" fill="none" stroke="#000000" stroke-width="8.07" stroke-linecap="square" stroke-linejoin="miter" stroke-miterlimit="2" fill-rule="evenodd" d="M390.508,918.447 L544.989,918.447 L544.989,1072.93 L390.508,1072.93 L390.508,918.447 "/>
<path class="RehearsalMark" d="M419.999,948.376 L419.999,955.516 L421.967,955.516 C429.108,955.516 431.608,956.032 432.795,957.36 C433.717,958.813 433.717,959.204 433.717,967.391 L433.717,1024.67 C433.717,1032.86 433.717,1033.27 432.795,1034.58 C431.608,1036.03 428.967,1036.56 421.967,1036.56 L419.999,1036.56 L419.999,1043.69 L473.452,1043.69 C487.186,1043.69 494.186,1042.63 501.045,1039.59 C509.358,1035.91 514.905,1027.58 514.905,1018.61 C514.905,1009.36 509.624,1002.11 499.858,997.626 C495.374,995.501 491.545,994.454 484.545,993.532 C491.014,992.469 494.702,991.548 498.405,989.829 C506.327,986.001 510.545,979.673 510.545,971.751 C510.545,964.219 506.592,957.219 500.124,953.657 C492.858,949.563 486.53,948.376 470.952,948.376 L419.999,948.376 M457.483,991.157 L457.483,963.173 C457.217,957.626 459.061,955.766 464.874,955.516 L468.827,955.516 C480.452,955.516 486.655,961.313 486.655,972.282 C486.655,978.735 484.405,983.891 480.186,987.188 C476.624,990.094 472.139,991.157 463.952,991.157 L457.483,991.157 M457.483,998.407 L466.592,998.407 C474.905,998.407 478.733,999.204 482.436,1001.58 C487.045,1004.61 489.686,1010.42 489.686,1017.28 C489.686,1023.63 487.311,1029.44 483.483,1032.59 C480.186,1035.24 475.827,1036.56 469.499,1036.56 L465.53,1036.56 C458.014,1036.3 457.217,1035.5 457.483,1028.11 L457.483,998.407 "/>
</svg>
