<?xml version="1.0" encoding="UTF-8" standalone="no"?>
<svg width="4208.47px" height="2409.45px" viewBox="0 0 4208.47 2409.45"
 xmlns="http://www.w3.org/2000/svg" xmlns:xlink="http://www.w3.org/1999/xlink" version="1.2" baseProfile="tiny">
<title>FLAUTA</title>
<desc>Generated by MuseScore 3.6.2</desc>
<polyline class="StaffLines" fill="none" stroke="#000000" stroke-width="6.16" stroke-linejoin="bevel" points="70.866,462.866 4137.61,462.866"/>
<polyline class="StaffLines" fill="none" stroke="#000000" stroke-width="6.16" stroke-linejoin="bevel" points="70.866,518.866 4137.61,518.866"/>
<polyline class="StaffLines" fill="none" stroke="#000000" stroke-width="6.16" stroke-linejoin="bevel" points="70.866,574.866 4137.61,574.866"/>
<polyline class="StaffLines" fill="none" stroke="#000000" stroke-width="6.16" stroke-linejoin="bevel" points="70.866,630.866 4137.61,630.866"/>
<polyline class="StaffLines" fill="none" stroke="#000000" stroke-width="6.16" stroke-linejoin="bevel" points="70.866,686.866 4137.61,686.866"/>
<polyline class="StaffLines" fill="none" stroke="#000000" stroke-width="6.16" stroke-linejoin="bevel" points="70.866,1165.64 4137.61,1165.64"/>
<polyline class="StaffLines" fill="none" stroke="#000000" stroke-width="6.16" stroke-linejoin="bevel" points="70.866,1221.64 4137.61,1221.64"/>
<polyline class="StaffLines" fill="none" stroke="#000000" stroke-width="6.16" stroke-linejoin="bevel" points="70.866,1277.64 4137.61,1277.64"/>
<polyline class="StaffLines" fill="none" stroke="#000000" stroke-width="6.16" stroke-linejoin="bevel" points="70.866,1333.64 4137.61,1333.64"/>
<polyline class="StaffLines" fill="none" stroke="#000000" stroke-width="6.16" stroke-linejoin="bevel" points="70.866,1389.64 4137.61,1389.64"/>
<polyline class="StaffLines" fill="none" stroke="#000000" stroke-width="6.16" stroke-linejoin="bevel" points="70.866,1868.42 4137.61,1868.42"/>
<polyline class="StaffLines" fill="none" stroke="#000000" stroke-width="6.16" stroke-linejoin="bevel" points="70.866,1924.42 4137.61,1924.42"/>
<polyline class="StaffLines" fill="none" stroke="#000000" stroke-width="6.16" stroke-linejoin="bevel" points="70.866,1980.42 4137.61,1980.42"/>
<polyline class="StaffLines" fill="none" stroke="#000000" stroke-width="6.16" stroke-linejoin="bevel" points="70.866,2036.42 4137.61,2036.42"/>
<polyline class="StaffLines" fill="none" stroke="#000000" stroke-width="6.16" stroke-linejoin="bevel" points="70.866,2092.42 4137.61,2092.42"/>
<path class="MeasureNumber" d="M75.3504,1038.33 C74.1004,1039.08 73.741,1039.56 73.741,1040.36 C73.741,1041.13 74.3816,1041.69 75.1785,1041.69 C76.2254,1041.69 76.8191,1040.92 76.9441,1039.44 C78.1785,1038.44 79.5066,1038 81.1004,1038 C84.0691,1038 85.7097,1039.84 85.7097,1043.16 C85.7097,1048.36 82.3504,1052.59 78.2254,1052.59 C75.866,1052.59 73.9441,1051.49 73.9441,1050.16 C73.9441,1049.92 73.991,1049.84 74.1785,1049.72 C75.2254,1049.24 75.2254,1049.24 75.5066,1049.05 C76.1472,1048.56 76.5066,1047.84 76.5066,1047 C76.5066,1045.72 75.5066,1044.77 74.1004,1044.77 C72.3504,1044.77 71.0222,1046.24 71.0222,1048.16 C71.0222,1051.69 74.0691,1054.24 78.3504,1054.24 C84.8191,1054.24 90.0691,1049.08 90.0691,1042.69 C90.0691,1038.64 86.991,1035.8 82.6316,1035.8 C80.8972,1035.8 79.5066,1036.16 77.5847,1037.13 L79.8191,1029.56 C81.9441,1030 83.6316,1030.2 85.0691,1030.2 C87.7097,1030.2 90.0691,1029.36 91.3816,1027.97 C92.0691,1027.17 92.4597,1026.49 92.4597,1025.97 C92.4597,1025.72 92.3347,1025.49 92.1785,1025.49 C92.0691,1025.49 91.9754,1025.53 91.741,1025.64 C90.4285,1026.28 88.741,1026.64 87.1785,1026.64 C84.7879,1026.64 81.9441,1026.25 78.991,1025.49 L75.3504,1038.33 "/>
<path class="MeasureNumber" d="M85.8972,1741.62 C87.741,1740.75 88.5847,1740.26 89.3035,1739.7 C91.0222,1738.39 91.9441,1736.54 91.9441,1734.5 C91.9441,1730.85 88.866,1728.26 84.5847,1728.26 C79.4285,1728.26 75.4285,1731.98 75.4285,1736.82 C75.4285,1739.26 76.2722,1740.82 78.4285,1742.39 C73.7097,1744.18 71.1785,1747.1 71.1785,1750.75 C71.1785,1754.62 74.3816,1757.01 79.5066,1757.01 C85.6629,1757.01 90.0691,1753.26 90.0691,1748.06 C90.0691,1746.57 89.5847,1745.14 88.7097,1743.98 C88.1004,1743.18 87.3816,1742.57 85.8972,1741.62 M84.1785,1740.67 C80.1004,1738.75 78.6316,1737.18 78.6316,1734.9 C78.6316,1732.14 81.1004,1729.98 84.2566,1729.98 C87.0222,1729.98 88.9441,1731.75 88.9441,1734.26 C88.9441,1735.9 88.1785,1737.7 86.866,1738.98 C86.1004,1739.75 85.5066,1740.14 84.1785,1740.67 M79.9441,1743.46 C81.866,1744.34 82.5066,1744.65 83.5066,1745.26 C85.5066,1746.46 86.5847,1748.06 86.5847,1749.85 C86.5847,1752.93 83.7097,1755.26 79.9441,1755.26 C76.5379,1755.26 74.4285,1753.34 74.4285,1750.26 C74.4285,1747.26 76.3504,1744.9 79.9441,1743.46"/>
<polyline class="BarLine" fill="none" stroke="#000000" stroke-width="30.80" stroke-linejoin="bevel" points="1037.37,459.786 1037.37,689.946"/>
<polyline class="BarLine" fill="none" stroke="#000000" stroke-width="10.08" stroke-linejoin="bevel" points="1076.57,459.786 1076.57,689.946"/>
<path class="BarLine" transform="matrix(2.24,0,0,2.24,1104.12,546.866)" d="M10.4063,0 C10.4063,-2.90625 8.09375,-5.29688 5.20313,-5.29688 C2.29688,-5.29688 0,-2.90625 0,0 C0,2.90625 2.29688,5.29688 5.20313,5.29688 C8.09375,5.29688 10.4063,2.90625 10.4063,0"/>
<path class="BarLine" transform="matrix(2.24,0,0,2.24,1104.12,602.866)" d="M10.4063,0 C10.4063,-2.90625 8.09375,-5.29688 5.20313,-5.29688 C2.29688,-5.29688 0,-2.90625 0,0 C0,2.90625 2.29688,5.29688 5.20313,5.29688 C8.09375,5.29688 10.4063,2.90625 10.4063,0"/>
<polyline class="BarLine" fill="none" stroke="#000000" stroke-width="10.08" stroke-linejoin="bevel" points="1743.16,459.786 1743.16,689.946"/>
<polyline class="BarLine" fill="none" stroke="#000000" stroke-width="10.08" stroke-linejoin="bevel" points="2615.64,459.786 2615.64,689.946"/>
<polyline class="BarLine" fill="none" stroke="#000000" stroke-width="10.08" stroke-linejoin="bevel" points="3488.12,459.786 3488.12,689.946"/>
<polyline class="BarLine" fill="none" stroke="#000000" stroke-width="10.08" stroke-linejoin="bevel" points="4132.57,459.786 4132.57,689.946"/>
<path class="BarLine" transform="matrix(2.24,0,0,2.24,1385.16,1249.64)" d="M10.4063,0 C10.4063,-2.90625 8.09375,-5.29688 5.20313,-5.29688 C2.29688,-5.29688 0,-2.90625 0,0 C0,2.90625 2.29688,5.29688 5.20313,5.29688 C8.09375,5.29688 10.4063,2.90625 10.4063,0"/>
<path class="BarLine" transform="matrix(2.24,0,0,2.24,1385.16,1305.64)" d="M10.4063,0 C10.4063,-2.90625 8.09375,-5.29688 5.20313,-5.29688 C2.29688,-5.29688 0,-2.90625 0,0 C0,2.90625 2.29688,5.29688 5.20313,5.29688 C8.09375,5.29688 10.4063,2.90625 10.4063,0"/>
<polyline class="BarLine" fill="none" stroke="#000000" stroke-width="10.08" stroke-linejoin="bevel" points="1436.01,1162.56 1436.01,1392.72"/>
<polyline class="BarLine" fill="none" stroke="#000000" stroke-width="30.80" stroke-linejoin="bevel" points="1475.21,1162.56 1475.21,1392.72"/>
<polyline class="BarLine" fill="none" stroke="#000000" stroke-width="30.80" stroke-linejoin="bevel" points="1589.16,1162.56 1589.16,1392.72"/>
<polyline class="BarLine" fill="none" stroke="#000000" stroke-width="10.08" stroke-linejoin="bevel" points="1628.36,1162.56 1628.36,1392.72"/>
<path class="BarLine" transform="matrix(2.24,0,0,2.24,1655.91,1249.64)" d="M10.4063,0 C10.4063,-2.90625 8.09375,-5.29688 5.20313,-5.29688 C2.29688,-5.29688 0,-2.90625 0,0 C0,2.90625 2.29688,5.29688 5.20313,5.29688 C8.09375,5.29688 10.4063,2.90625 10.4063,0"/>
<path class="BarLine" transform="matrix(2.24,0,0,2.24,1655.91,1305.64)" d="M10.4063,0 C10.4063,-2.90625 8.09375,-5.29688 5.20313,-5.29688 C2.29688,-5.29688 0,-2.90625 0,0 C0,2.90625 2.29688,5.29688 5.20313,5.29688 C8.09375,5.29688 10.4063,2.90625 10.4063,0"/>
<polyline class="BarLine" fill="none" stroke="#000000" stroke-width="10.08" stroke-linejoin="bevel" points="2770.8,1162.56 2770.8,1392.72"/>
<polyline class="BarLine" fill="none" stroke="#000000" stroke-width="10.08" stroke-linejoin="bevel" points="4132.57,1162.56 4132.57,1392.72"/>
<polyline class="BarLine" fill="none" stroke="#000000" stroke-width="10.08" stroke-linejoin="bevel" points="2814.89,1865.34 2814.89,2095.5"/>
<path class="BarLine" transform="matrix(2.24,0,0,2.24,4038.61,1952.42)" d="M10.4063,0 C10.4063,-2.90625 8.09375,-5.29688 5.20313,-5.29688 C2.29688,-5.29688 0,-2.90625 0,0 C0,2.90625 2.29688,5.29688 5.20313,5.29688 C8.09375,5.29688 10.4063,2.90625 10.4063,0"/>
<path class="BarLine" transform="matrix(2.24,0,0,2.24,4038.61,2008.42)" d="M10.4063,0 C10.4063,-2.90625 8.09375,-5.29688 5.20313,-5.29688 C2.29688,-5.29688 0,-2.90625 0,0 C0,2.90625 2.29688,5.29688 5.20313,5.29688 C8.09375,5.29688 10.4063,2.90625 10.4063,0"/>
<polyline class="BarLine" fill="none" stroke="#000000" stroke-width="10.08" stroke-linejoin="bevel" points="4089.45,1865.34 4089.45,2095.5"/>
<polyline class="BarLine" fill="none" stroke="#000000" stroke-width="30.80" stroke-linejoin="bevel" points="4128.65,1865.34 4128.65,2095.5"/>
<path class="Accidental" transform="matrix(2.24,0,0,2.24,2072.99,1896.42)" d="M20.0938,-7.90625 C19.5,-11.7969 17.0938,-15.5 12,-15.5 C7,-15.5 4.09375,-12.4063 3.59375,-11.7969 L4,-43.9063 C4,-44.7031 3.40625,-45.2969 2.59375,-45.2969 L1.40625,-45.2969 C0.59375,-45.2969 0,-44.7031 0,-43.9063 L0.5,16.2031 C0.5,17 1.09375,17.5938 1.90625,17.5938 C2.09375,17.5938 2.5,17.5 2.70313,17.4063 C3.09375,17.2031 9.59375,14 15,7.90625 C18.7969,3.59375 20.2969,-1.29688 20.2969,-5.40625 C20.2969,-6.29688 20.2031,-7.09375 20.0938,-7.90625 M13.2031,-4 C13.2031,-2.5 12.7969,2.09375 10.2969,5.90625 C8.59375,8.5 5.20313,11.2031 3.29688,12.7031 L3.59375,-6.79688 C3.79688,-7.70313 5.29688,-10.5938 9.29688,-10.5938 C12.9063,-10.5938 13.2031,-7.20313 13.2031,-5.09375 L13.2031,-4 "/>
<polyline class="LedgerLine" fill="none" stroke="#000000" stroke-width="8.96" stroke-linejoin="bevel" points="2225.4,1109.64 2337.38,1109.64"/>
<polyline class="LedgerLine" fill="none" stroke="#000000" stroke-width="8.96" stroke-linejoin="bevel" points="2468.98,1109.64 2580.96,1109.64"/>
<polyline class="LedgerLine" fill="none" stroke="#000000" stroke-width="8.96" stroke-linejoin="bevel" points="2468.98,1053.64 2580.96,1053.64"/>
<polyline class="Stem" fill="none" stroke="#000000" stroke-width="6.16" stroke-linejoin="bevel" points="1944.48,582.392 1944.48,749.866"/>
<polyline class="Stem" fill="none" stroke="#000000" stroke-width="6.16" stroke-linejoin="bevel" points="2345.7,651.698 2345.7,462.866"/>
<polyline class="Stem" fill="none" stroke="#000000" stroke-width="6.16" stroke-linejoin="bevel" points="2883.58,623.698 2883.58,441.866"/>
<polyline class="Stem" fill="none" stroke="#000000" stroke-width="6.16" stroke-linejoin="bevel" points="3151.56,554.392 3151.56,728.866"/>
<polyline class="Stem" fill="none" stroke="#000000" stroke-width="6.16" stroke-linejoin="bevel" points="780.736,1257.17 780.736,1431.64"/>
<polyline class="Stem" fill="none" stroke="#000000" stroke-width="6.16" stroke-linejoin="bevel" points="1151.11,1382.47 1151.11,1193.64"/>
<polyline class="Stem" fill="none" stroke="#000000" stroke-width="6.16" stroke-linejoin="bevel" points="1869.04,1173.17 1869.04,1361.64"/>
<polyline class="Stem" fill="none" stroke="#000000" stroke-width="6.16" stroke-linejoin="bevel" points="2248.08,1117.17 2248.08,1305.64"/>
<polyline class="Stem" fill="none" stroke="#000000" stroke-width="6.16" stroke-linejoin="bevel" points="2491.66,1061.17 2491.66,1277.64"/>
<polyline class="Stem" fill="none" stroke="#000000" stroke-width="6.16" stroke-linejoin="bevel" points="2972.12,1145.17 2972.12,1333.64"/>
<polyline class="Stem" fill="none" stroke="#000000" stroke-width="6.16" stroke-linejoin="bevel" points="3176.51,1173.17 3176.51,1333.64"/>
<polyline class="Stem" fill="none" stroke="#000000" stroke-width="6.16" stroke-linejoin="bevel" points="3380.89,1145.17 3380.89,1333.64"/>
<polyline class="Stem" fill="none" stroke="#000000" stroke-width="6.16" stroke-linejoin="bevel" points="3633.37,1173.17 3633.37,1361.64"/>
<polyline class="Stem" fill="none" stroke="#000000" stroke-width="6.16" stroke-linejoin="bevel" points="780.736,1847.94 780.736,2036.42"/>
<polyline class="Stem" fill="none" stroke="#000000" stroke-width="6.16" stroke-linejoin="bevel" points="992.423,1875.94 992.423,2036.42"/>
<polyline class="Stem" fill="none" stroke="#000000" stroke-width="6.16" stroke-linejoin="bevel" points="1204.11,1847.94 1204.11,2036.42"/>
<polyline class="Stem" fill="none" stroke="#000000" stroke-width="6.16" stroke-linejoin="bevel" points="1542.81,1875.94 1542.81,2064.42"/>
<polyline class="Stem" fill="none" stroke="#000000" stroke-width="6.16" stroke-linejoin="bevel" points="2135.53,1903.94 2135.53,2078.42"/>
<polyline class="Stem" fill="none" stroke="#000000" stroke-width="6.16" stroke-linejoin="bevel" points="2474.23,1931.94 2474.23,2092.42"/>
<polyline class="Stem" fill="none" stroke="#000000" stroke-width="6.16" stroke-linejoin="bevel" points="3016.21,1959.94 3016.21,2134.42"/>
<path class="Note" transform="matrix(2.24,0,0,2.24,1941.4,574.866)" d="M31.5,-8.14063 C29.7031,-11.4375 25.9063,-13.2344 21.2969,-13.2344 C17.9063,-13.2344 14.2031,-12.2344 10.5938,-10.3438 C4,-6.84375 0,-0.9375 0,4.15625 C0,5.5625 0.296875,6.96875 1,8.26563 C2.79688,11.5781 6.59375,13.2813 11.2031,13.2813 C14.5938,13.2813 18.2969,12.375 21.9063,10.4844 C28.5,6.96875 32.5,1.0625 32.5,-4.04688 C32.5,-5.4375 32.2031,-6.84375 31.5,-8.14063 M27.2031,-1.34375 C25.5,0.359375 22.0938,2.45313 18.5,4.46875 C14.9063,6.46875 11.2969,7.96875 8.90625,8.46875 C8.40625,8.57813 7.90625,8.67188 7.40625,8.67188 C5.79688,8.67188 4.59375,8.07813 3.90625,6.76563 C3.59375,6.26563 3.40625,5.67188 3.40625,5.0625 C3.40625,3.96875 4.09375,2.65625 5.20313,1.5625 C6.90625,-0.140625 10.2031,-2.23438 13.7969,-4.23438 C17.4063,-6.23438 21,-7.73438 23.4063,-8.23438 C23.9063,-8.34375 24.4063,-8.4375 24.9063,-8.4375 C26.5,-8.4375 27.7969,-7.84375 28.5,-6.54688 C28.7969,-6.04688 28.9063,-5.4375 28.9063,-4.84375 C28.9063,-3.73438 28.2969,-2.54688 27.2031,-1.34375"/>
<path class="Note" transform="matrix(2.24,0,0,2.24,2276,658.866)" d="M31.5,-8.14063 C29.7031,-11.4375 25.9063,-13.2344 21.2969,-13.2344 C17.9063,-13.2344 14.2031,-12.2344 10.5938,-10.3438 C4,-6.84375 0,-0.9375 0,4.15625 C0,5.5625 0.296875,6.96875 1,8.26563 C2.79688,11.5781 6.59375,13.2813 11.2031,13.2813 C14.5938,13.2813 18.2969,12.375 21.9063,10.4844 C28.5,6.96875 32.5,1.0625 32.5,-4.04688 C32.5,-5.4375 32.2031,-6.84375 31.5,-8.14063 M27.2031,-1.34375 C25.5,0.359375 22.0938,2.45313 18.5,4.46875 C14.9063,6.46875 11.2969,7.96875 8.90625,8.46875 C8.40625,8.57813 7.90625,8.67188 7.40625,8.67188 C5.79688,8.67188 4.59375,8.07813 3.90625,6.76563 C3.59375,6.26563 3.40625,5.67188 3.40625,5.0625 C3.40625,3.96875 4.09375,2.65625 5.20313,1.5625 C6.90625,-0.140625 10.2031,-2.23438 13.7969,-4.23438 C17.4063,-6.23438 21,-7.73438 23.4063,-8.23438 C23.9063,-8.34375 24.4063,-8.4375 24.9063,-8.4375 C26.5,-8.4375 27.7969,-7.84375 28.5,-6.54688 C28.7969,-6.04688 28.9063,-5.4375 28.9063,-4.84375 C28.9063,-3.73438 28.2969,-2.54688 27.2031,-1.34375"/>
<path class="Note" transform="matrix(2.24,0,0,2.24,2813.88,630.866)" d="M31.5,-8.14063 C29.7031,-11.4375 25.9063,-13.2344 21.2969,-13.2344 C17.9063,-13.2344 14.2031,-12.2344 10.5938,-10.3438 C4,-6.84375 0,-0.9375 0,4.15625 C0,5.5625 0.296875,6.96875 1,8.26563 C2.79688,11.5781 6.59375,13.2813 11.2031,13.2813 C14.5938,13.2813 18.2969,12.375 21.9063,10.4844 C28.5,6.96875 32.5,1.0625 32.5,-4.04688 C32.5,-5.4375 32.2031,-6.84375 31.5,-8.14063 M27.2031,-1.34375 C25.5,0.359375 22.0938,2.45313 18.5,4.46875 C14.9063,6.46875 11.2969,7.96875 8.90625,8.46875 C8.40625,8.57813 7.90625,8.67188 7.40625,8.67188 C5.79688,8.67188 4.59375,8.07813 3.90625,6.76563 C3.59375,6.26563 3.40625,5.67188 3.40625,5.0625 C3.40625,3.96875 4.09375,2.65625 5.20313,1.5625 C6.90625,-0.140625 10.2031,-2.23438 13.7969,-4.23438 C17.4063,-6.23438 21,-7.73438 23.4063,-8.23438 C23.9063,-8.34375 24.4063,-8.4375 24.9063,-8.4375 C26.5,-8.4375 27.7969,-7.84375 28.5,-6.54688 C28.7969,-6.04688 28.9063,-5.4375 28.9063,-4.84375 C28.9063,-3.73438 28.2969,-2.54688 27.2031,-1.34375"/>
<path class="Note" transform="matrix(2.24,0,0,2.24,3148.48,546.866)" d="M31.5,-8.14063 C29.7031,-11.4375 25.9063,-13.2344 21.2969,-13.2344 C17.9063,-13.2344 14.2031,-12.2344 10.5938,-10.3438 C4,-6.84375 0,-0.9375 0,4.15625 C0,5.5625 0.296875,6.96875 1,8.26563 C2.79688,11.5781 6.59375,13.2813 11.2031,13.2813 C14.5938,13.2813 18.2969,12.375 21.9063,10.4844 C28.5,6.96875 32.5,1.0625 32.5,-4.04688 C32.5,-5.4375 32.2031,-6.84375 31.5,-8.14063 M27.2031,-1.34375 C25.5,0.359375 22.0938,2.45313 18.5,4.46875 C14.9063,6.46875 11.2969,7.96875 8.90625,8.46875 C8.40625,8.57813 7.90625,8.67188 7.40625,8.67188 C5.79688,8.67188 4.59375,8.07813 3.90625,6.76563 C3.59375,6.26563 3.40625,5.67188 3.40625,5.0625 C3.40625,3.96875 4.09375,2.65625 5.20313,1.5625 C6.90625,-0.140625 10.2031,-2.23438 13.7969,-4.23438 C17.4063,-6.23438 21,-7.73438 23.4063,-8.23438 C23.9063,-8.34375 24.4063,-8.4375 24.9063,-8.4375 C26.5,-8.4375 27.7969,-7.84375 28.5,-6.54688 C28.7969,-6.04688 28.9063,-5.4375 28.9063,-4.84375 C28.9063,-3.73438 28.2969,-2.54688 27.2031,-1.34375"/>
<path class="Note" transform="matrix(2.24,0,0,2.24,3691.74,490.866)" d="M18.7031,-13.5938 C4.90625,-13.5938 0,-6.59375 0,-0.09375 C0,6.40625 4.90625,13.4063 18.7031,13.4063 C32.5,13.4063 37.2969,6.40625 37.2969,-0.09375 C37.2969,-6.59375 32.5,-13.5938 18.7031,-13.5938 M10.4063,-4.5 C10.2969,-4.90625 10.2969,-5.29688 10.2969,-5.70313 C10.2969,-6.5 10.5,-7.29688 10.9063,-8 C11.5938,-9 12.7969,-9.70313 14.2969,-10 C15.5938,-10.2969 16.2969,-10.5 18.9063,-10.5 L19,-10.5 C23,-10.5 24.2969,-6.79688 25.4063,-3 L25.7031,-2 C26.5,0.59375 26.9063,2.79688 26.9063,4.5 C26.9063,5.70313 26.7031,6.79688 26.2969,7.59375 C25.7031,8.70313 24.7031,9.40625 23,9.79688 C22.0938,10 20.5938,10.0938 20.5938,10.0938 C20.0938,10.0938 19.7031,10.2031 19.2969,10.2031 C16.0938,10.2031 14.0938,9 12.7031,4.70313 C11.5,1 11.2969,-0.09375 10.4063,-4.5"/>
<path class="Note" transform="matrix(2.24,0,0,2.24,777.656,1249.64)" d="M31.5,-8.14063 C29.7031,-11.4375 25.9063,-13.2344 21.2969,-13.2344 C17.9063,-13.2344 14.2031,-12.2344 10.5938,-10.3438 C4,-6.84375 0,-0.9375 0,4.15625 C0,5.5625 0.296875,6.96875 1,8.26563 C2.79688,11.5781 6.59375,13.2813 11.2031,13.2813 C14.5938,13.2813 18.2969,12.375 21.9063,10.4844 C28.5,6.96875 32.5,1.0625 32.5,-4.04688 C32.5,-5.4375 32.2031,-6.84375 31.5,-8.14063 M27.2031,-1.34375 C25.5,0.359375 22.0938,2.45313 18.5,4.46875 C14.9063,6.46875 11.2969,7.96875 8.90625,8.46875 C8.40625,8.57813 7.90625,8.67188 7.40625,8.67188 C5.79688,8.67188 4.59375,8.07813 3.90625,6.76563 C3.59375,6.26563 3.40625,5.67188 3.40625,5.0625 C3.40625,3.96875 4.09375,2.65625 5.20313,1.5625 C6.90625,-0.140625 10.2031,-2.23438 13.7969,-4.23438 C17.4063,-6.23438 21,-7.73438 23.4063,-8.23438 C23.9063,-8.34375 24.4063,-8.4375 24.9063,-8.4375 C26.5,-8.4375 27.7969,-7.84375 28.5,-6.54688 C28.7969,-6.04688 28.9063,-5.4375 28.9063,-4.84375 C28.9063,-3.73438 28.2969,-2.54688 27.2031,-1.34375"/>
<path class="Note" transform="matrix(2.24,0,0,2.24,1081.41,1389.64)" d="M31.5,-8.14063 C29.7031,-11.4375 25.9063,-13.2344 21.2969,-13.2344 C17.9063,-13.2344 14.2031,-12.2344 10.5938,-10.3438 C4,-6.84375 0,-0.9375 0,4.15625 C0,5.5625 0.296875,6.96875 1,8.26563 C2.79688,11.5781 6.59375,13.2813 11.2031,13.2813 C14.5938,13.2813 18.2969,12.375 21.9063,10.4844 C28.5,6.96875 32.5,1.0625 32.5,-4.04688 C32.5,-5.4375 32.2031,-6.84375 31.5,-8.14063 M27.2031,-1.34375 C25.5,0.359375 22.0938,2.45313 18.5,4.46875 C14.9063,6.46875 11.2969,7.96875 8.90625,8.46875 C8.40625,8.57813 7.90625,8.67188 7.40625,8.67188 C5.79688,8.67188 4.59375,8.07813 3.90625,6.76563 C3.59375,6.26563 3.40625,5.67188 3.40625,5.0625 C3.40625,3.96875 4.09375,2.65625 5.20313,1.5625 C6.90625,-0.140625 10.2031,-2.23438 13.7969,-4.23438 C17.4063,-6.23438 21,-7.73438 23.4063,-8.23438 C23.9063,-8.34375 24.4063,-8.4375 24.9063,-8.4375 C26.5,-8.4375 27.7969,-7.84375 28.5,-6.54688 C28.7969,-6.04688 28.9063,-5.4375 28.9063,-4.84375 C28.9063,-3.73438 28.2969,-2.54688 27.2031,-1.34375"/>
<path class="Note" transform="matrix(2.24,0,0,2.24,1865.96,1165.64)" d="M31.5,-8.14063 C29.7031,-11.4375 25.9063,-13.2344 21.2969,-13.2344 C17.9063,-13.2344 14.2031,-12.2344 10.5938,-10.3438 C4,-6.84375 0,-0.9375 0,4.15625 C0,5.5625 0.296875,6.96875 1,8.26563 C2.79688,11.5781 6.59375,13.2813 11.2031,13.2813 C14.5938,13.2813 18.2969,12.375 21.9063,10.4844 C28.5,6.96875 32.5,1.0625 32.5,-4.04688 C32.5,-5.4375 32.2031,-6.84375 31.5,-8.14063 M27.2031,-1.34375 C25.5,0.359375 22.0938,2.45313 18.5,4.46875 C14.9063,6.46875 11.2969,7.96875 8.90625,8.46875 C8.40625,8.57813 7.90625,8.67188 7.40625,8.67188 C5.79688,8.67188 4.59375,8.07813 3.90625,6.76563 C3.59375,6.26563 3.40625,5.67188 3.40625,5.0625 C3.40625,3.96875 4.09375,2.65625 5.20313,1.5625 C6.90625,-0.140625 10.2031,-2.23438 13.7969,-4.23438 C17.4063,-6.23438 21,-7.73438 23.4063,-8.23438 C23.9063,-8.34375 24.4063,-8.4375 24.9063,-8.4375 C26.5,-8.4375 27.7969,-7.84375 28.5,-6.54688 C28.7969,-6.04688 28.9063,-5.4375 28.9063,-4.84375 C28.9063,-3.73438 28.2969,-2.54688 27.2031,-1.34375"/>
<path class="Note" transform="matrix(2.24,0,0,2.24,2245,1109.64)" d="M31.5,-8.09375 C29.7031,-11.4063 25.9063,-13.2031 21.2969,-13.2031 C17.9063,-13.2031 14.2031,-12.2031 10.5938,-10.2969 C4,-6.79688 0,-0.90625 0,4.20313 C0,5.59375 0.296875,7 1,8.29688 C2.79688,11.5938 6.59375,13.2969 11.2031,13.2969 C14.5938,13.2969 18.2969,12.4063 21.9063,10.5 C28.5,7 32.5,1.09375 32.5,-4 C32.5,-5.40625 32.2031,-6.79688 31.5,-8.09375"/>
<path class="Note" transform="matrix(2.24,0,0,2.24,2488.58,1053.64)" d="M31.5,-8.09375 C29.7031,-11.4063 25.9063,-13.2031 21.2969,-13.2031 C17.9063,-13.2031 14.2031,-12.2031 10.5938,-10.2969 C4,-6.79688 0,-0.90625 0,4.20313 C0,5.59375 0.296875,7 1,8.29688 C2.79688,11.5938 6.59375,13.2969 11.2031,13.2969 C14.5938,13.2969 18.2969,12.4063 21.9063,10.5 C28.5,7 32.5,1.09375 32.5,-4 C32.5,-5.40625 32.2031,-6.79688 31.5,-8.09375"/>
<path class="Note" transform="matrix(2.24,0,0,2.24,2969.04,1137.64)" d="M31.5,-8.09375 C29.7031,-11.4063 25.9063,-13.2031 21.2969,-13.2031 C17.9063,-13.2031 14.2031,-12.2031 10.5938,-10.2969 C4,-6.79688 0,-0.90625 0,4.20313 C0,5.59375 0.296875,7 1,8.29688 C2.79688,11.5938 6.59375,13.2969 11.2031,13.2969 C14.5938,13.2969 18.2969,12.4063 21.9063,10.5 C28.5,7 32.5,1.09375 32.5,-4 C32.5,-5.40625 32.2031,-6.79688 31.5,-8.09375"/>
<path class="Note" transform="matrix(2.24,0,0,2.24,3173.43,1165.64)" d="M31.5,-8.09375 C29.7031,-11.4063 25.9063,-13.2031 21.2969,-13.2031 C17.9063,-13.2031 14.2031,-12.2031 10.5938,-10.2969 C4,-6.79688 0,-0.90625 0,4.20313 C0,5.59375 0.296875,7 1,8.29688 C2.79688,11.5938 6.59375,13.2969 11.2031,13.2969 C14.5938,13.2969 18.2969,12.4063 21.9063,10.5 C28.5,7 32.5,1.09375 32.5,-4 C32.5,-5.40625 32.2031,-6.79688 31.5,-8.09375"/>
<path class="Note" transform="matrix(2.24,0,0,2.24,3377.81,1137.64)" d="M31.5,-8.09375 C29.7031,-11.4063 25.9063,-13.2031 21.2969,-13.2031 C17.9063,-13.2031 14.2031,-12.2031 10.5938,-10.2969 C4,-6.79688 0,-0.90625 0,4.20313 C0,5.59375 0.296875,7 1,8.29688 C2.79688,11.5938 6.59375,13.2969 11.2031,13.2969 C14.5938,13.2969 18.2969,12.4063 21.9063,10.5 C28.5,7 32.5,1.09375 32.5,-4 C32.5,-5.40625 32.2031,-6.79688 31.5,-8.09375"/>
<path class="Note" transform="matrix(2.24,0,0,2.24,3630.29,1165.64)" d="M31.5,-8.14063 C29.7031,-11.4375 25.9063,-13.2344 21.2969,-13.2344 C17.9063,-13.2344 14.2031,-12.2344 10.5938,-10.3438 C4,-6.84375 0,-0.9375 0,4.15625 C0,5.5625 0.296875,6.96875 1,8.26563 C2.79688,11.5781 6.59375,13.2813 11.2031,13.2813 C14.5938,13.2813 18.2969,12.375 21.9063,10.4844 C28.5,6.96875 32.5,1.0625 32.5,-4.04688 C32.5,-5.4375 32.2031,-6.84375 31.5,-8.14063 M27.2031,-1.34375 C25.5,0.359375 22.0938,2.45313 18.5,4.46875 C14.9063,6.46875 11.2969,7.96875 8.90625,8.46875 C8.40625,8.57813 7.90625,8.67188 7.40625,8.67188 C5.79688,8.67188 4.59375,8.07813 3.90625,6.76563 C3.59375,6.26563 3.40625,5.67188 3.40625,5.0625 C3.40625,3.96875 4.09375,2.65625 5.20313,1.5625 C6.90625,-0.140625 10.2031,-2.23438 13.7969,-4.23438 C17.4063,-6.23438 21,-7.73438 23.4063,-8.23438 C23.9063,-8.34375 24.4063,-8.4375 24.9063,-8.4375 C26.5,-8.4375 27.7969,-7.84375 28.5,-6.54688 C28.7969,-6.04688 28.9063,-5.4375 28.9063,-4.84375 C28.9063,-3.73438 28.2969,-2.54688 27.2031,-1.34375"/>
<path class="Note" transform="matrix(2.24,0,0,2.24,777.656,1840.42)" d="M31.5,-8.09375 C29.7031,-11.4063 25.9063,-13.2031 21.2969,-13.2031 C17.9063,-13.2031 14.2031,-12.2031 10.5938,-10.2969 C4,-6.79688 0,-0.90625 0,4.20313 C0,5.59375 0.296875,7 1,8.29688 C2.79688,11.5938 6.59375,13.2969 11.2031,13.2969 C14.5938,13.2969 18.2969,12.4063 21.9063,10.5 C28.5,7 32.5,1.09375 32.5,-4 C32.5,-5.40625 32.2031,-6.79688 31.5,-8.09375"/>
<path class="Note" transform="matrix(2.24,0,0,2.24,989.343,1868.42)" d="M31.5,-8.09375 C29.7031,-11.4063 25.9063,-13.2031 21.2969,-13.2031 C17.9063,-13.2031 14.2031,-12.2031 10.5938,-10.2969 C4,-6.79688 0,-0.90625 0,4.20313 C0,5.59375 0.296875,7 1,8.29688 C2.79688,11.5938 6.59375,13.2969 11.2031,13.2969 C14.5938,13.2969 18.2969,12.4063 21.9063,10.5 C28.5,7 32.5,1.09375 32.5,-4 C32.5,-5.40625 32.2031,-6.79688 31.5,-8.09375"/>
<path class="Note" transform="matrix(2.24,0,0,2.24,1201.03,1840.42)" d="M31.5,-8.09375 C29.7031,-11.4063 25.9063,-13.2031 21.2969,-13.2031 C17.9063,-13.2031 14.2031,-12.2031 10.5938,-10.2969 C4,-6.79688 0,-0.90625 0,4.20313 C0,5.59375 0.296875,7 1,8.29688 C2.79688,11.5938 6.59375,13.2969 11.2031,13.2969 C14.5938,13.2969 18.2969,12.4063 21.9063,10.5 C28.5,7 32.5,1.09375 32.5,-4 C32.5,-5.40625 32.2031,-6.79688 31.5,-8.09375"/>
<path class="Note" transform="matrix(2.24,0,0,2.24,1539.73,1868.42)" d="M31.5,-8.14063 C29.7031,-11.4375 25.9063,-13.2344 21.2969,-13.2344 C17.9063,-13.2344 14.2031,-12.2344 10.5938,-10.3438 C4,-6.84375 0,-0.9375 0,4.15625 C0,5.5625 0.296875,6.96875 1,8.26563 C2.79688,11.5781 6.59375,13.2813 11.2031,13.2813 C14.5938,13.2813 18.2969,12.375 21.9063,10.4844 C28.5,6.96875 32.5,1.0625 32.5,-4.04688 C32.5,-5.4375 32.2031,-6.84375 31.5,-8.14063 M27.2031,-1.34375 C25.5,0.359375 22.0938,2.45313 18.5,4.46875 C14.9063,6.46875 11.2969,7.96875 8.90625,8.46875 C8.40625,8.57813 7.90625,8.67188 7.40625,8.67188 C5.79688,8.67188 4.59375,8.07813 3.90625,6.76563 C3.59375,6.26563 3.40625,5.67188 3.40625,5.0625 C3.40625,3.96875 4.09375,2.65625 5.20313,1.5625 C6.90625,-0.140625 10.2031,-2.23438 13.7969,-4.23438 C17.4063,-6.23438 21,-7.73438 23.4063,-8.23438 C23.9063,-8.34375 24.4063,-8.4375 24.9063,-8.4375 C26.5,-8.4375 27.7969,-7.84375 28.5,-6.54688 C28.7969,-6.04688 28.9063,-5.4375 28.9063,-4.84375 C28.9063,-3.73438 28.2969,-2.54688 27.2031,-1.34375"/>
<path class="Note" transform="matrix(2.24,0,0,2.24,2132.45,1896.42)" d="M31.5,-8.09375 C29.7031,-11.4063 25.9063,-13.2031 21.2969,-13.2031 C17.9063,-13.2031 14.2031,-12.2031 10.5938,-10.2969 C4,-6.79688 0,-0.90625 0,4.20313 C0,5.59375 0.296875,7 1,8.29688 C2.79688,11.5938 6.59375,13.2969 11.2031,13.2969 C14.5938,13.2969 18.2969,12.4063 21.9063,10.5 C28.5,7 32.5,1.09375 32.5,-4 C32.5,-5.40625 32.2031,-6.79688 31.5,-8.09375"/>
<path class="Note" transform="matrix(2.24,0,0,2.24,2471.15,1924.42)" d="M31.5,-8.09375 C29.7031,-11.4063 25.9063,-13.2031 21.2969,-13.2031 C17.9063,-13.2031 14.2031,-12.2031 10.5938,-10.2969 C4,-6.79688 0,-0.90625 0,4.20313 C0,5.59375 0.296875,7 1,8.29688 C2.79688,11.5938 6.59375,13.2969 11.2031,13.2969 C14.5938,13.2969 18.2969,12.4063 21.9063,10.5 C28.5,7 32.5,1.09375 32.5,-4 C32.5,-5.40625 32.2031,-6.79688 31.5,-8.09375"/>
<path class="Note" transform="matrix(2.24,0,0,2.24,3013.13,1952.42)" d="M31.5,-8.14063 C29.7031,-11.4375 25.9063,-13.2344 21.2969,-13.2344 C17.9063,-13.2344 14.2031,-12.2344 10.5938,-10.3438 C4,-6.84375 0,-0.9375 0,4.15625 C0,5.5625 0.296875,6.96875 1,8.26563 C2.79688,11.5781 6.59375,13.2813 11.2031,13.2813 C14.5938,13.2813 18.2969,12.375 21.9063,10.4844 C28.5,6.96875 32.5,1.0625 32.5,-4.04688 C32.5,-5.4375 32.2031,-6.84375 31.5,-8.14063 M27.2031,-1.34375 C25.5,0.359375 22.0938,2.45313 18.5,4.46875 C14.9063,6.46875 11.2969,7.96875 8.90625,8.46875 C8.40625,8.57813 7.90625,8.67188 7.40625,8.67188 C5.79688,8.67188 4.59375,8.07813 3.90625,6.76563 C3.59375,6.26563 3.40625,5.67188 3.40625,5.0625 C3.40625,3.96875 4.09375,2.65625 5.20313,1.5625 C6.90625,-0.140625 10.2031,-2.23438 13.7969,-4.23438 C17.4063,-6.23438 21,-7.73438 23.4063,-8.23438 C23.9063,-8.34375 24.4063,-8.4375 24.9063,-8.4375 C26.5,-8.4375 27.7969,-7.84375 28.5,-6.54688 C28.7969,-6.04688 28.9063,-5.4375 28.9063,-4.84375 C28.9063,-3.73438 28.2969,-2.54688 27.2031,-1.34375"/>
<path class="Clef" transform="matrix(2.24,0,0,2.24,236.066,630.866)" d="M63.3594,-5.92188 C62.125,-11.3438 59.4844,-15.1719 58.7031,-16.2031 C55.5156,-20.4844 51.5,-23.3281 46.8125,-24.6875 C43.7031,-25.5625 40.7031,-25.6875 38.2813,-25.5 C37.2344,-31.5156 36.2344,-37.3906 35.3281,-42.8438 C40.7813,-49.0156 44.4063,-54.8125 46.6875,-59.1094 C50.1563,-65.6875 51.2969,-70.2656 51.3594,-70.4688 C53.0781,-75.6875 53.4375,-83.3906 52.3281,-91.5938 C51.3281,-99.1406 49.2344,-105.859 46.875,-109.109 C45.8594,-110.531 44.7969,-111.266 43.7656,-111.266 C42.5469,-111.266 40.0313,-110.031 37.1406,-107.25 C34.8438,-105.063 31.5781,-101.172 29.0156,-95.1563 C26.0156,-88.0938 25.7969,-78.6094 26.1563,-71.8906 C26.5313,-64.6094 27.6406,-58.9219 27.6563,-58.875 C27.6719,-58.7813 27.9375,-57.2813 28.375,-54.7188 C28.1563,-54.4844 27.9063,-54.2656 27.6563,-54.0156 C26.625,-53.0156 25.4375,-51.8906 24.0469,-50.5 C23.1875,-49.6406 22.2344,-48.7344 21.2344,-47.7656 C12.7969,-39.625 0,-27.2969 0,-8.14063 C0,-3.4375 0.90625,0.984375 2.6875,5 C4.26563,8.59375 6.5625,11.875 9.5,14.75 C17.2344,22.3125 27.8281,25.5156 34.875,25.3594 C37.8281,25.2813 40.4688,25.0469 42.8594,24.5938 C44.6875,34.2031 45.8281,41.2344 45.8594,46.5781 C45.9063,53.0938 44.25,57.0781 40.3594,59.8438 C37.9219,61.5781 35.1094,62.5313 32.0156,62.6719 C29.4219,62.7969 27.1563,62.3281 25.7344,61.9219 L25.7188,61.9219 C25.7188,61.9219 25.4375,61.8281 25.4219,61.6406 C25.4063,61.4531 25.7656,61.4063 25.7656,61.4063 L25.7969,61.4063 C27.7188,60.9688 31.2813,59.7344 33.6406,56.4375 C35.4375,53.9063 36.3125,49.2813 34.4688,45.3438 C33.3594,42.9531 30.8594,40 25.2344,39.5469 C22.7344,39.3438 20.4688,39.8594 18.4688,41.0625 C16.6563,42.1406 15.1563,43.7813 14.1094,45.7813 C11.6563,50.4844 12.1094,56.2188 15.2344,60.0625 C18.2031,63.6875 22.8125,66 28.25,66.5781 C29.1094,66.6719 29.9531,66.7031 30.7969,66.7031 C35.2344,66.7031 39.625,65.5 43.2031,63.2969 C46.8594,60.7188 48.9844,56.7344 49.6563,51.1094 C50.2188,46.4688 49.8281,40.5469 48.4375,32.4688 C48.0781,30.375 47.5313,27.3438 46.875,23.5938 C52.625,21.6719 56.7813,18.0938 60.5469,12.2344 C63.8438,6.5 64.7813,0.390625 63.3594,-5.92188 M29.1406,20.2969 C24.5,19.0781 20.0625,16.5781 16.3125,13.0625 C15,11.8438 13.125,9.67188 11.6563,6.28125 C10.2969,3.10938 9.625,-0.328125 9.6875,-3.90625 C9.75,-8.60938 11.0625,-13.4375 13.5625,-18.2188 C16.4844,-23.7969 21.0469,-29.3281 27.1094,-34.6563 C28.5625,-35.9375 29.9375,-37.2188 31.2188,-38.5 C31.9844,-34.2344 32.8125,-29.5469 33.6875,-24.6719 C29.8438,-23.4063 25.0938,-20.25 21.9844,-14.5938 C18.4375,-8.03125 18.5781,-2.5 19.3125,0.984375 C20.25,5.4375 22.7813,9.20313 26.2344,11.2969 C27.1719,11.8594 31.2969,13.9844 33.1406,13.4063 C33.5156,13.2969 33.7813,13.0625 33.9219,12.7344 C34.4375,11.5625 33.4063,10.9219 31.8594,9.96875 C31.25,9.59375 30.5781,9.17188 29.8594,8.64063 C26.5313,6.15625 25.0781,1.70313 26.1563,-2.6875 C26.7344,-5.07813 28.0156,-7.25 29.8594,-8.95313 C31.5156,-10.5 33.5625,-11.5938 35.9375,-12.2344 C37.9844,-0.984375 40.0469,10.1719 41.6875,18.5313 C41.8125,19.2188 41.9531,19.8906 42.0781,20.5625 C37.7031,21.5 33.3594,21.4063 29.1406,20.2969 M40.4688,-12.9063 C50.8125,-13.375 55.0781,-5.9375 55.9688,-1.10938 C56.4375,1.4375 56.4375,5.875 54.8906,10.0938 C53.7188,13.2656 51.2656,17.3438 46.125,19.4063 C46.0625,18.9844 45.9844,18.5469 45.9063,18.125 C44.3594,9.34375 42.4219,-1.65625 40.4688,-12.9063 M33.1406,-83.8594 C34.9219,-89.5938 37.6563,-92.8438 39.6563,-94.5781 C41.4063,-96.0938 43.0469,-96.8125 43.9688,-96.8125 C44.1094,-96.8125 44.2344,-96.7813 44.3281,-96.75 C44.7969,-96.6094 45.3281,-96.0469 45.7969,-95.1719 C48.1094,-90.8906 47.3594,-84.1719 46.0156,-79.7344 C44.3906,-74.3281 41.4688,-68.7188 32.6719,-59.1094 C32.5,-60.2188 32.3438,-61.2656 32.1875,-62.25 C30.9375,-70.5313 31.2656,-77.8125 33.1406,-83.8594"/>
<path class="Clef" transform="matrix(2.24,0,0,2.24,236.066,1333.64)" d="M63.3594,-5.92188 C62.125,-11.3438 59.4844,-15.1719 58.7031,-16.2031 C55.5156,-20.4844 51.5,-23.3281 46.8125,-24.6875 C43.7031,-25.5625 40.7031,-25.6875 38.2813,-25.5 C37.2344,-31.5156 36.2344,-37.3906 35.3281,-42.8438 C40.7813,-49.0156 44.4063,-54.8125 46.6875,-59.1094 C50.1563,-65.6875 51.2969,-70.2656 51.3594,-70.4688 C53.0781,-75.6875 53.4375,-83.3906 52.3281,-91.5938 C51.3281,-99.1406 49.2344,-105.859 46.875,-109.109 C45.8594,-110.531 44.7969,-111.266 43.7656,-111.266 C42.5469,-111.266 40.0313,-110.031 37.1406,-107.25 C34.8438,-105.063 31.5781,-101.172 29.0156,-95.1563 C26.0156,-88.0938 25.7969,-78.6094 26.1563,-71.8906 C26.5313,-64.6094 27.6406,-58.9219 27.6563,-58.875 C27.6719,-58.7813 27.9375,-57.2813 28.375,-54.7188 C28.1563,-54.4844 27.9063,-54.2656 27.6563,-54.0156 C26.625,-53.0156 25.4375,-51.8906 24.0469,-50.5 C23.1875,-49.6406 22.2344,-48.7344 21.2344,-47.7656 C12.7969,-39.625 0,-27.2969 0,-8.14063 C0,-3.4375 0.90625,0.984375 2.6875,5 C4.26563,8.59375 6.5625,11.875 9.5,14.75 C17.2344,22.3125 27.8281,25.5156 34.875,25.3594 C37.8281,25.2813 40.4688,25.0469 42.8594,24.5938 C44.6875,34.2031 45.8281,41.2344 45.8594,46.5781 C45.9063,53.0938 44.25,57.0781 40.3594,59.8438 C37.9219,61.5781 35.1094,62.5313 32.0156,62.6719 C29.4219,62.7969 27.1563,62.3281 25.7344,61.9219 L25.7188,61.9219 C25.7188,61.9219 25.4375,61.8281 25.4219,61.6406 C25.4063,61.4531 25.7656,61.4063 25.7656,61.4063 L25.7969,61.4063 C27.7188,60.9688 31.2813,59.7344 33.6406,56.4375 C35.4375,53.9063 36.3125,49.2813 34.4688,45.3438 C33.3594,42.9531 30.8594,40 25.2344,39.5469 C22.7344,39.3438 20.4688,39.8594 18.4688,41.0625 C16.6563,42.1406 15.1563,43.7813 14.1094,45.7813 C11.6563,50.4844 12.1094,56.2188 15.2344,60.0625 C18.2031,63.6875 22.8125,66 28.25,66.5781 C29.1094,66.6719 29.9531,66.7031 30.7969,66.7031 C35.2344,66.7031 39.625,65.5 43.2031,63.2969 C46.8594,60.7188 48.9844,56.7344 49.6563,51.1094 C50.2188,46.4688 49.8281,40.5469 48.4375,32.4688 C48.0781,30.375 47.5313,27.3438 46.875,23.5938 C52.625,21.6719 56.7813,18.0938 60.5469,12.2344 C63.8438,6.5 64.7813,0.390625 63.3594,-5.92188 M29.1406,20.2969 C24.5,19.0781 20.0625,16.5781 16.3125,13.0625 C15,11.8438 13.125,9.67188 11.6563,6.28125 C10.2969,3.10938 9.625,-0.328125 9.6875,-3.90625 C9.75,-8.60938 11.0625,-13.4375 13.5625,-18.2188 C16.4844,-23.7969 21.0469,-29.3281 27.1094,-34.6563 C28.5625,-35.9375 29.9375,-37.2188 31.2188,-38.5 C31.9844,-34.2344 32.8125,-29.5469 33.6875,-24.6719 C29.8438,-23.4063 25.0938,-20.25 21.9844,-14.5938 C18.4375,-8.03125 18.5781,-2.5 19.3125,0.984375 C20.25,5.4375 22.7813,9.20313 26.2344,11.2969 C27.1719,11.8594 31.2969,13.9844 33.1406,13.4063 C33.5156,13.2969 33.7813,13.0625 33.9219,12.7344 C34.4375,11.5625 33.4063,10.9219 31.8594,9.96875 C31.25,9.59375 30.5781,9.17188 29.8594,8.64063 C26.5313,6.15625 25.0781,1.70313 26.1563,-2.6875 C26.7344,-5.07813 28.0156,-7.25 29.8594,-8.95313 C31.5156,-10.5 33.5625,-11.5938 35.9375,-12.2344 C37.9844,-0.984375 40.0469,10.1719 41.6875,18.5313 C41.8125,19.2188 41.9531,19.8906 42.0781,20.5625 C37.7031,21.5 33.3594,21.4063 29.1406,20.2969 M40.4688,-12.9063 C50.8125,-13.375 55.0781,-5.9375 55.9688,-1.10938 C56.4375,1.4375 56.4375,5.875 54.8906,10.0938 C53.7188,13.2656 51.2656,17.3438 46.125,19.4063 C46.0625,18.9844 45.9844,18.5469 45.9063,18.125 C44.3594,9.34375 42.4219,-1.65625 40.4688,-12.9063 M33.1406,-83.8594 C34.9219,-89.5938 37.6563,-92.8438 39.6563,-94.5781 C41.4063,-96.0938 43.0469,-96.8125 43.9688,-96.8125 C44.1094,-96.8125 44.2344,-96.7813 44.3281,-96.75 C44.7969,-96.6094 45.3281,-96.0469 45.7969,-95.1719 C48.1094,-90.8906 47.3594,-84.1719 46.0156,-79.7344 C44.3906,-74.3281 41.4688,-68.7188 32.6719,-59.1094 C32.5,-60.2188 32.3438,-61.2656 32.1875,-62.25 C30.9375,-70.5313 31.2656,-77.8125 33.1406,-83.8594"/>
<path class="Clef" transform="matrix(2.24,0,0,2.24,236.066,2036.42)" d="M63.3594,-5.92188 C62.125,-11.3438 59.4844,-15.1719 58.7031,-16.2031 C55.5156,-20.4844 51.5,-23.3281 46.8125,-24.6875 C43.7031,-25.5625 40.7031,-25.6875 38.2813,-25.5 C37.2344,-31.5156 36.2344,-37.3906 35.3281,-42.8438 C40.7813,-49.0156 44.4063,-54.8125 46.6875,-59.1094 C50.1563,-65.6875 51.2969,-70.2656 51.3594,-70.4688 C53.0781,-75.6875 53.4375,-83.3906 52.3281,-91.5938 C51.3281,-99.1406 49.2344,-105.859 46.875,-109.109 C45.8594,-110.531 44.7969,-111.266 43.7656,-111.266 C42.5469,-111.266 40.0313,-110.031 37.1406,-107.25 C34.8438,-105.063 31.5781,-101.172 29.0156,-95.1563 C26.0156,-88.0938 25.7969,-78.6094 26.1563,-71.8906 C26.5313,-64.6094 27.6406,-58.9219 27.6563,-58.875 C27.6719,-58.7813 27.9375,-57.2813 28.375,-54.7188 C28.1563,-54.4844 27.9063,-54.2656 27.6563,-54.0156 C26.625,-53.0156 25.4375,-51.8906 24.0469,-50.5 C23.1875,-49.6406 22.2344,-48.7344 21.2344,-47.7656 C12.7969,-39.625 0,-27.2969 0,-8.14063 C0,-3.4375 0.90625,0.984375 2.6875,5 C4.26563,8.59375 6.5625,11.875 9.5,14.75 C17.2344,22.3125 27.8281,25.5156 34.875,25.3594 C37.8281,25.2813 40.4688,25.0469 42.8594,24.5938 C44.6875,34.2031 45.8281,41.2344 45.8594,46.5781 C45.9063,53.0938 44.25,57.0781 40.3594,59.8438 C37.9219,61.5781 35.1094,62.5313 32.0156,62.6719 C29.4219,62.7969 27.1563,62.3281 25.7344,61.9219 L25.7188,61.9219 C25.7188,61.9219 25.4375,61.8281 25.4219,61.6406 C25.4063,61.4531 25.7656,61.4063 25.7656,61.4063 L25.7969,61.4063 C27.7188,60.9688 31.2813,59.7344 33.6406,56.4375 C35.4375,53.9063 36.3125,49.2813 34.4688,45.3438 C33.3594,42.9531 30.8594,40 25.2344,39.5469 C22.7344,39.3438 20.4688,39.8594 18.4688,41.0625 C16.6563,42.1406 15.1563,43.7813 14.1094,45.7813 C11.6563,50.4844 12.1094,56.2188 15.2344,60.0625 C18.2031,63.6875 22.8125,66 28.25,66.5781 C29.1094,66.6719 29.9531,66.7031 30.7969,66.7031 C35.2344,66.7031 39.625,65.5 43.2031,63.2969 C46.8594,60.7188 48.9844,56.7344 49.6563,51.1094 C50.2188,46.4688 49.8281,40.5469 48.4375,32.4688 C48.0781,30.375 47.5313,27.3438 46.875,23.5938 C52.625,21.6719 56.7813,18.0938 60.5469,12.2344 C63.8438,6.5 64.7813,0.390625 63.3594,-5.92188 M29.1406,20.2969 C24.5,19.0781 20.0625,16.5781 16.3125,13.0625 C15,11.8438 13.125,9.67188 11.6563,6.28125 C10.2969,3.10938 9.625,-0.328125 9.6875,-3.90625 C9.75,-8.60938 11.0625,-13.4375 13.5625,-18.2188 C16.4844,-23.7969 21.0469,-29.3281 27.1094,-34.6563 C28.5625,-35.9375 29.9375,-37.2188 31.2188,-38.5 C31.9844,-34.2344 32.8125,-29.5469 33.6875,-24.6719 C29.8438,-23.4063 25.0938,-20.25 21.9844,-14.5938 C18.4375,-8.03125 18.5781,-2.5 19.3125,0.984375 C20.25,5.4375 22.7813,9.20313 26.2344,11.2969 C27.1719,11.8594 31.2969,13.9844 33.1406,13.4063 C33.5156,13.2969 33.7813,13.0625 33.9219,12.7344 C34.4375,11.5625 33.4063,10.9219 31.8594,9.96875 C31.25,9.59375 30.5781,9.17188 29.8594,8.64063 C26.5313,6.15625 25.0781,1.70313 26.1563,-2.6875 C26.7344,-5.07813 28.0156,-7.25 29.8594,-8.95313 C31.5156,-10.5 33.5625,-11.5938 35.9375,-12.2344 C37.9844,-0.984375 40.0469,10.1719 41.6875,18.5313 C41.8125,19.2188 41.9531,19.8906 42.0781,20.5625 C37.7031,21.5 33.3594,21.4063 29.1406,20.2969 M40.4688,-12.9063 C50.8125,-13.375 55.0781,-5.9375 55.9688,-1.10938 C56.4375,1.4375 56.4375,5.875 54.8906,10.0938 C53.7188,13.2656 51.2656,17.3438 46.125,19.4063 C46.0625,18.9844 45.9844,18.5469 45.9063,18.125 C44.3594,9.34375 42.4219,-1.65625 40.4688,-12.9063 M33.1406,-83.8594 C34.9219,-89.5938 37.6563,-92.8438 39.6563,-94.5781 C41.4063,-96.0938 43.0469,-96.8125 43.9688,-96.8125 C44.1094,-96.8125 44.2344,-96.7813 44.3281,-96.75 C44.7969,-96.6094 45.3281,-96.0469 45.7969,-95.1719 C48.1094,-90.8906 47.3594,-84.1719 46.0156,-79.7344 C44.3906,-74.3281 41.4688,-68.7188 32.6719,-59.1094 C32.5,-60.2188 32.3438,-61.2656 32.1875,-62.25 C30.9375,-70.5313 31.2656,-77.8125 33.1406,-83.8594"/>
<path class="KeySig" transform="matrix(2.24,0,0,2.24,555.791,574.866)" d="M20.0938,-7.90625 C19.5,-11.7969 17.0938,-15.5 12,-15.5 C7,-15.5 4.09375,-12.4063 3.59375,-11.7969 L4,-43.9063 C4,-44.7031 3.40625,-45.2969 2.59375,-45.2969 L1.40625,-45.2969 C0.59375,-45.2969 0,-44.7031 0,-43.9063 L0.5,16.2031 C0.5,17 1.09375,17.5938 1.90625,17.5938 C2.09375,17.5938 2.5,17.5 2.70313,17.4063 C3.09375,17.2031 9.59375,14 15,7.90625 C18.7969,3.59375 20.2969,-1.29688 20.2969,-5.40625 C20.2969,-6.29688 20.2031,-7.09375 20.0938,-7.90625 M13.2031,-4 C13.2031,-2.5 12.7969,2.09375 10.2969,5.90625 C8.59375,8.5 5.20313,11.2031 3.29688,12.7031 L3.59375,-6.79688 C3.79688,-7.70313 5.29688,-10.5938 9.29688,-10.5938 C12.9063,-10.5938 13.2031,-7.20313 13.2031,-5.09375 L13.2031,-4 "/>
<path class="KeySig" transform="matrix(2.24,0,0,2.24,555.791,1277.64)" d="M20.0938,-7.90625 C19.5,-11.7969 17.0938,-15.5 12,-15.5 C7,-15.5 4.09375,-12.4063 3.59375,-11.7969 L4,-43.9063 C4,-44.7031 3.40625,-45.2969 2.59375,-45.2969 L1.40625,-45.2969 C0.59375,-45.2969 0,-44.7031 0,-43.9063 L0.5,16.2031 C0.5,17 1.09375,17.5938 1.90625,17.5938 C2.09375,17.5938 2.5,17.5 2.70313,17.4063 C3.09375,17.2031 9.59375,14 15,7.90625 C18.7969,3.59375 20.2969,-1.29688 20.2969,-5.40625 C20.2969,-6.29688 20.2031,-7.09375 20.0938,-7.90625 M13.2031,-4 C13.2031,-2.5 12.7969,2.09375 10.2969,5.90625 C8.59375,8.5 5.20313,11.2031 3.29688,12.7031 L3.59375,-6.79688 C3.79688,-7.70313 5.29688,-10.5938 9.29688,-10.5938 C12.9063,-10.5938 13.2031,-7.20313 13.2031,-5.09375 L13.2031,-4 "/>
<path class="KeySig" transform="matrix(2.24,0,0,2.24,555.791,1980.42)" d="M20.0938,-7.90625 C19.5,-11.7969 17.0938,-15.5 12,-15.5 C7,-15.5 4.09375,-12.4063 3.59375,-11.7969 L4,-43.9063 C4,-44.7031 3.40625,-45.2969 2.59375,-45.2969 L1.40625,-45.2969 C0.59375,-45.2969 0,-44.7031 0,-43.9063 L0.5,16.2031 C0.5,17 1.09375,17.5938 1.90625,17.5938 C2.09375,17.5938 2.5,17.5 2.70313,17.4063 C3.09375,17.2031 9.59375,14 15,7.90625 C18.7969,3.59375 20.2969,-1.29688 20.2969,-5.40625 C20.2969,-6.29688 20.2031,-7.09375 20.0938,-7.90625 M13.2031,-4 C13.2031,-2.5 12.7969,2.09375 10.2969,5.90625 C8.59375,8.5 5.20313,11.2031 3.29688,12.7031 L3.59375,-6.79688 C3.79688,-7.70313 5.29688,-10.5938 9.29688,-10.5938 C12.9063,-10.5938 13.2031,-7.20313 13.2031,-5.09375 L13.2031,-4 "/>
<path class="TimeSig" transform="matrix(2.24,0,0,2.24,774.576,519.163)" d="M3.59375,12.625 L20.7656,12.625 L20.7656,20.0781 L12.5469,20.0781 C11.7656,20.0781 11.125,20.7031 11.125,21.4844 L11.125,23.3906 C11.125,24.1719 11.7656,24.7969 12.5469,24.7969 L42.7969,24.7969 C43.5781,24.7969 44.2031,24.1719 44.2031,23.3906 L44.2031,21.4844 C44.2031,20.7031 43.5781,20.0781 42.7969,20.0781 L33.8594,20.0781 L33.8594,12.625 L42.7969,12.625 C43.5781,12.625 44.2031,12 44.2031,11.2188 L44.2031,9.3125 C44.2031,8.53125 43.5781,7.90625 42.7969,7.90625 L33.8594,7.90625 L33.8594,-8.0625 C33.8594,-8.59375 33.5469,-9.07813 33.0781,-9.3125 L31.8594,-9.92188 C31.3281,-10.1719 30.7031,-10.0781 30.2656,-9.6875 L21.2188,-1.375 C20.9375,-1.09375 20.7656,-0.734375 20.7656,-0.328125 L20.7656,7.90625 L9.25,7.90625 C9.25,7.90625 20.375,-4.125 32.2188,-19.8906 C33.0781,-21.0469 32.5781,-22.0938 32.3906,-22.2813 L30.2188,-24.4844 C29.9531,-24.75 29.5938,-24.9063 29.2188,-24.9063 C28.625,-24.9063 15.0625,-24.875 14.3438,-24.9063 C13.625,-24.9219 13.0938,-24.2969 13.0156,-23.6875 C13.0156,-23.6875 12.4844,-16.3281 9.875,-8.1875 C7.28125,-0.078125 4.34375,4.90625 1.6875,8.53125 C1.6875,8.53125 1.14063,9.51563 1.5,10.2656 C1.84375,11.0156 2.48438,12.0938 2.48438,12.0938 C2.48438,12.0938 2.73438,12.625 3.59375,12.625"/>
<path class="TimeSig" transform="matrix(2.24,0,0,2.24,774.576,630.568)" d="M3.59375,12.625 L20.7656,12.625 L20.7656,20.0781 L12.5469,20.0781 C11.7656,20.0781 11.125,20.7031 11.125,21.4844 L11.125,23.3906 C11.125,24.1719 11.7656,24.7969 12.5469,24.7969 L42.7969,24.7969 C43.5781,24.7969 44.2031,24.1719 44.2031,23.3906 L44.2031,21.4844 C44.2031,20.7031 43.5781,20.0781 42.7969,20.0781 L33.8594,20.0781 L33.8594,12.625 L42.7969,12.625 C43.5781,12.625 44.2031,12 44.2031,11.2188 L44.2031,9.3125 C44.2031,8.53125 43.5781,7.90625 42.7969,7.90625 L33.8594,7.90625 L33.8594,-8.0625 C33.8594,-8.59375 33.5469,-9.07813 33.0781,-9.3125 L31.8594,-9.92188 C31.3281,-10.1719 30.7031,-10.0781 30.2656,-9.6875 L21.2188,-1.375 C20.9375,-1.09375 20.7656,-0.734375 20.7656,-0.328125 L20.7656,7.90625 L9.25,7.90625 C9.25,7.90625 20.375,-4.125 32.2188,-19.8906 C33.0781,-21.0469 32.5781,-22.0938 32.3906,-22.2813 L30.2188,-24.4844 C29.9531,-24.75 29.5938,-24.9063 29.2188,-24.9063 C28.625,-24.9063 15.0625,-24.875 14.3438,-24.9063 C13.625,-24.9219 13.0938,-24.2969 13.0156,-23.6875 C13.0156,-23.6875 12.4844,-16.3281 9.875,-8.1875 C7.28125,-0.078125 4.34375,4.90625 1.6875,8.53125 C1.6875,8.53125 1.14063,9.51563 1.5,10.2656 C1.84375,11.0156 2.48438,12.0938 2.48438,12.0938 C2.48438,12.0938 2.73438,12.625 3.59375,12.625"/>
<path class="Rest" transform="matrix(2.24,0,0,2.24,1393.15,518.866)" d="M31.1094,-0.5 L1.40625,-0.5 C0.59375,-0.5 0,0.09375 0,0.90625 L0,11.7031 C0,12.5 0.59375,13.0938 1.40625,13.0938 L31.1094,13.0938 C31.9063,13.0938 32.5,12.5 32.5,11.7031 L32.5,0.90625 C32.5,0.09375 31.9063,-0.5 31.1094,-0.5"/>
<path class="Rest" transform="matrix(2.24,0,0,2.24,3691.1,1980.42)" d="M23.2031,16.9063 L23,16.5938 C22.9063,16.5 22.7031,16.2969 22.4063,15.9063 L10.9063,1.70313 C10.5938,1.40625 10.7031,0.59375 10.9063,0.203125 L21.0938,-15.2031 C21.2031,-15.4063 21.2969,-15.7031 21.2969,-15.9063 L21.2969,-16.7969 C21.2969,-17.0938 21.2031,-17.4063 21,-17.5938 L4.79688,-39.5 C4.79688,-39.5 4,-40.7031 3,-39.7969 C2,-39 2.79688,-37.7031 2.79688,-37.7031 L10.4063,-27.2969 C10.7969,-26.7031 10.7969,-25.5 10.4063,-24.9063 L0.296875,-9.5 C0.203125,-9.29688 0.09375,-8.90625 0.09375,-8.70313 L0.09375,-7.79688 C0.09375,-7.5 0.203125,-7.20313 0.40625,-7 L11.5938,6.90625 C11.2031,6.79688 10.2969,6.59375 9.09375,6.59375 C7.40625,6.59375 5.20313,7 3.40625,8.59375 C1.20313,10.5938 0,13.4063 0,15.9063 C0,17.2969 0.296875,18.7031 1.09375,19.7969 C3.20313,23 10.7031,32.5 10.7031,32.5 C10.7031,32.5 11.5938,33.6094 12.5,32.9063 C13.4063,32.2031 13.2031,31.2969 12.9063,30.7969 C12.5938,30.2969 9.40625,24.5 9.40625,24.5 C9.40625,24.5 8.70313,23.0938 8.70313,21.2969 C8.70313,20 9.09375,18.4063 10.4063,17.0938 C11.5938,15.9063 13,15.5 14.2969,15.5 C15.5938,15.5 16.7031,15.9063 17.5,16.4063 L21.4063,18.9063 C21.4063,18.9063 22.5938,19.5 23.2031,18.5938 C23.7031,17.7969 23.5,17.4063 23.2031,16.9063"/>
<path class="Beam" fill-rule="evenodd" d="M2969.04,1319.64 L3383.97,1319.64 L3383.97,1347.64 L2969.04,1347.64 L2969.04,1319.64 "/>
<path class="Beam" fill-rule="evenodd" d="M2969.04,1277.64 L3179.59,1277.64 L3179.59,1305.64 L2969.04,1305.64 L2969.04,1277.64 "/>
<path class="Beam" fill-rule="evenodd" d="M777.656,2022.42 L1207.19,2022.42 L1207.19,2050.42 L777.656,2050.42 L777.656,2022.42 "/>
<path class="Beam" fill-rule="evenodd" d="M777.656,1980.42 L995.503,1980.42 L995.503,2008.42 L777.656,2008.42 L777.656,1980.42 "/>
<path class="Beam" fill-rule="evenodd" d="M2132.45,2064.41 L2477.31,2078.66 L2477.31,2106.68 L2132.45,2092.43 L2132.45,2064.41 "/>
<path class="StaffText" d="M1984.72,191.348 L1980.02,191.348 L1954.27,256.645 C1951.24,265.38 1948.33,268.067 1941.94,268.52 L1941.51,268.52 L1941.51,273.786 L1971.18,273.786 L1971.18,268.52 L1968.94,268.52 C1962.9,268.52 1959.87,266.395 1959.87,262.145 C1959.87,260.677 1960.21,259.333 1960.88,257.427 L1964.57,247.583 L1994.26,247.583 L2000.3,262.583 C2000.97,264.38 2001.19,265.052 2001.19,265.614 C2001.19,267.395 1998.4,268.52 1994.26,268.52 L1989.55,268.52 L1989.55,273.786 L2024.27,273.786 L2024.27,268.52 L2022.69,268.52 C2016.88,268.411 2015.87,267.739 2013.29,261.348 L1984.72,191.348 M1979.24,209.723 L1991.9,241.536 L1966.82,241.536 L1979.24,209.723 M2045.66,221.598 L2026.29,222.833 L2026.29,227.645 L2030.32,227.645 C2034.57,227.755 2035.13,228.427 2035.13,233.239 L2035.13,260.005 L2035.13,262.692 L2035.13,265.27 C2035.02,266.958 2034.9,267.63 2034.46,268.192 C2033.68,269.192 2031.54,269.645 2026.72,269.755 L2026.29,269.755 L2026.29,273.786 L2054.62,273.786 L2054.62,269.755 L2054.16,269.755 C2046.66,269.536 2045.66,268.973 2045.66,264.942 L2045.66,260.005 L2045.66,248.364 C2045.66,242.88 2046.44,237.833 2047.68,235.255 C2050.02,230.223 2055.07,226.739 2059.88,226.739 C2062.79,226.739 2066.15,228.317 2067.83,230.661 C2069.51,233.13 2070.3,236.489 2070.3,241.864 L2070.3,260.005 L2070.3,265.27 C2070.18,266.958 2070.07,267.63 2069.63,268.192 C2068.83,269.192 2066.6,269.645 2061.79,269.755 L2061.33,269.755 L2061.33,273.786 L2089.68,273.786 L2089.68,269.755 L2089.22,269.755 C2081.83,269.536 2080.82,268.973 2080.82,264.942 L2080.82,260.005 L2080.82,242.427 C2080.82,234.364 2080.49,232.348 2078.47,228.536 C2075.68,223.161 2070.07,219.911 2063.35,219.911 C2056.07,219.911 2050.58,223.27 2045.66,230.661 L2045.66,221.598 M2134.24,274.567 L2153.72,273.786 L2153.72,268.973 L2151.71,268.973 C2145.32,268.63 2144.77,267.958 2144.77,260.802 L2144.77,191.239 L2122.82,192.473 L2122.82,197.286 L2129.43,197.286 C2133.68,197.395 2134.24,198.067 2134.24,202.895 L2134.24,228.208 C2130.1,222.489 2125.27,219.911 2118.79,219.911 C2106.13,219.911 2096.49,232.13 2096.49,248.255 C2096.49,264.161 2105.79,275.473 2118.79,275.473 C2125.83,275.473 2130.65,272.442 2134.24,265.723 L2134.24,274.567 M2121.02,225.958 C2125.62,225.958 2129.97,229.317 2131.99,234.473 C2133.46,237.833 2134.13,242.427 2134.13,247.911 C2134.13,261.02 2128.97,269.411 2120.91,269.411 C2112.96,269.411 2108.26,262.02 2108.26,249.598 C2108.26,242.88 2108.93,237.833 2110.38,234.145 C2112.29,229.098 2116.43,225.958 2121.02,225.958 M2237.71,237.723 C2237.71,230.661 2236.47,227.083 2233.22,224.395 C2229.54,221.364 2224.04,219.911 2216.88,219.911 C2204.22,219.911 2195.04,225.848 2195.04,234.02 C2195.04,238.177 2197.62,240.864 2201.54,240.864 C2205.12,240.864 2207.58,238.505 2207.58,235.145 C2207.58,233.692 2207.02,232.13 2205.9,230.552 C2205.22,229.77 2205.12,229.552 2205.12,228.989 C2205.12,226.739 2209.6,224.723 2214.97,224.723 C2218.55,224.723 2222.47,225.848 2224.27,227.536 C2226.4,229.317 2227.18,232.005 2227.18,237.052 L2227.18,241.411 C2215.54,243.427 2211.83,244.333 2206.35,246.458 C2196.6,250.036 2192.01,255.192 2192.01,262.364 C2192.01,270.427 2198.29,275.473 2208.26,275.473 C2215.97,275.473 2222.93,272.333 2227.74,266.614 C2229.54,272.333 2232.33,274.567 2237.6,274.567 C2242.63,274.567 2247.9,271.317 2247.9,268.067 C2247.9,267.286 2247.46,266.723 2246.79,266.723 C2246.33,266.723 2245.88,266.848 2245.1,267.177 C2243.54,267.848 2242.87,267.958 2241.96,267.958 C2238.83,267.958 2237.71,265.942 2237.71,260.239 L2237.71,237.723 M2227.18,251.38 C2227.18,258.098 2226.85,259.677 2224.94,262.583 C2222.15,266.723 2217.1,269.536 2212.18,269.536 C2207.02,269.536 2203.32,265.833 2203.32,260.802 C2203.32,256.083 2205.68,252.723 2210.6,250.38 C2214.07,248.817 2218.44,247.692 2227.18,246.239 L2227.18,251.38 M2271.76,221.598 L2252.38,222.833 L2252.38,227.645 L2256.41,227.645 C2260.66,227.755 2261.22,228.427 2261.22,233.239 L2261.22,260.005 L2261.22,262.692 L2261.22,265.27 C2261.12,266.958 2260.99,267.63 2260.55,268.192 C2259.77,269.192 2257.63,269.645 2252.82,269.755 L2252.38,269.755 L2252.38,273.786 L2280.71,273.786 L2280.71,269.755 L2280.26,269.755 C2272.76,269.536 2271.76,268.973 2271.76,264.942 L2271.76,260.005 L2271.76,248.364 C2271.76,242.88 2272.54,237.833 2273.77,235.255 C2276.12,230.223 2281.16,226.739 2285.97,226.739 C2288.88,226.739 2292.24,228.317 2293.93,230.661 C2295.6,233.13 2296.4,236.489 2296.4,241.864 L2296.4,260.005 L2296.4,265.27 C2296.27,266.958 2296.16,267.63 2295.72,268.192 C2294.93,269.192 2292.69,269.645 2287.88,269.755 L2287.43,269.755 L2287.43,273.786 L2315.77,273.786 L2315.77,269.755 L2315.32,269.755 C2307.93,269.536 2306.91,268.973 2306.91,264.942 L2306.91,260.005 L2306.91,242.427 C2306.91,234.364 2306.58,232.348 2304.57,228.536 C2301.77,223.161 2296.16,219.911 2289.44,219.911 C2282.16,219.911 2276.68,223.27 2271.76,230.661 L2271.76,221.598 M2346.55,259.567 L2334.24,230.77 C2333.79,229.661 2333.57,229.098 2333.57,228.536 C2333.57,226.411 2334.91,225.63 2338.72,225.63 L2341.07,225.63 L2341.07,221.598 L2314.41,221.598 L2314.41,225.63 L2315.65,225.63 C2319.46,225.739 2320.91,226.864 2323.26,231.677 L2341.52,273.005 L2339.62,276.927 C2335.58,285.427 2330.32,291.364 2326.74,291.364 C2325.72,291.364 2324.94,290.927 2324.94,290.255 C2324.94,290.02 2325.05,289.692 2325.16,289.239 C2325.51,288.239 2325.72,287.223 2325.72,286.333 C2325.72,283.411 2323.38,281.286 2320.02,281.286 C2316.1,281.286 2313.3,284.208 2313.3,288.239 C2313.3,293.27 2317.55,296.864 2323.49,296.864 C2329.43,296.864 2334.46,293.942 2338.94,287.895 C2342.41,283.302 2344.66,278.598 2349.58,266.395 L2362.35,234.692 C2364.93,228.208 2367.4,225.739 2371.76,225.63 L2372.43,225.63 L2372.43,221.598 L2350.04,221.598 L2350.04,225.63 L2351.82,225.63 C2356.08,225.63 2357.87,226.864 2357.87,229.77 C2357.87,231.005 2357.54,232.348 2356.76,234.255 L2346.55,259.567 M2394.83,221.598 L2394.83,199.411 L2390.24,199.411 C2389.12,213.973 2384.19,221.364 2375.12,222.036 L2375.12,226.411 L2384.3,226.411 L2384.3,254.973 C2384.3,262.817 2384.52,265.614 2385.65,268.192 C2387.44,272.895 2391.91,275.473 2398.41,275.473 C2408.49,275.473 2414.99,267.848 2414.99,255.973 C2414.99,255.302 2414.99,254.52 2414.88,253.395 L2410.18,253.395 C2409.83,263.489 2406.93,268.63 2401.43,268.63 C2398.87,268.63 2396.62,267.286 2395.83,265.38 C2395.16,263.817 2394.83,261.02 2394.83,256.989 L2394.83,226.411 L2411.29,226.411 L2411.29,221.598 L2394.83,221.598 M2439.74,221.598 L2418.68,222.833 L2418.68,227.645 L2424.4,227.645 C2428.65,227.755 2429.21,228.427 2429.21,233.239 L2429.21,260.005 L2429.21,265.27 C2429.1,266.958 2428.97,267.63 2428.54,268.192 C2427.76,269.192 2425.62,269.645 2420.8,269.755 L2420.02,269.755 L2420.02,273.786 L2449.04,273.786 L2449.04,269.755 L2448.24,269.755 C2440.74,269.536 2439.74,268.973 2439.74,264.942 L2439.74,260.005 L2439.74,221.598 M2434.47,193.708 C2430.88,193.708 2427.97,196.614 2427.97,200.208 C2427.97,203.786 2430.88,206.692 2434.37,206.692 C2438.05,206.692 2440.96,203.786 2440.96,200.208 C2440.96,196.614 2438.05,193.708 2434.47,193.708 M2474.44,221.598 L2454.51,222.833 L2454.51,227.645 L2459.1,227.645 C2463.35,227.755 2463.91,228.427 2463.91,233.239 L2463.91,260.005 L2463.91,264.38 L2463.91,265.27 C2463.8,266.958 2463.69,267.63 2463.24,268.192 C2462.46,269.192 2460.33,269.645 2455.51,269.755 L2455.07,269.755 L2455.07,273.786 L2483.29,273.786 L2483.29,269.755 L2482.83,269.755 C2475.44,269.536 2474.44,268.973 2474.44,264.833 L2474.44,260.005 L2474.44,244.098 C2474.44,234.145 2479.93,226.739 2487.21,226.739 C2493.58,226.739 2496.83,231.333 2496.83,240.411 L2496.83,260.005 L2496.83,265.38 C2496.72,266.848 2496.62,267.63 2496.05,268.192 C2495.38,269.192 2493.15,269.645 2488.33,269.755 L2487.88,269.755 L2487.88,273.786 L2516.21,273.786 L2516.21,269.755 L2515.77,269.755 C2508.38,269.536 2507.37,268.973 2507.37,264.942 L2507.37,260.005 L2507.37,245.114 C2507.37,233.911 2512.41,226.739 2520.24,226.739 C2526.63,226.739 2529.77,231.567 2529.77,241.645 L2529.77,260.005 L2529.77,265.27 C2529.66,266.848 2529.54,267.63 2528.99,268.192 C2528.32,269.192 2526.07,269.645 2521.26,269.755 L2520.8,269.755 L2520.8,273.786 L2549.15,273.786 L2549.15,269.755 L2548.69,269.755 C2541.3,269.536 2540.3,268.973 2540.3,264.833 L2540.3,260.005 L2540.3,239.395 C2540.3,232.458 2539.63,230.098 2536.71,226.302 C2533.46,222.161 2528.87,219.911 2523.49,219.911 C2516.21,219.911 2510.83,223.38 2506.02,231.114 C2504.12,224.395 2498.07,219.911 2490.57,219.911 C2483.74,219.911 2478.8,223.161 2474.44,230.223 L2474.44,221.598 M2603.57,248.583 C2603.68,231.786 2594.16,219.911 2580.51,219.911 C2566.16,219.911 2555.41,232.348 2555.41,249.145 C2555.41,264.942 2565.6,275.473 2580.72,275.473 C2591.47,275.473 2598.97,270.208 2603.57,259.567 L2599.65,257.427 C2595.05,266.052 2590.35,269.411 2582.85,269.411 C2577.13,269.411 2572.99,267.067 2570.08,262.02 C2568.07,258.661 2567.18,254.739 2567.29,248.583 L2603.57,248.583 M2567.4,243.77 C2567.4,240.302 2567.85,237.833 2568.96,234.692 C2571.32,227.973 2574.9,224.723 2580.38,224.723 C2587.1,224.723 2591.58,230.661 2591.58,239.739 C2591.58,242.88 2590.58,243.77 2586.99,243.77 L2567.4,243.77 "/>
<path class="StaffText" d="M1974.99,393.567 L1962.68,364.77 C1962.22,363.661 1962.01,363.098 1962.01,362.536 C1962.01,360.411 1963.35,359.63 1967.16,359.63 L1969.51,359.63 L1969.51,355.598 L1942.85,355.598 L1942.85,359.63 L1944.08,359.63 C1947.9,359.739 1949.35,360.864 1951.69,365.677 L1969.96,407.005 L1968.05,410.927 C1964.02,419.427 1958.76,425.364 1955.18,425.364 C1954.16,425.364 1953.38,424.927 1953.38,424.255 C1953.38,424.02 1953.49,423.692 1953.6,423.239 C1953.94,422.239 1954.16,421.223 1954.16,420.333 C1954.16,417.411 1951.82,415.286 1948.46,415.286 C1944.54,415.286 1941.74,418.208 1941.74,422.239 C1941.74,427.27 1945.99,430.864 1951.93,430.864 C1957.87,430.864 1962.9,427.942 1967.38,421.895 C1970.85,417.302 1973.1,412.598 1978.02,400.395 L1990.79,368.692 C1993.37,362.208 1995.83,359.739 2000.19,359.63 L2000.87,359.63 L2000.87,355.598 L1978.47,355.598 L1978.47,359.63 L1980.26,359.63 C1984.52,359.63 1986.3,360.864 1986.3,363.77 C1986.3,365.005 1985.97,366.348 1985.19,368.255 L1974.99,393.567 M2026.51,353.911 C2012.74,353.911 2002.1,366.13 2002.1,381.802 C2002.1,397.145 2012.85,409.473 2026.29,409.473 C2039.72,409.473 2050.47,397.145 2050.47,381.692 C2050.47,366.348 2039.72,353.911 2026.51,353.911 M2026.51,358.723 C2034.35,358.723 2038.72,366.911 2038.72,381.692 C2038.72,396.583 2034.35,404.645 2026.29,404.645 C2018.22,404.645 2013.85,396.583 2013.85,381.802 C2013.85,366.567 2018.12,358.723 2026.51,358.723 M2100.43,408.567 L2120.82,407.786 L2120.82,402.973 L2118.02,402.973 C2111.52,402.739 2110.96,402.067 2110.96,394.802 L2110.96,355.598 L2089.9,356.833 L2089.9,361.645 L2095.62,361.645 C2099.87,361.755 2100.43,362.427 2100.43,367.239 L2100.43,381.02 C2100.43,387.395 2099.76,391.208 2098.08,394.802 C2095.72,399.833 2091.24,402.63 2085.76,402.63 C2082.29,402.63 2079.38,401.395 2077.91,399.161 C2076.46,397.036 2076.24,395.911 2076.24,389.755 L2076.24,355.598 L2056.65,356.833 L2056.65,361.645 L2060.9,361.645 C2065.15,361.755 2065.71,362.427 2065.71,367.239 L2065.71,391.427 C2065.71,397.145 2066.16,399.723 2067.83,402.302 C2070.87,406.895 2076.24,409.473 2082.96,409.473 C2090.35,409.473 2095.51,406.442 2100.43,399.27 L2100.43,408.567 M2176.35,355.598 L2176.35,349.208 C2176.35,343.614 2176.68,339.911 2177.58,337.677 C2179.37,332.739 2183.29,329.723 2187.77,329.723 C2190.12,329.723 2191.58,330.395 2191.58,331.63 C2191.58,332.067 2191.58,332.192 2190.91,333.083 C2190.24,334.083 2189.9,335.427 2189.9,336.661 C2189.9,340.02 2192.58,342.598 2196.05,342.598 C2199.76,342.598 2202.33,339.802 2202.33,335.77 C2202.33,329.27 2196.72,325.239 2187.66,325.239 C2179.93,325.239 2174.22,327.927 2170.3,333.536 C2166.94,338.239 2165.82,343.052 2165.82,352.13 L2165.82,355.598 L2155.96,355.598 L2155.96,360.411 L2165.82,360.411 L2165.82,394.005 L2165.82,396.692 L2165.82,399.27 C2165.71,400.848 2165.6,401.52 2165.15,402.192 C2164.37,403.192 2162.24,403.645 2157.41,403.755 L2156.97,403.755 L2156.97,407.786 L2186.88,407.786 L2186.88,403.755 L2184.87,403.755 C2177.35,403.536 2176.35,402.973 2176.35,398.942 L2176.35,394.005 L2176.35,360.411 L2188.66,360.411 L2188.66,355.598 L2176.35,355.598 M2240.16,382.583 C2240.27,365.786 2230.76,353.911 2217.1,353.911 C2202.76,353.911 2192.01,366.348 2192.01,383.145 C2192.01,398.942 2202.19,409.473 2217.32,409.473 C2228.07,409.473 2235.57,404.208 2240.16,393.567 L2236.24,391.427 C2231.65,400.052 2226.94,403.411 2219.44,403.411 C2213.72,403.411 2209.58,401.067 2206.68,396.02 C2204.66,392.661 2203.77,388.739 2203.88,382.583 L2240.16,382.583 M2203.99,377.77 C2203.99,374.302 2204.44,371.833 2205.55,368.692 C2207.91,361.973 2211.49,358.723 2216.97,358.723 C2223.69,358.723 2228.18,364.661 2228.18,373.739 C2228.18,376.88 2227.18,377.77 2223.58,377.77 L2203.99,377.77 M2296.16,382.583 C2296.27,365.786 2286.76,353.911 2273.1,353.911 C2258.76,353.911 2248.01,366.348 2248.01,383.145 C2248.01,398.942 2258.19,409.473 2273.32,409.473 C2284.07,409.473 2291.57,404.208 2296.16,393.567 L2292.24,391.427 C2287.65,400.052 2282.94,403.411 2275.44,403.411 C2269.72,403.411 2265.58,401.067 2262.68,396.02 C2260.66,392.661 2259.77,388.739 2259.88,382.583 L2296.16,382.583 M2259.99,377.77 C2259.99,374.302 2260.44,371.833 2261.55,368.692 C2263.91,361.973 2267.49,358.723 2272.97,358.723 C2279.69,358.723 2284.18,364.661 2284.18,373.739 C2284.18,376.88 2283.18,377.77 2279.58,377.77 L2259.99,377.77 M2320.24,325.239 L2299.52,326.473 L2299.52,331.286 L2305.01,331.286 C2309.16,331.395 2309.71,332.067 2309.71,336.895 L2309.71,394.005 L2309.71,399.27 C2309.6,400.958 2309.49,401.63 2309.04,402.192 C2308.26,403.192 2306.13,403.645 2301.32,403.755 L2300.54,403.755 L2300.54,407.786 L2329.54,407.786 L2329.54,403.755 L2328.76,403.755 C2321.26,403.536 2320.24,402.973 2320.24,398.942 L2320.24,394.005 L2320.24,325.239 M2385.52,355.598 L2385.52,333.411 L2380.93,333.411 C2379.8,347.973 2374.88,355.364 2365.8,356.036 L2365.8,360.411 L2374.99,360.411 L2374.99,388.973 C2374.99,396.817 2375.21,399.614 2376.33,402.192 C2378.13,406.895 2382.6,409.473 2389.1,409.473 C2399.18,409.473 2405.68,401.848 2405.68,389.973 C2405.68,389.302 2405.68,388.52 2405.57,387.395 L2400.87,387.395 C2400.52,397.489 2397.62,402.63 2392.12,402.63 C2389.55,402.63 2387.3,401.286 2386.52,399.38 C2385.85,397.817 2385.52,395.02 2385.52,390.989 L2385.52,360.411 L2401.97,360.411 L2401.97,355.598 L2385.52,355.598 M2429.65,325.239 L2408.93,326.473 L2408.93,331.286 L2414.3,331.286 C2418.55,331.395 2419.12,332.067 2419.12,336.895 L2419.12,394.005 L2419.12,396.692 L2419.12,399.38 C2419.01,400.958 2418.88,401.63 2418.44,402.192 C2417.66,403.192 2415.52,403.645 2410.71,403.755 L2410.27,403.755 L2410.27,407.786 L2438.6,407.786 L2438.6,403.755 L2438.15,403.755 C2430.65,403.536 2429.65,402.973 2429.65,398.942 L2429.65,394.005 L2429.65,382.364 C2429.65,376.88 2430.43,371.833 2431.66,369.255 C2434.12,364.223 2439.05,360.739 2443.87,360.739 C2446.77,360.739 2450.13,362.427 2451.71,364.661 C2453.49,367.13 2454.29,370.489 2454.29,375.973 L2454.29,394.005 L2454.29,399.38 C2454.16,400.958 2454.05,401.63 2453.62,402.192 C2452.82,403.192 2450.58,403.645 2445.77,403.755 L2445.32,403.755 L2445.32,407.786 L2473.66,407.786 L2473.66,403.755 L2473.21,403.755 C2465.82,403.536 2464.8,402.973 2464.8,398.942 L2464.8,394.005 L2464.8,376.427 C2464.8,368.364 2464.47,366.348 2462.46,362.536 C2459.66,357.052 2454.05,353.911 2447.33,353.911 C2440.05,353.911 2434.68,357.161 2429.65,364.661 L2429.65,325.239 M2527.74,382.583 C2527.85,365.786 2518.33,353.911 2504.68,353.911 C2490.33,353.911 2479.58,366.348 2479.58,383.145 C2479.58,398.942 2489.77,409.473 2504.9,409.473 C2515.65,409.473 2523.15,404.208 2527.74,393.567 L2523.82,391.427 C2519.22,400.052 2514.52,403.411 2507.02,403.411 C2501.3,403.411 2497.16,401.067 2494.26,396.02 C2492.24,392.661 2491.35,388.739 2491.46,382.583 L2527.74,382.583 M2491.57,377.77 C2491.57,374.302 2492.02,371.833 2493.13,368.692 C2495.49,361.973 2499.07,358.723 2504.55,358.723 C2511.27,358.723 2515.76,364.661 2515.76,373.739 C2515.76,376.88 2514.76,377.77 2511.16,377.77 L2491.57,377.77 "/>
<path class="StaffText" d="M2591.24,354.817 L2564.8,355.598 L2564.8,361.302 L2566.49,361.302 C2573.43,361.411 2573.76,361.864 2573.65,372.177 L2573.65,414.286 L2573.65,419.552 L2573.65,420.333 C2573.54,421.895 2573.43,422.567 2572.97,423.239 C2572.3,424.255 2570.07,424.692 2565.26,424.817 L2564.8,424.817 L2564.8,430.411 L2600.97,430.411 L2600.97,424.817 L2599.74,424.817 C2592.13,424.583 2591.24,424.02 2591.24,419.88 L2591.24,414.286 L2591.24,402.192 C2595.71,407.114 2600.76,409.473 2607.15,409.473 C2622.26,409.473 2633.57,396.817 2633.57,379.895 C2633.57,364.442 2623.16,353.13 2608.82,353.13 C2601.08,353.13 2596.27,355.598 2591.24,361.973 L2591.24,354.817 M2603.77,361.536 C2610.62,361.536 2614.19,368.473 2614.19,381.802 C2614.19,394.458 2610.05,401.848 2602.88,401.848 C2595.38,401.848 2591.12,394.802 2591.12,382.145 C2591.12,368.817 2595.6,361.536 2603.77,361.536 M2695.29,372.177 C2695.29,364.895 2693.94,361.411 2690.02,358.177 C2685.88,354.927 2678.93,353.13 2670.08,353.13 C2654.63,353.13 2644.55,358.848 2644.55,367.583 C2644.55,372.395 2648.35,375.973 2653.62,375.973 C2658.88,375.973 2662.8,372.848 2662.8,368.692 C2662.8,367.348 2662.24,365.786 2661.24,364.442 C2660.22,363.098 2660.22,363.098 2660.22,362.536 C2660.22,360.63 2663.93,358.958 2668.4,358.958 C2675.24,358.958 2677.69,361.755 2677.69,369.598 L2677.69,375.411 C2677.13,375.536 2674.9,376.083 2670.76,376.989 C2663.8,378.442 2661.24,379.114 2656.41,380.802 C2646.01,384.27 2641.52,388.973 2641.52,396.364 C2641.52,404.645 2647.79,409.473 2658.77,409.473 C2668.4,409.473 2674.22,407.333 2680.16,401.52 C2682.07,406.552 2686.32,409.473 2692.04,409.473 C2698.41,409.473 2704.35,404.989 2704.35,400.177 C2704.35,399.052 2703.79,398.38 2702.68,398.38 C2702.01,398.38 2701.33,398.598 2700.43,399.161 C2699.43,399.833 2699.08,399.942 2698.3,399.942 C2695.85,399.942 2695.29,398.489 2695.29,391.88 L2695.29,372.177 M2677.69,381.473 L2677.69,387.739 C2677.69,396.364 2673.77,401.848 2667.4,401.848 C2663.02,401.848 2660.22,398.833 2660.22,394.13 C2660.22,388.067 2663.69,384.708 2671.76,382.817 L2677.69,381.473 M2735.37,354.817 L2709.05,355.598 L2709.05,361.302 L2710.62,361.302 C2717.44,361.411 2717.79,361.864 2717.79,371.833 L2717.79,391.661 L2717.79,396.817 L2717.79,397.708 C2717.68,399.27 2717.55,399.942 2717.12,400.614 C2716.44,401.63 2714.19,402.067 2709.49,402.067 L2709.05,402.067 L2709.05,407.786 L2744.1,407.786 L2744.1,402.067 L2743.43,402.067 C2736.38,401.958 2735.37,401.286 2735.37,397.255 L2735.37,391.661 L2735.37,354.817 M2726.3,325.239 C2720.8,325.239 2716.33,329.723 2716.33,335.098 C2716.33,340.583 2720.8,345.067 2726.07,345.067 C2731.79,345.067 2736.15,340.692 2736.15,335.098 C2736.15,329.723 2731.68,325.239 2726.3,325.239 M2775.24,354.817 L2749.58,355.598 L2749.58,361.302 L2751.27,361.302 C2758.21,361.411 2758.55,361.864 2758.44,372.177 L2758.44,391.661 L2758.44,396.817 L2758.44,397.708 C2758.32,399.27 2758.21,399.942 2757.77,400.614 C2756.97,401.63 2754.85,402.067 2750.04,402.067 L2749.58,402.067 L2749.58,407.786 L2783.76,407.786 L2783.76,402.067 C2777.37,402.067 2775.91,401.177 2776.02,397.255 L2776.02,391.661 L2776.02,380.802 C2776.02,375.755 2776.47,372.848 2777.82,370.161 C2779.6,366.13 2783.52,363.552 2787.55,363.552 C2792.82,363.552 2795.74,367.348 2795.74,374.52 L2795.74,391.661 L2795.74,394.802 L2795.74,397.708 C2795.62,399.27 2795.51,399.942 2795.07,400.614 C2793.94,401.739 2791.82,402.192 2788.01,402.067 L2788.01,407.786 L2822.16,407.786 L2822.16,402.067 L2821.72,402.067 C2814.21,401.958 2813.32,401.395 2813.32,397.255 L2813.32,391.661 L2813.32,372.958 C2813.32,366.005 2812.08,361.755 2809.07,358.505 C2806.04,355.036 2801.12,353.13 2795.18,353.13 C2786.32,353.13 2780.72,356.38 2775.24,364.661 L2775.24,354.817 "/>
<polyline class="StaffText" fill="none" stroke="#000000" stroke-width="10.08" stroke-linejoin="bevel" points="2562.4,421.286 2823.4,421.286"/>
<path class="StaffText" d="M1895.19,894.662 L1866.98,894.662 L1866.98,900.818 C1872.02,900.928 1875.93,903.053 1878.85,907.084 L1878.85,951.225 C1879.07,965.662 1876.94,968.912 1866.76,969.475 L1866.76,975.522 L1898.68,975.522 L1898.68,969.475 C1888.26,968.912 1886.13,965.662 1886.35,951.225 L1886.35,914.365 L1938.43,976.303 L1945.93,976.303 L1945.93,918.959 C1945.6,904.522 1947.94,901.147 1958.26,900.709 L1958.26,894.662 L1926.33,894.662 L1926.33,900.709 C1936.52,901.147 1938.66,904.522 1938.43,918.959 L1938.43,945.287 L1895.19,894.662 M2014.02,939.912 C2014.02,932.631 2012.68,929.147 2008.76,925.912 C2004.62,922.662 1997.66,920.865 1988.82,920.865 C1973.37,920.865 1963.29,926.584 1963.29,935.318 C1963.29,940.131 1967.08,943.709 1972.35,943.709 C1977.62,943.709 1981.54,940.584 1981.54,936.428 C1981.54,935.084 1980.98,933.522 1979.98,932.178 C1978.96,930.834 1978.96,930.834 1978.96,930.272 C1978.96,928.365 1982.66,926.693 1987.13,926.693 C1993.98,926.693 1996.43,929.49 1996.43,937.334 L1996.43,943.147 C1995.87,943.272 1993.63,943.818 1989.49,944.725 C1982.54,946.178 1979.98,946.85 1975.15,948.537 C1964.74,952.006 1960.26,956.709 1960.26,964.1 C1960.26,972.381 1966.52,977.209 1977.51,977.209 C1987.13,977.209 1992.96,975.068 1998.9,969.256 C2000.8,974.287 2005.05,977.209 2010.77,977.209 C2017.15,977.209 2023.08,972.725 2023.08,967.912 C2023.08,966.787 2022.52,966.115 2021.41,966.115 C2020.74,966.115 2020.07,966.334 2019.16,966.897 C2018.16,967.568 2017.82,967.678 2017.04,967.678 C2014.58,967.678 2014.02,966.225 2014.02,959.615 L2014.02,939.912 M1996.43,949.209 L1996.43,955.475 C1996.43,964.1 1992.51,969.584 1986.13,969.584 C1981.76,969.584 1978.96,966.568 1978.96,961.865 C1978.96,955.803 1982.43,952.443 1990.49,950.553 L1996.43,949.209 M2033.6,996.35 C2046.04,988.85 2052.54,979.662 2052.54,969.584 C2052.54,961.631 2047.94,956.147 2041.23,956.147 C2035.18,956.147 2030.48,960.959 2030.48,967.115 C2030.48,972.615 2034.51,976.756 2039.76,976.756 C2040.1,976.756 2040.44,976.756 2040.77,976.647 L2041.23,976.647 C2041.55,976.647 2041.66,976.865 2041.66,977.318 C2041.66,981.568 2037.52,986.943 2030.58,991.756 L2033.6,996.35 "/>
<polyline class="StaffText" fill="none" stroke="#000000" stroke-width="10.08" stroke-linejoin="bevel" points="1864.96,989.022 2056.96,989.022"/>
<path class="StaffText" d="M2110.76,923.334 L2091.38,924.568 L2091.38,929.381 L2095.41,929.381 C2099.66,929.49 2100.23,930.162 2100.23,934.975 L2100.23,961.74 L2100.23,964.428 L2100.23,967.006 C2100.12,968.693 2099.99,969.365 2099.55,969.928 C2098.77,970.928 2096.63,971.381 2091.82,971.49 L2091.38,971.49 L2091.38,975.522 L2119.71,975.522 L2119.71,971.49 L2119.26,971.49 C2111.76,971.272 2110.76,970.709 2110.76,966.678 L2110.76,961.74 L2110.76,950.1 C2110.76,944.615 2111.54,939.568 2112.77,936.99 C2115.12,931.959 2120.16,928.475 2124.98,928.475 C2127.88,928.475 2131.24,930.053 2132.93,932.397 C2134.6,934.865 2135.4,938.225 2135.4,943.6 L2135.4,961.74 L2135.4,967.006 C2135.27,968.693 2135.16,969.365 2134.73,969.928 C2133.93,970.928 2131.69,971.381 2126.88,971.49 L2126.43,971.49 L2126.43,975.522 L2154.77,975.522 L2154.77,971.49 L2154.32,971.49 C2146.93,971.272 2145.91,970.709 2145.91,966.678 L2145.91,961.74 L2145.91,944.162 C2145.91,936.1 2145.58,934.084 2143.57,930.272 C2140.77,924.897 2135.16,921.647 2128.44,921.647 C2121.16,921.647 2115.68,925.006 2110.76,932.397 L2110.76,923.334 M2207.4,939.459 C2207.4,932.397 2206.16,928.818 2202.91,926.131 C2199.23,923.1 2193.73,921.647 2186.57,921.647 C2173.91,921.647 2164.73,927.584 2164.73,935.756 C2164.73,939.912 2167.3,942.6 2171.23,942.6 C2174.8,942.6 2177.27,940.24 2177.27,936.881 C2177.27,935.428 2176.71,933.865 2175.58,932.287 C2174.91,931.506 2174.8,931.287 2174.8,930.725 C2174.8,928.475 2179.29,926.459 2184.66,926.459 C2188.24,926.459 2192.16,927.584 2193.96,929.272 C2196.08,931.053 2196.87,933.74 2196.87,938.787 L2196.87,943.147 C2185.23,945.162 2181.52,946.068 2176.04,948.193 C2166.29,951.772 2161.69,956.928 2161.69,964.1 C2161.69,972.162 2167.98,977.209 2177.94,977.209 C2185.66,977.209 2192.62,974.068 2197.43,968.35 C2199.23,974.068 2202.02,976.303 2207.29,976.303 C2212.32,976.303 2217.58,973.053 2217.58,969.803 C2217.58,969.022 2217.15,968.459 2216.48,968.459 C2216.02,968.459 2215.57,968.584 2214.79,968.912 C2213.23,969.584 2212.55,969.693 2211.65,969.693 C2208.52,969.693 2207.4,967.678 2207.4,961.975 L2207.4,939.459 M2196.87,953.115 C2196.87,959.834 2196.54,961.412 2194.63,964.318 C2191.83,968.459 2186.79,971.272 2181.87,971.272 C2176.71,971.272 2173.01,967.568 2173.01,962.537 C2173.01,957.818 2175.37,954.459 2180.29,952.115 C2183.76,950.553 2188.13,949.428 2196.87,947.975 L2196.87,953.115 M2228.44,996.131 C2238.52,989.178 2243.12,982.35 2243.12,974.506 C2243.12,967.787 2239.41,963.428 2233.93,963.428 C2229.79,963.428 2226.65,966.334 2226.65,970.147 C2226.65,974.178 2229.66,976.756 2234.38,976.756 C2234.93,976.756 2235.73,976.756 2236.05,976.647 L2236.4,976.647 C2236.94,976.647 2237.18,976.975 2237.18,977.647 C2237.18,982.35 2233.37,987.615 2225.87,992.881 L2228.44,996.131 M2303.35,923.334 L2283.98,924.568 L2283.98,929.381 L2288.01,929.381 C2292.26,929.49 2292.82,930.162 2292.82,934.975 L2292.82,961.74 L2292.82,964.428 L2292.82,967.006 C2292.71,968.693 2292.58,969.365 2292.15,969.928 C2291.37,970.928 2289.23,971.381 2284.41,971.49 L2283.98,971.49 L2283.98,975.522 L2312.3,975.522 L2312.3,971.49 L2311.85,971.49 C2304.35,971.272 2303.35,970.709 2303.35,966.678 L2303.35,961.74 L2303.35,950.1 C2303.35,944.615 2304.13,939.568 2305.37,936.99 C2307.71,931.959 2312.76,928.475 2317.57,928.475 C2320.48,928.475 2323.83,930.053 2325.52,932.397 C2327.19,934.865 2327.99,938.225 2327.99,943.6 L2327.99,961.74 L2327.99,967.006 C2327.87,968.693 2327.76,969.365 2327.32,969.928 C2326.52,970.928 2324.29,971.381 2319.48,971.49 L2319.02,971.49 L2319.02,975.522 L2347.37,975.522 L2347.37,971.49 L2346.91,971.49 C2339.52,971.272 2338.51,970.709 2338.51,966.678 L2338.51,961.74 L2338.51,944.162 C2338.51,936.1 2338.18,934.084 2336.16,930.272 C2333.37,924.897 2327.76,921.647 2321.04,921.647 C2313.76,921.647 2308.27,925.006 2303.35,932.397 L2303.35,923.334 M2399.99,939.459 C2399.99,932.397 2398.76,928.818 2395.51,926.131 C2391.82,923.1 2386.32,921.647 2379.16,921.647 C2366.51,921.647 2357.32,927.584 2357.32,935.756 C2357.32,939.912 2359.9,942.6 2363.82,942.6 C2367.4,942.6 2369.87,940.24 2369.87,936.881 C2369.87,935.428 2369.3,933.865 2368.18,932.287 C2367.51,931.506 2367.4,931.287 2367.4,930.725 C2367.4,928.475 2371.88,926.459 2377.26,926.459 C2380.83,926.459 2384.76,927.584 2386.55,929.272 C2388.68,931.053 2389.46,933.74 2389.46,938.787 L2389.46,943.147 C2377.82,945.162 2374.12,946.068 2368.63,948.193 C2358.88,951.772 2354.29,956.928 2354.29,964.1 C2354.29,972.162 2360.57,977.209 2370.54,977.209 C2378.26,977.209 2385.21,974.068 2390.02,968.35 C2391.82,974.068 2394.62,976.303 2399.88,976.303 C2404.91,976.303 2410.18,973.053 2410.18,969.803 C2410.18,969.022 2409.74,968.459 2409.07,968.459 C2408.62,968.459 2408.16,968.584 2407.38,968.912 C2405.82,969.584 2405.15,969.693 2404.24,969.693 C2401.12,969.693 2399.99,967.678 2399.99,961.975 L2399.99,939.459 M2389.46,953.115 C2389.46,959.834 2389.13,961.412 2387.23,964.318 C2384.43,968.459 2379.38,971.272 2374.46,971.272 C2369.3,971.272 2365.6,967.568 2365.6,962.537 C2365.6,957.818 2367.96,954.459 2372.88,952.115 C2376.35,950.553 2380.73,949.428 2389.46,947.975 L2389.46,953.115 M2421.04,996.131 C2431.12,989.178 2435.71,982.35 2435.71,974.506 C2435.71,967.787 2432.01,963.428 2426.52,963.428 C2422.38,963.428 2419.24,966.334 2419.24,970.147 C2419.24,974.178 2422.26,976.756 2426.98,976.756 C2427.52,976.756 2428.32,976.756 2428.65,976.647 L2428.99,976.647 C2429.54,976.647 2429.77,976.975 2429.77,977.647 C2429.77,982.35 2425.96,987.615 2418.46,992.881 L2421.04,996.131 M2495.94,923.334 L2476.57,924.568 L2476.57,929.381 L2480.6,929.381 C2484.85,929.49 2485.41,930.162 2485.41,934.975 L2485.41,961.74 L2485.41,964.428 L2485.41,967.006 C2485.3,968.693 2485.18,969.365 2484.74,969.928 C2483.96,970.928 2481.82,971.381 2477.01,971.49 L2476.57,971.49 L2476.57,975.522 L2504.9,975.522 L2504.9,971.49 L2504.44,971.49 C2496.94,971.272 2495.94,970.709 2495.94,966.678 L2495.94,961.74 L2495.94,950.1 C2495.94,944.615 2496.73,939.568 2497.96,936.99 C2500.3,931.959 2505.35,928.475 2510.16,928.475 C2513.07,928.475 2516.43,930.053 2518.12,932.397 C2519.79,934.865 2520.58,938.225 2520.58,943.6 L2520.58,961.74 L2520.58,967.006 C2520.46,968.693 2520.35,969.365 2519.91,969.928 C2519.12,970.928 2516.88,971.381 2512.07,971.49 L2511.62,971.49 L2511.62,975.522 L2539.96,975.522 L2539.96,971.49 L2539.51,971.49 C2532.12,971.272 2531.1,970.709 2531.1,966.678 L2531.1,961.74 L2531.1,944.162 C2531.1,936.1 2530.77,934.084 2528.76,930.272 C2525.96,924.897 2520.35,921.647 2513.63,921.647 C2506.35,921.647 2500.87,925.006 2495.94,932.397 L2495.94,923.334 M2592.58,939.459 C2592.58,932.397 2591.35,928.818 2588.1,926.131 C2584.41,923.1 2578.91,921.647 2571.76,921.647 C2559.1,921.647 2549.91,927.584 2549.91,935.756 C2549.91,939.912 2552.49,942.6 2556.41,942.6 C2559.99,942.6 2562.46,940.24 2562.46,936.881 C2562.46,935.428 2561.9,933.865 2560.77,932.287 C2560.1,931.506 2559.99,931.287 2559.99,930.725 C2559.99,928.475 2564.48,926.459 2569.85,926.459 C2573.43,926.459 2577.35,927.584 2579.15,929.272 C2581.27,931.053 2582.05,933.74 2582.05,938.787 L2582.05,943.147 C2570.41,945.162 2566.71,946.068 2561.23,948.193 C2551.48,951.772 2546.88,956.928 2546.88,964.1 C2546.88,972.162 2553.16,977.209 2563.13,977.209 C2570.85,977.209 2577.8,974.068 2582.62,968.35 C2584.41,974.068 2587.21,976.303 2592.48,976.303 C2597.51,976.303 2602.77,973.053 2602.77,969.803 C2602.77,969.022 2602.33,968.459 2601.66,968.459 C2601.21,968.459 2600.76,968.584 2599.98,968.912 C2598.41,969.584 2597.74,969.693 2596.83,969.693 C2593.71,969.693 2592.58,967.678 2592.58,961.975 L2592.58,939.459 M2582.05,953.115 C2582.05,959.834 2581.73,961.412 2579.82,964.318 C2577.02,968.459 2571.98,971.272 2567.05,971.272 C2561.9,971.272 2558.19,967.568 2558.19,962.537 C2558.19,957.818 2560.55,954.459 2565.48,952.115 C2568.94,950.553 2573.32,949.428 2582.05,947.975 L2582.05,953.115 M2608.93,944.381 L2608.93,953.678 L2636.82,953.678 L2636.82,944.381 L2608.93,944.381 M2663.91,923.334 L2644.54,924.568 L2644.54,929.381 L2648.57,929.381 C2652.82,929.49 2653.38,930.162 2653.38,934.975 L2653.38,961.74 L2653.38,964.428 L2653.38,967.006 C2653.27,968.693 2653.15,969.365 2652.71,969.928 C2651.93,970.928 2649.79,971.381 2644.98,971.49 L2644.54,971.49 L2644.54,975.522 L2672.87,975.522 L2672.87,971.49 L2672.41,971.49 C2664.91,971.272 2663.91,970.709 2663.91,966.678 L2663.91,961.74 L2663.91,950.1 C2663.91,944.615 2664.69,939.568 2665.93,936.99 C2668.27,931.959 2673.32,928.475 2678.13,928.475 C2681.04,928.475 2684.4,930.053 2686.08,932.397 C2687.76,934.865 2688.55,938.225 2688.55,943.6 L2688.55,961.74 L2688.55,967.006 C2688.43,968.693 2688.32,969.365 2687.88,969.928 C2687.08,970.928 2684.85,971.381 2680.04,971.49 L2679.58,971.49 L2679.58,975.522 L2707.93,975.522 L2707.93,971.49 L2707.48,971.49 C2700.08,971.272 2699.07,970.709 2699.07,966.678 L2699.07,961.74 L2699.07,944.162 C2699.07,936.1 2698.74,934.084 2696.73,930.272 C2693.93,924.897 2688.32,921.647 2681.6,921.647 C2674.32,921.647 2668.83,925.006 2663.91,932.397 L2663.91,923.334 M2760.55,939.459 C2760.55,932.397 2759.32,928.818 2756.07,926.131 C2752.38,923.1 2746.88,921.647 2739.73,921.647 C2727.07,921.647 2717.88,927.584 2717.88,935.756 C2717.88,939.912 2720.46,942.6 2724.38,942.6 C2727.96,942.6 2730.43,940.24 2730.43,936.881 C2730.43,935.428 2729.87,933.865 2728.74,932.287 C2728.07,931.506 2727.96,931.287 2727.96,930.725 C2727.96,928.475 2732.44,926.459 2737.82,926.459 C2741.4,926.459 2745.32,927.584 2747.12,929.272 C2749.24,931.053 2750.02,933.74 2750.02,938.787 L2750.02,943.147 C2738.38,945.162 2734.68,946.068 2729.19,948.193 C2719.44,951.772 2714.85,956.928 2714.85,964.1 C2714.85,972.162 2721.13,977.209 2731.1,977.209 C2738.82,977.209 2745.77,974.068 2750.58,968.35 C2752.38,974.068 2755.18,976.303 2760.44,976.303 C2765.48,976.303 2770.74,973.053 2770.74,969.803 C2770.74,969.022 2770.3,968.459 2769.63,968.459 C2769.18,968.459 2768.73,968.584 2767.94,968.912 C2766.38,969.584 2765.71,969.693 2764.8,969.693 C2761.68,969.693 2760.55,967.678 2760.55,961.975 L2760.55,939.459 M2750.02,953.115 C2750.02,959.834 2749.69,961.412 2747.79,964.318 C2744.99,968.459 2739.94,971.272 2735.02,971.272 C2729.87,971.272 2726.16,967.568 2726.16,962.537 C2726.16,957.818 2728.52,954.459 2733.44,952.115 C2736.91,950.553 2741.29,949.428 2750.02,947.975 L2750.02,953.115 M2776.9,944.381 L2776.9,953.678 L2804.79,953.678 L2804.79,944.381 L2776.9,944.381 M2831.88,923.334 L2812.51,924.568 L2812.51,929.381 L2816.54,929.381 C2820.79,929.49 2821.35,930.162 2821.35,934.975 L2821.35,961.74 L2821.35,964.428 L2821.35,967.006 C2821.24,968.693 2821.12,969.365 2820.68,969.928 C2819.9,970.928 2817.76,971.381 2812.94,971.49 L2812.51,971.49 L2812.51,975.522 L2840.83,975.522 L2840.83,971.49 L2840.38,971.49 C2832.88,971.272 2831.88,970.709 2831.88,966.678 L2831.88,961.74 L2831.88,950.1 C2831.88,944.615 2832.66,939.568 2833.9,936.99 C2836.24,931.959 2841.29,928.475 2846.1,928.475 C2849.01,928.475 2852.37,930.053 2854.05,932.397 C2855.73,934.865 2856.52,938.225 2856.52,943.6 L2856.52,961.74 L2856.52,967.006 C2856.4,968.693 2856.29,969.365 2855.85,969.928 C2855.05,970.928 2852.82,971.381 2848.01,971.49 L2847.55,971.49 L2847.55,975.522 L2875.9,975.522 L2875.9,971.49 L2875.44,971.49 C2868.05,971.272 2867.04,970.709 2867.04,966.678 L2867.04,961.74 L2867.04,944.162 C2867.04,936.1 2866.71,934.084 2864.69,930.272 C2861.9,924.897 2856.29,921.647 2849.57,921.647 C2842.29,921.647 2836.8,925.006 2831.88,932.397 L2831.88,923.334 M2928.52,939.459 C2928.52,932.397 2927.29,928.818 2924.04,926.131 C2920.35,923.1 2914.85,921.647 2907.69,921.647 C2895.04,921.647 2885.85,927.584 2885.85,935.756 C2885.85,939.912 2888.43,942.6 2892.35,942.6 C2895.93,942.6 2898.4,940.24 2898.4,936.881 C2898.4,935.428 2897.83,933.865 2896.71,932.287 C2896.04,931.506 2895.93,931.287 2895.93,930.725 C2895.93,928.475 2900.41,926.459 2905.79,926.459 C2909.37,926.459 2913.29,927.584 2915.08,929.272 C2917.21,931.053 2917.99,933.74 2917.99,938.787 L2917.99,943.147 C2906.35,945.162 2902.65,946.068 2897.16,948.193 C2887.41,951.772 2882.82,956.928 2882.82,964.1 C2882.82,972.162 2889.1,977.209 2899.07,977.209 C2906.79,977.209 2913.74,974.068 2918.55,968.35 C2920.35,974.068 2923.15,976.303 2928.41,976.303 C2933.44,976.303 2938.71,973.053 2938.71,969.803 C2938.71,969.022 2938.27,968.459 2937.6,968.459 C2937.15,968.459 2936.69,968.584 2935.91,968.912 C2934.35,969.584 2933.68,969.693 2932.77,969.693 C2929.65,969.693 2928.52,967.678 2928.52,961.975 L2928.52,939.459 M2917.99,953.115 C2917.99,959.834 2917.66,961.412 2915.76,964.318 C2912.96,968.459 2907.91,971.272 2902.99,971.272 C2897.83,971.272 2894.13,967.568 2894.13,962.537 C2894.13,957.818 2896.49,954.459 2901.41,952.115 C2904.88,950.553 2909.26,949.428 2917.99,947.975 L2917.99,953.115 M2944.87,944.381 L2944.87,953.678 L2972.76,953.678 L2972.76,944.381 L2944.87,944.381 M2999.85,923.334 L2980.48,924.568 L2980.48,929.381 L2984.51,929.381 C2988.76,929.49 2989.32,930.162 2989.32,934.975 L2989.32,961.74 L2989.32,964.428 L2989.32,967.006 C2989.21,968.693 2989.08,969.365 2988.65,969.928 C2987.87,970.928 2985.73,971.381 2980.91,971.49 L2980.48,971.49 L2980.48,975.522 L3008.8,975.522 L3008.8,971.49 L3008.35,971.49 C3000.85,971.272 2999.85,970.709 2999.85,966.678 L2999.85,961.74 L2999.85,950.1 C2999.85,944.615 3000.63,939.568 3001.87,936.99 C3004.21,931.959 3009.26,928.475 3014.07,928.475 C3016.98,928.475 3020.33,930.053 3022.02,932.397 C3023.69,934.865 3024.49,938.225 3024.49,943.6 L3024.49,961.74 L3024.49,967.006 C3024.37,968.693 3024.26,969.365 3023.82,969.928 C3023.02,970.928 3020.79,971.381 3015.98,971.49 L3015.52,971.49 L3015.52,975.522 L3043.87,975.522 L3043.87,971.49 L3043.41,971.49 C3036.02,971.272 3035.01,970.709 3035.01,966.678 L3035.01,961.74 L3035.01,944.162 C3035.01,936.1 3034.68,934.084 3032.66,930.272 C3029.87,924.897 3024.26,921.647 3017.54,921.647 C3010.26,921.647 3004.77,925.006 2999.85,932.397 L2999.85,923.334 M3096.49,939.459 C3096.49,932.397 3095.26,928.818 3092.01,926.131 C3088.32,923.1 3082.82,921.647 3075.66,921.647 C3063.01,921.647 3053.82,927.584 3053.82,935.756 C3053.82,939.912 3056.4,942.6 3060.32,942.6 C3063.9,942.6 3066.37,940.24 3066.37,936.881 C3066.37,935.428 3065.8,933.865 3064.68,932.287 C3064.01,931.506 3063.9,931.287 3063.9,930.725 C3063.9,928.475 3068.38,926.459 3073.76,926.459 C3077.33,926.459 3081.26,927.584 3083.05,929.272 C3085.18,931.053 3085.96,933.74 3085.96,938.787 L3085.96,943.147 C3074.32,945.162 3070.62,946.068 3065.13,948.193 C3055.38,951.772 3050.79,956.928 3050.79,964.1 C3050.79,972.162 3057.07,977.209 3067.04,977.209 C3074.76,977.209 3081.71,974.068 3086.52,968.35 C3088.32,974.068 3091.12,976.303 3096.38,976.303 C3101.41,976.303 3106.68,973.053 3106.68,969.803 C3106.68,969.022 3106.24,968.459 3105.57,968.459 C3105.12,968.459 3104.66,968.584 3103.88,968.912 C3102.32,969.584 3101.65,969.693 3100.74,969.693 C3097.62,969.693 3096.49,967.678 3096.49,961.975 L3096.49,939.459 M3085.96,953.115 C3085.96,959.834 3085.63,961.412 3083.73,964.318 C3080.93,968.459 3075.88,971.272 3070.96,971.272 C3065.8,971.272 3062.1,967.568 3062.1,962.537 C3062.1,957.818 3064.46,954.459 3069.38,952.115 C3072.85,950.553 3077.23,949.428 3085.96,947.975 L3085.96,953.115 M3158.76,939.459 C3158.76,932.397 3157.52,928.818 3154.27,926.131 C3150.58,923.1 3145.08,921.647 3137.93,921.647 C3125.27,921.647 3116.08,927.584 3116.08,935.756 C3116.08,939.912 3118.66,942.6 3122.58,942.6 C3126.16,942.6 3128.63,940.24 3128.63,936.881 C3128.63,935.428 3128.07,933.865 3126.94,932.287 C3126.27,931.506 3126.16,931.287 3126.16,930.725 C3126.16,928.475 3130.65,926.459 3136.02,926.459 C3139.6,926.459 3143.52,927.584 3145.32,929.272 C3147.44,931.053 3148.23,933.74 3148.23,938.787 L3148.23,943.147 C3136.58,945.162 3132.88,946.068 3127.4,948.193 C3117.65,951.772 3113.05,956.928 3113.05,964.1 C3113.05,972.162 3119.33,977.209 3129.3,977.209 C3137.02,977.209 3143.98,974.068 3148.79,968.35 C3150.58,974.068 3153.38,976.303 3158.65,976.303 C3163.68,976.303 3168.94,973.053 3168.94,969.803 C3168.94,969.022 3168.51,968.459 3167.83,968.459 C3167.38,968.459 3166.93,968.584 3166.15,968.912 C3164.58,969.584 3163.91,969.693 3163.01,969.693 C3159.88,969.693 3158.76,967.678 3158.76,961.975 L3158.76,939.459 M3148.23,953.115 C3148.23,959.834 3147.9,961.412 3145.99,964.318 C3143.19,968.459 3138.15,971.272 3133.23,971.272 C3128.07,971.272 3124.37,967.568 3124.37,962.537 C3124.37,957.818 3126.73,954.459 3131.65,952.115 C3135.12,950.553 3139.49,949.428 3148.23,947.975 L3148.23,953.115 "/>
<path class="RehearsalMark" fill="none" stroke="#000000" stroke-width="8.96" stroke-linecap="square" stroke-linejoin="miter" stroke-miterlimit="2" fill-rule="evenodd" d="M926.493,146.386 L1117.45,146.386 L1117.45,327.346 L926.493,327.346 L926.493,146.386 "/>
<path class="RehearsalMark" d="M1017.08,179.163 L981.442,262.366 C974.223,279.319 968.411,285.444 959.145,286.382 L959.145,294.866 L1004.52,294.866 L1004.52,286.382 C993.379,285.757 988.973,282.772 988.973,275.553 C988.973,272.882 989.598,270.382 991.333,266.6 L993.848,260.647 L1032.94,260.647 L1038.9,276.022 C1040.63,280.428 1040.79,281.21 1040.79,282.46 C1040.79,285.288 1038.58,286.225 1031.68,286.225 L1029,286.382 L1029,294.866 L1084.11,294.866 L1084.11,286.382 C1075.18,286.069 1072.66,284.507 1069.36,276.491 L1029,179.163 L1017.08,179.163 M1013.79,212.6 L1029,250.116 L997.926,250.116 L1013.79,212.6 "/>
<path class="RehearsalMark" fill="none" stroke="#000000" stroke-width="8.96" stroke-linecap="square" stroke-linejoin="miter" stroke-miterlimit="2" fill-rule="evenodd" d="M1484.28,851.162 L1663.24,851.162 L1663.24,1030.12 L1484.28,1030.12 L1484.28,851.162 "/>
<path class="RehearsalMark" d="M1517.43,884.282 L1517.43,892.767 L1519.79,892.767 C1528.26,892.767 1531.24,893.392 1532.65,894.97 C1533.76,896.688 1533.76,897.157 1533.76,906.892 L1533.76,975.032 C1533.76,984.767 1533.76,985.235 1532.65,986.813 C1531.24,988.532 1528.1,989.157 1519.79,989.157 L1517.43,989.157 L1517.43,997.642 L1581.01,997.642 C1597.34,997.642 1605.67,996.392 1613.82,992.782 C1623.71,988.376 1630.31,978.485 1630.31,967.813 C1630.31,956.829 1624.03,948.188 1612.42,942.845 C1607.07,940.345 1602.53,939.079 1594.2,937.985 C1601.9,936.72 1606.29,935.626 1610.68,933.579 C1620.1,929.032 1625.14,921.501 1625.14,912.079 C1625.14,903.126 1620.42,894.813 1612.73,890.563 C1604.09,885.704 1596.56,884.282 1578.03,884.282 L1517.43,884.282 M1562.01,935.157 L1562.01,901.876 C1561.7,895.282 1563.9,893.079 1570.81,892.767 L1575.53,892.767 C1589.34,892.767 1596.71,899.673 1596.71,912.704 C1596.71,920.392 1594.04,926.517 1589.03,930.454 C1584.78,933.907 1579.45,935.157 1569.71,935.157 L1562.01,935.157 M1562.01,943.798 L1572.85,943.798 C1582.74,943.798 1587.29,944.735 1591.68,947.563 C1597.18,951.173 1600.32,958.079 1600.32,966.235 C1600.32,973.782 1597.49,980.688 1592.95,984.454 C1589.03,987.595 1583.84,989.157 1576.31,989.157 L1571.59,989.157 C1562.65,988.845 1561.7,987.907 1562.01,979.11 L1562.01,943.798 "/>
<path class="NoteDot" transform="matrix(2.24,0,0,2.24,3731.08,1137.64)" d="M0,0 C0,2.76563 2.23438,5 5,5 C7.76563,5 10,2.76563 10,0 C10,-2.76563 7.76563,-5 5,-5 C2.23438,-5 0,-2.76563 0,0"/>
<path class="NoteDot" transform="matrix(2.24,0,0,2.24,3113.91,1952.42)" d="M0,0 C0,2.76563 2.23438,5 5,5 C7.76563,5 10,2.76563 10,0 C10,-2.76563 7.76563,-5 5,-5 C2.23438,-5 0,-2.76563 0,0"/>
</svg>
